<?xml version="1.0" encoding="utf-8"?>
<svg xmlns="http://www.w3.org/2000/svg" height="48" viewBox="0 -960 960 960" width="48">
  <path fill="rgb(255, 255, 255)" d="M 217.022 -852.99 C 217.022 -877.13 225.426 -897.68 242.234 -914.68 C 259.034 -931.66 279.378 -940.15 303.262 -940.15 L 488.611 -940.15 C 500.575 -940.15 511.975 -937.71 522.814 -932.81 C 533.651 -927.92 543.045 -921.5 550.998 -913.55 L 713.385 -751.16 C 721.336 -743.21 727.758 -733.81 732.651 -722.98 C 737.543 -712.14 739.99 -700.73 739.99 -688.77 L 739.99 -609.39 L 774.269 -609.39 C 810.957 -609.39 841.708 -596.65 866.524 -570.77 C 891.32 -545.26 903.728 -514.2 903.728 -477.94 L 903.728 -306.67 C 903.728 -279.97 894.647 -257.47 876.462 -239.35 C 858.258 -221.23 835.832 -212.06 809.123 -212.06 L 742.402 -212.06 L 742.402 -113.47 C 742.402 -87.778 733.32 -65.671 715.136 -47.339 C 696.934 -29.021 674.506 -19.855 647.799 -19.855 L 311.205 -19.855 C 284.795 -19.855 262.588 -29.021 244.583 -47.339 C 226.598 -65.671 217.597 -87.778 217.597 -113.47 L 217.597 -212.06 L 149.879 -212.06 C 123.469 -212.06 101.262 -221.23 83.257 -239.35 C 65.272 -257.47 56.271 -279.97 56.271 -306.67 L 56.271 -477.94 C 56.271 -514.2 68.619 -545.26 93.336 -570.77 C 118.033 -596.65 148.505 -609.39 184.733 -609.39 L 217.022 -609.39 L 217.022 -852.99 Z M 479.437 -725.47 L 479.437 -852.99 L 303.262 -852.99 L 303.262 -609.39 L 652.833 -609.39 L 652.833 -682.35 L 522.557 -682.35 C 510.477 -682.35 500.272 -686.52 491.942 -694.86 C 483.605 -703.19 479.437 -713.39 479.437 -725.47 Z M 149.879 -306.67 L 261.413 -306.67 L 261.413 -322.6 C 268.722 -326.37 276.57 -329.77 284.955 -332.35 C 293.32 -335.15 302.083 -336.54 311.205 -336.54 L 647.799 -336.54 C 656.941 -336.54 665.684 -335.15 674.068 -332.35 C 682.453 -329.77 690.3 -326.37 697.59 -322.6 L 697.59 -306.67 L 809.123 -306.67 L 809.123 -480.15 C 809.123 -490.1 805.798 -498.46 799.106 -505.03 C 792.434 -511.41 784.148 -514.79 774.269 -514.79 L 184.733 -514.79 C 175.333 -514.79 167.168 -511.21 160.256 -504.04 C 153.345 -497.07 149.879 -488.3 149.879 -477.94 L 149.879 -306.67 Z M 691.615 -409.23 C 683.648 -417.21 679.664 -426.77 679.664 -438.12 C 679.664 -449.46 683.648 -459.23 691.615 -467.39 C 699.582 -475.75 709.381 -479.93 720.992 -479.93 C 732.863 -479.93 742.722 -475.75 750.569 -467.39 C 758.395 -459.23 762.32 -449.46 762.32 -438.12 C 762.32 -426.57 758.336 -416.8 750.369 -409.04 C 742.402 -401.28 732.624 -397.29 720.992 -397.29 C 709.381 -397.29 699.582 -401.28 691.615 -409.23 Z M 647.799 -108.5 L 647.799 -241.93 L 311.205 -241.93 L 311.205 -108.5 L 647.799 -108.5 Z"/>
</svg>