<?xml version="1.0" encoding="utf-8"?>
<svg xmlns="http://www.w3.org/2000/svg" height="48" viewBox="0 -960 960 960" width="48">
  <path fill="rgb(255, 255, 255)" d="M 269.4 -52.854 C 247.548 -52.854 228.936 -60.54 213.565 -75.911 C 198.188 -91.288 190.499 -109.91 190.499 -131.75 L 190.499 -630.75 C 190.499 -652.83 198.188 -671.64 213.565 -687.18 C 228.936 -702.72 247.548 -710.49 269.4 -710.49 L 312.105 -710.49 L 312.105 -768.27 C 312.105 -812.63 327.299 -850.28 357.708 -881.18 C 388.114 -912.12 425.222 -927.57 469.06 -927.57 C 505.293 -927.57 537.123 -916.8 564.563 -895.26 C 591.987 -873.69 610.136 -845.89 618.991 -812.01 C 622.115 -801.07 620.661 -791.09 614.664 -782.02 C 608.65 -772.95 600.266 -768.27 589.505 -768.27 C 580.008 -768.27 571.497 -770.92 564 -776.09 C 556.49 -781.23 550.617 -787.95 546.368 -796.39 C 541.183 -812.93 531.64 -826.51 517.742 -837.31 C 503.826 -848.08 487.599 -853.39 469.06 -853.39 C 445.368 -853.39 425.519 -845.27 409.511 -829.03 C 393.503 -812.79 385.508 -792.47 385.508 -768.11 L 385.508 -710.49 L 540.514 -710.49 C 551.46 -710.49 561.89 -708.24 571.806 -703.77 C 581.722 -699.3 590.317 -693.42 597.591 -686.15 L 746.159 -537.58 C 753.434 -530.3 759.309 -521.71 763.786 -511.8 C 768.262 -501.88 770.501 -491.44 770.501 -480.5 L 770.501 -131.75 C 770.501 -109.91 762.73 -91.288 747.192 -75.911 C 731.652 -60.54 712.842 -52.854 690.761 -52.854 Z M 532.121 -514.08 L 532.121 -630.75 L 269.4 -630.75 L 269.4 -131.75 L 690.761 -131.75 L 690.761 -474.63 L 571.571 -474.63 C 560.519 -474.63 551.183 -478.44 543.561 -486.07 C 535.934 -493.69 532.121 -503.02 532.121 -514.08 Z M 417.167 -188.25 C 413.668 -193.59 410.06 -201.48 408.804 -207.53 C 407.922 -211.76 407.743 -217.29 408.089 -222.38 C 408.057 -223.71 408.149 -225.07 408.378 -226.44 L 421.559 -305.39 C 415.43 -310.77 412.559 -313.04 403.782 -324.87 C 395.246 -338.15 388.57 -357.31 388.57 -373.72 C 388.57 -385.33 391.298 -398.62 395.54 -408.88 C 399.79 -419.17 407.72 -430.63 415.357 -438.8 C 423.587 -446.52 434.623 -454 444.925 -458.23 C 455.216 -462.47 468.473 -465.15 480.032 -465.15 C 491.592 -465.15 504.849 -462.47 515.137 -458.23 C 525.435 -453.99 536.945 -446.03 545.166 -438.31 C 552.796 -430.14 560.235 -419.15 564.476 -408.87 C 568.709 -398.6 571.43 -385.33 571.43 -373.72 C 571.43 -357.33 564.482 -337.75 555.941 -324.46 C 547.143 -312.62 544.664 -310.88 538.588 -305.55 L 552.478 -226.08 C 553.052 -220.06 552.655 -211.83 551.16 -206.09 C 549.667 -200.36 544.694 -191.36 541.271 -186.35 C 536.933 -181.9 530.2 -176.77 524.636 -174.16 C 519.105 -171.55 509.78 -169.57 503.461 -169.02 L 455.475 -169.05 C 449.135 -169.59 440.863 -171.55 435.319 -174.16 C 429.737 -176.78 422.986 -181.95 418.644 -186.41 C 418.118 -186.99 417.625 -187.61 417.167 -188.25 Z M 453.531 -212.86 C 455.592 -211.89 455.671 -211.63 457.601 -211.77 L 503.461 -211.8 C 505.371 -211.66 504.365 -211.89 506.422 -212.86 C 508.446 -213.81 508.236 -213.51 508.668 -213.92 C 509.361 -214.75 509.221 -214.79 509.764 -216.87 C 510.303 -218.94 510.528 -218.84 510.082 -220.38 L 494.239 -310.83 C 492.784 -319.14 496.357 -327.54 503.36 -332.25 C 511.319 -337.49 515.286 -340.71 520.966 -349.07 C 526.778 -356.89 528.654 -363.94 528.654 -373.72 C 528.654 -381.03 527.632 -386 524.927 -392.57 C 522.232 -399.11 519.789 -403.28 514.643 -408.35 C 509.668 -413.38 505.392 -415.98 498.858 -418.67 C 492.313 -421.37 487.341 -422.37 480.032 -422.37 C 472.722 -422.37 467.746 -421.37 461.192 -418.67 C 454.649 -415.98 450.44 -413.51 445.361 -408.32 C 440.384 -403.37 437.779 -399.1 435.078 -392.56 C 432.37 -385.99 431.346 -381.02 431.346 -373.72 C 431.346 -363.95 433.17 -356.94 439.048 -349.08 C 444.62 -340.92 448.782 -337.39 456.8 -332.04 C 463.683 -327.34 467.212 -319.07 465.839 -310.85 L 451.003 -221.99 C 450.922 -221.12 450.787 -220.25 450.596 -219.39 C 449.999 -217.93 450.264 -218.25 450.684 -216.23 C 451.106 -214.21 450.821 -214.65 450.997 -214.27 C 451.544 -213.63 451.506 -213.82 453.531 -212.86 Z"/>
</svg>