<?xml version="1.0" encoding="utf-8"?>
<svg xmlns="http://www.w3.org/2000/svg" height="48" viewBox="0 -960 960 960" width="48">
  <path fill="rgb(255, 255, 255)" d="M 229 -55 C 202.967 -55 180.793 -64.157 162.48 -82.47 C 144.16 -100.79 135 -122.967 135 -149 L 135 -811 C 135 -837.307 144.16 -859.717 162.48 -878.23 C 180.793 -896.743 202.967 -906 229 -906 L 552 -906 C 565.04 -906 577.467 -903.333 589.28 -898 C 601.093 -892.667 611.333 -885.667 620 -877 L 797 -700 C 805.667 -691.333 812.667 -681.093 818 -669.28 C 823.333 -657.467 826 -645.04 826 -632 L 826 -149 C 826 -122.967 816.743 -100.79 798.23 -82.47 C 779.717 -64.157 757.307 -55 731 -55 Z M 542 -672 L 542 -811 L 229 -811 L 229 -149 L 731 -149 L 731 -625 L 589 -625 C 575.833 -625 564.71 -629.543 555.63 -638.63 C 546.543 -647.71 542 -658.833 542 -672 Z M 516.836 -448.74 L 520.234 -435.59 C 524.174 -434.12 525.21 -433.67 527.978 -432.38 L 539.641 -439.29 C 542.947 -441.02 547.583 -442.26 551.116 -442.08 C 554.652 -441.9 559.207 -440.14 562.316 -438.08 C 572.86 -430.11 582.616 -420.34 590.523 -409.83 C 592.612 -406.72 594.35 -402.24 594.544 -398.7 C 594.737 -395.15 593.479 -390.49 591.727 -387.17 L 584.86 -375.51 C 586.593 -371.68 587.021 -370.64 588.071 -367.8 L 601.202 -364.4 C 604.774 -363.28 608.931 -360.86 611.297 -358.23 C 613.664 -355.58 615.619 -351.18 616.338 -347.52 C 618.209 -334.5 618.209 -320.68 616.341 -307.68 C 614.613 -300.34 607.866 -293.11 601.103 -290.58 L 588.068 -287.32 C 586.603 -283.38 586.181 -282.34 584.895 -279.59 L 591.73 -267.96 C 593.487 -264.64 594.735 -259.95 594.544 -256.4 C 594.352 -252.83 592.654 -248.41 590.526 -245.33 C 582.601 -234.64 572.959 -224.98 562.39 -217.15 C 559.261 -214.96 554.73 -213.16 551.173 -212.95 C 547.613 -212.74 542.903 -214.02 539.597 -215.75 L 527.939 -222.65 C 524.156 -220.95 523.096 -220.53 520.241 -219.45 L 516.842 -206.42 C 515.743 -202.83 513.34 -198.62 510.699 -196.22 C 508.052 -193.83 503.599 -191.88 499.9 -191.17 C 486.867 -189.37 473.098 -189.38 460.082 -191.17 C 456.376 -191.88 451.932 -193.83 449.282 -196.22 C 446.638 -198.62 444.238 -202.8 443.14 -206.41 L 439.756 -219.46 C 435.903 -220.94 434.844 -221.34 432.03 -222.63 L 420.343 -215.72 C 417.04 -213.99 412.373 -212.74 408.813 -212.95 C 405.257 -213.16 400.845 -214.87 397.714 -217.06 C 387.161 -224.89 377.447 -234.53 369.521 -245.22 C 367.4 -248.32 365.638 -252.85 365.448 -256.4 C 365.259 -259.95 366.516 -264.65 368.252 -267.98 L 375.107 -279.6 C 373.367 -283.39 372.946 -284.45 371.896 -287.33 L 358.592 -290.66 C 351.826 -293.19 345.374 -300.36 343.649 -307.68 C 341.793 -320.68 341.796 -334.53 343.655 -347.54 C 344.372 -351.19 346.318 -355.58 348.682 -358.22 C 351.042 -360.85 355.238 -363.28 358.811 -364.41 L 371.933 -367.81 C 373.383 -371.65 373.812 -372.71 375.113 -375.53 L 368.222 -387.21 C 366.494 -390.54 365.259 -395.15 365.448 -398.69 C 365.638 -402.22 367.402 -406.75 369.482 -409.86 C 377.39 -420.39 387.208 -430.17 397.734 -438.12 C 400.845 -440.2 405.335 -441.9 408.869 -442.08 C 412.403 -442.26 417.085 -440.99 420.388 -439.26 L 432.022 -432.36 C 435.811 -434.11 436.853 -434.56 439.75 -435.62 L 443.146 -448.77 C 444.251 -452.3 446.668 -456.47 449.313 -458.83 C 451.954 -461.18 456.29 -463.12 460.002 -463.81 C 473.062 -465.76 486.814 -465.78 499.891 -463.82 C 503.596 -463.13 508.029 -461.18 510.667 -458.81 C 513.308 -456.45 515.731 -452.27 516.836 -448.74 Z M 515.101 -362.61 C 505.698 -372.01 494.238 -377.17 480 -377.17 C 465.762 -377.17 454.302 -372.01 444.901 -362.61 C 435.5 -353.19 430.35 -341.73 430.35 -327.5 C 430.35 -313.28 435.5 -301.82 444.901 -292.4 C 454.302 -283 465.762 -277.85 480 -277.85 C 494.238 -277.85 505.698 -283 515.101 -292.4 C 524.502 -301.82 529.652 -313.28 529.652 -327.5 C 529.652 -341.73 524.502 -353.19 515.101 -362.61 Z M 383.553 -481.04 C 381.035 -481.04 377.969 -481.69 375.633 -482.44 C 373.065 -483.52 370.276 -485.46 368.127 -487.6 L 367.951 -487.78 L 367.762 -488.02 L 307.363 -584.33 C 302.744 -590.46 301.623 -598.44 304.352 -605.47 C 305.976 -608.87 308.618 -612.19 311.528 -614.02 C 314.42 -615.83 318.552 -616.82 322.407 -616.9 L 352.317 -616.9 L 352.317 -739.9 C 352.498 -745.02 354.648 -750.36 358.07 -754.17 C 361.79 -757.77 367.151 -760.09 372.371 -760.3 L 396.933 -760.3 C 402.098 -760.1 407.481 -757.81 411.292 -754.24 C 414.86 -750.42 417.103 -745.06 417.298 -739.9 L 417.298 -616.9 L 447.207 -616.9 C 451.062 -616.82 455.194 -615.83 458.087 -614.02 C 460.996 -612.19 463.638 -608.87 465.262 -605.47 C 467.998 -598.49 467.025 -590.56 462.655 -584.43 L 399.138 -487.77 L 398.969 -487.6 C 396.82 -485.46 393.791 -483.44 391.222 -482.35 C 388.885 -481.6 386.061 -481.04 383.553 -481.04 Z"/>
</svg>