<?xml version="1.0" encoding="utf-8"?>
<svg xmlns="http://www.w3.org/2000/svg" height="48" viewBox="0 -960 960 960" width="48">
  <path fill="rgb(255, 255, 255)" d="M 229 -55 C 202.967 -55 180.793 -64.157 162.48 -82.47 C 144.16 -100.79 135 -122.967 135 -149 L 135 -811 C 135 -837.307 144.16 -859.717 162.48 -878.23 C 180.793 -896.743 202.967 -906 229 -906 L 552 -906 C 565.04 -906 577.467 -903.333 589.28 -898 C 601.093 -892.667 611.333 -885.667 620 -877 L 797 -700 C 805.667 -691.333 812.667 -681.093 818 -669.28 C 823.333 -657.467 826 -645.04 826 -632 L 826 -149 C 826 -122.967 816.743 -100.79 798.23 -82.47 C 779.717 -64.157 757.307 -55 731 -55 L 229 -55 Z M 542 -672 L 542 -811 L 229 -811 L 229 -149 L 731 -149 L 731 -625 L 589 -625 C 575.833 -625 564.71 -629.543 555.63 -638.63 C 546.543 -647.71 542 -658.833 542 -672 Z M 448.209 -208.38 L 448.209 -258.16 L 376.135 -258.16 C 369.143 -258.266 361.511 -259.888 355.103 -262.533 C 348.84 -265.28 342.224 -269.657 337.169 -274.231 L 306.309 -305.074 C 300.868 -311.062 296.918 -319.715 296.918 -327.71 C 296.918 -335.679 300.985 -344.553 306.339 -350.737 L 337.441 -381.831 C 342.452 -386.375 348.807 -390.577 355.11 -393.36 C 361.59 -396.01 369.22 -397.53 376.135 -397.62 L 448.209 -397.62 L 448.209 -421.3 L 338.668 -421.3 C 330.597 -421.663 321.914 -425.294 316.084 -430.578 C 310.763 -436.46 307.235 -445.031 306.877 -453.1 L 306.877 -528.98 C 307.224 -537.023 310.698 -545.605 315.971 -551.574 C 321.906 -557.227 330.597 -560.887 338.668 -561.25 L 448.209 -561.25 L 448.209 -566.93 C 448.561 -574.985 452.045 -583.55 457.335 -589.527 C 463.29 -595.185 472.01 -599.19 480.086 -599.19 C 488.161 -599.19 496.871 -595.162 502.789 -589.486 C 508.011 -583.511 511.446 -574.964 511.79 -566.93 L 511.79 -561.25 L 583.865 -561.25 C 590.858 -561.144 598.623 -559.463 605.151 -556.584 C 611.339 -553.66 617.824 -549.243 622.832 -544.708 L 653.683 -513.865 C 659.117 -507.896 663.082 -499.229 663.082 -491.24 C 663.082 -483.196 659.072 -474.618 653.661 -468.673 L 622.855 -437.865 C 617.69 -432.801 611.241 -428.387 604.903 -425.676 C 598.527 -422.948 590.857 -421.406 583.865 -421.3 L 511.79 -421.3 L 511.79 -397.62 L 621.332 -397.62 C 629.328 -397.269 637.952 -393.779 643.911 -388.562 C 649.498 -382.703 653.221 -373.952 653.597 -365.84 L 653.597 -289.95 C 653.211 -281.824 649.471 -273.137 643.926 -267.252 C 637.959 -262.007 629.328 -258.511 621.332 -258.16 L 511.79 -258.16 L 511.79 -208.38 C 511.428 -200.302 507.819 -191.667 502.477 -185.78 C 496.624 -180.498 487.993 -176.59 479.914 -176.59 C 471.827 -176.59 463.133 -180.594 457.323 -185.894 C 452.053 -191.779 448.563 -200.322 448.209 -208.38 Z M 365.242 -479.67 L 582.301 -479.67 L 593.744 -491.114 L 582.239 -502.88 L 365.242 -502.88 L 365.242 -479.67 Z M 377.764 -316.04 L 594.758 -316.04 L 594.758 -339.27 L 377.699 -339.27 L 366.253 -327.823 L 377.764 -316.04 Z"/>
</svg>