<?xml version="1.0" encoding="utf-8"?>
<svg xmlns="http://www.w3.org/2000/svg" height="48" viewBox="0 -960 960 960" width="48">
  <path fill="rgb(255, 255, 255)" d="M 479.999 -176.2 C 451.115 -176.2 423.511 -181.58 398.5 -191.99 C 373.592 -202.42 351.43 -217.21 333.159 -235.3 C 314.963 -253.62 300.259 -275.79 289.788 -300.7 C 279.421 -325.7 274.012 -353.32 274.012 -382.15 C 274.012 -410.78 279.384 -438.13 289.674 -462.94 C 300.072 -487.75 314.773 -509.92 333.044 -528.33 C 351.393 -546.63 373.563 -561.49 398.458 -572.09 C 423.478 -582.69 451.104 -588.18 479.999 -588.18 C 508.583 -588.18 536.022 -582.76 560.885 -572.18 C 585.682 -561.64 607.8 -546.82 626.24 -528.42 C 644.568 -510.03 659.404 -487.89 669.995 -463.18 C 680.5 -438.34 685.987 -410.79 685.987 -381.96 C 685.987 -353.22 680.482 -325.67 669.961 -300.66 C 659.329 -275.75 644.47 -253.59 626.148 -235.21 C 607.738 -216.99 585.575 -202.21 560.798 -191.8 C 535.943 -181.57 508.572 -176.2 479.999 -176.2 Z M 479.681 -227.06 C 523.727 -227.06 560.565 -241.75 590.207 -271.14 C 619.839 -300.63 634.664 -337.5 634.664 -381.87 C 634.664 -426.22 619.866 -463.1 590.291 -492.59 C 560.706 -522.06 523.895 -536.85 479.85 -536.85 C 435.804 -536.85 398.956 -522.06 369.324 -492.69 C 339.683 -463.29 324.867 -426.33 324.867 -382.05 C 324.867 -337.69 339.654 -300.72 369.241 -271.23 C 398.815 -241.75 435.626 -227.06 479.681 -227.06 Z M 377.683 -279.75 C 363.999 -293.32 353.863 -308.76 346.937 -325.71 C 340.207 -342.85 336.688 -361.55 336.688 -381.96 C 336.688 -402.45 340.217 -421.17 346.954 -438.29 C 353.891 -455.24 364.055 -470.6 377.757 -484.26 C 391.488 -497.83 406.865 -507.94 423.805 -514.87 C 440.858 -521.52 459.503 -524.96 479.84 -524.96 C 500.187 -524.96 518.813 -521.52 535.856 -514.76 C 552.786 -507.94 568.147 -497.83 581.848 -484.16 C 595.532 -470.5 605.668 -455.16 612.585 -438.12 C 619.314 -421.07 622.833 -402.35 622.833 -381.87 C 622.833 -361.38 619.314 -342.66 612.567 -325.62 C 605.63 -308.57 595.476 -293.24 581.764 -279.66 C 568.044 -265.99 552.666 -255.98 535.716 -249.06 C 518.662 -242.4 500.028 -238.84 479.681 -238.84 C 459.343 -238.84 440.71 -242.4 423.665 -249.06 C 406.743 -255.98 391.375 -266.09 377.683 -279.75 Z M 431.705 -269.19 C 446.661 -263.01 461.28 -260.48 479.681 -260.48 C 498.091 -260.48 512.72 -263.01 527.704 -269.09 C 542.736 -274.98 554.5 -282.75 566.499 -294.91 C 578.788 -306.8 586.594 -318.59 592.518 -333.66 C 598.649 -348.64 601.223 -363.33 601.223 -381.87 C 601.223 -400.4 598.658 -415.08 592.527 -430.17 C 586.612 -445.13 578.899 -456.93 566.64 -468.82 C 554.67 -481.07 542.839 -488.85 527.827 -494.74 C 512.86 -500.82 498.251 -503.34 479.84 -503.34 C 461.43 -503.34 446.802 -500.82 431.827 -494.74 C 416.795 -488.85 405.031 -481.16 393.022 -468.91 C 380.744 -457.02 372.927 -445.23 367.013 -430.25 C 360.872 -415.28 358.308 -400.58 358.308 -381.96 C 358.308 -363.43 360.872 -348.72 367.003 -333.75 C 372.908 -318.68 380.621 -306.99 392.891 -295.09 C 404.863 -282.85 416.691 -275.08 431.705 -269.19 Z M 229 -55 C 202.967 -55 180.793 -64.157 162.48 -82.47 C 144.16 -100.79 135 -122.967 135 -149 L 135 -811 C 135 -837.307 144.16 -859.717 162.48 -878.23 C 180.793 -896.743 202.967 -906 229 -906 L 552 -906 C 565.04 -906 577.467 -903.333 589.28 -898 C 601.093 -892.667 611.333 -885.667 620 -877 L 797 -700 C 805.667 -691.333 812.667 -681.093 818 -669.28 C 823.333 -657.467 826 -645.04 826 -632 L 826 -149 C 826 -122.967 816.743 -100.79 798.23 -82.47 C 779.717 -64.157 757.307 -55 731 -55 Z M 542 -672 L 542 -811 L 229 -811 L 229 -149 L 731 -149 L 731 -625 L 589 -625 C 575.833 -625 564.71 -629.543 555.63 -638.63 C 546.543 -647.71 542 -658.833 542 -672 Z M 493.271 -301.57 C 493.271 -297.8 491.97 -294.55 489.366 -291.98 C 486.762 -289.41 483.55 -288.13 479.731 -288.13 C 475.928 -288.13 472.725 -289.41 470.129 -291.98 C 467.544 -294.55 466.25 -297.8 466.25 -301.57 L 466.25 -318.87 L 452.058 -314.92 C 451.468 -314.85 450.74 -314.68 450.054 -314.58 C 449.413 -314.5 448.48 -314.33 447.648 -314.33 C 442.809 -314.33 437.679 -316.64 434.065 -319.98 C 430.69 -323.66 428.636 -328.9 428.67 -333.94 L 429.244 -358.61 L 412.826 -382.16 C 411.627 -383.79 410.531 -386.1 410 -387.98 C 409.598 -389.69 409.314 -391.59 409.314 -393.21 C 409.314 -396.89 410.625 -401 412.517 -404.09 C 414.769 -407.25 418.325 -409.91 422.204 -411.19 L 447.93 -419.92 L 464.906 -442.02 C 465.317 -442.54 465.771 -443.06 466.25 -443.48 L 466.25 -462.16 C 466.25 -466.01 467.552 -469.17 470.156 -471.74 C 472.76 -474.4 475.97 -475.69 479.791 -475.69 C 483.601 -475.69 486.805 -474.4 489.392 -471.74 C 491.977 -469.17 493.271 -466.01 493.271 -462.16 L 493.271 -443.48 C 493.751 -443.06 494.205 -442.54 494.607 -442.02 L 511.65 -419.92 L 537.523 -411.19 C 541.249 -409.73 544.855 -406.91 547.012 -403.82 C 548.897 -400.74 550.207 -396.63 550.207 -393.04 C 550.207 -391.4 549.873 -389.36 549.394 -387.64 C 548.846 -385.83 547.852 -383.79 546.824 -382.16 L 530.433 -358.61 L 531.006 -333.68 C 530.792 -328.71 528.547 -323.49 525.088 -319.98 C 521.414 -316.74 516.283 -314.5 511.488 -314.5 C 511.111 -314.5 509.818 -314.68 507.907 -314.92 C 507.634 -314.92 507.368 -315.01 507.102 -315.01 L 493.271 -318.87 Z M 463.878 -399.89 C 463.254 -399.12 462.413 -398.51 461.455 -398.18 L 437.604 -390.13 L 453.568 -367.5 C 454.218 -366.67 454.551 -365.56 454.517 -364.44 L 453.806 -341.31 L 478.369 -348.16 C 479.277 -348.41 480.236 -348.41 481.143 -348.16 L 505.869 -341.31 L 505.166 -364.44 C 505.132 -365.56 505.467 -366.67 506.117 -367.5 L 521.953 -389.87 L 498.033 -398.18 C 497.074 -398.51 496.234 -399.12 495.627 -399.97 L 479.885 -420.53 Z"/>
</svg>