<?xml version="1.0" encoding="utf-8"?>
<svg xmlns="http://www.w3.org/2000/svg" height="48" viewBox="0 -960 960 960" width="48">
  <path fill="rgb(255, 255, 255)" d="M 229 -55 C 202.967 -55 180.793 -64.157 162.48 -82.47 C 144.16 -100.79 135 -122.967 135 -149 L 135 -811 C 135 -837.307 144.16 -859.717 162.48 -878.23 C 180.793 -896.743 202.967 -906 229 -906 L 552 -906 C 565.04 -906 577.467 -903.333 589.28 -898 C 601.093 -892.667 611.333 -885.667 620 -877 L 797 -700 C 805.667 -691.333 812.667 -681.093 818 -669.28 C 823.333 -657.467 826 -645.04 826 -632 L 826 -149 C 826 -122.967 816.743 -100.79 798.23 -82.47 C 779.717 -64.157 757.307 -55 731 -55 Z M 542 -672 L 542 -811 L 229 -811 L 229 -149 L 731 -149 L 731 -625 L 589 -625 C 575.833 -625 564.71 -629.543 555.63 -638.63 C 546.543 -647.71 542 -658.833 542 -672 Z M 363.65 -518.83 L 363.65 -295.744 L 476.67 -230.553 L 596.351 -296.128 L 596.351 -518.83 Z M 310.978 -521.38 C 311.349 -534.611 317.054 -548.219 325.656 -556.822 C 334.258 -565.424 347.865 -571.129 361.095 -571.5 L 598.906 -571.5 C 612.135 -571.129 625.742 -565.424 634.344 -556.822 C 642.947 -548.219 648.652 -534.612 649.023 -521.38 L 649.023 -294.62 C 648.429 -277.243 637.932 -259.535 622.991 -250.666 L 500.723 -183.665 C 485.892 -176.163 466.264 -176.379 451.6 -184.207 L 336.055 -250.857 C 321.613 -259.842 311.548 -277.264 310.978 -294.27 Z M 400.157 -474.93 C 400.157 -481.591 403.571 -489.253 407.869 -493.553 C 412.168 -497.853 419.83 -500.899 426.493 -501.27 L 536.252 -501.27 C 542.915 -500.899 550.577 -497.853 554.875 -493.553 C 559.174 -489.253 562.217 -481.591 562.588 -474.93 L 562.588 -311.95 C 561.952 -302.964 555.782 -292.991 548.029 -288.397 L 493.15 -260.957 C 486.228 -257.999 476.516 -257.999 469.595 -260.957 L 414.706 -288.402 C 406.955 -292.995 400.793 -302.964 400.157 -311.95 L 400.157 -325.68 C 400.528 -332.342 403.572 -340.003 407.872 -344.3 C 412.171 -348.598 419.832 -352.01 426.493 -352.01 C 433.154 -352.01 440.815 -348.598 445.114 -344.301 C 449.413 -340.003 452.458 -332.342 452.829 -325.68 L 452.829 -328.233 L 481.372 -313.963 L 509.916 -328.234 L 509.916 -364.22 L 456.219 -364.22 C 449.558 -364.591 441.897 -367.632 437.598 -371.929 C 433.299 -376.227 429.883 -383.888 429.883 -390.55 C 429.883 -397.211 433.297 -404.873 437.596 -409.173 C 441.894 -413.473 449.557 -416.519 456.219 -416.89 L 509.916 -416.89 L 509.916 -448.59 L 426.493 -448.59 C 419.83 -448.961 412.168 -452.007 407.869 -456.307 C 403.571 -460.607 400.157 -468.269 400.157 -474.93 Z"/>
</svg>