<?xml version="1.0" encoding="utf-8"?>
<svg xmlns="http://www.w3.org/2000/svg" height="48" viewBox="0 -960 960 960" width="48">
  <path fill="rgb(255, 255, 255)" d="M 229 -55 C 202.967 -55 180.793 -64.157 162.48 -82.47 C 144.16 -100.79 135 -122.967 135 -149 L 135 -811 C 135 -837.307 144.16 -859.717 162.48 -878.23 C 180.793 -896.743 202.967 -906 229 -906 L 552 -906 C 565.04 -906 577.467 -903.333 589.28 -898 C 601.093 -892.667 611.333 -885.667 620 -877 L 797 -700 C 805.667 -691.333 812.667 -681.093 818 -669.28 C 823.333 -657.467 826 -645.04 826 -632 L 826 -149 C 826 -122.967 816.743 -100.79 798.23 -82.47 C 779.717 -64.157 757.307 -55 731 -55 Z M 542 -672 L 542 -811 L 229 -811 L 229 -149 L 731 -149 L 731 -625 L 589 -625 C 575.833 -625 564.71 -629.543 555.63 -638.63 C 546.543 -647.71 542 -658.833 542 -672 Z M 563.403 -535.677 C 548.018 -518.198 520.478 -499.31 495.568 -500.648 C 492.513 -500.877 490.033 -503.208 489.615 -506.243 C 486.776 -530.93 499.2 -557.264 513.133 -572.62 C 529.054 -590.302 556.552 -603.87 578.696 -604.976 C 582.09 -605.101 585.009 -602.592 585.394 -599.217 C 587.814 -574.401 563.876 -536.007 563.876 -536.007 C 563.851 -535.826 563.682 -535.721 563.403 -535.677 Z M 348.98 -212.562 C 314.508 -264.881 292.997 -378.668 328.928 -440.023 C 334.578 -449.301 341.753 -457.988 349.632 -465.096 C 355.035 -470.312 360.843 -474.601 366.487 -478.052 C 379.481 -485.933 393.115 -490.055 403.321 -491.973 C 409.648 -493.067 414.956 -493.578 418.67 -493.7 C 421.506 -494.007 424.204 -494.092 426.979 -494.001 C 438.621 -494.117 450.076 -491.656 460.22 -488.481 C 474.774 -483.874 485.797 -478.662 494.52 -476.484 C 503.364 -478.386 514.256 -483.874 528.831 -488.481 C 538.966 -491.656 550.488 -494.087 562.062 -494.001 C 564.893 -494.101 567.624 -493.985 570.381 -493.699 C 574.085 -493.578 579.237 -493.082 585.453 -492.021 C 599.301 -490.777 612.639 -485.57 623.081 -477.69 C 639.443 -464.91 650.91 -443.673 650.91 -420.9 C 650.91 -410.215 648.383 -399.478 644.32 -390.53 C 632.954 -366.963 607.732 -350.093 579.538 -349.54 L 553.752 -349.54 L 553.752 -322.23 L 579.538 -322.23 C 603.134 -321.828 624.953 -309.919 637.708 -292.631 C 645.719 -281.148 650.91 -266.212 650.91 -250.87 C 650.91 -237.079 646.618 -223.304 640.057 -212.557 C 639.09 -211.109 638.104 -209.736 637.174 -208.462 C 635.911 -206.724 634.48 -204.91 633.129 -203.335 C 629.152 -198.895 624.312 -194.672 619.306 -191.322 C 608.203 -184.063 593.99 -179.5 579.538 -179.5 C 576.061 -179.5 572.709 -179.711 569.4 -180.18 C 566.488 -180.181 563.697 -180.179 560.378 -180.375 C 546.324 -181.125 536.288 -185.275 526.858 -189.096 C 517.421 -192.92 508.544 -196.461 494.52 -196.511 C 480.496 -196.461 471.619 -192.92 462.182 -189.096 C 452.753 -185.275 442.869 -181.133 428.815 -180.382 C 425.495 -180.186 422.204 -180.18 419.169 -180.18 C 418.85 -180.18 418.541 -180.18 418.231 -180.18 C 417.187 -180.18 413.764 -180.18 412.724 -180.18 C 401.792 -180.117 391.058 -181.696 381.612 -185.365 C 377.757 -186.895 373.573 -188.858 369.753 -191.31 C 364.74 -194.662 359.841 -198.947 355.872 -203.392 C 354.504 -204.975 353.129 -206.725 351.865 -208.462 C 350.938 -209.736 349.947 -211.115 348.98 -212.562 Z M 354.462 -375.645 C 353.596 -366.572 353.221 -363.08 353.955 -347.347 C 354.815 -328.091 356.738 -316.943 360.002 -302.3 C 372.873 -314.221 385.906 -321.828 409.503 -322.23 L 435.289 -322.23 L 435.289 -349.54 L 409.503 -349.54 C 381.309 -350.093 367.678 -360.152 354.462 -375.645 Z M 509.613 -435.115 C 507.158 -434.353 508.204 -434.468 502.607 -433.204 C 497.516 -432.169 491.546 -432.165 486.454 -433.199 C 480.859 -434.464 481.882 -434.353 479.428 -435.115 C 480.339 -430.479 480.812 -430.234 480.875 -420.9 L 480.875 -395.11 L 508.166 -395.11 L 508.166 -420.9 C 508.228 -430.234 508.702 -430.479 509.613 -435.115 Z M 479.974 -239.565 C 484.315 -240.119 485.012 -240.412 493.913 -240.54 L 495.052 -240.54 C 503.952 -240.413 504.725 -240.119 509.067 -239.565 C 508.498 -243.279 508.203 -243.612 508.166 -250.87 L 508.166 -276.65 L 480.875 -276.65 L 480.875 -250.87 C 480.838 -243.611 480.543 -243.279 479.974 -239.565 Z M 561.131 -439.299 C 556.191 -434.353 553.484 -428.738 553.752 -420.9 L 553.752 -395.11 L 579.538 -395.11 C 587.388 -394.841 593 -397.554 597.942 -402.499 C 602.883 -407.443 605.324 -413.058 605.324 -420.9 C 605.324 -428.737 602.883 -434.352 597.941 -439.298 C 592.999 -444.244 587.387 -446.69 579.538 -446.69 C 571.684 -446.69 566.072 -444.244 561.131 -439.299 Z M 435.289 -420.9 C 435.557 -428.738 432.85 -434.353 427.909 -439.299 C 422.968 -444.244 417.357 -446.69 409.503 -446.69 C 401.653 -446.69 396.041 -444.244 391.099 -439.298 C 386.157 -434.352 383.716 -428.737 383.716 -420.9 C 383.716 -413.058 386.157 -407.443 391.098 -402.499 C 396.04 -397.554 401.652 -394.841 409.503 -395.11 L 435.289 -395.11 Z M 427.91 -232.465 C 432.85 -237.408 435.557 -243.022 435.289 -250.87 L 435.289 -276.65 L 409.503 -276.65 C 401.652 -276.919 396.04 -274.206 391.098 -269.262 C 386.156 -264.319 383.716 -258.707 383.716 -250.87 C 383.716 -243.023 386.156 -237.408 391.098 -232.465 C 396.039 -227.522 401.652 -225.08 409.503 -225.08 C 417.358 -225.08 422.97 -227.522 427.91 -232.465 Z M 508.166 -349.54 L 480.875 -349.54 L 480.875 -322.23 L 508.166 -322.23 Z M 597.942 -269.262 C 593 -274.206 587.388 -276.919 579.538 -276.65 L 553.752 -276.65 L 553.752 -250.87 C 553.484 -243.022 556.191 -237.408 561.13 -232.465 C 566.07 -227.522 571.682 -225.08 579.538 -225.08 C 587.389 -225.08 593.001 -227.522 597.942 -232.465 C 602.884 -237.408 605.324 -243.023 605.324 -250.87 C 605.324 -258.707 602.884 -264.319 597.942 -269.262 Z"/>
</svg>