<?xml version="1.0" encoding="utf-8"?>
<svg xmlns="http://www.w3.org/2000/svg" height="48" viewBox="0 -960 960 960" width="48">
  <path fill="rgb(255, 255, 255)" d="M 229 -55 C 202.967 -55 180.793 -64.157 162.48 -82.47 C 144.16 -100.79 135 -122.967 135 -149 L 135 -811 C 135 -837.307 144.16 -859.717 162.48 -878.23 C 173.091 -888.957 184.998 -896.576 198.201 -901.088 C 201.683 -912.945 207.886 -920.493 216.27 -924.5 C 225.588 -929.31 235.327 -929.31 235.327 -929.31 L 325.506 -929.31 C 325.506 -929.31 335.246 -929.31 344.564 -924.5 C 351.753 -921.063 357.36 -915.221 360.993 -906 L 410.313 -906 C 413.955 -915.07 419.526 -921.077 426.686 -924.5 C 436.005 -929.31 445.744 -929.31 445.744 -929.31 L 535.922 -929.31 C 535.922 -929.31 545.662 -929.31 554.981 -924.5 C 562.739 -920.792 568.654 -914.282 572.234 -903.749 C 578.051 -902.42 583.733 -900.504 589.28 -898 C 601.093 -892.667 611.333 -885.667 620 -877 L 797 -700 C 805.667 -691.333 812.667 -681.093 818 -669.28 C 823.333 -657.467 826 -645.04 826 -632 L 826 -149 C 826 -122.967 816.743 -100.79 798.23 -82.47 C 779.717 -64.157 757.307 -55 731 -55 Z M 542 -672 L 542 -811 L 229 -811 L 229 -149 L 731 -149 L 731 -625 L 589 -625 C 575.833 -625 564.71 -629.543 555.63 -638.63 C 546.543 -647.71 542 -658.833 542 -672 Z M 445.744 -860.17 L 535.922 -860.17 L 535.922 -890.23 L 445.744 -890.23 Z M 235.327 -860.17 L 325.506 -860.17 L 325.506 -890.23 L 235.327 -890.23 Z M 329.009 -511.42 L 329.009 -482.86 L 467.756 -482.86 L 467.756 -511.42 C 467.756 -518.36 473.226 -523.66 480 -523.66 L 520.808 -523.66 C 527.583 -523.66 533.05 -518.36 533.05 -511.42 L 533.05 -389 C 533.05 -382.06 527.583 -376.75 520.808 -376.75 L 480 -376.75 C 473.226 -376.75 467.756 -382.06 467.756 -389 L 467.756 -417.57 L 329.009 -417.57 L 329.009 -389 C 329.009 -382.06 323.54 -376.75 316.767 -376.75 L 275.958 -376.75 C 269.184 -376.75 263.716 -382.06 263.716 -389 L 263.716 -511.42 C 263.716 -518.36 269.184 -523.66 275.958 -523.66 L 316.767 -523.66 C 323.54 -523.66 329.009 -518.36 329.009 -511.42 Z M 492.243 -315.54 L 492.243 -286.98 L 630.992 -286.98 L 630.992 -315.54 C 630.992 -322.07 636.459 -327.78 643.232 -327.78 L 684.041 -327.78 C 690.815 -327.78 696.283 -322.07 696.283 -315.54 L 696.283 -193.12 C 696.283 -186.17 690.815 -180.88 684.041 -180.88 L 643.232 -180.88 C 636.459 -180.88 630.992 -186.17 630.992 -193.12 L 630.992 -221.68 L 492.243 -221.68 L 492.243 -193.12 C 492.243 -186.17 486.775 -180.88 480 -180.88 L 439.191 -180.88 C 432.418 -180.88 426.949 -186.17 426.949 -193.12 L 426.949 -315.54 C 426.949 -322.07 432.418 -327.78 439.191 -327.78 L 480 -327.78 C 486.775 -327.78 492.243 -322.07 492.243 -315.54 Z"/>
</svg>