<?xml version="1.0" encoding="utf-8"?>
<svg xmlns="http://www.w3.org/2000/svg" height="48" viewBox="0 -960 960 960" width="48">
  <path fill="rgb(255, 255, 255)" d="M 229 -55 C 202.967 -55 180.793 -64.157 162.48 -82.47 C 144.16 -100.79 135 -122.967 135 -149 L 135 -811 C 135 -837.307 144.16 -859.717 162.48 -878.23 C 180.793 -896.743 202.967 -906 229 -906 L 552 -906 C 565.04 -906 577.467 -903.333 589.28 -898 C 601.093 -892.667 611.333 -885.667 620 -877 L 797 -700 C 805.667 -691.333 812.667 -681.093 818 -669.28 C 823.333 -657.467 826 -645.04 826 -632 L 826 -149 C 826 -122.967 816.743 -100.79 798.23 -82.47 C 779.717 -64.157 757.307 -55 731 -55 L 229 -55 Z M 542 -672 L 542 -811 L 229 -811 L 229 -149 L 731 -149 L 731 -625 L 589 -625 C 575.833 -625 564.71 -629.543 555.63 -638.63 C 546.543 -647.71 542 -658.833 542 -672 Z M 280.969 -531.659 C 281.384 -544.98 287.17 -558.867 295.829 -567.526 C 304.487 -576.185 318.375 -581.974 331.701 -582.389 L 626.219 -582.389 C 639.547 -581.974 653.434 -576.185 662.092 -567.526 C 670.751 -558.867 676.536 -544.98 676.951 -531.659 L 676.951 -237.119 C 676.536 -223.798 670.751 -209.911 662.092 -201.252 C 653.434 -192.593 639.547 -186.804 626.219 -186.389 L 331.701 -186.389 C 318.375 -186.804 304.487 -192.593 295.829 -201.252 C 287.17 -209.911 281.384 -223.798 280.969 -237.119 L 280.969 -531.659 Z M 335.311 -528.049 L 335.311 -240.729 L 622.609 -240.729 L 622.609 -528.049 L 335.311 -528.049 Z M 381.104 -478.639 C 381.519 -485.455 384.667 -493.452 389.062 -497.847 C 393.456 -502.242 401.454 -505.394 408.277 -505.809 L 493.097 -505.809 C 512.932 -505.394 532.71 -496.968 545.632 -484.043 C 558.554 -471.119 567.391 -451.34 567.391 -431.509 C 567.391 -414.329 560.767 -396.965 550.77 -384.667 C 540.761 -372.355 533.32 -368.237 522.144 -363.335 L 562.476 -305.72 C 566.05 -299.896 568.058 -291.538 566.977 -285.417 C 565.897 -279.297 561.151 -272.135 555.801 -267.886 C 549.976 -264.313 541.624 -262.304 535.503 -263.382 C 529.381 -264.459 522.212 -269.205 517.96 -274.552 L 460.101 -357.219 L 435.447 -357.219 L 435.447 -290.139 C 435.033 -283.319 431.885 -275.321 427.491 -270.924 C 423.097 -266.526 415.099 -262.959 408.277 -262.959 C 401.454 -262.959 393.455 -266.526 389.061 -270.923 C 384.666 -275.321 381.518 -283.319 381.104 -290.139 L 381.104 -478.639 Z M 435.447 -411.559 L 493.097 -411.559 C 499.29 -411.145 503.074 -413.269 507.206 -417.401 C 511.338 -421.532 513.049 -425.315 513.049 -431.509 C 513.049 -437.698 511.338 -441.481 507.205 -445.614 C 503.072 -449.747 499.289 -451.874 493.097 -451.459 L 435.447 -451.459 L 435.447 -411.559 Z"/>
</svg>