<?xml version="1.0" encoding="utf-8"?>
<svg xmlns="http://www.w3.org/2000/svg" height="48" viewBox="0 -960 960 960" width="48">
  <path fill="rgb(255, 255, 255)" d="M 229 -55 C 202.967 -55 180.793 -64.157 162.48 -82.47 C 144.16 -100.79 135 -122.967 135 -149 L 135 -811 C 135 -837.307 144.16 -859.717 162.48 -878.23 C 180.793 -896.743 202.967 -906 229 -906 L 552 -906 C 565.04 -906 577.467 -903.333 589.28 -898 C 601.093 -892.667 611.333 -885.667 620 -877 L 797 -700 C 805.667 -691.333 812.667 -681.093 818 -669.28 C 823.333 -657.467 826 -645.04 826 -632 L 826 -149 C 826 -122.967 816.743 -100.79 798.23 -82.47 C 779.717 -64.157 757.307 -55 731 -55 L 229 -55 Z M 542 -672 L 542 -811 L 229 -811 L 229 -149 L 731 -149 L 731 -625 L 589 -625 C 575.833 -625 564.71 -629.543 555.63 -638.63 C 546.543 -647.71 542 -658.833 542 -672 Z M 614.662 -221.57 C 610.388 -207.293 599.271 -196.676 586.154 -191.073 C 562.508 -182.923 520.663 -174.837 478.304 -191.1 C 467.846 -195.104 459.002 -202.992 454.311 -212.21 C 449.624 -221.423 448.38 -233.182 451.348 -244.228 C 458.104 -270.452 468.829 -306.915 475.836 -331.126 C 478.105 -338.299 483.176 -343.514 488.966 -347.046 L 489.36 -347.287 L 489.752 -347.419 C 495.896 -349.493 503.606 -349.491 509.722 -347.416 L 510.061 -347.301 L 510.44 -347.082 C 526.396 -337.841 548.25 -328.166 566.546 -330.22 C 583.355 -332.436 602.444 -337.094 617.867 -341.28 C 624.651 -343.236 632.832 -340.636 637.403 -337.002 C 641.854 -332.06 643.871 -323.719 642.323 -317.409 C 634.22 -289.322 621.726 -245.789 614.662 -221.57 Z M 589.261 -290.464 C 583.065 -289.064 579.299 -288.063 570.767 -288.008 C 550.315 -286.191 530.162 -291.514 511.465 -298.739 C 505.313 -277.434 498.625 -253.875 493.347 -233.583 L 493.055 -232.535 C 492.731 -231.902 492.88 -232.072 493.158 -231.469 C 493.265 -231.237 493.308 -231.091 493.36 -230.988 L 493.715 -230.85 C 524.29 -218.997 553.875 -226.073 572.016 -232.128 C 572.655 -232.568 572.73 -232.817 573.082 -233.481 C 577.754 -249.526 583.282 -269.371 589.261 -290.464 Z M 690.102 -483.453 C 682.002 -455.264 669.796 -412.737 662.33 -388.476 C 658.114 -374.278 646.745 -362.677 633.252 -357.911 C 616.414 -353.074 591.364 -345.902 568.805 -347.738 C 552.529 -348.792 537.174 -353.231 524.819 -357.116 C 514.472 -361.632 505.82 -370.026 501.254 -379.585 C 496.69 -389.14 495.586 -401.268 498.562 -412.294 C 506.199 -437.434 517.045 -475.658 524.531 -498.982 C 526.689 -506.045 531.637 -511.445 537.326 -514.862 L 537.647 -515.055 L 537.958 -515.168 C 543.975 -517.352 551.967 -517.19 558.011 -515.008 C 574.132 -507.005 595.948 -498.182 613.666 -499.281 C 633.13 -501.302 650.721 -503.24 665.688 -507.223 L 665.333 -507.105 C 668.785 -508.255 673.001 -508.397 676.197 -507.46 C 679.373 -506.529 682.742 -504.338 685.123 -501.969 C 689.592 -496.995 691.638 -489.772 690.102 -483.453 Z M 665.688 -507.223 L 665.69 -507.224 L 665.773 -507.246 C 665.745 -507.238 665.716 -507.231 665.688 -507.223 Z M 637.812 -458.197 C 631.214 -457.445 626.816 -456.943 617.385 -455.941 C 597.978 -454.987 578.147 -460.256 559.944 -466.705 C 553.419 -445.324 546.315 -420.723 540.218 -399.418 C 539.891 -398.731 540.03 -398.736 540.295 -398.096 C 540.346 -397.971 540.359 -397.882 540.35 -397.821 C 549.788 -394.949 560.292 -392.175 571.966 -390.931 C 587.331 -389.982 604.297 -394.376 617.254 -398.11 L 620.737 -400.599 L 620.738 -400.608 C 625.767 -416.691 631.725 -437.73 637.812 -458.197 Z M 345.341 -527.351 C 349.523 -541.431 360.464 -553.08 373.841 -557.707 C 397.493 -565.898 439.386 -573.951 481.697 -558.682 C 492.181 -554.667 501.031 -546.541 505.709 -537.126 C 510.383 -527.719 511.614 -515.759 508.644 -504.779 C 501.897 -479.426 491.116 -441.9 484.106 -417.685 C 482.083 -411.822 476.907 -405.537 470.706 -402.751 C 464.258 -399.582 456.041 -399.685 449.62 -402.857 C 433.709 -411.764 411.788 -420.536 393.395 -418.465 C 376.657 -416.584 356.896 -411.406 341.395 -407.53 C 335.33 -406.555 327.54 -408.283 322.471 -412.783 C 318.118 -417.86 316.199 -424.96 317.687 -432.284 C 325.786 -459.637 338.278 -503.064 345.341 -527.351 Z M 370.652 -459.18 C 376.914 -460.349 380.84 -460.968 388.971 -461.85 C 409.504 -463.796 429.837 -458.455 448.536 -451.233 C 454.688 -472.532 461.377 -495.982 466.655 -516.174 L 466.934 -517.212 L 466.969 -517.344 C 466.953 -517.366 466.937 -517.393 466.92 -517.426 C 466.885 -517.495 466.86 -517.555 466.841 -517.606 L 467.02 -517.606 L 466.815 -517.687 C 466.743 -517.939 466.844 -517.921 466.444 -517.908 L 466.268 -517.903 C 435.695 -529.948 406.283 -522.935 388.126 -516.95 C 387.008 -516.397 386.759 -516.701 387.076 -515.917 C 382.371 -499.733 376.652 -480.195 370.652 -459.18 Z M 269.896 -266.29 C 277.997 -294.704 290.23 -337.331 297.696 -361.583 C 301.9 -374.778 313.021 -386.187 326.479 -390.684 C 343.547 -396.892 368.721 -403.125 391.2 -401.264 C 407.481 -400.219 422.647 -395.852 435.002 -391.967 C 445.412 -387.922 454.156 -379.747 458.736 -370.29 C 463.309 -360.848 464.429 -348.754 461.452 -337.733 C 453.805 -311.576 442.891 -274.089 435.417 -249.845 C 433.465 -243.995 428.473 -237.73 422.466 -234.91 C 416.19 -231.791 408.313 -231.691 401.992 -234.873 C 385.875 -242.865 363.817 -251.665 346.177 -249.592 C 326.911 -248.654 309.043 -245.426 293.884 -241.589 C 287.796 -240.614 279.948 -242.326 274.821 -246.813 C 270.352 -252.02 268.328 -260.243 269.896 -266.29 Z M 338.24 -345.786 L 339.022 -348.486 C 334.005 -331.17 328.142 -311.57 322.101 -290.607 C 328.734 -291.332 333.207 -291.811 342.629 -292.782 C 362.191 -294.977 381.792 -289.616 400.057 -282.411 C 406.588 -304.674 413.696 -329.296 419.805 -349.338 C 420.147 -350.241 419.974 -350.079 419.725 -350.662 C 419.654 -350.828 419.659 -350.917 419.679 -350.961 C 419.645 -350.948 419.589 -350.935 419.5 -350.928 C 410.274 -355.003 399.737 -357.812 388.087 -358.718 C 371.766 -359.76 353.582 -354.069 340.343 -349.876 L 340.001 -349.768 L 340.842 -350.224 C 339.322 -349.401 339.057 -349.826 339.415 -349.148 L 338.24 -345.786 Z"/>
</svg>