<?xml version="1.0" encoding="utf-8"?>
<svg xmlns="http://www.w3.org/2000/svg" height="48" viewBox="0 -960 960 960" width="48">
  <path fill="rgb(255, 255, 255)" d="M 229 -55 C 202.967 -55 180.793 -64.157 162.48 -82.47 C 144.16 -100.79 135 -122.967 135 -149 L 135 -811 C 135 -837.307 144.16 -859.717 162.48 -878.23 C 180.793 -896.743 202.967 -906 229 -906 L 552 -906 C 565.04 -906 577.467 -903.333 589.28 -898 C 601.093 -892.667 611.333 -885.667 620 -877 L 797 -700 C 805.667 -691.333 812.667 -681.093 818 -669.28 C 823.333 -657.467 826 -645.04 826 -632 L 826 -149 C 826 -122.967 816.743 -100.79 798.23 -82.47 C 779.717 -64.157 757.307 -55 731 -55 Z M 542 -672 L 542 -811 L 229 -811 L 229 -149 L 731 -149 L 731 -625 L 589 -625 C 575.833 -625 564.71 -629.543 555.63 -638.63 C 546.543 -647.71 542 -658.833 542 -672 Z M 334.606 -299.04 C 315.295 -299.04 296.894 -307.06 282.788 -320.69 C 269.191 -334.81 261.151 -353.17 261.151 -372.49 C 261.151 -392.07 269.213 -410.55 282.84 -424.51 C 296.922 -437.94 315.295 -445.94 334.606 -445.94 C 350.328 -445.94 365.978 -441.25 379.032 -433.15 C 392.138 -424.46 398.793 -415.11 403.901 -402.69 L 458.835 -402.69 C 465.857 -402.33 473.926 -399.36 478.895 -394.38 C 483.877 -389.4 487.2 -381.27 487.2 -374.33 C 487.2 -367.25 483.603 -359.49 478.899 -354.27 C 473.669 -349.56 465.857 -346.31 458.835 -345.96 L 403.946 -345.96 C 398.95 -333.5 392.494 -323.83 379.594 -313.96 C 366.443 -304.54 350.505 -299.04 334.606 -299.04 Z M 496.726 -374.33 C 496.726 -412.19 485.214 -442.7 459.946 -469.25 C 435.092 -496.3 404.532 -511.1 366.543 -514.97 C 359.939 -516.36 352.967 -520.04 348.224 -524.64 C 343.704 -529.87 340.289 -537.58 340.289 -544.57 C 340.289 -551.58 344.042 -559.51 348.96 -564.76 C 354.394 -569.46 362.754 -572.39 369.625 -572.42 C 415.903 -567.4 457.853 -548.13 492.702 -515.8 C 527.294 -483.06 545.47 -446.52 552.262 -402.69 L 601.67 -402.69 L 595.247 -408.99 C 590.233 -414.44 586.447 -422.42 586.447 -429.55 C 586.447 -436.46 590.192 -444.61 594.772 -450.07 C 600.195 -455.01 608.145 -458.81 615.271 -458.81 C 622.389 -458.81 630.363 -455 635.792 -450.06 L 689.634 -396.19 C 691.866 -393.55 694.13 -390.08 695.774 -386.86 C 697.515 -383.13 698.849 -378.25 698.849 -374.33 C 698.849 -370.42 697.513 -365.52 695.775 -361.8 C 694.131 -358.56 691.374 -354.58 689.135 -351.94 L 636.051 -299.32 C 630.434 -293.86 622.175 -290.4 614.996 -290.31 C 608.165 -291.01 600.55 -294.54 595.207 -299.51 C 590.174 -305.02 586.889 -313.11 586.681 -320.31 C 587.262 -327.31 590.648 -334.98 595.742 -340.17 L 601.657 -345.96 L 552.262 -345.96 C 545.47 -302.13 527.287 -265.57 492.697 -232.75 C 457.836 -200.53 416.19 -181.46 369.9 -176.74 C 362.757 -176.32 354.48 -179.18 348.965 -183.9 C 344.058 -189.1 340.289 -196.96 340.289 -204.09 C 340.289 -210.76 343.168 -218.31 347.09 -223.5 C 351.587 -228.35 358.904 -232.18 365.416 -233.34 C 403.679 -236.82 433.969 -251.56 459.275 -278.88 C 485.004 -305.8 496.726 -336.5 496.726 -374.33 Z M 334.606 -346.73 C 341.968 -346.73 348.096 -349.2 353.01 -354.08 C 357.915 -358.96 360.372 -365.12 360.372 -372.49 C 360.372 -379.86 357.915 -386 353.01 -390.89 C 348.096 -395.77 341.968 -398.25 334.606 -398.25 C 327.244 -398.25 321.106 -395.77 316.202 -390.89 C 311.287 -386 308.84 -379.86 308.84 -372.49 C 308.84 -365.12 311.287 -358.96 316.202 -354.08 C 321.106 -349.2 327.244 -346.73 334.606 -346.73 Z"/>
</svg>