<?xml version="1.0" encoding="utf-8"?>
<svg xmlns="http://www.w3.org/2000/svg" height="48" viewBox="0 -960 960 960" width="48">
  <path fill="rgb(255, 255, 255)" d="M 229 -55 C 202.967 -55 180.793 -64.157 162.48 -82.47 C 144.16 -100.79 135 -122.967 135 -149 L 135 -811 C 135 -837.307 144.16 -859.717 162.48 -878.23 C 180.793 -896.743 202.967 -906 229 -906 L 552 -906 C 565.04 -906 577.467 -903.333 589.28 -898 C 601.093 -892.667 611.333 -885.667 620 -877 L 797 -700 C 805.667 -691.333 812.667 -681.093 818 -669.28 C 823.333 -657.467 826 -645.04 826 -632 L 826 -149 C 826 -122.967 816.743 -100.79 798.23 -82.47 C 779.717 -64.157 757.307 -55 731 -55 Z M 542 -672 L 542 -811 L 229 -811 L 229 -149 L 731 -149 L 731 -625 L 589 -625 C 575.833 -625 564.71 -629.543 555.63 -638.63 C 546.543 -647.71 542 -658.833 542 -672 Z M 403.643 -777.067 L 417.4 -763.573 L 436.32 -768.458 C 441.676 -769.401 448.998 -768.388 453.585 -766.026 C 458.027 -763.25 462.669 -757.082 464.508 -752.025 L 469.68 -733.443 L 488.468 -728.193 C 493.591 -726.339 499.463 -721.749 502.242 -717.402 C 504.672 -712.799 505.624 -705.114 504.661 -699.832 L 499.865 -681.154 L 513.508 -667.217 C 517.015 -663.083 520.047 -656.144 520.047 -650.92 C 520.047 -645.674 516.841 -638.68 513.346 -634.56 L 499.865 -620.804 L 504.72 -601.865 C 505.68 -596.488 504.674 -589.175 502.254 -584.583 C 499.418 -580.08 493.318 -575.52 488.221 -573.682 L 469.68 -568.515 L 464.427 -549.66 C 462.586 -544.6 458.058 -538.745 453.649 -535.957 C 448.95 -533.461 441.372 -532.61 436.07 -533.559 L 417.401 -538.292 L 403.471 -524.721 C 399.317 -521.185 392.441 -518.12 387.213 -518.12 C 381.987 -518.12 374.951 -521.334 370.797 -524.871 L 357.027 -538.292 L 338.118 -533.502 C 332.818 -532.553 325.483 -533.476 320.788 -535.957 C 316.354 -538.738 311.76 -544.866 309.92 -549.926 L 304.748 -568.515 L 285.951 -573.759 C 280.856 -575.597 275.009 -580.08 272.172 -584.584 C 269.753 -589.18 268.818 -596.754 269.767 -602.119 L 274.571 -620.806 L 260.931 -634.732 C 257.421 -638.859 254.391 -645.678 254.391 -650.92 C 254.391 -656.14 257.569 -663.246 261.091 -667.388 L 274.571 -681.153 L 269.711 -700.073 C 268.758 -705.344 269.757 -712.793 272.198 -717.406 C 274.969 -721.755 281.067 -726.411 286.203 -728.268 L 304.748 -733.444 L 310.001 -752.29 C 311.84 -757.347 316.405 -763.253 320.847 -766.029 C 325.435 -768.391 333.038 -769.337 338.393 -768.395 L 357.028 -763.573 L 370.957 -777.228 C 375.11 -780.765 381.987 -783.83 387.213 -783.83 C 392.441 -783.83 399.489 -780.603 403.643 -777.066 Z M 387.215 -720.243 L 381.568 -714.681 C 376.365 -710.518 367.098 -707.938 360.566 -708.93 L 352.586 -710.934 L 350.454 -703.284 C 348.03 -697.152 341.328 -690.24 335.14 -687.842 L 327.225 -685.639 L 329.196 -677.933 C 330.193 -671.404 327.846 -662.055 323.711 -656.879 L 317.948 -650.942 L 323.483 -645.318 C 327.634 -640.141 330.263 -630.845 329.265 -624.321 L 327.225 -616.317 L 334.845 -614.199 C 341.038 -611.809 347.933 -605.119 350.354 -598.867 L 352.572 -590.955 L 360.234 -592.952 C 366.802 -593.923 376.112 -591.571 381.262 -587.549 L 387.213 -581.709 L 392.859 -587.269 C 398.003 -591.294 407.287 -594.003 413.851 -593.032 L 421.852 -590.957 L 423.972 -598.575 C 426.376 -604.685 433.074 -611.7 439.3 -614.112 L 447.202 -616.317 L 445.232 -624.017 C 444.235 -630.544 446.586 -639.909 450.735 -645.082 L 456.482 -650.94 L 450.922 -656.655 C 446.788 -661.831 444.166 -671.1 445.163 -677.629 L 447.202 -685.639 L 439.586 -687.75 C 433.398 -690.148 426.501 -696.821 424.076 -702.953 L 421.842 -710.934 L 414.161 -708.997 C 407.619 -708.005 398.309 -710.298 393.107 -714.46 Z M 424.148 -504.171 C 429.769 -504.217 437.504 -501.315 441.893 -497.883 C 445.721 -493.788 448.859 -486.426 449.303 -480.866 L 449.298 -348.436 C 448.32 -335.591 439.808 -323.084 430.072 -317.982 C 420.017 -313.447 404.89 -314.528 394.226 -321.668 L 387.228 -326.858 L 380.223 -321.617 C 369.558 -314.477 354.41 -313.447 344.356 -317.982 C 334.62 -323.084 326.103 -335.832 325.125 -348.676 L 325.131 -481.123 C 325.575 -486.682 329.07 -494.121 332.899 -498.217 C 337.268 -501.646 345.089 -504.164 350.743 -504.121 L 351.417 -504.025 C 356.311 -503.279 362.483 -500.283 365.871 -496.922 C 368.989 -493.268 371.479 -486.576 371.843 -481.676 L 371.843 -374.023 L 375.087 -376.488 C 378.224 -378.551 383.413 -380.526 387.213 -380.526 C 391.014 -380.526 396.406 -378.403 399.543 -376.34 L 402.584 -374.023 L 402.59 -481.215 C 402.963 -486.355 405.505 -492.858 408.714 -496.672 C 412.283 -500.275 419.151 -503.34 424.147 -504.171 Z"/>
</svg>