<?xml version="1.0" encoding="utf-8"?>
<svg xmlns="http://www.w3.org/2000/svg" height="48" viewBox="0 -960 960 960" width="48">
  <path fill="rgb(255, 255, 255)" d="M 229 -55 C 202.967 -55 180.793 -64.157 162.48 -82.47 C 144.16 -100.79 135 -122.967 135 -149 L 135 -811 C 135 -837.307 144.16 -859.717 162.48 -878.23 C 180.793 -896.743 202.967 -906 229 -906 L 552 -906 C 565.04 -906 577.467 -903.333 589.28 -898 C 601.093 -892.667 611.333 -885.667 620 -877 L 797 -700 C 805.667 -691.333 812.667 -681.093 818 -669.28 C 823.333 -657.467 826 -645.04 826 -632 L 826 -149 C 826 -122.967 816.743 -100.79 798.23 -82.47 C 779.717 -64.157 757.307 -55 731 -55 L 229 -55 Z M 542 -672 L 542 -811 L 229 -811 L 229 -149 L 731 -149 L 731 -625 L 589 -625 C 575.833 -625 564.71 -629.543 555.63 -638.63 C 546.543 -647.71 542 -658.833 542 -672 Z M 297.956 -175.106 C 290.376 -175.352 282.742 -178.519 277.304 -183.654 C 272.209 -189.065 268.851 -196.736 268.851 -204.306 C 268.851 -211.876 272.234 -219.571 277.326 -224.982 C 282.791 -230.037 290.424 -233.089 297.956 -233.316 L 661.564 -233.316 C 669.08 -233.076 676.796 -229.922 682.353 -224.934 C 687.63 -219.441 691.15 -211.722 691.15 -204.116 C 691.15 -196.48 687.596 -188.838 682.302 -183.44 C 676.745 -178.453 669.08 -175.346 661.564 -175.106 L 297.956 -175.106 Z M 326.583 -256.396 C 316.319 -256.396 306.419 -260.781 299.189 -267.748 C 292.339 -275.067 288.327 -284.946 288.089 -295.106 L 288.089 -360.996 C 288.327 -371.367 292.378 -381.336 299.314 -388.743 C 306.634 -395.824 316.53 -400.206 326.698 -400.206 C 336.861 -400.206 346.783 -395.839 354.162 -388.769 C 361.184 -381.364 365.294 -371.383 365.539 -360.996 L 365.539 -295.106 C 365.29 -284.92 361.169 -275.008 354.147 -267.688 C 346.787 -260.742 336.835 -256.396 326.583 -256.396 Z M 428.239 -256.396 C 418.028 -256.396 408.117 -260.76 400.829 -267.716 C 393.882 -275.038 389.816 -284.933 389.573 -295.106 L 389.573 -457.186 C 389.813 -467.551 393.889 -477.545 400.868 -484.947 C 408.201 -492.01 418.128 -496.406 428.355 -496.406 C 438.575 -496.406 448.491 -492.003 455.797 -484.933 C 462.725 -477.536 466.784 -467.547 467.022 -457.186 L 467.022 -295.106 C 466.775 -284.923 462.666 -275.015 455.689 -267.698 C 448.36 -260.75 438.45 -256.396 428.239 -256.396 Z M 530.203 -256.396 C 519.992 -256.396 510.081 -260.76 502.794 -267.716 C 495.845 -275.038 491.78 -284.933 491.537 -295.106 L 491.537 -399.486 C 491.78 -409.848 495.88 -419.839 502.893 -427.239 C 510.262 -434.299 520.221 -438.686 530.482 -438.686 C 540.741 -438.686 550.709 -434.301 558.087 -427.243 C 565.11 -419.844 569.222 -409.852 569.466 -399.486 L 569.466 -295.106 C 569.214 -284.911 565.057 -274.991 557.957 -267.667 C 550.543 -260.728 540.533 -256.396 530.203 -256.396 Z M 632.647 -256.396 C 622.436 -256.396 612.527 -260.76 605.239 -267.716 C 598.29 -275.038 594.224 -284.933 593.981 -295.106 L 593.981 -514.896 C 594.224 -525.29 598.325 -535.272 605.337 -542.687 C 612.712 -549.751 622.674 -554.116 632.927 -554.116 C 643.177 -554.116 653.152 -549.75 660.536 -542.688 C 667.558 -535.274 671.667 -525.293 671.912 -514.896 L 671.912 -295.106 C 671.66 -284.91 667.501 -274.99 660.403 -267.666 C 652.986 -260.728 642.976 -256.396 632.647 -256.396 Z"/>
</svg>