<?xml version="1.0" encoding="utf-8"?>
<svg xmlns="http://www.w3.org/2000/svg" height="48" viewBox="0 -960 960 960" width="48">
  <path fill="rgb(255, 255, 255)" d="M 229 -55 C 202.967 -55 180.793 -64.157 162.48 -82.47 C 144.16 -100.79 135 -122.967 135 -149 L 135 -811 C 135 -837.307 144.16 -859.717 162.48 -878.23 C 180.793 -896.743 202.967 -906 229 -906 L 552 -906 C 565.04 -906 577.467 -903.333 589.28 -898 C 601.093 -892.667 611.333 -885.667 620 -877 L 797 -700 C 805.667 -691.333 812.667 -681.093 818 -669.28 C 823.333 -657.467 826 -645.04 826 -632 L 826 -149 C 826 -122.967 816.743 -100.79 798.23 -82.47 C 779.717 -64.157 757.307 -55 731 -55 Z M 542 -672 L 542 -811 L 229 -811 L 229 -149 L 731 -149 L 731 -625 L 589 -625 C 575.833 -625 564.71 -629.543 555.63 -638.63 C 546.543 -647.71 542 -658.833 542 -672 Z M 479.981 -176.5 C 426.115 -176.5 379.412 -185.766 341.911 -203.645 C 303.994 -222.275 283.128 -247.977 282 -276.47 L 282 -472.05 C 283.142 -500.189 304.155 -525.882 342.361 -544.867 C 380.177 -563.051 426.63 -572.5 479.648 -572.5 C 532.342 -572.5 578.808 -563.06 617.006 -544.884 C 655.617 -525.91 676.843 -500.208 678.001 -472.05 L 678.001 -276.47 C 676.866 -247.969 655.904 -222.263 617.809 -203.637 C 580.144 -185.763 533.525 -176.5 479.981 -176.5 Z M 479.756 -446.84 C 506.874 -446.84 533.922 -450.796 562.235 -459.174 C 590.408 -467.366 598.955 -471.763 608.393 -478.715 C 598.647 -485.61 589.775 -490.032 561.159 -498.452 C 532.44 -506.924 505.698 -510.97 479.521 -510.97 C 452.338 -510.97 425.321 -507.006 397.117 -498.638 C 369.049 -490.436 359.944 -485.798 350.562 -478.679 C 359.789 -471.228 368.799 -466.474 396.236 -458.702 C 423.902 -450.718 451.306 -446.84 479.756 -446.84 Z M 479.267 -342.7 C 492.365 -342.7 505.07 -343.415 517.999 -345.055 C 530.971 -346.674 543.158 -348.914 555.128 -351.976 C 567.071 -354.921 578.502 -358.649 589.887 -363.068 C 601.237 -367.536 608.099 -370.772 616.46 -375.09 L 616.46 -413.969 C 610.104 -411.137 608.559 -410.331 596.753 -405.935 C 584.898 -401.642 572.292 -397.942 559.59 -395.122 C 546.905 -392.227 533.69 -390.091 520.426 -388.6 C 507.136 -387.098 493.179 -386.27 479.091 -386.27 C 465.655 -386.27 451.904 -387.097 438.342 -388.598 C 424.776 -390.093 411.313 -392.33 398.513 -395.332 C 385.768 -398.33 373.339 -401.993 361.66 -406.19 C 349.881 -410.341 349.293 -410.882 343.541 -413.527 L 343.541 -374.749 C 350.755 -370.597 356.756 -367.59 367.768 -363.377 C 378.949 -359.059 390.408 -355.305 402.659 -352.172 C 414.909 -349.018 427.298 -346.671 440.415 -345.058 C 453.517 -343.417 466.276 -342.7 479.267 -342.7 Z M 479.756 -238.05 C 494.291 -237.737 509.114 -238.856 524.686 -241.357 C 540.329 -243.923 554.56 -247.279 568.071 -251.583 C 581.534 -255.848 592.484 -260.412 601.885 -265.901 C 611.013 -270.99 614.165 -273.655 616.46 -277.318 L 616.46 -309.749 C 610.471 -306.873 609.434 -306.195 597.889 -301.656 C 586.322 -297.143 573.733 -293.228 560.795 -290.198 C 547.888 -287.21 534.389 -284.954 520.856 -283.457 C 507.337 -281.967 493.301 -281.15 479.267 -281.15 C 465.399 -281.15 451.321 -281.974 437.595 -283.662 C 423.946 -285.366 410.538 -287.707 397.873 -290.683 C 385.161 -293.722 372.697 -297.634 361.144 -302.142 C 349.6 -306.66 349.141 -307.084 343.541 -309.748 L 343.541 -276.741 C 345.58 -273.472 348.373 -271.116 357.324 -266.145 C 366.572 -260.835 377.469 -256.336 390.945 -252.075 C 404.464 -247.779 418.698 -244.402 434.333 -241.838 C 449.961 -239.342 464.846 -238.032 479.756 -238.05 Z"/>
</svg>