<?xml version="1.0" encoding="utf-8"?>
<svg xmlns="http://www.w3.org/2000/svg" height="48" viewBox="0 -960 960 960" width="48">
  <path fill="rgb(255, 255, 255)" d="M 451.651 -595.68 C 461.864 -597.5 472.189 -598.22 482.461 -598.22 L 482.852 -598.22 C 493.11 -598.22 503.436 -597.5 513.65 -595.68 C 516.791 -602.82 520.131 -609.98 523.72 -617.01 C 534.582 -639.04 560.116 -649.69 583.447 -641.84 C 584.978 -641.29 586.549 -640.72 588.118 -640.3 C 608.756 -632.87 621.862 -612.66 620.094 -590.77 C 619.364 -580.82 618.328 -570.84 616.951 -560.73 C 626.689 -554.56 636.945 -549.24 646.036 -541.94 C 655.323 -534.79 664.807 -528.06 673.198 -519.64 C 678.415 -523.15 683.664 -526.53 689.064 -529.75 C 693.197 -532.3 697.575 -534.17 702.059 -535.36 L 702.059 -664.97 L 577.596 -664.97 C 566.055 -664.97 556.306 -668.95 548.347 -676.91 C 540.383 -684.87 536.401 -694.62 536.401 -706.16 L 536.401 -827.99 L 262.057 -827.99 L 262.057 -542.73 C 263.54 -540.12 265.061 -537.42 266.611 -534.64 C 269.385 -533.61 272.095 -532.3 274.704 -530.71 C 280.597 -527.06 286.405 -523.45 292.1 -519.64 C 300.493 -528.06 309.976 -534.79 319.264 -541.94 C 328.356 -549.24 338.567 -554.56 348.348 -560.73 C 346.776 -572.25 345.697 -583.61 345.008 -594.97 C 343.635 -614.07 354.969 -631.89 372.956 -638.61 C 376.002 -639.74 379.101 -640.85 382.144 -641.98 C 405.323 -649.83 430.772 -639.31 441.576 -617.28 C 445.069 -610.14 448.466 -602.82 451.651 -595.68 Z M 738.776 -271.27 C 735.29 -270.92 645.641 -262.75 645.641 -262.75 C 640.634 -262.19 636.703 -258.26 636.356 -253.22 C 636.356 -253.22 635.765 -244.5 635.078 -234.96 C 634.095 -221.08 623.053 -209.98 609.096 -209.03 C 598.529 -208.16 586.156 -207.33 575.45 -206.62 C 560.759 -205.51 547.784 -215.87 545.622 -230.47 C 544.541 -237.77 543.658 -243.95 543.658 -243.95 C 542.931 -248.98 538.552 -252.81 533.389 -252.81 L 431.91 -252.81 C 426.746 -252.81 422.369 -248.98 421.639 -243.95 C 421.639 -243.95 420.756 -237.77 419.676 -230.47 C 417.515 -215.87 404.537 -205.51 389.85 -206.62 C 379.142 -207.33 366.77 -208.16 356.204 -209.03 C 342.259 -209.98 331.202 -221.08 330.219 -234.96 C 329.532 -244.5 328.945 -253.22 328.945 -253.22 C 328.593 -258.26 324.664 -262.19 319.656 -262.75 C 319.656 -262.75 230.166 -270.92 226.697 -271.27 C 200.99 -272.75 180.938 -294.22 180.939 -319.95 L 179.667 -827.99 C 179.667 -851.05 187.695 -870.7 203.753 -886.92 C 219.804 -903.15 239.24 -911.26 262.057 -911.26 L 545.166 -911.26 C 556.595 -911.26 567.487 -908.92 577.841 -904.25 C 588.196 -899.58 597.171 -893.44 604.767 -885.84 L 759.907 -730.7 C 767.504 -723.11 773.639 -714.13 778.314 -703.78 C 782.988 -693.42 785.326 -682.53 785.326 -671.1 C 785.326 -671.1 784.53 -365.03 784.487 -319.95 C 784.485 -294.22 764.48 -272.75 738.776 -271.27 Z M 561.054 -365.31 C 561.054 -333.33 587.039 -307.36 619.071 -307.36 C 651.1 -307.36 677.041 -333.33 677.041 -365.31 C 677.041 -397.3 651.1 -423.24 619.071 -423.24 C 587.039 -423.24 561.054 -397.3 561.054 -365.31 Z M 288.272 -365.31 C 288.272 -333.33 314.199 -307.36 346.229 -307.36 C 378.259 -307.36 404.243 -333.33 404.243 -365.31 C 404.243 -397.3 378.259 -423.24 346.229 -423.24 C 314.199 -423.24 288.272 -397.3 288.272 -365.31 Z M 248.305 -226.28 C 264.28 -224.79 276.845 -211.96 277.95 -195.83 C 278.756 -184.29 279.498 -173.57 279.498 -173.57 C 279.958 -167.49 284.75 -162.72 290.812 -162.22 L 411.083 -153.65 C 417.442 -153.32 423.088 -157.77 424.013 -164.03 C 424.013 -164.03 425.279 -172.75 426.78 -182.64 C 429.135 -198.77 442.984 -210.8 459.356 -210.8 C 472.332 -210.8 487.665 -210.8 500.643 -210.8 C 517.014 -210.8 530.864 -198.77 533.217 -182.64 C 534.716 -172.75 535.984 -164.03 535.984 -164.03 C 536.859 -158.09 542.045 -153.65 548.04 -153.65 C 548.335 -153.65 669.203 -162.22 669.203 -162.22 C 675.247 -162.72 680.039 -167.49 680.501 -173.57 C 680.501 -173.57 681.241 -184.29 682.049 -195.83 C 683.151 -211.96 695.717 -224.79 711.692 -226.28 C 726.859 -227.76 745.487 -229.58 760.243 -231.05 C 766.649 -231.55 773.054 -229.41 777.833 -225.13 C 782.623 -220.86 785.326 -214.58 785.326 -208.17 C 785.326 -100.95 649.307 -49.396 480.237 -48.745 L 479.777 -48.745 C 310.705 -49.396 174.673 -100.95 174.673 -208.17 C 174.673 -214.58 177.374 -220.86 182.165 -225.13 C 186.957 -229.41 193.348 -231.55 199.753 -231.05 C 214.51 -229.58 233.136 -227.76 248.305 -226.28 Z" style=""/>
</svg>