<?xml version="1.0" encoding="utf-8"?>
<svg xmlns="http://www.w3.org/2000/svg" height="48" viewBox="0 -960 960 960" width="48">
  <path fill="rgb(255, 255, 255)" d="M 229 -55 C 202.967 -55 180.793 -64.157 162.48 -82.47 C 144.16 -100.79 135 -122.967 135 -149 L 135 -811 C 135 -837.307 144.16 -859.717 162.48 -878.23 C 180.793 -896.743 202.967 -906 229 -906 L 552 -906 C 565.04 -906 577.467 -903.333 589.28 -898 C 601.093 -892.667 611.333 -885.667 620 -877 L 797 -700 C 805.667 -691.333 812.667 -681.093 818 -669.28 C 823.333 -657.467 826 -645.04 826 -632 L 826 -149 C 826 -122.967 816.743 -100.79 798.23 -82.47 C 779.717 -64.157 757.307 -55 731 -55 L 229 -55 Z M 542 -672 L 542 -811 L 229 -811 L 229 -149 L 731 -149 L 731 -625 L 589 -625 C 575.833 -625 564.71 -629.543 555.63 -638.63 C 546.543 -647.71 542 -658.833 542 -672 Z M 462.809 -203.664 C 439.772 -204.385 414.573 -207.772 388.151 -213.768 C 361.461 -219.91 336.531 -229.761 314.758 -242.828 C 292.044 -257.156 279.204 -279.186 278.551 -305 L 278.551 -502.51 C 279.693 -530.979 300.894 -556.885 339.468 -575.944 C 377.641 -594.303 424.556 -603.85 478.155 -603.85 C 531.427 -603.85 578.329 -594.31 616.813 -575.958 C 655.714 -556.908 677.098 -530.995 678.253 -502.51 L 678.253 -383.51 C 678.253 -380.146 676.474 -377.033 673.575 -375.325 C 670.677 -373.617 667.091 -373.57 664.149 -375.2 C 657.889 -378.685 651.48 -381.603 644.523 -384.245 C 637.973 -386.891 631.875 -388.269 624.92 -388.87 C 620.033 -389.322 616.294 -393.422 616.294 -398.33 L 616.294 -443.903 C 598.598 -435.945 584.748 -430.788 559.021 -424.807 C 533.297 -418.986 505.826 -415.97 477.661 -415.97 C 450.14 -415.97 422.576 -419.099 396.052 -425.098 C 369.473 -431.198 356.912 -436.003 340.509 -443.58 L 340.509 -398.532 C 357.216 -392.519 373.431 -387.385 397.394 -381.141 C 420.925 -374.838 447.277 -371.78 477.661 -371.78 C 484.445 -371.78 491.237 -371.964 498.244 -372.262 C 505.194 -372.554 511.915 -373.025 518.69 -373.703 C 522.635 -374.097 526.41 -371.999 528.159 -368.44 C 529.908 -364.881 529.263 -360.611 526.54 -357.728 C 520.609 -351.484 515.991 -345.463 512.057 -338.556 C 508.029 -331.651 505.001 -324.624 502.544 -316.522 C 501.319 -312.533 497.635 -309.81 493.462 -309.81 L 481.153 -309.81 C 446.407 -309.548 416.296 -312.672 392.034 -319.025 C 367.888 -325.442 356.294 -330.475 340.509 -338.389 L 340.509 -304.158 C 341.7 -301.375 344.179 -299.562 353.757 -294.609 C 363.778 -289.216 375.571 -284.65 390.029 -280.22 C 404.54 -275.962 420.086 -272.446 437.232 -269.734 C 454.245 -266.915 470.007 -265.807 485.388 -266.108 C 490.245 -266.198 494.387 -262.607 494.989 -257.786 C 495.871 -250.438 497.485 -243.96 500.099 -237.33 C 502.72 -230.505 505.675 -224.53 509.378 -218.759 C 510.911 -216.348 511.278 -213.375 510.377 -210.663 C 509.476 -207.952 507.402 -205.79 504.731 -204.777 C 500.492 -203.472 486.047 -202.965 463.185 -203.66 C 463.06 -203.659 462.935 -203.661 462.809 -203.664 Z M 478.155 -476.95 C 505.436 -476.95 532.767 -480.965 561.458 -489.223 C 589.898 -497.186 598.842 -501.872 608.343 -509.137 C 598.503 -516.166 589.288 -520.732 560.38 -529.253 C 531.367 -537.797 504.424 -541.89 478.155 -541.89 C 450.538 -541.89 423.165 -537.886 394.679 -529.448 C 366.327 -521.156 355.432 -518.79 347.327 -509.034 C 356.582 -501.071 366.093 -495.979 393.776 -488.458 C 421.794 -480.685 449.497 -476.95 478.155 -476.95 Z M 606.764 -186 C 593.797 -186 581.69 -188.46 570.422 -193.31 C 559.164 -198.14 549.328 -204.77 540.895 -213.16 C 532.451 -221.65 525.824 -231.42 521.005 -242.68 C 516.177 -253.95 513.747 -266.09 513.747 -279.02 C 513.747 -292.06 516.177 -304.1 521.005 -315.36 C 525.824 -326.73 532.451 -336.5 540.875 -344.89 C 549.279 -353.28 559.085 -359.91 570.324 -364.74 C 581.602 -369.68 593.748 -372.05 606.744 -372.05 C 619.731 -372.05 631.878 -369.68 643.185 -364.74 C 654.453 -359.91 664.26 -353.28 672.624 -344.89 C 680.979 -336.61 687.595 -326.73 692.474 -315.47 C 697.363 -304.21 699.822 -292.06 699.822 -279.02 C 699.822 -265.99 697.352 -253.95 692.464 -242.58 C 687.575 -231.42 680.949 -221.55 672.595 -213.16 C 664.221 -204.77 654.404 -198.14 643.135 -193.31 C 631.858 -188.46 619.731 -186 606.764 -186 Z M 661.633 -254.04 C 660.912 -254.04 660.171 -253.95 659.421 -253.95 L 644.202 -253.95 C 637.389 -253.95 631.552 -256.41 626.693 -261.24 C 621.854 -266.18 619.425 -272.02 619.425 -278.83 L 619.425 -281.2 L 590.055 -281.2 C 586.341 -281.2 583.33 -284.16 583.33 -287.91 L 583.33 -304.6 C 583.33 -311.61 585.779 -317.54 590.657 -322.38 C 595.516 -327.11 601.352 -329.48 608.167 -329.48 L 610.645 -329.48 C 610.972 -332.35 611.929 -335.51 613.638 -338.97 C 611.366 -339.27 609.085 -339.36 606.755 -339.36 C 589.917 -339.36 575.617 -333.54 563.865 -321.79 C 552.992 -310.92 547.165 -297.89 546.366 -282.67 L 560.833 -282.67 C 572.713 -282.67 582.816 -278.43 591.151 -270.14 C 599.505 -261.85 603.674 -251.76 603.674 -239.92 L 603.674 -230.94 C 603.674 -227.18 600.662 -224.22 596.948 -224.22 L 579.389 -224.22 C 582.52 -222.84 585.779 -221.74 589.146 -220.86 C 594.776 -219.28 600.622 -218.58 606.685 -218.58 C 621.913 -218.58 635.058 -223.43 646.088 -233.1 C 653.002 -239.22 658.186 -246.14 661.633 -254.04 Z"/>
</svg>