<?xml version="1.0" encoding="utf-8"?>
<svg xmlns="http://www.w3.org/2000/svg" height="48" viewBox="0 -960 960 960" width="48">
  <path fill="rgb(255, 255, 255)" d="M 229 -55 C 202.967 -55 180.793 -64.157 162.48 -82.47 C 144.16 -100.79 135 -122.967 135 -149 L 135 -811 C 135 -837.307 144.16 -859.717 162.48 -878.23 C 180.793 -896.743 202.967 -906 229 -906 L 552 -906 C 565.04 -906 577.467 -903.333 589.28 -898 C 601.093 -892.667 611.333 -885.667 620 -877 L 797 -700 C 805.667 -691.333 812.667 -681.093 818 -669.28 C 823.333 -657.467 826 -645.04 826 -632 L 826 -149 C 826 -122.967 816.743 -100.79 798.23 -82.47 C 779.717 -64.157 757.307 -55 731 -55 Z M 542 -672 L 542 -811 L 229 -811 L 229 -149 L 731 -149 L 731 -625 L 589 -625 C 575.833 -625 564.71 -629.543 555.63 -638.63 C 546.543 -647.71 542 -658.833 542 -672 Z M 398.151 -207.76 C 397.686 -204.46 395.579 -200.08 393.106 -197.47 L 377.474 -182.81 C 371.835 -178.41 363.703 -176.69 356.679 -178.48 C 349.91 -181.3 344.522 -187.93 343.065 -195.2 L 340.934 -215.44 C 340.388 -218.76 340.583 -222.42 341.718 -225.53 C 341.586 -225.275 341.468 -225.012 341.366 -224.739 L 409.833 -409.92 C 410.75 -412.4 412.902 -414.21 415.5 -414.7 C 418.098 -415.18 420.758 -414.26 422.502 -412.27 C 427.296 -406.7 432.345 -402.89 438.842 -399.86 C 445.535 -396.61 451.755 -394.55 458.429 -393.28 C 460.592 -392.86 462.46 -391.51 463.537 -389.59 C 464.614 -387.67 464.792 -385.37 464.023 -383.31 L 397.681 -205.15 C 397.992 -205.99 398.151 -206.87 398.151 -207.76 Z M 341.366 -224.739 L 341.357 -224.715 C 341.36 -224.723 341.363 -224.731 341.366 -224.739 Z M 341.357 -224.714 C 341.354 -224.706 341.351 -224.698 341.348 -224.69 Z M 397.679 -205.15 C 397.678 -205.15 397.68 -205.15 397.679 -205.15 Z M 521.904 -400.36 C 528.235 -403.39 533.245 -407.24 538.077 -412.75 C 539.833 -414.71 542.492 -415.61 545.081 -415.12 C 547.669 -414.62 549.808 -412.81 550.714 -410.33 L 618.664 -224.67 C 618.886 -224.06 619.029 -223.43 619.089 -222.78 L 619.624 -217.01 C 619.676 -216.46 619.665 -215.9 619.592 -215.34 L 616.928 -195.1 C 615.472 -187.83 610.094 -181.3 603.326 -178.48 C 596.301 -176.69 588.053 -178.52 582.414 -182.92 L 566.898 -197.47 C 566.33 -198 565.848 -198.62 565.47 -199.3 L 562.795 -204.12 C 562.606 -204.46 562.443 -204.82 562.309 -205.19 L 497.035 -383.78 C 496.287 -385.82 496.466 -388.09 497.524 -390 C 498.581 -391.9 500.415 -393.25 502.546 -393.69 C 509.258 -395.07 515.415 -397.13 521.904 -400.36 Z M 479.998 -400.25 C 459.612 -400.25 440.728 -408.377 426.012 -422.666 C 411.708 -437.365 403.569 -456.217 403.569 -476.58 C 403.569 -493.817 409.037 -510.171 418.655 -523.441 C 428.587 -536.351 438.892 -543.327 451.87 -548.2 L 451.87 -567.74 C 452.138 -574.873 455.205 -582.428 459.981 -587.617 C 465.243 -592.512 472.753 -595.77 479.888 -595.77 C 487.026 -595.77 494.543 -592.52 499.857 -587.665 C 504.717 -582.477 507.849 -574.898 508.127 -567.74 L 508.127 -548.2 C 521.105 -543.327 531.43 -536.325 541.362 -523.415 C 550.978 -510.145 556.428 -493.818 556.428 -476.58 C 556.428 -456.217 548.288 -437.364 533.971 -422.664 C 519.265 -408.374 500.384 -400.25 479.998 -400.25 Z M 480.049 -449.51 C 487.394 -449.51 493.754 -452.12 499.117 -457.56 C 504.481 -462.99 507.168 -469.33 507.168 -476.67 C 507.168 -484.02 504.461 -490.36 499.057 -495.79 C 493.663 -501.13 487.284 -503.84 479.938 -503.84 C 472.602 -503.84 466.243 -501.13 460.879 -495.69 C 455.516 -490.26 452.829 -483.92 452.829 -476.58 C 452.829 -469.23 455.526 -462.89 460.93 -457.46 C 466.333 -452.12 472.703 -449.51 480.049 -449.51 Z"/>
</svg>