<?xml version="1.0" encoding="utf-8"?>
<svg xmlns="http://www.w3.org/2000/svg" height="48" viewBox="0 -960 960 960" width="48">
  <path fill="rgb(255, 255, 255)" d="M 229 -55 C 202.967 -55 180.793 -64.157 162.48 -82.47 C 144.16 -100.79 135 -122.967 135 -149 L 135 -811 C 135 -837.307 144.16 -859.717 162.48 -878.23 C 180.793 -896.743 202.967 -906 229 -906 L 552 -906 C 565.04 -906 577.467 -903.333 589.28 -898 C 601.093 -892.667 611.333 -885.667 620 -877 L 797 -700 C 805.667 -691.333 812.667 -681.093 818 -669.28 C 823.333 -657.467 826 -645.04 826 -632 L 826 -149 C 826 -122.967 816.743 -100.79 798.23 -82.47 C 779.717 -64.157 757.307 -55 731 -55 Z M 542 -672 L 542 -811 L 229 -811 L 229 -149 L 731 -149 L 731 -625 L 589 -625 C 575.833 -625 564.71 -629.543 555.63 -638.63 C 546.543 -647.71 542 -658.833 542 -672 Z M 404.182 -487.75 C 411.849 -466.56 417.584 -454.91 428.821 -442.94 C 444.365 -426.35 460.02 -419.22 480.792 -419.22 C 497.973 -419.22 514.748 -423.95 522.151 -430.85 C 525.16 -433.71 531.357 -441.73 531.391 -446.46 C 531.4 -448.66 529.851 -458.32 527.918 -466.01 C 524.547 -479.53 524.481 -480.19 526.303 -483.14 C 529.764 -488.75 524.645 -488.21 598.96 -501.61 C 622.138 -505.88 631.839 -505.67 637.363 -500.72 C 641.516 -497.09 644.185 -485.66 644.185 -471.51 C 644.185 -439.21 624.203 -421.86 582.735 -409.43 C 563.807 -403.73 554.437 -402.41 554.437 -399.55 C 554.437 -396.03 565.806 -392.85 589.656 -381.43 C 614.744 -369.45 629.554 -360.98 641.286 -352.21 C 665.014 -334.18 677.811 -318.69 685.193 -295.29 C 689.5 -281.68 689.477 -273.44 685.171 -270.15 C 683.16 -268.6 668.934 -265.42 634.783 -258.95 C 573.397 -247.3 573.276 -245.75 568.432 -246.75 C 563.171 -247.73 559.775 -252.45 556.425 -263.45 C 550.637 -282.44 543.386 -299.9 531.841 -312.21 C 501.181 -344.74 444.53 -355.28 414.431 -334.09 C 406.5 -328.48 399.217 -317.94 396.317 -307.83 C 395.065 -303.42 393.361 -287.07 392.537 -278.6 C 391.099 -263.88 390.913 -263.11 387.637 -260.04 C 383.617 -256.2 387.605 -255.75 339.348 -246.52 C 291.309 -237.41 289.76 -238.83 287.201 -245.87 C 285.213 -251.36 286.519 -273.01 289.322 -281.23 C 298.846 -308.92 314.939 -327.59 364.657 -349.67 C 396.471 -363.73 394.822 -366.05 390.681 -370.89 C 354.551 -392.19 317.685 -402.19 284.477 -441.62 C 276.15 -454.8 269.844 -474.46 272.02 -480.51 C 273.306 -484.14 278.523 -487.87 284.652 -489.64 C 290.453 -491.27 381.454 -508.31 386.277 -508.63 C 387.551 -508.74 388.648 -508.85 389.638 -508.85 C 396.548 -508.97 397.47 -506.54 404.182 -487.75 Z"/>
</svg>