<?xml version="1.0" encoding="utf-8"?>
<svg xmlns="http://www.w3.org/2000/svg" height="48" viewBox="0 -960 960 960" width="48">
  <path fill="rgb(255, 255, 255)" d="M 229 -55 C 202.967 -55 180.793 -64.157 162.48 -82.47 C 144.16 -100.79 135 -122.967 135 -149 L 135 -811 C 135 -837.307 144.16 -859.717 162.48 -878.23 C 180.793 -896.743 202.967 -906 229 -906 L 552 -906 C 565.04 -906 577.467 -903.333 589.28 -898 C 601.093 -892.667 611.333 -885.667 620 -877 L 797 -700 C 805.667 -691.333 812.667 -681.093 818 -669.28 C 823.333 -657.467 826 -645.04 826 -632 L 826 -149 C 826 -122.967 816.743 -100.79 798.23 -82.47 C 779.717 -64.157 757.307 -55 731 -55 Z M 542 -672 L 542 -811 L 229 -811 L 229 -149 L 731 -149 L 731 -625 L 589 -625 C 575.833 -625 564.71 -629.543 555.63 -638.63 C 546.543 -647.71 542 -658.833 542 -672 Z M 445.853 -260.58 L 445.853 -488.52 C 446.149 -497.219 449.836 -506.204 455.741 -512.514 C 462.082 -518.384 471.044 -522.33 479.824 -522.33 C 488.607 -522.33 497.561 -518.362 503.846 -512.476 C 509.673 -506.169 513.311 -497.204 513.601 -488.52 L 513.601 -260.58 C 513.294 -251.754 509.609 -242.897 503.731 -236.615 C 497.376 -230.627 488.417 -226.67 479.622 -226.67 C 470.841 -226.67 461.887 -230.665 455.581 -236.652 C 449.781 -242.934 446.151 -251.774 445.853 -260.58 Z M 352.814 -306.28 L 352.814 -441.65 C 353.102 -450.451 356.737 -459.475 362.597 -465.949 C 368.932 -472.028 377.947 -476.16 386.783 -476.16 C 395.607 -476.16 404.648 -472.066 411.077 -466.015 C 417.083 -459.537 420.808 -450.48 421.108 -441.65 L 421.108 -306.28 C 420.784 -297.412 416.927 -288.443 410.84 -282.086 C 404.358 -276.271 395.357 -272.37 386.591 -272.37 C 377.802 -272.37 368.802 -276.394 362.524 -282.268 C 356.726 -288.621 353.111 -297.477 352.814 -306.28 Z M 538.893 -306.28 L 538.893 -441.65 C 539.181 -450.451 542.815 -459.475 548.675 -465.948 C 555.048 -472.044 564.248 -476.16 573.41 -476.16 C 582.251 -476.16 591.258 -472.006 597.538 -465.909 C 603.32 -459.44 606.905 -450.435 607.187 -441.65 L 607.187 -306.28 C 606.883 -297.461 603.174 -288.541 597.299 -282.185 C 590.965 -276.328 582.003 -272.37 573.218 -272.37 C 564.1 -272.37 554.918 -276.379 548.602 -282.269 C 542.806 -288.621 539.19 -297.477 538.893 -306.28 Z M 259.775 -366.3 L 259.775 -382.22 C 260.081 -391.064 263.796 -399.962 269.662 -406.334 C 275.995 -412.192 284.96 -416.15 293.744 -416.15 C 302.536 -416.15 311.55 -412.109 317.828 -406.235 C 323.614 -399.867 327.221 -391.049 327.521 -382.22 L 327.521 -366.3 C 327.215 -357.455 323.531 -348.596 317.661 -342.315 C 311.302 -336.345 302.338 -332.37 293.552 -332.37 C 284.76 -332.37 275.807 -336.365 269.501 -342.351 C 263.701 -348.634 260.073 -357.474 259.775 -366.3 Z M 631.932 -366.3 L 631.932 -382.22 C 632.238 -391.065 635.956 -399.964 641.82 -406.335 C 648.154 -412.192 657.117 -416.15 665.901 -416.15 C 674.674 -416.15 683.721 -412.173 690.149 -406.342 C 696.159 -399.966 699.907 -391.095 700.226 -382.22 L 700.226 -366.3 C 699.901 -357.41 696.078 -348.499 689.982 -342.211 C 683.472 -336.285 674.464 -332.37 665.699 -332.37 C 656.919 -332.37 647.967 -336.364 641.661 -342.351 C 635.858 -348.635 632.23 -357.475 631.932 -366.3 Z"/>
</svg>