<?xml version="1.0" encoding="utf-8"?>
<svg xmlns="http://www.w3.org/2000/svg" height="48" viewBox="0 -960 960 960" width="48">
  <path fill="rgb(255, 255, 255)" d="M 143.666 -828.5 C 143.666 -854.11 152.583 -875.93 170.417 -893.95 C 188.245 -911.97 209.83 -920.98 235.173 -920.98 L 549.603 -920.98 C 562.297 -920.98 574.394 -918.38 585.894 -913.19 C 597.394 -908 607.362 -901.19 615.799 -892.75 L 788.103 -720.45 C 796.54 -712.01 803.354 -702.04 808.546 -690.54 C 813.737 -679.04 816.334 -666.94 816.334 -654.25 L 816.334 -53.532 C 816.334 -49.196 814.446 -46.135 810.687 -44.503 C 806.928 -42.884 803.429 -43.534 800.202 -46.301 L 758.261 -86.601 L 716.321 -44.656 C 712.563 -40.804 707.964 -39.019 702.545 -39.019 C 697.109 -39.019 692.56 -40.804 688.898 -44.656 L 646.957 -86.601 L 605.017 -44.656 C 601.015 -40.804 596.191 -39.019 590.578 -39.019 C 584.951 -39.019 580.625 -40.804 577.593 -44.656 L 535.651 -85.793 L 493.711 -45.471 C 489.953 -41.136 485.355 -39.019 479.936 -39.019 C 474.5 -39.019 469.949 -41.136 466.289 -45.471 L 424.346 -85.793 L 383.214 -44.656 C 379.212 -40.804 374.389 -39.019 368.775 -39.019 C 363.146 -39.019 358.823 -40.804 355.79 -44.656 L 313.043 -86.601 L 271.1 -44.656 C 267.343 -40.804 262.745 -39.019 257.325 -39.019 C 251.89 -39.019 247.34 -40.804 243.679 -44.656 L 201.739 -86.601 L 159.797 -46.301 C 156.571 -43.534 153.07 -42.884 149.313 -44.503 C 145.554 -46.135 143.666 -49.196 143.666 -53.532 Z M 539.868 -693.19 L 539.868 -826.98 C 536.939 -827.48 533.987 -827.99 531.012 -828.5 L 235.173 -828.5 L 235.173 -183.926 L 723.854 -183.926 L 723.854 -647.44 L 585.621 -647.44 C 572.804 -647.44 561.976 -651.86 553.137 -660.7 C 544.291 -669.54 539.868 -680.37 539.868 -693.19 Z M 303.272 -503.792 C 296.783 -510.84 292.098 -521.511 292.098 -531.67 C 292.098 -541.925 296.995 -552.635 303.728 -559.771 C 310.955 -566.126 321.376 -570.315 331.016 -570.73 L 635.667 -570.73 C 645.774 -570.329 656.388 -566.072 663.437 -559.835 C 669.89 -552.798 674.585 -542.156 674.585 -531.97 C 674.585 -521.725 669.673 -511 662.944 -503.858 C 655.707 -497.509 645.291 -493.325 635.667 -492.91 L 331.016 -492.91 C 320.913 -493.31 310.32 -497.536 303.272 -503.792 Z M 303.272 -385.732 C 296.783 -392.78 292.098 -403.451 292.098 -413.62 C 292.098 -423.865 296.991 -434.571 303.72 -441.714 C 310.958 -448.085 321.384 -452.268 331.016 -452.68 L 635.667 -452.68 C 645.767 -452.282 656.356 -448.059 663.421 -441.791 C 669.884 -434.761 674.585 -424.09 674.585 -413.93 C 674.585 -403.665 669.685 -392.952 662.952 -385.816 C 655.719 -379.456 645.298 -375.258 635.667 -374.84 L 331.016 -374.84 C 320.906 -375.242 310.313 -379.478 303.272 -385.732 Z M 303.268 -268.456 C 296.782 -275.501 292.098 -286.158 292.098 -296.34 C 292.098 -306.588 297.002 -317.294 303.727 -324.44 C 310.953 -330.795 321.376 -334.985 331.016 -335.4 L 635.667 -335.4 C 645.774 -334.999 656.363 -330.766 663.421 -324.501 C 669.883 -317.474 674.585 -306.813 674.585 -296.62 C 674.585 -286.372 669.688 -275.674 662.956 -268.541 C 655.712 -262.165 645.291 -257.975 635.667 -257.56 L 331.016 -257.56 C 320.913 -257.96 310.32 -262.188 303.268 -268.456 Z"/>
</svg>