<?xml version="1.0" encoding="utf-8"?>
<svg xmlns="http://www.w3.org/2000/svg" height="48" viewBox="0 -960 960 960" width="48">
  <path fill="rgb(255, 255, 255)" d="M 229 -55 C 202.967 -55 180.793 -64.157 162.48 -82.47 C 145.632 -99.318 136.532 -119.427 135.178 -142.798 C 135.06 -144.153 135 -145.525 135 -146.911 L 135 -213.35 C 135 -239.307 156.043 -260.35 182 -260.35 C 207.957 -260.35 229 -239.307 229 -213.35 L 229 -149 L 731 -149 L 732 -213.35 C 732 -239.307 753.043 -260.35 779 -260.35 C 804.957 -260.35 826 -239.307 826 -213.35 L 826 -146.911 C 826 -145.503 825.938 -144.109 825.817 -142.732 C 824.435 -119.389 815.239 -99.302 798.23 -82.47 C 779.717 -64.157 757.307 -55 731 -55 Z M 135 -811 C 135 -837.307 144.16 -859.717 162.48 -878.23 C 180.793 -896.743 202.967 -906 229 -906 L 552 -906 C 565.04 -906 577.467 -903.333 589.28 -898 C 601.093 -892.667 611.333 -885.667 620 -877 L 797 -700 C 805.667 -691.333 812.667 -681.093 818 -669.28 C 823.333 -657.467 826 -645.04 826 -632 L 826 -560.9 C 826 -534.943 804.957 -513.9 779 -513.9 C 753.043 -513.9 732 -534.943 732 -560.9 L 731 -625 L 589 -625 C 575.833 -625 564.71 -629.543 555.63 -638.63 C 546.543 -647.71 542 -658.833 542 -672 L 542 -811 L 229 -811 L 229 -560.9 C 229 -534.943 207.957 -513.9 182 -513.9 C 156.043 -513.9 135 -534.943 135 -560.9 Z M 665.689 -376.6 L 563.862 -478.43 C 556.099 -486.73 551.492 -498.1 551.545 -508.64 C 552.453 -518.75 557.345 -529.5 564.737 -537.57 C 572.839 -545.38 584.18 -550.13 594.782 -550.3 C 605.088 -549.59 615.885 -544.88 623.656 -537.71 L 754.72 -407.18 C 758.413 -403.37 761.961 -398.12 764.188 -393.35 C 766.278 -388.32 767.731 -382.41 767.731 -377.24 C 767.731 -372.09 766.251 -366.13 764.132 -361.19 C 761.899 -356.42 758.343 -351.24 754.735 -347.37 L 621.607 -214.23 C 613.724 -207.01 602.799 -202.09 592.409 -202.09 C 581.861 -202.09 571.028 -207.41 563.207 -215.09 C 555.505 -222.99 550.201 -233.98 550.201 -244.62 C 550.201 -255.34 555.336 -266.3 563.196 -274.12 Z M 294.985 -377.94 L 397.06 -275.99 C 404.305 -267.66 408.556 -256.44 408.454 -246.04 C 407.534 -235.88 402.644 -225.24 395.263 -217.23 C 387.248 -209.47 375.944 -204.54 365.23 -204.38 C 354.909 -205.06 344.154 -209.73 336.351 -217.07 L 205.124 -347.52 C 201.511 -351.38 198.101 -356.42 195.874 -361.19 C 193.752 -366.16 192.268 -372.27 192.268 -377.4 C 192.268 -382.56 193.761 -388.5 195.869 -393.44 C 198.087 -398.22 201.571 -403.35 205.266 -407.17 L 338.404 -540.31 C 346.443 -547.64 357.522 -552.55 368.031 -552.55 C 378.558 -552.55 389.557 -547.61 397.448 -540.24 C 404.795 -532.42 409.799 -521.18 409.799 -510.6 C 409.799 -499.88 404.778 -488.47 397.47 -480.42 Z"/>
</svg>