<?xml version="1.0" encoding="utf-8"?>
<svg xmlns="http://www.w3.org/2000/svg" height="48" viewBox="0 -960 960 960" width="48">
  <path fill="rgb(255, 255, 255)" d="M 229 -55 C 202.967 -55 180.793 -64.157 162.48 -82.47 C 144.16 -100.79 135 -122.967 135 -149 L 135 -811 C 135 -837.307 144.16 -859.717 162.48 -878.23 C 180.793 -896.743 202.967 -906 229 -906 L 552 -906 C 565.04 -906 577.467 -903.333 589.28 -898 C 601.093 -892.667 611.333 -885.667 620 -877 L 797 -700 C 805.667 -691.333 812.667 -681.093 818 -669.28 C 823.333 -657.467 826 -645.04 826 -632 L 826 -149 C 826 -122.967 816.743 -100.79 798.23 -82.47 C 779.717 -64.157 757.307 -55 731 -55 Z M 542 -672 L 542 -811 L 229 -811 L 229 -149 L 731 -149 L 731 -625 L 589 -625 C 575.833 -625 564.71 -629.543 555.63 -638.63 C 546.543 -647.71 542 -658.833 542 -672 Z M 308.012 -345.01 C 427.372 -344.071 524.129 -352.171 639.908 -397.847 C 649.644 -400.979 662.65 -399.473 671.409 -394.199 C 679.463 -387.957 685.563 -376.443 686.176 -366.16 L 686.176 -275.03 C 685.914 -268.386 683.609 -260.563 680.045 -255.454 C 676.478 -250.34 669.839 -245.456 663.777 -242.933 C 516.626 -190.657 419.413 -191.331 310.34 -184.441 C 301.41 -184.145 290.971 -188.038 284.61 -193.447 C 278.626 -199.605 274.252 -209.716 273.825 -218.37 L 273.825 -311.05 C 274.235 -319.334 278.305 -329.034 283.867 -335.101 C 289.992 -340.606 299.774 -344.61 308.012 -345.01 Z M 341.788 -254.187 C 435.485 -259.104 496.334 -256.853 618.214 -298.783 L 618.214 -318.088 C 513.945 -284.282 449.034 -278.188 341.788 -277.132 Z M 308.014 -532.87 C 427.372 -531.901 524.104 -540.022 639.885 -585.688 C 649.645 -588.843 662.673 -587.32 671.41 -582.069 C 679.464 -575.82 685.564 -564.29 686.176 -553.99 L 686.176 -462.89 C 685.914 -456.237 683.61 -448.413 680.047 -443.302 C 676.48 -438.185 669.83 -433.294 663.775 -430.763 C 516.627 -378.507 419.415 -379.161 310.34 -372.301 C 301.423 -372 290.98 -375.877 284.602 -381.305 C 278.623 -387.466 274.253 -397.563 273.825 -406.22 L 273.825 -498.89 C 274.238 -507.19 278.325 -516.886 283.875 -522.959 C 289.982 -528.444 299.763 -532.464 308.014 -532.87 Z M 341.788 -442.019 C 435.486 -446.952 496.335 -444.684 618.214 -486.632 L 618.214 -505.957 C 513.945 -472.142 449.034 -466.048 341.788 -464.992 Z"/>
</svg>