<?xml version="1.0" encoding="utf-8"?>
<svg xmlns="http://www.w3.org/2000/svg" height="48" viewBox="0 -960 960 960" width="48">
  <path fill="rgb(255, 255, 255)" d="M 229 -55 C 202.967 -55 180.793 -64.157 162.48 -82.47 C 144.16 -100.79 135 -122.967 135 -149 L 135 -811 C 135 -837.307 144.16 -859.717 162.48 -878.23 C 180.793 -896.743 202.967 -906 229 -906 L 552 -906 C 565.04 -906 577.467 -903.333 589.28 -898 C 601.093 -892.667 611.333 -885.667 620 -877 L 797 -700 C 805.667 -691.333 812.667 -681.093 818 -669.28 C 823.333 -657.467 826 -645.04 826 -632 L 826 -149 C 826 -122.967 816.743 -100.79 798.23 -82.47 C 779.717 -64.157 757.307 -55 731 -55 Z M 542 -672 L 542 -811 L 229 -811 L 229 -149 L 731 -149 L 731 -625 L 589 -625 C 575.833 -625 564.71 -629.543 555.63 -638.63 C 546.543 -647.71 542 -658.833 542 -672 Z M 307.207 -501.98 C 297.013 -502.265 286.981 -506.429 279.715 -513.353 C 272.845 -520.635 268.471 -530.972 268.471 -541.52 C 268.471 -551.699 272.872 -561.801 279.742 -569.035 C 287.04 -575.85 297.07 -579.858 307.207 -580.12 L 654.961 -580.12 C 665.122 -579.843 675.286 -575.683 682.722 -568.942 C 689.803 -561.606 694.362 -551.475 694.362 -541.25 C 694.362 -530.646 689.777 -520.351 682.658 -513.096 C 675.222 -506.355 665.122 -502.257 654.961 -501.98 Z M 307.207 -349.79 C 297.013 -350.075 286.983 -354.239 279.717 -361.161 C 272.862 -368.395 268.471 -378.482 268.471 -388.66 C 268.471 -398.838 272.659 -409.167 279.744 -416.188 C 286.827 -423.206 297.07 -426.998 307.207 -427.26 L 654.961 -427.26 C 665.122 -426.983 675.286 -422.823 682.722 -416.082 C 689.803 -408.748 694.362 -398.627 694.362 -388.39 C 694.362 -378.141 689.758 -368.116 682.658 -360.906 C 675.222 -354.165 665.122 -350.067 654.961 -349.79 Z M 307.207 -196.93 C 297.013 -197.215 286.984 -201.378 279.718 -208.3 C 272.846 -215.576 268.471 -225.923 268.471 -236.46 C 268.471 -246.649 272.66 -256.968 279.744 -263.988 C 286.825 -271.004 297.066 -274.806 307.207 -275.07 L 654.961 -275.07 C 665.122 -274.793 675.281 -270.638 682.717 -263.897 C 689.816 -256.554 694.362 -246.42 694.362 -236.2 C 694.362 -225.601 689.795 -215.309 682.658 -208.046 C 675.222 -201.305 665.122 -197.207 654.961 -196.93 Z M 353.781 -632.345 C 345.402 -641.189 340.19 -653.13 340.19 -665.59 C 340.19 -678.044 345.47 -689.949 353.824 -698.868 C 362.604 -707.138 374.608 -712.114 387.009 -712.42 L 390.363 -712.42 C 392.089 -712.351 393.856 -712.089 395.028 -711.894 L 390.405 -712.666 L 402.607 -727.964 C 401.701 -728.228 404.165 -727.659 399.83 -728.701 C 395.503 -729.789 391.544 -730.28 387.009 -730.28 C 371.567 -730.28 359.283 -726.207 347.604 -716.373 C 335.574 -706.794 328.403 -695.676 324.716 -680.645 C 323.063 -674.642 319.448 -668.698 315.097 -664.662 C 310.227 -660.727 303.485 -658 297.465 -658 C 288.952 -658 280.564 -662.972 275.623 -669.776 C 271.609 -676.705 270.375 -686.067 272.26 -694.232 C 280.193 -719.688 294.854 -741.767 314.971 -758.757 C 335.492 -775.471 360.373 -784.69 387.02 -784.69 C 413.671 -784.69 438.496 -775.445 458.875 -758.723 C 478.814 -741.752 493.605 -719.413 501.828 -693.991 C 503.712 -685.821 502.4 -676.698 498.398 -669.78 C 493.472 -662.983 485.134 -658 476.701 -658 C 470.63 -658 463.831 -660.601 458.739 -664.449 C 453.899 -668.689 450.267 -674.86 449.181 -681.228 C 448.609 -684.998 447.606 -687.825 445.598 -691.248 C 443.394 -695.008 445.032 -692.208 444.749 -692.677 L 432.174 -677.344 C 432.498 -676.235 432.451 -676.696 433.004 -674.047 C 433.508 -671.431 433.838 -668.318 433.838 -665.59 C 433.838 -653.123 428.603 -641.182 420.239 -632.347 C 411.399 -623.92 399.373 -618.74 387.009 -618.74 C 374.646 -618.74 362.621 -623.919 353.781 -632.345 Z"/>
</svg>