<?xml version="1.0" encoding="utf-8"?>
<svg xmlns="http://www.w3.org/2000/svg" height="48" viewBox="0 -960 960 960" width="48">
  <path fill="rgb(255, 255, 255)" d="M 229 -55 C 202.967 -55 180.793 -64.157 162.48 -82.47 C 144.16 -100.79 135 -122.967 135 -149 L 135 -811 C 135 -837.307 144.16 -859.717 162.48 -878.23 C 180.793 -896.743 202.967 -906 229 -906 L 552 -906 C 565.04 -906 577.467 -903.333 589.28 -898 C 601.093 -892.667 611.333 -885.667 620 -877 L 797 -700 C 805.667 -691.333 812.667 -681.093 818 -669.28 C 823.333 -657.467 826 -645.04 826 -632 L 826 -149 C 826 -122.967 816.743 -100.79 798.23 -82.47 C 779.717 -64.157 757.307 -55 731 -55 Z M 542 -672 L 542 -811 L 229 -811 L 229 -149 L 731 -149 L 731 -625 L 589 -625 C 575.833 -625 564.71 -629.543 555.63 -638.63 C 546.543 -647.71 542 -658.833 542 -672 Z M 624.045 -254.171 C 589.539 -220.24 538.138 -196.88 485.653 -196.88 C 433.168 -196.88 381.728 -220.278 347.222 -254.209 C 313.314 -288.761 289.907 -340.152 289.907 -392.63 C 289.907 -445.119 313.351 -496.525 347.261 -530.999 C 381.764 -564.929 433.165 -588.37 485.653 -588.37 C 523.126 -588.37 549.243 -579.982 574.95 -566.78 C 583.247 -573.554 589.882 -577 607.75 -579.595 C 609.542 -579.677 612.264 -579.67 614.13 -579.588 C 627.742 -578.459 643.938 -571.594 653.684 -562.914 C 662.877 -553.64 670.623 -536.509 672.529 -523.091 L 672.703 -518.232 L 672.687 -518.024 C 671.123 -498.751 666.372 -490.656 659.743 -482.008 C 672.898 -456.248 681.399 -430.092 681.399 -392.63 C 681.399 -340.152 657.953 -288.723 624.045 -254.171 Z M 342.372 -392.63 C 342.372 -351.466 356.896 -318.11 384.312 -291.347 C 411.12 -263.917 444.511 -249.35 485.653 -249.35 C 526.802 -249.35 560.138 -263.869 586.946 -291.299 C 614.361 -318.061 628.934 -351.466 628.934 -392.63 C 628.934 -422.215 624.05 -438.398 613.548 -457.718 C 613.53 -457.716 613.511 -457.714 613.492 -457.711 L 613.198 -457.676 L 612.937 -457.68 C 597.978 -457.925 580.412 -465.015 570.11 -474.02 C 560.347 -483.813 552.3 -500.827 550.786 -515.477 C 550.778 -517.855 550.77 -519.481 550.775 -520.536 C 531.441 -530.988 514.053 -535.91 485.653 -535.91 C 444.511 -535.91 411.168 -521.391 384.36 -493.961 C 356.944 -467.188 342.372 -433.793 342.372 -392.63 Z M 591.673 -403.005 L 592.095 -393.67 C 591.905 -365.04 580.298 -338.18 561.749 -319.217 C 543.2 -300.253 516.617 -288.073 488.011 -287.291 C 459.407 -286.813 432.315 -297.809 412.942 -315.933 C 393.57 -334.055 380.779 -360.368 379.311 -388.948 C 378.217 -417.508 388.612 -444.829 406.295 -464.6 C 423.977 -484.37 449.946 -497.751 478.484 -499.867 C 482.039 -500.133 485.701 -500.138 489.17 -500.058 C 515.738 -499.035 540.693 -488.124 558.772 -471.027 C 576.85 -453.929 589.145 -429.431 591.673 -403.005 Z M 521.346 -457.084 C 513.932 -456.765 508.198 -453.585 503.577 -448.417 C 498.957 -443.249 496.44 -437.253 496.963 -429.862 C 497.106 -422.459 500.149 -416.72 505.208 -411.992 C 510.269 -407.264 516.208 -404.614 523.608 -404.959 C 531.009 -404.912 536.822 -407.833 541.666 -412.798 C 546.511 -417.763 549.247 -423.551 549.11 -430.86 L 548.989 -433.525 C 548.502 -440.311 545.656 -445.537 540.937 -450.009 C 536.22 -454.481 530.76 -457.086 523.881 -457.153 C 522.873 -457.153 522.176 -457.157 521.346 -457.084 Z"/>
</svg>