<?xml version="1.0" encoding="utf-8"?>
<svg xmlns="http://www.w3.org/2000/svg" height="48" viewBox="0 -960 960 960" width="48">
  <path fill="rgb(255, 255, 255)" d="M 229 -55 C 202.967 -55 180.793 -64.157 162.48 -82.47 C 144.16 -100.79 135 -122.967 135 -149 L 135 -811 C 135 -837.307 144.16 -859.717 162.48 -878.23 C 180.793 -896.743 202.967 -906 229 -906 L 552 -906 C 565.04 -906 577.467 -903.333 589.28 -898 C 601.093 -892.667 611.333 -885.667 620 -877 L 797 -700 C 805.667 -691.333 812.667 -681.093 818 -669.28 C 823.333 -657.467 826 -645.04 826 -632 L 826 -149 C 826 -122.967 816.743 -100.79 798.23 -82.47 C 779.717 -64.157 757.307 -55 731 -55 Z M 542 -672 L 542 -811 L 229 -811 L 229 -149 L 731 -149 L 731 -625 L 589 -625 C 575.833 -625 564.71 -629.543 555.63 -638.63 C 546.543 -647.71 542 -658.833 542 -672 Z M 466.202 -608.467 C 474.222 -612.467 485.783 -612.464 493.802 -608.464 L 650.043 -517.323 C 657.386 -512.383 663.066 -502.497 663.633 -493.66 L 663.633 -311.38 C 663.066 -302.543 657.385 -292.656 650.042 -287.716 L 493.798 -196.574 C 485.778 -192.574 474.217 -192.576 466.197 -196.576 L 309.958 -287.716 C 302.613 -292.657 296.934 -302.544 296.366 -311.38 L 296.366 -493.66 C 296.934 -502.496 302.613 -512.383 309.958 -517.324 Z M 480 -251.953 L 608.848 -327.113 L 608.848 -477.927 L 480 -553.087 L 351.153 -477.927 L 351.153 -327.113 Z M 480.902 -456.843 C 465.288 -456.843 452.789 -451.231 442.49 -440.93 C 432.19 -430.63 426.578 -418.131 426.578 -402.52 C 426.578 -386.904 432.19 -374.406 442.489 -364.106 C 452.789 -353.807 465.287 -348.196 480.902 -348.196 C 497.013 -348.196 510.053 -353.939 520.228 -365.04 C 525.295 -369.816 533.056 -373.373 539.401 -373.524 C 545.746 -373.675 553.669 -370.491 558.956 -365.968 C 563.731 -360.9 567.289 -353.14 567.44 -346.795 C 567.592 -340.45 564.408 -332.528 559.883 -327.24 C 540.297 -307.123 511.337 -293.403 480.902 -293.403 C 451.385 -293.403 423.026 -306.086 403.75 -325.363 C 384.474 -344.64 371.793 -373.001 371.793 -402.52 C 371.793 -432.034 384.474 -460.393 403.75 -479.669 C 423.026 -498.944 451.385 -511.627 480.902 -511.627 C 511.209 -511.627 540.064 -498.017 559.635 -478.058 C 564.177 -472.783 567.385 -464.873 567.254 -458.528 C 567.124 -452.183 563.592 -444.414 558.837 -439.333 C 553.562 -434.783 545.651 -431.572 539.304 -431.702 C 532.958 -431.831 525.182 -435.366 520.102 -440.121 C 509.933 -451.148 496.945 -456.843 480.902 -456.843 Z"/>
</svg>