<?xml version="1.0" encoding="utf-8"?>
<svg xmlns="http://www.w3.org/2000/svg" height="48" viewBox="0 -960 960 960" width="48">
  <path fill="rgb(255, 255, 255)" d="M 229 -55 C 202.967 -55 180.793 -64.157 162.48 -82.47 C 144.16 -100.79 135 -122.967 135 -149 L 135 -811 C 135 -837.307 144.16 -859.717 162.48 -878.23 C 180.793 -896.743 202.967 -906 229 -906 L 552 -906 C 565.04 -906 577.467 -903.333 589.28 -898 C 601.093 -892.667 611.333 -885.667 620 -877 L 797 -700 C 805.667 -691.333 812.667 -681.093 818 -669.28 C 823.333 -657.467 826 -645.04 826 -632 L 826 -149 C 826 -122.967 816.743 -100.79 798.23 -82.47 C 779.717 -64.157 757.307 -55 731 -55 Z M 542 -672 L 542 -811 L 229 -811 L 229 -149 L 731 -149 L 731 -625 L 589 -625 C 575.833 -625 564.71 -629.543 555.63 -638.63 C 546.543 -647.71 542 -658.833 542 -672 Z M 648.8 -186.293 L 554.683 -186.293 C 550.444 -186.293 546.475 -188.377 544.068 -191.866 L 462.225 -310.512 C 459.952 -314.168 448.87 -333.256 440.19 -340.211 C 433.897 -345.385 430.557 -347.217 422.851 -347.753 L 407.227 -347.753 C 407.227 -347.754 407.226 -347.754 407.225 -347.754 C 407.226 -347.754 407.226 -347.753 407.227 -347.752 L 407.253 -199.192 C 407.253 -195.771 405.895 -192.491 403.476 -190.072 C 401.057 -187.653 397.777 -186.293 394.356 -186.293 L 311.201 -186.293 C 304.078 -186.293 298.305 -192.067 298.305 -199.19 L 298.305 -586.08 C 298.305 -593.203 304.078 -598.976 311.201 -598.976 L 534.358 -598.976 C 535.291 -598.976 536.222 -598.875 537.133 -598.674 C 541.522 -597.698 559.187 -594.197 583.876 -578.5 C 595.887 -570.467 609.14 -559.393 618.391 -545.016 C 627.491 -530.871 633.605 -511.012 633.607 -487.662 C 634.594 -435.288 611.236 -402.284 588.005 -381.672 C 568.837 -365.322 549.834 -356.883 543.055 -354.18 C 544.009 -350.038 636.145 -238.145 648.256 -221.857 C 651.974 -216.881 655.795 -211.609 659.313 -206.66 C 662.108 -202.727 662.473 -197.563 660.26 -193.275 C 658.047 -188.987 653.625 -186.294 648.8 -186.294 Z M 408.336 -509.473 C 408.335 -509.473 408.335 -509.473 408.334 -509.473 C 408.335 -509.472 408.336 -509.471 408.337 -509.47 L 408.311 -439.316 L 485.378 -439.316 C 485.378 -439.316 494.546 -438.6 503.095 -443.813 C 507.29 -445.763 510.986 -448.932 514.855 -454.609 C 518.92 -460.572 521.076 -466.128 521.076 -474.91 C 521.076 -483.984 519.033 -490.913 515.495 -495.767 C 512.546 -500.804 507.811 -503.704 503.236 -505.728 C 496.221 -509.295 489.347 -509.473 486.229 -509.473 C 485.946 -509.473 408.619 -509.473 408.336 -509.473 Z"/>
</svg>