<?xml version="1.0" encoding="utf-8"?>
<svg xmlns="http://www.w3.org/2000/svg" height="48" viewBox="0 -960 960 960" width="48">
  <path fill="rgb(255, 255, 255)" d="M 229 -55 C 202.967 -55 180.793 -64.157 162.48 -82.47 C 144.16 -100.79 135 -122.967 135 -149 L 135 -811 C 135 -837.307 144.16 -859.717 162.48 -878.23 C 180.793 -896.743 202.967 -906 229 -906 L 552 -906 C 565.04 -906 577.467 -903.333 589.28 -898 C 601.093 -892.667 611.333 -885.667 620 -877 L 797 -700 C 805.667 -691.333 812.667 -681.093 818 -669.28 C 823.333 -657.467 826 -645.04 826 -632 L 826 -564.375 C 826 -538.141 804.734 -516.875 778.5 -516.875 C 752.266 -516.875 731 -538.141 731 -564.375 L 731 -625 L 589 -625 C 575.833 -625 564.71 -629.543 555.63 -638.63 C 546.543 -647.71 542 -658.833 542 -672 L 542 -811 L 229 -811 L 229 -149 L 731 -149 L 731 -218.8 C 731 -245.034 752.266 -266.3 778.5 -266.3 C 804.734 -266.3 826 -245.034 826 -218.8 L 826 -149 C 826 -122.967 816.743 -100.79 798.23 -82.47 C 779.717 -64.157 757.307 -55 731 -55 Z M 473.235 -608.79 C 481.394 -612.91 492.986 -612.91 501.125 -608.78 L 625.786 -536.04 C 631.717 -532.18 636.94 -525.44 638.585 -519.18 C 640.229 -512.92 638.993 -504.48 635.72 -498.18 C 631.866 -492.25 625.134 -487.01 618.873 -485.35 C 612.613 -483.7 604.17 -484.94 597.874 -488.22 L 487.172 -552.81 L 350.57 -473.11 L 350.57 -313.24 L 487.172 -233.53 L 597.88 -298.11 C 604.154 -301.37 612.593 -302.61 618.854 -300.97 C 625.116 -299.33 631.858 -294.09 635.72 -288.14 C 638.992 -281.85 640.229 -273.42 638.585 -267.16 C 636.941 -260.89 631.709 -254.15 625.779 -250.28 L 501.122 -177.57 C 492.984 -173.44 481.379 -173.45 473.22 -177.57 L 308.919 -273.42 C 301.424 -278.41 295.731 -288.29 295.204 -297.33 L 295.204 -489 C 295.731 -498.03 301.439 -507.92 308.935 -512.91 Z M 750.425 -467.43 C 756.964 -467.43 764.759 -463.95 768.966 -459.74 C 773.175 -455.53 776.222 -447.73 776.65 -441.21 L 776.65 -418.08 L 799.776 -418.08 C 806.315 -417.65 814.11 -414.61 818.316 -410.39 C 822.525 -406.18 826 -398.39 826 -391.86 C 826 -385.32 822.525 -377.53 818.316 -373.32 C 814.11 -369.11 806.315 -366.06 799.776 -365.64 L 776.65 -365.64 L 776.65 -342.5 C 776.222 -335.96 773.174 -328.17 768.965 -323.96 C 764.755 -319.76 756.961 -316.28 750.425 -316.28 C 743.888 -316.28 736.094 -319.76 731.886 -323.96 C 727.676 -328.17 724.628 -335.96 724.202 -342.5 L 724.202 -365.64 L 694.401 -365.64 L 694.401 -342.5 C 693.973 -335.96 690.924 -328.17 686.716 -323.96 C 682.506 -319.76 674.712 -316.28 668.175 -316.28 C 661.639 -316.28 653.845 -319.76 649.635 -323.96 C 645.426 -328.17 642.378 -335.96 641.95 -342.5 L 641.95 -365.64 L 618.825 -365.64 C 612.286 -366.06 604.492 -369.11 600.284 -373.32 C 596.075 -377.53 592.6 -385.32 592.6 -391.86 C 592.6 -398.39 596.075 -406.18 600.284 -410.39 C 604.492 -414.61 612.286 -417.65 618.825 -418.08 L 641.95 -418.08 L 641.95 -441.21 C 642.378 -447.73 645.425 -455.53 649.634 -459.74 C 653.842 -463.95 661.636 -467.43 668.175 -467.43 C 674.715 -467.43 682.51 -463.95 686.717 -459.74 C 690.926 -455.53 693.973 -447.73 694.401 -441.21 L 694.401 -418.08 L 724.202 -418.08 L 724.202 -441.21 C 724.628 -447.73 727.676 -455.53 731.883 -459.74 C 736.092 -463.95 743.885 -467.43 750.425 -467.43 Z M 492.11 -454.13 C 475.412 -454.13 461.239 -447.81 450.262 -436.81 C 439.268 -425.82 432.914 -411.56 432.914 -394.88 C 432.914 -378.18 439.268 -364.13 450.262 -353.13 C 461.239 -342.14 475.412 -335.82 492.11 -335.82 C 509.336 -335.82 524.018 -342.33 534.952 -354.15 C 539.473 -358.63 546.051 -361.48 551.833 -361.69 C 557.637 -361.69 564.356 -359.03 569.061 -354.97 C 573.48 -350.48 576.391 -343.76 576.534 -338.06 C 576.675 -332.16 574.07 -325.63 569.874 -320.74 C 550.489 -300.8 522.348 -287.55 492.11 -287.55 C 462.786 -287.55 435.317 -299.79 416.155 -318.91 C 396.974 -338.27 384.674 -365.54 384.674 -394.88 C 384.674 -424.2 396.974 -451.68 416.155 -470.83 C 435.317 -490.16 462.786 -502.38 492.11 -502.38 C 522.205 -502.38 550.245 -489.36 569.63 -469.4 C 573.846 -464.72 576.452 -458 576.351 -452.08 C 576.228 -446.4 573.337 -439.68 568.918 -435.19 C 564.234 -430.92 557.515 -428.47 551.731 -428.47 C 545.948 -428.66 539.351 -431.53 534.829 -435.99 C 523.875 -447.62 509.254 -454.13 492.11 -454.13 Z"/>
</svg>