<?xml version="1.0" encoding="utf-8"?>
<svg xmlns="http://www.w3.org/2000/svg" height="48" viewBox="0 -960 960 960" width="48">
  <path fill="rgb(255, 255, 255)" d="M 229 -55 C 202.967 -55 180.793 -64.157 162.48 -82.47 C 144.16 -100.79 135 -122.967 135 -149 L 135 -811 C 135 -837.307 144.16 -859.717 162.48 -878.23 C 180.793 -896.743 202.967 -906 229 -906 L 552 -906 C 565.04 -906 577.467 -903.333 589.28 -898 C 601.093 -892.667 611.333 -885.667 620 -877 L 797 -700 C 805.667 -691.333 812.667 -681.093 818 -669.28 C 823.333 -657.467 826 -645.04 826 -632 L 826 -149 C 826 -122.967 816.743 -100.79 798.23 -82.47 C 779.717 -64.157 757.307 -55 731 -55 Z M 542 -672 L 542 -811 L 229 -811 L 229 -149 L 731 -149 L 731 -625 L 589 -625 C 575.833 -625 564.71 -629.543 555.63 -638.63 C 546.543 -647.71 542 -658.833 542 -672 Z M 679.792 -421.68 L 688.412 -416.39 L 686.841 -413.13 C 684.102 -407.04 683.335 -405.39 682.933 -404.59 C 667.628 -374.01 637.492 -373.61 623.393 -374.01 C 587.778 -284.74 511.801 -235.43 409.194 -235.43 C 361.818 -235.43 325.801 -250.48 301.51 -280.25 C 281.643 -304.56 274.012 -334.71 271.708 -357.95 C 270.962 -366.14 273.698 -374.27 279.247 -380.34 C 284.792 -386.41 292.638 -389.87 300.86 -389.87 L 556.182 -389.87 C 567.198 -389.59 578.106 -392.1 587.888 -397.17 C 583.165 -404.67 580.345 -413.21 579.669 -422.05 C 578.376 -437.99 582.065 -453.95 590.226 -467.71 L 596.508 -477.1 L 605.531 -470.56 C 621.201 -457.92 630.187 -443.64 632.159 -427.34 C 648.999 -430.6 670.55 -428.19 679.938 -421.65 Z M 492.543 -484.56 C 492.543 -479.24 488.234 -474.94 482.922 -474.94 L 452.066 -474.94 C 446.749 -474.94 442.44 -479.24 442.44 -484.56 L 442.44 -512.74 C 442.44 -518.05 446.749 -522.36 452.066 -522.36 C 460.939 -522.36 474.045 -522.36 482.922 -522.36 C 488.234 -522.36 492.543 -518.05 492.543 -512.74 C 492.543 -504.52 492.543 -492.77 492.543 -484.56 Z M 423.682 -484.56 C 423.682 -479.24 419.373 -474.94 414.057 -474.94 L 383.2 -474.94 C 377.884 -474.94 373.579 -479.24 373.579 -484.56 L 373.579 -512.74 C 373.579 -518.05 377.884 -522.36 383.2 -522.36 C 392.078 -522.36 405.183 -522.36 414.057 -522.36 C 419.373 -522.36 423.682 -518.05 423.682 -512.74 C 423.682 -504.52 423.682 -492.77 423.682 -484.56 Z M 354.243 -418.03 C 354.243 -412.72 349.934 -408.41 344.622 -408.41 L 313.765 -408.41 C 308.449 -408.41 304.14 -412.72 304.14 -418.03 L 304.14 -446.21 C 304.14 -451.53 308.449 -455.83 313.765 -455.83 C 322.638 -455.83 335.744 -455.83 344.622 -455.83 C 349.934 -455.83 354.243 -451.53 354.243 -446.21 C 354.243 -438 354.243 -426.25 354.243 -418.03 Z M 423.066 -418.03 C 423.066 -412.72 418.757 -408.41 413.44 -408.41 L 382.584 -408.41 C 377.272 -408.41 372.963 -412.72 372.963 -418.03 L 372.963 -446.21 C 372.963 -451.53 377.272 -455.83 382.584 -455.83 C 391.461 -455.83 404.567 -455.83 413.44 -455.83 C 418.757 -455.83 423.066 -451.53 423.066 -446.21 C 423.066 -438 423.066 -426.25 423.066 -418.03 Z M 491.927 -418.03 C 491.927 -412.72 487.618 -408.41 482.306 -408.41 L 451.449 -408.41 C 446.133 -408.41 441.824 -412.72 441.824 -418.03 L 441.824 -446.21 C 441.824 -451.53 446.133 -455.83 451.449 -455.83 C 460.323 -455.83 473.428 -455.83 482.306 -455.83 C 487.618 -455.83 491.927 -451.53 491.927 -446.21 C 491.927 -438 491.927 -426.25 491.927 -418.03 Z M 560.793 -418.03 C 560.793 -412.72 556.484 -408.41 551.167 -408.41 L 520.311 -408.41 C 514.999 -408.41 510.689 -412.72 510.689 -418.03 L 510.689 -446.21 C 510.689 -451.53 514.999 -455.83 520.311 -455.83 C 529.188 -455.83 542.294 -455.83 551.167 -455.83 C 556.484 -455.83 560.793 -451.53 560.793 -446.21 C 560.793 -438 560.793 -426.25 560.793 -418.03 Z"/>
</svg>