<?xml version="1.0" encoding="utf-8"?>
<svg xmlns="http://www.w3.org/2000/svg" height="48" viewBox="0 -960 960 960" width="48">
  <path fill="rgb(255, 255, 255)" d="M 229 -55 C 202.967 -55 180.793 -64.157 162.48 -82.47 C 144.16 -100.79 135 -122.967 135 -149 L 135 -811 C 135 -837.307 144.16 -859.717 162.48 -878.23 C 180.793 -896.743 202.967 -906 229 -906 L 552 -906 C 565.04 -906 577.467 -903.333 589.28 -898 C 601.093 -892.667 611.333 -885.667 620 -877 L 797 -700 C 805.667 -691.333 812.667 -681.093 818 -669.28 C 823.333 -657.467 826 -645.04 826 -632 L 826 -149 C 826 -122.967 816.743 -100.79 798.23 -82.47 C 779.717 -64.157 757.307 -55 731 -55 Z M 542 -672 L 542 -811 L 229 -811 L 229 -149 L 731 -149 L 731 -625 L 589 -625 C 575.833 -625 564.71 -629.543 555.63 -638.63 C 546.543 -647.71 542 -658.833 542 -672 Z M 686.651 -358.91 C 697.287 -349.74 702.844 -337.32 702.423 -325.79 C 701.913 -316.62 697.248 -309.78 692.422 -305.56 C 687.51 -301.34 682.01 -299.26 680.242 -298.95 C 679.072 -298.79 677.839 -298.64 676.891 -298.88 C 675.768 -299.19 674.726 -300.47 674.32 -301.74 C 674.216 -302.85 674.574 -304.21 675.395 -305.01 C 676.046 -305.56 677.097 -306.2 678.412 -307 C 681.031 -308.58 688.156 -313.12 689.485 -321.8 C 690.171 -326.26 688.841 -333.34 682.741 -340.27 C 676.524 -347.44 665.839 -353.8 647.322 -355.79 C 630.014 -357.77 618.096 -355.72 607.858 -351.98 C 609.498 -347.51 610.661 -343.38 610.947 -337.96 C 611.098 -326.02 602.555 -316.85 593.925 -310.8 C 588.839 -307.24 583.289 -304.76 578.791 -303.33 C 575.144 -301.89 569.915 -300.38 566.149 -301.02 C 562.104 -301.89 558.418 -304.37 556.953 -308.35 C 555.544 -312.17 555.895 -317.82 558.45 -324.98 C 561.276 -332.63 568.967 -343.62 581.02 -353.42 C 578.154 -359.05 575.567 -363.6 573.879 -369 C 570.71 -379.52 571.411 -377.77 570.742 -380.63 C 566.881 -373.48 562.78 -364.71 549.295 -345.93 C 548.514 -344.72 548.179 -344.25 547.624 -343.53 C 550.09 -337.89 552.04 -332.06 552.35 -325.62 C 552.726 -313.76 547.128 -304.44 538.379 -298.16 C 533.555 -294.81 528.539 -292.58 524.208 -291.06 C 521.438 -289.88 515.754 -287.95 507.703 -287.48 C 503.23 -287.17 498.533 -287.66 495.763 -289.47 C 493.97 -290.83 492.642 -292.66 492.3 -294.49 C 491.957 -296.32 492.402 -298.55 493.262 -300.62 C 494.79 -304.12 505.309 -315.6 513.962 -325.46 C 516.048 -327.85 518.062 -330.33 519.908 -332.63 L 519.822 -332.79 L 520.529 -333.66 C 520.529 -333.66 521.764 -335.25 523.883 -338.04 C 520.864 -344.25 517.155 -350.39 515.196 -356.76 C 512.018 -367.18 512.903 -364.88 512.234 -367.65 C 508.516 -358.91 504.019 -347.44 493.024 -326.74 C 484.799 -311.36 479.194 -301.81 476.512 -297.36 L 476.512 -297.21 L 476.257 -296.73 C 476.257 -296.73 475.882 -296.08 475.174 -295.13 C 474.84 -294.49 474.641 -294.25 474.641 -294.25 L 471.202 -289.24 L 471.202 -289.64 L 474.633 -294.41 C 471.711 -290.35 464.57 -281.75 457.461 -281.75 C 452.548 -281.75 448.806 -284.45 446.761 -287.95 C 444.754 -291.39 443.831 -296.01 443.529 -300.38 C 443.314 -303.49 443.226 -304.85 443.219 -305.39 C 441.713 -302.05 442.82 -303.73 437.231 -293.22 C 434.882 -288.84 432.518 -284.55 429.54 -281.43 C 426.53 -278.25 422.414 -276.02 417.295 -276.02 C 414.637 -276.02 409.756 -276.42 405.583 -279.77 C 397.241 -287.48 390.817 -306.75 391.972 -321.32 C 393.006 -333.58 394.248 -338.6 396.198 -344.8 C 392.488 -342.81 390.075 -341.62 384.503 -338.43 L 377.433 -334.54 L 377.242 -334.86 C 384.216 -320.92 385.673 -291.77 370.164 -269.33 C 362.131 -258.03 350.541 -248.72 337.524 -243.37 C 324.506 -238.04 309.539 -236.53 295.018 -240.36 C 290.042 -241.78 283.578 -247.44 280.32 -255.8 C 277.104 -264 276.715 -275.55 282.751 -288.52 C 293.713 -311.12 336.106 -332.55 347.228 -337.72 C 348.151 -338.2 347.555 -337.89 347.714 -338.04 C 324.531 -356.11 272.615 -379.85 264.343 -418.61 C 262.145 -429.67 267.709 -456.34 301.125 -486.27 C 329.196 -511.28 368.246 -530.47 404.111 -542.57 C 434.38 -552.84 465.772 -554.99 490.619 -549.88 C 515.586 -544.8 534.613 -531.9 539.884 -513.11 C 544.677 -494.72 538.802 -474.17 526.421 -456.82 C 514.057 -439.47 494.935 -424.5 473.742 -416.7 C 435.989 -402.84 404.454 -405.07 391.581 -409.05 C 376.74 -413.83 367.664 -423.38 365.443 -428.81 C 365.013 -429.84 364.369 -431.43 364.162 -432.88 C 364.059 -433.65 364.074 -434.69 364.338 -435.5 C 364.607 -436.28 365.46 -437.24 366.32 -437.8 C 367.163 -438.19 368.66 -438.6 370.014 -437.8 C 370.969 -437.32 372.21 -436.12 374.073 -434.12 C 377.409 -430.62 390.473 -421.24 416.157 -424.18 C 450.383 -427.76 477.475 -442.17 494.687 -459.13 C 503.253 -467.57 509.137 -476.42 512.194 -485.01 C 515.22 -493.44 515.435 -501.09 512.242 -507.53 C 508.078 -516.7 493.28 -523.06 470.859 -523.69 C 448.274 -524.33 418.767 -518.68 385.752 -502.99 C 345.341 -483.89 324.292 -466.53 313.082 -452.43 C 302.048 -438.51 300.869 -428.25 300.534 -422.19 C 299.373 -406.27 309.809 -394.42 323.719 -382.94 C 337.626 -371.39 354.999 -360.81 367.331 -348.3 C 371.519 -350.46 375.897 -352.85 380.156 -355 C 392.384 -361.45 403.396 -367.18 408.975 -370.05 C 417.853 -382.08 435.583 -395.44 448.71 -395.44 C 454.157 -395.44 458.257 -393.29 460.67 -390.43 C 463.09 -387.57 464.275 -383.58 464.698 -379.99 C 465.072 -376.65 464.897 -373.38 464.594 -370.76 C 466.225 -371.39 468.948 -371.72 472.349 -370.61 C 475.971 -369.17 477.85 -367.02 478.39 -365.27 C 478.988 -363.36 478.502 -362.08 478.542 -362.16 C 478.589 -360.89 470.93 -336.2 467.802 -320.69 C 467.222 -317.66 467.031 -315.04 467.037 -312.97 L 467.189 -313.28 C 467.189 -313.28 468.025 -314.8 469.554 -317.59 C 469.649 -317.5 469.737 -317.5 469.816 -317.42 C 469.808 -317.66 469.808 -317.9 469.816 -318.13 C 471.591 -321.32 474.036 -326.1 476.814 -331.99 C 482.331 -343.77 503.54 -388.67 505.293 -393.61 C 507.116 -398.46 508.055 -403.64 508.954 -406.03 C 509.846 -407.62 512.617 -409.22 515.905 -410.02 C 519.113 -410.73 523.404 -411.13 527.894 -411.04 C 532.591 -410.97 535.569 -409.85 537.097 -408.75 C 538.904 -407.38 539.375 -405.46 539.43 -404.99 L 539.453 -404.83 L 539.446 -404.75 C 539.366 -403.55 535.115 -393.61 534.248 -386.84 C 533.292 -380.32 534.224 -376.98 535.012 -371.09 C 535.425 -367.5 537.057 -364.55 539.311 -360.26 C 548.514 -374.9 562.478 -398.39 563.895 -405.64 C 565.042 -410.97 566.777 -416.15 567.637 -418.37 C 568.537 -419.97 571.308 -421.56 574.595 -422.28 C 577.804 -422.99 582.08 -423.47 586.57 -423.38 C 591.274 -423.23 594.26 -422.19 595.789 -421 C 597.596 -419.64 598.066 -417.74 598.121 -417.34 L 598.145 -417.17 L 598.13 -417.1 C 598.057 -415.9 593.798 -405.88 592.931 -399.19 C 591.983 -392.59 592.915 -389.31 593.686 -383.35 C 594.243 -378.73 597.699 -373.15 601.489 -366.13 C 612.364 -370.92 624.617 -374.1 640.045 -374.34 L 641.956 -374.34 L 641.956 -374.02 L 640.816 -374.02 C 660.469 -373.941 676.22 -367.776 686.651 -358.91 Z M 360.324 -326.65 C 360.189 -326.58 359.966 -326.5 359.697 -326.33 C 356.463 -324.42 353.685 -322.84 351.917 -321.8 C 343.972 -317.09 331.974 -309.38 322.763 -301.1 C 315.264 -294.41 310.956 -286.61 309.308 -279.77 C 308.504 -276.42 308.4 -273.63 308.949 -271.25 C 309.484 -268.94 310.272 -267.5 311.96 -266.7 C 315.199 -264.71 320.7 -264.95 327.326 -267.19 C 334.028 -269.49 341.17 -273.71 347.22 -280.08 C 359.632 -292.82 364.934 -308.5 360.324 -326.65 Z M 449.404 -375.3 C 449.316 -375.7 449.22 -375.61 448.512 -375.61 C 447.684 -375.7 446.785 -375.54 445.463 -375.07 C 442.693 -373.95 439.452 -371.8 436.156 -368.29 C 432.032 -363.92 425.026 -352.61 421.707 -342.98 C 418.41 -333.5 417.511 -324.11 417.98 -316.78 C 418.212 -313.12 418.761 -310.17 419.542 -308.02 C 420.281 -305.96 420.664 -305.08 421.332 -305.16 C 421.483 -304.92 421.404 -305.08 421.945 -305.49 C 422.582 -305.96 423.219 -306.67 424.015 -307.79 C 425.639 -310.02 427.359 -313.35 429.094 -317.09 C 432.597 -324.59 435.957 -333.58 438.146 -338.69 C 440.845 -344.97 451.387 -371.96 449.404 -375.3 Z M 517.187 -307.15 C 519.416 -308.58 521.995 -310.57 524.312 -313.05 C 526.502 -315.35 528.396 -317.9 529.431 -320.83 C 528.309 -319.49 527.241 -318.13 526.279 -317.02 C 524.152 -314.47 520.219 -310.26 517.187 -307.15 Z M 574.499 -318.69 C 577.334 -319.82 580.51 -321.48 583.234 -324.11 C 586.594 -327.37 589.078 -331.67 589.006 -338.52 C 589.109 -340.44 588.934 -340.91 588.654 -342.1 C 583.138 -337.01 580.136 -332.38 578.409 -328.81 C 576.148 -324.19 575.041 -321.24 574.627 -319.34 C 574.571 -319.1 574.532 -318.85 574.499 -318.69 Z"/>
</svg>