<?xml version="1.0" encoding="utf-8"?>
<svg xmlns="http://www.w3.org/2000/svg" height="48" viewBox="0 -960 960 960" width="48">
  <path fill="rgb(255, 255, 255)" d="M 228.5 -55 C 202.467 -55 180.293 -64.157 161.98 -82.47 C 143.66 -100.79 134.5 -122.97 134.5 -149 L 134.5 -811 C 134.5 -837.31 143.66 -859.72 161.98 -878.23 C 180.293 -896.74 202.467 -906 228.5 -906 L 551.5 -906 C 564.54 -906 576.967 -903.33 588.78 -898 C 600.593 -892.67 610.833 -885.67 619.5 -877 L 796.5 -700 C 805.167 -691.33 812.167 -681.09 817.5 -669.28 C 822.833 -657.47 825.5 -645.04 825.5 -632 L 825.5 -564.38 C 825.5 -538.14 804.234 -516.88 778 -516.88 C 751.766 -516.88 730.5 -538.14 730.5 -564.38 L 730.5 -625 L 588.5 -625 C 575.333 -625 564.21 -629.54 555.13 -638.63 C 546.043 -647.71 541.5 -658.83 541.5 -672 L 541.5 -811 L 228.5 -811 L 228.5 -149 L 730.5 -149 L 730.5 -218.8 C 730.5 -245.03 751.766 -266.3 778 -266.3 C 804.234 -266.3 825.5 -245.03 825.5 -218.8 L 825.5 -149 C 825.5 -122.97 816.243 -100.79 797.73 -82.47 C 779.217 -64.157 756.807 -55 730.5 -55 L 228.5 -55 Z M 471.447 -481.31 L 471.447 -425.9 C 474.246 -426.3 478.041 -426.6 483.066 -426.81 C 499.019 -425.95 517.425 -418.35 528.187 -407.98 C 538.508 -397.23 546.11 -378.52 546.98 -362.57 L 546.98 -308.62 C 546.636 -303.36 544.187 -297.1 540.805 -293.71 C 537.425 -290.33 531.161 -287.88 525.906 -287.55 L 515.119 -287.55 C 509.864 -287.88 503.6 -290.33 500.219 -293.71 C 496.837 -297.1 494.39 -303.36 494.046 -308.62 L 494.08 -363.3 C 495.27 -367.05 494.391 -367.04 490.748 -370.57 C 487.677 -373.97 487.355 -373.88 482.759 -373.88 C 478.152 -373.88 477.804 -373.96 474.743 -370.57 C 471.102 -367.04 470.256 -366.33 471.447 -362.57 L 471.447 -308.62 C 471.103 -303.36 468.654 -297.1 465.273 -293.71 C 461.891 -290.33 455.628 -287.88 450.373 -287.55 L 439.587 -287.55 C 434.332 -287.88 428.068 -290.33 424.686 -293.71 C 421.304 -297.1 418.857 -303.36 418.513 -308.62 L 418.513 -481.31 C 418.857 -486.56 421.305 -492.82 424.687 -496.21 C 428.071 -499.59 434.334 -502.03 439.587 -502.38 L 450.373 -502.38 C 455.626 -502.03 461.889 -499.59 465.271 -496.21 C 468.654 -492.82 471.103 -486.56 471.447 -481.31 Z M 472.735 -608.79 C 480.894 -612.91 492.486 -612.91 500.625 -608.78 L 625.286 -536.04 C 631.217 -532.18 636.44 -525.44 638.085 -519.18 C 639.729 -512.92 638.493 -504.48 635.22 -498.18 C 631.366 -492.25 624.634 -487.01 618.373 -485.35 C 612.113 -483.7 603.67 -484.94 597.374 -488.22 L 486.672 -552.81 L 350.07 -473.11 L 350.07 -313.24 L 486.672 -233.53 L 597.38 -298.11 C 603.654 -301.37 612.093 -302.61 618.354 -300.97 C 624.616 -299.33 631.358 -294.09 635.22 -288.14 C 638.492 -281.85 639.729 -273.42 638.085 -267.16 C 636.441 -260.89 631.209 -254.15 625.279 -250.28 L 500.622 -177.57 C 492.484 -173.44 480.879 -173.45 472.72 -177.57 L 308.419 -273.42 C 300.924 -278.41 295.231 -288.29 294.704 -297.33 L 294.704 -489 C 295.231 -498.03 300.939 -507.92 308.435 -512.91 L 472.735 -608.79 Z M 749.925 -467.43 C 756.464 -467.43 764.259 -463.95 768.466 -459.74 C 772.675 -455.53 775.722 -447.73 776.15 -441.21 L 776.15 -418.08 L 799.276 -418.08 C 805.815 -417.65 813.61 -414.61 817.816 -410.39 C 822.025 -406.18 825.5 -398.39 825.5 -391.86 C 825.5 -385.32 822.025 -377.53 817.816 -373.32 C 813.61 -369.11 805.815 -366.06 799.276 -365.64 L 776.15 -365.64 L 776.15 -342.5 C 775.722 -335.96 772.674 -328.17 768.465 -323.96 C 764.255 -319.76 756.461 -316.28 749.925 -316.28 C 743.388 -316.28 735.594 -319.76 731.386 -323.96 C 727.176 -328.17 724.128 -335.96 723.702 -342.5 L 723.702 -365.64 L 693.901 -365.64 L 693.901 -342.5 C 693.473 -335.96 690.424 -328.17 686.216 -323.96 C 682.006 -319.76 674.212 -316.28 667.675 -316.28 C 661.139 -316.28 653.345 -319.76 649.135 -323.96 C 644.926 -328.17 641.878 -335.96 641.45 -342.5 L 641.45 -365.64 L 618.325 -365.64 C 611.786 -366.06 603.992 -369.11 599.784 -373.32 C 595.575 -377.53 592.1 -385.32 592.1 -391.86 C 592.1 -398.39 595.575 -406.18 599.784 -410.39 C 603.992 -414.61 611.786 -417.65 618.325 -418.08 L 641.45 -418.08 L 641.45 -441.21 C 641.878 -447.73 644.925 -455.53 649.134 -459.74 C 653.342 -463.95 661.136 -467.43 667.675 -467.43 C 674.215 -467.43 682.01 -463.95 686.217 -459.74 C 690.426 -455.53 693.473 -447.73 693.901 -441.21 L 693.901 -418.08 L 723.702 -418.08 L 723.702 -441.21 C 724.128 -447.73 727.176 -455.53 731.383 -459.74 C 735.592 -463.95 743.385 -467.43 749.925 -467.43 Z"/>
</svg>