<?xml version="1.0" encoding="utf-8"?>
<svg xmlns="http://www.w3.org/2000/svg" height="48" viewBox="0 -960 960 960" width="48">
  <path fill="rgb(255, 255, 255)" d="M 229 -55 C 202.967 -55 180.793 -64.157 162.48 -82.47 C 144.16 -100.79 135 -122.967 135 -149 L 135 -811 C 135 -837.307 144.16 -859.717 162.48 -878.23 C 180.793 -896.743 202.967 -906 229 -906 L 552 -906 C 565.04 -906 577.467 -903.333 589.28 -898 C 601.093 -892.667 611.333 -885.667 620 -877 L 797 -700 C 805.667 -691.333 812.667 -681.093 818 -669.28 C 823.333 -657.467 826 -645.04 826 -632 L 826 -149 C 826 -122.967 816.743 -100.79 798.23 -82.47 C 779.717 -64.157 757.307 -55 731 -55 Z M 542 -672 L 542 -811 L 229 -811 L 229 -149 L 731 -149 L 731 -625 L 589 -625 C 575.833 -625 564.71 -629.543 555.63 -638.63 C 546.543 -647.71 542 -658.833 542 -672 Z M 370.556 -461.55 L 413.476 -461.55 L 413.476 -504.95 L 370.556 -504.95 Z M 546.048 -461.55 L 588.967 -461.55 L 588.967 -504.95 L 546.048 -504.95 Z M 265.089 -254.59 L 265.089 -428.64 C 265.508 -440 270.287 -452 277.745 -460.36 C 286.018 -468.15 298.205 -473.12 309.993 -473.55 L 313.73 -473.55 L 313.73 -516.39 C 314.176 -528.1 319.197 -540.34 327.06 -548.89 C 335.615 -556.8 347.877 -561.81 359.589 -562.25 L 424.921 -562.25 C 436.578 -561.81 448.819 -556.8 457.388 -548.91 C 465.273 -540.36 470.327 -528.11 470.779 -516.39 L 470.779 -473.55 L 489.221 -473.55 L 489.221 -516.39 C 489.666 -528.1 494.686 -540.34 502.551 -548.89 C 511.106 -556.8 523.368 -561.81 535.08 -562.25 L 600.413 -562.25 C 612.07 -561.81 624.31 -556.8 632.879 -548.91 C 640.764 -540.36 645.818 -528.11 646.27 -516.39 L 646.27 -473.55 L 650.008 -473.55 C 661.391 -473.11 673.41 -468.21 681.802 -460.5 C 689.503 -452.14 694.464 -440.07 694.911 -428.64 L 694.911 -254.59 C 694.459 -242.86 689.384 -230.61 681.485 -222.14 C 672.974 -214.28 660.771 -209.19 649.054 -208.73 L 310.948 -208.73 C 299.177 -209.19 286.95 -214.28 278.454 -222.16 C 270.574 -230.64 265.534 -242.88 265.089 -254.59 Z M 333.915 -277.56 L 625.608 -277.56 L 625.608 -404.72 L 333.915 -404.72 Z"/>
</svg>