<?xml version="1.0" encoding="utf-8"?>
<svg xmlns="http://www.w3.org/2000/svg" height="48" viewBox="0 -960 960 960" width="48">
  <path fill="rgb(255, 255, 255)" d="M 229 -55 C 202.967 -55 180.793 -64.157 162.48 -82.47 C 144.16 -100.79 135 -122.967 135 -149 L 135 -811 C 135 -837.307 144.16 -859.717 162.48 -878.23 C 180.793 -896.743 202.967 -906 229 -906 L 552 -906 C 565.04 -906 577.467 -903.333 589.28 -898 C 601.093 -892.667 611.333 -885.667 620 -877 L 797 -700 C 805.667 -691.333 812.667 -681.093 818 -669.28 C 823.333 -657.467 826 -645.04 826 -632 L 826 -149 C 826 -122.967 816.743 -100.79 798.23 -82.47 C 779.717 -64.157 757.307 -55 731 -55 L 229 -55 Z M 542 -811 L 229 -811 L 229 -685.769 L 542 -685.769 L 542 -811 Z M 229 -149 L 358.551 -149 L 358.551 -357.91 L 229 -357.91 L 229 -149 Z M 731 -149 L 731 -357.91 L 607.135 -357.91 L 607.135 -149 L 731 -149 Z M 607.135 -621.769 L 607.135 -421.9 L 731 -421.9 L 731 -621.769 L 607.135 -621.769 Z M 543.139 -357.91 L 422.548 -357.91 L 422.548 -149 L 543.139 -149 L 543.139 -357.91 Z M 358.551 -421.9 L 358.551 -621.769 L 229 -621.769 L 229 -421.9 L 358.551 -421.9 Z M 422.548 -421.9 L 543.139 -421.9 L 543.139 -621.769 L 422.548 -621.769 L 422.548 -421.9 Z"/>
</svg>