<?xml version="1.0" encoding="utf-8"?>
<svg xmlns="http://www.w3.org/2000/svg" height="48" viewBox="0 -960 960 960" width="48">
  <path fill="rgb(255, 255, 255)" d="M 223.004 -861.34 C 223.004 -875.51 228.247 -887.7 238.716 -898.08 C 249.181 -908.21 261.347 -913.27 275.21 -913.27 C 289.427 -913.27 301.589 -908.21 311.729 -898.08 C 321.785 -887.75 326.855 -875.64 326.91 -861.57 L 447.409 -861.57 C 447.466 -875.64 452.713 -887.75 463.122 -898.08 C 473.59 -908.21 485.753 -913.27 499.615 -913.27 C 513.832 -913.27 525.998 -908.21 536.135 -898.08 C 546.202 -887.74 551.271 -875.61 551.315 -861.52 C 562.763 -861.16 573.71 -858.62 584.156 -853.91 C 595.467 -848.8 605.272 -842.1 613.571 -833.8 L 783.049 -664.32 C 791.348 -656.02 798.05 -646.22 803.157 -634.9 C 808.263 -623.59 810.817 -611.7 810.817 -599.21 L 810.817 -136.73 C 810.817 -111.81 801.953 -90.574 784.227 -73.033 C 766.5 -55.498 745.043 -46.73 719.854 -46.73 L 239.187 -46.73 C 214.26 -46.73 193.029 -55.498 175.494 -73.033 C 157.952 -90.574 149.182 -111.81 149.182 -136.73 L 149.182 -770.6 C 149.182 -795.79 157.952 -817.25 175.494 -834.98 C 189.104 -848.73 204.941 -857.15 223.004 -860.23 Z M 538.886 -770.6 L 239.187 -770.6 L 239.187 -685.327 L 538.886 -685.327 Z M 239.187 -136.73 L 719.854 -136.73 L 719.854 -592.51 L 239.187 -592.024 Z M 350.933 -239.26 L 607.597 -239.26 L 607.597 -250.92 C 607.597 -256.03 605.97 -261.05 602.74 -265.86 C 599.498 -270.57 595.49 -274.15 590.725 -276.48 C 570.273 -286.1 551.437 -292.66 534.227 -296.22 C 517.008 -299.8 498.693 -301.65 479.265 -301.65 C 460.173 -301.65 441.685 -299.8 423.791 -296.22 C 405.895 -292.66 387.06 -286.1 367.293 -276.48 C 362.519 -274.15 358.602 -270.57 355.534 -265.86 C 352.466 -261.05 350.933 -256.03 350.933 -250.92 Z M 479.265 -429.46 C 491.188 -429.46 501.077 -433.35 508.919 -441.22 C 516.752 -448.99 520.679 -458.92 520.679 -470.77 C 520.679 -483.15 516.752 -493.07 508.919 -500.74 C 501.077 -508.41 491.188 -512.3 479.265 -512.3 C 467.331 -512.3 457.443 -508.41 449.61 -500.74 C 441.768 -493.07 437.851 -483.15 437.851 -470.77 C 437.851 -458.92 441.768 -448.99 449.61 -441.22 C 457.443 -433.35 467.331 -429.46 479.265 -429.46 Z M 479.265 -373.64 C 451.622 -373.64 427.443 -383.42 409.424 -401.05 C 391.856 -419.03 382.13 -443.21 382.13 -470.77 C 382.13 -498.44 391.866 -522.63 409.431 -540.72 C 427.458 -558.25 451.638 -567.91 479.265 -567.91 C 506.876 -567.91 531.15 -558.25 549.34 -540.73 C 567.078 -522.65 576.911 -498.45 576.911 -470.77 C 576.911 -443.2 567.073 -419.01 549.333 -401.02 C 531.15 -383.4 506.891 -373.64 479.265 -373.64 Z M 607.597 -183.44 L 350.933 -183.44 C 335.833 -183.73 321.683 -189.58 311.199 -199.86 C 301.185 -210.51 295.493 -224.54 295.212 -239.26 L 295.212 -253.07 C 295.371 -269.09 299.958 -284.44 308.311 -296.98 C 316.816 -309.17 328.549 -319.14 341.667 -325.51 C 365.498 -336.17 388.916 -344.26 411.252 -349.68 C 433.681 -355.08 456.648 -357.87 479.265 -357.87 C 502.234 -357.87 525.309 -354.97 547.591 -349.36 C 569.728 -343.84 592.75 -335.91 616.227 -325.56 C 630.074 -319.5 642.133 -309.75 650.732 -297.48 C 659.077 -284.95 663.671 -269.5 663.828 -253.07 L 663.828 -239.26 C 663.537 -224.51 657.725 -210.46 647.535 -199.81 C 636.894 -189.55 622.676 -183.73 607.597 -183.44 Z M 276.644 -708.74 C 271.791 -713.62 269.365 -719.97 269.365 -728.12 C 269.365 -735.9 271.918 -742.24 276.971 -747.31 C 282.024 -752.02 288.29 -754.37 295.769 -754.37 L 482.057 -754.37 C 489.934 -754.37 496.31 -752.02 501.163 -747.31 C 506.017 -742.6 508.444 -736.08 508.444 -728.12 C 508.444 -720.32 505.908 -713.99 500.855 -708.92 C 495.803 -704.21 489.536 -701.67 482.057 -701.67 L 295.769 -701.67 C 287.874 -701.67 281.498 -704.21 276.644 -708.74 Z"/>
</svg>