<svg clip-rule="evenodd" fill-rule="evenodd" stroke-linejoin="round" stroke-miterlimit="2" viewBox="0 0 250 250" xmlns="http://www.w3.org/2000/svg">
  <defs>
    <style type="text/css" id="current-color-scheme">.ColorScheme-Background { color:#000000; } .ColorScheme-Highlight { color:#ffffff; }</style>
  </defs><path class="ColorScheme-Background" fill="currentColor" d="m314-65-60-103-120-25c-12-2-21.667-8.043-29-18.13-7.333-10.08-10.333-21.037-9-32.87l14-115.7-76-89.3c-8-8.927-12-19.327-12-31.2 0-11.867 4-22.133 12-30.8l76-88.3-14-115.7c-1.333-11.833 1.667-22.793 9-32.88 7.333-10.08 17-16.453 29-19.12l120.31-24.2 59.69-103.8c5.92-9.707 14.727-16.8 26.42-21.28s23.22-4.053 34.58 1.28l105 49 105-49c11.333-4.667 22.853-5.107 34.56-1.32 11.7 3.787 20.513 10.56 26.44 20.32l60.69 104.8 119.31 24.2c12 2.667 21.667 9.04 29 19.12 7.333 10.087 10.333 21.047 9 32.88l-14 115.7 76 88.3c8 8.927 12 19.327 12 31.2 0 11.867-4 22.133-12 30.8l-76 89.3 14 115.7c1.333 11.833-1.667 22.79-9 32.87-7.333 10.087-17 16.13-29 18.13l-119 25-61 104c-5.927 9.76-14.74 16.533-26.44 20.32-11.707 3.787-23.227 3.347-34.56-1.32l-105-49-105 49c-11.333 4.667-22.853 4.94-34.56.82-11.7-4.12-20.513-11.06-26.44-20.82zm117.936-368.502-76.104-80.58c-8.393-8.953-18.324-13.43-29.792-13.43-11.475 0-21.689 3.731-30.642 11.192-8.954 9.334-13.43 19.69-13.43 31.068 0 11.371 4.476 21.533 13.43 30.486l98.486 97.367c10.714 11.192 23.465 16.788 38.253 16.788s27.405-5.596 37.85-16.788l194.735-193.615c8.207-7.461 12.31-17.161 12.31-29.098 0-11.938-4.476-22.011-13.43-30.218-8.207-6.715-17.906-9.886-29.098-9.513-11.191.373-20.145 4.29-26.86 11.752z" transform="matrix(.261188 0 0 .261188 -.37 250.275)"/><path d="m437-441-68-72c-7.5-8-16.373-12-26.62-12-10.253 0-19.38 3.333-27.38 10-8 8.34-12 17.593-12 27.76 0 10.16 4 19.24 12 27.24l88 87c9.573 10 20.967 15 34.18 15s24.487-5 33.82-15l174-173c7.333-6.667 11-15.333 11-26s-4-19.667-12-27c-7.333-6-16-8.833-26-8.5s-18 3.833-24 10.5z" fill="rgb(255, 255, 255)" transform="matrix(.292312 0 0 .292312 -15.294 265.959)"/></svg>