<svg clip-rule="evenodd" fill-rule="evenodd" stroke-linejoin="round" stroke-miterlimit="2" viewBox="0 0 250 250" xmlns="http://www.w3.org/2000/svg">
  <defs>
    <style type="text/css" id="current-color-scheme">.ColorScheme-Background { color:#000000; } .ColorScheme-Highlight { color:#ffffff; }</style>
  </defs><g transform="matrix(.591181 0 0 .591181 -308.396 266.134)"><path class="ColorScheme-Background" fill="currentColor" d="m733.5-433c53.34 0 98.927 19.08 136.76 57.24 37.827 38.167 56.74 83.92 56.74 137.26s-18.913 98.923-56.74 136.75c-37.833 37.833-83.587 56.75-137.26 56.75-53.007 0-98.593-18.917-136.76-56.75-38.16-37.827-57.24-83.577-57.24-137.25 0-53.007 19.08-98.593 57.24-136.76 38.167-38.16 83.92-57.24 137.26-57.24zm-27.5 213-41-41c-4.733-4.667-10.65-7-17.75-7s-12.85 2.51-17.25 7.53c-5.333 4.76-8 10.707-8 17.84s2.667 13.01 8 17.63l43 43c9.633 10 20.877 15 33.73 15 12.847 0 23.937-5 33.27-15l97-98c5.333-4.733 8-10.65 8-17.75s-2.667-13.017-8-17.75c-4.733-5-10.65-7.5-17.75-7.5s-12.85 2.333-17.25 7z"/><path d="m706-220-41-41c-4.733-4.667-10.65-7-17.75-7s-12.85 2.51-17.25 7.53c-5.333 4.76-8 10.707-8 17.84s2.667 13.01 8 17.63l43 43c9.633 10 20.877 15 33.73 15 12.847 0 23.937-5 33.27-15l97-98c5.333-4.733 8-10.65 8-17.75s-2.667-13.017-8-17.75c-4.733-5-10.65-7.5-17.75-7.5s-12.85 2.333-17.25 7z" fill="rgb(255, 255, 255)"/></g></svg>