<svg clip-rule="evenodd" fill-rule="evenodd" stroke-linejoin="round" stroke-miterlimit="2" viewBox="0 0 250 250" xmlns="http://www.w3.org/2000/svg">
  <defs>
    <style type="text/css" id="current-color-scheme">.ColorScheme-Background { color:#000000; } .ColorScheme-Highlight { color:#ffffff; }</style>
  </defs><path class="ColorScheme-Background" fill="currentColor" d="m217-126c-52 0-96.667-18.467-134-55.4s-56-81.6-56-134 18.667-97.267 56-134.6 82-56 134-56c51.333 0 95.833 18.623 133.5 55.87 37.667 37.24 56.5 82.283 56.5 135.13 0 52.287-18.833 96.86-56.5 133.72-37.667 36.853-82.167 55.28-133.5 55.28zm.199-278.17c-25.118 0-48.48 5.876-70.085 17.628-21.602 11.752-38.898 27.989-51.887 48.709-2.165 3.093-3.711 6.513-4.639 10.262-.927 3.745-1.391 7.635-1.391 11.671s.541 7.806 1.623 11.31c1.083 3.507 2.706 6.962 4.871 10.363 13.299 20.103 30.617 36.107 51.957 48.014 21.339 11.906 44.6 17.86 69.783 17.86 24.844 0 47.953-5.954 69.33-17.86 21.376-11.907 38.559-27.911 51.548-48.014 2.165-3.652 3.788-7.457 4.871-11.416 1.082-3.959 1.623-7.673 1.623-11.143 0-4.091-.464-7.849-1.391-11.273-.928-3.423-2.629-6.681-5.103-9.774-12.989-20.411-30.242-36.57-51.757-48.477-21.516-11.907-44.633-17.86-69.353-17.86zm-.06 37.112c17.873 0 34.882 4.561 51.029 13.685 16.143 9.123 29.937 21.571 41.379 37.343-11.442 15.464-25.205 27.834-41.286 37.112-16.082 9.278-33.061 13.917-50.936 13.917-17.873 0-34.959-4.639-51.261-13.917-16.298-9.278-30.323-21.648-42.075-37.112 11.752-15.772 25.746-28.22 41.982-37.343 16.237-9.124 33.293-13.685 51.168-13.685zm-.139 24.122c-7.577 0-13.917 2.552-19.02 7.655-5.103 5.102-7.654 11.52-7.654 19.251 0 7.345 2.551 13.589 7.654 18.732 5.103 5.14 11.52 7.71 19.252 7.71 7.345 0 13.587-2.551 18.727-7.654 5.143-5.103 7.715-11.443 7.715-19.02s-2.551-13.917-7.654-19.019c-5.103-5.103-11.443-7.655-19.02-7.655z" transform="matrix(-.603626 -0 0 -.603626 255.926 -65.9039)"/><path d="m662.2-90c38.533 0 75.3-9.833 110.3-29.5s65.167-46.5 90.5-80.5c-25.333-33.333-55.567-60-90.7-80-35.14-20-71.973-30-110.5-30-38.533 0-75.133 10-109.8 30s-64.333 46.667-89 80c24.667 34 54.4 60.833 89.2 80.5 34.807 19.667 71.473 29.5 110 29.5zm.3-52c-16.333 0-30-5.5-41-16.5s-16.5-24.667-16.5-41 5.543-30 16.63-41c11.08-11 24.537-16.5 40.37-16.5 16.667 0 30.5 5.54 41.5 16.62 11 11.087 16.5 24.547 16.5 40.38 0 16.667-5.5 30.5-16.5 41.5s-24.667 16.5-41 16.5zm-.43 132c-53.287 0-103.12-12.833-149.5-38.5s-83.57-60.5-111.57-104.5c-5.333-6.667-9-13.69-11-21.07s-3-15.48-3-24.3c0-7.48 1.167-15.487 3.5-24.02s5.833-16.737 10.5-24.61c28-43.333 65.04-77.833 111.12-103.5s95.897-38.5 149.45-38.5c54.287 0 104.43 12.833 150.43 38.5s83.333 60.167 112 103.5c4.667 7.333 8.167 14.78 10.5 22.34 2.333 7.553 3.5 15.68 3.5 24.38s-1 17.087-3 25.16c-2 8.08-5.333 15.453-10 22.12-28 44.667-65.283 79.667-111.85 105-46.573 25.333-96.933 38-151.08 38z" fill="rgb(255, 255, 255)" fill-rule="nonzero" transform="matrix(.28002 0 0 .28002 -60.5743 180.864)"/></svg>