<svg clip-rule="evenodd" fill-rule="evenodd" stroke-linejoin="round" stroke-miterlimit="2" viewBox="0 0 250 250" xmlns="http://www.w3.org/2000/svg">
  <defs>
    <style type="text/css" id="current-color-scheme">.ColorScheme-Background { color:#000000; } .ColorScheme-Highlight { color:#ffffff; }</style>
  </defs><path class="ColorScheme-Background" fill="currentColor" d="m217-126c-52 0-96.667-18.467-134-55.4s-56-81.6-56-134 18.667-97.267 56-134.6 82-56 134-56c51.333 0 95.833 18.623 133.5 55.87 37.667 37.24 56.5 82.283 56.5 135.13 0 52.287-18.833 96.86-56.5 133.72-37.667 36.853-82.167 55.28-133.5 55.28zm66.125-275.651h-28.116v-.521c0-3.428-1.183-6.323-3.549-8.687-2.363-2.366-5.259-3.549-8.687-3.549h-51.546c-3.428 0-6.324 1.172-8.69 3.515-2.364 2.343-3.546 5.234-3.546 8.674v.568h-28.116v-1.823c0-3.08-1.041-5.672-3.124-7.776-2.083-2.105-4.67-3.158-7.763-3.158-3.159 0-5.735.993-7.729 2.979-1.994 1.985-2.992 4.55-2.992 7.695v174.945c0 3.146.998 5.711 2.994 7.695 1.996 1.986 4.541 2.978 7.633 2.978 3.095 0 5.698-.981 7.81-2.944 2.114-1.963 3.171-4.524 3.171-7.683v-1.869h28.116v.261c0 3.427 1.182 6.324 3.546 8.69 2.366 2.363 5.262 3.545 8.69 3.545h51.546c3.428 0 6.324-1.171 8.687-3.514 2.366-2.343 3.549-5.235 3.549-8.675v-.307h28.116v1.823c0 3.146.998 5.711 2.994 7.695 1.996 1.986 4.54 2.978 7.633 2.978 3.094 0 5.698-.992 7.81-2.978 2.114-1.984 3.171-4.549 3.171-7.695v-174.685c0-3.08-1.042-5.672-3.124-7.776-2.083-2.105-4.671-3.158-7.764-3.158-3.158 0-5.735.982-7.729 2.945-1.994 1.964-2.991 4.525-2.991 7.682zm-104.134 21.347v28.377h-28.116v-28.377zm104.134 99.708v28.377h-28.116v-28.377zm-104.134-49.724v28.116h-28.116v-28.116zm104.134-49.984v28.377h-28.116v-28.377zm0 49.984v28.116h-28.116v-28.116zm-104.134 49.724v28.377h-28.116v-28.377zm21.608 40.873v-153.077h32.802v153.077z" transform="matrix(-.603626 -0 0 -.603626 255.926 -65.9039)"/><path d="m226-152v8.18c0 12.127-3.83 21.963-11.49 29.51-7.66 7.54-17.557 11.31-29.69 11.31-11.88 0-21.82-4.043-29.82-12.13-8-8.08-12-18.037-12-29.87v-671c0-12.087 4.06-21.94 12.18-29.56 8.113-7.627 18.113-11.44 30-11.44 11.88 0 21.653 3.813 29.32 11.44 7.667 7.62 11.5 17.473 11.5 29.56v7h108v-1.18c0-13.213 4.543-24.32 13.63-33.32 9.08-9 20.203-13.5 33.37-13.5h198c13.167 0 24.293 4.54 33.38 13.62 9.08 9.087 13.62 20.213 13.62 33.38v1h108v-7.18c0-12.133 4.06-21.97 12.18-29.51 8.113-7.54 18.113-11.31 30-11.31 11.88 0 21.653 3.813 29.32 11.44 7.667 7.62 11.5 17.473 11.5 29.56v672c0 12.08-3.83 21.933-11.49 29.56s-17.557 11.44-29.69 11.44c-11.88 0-21.82-4.043-29.82-12.13-8-8.08-12-18.037-12-29.87v-7h-108v2.18c0 13.213-4.54 24.32-13.62 33.32-9.087 9-20.213 13.5-33.38 13.5h-198c-13.167 0-24.29-4.543-33.37-13.63-9.087-9.08-13.63-20.203-13.63-33.37v-2zm0-82h108v-109h-108zm0-192h108v-108h-108zm0-191h108v-109h-108zm400 383h108v-109h-108zm0-192h108v-108h-108zm0-191h108v-109h-108zm-209 431h126v-588h-126zm0-588h126z" fill="rgb(255, 255, 255)" fill-rule="nonzero" transform="matrix(.157144 0 0 .157144 49.5096 200.429)"/></svg>