<svg clip-rule="evenodd" fill-rule="evenodd" stroke-linejoin="round" stroke-miterlimit="2" viewBox="0 0 250 250" xmlns="http://www.w3.org/2000/svg">
  <defs>
    <style type="text/css" id="current-color-scheme">.ColorScheme-Background { color:#000000; } .ColorScheme-Highlight { color:#ffffff; }</style>
  </defs><g transform="matrix(.611213 0 0 .611213 -298.575 288.805)"><path class="ColorScheme-Background" fill="currentColor" d="m692.5-80c-51.667 0-95.833-18.5-132.5-55.5s-55-80.833-55-131.5c0-52.287 18.33-96.86 54.99-133.72 36.66-36.853 80.997-55.28 133.01-55.28 51.333 0 95.5 18.427 132.5 55.28 37 36.86 55.5 81.433 55.5 133.72 0 50.667-18.5 94.5-55.5 131.5s-81.333 55.5-133 55.5zm-72.5-159h149.81c7.727 0 14.19-2.813 19.39-8.44 5.2-5.633 7.8-12.2 7.8-19.7 0-7.507-2.6-13.86-7.8-19.06s-11.673-7.8-19.42-7.8h-150.56c-7.747 0-14.22 2.6-19.42 7.8s-7.8 11.553-7.8 19.06c0 7.5 2.8 14.067 8.4 19.7 5.6 5.627 12.133 8.44 19.6 8.44z"/><path d="m620-239h149.81c7.727 0 14.19-2.813 19.39-8.44 5.2-5.633 7.8-12.2 7.8-19.7 0-7.507-2.6-13.86-7.8-19.06s-11.673-7.8-19.42-7.8h-150.56c-7.747 0-14.22 2.6-19.42 7.8s-7.8 11.553-7.8 19.06c0 7.5 2.8 14.067 8.4 19.7 5.6 5.627 12.133 8.44 19.6 8.44z" fill="rgb(255, 255, 255)"/></g></svg>