<svg clip-rule="evenodd" fill-rule="evenodd" stroke-linejoin="round" stroke-miterlimit="2" viewBox="0 0 250 250" xmlns="http://www.w3.org/2000/svg">
  <defs>
    <style type="text/css" id="current-color-scheme">.ColorScheme-Background { color:#000000; } .ColorScheme-Highlight { color:#ffffff; }</style>
  </defs><path class="ColorScheme-Background" fill="currentColor" d="m217-126c-52 0-96.667-18.467-134-55.4s-56-81.6-56-134 18.667-97.267 56-134.6 82-56 134-56c51.333 0 95.833 18.623 133.5 55.87 37.667 37.24 56.5 82.283 56.5 135.13 0 52.287-18.833 96.86-56.5 133.72-37.667 36.853-82.167 55.28-133.5 55.28zm65.055-300.235h-130.054c-6.815 0-12.621 2.372-17.417 7.116-4.796 4.747-7.195 10.492-7.195 17.237v125.131c0 3.379.691 6.598 2.073 9.659 1.382 3.06 3.195 5.713 5.44 7.958l45.856 45.856c2.246 2.245 4.898 4.059 7.959 5.441 3.06 1.381 6.28 2.072 9.658 2.072h83.68c6.745 0 12.489-2.398 17.234-7.194 4.746-4.797 7.119-10.602 7.119-17.418v-171.505c0-6.745-2.373-12.49-7.119-17.237-4.745-4.744-10.489-7.116-17.234-7.116zm0 195.858h-87.307v-23.575c0-5.009-1.813-9.327-5.44-12.954s-7.945-5.44-12.954-5.44h-24.353v-129.536h130.054zm-35.233-150.78h-28.498c-2.643 0-4.858.862-6.645 2.586-1.788 1.722-2.682 3.984-2.682 6.788 0 2.801.857 5.048 2.57 6.741 1.715 1.692 3.967 2.539 6.757 2.539h28.498c2.642 0 4.857-.862 6.645-2.586 1.787-1.722 2.681-3.985 2.681-6.788 0-2.801-.856-5.048-2.57-6.741-1.715-1.692-3.967-2.539-6.756-2.539zm0 68.395h-59.587c-2.642 0-4.858.862-6.645 2.586-1.788 1.722-2.682 3.984-2.682 6.788 0 2.801.857 5.048 2.57 6.741 1.716 1.692 3.968 2.539 6.757 2.539h59.587c2.642 0 4.857-.862 6.645-2.586 1.787-1.722 2.681-3.984 2.681-6.788 0-2.801-.856-5.048-2.57-6.741-1.715-1.692-3.967-2.539-6.756-2.539zm0-34.197h-59.587c-2.642 0-4.858.862-6.645 2.585-1.788 1.722-2.682 3.985-2.682 6.788 0 2.802.857 5.049 2.57 6.741 1.716 1.693 3.968 2.539 6.757 2.539h59.587c2.642 0 4.857-.862 6.645-2.585 1.787-1.722 2.681-3.985 2.681-6.788 0-2.802-.856-5.049-2.57-6.741-1.715-1.693-3.967-2.539-6.756-2.539z" transform="matrix(-.603626 -0 0 -.603626 255.926 -65.9039)"/><path d="m365-493h230c10.2 0 18.75-3.327 25.65-9.98 6.9-6.647 10.35-15.38 10.35-26.2 0-10.813-3.307-19.487-9.92-26.02-6.62-6.533-15.313-9.8-26.08-9.8h-230c-10.2 0-18.75 3.327-25.65 9.98-6.9 6.647-10.35 15.38-10.35 26.2 0 10.813 3.307 19.487 9.92 26.02 6.62 6.533 15.313 9.8 26.08 9.8zm0 132h230c10.2 0 18.75-3.327 25.65-9.98 6.9-6.647 10.35-15.38 10.35-26.2 0-10.813-3.307-19.487-9.92-26.02-6.62-6.533-15.313-9.8-26.08-9.8h-230c-10.2 0-18.75 3.327-25.65 9.98-6.9 6.647-10.35 15.38-10.35 26.2 0 10.813 3.307 19.487 9.92 26.02 6.62 6.533 15.313 9.8 26.08 9.8zm0 132h110c10.2 0 18.75-3.327 25.65-9.98 6.9-6.647 10.35-15.38 10.35-26.2 0-10.813-3.307-19.487-9.92-26.02-6.62-6.533-15.313-9.8-26.08-9.8h-110c-10.2 0-18.75 3.327-25.65 9.98-6.9 6.647-10.35 15.38-10.35 26.2 0 10.813 3.307 19.487 9.92 26.02 6.62 6.533 15.313 9.8 26.08 9.8zm-136 174c-26.033 0-48.207-9.157-66.52-27.47-18.32-18.32-27.48-40.497-27.48-66.53v-662c0-26.307 9.16-48.717 27.48-67.23 18.313-18.513 40.487-27.77 66.52-27.77h323c13.04 0 25.467 2.667 37.28 8s22.053 12.333 30.72 21l177 177c8.667 8.667 15.667 18.907 21 30.72s8 24.24 8 37.28v483c0 26.033-9.257 48.21-27.77 66.53-18.513 18.313-40.923 27.47-67.23 27.47zm502-594h-94c-19.333 0-36-7-50-21s-21-30.667-21-50v-91h-337v662h502zm-502-162v162-162 662z" fill="rgb(255, 255, 255)" fill-rule="nonzero" transform="matrix(.156383 0 0 .156383 49.858 199.984)"/></svg>