<svg clip-rule="evenodd" fill-rule="evenodd" stroke-linejoin="round" stroke-miterlimit="2" viewBox="0 0 250 250" xmlns="http://www.w3.org/2000/svg">
  <defs>
    <style type="text/css" id="current-color-scheme">.ColorScheme-Background { color:#000000; } .ColorScheme-Highlight { color:#ffffff; }</style>
  </defs><path class="ColorScheme-Background" fill="currentColor" d="m217-126c-52 0-96.667-18.467-134-55.4s-56-81.6-56-134 18.667-97.267 56-134.6 82-56 134-56c51.333 0 95.833 18.623 133.5 55.87 37.667 37.24 56.5 82.283 56.5 135.13 0 52.287-18.833 96.86-56.5 133.72-37.667 36.853-82.167 55.28-133.5 55.28zm-62.308-156.181c2.079 0 4.074.826 5.544 2.296 1.471 1.47 2.296 3.464 2.296 5.543v21.435c0 14.909 5.315 27.698 15.944 38.365 10.63 10.668 23.411 16.002 38.344 16.002h.157c14.934 0 27.715-5.334 38.344-16.002 10.629-10.667 15.944-23.456 15.944-38.365v-21.435c0-2.079.826-4.073 2.296-5.543s3.466-2.296 5.545-2.296c6.301 0 11.536-2.084 15.704-6.252s6.252-9.403 6.252-15.704v-82.595c0-6.3-2.084-11.535-6.252-15.703s-9.403-6.252-15.704-6.252h-124.415c-6.301 0-11.535 2.084-15.703 6.252s-6.252 9.403-6.252 15.703v82.595c0 6.301 2.084 11.536 6.252 15.704s9.403 6.252 15.704 6.252zm73.304 0c2.464 0 4.827.979 6.569 2.721 1.742 1.743 2.721 4.106 2.721 6.57v19.983c0 5.775-1.955 10.617-5.865 14.528-3.906 3.902-8.743 5.855-14.512 5.86h-.021c-5.769-.005-10.606-1.958-14.511-5.86-3.91-3.911-5.866-8.753-5.866-14.528v-19.983c0-2.464.979-4.827 2.722-6.57 1.742-1.742 4.105-2.721 6.569-2.721z" transform="matrix(-.603626 -0 0 -.603626 255.926 -65.9039)"/><path d="m598.999-566c12.053 0 22.068 3.987 30.041 11.96s11.96 17.987 11.96 30.04v158c0 12.053-3.987 22.067-11.96 30.04s-17.987 11.96-30.04 11.96h-238c-12.053 0-22.067-3.987-30.04-11.96s-11.96-17.987-11.96-30.04v-158c0-12.053 3.987-22.067 11.96-30.04s17.988-11.96 30.041-11.96c3.977 0 7.794-1.58 10.607-4.392 2.812-2.813 4.392-6.627 4.392-10.604v-41.003c0-28.52 10.167-52.984 30.5-73.391s44.783-30.61 73.35-30.61h.3c28.567 0 53.017 10.203 73.35 30.61s30.5 44.871 30.5 73.391v41.003c0 3.977 1.58 7.791 4.392 10.604 2.813 2.812 6.63 4.392 10.607 4.392zm-140.227 0h42.456c4.713 0 9.234-1.872 12.567-5.205s5.205-7.854 5.205-12.567v-38.227c0-11.047-3.74-20.311-11.22-27.791-7.471-7.464-16.724-11.201-27.76-11.21h-.04c-11.036.009-20.289 3.746-27.76 11.21-7.48 7.48-11.22 16.744-11.22 27.791v38.227c0 4.713 1.872 9.234 5.205 12.567s7.854 5.205 12.567 5.205z" fill="rgb(255, 255, 255)" transform="matrix(.315548 0 0 .315548 -26.4629 283.028)"/></svg>