<svg clip-rule="evenodd" fill-rule="evenodd" stroke-linejoin="round" stroke-miterlimit="2" viewBox="0 0 250 250" xmlns="http://www.w3.org/2000/svg">
  <defs>
    <style type="text/css" id="current-color-scheme">.ColorScheme-Background { color:#000000; } .ColorScheme-Highlight { color:#ffffff; }</style>
  </defs><path class="ColorScheme-Background" fill="currentColor" d="m217-126c-52 0-96.667-18.467-134-55.4s-56-81.6-56-134 18.667-97.267 56-134.6 82-56 134-56c51.333 0 95.833 18.623 133.5 55.87 37.667 37.24 56.5 82.283 56.5 135.13 0 52.287-18.833 96.86-56.5 133.72-37.667 36.853-82.167 55.28-133.5 55.28zm-85.825-210.289c-7.539 4.87-11.309 11.63-11.309 20.282s3.77 15.417 11.309 20.296l115.745 74.502c7.982 5.322 16.075 5.721 24.279 1.197 8.205-4.523 12.307-11.574 12.307-21.153v-149.67c0-9.579-4.102-16.63-12.307-21.153-8.204-4.524-16.297-4.125-24.279 1.197z" transform="matrix(-.603626 -0 0 -.603626 255.926 -65.9039)"/><path d="m655-527c11.333-7.32 17-17.483 17-30.49s-5.667-23.177-17-30.51l-174-112c-12-8-24.167-8.6-36.5-1.8s-18.5 17.4-18.5 31.8v225c0 14.4 6.167 25 18.5 31.8s24.5 6.2 36.5-1.8z" fill="rgb(255, 255, 255)" fill-rule="nonzero" transform="matrix(.401532 0 0 .401532 -86.2584 348.696)"/></svg>