<svg clip-rule="evenodd" fill-rule="evenodd" stroke-linejoin="round" stroke-miterlimit="2" viewBox="0 0 250 250" xmlns="http://www.w3.org/2000/svg">
  <defs>
    <style type="text/css" id="current-color-scheme">.ColorScheme-Background { color:#000000; } .ColorScheme-Highlight { color:#ffffff; }</style>
  </defs><path class="ColorScheme-Background" fill="currentColor" d="m480.14-55c-58.76 0-113.97-11.027-165.63-33.08-51.653-22.06-96.79-52.4-135.41-91.02s-68.96-83.71-91.02-135.27c-22.053-51.567-33.08-106.73-33.08-165.49 0-59.427 11.027-114.97 33.08-166.63 22.06-51.653 52.347-96.643 90.86-134.97 38.513-38.32 83.577-68.657 135.19-91.01 51.62-22.353 106.837-33.53 165.65-33.53 59.48 0 115.09 11.15 166.83 33.45 51.733 22.307 96.737 52.577 135.01 90.81s68.57 83.19 90.89 134.87c22.327 51.687 33.49 107.31 33.49 166.87 0 58.853-11.177 114.103-33.53 165.75s-52.69 96.74-91.01 135.28c-38.327 38.533-83.27 68.83-134.83 90.89-51.567 22.053-107.063 33.08-166.49 33.08zm-49.571-481.664-75.971-80.44c-8.379-8.938-18.293-13.407-29.741-13.407-11.455 0-21.651 3.725-30.589 11.173-8.938 9.317-13.407 19.655-13.407 31.014 0 11.351 4.469 21.495 13.407 30.433l98.315 97.198c10.696 11.172 23.425 16.758 38.187 16.758s27.357-5.586 37.784-16.758l194.396-193.279c8.193-7.448 12.29-17.131 12.29-29.048s-4.469-21.972-13.407-30.165c-8.193-6.703-17.875-9.869-29.048-9.496-11.172.372-20.11 4.283-26.813 11.731zm-138.77 298.375h377.403c12.551 0 22.93-4.104 31.136-12.31 8.207-8.207 12.31-18.586 12.31-31.137s-4.103-22.93-12.31-31.136c-8.206-8.207-18.585-12.31-31.136-12.31h-377.403c-12.551 0-22.93 4.103-31.137 12.31-8.206 8.206-12.31 18.585-12.31 31.136s4.104 22.93 12.31 31.137c8.207 8.206 18.586 12.31 31.137 12.31z" transform="matrix(.270054 0 0 .270054 -4.7611 254.761)"/><path d="m437-441 157-156c6-6.667 14-10.167 24-10.5s18.667 2.5 26 8.5c8 7.333 12 16.333 12 27s-3.667 19.333-11 26l-174 173c-9.333 10-20.607 15-33.82 15s-24.607-5-34.18-15l-88-87c-8-8-12-17.08-12-27.24 0-10.167 4-19.42 12-27.76 8-6.667 17.127-10 27.38-10 10.247 0 19.12 4 26.62 12zm-124.21 267.069c-11.234 0-20.524-3.673-27.87-11.018-7.345-7.346-11.018-16.636-11.018-27.87s3.673-20.524 11.018-27.869c7.346-7.346 16.636-11.019 27.87-11.019h337.806c11.234 0 20.524 3.673 27.869 11.019 7.346 7.345 11.018 16.635 11.018 27.869s-3.672 20.524-11.018 27.87c-7.345 7.345-16.635 11.018-27.869 11.018z" fill="rgb(255, 255, 255)" transform="matrix(.30171 0 0 .30171 -20.3314 242.887)"/></svg>