<svg clip-rule="evenodd" fill-rule="evenodd" stroke-linejoin="round" stroke-miterlimit="2" viewBox="0 0 250 250" xmlns="http://www.w3.org/2000/svg">
  <defs>
    <style type="text/css" id="current-color-scheme">.ColorScheme-Background { color:#000000; } .ColorScheme-Highlight { color:#ffffff; }</style>
  </defs><g transform="matrix(.253102 0 0 .253102 3.38479 248.767)"><path class="ColorScheme-Background" fill="currentColor" d="m95-419.282v-.575c.006-8.594.265-17.093.778-25.499 4.099-67.889 24.403-129.237 60.911-184.046 14.698-22.763 31.636-43.767 50.815-63.013 18.783-18.849 39.269-35.574 61.457-50.177 55.654-37.817 117.954-58.719 186.899-62.704 7.963-.464 16.009-.699 24.14-.704h.5c90.218 0 170.033 28.352 239.446 85.054l30.054-30.054c8.667-8.667 18.5-13 29.5-13s20.833 4.5 29.5 13.5 13 19 13 30-4.333 20.833-13 29.5l-29.25 29.25c19.16 23.052 35.128 47.427 47.904 73.125 4.702 9.183 9.151 18.724 13.346 28.625 16.667 39.333 24.999 86 24.999 140v1.529c0 86.288-25.279 162.223-75.839 227.803-11.367 15.284-23.844 29.662-37.43 43.133-19.356 19.192-40.515 36.162-63.478 50.911-61.967 41.083-131.551 61.624-208.752 61.624h-.733c-10.733-.009-21.319-.416-31.76-1.22-68.85-5.249-130.974-27.435-186.372-66.557-19.458-13.344-37.562-28.364-54.311-45.062-14.838-14.792-28.33-30.652-40.476-47.578-47.898-64.7-71.848-139.322-71.848-223.865zm384.486 37.332c12.85 0 24.009-4.599 33.477-13.797 9.469-9.198 14.203-20.83 14.203-34.898v-194.778c0-14.068-4.734-25.362-14.203-33.884-9.468-8.521-20.966-12.782-34.492-12.782s-24.685 4.599-33.478 13.797c-8.792 9.197-13.188 20.83-13.188 34.897v194.779c0 14.068 4.329 25.362 12.986 33.884 8.656 8.521 20.221 12.782 34.695 12.782zm0 215.068c18.26 0 33.477-5.748 45.651-17.246 12.174-11.497 18.26-26.714 18.26-45.651s-6.154-34.492-18.463-46.666c-12.309-12.173-27.12-18.26-44.434-18.26-18.937 0-34.154 6.087-45.651 18.26-11.498 12.174-17.246 27.729-17.246 46.666s5.748 34.154 17.246 45.651c11.497 11.498 26.376 17.246 44.637 17.246zm-101.362-693.118c-12.166 0-22.061-4.058-29.686-12.175s-11.438-18.117-11.438-30 3.813-21.658 11.438-29.325 17.52-11.5 29.686-11.5h203.752c12.166 0 22.061 3.829 29.686 11.488s11.438 17.554 11.438 29.687c0 11.883-3.813 21.825-11.438 29.825s-17.52 12-29.686 12z"/><path d="m479.486-381.95c-14.474 0-26.039-4.261-34.695-12.782-8.657-8.522-12.986-19.816-12.986-33.884v-194.779c0-14.067 4.396-25.7 13.188-34.897 8.793-9.198 19.952-13.797 33.478-13.797s25.024 4.261 34.492 12.782c9.469 8.522 14.203 19.816 14.203 33.884v194.778c0 14.068-4.734 25.7-14.203 34.898-9.468 9.198-20.627 13.797-33.477 13.797zm0 215.068c-18.261 0-33.14-5.748-44.637-17.246-11.498-11.497-17.246-26.714-17.246-45.651s5.748-34.492 17.246-46.666c11.497-12.173 26.714-18.26 45.651-18.26 17.314 0 32.125 6.087 44.434 18.26 12.309 12.174 18.463 27.729 18.463 46.666s-6.086 34.154-18.26 45.651c-12.174 11.498-27.391 17.246-45.651 17.246z" fill="rgb(255, 255, 255)"/></g></svg>