<svg clip-rule="evenodd" fill-rule="evenodd" stroke-linejoin="round" stroke-miterlimit="2" viewBox="0 0 1042 1042" xmlns="http://www.w3.org/2000/svg">
  <defs>
    <style type="text/css" id="current-color-scheme">.ColorScheme-Background { color:#000000; } .ColorScheme-Highlight { color:#ffffff; }</style>
  </defs><g transform="matrix(1.23273 0 0 1.23273 -71.4904 1113.16)"><path class="ColorScheme-Background" fill="currentColor" d="m189-95c-26.533 0-48.833-9.033-66.9-27.1s-27.1-40.367-27.1-66.9v-493c0-10.587 1.833-20.94 5.5-31.06s8.897-19.42 15.69-27.9l72.81-95.04c8.5-10.687 18.703-18.36 30.61-23.02 11.907-4.653 24.703-6.98 38.39-6.98h444c13 0 25.457 2.327 37.37 6.98 11.913 4.66 22.123 12.333 30.63 23.02l74.81 95.04c6.127 8.48 11.19 17.78 15.19 27.9s6 20.473 6 31.06v493c0 26.533-9.13 48.833-27.39 66.9-18.267 18.067-40.803 27.1-67.61 27.1zm341.843-587.495c.001 11.536-4.582 22.599-12.739 30.756s-19.22 12.739-30.755 12.739h-269.835c-7.562 0-14.815 3.004-20.162 8.352-5.348 5.347-8.352 12.6-8.352 20.162v392.972c0 7.562 3.004 14.815 8.352 20.162 5.347 5.348 12.6 8.352 20.162 8.352h524.972c7.562 0 14.815-3.004 20.162-8.352 5.348-5.347 8.352-12.6 8.352-20.162v-445.966c0-17.735-6.471-34.86-18.199-48.163l-44.027-49.939c-5.839-6.624-14.243-10.418-23.072-10.418h-411.716c-9.459 0-18.392 4.353-24.222 11.802l-12.227 15.623c-2.709 3.462-3.206 8.165-1.281 12.116 1.925 3.952 5.936 6.459 10.331 6.459h240.762c11.536 0 22.598 4.582 30.755 12.739s12.74 19.22 12.739 30.756zm90.035 87.616c-3.012-7.03-8.582-12.653-15.582-15.733l-27.336-12.028c-7.136-3.568-10.705-9.43-10.705-17.586 0-8.155 3.569-14.017 10.705-17.585l26.867-11.285c7.283-3.059 13.076-8.852 16.135-16.135l11.285-26.867c3.568-7.136 9.43-10.705 17.585-10.705 8.156 0 14.018 3.569 17.586 10.705l11.284 26.867c3.059 7.283 8.853 13.076 16.136 16.135l26.867 11.285c7.136 3.568 10.704 9.43 10.704 17.585 0 8.156-3.568 14.018-10.704 17.586l-27.336 12.028c-7 3.08-12.57 8.703-15.582 15.733l-11.369 26.526c-3.568 7.646-9.43 11.469-17.586 11.469-8.155 0-14.017-3.823-17.585-11.469zm-141.339 354.116c-47.609 0-88.308-17.047-122.095-51.141-33.787-34.095-50.681-74.486-50.681-121.174 0-48.181 16.891-89.254 50.672-123.22 33.781-33.959 74.636-50.939 122.565-50.939 47.302 0 88.001 16.98 122.095 50.939 34.095 33.966 51.142 75.039 51.142 123.22 0 46.688-17.047 87.079-51.142 121.174-34.094 34.094-74.946 51.141-122.556 51.141zm-66.807-146.514h138.046c7.12 0 13.076-2.592 17.868-7.777 4.791-5.191 7.187-11.242 7.187-18.153 0-6.917-2.396-12.772-7.187-17.564-4.792-4.791-10.757-7.187-17.895-7.187h-138.737c-7.139 0-13.104 2.396-17.895 7.187-4.792 4.792-7.188 10.647-7.188 17.564 0 6.911 2.58 12.962 7.741 18.153 5.16 5.185 11.18 7.777 18.06 7.777z"/><path d="m189-610.486c0-7.562 3.004-14.815 8.352-20.162 5.347-5.348 12.6-8.352 20.162-8.352h269.835c11.535 0 22.598-4.582 30.755-12.739s12.74-19.22 12.739-30.756v-.01c.001-11.536-4.582-22.599-12.739-30.756s-19.219-12.739-30.755-12.739h-240.762c-4.395 0-8.406-2.507-10.331-6.459-1.925-3.951-1.428-8.654 1.281-12.116l12.227-15.623c5.83-7.449 14.763-11.802 24.222-11.802h411.716c8.828 0 17.231 3.793 23.07 10.416.001 0 .001.001.002.002l44.027 49.939c11.728 13.303 18.199 30.428 18.199 48.163v445.966c0 7.562-3.004 14.815-8.352 20.162-5.347 5.348-12.6 8.352-20.162 8.352h-524.972c-7.562 0-14.815-3.004-20.162-8.352-5.348-5.347-8.352-12.6-8.352-20.162zm431.878 15.607 11.369 26.526c3.568 7.646 9.43 11.469 17.585 11.469 8.156 0 14.018-3.823 17.586-11.469l11.369-26.526c3.012-7.03 8.582-12.653 15.582-15.733l27.336-12.028c7.136-3.568 10.704-9.43 10.704-17.586 0-8.155-3.568-14.017-10.704-17.585l-26.867-11.285c-7.283-3.059-13.077-8.852-16.136-16.135l-11.284-26.867c-3.568-7.136-9.43-10.705-17.586-10.705-8.155 0-14.017 3.569-17.585 10.705l-11.285 26.867c-3.059 7.283-8.852 13.076-16.135 16.135l-26.867 11.285c-7.136 3.568-10.705 9.43-10.705 17.585 0 8.156 3.569 14.018 10.705 17.586l27.336 12.028c7 3.08 12.57 8.703 15.582 15.733zm-141.339 354.116c47.61 0 88.462-17.047 122.556-51.141 34.095-34.095 51.142-74.486 51.142-121.174 0-48.181-17.047-89.254-51.142-123.22-34.094-33.959-74.793-50.939-122.095-50.939-47.929 0-88.784 16.98-122.565 50.939-33.781 33.966-50.672 75.039-50.672 123.22 0 46.688 16.894 87.079 50.681 121.174 33.787 34.094 74.486 51.141 122.095 51.141zm-66.807-146.514c-6.88 0-12.9-2.592-18.06-7.777-5.161-5.191-7.741-11.242-7.741-18.153 0-6.917 2.396-12.772 7.188-17.564 4.791-4.791 10.756-7.187 17.895-7.187h138.737c7.138 0 13.103 2.396 17.895 7.187 4.791 4.792 7.187 10.647 7.187 17.564 0 6.911-2.396 12.962-7.187 18.153-4.792 5.185-10.748 7.777-17.868 7.777z" fill="rgb(255, 255, 255)"/></g></svg>