<svg clip-rule="evenodd" fill-rule="evenodd" stroke-linejoin="round" stroke-miterlimit="2" viewBox="0 0 1042 1042" xmlns="http://www.w3.org/2000/svg">
  <defs>
    <style type="text/css" id="current-color-scheme">.ColorScheme-Background { color:#000000; } .ColorScheme-Highlight { color:#ffffff; }</style>
  </defs><g transform="matrix(1.23273 0 0 1.23273 -71.4904 1113.16)"><path class="ColorScheme-Background" fill="currentColor" d="m189-95c-26.533 0-48.833-9.033-66.9-27.1s-27.1-40.367-27.1-66.9v-493c0-10.587 1.833-20.94 5.5-31.06s8.897-19.42 15.69-27.9l72.81-95.04c8.5-10.687 18.703-18.36 30.61-23.02 11.907-4.653 24.703-6.98 38.39-6.98h444c13 0 25.457 2.327 37.37 6.98 11.913 4.66 22.123 12.333 30.63 23.02l74.81 95.04c6.127 8.48 11.19 17.78 15.19 27.9s6 20.473 6 31.06v493c0 26.533-9.13 48.833-27.39 66.9-18.267 18.067-40.803 27.1-67.61 27.1zm48.48-649.502c-2.698 3.448-3.194 8.133-1.276 12.069s5.912 6.433 10.291 6.433h465.845c4.39 0 8.393-2.51 10.305-6.462 1.912-3.951 1.395-8.648-1.329-12.09l-12.522-15.82c-5.814-7.345-14.667-11.628-24.034-11.628h-410.826c-9.426 0-18.328 4.337-24.138 11.76zm533.52 134.016c0-7.562-3.004-14.815-8.352-20.162-5.347-5.348-12.6-8.352-20.162-8.352h-524.972c-7.562 0-14.815 3.004-20.162 8.352-5.348 5.347-8.352 12.6-8.352 20.162v392.972c0 7.562 3.004 14.815 8.352 20.162 5.347 5.348 12.6 8.352 20.162 8.352h524.972c7.562 0 14.815-3.004 20.162-8.352 5.348-5.347 8.352-12.6 8.352-20.162zm-291.461 369.723c-47.609 0-88.308-17.047-122.095-51.141-33.787-34.095-50.681-74.486-50.681-121.174 0-48.181 16.891-89.254 50.672-123.22 33.781-33.959 74.636-50.939 122.565-50.939 47.302 0 88.001 16.98 122.095 50.939 34.095 33.966 51.142 75.039 51.142 123.22 0 46.688-17.047 87.079-51.142 121.174-34.094 34.094-74.946 51.141-122.556 51.141zm-44.125-65.329h90.171c5.526 0 10.134-1.913 13.864-5.642 3.73-3.73 5.643-8.339 5.643-13.864 0-5.526-1.913-10.134-5.643-13.864s-8.338-5.643-13.864-5.643h-90.17c-5.526 0-10.134 1.913-13.864 5.643s-5.643 8.338-5.643 13.864c0 5.525 1.913 10.134 5.643 13.864 3.73 3.729 8.338 5.642 13.863 5.642zm111.44-101.682c-1.161 2.226-.459.881 0 0zm.264-.506.039-.076.023-.045c2.352-4.704 2.503-9.482.444-14.333-1.887-4.449-5.177-7.735-10.05-9.667-4.577-1.997-9.267-2.112-14.016-.305-4.278 1.627-7.663 4.347-10.161 8.148l-.324.53c-3.333 5.857-7.987 10.469-13.945 13.852-6.025 3.421-12.456 5.139-19.297 5.139-10.68 0-19.742-3.688-27.167-11.113s-11.114-16.488-11.114-27.168c0-10.679 3.689-19.742 11.114-27.167s16.487-11.113 27.167-11.113c7.092 0 13.329 1.443 18.665 4.504h-.316c-4.676 0-8.542 1.617-11.67 4.657-3.228 3.14-4.905 7.034-4.905 11.726 0 4.676 1.618 8.543 4.657 11.67 3.141 3.229 7.035 4.905 11.727 4.905h39.947c5.193 0 9.592-1.791 13.227-5.296 3.733-3.6 5.641-8.049 5.641-13.381v-39.756c0-4.714-1.655-8.615-4.808-11.767-3.152-3.152-7.053-4.808-11.766-4.808-5.057 0-9.009 1.805-12.031 4.981-2.292 2.408-3.76 5.254-4.305 8.576-2.828-2.023-5.787-3.846-8.879-5.469-10.162-5.337-21.878-8.088-35.184-8.088-20.906 0-38.743 7.418-53.508 22.256-14.753 14.826-22.127 32.683-22.127 53.57 0 20.9 7.382 38.73 22.144 53.492 14.761 14.761 32.591 22.144 53.491 22.144 14.307 0 27.48-3.661 39.524-10.961 11.909-7.217 21.072-16.93 27.499-29.131l.053-.101z"/><path d="m189-610.486c0-7.562 3.004-14.815 8.352-20.162 5.347-5.348 12.6-8.352 20.162-8.352h524.972c7.562 0 14.815 3.004 20.162 8.352 5.348 5.347 8.352 12.6 8.352 20.162v392.972c0 7.562-3.004 14.815-8.352 20.162-5.347 5.348-12.6 8.352-20.162 8.352h-524.972c-7.562 0-14.815-3.004-20.162-8.352-5.348-5.347-8.352-12.6-8.352-20.162zm495.76-161.514c9.367 0 18.22 4.283 24.034 11.628l12.522 15.82c2.724 3.442 3.241 8.139 1.329 12.09-1.912 3.952-5.915 6.462-10.305 6.462h-465.845c-4.379 0-8.373-2.497-10.291-6.433s-1.422-8.621 1.276-12.069l12.316-15.738c5.81-7.423 14.712-11.76 24.138-11.76zm-205.221 531.237c47.61 0 88.462-17.047 122.556-51.141 34.095-34.095 51.142-74.486 51.142-121.174 0-48.181-17.047-89.254-51.142-123.22-34.094-33.959-74.793-50.939-122.095-50.939-47.929 0-88.784 16.98-122.565 50.939-33.781 33.966-50.672 75.039-50.672 123.22 0 46.688 16.894 87.079 50.681 121.174 33.787 34.094 74.486 51.141 122.095 51.141zm67.315-167.011c-6.427 12.201-15.59 21.914-27.499 29.131-12.044 7.3-25.217 10.961-39.524 10.961-20.9 0-38.73-7.383-53.491-22.144-14.762-14.762-22.144-32.592-22.144-53.492 0-20.887 7.374-38.744 22.127-53.57 14.765-14.838 32.602-22.256 53.508-22.256 13.306 0 25.022 2.751 35.184 8.088 3.092 1.623 6.051 3.446 8.879 5.469.545-3.322 2.013-6.168 4.305-8.576 3.022-3.176 6.974-4.981 12.031-4.981 4.713 0 8.614 1.656 11.766 4.808 3.153 3.152 4.808 7.053 4.808 11.767v39.756c0 5.332-1.908 9.781-5.641 13.381-3.635 3.505-8.034 5.296-13.227 5.296h-39.947c-4.692 0-8.586-1.676-11.727-4.905-3.039-3.127-4.657-6.994-4.657-11.67 0-4.692 1.677-8.586 4.905-11.726 3.128-3.04 6.994-4.657 11.67-4.657h.316c-5.336-3.061-11.573-4.504-18.665-4.504-10.68 0-19.742 3.688-27.167 11.113s-11.114 16.488-11.114 27.167c0 10.68 3.689 19.743 11.114 27.168s16.487 11.113 27.167 11.113c6.841 0 13.272-1.718 19.297-5.139 5.958-3.383 10.612-7.995 13.945-13.852l.324-.53c2.498-3.801 5.883-6.521 10.161-8.148 4.749-1.807 9.439-1.692 14.016.305 4.873 1.932 8.163 5.218 10.05 9.667 2.059 4.851 1.908 9.629-.444 14.333l-.023.045-.039.076-.211.405zm0 0c-.459.881-1.161 2.226 0 0zm-111.44 101.682c-5.525 0-10.133-1.913-13.863-5.642-3.73-3.73-5.643-8.339-5.643-13.864 0-5.526 1.913-10.134 5.643-13.864s8.338-5.643 13.864-5.643h90.17c5.526 0 10.134 1.913 13.864 5.643s5.643 8.338 5.643 13.864c0 5.525-1.913 10.134-5.643 13.864-3.73 3.729-8.338 5.642-13.864 5.642z" fill="rgb(255, 255, 255)"/></g></svg>