<svg clip-rule="evenodd" fill-rule="evenodd" stroke-linejoin="round" stroke-miterlimit="2" viewBox="0 0 1042 1042" xmlns="http://www.w3.org/2000/svg">
  <defs>
    <style type="text/css" id="current-color-scheme">.ColorScheme-Background { color:#000000; } .ColorScheme-Highlight { color:#ffffff; }</style>
  </defs><g transform="matrix(1.23273 0 0 1.23273 -71.4904 1113.16)"><path class="ColorScheme-Background" fill="currentColor" d="m189-95c-26.533 0-48.833-9.033-66.9-27.1s-27.1-40.367-27.1-66.9v-493c0-10.587 1.833-20.94 5.5-31.06s8.897-19.42 15.69-27.9l72.81-95.04c8.5-10.687 18.703-18.36 30.61-23.02 11.907-4.653 24.703-6.98 38.39-6.98h444c13 0 25.457 2.327 37.37 6.98 11.913 4.66 22.123 12.333 30.63 23.02l74.81 95.04c6.127 8.48 11.19 17.78 15.19 27.9s6 20.473 6 31.06v493c0 26.533-9.13 48.833-27.39 66.9-18.267 18.067-40.803 27.1-67.61 27.1zm582-515.486c0-7.562-3.004-14.815-8.352-20.162-5.347-5.348-12.6-8.352-20.162-8.352h-524.972c-7.562 0-14.815 3.004-20.162 8.352-5.348 5.347-8.352 12.6-8.352 20.162v392.972c0 7.562 3.004 14.815 8.352 20.162 5.347 5.348 12.6 8.352 20.162 8.352h524.972c7.562 0 14.815-3.004 20.162-8.352 5.348-5.347 8.352-12.6 8.352-20.162zm-291.461 369.723c-47.609 0-88.308-17.047-122.095-51.141-33.787-34.095-50.681-74.486-50.681-121.174 0-48.181 16.891-89.254 50.672-123.22 33.781-33.959 74.636-50.939 122.565-50.939 47.302 0 88.001 16.98 122.095 50.939 34.095 33.966 51.142 75.039 51.142 123.22 0 46.688-17.047 87.079-51.142 121.174-34.094 34.094-74.946 51.141-122.556 51.141zm98.018-145.272c2.467-9.12 3.702-18.444 3.702-27.965 0-28.36-9.751-52.345-29.333-71.926-19.581-19.582-43.568-29.333-71.926-29.333-9.775 0-19.348 1.238-28.719 3.717h-.016c-2.578.682-4.593 2.69-5.286 5.264-.692 2.574.042 5.323 1.929 7.206l116.534 116.535c1.979 1.977 4.86 2.752 7.564 2.032 2.703-.72 4.82-2.83 5.551-5.53zm-97.557 73.294c9.775 0 19.348-1.24 28.719-3.718l.016-.002c2.743-.726 4.888-2.864 5.627-5.603.738-2.74-.045-5.666-2.051-7.67l-116.085-116.087c-1.958-1.956-4.794-2.752-7.483-2.096-2.69.655-4.844 2.666-5.68 5.305l-.228.721c-2.728 8.761-4.094 17.718-4.094 26.867 0 28.285 9.792 52.426 29.407 72.412 19.562 19.929 43.52 29.871 71.852 29.871zm-242.52-431.761c-2.698 3.448-3.194 8.133-1.276 12.069s5.912 6.433 10.291 6.433h465.845c4.39 0 8.393-2.51 10.305-6.462 1.912-3.951 1.395-8.648-1.329-12.09l-12.522-15.82c-5.814-7.345-14.667-11.628-24.034-11.628h-410.826c-9.426 0-18.328 4.337-24.138 11.76z"/><path d="m189-610.486c0-7.562 3.004-14.815 8.352-20.162 5.347-5.348 12.6-8.352 20.162-8.352h524.972c7.562 0 14.815 3.004 20.162 8.352 5.348 5.347 8.352 12.6 8.352 20.162v392.972c0 7.562-3.004 14.815-8.352 20.162-5.347 5.348-12.6 8.352-20.162 8.352h-524.972c-7.562 0-14.815-3.004-20.162-8.352-5.348-5.347-8.352-12.6-8.352-20.162zm495.76-161.514c9.367 0 18.22 4.283 24.034 11.628l12.522 15.82c2.724 3.442 3.241 8.139 1.329 12.09-1.912 3.952-5.915 6.462-10.305 6.462h-465.845c-4.379 0-8.373-2.497-10.291-6.433s-1.422-8.621 1.276-12.069l12.316-15.738c5.81-7.423 14.712-11.76 24.138-11.76zm-205.221 531.237c47.61 0 88.462-17.047 122.556-51.141 34.095-34.095 51.142-74.486 51.142-121.174 0-48.181-17.047-89.254-51.142-123.22-34.094-33.959-74.793-50.939-122.095-50.939-47.929 0-88.784 16.98-122.565 50.939-33.781 33.966-50.672 75.039-50.672 123.22 0 46.688 16.894 87.079 50.681 121.174 33.787 34.094 74.486 51.141 122.095 51.141zm.461-71.978c-28.332 0-52.29-9.942-71.852-29.871-19.615-19.986-29.407-44.127-29.407-72.412 0-9.149 1.366-18.106 4.094-26.867l.228-.721c.836-2.639 2.99-4.65 5.68-5.305 2.689-.656 5.525.14 7.483 2.096l116.085 116.087c2.006 2.004 2.789 4.93 2.051 7.67-.739 2.739-2.884 4.877-5.627 5.603l-.016.002c-9.371 2.478-18.944 3.718-28.719 3.718zm97.557-73.294c-.731 2.7-2.848 4.81-5.551 5.53-2.704.72-5.585-.055-7.564-2.032l-116.534-116.535c-1.887-1.883-2.621-4.632-1.929-7.206.693-2.574 2.708-4.582 5.286-5.264h.016c9.371-2.479 18.944-3.717 28.719-3.717 28.358 0 52.345 9.751 71.926 29.333 19.582 19.581 29.333 43.566 29.333 71.926 0 9.521-1.235 18.845-3.702 27.965z" fill="rgb(255, 255, 255)"/></g></svg>