<svg clip-rule="evenodd" fill-rule="evenodd" stroke-linejoin="round" stroke-miterlimit="2" viewBox="0 0 250 250" xmlns="http://www.w3.org/2000/svg">
  <defs>
    <style type="text/css" id="current-color-scheme">.ColorScheme-Background { color:#000000; } .ColorScheme-Highlight { color:#ffffff; }</style>
  </defs><path class="ColorScheme-Background" fill="currentColor" d="m685.759-427.456.043-.031 124.531-90.346c4.734-3.385 36.62-26.77 22.472-66.383l-.105-.284c-15.966-41.51-50.165-41.034-55.7-41.034l-1-.002h-152.466-.171c-16.07-.074-30.212-10.649-34.819-26.058l-50.529-168.982c-3.034-10.29-8.284-18.701-14.935-25.237-11.044-11.197-26.582-17.001-42.405-17.109l-.675-.001-.675.001c-15.823.108-31.361 5.912-42.405 17.109-6.651 6.536-11.901 14.947-14.935 25.237l-50.529 168.982c-4.607 15.409-18.749 25.984-34.819 26.058h-.171-152.466l-1 .002c-5.535 0-39.734-.476-55.7 41.034l-.105.284c-14.148 39.613 17.738 62.998 22.472 66.383l124.531 90.346.043.031c12.629 9.19 18.017 25.396 13.401 40.321l-49.618 160.431c-.085.275-.16.553-.226.833-8.415 35.762 9.552 54.747 18.804 62.099 3.175 2.682 6.616 5.041 10.253 7.044 8.697 5.079 24.793 11.844 43.524 6.373 7.251-1.664 14.344-4.756 20.907-9.444l.286-.211 127.398-96.562c6.234-4.725 13.607-7.193 21.03-7.402 7.423.209 14.796 2.677 21.03 7.402l127.398 96.562.286.211c6.563 4.688 13.656 7.78 20.907 9.444 18.731 5.471 34.827-1.294 43.524-6.373 3.637-2.003 7.078-4.362 10.253-7.044 9.252-7.352 27.219-26.337 18.804-62.099-.066-.28-.141-.558-.226-.833l-49.618-160.431c-4.616-14.925.772-31.131 13.401-40.321z" transform="matrix(-.332388 0 0 .332388 284.546 293.015)"/></svg>