<svg clip-rule="evenodd" fill-rule="evenodd" stroke-linejoin="round" stroke-miterlimit="2" viewBox="0 0 250 250" xmlns="http://www.w3.org/2000/svg">
  <defs>
    <style type="text/css" id="current-color-scheme">.ColorScheme-Background { color:#000000; } .ColorScheme-Highlight { color:#ffffff; }</style>
  </defs><path class="ColorScheme-Background" fill="currentColor" d="m692.5-80c-51.667 0-95.833-18.5-132.5-55.5s-55-80.833-55-131.5c0-52.287 18.33-96.86 54.99-133.72 36.66-36.853 80.997-55.28 133.01-55.28 51.333 0 95.5 18.427 132.5 55.28 37 36.86 55.5 81.433 55.5 133.72 0 50.667-18.5 94.5-55.5 131.5s-81.333 55.5-133 55.5zm96.48-201.244c2.438-2.354 4.227-4.957 5.446-7.754l1.457-4.63c.308-1.529.469-3.113.469-4.754 0-6.524-2.389-12.303-7.453-17.21l-49.52-49.265-.093-.093c-2.221-2.161-4.732-3.87-7.531-5.134-1.521-.689-3.038-1.196-4.543-1.54l-4.927-.561-4.909.554c-1.488.337-2.996.832-4.517 1.504-2.863 1.263-5.413 2.977-7.654 5.136l-.158.156-48.834 48.833-.107.109c-4.73 4.851-6.987 10.501-6.987 16.859 0 6.353 2.272 12.016 7.073 16.88 2.414 2.485 5.087 4.283 7.957 5.481l4.788 1.403 4.886.349c6.525-.194 12.109-2.602 16.744-7.237l8.153-8.08v55.606h-84.135c-6.548 0-12.186 2.256-16.916 6.759-1.19 1.132-2.227 2.335-3.119 3.6l-2.37 4.246-1.419 4.641c-.293 1.51-.447 3.084-.447 4.724 0 1.637.153 3.211.446 4.721l1.411 4.635 2.351 4.242c.885 1.264 1.912 2.469 3.091 3.605 4.745 4.576 10.404 6.858 16.972 6.858h96.134c9.875 0 18.332-3.455 25.371-10.362 7.074-6.938 10.661-15.481 10.661-25.67v-66.985l8.371 8.445c.109.11.221.219.334.325 5.077 4.738 10.816 6.843 17.077 6.674 6.125-.165 11.646-2.434 16.447-7.07z" transform="matrix(.607702 0 0 .607702 -296.34 287.864)"/><path d="m498.239-95.903c-18.131-18.778-27.004-40.371-27.652-64.329-.661-24.487 7.574-46.935 26.105-66.789.415-.445.838-.881 1.27-1.309l33.03-32.74h-261.992c-39.852 0-73.265-14.03-100.401-41.696-27.013-27.532-40.529-60.608-40.529-99.234v-376c0-25.689 8.925-47.822 26.823-66.381 4.445-4.612 9.157-8.629 14.102-12.089l16.591-9.195 18.128-5.519c5.908-1.146 12.061-1.746 18.466-1.746 6.415 0 12.571.602 18.474 1.75l18.154 5.55 16.607 9.269c4.946 3.491 9.652 7.544 14.08 12.198 17.612 18.502 26.435 40.551 26.435 66.163v329.07h217.486l-31.6-31.886c-18.131-18.13-27.548-39.968-28.305-65.491l1.364-19.109 5.488-18.729c4.685-11.224 11.715-21.677 21.436-31.12 19.026-18.776 41.175-27.665 66.021-27.665 24.868 0 46.966 8.828 65.94 27.327l.424.419 191 191 .607.618c8.447 8.765 15.148 18.741 20.089 29.937 2.629 5.951 4.566 11.848 5.881 17.666l2.169 19.203-2.194 19.27c-1.346 5.887-3.33 11.818-6.022 17.769-4.944 10.946-11.631 20.768-20.083 29.452l-.361.367-192.687 193.684c-19.195 19.803-41.795 29.148-67.313 29.148-6.418 0-12.615-.628-18.594-1.835l-18.108-5.699c-10.94-4.767-21.123-11.763-30.329-21.299z" fill="rgb(255, 255, 255)" transform="matrix(0 -.155374 .155374 0 198.026 194.365)"/></svg>