<svg height="48" viewBox="0 -960 960 960" width="48" xmlns="http://www.w3.org/2000/svg"><path fill="rgb(255, 255, 255)" d="m599.606-287.15c-8.912 0-16.107-2.71-21.587-8.11-5.474-5.41-8.211-12.6-8.211-21.55 0-8.48 2.856-15.58 8.567-21.32 5.711-5.75 12.788-8.62 21.231-8.62h74.495c8.913 0 16.108 2.86 21.587 8.54 5.474 5.66 8.212 12.85 8.212 21.53s-2.857 15.76-8.568 21.26c-5.711 5.52-12.788 8.27-21.231 8.27zm74.495-109.27h-74.495c-8.912 0-16.107-2.7-21.587-8.1-5.474-5.41-8.211-12.6-8.211-21.54 0-8.49 2.856-15.59 8.567-21.33s12.788-8.61 21.231-8.61h74.495c8.913 0 16.108 2.85 21.587 8.51 5.474 5.69 8.212 12.87 8.212 21.55 0 8.69-2.857 15.76-8.568 21.26-5.711 5.51-12.788 8.26-21.231 8.26zm-231.572 108.44c16.124 3.86 30.408 9.38 42.851 16.55 8.278 5.53 14.623 11.35 19.038 17.47 4.414 6.14 6.622 12.45 6.622 18.96 0 6.59-2.483 12.12-7.45 16.53-4.966 4.44-11.036 6.65-18.21 6.65h-195.342c-7.406 0-13.672-2.09-18.798-6.27-5.127-4.17-7.69-9.92-7.69-17.25 0-6.16 2.208-12.35 6.622-18.54 4.414-6.18 11.313-12.02 20.693-17.55 12.29-7.17 26.398-12.69 42.33-16.55 15.925-3.85 34.096-5.79 54.514-5.79 20.417 0 38.69 1.94 54.82 5.79zm-97.514-72.83c-11.82-11.59-17.73-25.96-17.73-43.12 0-16.59 5.932-30.8 17.796-42.62s26.096-17.74 42.694-17.74 30.808 5.94 42.628 17.8 17.729 26.1 17.729 42.69c0 17.17-5.931 31.5-17.796 43.05-11.863 11.55-26.095 17.31-42.693 17.31s-30.808-5.8-42.628-17.37zm-139.405 308.735c-21.548 0-39.905-7.582-55.068-22.747-15.159-15.156-22.738-33.518-22.738-55.058v-699.4c0-21.89 7.565-40.43 22.729-55.6 15.163-15.46 33.522-23.04 55.061-23.04h547.968c21.787 0 40.327 7.58 55.657 23.04 15.329 15.17 22.977 33.71 22.977 55.6v699.4c0 21.54-7.661 39.902-22.986 55.058-15.323 15.165-33.873 22.747-55.647 22.747zm-.002-716.715h547.954v-60.49h-547.968v60.49zm.002 144.77h547.952v-66.13h-547.954v66.13zm0 494.14h547.953v-330.94h-.001v-84.57h-547.952z"/></svg>