<svg height="48" viewBox="0 -960 960 960" width="48" xmlns="http://www.w3.org/2000/svg"><path fill="rgb(255, 255, 255)" d="m478.69-204c-73.793 0-142.023-19.333-204.69-58s-113.667-91.667-153-159c-5.333-8.667-9.167-17.933-11.5-27.8-2.333-9.873-3.5-19.94-3.5-30.2 0-10.333 1.25-20.583 3.75-30.75s6.25-19.917 11.25-29.25c39.333-68 90.187-121.5 152.56-160.5 62.367-39 130.513-58.5 204.44-58.5s142.573 19.333 205.94 58c63.373 38.667 114.727 92 154.06 160 5.333 9.333 9.333 19 12 29s4 20 4 30-1.5 20.257-4.5 30.77-7.167 20.59-12.5 30.23c-38.667 67.333-89.603 120.167-152.81 158.5s-131.707 57.5-205.5 57.5zm-.32-87c61.087 0 118.13-17 171.13-51s93.833-80.167 122.5-138.5c-28.667-58.333-69.46-104.667-122.38-139-52.913-34.333-110.12-51.5-171.62-51.5-61 0-117.583 17.167-169.75 51.5s-92.583 80.667-121.25 139c28.667 58.333 69.123 104.5 121.37 138.5 52.24 34 108.907 51 170 51zm.85-55c37.853 0 70.447-13.31 97.78-39.93s41-58.05 41-94.29c0-36.247-13.643-67.77-40.93-94.57-27.287-26.807-59.953-40.21-98-40.21-36.713 0-67.57 13.047-92.57 39.14-25 26.087-37.5 58.017-37.5 95.79s12.573 69.56 37.72 95.36c25.147 25.807 55.98 38.71 92.5 38.71zm.07-79c-15.527 0-28.457-5.353-38.79-16.06s-15.5-23.707-15.5-39 5.137-28.44 15.41-39.44 23.273-16.5 39-16.5 28.923 5.45 39.59 16.35 16 24.137 16 39.71c0 15.293-5.417 28.273-16.25 38.94s-23.987 16-39.46 16z"/></svg>