<svg clip-rule="evenodd" fill-rule="evenodd" stroke-linejoin="round" stroke-miterlimit="2" viewBox="0 0 48 48" xmlns="http://www.w3.org/2000/svg"><path fill="rgb(255, 255, 255)" d="m15.139 40.406c-1.533 0-2.818-.52-3.854-1.559s-1.554-2.313-1.554-3.822c0-1.045.238-1.987.715-2.827.476-.84 1.146-1.496 2.009-1.967v-12.556c-.863-.455-1.533-1.09-2.009-1.908-.477-.817-.715-1.705-.715-2.665 0-1.554.52-2.861 1.56-3.92s2.327-1.588 3.861-1.588c1.533 0 2.818.535 3.854 1.607 1.036 1.071 1.554 2.359 1.554 3.864 0 .963-.249 1.863-.749 2.7-.499.836-1.158 1.472-1.975 1.91v5.55l12.26-3.065v-2.485c-.817-.438-1.476-1.074-1.975-1.91-.5-.837-.749-1.726-.749-2.669 0-1.531.52-2.831 1.56-3.899 1.04-1.069 2.327-1.603 3.861-1.603 1.533 0 2.829.535 3.888 1.607 1.059 1.071 1.589 2.359 1.589 3.864 0 .963-.25 1.863-.749 2.7-.5.836-1.158 1.472-1.976 1.91v1.804c0 1.393-.39 2.684-1.17 3.872-.78 1.187-1.843 1.918-3.189 2.19l-13.35 3.188v1.528c.817.432 1.476 1.074 1.975 1.925.5.851.749 1.788.749 2.811 0 1.536-.52 2.822-1.56 3.858s-2.327 1.555-3.861 1.555z" fill-rule="nonzero"/></svg>