<svg height="48" viewBox="0 -960 960 960" width="48" xmlns="http://www.w3.org/2000/svg"><path fill="rgb(255, 255, 255)" d="m180-483 164 164q14 15 13 33.5t-15.5 33.5q-14.5 15-33.5 14.5t-33-14.5l-197-196q-6.91-7.17-10.95-16.19-4.05-9.03-4.05-17.92 0-8.89 4.05-17.84 4.04-8.95 10.95-16.05l200-200q14.4-14 33.7-14 19.3 0 33.3 14 14 14 14 33.8 0 19.8-14 34.2zm601 2-164-164q-15-15-14-33.5t15.5-33.5q14.5-15 33.5-14.5t33 14.5l197 196q6.91 7.17 10.95 16.19 4.05 9.03 4.05 17.92 0 8.89-4.05 17.84-4.04 8.95-10.95 16.05l-200 200q-14.09 14-33.05 14-18.95 0-32.95-15-15-14.13-15-33.57 0-19.43 15-33.43z"/></svg>