<svg clip-rule="evenodd" fill-rule="evenodd" stroke-linejoin="round" stroke-miterlimit="2" viewBox="0 0 48 48" xmlns="http://www.w3.org/2000/svg"><path fill="rgb(255, 255, 255)" d="m22 12c0 5.523-4.477 10-10 10s-10-4.477-10-10 4.477-10 10-10 10 4.477 10 10zm-2 0c0-4.418-3.582-8-8-8s-8 3.582-8 8 3.582 8 8 8 8-3.582 8-8zm-14-.4c0-.805.061-1.2.218-1.508.192-.376.498-.682.874-.874.308-.157.703-.218 1.508-.218h6.8c.805 0 1.2.061 1.508.218.376.192.682.498.874.874.157.308.218.703.218 1.508v.8c0 .805-.061 1.2-.218 1.508-.192.376-.498.682-.874.874-.308.157-.703.218-1.508.218h-6.8c-.805 0-1.2-.061-1.508-.218-.376-.192-.682-.498-.874-.874-.157-.308-.218-.703-.218-1.508zm2.968-.587c-.533.016-.957.453-.957.986l.001.004c0 .532.422.968.954.984 1.533.002 4.532.002 6.066 0 .533-.016.957-.453.957-.986l-.001-.004c0-.532-.423-.968-.954-.984-1.533-.002-4.532-.002-6.066 0z" transform="matrix(2.18027 0 0 2.18027 -2.1633 -2.1633)"/></svg>