<svg clip-rule="evenodd" fill-rule="evenodd" stroke-linejoin="round" stroke-miterlimit="2" viewBox="0 0 48 48" xmlns="http://www.w3.org/2000/svg"><path fill="rgb(255, 255, 255)" d="m9.247 41.331c-.762 0-1.382-.311-1.86-.935-.479-.622-.719-1.392-.719-2.308 0-2.243 1.517-4.195 4.55-5.856s7.275-2.491 12.727-2.491c5.453 0 9.713.83 12.782 2.491s4.604 3.613 4.604 5.856c0 .916-.257 1.686-.771 2.308-.515.624-1.154.935-1.917.935zm14.761-18.848c-2.244 0-4.125-.755-5.641-2.266-1.517-1.51-2.275-3.37-2.275-5.578s.756-4.089 2.266-5.641c1.511-1.553 3.37-2.329 5.579-2.329 2.208 0 4.089.773 5.641 2.32 1.553 1.547 2.329 3.406 2.329 5.578 0 2.245-.773 4.125-2.32 5.642-1.547 1.516-3.407 2.274-5.579 2.274z" fill-rule="nonzero"/></svg>