<svg clip-rule="evenodd" fill-rule="evenodd" stroke-linejoin="round" stroke-miterlimit="2" viewBox="0 0 48 48" xmlns="http://www.w3.org/2000/svg"><path fill="rgb(255, 255, 255)" d="m11.262 30.915c-.631.571-1.229 1.167-1.79 1.775-.489.564-1.308.705-1.958.338s-.951-1.141-.721-1.851c1.031-3.368 2.839-6.333 5.187-8.635 1.881-1.849 3.005-4.333 3.152-6.967.025-.232.045-.419.045-.543 0-4.87 3.953-8.824 8.823-8.824s8.823 3.954 8.823 8.824c0 .526.342 2.136.731 3.623.342 1.328 1.063 2.527 2.076 3.452 2.544 2.374 4.523 5.49 5.635 9.056.235.73-.075 1.524-.742 1.901-.668.377-1.508.233-2.012-.345-.555-.612-1.147-1.21-1.773-1.783v.011c0 7.03-5.708 12.738-12.738 12.738s-12.738-5.708-12.738-12.738zm9.383-11.666c-.195-.279-.522-.435-.862-.412-.339.023-.642.222-.798.525-.734 1.428-1.862 3.984-2.778 7.781l-.094.398c-.266 1.145-.415 2.177-.415 3.028 0 4.582 3.72 8.68 8.302 8.68s8.302-4.098 8.302-8.68c0-.852-.149-1.885-.415-3.03-.934-4.022-2.113-6.703-2.875-8.176-.155-.302-.457-.5-.795-.523-.339-.023-.665.132-.859.41-.524.741-1.199 1.703-1.807 2.57-.355.505-.934.806-1.551.806s-1.196-.301-1.551-.806z" transform="matrix(1.1537 0 0 1.1537 -3.72312 -4.78091)"/></svg>