<svg height="48" viewBox="0 -960 960 960" width="48" xmlns="http://www.w3.org/2000/svg"><path fill="rgb(255, 255, 255)" d="m385-641 71-114-62-104q-14-20-37.5-20t-35.5 20l-80 132q-11 17-5.5 35t22.5 29l63 39q17 10 35 5t29-22zm386 329-69-116q-10-17-5-36t22-29l64-37q17-9 36-5t29 21l44 74q11 19 11.5 41t-8.5 41q-11 22-31.5 34t-44.5 12zm-163 255-94-94q-14-14-14-34t14-34l94-94q11-11 26-5t15 21v27h201l-61 123q-12 22-32 34t-44 12h-64v28q0 15-15 21t-26-5zm-368-44q-21 0-38.5-10.5t-25.5-29.5q-9-17-8.5-35t10.5-35l36-59h134q20 0 34 14t14 34v74q0 20-14 33.5t-34 13.5zm-105-120-68-137q-11-19-10-40.5t13-41.5l17-29-23-14q-13-8-11.5-23.5t17.5-19.5l131-33q19-5 35 5t21 29l33 132q4 15-8.5 24t-26.5 1l-23-14zm526-373-131-33q-15-3-17.5-19t11.5-24l24-14-133-220h150q22 0 41 11.5t31 29.5l55 92 24-14q13-9 25.5 1t9.5 25l-34 131q-6 19-21.5 29t-34.5 5z"/></svg>