<svg clip-rule="evenodd" fill-rule="evenodd" stroke-linejoin="round" stroke-miterlimit="2" viewBox="0 0 48 48" xmlns="http://www.w3.org/2000/svg"><path fill="rgb(255, 255, 255)" d="m6.9 43.25c-.587 0-1.092-.213-1.515-.638-.423-.426-.635-.934-.635-1.525s.212-1.104.635-1.537.928-.65 1.515-.65h34.2c.602 0 1.119.216 1.552.648.432.432.648.949.648 1.55s-.216 1.11-.648 1.527c-.433.417-.95.625-1.552.625zm0-17.1c-.587 0-1.092-.213-1.515-.638-.423-.426-.635-.934-.635-1.525s.212-1.104.635-1.537.928-.65 1.515-.65h34.2c.602 0 1.119.216 1.552.648.432.432.648.949.648 1.55s-.216 1.11-.648 1.527c-.433.417-.95.625-1.552.625zm0-17.1c-.587 0-1.092-.213-1.515-.638-.423-.426-.635-.934-.635-1.525s.212-1.104.635-1.537.928-.65 1.515-.65h34.2c.602 0 1.119.216 1.552.648.432.432.648.949.648 1.55s-.216 1.11-.648 1.527c-.433.417-.95.625-1.552.625zm12.096 25.65c-.587 0-1.092-.213-1.515-.638-.423-.426-.635-.934-.635-1.525s.212-1.104.635-1.537.928-.65 1.515-.65h18.2c.602 0 1.119.216 1.552.648.432.432.648.949.648 1.55s-.216 1.11-.648 1.527c-.433.417-.95.625-1.552.625zm0-17.1c-.587 0-1.092-.213-1.515-.638-.423-.426-.635-.934-.635-1.525s.212-1.104.635-1.537.928-.65 1.515-.65h18.2c.602 0 1.119.216 1.552.648.432.432.648.949.648 1.55s-.216 1.11-.648 1.527c-.433.417-.95.625-1.552.625zm-8.217-4.35c1.2 0 2.175.975 2.175 2.175s-.975 2.175-2.175 2.175-2.175-.975-2.175-2.175.975-2.175 2.175-2.175zm0 17.1c1.2 0 2.175.975 2.175 2.175s-.975 2.175-2.175 2.175-2.175-.975-2.175-2.175.975-2.175 2.175-2.175z"/></svg>