<svg clip-rule="evenodd" fill-rule="evenodd" stroke-linejoin="round" stroke-miterlimit="2" viewBox="0 0 48 48" xmlns="http://www.w3.org/2000/svg"><path fill="rgb(255, 255, 255)" d="m17.465 37.822c-1.085 1.086-2.292 1.634-3.619 1.642-1.326.008-2.535-.533-3.626-1.624-1.092-1.093-1.632-2.314-1.622-3.666.01-1.351.543-2.555 1.602-3.614l6.56-6.56-6.406-6.407c-1.045-1.043-1.59-2.247-1.636-3.614-.046-1.363.475-2.591 1.567-3.683 1.034-1.034 2.254-1.549 3.658-1.543 1.407.007 2.631.532 3.674 1.577l6.407 6.406 6.559-6.558c1.086-1.087 2.291-1.635 3.619-1.643 1.326-.008 2.536.532 3.627 1.624s1.614 2.33 1.571 3.716c-.044 1.384-.565 2.578-1.563 3.576l-6.549 6.549 6.387 6.386c1.066 1.067 1.587 2.279 1.561 3.64-.025 1.359-.567 2.568-1.624 3.626-1.058 1.058-2.274 1.573-3.644 1.542-1.374-.03-2.581-.568-3.628-1.615l-6.316-6.315z" fill-rule="nonzero"/></svg>