<svg height="48" viewBox="0 -960 960 960" width="48" xmlns="http://www.w3.org/2000/svg"><path fill="rgb(255, 255, 255)" d="m730-234.76h-110c-13.167 0-24.29-4.56-33.37-13.68-9.087-9.11-13.63-20.28-13.63-33.5 0-13.21 4.543-24.32 13.63-33.32 9.08-9 20.203-13.5 33.37-13.5h110l-25-26c-8.667-9.33-13-19.83-13-31.5s5-22.5 15-32.5c9.333-9.33 20.333-14 33-14s23.667 4.67 33 14l103 103c5.333 5.33 9.167 10.74 11.5 16.22s3.5 11.4 3.5 17.78-1.167 12.31-3.5 17.78c-2.333 5.48-6.167 10.89-11.5 16.22l-103 103c-9.333 9.33-20.5 13.83-33.5 13.5s-24.833-5.83-35.5-16.5c-8.667-8.67-12.833-18.67-12.5-30s4.5-21.67 12.5-31zm-567 0c-25.833 0-47.957-9.21-66.37-27.63-18.42-18.41-27.63-40.54-27.63-66.37v-406c0-25.83 9.21-47.96 27.63-66.38 18.413-18.41 40.537-27.62 66.37-27.62h526c25.833 0 47.96 9.21 66.38 27.62 18.413 18.42 27.62 40.55 27.62 66.38v154c0 12.67-4.683 23.67-14.05 33-9.373 9.34-20.417 14-33.13 14-13.213 0-24.32-4.54-33.32-13.63-9-9.08-13.5-20.2-13.5-33.37v-91l-267 189-259-188v342h273c13.167 0 24.293 4.56 33.38 13.68 9.08 9.12 13.62 20.28 13.62 33.5 0 13.21-4.54 24.32-13.62 33.32-9.087 9-20.213 13.5-33.38 13.5zm72-500 187 136 191-136zm-72 406v-406z"/></svg>