<svg height="48" viewBox="0 -960 960 960" width="48" xmlns="http://www.w3.org/2000/svg"><path fill="rgb(255, 255, 255)" d="m137-95q-42.67 0-62.33-35-19.67-35 .33-71l344-598q9.72-18 26.44-26.5t34.64-8.5q17.92 0 34.62 8.5 16.71 8.5 27.3 26.5l343 598q20 36 .33 71-19.66 35-62.33 35zm29-87h629l-315-550zm271-134v40q0 17.62 12.68 30.31 12.67 12.69 31 12.69 18.32 0 30.82-12.69t12.5-30.31v-40h40q18.05 0 31.03-12.76 12.97-12.77 12.97-30.5 0-17.74-12.97-30.74-12.98-13-31.03-13h-40v-40q0-18.05-12.74-31.02-12.74-12.98-30.44-12.98-18.82 0-31.32 12.98-12.5 12.97-12.5 31.02v40h-39q-18.75 0-31.37 12.96-12.63 12.97-12.63 31 0 18.04 12.63 30.54 12.62 12.5 31.37 12.5z"/></svg>