<svg height="48" viewBox="0 -960 960 960" width="48" xmlns="http://www.w3.org/2000/svg"><path fill="rgb(255, 255, 255)" d="m340-493q-15 0-26-11t-11-26q0-15 11-26t26-11h280q15 0 26 11t11 26q0 15-11 26t-26 11zm40 120q-15 0-26-11t-11-26q0-15 11-26t26-11h200q15 0 26 11t11 26q0 15-11 26t-26 11zm-269 238q-38.78 0-66.39-27.61t-27.61-66.39v-502q0-39.19 27.61-67.09 27.61-27.91 66.39-27.91h738q38.77 0 66.39 27.91 27.61 27.9 27.61 67.09v502q0 38.78-27.61 66.39-27.62 27.61-66.39 27.61zm30-596h-30v502h30zm60 502h558v-502h-558zm618-502v502h30v-502zm0 0h30zm-678 0h-30z"/></svg>