<svg height="48" viewBox="0 -960 960 960" width="48" xmlns="http://www.w3.org/2000/svg"><path fill="rgb(255, 255, 255)" d="m488-55q-115 0-197-75.5t-82-188.5v-326l-129-129q-11-11-11.5-25.5t11.5-25.5q11-12 25-12t26 12l693 693q11 11 10.5 25.5t-12.5 25.5q-11 12-24.5 11.5t-24.5-11.5l-71-71q-38 45-94 71t-120 26zm-192-503v239q1 77 57.5 127.5t135.5 50.5q46 0 86-18.5t67-52.5l-60-59q-15 21-40 35t-54 14q-51 0-86.5-33.5t-35.5-83.5v-149zm157 157v62q0 13 10.5 21.5t24.5 8.5q12 0 21-7t10-17v-1zm227 40v-333q0-19 12.5-31.5t31.5-12.5q18 0 30.5 12.5t12.5 31.5v420zm-157-158v-195q1-45-33-75t-80-30q-37 0-68 21t-42 54l-65-64q27-44 73-71t102-27q82 0 141 55t59 136v283zm-137-137v-23q1-13 9.5-21.5t22.5-8.5q15 0 25 10t10 25v84z"/></svg>