<svg height="48" viewBox="0 -960 960 960" width="48" xmlns="http://www.w3.org/2000/svg"><path fill="rgb(255, 255, 255)" d="m754-95h-565q-39.05 0-66.53-27.47-27.47-27.48-27.47-66.53v-565l-73-74q-11-10.5-11-24.95 0-14.44 10.84-24.75 9.84-10.3 24.5-10.3t25.55 10.89l810.22 810.22q10.89 10.89 10.89 25.39t-10.95 25q-10.94 10.5-24.9 10.5-13.95 0-24.15-10zm-388-372-177 177v101h469l-111-112q-6 0-12.5-2t-10.5-7zm-177-192v268l134-134zm677-112v501q0 24-14.77 36-14.78 12-32.5 12-17.73 0-32.73-11.68-15-11.69-15-35.32v-248l-102 101q-11 11-25.63 11-14.63 0-25.37-11-11-11-11-25t11.22-25.23l152.78-153.05v-151.72h-503q-23.5 0-35.25-14.77-11.75-14.78-11.75-32.5 0-17.73 11.75-32.73 11.75-15 35.25-15h503q39.46 0 67.23 27.77 27.77 27.77 27.77 67.23z"/></svg>