<svg height="48" viewBox="0 -960 960 960" width="48" xmlns="http://www.w3.org/2000/svg"><path fill="rgb(255, 255, 255)" d="m230-95q-36 0-60.5-24.5t-24.5-60.5v-356q-40-24-65-61.5t-25-93.5q0-74 49.5-124.5t123.5-50.5h504q74 0 124 50.5t50 124.5q0 56-25 93.5t-64 61.5v356q0 36-25 60.5t-61 24.5zm9-94h483v-392l35-23q22-14 38-35.5t16-56.5q0-32-23.5-53.5t-55.5-21.5h-504q-32 0-55.5 21.5t-23.5 53.5q0 35 15 56t39 36l36 23zm213-53q13 12 28.5 12t28.5-12l170-170q12-13 12-28.5t-12-28.5l-170-170q-11-11-28.5-11t-28.5 11l-170 170q-12 13-12 28.5t12 28.5zm28-72-124-124 124-124 124 124z"/></svg>