<svg height="48" viewBox="0 -960 960 960" width="48" xmlns="http://www.w3.org/2000/svg"><path fill="rgb(255, 255, 255)" d="m659-291q48 8 79.5 45.5t31.5 87.5q0 57.08-39.96 97.04-39.96 39.96-97.04 39.96-43 0-78-23.5t-46-62.5h-208q-39.8 0-66.9-27.39-27.1-27.4-27.1-67.61v-391q0-38.75 27.1-66.38 27.1-27.62 66.9-27.62h263v-179h-66q-12.75 0-21.37-8.68-8.63-8.67-8.63-21.5 0-12.82 8.63-21.32 8.62-8.5 21.37-8.5h113q19.63 0 33.81 13.62 14.19 13.63 14.19 33.38zm-292 89v-391h-66v391zm60-391v391h75q7.09-23.63 23.05-43.31 15.95-19.69 38.95-31.91v-315.78zm206.24 499q26.76 0 45.26-18.74 18.5-18.73 18.5-45.5 0-26.76-18.74-45.26-18.73-18.5-45.5-18.5-26.76 0-45.26 18.74-18.5 18.73-18.5 45.5 0 26.76 18.74 45.26 18.73 18.5 45.5 18.5zm-266.24-108v-391zm60-391v391z"/></svg>