<svg height="48" viewBox="0 -960 960 960" width="48" xmlns="http://www.w3.org/2000/svg"><path fill="rgb(255, 255, 255)" d="m343-533 83-83-59-58-29 27q-10 11-22.5 10t-22.5-10q-9-10-9-23t9-22l29-29-68-66-82 84zm360 362 83-84-69-68-28 29q-10 9-23 9t-22-10q-10-10-10-23t10-23l28-28-58-59-84 84zm4-607 70 71zm-565 683q-20 0-33.5-13.5t-13.5-33.5v-124q0-10 3-18t10-15l176-176-179-178q-21-22-21-51t21-51l98-99q21-22 50-22t51 21l181 181 172-172q10-10 22.5-15t25.5-5q13 0 25.5 5t22.5 15l93 92q10 10 15 22.5t5 25.5q0 14-5 26.5t-15 22.5l-172 171 181 181q21 22 21 51t-21 50l-98 98q-22 21-51 21t-51-21l-181-181-177 178q-7 7-15 10.5t-17 3.5zm36-83h71l360-362-70-71-361 361zm396-398-35-35 70 71z"/></svg>