<svg height="48" viewBox="0 -960 960 960" width="48" xmlns="http://www.w3.org/2000/svg"><path fill="rgb(255, 255, 255)" d="m846-667-205 205q-15 15-34 13.5t-33-15.5q-11-11-14-24.5t2-28.5l93-92-44-45-93 93q-14 7-28 3t-26-16q-14-14-14-33t14-33l204-204q9-9 22.5-15t27.5-6q13 0 26 5.5t25 14.5l77 74q10 12 15 25.5t5 27.5q0 14-5.5 27.5t-14.5 23.5zm-657 478h45l216-215-23-21-22-23-216 216zm594 117-267-266-214 215q-14 13-31.5 20.5t-36.5 7.5h-91q-20 0-33.5-13.5t-13.5-33.5v-90q0-19 7.5-36.5t20.5-31.5l215-215-268-268q-10-10-11-25t10-26q11-10 25-10t25 10l713 714q10 10 10.5 24t-9.5 24q-11 11-25.5 11t-25.5-11zm-20-647-42-43zm-152 65 44 45zm-184 229-22-23 45 44z"/></svg>