<svg height="48" viewBox="0 -960 960 960" width="48" xmlns="http://www.w3.org/2000/svg"><path fill="rgb(255, 255, 255)" d="m480-93-122 41q-7 2-14.89 3.5-7.9 1.5-15.79 1.5-37.32 0-65.82-27-28.5-27-28.5-67v-247.07l-101-159.93q-7-12-10-24.31-3-12.32-3-25.5 0-13.19 3-26.19 3-13 10-24l132-213q12-21 33.47-33 21.48-12 46.53-12h272q25.05 0 46.53 12 21.47 12 34.47 33l131 213q7 11 10 24t3 25.81q0 13.19-3 25.69-3 12.5-10 24.5l-101 159.93v247.07q0 40-28.64 67t-66.3 27q-7.06 0-15.06-1.5t-14-3.5zm0-98 153 49v-149h-306v149zm-136.12-195h272.12l132-212-131.88-213h-272.12l-132 213zm97.12-177 119-120q12-11 28-11.5t28 11.11q12 12.39 12 29.36 0 16.96-12 29.03l-142 142q-14 14-33.5 14t-33.5-14l-65-66q-12-11.93-12.5-27.97-.5-16.03 11.66-28.03t28.33-11.5q16.18.5 28.51 11.5zm39 272h-153 306z"/></svg>