<svg height="48" viewBox="0 -960 960 960" width="48" xmlns="http://www.w3.org/2000/svg"><path fill="rgb(255, 255, 255)" d="m151 0q-30.35 0-50.68-21.25-20.32-21.25-20.32-51.5t21.32-50.75q21.33-20.5 51.68-20.5h656q30.35 0 50.67 20.25 20.33 20.25 20.33 50.5t-21.33 51.75q-21.32 21.5-51.67 21.5zm444-498-111-111-148 148 112 111zm-43-180 112 112 143-143-111-112zm-102-32 247 246-173 172q-28 28-76.5 28t-76.5-28l-11-11-21 22q-14 15-32.4 23t-38.6 8h-57q-15.88 0-21.44-15-5.56-15 5.44-26l88-88-5-4q-32.23-31.84-30.62-78.42 1.62-46.58 32.62-78.58zm0 0 181-181q28-28 67.5-28t67.5 28l108 110q28 28 27.5 70t-28.5 70l-176 177z"/></svg>