<svg height="48" viewBox="0 -960 960 960" width="48" xmlns="http://www.w3.org/2000/svg"><path fill="rgb(255, 255, 255)" d="m772-524-159-160q-15-14-15-33.5t15-33.5q14-14 32.5-14t33.5 14l193 193q7 7 11 16t4 18q0 9-4 18t-11 16l-192 192q-14 14-34 14t-33-14q-15-14-15-33t14-33zm-276 47h-225q-54 0-87.5 33.5t-33.5 87.5v134q0 20-13.5 33.5t-33.5 13.5q-20 0-33.5-13.5t-13.5-33.5v-134q0-91 61.5-153t153.5-62h225l-112-114q-14-13-14-32.5t14-33.5q13-14 32.5-14t33.5 14l193 193q7 7 11 16t4 18q0 9-4 18t-11 16l-192 192q-14 14-34 14t-33-14q-14-14-14-33t14-33z"/></svg>