<svg height="48" viewBox="0 -960 960 960" width="48" xmlns="http://www.w3.org/2000/svg"><path fill="rgb(255, 255, 255)" d="m866-771v444q0 24-14.77 36-14.78 12-32.5 12-17.73 0-32.73-11.68-15-11.69-15-35.32v-445h-446q-23.5 0-35.25-14.77-11.75-14.78-11.75-32.5 0-17.73 11.75-32.73 11.75-15 35.25-15h446q39.46 0 67.23 27.77 27.77 27.77 27.77 67.23zm-677 676q-39.05 0-66.53-27.47-27.47-27.48-27.47-66.53v-562l-45-45q-11-11-11.5-25.5t11.01-25.5q11.5-12 25.74-12 14.24 0 25.75 12l747 747q11 11 11.5 24.5t-11.5 25.5q-11 11-25.5 11t-25.5-11l-46-45zm391-173h-311q-14.25 0-20.62-12.63-6.38-12.62 2.62-25.37l74-98q6-9 17-10t19 8l85 100 43-53-300-299v469h469z"/></svg>