<svg height="48" viewBox="0 -960 960 960" width="48" xmlns="http://www.w3.org/2000/svg"><path fill="rgb(255, 255, 255)" d="m146-122q-39.8 0-66.9-27.63-27.1-27.62-27.1-66.37v-27q0-40.07 21.67-74.94 21.67-34.88 60.33-53.06 72-32 137.5-47t125.5-15q17.11 0 34.5 1.25t32.5 1.75q18.12 1.55 30.56 18.64 12.44 17.08 10.44 36.63-3 17.73-20 28.73t-36 10q-16.23-1-28.62-1.5-12.38-.5-23.38-.5-54.77 0-102.89 10.5-48.11 10.5-115.75 38.24-17.16 8.19-24.76 22.02-7.6 13.83-7.6 28.24v23h317q19.75 0 33.38 13.68 13.62 13.67 13.62 33.5 0 19.82-13.62 33.32-13.63 13.5-33.38 13.5zm499-100 189-188q10-11 24-11t25 11q11 11 11 25t-11 25l-204 204q-14.45 14-33.73 14-19.27 0-33.27-14l-91-91q-11-11-11-24.5t12-24.5q10-11 24-11t25 11zm-248.2-273q-77.21 0-126-48.8-48.8-48.79-48.8-126 0-77.2 48.8-126.2 48.79-49 126-49 77.2 0 126.7 49t49.5 126.2q0 77.21-49.5 126-49.5 48.8-126.7 48.8zm0-94q35.2 0 58.2-22.85 23-22.84 23-58.11 0-35.69-22.8-58.37-22.79-22.67-58-22.67-35.2 0-58.2 22.72t-23 57.82q0 35.51 22.8 58.49 22.79 22.97 58 22.97z"/></svg>