<svg height="48" viewBox="0 -960 960 960" width="48" xmlns="http://www.w3.org/2000/svg"><path fill="rgb(255, 255, 255)" d="m719-229h155q19.63 0 33.81 13.68 14.19 13.67 14.19 33.5 0 19.82-14.19 33.32-14.18 13.5-33.81 13.5h-250zm-549 94q-8.91 0-17.24-3-8.33-3-15.76-10l-69-72q-28.17-27.97-27.08-65.48 1.08-37.52 27.08-64.52l451-483q26-27 64.6-26.5 38.6.5 66.4 27.5l189 199q28 27.97 29 66.48 1 38.52-27 65.52l-331 351q-6.98 7-15.46 11-8.47 4-17.54 4zm288.82-94 317.18-341-192-202-446 487 53 56z"/></svg>