<svg height="48" viewBox="0 -960 960 960" width="48" xmlns="http://www.w3.org/2000/svg"><path fill="rgb(255, 255, 255)" d="m583.54-846h-298.31q-13.1 0-21.66-8.5-8.57-8.5-8.57-21.5 0-12 8.57-21 8.56-9 21.66-9h358.77zm-159.54 160h-258.65q-13.15 0-21.75-8.5t-8.6-21.5q0-12 8.57-21 8.58-9 21.69-9h318.74zm-160 160h-218.58q-13.18 0-21.8-8.5-8.62-8.5-8.62-21.5 0-12 8.58-21 8.59-9 21.72-9h278.7zm298 144-111-111-188 188 111 112zm-43-179 111 112 220-220-111-112zm-102-33 247 246-213 213q-28 28-77 28t-77-28l-10-9-36.9 36.6q-7.1 6.4-15.36 9.9t-17.74 3.5h-79q-15.25 0-21.12-15-5.88-15 5.12-26l87-86-3-4q-32-31.45-31.5-79.23.5-47.77 32.5-79.77zm0 0 257-257q28.18-28 68.09-28 39.91 0 67.91 28l108 109q28 28.18 27.5 70.59-.5 42.41-28.5 70.41l-253 253z"/></svg>