<svg height="48" viewBox="0 -960 960 960" width="48" xmlns="http://www.w3.org/2000/svg"><path fill="rgb(255, 255, 255)" d="m129-34h585q59 0 85-52.5t-9-99.5l-143-191q-8-10-18-17t-21-12l-183-78-88-118q-13-18-33-28t-42-10h-133q-40 0-67.5 27.5t-27.5 66.5v417q0 40 27.5 67.5t67.5 27.5zm-12-83v-93l100 32 380-126 140 187zm100-147-100-34v-90l100 32 168-53 110 52zm572-140 112-50q19-8 30.5-25.5t11.5-38.5v-74q0-25-15-44.5t-40-25.5l-106-23q-15-3-31-.5t-29 13.5l-55 44q-14 11-20.5 25.5t-6.5 31.5v62q0 17 6.5 31.5t20.5 24.5l49 40q15 13 35 15.5t38-6.5zm-572-38-100-34v-81h150l62 78zm545-30-49-37v-61l54-43 103 22v70zm-242-170 128-51q20-8 31.5-25.5t11.5-39.5v-103q0-24-15.5-44t-40.5-25l-121-25q-14-2-28 0t-26 10l-69 47q-15 10-23 25.5t-8 32.5v91q0 18 8 33t23 25l63 42q15 10 32 12.5t34-5.5zm-28-62-65-44v-93l72-48 125 25v108z"/></svg>