<svg height="48" viewBox="0 -960 960 960" width="48" xmlns="http://www.w3.org/2000/svg"><path fill="rgb(255, 255, 255)" d="m480-139-84 62q-14 10-27.5 0t-9.5-26l32-104-84-63q-14-10-8.75-26t21.75-16h105l25-95.43-136-80.57q-24.16-14.04-37.58-37.02-13.42-22.98-13.42-50.98v-255q0-40.21 27.63-67.61 27.62-27.39 66.37-27.39h246q38.75 0 66.38 27.39 27.62 27.4 27.62 67.61v255q0 28-13.42 50.98-13.42 22.98-37.58 37.02l-137 80.57 26 95.43h104q16.5 0 21.75 16t-8.75 26l-84 63 32 104q4 16-9.5 25.5t-27.5-.5zm-134-704v265.49q0 7 4.5 13t13.5 11l90 48.51v-338zm268 0h-100v338l82-48.51q9-5 13.5-11t4.5-13z"/></svg>