<svg height="48" viewBox="0 -960 960 960" width="48" xmlns="http://www.w3.org/2000/svg"><path fill="rgb(255, 255, 255)" d="m480-188 54-55q14-14 33.45-14 19.46 0 33.55 14 14 14.13 14 33.57 0 19.43-14 33.43l-87 88q-7.17 6.91-16.19 10.95-9.03 4.05-17.92 4.05-8.89 0-17.84-4.05-8.95-4.04-16.05-10.95l-88-89q-14-14.13-13.5-32.57.5-18.43 14.5-32.93t33.32-14.5q19.32 0 33.68 14zm-292-292 55 54q14 14 14 33.45 0 19.46-14 33.55-14.13 14-33.57 14-19.43 0-33.43-14l-88-87q-6.91-7.17-10.95-16.19-4.05-9.03-4.05-17.92 0-8.89 4.05-17.84 4.04-8.95 10.95-16.05l89-88q14.13-14 32.57-13.5 18.43.5 32.93 14.5t14.5 33.32q0 19.32-14 33.68zm583 0-54-54q-14-14.36-14-33.68t14.11-33.32q14.1-14 33.5-14 19.39 0 34.39 14l87 87q6.91 7.17 10.95 16.19 4.05 9.03 4.05 17.92 0 8.89-4.05 17.84-4.04 8.95-10.95 16.05l-88 88q-15 14-33.93 13.5-18.94-.5-33.07-14.5-14-14.09-14-33.55 0-19.45 15-34.45zm-291-291-54 54q-14.36 14-33.68 14t-33.32-14.11q-14-14.1-14-33.5 0-19.39 14-34.39l87-87q7.17-6.91 16.19-10.95 9.03-4.05 17.92-4.05 8.89 0 17.84 4.05 8.95 4.04 16.05 10.95l88 88q14 15 13.5 33.93-.5 18.94-14.5 33.07-14.09 14-33.55 14-19.45 0-33.45-15z"/></svg>