<svg height="48" viewBox="0 -960 960 960" width="48" xmlns="http://www.w3.org/2000/svg"><path fill="rgb(255, 255, 255)" d="m351-95q-107 0-181.5-74.5t-74.5-181.5v-258q0-107 74.5-182t181.5-75h258q107 0 182 75t75 182v258q0 107-75 181.5t-182 74.5zm86-324-72-73q-11-10-25.5-10t-25.5 11q-11 12-11 26t11 26l89 88q14 15 33.5 15t34.5-15l189-189q11-11 11.5-25.5t-11.5-26.5q-11-11-25.5-11t-25.5 11zm-86 230h258q68 0 115-47t47-115v-258q0-68-47-115t-115-47h-258q-68 0-115 47t-47 115v258q0 68 47 115t115 47z"/></svg>