<svg height="48" viewBox="0 -960 960 960" width="48" xmlns="http://www.w3.org/2000/svg"><path fill="rgb(255, 255, 255)" d="m834-113-241-242-89 90q-14 14-34 14t-34-14l-182-183q-14-13-14-33t15-35q13-14 32.5-13.5t34.5 14.5l148 149 56-56-389-388q-11-10-11-25t11-26q11-11 26-10.5t26 11.5l697 697q10 11 10 25t-10 25q-11 11-26 11t-26-11zm-568-128-181-181q-14-14-13.5-33.5t14.5-33.5q14-15 33-15t34 15l146 146 68 69-33 33q-14 14-34 14t-34-14zm429-215-69-67 195-195q14-14 33.5-13.5t33.5 14.5q14 14 14 33.5t-14 33.5zm-97-97-68-67 96-96q14-14 33-14t34 14q14 14 14 34t-14 34z"/></svg>