<svg height="48" viewBox="0 -960 960 960" width="48" xmlns="http://www.w3.org/2000/svg"><path fill="rgb(255, 255, 255)" d="m228-246q-23-12-36-34.91-13-22.91-13-49.09v-183l-84-45q-12.71-7.53-18.86-17.86-6.14-10.33-6.14-22.95t6.29-23.83q6.28-11.22 18.71-18.36l339-186q10-6 21.81-8.5 11.81-2.5 23.29-2.5 11.49 0 23.19 3 11.71 3 22.71 8l392 213q11.71 7.12 18.36 18.45 6.64 11.32 6.64 23.55v259q0 17.42-11.98 29.21t-29.69 11.79q-17.33 0-29.33-11.79t-12-29.21v-239l-79 38.68v183.32q0 26.18-13.5 49.09-13.5 22.91-36.5 34.91l-206 111q-10 7-21.73 9-11.74 2-23.3 2t-23.26-2q-11.71-2-21.71-9zm251-197 287-157-287-154-285 154zm0 239 217-120v-140l-172 92q-10 5-21.5 8t-23.5 3q-12 0-23-3t-21-8l-173-94v142z"/></svg>