<svg height="48" viewBox="0 -960 960 960" width="48" xmlns="http://www.w3.org/2000/svg"><path fill="rgb(255, 255, 255)" d="m189-95q-39.8 0-66.9-27.1-27.1-27.1-27.1-66.9v-526q0-14.8 5-28.02 5-13.22 15-23.98l57-73q9.46-13 23.15-19.5 13.7-6.5 28.85-6.5h513q15.15 0 28.85 7 13.69 7 24.15 19l57 73q8 11.53 13.5 24.2t5.5 27.8v526q0 39.8-27.39 66.9-27.4 27.1-67.61 27.1zm9-631h565l-36.41-45h-492.59zm-9 537h582v-477h-582zm447-238-70 70q-9 8.35-9 20.17 0 11.83 8.5 19.83 8.5 8 19.83 8 11.32 0 20.67-8l76-76q14-14.73 14-34.36 0-19.64-14-33.64l-76-76q-9.35-8-20.8-8-11.46 0-19.2 8-9 8-9 19.83 0 11.82 9 20.17zm-311 4 70-70q8-8.35 8-20.17 0-11.83-8-19.83-9-8-20.46-8-11.45 0-19.54 8l-77 76q-14 14.73-14 34.36 0 19.64 14 33.64l77 76q8.09 8 19.54 8 11.46 0 20.46-8 8-8 8-19.83 0-11.82-8-20.17zm-136 234v-477z"/></svg>