<svg height="48" viewBox="0 -960 960 960" width="48" xmlns="http://www.w3.org/2000/svg"><path fill="rgb(255, 255, 255)" d="m168-55q-22 0-34.5-14.5t-12.5-32.5q0-8 3.5-17t11.5-17l689-689q7-8 16-11.5t17-3.5q18 0 33 13t15 35v329q0 20-14 33.5t-34 13.5q-20 0-33.5-13.5t-13.5-33.5v-216l-529 530h247q20 0 33.5 13.5t13.5 33.5q0 20-13.5 33.5t-33.5 13.5zm613-88-51 51q-14 13-33 13t-33-14q-15-14-15-33t15-34l50-50-51-51q-14-15-14-33.5t15-33.5q15-14 33.5-14t33.5 14l50 51 51-51q14-14 33.5-13.5t33.5 14.5q14 14 13.5 33t-13.5 33l-51 51 51 51q13 14 13 33t-14 33q-14 14-33 14t-33-13zm-499-6 529-530-156 156q-67 67-126 126.5t-117.5 118z"/></svg>