<svg height="48" viewBox="0 -960 960 960" width="48" xmlns="http://www.w3.org/2000/svg"><path fill="rgb(255, 255, 255)" d="m151-221q-39.05 0-66.53-27.77-27.47-27.77-27.47-67.23v-328q0-38.46 27.47-66.73 27.48-28.27 66.53-28.27h658q39.05 0 66.53 28.27 27.47 28.27 27.47 66.73v328q0 39.46-27.47 67.23-27.48 27.77-66.53 27.77zm0-95h658v-328h-119v134q0 12.75-8.68 21.37-8.67 8.63-21.5 8.63-12.82 0-21.32-8.63-8.5-8.62-8.5-21.37v-134h-120v134q0 12.75-8.68 21.37-8.67 8.63-21.5 8.63-12.82 0-21.32-8.63-8.5-8.62-8.5-21.37v-134h-120v134q0 12.75-8.68 21.37-8.67 8.63-21.5 8.63-12.82 0-21.32-8.63-8.5-8.62-8.5-21.37v-134h-119z"/></svg>