<svg height="48" viewBox="0 -960 960 960" width="48" xmlns="http://www.w3.org/2000/svg"><path fill="rgb(255, 255, 255)" d="m504-267 355-355-63-62-354 355zm-406-81q0 22 21.5 38t61.5 23q17 2 27.5 16t9.5 31q-1 18-14 29.5t-30 9.5q-82-13-122.5-48.5t-40.5-99.5q0-63 50.5-103t143.5-53q49-7 67.5-16t18.5-26q0-20-20.5-32.5t-65.5-20.5q-18-3-28.5-16.5t-8.5-31.5q1-18 15-29t32-8q78 15 120.5 50t42.5 88q0 48-40.5 81.5t-112.5 45.5q-63 8-95 26t-32 46zm432 178-186-186 407-406q20-20 46-19.5t46 19.5l94 94q20 20 20 46.5t-20 46.5zm-163 34q-25 5-43.5-13.5t-13.5-42.5l34-164 186 186z"/></svg>