<svg height="48" viewBox="0 -960 960 960" width="48" xmlns="http://www.w3.org/2000/svg"><path fill="rgb(255, 255, 255)" d="m592-431-28 82q-5 12-14.5 19.5t-22.5 7.5q-21 0-33-17.5t-5-37.5l135-360q4-11 14.5-18t21.5-7h29q11 0 21 7t15 18l134 358q7 21-5 39t-34 18q-15 0-26.5-8.5t-15.5-22.5l-27-78zm15-60h130l-63-189h-4zm-432 188v-509q0-17 12-29t30-12q18 0 29.5 12t11.5 29v509l24-22q13-12 29.5-12t29.5 13q12 12 11.5 29t-12.5 29l-90 90q-14 14-33.5 14t-33.5-14l-90-90q-13-12-12.5-29t13.5-30q12-12 28.5-12t29.5 12z"/></svg>