<svg height="48" viewBox="0 -960 960 960" width="48" xmlns="http://www.w3.org/2000/svg"><path fill="rgb(255, 255, 255)" d="m477-197-366-367q-13-13-13-29t14-29q13-12 29-12.5t29 12.5l366 367v-35q0-17 12-29t30-12q17 0 29 12t12 29v129q0 20-13.5 33.5t-33.5 13.5h-129q-18 0-30-12t-12-30q0-18 12-29.5t30-11.5zm32-452-76 38q-12 7-24.5 4t-21.5-12q-15-14-11-35t24-31l350-159q11-5 22.5-2.5t20.5 10.5l20 20q8 9 10 20.5t-3 22.5l-158 348q-9 20-30.5 24t-37.5-12q-10-10-12.5-23.5t4.5-26.5l34-72zm55-33 92 93 85-176-3-4z"/></svg>