<svg height="48" viewBox="0 -960 960 960" width="48" xmlns="http://www.w3.org/2000/svg"><path fill="rgb(255, 255, 255)" d="m698-165h-508q-17 0-29-12t-12-30q0-17 12-29t29-12h508l-22-23q-13-12-13.5-28.5t13.5-29.5q13-13 29-13t29 13l89 89q13 15 13 33.5t-13 32.5l-89 90q-12 13-28.5 13t-29.5-13q-14-13-14-29t14-30zm-298-362-27 81q-5 13-14.5 20t-22.5 7q-21 0-33-17t-5-37l135-361q4-11 13.5-18t21.5-7h29q12 0 22 7.5t14 18.5l134 358q8 21-5 38.5t-36 17.5q-14 0-25-8t-15-22l-27-78zm16-60h130l-63-188h-4z"/></svg>