<svg height="48" viewBox="0 -960 960 960" width="48" xmlns="http://www.w3.org/2000/svg"><path fill="rgb(255, 255, 255)" d="m480-787q-85 77-140.5 147t-81.5 131q-10 17-27 24t-36 1q-19-6-27-23t0-34q40-100 121.5-189t158.5-156q7-6 15-9.5t17-3.5q9 0 17 3.5t15 9.5q76 66 160.5 158.5t124.5 195.5q7 16-2 32t-27 21q-20 4-38-4t-27-26q-27-61-83-131t-140-147zm348 329q7 44 .5 86t-25.5 79l-218 218q-37 18-78.5 24t-84.5-1zm-267 50h121l-331 331q-22-7-41.5-17.5t-37.5-24.5zm-218 0h121l-242 240q-15-15-27-33t-22-37zm-97 0-97 97q-4-10-6.5-21t-3.5-22q-4-22 12-38t38-16z"/></svg>