<svg height="48" viewBox="0 -960 960 960" width="48" xmlns="http://www.w3.org/2000/svg"><path fill="rgb(255, 255, 255)" d="m149-95q-39.8 0-66.9-27.1-27.1-27.1-27.1-66.9v-450q0-40.21 27.1-67.61 27.1-27.39 66.9-27.39h148v-100q0-38.75 27.63-66.38 27.62-27.62 66.37-27.62h178q38.75 0 66.38 27.62 27.62 27.63 27.62 66.38v100h148q40.21 0 67.61 27.39 27.39 27.4 27.39 67.61v450q0 39.8-27.39 66.9-27.4 27.1-67.61 27.1zm242-639h178v-100h-178zm-167 95h-75v450h75zm453 450v-450h-393v450zm60-450v450h74v-450z"/></svg>