<svg height="48" viewBox="0 -960 960 960" width="48" xmlns="http://www.w3.org/2000/svg"><path fill="rgb(255, 255, 255)" d="m69-144q-22 4-38-9.5t-16-36.5v-580q0-22 16-35.5t38-10.5l174 29q17 3 28.5 15.5t11.5 29.5v524q0 18-11.5 30.5t-28.5 15.5zm321-33q-20 0-33.5-13.5t-13.5-33.5v-510q0-20 13.5-33.5t33.5-13.5h181q20 0 33.5 13.5t13.5 33.5v510q0 20-13.5 33.5t-33.5 13.5zm328 5q-17-3-28.5-15.5t-11.5-30.5v-524q0-17 11.5-29.5t28.5-15.5l174-29q21-3 37.5 10.5t16.5 35.5v580q0 23-16.5 36.5t-37.5 9.5zm-609-75 80-14v-439l-80-12zm329-23h85v-417h-85zm414 23v-465l-80 12v441zm-743 0 80-14zm329-23h85zm414 23-80-12z"/></svg>