<svg height="48" viewBox="0 -960 960 960" width="48" xmlns="http://www.w3.org/2000/svg"><path fill="rgb(255, 255, 255)" d="m687-167q-13 9-27 16.5t-29 13.5q-14 7-28 .5t-19-21.5q-4-10-1-20.5t11-17.5q12-4 23.5-10t21.5-16l-147-145v154q0 32-29 44t-52-11l-154-155h-128q-20 0-33.5-13.5t-13.5-33.5v-196q0-20 13.5-34t33.5-14h110l-191-195q-11-11-10.5-25t11.5-25q11-11 25.5-11t25.5 11l747 762q11 11 11 25t-11 25q-11 12-26 12t-26-12zm106-314q0-92-52-166.5t-136-110.5q-14-5-19-18t2-27q6-14 20-19.5t29 .5q102 43 164.5 135t62.5 206q0 38-7.5 74t-22.5 70q-9 20-22.5 24.5t-26.5-1.5q-13-5-20-16.5t-1-25.5q14-28 21-60t8-65zm-193-153q39 28 61.5 66.5t22.5 87.5q0 5-.5 11t-.5 11q-1 15-16 19.5t-27-8.5l-55-55q-7-7-10-15.5t-3-17.5v-82q0-12 9-17.5t19 .5zm-221-80q-7-7-7-17t7-17l32-32q23-23 52-11t29 43v91q0 16-15 21.5t-26-5.5zm18 386v-136l-66-67h-155v102h120z"/></svg>