<svg viewBox="69.8 0 372.4 479.03" xmlns="http://www.w3.org/2000/svg"><path fill="rgb(255, 255, 255)" d="m212.109 349.956v-41.863c0-5.686 4.611-10.297 10.297-10.297h153.435v-131.065h-163.911c-5.686 0-10.297-4.611-10.297-10.297v-40.546c0-5.687 4.611-10.297 10.297-10.297h219.973c5.686 0 10.297 4.61 10.297 10.297v352.845c0 5.686-4.611 10.297-10.297 10.297h-45.765c-5.686 0-10.297-4.611-10.297-10.297v-108.395l-153.44-.085c-5.685-.002-10.292-4.611-10.292-10.297zm-37.997-271.61v112.998h75.123c5.686 0 10.296 4.61 10.296 10.297v58.289c0 5.686-4.61 10.297-10.296 10.297h-75.123v198.506c0 5.686-4.61 10.297-10.297 10.297h-83.718c-5.686 0-10.297-4.611-10.297-10.297v-458.436c0-5.686 4.611-10.297 10.297-10.297h188.388c5.687 0 10.297 4.611 10.297 10.297v57.752c0 5.687-4.61 10.297-10.297 10.297z"/></svg>