<svg viewBox="0 0 24 24" xmlns="http://www.w3.org/2000/svg"><path fill="rgb(255, 255, 255)" d="m16.874 9.595c.273.015.617.153.825.328.173.169.195.441.051.636l-6.188 8.381c-.087.119-.224.191-.371.197-.148.006-.29-.056-.386-.168l-4.533-5.263c-.09-.105-.132-.244-.113-.382.019-.137.096-.26.212-.337.147-.099.619-.406 1.174-.522.544-.113 1.332.045 1.951.664l1.604 1.923 4.846-5.027c.15-.145.54-.375.928-.43zm-12.492 10.977h15.205v-11.409l-7.602-5.705-7.603 5.705zm-2.847 0v-11.419c0-.445.096-.867.289-1.265s.47-.734.832-1.007l7.602-5.725c.499-.384 1.073-.575 1.722-.575s1.227.191 1.731.575l7.603 5.725c.371.273.655.609.853 1.007.199.398.298.82.298 1.265v11.419c0 .803-.277 1.479-.83 2.026s-1.236.821-2.048.821h-15.205c-.804 0-1.479-.274-2.026-.821s-.821-1.223-.821-2.026z"/></svg>