<svg height="800" viewBox="0 0 192 192" width="800" xmlns="http://www.w3.org/2000/svg"><path fill="rgb(255, 255, 255)" d="m55.993 32.577c-2.53-5.826.14-12.6 5.965-15.131 21.578-8.796 47.933-8.689 68.449.254 20.481 8.929 38.955 28.518 47.213 52.835 2.421 7.982 3.88 17.125 3.88 25.465 0 31.67-18.958 60.309-42.75 74.045-23.792 13.737-57.59 15-85.5 0-18.181-11-32.637-29.129-38.668-47.943-3.03-9.449-4.503-20.507-3.978-30.577.524-10.041 3.449-20.334 8.391-32.264 2.43-5.868 9.676-8.07 15.382-5.28l39.013 19.073c5.233-5.12 14.627-9.268 22.61-9.268 8.07 0 17.581 4.238 22.779 9.435 5.197 5.198 9.435 14.709 9.435 22.779s-4.238 17.581-9.435 22.779c-5.198 5.197-14.709 9.435-22.779 9.435s-17.581-4.238-22.779-9.435c-5.197-5.198-9.435-14.709-9.435-22.779 0-.658.028-1.326.083-2l-28.318-13.844c-.123.425-.229.819-.314 1.171-.958 3.949-1.456 7.409-1.664 11.395-.415 7.963.502 14.846 2.911 22.359 4.844 15.11 13.454 26.998 28.266 35.046 21.424 13.483 43.126 11.186 62.5 0 19.375-11.186 31.25-28.832 31.25-54.127 0-6.608-.805-12.327-2.836-18.615-5.465-19.665-17.886-31.381-34.448-38.601-16.527-7.205-33.361-8.09-50.092-.242-5.826 2.53-12.6-.14-15.131-5.965zm33.492 69.938c2.299 2.3 3.145 2.699 6.515 2.699s4.216-.399 6.515-2.699c2.3-2.299 2.699-3.145 2.699-6.515s-.399-4.216-2.699-6.515c-2.299-2.3-3.145-2.699-6.515-2.699s-4.216.399-6.515 2.699c-.971.97-1.603 1.682-2.009 2.433-.09.218-.187.435-.292.65-.314.868-.398 1.884-.398 3.432 0 3.37.399 4.216 2.699 6.515z"/></svg>