<svg viewBox="0 0 1000 1000" xmlns="http://www.w3.org/2000/svg"><path fill="rgb(255, 255, 255)" d="m849.318 781.565c11.768 10.044 13.217 27.707 3.244 39.536-177.363 208.309-527.186 208.239-704.471.651-10.246-12.108-8.81-30.213 3.216-40.553.246-.295.533-.541.82-.786 5.151-4.429 11.519-6.63 17.878-6.629 6.753-.001 13.496 2.481 18.759 7.415 174.203 162.157 447.333 162.351 621.742.698 5.497-5.124 12.52-7.704 19.553-7.704 6.61 0 13.228 2.277 18.594 6.859.24.15.452.33.665.513zm65.549-344.087c0 228.97-185.893 414.865-414.864 414.868-.001 0-.002 0-.004 0-228.971 0-414.867-185.897-414.867-414.868 0-228.972 185.896-414.868 414.867-414.868 228.972 0 414.868 185.896 414.868 414.868zm-479.038 196.191 241.442-147.547c16.949-10.355 27.284-28.786 27.284-48.644 0-19.859-10.335-38.289-27.284-48.644l-241.442-147.547c-9.11-5.569-19.412-8.365-29.725-8.365-9.6 0-19.21 2.422-27.88 7.285-17.989 10.086-29.122 29.1-29.122 49.723v295.095c0 20.623 11.133 39.638 29.122 49.724 8.67 4.863 18.28 7.285 27.88 7.285 10.313 0 20.615-2.796 29.725-8.365z"/></svg>