<svg clip-rule="evenodd" fill-rule="evenodd" stroke-linejoin="round" stroke-miterlimit="2" viewBox="0 0 250 250" xmlns="http://www.w3.org/2000/svg"><path fill="rgb(255, 255, 255)" d="m185.891 75.824c8.037 4.279 13.566 12.746 13.613 22.417v119.638c-.066 13.97-11.596 25.42-25.552 25.387h-97.884c-13.976.033-25.506-11.417-25.572-25.387v-119.638c.047-9.664 5.576-18.131 13.613-22.411v-37.809c0-17.423 12.403-31.287 27.206-31.287h67.423c14.77 0 27.153 13.864 27.153 31.287zm-32.213-45.218h-57.204c-3.003 0-5.701 1.839-6.799 4.637-.073.185-.139.364-.205.529-.325.827-.49 1.707-.49 2.593v27.186c0 1.938.767 3.797 2.137 5.166 1.369 1.369 3.228 2.137 5.166 2.137h57.441c1.938 0 3.797-.768 5.166-2.137s2.137-3.228 2.137-5.166c0-8.744 0-22.774 0-27.166 0-.9-.166-1.793-.49-2.633-.073-.192-.152-.397-.238-.608-1.058-2.739-3.684-4.538-6.621-4.538zm-13.282 31.076c-4.538 0-8.269-3.731-8.269-8.269v-4.233c0-4.538 3.731-8.268 8.269-8.268 4.537 0 8.268 3.73 8.268 8.268v4.24c0 4.531-3.731 8.262-8.262 8.262zm-30.785 0h-.007c-4.531 0-8.261-3.731-8.261-8.262v-4.24c0-4.538 3.73-8.268 8.268-8.268s8.268 3.73 8.268 8.268v4.233c0 4.538-3.73 8.269-8.268 8.269zm-33.655 46.004c-.132 22.556-.45 77.411-.576 100.079-.008 1.126.175 2.231.53 3.276 1.589-14.84 9.862-27.728 21.551-35.606l-4.816-7.652c-1.704-2.835-.853-6.52 1.984-8.22 2.832-1.704 6.52-.853 8.22 1.984l5.384 8.505c5.104-1.985 10.772-3.121 16.729-3.121 5.667 0 11.336 1.136 16.725 3.121l5.387-8.505c1.7-2.837 5.385-3.688 8.22-1.984 2.832 1.7 3.685 5.385 1.985 8.22l-4.82 7.652c12.193 8.043 20.35 21.307 21.211 36.539.6-1.311.914-2.749.903-4.222-.125-22.661-.436-77.523-.562-100.086-.033-5.496-4.505-9.941-10.001-9.941-18.786.006-59.28.013-78.059.019-5.497 0-9.969 4.439-9.995 9.942zm12.153 102.618h73.705c-2.835-17.576-18.428-31.18-36.852-31.18-18.429 0-34.021 13.324-36.853 31.18zm57.588-11.699c0 3.767-3.053 6.82-6.82 6.82s-6.82-3.053-6.82-6.82 3.053-6.82 6.82-6.82 6.82 3.053 6.82 6.82zm-27.832 0c0 3.767-3.053 6.82-6.82 6.82s-6.82-3.053-6.82-6.82 3.053-6.82 6.82-6.82 6.82 3.053 6.82 6.82z"/></svg>