<svg height="48" viewBox="0 -960 960 960" width="48" xmlns="http://www.w3.org/2000/svg"><path fill="rgb(255, 255, 255)" d="m180.365-127.43c-48.654 0-89.703-16.99-123.144-50.98-33.448-33.99-50.648-75.27-51.601-123.87 0-6.78.342-13.77 1.028-20.97.686-7.19 2.056-14.22 4.112-21.07l86.344-346.4c10.965-41.81 33.315-75.9 67.05-102.28 33.744-26.38 72.039-39.57 114.89-39.57h400.884c42.851 0 81.146 13.19 114.89 39.57 33.736 26.38 56.429 60.47 68.078 102.28l86.344 345.37c1.371 7.54 2.57 14.92 3.598 22.12 1.028 7.21 1.542 14.56 1.542 22.03 0 48.64-17.125 89.76-51.375 123.36-34.257 33.61-75.729 50.41-124.418 50.41-33.564 0-64.566-8.74-93.005-26.21-28.439-17.48-49.854-41.29-64.245-71.44l-28.781-59.62c-1.37-2.74-3.344-4.63-5.921-5.65-2.577-1.03-5.743-1.54-9.498-1.54h-195.302c-3.755 0-6.921.51-9.498 1.54-2.577 1.02-4.551 2.91-5.921 5.65l-28.781 59.62c-14.391 30.15-35.833 53.96-64.327 71.44-28.494 17.47-59.475 26.21-92.943 26.21zm2.734-96.62c14.665 0 27.87-3.93 39.615-11.79 11.739-7.87 21.265-18.33 28.576-31.39l28.782-58.59c8.881-19.7 22.504-35.08 40.869-46.13 18.359-11.05 38.657-16.57 60.894-16.57h195.302c22.21 0 42.312 5.72 60.308 17.15 17.995 11.43 32.499 26.61 43.511 45.55l28.782 58.59c6.627 13.06 15.809 23.52 27.548 31.39 11.745 7.86 24.923 11.79 39.533 11.79 21.627 0 40.181-7.37 55.661-22.1 15.481-14.74 23.563-32.72 24.249-53.97 0-6.17-1.028-13.36-3.084-21.58l-86.344-344.35c-4.798-19.88-15.247-36.5-31.352-49.86-16.104-13.36-34.777-20.04-56.021-20.04h-400.884c-20.73 0-39.304 6.48-55.723 19.46s-26.969 29.79-31.649 50.44l-86.345 344.35c.686-.69-.342 6.16-3.083 20.55 0 22.01 8.007 40.37 24.022 55.06 16.007 14.69 34.952 22.04 56.833 22.04zm499.336-310.58c-6.82-7.13-11.235-17.18-11.235-27.42 0-10.21 4.284-20.27 10.939-27.5 7.128-6.82 17.185-11.23 27.423-11.23 10.207 0 20.272 4.27 27.496 10.94 6.821 7.13 11.235 17.18 11.235 27.42 0 10.21-4.283 20.27-10.939 27.5-7.127 6.82-17.184 11.23-27.422 11.23-10.207 0-20.273-4.27-27.497-10.94zm-77.093 77.1c-6.82-7.14-11.235-17.19-11.235-27.43 0-10.2 4.283-20.27 10.939-27.49 7.128-6.83 17.185-11.24 27.423-11.24 10.207 0 20.272 4.28 27.496 10.94 6.82 7.13 11.235 17.19 11.235 27.42 0 10.21-4.283 20.27-10.939 27.5-7.127 6.83-17.184 11.23-27.422 11.23-10.207 0-20.273-4.27-27.497-10.93zm0-154.19c-6.82-7.13-11.235-17.19-11.235-27.42 0-10.21 4.283-20.27 10.939-27.5 7.128-6.82 17.185-11.24 27.423-11.24 10.207 0 20.272 4.28 27.496 10.94 6.82 7.13 11.235 17.19 11.235 27.43 0 10.2-4.283 20.27-10.939 27.49-7.127 6.83-17.184 11.24-27.422 11.24-10.207 0-20.273-4.28-27.497-10.94zm-77.093 77.09c-6.82-7.13-11.235-17.18-11.235-27.42 0-10.21 4.283-20.27 10.939-27.5 7.127-6.82 17.185-11.23 27.423-11.23 10.207 0 20.272 4.27 27.496 10.94 6.82 7.13 11.235 17.18 11.235 27.42 0 10.21-4.283 20.27-10.939 27.5-7.127 6.82-17.184 11.23-27.422 11.23-10.208 0-20.273-4.27-27.497-10.94zm-216.919 107.51c-4.948 0-9.278-1.65-12.99-4.96-3.711-3.29-5.839-7.41-6.393-12.37l-2.473-23.07c-2.474.24-5.287-.25-8.456-1.51-3.157-1.23-5.697-2.79-7.628-4.69l-18.145 7.43c-4.122 1.9-8.453 2.14-12.99.56-4.535-1.47-8.172-4.27-10.928-8.4l-27.217-43.72c-2.474-4.69-3.158-9.49-2.061-14.43 1.103-4.96 3.851-8.9 8.246-11.97l17.734-11.13c-1.37-3.3-2.062-6.09-2.062-8.48 0-2.31.692-5.13 2.062-8.42l-17.734-11.14c-4.395-3.04-7.143-7-8.246-11.96-1.097-4.94-.413-9.72 2.061-14.42l27.217-43.71c2.756-3.89 6.393-6.6 10.928-8.27 4.537-1.63 8.868-1.47 12.99.43l18.145 7.42c1.931-1.9 4.471-3.55 7.628-4.78 3.169-1.24 5.982-1.82 8.456-1.82l2.473-22.68c.554-4.94 2.682-9.08 6.393-12.38 3.712-3.29 8.042-4.94 12.99-4.94h51.96c4.676 0 8.867 1.65 12.578 4.94 3.711 3.3 5.979 7.44 6.804 12.38l2.475 22.68c2.474 0 5.23.58 8.248 1.82 3.026 1.23 5.641 2.88 7.834 4.78l17.734-7.42c4.403-1.9 8.867-2.06 13.401-.43 4.537 1.67 8.043 4.38 10.516 8.27l27.218 43.71c2.755 4.7 3.579 9.48 2.474 14.42-1.097 4.96-3.843 8.92-8.248 11.96l-17.732 11.14c1.378 3.29 2.062 6.11 2.062 8.42 0 2.39-.684 5.18-2.062 8.48l17.732 11.13c4.405 3.07 7.151 7.01 8.248 11.97 1.105 4.94.281 9.74-2.474 14.43l-27.218 43.72c-2.473 4.13-5.979 6.93-10.516 8.4-4.534 1.58-8.998 1.34-13.401-.56l-17.734-7.43c-2.193 1.9-4.808 3.46-7.834 4.69-3.018 1.26-5.774 1.75-8.248 1.51l-2.475 23.07c-.825 4.96-3.093 9.08-6.804 12.37-3.711 3.31-7.902 4.96-12.578 4.96zm25.98-86.19c14.303 0 26.261-4.78 35.878-14.44 9.625-9.64 14.433-21.68 14.433-36.27 0-14.28-4.808-26.25-14.433-35.9-9.617-9.64-21.717-14.41-36.29-14.41-14.292 0-26.187 4.77-35.671 14.41-9.485 9.65-14.227 21.7-14.227 36.3 0 14.28 4.742 26.23 14.227 35.87 9.484 9.66 21.518 14.44 36.083 14.44z"/></svg>