<?xml version="1.0" encoding="utf-8"?>
<svg viewBox="0 0 48 48" xmlns="http://www.w3.org/2000/svg">
  <path fill="rgb(255, 255, 255)" d="M 19.893 8.388 C 18.718 7.214 16.813 7.214 15.639 8.388 C 12.225 11.802 5.567 18.46 2.155 21.872 C 0.98 23.048 0.98 24.952 2.155 26.128 C 5.567 29.54 12.225 36.198 15.639 39.611 C 16.813 40.786 18.718 40.786 19.893 39.611 C 23.306 36.199 29.965 29.54 33.377 26.128 C 33.942 25.563 34.259 24.798 34.259 24 C 34.259 23.202 33.942 22.437 33.377 21.872 C 29.965 18.46 23.306 11.801 19.893 8.388 Z M 32.279 7.873 C 31.389 6.984 29.945 6.984 29.055 7.873 C 29.054 7.873 29.054 7.873 29.054 7.875 C 28.626 8.302 28.387 8.881 28.387 9.486 C 28.385 10.092 28.626 10.671 29.054 11.099 C 31.862 13.908 37.617 19.662 40.39 22.436 C 41.255 23.3 41.255 24.7 40.39 25.564 C 37.617 28.338 31.862 34.092 29.054 36.9 C 28.626 37.329 28.385 37.908 28.387 38.513 C 28.387 39.119 28.626 39.698 29.054 40.125 C 29.054 40.126 29.054 40.126 29.055 40.126 C 29.945 41.016 31.389 41.016 32.279 40.126 L 45.541 26.865 C 47.122 25.283 47.122 22.717 45.541 21.135 C 41.774 17.369 35.283 10.877 32.279 7.873 Z" style=""/>
</svg>