<svg height="48" viewBox="0 0 48 48" width="48" xmlns="http://www.w3.org/2000/svg"><path fill="rgb(255, 255, 255)" d="m24 6c-9.941 0-18 8.059-18 18s8.059 18 18 18 18-8.059 18-18-8.059-18-18-18zm3.972 4.296c-.351 1.164-1.012 3.457-1.803 5.36-.836 2.022-1.477 3.119-2.169 4.434-.692-1.315-1.333-2.412-2.169-4.434-.791-1.903-1.461-4.225-1.809-5.378.642-.536 1.296-1.378 3.978-1.378s3.328.89 3.972 1.396zm-8.338 6.271c.84 2.02 1.162 3.248 1.602 4.668-1.42-.44-2.647-.762-4.668-1.602-1.905-.788-4.022-1.954-5.084-2.524.075-.833-.058-1.892 1.838-3.788s2.984-1.723 3.797-1.821c.575 1.072 1.728 3.162 2.515 5.067zm15.045-3.246c1.896 1.896 1.763 2.955 1.838 3.788-1.062.57-3.179 1.737-5.083 2.524-2.021.84-3.249 1.162-4.669 1.602.44-1.42.762-2.647 1.602-4.668.788-1.905 1.954-4.022 2.524-5.084.833.075 1.892-.058 3.788 1.838zm-19.022 8.51c2.022.836 3.119 1.477 4.434 2.169-1.315.692-2.412 1.333-4.434 2.169-1.903.791-4.225 1.461-5.378 1.809-.536-.642-1.378-1.296-1.378-3.978s.89-3.328 1.396-3.972c1.164.351 3.457 1.012 5.36 1.803zm23.444 2.169c0 2.682-.842 3.336-1.378 3.978-1.153-.348-3.475-1.018-5.377-1.809-2.023-.836-3.12-1.477-4.435-2.169 1.315-.692 2.412-1.333 4.434-2.169 1.903-.791 4.225-1.461 5.378-1.809.536.642 1.378 1.296 1.378 3.978zm-19.466 7.432c-.788 1.905-1.954 4.022-2.524 5.084-.833-.075-1.892.058-3.788-1.838s-1.723-2.984-1.821-3.797c1.072-.575 3.162-1.728 5.067-2.515 2.02-.84 3.248-1.162 4.668-1.602-.44 1.42-.762 2.647-1.602 4.668zm11.798-3.066c1.906.788 4.022 1.954 5.084 2.524-.075.833.058 1.892-1.838 3.788s-2.984 1.723-3.797 1.821c-.575-1.072-1.728-3.162-2.515-5.067-.84-2.02-1.162-3.248-1.602-4.668 1.42.44 2.648.762 4.668 1.602zm-5.263 3.978c.791 1.903 1.461 4.225 1.809 5.378-.642.536-1.296 1.378-3.978 1.378s-3.328-.89-3.972-1.396c.351-1.164 1.012-3.457 1.803-5.36.836-2.022 1.477-3.119 2.169-4.434.692 1.315 1.333 2.412 2.169 4.434zm18.73-8.344c0 5.707-2.389 11.046-6.121 14.779-3.733 3.732-9.072 6.121-14.779 6.121s-11.046-2.389-14.779-6.121c-3.732-3.733-6.121-9.072-6.121-14.779s2.389-11.046 6.121-14.779c3.733-3.732 9.072-6.121 14.779-6.121s11.046 2.389 14.779 6.121c3.732 3.733 6.121 9.072 6.121 14.779zm-34.406 13.506c-3.506-3.506-5.594-8.167-5.594-13.506 0 5.339 2.088 10 5.594 13.506zm13.506-32.606c5.339 0 10 2.088 13.506 5.594-3.506-3.506-8.167-5.594-13.506-5.594z"/></svg>