<svg viewBox="0 0 512 512" xmlns="http://www.w3.org/2000/svg"><path fill="rgb(255, 255, 255)" d="m446.487 251.001c2.824 2.759 4.965 7.644 5.321 11.368v45.652c-.269 3.797-2.507 8.655-5.305 11.355-5.565 4.613-17.115 13.303-35.119 22.738v.755c-.173 6.928-2.612 14.293-6.322 18.973-3.806 4.802-10.627 8.633-16.87 8.633-6.23 0-13.05-3.787-16.863-8.581-3.715-4.669-6.156-12.039-6.329-19.025v-109.424c.173-6.928 2.612-14.293 6.322-18.973 3.806-4.802 10.627-8.633 16.87-8.633 3.76 0 7.781 1.392 11.192 3.543.257-40.005-15.702-75.085-41.964-101.361-26.266-26.28-61.351-42.005-101.42-42.005-40.011 0-75.097 15.726-101.377 42.007-26.276 26.275-42.263 61.351-42.007 101.352 3.399-2.144 7.412-3.536 11.192-3.536 6.23 0 13.05 3.787 16.863 8.581 3.715 4.669 6.156 12.039 6.329 19.025v109.424c-.173 6.928-2.612 14.293-6.322 18.973-3.806 4.802-10.627 8.633-16.87 8.633-6.23 0-13.05-3.787-16.863-8.581-3.715-4.669-6.156-12.039-6.329-19.025v-.755c-18.004-9.435-29.693-18.244-35.258-22.857-2.698-2.702-4.875-7.391-5.166-11.236v-45.652c.292-3.962 2.725-8.858 5.5-11.51 2.375-1.808 4.8-3.761 8.556-6.466v-34.993c.262-49.781 20.661-95.98 53.217-128.536 32.555-32.556 78.754-53.217 128.535-53.217s95.98 20.661 128.536 53.217 52.955 78.755 53.217 128.536v34.949c3.847 2.702 6.304 4.591 8.734 6.652zm-329.997 197.887h279.02c8.596 0 15.682 7.881 15.682 17.733 0 9.72-6.97 17.733-15.682 17.733h-279.02c-8.596 0-15.682-7.882-15.682-17.733 0-9.852 6.97-17.733 15.682-17.733zm200.843-13.649c-11.5 0-20.793-9.293-20.793-20.793v-222.471c0-11.5 9.293-20.793 20.793-20.793h10.355c11.5 0 20.793 9.293 20.793 20.793v222.471c0 11.5-9.293 20.793-20.793 20.793zm-66.136 0c-11.5 0-20.793-9.293-20.793-20.793v-222.471c0-11.5 9.293-20.793 20.793-20.793h9.49c11.5 0 20.793 9.293 20.793 20.793v222.471c0 11.5-9.293 20.793-20.793 20.793zm-66.885 0c-11.5 0-20.793-9.293-20.793-20.793v-222.471c0-11.5 9.293-20.793 20.793-20.793h10.355c11.5 0 20.793 9.293 20.793 20.793v222.471c0 11.5-9.293 20.793-20.793 20.793z"/></svg>