<svg viewBox="0 0 255.93 281.88" xmlns="http://www.w3.org/2000/svg"><path fill="rgb(255, 255, 255)" d="m124.442 134.446c-4.086-4.411-5.557-6.166-14.206-11.597l-55.909-32.26c-1.393-.804-2.251-2.29-2.251-3.898s.858-3.093 2.25-3.897l64.014-36.953c3.491-2.302 6.348-3.23 9.479-3.23.049 0 .097 0 .146.001.049-.001.097-.001.146-.001 3.131 0 5.988.928 9.479 3.23l64.014 36.953c1.392.804 2.25 2.289 2.25 3.897s-.858 3.094-2.251 3.898l-55.909 32.26c-8.649 5.431-10.12 7.186-14.206 11.597-.852.919-2.049 1.441-3.302 1.441-.074 0-.148-.002-.221-.005-.073.003-.147.005-.221.005-1.253 0-2.45-.522-3.302-1.441zm12.006 34.221c.111-11.458 3.115-20.654 17.536-30.835l54.804-31.618c1.392-.803 3.107-.803 4.499.001s2.25 2.289 2.25 3.896v.036c.003.07.005.141.005.212l-.001 16.562.014 53.429c.047.736.066 1.451.056 2.146-.01 2.642-.447 4.774-1.333 6.725-.197.45-.417.885-.661 1.307-1.503 2.603-3.621 4.561-7.094 6.365-.17.09-.343.178-.517.266l-62.361 35.96c-.442.255-.916.429-1.402.522-1.176.355-2.465.217-3.555-.413-1.39-.804-2.246-2.289-2.246-3.895l.005-60.648c.001-.013.001-.016.001-.017 0 0 0 0 0-.001zm-24.163 64.452-62.361-35.96c-.174-.088-.347-.176-.517-.266-3.473-1.804-5.591-3.762-7.094-6.365-.244-.422-.464-.857-.661-1.307-.886-1.951-1.323-4.083-1.333-6.725-.01-.695.009-1.41.056-2.146l.014-53.429-.001-16.562c0-.071.002-.142.005-.212v-.036c0-1.607.858-3.092 2.25-3.896s3.107-.804 4.499-.001l54.804 31.618c14.421 10.181 17.425 19.377 17.536 30.835v.001c0 .001 0 .004.001.017l.005 60.648c0 1.606-.856 3.091-2.246 3.895-1.09.63-2.379.768-3.555.413-.486-.093-.96-.267-1.402-.522zm-80.883-155.761-14.569-8.405c-1.282-.74-2.119-2.063-2.237-3.539s.498-2.916 1.647-3.85c0 .011-.001.02-.001.03.075-.069.152-.134.232-.198v.002c.176-.209.483-.524 1.013-.927.583-.443 1.59-1.062 3.686-2.247l87.839-50.669c5.955-3.518 12.457-5.276 18.953-5.252 6.496-.024 12.998 1.734 18.953 5.252l87.839 50.669c2.096 1.185 3.103 1.804 3.686 2.247.53.403.837.718 1.013.927 0-.001 0-.001 0-.002.08.064.157.129.232.198 0-.01-.001-.019-.001-.03 1.149.934 1.765 2.374 1.647 3.85s-.955 2.799-2.237 3.539l-14.569 8.405c-1.583.913-3.546.773-4.976-.319-.18-.122-.352-.259-.515-.409-1.095-1.033-1.695-1.666-2.378-2.238-.439-.357-.92-.704-1.561-1.111-.511-.316-1.136-.672-1.945-1.109l-67.907-39.053c-5.292-2.935-11.285-4.427-17.281-4.456-5.996.029-11.989 1.521-17.281 4.456l-67.907 39.053c-.809.437-1.434.793-1.945 1.109-.641.407-1.122.754-1.561 1.111-.683.572-1.283 1.205-2.378 2.238-.163.15-.335.287-.515.409-1.43 1.092-3.393 1.232-4.976.319zm82 199.741c-.293-.065-.699-.182-1.184-.379-.467-.189-1.28-.644-3.09-1.722l-87.822-50.677c-11.824-6.647-18.844-18.51-18.808-32.051 0-.106.001-.212.002-.319v-101.354c.004-.35.01-1.372.048-2.297.081-1.564.969-2.974 2.345-3.722s3.042-.726 4.398.056l14.305 8.255c1.601.924 2.475 2.734 2.202 4.562-.168 1.078-.244 1.434-.289 1.841-.06.539-.096 1.215-.118 2.932l-.003 77.904c.001.043.001.087.002.13l.005-.002c.005.349.015.697.031 1.045.193 3.92 1.054 7.776 2.491 11.399 2.916 7.296 8.197 13.656 14.996 17.695l67.906 39.034c2.784 1.721 2.917 1.586 5.637 2.472 1.811.628 3.025 2.334 3.025 4.251v16.622c0 1.522-.769 2.94-2.044 3.771-.889.579-1.941.818-2.969.7-.358-.006-.716-.054-1.066-.146zm117.133-96.843.005.002c.001-.043.001-.087.002-.13l-.003-77.904c-.022-1.717-.058-2.393-.118-2.932-.045-.407-.121-.763-.289-1.841-.273-1.828.601-3.638 2.202-4.562l14.305-8.255c1.356-.782 3.022-.804 4.398-.056s2.264 2.158 2.345 3.722c.038.925.044 1.947.048 2.297v101.354c.001.107.002.213.002.319.036 13.541-6.984 25.404-18.808 32.051l-87.822 50.677c-1.81 1.078-2.623 1.533-3.09 1.722-.485.197-.891.314-1.184.379-.35.092-.708.14-1.066.146-1.028.118-2.08-.121-2.969-.7-1.275-.831-2.044-2.249-2.044-3.771v-16.622c0-1.917 1.214-3.623 3.025-4.251 2.72-.886 2.853-.751 5.637-2.472l67.906-39.034c6.799-4.039 12.08-10.399 14.996-17.695 1.437-3.623 2.298-7.479 2.491-11.399.016-.348.026-.696.031-1.045z" stroke-linejoin="round" stroke-width="9"/></svg>