<svg viewBox="0 0 48 48" xmlns="http://www.w3.org/2000/svg"><path fill="rgb(255, 255, 255)" d="m38.885 32.772c1.15-1.151 1.282-3.174 1.282-8.772 0-5.597-.132-7.62-1.282-8.77-1.151-1.153-3.175-1.293-8.774-1.286h-12.222c-5.599-.007-7.623.133-8.774 1.286-1.15 1.15-1.282 3.173-1.282 8.77 0 5.598.132 7.621 1.282 8.772 1.151 1.152 3.175 1.292 8.774 1.286h12.222c5.599.006 7.623-.134 8.774-1.286zm7.835-8.773c0 6.113-2.667 12.078-6.655 16.066-3.987 3.987-9.953 6.655-16.066 6.655s-12.078-2.668-16.065-6.655c-3.988-3.988-6.655-9.953-6.655-16.066s2.667-12.078 6.655-16.066c3.987-3.987 9.952-6.654 16.065-6.654s12.107 2.638 16.066 6.654c4.017 3.959 6.655 9.953 6.655 16.066zm-27.914-.587h10.498c1.161 0 2.103.749 2.102 1.672 0 .923-.941 1.671-2.102 1.671h-10.498c-1.161 0-2.102-.748-2.102-1.671-.001-.923.941-1.672 2.102-1.672zm-4.725 5.228h19.838c1.161 0 2.102.748 2.102 1.671.001.923-.941 1.672-2.102 1.672h-19.838c-1.161 0-2.103-.749-2.102-1.672 0-.923.941-1.671 2.102-1.671z"/></svg>