<svg viewBox="0 0 24 24" xmlns="http://www.w3.org/2000/svg"><path fill="rgb(255, 255, 255)" d="m21.35 1.53c.04 0 .221.025.434.061.475.137 1.048.465 1.304.812.255.347.397 1.126.392 1.609l-2.728 16.68c-.126.435-.446 1.064-.749 1.314-.304.252-.956.447-1.373.494h-13.05c-.487-.053-1.198-.281-1.534-.57-.335-.288-.667-.948-.796-1.415 0 0-2.73-16.5-2.73-16.5-.013-.081-.02-.163-.02-.245v-.12c.069-.489.331-1.215.633-1.517s1.03-.564 1.519-.633zm-17.709 2.972 2.482 14.998h11.784l2.449-14.972zm11.459 12.948h-6.16c-.746 0-1.379-.548-1.485-1.287l-1.13-7.88c-.062-.431.067-.867.352-1.195.284-.329.698-.518 1.133-.518h8.3c.431 0 .841.185 1.126.509s.417.754.362 1.182l-1.01 7.88c-.096.748-.733 1.309-1.488 1.309zm-.695-7.88h-4.865l.7 4.88h3.54z"/></svg>