<svg viewBox="0 0 48 48" xmlns="http://www.w3.org/2000/svg"><path fill="rgb(255, 255, 255)" d="m36.707 43.802h-1.126l.021.966c0 1.068-.864 1.932-1.932 1.932-1.067 0-1.931-.864-1.931-1.932l-.021-.966h-3.926l.021.966c0 1.068-.864 1.932-1.932 1.932-1.067 0-1.931-.864-1.931-1.932l-.021-.966h-3.848l.021.966c0 1.068-.865 1.932-1.932 1.932s-1.932-.864-1.932-1.932l-.021-.966h-3.869l.021.966c0 1.068-.864 1.932-1.933 1.932-1.067 0-1.932-.864-1.932-1.932l-.021-.97c-1.447-.098-3.107-.763-4.036-1.692-.944-.944-1.614-2.638-1.698-4.099v-30.911c.084-1.461.755-3.156 1.698-4.098.942-.943 2.636-1.613 4.098-1.698h30.91c1.462.085 3.156.755 4.098 1.698.943.942 1.614 2.637 1.698 4.098v23.183c-.084 1.461-.755 3.156-1.698 4.098-.942.943-2.636 1.613-4.098 1.698h-1.921v.517c0 1.067-.864 1.931-1.932 1.931-1.067 0-1.931-.864-1.931-1.931v-.517h-3.849v.517c0 1.067-.864 1.931-1.932 1.931-1.067 0-1.931-.864-1.931-1.931v-.517h-3.869v.517c0 1.067-.865 1.931-1.932 1.931-1.068 0-1.932-.864-1.932-1.931v-.517h-1.953c-1.462-.085-3.156-.755-4.099-1.698-.942-.942-1.613-2.637-1.698-4.098v-19.319c0-1.067.865-1.933 1.932-1.933 1.068 0 1.932.866 1.932 1.933v5.795h3.886v-5.795c0-1.067.864-1.933 1.932-1.933 1.067 0 1.932.866 1.932 1.933v5.795h3.869v-5.795c0-1.067.864-1.933 1.931-1.933 1.068 0 1.932.866 1.932 1.933v5.795h3.848v-5.795c0-1.067.865-1.933 1.932-1.933s1.932.866 1.932 1.933v5.795h3.853v-9.659c.085-.672-.11-.91-.566-1.366s-.694-.649-1.366-.566h-30.91c-.672-.083-.91.11-1.366.566s-.651.694-.566 1.366v30.911c-.085.673.11.91.565 1.366.456.455.693.65 1.367.565h23.182c.003 0 .005.001.007.001h4.973c1.067 0 1.932.864 1.932 1.931 0 1.068-.865 1.932-1.932 1.932zm-6.912-11.591h3.865l.006-3.865h-3.864zm7.728 0h2.442c.327-.058.538-.248.856-.566.317-.317.507-.528.566-.854v-2.445h-3.858zm-23.183-1.932c0 .003-.001.005-.001.008v.496c.057.33.247.542.567.862.318.318.53.508.856.566h2.442l.006-3.865h-3.87zm7.728 1.932h3.863l.006-3.865h-3.863zm7.745-11.593-.006 3.864h3.864l.006-3.864zm7.727 0-.006 3.864h3.853v-3.864zm-19.325 3.864.006-3.864h-3.881v3.864zm3.871-3.864-.007 3.864h3.865l.006-3.864z"/></svg>