<svg height="48" viewBox="0 -960 960 960" width="48" xmlns="http://www.w3.org/2000/svg"><path fill="rgb(255, 255, 255)" d="m479.61-866q80.39 0 149.89 29 69.5 29 121.5 79 25.68 24.78 46.93 53.53t36.07 61.47q17 40 22.5 80.5t4.5 91.5q0 19.93-13.5 33.96-13.5 14.04-33.67 14.04-19.33 0-32.08-14.62t-12.75-33.58q2-17.8.96-29.97-1.04-12.16-2.21-23.83h-116.75q1 13 1.5 25.5t.5 32.5q-1 19-12.97 31.5-11.96 12.5-30.5 12.5-17.53 0-30.53-13t-13-30.74q0-20.26.5-32.76.5-12.5-.52-25.5h-170.98q-1 13-1.5 25.5t-.5 32.76q0 17.74-12.59 30.74t-29.41 13q-19 0-31-12.5t-13-31.24q-1-20.26-.5-32.76.5-12.5 1.5-25.5h-114q-1.67 11.67-2.83 23.83-1.17 12.17.83 30.97 0 18.96-12.75 33.08-12.75 14.12-32.08 14.12-20.17 0-33.67-14t-13.5-33q-1-51 4.5-92t23.5-81q14-33 35-61.5t47-53.5q52-50 121.11-79 69.1-29 148.5-29zm-259.61 262h98.14q5.86-39 17.36-70.5t34.5-68.5q-53 18-91 53t-59 86zm183 0h155q-8-47-29.5-88.5t-48.5-80.5q-28 38-49 79.8-21 41.79-28 89.2zm237.94 0h101.06q-21-49-60-84.5t-92-54.5q24 37 35 69t15.94 70zm-161.03 509q-19.91 0-33.41-13.5-13.5-13.5-13.5-33.5 0-67.67-34.96-105.83-34.96-38.17-87.04-38.17h-210q-20 0-33-13.5t-13-33.41q0-19.91 13.5-33.5t33.5-13.59h209q51 0 95 21t74 60q30-39 73.5-60t94.5-21h211q19.88 0 33.44 13.5 13.56 13.5 13.56 34t-13.56 33.5q-13.56 13-33.44 13h-211q-50.67 0-85.83 39.17-35.17 39.16-35.17 105.83 0 20-13.59 33t-33.5 13z"/></svg>