<?xml version="1.0" encoding="utf-8"?>
<svg viewBox="0 0 512 451" xmlns="http://www.w3.org/2000/svg">
  <path fill="rgb(255, 255, 255)" d="M 150.698 36.048 L 150.717 36.063 C 188.542 64.48 228.451 113.468 256.012 155.142 C 283.57 113.485 323.47 64.47 361.283 36.063 L 361.302 36.048 C 380.024 22.006 403.822 9.752 424.879 5.836 C 445.396 2.019 463.96 5.616 477.999 16.447 C 491.635 26.968 503.121 45.699 503.121 78.424 C 503.121 92.499 494.678 196.853 489.986 213.815 L 489.96 213.912 C 480.91 246.204 461.451 268.376 436.858 281.966 C 441.217 286.952 444.744 292.13 447.463 297.403 C 463.014 327.568 457.86 365.274 422.252 401.822 C 385.701 439.354 353.901 448.694 328.9 446.286 C 303.12 443.802 281.729 428.54 265.618 407.606 C 262.152 403.103 258.943 398.344 255.982 393.484 C 253.03 398.322 249.832 403.062 246.379 407.547 C 230.273 428.469 208.889 443.734 183.115 446.231 C 158.111 448.653 126.311 439.333 89.755 401.83 L 89.75 401.825 C 54.14 365.276 48.985 327.569 64.537 297.403 C 67.25 292.143 70.767 286.976 75.112 282 C 50.534 268.428 31.087 246.278 22.04 213.996 L 22.014 213.9 C 17.322 196.938 8.879 92.588 8.879 78.424 C 8.879 45.699 20.365 26.968 34.001 16.447 C 48.04 5.616 66.604 2.019 87.121 5.836 C 108.177 9.752 131.976 22.006 150.698 36.048 Z M 167.942 237.666 C 167.972 237.661 168.044 237.648 168.05 237.647 C 184.229 234.896 199.577 245.779 202.332 261.958 C 205.088 278.138 194.209 293.488 178.03 296.248 C 178.025 296.25 177.949 296.262 177.916 296.268 C 156.695 299.885 140.05 305.546 128.421 313.426 C 121.802 317.91 117.003 322.674 115.982 328.731 C 114.283 338.801 121.279 349.002 132.326 360.34 C 150.85 379.343 164.713 388.291 177.384 387.063 C 190.239 385.817 198.27 373.874 205.208 362.643 C 209.14 356.278 212.478 349.641 215.28 343.347 C 222.253 327.754 237.734 317.713 254.815 317.703 C 258.097 317.696 261.396 317.693 264.565 317.691 C 277.662 317.684 289.477 325.558 294.509 337.65 C 297.958 345.982 302.282 355.396 306.796 362.706 C 313.729 373.936 321.751 385.877 334.601 387.114 C 347.274 388.336 361.138 379.373 379.667 360.346 L 379.672 360.341 C 390.72 349.003 397.717 338.802 396.018 328.731 C 394.997 322.674 390.198 317.91 383.579 313.426 C 371.95 305.546 355.305 299.885 334.084 296.268 C 334.051 296.262 333.975 296.25 333.97 296.248 C 317.791 293.488 306.912 278.138 309.668 261.958 C 312.423 245.779 327.771 234.896 343.95 237.647 C 343.956 237.648 344.028 237.661 344.058 237.666 C 379.774 243.736 421.635 237.28 432.718 197.875 C 436.861 182.625 443.676 90.82 443.676 78.424 C 443.676 72.722 442.079 66.245 441.457 63.936 C 440.1 63.92 437.643 63.939 436.021 64.228 C 429.634 65.368 422.884 68.103 416.294 71.472 C 409.477 74.957 402.867 79.181 396.978 83.597 C 350.67 118.393 301.052 189.042 282.75 226.83 C 277.781 237.087 267.385 243.6 255.988 243.596 C 244.59 243.592 234.199 237.07 229.24 226.808 C 210.941 188.949 161.33 118.397 115.031 83.604 L 115.011 83.59 C 106.366 77.108 96.163 70.992 86.055 67.146 C 82.119 65.649 78.231 64.494 74.51 63.998 C 73.353 63.845 71.621 63.875 70.534 63.917 C 69.942 66.182 68.324 72.876 68.324 78.424 C 68.324 90.914 75.155 182.924 79.3 198.026 C 90.372 237.363 132.232 243.735 167.942 237.666 Z"/>
</svg>