<svg clip-rule="evenodd" fill-rule="evenodd" stroke-linejoin="round" stroke-miterlimit="2" viewBox="0 0 1042 1042" xmlns="http://www.w3.org/2000/svg"><path fill="rgb(255, 255, 255)" d="m284.084 355.129-39.517-39.516v410.78l56.263-56.263c.007-.345.017-.691.03-1.037.316-9.379 2.476-17.999 6.009-25.753 2.382-5.459 5.375-10.516 8.813-14.891.066-.084.131-.167.197-.25v-214.406c-.066-.083-.131-.166-.197-.25-3.37-4.289-6.313-9.232-8.67-14.567-3.632-7.864-5.847-16.625-6.155-26.172-.011-.309-.02-.618-.027-.927zm344.365-39.439c4.159-3.268 8.934-6.134 14.085-8.455 8.242-3.884 17.481-6.209 27.589-6.398l56.267-56.262h-410.777l56.257 56.257c4.671.09 9.156.639 13.443 1.589 4.801 1.055 9.353 2.611 13.639 4.588 5.345 2.359 10.297 5.305 14.592 8.681.082.064.163.129.245.193h214.415c.082-.064.163-.129.245-.193zm112.367 61.899c-.777 7.687-2.806 14.821-5.809 21.34-2.362 5.357-5.313 10.321-8.696 14.625-.066.084-.131.167-.197.25v214.405c.066.083.131.166.197.25 3.341 4.251 6.261 9.146 8.608 14.428 3.041 6.547 5.099 13.718 5.889 21.45.172 1.662.284 3.348.334 5.061.008.242.015.484.02.726l53.385 53.39 2.879 2.879v-410.78l-56.264 56.263c-.005.253-.012.506-.021.76-.05 1.675-.159 3.327-.325 4.953zm-123.973 239.258v-191.689h-191.693v191.689zm333.834-441.725c.766 4.881 1.168 9.837 1.168 14.818v.004c0 1.603-.042 3.205-.123 4.804-.554 11.645-3.106 22.572-7.24 32.593-3.019 7.529-6.869 14.568-11.364 20.816-3.731 5.187-7.691 9.748-11.898 13.794-.988.951-1.99 1.875-3.006 2.771-3.694 3.297-7.533 6.215-11.526 8.798v494.951c4.072 2.638 7.984 5.625 11.745 9.007.838.744 1.667 1.507 2.486 2.289 4.319 4.116 8.379 8.77 12.199 14.081 4.701 6.534 8.696 13.933 11.773 21.853 3.901 9.758 6.307 20.359 6.835 31.635.079 1.573.119 3.149.119 4.725v.003.002.003.002c0 26.868-11.684 53.023-29.226 70.557-17.535 17.534-43.682 29.227-70.558 29.227-1.644 0-3.286-.044-4.926-.13-11.825-.575-22.909-3.211-33.054-7.471-7.309-2.984-14.146-6.752-20.232-11.134-1.735-1.248-3.401-2.522-5-3.822-4.65-3.774-8.744-7.77-12.383-12.005-2.964-3.408-5.613-6.937-7.98-10.596h-494.958c-2.382 3.676-5.049 7.222-8.034 10.644-4.881 5.676-10.581 10.92-17.341 15.779-6.616 4.763-14.12 8.802-22.152 11.895-9.563 3.788-19.931 6.141-30.947 6.7-1.702.093-3.408.14-5.114.14-10.947 0-21.776-1.941-31.952-5.428-14.802-5.068-28.222-13.407-38.614-23.804-17.534-17.534-29.226-43.681-29.226-70.557 0-.001 0-.002 0-.002 0-.001 0-.002 0-.003 0-1.252.025-2.503.075-3.751.015-.371.032-.741.051-1.111.538-11.145 2.911-21.629 6.748-31.289 3.09-7.998 7.115-15.471 11.861-22.062 4.526-6.296 9.385-11.673 14.617-16.326 3.779-3.404 7.71-6.408 11.804-9.06v-494.953c-3.396-2.197-6.682-4.637-9.861-7.346-5.977-5.027-11.479-10.937-16.56-18.006-4.389-6.096-8.162-12.946-11.148-20.268-4.283-10.209-6.921-21.369-7.471-33.277-.077-1.554-.116-3.111-.116-4.668 0-.001 0-.003 0-.004s0-.003 0-.004c0-.002 0-.003 0-.005 0-26.867 11.684-53.023 29.226-70.557 17.534-17.534 43.681-29.227 70.557-29.227 2.025 0 4.049.066 6.068.196 10.665.643 20.715 2.969 30.004 6.648 4.837 1.864 9.483 4.071 13.859 6.572 2.889 1.65 5.66 3.428 8.291 5.321 3.476 2.501 6.671 5.104 9.618 7.815 2.491 2.29 4.806 4.657 6.964 7.105 3.294 3.687 6.211 7.52 8.794 11.505h494.957c2.427-3.75 5.148-7.364 8.201-10.851 4.838-5.6 10.476-10.781 17.153-15.584 6.325-4.55 13.461-8.44 21.095-11.475 9.602-3.926 20.031-6.401 31.125-7.061 1.993-.126 3.993-.191 5.993-.191 18.825 0 37.301 5.741 52.706 15.209 4.429 2.721 8.603 5.751 12.46 9.041 1.875 1.599 3.674 3.26 5.391 4.977.435.435.867.876 1.295 1.322 13.627 14.183 23.508 33.625 26.772 54.426zm-537.133 551.193c-4.302 3.38-9.262 6.33-14.615 8.692-.577.263-1.159.518-1.745.767-3.517 1.502-7.206 2.724-11.057 3.622-4.433 1.039-9.082 1.649-13.931 1.763-.108.003-.216.006-.324.008l-56.269 56.263h410.78l-56.26-56.26c-9.946-.191-19.052-2.448-27.194-6.223-5.301-2.352-10.215-5.28-14.48-8.632-.082-.064-.163-.129-.245-.193h-214.415c-.082.064-.163.129-.245.193z" stroke-width="19"/></svg>