<svg height="48" viewBox="0 -960 960 960" width="48" xmlns="http://www.w3.org/2000/svg"><path fill="rgb(255, 255, 255)" d="m278-55c-39.86 0-73.657-13.87-101.39-41.61-27.74-27.733-41.61-61.53-41.61-101.39v-564c0-40.133 13.87-74.167 41.61-102.1 27.733-27.933 61.53-41.9 101.39-41.9h453c26.807 0 49.343 9.13 67.61 27.39 18.26 18.267 27.39 40.803 27.39 67.61v540c0 3.7-1.51 7.053-4.53 10.06-3.027 3.007-6.183 5.32-9.47 6.94-10.667 4.667-18.833 12.107-24.5 22.32s-8.5 21.373-8.5 33.48c0 11.527 2.833 22.277 8.5 32.25 5.667 9.967 13.833 17.617 24.5 22.95 6.667 3.333 10.667 9 12 17s2 16 2 24v4.82c0 11.66-4.323 21.607-12.97 29.84-8.653 8.227-18.997 12.34-31.03 12.34zm-56-273c8.667-4 17.673-7.333 27.02-10s19.007-4 28.98-4h461v-477h-461c-16.447 0-29.89 5.39-40.33 16.17-10.447 10.773-15.67 24.383-15.67 40.83zm55.54 186h428.46c-4.46-7.827-7.91-16.617-10.35-26.37-2.433-9.753-3.65-19.59-3.65-29.51 0-10.747 1.293-20.81 3.88-30.19 2.593-9.38 6.3-18.357 11.12-26.93h-429.39c-15.873 0-29.11 5.39-39.71 16.17-10.6 10.773-15.9 24.363-15.9 40.77 0 16.173 5.3 29.56 15.9 40.16s23.813 15.9 39.64 15.9zm181.948-346.5c-33.112 0-61.264-11.6-84.445-34.67-23.178-23.22-34.769-51.26-34.769-84.42 0-33.01 11.615-61.2 34.859-84.4 23.244-23.33 51.46-34.94 84.649-34.94 33.201 0 61.43 11.61 84.673 34.8 23.256 23.22 34.885 51.26 34.885 84.41 0 11.1-1.173 21.81-3.507 32.27-2.332 10.32-6.693 19.76-13.068 28.3l57.375 57.38c6.376 6.37 9.563 13.51 9.563 21.41 0 7.79-3.187 14.8-9.563 21.04-6.374 6.13-13.489 9.19-21.355 9.19-7.867 0-14.983-3.19-21.358-9.56l-57.375-56.74c-8.925 6.36-18.488 10.71-28.688 12.74-10.2 2.16-20.822 3.19-31.876 3.19zm-.242-59.93c16.741 0 30.843-5.74 42.318-17.09 11.475-11.46 17.213-25.36 17.213-41.93 0-16.58-5.712-30.62-17.124-42.21-11.411-11.48-25.386-17.35-41.922-17.35-16.741 0-30.741 5.74-42 17.09-11.259 11.48-16.894 25.5-16.894 41.95 0 16.58 5.547 30.6 16.653 42.21 11.104 11.59 25.016 17.33 41.756 17.33z"/></svg>