<svg xmlns="http://www.w3.org/2000/svg"><path fill="rgb(255, 255, 255)" d="m219.404 65.305c.363.167.767.36 1.203.575 3.249 1.535 5.605 4.487 6.382 7.996.777 3.508-.112 7.179-2.409 9.943-12.297 14.406-27.063 27.515-40.032 35.169-20.692 12.538-42.654 15.59-61.364 8.457-8.693-3.037-14.474-7.585-18.291-14.455-1.916-3.174-4.367-8.913-3.953-8.576.211-.281 10.402-4.765 22.47-9.849 16.114-6.81 32.132-11.765 50.819-15.722l7.157-1.521c2.423-.515 4.103-2.725 3.952-5.197-.152-2.471-2.089-4.46-4.556-4.675l-5.853-.511c-7.549-.641-25.882.027-35.264 1.285-11.944 1.629-24.012 4.524-34.408 8.217 7.384-15.469 21.864-25.824 40.043-28.309 11.298-1.864 28.187 1.047 42.449 4.561 10.828 2.602 20.996 7.689 31.655 12.612zm-97.287 115.553c-24.274-2.966-42.964-12.969-58.061-25.068-23.421-18.77-22.829-54.472-22.829-54.472-1.562-60.001 22.78-91.758 76.514-99.817 18.932-2.84 39.276-1.657 61.68 3.615 8.426 1.96 14.028 9.945 13.005 18.536-.028.353-.07.705-.112 1.059-.547 4.587-2.939 8.754-6.624 11.539-3.686 2.786-8.347 3.949-12.91 3.223-10.339-1.631-20.862-2.397-29-1.225-23.013 3.889-42.835 20.133-50.55 41.405-.68 1.98-6.516 19.388 3.029 36.381 4.734 8.428 13.404 16.984 23.496 20.805 17.203 6.028 34.101 4.07 46.973.436 5.466-1.554 11.343-.479 15.904 2.909 4.561 3.389 7.287 8.705 7.378 14.386.095.93.109 1.845.123 2.736.129 8.051-5.002 15.246-12.655 17.748-6.8 2.158-13.53 3.76-20.441 4.839-7.869 1.228-28.175 1.79-34.92.965zm-92.761-22.077-9.253 5.349c-2.658 1.297-6.597 2.155-9.252 1.707-2.7-.454-6.184-2.708-8.194-4.903-1.594-2.502-2.868-6.429-2.628-9.154.235-2.678 2.027-6.269 3.931-8.525l5.998-6.186c4.247-4.347 12.236-11.295 20.55-18.049.337 1.725.738 3.557 1.214 5.488 1.903 7.715 5.773 17.335 11.788 26.361-4.648 2.498-9.354 5.13-14.154 7.912z"/></svg>