<svg clip-rule="evenodd" fill-rule="evenodd" image-rendering="optimizeQuality" shape-rendering="geometricPrecision" text-rendering="geometricPrecision" viewBox="0 0 512 406.23" xmlns="http://www.w3.org/2000/svg"><path fill="rgb(255, 255, 255)" d="m132.631 326.265h-30.942l-1.87-.165c-10.82-1.382-20.638-3.931-29.552-7.619-9.206-3.815-17.361-8.719-24.532-14.724-6.812-5.672-12.777-12.125-17.837-19.141-13.546-18.645-20.844-41.434-21.01-64.136-.155-22.946 6.977-45.774 22.391-64.263 4.983-6.005 10.86-11.513 17.584-16.377 7.834-5.684 16.797-10.463 26.927-14.393 6.976-2.725 14.439-4.992 22.302-6.812 8.915-35.44 27.938-62.726 52.383-81.663 22.867-17.721 50.396-28.054 78.732-30.769 28.221-2.725 57.258 2.063 83.328 14.587 28.414 13.672 53.227 36.412 69.333 68.41 6.481-1.023 12.972-1.548 19.414-1.47 27.246.204 53.52 9.944 74.198 32.238 4.34 4.661 8.438 9.935 12.29 15.813 12.971 19.948 19.618 46.593 19.335 72.651-.281 25.593-7.181 51.049-21.29 69.781-9.196 12.204-21 22.178-35.149 30.089-13.623 7.62-29.514 13.419-47.35 17.554l-3.33.409h-18.615v63.251c0 6.189-5.079 11.25-11.248 11.25h-224.242c-6.189 0-11.25-5.071-11.25-11.25zm23.249 51.264h200.244v-126.036h-200.244zm41.168-70.903c-3.907-.272-8.647-2.109-11.16-4.624-2.516-2.512-4.63-7.253-4.63-11.168s2.114-8.653 4.63-11.166c2.513-2.515 7.253-4.352 11.16-4.624h117.903c3.913.272 8.652 2.111 11.166 4.625 2.515 2.514 4.624 7.254 4.624 11.165 0 3.912-2.109 8.652-4.624 11.167-2.514 2.514-7.253 4.353-11.166 4.625zm0 50.104c-3.907-.272-8.647-2.109-11.16-4.622-2.515-2.513-4.63-7.253-4.63-11.168s2.115-8.654 4.63-11.168c2.513-2.513 7.253-4.35 11.16-4.622h51.732c3.911.272 8.651 2.108 11.168 4.621 2.517 2.512 4.632 7.254 4.632 11.169s-2.115 8.656-4.632 11.169c-2.517 2.514-7.257 4.349-11.168 4.621z" fill-rule="nonzero"/></svg>