<svg height="64" viewBox="0 0 64.000001 64.000001" width="64" xmlns="http://www.w3.org/2000/svg"><path fill="rgb(255, 255, 255)" d="m58.446 31.468c0 14.6-11.84 26.44-26.446 26.44s-26.446-11.84-26.446-26.44c0-14.61 11.84-26.448 26.446-26.448s26.446 11.838 26.446 26.448zm-10.07-1.82c.301-.59.355-1.27.15-1.9l-.83-2.56c-.427-1.31-1.837-2.03-3.151-1.6l-8.671 2.81v-9.11c0-.66-.263-1.3-.732-1.77s-1.105-.73-1.768-.73h-2.683c-.663 0-1.299.26-1.768.73s-.732 1.11-.732 1.77l.002 9.11-8.672-2.81c-.631-.21-1.317-.16-1.908.15-.59.3-1.037.82-1.242 1.45l-.83 2.56c-.426 1.31.293 2.72 1.606 3.15l8.668 2.81-5.358 7.38c-.811 1.11-.563 2.68.553 3.49l2.173 1.58c.537.39 1.206.55 1.861.44.655-.1 1.242-.46 1.632-1l5.357-7.37 5.359 7.37c.811 1.12 2.375 1.37 3.492.56l2.17-1.58c.537-.39.897-.98 1-1.63.104-.66-.057-1.33-.446-1.86l-5.359-7.38 8.672-2.81c.63-.21 1.154-.66 1.455-1.25z"/></svg>