<?xml version="1.0" encoding="utf-8"?>
<svg height="48" width="48" xmlns="http://www.w3.org/2000/svg">
  <path fill="rgb(255, 255, 255)" d="M 15 24 C 15 28.99 19.014 33 24 33 C 28.99 33 33 28.986 33 24 C 33 19.01 28.986 15 24 15 C 19.01 15 15 19.014 15 24 Z M 24 3.5 C 29.625 3.5 34.814 5.822 38.496 9.504 C 42.178 13.186 44.5 18.375 44.5 24 C 44.5 29.625 42.178 34.814 38.496 38.496 C 34.814 42.178 29.625 44.5 24 44.5 C 18.375 44.5 13.186 42.178 9.504 38.496 C 5.822 34.814 3.5 29.625 3.5 24 C 3.5 18.375 5.822 13.186 9.504 9.504 C 13.186 5.822 18.375 3.5 24 3.5 Z M 36.374 36.374 C 39.569 33.18 41.5 28.868 41.5 24 C 41.5 19.132 39.569 14.82 36.374 11.626 C 33.18 8.431 28.868 6.5 24 6.5 C 20.394 6.5 17.935 7.302 15.388 8.758 C 16.17 9.011 16.533 9.154 17.408 9.969 C 19.398 9.039 21.534 8.5 24 8.5 C 28.244 8.5 32.183 10.262 34.96 13.04 C 37.738 15.817 39.5 19.756 39.5 24 C 39.5 28.244 37.738 32.183 34.96 34.96 C 32.183 37.738 28.244 39.5 24 39.5 C 19.756 39.5 15.817 37.738 13.04 34.96 C 10.262 32.183 8.5 28.244 8.5 24 C 8.5 21.533 8.941 19.478 9.968 17.41 C 9.236 16.674 9.067 16.261 8.77 15.366 C 7.309 17.919 6.5 20.392 6.5 24 C 6.5 28.868 8.431 33.18 11.626 36.374 C 14.82 39.569 19.132 41.5 24 41.5 C 28.868 41.5 33.18 39.569 36.374 36.374 Z M 22.787 25.582 C 21.91 24.91 21.745 23.654 22.417 22.778 C 23.09 21.901 24.345 21.736 25.222 22.409 C 26.098 23.081 26.263 24.336 25.591 25.213 C 24.918 26.089 23.663 26.254 22.787 25.582 Z M 27.229 31.314 C 26.24 31.751 25.147 31.998 23.993 31.998 C 23.328 31.998 22.686 31.91 22.069 31.758 L 24.114 26.987 L 25.366 26.655 Z M 23.088 26.847 L 21.111 31.458 C 19.443 30.816 18.053 29.637 17.144 28.126 L 21.962 26.198 Z M 31.453 26.881 C 30.811 28.549 29.632 29.939 28.121 30.848 L 26.193 26.03 L 26.841 24.905 Z M 21.006 24.12 L 21.338 25.372 L 16.678 27.235 C 16.241 26.246 15.994 25.153 15.994 23.999 C 15.994 23.334 16.082 22.692 16.234 22.075 Z M 31.314 20.763 C 31.751 21.752 31.998 22.845 31.998 23.999 C 31.998 24.664 31.91 25.306 31.758 25.923 L 26.987 23.878 L 26.655 22.626 Z M 21.799 21.969 L 21.151 23.094 L 16.54 21.117 C 17.182 19.449 18.361 18.059 19.872 17.15 Z M 26.882 16.541 C 28.55 17.183 29.94 18.362 30.849 19.873 L 26.031 21.801 L 24.906 21.153 L 26.883 16.542 Z M 24 16.001 C 24.665 16.001 25.307 16.089 25.924 16.241 L 23.879 21.012 L 22.627 21.344 L 20.764 16.684 C 21.753 16.247 22.846 16 24 16 Z"/>
</svg>