<svg viewBox="0 -960 960 960" xmlns="http://www.w3.org/2000/svg"><path fill="rgb(255, 255, 255)" d="m894.239-413.46h-828.478c-13.303 0-24.541-4.6-33.715-13.82-9.181-9.21-13.771-20.5-13.771-33.85s4.59-24.57 13.771-33.66c9.174-9.09 20.412-13.64 33.715-13.64h828.478c13.303 0 24.544 4.61 33.725 13.82 9.174 9.21 13.761 20.48 13.761 33.85 0 13.34-4.587 24.57-13.761 33.66-9.181 9.1-20.422 13.64-33.725 13.64zm-762.806 93.11c0-13.98 4.547-25.56 13.64-34.73 9.093-9.18 20.315-13.77 33.664-13.77 13.357 0 24.639 4.59 33.847 13.77 9.214 9.17 13.821 20.75 13.821 34.73v174.27h316.236v-140.44c0-13.31 4.59-24.54 13.771-33.71 9.174-9.19 20.412-13.77 33.715-13.77h145.489v-.5c3.367-9.93 8.924-18.14 16.67-24.62 7.746-6.49 17.284-9.73 28.613-9.73 14.617 0 26.383 4.24 35.301 12.72 8.569 8.15 13.02 18.54 13.357 31.19-.259 12.45-2.946 24.34-8.063 35.67-5.388 11.93-12.46 22.28-21.217 31.04l-178.83 178.83c-8.756 8.76-19.102 15.832-31.037 21.217s-24.491 8.083-37.666 8.083h-326.339c-26.12 0-48.479-9.396-67.076-28.199-18.598-18.791-27.896-41.381-27.896-67.781zm698.144-6.58v3.55c0-.53-.007-1.05-.02-1.56.013-.66.02-1.33.02-1.99zm-94.975-582.97c26.13 0 48.476 9.3 67.09 27.87 18.588 18.59 27.885 40.82 27.885 67.09v208.53c0 13.31-4.611 24.43-13.82 33.75-9.214 9.02-20.494 13.71-33.85 13.71-13.352 0-24.568-4.69-33.665-13.71-9.088-9.32-13.64-20.44-13.64-33.75v-208.53h-507.182v208.53c0 13.31-4.608 24.43-13.821 33.75-9.212 9.02-20.447 13.71-33.743 13.71s-24.693-4.69-34.171-13.71c-9.497-9.32-14.246-20.44-14.246-33.75v-208.53c0-26.27 9.396-48.5 28.21-67.09 18.788-18.57 41.382-27.87 67.771-27.87z"/></svg>