<svg viewBox="0 0 48 48" xmlns="http://www.w3.org/2000/svg"><path fill="rgb(255, 255, 255)" d="m25.185 14.737c-1.872-1.486-4.808-3.818-4.808-3.818-.65-.538-1.466-.834-2.31-.834h-10.15c-.679 0-1.331.272-1.812.752s-.751 1.132-.751 1.811v22.545l3.374-13.027c.3-1.034.862-1.858 1.685-2.474.824-.618 1.779-.925 2.865-.925h28.743c1.533 0 2.783.632 3.749 1.899.968 1.266 1.218 2.667.751 4.2l-3.2 12.6c-.013.039-.024.078-.037.116-.108 2.467-2.142 4.434-4.636 4.434h-32.756c-1.232 0-2.412-.489-3.281-1.359-.87-.87-1.359-2.05-1.359-3.281v-26.752c0-1.231.489-2.412 1.359-3.282.869-.87 2.049-1.358 3.281-1.358h12.175c1.804 0 3.553.632 4.941 1.787l.269.213h13.371c2.562 0 4.639 2.079 4.639 4.64v1.818c0 .828-.672 1.5-1.5 1.5-2.661 0-8.202 0-11.147 0-1.255 0-2.473-.425-3.455-1.205z"/></svg>