<svg height="800" viewBox="0 0 192 192" width="800" xmlns="http://www.w3.org/2000/svg"><path fill="rgb(255, 255, 255)" d="m175.228 117.548c2.505 4.649 4.646 9.481 6.231 13.464l.086.214.037.167c.265 1.173.272 3.53-.127 4.879-.66 1.275-2.464 3.067-3.568 3.656-1.154.416-3.599.571-4.936.254-1.237-.539-2.985-1.975-3.716-2.892l-.103-.129-.111-.191c-4.46-7.735-10.905-17.976-17.984-25.281-12.461-13.041-20.777-24.595-47.607-30.782-19.268-5.056-34.921-4.319-44.945.636-5.183 2.112-1.219.515-1.764.772 4.588-.213 5.024-.514 15.959-.009 16.265.874 28.684 4.521 42.838 11.456 9.016 4.519 16.437 10.251 21.169 14.547l.18.164.115.145c.757.962 1.793 3.146 2.002 4.57-.069 1.421-.932 3.757-1.653 4.734-.82.843-2.821 2.022-4.092 2.351-1.324.111-3.523-.308-4.604-.76l-.155-.065-.19-.116c-3.9-2.381-8.798-5.032-14.714-7.273-8.056-3.115-13.584-4.852-18.127-6.012 1.42 1.114 3.016 2.06 4.603 2.939l.194.108.136.105c.874.676 2.276 2.284 2.838 3.424.358 1.152.459 3.256.251 4.322-.339 1.058-1.53 2.941-2.484 3.804-1.154.725-3.349 1.355-4.507 1.435l-.185.012-.238-.022c-5.041-.479-13.651-2.003-20.972-5.405-7.983-4.315-12.301-10.344-15.091-14.9-3.9.119-7.639.305-12.578 1.056-6.294.932-9.154 1.576-11.203 2.252-1.723.527-2.813 1.176-5.558 2.336-2.151.882-4.935 2.156-7.489 2.963-1.349.413-3.237.791-4.698.827-1.921-.133-4.754-1.35-6.254-2.59l-.39-.323-.224-.431c-1.197-2.303-1.658-6.016-1.046-8.282.659-1.76 1.902-3.737 2.893-5.06 2.046-2.677 3.686-3.573 3.217-3.375l-.11.046.214-.751c.991-3.481 1.876-13.768 16.315-25.391 10.868-7.385 33.155-14.29 58.267-10.364 6.462 1.101 11.365 2.169 16.107 3.423 3.693-1.967 10.669-5.64 20.085-6.541 5.877-.34 10.727.091 13.655.565l.214.035.159.051c1.015.324 2.888 1.363 3.815 2.264.754 1.045 1.528 3.196 1.622 4.33-.054 1.103-.679 3.145-1.301 4.154-.767.902-2.367 2.056-3.28 2.49l-.133.064-.186.06c-1.774.569-3.519 1.123-4.903 1.833-1.318.675-1.775.615-1.525 1.088l-.105 1.008c.124.188.292.435.518.771.7 1.136 1.544 1.796 2.133 2.259l.248.189 2.473 1.779v.153l-1.127-.889c3.155 2.49 6.286 5.264 9.42 8.195 11.257 10.65 18.325 21.358 25.989 35.485z"/></svg>