<svg height="48" width="48" xmlns="http://www.w3.org/2000/svg"><path fill="rgb(255, 255, 255)" d="m14.008 32.714s-.001 0-.002-.001c-.001.001-.001.001-.001.001s-3.754-1.251-6.258-1.253c-2.506.002-7.511 2.504-7.511 2.504s.001-.001.002-.002c-.003.001-.005.002-.005.002s0-.001.001-.002c.022-.066 1.297-3.777 6.26-6.259 5.008-2.504 12.521-3.756 16.277-6.26 1.878-1.252 2.817-3.756 3.286-5.948l-1.255-2.513c-.559.365-1.238.685-2.031.949-2.656.884-6.261 0-7.512 1.251l-1.253 1.253s-1.252-2.504 0-3.757c1.253-1.252 3.756-1.252 5.009-3.756.251-.502.603-.904 1.015-1.215 2.637-2.541 6.497-2.541 6.497-2.541s.26.534 0 1.252c2.176-.978 5.008 0 5.008 0s-.397.835-1.252 1.252c2.157.788 3.757 2.505 3.757 2.505s-.397.757-1.253 1.251c2.137.202 3.756 2.505 3.756 2.505s-.567.973-1.252 1.251c.731.315 1.282.545 1.68.808 3.331-3.602 3.378-7.068 4.581-7.068 1.251 0 5.008 7.513 3.756 18.781-1.252 11.269-15.601 16.066-17.082 16.68-3.149 1.305-10.787 2.864-7.155-4.287 0 0 3.705-7.771 4.465-9.238-1.421-.321-3.345-.65-5.271-.65-3.04 0-5.258 1.64-5.996 2.265-.033.029-.064.055-.09.08-.111.104-.171.16-.171.16z"/></svg>