<svg height="800" viewBox="0 0 192 192" width="800" xmlns="http://www.w3.org/2000/svg"><path fill="rgb(255, 255, 255)" d="m9.507 96c0-23.238 10.176-46.003 25.333-61.16 15.158-15.158 37.922-25.333 61.16-25.333s46.002 10.175 61.16 25.333c15.157 15.157 25.333 37.922 25.333 61.16s-10.176 46.002-25.333 61.16c-15.158 15.157-37.922 25.333-61.16 25.333s-46.002-10.176-61.16-25.333c-15.157-15.158-25.333-37.922-25.333-61.16zm38.061 48.432c6.105 6.105 12.904 10.927 20.448 14.312l-12.466-58.931c-1.685-10.615 1.271-22.919 7.316-30.376 4.179-5.155 10.929-9.608 18.245-11.865-.168-.227-.318-.401-.444-.51-1.301-1.123-1.594-1.519-4.676-1.573-3.418.939-8.28 1.304-10.197-3.579-1.917-4.884.488-10.398 5.371-12.315 8.207-2.275 17.38-.834 21.92 3.087 4.423 3.82 5.761 10.566 5.761 10.566 1.219 1.627 0 0 0 0 .236 2.031 1.341 3.511 2.901 4.491 4.364 1.371 8.486 3.46 11.667 5.944 5.748 4.488 10.716 12.338 12.878 19.81l.997 4.009c.255 1.557.423 3.095.508 4.598 1.804-.639 3.354-1.391 4.933-2.511 4.366-2.911 10.264-1.731 13.174 2.634 2.911 4.366 1.731 10.264-2.634 13.174-3.764 2.414-8.584 4.566-12.66 5.73-3.361.961-7.89 1.352-9.447 1.464-.521.477-1.058.928-1.603 1.354 3.685 1.734 5.911 2.769 9.301 1.695 5.162-.938 10.107 2.486 11.046 7.648.938 5.162-2.486 10.107-7.648 11.046-7.576.915-15.619-.765-20.897-3.247-1.15-.541-2.332-1.172-3.48-1.83 4.781 14.944 9.748 25.403 12.652 30.915 8.936-3.393 16.876-8.718 23.898-15.74 12.889-12.89 20.061-28.872 20.061-48.432 0-19.561-7.172-35.543-20.061-48.432s-28.872-20.061-48.432-20.061-35.542 7.172-48.432 20.061c-12.889 12.889-20.061 28.871-20.061 48.432 0 19.56 7.172 35.542 20.061 48.432zm48.432 20.061c1.852 0 3.673-.064 5.461-.192-3.006-5.797-7.637-16.077-12.541-32.014-2.612-8.489-1.27-17.058 1.92-21.564 3.318-4.688 8.948-7.431 12.289-9.039 3.342-1.61 4.57-2.143 5.486-3.396 1.108-1.513 1.61-1.858.096-6.804l-.851-3.381c-.821-4.461-2.705-6.763-6.139-9.444-3.434-2.682-6.124-3.666-10.651-3.666-6.303 0-9.753 1.856-13.444 6.409s-5.329 8.426-3.488 14.479l14.438 68.254c2.416.238 4.89.358 7.424.358z"/></svg>