<svg viewBox="0 0 512 512" xmlns="http://www.w3.org/2000/svg"><path fill="rgb(255, 255, 255)" d="m89.22 291.848c-4.566-.661-5.867.614-9.024 3.772-3.157 3.157-4.433 4.458-3.772 9.025v97.288c-.661 4.566.614 5.867 3.772 9.024 3.157 3.158 4.458 4.433 9.024 3.772h95.309c-7.654-11.336-12.554-26.406-13.021-40.593v-33.246c-10.363-4.921-17.744-9.252-26.605-20.52-8.844-11.249-10.488-17.947-13.024-28.522zm140.085 82.288c-.661 4.566.615 5.867 3.772 9.025 3.158 3.157 4.459 4.433 9.025 3.772h111.186c4.566.661 5.867-.615 9.025-3.772 3.157-3.158 4.433-4.459 3.772-9.025v-26.695h-136.78zm194.576 0c-.661 18.366-8.766 37.912-20.723 49.869s-31.504 20.063-49.87 20.724h-69.284c-5.654 7.059-10.18 12.196-20.07 18.035-9.854 5.818-23.397 9.462-35.731 9.762h-138.983c-18.366-.661-37.912-8.767-49.869-20.724s-20.063-31.503-20.724-49.869v-97.288c.661-18.366 8.767-37.913 20.724-49.87s31.503-20.063 49.869-20.724h40.593v-123.983c.661-18.366 8.767-37.912 20.724-49.869s31.504-20.063 49.87-20.724h222.373c18.366.661 37.912 8.767 49.869 20.724s20.063 31.503 20.724 49.869v166.78c-.661 18.366-8.767 37.912-20.724 49.869-11.718 11.719-30.726 19.738-48.768 20.676zm-223.474-276.865c-4.566-.661-5.867.615-9.025 3.772-3.157 3.158-4.433 4.459-3.772 9.025v166.78c-.661 4.566.615 5.867 3.772 9.025 3.158 3.157 4.459 4.433 9.025 3.772h222.373c4.566.661 5.867-.614 9.024-3.772 3.157-3.157 4.433-4.459 3.772-9.025v-166.78c.661-4.566-.615-5.868-3.772-9.025-3.157-3.158-4.458-4.433-9.024-3.772z" stroke-linejoin="round" stroke-width="30"/></svg>