<svg height="48" viewBox="0 0 48.000001 48.000001" width="48" xmlns="http://www.w3.org/2000/svg"><path fill="rgb(255, 255, 255)" d="m11.806 37.008c-2.494-1.46-3.704-2.33-5.038-3.65-1.606-1.59-2.331-2.8-2.54-4.26-.288-2.01 1.105-4.07 3.549-5.26 4.792-2.34 11.282-2.85 17.507-1.38 1.318.31 1.276.21-.318-.72-2.098-1.24-5.341-3.8-7.226-5.72-2.236-2.26-3.622-4.64-3.622-6.15 0-1 .493-2.07 1.653-2.7 2.716-1.5 12.245 1.02 18.626 1.38 2.021.1 3.373.11 3.367-1.06-.005-.99-2.684-1.55-3.979-1.45 1.137-.39 2.229-.58 3.687-.61 2.916-.06 3.505.31 4.099.58 1.198.56 2.286 1.86 2.236 3.49-.162 5.28-6.459 2.94-10.651 2.18-4.624-.85-8.593-1.53-9.936.05-3.17 3.72 7.92 11.04 11.346 13.63-2.86.23-18.136-1.36-20.24 3.99-.744 2.42 3.339 5.02 7.151 6.33 3.101 1.02 6.871 2.19 11.553 2.49 4.242.28 6.415-.33 6.015-3.54 3.372 1.74 3.152 5.21.963 6.74-3.547 2.49-14.167.36-14.808.24-5.17-1.08-10.022-2.64-13.394-4.6z"/></svg>