<svg height="50" viewBox="0 0 50 50" width="50" xmlns="http://www.w3.org/2000/svg"><path fill="rgb(255, 255, 255)" d="m40 3c3.302 0 6 2.698 6 6v32.244l-21 6.301-21-6.301v-32.244c0-3.302 2.698-6 6-6zm-4 5c-1.657 0-3 1.343-3 3v17c0 1.657 1.343 3 3 3h3c1.657 0 3-1.343 3-3v-4h-3v4h-3v-17h3v4h3v-4c0-1.657-1.343-3-3-3zm-8 0v23h3v-23zm-11 0v23h3v-10h3c1.657 0 3-1.343 3-3v-7c0-1.657-1.343-3-3-3zm-6 0c-1.657 0-3 1.343-3 3v17c0 1.657 1.343 3 3 3h4v-3h-4v-7h3v-3h-3v-7h4v-3zm9 3h3v7h-3zm17 21.85c-.307.007-.613.137-.813.337s-.33.506-.337.813v1.5c.007.307.137.613.337.813s.506.33.813.337h3.75c.038-.007.044.003.071.029.026.027.036.033.029.071v1c.007.038-.003.044-.029.071-.027.026-.033.036-.071.029h-3.5c-.038.007-.044-.003-.071-.029-.026-.027-.036-.033-.029-.071v-.25c0-.083-.067-.15-.15-.15h-1c-.083 0-.15.067-.15.15v.5c.007.307.137.613.337.813s.506.33.813.337h4c.307-.007.613-.137.813-.337s.33-.506.337-.813v-1.5c-.007-.307-.137-.613-.337-.813s-.506-.33-.813-.337h-3.75c-.038.007-.044-.003-.071-.029-.026-.027-.036-.033-.029-.071v-1c-.007-.038.003-.044.029-.071.027-.026.033-.036.071-.029h3.5c.038-.007.044.003.071.029.026.027.036.033.029.071v.25c0 .083.067.15.15.15h1c.083 0 .15-.067.15-.15v-.5c-.007-.307-.137-.613-.337-.813s-.506-.33-.813-.337zm-2 0h-5c-.083 0-.15.067-.15.15v6c0 .083.067.15.15.15h5c.083 0 .15-.067.15-.15v-1c0-.083-.067-.15-.15-.15h-3.85v-1.2h1.85c.083 0 .15-.067.15-.15v-1c0-.083-.067-.15-.15-.15h-1.85v-1.2h3.85c.083 0 .15-.067.15-.15v-1c0-.083-.067-.15-.15-.15zm-11 0h-1c-.083 0-.15.067-.15.15v6c0 .083.067.15.15.15h1c.083 0 .15-.067.15-.15v-3.365l1.216 2.432c.025.051.077.083.134.083h1c.057 0 .109-.032.134-.083l1.216-2.432v3.365c0 .083.067.15.15.15h1c.083 0 .15-.067.15-.15v-6c0-.083-.067-.15-.15-.15h-1c-.057 0-.109.032-.134.083l-1.866 3.732-1.866-3.732c-.025-.051-.077-.083-.134-.083zm-5 0h-1c-.057 0-.109.032-.134.083l-3 6c-.023.046-.021.102.006.146.028.044.076.071.128.071h1c.057 0 .109-.032.134-.083l.459-.917h3.814l.459.917c.025.051.077.083.134.083h1c.052 0 .1-.027.128-.071.027-.044.029-.1.006-.146l-3-6c-.025-.051-.077-.083-.134-.083zm-10 0c-.307.007-.613.137-.813.337s-.33.506-.337.813v4c.007.307.137.613.337.813s.506.33.813.337h4c.307-.007.613-.137.813-.337s.33-.506.337-.813v-2c0-.083-.067-.15-.15-.15h-2c-.083 0-.15.067-.15.15v1c0 .083.067.15.15.15h.85v.6c.007.038-.003.044-.029.071-.027.026-.033.036-.071.029h-3.5c-.038.007-.044-.003-.071-.029-.026-.027-.036-.033-.029-.071v-3.5c-.007-.038.003-.044.029-.071.027-.026.033-.036.071-.029h3.5c.038-.007.044.003.071.029.026.027.036.033.029.071v.75c0 .083.067.15.15.15h1c.083 0 .15-.067.15-.15v-1c-.007-.307-.137-.613-.337-.813s-.506-.33-.813-.337zm9.5 1.15 1.5 3h-3z"/></svg>