<svg viewBox="0 0 48 48" xmlns="http://www.w3.org/2000/svg"><path fill="rgb(255, 255, 255)" d="m2.575 2.071c1.02-.789 2.487-.601 3.275.419l3.63 4.697h29.04l3.63-4.697c.788-1.02 2.255-1.208 3.275-.419 1.02.788 1.208 2.254.42 3.275l-3.97 5.137c-.041.054-.084.105-.129.153v5.891c0 1.548-1.254 2.802-2.802 2.802h-29.888c-1.548 0-2.802-1.254-2.802-2.802v-5.891c-.045-.048-.088-.099-.129-.153l-3.97-5.137c-.788-1.021-.6-2.487.42-3.275zm11.923 7.756c-1.951 0-3.532 1.581-3.532 3.532s1.581 3.533 3.532 3.533 3.533-1.582 3.533-3.533-1.582-3.532-3.533-3.532zm19.004 0c-1.951 0-3.533 1.581-3.533 3.532s1.582 3.533 3.533 3.533 3.532-1.582 3.532-3.533-1.581-3.532-3.532-3.532zm-24.446 12.304h29.888c1.548 0 2.802 1.255 2.802 2.802v18.681c0 1.548-1.254 2.802-2.802 2.802h-29.888c-1.548 0-2.802-1.254-2.802-2.802v-18.681c0-1.547 1.254-2.802 2.802-2.802zm14.944 4.968c-3.963 0-7.175 3.212-7.175 7.175s3.212 7.175 7.175 7.175 7.175-3.212 7.175-7.175-3.212-7.175-7.175-7.175z"/></svg>