<svg viewBox="0 0 24 24" xmlns="http://www.w3.org/2000/svg"><path fill="rgb(255, 255, 255)" d="m13.682 23.185h-3.791c-.398-.047-.967-.252-1.221-.505-.253-.253-.459-.823-.506-1.223v-6.257h-1.356c-.398-.048-.968-.254-1.221-.507s-.46-.821-.507-1.222v-3.523c.047-.399.253-.969.506-1.222s.823-.459 1.222-.506h1.356v-.969c.054-1.819.741-3.624 1.758-4.712 1.094-1.02 2.874-1.724 4.561-1.724 1.466 0 2.968.249 2.992.254.343.095.826.341 1.035.587.209.249.373.764.41 1.119v2.997c-.047.401-.254.969-.507 1.223-.253.253-.823.459-1.221.506l-1.587-.001c-.104-.039-.148-.069-.166-.087.003.015-.001.04-.026.078-.097.032-.032-.069-.002.177v.552h1.647c.414.049 1.001.321 1.31.604.235.352.412.975.397 1.389l-.544 3.526c-.094.345-.336.83-.583 1.044-.248.212-.767.378-1.125.417h-1.102v6.257c-.048.399-.254.968-.507 1.222-.253.253-.823.459-1.222.506zm-3.354-2.165h2.917v-6.904c0-.597.485-1.082 1.083-1.082h1.81l.411-2.65h-2.221c-.598 0-1.083-.484-1.083-1.082v-1.634c.011-.559.208-1.14.531-1.593.346-.361 1.014-.69 1.939-.739l1.04-.001v-2.184c-.487-.066-1.394-.17-2.272-.17-1.315 0-2.33.32-3.03 1.091-.767.696-1.137 1.75-1.125 3.207v2.023c0 .598-.485 1.082-1.082 1.082h-2.001v2.65h2.001c.597 0 1.082.485 1.082 1.082z"/></svg>