<svg height="48" width="48" xmlns="http://www.w3.org/2000/svg"><path fill="rgb(255, 255, 255)" d="m20.327 41.16-.939-5.819c-.087-.539.275-1.049.814-1.144 3.86-.672 9.511-2.731 12.035-4.953.593-.523.881-.891 1.005-1.309.111-.371.104-.425-.209-.79-.804-.938-2.882-1.805-7.311-2.506-.513-.083-.877-.545-.838-1.063s.469-.92.989-.924c3.676-.029 6.386-.291 8.343-.822 1.883-.511 2.736-1.074 3.149-1.987.412-.911.265-1.929-.507-3.626-.799-1.755-2.199-3.843-4.199-6.396-.316-.403-.276-.98.093-1.336.368-.355.946-.375 1.338-.045 4.856 4.116 7.614 8.171 8.596 11.83.999 3.723.22 7.346-1.631 10.277-3.658 5.789-11.841 9.911-19.549 11.435-.266.052-.542-.006-.764-.161s-.372-.393-.415-.661zm7.017-29.457c-3.846.668-9.462 2.89-11.969 5.279-.593.565-.889.978-1.016 1.442-.116.423-.097.544.229.944.812.996 2.883 1.897 7.305 2.594.513.082.877.544.838 1.062-.039.519-.469.92-.988.925-3.678.03-6.432.291-8.451.827-1.951.519-2.897 1.116-3.382 2.071-.481.949-.387 2.008.336 3.768.747 1.822 2.118 4 4.133 6.685.306.408.256.98-.115 1.329s-.946.363-1.333.032c-4.931-4.232-7.527-8.414-8.254-12.174-.738-3.818.391-7.496 2.467-10.476 4.111-5.903 12.331-10.109 18.416-11.698.258-.067.533-.028.762.108.229.137.394.359.459.618l1.359 5.437c.067.269.02.554-.131.786-.151.233-.392.393-.665.441z"/></svg>