<svg viewBox="0 0 560 560" xmlns="http://www.w3.org/2000/svg"><path fill="rgb(255, 255, 255)" d="m174.731 322.535h200.539c3.789.915 8.271 3.393 9.556 5.353 1.296 1.98 2.245 5.435 2.245 7.25 0 2.557-1.098 6.478-2.758 8.507-1.842 2.248-6.291 3.798-9.043 4.098h-200.539c-2.751-.3-7.199-1.85-9.042-4.096-1.661-2.028-2.76-5.95-2.76-8.509 0-1.816.95-5.273 2.248-7.251 1.284-1.96 5.765-4.437 9.554-5.352zm0 50.418h200.539c2.752.301 7.201 1.851 9.043 4.098 1.66 2.029 2.758 5.95 2.758 8.507 0 2.286-1.668 6.323-3.561 8.054-1.652 1.513-5.488 2.767-8.24 3.067h-200.539c-2.751-.3-6.586-1.552-8.24-3.065-1.891-1.73-3.562-5.769-3.562-8.056 0-2.558 1.099-6.481 2.76-8.508 1.843-2.246 6.291-3.796 9.042-4.097zm0 48.935h200.539c2.752.302 7.201 1.852 9.043 4.099 1.66 2.029 2.758 5.949 2.758 8.506 0 .996-.286 2.487-.758 3.956-4.49 3.072-9.118 5.948-13.92 8.648h-194.786c-4.802-2.7-9.43-5.575-13.92-8.647-.472-1.47-.758-2.961-.758-3.957 0-2.559 1.099-6.481 2.76-8.507 1.843-2.246 6.291-3.796 9.042-4.098zm-76.196-361.166h294.473c10.667 0 21.116 3.023 30.135 8.72 8.715 5.504 20.086 12.686 29.61 18.701 11.66 7.364 18.73 20.192 18.73 33.983v175.761c-2.083 18.873-6.843 36.279-14.33 53.946-10.378 24.489-23.844 44.281-42.442 62.879 0 0-.001.001-.001.001-.178.178-.445.231-.677.135s-.383-.322-.383-.574c0-9.171 0-58.517 0-88.516 0-6.186-2.457-12.119-6.832-16.493-4.374-4.375-10.307-6.832-16.493-6.832h-232.134c-12.882 0-23.325 10.443-23.325 23.325v87.019c0 .252-.152.479-.386.575-.233.095-.5.04-.677-.14-17.832-18.164-30.857-37.547-40.956-61.379-7.487-17.667-12.247-35.073-14.33-53.946v-217.145c.259-5.141 2.307-11.247 5.54-14.48 3.232-3.233 9.339-5.281 14.478-5.54zm270.101 171.079c5.441 0 10.66-2.162 14.508-6.009 3.847-3.848 6.009-9.067 6.009-14.508 0-24.108 0-63.87 0-87.978 0-5.441-2.162-10.66-6.009-14.508-3.848-3.847-9.067-6.009-14.508-6.009-37.2 0-115.365 0-152.565 0-5.441 0-10.66 2.162-14.508 6.009-3.847 3.848-6.009 9.067-6.009 14.508v87.978c0 5.441 2.162 10.66 6.009 14.508 3.848 3.847 9.067 6.009 14.508 6.009zm-39.722-109.735h14.828c3.515.21 8.385 1.628 11.125 3.758 2.83 2.2 5.347 7.49 5.928 11.813v59.316c-.429 4.047-2.589 9.304-5.168 11.883-2.581 2.581-7.836 4.739-11.885 5.17h-14.828c-4.049-.431-9.304-2.589-11.885-5.17-2.579-2.579-4.739-7.836-5.168-11.883v-59.316c.581-4.323 3.098-9.613 5.928-11.813 2.74-2.13 7.61-3.548 11.125-3.758zm-203.896-10.549c-3.58 3.437-5.092 6.604-5.092 12.282 0 4.848 1.398 7.583 4.966 10.865 3.596 3.308 6.967 4.705 12.087 4.705 5.862 0 9.148-1.357 12.524-4.591 3.317-3.18 4.529-5.941 4.529-10.979 0-5.862-1.314-9.06-4.654-12.4-3.339-3.339-6.537-4.654-12.399-4.654-5.12 0-8.403 1.356-11.961 4.772zm149.982-107.188c27.117 0 53.284 3.958 77.957 11.329 3.862 1.195 6.27 5.034 5.666 9.031s-4.039 6.952-8.082 6.952c-42.923.081-108.159.081-151.083.081-4.084.001-7.555-2.983-8.165-7.021-.611-4.038 1.823-7.915 5.724-9.121 24.698-7.293 50.865-11.251 77.983-11.251zm270.669 270.672c0 149.835-120.835 270.669-270.669 270.669-149.835 0-270.669-120.834-270.669-270.669 0-26.006 3.64-51.139 10.44-74.917 2.413-8.497 10.72-13.914 19.468-12.695 8.748 1.218 15.259 8.7 15.257 17.533.03 27.681.026 51.895.026 51.895-.479 5.999-.724 12.064-.724 18.184 0 124.701 101.501 226.202 226.202 226.202 124.7 0 226.202-101.501 226.202-226.202 0-6.228-.253-12.399-.75-18.502 0 0 .005-24.061.01-51.605.001-8.85 6.525-16.345 15.29-17.565s17.088 4.209 19.505 12.722c6.77 23.795 10.412 48.935 10.412 74.95z"/></svg>