<svg height="48" viewBox="0 -960 960 960" width="48" xmlns="http://www.w3.org/2000/svg"><path fill="rgb(255, 255, 255)" d="m483-796.5c72.399 0 141.875 15.993 206.177 47.467 64.386 31.516 118.603 77.901 160.727 136.763 4.631 7.385 7.328 16.55 5.912 23.633-1.314 6.567-5.532 13.6-10.734 17.935-5.366 4.472-13.612 7.125-20.675 6.684-7.886-.493-16.029-6.84-20.712-14.368.162.29.338.572.529.844-36.523-51.77-82.613-90.6-139.875-118.413-57.393-27.876-117.119-41.997-181.398-42.545-64.92-.113-124.573 13.674-181.262 41.526-56.567 27.793-102.33 67.717-138.19 120.806-5.692 6.976-13.488 12.644-20.748 14.005-6.403 1.201-13.853-.255-19.518-3.116.009.004.017.007.025.011-6.554-3.462-12.697-10.523-14.095-17.981-1.252-6.678-.134-14.381 2.34-20 .187-.374.398-.735.633-1.081 41.45-60.891 95.487-108.925 160.545-142.132 64.999-33.176 135.887-50.038 210.319-50.038zm0 98c92.426 0 173.299 32.247 238.592 95.159 65.336 62.955 98.908 141.814 98.908 232.341 0 35.124-13.112 67.344-37.689 92.622-24.632 25.336-56.977 38.878-92.811 38.878-36.4 0-69.268-12.89-94.573-37.141-25.334-24.279-38.927-55.812-38.927-90.359 0-21.569-6.587-38.04-21.353-53.421-14.704-15.316-30.667-22.079-52.147-22.079-20.8 0-36.651 6.778-51.715 22.149-15.077 15.385-21.785 31.813-21.785 53.351 0 66.482 18.235 120.584 55.815 165.939 37.581 45.356 89.341 74.938 158.644 89.765-.301-.063-.604-.112-.91-.146 7.993 1.36 16.486 6.265 19.577 12.961 2.56 5.547 3.442 12.79 2.779 18.825-.047.323-.109.643-.189.96-1.913 6.699-6.025 13.667-11.128 17.379-5.559 4.043-15.677 4.99-24.997 3.623-79.413-16.535-143.547-53.154-188.952-108.8-45.377-55.612-68.639-123.636-68.639-200.506 0-35.795 13.298-68.381 38.236-93.67 24.959-25.311 57.439-38.83 93.264-38.83 35.751 0 68.28 12.902 93.573 37.141 25.348 24.292 38.927 56.164 38.927 91.359 0 21.512 6.643 37.514 21.648 52.214 15.038 14.731 31.296 21.286 52.852 21.286 20.85 0 36.569-6.504 51.282-21.218 14.695-14.694 21.218-30.738 21.218-52.282 0-76.114-26.707-137.857-81.989-189.562-55.374-51.79-120.228-76.938-198.511-76.938-78.238 0-142.681 25.743-197.385 78.818-54.666 53.039-81.115 115.859-81.115 192.682 0 24.31 1.779 47.924 5.391 71.565 3.59 23.5 9.697 46.521 18.208 68.705 2.198 7.883 2.592 16.572.17 22.384-2.407 5.778-8.871 11.323-14.933 14.241-6.705 2.293-14.912 3.003-21.64 1.321-7.86-1.965-15.037-10.187-18.677-19.119-6.782-19.722-12.805-43.57-17.86-70.867-5.084-27.455-7.659-57.491-7.659-89.23 0-89.195 33.707-168.322 99.318-233.252 65.608-64.929 146.031-98.248 237.182-98.248zm0-197c44.565 0 88.866 5.302 131.753 15.771 42.913 10.475 83.897 26.134 123.105 47.048 7.646 3.879 14.534 11.223 15.979 18.93 1.252 6.678.135 14.381-2.34 20-.176.352-.374.693-.593 1.021-3.514 4.96-8.943 9.871-14.655 12.727-6.936 3.468-16.119 2.532-23.498-1.5-35.524-17.794-72.401-31.41-111.573-41.285-39.101-9.858-78.098-14.712-118.178-14.712-40.787 0-80.016 4.539-118.807 13.743-38.731 9.191-75.502 23.175-110.944 42.254-7.942 3.758-17.12 5.559-23.543 3.583-5.901-1.816-11.608-6.455-15.361-11.472-2.864-4.828-4.583-12.592-3.793-20.103.89-8.449 6.909-16.431 13.706-20.237-.358.154-.707.329-1.043.525 39.296-22.972 81.752-40.044 126.097-50.538 44.198-10.459 89.132-15.755 133.688-15.755zm0 297c63.757 0 120.442 22.569 166.061 66.129 45.677 43.617 69.439 98.826 69.439 161.371 0 7.916-2.289 16.274-6.189 21.907-4.399 6.355-13.701 10.593-22.311 10.593-9.121 0-18.734-3.974-23.53-10.208-4.357-5.665-6.97-14.248-6.97-22.292 0-48.806-16.583-87.756-51.558-121.127-35.042-33.434-75.355-49.373-124.942-49.373-49.523 0-89.573 16.508-124.282 51.218-34.718 34.717-51.218 74.437-51.218 123.282 0 52.495 7.994 97.111 24.258 135.82 16.288 38.764 42.449 76.727 79.96 115.462 5.556 5.902 9.782 13.927 9.782 20.718 0 6.169-2.519 12.869-5.883 17.656-5.26 6.163-14.162 10.844-23.117 10.844-8.975 0-18.008-4.315-24.275-10.84-39.212-40-69.296-84.298-88.992-131.502-19.715-47.246-29.733-100.615-29.733-158.158 0-63.15 23.163-119.098 67.782-163.717 44.634-44.634 101.254-67.783 165.718-67.783zm0 198c7.871 0 16.584 3.762 21.298 9.418 4.442 5.33 7.202 13.58 7.202 21.082 0 56.794 17.349 97.313 53.935 126.582 37.054 29.644 79.739 43.918 131.565 43.918 6.255 0 13.198-.604 21.555-1.89 8.993-1.383 17.717-2.11 25.445-2.11 6.983 0 14.91 2.943 19.89 7.471 5.179 4.707 7.858 13.011 7.481 19.591.049-.297.084-.595.106-.895-.281 6.433-2.157 13.395-5.478 17.665-3.222 4.143-8.624 7.695-13.804 9.615-9.952 3.508-20.72 5.819-31.041 6.53-9.792.676-17.952 1.023-24.154 1.023-66.205 0-124.439-19.947-171.071-58.693-47.017-39.066-71.429-96.964-71.429-168.807 0-7.502 2.76-15.752 7.202-21.082 4.714-5.656 13.427-9.418 21.298-9.418z"/></svg>