<svg xmlns="http://www.w3.org/2000/svg"><path fill="rgb(255, 255, 255)" d="m279.224 452.463c-42.618 7.91-89.36 2.381-123.829-14.614-54.249-27.656-87.43-76.094-95.699-139.793-4.248-36.564 7.737-83.182 30.139-117.128 3.526-5.245 10.6-13.736 16.776-20.515 3.102-3.406 6.16-6.586 8.474-8.779 1.202-1.138 2.463-2.242 3.397-2.933.566-.418 1.545-1.036 2.258-1.351.539-.238 1.852-.627 2.706-.693 1.335-.102 4.307 1.21 5.966 2.194 1.13 3.094 2.107 6.888 1.889 7.941-.176.86-.474 2.083-.821 3.385-.681 2.542-1.704 6.017-2.862 9.671-10.662 32.329-4.762 72.468 14.266 96.822 4.455 6.085 7.216 8.135 10.155 8.706 2.407.467 2.846.548 5.266-3.384l1.013-1.358-4.105-13.295c-8.358-27.19-9.531-34.898-9.448-61.831.172-26.771 2.301-40.085 10.16-63.656 17.737-51.744 63.223-99.454 111.804-117.299 5.414-1.941 9.162-3.194 11.382-3.486.856-.113 2.476-.111 3.49.122 1.629.372 4.613 2.579 5.44 4.314 1.157 2.426.33 6.289-.109 7.434-9.61 22.684-12.757 41.776-10.123 61.766 4.19 36.732 17.625 57.106 56.084 85.631 10.638 7.975 24.293 19.454 30.255 25.429 18.502 18.798 35.753 49.111 41.69 73.255 4.048 17.266 4.445 46.899.865 64.24-6.643 30.505-22.077 57.945-43.617 78.209-21.512 20.238-50.499 34.714-82.862 40.996zm2.662-60.197c18.387-5.21 35.732-16.813 46.058-30.973 10.335-14.168 16.011-34.199 15.216-53.16-2.239-23.054-8.846-34.927-37.112-62.832-16.857-16.446-23.503-23.825-26.736-30.125-1.639-3.015-3.388-6.001-4.724-8.083-1.487-2.311-7.842-8.805-13.164-9.063-4.638-.225-10.839 4.635-12.185 6.751-.833 1.308-1.753 3.424-2.203 4.768-.755 2.253-1.507 5.579-2.02 8.663-.985 5.922-1.685 14.082-1.703 21.211.064 9.408 1.755 22.65 4.434 34.591 4.883 20.884 5.329 30.354 1.196 40.116-4.904 14.946-17.055 26.598-32.459 31.146l-6.918 2.34c-4.615 1.561-7.989 5.548-8.766 10.358-.776 4.812 1.17 9.658 5.063 12.591l7.774 5.863c10.953 8.127 19.537 12.408 31.551 15.782 13.109 3.295 23.33 3.316 36.698.056z"/></svg>