<svg clip-rule="evenodd" fill-rule="evenodd" stroke-linejoin="round" stroke-miterlimit="2" viewBox="0 0 48 48" xmlns="http://www.w3.org/2000/svg"><path fill="rgb(255, 255, 255)" d="m20.209 41.714c-4.66-.108-9.251-1.895-12.534-5.175-3.284-3.281-5.181-7.87-5.181-12.528 0-4.656 1.972-9.17 5.174-12.535 3.358-3.211 7.871-5.191 12.529-5.191 4.656 0 9.172 1.974 12.536 5.178 3.211 3.36 5.082 7.874 5.19 12.537v11.643h5.2c1.317 0 2.383 1.067 2.383 2.383v1.305c0 1.316-1.066 2.383-2.383 2.383zm10.284-23.458c-.094-.159-.225-.294-.387-.387l-9.327-5.386c-.165-.096-.345-.141-.529-.141v11.827zm-20.488 0c-.092.159-.144.341-.144.527v10.772c0 .377.204.728.531.917l9.327 5.384c.028.016.057.031.086.044l.397.097c.015.001.032.001.048.001v-11.829z"/></svg>