<svg height="800" viewBox="0 0 50.8 50.8" width="800" xmlns="http://www.w3.org/2000/svg"><path fill="rgb(255, 255, 255)" d="m18.491 22.499c-.436 1.626-.768 3.194-.963 4.951-.396 3.555-.188 7.492.222 10.209.329 2.514.688 3.327 1.421 4.189.336.443.398.495.642.599.28.119.133.112.671-.065 1.568-.514 3.792-2.231 5.959-4.812 2.217-2.569 3.953-5.594 5.036-8.137.774-1.741 1.14-3.132 1.423-4.528-.171-.183-.312-.394-.417-.625-.284.301-.596.616-.928.914-1.329 1.05-2.929 1.687-4.045 1.827-1.264.001-2.803-.492-3.829-1.223-.841-.73-1.854-2.115-2.449-3.68-.322-1.009-.547-2.259-.669-3.304-.332.061-.683.129-1.022.196-.349 1.098-.806 2.567-1.052 3.489zm17.581 8.91c-1.216 2.806-3.346 6.466-5.824 9.405-2.528 2.927-5.828 5.54-8.206 6.32-1.435.47-3.159.351-4.188-.087-1.065-.454-2.043-1.406-2.605-2.099-1.063-1.41-1.933-3.404-2.445-6.553-.434-2.95-.686-7.536-.246-11.497.262-2.356 1.096-5.484 1.741-7.665-.53-.28-1.288-.974-1.549-1.57-.636-1.45.455-4.306 1.58-5.848 1.169-1.471 3.072-2.962 4.869-3.679 1.894-.585 4.199-.602 5.856-.137 1.368.383 2.7 1.109 3.718 1.813.073-.204.151-.407.234-.606.399-.874.991-1.831 1.591-2.579.555-.67 1.308-1.395 2-1.929.704-.497 1.529-.89 1.529-.89.182-.112 0 0 0 0 1.111-.82 2.676-.583 3.496.528s.583 2.676-.528 3.496c0 0-1.184.613-1.524.886-.449.329-.742.613-1.091 1.061-.404.471-.656.868-.896 1.44-.1.217-.182.442-.258.683.346.021.694.055 1.04.105 1.566.31 3.461 1.128 4.708 2.27 1.236 1.132 2.254 2.95 2.754 4.526.43 1.596.52 3.576.26 5.118-.16.782-.479 1.779-.862 2.438-.444.765-1.847 1.64-3.002 1.975-.314-.055-.647-.144-.975-.255-.292 1.015-.668 2.115-1.177 3.33zm-9.77-17.212c-.784-.641-1.549-1.09-2.596-1.384-1.078-.301-1.846-.41-2.823.031-.796.23-1.42.652-1.997 1.282 1.105-.233 2.618-.527 3.298-.546.423.017 1.16.124 1.594.338.587.29 1.293 1.164 1.469 1.666.244.693.195 1.452.214 1.83.026.897.159 2.144.511 3.107.218.852.44 1.097.867 1.399.239.298.001.239.273.117.418.019.587-.018 1.173-.624.791-.656 1.955-2.075 2.909-2.777.421-.235 1.185-.544 1.681-.565.598-.026 1.514.298 1.889.563.584.413 1.018 1.069 1.22 1.358.347.497.819 1.115 1.331 1.781-.007-.5-.099-1.001-.285-1.564-.262-1.022-.646-1.616-1.332-2.244-.675-.618-1.221-.906-2.179-1.03-.937-.203-1.915-.071-3.218.048-.967.088-1.855-.387-2.341-1.154-.492-.538-1.204-1.285-1.658-1.632z"/></svg>