<svg viewBox="32.55 -.26 446.82 512.21" xmlns="http://www.w3.org/2000/svg"><path fill="rgb(255, 255, 255)" d="m139.035 459.452c1.413 2.222 4.153 6.992 4.694 11.305.407 3.237-1.299 10.492-4.099 13.721-2.206 2.543-7.167 5.222-9.979 5.925-3.907.977-10.414-.438-12.92-1.795-1.815-.983-4.227-2.863-5.641-4.211-2.403-2.292-5.349-5.886-7.875-9.398-4.835-6.725-10.642-16.314-16.121-26.313-10.897-19.884-22.18-44.59-26.573-59.528-8.197-28.75-13.061-62.966-10.88-82.692.685-6.196 6.231-13.725 10.566-17.317 3.812-3.16 9.339-6.577 14.741-9.431 10.523-5.559 24.328-11.262 37.396-16.358 7.888-3.076 15.66-5.999 22.645-8.672-4.503-1.712-8.998-3.445-12.752-5.091-2.65-1.162-5.649-2.635-7.764-3.956-2.649-1.655-6.906-7.316-9.375-11.913-.305-2.644-.347-7.741.621-10.264.942-2.454 3.702-5.968 5.3-7.273 2.354-1.92 6.359-3.571 8.461-4.144 3.47-.945 7.825-1.475 11.324-1.976 7.063-1.012 10.377.493 9.089-1.275 4.701-5.512 11.372-10.457 16.4-12.186 5.243-1.804 11.306-2.102 15.041-2.035 3.983.072 6.12.936 6.966 1.422-.118-.11-.259-.251-.419-.427 8.688-7.687 27.332-23.515 29.472-31.674-.104-.13-.25-.359-.452-.724-1.207-2.18-2.8-4.15-5.474-7.104-5.388-5.952-13.168-13.389-17.621-20.165-1.517-3.01-3.36-8.412-3.248-12.022.112-3.627 2.133-9.134 4.094-11.924 3.043-4.328 9.139-8.869 14.86-12.028 10.472-5.784 27.349-12.557 50.022-21.951 23.373-9.653 71.691-25.026 113.949-37.2 21.151-6.093 41.151-11.499 55.895-15.046 7.442-1.79 13.965-3.2 18.56-3.964 2.447-.407 5.131-.734 6.984-.797 1.202-.041 3.416.06 4.851.337 1.081.209 3.493.986 4.851 1.723 2.007 1.088 5.418 5.34 7.18 8.02.607 2.53 1.296 7.179.858 9.36-.351 1.746-1.534 4.506-2.268 5.692-1.054 1.704-3.124 3.932-4.381 5.017-1.968 1.697-5.082 3.764-7.937 5.42-5.371 3.113-13.155 6.921-21.595 10.732-16.748 7.561-38.259 16.176-55.755 22.674-17.048 6.324-39.196 15.485-57.287 23.994-8.987 4.227-16.419 8.019-21.789 11.243-.298.179-.579.349-.844.511.776 4.498 1.49 11.806-.075 24.39-1.887 15.172-2.582 24.232-6.703 36.994-2.121 5.497-4.539 16.749.123 28.039.636 3.514 2.69 5.257 6.197 8.368 3.293 2.921 3.376 2.844 4.592 3.592 5.464-1.831 20.656-10.422 38.972-12.086 9.974-.52 22.581-.258 32.283.812 4.994.551 10.374 1.487 14.113 2.64 2.17.67 5.428 2.063 7.428 3.422 1.315.894 3.677 3.066 4.821 4.682 1.415 2 3.153 6.939 3.153 9.837 0 4.277-3.531 10.472-5.451 12.273-1.281 1.201-3.448 2.654-4.729 3.354-1.275.697-2.897 1.434-4.564 2.118 1.929.641 3.867 1.408 5.356 2.213 1.626.879 4.588 3.093 6.105 4.955 2.025 2.489 3.441 9.236 3.702 13.291-.756 2.678-2.53 7.133-4.108 8.982-1.356 1.587-4.006 3.622-5.534 4.468-2.442 1.352-6.253 2.531-8.852 3.036-4.599.895-10.86 1.252-16.593 1.315-11.291.124-24.231-.631-32.692-.631-11.744 0-31.822-5.184-45.878-9.386-2.746 2.367-6.307 3.762-10.123 3.762-1.139-.295-8.081 1.971-17.311 1.971-2.106 0-2.728.216-6.633 1.11-3.642.833-9.572 1.89-19.076 1.89-8.838 0-12.768-.355-15.816-.783-3.097-.436-4.994-.881-11.391-1.219-2.976-1.536-15.494 7.429-31.866 19.258-16.404 11.852-30.965 24.129-34.639 29.691-8.542 8.054-1.199 37.258-1.081 53.94-.051 7.167-.565 18.392-.817 29.574-.237 10.461.605 28.388.716 30.682.587 2.005 2.551 3.983 4.6 7.204zm130.226-181.31c.004.001.008.003.012.004-.004-.001-.008-.003-.012-.004z"/></svg>