<svg height="48" width="48" xmlns="http://www.w3.org/2000/svg"><path fill="rgb(255, 255, 255)" d="m44.053 18.996c.33.005.636.171.819.446.427.64 0 1.503-.768 1.552 0 0-1.313.121-2.865.479s-3.312 1.029-4.018 1.734c-.28.28-.556.543-.832.793.276.25.552.512.832.791.706.706 2.466 1.375 4.018 1.733s2.865.478 2.865.478c.356.032.667.252.817.576.324.698-.23 1.485-.997 1.416 0 0-1.437-.129-3.135-.521s-3.687-.973-4.982-2.268c-.346-.346-.677-.63-1.01-.918-1.217.867-2.405 1.434-3.568 1.69-.071.015-.143.023-.215.023h-2.957l.875-2h1.916c.677-.155 1.439-.48 2.266-1-.825-.519-1.586-.846-2.262-1.002h-1.043l.875-2h.33c.072 0 .144.008.215.024 1.162.255 2.349.825 3.566 1.691.333-.288.665-.573 1.012-.92 1.295-1.294 3.284-1.876 4.982-2.267 1.698-.392 3.135-.522 3.135-.522.043-.005.086-.008.129-.008zm-40.062.002c.033 0 .066.002.099.006 0 0 1.437.129 3.135.521s3.688.973 4.982 2.268c.347.347.68.632 1.012.92 1.218-.867 2.404-1.436 3.567-1.692.07-.015.142-.023.214-.023h2.94l-.875 2h-1.904c-.676.156-1.434.483-2.258 1.002.826.52 1.585.845 2.262 1h1.025l-.875 2h-.315c-.072 0-.144-.008-.214-.023-1.163-.256-2.349-.823-3.567-1.69-.332.288-.665.572-1.012.918-1.294 1.295-3.284 1.876-4.982 2.268s-3.135.521-3.135.521c-.356.033-.702-.127-.908-.419-.444-.629-.04-1.503.727-1.573 0 0 1.313-.12 2.865-.479 1.552-.358 3.314-1.027 4.019-1.732.28-.28.558-.541.834-.791-.276-.25-.554-.513-.834-.793-.705-.705-2.467-1.376-4.019-1.734s-2.865-.479-2.865-.479c-.321-.029-.609-.211-.772-.489-.391-.663.084-1.501.854-1.507zm12.904-6.445 3.596 7.189-.151.342c-.126-.056-.262-.085-.4-.086h-1.559l-3.275-6.551c-.35-.674.149-1.476.908-1.461.377.008.718.227.881.567zm16.021.847-7 16c-.143.327-.449.552-.803.592-.766.087-1.338-.688-1.031-1.394l7-16c.157-.37.519-.611.92-.612.729-.002 1.216.751.914 1.414zm-9 6-7 16c-.143.327-.449.552-.803.592-.766.087-1.338-.688-1.031-1.394l7-16c.157-.37.519-.611.92-.612.729-.002 1.216.751.914 1.414zm3.012-.029-4 10c-.133.332-.433.568-.787.619-.762.109-1.357-.648-1.07-1.363l4-10c.144-.374.497-.627.898-.641.729-.026 1.24.712.959 1.385zm1.129 8.629h1.197l3.619 6.514c.192.324.185.728-.017 1.046-.414.649-1.375.607-1.731-.076l-3.793-6.826.325-.744c.126.056.262.085.4.086z"/></svg>