<svg viewBox="40.28 64.1 431.68 383.8" xmlns="http://www.w3.org/2000/svg"><path fill="rgb(255, 255, 255)" d="m196.828 356.076 115.526-.233 76.658-.082-31.284 53.804c-4.56 7.753-12.692 12.449-21.611 12.477l-163.508.426c-8.951.148-17.266-4.69-21.743-12.445l-39.606-68.599 38.659-66.596zm1.303-199.77-57.561 100.167-38.258 66.429-30.954-53.996c-4.435-7.825-4.435-17.216 0-24.955l81.385-141.814c4.347-7.826 12.694-12.608 21.65-12.608h79.211l38.345 66.777zm173.018 99.646-57.965-99.932-38.401-66.347 62.239.192c8.995.072 17.127 4.767 21.611 12.476l82.122 141.388c4.604 7.679 4.572 17.299.094 25.055l-39.605 68.597-77.003-.18zm-165.216.135c0 27.737 22.346 50.084 50.083 50.084s50.083-22.347 50.083-50.084-22.433-50.083-50.083-50.083c-27.737 0-50.083 22.346-50.083 50.083zm97.595 82.69h-95.176l-47.492-82.77 47.572-82.783h95.096l47.712 82.777z"/></svg>