<svg viewBox="0 0 24 24" xmlns="http://www.w3.org/2000/svg"><path fill="rgb(255, 255, 255)" d="m13.205 20.852 3.488-6.049c.018-.031.02-.032.027-.056.01-.031.023-.06.037-.088.41-.779.671-1.657.671-2.575 0-1.504-.147-1.604-.698-2.564-.108-.198-.105-.438.01-.633.115-.194.323-.313.549-.313h3.511c.274 0 .516.174.604.433.32.947.491 1.756.491 3.077 0 2.755-1.104 5.172-2.897 6.996-.907.899-1.955 1.608-3.144 2.12-.597.25-1.222.444-1.872.578-.027.005-.07.014-.122.023-.244.039-.488-.065-.628-.268s-.151-.468-.027-.681zm-10.562-12.026c.083-.235.295-.4.542-.423.248-.023.487.101.612.317l3.517 6.08c.014.03.013.027.032.046.021.023.04.048.056.074.941 1.471 2.568 2.567 4.441 2.586.223.008.427.133.536.33.108.196.106.435-.006.629l-1.732 2.988c-.137.235-.408.357-.674.306-2.131-.429-3.846-1.423-5.399-3.163-.767-.878-1.375-1.862-1.803-2.97-.213-.555-.371-1.119-.483-1.714-.088-.48-.152-1.409-.175-1.789-.003-.045-.002-.091.006-.134.018-1.79.213-2.267.53-3.163zm9.361 6.768c-.993 0-1.831-.376-2.483-1.027-.651-.652-1.027-1.49-1.027-2.483 0-.966.357-1.785.976-2.43.235-.25.499-.457.788-.621.27-.157.564-.277.875-.355.883-.23 1.788-.134 2.641.358.86.497 1.396 1.241 1.636 2.131.238.891.145 1.803-.352 2.663-.332.576-.775 1.007-1.298 1.301-.512.299-1.1.463-1.756.463zm7.521-9.977c.157.19.19.454.085.678-.106.222-.331.365-.577.365h-7.015c-1.309.013-2.554.485-3.472 1.247-.476.395-.653.573-.776.738-.102.135-.162.273-.36.607-.117.193-.328.31-.554.308-.225-.003-.433-.124-.545-.319l-1.741-3.022c-.136-.237-.107-.534.074-.74.811-.916 1.622-1.575 2.956-2.249.669-.333 1.363-.588 2.105-.767.374-.089.745-.156 1.13-.203.31-.034.902-.061 1.144-.07.029 0 .054 0 .081.003 3.666-.002 5.735 1.338 7.465 3.424z" stroke-linejoin="round"/></svg>