<svg clip-rule="evenodd" fill-rule="evenodd" stroke-linejoin="round" stroke-miterlimit="2" viewBox="0 0 800 800" xmlns="http://www.w3.org/2000/svg"><path fill="rgb(255, 255, 255)" d="m27.791 115.22-26.25-45.47c-2.051-3.553-2.051-7.946 0-11.499l26.25-45.47c2.052-3.554 5.856-5.75 9.959-5.75h52.5c4.108 0 7.904 2.192 9.959 5.75l26.25 45.47c2.051 3.553 2.051 7.946 0 11.499l-26.25 45.47c-2.052 3.553-5.856 5.749-9.959 5.749h-52.5c-4.103 0-7.906-2.196-9.958-5.749zm76.248-76.829-37.879-21.871c-1.337-.771-2.982-.771-4.319 0l-37.879 21.871c-1.336.772-2.158 2.197-2.159 3.739v43.741c0 1.542.822 2.968 2.159 3.739l37.879 21.871c1.337.771 2.982.771 4.319 0l37.879-21.871c1.336-.772 2.158-2.197 2.159-3.739v-43.741c0-1.542-.822-2.967-2.159-3.739zm-5.196 38.152c0 .928-.496 1.787-1.3 2.251-.804.465-1.796.465-2.6 0l-4.247-2.452c-3.137-1.811-5.069-5.158-5.069-8.781v-8.373c0-1.079-.576-2.077-1.511-2.617-.935-.539-2.087-.54-3.022 0l-10.565 6.098c-2.733 1.578-4.417 4.494-4.417 7.65v12.282c0 1.073.569 2.066 1.495 2.608s2.07.552 3.006.027l7.232-4.058c3.12-1.752 6.933-1.728 10.031.061l4.289 2.476c.806.466 1.302 1.328 1.299 2.26-.002.931-.504 1.79-1.314 2.251l-23.563 13.406c-2.844 1.618-6.33 1.618-9.174 0l-23.563-13.406c-.81-.461-1.312-1.32-1.314-2.251-.003-.932.493-1.794 1.299-2.26l4.289-2.476c3.098-1.789 6.911-1.813 10.031-.062l7.233 4.059c.936.525 2.08.515 3.006-.027s1.495-1.535 1.495-2.608v-12.282c0-3.156-1.684-6.072-4.417-7.65l-10.565-6.098c-.935-.54-2.087-.539-3.022 0-.935.54-1.511 1.538-1.511 2.617v8.373c0 3.623-1.932 6.97-5.069 8.781l-4.247 2.452c-.804.465-1.796.465-2.6 0-.804-.464-1.3-1.323-1.3-2.251v-27.352c0-3.285 1.738-6.325 4.569-7.993l23.605-13.9c.804-.473 1.799-.48 2.609-.017s1.31 1.324 1.31 2.257v4.968c0 3.563-1.87 6.865-4.927 8.697l-7.434 4.456c-.919.55-1.477 1.546-1.468 2.617.008 1.071.583 2.057 1.511 2.592l10.652 6.147c2.732 1.577 6.098 1.577 8.83 0l10.651-6.147c.928-.535 1.503-1.522 1.512-2.592.009-1.071-.55-2.067-1.468-2.617l-7.434-4.456c-3.056-1.832-4.926-5.133-4.926-8.697v-4.968c0-.933.5-1.794 1.31-2.257s1.805-.456 2.609.017l23.605 13.9c2.831 1.668 4.569 4.708 4.569 7.993z" transform="matrix(5.85976 0 0 5.85976 24.9756 24.9756)"/></svg>