<svg viewBox="0 0 24 24" xmlns="http://www.w3.org/2000/svg"><path fill="rgb(255, 255, 255)" d="m12.016 3.193c.042-.009.074-.014.119-.017.082-.006.171-.002.245.01 1.106.159 2.318.899 2.979 1.912l5.739 9.956c.452.872.606 2.028.38 2.911-.239.88-.964 1.818-1.799 2.345-.875.452-2.03.605-2.913.378-.88-.241-1.811-.955-2.342-1.794l-5.753-9.953c-.456-.875-.609-2.034-.378-2.917.244-.879.964-1.808 1.801-2.337.321-.181.723-.343 1.068-.424.349-.077.738-.071.854-.07zm.074 1.938c-.183.01-.383.023-.484.048-.209.047-.341.093-.523.207-.528.25-.75.603-.892 1.15-.15.544-.148.94.181 1.419l5.755 9.956c.248.526.596.732 1.142.877.547.144.948.143 1.435-.185l.009-.007.01-.004c.52-.242.714-.581.854-1.129.148-.546.143-.949-.184-1.431l-5.736-9.952c-.318-.676-.796-.936-1.509-.944-.023-.001-.04-.003-.058-.005zm-4.022 4.472c.019.069.042.117.089.2.956 1.831 2.025 3.604 3.086 5.41.159.3.157.709-.007 1.007l-1.635 2.698c-.029.048-.061.091-.092.128-.71.995-2.027 1.715-3.24 1.781-.989-.042-2.075-.484-2.72-1.13-.647-.646-1.089-1.749-1.131-2.738.021-.628.226-1.371.529-1.923l3.327-5.644c.177-.275.521-.471.847-.484h.008c.204.005.427.077.582.191s.291.31.357.504zm-1.004 2.321-2.425 4.112c-.201.314-.269.557-.254.93-.046.58.15.943.553 1.341.399.403.745.6 1.325.554h.023c.388.027.689-.04.964-.2.274-.159.482-.387.651-.738.018-.032.044-.074.067-.104l1.282-2.116c-.792-1.345-1.434-2.414-2.186-3.779z"/></svg>