<svg viewBox="20.63 45.33 471.4 421.34" xmlns="http://www.w3.org/2000/svg"><path fill="rgb(255, 255, 255)" d="m213.667 336.697.004.003 64.031 106.721.026.079h-104.575c-15.53-.001-29.881-8.291-37.641-21.743l-49.104-85.06.011-.001h127.237zm246.621-102.436c7.761 13.453 7.761 30.025 0 43.478l-47.99 83.093.001-.002-64.913-104.83.001-.001 65.138-104.24.083-.092 47.68 82.593zm-246.621-58.957h-.001l.001-.002h-127.259l49.128-85.058c7.759-13.455 22.109-21.744 37.641-21.743h104.571l-64.081 106.801h.001zm-161.296 102.437c-7.76-13.455-7.76-30.026 0-43.481l21.192-36.708 126.755.003-35.066 58.445 34.625 57.713-129.208-4.278zm287.113-209.24c15.531.001 29.881 8.291 37.641 21.743l21.571 37.363-62.939 109.011-36.79-61.314h-62.236l66.468-106.803zm37.641 353.256c-7.76 13.452-22.11 21.742-37.641 21.743h-41.815l-61.662-106.803h62.96l35.71-59.515 60.507 113.297z"/></svg>