<svg clip-rule="evenodd" fill-rule="evenodd" stroke-linejoin="round" stroke-miterlimit="2" viewBox="0 0 24 24" xmlns="http://www.w3.org/2000/svg"><path fill="rgb(255, 255, 255)" d="m14.421 17.93c-.547.765-1.093 1.586-1.499 2.472l-.002.006c-.143.298-.244.606-.354.915-.072.204-.14.407-.206.611-.051.154-.195.258-.357.26-.162 0-.306-.105-.357-.259-.251-.759-.51-1.488-.896-2.189l-.002-.004c-.372-.699-.822-1.354-1.292-1.989-.104-.14-.097-.333.014-.466l8.729-10.381c.09-.106.232-.155.369-.125.136.03.245.134.281.27.524 1.955.196 4.088-.756 5.876l-.004.006c-1.002 1.799-2.441 3.319-3.665 4.991l-.001.001s-.038.05-.004.007c-.098.131-.02.025 0 0 .001-.001.001-.002.002-.002zm.61-10.696c-.003-.004-.004-.006-.004-.006-.531-.951-1.483-1.573-2.522-1.713-.137-.018-.252-.109-.301-.236-.049-.128-.026-.272.062-.378l2.041-2.438c.105-.126.281-.169.434-.106 1.33.559 2.46 1.513 3.244 2.728.09.138.079.32-.029.446l-2.028 2.404c-.088.103-.224.151-.357.126s-.242-.12-.285-.249c-.067-.196-.155-.39-.255-.578.019.033.091.159 0 0zm-5.433 2.608c.531.951 1.482 1.572 2.522 1.712.136.018.251.109.301.237.049.128.026.271-.062.377l-3.455 4.127c-.071.085-.176.135-.288.135-.115 0-.222-.053-.292-.14l-.134-.161.066.03-.003-.006-.073-.036c-.823-1.039-1.681-2.078-2.312-3.263-.073-.135-.055-.301.044-.418l2.785-3.301c.086-.103.224-.152.357-.126.133.024.241.12.285.248.067.195.154.389.253.576l.006.009c-.14-.004 0 0 0 0zm-3.042-4.811 2.162 1.83c.159.134.178.37.045.529l-3.015 3.581c-.091.109-.237.157-.376.123-.138-.034-.246-.143-.277-.282-.439-1.936-.153-4.01.9-5.693.058-.092.152-.155.26-.171.108-.018.217.014.301.083zm.681-1.375c1.303-1.177 2.99-1.849 4.763-1.849.22 0 .441.011.661.032.139.014.259.103.311.232.053.129.03.277-.06.384l-2.974 3.537c-.133.158-.37.179-.529.045l-2.161-1.816c-.084-.07-.132-.172-.134-.28-.002-.109.043-.213.123-.285z" stroke-width="1.073"/></svg>