<svg height="48" viewBox="0 -960 960 960" width="48" xmlns="http://www.w3.org/2000/svg"><path fill="rgb(255, 255, 255)" d="m479.92-260c80.72 0 154.58-21.833 221.58-65.5s118.167-101.833 153.5-174.5c-35.333-72.667-86.473-130.833-153.42-174.5s-140.78-65.5-221.5-65.5-154.58 21.833-221.58 65.5-118.5 101.833-154.5 174.5c36 72.667 87.473 130.833 154.42 174.5s140.78 65.5 221.5 65.5zm-68.511-241.282c15.647 0 28.887-5.43 39.764-16.3 10.887-11.16 16.321-24.43 16.321-39.96 0-15.54-5.475-28.82-16.414-39.67-10.939-11.01-24.242-16.29-39.868-16.29s-28.867 5.28-39.754 16.29c-10.877 11.01-16.31 24.28-16.31 39.82 0 15.68 5.464 28.8 16.414 39.81 10.939 10.87 24.221 16.3 39.847 16.3zm68.591 336.282c-95.071 0-183.4-27.003-261.639-79.217-77.713-52.376-140.657-121.097-186.878-204.004-4.318-7.955-7.873-16.914-10.11-25.47-2.137-8.552-3.373-17.81-3.373-26.289 0-8.48 1.194-17.737 3.377-26.243 2.186-8.519 5.827-17.569 10.132-25.602 46.221-82.908 109.139-151.582 186.852-203.958 78.239-52.214 166.568-79.217 261.639-79.217s183.4 27.003 261.639 79.217c77.713 52.376 140.657 121.097 186.878 204.004 4.318 7.955 7.873 16.914 10.11 25.47 2.137 8.552 3.373 17.811 3.373 26.289 0 8.48-1.194 17.737-3.377 26.243-2.186 8.519-5.827 17.569-10.132 25.602-46.221 82.908-109.139 151.582-186.852 203.958-78.239 52.214-166.568 79.217-261.639 79.217zm-192.853-323.892c0-52.539 19.756-99.518 56.166-136.666 37.066-36.489 84.001-56.314 136.559-56.314 52.551 0 99.52 19.763 136.668 56.165 36.502 37.071 56.313 84.019 56.313 136.565 0 31.474-7.113 61.622-20.227 87.717-1.894 3.711-5.577 6.174-9.73 6.507-4.153.332-8.182-1.513-10.643-4.875l-39.355-53.788c-1.712-3.142-2.386-3.282-6.404-3.091-3.091-1.032-3.186-.445-4.696 3.006l-89.102 114.34c-2.32 2.978-5.907 4.69-9.682 4.622s-7.298-1.909-9.509-4.97l-57.172-79.152c-2.348-3.773-2.634-4.156-5.867-3.189-3.963-.211-4.396-.299-5.949 2.774l-46.196 62.253c-2.107 2.838-5.357 4.604-8.884 4.825-3.527.222-6.973-1.122-9.418-3.674-34.269-36.408-52.872-82.143-52.872-133.055z"/></svg>