<svg clip-rule="evenodd" fill-rule="evenodd" stroke-linejoin="round" stroke-miterlimit="2" viewBox="0 0 48 48" xmlns="http://www.w3.org/2000/svg"><path fill="rgb(255, 255, 255)" d="m31.467 3.305h10.342c.959 0 1.737.777 1.737 1.737v37.916c0 .96-.778 1.737-1.737 1.737h-10.342c-.959 0-1.737-.777-1.737-1.737v-13.199h-11.462v13.199c0 .96-.777 1.737-1.737 1.737h-10.341c-.959 0-1.737-.777-1.737-1.737v-37.916c0-.96.778-1.737 1.737-1.737h10.341c.96 0 1.737.777 1.737 1.737v13.199h11.462v-13.199c0-.96.778-1.737 1.737-1.737zm2.579 18.971v3.447c0 .48.389.869.868.869h3.447c.48 0 .869-.389.869-.869v-3.447c0-.479-.389-.868-.869-.868h-3.447c-.479 0-.868.389-.868.868zm0-11.489v3.447c0 .479.389.869.868.869h3.447c.48 0 .869-.39.869-.869v-3.447c0-.479-.389-.869-.869-.869h-3.447c-.479 0-.868.39-.868.869zm0 22.979v3.447c0 .479.389.868.868.868h3.447c.48 0 .869-.389.869-.868v-3.447c0-.48-.389-.869-.869-.869h-3.447c-.479 0-.868.389-.868.869zm-25.277-11.49v3.447c0 .48.389.869.869.869h3.447c.479 0 .868-.389.868-.869v-3.447c0-.479-.389-.868-.868-.868h-3.447c-.48 0-.869.389-.869.868zm0-11.489v3.447c0 .479.389.869.869.869h3.447c.479 0 .868-.39.868-.869v-3.447c0-.479-.389-.869-.868-.869h-3.447c-.48 0-.869.39-.869.869zm0 22.979v3.447c0 .479.389.868.869.868h3.447c.479 0 .868-.389.868-.868v-3.447c0-.48-.389-.869-.868-.869h-3.447c-.48 0-.869.389-.869.869z"/></svg>