<svg viewBox="0 82.9 512 346.2" xmlns="http://www.w3.org/2000/svg"><path fill="rgb(255, 255, 255)" d="m110.811 344.012-7.261-29.51c-20.323-6.908-38.099-18.506-52.467-35.25-14.362-16.74-24.318-38.521-27.457-61.55-.232-1.789.318-3.593 1.509-4.949s2.908-2.133 4.713-2.133h48.325l-21.336-86.946c-.492-2.003.032-4.12 1.402-5.663 1.371-1.541 3.411-2.311 5.459-2.058 20.534 2.635 40.105 10.378 56.306 21.415 5.675 3.885 11.305 8.394 16.309 13.197 23.655 23.056 39.27 56.395 39.27 92.097 0 27.758-9.402 54.338-24.455 75.179-8.44 11.45-19.025 21.754-30.663 29.837-1.696 1.17-3.861 1.433-5.789.7-1.927-.731-3.373-2.364-3.865-4.366zm377.563-126.31c-3.139 23.029-13.095 44.81-27.457 61.55-14.368 16.744-32.135 28.351-52.467 35.251l-7.261 29.509c-.493 2.007-1.943 3.641-3.876 4.371-1.933.729-4.101.461-5.797-.719-11.531-8.066-22.195-18.369-30.566-29.836-15.051-20.839-24.446-47.408-24.446-75.166 0-35.702 15.655-69.079 39.31-92.135 4.959-4.677 10.568-9.254 16.267-13.157 16.281-11.033 35.859-18.781 56.305-21.417 2.048-.254 4.089.515 5.461 2.058 1.37 1.542 1.895 3.659 1.403 5.663l-21.336 86.946h48.238c1.805 0 3.522.777 4.713 2.133s1.741 3.16 1.509 4.949zm-202.751 78.485c-.863-.042-1.742-.136-2.625-.28-2.306-.325-4.636-1.051-6.777-2.052-2.377-1.076-4.52-2.472-6.136-4.088-3.629-3.628-6.42-9.915-6.42-15.539 0-.015 0-.029 0-.044 0-.016 0-.03 0-.045 0-5.624 2.791-11.911 6.42-15.539 1.616-1.616 3.759-3.012 6.136-4.088 2.141-1.001 4.471-1.727 6.777-2.052.883-.144 1.762-.238 2.625-.28v.09c1.762 0 3.587.273 5.376.761 1.052.186 2.216.464 3.178.87 2.445 1.03 5.15 2.864 6.985 4.699 3.629 3.628 6.42 9.915 6.42 15.539v.045.044c0 5.624-2.791 11.911-6.42 15.539-1.835 1.835-4.54 3.669-6.985 4.7-.963.406-2.127.683-3.18.87-1.788.487-3.613.76-5.374.76zm-59.246-44.007c.864.042 1.743.136 2.626.28 2.306.325 4.636 1.051 6.777 2.052 2.377 1.076 4.52 2.472 6.136 4.088 3.629 3.628 6.42 9.915 6.42 15.539v.045.044c0 5.624-2.791 11.911-6.42 15.539-1.616 1.616-3.759 3.012-6.136 4.088-2.141 1.001-4.471 1.727-6.777 2.052-.883.144-1.762.238-2.626.28v-.09c-1.76 0-3.585-.273-5.373-.76-1.053-.187-2.217-.464-3.181-.87-2.445-1.031-5.15-2.865-6.984-4.7-3.629-3.628-6.42-9.915-6.42-15.539 0-.015 0-.029 0-.044 0-.016 0-.03 0-.045 0-5.624 2.791-11.911 6.42-15.539 1.834-1.835 4.539-3.669 6.984-4.699.963-.406 2.126-.684 3.179-.87 1.789-.488 3.614-.761 5.375-.761zm-4.917 65.885c11.483-2.693 23.085-3.97 34.54-3.937 11.455-.033 23.057 1.244 34.54 3.937l-.043.177c.31.075.619.15.928.226.034-.063.058-.094.071-.089 0 0 1.365.385 3.463 1.005 3.392.925 6.74 1.967 10.034 3.125 2.98.985 5.903 2.02 8.116 2.948 7.13 2.991 14.149 6.626 20.574 10.615 12.858 7.982 24.578 18.182 34.196 29.4 10.563 12.45 19.256 27.058 25.118 42.158.353.918.481 1.891.391 2.842.019.195.028.392.028.588v.084c0 1.669-.665 3.269-1.847 4.447-1.183 1.177-2.787 1.834-4.456 1.827l-131.113-.592-131.113.592c-1.669.007-3.273-.65-4.456-1.827-1.182-1.178-1.847-2.778-1.847-4.447v-.084c0-.196.009-.393.028-.588-.09-.951.038-1.924.391-2.842 5.862-15.1 14.555-29.708 25.118-42.158 9.618-11.218 21.338-21.418 34.196-29.4 6.425-3.989 13.444-7.624 20.574-10.615 2.213-.928 5.136-1.963 8.116-2.948 3.294-1.158 6.642-2.2 10.034-3.125 2.098-.62 3.463-1.005 3.463-1.005.013-.005.037.026.071.089.309-.076.618-.151.928-.226zm44.878-85.543-.545-79.277c.275-15.707 6.915-31.15 17.178-41.412 10.262-10.263 25.704-17.178 41.412-17.178 19.578 0 38.168 10.957 48.585 25.881.941 1.4 1.278 3.119.937 4.77s-1.334 3.095-2.752 4.007c-3.875 2.48-7.428 5.169-11.029 8.139-1.375 1.132-3.166 1.626-4.927 1.36s-3.326-1.268-4.304-2.757c-5.803-9.412-14.88-14.466-26.583-14.466-9.18 0-16.299 3.204-22.376 9.28-6.077 6.077-9.554 13.15-9.279 22.33l.545 74.584c.014 2.043-.967 3.967-2.631 5.153-1.664 1.187-3.803 1.489-5.73.809-.837-.324-1.175-.369-1.91-.369-2.758 0-3.954.353-5.151 2.662-1.554 2.256-4.391 3.243-7.009 2.438-2.619-.805-4.413-3.215-4.431-5.954zm-114.518-95.19c-3.543-2.995-7.068-5.589-10.973-8.091-1.418-.913-2.411-2.357-2.752-4.007-.341-1.651-.005-3.37.937-4.77 10.417-14.924 29.007-25.882 48.585-25.882 15.708 0 31.15 6.916 41.412 17.178 10.263 10.262 16.903 25.662 17.178 41.369l.545 79.235c.019 2.755-1.762 5.2-4.39 6.027-2.627.827-5.487-.157-7.051-2.425-1.196-2.31-2.392-2.662-5.15-2.662-.701 0-1.019.055-2.014.404-1.906.635-3.999.319-5.633-.85-1.633-1.168-2.609-3.048-2.624-5.056l-.545-74.63c.275-9.18-3.202-16.299-9.279-22.375-6.076-6.077-13.196-9.28-22.376-9.28-11.703 0-20.78 5.054-26.583 14.466-.985 1.499-2.565 2.504-4.34 2.762-1.776.258-3.576-.257-4.947-1.413z"/></svg>