<svg height="48" viewBox="0 -960 960 960" width="48" xmlns="http://www.w3.org/2000/svg"><path fill="rgb(255, 255, 255)" d="m189-510q-38.78 0-66.39-27.64t-27.61-67.36v-166q0-39.19 27.61-67.09 27.61-27.91 66.39-27.91h167q38.77 0 66.39 27.91 27.61 27.9 27.61 67.09v166q0 39.72-27.61 67.36-27.62 27.64-66.39 27.64zm0 415q-38.78 0-66.39-27.61t-27.61-66.39v-167q0-38.77 27.61-66.39 27.61-27.61 66.39-27.61h167q38.77 0 66.39 27.61 27.61 27.62 27.61 66.39v167q0 38.78-27.61 66.39-27.62 27.61-66.39 27.61zm416-415q-39.72 0-67.36-27.64t-27.64-67.36v-166q0-39.19 27.64-67.09 27.64-27.91 67.36-27.91h166q39.19 0 67.09 27.91 27.91 27.9 27.91 67.09v166q0 39.72-27.91 67.36-27.9 27.64-67.09 27.64zm0 415q-39.72 0-67.36-27.61t-27.64-66.39v-167q0-38.77 27.64-66.39 27.64-27.61 67.36-27.61h166q39.19 0 67.09 27.61 27.91 27.62 27.91 66.39v167q0 38.78-27.91 66.39-27.9 27.61-67.09 27.61zm-416-510h167v-166h-167zm416 0h166v-166h-166zm0 416h166v-167h-166zm-416 0h167v-167h-167z"/></svg>