<svg viewBox="25.47 32.15 205.96 191.2" xmlns="http://www.w3.org/2000/svg"><path fill="rgb(255, 255, 255)" clip-rule="evenodd" d="m203.21 124.174c-.001.133-1.603 14.647-1.642 14.832l-.109.506c-.037.17-.075.339-.114.508-2.133-2.073-4.957-3.203-8.073-3.203-2.827 0-5.733.936-8.642 2.78-1.931 1.226-4.064 3.399-6.261 6.129-2.035-2.822-4.883-4.698-8.138-5.21-.621-.098-1.25-.148-1.879-.148-7.438 0-11.914 6.453-13.607 12.257-.84 1.962-4.869 10.894-10.932 16.952-9.197 9.19-11.526 18.67-7.027 28.822l-.427.051c-.626.075-1.252.141-1.88.197l-.376.034-.342.029-.487.039-.536.039-.537.035-.118.008-.156.009-.266.014-.179.011c-.165.009-.332.016-.5.023l-.581.026-.528.018-.351.009h-.179c-.06 0-.119.001-.178.004l-.151.004h-.174c-.111-.001-.221.001-.33.005l-.447.005h-.626c-.589.001-1.179-.006-1.769-.02l-.096-.003c-.089-.001-.178-.003-.267-.007l-.07-.002-.419-.012-.522-.02-.469-.021-.122-.005-.447-.023-.142-.008-.229-.014-.289-.017c-.364-.023-.727-.049-1.089-.077l-.38-.03-.413-.035-.066-.006c-.187-.016-.374-.033-.561-.052-.315-.029-.628-.061-.939-.096h-.016c4.571-10.195 2.26-19.716-6.976-28.943-6.076-6.042-10.105-14.974-10.941-16.935-1.692-5.805-6.171-12.258-13.607-12.258-.628.001-1.257.05-1.878.148-3.258.512-6.106 2.388-8.138 5.21-2.196-2.731-4.33-4.902-6.26-6.128-2.91-1.845-5.813-2.781-8.643-2.781-3.531 0-6.687 1.45-8.887 4.08l-.056.067-.091-.385-.032-.135-.005-.022c-.421-1.803-1.965-16.255-1.965-16.255.002-.163 0-.326-.005-.489-.003-.109-.003-.218 0-.327v-.164c0-41.852 33.931-75.783 75.787-75.783 41.857 0 75.775 33.929 75.775 75.783zm-94.572 75.217c-8.343 12.228-32.215 7.062-41.615 4.624-.24-.061-29.333-8.29-25.65-15.28 1.949-3.697 7.904-.421 13.339 2.57 4.841 2.664 9.27 5.101 10.087 2.179.789-2.818-4.571-4.894-10.431-7.164-7.034-2.725-14.79-5.729-13.502-10.632 1.489-5.665 12.031.664 20.026 5.465 4.69 2.815 8.503 5.104 9.1 4.14 1.617-2.609.731-4.428-10.66-11.324-.894-.54-1.764-1.064-2.611-1.572-9.956-5.979-16.417-9.858-12.227-14.421 4.544-4.951 25.42 14.047 25.42 14.047s6.667 6.932 8.56 3.745c.954-1.605-3.507-6.141-8.311-11.025-4.735-4.814-9.803-9.967-10.348-12.986-1.097-6.082 2.176-7.736 6.83-4.785s13.631 18.378 16.919 24.38c3.288 6.001 13.53 1.665 4.988-4.73-8.543-6.395-5.55-16.842-1.47-17.484s5.869 6.349 5.869 6.349 4.793 12.036 13.029 20.267c8.234 8.23 8.66 14.836 2.658 23.637zm41.324-23.637c8.235-8.23 13.028-20.267 13.028-20.267s1.789-6.991 5.869-6.349 7.073 11.089-1.469 17.484 1.699 10.731 4.987 4.73c3.289-6.002 12.26-21.429 16.914-24.38s7.929-1.297 6.831 4.785c-.544 3.019-5.613 8.172-10.348 12.987-4.804 4.884-9.265 9.419-8.312 11.024 1.893 3.187 8.565-3.749 8.565-3.749s20.875-18.997 25.421-14.046c4.189 4.562-2.272 8.442-12.229 14.421-.871.523-1.741 1.047-2.61 1.572-11.391 6.896-12.277 8.715-10.661 11.323.598.965 4.411-1.325 9.1-4.14 7.996-4.8 18.538-11.13 20.027-5.464 1.289 4.903-6.468 7.907-13.502 10.632-5.86 2.27-11.22 4.346-10.432 7.164.816 2.921 5.244.484 10.084-2.18 5.435-2.991 11.391-6.269 13.339-2.569 3.684 6.994-25.414 15.215-25.649 15.275-9.4 2.446-33.272 7.612-41.612-4.616-6.002-8.801-5.576-15.407 2.659-23.637zm-5.97-72.494c.748 1.407 13.134 5.367 14.748 4.509 5.501-2.928 7.436-9.86 4.247-15.214-1.673-2.804-4.514-4.711-7.742-5.198-4.946-.745-9.765 1.971-11.689 6.589-1.257 3.013-1.097 6.431.436 9.314zm-50.013 4.509c1.613.858 14-3.102 14.749-4.509 1.012-1.904 1.437-4.065 1.221-6.211-.444-4.387-3.485-8.076-7.707-9.348-3.011-.909-6.268-.473-8.935 1.195-7.114 4.453-6.741 14.938.672 18.873zm61.254 18.208c0-5.1-3.431-3.495-8.924-.775l-.31.153c-5.042 2.497-11.754 5.822-19.122 5.822s-14.081-3.325-19.122-5.823c-5.671-2.809-9.228-4.571-9.228.624 0 6.656 3.182 17.585 11.916 23.934 0 0 0 0 0-.001 4.144 3.011 9.538 4.989 16.435 4.989 7.341 0 12.978-2.241 17.219-5.583-1.314-2.445-1.313-2.445.002.001 8.143-6.415 11.134-16.889 11.134-23.341zm-71.615-23.358c-2.41-4.895-9.214-5.345-12.248-.811-1.317 1.967-1.564 4.463-.657 6.65.717 1.739 2.098 3.12 3.837 3.837 2.187.907 4.682.661 6.65-.655 2.954-1.976 3.988-5.833 2.418-9.021zm101.606 5.841c1.099-2.648.493-5.698-1.536-7.724-2.297-2.303-5.867-2.744-8.656-1.07-1.924 1.155-3.189 3.152-3.411 5.385-.114 1.16.059 2.33.504 3.407.717 1.739 2.098 3.12 3.837 3.837 2.187.908 4.683.662 6.651-.655 1.165-.779 2.074-1.886 2.611-3.18z" fill-rule="evenodd"/></svg>