<svg height="48" width="48" xmlns="http://www.w3.org/2000/svg"><path fill="rgb(255, 255, 255)" d="m28.151 9.743 6.382 3.688c.069.039.115.11.124.189.008.079-.021.157-.08.211-.494.448-.841.992-1.035 1.63-.023.073-.077.131-.148.159s-.15.021-.216-.017l-5.874-3.395c-.059-.033-.101-.089-.117-.155-.017-.065-.006-.135.029-.192.365-.582.551-1.22.56-1.907.002-.088.05-.169.127-.213.077-.043.172-.043.248.002zm-7.856.271c.019.656.198 1.267.544 1.827.035.057.046.126.029.192-.016.065-.059.121-.117.154l-5.971 3.448c-.066.039-.146.045-.217.016-.071-.028-.126-.087-.147-.16-.179-.612-.502-1.14-.961-1.585-.056-.054-.083-.132-.073-.209.01-.078.055-.146.123-.185l6.415-3.705c.076-.044.169-.045.246-.003.077.043.126.123.129.21zm-8.363 18.008c-.356-.11-.709-.163-1.079-.162-.227.002-.439.02-.659.062-.073.013-.149-.006-.206-.054-.057-.047-.09-.118-.09-.192v-7.193c0-.074.033-.144.09-.192.057-.047.132-.067.205-.054.221.041.433.06.658.06.371 0 .725-.052 1.081-.162.069-.021.144-.011.204.026.001-.001.001-.002.001-.003.024-.068.075-.123.142-.15.564-.229 1.038-.575 1.427-1.04.053-.063.132-.095.213-.088s.154.054.195.124l8.723 15.112c.036.063.043.14.019.209-.025.069-.078.123-.147.15-.566.212-1.05.544-1.451.996-.053.06-.132.09-.212.082-.08-.009-.15-.055-.19-.124l-8.601-14.896v7.25c0 .079-.038.154-.101.201-.064.047-.146.061-.222.038zm24.145-7.869c.337.098.67.145 1.02.144.3-.002.585-.035.873-.107.075-.018.154-.001.214.046.061.048.096.12.096.197v7.295c0 .077-.036.15-.096.197-.061.048-.141.064-.215.045-.289-.074-.573-.108-.871-.11-.352-.001-.684.046-1.021.144-.075.022-.157.007-.219-.04-.063-.047-.1-.121-.1-.2v-7.155l-8.555 14.824c-.04.069-.111.115-.191.124-.08.008-.158-.022-.212-.082-.403-.454-.887-.784-1.457-.996-.068-.026-.122-.081-.146-.15-.025-.069-.018-.146.019-.209l8.687-15.046c.04-.07.111-.116.191-.124.079-.008.158.023.212.083.401.455.882.791 1.448 1.006.062.024.112.072.139.132.056-.029.122-.036.184-.018zm-21.205 12.024 5.932 3.427c.059.034.102.091.118.157.016.067.004.137-.033.194-.324.498-.515 1.041-.571 1.634-.009.085-.06.159-.135.198-.076.038-.166.036-.239-.006l-6.095-3.521c-.063-.036-.107-.098-.121-.169-.013-.071.005-.145.05-.202.367-.46.607-.973.724-1.547.017-.079.07-.145.143-.177.073-.033.158-.029.227.012zm19.302 2.176-6.057 3.497c-.074.042-.165.044-.241.004-.076-.039-.126-.115-.133-.201-.047-.623-.241-1.194-.583-1.716-.037-.058-.049-.128-.033-.195.016-.066.059-.123.118-.157l5.845-3.376c.069-.04.153-.045.226-.012.074.032.127.097.143.176.126.6.385 1.134.782 1.603.047.056.067.131.054.204-.013.072-.057.136-.121.173zm-7.161-24.647c0 .829-.357 1.626-.898 2.166-.54.541-1.338.897-2.166.897s-1.625-.356-2.165-.897c-.541-.54-.897-1.337-.897-2.166 0-.828.357-1.625.897-2.165s1.337-.896 2.165-.896 1.626.356 2.166.896c.541.54.898 1.337.898 2.165zm-3.118-.687c-.198.004-.322.08-.449.217s-.194.272-.184.469c-.011.209.063.35.201.489.138.138.278.201.486.201s.349-.063.487-.202c.138-.138.201-.278.201-.487 0-.207-.063-.348-.201-.486s-.279-.212-.487-.201c-.015-.001-.037-.001-.054 0zm16.292 22.48c0 .828-.356 1.625-.897 2.165-.541.541-1.338.897-2.166.897-.827 0-1.624-.356-2.165-.897-.541-.54-.898-1.337-.898-2.165 0-.827.357-1.625.898-2.165.54-.541 1.338-.898 2.165-.898.828 0 1.626.357 2.166.898.541.541.897 1.338.897 2.165zm-3.128-.688c-.199.004-.312.08-.439.217s-.194.272-.183.47c-.011.207.063.349.201.487.138.139.278.202.486.202.207 0 .347-.063.485-.202.139-.138.202-.279.202-.486s-.063-.348-.202-.486c-.138-.139-.278-.202-.485-.202-.022 0-.043 0-.065 0zm3.128-14.33c0 .827-.356 1.624-.897 2.165-.54.54-1.338.897-2.166.897-.827 0-1.625-.357-2.165-.897-.541-.541-.898-1.338-.898-2.165 0-.828.357-1.626.898-2.166.541-.541 1.338-.897 2.165-.897.828 0 1.626.356 2.166.897.541.54.897 1.338.897 2.166zm-3.128-.689c-.199.004-.312.08-.439.217s-.194.273-.183.471c-.011.207.063.349.201.487s.278.201.486.201c.207 0 .347-.063.486-.201.138-.139.201-.279.201-.486 0-.208-.063-.349-.202-.487-.138-.139-.278-.202-.485-.202-.022 0-.043 0-.065 0zm-23.12 15.707c0 .828-.357 1.625-.898 2.165-.541.541-1.338.897-2.165.897-.828 0-1.626-.356-2.166-.897-.541-.54-.897-1.337-.897-2.165 0-.827.356-1.624.897-2.165.54-.541 1.338-.898 2.166-.898.827 0 1.625.357 2.165.898.541.54.898 1.338.898 2.165zm-3.13-.688c-.198.004-.309.08-.436.217s-.194.273-.184.471c-.011.207.063.348.202.486.138.139.278.202.485.202.208 0 .348-.063.486-.202.138-.138.201-.278.201-.486s-.063-.348-.201-.486c-.138-.139-.278-.202-.486-.202-.022 0-.045 0-.067 0zm3.13-14.33c0 .827-.357 1.624-.898 2.165-.54.54-1.338.897-2.165.897-.828 0-1.626-.357-2.166-.897-.541-.541-.897-1.338-.897-2.165 0-.828.356-1.626.897-2.166.54-.541 1.338-.897 2.166-.897.827 0 1.624.356 2.165.897.541.54.898 1.338.898 2.166zm-3.13-.689c-.197.004-.309.08-.436.217s-.194.273-.184.471c-.011.208.063.348.201.487.139.138.279.201.486.201.208 0 .348-.063.486-.201s.201-.279.201-.486c0-.209-.063-.349-.201-.488-.138-.138-.278-.201-.486-.201-.022 0-.045 0-.067 0zm16.204 22.273c0 .828-.357 1.625-.898 2.165-.54.54-1.338.896-2.166.896s-1.625-.356-2.165-.896c-.541-.54-.897-1.337-.897-2.165s.356-1.625.897-2.166c.54-.54 1.337-.896 2.165-.896s1.626.356 2.166.896c.541.541.898 1.338.898 2.166zm-3.118-.688c-.198.004-.322.081-.449.218-.127.136-.194.271-.184.469-.011.208.063.349.201.487s.278.201.486.201.349-.063.487-.201.201-.279.201-.486c0-.208-.063-.348-.201-.487-.138-.138-.279-.212-.487-.201-.015-.001-.037-.001-.054 0z"/></svg>