<svg height="48" viewBox="0 -960 960 960" width="48" xmlns="http://www.w3.org/2000/svg"><path fill="rgb(255, 255, 255)" d="m797-95c-81.4 0-163.75-19.333-247.05-58s-160.45-93.5-231.45-164.5-126-148.32-165-231.96-58.5-165.82-58.5-246.54c0-19.62 6.667-36.19 20-49.71 13.333-13.527 29.667-20.29 49-20.29h140c20.667 0 37.5 5.5 50.5 16.5s21.833 26.833 26.5 47.5l26.93 109.64c2.713 17.573 2.237 33.027-1.43 46.36s-10.91 24.743-21.73 34.23l-103.77 94.77c14.667 24 30.333 46.667 47 68s35.667 42 57 62c22 23.333 44.167 43.667 66.5 61s45.167 32 68.5 44l100-101c11.333-12 24.05-20 38.15-24s29.05-4 44.85 0l99 23c20.667 6 36.5 15.68 47.5 29.04 11 13.367 16.5 30.02 16.5 49.96v141c0 19.713-6.787 36.143-20.36 49.29-13.567 13.14-29.78 19.71-48.64 19.71zm-563-505 80-75-22-96h-101c.667 24 4.153 49.813 10.46 77.44 6.3 27.627 17.147 58.813 32.54 93.56zm372 367c24 11.333 50.5 20.667 79.5 28s57.5 12 85.5 14v-102.82l-88-19.18zm87.437-321.45c-24.652 0-48.411-4.719-69.908-13.903-21.446-9.161-40.755-22.192-56.852-38.279-16.103-16.094-29.052-35.476-38.284-56.846-9.136-21.486-13.939-45.237-13.939-69.952 0-24.635 4.802-48.384 13.936-69.955 9.241-21.464 22.223-40.65 38.229-56.7 16.1-15.955 35.343-28.892 56.749-38.246 21.535-9.295 45.309-14.169 70.02-14.169s48.504 4.872 70.091 14.165c21.452 9.287 40.695 22.216 56.692 38.104 15.914 16.036 28.881 35.222 38.222 56.743 9.252 21.571 14.107 45.419 14.107 70.128 0 24.733-4.865 48.496-14.129 69.989-9.355 21.438-22.334 40.604-38.259 56.656-16.029 16.046-35.271 28.979-56.703 38.276-21.565 9.202-45.311 13.989-69.972 13.989zm-.163-51.11c32.77 0 59.839-9.786 83.363-30.816 18.58-16.134 30.936-34.75 37.632-56.83-4.809 1.844-10.292 2.867-15.575 2.926h-30.409c-11.177-.254-21.969-4.772-30.077-12.517-7.77-8.121-12.264-19.016-12.509-30.143v-11.67h-65.672c-3.59 0-6.5-2.91-6.5-6.5v-33.49c.247-11.462 4.769-22.368 12.582-30.414 8.143-7.671 18.943-12.094 30.141-12.336h11.608v-2.42c.145-6.719 2.574-14.853 6.886-22.84 4.869-8.35 2.483-3.844 3.905-5.496-1.747-.356 1.501.236-5.306-1.035-6.603-1.257-13.048-1.829-19.923-1.829-36.164 0-65.608 11.846-90.633 37.18-25.271 24.86-37.128 54.139-37.219 90.1h36.072c21.251.248 40.575 8.257 55.68 22.978 14.761 15.16 22.745 34.418 22.992 55.532v18.01c0 3.59-2.91 6.5-6.5 6.5h-47.425v8.975c9.434 4.681 17.951 8.031 30.012 11.334 11.962 3.232 23.964 4.801 36.875 4.801z"/></svg>