<svg viewBox="0 -960 960 960" xmlns="http://www.w3.org/2000/svg"><path fill="rgb(255, 255, 255)" d="m134.414-931.37c36.066-3.12 214.64-5.19 345.552-5.19 130.961 0 218.872.75 345.605 5.19 40.763 24.25 121.105 116.54 121.91 140.73v40.1c0 50.82-47.487 95.43-90.577 95.43-51.759 0-94.89-42.88-94.89-93.79 0 50.91-41.65 93.79-93.409 93.79-51.757 0-92.055-42.88-92.055-93.79 0 50.91-44.316 93.79-96.075 93.79h-.931c-51.757 0-96.032-42.88-96.032-93.79 0 50.91-40.314 93.79-92.079 93.79-51.773 0-93.422-42.88-93.422-93.79-.008 50.91-43.141 93.79-94.897 93.79-43.109 0-90.596-44.66-90.596-95.43v-40.1c.77-24.19 81.12-116.48 121.904-140.73zm267.837 287.83c4.028 7.34 8.203 12.73 14.277 18.52 16.26 16.94 35.397 24.63 60.512 24.63.668 0 2.253-.03 3.102-.08l1.149.04c.829.02 1.355.04 2.025.04 24.25.9 43.723-7.04 60.484-24.63 6.052-5.77 10.221-11.22 14.281-18.56 4.024-7.06 11.523-11.43 19.655-11.45 8.129-.01 15.645 4.34 19.694 11.38 4.093 7.36 8.376 12.82 14.509 18.63 16.276 16.94 35.267 24.63 60.351 24.63 25.105 0 44.235-7.69 60.492-24.63 5.872-5.52 9.363-10.48 13.655-18.12 4.038-7.07 11.545-11.42 19.673-11.42h.021c8.161 0 15.692 4.39 19.716 11.49 3.389 6.6 8.359 11.52 15.092 18.1 16.75 17.56 36.237 24.63 60.506 24.63.669 0 .804-.03 3.139-.82 6.551-2.2 13.743-1.29 19.534 2.48 5.79 3.77 9.55 9.97 10.211 16.84 4.231 44.24 12.716 467.12-39.84 525.642-3.014 3.068-6.844 5.239-11.04 6.219-78.338 18.057-221.545 26.479-363.282 26.541h-.02c-141.748-.062-284.94-8.484-363.282-26.583-4.193-.991-8.019-3.131-11.035-6.209-52.555-58.55-44.072-481.43-39.861-525.73.66-6.89 4.437-13.11 10.255-16.88 5.819-3.76 13.037-4.66 19.599-2.43 2.256.8 2.349 1.16 3.031.8 24.231.89 43.593-6.96 60.351-24.5 6.319-6.22 11.132-10.98 14.489-16.9 2.807-5.81 8.033-10.3 14.564-12.05 9.924-2.63 20.386 1.73 25.497 10.63 4.328 7.68 7.826 12.7 13.661 18.21 16.258 16.91 35.424 25.56 60.536 24.61 24.193.89 43.68-7.12 60.371-24.68 6.115-5.79 10.351-11.27 14.454-18.61 3.22-5.59 8.669-9.53 14.982-10.85 6.312-1.34 12.891.09 18.088 3.91l.113.07c2.572 1.91 4.717 4.32 6.291 7.09zm-87.297 120.14-.009.05h.094zm.07.05c-13.77 0-68.798.03-107.149 107.7l-41.193 147.8c-30.543 109.92 9.773 112.63 60.049 112.72 74.569-2.8 115.84-56.91 115.84-111.08 41.266 6.78 89.416 10.16 137.563 10.16h.021c48.145 0 96.307-3.38 137.581-10.16 0 54.17 41.272 108.32 115.85 111.08 50.275-.09 90.584-2.8 60.049-112.75l-41.226-147.78c-38.363-107.74-93.38-107.74-107.164-107.74v.05h-.08c-29.121.06-54.978 0-87.046 34.97-25.258-2.64-51.593-4.01-78.005-3.95h-.04c-26.412-.06-52.744 1.31-78.001 3.95-32.031-34.97-57.927-34.92-87.049-34.97zm261.187 169.06c2.031 3.72 1.917 8.23-.298 11.81-2.217 3.56-6.194 5.7-10.404 5.52l-35.494-1.4v29.4c-1.023 3.41-3.413 8.65-5.299 9.95-1.133.79-3.105 1.63-4.035 1.89-1.287.36-79.962.36-81.248 0-.93-.26-2.901-1.1-4.035-1.89-1.887-1.3-4.276-6.54-5.3-9.95v-29.44l-35.482 1.44c-4.215.18-8.191-1.96-10.411-5.52-2.219-3.58-2.334-8.09-.302-11.81 12.783-22.65 74.122-80.37 87.06-92.35 2.142-2.65 5.412-4.36 9.081-4.36h.027c3.322 0 6.321 1.41 8.448 3.61 6.751 6.3 74.164 69.13 87.692 93.1z"/></svg>