<svg xmlns="http://www.w3.org/2000/svg"><path fill="rgb(255, 255, 255)" d="m106.795 272.749c26.088 3.019 38.502 2.628 67.277-2.868 2.023-.383 4.115.012 5.858 1.105 0 0 7.041 4.501 17.148 8.353 3.208 1.248 5.29 4.373 5.205 7.814s-2.318 6.459-5.584 7.547c-30.007 9.764-69.386 9.555-93.764 4.809-12.572-2.448-24.399-7.338-27.898-13.128-1.312-2.171-2.078-6.553-1.35-9.203.639-2.324 2.839-5.393 4.811-7.012 3.156-2.59 8.965-5.165 16.016-7.183 3.959-1.106 8.124.902 9.723 4.689.666 1.577.8 3.259.474 4.834.623.082 1.315.163 2.084.243zm111.79-181.888c-36.005 20.772-48.592 32.35-51.559 41.908-2.559 8.237 2.894 13.41 11.938 26.1 5.442 8.409 7.339 17.993 5.842 25.143-1.508 7.203-6.111 14.266-10.53 19.081-8.894 9.691-20.524 15.712-20.524 15.712-3.713 1.917-8.274.722-10.57-2.769-2.297-3.491-1.587-8.152 1.643-10.803 0 0 3.671-2.964 6.022-7.93 1.239-2.618 1.714-4.328 1.473-7.143-.263-3.069-.881-5.314-4.216-8.785-14.661-17.629-19.093-35.159-15.547-48.609 3.574-13.553 14.913-25.351 26.54-33.37 23.117-15.941 53.411-23.525 53.411-23.525 3.948-.985 8.02 1.085 9.549 4.857 1.528 3.771.048 8.092-3.472 10.133zm-194.849 240.284c-6.71-1.127-12.346-2.825-15.788-4.753-4.315-2.416-8.086-8.243-7.944-12.417.135-3.95 3.301-8.835 6.186-11.383 2.615-2.308 6.488-4.717 10.285-6.592 14.659-7.239 40.464-11.425 50.35-6.064 2.999 2.112 4.221 5.963 2.991 9.418-1.23 3.454-4.612 5.666-8.271 5.407 0 0-3.085-.378-9.323 1.142-1.572.332-3.867.946-6.304 1.749 41.178 10.318 142.531 6.385 176.39-4.008 2.824-.81 4.519-1.493 5.703-2.158-1.388-2.522-1.382-5.68.22-8.256 2.162-3.475 6.562-4.813 10.294-3.131 5.651 2.889 11.191 8.715 11.299 13.777.106 4.971-4.624 11.133-9.487 14.241-8.442 5.393-24.746 10.64-45.331 14.307-40.635 7.241-103.258 9.668-171.27-1.279zm72.482-104.556s-7.861 1.867-15.902 4.455c17.378 1.356 45.636.673 72.603-1.595 24.951-2.087 50.006-6.58 50.006-6.58 4.087-.73 8.071 1.722 9.261 5.7 1.19 3.977-.794 8.214-4.61 9.849 0 0-8.235 3.443-14 7.473-.771.526-1.626.916-2.529 1.154-31.914 8.301-78.74 10.637-112.632 8.664-17.086-.995-32.045-3.187-40.24-6.311-2.281-.87-4.864-2.216-6.48-3.511-1.998-1.601-4.483-5.544-4.641-8.463-.157-2.865 1.875-7.161 3.888-9.105 1.567-1.514 4.237-3.209 6.84-4.504 31.28-14.527 57.098-13.322 57.098-13.322 4.03.272 7.255 3.448 7.59 7.472.335 4.025-2.323 7.691-6.252 8.624zm114.408 34.742c15.104-7.755 23.695-14.827 28.954-21.601 4.789-6.17 5.593-9.588 4.884-13.743-.65-3.811-2.013-5.475-5.446-7.61-3.424-2.13-5.953-2.986-9.384-1.924-4.298.827-5.826 1.516-5.826 1.516-3.295 1.333-7.073.382-9.344-2.35-2.272-2.733-2.516-6.621-.604-9.617 0 0 3.954-4.565 9.574-7.474 11.798-3.76 24.592-2.975 33.184 1.288 8.826 4.379 16.43 14.067 17.855 23.571 1.394 9.291-2.65 21.853-12.338 31.334-9.106 8.91-24.909 17.492-46.935 23.411-3.861 1.016-7.89-.909-9.526-4.549-1.41-3.137-.69-6.754 1.659-9.112.773-1.329 1.912-2.422 3.293-3.14zm-42.828-258.937s11.096 11.56 11.362 29.881c.247 16.961-9.881 42.433-45.259 71.118-12.993 10.119-19.189 18.128-22.295 25.872-2.878 7.174-2.51 12.108-.233 18.615 4.665 13.331 17.793 26.356 24.913 41.704 1.56 3.525.442 7.66-2.679 9.92-3.122 2.261-7.401 2.03-10.262-.551-16.074-14.507-30.76-28.877-39.16-42.613-4.315-7.054-7.473-15.161-8.051-22.482-.585-7.426 1.776-16.034 6.269-23.216 12.85-18.563 35.185-32.24 51.666-47.165 8.201-7.426 14.427-14.491 18.294-23.292 3.883-8.837 5.173-17.59 1.742-30.006-.905-3.564.683-7.293 3.88-9.111 3.196-1.818 7.213-1.274 9.813 1.326zm-118.105 342.107c37.268 6.188 99.68 7.342 150.607-2.329 22.211-4.111 33.483-8.575 39.785-12.099 3.75-2.097 4.189-2.336 4.23-2.355 1.47-3.771 5.48-5.897 9.426-4.997s6.638 4.554 6.328 8.589c-1.853 9.86-10.382 19.209-21.536 24.28-10.687 4.858-25.548 8.453-41.479 10.811-31.669 4.69-70.973 5.229-101.609 3.28-39.054-3.225-49.674-9.204-50.179-9.564-3.829-1.569-5.883-5.759-4.769-9.752 1.12-4.015 5.083-6.542 9.196-5.864z" stroke-linejoin="round" stroke-width="18"/></svg>