<svg viewBox="0 0 300 300" xmlns="http://www.w3.org/2000/svg"><path fill="rgb(255, 255, 255)" d="m27.063 276.833c-6.087-3.22-13.094-7.974-16.709-13.607-3.773-5.878-4.905-14.555-4.917-21.104.72-21.294 13.157-57.626 34.986-101.24 18.152-36.073 38.139-68.959 55.543-92.315 8.832-11.852 17.786-22.227 25.37-29.204 8.165-7.511 20.021-14.377 28.805-14.377 9.961 0 23.876 9.228 34.089 19.743 9.655 9.94 21.129 24.611 32.519 41.632 36.171 54.371 70.101 126.374 76.773 162.782 1.896 11.832 1.132 22.061-1.739 30.091-3.655 6.209-10.848 13.58-17.892 17.275-6.333 3.323-15.333 6.462-24.772 8.77-18.253 4.463-43.787 7.566-73.785 8.975-22.295 1.021-29.693 1.017-53.82-.034-.077-.003-.154-.007-.231-.011-39.796-1.842-76.582-8.695-94.22-17.376zm96.179-17.571c23.212 1.025 29.062 1.029 50.477.03 28.678-1.299 50.834-4.037 67.087-8.011 7.814-1.911 12.771-3.639 16.825-5.765 1.37-.719 2.982-2.274 1.411-10.361-5.242-31.91-36.488-97.205-71.407-149.366-10.602-15.935-20.144-28.059-28.512-36.674-6.948-7.154-8.597-8.804-8.917-9.081-.029.179-.766 1.032-5.174 5.087-6.105 5.617-12.917 13.511-21.001 24.359-16.427 22.045-34.87 52.284-52.332 87.112-20.971 41.598-31.546 70.282-31.264 85.945-.364 1.391.706 2.548 2.714 3.212 12.684 7.008 42.3 11.93 79.899 13.504.065.003.13.006.194.009zm-11.184-13.486c-7.193-4.05-12.199-12.639-14.487-20.085-3.76-14.488-5.184-36.572-4.315-55.042.878-18.662.892-35.512 11.989-47.485 4.443-4.794 11.6-6.389 18.593-6.228 4.804.361 9.856 1.389 15.178 3.12 24.926 8.519 62.74 30.608 76.383 44.616 2.363 2.533 4.978 5.718 6.35 8.425 1.975 3.901 3.25 9.606 1.576 13.991-6.502 17.035-22.534 25.793-40.786 36.454-18.129 10.588-40.797 20.779-54.749 23.489-5.907.877-11.148 1.326-15.732-1.255zm14.164-29.044c10.5-2.671 26.156-10.317 41.187-19.095 11.968-6.991 20.052-11.625 24.043-14.539-11.981-11.352-41.16-27.768-61.975-34.599-1.856-.65-3.063-1.04-4.144-1.274-1.059 4.593-1.568 13.31-2.11 24.834-.77 16.373-.01 33.251 2.999 44.673z"/></svg>