<svg height="48" viewBox="0 0 48 48" width="48" xmlns="http://www.w3.org/2000/svg"><path fill="rgb(255, 255, 255)" d="m6.12 12.201c.268-2.02-1.659-1.115-2.073-.701-.42-1.759 2.46-2.838 3.635-1.463.613.719 1.888-.609 1.25-1.749s.115-2.051.769-2.29c-.198 1.259 1.692.821 3.229.043 1.052-.535 1.655-1.491 9.015-1.938.675-.068 1.361-.103 2.055-.103l-.001-.002c3.036 0 5.897.689 8.468 1.889 0 0 0 0 .001.001.057.026.115.054.172.081l.014.01c6.718 3.214 11.347 10.045 11.347 18.022 0 11.08-8.92 20-20 20-1.854 0-3.648-.25-5.349-.718-7.231-1.987-12.799-7.914-14.27-15.349l-.012.002c-.241-1.277-.373-2.594-.373-3.943s.132-2.666.373-3.943l.02.003c.351-1.769.934-3.453 1.716-5.018-.23-.844-.127-1.774.014-2.834zm6.63 17.3c.469 2.344 2.278 1.316 2.188 3.438-1.165-.275-2.077.307-1.512 1.718.693.688 1.453 1.307 2.269 1.849.867.057 1.636-.39 1.618-1.224-.063-2.907 3.833-2.898 4.625-1.219-1.271.023-2 .219-2.313 1.688-.241 1.136.526 2.347 2.043 3.069.759.117 1.538.178 2.331.178.932 0 1.843-.084 2.727-.245.578-.409 1.052-.985 1.462-1.689.992-1.705-.647-2.326-1.813-3.438-1.186-1.13.028-4.444 1.844-4.219-.465.35-1.535 3.403 1.844 3.469 1.482.029 2.668-.731 3.03-1.938.469-1.563-1.296-2.264-2.5-2.719.835-.555 2.785-.734 3.795.014 1.006.749 1.721 2.862.893 4.143-.429.663-.427 1.257-.132 1.676 1.818-2.016 3.094-4.53 3.603-7.319-.555-1.071-1.375-2.218-2.534-3.42-.748-.776-.565-2.413.938-3-.103.615.395 1.669 1.689 1.52-.289-2.016-.976-3.901-1.98-5.571-3.856.249-4.645.601-6.74-.324-2.506-1.105-1.867-4.272-.438-4.469-.009 1.085.093 2 2.781 1.5.478-.089.874-.248 1.199-.458-2.607-2.194-5.978-3.513-9.668-3.513-7.239 0-13.249 5.077-14.678 11.879l6.676 1.116c.769.118 1.445.511 1.779 1.118.017-.121.037-.241.061-.36.042-.205.094-.408.155-.608.063-.201.135-.398.217-.591.081-.193.173-.382.274-.566.1-.184.21-.363.328-.535.118-.174.245-.341.381-.501.134-.16.277-.314.427-.46s.308-.285.473-.415c.164-.13.334-.252.511-.365.176-.114.358-.218.544-.314.188-.095.379-.18.575-.256.194-.076.394-.142.596-.198s.407-.102.614-.138c.206-.035.414-.061.623-.076.148-.01.297-.015.445-.015.21-.001.42.01.629.031.208.021.415.052.62.093.205.042.409.094.608.156.201.063.398.134.592.217.193.081.381.173.565.273.184.101.363.21.536.329.173.118.34.245.5.38s.314.277.46.427c.146.151.285.309.415.473.131.164.252.335.365.511.114.176.219.358.315.545.094.187.18.378.255.574.076.195.142.394.198.596s.102.407.138.614c.036.206.061.414.076.623.01.148.016.297.016.446 0 .21-.011.419-.032.628-.021.208-.052.415-.093.62-.042.206-.094.409-.155.609-.063.201-.135.398-.217.591-.081.193-.173.382-.274.566-.1.183-.21.363-.328.536s-.245.34-.381.5c-.134.16-.277.314-.427.46-.15.145-.308.284-.473.414-.164.131-.334.252-.511.366-.176.113-.358.218-.544.314-.188.094-.379.18-.575.256-.194.075-.394.141-.596.197s-.407.103-.614.139c-.206.035-.414.06-.623.076-.148.01-.296.015-.445.015-.21 0-.42-.01-.629-.031-.208-.021-.415-.052-.62-.094-.205-.041-.409-.093-.608-.155-.201-.062-.398-.135-.592-.217-.193-.081-.381-.172-.565-.273s-.363-.21-.536-.328c-.173-.119-.34-.246-.5-.381s-.314-.278-.46-.428-.284-.308-.414-.472c-.131-.164-.253-.335-.366-.511-.114-.177-.219-.359-.315-.545-.094-.187-.18-.378-.255-.574-.076-.195-.142-.394-.198-.596-.056-.203-.102-.407-.138-.615-.011-.063-.021-.126-.03-.19-.334.606-1.009.997-1.777 1.115l-1.217.203c-1.067.742-2.306 1.926-2.03 3.305zm8.717-7.925c-1.343 1.344-1.343 3.506 0 4.848 1.345 1.344 3.506 1.344 4.849 0 1.343-1.342 1.343-3.504 0-4.848-.674-.672-1.549-1.007-2.425-1.007-.877 0-1.752.335-2.424 1.007zm-5.467 1.424c-.552 0-1 .448-1 1s.448 1 1 1 1-.448 1-1-.448-1-1-1z"/></svg>