<svg clip-rule="evenodd" fill-rule="evenodd" stroke-linejoin="round" stroke-miterlimit="2" viewBox="0 0 48 48" xmlns="http://www.w3.org/2000/svg"><path fill="rgb(255, 255, 255)" d="m367.028 4965.84c.56 0 1.014-.45 1.014-1v-3c0-.55-.454-1-1.014-1s-1.014.45-1.014 1v3c0 .55.454 1 1.014 1zm12.169 3.16h-2.028v3h2.028c2.366 0 2.366-3 0-3zm0 5h-2.382c-.912 2.54-3.498 4.3-6.456 3.96-3.1-.35-5.359-3.09-5.359-6.17v-2.79c0-1.1.908-2 2.028-2h12.169c5.071 0 5.071 7 0 7zm-4.056-8.16c.56 0 1.014-.45 1.014-1v-3c0-.55-.454-1-1.014-1s-1.014.45-1.014 1v3c0 .55.454 1 1.014 1zm-5.071-2.26v-3c0-.55.455-1 1.015-1 .559 0 1.014.45 1.014 1v3c0 .55-.455 1-1.014 1-.56 0-1.015-.45-1.015-1z" transform="matrix(2.27687 0 0 2.27687 -827.55 -11289.3)"/></svg>