<svg height="256" width="256" xmlns="http://www.w3.org/2000/svg"><path fill="rgb(255, 255, 255)" d="m159.275 18.643c-.934-1.488-3.886-3.168-1.004-4.296 4.351-4.18 11.713-2.794 15.712 1.061 5.522 4.439 10.536 11.939 6.496 18.535-3.317 5.045-8.968 8.294-13.511 12.381-2.042 1.68-4.054 3.387-6.284 4.862 6.571 4.279 13.19 8.495 19.726 12.813 6.768-5.455 13.462-10.981 19.726-16.913 1.039-4.564-10.258-8.365-1.656-10.905 6.852-3.187 13.695 2.402 17.106 7.393 3.639 4.715 5.053 11.61.391 16.209-5.147 4.724-11.337 8.441-16.953 12.715-1.884 1.061 2.645 1.783 3.653 2.607 9.503 4.274 19.049 8.455 28.907 12.033 5.256 2.122 10.748 3.864 15.875 6.186 2.586 1.881 6.462 3.32 6.051 6.944-.647 3.77-5.294 4.287-8.706 3.81-10.011-.446-20.082-.628-30.049-1.239-5.789-2.144-11.816-3.864-17.456-6.275-14.956-8.695-30.88-16.467-43.329-28.139-3.584-3.098-7.173-6.195-10.758-9.293-7.727 3.994-15.217 8.802-23.874 10.964-4.81-1.382 3.164-7.224 4.648-9.471 2.768-3.605 8.528-6.961 10.046-10.415-2.467-2.883-5.716-5.326-7.644-8.503-1.626-3.695.594-8.561 5.409-7.064 2.462.25 5.349-.562 7.08 1.489 2.101 1.515 4.202 3.03 6.308 4.55 3.56-3.32 7.525-6.231 11.455-9.163 2.264-2.064 4.479-4.163 5.577-6.953 1.404-2.108-1.592-4.474-2.942-5.923zm-103.728 17.587c7.228 4.661 14.634 9.1 21.724 13.931 5.601-5.049 11.534-9.818 16.908-15.059 3.312-4.033 7.099-9.662 4.227-14.667-2.783-1.956-5.068-4.626-8.202-6.079-3.184-1.221-6.368-2.438-9.552-3.659 2.146-5.33 9.592-6.796 15.094-7.897 7.821-.865 14.273 3.592 19.88 7.839 3.218 2.523 7.025 4.515 9.803 7.438 3.99 4.395 2.576 10.714-1.231 14.792-9.344 11.975-21.985 21.473-35.675 29.192-17.758 9.88-36.07 19.667-56.35 24.645-8.652 1.939-17.858 2.366-26.618.838-6.442-2.09.9-8.227 5.359-7.773 9.586-2.112 19.38-3.538 28.773-6.31 8.637-2.817 16.567-7.184 23.776-12.278-6.21-5.549-12.429-11.142-18.659-16.628-3.806-4.118-5.26-10.046-2.195-14.895 4.687.37 8.781 4.381 12.938 6.57zm39.121 82.065c-.993 7.759-1.013 15.652-2.837 23.295-1.493 7.064-8.064 12.448-15.959 13.263-13.25 2.585-26.806.74-40.14.022-3.342-1.938-3.213 1.471-3.891 3.637-1.621 6.141-2.625 12.399-4.449 18.5 13.591 1.225 27.325 2.879 40.955 1.649 4.385-1.386 8.395-3.387 12.024-6.008 4.558-.49 10.303-3.445 13.783.762 5.013 7.839 1.671 17.025 1.038 25.461-1.725 12.599-2.012 25.845-9.329 37.124-4.291 8.909-15.311 13.87-25.812 13.344-5.423.107-10.876.53-16.161-.86-7.322-.816-14.254-3.419-19.909-7.719-5.671-3.031-9.493-8.517-10.679-14.266-.93-3.187 3.47-1.266 5.142-.482 6.99 2.723 13.744 6.079 20.971 8.227 5.8 1.623 12.143 2.108 17.769-.298 4.558-1.377 9.774-2.612 11.667-7.18 3.09-6.319 4.326-13.25 5.602-20.028.909-4.666.87-9.35.321-14.048-1.181-1.297-4.865-.196-7.015-.561-15.43 0-30.855 0-46.285 0-4.217 4.675-8.044 9.675-12.523 14.132-6.738 2.946-3.371-8.731-3.193-11.935 3.401-16.886 6.471-33.871 10.574-50.615 1.632-4.724 7.481-4.719 11.96-4.287 12.196.067 24.477 1.511 36.604-.147 5.043-.107 8.118-3.61 8.613-7.804 2.57-7.523 4.217-15.291 4.311-23.174 1.077-6.605-7.199-8.134-12.77-8.352-7.357.543-14.812.459-22.045 1.805-8.889-1.337-.149-13.366 6.323-13.197 11.712-2.714 23.869-3.168 35.848-4.322 3.189-.094 6.872 1.096 7.876 4.113 2.546 9.805 1.517 19.966 1.616 29.949zm43.057-32.792c10.258-1.449 20.616-.009 30.568 2.286 4.894.954 10.881 2.206 12.928 6.841.84 3.873-1.829 7.398-2.872 11.048-2.606 7.692-6.329 15.509-5.676 23.71.905 7.402 8.405 13.214 16.285 14.35 5.26.334 9.112-3.382 13.443-5.468 1.611-.86 3.085-2.215 5.107-1.631 2.239.133 4.479.263 6.718.396 4.722 3.173 3.155 9.297 1.716 13.669-2.388 7.376-11.223 11.2-19.281 10.781-11.035-.629-22.752-4.644-29.243-13.094-3.545-5.125-5.404-11.066-7.139-16.851-.243-4.345 1.077-8.664 1.799-12.955.628-3.53 1.75-7.247.579-10.763-6.521-1.217-13.057-3.998-19.801-2.318-4.39 1.146-9.205 2.425-12.562 5.255-3.51 4.639-2.976 10.5-4.291 15.785-1.172 5.616-1.652 11.378-3.402 16.878-1.913 5.945-7.45 11.048-14.48 11.685-2.433.771-9.666 1.226-6.694-2.558 1.819-4.1 6.624-6.293 8.795-10.224 4.523-7.567 4.182-16.476 4.563-24.823.499-7.577-2.17-15.63 1.468-22.827 1.355-2.88 4.529-4.185 7.233-5.816 4.351-2.059 9.433-2.576 14.239-3.356zm-19.415 89.062c-6.882-2.678-.262-6.961 4.316-6.654 8.335-1.11 16.78-1.569 25.174-2.152 17.803.632 35.616 1.132 53.409 1.845 6.294-.04 9.349 6.159 7.04 10.959-2.971 7.959-7.895 15.175-11.85 22.751-1.479 2.661-2.957 5.326-4.435 7.986 11.841 4.056 24.21 7.488 34.845 13.843 4.988 3.632 2.308 10.232.84 14.881-1.745 4.073-3.654 10.272-9.468 10.397-4.138-1.15-7.48-3.922-11.252-5.811-9.873-5.638-19.746-11.276-29.619-16.909-3.307 4.078-8.028 6.984-11.984 10.522-7.776 6.115-17.728 9.386-27.186 12.795-8.558.384-17.131.963-25.679 1.226-4.617-1.03-9.566-1.221-13.828-3.227 1.083-1.724 3.738-2.206 5.809-2.816 10.714-3.432 21.912-5.549 32.502-9.288 7.747-3.093 14.856-7.483 20.507-13.192 3.92-2.059 2.496-6.444-1.434-7.919-8.563-4.381-17.042-8.918-24.986-14.186-7.253-4.916-15.05-9.314-21.58-15.015-1.78-4.202 7.406-.548 9.754-.249 17.862 5.076 35.141 11.654 52.469 18.027 3.214-4.858 7.233-9.546 8.736-15.117.593-3.432-2.773-5.147-6.012-5.259-6.743-1.306-13.496-2.589-20.393-3.048-5.567-.562-11.139-1.128-16.71-1.689-6.339-.802-13.028-.343-18.985-2.701z"/></svg>