<svg height="48" viewBox="0 -960 960 960" width="48" xmlns="http://www.w3.org/2000/svg"><path fill="rgb(255, 255, 255)" d="m371-174h218l-19.71-81h-178.29zm-13.15-161h244.57q92.88 0 157.73-65.36 64.85-65.35 64.85-159.5 0-94.14-65.18-159.64-65.19-65.5-157.67-65.5h-244.57q-92.88 0-157.73 65.36-64.85 65.35-64.85 159.5 0 94.14 65.18 159.64 65.19 65.5 157.67 65.5zm122.15-145q-34 0-57-22.76-23-22.77-23-57.24 0-34 22.76-57.5t57.24-23.5q34 0 57.5 23.5t23.5 57.5q0 34-23.5 57t-57.5 23zm-221.81-123q15.81 0 27.81-12.19 12-12.2 12-28.5 0-16.31-12.19-27.81-12.2-11.5-28.5-11.5-16.31 0-27.81 11.82t-11.5 28.37q0 15.81 11.82 27.81 11.82 12 28.37 12zm-84.19 508q-16.75 0-27.87-11.18-11.13-11.17-11.13-27.8 0-16.63 11.13-28.33 11.12-11.69 27.87-11.69h116l21-86q-109-17-182.5-101.19-73.5-84.18-73.5-198.81 0-126.79 88.49-215.89 88.48-89.11 215.51-89.11h243q125.95 0 214.48 89.11 88.52 89.1 88.52 215.89 0 114.63-73.5 198.81-73.5 84.19-182.5 101.19l22 86h114.64q17.11 0 28.74 11.87 11.62 11.87 11.62 28.5 0 16.63-11.76 27.63-11.77 11-28.24 11zm306-305q66 0 113-47t47-113q0-66-47-113t-113-47q-66 0-113 47t-47 113q0 66 47 113t113 47zm-109 226h218z"/></svg>