<svg viewBox="0 0 512 512" xmlns="http://www.w3.org/2000/svg"><path fill="rgb(255, 255, 255)" d="m313.211 287.111c6.81 1.767 15.52 1.829 20.859.146 5.382-1.703 7.838-.81 10.228 3.699 3.44 6.482 2.704 16.1-1.452 19.237-1.184.895-1.272.77-.782-1.017 1.318-4.862-2.456-12.799-7.145-15.063-1.118-.539-.783-.02.892 1.434 3.507 3.012 4.334 5.256 4.334 11.759 0 5.214-.112 5.506-2.391 6.732-1.318.706-2.612 1.287-2.88 1.287-.269 0-.493-1.744-.493-3.864 0-4.861-1.295-8.914-3.751-11.676-1.876-2.119-1.876-2.077.157 1.724 1.517 2.868 2.077 5.174 2.143 8.851.045 2.742-.111 5.152-.356 5.381-1.14 1.06-11.28.997-15.478-.084-2.502-.643-4.802-1.391-5.114-1.683-.313-.289-.961-3.572-1.406-7.291-.738-6.046-1.096-6.96-3.24-8.746-2.926-2.432-9.357-3.449-13.579-2.182-4.533 1.371-10.362 9.619-10.362 14.688 0 2.451-.133 2.598-1.563 1.787-2.032-1.164-4.199-5.36-4.199-8.123 0-3.304 3.395-6.524 7.548-7.126 5.093-.749 10.319-3.096 14.161-6.316 3.349-2.826 5.537-4.114 8.194-4.301 1.588-.125 3.352.166 5.675.747zm-4.087 25.679c.066.749-.492 1.476-1.252 1.621l-3.975.167h-8.598c-7.66 0-8.687-.167-9.447-1.454-1.384-2.37-.961-4.717 1.541-8.705 3.775-5.964 5.896-7.418 10.743-7.251 9.223.311 9.648.892 10.988 15.622zm-15.188-119.315 2.546 4.051-.223-6.399-.224-6.399 4.736-2.161c4.041-1.848 5.672-2.16 11.233-2.139 10.833.041 18.135 3.885 22.177 11.655 2.903 5.609 4.512 13.234 6.253 29.917.716 6.836 2.435 17.68 3.797 24.1 3.016 14.128 3.282 18.782 1.295 23.478l-5.002 8.351c.692.644-4.444 5.319-7.325 6.67-2.792 1.308-4.424 1.516-9.581 1.225-6.856-.375-11.39-2.078-14.941-5.61-2.814-2.784-2.926-3.304-4.422-21.628-.716-8.601-1.92-18.241-2.703-21.419-.96-3.968-1.384-8.851-1.341-15.561.046-5.403-.2-8.954-.534-7.916-.335 1.038-.649 3.657-.693 5.838-.089 3.989-1.72 5.754-1.742 1.891 0-1.143-.38-2.577-.848-3.2-1.14-1.537-.269 4.509 1.853 12.798 1.363 5.319 1.699 10.014 2.055 27.611l.067 25.45c-1.451 2.597-7.236 6.587-11.636 8.249-3.595 1.35-11.948 1.495-15.723.269-3.684-1.204-9.157-4.819-11.389-7.561-1.81-2.224-2.012-3.305-2.39-12.965-.245-5.901-1.251-14.875-2.301-20.339-1.405-7.251-1.897-12.84-1.942-21.587-.045-6.482-.224-11.655-.426-11.468-.178.166-.804 2.264-1.361 4.633-.558 2.369-1.028 3.573-1.073 2.659-.021-.913-.357-1.827-.736-2.036-.38-.207-.201 2.909.379 6.919 3.172 22.002 3.775 28.837 3.462 39.079-.379 12.57-1.027 13.899-8.174 16.58-11.278 4.237-27.291-.292-30.238-8.581-.671-1.891-1.273-12.071-1.766-29.605-.402-14.69-1.116-27.736-1.585-28.983-.693-1.849-.76-1.392-.402 2.452.246 2.596.268 4.715.022 4.715-.223 0-1.027-1.039-1.742-2.327-1.943-3.448-2.278-2.201-.446 1.642 1.428 2.992 1.607 5.568 1.854 26.468l-.627 27.903c-5.874 3.884-19.765.352-26.018-4.674-5.427-4.385-6.499-7.626-7.303-22.044-.379-7.023-1.072-14.876-1.519-17.432-1.785-10.096-.557-23.601 2.681-29.501 5.069-9.204 11.279-11.925 21.349-9.37 3.486.893 4.735 2.514 4.759 6.129 0 1.372.245 3.303.536 4.28.424 1.392.848.582 2.054-3.761 1.675-6.108 4.422-10.242 9.112-13.691 4.199-3.095 9.693-3.49 17.732-1.309 6.813 1.871 10.699 4.592 13.244 9.287l1.72 3.178v-5.817c0-10.117 3.015-13.795 12.774-15.644 1.564-.312 3.128-.499 4.646-.561 10.675-.52 19.989 4.509 26.04 14.211zm74.431-82.477-1.161 2.902 2.339-1.66c11.955-9.665 26.88-14.537 33.234-14.702 1.554.156 5.212 1.233 7.735 2.276 5.139 3.099 7.731 9.152 6.435 15.032-1.011 4.115-1.902 11.732-6.896 20.144-6.229 9.342-10.998 18.167-12.606 23.152.483.143.921.29 1.299.439 1.213.533 2.811 1.022 3.8 1.181 1.255.267 2.973.713 4.04 1.092.69.246 2.048.828 2.887 1.306.644.367 2.152 1.428 2.984 2.236.632.613 1.57 2.018 2.41 3.701 6.027-1.892 14.327-4.494 25.802-8.05 4.65-1.407 9.569-2.48 12.351-2.562 1.228-.036 4.113.238 5.905.874 1.592.565 5.248 2.95 6.763 5.011 1.889 2.57 3.045 9.096 2.33 11.936-1.082 4.294-6.21 8.743-8.319 10.074-1.046.579-3.585 2.469-17.243 12.821 14.865 1.77 28.648 3.649 38.779 5.24 5.715.897 10.582 1.756 13.799 2.451 1.738.375 3.689.876 4.935 1.315.992.35 3.516 1.547 4.995 2.79 1.716 1.443 5.273 7.572 5.052 11.631-.133 2.464-2.018 6.837-3.365 8.414-.974 1.141-3.029 2.614-3.945 3.209-3.968 1.853-15.675 4.668-21.943 5.284-3.081.275-11.576.972-18.855 1.574-7.224.597-14.964 1.301-17.082 1.597-1.096.136-3.045.388-5.362.687-.354 1.415-.854 2.731-1.523 3.706-1.251 1.825-4.692 4.461-6.531 5.174-1.391.54-3.764.841-4.976.945-.093-.16-2.347.68-4.944 1.765-.444.876-1.078 1.879-1.392 2.352-.331.494-.619.664-.83.56-.136 1.115-.322 2.157-.588 2.837-.15.382-.345.789-.571 1.207 2.83 2.297 5.974 4.5 9.354 6.409 19.745 11.409 34.818 20.853 37.883 23.62.81.97 2.742 3.583 3.361 5.401.866 2.546.46 8.594-.906 11.153-1.756 3.286-6.9 6.407-8.518 6.864-1.294.365-3.201.524-3.762.526-.524.002-1.284-.046-1.601-.076-.185-.018-.411-.042-.65-.071.671.584 1.306 1.125 1.901 1.619.492.408.884.727 1.211.986.909.172 1.751.439 2.457.839 1.589.9 4.407 3.662 5.392 5.427.046.081.09.167.136.257l20.109 22.985c.316.362.615.74.892 1.133 1.399 1.979 4.165 5.753 6.202 8.362 1.951 2.526 3.554 4.743 4.502 6.248.598.948 1.418 2.458 1.84 3.488.331.806.877 2.645 1.036 3.808.271 1.966-.48 7.158-2.094 9.692-1.998 3.138-8.363 6.36-11.11 6.517-1.745.1-4.477-.408-5.495-.75-1.262-.423-2.984-1.318-3.775-1.804-1.223-.751-2.808-1.91-4.064-2.876-2.427-1.868-5.16-4.122-7.263-5.728-.376-.287-.674-.513-.921-.695-1.107-.398-2.175-.941-3.175-1.628l-62.782-43.139c-.13-.037-.258-.075-.386-.115-3.595 1.394-7.019 2.446-8.265 2.39-1.459-.066-3.507-.247-5.43-.487-3.006-.368-8.26-1.16-11.783-3.735-4.841-3.538-6.535-10.821-6.841-13.052-.348-3.627.937-10.051 2.586-14.453-.682 1.495-1.263 1.849-1.078-.834 3.035-7.908 5.517-17.453 11.089-22.14.791-.665 1.689-1.268 2.644-1.843-.964-1.355-1.768-2.61-2.348-3.693-1.379-3.141-3.07-9.057-3.58-12.719-.143-6.96 2.244-16.252 6.157-21.685 1.531-2.125 3.629-4.286 6.012-6.301-2.325-4.69-3.687-9.739-3.687-14.891 0-1.855.341-3.996.934-6.273-6.384-.334-12.205-1.031-15.099-2.001-2.08-.896-8.273-4.403-10.578-9.955-1.329-3.199-1.765-7.577-2.118-11.845-.548-7.708-1.876-12.433-4.262-17.043-2.221-4.291-3.497-6.087-7.277-7.868l-4.684-2.653c-.648.043-1.212.06-1.661.061h-4.495c-4.059 0-7.916-1.778-10.564-4.87-1.141-1.334-2.009-2.856-2.578-4.479-9.253 6.405-18.141 11.02-23.858 12.066-4.297.115-11.474-1.126-16.045-2.844-1.923-.886-5.886-1.727-9.239-1.982l-7.673-.722c-3.113-.293-5.986-1.621-8.208-3.705-4.714 2.502-9.675 4.307-13.329 4.307-9.027 0-19.065-6.09-25.315-12.556-5.822-6.021-3.428-3.741-5.159-5.868-.023.037-.046.074-.068.111-.071.18-.158.388-.258.626-4.589 9.837-12.802 18.875-21.347 23.614-6.5 2.819-11.4 3.717-17.345 3.204-2.031 4.515-4.518 8.764-6.724 11.365-6.391 5.863-18.033 11.19-27.935 12.678-.655.065-1.373.11-2.143.139 3.464 7.409 5.304 14.763 5.322 21.48-.851 6.085-3.098 11.817-6.501 16.781.529.846.997 1.669 1.381 2.445 2.094 4.221 4.288 11.012 4.288 15.688 0 4.015-1.07 8.68-2.811 13.326 3.325.974 6.199 2.322 9.261 4.17 4.503 3.356 9.462 8.711 11.84 13.483 1.26 2.529 2.196 5.74 2.776 9.031 2.393.602 4.61 1.436 6.306 2.498 4.316 2.702 8.717 9.177 10.711 14.245.164.842.288 1.745.374 2.701.181-.079.362-.157.542-.234 9.159-3.898 20.802-5.535 28.821-4.293 4.17 1.192 8.591 3.449 12.528 6.225.256-.148.506-.287.751-.414 3.606-1.882 9.743-3.519 14.028-3.852 7.524.749 19.533 6.357 25.534 11.973 1.791 1.994 3.725 4.813 5.63 8.071.475-.543 8.66 1.133 13.481 4.59 1.462 1.049 15.381 8.667 15.136 12.073 2.082-2.789 5.153-4.733 8.643-5.374l4.106-.754c3.645-.615 9.602-.996 14.034-1.011 2.271-.012 4.761.056 6.525.214 1.025.092 2.634.32 3.707.587.806.2 2.695.86 3.836 1.495.899.5 2.93 2.04 3.922 3.198.364.425.769 1.064 1.169 1.826.031-.029.061-.056.09-.081.838-.736 2.336-1.683 2.935-1.988.712-.364 1.846-.801 2.336-.959.66-.215 1.664-.473 2.345-.626 1.189-.265 2.964-.586 4.569-.833 1.698-.157 3.343-.658 4.193-1.272 2.67-1.462 8.103-3.848 11.402-3.848 3.123 0 7.875 2.264 9.277 3.474.896.773 2.123 2.221 2.59 2.894.643.929 1.454 2.464 1.84 3.342.625 1.421 1.378 3.735 1.851 5.539.467 1.978 4.618 14.213 9.258 27.334 4.973 14.044 7.501 21.178 8.677 24.803.681 2.106 1.338 4.622 1.458 6.334.072 1.027-.076 3.375-.418 4.709-.584 2.28-3.32 6.416-5.236 7.851-3.6 2.696-8.797 2.818-8.589 2.818-4.527 0-9.824-3.922-10.686-4.838-.542-.577-1.29-1.471-1.836-2.165-.984-1.254-2.335-3.13-3.532-4.903-1.981-2.963-6.808-9.728-10.708-15.038-3.883-5.281-9.238-12.818-14.12-20.098.971 4.625 2.359 11.019 3.554 16.331 3.119 13.823 5.147 24.394 5.798 30.082.186 1.617.317 3.568.289 4.884-.019.918-.21 2.773-.505 3.944-.227.904-1.01 2.946-1.688 4.069-1.004 1.659-4.501 4.922-6.965 5.888-2.672 1.047-8.214.826-10.408-.059-1.508-.609-3.753-2.176-4.575-2.96-1.004-.956-2.285-2.686-2.804-3.55-.509-.848-1.12-2.09-1.674-3.317-.261-.199-.493-.394-.687-.583-1.412-1.369-3.214-4.49-3.683-5.989-.978-3.127-.105-8.193.493-10.272-.907.295-2.342 2.417-5.422-4.157-1.537-3.28-2.996-6.187-4.209-8.355-.003-.007-.007-.013-.011-.019-1.15-.903-2.149-1.87-2.718-2.727-1.211-1.824-1.804-4.73-1.982-7.309-.025-.005-.047-.037-.064-.098-.335-1.158-.816-2.534-1.523-4.358-1.442-3.711-2.385-6.009-3.084-7.059-7.21-12.821-7.164-15.931-12.346-21.054-1.104-1.728-1.8-3.65-2.074-5.625-.394.968-.831 1.971-1.316 3.013-1.6 2.696-2.741 5.165-2.693 6.027-.458 2.733-2.057 10.128-3.531 16.268-1.423 5.937-3.823 16.321-5.305 23.054-1.547 7.015-4.894 16.254-7 19.77-2.555 1.639-8.839 4.51-12.291 3.905-2.771-.486-6.777-3.103-7.93-4.367-1.187-1.3-2.436-3.603-2.773-4.434-.377-.932-.789-2.377-.98-3.207-.309-1.342-.656-3.395-.908-5.268-.413-3.141-1.718-12.531-2.941-20.881-1.175-8.051-2.553-17.952-3.137-22.683-4.905 10.026-8.935 21.44-11.751 29.64-2.878 8.323-9.049 26.891-13.709 41.24-4.755 14.538-10.763 29.584-13.011 32.816-1.116.918-3.952 2.954-5.876 3.539-2.414.735-7.74.343-10.014-.728-2.993-1.41-6.286-5.658-6.967-7.224-.622-1.43-1.109-3.671-1.238-4.67-.177-1.357-.293-3.458-.337-5.53-.083-3.895-.018-9.876.179-17.496.566-20.703 1.886-34.946 6.504-69.168.483-3.498.902-6.405 1.263-8.824-.404.04-.796.065-1.134.064-1.701-.002-5.389-1.877-8.54-3.853-5.136 4.744-12.684 12.048-24.297 23.391-13.538 13.211-21.68 21.033-25.375 23.368-.985.623-3.451 1.806-5.211 2.188-1.595.346-5.738.281-7.998-.561-2.335-.87-5.655-4.021-7.38-6.6-2.35.88-4.86 1.414-6.389 1.254-5.042-.528-10.131-5.958-10.849-6.96-1.34-2.521-3.28-7.907-2.908-11.281.312-2.843 2.172-6.667 3.365-8.55.621-.872 6.303-10.119 12.617-20.624 12.611-20.909 19.214-33.417 19.086-36.768.237-2.041.878-6.166 1.556-9.793l-8.174-4.658c-7.019 1.448-24.647 5.196-25.486 5.582-1.296.411-4.002 1.084-5.592 1.089-2.267.007-7.268-1.605-9.412-3.432-2.296-1.956-4.838-7.333-5.032-9.961-.139-1.868.552-5.085.983-6.566.75-1.961 1.931-3.727 3.452-5.168l12.293-11.635c2.337-2.286 4.299-4.201 5.94-5.784-13.153-4.351-34.349-10.956-49.585-15.37-7.903-2.299-16.468-5.17-22.723-7.53-3.196-1.206-6.235-2.453-8.265-3.42-1.163-.554-2.79-1.433-3.815-2.143-.822-.568-2.753-2.247-3.753-3.62-.89-1.222-2.497-4.854-2.699-7.197-.265-3.076 2.446-8.625 4.147-11.247 5.11-2.173 12.243-4.186 15.558-4.034 3.177.145 7.56.424 12.171.794 19.041 1.545 53.245 2.002 64.441.917 2.33-.2 3.97-.396 5.223-.622-2.37-6.446-6.999-10.917-22.911-23.742-8.24-6.677-15.703-12.819-16.764-13.876.178.056-15.571-11.72-16.859-12.502-1.815-1.569-5.084-5.106-5.979-7.554-.586-1.602-1.049-5.339-.728-7.382.34-2.164 3.091-6.499 4.508-8.45 4.661-1.922 10.629-3.787 12.152-3.574.951.134 2.346.437 3.341.7 1.767.466 4.303 1.298 6.571 2.153 3.847 1.468 11.209 4.253 16.336 6.171 5.168 1.933 14.856 5.579 21.552 8.113 13.889 5.342 20.783 6.843 28.776 5.932 1.217-.067 2.243-.176 3.136-.327-2.838-10.036-3.381-9.845-2.855-8.415-.482-1.31-2.076-4.384-11.198-24.696-4.09-9.192-5.172-16.334-4.496-23.168-.174-.856-.43-2.169-.532-3.229-.092-.962-.032-4.138.685-6.26.745-2.207 4.742-7.209 7.993-8.541 3.113-1.276 9.133-.685 11.146.238 3.168 1.452 6.299 5.23 8.053 7.495 1.211 1.658 4.976 5.239 8.578 8.181 4.297 3.556 14.743 13.135 23.088 21.21.732.707 1.417 1.372 2.055 1.997.791-1.712 1.627-3.403 2.489-4.962 3.264-5.127 13.517-38.995 19.367-45.06 3.615-2.42 8.147-3.007 12.255-1.588s7.322 4.682 8.693 8.824l7.024 21.289c1.161 5.543 3.236 7.92 6.511 10.924 2.944 2.701 4.228 3.566 6.527 3.755 4.685 1.538 6.116.497 9.506-1.621 3.172-1.981 4.487-3.35 5.718-6.52 3.672-7.778 22.578-35.486 28.71-41.935.565-.529 2.404-2.109 3.891-2.852 1.898-.948 7.052-1.061 10.359-.823 3.412 2.202 8.016 5.881 8.891 7.823.501 1.116 1.006 2.933 1.162 3.77.219 1.171.368 2.876.42 4.077.093 2.135.072 5.068.016 8.126-.11 6.061-.353 13.744-.278 21.307.03 2.982 19.269-14.682 23.284-18.478 9.248-8.663 17.076-17.064 22.863-23.526 2.86-3.194 5.119-5.809 6.736-7.687.804-.935 1.474-1.716 1.956-2.266.262-.3.599-.677.841-.935.182-.193.624-.639.94-.924.293-.265 1.169-.975 1.793-1.38.579-.376 2.286-1.257 3.442-1.618.944-.294 3.36-.681 4.78-.615 1.978.092 6.089 1.983 8.249 3.207 4.781 3.98 6.363 10.659 3.88 16.377zm-234.559 32.09c.001.001.001.001.001.002 0-.001 0-.001-.001-.002z"/></svg>