<svg height="48" width="48" xmlns="http://www.w3.org/2000/svg"><path fill="rgb(255, 255, 255)" d="m25.182 26.818c.732.732 1.318 2.047 1.318 3.182 0 1.223-.141 1.111-.368 1.646 2.202 1.366 3.957 1.308 6.734 1.563.309-.834.416-1.303 1.324-2.175.907-.872 2.435-1.534 3.81-1.534 1.411 0 2.976.698 3.889 1.611s1.611 2.478 1.611 3.889-.698 2.976-1.611 3.889-2.478 1.611-3.889 1.611c-1.15 0-2.447-.462-3.291-1.093-.848-.634-1.17-1.157-1.571-1.898-3.516-.735-6.961-1.674-9.844-3.227-.587.296-.579.218-1.294.218-1.135 0-2.45-.586-3.182-1.318s-1.318-2.047-1.318-3.182c0-1.609.919-2.835 2.002-3.687.962-2.508 2.186-2.919 3.137-4.058-.147-.14.031.162-.391-.425-.419-.585-.748-1.543-.748-2.33 0-1.413.406-1.735.975-2.454-2.038-2.333-6.161-3.11-10.358-3.52-.178.374-.403.71-.642.949-.551.551-1.616 1.025-2.475 1.025s-1.924-.474-2.475-1.025-1.025-1.616-1.025-2.475.474-1.924 1.025-2.475 1.616-1.025 2.475-1.025c.818 0 1.837.429 2.381.934.545.506.5.597.69.987 4.391.293 10.623 1.501 13.853 5.035 0 0-.093.058.076.085.184.206.057.009.057.009.854.146 1.746.596 2.272 1.121.641.642 1.171 1.832 1.171 2.829 0 .974-.506 2.14-1.121 2.777-.616.639-1.138.826-1.853 1.041-.768 1.318-1.672 2.052-2.354 2.772.391.208.74.458 1.01.728zm12.818 5.182c-1.657 0-3 1.343-3 3s1.343 3 3 3 3-1.343 3-3-1.343-3-3-3zm-29-21c-.552 0-1 .448-1 1s.448 1 1 1 1-.448 1-1-.448-1-1-1zm16.5 7c-.828 0-1.5.672-1.5 1.5s.672 1.5 1.5 1.5 1.5-.672 1.5-1.5-.672-1.5-1.5-1.5zm-3.5 10c-1.105 0-2 .895-2 2s.895 2 2 2 2-.895 2-2-.895-2-2-2z"/></svg>