<?xml version="1.0" encoding="utf-8"?>
<svg viewBox="0 0 512 512" xmlns="http://www.w3.org/2000/svg">
  <path fill="rgb(255, 255, 255)" d="M 502.557 256 C 502.557 324.623 475.372 385.312 430.342 430.342 C 385.312 475.372 324.624 502.557 256 502.557 C 187.376 502.557 126.688 475.372 81.658 430.342 C 36.628 385.312 9.443 324.623 9.443 256 C 9.443 187.376 36.628 126.688 81.658 81.658 C 126.688 36.628 187.376 9.443 256 9.443 C 324.624 9.443 385.312 36.628 430.342 81.658 C 475.372 126.688 502.557 187.376 502.557 256 Z M 118.153 117.256 C 131.131 114.949 144.354 113.796 157.819 113.796 C 175.732 113.796 193.078 116.242 209.857 121.137 C 226.636 126.032 242.297 133.651 256.839 143.998 C 271.101 133.932 286.483 126.381 302.981 121.347 C 319.483 116.312 336.548 113.796 354.18 113.796 C 367.553 113.796 380.68 115.055 393.56 117.571 C 401.679 119.157 409.682 121.243 417.571 123.828 C 413.169 118.425 408.512 113.265 403.623 108.376 C 366.255 71.008 313.112 47.228 256 47.228 C 198.888 47.228 145.745 71.008 108.377 108.376 C 103.685 113.068 99.207 118.009 94.963 123.176 C 102.572 120.626 110.302 118.653 118.153 117.256 Z M 257.888 398.204 C 255.752 398.204 253.434 397.993 250.937 397.574 C 248.44 397.155 246.212 396.246 244.255 394.848 C 231.391 386.738 217.707 380.306 203.205 375.552 C 188.699 370.798 173.856 368.421 158.679 368.421 C 149.132 368.421 139.752 369.749 130.545 372.406 C 121.337 375.062 112.117 377.93 102.888 381.006 C 99.031 382.987 95.19 384.09 91.364 384.315 C 96.651 391.13 102.337 397.583 108.377 403.623 C 145.745 440.991 198.888 464.771 256 464.771 C 313.112 464.771 366.255 440.991 403.623 403.623 C 409.368 397.878 414.791 391.761 419.856 385.314 C 416.135 384.697 412.413 383.261 408.692 381.006 C 399.742 377.649 390.667 374.713 381.467 372.197 C 372.263 369.68 362.891 368.421 353.348 368.421 C 338.433 368.421 324.141 370.867 310.474 375.762 C 296.811 380.657 283.686 387.017 271.101 394.848 C 269.423 396.246 267.336 397.155 264.839 397.574 C 262.341 397.993 260.025 398.204 257.888 398.204 Z M 47.229 256 C 47.229 282.702 52.427 308.537 61.782 332.297 L 61.782 179.702 C 52.427 203.463 47.229 229.298 47.229 256 Z M 464.771 256 C 464.771 229.299 459.573 203.465 450.219 179.705 L 450.219 332.295 C 459.573 308.535 464.771 282.701 464.771 256 Z M 269.423 354.577 C 283.407 347.587 297.109 342.344 310.533 338.848 C 323.956 335.352 338.218 333.604 353.32 333.604 C 363.948 333.604 374.924 334.443 386.249 336.121 C 397.575 337.799 407.293 340.036 415.402 342.833 L 415.402 162.876 C 405.894 157.842 395.852 154.276 385.276 152.179 C 374.699 150.081 364.048 149.033 353.32 149.033 C 338.218 149.033 323.607 151.34 309.484 155.953 C 295.362 160.569 282.008 167.07 269.423 175.459 Z M 158.679 333.604 C 173.664 333.604 188.243 335.352 202.424 338.848 C 216.608 342.344 230.552 347.587 244.255 354.577 L 244.255 175.459 C 231.671 167.07 218.021 160.569 203.305 155.953 C 188.589 151.34 173.714 149.033 158.679 149.033 C 148.053 149.033 137.639 150.361 127.428 153.018 C 117.222 155.675 106.945 158.961 96.597 162.876 L 96.597 344.93 C 105.266 341.015 115.124 338.148 126.169 336.33 C 137.218 334.513 148.053 333.604 158.679 333.604 Z M 127.763 186.712 C 133.499 185.253 139.495 184.136 145.528 183.395 C 151.558 182.665 157.854 182.284 164.14 182.284 C 174.182 182.284 183.907 183.172 192.89 184.881 C 201.832 186.6 210.762 189.075 219.324 192.207 L 219.726 192.354 L 220.011 192.527 C 221.786 193.602 223.672 195.3 224.964 196.981 C 226.228 198.837 227.308 201.428 227.308 203.425 C 227.308 203.813 227.301 204.027 227.289 204.321 C 227.307 204.526 227.3 204.582 227.308 204.803 L 227.305 248.804 C 227.298 248.994 227.297 248.989 227.291 249.096 C 227.319 249.381 227.308 249.283 227.308 249.567 C 227.308 254.405 224.86 259.082 221.541 261.744 C 217.852 263.857 212.25 264.164 207.364 262.645 C 200.478 259.654 193.713 257.561 186.594 256.224 C 179.449 254.857 172.084 254.206 164.082 254.206 C 158.635 254.206 153.616 254.529 148.714 255.213 C 143.806 255.885 139.053 256.881 134.224 258.242 C 132.161 258.76 130.517 258.849 128.804 258.746 L 128.231 258.851 L 127.835 258.82 C 124.982 258.591 121.151 256.899 118.93 255.035 C 117.092 252.849 115.605 249.087 115.368 246.212 L 115.371 199.764 C 115.604 196.926 117.288 193.1 119.076 190.891 C 120.879 189.298 123.139 188.172 125.324 187.551 C 126.29 187.047 126.868 186.905 127.763 186.712 Z M 186.594 210.081 C 179.449 208.714 172.084 208.063 164.082 208.063 C 158.636 208.063 153.616 208.387 148.713 209.07 C 144.998 209.58 143.673 209.854 141.176 210.384 L 141.176 230.137 C 142.624 229.915 142.276 229.936 145.528 229.538 C 151.558 228.808 157.854 228.427 164.14 228.427 C 174.182 228.427 183.907 229.315 192.89 231.023 C 197.793 231.964 198.837 232.248 201.79 232.98 L 201.79 214.275 C 196.769 212.432 192.761 211.242 186.594 210.081 Z M 285.059 203.427 C 285.059 201.43 286.143 198.832 287.41 196.975 C 288.701 195.295 290.581 193.604 292.356 192.529 L 292.641 192.356 L 293.043 192.209 C 301.605 189.077 310.535 186.602 319.477 184.883 C 328.46 183.174 338.185 182.286 348.227 182.286 C 354.514 182.286 360.81 182.661 366.84 183.397 C 372.873 184.133 378.568 185.192 384.304 186.65 C 386.82 187.278 389.789 189.004 391.618 191.238 C 393.433 193.453 394.734 196.635 394.734 199.172 C 394.734 203.436 392.614 207.722 389.802 210.23 C 386.668 212.248 382.101 212.988 378.111 212.092 C 373.281 210.731 368.562 209.744 363.654 209.072 C 358.751 208.389 353.731 208.065 348.285 208.065 C 340.283 208.065 332.919 208.716 325.774 210.083 C 318.654 211.421 311.575 213.634 304.69 216.625 C 299.803 218.145 294.514 217.715 290.826 215.603 C 287.507 212.942 285.059 208.264 285.059 203.427 Z M 285.059 249.569 C 285.059 247.573 286.144 244.975 287.41 243.117 C 288.702 241.436 290.582 239.747 292.356 238.672 L 292.642 238.499 L 293.043 238.352 C 301.605 235.22 310.535 232.745 319.477 231.025 C 328.46 229.317 338.185 228.429 348.227 228.429 C 354.514 228.429 360.81 228.809 366.84 229.539 C 372.873 230.28 378.572 231.335 384.306 232.793 C 386.821 233.421 389.789 235.147 391.618 237.381 C 393.433 239.596 394.734 242.778 394.734 245.316 C 394.734 249.579 392.612 253.865 389.801 256.374 C 386.667 258.39 382.1 259.129 378.111 258.235 C 373.281 256.874 368.561 255.887 363.653 255.215 C 358.751 254.531 353.732 254.208 348.285 254.208 C 340.283 254.208 332.918 254.859 325.773 256.226 C 318.654 257.563 311.575 259.777 304.69 262.768 C 299.804 264.288 294.515 263.859 290.826 261.746 C 287.506 259.084 285.059 254.406 285.059 249.569 Z M 285.059 295.851 C 285.059 293.747 286.078 291.078 287.331 289.123 C 288.621 287.337 290.509 285.556 292.293 284.431 L 292.604 284.235 L 293.043 284.075 C 301.622 280.939 310.586 278.529 319.545 276.946 C 328.511 275.382 338.202 274.571 348.227 274.571 C 354.514 274.571 360.81 274.946 366.84 275.682 C 372.873 276.418 378.569 277.478 384.304 278.935 C 386.82 279.563 389.789 281.29 391.619 283.525 C 393.433 285.74 394.734 288.922 394.734 291.459 C 394.734 295.722 392.612 300.008 389.801 302.517 C 386.667 304.533 382.099 305.272 378.11 304.378 C 373.281 303.016 368.562 302.03 363.653 301.358 C 358.751 300.674 353.732 300.351 348.285 300.351 C 340.262 300.351 332.857 300.941 325.692 302.174 C 318.595 303.37 311.556 305.507 304.689 308.492 C 299.901 310.014 294.761 309.821 291.129 308.087 C 287.664 305.623 285.059 300.893 285.059 295.851 Z M 221.232 308.088 C 217.6 309.822 212.153 309.89 207.365 308.369 C 200.498 305.384 193.773 303.368 186.676 302.172 C 179.51 300.94 172.105 300.349 164.082 300.349 C 158.635 300.349 153.616 300.672 148.714 301.356 C 143.806 302.028 139.052 303.023 134.223 304.385 C 130.233 305.281 125.695 304.528 122.563 302.511 C 119.75 300.003 117.633 295.721 117.633 291.457 C 117.633 288.919 119.011 285.8 120.748 283.523 C 122.659 281.354 125.217 279.632 127.733 279.004 C 133.469 277.547 139.494 276.421 145.527 275.681 C 151.558 274.949 157.854 274.57 164.14 274.57 C 174.165 274.57 183.857 275.38 192.823 276.944 C 201.782 278.527 210.745 280.937 219.324 284.073 L 219.763 284.234 L 220.074 284.429 C 221.859 285.555 223.749 287.341 225.038 289.123 C 226.29 291.078 227.308 293.745 227.308 295.849 C 227.308 300.891 224.698 305.624 221.232 308.088 Z"/>
</svg>