<svg height="48" viewBox="0 -960 960 960" width="48" xmlns="http://www.w3.org/2000/svg"><path fill="rgb(255, 255, 255)" d="m292.142-231.56c-16.782 0-31.076-5.8-42.882-17.66-11.794-11.73-17.697-26.04-17.697-42.92v-74.76c0-8.38 2.939-15.6 8.816-21.4 5.878-5.93 13.07-8.76 21.589-8.76 8.52 0 15.674 2.83 21.474 8.76 5.8 5.8 8.7 13.02 8.7 21.4v74.76h74.757c8.481 0 15.66 2.97 21.511 8.89 5.852 5.8 8.778 13.02 8.778 21.53s-2.926 15.72-8.778 21.52c-5.851 5.8-13.03 8.64-21.511 8.64zm375.073 0h-74.757c-8.481 0-15.66-2.84-21.512-8.77-5.852-5.8-8.778-13.01-8.778-21.52s2.926-15.73 8.778-21.53c5.852-5.79 13.031-8.76 21.512-8.76h74.757v-74.76c0-8.38 2.938-15.6 8.816-21.4 5.877-5.93 13.044-8.76 21.525-8.76s15.75 2.83 21.795 8.76c6.058 5.8 9.087 13.02 9.087 21.4v74.76c0 16.88-5.968 31.19-17.903 42.92-11.923 11.86-26.371 17.66-43.32 17.66zm-435.652-435.66c0-16.88 5.903-31.32 17.697-43.3 11.806-11.86 26.1-17.92 42.882-17.92h74.757c8.481 0 15.66 3.09 21.511 9.28 5.852 6.06 8.778 13.4 8.778 21.91s-2.926 15.6-8.778 21.4c-5.851 5.8-13.03 8.63-21.511 8.63h-74.757v74.76c0 8.51-2.939 15.73-8.816 21.52-5.878 5.93-13.07 8.9-21.59 8.9-8.519 0-15.673-2.97-21.473-8.9-5.8-5.79-8.7-13.01-8.7-21.52zm496.875 0v74.76c0 8.51-3.068 15.73-9.19 21.52-6.135 5.93-13.431 8.9-21.912 8.9s-15.621-2.97-21.421-8.9c-5.8-5.79-8.7-13.01-8.7-21.52v-74.76h-74.757c-8.481 0-15.66-2.83-21.512-8.76s-8.778-13.02-8.778-21.53c0-8.5 2.926-15.72 8.778-21.78s13.031-9.15 21.512-9.15h74.757c16.949 0 31.397 6.06 43.32 17.92 11.935 11.98 17.903 26.42 17.903 43.3zm-273.558 330.74c-5.813-6.06-8.713-13.02-8.713-21.01 0-7.86 2.9-14.82 8.7-20.62s12.554-8.77 20.274-8.77c8.223 0 15.325 2.97 21.319 8.77 5.993 5.8 8.996 12.63 8.996 20.23 0 8.25-3.003 15.34-9.022 21.4-6.019 5.93-12.992 8.89-20.932 8.89-7.927 0-14.809-2.96-20.622-8.89zm1.984-241.8c-7.011 3.74-13.159 8.76-18.431 14.82-5.581 5.67-12.141 9.02-19.656 10.31-7.514 1.42-14.5-.13-20.945-4.51-5.155-3.61-8.055-8.51-8.7-14.56-.644-6.19.967-11.6 4.834-16.37 10.311-13.67 22.878-24.36 37.7-31.84 14.823-7.47 31.682-11.34 50.59-11.34 23.291 0 42.328 7.09 57.099 21.01 14.784 13.92 22.169 31.96 22.169 54.13 0 11.86-2.9 23.72-8.7 35.71-5.8 12.11-14.913 24.36-27.351 36.73-7.334 7.35-13.031 13.92-17.117 19.72-4.085 5.8-7.192 12.11-9.344 19.07-2.578 5.93-6.019 11.09-10.311 15.47-4.292 4.25-9.564 6.45-15.815 6.45-6.535 0-12.09-2.2-16.653-6.45-4.563-4.38-6.342-9.79-5.349-16.37 1.585-11.86 4.949-22.17 10.105-30.8 5.156-8.51 14.178-19.08 27.067-31.58 6.38-6.06 12.167-12.76 17.349-20.11 5.194-7.35 7.785-15.72 7.785-25 0-8.77-3.261-15.98-9.796-21.66-6.535-5.67-14.178-8.5-22.955-8.5-8.7 0-16.55 1.8-23.575 5.67zm23.136 525.28c16.667 0 32.333-4.333 47-13l291-167c15.333-8.667 27.167-20.403 35.5-35.21 8.333-14.8 12.5-30.397 12.5-46.79v-330c0-16.393-4.167-31.99-12.5-46.79-8.333-14.807-20.167-26.543-35.5-35.21l-291-168c-14.667-8-30.333-12-47-12s-32.333 4-47 12l-291 168c-15.333 8.667-27 20.403-35 35.21-8 14.8-12 30.397-12 46.79v330c0 16.393 4 31.99 12 46.79 8 14.807 19.667 26.543 35 35.21l291 167c14.667 8.667 30.333 13 47 13z"/></svg>