<svg height="48" viewBox="0 -960 960 960" width="48" xmlns="http://www.w3.org/2000/svg"><path fill="rgb(255, 255, 255)" d="m185-95c-26.807 0-49.343-9.033-67.61-27.1-18.26-18.067-27.39-40.367-27.39-66.9v-582c0-26.807 9.13-49.343 27.39-67.61 18.267-18.26 40.803-27.39 67.61-27.39h339.988c13.167 0 24.293 4.753 33.38 14.26 9.08 9.513 13.62 20.847 13.62 34 0 13.16-4.54 24.24-13.62 33.24-9.087 9-20.213 13.5-33.38 13.5h-339.988v582h582v-260.872c0-13.167 4.56-24.293 13.68-33.38 9.113-9.08 20.28-13.62 33.5-13.62 13.213 0 24.32 4.54 33.32 13.62 9 9.087 13.5 20.213 13.5 33.38v260.872c0 26.533-9.207 48.833-27.62 66.9-18.42 18.067-40.547 27.1-66.38 27.1zm368-353c4.667-6.667 10.833-10 18.5-10s13.833 3.333 18.5 10l97 128c6 8.5 6.833 16.957 2.5 25.37-4.333 8.42-11.5 12.63-21.5 12.63h-384c-10.333 0-17.583-4.167-21.75-12.5s-3.25-16.833 2.75-25.5l67-85c4.667-6.667 10.833-10 18.5-10s13.833 3.333 18.5 10l76 98zm185.838-76.21c-4.343 0-8.34-1.26-11.969-3.62-3.648-2.37-6.031-5.7-7.168-9.78-6.851-19.6-15.661-37.61-26.446-54.15-10.797-16.59-22.495-32.7-35.124-48.47-12.237-14.7-22.262-30.66-30.092-48.18-7.832-17.66-11.747-35.8-11.747-54.93 0-34.11 11.918-62.98 35.789-86.85 23.872-23.97 52.686-35.81 86.437-35.81 33.755 0 62.615 11.84 86.567 35.81 23.932 23.87 35.915 52.74 35.915 86.52 0 19.46-3.818 37.9-11.444 55.26-7.642 17.37-17.507 33.34-29.603 48.18-12.11 16.25-23.856 32.51-35.22 48.76-11.368 16.25-20.416 34.26-27.141 53.86-1.151 4.08-3.475 7.41-6.978 9.78-3.503 2.36-7.438 3.62-11.776 3.62zm-.193-77.35c7.359-11.06 14.856-21.93 22.498-32.37 7.627-10.57 15.648-21.14 24.075-31.58 8.937-11.06 16.579-23.2 22.895-36.15 6.314-13.1 9.473-27.17 9.473-42.01 0-21.6-7.642-40.08-22.893-55.71-15.268-15.47-33.943-23.23-56.048-23.23-22.101 0-40.796 7.76-56.045 23.23-15.265 15.63-22.893 34.25-22.893 56.04 0 14.51 3.159 28.25 9.473 41.54 6.316 13.09 13.938 25.23 22.891 36.29 8.417 10.44 16.437 21.01 24.08 31.58 7.622 10.44 15.122 21.31 22.494 32.37zm0-102.61c-11.049 0-20.398-3.79-28.022-11.07-7.64-7.42-11.444-16.88-11.444-28.43 0-11.03 3.804-20.34 11.444-28.1 7.624-7.57 16.973-11.34 28.022-11.34 11.052 0 20.383 3.77 28.025 11.34 7.626 7.76 11.445 17.07 11.445 28.1 0 11.55-3.819 21.01-11.445 28.43-7.642 7.28-16.973 11.07-28.025 11.07z"/></svg>