<svg height="48" width="48" xmlns="http://www.w3.org/2000/svg"><path fill="rgb(255, 255, 255)" d="m47 6v36c0 .552-.448 1-1 1h-44c-.552 0-1-.448-1-1v-36c0-.552.448-1 1-1h44c.552 0 1 .448 1 1zm-42 33h38v-30h-38zm19-4.001h-12c-.477 0-.887-.337-.981-.804l-1.996-10c-.058-.294.018-.599.208-.83.19-.232.473-.366.773-.366h6.779l-.76-3.804c-.058-.294.018-.599.208-.83.19-.232.473-.366.773-.366h6.779l-.76-3.803c-.058-.294.018-.599.208-.83.19-.232.473-.366.773-.366h12c.477 0 .887.337.981.804l1.994 10c.058.294-.018.599-.208.83-.19.232-.474.366-.773.366h-6.779l.762 3.807c.058.294-.018.598-.208.83s-.474.366-.773.366l-6.78-.003.761 3.803c.058.294-.018.598-.208.83s-.473.366-.773.366z"/></svg>