<svg height="48" viewBox="0 -960 960 960" width="48" xmlns="http://www.w3.org/2000/svg"><path fill="rgb(255, 255, 255)" d="m119.6-135q-26.6 0-45.6-19t-19-46v-560q0-26.6 19-46.3 19-19.7 45.6-19.7 15.4 0 42.4 9.5t71 21q44 11.5 104.5 20.5t142.5 9q82 0 142.5-9t104.5-20.5q44-11.5 71-21t42.33-9.5q26.46 0 46.07 19.7 19.6 19.7 19.6 46.3v560q0 27-19.6 46-19.61 19-46.07 19-15.33 0-42.33-9t-71-20.5q-44-11.5-104.5-21t-142.5-9.5q-82 0-142.73 9.5-60.73 9.5-104.27 20.5-44 12-71 21t-42.4 9zm29.4-105q80-27 163.25-38t168-11q84.75 0 167.75 11t163 38v-480q-79.73 27.41-162.99 38.1-83.25 10.7-168.01 10.7-84.76 0-168.01-10.7-83.26-10.69-162.99-38.1z"/></svg>