<svg height="100" width="100" xmlns="http://www.w3.org/2000/svg"><path fill="rgb(255, 255, 255)" d="m53.658 11.265c.866.368 1.451.925 1.726 1.558.297.685.195 1.661 0 2.213-.358 1.014-.881 1.642-1.13 2.159-.153 4.669-.521 8.065-.673 12.11 4.497-.493 7.095-.639 11.187-1.811 1.225-.72 2.71-1.714 4.398-2.196 1.728-.495 3.981-.092 5.788 1.617l-.296-.28.177.162c1.632 1.492 4.145 2.735 5.825 5.049.462.815.729 1.822.638 2.527-.094.737-.548 1.535-.963 2.011-.789.905-1.779 1.487-2.392 2.02-1.668 2.043-3.01 4.421-4.687 6.778-.217.375-.481.735-.732 1.064.504.263.947.605 1.189.955.405.586.585 1.56.5 2.196-.159 1.178-1.402 2.607-2.693 3.15l-.07.029-.168.023c-6.662.887-12.465 1.291-18.644 1.93-.108 5.102-.206 9.812-.322 15.357-.211 3.788.115 7.804-.53 11.843-.204 1.263-.409 2.9-.941 4.365-.538 1.482-1.749 3.036-3.451 3.856l-.852.411-.601-.599c-1.359-1.354-1.724-3.322-1.83-4.488-.256-5.03-.038-10.168-.11-15.093.366-5.456.498-9.809.596-14.733-2.134.188-2.618.205-4.64.479l.429-.161c-.387.145-.894.227-1.372.276.188.736.209 1.445.043 1.981-.307.988-1.335 1.948-2.21 2.284-.858.329-2.194.345-3.124-.053-.904-.387-1.888-1.517-2.367-2.735-1.365-4.916-3.424-9.639-5.749-14.243-1.371-3.171-2.382-6.19-4.83-8.188l-1.945-1.588 2.376-.94c1.642-.65 3.277-1.27 4.882-1.93l.142-.058.069-.01c.81-.123 1.786.01 2.306.348.513.332.949.91 1.195 1.309.483.779.422.85.554 1.082 5.408-.797 9.843-1.7 15.007-2.662.063-1.795-.011-2.372-.075-4.183-.329-4.633.638-9.098-1.781-12.526l-.088-.125-.034-.111c-.117-.381-.821-1.155-1.2-1.942-.112-.23-.251-.631-.278-.935-.035-.383.202-1.189.573-1.532.489-.452 1.43-.547 2.285-.459 3.115-.114 6.267.759 8.893 2.439zm-13.701 44.662-.003.001-.094.012c.033-.004.065-.009.097-.013zm13.502-19.345c-.229 4.038-.387 6.857-.616 10.92 3.567-.408 6.515-.618 10.541-1.366l.274-.051.158.035c.459.1.478.045.701-.111.213-.149.289-.266.48-.683.403-.88.595-2.085 1.06-3.291.71-2.809 1.32-4.663 1.227-6.818-4.801.062-8.245.793-13.825 1.365zm-20.274 2.827c1.111 3.447 1.83 5.673 3.206 9.949 3.016-.355 5.111-.601 8.278-.976.132-4.123.191-6.041.336-10.594-4.18.573-6.703.918-11.82 1.621z"/></svg>