<svg height="48" viewBox="0 -960 960 960" width="48" xmlns="http://www.w3.org/2000/svg"><path fill="rgb(255, 255, 255)" d="m738.665-532.96h-63.181c-8.553-.19-16.718-3.45-22.568-8.88-5.559-5.77-9.054-13.82-9.054-22.03 0-8.25 3.539-16.28 9.14-22.03 5.956-5.58 14.048-8.72 22.407-8.9h63.256c8.205.19 16.183 3.35 22.022 8.94 5.49 5.76 8.907 13.77 8.907 21.99 0 8.09-3.467 16.14-8.931 22-5.773 5.44-13.749 8.71-21.998 8.91zm-124.375 88.98c5.201-5.96 12.703-10.16 20.568-11.62 7.961-.92 16.194 1.05 22.748 5.77l50.904 37.85c6.082 4.89 10.424 12.18 12.005 20.04 1.202 8.08-.905 16.61-5.728 23.33-5.068 6.22-12.395 10.72-20.316 12.31-8.152 1.2-16.726-1-23.754-6.18l-50.79-37.69c-6.042-4.96-10.366-12.25-11.952-20.38-1.184-8.26 1.123-16.8 6.315-23.43zm94.214-271.8-49.041 37.25c-6.516 4.56-14.784 6.57-22.766 5.61-7.921-1.32-15.294-5.49-20.507-11.55-5.226-6.4-7.604-14.88-6.573-23.25 1.444-8.16 5.828-15.63 12.226-20.54l49.6-37.81c6.607-4.73 15.001-6.61 23.028-5.38 7.822 1.54 15.1 5.72 20.038 11.61 5.035 6.96 7.203 15.69 6.005 23.91-1.578 7.85-5.951 15.18-12.01 20.15zm-437.477 247.33h-23.995l-.29-.04c-15.732-2.02-29.779-9.41-40.332-21.21-10.27-12.12-15.829-26.94-16.004-42.54v-63.26c.21-17.3 6.784-33.14 18.927-45.57 12.435-12.13 28.245-18.63 45.49-18.84h99.579l99.183-58.79c11.287-6.22 23.875-6.34 34.942-.68 10.76 6.49 17.013 17.33 17.379 30.22v250.55c-.367 12.8-6.619 23.62-17.376 30.1-11.132 5.82-23.754 5.51-34.98-.57l-99.161-59.37h-10.965v63.34c-.203 9.6-3.941 18.74-10.414 25.48-6.751 6.42-15.921 10.4-25.585 10.4-9.645 0-18.858-3.95-25.739-10.36-6.612-6.74-10.447-15.9-10.659-25.52zm263.687-205.35 8.685 6.22c16.19 11.59 29.524 26.8 39.184 44.67 9.545 18.01 14.604 38.05 14.604 59.04 0 20.88-5.003 40.99-14.476 58.89-9.595 17.9-23.015 32.89-39.38 44.24l-8.617 5.98zm-319.714 458.8-79 79c-15.333 15.333-32.667 18.99-52 10.97s-29-22.343-29-42.97v-643c0-26.307 9.157-48.717 27.47-67.23 18.32-18.513 40.497-27.77 66.53-27.77h662c26.307 0 48.717 9.257 67.23 27.77s27.77 40.923 27.77 67.23v502c0 26.033-9.257 48.207-27.77 66.52-18.513 18.32-40.923 27.48-67.23 27.48zm-26-94h622v-502h-662v548z"/></svg>