<svg height="48" viewBox="0 -960 960 960" width="48" xmlns="http://www.w3.org/2000/svg"><path fill="rgb(255, 255, 255)" d="m179-96q-48 0-80.5-28.64-32.5-28.63-32.5-69.36 0-30.65 18.3-50.32 18.3-19.68 47.46-19.68 26.24 0 42.74 16 16.5 16 16.5 41 0 9.56-4 18t-11 13q3 2 7.5 3t10.5 1q12 1 21-10.5t12-29.5l71-364h-99q-17 0-28-11t-11-27.81q0-16.8 11-28.5 11-11.69 28-11.69h114l19-84q13-60 47.22-93.5t86.07-33.5q47.71 0 79.71 27.5 32 27.5 32 68.5 0 32.7-18.5 52.35t-47.97 19.65q-25.53 0-42.03-15t-16.5-40.17q0-7.83 3.5-16.45 3.5-8.61 8.5-13.38-2-2-6-3.5t-8-1.5q-12-1-22 10.75t-13 28.25l-20 94h173.72q17.28 0 28.78 11.66 11.5 11.67 11.5 28.43 0 13.91-8 23.91t-21 13h-17l80 89 76-89h-18q-13-3-21.5-12.89t-8.5-24.05q0-17.06 11-28.56t28.38-11.5h140.62q16.3 0 27.65 11.69 11.35 11.7 11.35 28.5 0 16.81-11.35 27.81t-27.65 11h-29l-128 138 129 137h28q16.3 0 27.65 11.69 11.35 11.7 11.35 28.5 0 16.81-11.35 28.31t-27.65 11.5h-140.62q-17.38 0-28.38-11.66-11-11.67-11-28.43 0-13.91 8.5-24.41t21.5-13.5h18l-78-84-80 84h18q13 3 21.5 13.5t8.5 24.41q0 16.76-11.64 28.43-11.64 11.66-28.36 11.66h-139.74q-17.26 0-28.76-11.69-11.5-11.7-11.5-28.5 0-16.81 11.64-28.31 11.63-11.5 28.36-11.5h30l128-137-127.93-138h-80.07l-70 360q-11 56-45.75 88t-84.25 32z"/></svg>