<svg height="48" viewBox="0 -960 960 960" width="48" xmlns="http://www.w3.org/2000/svg"><path fill="rgb(255, 255, 255)" d="m149-135c-26.033 0-48.21-9.327-66.53-27.98-18.313-18.647-27.47-40.653-27.47-66.02v-502c0-25.64 9.157-47.883 27.47-66.73 18.32-18.847 40.497-28.27 66.53-28.27h222c12.46 0 24.573 2.667 36.34 8 11.773 5.333 22.023 12.363 30.75 21.09l43.36 42.91h329.55c25.64 0 47.883 9.323 66.73 27.97 18.847 18.653 28.27 40.663 28.27 66.03v431c0 25.367-9.423 47.373-28.27 66.02-18.847 18.653-41.09 27.98-66.73 27.98zm0-94h662v-431h-369l-71-71h-222zm401.467-69.04c-15.746 0-28.849-4.91-39.31-14.9-10.462-10.13-16.169-22.36-17.097-37.11 0-.99.112-1.69.352-2.54.224-.56.352-1.4.352-2.38l-58.349-33.75c-3.641 2.4-7.83 3.93-12.542 4.91-4.724 1-9.446 1.42-14.171 1.42-16.056 0-29.442-5.35-40.155-16.17-10.728-10.69-16.084-23.91-16.084-39.79 0-15.75 5.356-29.1 16.084-39.79 10.713-10.68 24.099-16.04 40.155-16.04 4.725 0 9.406.72 14.059 2.12 4.654 1.4 8.871 3.09 12.668 4.92l58.335-34.17c-.48-15.61 4.68-28.95 15.466-39.92 10.768-11.11 24.238-16.6 40.421-16.6 15.17 0 28.274 5.35 39.325 16.18 11.036 10.67 16.562 23.9 16.562 39.78 0 15.89-5.539 29.11-16.605 39.8-11.064 10.67-24.352 16.02-39.887 16.02-5.16 0-10.039-.7-14.636-1.97-4.611-1.26-8.787-3.23-12.528-5.75l-52.02 31.62v7.73l52.02 31.65c3.741-1.84 7.917-3.52 12.528-4.94 4.597-1.39 9.561-2.1 14.889-2.1 15.466 0 28.697 5.35 39.719 16.18 11.008 10.68 16.52 23.89 16.52 39.79 0 15.88-5.568 29.09-16.675 39.78s-24.239 16.02-39.396 16.02z"/></svg>