<svg viewBox="0 0 512 512" xmlns="http://www.w3.org/2000/svg"><path fill="rgb(255, 255, 255)" d="m245.196 461.388-37.66-64.711-72.957 32.445c-4.162 1.851-9.002 1.291-12.632-1.462-3.63-2.752-5.475-7.261-4.815-11.769l10.528-71.986-79.826-13.377c-4.654-.78-8.473-4.115-9.872-8.622s-.141-9.418 3.254-12.697l55.091-53.209-55.091-53.209c-3.395-3.279-4.653-8.19-3.254-12.697s5.218-7.842 9.872-8.622l79.826-13.377-10.528-71.986c-.66-4.508 1.185-9.017 4.815-11.769 3.63-2.753 8.47-3.313 12.632-1.462l72.957 32.445 37.66-64.711c2.239-3.846 6.354-6.212 10.804-6.212s8.565 2.366 10.804 6.212l37.66 64.711 72.957-32.445c4.162-1.851 9.002-1.291 12.632 1.462 3.63 2.752 5.475 7.261 4.815 11.769l-10.528 71.986 79.826 13.377c4.654.78 8.473 4.115 9.872 8.622s.141 9.418-3.254 12.697l-55.091 53.209 55.091 53.209c3.395 3.279 4.653 8.19 3.254 12.697s-5.218 7.842-9.872 8.622l-79.826 13.377 10.528 71.986c.66 4.508-1.185 9.017-4.815 11.769-3.63 2.753-8.47 3.313-12.632 1.462l-72.957-32.445-37.66 64.711c-2.239 3.846-6.354 6.212-10.804 6.212s-8.565-2.366-10.804-6.212zm75.829-311.443c-2.28-3.315-6.401-4.835-10.287-3.794l-.001.001-31.965 9.658c-2.035.615-3.805 1.895-5.027 3.636l-56.313 80.238-14.449-50.876c-.696-2.45-2.347-4.519-4.582-5.74-2.235-1.222-4.868-1.495-7.306-.758l-23.365 7.063c-4.962 1.5-7.806 6.702-6.389 11.689l40.133 141.297c.696 2.45 2.347 4.518 4.582 5.74s4.868 1.495 7.306.757l23.363-7.062c4.962-1.5 7.806-6.702 6.39-11.689l-12.653-44.547 14.598-20.302 75.617 47.739c2.242 1.414 4.971 1.829 7.531 1.143h.001l31.121-9.402c3.6-1.088 6.218-4.196 6.68-7.925.462-3.731-1.319-7.384-4.542-9.317l-92.297-55.34 51.714-71.246c2.363-3.255 2.419-7.648.14-10.963z" stroke-linejoin="round" stroke-width="25"/></svg>