<svg clip-rule="evenodd" fill-rule="evenodd" stroke-linejoin="round" stroke-miterlimit="2" viewBox="0 0 250 250" xmlns="http://www.w3.org/2000/svg"><path fill="rgb(255, 255, 255)" d="m36.015 207.006c-6.988 0-12.941-2.459-17.858-7.377-4.916-4.916-7.374-10.868-7.374-17.856v-134.752c0-7.062 2.458-13.077 7.374-18.047 4.917-4.969 10.87-7.454 17.858-7.454h177.702c7.061 0 13.077 2.485 18.046 7.454 4.97 4.97 7.455 10.985 7.455 18.047v134.752c0 6.988-2.485 12.94-7.455 17.856-4.969 4.918-10.985 7.377-18.046 7.377h-44.828v8.858c0 3.534-1.27 6.52-3.809 8.957-2.538 2.44-5.563 3.659-9.076 3.659h-62.276c-3.534 0-6.52-1.219-8.958-3.659-2.439-2.437-3.658-5.423-3.658-8.957v-8.858zm0-35.233c0 5.523 4.478 10 10 10h157.702c5.523 0 10-4.477 10-10v-114.752c0-5.523-4.477-10-10-10h-157.702c-5.522 0-10 4.477-10 10zm117.369-86.293c1.947 0 3.581-.66 4.896-1.979 1.316-1.319 1.973-2.952 1.973-4.901 0-1.948-.661-3.581-1.978-4.895-1.319-1.317-2.952-1.974-4.901-1.974s-3.581.66-4.896 1.979c-1.316 1.317-1.973 2.951-1.973 4.902 0 1.947.659 3.579 1.978 4.894 1.318 1.316 2.952 1.974 4.901 1.974zm-62.757 36.406c1.949 0 3.581-.659 4.896-1.978 1.314-1.318 1.973-2.952 1.973-4.901s-.659-3.581-1.979-4.896c-1.317-1.316-2.951-1.973-4.9-1.973s-3.579.659-4.896 1.978c-1.314 1.319-1.971 2.952-1.971 4.901s.659 3.581 1.976 4.896c1.319 1.316 2.952 1.973 4.901 1.973zm62.757 36.407c1.947 0 3.581-.659 4.896-1.979 1.316-1.317 1.973-2.951 1.973-4.9s-.661-3.581-1.978-4.896c-1.319-1.316-2.952-1.973-4.901-1.973s-3.581.659-4.896 1.978c-1.316 1.317-1.973 2.952-1.973 4.901 0 1.948.659 3.581 1.978 4.895 1.318 1.315 2.952 1.974 4.901 1.974zm-.013 13.565c-5.367 0-10.534-2.272-14.434-6.024-3.736-3.91-5.997-9.064-5.997-14.408 0-.72-31.933-18.957-34.333-17.79-2.455 1.123-5.311 1.815-7.927 1.815-5.434 0-10.627-2.265-14.521-6.016-3.724-3.904-5.976-9.067-5.976-14.431 0-5.363 2.253-10.527 5.978-14.426 3.893-3.742 9.086-6.005 14.519-6.005 2.58 0 5.346.598 7.704 1.582 2.324 1.032 3.316 1.76 4.825 2.965l30.021-17.267c-.012-.083-.034-.225-.069-.456-.138-.977-.221-1.995-.221-2.84 0-5.336 2.265-10.483 6.01-14.384 3.904-3.744 9.071-6.007 14.436-6.007 5.367 0 10.53 2.264 14.432 6.011 3.738 3.904 6 9.071 6 14.436 0 5.363-2.252 10.526-5.977 14.425-3.892 3.745-9.087 6.008-14.52 6.008-2.536 0-5.201-.43-7.532-1.16-2.48-.86-3.399-1.558-4.856-2.749l-30.109 16.35c.041.288-.006-.311.1.863.087 1.065.137 2.004.137 2.692 0 .707-.056 1.556-.146 2.375-.108.884-.045.342-.074.521l30.22 16.865c1.347-1.009 2.14-1.582 4.408-2.483 2.274-.839 5.07-1.34 7.852-1.34 5.433 0 10.629 2.265 14.522 6.015 3.723 3.905 5.975 9.068 5.975 14.431 0 5.367-2.267 10.531-6.011 14.432-3.905 3.739-9.07 6-14.436 6z"/></svg>