<?xml version="1.0" encoding="utf-8"?>
<svg xmlns="http://www.w3.org/2000/svg">
  <path fill="rgb(255, 255, 255)" d="M 260.276 312.396 C 260.276 341.838 236.324 365.79 206.883 365.79 C 177.441 365.79 153.489 341.838 153.489 312.396 C 153.489 282.955 177.441 259.003 206.883 259.003 C 236.324 259.003 260.276 282.956 260.276 312.396 Z M 488.258 254.458 C 483.392 258.656 475.464 260.761 469.154 259.526 L 433.096 250.205 L 325.795 298.802 C 326.296 303.266 326.571 306.31 326.571 312.396 C 326.571 344.968 312.818 375.65 291.478 396.991 C 270.137 418.332 239.455 432.085 206.883 432.085 C 178.928 432.085 152.216 421.958 132.007 405.71 C 111.793 389.458 97.653 367.346 91.005 342.323 C 91.153 342.403 91.268 342.463 91.002 342.312 C 91.002 342.311 91.002 342.311 91.002 342.311 C 91 342.31 90.998 342.309 90.997 342.309 C 90.998 342.31 91 342.311 91.002 342.312 C 91.003 342.316 91.004 342.319 91.005 342.323 C 90.816 342.221 90.573 342.085 90.997 342.309 C 90.972 342.295 90.945 342.279 90.915 342.262 C 72.566 331.675 60.126 317.307 51.747 299.918 L 42.38 302.065 C 40.97 302.369 39.233 302.58 37.857 302.58 C 33.61 302.58 28.59 300.768 25.396 298.254 C 22.211 295.748 19.399 291.194 18.219 286.921 C 17.326 281.855 18.295 275.682 20.788 271.706 C 23.282 267.729 28.417 264.167 33.364 262.764 L 42.95 260.566 C 44.4 238.406 58.908 203.814 70.676 186.684 C 85.763 165.308 110.105 150.337 135.993 146.546 L 400.293 108.683 L 428.982 84.333 C 434.123 80.475 442.175 78.913 448.386 80.571 C 454.353 82.96 459.871 89.03 461.679 95.198 L 493.851 235.501 C 494.91 241.841 492.588 249.708 488.258 254.458 Z M 262.975 368.489 C 277.678 353.786 286.249 334.704 286.249 312.396 C 286.249 290.088 277.678 271.007 262.975 256.305 C 248.273 241.602 229.192 233.031 206.884 233.031 C 184.576 233.031 165.494 241.602 150.791 256.305 C 136.088 271.007 127.517 290.088 127.517 312.396 C 127.517 334.704 136.088 353.786 150.791 368.489 C 165.494 383.192 184.576 391.763 206.884 391.763 C 229.192 391.763 248.273 383.192 262.975 368.489 Z M 397.235 219.868 L 381.693 152.083 L 141.618 186.474 C 125.455 188.479 111.952 195.683 104.022 209.342 C 91.443 229.725 84.904 246.844 83.961 261.878 C 83.039 276.567 84.911 280.626 89.793 288.036 C 95.154 263.118 105.236 243.229 126.209 224.058 C 147.179 204.89 176.227 192.709 206.883 192.709 C 231.273 192.709 254.833 200.416 273.637 213.097 C 292.453 225.786 305.044 241.156 314.373 259.874 L 397.235 219.868 Z"/>
</svg>