<svg height="48" viewBox="0 -960 960 960" width="48" xmlns="http://www.w3.org/2000/svg"><path fill="rgb(255, 255, 255)" d="m677-404h-83q-15 0-26 11.62-11 11.61-11 26.5 0 14.88 11 25.88 11 11 26 11h110q19.75 0 33.38-13.63 13.62-13.62 13.62-33.37v-110q0-14.83-11-26.42-11-11.58-26-11.58t-26 11.58q-11 11.59-11 26.42zm-393-233h82q14.83 0 26.42-11 11.58-11 11.58-26t-11.58-26q-11.59-11-26.42-11h-110q-19.75 0-33.37 13.62-13.63 13.63-13.63 33.38v110q0 15 11 26t25.88 11q14.89 0 26.5-11 11.62-11 11.62-26zm-135 462q-39.05 0-66.53-27.48-27.47-27.47-27.47-66.52v-502q0-39.46 27.47-67.23 27.48-27.77 66.53-27.77h662q39.46 0 67.23 27.77 27.77 27.77 27.77 67.23v502q0 39.05-27.77 66.52-27.77 27.48-67.23 27.48h-167v33q0 19.75-14.19 33.37-14.18 13.63-33.81 13.63h-232q-19.75 0-33.37-13.63-13.63-13.62-13.63-33.37v-33zm0-94h662v-502h-662zm0 0v-502z"/></svg>