<svg height="48" width="48" xmlns="http://www.w3.org/2000/svg"><path fill="rgb(255, 255, 255)" d="m10.25 42.4c-1.3 0-2.408-.467-3.325-1.4s-1.375-2.067-1.375-3.4v-7c0-.667.225-1.225.675-1.675s1.008-.675 1.675-.675 1.225.225 1.675.675.675 1.008.675 1.675v7.05h27.45v-7.05c0-.667.225-1.225.675-1.675s1.008-.675 1.675-.675 1.225.225 1.675.675.675 1.008.675 1.675v7.05c0 1.3-.467 2.417-1.4 3.35s-2.033 1.4-3.3 1.4zm3.906-13.415c-.439-.023-.931-.221-1.214-.504s-.481-.775-.504-1.214v-11.478c.035-4.157 2.311-8.099 5.893-10.207 3.903-2.205 8.401-1.956 11.788 0 3.389 1.956 5.852 5.725 5.896 10.207l-.001 11.479c-.023.438-.221.931-.504 1.213-.282.283-.775.482-1.214.503l-6.037-.003c-.438-.022-.931-.22-1.213-.503-.284-.284-.482-.776-.504-1.213l-.007-11.479c.035-.878-.377-1.592-1.157-2.002-.797-.508-1.589-.418-2.313.001-.724.417-1.198 1.058-1.155 2.002l.001 11.478c-.022.437-.22.929-.504 1.213-.283.283-.775.481-1.213.503zm1.718-8.47 2.611.002-.001-4.725c.065-1.93 1.148-3.813 2.786-4.834 1.87-1.074 4.1-1.01 5.742-.1 1.642.911 2.879 2.768 2.958 4.922l.002 4.737h2.609l-.007-4.723c-.05-2.865-1.513-5.397-3.973-6.876-2.765-1.748-5.829-1.597-8.355-.231-2.525 1.367-4.323 3.843-4.375 7.107z"/></svg>