<svg viewBox="0 0 24 24" xmlns="http://www.w3.org/2000/svg"><path fill="rgb(255, 255, 255)" d="m16.627 20.108c-.048.085-.07.106-.028.162-.005-.014-.011-.027-.017-.039.18.359.332.667.545.978.122.168.24.346.357.504.036.051.056.111.057.172.007.011.018.029.028.053.111.208.149.473.096.683-.052.211-.223.457-.431.585-.212.132-.516.165-.727.108s-.44-.239-.568-.432c-.012-.02-.021-.039-.029-.06-.006-.025-.016-.045-.033-.09-.013-.022-.02-.034-.025-.043-.034-.033-.06-.073-.076-.121-.075-.228-.136-.424-.183-.623-.136-.375-.238-.695-.42-1.011.004.007.01.015.015.022-.032-.064-.066-.08-.144-.092-.084-.021-.155-.078-.194-.157l-.002-.003c-1.916.637-3.774.635-5.652-.017l-.025.047c-.046.082-.127.137-.22.151-.066.004-.064.004-.084.016-.191.331-.317.651-.447 1.053-.048.202-.109.404-.187.62-.014.042-.038.077-.066.107-.01.021-.022.047-.037.075-.093.217-.27.406-.466.5s-.493.105-.727.037c-.217-.091-.436-.283-.531-.479-.094-.195-.106-.487-.039-.721.051-.103.08-.131.059-.118.01-.031.025-.06.045-.085.003-.06.024-.117.059-.165.129-.17.24-.342.361-.525.227-.294.39-.598.53-.93.015-.084.003-.106-.033-.19-.027-.069-.026-.145.001-.213l.015-.039c-1.686-1.086-2.853-2.532-3.529-4.413l-.052.009c-.086.012-.171-.012-.237-.066-.055-.053-.073-.064-.11-.068-.379.07-.696.178-1.075.308-.178.093-.381.172-.584.235-.056.018-.129.036-.228.054-.22.047-.489.025-.672-.066-.191-.098-.386-.329-.477-.546-.058-.228-.045-.518.053-.715.097-.196.324-.388.558-.479.027-.009.053-.014.082-.015.036-.017.076-.029.118-.03l.13-.024c.244-.06.482-.066.676-.066.355 0 .681-.075 1.036-.16.065-.043.092-.07.146-.163.041-.064.105-.111.178-.13l.03-.009c-.235-2.005.174-3.81 1.225-5.508l-.012-.011c-.067-.057-.104-.14-.104-.227.007-.087-.005-.117-.038-.166-.282-.238-.553-.433-.881-.617-.185-.094-.377-.205-.564-.33-.016-.011-.031-.023-.045-.038-.015-.015-.074-.059-.119-.104l-.015-.014c-.174-.16-.319-.393-.356-.603-.041-.218.027-.505.154-.718.007-.012.016-.024.025-.034.189-.187.507-.31.774-.322.206.026.435.115.605.241l.152.118c.164.151.308.325.438.468.263.279.52.524.817.735.048.024.069.027.155 0 .084-.019.172 0 .241.051l.015.01c1.134-1.125 2.512-1.915 4.153-2.29.387-.091.631-.127.951-.162v-.012c.005-.082.042-.157.105-.211.072-.05.081-.074.106-.161.015-.373-.013-.693-.07-1.05-.046-.205-.079-.451-.096-.67l.002-.155c-.009-.239.073-.52.211-.691.137-.169.395-.32.633-.348.245-.032.532.066.698.205s.298.395.338.621c.002.013.003.025.003.038l-.001.35c-.015.22-.048.445-.094.65-.057.357-.084.71-.069 1.081-.002-.015-.003-.03-.006-.045.004.092.019.105.09.144.074.054.121.138.125.227l.002.032c1.991.245 3.651 1.05 5.07 2.446l.03-.023c.07-.052.158-.071.243-.052.087.027.108.024.156 0 .299-.214.571-.458.814-.732.134-.149.275-.305.431-.459.013-.015.028-.027.045-.037.022-.012.053-.032.112-.06.178-.171.438-.283.655-.283.22 0 .476.124.645.293.172.177.294.433.293.656-.003.22-.13.486-.298.662-.03.105 0 .021-.039.056-.031.03-.055.045-.077.06-.047.04-.096.077-.146.112-.176.127-.369.239-.555.333-.326.184-.617.382-.882.617.004-.005.007-.009.012-.014-.063.06-.074.066-.05.132.011.097-.027.193-.1.259l-.045.037c1.07 1.703 1.478 3.52 1.255 5.498l.03.009c.084.021.153.078.192.156.024.071.051.088.118.119.35.097.691.15 1.067.193h.597c.074 0 .146.029.202.079.006-.001.013-.001.022 0 .238.045.492.189.622.366.132.175.196.487.178.725-.055.218-.191.459-.356.592-.167.135-.446.211-.691.195-.019-.002-.039-.006-.057-.012.003-.002-.003 0-.028-.004-.015-.003-.05-.011-.076-.021-.008-.002-.021-.008-.035-.015-.07-.011-.13-.023-.169-.033-.208-.065-.401-.145-.574-.238-.379-.145-.68-.232-1.057-.289-.106-.007-.106-.058-.076.002-.066.086-.173.131-.281.116-.018-.003-.032-.004-.039-.006-.646 1.827-1.864 3.362-3.526 4.437.042.084.042.184 0 .268zm2.865-12.551c-.005.004-.009.009-.015.013.004-.004.01-.009.015-.013zm-4.826 6.988c-.044.035-.054.05-.087.139-.03.083-.043.113.004.188l1.152 2.826c1.03-.721 1.635-1.481 2.129-2.678l-2.95-.475zm-3.329-1.48.669.325.667-.323.162-.72-.463-.57h-.748l-.46.567zm-2.878-1.028c.027-.019.06-.033.094-.042.091-.009.108-.038.153-.116.043-.08.061-.111.021-.196-.008-.027-.012-.057-.012-.086.034-.023.013.002-.057-.053-.024-.021-.045-.045-.063-.072l-2.187-1.991c-.617 1.122-.829 2.069-.75 3.36zm1.758-2.558c.018.008.035.017.052.027.075.061.118.06.206.046.089-.015.123-.018.165-.101.045-.036.057-.083.067-.18.003-.024.009-.048.018-.072l.154-2.902c-.1.018-.07.014-.309.058-1.155.256-1.978.704-2.763 1.41zm3.09-.203c-.007.098.02.131.084.191s.091.084.186.066c.079.006.131-.009.196-.043.007-.003.015-.008.022-.011l2.394-1.713c-.962-.857-1.805-1.253-3.055-1.473zm4.28.247-2.224 1.998c-.084.056-.093.1-.1.192-.008.088-.012.119.058.175.043.06.07.085.133.095.026.008.049.018.072.032l2.829.808c.04-1.242-.157-2.181-.768-3.3zm-5.295 6.583c-.021-.021-.039-.043-.054-.07-.035-.088-.072-.102-.16-.127-.089-.027-.123-.037-.196.019.009-.006.018-.01.027-.016-.114.079-.138.061-.122.097-.016.038-.039.07-.067.097l-1.414 2.556c1.022.285 1.959.345 3.127.064.203-.043.184-.04.272-.064zm-2.889-1.128c.003-.062.027-.122.066-.172.027.02.006-.007-.003-.068-.023-.06-.044-.084-.11-.135-.064-.049-.088-.067-.163-.058h-.094l-2.937.489c.472 1.152 1.078 1.901 2.131 2.649z" stroke-linejoin="round" stroke-width=".4"/></svg>