<svg clip-rule="evenodd" fill-rule="evenodd" stroke-linejoin="round" stroke-miterlimit="2" viewBox="0 0 1042 1042" xmlns="http://www.w3.org/2000/svg"><path fill="rgb(255, 255, 255)" d="m121.838 912.621v-782.549c0-27.194 9.466-50.361 28.397-69.499 18.938-19.137 41.864-28.707 68.775-28.707h601.643c27.195 0 50.361 9.57 69.499 28.707 19.138 19.138 28.707 42.305 28.707 69.499v782.549c0 26.912-9.569 49.837-28.707 68.776-19.138 18.933-42.304 28.393-69.499 28.393h-601.643c-26.911 0-49.837-9.46-68.775-28.393-18.931-18.939-28.397-41.864-28.397-68.776zm662.554-317.361c20.027 0 36.261-16.234 36.261-36.261v-392.666c0-20.027-16.234-36.261-36.261-36.261h-529.121c-20.027 0-36.261 16.234-36.261 36.261v392.666c0 20.027 16.234 36.261 36.261 36.261zm36.261 134.467c0-9.617-3.821-18.84-10.621-25.64s-16.023-10.621-25.64-10.621h-529.121c-9.617 0-18.84 3.821-25.64 10.621s-10.621 16.023-10.621 25.64v146.633c0 9.617 3.821 18.841 10.621 25.641s16.023 10.62 25.64 10.62h529.121c9.617 0 18.84-3.82 25.64-10.62s10.621-16.024 10.621-25.641zm-109.175 120.869c-12.818 0-24.017-4.824-33.596-14.472-9.573-9.648-14.359-20.713-14.359-33.194 0-13.439 4.824-24.707 14.472-33.804 9.648-9.089 20.714-13.635 33.194-13.635 13.439 0 24.707 4.652 33.804 13.956 9.089 9.304 13.635 20.368 13.635 33.194 0 12.818-4.652 24.017-13.956 33.596-9.304 9.573-20.368 14.359-33.194 14.359zm-157.646 0c-13.439 0-24.707-4.824-33.804-14.472-9.09-9.648-13.635-20.713-13.635-33.194 0-13.439 4.582-24.707 13.749-33.804 9.166-9.089 20.471-13.635 33.917-13.635 13.439 0 24.707 4.652 33.804 13.956 9.089 9.304 13.635 20.368 13.635 33.194 0 12.818-4.583 24.017-13.749 33.596-9.166 9.573-20.471 14.359-33.917 14.359zm-32.869-301.728c-51.218 0-94.893-18.051-131.023-54.154-36.131-36.098-54.196-79.935-54.196-131.51 0-51.571 18.043-95.372 54.13-131.403 36.086-36.03 79.907-54.045 131.462-54.045 51.019 0 94.594 18.029 130.724 54.087 36.131 36.064 54.196 79.85 54.196 131.361 0 51.683-18.077 95.548-54.232 131.594-36.154 36.046-79.841 54.07-131.061 54.07zm.223-52.845c36.907 0 68.272-12.873 94.093-38.618 25.822-25.746 38.733-57.072 38.733-93.979s-12.873-68.372-38.619-94.393c-25.745-26.023-57.172-39.033-94.279-39.033s-68.572 12.973-94.393 38.919c-25.822 25.945-38.733 57.372-38.733 94.279s12.863 68.271 38.589 94.093c25.725 25.822 57.262 38.732 94.609 38.732zm55.361-108.691c4.804 5.213 7.206 11.269 7.206 18.171s-2.402 12.905-7.206 18.01c-4.804 5.104-10.701 7.656-17.691 7.656-6.986 0-13.099-2.603-18.34-7.807l-37.231-37.231c-2.802-2.346-4.804-5.146-6.005-8.401-1.201-3.259-1.801-6.864-1.801-10.815v-60.651c0-7.058 2.502-13.125 7.506-18.201 5.004-5.081 11.173-7.621 18.507-7.621 7.339 0 13.644 2.54 18.916 7.621 5.277 5.076 7.915 11.143 7.915 18.201v53.445z"/></svg>