<svg height="48" viewBox="0 -960 960 960" width="48" xmlns="http://www.w3.org/2000/svg"><path fill="rgb(255, 255, 255)" d="m189-242v53-582zm0 147q-39.8 0-66.9-27.1-27.1-27.1-27.1-66.9v-582q0-40.21 27.1-67.61 27.1-27.39 66.9-27.39h582q40.21 0 67.61 27.39 27.39 27.4 27.39 67.61v125h-95v-125h-582v582h582v-124h95v124q0 39.8-27.39 66.9-27.4 27.1-67.61 27.1zm351-198q-31.35 0-53.67-21.02-22.33-21.01-22.33-52.23v-225.75q0-29.94 22.33-51.97 22.32-22.03 53.67-22.03h292.95q30.58 0 52.81 22.03 22.24 22.03 22.24 51.97v226.25q0 30.01-22.24 51.38-22.23 21.37-52.81 21.37zm308-60v-253h-324v253zm-195.76-63q26.76 0 45.26-18.96 18.5-18.96 18.5-46.04 0-26.25-19-44.63-19-18.37-45-18.37t-45 18.37q-19 18.38-19 44.63 0 27.08 18.74 46.04 18.73 18.96 45.5 18.96z"/></svg>