<svg clip-rule="evenodd" fill-rule="evenodd" stroke-linejoin="round" stroke-miterlimit="2" viewBox="0 0 250 250" xmlns="http://www.w3.org/2000/svg"><path fill="rgb(255, 255, 255)" d="m36.791 24.525h176.419c19.007 0 34.331 15.306 34.331 34.314v132.323c0 19.007-15.324 34.314-34.331 34.314h-176.419c-19.008 0-34.332-15.307-34.332-34.314v-132.323c0-19.008 15.324-34.314 34.332-34.314zm185.888 70.626c-.018-5.56-4.535-10.059-10.095-10.059h-175.168c-5.559.017-10.077 4.499-10.094 10.077l-.313 95.993c0 5.42 4.361 9.764 9.782 9.764h176.419c5.42 0 9.781-4.344 9.781-9.764zm-90.364 78.202c0 10.147-8.253 18.382-18.382 18.382-10.164 0-18.4-8.235-18.4-18.382 0-10.164 8.236-18.399 18.4-18.399 10.129 0 18.382 8.235 18.382 18.399zm-9.695 0c0-4.795-3.892-8.705-8.687-8.705-4.813 0-8.705 3.91-8.705 8.705s3.892 8.705 8.705 8.705c4.795 0 8.687-3.91 8.687-8.705zm-30.874-47.206c8.531 0 15.446 6.915 15.446 15.428 0 8.531-6.915 15.446-15.446 15.446-8.496 0-15.428-6.915-15.428-15.446 0-8.513 6.932-15.428 15.428-15.428zm5.751 15.428c0-3.179-2.572-5.751-5.751-5.751-3.145 0-5.734 2.572-5.734 5.751 0 3.163 2.589 5.734 5.734 5.734 3.179 0 5.751-2.571 5.751-5.734zm20.032-30.561-.208 2.12c-.035.191-.07.382-.122.573l-.625 1.981c-.035.173-.122.347-.209.521l-.973 1.772c-.087.174-.191.33-.312.469l-1.286 1.547c-.122.156-.226.277-.382.382l-1.547 1.303c-.156.121-.295.226-.469.295l-1.789.973c-.157.087-.348.174-.504.226l-1.998.625c-.174.053-.382.07-.556.105l-2.12.208c-.208.035-.382.035-.591 0l-2.119-.208c-.174-.035-.365-.052-.556-.105l-1.998-.625c-.157-.052-.348-.139-.504-.226l-1.79-.973c-.173-.069-.312-.174-.469-.295l-1.546-1.303c-.139-.105-.261-.226-.382-.382l-1.286-1.547c-.122-.139-.226-.295-.313-.469l-.973-1.772c-.087-.174-.173-.348-.208-.521l-.626-1.981c-.052-.191-.087-.382-.104-.573l-.226-2.12c-.017-.191-.017-.382 0-.573l.226-2.12c.017-.191.052-.365.104-.556l.626-1.998c.035-.174.121-.348.208-.521l.973-1.772c.087-.174.191-.331.313-.47l1.286-1.546c.121-.139.243-.278.382-.399l1.546-1.269c.157-.139.296-.243.469-.313l1.79-.973c.156-.086.347-.173.504-.225l1.998-.626c.191-.052.382-.087.556-.104l2.119-.209c.209-.017.383-.017.591 0l2.12.209c.174.017.382.052.556.104l1.998.626c.156.052.347.139.504.225l1.789.973c.174.07.313.174.469.313l1.547 1.269c.156.121.26.26.382.399l1.286 1.546c.121.139.225.296.312.47l.973 1.772c.087.173.174.347.209.521l.625 1.998c.052.191.087.365.122.556l.208 2.12c.018.191.018.382 0 .573zm-9.677-.278c0-2.05-1.668-3.718-3.701-3.718-2.05 0-3.718 1.668-3.718 3.718s1.668 3.701 3.718 3.701c2.033 0 3.701-1.651 3.701-3.701zm38.119-13.291 25.123 25.123c3.44 3.423 3.44 9 0 12.423l-25.123 25.14c-3.44 3.423-8.982 3.423-12.44 0l-8.861-8.896c-3.44-3.422-3.44-8.982 0-12.422l9.33-9.313c.174-.191.296-.451.296-.712 0-.278-.122-.539-.296-.73l-9.33-9.312c-3.44-3.441-3.44-9 0-12.44l8.861-8.861c3.458-3.423 9-3.423 12.44 0zm-4.691 9.017c-.834-.851-2.207-.851-3.04 0l-4.553 4.535c-.834.851-.834 2.206 0 3.04l11.971 11.971c.747.747 1.147 1.737 1.147 2.78 0 1.042-.4 2.033-1.147 2.762l-11.971 11.971c-.834.834-.834 2.207 0 3.023l4.553 4.57c.833.816 2.206.816 3.04 0l20.554-20.571c.973-.973.973-2.554 0-3.527z"/></svg>