<svg height="48" viewBox="0 -960 960 960" width="48" xmlns="http://www.w3.org/2000/svg"><path fill="rgb(255, 255, 255)" d="m410-721h262q16.47 0 28.24 11.87 11.76 11.87 11.76 28.5 0 16.63-11.76 27.63-11.77 11-28.24 11h-262q-16.75 0-27.87-11.18-11.13-11.17-11.13-27.8 0-16.63 11.13-28.33 11.12-11.69 27.87-11.69zm0 139h262q16.47 0 28.24 11.87 11.76 11.87 11.76 28.5 0 16.63-11.76 28.13-11.77 11.5-28.24 11.5h-262q-16.75 0-27.87-11.87-11.13-11.87-11.13-28.5 0-16.63 11.13-28.13 11.12-11.5 27.87-11.5zm86 433h-307zm-262 94q-57.92 0-98.46-40.54-40.54-40.54-40.54-98.46v-121q0-19.75 13.63-33.38 13.62-13.62 33.37-13.62h74v-449q0-40.21 27.39-67.61 27.4-27.39 67.61-27.39h461q38.75 0 66.38 27.39 27.62 27.4 27.62 67.61v252q0 19.75-13.68 33.37-13.67 13.63-33.5 13.63-19.82 0-33.32-13.63-13.5-13.62-13.5-33.37v-252h-461v449h137q19.63 0 33.81 13.68 14.19 13.67 14.19 33.5 0 19.82-14.19 33.32-14.18 13.5-33.81 13.5h-259v73.5q0 19.34 13 32.42 13 13.08 31 13.08h215q19.63 0 33.81 13.68 14.19 13.67 14.19 33.5 0 19.82-14.19 33.32-14.18 13.5-33.81 13.5zm322-47v-78q0-8.57 3.5-16.57t10.5-15.43l210.61-210.77q11.24-11.77 24.98-17t28.41-5.23q14 0 28.05 6t24.95 17l37 37q10.82 11 16.41 24.67 5.59 13.66 5.59 27.33 0 15-6 29t-17.08 25.12l-209.92 210.88q-7.29 7-15.36 10t-16.64 3h-78q-19.75 0-33.37-13.63-13.63-13.62-13.63-33.37zm315-231-37-37zm-240 203h38l118-118.77-18-19.12-19-18.11-119 117.76zm138-138-19-18 37 37z"/></svg>