<svg height="800" viewBox="0 0 512 512" width="800" xmlns="http://www.w3.org/2000/svg"><path fill="rgb(255, 255, 255)" d="m295.611 78.355c-8.398 10.39-17.868 22.192-28.128 35.046-14.021 4.938-27.178 13.001-38.373 24.195l-10.378 10.377c-34.332 34.335-90.201 34.337-124.538 0-27.064-27.064-33.584-68.149-16.225-102.232 3.679-7.224 12.518-10.099 19.739-6.417 7.223 3.679 10.097 12.516 6.418 19.739-11.572 22.718-7.221 50.108 10.823 68.153 22.892 22.89 60.136 22.887 83.027 0l10.377-10.378c24.192-24.19 55.509-37.017 87.258-38.483zm177.061 335.94c3.678 7.223.805 16.061-6.419 19.738-12.716 6.477-26.413 9.629-39.986 9.63-22.806.002-45.274-8.891-62.238-25.857-16.634-16.632-25.794-38.747-25.794-62.268 0-23.523 9.16-45.637 25.793-62.27l10.378-10.378c21.998-21.998 31.912-51.571 29.749-80.399-106.952 85.902-335.185 263.821-347.343 273.296-2.666 2.078-5.849 3.1-9.018 3.1-3.776 0-7.535-1.451-10.382-4.299-5.239-5.237-5.752-13.558-1.199-19.4 11.999-15.395 294.135-377.319 317.435-400.616 28.612-28.612 75.169-28.612 103.781 0 28.612 28.613 28.612 75.168 0 103.781-3.189 3.191-12.74 11.243-26.87 22.781 9.585 42.726-2.21 89.325-35.398 122.512l-10.378 10.379c-11.088 11.088-17.194 25.831-17.194 41.513 0 15.681 6.106 30.424 17.194 41.512 18.044 18.042 45.429 22.394 68.15 10.826 7.22-3.677 16.06-.805 19.739 6.419zm-67.712-286.499 10.959-10.958c5.731-5.732 5.731-15.026 0-20.756-5.732-5.732-15.025-5.732-20.757 0l-41.513 41.512c-5.731 5.732-5.731 15.026 0 20.756 2.865 2.867 6.622 4.3 10.378 4.3 3.754 0 7.511-1.434 10.377-4.3l9.634-9.634c-2.903-3.877-6.109-7.598-9.633-11.121l-.001-.001 20.757-20.757v.001c3.508 3.508 6.768 7.171 9.799 10.958z"/></svg>