<svg height="48" viewBox="0 -960 960 960" width="48" xmlns="http://www.w3.org/2000/svg"><path fill="rgb(255, 255, 255)" d="m480.88-55q-55.46 0-94.17-38.04t-38.71-93.96q0-6 1-11.5t2-11.88l-80-44.62q-16.62 16-37.65 24.5-21.02 8.5-46.35 8.5-55.42 0-94.21-38.5-38.79-38.5-38.79-93.5t38.14-94q38.14-39 94.19-39 27.45 0 51.62 10.29 24.18 10.3 43.05 29.71l120-61q-2-22 4-43.5t20-38.5l-37.49-55q-8.91 3-16.93 3.5t-16.58.5q-55.42 0-94.21-38.5-38.79-38.5-38.79-93.5t38.71-94q38.7-39 94-39 55.29 0 93.79 38.79 38.5 38.79 38.5 94.21 0 22-7 41.5t-20 35.5l35.26 54q8.74-3 18.74-4.5 10-1.5 20-1.5 13.72 0 25.93 4 12.21 4 23.07 9l66-55q-4-9.65-5.5-19.82-1.5-10.18-1.5-21.46 0-55.55 38.06-94.14 38.06-38.58 93.5-38.58t94.44 38.71q39 38.7 39 94 0 55.29-38.79 93.29-38.79 38-94.21 38-19.68 0-37.92-5.26-18.24-5.27-33.08-15.74l-52 43q8 13.97 11.5 30.06 3.5 16.1 3.5 32.94 0 55-38.79 93.5t-94.21 38.5q-30 0-55.5-12t-43.5-33l-116 60q1 9.5.83 19-.16 9.5-2.83 19l78 43q17.45-15 40.23-24 22.77-9 47.77-9 55 0 93.5 38.81t38.5 94.25q0 55.02-38.53 93.48-38.54 38.46-93.59 38.46zm-293.53-254q18.79 0 31.72-13.28t12.93-32q0-18.72-12.91-32.22t-32-13.5q-19.09 0-32.59 13.48-13.5 13.48-13.5 32.5t13.78 32.02q13.78 13 32.57 13zm167-418q18.79 0 31.72-13.28t12.93-32q0-18.72-12.91-32.22t-32-13.5q-19.09 0-32.59 13.48-13.5 13.48-13.5 32.5t13.78 32.02q13.78 13 32.57 13zm125.93 585q18.72 0 32.22-13.28t13.5-32q0-18.72-13.48-32.22t-32.5-13.5q-19.02 0-32.02 13.48-13 13.48-13 32.5t13.28 32.02q13.28 13 32 13zm52-328q18.72 0 32.22-13.28t13.5-32q0-18.72-13.48-32.22t-32.5-13.5q-19.02 0-32.02 13.48-13 13.48-13 32.5t13.28 32.02q13.28 13 32 13zm241.07-217q18.79 0 31.72-12.71t12.93-31.5q0-18.79-12.91-32.29t-32-13.5q-19.09 0-32.59 13.48-13.5 13.48-13.5 32.57t13.78 31.52q13.78 12.43 32.57 12.43z"/></svg>