<svg height="48" viewBox="0 0 48 48.000001" width="48" xmlns="http://www.w3.org/2000/svg"><path fill="rgb(255, 255, 255)" d="m36.457 2.998c1.095 0 2.187.535 2.91 1.302.65.779 1.071 1.882 1.071 2.948 0 .683-.164 1.527-.442 2.364-.246.739-.56 1.971-.9 2.604l-.14.261-.207.095c-.299.137-.897.185-1.309.093-.204-.123-.542-.409-.64-.64-.087-.207-.094-.568-.072-.76l.006-.057.027-.072c.147-.399.196-1.259.164-1.725.008-.369-.065-.492-.287-.867-.157-.309-.4-.492-.84-.693-.387-.239-.804-.313-1.498-.313-.986 0-1.713.146-2.402.514-.695.338-1.233.741-1.786 1.614-.622.891-1.181 2.074-1.736 3.664-.569 1.612-1.144 3.624-1.743 6.056-1.038 4.015-2.082 6.222-3.554 8.365.881.314 1.338.472 2.722.874 1.368.364 2.815.533 4.484.533 1.319 0 2.104-.192 2.703-.616.576-.408.804-.814 1.28-1.778l.13-.263.192-.112c.172-.1.513-.241.736-.241.246 0 .437.105.636.214.219.173.484.41.567.644.07.199.073.531.052.72l-.012.101-.058.133c-.721 1.629-1.557 2.93-2.841 3.923-1.313.896-3.142 1.415-5.2 1.415-1.776 0-3.52-.283-5.021-.806-1.392-.534-2.413-.949-3.587-1.46-2.257 1.69-4.644 2.266-7.844 2.266-1.265 0-2.432-.315-3.18-.792-.717-.577-1.276-1.491-1.276-2.348 0-.472.239-1.567.559-2.185.34-.497.852-1.034 1.393-1.471.541-.406 1.237-.804 1.966-1.095.795-.299 1.739-.459 2.653-.459 1.138 0 2.264.162 3.342.478 1.205.325 1.721.707 2.483 1.079.467-.788.48-.955.926-2.138.45-1.201.895-2.664 1.35-4.423.675-2.559 1.494-4.89 2.434-6.924.947-2.07 2.038-3.88 3.2-5.317 1.211-1.461 2.573-2.637 3.946-3.433 1.441-.808 3.073-1.272 4.643-1.272zm-24.222 25.4c-.553 0-.748.042-.927.165-.127.086-.061-.041-.061.195 0 .409.041.85.462.972.511.317 1.172.428 2.251.428.982 0 1.783-.082 2.523-.271.724-.193.045.359.609-.215-.585-.332-.715-.514-1.666-.792-1.008-.34-2.026-.482-3.191-.482zm23.056 10.33c0 .919-.454 1.94-1.046 2.533-.591.593-1.612 1.047-2.527 1.047s-1.935-.454-2.527-1.047c-.591-.593-1.045-1.614-1.045-2.533 0-.914.455-1.934 1.046-2.525.592-.591 1.611-1.045 2.526-1.045s1.935.454 2.526 1.045c.592.591 1.047 1.611 1.047 2.525zm-7.718 2.58c0 .914-.455 1.934-1.047 2.525-.591.591-1.611 1.045-2.526 1.045s-1.935-.454-2.526-1.045c-.592-.591-1.047-1.611-1.047-2.525s.454-1.935 1.045-2.528c.591-.594 1.612-1.052 2.528-1.052.917 0 1.937.458 2.528 1.052.591.593 1.045 1.614 1.045 2.528zm-7.719-2.58c0 .919-.454 1.94-1.045 2.533-.592.593-1.612 1.047-2.527 1.047s-1.936-.454-2.527-1.047c-.592-.593-1.046-1.614-1.046-2.533 0-.914.455-1.934 1.047-2.525.591-.591 1.611-1.045 2.526-1.045s1.934.454 2.526 1.045c.591.591 1.046 1.611 1.046 2.525z" stroke-width="2"/></svg>