<svg height="48" viewBox="0 -960 960 960" width="48" xmlns="http://www.w3.org/2000/svg"><path fill="rgb(255, 255, 255)" d="m55-206v-365q0-28.75 19.46-48.88 19.46-20.12 49.54-20.12h33v-115q0-29.58 20.63-50.29 20.62-20.71 50.37-20.71h137q29.58 0 50.29 20.71t20.71 50.29v115h89v-115q0-29.58 20.63-50.29 20.62-20.71 50.37-20.71h137q29.58 0 50.29 20.71t20.71 50.29v115h33q28.75 0 48.88 20.12 20.12 20.13 20.12 48.88v365q0 29.75-20.71 50.37-20.71 20.63-50.29 20.63h-709q-29.75 0-50.37-20.63-20.63-20.62-20.63-50.37zm94-23h662v-317h-662zm102-411h90v-91h-90zm368 0h90v-91h-90zm-470 411h662zm102-411h90zm368 0h90z"/></svg>