<svg height="48" viewBox="0 -960 960 960" width="48" xmlns="http://www.w3.org/2000/svg"><path fill="rgb(255, 255, 255)" d="m229-55c-26.033 0-48.207-9.157-66.52-27.47-18.32-18.32-27.48-40.497-27.48-66.53v-662c0-26.307 9.16-48.717 27.48-67.23 18.313-18.513 40.487-27.77 66.52-27.77h323c13.04 0 25.467 2.667 37.28 8s22.053 12.333 30.72 21l177 177c8.667 8.667 15.667 18.907 21 30.72s8 24.24 8 37.28v483c0 26.033-9.257 48.21-27.77 66.53-18.513 18.313-40.923 27.47-67.23 27.47zm313-617v-139h-313v662h502v-476h-142c-13.167 0-24.29-4.543-33.37-13.63-9.087-9.08-13.63-20.203-13.63-33.37zm-81.514 466.59c-11.893-.21-23.064-4.71-31.423-12.76-7.997-8.33-12.539-19.52-12.757-31.43v-24.11c.215-6.35 2.892-13.01 7.187-17.76 4.626-4.45 11.254-7.52 17.727-7.52 6.46 0 13.113 3.04 17.831 7.45 4.43 4.76 7.194 11.45 7.421 17.83v18.13h149.247v-149.24h-18.138c-6.635-.2-13.371-2.86-18.08-7.25-4.295-4.67-7.203-11.28-7.203-17.72s2.938-12.99 7.248-17.59c4.643-4.27 11.356-6.99 18.035-7.21h24.124c11.53.23 22.548 4.81 30.92 12.85 8.044 8.37 12.627 19.4 12.857 30.93v161.21c-.222 11.92-4.813 23.12-12.87 31.44-8.391 8.04-19.399 12.53-30.907 12.75zm-41.403-118.76c-34.185 0-64.33-12.59-88.308-36.25-23.657-23.97-36.257-54.15-36.257-88.32 0-34.2 12.613-64.3 36.281-88.35 24.002-23.66 54.148-36.25 88.331-36.25 34.184 0 64.324 12.6 88.312 36.35 23.646 23.96 36.252 54.13 36.252 88.32s-12.616 64.29-36.282 88.26c-24.001 23.65-54.155 36.24-88.329 36.24zm-.154-50.15c21.196 0 38.177-6.72 53.038-21.6 15.168-14.63 21.964-31.47 21.964-52.58 0-21.22-6.776-38.16-21.869-53.04-14.759-15.18-31.669-22.04-52.842-22.04-21.176 0-38.053 6.78-52.76 21.88-15.034 14.8-21.777 31.66-21.777 52.86 0 21.15 6.862 37.93 21.636 52.8 14.767 14.86 31.429 21.72 52.61 21.72z"/></svg>