<svg height="800" viewBox="0 0 192 192" width="800" xmlns="http://www.w3.org/2000/svg"><path fill="rgb(255, 255, 255)" d="m179.108 105.265c1.223 2.133 1.658 4.629 1.229 7.051-1.589 7.055-5.836 14.868-10.81 19.489-4.961 4.609-12.832 8.286-19.651 9.61-4.109.646-8.212-1.195-10.462-4.694-9.026-14.636-23.814-25.379-39.101-35.936-5.606-4.705-16.584-15.899-16.584-15.899.102.083 0 0 0 0-4.443-3.727-5.023-10.35-1.297-14.793 3.727-4.443 10.35-5.023 14.793-1.297 0 0-.102-.083 0 0 0 0 10.344 10.588 16.226 15.597 15.439 10.693 27.708 20.247 38.855 34.398.956-.624.122.235 2.928-2.371 2.792-2.595 2.931-2.725 3.618-4.266l-36.873-64.332c-1.473-2.287-2.062-5.141-1.414-8.004 0 0 .167-.739.443-1.959-1.896 1.137 1.43-1.24-5.79 3.792-1.93 1.332-4.25 1.979-6.59 1.839-8.366-.548-15.076-2.149-21.033-.951-13.704.787-25.798 6.544-35.993 15.872-10.186 9.32-16.728 19.93-18.28 33.433-2.55 12.566-.068 24.264 6.021 35.717 6.094 11.463 14.275 20.072 26.079 25.357 17.974 9.849 38.628 9.398 56.595-.363 5.165-2.638 11.49-.589 14.127 4.575 2.638 5.165.589 11.49-4.575 14.127-22.503 10.907-52.372 11.485-75.336.541-14.654-7.36-27.901-20.211-35.433-34.379-7.536-14.176-10.71-32.38-8.241-48.703 2.883-17.211 12.343-34.339 24.867-45.798 12.514-11.45 29.779-19.411 47.075-21.149 9.555-1.112 15.638-.014 21.978.518 7.884-4.903 16.284-9.07 27.695-10.719 3.379-.384 6.736.892 9.006 3.425 2.27 2.532 3.173 6.007 2.422 9.325-.988 4.371-2.629 11.62-3.648 16.124z"/></svg>