<svg height="48" width="48" xmlns="http://www.w3.org/2000/svg"><path fill="rgb(255, 255, 255)" d="m44.418 22.928c.049.344.082.713.082 1.072s-.033.728-.082 1.072c-.036.246-.247.428-.495.428h-9.936c-2.108 2.791-7.571 8.5-16.987 8.5.419-1.255.773-2.411 1.061-3.5h-13.15c-.219 0-.412-.142-.477-.351-.208-.665-.019-2.35.076-2.466s.237-.183.387-.183h13.815c.391-2.408.391-4.592 0-7h-13.915c-.15 0-.292-.067-.387-.183s-.184-1.801.024-2.466c.065-.209.258-.351.477-.351h13.15c-.288-1.089-.642-2.245-1.061-3.5 9.416 0 14.879 5.709 16.987 8.5h9.936c.248 0 .459.182.495.428z"/></svg>