<svg xmlns="http://www.w3.org/2000/svg"><path fill="rgb(255, 255, 255)" d="m83.012 0c45.816 0 83.013 37.197 83.013 83.013 0 45.815-37.197 83.012-83.013 83.012-45.815 0-83.012-37.197-83.012-83.012 0-45.816 37.197-83.013 83.012-83.013zm-65.907 106.898c4.082.789 9.049 1.4 12.413 1.481 3.075.075 6.204-.026 8.192-.234-3.633-6.532-5.897-13.93-6.397-21.804l-2.301-1.675c-2.933-2.136-7.562-6.36-10.286-9.387-1.364-1.516-2.982-3.638-4.488-5.836-.863 4.39-1.315 8.927-1.315 13.57 0 8.385 1.476 16.429 4.182 23.885zm12.278-68.993c1.358 3.924 3.306 8.515 4.914 11.464 1.473 2.7 3.126 5.362 4.3 6.979 3.954-6.566 9.323-12.187 15.682-16.438l.301-2.836c.383-3.608 1.727-9.729 2.987-13.603.63-1.939 1.661-4.403 2.812-6.806-12.189 4.161-22.87 11.59-30.996 21.24zm65.895-23.91c-2.724 3.141-5.734 7.134-7.487 10.007-1.602 2.626-3.08 5.387-3.894 7.213 7.92.133 15.41 2.047 22.086 5.358l2.597-1.153c3.316-1.472 9.29-3.369 13.273-4.215 1.987-.421 4.62-.76 7.265-.965-9.404-8.225-21.023-13.979-33.84-16.245zm53.642 45.131c-4.083-.787-9.049-1.398-12.414-1.481-3.074-.074-6.203.026-8.192.235 3.634 6.532 5.898 13.93 6.398 21.804l2.3 1.675c2.934 2.136 7.563 6.36 10.287 9.387 1.364 1.516 2.982 3.639 4.488 5.836.862-4.391 1.315-8.928 1.315-13.569 0-8.386-1.476-16.431-4.182-23.887zm-12.278 68.994c-1.358-3.924-3.306-8.516-4.914-11.464-1.473-2.7-3.126-5.362-4.301-6.979-3.953 6.567-9.322 12.187-15.681 16.437l-.301 2.837c-.383 3.608-1.727 9.729-2.987 13.602-.63 1.94-1.661 4.403-2.812 6.808 12.189-4.163 22.87-11.592 30.996-21.241zm-65.895 23.91c2.723-3.141 5.734-7.135 7.487-10.007 1.601-2.625 3.08-5.388 3.894-7.213-7.92-.133-15.41-2.047-22.086-5.359l-2.597 1.153c-3.317 1.473-9.29 3.37-13.273 4.215-1.987.422-4.62.76-7.265.966 9.404 8.225 21.023 13.979 33.84 16.245zm12.265-107.871c-21.444 0-38.853 17.41-38.853 38.854 0 21.443 17.409 38.853 38.853 38.853s38.854-17.41 38.854-38.853c0-21.444-17.41-38.854-38.854-38.854zm-13.333 38.854c0-19.224.105-20.001 2.713-20.001 1.491 0 9.591 3.951 17.999 8.779 10.742 6.167 15.288 9.504 15.288 11.222 0 1.717-4.546 5.053-15.288 11.222-8.408 4.827-16.508 8.777-17.999 8.777-2.608 0-2.713-.776-2.713-19.999z"/></svg>