<svg viewBox="0 0 1000 1000" xmlns="http://www.w3.org/2000/svg"><path fill="rgb(255, 255, 255)" d="m454.238 535.606v91.567h-46.975c-4.942 0-9.684-1.964-13.18-5.459-3.496-3.496-5.459-8.238-5.459-13.18v-.003c0-4.943-1.965-9.684-5.461-13.181-3.496-3.495-8.236-5.459-13.181-5.459-26.22 0-74.16 0-104.345 0-7.203 0-14.111 2.861-19.204 7.955-5.093 5.093-7.955 12.001-7.955 19.204v4.762c0 5.604 2.227 10.981 6.19 14.944 3.963 3.962 9.338 6.189 14.944 6.189h.001c5.605 0 10.981 2.227 14.943 6.19 3.963 3.963 6.19 9.338 6.19 14.944v12.191c0 16.089 13.042 29.13 29.129 29.13h5.575c5.352 0 10.488 2.127 14.273 5.913 3.786 3.785 5.913 8.921 5.913 14.273v.003c0 5.353 2.127 10.489 5.912 14.275 3.786 3.785 8.92 5.911 14.275 5.911h98.415v87.739h-272.686c-41.058 0-74.343-33.285-74.343-74.343v-.001h-.001c-27.555 0-53.981-10.946-73.467-30.43-19.483-19.485-30.43-45.912-30.43-73.466v-192.803c0-41.689 33.796-75.484 75.484-75.484h31.643c19.896 0 38.978 7.904 53.047 21.973 14.069 14.068 21.972 33.149 21.972 53.045v.002h86.642c40.647 0 73.597 32.951 73.597 73.597v.002zm460.451-41.555-.012 41.555h-79.488v223.564h-78.227v74.344h-201.864v-87.739h41.996v-118.602h-41.996v-388.038l39.063-2.017v-71.085h242.289v71.085h78.227v47.807h-191.02v209.126zm-.012-177.082v66.871h82.012v78.167h-243.051v-145.038zm-237.894-5.082h-79.122v79.122h79.122zm-172.116-223.839c10.796 0 19.546 8.751 19.546 19.545v784.815c0 10.794-8.75 19.545-19.546 19.545 0 0 0 0-.001 0-10.794 0-19.545-8.751-19.545-19.545 0-112.14 0-672.675 0-784.815 0-10.794 8.751-19.545 19.545-19.545z"/></svg>