<svg height="48" width="48" xmlns="http://www.w3.org/2000/svg"><path fill="rgb(255, 255, 255)" d="m45 24c0 5.727-2.405 11.104-6.151 14.849-3.745 3.746-9.122 6.151-14.849 6.151s-11.104-2.405-14.849-6.151c-3.746-3.745-6.151-9.122-6.151-14.849s2.405-11.104 6.151-14.849c3.745-3.746 9.122-6.151 14.849-6.151 4.081 0 7.411 1.053 10.476 2.801.94-.952 1.933-1.612 3.657-1.789.173-.011.372-.015.548-.009 1.323.08 2.702.654 3.598 1.5.895.847 1.548 2.236 1.702 3.552l.019.445c-.07 1.854-.772 2.997-1.803 4.021 1.746 3.066 2.803 6.397 2.803 10.479zm-33.728-12.728c-3.312 3.313-5.272 7.686-5.272 12.728s1.96 9.415 5.272 12.728c3.313 3.312 7.686 5.272 12.728 5.272s9.415-1.96 12.728-5.272c3.312-3.313 5.272-7.686 5.272-12.728 0-3.628-.86-6.414-2.464-9.104-.303.058-.344.089-.914.102-1.423.032-2.92-.585-3.879-1.481-.958-.896-1.632-2.35-1.738-3.771-.021-.695.025-.86.102-1.281-2.69-1.604-5.479-2.465-9.107-2.465-5.042 0-9.415 1.96-12.728 5.272zm26.298 11.512.056 1.216c0 7.408-5.918 13.46-13.324 13.623-7.404.165-13.584-5.615-13.915-13.014-.332-7.4 5.31-13.708 12.7-14.205.453-.03.908-.039 1.363-.022 6.878.226 12.508 5.548 13.12 12.402zm-8.847-7.859c-2.219.149-3.912 2.042-3.813 4.261.101 2.22 1.955 3.954 4.176 3.904 2.221-.048 3.997-1.864 3.997-4.086l-.016-.363c-.184-2.058-1.873-3.655-3.937-3.723-.135-.004-.272-.001-.407.007z"/></svg>