<svg xmlns="http://www.w3.org/2000/svg"><path fill="rgb(255, 255, 255)" d="m476.749 305.663c5.054-4.466 12.544-4.787 17.962-.771 5.419 4.017 7.288 11.277 4.483 17.411-15.491 34.283-48.951 66.397-119.994 66.397-73.3 0-132.7-59.4-132.7-132.7 0-10.581 1.238-20.873 3.577-30.738-98.73 28.822-131.975 115.525-207.814 150.64-5.505 2.519-12.019.918-15.73-3.865-3.71-4.783-3.641-11.491.168-16.197 53.295-69.665 144.565-195.304 298.822-225.152 5.343-1.048 10.735 1.565 13.223 6.408s1.472 10.747-2.491 14.481c-23.585 22.139-36.568 54.904-32.155 89.423 7.3 57.1 59.7 97.4 116.8 90.1 21.326-2.768 40.593-11.898 55.849-25.437z" transform="translate(0 -123.3)"/></svg>