<svg clip-rule="evenodd" fill-rule="evenodd" stroke-linejoin="round" stroke-miterlimit="2" viewBox="0 0 24 24" xmlns="http://www.w3.org/2000/svg"><path fill="rgb(255, 255, 255)" d="m10.365 20.835c.452.453.965.684 1.605.665h.06c.64.019 1.153-.212 1.605-.665.453-.452.684-.965.665-1.605v-7.26c.019-.639-.2-1.166-.665-1.605-.439-.465-.966-.684-1.605-.665h-.06c-.639-.019-1.166.2-1.605.665-.465.439-.684.966-.665 1.605v7.26c-.019.64.212 1.153.665 1.605zm-7.046-17.516c-.534.533-.841 1.168-.819 1.976v13.935c-.022.663.227 1.167.665 1.605s.942.687 1.605.665h.06c.663.022 1.167-.227 1.605-.665s.687-.942.665-1.605v-9.251c.019-.727.33-1.522.843-2.036.514-.513 1.309-.824 2.036-.843h2.052c.662.022 1.166-.227 1.604-.665s.687-.942.665-1.605v-.06c.019-.639-.2-1.166-.665-1.605-.439-.465-.966-.684-1.605-.665h-6.735c-.808-.022-1.443.285-1.976.819zm14.246-.154c-.438.438-.687.942-.665 1.605v14.46c-.022.663.227 1.167.665 1.605s.942.687 1.605.665h.06c.663.022 1.167-.227 1.605-.665s.687-.942.665-1.605v-14.46c.022-.663-.227-1.167-.665-1.605s-.942-.687-1.605-.665h-.06c-.663-.022-1.167.227-1.605.665z"/></svg>