<svg height="48" width="48" xmlns="http://www.w3.org/2000/svg"><path fill="rgb(255, 255, 255)" d="m7 44v-21.977l15.159 15.159c.209-.383.437-.792.685-1.227.006-.01.012-.021.018-.031.085-1.165.792-3.81.792-3.81l.581-.699.261-1.655 1.036-1.716.439 2.577c.169-.281.338-.56.507-.837l-.104-3.075s2.462-4.958 5.441-9.217c2.979-4.258 3.95-5.402 3.95-5.402l1.426 1.62c.012-.016.024-.032.036-.049l-1.138-1.953 1.686-2.098 1.036 1.857c.146-.215.291-.429.429-.629l-.366-2.944s2.462-2.607 4.794-3.751l2.33-1.143s.001.029.001.081c.002.231.002.917-.072 1.54-.092.764-.138 1.348-.138 1.348l-3.747 2.193c-.203.27-.409.545-.616.821l4.179-2.34v.001l.001-.001s-.412 1.911-.618 2.742c-.206.832-.229 1.236-.229 1.236s-2.863.405-3.801.697c-.353.11-.756.264-1.121.413-.235.097-.455.191-.636.271-.083.114-.165.227-.246.341.433.103 1.336.306 2.277.436 1.306.179 2.768.221 2.768.221s-2.178 4.238-3.02 5.922c-.842 1.685-1.394 2.734-1.394 2.734l-7.664 1.2c-.243.384-.482.763-.716 1.137.561-.012 2.094-.018 3.794.007 2.137.032 3.129.041 3.129.041s-4.113 4.513-6.185 5.975c-1.959 1.382-5.292 2.251-5.662 2.345-.05.084-.103.171-.155.256-.027.046-.055.092-.082.137.044.011 1.508.373 2.369.217.874-.159 1.652-.7 1.652-.7l-.002.002c.001-.001.002-.001.002-.001l-.503.636-.502.637s-.696.376-1.781.317c-.174-.009-.357-.03-.549-.065-.156-.029-.293-.056-.414-.082-.329-.072-.547-.136-.739-.195-.02.033-.041.068-.063.103-.037.062-.075.126-.109.182l2.199.439-1.976.635-.015.098-.113.758s-.927.486-1.682.707c-.318.552-.608 1.06-.873 1.527l6.031 6.031zm14.014-31.014c0-.005 0-.01 0-.014v-3.986c0-.553.448-1 1-1 .284 0 .284 0 0 0h3.964c-.448 0 .96.016.96 1 0 .843-.861.981-1.022 1h-2.902v2h3c.553 0 1 .447 1 1 0 .552-.447 1-1 1h-3v3c0 .552-.447 1-1 1-.552 0-1-.448-1-1 0-.005 0-3.996 0-4zm4.902-3h.098c-.13 0-.148.006-.098 0zm-9.311 5.728c.41-.187.674-.377.95-.804.302-.467.485-.978.459-1.915.019-.985-.169-1.523-.473-1.998-.276-.431-.529-.61-.931-.785-.213-.092-.421-.151-.61-.188v5.888c.212-.05.421-.115.605-.198zm.803-7.336c.596.259 1.342.798 1.818 1.541.447.699.762 1.793.788 3.07-.019 1.238-.332 2.315-.779 3.007-.472.729-1.209 1.268-1.801 1.538-1.226.558-2.005.368-2.005.368-.251.043-.569.116-.821.004-.358-.153-.608-.507-.608-.92v-8c0-.553.448-1 1-1 .017 0 .034 0 .051.001.387-.023 1.389-.03 2.357.391zm-6.394 3.608c0-.313 0-.384 0-1 0-.416 0-.733 0-1-.203 0-.539.02-.908.025-.387.005-.765.003-1.092-.001v1.976zm-3.999-3.04c.022-.552.487-.981 1.039-.96 0 0 .973.04 2.026.025.323-.004.672-.025.934-.025.5 0 1.207.043 1.582.418s.418 1.082.418 1.582v1 1c0 .5-.043 1.207-.418 1.582s-1.082.418-1.582.418c-.265 0-.576 0-1 0h-1v3c0 .552-.447 1-1 1-.552 0-1-.448-1-1 0-.005 0-3.996 0-4 0-.005 0-.01 0-.014v-3.97c0-.019 0-.037.001-.056z"/></svg>