<svg height="48" width="48" xmlns="http://www.w3.org/2000/svg"><path fill="rgb(255, 255, 255)" d="m20.177 11.032 3.909-6.12c.094-.148.259-.235.434-.231.176.005.336.101.422.254l3.496 6.175 7.044-2.69c.161-.062.342-.036.479.068.138.104.212.271.197.443l-.628 7.178 6.991 1.312c.177.033.322.158.38.327.059.17.023.358-.096.493l-4.95 5.663 5.158 5.949c.121.14.155.336.088.509-.067.172-.224.294-.408.316l-7.3.858.158 7.377c.004.177-.086.342-.236.436-.15.093-.338.1-.495.019l-6.582-3.428-3.721 6.767c-.088.16-.256.259-.439.259s-.351-.101-.438-.261l-3.724-6.849-7.193 3.651c-.167.085-.369.069-.521-.042s-.229-.298-.199-.484l1.274-7.886-8.095-1.245c-.19-.029-.346-.164-.402-.348s-.002-.384.139-.514l6.065-5.582-5.131-5.138c-.132-.132-.179-.326-.123-.504.057-.178.207-.309.391-.342l7.132-1.245-.786-7.498c-.019-.175.056-.346.197-.452.14-.105.326-.129.489-.063zm-10.797 7.888 3.326 3.329 3.493-1.347-2.25-2.78zm1.025 7.785 2.408-.744 1.858-2.288-1.671.644zm4.089 9.62 4.817-2.444-.051-3.558-3.923.783zm12.332-2.042.127-1.804-1.778 2.506-.028 2.351zm-5.502-1.903.027 1.856 1.76 3.236.029-2.499zm12.137 3.985-.107-4.954-4.204-1.167-.263 3.74zm-9.272-10.87-2.676 3.606 2.653 3.789 2.785-3.924zm11.723-.725-2.213-.795 1.844 2.331 2.579 1.014zm-10.027-.413 2.72 3.42 4.548-1.21-2.827-3.576zm8.552 5.242 3.018-.355-2.603-1.023-2.747.731zm-16.248-7.031-3.057 3.766 4.746 1.556 2.674-3.605zm-7.263 6.106 3.501.539 1.834-.366-2.861-.937zm28.578-9.748-4.643-.872-2.513 3.272 3.849 1.383zm-5.716-6.266-2.003 2.27-.042 3.843 1.705-2.219zm-15.085 3.554.16 4.432 4.262 1.677-.053-4.38zm10.98 4.845.055-5.003-4.631 1.875.056 4.52zm-1.078-7.833-1.295 1.618 2.858-1.157 1.408-1.596zm-13.649-.33.39 3.715 1.398 1.727-.118-3.279zm9.471-4.739-2.624 4.112 2.328 3.288 2.628-3.282zm-7.741 3.65 1.578 2.045 3.01 1.191-1.357-1.916z"/></svg>