<svg height="48" width="48" xmlns="http://www.w3.org/2000/svg"><path fill="rgb(255, 255, 255)" d="m20.412 8.556c.567 0 1.231.171 1.6.447.371.278.586.89.617 1.421h15.314l.437 7.155h-2.733l-.136-.832c-.24-1.467-.469-2.055-1.024-2.471-.58-.433-1.402-.562-3.15-.556h-3.533l4.516 7.368-5.87 7.994h6.429c1.767.003 2.657-.101 3.31-.461.608-.335.902-.795 1.363-1.977l.246-.63h2.843l-2.297 7.693h-16.066s-.003-.402-.056-.101c-.3 1.581-1.159 3.278-2.349 4.584-1.407 1.45-3.009 2.288-4.726 2.288-.921 0-1.878-.289-2.43-.723-.599-.472-.932-1.452-.87-2.264.124-.562.464-1.206.867-1.546.402-.339 1.1-.599 1.671-.599.345 0 .739.051 1.475.145.552.118 1.052.168 1.159.168.401 0 .602-.082.903-.343.302-.263.455-.46.488-.881.11-.392.039-.477-.153-.689s-.284-.292-.689-.224c-1.521.063-2.241.094-2.833.094-2.014 0-3.429-.256-4.535-.81-1.021-.592-1.938-1.646-2.387-2.79-.442-1.124-.57-2.586-.345-3.958.341-1.971 1.507-4.164 2.965-5.606.702-.656 1.028-.905 1.778-1.432-1.116-1.298-.913-1.821-.744-3.255.255-1.202.517-1.533 1.007-2.219-.269-.178-.271-.058-.682-.578-.437-.554-.579-1.45-.485-2.203.191-.84.773-1.769 1.454-2.305.676-.531 1.711-.938 2.609-.938.219 0 .526.038.805.068l1.054.114-.365 2.172c1.404-.887 2.526-1.32 3.548-1.32zm-.436 4.885c-1.079.478-2.232.683-3.75.766-1.056.703-1.528 1.225-1.583 1.962-.207.697-.105.786.535 1.302 2.431-.99 3.289-1.176 4.664-1.176.791 0 1.583.151 2.068.417.283.155.624.475.775.755.157.29.207.788.173 1.128-.24.821-.982 1.67-1.897 2.043-.847.344-2.071.54-3.403.54-1.058 0-1.603-.094-2.359-.326-2.527 1.341-3.817 2.725-4.078 4.7-.14.663-.055 1.136.179 1.65.227.5.447.781.913.97.392.205 1.217.283 2.522.279h2.76c1.539.012 2.561.295 3.416.969.73.668.448.465.632.738l5.57-7.619-6.025-9.801c-.342.272-.72.512-1.112.703z"/></svg>