<svg viewBox="0 0 24 24" xmlns="http://www.w3.org/2000/svg"><path fill="rgb(255, 255, 255)" d="m7 13.06 1.18 2.22h1.79l-1.97-3.22 1.93-3.17h-1.71l-1.09 2.01-.04.06-.03.07c-.173-.353-.36-.71-.56-1.07-.167-.353-.343-.71-.53-1.07h-1.81l1.89 3.19-2.05 3.2h1.78zm14.17-10.31c.318.02.694.18.944.396.214.242.367.612.386.934v15.84c-.019.322-.179.699-.393.94-.25.217-.619.37-.937.39h-13.34c-.318-.02-.694-.18-.944-.396-.214-.242-.367-.612-.386-.934v-2.42h-3.67c-.314-.018-.709-.193-.957-.401-.208-.249-.355-.615-.373-.929v-8.34c.018-.314.193-.709.401-.957.249-.208.615-.355.929-.373h3.67v-2.42c.019-.322.179-.699.393-.94.25-.217.619-.37.937-.39zm-7.79 16.25v-1.5h-4.63v1.5zm0-3.75v-2.12h-.88v2.12zm0-4.37v-2.13h-.88v2.13zm0-4.38v-1.5h-4.63v1.5zm6.87 12.5v-1.5h-4.62v1.5zm0-3.75v-2.12h-4.62v2.12zm0-4.37v-2.13h-4.62v2.13zm0-4.38v-1.5h-4.62v1.5z" stroke-linecap="round" stroke-linejoin="round"/></svg>