<svg viewBox="0 0 24 24" xmlns="http://www.w3.org/2000/svg"><path fill="rgb(255, 255, 255)" d="m10.409 11.117 5.566-4.212c.337-.255.79-.296 1.168-.108.378.187.617.574.617.996v8.424c0 .422-.239.809-.617.997s-.831.146-1.168-.109l-5.566-4.212c-.278-.21-.442-.539-.442-.888 0-.348.164-.677.442-.888zm5.125 2.862v-3.947l-2.608 1.973zm-13.411-3.754c-.254-.332-.509-.893-.516-1.271-.006-.38.229-.95.473-1.292.025-.029.052-.057.08-.083l1.125-1.04c.269-.19.771-.419 1.119-.437.321-.017.898.166 1.275.379l2.434 1.858 6.633-6.065c.287-.249.811-.546 1.241-.599.396-.048.961.062 1.418.271l3.793 1.814c.44.277 1.032 1.064 1.201 2.029v12.525c-.095.682-.709 1.598-1.19 1.933l-4.143 1.975c-.352.101-.878.145-1.184.088-.311-.058-.752-.263-1.033-.482l-6.753-6.147-2.463 1.882c-.369.205-.908.364-1.23.349-.354-.015-.851-.244-1.126-.447l-1.16-1.067c-.279-.37-.536-.99-.515-1.389.02-.392.344-.998.616-1.326l1.866-1.68zm2.416-1.813-.549.509 2.503 2.259c.234.211.366.512.366.826 0 .316-.134.616-.368.827l-2.51 2.258.557.509 2.944-2.252c.428-.328 1.028-.302 1.426.061l7.373 6.711c.002 0 .004 0 .006.001.004 0 .008.001.011.002l3.875-1.849v-12.485c.036-.036-3.844-1.979-3.852-1.94l-7.393 6.761c-.398.363-.998.39-1.427.063z"/></svg>