<svg viewBox="0 0 24 24" xmlns="http://www.w3.org/2000/svg"><path fill="rgb(255, 255, 255)" d="m7.03 11.34 1.2 3.94h1.37l1.31-6.56h-1.38l-.78 3.88-1.11-3.75h-1.14l-1.19 3.77-.78-3.9h-1.44l1.31 6.56h1.37zm14.14-8.59c.318.02.694.18.944.396.214.242.367.612.386.934v15.84c-.019.322-.179.699-.393.94-.25.217-.619.37-.937.39h-13.34c-.318-.02-.694-.18-.944-.396-.214-.242-.367-.612-.386-.934v-2.42h-3.67c-.314-.018-.709-.193-.957-.401-.208-.249-.355-.615-.373-.929v-8.34c.018-.314.193-.709.401-.957.249-.208.615-.355.929-.373h3.67v-2.42c.019-.322.179-.699.393-.94.25-.217.619-.37.937-.39zm-.92 16.25v-1.5h-11.5v1.5zm0-3.75v-2.12h-7.75v2.12zm0-4.37v-2.13h-7.75v2.13zm0-4.38v-1.5h-11.5v1.5z" stroke-linecap="round" stroke-linejoin="round"/></svg>