<svg viewBox="0 0 24 24" xmlns="http://www.w3.org/2000/svg"><path fill="rgb(255, 255, 255)" d="m5.8 11.17 2.36 4.1h1.49v-6.54h-1.45v4.19l-2.27-4.19h-1.58v6.54h1.45zm15.37-8.42c.318.02.694.18.944.396.214.242.367.612.386.934v15.84c-.019.322-.179.699-.393.94-.25.217-.619.37-.937.39h-13.34c-.318-.02-.694-.18-.944-.396-.214-.242-.367-.612-.386-.934v-2.42h-3.67c-.314-.018-.709-.193-.957-.401-.208-.249-.355-.615-.373-.929v-8.34c.018-.314.193-.709.401-.957.249-.208.615-.355.929-.373h3.67v-2.42c.019-.322.179-.699.393-.94.25-.217.619-.37.937-.39zm-.92 16.25v-1.5h-1.5v1.5zm0-3.75v-1.5h-1.5v1.5zm0-3.75v-1.5h-1.5v1.5zm-3.25-3.75h3.25v-2.75h-11.5v1.5h2.42c.314.018.68.165.929.373.208.248.383.643.401.957v8.34c-.018.314-.165.68-.373.929-.248.208-.643.383-.957.401h-2.42v1.5h7.75v-10.75c0-.276.224-.5.5-.5z" stroke-linecap="round" stroke-linejoin="round"/></svg>