<svg viewBox="0 0 24 24" xmlns="http://www.w3.org/2000/svg"><path fill="rgb(255, 255, 255)" d="m22.535 12c0 2.783-1.282 5.632-3.086 7.45-1.817 1.804-4.666 3.085-7.449 3.085s-5.632-1.282-7.449-3.085c-1.805-1.818-3.086-4.667-3.086-7.45 0-2.784 1.31-5.613 3.089-7.453 1.838-1.778 4.662-3.083 7.446-3.083s5.613 1.31 7.451 3.088c1.779 1.84 3.084 4.664 3.084 7.448zm-4.925-5.605c-1.448-1.51-3.356-2.326-5.61-2.326s-4.156.809-5.604 2.32c-1.51 1.448-2.327 3.357-2.327 5.611 0 2.251.835 4.13 2.324 5.607 1.475 1.489 3.355 2.323 5.607 2.323s4.131-.834 5.607-2.323c1.489-1.477 2.324-3.356 2.324-5.607 0-2.254-.81-4.157-2.321-5.605zm-8.023-.43c.737.226 1.497.662 2.388 1.299.185-.142.255-.22 1.033-.666.765-.432 1.904-.801 2.686-.575.022.009.056.024.095.05.108.069.235.158.338.229.01.008.023.019.033.027.162.14.33.36.401.514.041.108.074.315.058.451-.02.092-.105.259-.183.35l-.294.166c-.27.086-1.057.357-2.12 1.276.508.516 1.19 1.149 2.204 2.772.94 1.529 1.546 2.923 1.306 4.694-.019.092-.069.205-.128.281-.03.036-.058.068-.08.093-.138.129-.389.207-.576.182-.178-.061-.364-.244-.428-.422-.071-.279-.268-.929-.918-1.82-.193-.27-.945-1.164-1.37-1.647-.431-.478-1.052-1.151-1.891-1.983-.07-.07-.118-.118-.159-.159-.056.057-.145.147-.301.307-.512.511-1.164 1.178-1.535 1.569-.638.68-2.394 2.664-2.481 3.75-.044.194-.22.405-.403.484-.196.041-.458-.031-.606-.162-.017-.018-.033-.036-.042-.045-.052-.065-.106-.17-.13-.238-.085-.328-.227-1.505.558-3.511.643-1.549 2.001-3.225 2.894-4.191-.183-.179-.246-.314-1.044-.784l-.032-.02c-.381-.225-.697-.377-1.03-.383v-.003c-.103-.009-.265-.043-.367-.096-.143-.113-.288-.412-.296-.564.019-.17.132-.399.214-.505.138-.168.385-.389.604-.536.06-.038.112-.06.165-.078.299-.13.847-.217 1.437-.106z" stroke-width=".5"/></svg>