<svg viewBox="0 0 24 24" xmlns="http://www.w3.org/2000/svg"><path fill="rgb(255, 255, 255)" d="m13.502 4.453-6.215 13.192c-.083.177-.262.289-.457.287l-4.56-.05c-.179-.002-.343-.099-.431-.255-.087-.155-.085-.346.006-.5l4.815-8.142c.028-.048.065-.092.109-.128l5.96-5c.18-.151.44-.156.626-.013s.247.397.147.609zm1.65 1.465 7.289 13.606c.083.155.078.342-.012.493s-.253.243-.429.243h-15.26c-.259 0-.475-.198-.498-.456s.155-.491.41-.536l8.48-1.514-3.394-4.311c-.107-.136-.136-.319-.076-.482l2.58-6.98c.068-.185.238-.312.435-.326.196-.013.382.089.475.263z" stroke-linecap="round" stroke-linejoin="round"/></svg>