<svg viewBox="122.67 -.13 266.65 512.13" xmlns="http://www.w3.org/2000/svg"><path fill="rgb(255, 255, 255)" d="m252.479 278.435v-24.764c-32.824 23.881-38.199 31.548-52.33 51.969zm-118.193 107.248h-.083c-3.541 0-6.622-2.424-7.455-5.865-.376-1.55-.251-3.124.286-4.534 19.804-88.398 78.36-150.96 158.298-192.355 2.378-1.223 5.222-1.12 7.505.272 2.283 1.394 3.677 3.875 3.677 6.55v66.046c2.04-1.413 3.912-2.956 5.936-4.828 10.887-9.734 15.616-21.849 16.052-35.454s-3.448-25.944-13.674-36.377l-65.53-68.285c-8.67-9.711-13.673-23.16-13.308-35.099s6.208-25.08 15.412-34.232c9.303-8.361 23.392-14.479 37.102-13.375 13.189 1.064 28.362 9.165 40.976 24.592.31.302.595.634.853.989 0 0 49.067 67.899 64.528 94.141.796 2.39.796 6.835 0 9.224-.324.541-.714 1.04-1.161 1.486-1.629 1.105-4.63 2.553-6.211 2.553-1.583 0-4.425-1.294-6.055-2.402l-91.138-85.947c-1.457-1.989-2.472-2.081-4.808-2.161-2.332-.078-3.301-.078-4.827 1.77-1.905 1.394-1.972 2.353-2.052 4.662-.078 2.311-.201 3.16 1.664 4.717l65.146 67.898c6.112 6.437 11.689 14.291 15.746 22.3 10.997 22.609 12.515 49.007 5.226 71.094-7.289 22.085-24.236 42.418-46.588 54.057l-13.372 6.719v172.341c0 3.29-2.098 6.214-5.216 7.268-3.117 1.053-6.559.001-8.555-2.616l-28.442-37.283c-1.02-1.337-1.572-2.971-1.572-4.653v-112.594l-114.214 58.165c-1.204.774-2.632 1.216-4.146 1.216z"/></svg>