<svg xmlns="http://www.w3.org/2000/svg"><path fill="rgb(255, 255, 255)" d="m3.138 32.275c-.769-.043-1.646-.401-2.22-.905-.51-.568-.873-1.445-.918-2.214v-3.323c.045-.756.406-1.625.911-2.197.575-.512 1.454-.877 2.227-.922h3.302c.773.045 1.654.41 2.226.922.509.572.869 1.441.914 2.197v3.323c-.045.769-.41 1.646-.92 2.214-.572.504-1.449.862-2.22.905zm0-22.053c-.771-.044-1.648-.405-2.222-.915-.51-.575-.873-1.454-.916-2.225v-3.302c.043-.773.406-1.65.916-2.224.572-.508 1.451-.871 2.222-.916h3.302c.773.045 1.652.408 2.224.916.511.574.871 1.451.916 2.224v3.302c-.043.771-.405 1.65-.916 2.225-.574.51-1.453.871-2.224.915zm0 11.038c-.777-.044-1.644-.407-2.216-.911-.516-.568-.879-1.454-.922-2.226v-3.309c.043-.756.406-1.642.911-2.218.575-.514 1.454-.877 2.227-.92h3.302c.771.043 1.652.408 2.226.92.511.579.871 1.462.914 2.218v3.309c-.043.772-.41 1.656-.926 2.226-.57.504-1.439.867-2.214.911zm3.283 4.594h-3.262v3.281h3.262zm0-11.021h-3.262v3.266h3.262zm0-11.031h-3.262v3.259h3.262zm5.87.723c0-1.257.438-2.324 1.309-3.21.873-.878 1.929-1.315 3.169-1.315h25.137c1.253 0 2.323.437 3.204 1.315.882.886 1.324 1.953 1.324 3.21v3.287c0 .63-.226 1.164-.679 1.593-.455.437-.995.647-1.62.647-.628 0-1.155-.21-1.584-.647-.429-.429-.645-.963-.645-1.593v-3.287h-25.137v3.287c0 .63-.215 1.164-.651 1.593-.435.437-.967.647-1.596.647-.63 0-1.159-.21-1.586-.647-.429-.429-.645-.963-.645-1.593zm4.478 28.388c-1.24 0-2.296-.429-3.169-1.306-.871-.867-1.309-1.926-1.309-3.172v-3.287c0-.63.218-1.164.653-1.593.434-.437.965-.657 1.595-.657.629 0 1.159.22 1.588.657.429.429.642.963.642 1.593v3.287h25.137v-3.287c0-.63.218-1.164.654-1.593.433-.437.964-.657 1.59-.657.627 0 1.165.22 1.612.657.448.429.672.963.672 1.593v3.287c0 1.246-.442 2.305-1.324 3.172-.881.877-1.951 1.306-3.204 1.306zm8.748-6.709c-.384 0-.751-.085-1.104-.282-.373-.198-.659-.501-.841-.883l-3.223-6.458h-5.561c-.612 0-1.124-.209-1.541-.612-.416-.408-.636-.929-.636-1.554 0-.608.214-1.127.628-1.546.418-.42.933-.64 1.549-.64h6.927c.387 0 .756.096 1.106.29.378.199.664.502.85.886l1.859 3.723 5.661-11.281c.2-.434.501-.726.896-.912l.022-.011c.337-.147.687-.215 1.05-.215.365 0 .715.07 1.048.218l.021.01c.389.186.685.478.882.912l3.217 6.38h5.601c.568 0 1.076.207 1.509.608.448.41.677.937.677 1.567 0 .613-.222 1.138-.666 1.561-.438.418-.946.616-1.524.616h-6.961c-.387 0-.756-.087-1.108-.281-.378-.199-.664-.5-.848-.884l-1.857-3.723-5.665 11.339c-.192.393-.48.694-.862.893-.355.194-.724.279-1.106.279z"/></svg>