<svg height="48" viewBox="0 0 48 48" width="48" xmlns="http://www.w3.org/2000/svg"><path fill="rgb(255, 255, 255)" d="m24 13.374c1.238 0 2.242 1.004 2.242 2.242v6.724c0 1.238-1.004 2.242-2.242 2.242s-2.242-1.004-2.242-2.242v-6.724c0-1.238 1.004-2.242 2.242-2.242zm-13 10.626c0 7.18 5.82 13 13 13s13-5.82 13-13-5.82-13-13-13-13 5.82-13 13zm13-20c11.046 0 20 8.954 20 20s-8.954 20-20 20-20-8.954-20-20 8.954-20 20-20zm13.702 7.32c-.311-.31-.943-.591-1.429-.591s-1.118.28-1.429.591c-.312.31-.595.943-.595 1.431s.283 1.121.595 1.431c.311.311.943.591 1.429.591s1.118-.281 1.429-.591c.312-.311.594-.944.594-1.431s-.282-1.12-.594-1.431zm4.092 11.251c-.311-.311-.944-.593-1.431-.593s-1.12.283-1.43.594c-.311.311-.592.943-.592 1.429s.281 1.118.591 1.43c.311.311.944.594 1.431.594s1.12-.282 1.431-.594c.311-.311.593-.943.593-1.43 0-.486-.282-1.119-.593-1.43zm-4.092 11.25c-.311-.31-.943-.591-1.429-.591s-1.118.28-1.429.591c-.312.31-.595.943-.595 1.431s.283 1.121.595 1.431c.311.311.943.591 1.429.591s1.118-.281 1.429-.591c.312-.311.594-.944.594-1.431s-.282-1.12-.594-1.431zm-24.546 0c-.312-.311-.944-.591-1.43-.591s-1.118.281-1.429.592c-.311.31-.593.943-.593 1.43s.282 1.12.593 1.43c.311.311.943.592 1.429.592s1.118-.28 1.43-.591c.312-.31.595-.943.595-1.431s-.283-1.121-.595-1.431zm-4.089-11.249c-.31-.311-.943-.594-1.43-.594s-1.12.282-1.431.593-.593.944-.593 1.43c0 .487.282 1.119.593 1.43.311.312.944.594 1.431.594s1.12-.283 1.431-.594c.31-.312.591-.944.591-1.43s-.281-1.118-.592-1.429zm4.089-11.252c-.312-.311-.944-.591-1.43-.591s-1.118.281-1.429.592c-.311.31-.593.943-.593 1.43s.282 1.12.593 1.43c.311.311.943.592 1.429.592s1.118-.28 1.43-.591c.312-.31.595-.943.595-1.431s-.283-1.121-.595-1.431zm12.274-5.113c-.311-.311-.943-.592-1.43-.592s-1.119.281-1.43.592-.592.943-.592 1.43c0 .486.281 1.119.592 1.43.31.311.943.593 1.43.593s1.12-.282 1.43-.593c.311-.311.592-.944.592-1.43 0-.487-.281-1.119-.592-1.43z"/></svg>