<svg viewBox="0 0 512 512" xmlns="http://www.w3.org/2000/svg"><path fill="rgb(255, 255, 255)" d="m196.5 34.739h1.6c10-1.5 20.1 3.2 24.6 12.4-.3 30.1-.2 60.2-.2 90.4.6 13-2.7 28.1 7.2 38.6 7.3 9.3 19.6 9.8 30.4 9.3 15.3 2 30.7-9.9 31.7-25.5.3-37.1.2-74.3 0-111.4 2.5-8.7 12.3-14.9 21.5-13.7 31.4-2.4 64.6 13.2 78.8 42 5.5 9.7 7.1 22.1 8.2 32.2v95.395c30.555 16.354 51.729 51.319 51.729 91.759 0 53.167-36.5 96.786-83 101.173v2.726c0 2.49-2.572 4.518-5.787 4.518h-8.253c-3.215 0-5.787-2.028-5.787-4.518v-211.148c.107-2.489 2.679-4.518 5.787-4.518h8.253c.844 0 1.644.14 2.365.391.021-28.15.016-57.746-.207-75.178-1-20.6-17.7-42-39.8-40.4v84.5c2.3 24.1-14.5 48.9-38.8 53.4-15.9 1.9-32.1.6-48.1 1-25.6 2.2-49.9-19-51.7-44.6-.6-31.5-.1-63-.3-94.5-21.2-.2-36.5 20.6-37.6 40.4-.223 17.393-.228 46.894-.207 74.987h7.796c3.108 0 5.681 2.029 5.681 4.518v211.148c0 2.49-2.573 4.518-5.681 4.518h-8.038c-3.108 0-5.68-2.028-5.68-4.518v-1.435c-46.5-4.388-83-48.006-83-101.174 0-41.551 22.293-77.322 54.229-93.064v-90.18c.2-8 1-15.8 3-24 8.7-33.9 43.4-56.6 77.6-55.7zm59.555 357.619c-11.652 0-21.395-4.136-29.226-12.407-7.831-8.274-11.745-18.317-11.745-30.134v-78.097c0-11.112 3.987-20.66 11.961-28.651 7.973-7.992 17.656-11.986 29.049-11.986 11.39 0 21.107 3.994 29.149 11.986 8.043 7.991 12.064 17.539 12.064 28.651v78.097c0 11.817-3.962 21.86-11.886 30.134-7.923 8.271-17.711 12.407-29.366 12.407zm-13.034 71.843v-30.793c-22.647-2.329-42.118-11.376-58.415-27.144-16.296-15.768 9.874-25.45 23.906-14.444 14.03 11.005 29.831 16.508 47.404 16.508 18.07 0 34.037-5.503 47.899-16.508 13.863-11.006 39.737-1.587 23.653 14.286-16.086 15.874-35.557 24.973-58.415 27.302v30.793c0 3.782-1.247 6.944-3.74 9.502-2.49 2.558-5.58 3.833-9.264 3.833-3.685 0-6.778-1.275-9.279-3.833-2.5-2.558-3.749-5.72-3.749-9.502z"/></svg>