<svg viewBox="0 121.3 512.1 269.6" xmlns="http://www.w3.org/2000/svg"><path fill="rgb(255, 255, 255)" d="m436.151 241.992c-12.599-.845-26.443-5.025-35.803-12.379-9.375-7.368-13.712-14.427-17.698-23.632h-48.116c-4.076-.34-6.12.804-9.097 3.324-2.975 2.519-4.438 4.322-4.788 8.399l-1.957 11.841c-2.342 12.48-6.112 18.741-12.072 26.548 9.345 8.617 9.718 13.956 12.068 26.55l1.957 11.818c.349 4.077 1.817 5.915 4.792 8.435 2.977 2.52 5.021 3.664 9.097 3.324h.097c4.02-9.154 8.296-16.265 17.672-23.632 9.36-7.355 22.879-12.38 35.803-12.38 15.314 0 31.079 7.032 41.025 16.978 9.948 9.948 16.978 25.712 16.978 41.027 0 15.313-7.03 31.076-16.978 41.024-9.946 9.947-25.711 16.979-41.025 16.979-12.924 0-26.443-5.023-35.803-12.38-9.376-7.368-13.713-14.427-17.696-23.633h-.073c-13.527-.339-27.792-5.544-37.46-13.719-9.667-8.171-17.189-21.413-19.786-34.725l-1.953-11.818c-.35-4.077-1.818-5.915-4.796-8.435-2.975-2.52-5.02-3.663-9.097-3.324h-12.13c-4.021 9.154-8.297 16.264-17.671 23.632-9.36 7.355-22.88 12.378-35.803 12.378-12.924 0-26.441-5.023-35.801-12.378-9.378-7.368-13.715-14.426-17.698-23.632h-13.095c-4.019 9.154-8.295 16.265-17.671 23.632-9.36 7.355-22.946 12.066-35.869 12.378-15.254-.53-30.968-7.182-40.894-17.147-9.928-9.965-16.954-25.72-16.954-41.033 0-15.314 7.03-31.08 16.978-41.026 9.946-9.947 25.711-16.977 41.025-16.977 12.924 0 26.443 5.023 35.803 12.378 9.376 7.367 13.712 14.426 17.698 23.631h13.093c4.019-9.153 8.295-16.264 17.672-23.631 9.36-7.355 22.878-12.378 35.801-12.378 12.926 0 26.444 5.023 35.804 12.378 9.374 7.368 13.711 14.426 17.696 23.631h12.105c4.077.34 6.122-.804 9.097-3.323 2.978-2.52 4.439-4.321 4.789-8.398l1.96-11.855c2.552-13.324 10.047-26.548 19.719-34.726s23.958-13.38 37.527-13.719h48.142c4.02-9.153 8.296-16.264 17.672-23.632 9.36-7.357 22.879-12.38 35.803-12.38 15.314 0 31.079 7.031 41.025 16.978 9.948 9.948 16.978 25.712 16.978 41.024 0 15.322-7.061 31.09-17.032 41.035-5.017 5.005-11.809 9.608-18.461 12.415-6.627 2.795-14.933 5.07-22.599 4.555zm0-34.026c13.282 0 23.978-10.786 23.978-23.979 0-13.19-10.787-23.975-23.978-23.975-13.193 0-23.979 10.785-23.979 23.975 0 13.193 10.697 23.979 23.979 23.979zm-47.956 96.091c-13.191 0-23.979 10.786-23.979 23.976 0 13.193 10.697 23.978 23.979 23.978 13.193 0 23.977-10.696 23.977-23.978 0-13.19-10.784-23.976-23.977-23.976zm-312.336-24.068c13.282 0 23.979-10.784 23.979-23.977 0-13.194-10.786-23.979-23.979-23.979s-24.067 10.697-24.067 23.979c0 13.281 10.785 23.977 24.067 23.977zm120.156-47.956c-13.191 0-23.977 10.785-23.977 23.979 0 13.193 10.786 23.977 23.977 23.977 13.192 0 23.978-10.696 23.978-23.977 0-13.282-10.786-23.979-23.978-23.979z"/></svg>