<svg clip-rule="evenodd" fill-rule="evenodd" stroke-linejoin="round" stroke-miterlimit="2" viewBox="0 0 256 256" xmlns="http://www.w3.org/2000/svg"><path fill="rgb(255, 255, 255)" d="m128 4.775c68.009 0 123.224 55.215 123.224 123.225 0 68.009-55.215 123.224-123.224 123.224s-123.224-55.215-123.224-123.224c0-68.01 55.215-123.225 123.224-123.225zm0 17.091c-58.576 0-106.134 47.557-106.134 106.134 0 58.576 47.558 106.133 106.134 106.133s106.134-47.557 106.134-106.133c0-58.577-47.558-106.134-106.134-106.134zm-57.112 106.522c0 4.582-3.722 8.303-8.304 8.303s-8.303-3.721-8.303-8.303c0-40.656 32.964-73.72 73.719-73.72 4.582 0 8.304 3.721 8.304 8.304 0 4.582-3.722 8.303-8.304 8.303-31.575 0-57.112 25.616-57.112 57.113zm-19.808-29.414c-1.625 4.285-6.424 6.445-10.708 4.82-4.285-1.624-6.445-6.423-4.82-10.708 14.14-37.289 50.192-63.883 92.448-63.883 4.582 0 8.304 3.722 8.304 8.304s-3.722 8.304-8.304 8.304c-35.162 0-65.154 22.135-76.92 53.163zm-5.269 29.026c0 4.582-3.721 8.303-8.304 8.303-4.582 0-8.303-3.721-8.303-8.303 0-1.279.011-2.555.126-3.832.415-4.564 4.455-7.934 9.02-7.521 4.563.415 7.934 4.455 7.521 9.02-.071.777-.06 1.554-.06 2.333zm82.189-40.811c22.524 0 40.811 18.286 40.811 40.811 0 22.524-18.287 40.81-40.811 40.81s-40.811-18.286-40.811-40.81c0-22.525 18.287-40.811 40.811-40.811zm0 18.6c-12.259 0-22.211 9.952-22.211 22.211 0 12.258 9.952 22.211 22.211 22.211s22.211-9.953 22.211-22.211c0-12.259-9.952-22.211-22.211-22.211zm82.189 22.211c0-4.583 3.721-8.304 8.304-8.304 4.582 0 8.303 3.721 8.303 8.304 0 1.341-.009 2.798-.121 4.142-.38 4.566-4.395 7.967-8.962 7.589-4.567-.38-7.968-4.395-7.589-8.963.074-.898.065-1.87.065-2.768zm-5.159 28.856c1.609-4.291 6.399-6.469 10.69-4.86s6.469 6.398 4.86 10.69c-14.047 37.471-50.219 64.108-92.58 64.108-4.582 0-8.304-3.721-8.304-8.303s3.722-8.304 8.304-8.304c35.243 0 65.343-22.155 77.03-53.331zm-19.918-28.468c0-4.583 3.722-8.304 8.304-8.304s8.303 3.721 8.303 8.304c0 40.658-32.964 73.72-73.719 73.72-4.582 0-8.304-3.721-8.304-8.303s3.722-8.304 8.304-8.304c31.575 0 57.112-25.615 57.112-57.113z"/></svg>