<svg viewBox="33.9 0 444.2 512" xmlns="http://www.w3.org/2000/svg"><path fill="rgb(255, 255, 255)" clip-rule="evenodd" d="m260.814 54.956 29.838 17.256c2.5 1.447 4.039 4.115 4.039 7.003v34.512c0 2.911-1.564 5.597-4.096 7.034l-29.929 16.987c-2.486 1.411-5.531 1.406-8.012-.015l-29.615-16.962c-1.347-.772-2.418-1.897-3.121-3.221-7.269 1.889-17.252 4.695-23.368 7.296-12.608 4.921-23.672 11.466-34.233 19.451-.185.14-.375.271-.569.393-5.736 4.178-10.987 8.822-15.895 14.003-3.916 3.83-7.309 7.352-10.679 11.477-.171.269-.358.531-.56.781-10.07 12.336-17.811 25.667-23.757 40.507-4.875 12.186-8.033 24.511-9.645 37.495-.874 6.661-1.281 13.061-1.281 19.809 0 6.289.461 12.969 1.331 19.156-.386 2.593-1.691 6.405-3.099 7.773-1.125 1.094-3.117 2.285-4.46 2.843-2.36.982-6.026 1.699-8.913 1.772-2.876.073-7.019-.516-9.827-1.835-3.098-1.456-6.454-5.959-7.676-10.313-.837-6.404-1.229-13.066-1.149-19.458.013-6.622.587-13.664 1.127-19.97 1.985-17.618 6.483-35.504 13.13-51.95.114-.28.243-.554.388-.819 6.556-15.932 15.649-30.993 25.902-44.374 4.878-5.985 10.175-11.584 15.118-16.797 7.343-7.324 15.585-14.315 24.043-20.287 10.221-7.313 21.468-13.704 32.836-18.813.293-.131.592-.245.894-.339 14.452-6.23 25.859-9.564 39.318-12.337l.032-3.869c.028-3.265 1.988-6.064 4.789-7.317l28.882-16.855c1.237-.723 2.644-1.103 4.077-1.103h.09c1.422 0 2.818.375 4.05 1.086zm182.891 282.022v34.512c0 2.881-1.531 5.544-4.021 6.991l-29.047 16.901c-.204.144-.415.279-.633.406-2.502 1.445-5.584 1.446-8.087.003l-29.838-17.204c-.614-.354-1.179-.787-1.68-1.287l-.09-.09c-1.517-1.517-2.369-3.575-2.369-5.72v-34.512c0-2.911 1.565-5.598 4.097-7.035l29.928-16.986c1.304-.741 2.762-1.09 4.211-1.052 2.088-7.291 3.562-14.679 4.547-22.363-.01-.416.012-.835.067-1.253.873-6.568 1.279-12.871 1.279-19.527 0-6.891-.503-13.718-1.298-20.756-.036-.326-.053-.652-.05-.977-1.662-11.528-4.518-22.463-8.688-33.39-.28-.444-.517-.918-.707-1.416-5.649-14.92-13.425-28.312-23.627-40.591-.38-.459-.7-.95-.962-1.461-3.129-4.05-6.43-7.681-10.151-11.398-4.947-4.777-9.947-9.114-15.411-13.267-.441-.335-.842-.712-1.198-1.122-10.032-7.826-20.581-14.027-32.294-18.918-.525-.118-1.041-.289-1.541-.514-2.208-1.73-5.071-5.037-5.455-7.078-.297-1.572-.141-3.964.173-5.384.542-2.443 2.067-5.849 3.697-8.271 1.608-2.392 4.475-5.438 7.217-7.038 1.941-1.133 5.101-1.655 8.252-1.548 1.557-.26 3.181-.063 4.664.606 11.312 5.134 22.402 11.633 32.401 18.83 8.183 5.878 16.23 12.775 23.292 19.819 5.33 5.519 10.604 11.478 15.41 17.477 10.451 13.559 19.487 29.08 26.111 44.937 6.441 16.366 11.083 34.09 12.829 52.217.824 6.359 1.209 12.909 1.129 19.297-.006 6.193-.294 12.314-.846 18.254-1.373 13.797-4.397 27.734-8.712 40.975l3.341 1.918c2.512 1.443 4.06 4.118 4.06 7.015zm-108.989 104.294c-.273.125-.552.234-.834.326-15.995 7.132-33.332 12.151-50.591 14.76-.201.041-.405.075-.611.101-8.675 1.095-17.693 1.671-26.455 1.671-7.906 0-15.929-.434-23.841-1.265-.479.019-.962-.003-1.445-.07-18.055-2.536-35.949-7.528-52.176-14.923-11.786-5.221-23.367-11.837-33.819-19.457-.282-.206-.547-.428-.796-.665-7.875-5.728-15.505-12.284-22.408-19.168-3.988-4.079-5.126-5.282-7.715-8.134l-2.194 1.282c-2.507 1.464-5.606 1.473-8.121.024l-29.928-17.256c-2.506-1.445-4.049-4.117-4.049-7.008v-34.512c0-2.911 1.565-5.598 4.096-7.035l29.929-16.986c2.486-1.411 5.532-1.405 8.012.015l29.614 16.96c2.51 1.438 4.061 4.106 4.069 6.997.001.295-.014.586-.045.876v33.685c0 1.938-.693 3.776-1.902 5.211.815.804 1.638 1.585 2.459 2.335 5.036 5.316 10.232 9.863 16.143 14.125.34.246.657.516.95.807 10.131 7.619 20.825 13.766 32.612 18.612 11.802 5.063 23.752 8.335 36.438 10.241.337.002.678.026 1.017.072 7.7 1.043 15.305 1.543 23.095 1.534 8.199.1 16.054-.478 24.161-1.786 13.052-2.065 25.261-5.401 36.867-10.428 12.282-5.152 23.386-11.695 33.801-20.007 2.027-1.608 4.674-2.132 7.118-1.478.794-.004 1.499.074 2.029.254 1.482.506 3.448 1.759 4.538 2.705 1.895 1.644 4.152 4.576 5.506 7.125 1.343 2.525 2.667 6.433 2.802 9.541.147 3.368-2.298 8.575-5.311 11.759-.291.215-.594.41-.907.584-9.988 7.085-20.986 13.484-32.108 18.576zm-89.797-60.32-80.733-46.409c-6.973-4.007-11.271-11.438-11.271-19.48v-92.818c0-8.077 4.334-15.532 11.354-19.527l81.163-46.193c6.927-3.943 15.426-3.921 22.332.059l80.161 46.193c6.961 4.012 11.25 11.434 11.25 19.468v92.818c0 8.037-4.292 15.461-11.256 19.472l-80.589 46.409c-6.936 3.993-15.472 3.997-22.411.008zm69.319-78.877v-66.845l-57.762-33.286-58.624 33.367v66.752l58.255 33.487z" fill-rule="evenodd" stroke-linecap="round" stroke-linejoin="round" stroke-width="18"/></svg>