<svg viewBox="0 0 512 512" xmlns="http://www.w3.org/2000/svg"><path fill="rgb(255, 255, 255)" d="m12.988 245.3c.373-8.528 4.187-17.889 9.718-23.42 5.53-5.53 14.891-9.344 23.42-9.717h99.032c8.529.373 17.89 4.187 23.421 9.717 3.243 3.243 5.896 7.803 7.61 12.74.939-.72 1.777-1.59 2.653-2.659.2-.221.411-.433.632-.632 4.128-3.38 6.74-8.755 10.752-16.281 4.169-7.793 10.682-17.437 20.382-24.689 6.941-4.465 15.909-7.751 26.547-9.225.873-7.891 4.492-16.142 9.545-21.194 5.53-5.531 14.892-9.345 23.421-9.718h99.032c8.528.373 17.89 4.187 23.42 9.718 5.53 5.53 9.345 14.891 9.718 23.419v24.131c-.348 8.721-4.103 18.261-9.595 23.985-5.518 5.752-14.949 9.755-23.543 10.157h-99.032c-8.658-.433-18.1-4.593-23.583-10.386-4.651-4.914-8.053-12.531-9.179-19.911-4.244.865-7.203 2.317-9.775 4.235-4.718 2.627-6.903 7.231-10.906 14.236-2.263 3.953-4.758 8.579-8.096 13.373 31.025 7.414 47.412 20.375 60.631 31.831 16.063 14.178 26.933 26.006 64.632 26.576.811-7.984 4.459-16.383 9.577-21.501 5.531-5.53 14.892-9.344 23.421-9.717h99.032c8.529.373 17.89 4.187 23.42 9.717 5.531 5.531 9.345 14.892 9.718 23.42v24.13c-.348 8.722-4.102 18.262-9.595 23.986-5.518 5.751-14.949 9.754-23.543 10.157h-99.032c-8.657-.434-18.099-4.594-23.583-10.387-4.809-5.08-8.283-13.052-9.286-20.665-47.435-3.071-67.956-19.68-84.574-33.924-16.975-15.035-28.684-26.453-71.104-28.595v1.223c-.347 8.722-4.102 18.262-9.594 23.986-5.518 5.751-14.95 9.754-23.544 10.157h-99.032c-8.657-.434-18.099-4.594-23.583-10.387-5.466-5.774-9.207-15.286-9.555-23.756zm33.098.953v23.239c.013-.007.026-.014.04-.021h98.571v-23.206h-98.571c-.014-.004-.027-.008-.04-.012zm320.716 58.205v23.239c.014-.007.027-.014.041-.021h98.571v-23.206h-98.571c-.014-.004-.027-.008-.041-.012zm-96.722-120.146v23.239c.013-.007.026-.013.041-.021h98.57v-23.206h-98.57c-.015-.004-.028-.007-.041-.012z" fill-rule="evenodd" stroke-linecap="round" stroke-linejoin="round" stroke-width="18"/></svg>