<svg enable-background="new 0 0 192 192" height="800" viewBox="0 0 192 192" width="800" xmlns="http://www.w3.org/2000/svg"><path fill="rgb(255, 255, 255)" d="m119.31 131.411c-5.291 1.142-10.661-1.561-12.898-6.49l-10.969-24.177-2.279 4.707.917 14.953c.339 5.52-3.3 10.5-8.662 11.854-5.363 1.354-10.93-1.301-13.253-6.32l-1.813-3.918-23.609 39.077c-1.971 3.263-5.432 5.337-9.239 5.537s-7.465-1.499-9.768-4.537c-10.233-13.939-17.236-32.813-17.236-51.447 0-22.697 10.165-45.475 24.961-60.299 14.794-14.822 37.566-24.545 60.311-25.101 22.549.446 45.31 10.039 60.202 24.724 14.894 14.686 24.794 37.305 25.525 59.852-.136 18.996-6.892 38.217-17.217 52.347-2.293 3.042-5.943 4.75-9.748 4.563-3.804-.187-7.269-2.246-9.252-5.498l-20.155-33.049c-1.537 1.582-3.537 2.73-5.818 3.222zm-4.304-43.217c1.654-.879 3.524-1.354 5.458-1.344 3.988.022 7.679 2.108 9.755 5.512l24.672 40.456c2.662-6.899 4.145-7.732 3.611-22.733.328-17.849-6.669-31.895-18.675-43.734-12.008-11.84-26.147-18.647-43.998-18.101-18.055-.456-32.183 6.421-44.089 18.349-11.904 11.926-18.239 26.048-18.239 44.051 0 14.766 1.031 15.308 3.571 21.978l24.786-41.025c2.199-3.64 6.229-5.77 10.475-5.536 1.465.081 2.873.438 4.163 1.03l8.934-18.453c1.944-4.015 6.034-6.544 10.494-6.488 4.461.056 8.487 2.685 10.33 6.748z"/></svg>