<svg viewBox="0 -960 960 960" xmlns="http://www.w3.org/2000/svg"><path fill="rgb(255, 255, 255)" d="m245.628-28.746c-27.609 0-51.125-9.711-70.546-29.134-19.429-19.429-29.144-42.95-29.144-70.56v-75.88h-16.707c-13.064 0-24.325-4.93-33.806-14.53-9.458-9.62-14.188-20.84-14.188-33.71 0-13.13 4.73-24.34 14.188-33.71 9.481-9.38 20.742-14.04 33.806-14.04h16.707l.004-359.37h-16.708c-13.063 0-24.325-4.68-33.806-14.05-9.458-9.38-14.188-20.59-14.188-33.72 0-12.85 4.73-24.08 14.188-33.69 9.481-9.61 20.743-14.53 33.806-14.53h16.708v-75.9c0-27.6 9.714-51.13 29.143-70.56 19.421-19.41 42.937-29.12 70.546-29.12h532.384c27.9 0 51.666 9.71 71.3 29.12 19.637 19.43 29.447 42.96 29.447 70.56v703.13c0 27.61-9.817 51.131-29.451 70.56-19.633 19.423-43.4 29.134-71.299 29.134zm0-99.694h89.716l.003-703.13h-89.716zm159.951 0h372.433l.003-703.13h-372.433zm98.029-533.02c-11.588 0-21.327-4.2-29.193-12.16-7.842-8.2-11.775-18.26-11.775-30.2 0-11.7 3.933-21.54 11.775-29.72 7.866-8.19 17.605-12.18 29.193-12.18h177.684c11.614 0 21.329 3.99 29.196 12.42 7.843 8.42 11.777 18.23 11.777 29.94 0 11.72-3.934 21.54-11.777 29.74-7.867 7.96-17.582 12.16-29.196 12.16zm0 179.26c-11.588 0-21.327-3.99-29.193-11.72-7.842-7.96-11.775-17.79-11.775-30.21 0-11.95 3.933-21.78 11.775-29.5 7.866-7.96 17.605-11.71 29.193-11.71h96.481c11.611 0 21.329 3.75 29.195 11.71 7.843 7.96 11.776 17.79 11.776 29.26 0 12.43-3.933 22.49-11.776 30.45-7.866 7.73-17.584 11.72-29.195 11.72z"/></svg>