<?xml version="1.0" encoding="utf-8"?>
<svg height="48" width="48" xmlns="http://www.w3.org/2000/svg">
  <path fill="rgb(255, 255, 255)" d="M 43.712 32.453 C 43.274 32.215 42.713 32.044 42.262 31.999 L 41.085 31.999 C 42.945 27.493 42.155 21.573 38.969 16.551 C 39.101 16.474 39.216 16.39 39.303 16.303 C 39.473 16.133 39.627 15.86 39.748 15.561 C 43.266 20.973 44.656 27.177 43.712 32.453 Z M 38.22 34.232 L 41.827 34.232 C 42.372 34.232 42.814 34.674 42.814 35.22 L 42.814 38.827 C 42.814 39.372 42.372 39.814 41.827 39.814 L 38.22 39.814 C 37.674 39.814 37.232 39.372 37.232 38.827 L 37.232 35.22 C 37.232 34.674 37.674 34.232 38.22 34.232 Z M 7.216 18.467 L 13.784 18.467 C 14.777 18.467 15.582 19.272 15.582 20.265 L 15.582 26.833 C 15.582 27.826 14.777 28.631 13.784 28.631 L 7.216 28.631 C 6.223 28.631 5.418 27.826 5.418 26.833 L 5.418 20.265 C 5.418 19.272 6.223 18.467 7.216 18.467 Z M 34.696 10.818 L 37.431 10.818 C 37.847 10.818 38.182 11.153 38.182 11.569 L 38.182 14.304 C 38.182 14.718 37.847 15.054 37.431 15.053 L 34.696 15.053 C 34.282 15.054 33.946 14.718 33.947 14.304 L 33.947 11.569 C 33.946 11.153 34.282 10.818 34.696 10.818 Z M 19.002 32.702 C 23.732 37.842 30.091 39.721 34.999 37.946 L 34.999 39.262 C 35.064 39.911 35.388 40.786 35.801 41.199 C 36.188 41.586 36.98 41.895 37.613 41.986 C 31.137 46.064 21.413 43.857 14.369 36.202 C 12.876 34.58 11.609 32.827 10.574 31.005 L 14.38 31.005 C 15.245 30.941 16.3 30.542 16.887 29.997 C 17.507 30.938 18.213 31.844 19.002 32.702 Z M 13.989 15.995 L 7.405 15.995 C 7.861 13.002 9.052 10.287 11.014 8.155 C 16.508 2.185 26.206 2.784 33.947 9.083 C 33.474 9.207 32.961 9.433 32.697 9.697 C 32.608 9.786 32.523 9.903 32.446 10.038 C 26.882 6.612 20.485 6.772 16.637 10.954 C 15.338 12.366 14.46 14.093 13.989 15.995 Z"/>
</svg>