<svg viewBox="0 0 24 24" xmlns="http://www.w3.org/2000/svg"><path fill="rgb(255, 255, 255)" d="m23 12c0 6.08-4.92 11-11 11s-11-4.92-11-11 4.92-11 11-11 11 4.92 11 11zm-3 0c0-4.418-3.582-8-8-8s-8 3.582-8 8 3.582 8 8 8 8-3.582 8-8zm-6.628 1.308c0 .195.037.306.148.463s.199.241.389.294c.201.07.335.26.335.472v2.694c0 .276-.224.5-.5.5h-3.488c-.276 0-.5-.224-.5-.5v-5.309c0-.213.135-.403.336-.472.252-.065.353-.188.46-.407.107-.22.141-.38.042-.624-.072-.274-.212-.412-.499-.483-.203-.069-.339-.259-.339-.473v-2.694c0-.276.224-.5.5-.5h3.488c.276 0 .5.224.5.5v5.31c0 .212-.134.402-.335.472-.19.053-.278.137-.389.294s-.148.268-.148.463z"/></svg>