<svg height="48" width="48" xmlns="http://www.w3.org/2000/svg"><path fill="rgb(255, 255, 255)" d="m408.679 507.733c-.001 0-.001 0-.002 0h-.001zm-.002 0c8.842.001 16.009 7.169 16.009 16.01 0 8.842-7.168 16.01-16.01 16.01s-16.01-7.169-16.01-16.01c0-5.054 2.349-9.558 6.006-12.492v12.492c0 5.526 4.48 10.006 10.007 10.006 5.526 0 10.006-4.48 10.006-10.006s-4.48-10.006-10.006-10.006v5.003c2.763 0 5.003 2.24 5.003 5.003s-2.24 5.003-5.003 5.003c-2.764 0-5.003-2.24-5.003-5.003v-15.213c1.574-.516 3.256-.797 5.001-.797zm-20.137 16.083c0 11.082 8.984 20.066 20.066 20.066s20.066-8.984 20.066-20.066-8.984-20.066-20.066-20.066-20.066 8.984-20.066 20.066z" transform="matrix(.996704 0 0 .996704 -383.257843 -498.088257)"/></svg>