<svg height="48" viewBox="0 -960 960 960" width="48" xmlns="http://www.w3.org/2000/svg"><path fill="rgb(255, 255, 255)" d="m188.567-420.02c-11.365-19.84-18.854-41.84-21.885-64.26-2.851-22.32-1.142-45.57 4.995-67.85 7.4-27 20.975-51.95 39.732-72.56 19.065-20.67 42.231-35.42 68.903-43.62 8.397-2.99 18.416-3.11 26.62-.3 8.035 3.56 15.045 10.6 18.617 18.72 3.088 7.94 3.477 17.53.947 25.7-3.346 8.28-11.207 15.92-19.624 19.65-17.344 5.13-31.21 13.56-43.602 26.54-12.565 12.71-20.506 27.1-24.889 45.02-3.681 13.33-4.474 26.04-2.495 39.8 1.808 13.67 6.02 25.99 13.204 38.16 7.071 12.42 15.574 22.27 26.695 30.89 11.043 8.73 22.495 14.61 36.04 18.33 10.112 2.81 19.809 4.04 29.536 3.72 3.737-.6 7.457-.95 11.097-1.03 3.487-.53 7.001-1.25 10.56-2.17 17.384-4.17 32.107-12.63 45.033-25.34 7.499-5.51 17.514-8 26.244-6.79 2.586.59 5.138 1.48 7.587 2.63v-74.13c-.864-1.52-1.33-6.44-1.33-6.44l-71.066-71.06c-1.914-1.92-2.989-4.51-2.989-7.22s1.075-5.3 2.989-7.21l35.343-35.34c3.985-3.99 10.445-3.99 14.429 0l56.746 56.74 56.733-56.74c3.985-3.99 10.444-3.99 14.429 0l35.351 35.34c1.913 1.91 2.989 4.5 2.989 7.21s-1.075 5.3-2.988 7.22l-71.061 71.06s-.465 4.92-1.327 6.44v78.77c4.568-3.6 9.994-6.3 15.584-7.57 8.728-1.19 19.232 1.75 26.723 7.24 13.107 12.45 27.378 20.15 44.835 24.5 17.327 4.49 33.785 4.17 51.464-1.09 13.409-3.46 24.727-9.06 35.625-17.65 11.038-8.48 19.507-18.22 26.549-30.63 7.203-12.19 11.441-24.47 13.344-38.44 2.059-13.94 1.382-26.79-2.123-40.57-4.578-17.52-12.583-31.63-25.172-44.39-12.316-13.05-26.173-21.17-43.679-26.03l-.597-.16-.384-.17c-8.278-3.79-15.423-11.04-18.813-19.39-2.527-8.3-2.125-17.75.961-25.66 3.581-8.15 10.588-15.18 18.617-18.73 8.345-2.84 17.767-2.49 25.878.54 26.443 8.47 50.112 23.51 69.279 43.68 18.962 20.37 32.679 45.07 40.101 72.26 6.143 22.3 7.846 45.5 4.995 67.85-3.033 22.43-10.524 44.41-21.888 64.26-11.514 19.74-26.778 37.15-44.621 50.93-18.003 13.78-38.926 23.82-61.233 29.71-2.522.66-5.055 1.27-7.595 1.82v159.76c0 25.02-8.924 46.4-26.754 64.14-17.831 17.746-39.214 26.845-64.233 26.845-9.105 15.927-21.615 28.662-37.545 38.216-15.914 9.554-33.744 14.099-53.442 14.099-19.748 0-37.545-4.545-53.459-14.099-15.93-9.554-28.44-22.289-37.528-38.216-25.024 0-46.452-9.099-64.286-26.845-17.832-17.74-26.704-39.12-26.704-64.14v-161.4c-22.182-5.8-43.016-15.95-60.853-29.48-17.839-13.89-33.097-31.34-44.609-51.07zm291.201-505.21c22.886 0 45.654 4.63 66.509 13.14 20.858 8.71 40.087 21.85 56.269 38.22 19.777 20.02 34.519 44.29 43.086 70.87 8.32 26.82 9.552 54.24 3.307 81.35-1.642 8.88-6.581 17.54-13.106 23.22-7.089 5.18-16.704 7.77-25.458 6.83-8.387-1.28-16.854-5.68-22.764-12.08-5.475-7.02-8.124-17.71-7.158-26.75 4.216-17.57 3.809-33.85-1.228-51.15-4.744-17.2-13.278-31.32-26.575-43.94-9.741-9.91-20.2-16.96-33.062-22.13-12.903-5.2-25.605-7.72-39.82-7.72-14.206 0-26.933 2.49-40.03 7.7-13.064 5.18-23.874 12.3-33.978 22.2-12.968 12.62-21.216 26.65-25.984 43.89-5.052 17.25-5.107 34.31-.561 51.86.969 9.03-1.812 19.02-7.269 26.03-5.914 6.43-14.388 10.82-22.785 12.09-8.756.94-18.373-1.66-25.452-6.84-6.598-5.77-11.03-14.03-12.478-22.7-5.868-27.05-4.755-54.99 3.184-81.75 8.206-26.61 22.729-50.88 42.52-70.92 16.182-16.38 35.487-29.57 56.328-38.29 20.864-8.51 43.617-13.13 66.505-13.13zm-94.749 660.71h181.974v-43.21h-181.974zm0 86.45h181.974v-40.95h-181.974z" stroke-width="20"/></svg>