<svg height="48" viewBox="0 -960 960 960" width="48" xmlns="http://www.w3.org/2000/svg"><path fill="rgb(255, 255, 255)" d="m215-215-79 79q-23 23-52 10.97t-29-42.97v-643q0-39.46 27.47-67.23 27.48-27.77 66.53-27.77h662q39.46 0 67.23 27.77 27.77 27.77 27.77 67.23v502q0 39.05-27.77 66.52-27.77 27.48-67.23 27.48zm-26-94h622v-502h-662v548zm-40 0v-502zm121-90h253q12.75 0 21.38-8.68 8.62-8.67 8.62-21.5 0-12.82-8.62-21.32-8.63-8.5-21.38-8.5h-253q-12.75 0-21.37 8.68-8.63 8.67-8.63 21.5 0 12.82 8.63 21.32 8.62 8.5 21.37 8.5zm0-130h420q12.75 0 21.38-8.68 8.62-8.67 8.62-21.5 0-12.82-8.62-21.32-8.63-8.5-21.38-8.5h-420q-12.75 0-21.37 8.68-8.63 8.67-8.63 21.5 0 12.82 8.63 21.32 8.62 8.5 21.37 8.5zm0-130h420q12.75 0 21.38-8.68 8.62-8.67 8.62-21.5 0-12.82-8.62-21.32-8.63-8.5-21.38-8.5h-420q-12.75 0-21.37 8.68-8.63 8.67-8.63 21.5 0 12.82 8.63 21.32 8.62 8.5 21.37 8.5z"/></svg>