<svg height="48" width="48" xmlns="http://www.w3.org/2000/svg"><path fill="rgb(255, 255, 255)" d="m34 14c0 1.947-.588 3.677-1.609 5.122 6.651 1.774 11.609 5.291 11.609 7.878 0 1.7-6.7 1.8-7 3l-1.7 10.7c-.3 1.3-.7 1.8-1.4 2-6.5 1.7-13.1 1.75-19.9 0-.7-.3-1.2-.8-1.3-2l-1.7-10.7c-.2-1.5-7-1.3-7-3 0-2.577 4.917-6.075 11.526-7.856-.972-1.463-1.526-3.257-1.526-5.144 0-5.4 4.5-10 10-10s10 4.64 10 10zm-15.4 7.9c.4.7.8 1.7 1 3.55 0 .7.8 1.4 1.5 1.4 2.3 1.8 3.95 1.6 5.8 0 .7 0 1.5-.7 1.5-1.4.24-1.74.6-2.9.84-3.47l-2 1h-6.55zm1.4-12.9c-1.108 0-2 .892-2 2s.892 2 2 2 2-.892 2-2-.892-2-2-2z"/></svg>