<svg viewBox="0 0 48 48" xmlns="http://www.w3.org/2000/svg"><path fill="rgb(255, 255, 255)" d="m23.846 5.922c4.964 0 9.527 2.044 12.781 5.298 3.253 3.253 5.297 7.816 5.297 12.781 0 4.964-2.044 9.527-5.297 12.781-3.254 3.253-7.817 5.297-12.781 5.297-4.965 0-9.528-2.044-12.782-5.297-3.253-3.254-5.297-7.817-5.297-12.781 0-4.965 2.044-9.528 5.297-12.781 3.254-3.254 7.817-5.298 12.782-5.298zm9.818 8.259c-2.532-2.533-5.961-4.07-9.818-4.07-3.858 0-7.287 1.537-9.819 4.07-2.533 2.534-4.07 5.962-4.07 9.82 0 3.857 1.537 7.285 4.069 9.818 2.533 2.533 5.962 4.07 9.82 4.07 3.857 0 7.286-1.537 9.819-4.07 2.532-2.533 4.069-5.961 4.069-9.818 0-3.858-1.537-7.286-4.07-9.82zm-13.335 21.467c-.536-.195-1.018-.651-1.246-1.172-.182-.492-.169-1.093.03-1.585.002-.083.038-.157.047-.174.228-.415.62-.771 1.03-.938.41-.166.942-.183 1.396-.045 1.376.466 2.82.499 4.243.111 1.646-.432 3.036-1.36 4.059-2.687.296-.377.743-.67 1.179-.771.383-.087.84-.046 1.237.108.059-.003.12.009.176.038.507.28.919.813 1.067 1.37.115.565-.026 1.234-.353 1.71-1.585 1.994-3.812 3.495-6.308 4.173-2.151.57-4.459.512-6.557-.138zm-3.008-20.981c.487-.287 1.138-.374 1.682-.223.479.161.925.53 1.186.973.077.054.118.136.123.147.185.452.218.997.087 1.435-.132.438-.461.874-.866 1.149-1.779 1.149-2.944 2.966-3.262 5.104-.226 1.395-.065 2.763.464 4.056.176.443.204.977.072 1.402-.117.378-.386.754-.721 1.021-.028.048-.066.09-.116.122-.495.298-1.164.388-1.72.234-.548-.184-1.053-.642-1.299-1.166-.773-1.975-1.039-4.177-.713-6.301.523-3.242 2.412-6.15 5.083-7.953zm-16.636 14.229c-.09-.515.038-1.11.33-1.544.315-.415.829-.724 1.341-.81.08-.032.051-.015.07-.018.48-.051 1.006.082 1.369.342s.658.712.766 1.183c.937 4.552 3.401 8.431 6.83 11.228 3.429 2.798 7.74 4.434 12.455 4.434 7.37 0 14.011-4.011 17.407-10.46.238-.44.658-.81 1.092-.966.401-.144.908-.141 1.348.008.064.003.119.027.136.034.473.222.877.661 1.067 1.146.163.495.124 1.108-.099 1.581-4.089 7.669-12.163 12.619-20.951 12.619-5.61 0-10.866-1.992-14.945-5.314-4.079-3.321-7.066-8.054-8.216-13.463zm46.532-1.133c-.1.513-.431 1.026-.861 1.328-.444.277-1.029.381-1.537.28-.03-.004-.059-.01-.078-.013-.463-.125-.906-.436-1.152-.807-.245-.372-.358-.901-.292-1.376.176-1.054.26-2.105.26-3.174 0-5.465-2.189-10.349-5.776-13.936s-8.47-5.791-13.934-5.776l-.131.001c-.49-.011-1.003-.21-1.338-.517-.334-.307-.577-.801-.63-1.289-.029-.526.172-1.112.518-1.51.368-.38.934-.629 1.462-.646h.118c6.508.015 12.469 2.671 16.735 6.937 4.265 4.266 6.936 10.227 6.936 16.736 0 1.255-.101 2.524-.3 3.762zm-32.716-25.512c.485-.183 1.09-.172 1.57.029.467.228.874.675 1.055 1.161.085.096.026.022.037.06.145.463.118 1.008-.067 1.417-.186.408-.574.784-1.017.981-6.168 2.605-10.527 8.119-11.653 14.718-.091.491-.375.972-.74 1.256-.335.26-.814.414-1.275.412-.04.011-.083.016-.126.011-.521-.063-1.056-.357-1.389-.761-.31-.422-.464-1.018-.398-1.539 1.382-7.856 6.681-14.577 14.003-17.745z"/></svg>