<svg viewBox="0 0 512 512" xmlns="http://www.w3.org/2000/svg"><path fill="rgb(255, 255, 255)" d="m8.791 256c0-136.545 110.664-247.21 247.209-247.21s247.209 110.665 247.209 247.21c0 136.544-110.664 247.209-247.209 247.209s-247.209-110.665-247.209-247.209zm412.047 20.568c0-79.57-64.602-144.173-144.173-144.27-14.774 0-29.066 2.222-42.489 6.374 25.107 11.298 42.489 36.502 42.489 65.761 0 39.882-32.349 72.135-72.135 72.135-29.259 0-54.463-17.478-65.761-42.489-4.153 13.423-6.374 27.715-6.374 42.489 0 79.667 64.7 144.174 144.27 144.174 79.571 0 144.173-64.507 144.173-144.174zm-130.687-212.493c0-11.298-9.174-20.568-20.569-20.568-125.15 0-226.641 101.491-226.544 226.641 0 11.298 9.174 20.568 20.568 20.568 11.299 0 20.569-9.174 20.569-20.568 0-102.36 83.047-185.407 185.407-185.407 11.395 0 20.569-9.271 20.569-20.666z"/></svg>