<svg viewBox="43.38 .14 425.32 512.02" xmlns="http://www.w3.org/2000/svg"><path fill="rgb(255, 255, 255)" d="m147.769 444.091c-7.718-3.883-13.791-6.558-13.824-6.834-1.781-.041-3.523-.544-5.055-1.459-45.696-28.169-67.811-67.644-72.785-105.163-4.997-37.701 5.874-76.587 20.871-103.655 2.205-3.934 6.711-5.98 11.124-5.051 4.414.93 7.712 4.619 8.144 9.109 1.461 29.309 31.058 54.315 52.941 84.609 11 15.229 20.684 32.949 22.327 51.499 1.324 14.944-3.025 32.001-14.252 49.557 1.23.387 2.491.801 3.761 1.238 9.481 3.266 9.532 4.051 14.182 7.231 5.324-8.45 9.009-13.944 15.602-23.955 3.294-4.998 6.027-9.197 7.892-12.32.231-.385.408-.681.542-.902-19.522-50.772-19.239-91.615-5.021-125.224 14.283-33.759 42.667-60.588 73.765-83.383 62.034-45.472 138.692-78.506 163.035-138.575 1.783-4.148 6.057-6.654 10.548-6.186 4.491.469 8.155 3.804 9.043 8.231 12.261 61.868 9.129 142.502-23.941 212.371-32.992 69.705-97.124 130.299-202.331 155.836-3.112 5.638-36.389 63.219-40.697 66.076-2.318.817-4.822.772-7.072-.076-.013-.001-.027-.003-.04-.005-1.324-.166-3.481-.394-5.668-.792-2.205-.401-5.795-1.355-8.199-2.805-1.518-.916-4.242-3.519-5.272-5.742-1.087-2.343-1.118-6.335-.484-9.041.752-2.332 2.337-5.829 3.539-8.361-2.296-1.452-7.045-3.395-12.675-6.228zm51.501-56.013c-.002-.006-.004-.011-.007-.018-.013.032-.013.042.007.018z"/></svg>