<svg height="48" viewBox="0 -960 960 960" width="48" xmlns="http://www.w3.org/2000/svg"><path fill="rgb(255, 255, 255)" d="m234-247h311q14.58 0 21.29-12.78 6.71-12.78-2.29-25.22l-91-120q-8.31-9-19.15-9-10.85 0-18.85 9l-69 94q-7 9-18.5 9t-18.5-9l-28-39q-7-9-18.5-9.5t-18.5 8.5l-49 66q-9 12.44-2.6 25.22 6.39 12.78 21.6 12.78zm-45 152q-39.8 0-66.9-27.1-27.1-27.1-27.1-66.9v-413q0-40.21 27.1-67.61 27.1-27.39 66.9-27.39h413q40.21 0 67.61 27.39 27.39 27.4 27.39 67.61v413q0 39.8-27.39 66.9-27.4 27.1-67.61 27.1zm-47.56-676q-19.44 0-32.94-14.06-13.5-14.06-13.5-33.5 0-19.44 13.86-33.44 13.86-14 33-14t33.14 14.24q14 14.24 14 33.94 0 19.27-14.06 33.04-14.06 13.78-33.5 13.78zm169.38 0q-19.27 0-33.05-14.06-13.77-14.06-13.77-33.5 0-19.44 14.06-33.44 14.06-14 33.5-14 19.44 0 33.44 14.24 14 14.24 14 33.94 0 19.27-14.24 33.04-14.24 13.78-33.94 13.78zm169 0q-19.82 0-33.32-14.06t-13.5-33.5q0-19.44 13.68-33.44 13.67-14 33.5-14 19.82 0 33.32 14.24t13.5 33.94q0 19.27-13.68 33.04-13.67 13.78-33.5 13.78zm169.62 0q-19.44 0-33.44-14.06-14-14.06-14-33.5 0-19.44 14.24-33.44 14.24-14 33.94-14 19.27 0 33.04 14.24 13.78 14.24 13.78 33.94 0 19.27-14.06 33.04-14.06 13.78-33.5 13.78zm168.38 0q-19.27 0-33.04-14.06-13.78-14.06-13.78-33.5 0-19.44 14.06-33.44 14.06-14 33.5-14 19.44 0 33.44 14.24 14 14.24 14 33.94 0 19.27-14.24 33.04-14.24 13.78-33.94 13.78zm0 169q-19.27 0-33.04-14.24-13.78-14.24-13.78-33.94 0-19.27 14.06-33.04 14.06-13.78 33.5-13.78 19.44 0 33.44 14.06 14 14.06 14 33.5 0 19.44-14.24 33.44-14.24 14-33.94 14zm0 169q-19.27 0-33.04-13.68-13.78-13.67-13.78-33.5 0-19.82 14.06-33.32t33.5-13.5q19.44 0 33.44 13.68 14 13.67 14 33.5 0 19.82-14.24 33.32t-33.94 13.5zm0 169q-19.27 0-33.04-14.06-13.78-14.06-13.78-33.5 0-19.44 14.06-33.44 14.06-14 33.5-14 19.44 0 33.44 14.24 14 14.24 14 33.94 0 19.27-14.24 33.05-14.24 13.77-33.94 13.77zm0 169q-19.27 0-33.04-13.86-13.78-13.86-13.78-33t14.06-33.14q14.06-14 33.5-14 19.44 0 33.44 14.06 14 14.06 14 33.5 0 19.44-14.24 32.94-14.24 13.5-33.94 13.5z"/></svg>