<svg height="48" width="48" xmlns="http://www.w3.org/2000/svg"><path fill="rgb(255, 255, 255)" d="m21.879 20.464 2.121 2.122 2.121-2.122 1.415 1.415-2.122 2.121 2.122 2.121-1.415 1.415-2.121-2.122-2.121 2.122-1.415-1.415 2.122-2.121-2.122-2.121zm-14 0 2.121 2.122 2.121-2.122 1.415 1.415-2.122 2.121 2.122 2.121-1.415 1.415-2.121-2.122-2.121 2.122-1.415-1.415 2.122-2.121-2.122-2.121zm28-14 2.121 2.122 2.121-2.122 1.415 1.415-2.122 2.121 2.122 2.121-1.415 1.415-2.121-2.122-2.121 2.122-1.415-1.415 2.122-2.121-2.122-2.121zm-2.879 37.536h10c.552 0 1-.448 1-1v-10c0-.552-.448-1-1-1h-10c-.552 0-1 .448-1 1v10c0 .552.448 1 1 1zm-14 0h10c.552 0 1-.448 1-1v-10c0-.552-.448-1-1-1h-10c-.552 0-1 .448-1 1v10c0 .552.448 1 1 1zm-14 0h10c.552 0 1-.448 1-1v-10c0-.552-.448-1-1-1h-10c-.552 0-1 .448-1 1v10c0 .552.448 1 1 1zm0-14h10c.552 0 1-.448 1-1v-10c0-.552-.448-1-1-1h-10c-.552 0-1 .448-1 1v10c0 .552.448 1 1 1zm14 0h10c.552 0 1-.448 1-1v-10c0-.552-.448-1-1-1h-10c-.552 0-1 .448-1 1v10c0 .552.448 1 1 1zm14 0h10c.552 0 1-.448 1-1v-10c0-.552-.448-1-1-1h-10c-.552 0-1 .448-1 1v10c0 .552.448 1 1 1zm0-14h10c.552 0 1-.448 1-1v-10c0-.552-.448-1-1-1h-10c-.552 0-1 .448-1 1v10c0 .552.448 1 1 1zm-14 0h10c.552 0 1-.448 1-1v-10c0-.552-.448-1-1-1h-10c-.552 0-1 .448-1 1v10c0 .552.448 1 1 1zm-14 0h10c.552 0 1-.448 1-1v-10c0-.552-.448-1-1-1h-10c-.552 0-1 .448-1 1v10c0 .552.448 1 1 1z"/></svg>