<svg viewBox="0 0 512 512" xmlns="http://www.w3.org/2000/svg"><path fill="rgb(255, 255, 255)" d="m407.7-.016c47.5 0 87.6 38.3 87.6 85.8 0 .325-.002.65-.006.975l.106.225v298.1c0 70.1-56.8 126.9-126.9 126.9h-225.1c-70 0-126.8-56.8-126.8-126.9v-225.1c0-70.1 56.8-126.9 126.9-126.9h104.426c109.391-2.714 107.294-31.866 159.774-33.1zm2.494 36.112c-27.998 0-50.694 22.696-50.694 50.694s22.696 50.694 50.694 50.694 50.694-22.696 50.694-50.694-22.696-50.694-50.694-50.694zm-154.194 94.488c-78.424 0-142 63.576-142 142s63.576 142 142 142 142-63.576 142-142-63.576-142-142-142zm100.5 142c0 55.505-44.995 100.5-100.5 100.5s-100.5-44.995-100.5-100.5 44.995-100.5 100.5-100.5 100.5 44.995 100.5 100.5z"/></svg>