<svg height="48" viewBox="0 -960 960 960" width="48" xmlns="http://www.w3.org/2000/svg"><path fill="rgb(255, 255, 255)" d="m480-57q-80 0-149-26t-120.11-69.79q-51.11-43.79-79.5-101t-28.39-118.21v-64q0-15.5 12.28-21.75t24.72 2.75l98 72q18 13 19.5 34t-13.5 36l-25 25q30 50 91.5 89t122.5 43v-345h-83q-20 0-33.5-13.5t-13.5-33.5q0-20 13.5-33.5t33.5-13.5h83v-58q-46-20-68.5-53.5t-22.5-74.5q0-58.25 40.62-99.13 40.62-40.87 97.5-40.87 57.88 0 98.38 40.87 40.5 40.88 40.5 99.13 0 41-23.16 74.53-23.15 33.52-68.84 53.47v58h83q20 0 33.5 13.5t13.5 33.5q0 20-13.5 33.5t-33.5 13.5h-83v345q61-4 122.5-43t91.5-89l-25-25q-15-15-13.5-36t20.7-34.44l96.8-71.56q12.44-9 24.72-2.75t12.28 21.75v64q0 61-28.39 118.21-28.39 57.21-79.5 101t-120.11 69.79q-69 26-149 26zm.11-680q18.89 0 31.39-13.11 12.5-13.1 12.5-31 0-18.89-12.61-31.89-12.6-13-31.5-13-17.89 0-30.89 13.11-13 13.1-13 32 0 17.89 13.11 30.89 13.1 13 31 13z"/></svg>