<svg height="48" width="48" xmlns="http://www.w3.org/2000/svg"><path fill="rgb(255, 255, 255)" d="m26.706 16.919 7.4-10.904 6.719 1.283-8.345 11.015 8.339 10.794-6.414 2.568-7.699-11.548v10.264l-6.414 1.284v-25.067l6.414-.593zm-13.778 16.474c1.874 2.337 4.249 3.881 7.122 4.63.077-.822.419-1.504 1.027-2.043.609-.539 1.342-.809 2.201-.809h1.663v-1.667l3.765-1.474v-5.298l4.935 7.403 5.356-2.144c-.896 2.041-2.106 3.826-3.632 5.357-1.539 1.544-3.343 2.765-5.411 3.665-2.067.9-4.292 1.349-6.675 1.349-2.382 0-4.611-.446-6.683-1.339-2.073-.894-3.884-2.113-5.434-3.657s-2.769-3.355-3.655-5.43-1.329-4.308-1.329-6.7c0-2.35.446-4.562 1.337-6.638.891-2.075 2.108-3.883 3.651-5.423 1.544-1.539 3.35-2.758 5.419-3.656.557-.242 1.126-.451 1.707-.628v4.83c-.089.457-.276.867-.559 1.23-.415.53-.963.909-1.648 1.135l-1.39.508c-.36.163-.67.409-.932.737-.262.327-.393.698-.393 1.114 0 .525.187.966.562 1.323.376.358.83.537 1.366.537h.735c.635 0 1.18.227 1.636.683.32.321.528.688.623 1.101v1.015c-.037.143-.091.283-.161.423-.147.29-.318.545-.513.766l-.919.957c0 .905-.327 1.688-.98 2.349-.654.66-1.439.991-2.356.991s-1.687-.331-2.311-.992c-.625-.661-.937-1.445-.937-2.351 0 3.094.938 5.809 2.813 8.146z" stroke-width="4"/></svg>