<svg height="48" viewBox="0 -960 960 960" width="48" xmlns="http://www.w3.org/2000/svg"><path fill="rgb(255, 255, 255)" d="m189-55q-39.05 0-66.53-27.47-27.47-27.48-27.47-66.53v-602q0-39.46 27.47-67.23 27.48-27.77 66.53-27.77h56v-19q0-16.75 12.39-28.88 12.4-12.12 28.8-12.12 16.83 0 28.82 12.12 11.99 12.13 11.99 28.88v19h306v-19q0-16.75 12.39-28.88 12.4-12.12 28.8-12.12 16.84 0 28.82 12.12 11.99 12.13 11.99 28.88v19h56q39.46 0 67.23 27.77 27.77 27.77 27.77 67.23v602q0 39.05-27.77 66.53-27.77 27.47-67.23 27.47zm0-94h582v-421h-582zm0-481h582v-121h-582zm0 0v-121zm291.11 236q-19.51 0-32.81-13.19-13.3-13.2-13.3-32.7 0-19.51 13.19-32.81 13.2-13.3 32.7-13.3 19.51 0 32.81 13.19 13.3 13.2 13.3 32.7 0 19.51-13.19 32.81-13.2 13.3-32.7 13.3zm-160 0q-19.51 0-32.81-13.19-13.3-13.2-13.3-32.7 0-19.51 13.19-32.81 13.2-13.3 32.7-13.3 19.51 0 32.81 13.19 13.3 13.2 13.3 32.7 0 19.51-13.19 32.81-13.2 13.3-32.7 13.3zm320 0q-18.11 0-32.11-13.19-14-13.2-14-32.7 0-19.51 13.89-32.81 13.9-13.3 32.5-13.3 18.61 0 32.11 13.19 13.5 13.2 13.5 32.7 0 19.51-13.19 32.81-13.2 13.3-32.7 13.3zm-160 160q-19.51 0-32.81-13.89-13.3-13.9-13.3-32.5 0-18.61 13.19-32.11 13.2-13.5 32.7-13.5 19.51 0 32.81 13.19 13.3 13.2 13.3 32.7 0 18.11-13.19 32.11-13.2 14-32.7 14zm-160 0q-19.51 0-32.81-13.89-13.3-13.9-13.3-32.5 0-18.61 13.19-32.11 13.2-13.5 32.7-13.5 19.51 0 32.81 13.19 13.3 13.2 13.3 32.7 0 18.11-13.19 32.11-13.2 14-32.7 14zm320 0q-18.11 0-32.11-13.89-14-13.9-14-32.5 0-18.61 13.89-32.11 13.9-13.5 32.5-13.5 18.61 0 32.11 13.19 13.5 13.2 13.5 32.7 0 18.11-13.19 32.11-13.2 14-32.7 14z"/></svg>