<svg viewBox="0 0 512 512" xmlns="http://www.w3.org/2000/svg"><path fill="rgb(255, 255, 255)" d="m418.521 322.319c11.008 4.48 31.248 7.128 63.5 2.217-4.384 2.851-9.55 5.706-15.415 8.378-12.277 5.932-32.095 9.318-50.187 9.491-8.877.114-15.604-.504-20.752-2.154-.857-.255-1.429-.425-1.841-.569-.455-8.184.636-11.593 2.632-15.103 1.339-2.972 2.11-3.241 5.124-4.558 2.199-1.052 4.979-1.658 8.025-2.567 2.145 1.551 5.107 3.252 8.914 4.865zm-189.716.71c-.031.017.553-.726.797-1.024.009-.014.018-.029.027-.043 2.042-3.037 2.376-2.739 4.406-2.878 1.071-.361 1.557.148 4.376 1.374.138.061.278.113.421.159 3.376.609 4.757 3.199 6.604 8.431.549 1.459 1.048 3.117 1.129 3.164 0 0-.047 1.901-.117 4.958-.169.335-.155.37-.874 1.067-.16.169-.307.351-.438.544-11.821 17.956-25.594 23.653-40.497 26.126-14.362 2.578-27.012.129-35.756-2.054-5.435-1.26-3.188-.806-4.602-1.274 1.487-.364-2.393.347 5.303-1.141 20.249-4.254 31.228-8.254 38.711-14.074 3.843-3.123 7.094-6.928 10.008-10.601 2.395-3.024 8.684-10.558 10.502-12.734zm-46.179-42.991c-10.988-12.234-16.659-27.621-13.485-46.301 3.905-28.941-.604-54.085-1.887-64.364.283.009.532-.004.701-.035.606-.112 1.477-.455 2.228-.816 1.363-.655 3.54-1.858 6.796-3.671 6.547-3.657 14.715-7.169 23.66-9.206 8.926-2.088 16.087-2.568 22.541.082 6.542 2.39 10.249 5.653 11.623 15.7 15.702 63.015-2.312 81.461-11.121 104.17-2.625 7.036-5.319 13.976-7.144 20.489-.32 1.16-.161.602-.237.915-14.6.827-23.791-5.621-33.675-16.963zm217.612-127.716c-.387 12.552-3.838 22.435-4.666 41.294-.338 15.286 2.97 30.767 3.669 45.572.368 7.406.167 14.075-1.392 21.231-.589 2.779-1.291 5.293-2.267 7.934-.381-.874-.748-1.774-1.1-2.701-3.883-9.159-27.043-44.581-34.464-74.709-3.717-14.708-4.31-24.51 2.269-31.354 5.976-7.243 15.846-10.168 37.951-7.267zm-64.634-116.209c9.837-2.199 12.534-2.298 27.86-2.418 33.049-.34 71.906 7.149 99.967 44.819 9.821 10.736 7.94 41.892-2.98 84.028-5.471 21.209-13.351 43.97-23.716 67.321-5.184 11.689-10.863 23.244-17.193 34.81-3.163 5.784-6.414 11.434-9.854 17.106-1.171 1.932-1.61 2.624-2.329 3.756 2.767-7.399 11.889-32.994 11.325-47.298-.831-16.441-4.22-31.198-3.656-44.065.264-17.362 4.899-29.817 4.544-49.076.152-1.048.222-2.237.179-3.156-.09-1.412-.443-3.54-.906-5.452-.861-3.509-2.551-8.675-4.907-14.346-4.606-11.045-12.701-26.313-24.272-41.15-14.411-18.382-30.744-32.967-54.062-44.879zm-162.416 262.008c-7.559 8.132-19.727 21.307-36.415 41.41-6.092 7.852-9.903 9.899-14.865 9.945-4.686.442-7.866-1.422-13.401-6.898-12.085-11.596-22.985-33.881-32.947-61.011-20.046-54.466-32.82-121.839-33.64-139.37-2.414-40.829 6.352-64.423 21.177-79.925 14.2-15.387 32.832-20.703 54.172-21.881 29.657-1.787 54.724 5.012 72.257 10.24-11.86 12.711-19.77 26.6-25.921 42.862-13.024 34.899-12.683 69.97-12.638 72.407.059 7.593 3.343 34.475-1.112 65.199-2.737 23.211 4.939 46.644 18.194 61.839 2.404 2.706 3.325 3.538 5.139 5.183zm189.017 136.154c-2.38 14.527-5.684 23.076-12.493 29.964-6.697 7.126-15.71 11.258-31.626 14.561-17.643 4.523-26.445.865-33.822-5.46-7.161-5.773-10.347-13.824-13.056-20.624-2.414-5.511-3.925-21.503-4.897-44.171-.49-11.376-.757-24-.805-37.385-.024-6.695.007-13.515.095-20.454.085-6.838.42-20.659.43-21.035-.051 1.912 0-.082 0-.082-.039-1.436-.319-2.582-.727-3.715-.259-2.057-.711-3.795-1.372-5.628-2.766-7.134-9.766-14.743-16.219-18-2.295-.996-6.929-2.666-11.941-2.606 1.545-5.146 3.748-10.812 6.157-17.268 7.067-19.763 25.427-43.814 11.859-115.234-3.879-14.754-13.339-25.406-23.605-29.574-10.226-3.784-23.29-3.309-33.922-.884-8.849 2.065-17.77 5.58-24.805 9.089 1.277-12.359 4.083-28.857 10.364-45.412 6.163-16.42 14.74-31.374 28.773-42.926 14.052-11.815 31.322-18.858 57.149-18.299 52.527.497 85.235 26.463 106.592 53.851 10.554 13.451 17.385 26.414 21.634 36.641 1.326 3.179.892 2.179 1.275 3.178-23.969-1.324-40.174 3.583-49.617 13.984-10.146 12.258-10.677 31.881-6.494 48.871 8.381 33.175 32.394 70.023 35.415 77.559 8.177 17.918 13.848 22.109 17.919 27.299-.903.322.083-.163-2.827 1.124-3.953 1.819-9.568 6.036-12.936 11.836-2.795 5.268-4.591 13.787-4.222 23.744 0 .008.001.015.001.023-1.273 15.493-8.541 75.124-12.277 97.033z"/></svg>