<svg clip-rule="evenodd" fill-rule="evenodd" stroke-linejoin="round" stroke-miterlimit="2" viewBox="0 0 250 250" xmlns="http://www.w3.org/2000/svg"><path fill="rgb(255, 255, 255)" d="m624.743-286.728-.006-.042c-1.013-7.698.45-14.909 4.402-21.619l4.608-9.317c.132-.266.275-.527.428-.781 4.011-6.639 9.396-11.153 16.015-13.699 6.238-2.398 12.927-3.015 20.075-1.715l.031.006.096.019 19.832 3.858c4.433-3.807 9.662-7.479 15.704-10.988 5.785-3.359 11.514-5.918 17.172-7.703l3.122-20.293c1.344-8.783 5.305-16.049 11.837-21.821 6.639-5.873 14.386-8.807 23.238-8.807h8.53c8.161 0 15.582 2.76 22.2 8.453 6.336 5.446 10.446 12.388 12.254 20.87l.021.104.062.332-.014.017.009.124.025-.028 3.356 21.143c5.202 1.788 10.698 4.288 16.472 7.536 6.261 3.523 11.612 7.213 16.076 11.035l19.182-3.822c6.548-1.31 13.318-.72 20.285 1.959 7.264 2.794 12.854 7.55 16.751 14.229l4.791 8.153.039.067.109.194-.004.007.03.063.006-.011c4.079 7.525 5.338 15.134 4.006 22.784-1.333 7.666-4.944 14.195-10.895 19.551l-15.886 15.354c.629 3.138.934 6.897.779 11.298-.142 4.02-.514 7.476-1.052 10.377l15.841 14.779c6.175 5.537 9.898 12.306 11.226 20.276 1.342 8.052-.006 15.436-3.93 22.164l-4.717 9.434c-.122.243-.253.482-.393.716-4.277 7.126-10.082 11.631-17.21 13.77-6.221 1.866-12.75 2.216-19.593.972l-19.047-3.809c-4.634 4.196-10.163 8.03-16.618 11.459-5.717 3.037-11.188 5.5-16.403 7.403l-3.194 20.757c-.037.24-.082.481-.136.717-1.891 8.404-6.118 15.34-12.658 20.815-6.738 5.636-14.294 8.388-22.607 8.388h-7.916c-8.203 0-15.684-2.582-22.405-7.828-6.926-5.41-11.077-12.494-12.423-21.263.592 2.96-.029-.181-.029-.181l-3.194-21.294c-5.558-1.94-11.183-4.463-16.869-7.581-6.207-3.404-11.576-7.203-16.13-11.36l-17.759 3.654c-7.255 1.921-14.373 1.521-21.355-1.191-7.128-2.767-12.711-7.456-16.729-14.091l-.056-.093-.211-.373-4.732-8.796c-3.953-6.664-5.473-13.978-4.475-21.962 1.023-8.176 4.591-14.996 10.692-20.464l16.237-15.151c-.453-3.102-.653-6.834-.502-11.207.13-3.777.397-6.976.754-9.602l-17.148-16.683c-5.319-4.624-8.707-10.757-9.894-18.539zm140.592 87.257c11.406 0 21.073-4.044 28.995-12.153 7.986-8.176 11.973-18.005 11.973-29.484 0-11.113-4.082-20.716-12.152-28.845-8.062-8.126-17.752-12.206-29.081-12.206-11.333 0-21.053 4.135-29.185 12.345-8.148 8.226-12.27 17.928-12.27 29.146 0 11.189 4.113 20.828 12.254 28.955 8.174 8.155 17.993 12.242 29.466 12.242zm-533.184 119.47c-26.785 0-50.096-9.84-69.886-29.622-19.782-19.79-29.622-43.101-29.622-69.886v-167.12c.001-22.783 13.556-43.381 34.48-52.393l.014-.006c11.729-5.026 22.237-12.65 31.599-22.729 16.073-17.301 24.106-37.804 24.106-61.508 0-23.707-8.039-44.257-24.12-61.65-9.537-10.317-20.264-18.189-32.208-23.58-20.545-9.151-33.782-29.537-33.782-52.018-.089-58.358-.089-166.765-.089-166.765 0-26.523 9.8-49.94 29.55-70.189 19.809-20.309 43.148-30.393 69.958-30.393h141.807c11.384-.001 21.88-6.15 27.446-16.08 12.914-23.34 29.239-42.948 48.918-58.864 25.862-20.919 55.153-31.362 87.861-31.362 32.709 0 62 10.443 87.862 31.362 19.677 15.915 36.002 35.522 48.949 58.841 5.559 9.92 16.043 16.062 27.414 16.062h.008c45.358.041 137.505.041 137.505.041 26.547 0 49.994 10.045 70.261 30.32 20.275 20.267 30.321 43.714 30.321 70.262v331.725c0 16.72-6.971 32.682-19.235 44.047-12.263 11.364-28.709 17.101-45.381 15.831l-2.791-.213c-28.815-2.196-51.075-26.217-51.075-55.116v-285.473c0-8.726-3.467-17.095-9.637-23.265s-14.539-9.637-23.265-9.637h-157.856c-28.675 0-51.92-23.245-51.92-51.92v-13.226c0-11.949-3.781-21.846-11.548-29.612-7.766-7.767-17.663-11.548-29.612-11.548-11.948 0-21.845 3.781-29.612 11.548-7.766 7.766-11.547 17.663-11.547 29.612v13.226c0 28.675-23.245 51.92-51.92 51.92h-162.152c-8.726 0-17.094 3.467-23.264 9.637-6.171 6.17-9.637 14.539-9.637 23.265v62.855c0 11.804 5.199 23.008 14.211 30.63 20.783 17.407 37.87 37.944 51.29 61.574 17.178 30.248 25.772 62.912 25.772 97.992 0 35.057-8.384 68.054-25.156 98.989-13.06 24.087-30.073 44.448-51.028 61.092-9.497 7.602-15.025 19.107-15.025 31.272v.03c-.064 17.526-.064 41.399-.064 61.733 0 8.726 3.466 17.094 9.637 23.265 6.17 6.17 14.538 9.636 23.264 9.636h58.454c13.647 0 26.357-6.938 33.739-18.414 16.151-25.503 36.318-45.768 60.414-60.864 16.533-10.358 38.849-17.553 63.036-21.378 18.066-2.868 36.481 2.32 50.393 14.197 13.794 11.777 21.788 28.959 21.919 47.044.086.879.103 1.757.103 2.634-.002 26.808-18.981 49.865-45.277 55.016-17.967 3.548-35.411 11.193-47.18 23.158-11.392 11.582-20.02 23.95-25.832 37.142-10.213 23.524-33.413 38.746-59.044 38.746-59.798.127-161.526.127-161.526.127z" transform="matrix(.252972 0 0 .252972 -10.7376 260.867)"/></svg>