<svg height="36" viewBox="0 0 36 36" width="36" xmlns="http://www.w3.org/2000/svg"><path fill="rgb(255, 255, 255)" d="m6.091 21.616c.424-.996 1.086-2.009 1.85-2.773.764-.765 1.772-1.439 2.771-1.853.998-.414 2.185-.639 3.266-.649h5.56c.958.045 1.673-.252 2.318-.962.71-.646 1.006-1.362.96-2.321.045-.961-.251-1.677-.961-2.322-.645-.71-1.358-1.006-2.317-.961h-6.447v3.21c0 .663-.537 1.201-1.2 1.201h-5.247c-.663 0-1.201-.538-1.201-1.201v-9.355c0-.663.538-1.201 1.201-1.201h13.248c2.739.047 5.572 1.221 7.542 3.129 1.905 1.973 3.122 4.806 3.122 7.549 0 2.742-1.217 5.577-3.123 7.547-1.969 1.908-4.8 3.083-7.539 3.129-.011 0-4.927 0-5.382 0-.069 0-.104.002-.174.011-.231.017-.34.054-.533.178-.132.071-.192.116-.297.229-.361.298-.462.541-.417 1.008v7.16c0 .663-.537 1.201-1.2 1.201h-5.247c-.663 0-1.201-.538-1.201-1.201 0-.006 0-1.921 0-1.927v-5.556c.01-1.083.246-2.266.648-3.27z"/></svg>