<svg xmlns="http://www.w3.org/2000/svg"><path fill="rgb(255, 255, 255)" d="m228.2 4.4c18.1-5.9 37.6-5.9 55.7 0 20.6 6.7 38.4 24.5 74.2 60.3l89.3 89.3c35.7 35.7 53.6 53.6 60.3 74.2 5.9 18.1 5.9 37.6 0 55.7-6.7 20.6-24.6 38.4-60.3 74.2l-89.4 89.2c-35.7 35.7-53.6 53.6-74.2 60.3-18.1 5.9-37.6 5.9-55.7 0-6.833-2.222-13.369-5.677-20.356-10.605 4.35-.42 8.541-1.145 12.347-2.175 15.325-6.365 29.285-18.341 47.183-36.239l133.897-133.797c17.726-17.826 29.822-31.782 36.237-47.156 3.49-12.896 3.502-30.223.012-43.119-6.365-15.325-18.341-29.285-36.239-47.183l-133.797-133.897c-17.826-17.726-31.782-29.822-47.156-36.237-3.818-1.033-8.024-1.761-12.388-2.184 6.989-4.93 13.526-8.385 20.36-10.608zm-86.662 74.293c17.165-17.165 25.7-25.699 35.577-28.864 8.726-2.78 18.028-2.78 26.754 0 9.877 3.165 18.412 11.795 35.577 28.864l128.305 128.401c17.165 17.165 25.699 25.7 28.864 35.577 2.78 8.726 2.78 18.028 0 26.754-3.165 9.877-11.795 18.412-28.864 35.576l-128.401 128.306c-17.165 17.165-25.7 25.699-35.577 28.864-8.726 2.78-18.028 2.78-26.754 0-9.877-3.165-18.412-11.795-35.576-28.864l-79.4-79.496c-34.234-34.234-51.399-51.303-57.824-71.057-5.657-17.356-5.657-36.056 0-53.412 6.425-19.754 23.494-36.919 57.824-71.153zm-24.829 222.872v49.517c0 4.142 3.358 7.5 7.5 7.5h34.714c4.142 0 7.5-3.358 7.5-7.5v-47.378c-.286-3.172.45-4.945 2.891-6.988.852-.917 1.377-1.299 2.487-1.817 1.613-.926 2.608-1.181 4.484-1.073h35.594c18.041-.292 36.623-8.003 49.581-20.574 12.549-12.974 20.53-31.568 20.53-49.628 0-18.065-7.98-36.657-20.534-49.637-12.96-12.572-31.54-20.278-49.585-20.57h-87.662c-4.142 0-7.5 3.358-7.5 7.5v61.902c0 4.142 3.358 7.5 7.5 7.5h34.714c4.142 0 7.5-3.358 7.5-7.5v-21.684h43.109c6.419-.286 11.303 1.74 15.642 6.487 4.745 4.345 6.488 9.242 6.488 15.674 0 6.437-1.738 11.329-6.483 15.681-4.339 4.746-9.223 6.771-15.647 6.485h-36.79c-7.108.072-14.858 1.613-21.453 4.269-6.536 2.788-13.104 7.178-18.183 12.164-4.972 5.081-9.359 11.653-12.143 18.203-2.648 6.597-4.187 14.35-4.254 21.467z"/></svg>