<svg height="800" viewBox="0 0 192 192" width="800" xmlns="http://www.w3.org/2000/svg"><path fill="rgb(255, 255, 255)" d="m140.752 95.57c3.641 3.93 7.703 8.288 17.801 19.33 5.049 5.521 10.088 11.076 13.811 15.277 1.866 2.106 3.433 3.908 4.499 5.19.544.654 1.02 1.251 1.326 1.67.176.243.411.595.548.845.108.197.327.694.416 1.039.077.299.159 1.097.093 1.58-.104.751-1.179 2.164-1.865 2.872-3.342 1.927-6.659 3.093-9.743 3.711-4.162.865-7.911.73-10.744.11-5.235-1.146-8.718-3.664-8.718-3.664-.215-.156-.413-.333-.592-.529l-41.143-44.812c-1.41-1.535-1.404-3.896.013-5.424 0 0 31.557-34.041 41.317-45.061 2.878-3.25 6.795-5.218 10.105-5.859.162-.034.323-.065.483-.093 3.411-.596 7.165-.096 9.976.711 5.734 1.645 10.174 4.914 10.174 4.914.91.672 1.492 1.697 1.604 2.822s-.257 2.245-1.017 3.083zm-41.436 10.581 48.75 53.547c.738.811 1.111 1.889 1.032 2.983-.08 1.093-.605 2.106-1.452 2.802 0 0-3.621 2.95-8.688 4.267-3.186.828-7.563.785-12.113-.988-4.78-1.593-7.938-4.436-7.938-4.436l-22.796-23.588-22.796 23.588s-3.158 2.843-7.938 4.436c-4.55 1.773-8.927 1.816-12.113.988-5.067-1.317-8.688-4.267-8.688-4.267-.847-.696-1.372-1.709-1.452-2.802-.079-1.094.294-2.172 1.032-2.983l48.75-53.547c.754-.828 1.82-1.302 2.939-1.307.089 0 .178.002.266.008.088-.006.177-.008.266-.008 1.119.005 2.185.479 2.939 1.307zm-.24-21.287-.001.001c-.814.815-1.895 1.206-2.964 1.17-1.069.036-2.15-.355-2.964-1.17l-.001-.001c-.054-.053-.105-.107-.154-.162l-18.382-20.19c-1.928-2.095-3.906-4.246-5.881-6.398-6.118-6.666-12.225-13.356-16.758-18.404-1.074-1.196-2.065-2.306-2.949-3.304l-4.755-5.223c-.738-.811-1.111-1.889-1.031-2.983.079-1.093.604-2.106 1.451-2.802 0 0 3.621-2.95 8.688-4.267 3.585-.932 8.68-.761 13.832 1.74 3.726 1.642 6.187 3.867 6.187 3.867l22.717 23.521 22.717-23.521s2.461-2.225 6.187-3.867c5.152-2.501 10.247-2.672 13.832-1.74 5.067 1.317 8.688 4.267 8.688 4.267.847.696 1.372 1.709 1.451 2.802.08 1.094-.293 2.172-1.031 2.983l-4.755 5.223c-.884.998-1.875 2.108-2.949 3.304-4.533 5.048-10.64 11.738-16.758 18.404-1.975 2.152-3.953 4.303-5.881 6.398l-18.382 20.19c-.049.055-.1.109-.154.162zm-54.625-37.16c9.76 11.02 41.317 45.061 41.317 45.061 1.417 1.528 1.423 3.889.013 5.424l-41.143 44.812c-.179.196-.377.373-.592.529 0 0-3.483 2.518-8.718 3.664-2.833.62-6.582.755-10.744-.11-3.084-.618-6.401-1.784-9.743-3.711-.686-.708-1.761-2.121-1.865-2.872-.066-.483.016-1.281.093-1.58.089-.345.308-.842.416-1.039.137-.25.372-.602.548-.845.306-.419.782-1.016 1.326-1.67 1.066-1.282 2.633-3.084 4.499-5.19 3.723-4.201 8.762-9.756 13.811-15.277 10.098-11.042 14.16-15.4 17.801-19.33l-38.344-42.288c-.76-.838-1.129-1.958-1.017-3.083s.694-2.15 1.604-2.822c0 0 4.44-3.269 10.174-4.914 2.811-.807 6.565-1.307 9.976-.711.16.028.321.059.483.093 3.31.641 7.227 2.609 10.105 5.859z"/></svg>