<svg viewBox="0 0 48 48" xmlns="http://www.w3.org/2000/svg"><path fill="rgb(255, 255, 255)" d="m24 .536c12.95 0 23.463 10.514 23.463 23.465 0 12.949-10.513 23.463-23.463 23.463s-23.463-10.514-23.463-23.463c0-12.951 10.513-23.465 23.463-23.465zm10.802 23.258c.473-.127.832-.398 1.074-.815.242-.418.293-.876.16-1.372l-3.593-13.411c-.133-.497-.405-.868-.82-1.111-.413-.241-.855-.296-1.328-.169-.503.134-.883.412-1.138.836-.253.42-.31.878-.178 1.372l3.593 13.411c.134.495.41.864.836 1.103.427.24.893.289 1.394.156zm3.161 11.8c.474-.127.832-.399 1.074-.816.243-.418.294-.875.161-1.372l-.798-2.98c-.06-.222.072-.45.294-.51l1.209-.324c.471-.126.829-.395 1.07-.809.242-.415.291-.872.158-1.368-.127-.478-.403-.844-.825-1.098-.419-.251-.862-.314-1.332-.188l-6.645 1.78c-.496.133-.868.405-1.11.821-.242.412-.297.855-.169 1.328.133.502.411.881.836 1.138.42.252.877.31 1.371.177l1.168-.313c.223-.06.451.072.511.294l.788 2.941c.133.499.414.874.845 1.125.43.251.896.306 1.394.174zm-25.463-13.033c.499-.134.873-.407 1.114-.826.244-.419.295-.875.162-1.372l-1.792-6.685c-.133-.496-.404-.868-.819-1.112-.415-.241-.872-.29-1.369-.158-.478.128-.844.404-1.098.826-.252.42-.309.878-.177 1.372l1.791 6.685c.128.474.406.835.835 1.086.428.25.88.31 1.353.184zm4.965 18.525c.497-.133.871-.406 1.113-.826.244-.418.294-.876.162-1.371l-2.601-9.706c-.06-.222.072-.451.294-.511l1.168-.313c.497-.133.869-.403 1.112-.82.242-.415.291-.871.158-1.368-.128-.478-.403-.844-.826-1.098-.42-.253-.877-.31-1.372-.177l-6.604 1.771c-.497.131-.868.403-1.112.818-.24.414-.295.857-.169 1.329.135.502.413.882.837 1.138.42.252.877.31 1.372.177l1.167-.313c.223-.06.452.073.512.295l2.589 9.665c.134.499.414.875.845 1.127.428.249.88.31 1.355.183zm10.228-2.741c.476-.127.839-.408 1.089-.84.252-.433.308-.899.175-1.397l-3.603-13.452c-.127-.474-.407-.835-.835-1.086-.428-.249-.879-.311-1.354-.183-.475.127-.838.408-1.089.84-.249.431-.313.884-.186 1.357l3.604 13.452c.134.498.414.874.847 1.125.427.25.878.312 1.352.184zm-8.741-19.282 6.686-1.791c.471-.128.829-.396 1.07-.81.242-.415.292-.871.159-1.368-.129-.478-.403-.844-.827-1.098-.417-.251-.861-.314-1.33-.189l-1.209.325c-.222.059-.451-.073-.511-.295l-.776-2.9c-.128-.474-.406-.835-.836-1.086-.427-.249-.879-.311-1.352-.183-.477.127-.839.408-1.089.84-.251.431-.313.884-.187 1.356l.777 2.901c.06.222-.072.451-.295.511l-1.168.313c-.475.127-.84.4-1.093.82-.253.417-.309.872-.177 1.368.128.478.405.843.826 1.097.418.251.862.314 1.332.189z"/></svg>