<svg height="48" viewBox="0 -960 960 960" width="48" xmlns="http://www.w3.org/2000/svg"><path fill="rgb(255, 255, 255)" d="m722.92-633c4.72 4.67 7.08 10.46 7.08 17.38 0 6.93-2.36 12.93-7.08 18-4.727 5.08-10.7 7.62-17.92 7.62h-63v63c0 6.55-2.333 12.36-7 17.42-4.667 5.05-10.46 7.58-17.38 7.58-.159 0-.318 0-.476 0-.008 0-.015 0-.023 0-6.94 0-12.94-2.4-18-7.4-5.08-5.2-7.62-11-7.62-17.6v-63h-62.501c-.151 0-.302 0-.453 0h-.046c-6.56 0-12.36-2.4-17.42-7.4s-7.58-10.8-7.58-17.4c0-7.2 2.52-13.2 7.58-18s10.86-7.2 17.42-7.2h63v-63c0-7.2 2.5-13.2 7.5-17.8 5-4.8 10.78-7.2 17.38-7.2h.511c7.255 0 13.251 2.36 17.988 7.08 4.747 4.73 7.12 10.7 7.12 17.92v63h62.502.509c7.215 0 13.184 2.33 17.909 7zm-294-52.88c4.72 4.74 7.08 10.57 7.08 17.5 0 6.92-2.267 12.71-6.8 17.38s-10.267 7-17.2 7h-153c-.159 0-.318 0-.477 0h-.023c-6.68 0-12.34-2.2-17-7-4.68-4.6-7-10.2-7-16.8 0-7.2 2.42-13.2 7.3-18 4.86-4.8 10.42-7.2 16.7-7.2h152.001.509c7.215 0 13.185 2.37 17.91 7.12zm0 106.88c4.72 4.67 7.08 10.46 7.08 17.38 0 6.93-2.36 12.93-7.08 18-4.727 5.08-10.7 7.62-17.92 7.62h-151c-.151 0-.302 0-.453 0h-.047c-6.56 0-12.36-2.4-17.42-7.4s-7.58-10.8-7.58-17.4c0-7.2 2.52-13.2 7.58-18s10.86-7.2 17.42-7.2h151.001.509c7.215 0 13.185 2.33 17.91 7zm-29.1 157c7.027 0 12.753 2.67 17.18 8 5.333 4.47 8 10.31 8 17.5s-2.667 13.36-8 18.5l-43 43 43 43c5.333 4.43 8 10.15 8 17.18s-2.667 13.31-8 18.82c-4.667 4.67-10.56 7-17.68 7-.17 0-.34 0-.509 0-7.116-.01-13.232-2.21-18.31-7l-42.749-42.75-42.752 42.75c-4.427 4.67-10.153 7-17.18 7-.168 0-.336 0-.503 0-7.039 0-13.318-2.21-18.817-7-4.68-5.4-7-11.8-7-18.8s2.32-12.6 7-17.2l43-43-43-43c-4.68-5.4-7-11.6-7-18.6 0-6.8 2.32-12.6 7-17.4 5.5-5.2 11.78-8 18.82-8h.46.04c7.027 0 12.753 2.67 17.18 8l42.748 42.75 42.753-42.75c5.5-5.2 11.78-8 18.82-8h.46zm308.1 73c4.72 4.67 7.08 10.63 7.08 17.88 0 7.26-2.36 13.26-7.08 18-4.727 4.75-10.7 7.12-17.92 7.12h-146c-.157 0-.313 0-.469 0h-.03c-6.56 0-12.36-2.2-17.42-7-5.06-4.6-7.58-10.6-7.58-17.8s2.52-13.2 7.58-18 10.86-7.2 17.42-7.2h146.001.509c7.215 0 13.184 2.33 17.909 7zm130.61-489.53c18.313 18.32 27.47 40.5 27.47 66.53v582c0 26.31-9.157 48.72-27.47 67.23-18.32 18.51-40.497 27.77-66.53 27.77h-582c-.381 0-.76-.002-1.139-.006-26.044-.148-48.231-9.344-66.601-27.594-18.52-18.6-27.76-41-27.76-67.4v-582c0-26 9.24-48.2 27.76-66.4 18.52-18.4 40.92-27.6 67.24-27.6h582.002.911c25.854.1 47.894 9.26 66.117 27.47zm-648.53 66.53v582h581.502v-582z"/></svg>