<svg clip-rule="evenodd" fill-rule="evenodd" stroke-linejoin="round" stroke-miterlimit="2" viewBox="0 0 500 500" xmlns="http://www.w3.org/2000/svg"><path fill="rgb(255, 255, 255)" d="m250 26.723c123.231 0 223.278 100.047 223.278 223.277 0 123.231-100.047 223.278-223.278 223.278-123.23 0-223.277-100.047-223.277-223.278 0-123.23 100.047-223.277 223.277-223.277zm-186.943 223.277c0 82.925 54.109 153.31 128.917 177.747v-68.987c-2.038 2.267-4.22 4.278-6.333 5.828-2.941 2.066-6.569 3.764-10.027 4.691-3.339.827-7.296 1.308-11.24 1.308-17.043 0-30.771-9.16-38.871-24.79-7.297-15.339-11.113-39.836-11.113-72.381 0-33.592 3.786-59.059 11.057-75.357 7.917-16.639 21.253-26.409 37.689-26.409 8.744 0 16.796 2.596 22.587 6.922 5.466 4.436 4.181 3.879 6.251 6.517v-5.34c0-2.813 2.281-5.093 5.094-5.093h33.755c2.812 0 5.094 2.28 5.094 5.093v256.67c4.65.346 9.346.523 14.083.523 103.176 0 186.942-83.766 186.942-186.942 0-82.926-54.111-153.312-128.919-177.748v111.542c2.112-2.351 4.262-4.337 6.34-5.821 5.537-3.946 13.192-6.324 21.437-6.324 8.434 0 16.517 2.282 22.88 6.186 6.249 4.115 11.806 10.735 15.74 18.809 3.748 7.952 6.647 18.268 8.479 30.236 1.791 11.882 2.71 26.107 2.71 42.294 0 33.591-3.794 59.008-11.064 75.193-7.928 16.523-21.32 26.22-37.861 26.22-8.729 0-16.719-2.53-22.397-6.737-5.35-4.315-4.173-3.861-6.263-6.522v5.335c0 2.813-2.281 5.095-5.094 5.095h-33.756c-2.813 0-5.093-2.282-5.093-5.095v-299.082c-4.649-.347-9.344-.524-14.081-.524-103.177 0-186.943 83.765-186.943 186.943zm96.514 20.41c0 23.797 1.441 39.718 4.49 48.707 1.395 4.238 2.958 6.589 5.237 8.471 2.19 1.811 3.967 2.411 7.269 2.411 2.865 0 4.297-.543 6.35-2.397 2.188-1.976 3.786-4.545 5.271-9.015 3.307-10.088 4.847-25.524 4.847-47.292 0-21.887-1.573-37.483-4.881-47.569-1.484-4.47-3.049-6.939-5.237-8.915-2.053-1.854-3.485-2.398-6.35-2.398-3.178 0-4.886.584-7.053 2.37-2.262 1.866-3.847 4.211-5.299 8.41-3.148 8.073-4.644 23.556-4.644 47.217zm180.855 1.768c0-24.611-1.476-40.57-4.625-48.764-1.338-4.233-2.921-6.733-5.164-8.607-2.156-1.8-3.907-2.394-7.208-2.394-3.015 0-4.529.549-6.573 2.35-2.157 1.902-3.667 4.32-5.025 8.64-3.06 8.983-4.514 24.69-4.514 47.892 0 23.083 1.446 38.769 4.509 47.878 1.353 4.255 2.854 6.625 5.008 8.5 2.042 1.78 3.57 2.326 6.595 2.326 3.179 0 4.887-.583 7.054-2.37 2.263-1.865 3.847-4.21 5.302-8.41 3.146-8.073 4.641-23.498 4.641-47.041z" stroke-width="2.285"/></svg>