<svg viewBox="0 -32 256 256" xmlns="http://www.w3.org/2000/svg"><path fill="rgb(255, 255, 255)" d="m242.129 17.783v126.972c0 2.525-.992 4.947-2.763 6.746l-28.995 29.462c-1.808 1.838-4.277 2.872-6.855 2.872h-180.027c-5.312 0-9.618-4.306-9.618-9.618v-126.972c0-2.524.992-4.947 2.763-6.746l28.995-29.462c1.808-1.838 4.277-2.872 6.855-2.872h180.027c5.312 0 9.618 4.306 9.618 9.618zm-174.29 37.371c-5.736 8.457-8.848 21.477-8.848 38.13 0 16.578 3.055 29.476 8.737 37.596 6.144 8.097 17.087 12.653 31.432 12.653 3.883 0 4.668-.156 6.43-.412l10.573 17.646c.864 1.441 2.681 1.993 4.2 1.273l13.606-6.443c.837-.396 1.465-1.128 1.732-2.014.265-.886.142-1.843-.338-2.634l-9.54-15.696c4.347-3.787 7.34-7.839 9.838-14.921 2.28-6.896 3.525-16.121 3.525-27.118 0-16.718-3.038-29.722-8.771-38.123-6.142-8.473-17.029-13.212-31.255-13.212-14.236 0-25.122 4.808-31.321 13.275zm107.169-8.061h-14.318c-1.804 0-3.266 1.462-3.266 3.265v16.279h-6.851c-1.803 0-3.266 1.463-3.266 3.266v12.452c0 1.804 1.463 3.266 3.266 3.266h6.851v28.006c.036 10.045 1.819 17.653 4.917 21.803 3.53 4.001 9.935 6.438 17.94 6.438 3.342 0 8.149-.625 14.098-1.799 1.595-.317 2.715-1.758 2.626-3.383l-.64-11.728c-.097-1.782-1.608-3.157-3.393-3.085l-10.796.435c-1.271.013-1.883-.108-2.53-.391-.512-.223-.418.043-.429-.321-.65-1.259-.954-4.252-.942-9.561v-26.342h14.972c1.804 0 3.266-1.462 3.266-3.267v-12.523c0-1.803-1.462-3.266-3.266-3.266h-14.972v-16.279c0-1.803-1.463-3.265-3.267-3.265zm-61.473 20.165c2.883 5.161 4.159 13.445 4.159 25.7 0 12.177-1.26 20.266-3.981 24.974-2.257 4.558-6.523 6.228-14.292 6.228-7.761 0-12.096-1.736-14.357-6.363-2.798-4.773-4.058-12.883-4.058-24.986 0-12.166 1.34-20.353 4.216-25.529 2.419-4.996 6.674-6.777 14.199-6.777s11.775 1.772 14.114 6.753z"/></svg>