<?xml version="1.0" encoding="utf-8"?>
<svg viewBox="0 -32 256 256" xmlns="http://www.w3.org/2000/svg">
  <path fill="rgb(255, 255, 255)" d="M 160.523 172.403 L 160.523 155.785 C 160.523 154.568 160.771 153.377 161.269 152.21 C 161.765 151.042 162.513 149.961 163.506 148.967 L 208.381 104.058 C 209.958 102.478 211.715 101.294 213.653 100.505 C 215.592 99.716 217.626 99.322 219.756 99.322 C 221.745 99.322 223.733 99.748 225.722 100.6 C 227.71 101.452 229.485 102.661 231.049 104.222 L 238.932 112.105 C 240.495 113.669 241.667 115.409 242.447 117.327 C 243.227 119.243 243.619 121.197 243.619 123.186 C 243.619 125.315 243.193 127.376 242.341 129.364 C 241.488 131.353 240.276 133.137 238.702 134.717 L 193.975 179.649 C 192.981 180.643 191.9 181.354 190.732 181.78 C 189.565 182.206 188.374 182.418 187.155 182.418 L 170.537 182.418 C 167.731 182.418 165.362 181.451 163.427 179.514 C 161.49 177.579 160.523 175.209 160.523 172.403 Z M 176.503 166.438 L 184.599 166.438 L 209.741 141.084 L 205.907 137.035 L 201.859 133.2 L 176.503 158.343 L 176.503 166.438 Z M 209.741 141.084 L 201.859 133.2 L 205.907 137.035 L 209.741 141.084 Z M 213.042 18.037 L 213.042 82.552 C 213.042 84.772 212.17 86.901 210.613 88.483 L 136.486 161.489 C 134.897 163.104 132.726 164.013 130.46 164.013 L 20.836 164.013 C 16.166 164.013 12.381 160.228 12.381 155.558 L 12.381 43.937 C 12.381 41.718 13.253 39.588 14.81 38.007 L 40.299 12.107 C 41.889 10.491 44.059 9.582 46.326 9.582 L 204.587 9.582 C 209.257 9.582 213.042 13.367 213.042 18.037 Z M 46.037 50.89 C 40.995 58.324 38.259 69.77 38.259 84.41 C 38.259 98.984 40.945 110.322 45.94 117.461 C 51.341 124.579 60.961 128.584 73.572 128.584 C 76.985 128.584 77.675 128.447 79.224 128.222 L 88.519 143.734 C 89.278 145.001 90.876 145.486 92.211 144.853 L 104.172 139.189 C 104.908 138.841 105.46 138.198 105.695 137.419 C 105.928 136.64 105.82 135.799 105.398 135.103 L 97.011 121.305 C 100.832 117.976 103.464 114.414 105.66 108.188 C 107.664 102.126 108.758 94.016 108.758 84.348 C 108.758 69.652 106.088 58.22 101.048 50.835 C 95.648 43.386 86.078 39.22 73.572 39.22 C 61.057 39.22 51.487 43.447 46.037 50.89 Z M 140.249 43.803 L 127.663 43.803 C 126.077 43.803 124.791 45.089 124.791 46.674 L 124.791 60.985 L 118.769 60.985 C 117.184 60.985 115.898 62.271 115.898 63.856 L 115.898 74.802 C 115.898 76.388 117.184 77.673 118.769 77.673 L 124.791 77.673 L 124.791 102.293 C 124.823 111.124 126.39 117.812 129.114 121.46 C 132.217 124.978 137.848 127.12 144.885 127.12 C 147.823 127.12 152.049 126.571 157.279 125.539 C 158.681 125.26 159.665 123.993 159.587 122.565 L 159.024 112.255 C 158.939 110.688 157.611 109.479 156.042 109.543 L 146.551 109.925 C 145.434 109.936 144.896 109.83 144.327 109.581 C 143.877 109.385 143.959 109.619 143.95 109.299 C 143.378 108.192 143.111 105.561 143.122 100.894 L 143.122 77.737 L 156.283 77.737 C 157.869 77.737 159.155 76.451 159.155 74.865 L 159.155 63.856 C 159.155 62.271 157.869 60.985 156.283 60.985 L 143.122 60.985 L 143.122 46.674 C 143.122 45.089 141.835 43.803 140.249 43.803 Z M 86.209 61.531 C 88.743 66.068 89.865 73.35 89.865 84.123 C 89.865 94.828 88.757 101.939 86.365 106.078 C 84.381 110.085 80.631 111.553 73.801 111.553 C 66.978 111.553 63.167 110.027 61.18 105.959 C 58.72 101.763 57.612 94.634 57.612 83.994 C 57.612 73.299 58.79 66.102 61.319 61.552 C 63.445 57.16 67.186 55.594 73.801 55.594 C 80.416 55.594 84.152 57.152 86.209 61.531 Z" style="stroke-width: 1;"/>
</svg>