<svg height="48" width="48" xmlns="http://www.w3.org/2000/svg"><path fill="rgb(255, 255, 255)" d="m7.984 23.464c8.499 0 15.388 6.889 15.388 15.388v3.078h-6.155v-3.078c0-5.098-4.135-9.233-9.233-9.233h-3.078v-6.155zm4.309 14.773c0 2.039-1.654 3.693-3.694 3.693s-3.693-1.654-3.693-3.693c0-2.04 1.653-3.694 3.693-3.694s3.694 1.654 3.694 3.694zm-3.694-27.084c14.957 0 27.084 12.126 27.084 27.084v3.693h-6.156v-3.693c0-11.559-9.369-20.929-20.928-20.929h-3.693v-6.155zm22.519 8.617 1.208-5.803-4.03-4.046h5.311l2.076-4.924 2.076 4.924h5.311l-4.03 4.046 1.208 5.803-4.565-3.164z"/></svg>