<svg height="48" viewBox="0 0 48 48" width="48" xmlns="http://www.w3.org/2000/svg"><path fill="rgb(255, 255, 255)" d="m28.889 5.374c11.281 3.523 18.156 13.649 15.355 22.616-1.052 3.371-3.322 6.098-6.345 8.002 1.619 2.116 3.245 4.356 3.648 5.024l-.001.004-6.863.004-1.892-2.796c-1.824.51-3.777.794-5.8.829v1.958l-5.958.003v-2.564c-.761-.167-1.524-.368-2.286-.606-11.281-3.524-18.156-13.649-15.356-22.616 2.801-8.968 14.216-13.381 25.498-9.858zm-17.989 13.93c-1.975 6.327 2.513 13.428 10.133 16.398v-17.684h12.972s5.257.97 5.364 6.177c.119 5.805-5.081 7.513-5.081 7.513.28.115 1.337 1.371 2.566 2.936.289-.191.568-.392.837-.602-.269.211-.548.412-.837.602 0 0 .001.001.001.001 2.146-1.412 3.755-3.394 4.515-5.825.463-1.48.571-3.003.369-4.505.037.314.061.628.073.941-.273-5.761-5.122-11.18-11.898-13.299-8.408-2.625-16.915.658-19.01 7.334.038-.119.077-.238.119-.357-.043.122-.084.246-.123.37zm19.106 14.807s-.753-1.295-1.216-1.671c-.386-.313-.551-.425-.933-.425h-.868l.001 5.004c.099.006.198.011.297.016-.099-.004-.198-.009-.297-.015v.012c1.654.106 3.263-.009 4.774-.323l-.007-.01c-.011.002-.021.005-.032.007.011-.002.021-.005.032-.007zm1.256-11.105-4.212-.003-.002 3.911 4.214-.001s1.952-.006 1.952-1.989c0-2.023-1.952-1.917-1.952-1.917zm-20.362-3.701c.001-.005.003-.009.004-.014-.001.005-.003.009-.004.014zm-.255 1.048c-.035.182-.064.365-.089.549.024-.183.051-.366.088-.548zm-.112.731c.007-.061.015-.122.023-.182-.008.06-.016.121-.023.182zm-.079 1.053c.003-.184.009-.368.023-.552-.013.184-.02.368-.023.552zm0 .282c-.001-.094-.001-.188 0-.282-.001.094-.001.188 0 .282zm.054 1.044c-.022-.203-.04-.406-.049-.61.011.203.027.406.049.61zm.029.245c-.011-.082-.02-.163-.029-.245.009.082.019.163.029.245zm.151.912c-.035-.157-.066-.313-.092-.47.027.157.058.313.092.47zm.088.376c-.032-.125-.061-.251-.088-.376.027.125.057.251.088.376zm.107.434c.039.133.081.265.125.397-.045-.131-.087-.263-.125-.396zm.275.821c-.053-.141-.103-.282-.15-.424.048.142.099.283.15.424zm30.659-.513c0 .042 0 .085-.001.127 0-.042 0-.084 0-.126zm-.003.324c-.003.135-.008.27-.017.405.008-.135.014-.27.017-.405zm-30.284 1.109c-.07-.151-.139-.303-.201-.456.064.153.131.305.201.456zm.145.302c-.05-.1-.098-.201-.145-.302.048.101.096.202.145.302zm30.048-.328c-.014.116-.03.231-.048.347.017-.115.032-.231.048-.347zm-.048.347c-.012.083-.026.165-.042.247.015-.082.029-.165.042-.247zm-29.765.463c.089.163.181.324.277.485-.096-.159-.191-.319-.277-.481zm.428.731c-.051-.082-.101-.164-.151-.246.05.082.101.164.151.246zm.292.475c.087.128.177.254.269.379-.093-.125-.184-.251-.27-.379zm.519.711c-.085-.11-.169-.22-.25-.332.082.111.166.221.25.332zm27.442.78c.115-.211.222-.425.322-.643-.1.219-.207.434-.322.643zm-.278.48c.097-.157.19-.317.278-.48-.088.162-.181.322-.278.48zm-2.622 2.91c1.064-.835 1.948-1.816 2.623-2.91-.684 1.111-1.573 2.088-2.623 2.91zm-23.907-3.38c-.105-.118-.208-.237-.306-.358.1.121.202.24.306.358zm.393.431c-.134-.142-.265-.285-.393-.431.129.145.261.288.393.431zm.261.291c.341.351.7.69 1.078 1.018-.377-.326-.737-.666-1.078-1.017zm1.079 1.019c1.157.999 2.468 1.868 3.888 2.576-1.444-.718-2.749-1.59-3.889-2.576zm5.327 3.221c-.494-.199-.973-.413-1.438-.645.469.233.949.448 1.438.645zm10.881 1.082c-.125.028-.251.054-.379.077.127-.024.253-.05.379-.077zm-.996.169c-.143.022-.286.041-.43.059.144-.018.287-.038.43-.059zm-.43.059c-.162.021-.324.039-.488.054.163-.016.326-.034.488-.054zm-2.54.115c-.157-.003-.314-.008-.472-.014.157.006.314.01.472.014zm1.574-.029c-.112.007-.223.014-.335.019.112-.005.223-.012.335-.019zm-.335.019c-.234.012-.47.021-.708.022.237-.003.473-.01.708-.022zm12.818-11.174c0 .066-.001.131-.002.197.001-.066.002-.131.002-.197z"/></svg>