<svg viewBox="55.52 0 400.93 512.02" xmlns="http://www.w3.org/2000/svg"><path fill="rgb(255, 255, 255)" d="m179.483 32.462c7.623.94 9.73 2.262 12.532 3.257 5.289-.714 9.33-.728 13.006.69 4.091 1.578 3.463 1.639 4.4 2.248 5.609-.104 10.037.294 14.285 2.726 4.379 2.506 4.401 3.097 6.055 4.711l.626-.013c2.131-.042 4.232.51 6.068 1.592 17.565 11.704 14.579 12.849 19.531 20.317 4.954-7.468 1.971-8.616 19.537-20.311 1.835-1.081 3.933-1.631 6.062-1.59l.795.016c1.661-1.536 1.505-2.209 5.884-4.716 4.248-2.431 8.811-2.957 14.566-2.745.479.224.024-.65 4.115-2.227 3.675-1.418 7.556-1.459 12.773-.743 1.722-.724 2.259-1.529 6.971-2.622 4.706-1.091 8.16-.182 13.133 1.649 3.811-1.43 4.486-1.439 9.195-1.276 4.786.165 7.488 1.487 11.311 3.54 5.631-.572 6.915.088 10.324 1.379 4.282 1.623 3.151 1.516 4.489 2.491 1.653.005.282-.49 5.834.297 5.163.732 8.851 2.753 13.588 6.252 4.806-.424 5.127.114 8.749 1.431 4.056 1.475 8.764 5.244 10.866 8.468 2.138 3.277 3.561 8.843 3.437 12.651-.116 3.596-.444 3.79-1.027 5.839.824 2 1.622 1.328 2.148 6.729.472 4.84-.985 8.644-3.507 13.547 1.784 4.427 1.073 3.78-.289 8.454-1.209 4.148-2.686 6.239-4.885 9.319.831 5.291.029 5.574-1.97 9.694-1.984 4.088-3.531 5.381-5.88 7.64-1.384 5.253-2.638 8.813-6.109 12.473-3.637 3.836-4.057 3.726-5.752 4.94-1.073 2.521-.795 3.728-4.379 7.736-3.146 3.517-6.414 5.238-11.169 7.24-.31.926-.602 1.709-.888 2.377 5.474 4.478 10.609 9.695 14.771 15.82 7.843 11.544 12.474 26.741 13.153 46.273l.333.594c12.458 9.289 24.834 25.266 29.435 45.444 4.545 19.934.253 43.833-15.916 64.931-2.513 11.418-5.555 18.711-8.533 27.242-3.314 21.137-13.735 36.916-24.101 47.076-10.785 10.57-19.877 14.845-26.091 17.256-12.415 9.442-24.39 17.267-41.948 23.937-18.232 17.069-38.671 24.726-58.63 25.063h-.793c-19.957-.338-40.406-7.995-58.645-25.068-17.672-6.756-29.965-14.917-41.983-23.966-6.184-2.465-15.259-6.651-26.044-17.222-10.366-10.161-20.543-26.587-24.101-47.076-3.069-8.89-6.065-15.95-8.538-27.25-16.137-21.088-20.457-44.988-15.911-64.919 4.601-20.176 16.924-36.177 29.441-45.451l.329-.586c.696-19.518 5.307-34.727 13.15-46.272 4.245-6.249 9.503-11.552 15.1-16.089-.431-.676-.868-1.404-1.346-2.198-6.852-2.028-7.898-3.632-11.044-7.15-3.585-4.01-3.637-5.343-4.649-8.031-1.611-1.207-1.837-.803-5.476-4.639-3.471-3.66-4.831-7.284-6.181-12.639-3.426-2.527-3.825-3.39-5.809-7.477-1.999-4.119-1.934-6.227-2.053-9.881-3.414-3.914-3.594-4.989-4.801-9.138-1.36-4.672-.783-5.695-.384-8.757-2.322-4.795-3.881-8.403-3.411-13.241.524-5.401 1.111-5.12 2.082-7.217-1.742-3.502-.847-1.761-.964-5.355-.123-3.808 1.298-9.374 3.435-12.651 2.101-3.223 6.808-6.994 10.862-8.469 3.622-1.318 5.565-1.351 8.841-1.474 5.621-6.389 8.335-5.478 13.5-6.21 5.553-.787 4.602-.413 6.35-.388 1.23-.853-.316-.777 3.97-2.401 3.411-1.294 6.367-1.458 10.486-1.405 3.784-1.947 6.373-3.348 11.157-3.514 4.708-.163 5.985.399 8.853 1.126 2.77-1.141 3.85-1.714 7.679-2.088zm-16.517 62.201c2.357-5.541 8.589-8.326 14.289-6.385 15.171 5.185 24.498 7.506 33.281 11.202 8.867 3.732 14.13 7.21 23.157 14.133.525-.801.13.332 1.307-2.871 1.143-3.113 1.032-5.283-.166-9.869-2-7.659-6.392-14.928-11.172-20.495-2.39-.493-5.522-1.932-7.564-3.104-2.136-1.226-4.519-2.843-6.739-4.466-1.914-.092-4.078-.457-5.617-.851-1.526-.391-3.273-.977-5.039-1.662-2.781.438-6.403.02-8.525-.457-2.4-.541-5.239-1.421-7.956-2.353-1.793.435-3.714.68-5.125.73-2.447.086-5.682-.109-9.125-.516-1.874.911-4.051 1.621-5.571 1.943-2.068.438-4.771.692-7.501.754-.272.173-.517.311-.724.407-2.081.968-5.223 1.67-7.475 2.066-4.316.758-5.127.784-7.517 1.177-.346 1.003 2.795 1.718-8.678 3.185-.008.369-.026.99-.058 1.988-.063 1.957-.491 4.744-1.202 6.998.891 2.196 1.643 4.286 2.1 6.029.375 1.428.697 3.916.576 6.263.888 1.552 1.833 3.228 2.646 4.875.954 1.931 2.309 5.398 2.513 8.139 1.201 1.628 2.342 3.3 3.232 4.805 1.056 1.786 2.413 4.644 2.939 6.901 1.761 1.811 3.536 3.688 4.987 5.348 1.367 1.564 3.015 3.652 3.918 5.238.063.11.13.238.2.384 1.858 1.291 4.127 2.794 6.251 4.299 1.805 1.28 3.995 2.937 5.37 4.305.304.303.725.796 1.178 1.405 2.669 1.301 5.585 2.572 8.138 3.786 1.544.734 3.386 1.669 4.845 2.587 5.649.009 12.915-.576 20.061-2.854 9.41-3.001 14.332.285 15.228-9.506-3.74-4.151-4.736-5.54-9.986-9.264-5.966-4.231-15.188-9.271-35.165-19.572-5.351-2.761-7.667-9.181-5.311-14.722zm183.325-.061c2.355 5.538.042 11.956-5.305 14.719-19.804 10.215-27.756 15.011-32.672 19.086-3.981 3.302-4.921 4.789-8.799 9.615 2.552 5.346 5.935 6.735 15.359 9.744 7.155 2.285 14.423 2.879 20.068 2.873 1.459-.917 3.299-1.851 4.841-2.585 2.534-1.204 5.425-2.465 8.076-3.755.456-.622.879-1.124 1.187-1.433 1.39-1.393 3.611-3.067 5.426-4.347 2.13-1.502 4.402-2.994 6.256-4.275.068-.14.133-.263.193-.369.904-1.586 2.551-3.673 3.918-5.237 1.438-1.646 3.194-3.504 4.94-5.3.52-2.284 1.875-5.167 2.933-6.961.899-1.523 2.062-3.221 3.292-4.873.223-2.728 1.561-6.147 2.506-8.059.813-1.647 1.758-3.323 2.646-4.875-.121-2.347.201-4.835.576-6.264.457-1.743 1.209-3.833 2.1-6.03-.711-2.252-1.139-5.039-1.201-6.996-.019-.599-.074-.993-.149-1.236.065-.111.135-.233.209-.366-1.946-.953-1.064-.671-5.021-2.833-3.065-.748-6.978-1.158-11.294-1.916-2.252-.396-5.393-1.098-7.474-2.066-.215-.1-.469-.243-.752-.424-2.716-.068-5.407-.321-7.474-.755-1.513-.317-3.686-1.02-5.561-1.926-3.446.408-6.685.604-9.134.517-1.438-.05-3.406-.304-5.228-.755-2.744.917-5.611 1.784-8.036 2.312-2.103.458-5.666.848-8.433.417-1.796.699-3.57 1.292-5.109 1.68-1.548.391-3.718.746-5.635.831-2.2 1.597-4.561 3.191-6.681 4.408-2.048 1.175-5.175 2.619-7.546 3.112 0 0-.001 0-.002 0-4.804 5.568-9.208 12.86-11.208 20.546-1.195 4.589-1.304 6.76-.158 9.871 1.179 3.2.607 2.111 1.127 2.902 8.468-6.745 12.937-10.107 20.962-13.936 7.936-3.787 16.612-6.22 31.974-11.449 5.699-1.936 11.927.849 14.283 6.388zm-116.982 331.088c-4.603 1.562-7.727 1.95-9.165 2.021-.117-.026-.199-.03-.246-.012.06.004.125.009.194.014-.082.004-.158.007-.228.008-.249.313 3.164 2.824 9.728 7.232 7.89 5.298 16.237 9.332 25.759 8.386 9.21.649 18.155-3.468 26.004-9.025 4.57-3.236 7.693-5.378 9.123-6.74-1.632-.996-3.668-1.84-6.821-2.844-7.986-2.542-17.314-3.914-25.984-3.444-8.565-.31-19.53 1.407-28.364 4.404zm137.469-89.882c.052.042.104.083.156.124-1.31-1.51-1.152-1.076-3.114-1.031-2.183.051-3.626.507-6.863 2.195-7.009 3.655-14.285 10.181-22.383 19.393-6.632 7.444-10.937 17.2-13.24 27.433-1.119 4.974-1.435 8.555-1.038 12.143.357 3.239-.189 3.592 1.119 4.062 2.778 2.187 6.426 2.376 14.957.135 9.271-2.435 18.275-7.431 26.915-20.209 6.385-7.171 7.78-16.603 7.379-26.793-.349-8.855-1.567-14.849-3.888-17.452zm-211.752 8.241c-7.008-3.209-9.593-4.424-12.595-1.811-2.094.928-2.113 3.394-2.065 10.873.052 8.12 1.876 16.533 7.469 26.239 7.733 11.599 15.861 16.469 24.685 19.231 8.158 2.555 12.514 2.615 15.569.226.036-.353-.255.387.252-2.239.574-2.979.491-5.82-.289-10.211-1.623-9.121-5.247-17.94-11.297-24.888-7.17-8.464-14.237-13.99-21.729-17.42zm138.701 6.998c.585-9.684-3.269-16.292-10.486-22.948-7.297-6.73-15.22-10.04-26.249-10.04-11.028 0-18.951 3.31-26.248 10.04-7.217 6.656-11.071 13.264-10.486 22.948v.482c-.585 9.684 3.269 16.291 10.486 22.947 7.297 6.73 15.22 10.04 26.248 10.04 11.029 0 18.952-3.31 26.249-10.04 7.217-6.656 11.071-13.263 10.486-22.947zm-165.741-91.174c-9.845 7.399-12.72 17.38-13.088 28.744-.313 9.67 1.513 17.849 5.513 23.744.024-.053.048-.106.072-.16 3.059-6.809 5.416-16.187 6.868-26.608 1.395-10.014 1.695-18.975.635-25.72zm259.36 51.274c3.978-5.883 5.8-14.057 5.492-23.722-.363-11.372-3.227-21.363-13.065-28.761-1.06 6.744-.761 15.706.634 25.72 1.452 10.421 3.81 19.799 6.869 26.608.023.052.047.104.07.155zm-188.854-80.055c-9.848 2.888-17.877 8.202-24.134 18.389-6.894 9.773-8.61 19.206-7.382 29.341 1.202 9.913 4.103 16.575 12.123 21.021 7.283 5.581 14.625 5.603 24.27 2.775 9.853-2.888 17.882-8.189 24.138-18.348 6.89-9.772 8.606-19.202 7.378-29.336-1.202-9.914-4.103-16.575-12.122-21.021-7.281-5.605-14.632-5.647-24.271-2.821zm115.087-2.373c-9.637-2.828-16.977-2.805-24.299 2.78-8.013 4.446-10.912 11.103-12.114 21.017-1.229 10.135.483 19.562 7.377 29.336 6.256 10.156 14.286 15.46 24.139 18.349 9.644 2.828 16.986 2.805 24.271-2.776 8.018-4.446 10.919-11.108 12.121-21.021 1.229-10.135-.484-19.562-7.378-29.335-6.259-10.159-14.274-15.462-24.117-18.35zm10.225-44.659c4.698 4.886 10.519 10.318 16.776 15.686 6.741 5.784 13.435 11.023 19.257 14.973-1.988-9.161-6.801-15.775-13.868-21.425-6.466-5.17-13.661-8.364-22.165-9.234zm-176.064 29.492c5.817-3.948 12.504-9.181 19.237-14.956 6.257-5.366 12.079-10.796 16.779-15.68-8.496.873-15.689 4.065-22.149 9.229-7.058 5.643-11.876 12.251-13.867 21.407zm131.361-31.718c-7.377-4.707-15.15-7.624-23.116-7.209-8.927-.673-16.817 2.6-23.842 7.314-6.645 4.458-9.581 6.239-8.384 7.667-1.11 2.612.738 3.351 6.482 6.811 6.403 3.857 14.336 6.359 25.896 6.285 12.039.227 20.152-1.742 26.438-5.075 2.833-1.502 3.831-2.309 5.028-3.894 1.017-1.347 1.138-.718.805-1.888 1.374-3.318-2.199-5.475-9.307-10.011z" stroke-linecap="round" stroke-linejoin="round" stroke-width="23"/></svg>