<svg clip-rule="evenodd" fill-rule="evenodd" stroke-linejoin="round" stroke-miterlimit="2" viewBox="0 0 61 61" xmlns="http://www.w3.org/2000/svg"><path fill="rgb(255, 255, 255)" d="m30.5 2.3c15.564 0 28.2 12.637 28.2 28.2 0 15.564-12.636 28.2-28.2 28.2s-28.199-12.636-28.199-28.2c0-15.563 12.635-28.2 28.199-28.2zm-21.15 28.2c0 3.749.978 7.271 2.69 10.326.011-6.315.03-17.097.037-20.715-1.735 3.069-2.727 6.614-2.727 10.389zm21.15 21.15c5.833 0 11.117-2.366 14.945-6.19-4.234.167-9.27 1.333-12.985 3.549-.183.113-.412.117-.599.013-.073-.042-.136-.165-.184-.301-.1-.272-.359-.453-.65-.453-.322-.001-.732-.001-1.054-.001-.291 0-.55.181-.65.454-.049.136-.111.259-.184.301-.187.104-.416.1-.599-.013-3.715-2.216-8.751-3.382-12.985-3.549 3.828 3.824 9.112 6.19 14.945 6.19zm21.15-21.15c0-3.775-.991-7.32-2.727-10.39.007 3.619.026 14.401.035 20.716 1.714-3.055 2.692-6.577 2.692-10.326zm-21.15-21.15c-7.333 0-13.798 3.74-17.594 9.415.062-.02.126-.035.192-.044 4.496-.596 9.705.35 15.617 2.823.248.103.446.451.573.738.11.251.358.413.633.413h1.158c.275 0 .523-.162.634-.412.126-.288.324-.636.57-.739 5.914-2.473 11.121-3.419 15.619-2.823.066.009.13.024.192.044-3.796-5.675-10.261-9.415-17.594-9.415zm-7.894 7.997c-.259-.06-.47-.246-.563-.495-.092-.249-.054-.528.104-.743 1.897-2.551 4.933-4.206 8.353-4.206s6.457 1.656 8.351 4.208c.156.214.195.492.102.74-.091.248-.302.433-.56.493-2.192.526-4.494 1.289-6.904 2.297l-.003.001c-.338.142-1.633.143-1.971 0h-.002c-2.411-1.008-4.713-1.772-6.907-2.295z" stroke-width="2.285"/></svg>