<svg viewBox="0 0 960 960" xmlns="http://www.w3.org/2000/svg"><path fill="rgb(255, 255, 255)" d="m95.425 673.73c9.481-9.38 20.742-14.04 33.806-14.04h16.707l.004-359.369h-16.708c-13.063 0-24.325-4.68-33.806-14.05-9.458-9.38-14.188-20.59-14.188-33.72v-.001c0-12.85 4.73-24.08 14.188-33.69 9.481-9.61 20.743-14.53 33.806-14.53h16.708v-75.9c0-27.6 9.714-51.13 29.143-70.56 19.421-19.41 42.937-29.12 70.546-29.12h532.384c27.9 0 51.666 9.71 71.3 29.12 19.637 19.43 29.447 42.96 29.447 70.56v703.131c0 27.61-9.817 51.131-29.451 70.56-19.633 19.423-43.4 29.134-71.299 29.134h-532.384c-27.609 0-51.125-9.711-70.546-29.134-19.429-19.429-29.144-42.95-29.144-70.56v-.001-75.879h-16.707c-13.064 0-24.325-4.93-33.806-14.53-9.458-9.62-14.188-20.84-14.188-33.71v-.001c0-13.13 4.73-24.34 14.188-33.71zm157.548 150.485c4.703 4.703 11.082 7.345 17.733 7.345h.002c13.85 0 25.077-11.227 25.078-25.077v-.001c.001-109.322.002-543.645.003-652.972 0-.001 0-.001 0-.002-.001-6.649-2.642-13.028-7.345-17.728-2.138-2.141-4.622-3.854-7.32-5.086-3.238-1.478-6.785-2.264-10.413-2.264h-.002c-13.849 0-25.077 11.229-25.078 25.078v.002c-.001 109.322-.002 543.646-.003 652.972v.001c0 6.651 2.642 13.029 7.345 17.732zm128.724-370.365c1.559 22.13 8.436 46.28 23.841 67.96 7.262 10.35 16.314 19.7 26.752 27.44 10.408 7.85 22.282 14.17 35.271 18.32 20.815 6.48 41.277 6.48 58.178 4.06 8.991-1.28 17.224-3.32 24.517-5.58 8.96-2.71 17.194-5.88 23.718-8.51 14.171-5.94 27.483-13.09 38.071-18.78 10.61-5.73 20.987-11.53 30.982-16.21 5.937-2.71 12.986-5.7 19.987-8.05 1.85-.59 3.7-1.12 5.55-1.57 6.941-1.82 13.819-2.63 19.906-2.1 5.202.53 9.609 2.19 12.583 4.14 1.293.74 2.378 1.82 3.286 2.94.265.38.498.66.701 1.02v.001c-.503.91-1.105 1.89-1.811 2.88-1.822 2.47-4.35 5.1-7.767 7.73-3.35 2.62-7.344 5.12-11.989 7.6-10.202 4.92-20.34 8.22-34.6 13.48-12.937 4.83-28.362 11.07-42.826 20.94-7.585 5.4-15.169 12.03-21.694 20.14-6.495 8.06-12.139 17.85-15.286 29.27-.523 2.14-.962 4.33-1.294 6.48-1.134 4.844-1.753 9.886-1.753 14.993 0 6.173.905 12.442 2.897 18.576 1.912 5.97 4.884 11.59 8.648 16.54 3.813 5.13 8.608 9.73 14.281 13.34 10.114 6.49 21.224 8.81 30.867 9.02h3.262c8.141-.14 15.929-1.74 23.019-4.06 7.405-2.16 14.139-5.12 19.897-7.67 5.878-2.71 10.406-4.83 15.171-6.63 4.317-1.88 8.081-3.01 11.489-3.52 3.237-.48 5.879-.3 7.82.21.856.22 1.618.63 2.236.98.584.37 1.002.68 1.202.89.263.1.506.26.692.32 0 0 0 .001-.001.001h.001c-1.196 1.3-2.85 2.57-5.212 4.43-2.681 2.03-6.323 4.66-9.65 7.99-3.491 3.46-6.901 7.75-9.125 13.08-.409.76-.786 1.58-1.131 2.42-1.48 3.638-2.136 7.347-2.136 10.872 0 1.794.17 3.541.487 5.207 1.061 5.8 3.854 10.54 7.09 13.86 4.348 4.59 9.407 6.49 13.14 7.01.887.14 1.738.21 2.52.14.28.07.556.07.828 0 6.643-.22 9.321-5.269 10.497-6.769-1.649-1.581-3.326-5.57-4.642-8.97-.15-.36-.295-.72-.415-1.11-.472-1.35-.9-2.819-.9-4.187 0-.163.006-.324.019-.484.052-.83.241-1.72.579-2.4.324-.4.678-.6 1.01-.76.526-.23 1.408-.91 2.994-1.81 1.972-1.14 3.35-1.79 6.85-3.6 2.738-1.36 6.824-3.54 10.698-6.39 3.883-2.86 8.354-7.17 11.521-13.04 1.333-2.47 2.358-5.03 3.058-7.74 1.263-3.9 1.888-7.97 1.888-11.98 0-.059 0-.117 0-.176 0-5.937-1.349-11.675-3.681-16.893-2.466-5.2-5.876-9.62-9.76-13.33-3.905-3.7-8.346-6.63-12.989-8.88-9.316-4.35-19.135-5.55-27.751-5.26-8.902.29-17.077 2.33-23.811 4.44-6.637 2.24-13.523 5.19-18.399 7.14-5.614 2.26-9.933 3.85-14.02 4.75-3.855.67-6.765.6-8.879.16-.262-.09-.527-.16-.791-.24-1.445-.44-2.445-1.12-2.851-1.64 0 0 0 0 0-.001.367-.93.902-2.03 1.73-3.11.879-1.71 2.354-3.66 4.764-5.85 2.468-2.26 5.732-4.51 9.608-6.54 7.82-4.52 17.144-7.9 29.251-11.52 11.199-3.4 26.512-7.54 40.622-13.16 7.585-2.8 15.495-6.34 23.142-10.77 7.817-4.59 15.576-10.16 22.626-17.1 7.321-7.15 13.704-15.64 18.375-25.19 4.795-9.8 7.911-20.92 8.204-32.8.007-.47.015-.9.023-1.31.36-2.83.587-5.69.654-8.63.016-.651.024-1.3.024-1.948-.001-11.484-2.45-22.378-6.403-32.081-4.291-10.6-10.551-20.14-18.026-28.16-15.811-16.83-35.825-26.03-53.818-30.01-20.838-4.58-40.387-2.85-55.407.31-4.177.9-8.116 1.88-11.795 3-13.869 4.08-25.397 9.54-33.476 13.87-13.143 6.75-26.218 15.03-35.129 20.46-10.351 6.31-19.605 11.8-28.898 16.04-4.139 1.86-8.669 3.62-13.374 4.74-3.76.88-7.431 1.57-11.054 1.7-6.905.3-12.724-.89-16.667-3.16-2.288-1.19-4.643-2.99-6.789-5.33-2.145-2.42-3.964-5.18-5.2-8.13-1.775-4.13-2.79-8.8-2.978-13.53v-.001c.527-3.02 1.34-5.95 2.416-8.97 1.263-3.46 3.002-6.99 5.204-10.53 5.173-8.35 12.665-16.25 21.486-23.02 13.676-12.06 29.696-20.78 45.949-26.42 18.076-6.32 35.393-8.51 50.564-8.58 19.429-.16 36.827 3.02 50.472 4.51.371.08.757.17 1.142.17 21.543 2.24 45.891-3.33 60.425-13.63 20.833-14.849 32.909-36.804 32.91-61.815 0-2.022-.079-4.064-.239-6.124-2.018-25.99-10.198-43.3-48.209-61.58-.675-.26-1.353-.66-2.062-.96-24.721-11.38-60.759-19.571-102.794-15.601-32.658 3.151-66.575 13.481-98.557 31.631-28.786 16.31-55.295 38.66-76.818 66.28-12.634 17.38-23.659 37.09-31.539 58.33-3.408 9.09-6.229 18.63-8.344 28.37-1.91 8.72-3.214 18.13-3.636 27.92-.86 6.335-1.345 12.971-1.345 19.794 0 1.987.041 3.989.126 6.005z"/></svg>