<svg viewBox="0 0 48 48" xmlns="http://www.w3.org/2000/svg"><path fill="rgb(255, 255, 255)" d="m7.278 46.565c-1.313 0-2.432-.467-3.357-1.402-.923-.933-1.385-2.065-1.385-3.391v-24.819c0-1.277.261-2.488.782-3.63.521-1.144 1.371-1.967 2.548-2.473l23.002-9.282c.39-.168.777-.178 1.159-.026.383.147.645.426.783.833.152.403.148.793-.009 1.166-.158.375-.425.639-.801.791l-18.334 7.376h29.006c1.327 0 2.458.465 3.391 1.4.935.934 1.401 2.065 1.401 3.392v25.272c0 1.326-.466 2.458-1.401 3.391-.933.935-2.064 1.402-3.391 1.402zm27.442-28.539c-1.969 0-3.566 1.597-3.566 3.567 0 1.967 1.597 3.564 3.566 3.564 1.967 0 3.565-1.597 3.565-3.564 0-1.97-1.598-3.567-3.565-3.567zm-10.746 23.746v-25.272h-16.696v25.272zm-8.348-18.995c3.345 0 6.063 2.715 6.063 6.062 0 3.345-2.718 6.062-6.063 6.062s-6.062-2.717-6.062-6.062c0-3.347 2.717-6.062 6.062-6.062zm17.688 6.147c0-.768-.623-1.388-1.388-1.388h-2.043c-.767 0-1.388.62-1.388 1.388v2.044c0 .765.621 1.387 1.388 1.387h2.043c.765 0 1.388-.622 1.388-1.387zm7.631 7.296c0-.766-.622-1.388-1.387-1.388h-2.044c-.766 0-1.387.622-1.387 1.388v2.044c0 .767.621 1.388 1.387 1.388h2.044c.765 0 1.387-.621 1.387-1.388zm0-7.296c0-.768-.622-1.388-1.387-1.388h-2.044c-.766 0-1.387.62-1.387 1.388v2.044c0 .765.621 1.387 1.387 1.387h2.044c.765 0 1.387-.622 1.387-1.387zm-7.631 7.296c0-.766-.623-1.388-1.388-1.388h-2.043c-.767 0-1.388.622-1.388 1.388v2.044c0 .767.621 1.388 1.388 1.388h2.043c.765 0 1.388-.621 1.388-1.388z"/></svg>