<svg height="48" viewBox="0 -960 960 960" width="48" xmlns="http://www.w3.org/2000/svg"><path fill="rgb(255, 255, 255)" d="m503-613h281q-32-68-87-118t-130-71l-85 152q-7 13 .2 25 7.19 12 20.8 12zm-170 46q6.5 12 20.57 12.5t22.43-12.5l142-244h-38q-70.83 0-129.82 26-58.98 26-105.18 71zm-174.23 174h173.23q14.42 0 21.21-11.5 6.79-11.5-1.21-24.5l-137-248q-33 44-49.5 92.69-16.5 48.68-16.5 104.59 0 17.72 2.5 44.72t7.27 42zm236.23 234 87-151q7-12 .5-24.5t-20.5-12.5h-285q28 66 84.5 116.5t133.5 71.5zm85.08 10q71.92 0 130.42-25.5 58.5-25.5 105.5-71.5l-89-149q-7.86-12-21.43-11.5t-20.57 12.5l-143 245zm265.92-134q27-36 46-87.84 19-51.85 19-108.44 0-22.72-2-45.72t-7.35-43h-172.65q-14.17 0-21.58 11.5-7.42 11.5.58 23.5zm-266 228q-87.04 0-164.52-33.5t-135.48-91.5q-58-58-91.5-135.48-33.5-77.48-33.5-164.52 0-88 33.5-165t91.37-135.05q57.87-58.05 135.43-92 77.57-33.95 164.7-33.95 88 0 164.9 33.78 76.91 33.78 135.22 92.1 58.32 58.31 92.1 135.22 33.78 76.9 33.78 164.9 0 87.13-33.95 164.7-33.95 77.56-92 135.43-58.05 57.87-135.05 91.37-77 33.5-165 33.5z"/></svg>