<svg height="48" viewBox="0 -960 960 960" width="48" xmlns="http://www.w3.org/2000/svg"><path fill="rgb(255, 255, 255)" d="m57-785v-64q0-38.75 27.63-66.38 27.62-27.62 66.37-27.62h65q17.75 0 29.38 11.68 11.62 11.67 11.62 29.5 0 17.82-11.62 29.82-11.63 12-29.38 12h-76v76q0 17.75-11.68 29.37-11.67 11.63-29.5 11.63-17.82 0-29.82-12.13-12-12.12-12-29.87zm763 0v-75h-76q-17.75 0-29.37-12.18-11.63-12.17-11.63-30 0-17.82 12.13-29.32 12.12-11.5 29.87-11.5h64q38.75 0 66.38 27.62 27.62 27.63 27.62 66.38v65q0 17.75-11.68 29.37-11.67 11.63-29.5 11.63-17.82 0-29.82-12.13-12-12.12-12-29.87zm-763 674v-65q0-17.75 12.18-29.38 12.17-11.62 30-11.62 17.82 0 29.32 11.62 11.5 11.63 11.5 29.38v76h76q17.75 0 29.38 11.68 11.62 11.67 11.62 29.5 0 17.82-11.62 29.82-11.63 12-29.38 12h-65q-38.75 0-66.37-27.63-27.63-27.62-27.63-66.37zm752 94h-65q-17.75 0-29.37-12.18-11.63-12.17-11.63-30 0-17.82 12.13-29.32 12.12-11.5 29.87-11.5h75v-76q0-17.75 12.18-29.38 12.17-11.62 30-11.62 17.82 0 29.32 11.62 11.5 11.63 11.5 29.38v65q0 38.75-27.62 66.37-27.63 27.63-66.38 27.63zm-526-226h394v-474h-394zm0 94q-37.05 0-65.52-28.48-28.48-28.47-28.48-65.52v-474q0-37.05 28.48-65.53 28.47-28.47 65.52-28.47h394q37.05 0 65.53 28.47 28.47 28.48 28.47 65.53v474q0 37.05-28.47 65.52-28.48 28.48-65.53 28.48zm117-417h160q14.75 0 24.88-9.68 10.12-9.67 10.12-24.5 0-14.82-10.34-24.82-10.33-10-24.66-10h-160q-14.75 0-24.37 10.39-9.63 10.39-9.63 24.79 0 14.82 9.63 24.32 9.62 9.5 24.37 9.5zm0 120h160q14.75 0 24.88-9.68 10.12-9.67 10.12-24.5 0-14.82-10.34-24.82-10.33-10-24.66-10h-160q-14.75 0-24.37 10.39-9.63 10.39-9.63 24.79 0 14.82 9.63 24.32 9.62 9.5 24.37 9.5zm0 120h160q14.75 0 24.88-9.68 10.12-9.67 10.12-24.5 0-14.82-10.34-24.82-10.33-10-24.66-10h-160q-14.75 0-24.37 10.39-9.63 10.39-9.63 24.79 0 14.82 9.63 24.32 9.62 9.5 24.37 9.5zm-117 83v-474z"/></svg>