<svg height="48" width="48" xmlns="http://www.w3.org/2000/svg"><path fill="rgb(255, 255, 255)" d="m24 17c-.318 0-.631.021-.938.062l-5.062-5.062s22-.023 22.136.153c2.51 3.253 3.864 7.406 3.864 11.847 0 3.998-1.161 7.715-3.167 10.833l-2.193-2.193c.029-.046.057-.093.084-.14 1.108-1.919.454-4.357-1.465-5.465-.719-.415-1.511-.583-2.279-.529-.659.046-1.301.255-1.862.612l-2.18-2.18c.041-.307.062-.62.062-.938 0-3.866-3.134-7-7-7zm-7 7c0 3.866 3.134 7 7 7 .318 0 .631-.021.938-.062l5.062 5.062h-2.124c-.442-1.729-2.005-3-3.875-3s-3.433 1.271-3.875 3h-11.126s-1 .061-1.136-.153c-2.205-3.466-3.864-7.406-3.864-11.847 0-3.998 1.161-7.715 3.167-10.833l2.194 2.194c-.029.046-.057.092-.084.139-1.108 1.919-.454 4.357 1.465 5.465 1.337.772 2.926.689 4.141-.082l2.179 2.179c-.041.307-.062.62-.062.938zm16.26-9.965c-1.919 1.108-2.571 3.546-1.463 5.465s3.544 2.573 5.463 1.465 2.573-3.546 1.465-5.465c-.693-1.199-1.904-1.905-3.184-1.994-.768-.054-1.561.113-2.281.529zm-22.516 13c-1.919 1.108-2.573 3.546-1.465 5.465s3.546 2.573 5.465 1.465 2.571-3.546 1.463-5.465c-.693-1.199-1.904-1.905-3.184-1.994-.768-.054-1.559.113-2.279.529zm2.256-17.035h-5l4-4h1zm7-4v4h-6v-4zm7 0v4h-6v-4zm7 0v4h-6v-4zm5 0v4h-4v-4zm-26 32v4h-4v-4zm7 0v4h-6v-4zm7 0v4h-6v-4zm7 0v4h-6v-4zm6 0-4 4h-1v-4zm-25.075-25.999 2.466 2.466-2.889 2.889-4.334-4.334 1.022-1.022zm7.577 7.574-2.891 2.889-4.334-4.334 2.889-2.889zm5.108 5.108-2.891 2.889-4.334-4.334 2.889-2.889zm5.108 5.108-2.891 2.889-4.334-4.334 2.889-2.889zm5.106 5.107-1.022 1.022h-3.735l-2.466-2.466 2.889-2.889z"/></svg>