<svg viewBox="0 0 100 100" xmlns="http://www.w3.org/2000/svg"><path fill="rgb(255, 255, 255)" d="m23.729 90.833c-.462-.3-.762-.792-.819-1.338-.056-.547.136-1.09.524-1.479 1.872-1.874 4.763-4.765 4.763-4.765 5.782-5.783 13.625-9.032 21.804-9.032 8.178 0 16.021 3.249 21.803 9.032 0 0 2.892 2.891 4.765 4.763.388.39.582.934.525 1.481-.057.548-.358 1.04-.819 1.34-7.577 4.885-16.597 7.723-26.274 7.723-9.678 0-18.698-2.838-26.272-7.725zm-8.408-76.895c.483-.376 1.295-.736 1.845-.73s1.351.381 1.827.768c2.233 2.234 8.757 8.757 13.175 13.176.733-.37 1.553-.581 2.257-.581 1.141 0 2.542.6 3.471 1.438.344.345.68.681.977.977.416.518.751 1.456.756 2.119-.137.65-.65 1.5-1.158 1.925-2.19 1.469-3.969 3.243-5.444 5.435-.424.51-1.275 1.023-1.923 1.16-.663-.006-1.585-.327-2.102-.743-.305-.299-.649-.642-.994-.987-.837-.929-1.437-2.329-1.437-3.471 0-.703.212-1.523.58-2.256-4.418-4.417-10.94-10.941-13.174-13.174-.385-.475-.763-1.279-.77-1.829-.006-.55.358-1.363.732-1.846.448-.466.918-.933 1.382-1.381zm-1.384 70.742c-.374-.483-.734-1.294-.73-1.844.007-.55.338-1.398.77-1.829 2.236-2.235 8.776-8.776 13.194-13.195-.372-.729-.6-1.532-.6-2.235 0-1.141.555-2.588 1.438-3.471.344-.345.681-.682.978-.978.517-.417 1.453-.751 2.117-.756.65.136 1.501.649 1.926 1.159 1.471 2.19 3.243 3.967 5.436 5.443.51.425 1.022 1.276 1.159 1.923-.006.662-.328 1.585-.744 2.102-.298.306-.641.649-.985.992-.93.838-2.33 1.439-3.471 1.439-.704 0-1.506-.229-2.237-.601-4.418 4.419-10.958 10.959-13.194 13.195-.43.432-1.278.764-1.828.769-.55.006-1.364-.357-1.85-.733-.463-.447-.931-.915-1.379-1.38zm72.088-3.673c.386.475.763 1.278.768 1.828.007.551-.356 1.365-.732 1.848-.447.464-.916.933-1.381 1.38-.483.376-1.294.735-1.844.73-.549-.006-1.353-.383-1.828-.769-2.237-2.236-8.776-8.776-13.195-13.195-.731.372-1.533.601-2.237.601-1.141 0-2.542-.602-3.472-1.439-.342-.343-.679-.679-.976-.977-.416-.517-.75-1.454-.756-2.118.137-.648.65-1.501 1.159-1.926 2.19-1.47 3.969-3.243 5.444-5.436.424-.509 1.273-1.021 1.923-1.158.663.006 1.585.329 2.101.743.305.298.649.641.994.987.837.928 1.437 2.33 1.437 3.471 0 .703-.211 1.523-.58 2.256 4.418 4.418 10.942 10.942 13.175 13.174zm-5.017-67.031c.43-.43 1.278-.762 1.828-.768s1.363.354 1.847.732c.464.448.933.916 1.381 1.381.375.483.735 1.296.729 1.844-.006.55-.383 1.353-.768 1.829-2.237 2.235-8.777 8.775-13.195 13.194.372.73.6 1.533.6 2.236 0 1.142-.601 2.543-1.437 3.471-.346.345-.684.683-.979.979-.516.415-1.452.749-2.117.755-.65-.136-1.493-.637-1.918-1.148-1.472-2.196-3.252-3.979-5.445-5.455-.509-.424-1.02-1.274-1.157-1.922.006-.663.327-1.586.743-2.102.298-.305.642-.649.985-.994.93-.837 2.33-1.437 3.471-1.437.704 0 1.506.229 2.237.6 4.419-4.419 10.958-10.959 13.195-13.195zm-13.996 36.024c0 9.396-7.616 17.011-17.011 17.011s-17.012-7.615-17.012-17.011c0-9.395 7.617-17.011 17.012-17.011s17.011 7.616 17.011 17.011zm-43.579-38.014c-.389-.388-.582-.931-.525-1.48.057-.548.357-1.041.819-1.341 7.576-4.884 16.596-7.722 26.274-7.722 9.677 0 18.697 2.838 26.272 7.724.461.301.762.791.818 1.339.056.547-.136 1.09-.524 1.478-1.871 1.874-4.763 4.767-4.763 4.767-5.782 5.782-13.625 9.03-21.803 9.03-8.179 0-16.022-3.248-21.804-9.03 0 0-2.891-2.893-4.764-4.765zm64.582 11.446c.389-.388.933-.582 1.48-.524.547.057 1.04.357 1.341.818 4.885 7.576 7.722 16.596 7.722 26.275 0 9.677-2.837 18.698-7.724 26.272-.3.46-.793.761-1.339.818-.547.057-1.09-.136-1.478-.525-1.876-1.871-4.766-4.762-4.766-4.762-5.783-5.782-9.032-13.625-9.032-21.803s3.249-16.021 9.032-21.805c0 0 2.89-2.891 4.764-4.764zm-78.848.295c.3-.46.794-.76 1.339-.817.548-.057 1.092.136 1.479.525 1.875 1.87 4.765 4.761 4.765 4.761 5.783 5.784 9.032 13.627 9.032 21.805s-3.249 16.021-9.032 21.803c0 0-2.89 2.891-4.765 4.764-.387.39-.931.582-1.479.526-.547-.058-1.041-.359-1.341-.819-4.885-7.576-7.722-16.597-7.722-26.274 0-9.679 2.837-18.699 7.724-26.274z" stroke-width="1.501"/></svg>