<svg height="800" viewBox="0 0 192 192" width="800" xmlns="http://www.w3.org/2000/svg"><path fill="rgb(255, 255, 255)" d="m180.283 87.787c-2.714 1.77-7.854 1.948-11.483.626-26.536-13.527-56.082-20.913-88.074-20.913-16.576 0-32.354 1.982-47.645 5.827l-4.05 1.067c-3.492.572-8.364-.709-11.124-2.924-1.827-2.157-3.206-5.554-3.409-7.963.1-2.15.892-5.158 2.153-6.924 1.245-1.741 3.981-3.55 6.318-4.386 18.27-4.968 37.88-7.706 57.757-7.706 35.257 0 69.145 8.608 98.473 23.397 2.938 1.897 5.669 6.332 6.272 9.809-.305 3.82-2.513 8.345-5.188 10.09zm-26.289 31.985c-22.024-11.516-46.551-17.774-73.268-17.774-16.011 0-31.077 2.249-45.623 6.603-3.465.641-8.343-.525-11.143-2.662-1.934-2.185-3.396-5.669-3.612-8.148.093-2.108.848-5.064 2.067-6.816 1.201-1.728 3.867-3.558 6.141-4.432 16.394-4.849 34.17-7.554 52.17-7.554 30.052 0 59.007 7.533 83.868 20.362 2.953 1.949 5.664 6.217 6.189 9.715.005.11.009.269.011.379-.4 3.751-2.741 8.229-5.46 9.907-2.718 1.678-7.78 1.764-11.34.42zm-14.87 31.353c-17.491-9.504-36.973-14.629-58.398-14.629-13.945 0-26.902 2.168-39.374 6.388-3.453.77-8.391-.231-11.273-2.283-2.154-2.317-3.727-6.093-3.886-8.774.144-1.988.906-4.777 2.07-6.448 1.146-1.646 3.639-3.421 5.773-4.309 14.516-4.836 30.512-7.583 46.69-7.583 24.868 0 48.981 6.52 69.376 17.418 2.816 1.97 5.387 6.144 5.887 9.546.007.188.011.452.011.639-.468 3.685-2.847 8.078-5.559 9.715-2.708 1.636-7.792 1.657-11.317.32z"/></svg>