<svg height="48" viewBox="0 -960 960 960" width="48" xmlns="http://www.w3.org/2000/svg"><path fill="rgb(255, 255, 255)" d="m142-135q-35.87 0-61.44-25.56-25.56-25.57-25.56-61.44v-420q0-19.75 13.68-33.38 13.67-13.62 33.5-13.62 19.82 0 33.32 13.62 13.5 13.63 13.5 33.38v413h533q19.75 0 33.38 13.68 13.62 13.67 13.62 33.5 0 19.82-13.62 33.32-13.63 13.5-33.38 13.5zm194-194q-35.87 0-61.44-25.56-25.56-25.57-25.56-61.44v-352q0-36.81 25.56-62.41 25.57-25.59 61.44-25.59h261q19.75 0 33.38 14.26 13.62 14.27 13.62 34 0 19.74-13.62 33.24-13.63 13.5-33.38 13.5h-253v337h467v-238q0-19.75 13.68-33.38 13.67-13.62 33.41-13.62 19.73 0 33.82 13.62 14.09 13.63 14.09 33.38v246q0 35.87-25.59 61.44-25.6 25.56-62.41 25.56zm229.7-184q-20.7 0-40.2-8.75-19.5-8.75-33.5-25.25-4-5-2.5-9.5t7.5-5.5q11-2.08 18-9.89 7-7.8 7-21.11 0-25.42 17.94-43.71t43.82-18.29q25.89 0 44.06 18.37 18.18 18.36 18.18 43.89 0 33.74-23.15 56.74t-57.15 23zm96.3-154-4-4q-13-13.09-13-33.55 0-20.45 13-33.45l115-114q13.09-13 33.05-13 19.95 0 33.95 13l4 5q14 14.09 14 33.05 0 18.95-14 32.95l-114 114q-14 14-34.45 14-20.46 0-33.55-14z"/></svg>