<svg xmlns="http://www.w3.org/2000/svg"><path fill="rgb(255, 255, 255)" d="m549.975 302.848 93.534-135.616c2.156-92.641 78.018-167.232 171.206-167.232 94.577 0 171.286 76.778 171.286 171.286 0 93.712-75.37 169.969-168.801 171.3l-134.262 95.815c-3.045 68.979-59.991 124.059-129.714 124.059-71.6 0-129.81-58.2-129.81-129.873 0-.41.002-.821.006-1.23l-234.221-144.579c-17.805 9.16-37.992 14.349-59.389 14.349-71.674 0-129.81-58.167-129.81-129.841 0-71.603 58.135-129.811 129.81-129.811 71.673 0 129.842 58.209 129.842 129.811 0 .436-.003.874-.007 1.311l234.241 144.555c16.892-8.712 35.896-13.809 56.089-14.304zm160.561-131.562c0 57.522 46.72 104.148 104.179 104.148s104.18-46.626 104.18-104.148c0-57.46-46.721-104.116-104.18-104.116s-104.179 46.656-104.179 104.116zm170.452 0c0 36.58-29.693 66.304-66.273 66.304s-66.273-29.724-66.273-66.304 29.693-66.274 66.273-66.274 66.273 29.694 66.273 66.274zm-777.87 43.245c-23.882-14.72-31.305-46.088-16.553-69.938 14.72-23.881 46.056-31.304 69.937-16.583l58.219 35.916c-3.76-43.561-40.402-77.835-84.911-77.835-47.004 0-85.194 38.191-85.194 85.195 0 47.035 38.19 85.194 85.194 85.194 11.087 0 21.733-2.148 31.525-6.001zm476.799 174.812c23.881 14.72 31.303 46.087 16.552 69.937-14.721 23.881-46.057 31.304-69.937 16.584l-58.155-35.917c3.727 43.624 40.339 77.835 84.847 77.835 47.068 0 85.195-38.19 85.195-85.195 0-46.972-38.127-85.194-85.195-85.194-11.088 0-21.733 2.148-31.463 6.065z"/></svg>