<svg height="48" width="48" xmlns="http://www.w3.org/2000/svg"><path fill="rgb(255, 255, 255)" d="m17.44 28c0 1.657-1.343 3-3 3s-3-1.343-3-3c0-1.508 1.112-2.755 2.56-2.968v-15.032h-3v25h26v-5.465c-1.396-.61-2.129-2.191-1.651-3.672.234-.722.716-1.295 1.321-1.655l-5.154-14.152-4.516-.056v15.052c1.389.262 2.44 1.482 2.44 2.948 0 1.657-1.343 3-3 3s-3-1.343-3-3c0-1.508 1.112-2.755 2.56-2.968v-15.032h-5v15.052c1.389.262 2.44 1.482 2.44 2.948 0 1.657-1.343 3-3 3s-3-1.343-3-3c0-1.508 1.112-2.755 2.56-2.968v-15.032h-5v15.052c1.389.262 2.44 1.482 2.44 2.948zm-8.44-20h30v15.894c.042.012.085.024.127.038 1.576.509 2.441 2.201 1.931 3.777-.322.998-1.118 1.71-2.058 1.97v5.321h3v7h-36v-7h3zm28 2h-4.44l4.44 12.194z"/></svg>