<svg height="48" viewBox="0 -960 960 960" width="48" xmlns="http://www.w3.org/2000/svg"><path fill="rgb(255, 255, 255)" d="m149-135c-26.533 0-48.833-9.033-66.9-27.1s-27.1-40.367-27.1-66.9v-502c0-26.807 9.033-49.343 27.1-67.61 18.067-18.26 40.367-27.39 66.9-27.39h662c26.807 0 49.343 9.13 67.61 27.39 18.26 18.267 27.39 40.803 27.39 67.61v170.063c0 13.167-4.753 24.29-14.26 33.37-9.513 9.087-20.847 13.63-34 13.63-13.16 0-24.24-4.543-33.24-13.63-9-9.08-13.5-20.203-13.5-33.37v-170.063h-662v502h307c13.167 0 24.293 4.56 33.38 13.68 9.08 9.113 13.62 20.28 13.62 33.5 0 13.213-4.54 24.32-13.62 33.32-9.087 9-20.213 13.5-33.38 13.5zm108.076-231.67c-5.762-5.4-8.642-12.6-8.642-21.2 0-8.61 2.88-15.61 8.642-21.41 5.742-6 12.984-8.8 21.746-8.8h281.342c8.743 0 16.005 2.8 21.746 8.6 5.762 5.6 8.623 12.8 8.623 21.41 0 8.6-2.861 15.6-8.623 21.4-5.741 5.8-13.003 8.61-21.746 8.61h-281.342c-8.762 0-16.004-2.61-21.746-8.61zm120.035-120.03c-5.762-5.4-8.643-12.61-8.643-21.21s2.881-15.6 8.643-21.41c5.742-6 12.984-8.8 21.746-8.8h281.342c8.742 0 16.005 2.8 21.746 8.61 5.762 5.6 8.623 12.8 8.623 21.4s-2.861 15.61-8.623 21.41c-5.741 5.8-13.004 8.6-21.746 8.6h-281.342c-8.762 0-16.004-2.6-21.746-8.6zm-119.995 0c-5.782-5.4-8.682-12.61-8.682-21.21s2.84-15.6 8.502-21.41c5.682-6 12.784-8.8 21.326-8.8 8.563 0 15.725 2.8 21.507 8.61 5.801 5.6 8.682 12.8 8.682 21.4s-2.821 15.61-8.502 21.41c-5.662 5.8-12.764 8.6-21.327 8.6-8.542 0-15.724-2.6-21.506-8.6zm314.867 311.44v-66.81c0-4.78.992-9.59 2.997-14.03 2.005-4.63 5.003-9.08 8.992-13.37l180.388-180.36c6.406-6.86 13.55-11.64 21.393-14.57 7.845-3.09 15.948-4.63 24.323-4.63 8 0 16 1.72 24.033 5.32 8.016 3.24 15.141 8.23 21.36 14.4l31.688 31.67c6.185 6.35 10.861 13.37 14.064 21.26 3.185 7.68 4.779 15.57 4.779 23.29 0 8.56-1.712 16.96-5.139 25.01-3.426 7.87-8.308 15.06-14.627 21.41l-179.788 180.54c-4.162 4.11-8.548 6.84-13.154 8.56-4.609 1.88-9.352 2.57-14.252 2.57h-66.803c-11.273 0-20.794-3.78-28.573-11.65-7.792-7.71-11.681-17.3-11.681-28.61zm64.233-23.98h32.547l101.062-101.57-2.682-2.862 2.682 2.682-15.416-16.45-16.275-15.24-101.918 100.71zm130.927-104.432-29.009-29.008 16.275 15.42z"/></svg>