<svg viewBox="0 0 455.725 364" xmlns="http://www.w3.org/2000/svg"><path fill="rgb(255, 255, 255)" d="m76.814 34.133.141 4.051 27.779.08.166-7.991c-11.419-.156-22.024.167-33.418-.26-2.944-.109-5.414-2.953-5.637-7.554-.233-4.787-.032-9.057.246-13.804.121-2.091 3.874-4.67 7.002-4.664l35.716.086c3.379.008 5.645 2.425 6.286 4.583 1.044 3.506 0 0 .279 9.188l-10.39.149-.016-4.84-27.776.316.083 7.287 30.545.445c3.111.045 7.904 2.226 7.97 5.701l-.218 15.379c-.015.98-.06 6.272-5.707 6.272h-37.663c-3.469 0-5.205-3.837-5.976-5.51-1.389-3.006-.79-6.013-.791-9.019zm58.69-30.53 11.157-.125 1.037 35.793 28.264-.528-.462-35.465 12.618.218s.131 9.428.533 37.967c.069 4.977-4.7 7.963-9.97 7.977l-34.312.081c-3.602.007-8.768-7.005-8.777-10.606zm116.423.748c6.703-.073 8.213 7.093 8.22 7.716l.14 12.608c.041 3.814-5.529 8.54-8.922 8.535l-30.625-.041-.044 13.028c-.005 1.218-.476 2.889-1.692 2.903l-9.525.108c-1.44.016-1.577-1.767-1.563-2.872.188-14.063.307-42.192.307-42.192 14.989-.012 28.714.373 43.704.207zm-30.217 18.396 25.493-.047-.212-8.204-25.281-.497zm155.831-18.505c4.129-.245 7.981 1.392 8.639 5.183l-.075 16.5c-.607 2.415-.845 4.036-3.962 5.88l-7.648.205 15.717 13.009.205 4.317-14.07.424-17.695-16.375h-8.939l.244 16.393c-4.387-.039-8.775.017-13.161-.109l.017-42.06c-.554-3.013.968-3.844 3.087-4.043zm-28.095 9.793.046 8.864 24.089-.01-.062-8.931zm-74.966-9.005c-.004-1.83.627-2.19 2.298-2.189l46.223.059c1.048.002 1.38 1.34 1.381 2.388 0 0-.074 4.92-.06 6.474-.21 2.249-2.338 2.154-2.999 2.152l-44.495-.107c-1.303-.004-2.322-.153-2.328-2.007zm0 35.252c-.004-1.829.627-2.189 2.298-2.187l46.223.058c1.048.002 1.38 1.338 1.381 2.386 0 0-.143 5.317-.06 6.476.165 1.982-2.338 2.152-2.999 2.151l-44.495-.108c-1.303-.002-2.322-.151-2.328-2.006zm0-17.627c-.004-1.829.627-2.184 2.298-2.188l32.113-.071c1.048-.002 1.382 1.337 1.383 2.387 0 0 .152 4.522-.06 6.475-.013 2.232-2.34 2.149-3.001 2.15l-30.384.025c-1.303.001-2.322-.153-2.328-2.007zm82.387 311.507.001-.011-.001-.121c.352-8.002-.355-51.837-.462-58.28l-.006-.791-12.776-.103v.001h-.007l1.505 9.396-.64.694-.779.485.067.285-10.068 10.918 2.554-15.579-.001-.008c-2.555 15.589 0 .002-2.555 15.589l-.003.002-.109.019-12.085 1.806 35.36 35.696c0-.001 0-.003 0-.004zm-49.726 26.997-21.236-40.815 1.42 30.544.105.102-.1.013.007.136-.122-.119-41.003 5.403.25-.118-.244.112-2.044-3.305-.008-.988-40.111-3.287 32.541-5.458-32.544 5.458.747-24.587-.16.021.159-.02-.747 24.586h-.001l-4.37-17.587-4.235-3.263-15.848-.432-3.359.44-3.608 2.65-3.766 16.279-17.179-1.316 13.803-7.385c1.108-.593 1.929-1.611 2.276-2.82.346-1.209.189-2.507-.439-3.597l-22.49-39.138 17.098-54.458 5.064-5.456c.847-.912 1.293-2.129 1.237-3.374-.057-1.246-.611-2.416-1.538-3.249l-.756-.68 1.149-3.664 50.094 4.415c.005 0 .013-.001.019-.001l4.329 19.365-4.085-19.446 21.248 69.545.593 6.056-.587-6.055-6.646-70.617 77.894-10.372c.007-.003.013-.004.02-.006l15.651 14.759-.003-.014-15.648-14.745 19.686 10.064v-.001l12.626-1.507 9.815-1.127-16.204-38.041c-.577-1.351-1.756-2.35-3.182-2.697-1.427-.346-2.934.001-4.064.938l-35.611 29.498-6.85-5.961c-1.873-1.628-4.697-1.499-6.412.295l-5.089 5.317-77.281 7.4c-10.329-8.421-19.815-17.041-30.257-25.485-.039-.498-.157-.993-.357-1.463l-.414-.974-5.939-57.014-.026-5.223-.015-3.073 25.623-11.295c1.155-.508 2.054-1.467 2.49-2.653.435-1.187.368-2.5-.184-3.636l-13.118-26.968c8.392-.291 16.736-.866 25.892-1.375 1.292 15.231 1.93 23.167 2.231 27.31.122 1.691.183 2.686.212 3.282-.012.04-.02.08-.027.115-.062.34-.093.872-.092 1.299 0 .065.001.127.002.187.014.647.084 1.904.252 4.22.331 4.57 1.069 13.701 2.621 31.915.076.91.419 1.776.986 2.492l7.91 10c.921 1.164 2.344 1.819 3.827 1.762l16.547-.644c.932-.036 1.831-.351 2.581-.903l7.331-5.411c1.195-.883 1.897-2.283 1.889-3.765 0-.045 0-.089-.001-.134l-1.801-77.246 45.919-2.156.239 1.238c.238 1.248.975 2.344 2.043 3.033 1.066.691 2.369.913 3.604.617l31.468-7.519 19.06 34.168c.682 1.22 1.874 2.07 3.252 2.313 1.376.244 2.789-.144 3.847-1.057l27.688-23.877 47.459 17.816-.267 1.654-54.279 42.971c-1.154.914-1.772 2.282-1.765 3.673-.004.773.185 1.554.58 2.27l31.999 57.91-42.976 13.576 42.836-4.91h38.044l-.001.012 4.405 55.382-41.687 1.762-3.918 6.212v.016l8.47 57.989-54.819 6.147-.005.001v-.001l.103-5.923-37.166 13.854zm-172.89-16.888-22.759 12.069-.004-.008 26.737-27.019.002-.007-26.74 27.023-31.008-63.157c-.922-1.881-2.99-2.912-5.048-2.518-2.059.394-3.6 2.115-3.763 4.204l-2.004 25.587-62.66-.714c.423-2.202 1.365-4.92 1.968-7.062.009-.035.019-.068.03-.102l31.449-113.886 40.916-.839-.011.163-6.273 7.672h.001l6.272-7.669-2.682 35.565c-.088 1.17.377 10.843.397 11.258v.001l-.001.011.002-.003v.005l6.848-7.072c.242-.164.47-.351.681-.563l17.775-17.784c.289.223.607.411.946.562 1.143.508 2.442.533 3.606.069l25.704-10.233 22.242 19.986-13.185.277-4.525 7.766 4.528-7.763 13.185-.277.086.078-34.065 36.708c-.104.112-.201.227-.293.348l-1.057 1.098 1.872-3.207-2.31 3.69.558 1.566c.05.684.249 1.362.607 1.986l.268.464.503 1.411.004.013 20.533 35.191v-.001l13.289 23.125-22.435 12.002zm7.065-39.004.01-.038 2.092 3.64zm217.955 31.326-.003-.003-.061.021zm-.005-.005-16.987-2.903-.001-.002-.048.038.048-.035 16.99 2.904zm80.722-71.617-32.954 8.072-.001.002 32.955-8.072zm-196.896 77.029.063.279h-.001l.586 5.4-.553-5.71zm-164.024-97.161-.61 8.903.001-.002.611-8.896-.001-.008zm209.512 2.081-14.079 4.158 3.542 26.441 18.511-3.56 4.543-5.92-4.543-15.781zm-94.97 55.115-6.583-24.512s-6.303 21.212-5.992 22.819zm-40.042-243.586 10.153 20.197 14.125 29.039-43.756 19.288c-2.328 1.027-3.399 3.732-2.403 6.075l24.679 58.039-46.459 18.497-20.863-56.004c-.46-1.237-1.423-2.22-2.652-2.704-1.226-.484-2.602-.424-3.781.165l-33.626 16.765c-7.398-19.698-11.075-40.622-18.139-62.716zm140.22 46.447 1.472 47.944 15.886-12.618-.017-.036.017-.013-17.358-35.326.001.052z"/></svg>