<svg viewBox="0 0 100 100" xmlns="http://www.w3.org/2000/svg"><path fill="rgb(255, 255, 255)" d="m100 50c0 27.614-22.386 50-50 50s-50-22.386-50-50 22.386-50 50-50 50 22.386 50 50zm-50-39c-21.539 0-39 17.461-39 39s17.461 39 39 39 39-17.461 39-39-17.461-39-39-39zm29.35 26.125 1.54 1.513c.208.204.316.489.297.78-.61 8.251-5.647 16.733-11.149 22.471-1.409 1.437-2.138 2.038-3.619 2.393-.12.021-.244.02-.364-.003-.942-.185-1.931-.513-2.799-.925l-1.352-.675c-.31-.155-.518-.461-.549-.807-.054-.608-.092-1.046-.029-1.403.077-.437.312-.782.528-1.093.039-.056.083-.108.132-.155l3.238-3.075c3.778-3.734 5.584-8.057 6.91-12.821h-9.323v6.837c0 .385-.221.736-.569.902-.838.346-1.404.395-2.08.395-1.865 0-2.834 0-3.374-.04-.83-.061-1.212-.401-1.36-.55-.188-.187-.293-.442-.293-.707v-13.242c0-.546.438-.991.984-1l18.519-.297c1.576.026 3.089.187 4.572 1.387.049.033.096.072.14.115zm-37.278-.325c1.672-.04 2.608-.063 3.264.052.787.138 1.278.504 1.845.936.064.048.122.105.173.168.837 1.055 1.316 2 1.606 3.347.026.131.025.266-.001.397-.287 1.225-.735 1.97-1.433 2.817l-3.304 4.486c-.164.224-.254.348-.312.437 2.314 1.372 4.341 3.467 6.181 5.178l1.539 1.431c.045.042.086.088.123.138.534.769.767 1.48.816 2.367.009.253-.078.5-.243.691l-2.268 2.619c-.04.046-.084.088-.131.126-1.066.643-1.953.668-2.801.562-.169-.021-.329-.084-.466-.185-.351-.256-.564-.412-.775-.598-.205-.182-.408-.393-.759-.757l-3.86-3.995c-.78-.808-1.285-1.244-1.976-1.826-.561.328-.839.567-1.568 1.272-3.645 3.362-5.531 5.1-6.877 5.973-1.517.983-2.586.96-4.044.906-.107-.004-.212-.025-.312-.062-1.328-.535-2.366-1.456-3.209-2.408-.097-.11-.168-.24-.209-.38-.135-.459-.22-.747-.264-1.009-.047-.283-.047-.542-.047-.893 0-.293.129-.572.352-.762 1.103-.936 2.278-1.822 3.545-2.558 4.328-2.515 7.794-5.97 10.823-10.016.993-1.381.54-.761.732-1.046l-10.398.046c-.034 0-.069-.002-.104-.005-.27-.027-.615-.065-.922-.234-.257-.141-.495-.378-.765-.648-.135-.135-.229-.306-.27-.493-.254-1.201-.293-2.361-.293-3.454v-1.35c0-.546.437-.99.983-1z" stroke-linejoin="round" stroke-width="2"/></svg>