<?xml version="1.0" encoding="utf-8"?>
<svg height="48" viewBox="0 0 48 48" width="48" xmlns="http://www.w3.org/2000/svg">
  <path fill="rgb(255, 255, 255)" d="M 30.713 6.184 C 30.761 6.242 30.807 6.302 30.851 6.363 C 31.114 6.695 31.372 7.03 31.626 7.368 C 31.66 7.408 31.693 7.447 31.727 7.487 C 31.847 7.629 31.956 7.781 32.052 7.941 C 32.062 7.954 32.072 7.968 32.082 7.981 C 32.021 7.879 31.955 7.779 31.884 7.683 C 34.324 10.958 36.488 14.766 37.947 18.355 C 39.519 22.304 40.52 25.988 41.349 30.869 C 41.49 31.713 41.646 32.831 41.766 33.768 C 41.826 34.25 41.882 34.738 41.923 35.175 C 41.937 35.315 41.949 35.446 41.959 35.564 C 41.978 35.798 41.987 35.994 41.992 36.114 C 41.992 36.125 41.992 36.136 41.992 36.148 C 41.993 36.172 41.993 36.197 41.994 36.22 L 41.994 36.391 C 41.994 36.391 41.994 36.391 41.994 36.391 C 41.994 36.394 41.994 36.397 41.994 36.398 C 41.994 36.427 41.877 37.084 41.741 37.764 C 41.788 37.642 41.828 37.516 41.861 37.389 C 41.911 36.973 41.947 37.445 41.567 38.197 C 41.5 38.33 41.376 38.499 41.221 38.68 C 41.134 38.834 41.043 38.967 40.95 39.068 C 40.835 39.193 40.671 39.319 40.478 39.442 C 40.347 39.561 40.219 39.672 40.102 39.768 C 39.824 39.916 39.345 40.142 39.102 40.21 C 38.874 40.274 38.708 40.303 38.608 40.312 C 38.582 40.317 38.556 40.322 38.53 40.327 C 38.437 40.34 38.353 40.351 38.239 40.363 C 38.078 40.379 37.906 40.393 37.745 40.403 C 36.834 40.441 35.559 40.658 34.665 40.931 C 34.044 41.109 33.778 41.207 33.166 41.482 C 32.995 41.558 32.832 41.63 32.713 41.681 C 32.694 41.689 32.675 41.698 32.657 41.706 C 32.642 41.714 32.625 41.723 32.607 41.733 C 32.501 41.791 32.393 41.853 32.203 41.959 C 31.949 42.098 31.711 42.235 31.482 42.374 C 31.366 42.452 31.247 42.533 31.127 42.617 C 30.107 43.282 29.508 43.779 27.991 45.218 C 27.915 45.291 27.838 45.365 27.759 45.441 C 27.467 45.719 27.176 45.991 26.967 46.182 C 26.885 46.254 26.746 46.38 26.642 46.47 C 26.616 46.492 26.497 46.589 26.391 46.673 C 26.242 46.787 26.231 46.791 26.241 46.783 C 26.117 46.871 25.988 46.95 25.855 47.02 C 25.847 47.024 25.838 47.029 25.829 47.035 C 25.832 47.033 25.835 47.031 25.837 47.029 C 25.821 47.037 25.805 47.045 25.789 47.054 C 25.815 47.039 25.837 47.026 25.856 47.016 C 25.89 46.991 25.913 46.97 25.928 46.954 C 25.646 47.094 25.113 47.31 24.359 47.426 C 24.303 47.448 24.246 47.47 24.189 47.493 C 24.111 47.488 24.035 47.482 23.961 47.475 C 23.887 47.482 23.811 47.488 23.733 47.493 C 23.676 47.47 23.619 47.448 23.563 47.426 C 22.809 47.31 22.276 47.094 21.994 46.954 C 22.009 46.97 22.032 46.991 22.066 47.016 C 22.085 47.026 22.107 47.039 22.133 47.054 C 22.117 47.045 22.101 47.037 22.085 47.029 C 22.087 47.031 22.09 47.033 22.093 47.035 C 22.084 47.029 22.075 47.024 22.067 47.02 C 21.934 46.95 21.805 46.871 21.681 46.783 C 21.691 46.791 21.68 46.787 21.531 46.673 C 21.425 46.589 21.306 46.492 21.28 46.47 C 21.176 46.38 21.037 46.254 20.955 46.182 C 20.746 45.991 20.455 45.719 20.163 45.441 C 20.084 45.365 20.007 45.291 19.931 45.218 C 18.414 43.779 17.815 43.282 16.795 42.617 C 16.675 42.533 16.556 42.452 16.44 42.374 C 16.211 42.235 15.973 42.098 15.719 41.959 C 15.529 41.853 15.421 41.791 15.315 41.733 C 15.297 41.723 15.28 41.714 15.265 41.706 C 15.247 41.698 15.228 41.689 15.209 41.681 C 15.09 41.63 14.927 41.558 14.756 41.482 C 14.144 41.207 13.878 41.109 13.257 40.931 C 12.363 40.658 11.088 40.441 10.177 40.403 C 10.016 40.393 9.844 40.379 9.683 40.363 C 9.569 40.351 9.485 40.34 9.392 40.327 C 9.366 40.322 9.34 40.317 9.314 40.312 C 9.214 40.303 9.048 40.274 8.82 40.21 C 8.577 40.142 8.098 39.916 7.82 39.768 C 7.703 39.672 7.575 39.561 7.444 39.442 C 7.251 39.319 7.087 39.193 6.972 39.068 C 6.879 38.967 6.788 38.834 6.701 38.68 C 6.546 38.499 6.422 38.33 6.355 38.197 C 5.975 37.445 6.011 36.973 6.061 37.389 C 6.094 37.516 6.134 37.642 6.181 37.764 C 6.045 37.084 5.928 36.427 5.928 36.398 C 5.928 36.397 5.928 36.394 5.928 36.391 C 5.928 36.391 5.928 36.391 5.928 36.391 L 5.928 36.22 C 5.929 36.197 5.929 36.172 5.93 36.148 C 5.93 36.136 5.93 36.125 5.93 36.114 C 5.935 35.994 5.944 35.798 5.963 35.564 C 5.973 35.446 5.985 35.315 5.999 35.175 C 6.04 34.738 6.096 34.25 6.156 33.768 C 6.276 32.831 6.432 31.713 6.573 30.869 C 7.402 25.988 8.403 22.304 9.975 18.355 C 11.434 14.766 13.598 10.958 16.038 7.683 C 15.967 7.779 15.901 7.879 15.84 7.981 C 15.85 7.968 15.86 7.954 15.87 7.941 C 15.966 7.781 16.075 7.629 16.195 7.487 C 16.229 7.447 16.262 7.408 16.296 7.368 C 16.55 7.03 16.808 6.695 17.071 6.363 C 17.115 6.302 17.161 6.242 17.209 6.184 C 17.944 5.293 18.746 4.352 19.563 3.437 C 20.035 2.883 20.519 2.329 21.017 1.783 C 21.221 1.625 21.485 1.46 21.775 1.301 C 22.322 0.849 23.007 0.562 23.75 0.509 C 23.759 0.507 23.769 0.505 23.778 0.503 C 23.839 0.5 23.9 0.5 23.961 0.5 C 24.022 0.5 24.083 0.5 24.144 0.503 C 24.153 0.505 24.163 0.507 24.173 0.509 C 24.915 0.562 25.6 0.849 26.147 1.301 C 26.437 1.46 26.701 1.625 26.905 1.783 C 27.403 2.329 27.887 2.883 28.359 3.437 C 29.176 4.352 29.978 5.293 30.713 6.184 Z M 13.214 33.785 C 13.215 33.785 13.216 33.785 13.217 33.786 C 13.219 33.778 13.221 33.77 13.222 33.761 C 13.949 33.895 14.656 34.052 15.222 34.213 C 16.068 34.465 16.772 34.723 17.594 35.084 C 17.753 35.154 17.891 35.214 17.998 35.261 C 18.026 35.274 18.061 35.289 18.076 35.295 C 18.128 35.314 18.147 35.323 18.178 35.337 C 18.362 35.413 18.537 35.504 18.703 35.609 C 18.833 35.681 18.993 35.77 19.127 35.845 C 19.485 36.05 19.833 36.261 20.177 36.48 C 20.34 36.579 20.503 36.68 20.665 36.784 C 21.766 37.523 22.682 38.245 23.961 39.41 C 25.24 38.245 26.156 37.523 27.257 36.784 C 27.419 36.68 27.582 36.579 27.745 36.48 C 28.089 36.261 28.437 36.05 28.795 35.845 C 28.929 35.77 29.089 35.681 29.219 35.609 C 29.385 35.504 29.56 35.413 29.744 35.337 C 29.775 35.323 29.794 35.314 29.846 35.295 C 29.861 35.289 29.896 35.274 29.924 35.261 C 30.031 35.214 30.169 35.154 30.328 35.084 C 31.15 34.723 31.854 34.465 32.7 34.213 C 33.266 34.052 33.973 33.895 34.7 33.761 C 34.701 33.77 34.703 33.778 34.705 33.786 C 34.706 33.785 34.707 33.785 34.708 33.785 C 34.707 33.777 34.706 33.768 34.705 33.76 C 34.703 33.76 34.702 33.761 34.7 33.761 C 34.612 33.131 34.515 32.486 34.416 31.906 C 33.661 27.395 32.892 24.551 31.468 21.036 C 30.179 17.776 28.534 14.868 26.303 11.913 C 25.497 10.956 24.727 10.003 23.961 9.078 C 23.195 10.003 22.425 10.956 21.619 11.913 C 19.388 14.868 17.743 17.776 16.454 21.036 C 15.03 24.551 14.261 27.395 13.506 31.906 C 13.407 32.486 13.31 33.131 13.222 33.761 C 13.22 33.761 13.219 33.76 13.217 33.76 C 13.216 33.768 13.215 33.777 13.214 33.785 Z"/>
</svg>