<svg clip-rule="evenodd" fill-rule="evenodd" stroke-linejoin="round" stroke-miterlimit="2" viewBox="0 0 1042 1042" xmlns="http://www.w3.org/2000/svg"><path fill="rgb(255, 255, 255)" d="m149-135c-26.033 0-48.21-9.16-66.53-27.48-18.313-18.313-27.47-40.487-27.47-66.52v-502c0-26.307 9.157-48.717 27.47-67.23 18.32-18.513 40.497-27.77 66.53-27.77h177c13.167 0 24.293 4.753 33.38 14.26 9.08 9.513 13.62 20.847 13.62 34 0 13.16-4.54 24.24-13.62 33.24-9.087 9-20.213 13.5-33.38 13.5h-144.157c-18.139 0-32.843 14.704-32.843 32.843v436.314c0 18.139 14.704 32.843 32.843 32.843h596.314c18.139 0 32.843-14.704 32.843-32.843v-436.314c0-8.711-3.46-17.064-9.619-23.224-6.16-6.159-14.513-9.619-23.224-9.619h-143.157c-13.833 0-25.29-4.56-34.37-13.68-9.087-9.113-13.63-20.25-13.63-33.41 0-13.153 4.543-24.427 13.63-33.82 9.08-9.393 20.537-14.09 34.37-14.09h176c26.307 0 48.717 9.257 67.23 27.77s27.77 40.923 27.77 67.23v502c0 26.033-9.257 48.207-27.77 66.52-18.513 18.32-40.923 27.48-67.23 27.48zm284-345.5v-297.5c0-13.087 4.56-24.357 13.68-33.81 9.113-9.46 20.28-14.19 33.5-14.19 13.213 0 24.32 4.73 33.32 14.19 9 9.453 13.5 20.723 13.5 33.81v297.5l77-76c9.333-9.333 20.333-13.833 33-13.5s23.667 5.167 33 14.5c9.333 9.687 14 20.943 14 33.77 0 12.82-4.667 23.897-14 33.23l-156 157c-9.573 9.333-20.967 14-34.18 14s-24.487-4.667-33.82-14l-157-158c-9.333-9.333-13.833-20.333-13.5-33s5.167-23.833 14.5-33.5 20.5-14.5 33.5-14.5 24.5 4.667 34.5 14z" fill-rule="nonzero" transform="matrix(1.11331 0 0 -1.11331 -14.11 -14.11)"/></svg>