<svg clip-rule="evenodd" fill-rule="evenodd" stroke-linejoin="round" stroke-miterlimit="2" viewBox="0 0 250 250" xmlns="http://www.w3.org/2000/svg"><path fill="rgb(255, 255, 255)" d="m26.548 96.358c-3.548-5.024-4.143-11.557-1.571-17.144 2.895-6.287 6.367-12.29 10.368-17.937 3.554-5.016 9.502-7.765 15.624-7.208 5.829.53 13.14 1.195 18.047 1.644l5.459.499c1.147-.842 2.314-1.656 3.501-2.439.266-.151.527-.311.784-.479 2.336-1.539 4.76-2.939 7.248-4.217l.114-.058c1.5-.767 3.024-1.491 4.569-2.169l9.888-21.433c2.576-5.585 7.937-9.367 14.062-9.932 6.891-.637 13.826-.631 20.717.01 6.121.57 11.476 4.346 14.055 9.926 2.455 5.314 5.535 11.978 7.6 16.452l2.296 4.977c1.304.572 2.592 1.176 3.864 1.812.263.155.532.302.806.44 2.501 1.253 4.925 2.653 7.276 4.169l.107.069c1.415.916 2.804 1.873 4.163 2.872l23.505-2.153c6.125-.561 12.081 2.191 15.633 7.212 3.997 5.65 7.46 11.659 10.35 17.947 2.567 5.586 1.974 12.111-1.569 17.135-3.374 4.783-7.605 10.782-10.447 14.808l-3.162 4.477c.156 1.415.276 2.832.362 4.252-.002.305.005.611.022.918.165 2.792.165 5.592.028 8.386l-.007.127c-.085 1.683-.22 3.364-.405 5.041l13.617 19.28c3.548 5.024 4.143 11.557 1.571 17.144-2.895 6.287-6.367 12.29-10.368 17.937-3.554 5.016-9.502 7.765-15.624 7.208-5.829-.53-13.14-1.195-18.047-1.644l-5.459-.499c-1.147.842-2.314 1.656-3.501 2.439-.266.151-.527.311-.784.479-2.336 1.539-4.76 2.939-7.248 4.217l-.114.058c-1.5.767-3.024 1.491-4.569 2.169l-9.888 21.433c-2.576 5.585-7.937 9.367-14.062 9.932-6.891.637-13.826.631-20.717-.01-6.121-.57-11.476-4.346-14.055-9.926-2.455-5.314-5.535-11.978-7.6-16.452l-2.296-4.977c-1.304-.572-2.592-1.176-3.864-1.812-.263-.155-.532-.302-.806-.44-2.501-1.253-4.925-2.653-7.276-4.169l-.107-.069c-1.415-.916-2.804-1.873-4.163-2.872l-23.505 2.153c-6.125.561-12.081-2.191-15.633-7.212-3.997-5.65-7.46-11.659-10.35-17.947-2.567-5.586-1.974-12.111 1.569-17.135 3.374-4.783 7.605-10.782 10.447-14.808l3.162-4.477c-.156-1.415-.276-2.832-.362-4.252.002-.305-.005-.611-.022-.918-.165-2.792-.165-5.592-.028-8.386l.007-.127c.085-1.683.22-3.364.405-5.041zm88.437 108.418c.399 3.375 3.26 5.918 6.659 5.918h6.534c3.356 0 6.196-2.481 6.645-5.807l2.132-15.779c.564-4.169 3.436-7.661 7.418-9.019 3.558-1.188 7.003-2.718 10.346-4.551 3.344-1.835 6.453-4.007 9.325-6.516 3.209-2.826 7.763-3.543 11.686-1.841 4.604 1.929 10.569 4.517 14.898 6.396 3.22 1.397 6.972.075 8.605-3.032l2.424-4.614c1.547-2.945.701-6.58-1.989-8.539l-13.335-9.711c-3.449-2.513-5.153-6.781-4.382-10.978.149-.802.291-1.601.428-2.397.517-3.016.775-6.075.775-9.177s-.215-6.161-.646-9.177c-.12-.84-.257-1.683-.41-2.53-.744-4.195.981-8.446 4.438-10.936 4.095-2.959 9.466-6.829 13.286-9.581 2.737-1.972 3.583-5.671 1.974-8.637l-2.519-4.646c-1.662-3.063-5.393-4.343-8.585-2.945l-14.382 6.301c-4.086 1.79-8.846.959-12.085-2.108-2.711-2.628-5.721-4.921-8.989-6.925-3.268-2.003-6.698-3.522-10.288-4.558-4.244-1.198-7.36-4.816-7.917-9.19-.701-4.656-1.444-10.497-1.989-14.774-.426-3.349-3.275-5.859-6.651-5.859h-6.747c-3.399 0-6.26 2.543-6.659 5.919l-1.763 14.919c-.516 4.365-3.559 8.014-7.76 9.306-3.693 1.08-7.215 2.645-10.587 4.625-3.376 1.983-6.501 4.248-9.377 6.797-3.234 2.894-7.864 3.626-11.834 1.87-4.468-1.917-10.182-4.445-14.363-6.294-3.196-1.413-6.941-.136-8.607 2.935l-2.518 4.644c-1.605 2.958-.767 6.648 1.957 8.624l12.989 9.421c3.451 2.503 5.163 6.761 4.406 10.957-.154.845-.301 1.691-.442 2.536-.517 3.102-.776 6.204-.776 9.306s.259 6.247.776 9.436c.133.823.272 1.638.417 2.444.749 4.19-.963 8.439-4.409 10.937-3.986 2.894-9.217 6.688-12.961 9.403-2.724 1.976-3.562 5.666-1.957 8.625l2.518 4.643c1.666 3.071 5.411 4.349 8.607 2.935l14.568-6.443c3.894-1.722 8.429-1.065 11.675 1.691 2.954 2.543 6.16 4.778 9.589 6.738 3.416 1.951 6.951 3.562 10.605 4.831 4.022 1.377 6.899 4.938 7.398 9.161.605 4.723 1.325 10.813 1.849 15.246zm9.489-39.791c-11.037 0-20.436-3.888-28.202-11.654s-11.654-17.166-11.654-28.202 3.888-20.435 11.654-28.202c7.766-7.766 17.165-11.653 28.202-11.653 11.036 0 20.435 3.887 28.201 11.653 7.767 7.767 11.654 17.166 11.654 28.202s-3.887 20.436-11.654 28.202c-7.766 7.766-17.165 11.654-28.201 11.654zm.526-58.369c-10.146 0-18.384 8.238-18.384 18.384s8.238 18.384 18.384 18.384 18.384-8.238 18.384-18.384-8.238-18.384-18.384-18.384z"/></svg>