<svg height="48" viewBox="0 -960 960 960" width="48" xmlns="http://www.w3.org/2000/svg"><path fill="rgb(255, 255, 255)" d="m215-215-79 79q-23 23-52 10.97t-29-42.97v-643q0-39.46 27.47-67.23 27.48-27.77 66.53-27.77h371q21.67 0 36.34 17 14.66 17 10.66 39-4 17-17 28t-30 11h-371v548l40-46h622v-273q0-19.75 13.68-33.38 13.67-13.62 33.41-13.62 19.73 0 33.82 13.62 14.09 13.63 14.09 33.38v273q0 39.05-27.77 66.52-27.77 27.48-67.23 27.48zm545.12-489q-49.12 0-83.12-34.42-34-34.41-34-83.58 0-48 34.18-82.5 34.17-34.5 83-34.5 48.82 0 83.32 34.5 34.5 34.5 34.5 83t-34.38 83q-34.38 34.5-83.5 34.5zm-611.12-107v502z"/></svg>