<svg viewBox="0 -960 960 960" xmlns="http://www.w3.org/2000/svg"><path fill="rgb(255, 255, 255)" d="m140.574-43.645c-32.328 0-59.883-11.387-82.668-34.175-22.785-22.79-34.177-50.34-34.177-82.67 0-18.7 4.09-36.13 12.268-52.29 8.179-16.16 19.669-29.88 34.47-41.19v-283.24c13.882 9.23 29.711 15.76 46.738 18.84v100.425l46.737.395v-48.68h-23.368v-23.35h23.368v-29.12c17.08-3.34 32.913-10.18 46.738-19.7v284.43c14.801 11.31 26.291 25.03 34.47 41.19 8.178 16.16 12.268 33.59 12.268 52.29 0 32.33-11.392 59.88-34.177 82.67-22.785 22.788-50.34 34.175-82.667 34.175zm-70.107-802.625c0-19.48 6.816-36.03 20.447-49.64 13.633-13.68 30.185-20.45 49.66-20.45 19.474 0 36.026 6.77 49.659 20.45 13.632 13.61 20.447 30.16 20.447 49.64v34.64c-13.825-9.52-29.658-16.35-46.738-19.71v-14.93c0-6.62-2.239-12.18-6.718-16.65-4.479-4.48-10.029-6.72-16.65-6.72-6.622 0-12.171 2.24-16.651 6.72-4.479 4.47-6.718 10.03-6.718 16.65v14.61c-17.027 3.08-32.856 9.62-46.738 18.83zm409.532 802.625c-32.327 0-59.883-11.387-82.668-34.187-22.784-22.778-34.177-50.328-34.177-82.668 0-18.69 4.09-36.13 12.268-52.28 8.18-16.16 19.669-29.9 34.47-41.21v-54.24c20.075 13.69 44.336 21.71 70.467 21.71 25.82 0 49.814-7.83 69.746-21.22v53.75c14.801 11.31 26.291 25.05 34.47 41.21 8.179 16.15 12.268 33.59 12.268 52.28 0 32.34-11.392 59.89-34.177 82.668-22.784 22.8-50.34 34.187-82.667 34.187zm-70.107-802.635c0-19.48 6.817-36.02 20.448-49.63 13.632-13.69 30.184-20.45 49.659-20.45 19.474 0 36.027 6.76 49.659 20.45 13.632 13.61 20.447 30.15 20.447 49.63v256.4c-19.932-13.38-43.926-21.2-69.746-21.2-.119 0-.24 0-.36 0v-19.53h23.368v-41.63h-23.368v-23.34h23.368v-45.64h-23.368v-23.36h23.368v-46.75h-23.368v-16.59h23.368v-18.36c0-6.61-2.239-12.18-6.717-16.65-4.479-4.47-10.029-6.72-16.651-6.72s-12.171 2.25-16.651 6.72c-4.479 4.47-6.718 10.04-6.718 16.65v237.44c-17.063 3.29-32.896 10.01-46.738 19.46zm409.533 802.635c-32.327 0-59.882-11.387-82.667-34.187-22.785-22.778-34.177-50.328-34.177-82.668 0-18.69 4.09-36.13 12.268-52.28 8.179-16.16 19.669-29.9 34.47-41.21v-197.03c13.866 9.32 29.696 15.94 46.738 19.09v131.23h46.737v-23.38h-23.369v-23.36h23.369v-46.75h-23.369v-23.37h23.369v-14.5c17.063-3.27 32.896-10 46.738-19.44v197.51c14.801 11.31 26.291 25.05 34.47 41.21 8.178 16.15 12.268 33.59 12.268 52.28 0 32.34-11.392 59.89-34.177 82.668-22.785 22.8-50.34 34.187-82.668 34.187zm-70.106-802.635c0-19.48 6.816-36.02 20.447-49.63 13.633-13.69 30.185-20.45 49.659-20.45 19.475 0 36.027 6.76 49.66 20.45 13.632 13.61 20.447 30.15 20.447 49.63v109.24c-19.981-13.63-44.113-21.63-70.107-21.71v-15.34h23.369v-37.24h-23.369v-16.59h23.369v-18.36c0-6.61-2.239-12.18-6.718-16.65s-10.029-6.72-16.651-6.72c-6.621 0-12.17 2.25-16.65 6.72-4.479 4.47-6.718 10.04-6.718 16.65v89.65c-17.042 3.15-32.872 9.77-46.738 19.1zm-317.285 484.95c-4.92-3.3-9.431-6.98-13.531-11.06l-21.523 6.76c-5.865 1.63-11.36 1.19-16.489-1.36-5.129-2.52-9.087-6.41-11.875-11.66l-3.001-6.04c-2.461-4.92-3.075-10.26-1.846-16 1.23-5.75 4.578-10.51 10.043-14.33l13.943-8.42c-1.231-7.38-1.846-14.35-1.846-20.91 0-6.57.615-13.76 1.846-21.53l-13.531-8c-5.33-3.29-8.711-7.8-10.148-13.51-1.434-5.75-.831-11.49 1.809-17.23l3.476-6.43c2.524-4.7 6.292-8.2 11.302-10.47 5.008-2.26 10.446-2.59 16.317-.94l21.523 6.14c4.1-4.09 8.611-7.79 13.531-11.06 4.92-3.28 11.069-5.95 18.45-8l3.075-17.23c.873-5.52 3.448-9.9 7.724-13.04 4.28-3.2 9.004-4.8 14.168-4.8h8.858c5.411 0 10.237 1.68 14.476 4.95 4.241 3.3 6.794 7.37 7.663 12.26l3.486 17.7c7.106 2.16 13.119 4.88 18.038 8.16 4.916 3.27 9.428 6.97 13.526 11.06l21.528-6.76c5.862-1.64 11.357-1.19 16.491 1.34 5.133 2.56 9.058 6.21 11.799 10.98l3.005 6.08c2.51 5.36 3.142 10.92 1.916 16.67s-4.577 10.46-10.046 14.13l-13.943 8c1.236 7.77 1.849 14.96 1.849 21.53 0 6.56-.613 13.53-1.849 20.91l13.33 7.8c5.469 3.83 8.917 8.58 10.352 14.33 1.437 5.73.94 11.25-1.484 16.55l-3.523 6.55c-2.778 5.23-6.647 8.95-11.646 11.15-4.989 2.18-10.399 2.43-16.251.81l-21.528-6.14c-4.098 4.08-8.61 7.76-13.526 11.06-4.919 3.27-10.932 5.97-18.038 8.07l-3.486 17.13c-.869 5.56-3.444 9.94-7.724 13.11-4.281 3.16-9.004 4.75-14.17 4.75h-8.856c-5.411 0-10.237-1.66-14.476-4.93-4.236-3.32-6.79-7.62-7.663-12.93l-3.075-17.22c-7.381-2.03-13.53-4.71-18.45-7.98zm77.856-52.96c8.107-7.96 12.16-17.94 12.16-29.9 0-11.94-3.994-21.99-11.978-30.07-7.982-8.07-17.949-12.16-29.892-12.16-11.948 0-21.975 3.99-30.076 11.98-8.105 7.96-12.156 17.96-12.156 29.89 0 11.97 3.99 21.98 11.977 30.09 7.983 8.08 17.947 12.15 29.893 12.15 11.947 0 21.974-3.99 30.072-11.98zm261.57-92.11c-4.919-3.3-9.43-6.98-13.53-11.08l-21.524 6.78c-5.864 1.62-11.36 1.19-16.488-1.37-5.129-2.53-9.088-6.42-11.875-11.67l-3.001-6.03c-2.461-4.91-3.076-10.26-1.846-15.99 1.23-5.76 4.577-10.52 10.043-14.35l13.943-8.41c-1.231-7.38-1.846-14.35-1.846-20.9 0-6.58.615-13.76 1.846-21.55l-13.532-8c-5.329-3.28-8.71-7.78-10.147-13.51-1.435-5.74-.831-11.48 1.808-17.22l3.476-6.43c2.525-4.71 6.293-8.21 11.303-10.48 5.008-2.26 10.446-2.57 16.316-.91l21.524 6.13c4.1-4.11 8.611-7.79 13.53-11.07 4.921-3.29 11.069-5.94 18.451-8l3.074-17.22c.873-5.54 3.449-9.92 7.724-13.06 4.281-3.18 9.004-4.78 14.169-4.78h8.858c5.411 0 10.236 1.66 14.475 4.94 4.241 3.31 6.794 7.37 7.664 12.26l3.486 17.69c7.105 2.17 13.118 4.88 18.037 8.17 4.917 3.28 9.428 6.96 13.527 11.07l21.527-6.76c5.862-1.64 11.358-1.21 16.491 1.33 5.134 2.56 9.059 6.19 11.799 10.97l3.006 6.1c2.509 5.35 3.142 10.9 1.916 16.65s-4.578 10.47-10.047 14.13l-13.943 8c1.236 7.79 1.85 14.97 1.85 21.55 0 6.55-.614 13.52-1.85 20.9l13.331 7.79c5.469 3.84 8.916 8.6 10.352 14.35 1.437 5.73.939 11.24-1.484 16.53l-3.524 6.56c-2.777 5.22-6.646 8.94-11.645 11.15-4.989 2.18-10.4 2.44-16.252.82l-21.527-6.16c-4.099 4.1-8.61 7.78-13.527 11.08-4.919 3.27-10.932 5.96-18.037 8.05l-3.486 17.15c-.87 5.55-3.444 9.93-7.725 13.09-4.28 3.17-9.003 4.75-14.17 4.75h-8.855c-5.412 0-10.237-1.64-14.477-4.93-4.235-3.31-6.79-7.61-7.663-12.91l-3.074-17.23c-7.382-2.03-13.53-4.7-18.451-7.97zm77.857-52.97c8.107-7.97 12.159-17.93 12.159-29.89s-3.993-21.99-11.977-30.09c-7.982-8.06-17.949-12.15-29.893-12.15-11.947 0-21.975 4-30.076 11.99-8.104 7.96-12.155 17.97-12.155 29.88 0 11.97 3.99 21.99 11.977 30.09 7.982 8.07 17.947 12.16 29.893 12.16 11.947 0 21.974-4 30.072-11.99zm-756.709-36.76c-4.919-3.28-9.43-6.97-13.53-11.05l-21.524 6.77c-5.864 1.62-11.36 1.17-16.488-1.36-5.129-2.53-9.088-6.43-11.875-11.68l-3.001-6.04c-2.461-4.9-3.076-10.26-1.846-15.99 1.23-5.76 4.577-10.52 10.043-14.34l13.943-8.42c-1.231-7.39-1.846-14.35-1.846-20.9 0-6.58.615-13.75 1.846-21.54l-13.532-7.99c-5.329-3.29-8.71-7.81-10.147-13.51-1.435-5.75-.831-11.49 1.808-17.22l3.476-6.45c2.525-4.69 6.293-8.2 11.303-10.48 5.008-2.25 10.446-2.57 16.316-.92l21.524 6.14c4.1-4.11 8.611-7.79 13.53-11.06 4.921-3.3 11.07-5.96 18.451-7.99l3.074-17.24c.873-5.52 3.449-9.9 7.724-13.05 4.281-3.19 9.004-4.79 14.169-4.79h8.858c5.411 0 10.236 1.67 14.476 4.96 4.24 3.28 6.793 7.37 7.663 12.26l3.486 17.67c7.105 2.19 13.118 4.88 18.037 8.18 4.917 3.27 9.428 6.95 13.527 11.06l21.527-6.76c5.862-1.64 11.358-1.2 16.491 1.34 5.134 2.55 9.059 6.19 11.799 10.98l3.006 6.07c2.51 5.35 3.142 10.93 1.916 16.68s-4.578 10.45-10.047 14.13l-13.943 7.99c1.236 7.79 1.85 14.96 1.85 21.54 0 6.55-.614 13.51-1.85 20.9l13.331 7.79c5.469 3.83 8.916 8.6 10.352 14.35 1.437 5.72.939 11.23-1.484 16.53l-3.524 6.56c-2.777 5.24-6.646 8.96-11.645 11.14-4.989 2.2-10.4 2.46-16.252.84l-21.527-6.15c-4.099 4.08-8.61 7.77-13.527 11.05-4.919 3.28-10.932 5.99-18.037 8.08l-3.486 17.14c-.87 5.54-3.444 9.91-7.725 13.08-4.28 3.18-9.003 4.75-14.17 4.75h-8.855c-5.412 0-10.237-1.64-14.477-4.92-4.235-3.32-6.79-7.62-7.663-12.91l-3.074-17.23c-7.381-2.03-13.53-4.71-18.451-7.99zm77.857-52.96c8.107-7.96 12.159-17.92 12.159-29.89 0-11.94-3.993-21.99-11.977-30.09-7.982-8.06-17.949-12.15-29.893-12.15-11.947 0-21.975 3.99-30.076 11.99-8.104 7.97-12.155 17.97-12.155 29.88 0 11.97 3.99 21.98 11.977 30.1 7.982 8.08 17.947 12.15 29.893 12.15 11.947 0 21.974-3.99 30.072-11.99z"/></svg>