<svg viewBox="0 0 204.25533 204.25533" xmlns="http://www.w3.org/2000/svg"><path fill="rgb(255, 255, 255)" d="m82.538 199.426c-34.55-7.232-56.34-28.549-69.638-52.647-11.961-23.307-12.53-59.351-5.918-79.386 7.274-20.343 21.713-39.918 39.727-52.3 5.342-3.476 12.172-6.619 17.246-8.477 5.297-1.94 12.83-4.523 17.938-1.381 3.758 2.311 6.078 6.956 5.044 12.235 0 0-3.837 22.426-6.24 33.296-9.289 41.968-10.623 50.21-9.516 62.842.453 9.271 2.767 14.176 7.272 18.551 4.45 4.321 8.875 5.93 17.444 5.93 7.397 0 19.032-2.315 26.691-7.829 3.16-2.046 5.845-3.92 8.145-5.791-.027.011-.054.022-.081.033-8.47 1.873-18.609.886-24.241-2.857-3.106-2.066-6.592-6.279-7.958-9.844-1.319-3.441-1.478-8.881-.768-12.99.613-2.691 2.131-9.917 3.383-16.081 2.55-12.578 6.377-30.579 8.601-40.479.769-3.417 2.312-11.19 3.441-17.318 1.263-6.717 2.305-14.986 7.88-18.949 4.141-2.944 11.295-2.199 15.217-.903 3.453 1.142 7.914 3.25 12.047 5.599 8.085 4.598 17.791 11.728 24.701 18.554 11.282 11.427 19.951 24.591 24.408 39.182 5.51 19.886 5.505 43.441.001 63.326-4.446 14.593-13.107 27.846-24.446 39.269-11.573 11.32-27.496 21.14-43.225 26.114-15.19 4.337-38.915 3.739-47.155 2.301zm41.144-22.027c13.304-3.874 24.962-11.143 34.695-21.01 10.028-9.83 16.049-18.617 19.166-30.342 5.106-17.041 5.111-34.896.002-51.93-3.103-11.687-9.158-20.412-19.18-30.309-5.674-5.771-13.215-11.169-20.306-15.202-1.601-.909-3.02-1.663-4.307-2.284-.086.699-.207 1.478-.36 2.339-1.155 6.269-2.781 14.445-3.604 18.114-2.198 9.783-5.979 27.57-8.511 40.054-1.265 6.236-3.758 17.436-3.449 17.643 1.848 1.227 5.23 1.216 7.462.117 3.835-1.89 5.21-2.937 7.655-10.292 1.797-4.067 5.361-8.799 8.535-10.609 3.59-2.045 10.058-2.914 14.306-.733 4.899 2.514 8.624 10.07 8.931 13.901.286 3.577-.425 7.968-1.06 10.498-5.293 18.313-14.535 29.75-29.627 40.062-11.083 6.987-28.439 11.295-38.133 11.295-12.13 0-24.36-5.113-31.813-12.354-7.398-7.187-12.233-18.684-13.463-31.156-1.028-14.934.518-26.197 9.941-68.888 1.517-6.859 2.745-12.705 3.686-17.519-2.144 1.019-4.222 2.164-6.105 3.46-15.411 9.893-25.822 24.257-31.672 41.878-6.046 16.594-6.16 44.347 4.553 62.808 11.629 21.832 26.195 37.921 55.187 42.194 6.761 1.278 25.646 2.161 37.471-1.735z"/></svg>