<svg clip-rule="evenodd" fill-rule="evenodd" stroke-linejoin="round" stroke-miterlimit="2" viewBox="0 0 800 800" xmlns="http://www.w3.org/2000/svg"><path fill="rgb(255, 255, 255)" d="m400 743.334c-189.621 0-343.333-153.717-343.333-343.334 0-189.621 153.712-343.333 343.333-343.333 189.617 0 343.334 153.712 343.334 343.333 0 189.617-153.717 343.334-343.334 343.334zm0-70c150.959 0 273.334-122.375 273.334-273.334 0-150.962-122.375-273.333-273.334-273.333-150.962 0-273.333 122.371-273.333 273.333 0 150.959 122.371 273.334 273.333 273.334zm-.004-346.667c-19.317 0-34.996-15.683-34.996-35.004 0-19.317 15.684-34.996 35.004-34.996 57.851.004 110.276 35.029 132.421 88.483v.004c14.534 35.105 14.534 74.588 0 109.696l-.004.009c-7.204 17.383-17.758 33.183-31.071 46.496l-.004.004c-26.871 26.858-63.346 41.966-101.337 41.975-19.317.004-35.005-15.675-35.009-34.992s15.675-35.004 34.992-35.008c19.446-.004 38.113-7.734 51.867-21.479 6.804-6.813 12.204-14.896 15.891-23.788 7.438-17.967 7.438-38.167 0-56.133-11.329-27.346-38.15-45.267-67.754-45.267zm.004-100c-19.316 0-35-15.684-35-35 0-19.317 15.684-35 35-35 133.488 0 243.334 109.846 243.334 243.333 0 133.488-109.846 243.334-243.334 243.334-19.316 0-35-15.684-35-35 0-19.317 15.684-35 35-35 95.088 0 173.334-78.246 173.334-173.334 0-95.087-78.246-173.333-173.334-173.333z" stroke-width="4.167"/></svg>