<svg clip-rule="evenodd" fill-rule="evenodd" stroke-linejoin="round" stroke-miterlimit="2" viewBox="0 0 90 71" xmlns="http://www.w3.org/2000/svg"><path fill="rgb(255, 255, 255)" d="m69.433 33.231c.551.358.999 1.072.999 1.727 0 .657-.446 1.37-.998 1.728-1.286.742-2.842 1.639-3.818 2.202-.718.374-1.703.374-2.421.001-.977-.563-2.535-1.461-3.823-2.202-.549-.359-.997-1.072-.997-1.729 0-.656.448-1.369.999-1.727 1.287-.742 2.844-1.639 3.821-2.201.718-.374 1.703-.374 2.421 0 .976.562 2.532 1.46 3.817 2.201zm9.312-5.911c.552.359.999 1.073.999 1.728 0 .656-.448 1.37-1 1.728-1.286.741-2.844 1.639-3.821 2.202-.718.372-1.703.372-2.421-.002-1.656-.955-5.058-2.918-6.715-3.874-.683-.435-1.212-1.29-1.212-2.099 0-1.126 0-2.92 0-4.402 0-.655.446-1.367.996-1.726.587-.298 1.409-.299 1.994-.001 2.964 1.709 8.213 4.735 11.18 6.446zm-19.398-6.448c.586-.296 1.409-.295 1.995.002.549.359.995 1.071.995 1.727v4.4c0 .811-.53 1.667-1.214 2.102-1.66.955-5.07 2.917-6.727 3.871-.716.371-1.7.372-2.417-.001-.976-.561-2.533-1.456-3.82-2.196-.551-.358-1-1.072-1-1.729 0-.656.448-1.37.999-1.728 2.971-1.712 8.224-4.739 11.189-6.448zm-28.715 12.359c.551.359.998 1.072.998 1.727 0 .657-.446 1.37-.998 1.728-1.286.742-2.842 1.64-3.817 2.202-.719.374-1.703.374-2.421.001-.977-.563-2.536-1.461-3.822-2.202-.551-.358-.999-1.072-.999-1.729 0-.656.448-1.369.999-1.727 1.287-.742 2.844-1.639 3.821-2.201.718-.374 1.703-.374 2.422 0 .975.562 2.532 1.46 3.817 2.201zm11.21-5.911c.552.359.999 1.073.999 1.728 0 .656-.448 1.37-1 1.728-1.286.741-2.844 1.639-3.821 2.202-.718.372-1.703.372-2.421-.002-1.656-.955-5.058-2.918-6.715-3.874-.683-.435-1.212-1.29-1.212-2.099 0-1.126 0-2.92 0-4.402 0-.655.446-1.367.996-1.726.587-.298 1.409-.299 1.994-.001 2.964 1.709 8.213 4.735 11.18 6.446zm-19.398-6.448c.586-.296 1.409-.295 1.995.002.549.359.995 1.071.995 1.727v4.4c0 .811-.53 1.667-1.214 2.102-1.66.955-5.07 2.917-6.727 3.871-.716.371-1.7.372-2.417-.001-.976-.561-2.533-1.456-3.82-2.196-.551-.358-1-1.072-1-1.729 0-.656.448-1.37.999-1.728 2.971-1.712 8.224-4.739 11.189-6.448zm37.851 19.134c.551.358.963 1.073.999 1.729-.036.656-.448 1.368-1 1.727-1.287.741-2.845 1.64-3.821 2.202-.718.372-1.704.372-2.421-.002-1.656-.955-5.059-2.918-6.716-3.874-.682-.435-1.212-1.289-1.212-2.099 0-1.126 0-2.92 0-4.402 0-.655.447-1.368.997-1.727.586-.297 1.409-.298 1.994 0 2.964 1.709 8.213 4.735 11.18 6.446zm-19.398-6.448c.585-.297 1.409-.295 1.994.001.55.359.996 1.072.996 1.728v4.4c0 .81-.53 1.666-1.215 2.102-1.66.955-5.069 2.917-6.726 3.871-.716.371-1.7.372-2.418-.001-.975-.562-2.532-1.456-3.819-2.196-.551-.358-1-1.072-1-1.729 0-.656.448-1.37.999-1.728 2.97-1.712 8.223-4.738 11.189-6.448zm9.137 12.359c.551.359.998 1.072.998 1.727 0 .656-.447 1.369-.998 1.728-1.286.741-2.842 1.639-3.817 2.201-.719.374-1.704.374-2.421.001-.977-.563-2.536-1.461-3.822-2.202-.551-.358-.999-1.072-.999-1.728s.448-1.369.999-1.727c1.287-.742 2.844-1.639 3.821-2.201.718-.374 1.703-.374 2.422 0 .975.562 2.532 1.46 3.817 2.201zm11.381-.53c.585-.297 1.408-.296 1.994.001.55.359.996 1.072.996 1.727v4.396c0 .809-.53 1.665-1.214 2.1-2.667 1.538-10.285 5.929-14.076 8.114-.586.296-1.408.295-1.994-.002-.55-.359-.997-1.072-.997-1.727 0-1.479 0-3.27 0-4.395 0-.809.53-1.664 1.214-2.099 2.668-1.538 10.286-5.93 14.077-8.115zm-18.742 8.114c.684.434 1.214 1.29 1.214 2.1v4.396c0 .655-.429 1.399-.996 1.727s-1.408.299-1.994.001c-3.793-2.184-11.418-6.577-14.088-8.115-.684-.434-1.214-1.29-1.214-2.1 0-1.126 0-2.916 0-4.396 0-.655.429-1.399.996-1.727.568-.328 1.409-.298 1.994-.001 3.793 2.185 11.418 6.577 14.088 8.115zm7.359-32.626c.551.358.999 1.072.999 1.728s-.446 1.369-.998 1.727c-1.286.742-2.842 1.639-3.818 2.202-.718.374-1.703.374-2.421.001-.977-.563-2.535-1.461-3.823-2.202-.549-.359-.997-1.072-.997-1.728s.448-1.37.999-1.728c1.287-.742 2.844-1.639 3.821-2.201.718-.374 1.703-.374 2.421 0 .976.562 2.532 1.46 3.817 2.201zm10.262-5.154c.551.359.998 1.073.998 1.728 0 .656-.448 1.37-.999 1.728-1.287.741-2.846 1.64-3.822 2.202-.718.372-1.703.372-2.421-.002-1.655-.955-5.057-2.918-6.714-3.874-.684-.435-1.213-1.29-1.213-2.099 0-1.126 0-2.92 0-4.402 0-.655.447-1.368.997-1.726.586-.298 1.408-.298 1.993-.001 2.965 1.709 8.213 4.735 11.181 6.446zm-19.398-6.447c.585-.297 1.426-.327 1.994.001.567.328.996 1.071.996 1.727v4.4c0 .811-.53 1.667-1.215 2.102-1.66.955-5.07 2.917-6.726 3.871-.716.371-1.7.372-2.418 0-.975-.561-2.532-1.457-3.82-2.197-.551-.358-.963-1.072-.999-1.728.035-.657.448-1.372.998-1.729 2.971-1.712 8.224-4.738 11.19-6.447zm-18.22 30.955c.684.435 1.213 1.29 1.213 2.099v4.395c0 .655-.429 1.399-.996 1.727-.568.328-1.409.298-1.994.001-3.791-2.185-11.41-6.575-14.078-8.113-.682-.435-1.213-1.29-1.213-2.1 0-1.126 0-2.916 0-4.396 0-.655.43-1.399.997-1.727.568-.328 1.409-.298 1.994-.001 3.791 2.185 11.409 6.577 14.077 8.115zm58.724-6.619c.586-.297 1.41-.296 1.995 0 .549.359.997 1.072.997 1.727v4.396c0 .81-.531 1.665-1.214 2.1-2.668 1.538-10.286 5.928-14.077 8.113-.585.297-1.426.327-1.994-.001-.567-.328-.996-1.071-.996-1.727 0-1.479 0-3.27 0-4.395 0-.809.529-1.664 1.213-2.099 2.668-1.538 10.285-5.93 14.076-8.114z" fill-rule="nonzero" stroke-width="1.058"/></svg>