<svg height="48" viewBox="0 -960 960 960" width="48" xmlns="http://www.w3.org/2000/svg"><path fill="rgb(255, 255, 255)" d="m149-135q-39.05 0-66.53-27.48-27.47-27.47-27.47-66.52v-502q0-39.46 27.47-67.23 27.48-27.77 66.53-27.77h662q39.46 0 67.23 27.77 27.77 27.77 27.77 67.23v502q0 39.05-27.77 66.52-27.77 27.48-67.23 27.48zm0-94h662v-418h-662zm212-209-83-83q-9-9-8.5-21t9.5-21q9-9 21-9t21 9l91 91q14 14.36 14 34.18t-14 33.82l-91 91q-9 9-21 9t-21-9q-9-9-9-21t9-21zm159 150q-13 0-21.5-8.5t-8.5-21.5q0-13 8.5-21.5t21.5-8.5h160q13 0 21.5 8.5t8.5 21.5q0 13-8.5 21.5t-21.5 8.5z"/></svg>