<svg xmlns="http://www.w3.org/2000/svg"><path fill="rgb(255, 255, 255)" d="m11.507 260.705c-5.153-13.218-14.499-53.5-10.567-80.313 7.038-44.701 17.982-73.084 58.401-123.986 10.877-13.562 37.191-37.024 45.861-40.845 3.789-1.518 9.141-2.581 13.261-.853 3.757 1.576 7.611 5.979 10.39 11.619 5.079 10.31 10.817 30.025 20.145 64.616 2.393 8.877 4.635 17.141 5.719 21.091.102.003.21.006.325.009 5.104.138 15.554-.313 37.368-1.222 19.984-.832 27.939-.895 31.897-2.038 2.196-.635 1.642-.615 6.094-7.531 3.798-5.696 10.133-14.651 14.057-19.867 3.838-5.101 7.263-9.774 7.658-10.451.665-1.088 1.791-2.718 2.478-3.404.103-.102 3.039-3.504 6.551-7.616 15.797-18.455 34.216-35.048 49.92-45.871 7.934-5.469 15.712-9.802 22.04-12.148 6.667-2.473 14.202-2.491 19.051-.253 6.869 5.389 8.671 9.328 8.596 29.927-.242 27.044 1.465 39.955 11.629 88.742l1.825 8.772c.7 2.461 6.776 23.85 10.876 38.058 1.836 6.363 3.979 13.355 5.092 20.533 1.991 13.332 4.218 35.454.589 51.191-6.951 27.65-24.616 53.031-55.104 72.208-4.981 3.08-26.263 15.941-63.675 24.804-7.694 1.787-17.23 3.788-21.153 4.201-3.471.348-8.781 1.056-11.852 1.582-12.771 2.167-31.635 3.995-47.794 4.631-9.329.363-43.431.414-64.827-3.593-20.557-3.924-42.981-10.579-60.599-20.19-6.349-3.538-24.683-17.703-34.404-28.976-8.137-9.586-15.183-21.079-19.848-32.827zm36.257-11.486.176.455c12.173 31.426 49.867 54.154 104.245 58.028 14.289 1.128 51.149.314 64.675-1.427 34.879-4.436 42.781-5.907 62.856-11.76 9.968-2.88 25.051-8.941 27.403-10.989 1.257-.953 5.812-3.583 10.015-5.774 5.102-2.589 8.717-5.53 16.416-13.223 24.227-23.243 27.299-44.659 13.844-91.31-5.235-18.581-9.324-34.861-11.085-44.11-.707-3.738-1.144-6.346-1.139-6.545-1.287-2.855-7.255-32.715-8.35-41.18-.559-4.345-1.704-13.038-2.547-19.321-.466-3.469-.893-7.328-1.188-10.607-.643.531-1.252 1.046-1.764 1.51-.943.844-5.538 4.912-10.207 9.039-4.599 4.065-11.81 11.876-16.307 16.608-10.596 11.113-30.095 37.253-37.476 50.243-8.582 14.23-13.671 17.258-29.304 17.755-5.579.006-18.393.441-28.509.966-10.176.528-28.108 1.451-39.847 2.052l-23.732 1.213-6.155-4.725c-5.071-4.337-6.481-6.603-9.882-19.297-1.809-6.871-5.941-22.151-9.185-33.964-3.247-11.825-6.544-23.834-7.325-26.687-.106-.386-.219-.787-.337-1.194l-6.391 6.734c-37.445 39.274-55.26 73.21-58.459 104.236l-.317 6.77h2.022c21.156.285 48.993 12.553 80.887 35.857 14.159 10.499 18.091 15.302 18.091 23.555 0 4.118-1.466 8.681-3.441 11.468-2.047 2.888-5.852 5.543-9.115 6.532-6.149 1.863-15.3-.62-21.857-6.119-15.369-14.437-49.474-32.517-63.481-33.672l-3.541-.391c1.842 15.686 10.062 28.875 10.062 28.875zm174.656 11.438c-2.277.658-4.503 1.44-6.759 1.264-2.459-.191-4.515-1.469-6.291-2.404-4.592-2.857-8.791-8.309-10.027-12.967-1.271-4.791-.168-12.176 3.57-15.913 9.628-9.628 38.429-25.97 72.625-36.2 12.132-3.504 25.629-4.313 35.94-3.003 10.616 1.349 20.514 6.597 23.94 12.531 1.579 4.403 1.985 10.041.763 14.062-1.239 4.078-4.879 8.474-8.693 10.964l-5.733 3.3-10.319-1.98c-17.011-3.544-39.147 1.662-61.131 14.269-10.061 5.694-19.968 11.607-19.893 11.875-1.655 1.426-5.42 3.434-7.992 4.202z"/></svg>