<?xml version="1.0" encoding="utf-8"?>
<svg viewBox="0 0 250 250" xmlns="http://www.w3.org/2000/svg">
  <path fill="rgb(255, 255, 255)" d="M 50.077 209.999 L 199.923 209.999 L 188.138 169.591 L 185.681 169.591 C 186.37 173.032 186.417 177.898 185.338 180.931 C 184.204 184.121 180.654 188.167 177.62 190.391 C 162.595 199.231 143.77 204.948 125 204.948 C 106.23 204.948 87.404 199.23 72.378 190.39 C 69.346 188.167 65.797 184.121 64.662 180.933 C 63.583 177.901 63.63 173.034 64.318 169.591 L 61.862 169.591 L 50.077 209.999 Z M 188.138 149.386 C 192.056 149.672 197.337 151.235 200.26 153.427 C 203.184 155.619 206.163 160.253 207.534 163.933 L 219.319 204.34 C 220.337 210.116 219.136 218.055 216.088 222.121 C 213.038 226.187 205.752 229.563 199.923 230.203 L 50.077 230.203 C 44.248 229.563 36.962 226.187 33.913 222.121 C 30.864 218.055 29.663 210.118 30.681 204.342 L 42.466 163.933 C 43.837 160.253 46.816 155.619 49.74 153.427 C 52.663 151.235 57.944 149.672 61.862 149.386 L 70.45 149.386 L 105.677 34.098 C 107.248 30.09 110.461 25.437 113.424 23.383 C 116.464 21.278 121.54 19.797 125 19.797 C 128.46 19.797 133.536 21.278 136.576 23.383 C 139.539 25.437 142.752 30.091 144.323 34.098 L 179.55 149.386 L 188.138 149.386 Z M 165.902 173.864 L 159.144 151.748 C 148.452 155.468 136.782 157.594 125 157.594 C 113.218 157.594 101.556 155.468 90.856 151.744 L 84.098 173.864 C 96.407 181.145 109.636 184.744 125 184.744 C 140.364 184.744 153.593 181.145 165.902 173.864 Z M 125 40.003 L 113.428 77.875 C 117.098 79.821 120.758 80.66 125.023 80.566 C 129.279 80.66 132.911 79.819 136.572 77.876 L 125 40.003 Z M 125 131.076 C 134.482 131.076 143.2 129.512 151.413 126.445 L 144.323 103.239 C 138.129 105.656 131.455 107.01 124.994 107.084 C 118.538 107.013 111.857 105.665 105.672 103.258 L 98.587 126.446 C 106.797 129.512 115.518 131.076 125 131.076 Z"/>
</svg>