<svg clip-rule="evenodd" fill-rule="evenodd" stroke-linejoin="round" stroke-miterlimit="2" viewBox="0 0 250 250" xmlns="http://www.w3.org/2000/svg"><path fill="rgb(255, 255, 255)" d="m36.015 207.006c-6.988 0-12.941-2.459-17.858-7.377-4.916-4.916-7.374-10.868-7.374-17.856v-134.752c0-7.062 2.458-13.077 7.374-18.047 4.917-4.969 10.87-7.454 17.858-7.454h177.702c7.061 0 13.077 2.485 18.046 7.454 4.97 4.97 7.455 10.985 7.455 18.047v134.752c0 6.988-2.485 12.94-7.455 17.856-4.969 4.918-10.985 7.377-18.046 7.377h-44.828v8.858c0 3.534-1.27 6.52-3.809 8.957-2.538 2.44-5.563 3.659-9.076 3.659h-62.276c-3.534 0-6.52-1.219-8.958-3.659-2.439-2.437-3.658-5.423-3.658-8.957v-8.858zm0-35.233c0 5.523 4.478 10 10 10h157.702c5.523 0 10-4.477 10-10v-114.752c0-5.523-4.477-10-10-10h-157.702c-5.522 0-10 4.477-10 10zm88.977-23.465c-4.681 0-9.057-.871-13.126-2.614-4.07-1.743-7.63-4.14-10.682-7.192-3.051-3.051-5.448-6.61-7.192-10.677-1.742-4.065-2.613-8.441-2.613-13.127s.871-9.066 2.613-13.14c1.744-4.073 4.137-7.624 7.179-10.652 3.044-3.028 6.601-5.426 10.671-7.191 4.07-1.768 8.451-2.65 13.141-2.65s9.075.882 13.156 2.643c4.079 1.763 7.63 4.155 10.655 7.176 3.025 3.02 5.418 6.573 7.181 10.657 1.765 4.083 2.647 8.472 2.647 13.164 0 4.689-.883 9.068-2.649 13.137-1.767 4.068-4.164 7.62-7.192 10.656-3.028 3.035-6.58 5.429-10.654 7.182-4.074 1.752-8.453 2.628-13.135 2.628z"/></svg>