<svg viewBox="0 0 128 128" xmlns="http://www.w3.org/2000/svg"><path fill="rgb(255, 255, 255)" d="m120.834 12.333v103.334c0 5.703-4.631 10.333-10.334 10.333h-93c-5.703 0-10.333-4.63-10.333-10.333v-103.334c0-5.702 4.63-10.333 10.333-10.333h93c5.703 0 10.334 4.631 10.334 10.333zm-10.334 21.442v-21.442h-93v11.144c0-1.875 1.519-3.394 3.393-3.394h48.756c1.874 0 3.393 1.519 3.393 3.394v10.298c0-1.855 1.503-3.358 3.358-3.358h30.742c1.855 0 3.358 1.503 3.358 3.358zm0 46.535v-12.435h-93v22.734c0-1.855 1.504-3.359 3.358-3.359h30.742c1.855 0 3.358 1.504 3.358 3.359v-10.299c0-1.874 1.519-3.393 3.394-3.393h48.755c1.874 0 3.393 1.519 3.393 3.393zm-91.71 32.774c-.342 0-.67.135-.911.378-.243.242-.379.57-.379.912v.003c0 .342.136.67.379.912.241.242.569.378.911.378h90.42c.342 0 .67-.136.912-.378.243-.242.378-.57.378-.912 0-.002 0-.002 0-.003 0-.342-.135-.67-.378-.912-.242-.243-.57-.378-.912-.378-10.371 0-80.049 0-90.42 0zm0-56.834c-.342 0-.67.136-.911.379-.243.241-.379.569-.379.912v.002c0 .342.136.671.379.912.241.243.569.379.911.379h90.42c.342 0 .67-.136.912-.379.243-.241.378-.57.378-.912 0-.001 0-.001 0-.002 0-.343-.135-.671-.378-.912-.242-.243-.57-.379-.912-.379-10.371 0-80.049 0-90.42 0zm64.925-16.345c0 .908.362 1.781 1.003 2.425.644.642 1.517 1.003 2.424 1.003h9.258c.907 0 1.78-.361 2.424-1.003.642-.644 1.003-1.517 1.003-2.425 0-.91-.361-1.782-1.003-2.425-.644-.643-1.517-1.005-2.424-1.005h-9.258c-.907 0-1.78.362-2.424 1.005-.641.643-1.003 1.515-1.003 2.425zm-49.443-9.487c0 .908.362 1.781 1.003 2.425.644.642 1.517 1.003 2.424 1.003h15.144c.907 0 1.78-.361 2.424-1.003.642-.644 1.003-1.517 1.003-2.425 0-.91-.361-1.782-1.003-2.425-.644-.643-1.517-1.005-2.424-1.005h-15.144c-.907 0-1.78.362-2.424 1.005-.641.643-1.003 1.515-1.003 2.425zm-6.099 66.321c0 .908.362 1.781 1.003 2.425.644.642 1.517 1.003 2.424 1.003h9.258c.907 0 1.78-.361 2.424-1.003.642-.644 1.003-1.517 1.003-2.425 0-.91-.361-1.782-1.003-2.425-.644-.643-1.517-1.005-2.424-1.005h-9.258c-.907 0-1.78.362-2.424 1.005-.641.643-1.003 1.515-1.003 2.425zm43.558-9.488c0 .908.362 1.781 1.003 2.425.644.642 1.517 1.003 2.424 1.003h15.144c.907 0 1.78-.361 2.424-1.003.642-.644 1.003-1.517 1.003-2.425 0-.91-.361-1.782-1.003-2.425-.644-.643-1.517-1.005-2.424-1.005h-15.144c-.907 0-1.78.362-2.424 1.005-.641.643-1.003 1.515-1.003 2.425z"/></svg>