<svg viewBox="0 0 1200 1200" xmlns="http://www.w3.org/2000/svg"><path fill="rgb(255, 255, 255)" d="m1121.25 599.998c0 70.528-15.19 141.915-40.98 202.903-25.85 61.108-65.56 119.531-111.7 165.668-46.138 46.141-104.564 85.841-165.672 111.691-60.988 25.8-132.375 40.98-202.903 40.98-70.529 0-141.915-15.18-202.903-40.98-61.109-25.85-119.534-65.55-165.671-111.691-46.137-46.137-85.843-104.56-111.689-165.668-25.796-60.988-40.979-132.375-40.979-202.903 0-70.529 15.183-141.915 40.979-202.903 25.846-61.109 65.552-119.534 111.689-165.671s104.562-85.843 165.671-111.689c60.988-25.796 132.374-40.979 202.903-40.979 70.528 0 141.915 15.183 202.903 40.979 61.108 25.846 119.534 65.552 165.672 111.689 46.14 46.137 85.85 104.562 111.7 165.671 25.79 60.988 40.98 132.374 40.98 202.903zm-118.92-169.941c-22.633-53.49-53.061-98.267-93.595-138.8-40.533-40.532-85.309-70.965-138.799-93.589-53.609-22.675-108.216-34.294-169.941-34.294s-116.332 11.619-169.941 34.294c-53.49 22.624-98.267 53.057-138.8 93.589-40.532 40.533-70.965 85.31-93.589 138.8-22.675 53.609-34.294 108.216-34.294 169.941s11.619 116.332 34.294 169.941c22.624 53.49 53.057 98.266 93.589 138.794 40.533 40.538 85.31 70.968 138.8 93.597 53.609 22.68 108.216 34.3 169.941 34.3s116.332-11.62 169.941-34.3c53.49-22.629 98.266-53.059 138.799-93.597 40.534-40.528 70.962-85.304 93.595-138.794 22.67-53.609 34.29-108.216 34.29-169.941s-11.62-116.332-34.29-169.941zm-676.492 402.235c-2.356-1.275-5.289-4.453-6.398-6.87-1.812-3.953-1.696-10.428-.581-15.686 2.306-9.088 8.904-21.606 17.931-34.45l128.59-150.663c39.405-46.113 69.287-83.683 89.929-113.079 20.558-29.221 31.66-48.49 34.064-59.492.557-1.988.495-2.362.292-3.341-.014-.066-.019-.12-.02-.162-.015-.005-.031-.01-.046-.015-2.034-2.118-3.82-2.943-7.593-3.636-4.379-1.002-8.005-1.426-11.937-1.395-25.308-.421-65.167 17.602-122.162 54.8-15.971 10.26-30.826 21.543-45.17 34.31-14.441 12.827-28.093 26.345-41.362 40.957-25.749 28.942-40.161 51.728-44.34 70.499-1.709 6.539-1.522 9.489-.201 12.447 1.159 2.593 1.967 3.398 6.272 4.162 3.632 1.253 7.415 1.739 12.852 1.693 10.307.163 20.41-2.667 32.621-8.73 12.653-6.283 25.053-14.066 37.992-23.921 10.434-8.093 19.171-13.951 23.237-13.951 1.784 0 5.496 1.187 7.152 2.613 1.658 1.432 3.383 4.954 3.638 6.732.322 2.225-.377 5.583-1.043 7.587-.118.328-.255.652-.41.966-4.443 8.666-12.178 17.707-21.952 25.154-9.424 7.182-20.584 13.905-32.583 19.722-11.986 5.766-24.193 10.413-35.797 13.629-11.684 3.185-22.578 4.896-31.379 4.958-14.489-.286-28.2-5.321-37.78-13.773-4.874-4.906-9.063-12.032-10.468-18.929-1.355-6.641-.877-15.123.961-23.246 5.887-23.601 24.879-52.911 55.813-85.741 29.634-31.496 64.054-59.892 102.351-84.439 15.871-10.303 34.151-20.292 54.275-29.649 20.13-9.335 40.367-17.162 60.079-23.236 19.97-6.101 38.165-9.296 53.148-9.37 13.92.161 26.509 3.359 33.404 9.554 3.755 3.373 7.018 9.063 8.081 14.049 1.008 4.725.651 11.016-.587 16.628-6 24.232-31.488 65.39-75.451 121.455-11.999 15.031-25.329 31.181-39.975 48.435 10.913-9.345 21.265-17.961 31.034-25.828 8.316-6.825 18.432-15.323 30.47-25.596l42.349-36.131c14.09-11.654 27.815-22.325 40.924-31.818 13.922-9.931 27.777-15.556 38.69-15.951 5.48.07 11.296 1 15.198 2.794 4.405 2.026 8.655 7.136 10.591 11.478 1.152 3.443.306 7.24-2.201 9.867-38.97 40.831-77.968 90.56-117.539 149.871-28.117 42.176-44.23 72.927-49.027 93.837-2.965 11.451-3.113 16.617.529 19.727 2.735 4.326 6.288 5.421 14.445 5.082 9.598.182 19.689-2.73 32.473-9.254 13.251-6.632 26.561-15.025 40.674-25.635 14.264-10.696 27.738-21.837 40.654-33.607 46.433-41.505 85.758-85.958 118.752-134.252 25.772-37.779 40.782-66.675 45.755-88.322.138-.577.262-1.12.372-1.64-5.671-2.562-11.052-6.758-15.462-12.426-4.798-6.166-7.213-15.032-6.173-22.248 1.745-5.964 6.052-12.381 11.076-16.447 5.159-3.567 12.11-6.262 17.935-6.262 4.504 0 10.286 1.815 13.585 4.502 3.266 2.664 6.085 8.149 7.309 12.512.231 1.791 1.25 3.726 3.75 7.483 1.233 1.955 2.544 4.542 3.096 6.484.043.175.086.358.123.55 1.914-.035 3.546-1.209 6.797-4.228 6.258-5.107 14.39-8.875 21.168-8.875 2.699 0 7.634 1.568 9.817 3.878 1.297 1.378 2.755 4.46 3.041 6.23.223 1.48.008 3.831-.246 5.172-2.31 6.393-8.528 13.147-16.396 17.582-4.764 3.02-10.704 5.153-16.362 6.143-2.249.302-4.577.556-6.832.745-.117 9.923-.856 18.029-2.157 23.782-7.338 30.179-29.265 69.42-64.903 115.88-17.875 23.376-37.436 45.717-58.263 66.549-20.85 20.826-43.562 40.575-67.663 58.84-48.465 37.405-90.284 56.815-122.557 57.287-18.276-.323-34.289-6.229-42.079-17.097-7.681-10.721-8.953-28.115-4.734-46.98 4.067-16.955 11.938-36.64 23.171-57.886 11.117-20.955 23.449-42.002 36.773-62.765l26.622-41.33c-10.365 7.55-19.043 13.948-26.088 19.234-7.111 5.335-13.811 10.668-20.317 16.173-6.61 5.587-14.488 12.306-23.711 20.222-10.071 8.949-23.677 21.676-41.086 38.427-17.374 16.719-37.916 37.46-61.736 62.331l-74.118 77.008c-4.55 4.63-9.826 9.157-15.188 13.031-2.969 2.097-6.428 4.076-9.357 5.227-2.985 1.172-6.375 1.344-6.571 1.354-.589.231-1.207.409-1.845.523-1.142.207-2.293.205-3.401.015-2.253-.271-4.891-.891-6.608-1.818zm530.559-355.889c0 .054-.001.108 0 .162 0-.054 0-.108 0-.162zm7.454 9.651c.328.08.66.144.995.191.004-.015.007-.031.011-.047-.335-.041-.671-.091-1.006-.144zm-442.289 138.988c-.052.106-.102.213-.15.322.051-.107.101-.215.15-.322zm469.264-163.546c-.072 1.099-.224 2.219-.42 3.245.065-.007.13-.011.196-.016.253-1.059.326-2.15.224-3.229z"/></svg>