<svg height="48" viewBox="0 -960 960 960" width="48" xmlns="http://www.w3.org/2000/svg"><path fill="rgb(255, 255, 255)" d="m189-189h582v-375l-207-207h-375zm0 94q-38.78 0-66.39-27.61t-27.61-66.39v-582q0-39.19 27.61-67.09 27.61-27.91 66.39-27.91h375q19.2 0 36.6 8 17.4 8 31.4 21l205 205q13 14 21 31.4t8 36.6v375q0 38.78-27.91 66.39-27.9 27.61-67.09 27.61zm114.82-202h353.57q13.36 0 22.49-9.89 9.12-9.89 9.12-23.48t-9.2-22.61q-9.2-9.02-22.8-9.02h-354.34q-13.41 0-22.53 9.19-9.13 9.2-9.13 22.79 0 13.6 9.84 23.31 9.83 9.71 22.98 9.71zm-.05-147h352.66q13.32 0 22.95-9.89 9.62-9.89 9.62-23.29 0-13.4-9.84-23.11-9.83-9.71-22.93-9.71h-352.66q-13.32 0-22.94 9.89-9.63 9.89-9.63 23.29 0 13.4 9.84 23.11 9.83 9.71 22.93 9.71zm.23-148h211.92q13.83 0 23.46-9.89 9.62-9.89 9.62-23.29 0-13.4-9.84-23.11-9.83-9.71-23.16-9.71h-211.92q-13.83 0-23.45 9.89-9.63 9.89-9.63 23.29 0 13.4 9.84 23.11 9.83 9.71 23.16 9.71zm-115 403v-582z"/></svg>