<svg height="48" width="48" xmlns="http://www.w3.org/2000/svg"><path fill="rgb(255, 255, 255)" d="m23.999 12.913c2.729 0 5.406.29 7.834.903.026.006.051.014.077.023l5.409-7.067c.175-.229.447-.363.734-.363h2.854c.351 0 .673.2.827.514.157.313.121.69-.094.971l-5.613 7.351c2.778 1.225 5.191 2.888 6.893 4.799 1.929 2.164 3.119 4.881 3.119 7.624 0 4.489-2.787 8.126-6.952 10.804l2.823 3.958c.199.28.226.652.066.959-.157.307-.473.5-.819.5h-8.573c-.297 0-.577-.143-.75-.383l-1.223-1.706c-2.081.435-4.104.675-6.612.675-4.197 0-7.679-.712-10.871-1.914l-2.239 2.949c-.174.233-.446.367-.736.367h-2.926c-.353 0-.672-.2-.827-.514-.157-.314-.121-.69.092-.971l2.812-3.681c-4.376-2.686-7.343-6.414-7.343-11.043 0-2.644 1.107-5.271 2.909-7.384 1.627-1.905 3.952-3.579 6.636-4.829l-5.415-7.57c-.2-.281-.227-.652-.067-.96.157-.308.473-.5.821-.5l8.572.007c.296 0 .573.142.748.381l4.557 6.287c.022-.004.043-.007.066-.01 1.002-.096 2.147-.177 3.211-.177zm1.561 2.66c-.105 0-.338-.031-.596.022-.306.063-.493.065-.627.391-.003 0-.004 0-.006-.002.018.022.037.061.06.132.075.261.229.551.475.956.499.823 1.485 2.189 2.003 3.273.105.221 3.376-4.327 3.376-4.327-1.493-.293-3.042-.445-4.685-.445zm-16.929 11.398c0 3.114 1.424 5.349 4.02 7.359l6.384-8.353-5.173-7.23c-3.338 2.107-5.231 4.932-5.231 8.224zm7.602 9.499c2.687 1.219 5.406 1.894 9.327 1.894 1.386 0 1.68-.041 2.491-.124l-6.402-8.905zm12.813-12.08 7.86 11.023c3.553-2.108 5.579-4.81 5.579-8.442 0-2.129-.788-3.973-2.301-5.715-1.419-1.635-3.329-2.978-5.714-3.968z"/></svg>