<svg viewBox="0 0 48 48" xmlns="http://www.w3.org/2000/svg"><path fill="rgb(255, 255, 255)" d="m34.475 35.037c-.323-.033-.36-.051-.372-.162-.075-.357.372-.811 1.277-1.348.633-.381.906-.586.906-.727 0-.051-.273-.617-.558-1.257-.298-.64-.583-1.214-.596-1.276-.012-.062-.186-.237-.372-.391-.174-.153-.335-.296-.335-.32 0-.06.372-1.294.534-1.768.322-.941.955-2.332 1.017-2.254.025.018.099.249.149.512.149.726.446 1.632 1.129 3.405.657 1.697 1.178 3.198 1.29 3.726.074.391.062.429-.558.965-.484.408-.931.665-1.477.803-.359.097-1.488.148-2.034.092zm-7.257-.074c0-.037.111-.172.223-.301.298-.283.757-.456 1.886-.734.868-.214 1.19-.332 1.228-.469.062-.124.854-2.517.173-4.161-1.181-2.85-.818-3.874-5.433-1.963-1.194.495-1.849 1.215-1.65 2.116.049.138.161.697.285 1.239.36 1.611.484 2.725.36 3.568-.037.253-.037.259-.248.291-.137.019-1.079.026-2.097.018l-1.848-.018.124-.145c.161-.208.657-.458 1.501-.747.906-.317.918-.32.918-.383 0-.087-.707-1.326-1.166-1.992-.993-1.535-2.121-2.741-3.25-3.506-.757-.51-1.886-.974-2.345-.974-.447 0-1.216-.172-1.6-.367-.484-.235-.807-.54-1.737-1.641-.881-1.087-1.501-1.59-2.605-2.166-1.526-.806-3.312-1.262-7.183-1.849-1.625-.243-1.761-.288-1.96-.68-.285-.492-.161-1.455.223-1.896.273-.309.311-.318.757-.137 1.154.481 2.704.514 5.409.109 2.692-.403 3.374-.5 3.858-.536l.509-.038.049-.213c.037-.117.137-.641.261-1.162.31-1.504.533-2.094 1.042-2.602.273-.267.955-.684 1.129-.684.074 0 .124.122.173.41.149.672.211 1.063.211 1.319 0 .134.013.244.025.244s.161-.064.347-.142c.521-.231 1.501-.301 1.501-.109 0 .041-.049.247-.099.459-.422 1.907-1.203 3.055-2.32 3.395l-.322.098.161.123c.248.185.931.506 1.278.599.372.105 1.005.107 1.364.008.546-.142.931-.385 1.812-1.149 2.741-2.327 3.87-3.148 5.297-3.847 1.402-.681 2.344-.915 3.721-.919 3.275-.007 6.203.943 8.3 2.686 1.401 1.147 2.344 2.353 4.18 5.278 1.799 2.873 2.37 3.657 3.499 4.81 1.054 1.094 2.096 1.875 3.374 2.545.67.348.93.56.794.648-.124.074-.323.067-1.005-.034-2.369-.348-4.404-1.25-6.166-2.724-.297-.25-1.004-.925-1.55-1.5-1.092-1.136-1.34-1.322-1.824-1.322-1.116 0-2.084 1.773-3.089 5.635-.087.356-.322 1.306-.521 2.112-.446 1.927-.583 2.502-.757 3.028l-.136.437h-2.543c-1.886 0-2.518-.016-2.518-.065zm-19.167-.423c0-.057.286-.426.447-.574.347-.316 1.029-.531 1.972-.621.422-.043.608-.082.695-.159.037-.056.31-.406.546-.778 1.34-1.92 1.972-3.269 1.985-4.225 0-.304-.025-.52-.087-.663l-.099-.211h.67c.781 0 1.426.1 2.084.315.682.234 1.786.817 1.736.93-.012.023-.322.368-.682.765-.372.398-.98 1.04-1.327 1.425-.893.982-1.886 1.959-2.519 2.491-.918.755-1.587 1.241-1.798 1.292-.261.056-3.623.069-3.623.013z"/></svg>