<svg viewBox="0 0 800 800" xmlns="http://www.w3.org/2000/svg"><path fill="rgb(255, 255, 255)" d="m512.72 618.955c3.681 14.611.419 30.103-8.845 41.985-9.261 11.883-23.486 18.834-38.554 18.834-70.528.004-176.305.004-176.305.004-106.557-.122-185.417-9.137-228.059-51.808-42.645-42.671-51.719-121.523-51.719-227.965 0-106.447 9.074-185.295 51.719-227.973 42.642-42.67 121.507-51.68 228.059-51.81h221.967c106.557.13 185.417 9.14 228.058 51.81 33.72 33.748 46.45 99.528 50.301 178.206.805 14.899-5.38 29.319-16.729 38.998-11.353 9.684-26.565 13.522-41.15 10.379-.186-.068-.373-.11-.563-.157-21.554-4.626-37.156-23.384-37.783-45.42-1.529-61.001-6.634-97.216-22.765-113.36-20.901-20.91-57.65-23.46-159.369-23.337h-221.967c-101.723-.123-138.468 2.427-159.369 23.337-20.897 20.918-23.295 57.671-23.295 159.327 0 101.651 2.398 138.404 23.295 159.318 20.901 20.914 57.65 23.464 159.369 23.345h177.148c21.999 0 41.184 14.95 46.56 36.283-.004 0-.004 0-.004.004zm-216.769-117.214v-203.472c0-14.221 7.676-27.332 20.079-34.288 12.404-6.956 27.594-6.668 39.723.746l166.477 101.736c11.688 7.138 18.813 19.846 18.813 33.542 0 13.691-7.125 26.399-18.813 33.537l-166.477 101.736c-12.129 7.414-27.319 7.702-39.723.746-12.403-6.956-20.079-20.063-20.079-34.283zm374.354 178.037c-33.016 0-61.242-11.819-84.672-35.465-23.435-23.642-35.152-51.652-35.152-84.033 0-33.411 11.713-61.899 35.147-85.456 23.427-23.545 51.754-35.321 84.995-35.321 32.805 0 61.026 11.776 84.673 35.321 23.646 23.557 35.465 52.045 35.465 85.456 0 32.381-11.819 60.391-35.465 84.033-23.647 23.646-51.974 35.465-84.991 35.465zm-18.258-150.308c-1.309-1.105-2.702-1.974-4.168-2.639l-3.609-1.182-3.732-.389-3.737.389-3.613 1.182c-2.055.941-3.982 2.288-5.74 4.109-.805.771-1.525 1.606-2.16 2.491l-1.852 3.224-1.118 3.55c-.233 1.165-.352 2.368-.352 3.622 0 4.85 1.691 9.231 5.262 13.06l.22.225 29.89 29.881c1.737 1.742 3.72 3.106 5.956 4.097 1.178.525 2.352.906 3.538 1.173l3.787.424 3.787-.424c1.182-.267 2.364-.648 3.541-1.173 2.229-.991 4.22-2.355 5.952-4.097l29.886-29.881.225-.225c3.588-3.855 5.261-8.21 5.261-12.954 0-4.91-1.766-9.269-5.486-12.98-3.622-3.626-7.921-5.456-12.844-5.587l-3.787.3-3.69 1.148c-1.503.657-2.927 1.534-4.274 2.656v-35.85c0-5.249-1.843-9.625-5.384-13.175-3.55-3.554-7.93-5.384-13.187-5.384-5.253 0-9.637 1.83-13.183 5.384-3.55 3.55-5.389 7.926-5.389 13.175zm-15.296 114.754h67.736c5.253 0 9.637-1.838 13.187-5.388 3.546-3.55 5.384-7.922 5.384-13.187 0-5.253-1.838-9.634-5.384-13.175-3.55-3.55-7.934-5.388-13.187-5.388h-67.736c-5.253 0-9.638 1.838-13.188 5.388-3.545 3.541-5.384 7.922-5.384 13.175 0 5.265 1.839 9.637 5.384 13.187 3.55 3.55 7.935 5.388 13.188 5.388z"/></svg>