<svg viewBox="0 0 128 128" xmlns="http://www.w3.org/2000/svg"><path fill="rgb(255, 255, 255)" d="m64 1.805c34.326 0 62.194 27.869 62.194 62.195s-27.868 62.194-62.194 62.194-62.194-27.868-62.194-62.194 27.868-62.195 62.194-62.195zm0 12.044c-27.679 0-50.151 22.472-50.151 50.151s22.472 50.151 50.151 50.151 50.151-22.472 50.151-50.151-22.472-50.151-50.151-50.151zm0 7.639c23.463 0 42.512 19.049 42.512 42.512s-19.049 42.512-42.512 42.512-42.512-19.049-42.512-42.512 19.049-42.512 42.512-42.512zm0 8.893c-18.555 0-33.619 15.064-33.619 33.619s15.064 33.619 33.619 33.619 33.619-15.064 33.619-33.619-15.064-33.619-33.619-33.619zm0 9.091c13.538 0 24.528 10.991 24.528 24.528s-10.99 24.528-24.528 24.528-24.528-10.991-24.528-24.528 10.99-24.528 24.528-24.528zm0 6.956c-9.698 0-17.571 7.874-17.571 17.572s7.873 17.571 17.571 17.571c9.697 0 17.571-7.873 17.571-17.571s-7.874-17.572-17.571-17.572z"/></svg>