<svg viewBox="0 0 90 90" xmlns="http://www.w3.org/2000/svg"><path fill="rgb(255, 255, 255)" d="m83.5 11v3c0 1.933-1.567 3.5-3.5 3.5h-30l.001 4.432c5.897 1.193 10.795 3.43 15.356 8.258 4.559 4.826 7.643 12.021 7.643 19.225s-3.084 14.399-7.643 19.226c-4.561 4.827-9.441 7.085-15.356 8.263l-.001 4.097c0 1.932-1.567 3.499-3.5 3.499h-3c-1.933 0-3.5-1.567-3.5-3.5v-4.101c-5.898-1.194-10.795-3.431-15.356-8.258-4.56-4.827-7.644-12.022-7.644-19.226s3.084-14.399 7.644-19.226c4.561-4.827 9.441-7.085 15.356-8.263v-4.426h-30c-1.933 0-3.5-1.567-3.5-3.5v-3c0-1.933 1.567-3.5 3.5-3.5h70c1.933 0 3.5 1.567 3.5 3.5zm-56.5 38.415c-.14 4.998 1.67 8.899 4.864 12.306 3.191 3.406 4.943 4.281 8.136 5.11v-34.818c-3.169.847-4.945 1.689-8.136 5.095-3.194 3.407-5.004 7.308-4.864 12.306zm23-17.4v34.8c3.169-.847 4.945-1.689 8.137-5.094 3.193-3.408 4.863-7.308 4.863-12.306s-1.67-8.898-4.863-12.306c-2.331-2.487-4.968-4.247-8.137-5.094z"/></svg>