<svg clip-rule="evenodd" fill-rule="evenodd" stroke-linejoin="round" stroke-miterlimit="2" viewBox="0 0 250 250" xmlns="http://www.w3.org/2000/svg"><path fill="rgb(255, 255, 255)" d="m151.626 112.043c-6.208 0-11.242-5.033-11.242-11.242v-69.38c0-6.209 5.034-11.243 11.242-11.243h.004c6.209 0 11.242 5.034 11.242 11.243v69.38c0 6.209-5.033 11.242-11.242 11.242zm46.531 0c-6.275 0-11.362-5.087-11.362-11.362v-69.141c0-6.275 5.087-11.362 11.362-11.362h.003c6.275 0 11.362 5.087 11.362 11.362v69.141c0 6.275-5.087 11.362-11.362 11.362zm-157.678-80.692c0-3.442 1.198-6.142 3.41-8.176 2.188-2.011 4.722-2.997 7.585-2.997.866 0 1.786.102 2.762.319 1.064.237 2.124.655 3.171 1.275l.123.077 54.818 35.134.063.041c1.588 1.059 2.802 2.359 3.672 3.871.922 1.604 1.394 3.364 1.394 5.289 0 1.923-.472 3.684-1.394 5.288-.87 1.512-2.084 2.812-3.672 3.87l-.063.042-54.818 35.134-.131.081c-1.144.675-2.308 1.082-3.478 1.254-.876.128-1.7.19-2.473.19-2.855 0-5.358-.942-7.506-2.825-2.219-1.946-3.463-4.643-3.463-8.202zm22.053 49.686 23.437-14.853-23.437-14.854zm-13.791 148.784c-5.851 0-10.8-2.023-14.85-6.054-4.053-4.031-6.087-8.973-6.087-14.83 0-5.852 2.023-10.8 6.054-14.851 4.031-4.053 8.973-6.086 14.83-6.086 5.852 0 10.801 2.022 14.851 6.053 4.053 4.032 6.086 8.973 6.086 14.831 0 5.852-2.022 10.8-6.053 14.85-4.032 4.053-8.973 6.087-14.831 6.087zm3.875-17.01c1.053-1.053 1.57-2.356 1.57-3.901 0-1.544-.517-2.847-1.57-3.901-1.054-1.053-2.357-1.569-3.901-1.569-1.644 0-2.979.483-3.974 1.532-1.009 1.063-1.497 2.38-1.497 3.938s.488 2.876 1.497 3.939c.995 1.048 2.33 1.532 3.974 1.532 1.544 0 2.847-.516 3.901-1.57zm32.154 10.942c-3.968-4.028-5.962-8.964-5.962-14.816 0-5.847 1.983-10.79 5.929-14.836 3.958-4.061 8.867-6.101 14.735-6.101 5.852 0 10.8 2.022 14.85 6.053 4.053 4.032 6.087 8.973 6.087 14.831 0 5.852-2.022 10.8-6.053 14.85-4.032 4.053-8.974 6.087-14.831 6.087-5.863 0-10.778-2.03-14.755-6.068zm18.995-10.757c1.112-1.058 1.644-2.427 1.644-4.086 0-1.686-.55-3.1-1.68-4.23-1.13-1.131-2.544-1.68-4.23-1.68-1.66 0-3.028.532-4.086 1.644-1.084 1.139-1.605 2.567-1.605 4.266 0 1.679.491 3.066 1.539 4.137 1.041 1.064 2.436 1.554 4.152 1.554 1.699 0 3.127-.521 4.266-1.605zm31.913 10.771c-4.053-4.031-6.086-8.973-6.086-14.83 0-5.852 2.022-10.8 6.053-14.851 4.032-4.053 8.973-6.086 14.831-6.086 5.862 0 10.778 2.029 14.754 6.067 3.968 4.028 5.963 8.965 5.963 14.817 0 5.846-1.983 10.789-5.929 14.836-3.958 4.06-8.867 6.101-14.736 6.101-5.852 0-10.8-2.023-14.85-6.054zm19.164-10.736c1.067-1.067 1.57-2.448 1.57-4.121 0-1.699-.52-3.127-1.604-4.266-1.059-1.112-2.427-1.644-4.086-1.644s-3.028.532-4.086 1.644c-1.084 1.139-1.605 2.567-1.605 4.266 0 1.679.492 3.066 1.539 4.137 1.041 1.064 2.436 1.554 4.152 1.554 1.672 0 3.054-.503 4.12-1.57zm46.47 16.79c-5.852 0-10.8-2.023-14.85-6.054-4.053-4.031-6.087-8.973-6.087-14.83 0-5.852 2.022-10.8 6.053-14.851 4.032-4.053 8.974-6.086 14.831-6.086 5.852 0 10.8 2.022 14.85 6.053 4.053 4.032 6.087 8.973 6.087 14.831 0 5.852-2.022 10.8-6.053 14.85-4.032 4.053-8.974 6.087-14.831 6.087zm-149.592-72.596c-2.981 0-5.841-1.184-7.949-3.292s-3.292-4.968-3.292-7.949v-.004c0-2.982 1.184-5.841 3.292-7.949 2.108-2.109 4.968-3.293 7.949-3.293h24.078c-.166-1.043-.027-2.13.43-3.122.91-1.976 2.002-3.865 3.26-5.64 1.118-1.577 2.988-2.443 4.913-2.267 1.496.136 3.304.301 4.757.433 2.665-2.259 5.596-3.927 8.794-5.002l2.049-4.441c.81-1.756 2.497-2.945 4.422-3.123 2.167-.201 4.348-.199 6.516.003 1.924.18 3.608 1.366 4.418 3.122.694 1.5 1.546 3.342 2.182 4.721 2.924 1.085 5.623 2.675 8.096 4.771l5.326-.488c1.925-.175 3.799.69 4.915 2.269 1.257 1.776 2.346 3.666 3.256 5.643.455.992.594 2.078.428 3.121h58.72c2.981 0 5.841 1.184 7.949 3.293 2.108 2.108 3.293 4.967 3.293 7.949v.004c0 2.981-1.185 5.841-3.293 7.949s-4.968 3.292-7.949 3.292h-58.727c.183 1.063.047 2.174-.419 3.187-.91 1.977-2.002 3.864-3.26 5.641-1.118 1.577-2.988 2.441-4.913 2.266-1.721-.156-3.852-.35-5.383-.49-2.446 2.072-5.117 3.646-8.013 4.721l-2.204 4.779c-.81 1.757-2.497 2.946-4.422 3.123-2.167.2-4.348.198-6.516-.003-1.924-.179-3.608-1.367-4.418-3.121-.663-1.434-1.471-3.181-2.096-4.537-3.145-1.067-6.035-2.704-8.671-4.912l-4.837.443c-1.925.177-3.799-.689-4.915-2.268-1.257-1.776-2.346-3.666-3.256-5.643-.465-1.013-.599-2.124-.417-3.186zm64.664-2.302c2.442-2.442 3.665-5.398 3.665-8.869 0-3.47-1.223-6.425-3.665-8.868-2.443-2.443-5.399-3.664-8.868-3.664-3.472 0-6.426 1.221-8.869 3.664-2.441 2.443-3.665 5.398-3.665 8.868 0 3.471 1.224 6.427 3.665 8.869 2.443 2.442 5.397 3.665 8.869 3.665 3.469 0 6.425-1.223 8.868-3.665zm-2.922-8.909c0 3.19-2.59 5.781-5.781 5.781s-5.781-2.591-5.781-5.781c0-3.191 2.59-5.781 5.781-5.781s5.781 2.59 5.781 5.781z"/></svg>