<svg clip-rule="evenodd" fill-rule="evenodd" stroke-linejoin="round" stroke-miterlimit="2" viewBox="0 0 250 250" xmlns="http://www.w3.org/2000/svg"><path fill="rgb(255, 255, 255)" d="m135.659 228.389c0 3.183-1.023 5.8-3.07 7.848-2.047 2.047-4.576 3.07-7.589 3.07-3.01 0-5.54-1.023-7.589-3.07-2.046-2.048-3.07-4.665-3.07-7.848v-30.593c-2.771-1.133-5.063-3.279-6.355-6.075-1.71-3.703-3.857-8.347-5.296-11.465l-1.6-3.469c-.909-.398-1.807-.819-2.693-1.262-.183-.108-.371-.211-.562-.307-1.743-.873-3.432-1.849-5.07-2.906l-.075-.048c-.986-.638-1.954-1.305-2.901-2.001l-16.381 1.5c-4.268.391-8.419-1.527-10.895-5.026-2.785-3.937-5.199-8.125-7.213-12.507-1.789-3.893-1.375-8.44 1.094-11.942 2.351-3.333 5.3-7.514 7.28-10.319l2.204-3.12c-.109-.987-.192-1.974-.252-2.964.001-.212-.004-.425-.016-.639-.115-1.946-.115-3.898-.019-5.845l.005-.088c.059-1.173.153-2.345.282-3.513l-9.49-13.437c-2.472-3.501-2.887-8.054-1.095-11.947 2.018-4.382 4.438-8.565 7.226-12.501 2.477-3.495 6.622-5.411 10.888-5.023 4.063.369 9.158.833 12.577 1.146l3.805.347c.799-.586 1.612-1.154 2.44-1.699.185-.106.367-.217.546-.334 1.628-1.073 3.317-2.048 5.051-2.939l.08-.04c1.045-.535 2.107-1.04 3.184-1.512l6.891-14.937c1.795-3.892 5.531-6.528 9.8-6.922 4.802-.443 9.635-.439 14.438.007 4.265.398 7.997 3.029 9.795 6.918 1.71 3.703 3.857 8.347 5.296 11.465l1.6 3.469c.909.399 1.807.82 2.693 1.263.183.108.371.21.562.306 1.743.874 3.432 1.849 5.07 2.906l.075.048c.986.638 1.954 1.305 2.901 2.001l16.381-1.5c4.268-.391 8.419 1.527 10.895 5.026 2.785 3.938 5.199 8.125 7.213 12.507 1.789 3.893 1.375 8.441-1.094 11.942-2.351 3.333-5.3 7.514-7.28 10.32l-2.204 3.12c.109.986.192 1.973.252 2.963-.001.212.004.426.016.64.115 1.945.115 3.897.019 5.844l-.005.088c-.059 1.173-.153 2.345-.282 3.514l9.49 13.436c2.472 3.501 2.887 8.054 1.095 11.948-2.018 4.381-4.438 8.565-7.226 12.5-2.477 3.496-6.622 5.412-10.888 5.023-4.063-.369-9.158-.832-12.577-1.145l-3.805-.348c-.799.587-1.612 1.154-2.44 1.7-.185.105-.367.216-.546.333-1.628 1.073-3.317 2.049-5.051 2.939l-.08.041c-1.045.534-2.107 1.039-3.184 1.511l-6.891 14.937c-1.291 2.799-3.585 4.948-6.36 6.081zm-91.121-25.998c-3.206-.173-5.763-1.473-7.669-3.9-8.839-10.052-15.685-21.433-20.538-34.142-4.853-12.711-7.279-26.374-7.279-40.99 0-15.892 3.033-30.913 9.099-45.064 6.066-14.153 14.342-26.472 24.827-36.958 10.486-10.486 22.811-18.762 36.976-24.828 14.166-6.066 29.201-9.099 45.106-9.099s30.921 3.033 45.046 9.099 26.431 14.342 36.916 24.828 18.761 22.805 24.828 36.958c6.065 14.151 9.098 29.172 9.098 45.064 0 14.616-2.426 28.279-7.279 40.99-4.852 12.709-11.699 24.09-20.537 34.142-1.907 2.427-4.506 3.727-7.8 3.9s-5.998-.799-8.116-2.917c-2.042-2.042-3.019-4.579-2.933-7.612s1.171-5.849 3.251-8.449c6.758-8.146 12.089-17.288 15.988-27.427s5.849-21.015 5.849-32.627c0-26.171-9.186-48.442-27.557-66.814-18.371-18.371-40.643-27.557-66.814-27.557s-48.442 9.186-66.813 27.557c-18.372 18.372-27.558 40.643-27.558 66.814 0 11.612 1.907 22.531 5.72 32.757 3.813 10.225 9.186 19.411 16.118 27.557 2.08 2.6 3.12 5.373 3.12 8.319 0 2.947-1.04 5.46-3.12 7.539-2.08 2.08-4.723 3.033-7.929 2.86zm73.482-24.471c.279 2.353 2.272 4.125 4.641 4.125h4.554c2.339 0 4.318-1.729 4.631-4.047l1.486-10.997c.393-2.905 2.394-5.339 5.169-6.285 2.48-.828 4.881-1.894 7.21-3.172 2.331-1.278 4.497-2.792 6.499-4.541 2.236-1.969 5.41-2.469 8.144-1.283 3.209 1.345 7.366 3.148 10.383 4.458 2.244.973 4.858.052 5.996-2.113l1.69-3.216c1.078-2.052.488-4.585-1.386-5.951l-9.294-6.767c-2.403-1.752-3.591-4.726-3.054-7.651.104-.559.203-1.116.299-1.67.36-2.102.54-4.234.54-6.396s-.15-4.294-.45-6.395c-.084-.586-.179-1.173-.286-1.764-.519-2.923.684-5.886 3.093-7.621 2.854-2.062 6.597-4.759 9.259-6.677 1.907-1.374 2.497-3.952 1.376-6.019l-1.756-3.238c-1.158-2.135-3.758-3.027-5.983-2.052l-10.023 4.391c-2.847 1.247-6.165.668-8.422-1.469-1.889-1.832-3.987-3.43-6.264-4.826-2.278-1.396-4.668-2.455-7.17-3.177-2.958-.835-5.129-3.356-5.518-6.404-.488-3.245-1.006-7.316-1.386-10.297-.297-2.333-2.282-4.083-4.635-4.083h-4.702c-2.369 0-4.362 1.773-4.641 4.125l-1.228 10.397c-.36 3.042-2.48 5.585-5.408 6.486-2.574.752-5.028 1.843-7.378 3.223-2.353 1.382-4.531 2.96-6.535 4.737-2.254 2.017-5.481 2.527-8.247 1.303-3.114-1.336-7.096-3.098-10.01-4.386-2.227-.985-4.837-.095-5.998 2.045l-1.755 3.237c-1.119 2.061-.535 4.633 1.364 6.01l9.052 6.565c2.405 1.745 3.598 4.712 3.07 7.636-.107.589-.209 1.179-.308 1.768-.36 2.161-.54 4.323-.54 6.485s.18 4.354.54 6.576c.093.574.19 1.142.291 1.703.522 2.92-.671 5.881-3.073 7.622-2.778 2.017-6.423 4.661-9.032 6.553-1.899 1.377-2.483 3.949-1.364 6.011l1.755 3.236c1.161 2.14 3.771 3.031 5.998 2.045l10.153-4.49c2.713-1.2 5.874-.742 8.136 1.179 2.059 1.772 4.293 3.329 6.683 4.695 2.38 1.36 4.844 2.483 7.39 3.367 2.803.96 4.808 3.441 5.156 6.384.422 3.292.923 7.536 1.288 10.625zm6.613-27.73c-7.691 0-14.242-2.71-19.654-8.122s-8.121-11.963-8.121-19.654 2.709-14.241 8.121-19.654c5.412-5.412 11.963-8.121 19.654-8.121s14.242 2.709 19.654 8.121c5.413 5.413 8.122 11.963 8.122 19.654s-2.709 14.242-8.122 19.654c-5.412 5.412-11.963 8.122-19.654 8.122zm.367-40.678c-7.071 0-12.812 5.741-12.812 12.812s5.741 12.812 12.812 12.812 12.812-5.741 12.812-12.812-5.741-12.812-12.812-12.812z"/></svg>