<svg height="48" viewBox="0 -960 960 960" width="48" xmlns="http://www.w3.org/2000/svg"><path fill="rgb(255, 255, 255)" d="m182-175c-13.167 0-24.29-4.56-33.37-13.68-9.087-9.113-13.63-20.28-13.63-33.5 0-13.213 4.543-24.32 13.63-33.32 9.08-9 20.203-13.5 33.37-13.5h24v-279c0-61.793 17.667-117.91 53-168.35 35.333-50.433 83.333-82.317 144-95.65v-16c0-21.667 7.487-40.083 22.46-55.25s33.153-22.75 54.54-22.75 39.567 7.583 54.54 22.75 22.46 33.583 22.46 55.25v16c60.667 12.667 108.833 44.333 144.5 95s53.5 107 53.5 169v279h23c13.087 0 24.357 4.56 33.81 13.68 9.46 9.113 14.19 20.28 14.19 33.5 0 13.213-4.73 24.32-14.19 33.32-9.453 9-20.723 13.5-33.81 13.5zm298.5 129c-24.3 0-45.127-8.713-62.48-26.14-17.347-17.433-26.02-38.387-26.02-62.86h177c0 24.667-8.743 45.667-26.23 63s-38.243 26-62.27 26zm-180.5-223h360v-279c0-49.333-17.5-91.667-52.5-127s-77.5-53-127.5-53-92.5 17.667-127.5 53-52.5 77.667-52.5 127zm54.008-248.75c-4.541-6.43-5.301-14.79-2.01-21.95 3.705-8.04 8.147-15.72 13.268-22.93 4.547-6.43 12.159-9.96 19.994-9.24 7.46.68 16.816 1.53 23.095 2.1l6.986.64c1.468-1.08 2.962-2.11 4.481-3.13.341-.18.674-.39 1.003-.6 2.99-1.98 6.092-3.78 9.276-5.39l.146-.08c1.92-.99 3.87-1.9 5.847-2.78l12.653-27.43c3.297-7.14 10.159-11.99 17.997-12.7 8.818-.82 17.693-.82 26.511 0 7.833.73 14.686 5.57 17.988 12.7 3.14 6.8 7.082 15.34 9.725 21.06l2.938 6.37c1.669.73 3.317 1.5 4.946 2.32.336.21.679.37 1.031.56 3.2 1.59 6.303 3.39 9.311 5.34l.137.09c1.812 1.16 3.588 2.38 5.328 3.67l30.08-2.76c7.838-.71 15.46 2.81 20.005 9.24 5.116 7.23 9.547 14.91 13.246 22.97 3.285 7.14 2.526 15.5-2.009 21.92-4.317 6.12-9.731 13.8-13.369 18.95l-4.046 5.74c.2 1.8.353 3.62.463 5.43-.002.39.006.79.029 1.19.211 3.56.211 7.14.036 10.72l-.009.16c-.109 2.15-.282 4.3-.519 6.45l17.426 24.68c4.541 6.42 5.302 14.79 2.01 21.92-3.705 8.06-8.147 15.75-13.268 22.96-4.547 6.43-12.159 9.95-19.993 9.23-7.461-.67-16.817-1.53-23.096-2.09l-6.986-.65c-1.468 1.08-2.962 2.12-4.481 3.13-.341.19-.674.4-1.003.61-2.989 1.97-6.092 3.75-9.276 5.39l-.146.08c-1.919.98-3.869 1.9-5.847 2.78l-12.653 27.42c-3.297 7.15-10.159 11.99-17.996 12.71-8.819.82-17.693.8-26.512-.02-7.833-.72-14.686-5.55-17.988-12.69-3.14-6.81-7.082-15.33-9.724-21.05l-2.939-6.37c-1.669-.73-3.317-1.51-4.946-2.32-.336-.2-.679-.4-1.031-.56-3.2-1.62-6.302-3.4-9.311-5.35l-.137-.08c-1.811-1.18-3.588-2.4-5.328-3.68l-30.08 2.75c-7.838.72-15.46-2.79-20.005-9.22-5.116-7.23-9.547-14.92-13.246-22.98-3.285-7.13-2.526-15.49 2.009-21.91 4.318-6.13 9.732-13.81 13.369-18.95l4.046-5.74c-.199-1.8-.353-3.62-.463-5.44.002-.39-.006-.78-.029-1.17-.211-3.58-.211-7.16-.035-10.72l.008-.18c.109-2.16.282-4.31.519-6.44zm161.409 72.91c9.939-9.95 14.914-21.98 14.914-36.09 0-14.13-4.975-26.16-14.914-36.09-9.939-9.95-21.966-14.92-36.09-14.92s-26.153 4.97-36.091 14.92c-9.939 9.93-14.914 21.96-14.914 36.09 0 14.11 4.975 26.14 14.914 36.09 9.938 9.94 21.967 14.91 36.091 14.91s26.151-4.97 36.09-14.91z"/></svg>