<svg clip-rule="evenodd" fill-rule="evenodd" stroke-linejoin="round" stroke-miterlimit="2" viewBox="0 0 250 250" xmlns="http://www.w3.org/2000/svg"><path fill="rgb(255, 255, 255)" d="m311.275 360.362c-5.617-.003-10.731 3.233-13.134 8.309-2.349 4.962-1.697 10.812 1.653 15.126.853.764 1.615 1.609 2.409 2.438 3.459 3.477 6.363 7.49 8.633 11.884h111.908c6.157 0 12.06 2.445 16.413 6.798 4.354 4.353 6.799 10.26 6.799 16.416 0 6.155-2.445 12.062-6.799 16.415-4.353 4.353-10.256 6.798-16.413 6.798l-111.906-.002c-8.427 16.327-25.464 27.498-45.089 27.498s-36.662-11.171-45.089-27.496h-111.906c-6.157 0-12.06-2.445-16.414-6.798-4.353-4.353-6.799-10.26-6.799-16.415 0-6.156 2.446-12.063 6.799-16.416 4.354-4.353 10.257-6.798 16.414-6.798l111.904.003c2.267-4.392 5.158-8.412 8.546-11.934.655-.683 1.272-1.392 1.852-2.122l.058-.071c3.526-4.271 4.27-10.195 1.909-15.206-2.361-5.01-7.402-8.208-12.942-8.208h-.039c-26.755-.219-69.673-.219-69.673-.219-11.643 0-21.561-4.1-29.754-12.29-8.19-8.193-12.289-18.11-12.289-29.753v-230.76c0-11.745 4.095-21.748 12.271-30.013 8.198-8.284 18.122-12.427 29.772-12.427h230.759c11.752 0 21.761 4.139 30.031 12.409s12.409 18.279 12.409 30.031v230.76c0 11.649-4.142 21.573-12.427 29.771-8.265 8.176-18.268 12.272-30.013 12.272zm65.081-157.413v-94.22c0-6.88-2.733-13.479-7.598-18.344-4.866-4.865-11.464-7.599-18.345-7.599h-169.329c-6.881 0-13.479 2.734-18.345 7.599-4.865 4.865-7.598 11.464-7.598 18.344v94.22c0 14.001 11.35 25.351 25.351 25.351h170.514c14 0 25.35-11.35 25.35-25.351zm-110.737 9.331c-16.047 0-31.054-3.864-45.021-11.594-13.967-7.729-25.167-18.219-33.599-31.469-1.606-2.008-2.71-4.123-3.313-6.346-.602-2.222-.903-4.661-.903-7.317 0-2.253.351-4.664 1.054-7.234s1.757-5.04 3.162-7.411c8.432-13.05 19.587-23.439 33.463-31.169 13.877-7.729 28.879-11.594 45.006-11.594 16.349 0 31.449 3.865 45.302 11.594 13.852 7.73 25.095 18.119 33.728 31.169 1.405 2.208 2.459 4.451 3.162 6.728.703 2.274 1.054 4.721 1.054 7.341s-.301 5.146-.903 7.577c-.603 2.434-1.607 4.654-3.012 6.662-8.432 13.451-19.66 23.991-33.683 31.62-14.025 7.629-29.191 11.443-45.497 11.443zm.039-24.091c11.604 0 22.676-2.962 33.216-8.884 10.541-5.923 19.625-14.003 27.254-24.242-7.629-10.038-16.734-18.069-27.314-24.092-10.582-6.023-21.674-9.034-33.276-9.034-11.604 0-22.626 3.011-33.066 9.034s-19.374 14.054-26.802 24.092c7.428 10.239 16.382 18.319 26.862 24.242 10.482 5.922 21.524 8.884 33.126 8.884zm.09-15.66c-4.918 0-9.034-1.656-12.346-4.969-3.313-3.312-4.969-7.428-4.969-12.347 0-4.918 1.669-9.034 5.008-12.347 3.336-3.312 7.389-4.968 12.157-4.968 5.019 0 9.185 1.668 12.497 5.005 3.313 3.338 4.969 7.392 4.969 12.16 0 5.019-1.656 9.185-4.969 12.497-3.312 3.313-7.428 4.969-12.347 4.969zm-110.607 124.62c0 6.88 2.733 13.479 7.598 18.344 4.866 4.865 11.464 7.598 18.345 7.598h169.329c6.881 0 13.479-2.733 18.345-7.598 4.865-4.865 7.598-11.464 7.598-18.344v-.027c0-6.881-2.733-13.479-7.598-18.344-4.866-4.866-11.464-7.599-18.345-7.599h-169.329c-6.881 0-13.479 2.733-18.345 7.599-4.865 4.865-7.598 11.463-7.598 18.344zm30.405 14.869c-4.26 0-7.771-1.55-10.552-4.601-2.645-2.899-4.022-6.468-4.022-10.75 0-4.392 1.444-7.91 4.141-10.626 2.712-2.731 6.213-4.185 10.571-4.185 4.014 0 7.536 1.303 10.569 3.905 3.199 2.742 4.881 6.401 4.881 11.049 0 4.412-1.624 8.076-4.851 10.999-3.117 2.823-6.702 4.209-10.737 4.209zm61.761 105.078v8.472c1.926 8.405 9.456 14.683 18.442 14.683 8.985 0 16.516-6.278 18.442-14.683v-8.472c-1.926-8.405-9.457-14.682-18.442-14.682-8.986 0-16.516 6.277-18.442 14.682z" transform="matrix(.533018 0 0 .533018 -16.6487 -12.828)"/></svg>