<svg clip-rule="evenodd" fill-rule="evenodd" stroke-linejoin="round" stroke-miterlimit="2" viewBox="0 0 250 250" xmlns="http://www.w3.org/2000/svg"><path fill="rgb(255, 255, 255)" d="m461.269-55.384c-52.069-2.047-101.29-13.097-147.663-33.15-51.637-22.332-96.789-52.83-135.454-91.496-38.665-38.665-68.997-83.856-90.996-135.574-21.999-51.725-32.999-107.056-32.999-165.993 0-58.945 11-114.083 32.999-165.414s52.331-96.163 90.996-134.494c38.665-38.332 83.867-68.664 135.604-90.996 51.738-22.332 107.019-33.499 165.844-33.499h.86c17.487 0 34.613 1.167 51.38 3.5 16.773 2.334 34.493 6.5 53.16 12.5 12 4.067 20.5 12.417 25.5 25.05s4.833 25.117-.5 37.45-13.833 20.667-25.5 25c-6.292 2.337-12.729 3.462-19.311 3.375-5.9.018-11.917-.942-18.052-2.879-11.567-4-23.622-6.333-36.169-7-12.252-.651-24.232-.982-35.938-.998-23.84 23.733-41.801 51.836-53.89 84.302-12.089 32.464-22.805 65.692-32.137 99.688h168.133c.29 0 .578.004.864.011 8.1 0 14.795 2.736 20.08 8.211 5.282 5.471 7.92 12.403 7.92 20.79s-2.737 15.317-8.21 20.79-12.367 8.21-20.68 8.21h-179.98c-2.04 14.447-3.577 28.89-4.6 43.33-1.024 14.446-1.53 28.67-1.53 42.67 0 14.667.48 29.433 1.44 44.3.959 14.86 2.395 29.753 4.307 44.679h206.358c1.353-12.253 2.53-25.042 3.53-38.369 1-13.332 1.5-28.208 1.5-44.628-.667-8.666 1.833-15.832 7.5-21.499s12.832-8.499 21.499-8.499c.392 0 .781.005 1.166.017 8.528.065 15.428 2.898 20.7 8.499 5.333 5.667 8.333 12.833 9 21.5-.667 16.667-1.5 31.437-2.5 44.31-1 12.866-1.5 25.756-1.5 38.669h153.246c1.92-9.333 3.747-18.942 5.48-28.829 1.733-9.893 2.533-21.949 2.4-36.168 2-13.333 7.667-24.666 16.999-33.999 9.333-9.333 21.167-13.999 35.499-13.999.47 0 .938.006 1.403.018 12.79.129 23.616 4.963 32.483 14.498 8.991 9.668 12.823 21.167 11.49 34.5-4.667 62-19 117.833-43 167.5s-55 92-93 127-81.513 61.666-130.54 80c-49.027 18.333-101.18 27.5-156.46 27.5-6.284 0-12.528-.128-18.731-.384zm315.846-280.616h-144.115c-6.667 30-15.667 59.833-27 89.5-11.287 29.546-26.543 58.596-45.765 87.15 46.231-13.497 88.196-35.257 125.896-65.278 37.992-30.26 68.32-67.384 90.984-111.372zm-461.971-232h-154.144c-4 14.447-7 28.723-9 42.83-2 14.113-3 28.67-3 43.67s.967 29.777 2.91 44.33 4.86 29.269 8.745 44.149h153.491c-2-14.666-3.167-29.499-3.499-44.498-.333-15-.5-29.832-.5-44.498 0-14 .333-28.222.999-42.669.667-14.435 2-28.872 3.998-43.314zm254.987 232h-181.131c7.333 34.667 18.167 68.5 32.5 101.5 14.244 32.796 33.263 62.464 57.056 89.005 23.806-26.546 43-56.056 57.581-88.533 14.663-32.658 25.994-66.649 33.994-101.972zm-173.16-464.756c-47.586 11.39-90.243 32.308-127.971 62.756-37.997 30.664-67.662 67.993-88.995 111.988h147.141c6-29.331 14.332-58.83 24.999-88.496 10.635-29.578 25.577-58.327 44.826-86.248zm-70.82 464.756h-145.151c22.84 44.12 53.05 81.15 90.63 111.09 37.297 29.714 79.398 51.907 126.302 66.577-19.896-28.57-35.158-57.801-45.787-87.694-10.664-29.991-19.328-59.982-25.994-89.973zm439.12-214.576c-21.094 0-40.936-4.053-59.531-12.128-18.534-8.048-34.683-18.971-48.462-32.751-13.779-13.778-24.704-29.934-32.751-48.478-8.075-18.608-12.128-38.421-12.128-59.442 0-22.769 4.333-43.448 12.903-62.055 8.541-18.549 19.846-34.462 33.879-47.765 14.008-13.275 30.022-23.693 48.048-31.245 18.017-7.547 36.645-11.682 55.88-12.412l.377-.007c11.526 0 20.975 2.946 28.468 8.421 8.047 5.88 13.012 14.682 14.296 26.857 1.326 10.111 5.054 18.446 11.414 24.898 6.451 6.544 14.857 10.665 25.084 12.569 8.005 1.022 14.538 4.28 19.686 9.589 4.667 4.812 8.202 11.335 10.305 19.759 1.483 4.307 3.624 8.305 6.418 12 2.629 3.476 5.696 6.268 9.214 8.333 11.289 5.479 18.94 12.007 23.349 19.088 4.608 7.406 6.706 17.254 5.55 29.678l-.041.371c-2.439 18.601-7.932 36.051-16.467 52.356-8.536 16.307-19.455 30.555-32.747 42.749-13.309 12.21-28.647 21.864-46.031 28.946-17.412 7.093-36.312 10.669-56.713 10.669zm-36.559-162.501c8.307 0 15.344-2.917 21.121-8.733 5.768-5.806 8.662-12.853 8.662-21.147 0-8.306-2.917-15.344-8.733-21.121-5.806-5.768-12.853-8.66-21.147-8.66-8.305 0-15.344 2.916-21.121 8.731-5.768 5.807-8.661 12.854-8.661 21.147 0 8.307 2.917 15.344 8.732 21.121 5.807 5.768 12.854 8.662 21.147 8.662zm86.451 92.71c5.905 0 10.842-2.027 14.837-6.022 3.995-3.994 6.021-8.931 6.021-14.837 0-5.904-2.026-10.841-6.021-14.836-3.995-3.994-8.932-6.021-14.837-6.021s-10.842 2.027-14.836 6.021c-3.995 3.995-6.021 8.932-6.021 14.836 0 5.906 2.026 10.843 6.021 14.837 3.994 3.995 8.931 6.022 14.836 6.022zm-101.634-6.777c8.305 0 15.344-2.916 21.121-8.731 5.768-5.808 8.661-12.855 8.661-21.148 0-8.306-2.917-15.343-8.732-21.12-5.807-5.768-12.854-8.662-21.147-8.662-8.306 0-15.344 2.916-21.12 8.732-5.769 5.807-8.663 12.854-8.663 21.148 0 8.305 2.917 15.343 8.733 21.12 5.806 5.769 12.853 8.661 21.147 8.661z" transform="matrix(.272928 0 0 .272928 -6.14178 256.142)"/></svg>