<svg clip-rule="evenodd" fill-rule="evenodd" stroke-linejoin="round" stroke-miterlimit="2" viewBox="0 0 250 250" xmlns="http://www.w3.org/2000/svg"><path fill="rgb(255, 255, 255)" d="m71.195 188.864c-8.831-2.354-17.017-6.435-24.133-11.89l-18.634 1.707c-4.949.452-9.76-1.77-12.628-5.826-3.228-4.562-6.025-9.415-8.358-14.493-2.075-4.513-1.595-9.782 1.266-13.84 2.726-3.863 6.141-8.708 8.438-11.96l2.555-3.617c-.126-1.142-.223-2.286-.293-3.434.001-.244-.004-.494-.018-.74-.135-2.256-.135-4.517-.024-6.774l.006-.102c.069-1.36.178-2.717.329-4.071l-11-15.573c-2.864-4.055-3.344-9.333-1.268-13.846 2.339-5.076 5.143-9.925 8.373-14.487 2.871-4.052 7.675-6.271 12.621-5.82 4.707.427 10.61.964 14.575 1.326l4.408.405c.926-.682 1.87-1.337 2.827-1.971.216-.122.425-.251.635-.387 1.885-1.243 3.843-2.374 5.853-3.405l.093-.049c1.211-.619 2.441-1.203 3.689-1.75l7.988-17.309c2.079-4.512 6.407-7.568 11.355-8.024 5.566-.513 11.166-.508 16.734.009 4.943.46 9.267 3.511 11.351 8.017 1.982 4.291 4.47 9.675 6.138 13.287l1.843 4.939c6.594 2.829 12.684 6.668 18.057 11.338v-3.89c0-2.005.636-3.641 1.908-4.904 1.273-1.265 2.895-1.9 4.868-1.901 1.972 0 3.632.627 4.98 1.878 1.346 1.253 2.021 2.885 2.02 4.899l.001 1.192 9.562-.002-.001-.165c.001-2.185.753-4.032 2.261-5.54s3.354-2.262 5.54-2.261h43.214c.016 0 .028.005.042.015 1.955.113 3.626.862 5.01 2.247 1.509 1.506 2.261 3.353 2.262 5.539v.167l9.561-.002v-1.191c.001-2.013.674-3.646 2.023-4.897 1.347-1.253 3.007-1.878 4.978-1.879 1.973.001 3.596.634 4.868 1.9 1.272 1.265 1.909 2.9 1.908 4.905v111.539c0 2.006-.635 3.641-1.908 4.907-1.27 1.265-2.913 1.898-4.928 1.899-1.971 0-3.62-.672-4.947-2.013-1.329-1.342-1.993-2.994-1.994-4.957l.001-1.164-9.562-.001v.364c0 2.192-.753 4.036-2.26 5.53-1.386 1.371-3.056 2.114-5.012 2.226-.013.01-.027.014-.041.014l-11.574.001-.002 17.161c.001 4.24-1.506 7.852-4.521 10.835-3.016 2.982-6.664 4.474-10.95 4.474h-94.776c-4.24-.001-7.852-1.493-10.835-4.475s-4.474-6.595-4.474-10.834zm125.558-17.661 5.599-.001-.001-97.596h-31.264v29.864l10.195-.001c4.283.001 7.933 1.509 10.947 4.524 3.015 3.016 4.524 6.664 4.523 10.947zm-59.905-67.733c-8.176-20.723-29.27-34.514-52.573-32.428-28.349 2.537-49.303 27.61-46.767 55.958 1.839 20.543 15.511 37.203 33.686 43.854v-51.914c0-4.283 1.492-7.932 4.474-10.946 2.984-3.016 6.596-4.524 10.835-4.524zm-45.653-22.746c3.538.079 6.346 3.015 6.266 6.553-.078 3.538-3.014 6.346-6.552 6.267-15.932-.357-29.135 12.27-29.491 28.201-.08 3.538-3.015 6.346-6.554 6.267-3.538-.079-6.346-3.016-6.267-6.553.516-23.013 19.586-41.25 42.598-40.735zm62.579 18.941 5.523.001v-18.092h-13.534v2.216c3.312 4.865 6.02 10.189 8.011 15.875zm59.88 0h13.534l-.001-18.091h-13.532zm0 63.571h13.534l-.002-18.093h-13.531zm0-31.87 13.533.001v-17.924l-13.532-.003zm-127.152 70.775h94.779l-.001-83.201h-94.777zm24.61-49.847c-3.036.001-5.617-1.056-7.741-3.169-2.126-2.112-3.189-4.686-3.188-7.722-.001-3.036 1.055-5.618 3.168-7.742 2.113-2.125 4.687-3.189 7.724-3.189 3.035 0 5.616 1.057 7.739 3.17 2.127 2.113 3.189 4.686 3.19 7.722s-1.056 5.617-3.169 7.743c-2.112 2.124-4.687 3.187-7.723 3.187zm-11.582 36.981c-1.627 0-2.767-.686-3.419-2.057-.652-1.37-.489-2.747.489-4.131l13.517-18.239c.758-.976 1.782-1.493 3.069-1.547 1.284-.054 2.378.462 3.281 1.547l11.889 16.446 18.4-23.611c.76-1.086 1.783-1.601 3.07-1.547 1.286.054 2.326.569 3.118 1.547l18.565 25.405c.87 1.383.978 2.76.326 4.131-.652 1.37-1.79 2.056-3.419 2.056z" stroke-width="1.118"/></svg>