<svg clip-rule="evenodd" fill-rule="evenodd" stroke-linejoin="round" stroke-miterlimit="2" viewBox="0 0 250 250" xmlns="http://www.w3.org/2000/svg"><path fill="rgb(255, 255, 255)" d="m480-60c-5.547 0-10.84-.5-15.88-1.5s-9.747-2.5-14.12-4.5c-96-31.333-172.5-90.533-229.5-177.6-57-87.06-85.5-180.23-85.5-279.51v-188.89c0-20.173 5.46-38.56 16.38-55.16 10.913-16.607 25.787-28.22 44.62-34.84l251-94c10.667-4 21.667-6 33-6s22.333 2 33 6l251 94c18.833 6.62 33.877 18.233 45.13 34.84 11.247 16.6 16.87 34.987 16.87 55.16v188.89c0 99.28-28.667 192.45-86 279.51-57.333 87.067-134 146.267-230 177.6-4.373 2-9.08 3.5-14.12 4.5s-10.333 1.5-15.88 1.5zm0-91c73.333-28.667 133.5-76.667 180.5-144s70.5-143.237 70.5-227.71v-189.29l-251-95-251 95.48v188.35c0 84.78 23.5 160.837 70.5 228.17s107.167 115.333 180.5 144zm-38.44-197.765-.002-.011-3.917-26.125c-6.722-2.161-13.535-5.127-20.435-8.911-7.272-3.988-13.459-8.482-18.585-13.447l-21.952 4.517c-7.166 1.915-14.195 1.53-21.089-1.149-6.996-2.715-12.473-7.32-16.417-13.833l-.188-.328-5.31-9.865c-3.898-6.561-5.385-13.766-4.402-21.629 1.001-8.009 4.499-14.688 10.485-20.04l19.67-18.357c-.732-3.588-1.08-8.177-.887-13.787.176-5.082.578-9.174 1.12-12.288l-20.653-20.089c-5.352-4.628-8.657-10.845-9.705-18.758l-.001-.006c-1.001-7.603.461-14.722 4.398-21.343l5.166-10.446c.093-.189.194-.373.303-.553 3.914-6.48 9.151-10.908 15.611-13.393 6.192-2.381 12.833-2.973 19.929-1.683l.09.017 23.99 4.666c5.036-4.54 11.119-8.898 18.267-13.05 6.971-4.047 13.861-7.001 20.654-8.89l3.864-25.112c1.331-8.695 5.246-15.891 11.713-21.606 6.543-5.787 14.177-8.679 22.9-8.679h9.437c8.017 0 15.297 2.734 21.797 8.325 6.301 5.416 10.376 12.325 12.175 20.76l.073.387 4.121 25.957c6.238 1.924 12.885 4.846 19.927 8.807 7.394 4.16 13.6 8.532 18.641 13.082l23.28-4.639c6.487-1.297 13.188-.686 20.09 1.967 7.108 2.734 12.578 7.386 16.398 13.933l5.301 9.02.127.226c4.022 7.42 5.295 14.917 3.983 22.46-1.315 7.557-4.889 13.984-10.771 19.257l-19.363 18.717c.993 3.583 1.501 8.144 1.304 13.723-.187 5.302-.746 9.662-1.569 13.099l19.306 18.012c6.104 5.461 9.791 12.135 11.102 20.002 1.32 7.925-.006 15.19-3.897 21.804l-5.281 10.562c-.086.171-.178.34-.277.505-4.137 6.895-9.727 11.287-16.622 13.356-6.255 1.876-12.821 2.217-19.702.967l-.129-.025-23.008-4.603c-5.185 4.993-11.532 9.512-19.072 13.518-7.004 3.72-13.661 6.642-19.965 8.781l-3.919 25.474c-.026.169-.058.338-.096.505-1.88 8.362-6.082 15.264-12.589 20.712-6.647 5.559-14.09 8.292-22.291 8.292h-8.758c-8.122 0-15.523-2.568-22.178-7.762-6.83-5.336-10.902-12.334-12.192-21.003zm39.085-92.72c13.815 0 25.521-4.904 35.115-14.725 9.64-9.868 14.455-21.731 14.455-35.586 0-13.444-4.914-25.07-14.676-34.903-9.755-9.831-21.481-14.759-35.187-14.759-13.707 0-25.47 4.986-35.305 14.916-9.847 9.941-14.805 21.676-14.805 35.232 0 13.537 4.956 25.208 14.805 35.04 9.874 9.851 21.738 14.785 35.598 14.785z" transform="matrix(.287806 0 0 .287806 -13.2909 263.435)"/></svg>