<svg clip-rule="evenodd" fill-rule="evenodd" stroke-linejoin="round" stroke-miterlimit="2" viewBox="0 0 250 250" xmlns="http://www.w3.org/2000/svg"><path fill="rgb(255, 255, 255)" d="m104.086 209.501c0-11.467 9.328-20.795 20.795-20.795s20.795 9.328 20.795 20.795-9.328 20.795-20.795 20.795-20.795-9.328-20.795-20.795zm-29.33 20.795c-11.466 0-20.795-9.328-20.795-20.795s9.329-20.795 20.795-20.795c11.467 0 20.795 9.328 20.795 20.795s-9.328 20.795-20.795 20.795zm100.25-41.59c11.467 0 20.795 9.328 20.795 20.795s-9.328 20.795-20.795 20.795-20.795-9.328-20.795-20.795 9.328-20.795 20.795-20.795zm0 11.639c-5.057 0-9.156 4.099-9.156 9.156s4.099 9.156 9.156 9.156 9.156-4.099 9.156-9.156-4.099-9.156-9.156-9.156zm-50.125 0c-5.057 0-9.156 4.099-9.156 9.156s4.099 9.156 9.156 9.156 9.156-4.099 9.156-9.156-4.099-9.156-9.156-9.156zm-50.125 0c-5.057 0-9.156 4.099-9.156 9.156s4.099 9.156 9.156 9.156 9.156-4.099 9.156-9.156-4.099-9.156-9.156-9.156zm50.252-49.615c8.785.063 16.174-1.424 23.603-4.533 7.433-3.11 13.737-7.358 19.96-13.713 6.312-6.272 10.536-12.596 13.622-20.009 3.083-7.406 4.493-14.738 4.493-23.423 0-8.529-1.494-15.805-5.02-23.293-3.32-7.347-7.517-13.579-13.234-19.633-.167-.178-.323-.364-.47-.558-.749-1.037-1.629-2.518-2.109-3.692-.48-1.172-.892-2.844-1.087-4.11-.05-.548-.091-1.499-.037-2.056.056-.578.276-1.568.47-2.112.379-1.063 1.464-2.586 2.147-3.37 1.027-.948 2.683-2.163 3.968-2.721 1.289-.559 3.34-.936 4.759-1.031 1.102.024 2.677.213 3.902.558.757-.195 1.511-.347 2.251-.452.342-.031.67-.062.993-.092 6.398-.175 13.856 3.264 17.872 8.24 3.326 4.716 6.361 9.964 8.788 15.204 2.305 5.968 1.558 14.152-1.798 19.605l-1.164 1.648c1.192 5.813 1.819 11.836 1.819 17.865 0 5.927-.598 11.867-1.716 17.523l1.055 1.496c3.352 5.453 4.099 13.628 1.798 19.592-2.421 5.239-5.449 10.491-8.772 15.212-4.017 4.981-11.478 8.427-17.88 8.247l-1.903-.174c-7.387 6.671-15.753 12.113-24.364 15.665-2.078.857-4.225 1.625-6.426 2.305l-.677 1.467c-3.047 5.628-9.754 10.361-16.07 11.351-5.746.521-11.809.527-17.559.009-6.323-.987-13.039-5.73-16.079-11.366l-.631-1.368c-1.948-.595-3.851-1.26-5.702-1.993-8.986-3.563-17.737-9.169-25.355-16.043-.008-.004-.015-.008-.023-.013l-1.655.151c-6.403.177-13.851-3.262-17.868-8.235-3.326-4.717-6.361-9.966-8.79-15.202-2.303-5.971-1.556-14.158 1.792-19.606l.879-1.244c-1.163-5.756-1.763-11.752-1.763-17.774 0-6.121.646-12.236 1.873-18.132-.333-.472-.66-.934-.977-1.383-3.346-5.453-4.096-13.631-1.802-19.592 2.423-5.24 5.457-10.496 8.773-15.212 4.014-4.981 11.482-8.429 17.887-8.25 0 0 .504.045 1.319.122.626.09 1.264.214 1.905.37 1.189-.307 2.646-.477 3.685-.499 1.419.095 3.469.472 4.758 1.031 1.285.558 2.981 1.733 3.969 2.721.733.733 1.768 2.307 2.146 3.37.194.544.415 1.534.47 2.112.054.557.013 1.508-.037 2.056-.195 1.266-.607 2.938-1.087 4.11-.48 1.174-1.36 2.655-2.109 3.692-.147.194-.303.38-.469.558-5.718 6.054-9.915 12.286-13.235 19.633-3.526 7.488-5.02 14.764-5.02 23.293 0 8.685 1.41 16.017 4.493 23.423 3.086 7.413 7.31 13.737 13.622 20.009 6.223 6.355 12.527 10.603 19.96 13.713 7.429 3.109 14.819 4.596 23.603 4.533zm-26.948-58.267c-2.122 0-3.753-.981-4.894-2.948-1.139-1.965-1.158-3.891-.059-5.777l26.651-54.245c1.258-2.513 3.301-3.456 6.132-2.829 2.831.629 4.245 2.593 4.245 5.896v36.319h22.17c2.058 0 3.594.943 4.608 2.831 1.015 1.886 1.052 3.772.109 5.66l-24.764 53.772c-1.415 2.672-3.537 3.617-6.368 2.83-2.831-.786-4.245-2.751-4.245-5.896v-35.613z"/></svg>