<svg clip-rule="evenodd" fill-rule="evenodd" stroke-linejoin="round" stroke-miterlimit="2" viewBox="0 0 250 250" xmlns="http://www.w3.org/2000/svg"><path fill="rgb(255, 255, 255)" d="m79.445 173.753h91.111c4.534 0 8.2 3.666 8.2 8.2 0 4.552-3.666 8.201-8.2 8.201h-91.111c-4.535 0-8.201-3.649-8.201-8.201 0-4.534 3.666-8.2 8.201-8.2zm29.093-16.819c-3.632-3.753-5.525-9.052-5.525-15.932 0-7.123 3.04-13.604 9.26-19.338 5.56-5.16 12.075-8.252 19.529-9.295-.33-2.606-1.025-4.621-2.12-6.029-1.216-1.546-3.092-2.224-5.56-2.224-3.231 0-6.167 1.078-8.808 3.197-2.937 2.346-6.481 6.637-10.668 12.805-4.709 7.002-9.156 12.023-13.309 15.133-4.413 3.284-9.052 4.9-13.899 4.9-5.89 0-10.546-1.964-14.004-5.786-3.405-3.753-5.177-8.791-5.177-15.15 0-2.711 1.025-6.307 3.162-10.772 1.998-4.17 5.281-9.765 9.868-16.784l.07-.069c3.683-5.126 6.029-8.583 7.036-10.39.817-1.477 1.286-2.798 1.286-3.979 0-.278-.122-.487-.33-.678-.348-.295-.834-.382-1.442-.382-.574 0-1.147.122-1.685.348-.678.278-1.408.712-2.207 1.303l-.052.034c-1.72 1.182-3.544 1.79-5.49 1.842-2.12.052-3.962-.712-5.491-2.328-1.702-1.598-2.554-3.562-2.536-5.907 0-2.433.903-4.344 2.675-5.769 2.311-1.945 4.726-3.422 7.263-4.43 2.589-1.042 5.229-1.564 7.922-1.564 5.352 0 9.539 1.686 12.597 4.969 3.075 3.267 4.604 7.141 4.604 11.606 0 3.736-.817 7.298-2.45 10.703-1.529 3.179-4.708 8.34-9.573 15.463l-.017.017c-4.031 5.803-6.603 9.713-7.697 11.78-.938 1.772-1.425 3.597-1.425 5.473 0 .938.434 1.772 1.216 2.519.834.8 1.842 1.199 2.989 1.199.834 0 1.702-.278 2.658-.747 1.095-.538 2.172-1.407 3.266-2.571l.035-.052c.99-.991 2.068-2.207 3.249-3.684 1.216-1.511 2.624-3.388 4.222-5.664l.017-.034c6.255-8.444 11.78-14.3 16.523-17.583 4.969-3.458 10.46-5.195 16.471-5.195 6.516 0 11.867 2.397 16.037 7.158 3.7 4.205 6.011 9.712 6.845 16.575h4.406c-.729-1.248-.809-2.782-.198-4.109.748-1.626 1.646-3.178 2.68-4.638.919-1.296 2.456-2.007 4.039-1.863 1.507.137 3.397.309 4.666.425l1.411.129c.297-.218.598-.428.905-.631.069-.039.136-.08.203-.123.604-.398 1.23-.76 1.874-1.091l.029-.015c.388-.198.782-.385 1.181-.56l2.557-5.541c.666-1.444 2.051-2.422 3.635-2.568 1.781-.165 3.574-.163 5.356.003 1.582.147 2.967 1.123 3.633 2.566.635 1.373 1.431 3.096 1.965 4.253l.594 1.287c.337.147.67.304.999.468.068.04.137.078.208.114.647.324 1.273.686 1.881 1.078l.028.017c.366.237.725.485 1.076.743l6.077-.557c1.583-.145 3.123.567 4.041 1.865 1.033 1.46 1.929 3.014 2.676 4.64.663 1.444.51 3.131-.406 4.429-.872 1.237-1.966 2.788-2.701 3.829l-.817 1.157c.04.366.071.732.094 1.099-.001.079.001.158.005.238.043.721.043 1.445.007 2.168l-.001.032c-.022.435-.057.87-.105 1.304l3.52 4.984c.918 1.299 1.071 2.988.406 4.432-.748 1.625-1.646 3.177-2.68 4.637-.919 1.297-2.456 2.008-4.039 1.864-1.507-.137-3.397-.309-4.666-.425l-1.411-.129c-.297.217-.598.428-.905.63-.069.039-.136.081-.203.124-.604.398-1.23.76-1.874 1.09l-.029.015c-.388.199-.782.386-1.181.561l-2.557 5.541c-.666 1.444-2.051 2.422-3.635 2.568-1.781.164-3.574.163-5.356-.003-1.582-.147-2.967-1.123-3.633-2.566-.635-1.374-1.431-3.097-1.965-4.253l-.594-1.287c-.337-.148-.67-.304-.999-.468-.068-.041-.137-.079-.208-.114-.647-.324-1.273-.686-1.881-1.078l-.028-.018c-.366-.237-.725-.484-1.076-.742l-6.077.556c-1.583.145-3.123-.566-4.041-1.864-1.033-1.461-1.929-3.014-2.676-4.64-.491-1.07-.535-2.273-.151-3.353h-4.024c-.973 10.06-3.631 18.191-7.923 24.429-4.83 7.019-10.772 10.442-17.704 10.442-5.473 0-10.043-1.929-13.743-5.769zm19.911-15.498c1.702-3.196 2.866-7.418 3.509-12.648-3.336.764-6.185 2.224-8.53 4.396-2.78 2.554-4.205 5.611-4.205 9.156 0 1.251.261 2.276.903 3.006.556.642 1.408.886 2.468.886 2.362 0 4.221-1.72 5.855-4.796zm56.572-15.47c1.951-1.95 2.927-4.31 2.927-7.082 0-2.771-.976-5.132-2.927-7.082-1.95-1.951-4.31-2.927-7.082-2.927s-5.132.976-7.082 2.927c-1.951 1.95-2.927 4.311-2.927 7.082 0 2.772.976 5.132 2.927 7.082 1.95 1.95 4.31 2.926 7.082 2.926s5.132-.976 7.082-2.926zm28.189-101.441c19.007 0 34.331 15.306 34.331 34.314v132.323c0 19.007-15.324 34.314-34.331 34.314h-176.419c-19.008 0-34.332-15.307-34.332-34.314v-132.323c0-19.008 15.324-34.314 34.332-34.314zm-186.201 166.637c0 5.42 4.361 9.764 9.782 9.764h176.419c5.42 0 9.781-4.344 9.781-9.764l-.347-134.894c-1.129-4.153-4.9-7.193-9.434-7.193h-176.419c-4.535 0-8.305 3.04-9.434 7.193z"/></svg>