<svg clip-rule="evenodd" fill-rule="evenodd" stroke-linejoin="round" stroke-miterlimit="2" viewBox="0 0 250 250" xmlns="http://www.w3.org/2000/svg"><path fill="rgb(255, 255, 255)" d="m2.923 2.217h10.154c1.094 0 1.976.881 1.976 1.975v7.616c0 1.094-.882 1.975-1.976 1.975h-10.154c-1.094 0-1.976-.881-1.976-1.975v-7.616c0-1.094.882-1.975 1.976-1.975zm-.563 9.591c0 .312.251.562.563.562h10.154c.312 0 .563-.25.563-.562l-.018-5.526c-.001-.32-.261-.579-.581-.579h-1.036-2.955c-.162 0-.299-.056-.41-.167-.112-.112-.168-.249-.168-.411v-1.495h-5.549c-.261 0-.478.175-.543.414l-.015 5.821h.001zm4.997-.37-.066-.438c-.113-.036-.227-.085-.342-.149-.122-.066-.225-.142-.311-.225l-.368.076c-.118.032-.234.025-.348-.019-.116-.045-.206-.121-.271-.228l-.003-.005-.088-.165c-.065-.108-.089-.227-.073-.357.016-.132.074-.242.173-.33l.329-.308c-.012-.06-.018-.137-.015-.231.003-.086.01-.155.019-.207l-.346-.336c-.088-.076-.142-.179-.16-.309-.016-.126.008-.243.073-.353l.086-.174c.002-.003.003-.006.005-.009.064-.106.151-.18.257-.221.103-.039.212-.049.33-.027h.001l.402.078c.084-.076.185-.149.305-.218.117-.068.232-.117.346-.149l.065-.421c.022-.143.086-.262.193-.357.108-.095.234-.143.378-.143h.157c.132 0 .253.045.36.138.104.089.171.203.201.342l.001.007.069.435c.105.032.216.081.334.147.124.07.227.143.311.219l.39-.078c.108-.021.218-.011.332.033.117.045.208.121.271.229l.088.151.002.003c.066.123.087.246.066.371-.022.125-.081.231-.178.318l-.325.314c.017.059.026.136.023.229-.004.09-.013.163-.027.22l.324.302c.1.09.161.201.183.33.022.131 0 .251-.064.36l-.088.176c-.002.003-.003.006-.005.008-.068.114-.16.186-.274.221-.103.031-.212.036-.326.016l-.002-.001-.385-.077c-.087.084-.193.159-.319.226-.117.062-.229.111-.334.147l-.066.427c0 .003-.001.005-.001.008-.031.138-.101.252-.208.342-.11.092-.233.137-.368.137h-.146c-.134 0-.256-.042-.366-.128-.113-.088-.18-.204-.201-.347zm.645-1.538c.232 0 .428-.082.589-.246.161-.166.242-.364.242-.596 0-.225-.083-.42-.246-.585s-.36-.247-.589-.247c-.23 0-.427.083-.592.25-.165.166-.248.363-.248.59s.083.422.248.587c.166.165.364.247.596.247z" transform="matrix(17.3743 0 0 17.3743 -13.9941 -13.9941)"/></svg>