<svg height="48" viewBox="0 -960 960 960" width="48" xmlns="http://www.w3.org/2000/svg"><path fill="rgb(255, 255, 255)" d="m777.05-356.52c9.707-9.33 20.93-14 33.67-14s24 4.67 33.78 14l55 56c9.333 9.45 14 20.48 14 33.09s-4.69 23.74-14.07 33.41-20.487 14.5-33.32 14.5-24.037-5-33.61-15l-55-55c-10-9.42-15-20.61-15-33.57 0-12.95 4.85-24.1 14.55-33.43zm27.45-466.63c9.333 9.58 14 20.8 14 33.67 0 12.86-4.667 23.85-14 32.96l-55 56c-9.82 9.33-21.087 14-33.8 14s-23.78-4.68-33.2-14.05c-10-9.64-15-20.93-15-33.87s5-23.97 15-33.08l55-56c9.633-9.33 20.877-14 33.73-14 12.847 0 23.937 4.79 33.27 14.37zm-649.95.13c9.373-9.67 20.53-14.5 33.47-14.5s24.1 4.67 33.48 14l56 56c9.333 9.63 14 20.88 14 33.73s-4.72 23.94-14.16 33.27-20.493 14-33.16 14c-12.673 0-23.567-4.67-32.68-14l-57-56c-9.333-9.25-14-20.22-14-32.93s4.683-23.9 14.05-33.57zm27.95 466.55c9.333 9.37 14 20.53 14 33.47s-4.667 24.1-14 33.48l-55 55c-9.42 10-20.61 15-33.57 15-12.953 0-24.097-4.78-33.43-14.34s-14-20.62-14-33.17 4.667-23.71 14-33.49l56-56c9.453-9.33 20.483-14 33.09-14s23.577 4.68 32.91 14.05zm297 124.95-166 101c-8.667 6-17.667 8.42-27 7.25s-17.68-4.27-25.04-9.3c-7.353-5.03-12.853-11.78-16.5-20.25-3.64-8.47-4.127-18.03-1.46-28.7l44-189-148-130c-8-6.71-13-14.62-15-23.75s-2-17.95 0-26.47 6.833-15.78 14.5-21.78 16.833-9.33 27.5-10l194.08-17.09 74.92-179.91c3.833-10 9.877-17.33 18.13-22 8.247-4.67 16.787-7 25.62-7s17.443 2.33 25.83 7c8.38 4.67 14.52 12 18.42 22l75.71 180.3 194.29 16.7c10 .67 18.833 4 26.5 10s12.5 13.26 14.5 21.78 2.167 17.35.5 26.5-6.5 17.05-14.5 23.72l-148 130 44 190c2 10 1.15 19.28-2.55 27.83-3.693 8.55-8.87 15.68-15.53 21.39-7.073 5.07-15.33 7.97-24.77 8.69-9.433.73-18.483-1.58-27.15-6.91zm-120.12-222.17c-.263 2.39-.455 4.77-.576 7.18l-.01.18c-.194 3.96-.194 7.95.039 11.91.025.46.035.88.032 1.3.122 2.02.293 4.06.515 6.06l-4.495 6.37c-4.042 5.73-10.057 14.25-14.854 21.05-5.039 7.14-5.881 16.43-2.232 24.38 4.109 8.91 9.034 17.45 14.717 25.49 5.05 7.14 13.517 11.07 22.227 10.27l33.42-3.06c1.931 1.43 3.907 2.79 5.918 4.07l.153.1c3.342 2.15 6.789 4.16 10.344 5.93.391.21.773.41 1.147.63 1.809.89 3.639 1.77 5.494 2.58l3.264 7.07c2.936 6.37 7.315 15.85 10.807 23.38 3.666 7.94 11.28 13.32 19.984 14.13 9.797.92 19.656.92 29.453.02 8.71-.81 16.334-6.18 19.995-14.12l14.059-30.48c2.197-.95 4.364-2 6.496-3.1l.163-.07c3.537-1.81 6.984-3.82 10.305-6 .366-.25.736-.46 1.115-.68 1.688-1.1 3.346-2.28 4.977-3.46l7.762.7c6.978.65 17.372 1.59 25.659 2.35 8.705.78 17.162-3.12 22.214-10.26 5.691-8.04 10.627-16.56 14.743-25.49 3.656-7.95 2.81-17.24-2.234-24.38l-19.361-27.42c.263-2.38.455-4.76.577-7.17l.009-.16c.194-3.99.194-7.98-.039-11.94-.024-.43-.035-.87-.032-1.32-.122-2.02-.292-4.02-.515-6.04l4.495-6.36c4.042-5.71 10.056-14.25 14.854-21.05 5.039-7.15 5.882-16.42 2.232-24.38-4.109-8.92-9.033-17.48-14.716-25.52-5.051-7.13-13.519-11.02-22.228-10.24l-33.42 3.08c-1.931-1.43-3.907-2.8-5.918-4.09l-.153-.12c-3.342-2.14-6.789-4.13-10.344-5.91-.391-.2-.773-.42-1.147-.63-1.808-.91-3.639-1.76-5.494-2.58l-3.264-7.06c-2.935-6.37-7.315-15.85-10.806-23.42-3.667-7.92-11.281-13.28-19.985-14.1-9.797-.9-19.656-.92-29.453 0-8.71.79-16.333 6.18-19.995 14.1l-14.059 30.48c-2.197.98-4.364 1.99-6.496 3.09l-.163.07c-3.537 1.83-6.984 3.82-10.304 6.01-.367.23-.737.46-1.116.68-1.688 1.12-3.346 2.26-4.977 3.48l-7.762-.71c-6.978-.64-17.372-1.61-25.66-2.36-8.704-.78-17.161 3.11-22.213 10.25-5.691 8.05-10.626 16.58-14.743 25.5-3.656 7.93-2.81 17.24 2.234 24.38zm119.872 70.18c-15.692 0-29.057-5.54-40.098-16.57-11.041-11.05-16.571-24.41-16.571-40.1 0-15.7 5.53-29.05 16.571-40.11 11.041-11.03 24.406-16.54 40.098-16.54s29.056 5.51 40.097 16.54c11.044 11.06 16.57 24.41 16.57 40.11 0 15.69-5.526 29.05-16.57 40.1-11.041 11.03-24.405 16.57-40.097 16.57z"/></svg>