<svg clip-rule="evenodd" fill-rule="evenodd" stroke-linejoin="round" stroke-miterlimit="2" viewBox="0 0 250 250" xmlns="http://www.w3.org/2000/svg"><path fill="rgb(255, 255, 255)" d="m86.184 191.265c-1.813-1.791-2.72-4.169-2.72-7.133 0-2.967.946-5.361 2.838-7.184 1.892-1.824 4.235-2.736 7.032-2.736h30.158c2.953 0 5.336.896 7.15 2.687 1.814 1.792 2.72 4.169 2.72 7.134 0 2.967-.946 5.36-2.837 7.184-1.892 1.823-4.236 2.736-7.033 2.736h-30.158c-2.952 0-5.335-.897-7.15-2.688zm-30.134 50.393c-7.143 0-13.218-2.511-18.242-7.532-5.018-5.023-7.532-11.103-7.532-18.24v-181.5c0-7.212 2.514-13.355 7.532-18.431 5.024-5.075 11.099-7.614 18.242-7.614h88.554c3.575 0 6.981.732 10.22 2.193 3.239 1.464 6.046 3.383 8.422 5.757l48.529 48.529c2.375 2.377 4.295 5.184 5.756 8.422 1.463 3.24 2.193 6.646 2.193 10.221v132.423c0 7.137-2.537 13.217-7.613 18.24-5.075 5.021-11.219 7.532-18.432 7.532zm137.629-162.855h-25.771c-5.301 0-9.871-1.92-13.709-5.758-3.838-3.84-5.758-8.409-5.758-13.709v-24.95h-92.391v181.5h137.629zm-106.901 28.796c-1.379-1.95-1.612-4.487-.614-6.656 1.126-2.441 2.473-4.772 4.027-6.965 1.381-1.947 3.687-3.015 6.067-2.798 2.264.205 5.102.464 7.006.638l2.119.194c.446-.327.899-.643 1.359-.947.104-.059.205-.121.305-.186.907-.597 1.849-1.141 2.814-1.637l.044-.023c.582-.297 1.174-.579 1.774-.842l3.839-8.322c1-2.167 3.082-3.634 5.46-3.855 2.675-.249 5.368-.245 8.044.003 2.376.222 4.455 1.689 5.456 3.856.954 2.061 2.149 4.649 2.951 6.386l.892 1.932c.505.222 1.006.457 1.499.703.103.061.207.118.313.171.971.487 1.913 1.031 2.826 1.619l.041.027c.55.356 1.089.727 1.616 1.115l9.127-.836c2.377-.218 4.69.851 6.069 2.8 1.552 2.194 2.896 4.527 4.018 6.969.997 2.168.766 4.701-.608 6.652-1.311 1.857-2.953 4.186-4.057 5.75l-1.227 1.737c.06.55.107 1.1.14 1.651-.001.119.002.237.009.357.063 1.083.063 2.17.01 3.256l-.002.049c-.034.653-.086 1.306-.157 1.957l5.286 7.486c1.378 1.95 1.609 4.487.61 6.656-1.124 2.441-2.472 4.771-4.025 6.964-1.38 1.947-3.689 3.014-6.066 2.798-2.263-.206-5.102-.464-7.007-.638l-2.12-.194c-.445.327-.898.644-1.359.947-.103.059-.204.121-.304.187-.907.597-1.849 1.14-2.815 1.637l-.044.022c-.582.298-1.173.579-1.773.842l-3.84 8.322c-.999 2.168-3.081 3.636-5.459 3.856-2.676.247-5.368.245-8.044-.004-2.376-.221-4.455-1.687-5.457-3.854-.953-2.063-2.149-4.65-2.95-6.387l-.892-1.933c-.506-.222-1.006-.456-1.5-.704-.102-.06-.207-.116-.313-.17-.97-.487-1.912-1.03-2.825-1.619l-.042-.027c-.549-.355-1.088-.727-1.616-1.115l-9.125.836c-2.38.218-4.689-.85-6.072-2.8-1.549-2.193-2.896-4.526-4.018-6.968-.994-2.169-.765-4.702.61-6.652 1.312-1.857 2.954-4.187 4.057-5.75l1.226-1.738c-.058-.549-.104-1.1-.139-1.65 0-.119 0-.238-.008-.357-.066-1.085-.066-2.172-.011-3.256l.003-.05c.032-.653.086-1.306.155-1.957zm51.482 24.381c3.652-3.651 5.479-8.072 5.479-13.261s-1.827-9.608-5.479-13.26c-3.652-3.651-8.07-5.48-13.26-5.48s-9.61 1.829-13.261 5.48c-3.652 3.652-5.479 8.071-5.479 13.26s1.827 9.61 5.479 13.261c3.651 3.652 8.071 5.479 13.261 5.479s9.608-1.827 13.26-5.479zm-6.123-13.261c0 3.939-3.198 7.138-7.137 7.138-3.94 0-7.138-3.199-7.138-7.138s3.198-7.138 7.138-7.138c3.939 0 7.137 3.199 7.137 7.138z"/></svg>