<svg clip-rule="evenodd" fill-rule="evenodd" stroke-linejoin="round" stroke-miterlimit="2" viewBox="0 0 250 250" xmlns="http://www.w3.org/2000/svg"><path fill="rgb(255, 255, 255)" d="m634.181-163.135c.574.949.16.265 0 0zm-9.335-122.87c.169 1.18.087.608 0 0zm9.335 122.87c-.034-.056-.056-.093-.056-.093l-.211-.373-4.732-8.796c-3.953-6.664-5.473-13.978-4.475-21.962 1.023-8.176 4.591-14.996 10.692-20.464l16.237-15.151c-.453-3.102-.653-6.834-.502-11.207.13-3.777.397-6.976.754-9.602l-17.148-16.683c-5.319-4.624-8.707-10.757-9.894-18.539-.027-.191-.061-.43-.103-.723-.004-.027-.006-.042-.006-.042-1.013-7.698.45-14.909 4.402-21.619l4.608-9.317c.132-.266.275-.527.428-.781 4.011-6.639 9.396-11.153 16.015-13.699 6.238-2.398 12.927-3.015 20.075-1.715l.031.006.096.019 19.832 3.858c4.433-3.807 9.662-7.479 15.704-10.988 5.785-3.359 11.514-5.918 17.172-7.703l3.122-20.293c1.344-8.783 5.305-16.049 11.837-21.821 6.639-5.873 14.386-8.807 23.238-8.807h8.53c8.161 0 15.582 2.76 22.2 8.453 6.336 5.446 10.446 12.388 12.254 20.87l.021.104.062.332-.014.017.009.124.025-.028 3.356 21.143c5.202 1.788 10.698 4.288 16.472 7.536 6.261 3.523 11.612 7.213 16.076 11.035l19.182-3.822c6.548-1.31 13.318-.72 20.285 1.959 7.264 2.794 12.854 7.55 16.751 14.229l4.791 8.153.039.067.109.194-.004.007.03.063.006-.011c4.079 7.525 5.338 15.134 4.006 22.784-1.333 7.666-4.944 14.195-10.895 19.551l-15.886 15.354c.629 3.138.934 6.897.779 11.298-.142 4.02-.514 7.476-1.052 10.377l15.841 14.779c6.175 5.537 9.898 12.306 11.226 20.276 1.342 8.052-.006 15.436-3.93 22.164l-4.717 9.434c-.122.243-.253.482-.393.716-4.277 7.126-10.082 11.631-17.21 13.77-6.221 1.866-12.75 2.216-19.593.972-.221-.048-19.047-3.809-19.047-3.809-4.634 4.196-10.163 8.03-16.618 11.459-5.717 3.037-11.188 5.5-16.403 7.403l-3.194 20.757c-.037.24-.082.481-.136.717-1.891 8.404-6.118 15.34-12.658 20.815-6.738 5.636-14.294 8.388-22.607 8.388h-7.916c-8.203 0-15.684-2.582-22.405-7.828-6.926-5.41-11.077-12.494-12.423-21.263.592 2.96-.029-.181-.029-.181l-3.194-21.294c-5.558-1.94-11.183-4.463-16.869-7.581-6.207-3.404-11.576-7.203-16.13-11.36l-17.759 3.654c-7.255 1.921-14.373 1.521-21.355-1.191-7.128-2.767-12.711-7.456-16.729-14.091zm-9.335-122.87c-.036-.24-.071-.481-.103-.723.016.11.06.421.103.723zm140.489 86.534c11.406 0 21.073-4.044 28.995-12.153 7.986-8.176 11.973-18.005 11.973-29.484 0-11.113-4.082-20.716-12.152-28.845-8.062-8.126-17.752-12.206-29.081-12.206-11.333 0-21.053 4.135-29.185 12.345-8.148 8.226-12.27 17.928-12.27 29.146 0 11.189 4.113 20.828 12.254 28.955 8.174 8.155 17.993 12.242 29.466 12.242zm-21.335-474.529h32c36.833 0 67.71 12.363 92.63 37.09 24.913 24.72 37.37 55.357 37.37 91.91v67c0 12.18-4.827 22.393-14.48 30.64-9.653 8.24-20.923 12.36-33.81 12.36-13.807 0-25.21-4.267-34.21-12.8s-13.5-18.6-13.5-30.2v-67c0-8.167-3.53-15.877-10.59-23.13-7.053-7.247-14.857-10.87-23.41-10.87h-592c-9.453 0-17.65 3.573-24.59 10.72-6.94 7.153-10.41 15.913-10.41 26.28v172h68l2.697-7.645c4.725-13.396 17.386-22.355 31.591-22.355h291.712c13.4 0 24.417 4.56 33.05 13.68 8.633 9.113 12.95 20.447 12.95 34 0 13.547-4.317 24.82-12.95 33.82s-19.65 13.5-33.05 13.5h-207.644c-13.451 0-24.356 10.905-24.356 24.356v85.288c0 13.451 10.905 24.356 24.356 24.356h209.644c12.753 0 23.44 4.237 32.06 12.71 8.627 8.473 12.94 18.973 12.94 31.5s-4.313 23.123-12.94 31.79c-8.62 8.667-19.307 13-32.06 13h-257c-19.96 0-36.783-6.953-50.47-20.86-13.687-13.9-20.53-30.613-20.53-50.14v-122h-91c-19.96 0-36.783-6.953-50.47-20.86-13.687-13.9-20.53-30.613-20.53-50.14v-196c0-36.433 12.403-67.54 37.21-93.32 24.807-25.787 55.403-38.68 91.79-38.68h33v-97c0-26.807 9.033-49.343 27.1-67.61 18.067-18.26 40.367-27.39 66.9-27.39h338c26.807 0 49.343 9.13 67.61 27.39 18.26 18.267 27.39 40.803 27.39 67.61zm-433 0h338v-70.581c0-7.007-2.783-13.726-7.738-18.681s-11.674-7.738-18.681-7.738h-285.162c-7.007 0-13.726 2.783-18.681 7.738s-7.738 11.674-7.738 18.681z" transform="matrix(.271647 0 0 .271647 -5.52642 253.761)"/></svg>