<svg clip-rule="evenodd" fill-rule="evenodd" stroke-linejoin="round" stroke-miterlimit="2" viewBox="0 0 250 250" xmlns="http://www.w3.org/2000/svg"><path fill="rgb(255, 255, 255)" d="m149-175c-26.033 0-48.21-9.16-66.53-27.48-18.313-18.313-27.47-40.487-27.47-66.52v-502c0-26.307 9.157-48.717 27.47-67.23 18.32-18.513 40.497-27.77 66.53-27.77h662c26.307 0 48.717 9.257 67.23 27.77s27.77 40.923 27.77 67.23v502c0 26.033-9.257 48.207-27.77 66.52-18.513 18.32-40.923 27.48-67.23 27.48h-167v33c0 13.167-4.73 24.29-14.19 33.37-9.453 9.087-20.723 13.63-33.81 13.63h-232c-13.167 0-24.29-4.543-33.37-13.63-9.087-9.08-13.63-20.203-13.63-33.37v-33zm0-131.254c0 20.575 16.679 37.254 37.254 37.254h587.492c20.575 0 37.254-16.679 37.254-37.254v-427.492c0-20.575-16.679-37.254-37.254-37.254h-587.492c-20.575 0-37.254 16.679-37.254 37.254zm331.59-246.118-6 10.854c-3.02 6.455-8.053 10.756-15.163 12.83-7.018 2.047-13.756 1.116-20.141-2.879-6.518-3.612-10.452-8.905-11.944-15.77-1.416-6.514-.487-12.897 2.912-19.129l.128-.226 7.167-12.154h-14.552c-6.583 0-12.484-2.551-17.571-7.937-4.962-5.254-7.318-11.143-7.318-17.564 0-6.584 2.551-12.484 7.937-17.571 5.254-4.962 11.143-7.319 17.564-7.319h13.94l-7.167-12.153-.128-.226c-3.399-6.232-4.328-12.615-2.912-19.13 1.545-7.105 5.649-12.256 12.342-15.375 6.265-3.355 12.677-4.122 19.223-2.414 6.944 1.811 11.972 5.98 15.047 12.531l6.46 11.451 6.601-11.997c3.146-6.743 8.198-10.801 15.011-12.35 6.292-1.43 12.602-.536 18.894 2.896 6.384 3.482 10.519 8.476 12.55 14.86 2.096 6.588 1.258 13.205-2.871 19.79l-6.835 12.117h14.239c6.533 0 12.368 2.425 17.416 7.473 5.049 5.049 7.473 10.883 7.473 17.417 0 6.421-2.356 12.31-7.318 17.564-5.087 5.386-10.988 7.937-17.571 7.937h-13.639l7.402 12.029.204.351c3.508 6.432 4.187 13.016 2.141 19.74-2.006 6.592-5.891 11.595-11.578 15.032-6.507 4.12-13.455 5.006-20.847 2.641-7.247-2.319-12.284-6.717-15.246-13.013zm-225.819 118.278h452.07c10.349 0 18.995 3.546 25.981 10.531 6.985 6.986 10.531 15.632 10.531 25.981 0 10.311-3.62 19.07-10.837 26.287-7.218 7.217-15.977 10.837-26.287 10.837h-452.07c-10.385 0-19.069-3.668-26.079-10.938-6.935-7.191-10.433-15.912-10.433-26.186 0-10.385 3.668-19.069 10.938-26.08 7.192-6.934 15.912-10.432 26.186-10.432zm20.887-118.519-6.765 11.992c-3.55 6.476-8.647 10.505-15.138 12.276-6.46 1.761-12.637.961-18.48-2.433-6.407-3.025-10.638-7.936-12.704-14.724-2.072-6.809-1.183-13.49 2.9-20.002l6.835-12.118h-14.239c-7.213 0-13.226-2.701-18.035-8.111-4.628-5.206-6.854-11.027-6.854-17.39 0-6.534 2.424-12.369 7.473-17.417 4.983-4.983 10.993-7.473 18.028-7.473h13.627l-6.796-12.055c-4.055-6.436-5.084-13.038-3.33-19.765 1.806-6.921 5.954-11.939 12.445-15.004 5.822-3.376 12.066-4.216 18.741-2.475 6.776 1.768 11.981 5.83 15.526 12.297l6.592 11.686 6.601-11.998c3.152-6.76 8.107-10.779 14.627-12.331 5.994-1.427 12.153-.612 18.389 2.73 6.492 3.019 10.774 7.954 12.856 14.795 2.073 6.809 1.183 13.49-2.899 20.002l-6.836 12.118h14.239c6.534 0 12.368 2.424 17.417 7.473 5.048 5.048 7.473 10.883 7.473 17.417 0 6.42-2.357 12.31-7.319 17.563-5.087 5.387-10.987 7.938-17.571 7.938h-14.112l7.331 12.751c3.537 5.915 4.442 12.268 2.668 19.068-1.829 7.013-5.857 11.994-11.859 15.01-6.491 3.505-13.133 4.038-19.917 1.679-6.676-2.322-11.425-6.439-14.368-12.193zm409.951.397-6.192 11.498-.02.037c-3.546 6.502-8.762 10.585-15.56 12.358-6.74 1.758-13.355.721-19.785-3.344-5.833-3.522-9.645-8.633-11.4-15.359-1.777-6.814-.865-13.18 2.69-19.105l7.629-12.715h-14.432c-6.584 0-12.484-2.551-17.571-7.937-4.962-5.254-7.319-11.143-7.319-17.564 0-6.584 2.551-12.484 7.938-17.571 5.253-4.962 11.143-7.319 17.564-7.319h14.112l-7.333-12.754c-3.478-5.817-4.5-12.067-3.046-18.755 1.555-7.156 5.504-12.245 11.628-15.32 6.297-3.402 12.744-4.186 19.325-2.469 6.798 1.773 12.014 5.855 15.56 12.357l.02.037 6.085 11.301 6.573-11.95c3.623-6.642 8.85-10.6 15.492-12.11 6.442-1.464 12.598-.491 18.423 2.973 6.304 3.478 10.393 8.446 12.41 14.783 2.07 6.505 1.436 13.022-2.112 19.528l-.128.226-7.168 12.153h13.941c7.16 0 13.112 2.57 17.886 7.642 4.71 5.005 7.003 10.771 7.003 17.248 0 6.364-2.226 12.184-6.854 17.391-4.809 5.41-10.822 8.11-18.035 8.11h-13.639l7.402 12.029.204.351c3.454 6.334 4.259 12.819 2.531 19.44-1.753 6.72-5.763 11.894-12.076 15.401-6.544 4.104-13.389 4.921-20.522 2.543-6.809-2.27-11.916-6.526-15.333-12.754z" transform="matrix(.268431 0 0 .268431 -3.98086 253.981)"/></svg>