<svg clip-rule="evenodd" fill-rule="evenodd" stroke-linejoin="round" stroke-miterlimit="2" viewBox="0 0 250 250" xmlns="http://www.w3.org/2000/svg"><path fill="rgb(255, 255, 255)" d="m311.275 360.362c-5.617-.003-10.731 3.233-13.134 8.309-2.349 4.962-1.697 10.812 1.653 15.126.853.764 1.615 1.609 2.409 2.438 3.459 3.477 6.363 7.49 8.633 11.884h111.908c6.157 0 12.06 2.445 16.413 6.798 4.354 4.353 6.799 10.26 6.799 16.416 0 6.155-2.445 12.062-6.799 16.415-4.353 4.353-10.256 6.798-16.413 6.798l-111.906-.002c-8.427 16.327-25.464 27.498-45.089 27.498s-36.662-11.171-45.089-27.496h-111.906c-6.157 0-12.06-2.445-16.414-6.798-4.353-4.353-6.799-10.26-6.799-16.415 0-6.156 2.446-12.063 6.799-16.416 4.354-4.353 10.257-6.798 16.414-6.798l111.904.003c2.267-4.392 5.158-8.412 8.546-11.934.655-.683 1.272-1.392 1.852-2.122l.058-.071c3.526-4.271 4.27-10.195 1.909-15.206-2.361-5.01-7.402-8.208-12.942-8.208h-.039c-26.755-.219-69.673-.219-69.673-.219-11.643 0-21.561-4.1-29.754-12.29-8.19-8.193-12.289-18.11-12.289-29.753v-230.76c0-11.745 4.095-21.748 12.271-30.013 8.198-8.284 18.122-12.427 29.772-12.427h230.759c11.752 0 21.761 4.139 30.031 12.409s12.409 18.279 12.409 30.031v230.76c0 11.649-4.142 21.573-12.427 29.771-8.265 8.176-18.268 12.272-30.013 12.272zm-156.134-63.213c0 6.88 2.733 13.479 7.598 18.344 4.866 4.865 11.464 7.598 18.345 7.598h169.329c6.881 0 13.479-2.733 18.345-7.598 4.865-4.865 7.598-11.464 7.598-18.344v-.027c0-6.881-2.733-13.479-7.598-18.344-4.866-4.866-11.464-7.599-18.345-7.599h-169.329c-6.881 0-13.479 2.733-18.345 7.599-4.865 4.865-7.598 11.463-7.598 18.344zm30.405 14.869c-4.26 0-7.771-1.55-10.552-4.601-2.645-2.899-4.022-6.468-4.022-10.75 0-4.392 1.444-7.91 4.141-10.626 2.712-2.731 6.213-4.185 10.571-4.185 4.014 0 7.536 1.303 10.569 3.905 3.199 2.742 4.881 6.401 4.881 11.049 0 4.412-1.624 8.076-4.851 10.999-3.117 2.823-6.702 4.209-10.737 4.209zm61.761 105.078v8.472c1.926 8.405 9.456 14.683 18.442 14.683 8.985 0 16.516-6.278 18.442-14.683v-8.472c-1.926-8.405-9.457-14.682-18.442-14.682-8.986 0-16.516 6.277-18.442 14.682zm129.049-214.147v-94.22c0-6.88-2.733-13.479-7.598-18.344-4.866-4.865-11.464-7.599-18.345-7.599h-169.329c-6.881 0-13.479 2.734-18.345 7.599-4.865 4.865-7.598 11.464-7.598 18.344v94.22c0 14.001 11.35 25.351 25.351 25.351h170.514c14 0 25.35-11.35 25.35-25.351zm-110.615 11.807c-16.297 0-30.029-2.736-41.215-8.103-12.504-6-18.304-13.749-18.304-22.496v-57.711c0-8.592 5.829-16.344 18.431-22.466 11.294-5.486 24.951-8.277 40.992-8.277 15.933 0 29.596 2.786 41.008 8.27 12.736 6.12 18.622 13.883 18.622 22.473v57.711c0 8.746-5.826 16.5-18.39 22.499-11.239 5.367-24.947 8.1-41.144 8.1zm.02-20.368c4.194.091 8.524-.23 12.992-.96 4.515-.737 8.731-1.725 12.647-2.969 3.791-1.204 7.05-2.577 9.771-4.138 1.699-.975 2.988-1.867 3.735-2.831v-7.396c-1.29.585-2.614 1.144-3.973 1.675-3.487 1.365-7.187 2.504-11.098 3.414-3.868.9-7.838 1.575-11.91 2.025-4.055.449-8.186.673-12.393.673-4.168 0-8.309-.25-12.423-.75-4.108-.499-8.058-1.198-11.85-2.096-3.838-.909-7.499-2.046-10.984-3.41-1.271-.498-2.499-1.012-3.684-1.544l.001 7.581c.677.87 1.896 1.668 3.5 2.577 2.679 1.518 5.92 2.87 9.716 4.075 3.916 1.244 8.132 2.233 12.648 2.97 4.498.734 8.905 1.103 13.22 1.103zm-.086-61.607c7.85 0 15.859-1.202 24.03-3.593 5.056-1.48 9.019-3.003 11.83-4.688-2.895-1.686-6.961-3.237-12.147-4.764-8.272-2.436-16.199-3.664-23.782-3.664-7.864 0-15.865 1.201-24.004 3.592-5.19 1.525-9.227 3.097-12.044 4.845 2.767 1.799 6.718 3.36 11.783 4.818 7.995 2.302 16.106 3.454 24.334 3.454zm-.143 30.731c3.784 0 7.55-.231 11.3-.692 3.742-.461 7.348-1.128 10.818-2.003 3.461-.873 6.833-1.952 10.115-3.239 2.506-.983 4.887-2.046 7.141-3.19v-9.103c-1.408.597-2.855 1.168-4.342 1.712-3.572 1.308-7.27 2.39-11.095 3.246-3.79.848-7.68 1.496-11.669 1.945s-8.096.674-12.32.674c-4.023 0-8.07-.224-12.143-.673-4.089-.45-8.05-1.127-11.884-2.028-3.83-.9-7.496-1.976-10.996-3.226-1.338-.478-2.627-.981-3.866-1.51l.001 9.093c1.944 1.082 4.092 2.074 6.442 2.98 3.232 1.247 6.625 2.331 10.18 3.254 3.538.919 7.199 1.608 10.982 2.067 3.8.462 7.579.693 11.336.693z" transform="matrix(.533018 0 0 .533018 -16.6487 -12.828)"/></svg>