<svg clip-rule="evenodd" fill-rule="evenodd" stroke-linejoin="round" stroke-miterlimit="2" viewBox="0 0 250 250" xmlns="http://www.w3.org/2000/svg"><path fill="rgb(255, 255, 255)" d="m311.275 360.362c-5.617-.003-10.731 3.233-13.134 8.309-2.349 4.962-1.697 10.812 1.653 15.126.853.764 1.615 1.609 2.409 2.438 3.459 3.477 6.363 7.49 8.633 11.884h111.908c6.157 0 12.06 2.445 16.413 6.798 4.354 4.353 6.799 10.26 6.799 16.416 0 6.155-2.445 12.062-6.799 16.415-4.353 4.353-10.256 6.798-16.413 6.798l-111.906-.002c-8.427 16.327-25.464 27.498-45.089 27.498s-36.662-11.171-45.089-27.496h-111.906c-6.157 0-12.06-2.445-16.414-6.798-4.353-4.353-6.799-10.26-6.799-16.415 0-6.156 2.446-12.063 6.799-16.416 4.354-4.353 10.257-6.798 16.414-6.798l111.904.003c2.267-4.392 5.158-8.412 8.546-11.934.655-.683 1.272-1.392 1.852-2.122l.058-.071c3.526-4.271 4.27-10.195 1.909-15.206-2.361-5.01-7.402-8.208-12.942-8.208h-.039c-26.755-.219-69.673-.219-69.673-.219-11.643 0-21.561-4.1-29.754-12.29-8.19-8.193-12.289-18.11-12.289-29.753v-230.76c0-11.745 4.095-21.748 12.271-30.013 8.198-8.284 18.122-12.427 29.772-12.427h230.759c11.752 0 21.761 4.139 30.031 12.409s12.409 18.279 12.409 30.031v230.76c0 11.649-4.142 21.573-12.427 29.771-8.265 8.176-18.268 12.272-30.013 12.272zm-63.968 56.734v8.472c1.926 8.405 9.456 14.683 18.442 14.683 8.985 0 16.516-6.278 18.442-14.683v-8.472c-1.926-8.405-9.457-14.682-18.442-14.682-8.986 0-16.516 6.277-18.442 14.682zm129.049-214.147v-94.22c0-6.88-2.733-13.479-7.598-18.344-4.866-4.865-11.464-7.599-18.345-7.599h-169.329c-6.881 0-13.479 2.734-18.345 7.599-4.865 4.865-7.598 11.464-7.598 18.344v94.22c0 14.001 11.35 25.351 25.351 25.351h170.514c14 0 25.35-11.35 25.35-25.351zm-110.804-17.342c-1.288 0-2.571-.229-3.845-.7-1.34-.495-2.635-1.345-3.836-2.619-.081-.086-.158-.176-.231-.269l-30.81-39.297c-2.678-3.26-3.143-6.772-1.463-10.526 1.709-3.818 4.713-5.776 9.076-5.776h7.071v-20.535c0-2.758.957-5.134 2.871-7.127 1.955-2.035 4.348-3.055 7.181-3.055h27.973c2.778 0 5.176.991 7.183 2.999 2.008 2.007 2.999 4.405 2.999 7.183v20.535h7.072c4.362 0 7.367 1.958 9.076 5.776 1.673 3.738 1.247 7.231-1.293 10.476l-.012.015-31.109 39.345c-.07.088-.144.174-.221.256-1.201 1.274-2.496 2.124-3.837 2.619-1.273.471-2.556.7-3.845.7zm-32.678 29.149c-4.485 0-8.303-1.581-11.458-4.737-3.156-3.155-4.737-6.973-4.737-11.458v-12.549c0-2.815.988-5.189 2.938-7.132 1.943-1.936 4.318-2.92 7.137-2.92 2.831 0 5.204.993 7.132 2.938 1.92 1.938 2.897 4.306 2.897 7.114v8.64h57.8v-8.64c0-2.815.988-5.189 2.938-7.132 1.946-1.938 4.317-2.92 7.126-2.92 2.777 0 5.155.963 7.138 2.879 2.019 1.953 3.033 4.343 3.033 7.173v12.549c0 4.49-1.596 8.314-4.789 11.473-3.178 3.144-7.022 4.722-11.537 4.722zm-77.733 82.393c0 6.88 2.733 13.479 7.598 18.344 4.866 4.865 11.464 7.598 18.345 7.598h169.329c6.881 0 13.479-2.733 18.345-7.598 4.865-4.865 7.598-11.464 7.598-18.344v-.027c0-6.881-2.733-13.479-7.598-18.344-4.866-4.866-11.464-7.599-18.345-7.599h-169.329c-6.881 0-13.479 2.733-18.345 7.599-4.865 4.865-7.598 11.463-7.598 18.344zm30.405 14.869c-4.26 0-7.771-1.55-10.552-4.601-2.645-2.899-4.022-6.468-4.022-10.75 0-4.392 1.444-7.91 4.141-10.626 2.712-2.731 6.213-4.185 10.571-4.185 4.014 0 7.536 1.303 10.569 3.905 3.199 2.742 4.881 6.401 4.881 11.049 0 4.412-1.624 8.076-4.851 10.999-3.117 2.823-6.702 4.209-10.737 4.209z" transform="matrix(.533018 0 0 .533018 -16.6487 -12.828)"/></svg>