<svg clip-rule="evenodd" fill-rule="evenodd" stroke-linejoin="round" stroke-miterlimit="2" viewBox="0 0 250 250" xmlns="http://www.w3.org/2000/svg"><path fill="rgb(255, 255, 255)" d="m311.275 360.362c-5.617-.003-10.731 3.233-13.134 8.309-2.349 4.962-1.697 10.812 1.653 15.126.853.764 1.615 1.609 2.409 2.438 3.459 3.477 6.363 7.49 8.633 11.884h111.908c6.157 0 12.06 2.445 16.413 6.798 4.354 4.353 6.799 10.26 6.799 16.416 0 6.155-2.445 12.062-6.799 16.415-4.353 4.353-10.256 6.798-16.413 6.798l-111.906-.002c-8.427 16.327-25.464 27.498-45.089 27.498s-36.662-11.171-45.089-27.496h-111.906c-6.157 0-12.06-2.445-16.414-6.798-4.353-4.353-6.799-10.26-6.799-16.415 0-6.156 2.446-12.063 6.799-16.416 4.354-4.353 10.257-6.798 16.414-6.798l111.904.003c2.267-4.392 5.158-8.412 8.546-11.934.655-.683 1.272-1.392 1.852-2.122l.058-.071c3.526-4.271 4.27-10.195 1.909-15.206-2.361-5.01-7.402-8.208-12.942-8.208h-.039c-26.755-.219-69.673-.219-69.673-.219-11.643 0-21.561-4.1-29.754-12.29-8.19-8.193-12.289-18.11-12.289-29.753v-230.76c0-11.745 4.095-21.748 12.271-30.013 8.198-8.284 18.122-12.427 29.772-12.427h230.759c11.752 0 21.761 4.139 30.031 12.409s12.409 18.279 12.409 30.031v230.76c0 11.649-4.142 21.573-12.427 29.771-8.265 8.176-18.268 12.272-30.013 12.272zm65.081-157.413v-94.22c0-6.88-2.733-13.479-7.598-18.344-4.866-4.865-11.464-7.599-18.345-7.599h-169.329c-6.881 0-13.479 2.734-18.345 7.599-4.865 4.865-7.598 11.464-7.598 18.344v94.22c0 14.001 11.35 25.351 25.351 25.351h170.514c14 0 25.35-11.35 25.35-25.351zm-191.257-9.482v-76.658c0-5.805 2.065-10.776 6.203-14.911 4.126-4.124 9.153-6.195 15.086-6.195h118.904c5.804 0 10.775 2.063 14.91 6.196 4.133 4.134 6.196 9.106 6.196 14.91v76.658c0 5.934-2.072 10.96-6.195 15.087-4.135 4.138-9.107 6.202-14.911 6.202h-118.904c-5.934 0-10.96-2.073-15.087-6.201-4.128-4.127-6.202-9.154-6.202-15.088zm50.379-67.419c0 2.45.973 4.801 2.706 6.534 1.732 1.732 4.082 2.705 6.532 2.705h71.338c2.45 0 4.799-.973 6.532-2.705 1.732-1.733 2.706-4.084 2.706-6.534s-.974-4.801-2.706-6.533c-1.733-1.733-4.082-2.706-6.532-2.706h-71.338c-2.45 0-4.8.973-6.532 2.706-1.733 1.732-2.706 4.083-2.706 6.533zm0 29.181c0 4.951 4.013 8.965 8.964 8.965h71.886c4.95 0 8.964-4.014 8.964-8.965 0-4.95-4.014-8.964-8.964-8.964h-71.886c-4.951 0-8.964 4.014-8.964 8.964zm-29.09-28.996c0 5.001 4.054 9.054 9.054 9.054h.005c5 0 9.054-4.053 9.054-9.054v-.37c0-5-4.054-9.054-9.054-9.054h-.005c-5 0-9.054 4.054-9.054 9.054zm29.09 58.09c0 5.05 4.094 9.144 9.144 9.144h71.525c5.051 0 9.145-4.094 9.145-9.144v-.007c0-5.051-4.094-9.145-9.145-9.145h-71.525c-5.05 0-9.144 4.094-9.144 9.145zm-29.09-29.094c0 2.378.945 4.659 2.626 6.34s3.961 2.625 6.338 2.625h.185c2.377 0 4.657-.944 6.338-2.625s2.626-3.962 2.626-6.34c0-2.377-.945-4.658-2.626-6.339s-3.961-2.625-6.338-2.625h-.185c-2.377 0-4.657.944-6.338 2.625s-2.626 3.962-2.626 6.339zm0 29.184c0 5 4.054 9.054 9.054 9.054h.005c5 0 9.054-4.054 9.054-9.054v-.187c0-5.001-4.054-9.055-9.054-9.055h-.005c-5 0-9.054 4.054-9.054 9.055zm40.919 232.683v8.472c1.926 8.405 9.456 14.683 18.442 14.683 8.985 0 16.516-6.278 18.442-14.683v-8.472c-1.926-8.405-9.457-14.682-18.442-14.682-8.986 0-16.516 6.277-18.442 14.682zm-92.166-119.947c0 6.88 2.733 13.479 7.598 18.344 4.866 4.865 11.464 7.598 18.345 7.598h169.329c6.881 0 13.479-2.733 18.345-7.598 4.865-4.865 7.598-11.464 7.598-18.344v-.027c0-6.881-2.733-13.479-7.598-18.344-4.866-4.866-11.464-7.599-18.345-7.599h-169.329c-6.881 0-13.479 2.733-18.345 7.599-4.865 4.865-7.598 11.463-7.598 18.344zm30.405 14.869c-4.26 0-7.771-1.55-10.552-4.601-2.645-2.899-4.022-6.468-4.022-10.75 0-4.392 1.444-7.91 4.141-10.626 2.712-2.731 6.213-4.185 10.571-4.185 4.014 0 7.536 1.303 10.569 3.905 3.199 2.742 4.881 6.401 4.881 11.049 0 4.412-1.624 8.076-4.851 10.999-3.117 2.823-6.702 4.209-10.737 4.209z" transform="matrix(.533018 0 0 .533018 -16.6487 -12.828)"/></svg>