<svg clip-rule="evenodd" fill-rule="evenodd" stroke-linejoin="round" stroke-miterlimit="2" viewBox="0 0 250 250" xmlns="http://www.w3.org/2000/svg"><path fill="rgb(255, 255, 255)" d="m11.262 30.915c-.631.571-1.229 1.167-1.79 1.775-.489.564-1.308.705-1.958.338s-.951-1.141-.721-1.851c1.031-3.368 2.839-6.333 5.187-8.635 1.881-1.849 3.005-4.333 3.152-6.967.025-.232.045-.419.045-.543 0-4.87 3.953-8.824 8.823-8.824s8.823 3.954 8.823 8.824c0 .526.342 2.136.731 3.623.342 1.328 1.063 2.527 2.076 3.452 2.544 2.374 4.523 5.49 5.635 9.056.235.73-.075 1.524-.742 1.901-.668.377-1.508.233-2.012-.345-.555-.612-1.147-1.21-1.773-1.783v.011c0 7.03-5.708 12.738-12.738 12.738s-12.738-5.708-12.738-12.738zm9.383-11.666c-.195-.279-.522-.435-.862-.412-.339.023-.642.222-.798.525-.734 1.428-1.862 3.984-2.778 7.781l-.094.398c-.266 1.145-.415 2.177-.415 3.028 0 4.582 3.72 8.68 8.302 8.68s8.302-4.098 8.302-8.68c0-.852-.149-1.885-.415-3.03-.934-4.022-2.113-6.703-2.875-8.176-.155-.302-.457-.5-.795-.523-.339-.023-.665.132-.859.41-.524.741-1.199 1.703-1.807 2.57-.355.505-.934.806-1.551.806s-1.196-.301-1.551-.806zm8.111 9.594c.157.297.202.598.149.901-.054.31-.199.574-.438.791l-.422.407c.009.086.013.181.009.285-.003.084-.009.162-.017.233l.416.388c.249.224.399.498.453.82.055.327 0 .626-.157.899l-.152.303-.022.042c-.178.296-.422.481-.718.57-.244.074-.5.088-.768.039l-.505-.101c-.144.118-.309.227-.496.326-.146.078-.288.145-.425.201l-.082.531c-.002.014-.005.028-.008.042-.075.335-.244.611-.505.83-.272.227-.578.337-.914.337h-.26c-.33 0-.631-.103-.901-.313-.283-.221-.453-.511-.508-.869v-.007h-.001l-.081-.546c-.147-.058-.295-.128-.443-.21-.179-.098-.338-.205-.478-.32l-.447.092c-.292.076-.579.06-.861-.05-.288-.112-.514-.3-.678-.568.081.128-.019-.032-.019-.032l-.152-.284c-.159-.269-.221-.564-.18-.887.041-.334.187-.612.435-.836l.436-.406c-.006-.083-.007-.174-.004-.274.003-.075.007-.144.012-.207l-.465-.453c-.219-.192-.36-.444-.409-.765l-.004-.031c-.041-.31.017-.601.174-.872l.148-.298c.007-.015.024-.045.024-.045.165-.273.387-.457.659-.561.25-.096.517-.122.803-.07l.008.001c.131.028.134.026 0 0l.529.103c.134-.105.286-.208.455-.306.155-.09.308-.164.46-.222l.079-.509c.054-.353.213-.645.476-.877.268-.238.582-.356.94-.356h.281c.332 0 .634.11.903.342.253.217.418.494.49.832l.004.021-.001.001.002.012.001-.002.086.543c.139.056.284.126.434.211.177.099.333.203.469.309l.508-.101c.263-.053.535-.031.815.077.297.114.525.309.684.581l.158.268s.014.025.021.04zm0 0c-.003-.007-.007-.014-.011-.021.022.04.019.035.011.021zm-6.265 6.672.001.001.011-.002-.013-.011zm1.543-2.957c.375 0 .693-.133.954-.4.262-.269.393-.592.393-.97 0-.365-.134-.681-.399-.948-.265-.268-.584-.402-.957-.402s-.692.136-.96.406c-.268.271-.403.59-.403.959 0 .368.135.685.403.952.269.268.592.403.969.403z" transform="matrix(6.05056 0 0 6.05056 -20.393 -25.9404)"/></svg>