<svg clip-rule="evenodd" fill-rule="evenodd" stroke-linejoin="round" stroke-miterlimit="2" viewBox="0 0 250 250" xmlns="http://www.w3.org/2000/svg"><path fill="rgb(255, 255, 255)" d="m311.275 360.362c-5.617-.003-10.731 3.233-13.134 8.309-2.349 4.962-1.697 10.812 1.653 15.126.853.764 1.615 1.609 2.409 2.438 3.459 3.477 6.363 7.49 8.633 11.884h111.908c6.157 0 12.06 2.445 16.413 6.798 4.354 4.353 6.799 10.26 6.799 16.416 0 6.155-2.445 12.062-6.799 16.415-4.353 4.353-10.256 6.798-16.413 6.798l-111.906-.002c-8.427 16.327-25.464 27.498-45.089 27.498s-36.662-11.171-45.089-27.496h-111.906c-6.157 0-12.06-2.445-16.414-6.798-4.353-4.353-6.799-10.26-6.799-16.415 0-6.156 2.446-12.063 6.799-16.416 4.354-4.353 10.257-6.798 16.414-6.798l111.904.003c2.267-4.392 5.158-8.412 8.546-11.934.655-.683 1.272-1.392 1.852-2.122l.058-.071c3.526-4.271 4.27-10.195 1.909-15.206-2.361-5.01-7.402-8.208-12.942-8.208h-.039c-26.755-.219-69.673-.219-69.673-.219-11.643 0-21.561-4.1-29.754-12.29-8.19-8.193-12.289-18.11-12.289-29.753v-230.76c0-11.745 4.095-21.748 12.271-30.013 8.198-8.284 18.122-12.427 29.772-12.427h230.759c11.752 0 21.761 4.139 30.031 12.409s12.409 18.279 12.409 30.031v230.76c0 11.649-4.142 21.573-12.427 29.771-8.265 8.176-18.268 12.272-30.013 12.272zm65.081-157.413v-94.22c0-6.88-2.733-13.479-7.598-18.344-4.866-4.865-11.464-7.599-18.345-7.599h-169.329c-6.881 0-13.479 2.734-18.345 7.599-4.865 4.865-7.598 11.464-7.598 18.344v94.22c0 14.001 11.35 25.351 25.351 25.351h170.514c14 0 25.35-11.35 25.35-25.351zm-107.535-37.036c-3.09 0-5.667-1.07-7.753-3.156-2.085-2.085-3.155-4.662-3.155-7.752v-50.183c0-3.052 1.046-5.64 3.106-7.776 2.098-2.176 4.694-3.28 7.802-3.28s5.704 1.104 7.802 3.28c2.06 2.136 3.105 4.724 3.105 7.776v50.183c0 3.09-1.069 5.667-3.155 7.752-2.086 2.086-4.663 3.156-7.752 3.156zm0 51.374c-8.49 0-16.448-1.6-23.877-4.783-7.416-3.179-13.903-7.552-19.465-13.114-5.563-5.563-9.936-12.05-13.114-19.466-3.184-7.429-4.784-15.387-4.784-23.876 0-7.44 1.33-14.587 3.987-21.442 2.649-6.833 6.458-12.955 11.406-18.34 1.961-2.371 4.508-3.718 7.653-4.018 3.198-.304 6.017.605 8.454 2.737.065.057.128.116.19.177 2.186 2.187 3.232 4.807 3.154 7.853-.073 2.819-.982 5.31-2.717 7.479-.046.058-.094.114-.143.169-3.178 3.541-5.675 7.49-7.491 11.848-1.787 4.289-2.678 8.801-2.678 13.537 0 10.929 3.835 20.234 11.513 27.912 7.677 7.677 16.982 11.512 27.912 11.512 10.929 0 20.234-3.835 27.912-11.512 7.677-7.678 11.512-16.983 11.512-27.912 0-4.747-.87-9.271-2.616-13.569-1.766-4.347-4.234-8.285-7.403-11.816-.077-.085-.15-.174-.218-.266-1.719-2.292-2.569-4.838-2.569-7.631 0-3.08 1.117-5.642 3.326-7.697 2.501-2.341 5.433-3.269 8.792-2.801 3.069.428 5.684 1.837 7.826 4.264 4.784 5.421 8.452 11.534 11.003 18.338 2.548 6.794 3.823 13.853 3.823 21.178 0 8.497-1.627 16.462-4.867 23.898-3.228 7.408-7.623 13.888-13.179 19.444-5.562 5.562-12.05 9.935-19.466 13.114-7.429 3.183-15.386 4.783-23.876 4.783zm-21.514 199.809v8.472c1.926 8.405 9.456 14.683 18.442 14.683 8.985 0 16.516-6.278 18.442-14.683v-8.472c-1.926-8.405-9.457-14.682-18.442-14.682-8.986 0-16.516 6.277-18.442 14.682zm-92.166-119.947c0 6.88 2.733 13.479 7.598 18.344 4.866 4.865 11.464 7.598 18.345 7.598h169.329c6.881 0 13.479-2.733 18.345-7.598 4.865-4.865 7.598-11.464 7.598-18.344v-.027c0-6.881-2.733-13.479-7.598-18.344-4.866-4.866-11.464-7.599-18.345-7.599h-169.329c-6.881 0-13.479 2.733-18.345 7.599-4.865 4.865-7.598 11.463-7.598 18.344zm30.405 14.869c-4.26 0-7.771-1.55-10.552-4.601-2.645-2.899-4.022-6.468-4.022-10.75 0-4.392 1.444-7.91 4.141-10.626 2.712-2.731 6.213-4.185 10.571-4.185 4.014 0 7.536 1.303 10.569 3.905 3.199 2.742 4.881 6.401 4.881 11.049 0 4.412-1.624 8.076-4.851 10.999-3.117 2.823-6.702 4.209-10.737 4.209z" transform="matrix(.533018 0 0 .533018 -16.6487 -12.828)"/></svg>