<svg clip-rule="evenodd" fill-rule="evenodd" stroke-linejoin="round" stroke-miterlimit="2" viewBox="0 0 250 250" xmlns="http://www.w3.org/2000/svg"><path fill="rgb(255, 255, 255)" d="m-972.074-864.575h2894.394c311.85 0 563.26 251.129 563.26 562.973v2170.942c0 311.84-251.41 562.97-563.26 562.97h-2894.394c-311.846 0-563.256-251.13-563.256-562.97v-2170.942c0-311.844 251.41-562.973 563.256-562.973zm-154.786 520.786-5.7 2213.129c0 88.94 71.55 160.2 160.486 160.2h2894.394c88.94 0 160.49-71.26 160.49-160.2l-5.7-2213.129c-18.53-68.127-80.39-118.011-154.79-118.011h-2894.394c-74.396 0-136.256 49.884-154.786 118.011zm1609.86 1368.969c-62.826 0-121.713-12.02-176.687-35.941-54.755-23.822-102.557-56.211-143.449-97.103s-73.281-88.694-97.103-143.449c-23.917-54.974-35.942-113.861-35.942-176.687 0-97.949 29.144-187.137 87.523-267.535 58.278-80.257 135.231-136.259 230.849-167.892 14.649-4.883 28.408-5.376 41.226-2.324 11.981 2.852 22.274 7.779 31.022 14.473l1.157.926c9.416 7.875 16.483 17.836 20.977 30.036 3.512 9.532 5.608 21.269 5.608 35.316l-.002.372c-.619 56.879 8.253 109.909 26.8 159.06 18.191 48.205 44.811 89.627 79.979 124.189l.424.424c33.956 34.563 74.464 60.888 121.457 79.079 48.066 18.606 101.893 28.067 161.426 28.696 12.524.034 24.518 2.475 35.987 7.307 12.959 5.459 23.544 13.644 31.843 24.437l.937 1.278c7.468 10.704 11.734 22.311 12.979 34.757 1.06 10.597.144 21.738-3.035 33.395l-.5 1.666c-30.965 94.335-86.131 170.466-165.44 228.435-79.4 58.036-168.739 87.085-268.036 87.085zm0-163.361c51.237 0 98.209-13.82 140.907-41.5 29.531-19.145 55.875-41.816 79.033-67.998-39.171-9.098-77.371-21.76-114.598-37.988-55.927-24.378-105.228-58.07-147.911-101.062-43.446-42.419-77.2-91.301-101.274-146.635-15.979-36.728-28.633-74.428-37.959-113.11-25.768 22.769-48.098 48.773-66.985 78.018-27.382 42.398-41.032 89.225-41.032 140.456 0 81.019 27.954 149.63 84.072 205.748 56.117 56.117 124.728 84.071 205.747 84.071zm233.163-534.346-58.44-25.174c-8.391-3.732-12.587-10.359-12.587-19.881 0-9.523 4.196-16.082 12.587-19.679l58.44-26.073 25.174-57.54c3.732-8.392 10.359-12.588 19.881-12.588 9.523 0 16.082 4.196 19.678 12.588l25.791 57.823 58.722 25.79c8.392 3.636 12.438 10.239 12.138 19.809-.3 9.571-4.645 16.154-13.037 19.751l-57.823 25.174-24.892 58.44c-3.731 8.391-10.508 12.737-20.33 13.036-9.822.3-16.532-3.746-20.128-12.137zm369.077 1073.087h-402.919c-36.758 0-67.065-12.46-91.194-36.69-24.253-24.33-36.506-54.08-36.506-89.37 0-35.39 12.321-65.07 36.652-89.17 24.091-23.87 54.344-36.18 91.048-36.18h370.969v-372.96c0-35.209 12.3-64.92 36.68-89.219 24.35-24.253 54.05-36.486 89.2-36.486 34.88 0 64.76 12.074 89.67 36.151 25.21 24.381 37.85 54.225 37.85 89.554v404.92c0 60.81-21.62 112.62-64.87 155.42-43.12 42.65-95.3 64.03-156.58 64.03zm-1441.7-1441.701c0-61.274 21.377-113.454 64.033-156.577 42.797-43.248 94.606-64.872 155.422-64.872h404.915c35.376 0 65.278 12.786 89.69 38.329 24.004 25.149 36.016 55.117 36.016 89.889 0 35.258-12.305 64.891-36.632 89.004-24.261 24.03-53.918 36.183-89.074 36.183h-372.959v370.965c0 36.758-12.457 67.064-36.69 91.194-24.327 24.253-54.085 36.506-89.374 36.506-35.384 0-65.062-12.321-89.162-36.652-23.878-24.091-36.185-54.344-36.185-91.048zm84.184 1624.861h1494.806c74.39 0 134.54 60.15 134.54 134.54 0 74.69-60.15 134.55-134.54 134.55h-1494.806c-74.398 0-134.544-59.86-134.544-134.55 0-74.39 60.146-134.54 134.544-134.54zm135.271-183.16c-60.772 0-112.535-21.4-155.301-64.15-42.751-42.77-64.154-94.53-64.154-155.3v-404.92c0-35.209 12.301-64.92 36.688-89.219 24.329-24.239 54.087-36.486 89.377-36.486 35.381 0 65.061 12.317 89.163 36.632 24.03 24.261 36.183 53.918 36.183 89.073v372.96h372.959c35.21 0 64.921 12.3 89.22 36.69 24.239 24.33 36.486 54.08 36.486 89.37 0 35.39-12.317 65.07-36.632 89.17-24.261 24.02-53.918 36.18-89.074 36.18zm1443.695-1441.701v402.921c0 36.935-12.94 67.422-38.33 91.665-25.15 24.023-55.11 36.035-89.89 36.035-35.26 0-64.89-12.307-89-36.652-23.88-24.091-36.18-54.344-36.18-91.048v-370.965h-370.969c-36.758 0-67.065-12.456-91.194-36.687-24.267-24.343-36.506-54.048-36.506-89.198 0-34.88 12.075-64.762 36.171-89.674 24.211-25.043 54.644-37.846 91.529-37.846h402.919c61.32 0 113.55 21.6 156.7 64.752 43.15 43.153 64.75 95.379 64.75 156.697z" transform="matrix(.0609507 0 0 .0609507 96.0408 77.2227)"/></svg>