<svg clip-rule="evenodd" fill-rule="evenodd" stroke-linejoin="round" stroke-miterlimit="2" viewBox="0 0 250 250" xmlns="http://www.w3.org/2000/svg"><path fill="rgb(255, 255, 255)" d="m149-175c-26.033 0-48.21-9.16-66.53-27.48-18.313-18.313-27.47-40.487-27.47-66.52v-502c0-26.307 9.157-48.717 27.47-67.23 18.32-18.513 40.497-27.77 66.53-27.77h662c26.307 0 48.717 9.257 67.23 27.77s27.77 40.923 27.77 67.23v502c0 26.033-9.257 48.207-27.77 66.52-18.513 18.32-40.923 27.48-67.23 27.48h-167v33c0 13.167-4.73 24.29-14.19 33.37-9.453 9.087-20.723 13.63-33.81 13.63h-232c-13.167 0-24.29-4.543-33.37-13.63-9.087-9.08-13.63-20.203-13.63-33.37v-33zm0-131.254c0 20.575 16.679 37.254 37.254 37.254h587.492c20.575 0 37.254-16.679 37.254-37.254v-427.492c0-20.575-16.679-37.254-37.254-37.254h-587.492c-20.575 0-37.254 16.679-37.254 37.254zm286.51-41.904-.002-.012-4.741-31.616c-8.106-2.555-16.327-6.108-24.655-10.675-8.714-4.779-16.1-10.176-22.183-16.154l-26.595 5.473c-8.259 2.215-16.362 1.775-24.307-1.312-8.048-3.124-14.348-8.421-18.884-15.912l-.194-.34-6.296-11.695c-4.496-7.558-6.209-15.86-5.077-24.919 1.151-9.208 5.173-16.886 12.058-23.037l23.751-22.165c-.941-4.251-1.39-9.801-1.153-16.674.217-6.293.723-11.281 1.409-14.977l-24.888-24.209c-6.152-5.307-9.939-12.447-11.142-21.533l-.001-.006c-1.153-8.759.537-16.958 5.08-24.586l6.136-12.405c.096-.195.2-.386.313-.572 4.495-7.443 10.505-12.534 17.925-15.389 7.144-2.746 14.805-3.424 22.991-1.936l.093.017 28.948 5.631c5.989-5.461 13.265-10.7 21.851-15.685 8.402-4.879 16.701-8.402 24.883-10.604l4.684-30.445c1.534-10.025 6.046-18.322 13.501-24.91 7.534-6.664 16.325-9.994 26.37-9.994h11.171c9.223 0 17.597 3.153 25.074 9.586 7.272 6.25 11.973 14.226 14.049 23.96l.075.401 4.989 31.418c7.508 2.25 15.525 5.748 24.035 10.535 8.878 4.994 16.296 10.247 22.281 15.717l28.113-5.602c7.478-1.495 15.204-.783 23.161 2.276 8.171 3.144 14.458 8.491 18.85 16.018l6.275 10.678.133.234c4.631 8.545 6.106 17.176 4.595 25.864-1.513 8.701-5.634 16.099-12.41 22.169l-23.416 22.634c1.27 4.231 1.922 9.729 1.681 16.548-.23 6.528-.934 11.827-1.978 15.919l23.336 21.772c7.035 6.289 11.286 13.977 12.796 23.039 1.52 9.121-.005 17.482-4.493 25.093l-6.268 12.538c-.089.178-.185.352-.287.522-4.741 7.903-11.138 12.946-19.04 15.316-7.239 2.172-14.839 2.564-22.801 1.116l-.134-.026-27.814-5.564c-6.144 6.005-13.714 11.429-22.744 16.226-8.472 4.501-16.512 8.008-24.111 10.54l-4.743 30.829c-.027.175-.06.35-.099.523-2.17 9.651-7.02 17.618-14.53 23.907-7.656 6.402-16.226 9.555-25.671 9.555h-10.368c-9.364 0-17.894-2.964-25.567-8.952-7.852-6.135-12.532-14.181-14.015-24.148zm45.164-108.479c16.668 0 30.792-5.918 42.368-17.768 11.623-11.899 17.43-26.202 17.43-42.907 0-16.218-5.923-30.244-17.698-42.106-11.768-11.859-25.914-17.802-42.448-17.802s-30.724 6.011-42.588 17.989c-11.876 11.989-17.849 26.144-17.849 42.494 0 16.329 5.972 30.411 17.854 42.271 11.908 11.881 26.216 17.829 42.931 17.829z" transform="matrix(.268431 0 0 .268431 -3.98086 253.981)"/></svg>