<svg clip-rule="evenodd" fill-rule="evenodd" stroke-linejoin="round" stroke-miterlimit="2" viewBox="0 0 250 250" xmlns="http://www.w3.org/2000/svg"><path fill="rgb(255, 255, 255)" d="m128.84 108.286c-2.467 0-4.552-.851-6.255-2.554-1.685-1.702-2.554-3.77-2.554-6.237v-31.587c0-2.449.852-4.552 2.537-6.289 1.703-1.772 3.787-2.658 6.272-2.658h51.602c2.449 0 4.552.868 6.307 2.623 1.754 1.755 2.64 3.857 2.64 6.324v31.587c0 2.467-.886 4.552-2.658 6.272-1.755 1.685-3.857 2.519-6.289 2.519zm-59.42 0c-2.467 0-4.552-.851-6.237-2.554-1.703-1.702-2.572-3.77-2.572-6.237v-31.587c0-2.449.851-4.552 2.537-6.289 1.702-1.772 3.805-2.658 6.272-2.658h34.453c2.467 0 4.552.886 6.272 2.658 1.686 1.737 2.52 3.84 2.52 6.289v31.587c0 2.467-.852 4.535-2.554 6.237-1.703 1.703-3.771 2.554-6.238 2.554zm0 56.571c-2.467 0-4.552-.869-6.237-2.571-1.703-1.703-2.572-3.771-2.572-6.238v-31.586c0-2.467.869-4.552 2.572-6.255 1.685-1.685 3.77-2.554 6.237-2.554h51.741c2.467 0 4.552.869 6.254 2.554 1.686 1.703 2.554 3.788 2.554 6.255v31.586c0 2.467-.868 4.535-2.554 6.238-1.702 1.702-3.787 2.571-6.254 2.571zm68.211-77.072c0 1.598 1.303 2.901 2.902 2.901h28.337c1.616 0 2.902-1.303 2.902-2.901v-8.323c0-1.598-1.286-2.901-2.902-2.901h-28.337c-1.599 0-2.902 1.303-2.902 2.901zm-59.559 0c0 1.598 1.303 2.901 2.902 2.901h11.189c1.598 0 2.901-1.303 2.901-2.901v-8.323c0-1.598-1.303-2.901-2.901-2.901h-11.189c-1.599 0-2.902 1.303-2.902 2.901zm0 56.709c0 1.599 1.303 2.902 2.902 2.902h28.494c1.598 0 2.901-1.303 2.901-2.902v-8.339c0-.765-.313-1.495-.851-2.051-.556-.538-1.286-.851-2.05-.851h-28.494c-1.599 0-2.902 1.303-2.902 2.902zm65.762-11.102c-.799-1.129-.938-2.606-.347-3.874.66-1.425 1.442-2.798 2.345-4.066.817-1.147 2.154-1.772 3.544-1.633 1.321.121 2.971.26 4.083.365l1.251.121c.261-.191.522-.382.782-.556.07-.034.122-.069.191-.104.522-.347 1.078-.677 1.633-.955l.035-.018c.33-.174.678-.347 1.025-.486l2.242-4.865c.59-1.268 1.807-2.12 3.196-2.259 1.547-.139 3.128-.139 4.692 0 1.389.139 2.606.991 3.179 2.259.556 1.199 1.251 2.71 1.72 3.735l.521 1.13c.296.121.591.26.886.399.053.035.122.07.174.105.574.278 1.129.608 1.651.938l.034.017c.313.209.626.434.939.66l5.334-.486c1.372-.139 2.727.486 3.527 1.633.92 1.268 1.702 2.641 2.362 4.066.574 1.268.435 2.745-.364 3.874-.765 1.095-1.72 2.45-2.363 3.353l-.73 1.025c.052.313.069.643.087.956v.208c.052.643.052 1.269.017 1.912v.017c-.017.382-.052.765-.104 1.147l3.093 4.378c.799 1.129.938 2.606.364 3.875-.66 1.424-1.442 2.797-2.362 4.065-.8 1.147-2.155 1.772-3.527 1.633-1.321-.121-2.989-.26-4.101-.365l-1.233-.121c-.261.191-.522.382-.8.556-.052.035-.121.069-.173.121-.522.348-1.077.661-1.651.939l-.017.017c-.348.174-.695.347-1.043.504l-2.241 4.847c-.573 1.269-1.79 2.12-3.179 2.259-1.564.139-3.145.139-4.692 0-1.389-.139-2.606-.99-3.196-2.259-.556-1.199-1.251-2.71-1.72-3.718l-.522-1.129c-.295-.139-.59-.278-.868-.417-.07-.035-.122-.07-.192-.104-.555-.278-1.111-.591-1.65-.939l-.017-.017c-.331-.208-.643-.434-.939-.66l-5.334.504c-1.39.121-2.745-.504-3.544-1.651-.903-1.268-1.685-2.641-2.345-4.065-.591-1.269-.452-2.746.347-3.875.765-1.095 1.737-2.45 2.38-3.353l.713-1.025c-.035-.313-.07-.643-.087-.956 0-.069 0-.139 0-.208-.035-.643-.035-1.269 0-1.912v-.017c.017-.382.052-.764.087-1.147zm-107.043-108.867h176.419c19.007 0 34.331 15.306 34.331 34.314v132.323c0 19.007-15.324 34.314-34.331 34.314h-176.419c-19.008 0-34.332-15.307-34.332-34.314v-132.323c0-19.008 15.324-34.314 34.332-34.314zm-9.434 31.743-.348 134.894c0 5.42 4.361 9.764 9.782 9.764h176.419c5.42 0 9.781-4.344 9.781-9.764l-.347-134.894c-1.129-4.153-4.9-7.193-9.434-7.193h-176.419c-4.535 0-8.305 3.04-9.434 7.193zm52.088 117.485h91.111c4.534 0 8.2 3.666 8.2 8.2 0 4.552-3.666 8.201-8.2 8.201h-91.111c-4.535 0-8.201-3.649-8.201-8.201 0-4.534 3.666-8.2 8.201-8.2z"/></svg>