<svg clip-rule="evenodd" fill-rule="evenodd" stroke-linejoin="round" stroke-miterlimit="2" viewBox="0 0 250 250" xmlns="http://www.w3.org/2000/svg"><path fill="rgb(255, 255, 255)" d="m142.388 172.359c-4.618 0-8.575-1.649-11.869-4.954-3.292-3.305-4.933-7.256-4.933-11.85 0-.58.057-1.313.18-2.195.021-.144.042-.287.067-.429l-24.054-14.015c-1.113.946-2.361 1.745-3.742 2.4-2.113 1-4.289 1.495-6.528 1.495-4.683 0-8.664-1.651-11.941-4.948-3.28-3.296-4.916-7.252-4.916-11.867 0-4.617 1.637-8.571 4.917-11.863 3.278-3.292 7.257-4.94 11.94-4.94 2.217 0 4.331.435 6.34 1.301 1.375.593 2.664 1.369 3.869 2.332l24.084-13.853-.035-.219c-.122-.853-.181-1.634-.181-2.34 0-4.585 1.643-8.531 4.942-11.829 3.298-3.295 7.256-4.941 11.873-4.941 4.618 0 8.575 1.647 11.869 4.944 3.291 3.298 4.934 7.256 4.934 11.872s-1.637 8.571-4.917 11.863c-3.277 3.292-7.256 4.941-11.939 4.941-2.158 0-4.218-.321-6.181-.952-1.473-.475-2.79-1.191-3.947-2.151l-24.119 13.099c.022.183.042.37.057.561.076.92.113 1.655.113 2.205 0 .587-.038 1.237-.121 1.951-.01.094-.023.188-.036.283l24.238 13.526c1.061-.797 2.241-1.445 3.542-1.944 1.892-.725 4.041-1.102 6.454-1.102 4.683 0 8.662 1.651 11.941 4.948s4.915 7.252 4.915 11.867c0 4.617-1.646 8.577-4.943 11.869-3.298 3.292-7.256 4.935-11.873 4.935zm-50.922-40.778c1.581 0 2.906-.535 3.974-1.606 1.066-1.069 1.601-2.394 1.601-3.978 0-1.58-.536-2.905-1.606-3.974-1.069-1.066-2.395-1.6-3.977-1.6s-2.906.535-3.974 1.605c-1.068 1.069-1.601 2.395-1.601 3.979 0 1.58.535 2.905 1.606 3.973 1.069 1.067 2.394 1.601 3.977 1.601zm50.932-29.548c1.583 0 2.907-.535 3.974-1.606 1.068-1.068 1.602-2.394 1.602-3.977 0-1.58-.535-2.906-1.605-3.974-1.071-1.067-2.395-1.601-3.978-1.601-1.581 0-2.907.535-3.974 1.606-1.066 1.069-1.601 2.394-1.601 3.978 0 1.58.537 2.905 1.605 3.973 1.07 1.067 2.396 1.601 3.977 1.601zm0 59.095c1.583 0 2.907-.535 3.974-1.605 1.068-1.07 1.602-2.395 1.602-3.979 0-1.58-.535-2.904-1.605-3.973-1.071-1.067-2.395-1.601-3.978-1.601-1.581 0-2.907.535-3.974 1.606-1.066 1.069-1.601 2.395-1.601 3.978 0 1.58.537 2.905 1.605 3.973 1.07 1.067 2.396 1.601 3.977 1.601zm-122.576-66.727c-3.792-5.368-4.427-12.347-1.679-18.316 3.093-6.715 6.801-13.13 11.076-19.161 3.798-5.36 10.152-8.297 16.692-7.702 6.227.566 14.038 1.277 19.279 1.756l5.833.535c1.225-.9 2.472-1.77 3.741-2.607.284-.161.563-.331.836-.511 2.496-1.645 5.086-3.141 7.744-4.505l.122-.062c1.602-.819 3.23-1.593 4.881-2.317l10.564-22.897c2.752-5.967 8.479-10.007 15.022-10.612 7.363-.681 14.77-.673 22.133.012 6.539.608 12.26 4.642 15.015 10.604 2.623 5.676 5.913 12.796 8.12 17.576l2.452 5.317c1.394.61 2.77 1.256 4.128 1.936.281.165.568.322.862.47 2.671 1.337 5.261 2.833 7.772 4.453l.115.073c1.511.98 2.996 2.001 4.447 3.07l25.111-2.301c6.543-.599 12.907 2.341 16.701 7.704 4.271 6.036 7.97 12.457 11.058 19.173 2.741 5.968 2.108 12.939-1.677 18.307-3.604 5.109-8.125 11.518-11.161 15.82l-3.378 4.783c.167 1.511.296 3.024.388 4.542-.004.325.005.653.022.98.177 2.984.177 5.974.03 8.96l-.007.135c-.091 1.799-.235 3.594-.433 5.385l14.547 20.598c3.792 5.368 4.427 12.347 1.679 18.316-3.093 6.716-6.801 13.13-11.076 19.162-3.798 5.359-10.152 8.296-16.692 7.701-6.227-.566-14.038-1.277-19.279-1.756l-5.833-.534c-1.225.899-2.472 1.769-3.741 2.606-.284.161-.563.331-.836.511-2.496 1.645-5.086 3.141-7.744 4.505l-.122.062c-1.602.819-3.23 1.593-4.881 2.317l-10.564 22.898c-2.752 5.966-8.479 10.007-15.022 10.611-7.363.681-14.77.673-22.133-.011-6.539-.609-12.26-4.643-15.015-10.605-2.623-5.676-5.913-12.796-8.12-17.576l-2.452-5.317c-1.394-.61-2.77-1.256-4.128-1.936-.281-.165-.568-.322-.862-.47-2.671-1.337-5.261-2.833-7.772-4.453l-.115-.073c-1.511-.98-2.996-2.001-4.447-3.069l-25.111 2.3c-6.543.599-12.907-2.341-16.701-7.704-4.271-6.036-7.97-12.457-11.058-19.173-2.741-5.968-2.108-12.939 1.677-18.307 3.604-5.109 8.125-11.518 11.161-15.82l3.378-4.783c-.167-1.511-.296-3.024-.388-4.542.003-.325-.005-.653-.022-.98-.177-2.984-.177-5.974-.03-8.96l.007-.135c.091-1.799.235-3.594.433-5.385zm94.479 115.826c.425 3.605 3.482 6.322 7.113 6.322h6.982c3.584 0 6.618-2.651 7.099-6.203l2.276-16.857c.604-4.455 3.672-8.185 7.926-9.636 3.8-1.269 7.481-2.903 11.052-4.862 3.574-1.961 6.895-4.281 9.963-6.962 3.427-3.018 8.293-3.785 12.484-1.965 4.918 2.059 11.291 4.825 15.916 6.832 3.44 1.493 7.448.081 9.193-3.239l2.59-4.929c1.653-3.147.749-7.03-2.125-9.123l-14.247-10.375c-3.685-2.684-5.505-7.243-4.68-11.728.159-.856.311-1.709.456-2.561.553-3.222.829-6.489.829-9.803s-.231-6.583-.69-9.805c-.128-.896-.275-1.797-.438-2.702-.796-4.481 1.047-9.024 4.74-11.684 4.375-3.161 10.114-7.295 14.194-10.235 2.925-2.106 3.829-6.059 2.11-9.227l-2.692-4.964c-1.775-3.271-5.762-4.639-9.172-3.145l-15.364 6.731c-4.366 1.912-9.45 1.025-12.911-2.252-2.897-2.808-6.111-5.257-9.603-7.399-3.492-2.139-7.156-3.762-10.992-4.868-4.534-1.28-7.862-5.146-8.457-9.818-.749-4.974-1.542-11.215-2.125-15.784-.454-3.577-3.499-6.259-7.105-6.259h-7.209c-3.631 0-6.688 2.717-7.113 6.323l-1.883 15.939c-.552 4.663-3.803 8.56-8.29 9.942-3.947 1.153-7.709 2.825-11.311 4.941-3.606 2.117-6.945 4.538-10.017 7.261-3.456 3.092-8.402 3.874-12.644 1.998-4.772-2.049-10.878-4.749-15.343-6.724-3.416-1.511-7.417-.146-9.196 3.135l-2.69 4.962c-1.714 3.16-.82 7.102 2.09 9.212l13.877 10.065c3.687 2.675 5.515 7.223 4.708 11.705-.166.903-.323 1.807-.473 2.71-.552 3.314-.829 6.628-.829 9.942s.277 6.673.829 10.08c.142.879.291 1.75.446 2.612.799 4.476-1.029 9.015-4.711 11.683-4.258 3.092-9.847 7.146-13.847 10.047-2.91 2.11-3.804 6.052-2.09 9.213l2.69 4.961c1.779 3.281 5.78 4.646 9.196 3.135l15.562-6.883c4.16-1.84 9.005-1.137 12.473 1.807 3.156 2.717 6.582 5.104 10.245 7.198 3.648 2.085 7.425 3.806 11.329 5.161 4.296 1.471 7.371 5.276 7.904 9.787.645 5.045 1.415 11.551 1.975 16.288z"/></svg>