<svg clip-rule="evenodd" fill-rule="evenodd" stroke-linejoin="round" stroke-miterlimit="2" viewBox="0 0 250 250" xmlns="http://www.w3.org/2000/svg"><path fill="rgb(255, 255, 255)" d="m141.017 198.24c1.844 1.847 3.327 4.044 4.391 6.467h55.73c2.372 0 4.647.942 6.323 2.619 1.678 1.677 2.62 3.952 2.62 6.324 0 2.373-.942 4.647-2.62 6.324-1.676 1.677-3.951 2.619-6.323 2.619h-55.73c-3.448 7.849-11.293 13.335-20.408 13.335s-16.959-5.486-20.407-13.335h-55.73c-2.372 0-4.647-.942-6.324-2.619s-2.619-3.951-2.619-6.324c0-2.372.942-4.647 2.619-6.324s3.952-2.619 6.324-2.619h55.73c1.063-2.422 2.546-4.619 4.356-6.5.184-.192.347-.418.491-.677-2.185-1.466-3.971-3.52-5.113-5.992-2.08-4.499-4.688-10.143-6.436-13.932l-1.3-2.816c-5.749-2.463-11.011-5.528-15.786-9.196l-18.495 1.693c-5.184.475-10.232-1.855-13.237-6.107-3.388-4.784-6.318-9.873-8.766-15.198-2.175-4.731-1.676-10.256 1.331-14.51 2.853-4.05 6.435-9.13 8.84-12.54l2.595-3.664c-.178-1.943-.28-3.908-.305-5.893-.066-1.904-.049-3.81.039-5.713l.008-.108c.077-1.425.186-2.849.348-4.269l-11.534-16.327c-3.007-4.253-3.506-9.786-1.329-14.517 2.447-5.325 5.394-10.408 8.781-15.19 3.006-4.248 8.045-6.576 13.228-6.104 4.936.449 11.127 1.012 15.283 1.393l4.623.422c.971-.713 1.959-1.403 2.965-2.066.224-.127.445-.262.664-.405 1.977-1.303 4.03-2.49 6.137-3.571l.096-.049c1.271-.65 2.561-1.263 3.869-1.837l8.374-18.15c2.181-4.732 6.721-7.933 11.908-8.407 5.836-.542 11.708-.542 17.543.008 5.184.483 9.718 3.675 11.902 8.402 2.08 4.5 4.688 10.143 6.437 13.933l1.944 4.214c1.104.484 2.194.996 3.272 1.535.222.131.45.255.683.372 2.117 1.06 4.17 2.247 6.161 3.531l.09.058c1.199.775 2.375 1.587 3.525 2.432l19.905-1.823c5.186-.475 10.231 1.855 13.238 6.107 3.385 4.784 6.318 9.873 8.766 15.198 2.173 4.731 1.671 10.256-1.329 14.51-2.858 4.05-6.441 9.13-8.847 12.54l-2.678 3.791c.133 1.198.234 2.398.306 3.6-.002.259.005.518.019.778.124 2.106.138 4.218.058 6.326-.035 1.78-.132 3.541-.29 5.284l11.438 16.195c3.005 4.254 3.509 9.786 1.33 14.517-2.452 5.325-5.391 10.408-8.78 15.19-3.009 4.247-8.046 6.575-13.23 6.103-4.936-.448-11.127-1.011-15.283-1.391l-3.216-.294c-4.769 3.658-10.026 6.718-15.774 9.178l-7.738 16.771c-1.147 2.488-2.948 4.554-5.152 6.024.143.257.306.483.489.674zm24.521-49.354c11.117-11.065 16.674-24.551 16.674-40.455 0-16.011-5.557-29.577-16.676-40.696-11.117-11.117-24.629-16.676-40.536-16.676-15.905 0-29.417 5.559-40.536 16.676-11.119 11.119-16.676 24.685-16.676 40.696 0 15.904 5.557 29.39 16.674 40.455 10.29 10.241 22.63 15.741 37.018 16.505 1.346-.01 2.717.021 4.082.09 15.663-.128 28.988-5.659 39.976-16.595zm-49.482 62.709v4.11c.935 4.075 4.586 7.12 8.944 7.12s8.01-3.045 8.944-7.12v-4.11c-.934-4.076-4.586-7.12-8.944-7.12s-8.009 3.044-8.944 7.12zm-22.816-71.494c-8.637-8.693-12.956-19.249-12.956-31.67 0-4.564.599-8.923 1.793-13.077 1.198-4.17 3-7.977 5.403-11.421 1.563-2.282 3.421-3.472 5.523-3.654 2.055-.175 3.845.162 5.375.989l.044.025c1.558.963 2.669 2.364 3.324 4.212.676 1.91.414 3.795-.822 5.649l-.036.05c-1.892 2.447-3.294 5.093-4.207 7.939-.916 2.861-1.371 5.957-1.371 9.288 0 8.311 2.873 15.338 8.625 21.079 5.752 5.743 12.781 8.612 21.086 8.612s15.327-2.869 21.064-8.611c5.74-5.742 8.605-12.769 8.605-21.08 0-3.283-.491-6.382-1.474-9.298-.986-2.919-2.36-5.625-4.123-8.114-1.355-1.852-1.678-3.781-1.002-5.784.658-1.949 1.837-3.387 3.522-4.323l.021-.012c1.534-.798 3.328-1.093 5.387-.857 2.097.239 3.956 1.515 5.514 3.911l.002.005c2.277 3.551 4.07 7.371 5.376 11.462 1.308 4.101 1.963 8.436 1.963 13.01 0 12.422-4.354 22.98-13.056 31.673-8.703 8.694-19.316 13.043-31.839 13.043-12.525 0-23.104-4.35-31.741-13.046zm37.708-74.111c1.627 1.622 2.445 3.608 2.445 5.958v28.803c0 2.462-.811 4.497-2.412 6.113-1.609 1.623-3.591 2.44-5.952 2.44-2.359 0-4.35-.814-5.976-2.436-1.625-1.617-2.446-3.653-2.446-6.117v-28.803c0-2.348.807-4.333 2.413-5.954 1.608-1.623 3.59-2.438 5.951-2.438 2.359 0 4.35.814 5.977 2.434z"/></svg>