<svg clip-rule="evenodd" fill-rule="evenodd" stroke-linejoin="round" stroke-miterlimit="2" viewBox="0 0 250 250" xmlns="http://www.w3.org/2000/svg"><path fill="rgb(255, 255, 255)" d="m311.275 360.362c-5.617-.003-10.731 3.233-13.134 8.309-2.349 4.962-1.697 10.812 1.653 15.126.853.764 1.615 1.609 2.409 2.438 3.459 3.477 6.363 7.49 8.633 11.884h111.908c6.157 0 12.06 2.445 16.413 6.798 4.354 4.353 6.799 10.26 6.799 16.416 0 6.155-2.445 12.062-6.799 16.415-4.353 4.353-10.256 6.798-16.413 6.798l-111.906-.002c-8.427 16.327-25.464 27.498-45.089 27.498s-36.662-11.171-45.089-27.496h-111.906c-6.157 0-12.06-2.445-16.414-6.798-4.353-4.353-6.799-10.26-6.799-16.415 0-6.156 2.446-12.063 6.799-16.416 4.354-4.353 10.257-6.798 16.414-6.798l111.904.003c2.267-4.392 5.158-8.412 8.546-11.934.655-.683 1.272-1.392 1.852-2.122l.058-.071c3.526-4.271 4.27-10.195 1.909-15.206-2.361-5.01-7.402-8.208-12.942-8.208h-.039c-26.755-.219-69.673-.219-69.673-.219-11.643 0-21.561-4.1-29.754-12.29-8.19-8.193-12.289-18.11-12.289-29.753v-230.76c0-11.745 4.095-21.748 12.271-30.013 8.198-8.284 18.122-12.427 29.772-12.427h230.759c11.752 0 21.761 4.139 30.031 12.409s12.409 18.279 12.409 30.031v230.76c0 11.649-4.142 21.573-12.427 29.771-8.265 8.176-18.268 12.272-30.013 12.272zm65.081-157.413v-94.22c0-6.88-2.733-13.479-7.598-18.344-4.866-4.865-11.464-7.599-18.345-7.599h-169.329c-6.881 0-13.479 2.734-18.345 7.599-4.865 4.865-7.598 11.464-7.598 18.344v94.22c0 14.001 11.35 25.351 25.351 25.351h170.514c14 0 25.35-11.35 25.35-25.351zm-162.969 14.184c-5.441 0-10.075-1.917-13.904-5.746-3.827-3.828-5.744-8.461-5.744-13.902v-84.058c0-5.481 1.914-10.148 5.73-14.006 3.832-3.873 8.472-5.809 13.918-5.809h110.849c5.486 0 10.159 1.933 14.021 5.794 3.861 3.862 5.794 8.535 5.794 14.021v84.058c0 5.446-1.936 10.085-5.809 13.917-3.858 3.817-8.525 5.731-14.006 5.731zm3.909-28.093c0 1.203.478 2.357 1.329 3.207.85.851 2.004 1.329 3.207 1.329h93.959c1.203 0 2.357-.478 3.207-1.329.851-.85 1.329-2.004 1.329-3.207v-46.699c0-1.676-.924-3.216-2.403-4.004-1.48-.788-3.273-.696-4.664.239l-37.898 25.477c-.069.046-.139.091-.211.133-1.036.604-2.015 1.047-2.929 1.347-1.058.347-2.194.529-3.411.529-1.216 0-2.352-.182-3.41-.529-.914-.3-1.893-.743-2.929-1.347-.072-.042-.142-.087-.211-.133l-37.898-25.477c-1.391-.935-3.184-1.027-4.664-.239-1.479.788-2.403 2.328-2.403 4.004zm47.75-46.329c2.282 1.525 5.257 1.527 7.541.005l31.32-20.88c.901-.601 1.302-1.72.989-2.756-.314-1.035-1.269-1.744-2.351-1.744h-67.353c-1.082 0-2.036.708-2.35 1.743s.086 2.154.985 2.755zm-109.905 154.438c0 6.88 2.733 13.479 7.598 18.344 4.866 4.865 11.464 7.598 18.345 7.598h169.329c6.881 0 13.479-2.733 18.345-7.598 4.865-4.865 7.598-11.464 7.598-18.344v-.027c0-6.881-2.733-13.479-7.598-18.344-4.866-4.866-11.464-7.599-18.345-7.599h-169.329c-6.881 0-13.479 2.733-18.345 7.599-4.865 4.865-7.598 11.463-7.598 18.344zm30.405 14.869c-4.26 0-7.771-1.55-10.552-4.601-2.645-2.899-4.022-6.468-4.022-10.75 0-4.392 1.444-7.91 4.141-10.626 2.712-2.731 6.213-4.185 10.571-4.185 4.014 0 7.536 1.303 10.569 3.905 3.199 2.742 4.881 6.401 4.881 11.049 0 4.412-1.624 8.076-4.851 10.999-3.117 2.823-6.702 4.209-10.737 4.209zm61.761 105.078v8.472c1.926 8.405 9.456 14.683 18.442 14.683 8.985 0 16.516-6.278 18.442-14.683v-8.472c-1.926-8.405-9.457-14.682-18.442-14.682-8.986 0-16.516 6.277-18.442 14.682z" transform="matrix(.533018 0 0 .533018 -16.6487 -12.828)"/></svg>