<svg clip-rule="evenodd" fill-rule="evenodd" stroke-linejoin="round" stroke-miterlimit="2" viewBox="0 0 250 250" xmlns="http://www.w3.org/2000/svg"><path fill="rgb(255, 255, 255)" d="m29.532 247.539c-7.497 0-13.884-2.637-19.16-7.911-5.274-5.276-7.911-11.663-7.911-19.16v-133.051c0-7.576 2.637-14.03 7.911-19.361 5.276-5.332 11.663-7.998 19.16-7.998h62.205v-35.134c0-6.528 2.053-11.903 6.157-16.127 4.107-4.224 9.63-6.336 16.568-6.336h21.219c6.607 0 12.022 2.112 16.246 6.336s6.335 9.599 6.335 16.127v35.134h61.918c7.576 0 14.03 2.666 19.361 7.998 5.332 5.331 7.998 11.785 7.998 19.361v133.051c0 7.497-2.666 13.884-7.998 19.16-5.331 5.274-11.785 7.911-19.361 7.911zm87.26-167.464c0 4.532 3.674 8.206 8.206 8.206h.004c4.532 0 8.205-3.674 8.205-8.206v-44.353c0-4.532-3.673-8.206-8.205-8.206h-.004c-4.532 0-8.206 3.674-8.206 8.206zm-87.26 131.004c0 5.185 4.204 9.389 9.389 9.389h171.87c5.185 0 9.389-4.204 9.389-9.389v-114.272c0-5.186-4.204-9.39-9.389-9.39h-53.105v8.64c-.768 5.76-3.407 10.08-7.919 12.959-4.512 2.88-9.207 4.32-14.086 4.32h-21.363c-5.07 0-9.909-1.488-14.517-4.464-4.608-2.975-7.2-7.247-7.776-12.815v-8.64h-53.104c-5.185 0-9.389 4.204-9.389 9.39zm15.685-19.274c0-4.303 1.102-8.122 3.254-11.469 2.271-3.532 5.314-5.91 9.099-7.171 5.356-1.785 10.167-3.121 14.431-4.014 4.43-.927 8.603-1.384 12.518-1.384 3.521 0 7.146.36 10.875 1.085 3.589.698 8.577 2.132 14.958 4.325l.047.017c3.528 1.26 6.459 3.614 8.727 7.142 2.152 3.347 3.254 7.166 3.254 11.469v4.032c0 2.301-1.866 4.167-4.167 4.167h-68.829c-2.301 0-4.167-1.866-4.167-4.167zm39.302-28.496c-5.477 0-10.129-1.923-13.962-5.756-3.834-3.834-5.756-8.486-5.756-13.962s1.922-10.128 5.756-13.962c3.833-3.833 8.485-5.756 13.962-5.756 5.476 0 10.128 1.923 13.961 5.756 3.834 3.834 5.756 8.486 5.756 13.962s-1.922 10.128-5.756 13.962c-3.833 3.833-8.485 5.756-13.961 5.756zm70.229 29.623c-2.707-1.159-5.194-2.602-7.462-4.327l-8.34.763c-2.429.223-4.79-.868-6.197-2.859-1.584-2.24-2.958-4.621-4.104-7.114-1.017-2.215-.782-4.801.623-6.793 1.337-1.896 3.014-4.273 4.141-5.869l.634-.897c-.198-1.526-.297-3.087-.297-4.683 0-1.541.092-3.049.276-4.525l-4.758-6.736c-1.406-1.991-1.642-4.581-.623-6.796 1.148-2.492 2.524-4.871 4.111-7.11 1.408-1.99 3.766-3.078 6.193-2.858 2.31.211 5.209.474 7.154.652l.984.09c2.311-1.78 4.854-3.274 7.632-4.48.158-.068.316-.135.474-.201l3.422-7.418c1.021-2.215 3.147-3.714 5.574-3.938 2.732-.253 5.481-.25 8.213.004 2.426.226 4.549 1.723 5.571 3.935.973 2.106 2.195 4.748 3.013 6.522l.448.971c.092.039.185.078.277.118 2.799 1.209 5.355 2.709 7.669 4.498l8.262-.757c2.429-.222 4.79.869 6.197 2.86 1.584 2.24 2.958 4.62 4.104 7.114 1.017 2.214.782 4.801-.623 6.792-1.337 1.896-3.014 4.274-4.141 5.87l-.735 1.04c.173 1.424.259 2.877.259 4.36 0 1.534-.092 3.036-.277 4.505l4.898 6.935c1.406 1.992 1.642 4.582.623 6.797-1.148 2.492-2.524 4.872-4.111 7.11-1.408 1.989-3.766 3.078-6.193 2.857-2.31-.21-5.209-.474-7.154-.651l-1.344-.123c-2.257 1.719-4.74 3.162-7.448 4.327-.049.021-.099.042-.149.063l-3.571 7.742c-1.021 2.213-3.147 3.713-5.574 3.938-2.732.252-5.481.249-8.213-.004-2.426-.226-4.549-1.723-5.571-3.936-.973-2.106-2.195-4.748-3.013-6.521l-.519-1.125c-.112-.047-.224-.094-.335-.142zm33.23-22.817h-5.71c-2.437 0-4.525-.868-6.261-2.61-1.733-1.739-2.598-3.831-2.598-6.274v-1.317h-11.467c-1.151 0-2.084-.933-2.084-2.083v-6.287c0-2.507.879-4.614 2.62-6.327 1.737-1.709 3.825-2.564 6.264-2.564h1.33c.078-1.274.517-2.714 1.387-4.299l.011-.022c-1.068-.178-2.154-.267-3.258-.267-2.469 0-4.795.328-6.978.986-.218.11-.448.202-.687.276-.528.155-1.047.334-1.558.538-2.622 1.118-5.018 2.759-7.186 4.923-3.267 3.261-5.344 7.041-6.234 11.338-.011.159-.03.318-.059.477-.061.335-.12.67-.176 1.005-.049.295-.092.59-.13.884-.059.574-.099 1.156-.119 1.747h5.894c4.333 0 8.021 1.524 11.066 4.569 3.046 3.046 4.569 6.721 4.569 11.025v3.39c0 1.151-.933 2.083-2.084 2.083l-8.03.001c1.239.704 2.517 1.296 3.837 1.774.379.119.762.231 1.15.337 2.15.586 4.382.878 6.697.878 5.83 0 10.859-1.851 15.082-5.57 2.849-2.51 4.93-5.422 6.241-8.735-.493.083-1.002.124-1.529.124z"/></svg>