<svg clip-rule="evenodd" fill-rule="evenodd" stroke-linejoin="round" stroke-miterlimit="2" viewBox="0 0 250 250" xmlns="http://www.w3.org/2000/svg"><path fill="rgb(255, 255, 255)" d="m2.923 2.217h10.154c1.094 0 1.976.881 1.976 1.975v7.616c0 1.094-.882 1.975-1.976 1.975h-10.154c-1.094 0-1.976-.881-1.976-1.975v-7.616c0-1.094.882-1.975 1.976-1.975zm10.699 4.065c-.001-.32-.261-.579-.581-.579h-10.082c-.32.001-.58.259-.581.58l-.018 5.525c0 .312.251.562.563.562h10.154c.312 0 .563-.25.563-.562zm-9.337 4.803h-.385c-.154 0-.288-.056-.4-.169-.113-.113-.169-.246-.169-.4 0-.161.053-.293.157-.396.104-.104.236-.157.396-.157h.401v-.242c0-.161.053-.293.157-.397s.236-.156.396-.156c.161 0 .293.052.397.156s.156.236.156.397v1.606c0 .16-.052.292-.156.396s-.236.157-.397.157c-.16 0-.292-.053-.396-.157s-.157-.236-.157-.396zm7.43-2.911v.226c0 .156-.052.29-.156.401-.104.112-.236.168-.397.168s-.294-.056-.398-.168c-.104-.111-.155-.245-.155-.401v-1.59c0-.156.051-.289.155-.4.104-.112.237-.169.398-.169s.293.057.397.169c.104.111.156.244.156.4v.226h.401c.161 0 .294.059.398.175.103.114.155.247.155.398s-.052.282-.155.395c-.105.113-.237.17-.398.17zm-7.815 0c-.154 0-.288-.056-.4-.168-.113-.113-.169-.246-.169-.397 0-.157.052-.291.155-.403.105-.113.237-.17.398-.17h5.337c.153 0 .283.058.392.174.108.114.161.247.161.399 0 .151-.054.283-.162.396s-.239.169-.391.169zm2.895 2.911c-.154 0-.288-.056-.401-.169-.112-.113-.168-.246-.168-.4 0-.161.056-.294.168-.398.111-.103.245-.155.401-.155h5.321c.16 0 .293.054.397.161s.156.237.156.392c0 .153-.052.286-.155.398-.105.114-.237.171-.398.171z" transform="matrix(17.3743 0 0 17.3743 -13.9941 -13.9941)"/></svg>