<svg clip-rule="evenodd" fill-rule="evenodd" stroke-linejoin="round" stroke-miterlimit="2" viewBox="0 0 250 250" xmlns="http://www.w3.org/2000/svg"><path fill="rgb(255, 255, 255)" d="m35.826 226.832c-6.105 0-11.239-2.084-15.408-6.251-4.166-4.166-6.251-9.302-6.251-15.409v-156.685c0-6.105 2.085-11.281 6.251-15.525 4.169-4.245 9.303-6.365 15.408-6.365h57.836c3.035 0 5.599 1.088 7.693 3.268 2.091 2.175 3.138 4.788 3.138 7.834 0 3.044-1.047 5.604-3.138 7.679-2.094 2.073-4.658 3.109-7.693 3.109h-57.836v156.685h106.686v-2.783c0-3.034 1.051-5.597 3.153-7.691 2.099-2.093 4.672-3.139 7.718-3.139s5.603 1.046 7.678 3.139c2.074 2.094 3.11 4.657 3.11 7.691v2.783c0 6.107-2.121 11.243-6.364 15.409-4.244 4.167-9.343 6.251-15.295 6.251zm29.956-47.006c-1.958 0-3.601-.666-4.923-1.999-1.327-1.333-1.989-2.984-1.989-4.955 0-1.969.662-3.607 1.989-4.913 1.322-1.304 2.965-1.958 4.923-1.958h50.693c1.959 0 3.601.666 4.926 2.001 1.324 1.332 1.987 2.983 1.987 4.954 0 1.968-.663 3.607-1.987 4.912-1.325 1.306-2.967 1.958-4.926 1.958zm0-27.651c-1.958 0-3.601-.665-4.923-1.999-1.327-1.333-1.989-2.984-1.989-4.954 0-1.969.662-3.608 1.989-4.914 1.322-1.304 2.965-1.958 4.923-1.958h32.258c1.959 0 3.602.667 4.927 2.001 1.324 1.332 1.986 2.983 1.986 4.954 0 1.969-.662 3.607-1.986 4.912-1.325 1.306-2.968 1.958-4.927 1.958zm20.278-30.644c-2.074 0-3.822-.711-5.242-2.132-1.421-1.422-2.132-3.169-2.132-5.243v-35.253c0-2.074.711-3.823 2.132-5.241 1.42-1.423 3.168-2.132 5.242-2.132h27.189l28.572-28.572c.768-.922 1.668-1.577 2.7-1.958 1.031-.386 2.051-.577 3.061-.577 2.266 0 4.214.767 5.848 2.305 1.63 1.534 2.447 3.456 2.447 5.759v96.084c0 2.305-.817 4.226-2.447 5.762-1.634 1.536-3.582 2.304-5.848 2.304-1.076 0-2.113-.192-3.112-.576-.998-.385-1.881-1.037-2.649-1.958l-28.572-28.572zm114.057-24.426c0 7.067-1.69 13.634-5.07 19.702-3.378 6.067-8.141 10.944-14.285 14.631-2.458 1.383-4.917 1.515-7.374.397-2.458-1.12-3.686-3.02-3.686-5.696v-59.679c0-2.613 1.189-4.492 3.571-5.645 2.381-1.151 4.801-.961 7.258.576 6.299 3.687 11.138 8.756 14.516 15.208 3.38 6.45 5.07 13.286 5.07 20.506zm-51.914 78.115c-1.152-2.495-.946-5.407.548-7.715 1.494-2.307 4.066-3.688 6.815-3.658 4.863.084 9.334.159 9.647.159h5.279c2.711 0 5.004-2.004 5.368-4.692l1.722-12.745c.455-3.368 2.775-6.188 5.992-7.285 2.874-.96 5.656-2.196 8.357-3.677 2.702-1.483 5.213-3.237 7.533-5.263 2.593-2.283 6.27-2.862 9.441-1.487 3.718 1.558 8.537 3.648 12.034 5.166 2.601 1.128 5.632.061 6.95-2.448l1.959-3.729c1.249-2.378.566-5.314-1.607-6.897l-10.772-7.844c-2.786-2.031-4.163-5.479-3.54-8.869.12-.648.236-1.293.346-1.936.417-2.435.626-4.907.626-7.413s-.174-4.978-.522-7.413c-.097-.679-.208-1.359-.332-2.044-.6-3.388.794-6.823 3.586-8.834 3.308-2.39 7.647-5.516 10.733-7.74 2.21-1.592 2.894-4.581 1.594-6.976l-2.034-3.753c-1.343-2.475-4.357-3.508-6.936-2.38l-11.617 5.091c-3.301 1.446-7.146.774-9.763-1.704-2.189-2.122-4.621-3.974-7.261-5.593-2.64-1.618-5.411-2.845-8.31-3.683-3.429-.971-5.946-3.887-6.396-7.426-.566-3.755-1.166-8.473-1.607-11.93-.344-2.706-2.645-4.734-5.372-4.734h-5.451c-.272 0-4.704.058-9.556.122-2.788.023-5.394-1.382-6.906-3.724-1.513-2.342-1.722-5.295-.555-7.827l.001-.002c2.081-4.507 6.412-7.56 11.36-8.021 5.566-.517 11.168-.509 16.734.008 4.945.461 9.27 3.514 11.354 8.021 1.983 4.291 4.472 9.67 6.14 13.288l1.854 4.024c1.053.461 2.095.945 3.122 1.462.212.122.429.242.651.355 2.02 1.01 3.978 2.141 5.877 3.368l.087.058c1.143.735 2.265 1.51 3.363 2.318l18.986-1.746c4.948-.452 9.76 1.778 12.629 5.833 3.229 4.564 6.026 9.416 8.361 14.496 2.073 4.511 1.594 9.783-1.268 13.841-2.726 3.864-6.143 8.709-8.439 11.961l-2.554 3.618c.126 1.143.223 2.287.292 3.435-.002.245.005.492.018.741.134 2.254.134 4.517.022 6.774l-.004.103c-.069 1.358-.179 2.716-.328 4.071l11 15.575c2.866 4.058 3.347 9.335 1.269 13.849-2.339 5.078-5.143 9.927-8.375 14.489-2.872 4.052-7.676 6.272-12.622 5.822-4.708-.428-10.614-.965-14.578-1.327l-4.409-.404c-.927.681-1.869 1.339-2.828 1.97-.216.123-.426.252-.634.388-1.887 1.243-3.845 2.374-5.855 3.405l-.092.047c-1.212.621-2.443 1.206-3.691 1.753l-7.987 17.314c-2.081 4.512-6.412 7.566-11.36 8.022-5.566.515-11.168.509-16.734-.007-4.945-.461-9.271-3.511-11.354-8.019z" transform="matrix(.905731 0 0 .905731 5.36769 19.5891)"/></svg>