<svg clip-rule="evenodd" fill-rule="evenodd" stroke-linejoin="round" stroke-miterlimit="2" viewBox="0 0 250 250" xmlns="http://www.w3.org/2000/svg"><path fill="rgb(255, 255, 255)" d="m114.462 176.62-13.341 13.343c-5.802 5.771-12.371 7.068-19.704 4.033-7.394-3.062-11.045-8.571-11.045-16.463v-128.825c0-7.599 2.68-14.078 7.953-19.438 5.359-5.392 11.81-8.071 19.379-8.071h98.984c7.629 0 14.107 2.679 19.468 8.04 5.39 5.36 8.071 11.84 8.071 19.469v100.581c0 7.568-2.712 14.018-8.1 19.35-5.36 5.301-11.841 7.981-19.439 7.981zm82.226-134.686h-98.984c-3.74 0-6.774 3.032-6.774 6.774v109.798c0 2.829 1.737 5.361 4.389 6.362 2.652.971 5.654.236 7.51-1.912l5.978-6.893h87.881c3.739 0 6.774-3.034 6.774-6.774v-100.581c0-3.742-3.035-6.774-6.774-6.774zm-165.655 140.17c-2.324-2.387-3.518-5.323-3.518-8.841v-51.075c0-3.743 1.26-6.743 3.518-9.034 2.258-2.292 5.259-3.551 9.002-3.551 3.775 0 6.809 1.292 9.101 3.68 2.322 2.389 3.516 5.356 3.516 8.874v51.073c0 3.744-1.259 6.746-3.516 9.036-2.259 2.291-5.229 3.548-9.003 3.548-3.775 0-6.777-1.29-9.1-3.71zm9.163 46.698c-4.097 0-7.518-1.453-10.293-4.259-2.742-2.808-4.13-6.195-4.13-10.197 0-4.067 1.42-7.485 4.162-10.229 2.775-2.774 6.196-4.161 10.261-4.161 4.13 0 7.552 1.45 10.23 4.289 2.647 2.775 3.969 6.165 3.969 10.134s-1.322 7.324-3.969 10.099c-2.71 2.84-6.1 4.324-10.23 4.324zm64.11-142.478c-1.507-2.135-1.758-4.911-.666-7.286 1.229-2.672 2.706-5.223 4.406-7.622 1.51-2.132 4.037-3.301 6.64-3.065 2.477.226 5.584.508 7.67.7l2.319.213c.488-.36.984-.704 1.487-1.038.114-.063.225-.131.335-.203.993-.655 2.022-1.249 3.08-1.793l.048-.024c.638-.326 1.284-.633 1.941-.922l4.203-9.109c1.093-2.373 3.372-3.98 5.976-4.22 2.929-.271 5.876-.269 8.804.004 2.601.242 4.877 1.846 5.974 4.219 1.042 2.257 2.351 5.089 3.229 6.992l.975 2.114c.554.244 1.102.499 1.643.77.112.066.226.129.342.187 1.063.533 2.092 1.127 3.094 1.77l.044.031c.602.388 1.191.796 1.769 1.222l9.988-.916c2.603-.238 5.136.929 6.644 3.064 1.7 2.402 3.173 4.955 4.4 7.628 1.091 2.373.838 5.146-.668 7.282-1.432 2.033-3.231 4.581-4.438 6.293l-1.345 1.902c.066.601.118 1.205.154 1.807-.001.131.003.26.008.39.071 1.187.071 2.378.014 3.565l-.003.053c-.037.716-.094 1.431-.173 2.144l5.788 8.192c1.508 2.136 1.758 4.912.666 7.286-1.229 2.671-2.706 5.224-4.405 7.623-1.51 2.131-4.039 3.3-6.64 3.064-2.477-.226-5.584-.508-7.671-.7l-2.319-.211c-.487.357-.983.703-1.487 1.036-.114.065-.225.131-.334.205-.994.652-2.023 1.247-3.08 1.79l-.048.024c-.639.327-1.286.634-1.943.924l-4.202 9.108c-1.093 2.374-3.373 3.98-5.976 4.22-2.928.272-5.875.268-8.804-.003-2.6-.244-4.877-1.848-5.973-4.218-1.043-2.26-2.352-5.092-3.23-6.993l-.976-2.114c-.554-.245-1.101-.5-1.641-.771-.113-.066-.227-.129-.344-.187-1.062-.533-2.091-1.128-3.093-1.771l-.043-.03c-.602-.389-1.193-.796-1.77-1.22l-9.988.914c-2.604.238-5.136-.93-6.645-3.065-1.698-2.4-3.171-4.955-4.398-7.626-1.091-2.374-.838-5.148.668-7.283 1.432-2.031 3.23-4.582 4.438-6.293l1.345-1.901c-.068-.601-.118-1.206-.156-1.809.001-.128-.001-.26-.008-.39-.071-1.185-.071-2.376-.013-3.563l.004-.054c.037-.716.094-1.431.173-2.143zm53.603 24.211c3.299-3.299 4.953-7.296 4.953-11.983 0-4.692-1.654-8.686-4.953-11.987-3.3-3.3-7.296-4.952-11.986-4.952-4.689 0-8.685 1.652-11.985 4.952-3.3 3.301-4.952 7.295-4.952 11.987 0 4.687 1.652 8.684 4.952 11.983 3.3 3.3 7.296 4.954 11.985 4.954 4.69 0 8.686-1.654 11.986-4.954z"/></svg>