<svg clip-rule="evenodd" fill-rule="evenodd" stroke-linejoin="round" stroke-miterlimit="2" viewBox="0 0 250 250" xmlns="http://www.w3.org/2000/svg"><path fill="rgb(255, 255, 255)" d="m311.275 360.362c-5.617-.003-10.731 3.233-13.134 8.309-2.349 4.962-1.697 10.812 1.653 15.126.853.764 1.615 1.609 2.409 2.438 3.459 3.477 6.363 7.49 8.633 11.884h111.908c6.157 0 12.06 2.445 16.413 6.798 4.354 4.353 6.799 10.26 6.799 16.416 0 6.155-2.445 12.062-6.799 16.415-4.353 4.353-10.256 6.798-16.413 6.798l-111.906-.002c-8.427 16.327-25.464 27.498-45.089 27.498s-36.662-11.171-45.089-27.496h-111.906c-6.157 0-12.06-2.445-16.414-6.798-4.353-4.353-6.799-10.26-6.799-16.415 0-6.156 2.446-12.063 6.799-16.416 4.354-4.353 10.257-6.798 16.414-6.798l111.904.003c2.267-4.392 5.158-8.412 8.546-11.934.655-.683 1.272-1.392 1.852-2.122l.058-.071c3.526-4.271 4.27-10.195 1.909-15.206-2.361-5.01-7.402-8.208-12.942-8.208h-.039c-26.755-.219-69.673-.219-69.673-.219-11.643 0-21.561-4.1-29.754-12.29-8.19-8.193-12.289-18.11-12.289-29.753v-230.76c0-11.745 4.095-21.748 12.271-30.013 8.198-8.284 18.122-12.427 29.772-12.427h230.759c11.752 0 21.761 4.139 30.031 12.409s12.409 18.279 12.409 30.031v230.76c0 11.649-4.142 21.573-12.427 29.771-8.265 8.176-18.268 12.272-30.013 12.272zm65.081-157.413v-94.22c0-6.88-2.733-13.479-7.598-18.344-4.866-4.865-11.464-7.599-18.345-7.599h-169.329c-6.881 0-13.479 2.734-18.345 7.599-4.865 4.865-7.598 11.464-7.598 18.344v94.22c0 14.001 11.35 25.351 25.351 25.351h170.514c14 0 25.35-11.35 25.35-25.351zm-110.621 13.738c-8.58 0-16.598-1.606-24.057-4.8-7.448-3.19-13.963-7.581-19.548-13.167-5.586-5.585-9.977-12.097-13.167-19.54-3.194-7.452-4.8-15.472-4.8-24.06s1.606-16.613 4.799-24.078c3.192-7.46 7.579-13.961 13.153-19.507 5.563-5.536 12.063-9.922 19.504-13.151 7.465-3.24 15.497-4.868 24.1-4.868 8.599 0 16.637 1.624 24.118 4.854 7.463 3.225 13.958 7.605 19.491 13.133 5.534 5.528 9.919 12.024 13.146 19.497 3.234 7.487 4.86 15.53 4.86 24.132 0 8.6-1.629 16.629-4.868 24.092-3.23 7.441-7.618 13.934-13.155 19.485-5.543 5.556-12.041 9.942-19.499 13.15-7.469 3.213-15.494 4.828-24.077 4.828zm37.595-45.58c-.779.113-1.581.17-2.406.17h-10.166c-4.395 0-8.16-1.565-11.29-4.707-3.124-3.135-4.683-6.907-4.683-11.31v-2.147h-20.219c-2.159 0-3.909-1.75-3.909-3.908v-11.194c0-4.52 1.585-8.318 4.724-11.407 3.131-3.081 6.896-4.623 11.293-4.623h2.182c.166-2.19.918-4.649 2.367-7.342-1.803-.286-3.634-.429-5.493-.429-11.418 0-21.112 3.965-29.075 11.913-7.522 7.507-11.482 16.566-11.897 27.171h10.288c7.77 0 14.383 2.733 19.843 8.193 5.463 5.463 8.194 12.053 8.194 19.771v6.037c0 2.158-1.75 3.908-3.909 3.908h-14.119v.175c2.762 1.291 5.681 2.355 8.754 3.193 3.81 1.04 7.768 1.557 11.872 1.557 10.329 0 19.24-3.278 26.721-9.869 4.955-4.365 8.599-9.415 10.928-15.152zm-148.189 126.042c0 6.88 2.733 13.479 7.598 18.344 4.866 4.865 11.464 7.598 18.345 7.598h169.329c6.881 0 13.479-2.733 18.345-7.598 4.865-4.865 7.598-11.464 7.598-18.344v-.027c0-6.881-2.733-13.479-7.598-18.344-4.866-4.866-11.464-7.599-18.345-7.599h-169.329c-6.881 0-13.479 2.733-18.345 7.599-4.865 4.865-7.598 11.463-7.598 18.344zm30.405 14.869c-4.26 0-7.771-1.55-10.552-4.601-2.645-2.899-4.022-6.468-4.022-10.75 0-4.392 1.444-7.91 4.141-10.626 2.712-2.731 6.213-4.185 10.571-4.185 4.014 0 7.536 1.303 10.569 3.905 3.199 2.742 4.881 6.401 4.881 11.049 0 4.412-1.624 8.076-4.851 10.999-3.117 2.823-6.702 4.209-10.737 4.209zm61.761 105.078v8.472c1.926 8.405 9.456 14.683 18.442 14.683 8.985 0 16.516-6.278 18.442-14.683v-8.472c-1.926-8.405-9.457-14.682-18.442-14.682-8.986 0-16.516 6.277-18.442 14.682z" transform="matrix(.533018 0 0 .533018 -16.6487 -12.828)"/></svg>