<svg clip-rule="evenodd" fill-rule="evenodd" stroke-linejoin="round" stroke-miterlimit="2" viewBox="0 0 250 250" xmlns="http://www.w3.org/2000/svg"><path fill="rgb(255, 255, 255)" d="m346.97-676c-26.607 0-49.087-9.19-67.44-27.57s-27.53-40.88-27.53-67.5 9.19-49.263 27.57-67.93 40.88-28 67.5-28 49.263 9.153 67.93 27.46 28 41.033 28 68.18c0 26.867-9.283 49.477-27.85 67.83s-41.293 27.53-68.18 27.53zm265.85 0c-26.547 0-49.153-9.2-67.82-27.6-18.667-18.407-28-40.933-28-67.58 0-27.213 9.283-49.987 27.85-68.32s41.293-27.5 68.18-27.5c26.607 0 49.253 9.293 67.94 27.88s28.03 41.34 28.03 68.26c0 26.64-9.393 49.11-28.18 67.41-18.793 18.3-41.46 27.45-68 27.45zm198 180c-27.213 0-49.987-9.293-68.32-27.88s-27.5-41.34-27.5-68.26c0-27.48 9.153-50.327 27.46-68.54s41.033-27.32 68.18-27.32c26.867 0 49.477 9.283 67.83 27.85s27.53 41.293 27.53 68.18-9.2 49.603-27.6 68.15c-18.407 18.547-40.933 27.82-67.58 27.82zm-574.805 184.847c-23.793-9.329-39.871-25.777-48.234-49.346-8.364-23.568-7.724-47.649 1.919-72.244 9.014-22.991 24.21-40.44 45.587-52.348 21.378-11.908 42.902-23.43 64.574-34.566 15.952-8.724 31.585-17.394 46.898-26.01s30.722-18.239 46.228-28.869c24.961-17.502 51.173-32.548 78.636-45.137 27.466-12.582 55.444-13.288 83.933-2.118s48.634 30.838 60.433 59.006c11.795 28.166 21.151 57.36 28.069 87.582 4.088 17.244 8.5 34.37 13.236 51.377 4.733 17.014 10.252 33.917 16.557 50.711 8.308 22.95 16.256 46.057 23.843 69.321 7.588 23.264 6.875 46.392-2.14 69.383-9.642 24.594-25.54 42.693-47.694 54.297-22.153 11.603-45.126 12.741-68.919 3.412-29.224-11.458-56.838-25.119-82.842-40.983-26.004-15.865-53.618-29.526-82.841-40.984-29.224-11.458-58.764-20.205-88.622-26.242-29.857-6.037-59.397-14.785-88.621-26.242zm196.859-176.991c-7.381-2.527-14.557-2.217-21.53.828-7.443 3.251-12.757 8.785-15.855 16.685l-31.891 81.34c-4.299 10.965-4.114 21.711.488 32.24 4.595 10.531 12.352 17.971 23.317 22.27l96.55 37.855c10.965 4.299 21.713 4.115 32.247-.485 10.527-4.598 17.964-12.355 22.264-23.32l31.891-81.34c3.097-7.899 2.962-15.568-.282-23.008l-.004-.009c-3.049-6.972-8.104-12.076-15.234-15.238l7.217-18.408c6.576-16.771 6.243-33.469-1.018-50.095-7.26-16.625-19.283-28.219-36.054-34.794-16.771-6.576-33.469-6.243-50.095 1.018-16.625 7.26-28.219 19.283-34.794 36.054zm36.004 14.08 7.205-18.376c2.521-6.43 7.054-10.86 13.578-13.309 6.859-2.575 13.669-2.549 20.43.102 6.759 2.65 11.771 7.26 15.05 13.813 3.119 6.238 3.437 12.567.919 18.989l-7.205 18.375z" transform="matrix(.298396 -.116993 .116993 .298396 31.9478 351.567)"/></svg>