<svg clip-rule="evenodd" fill-rule="evenodd" stroke-linejoin="round" stroke-miterlimit="2" viewBox="0 0 250 250" xmlns="http://www.w3.org/2000/svg"><path fill="rgb(255, 255, 255)" d="m2.923 2.217h10.154c1.094 0 1.976.881 1.976 1.975v7.616c0 1.094-.882 1.975-1.976 1.975h-10.154c-1.094 0-1.976-.881-1.976-1.975v-7.616c0-1.094.882-1.975 1.976-1.975zm-.543 1.827-.02 7.764c0 .312.251.562.563.562h10.154c.312 0 .563-.25.563-.562l-.02-7.764c-.065-.239-.282-.414-.543-.414h-10.154c-.261 0-.478.175-.543.414zm2.998 6.762h5.244c.261 0 .472.211.472.472 0 .262-.211.472-.472.472h-5.244c-.261 0-.472-.21-.472-.472 0-.261.211-.472.472-.472zm4.762-.643h-1.413c-.129 0-.235-.043-.32-.128-.085-.086-.128-.19-.128-.314s.043-.228.128-.313c.085-.083.191-.127.32-.127h1.301v-1.308c0-.123.043-.228.129-.313.085-.085.19-.128.313-.128.122 0 .227.042.314.127.089.085.133.19.133.314v1.421c0 .213-.076.395-.227.545-.152.149-.335.224-.55.224zm-4.287 0c-.214 0-.395-.075-.545-.225s-.225-.331-.225-.544v-1.421c0-.123.043-.228.128-.313.086-.085.19-.128.314-.128s.228.043.313.129c.084.085.127.189.127.312v1.308h1.308c.124 0 .228.044.313.129.085.086.128.19.128.314s-.043.228-.128.313c-.086.084-.19.126-.313.126zm3.151-3.431c-.141 0-.258-.048-.35-.14s-.14-.209-.14-.35.048-.258.14-.35.209-.14.35-.14.258.048.35.14c.093.092.14.209.14.35s-.047.258-.14.35c-.092.092-.209.14-.35.14zm1.913-1.626v1.413c0 .13-.045.237-.134.322-.088.084-.194.126-.316.126-.123 0-.227-.043-.312-.128-.084-.085-.127-.191-.127-.32v-1.301h-1.301c-.129 0-.235-.044-.32-.129s-.128-.189-.128-.313c0-.122.042-.227.127-.314.085-.088.191-.133.321-.133h1.413c.215 0 .399.076.55.227s.227.335.227.55zm-3.141 3.098.697-.894c.056-.08.132-.117.227-.113.089.004.161.04.216.108l.004.004.797 1.092c.002.002.003.004.005.007.06.095.065.19.02.285-.047.1-.129.152-.248.152h-2.96c-.121 0-.204-.052-.253-.151-.048-.096-.041-.194.028-.291l.002-.003.588-.784.003-.003c.055-.068.127-.104.216-.108.092-.004.169.031.231.108l.004.005zm-2.693-3.098c0-.215.075-.398.224-.55.15-.151.332-.227.546-.227h1.42c.124 0 .229.045.315.134.084.089.126.194.126.316 0 .123-.043.227-.128.312-.086.084-.19.127-.313.127h-1.308v1.301c0 .129-.044.236-.129.32-.085.085-.19.128-.314.128s-.228-.043-.312-.128-.127-.191-.127-.32z" transform="matrix(17.374 0 0 17.374 -13.9919 -13.9919)"/></svg>