<svg clip-rule="evenodd" fill-rule="evenodd" stroke-linejoin="round" stroke-miterlimit="2" viewBox="0 0 250 250" xmlns="http://www.w3.org/2000/svg"><path fill="rgb(255, 255, 255)" d="m189-189h304.98c13.087 0 24.357 4.56 33.81 13.68 9.46 9.113 14.19 20.28 14.19 33.5 0 13.213-4.73 24.32-14.19 33.32-9.453 9-20.723 13.5-33.81 13.5h-304.98c-26.033 0-48.21-9.157-66.53-27.47-18.313-18.32-27.47-40.497-27.47-66.53v-582c0-26.307 9.157-48.717 27.47-67.23 18.32-18.513 40.497-27.77 66.53-27.77h582c26.307 0 48.717 9.257 67.23 27.77s27.77 40.923 27.77 67.23v306.18c0 13.386-4.753 24.733-14.26 34.04-9.513 9.306-20.847 13.96-34 13.96-13.16 0-24.24-4.544-33.24-13.63-9-9.08-13.5-20.204-13.5-33.37v-307.18h-582zm111-92c-10.609 0-19.909-3.715-27.866-11.23-8.038-7.591-12.134-17.16-12.134-28.77 0-10.68 3.919-20.061 11.929-28.071s17.391-11.929 28.071-11.929 20.061 3.919 28.071 11.929 11.929 17.391 11.929 28.071c0 11.61-4.096 21.179-12.134 28.77-7.957 7.515-17.257 11.23-27.866 11.23zm0-159c-10.68 0-20.061-3.919-28.071-11.929s-11.929-17.391-11.929-28.071 3.919-20.061 11.929-28.071 17.391-11.929 28.071-11.929 20.061 3.919 28.071 11.929 11.929 17.391 11.929 28.071-3.919 20.061-11.929 28.071-17.391 11.929-28.071 11.929zm0-160c-10.609 0-19.909-3.715-27.866-11.23-8.038-7.591-12.134-17.16-12.134-28.77 0-10.68 3.919-20.061 11.929-28.071s17.391-11.929 28.071-11.929 20.061 3.919 28.071 11.929 11.929 17.391 11.929 28.071c0 11.61-4.096 21.179-12.134 28.77-7.957 7.515-17.257 11.23-27.866 11.23zm346 160h-201.03c-11.304 0-20.747-3.842-28.389-11.378-7.684-7.569-11.611-17.026-11.611-28.442 0-11.369 3.892-20.867 11.538-28.551 7.661-7.712 17.132-11.629 28.462-11.629h201.03c11.302 0 20.75 3.843 28.399 11.378 7.676 7.568 11.601 17.027 11.601 28.442 0 11.37-3.89 20.868-11.529 28.551-7.668 7.712-17.142 11.629-28.471 11.629zm0-160h-201.03c-11.304 0-20.747-3.842-28.389-11.378-7.724-7.608-11.611-16.915-11.611-27.942 0-10.834 3.762-20.291 11.344-28.349 7.708-8.208 17.255-12.331 28.656-12.331h201.03c11.375 0 20.9 4.051 28.6 12.081 7.609 7.945 11.4 17.363 11.4 28.239 0 10.982-3.851 20.329-11.529 28.051-7.668 7.712-17.142 11.629-28.471 11.629zm-241.03 279.68c0-10.834 3.762-20.291 11.344-28.349 7.708-8.208 17.255-12.331 28.656-12.331h53.288c11.376 0 20.901 4.051 28.6 12.081 7.648 7.985 11.4 17.252 11.4 27.739 0 11.37-3.89 20.868-11.528 28.551-7.669 7.712-17.143 11.629-28.472 11.629h-53.288c-11.304 0-20.747-3.842-28.389-11.378-7.724-7.608-11.611-16.915-11.611-27.942zm311.939 225.32c-41.577 0-76.676-14.336-105.296-43.008-28.62-28.667-42.93-63.792-42.93-105.374 0-41.577 14.336-76.794 43.008-105.65 28.667-28.857 63.792-43.285 105.374-43.285 41.577 0 76.794 14.511 105.65 43.533 28.857 29.022 43.285 64.208 43.285 105.558 0 41.577-14.511 76.676-43.533 105.296s-64.208 42.93-105.558 42.93zm.078-53.929c6.623 0 12.299-2.247 17.03-6.741 4.73-4.494 7.096-10.052 7.096-16.675v-65.992c0-6.812-2.318-12.536-6.954-17.172s-10.36-6.954-17.172-6.954c-6.623 0-12.182 2.318-16.676 6.954s-6.741 10.36-6.741 17.172v65.992c0 6.623 2.247 12.181 6.741 16.675s10.053 6.741 16.676 6.741zm0-141.917c6.623 0 12.299-2.247 17.03-6.741 4.73-4.494 7.096-10.053 7.096-16.675 0-6.623-2.318-12.3-6.954-17.031-4.636-4.73-10.36-7.095-17.172-7.095-6.623 0-12.182 2.318-16.676 6.954s-6.741 10.36-6.741 17.172c0 6.622 2.247 12.181 6.741 16.675s10.053 6.741 16.676 6.741z" transform="matrix(.293598 0 0 .293598 -16.0738 266.074)"/></svg>