<svg clip-rule="evenodd" fill-rule="evenodd" stroke-linejoin="round" stroke-miterlimit="2" viewBox="0 0 250 250" xmlns="http://www.w3.org/2000/svg"><path fill="rgb(255, 255, 255)" d="m95-149v-757c0-26.307 9.157-48.717 27.47-67.23 18.32-18.513 40.497-27.77 66.53-27.77h582c26.307 0 48.717 9.257 67.23 27.77s27.77 40.923 27.77 67.23v757c0 26.033-9.257 48.21-27.77 66.53-18.513 18.313-40.923 27.47-67.23 27.47h-582c-26.033 0-48.21-9.157-66.53-27.47-18.313-18.32-27.47-40.497-27.47-66.53zm676-176.923c0-9.303-3.696-18.225-10.274-24.803s-15.5-10.274-24.803-10.274h-511.846c-9.303 0-18.225 3.696-24.803 10.274s-10.274 15.5-10.274 24.803v141.846c0 9.303 3.696 18.225 10.274 24.803s15.5 10.274 24.803 10.274h511.846c9.303 0 18.225-3.696 24.803-10.274s10.274-15.5 10.274-24.803zm-258.11 116.923c-13 0-23.9-4.667-32.7-14-8.793-9.333-13.19-20.037-13.19-32.11 0-13 4.433-23.9 13.3-32.7 8.867-8.793 19.803-13.19 32.81-13.19 13 0 23.9 4.5 32.7 13.5 8.793 9 13.19 19.703 13.19 32.11 0 12.4-4.433 23.233-13.3 32.5-8.867 9.26-19.803 13.89-32.81 13.89zm152.5 0c-12.4 0-23.233-4.667-32.5-14-9.26-9.333-13.89-20.037-13.89-32.11 0-13 4.667-23.9 14-32.7 9.333-8.793 20.037-13.19 32.11-13.19 13 0 23.9 4.5 32.7 13.5 8.793 9 13.19 19.703 13.19 32.11 0 12.4-4.5 23.233-13.5 32.5-9 9.26-19.703 13.89-32.11 13.89zm70.533-247c19.373 0 35.077-15.704 35.077-35.077v-379.846c0-19.373-15.704-35.077-35.077-35.077h-511.846c-19.373 0-35.077 15.704-35.077 35.077v379.846c0 19.373 15.704 35.077 35.077 35.077zm-434.239-170.136-.745 1.309c-4.132 7.459-10.077 12.095-17.657 14.213l-.057.016c-7.47 2.007-14.61 1.147-21.384-2.775-7.448-3.518-12.354-9.247-14.713-17.19-2.45-7.941-1.51-15.777 3.254-23.385l.815-1.445h-2.126c-8.561 0-15.546-3.151-21.183-9.558-5.42-5.989-7.924-12.657-7.924-20.084 0-7.627 2.857-14.495 8.69-20.328 5.795-5.795 12.816-8.69 20.952-8.69h1.591l-.791-1.407c-4.649-7.456-5.795-15.145-3.697-22.933 2.045-8.114 6.968-14.015 14.433-17.637 6.782-3.847 14.005-4.828 21.668-2.833 7.927 2.016 13.992 6.774 18.131 14.248l.438.773.389-.709c3.786-8.036 9.763-12.744 17.503-14.679l.152-.036c6.915-1.537 13.946-.724 21.054 3.067 7.465 3.504 12.494 9.332 14.957 17.279l.022.074c2.348 7.938 1.397 15.771-3.357 23.267l-.854 1.526h2.258c7.619 0 14.368 2.739 20.309 8.671 5.944 5.842 8.709 12.71 8.709 20.347 0 7.454-2.72 14.377-8.394 20.385l-.004.004c-5.961 6.299-12.972 9.253-20.62 9.253h-1.962l1.214 2.12c4.107 6.913 5.126 14.267 3.119 22.181l-.009.036c-2.162 8.305-6.984 14.186-14.051 17.672-7.579 4.095-15.27 4.638-23.182 1.964l-.122-.043c-7.635-2.766-13.125-7.469-16.48-14.075zm366.661 0-.745 1.309c-4.131 7.459-10.076 12.095-17.656 14.213l-.058.016c-7.47 2.007-14.609 1.147-21.383-2.775-7.448-3.518-12.354-9.247-14.713-17.19-2.45-7.941-1.511-15.777 3.253-23.385l.816-1.445h-2.127c-8.56 0-15.545-3.151-21.183-9.558-5.42-5.989-7.924-12.657-7.924-20.084 0-7.627 2.857-14.495 8.69-20.328 5.795-5.795 12.817-8.69 20.952-8.69h1.592l-.792-1.407c-4.648-7.456-5.794-15.145-3.696-22.933 2.045-8.114 6.968-14.015 14.433-17.637 6.782-3.847 14.004-4.828 21.668-2.833 7.926 2.016 13.992 6.774 18.13 14.248l.438.773.39-.709c3.786-8.036 9.763-12.744 17.503-14.679l.152-.036c6.914-1.537 13.945-.724 21.054 3.067 7.465 3.504 12.494 9.332 14.956 17.279l.023.074c2.348 7.938 1.396 15.771-3.358 23.267l-.853 1.526h2.257c7.619 0 14.369 2.739 20.309 8.671 5.945 5.842 8.709 12.71 8.709 20.347 0 7.454-2.719 14.377-8.393 20.385l-.004.004c-5.962 6.299-12.972 9.253-20.621 9.253h-1.962l1.214 2.12c4.108 6.913 5.126 14.267 3.12 22.181l-.01.036c-2.161 8.305-6.983 14.186-14.05 17.672-7.58 4.095-15.27 4.638-23.183 1.964l-.121-.043c-7.636-2.766-13.126-7.469-16.481-14.075zm-183.331 0-.745 1.309c-4.131 7.459-10.076 12.095-17.656 14.213l-.058.016c-7.47 2.007-14.609 1.147-21.383-2.775-7.448-3.518-12.354-9.247-14.713-17.19-2.45-7.941-1.51-15.777 3.254-23.385l.815-1.445h-2.126c-8.561 0-15.546-3.151-21.183-9.558-5.42-5.989-7.925-12.657-7.925-20.084 0-7.627 2.858-14.495 8.69-20.328 5.795-5.795 12.817-8.69 20.952-8.69h1.592l-.791-1.407c-4.649-7.456-5.795-15.145-3.697-22.933 2.045-8.114 6.968-14.015 14.433-17.637 6.782-3.847 14.005-4.828 21.668-2.833 7.926 2.016 13.992 6.774 18.131 14.248l.437.773.39-.709c3.786-8.036 9.763-12.744 17.503-14.679l.152-.036c6.915-1.537 13.946-.724 21.054 3.067 7.465 3.504 12.494 9.332 14.957 17.279l.022.074c2.348 7.938 1.396 15.771-3.358 23.267l-.853 1.526h2.257c7.62 0 14.369 2.739 20.309 8.671 5.945 5.842 8.71 12.71 8.71 20.347 0 7.454-2.72 14.377-8.394 20.385l-.004.004c-5.961 6.299-12.972 9.253-20.621 9.253h-1.961l1.213 2.12c4.108 6.913 5.126 14.267 3.12 22.181l-.009.036c-2.162 8.305-6.984 14.186-14.051 17.672-7.579 4.095-15.27 4.638-23.183 1.964l-.121-.043c-7.635-2.766-13.125-7.469-16.48-14.075z" transform="matrix(.245519 0 0 .245519 7.02799 254.634)"/></svg>