<svg clip-rule="evenodd" fill-rule="evenodd" stroke-linejoin="round" stroke-miterlimit="2" viewBox="0 0 250 250" xmlns="http://www.w3.org/2000/svg"><path fill="rgb(255, 255, 255)" d="m178.964 118.286-152.421-61.329c-3.433-.969-5.845-3.065-7.236-6.29-1.389-3.223-1.468-6.529-.238-9.918 1.233-3.391 3.437-5.896 6.614-7.515 3.179-1.622 6.472-1.731 9.879-.328l177.373 70.348c12.226 5.011 20.694 11.16 25.404 18.45 4.71 7.291 7.065 16.574 7.065 27.847v51.409c0 7.826-2.783 14.492-8.349 19.998-5.565 5.507-12.303 8.261-20.211 8.261h-183.988c-7.826 0-14.493-2.754-20.001-8.261-5.505-5.506-8.258-12.172-8.258-19.998v-54.114c0-7.909 2.753-14.646 8.258-20.212 5.508-5.565 12.175-8.348 20.001-8.348zm-146.108 82.674h183.988v-54.114h-183.988zm45.696-36.385c.623 1.19.807 2.393.596 3.603-.216 1.238-.796 2.297-1.754 3.165l-1.684 1.628c.034.341.047.72.034 1.138-.013.336-.036.647-.069.93l1.663 1.553c.998.895 1.598 1.991 1.812 3.278.218 1.306-.001 2.503-.628 3.595l-.606 1.211-.091.166c-.712 1.185-1.684 1.926-2.869 2.282-.977.293-2.001.351-3.073.156l-2.015-.403c-.579.469-1.239.905-1.986 1.302-.585.311-1.152.577-1.699.803l-.326 2.123c-.01.056-.019.114-.032.17-.303 1.337-.978 2.443-2.019 3.315-1.09.911-2.313 1.351-3.655 1.351h-1.041c-1.318 0-2.521-.411-3.601-1.255-1.132-.883-1.81-2.04-2.03-3.473l-.004-.027-.327-2.182c-.587-.235-1.177-.514-1.771-.841-.715-.391-1.35-.818-1.91-1.279l-1.785.367c-1.171.305-2.318.239-3.445-.199-1.152-.448-2.057-1.203-2.711-2.27.326.509-.075-.132-.075-.132l-.609-1.132c-.635-1.078-.881-2.259-.72-3.549.167-1.333.748-2.448 1.742-3.342l1.742-1.624c-.024-.33-.031-.694-.016-1.096.01-.3.026-.575.047-.824l-1.86-1.812c-.873-.767-1.438-1.777-1.633-3.06l-.001-.011-.014-.092-.002-.015v-.005c-.164-1.24.067-2.403.696-3.485l.59-1.194c.03-.061.099-.18.099-.181.659-1.09 1.547-1.825 2.634-2.243.998-.385 2.068-.487 3.211-.279l.012.001.017.004h.002c.001.001.001.001.001.001l-.003-.001h.002c.003.001.005.001.008.002l.008.001c-.001 0-.001 0-.002 0 .471.099.513.1.1.019l2.002.391c.535-.422 1.141-.832 1.82-1.226.617-.358 1.231-.654 1.838-.887l.314-2.037c.216-1.411.854-2.578 1.903-3.505 1.074-.951 2.327-1.425 3.76-1.425h1.121c1.327 0 2.537.444 3.613 1.369 1.011.87 1.67 1.976 1.959 3.329l.002.012.004.03.001-.001.008.042-.002.003.005.033v.013l.005-.005.344 2.17c.556.225 1.136.505 1.734.842.708.398 1.333.812 1.878 1.237l2.03-.404c1.051-.211 2.138-.123 3.257.308 1.189.456 2.102 1.235 2.739 2.325l.629 1.071.003.005s.052.095.083.152zm-31.122-3.856.072.014c-.023-.004-.047-.009-.072-.014zm0 0-.022-.004c.008.001.015.002.022.004zm-.022-.004s-.001 0-.002 0zm-.002 0-.002-.001c.001 0 .001 0 .002.001zm12.315 20.746c2.06 0 3.807-.73 5.238-2.195 1.442-1.478 2.163-3.253 2.163-5.327 0-2.007-.738-3.741-2.196-5.21-1.456-1.468-3.207-2.205-5.252-2.205-2.048 0-3.805.747-5.273 2.23-1.472 1.486-2.216 3.239-2.216 5.266 0 2.02.741 3.762 2.212 5.23 1.477 1.473 3.251 2.211 5.324 2.211zm42.206 1.461c-2.506 0-4.622-.852-6.35-2.556-1.729-1.703-2.594-3.84-2.594-6.409 0-2.571.865-4.726 2.594-6.464 1.728-1.74 3.844-2.609 6.35-2.609h87.935c2.505 0 4.623.851 6.352 2.555 1.728 1.704 2.592 3.84 2.592 6.41 0 2.571-.864 4.726-2.592 6.463-1.729 1.74-3.847 2.61-6.352 2.61zm96.605-103.701.091.078-.077.013-.012-.009zm45.633-48.509c-.012-.023-.024-.046-.037-.068.11.202.089.164.037.068zm-.037-.068c-.013-.024-.027-.051-.044-.082.015.027.03.054.044.082z"/></svg>