<svg clip-rule="evenodd" fill-rule="evenodd" stroke-linejoin="round" stroke-miterlimit="2" viewBox="0 0 250 250" xmlns="http://www.w3.org/2000/svg"><path fill="rgb(255, 255, 255)" d="m29.255 202.766v-7.482c0-8.185 2.109-15.345 6.326-21.483 4.218-6.135 9.683-10.798 16.397-13.989 12.749-5.727 25.078-10.022 36.986-12.886 11.909-2.863 23.85-4.295 35.823-4.295 12.328 0 24.383 1.478 36.164 4.434 11.782 2.956 23.946 7.222 36.494 12.8 7.004 2.973 12.639 7.54 16.904 13.703 4.264 6.164 6.396 13.402 6.396 21.716v7.482c0 7.159-2.53 13.29-7.59 18.392-5.062 5.105-11.307 7.657-18.736 7.657h-139.115c-7.352 0-13.532-2.552-18.539-7.657-5.005-5.102-7.51-11.233-7.51-18.392zm26.049 0h139.115v-6.374c0-2.836-.878-5.544-2.633-8.125s-3.926-4.491-6.512-5.731c-11.085-5.173-21.292-8.729-30.622-10.669-9.327-1.94-19.304-2.91-29.929-2.91-10.253 0-20.229.97-29.928 2.91-9.7 1.94-19.868 5.481-30.504 10.625-2.666 1.241-4.83 3.157-6.493 5.747-1.663 2.588-2.494 5.306-2.494 8.153zm22.58-142.65c-1.698-2.404-1.982-5.531-.752-8.204 1.386-3.009 3.047-5.882 4.962-8.584 1.701-2.401 4.548-3.716 7.477-3.45 2.79.254 6.289.572 8.637.787l2.612.239c.549-.403 1.108-.793 1.676-1.168.127-.072.252-.148.375-.229 1.118-.736 2.278-1.406 3.469-2.018l.054-.028c.718-.367 1.448-.713 2.187-1.038l4.732-10.257c1.233-2.673 3.798-4.482 6.73-4.753 3.297-.305 6.616-.302 9.914.005 2.929.273 5.492 2.08 6.726 4.75 1.175 2.543 2.649 5.732 3.637 7.874l1.099 2.381c.624.274 1.241.563 1.849.867.126.075.255.145.386.211 1.197.6 2.357 1.27 3.482 1.995l.051.033c.677.439 1.342.897 1.993 1.375l11.248-1.031c2.931-.268 5.782 1.049 7.482 3.452 1.912 2.704 3.57 5.579 4.953 8.589 1.228 2.673.944 5.795-.751 8.2-1.615 2.289-3.64 5.16-5 7.086l-1.513 2.143c.075.677.132 1.355.173 2.035-.001.146.003.292.011.439.079 1.336.079 2.676.013 4.013l-.003.061c-.041.806-.105 1.61-.194 2.413l6.517 9.226c1.698 2.405 1.982 5.531.752 8.205-1.386 3.009-3.047 5.881-4.962 8.584-1.701 2.4-4.548 3.716-7.477 3.449-2.79-.253-6.289-.572-8.637-.786l-2.612-.239c-.549.403-1.108.792-1.676 1.167-.127.072-.252.149-.375.229-1.118.737-2.278 1.407-3.469 2.018l-.054.028c-.718.367-1.448.714-2.187 1.038l-4.732 10.257c-1.233 2.673-3.798 4.483-6.73 4.753-3.297.305-6.616.302-9.914-.004-2.929-.273-5.492-2.08-6.726-4.751-1.175-2.543-2.649-5.732-3.637-7.873l-1.099-2.382c-.624-.274-1.241-.563-1.849-.867-.126-.074-.255-.145-.386-.211-1.197-.599-2.357-1.269-3.482-1.995l-.051-.033c-.677-.438-1.342-.896-1.993-1.374l-11.248 1.03c-2.931.269-5.782-1.048-7.482-3.451-1.912-2.704-3.57-5.58-4.953-8.589-1.228-2.673-.944-5.796.751-8.2 1.615-2.289 3.64-5.16 5-7.087l1.513-2.142c-.075-.678-.132-1.356-.173-2.035.001-.146-.003-.293-.011-.44-.079-1.336-.079-2.676-.013-4.013l.003-.061c.041-.805.105-1.61.194-2.412zm64.822 31.413c4.877-4.875 7.317-10.778 7.317-17.706 0-6.929-2.44-12.831-7.317-17.708-4.875-4.875-10.776-7.315-17.706-7.315s-12.831 2.44-17.706 7.315c-4.877 4.877-7.317 10.779-7.317 17.708 0 6.928 2.44 12.831 7.317 17.706 4.875 4.876 10.776 7.318 17.706 7.318s12.831-2.442 17.706-7.318z"/></svg>