<svg clip-rule="evenodd" fill-rule="evenodd" stroke-linejoin="round" stroke-miterlimit="2" viewBox="0 0 250 250" xmlns="http://www.w3.org/2000/svg"><path fill="rgb(255, 255, 255)" d="m2.923 2.217h10.154c1.094 0 1.976.881 1.976 1.975v7.616c0 1.094-.882 1.975-1.976 1.975h-10.154c-1.094 0-1.976-.881-1.976-1.975v-7.616c0-1.094.882-1.975 1.976-1.975zm10.699 4.065c-.001-.32-.261-.579-.581-.579h-10.082c-.32.001-.58.259-.581.58l-.018 5.525c0 .312.251.562.563.562h10.154c.312 0 .563-.25.563-.562zm-7.516 5.796c-.196.024-.367-.023-.516-.14-.147-.116-.236-.269-.265-.462l-.001-.002-.389-2.953v-.001c-.024-.191.022-.368.14-.53.121-.167.28-.255.477-.266l.208-.018h.005c.122-.006.225.033.309.115.084.081.126.181.126.3 0 .112-.036.205-.106.282-.072.08-.161.121-.268.123l-.056.006.352 2.725 3.254-.4h.003c.108-.012.208.016.299.084.094.07.146.162.159.277.012.113-.015.212-.082.3s-.159.14-.276.152zm1.038-1.463c-.194 0-.36-.07-.496-.208-.136-.137-.205-.304-.205-.499v-2.984c0-.194.069-.36.205-.496.137-.137.302-.205.496-.205h2.99c.196 0 .362.068.5.205.138.136.207.302.207.496v2.984c0 .195-.069.362-.207.5s-.304.207-.5.207zm.12-.827h2.75v-2.744h-2.75zm2.08-1.524c-.052.084-.118.118-.188.118-.075 0-.144-.038-.192-.133l-.062-.116-.114-.064c-.094-.048-.132-.117-.132-.192s.038-.143.133-.192l.116-.061.064-.114c.048-.095.117-.132.191-.132.075 0 .144.038.192.133l.061.114.116.062h.001c.093.053.129.123.129.195 0 .075-.037.144-.132.192l-.114.061-.061.114s-.005.009-.008.015zm0 0c0-.002.001-.003.002-.004-.006.011-.005.009-.002.004zm.002-.004c.001-.002.003-.005.004-.008-.001.003-.003.005-.004.008zm-1.428.852-.227-.104c-.095-.037-.141-.106-.141-.205 0-.1.046-.169.142-.206l.226-.099.103-.226c.037-.095.106-.141.205-.141s.168.046.205.141l.1.227.225.103c.096.037.142.106.142.203s-.046.165-.141.202l-.227.105-.103.226c-.037.095-.106.141-.203.141s-.166-.046-.203-.141z" transform="matrix(17.3743 0 0 17.3743 -13.9941 -13.9941)"/></svg>