<svg height="48" viewBox="0 -960 960 960" width="48" xmlns="http://www.w3.org/2000/svg"><path fill="rgb(255, 255, 255)" d="m498.166-482.79 106 104.53c7.333 7.67 11 16.26 11 25.76 0 9.49-3.833 17.9-11.5 25.24-7.667 7.33-16.167 11-25.5 11s-17.667-4-25-12l-113-113c-4.667-3.91-8.167-8.57-10.5-13.99-2.333-5.43-3.5-11.43-3.5-18.01v-165c0-10.2 3.327-18.75 9.98-25.65 6.647-6.9 15.38-10.35 26.2-10.35 10.813 0 19.487 3.3 26.02 9.92s9.8 15.4 9.8 26.34zm-29.87 392.528c-52.753 0-102.63-9.998-149.63-29.998s-88-47.5-123-82.5-62.5-75.87-82.5-122.59c-20-46.73-30-96.36-30-148.91 0-53.34 10.167-103.34 30.5-150 20.333-46.67 48-87.5 83-122.5s75.997-62.67 122.99-83c46.993-20.34 96.913-30.5 149.76-30.5 9.367 0 18.167.27 26.4.83s17.017 1.28 26.35 2.17c13.333 2 24.667 7.28 34 15.84 9.333 8.55 14 19.44 14 32.66 0 14.06-4.667 25.83-14 35.3-9.333 9.46-20.667 13.86-34 13.2-9.333-1.34-18.117-2.5-26.35-3.5s-17.117-1.5-26.65-1.5c-80.667 0-149.5 28.33-206.5 85-57 56.66-85.5 125.16-85.5 205.5 0 80.33 28.333 148.83 85 205.5s125.333 85 206 85 149.333-28.29 206-84.87 85-124.96 85-205.13c0-13.09 4.56-24.36 13.68-33.81 9.113-9.46 20.25-14.19 33.41-14.19 13.153 0 24.427 4.73 33.82 14.19 9.393 9.45 14.09 20.72 14.09 33.81 0 52.55-10.167 102.18-30.5 148.91-20.333 46.72-48 87.59-83 122.59s-75.957 62.5-122.87 82.5-96.747 29.998-149.5 29.998zm278.458-653.408-63.638-63.64c-7.213-7.22-10.848-15.66-10.77-25.49-.078-9.69 3.557-18.21 10.911-25.57 7.637-7.63 16.072-11.38 25.399-11.37 9.207.16 17.841 4 25.619 11.78l63.384 63.38 64.354-64.35c6.93-6.93 15.324-10.43 24.877-10.2 9.694.06 18.157 3.73 25.385 10.96 7.014 7.02 10.5 15.29 10.408 24.83.05 9.37-3.535 17.68-10.465 24.61l-64.354 64.35 63.639 63.64c7.213 7.22 10.869 15.67 11.081 25.21.07 9.69-3.444 18.07-10.932 25.56-7.354 7.35-15.91 11.24-25.4 11.37-9.49.12-18.116-3.69-25.894-11.47l-63.398-63.4-62.791 62.79c-7.63 7.63-16.095 11.34-25.655 11.4-9.574.04-17.72-3.58-24.749-10.61-7.028-7.03-10.62-15.43-10.762-25.19.007-9.9 3.606-18.45 10.819-25.66z"/></svg>