<svg height="48" viewBox="0 -960 960 960" width="48" xmlns="http://www.w3.org/2000/svg"><path fill="rgb(255, 255, 255)" d="m800-481c0-61.333-17.333-116.833-52-166.5s-80-86.5-136-110.5c-9.333-3.613-15.667-9.683-19-18.21s-2.667-17.297 2-26.31c4-9.653 10.667-16.313 20-19.98s19-3.547 29 .36c68.667 29.427 123.667 74.747 165 135.96 41.333 61.22 62 129.553 62 205 0 75.453-20.667 143.847-62 205.18s-96.333 106.713-165 136.14c-10 3.907-19.667 4.027-29 .36s-16-10.26-20-19.78c-4.667-8.887-5.333-17.78-2-26.68s9.667-15.247 19-19.04c56-23.333 101.333-59.833 136-109.5s52-105.167 52-166.5zm-536.48 146h-126.52c-14 0-25.5-4.5-34.5-13.5s-13.5-20.167-13.5-33.5v-196c0-13.253 4.5-24.567 13.5-33.94s20.5-14.06 34.5-14.06h126.52l155.48-154c14.667-15.333 31.833-19 51.5-11s29.5 22.333 29.5 43v535c0 21.46-9.833 36.157-29.5 44.09-19.667 7.94-36.833 4.243-51.5-11.09zm141.48-291-100 95h-121v102h121l100 96zm167.902 183.3c-7.945-8.03-11.927-17.38-11.927-28.41v-168.24c0-11.22 3.888-20.95 11.683-28.97 7.795-8.06 17.311-12.17 28.546-12.17s20.9 4.11 28.974 12.17c8.077 8.02 12.115 17.75 12.115 28.97v168.24c0 11.03-4.057 20.38-12.151 28.41-8.095 7.85-17.685 11.78-28.733 11.78s-20.545-3.93-28.507-11.78zm-.244 151.6c-7.795-7.84-11.683-17.2-11.683-28.21 0-11.23 3.888-21.13 11.683-29.18 7.795-8.21 17.144-12.33 28.041-12.33 11.385 0 21.16 4.12 29.331 12.14 8.168 8.06 12.263 17.78 12.263 28.98 0 11.23-4.057 20.76-12.151 28.6-8.095 7.66-17.741 11.59-28.976 11.59-11.216 0-20.713-3.93-28.508-11.59z"/></svg>