<svg height="48" viewBox="0 -960 960 960" width="48" xmlns="http://www.w3.org/2000/svg"><path fill="rgb(255, 255, 255)" d="m263.52-335h-126.52c-14 0-25.5-4.5-34.5-13.5s-13.5-20.167-13.5-33.5v-196c0-13.253 4.5-24.567 13.5-33.94s20.5-14.06 34.5-14.06h126.52l155.48-154c14.667-15.333 31.833-19 51.5-11s29.5 22.333 29.5 43v535c0 21.46-9.833 36.157-29.5 44.09-19.667 7.94-36.833 4.243-51.5-11.09zm141.48-291-100 95h-121v102h121l100 96zm436.934 28.39c7.355-6.89 16.281-10.42 26.745-10.74 10.481-.32 19.454 3.04 26.938 10.1 8.012 7.85 12.019 16.66 12.019 26.6 0 9.93-4.007 18.75-12.019 26.12l-181.881 182.68c-8.013 7.53-17.163 11.22-27.467 11.22-10.288 0-19.31-3.69-27.018-11.22l-88.136-88.94c-7.484-6.89-11.217-15.38-11.217-25.64 0-10.09 3.461-18.91 10.416-26.44 7.884-7.37 16.938-11.22 27.146-11.22 10.207 0 18.781 3.53 25.735 10.58l63.298 63.14z"/></svg>