<svg height="48" viewBox="0 -960 960 960" width="48" xmlns="http://www.w3.org/2000/svg"><path fill="rgb(255, 255, 255)" d="m297.5-55c-14.167 0-25.79-4.543-34.87-13.63-9.087-9.08-13.63-20.203-13.63-33.37v-692c0-13.087 4.543-24.357 13.63-33.81 9.08-9.46 20.537-14.19 34.37-14.19h86v-16c0-13.087 4.543-24.357 13.63-33.81 9.08-9.46 20.203-14.19 33.37-14.19h100c13.167 0 24.293 4.73 33.38 14.19 9.08 9.453 13.62 20.723 13.62 33.81v16h87c13.167 0 24.293 4.73 33.38 14.19 9.08 9.453 13.62 20.723 13.62 33.81v692c0 13.167-4.54 24.29-13.62 33.37-9.087 9.087-20.213 13.63-33.38 13.63zm46.5-319.262h272v-372.738h-272zm0 0h272zm136.26-38.221c11.827 0 22.073-4.23 30.74-12.69s13-18.563 13-30.31v-180c0-12.033-4.32-22.377-12.96-31.03-8.647-8.647-18.98-12.97-31-12.97-12.027 0-22.207 4.323-30.54 12.97-8.333 8.653-12.5 18.997-12.5 31.03v180c0 11.747 4.253 21.85 12.76 30.31 8.513 8.46 18.68 12.69 30.5 12.69zm-.25 178.483c12.007 0 22.34-4.167 31-12.5s12.99-18.503 12.99-30.51-4.373-22.34-13.12-31c-8.74-8.66-19.197-12.99-31.37-12.99-11.673 0-21.677 4.373-30.01 13.12-8.333 8.74-12.5 19.197-12.5 31.37 0 11.673 4.167 21.677 12.5 30.01s18.503 12.5 30.51 12.5z"/></svg>