<svg clip-rule="evenodd" fill-rule="evenodd" stroke-linejoin="round" stroke-miterlimit="2" viewBox="0 0 1042 1042" xmlns="http://www.w3.org/2000/svg"><path fill="rgb(255, 255, 255)" d="m263.883 226.88c-.126.16-.261.24-.404.24h-19.931c-.364 0-.666-.511-.908-1.533-.241-1.022-.362-2.293-.362-3.813 0-1.521.121-2.816.362-3.886.242-1.069.544-1.603.908-1.603h3.778l.684-11.796c-2.367-1.554-4.348-6.181-5.944-13.879-1.596-7.697-2.393-16.786-2.393-27.268 0-10.795.832-20.095 2.498-27.902l-1.442-6.074c-.584-2.457-.584-6.439 0-8.896.583-2.456 1.529-2.456 2.112 0l23.458 98.794c.583 2.456.583 6.438 0 8.895-.583 2.456-1.529 2.456-2.112 0zm-4.71-19.837.561 9.242h1.633zm-2.109 9.242-.642-11.11h-5.807l-.651 11.11zm-13.055-73.105c-1.154 5.635-1.731 12.349-1.731 20.143 0 8.608.708 15.906 2.123 21.896 1.415 5.989 3.127 8.983 5.135 8.983h6.588l-2.136-8.996c-.156.054-.314.081-.474.081-1.433 0-2.66-2.149-3.68-6.446-1.021-4.298-1.531-9.464-1.531-15.499 0-.676.006-1.342.019-1.996zm4.67-12.582c-.361-1.523-.47-3.813-.274-5.802.196-1.99.657-3.287 1.168-3.287h7.914c2.735 0 5.063 4.074 6.985 12.222 1.922 8.147 2.883 18.018 2.883 29.611 0 10.482-.798 19.571-2.394 27.268-.245 1.183-.596 1.885-.968 1.938-.373.053-.734-.547-.998-1.657l-.356-1.5c-.272-1.146-.272-3.003-.001-4.153 1.408-5.976 2.112-13.268 2.112-21.877 0-8.608-.708-15.906-2.123-21.896-1.416-5.989-3.127-8.983-5.135-8.983 0 0-5.906.009-7.789.027-.351.054-.691-.51-.939-1.556-.027-.114-.056-.232-.085-.355zm3.501 14.742c-.129-.54-.176-1.334-.124-2.065.052-.732.196-1.284.373-1.437.348-.294.709-.441 1.085-.441 1.433 0 2.659 2.149 3.68 6.446 1.02 4.298 1.531 9.464 1.531 15.499 0 1.714-.042 3.358-.124 4.932-.036.67-.156 1.203-.313 1.393s-.326.007-.441-.479c-.536-2.238-1.321-5.543-1.605-6.738-.067-.285-.112-.654-.127-1.053-.085-2.276-.328-4.256-.729-5.942-.397-1.673-.863-2.695-1.399-3.065-.102-.069-.197-.272-.27-.581-.282-1.18-1.012-4.257-1.537-6.469z" transform="matrix(32.8604 0 0 7.80259 -7809.72 -839.272)"/></svg>