<svg height="48" viewBox="0 -960 960 960" width="48" xmlns="http://www.w3.org/2000/svg"><path fill="rgb(255, 255, 255)" d="m479.64-54.5c-58.76 0-113.97-11.027-165.63-33.08-51.653-22.06-96.79-52.4-135.41-91.02s-68.96-83.71-91.02-135.27c-22.053-51.57-33.08-106.73-33.08-165.49 0-59.43 11.027-114.97 33.08-166.63 22.06-51.65 52.347-96.64 90.86-134.97 38.513-38.32 83.577-68.66 135.19-91.01 51.62-22.35 106.837-33.53 165.65-33.53 59.48 0 115.09 11.15 166.83 33.45 51.733 22.31 96.737 52.58 135.01 90.81s68.57 83.19 90.89 134.87c22.327 51.69 33.49 107.31 33.49 166.87 0 58.85-11.177 114.1-33.53 165.75s-52.69 96.74-91.01 135.28c-38.327 38.53-83.27 68.83-134.83 90.89-51.567 22.053-107.063 33.08-166.49 33.08zm-.14-94c92 0 170.167-32.12 234.5-96.37s96.5-142.46 96.5-234.63c0-92-32.167-170.17-96.5-234.5s-142.667-96.5-235-96.5c-91.667 0-169.667 32.17-234 96.5s-96.5 142.67-96.5 235c0 91.67 32.123 169.67 96.37 234s142.457 96.5 234.63 96.5zm-154.599-408.46c-11.471-11.26-17.083-24.44-16.869-39.22.24-14.76 5.882-27.65 16.895-38.66 11.04-11.04 23.882-16.67 38.575-16.67 14.721-.27 27.803 5.37 39.272 16.67l76.932 77.09 77.875-77.92c11.012-11 24.014-16.65 38.949-16.65 14.963 0 27.936 5.65 38.951 16.65 11.041 11.02 16.547 23.94 16.518 38.95 0 15.05-5.506 27.94-16.545 38.97l-77.873 77.89 77.873 77.92c11.039 11.01 16.545 23.89 16.521 38.92 0 14.8-5.534 27.94-16.546 38.96-11.042 11.02-23.99 16.38-38.926 16.38-14.908 0-27.91-5.36-38.922-16.38l-77.875-77.88-76.932 76.79c-11.469 11.57-24.577 17.21-39.299 16.95-14.72-.27-27.589-5.91-38.627-16.95-11.016-11.01-16.628-23.89-16.842-38.67-.216-14.49 5.424-27.68 16.895-39.22l76.934-76.82z"/></svg>