<svg height="48" viewBox="0 -960 960 960" width="48" xmlns="http://www.w3.org/2000/svg"><path fill="rgb(255, 255, 255)" d="m536.612-606.04c0-17.08-5.583-30.84-16.75-41.31-11.171-10.44-25.697-15.66-43.576-15.66-11.631 0-22.254 2.31-31.867 6.98-9.613 4.65-17.935 11.4-24.964 20.24-8.866 9.71-19.33 15.53-31.392 17.41-12.058 1.9-22.492-.3-31.303-6.63-10.133-6.35-15.726-14.95-16.782-25.81-1.055-10.86 2.428-21.68 10.449-32.46 14.785-19.62 32.861-34.46 54.229-44.48 21.366-10.03 45.298-15.06 71.795-15.06 43.062 0 77.787 12.46 104.174 37.4 26.387 24.92 39.58 57.41 39.58 97.5 0 21.1-5.488 42.43-16.465 63.95-10.977 21.54-27.231 43.49-48.763 65.86-8.443 8.87-15.199 17.05-20.265 24.53s-9.077 15.57-12.032 24.25c-5.066 10.54-11.741 18.78-20.025 24.7-8.278 5.9-16.761 8.86-25.445 8.86-10.888 0-20.387-3.6-28.497-10.77-8.106-7.17-12.16-15.77-12.16-25.79 0-16.84 4.539-33.52 13.616-50.07s21.924-31 38.542-43.34c16.313-12.58 28.375-25.39 36.185-38.49 7.811-13.09 11.716-27.02 11.716-41.81zm-60.352 388.85c-16.339 0-30.207-5.72-41.606-17.15-11.399-11.44-17.099-25.27-17.099-41.48 0-16.22 5.702-30.03 17.105-41.43 11.403-11.39 25.336-17.1 41.797-17.1s30.391 5.72 41.79 17.16 17.098 25.27 17.098 41.48-5.762 30.02-17.288 41.43c-11.526 11.4-25.458 17.09-41.797 17.09zm-326.015 173.277c-29.456 0-54.547-10.405-75.271-30.999-20.702-20.81-31.064-45.928-31.064-75.348v-658.38c0-29.61 10.362-54.97 31.064-76 20.724-20.81 45.815-31.45 75.271-31.45h658.375c29.752 0 55.114 10.64 76.043 31.45 20.95 21.03 31.426 46.39 31.426 76v658.38c0 29.42-10.476 54.538-31.426 75.348-20.929 20.594-46.291 30.999-76.043 30.999zm0-106.347h658.375v-658.38h-658.375z"/></svg>