<svg clip-rule="evenodd" fill-rule="evenodd" stroke-linejoin="round" stroke-miterlimit="2" viewBox="0 0 1042 1042" xmlns="http://www.w3.org/2000/svg"><path fill="rgb(255, 255, 255)" d="m122.489 912.621v-782.549c0-27.197 9.466-50.364 28.397-69.499 18.938-19.134 41.864-28.707 68.776-28.707h601.642c27.195 0 50.361 9.573 69.499 28.707 19.138 19.135 28.707 42.302 28.707 69.499v782.549c0 26.909-9.569 49.837-28.707 68.776-19.138 18.933-42.304 28.393-69.499 28.393h-601.642c-26.912 0-49.838-9.46-68.776-28.393-18.931-18.939-28.397-41.867-28.397-68.776zm662.554-317.361c20.027 0 36.261-16.23 36.261-36.264v-392.66c0-20.034-16.234-36.264-36.261-36.264h-529.121c-20.026 0-36.26 16.23-36.26 36.264v392.66c0 20.034 16.234 36.264 36.26 36.264zm-259.764-44.586c-51.355 0-94.634-8.59-129.888-25.502-38.584-18.525-56.745-42.229-56.745-69.23v-89.645c0-.022-.001-.045-.001-.066v-6.897c0-.021.001-.043.001-.064v-86.716c0-26.515 18.259-50.24 57.167-69.147 27.764-13.487 60.07-21.787 96.933-24.783.152-.026.305-.052.458-.077 10.238-.821 20.828-1.232 31.769-1.232 12.469 0 24.498.542 36.087 1.621.144.026.288.051.432.077 34.896 3.286 65.794 11.445 92.714 24.383 39.317 18.897 57.758 42.643 57.758 69.158v183.388c0 26.991-18.237 50.715-57.015 69.24-35.418 16.912-78.625 25.492-129.67 25.492zm296.025 179.056c0-9.624-3.821-18.845-10.621-25.647-6.8-6.792-16.023-10.617-25.64-10.617h-529.121c-9.617 0-18.84 3.825-25.64 10.617-6.8 6.802-10.62 16.023-10.62 25.647v146.627c0 9.625 3.82 18.846 10.62 25.648 6.8 6.791 16.023 10.616 25.64 10.616h529.121c9.617 0 18.84-3.825 25.64-10.616 6.8-6.802 10.621-16.023 10.621-25.648zm-109.174 120.866c-12.819 0-24.017-4.827-33.597-14.472-9.573-9.645-14.359-20.717-14.359-33.194 0-13.439 4.825-24.707 14.473-33.804 9.648-9.086 20.713-13.635 33.193-13.635 13.439 0 24.707 4.652 33.804 13.956 9.09 9.304 13.635 20.365 13.635 33.194 0 12.818-4.652 24.014-13.956 33.596-9.303 9.573-20.368 14.359-33.193 14.359zm-157.647 0c-13.439 0-24.707-4.827-33.804-14.472-9.09-9.645-13.635-20.717-13.635-33.194 0-13.439 4.583-24.707 13.749-33.804 9.166-9.086 20.471-13.635 33.917-13.635 13.439 0 24.707 4.652 33.804 13.956 9.09 9.304 13.635 20.365 13.635 33.194 0 12.818-4.583 24.014-13.749 33.596-9.166 9.573-20.471 14.359-33.917 14.359zm-25.544-466.759c6.552 0 12.109-2.222 16.673-6.895 4.584-4.476 6.877-10.368 6.877-17.646v-91.29c0-7.102-2.455-12.974-7.363-17.626-4.909-4.476-10.629-6.926-17.16-6.926-7.201 0-13.083 2.45-17.668 7.516-4.583 4.879-6.856 10.947-6.856 18.049v91.28c0 7.091 2.435 12.974 7.344 17.253 4.908 4.249 10.953 6.285 18.153 6.285zm-.486 102.021c8.174 0 15.05-2.429 20.608-7.308 5.558-4.88 8.337-11.982 8.337-21.089 0-8.528-2.821-15.63-8.438-21.088-5.619-5.686-12.293-8.312-20.021-8.312-9.148.6-16.348 3.639-21.581 9.325-5.234 5.458-7.85 12.363-7.85 20.489 0 8.911 2.616 15.795 7.85 20.675 5.233 4.879 12.272 7.308 21.095 7.308z"/></svg>