<svg height="48" viewBox="0 -960 960 960" width="48" xmlns="http://www.w3.org/2000/svg"><path fill="rgb(255, 255, 255)" d="m252.215-250.25c-14.667-18-27.417-36.84-38.25-56.5-10.833-19.67-19.417-40.5-25.75-62.5-4-11.34-2.177-22.43 5.47-33.27 7.647-10.85 17.823-17.09 30.53-18.73 12.667-1.34 24.333 1.5 35 8.5s18.667 16.5 24 28.5c3.333 10.66 7.5 21 12.5 31s10.667 19.66 17 29c6.333 9.33 13.63 17.67 21.89 25.01 8.253 7.34 17.123 14.34 26.61 20.99 9.333 9.33 15.333 20.33 18 33 2.667 12.66.167 24.33-7.5 35-7 11.33-16.833 18.33-29.5 21-12.667 2.66-24-.34-34-9-11.333-6.67-21.5-14.5-30.5-23.5s-17.5-18.5-25.5-28.5zm-85-252c-19.833 0-36.623-7-50.37-21-13.753-14-20.63-30.67-20.63-50v-247c0-19.72 6.877-36.49 20.63-50.29 13.747-13.81 30.537-20.71 50.37-20.71h109c12.127 0 23.643 3.06 34.55 9.19 10.913 6.12 19.397 14.05 25.45 23.81l20 31h141c19.72 0 36.483 6.8 50.29 20.42 13.807 13.6 20.71 30.13 20.71 49.58v184c0 19.33-6.903 36-20.71 50s-30.57 21-50.29 21zm569-85c-7.333-12-15.833-23.17-25.5-33.5-9.667-10.34-20.5-19.84-32.5-28.5-10.233-9.48-16.123-20.68-17.67-33.6-1.553-12.94 1.337-24.74 8.67-35.4 8-11.34 18.123-18.17 30.37-20.5 12.24-2.34 23.45.83 33.63 9.5 14.073 8.96 27.257 19.7 39.55 32.22 12.3 12.52 23.117 25.44 32.45 38.78 15.333 22.66 28 46.33 38 71 10 24.66 16.667 50.33 20 77 2 12.6-1.257 23.25-9.77 31.95s-19.48 13.05-32.9 13.05c-12.767 0-24.18-4.34-34.24-13-10.06-8.67-16.757-19.34-20.09-32-2-14.09-5.42-27.62-10.26-40.59-4.84-12.98-11.42-25.11-19.74-36.41zm-547-9h285v-137h-168l-42-64h-75zm534.408 231.62c1.927-1.69 3.922-3.38 5.985-5.07 9.503-7.45 20.458-11.15 33.208-11.51h1.386 2.672c14.203.68 26.512 5.76 37.062 15.58.407.65.846 1 1.251 1.33 11.363 11.5 17.112 25.03 17.281 41.26s-5.275 30.1-16.367 40.91l-57.387 57.5 56.203 56.13c11.43 11.51 17.45 25.03 18.126 40.93.676 15.89-4.904 29.737-16.705 41.247-.034.32-.034.32-.068.32-11.464 11.513-25.464 16.922-41.933 17.255-15.555 0-28.845-5.066-39.87-15.219-.709-.666-1.386-1.346-2.028-2.036l-56.203-56.107-56.203 56.107c-11.058 11.18-24.686 16.579-40.85 16.579-16.064-.323-29.827-6.086-41.257-17.239-.135-.32-.271-.32-.371-.32-11.025-11.18-16.57-24.697-16.705-40.947-.102-13.52 4.091-25.36 12.207-35.5 1.386-1.69 2.874-3.38 4.498-5.07l56.169-56.13-56.407-56.47c-11.227-11.17-17.077-25.03-17.483-41.25-.135-16.24 5.445-30.45 17.247-42.28 11.802-11.84 25.903-17.25 41.729-16.58 16.029.36 29.657 6.43 40.851 17.6.135 0 .236.33.372.33l56.203 56.15z"/></svg>