<svg height="48" viewBox="0 -960 960 960" width="48" xmlns="http://www.w3.org/2000/svg"><path fill="rgb(255, 255, 255)" d="m462.5-124.41-108.18-108.18h-205.82c-26.033 0-48.21-9.16-66.53-27.47-18.313-18.32-27.47-40.5-27.47-66.54v-421c0-26.29 9.157-48.72 27.47-67.23 18.32-18.52 40.497-27.77 66.53-27.77h662c26.307 0 48.717 9.25 67.23 27.77 18.513 18.51 27.77 40.94 27.77 67.23v421c0 26.04-9.257 48.22-27.77 66.54-18.513 18.31-40.923 27.47-67.23 27.47h-205.82l-108.18 108.18c-4.547 4.66-10.183 7-16.91 7s-12.423-2.34-17.09-7zm-314-202.19h662v-421h-662zm198.209-47c-11.325 0-20.97-3.92-28.938-11.91-7.967-8.01-11.941-17.66-11.941-28.97v-253.1c0-11.4 3.974-21.14 11.941-29.23 7.968-7.99 17.613-12.08 28.938-12.08h81.758c11.011 0 20.579 4.09 28.702 12.08 8.115 8.09 12.177 17.83 12.177 29.23v31.75c0 6.43-2.131 11.48-6.384 15.04-4.254 3.66-9.037 5.4-14.351 5.4s-10.003-1.74-14.056-5.4c-4.062-3.56-6.088-8.61-6.088-15.04v-31.75h-81.758v253.1h81.758v-31.75c0-6.44 2.053-11.4 6.166-15.04 4.106-3.57 8.82-5.39 14.135-5.39 5.304 0 10.063 1.82 14.272 5.39 4.201 3.64 6.306 8.6 6.306 15.04v31.75c0 11.31-4.062 20.96-12.177 28.97-8.123 7.99-17.691 11.91-28.702 11.91zm184.825 0c-11.446 0-21.187-3.92-29.241-11.91-8.055-8.01-12.072-17.66-12.072-28.97v-31.75c0-6.44 2.122-11.4 6.383-15.04 4.254-3.57 9.037-5.39 14.351-5.39 5.306 0 10.063 1.82 14.273 5.39 4.202 3.64 6.306 8.6 6.306 15.04v31.75h81.324v-253.1h-81.324v31.75c0 6.43-2.13 11.48-6.384 15.04-4.253 3.66-9.037 5.4-14.351 5.4-5.315 0-10.072-1.74-14.273-5.4-4.21-3.56-6.305-8.61-6.305-15.04v-31.75c0-11.4 4.017-21.14 12.072-29.23 8.054-7.99 17.795-12.08 29.241-12.08h81.324c11.437 0 21.179 4.09 29.232 12.08 8.054 8.09 12.081 17.83 12.081 29.23v253.1c0 11.31-4.027 20.96-12.081 28.97-8.053 7.99-17.795 11.91-29.232 11.91zm-72.19-146.99h-17.396c-6.018 0-11.002-1.91-14.951-5.91-3.949-4.01-5.923-8.79-5.923-14.61 0-5.75 1.974-10.53 5.923-14.45 3.949-3.91 8.933-5.92 14.951-5.92h17.396v-20.86c0-5.75 1.982-10.53 5.948-14.44 3.958-4 8.82-6 14.57-6 5.74 0 10.576 2 14.489 6 3.915 3.91 5.872 8.69 5.872 14.44v20.86h20.874c5.723 0 10.559 2.01 14.516 6.02 3.949 3.9 5.923 8.78 5.923 14.52s-1.974 10.6-5.923 14.52c-3.957 3.92-8.793 5.83-14.516 5.83h-20.874v20.88c0 5.73-1.983 10.6-5.949 14.52-3.966 4-8.82 5.92-14.569 5.92s-10.576-1.92-14.491-5.92c-3.914-3.92-5.87-8.79-5.87-14.52z"/></svg>