<svg height="48" viewBox="0 -960 960 960" width="48" xmlns="http://www.w3.org/2000/svg"><path fill="rgb(255, 255, 255)" d="m124.5-134.5c-26.7 0-49.543-9.33-68.53-27.98-18.98-18.65-28.47-40.65-28.47-66.02v-502c0-25.64 9.157-47.88 27.47-66.73 18.32-18.85 40.497-28.27 66.53-28.27h662c25.64 0 47.883 9.42 66.73 28.27s28.27 41.09 28.27 66.73v179c0 13.17-4.753 24.29-14.26 33.37-9.513 9.09-20.847 13.63-34 13.63-13.16 0-24.24-4.54-33.24-13.63-9-9.08-13.5-20.2-13.5-33.37v-96l-305 200c-3.873 2.67-8.01 4.5-12.41 5.5-4.393 1-8.923 1.5-13.59 1.5s-9.197-.5-13.59-1.5c-4.4-1-8.537-2.83-12.41-5.5l-305-200v419h482c13.167 0 24.293 4.56 33.38 13.68 9.08 9.11 13.62 20.28 13.62 33.5 0 13.21-4.54 24.32-13.62 33.32-9.087 9-20.213 13.5-33.38 13.5zm328-383 331-213h-662zm298.808 218.86c3.477-3.43 5.228-7.68 5.228-12.66 0-5.08-1.727-9.46-5.145-13.01-3.43-3.66-7.665-5.44-12.692-5.44-5.039 0-9.345 1.78-12.965 5.44-3.596 3.43-5.393 7.81-5.393 12.77 0 5.09 1.774 9.35 5.322 12.78 3.573 3.54 7.855 5.32 12.881 5.32 5.028 0 9.287-1.78 12.764-5.2zm66.667 0c3.478-3.43 5.217-7.68 5.217-12.66 0-5.08-1.716-9.46-5.134-13.01-3.443-3.66-7.666-5.44-12.705-5.44-5.026 0-9.214 1.78-12.574 5.44-3.335 3.43-5.015 7.81-5.015 12.77 0 5.09 1.644 9.35 4.957 12.78 3.288 3.54 7.463 5.32 12.491 5.32 5.027 0 9.285-1.78 12.763-5.2zm67.424 0c3.477-3.43 5.216-7.68 5.216-12.66 0-5.08-1.703-9.46-5.133-13.01-3.431-3.66-7.654-5.44-12.693-5.44-5.027 0-9.286 1.78-12.764 5.44-3.476 3.43-5.215 7.81-5.215 12.77 0 5.09 1.714 9.35 5.145 12.78 3.43 3.54 7.653 5.32 12.692 5.32 5.027 0 9.285-1.78 12.752-5.2zm-79.596 113.2c-17.483 0-33.913-3.31-49.279-9.81-15.377-6.51-28.803-15.63-40.288-27.1-11.486-11.47-20.512-24.95-27.076-40.21-6.565-15.38-9.842-31.82-9.842-49.33 0-17.62 3.277-34.18 9.842-49.56 6.564-15.26 15.567-28.75 27.028-40.1 11.45-11.47 24.865-20.47 40.218-27.09 15.354-6.63 31.784-10.05 49.291-10.05 17.696 0 34.232 3.42 49.633 10.05 15.389 6.62 28.779 15.62 40.17 26.97 11.38 11.36 20.393 24.84 27.041 40.1 6.635 15.38 9.959 31.94 9.959 49.68 0 17.51-3.324 33.95-9.971 49.33-6.66 15.37-15.674 28.74-27.076 40.21-11.415 11.47-24.781 20.59-40.123 27.1-15.342 6.5-31.855 9.81-49.527 9.81z"/></svg>