<svg height="48" viewBox="0 -960 960 960" width="48" xmlns="http://www.w3.org/2000/svg"><path fill="rgb(255, 255, 255)" d="m151.5-134.5c-26.7 0-49.543-9.33-68.53-27.98-18.98-18.65-28.47-40.65-28.47-66.02v-502c0-25.64 9.157-47.88 27.47-66.73 18.32-18.85 40.497-28.27 66.53-28.27h662c25.64 0 47.883 9.42 66.73 28.27s28.27 41.09 28.27 66.73v255.919c0 13.17-4.753 24.29-14.26 33.37-9.513 9.09-20.847 13.63-34 13.63-13.16 0-24.24-4.54-33.24-13.63-9-9.08-13.5-20.2-13.5-33.37v-172.919l-305 200c-3.873 2.67-8.01 4.5-12.41 5.5-4.393 1-8.923 1.5-13.59 1.5s-9.197-.5-13.59-1.5c-4.4-1-8.537-2.83-12.41-5.5l-305-200v419h360.029c13.167 0 24.293 4.56 33.38 13.68 9.08 9.11 13.62 20.28 13.62 33.5 0 13.21-4.54 24.32-13.62 33.32-9.087 9-20.213 13.5-33.38 13.5zm328-383 331-213h-662zm222.151 267.936 115.917-117c8.146-8.87 15.981-11.626 27.78-11.626 11.8 0 19.64 2.817 27.834 11.231 8.865 8.486 11.629 16.519 11.629 28.339 0 11.74-2.801 19.403-11.652 27.705l-152.66 152.656c-8.525 8.931-16.514 11.759-28.154 11.759-11.633 0-19.411-2.779-27.571-11.655l-61.645-61.647c-8.878-8.508-11.765-16.462-11.765-28.028 0-11.697 2.963-19.429 11.957-27.463 7.659-8.248 15.486-11.466 27.559-11.463 11.948-.635 19.695 2.402 27.757 11.22l34.527 34.537z"/></svg>