<svg height="48" viewBox="0 -960 960 960" width="48" xmlns="http://www.w3.org/2000/svg"><path fill="rgb(255, 255, 255)" d="m573.527-383.5c-36.253 0-66.88-13.03-91.88-39.08-25-26.06-37.5-57.7-37.5-94.92v-246c0-35 12.52-65.08 37.56-90.25s55.873-37.75 92.5-37.75c35.847 0 66.3 12.58 91.36 37.75 25.053 25.17 37.58 55.25 37.58 90.25v246c0 37.22-12.54 68.86-37.62 94.92-25.08 26.05-55.747 39.08-92 39.08zm.62-94c9.733 0 18-3.92 24.8-11.77s10.2-17.26 10.2-28.23v-245.87c0-9.15-3.497-17.13-10.49-23.93s-15.33-10.2-25.01-10.2-17.85 3.4-24.51 10.2-9.99 14.78-9.99 23.93v245.87c0 10.97 3.257 20.38 9.77 28.23 6.52 7.85 14.93 11.77 25.23 11.77zm-42 367v-97c-70.667-7.33-131.913-35.82-183.74-85.46s-82.247-110.49-91.26-182.54c-1.333-11.23 1.863-21.04 9.59-29.43 7.733-8.38 17.567-12.57 29.5-12.57 11.94 0 22.077 4.17 30.41 12.5s13.5 18.5 15.5 30.5c10.667 57.33 38.193 102.83 82.58 136.5s95.193 50.5 152.42 50.5c9.267 0 17.917 3.43 25.95 10.29 8.033 6.85 12.05 15.09 12.05 24.71v142c0 11.9-3.993 21.877-11.98 29.93-7.987 8.047-17.883 12.07-29.69 12.07-11.8 0-21.64-4.023-29.52-12.07-7.873-8.053-11.81-18.03-11.81-29.93z"/></svg>