<svg height="48" viewBox="0 -960 960 960" width="48" xmlns="http://www.w3.org/2000/svg"><path fill="rgb(255, 255, 255)" d="m410-145-355-392c-7.333-7.387-12.667-16.03-16-25.93s-5-19.687-5-29.36c0-11.527 2.333-22.867 7-34.02 4.667-11.16 11.667-21.057 21-29.69 62.667-48.667 127.833-87 195.5-115s141.833-42 222.5-42 154.833 14 222.5 42 132.833 66.333 195.5 115c9.333 8.573 16.333 18.4 21 29.48s7 22.4 7 33.96c0 9.707-1.667 19.537-5 29.49s-8.333 18.643-15 26.07l-355 392c-10 11.333-21 19.5-33 24.5s-24.667 7.5-38 7.5-26-2.5-38-7.5-22.667-13.167-32-24.5zm70-61 348-381c-52-40.667-106.707-72.667-164.12-96-57.407-23.333-118.74-35-184-35-65.253 0-126.547 11.667-183.88 35s-112 55.333-164 96zm-11.043-300.93-96.978-96.97c-4.144-4.19-6.083-8.7-5.82-13.65.265-4.82 2.453-9.32 6.595-13.51 3.616-4.19 8.022-6.21 13.19-6.21 5.166 0 9.822 2.02 13.964 6.21l76.807 77.59v-80.69c0-10.86 3.879-19.56 11.637-26.08 7.759-6.35 16.294-9.61 25.603-9.61 4.142 0 8.534.93 13.189 2.63 4.654 1.86 8.798 4.66 12.413 8.23l43.447 42.67c3.103 3.57 5.554 7.61 7.369 11.95 1.816 4.51 2.716 9 2.716 13.65 0 5.12-.775 9.93-2.327 14.29-1.553 4.49-4.143 8.53-7.758 12.1l-58.188 57.4 58.188 58.19c3.615 3.56 6.33 7.75 8.146 12.41 1.815 4.65 2.715 9.31 2.715 13.97 0 4.65-1.039 8.99-3.103 13.18-2.065 4.19-4.92 8.08-8.534 11.64l-41.895 42.68c-4.143 4.19-8.535 6.97-13.189 8.53-4.655 1.55-9.047 2.33-13.189 2.33-9.309 0-17.72-3.41-25.215-10.09-7.494-6.67-11.249-15.83-11.249-27.15v-79.14l-78.358 78.37c-4.143 4.18-8.659 6.04-13.578 5.74-4.918-.17-9.185-2.33-12.801-6.52-4.142-4.19-6.206-8.85-6.206-13.97s2.064-9.78 6.206-13.97zm44.998 128.01 44.998-44.21-44.998-44.23zm-.776-167.57 44.999-44.23-44.999-44.22z"/></svg>