<svg height="48" viewBox="0 -960 960 960" width="48" xmlns="http://www.w3.org/2000/svg"><path fill="rgb(255, 255, 255)" d="m483.8-97c-9.867 0-19.8-2.167-29.8-6.5s-19-11.167-27-20.5l-372-413c-6.833-7.533-12.04-16.043-15.62-25.53-3.587-9.487-5.38-19.31-5.38-29.47 0-12.16 2.333-23.7 7-34.62s11.667-20.713 21-29.38c61.333-47.333 127-85.333 197-114s143.667-43 221-43 151 14.333 221 43 135.667 66.667 197 114c9.333 8.667 16.333 18.46 21 29.38s7 22.46 7 34.62c0 10.16-1.79 19.983-5.37 29.47-3.587 9.487-8.463 17.997-14.63 25.53l-52 55c-6.08 6.06-12.933 10.243-20.56 12.55-7.627 2.3-15.44 2.45-23.44.45-8-.667-15.5-1.667-22.5-3s-14.5-2-22.5-2c-60.833 0-112.54 21.39-155.12 64.17-42.587 42.773-63.88 95.023-63.88 156.75 0 7.473.723 14.7 2.17 21.68 1.44 6.973 3.05 14.107 4.83 21.4 1.333 7.333 2.333 14.607 3 21.82.667 7.207 1 14.627 1 22.26 0 21.527-7.5 38.397-22.5 50.61-15 12.207-31.9 18.31-50.7 18.31zm194.2 2c-10.3 0-18.873-3.22-25.72-9.66-6.853-6.44-10.28-14.753-10.28-24.94v-127.8c0-10.187 3.427-18.667 10.28-25.44 6.847-6.773 15.42-10.16 25.72-10.16h5v-39c0-21.887 8.04-41.023 24.12-57.41 16.087-16.393 35.42-24.59 58-24.59 22.587 0 41.88 8.197 57.88 24.59 16 16.387 24 35.523 24 57.41v39h6c9.633 0 17.873 3.387 24.72 10.16 6.853 6.773 10.28 15.253 10.28 25.44v127.8c0 10.187-3.427 18.5-10.28 24.94-6.847 6.44-15.087 9.66-24.72 9.66zm45-198h84v-39.3c0-11.133-4.167-20.867-12.5-29.2s-18.167-12.5-29.5-12.5-21.167 4.167-29.5 12.5-12.5 18.067-12.5 29.2z"/></svg>