<svg height="48" viewBox="0 -960 960 960" width="48" xmlns="http://www.w3.org/2000/svg"><path fill="rgb(255, 255, 255)" d="m395.202-596.78c-9.125 8.95-19.57 13.4-31.374 13.4-11.805 0-21.981-4.45-30.548-13.4-9.283-9.59-13.945-20.07-13.945-31.68 0-11.6 4.46-21.86 13.386-30.8l84.795-84.77-84.795-84.81c-8.926-9.16-13.386-19.43-13.386-31.24 0-11.83 4.46-22.1 13.386-30.57 9.685-9.39 20.284-14.06 31.799-14.06 11.537 0 21.756 4.47 30.682 13.39l84.797 84.8 84.798-84.8c9.125-8.92 19.591-13.39 31.395-13.39s21.981 4.47 30.527 13.39c9.306 9.82 13.946 20.31 13.946 31.9 0 11.6-4.462 21.64-13.387 30.58l-84.797 84.81 84.797 84.77c8.925 9.17 13.387 19.64 13.387 31.48 0 11.83-4.462 22.1-13.387 30.56-9.663 9.16-20.263 13.84-31.799 13.84-11.514 0-21.758-4.45-30.682-13.4l-84.798-84.79zm-298.126 445.8v-110.99c0-25.8 9.219-48 27.637-66.4 18.398-18.4 40.516-27.59 66.353-27.59h31.997v-71c0-25.79 9.219-47.99 27.637-66.39 18.399-18.39 40.517-27.6 66.354-27.6h325.967c25.837 0 47.955 9.21 66.373 27.6 18.418 18.4 27.618 40.6 27.618 66.39v71h31.997c25.834 0 47.959 9.19 66.376 27.59s27.615 40.6 27.615 66.4v110.99c0 25.79-9.198 47.99-27.615 66.389-18.417 18.394-40.542 27.591-66.376 27.591h-139.987c-26.497 0-48.955-9.197-67.353-27.591-18.419-18.399-27.637-40.599-27.637-66.389v-115c0-24.59 8.88-45.58 26.637-63.39 17.738-17.8 38.856-26.59 63.354-26.59h29.997v-82.99h-347.965v82.99h29.997c24.498 0 45.616 8.79 63.373 26.59 17.738 17.81 26.618 38.8 26.618 63.39v115c0 25.79-9.199 47.99-27.617 66.389-18.419 18.394-40.536 27.591-66.374 27.591h-140.986c-25.837 0-47.955-9.197-66.353-27.591-18.418-18.399-27.637-40.599-27.637-66.389zm82.991 10.99h162.984v-132.98h-162.984zm436.957 0h162.985v-132.98h-162.985z"/></svg>