<svg height="48" viewBox="0 -960 960 960" width="48" xmlns="http://www.w3.org/2000/svg"><path fill="rgb(255, 255, 255)" d="m479.94-494.33c-48.677-.16-89.889-17.1-123.767-50.97-33.856-33.86-50.767-75.1-50.873-123.84.215-48.46 17.119-89.78 51.031-123.69 33.896-33.9 75.2-50.78 123.733-50.76 48.689.14 89.887 17.09 123.743 50.95 34.026 34.03 50.922 75.26 50.738 123.71-.058 48.6-16.962 89.93-50.86 123.83-33.896 33.9-75.196 50.77-123.745 50.77zm61.309-192.72c6.128-6.12 9.272-13.33 9.352-21.54-.063-8.38-3.074-15.54-9.339-21.8-6.095-6.1-13.252-9.11-21.633-9.17-8.211.08-15.562 3.07-21.69 9.2l-83.029 83.03c-6.133 6.13-9.101 13.46-9.192 21.68.064 8.38 3.054 15.56 9.149 21.65 6.265 6.27 13.443 9.26 21.822 9.32 8.223-.09 15.398-3.2 21.532-9.34zm-406.249 471.05v-27c0-29.53 7.61-55.37 22.829-77.52 15.221-22.14 34.944-38.97 59.171-50.48 46-20.67 90.487-36.17 133.46-46.5s86.063-15.5 129.27-15.5c44.487 0 87.988 5.33 130.5 16 42.514 10.67 86.41 26.06 131.69 46.19 25.273 10.73 45.607 27.21 61 49.45 15.387 22.24 23.08 48.36 23.08 78.36v27c0 25.83-9.131 47.96-27.39 66.37-18.267 18.42-40.803 27.63-67.61 27.63h-502c-26.533 0-48.833-9.21-66.9-27.63-18.067-18.41-27.099-40.54-27.1-66.37z" stroke-width=".05"/></svg>