<svg height="48" viewBox="0 -960 960 960" width="48" xmlns="http://www.w3.org/2000/svg"><path fill="rgb(255, 255, 255)" d="m135-216v-27c0-29.533 7.61-55.373 22.83-77.52 15.22-22.14 34.943-38.967 59.17-50.48 46-20.667 90.487-36.167 133.46-46.5s86.063-15.5 129.27-15.5c44.487 0 87.987 5.333 130.5 16s86.41 26.063 131.69 46.19c25.273 10.727 45.607 27.21 61 49.45 15.387 22.24 23.08 48.36 23.08 78.36v27c0 25.833-9.13 47.957-27.39 66.37-18.267 18.42-40.803 27.63-67.61 27.63h-502c-26.533 0-48.833-9.21-66.9-27.63-18.067-18.413-27.1-40.537-27.1-66.37zm344.999-277.92c-49.075 0-90.54-16.95-124.366-51.29-33.851-33.92-50.753-75.3-50.753-123.71 0-48.64 16.902-89.82 50.753-123.94 33.826-34.16 75.291-51.14 124.366-51.14 48.436 0 89.754 16.98 123.894 51.14 34.138 34.12 51.228 75.3 51.228 123.94 0 48.41-17.09 89.79-51.228 123.71-34.14 34.34-75.458 51.29-123.894 51.29zm15.745-179.18v-84.8c0-6-2.295-11.38-6.867-15.72-4.574-4.58-9.931-6.43-16.037-6.43-6.351 0-11.998 2.04-16.943 6.6-4.945 4.36-7.407 9.77-7.407 15.55v84.42c0 6 1.075 11.55 3.248 16.54 2.151 4.94 5.09 9.72 8.793 14.06l56.526 58.35c4.323 4.15 9.724 6.43 16.22 6.43 6.476 0 11.877-2.5 16.222-7.66 4.302-4.99 6.619-10.54 6.93-16.54.311-6.25-2.006-11.79-6.93-16.59z"/></svg>