<svg height="48" viewBox="0 -960 960 960" width="48" xmlns="http://www.w3.org/2000/svg"><path fill="rgb(255, 255, 255)" d="m55-542c0-36.433 12.403-67.54 37.21-93.32 24.807-25.787 55.403-38.68 91.79-38.68h33v-97c0-26.807 9.033-49.343 27.1-67.61 18.067-18.26 40.367-27.39 66.9-27.39h338c26.807 0 49.343 9.13 67.61 27.39 18.26 18.267 27.39 40.803 27.39 67.61v97h32c36.833 0 67.71 12.363 92.63 37.09 24.913 24.72 37.37 55.357 37.37 91.91v67c0 12.18-4.827 22.393-14.48 30.64-9.653 8.24-20.923 12.36-33.81 12.36-13.807 0-25.21-4.267-34.21-12.8s-13.5-18.6-13.5-30.2v-67c0-8.167-3.53-15.877-10.59-23.13-7.053-7.247-14.857-10.87-23.41-10.87h-592c-9.453 0-17.65 3.573-24.59 10.72-6.94 7.153-10.41 15.913-10.41 26.28v172h68v-16c6.667-4.5 13.993-7.96 21.98-10.38 7.98-2.413 15.987-3.62 24.02-3.62h268c13.4 0 24.417 4.56 33.05 13.68 8.633 9.113 12.95 20.447 12.95 34 0 13.547-4.317 24.82-12.95 33.82s-19.65 13.5-33.05 13.5h-220v134h222c12.753 0 23.44 4.237 32.06 12.71 8.627 8.473 12.94 18.973 12.94 31.5s-4.313 23.123-12.94 31.79c-8.62 8.667-19.307 13-32.06 13h-245c-19.96 0-36.783-6.953-50.47-20.86-13.687-13.9-20.53-30.613-20.53-50.14v-122h-91c-19.96 0-36.783-6.953-50.47-20.86-13.687-13.9-20.53-30.613-20.53-50.14zm594-229h-338v97h338zm47.185 520.846-51.619-51.619c-9.305-9.304-13.923-20.414-13.838-33.34-.07-12.798 4.78-24.07 14.397-33.686 9.475-9.476 20.747-14.326 33.545-14.256 12.784.057 23.759 4.809 33.064 14.114l51.619 51.619 51.626-51.626c9.319-9.319 20.471-14.021 33.283-13.937 12.814.086 23.958 4.724 33.305 14.072 9.348 9.348 13.944 20.449 13.945 33.178-.001 12.727-4.746 23.836-14.065 33.155l-51.626 51.626 51.619 51.62c9.306 9.305 13.93 20.435 13.979 33.226-.077 12.919-4.928 24.19-14.404 33.665-9.616 9.617-20.745 14.327-33.538 14.277-12.776-.063-23.899-4.695-33.205-14l-51.619-51.62-50.919 50.919c-9.758 9.758-21.043 14.595-33.995 14.648-12.815-.08-23.957-4.721-33.306-14.07-9.348-9.348-13.946-20.447-13.942-33.178.138-12.867 5.017-24.11 14.775-33.868z"/></svg>