<svg height="48" viewBox="0 -960 960 960" width="48" xmlns="http://www.w3.org/2000/svg"><path fill="rgb(255, 255, 255)" d="m149.019-62.661c-26.033 0-48.21-9.157-66.53-27.471-18.313-18.318-27.47-40.498-27.47-66.528v-116c0-13.17 4.56-24.29 13.68-33.38 9.113-9.08 20.28-13.62 33.5-13.62 13.213 0 24.32 4.54 33.32 13.62 9 9.09 13.5 20.21 13.5 33.38v116h116c13.167 0 24.293 4.56 33.38 13.68 9.08 9.11 13.62 20.28 13.62 33.5 0 13.208-4.54 24.319-13.62 33.319-9.087 9-20.213 13.5-33.38 13.5zm660.962 0h-116c-13.167 0-24.29-4.56-33.37-13.68-9.087-9.113-13.63-20.281-13.63-33.499 0-13.21 4.543-24.32 13.63-33.32 9.08-9 20.203-13.5 33.37-13.5h116v-116c0-13.17 4.56-24.29 13.68-33.38 9.113-9.08 20.25-13.62 33.41-13.62 13.153 0 24.427 4.54 33.82 13.62 9.393 9.09 14.09 20.21 14.09 33.38v116c0 26.03-9.257 48.21-27.77 66.528-18.513 18.314-40.923 27.471-67.23 27.471zm-754.962-623.679v-116c0-26.31 9.157-48.72 27.47-67.23 18.32-18.51 40.497-27.77 66.53-27.77h116c13.167 0 24.293 4.75 33.38 14.26 9.08 9.51 13.62 20.85 13.62 34 0 13.16-4.54 24.24-13.62 33.24-9.087 9-20.213 13.5-33.38 13.5h-116v116c0 13.17-4.56 24.29-13.68 33.37-9.113 9.09-20.28 13.63-33.5 13.63-13.213 0-24.32-4.54-33.32-13.63-9-9.08-13.5-20.2-13.5-33.37zm754.962 0v-116h-116c-13.167 0-24.29-4.56-33.37-13.68-9.087-9.11-13.63-20.25-13.63-33.41 0-13.15 4.543-24.43 13.63-33.82 9.08-9.39 20.203-14.09 33.37-14.09h116c26.307 0 48.717 9.26 67.23 27.77s27.77 40.92 27.77 67.23v116c0 13.17-4.753 24.29-14.26 33.37-9.513 9.09-20.847 13.63-34 13.63-13.16 0-24.24-4.54-33.24-13.63-9-9.08-13.5-20.2-13.5-33.37zm-616.682 17.19c0-21.52 7.467-39.78 22.4-54.78 14.933-15.18 33.012-22.67 54.222-22.67h406.605c21.456 0 39.714 7.49 54.81 22.67 15.097 15 22.628 33.26 22.628 54.78v376.59c0 21.18-7.531 39.28-22.628 54.12-15.096 15-33.354 22.48-54.81 22.48h-406.605c-21.21 0-39.289-7.48-54.222-22.48-14.933-14.84-22.4-32.94-22.4-54.12zm483.227 0h-406.605v147.52h86.717c4.222 0 8.347.98 12.373 3.26 4.043 2.12 7.141 5.38 9.31 9.8l45.059 92.11 105.74-188.3c1.63-4.4 4.629-7.51 8.966-9.46 4.353-1.79 8.869-2.78 13.548-2.78 4.695 0 9.031.84 13.042 2.62 4.01 1.79 7.108 4.73 9.276 8.79l41.213 83.96h61.361zm-406.605 376.59h406.605v-180.15h-67.524c-7.515 0-14.313-1.96-20.411-5.71-6.08-3.91-10.694-8.97-13.823-15.48l-24.455-47.28-105.967 184.22c-2.022 4.9-5.053 8.47-9.097 10.91-4.043 2.44-8.298 3.76-12.748 3.76-4.99 0-9.538-1.15-13.613-3.27-4.076-2.27-7.189-5.55-9.374-9.76l-58.689-117.39h-70.904z"/></svg>