<svg height="48" viewBox="0 -960 960 960" width="48" xmlns="http://www.w3.org/2000/svg"><path fill="rgb(255, 255, 255)" d="m480-60c-5.547 0-10.84-.5-15.88-1.5s-9.747-2.5-14.12-4.5c-96-31.333-172.5-90.533-229.5-177.6-57-87.06-85.5-180.23-85.5-279.51v-188.89c0-20.173 5.46-38.56 16.38-55.16 10.913-16.607 25.787-28.22 44.62-34.84l251-94c10.667-4 21.667-6 33-6s22.333 2 33 6l251 94c18.833 6.62 33.877 18.233 45.13 34.84 11.247 16.6 16.87 34.987 16.87 55.16v188.89c0 99.28-28.667 192.45-86 279.51-57.333 87.067-134 146.267-230 177.6-4.373 2-9.08 3.5-14.12 4.5s-10.333 1.5-15.88 1.5z"/></svg>