<svg height="48" viewBox="0 -960 960 960" width="48" xmlns="http://www.w3.org/2000/svg"><path fill="rgb(255, 255, 255)" d="m486.179-54.5c-58.786 0-114.283-11.258-166.534-33.775-52.253-22.295-97.684-52.975-136.315-91.615-38.631-38.62-69.36-83.89-92.163-135.76-22.804-51.87-34.217-107.29-34.217-166 0-58.94 11.413-113.91 34.217-165.13 22.803-51 53.532-95.81 92.163-134 38.631-38.41 84.15-68.65 136.557-91.17 52.429-22.28 107.904-33.55 166.425-33.55 59.604 0 116.071 12.37 169.428 37.52 53.355 24.95 100.617 59.17 141.831 102.67v-51.24c0-11.25 3.687-20.54 11.039-27.82 7.35-7.28 16.733-10.8 28.145-10.8 11.413 0 20.795 3.52 28.146 10.8 7.352 7.28 11.038 16.57 11.038 27.82v145.04c0 14.58-4.967 26.93-14.9 36.87-9.934 9.94-22.253 15.02-36.977 15.02h-146.149c-10.839 0-20.154-3.99-27.991-11.71-7.836-7.72-11.744-17.22-11.744-28.7 0-11.25 3.687-20.96 11.037-28.7 7.352-7.72 16.933-11.48 28.698-11.48h37.981c-31.104-31.13-66.293-55.63-105.564-73.5-39.272-18.11-80.596-26.93-124.018-26.93-89.78 0-166.292 30.45-229.582 91.38-63.29 60.94-94.923 135.54-94.923 224.07 0 90.51 31.412 167.77 94.216 231.35 62.826 63.8 139.603 95.58 230.289 95.58 81.192 0 150.598-26.49 208.234-79.46 57.639-52.99 91.988-118.11 103.025-195.37 2.938-14.14 9.758-25.17 20.421-33.78 10.662-8.38 23.024-12.35 37.043-11.48 14.679.67 26.798 6.18 36.356 16.56 9.56 10.15 13.246 22.08 11.039 35.33-12.761 105.28-58.28 193.6-136.513 264.89-78.235 71.307-171.481 107.07-279.738 107.07zm-6.179-311.7c-9.579 0-17.592-3.17-24.055-9.61-6.461-6.5-9.693-14.54-9.693-24.01v-209.1l-50.983 51.14c-6.706 7.18-14.604 10.61-23.694 10.33-9.106-.29-17.004-3.75-23.698-10.33-6.708-6.75-10.053-14.51-10.053-23.43 0-8.9 3.345-16.94 10.053-24.11l107.709-107.7c3.346-3.33 7.18-5.88 11.489-7.93 4.307-1.84 8.617-2.84 12.925-2.84s8.618 1 12.925 2.84c4.309 2.05 8.128 4.6 11.488 7.93l107.71 107.7c6.691 7.17 10.052 15.35 10.052 24.42 0 9.16-3.361 16.78-10.052 23.12-6.706 7.18-14.608 10.76-23.697 10.76-9.105 0-17.005-3.58-23.696-10.76l-50.981-51.14v209.1c0 9.47-3.233 17.51-9.694 24.01-6.463 6.44-14.49 9.61-24.055 9.61zm-33.634 116.54c-9.049-9.1-13.561-19.96-13.561-32.54 0-13.23 4.512-24.51 13.561-34.06 9.025-9.55 19.898-14.34 32.549-14.34 13.214 0 24.563 4.79 34.045 14.1 9.482 9.57 14.234 20.62 14.234 33.65s-4.708 24.09-14.106 33.19c-9.392 8.9-20.592 13.45-33.631 13.45-13.021 0-24.066-4.55-33.091-13.45zm126.803.06c-9.04-9.01-13.561-19.98-13.561-32.41 0-13.39 4.521-24.6 13.561-34.19 9.019-9.6 19.897-14.4 32.555-14.4 13.198 0 24.559 4.8 34.038 14.2 9.479 9.59 14.217 20.59 14.217 33.59 0 13.01-4.698 24.2-14.097 33.21-9.38 9-20.578 13.39-33.618 13.39-13.018 0-24.076-4.39-33.095-13.39zm-253.584.06c-9.049-9.02-13.564-19.9-13.564-32.42 0-13.34 4.515-24.62 13.564-34.06 9.029-9.66 19.905-14.58 32.567-14.58 13.194 0 24.542 4.92 34.022 14.16 9.481 9.65 14.221 20.73 14.221 33.67 0 13.13-4.699 24.21-14.098 33.23-9.377 9.03-20.582 13.33-33.612 13.33s-24.071-4.3-33.1-13.33z"/></svg>