<svg height="48" viewBox="0 -960 960 960" width="48" xmlns="http://www.w3.org/2000/svg"><path fill="rgb(255, 255, 255)" d="m253-135c-64.707 0-120.217-22.727-166.53-68.18-46.313-45.447-69.47-100.72-69.47-165.82 0-56 17-106.167 51-150.5s78.333-71.167 133-80.5c16-66.667 50.057-120.833 102.17-162.5s111.82-62.5 179.12-62.5c77.14 0 143.043 27.5 197.71 82.5s84.667 121.5 90 199.5v24c50 4.667 91.333 24.9 124 60.7 32.667 35.807 49 79.573 49 131.3 0 53.28-18.68 98.6-56.04 135.96s-82.68 56.04-135.96 56.04zm0-94h496c26.84 0 50.217-9.833 70.13-29.5s29.87-43.167 29.87-70.5-9.957-50.833-29.87-70.5-43.29-29.5-70.13-29.5h-72v-95c0-57.62-19.217-106.36-57.65-146.22-38.427-39.853-85.387-59.78-140.88-59.78-56.98 0-104.637 21.167-142.97 63.5s-57.5 93.5-57.5 153.5h-28c-38.847 0-71.727 13.603-98.64 40.81-26.907 27.207-40.36 60.873-40.36 101 0 39.46 13.787 73.023 41.36 100.69 27.58 27.667 61.127 41.5 100.64 41.5zm224.789-152.05-68.564 69.43c-8.578 8.06-18.134 12-28.717 12-10.556 0-19.851-3.94-27.857-12-8.566-7.89-12.848-17.48-12.848-28.63 0-11.14 4.282-20.73 12.848-28.79l68.576-68.57-69.423-68.58c-8.578-7.87-12.86-17.31-12.86-28.26 0-10.81 4.282-20.24 12.86-28.3 7.994-7.89 17.431-12 28.275-12 10.869 0 20.568 4.11 29.146 12l68.564 68.57 68.563-69.43c8.006-7.88 17.301-12 27.857-12 10.57 0 20.139 4.12 28.705 12 8.005 8.07 12.001 17.66 12.001 28.8s-3.996 20.75-12.001 28.62l-68.565 68.58 69.423 68.57c8.006 8.06 12.003 17.48 12.003 28.27 0 10.98-3.997 20.4-12.003 28.29-8.565 8.06-18.263 12-29.133 12-10.857 0-20.281-3.94-28.287-12z"/></svg>