<svg height="48" viewBox="0 -960 960 960" width="48" xmlns="http://www.w3.org/2000/svg"><path fill="rgb(255, 255, 255)" d="m145-488.5c0 39.74 8.333 75.34 25 106.8 16.667 31.47 43.667 59.53 81 84.2v-70c0-10.09 3.267-18.44 9.8-25.06 6.533-6.63 15.1-9.94 25.7-9.94 10.32 0 18.817 3.31 25.49 9.94 6.673 6.62 10.01 14.97 10.01 25.06v163c0 13.33-4.5 24.5-13.5 33.5s-20.167 13.5-33.5 13.5h-162c-10.08 0-18.433-3.4-25.06-10.19-6.627-6.8-9.94-15.37-9.94-25.7 0-10.06 3.267-18.43 9.8-25.1s15.267-10.01 26.2-10.01h70c-42.667-34-75.667-71.17-99-111.5s-35-89.83-35-148.5c0-63.85 17.5-124.14 52.5-180.88 35-56.75 84.833-99.79 149.5-129.12 10.667-4.67 21-3.67 31 3s16.667 15.83 20 27.5c3.333 12.33 2.833 23.67-1.5 34s-11.833 18.17-22.5 23.5c-38.893 19.1-70.95 48.64-96.17 88.61s-37.83 84.43-37.83 133.39zm381 356c-39.28 0-72.933-13.92-100.96-41.75s-42.04-61.63-42.04-101.39c0-35.93 11.833-67.22 35.5-93.87 23.667-26.66 52.833-42.32 87.5-46.99 14-24.67 33.333-44.5 58-59.5 24.66-15 52.01-22.5 82.05-22.5 40.753 0 75.933 12 105.54 36s46.743 52.67 51.41 86h2c29.333 4 54.167 17.17 74.5 39.5s30.5 49.23 30.5 80.69c0 33.59-12.157 62.62-36.47 87.1-24.313 24.47-53.49 36.71-87.53 36.71zm5-555v70c0 10.08-3.507 18.43-10.52 25.06s-15.547 9.94-25.6 9.94c-10.06 0-18.557-3.41-25.49-10.22-6.927-6.82-10.39-15.41-10.39-25.78v-162c0-13.33 4.5-24.5 13.5-33.5s20.5-13.5 34.5-13.5h161c9.98 0 18.477 3.31 25.49 9.94 7.007 6.63 10.51 14.99 10.51 25.08s-3.503 18.61-10.51 25.56c-7.013 6.95-15.51 10.42-25.49 10.42h-71c23.333 21.33 44.833 45.33 64.5 72s34.833 54 45.5 82c4.667 12.67 3.833 24.83-2.5 36.5s-16.167 19-29.5 22c-12.667 3-24.833 1.17-36.5-5.5s-20.5-16-26.5-28c-8-21.33-18.5-40.83-31.5-58.5s-29.5-34.83-49.5-51.5zm-5 472h260c11.333 0 20.833-3.83 28.5-11.5s11.5-17.17 11.5-28.5c0-10.67-3.833-20-11.5-28s-17.167-12-28.5-12h-50v-30c0-24.67-8.667-45.83-26-63.5s-38.667-26.5-64-26.5c-24.667 0-45.833 8.17-63.5 24.5s-26.5 34.83-26.5 55.5h-30c-16.667 0-30.833 5.83-42.5 17.5s-17.5 25.83-17.5 42.5 5.833 30.83 17.5 42.5 25.833 17.5 42.5 17.5z"/></svg>