<svg height="48" viewBox="0 96 960 960" width="48" xmlns="http://www.w3.org/2000/svg"><path fill="rgb(255, 255, 255)" d="m452.022 434.545-79.89-78.847c11.539-7.79 24.091-13.827 37.637-18.107 13.545-4.292 27.278-6.957 41.209-8 7.728 0 13.314 3.216 16.762 9.659 3.446 6.433 3.247 12.615-.575 18.536-5.576 9.399-9.66 19.164-12.272 29.295-2.61 10.129-3.915 20.552-3.915 31.277 0 2.85.084 5.639.261 8.354.167 2.716.429 5.326.783 7.833zm172.313 170.225-53.261-53.26c8 1.043 15.833 1.388 23.499 1.043 7.654-.355 15.099-1.556 22.337-3.624 7.383-2.464 13.691-.991 18.912 4.407 5.222 5.389 6.957 11.748 5.222 19.06-2.788 5.911-5.514 11.456-8.186 16.615-2.675 5.169-5.514 10.422-8.523 15.759zm-152.992 87.722c-50.828 0-94.084-17.847-129.758-53.522-35.683-35.685-53.522-78.94-53.522-129.756 0-18.162 2.612-35.925 7.833-53.302 5.222-17.377 12.876-33.731 22.976-49.041l-60.571-60.05c-3.489-3.455-5.315-7.717-5.482-12.782-.178-5.054 1.67-9.503 5.534-13.325 3.863-3.488 8.364-5.221 13.492-5.221s9.661 1.733 13.608 5.221l71.671 71.871c9.286 7.398 20.18 18.67 30.474 30.558l273.81 274.571c3.479 3.54 5.305 7.727 5.483 12.572.167 4.846-1.681 9.181-5.566 13.014-3.885 3.822-8.324 5.743-13.314 5.743-4.993 0-9.41-1.921-13.233-5.743l-62.506-62.506c-.228.182-.464.359-.709.531-27.113 19.035-57.087 29.326-89.92 30.873-3.414.196-6.847.294-10.3.294zm114.691-293.145-30.025-12.935c-4.311-1.917-6.467-5.321-6.467-10.215 0-4.892 2.156-8.262 6.467-10.109l30.025-13.396 12.934-29.564c1.917-4.311 5.322-6.467 10.215-6.467 4.892 0 8.263 2.156 10.11 6.467l13.251 29.709 30.17 13.251c4.312 1.868 6.39 5.26 6.237 10.177-.155 4.917-2.388 8.3-6.698 10.147l-29.709 12.935-12.789 30.025c-1.917 4.311-5.399 6.544-10.446 6.698-5.047.153-8.493-1.925-10.341-6.236zm246.518-234.58c28.059 0 51.967 9.895 71.714 29.641 19.749 19.751 29.625 43.653 29.625 71.717v480.029c0 27.769-9.768 51.423-29.305 70.958-19.543 19.541-43.2 29.311-70.969 29.311h-131.749c-6.226 0-11.85 3.737-14.267 9.48-2.415 5.741-1.152 12.37 3.203 16.825l22.275 22.766c4.976 5.187 8.532 10.647 10.665 16.385 2.135 5.738 3.2 11.656 3.2 17.752v14.933c0 12.09-4.089 22.223-12.268 30.401-8.178 8.179-18.311 12.268-30.401 12.268h-408.564c-12.08 0-22.214-4.089-30.401-12.268-8.185-8.178-12.239-18.311-12.239-30.401v-14.933c0-6.096 1.033-12.014 3.179-17.752s5.683-11.198 10.651-16.385l22.294-22.766c4.371-4.455 5.602-11.084 3.179-16.825-2.385-5.743-8.028-9.48-14.267-9.48h-131.744c-27.763 0-51.417-9.77-70.962-29.311-19.512-19.535-29.293-43.189-29.293-70.958v-480.029c0-28.064 9.861-51.966 29.6-71.717 19.754-19.746 43.682-29.641 71.734-29.641zm-675.945 581.387h646.759c16.12 0 29.186-13.066 29.186-29.185v-421.658c0-16.118-13.066-29.186-29.186-29.186h-646.759c-16.097 0-29.165 13.068-29.165 29.186v421.658c0 16.119 13.068 29.185 29.165 29.185z"/></svg>