<svg clip-rule="evenodd" fill-rule="evenodd" stroke-linejoin="round" stroke-miterlimit="2" viewBox="0 0 1042 1042" xmlns="http://www.w3.org/2000/svg"><path fill="rgb(255, 255, 255)" d="m525.067 48.269c27.712.827 52.099 9.138 73.159 24.933 22.223 16.668 37.409 37.965 45.557 63.892h200.009c29.031 0 53.88 10.337 74.548 31.013 20.675 20.667 31.012 45.516 31.012 74.547v646.696c0 28.726-10.337 53.316-31.012 73.769-20.668 20.454-45.517 30.68-74.548 30.68h-646.695c-28.727 0-53.317-10.226-73.77-30.68-20.453-20.453-30.679-45.043-30.679-73.769v-646.696c0-29.031 10.226-53.88 30.679-74.547 20.453-20.676 45.043-31.013 73.77-31.013h200.009c8.148-25.927 23.334-47.224 45.557-63.892 22.223-16.667 48.15-25 77.781-25l.556-.001c1.362.004 2.718.026 4.067.068zm-4.623 172.162c12.942 0 23.768-4.359 32.48-13.078 8.719-8.712 13.078-19.538 13.078-32.479 0-12.942-4.359-23.768-13.078-32.48-8.712-8.719-19.538-13.078-32.48-13.078-12.941 0-23.767 4.359-32.479 13.078-8.719 8.712-13.078 19.538-13.078 32.48 0 12.941 4.359 23.767 13.078 32.479 8.712 8.719 19.538 13.078 32.479 13.078zm-94.406 22.223h-191.269c-20.806 0-37.672 16.867-37.672 37.672v571.352c0 20.805 16.866 37.672 37.672 37.672h571.351c20.806 0 37.672-16.867 37.672-37.672v-571.352c0-9.992-3.969-19.573-11.034-26.638s-16.646-11.034-26.638-11.034h-190.158c-22.047 28.233-56.4 46.397-94.962 46.397s-72.915-18.164-94.962-46.397zm-73.578 518.233c-25.711-24.118-45.22-49.268-58.604-75.401-15.586-30.426-23.428-64.683-23.428-102.766 0-50.292 13.813-96.028 41.428-137.194 27.558-41.116 63.993-71.76 109.289-91.933l.038-.017c10.529-4.626 20.409-3.607 29.634 2.993 8.187 5.85 13.826 14.011 16.761 24.555l.003.012c2.935 10.609 1.928 20.923-3.077 30.953l-.009.016c-4.833 9.631-11.797 16.995-20.868 22.102l-.169.092c-27.223 14.508-48.778 35.051-64.65 61.59l-.001.003c-15.896 26.559-23.826 55.505-23.826 86.828 0 26.627 4.862 49.669 14.802 69.088l.001.002c9.885 19.328 23.352 36.202 40.381 50.638l3.89 2.431v-34.98c0-9.514 3.238-17.422 9.592-23.759 6.283-6.298 14.39-9.584 24.469-9.584 9.513 0 17.4 3.23 23.756 9.586 6.336 6.335 9.586 14.243 9.586 23.757v116.472c0 11.872-4.067 21.813-12.087 29.832-8.02 8.02-17.96 12.087-29.832 12.087h-115.759c-9.565 0-17.526-3.393-23.897-10.089-6.282-6.586-9.445-14.562-9.445-23.967 0-9.519 3.234-17.422 9.588-23.759 6.283-6.298 14.392-9.588 24.469-9.588zm336.862-360.622c25.571 25.724 45.212 53.213 58.948 82.444 15.582 33.135 23.303 65.054 23.303 95.722 0 49.781-13.326 95.017-39.949 135.69-26.558 40.578-62.206 71.445-106.941 92.61-10.343 5.124-20.508 4.656-30.501-1.46l-.007-.004c-9.149-5.613-15.299-13.941-18.283-25.093-3.49-10.67-2.722-21.05 2.324-31.116 4.836-9.685 12.093-17.092 21.78-22.215l.015-.008c26.709-14.048 47.876-34.437 63.499-61.143 15.676-26.82 23.511-55.9 23.511-87.261 0-19.776-5.118-39.979-15.23-60.645l-.001-.002c-10.279-21.025-23.169-39.764-38.666-56.239l-2.321-2.019v31.73c0 9.564-3.389 17.506-10.085 23.894l-.009.01c-6.584 6.261-14.561 9.439-23.963 9.439-9.457 0-17.495-3.322-24.116-9.944s-9.945-14.655-9.945-24.112v-115.762c0-11.887 4.067-21.808 12.091-29.829 7.98-7.983 18.133-12.09 30.543-12.09h115.048c9.404 0 17.381 3.166 23.967 9.448 6.696 6.37 10.09 14.327 10.09 23.898 0 9.458-3.324 17.489-9.945 24.112-6.622 6.621-14.654 9.945-24.112 9.945z"/></svg>