<svg height="48" viewBox="0 -960 960 960" width="48" xmlns="http://www.w3.org/2000/svg"><path fill="rgb(255, 255, 255)" d="m122.11-797.59c1.914-1.936 3.869-3.77 5.864-5.504.146-.135.293-.27.44-.406 2.342-2.002 4.74-3.869 7.193-5.599 15.074-10.674 32.233-16.137 51.476-16.392.469-.006.939-.009 1.411-.009h180.001c.251-.795.51-1.585.776-2.37 7.501-22.261 20.91-40.641 40.229-55.13 19.84-14.88 42.96-22.38 69.361-22.499.045 0 .09-.001.135-.001h.5.881c.066.001.132.003.198.004 26.22.199 49.194 7.698 68.925 22.496 20 15 33.667 34.17 41 57.5h180c26.127 0 48.49 9.3 67.09 27.91 18.168 18.161 27.465 39.906 27.894 65.245.011.61.016 1.221.016 1.835v582.02c0 22-6.641 41.19-19.96 57.592-2.421 3.012-5.08 6.005-7.941 8.797-18.599 18.419-40.98 27.601-67.099 27.601-3.154 0-586.86 0-586.946 0-23.739-1.194-44.221-10.394-61.441-27.601-8.679-8.617-15.312-18.172-19.9-28.528-2.778-6.259-4.806-12.82-6.083-19.685-1.089-5.841-1.637-11.902-1.637-18.176v-582.02c0-4.73.305-9.34.915-13.832 2.732-20.273 11.632-38.02 26.702-53.248zm316.39 6.09c0 10.821 3.385 19.995 10.155 27.528.52.569 1.061 1.129 1.622 1.682.015.024.029.048.044.071 7.592 7.577 16.964 11.477 28.118 11.708.1.001.199.001.299.001h.758c2.241 0 4.413-.141 6.515-.425 8.417-1.164 15.701-4.66 21.854-10.493.294-.281.584-.569.872-.862.934-.93 1.812-1.886 2.635-2.868 5.462-6.556 8.473-14.299 9.032-23.235.063-1.019.094-2.054.094-3.107 0-11.6-3.921-21.41-11.761-29.19-7.839-7.81-17.599-11.81-29.239-11.81-.125 0-.25 0-.375.001-11.474.085-21.091 4.082-28.846 11.809-5.614 5.557-9.219 12.149-10.82 19.69-.638 3.012-.957 6.178-.957 9.5zm40.996 597.01c-15.74 0-29.039-5.4-39.88-16.4-10.86-11-16.28-24.2-16.28-39.61 0-15.59 5.42-28.8 16.28-39.8 10.841-11 24.14-16.4 39.88-16.4 15.542 0 28.78 5.4 39.74 16.4 10.962 11 16.442 24.21 16.442 39.8 0 15.41-5.48 28.61-16.442 39.61-10.96 11-24.198 16.4-39.74 16.4zm-27.019-150.81c-6.661-7-9.981-15.39-9.981-25.6v-229.79c0-10.82 3.261-19.41 9.801-26 6.539-6.61 15.2-10.01 26.02-10.01s19.56 3.6 26.2 10.61c6.659 7 9.979 15.59 9.979 25.6v229.79c0 10.8-3.259 19.6-9.799 26.21-6.539 6.59-15.2 9.79-26.02 9.79s-19.56-3.4-26.2-10.6zm308.102-375.2c-6.098-6.129-14.243-9.705-22.819-10h-172.311c-19.84 25.414-50.757 41.81-85.452 41.81-34.696 0-65.613-16.396-85.453-41.81h-173.33c-17.949.593-32.351 15.284-32.714 33.171v515.673c.364 18.122 14.951 32.721 33.061 33.156h515.869c18.337-.442 33.07-15.466 33.07-33.8v-514.2c0-9-3.561-17.59-9.921-24z"/></svg>