<svg clip-rule="evenodd" fill-rule="evenodd" stroke-linejoin="round" stroke-miterlimit="2" viewBox="0 0 250 250" xmlns="http://www.w3.org/2000/svg"><path fill="rgb(255, 255, 255)" d="m152.587 101.999h46.431c5.754 0 10.747 4.877 12.042 11.762l22.654 120.462v.494c0 8.356-5.516 15.131-12.32 15.131h-163.666c-6.804 0-12.32-6.775-12.32-15.131v-.494l22.654-120.462c1.295-6.885 6.288-11.762 12.042-11.762h46.431s.086 47.477.117 64.766c.003 1.643-.527 3.221-1.472 4.384s-2.228 1.817-3.566 1.817c-3.589 0-8.485 0-12.619 0-1.362 0-2.589 1.007-3.11 2.552s-.233 3.323.729 4.505c7.264 8.921 19.704 24.198 27.042 33.21 1.566 1.923 3.69 3.003 5.905 3.003s4.339-1.08 5.905-3.003c7.338-9.012 19.777-24.289 27.041-33.21.963-1.182 1.251-2.96.73-4.505s-1.748-2.552-3.11-2.552c-4.135 0-9.031 0-12.619 0-1.338 0-2.621-.654-3.567-1.817-.945-1.163-1.474-2.741-1.471-4.384.031-17.289.117-64.766.117-64.766zm-26.052 0v-59.649c0-4.02-2.653-7.278-5.926-7.278h-39.057c-7.194 0-13.025-7.162-13.025-15.997 0-8.834 5.831-15.997 13.025-15.997h116.017c7.194 0 13.026 7.163 13.026 15.997 0 8.835-5.832 15.997-13.026 15.997h-39.056c-3.273 0-5.926 3.258-5.926 7.278v59.649z" transform="matrix(1.15465 0 0 .940203 -36.1441 6.09919)"/></svg>