<svg height="48" viewBox="0 -960 960 960" width="48" xmlns="http://www.w3.org/2000/svg"><path fill="rgb(255, 255, 255)" d="m480.4-55c-59.247 0-114.62-11.027-166.12-33.08-51.5-22.06-96.56-52.4-135.18-91.02s-68.96-83.66-91.02-135.12c-22.053-51.46-33.08-106.84-33.08-166.14 0-59.307 11.027-114.737 33.08-166.29 22.06-51.547 52.347-96.483 90.86-134.81 38.513-38.32 83.523-68.657 135.03-91.01 51.513-22.353 106.95-33.53 166.31-33.53s114.857 11.15 166.49 33.45c51.627 22.307 96.577 52.577 134.85 90.81s68.57 83.19 90.89 134.87c22.327 51.687 33.49 107.22 33.49 166.6 0 59.34-11.177 114.757-33.53 166.25s-52.69 96.447-91.01 134.86c-38.327 38.413-83.27 68.71-134.83 90.89-51.567 22.18-106.977 33.27-166.23 33.27zm.1-94c91.667 0 169.667-32.123 234-96.37s96.5-142.623 96.5-235.13c0-91.667-32.103-169.667-96.31-234s-142.603-96.5-235.19-96.5c-91.667 0-169.667 32.103-234 96.31s-96.5 142.603-96.5 235.19c0 91.667 32.123 169.667 96.37 234s142.623 96.5 235.13 96.5zm-.5-617.6c7.856 0 14.43 2.59 19.73 7.88 5.301 5.31 7.952 11.92 7.952 19.68v171.4l41.817-41.82c5.501-5.89 11.981-8.71 19.437-8.49 7.456.24 13.934 3.07 19.435 8.49 5.501 5.54 8.247 11.9 8.247 19.2s-2.746 13.77-8.247 19.67l-88.346 88.35c-2.745 2.82-5.89 4.94-9.424 6.48-3.533 1.64-7.067 2.36-10.601 2.36-3.535 0-7.069-.72-10.602-2.36-3.534-1.54-6.679-3.66-9.424-6.48l-88.346-88.35c-5.501-5.9-8.247-12.49-8.247-20.02 0-7.41 2.746-13.66 8.247-18.85 5.501-5.89 11.978-8.83 19.435-8.83 7.458 0 13.936 2.94 19.437 8.83l41.817 41.82v-171.4c0-7.76 2.651-14.37 7.952-19.68 5.3-5.29 11.874-7.88 19.731-7.88zm-61.549 522.72c-6.625 6.47-14.222 9.72-22.773 9.72-8.568 0-15.955-3.25-22.174-9.72-6.737-6.97-10.123-14.74-10.123-23.16 0-8.28 3.239-15.72 9.718-22.2l61.549-61.54-61.549-61.55c-6.479-6.65-9.718-14.25-9.718-22.84 0-8.42 3.239-15.89 9.718-22.2 7.029-6.63 14.723-10.03 23.081-10.03 8.373 0 15.793 3.23 22.271 9.71l61.549 61.56 61.549-61.56c6.624-6.48 14.221-9.71 22.789-9.71s15.954 3.23 22.157 9.71c6.755 6.96 10.123 14.74 10.123 23 0 8.43-3.239 15.87-9.718 22.36l-61.548 61.55 61.548 61.54c6.479 6.65 9.718 14.26 9.718 22.83 0 8.6-3.239 15.87-9.718 22.04-7.013 6.8-14.707 10.21-23.081 10.21-8.357 0-15.792-3.25-22.27-9.72l-61.549-61.56z"/></svg>