<svg height="48" viewBox="0 -960 960 960" width="48" xmlns="http://www.w3.org/2000/svg"><path fill="rgb(255, 255, 255)" d="m367.9-258.49c-8.794 0-16.153-3.03-22.09-8.96-5.934-5.93-8.902-13.32-8.902-22.17 0-8.69 2.968-16.06 8.902-22.02 5.937-5.94 13.296-8.95 22.09-8.95h224.2c8.783 0 16.153 3.01 22.09 8.95 5.934 5.96 8.902 13.33 8.902 22.02 0 8.85-2.968 16.24-8.902 22.17-5.937 5.93-13.307 8.96-22.09 8.96zm112.1-114.64c-8.797 0-16.155-2.91-22.09-8.83-5.934-5.94-8.902-13.34-8.902-22.04v-192.02l-46.818 46.96c-6.159 6.61-13.412 9.75-21.76 9.49-8.362-.26-15.615-3.44-21.762-9.49-6.159-6.2-9.232-13.32-9.232-21.5s3.073-15.56 9.232-22.15l98.912-98.91c3.073-3.04 6.594-5.4 10.55-7.26 3.956-1.71 7.914-2.63 11.87-2.63s7.914.92 11.87 2.63c3.956 1.86 7.464 4.22 10.549 7.26l98.913 98.91c6.144 6.59 9.231 14.11 9.231 22.42 0 8.42-3.087 15.42-9.231 21.23-6.159 6.61-13.415 9.88-21.762 9.88-8.361 0-15.616-3.27-21.761-9.88l-46.817-46.96v192.02c0 8.7-2.968 16.1-8.902 22.04-5.935 5.92-13.306 8.83-22.09 8.83zm-289.024 39.546c.523 1.104.922 2.214 1.204 3.325 1.759 3.501 3.566 6.898 5.421 10.179 6.554 13.19 9.017 26.56 7.384 40.34-1.634 13.78-7.384 25.21-17.225 34.45-9.842 9.26-21.161 13.58-33.954 13.39-12.795-.4-22.48-5.91-29.035-16.35-13.128-19.07-24.27-40.53-33.464-64.36-2.128-5.554-4.132-11.259-6.013-17.113-18.891-47.787-28.344-98.494-28.344-151.927 0-58.94 11.413-113.91 34.217-165.13 6.001-13.421 12.55-26.412 19.648-38.968 4.032-7.886 8.356-15.583 12.972-23.092 1.844-3.253 4.055-6.068 6.635-8.442 15.581-22.848 33.218-44.033 52.908-63.498 17.838-17.736 37.145-33.73 57.921-48.027 2.976-3.762 6.799-7.07 11.466-9.943 15.982-9.762 33.29-18.541 51.912-26.333 5.02-2.364 10.105-4.653 15.258-6.867 52.429-22.28 107.904-33.55 166.425-33.55 59.604 0 116.071 12.37 169.428 37.52 9.242 4.322 18.3 8.921 27.177 13.799 9.387 4.679 18.539 9.822 27.456 15.431 2.547 1.659 4.845 3.472 6.896 5.444 28.93 19.358 55.694 42.023 80.302 67.996v-51.24c0-11.25 3.687-20.54 11.039-27.82 7.35-7.28 16.733-10.8 28.145-10.8 11.413 0 20.795 3.52 28.146 10.8 7.352 7.28 11.038 16.57 11.038 27.82v145.04c0 14.58-4.967 26.93-14.9 36.87-9.934 9.94-22.253 15.02-36.977 15.02h-146.149c-10.839 0-20.154-3.99-27.991-11.71-7.836-7.72-11.744-17.22-11.744-28.7 0-11.25 3.687-20.96 11.037-28.7 7.352-7.72 16.933-11.48 28.698-11.48h37.981c-31.104-31.13-66.293-55.63-105.564-73.5-39.272-18.11-80.596-26.93-124.018-26.93-89.78 0-166.292 30.45-229.582 91.38-63.29 60.94-94.923 135.54-94.923 224.07 0 51.446 8.876 108.8 29.169 151.606zm130.636 136.514c11.811 6.51 24.113 12.42 36.907 17.33 12.796 4.93 25.433 8.86 37.891 12.21 13.13 4.52 23.781 12.21 31.988 22.63 8.208 10.43 12.303 22.27 12.303 35.44 0 13.177-4.921 23.624-14.763 31.487-9.843 7.883-20.668 10.424-32.479 7.883-26.909-4.533-52.497-11.235-76.769-20.083-24.269-8.877-46.59-19.677-66.926-32.077-11.16-6.5-17.066-16.35-17.714-29.53-.651-13.2 3.603-24.61 12.795-34.44 9.841-9.85 21.651-15.74 35.432-17.72 13.778-1.98 27.556.39 41.335 6.87zm316.913 0c13.78-7.28 27.894-9.82 42.322-7.87 14.428 1.97 26.574 7.87 36.415 17.73 9.843 9.83 14.114 21.44 12.794 35.03-1.319 13.39-7.222 23.43-17.716 29.93-20.333 13.19-42.968 24.202-67.908 33.064-24.939 8.846-51.513 15.746-79.722 21.067-12.46 2.539-23.128-.394-31.985-8.87-8.859-8.453-13.288-19.294-13.288-32.471 0-12.4 3.937-24.02 11.811-34.45s18.699-18.12 32.479-22.64c11.81-2.55 23.955-6.49 36.414-11.83 12.461-5.3 25.256-11.39 38.384-18.69zm156.488-198.81c3.938-13.77 11.163-24.98 21.655-33.44 10.49-8.48 22.636-12.81 36.415-12.81 12.459 0 22.636 4.53 30.509 13.78 7.875 9.26 10.827 20.08 8.859 32.47-6.555 29.51-14.113 56.31-22.636 80.31-8.523 23.83-18.701 45.69-30.511 65.34-6.555 10.45-16.238 16.38-29.035 17.74-12.794 1.37-24.111-2.94-33.954-12.8-9.841-9.83-15.59-21.44-17.224-34.84-1.635-13.59.827-27.16 7.383-40.94 5.903-9.85 11.16-21.06 15.746-33.85 4.586-12.81 8.859-26.58 12.793-40.96z"/></svg>