<svg height="48" viewBox="0 -960 960 960" width="48" xmlns="http://www.w3.org/2000/svg"><path fill="rgb(255, 255, 255)" d="m367.9-258.49c-8.794 0-16.153-3.03-22.09-8.96-5.934-5.93-8.902-13.32-8.902-22.17 0-8.69 2.968-16.06 8.902-22.02 5.937-5.94 13.296-8.95 22.09-8.95h224.2c8.783 0 16.153 3.01 22.09 8.95 5.934 5.96 8.902 13.33 8.902 22.02 0 8.85-2.968 16.24-8.902 22.17-5.937 5.93-13.307 8.96-22.09 8.96zm118.279 203.99c-58.786 0-114.283-11.258-166.534-33.775-52.253-22.295-97.684-52.975-136.315-91.615-38.631-38.62-69.36-83.89-92.163-135.76-22.804-51.87-34.217-107.29-34.217-166 0-58.94 11.413-113.91 34.217-165.13 22.803-51 53.532-95.81 92.163-134 38.631-38.41 84.15-68.65 136.557-91.17 52.429-22.28 107.904-33.55 166.425-33.55 59.604 0 116.071 12.37 169.428 37.52 53.355 24.95 100.617 59.17 141.831 102.67v-51.24c0-11.25 3.687-20.54 11.039-27.82 7.35-7.28 16.733-10.8 28.145-10.8 11.413 0 20.795 3.52 28.146 10.8 7.352 7.28 11.038 16.57 11.038 27.82v145.04c0 14.58-4.967 26.93-14.9 36.87-9.934 9.94-22.253 15.02-36.977 15.02h-146.149c-10.839 0-20.154-3.99-27.991-11.71-7.836-7.72-11.744-17.22-11.744-28.7 0-11.25 3.687-20.96 11.037-28.7 7.352-7.72 16.933-11.48 28.698-11.48h37.981c-31.104-31.13-66.293-55.63-105.564-73.5-39.272-18.11-80.596-26.93-124.018-26.93-89.78 0-166.292 30.45-229.582 91.38-63.29 60.94-94.923 135.54-94.923 224.07 0 90.51 31.412 167.77 94.216 231.35 62.826 63.8 139.603 95.58 230.289 95.58 81.192 0 150.598-26.49 208.234-79.46 57.639-52.99 91.988-118.11 103.025-195.37 2.938-14.14 9.758-25.17 20.421-33.78 10.662-8.38 23.024-12.35 37.043-11.48 14.679.67 26.798 6.18 36.356 16.56 9.56 10.15 13.246 22.08 11.039 35.33-12.761 105.28-58.28 193.6-136.513 264.89-78.235 71.307-171.481 107.07-279.738 107.07zm-6.08-408.3c-8.764 0-16.092-2.99-21.988-8.76-5.916-5.96-8.864-13.34-8.864-21.9v-101.2l-46.624 46.59c-6.134 6.58-13.365 9.76-21.67 9.58-8.325-.22-15.555-3.4-21.669-9.58-6.134-6.17-9.203-13.14-9.203-21.3 0-8.17 3.069-15.54 9.203-22.11l98.488-98.38c3.068-3.21 6.573-5.39 10.516-7.39 3.924-1.58 7.868-2.58 11.811-2.58s7.887 1 11.83 2.58c3.924 2 7.43 4.18 10.497 7.39l98.509 98.38c6.114 6.57 9.182 14.14 9.182 22.3 0 8.37-3.068 15.34-9.182 21.11-6.135 6.58-13.365 9.96-21.67 9.96-8.325 0-15.556-3.38-21.669-9.96l-46.626-46.59v101.2c0 8.56-2.967 15.94-8.863 21.9-5.916 5.77-13.264 8.76-22.008 8.76zm-111.615 100.99c-8.762 0-16.092-3-22.006-8.99-5.896-5.76-8.864-13.14-8.864-21.91 0-8.75 2.968-16.12 8.864-22.09 5.914-5.8 13.244-8.78 22.006-8.78h223.27c8.742 0 16.091 2.98 22.006 8.78 5.896 5.97 8.864 13.34 8.864 22.09 0 8.77-2.968 16.15-8.864 21.91-5.915 5.99-13.264 8.99-22.006 8.99z"/></svg>