<svg height="48" viewBox="0 -960 960 960" width="48" xmlns="http://www.w3.org/2000/svg"><path fill="rgb(255, 255, 255)" d="m229-122c-26.533 0-48.833-9.21-66.9-27.63-18.067-18.413-27.1-40.537-27.1-66.37v-27c0-29.533 7.61-55.373 22.83-77.52 15.22-22.14 34.943-38.967 59.17-50.48 22-9.333 43.557-17.623 64.67-24.87 21.113-7.24 41.89-13.95 62.33-20.13 18-4 35.863-7.067 53.59-9.2s35.53-3.4 53.41-3.8c12.587-1.333 23.567 2.387 32.94 11.16 9.373 8.78 14.06 19.727 14.06 32.84 0 13.553-4.5 24.94-13.5 34.16-9 9.227-20.167 14.507-33.5 15.84-14.807 0-29.34.833-43.6 2.5-14.267 1.667-28.257 4.11-41.97 7.33-17.553 3.913-34.68 8.753-51.38 14.52s-34.383 12.983-53.05 21.65c-9.333 4.473-17 11.367-23 20.68s-9 19.087-9 29.32v23h250c13.167 0 24.293 4.56 33.38 13.68 9.08 9.113 13.62 20.28 13.62 33.5 0 13.213-4.54 24.32-13.62 33.32-9.087 9-20.213 13.5-33.38 13.5zm251-372c-48.667 0-90-17-124-51s-51-75.5-51-124.5 17-90.333 51-124 75.333-50.5 124-50.5 90.167 16.833 124.5 50.5 51.5 75 51.5 124-17.167 90.5-51.5 124.5-75.833 51-124.5 51zm0-94c22.667 0 41.833-7.833 57.5-23.5s23.5-34.833 23.5-57.5-7.767-41.833-23.3-57.5c-15.527-15.667-34.693-23.5-57.5-23.5-22.8 0-42.033 7.893-57.7 23.68s-23.5 34.727-23.5 56.82c0 23 7.833 42.333 23.5 58s34.833 23.5 57.5 23.5zm182.882 313.95c4.682-4.44 7.015-10.16 7.015-16.83 0-6.81-2.301-12.69-6.904-17.45-4.602-4.92-10.285-7.3-17.031-7.3-6.744 0-12.522 2.38-17.378 7.3-4.841 4.6-7.254 10.48-7.254 17.14 0 6.83 2.381 12.54 7.158 17.14 4.777 4.61 10.523 7.14 17.268 7.14 6.746 0 12.475-2.53 17.126-7.14zm89.451 0c4.682-4.44 7.015-10.16 7.015-16.83 0-6.81-2.301-12.69-6.904-17.45-4.602-4.92-10.268-7.3-17.046-7.3-6.746 0-12.363 2.38-16.871 7.3-4.475 4.6-6.73 10.48-6.73 17.14 0 6.83 2.222 12.54 6.65 17.14 4.413 4.61 10.016 7.14 16.76 7.14 6.746 0 12.476-2.53 17.126-7.14zm90.467 0c4.682-4.44 7.015-10.16 7.015-16.83 0-6.81-2.301-12.69-6.904-17.45-4.602-4.92-10.268-7.3-17.029-7.3-6.746 0-12.46 2.38-17.126 7.3-4.65 4.6-6.983 10.48-6.983 17.14 0 6.83 2.285 12.54 6.888 17.14 4.602 4.61 10.285 7.14 17.03 7.14 6.746 0 12.459-2.53 17.109-7.14zm-106.799 152.05c-23.457 0-45.503-4.44-66.12-13.17-20.617-8.89-38.632-20.96-54.057-36.35-15.412-15.39-27.522-33.48-36.331-53.97-8.808-20.62-13.205-42.69-13.205-66.17 0-23.66 4.397-45.88 13.205-66.51 8.809-20.63 20.887-38.57 36.267-53.96 15.378-15.24 33.362-27.3 53.962-36.19 20.617-9.05 42.663-13.49 66.137-13.49 23.743 0 45.948 4.44 66.596 13.49 20.649 8.89 38.615 20.95 53.9 36.19 15.267 15.23 27.362 33.17 36.282 53.81 8.903 20.63 13.363 42.85 13.363 66.66 0 23.48-4.46 45.55-13.38 66.17-8.935 20.49-21.029 38.58-36.329 53.97-15.301 15.39-33.251 27.46-53.836 36.35-20.57 8.73-42.725 13.17-66.454 13.17z"/></svg>