<svg clip-rule="evenodd" fill-rule="evenodd" stroke-linejoin="round" stroke-miterlimit="2" viewBox="0 0 200 200" xmlns="http://www.w3.org/2000/svg"><path fill="rgb(255, 255, 255)" d="m267.82-124c-13.213 0-24.32-4.543-33.32-13.63-9-9.08-13.5-20.203-13.5-33.37v-434c0-72.333 25.25-133.917 75.75-184.75s112.25-76.25 185.25-76.25c72.333 0 133.917 25.417 184.75 76.25s76.25 112.417 76.25 184.75v172l57-57c9.333-9.333 20.167-14 32.5-14s23.5 4.667 33.5 14c9.333 9.333 14 20.333 14 33s-4.667 23.667-14 33l-137 136c-4.667 4.667-9.877 8.333-15.63 11-5.76 2.667-11.927 4-18.5 4-5.913 0-11.87-1.333-17.87-4s-11-6.333-15-11l-137-136c-9.333-9.333-14-20.167-14-32.5s5-23.5 15-33.5c9.333-9.333 19.833-14.167 31.5-14.5s22.5 4.167 32.5 13.5l58 58v-172c0-45.853-16.22-84.983-48.66-117.39s-71.607-48.61-117.5-48.61c-46.56 0-86.007 16.203-118.34 48.61s-48.5 71.537-48.5 117.39v434c0 13.167-4.56 24.29-13.68 33.37-9.113 9.087-20.28 13.63-33.5 13.63z" fill-rule="nonzero" transform="matrix(0 -.208333 .208333 0 203.125 214.688)"/></svg>