<svg clip-rule="evenodd" fill-rule="evenodd" stroke-linejoin="round" stroke-miterlimit="2" viewBox="0 0 48 48" xmlns="http://www.w3.org/2000/svg"><path fill="rgb(255, 255, 255)" d="m397.959-83.403c-40.583-.665-80.037-17.707-106.526-44.197-14.009-14.009-25.376-31.643-33.076-51.154-4.83-12.165-3.321-25.933 4.03-36.762 7.35-10.83 22.165-18.419 35.254-18.421.868-1.303-.842-.199.018-.199 16.387.004 31.182 9.811 37.568 24.903.926 3.484 2.587 6.691 4.517 9.903 6.301 10.49 13.9 17.79 24.37 23.84 10.47 6.04 20.598 8.97 32.83 9.19 12.319.21 23.146-2.06 34.892-9.19 12.043-6.61 19.429-14.85 25.402-25.62 5.93-10.7 8.46-20.94 8.46-33.03s-2.53-22.32-8.46-33.02c-5.973-10.78-13.357-19.02-25.399-25.63-10.744-6.48-21.323-9.32-33.864-9.08h-204.288c-11.001 0-21.552-4.37-29.331-12.149s-12.149-18.33-12.149-29.331c0-.017 0-.033 0-.05 0-11.001 4.37-21.552 12.149-29.331s18.33-12.149 29.331-12.149h204.288c28.308.29 55.893 8.23 77.522 21.23 21.704 13.04 40.672 32.75 53.021 54.14s19.933 47.67 20.376 72.99c.442 25.23-6.479 53.08-20.377 77.74-13.366 22.64-33.219 42.51-55.173 55.18-21.955 12.683-49.099 19.939-75.385 20.197zm327.691-136.537c-40.583-.67-80.037-17.71-106.526-44.2-13.777-13.777-24.999-31.06-32.69-50.186-5.005-12.326-3.551-26.335 3.879-37.372 7.429-11.036 21.333-19.126 34.637-19.128.512-1.322-.449.15.06.15 16.54.006 31.481 9.878 37.975 25.089.92 3.417 2.556 6.565 4.45 9.717 6.301 10.49 13.9 17.79 24.37 23.84s20.598 8.97 32.83 9.19c12.319.21 23.147-2.06 34.893-9.18 12.043-6.62 19.428-14.86 25.401-25.63 5.93-10.7 8.46-20.94 8.46-33.03s-2.53-22.32-8.46-33.02c-5.973-10.78-13.357-19.02-25.399-25.63-10.744-6.48-21.323-9.32-33.864-9.08h-586.59c-22.909 0-41.48-18.571-41.48-41.48 0-.017 0-.033 0-.05 0-22.909 18.571-41.48 41.48-41.48h586.59c28.308.3 55.893 8.23 77.522 21.23 21.704 13.04 40.672 32.75 53.021 54.14s19.933 47.67 20.376 72.99c.442 25.23-6.479 53.08-20.377 77.75-13.366 22.64-33.219 42.5-55.173 55.17-21.955 12.68-49.099 19.94-75.385 20.2zm-109.214-355h-368.134c-11.001 0-21.552-4.37-29.331-12.149s-12.149-18.33-12.149-29.331c0-.02 0-.04 0-.06 0-11.001 4.37-21.552 12.149-29.331s18.33-12.149 29.331-12.149h368.134c13.734.3 24.251-3.14 34.81-9.49 10.486-6.3 17.794-13.9 23.839-24.37 6.046-10.47 8.972-20.6 9.186-32.83.215-12.32-2.061-23.15-9.185-34.89-6.611-12.04-14.851-19.43-25.627-25.4-10.699-5.93-20.934-8.46-33.023-8.46-12.09 0-22.325 2.53-33.024 8.46-10.775 5.97-19.016 13.36-25.626 25.4-1.983 3.287-3.625 6.56-4.942 9.878-5.718 14.186-19.48 23.477-34.776 23.477-.865.505-1.737.505-2.614.505-14.123.005-27.3-7.102-35.054-18.906-7.753-11.805-9.041-26.72-3.426-39.68 3.18-6.565 6.375-12.97 9.954-18.924 13.042-21.7 32.751-40.67 54.14-53.01 21.388-12.35 47.669-19.93 72.984-20.38 25.229-.44 53.09 6.47 77.753 20.36 24.367 14.41 44.288 35.07 56.521 57.14 12.275 22.15 18.848 48.7 18.848 73.4s-6.573 51.25-18.848 73.4c-12.233 22.07-32.154 42.74-56.521 57.15-22.47 12.69-49.566 19.95-75.369 20.19z" fill-rule="nonzero" transform="matrix(.05 0 0 .05 0 48)"/></svg>