<?xml version="1.0" encoding="utf-8"?>
<svg clip-rule="evenodd" fill-rule="evenodd" stroke-linejoin="round" stroke-miterlimit="2" viewBox="0 0 48 48" xmlns="http://www.w3.org/2000/svg">
  <path fill="rgb(255, 255, 255)" d="M 44.993 22.081 C 46.342 23.662 47.133 25.687 47.15 27.857 L 47.15 38.39 C 47.128 39.873 46.507 41.312 45.539 42.279 C 44.572 43.247 43.133 43.868 41.65 43.89 L 6.35 43.89 C 4.927 43.871 3.479 43.271 2.461 42.279 C 1.469 41.26 0.869 39.812 0.85 38.39 L 0.85 9.56 C 0.869 8.137 1.469 6.69 2.461 5.671 C 3.479 4.679 4.927 4.079 6.35 4.06 L 19.47 4.06 C 21.5 4.075 23.539 4.812 25.108 6.096 L 25.259 6.216 L 39.494 6.216 C 40.977 6.238 42.415 6.859 43.382 7.827 C 44.35 8.795 44.971 10.233 44.993 11.716 Z M 40.508 25.248 L 21.649 10.27 C 21.022 9.732 20.295 9.465 19.47 9.48 L 8.533 9.48 C 7.896 9.461 7.371 9.68 6.932 10.144 C 6.469 10.58 6.251 11.106 6.27 11.742 L 6.27 36.206 C 6.251 36.843 6.468 37.369 6.932 37.804 C 7.37 38.268 7.896 38.487 8.533 38.468 L 39.467 38.468 C 40.104 38.487 40.629 38.268 41.067 37.806 C 41.531 37.37 41.748 36.844 41.729 36.206 L 41.729 27.857 C 41.752 26.812 41.334 25.913 40.52 25.257 Z M 19.281 35.865 C 18.713 35.846 18.12 35.62 17.719 35.22 C 17.319 34.819 17.092 34.226 17.073 33.657 L 17.073 21.628 C 17.092 21.055 17.331 20.473 17.718 20.055 C 18.132 19.664 18.712 19.422 19.281 19.403 L 28.403 19.403 C 28.975 19.422 29.559 19.663 29.978 20.053 C 30.369 20.472 30.61 21.054 30.629 21.628 L 30.629 33.657 C 30.61 34.226 30.381 34.821 29.975 35.222 C 29.57 35.622 28.974 35.846 28.403 35.865 Z M 19.781 33.157 L 27.903 33.157 L 27.903 22.128 L 27.012 22.128 L 27.012 25.771 C 26.98 26.07 26.78 26.416 26.538 26.594 C 26.267 26.708 25.875 26.704 25.606 26.585 L 24.934 26.233 C 24.87 26.178 24.821 26.162 24.733 26.162 C 24.648 26.162 24.652 26.149 24.601 26.199 C 24.582 26.212 24.563 26.224 24.542 26.235 L 23.833 26.598 C 23.565 26.717 23.194 26.703 22.926 26.584 C 22.701 26.405 22.487 26.063 22.487 25.771 L 22.487 22.128 L 19.781 22.128 Z"/>
</svg>