<?xml version="1.0" encoding="utf-8"?>
<svg clip-rule="evenodd" fill-rule="evenodd" stroke-linejoin="round" stroke-miterlimit="2" viewBox="0 0 48 48" xmlns="http://www.w3.org/2000/svg">
  <path fill="rgb(255, 255, 255)" d="M 41.821 25.023 C 43.021 26.344 43.697 28.074 43.697 29.882 L 43.697 39.042 C 43.697 41.444 41.75 43.39 39.349 43.39 L 8.651 43.39 C 7.497 43.39 6.391 42.932 5.577 42.117 C 4.762 41.301 4.303 40.195 4.303 39.042 L 4.303 13.971 C 4.303 12.817 4.762 11.712 5.577 10.896 C 6.391 10.081 7.497 9.623 8.651 9.623 L 13.82 9.623 L 11.132 7.774 C 10.306 7.206 10.058 6.035 10.593 5.157 C 11.153 4.236 12.318 3.986 13.181 4.582 L 20.597 9.643 C 21.983 9.746 23.311 10.246 24.422 11.084 C 27.325 9.12 33.892 4.584 33.892 4.584 L 33.894 4.583 C 34.762 3.986 35.923 4.236 36.484 5.157 C 37.018 6.035 36.77 7.206 35.944 7.774 L 30.532 11.498 L 37.474 11.498 C 39.875 11.498 41.821 13.445 41.821 15.846 L 41.821 25.023 Z M 38.63 27.276 L 22.226 14.248 C 21.616 13.743 20.852 13.467 20.061 13.467 L 10.55 13.467 C 9.912 13.467 9.302 13.721 8.851 14.171 C 8.4 14.621 8.147 15.232 8.147 15.869 L 8.147 37.143 C 8.147 37.78 8.4 38.391 8.851 38.84 C 9.302 39.291 9.912 39.545 10.55 39.545 L 37.45 39.545 C 38.088 39.545 38.698 39.291 39.149 38.842 C 39.6 38.391 39.852 37.78 39.852 37.143 L 39.852 29.882 C 39.852 28.882 39.411 27.934 38.646 27.289 L 38.63 27.276 Z M 30.479 24.28 C 31.633 24.28 32.57 25.217 32.57 26.371 L 32.57 34.754 C 32.57 35.908 31.633 36.843 30.479 36.843 L 16.598 36.843 C 15.443 36.843 14.507 35.908 14.507 34.754 L 14.507 26.371 C 14.507 25.217 15.443 24.28 16.598 24.28 L 30.479 24.28 Z"/>
</svg>