<?xml version="1.0" encoding="utf-8"?>
<svg clip-rule="evenodd" fill-rule="evenodd" stroke-linejoin="round" stroke-miterlimit="2" viewBox="0 0 48 48" xmlns="http://www.w3.org/2000/svg">
  <path fill="rgb(255, 255, 255)" d="M 44.493 22.269 C 45.873 23.788 46.65 25.778 46.65 27.857 L 46.65 38.39 C 46.65 41.152 44.412 43.39 41.65 43.39 L 6.35 43.39 C 5.023 43.39 3.751 42.863 2.815 41.926 C 1.877 40.988 1.35 39.716 1.35 38.39 L 1.35 9.56 C 1.35 8.233 1.877 6.962 2.815 6.024 C 3.751 5.087 5.023 4.56 6.35 4.56 L 19.47 4.56 C 21.415 4.56 23.3 5.241 24.795 6.486 L 25.085 6.716 L 39.494 6.716 C 42.255 6.716 44.493 8.955 44.493 11.716 Z M 40.824 24.86 L 21.96 9.878 C 21.259 9.298 20.38 8.98 19.47 8.98 L 8.533 8.98 C 7.8 8.98 7.098 9.272 6.579 9.79 C 6.061 10.307 5.77 11.01 5.77 11.742 L 5.77 36.206 C 5.77 36.939 6.061 37.642 6.579 38.158 C 7.098 38.676 7.8 38.968 8.533 38.968 L 39.467 38.968 C 40.2 38.968 40.902 38.676 41.42 38.16 C 41.939 37.642 42.229 36.939 42.229 36.206 L 42.229 27.857 C 42.229 26.707 41.722 25.616 40.842 24.875 Z M 23.99 26.692 C 23.878 26.692 23.768 26.67 23.658 26.631 C 23.547 26.589 23.443 26.517 23.345 26.411 L 19.226 21.159 C 19.005 20.892 18.963 20.602 19.1 20.296 C 19.24 19.988 19.484 19.833 19.836 19.833 L 21.303 19.833 L 21.303 16.569 C 21.303 16.341 21.382 16.145 21.539 15.978 C 21.7 15.813 21.893 15.732 22.124 15.732 L 25.857 15.732 C 26.086 15.732 26.282 15.813 26.449 15.978 C 26.613 16.145 26.696 16.341 26.696 16.569 L 26.696 19.833 L 28.161 19.833 C 28.514 19.833 28.759 19.988 28.896 20.296 C 29.034 20.602 28.998 20.892 28.789 21.159 L 24.636 26.411 C 24.537 26.517 24.434 26.589 24.323 26.631 C 24.213 26.67 24.103 26.692 23.99 26.692 Z M 25.072 28.611 L 25.231 29.224 C 25.41 29.283 25.584 29.356 25.752 29.44 L 26.299 29.118 C 26.464 29.022 26.667 29.032 26.82 29.146 C 27.187 29.419 27.512 29.745 27.786 30.112 C 27.9 30.264 27.911 30.47 27.813 30.633 L 27.493 31.18 C 27.577 31.348 27.649 31.523 27.708 31.701 L 28.323 31.86 C 28.505 31.908 28.643 32.061 28.672 32.248 C 28.738 32.701 28.738 33.162 28.672 33.615 C 28.643 33.802 28.505 33.955 28.323 34.003 L 27.708 34.162 C 27.649 34.34 27.577 34.515 27.493 34.683 L 27.813 35.23 C 27.911 35.393 27.9 35.599 27.786 35.751 C 27.512 36.118 27.187 36.442 26.82 36.717 C 26.667 36.831 26.464 36.842 26.299 36.745 L 25.752 36.423 C 25.584 36.507 25.41 36.58 25.231 36.639 L 25.072 37.253 C 25.024 37.438 24.871 37.574 24.684 37.603 C 24.231 37.668 23.77 37.668 23.318 37.603 C 23.129 37.574 22.976 37.438 22.93 37.253 L 22.771 36.639 C 22.592 36.58 22.417 36.507 22.249 36.423 L 21.703 36.745 C 21.539 36.842 21.333 36.831 21.181 36.717 C 20.814 36.442 20.488 36.118 20.215 35.751 C 20.103 35.599 20.091 35.393 20.187 35.23 L 20.509 34.683 C 20.425 34.515 20.351 34.34 20.293 34.162 L 19.679 34.003 C 19.494 33.955 19.357 33.802 19.33 33.615 C 19.264 33.162 19.264 32.701 19.33 32.248 C 19.357 32.061 19.494 31.908 19.679 31.86 L 20.291 31.701 C 20.351 31.523 20.425 31.348 20.509 31.18 L 20.187 30.633 C 20.091 30.47 20.103 30.264 20.215 30.112 C 20.488 29.745 20.814 29.419 21.181 29.146 C 21.333 29.032 21.539 29.022 21.703 29.118 L 22.249 29.44 C 22.417 29.356 22.592 29.283 22.771 29.224 L 22.93 28.611 C 22.976 28.425 23.129 28.289 23.318 28.26 C 23.77 28.195 24.231 28.195 24.684 28.26 C 24.871 28.289 25.024 28.425 25.072 28.611 Z M 24.001 30.954 C 22.909 30.954 22.023 31.84 22.023 32.932 C 22.023 34.024 22.909 34.91 24.001 34.91 C 25.093 34.91 25.979 34.024 25.979 32.932 C 25.979 31.84 25.093 30.954 24.001 30.954 Z"/>
</svg>