<?xml version="1.0" encoding="utf-8"?>
<svg clip-rule="evenodd" fill-rule="evenodd" stroke-linejoin="round" stroke-miterlimit="2" viewBox="0 0 48 48" xmlns="http://www.w3.org/2000/svg">
  <path fill="rgb(255, 255, 255)" d="M 44.493 22.269 C 45.873 23.788 46.65 25.778 46.65 27.857 L 46.65 38.39 C 46.65 41.152 44.412 43.39 41.65 43.39 L 6.35 43.39 C 5.023 43.39 3.751 42.863 2.815 41.926 C 1.877 40.988 1.35 39.716 1.35 38.39 L 1.35 9.56 C 1.35 8.233 1.877 6.962 2.815 6.024 C 3.751 5.087 5.023 4.56 6.35 4.56 L 19.47 4.56 C 21.415 4.56 23.3 5.241 24.795 6.486 L 25.085 6.716 L 39.494 6.716 C 42.255 6.716 44.493 8.955 44.493 11.716 Z M 40.824 24.86 L 21.96 9.878 C 21.259 9.298 20.38 8.98 19.47 8.98 L 8.533 8.98 C 7.8 8.98 7.098 9.272 6.579 9.79 C 6.061 10.307 5.77 11.01 5.77 11.742 L 5.77 36.206 C 5.77 36.939 6.061 37.642 6.579 38.158 C 7.098 38.676 7.8 38.968 8.533 38.968 L 39.467 38.968 C 40.2 38.968 40.902 38.676 41.42 38.16 C 41.939 37.642 42.229 36.939 42.229 36.206 L 42.229 27.857 C 42.229 26.707 41.722 25.616 40.842 24.875 Z M 24.003 25.547 C 24.312 25.547 24.58 25.433 24.807 25.205 C 25.033 24.977 25.147 24.708 25.147 24.399 C 25.147 24.089 25.032 23.821 24.805 23.595 C 24.576 23.368 24.308 23.255 23.998 23.255 C 23.688 23.255 23.42 23.369 23.193 23.597 C 22.967 23.824 22.854 24.093 22.854 24.403 C 22.854 24.713 22.968 24.981 23.196 25.207 C 23.424 25.434 23.693 25.547 24.003 25.547 Z M 23.748 27.821 L 21.159 34.91 C 21.15 34.934 21.139 34.958 21.126 34.981 L 21.02 35.172 C 20.995 35.218 20.962 35.259 20.924 35.295 L 20.303 35.873 C 20.03 36.074 19.606 36.163 19.277 36.091 C 18.961 35.945 18.681 35.604 18.601 35.27 L 18.495 34.463 C 18.49 34.427 18.49 34.39 18.493 34.353 L 18.514 34.12 C 18.518 34.077 18.528 34.034 18.542 33.993 L 21.238 26.628 C 21.257 26.578 21.282 26.533 21.314 26.492 C 20.851 25.897 20.592 25.157 20.592 24.401 C 20.592 23.645 20.845 22.902 21.266 22.318 C 21.706 21.753 22.103 21.49 22.63 21.263 L 22.63 20.559 C 22.648 20.221 22.805 19.838 23.025 19.589 C 23.276 19.364 23.658 19.189 23.996 19.189 C 24.332 19.189 24.714 19.362 24.966 19.585 C 25.194 19.836 25.352 20.22 25.371 20.559 L 25.371 21.263 C 25.898 21.49 26.295 21.753 26.735 22.318 C 27.155 22.902 27.408 23.645 27.408 24.401 C 27.408 25.167 27.142 25.917 26.667 26.516 C 26.698 26.555 26.722 26.6 26.74 26.647 L 29.458 33.991 C 29.452 33.975 29.445 33.96 29.438 33.945 C 29.491 34.112 29.508 34.367 29.47 34.534 C 29.478 34.507 29.483 34.479 29.486 34.451 L 29.399 35.265 C 29.32 35.601 29.036 35.946 28.721 36.092 C 28.392 36.163 27.965 36.07 27.692 35.868 L 27.064 35.283 C 26.953 35.159 26.844 34.919 26.811 34.738 C 26.811 34.798 26.822 34.857 26.842 34.913 L 24.21 27.845 C 24.205 27.831 24.201 27.817 24.197 27.803 C 24.132 27.807 24.066 27.809 24 27.809 C 23.918 27.809 23.836 27.806 23.755 27.8 C 23.752 27.807 23.75 27.814 23.748 27.821 Z"/>
</svg>