<?xml version="1.0" encoding="utf-8"?>
<svg clip-rule="evenodd" fill-rule="evenodd" stroke-linejoin="round" stroke-miterlimit="2" viewBox="0 0 48 48" xmlns="http://www.w3.org/2000/svg">
  <path fill="rgb(255, 255, 255)" d="M 44.493 22.269 C 45.873 23.788 46.65 25.778 46.65 27.857 L 46.65 38.39 C 46.65 41.152 44.412 43.39 41.65 43.39 L 6.35 43.39 C 5.023 43.39 3.751 42.863 2.815 41.926 C 1.877 40.988 1.35 39.716 1.35 38.39 L 1.35 9.56 C 1.35 8.233 1.877 6.962 2.815 6.024 C 3.751 5.087 5.023 4.56 6.35 4.56 L 19.47 4.56 C 21.415 4.56 23.3 5.241 24.795 6.486 L 25.085 6.716 L 39.494 6.716 C 42.255 6.716 44.493 8.955 44.493 11.716 Z M 40.824 24.86 L 21.96 9.878 C 21.259 9.298 20.38 8.98 19.47 8.98 L 8.533 8.98 C 7.8 8.98 7.098 9.272 6.579 9.79 C 6.061 10.307 5.77 11.01 5.77 11.742 L 5.77 36.206 C 5.77 36.939 6.061 37.642 6.579 38.158 C 7.098 38.676 7.8 38.968 8.533 38.968 L 39.467 38.968 C 40.2 38.968 40.902 38.676 41.42 38.16 C 41.939 37.642 42.229 36.939 42.229 36.206 L 42.229 27.857 C 42.229 26.707 41.722 25.616 40.842 24.875 Z M 35.112 25.288 L 35.591 25.583 L 35.504 25.764 C 35.351 26.103 35.309 26.194 35.286 26.239 C 34.435 27.939 32.759 27.962 31.975 27.939 C 29.994 32.904 25.769 35.647 20.062 35.647 C 17.427 35.647 15.424 34.81 14.073 33.154 C 12.968 31.802 12.544 30.125 12.416 28.833 C 12.374 28.377 12.526 27.925 12.835 27.588 C 13.143 27.25 13.58 27.058 14.037 27.058 L 28.237 27.058 C 28.85 27.073 29.456 26.934 30 26.652 C 29.738 26.234 29.581 25.759 29.543 25.268 C 29.471 24.381 29.676 23.494 30.13 22.729 L 30.48 22.207 L 30.981 22.57 C 31.853 23.273 32.353 24.067 32.462 24.973 C 33.399 24.793 34.598 24.927 35.12 25.29 Z M 24.698 21.792 C 24.698 22.087 24.458 22.327 24.163 22.327 L 22.446 22.327 C 22.151 22.327 21.911 22.087 21.911 21.792 L 21.911 20.224 C 21.911 19.929 22.151 19.689 22.446 19.689 C 22.94 19.689 23.669 19.689 24.163 19.689 C 24.458 19.689 24.698 19.929 24.698 20.224 C 24.698 20.681 24.698 21.335 24.698 21.792 Z M 20.868 21.792 C 20.868 22.087 20.628 22.327 20.333 22.327 L 18.616 22.327 C 18.321 22.327 18.081 22.087 18.081 21.792 L 18.081 20.224 C 18.081 19.929 18.321 19.689 18.616 19.689 C 19.11 19.689 19.839 19.689 20.333 19.689 C 20.628 19.689 20.868 19.929 20.868 20.224 C 20.868 20.681 20.868 21.335 20.868 21.792 Z M 17.006 25.491 C 17.006 25.787 16.766 26.027 16.471 26.027 L 14.755 26.027 C 14.459 26.027 14.219 25.787 14.219 25.491 L 14.219 23.924 C 14.219 23.629 14.459 23.389 14.755 23.389 C 15.248 23.389 15.977 23.389 16.471 23.389 C 16.766 23.389 17.006 23.629 17.006 23.924 C 17.006 24.381 17.006 25.035 17.006 25.491 Z M 20.834 25.491 C 20.834 25.787 20.594 26.027 20.298 26.027 L 18.582 26.027 C 18.287 26.027 18.047 25.787 18.047 25.491 L 18.047 23.924 C 18.047 23.629 18.287 23.389 18.582 23.389 C 19.076 23.389 19.805 23.389 20.298 23.389 C 20.594 23.389 20.834 23.629 20.834 23.924 C 20.834 24.381 20.834 25.035 20.834 25.491 Z M 24.663 25.491 C 24.663 25.787 24.424 26.027 24.128 26.027 L 22.412 26.027 C 22.117 26.027 21.877 25.787 21.877 25.491 L 21.877 23.924 C 21.877 23.629 22.117 23.389 22.412 23.389 C 22.906 23.389 23.635 23.389 24.128 23.389 C 24.424 23.389 24.663 23.629 24.663 23.924 C 24.663 24.381 24.663 25.035 24.663 25.491 Z M 28.493 25.491 C 28.493 25.787 28.254 26.027 27.958 26.027 L 26.242 26.027 C 25.946 26.027 25.707 25.787 25.707 25.491 L 25.707 23.924 C 25.707 23.629 25.946 23.389 26.242 23.389 C 26.736 23.389 27.465 23.389 27.958 23.389 C 28.254 23.389 28.493 23.629 28.493 23.924 C 28.493 24.381 28.493 25.035 28.493 25.491 Z"/>
</svg>