<svg clip-rule="evenodd" fill-rule="evenodd" stroke-linejoin="round" stroke-miterlimit="2" viewBox="0 0 48 48" xmlns="http://www.w3.org/2000/svg"><path fill="rgb(255, 255, 255)" d="m1.35 10.061c-.198-.379-.39-.757-.576-1.132-1.62-3.258-2.43-5.7-2.43-7.328 0-.978.27-1.764.81-2.361.54-.594 1.262-.892 2.164-.892 1.331 0 3.16.587 5.487 1.758 2.316 1.168 5.632 3.37 7.79 4.454h4.875c1.945 0 3.83.681 5.325 1.926l.29.23h14.409c2.761 0 4.999 2.239 4.999 5v10.553c1.38 1.519 2.157 3.509 2.157 5.588v10.789c.407.822.822 1.664 1.246 2.525 1.173 2.383 1.76 4.227 1.76 5.537 0 .778-.279 1.455-.838 2.031s-1.347.863-2.364.863c-1.588 0-4.01-.81-7.267-2.428-2.178-1.083-4.425-2.344-6.744-3.784h-26.093c-1.327 0-2.599-.527-3.535-1.464-.938-.938-1.465-2.21-1.465-3.536zm10.492-1.646c-1.257-.825-3.124-2.218-4.201-2.782-1.247-.65-2.503-1.256-3.768-1.814.156.387.317.772.482 1.156.587 1.363 1.228 2.702 1.922 4.018.127.24.255.479.385.718.782 1.441 1.62 2.865 2.514 4.27l3.015 4.522c.994 1.372 2.028 2.707 3.102 4.003.929 1.122 1.888 2.216 2.876 3.281.534.576 1.077 1.144 1.629 1.703l.312.315c1.077 1.081 2.186 2.132 3.326 3.153.522.467 1.05.928 1.584 1.383 1.374 1.169 2.79 2.297 4.25 3.382.039.03.079.059.118.088l4.691 2.959.312.198c1.524.96 3.07 1.848 4.637 2.665 1.13.589 2.287 1.15 3.473 1.685.573.259 1.153.511 1.739.757-.517-1.096-1.053-2.192-1.611-3.289-.259-.385-.4-.841-.4-1.311v-11.618c0-1.15-.507-2.241-1.387-2.982l-.018-.015-18.864-14.982c-.701-.58-1.58-.898-2.49-.898h-6.143c-.056 0-.11-.002-.165-.006-.008 0-.017-.001-.026-.002-.495-.042-.944-.245-1.294-.557zm-6.072 9.061v18.73c0 .733.291 1.436.809 1.952.519.518 1.221.81 1.954.81h17.546l-2.332-1.748c-1.291-.029-2.503-.285-3.636-.768-1.203-.512-2.252-1.218-3.145-2.119-.892-.901-1.594-1.955-2.106-3.166-.363-.857-.597-1.756-.703-2.699-1.186-1.29-2.046-2.356-2.983-3.517-1.505-1.863-4.287-5.833-4.287-5.833-.382-.551-.755-1.098-1.117-1.642zm11.773 2.972c-.191-.231-.16-.572.069-.765.742-.612 1.575-1.115 2.499-1.51 1.204-.512 2.496-.769 3.878-.769s2.675.257 3.878.769c1.202.514 2.249 1.212 3.14 2.096.894.884 1.601 1.928 2.12 3.131.521 1.203.782 2.497.782 3.879 0 1.383-.26 2.679-.781 3.89-.308.717-.681 1.379-1.12 1.987-.199.272-.575.343-.86.163-.024-.013-.037-.021-.037-.021-.5-.372-.995-.749-1.485-1.131-.105-.082-.172-.202-.188-.334s.022-.265.104-.369c.129-.163.251-.332.366-.506 0 0-.608 0-1.081 0-.352 0-.694-.125-.963-.353-.474-.411-1.027-.916-1.422-1.28-.319-.294-.495-.711-.482-1.144-.001-.015 0-.029 0-.043.008-.279.011-.565.011-.859 0-.292-.003-.567-.011-.823-.005-.176-.018-.399-.041-.669 0 0-2.217 0-3.132 0-.249 0-.488-.1-.661-.278-.366-.376-1.028-1.057-1.526-1.583-.218-.232-.301-.56-.219-.868.119-.437.248-.847.389-1.23.114-.309.248-.612.402-.911-.608.245-1.159.567-1.653.965-.012.01-.024.02-.036.03-.228.187-.564.158-.758-.065-.399-.461-.794-.927-1.182-1.399zm10.212 3.196 2.188.001c-.407-.674-.916-1.259-1.528-1.752-.503-.405-1.053-.731-1.648-.98.14.266.266.541.38.826.226.564.428 1.199.608 1.905zm.331 5.194h2.655c.049-.219.087-.426.117-.619.042-.279.061-.592.061-.94 0-.358-.019-.662-.06-.91-.03-.174-.069-.368-.117-.582h-2.637c.01.314.02.559.03.734.015.261.024.513.024.758 0 .325-.012.634-.035.926-.014.178-.027.389-.038.633zm-5.594-5.193h3.056c-.148-.545-.363-1.085-.643-1.617-.289-.551-.609-1.045-.96-1.478-.269.305-.509.674-.724 1.103-.256.51-.498 1.175-.729 1.992z" transform="matrix(.879388 0 0 .879388 2.89468 2.91666)"/></svg>