<?xml version="1.0" encoding="utf-8"?>
<svg clip-rule="evenodd" fill-rule="evenodd" stroke-linejoin="round" stroke-miterlimit="2" viewBox="0 0 48 48" xmlns="http://www.w3.org/2000/svg">
  <path fill="rgb(255, 255, 255)" d="M 44.493 22.269 C 45.873 23.788 46.65 25.778 46.65 27.857 L 46.65 38.39 C 46.65 41.152 44.412 43.39 41.65 43.39 L 6.35 43.39 C 5.023 43.39 3.751 42.863 2.815 41.926 C 1.877 40.988 1.35 39.716 1.35 38.39 L 1.35 9.56 C 1.35 8.233 1.877 6.962 2.815 6.024 C 3.751 5.087 5.023 4.56 6.35 4.56 L 19.47 4.56 C 21.415 4.56 23.3 5.241 24.795 6.486 L 25.085 6.716 L 39.494 6.716 C 42.255 6.716 44.493 8.955 44.493 11.716 L 44.493 22.269 Z M 40.824 24.86 L 21.96 9.878 C 21.259 9.298 20.38 8.98 19.47 8.98 L 8.533 8.98 C 7.8 8.98 7.098 9.272 6.579 9.79 C 6.061 10.307 5.77 11.01 5.77 11.742 L 5.77 36.206 C 5.77 36.939 6.061 37.642 6.579 38.158 C 7.098 38.676 7.8 38.968 8.533 38.968 L 39.467 38.968 C 40.2 38.968 40.902 38.676 41.42 38.16 C 41.939 37.642 42.229 36.939 42.229 36.206 L 42.229 27.857 C 42.229 26.707 41.722 25.616 40.842 24.875 L 40.824 24.86 Z M 30.054 29.827 C 30.171 30.046 30.138 30.315 29.975 30.502 C 29.812 30.688 29.55 30.753 29.317 30.668 C 28.976 30.544 28.613 30.426 28.257 30.327 C 28.179 30.308 28.102 30.35 28.074 30.423 C 28.047 30.494 28.081 30.578 28.15 30.613 C 29.633 31.462 31.162 32.743 31.863 33.303 C 31.956 33.374 32.03 33.465 32.087 33.567 C 32.096 33.583 32.105 33.599 32.111 33.617 C 32.257 33.884 32.21 34.213 31.999 34.43 C 31.788 34.647 31.458 34.7 31.189 34.564 C 29.627 33.748 28.254 33.161 26.959 32.804 C 26.443 32.672 26.089 32.197 26.111 31.663 C 26.113 31.63 26.114 31.595 26.114 31.562 C 26.159 29.68 25.258 28.077 24.1 27.98 C 22.942 27.881 21.963 29.325 21.917 31.208 L 21.912 31.299 C 21.912 31.413 21.915 31.525 21.92 31.634 C 21.948 32.173 21.592 32.653 21.07 32.785 C 19.769 33.141 18.386 33.727 16.811 34.547 C 16.542 34.684 16.212 34.629 15.999 34.41 C 15.788 34.19 15.745 33.86 15.892 33.593 C 18.473 28.925 19.778 26.453 20.781 24.432 C 20.873 24.244 21.036 24.101 21.235 24.039 C 21.434 23.975 21.652 24 21.834 24.099 C 22.422 24.335 23.243 24.546 24.197 24.769 C 24.272 24.788 24.348 24.749 24.377 24.678 C 24.407 24.606 24.378 24.525 24.311 24.489 C 23.342 23.916 22.591 23.262 22.1 22.781 C 21.897 22.576 21.84 22.268 21.962 22.004 C 22.503 20.821 22.892 19.872 23.328 18.79 C 23.436 18.523 23.697 18.353 23.983 18.357 C 24.27 18.361 24.524 18.542 24.622 18.811 C 25.406 20.67 27.021 24.201 30.054 29.827 Z"/>
</svg>