<?xml version="1.0" encoding="utf-8"?>
<svg clip-rule="evenodd" fill-rule="evenodd" stroke-linejoin="round" stroke-miterlimit="2" viewBox="0 0 48 48" xmlns="http://www.w3.org/2000/svg">
  <path fill="rgb(255, 255, 255)" d="M 44.493 22.269 C 45.873 23.788 46.65 25.778 46.65 27.857 L 46.65 38.39 C 46.65 41.152 44.412 43.39 41.65 43.39 L 6.35 43.39 C 5.023 43.39 3.751 42.863 2.815 41.926 C 1.877 40.988 1.35 39.716 1.35 38.39 L 1.35 9.56 C 1.35 8.233 1.877 6.962 2.815 6.024 C 3.751 5.087 5.023 4.56 6.35 4.56 L 19.47 4.56 C 21.415 4.56 23.3 5.241 24.795 6.486 L 25.085 6.716 L 39.494 6.716 C 42.255 6.716 44.493 8.955 44.493 11.716 Z M 40.824 24.86 L 21.96 9.878 C 21.259 9.298 20.38 8.98 19.47 8.98 L 8.533 8.98 C 7.8 8.98 7.098 9.272 6.579 9.79 C 6.061 10.307 5.77 11.01 5.77 11.742 L 5.77 36.206 C 5.77 36.939 6.061 37.642 6.579 38.158 C 7.098 38.676 7.8 38.968 8.533 38.968 L 39.467 38.968 C 40.2 38.968 40.902 38.676 41.42 38.16 C 41.939 37.642 42.229 36.939 42.229 36.206 L 42.229 27.857 C 42.229 26.707 41.722 25.616 40.842 24.875 Z M 17.184 35.686 C 16.077 35.686 15.144 35.299 14.383 34.526 C 13.622 33.753 13.231 32.814 13.209 31.709 C 13.209 31.554 13.217 31.395 13.233 31.231 C 13.248 31.068 13.28 30.908 13.326 30.752 L 15.291 22.873 C 15.54 21.921 16.048 21.147 16.815 20.546 C 17.583 19.946 18.454 19.646 19.429 19.646 L 28.548 19.646 C 29.523 19.646 30.394 19.946 31.161 20.546 C 31.929 21.147 32.444 21.921 32.709 22.873 L 34.674 30.728 C 34.705 30.9 34.732 31.068 34.756 31.232 C 34.779 31.395 34.791 31.563 34.791 31.733 C 34.791 32.839 34.401 33.775 33.622 34.539 C 32.842 35.304 31.9 35.686 30.792 35.686 C 30.028 35.686 29.323 35.487 28.676 35.09 C 28.03 34.692 27.543 34.15 27.215 33.464 L 26.56 32.108 C 26.529 32.046 26.484 32.003 26.426 31.98 C 26.367 31.957 26.295 31.945 26.21 31.945 L 21.767 31.945 C 21.682 31.945 21.609 31.957 21.551 31.98 C 21.493 32.003 21.448 32.046 21.416 32.108 L 20.762 33.464 C 20.435 34.15 19.947 34.692 19.298 35.09 C 18.65 35.487 17.946 35.686 17.184 35.686 Z M 20.035 28.358 C 20.266 28.358 20.538 28.251 20.696 28.091 C 20.853 27.932 20.946 27.663 20.958 27.432 L 20.958 26.722 L 21.669 26.722 C 21.901 26.71 22.162 26.603 22.329 26.455 C 22.478 26.287 22.594 26.024 22.594 25.792 C 22.594 25.56 22.478 25.299 22.329 25.132 C 22.16 24.985 21.899 24.881 21.669 24.869 L 20.958 24.869 L 20.958 24.159 C 20.946 23.927 20.841 23.666 20.691 23.497 C 20.521 23.349 20.262 23.233 20.029 23.233 C 19.798 23.233 19.537 23.35 19.368 23.5 C 19.223 23.667 19.118 23.927 19.106 24.159 L 19.106 24.869 L 18.395 24.869 C 18.163 24.882 17.903 24.987 17.735 25.135 C 17.587 25.305 17.469 25.565 17.469 25.798 C 17.469 26.03 17.577 26.302 17.736 26.46 C 17.895 26.616 18.164 26.71 18.395 26.722 L 19.106 26.722 L 19.106 27.432 C 19.118 27.664 19.214 27.934 19.372 28.093 C 19.532 28.252 19.803 28.358 20.035 28.358 Z M 30.502 26.839 C 30.766 26.839 31.054 26.706 31.245 26.533 C 31.414 26.34 31.541 26.054 31.541 25.791 C 31.541 25.528 31.419 25.229 31.236 25.049 C 31.052 24.869 30.756 24.752 30.494 24.752 C 30.23 24.752 29.942 24.884 29.751 25.059 C 29.583 25.25 29.455 25.536 29.455 25.8 C 29.455 26.065 29.578 26.362 29.761 26.542 C 29.943 26.721 30.239 26.839 30.502 26.839 Z M 27.949 29.392 C 28.213 29.392 28.511 29.27 28.691 29.087 C 28.87 28.903 28.988 28.607 28.988 28.344 C 28.988 28.081 28.866 27.782 28.683 27.603 C 28.499 27.423 28.203 27.306 27.94 27.306 C 27.677 27.306 27.388 27.438 27.199 27.611 C 27.029 27.804 26.902 28.09 26.902 28.353 C 26.902 28.618 27.034 28.906 27.206 29.095 C 27.399 29.264 27.686 29.392 27.949 29.392 Z M 27.949 24.285 C 28.213 24.285 28.502 24.154 28.691 23.979 C 28.86 23.787 28.988 23.501 28.988 23.238 C 28.988 22.974 28.866 22.676 28.683 22.495 C 28.499 22.316 28.203 22.199 27.94 22.199 C 27.676 22.199 27.388 22.331 27.199 22.504 C 27.029 22.696 26.902 22.983 26.902 23.246 C 26.902 23.511 27.034 23.798 27.207 23.988 C 27.4 24.158 27.686 24.285 27.949 24.285 Z M 25.396 26.839 C 25.659 26.839 25.948 26.707 26.138 26.533 C 26.307 26.34 26.434 26.053 26.434 25.791 C 26.434 25.528 26.303 25.24 26.129 25.049 C 25.936 24.879 25.65 24.752 25.387 24.752 C 25.124 24.752 24.835 24.884 24.645 25.058 C 24.475 25.25 24.348 25.537 24.348 25.8 C 24.348 26.064 24.48 26.352 24.654 26.542 C 24.846 26.711 25.133 26.839 25.396 26.839 Z"/>
</svg>