<?xml version="1.0" encoding="utf-8"?>
<svg clip-rule="evenodd" fill-rule="evenodd" stroke-linejoin="round" stroke-miterlimit="2" viewBox="0 0 48 48" xmlns="http://www.w3.org/2000/svg">
  <path fill="rgb(255, 255, 255)" d="M 44.493 22.269 C 45.873 23.788 46.65 25.778 46.65 27.857 L 46.65 38.39 C 46.65 41.152 44.412 43.39 41.65 43.39 L 6.35 43.39 C 5.023 43.39 3.751 42.863 2.815 41.926 C 1.877 40.988 1.35 39.716 1.35 38.39 L 1.35 9.56 C 1.35 8.233 1.877 6.962 2.815 6.024 C 3.751 5.087 5.023 4.56 6.35 4.56 L 19.47 4.56 C 21.415 4.56 23.3 5.241 24.795 6.486 L 25.085 6.716 L 39.494 6.716 C 42.255 6.716 44.493 8.955 44.493 11.716 L 44.493 22.269 Z M 40.824 24.86 L 21.96 9.878 C 21.259 9.298 20.38 8.98 19.47 8.98 L 8.533 8.98 C 7.8 8.98 7.098 9.272 6.579 9.79 C 6.061 10.307 5.77 11.01 5.77 11.742 L 5.77 36.206 C 5.77 36.939 6.061 37.642 6.579 38.158 C 7.098 38.676 7.8 38.968 8.533 38.968 L 39.467 38.968 C 40.2 38.968 40.902 38.676 41.42 38.16 C 41.939 37.642 42.229 36.939 42.229 36.206 L 42.229 27.857 C 42.229 26.707 41.722 25.616 40.842 24.875 L 40.824 24.86 Z M 21.315 33.394 C 20.867 33.841 20.368 34.068 19.821 34.071 C 19.274 34.074 18.775 33.851 18.324 33.401 C 17.873 32.95 17.652 32.446 17.655 31.888 C 17.659 31.331 17.879 30.833 18.317 30.396 L 21.024 27.689 L 18.38 25.046 C 17.948 24.614 17.724 24.118 17.704 23.555 C 17.685 22.991 17.9 22.485 18.351 22.035 C 18.778 21.608 19.282 21.395 19.861 21.398 C 20.441 21.401 20.946 21.618 21.378 22.048 L 24.02 24.691 L 26.727 21.986 C 27.175 21.537 27.674 21.311 28.221 21.308 C 28.768 21.304 29.266 21.528 29.717 21.978 C 30.168 22.428 30.384 22.939 30.366 23.511 C 30.348 24.083 30.132 24.575 29.72 24.986 L 27.018 27.689 L 29.654 30.325 C 30.093 30.765 30.309 31.266 30.299 31.827 C 30.288 32.388 30.065 32.887 29.627 33.323 C 29.192 33.76 28.69 33.973 28.125 33.96 C 27.557 33.947 27.058 33.725 26.627 33.294 L 24.02 30.687 L 21.315 33.394 Z"/>
</svg>