<?xml version="1.0" encoding="utf-8"?>
<svg clip-rule="evenodd" fill-rule="evenodd" stroke-linejoin="round" stroke-miterlimit="2" viewBox="0 0 48 48" xmlns="http://www.w3.org/2000/svg">
  <path fill="rgb(255, 255, 255)" d="M 44.493 22.269 C 45.873 23.788 46.65 25.778 46.65 27.857 L 46.65 38.39 C 46.65 41.152 44.412 43.39 41.65 43.39 L 6.35 43.39 C 5.023 43.39 3.751 42.863 2.815 41.926 C 1.877 40.988 1.35 39.716 1.35 38.39 L 1.35 9.56 C 1.35 8.233 1.877 6.962 2.815 6.024 C 3.751 5.087 5.023 4.56 6.35 4.56 L 19.47 4.56 C 21.415 4.56 23.3 5.241 24.795 6.486 L 25.085 6.716 L 39.494 6.716 C 42.255 6.716 44.493 8.955 44.493 11.716 Z M 40.824 24.86 L 21.96 9.878 C 21.259 9.298 20.38 8.98 19.47 8.98 L 8.533 8.98 C 7.8 8.98 7.098 9.272 6.579 9.79 C 6.061 10.307 5.77 11.01 5.77 11.742 L 5.77 36.206 C 5.77 36.939 6.061 37.642 6.579 38.158 C 7.098 38.676 7.8 38.968 8.533 38.968 L 39.467 38.968 C 40.2 38.968 40.902 38.676 41.42 38.16 C 41.939 37.642 42.229 36.939 42.229 36.206 L 42.229 27.857 C 42.229 26.707 41.722 25.616 40.842 24.875 Z M 18.69 34.597 C 17.99 33.535 17.407 31.852 17.196 30.16 C 16.984 28.468 17.149 26.671 17.884 25.419 C 18.113 25.041 18.405 24.691 18.722 24.404 C 18.941 24.193 19.178 24.015 19.407 23.874 C 19.933 23.559 20.484 23.391 20.898 23.313 C 21.157 23.266 21.375 23.248 21.521 23.242 C 21.633 23.231 21.745 23.227 21.856 23.229 C 22.325 23.227 22.796 23.327 23.204 23.453 C 23.793 23.639 24.226 23.846 24.572 23.932 C 24.916 23.846 25.351 23.639 25.94 23.453 C 26.347 23.326 26.817 23.227 27.287 23.229 C 27.399 23.227 27.511 23.232 27.622 23.242 C 27.768 23.248 27.978 23.265 28.231 23.31 C 28.799 23.36 29.337 23.576 29.761 23.891 C 30.424 24.414 30.895 25.281 30.895 26.207 C 30.895 26.642 30.79 27.081 30.626 27.446 C 30.163 28.396 29.132 29.089 27.987 29.115 L 26.99 29.115 L 26.99 30.133 L 27.987 30.133 C 28.945 30.152 29.838 30.638 30.357 31.339 C 30.681 31.805 30.895 32.418 30.895 33.04 C 30.895 33.599 30.717 34.163 30.452 34.599 C 30.414 34.656 30.372 34.716 30.336 34.767 C 30.284 34.838 30.225 34.913 30.171 34.976 C 30.009 35.157 29.809 35.33 29.606 35.466 C 29.156 35.757 28.574 35.947 27.987 35.947 C 27.845 35.947 27.71 35.937 27.579 35.92 C 27.459 35.92 27.344 35.917 27.215 35.912 C 26.644 35.879 26.234 35.711 25.856 35.557 C 25.477 35.404 25.128 35.263 24.572 35.261 C 24.015 35.263 23.666 35.404 23.287 35.557 C 22.908 35.711 22.499 35.879 21.927 35.912 C 21.8 35.917 21.647 35.919 21.52 35.919 C 21.519 35.919 21.518 35.919 21.506 35.919 L 21.412 35.919 C 21.368 35.92 21.325 35.92 21.284 35.92 C 20.842 35.922 20.408 35.858 20.023 35.707 C 19.862 35.647 19.687 35.561 19.537 35.466 C 19.333 35.33 19.131 35.153 18.97 34.973 C 18.916 34.91 18.859 34.838 18.807 34.767 C 18.769 34.714 18.728 34.655 18.69 34.597 Z M 18.974 28.116 C 18.947 28.451 18.933 28.53 18.962 29.161 C 18.996 29.933 19.067 30.333 19.19 30.901 C 19.71 30.442 20.198 30.151 21.155 30.133 L 22.153 30.133 L 22.153 29.115 L 21.155 29.115 C 20.011 29.089 19.513 28.706 18.974 28.116 Z M 25.129 25.691 C 25.052 25.714 25.134 25.698 24.906 25.75 C 24.696 25.793 24.447 25.793 24.237 25.75 C 24.011 25.699 24.092 25.714 24.014 25.691 C 24.044 25.86 24.059 25.828 24.062 26.207 L 24.062 27.205 L 25.081 27.205 L 25.081 26.207 C 25.084 25.828 25.099 25.86 25.129 25.691 Z M 24.032 33.449 C 24.193 33.43 24.186 33.421 24.545 33.414 L 24.593 33.414 C 24.952 33.421 24.949 33.43 25.11 33.449 C 25.092 33.313 25.083 33.333 25.081 33.04 L 25.081 32.043 L 24.062 32.043 L 24.062 33.04 C 24.06 33.334 24.051 33.314 24.032 33.449 Z M 27.275 25.495 C 27.082 25.689 26.978 25.9 26.99 26.207 L 26.99 27.205 L 27.987 27.205 C 28.295 27.217 28.506 27.113 28.7 26.92 C 28.893 26.726 28.985 26.515 28.985 26.207 C 28.985 25.9 28.893 25.689 28.7 25.495 C 28.506 25.302 28.295 25.21 27.987 25.21 C 27.679 25.21 27.468 25.302 27.275 25.495 Z M 22.153 26.207 C 22.165 25.9 22.061 25.689 21.868 25.495 C 21.674 25.302 21.463 25.21 21.155 25.21 C 20.847 25.21 20.636 25.302 20.442 25.495 C 20.249 25.689 20.157 25.9 20.157 26.207 C 20.157 26.515 20.249 26.726 20.442 26.92 C 20.636 27.113 20.847 27.217 21.155 27.205 L 22.153 27.205 Z M 21.868 33.753 C 22.061 33.559 22.165 33.348 22.153 33.04 L 22.153 32.043 L 21.155 32.043 C 20.847 32.031 20.636 32.135 20.442 32.328 C 20.249 32.522 20.157 32.732 20.157 33.04 C 20.157 33.348 20.249 33.559 20.443 33.752 C 20.636 33.946 20.847 34.038 21.155 34.038 C 21.463 34.038 21.674 33.946 21.868 33.753 Z M 25.081 29.115 L 24.062 29.115 L 24.062 30.133 L 25.081 30.133 Z M 28.7 32.328 C 28.506 32.135 28.295 32.031 27.987 32.043 L 26.99 32.043 L 26.99 33.04 C 26.978 33.348 27.082 33.559 27.275 33.753 C 27.469 33.946 27.679 34.038 27.987 34.038 C 28.295 34.038 28.506 33.946 28.7 33.753 C 28.893 33.559 28.985 33.348 28.985 33.04 C 28.985 32.732 28.893 32.521 28.7 32.328 Z M 24.28 22.62 C 24.167 21.617 24.671 20.544 25.234 19.92 C 25.879 19.208 26.998 18.657 27.896 18.609 C 28.052 18.603 28.187 18.719 28.205 18.875 C 28.301 19.881 27.874 20.935 27.269 21.645 C 26.648 22.354 25.571 22.932 24.554 22.878 C 24.413 22.867 24.299 22.76 24.28 22.62 Z"/>
</svg>