<?xml version="1.0" encoding="utf-8"?>
<svg clip-rule="evenodd" fill-rule="evenodd" stroke-linejoin="round" stroke-miterlimit="2" viewBox="0 0 48 48" xmlns="http://www.w3.org/2000/svg">
  <path fill="rgb(255, 255, 255)" d="M 44.493 23.201 C 45.873 24.72 46.65 26.71 46.65 28.789 L 46.65 39.322 C 46.65 42.084 44.412 44.322 41.65 44.322 L 6.35 44.322 C 5.023 44.322 3.751 43.795 2.815 42.858 C 1.877 41.92 1.35 40.648 1.35 39.322 L 1.35 10.492 C 1.35 9.165 1.877 7.894 2.815 6.956 C 3.751 6.019 5.023 5.492 6.35 5.492 L 6.956 5.492 C 7.025 4.478 7.773 3.678 8.681 3.678 C 9.591 3.678 10.338 4.478 10.407 5.492 L 12.148 5.492 C 12.217 4.478 12.962 3.678 13.872 3.678 C 14.781 3.678 15.529 4.478 15.598 5.492 L 17.336 5.492 C 17.405 4.478 18.152 3.678 19.062 3.678 C 20.004 3.678 20.769 4.534 20.792 5.598 C 22.257 5.833 23.642 6.458 24.795 7.418 L 25.085 7.648 L 39.494 7.648 C 42.255 7.648 44.493 9.887 44.493 12.648 L 44.493 23.201 Z M 40.824 25.792 L 21.96 10.81 C 21.591 10.504 21.172 10.272 20.725 10.12 C 20.518 10.942 19.852 11.544 19.062 11.544 C 18.207 11.544 17.496 10.839 17.356 9.912 L 15.578 9.912 C 15.438 10.839 14.726 11.544 13.872 11.544 C 13.017 11.544 12.308 10.839 12.168 9.912 L 10.387 9.912 C 10.247 10.839 9.536 11.544 8.681 11.544 C 7.96 11.544 7.34 11.041 7.081 10.325 C 6.9 10.437 6.732 10.57 6.579 10.722 C 6.061 11.239 5.77 11.942 5.77 12.674 L 5.77 37.138 C 5.77 37.871 6.061 38.574 6.579 39.09 C 7.098 39.608 7.8 39.9 8.533 39.9 L 39.467 39.9 C 40.2 39.9 40.902 39.608 41.42 39.092 C 41.939 38.574 42.229 37.871 42.229 37.138 L 42.229 28.789 C 42.229 27.639 41.722 26.548 40.842 25.807 L 40.824 25.792 Z M 22.419 23.085 C 23.5 23.085 24.376 23.963 24.376 25.043 C 24.376 26.124 23.5 27 22.419 27 L 10.673 27 C 9.594 27 8.716 26.124 8.716 25.043 C 8.716 23.963 9.594 23.085 10.673 23.085 L 22.419 23.085 Z M 18.504 15.255 C 19.585 15.255 20.461 16.131 20.461 17.213 C 20.461 18.292 19.585 19.17 18.504 19.17 L 10.673 19.17 C 9.594 19.17 8.716 18.292 8.716 17.213 C 8.716 16.131 9.594 15.255 10.673 15.255 L 18.504 15.255 Z"/>
</svg>