<?xml version="1.0" encoding="utf-8"?>
<svg clip-rule="evenodd" fill-rule="evenodd" stroke-linejoin="round" stroke-miterlimit="2" viewBox="0 0 48 48" xmlns="http://www.w3.org/2000/svg">
  <path fill="rgb(255, 255, 255)" d="M 44.493 22.269 C 45.873 23.788 46.65 25.778 46.65 27.857 L 46.65 38.39 C 46.65 41.152 44.412 43.39 41.65 43.39 L 6.35 43.39 C 5.023 43.39 3.751 42.863 2.815 41.926 C 1.877 40.988 1.35 39.716 1.35 38.39 L 1.35 9.56 C 1.35 8.233 1.877 6.962 2.815 6.024 C 3.751 5.087 5.023 4.56 6.35 4.56 L 19.47 4.56 C 21.415 4.56 23.3 5.241 24.795 6.486 L 25.085 6.716 L 39.494 6.716 C 42.255 6.716 44.493 8.955 44.493 11.716 Z M 40.824 24.86 L 21.96 9.878 C 21.259 9.298 20.38 8.98 19.47 8.98 L 8.533 8.98 C 7.8 8.98 7.098 9.272 6.579 9.79 C 6.061 10.307 5.77 11.01 5.77 11.742 L 5.77 36.206 C 5.77 36.939 6.061 37.642 6.579 38.158 C 7.098 38.676 7.8 38.968 8.533 38.968 L 39.467 38.968 C 40.2 38.968 40.902 38.676 41.42 38.16 C 41.939 37.642 42.229 36.939 42.229 36.206 L 42.229 27.857 C 42.229 26.707 41.722 25.616 40.842 24.875 Z M 34.417 34.803 C 34.417 35.269 34.079 35.647 33.662 35.647 L 14.337 35.647 C 13.921 35.647 13.583 35.269 13.583 34.803 C 13.583 34.338 13.921 33.96 14.337 33.96 L 33.662 33.96 C 34.079 33.96 34.417 34.338 34.417 34.803 Z M 34.417 31.949 C 34.417 32.415 34.079 32.793 33.662 32.793 L 28.989 32.793 C 28.572 32.793 28.234 32.415 28.234 31.949 C 28.234 31.484 28.572 31.106 28.989 31.106 L 33.662 31.106 C 34.079 31.106 34.417 31.484 34.417 31.949 Z M 27.091 31.949 C 27.091 32.415 26.753 32.793 26.337 32.793 L 21.663 32.793 C 21.246 32.793 20.909 32.415 20.909 31.949 C 20.909 31.484 21.246 31.106 21.663 31.106 L 26.337 31.106 C 26.753 31.106 27.091 31.484 27.091 31.949 Z M 19.766 31.949 C 19.766 32.415 19.428 32.793 19.011 32.793 L 14.337 32.793 C 13.921 32.793 13.583 32.415 13.583 31.949 C 13.583 31.484 13.921 31.106 14.337 31.106 L 19.011 31.106 C 19.428 31.106 19.766 31.484 19.766 31.949 Z M 34.417 29.095 C 34.417 29.561 34.079 29.939 33.662 29.939 L 28.989 29.939 C 28.572 29.939 28.234 29.561 28.234 29.095 C 28.234 28.629 28.572 28.251 28.989 28.251 L 33.662 28.251 C 34.079 28.251 34.417 28.629 34.417 29.095 Z M 27.091 29.095 C 27.091 29.561 26.753 29.939 26.337 29.939 L 21.663 29.939 C 21.246 29.939 20.909 29.561 20.909 29.095 C 20.909 28.629 21.246 28.251 21.663 28.251 L 26.337 28.251 C 26.753 28.251 27.091 28.629 27.091 29.095 Z M 19.766 29.087 C 19.766 29.552 19.428 29.93 19.011 29.93 L 14.337 29.93 C 13.921 29.93 13.583 29.552 13.583 29.087 C 13.583 28.621 13.921 28.244 14.337 28.244 L 19.011 28.244 C 19.428 28.244 19.766 28.621 19.766 29.087 Z M 34.417 26.241 C 34.417 26.706 34.079 27.084 33.662 27.084 L 28.989 27.084 C 28.572 27.084 28.234 26.706 28.234 26.241 C 28.234 25.775 28.572 25.397 28.989 25.397 L 33.662 25.397 C 34.079 25.397 34.417 25.775 34.417 26.241 Z M 27.091 26.241 C 27.091 26.706 26.753 27.084 26.337 27.084 L 21.663 27.084 C 21.246 27.084 20.909 26.706 20.909 26.241 C 20.909 25.775 21.246 25.397 21.663 25.397 L 26.337 25.397 C 26.753 25.397 27.091 25.775 27.091 26.241 Z M 27.091 23.387 C 27.091 23.852 26.753 24.23 26.337 24.23 L 21.663 24.23 C 21.246 24.23 20.909 23.852 20.909 23.387 C 20.909 22.921 21.246 22.543 21.663 22.543 L 26.337 22.543 C 26.753 22.543 27.091 22.921 27.091 23.387 Z M 27.091 20.533 C 27.091 20.998 26.753 21.376 26.337 21.376 L 21.663 21.376 C 21.246 21.376 20.909 20.998 20.909 20.533 C 20.909 20.067 21.246 19.689 21.663 19.689 L 26.337 19.689 C 26.753 19.689 27.091 20.067 27.091 20.533 Z"/>
</svg>