<?xml version="1.0" encoding="utf-8"?>
<svg clip-rule="evenodd" fill-rule="evenodd" stroke-linejoin="round" stroke-miterlimit="2" viewBox="0 0 48 48" xmlns="http://www.w3.org/2000/svg">
  <path fill="rgb(255, 255, 255)" d="M 44.493 22.269 C 45.873 23.788 46.65 25.778 46.65 27.857 L 46.65 38.39 C 46.65 41.152 44.412 43.39 41.65 43.39 L 6.35 43.39 C 5.023 43.39 3.751 42.863 2.815 41.926 C 1.877 40.988 1.35 39.716 1.35 38.39 L 1.35 9.56 C 1.35 8.233 1.877 6.962 2.815 6.024 C 3.751 5.087 5.023 4.56 6.35 4.56 L 19.47 4.56 C 21.415 4.56 23.3 5.241 24.795 6.486 L 25.085 6.716 L 39.494 6.716 C 42.255 6.716 44.493 8.955 44.493 11.716 L 44.493 22.269 Z M 40.824 24.86 L 21.96 9.878 C 21.259 9.298 20.38 8.98 19.47 8.98 L 8.533 8.98 C 7.8 8.98 7.098 9.272 6.579 9.79 C 6.061 10.307 5.77 11.01 5.77 11.742 L 5.77 36.206 C 5.77 36.939 6.061 37.642 6.579 38.158 C 7.098 38.676 7.8 38.968 8.533 38.968 L 39.467 38.968 C 40.2 38.968 40.902 38.676 41.42 38.16 C 41.939 37.642 42.229 36.939 42.229 36.206 L 42.229 27.857 C 42.229 26.707 41.722 25.616 40.842 24.875 L 40.824 24.86 Z M 30.707 27.668 C 30.707 26.321 30.361 25.176 29.591 24.094 C 28.835 22.993 27.906 22.232 26.666 21.712 C 26.369 21.575 26.079 21.291 25.942 21.005 C 25.849 20.698 25.874 20.306 26.002 20.003 C 26.153 19.704 26.434 19.426 26.734 19.286 C 27.048 19.183 27.469 19.193 27.788 19.299 C 29.439 20.018 30.833 21.153 31.83 22.631 C 32.83 24.112 33.353 25.842 33.353 27.663 C 33.353 29.485 32.821 31.211 31.831 32.699 C 30.824 34.175 29.423 35.324 27.771 36.043 C 27.451 36.15 27.046 36.152 26.735 36.05 C 26.435 35.911 26.154 35.635 26.003 35.34 C 25.874 35.038 25.848 34.643 25.94 34.332 C 26.075 34.036 26.361 33.746 26.658 33.603 C 27.895 33.1 28.836 32.341 29.591 31.242 C 30.361 30.159 30.707 29.015 30.707 27.668 Z M 29.18 27.691 C 29.18 28.578 28.92 29.458 28.465 30.195 C 27.992 30.923 27.295 31.533 26.468 31.941 C 26.189 32.044 25.789 32.012 25.528 31.869 C 25.329 31.683 25.167 31.353 25.143 31.078 L 25.143 24.281 C 25.168 24.002 25.34 23.669 25.547 23.487 C 25.804 23.36 26.195 23.338 26.468 23.441 C 27.295 23.85 27.994 24.465 28.467 25.2 C 28.92 25.945 29.18 26.818 29.18 27.691 Z M 18.77 31.053 L 15.836 31.053 C 15.512 31.053 15.246 30.948 15.037 30.74 C 14.828 30.531 14.724 30.272 14.724 29.963 L 14.724 25.419 C 14.724 25.111 14.828 24.849 15.037 24.632 C 15.246 24.415 15.512 24.306 15.836 24.306 L 18.77 24.306 L 22.374 20.736 C 22.714 20.381 23.112 20.296 23.568 20.481 C 24.024 20.667 24.252 20.999 24.252 21.478 L 24.252 33.881 C 24.252 34.378 24.024 34.719 23.568 34.903 C 23.112 35.087 22.714 35.001 22.374 34.646 L 18.77 31.053 Z"/>
</svg>