<?xml version="1.0" encoding="utf-8"?>
<svg clip-rule="evenodd" fill-rule="evenodd" stroke-linejoin="round" stroke-miterlimit="2" viewBox="0 0 48 48" xmlns="http://www.w3.org/2000/svg">
  <path fill="rgb(255, 255, 255)" d="M 44.493 22.269 C 45.873 23.788 46.65 25.778 46.65 27.857 L 46.65 38.39 C 46.65 41.152 44.412 43.39 41.65 43.39 L 6.35 43.39 C 5.023 43.39 3.751 42.863 2.815 41.926 C 1.877 40.988 1.35 39.716 1.35 38.39 L 1.35 9.56 C 1.35 8.233 1.877 6.962 2.815 6.024 C 3.751 5.087 5.023 4.56 6.35 4.56 L 19.47 4.56 C 21.415 4.56 23.3 5.241 24.795 6.486 L 25.085 6.716 L 39.494 6.716 C 42.255 6.716 44.493 8.955 44.493 11.716 Z M 40.824 24.86 L 21.96 9.878 C 21.259 9.298 20.38 8.98 19.47 8.98 L 8.533 8.98 C 7.8 8.98 7.098 9.272 6.579 9.79 C 6.061 10.307 5.77 11.01 5.77 11.742 L 5.77 36.206 C 5.77 36.939 6.061 37.642 6.579 38.158 C 7.098 38.676 7.8 38.968 8.533 38.968 L 39.467 38.968 C 40.2 38.968 40.902 38.676 41.42 38.16 C 41.939 37.642 42.229 36.939 42.229 36.206 L 42.229 27.857 C 42.229 26.707 41.722 25.616 40.842 24.875 Z M 8.436 16.962 C 8.048 16.574 7.856 16.102 7.856 15.542 L 7.856 13.456 C 7.856 12.897 8.048 12.423 8.436 12.036 C 8.821 11.649 9.296 11.457 9.855 11.457 L 19.624 11.457 C 20.185 11.457 20.658 11.649 21.045 12.036 C 21.431 12.423 21.624 12.897 21.624 13.456 L 21.624 15.542 C 21.624 16.102 21.431 16.574 21.045 16.962 C 20.658 17.348 20.185 17.542 19.624 17.542 L 9.855 17.542 C 9.296 17.542 8.821 17.348 8.436 16.962 Z M 20.863 31.141 C 20.004 30.276 19.575 29.23 19.575 28.003 C 19.575 26.777 20.007 25.735 20.872 24.875 C 21.737 24.017 22.784 23.588 24.01 23.588 C 25.236 23.588 26.279 24.021 27.138 24.886 C 27.996 25.751 28.425 26.796 28.425 28.024 C 28.425 29.25 27.992 30.293 27.127 31.151 C 26.262 32.009 25.217 32.438 23.989 32.438 C 22.763 32.438 21.721 32.006 20.863 31.141 Z"/>
</svg>