<?xml version="1.0" encoding="utf-8"?>
<svg clip-rule="evenodd" fill-rule="evenodd" stroke-linejoin="round" stroke-miterlimit="2" viewBox="0 0 48 48" xmlns="http://www.w3.org/2000/svg">
  <path fill="rgb(255, 255, 255)" d="M 44.493 27.591 C 45.873 29.11 46.65 31.1 46.65 33.179 L 46.65 40.352 C 46.65 43.114 44.412 45.352 41.65 45.352 L 6.35 45.352 C 5.023 45.352 3.751 44.825 2.815 43.888 C 1.877 42.95 1.35 41.678 1.35 40.352 L 1.35 14.882 C 1.35 13.555 1.877 12.284 2.815 11.346 C 3.751 10.409 5.023 9.882 6.35 9.882 L 15.456 9.882 L 15.456 7.037 C 15.456 5.855 15.883 4.828 16.74 3.956 C 17.594 3.084 18.629 2.649 19.845 2.649 L 28.155 2.649 C 29.371 2.649 30.406 3.084 31.262 3.956 C 32.116 4.828 32.544 5.855 32.544 7.037 L 32.544 12.038 L 39.494 12.038 C 42.255 12.038 44.493 14.277 44.493 17.038 L 44.493 27.591 Z M 24.795 11.808 L 25.085 12.038 L 28.155 12.038 L 28.155 7.037 L 19.845 7.037 L 19.845 9.89 C 21.656 9.972 23.396 10.643 24.795 11.808 Z M 40.824 30.182 L 21.96 15.2 C 21.259 14.62 20.38 14.302 19.47 14.302 L 8.533 14.302 C 7.8 14.302 7.098 14.594 6.579 15.112 C 6.061 15.629 5.77 16.332 5.77 17.064 L 5.77 38.168 C 5.77 38.901 6.061 39.604 6.579 40.12 C 7.098 40.638 7.8 40.93 8.533 40.93 L 39.467 40.93 C 40.2 40.93 40.902 40.638 41.42 40.122 C 41.939 39.604 42.229 38.901 42.229 38.168 L 42.229 33.179 C 42.229 32.029 41.722 30.938 40.842 30.197 L 40.824 30.182 Z"/>
</svg>