<?xml version="1.0" encoding="utf-8"?>
<svg clip-rule="evenodd" fill-rule="evenodd" stroke-linejoin="round" stroke-miterlimit="2" viewBox="0 0 48 48" xmlns="http://www.w3.org/2000/svg">
  <path fill="rgb(255, 255, 255)" d="M 44.493 22.269 C 45.873 23.788 46.65 25.778 46.65 27.857 L 46.65 38.39 C 46.65 41.152 44.412 43.39 41.65 43.39 L 6.35 43.39 C 5.023 43.39 3.751 42.863 2.815 41.926 C 1.877 40.988 1.35 39.716 1.35 38.39 L 1.35 9.56 C 1.35 8.233 1.877 6.962 2.815 6.024 C 3.751 5.087 5.023 4.56 6.35 4.56 L 19.47 4.56 C 21.415 4.56 23.3 5.241 24.795 6.486 L 25.085 6.716 L 39.494 6.716 C 42.255 6.716 44.493 8.955 44.493 11.716 Z M 40.824 24.86 L 21.96 9.878 C 21.259 9.298 20.38 8.98 19.47 8.98 L 8.533 8.98 C 7.8 8.98 7.098 9.272 6.579 9.79 C 6.061 10.307 5.77 11.01 5.77 11.742 L 5.77 36.206 C 5.77 36.939 6.061 37.642 6.579 38.158 C 7.098 38.676 7.8 38.968 8.533 38.968 L 39.467 38.968 C 40.2 38.968 40.902 38.676 41.42 38.16 C 41.939 37.642 42.229 36.939 42.229 36.206 L 42.229 27.857 C 42.229 26.707 41.722 25.616 40.842 24.875 Z M 21.372 29.693 C 21.407 28.921 21.791 28.225 22.334 27.807 L 28.151 23.93 C 28.346 23.804 28.633 23.697 28.848 23.711 C 29.066 23.725 29.339 23.877 29.51 24.03 C 29.664 24.202 29.815 24.475 29.829 24.693 C 29.843 24.908 29.747 25.179 29.622 25.374 L 25.777 31.278 C 25.36 31.839 24.669 32.223 23.899 32.25 C 23.149 32.276 22.458 32.02 22.007 31.601 C 21.587 31.149 21.337 30.451 21.372 29.693 Z M 23.999 19.189 C 24.663 19.189 25.399 19.282 26.149 19.456 C 26.904 19.634 27.66 19.913 28.41 20.296 C 28.608 20.393 28.836 20.572 28.937 20.75 C 29.041 20.931 29.083 21.227 29.048 21.442 C 28.994 21.776 28.844 22.143 28.652 22.451 C 28.45 22.759 28.172 23.023 27.929 23.151 C 27.647 23.251 27.238 23.253 26.878 23.149 C 26.849 23.14 26.822 23.128 26.795 23.114 C 26.301 22.85 25.827 22.673 25.314 22.559 C 24.793 22.44 24.373 22.386 23.999 22.386 C 22.007 22.386 20.408 23.058 18.983 24.493 C 17.558 25.928 16.89 27.559 16.89 29.602 C 16.89 30.269 16.968 30.876 17.138 31.491 C 17.305 32.107 17.471 32.497 17.724 32.973 L 30.255 32.973 C 30.507 32.523 30.669 32.144 30.836 31.506 C 31.006 30.868 31.085 30.241 31.085 29.565 C 31.085 29.154 31.037 28.73 30.934 28.24 C 30.833 27.762 30.675 27.324 30.426 26.861 C 30.416 26.841 30.407 26.821 30.399 26.8 C 30.276 26.436 30.248 25.99 30.322 25.605 C 30.428 25.205 30.705 24.801 31.033 24.559 C 31.388 24.357 31.866 24.28 32.271 24.361 C 32.68 24.495 33.04 24.792 33.215 25.184 C 33.55 25.881 33.816 26.606 33.991 27.313 C 34.167 28.019 34.265 28.739 34.282 29.409 C 34.295 30.404 34.181 31.39 33.948 32.299 C 33.709 33.207 33.35 34.081 32.895 34.859 C 32.597 35.354 32.208 35.741 31.844 35.921 C 31.504 36.061 31.054 36.143 30.591 36.147 L 17.385 36.147 C 16.953 36.139 16.476 36.018 16.073 35.81 C 15.669 35.583 15.312 35.233 15.096 34.847 C 14.668 34.066 14.322 33.22 14.081 32.361 C 13.843 31.497 13.716 30.557 13.716 29.609 C 13.716 28.204 13.996 26.832 14.521 25.588 C 15.053 24.355 15.8 23.226 16.721 22.288 C 17.642 21.349 18.765 20.581 20 20.028 C 21.245 19.481 22.612 19.189 23.999 19.189 Z"/>
</svg>