<?xml version="1.0" encoding="utf-8"?>
<svg clip-rule="evenodd" fill-rule="evenodd" stroke-linejoin="round" stroke-miterlimit="2" viewBox="0 0 48 48" xmlns="http://www.w3.org/2000/svg">
  <path fill="rgb(255, 255, 255)" d="M 44.493 22.269 C 45.873 23.788 46.65 25.778 46.65 27.857 L 46.65 38.39 C 46.65 41.152 44.412 43.39 41.65 43.39 L 6.35 43.39 C 5.023 43.39 3.751 42.863 2.815 41.926 C 1.877 40.988 1.35 39.716 1.35 38.39 L 1.35 9.56 C 1.35 8.233 1.877 6.962 2.815 6.024 C 3.751 5.087 5.023 4.56 6.35 4.56 L 19.47 4.56 C 21.415 4.56 23.3 5.241 24.795 6.486 L 25.085 6.716 L 39.494 6.716 C 42.255 6.716 44.493 8.955 44.493 11.716 Z M 40.824 24.86 L 21.96 9.878 C 21.259 9.298 20.38 8.98 19.47 8.98 L 8.533 8.98 C 7.8 8.98 7.098 9.272 6.579 9.79 C 6.061 10.307 5.77 11.01 5.77 11.742 L 5.77 36.206 C 5.77 36.939 6.061 37.642 6.579 38.158 C 7.098 38.676 7.8 38.968 8.533 38.968 L 39.467 38.968 C 40.2 38.968 40.902 38.676 41.42 38.16 C 41.939 37.642 42.229 36.939 42.229 36.206 L 42.229 27.857 C 42.229 26.707 41.722 25.616 40.842 24.875 Z M 14.173 26.229 C 13.427 25.496 13.054 24.589 13.054 23.504 C 13.054 22.455 13.429 21.556 14.178 20.81 C 14.928 20.063 15.828 19.689 16.876 19.689 C 17.926 19.689 18.824 20.063 19.572 20.813 C 20.319 21.564 20.692 22.464 20.692 23.512 C 20.692 24.596 20.318 25.504 19.567 26.233 C 18.817 26.962 17.918 27.329 16.869 27.329 C 15.819 27.329 14.921 26.961 14.173 26.229 Z M 20.338 30.834 C 21.357 31.078 22.26 31.426 23.047 31.881 C 23.57 32.228 23.971 32.596 24.251 32.984 C 24.53 33.371 24.669 33.771 24.669 34.183 C 24.669 34.599 24.511 34.948 24.199 35.227 C 23.884 35.507 23.5 35.647 23.047 35.647 L 10.698 35.647 C 10.23 35.647 9.835 35.516 9.51 35.252 C 9.187 34.986 9.025 34.623 9.025 34.161 C 9.025 33.771 9.164 33.38 9.443 32.99 C 9.722 32.599 10.158 32.228 10.75 31.881 C 11.528 31.426 12.419 31.078 13.427 30.834 C 14.433 30.59 15.583 30.468 16.873 30.468 C 18.164 30.468 19.319 30.59 20.338 30.834 Z M 30.267 33.896 C 29.704 33.896 29.25 33.725 28.903 33.383 C 28.557 33.042 28.383 32.587 28.383 32.021 C 28.383 31.486 28.565 31.036 28.926 30.673 C 29.286 30.31 29.733 30.128 30.267 30.128 L 34.976 30.128 C 35.541 30.128 35.995 30.308 36.342 30.668 C 36.688 31.027 36.86 31.481 36.86 32.029 C 36.86 32.578 36.68 33.026 36.319 33.374 C 35.957 33.722 35.51 33.896 34.976 33.896 Z M 30.267 26.989 C 29.704 26.989 29.25 26.818 28.903 26.476 C 28.557 26.134 28.383 25.681 28.383 25.115 C 28.383 24.578 28.565 24.128 28.926 23.767 C 29.286 23.404 29.733 23.222 30.267 23.222 L 34.976 23.222 C 35.541 23.222 35.995 23.401 36.342 23.761 C 36.688 24.121 36.86 24.574 36.86 25.123 C 36.86 25.671 36.68 26.119 36.319 26.467 C 35.957 26.815 35.51 26.989 34.976 26.989 Z"/>
</svg>