<?xml version="1.0" encoding="utf-8"?>
<svg clip-rule="evenodd" fill-rule="evenodd" stroke-linejoin="round" stroke-miterlimit="2" viewBox="0 0 48 48" xmlns="http://www.w3.org/2000/svg">
  <path fill="rgb(255, 255, 255)" d="M 44.493 22.269 C 45.873 23.788 46.65 25.778 46.65 27.857 L 46.65 38.39 C 46.65 41.152 44.412 43.39 41.65 43.39 L 6.35 43.39 C 5.023 43.39 3.751 42.863 2.815 41.926 C 1.877 40.988 1.35 39.716 1.35 38.39 L 1.35 9.56 C 1.35 8.233 1.877 6.962 2.815 6.024 C 3.751 5.087 5.023 4.56 6.35 4.56 L 19.47 4.56 C 21.415 4.56 23.3 5.241 24.795 6.486 L 25.085 6.716 L 39.494 6.716 C 42.255 6.716 44.493 8.955 44.493 11.716 Z M 40.824 24.86 L 21.96 9.878 C 21.259 9.298 20.38 8.98 19.47 8.98 L 8.533 8.98 C 7.8 8.98 7.098 9.272 6.579 9.79 C 6.061 10.307 5.77 11.01 5.77 11.742 L 5.77 36.206 C 5.77 36.939 6.061 37.642 6.579 38.158 C 7.098 38.676 7.8 38.968 8.533 38.968 L 39.467 38.968 C 40.2 38.968 40.902 38.676 41.42 38.16 C 41.939 37.642 42.229 36.939 42.229 36.206 L 42.229 27.857 C 42.229 26.707 41.722 25.616 40.842 24.875 Z M 17.624 22.462 L 22.679 19.543 C 23.467 19.127 24.532 19.126 25.32 19.543 L 30.376 22.462 C 31.131 22.937 31.663 23.858 31.696 24.749 L 31.696 30.586 C 31.663 31.477 31.131 32.399 30.376 32.874 L 25.32 35.793 C 24.532 36.209 23.467 36.21 22.679 35.793 L 17.624 32.874 C 16.869 32.399 16.337 31.477 16.304 30.586 L 16.304 24.749 C 16.337 23.858 16.87 22.937 17.624 22.462 Z M 28.629 24.418 L 24.5 22.034 L 24.5 26.802 Z M 18.871 25.284 L 18.871 30.586 C 18.838 30.665 18.822 30.64 18.908 30.65 L 23.5 33.302 L 23.5 27.957 Z"/>
</svg>