<?xml version="1.0" encoding="utf-8"?>
<svg clip-rule="evenodd" fill-rule="evenodd" stroke-linejoin="round" stroke-miterlimit="2" viewBox="0 0 48 48" xmlns="http://www.w3.org/2000/svg">
  <path fill="rgb(255, 255, 255)" d="M 44.493 22.269 C 45.873 23.788 46.65 25.778 46.65 27.857 L 46.65 38.39 C 46.65 41.152 44.412 43.39 41.65 43.39 L 6.35 43.39 C 5.023 43.39 3.751 42.863 2.815 41.926 C 1.877 40.988 1.35 39.716 1.35 38.39 L 1.35 9.56 C 1.35 8.233 1.877 6.962 2.815 6.024 C 3.751 5.087 5.023 4.56 6.35 4.56 L 19.47 4.56 C 21.415 4.56 23.3 5.241 24.795 6.486 L 25.085 6.716 L 39.494 6.716 C 42.255 6.716 44.493 8.955 44.493 11.716 L 44.493 22.269 Z M 21.96 9.878 C 21.259 9.298 20.38 8.98 19.47 8.98 L 8.533 8.98 C 7.8 8.98 7.098 9.272 6.579 9.79 C 6.061 10.307 5.77 11.01 5.77 11.742 L 5.77 23.605 L 15.79 23.605 C 16.178 23.622 16.674 23.756 17.029 23.937 C 17.39 24.169 17.787 24.597 18.002 24.996 L 19.872 28.98 L 25.3 18.913 C 25.276 18.957 25.255 19.004 25.238 19.051 C 25.437 18.612 25.881 18.127 26.305 17.89 C 26.667 17.738 27.15 17.622 27.536 17.622 C 27.918 17.622 28.389 17.733 28.739 17.879 C 29.124 18.089 29.56 18.531 29.785 18.911 L 31.994 23.605 L 39.244 23.605 L 21.96 9.878 Z M 5.77 36.206 C 5.77 36.939 6.061 37.642 6.579 38.158 C 7.098 38.676 7.8 38.968 8.533 38.968 L 39.467 38.968 C 40.2 38.968 40.902 38.676 41.42 38.16 C 41.939 37.642 42.229 36.939 42.229 36.206 L 42.229 28.671 L 30.989 28.671 C 30.399 28.651 29.716 28.451 29.216 28.151 C 28.742 27.821 28.296 27.311 28.031 26.788 L 27.407 25.53 L 21.968 35.38 C 21.98 35.356 21.992 35.33 22.002 35.304 C 21.807 35.735 21.425 36.204 21.054 36.47 C 20.69 36.677 20.172 36.852 19.758 36.852 C 19.337 36.852 18.82 36.706 18.452 36.52 C 18.082 36.287 17.686 35.862 17.47 35.467 L 14.211 28.671 L 5.77 28.671 L 5.77 36.206 Z M 21.968 35.38 C 21.965 35.386 21.962 35.392 21.959 35.398 L 21.968 35.38 Z M 21.959 35.398 L 21.948 35.415 C 21.951 35.409 21.954 35.403 21.959 35.398 Z"/>
</svg>