<?xml version="1.0" encoding="utf-8"?>
<svg clip-rule="evenodd" fill-rule="evenodd" stroke-linejoin="round" stroke-miterlimit="2" viewBox="0 0 48 48" xmlns="http://www.w3.org/2000/svg">
  <path fill="rgb(255, 255, 255)" d="M 44.493 22.269 C 45.873 23.788 46.65 25.778 46.65 27.857 L 46.65 38.39 C 46.65 41.152 44.412 43.39 41.65 43.39 L 6.35 43.39 C 5.023 43.39 3.751 42.863 2.815 41.926 C 1.877 40.988 1.35 39.716 1.35 38.39 L 1.35 9.56 C 1.35 8.233 1.877 6.962 2.815 6.024 C 3.751 5.087 5.023 4.56 6.35 4.56 L 19.47 4.56 C 21.415 4.56 23.3 5.241 24.795 6.486 L 25.085 6.716 L 39.494 6.716 C 42.255 6.716 44.493 8.955 44.493 11.716 L 44.493 22.269 Z M 40.824 24.86 L 21.96 9.878 C 21.259 9.298 20.38 8.98 19.47 8.98 L 8.533 8.98 C 7.8 8.98 7.098 9.272 6.579 9.79 C 6.061 10.307 5.77 11.01 5.77 11.742 L 5.77 36.206 C 5.77 36.939 6.061 37.642 6.579 38.158 C 7.098 38.676 7.8 38.968 8.533 38.968 L 39.467 38.968 C 40.2 38.968 40.902 38.676 41.42 38.16 C 41.939 37.642 42.229 36.939 42.229 36.206 L 42.229 27.857 C 42.229 26.707 41.722 25.616 40.842 24.875 L 40.824 24.86 Z M 16.857 36.147 C 16.2 36.128 15.546 35.857 15.07 35.408 C 14.621 34.932 14.351 34.277 14.332 33.622 L 14.332 22.806 C 14.351 22.145 14.621 21.485 15.069 21.004 C 15.544 20.552 16.2 20.278 16.857 20.259 L 31.121 20.259 C 31.783 20.278 32.443 20.552 32.923 21.003 C 33.376 21.484 33.648 22.144 33.667 22.806 L 33.667 33.622 C 33.648 34.278 33.375 34.934 32.921 35.41 C 32.44 35.858 31.782 36.128 31.121 36.147 L 16.857 36.147 Z M 30.621 25.426 L 24.83 29.318 C 24.707 29.389 24.539 29.468 24.429 29.506 C 24.303 29.545 24.13 29.576 23.988 29.576 C 23.848 29.576 23.676 29.548 23.551 29.507 C 23.437 29.47 23.297 29.405 23.174 29.334 L 17.357 25.426 L 17.357 33.122 L 30.621 33.122 L 30.621 25.426 Z"/>
</svg>