<?xml version="1.0" encoding="utf-8"?>
<svg clip-rule="evenodd" fill-rule="evenodd" stroke-linejoin="round" stroke-miterlimit="2" viewBox="0 0 48 48" xmlns="http://www.w3.org/2000/svg">
  <path fill="rgb(255, 255, 255)" d="M 44.493 22.269 C 45.873 23.788 46.65 25.778 46.65 27.857 L 46.65 38.39 C 46.65 41.152 44.412 43.39 41.65 43.39 L 6.35 43.39 C 5.023 43.39 3.751 42.863 2.815 41.926 C 1.877 40.988 1.35 39.716 1.35 38.39 L 1.35 9.56 C 1.35 8.233 1.877 6.962 2.815 6.024 C 3.751 5.087 5.023 4.56 6.35 4.56 L 19.47 4.56 C 21.415 4.56 23.3 5.241 24.795 6.486 L 25.085 6.716 L 39.494 6.716 C 42.255 6.716 44.493 8.955 44.493 11.716 Z M 40.824 24.86 L 21.96 9.878 C 21.259 9.298 20.38 8.98 19.47 8.98 L 8.533 8.98 C 7.8 8.98 7.098 9.272 6.579 9.79 C 6.061 10.307 5.77 11.01 5.77 11.742 L 5.77 36.206 C 5.77 36.939 6.061 37.642 6.579 38.158 C 7.098 38.676 7.8 38.968 8.533 38.968 L 39.467 38.968 C 40.2 38.968 40.902 38.676 41.42 38.16 C 41.939 37.642 42.229 36.939 42.229 36.206 L 42.229 27.857 C 42.229 26.707 41.722 25.616 40.842 24.875 Z M 23.995 30.228 C 23.58 30.228 23.118 30.038 22.832 29.749 C 22.546 29.46 22.378 29.001 22.36 28.588 L 22.36 20.829 C 22.379 20.414 22.562 19.969 22.838 19.666 C 23.142 19.39 23.589 19.189 24.004 19.189 C 24.418 19.189 24.866 19.392 25.168 19.668 C 25.439 19.971 25.621 20.415 25.639 20.829 L 25.639 28.588 C 25.621 29.001 25.451 29.463 25.161 29.751 C 24.872 30.039 24.411 30.228 23.995 30.228 Z M 23.995 34.884 C 23.58 34.884 23.118 34.694 22.831 34.403 C 22.545 34.113 22.36 33.653 22.36 33.24 C 22.36 32.824 22.563 32.377 22.84 32.075 C 23.144 31.803 23.59 31.605 24.004 31.605 C 24.418 31.605 24.881 31.794 25.168 32.085 C 25.454 32.375 25.639 32.835 25.639 33.248 C 25.639 33.664 25.436 34.111 25.159 34.413 C 24.856 34.685 24.409 34.884 23.995 34.884 Z"/>
</svg>