<?xml version="1.0" encoding="utf-8"?>
<svg clip-rule="evenodd" fill-rule="evenodd" stroke-linejoin="round" stroke-miterlimit="2" viewBox="0 0 48 48" xmlns="http://www.w3.org/2000/svg">
  <path fill="rgb(255, 255, 255)" d="M 44.493 22.269 C 45.873 23.788 46.65 25.778 46.65 27.857 L 46.65 38.39 C 46.65 41.152 44.412 43.39 41.65 43.39 L 6.35 43.39 C 5.023 43.39 3.751 42.863 2.815 41.926 C 1.877 40.988 1.35 39.716 1.35 38.39 L 1.35 9.56 C 1.35 8.233 1.877 6.962 2.815 6.024 C 3.751 5.087 5.023 4.56 6.35 4.56 L 19.47 4.56 C 21.415 4.56 23.3 5.241 24.795 6.486 L 25.085 6.716 L 39.494 6.716 C 42.255 6.716 44.493 8.955 44.493 11.716 Z M 40.824 24.86 L 21.96 9.878 C 21.259 9.298 20.38 8.98 19.47 8.98 L 8.533 8.98 C 7.8 8.98 7.098 9.272 6.579 9.79 C 6.061 10.307 5.77 11.01 5.77 11.742 L 5.77 36.206 C 5.77 36.939 6.061 37.642 6.579 38.158 C 7.098 38.676 7.8 38.968 8.533 38.968 L 39.467 38.968 C 40.2 38.968 40.902 38.676 41.42 38.16 C 41.939 37.642 42.229 36.939 42.229 36.206 L 42.229 27.857 C 42.229 26.707 41.722 25.616 40.842 24.875 Z M 15.195 32.278 C 15.538 31.085 16.055 29.286 16.371 28.266 C 16.538 27.707 16.981 27.247 17.535 27.06 C 18.251 26.818 19.299 26.551 20.234 26.615 C 20.914 26.664 21.544 26.847 22.067 27.019 C 22.491 27.195 22.832 27.524 23.019 27.909 C 23.206 28.294 23.253 28.766 23.128 29.207 C 22.805 30.318 22.343 31.905 22.028 32.923 C 21.949 33.175 21.757 33.398 21.52 33.512 C 21.279 33.618 20.981 33.618 20.74 33.514 C 20.052 33.173 19.104 32.792 18.335 32.862 C 17.51 32.93 16.76 33.031 16.117 33.195 C 15.867 33.261 15.575 33.187 15.386 33.009 C 15.206 32.822 15.131 32.53 15.195 32.278 Z M 18.389 21.208 C 18.555 20.654 18.992 20.193 19.538 19.998 C 20.532 19.663 22.274 19.3 24.041 19.968 C 24.469 20.133 24.816 20.455 25.007 20.837 C 25.198 21.219 25.248 21.688 25.125 22.129 C 24.839 23.229 24.385 24.791 24.088 25.809 C 24.008 26.068 23.809 26.297 23.564 26.413 C 23.314 26.521 23.006 26.514 22.759 26.404 C 22.078 26.03 21.121 25.634 20.323 25.72 C 19.608 25.791 18.779 25.999 18.126 26.19 C 17.876 26.252 17.584 26.18 17.403 25.997 C 17.222 25.814 17.152 25.522 17.218 25.272 C 17.56 24.077 18.089 22.244 18.389 21.208 Z M 32.805 23.058 C 32.461 24.252 31.944 26.05 31.628 27.068 C 31.462 27.628 31.017 28.089 30.465 28.276 C 29.748 28.518 28.701 28.785 27.765 28.721 C 27.086 28.672 26.455 28.49 25.933 28.317 C 25.509 28.142 25.168 27.813 24.981 27.427 C 24.794 27.042 24.747 26.57 24.872 26.129 C 25.195 25.018 25.656 23.433 25.972 22.413 C 26.05 22.162 26.243 21.939 26.479 21.824 C 26.721 21.719 27.019 21.718 27.261 21.821 C 27.947 22.163 28.896 22.545 29.665 22.475 C 30.489 22.407 31.24 22.305 31.882 22.141 C 32.133 22.075 32.426 22.149 32.615 22.327 C 32.793 22.515 32.869 22.806 32.805 23.058 Z M 29.611 34.127 C 29.445 34.683 29.008 35.143 28.462 35.337 C 27.467 35.674 25.725 36.035 23.958 35.368 C 23.531 35.203 23.184 34.881 22.993 34.499 C 22.802 34.117 22.751 33.648 22.875 33.208 C 23.16 32.108 23.615 30.546 23.911 29.527 C 23.991 29.268 24.191 29.04 24.436 28.924 C 24.685 28.815 24.994 28.821 25.241 28.932 C 25.921 29.307 26.878 29.701 27.676 29.615 C 28.391 29.544 29.22 29.336 29.873 29.147 C 30.122 29.084 30.412 29.162 30.597 29.34 C 30.773 29.526 30.848 29.815 30.781 30.065 C 30.439 31.26 29.91 33.092 29.611 34.127 Z"/>
</svg>