<?xml version="1.0" encoding="utf-8"?>
<svg clip-rule="evenodd" fill-rule="evenodd" stroke-linejoin="round" stroke-miterlimit="2" viewBox="0 0 48 48" xmlns="http://www.w3.org/2000/svg">
  <path fill="rgb(255, 255, 255)" d="M 44.493 22.269 C 45.873 23.788 46.65 25.778 46.65 27.857 L 46.65 38.39 C 46.65 41.152 44.412 43.39 41.65 43.39 L 6.35 43.39 C 5.023 43.39 3.751 42.863 2.815 41.926 C 1.877 40.988 1.35 39.716 1.35 38.39 L 1.35 9.56 C 1.35 8.233 1.877 6.962 2.815 6.024 C 3.751 5.087 5.023 4.56 6.35 4.56 L 19.47 4.56 C 21.415 4.56 23.3 5.241 24.795 6.486 L 25.085 6.716 L 39.494 6.716 C 42.255 6.716 44.493 8.955 44.493 11.716 Z M 40.824 24.86 L 21.96 9.878 C 21.259 9.298 20.38 8.98 19.47 8.98 L 8.533 8.98 C 7.8 8.98 7.098 9.272 6.579 9.79 C 6.061 10.307 5.77 11.01 5.77 11.742 L 5.77 36.206 C 5.77 36.939 6.061 37.642 6.579 38.158 C 7.098 38.676 7.8 38.968 8.533 38.968 L 39.467 38.968 C 40.2 38.968 40.902 38.676 41.42 38.16 C 41.939 37.642 42.229 36.939 42.229 36.206 L 42.229 27.857 C 42.229 26.707 41.722 25.616 40.842 24.875 Z M 30.671 24.842 C 30.347 24.878 30.027 24.947 29.719 25.049 C 29.496 25.122 29.25 25.052 29.098 24.874 C 28.107 23.706 26.648 23.016 25.072 23.016 C 22.47 23.016 20.303 24.903 19.863 27.38 C 19.822 27.613 19.643 27.797 19.412 27.844 C 17.422 28.261 15.921 30.03 15.921 32.143 C 15.921 32.725 16.035 33.281 16.243 33.79 C 16.316 33.968 16.295 34.17 16.187 34.329 C 16.08 34.49 15.901 34.585 15.709 34.585 L 14.289 34.585 C 12.257 34.585 10.612 32.94 10.612 30.908 C 10.612 28.968 12.115 27.379 14.022 27.242 C 14.029 27.241 14.035 27.238 14.04 27.232 C 14.045 27.227 14.046 27.219 14.045 27.212 C 13.98 26.923 13.946 26.624 13.946 26.317 C 13.946 24.028 15.801 22.173 18.089 22.173 C 18.947 22.173 19.744 22.434 20.404 22.88 C 20.411 22.884 20.418 22.886 20.425 22.883 C 20.433 22.881 20.439 22.876 20.442 22.87 C 21.383 20.986 23.329 19.689 25.578 19.689 C 28.305 19.689 30.586 21.591 31.171 24.138 C 31.208 24.299 31.174 24.468 31.078 24.603 C 30.983 24.737 30.834 24.824 30.671 24.842 Z M 34.892 29.985 C 36.308 30.205 37.389 31.429 37.389 32.906 C 37.389 34.059 36.729 35.059 35.765 35.546 C 35.694 35.582 35.619 35.616 35.544 35.647 L 20.717 35.647 C 18.834 35.634 17.312 34.106 17.312 32.22 C 17.312 30.328 18.846 28.794 20.739 28.794 C 20.833 28.794 20.927 28.798 21.021 28.806 C 21.015 28.719 21.012 28.631 21.012 28.543 C 21.012 26.174 22.932 24.254 25.301 24.254 C 26.965 24.254 28.407 25.202 29.118 26.588 C 29.707 26.202 30.409 25.977 31.165 25.977 C 33.23 25.977 34.904 27.65 34.904 29.715 C 34.904 29.805 34.899 29.896 34.892 29.985 Z"/>
</svg>