<?xml version="1.0" encoding="utf-8"?>
<svg clip-rule="evenodd" fill-rule="evenodd" stroke-linejoin="round" stroke-miterlimit="2" viewBox="0 0 48 48" xmlns="http://www.w3.org/2000/svg">
  <path fill="rgb(255, 255, 255)" d="M 44.493 22.269 C 45.873 23.788 46.65 25.778 46.65 27.857 L 46.65 38.39 C 46.65 41.152 44.412 43.39 41.65 43.39 L 6.35 43.39 C 5.023 43.39 3.751 42.863 2.815 41.926 C 1.877 40.988 1.35 39.716 1.35 38.39 L 1.35 9.56 C 1.35 8.233 1.877 6.962 2.815 6.024 C 3.751 5.087 5.023 4.56 6.35 4.56 L 19.47 4.56 C 21.415 4.56 23.3 5.241 24.795 6.486 L 25.085 6.716 L 39.494 6.716 C 42.255 6.716 44.493 8.955 44.493 11.716 Z M 40.824 24.86 L 21.96 9.878 C 21.259 9.298 20.38 8.98 19.47 8.98 L 8.533 8.98 C 7.8 8.98 7.098 9.272 6.579 9.79 C 6.061 10.307 5.77 11.01 5.77 11.742 L 5.77 36.206 C 5.77 36.939 6.061 37.642 6.579 38.158 C 7.098 38.676 7.8 38.968 8.533 38.968 L 39.467 38.968 C 40.2 38.968 40.902 38.676 41.42 38.16 C 41.939 37.642 42.229 36.939 42.229 36.206 L 42.229 27.857 C 42.229 26.707 41.722 25.616 40.842 24.875 Z M 23.991 36.147 C 23.001 36.147 22.022 35.943 21.153 35.573 C 20.293 35.195 19.497 34.663 18.85 34.018 C 18.203 33.373 17.671 32.576 17.297 31.716 C 16.93 30.849 16.729 29.871 16.729 28.883 C 16.729 27.895 16.93 26.917 17.298 26.047 C 17.673 25.187 18.205 24.389 18.852 23.74 C 19.498 23.092 20.295 22.555 21.155 22.175 C 22.025 21.802 23.004 21.597 23.995 21.597 C 24.847 21.597 25.697 21.748 26.461 22.023 C 27.221 22.305 27.649 22.562 28.158 22.939 L 28.388 22.708 C 28.616 22.505 28.964 22.335 29.259 22.335 C 29.556 22.335 29.908 22.513 30.137 22.725 C 30.339 22.958 30.506 23.307 30.506 23.6 C 30.506 23.894 30.336 24.243 30.131 24.472 L 29.921 24.681 C 30.259 25.135 30.493 25.5 30.8 26.225 C 31.115 26.967 31.279 27.888 31.279 28.881 C 31.279 29.872 31.075 30.852 30.704 31.723 C 30.325 32.584 29.786 33.378 29.14 34.024 C 28.489 34.664 27.694 35.198 26.832 35.574 C 25.96 35.945 24.98 36.147 23.991 36.147 Z M 21.042 29.693 L 22.65 30.37 L 23.344 31.963 C 23.472 32.14 23.771 32.386 23.992 32.386 C 24.208 32.386 24.492 32.18 24.624 32.008 L 25.355 30.371 L 26.966 29.693 C 27.144 29.565 27.395 29.263 27.395 29.042 C 27.395 28.826 27.191 28.543 27.021 28.411 C 27.004 28.402 26.987 28.393 26.97 28.386 L 25.356 27.691 L 24.645 26.094 C 24.515 25.913 24.218 25.674 23.999 25.674 C 23.781 25.674 23.499 25.879 23.368 26.048 C 23.359 26.064 23.351 26.081 23.344 26.097 L 22.65 27.692 L 21.038 28.386 C 20.863 28.514 20.613 28.815 20.613 29.035 C 20.613 29.253 20.818 29.535 20.987 29.666 C 21.005 29.676 21.023 29.685 21.042 29.693 Z M 22.205 20.648 C 21.897 20.629 21.523 20.495 21.318 20.276 C 21.119 20.064 20.982 19.704 20.982 19.406 C 20.982 19.106 21.14 18.757 21.329 18.537 C 21.549 18.347 21.9 18.206 22.205 18.189 L 25.786 18.189 C 26.09 18.206 26.441 18.348 26.661 18.538 C 26.851 18.758 27.009 19.108 27.009 19.413 C 27.009 19.712 26.856 20.058 26.67 20.281 C 26.448 20.482 26.092 20.63 25.786 20.648 Z"/>
</svg>