<?xml version="1.0" encoding="utf-8"?>
<svg clip-rule="evenodd" fill-rule="evenodd" stroke-linejoin="round" stroke-miterlimit="2" viewBox="0 0 48 48" xmlns="http://www.w3.org/2000/svg">
  <path fill="rgb(255, 255, 255)" d="M 44.493 22.269 C 45.873 23.788 46.65 25.778 46.65 27.857 L 46.65 38.39 C 46.65 41.152 44.412 43.39 41.65 43.39 L 6.35 43.39 C 5.023 43.39 3.751 42.863 2.815 41.926 C 1.877 40.988 1.35 39.716 1.35 38.39 L 1.35 9.56 C 1.35 8.233 1.877 6.962 2.815 6.024 C 3.751 5.087 5.023 4.56 6.35 4.56 L 19.47 4.56 C 21.415 4.56 23.3 5.241 24.795 6.486 L 25.085 6.716 L 39.494 6.716 C 42.255 6.716 44.493 8.955 44.493 11.716 Z M 40.824 24.86 L 21.96 9.878 C 21.259 9.298 20.38 8.98 19.47 8.98 L 8.533 8.98 C 7.8 8.98 7.098 9.272 6.579 9.79 C 6.061 10.307 5.77 11.01 5.77 11.742 L 5.77 36.206 C 5.77 36.939 6.061 37.642 6.579 38.158 C 7.098 38.676 7.8 38.968 8.533 38.968 L 39.467 38.968 C 40.2 38.968 40.902 38.676 41.42 38.16 C 41.939 37.642 42.229 36.939 42.229 36.206 L 42.229 27.857 C 42.229 26.707 41.722 25.616 40.842 24.875 Z M 17.402 11.258 L 18.735 12.563 L 20.542 12.099 C 21.044 11.969 21.557 12.266 21.696 12.765 L 22.198 14.563 L 23.995 15.064 C 24.495 15.203 24.791 15.717 24.662 16.219 L 24.197 18.026 L 25.503 19.359 C 25.866 19.729 25.866 20.322 25.503 20.692 L 24.197 22.025 L 24.662 23.832 C 24.791 24.335 24.495 24.848 23.995 24.987 L 22.198 25.489 L 21.696 27.286 C 21.557 27.786 21.044 28.082 20.542 27.953 L 18.735 27.488 L 17.402 28.794 C 17.031 29.157 16.438 29.157 16.068 28.794 L 14.735 27.488 L 12.928 27.953 C 12.426 28.082 11.913 27.786 11.774 27.286 L 11.272 25.489 L 9.475 24.987 C 8.975 24.848 8.679 24.335 8.808 23.832 L 9.273 22.025 L 7.966 20.692 C 7.604 20.322 7.604 19.729 7.966 19.359 L 9.273 18.026 L 8.808 16.219 C 8.679 15.717 8.975 15.203 9.475 15.064 L 11.272 14.563 L 11.774 12.765 C 11.913 12.266 12.426 11.969 12.928 12.099 L 14.735 12.563 L 16.068 11.258 C 16.438 10.894 17.031 10.894 17.402 11.258 Z M 14.808 22.851 C 15.082 23.093 15.503 23.276 15.836 23.276 C 16.169 23.276 16.59 23.093 16.864 22.851 L 20.459 19.256 C 20.701 18.982 20.884 18.561 20.884 18.228 C 20.884 17.895 20.701 17.475 20.459 17.201 C 20.185 16.958 19.764 16.775 19.431 16.775 C 19.098 16.775 18.677 16.958 18.403 17.202 L 15.836 19.769 L 15.067 18.999 C 14.793 18.755 14.372 18.572 14.039 18.572 C 13.706 18.572 13.285 18.755 13.011 18.999 C 12.769 19.272 12.586 19.693 12.586 20.026 C 12.586 20.359 12.768 20.779 13.011 21.053 Z M 19.303 29.225 C 19.651 29.216 20.086 29.364 20.358 29.585 C 20.602 29.837 20.787 30.259 20.808 30.608 L 20.808 34.556 C 20.759 35.387 20.238 36.17 19.606 36.478 C 18.974 36.785 18.045 36.719 17.361 36.245 L 16.735 35.776 L 16.117 36.238 C 15.433 36.713 14.496 36.785 13.864 36.478 C 13.232 36.17 12.711 35.387 12.662 34.556 L 12.662 30.608 C 12.683 30.259 12.869 29.837 13.111 29.585 C 13.383 29.364 13.817 29.216 14.167 29.225 L 14.216 29.229 C 14.525 29.275 14.888 29.443 15.082 29.654 C 15.276 29.865 15.414 30.242 15.433 30.554 L 15.433 33.271 L 16.021 32.82 C 16.218 32.688 16.514 32.578 16.735 32.578 C 16.956 32.578 17.253 32.688 17.449 32.82 L 18.037 33.271 L 18.037 30.601 C 18.056 30.276 18.199 29.887 18.402 29.667 C 18.604 29.447 18.98 29.272 19.303 29.225 Z"/>
</svg>