<?xml version="1.0" encoding="utf-8"?>
<svg clip-rule="evenodd" fill-rule="evenodd" stroke-linejoin="round" stroke-miterlimit="2" viewBox="0 0 48 48" xmlns="http://www.w3.org/2000/svg">
  <path fill="rgb(255, 255, 255)" d="M 44.493 22.269 C 45.873 23.788 46.65 25.778 46.65 27.857 L 46.65 38.39 C 46.65 41.152 44.412 43.39 41.65 43.39 L 6.35 43.39 C 5.023 43.39 3.751 42.863 2.815 41.926 C 1.877 40.988 1.35 39.716 1.35 38.39 L 1.35 9.56 C 1.35 8.233 1.877 6.962 2.815 6.024 C 3.751 5.087 5.023 4.56 6.35 4.56 L 19.47 4.56 C 21.415 4.56 23.3 5.241 24.795 6.486 L 25.085 6.716 L 39.494 6.716 C 42.255 6.716 44.493 8.955 44.493 11.716 Z M 21.96 9.878 C 21.259 9.298 20.38 8.98 19.47 8.98 L 8.533 8.98 C 7.8 8.98 7.098 9.272 6.579 9.79 C 6.061 10.307 5.77 11.01 5.77 11.742 L 5.77 36.206 C 5.77 36.939 6.061 37.642 6.579 38.158 C 7.098 38.676 7.8 38.968 8.533 38.968 L 25.127 38.968 L 25.127 33.6 L 31.122 33.6 L 31.122 38.968 L 37.07 38.968 L 37.07 33.6 L 42.229 33.6 L 42.229 28.169 L 37.07 28.169 L 37.07 22.737 L 31.122 22.737 L 31.122 17.242 L 31.232 17.242 L 31.122 17.154 L 31.122 17.242 L 25.127 17.242 L 25.127 12.393 Z M 37.071 21.879 L 37.07 21.878 L 37.07 21.879 Z M 13.792 21.982 C 13.653 21.767 13.581 21.421 13.623 21.167 C 13.619 21.182 13.615 21.197 13.612 21.213 L 13.938 19.258 C 13.761 19.114 13.66 19.041 13.473 18.776 C 13.274 18.494 13.149 18.094 13.149 17.74 C 13.149 17.241 13.38 16.722 13.713 16.362 C 14.073 16.03 14.592 15.8 15.09 15.8 C 15.589 15.8 16.108 16.032 16.468 16.363 C 16.8 16.723 17.03 17.241 17.03 17.74 C 17.03 18.094 16.895 18.486 16.706 18.776 C 16.514 19.038 16.42 19.112 16.243 19.254 L 16.585 21.211 C 16.606 21.454 16.522 21.779 16.386 21.983 C 16.207 22.163 15.894 22.311 15.639 22.334 L 14.54 22.334 C 14.285 22.311 13.971 22.163 13.792 21.982 Z M 13.611 21.221 C 13.611 21.22 13.611 21.218 13.612 21.217 Z M 15.09 27.906 C 14.959 27.906 14.811 27.89 14.691 27.867 C 14.569 27.842 14.452 27.804 14.346 27.761 C 12.451 27.127 10.89 25.911 9.753 24.2 C 8.643 22.486 8.062 20.583 8.051 18.629 L 8.051 15.049 C 8.061 14.595 8.206 14.108 8.444 13.727 C 8.706 13.354 9.104 13.04 9.532 12.875 L 14.288 11.094 C 14.533 11.006 14.83 10.948 15.09 10.948 C 15.349 10.948 15.645 11.006 15.89 11.094 L 20.638 12.871 C 21.065 13.035 21.475 13.353 21.743 13.724 C 21.986 14.105 22.136 14.593 22.147 15.049 L 22.147 18.629 C 22.136 20.583 21.552 22.487 20.435 24.201 C 19.293 25.911 17.72 27.125 15.833 27.761 C 15.727 27.804 15.61 27.842 15.488 27.867 C 15.368 27.89 15.22 27.906 15.09 27.906 Z M 15.09 25.143 C 16.327 24.633 17.259 23.89 18.1 22.666 C 18.957 21.459 19.358 20.163 19.347 18.637 L 19.347 15.394 L 15.09 13.783 L 10.833 15.403 L 10.833 18.628 C 10.822 20.16 11.222 21.459 12.078 22.666 C 12.92 23.89 13.852 24.633 15.09 25.143 Z M 31.122 33.6 L 31.122 28.169 L 37.07 28.169 L 37.07 33.6 Z M 31.122 28.169 L 25.127 28.169 L 25.127 22.737 L 31.122 22.737 Z"/>
</svg>