<?xml version="1.0" encoding="utf-8"?>
<svg clip-rule="evenodd" fill-rule="evenodd" stroke-linejoin="round" stroke-miterlimit="2" viewBox="0 0 48 48" xmlns="http://www.w3.org/2000/svg">
  <path fill="rgb(255, 255, 255)" d="M 44.493 22.269 C 45.873 23.788 46.65 25.778 46.65 27.857 L 46.65 38.39 C 46.65 41.152 44.412 43.39 41.65 43.39 L 6.35 43.39 C 5.023 43.39 3.751 42.863 2.815 41.926 C 1.877 40.988 1.35 39.716 1.35 38.39 L 1.35 9.56 C 1.35 8.233 1.877 6.962 2.815 6.024 C 3.751 5.087 5.023 4.56 6.35 4.56 L 19.47 4.56 C 21.415 4.56 23.3 5.241 24.795 6.486 L 25.085 6.716 L 39.494 6.716 C 42.255 6.716 44.493 8.955 44.493 11.716 Z M 40.824 24.86 L 21.96 9.878 C 21.259 9.298 20.38 8.98 19.47 8.98 L 8.533 8.98 C 7.8 8.98 7.098 9.272 6.579 9.79 C 6.061 10.307 5.77 11.01 5.77 11.742 L 5.77 36.206 C 5.77 36.939 6.061 37.642 6.579 38.158 C 7.098 38.676 7.8 38.968 8.533 38.968 L 39.467 38.968 C 40.2 38.968 40.902 38.676 41.42 38.16 C 41.939 37.642 42.229 36.939 42.229 36.206 L 42.229 27.857 C 42.229 26.707 41.722 25.616 40.842 24.875 Z M 22.378 16.153 C 22.921 16.171 23.482 16.394 23.886 16.755 C 24.266 17.148 24.524 17.722 24.524 18.293 C 24.524 18.844 24.266 19.405 23.888 19.799 C 23.484 20.164 22.922 20.391 22.378 20.409 L 12.393 20.409 C 11.849 20.391 11.292 20.165 10.897 19.802 C 10.531 19.411 10.282 18.852 10.282 18.305 C 10.282 17.736 10.529 17.165 10.895 16.768 C 11.29 16.401 11.847 16.172 12.393 16.153 Z M 35.571 24.038 C 36.113 24.056 36.687 24.266 37.078 24.64 C 37.472 25.017 37.717 25.592 37.717 26.144 C 37.717 26.693 37.459 27.257 37.08 27.651 C 36.676 28.017 36.114 28.243 35.571 28.261 L 12.393 28.261 C 11.849 28.243 11.292 28.017 10.897 27.654 C 10.531 27.262 10.282 26.705 10.282 26.155 C 10.282 25.609 10.529 25.049 10.895 24.655 C 11.29 24.286 11.847 24.057 12.393 24.038 Z M 35.571 31.89 C 36.113 31.908 36.674 32.131 37.077 32.491 C 37.459 32.885 37.717 33.456 37.717 34.028 C 37.717 34.579 37.459 35.142 37.079 35.538 C 36.676 35.902 36.115 36.129 35.571 36.147 L 12.393 36.147 C 11.848 36.128 11.291 35.9 10.897 35.538 C 10.531 35.146 10.282 34.589 10.282 34.042 C 10.282 33.474 10.528 32.903 10.895 32.507 C 11.29 32.138 11.847 31.909 12.393 31.89 Z"/>
</svg>