<?xml version="1.0" encoding="utf-8"?>
<svg clip-rule="evenodd" fill-rule="evenodd" stroke-linejoin="round" stroke-miterlimit="2" viewBox="0 0 48 48" xmlns="http://www.w3.org/2000/svg">
  <path fill="rgb(255, 255, 255)" d="M 44.493 22.269 C 45.873 23.788 46.65 25.778 46.65 27.857 L 46.65 38.39 C 46.65 41.152 44.412 43.39 41.65 43.39 L 6.35 43.39 C 5.023 43.39 3.751 42.863 2.815 41.926 C 1.877 40.988 1.35 39.716 1.35 38.39 L 1.35 9.56 C 1.35 8.233 1.877 6.962 2.815 6.024 C 3.751 5.087 5.023 4.56 6.35 4.56 L 19.47 4.56 C 21.415 4.56 23.3 5.241 24.795 6.486 L 25.085 6.716 L 39.494 6.716 C 42.255 6.716 44.493 8.955 44.493 11.716 Z M 40.824 24.86 L 21.96 9.878 C 21.259 9.298 20.38 8.98 19.47 8.98 L 8.533 8.98 C 7.8 8.98 7.098 9.272 6.579 9.79 C 6.061 10.307 5.77 11.01 5.77 11.742 L 5.77 36.206 C 5.77 36.939 6.061 37.642 6.579 38.158 C 7.098 38.676 7.8 38.968 8.533 38.968 L 39.467 38.968 C 40.2 38.968 40.902 38.676 41.42 38.16 C 41.939 37.642 42.229 36.939 42.229 36.206 L 42.229 27.857 C 42.229 26.707 41.722 25.616 40.842 24.875 Z M 26.402 32.496 C 26.18 32.488 25.946 32.396 25.793 32.261 C 25.654 32.107 25.554 31.875 25.554 31.65 C 25.554 31.432 25.658 31.201 25.799 31.045 C 25.955 30.903 26.186 30.808 26.402 30.799 L 27.899 30.799 C 28.124 30.808 28.359 30.904 28.512 31.046 C 28.65 31.203 28.748 31.435 28.748 31.653 C 28.748 31.874 28.642 32.107 28.499 32.26 C 28.343 32.396 28.115 32.487 27.899 32.496 Z M 27.899 30.301 L 26.402 30.301 C 26.18 30.293 25.946 30.201 25.793 30.067 C 25.654 29.913 25.554 29.679 25.554 29.456 C 25.554 29.238 25.658 29.006 25.799 28.85 C 25.955 28.708 26.186 28.613 26.402 28.604 L 27.899 28.604 C 28.124 28.613 28.359 28.709 28.512 28.851 C 28.65 29.009 28.748 29.239 28.748 29.458 C 28.748 29.68 28.642 29.913 28.499 30.066 C 28.342 30.203 28.114 30.292 27.899 30.301 Z M 23.306 31.986 C 23.645 32.069 23.98 32.202 24.247 32.354 C 24.428 32.477 24.589 32.627 24.695 32.767 C 24.799 32.922 24.874 33.12 24.874 33.293 C 24.874 33.477 24.778 33.69 24.64 33.813 C 24.505 33.933 24.294 34.002 24.108 34.009 L 20.185 34.009 C 19.996 34.003 19.786 33.939 19.649 33.827 C 19.503 33.708 19.402 33.486 19.402 33.287 C 19.402 33.12 19.477 32.924 19.581 32.771 C 19.691 32.622 19.87 32.469 20.075 32.346 C 20.339 32.194 20.656 32.069 20.993 31.986 C 21.328 31.906 21.723 31.863 22.147 31.863 C 22.569 31.863 22.967 31.906 23.306 31.986 Z M 21.112 30.945 C 20.848 30.669 20.683 30.292 20.683 29.9 C 20.683 29.519 20.847 29.145 21.114 28.867 C 21.392 28.602 21.766 28.438 22.147 28.438 C 22.529 28.438 22.903 28.603 23.18 28.869 C 23.445 29.148 23.61 29.521 23.61 29.903 C 23.61 30.295 23.442 30.673 23.177 30.947 C 22.898 31.206 22.525 31.366 22.145 31.366 C 21.765 31.366 21.39 31.203 21.112 30.945 Z M 18.488 37.218 C 18.007 37.209 17.544 37.027 17.205 36.688 C 16.867 36.35 16.685 35.886 16.675 35.405 L 16.675 21.356 C 16.684 20.868 16.874 20.409 17.204 20.063 C 17.55 19.726 18.007 19.536 18.488 19.526 L 29.495 19.526 C 29.981 19.535 30.441 19.725 30.79 20.062 C 31.125 20.408 31.315 20.868 31.325 21.356 L 31.325 35.405 C 31.315 35.886 31.124 36.344 30.789 36.689 C 30.44 37.021 29.979 37.209 29.495 37.218 Z M 29.245 22.321 L 29.245 21.606 L 18.738 21.606 L 18.738 22.321 Z M 29.245 25.229 L 29.245 24.401 L 18.738 24.401 L 18.738 25.229 Z M 18.738 35.155 L 29.245 35.155 L 29.245 27.308 L 18.738 27.308 Z"/>
</svg>