<?xml version="1.0" encoding="utf-8"?>
<svg clip-rule="evenodd" fill-rule="evenodd" stroke-linejoin="round" stroke-miterlimit="2" viewBox="0 0 48 48" xmlns="http://www.w3.org/2000/svg">
  <path fill="rgb(255, 255, 255)" d="M 38.72 29.151 C 39.711 30.242 40.269 31.672 40.269 33.165 L 40.269 40.731 C 40.269 42.714 38.661 44.322 36.678 44.322 L 11.322 44.322 C 10.369 44.322 9.456 43.943 8.783 43.27 C 8.11 42.597 7.731 41.683 7.731 40.731 L 7.731 20.023 C 7.731 19.07 8.11 18.157 8.783 17.483 C 9.456 16.81 10.369 16.431 11.322 16.431 L 20.746 16.431 C 22.143 16.431 23.497 16.92 24.571 17.815 L 24.779 17.98 L 29.136 17.98 L 29.136 14.019 C 29.136 12.441 28.617 11.125 27.578 10.07 C 26.541 9.014 25.253 8.488 23.718 8.488 C 22.515 8.488 21.463 8.837 20.561 9.533 C 19.659 10.231 19.04 11.114 18.704 12.185 C 18.428 12.731 18.047 13.172 17.561 13.506 C 17.074 13.841 16.523 14.007 15.906 14.007 C 15.208 14.007 14.665 13.713 14.275 13.121 C 13.886 12.53 13.793 11.88 13.995 11.171 C 14.568 8.978 15.746 7.18 17.525 5.779 C 19.303 4.378 21.368 3.677 23.718 3.677 C 26.56 3.677 28.966 4.68 30.938 6.686 C 32.91 8.691 33.896 11.132 33.896 14.007 L 33.896 17.98 L 35.129 17.98 C 37.112 17.98 38.72 19.588 38.72 21.571 Z M 36.084 31.012 L 22.535 20.251 C 22.031 19.835 21.4 19.606 20.746 19.606 L 12.89 19.606 C 12.364 19.606 11.86 19.816 11.487 20.188 C 11.115 20.559 10.906 21.064 10.906 21.59 L 10.906 39.162 C 10.906 39.688 11.115 40.193 11.487 40.564 C 11.86 40.936 12.364 41.146 12.89 41.146 L 35.11 41.146 C 35.636 41.146 36.14 40.936 36.512 40.565 C 36.885 40.193 37.093 39.688 37.093 39.162 L 37.093 33.165 C 37.093 32.339 36.729 31.555 36.097 31.023 Z M 21.163 25.625 C 21.163 25.627 21.163 25.624 21.163 25.625 Z M 21.162 25.625 C 21.162 25.624 21.162 25.626 21.162 25.625 Z M 21.923 36.399 C 21.748 36.102 21.629 35.628 21.623 35.238 C 21.614 35.192 21.612 35.144 21.616 35.095 C 21.618 35.082 21.621 35.066 21.623 35.052 C 21.623 35.047 21.624 35.043 21.625 35.038 L 21.989 32.844 C 21.857 32.723 21.823 32.715 21.528 32.32 C 21.238 31.89 21.022 31.234 21.022 30.707 C 21.022 29.968 21.434 29.107 21.903 28.579 C 22.431 28.11 23.264 27.729 24.001 27.729 C 24.74 27.729 25.602 28.142 26.129 28.609 C 26.597 29.137 26.979 29.969 26.979 30.707 C 26.979 31.241 26.738 31.899 26.469 32.325 C 26.176 32.711 26.147 32.718 26.016 32.838 L 26.41 35.099 C 26.429 35.494 26.281 36.068 26.073 36.405 C 26.055 36.432 26.035 36.457 26.012 36.48 C 25.713 36.76 25.112 37.024 24.703 37.076 L 23.254 37.074 C 22.844 37.022 22.287 36.76 21.987 36.478 C 21.963 36.454 21.942 36.427 21.923 36.399 Z"/>
</svg>