<?xml version="1.0" encoding="utf-8"?>
<svg clip-rule="evenodd" fill-rule="evenodd" stroke-linejoin="round" stroke-miterlimit="2" viewBox="0 0 48 48" xmlns="http://www.w3.org/2000/svg">
  <path fill="rgb(255, 255, 255)" d="M 44.493 22.269 C 45.873 23.788 46.65 25.778 46.65 27.857 L 46.65 38.39 C 46.65 41.152 44.412 43.39 41.65 43.39 L 6.35 43.39 C 5.023 43.39 3.751 42.863 2.815 41.926 C 1.877 40.988 1.35 39.716 1.35 38.39 L 1.35 9.56 C 1.35 8.233 1.877 6.962 2.815 6.024 C 3.751 5.087 5.023 4.56 6.35 4.56 L 19.47 4.56 C 21.415 4.56 23.3 5.241 24.795 6.486 L 25.085 6.716 L 39.494 6.716 C 42.255 6.716 44.493 8.955 44.493 11.716 Z M 40.824 24.86 L 21.96 9.878 C 21.259 9.298 20.38 8.98 19.47 8.98 L 8.533 8.98 C 7.8 8.98 7.098 9.272 6.579 9.79 C 6.061 10.307 5.77 11.01 5.77 11.742 L 5.77 36.206 C 5.77 36.939 6.061 37.642 6.579 38.158 C 7.098 38.676 7.8 38.968 8.533 38.968 L 39.467 38.968 C 40.2 38.968 40.902 38.676 41.42 38.16 C 41.939 37.642 42.229 36.939 42.229 36.206 L 42.229 27.857 C 42.229 26.707 41.722 25.616 40.842 24.875 Z M 17.495 31.678 C 17.269 31.717 16.944 31.652 16.721 31.544 C 16.514 31.408 16.291 31.165 16.208 30.951 C 16.125 30.738 16.122 30.414 16.182 30.175 C 16.646 28.684 17.48 27.316 18.519 26.287 C 19.267 25.575 19.674 24.654 19.714 23.621 C 19.725 23.526 19.73 23.474 19.73 23.446 C 19.73 22.307 20.234 21.179 20.977 20.436 C 21.72 19.693 22.848 19.189 23.987 19.189 C 25.126 19.189 26.254 19.693 26.997 20.436 C 27.74 21.179 28.244 22.307 28.244 23.446 C 28.244 23.618 28.377 24.242 28.539 24.864 C 28.657 25.363 28.895 25.755 29.28 26.093 C 30.405 27.153 31.313 28.585 31.815 30.162 C 31.877 30.406 31.876 30.741 31.791 30.958 C 31.706 31.175 31.48 31.422 31.269 31.559 C 31.042 31.669 30.715 31.736 30.484 31.696 C 30.254 31.657 29.974 31.493 29.796 31.314 C 29.561 32.507 28.979 33.607 28.175 34.411 C 27.131 35.456 25.586 36.147 23.987 36.147 C 22.388 36.147 20.844 35.456 19.799 34.411 C 18.991 33.603 18.408 32.496 18.175 31.297 C 18 31.472 17.719 31.64 17.495 31.678 Z M 22.232 25.646 C 21.928 26.257 21.505 27.254 21.155 28.72 L 21.116 28.887 C 21.007 29.353 20.952 29.736 20.952 30.062 C 20.952 30.939 21.271 31.681 21.852 32.299 C 22.432 32.915 23.122 33.258 23.987 33.258 C 24.852 33.258 25.542 32.915 26.122 32.299 C 26.703 31.681 27.022 30.939 27.022 30.062 C 27.022 29.734 26.968 29.351 26.859 28.885 C 26.501 27.327 26.058 26.28 25.742 25.648 C 25.534 25.944 25.285 26.299 25.058 26.624 C 24.817 26.916 24.365 27.18 23.987 27.18 C 23.61 27.18 23.158 26.918 22.918 26.624 Z"/>
</svg>