<?xml version="1.0" encoding="utf-8"?>
<svg clip-rule="evenodd" fill-rule="evenodd" stroke-linejoin="round" stroke-miterlimit="2" viewBox="0 0 48 48" xmlns="http://www.w3.org/2000/svg">
  <path fill="rgb(255, 255, 255)" d="M 44.493 22.269 C 45.873 23.788 46.65 25.778 46.65 27.857 L 46.65 38.39 C 46.65 41.152 44.412 43.39 41.65 43.39 L 6.35 43.39 C 5.023 43.39 3.751 42.863 2.815 41.926 C 1.877 40.988 1.35 39.716 1.35 38.39 L 1.35 9.56 C 1.35 8.233 1.877 6.962 2.815 6.024 C 3.751 5.087 5.023 4.56 6.35 4.56 L 19.47 4.56 C 21.415 4.56 23.3 5.241 24.795 6.486 L 25.085 6.716 L 39.494 6.716 C 42.255 6.716 44.493 8.955 44.493 11.716 Z M 40.824 24.86 L 21.96 9.878 C 21.259 9.298 20.38 8.98 19.47 8.98 L 8.533 8.98 C 7.8 8.98 7.098 9.272 6.579 9.79 C 6.061 10.307 5.77 11.01 5.77 11.742 L 5.77 36.206 C 5.77 36.939 6.061 37.642 6.579 38.158 C 7.098 38.676 7.8 38.968 8.533 38.968 L 39.467 38.968 C 40.2 38.968 40.902 38.676 41.42 38.16 C 41.939 37.642 42.229 36.939 42.229 36.206 L 42.229 27.857 C 42.229 26.707 41.722 25.616 40.842 24.875 Z M 18.954 19.54 C 19.21 19.542 19.486 19.648 19.668 19.83 C 19.849 20.01 19.955 20.284 19.957 20.542 L 19.957 34.794 C 19.952 35.135 19.756 35.48 19.467 35.661 C 19.169 35.826 18.769 35.826 18.47 35.661 C 18.181 35.481 17.985 35.137 17.98 34.796 L 17.98 20.545 C 17.98 20.299 18.074 20.044 18.225 19.872 C 18.376 19.7 18.627 19.573 18.871 19.54 C 18.9 19.539 18.925 19.539 18.954 19.54 Z M 29.016 19.54 C 29.272 19.542 29.548 19.648 29.73 19.83 C 29.911 20.01 30.017 20.284 30.019 20.542 L 30.019 34.794 C 30.014 35.135 29.818 35.48 29.529 35.661 C 29.231 35.826 28.831 35.826 28.532 35.661 C 28.243 35.481 28.047 35.137 28.042 34.796 L 28.042 20.545 C 28.042 20.299 28.136 20.044 28.287 19.872 C 28.438 19.7 28.689 19.573 28.933 19.54 C 28.962 19.539 28.986 19.539 29.016 19.54 Z M 16.438 23.313 C 16.695 23.316 16.972 23.422 17.152 23.603 C 17.334 23.785 17.44 24.058 17.442 24.315 L 17.442 31.021 C 17.437 31.362 17.241 31.708 16.952 31.887 C 16.653 32.052 16.253 32.052 15.955 31.887 C 15.666 31.707 15.47 31.364 15.465 31.023 L 15.465 24.318 C 15.465 24.072 15.559 23.817 15.71 23.645 C 15.86 23.473 16.112 23.346 16.356 23.313 C 16.385 23.312 16.409 23.312 16.438 23.313 Z M 31.531 23.313 C 31.788 23.316 32.065 23.422 32.245 23.603 C 32.427 23.785 32.533 24.058 32.535 24.315 L 32.535 31.021 C 32.53 31.362 32.334 31.708 32.045 31.887 C 31.746 32.052 31.346 32.052 31.048 31.887 C 30.759 31.707 30.563 31.364 30.558 31.023 L 30.558 24.318 C 30.558 24.072 30.652 23.817 30.803 23.645 C 30.953 23.473 31.205 23.346 31.449 23.313 C 31.478 23.312 31.502 23.312 31.531 23.313 Z M 21.478 23.733 C 21.733 23.737 22.003 23.841 22.183 24.022 C 22.365 24.204 22.471 24.478 22.473 24.734 L 22.473 30.602 C 22.468 30.943 22.272 31.289 21.983 31.468 C 21.684 31.633 21.284 31.633 20.986 31.468 C 20.697 31.288 20.501 30.945 20.496 30.604 L 20.496 24.737 C 20.496 24.491 20.59 24.236 20.741 24.064 C 20.891 23.893 21.137 23.766 21.382 23.733 C 21.413 23.731 21.447 23.731 21.478 23.733 Z M 26.509 23.733 C 26.764 23.737 27.034 23.841 27.214 24.022 C 27.396 24.204 27.502 24.478 27.504 24.734 L 27.504 30.602 C 27.499 30.943 27.303 31.289 27.014 31.468 C 26.715 31.633 26.315 31.633 26.017 31.468 C 25.728 31.288 25.532 30.945 25.527 30.604 L 25.527 24.737 C 25.527 24.491 25.621 24.236 25.772 24.064 C 25.922 23.893 26.168 23.766 26.412 23.733 C 26.444 23.731 26.478 23.731 26.509 23.733 Z M 23.994 25.829 C 24.247 25.834 24.517 25.937 24.699 26.119 C 24.88 26.299 24.986 26.573 24.988 26.831 L 24.988 28.506 C 24.983 28.846 24.787 29.192 24.498 29.372 C 24.2 29.537 23.8 29.537 23.501 29.372 C 23.212 29.192 23.016 28.848 23.011 28.508 L 23.011 26.834 C 23.011 26.588 23.105 26.333 23.256 26.161 C 23.407 25.989 23.652 25.862 23.896 25.829 C 23.928 25.827 23.962 25.827 23.994 25.829 Z M 33.877 25.575 C 34.133 25.578 34.4 25.683 34.581 25.864 C 34.763 26.046 34.869 26.32 34.871 26.576 L 34.871 28.903 C 34.866 29.244 34.67 29.589 34.381 29.769 C 34.083 29.934 33.682 29.934 33.384 29.769 C 33.095 29.589 32.899 29.246 32.894 28.905 L 32.894 26.579 C 32.894 26.333 32.988 26.078 33.139 25.906 C 33.29 25.735 33.535 25.608 33.78 25.575 C 33.811 25.573 33.845 25.573 33.877 25.575 Z M 14.102 25.5 C 14.359 25.503 14.636 25.609 14.816 25.79 C 14.998 25.972 15.104 26.245 15.106 26.502 L 15.106 28.828 C 15.101 29.169 14.905 29.515 14.616 29.695 C 14.317 29.86 13.917 29.86 13.619 29.695 C 13.33 29.514 13.134 29.171 13.129 28.83 L 13.129 26.505 C 13.129 26.259 13.223 26.004 13.374 25.832 C 13.524 25.66 13.776 25.533 14.02 25.5 C 14.049 25.499 14.073 25.499 14.102 25.5 Z"/>
</svg>