<?xml version="1.0" encoding="utf-8"?>
<svg clip-rule="evenodd" fill-rule="evenodd" stroke-linejoin="round" stroke-miterlimit="2" viewBox="0 0 48 48" xmlns="http://www.w3.org/2000/svg">
  <path fill="rgb(255, 255, 255)" d="M 8.023 1.731 L 19.899 1.731 C 21.66 1.731 23.366 2.347 24.72 3.474 L 24.982 3.683 L 38.025 3.683 C 38.131 3.683 38.235 3.687 38.339 3.694 C 40.701 3.848 42.568 5.814 42.568 8.215 L 42.568 17.778 C 43.819 19.154 44.524 20.957 44.524 22.84 L 44.524 32.384 C 44.524 34.888 42.496 36.916 39.993 36.916 L 26.949 36.916 C 26.916 37.259 27.013 37.611 27.233 37.893 C 27.313 37.966 27.387 38.045 27.462 38.124 C 27.79 38.454 28.065 38.836 28.281 39.252 L 38.904 39.252 C 39.489 39.252 40.05 39.485 40.463 39.898 C 40.876 40.312 41.109 40.872 41.109 41.456 C 41.109 42.04 40.876 42.6 40.463 43.014 C 40.05 43.426 39.489 43.66 38.904 43.66 L 28.282 43.658 C 27.481 45.209 25.864 46.269 24.001 46.269 C 22.137 46.269 20.522 45.209 19.719 43.66 L 9.097 43.66 C 8.512 43.66 7.952 43.426 7.538 43.014 C 7.125 42.6 6.892 42.04 6.892 41.456 C 6.892 40.872 7.125 40.312 7.538 39.898 C 7.952 39.485 8.512 39.252 9.097 39.252 L 19.719 39.253 C 19.935 38.836 20.209 38.454 20.531 38.118 C 20.593 38.055 20.653 37.987 20.707 37.917 L 20.711 37.912 C 20.946 37.629 21.051 37.268 21.018 36.916 L 8.007 36.916 C 6.805 36.916 5.653 36.437 4.805 35.588 C 3.954 34.738 3.476 33.586 3.476 32.384 L 3.476 6.261 C 3.476 5.059 3.954 3.907 4.805 3.057 C 5.653 2.208 6.805 1.731 8.007 1.731 C 8.007 1.731 8.023 1.731 8.023 1.731 Z M 8.231 6.465 C 7.762 6.933 7.498 7.57 7.498 8.232 L 7.498 30.377 C 7.498 31.04 7.762 31.677 8.231 32.144 C 8.7 32.613 9.336 32.877 9.999 32.877 L 38.001 32.877 C 38.664 32.877 39.3 32.613 39.769 32.146 C 40.238 31.677 40.501 31.04 40.501 30.377 L 40.501 22.819 C 40.501 21.993 40.212 21.201 39.694 20.573 C 39.563 20.417 39.418 20.272 39.26 20.139 L 39.244 20.125 L 22.151 6.549 C 21.516 6.024 20.721 5.736 19.895 5.736 L 9.985 5.736 C 9.746 5.736 9.51 5.77 9.285 5.836 C 8.89 5.954 8.527 6.169 8.231 6.465 Z M 23.999 29.792 C 22.06 29.792 20.366 29.455 19.01 28.813 C 17.635 28.129 16.856 27.16 16.803 26.103 L 16.803 19.104 C 16.857 18.062 17.641 17.094 19.026 16.399 C 20.393 15.743 22.079 15.398 23.987 15.398 C 25.884 15.398 27.572 15.743 28.951 16.399 C 30.35 17.093 31.142 18.061 31.197 19.104 L 31.197 26.103 C 31.143 27.16 30.361 28.13 28.98 28.813 C 27.619 29.455 25.926 29.792 23.999 29.792 Z M 23.99 19.895 C 24.953 19.895 25.905 19.754 26.91 19.458 C 27.91 19.168 28.069 19.073 28.396 18.868 C 28.059 18.664 27.888 18.566 26.874 18.271 C 25.852 17.968 24.911 17.825 23.983 17.825 C 23.019 17.825 22.067 17.965 21.066 18.262 C 20.071 18.551 19.881 18.658 19.556 18.87 C 19.875 19.089 20.062 19.2 21.035 19.476 C 22.015 19.76 22.982 19.895 23.99 19.895 Z M 23.974 23.621 C 24.438 23.621 24.887 23.594 25.346 23.537 C 25.807 23.48 26.237 23.401 26.661 23.294 C 27.087 23.186 27.488 23.058 27.891 22.9 C 28.293 22.742 28.493 22.648 28.769 22.507 L 28.769 21.357 C 28.588 21.434 28.641 21.42 28.216 21.577 C 27.786 21.734 27.328 21.866 26.873 21.969 C 26.418 22.071 25.937 22.152 25.458 22.206 C 24.979 22.259 24.474 22.287 23.967 22.287 C 23.484 22.287 22.985 22.259 22.497 22.206 C 22.006 22.152 21.518 22.067 21.059 21.96 C 20.601 21.853 20.147 21.72 19.727 21.569 C 19.303 21.416 19.392 21.443 19.231 21.373 L 19.231 22.523 C 19.467 22.656 19.635 22.74 20.025 22.892 C 20.421 23.044 20.825 23.172 21.262 23.286 C 21.696 23.399 22.131 23.48 22.597 23.537 C 23.063 23.594 23.512 23.621 23.974 23.621 Z M 23.991 27.365 C 24.506 27.378 25.028 27.34 25.58 27.249 C 26.136 27.158 26.639 27.04 27.117 26.887 C 27.592 26.738 27.974 26.576 28.306 26.384 C 28.623 26.209 28.694 26.147 28.769 26.042 L 28.769 25.091 C 28.603 25.168 28.676 25.145 28.26 25.309 C 27.842 25.471 27.382 25.613 26.916 25.722 C 26.451 25.829 25.962 25.913 25.474 25.968 C 24.988 26.02 24.48 26.048 23.974 26.048 C 23.474 26.048 22.964 26.018 22.468 25.957 C 21.978 25.897 21.491 25.811 21.035 25.704 C 20.578 25.594 20.125 25.454 19.707 25.292 C 19.289 25.129 19.384 25.16 19.231 25.091 L 19.231 26.065 C 19.296 26.156 19.355 26.204 19.665 26.374 C 19.99 26.561 20.371 26.719 20.847 26.87 C 21.326 27.022 21.829 27.141 22.385 27.232 C 22.94 27.323 23.461 27.366 23.991 27.365 Z M 22.25 41.054 L 22.25 41.858 C 22.433 42.657 23.147 43.252 24.001 43.252 C 24.854 43.252 25.567 42.657 25.751 41.858 L 25.751 41.054 C 25.567 40.255 24.854 39.659 24.001 39.659 C 23.147 39.659 22.433 40.255 22.25 41.054 Z"/>
</svg>