<?xml version="1.0" encoding="utf-8"?>
<svg clip-rule="evenodd" fill-rule="evenodd" stroke-linejoin="round" stroke-miterlimit="2" viewBox="0 0 48 48" xmlns="http://www.w3.org/2000/svg">
  <path fill="rgb(255, 255, 255)" d="M 44.493 22.269 C 45.873 23.788 46.65 25.778 46.65 27.857 L 46.65 38.39 C 46.65 41.152 44.412 43.39 41.65 43.39 L 6.35 43.39 C 5.023 43.39 3.751 42.863 2.815 41.926 C 1.877 40.988 1.35 39.716 1.35 38.39 L 1.35 9.56 C 1.35 8.233 1.877 6.962 2.815 6.024 C 3.751 5.087 5.023 4.56 6.35 4.56 L 19.47 4.56 C 21.415 4.56 23.3 5.241 24.795 6.486 L 25.085 6.716 L 39.494 6.716 C 42.255 6.716 44.493 8.955 44.493 11.716 Z M 40.824 24.86 L 21.96 9.878 C 21.259 9.298 20.38 8.98 19.47 8.98 L 8.533 8.98 C 7.8 8.98 7.098 9.272 6.579 9.79 C 6.061 10.307 5.77 11.01 5.77 11.742 L 5.77 36.206 C 5.77 36.939 6.061 37.642 6.579 38.158 C 7.098 38.676 7.8 38.968 8.533 38.968 L 39.467 38.968 C 40.2 38.968 40.902 38.676 41.42 38.16 C 41.939 37.642 42.229 36.939 42.229 36.206 L 42.229 27.857 C 42.229 26.707 41.722 25.616 40.842 24.875 Z M 18.605 28.629 L 21.247 31.27 C 21.671 31.725 21.882 32.262 21.882 32.877 C 21.882 33.493 21.657 34.031 21.208 34.493 C 20.726 34.953 20.171 35.19 19.545 35.206 C 18.918 35.222 18.378 35.002 17.921 34.546 L 13.667 30.291 C 13.21 29.82 12.982 29.271 12.982 28.643 C 12.982 28.014 13.21 27.456 13.667 26.967 L 17.97 22.712 C 18.43 22.288 18.977 22.076 19.61 22.076 C 20.246 22.076 20.789 22.31 21.247 22.776 C 21.671 23.209 21.882 23.746 21.882 24.39 C 21.882 25.031 21.671 25.564 21.247 25.988 Z M 29.462 28.629 L 26.82 25.988 C 26.396 25.553 26.185 25.021 26.185 24.394 C 26.185 23.766 26.415 23.223 26.874 22.765 C 27.335 22.305 27.882 22.076 28.514 22.076 C 29.146 22.076 29.689 22.288 30.146 22.712 L 34.4 26.967 C 34.856 27.467 35.085 28.032 35.085 28.66 C 35.085 29.288 34.856 29.833 34.4 30.291 L 30.097 34.546 C 29.651 35.002 29.106 35.222 28.465 35.206 C 27.825 35.19 27.278 34.953 26.82 34.493 C 26.396 34.067 26.185 33.537 26.185 32.904 C 26.185 32.271 26.396 31.725 26.82 31.27 Z"/>
</svg>