<?xml version="1.0" encoding="utf-8"?>
<svg clip-rule="evenodd" fill-rule="evenodd" stroke-linejoin="round" stroke-miterlimit="2" viewBox="0 0 48 48" xmlns="http://www.w3.org/2000/svg">
  <path fill="rgb(255, 255, 255)" d="M 22.802 7.331 C 22.374 6.952 21.914 6.786 21.343 6.804 L 13.249 6.804 C 12.822 6.781 12.514 6.909 12.226 7.229 C 11.909 7.513 11.781 7.821 11.804 8.248 L 11.804 13.252 L 31.348 13.252 Z M 7.333 6.633 C 7.356 5.536 7.835 4.384 8.593 3.592 C 9.383 2.834 10.536 2.356 11.633 2.333 L 21.343 2.333 C 22.884 2.351 24.462 2.917 25.659 3.889 L 25.708 3.929 L 36.161 3.929 C 37.305 3.955 38.456 4.443 39.201 5.188 C 39.946 5.933 40.434 7.084 40.46 8.229 L 40.46 13.272 C 42.187 13.396 43.654 14.082 44.859 15.331 C 46.198 16.717 46.868 18.388 46.868 20.346 L 46.868 29.59 C 46.868 31.031 46.377 32.242 45.396 33.223 C 44.414 34.205 43.203 34.696 41.763 34.696 L 38.161 34.696 L 38.161 40.016 C 38.161 41.404 37.671 42.594 36.69 43.583 C 35.707 44.573 34.496 45.068 33.056 45.068 L 14.891 45.068 C 13.465 45.068 12.266 44.573 11.295 43.583 C 10.324 42.594 9.839 41.404 9.839 40.016 L 9.839 34.696 L 6.184 34.696 C 4.758 34.696 3.56 34.205 2.589 33.223 C 1.617 32.242 1.132 31.031 1.132 29.59 L 1.132 20.346 C 1.132 18.388 1.798 16.717 3.132 15.331 C 4.295 14.122 5.696 13.44 7.333 13.286 Z M 6.184 29.59 L 12.203 29.59 L 12.203 28.73 C 12.598 28.524 13.021 28.347 13.473 28.199 C 13.925 28.051 14.397 27.978 14.891 27.978 L 33.056 27.978 C 33.548 27.978 34.021 28.051 34.473 28.199 C 34.926 28.347 35.349 28.524 35.743 28.73 L 35.743 29.59 L 41.763 29.59 L 41.763 20.228 C 41.763 19.686 41.582 19.239 41.221 18.886 C 40.861 18.534 40.414 18.357 39.881 18.357 L 8.065 18.357 C 7.557 18.357 7.117 18.55 6.743 18.934 C 6.371 19.318 6.184 19.789 6.184 20.346 Z M 35.421 24.054 C 34.991 23.625 34.776 23.105 34.776 22.496 C 34.776 21.887 34.991 21.359 35.421 20.91 C 35.85 20.463 36.379 20.238 37.006 20.238 C 37.646 20.238 38.178 20.463 38.601 20.91 C 39.025 21.359 39.237 21.887 39.237 22.496 C 39.237 23.119 39.021 23.641 38.592 24.065 C 38.161 24.488 37.633 24.699 37.006 24.699 C 36.379 24.699 35.85 24.484 35.421 24.054 Z M 33.056 40.285 L 33.056 33.083 L 14.891 33.083 L 14.891 40.285 Z"/>
</svg>