<?xml version="1.0" encoding="utf-8"?>
<svg clip-rule="evenodd" fill-rule="evenodd" stroke-linejoin="round" stroke-miterlimit="2" viewBox="0 0 48 48" xmlns="http://www.w3.org/2000/svg">
  <path fill="rgb(255, 255, 255)" d="M 44.493 22.269 C 45.873 23.788 46.65 25.778 46.65 27.857 L 46.65 38.39 C 46.65 41.152 44.412 43.39 41.65 43.39 L 6.35 43.39 C 5.023 43.39 3.751 42.863 2.815 41.926 C 1.877 40.988 1.35 39.716 1.35 38.39 L 1.35 9.56 C 1.35 8.233 1.877 6.962 2.815 6.024 C 3.751 5.087 5.023 4.56 6.35 4.56 L 19.47 4.56 C 21.415 4.56 23.3 5.241 24.795 6.486 L 25.085 6.716 L 39.494 6.716 C 42.255 6.716 44.493 8.955 44.493 11.716 Z M 40.824 24.86 L 21.96 9.878 C 21.259 9.298 20.38 8.98 19.47 8.98 L 8.533 8.98 C 7.8 8.98 7.098 9.272 6.579 9.79 C 6.061 10.307 5.77 11.01 5.77 11.742 L 5.77 36.206 C 5.77 36.939 6.061 37.642 6.579 38.158 C 7.098 38.676 7.8 38.968 8.533 38.968 L 39.467 38.968 C 40.2 38.968 40.902 38.676 41.42 38.16 C 41.939 37.642 42.229 36.939 42.229 36.206 L 42.229 27.857 C 42.229 26.707 41.722 25.616 40.842 24.875 Z M 10.525 35.647 C 10.127 35.647 9.79 35.509 9.515 35.234 C 9.24 34.959 9.102 34.623 9.102 34.224 L 9.102 33.679 C 9.102 32.775 9.556 32.049 10.465 31.502 C 11.373 30.955 12.558 30.681 14.019 30.681 L 14.371 30.681 C 14.472 30.681 14.583 30.688 14.704 30.701 C 14.502 31.111 14.351 31.532 14.25 31.962 C 14.149 32.393 14.098 32.842 14.098 33.31 L 14.098 35.647 Z M 24.015 27.683 C 22.901 27.683 21.953 27.293 21.173 26.513 C 20.393 25.733 20.003 24.786 20.003 23.671 C 20.003 22.551 20.393 21.607 21.173 20.84 C 21.953 20.073 22.901 19.689 24.015 19.689 C 25.136 19.689 26.079 20.073 26.847 20.84 C 27.614 21.607 27.997 22.551 27.997 23.671 C 27.997 24.786 27.614 25.733 26.847 26.513 C 26.079 27.293 25.136 27.683 24.015 27.683 Z M 33.986 29.863 C 33.345 29.863 32.797 29.633 32.342 29.172 C 31.888 28.711 31.661 28.157 31.661 27.51 C 31.661 26.858 31.889 26.305 32.346 25.851 C 32.803 25.397 33.352 25.17 33.993 25.17 C 34.639 25.17 35.194 25.398 35.658 25.852 C 36.123 26.307 36.355 26.862 36.355 27.517 C 36.355 28.153 36.125 28.703 35.666 29.167 C 35.207 29.631 34.647 29.863 33.986 29.863 Z M 14.001 29.863 C 13.359 29.863 12.811 29.633 12.357 29.172 C 11.903 28.711 11.676 28.157 11.676 27.51 C 11.676 26.858 11.904 26.305 12.361 25.851 C 12.817 25.397 13.367 25.17 14.008 25.17 C 14.654 25.17 15.208 25.398 15.673 25.852 C 16.137 26.307 16.37 26.862 16.37 27.517 C 16.37 28.153 16.14 28.703 15.681 29.167 C 15.222 29.631 14.662 29.863 14.001 29.863 Z M 33.902 35.647 L 33.902 33.302 C 33.902 32.822 33.851 32.367 33.751 31.936 C 33.65 31.506 33.508 31.095 33.327 30.703 C 33.448 30.688 33.561 30.681 33.668 30.681 L 33.993 30.681 C 35.481 30.681 36.67 30.954 37.561 31.5 C 38.453 32.046 38.898 32.772 38.898 33.679 L 38.898 34.224 C 38.898 34.623 38.761 34.959 38.486 35.234 C 38.211 35.509 37.874 35.647 37.475 35.647 Z M 17.792 35.647 C 17.394 35.647 17.057 35.509 16.782 35.234 C 16.507 34.959 16.37 34.623 16.37 34.224 L 16.37 33.315 C 16.37 32.609 16.551 31.963 16.914 31.377 C 17.278 30.792 17.803 30.287 18.489 29.863 C 19.175 29.439 19.986 29.116 20.92 28.894 C 21.855 28.672 22.879 28.561 23.992 28.561 C 25.126 28.561 26.156 28.672 27.08 28.894 C 28.005 29.116 28.815 29.439 29.511 29.863 C 30.198 30.287 30.722 30.792 31.086 31.377 C 31.449 31.963 31.631 32.609 31.631 33.315 L 31.631 34.224 C 31.631 34.623 31.493 34.959 31.218 35.234 C 30.943 35.509 30.606 35.647 30.208 35.647 Z"/>
</svg>