<svg height="48" viewBox="0 -960 960 960" width="48" xmlns="http://www.w3.org/2000/svg"><path fill="rgb(255, 255, 255)" d="m229-55c-26.033 0-48.207-9.157-66.52-27.47-18.32-18.32-27.48-40.497-27.48-66.53v-662c0-26.307 9.16-48.717 27.48-67.23 18.313-18.513 40.487-27.77 66.52-27.77h502c26.307 0 48.717 9.257 67.23 27.77s27.77 40.923 27.77 67.23v662c0 26.033-9.257 48.21-27.77 66.53-18.513 18.313-40.923 27.47-67.23 27.47zm0-94h502v-662h-49v171.959c0 9.74-4 16.84-12 21.3-8 4.467-16 4.367-24-.3l-38-20c-7.207-4.666-15.173-7-23.9-7-8.733 0-16.433 2.334-23.1 7l-39 20c-8 4.667-15.667 4.767-23 .3-7.333-4.46-11-11.56-11-21.3v-171.959h-259zm355.1-499.041c-8.733 0-16.433 2-23.1 6 6.968-3.989 14.691-5.989 23.171-6-.024 0-.047 0-.071 0zm86.07 27c-7.893 4.667-15.95 4.667-24.17 0 8.22 4.667 16.277 4.667 24.17 0zm1.022 310.221c0 4.42-1.11 9.32-2.559 12.99-1.824 4.61-5.654 10.8-12.256 15.03-6.1 3.86-15.975 6.88-28.518 6.88-19.214 0-57.035-6.88-99.741-43.94-16.066 2.76-30.003 6.01-47.679 10.91-16.28 5.01-30.522 9.4-45.801 14.49-10.716 19.63-25.459 44.27-43.94 66.08-18.535 21.88-41.9 39.59-64.139 40.43h-.233c-10.018-.26-20.734-4.67-27.785-10.52-5.384-5.64-9.732-14.61-9.732-23.11 0-1.99.198-4.05.537-5.8 5.135-24.69 44.996-55.07 104.25-79.69 10.342-19.89 19.126-38.84 27.91-59.78 10.144-24.79 17.587-45.04 24.958-67.23-19.967-46.98-24.993-95.82-12.523-119.68l.124-.28c5.475-8.29 16.496-14.95 27.178-15.83 15.617.75 28.195 9.22 34.583 20.42 6.279 11 8.873 26.38 8.927 39.87l-.036.87c-1.682 32.52-8.123 64.31-17.766 91.74 6.262 11.23 13.06 21.99 19.752 31.4l.608.86c10.162 14.26 19.591 25.31 30.969 36.82 17.783-3.17 34.977-4.88 55.104-5.03 31.202.15 55.479 7.39 68.522 19.09.412.27.805.58 1.181.94l.036.04c.358.37.68.78.966 1.2 4.043 5.57 7.103 13.43 7.103 20.83zm-41.347-2.83c.842-3.64-.429-4.77-2.683-6.8-2.451-2.26-5.35-3.24-8.659-3.93-.144-.02-.25-.05-.394-.08-7.031-1.36-14.008-2.03-21.504-2.03-1.414 0-2.756.05-3.972.08h-.483c-9.286 0-18.339.46-26.944 1.34 12.649 8.91 26.908 15.53 43.206 19.77h.036c2.308.46 4.473.72 6.96.82.358 0 .734.03 1.091.06.644.09 1.038.1 1.664.1 3.112 0 4.777-.59 7.138-2.39 2.237-1.7 3.454-3.06 4.151-5.73-.018.12-.036.24-.053.34.178-.53.322-1.03.429-1.5-.107.27-.197.55-.286.85 0-.06.017-.11.035-.16.072-.24.162-.51.268-.74zm-123.035-27.92c-7.425-8.61-11.826-13.89-21.917-27.65-6.1-8.6-6.351-9.22-9.41-14.06-3.721 10.47-5.457 16.01-12.112 31.9-5.439 12.74-6.852 15.79-10.716 24.04 7.388-2.29 9.177-2.86 21.754-6.29 15.834-4.3 22.042-5.63 32.401-7.94zm-48.914-200.58c-.179.86-.483 1.69-.948 2.46-6.208 9.64-6.476 33.01 2.165 63.86 3.918-16.18 6.441-32.92 7.531-50.76 0-4.87-.393-9.12-1.913-12.72-.698-1.64-.931-2.01-1.825-2.69-.859-.67-.681-.85-2.219-.62h-.017c-1.557-.36-2.291-.27-2.774.47zm-87.397 275.34c-33.026 16.53-52.777 32.34-54.96 44.17-.018.19-.054.4-.108.63l-.018.07c-.018.14-.054.28-.089.43-.018.21-.036.42-.036.71 0 1.84-.108 2.22 1.306 3.13.215.2.394.38.591.52-.14-.117-.298-.283-.422-.411.005.001.01.001.01.001.161.16.322.3.466.47.715.53 1.305.64 2.593.46 11.236.99 29.234-17.53 50.667-50.18zm-53.736 49.249c-.004-.002-.008-.004-.008-.009.003.003.005.006.008.009z"/></svg>