<svg height="48" viewBox="0 -960 960 960" width="48" xmlns="http://www.w3.org/2000/svg"><path fill="rgb(255, 255, 255)" d="m489.52-167.83c-12.27 0-22.72-4.28-31.31-12.9-8.6-8.62-12.9-19.08-12.9-31.38 0-12.29 4.3-22.75 12.9-31.28 8.59-8.59 19.04-12.86 31.31-12.86h288.49c12.47 0 23.06 4.29 31.8 12.91 8.72 8.62 13.09 19.09 13.09 31.38 0 12.33-4.37 22.74-13.09 31.32-8.74 8.53-19.33 12.81-31.8 12.81zm-204.56-174.39c0-12.42 4.28-23.03 12.8-31.81 8.58-8.6 19-13.01 31.32-13.01 12.3 0 22.76 4.41 31.38 13.01 8.62 8.78 12.92 19.39 12.92 31.81v130.17c0 12.41-4.28 22.61-12.86 31.21-8.54 8.8-19 13.01-31.28 13.01-12.3 0-22.76-4.21-31.38-13.01-8.62-8.6-12.9-18.8-12.9-31.21zm26.7-250.84c12.4 0 23 4.29 31.81 12.8 8.59 8.58 12.96 19.01 12.96 31.32s-4.37 22.76-12.96 31.39c-8.81 8.62-19.41 12.91-31.81 12.91h-130.35c-12.25 0-22.59-4.28-31.22-12.86-8.62-8.54-12.99-18.99-12.99-31.27 0-12.31 4.37-22.76 12.99-31.39 8.63-8.61 18.97-12.9 31.22-12.9zm286.65 227.64c-12.25 0-22.59-4.28-31.22-12.9-8.62-8.62-12.99-19.08-12.99-31.38 0-12.28 4.37-22.74 12.99-31.28 8.63-8.58 18.97-12.86 31.22-12.86h130.34c12.4 0 23 4.3 31.81 12.92 8.59 8.62 12.96 19.08 12.96 31.38 0 12.32-4.37 22.74-12.96 31.32-8.81 8.52-19.41 12.8-31.81 12.8zm-187.61-381.87c0-12.46 4.28-23.06 12.84-31.79 8.56-8.72 19-13.09 31.29-13.09 12.33 0 22.77 4.37 31.38 13.09 8.62 8.73 12.91 19.33 12.91 31.79v268.54c0 12.29-4.28 22.73-12.82 31.33-8.58 8.6-19 12.9-31.32 12.9-12.29 0-22.76-4.3-31.37-12.9-8.62-8.6-12.91-19.04-12.91-31.33z"/></svg>