<svg height="48" viewBox="0 -960 960 960" width="48" xmlns="http://www.w3.org/2000/svg"><path fill="rgb(255, 255, 255)" d="m199.162-567.82c0-8.73 3-16.05 9-21.99 5.99-5.94 13.34-8.92 22.03-8.92h498.95c8.66 0 16.09 3.02 22.32 9.04 6.24 6 9.38 13.38 9.38 22.11 0 8.71-3.14 16.04-9.38 21.98-6.23 5.95-13.66 8.91-22.32 8.91h-498.95c-8.69 0-16.04-3-22.03-9.02-6-6.02-9-13.39-9-22.11zm353.677-297.28c4.197.19 10.435 1.2 14.313 2.81 3.879 1.59 9.057 5.2 12.175 8.19 2.879 3 6.658 8.39 8.257 12.2 1.58 3.98 2.539 10.18 2.739 14.4v121.94c-.2 4.2-1.18 10.38-2.758 14.39-1.6 3.81-5.438 9.21-8.238 12.2-3.098 2.99-8.276 6.59-12.175 8.2-3.878 1.58-10.116 2.6-14.313 2.79h-122.072c-4.199-.19-10.436-1.21-14.315-2.79-3.899-1.61-9.216-5.4-12.336-8.2-2.779-3.21-6.477-8.39-8.076-12.2-1.579-4.01-2.559-10.19-2.759-14.39v-121.94c.2-4.22 1.159-10.42 2.739-14.4 1.599-3.81 5.398-9.2 8.276-12.41 3.099-2.78 8.278-6.39 12.176-7.98 3.859-1.61 10.096-2.62 14.295-2.81zm67.407 566.92c0 12.46-4.28 23.06-12.84 31.79-8.56 8.72-19 13.09-31.29 13.09-12.33 0-22.77-4.37-31.38-13.09-8.62-8.73-12.91-19.33-12.91-31.79v-130.08c0-12.29 4.28-22.73 12.82-31.33 8.58-8.6 19-12.9 31.32-12.9 12.29 0 22.76 4.3 31.37 12.9 8.62 8.6 12.91 19.04 12.91 31.33zm-192.729 158.398c0 12.46-4.28 23.05-12.81 31.79-8.58 8.72-18.99 13.09-31.32 13.09-12.29 0-22.76-4.37-31.38-13.09-8.62-8.74-12.91-19.33-12.91-31.79v-288.49c0-12.28 4.27-22.72 12.86-31.32 8.53-8.6 18.99-12.898 31.28-12.898 12.3 0 22.76 4.298 31.38 12.898s12.9 19.04 12.9 31.32z"/></svg>