<svg clip-rule="evenodd" fill-rule="evenodd" stroke-linejoin="round" stroke-miterlimit="2" viewBox="0 0 48 48" xmlns="http://www.w3.org/2000/svg"><path fill="rgb(255, 255, 255)" d="m4.029 6.984c0-3.004 2.44-5.444 5.443-5.444h29.056c3.004 0 5.443 2.44 5.443 5.444v34.032c0 3.004-2.439 5.444-5.443 5.444h-29.056c-3.003 0-5.443-2.44-5.443-5.444zm17.267-.213h-10.087c-1.337 0-2.423 1.087-2.423 2.425v29.608c0 1.339 1.086 2.425 2.423 2.425h25.582c1.337 0 2.423-1.086 2.423-2.425v-29.608c0-1.338-1.086-2.425-2.423-2.425h-10.087c-.178 0-.28.197-.28.4 0 .823-.619 1.455-1.334 1.455h-2.18c-.715 0-1.334-.632-1.334-1.455 0-.203-.102-.4-.28-.4zm2.422 2.656h.564c1.162 0 2.142 1.048 2.142 2.382s-.98 2.382-2.142 2.382h-.564c-1.162 0-2.142-1.048-2.142-2.382s.98-2.382 2.142-2.382zm0 5.565h.564c1.162 0 2.142 1.048 2.142 2.382s-.98 2.382-2.142 2.382h-.564c-1.162 0-2.142-1.048-2.142-2.382s.98-2.382 2.142-2.382zm-5.281 11.276c-.442-.443-.665-.982-.667-1.622-.001-.637.225-1.183.678-1.636s1.002-.683 1.649-.691c.647-.006 1.192.212 1.635.654l2.292 2.293 2.244-2.244c.457-.457 1.001-.698 1.632-.725.632-.027 1.183.196 1.655.668.458.458.689 1.017.69 1.677.002.66-.225 1.218-.681 1.675l-2.245 2.244 2.245 2.244c.442.443.661.986.656 1.632-.005.645-.237 1.196-.695 1.654-.446.446-.989.669-1.63.671-.642.001-1.183-.22-1.626-.662l-2.244-2.245-2.245 2.246c-.456.456-1.008.689-1.655.7-.648.01-1.208-.22-1.68-.692s-.697-1.027-.675-1.664c.02-.637.258-1.184.715-1.64l2.245-2.245z"/></svg>