<svg clip-rule="evenodd" fill-rule="evenodd" stroke-linejoin="round" stroke-miterlimit="2" viewBox="0 0 48 48" xmlns="http://www.w3.org/2000/svg"><path fill="rgb(255, 255, 255)" d="m21.296 6.771h-10.087c-1.337 0-2.423 1.087-2.423 2.425v29.608c0 1.339 1.086 2.425 2.423 2.425h25.582c1.337 0 2.423-1.086 2.423-2.425v-29.608c0-1.338-1.086-2.425-2.423-2.425h-10.087c-.178 0-.28.197-.28.4 0 .823-.619 1.455-1.334 1.455h-2.18c-.715 0-1.334-.632-1.334-1.455 0-.203-.102-.4-.28-.4zm-17.267.213c0-3.004 2.44-5.444 5.443-5.444h29.056c3.004 0 5.443 2.44 5.443 5.444v34.032c0 3.004-2.439 5.444-5.443 5.444h-29.056c-3.003 0-5.443-2.44-5.443-5.444zm14.433 23.882c-.626 0-1.165-.224-1.618-.675-.452-.45-.678-.996-.678-1.636 0-.641.226-1.192.678-1.655.453-.462.992-.693 1.618-.693h3.242v-3.174c0-.646.214-1.201.641-1.666.428-.466.976-.698 1.643-.698.648 0 1.206.232 1.674.698.468.465.702 1.02.702 1.666v3.174h3.174c.626 0 1.165.229 1.618.689.452.46.678 1.014.678 1.662 0 .63-.226 1.172-.678 1.626-.453.455-.992.682-1.618.682h-3.174v3.175c0 .645-.225 1.2-.675 1.665-.451.466-1.01.699-1.677.699s-1.219-.233-1.654-.699c-.436-.465-.654-1.02-.654-1.665v-3.175zm5.256-15.874h.564c1.162 0 2.142 1.048 2.142 2.382s-.98 2.382-2.142 2.382h-.564c-1.162 0-2.142-1.048-2.142-2.382s.98-2.382 2.142-2.382zm0-5.565h.564c1.162 0 2.142 1.048 2.142 2.382s-.98 2.382-2.142 2.382h-.564c-1.162 0-2.142-1.048-2.142-2.382s.98-2.382 2.142-2.382z"/></svg>