<svg height="48" viewBox="0 -960 960 960" width="48" xmlns="http://www.w3.org/2000/svg"><path fill="rgb(255, 255, 255)" d="m883-703-442 442 16 17c16 25.333 17.333 48.333 4 69s-28.667 39.667-46 57c-4.667 4.667-9.833 7-15.5 7s-10.833-2.333-15.5-7l-73-72-111 112c-9.333 9.333-20.5 14-33.5 14s-24.167-4.667-33.5-14l-59-59c-10-9.333-15-20.667-15-34s5-24.667 15-34l112-111-73-72c-4.667-5.333-7-10.667-7-16s2.333-10.667 7-16c17.333-17.333 36.333-32.667 57-46s44-11.667 70 5l17 16 427-428c8.667-8.667 19-15.5 31-20.5s24.333-7.5 37-7.5h98c13.333 0 24.5 4.5 33.5 13.5s13.5 20.167 13.5 33.5v119c0 6-1.167 11.667-3.5 17s-5.833 10.333-10.5 15zm-501 376 428-427v-60h-60l-429 426zm0 0-29-32-32-29 32 29z"/></svg>