<svg height="48" viewBox="0 -960 960 960" width="48" xmlns="http://www.w3.org/2000/svg"><path fill="rgb(255, 255, 255)" d="m479.915-116.58c-50.602 0-97.896-9.42-141.882-28.25-43.986-18.85-82.471-44.76-115.457-77.75-32.984-32.98-58.897-71.45-77.738-115.4-18.836-43.96-28.254-91.25-28.254-141.9s9.418-98 28.254-142.04c18.841-44.02 44.708-82.4 77.603-115.13 32.893-32.73 71.336-58.64 115.327-77.73 43.998-19.08 91.345-28.64 142.044-28.64s98.098 9.53 142.198 28.57c44.094 19.05 82.485 44.9 115.174 77.56 32.69 32.66 58.565 71.06 77.629 115.19 19.068 44.15 28.603 91.58 28.603 142.29 0 50.69-9.546 98.02-28.637 142-19.093 43.98-45.003 82.38-77.732 115.18-32.734 32.81-71.12 58.68-115.157 77.63-44.042 18.94-91.367 28.42-141.975 28.42zm-.342-80.29c71.391 0 132.939-22.77 184.646-68.33 49.51-43.61 80.016-97.15 91.516-160.6-6.361 6.78-13.828 12.2-22.402 16.26-9.618 4.55-20.183 6.84-31.696 6.84h-64.057c-20.903 0-38.799-7.48-53.688-22.41-14.884-14.95-22.326-32.92-22.326-53.89v-38.15h-152.029v-70.54c0-21.51 7.471-39.62 22.412-54.32s32.903-22.05 53.885-22.05h38.152v-18.78c0-12.15 4.271-26.01 12.811-41.58 8.541-15.56 18.506-23.62 29.894-24.19-13.678-3.74-27.79-6.94-42.338-9.64-14.554-2.69-29.378-4.04-44.472-4.04-78.782 0-145.646 27.43-200.592 82.27-54.947 54.84-82.42 121.66-82.42 200.44 0 2.29.142 4.42.426 6.41.285 2 .427 4.13.427 6.41h88.826c42.135 0 78.008 14.8 107.616 44.41s44.413 65.33 44.413 107.16v38.03h-113.595v41c22.776 11.96 47.212 21.5 73.307 28.61 26.09 7.13 53.185 10.68 81.284 10.68zm.335 159.957c-59.672 0-120.827-12.766-173.246-34.635-51.652-22.604-101.183-56.032-140.535-94.732-38.693-39.35-72.056-88.92-94.658-140.52-21.878-52.4-34.553-113.34-34.553-173.07 0-59.71 12.76-120.92 34.633-173.39 22.614-51.72 56.038-101.18 94.675-140.29 39.198-38.37 88.592-71.64 140.153-94.48 52.474-22.17 113.577-35.06 173.42-35.06 59.824 0 121.153 12.93 173.722 35.05 51.702 22.8 101.054 56.12 140.077 94.46 38.38 38.99 71.681 88.43 94.501 140.17 22.147 52.62 34.987 113.79 34.987 173.62s-12.962 121.12-35.15 173.59c-22.842 51.56-56.198 100.86-94.584 139.97-39.093 38.53-88.557 71.849-140.235 94.563-52.495 22.002-113.505 34.754-173.207 34.754zm153.501-80.707c47.662-20.52 89.177-48.49 124.606-83.98 35.413-35.51 63.465-77.08 84.133-124.69 20.686-47.68 30.936-98.73 30.936-153.5 0-54.79-10.297-106.02-30.901-153.82-20.638-47.77-48.638-89.33-83.999-124.67-35.384-35.34-76.932-63.32-124.665-83.94-47.758-20.57-98.942-30.87-153.722-30.87-54.781 0-105.912 10.33-153.561 30.95-47.618 20.66-89.241 48.72-124.851 84.14-35.57 35.42-63.535 76.91-83.932 124.55-20.361 47.7-30.537 98.86-30.537 153.58 0 54.74 10.125 105.77 30.535 153.43 20.396 47.56 48.431 89.18 84.111 124.88 35.702 35.69 77.33 63.72 124.935 84.12 47.641 20.35 98.735 30.527 153.411 30.527 54.682 0 105.749-10.181 153.501-30.707z"/></svg>