<svg height="48" viewBox="0 -960 960 960" width="48" xmlns="http://www.w3.org/2000/svg"><path fill="rgb(255, 255, 255)" d="m142-95c-13.167 0-24.29-4.56-33.37-13.68-9.087-9.113-13.63-20.28-13.63-33.5 0-13.213 4.543-24.32 13.63-33.32 9.08-9 20.203-13.5 33.37-13.5h38v-582h-38c-13.167 0-24.29-4.56-33.37-13.68-9.087-9.113-13.63-20.25-13.63-33.41 0-13.153 4.543-24.427 13.63-33.82 9.08-9.393 20.203-14.09 33.37-14.09h169c13.167 0 24.293 4.753 33.38 14.26 9.08 9.513 13.62 20.847 13.62 34 0 13.16-4.54 24.24-13.62 33.24-9.087 9-20.213 13.5-33.38 13.5h-37v582h37c13.167 0 24.293 4.56 33.38 13.68 9.08 9.113 13.62 20.28 13.62 33.5 0 13.213-4.54 24.32-13.62 33.32-9.087 9-20.213 13.5-33.38 13.5zm590.147-385.55-260.988-260.98c-9.183-9.3-13.919-20.5-14.212-34.1-.275-13.43 4.169-24.8 13.35-33.95 9.769-9.8 21.536-14.64 35.316-14.64 13.782 0 25.272 4.84 34.454 14.64l273.909 272.19c8.045 7.93 13.935 16.88 17.657 26.71 3.739 9.65 5.6 19.82 5.6 30.13 0 10.34-1.861 20.35-5.6 30.17-3.722 9.63-9.612 18.6-17.657 26.69l-273.909 273.91c-9.749 9.65-21.241 14.46-34.454 14.13-13.197-.16-24.686-5.33-34.454-14.98-9.183-9.83-13.919-21.36-14.212-34.47-.275-13.27 4.461-24.81 14.212-34.44z"/></svg>