<svg height="48" viewBox="0 -960 960 960" width="48" xmlns="http://www.w3.org/2000/svg"><path fill="rgb(255, 255, 255)" d="m377.62-851c-12.16 0-22.053-4.06-29.68-12.18-7.627-8.11-11.44-18.11-11.44-30 0-11.88 3.813-21.65 11.44-29.32s17.52-11.5 29.68-11.5h203.76c12.167 0 22.06 3.83 29.68 11.49 7.627 7.66 11.44 17.56 11.44 29.69 0 11.88-3.813 21.82-11.44 29.82-7.62 8-17.513 12-29.68 12zm371.88 109c8.667-8.67 18.5-13 29.5-13s20.833 4.5 29.5 13.5 13 19 13 30-4.333 20.83-13 29.5l-29.517 29.517c22.173 27.635 40.536 58.314 55.092 92.113 20.269 47 30.393 97.22 30.393 150.84 0 53.64-10.204 103.86-30.634 150.66-20.409 46.82-48.03 87.79-82.861 122.94-34.813 35.16-75.831 62.683-123.077 82.756-47.227 20.099-97.647 30.148-151.241 30.148-98.67 0-183.903-32.343-255.737-96.824-71.812-64.69-113.415-144.84-124.804-240.65-2.01-12.06 1.184-22.91 9.542-32.55 8.377-9.83 19.283-15.05 32.742-15.67 12.656-.6 23.844 2.83 33.547 10.64 9.723 7.64 16.25 17.89 19.585 30.54 9.382 70.32 40.678 129.57 93.909 177.78 53.234 48.2 117.013 72.33 191.338 72.33 81.916 0 151.119-28.34 207.584-84.99 56.467-56.64 84.69-125.76 84.69-207.11s-28.223-150.45-84.69-207.3c-56.465-56.85-125.668-85.16-207.584-85.16-39.876 0-77.961 8.02-114.28 24.09-36.298 16.09-68.52 38.57-96.641 67.31h47.205c10.245 0 18.842 3.4 25.773 10.44 6.93 7.04 10.384 15.67 10.384 25.92 0 10.64-3.454 19.47-10.384 26.51-6.931 7.03-15.528 10.43-25.773 10.43h-145.636c-13.881 0-25.39-4.61-34.51-13.64-9.12-9.25-13.699-20.29-13.699-33.55v-145.63c0-9.86 3.475-18.28 10.425-25.12 6.949-6.64 15.547-10.03 25.811-10.03 9.984 0 18.502 3.39 25.532 10.03 7.032 6.84 10.546 15.26 10.546 25.12v60.24c37.505-40.17 80.853-71.51 130.067-93.79 49.217-22.51 100.801-33.76 154.757-33.76 53.975 0 104.537 10.26 151.681 30.75 33.58 14.451 64.072 32.672 91.477 54.658zm-239.246 323.84 111.424 107.96c8.4 8.43 12.6 17.46 12.6 27.31 0 10.04-3.978 18.91-11.877 26.55-7.94 8.24-16.821 12.42-26.61 12.42-9.827 0-18.69-4.18-26.63-12.42l-118.836-116.8c-4.823-4.19-8.281-9.02-10.352-14.86-2.05-5.64-3.093-12.06-3.093-19.3v-170.41c0-10.46 3.576-19.12 10.751-25.94 7.156-6.84 15.937-10.23 26.349-10.23 10.39 0 19.051 3.39 25.946 10.23 6.873 6.82 10.328 15.48 10.328 25.94z"/></svg>