<svg height="48" viewBox="0 -960 960 960" width="48" xmlns="http://www.w3.org/2000/svg"><path fill="rgb(255, 255, 255)" d="m146-433.002c-13.167 0-24.293-4.5-33.38-13.5-9.08-9-13.62-20.11-13.62-33.32 0-13.22 4.54-24.39 13.62-33.5 9.087-9.12 20.213-13.68 33.38-13.68h198l-26-26c-8-9.34-12.167-19.71-12.5-31.11-.333-11.41 3.833-21.71 12.5-30.89 10.667-10.67 22.5-16.17 35.5-16.5 13-.34 24.167 4.16 33.5 13.5l104 104c9.333 9.33 14 20.6 14 33.82 0 13.21-4.667 24.6-14 34.18l-104 103c-9.333 10-20.333 15-33 15s-23.697-5.03-33.09-15.09c-9.94-9.94-14.91-20.75-14.91-32.41 0-11.67 4.333-22.17 13-31.5l25-26zm511 338.002c-13.167 0-24.29-4.56-33.37-13.68-9.087-9.113-13.63-20.28-13.63-33.5 0-13.213 4.543-24.32 13.63-33.32 9.08-9 20.203-13.5 33.37-13.5h36v-582h-36c-13.167 0-24.29-4.56-33.37-13.68-9.087-9.113-13.63-20.25-13.63-33.41 0-13.153 4.543-24.427 13.63-33.82 9.08-9.393 20.203-14.09 33.37-14.09h169c13.167 0 24.293 4.753 33.38 14.26 9.08 9.513 13.62 20.847 13.62 34 0 13.16-4.54 24.24-13.62 33.24-9.087 9-20.213 13.5-33.38 13.5h-38v582h38c13.167 0 24.293 4.56 33.38 13.68 9.08 9.113 13.62 20.28 13.62 33.5 0 13.213-4.54 24.32-13.62 33.32-9.087 9-20.213 13.5-33.38 13.5z"/></svg>