<svg height="48" viewBox="0 -960 960 960" width="48" xmlns="http://www.w3.org/2000/svg"><path fill="rgb(255, 255, 255)" d="m510.378-857.83c62.228 62.22 107.079 126.66 134.569 193.36 27.499 66.73 41.45 138.63 41.88 215.78-.437 2.12-.628 4.49-.638 7.03-.009 2.54-.22 4.9-.636 7.05l86.297 56.88c12.36 8.09 21.861 18.66 28.456 31.65 6.594 12.98 10.119 26.53 10.55 40.6l-.647 170.68c.008 15.35-6.176 27.29-18.537 35.812-12.362 8.53-25.574 9.6-39.637 3.19l-156.636-62.022-22.117-.06c-4.458 19.342-12.55 38.446-23.202 54.03-13.599 18.571-28.02 37.028-42.536 54.476-7.02 8.43-17.42 13.309-28.391 13.318-10.97.009-21.378-4.853-28.41-13.272-14.703-17.611-29.262-36.09-43.037-54.612-10.92-15.727-19.202-35.021-23.712-54.454l-20.661-.056-156.629 63.312c-14.069 6.37-27.267 5.1-39.637-3.85-12.358-8.942-18.333-20.902-17.902-35.812l-.004-171.34c.013-14.48 3.1-27.8 9.278-39.94 6.176-12.15 15.457-22.27 27.818-30.36l86.297-58.2.003-5.74c0-2.13.207-4.26.632-6.41.006-78.4 13.647-150.65 40.917-216.72 27.279-66.04 71.815-130.41 133.614-193.06 4.261-4.28 9.057-7.36 14.386-9.28 5.341-1.9 10.978-2.85 16.938-2.89 6.396-.4 12.263.35 17.584 2.26 5.341 1.93 9.909 4.79 13.75 8.65zm10.22 388.67c11.08-11.08 16.851-24.5 17.27-40.26-.006-16.21-5.758-30.06-17.255-41.55-11.517-11.52-25.366-17.27-41.561-17.27-15.777.42-29.203 6.18-40.287 17.25-11.079 11.08-16.829 24.51-17.25 40.28-.004 16.2 5.75 30.06 17.267 41.56 11.497 11.52 25.345 17.26 41.55 17.26 15.776-.42 29.184-6.18 40.266-17.27z"/></svg>