<svg height="48" viewBox="0 -960 960 960" width="48" xmlns="http://www.w3.org/2000/svg"><path fill="rgb(255, 255, 255)" d="m48.243-126.28v-259c0-13.09 4.543-24.36 13.63-33.81 9.08-9.46 20.537-14.19 34.37-14.19h260c13.167 0 24.293 4.73 33.38 14.19 9.08 9.45 13.62 20.72 13.62 33.81v259c0 13.83-4.54 25.28-13.62 34.365-9.087 9.087-20.213 13.63-33.38 13.63h-260c-13.833 0-25.29-4.543-34.37-13.63-9.087-9.085-13.63-20.535-13.63-34.365zm95-47h166v-165h-166zm104-417 180-290c4.667-7.34 10.483-12.84 17.45-16.5 6.96-3.67 14.46-5.5 22.5-5.5 8.033 0 15.55 1.83 22.55 5.5 7 3.66 12.833 9.16 17.5 16.5l181 290c4.667 8.24 6.833 16.64 6.5 25.18-.333 8.55-2.333 16.48-6 23.82-3.667 7.33-9.233 13.16-16.7 17.5-7.467 4.33-15.733 6.5-24.8 6.5h-360c-9.18 0-17.547-2.14-25.1-6.43-7.553-4.28-13.02-10.14-16.4-17.57-3.667-7.3-5.667-15.16-6-23.6-.333-8.43 2.167-16.9 7.5-25.4zm125-22h190l-95-155zm118.829 521.159v-126.179c0-6.38 2.214-11.87 6.641-16.47 4.423-4.61 10.005-6.91 16.744-6.91h126.666c6.414 0 11.835 2.3 16.262 6.91 4.423 4.6 6.635 10.09 6.635 16.47v126.179c0 6.738-2.212 12.321-6.635 16.744-4.427 4.424-9.848 6.641-16.262 6.641h-126.666c-6.739 0-12.321-2.217-16.744-6.641-4.427-4.423-6.641-10.006-6.641-16.744zm46.282-22.899h80.871v-80.38h-80.871zm50.666-203.15 87.692-141.28c2.274-3.57 5.107-6.25 8.501-8.04 3.391-1.79 7.045-2.68 10.962-2.68 3.913 0 7.575.89 10.986 2.68 3.41 1.79 6.251 4.47 8.525 8.04l88.179 141.28c2.274 4.01 3.329 8.11 3.167 12.27-.163 4.16-1.137 8.03-2.923 11.6-1.787 3.57-4.499 6.42-8.136 8.53-3.638 2.11-7.665 3.16-12.082 3.16h-175.384c-4.472 0-8.548-1.04-12.228-3.12-3.679-2.09-6.343-4.95-7.989-8.57-1.787-3.55-2.761-7.38-2.923-11.49-.163-4.11 1.055-8.24 3.653-12.38zm60.897-10.72h92.564l-46.282-75.51zm113.966 139.47 40.297-64.92c1.048-1.66 2.346-2.87 3.908-3.72 1.559-.81 3.238-1.21 5.037-1.21 1.796 0 3.479.4 5.046 1.21 1.568.85 2.875 2.06 3.918 3.72l40.52 64.92c1.047 1.83 1.531 3.72 1.455 5.64-.071 1.88-.519 3.67-1.343 5.32-.819 1.62-2.064 2.96-3.738 3.9-1.671.99-3.52 1.48-5.552 1.48h-80.593c-2.055 0-3.926-.49-5.619-1.48-1.688-.94-2.915-2.23-3.671-3.9-.82-1.65-1.267-3.4-1.343-5.27-.072-1.93.488-3.81 1.678-5.69zm-55.035 114.36v-57.98c0-2.96 1.016-5.46 3.053-7.57 2.033-2.15 4.598-3.18 7.692-3.18h58.206c2.95 0 5.439 1.03 7.472 3.18 2.033 2.11 3.05 4.61 3.05 7.57v57.98c0 3.089-1.017 5.642-3.05 7.654-2.033 2.06-4.522 3.088-7.472 3.088h-58.206c-3.094 0-5.659-1.028-7.692-3.088-2.037-2.012-3.053-4.565-3.053-7.654zm159.282 16.34c-12.537 0-23.086-4.297-31.642-12.939-8.552-8.594-12.832-19.161-12.832-31.651 0-12.54 4.272-23.11 12.81-31.75 8.534-8.69 19.096-12.98 31.677-12.98 12.577 0 23.161 4.29 31.742 12.94 8.579 8.64 12.871 19.25 12.871 31.79 0 12.539-4.302 23.101-12.915 31.699-8.604 8.594-19.175 12.891-31.711 12.891z"/></svg>