<svg viewBox="0 0 22 22" xmlns="http://www.w3.org/2000/svg"><path fill="rgb(255, 255, 255)" d="m19.5 11c0 2.311-.979 4.5-2.49 6.01-1.51 1.511-3.699 2.49-6.01 2.49s-4.5-.979-6.01-2.49c-1.511-1.51-2.49-3.699-2.49-6.01s.979-4.5 2.49-6.01c1.51-1.511 3.699-2.49 6.01-2.49s4.5.979 6.01 2.49c1.511 1.51 2.49 3.699 2.49 6.01zm-13.096-4.596c-1.204 1.204-1.904 2.765-1.904 4.596s.7 3.392 1.904 4.596 2.765 1.904 4.596 1.904 3.392-.7 4.596-1.904 1.904-2.765 1.904-4.596-.7-3.392-1.904-4.596-2.765-1.904-4.596-1.904-3.392.7-4.596 1.904z"/></svg>