<svg viewBox="0 0 22 22" xmlns="http://www.w3.org/2000/svg"><path fill="rgb(255, 255, 255)" d="m9.903 2.52c.021-.004.642.48.642.48v1.184c0 .276-.224.5-.5.5-.263-.003-.384.016-.491.061-.082.035-.058.012-.098.101-.111.243-.112.684-.112 1.549v2.033c-.001.44-.061 1.046-.258 1.583-.198.535-.347.699-.644 1 .295.301.446.462.644.996.197.537.257 1.143.258 1.583v2.015c0 .865.001 1.306.112 1.549.04.089.016.066.098.101.107.045.228.064.491.061.276 0 .5.224.5.5v1.184c0 .276-.224.5-.5.5-.956-.009-1.784-.236-2.278-.722-.494-.487-.733-1.315-.744-2.288v-2.441c0-.554-.007-1.084-.12-1.483-.054-.188-.091-.265-.172-.345-.078-.076-.077-.097-.223-.076h-.508c-.276 0-.5-.224-.5-.5v-1.29c0-.276.224-.5.5-.5h.508c.146.021.145 0 .223-.076.081-.08.118-.157.172-.345.113-.399.12-.929.12-1.483v-2.441c.011-.973.25-1.801.744-2.288.252-.247.62-.453.993-.563.36-.106 1.143-.139 1.143-.139zm1.536.48.5-.5c.956.009 1.786.235 2.284.721.499.486.743 1.315.754 2.289v2.441c-.001.55.014 1.077.134 1.477.056.189.095.269.179.35.079.077.078.098.22.077h.49c.276 0 .5.224.5.5v1.29c0 .276-.224.5-.5.5h-.49c-.142-.021-.141 0-.22.077-.084.081-.123.161-.179.35-.12.4-.135.927-.134 1.477v2.441c-.011.974-.255 1.803-.754 2.289-.498.486-1.328.712-2.284.721-.276 0-.5-.224-.5-.5v-1.184c0-.276.224-.5.5-.5.264.003.387-.016.495-.062.085-.035.063-.015.105-.104.113-.244.117-.682.117-1.545v-2.015c.001-.44.061-1.046.258-1.583.198-.534.347-.698.644-.999-.295-.301-.446-.462-.644-.997-.197-.537-.257-1.143-.258-1.583v-2.033c0-.863-.004-1.301-.117-1.545-.042-.089-.02-.068-.105-.104-.108-.046-.231-.065-.495-.062-.276 0-.5-.224-.5-.5z"/></svg>