<svg height="48" viewBox="0 -960 960 960" width="48" xmlns="http://www.w3.org/2000/svg"><path fill="rgb(255, 255, 255)" d="m480-55c-98.373 0-180.467-33.747-246.28-101.24-65.813-67.5-98.72-151.42-98.72-251.76 0-36 7.167-72.833 21.5-110.5s34.667-76 61-115 57.833-78.5 94.5-118.5 77-80 121-120c7.333-6 14.873-10.333 22.62-13 7.74-2.667 15.907-4 24.5-4 8.587 0 16.713 1.333 24.38 4s15.167 7 22.5 13c44 40 84.333 80 121 120s68.167 79.5 94.5 118.5 46.833 77.333 61.5 115 22 74.5 22 110.5c0 100.34-33.073 184.26-99.22 251.76-66.147 67.493-148.407 101.24-246.78 101.24zm1-157c12.667 0 22.833-2.643 30.5-7.93s11.5-12.31 11.5-21.07c0-9.333-3.667-16.833-11-22.5s-18-8.5-32-8.5c-31.333 0-58.167-8.5-80.5-25.5s-37.167-43.833-44.5-80.5c-1.333-6.667-4.833-12.667-10.5-18s-12.5-8-20.5-8c-10.54 0-18.343 3.5-23.41 10.5-5.06 7-6.923 14.5-5.59 22.5 10 56.667 33.723 97.333 71.17 122s75.723 37 114.83 37z"/></svg>