<svg viewBox="0 0 22 22" xmlns="http://www.w3.org/2000/svg"><path fill="rgb(255, 255, 255)" d="m16 5.5c.931.022 1.869.419 2.475 1.025s1.025 1.544 1.025 2.475-.419 1.869-1.025 2.475-1.544 1.003-2.475 1.025h-9c-.45-.022-.762.14-1.061.439s-.439.611-.439 1.061.14.762.439 1.061.611.461 1.061.439h6.681c.156-.432.402-.825.698-1.121.515-.516 1.328-.879 2.121-.879s1.606.363 2.121.879c.516.515.879 1.328.879 2.121s-.363 1.606-.879 2.121c-.515.516-1.328.879-2.121.879s-1.606-.363-2.121-.879c-.296-.296-.542-.689-.698-1.121h-6.681c-.931-.022-1.869-.419-2.475-1.025s-1.025-1.544-1.025-2.475.419-1.869 1.025-2.475 1.544-1.003 2.475-1.025h9c.45.022.762-.14 1.061-.439s.439-.611.439-1.061-.14-.762-.439-1.061-.611-.461-1.061-.439h-7.681c-.156.432-.402.825-.698 1.121-.515.516-1.328.879-2.121.879s-1.606-.363-2.121-.879c-.516-.515-.879-1.328-.879-2.121s.363-1.606.879-2.121c.515-.516 1.328-.879 2.121-.879s1.606.363 2.121.879c.296.296.542.689.698 1.121zm-11.207.293c-.209.208-.293.395-.293.707s.084.499.293.707c.208.209.395.293.707.293s.499-.084.707-.293c.209-.208.293-.395.293-.707s-.084-.499-.293-.707c-.208-.209-.395-.293-.707-.293s-.499.084-.707.293zm11 10c-.209.208-.293.395-.293.707s.084.499.293.707c.208.209.395.293.707.293s.499-.084.707-.293c.209-.208.293-.395.293-.707s-.084-.499-.293-.707c-.208-.209-.395-.293-.707-.293s-.499.084-.707.293z"/></svg>