<svg height="48" viewBox="0 -960 960 960" width="48" xmlns="http://www.w3.org/2000/svg"><path fill="rgb(255, 255, 255)" d="m715-448v137h39v-137h106v-64h-315.487c1.356 10.78 2.034 21.663 2.034 32.65 0 10.671-.585 21.041-1.733 31.35zm134-146c25.867 0 48 9.2 66.4 27.6s27.6 40.533 27.6 66.4v40c0 21.907-6.04 40.383-18.12 55.43-12.087 15.047-26.047 25.57-41.88 31.57h-46v54c-.667 25.167-9.963 46.457-27.89 63.87-17.933 17.42-39.97 26.13-66.11 26.13h-20c-26.693 0-48.533-8.543-65.52-25.63-16.987-17.08-26.147-35.87-27.48-56.37v-55l-134.582-4.069c-7.566.743-15.207-.474-22.922-3.651-11.468-5.14-19.131-13.61-22.987-25.7-3.856-12.06-4.079-23.9-.643-35.99 1.705-6.92 2.992-14.13 3.857-21.84.839-7.71 1.284-15.15 1.284-22.63 0-23.38-4.301-45.49-12.853-66.06s-20.985-38.81-37.273-55.27c-14.583-14.65-31.069-25.7-49.483-33.42-18.44-7.7-37.521-12.85-57.196-15.42l14.138 14.14c9.417 9.52 14.139 20.56 14.139 33.42 0 12.85-4.722 23.65-14.139 32.65-9.442 9-20.243 13.62-32.37 13.62-12.157 0-22.801-4.62-31.899-14.14l-82.262-79.69c-12.005-12.08-17.993-26.48-17.993-43.19 0-16.94 5.988-31.61 17.993-44.2l82.262-80.99c9.407-8.47 20.075-12.84 31.951-12.84 11.853 0 22.579 4.37 32.12 13.36 9.542 9 14.337 19.81 14.337 32.15 0 12.6-4.301 23.37-12.853 32.89l-10.283 11.56c30.847 1.82 60.804 8.99 89.971 21.86 29.116 12.84 54.822 30.33 77.117 52.69 20.966 21.412 37.887 45.67 50.796 72.76zm-596.788 270.42c-9.434-8.73-14.139-19.78-14.139-32.62 0-12.87 4.705-23.67 14.139-32.67 9.407-8.74 20.256-13.12 32.459-13.12 12.234 0 23.258 4.38 33.096 12.85l80.973 80.97c11.963 12.09 17.995 26.5 17.995 43.22 0 16.95-6.032 31.61-17.995 44.21l-82.258 79.69c-9.073 9.49-19.726 14.14-31.96 14.14-12.235 0-22.955-4.65-32.129-14.14-9.564-8.49-14.32-19.03-14.32-31.64 0-12.33 4.705-23.13 14.139-32.65l10.283-11.57c-31.723-1.78-61.85-8.97-90.435-22.09-28.586-13.1-54.292-30.84-77.094-53.22-25.371-25.43-44.702-53.98-58.017-86.11-13.291-32.13-19.949-65.55-19.949-100.78 0-13.61 1.184-27.22 3.522-40.86 2.365-13.64 5.474-26.98 9.329-40.1 3.446-12.86 11.312-21.34 23.601-25.71 12.262-4.35 24.394-3.86 36.349 1.28 11.359 4.89 19.408 13.12 24.163 24.94 4.756 11.82 5.424 24.18 2.005 36.76-2.056 7.7-3.652 15.17-4.755 22.36-1.133 7.47-1.672 14.65-1.672 22.12 0 23.39 4.266 45.48 12.829 66.05 8.56 20.32 21 38.83 37.297 55.28 14.552 14.65 30.848 25.69 48.842 33.41 17.996 7.7 37.275 12.35 57.84 14.14zm69.87-156.42c0 26.399-21.401 47.8-47.8 47.8s-47.8-21.401-47.8-47.8 21.401-47.8 47.8-47.8 47.8 21.401 47.8 47.8z"/></svg>