<svg height="48" viewBox="0 -960 960 960" width="48" xmlns="http://www.w3.org/2000/svg"><path fill="rgb(255, 255, 255)" d="m480.09-95c-48.973 0-94.563-12-136.77-36-42.213-24-72.987-58.333-92.32-103h-79.62c-11.02 0-19.837-3.327-26.45-9.98-6.62-6.647-9.93-15.38-9.93-26.2 0-10.813 3.31-19.487 9.93-26.02 6.613-6.533 15.303-9.8 26.07-9.8h55c-4.167-15.333-6.207-30.89-6.12-46.67.08-15.773.12-31.55.12-47.33h-50c-10.767 0-19.457-3.327-26.07-9.98-6.62-6.647-9.93-15.38-9.93-26.2 0-10.813 3.31-19.487 9.93-26.02 6.613-6.533 15.303-9.8 26.07-9.8h50c0-17.333.127-34.5.38-51.5.247-17 2.787-33.833 7.62-50.5h-57c-10.767 0-19.457-3.327-26.07-9.98-6.62-6.647-9.93-15.38-9.93-26.2 0-10.813 3.31-19.487 9.93-26.02 6.613-6.533 15.303-9.8 26.07-9.8h87c8-20.667 19.833-38.5 35.5-53.5s33.167-27.5 52.5-37.5l-52.77-50.78c-7.487-7.48-11.063-15.817-10.73-25.01.333-9.187 3.973-17.303 10.92-24.35 7.147-7.24 15.197-10.86 24.15-10.86s17.203 3.72 24.75 11.16l69.68 68.84c21.147-9.333 43.1-14.333 65.86-15s45.14 3.667 67.14 13l71-71c6.56-7.333 14.69-11 24.39-11s17.837 3.473 24.41 10.42c6.8 7.147 10.2 15.32 10.2 24.52 0 9.193-3.333 17.213-10 24.06l-50 50c21.333 11.333 39.847 25.873 55.54 43.62s28.52 37.54 38.48 59.38h84.98c8.5 0 16.127 3.297 22.88 9.89 6.747 6.593 10.12 14.357 10.12 23.29s-3.373 16.637-10.12 23.11c-6.753 6.473-14.38 9.71-22.88 9.71h-62c5.5 16.447 8.21 33.28 8.13 50.5-.087 17.22-.13 34.387-.13 51.5h51c10.2 0 18.75 3.327 25.65 9.98 6.9 6.647 10.35 15.38 10.35 26.2 0 10.813-3.45 19.487-10.35 26.02s-15.45 9.8-25.65 9.8h-51v47.33c0 15.56-2 31.117-6 46.67h57c10.2 0 18.75 3.327 25.65 9.98 6.9 6.647 10.35 15.38 10.35 26.2 0 10.813-3.45 19.487-10.35 26.02s-15.45 9.8-25.65 9.8h-80c-20 44.667-51.117 79-93.35 103-42.24 24-88.093 36-137.56 36zm.07-94c47.893 0 87.34-16.737 118.34-50.21 31-33.467 46.5-74.063 46.5-121.79v-150c0-48.273-15.553-89.343-46.66-123.21-31.107-33.86-70.607-50.79-118.5-50.79s-87.34 16.93-118.34 50.79c-31 33.867-46.5 74.937-46.5 123.21v150c0 47.727 15.553 88.323 46.66 121.79 31.107 33.473 70.607 50.21 118.5 50.21zm-35.641-180.63c-5.212 4.71-12.969 8.32-19.78 8.32-6.802 0-14.587-3.63-19.803-8.34-4.589-5.2-7.945-12.94-8.485-19.73.246-7.02 3.431-14.93 8.104-20.17l55.473-55.47c5.136-4.57 13.043-8.33 20.094-8.33 7.042 0 14.897 3.65 20.094 8.19l55.207 55.2c4.681 5.28 7.893 13.26 8.125 20.35-.537 6.86-3.825 14.46-8.418 19.56-5.195 4.72-12.927 8.35-19.709 8.35-6.751 0-14.529-3.55-19.847-8.22l-7.283-7.29v104.21c-.361 6.95-3.274 15.07-8.124 19.93-4.82 4.82-12.903 8.17-19.906 8.17-6.995 0-15.069-3.33-19.929-8.13-4.913-4.85-7.87-13-8.239-19.97v-104.2zm77.43-234.52c10.575 11.07 17.149 26.25 17.149 41.84s-6.542 30.68-17.065 41.79c-11.094 10.57-26.204 17.11-41.795 17.11-15.582 0-30.688-6.52-41.797-17.01-10.557-11.1-17.155-26.21-17.155-41.82 0-15.59 6.553-30.75 17.084-41.81 11.07-10.56 26.168-17.17 41.776-17.17 15.613 0 30.719 6.6 41.803 17.07z"/></svg>