<svg height="48" viewBox="0 -960 960 960" width="48" xmlns="http://www.w3.org/2000/svg"><path fill="rgb(255, 255, 255)" d="m767.928-428.46h-575.855c-13.218-.687-28.296-6.446-36.699-14.847s-14.852-23.48-14.852-36.703c0-13.218 6.449-28.296 14.851-36.698s23.48-14.165 36.7-14.852h575.855c13.22.687 28.298 6.45 36.7 14.852s14.851 23.48 14.851 36.698c0 13.223-6.449 28.302-14.852 36.703s-23.481 14.16-36.699 14.847zm-287.923 310.96c-31.469 0-63.369-14.373-84.002-35.007-20.634-20.634-35.006-52.535-35.006-84.003 0-31.469 14.372-63.367 35.006-83.999 20.634-20.631 52.534-35.001 84.002-35.001 31.467 0 63.367 14.37 84.001 35.001 20.634 20.632 35.006 52.53 35.006 83.999 0 32.293-14.396 64.242-35.073 84.689-20.69 20.46-52.571 34.321-83.934 34.321zm35.26-154.265c-8.095-8.095-22.722-14.645-35.26-14.645s-27.165 6.55-35.26 14.645c-8.096 8.095-14.646 22.721-14.646 35.255 0 12.538 6.549 27.166 14.645 35.263 8.095 8.096 22.723 14.647 35.261 14.647s27.166-6.551 35.261-14.648c8.095-8.096 14.644-22.724 14.644-35.262 0-12.533-6.55-27.16-14.645-35.255zm-35.26-332.735c-31.469 0-63.369-14.373-84.002-35.007-20.634-20.634-35.006-52.535-35.006-84.003 0-31.459 14.373-63.355 35.006-83.986 20.634-20.632 52.533-35.004 84.002-35.004 31.468 0 63.368 14.372 84.001 35.004 20.633 20.631 35.006 52.527 35.006 83.986 0 31.468-14.372 63.369-35.005 84.003-20.634 20.634-52.534 35.007-84.002 35.007zm35.259-154.27c-8.097-8.094-22.723-14.64-35.259-14.64s-27.162 6.546-35.259 14.64c-8.096 8.094-14.647 22.721-14.647 35.26 0 12.538 6.549 27.166 14.645 35.263 8.095 8.096 22.723 14.647 35.261 14.647s27.166-6.551 35.261-14.648c8.095-8.096 14.644-22.724 14.644-35.262s-6.55-27.166-14.646-35.26z"/></svg>