<svg height="48" viewBox="0 -960 960 960" width="48" xmlns="http://www.w3.org/2000/svg"><path fill="rgb(255, 255, 255)" d="m658.685-235.66v.19c0 49.76-17.085 92.1-51.835 126.93-23.608 23.914-50.74 39.594-81.681 47.109-14.085 3.444-29.012 5.19-44.494 5.19h-.532c-40.289 0-75.571-11.483-105.988-34.432-7.197-5.404-14.125-11.447-20.783-18.127-28.965-29.07-45.796-63.31-50.613-102.74-.96-7.84-1.444-15.88-1.444-24.12 0-.03 0-.08 0-.11s0-.06 0-.09c0-11.35.913-22.32 2.738-32.89 6.134-35.76 22.584-67.09 49.367-93.99 9.364-9.41 19.259-17.54 29.695-24.4 28.346-18.75 60.651-28.13 97.036-28.13h.476c15.554 0 30.48 1.76 44.431 5.19 30.965 7.52 58.088 23.2 81.744 47.11 34.75 34.83 51.883 77.16 51.883 126.92v.19.03.14zm-104.083-73.86c-3.063-3.07-6.229-5.91-9.499-8.51-9.618-7.61-20.124-13.23-31.544-16.84-10.189-3.2-21.108-4.81-32.758-4.81-29.194 0-53.842 10.01-73.943 30.02-7.364 7.34-13.387 15.29-18.053 23.85-6.381 11.75-10.245 24.65-11.578 38.7-.35 3.67-.524 7.42-.524 11.25 0 24.69 7.158 46.12 21.458 64.31 2.65 3.34 5.539 6.57 8.681 9.69 20.164 19.99 44.757 30 73.959 30 29.18 0 53.796-10.06 73.785-30.15 19.998-20.1 29.989-44.75 29.989-73.93 0-4.32-.214-8.52-.651-12.63-2.587-23.58-12.356-43.9-29.322-60.95zm104.083-414.63v.19c0 49.76-17.085 92.1-51.835 126.93-23.608 23.92-50.74 39.6-81.681 47.11-14.085 3.45-29.012 5.19-44.494 5.19h-.532c-40.289 0-75.571-11.48-105.988-34.43-7.197-5.4-14.125-11.45-20.783-18.13-28.965-29.07-45.796-63.31-50.613-102.74-.96-7.84-1.444-15.88-1.444-24.12 0-.03 0-.08 0-.11s0-.06 0-.09c0-11.35.913-22.32 2.738-32.89 6.134-35.76 22.584-67.09 49.367-93.99 9.364-9.41 19.259-17.54 29.695-24.4 28.346-18.75 60.651-28.13 97.036-28.13h.476c15.554 0 30.48 1.76 44.431 5.19 30.965 7.52 58.088 23.2 81.744 47.11 34.75 34.83 51.883 77.16 51.883 126.92v.19.03.14zm-104.083-73.86c-3.063-3.07-6.229-5.91-9.499-8.51-9.618-7.61-20.124-13.23-31.544-16.84-10.189-3.2-21.108-4.81-32.758-4.81-29.194 0-53.842 10.01-73.943 30.02-7.364 7.34-13.387 15.29-18.053 23.85-6.381 11.75-10.245 24.65-11.578 38.7-.35 3.67-.524 7.42-.524 11.25 0 24.69 7.158 46.12 21.458 64.31 2.65 3.34 5.539 6.57 8.681 9.69 20.164 19.99 44.757 30 73.959 30 29.18 0 53.796-10.06 73.785-30.15 19.998-20.1 29.989-44.75 29.989-73.93 0-4.32-.214-8.52-.651-12.63-2.587-23.58-12.356-43.9-29.322-60.95z" stroke-width=".05"/></svg>