<svg height="48" viewBox="0 -960 960 960" width="48" xmlns="http://www.w3.org/2000/svg"><path fill="rgb(255, 255, 255)" d="m826-149c0 26.03-9.16 48.21-27.48 66.53-18.31 18.313-40.49 27.47-66.52 27.47h-502c-26.31 0-48.72-9.157-67.23-27.47-18.51-18.32-27.77-40.5-27.77-66.53v-662c0-26.31 9.26-48.72 27.77-67.23s40.92-27.77 67.23-27.77h502c26.03 0 48.21 9.26 66.52 27.77 18.32 18.51 27.48 40.92 27.48 67.23zm-94 0v-291h-502v291zm0-371v-291h-502v291zm-443.26 179.95c-5.753-5.66-8.63-12.76-8.63-21.32 0-8.55 2.877-15.71 8.63-21.5 5.747-5.78 12.87-8.68 21.37-8.68h339.779c8.5 0 15.627 2.84 21.38 8.5 5.747 5.67 8.62 12.78 8.62 21.32 0 8.55-2.873 15.73-8.62 21.5-5.753 5.79-12.88 8.68-21.38 8.68h-339.779c-8.5 0-15.623-2.83-21.37-8.5zm0 129.01c-5.753-5.68-8.63-12.77-8.63-21.33 0-8.54 2.877-15.72 8.63-21.5 5.747-5.78 12.87-8.68 21.37-8.68h339.779c8.5 0 15.627 2.84 21.38 8.51 5.747 5.66 8.62 12.76 8.62 21.32 0 8.54-2.873 15.72-8.62 21.5-5.753 5.78-12.88 8.68-21.38 8.68h-339.779c-8.5 0-15.623-2.84-21.37-8.5zm0-494.92c-5.753-5.67-8.63-12.78-8.63-21.31 0-8.57 2.877-15.73 8.63-21.5 5.747-5.8 12.87-8.69 21.37-8.69h339.779c8.5 0 15.627 2.83 21.38 8.5 5.747 5.67 8.62 12.78 8.62 21.33 0 8.54-2.873 15.72-8.62 21.5-5.753 5.77-12.88 8.67-21.38 8.67h-339.779c-8.5 0-15.623-2.83-21.37-8.5zm0 129c-5.753-5.67-8.63-12.78-8.63-21.31 0-8.57 2.877-15.73 8.63-21.5 5.747-5.8 12.87-8.69 21.37-8.69h339.779c8.5 0 15.627 2.83 21.38 8.5 5.747 5.67 8.62 12.78 8.62 21.33 0 8.54-2.873 15.72-8.62 21.5-5.753 5.77-12.88 8.67-21.38 8.67h-339.779c-8.5 0-15.623-2.83-21.37-8.5z"/></svg>