<svg viewBox="0 0 16 16" xmlns="http://www.w3.org/2000/svg"><path fill="rgb(255, 255, 255)" d="m5 3c0 .397-.151.848-.368 1.154s-.381.414-.632.565v5.781c-.022.174.029.235.147.353s.179.169.353.147h.5v-.5c0-.189.107-.363.276-.447.17-.085.372-.067.524.047l2 1.5c.126.094.2.243.2.4s-.074.306-.2.4l-2 1.5c-.152.114-.354.132-.524.047-.169-.084-.276-.258-.276-.447v-.5h-.5c-.655-.022-1.343-.307-1.768-.732s-.71-1.113-.732-1.768v-5.784c-.248-.152-.415-.256-.632-.562s-.368-.757-.368-1.154c0-.516.251-1.08.586-1.414.334-.335.898-.586 1.414-.586s1.08.251 1.414.586c.335.334.586.898.586 1.414zm4-1h.5c.655.022 1.343.307 1.768.732s.71 1.113.732 1.768v1.524c0 .276-.224.5-.5.5h-1c-.276 0-.5-.224-.5-.5v-1.524c.022-.174-.029-.235-.147-.353s-.179-.169-.353-.147h-.5v.5c0 .189-.107.363-.276.447-.17.085-.372.067-.524-.047l-2-1.5c-.126-.094-.2-.243-.2-.4s.074-.306.2-.4l2-1.5c.152-.114.354-.132.524-.047.169.084.276.258.276.447zm5.5 10h-2.732l-1.852 2.777c-.122.184-.35.265-.561.202-.211-.064-.355-.259-.355-.479v-7c0-.192.11-.367.283-.451.174-.083.379-.059.529.061l5 4c.166.132.23.355.16.556-.07.2-.26.334-.472.334zm-12-9c0 .276.224.5.5.5s.5-.224.5-.5-.224-.5-.5-.5-.5.224-.5.5z"/></svg>