<svg height="48" viewBox="0 -960 960 960" width="48" xmlns="http://www.w3.org/2000/svg"><path fill="rgb(255, 255, 255)" d="m550-53c0 10.2-3.5 18.75-10.5 25.65s-15.47 10.35-25.41 10.35-18.273-3.35-25-10.06-10.09-15.03-10.09-24.94v-855c0-10.2 3.337-18.75 10.01-25.65s14.98-10.35 24.92-10.35c10.22 0 18.787 3.35 25.7 10.06s10.37 15.02 10.37 24.94v42h222c26.033 0 48.21 9.26 66.53 27.77 18.313 18.51 27.47 40.92 27.47 67.23v582c0 26.03-9.157 48.21-27.47 66.53-18.32 18.31-40.497 27.47-66.53 27.47h-222zm0-433v255h223zm-360 391c-26.307 0-48.717-9.16-67.23-27.47-18.513-18.32-27.77-40.5-27.77-66.53v-582c0-26.31 9.257-48.72 27.77-67.23s40.923-27.77 67.23-27.77h218v95h-218v538l218-249v387z"/></svg>