<svg height="48" viewBox="0 -960 960 960" width="48" xmlns="http://www.w3.org/2000/svg"><path fill="rgb(255, 255, 255)" d="m189-55c-26.033 0-48.21-9.157-66.53-27.47-18.313-18.32-27.47-40.497-27.47-66.53v-662c0-26.307 9.157-48.717 27.47-67.23 18.32-18.513 40.497-27.77 66.53-27.77h323c13.04 0 25.467 2.667 37.28 8s22.053 12.333 30.72 21l177 177c8.667 8.667 15.667 18.907 21 30.72s8 24.24 8 37.28v85c0 12.053-4.92 21.9-14.76 29.54-9.847 7.64-54.907 8.083-64.24 1.33-9.333-6.747-15.667-15.703-19-26.87v-82h-139c-13.167 0-24.29-4.543-33.37-13.63-9.087-9.08-13.63-20.203-13.63-33.37v-139h-313v662h278c13.4 0 24.417 4.56 33.05 13.68 8.633 9.113 12.95 20.28 12.95 33.5 0 13.213-4.317 24.32-12.95 33.32s-19.65 13.5-33.05 13.5zm360.311-280.124c-10.115-10.115-15.122-22.504-15.228-37.006.114-14.721 5.192-27.081 15.657-37.546 10.246-10.246 22.825-15.543 37.532-15.643 14.721-.113 27.125 4.879 37.24 14.995l52.322 52.322 51.237-51.237c10.465-10.465 22.847-15.959 37.388-16.677 14.299-.522 26.856 4.624 37.626 15.394 10.464 10.464 15.762 23.173 15.895 38.127-.064 15.195-5.23 27.904-15.695 38.37l-51.237 51.236 51.231 51.232c10.093 10.093 15.3 22.286 14.973 37.218-.1 14.707-5.375 27.307-15.841 37.773-10.026 10.026-22.415 15.089-37.128 15.197-14.721.114-27.112-4.894-37.205-14.987l-51.231-51.232-51.025 51.025c-10.465 10.465-23.038 15.755-37.941 16.138-14.685.122-27.387-5.183-38.156-15.953-10.792-10.791-15.989-23.384-15.605-37.807.602-14.686 6.023-27.126 16.488-37.591l51.025-51.025z"/></svg>