<svg height="48" viewBox="0 -960 960 960" width="48" xmlns="http://www.w3.org/2000/svg"><path fill="rgb(255, 255, 255)" d="m189-55c-26.033 0-48.21-9.157-66.53-27.47-18.313-18.32-27.47-40.497-27.47-66.53v-662c0-26.307 9.157-48.717 27.47-67.23 18.32-18.513 40.497-27.77 66.53-27.77h323c13.04 0 25.467 2.667 37.28 8s22.053 12.333 30.72 21l177 177c8.667 8.667 15.667 18.907 21 30.72s8 24.24 8 37.28v109.174c0 12.053-4.92 21.9-14.76 29.54-9.847 7.64-21.013 11.46-33.5 11.46-11.16 0-21.407-3.377-30.74-10.13-9.333-6.747-15.667-15.703-19-26.87v-106.174h-139c-13.167 0-24.29-4.543-33.37-13.63-9.087-9.08-13.63-20.203-13.63-33.37v-139h-313v662h278c13.4 0 24.417 4.56 33.05 13.68 8.633 9.113 12.95 20.28 12.95 33.5 0 13.213-4.317 24.32-12.95 33.32s-19.65 13.5-33.05 13.5zm509.217-205.89-73.343 74.3c-8.897 8.95-19.527 13.15-31.91 12.95-12.382-.38-23.146-4.95-32.289-13.91-8.649-8.76-12.954-19.24-12.954-31.42 0-12.01 4.438-22.49 13.334-31.44l74.296-74.29h-67.628c-12.554 0-23.146-4.39-31.795-12.96-8.649-8.76-12.973-19.43-12.973-32 0-12.58 4.324-23.06 12.973-31.63s19.241-12.95 31.795-12.95h175.262c12.535 0 23.127 4.38 31.795 12.95 8.649 8.77 12.973 19.24 12.973 31.82v175.26c0 12.58-4.343 23.24-13.03 31.82-8.687 8.57-19.317 12.95-31.909 12.95-12.593 0-23.165-4.38-31.738-12.95-8.573-8.58-12.859-19.24-12.859-31.82z"/></svg>