<svg height="48" viewBox="0 -960 960 960" width="48" xmlns="http://www.w3.org/2000/svg"><path fill="rgb(255, 255, 255)" d="m189-55c-26.033 0-48.21-9.157-66.53-27.47-18.313-18.32-27.47-40.497-27.47-66.53v-662c0-26.307 9.157-48.717 27.47-67.23 18.32-18.513 40.497-27.77 66.53-27.77h323c13.04 0 25.467 2.667 37.28 8s22.053 12.333 30.72 21l177 177c8.667 8.667 15.667 18.907 21 30.72s8 24.24 8 37.28v109.174c0 12.053-4.92 21.9-14.76 29.54-9.847 7.64-21.013 11.46-33.5 11.46-11.16 0-21.407-3.377-30.74-10.13-9.333-6.747-15.667-15.703-19-26.87v-106.174h-139c-13.167 0-24.29-4.543-33.37-13.63-9.087-9.08-13.63-20.203-13.63-33.37v-139h-313v662h278c13.4 0 24.417 4.56 33.05 13.68 8.633 9.113 12.95 20.28 12.95 33.5 0 13.213-4.317 24.32-12.95 33.32s-19.65 13.5-33.05 13.5zm423.057-273.826 72.808-73.644c8.814-8.94 19.373-13.1 31.66-12.9 12.288.39 22.966 4.96 32.037 13.9 8.596 8.53 12.863 19.05 12.863 31.164 0 11.91-4.407 22.23-13.239 31.16l-73.723 73.64h67.112c12.467 0 22.966 4.37 31.563 12.91 8.574 8.72 12.862 19.24 12.862 31.76 0 12.51-4.288 22.82-12.862 31.35-8.597 8.55-19.096 12.91-31.563 12.91h-173.943c-12.446 0-22.946-4.36-31.56-12.91-8.576-8.73-12.863-19.04-12.863-31.55v-173.884c0-12.51 4.307-23.04 12.922-31.56 8.614-8.54 19.174-12.91 31.68-12.91 12.485 0 22.985 4.37 31.481 12.91 8.517 8.52 12.765 19.05 12.765 31.56z"/></svg>