<svg height="48" viewBox="0 -960 960 960" width="48" xmlns="http://www.w3.org/2000/svg"><path fill="rgb(255, 255, 255)" d="m189-55c-26.033 0-48.21-9.157-66.53-27.47-18.313-18.32-27.47-40.497-27.47-66.53v-662c0-26.307 9.157-48.717 27.47-67.23 18.32-18.513 40.497-27.77 66.53-27.77h323c13.04 0 25.467 2.667 37.28 8s22.053 12.333 30.72 21l177 177c8.667 8.667 15.667 18.907 21 30.72s8 24.24 8 37.28v85c0 12.053-4.92 21.9-14.76 29.54-9.847 7.64-21.013 11.46-33.5 11.46-11.16 0-21.407-3.377-30.74-10.13-9.333-6.747-15.667-15.703-19-26.87v-82h-139c-13.167 0-24.29-4.543-33.37-13.63-9.087-9.08-13.63-20.203-13.63-33.37v-139h-313v662h278c13.4 0 24.417 4.56 33.05 13.68 8.633 9.113 12.95 20.28 12.95 33.5 0 13.213-4.317 24.32-12.95 33.32s-19.65 13.5-33.05 13.5zm448.481-68.57-37.641-83.85-83.836-37.63c-17.108-7.87-25.663-20.87-25.663-39.35 0-18.15 8.555-31.14 25.663-39.36l83.836-35.93 37.641-85.55c6.844-15.73 19.402-23.95 37.64-23.95s31.379 8.22 39.351 23.95l37.641 85.55 83.835 35.93c17.109 8.22 25.664 21.21 25.664 39.36 0 18.48-8.555 31.48-25.664 39.35l-83.835 37.63-37.641 83.85c-7.972 17.1-21.113 25.646-39.351 25.646s-30.796-8.546-37.64-25.646z"/></svg>