<svg height="48" viewBox="0 -960 960 960" width="48" xmlns="http://www.w3.org/2000/svg"><path fill="rgb(255, 255, 255)" d="m815.777-175.67-309.379 130.188c-9.508 3.502-20.364 2.618-28.919-2.32-8.055-5.756-13.227-15.235-13.708-25.134v-262.274c.482-9.9 5.654-19.38 13.708-25.12 8.469-4.94 19.493-5.91 28.952-2.8l309.297 130.64c5.566 2.46 11.008 6.53 14.023 11.11 3.005 4.56 4.784 11.17 4.784 17.32 0 6.14-1.779 12.74-4.786 17.3-3.013 4.57-8.408 8.63-13.972 11.09zm-296.362 63.51 219.676-91.95-219.676-93.25v52.29l115.833 33.43c3.386.97 5.713 4.08 5.699 7.6-.013 3.53-2.362 6.62-5.756 7.57l-115.776 32.49zm-297.494 68.797c-26.706 0-49.466-9.417-68.256-28.112-18.81-18.893-28.2-41.665-28.2-68.355v-679.31c0-26.88 9.39-49.85 28.2-68.94 18.79-18.89 41.55-28.56 68.256-28.56h331.447c13.383 0 26.148 2.71 38.257 8.22 12.128 5.53 22.635 12.71 31.522 21.57l181.63 181.64c8.908 9 16.09 19.45 21.548 31.58 5.483 12.1 8.21 24.84 8.21 38.17v275.82c0 12.27-5.05 22.55-15.143 30.35-10.099 7.79-21.551 11.7-34.378 11.7-11.454 0-21.962-3.52-31.544-10.48-9.565-6.79-16.071-16.01-19.497-27.49v-272.72h-142.636c-13.503 0-24.916-4.5-34.232-13.97-9.32-9.22-13.998-20.71-13.998-34.26v-142.63h-321.186v679.31h132.533c13.749 0 25.059 4.72 33.923 14.2 8.869 9.22 13.282 20.67 13.282 34.262 0 13.521-4.413 25.034-13.282 34.256-8.864 9.222-20.174 13.749-33.923 13.749z" stroke-linejoin="round" stroke-width="19"/></svg>