<svg height="48" viewBox="0 -960 960 960" width="48" xmlns="http://www.w3.org/2000/svg"><path fill="rgb(255, 255, 255)" d="m189-55c-26.033 0-48.21-9.157-66.53-27.47-18.313-18.32-27.47-40.497-27.47-66.53v-662c0-26.307 9.157-48.717 27.47-67.23 18.32-18.513 40.497-27.77 66.53-27.77h323c13.04 0 25.467 2.667 37.28 8s22.053 12.333 30.72 21l177 177c8.667 8.667 15.667 18.907 21 30.72s8 24.24 8 37.28v85c0 12.053-4.92 21.9-14.76 29.54-9.847 7.64-21.013 11.46-33.5 11.46-11.16 0-21.407-3.377-30.74-10.13-9.333-6.747-15.667-15.703-19-26.87v-82h-139c-13.167 0-24.29-4.543-33.37-13.63-9.087-9.08-13.63-20.203-13.63-33.37v-139h-313v662h278c13.4 0 24.417 4.56 33.05 13.68 8.633 9.113 12.95 20.28 12.95 33.5 0 13.213-4.317 24.32-12.95 33.32s-19.65 13.5-33.05 13.5zm487.308-42.735c-51.913 0-95.767-18.035-131.566-54.105-35.798-36.07-53.697-79.8-53.697-131.15 0-51.17 17.899-94.89 53.697-130.95 35.799-36.07 79.653-54.32 131.566-54.32 51.247 0 94.946 18.25 131.077 54.32 36.112 36.06 54.187 79.78 54.187 130.95 0 51.35-18.075 95.08-54.187 131.15-36.131 36.07-79.83 54.105-131.077 54.105zm16.664-189.575v-89.59c0-6.66-2.43-12.15-7.273-16.86-4.842-4.51-10.488-6.85-16.957-6.85-6.725 0-12.704 2.55-17.92 7.23-5.234 4.92-7.841 10.99-7.841 18.44v87.05c0 6.46 1.137 12.35 3.43 17.65 2.274 5.48 5.391 10.39 9.313 14.69l59.794 61.76c4.568 4.71 10.292 6.86 17.154 6.86s12.566-2.55 17.154-7.83c4.568-5.3 7.019-11.19 7.352-17.65.313-6.47-2.137-12.35-7.352-17.66z"/></svg>