<svg viewBox="0 0 22 22" xmlns="http://www.w3.org/2000/svg"><path fill="rgb(255, 255, 255)" d="m19.2 2.803c.268.367.35.985.173 1.553-.165.531-.509 1.208-.97 1.933-.911 1.432-2.378 3.224-4.153 4.999-1.395 1.394-2.871 2.663-4.177 3.596-.13.093-.296.118-.448.067-.152-.05-.27-.17-.319-.323-.28-.975-.957-1.652-1.932-1.932-.153-.049-.273-.167-.323-.319-.051-.151-.026-.318.067-.448.932-1.306 2.203-2.782 3.597-4.178 3.133-3.126 6.485-5.349 7.863-5.239.211.038.468.161.622.291zm-.046 12.318c.203.396.346.887.346 1.379 0 .794-.362 1.608-.877 2.123s-1.329.877-2.123.877-1.608-.362-2.123-.877-.877-1.329-.877-2.123c0-.494.15-.987.348-1.379.56-1.227 1.732-2.644 2.171-4.258.061-.215.258-.363.481-.363s.42.148.481.363c.439 1.613 1.611 3.033 2.173 4.258zm-10.654.543c0 .796-.633 1.858-1.721 2.585-1.055.703-2.698 1.238-4.779 1.251-.226 0-.424-.152-.483-.371-.059-.218.037-.449.233-.562.678-.37.938-.734 1.115-1.17.173-.423.199-.868.264-1.376.065-.509.189-1.12.588-1.625.379-.479 1.084-.916 2.154-1.215.05-.014.103-.019.156-.016 1.159.097 1.881.539 2.177 1.034.312.52.296 1.142.296 1.465z"/></svg>