<svg viewBox="0 0 22 22" xmlns="http://www.w3.org/2000/svg"><path fill="rgb(255, 255, 255)" d="m10.31 19.988-.34-.211-3.814-2.538-1.8-1.197c-.001-.001-.003-.002-.003-.002-.003-.001-.006-.004-.009-.006-.005-.003-.014-.009-.028-.018-.027-.018-.072-.048-.141-.094-.138-.092-.369-.245-.733-.488-.181-.12-.29-.323-.29-.541v-7.323c0-.219.111-.424.294-.544.012 0 .023-.001.034-.001.044-.033.072-.053.09-.066-.025.021-.034.032 0 0 .001-.001.002-.002.004-.003.001-.001.002-.002.003-.003.033-.029.117-.092.36-.271.92-.613.99-.661 1.629-1.085.484-.322 1.296-.86 3.06-2.031l1.243-.83c.015-.008.029-.016.044-.024.215-.143.441-.293.678-.45.109-.072.234-.108.359-.108s.25.036.359.108c.237.157.463.307.678.45.015.008.029.016.044.024l1.243.83c1.764 1.171 2.576 1.709 3.06 2.031.639.424.709.472 1.629 1.085.243.179.327.242.36.271.001.001.002.002.003.003.002.001.003.002.004.003.034.032.025.021 0 0 .018.013.046.033.09.066.011 0 .022.001.034.001.183.12.294.325.294.544v7.323c0 .218-.109.421-.29.541-.364.243-.595.396-.733.488-.069.046-.114.076-.141.094-.014.009-.023.015-.028.018-.003.002-.006.005-.009.006 0 0-.002.001-.003.002l-1.8 1.197-3.814 2.538-.34.211c-.001-.001-.002-.001-.003-.002-.07.041-.094.052-.106.057-.109.042-.065-.004-.172.118-.002.003-.005.006-.007.01-.094.061-.201.095-.308.102-.015.001-.029.001-.044.001s-.029 0-.044-.001c-.107-.007-.214-.041-.308-.102-.002-.004-.005-.007-.007-.01-.107-.122-.063-.076-.172-.118-.012-.005-.036-.016-.106-.057-.001.001-.002.001-.003.002zm-6.736-13.032c-.002.001-.003.002-.004.003.001-.002.003-.003.005-.005-.001.001-.001.001-.001.002zm14.751-.002c.002.002.004.003.005.005-.001-.001-.002-.002-.004-.003 0-.001 0-.001-.001-.002zm-7.375 3.799 4.644-3.097-4.644-3.101-4.644 3.101zm5.704 3.344v-4.494l-4.657 3.105v4.494zm-6.751-1.389-4.657-3.105v4.494l4.657 3.105z"/></svg>