<svg height="48" viewBox="0 -960 960 960" width="48" xmlns="http://www.w3.org/2000/svg"><path fill="rgb(255, 255, 255)" d="m289.225-795.2c4.072 19.06 2.896 37.75-3.38 55.94l453.414 453.42c18.194-6.28 36.887-7.46 55.937-3.38 13.972 2.98 26.709 8.79 38.264 17.38 6.445 4.17 12.546 9.15 18.318 14.92 20.768 20.77 31.047 45.64 30.985 74.5.101 28.73-10.307 53.53-31.202 74.43-20.747 20.744-45.553 31.152-74.285 31.058-28.703-.094-53.434-10.513-74.202-31.278-5.73-5.73-10.657-11.81-14.791-18.22-8.61-11.62-14.389-24.47-17.382-38.5-4.048-18.98-3.023-37.47 3.171-55.58l-453.558-453.56c-18.109 6.19-36.604 7.22-55.585 3.17-4.461-.95-8.804-2.19-13.026-3.7-15.121-5.03-28.779-13.56-40.882-25.67-20.764-20.76-31.187-45.49-31.293-74.21-.085-28.72 10.31-53.54 31.056-74.29 20.895-20.89 45.715-31.29 74.43-31.2 28.871-.05 53.747 10.23 74.512 31 11.353 11.35 19.644 24 24.74 38.04 2.012 5.06 3.6 10.3 4.759 15.73z" stroke-width=".05"/></svg>