<svg viewBox="0 0 22 22" xmlns="http://www.w3.org/2000/svg"><path fill="rgb(255, 255, 255)" d="m7.686 3.166c.993-.419 3.245-.666 3.314-.666 2.318.022 4.506.975 6.016 2.484 1.509 1.51 2.484 3.698 2.484 6.016s-.975 4.506-2.484 6.016c-1.51 1.509-3.698 2.484-6.016 2.484s-4.506-.975-6.016-2.484c-1.509-1.51-2.484-3.698-2.484-6.016s.975-4.506 2.484-6.016c.757-.756 1.699-1.395 2.702-1.818zm2.647 1.367c-.224.023-.431.055-.647.099-.432.088-.825.21-1.222.377-.792.334-1.465.791-2.065 1.39-1.202 1.202-1.899 2.764-1.899 4.601s.697 3.399 1.899 4.601 2.764 1.899 4.601 1.899 3.399-.697 4.601-1.899 1.899-2.764 1.899-4.601-.697-3.399-1.899-4.601-2.764-1.921-4.601-1.899c-.007 0-.014 0-.02 0-.145.004-.476.016-.647.033z"/></svg>