<svg viewBox="0 0 22 22" xmlns="http://www.w3.org/2000/svg"><path fill="rgb(255, 255, 255)" d="m13.812 7.814 5.263.803c.186.028.34.158.399.336.06.177.015.373-.116.508l-3.824 3.919.903 5.54c.031.189-.049.379-.206.489-.156.11-.362.121-.53.029l-4.701-2.599-4.701 2.599c-.168.092-.374.081-.53-.029-.157-.11-.237-.3-.206-.489l.903-5.54-3.824-3.919c-.131-.135-.176-.331-.116-.508.059-.178.213-.308.399-.336l5.263-.803 2.359-5.026c.083-.176.259-.288.453-.288s.37.112.453.288zm-4.21 1.505c-.069.155-.212.264-.38.289l-3.151.483 2.277 2.208c.117.113.171.276.146.437l-.55 3.497 2.814-1.557c.151-.083.333-.083.484 0l2.814 1.557-.55-3.497c-.025-.161.029-.324.146-.437l2.277-2.208-3.151-.483c-.168-.025-.311-.134-.38-.289l-1.398-3.102z"/></svg>