<svg viewBox="0 0 16 16" xmlns="http://www.w3.org/2000/svg"><path fill="rgb(255, 255, 255)" d="m5.924 4.574c-.778.328-1.348.795-1.781 1.394-.43.594-.655 1.203-.643 1.915-.029 1.054.454 1.909 1.288 2.616.841.713 1.92 1.123 3.212 1.123s2.371-.41 3.212-1.123c.834-.707 1.317-1.562 1.288-2.616.001-.254-.027-.477-.09-.727-.037-.149-.003-.307.091-.428.095-.121.24-.192.394-.192h1.015c.237 0 .442.166.49.399.061.304.097.639.1.948-.029 1.521-.777 2.997-1.934 3.978-1.149.974-2.82 1.608-4.566 1.608s-3.417-.634-4.566-1.608c-1.157-.981-1.905-2.458-1.934-3.979.05-1.988 1.378-3.911 3.382-4.888.195-.091.427-.047.575.11l.631.668c.112.118.16.284.127.444-.033.159-.142.293-.291.358z"/></svg>