<svg viewBox="0 0 22 22" xmlns="http://www.w3.org/2000/svg"><path fill="rgb(255, 255, 255)" d="m11.634657 8.8861029c.552985-.3853403 1.258126.070243 1.477937.6133618.379461.9375863-.310798 1.9289563-1.214091 2.2028653-1.305359.395829-2.6098329-.551482-2.9277924-1.8148215-.4201295-1.6692878.7918673-3.2947188 2.4155504-3.6527199 2.031877-.4480026 3.981632 1.0320287 4.377648 3.0162804.477767 2.39387-1.272046 4.669716-3.61701 5.102575-2.7555531.50865-5.3585413-1.511971-5.8275028-4.21774-.5402455-3.117056 1.7518334-6.0478627 4.8184698-6.5524298 3.478447-.5723242 6.737535 1.9916529 7.277357 5.4191991.41598 2.6412177-.808245 5.3270537-3.00795 6.8235667" fill="none" transform="matrix(0 1.2074206 -1.2074206 0 22.608572 -3.908311)"/><path d="m11.091 9.265c-.209-.3-.135-.713.165-.922.484-.252 1.145-.284 1.534-.093.38.186.763.629.937 1.001.209.646.129 1.434-.171 1.938-.298.5-.904.953-1.465 1.147-.818.205-1.759.047-2.389-.364-.626-.409-1.161-1.176-1.374-1.923-.211-.993.017-2.097.538-2.855.519-.755 1.447-1.375 2.378-1.606 1.17-.221 2.441.072 3.328.703.886.629 1.593 1.717 1.842 2.83.233 1.349-.124 2.789-.864 3.806-.739 1.017-1.983 1.838-3.283 2.078-1.521.281-3.137-.173-4.285-1.022-1.147-.849-2.032-2.257-2.315-3.734-.262-1.707.22-3.487 1.179-4.766.958-1.279 2.526-2.253 4.184-2.553 1.887-.277 3.838.266 5.249 1.335 1.409 1.068 2.473 2.795 2.791 4.635.208 1.421-.041 2.93-.573 4.213-.848 2.047-2.845 3.282-3.08 3.26-.234-.022-.437-.169-.532-.384s-.066-.465.076-.652c0 0 .017-.015 0 0 0 0 .552-.409.778-.615s.42-.411.615-.645c.388-.468.687-.949.933-1.503.493-1.108.681-2.249.474-3.468-.223-1.588-1.058-2.857-2.283-3.785-1.223-.927-2.641-1.379-4.233-1.084-1.408.205-2.52.948-3.339 2.04-.818 1.092-1.212 2.336-.934 3.746.186 1.229.837 2.184 1.798 2.895.959.71 2.023 1.012 3.257.784 1.045-.193 1.848-.725 2.451-1.554.602-.827.88-1.722.636-2.767-.147-.871-.613-1.515-1.309-2.01-.695-.494-1.415-.716-2.276-.489-.693.127-1.183.499-1.571 1.063-.386.562-.554 1.104-.345 1.781.105.516.382.855.813 1.136.429.28.792.397 1.28.206.342-.079.534-.259.711-.558.176-.294.251-.47.081-.762-.045-.171-.416-.452-.485-.318-.3.209-.713.135-.922-.165z" transform="matrix(0 1.20742059 -1.20742059 0 22.608572 -3.908311)"/></svg>