<svg viewBox="0 0 22 22" xmlns="http://www.w3.org/2000/svg"><path fill="rgb(255, 255, 255)" d="m8.732 3.634h10.585c.3.039.741.196.931.386s.347.631.386.931v12.097c-.039.3-.196.741-.386.932-.19.189-.631.346-.931.385h-10.585c-.287-.034-.706-.207-.928-.382l-5.338-5.339-.714-.712c-.177-.224-.386-.646-.386-.932 0-.287.209-.708.386-.932l.714-.713 5.334-5.335c.114-.115.778-.367.932-.386zm4.508 5.507-1.255-1.256c-.004-.002-.006-.005-.009-.008-.25-.249-.555-.381-.913-.396-.353-.009-.668.113-.932.377s-.389.582-.385.941c.009.365.139.673.39.924l1.26 1.261-1.255 1.256c-.036.035-.069.073-.1.111-.181.224-.275.488-.273.796.003.361.128.663.373.909.003.003.006.006.009.008.255.255.562.383.922.386.361.003.665-.12.913-.367l1.255-1.256 1.256 1.256c.014.015.029.029.045.043.246.226.543.339.891.338.368-.001.68-.129.937-.385l.001-.001c.264-.264.388-.573.374-.926-.015-.353-.15-.657-.406-.912l-1.255-1.256 1.282-1.283c.248-.247.37-.551.366-.913-.004-.363-.132-.669-.386-.923-.01-.01-.019-.019-.029-.028-.235-.224-.51-.339-.827-.35-.02 0-.04-.001-.06-.001-.01 0-.021 0-.031.001-.285.003-.53.089-.742.254-.046.035-.091.074-.134.118z"/></svg>