<svg viewBox="0 0 22 22" xmlns="http://www.w3.org/2000/svg"><path fill="rgb(255, 255, 255)" d="m1.5 20v-19c0-.276.224-.5.5-.5h16c.276 0 .5.224.5.5v1c0 .276-.224.5-.5.5h-9.5v2h3.5c.276 0 .5.224.5.5v1c0 .276-.224.5-.5.5h-3.5v2h3.5c.276 0 .5.224.5.5v1c0 .276-.224.5-.5.5h-3.5v2h9.5c.276 0 .5.224.5.5v1c0 .276-.224.5-.5.5h-9.5v1h3.5c.276 0 .5.224.5.5v1c0 .276-.224.5-.5.5h-3.5v1h3.5c.276 0 .5.224.5.5v1c0 .276-.224.5-.5.5h-10c-.276 0-.5-.224-.5-.5zm2-17.5v2h3v-2zm0 4v2h3v-2zm0 4v2h3v-2zm0 4v1h3v-1zm0 3v1h3v-1zm10.237 3.925c-.147-.091-.237-.252-.237-.425v-5c0-.173.09-.334.237-.425.148-.091.332-.1.487-.022l5 2.5c.169.084.276.258.276.447s-.107.363-.276.447l-5 2.5c-.155.078-.339.069-.487-.022zm.263-18.555h1c.276 0 .5.224.5.5v3.086l3-3v-.086c0-.276.224-.5.5-.5h1c.276 0 .5.224.5.5v8c0 .276-.224.5-.5.5h-1c-.276 0-.5-.224-.5-.5v-1.086l-1.439 1.44c-.094.093-.221.146-.354.146h-1.414c-.05 0-.1-.008-.146-.022-.047.014-.096.022-.147.022h-1c-.276 0-.5-.224-.5-.5v-8c0-.276.224-.5.5-.5zm1.5 7.586 3-3v-1.172l-3 3z"/></svg>