<svg viewBox="0 0 22 22" xmlns="http://www.w3.org/2000/svg"><path fill="rgb(255, 255, 255)" d="m20 20.5h-19c-.276 0-.5-.224-.5-.5v-16c0-.276.224-.5.5-.5h1c.276 0 .5.224.5.5v9.5h2v-3.5c0-.276.224-.5.5-.5h1c.276 0 .5.224.5.5v3.5h2v-3.5c0-.276.224-.5.5-.5h1c.276 0 .5.224.5.5v3.5h2v-9.5c0-.276.224-.5.5-.5h1c.276 0 .5.224.5.5v9.5h1v-3.5c0-.276.224-.5.5-.5h1c.276 0 .5.224.5.5v3.5h1v-3.5c0-.276.224-.5.5-.5h1c.276 0 .5.224.5.5v10c0 .276-.224.5-.5.5zm-17.5-2h2v-3h-2zm4 0h2v-3h-2zm4 0h2v-3h-2zm4 0h1v-3h-1zm3 0h1v-3h-1zm3.925-10.237c-.091.147-.252.237-.425.237h-5c-.173 0-.334-.09-.425-.237-.091-.148-.1-.332-.022-.487l2.5-5c.084-.169.258-.276.447-.276s.363.107.447.276l2.5 5c.078.155.069.339-.022.487zm-18.555-.263v-1c0-.276.224-.5.5-.5h3.086l-3-3h-.086c-.276 0-.5-.224-.5-.5v-1c0-.276.224-.5.5-.5h8c.276 0 .5.224.5.5v1c0 .276-.224.5-.5.5h-1.086l1.44 1.439c.093.094.146.221.146.354v1.414c0 .05-.008.1-.022.146.014.047.022.096.022.147v1c0 .276-.224.5-.5.5h-8c-.276 0-.5-.224-.5-.5zm7.586-1.5-3-3h-1.172l3 3z"/></svg>