<svg height="48" viewBox="0 -960 960 960" width="48" xmlns="http://www.w3.org/2000/svg"><path fill="rgb(255, 255, 255)" d="m791-171h-490q-39.46 0-67.23-27.77-27.77-27.77-27.77-67.23v-583q0-39.05 27.77-66.53 27.77-27.47 67.23-27.47h298q19.2 0 36.6 7.5 17.4 7.5 31.4 20.5l190 190q13 14 20.5 31.4t7.5 36.6v391q0 39.46-28 67.23-28 27.77-66 27.77zm0-510h-101q-29.75 0-50.37-20.63-20.63-20.62-20.63-50.37v-97h-318v583h490zm-645 664q-39.05 0-66.53-27.47-27.47-27.48-27.47-66.53v-563q0-19.75 13.68-33.38 13.67-13.62 33.5-13.62 19.82 0 33.32 13.62 13.5 13.63 13.5 33.38v563h458q19.75 0 33.38 13.68 13.62 13.67 13.62 33.5 0 19.82-13.62 33.32-13.63 13.5-33.38 13.5zm155-832v198-198 583z"/></svg>