<svg height="48" viewBox="0 -960 960 960" width="48" xmlns="http://www.w3.org/2000/svg"><path fill="rgb(255, 255, 255)" d="m189-95c-26.033 0-48.21-9.157-66.53-27.47-18.313-18.32-27.47-40.497-27.47-66.53v-116c0-13.167 4.56-24.293 13.68-33.38 9.113-9.08 20.28-13.62 33.5-13.62 13.213 0 24.32 4.54 33.32 13.62 9 9.087 13.5 20.213 13.5 33.38v116h116c13.167 0 24.293 4.56 33.38 13.68 9.08 9.113 13.62 20.28 13.62 33.5 0 13.213-4.54 24.32-13.62 33.32-9.087 9-20.213 13.5-33.38 13.5zm582-560v-116h-116c-13.167 0-24.29-4.56-33.37-13.68-9.087-9.113-13.63-20.25-13.63-33.41 0-13.153 4.543-24.427 13.63-33.82 9.08-9.393 20.203-14.09 33.37-14.09h116c26.307 0 48.717 9.257 67.23 27.77s27.77 40.923 27.77 67.23v116c0 13.167-4.753 24.29-14.26 33.37-9.513 9.087-20.847 13.63-34 13.63-13.16 0-24.24-4.543-33.24-13.63-9-9.08-13.5-20.203-13.5-33.37zm-676 0v-116c0-26.307 9.157-48.717 27.47-67.23 18.32-18.513 40.497-27.77 66.53-27.77h116c13.167 0 24.293 4.753 33.38 14.26 9.08 9.513 13.62 20.847 13.62 34 0 13.16-4.54 24.24-13.62 33.24-9.087 9-20.213 13.5-33.38 13.5h-116v116c0 13.167-4.56 24.29-13.68 33.37-9.113 9.087-20.28 13.63-33.5 13.63-13.213 0-24.32-4.543-33.32-13.63-9-9.08-13.5-20.203-13.5-33.37zm676 560h-116c-13.167 0-24.29-4.56-33.37-13.68-9.087-9.113-13.63-20.28-13.63-33.5 0-13.213 4.543-24.32 13.63-33.32 9.08-9 20.203-13.5 33.37-13.5h116v-116c0-13.167 4.56-24.293 13.68-33.38 9.113-9.08 20.25-13.62 33.41-13.62 13.153 0 24.427 4.54 33.82 13.62 9.393 9.087 14.09 20.213 14.09 33.38v116c0 26.033-9.257 48.21-27.77 66.53-18.513 18.313-40.923 27.47-67.23 27.47zm-351.936-260.19c-18.637-8.711-35.3-22.41-47.974-39.581-5.206-8.103-6.828-19.174-4.206-28.351 1.741-4.336 4.875-9.298 8.215-11.953 3.483-2.768 9.464-4.765 14.08-4.765 5.299 0 11.756 2.084 16.546 4.933 3.945 2.554 8.25 6.392 11.095 9.567 7.485 10.02 15.9 16.342 27.348 20.481 11.773 4.706 23.13 6.699 35.995 6.699 12.765 0 23.93-2.143 35.531-7.151 11.491-4.694 20.025-11.151 27.642-20.805l.355-.45.448-.435c3.117-3.02 7.176-6.188 10.822-8.499 4.392-2.386 10.69-4.34 16.22-4.34 8.698 0 17.736 6.674 22.418 14.486 1.885 4.142 3.253 9.787 2.874 14.04-.382 4.281-2.406 9.086-5.032 12.77-12.491 18.043-29.488 32.69-48.897 42.135-19.367 9.067-41.156 13.989-63.123 13.989-20.932 0-41.806-4.551-60.357-12.77zm109.876-154.672c-7.683-8.579-12.836-20.313-12.836-31.788 0-11.47 5.214-23.348 12.992-31.799 8.311-7.95 20.011-13.441 31.374-13.441 11.687 0 23.644 5.432 32.16 13.367 7.993 8.537 13.365 20.473 13.365 31.873 0 11.533-5.408 23.386-13.365 31.973-8.567 7.979-20.426 13.257-31.87 13.257-11.542 0-23.438-5.405-31.82-13.442zm-162.215.13c-7.957-8.591-13.298-20.391-13.298-31.918 0-11.394 5.37-23.342 13.363-31.884 8.497-7.926 20.351-13.356 31.871-13.356 11.597 0 23.444 5.513 31.754 13.496 7.719 8.524 12.903 20.396 12.903 31.854 0 11.484-5.218 23.266-12.974 31.759-8.381 8.013-20.092 13.361-31.393 13.361-11.634 0-23.639-5.324-32.226-13.312zm113.066 286.562c-35.042 0-69.068-6.891-100.005-19.939-30.78-13.206-58.579-31.806-81.758-54.92-23.04-23.139-41.71-50.963-54.913-81.581-13.057-30.895-19.946-64.925-19.946-99.99 0-35.056 6.89-69.077 19.946-99.99 13.204-30.721 31.857-58.56 54.818-81.8 23.093-22.986 50.83-41.791 81.578-55.127 30.928-13.296 64.977-20.313 100.073-20.313 35.083 0 69.156 7.01 100.148 20.191 30.827 13.327 58.632 32.146 81.77 55.129 23.026 23.122 41.77 50.927 55.136 81.66 13.212 30.905 20.194 65.065 20.194 100.14 0 35.19-6.996 69.243-20.233 100.146-13.377 30.723-32.145 58.536-55.195 81.658-23.192 22.997-50.975 41.59-81.683 54.795-30.892 13.049-64.885 19.941-99.93 19.941zm-.081-75.41c51.413 0 92.996-16.601 128.439-52.615 36.021-35.452 52.685-77.019 52.685-128.515 0-51.385-16.663-92.943-52.685-128.385-35.453-36.027-77.037-52.745-128.439-52.745-51.411 0-92.982 16.717-128.448 52.746-36.023 35.44-52.674 76.998-52.674 128.384 0 51.497 16.651 93.065 52.675 128.516 35.456 36.014 77.025 52.614 128.447 52.614z"/></svg>