<svg height="48" viewBox="0 -960 960 960" width="48" xmlns="http://www.w3.org/2000/svg"><path fill="rgb(255, 255, 255)" d="m252.741-773.1c0-22.36 7.518-41.18 22.545-56.43 15.179-15.24 33.701-22.85 55.903-22.85l355.515.51c22.369 0 41.227 7.61 56.406 22.85 15.196 15.25 22.873 34.07 22.873 56.43v274.57c0 10.98-3.998 20.28-12.02 27.86-7.837 7.58-17.355 11.36-28.199 11.36-11.021 0-20.362-3.78-27.88-11.36-7.501-7.58-11.18-16.88-11.18-27.86v-274.57l-355.515-.51v456.32l279.133.51c11.021 0 20.202 3.8 27.88 11.41 7.501 7.61 11.348 16.93 11.348 27.96 0 11.04-3.847 20.3-11.348 27.81-7.678 7.51-16.859 11.27-27.88 11.27l-279.133-.52c-22.202 0-40.724-7.67-55.903-23.05-15.027-15.37-22.545-33.83-22.545-55.39zm-50.401 665.48c-22.098 0-40.922-7.78-56.473-23.33s-23.327-34.37-23.327-56.47v-494.77c0-11.06 3.83-20.4 11.491-28.04 7.655-7.62 17.176-11.44 28.56-11.44 11.38 0 20.849 3.82 28.409 11.44 7.56 7.64 11.34 16.98 11.34 28.04v494.77h393.963c11.06 0 20.406 3.83 28.039 11.49 7.627 7.65 11.441 17.17 11.441 28.56 0 11.38-3.814 20.85-11.441 28.41-7.633 7.56-16.979 11.34-28.039 11.34zm540.057-37.05c-10.895 0-20.101-3.82-27.619-11.43-7.517-7.44-11.292-16.73-11.292-27.48v-101.83c0-8.11 2.251-15.4 6.74-21.86 4.487-6.46 10.514-11.09 18.098-13.74h111.484v-36.56c0-7.72-2.609-14.32-7.854-19.5-5.232-5.19-11.726-7.85-19.483-7.85-7.741 0-14.249 2.66-19.495 7.85-5.246 5.18-7.868 11.78-7.868 19.5v7.72h-45.585v-7.72c0-20.06 7.14-37.17 21.391-51.48 14.263-14.3 31.404-21.46 51.445-21.46 20.029 0 37.211 7.16 51.546 21.46 14.32 14.31 21.488 31.42 21.488 51.48v36.56h15.134c7.031 2.65 12.944 7.28 17.699 13.74 4.771 6.46 7.14 13.75 7.14 21.86v101.83c0 10.75-3.915 20.04-11.735 27.48-7.837 7.61-17.16 11.43-28.004 11.43z"/></svg>