<svg height="48" viewBox="0 -960 960 960" width="48" xmlns="http://www.w3.org/2000/svg"><path fill="rgb(255, 255, 255)" d="m326-192q-39.05 0-66.52-27.48-27.48-27.47-27.48-66.52v-542q0-39.46 27.48-67.23 27.47-27.77 66.52-27.77h422q39.46 0 67.23 27.77 27.77 27.77 27.77 67.23v542q0 39.05-27.77 66.52-27.77 27.48-67.23 27.48zm0-94h422v-542h-422zm-154 249q-39.46 0-67.23-27.77-27.77-27.77-27.77-67.23v-589q0-19.75 13.68-33.38 13.67-13.62 34-13.62 20.32 0 33.82 13.62 13.5 13.63 13.5 33.38v589h469q19.75 0 33.38 13.68 13.62 13.67 13.62 34 0 20.32-13.62 33.82-13.63 13.5-33.38 13.5zm154-249v-542z"/></svg>