<svg viewBox="0 0 22 22" xmlns="http://www.w3.org/2000/svg"><path fill="rgb(255, 255, 255)" d="m7.5 2v1c0 .276-.224.5-.5.5h-3.5v3.5c0 .276-.224.5-.5.5h-1c-.276 0-.5-.224-.5-.5v-5c0-.276.224-.5.5-.5h5c.276 0 .5.224.5.5zm13 0v5c0 .276-.224.5-.5.5h-1c-.276 0-.5-.224-.5-.5v-3.5h-3.5c-.276 0-.5-.224-.5-.5v-1c0-.276.224-.5.5-.5h5c.276 0 .5.224.5.5zm-10 3v5c0 .276-.224.5-.5.5h-5c-.276 0-.5-.224-.5-.5v-5c0-.276.224-.5.5-.5h5c.276 0 .5.224.5.5zm7 0v5c0 .276-.224.5-.5.5h-5c-.276 0-.5-.224-.5-.5v-5c0-.276.224-.5.5-.5h5c.276 0 .5.224.5.5zm-11 3.5h2v-2h-2zm7 0h2v-2h-2zm-3 3.5v5c0 .276-.224.5-.5.5h-5c-.276 0-.5-.224-.5-.5v-5c0-.276.224-.5.5-.5h5c.276 0 .5.224.5.5zm-4 3.5h2v-2h-2zm-3-.5v3.5h3.5c.276 0 .5.224.5.5v1c0 .276-.224.5-.5.5h-5c-.276 0-.5-.224-.5-.5v-5c0-.276.224-.5.5-.5h1c.276 0 .5.224.5.5zm12.5-.697 1.656-1.657c.195-.195.512-.195.707 0l.991.991c.093.093.146.221.146.353 0 .133-.053.26-.146.354l-1.657 1.656 1.657 1.656c.093.094.146.221.146.354 0 .132-.053.26-.146.353l-.991.991c-.195.195-.512.195-.707 0l-1.656-1.657-1.656 1.657c-.195.195-.512.195-.707 0l-.991-.991c-.195-.195-.195-.512 0-.707l1.657-1.656-1.657-1.656c-.195-.195-.195-.512 0-.707l.991-.991c.195-.195.512-.195.707 0z"/></svg>