<svg viewBox="0 0 22 22" xmlns="http://www.w3.org/2000/svg"><path fill="rgb(255, 255, 255)" d="m20 20.5h-10c-.276 0-.5-.224-.5-.5v-1c0-.276.224-.5.5-.5h3.5v-1h-3.5c-.276 0-.5-.224-.5-.5v-1c0-.276.224-.5.5-.5h3.5v-1h-9.5c-.276 0-.5-.224-.5-.5v-1c0-.276.224-.5.5-.5h9.5v-2h-3.5c-.276 0-.5-.224-.5-.5v-1c0-.276.224-.5.5-.5h3.5v-2h-3.5c-.276 0-.5-.224-.5-.5v-1c0-.276.224-.5.5-.5h3.5v-2h-9.5c-.276 0-.5-.224-.5-.5v-1c0-.276.224-.5.5-.5h16c.276 0 .5.224.5.5v19c0 .276-.224.5-.5.5zm-4.5-18v2h3v-2zm0 4v2h3v-2zm0 4v2h3v-2zm0 4v1h3v-1zm0 3v1h3v-1zm-7.724 3.947-5-2.5c-.169-.084-.276-.258-.276-.447s.107-.363.276-.447l5-2.5c.155-.078.339-.069.487.022.147.091.237.252.237.425v5c0 .173-.09.334-.237.425-.148.091-.332.1-.487.022zm.724-18.077v8c0 .276-.224.5-.5.5h-1c-.051 0-.1-.008-.147-.022-.046.014-.096.022-.146.022h-1.414c-.133 0-.26-.053-.354-.146l-1.439-1.44v1.086c0 .276-.224.5-.5.5h-1c-.276 0-.5-.224-.5-.5v-8c0-.276.224-.5.5-.5h1c.276 0 .5.224.5.5v.086l3 3v-3.086c0-.276.224-.5.5-.5h1c.276 0 .5.224.5.5zm-2 5.914-3-3v1.172l3 3z"/></svg>