<svg height="48" viewBox="0 -960 960 960" width="48" xmlns="http://www.w3.org/2000/svg"><path fill="rgb(255, 255, 255)" d="m189-95c-26.033 0-48.21-9.157-66.53-27.47-18.313-18.32-27.47-40.497-27.47-66.53v-116c0-13.167 4.56-24.293 13.68-33.38 9.113-9.08 20.28-13.62 33.5-13.62 13.213 0 24.32 4.54 33.32 13.62 9 9.087 13.5 20.213 13.5 33.38v116h116c13.167 0 24.293 4.56 33.38 13.68 9.08 9.113 13.62 20.28 13.62 33.5 0 13.213-4.54 24.32-13.62 33.32-9.087 9-20.213 13.5-33.38 13.5zm286.579-535.5c-8.615 0-14 1.13-20.424 5.13-7.243 4.18-11.152 7.23-16.21 14.31-6.489 9.32-17.529 17.92-28.599 21.96-11.744 3.12-25.366 1.96-35.64-2.4-11.481-4.96-21.975-14.37-26.852-25.75-2.49-5.79-3.97-13.9-3.47-19.89.507-6.05 3.075-12.88 6.391-18.17 13-21.23 31.673-39.58 52.89-52.02 21.529-12 47.021-19 72.192-19 36.074 0 70.466 13.36 97.529 36.57 26.5 24.48 42.327 58.06 42.327 93.82 0 10.62-1.556 22-4.104 31.73-2.837 9.76-8.222 20.91-14.342 29.97-11.406 15.36-24.608 29.66-38.522 41.52-12.111 10.33-21.776 22.42-29.4 36.65-.553.32-1.145 2.63-3.274 11.25-2.521 11.19-8.466 23.04-15.722 31.34-8.652 8.25-22.332 14.99-34.77 14.99-13.204 0-27.606-6.65-36.926-15.5-8.004-9.7-12.926-24.34-12.622-36.79.869-7.52 2.228-15.08 3.879-21.71 1.976-7.52 5.408-15.84 9.719-23.17 9.591-16.44 23.064-31.96 38.243-43.83 12.972-10.07 23.643-21.25 33.096-34.49.697.1 2.042-6.55 5.545-22.7.806-11.21-2.3-14.99-11.932-22.65-8.977-8.8-16.75-11.17-29.002-11.17zm.116 396.83c-15.732 0-32.519-7.61-44.116-17.97-10.761-11.59-18.416-28.36-18.416-44.43 0-15.06 7.771-31.41 18.4-43.05 11.645-10.66 28.375-18.22 44.085-18.22 15.772 0 32.574 7.9 43.9 18.68 10.128 11.68 17.288 27.98 17.288 43.03 0 15.31-7.191 31.58-17.322 43.11-11.398 11.1-28.054 18.85-43.819 18.85zm295.305-421.33v-116h-116c-13.167 0-24.29-4.56-33.37-13.68-9.087-9.113-13.63-20.25-13.63-33.41 0-13.153 4.543-24.427 13.63-33.82 9.08-9.393 20.203-14.09 33.37-14.09h116c26.307 0 48.717 9.257 67.23 27.77s27.77 40.923 27.77 67.23v116c0 13.167-4.753 24.29-14.26 33.37-9.513 9.087-20.847 13.63-34 13.63-13.16 0-24.24-4.543-33.24-13.63-9-9.08-13.5-20.203-13.5-33.37zm-676 0v-116c0-26.307 9.157-48.717 27.47-67.23 18.32-18.513 40.497-27.77 66.53-27.77h116c13.167 0 24.293 4.753 33.38 14.26 9.08 9.513 13.62 20.847 13.62 34 0 13.16-4.54 24.24-13.62 33.24-9.087 9-20.213 13.5-33.38 13.5h-116v116c0 13.167-4.56 24.29-13.68 33.37-9.113 9.087-20.28 13.63-33.5 13.63-13.213 0-24.32-4.543-33.32-13.63-9-9.08-13.5-20.203-13.5-33.37zm676 560h-116c-13.167 0-24.29-4.56-33.37-13.68-9.087-9.113-13.63-20.28-13.63-33.5 0-13.213 4.543-24.32 13.63-33.32 9.08-9 20.203-13.5 33.37-13.5h116v-116c0-13.167 4.56-24.293 13.68-33.38 9.113-9.08 20.25-13.62 33.41-13.62 13.153 0 24.427 4.54 33.82 13.62 9.393 9.087 14.09 20.213 14.09 33.38v116c0 26.033-9.257 48.21-27.77 66.53-18.513 18.313-40.923 27.47-67.23 27.47z"/></svg>