<svg height="48" viewBox="0 -960 960 960" width="48" xmlns="http://www.w3.org/2000/svg"><path fill="rgb(255, 255, 255)" d="m804.056-666.63c23.324 0 43.193 8.12 59.607 24.36s24.621 35.9 24.621 58.98v480.54c0 23.33-8.207 43.199-24.621 59.61s-36.283 24.621-59.607 24.621h-374.149c-23.082 0-42.741-8.21-58.978-24.621-16.242-16.411-24.364-36.28-24.364-59.61v-480.54c0-23.08 8.122-42.74 24.364-58.98 16.237-16.24 35.896-24.36 58.978-24.36zm-374.149 563.88h374.149v-480.54h-374.149zm279.283-701.31c11.674 0 21.538 3.99 29.595 11.97 8.05 7.98 12.075 17.97 12.075 29.99 0 12.01-4.025 22.07-12.075 30.14-8.057 8.09-17.921 12.13-29.595 12.13h-415.821v522.22c0 11.67-3.989 21.53-11.969 29.59-7.979 8.05-17.974 12.08-29.985 12.08-12.016 0-22.065-4.03-30.145-12.08-8.086-8.06-12.128-17.92-12.128-29.59v-522.22c0-23.32 8.207-43.19 24.621-59.6 16.413-16.42 36.282-24.63 59.606-24.63zm-137.426-137.42c11.668 0 21.527 4.08 29.595 12.06 8.051 7.98 12.076 17.91 12.076 29.97 0 12.05-4.025 21.98-12.076 30.14-8.068 8-17.927 12.06-29.595 12.06h-415.821v522.22c0 11.7-3.99 21.62-11.968 29.6-7.981 8.17-17.981 12.06-29.986 12.06-12.022 0-22.076-3.89-30.144-12.06-8.086-7.98-12.129-17.9-12.129-29.6v-522.22c0-23.22 8.21-43.08 24.612-59.57 16.419-16.32 36.28-24.66 59.615-24.66z"/></svg>