<svg viewBox="0 0 22 22" xmlns="http://www.w3.org/2000/svg"><path fill="rgb(255, 255, 255)" d="m19.5 3v16c0 .276-.224.5-.5.5h-16c-.276 0-.5-.224-.5-.5v-16c0-.276.224-.5.5-.5h16c.276 0 .5.224.5.5zm-15 14.5h5v-3.344c-.527-.261-.946-.562-1.343-1.114-.396-.551-.657-1.307-.657-2.042s.261-1.491.657-2.042c.397-.552.818-.851 1.343-1.113v-3.345h-5zm8 0h5v-13h-5v3.344c.527.261.946.562 1.343 1.114.396.551.657 1.307.657 2.042s-.261 1.491-.657 2.042c-.397.552-.818.851-1.343 1.113zm-1.853-6.853c-.118.118-.147.179-.147.353s.029.235.147.353.179.147.353.147.235-.029.353-.147.147-.179.147-.353-.029-.235-.147-.353-.179-.147-.353-.147-.235.029-.353.147z"/></svg>