<svg viewBox="0 0 22 22" xmlns="http://www.w3.org/2000/svg"><path fill="rgb(255, 255, 255)" d="m19.5 3v16c0 .276-.224.5-.5.5h-16c-.276 0-.5-.224-.5-.5v-16c0-.276.224-.5.5-.5h16c.276 0 .5.224.5.5zm-15 14.5h13v-5h-3.344c-.261.527-.562.946-1.114 1.343-.551.396-1.307.657-2.042.657-.931 0-1.869-.419-2.475-1.025s-1.025-1.544-1.025-2.475.419-1.869 1.025-2.475 1.544-1.025 2.475-1.025c.735 0 1.491.261 2.042.657.552.397.851.818 1.113 1.343h3.345v-5h-13zm6.147-6.853c-.118.118-.147.179-.147.353s.029.235.147.353.179.147.353.147.235-.029.353-.147.147-.179.147-.353-.029-.235-.147-.353-.179-.147-.353-.147-.235.029-.353.147z"/></svg>