<svg height="48" viewBox="0 -960 960 960" width="48" xmlns="http://www.w3.org/2000/svg"><path fill="rgb(255, 255, 255)" d="m479.04-118c-11.827 0-23.267-1.957-34.32-5.87s-21.05-10.373-29.99-19.38l-53.73-50.75c-82-74.667-153.5-147.833-214.5-219.5s-91.5-148.167-91.5-229.5c0-67.507 22.307-123.883 66.92-169.13 44.62-45.247 100.313-67.87 167.08-67.87 33.333 0 66.333 7.167 99 21.5s63 38.833 91 73.5c31.333-34.667 62.333-59.167 93-73.5s63-21.5 97-21.5c67.587 0 123.983 22.623 169.19 67.87s67.81 101.623 67.81 169.13c0 81.333-31 157.833-93 229.5s-133.667 145.167-215 220.5l-54 50c-8.833 8.92-18.863 15.317-30.09 19.19s-22.85 5.81-34.87 5.81z"/></svg>