<svg height="48" viewBox="0 -960 960 960" width="48" xmlns="http://www.w3.org/2000/svg"><path fill="rgb(255, 255, 255)" d="m360.334-137.17c-3.34 5.78-7.209 10.84-11.606 15.16-7.966 7.84-17.667 13.28-29.104 16.32-17.742 4.73-34.796 2.37-51.13-7.06-16.316-9.42-27.017-23.08-32.069-40.97-1.506-5.34-2.37-10.59-2.592-15.78-.525-12.22 2.509-24.03 9.102-35.45l356.732-617.88c9.394-16.27 23.177-26.64 41.344-31.13 18.152-4.48 35.394-2 51.728 7.43 15.361 8.87 25.554 21.37 30.578 37.52.316 1.02.612 2.04.887 3.09.434 1.65.806 3.3 1.116 4.94 3.01 15.88.258 31.19-8.255 45.93z"/></svg>