<svg height="48" viewBox="0 -960 960 960" width="48" xmlns="http://www.w3.org/2000/svg"><path fill="rgb(255, 255, 255)" d="m73.394-669.48c-9.598-9.58-14.38-20.93-14.38-34.21 0-13.3 4.782-24.65 14.38-34.2 9.596-9.58 21.008-14.42 34.253-14.42 13.324 0 24.623 4.84 33.897 14.42 9.27 9.55 13.923 21.07 13.923 34.36s-4.669 24.63-13.989 34.21c-9.321 9.56-20.458 14.26-33.426 14.26-13.52 0-25.062-4.7-34.658-14.42zm227.288 0c-9.273-9.58-13.907-20.93-13.907-34.21 0-13.45 4.65-24.79 13.973-34.36 9.321-9.58 20.474-14.26 33.442-14.26 13.503 0 25.046 4.84 34.643 14.42 9.595 9.55 14.394 20.9 14.394 34.2 0 13.28-4.799 24.63-14.394 34.21-9.597 9.72-21.011 14.42-34.237 14.42-13.343 0-24.64-4.7-33.914-14.42zm1.897 121.9c25.661 12.15 46.605 30.14 62.816 53.8 5.398 7.15 6.079 14.6 2.026 22.7-4.051 8.12-10.131 12.17-18.237 12.17-5.98 0-11.12-1.3-15.416-4.05-4.311-2.75-8.365-5.83-12.141-9.73-11.899-14.76-26.569-25.93-43.996-33.39-17.426-7.46-36.003-11.2-55.731-11.2-19.746 0-38.438 3.41-56.09 10.38-17.652 6.98-32.453 18.16-44.385 33.4-3.242 3.72-7.131 7.13-11.638 10.21-4.524 2.92-9.549 4.38-15.11 4.38-8.753 0-14.719-4.54-17.913-13.78-3.193-9.24-1.815-17.83 4.135-25.93 16.47-22.7 36.943-39.56 61.421-50.57 24.479-11.21 50.74-16.72 78.8-16.72 28.629 0 55.782 6.16 81.459 18.33zm288.573-121.9c-9.598-9.58-14.38-20.93-14.38-34.21 0-13.3 4.782-24.65 14.38-34.2 9.596-9.58 21.008-14.42 34.253-14.42 13.276 0 24.559 4.84 33.864 14.42 9.303 9.55 13.956 21.07 13.956 34.53 0 13.45-4.669 24.79-13.989 34.2-9.321 9.4-20.604 14.1-33.831 14.1-13.245 0-24.657-4.7-34.253-14.42zm227.321 0c-9.306-9.58-13.94-21.09-13.94-34.54s4.65-24.79 13.973-34.21c9.321-9.4 20.603-14.08 33.848-14.08 13.226 0 24.64 4.84 34.237 14.42 9.595 9.55 14.394 20.9 14.394 34.2 0 13.28-4.799 24.63-14.394 34.21-9.597 9.72-21.011 14.42-34.237 14.42-13.294 0-24.576-4.7-33.881-14.42zm-158.395 213.48c-24.478-11.18-44.951-28.04-61.421-50.73-5.95-8.1-7.263-16.69-3.938-25.94 3.322-9.07 9.125-13.79 17.408-13.79 5.399 0 10.44 1.46 15.141 4.55 4.702 2.92 8.673 6.33 11.915 10.04 11.883 15.41 26.748 26.43 44.579 33.41 17.833 6.97 36.409 10.38 55.749 10.38 19.322 0 37.821-3.74 55.473-11.2 17.653-7.45 32.453-18.63 44.401-33.39 3.776-3.73 7.879-6.98 12.304-9.73 4.424-2.75 9.515-4.06 15.253-4.06 8.106 0 14.186 4.06 18.237 12.17 4.053 8.1 3.372 15.72-2.026 22.68-16.211 23.84-37.089 41.83-62.621 53.99-25.531 12.17-52.879 18.17-82.059 18.17-27.783 0-53.916-5.51-78.395-16.55zm-535.126 248.31c-19.034 0-34.776-6.28-47.245-18.72-12.459-12.46-18.693-28.22-18.693-47.22 0-19.09 6.234-34.86 18.693-47.22 12.469-12.45 28.211-18.72 47.245-18.72h678.301c19.034 0 34.786 6.27 47.245 18.72 12.468 12.45 18.693 28.22 18.693 47.22 0 19.09-6.225 34.86-18.693 47.31-12.459 12.35-28.211 18.63-47.245 18.63zm480.373-41.42h189.73c7.088 0 12.948-2.29 17.575-6.95 4.635-4.66 6.948-10.46 6.948-17.57 0-9.24-2.313-15.7-6.948-19.21-4.627-3.52-10.487-5.32-17.575-5.32h-189.73z" stroke-width=".05"/></svg>