<svg height="48" viewBox="0 -960 960 960" width="48" xmlns="http://www.w3.org/2000/svg"><path fill="rgb(255, 255, 255)" d="m400.961-353.61c29.364 7.05 55.378 17.11 78.039 30.17 15.073 10.05 26.631 20.63 34.67 31.81 5.622 7.797 14.652 39.944 19.574 62.63h277.748v-275l-289.586.292c-35.802 0-64.826-29.024-64.826-64.826s29.024-64.826 64.826-64.826l289.586.36v-98h-661.993v395.163c16.187-7.22 33.804-13.145 52.849-17.773 29.003-7.01 62.095-10.53 99.278-10.53s70.46 3.52 99.835 10.53zm-177.587-132.63c-21.526-21.12-32.288-47.28-32.288-78.51 0-30.23 10.803-56.12 32.41-77.63 21.604-21.53 47.523-32.29 77.75-32.29 30.229 0 56.106 10.79 77.632 32.41 21.525 21.61 32.288 47.52 32.288 77.75 0 31.25-10.803 57.38-32.408 78.38-21.607 21.03-47.525 31.55-77.752 31.55-30.228 0-56.107-10.56-77.632-31.66zm682.619-244.76v502c0 26.01-9.261 48.21-27.782 66.59-18.519 18.22-40.918 27.41-67.219 27.41h-661.993c-26.041 0-48.22-9.19-66.54-27.41-18.319-18.38-27.459-40.58-27.459-66.59v-502c0-26.2 9.14-48.59 27.459-67.19 18.32-18.62 40.499-27.81 66.54-27.81h661.993c26.301 0 48.7 9.19 67.219 27.81 18.521 18.6 27.782 40.99 27.782 67.19z"/></svg>