<svg height="48" viewBox="0 -960 960 960" width="48" xmlns="http://www.w3.org/2000/svg"><path fill="rgb(255, 255, 255)" d="m863.744-188.5c0 26.03-9.157 48.21-27.47 66.53-18.32 18.31-40.5 27.47-66.53 27.47h-518.488c-26.31 0-48.72-9.16-67.23-27.47-18.51-18.32-27.77-40.5-27.77-66.53v-56h-19c-11.17 0-20.79-4.13-28.88-12.39-8.08-8.27-12.12-17.87-12.12-28.8 0-11.22 4.04-20.83 12.12-28.82 8.09-7.99 17.71-11.99 28.88-11.99h19v-306h-19c-11.17 0-20.79-4.13-28.88-12.39-8.08-8.27-12.12-17.87-12.12-28.8 0-11.23 4.04-20.83 12.12-28.82 8.09-7.99 17.71-11.99 28.88-11.99h19v-56c0-26.31 9.26-48.72 27.77-67.23s40.92-27.77 67.23-27.77h518.488c26.03 0 48.21 9.26 66.53 27.77 18.313 18.51 27.47 40.92 27.47 67.23zm-561.814 0v-582h-50.674v582zm467.814 0v-582h-407.814v582zm-327.779-453.66c-9.913 0-18.227-3.45-24.94-10.37-6.707-6.91-10.06-15.48-10.06-25.7 0-9.94 3.353-18.41 10.06-25.42 6.713-7 15.027-10.51 24.94-10.51h242.093c9.92 0 18.233 3.57 24.94 10.69 6.707 7.14 10.06 15.67 10.06 25.61s-3.353 18.38-10.06 25.31-15.02 10.39-24.94 10.39zm0 177c-9.913 0-18.227-3.32-24.94-9.98-6.707-6.64-10.06-15.21-10.06-25.7 0-10.2 3.353-18.63 10.06-25.31 6.713-6.67 15.027-10.01 24.94-10.01h121.093c9.92 0 18.233 3.38 24.94 10.12 6.707 6.75 10.06 15.11 10.06 25.07 0 10.54-3.353 19.15-10.06 25.81-6.707 6.67-15.02 10-24.94 10z"/></svg>