<svg viewBox="0 0 22 22" xmlns="http://www.w3.org/2000/svg"><path fill="rgb(255, 255, 255)" d="m19.5 11c-.022 2.311-.979 4.5-2.49 6.01-1.51 1.511-3.699 2.49-6.01 2.49s-4.5-.979-6.01-2.49c-1.511-1.51-2.468-3.699-2.49-6.01.022-2.311.979-4.5 2.49-6.01 1.51-1.511 3.699-2.49 6.01-2.49s4.5.979 6.01 2.49c1.511 1.51 2.468 3.699 2.49 6.01zm-12.326-5.252 3.826 3.826 3.831-3.831c-1.113-.831-2.419-1.256-3.831-1.243-1.41-.011-2.716.416-3.826 1.248zm-1.43 1.422c-.831 1.112-1.257 2.419-1.244 3.83-.011 1.41.414 2.705 1.249 3.825l3.825-3.825zm10.508.004-3.826 3.826 3.831 3.831c.831-1.112 1.256-2.419 1.243-3.831.011-1.41-.416-2.716-1.248-3.826zm-9.081 9.081c1.111.831 2.417 1.258 3.829 1.245 1.41.011 2.716-.417 3.826-1.248l-3.826-3.826z"/></svg>