<svg height="48" viewBox="0 -960 960 960" width="48" xmlns="http://www.w3.org/2000/svg"><path fill="rgb(255, 255, 255)" d="m149-135c-26.033 0-48.21-9.327-66.53-27.98-18.313-18.647-27.47-40.653-27.47-66.02v-502c0-25.64 9.157-47.883 27.47-66.73 18.32-18.847 40.497-28.27 66.53-28.27h222c12.46 0 24.573 2.667 36.34 8 11.773 5.333 22.023 12.363 30.75 21.09l43.36 42.91h329.55c25.64 0 47.883 9.323 66.73 27.97 18.847 18.653 28.27 40.663 28.27 66.03v431c0 25.367-9.423 47.373-28.27 66.02-18.847 18.653-41.09 27.98-66.73 27.98zm0-94h662v-431h-369l-71-71h-222zm435.616-69.24c-38.365 0-70.775-13.33-97.232-39.99-26.455-26.8-39.683-59.11-39.683-96.93 0-37.95 13.228-70.12 39.683-96.92 26.457-26.66 58.867-39.99 97.232-39.99 37.873 0 70.168 13.33 96.87 39.99 26.701 26.8 40.045 58.97 40.045 96.92 0 37.82-13.344 70.13-40.045 96.93-26.702 26.66-58.997 39.99-96.87 39.99zm12.315-140.1v-66.36c0-4.78-1.782-8.98-5.36-12.31-3.593-3.48-7.767-5.07-12.533-5.07-4.969 0-9.388 1.73-13.257 5.36-3.868 3.47-5.795 8.11-5.795 13.47v64.47c0 4.78.84 9.13 2.535 13.05 1.696 3.9 3.984 7.53 6.882 10.86l44.19 45.64c3.375 3.33 7.606 5.07 12.678 5.07 5.07 0 9.301-2.03 12.677-5.94s5.186-8.27 5.432-13.05c.247-4.78-1.564-8.97-5.432-12.88z"/></svg>