<svg height="48" viewBox="0 -960 960 960" width="48" xmlns="http://www.w3.org/2000/svg"><path fill="rgb(255, 255, 255)" d="m149-135c-26.033 0-48.21-9.327-66.53-27.98-18.313-18.647-27.47-40.653-27.47-66.02v-502c0-25.64 9.157-47.883 27.47-66.73 18.32-18.847 40.497-28.27 66.53-28.27h261l71 72h330c25.64 0 47.883 9.323 66.73 27.97 18.847 18.653 28.27 40.663 28.27 66.03v167c0 14.053-4.753 25.567-14.26 34.54-9.513 8.973-20.847 13.46-34 13.46-13.16 0-24.24-4.543-33.24-13.63-9-9.08-13.5-20.203-13.5-33.37v-168h-369l-71-71h-222v502h276c13.167 0 24.293 4.56 33.38 13.68 9.08 9.113 13.62 20.28 13.62 33.5 0 13.213-4.54 24.32-13.62 33.32-9.087 9-20.213 13.5-33.38 13.5zm442.075 38.15c-14.637 0-27.003-5.11-37.1-15.11-10.099-10.23-15.172-22.48-15.172-37.14v-136.81c0-10.66 3.025-20.47 9.054-29.13 6.028-8.69 14.125-14.91 24.312-18.69h16.683v-47.15c0-28.05 9.542-52.05 28.627-71.84 19.105-20.02 42.459-30.04 70.063-30.04 27.626 0 51.094 10.02 70.357 30.04 19.284 19.79 28.915 43.79 28.915 71.84v47.15h16.682c9.454 3.78 17.394 10 23.778 18.69 6.404 8.66 9.586 18.47 9.586 29.13v136.81c0 14.66-5.249 26.91-15.771 37.14-10.52 10-23.043 15.11-37.613 15.11zm54.495-241.31h84.525v-51.16c0-12.92-3.983-23.82-11.99-32.5-7.986-8.67-17.883-13.12-29.717-13.12-11.809 0-21.908 4.45-30.274 13.12-8.363 8.68-12.544 19.58-12.544 32.5zm-412.279-86.87c-6.866-7.98-12.125-20.81-12.849-31.4v-20.83l-12.674-12.75c-3.724-3.98-7.772-10.18-9.88-15.05-1.604-4.63-2.996-11.16-2.996-16.09 0-4.88 1.409-11.48 2.98-16.12 2.104-4.87 6.135-11.05 9.784-15.02l12.786-12.85v-20.84c.724-10.64 5.986-23.48 12.778-31.48 7.94-6.9 20.763-12.2 31.399-12.95h20.921l12.829-12.59c3.901-3.58 10.147-7.61 15.269-9.78 4.728-1.61 11.158-2.93 16.078-2.93 5.108 0 12.029 1.63 16.873 3.48 4.598 2.16 10.36 6.08 14.079 9.49l12.508 12.33h20.996c10.684.74 23.605 6.09 31.59 12.96 6.867 8 12.111 20.79 12.845 31.47v20.91l12.55 12.8c3.615 3.91 7.588 9.98 9.746 14.91 1.626 4.67 2.995 11.19 2.995 16.16 0 4.89-1.378 11.46-2.996 16.14-2.11 4.87-5.93 10.84-9.668 14.84l-12.627 12.87v20.92c-.734 10.62-6.079 23.52-13.022 31.49-7.529 6.39-19.315 11.37-29.54 12.52v90.607c0 25.29-29.162 39.48-49.061 23.81l-17.153-12.8-17.155 12.8c-19.9 15.67-49.06 1.48-49.06-23.81v-90.517c-10.375-.98-22.625-6.1-30.325-12.7z"/></svg>