<svg height="48" viewBox="0 -960 960 960" width="48" xmlns="http://www.w3.org/2000/svg"><path fill="rgb(255, 255, 255)" d="m96.343-839.56c1.996-2.56 4.099-5.06 6.31-7.51 1.48-1.05 2.95-3.31 4.548-4.67 3.212-3.43 6.645-6.35 10.154-9.29 29.776-23.93 67.773-33.17 103.841-27.34 2.135.32 4.262.69 6.381 1.13 12.471 2.65 24.624 7.09 36.03 13.29 10.465 5.81 20.309 13.22 29.209 22.21 11.747 11.69 20.801 25.11 27.16 39.44.661 1.503 1.293 3.016 1.895 4.537l317.707-.034c4.427-11.156 10.427-21.853 17.998-31.753 1.996-2.56 4.099-5.06 6.31-7.51 1.48-1.05 2.95-3.31 4.548-4.67 3.212-3.43 6.645-6.35 10.154-9.29 29.776-23.93 67.773-33.17 103.841-27.34 2.135.32 4.262.69 6.381 1.13 12.471 2.65 24.624 7.09 36.03 13.29 10.465 5.81 20.309 13.22 29.209 22.21 11.747 11.69 20.801 25.11 27.16 39.44 21.253 48.32 12.182 106.64-27.311 146-23.895 23.47-54.605 36.66-85.783 38.34-2.258.12-4.52.18-6.783.18-17.19 0-34.39-3.49-50.522-10.31-.765-.32-1.532-.69-2.292-1.04-2.13-.94-4.243-1.92-6.333-2.95-12.071-6.16-23.403-14.29-33.504-24.3-14.508-14.409-24.909-31.381-31.205-49.49l-313.615-.009c-6.304 18.123-16.701 35.123-31.196 49.569-13.756 13.512-29.771 23.616-46.834 30.079l-.367 313.852c6.207 2.254 12.274 4.979 18.143 8.169 10.465 5.81 20.309 13.22 29.209 22.21 11.747 11.69 20.801 25.11 27.16 39.44 21.253 48.32 12.182 106.64-27.311 146-23.895 23.473-54.605 36.663-85.783 38.343-2.258.12-4.52.18-6.783.18-17.19 0-34.39-3.49-50.522-10.31-.765-.32-1.532-.69-2.292-1.04-2.13-.94-4.243-1.92-6.333-2.95-12.071-6.16-23.403-14.29-33.504-24.303-47.272-46.95-50.936-121.1-11.105-173.18 1.996-2.56 4.099-5.06 6.31-7.51 1.48-1.05 2.95-3.31 4.548-4.67 3.212-3.43 6.645-6.35 10.154-9.29 11.119-8.936 23.384-15.824 36.268-20.643l-.096-314.572c-1.323-.509-2.64-1.041-3.95-1.595-.765-.32-1.532-.69-2.292-1.04-2.13-.94-4.243-1.92-6.333-2.95-12.071-6.16-23.403-14.29-33.504-24.3-47.272-46.95-50.936-121.1-11.105-173.18zm627.959 117.37c4.089 4.053 8.676 7.338 13.562 9.83.846.422 1.701.821 2.563 1.2.308.146.618.287.928.425 6.53 2.759 13.492 4.165 20.45 4.165.916 0 1.832-.022 2.746-.066 12.62-.688 25.051-6.024 34.723-15.524 15.986-15.931 19.658-39.538 11.055-59.098-2.574-5.801-6.239-11.227-10.994-15.962-3.602-3.641-7.587-6.636-11.823-8.986-4.617-2.515-9.536-4.316-14.584-5.386-.858-.175-1.719-.328-2.583-.458-14.6-2.36-29.98 1.38-42.033 11.07-1.42 1.19-2.81 2.37-4.11 3.76-.647.553-1.242 1.459-1.841 1.891-.895.988-1.746 2.002-2.554 3.04-16.123 21.076-14.64 51.088 4.495 70.099zm-561.233-.01c4.089 4.06 8.676 7.34 13.562 9.83.846.43 1.701.83 2.563 1.2.308.15.618.29.928.43 6.53 2.76 13.492 4.16 20.45 4.16.916 0 1.832-.02 2.746-.06 12.62-.69 25.051-6.03 34.723-15.53 15.986-15.93 19.658-39.53 11.055-59.09-2.574-5.81-6.239-11.23-10.994-15.97-3.602-3.64-7.587-6.63-11.823-8.98-4.617-2.52-9.536-4.32-14.584-5.39-.858-.17-1.719-.33-2.583-.46-14.6-2.36-29.98 1.38-42.033 11.07-1.42 1.19-2.81 2.37-4.11 3.76-.647.56-1.242 1.46-1.841 1.89-.895.99-1.746 2.01-2.554 3.05-16.123 21.07-14.64 51.08 4.495 70.09zm0 559.75c4.089 4.06 8.676 7.34 13.562 9.83.846.43 1.701.82 2.563 1.2.308.15.618.29.928.43 6.53 2.76 13.492 4.16 20.45 4.16.916 0 1.832-.02 2.746-.06 12.62-.69 25.051-6.03 34.723-15.53 15.986-15.93 19.658-39.54 11.055-59.09-2.574-5.81-6.239-11.23-10.994-15.97-3.602-3.64-7.587-6.63-11.823-8.98-4.617-2.52-9.536-4.32-14.584-5.39-.858-.17-1.719-.33-2.583-.46-14.6-2.36-29.98 1.38-42.033 11.07-1.42 1.19-2.81 2.37-4.11 3.76-.647.56-1.242 1.46-1.841 1.89-.895.99-1.746 2.01-2.554 3.04-16.123 21.08-14.64 51.09 4.495 70.1zm573.195-13.45h-72.57c-13.083 0-24.136-4.58-33.164-13.54-9.046-9.14-13.558-20.47-13.558-33.78 0-13.54 4.512-24.66 13.558-33.62 9.028-8.93 20.081-13.51 33.164-13.51h72.57v-72.57c0-13.13 4.533-24.05 13.599-33.21 9.066-8.93 20.16-13.52 33.301-13.52 13.143 0 24.177 4.59 33.125 13.52 8.947 9.16 13.419 20.08 13.419 33.21v72.57h72.57c13.103 0 24.156 4.58 33.184 13.51 9.025 9.16 13.538 20.49 13.538 33.8 0 13.52-4.513 24.87-13.538 33.8-9.028 8.96-20.081 13.34-33.184 13.34h-72.57v71.57c0 13.722-4.533 25.042-13.599 34.182-9.046 8.96-20.161 13.54-33.301 13.54-13.123 0-24.177-4.58-33.126-13.54-8.946-9.14-13.418-20.46-13.418-34.182zm92.046-328.295c0 13.211-4.6 24.302-13.8 33.294-9.38 8.994-20.37 13.489-33.16 13.489-12.59 0-23.78-4.556-32.98-13.669-9.4-9.112-13.99-20.265-13.99-33.473 0-13.21 4.59-24.301 13.99-33.293 9.39-8.994 20.58-13.49 33.57-13.49 12.8 0 23.78 4.557 32.79 13.669 8.98 9.113 13.58 20.264 13.58 33.473zm-274.997 284.475c0 12.949-4.61 23.919-13.8 32.913-8.98 8.992-20.18 13.49-33.37 13.49-13.18 0-24.39-4.617-33.38-13.851-8.98-9.232-13.39-20.223-13.39-32.973 0-12.749 4.59-23.782 13.61-33.113 9.19-9.333 20.37-13.99 33.56-13.99s24.18 4.677 33.19 14.049c8.97 9.373 13.58 20.524 13.58 33.475z"/></svg>