<svg height="48" viewBox="0 -960 960 960" width="48" xmlns="http://www.w3.org/2000/svg"><path fill="rgb(255, 255, 255)" d="m402.788-402.83c-14.52-14.49-24.045-30.98-28.61-49.77-2.093-8.4-3.132-17.64-3.132-26.86 0-.19 0-.23 0-.23 0-.03 0-.17 0-.21 0-30.21 10.601-56 31.76-77 15.217-15.21 32.762-24.87 52.644-29.11 7.823-1.7 16.006-2.56 24.55-2.56 30.259 0 55.985 10.56 77.179 31.65 21.177 21.09 31.775 46.81 31.775 76.97v.32.17c0 11.21-1.507 21.9-4.508 31.82-3.445 11.61-8.864 22.35-16.268 32.2-3.27 4.38-6.925 8.58-10.966 12.61-10.031 9.91-21.075 17.5-33.136 22.74-13.406 5.84-28.071 8.78-43.988 8.78-.021 0-.06 0-.1 0-.021 0-.061 0-.1 0-16.404 0-31.466-3.12-45.196-9.32-11.586-5.22-22.223-12.62-31.904-22.2zm45.898-45.65c5.662 5.71 12.466 9.52 19.671 11.48 3.805 1 7.718 1.5 11.631 1.5 11.34 0 22.659-4.2 31.319-13 6.507-6.46 10.567-14.47 12.181-22.86 2.663-13.92-1.4-28.83-12.192-39.58-1.484-1.55-3.047-2.95-4.676-4.21-5.331-4.01-11.36-6.68-17.613-7.99-.627-.12-1.257-.23-1.888-.33-11.945-1.94-24.524 1.04-34.504 8.93-1.354 1.1-2.66 2.32-3.909 3.64-10.981 10.96-14.995 26.15-12.054 40.27 1.705 8.13 5.716 15.86 12.034 22.15zm313.495-63.13c13.027-37.63 48.759-64.54 90.809-64.54 53.049 0 96.076 42.9 96.076 96.14 0 53.07-43.027 96.16-96.076 96.16-42.304 0-78.192-27.48-91.045-65.34h-45.048l-109.201 109.24c-5.618 5.45-12.386 8.38-20.245 8.38-7.862 0-14.59-2.93-20.247-8.38-5.615-5.68-8.541-12.5-8.757-19.92-.194-7.59 2.535-14.4 8.153-20.07l99.742-99.68-99.742-99.84c-5.618-5.67-8.464-12.3-8.464-20.11 0-7.97 2.846-14.61 8.464-20.47 5.657-5.64 12.385-8.38 20.244-8.38 7.862 0 14.648 2.74 20.245 8.38l108.424 108.43zm-517.855.06 108.422-108.43c5.603-5.61 12.383-8.39 20.244-8.39 7.856 0 14.577 2.78 20.239 8.39 5.62 5.8 8.461 12.61 8.461 20.41s-2.841 14.38-8.461 20.18l-99.741 99.81 99.741 99.61c5.62 5.8 8.359 12.62 8.159 20.19-.219 7.4-3.139 14.22-8.758 19.82-5.663 5.61-12.383 8.39-20.24 8.39-7.861 0-14.644-2.78-20.263-8.39l-109.202-109.21h-45.041c-12.861 37.82-48.74 65.4-91.042 65.4-53.063 0-96.082-42.98-96.082-96.2 0-53.21 43.019-96.2 96.082-96.2 42.039 0 77.781 27 90.803 64.62z" stroke-width=".05"/></svg>