<svg height="48" viewBox="0 -960 960 960" width="48" xmlns="http://www.w3.org/2000/svg"><path fill="rgb(255, 255, 255)" d="m614.999-430.29v13.56c0 19.54-7.06 36.48-21.181 50.35-14.104 14.01-31.061 21.02-50.871 21.02h-125.894c-20.084 0-37.117-7.01-51.086-21.02-13.982-13.87-20.951-30.81-20.951-50.35v-13.56l-117.695.137c-8.34 15.425-20.037 27.974-35.102 37.733-3.826 2.49-7.773 4.68-11.827 6.6-14.248 7.13-29.938 10.76-47.059 10.76-29.362 0-54.219-10.12-74.602-30.35-20.368-20.25-30.568-45.15-30.571-74.49.004-29.55 10.2-54.45 30.568-74.69 20.38-20.45 45.239-30.78 74.609-30.77 16.053 0 30.861 3.08 44.392 9.4 5 2.16 9.829 4.74 14.488 7.76 15.206 9.855 26.98 22.692 35.33 38.35h117.469v-13.43c0-19.68 6.969-36.45 20.951-50.47 13.969-13.88 31.002-20.89 51.086-20.89h125.894c19.81 0 36.767 7.01 50.871 20.89 14.121 14.02 21.181 30.79 21.181 50.47v13.43h113.503c8.351-15.658 20.123-28.494 35.329-38.34 11.987-7.77 25.101-12.67 39.346-14.77 7.506-1.6 15.341-2.4 23.503-2.4 29.372 0 54.226 10.32 74.589 30.77 20.387 20.24 30.563 45.14 30.567 74.7-.005 29.33-10.185 54.23-30.565 74.49-20.367 20.22-45.222 30.34-74.587 30.34-8.103 0-15.887-.81-23.342-2.42-14.305-2.13-27.478-7.13-39.515-14.93-15.11-9.799-26.833-22.389-35.177-37.88zm-197.946 13.57h125.894v-126.56h-125.894z" stroke-width=".003"/></svg>