<svg height="48" viewBox="0 -960 960 960" width="48" xmlns="http://www.w3.org/2000/svg"><path fill="rgb(255, 255, 255)" d="m753-669-64 109c3.333-.67 7-1.17 11-1.5s7.667-.5 11-.5c45.333 4 82.833 22.5 112.5 55.5 18.546 20.63 31.295 43.41 38.247 68.34 4.169 14.87 6.253 30.53 6.253 47.03v.07.06c0 2.07-.03 4.13-.091 6.17-1.375 47.12-18.299 85.2-50.768 117.79-32.554 32.67-72.044 48.73-118.455 49.96-1.884.05-3.779.08-5.686.08-.022 0-.044 0-.066 0s-.045 0-.068 0c-48.036 0-88.887-16.01-122.592-50.04-33.686-34.03-50.539-74.05-50.539-124.09 0-14.02 1.762-28.02 5.264-42.03 3.503-13.22 8.426-25.82 14.752-37.63l138.104-242.19c4.244-7.4 9.627-12.8 16.152-16.01 6.526-3.39 14.031-5.01 22.537-5.01h.05.056c16.067 0 28.307 7.17 36.72 21.5 8.42 14.33 8.297 28.83-.37 43.5zm-387-1-64 110c3.333-.67 7-1.17 11-1.5s7.667-.5 11-.5c45.333 4 82.667 22.5 112 55.5s44 71.5 44 115.5c0 48.9-16.777 90.12-50.33 123.67-.754.75-1.513 1.5-2.275 2.24-28.302 27.84-61.954 43.15-100.967 47.07-6.654.68-13.463 1.02-20.428 1.02-.07 0-.14 0-.209 0-.073 0-.146 0-.219 0-48.035 0-89.068-16.01-123.093-50.04-34.026-34.03-51.039-74.05-51.039-124.09 0-14.02 1.761-28.02 5.264-42.03 3.502-13.22 8.426-25.82 14.752-37.63l139.105-242.19c4.244-7.4 9.627-12.8 16.152-16.01 6.525-3.39 14.031-5.01 22.538-5.01h.191.208c16.067 0 28.14 7 36.22 21 8.087 14 8.13 28.33.13 43zm257 278.59c0 19.61 6.783 36.41 20.35 50.41s30.037 21 49.41 21c12.708 0 24.126-2.73 34.254-8.18 5.904-3.43 11.367-7.77 16.391-12.91 2.215-1.94 4.25-4.04 6.106-6.29 4.436-5.66 7.853-11.75 10.252-18.29 2.772-7.84 4.157-16.45 4.157-25.46 0-15.64-5.084-31.27-15.278-44.3-1.521-1.9-3.155-3.76-4.902-5.57-1.063-1.1-2.145-2.16-3.247-3.17-12.927-11.64-28.566-17.62-46.887-17.62-19.834 0-36.587 6.82-50.277 20.62-4.338 4.45-7.989 9.1-10.952 14.01-6.251 10.57-9.377 22.49-9.377 35.75zm-367-50c-14 13.73-21 30.39-21 50s6.88 36.41 20.64 50.41 30.467 21 50.12 21c11.115 0 21.272-2.13 30.472-6.4 7.154-3.65 13.728-8.61 19.719-14.69 13.79-12.01 20.675-30.03 20.675-50.04 0-18.02-6.825-36.02-20.515-50.04-13.67-13.61-30.283-20.62-49.818-20.62-10.585 0-20.337 1.94-29.261 5.85-7.618 3.41-14.629 8.25-21.032 14.53z"/></svg>