<svg height="48" viewBox="0 -960 960 960" width="48" xmlns="http://www.w3.org/2000/svg"><path fill="rgb(255, 255, 255)" d="m602-648.82c0-13.22 4.667-24.39 14-33.5 9.333-9.12 20.48-13.68 33.44-13.68s24.127 4.5 33.5 13.5 14.06 20.11 14.06 33.32v.08.09c0 13.21-4.58 24.21-13.761 33.4-7.607 7.61-16.461 11.93-26.56 13.2-2.112.27-4.278.41-6.499.41-2.787 0-5.492-.2-8.115-.61-9.739-1.48-18.34-5.71-25.825-12.79-9.501-9-14.24-20.19-14.24-33.41zm262.532 495.05c.33 1.28.604 2.57.823 3.89.263 1.56.445 3.18.547 4.84.065 1.05.098 2.11.098 3.18v.03.03c0 12.8-4.501 23.8-13.499 32.99-7.6 7.78-16.609 12.266-27.032 13.474-1.921.224-3.891.336-5.909.336-1.137 0-2.26-.035-3.369-.104-11.535-.707-21.574-5.096-30.131-13.296-2.9-2.79-5.359-5.81-7.36-8.99l-468.114-468.15-192.05-192.05c-.097-.06-.193-.12-.289-.17-3.03-1.71-5.904-3.92-8.624-6.65-.128-.12-.256-.25-.383-.37-.37-.36-.733-.72-1.088-1.08-8.773-8.79-13.152-19.45-13.152-31.93 0-.01 0-.01 0-.02v-.01c0-13.13 4.667-24.45 14-33.94s20.48-14.24 33.44-14.24c9.524 0 18.08 2.52 25.667 7.56 3.705 2.09 7.176 4.72 10.413 7.9.12.11.24.22.36.34l105.786 105.8 566.72 566.72c6.992 6.99 11.373 14.96 13.146 23.91zm-769.532 12.33c0-12.96 4.667-24.13 14-33.5 7.537-7.57 16.257-12.08 26.16-13.54 2.359-.35 4.786-.53 7.28-.53 2.418 0 4.773.17 7.066.5 9.938 1.41 18.704 5.87 26.296 13.37.046.05.092.09.138.14.101.1.202.2.302.3 9.172 9.27 13.758 20.22 13.758 32.84v.03.03c0 12.8-4.601 23.8-13.779 32.99-7.674 7.7-16.633 12.177-26.867 13.437-2.009.249-4.067.373-6.174.373-1.135 0-2.256-.034-3.363-.101-11.716-.697-21.897-5.089-30.577-13.299-9.499-8.99-14.24-20-14.24-32.99 0-.01 0-.02 0-.03 0 0 0-.01 0-.02zm169 0c0-12.96 4.593-24.13 13.78-33.5 7.435-7.59 16.073-12.11 25.913-13.55 2.31-.35 4.686-.52 7.127-.52 2.489 0 4.912.17 7.27.51 10.024 1.43 18.868 5.88 26.53 13.36.046.05.093.09.14.14.104.1.208.2.311.31 9.286 9.26 13.929 20.21 13.929 32.83v.03.03c0 12.8-4.66 23.8-13.999 32.99-7.892 7.79-17.067 12.272-27.539 13.476-1.924.223-3.891.334-5.902.334-1.155 0-2.296-.036-3.423-.107-11.512-.718-21.532-5.103-30.077-13.293-9.38-8.99-14.06-20-14.06-32.99 0-.01 0-.02 0-.03 0 0 0-.01 0-.02zm-120.82-122.56c-1.899 0-3.76-.1-5.583-.29-10.787-1.09-20.23-5.44-28.357-13.32-9.499-9.2-14.24-20.19-14.24-33.2 0 0 0 0 0-.01 0-13.13 4.667-24.45 14-33.94 8.272-8.41 17.969-13.1 29.091-14.06 1.426-.12 2.876-.18 4.349-.18.967 0 1.923.02 2.87.08 11.382.62 21.322 5 29.819 13.13.272.25.542.52.811.78.593.59 1.167 1.19 1.723 1.8 8.224 8.96 12.337 19.51 12.337 31.65v.08.08c0 12.8-4.601 24-13.779 33.4-7.13 7.3-15.37 11.7-24.711 13.3-2.685.47-5.462.7-8.33.7zm0-169c-1.079 0-2.145-.03-3.2-.09-11.784-.67-22.02-5.05-30.74-13.31-9.499-9.01-14.24-20.2-14.24-33.4 0-.01 0-.01 0-.01v-.01c0-13.22 4.667-24.39 14-33.5 8.146-7.96 17.674-12.45 28.583-13.46 1.59-.15 3.209-.22 4.857-.22 1.09 0 2.168.03 3.232.1 11.594.69 21.683 5.16 30.268 13.4 9.027 8.67 13.708 19.29 14.041 31.87.013.47.019.95.019 1.43v.01.01c0 .68-.012 1.35-.036 2.02-.448 12.47-5.036 22.83-13.743 31.56-8.562 8.58-18.726 12.98-30.474 13.54-.847.04-1.703.06-2.567.06zm676.38 0c-1.079 0-2.145-.03-3.199-.09-11.606-.68-21.702-5.06-30.301-13.31-9.381-9.01-14.061-20.2-14.061-33.4 0-1.01.027-2 .081-2.99.653-11.93 5.293-22.11 13.92-30.53 8.118-7.93 17.533-12.42 28.243-13.45 1.603-.15 3.235-.23 4.896-.23 1.063 0 2.114.03 3.153.09 11.428.69 21.378 5.16 29.848 13.41 8.917 8.69 13.532 19.34 13.843 31.94.011.45.017.9.017 1.36v.01.01c0 .63-.01 1.26-.031 1.88-.41 12.54-4.9 22.94-13.468 31.7-8.399 8.58-18.519 12.99-30.366 13.54-.849.04-1.708.06-2.575.06zm-33.5-183c-.043-.04-.085-.09-.127-.13-9.296-9.16-13.934-20.34-13.934-33.27 0-.57.009-1.13.026-1.69.381-12.26 5.04-22.88 13.975-31.85 9.333-9.37 20.38-14.06 33.14-14.06s23.76 4.59 33 13.78c8.24 8.19 12.805 17.83 13.698 28.93.108 1.35.162 2.71.162 4.1v.01c0 .88-.02 1.75-.061 2.61-.562 12.08-5.042 22.6-13.438 31.37-7.452 7.95-16.259 12.46-26.425 13.78-2.113.28-4.285.42-6.516.42-3.361 0-6.601-.31-9.72-.94-8.778-1.75-16.601-5.97-23.475-12.76-.102-.1-.204-.2-.305-.3zm-169.82-168.78c-.366-.35-.725-.71-1.077-1.07-8.782-8.79-13.163-19.45-13.163-31.94 0-.01 0-.01 0-.02v-.01c0-13.13 4.667-24.45 14-33.94s20.48-14.24 33.44-14.24 24.127 4.67 33.5 14 14.06 20.48 14.06 33.44v.08.08c0 12.8-4.58 24-13.761 33.4-9.198 9.4-20.218 14.01-33.059 14.01-5.487 0-10.653-.81-15.501-2.41-6.764-2.24-12.91-6.03-18.439-11.38zm169.82 0c-.361-.35-.716-.71-1.063-1.07-8.672-8.79-12.998-19.45-12.998-31.94 0-.47.006-.93.018-1.39.314-12.56 4.975-23.42 13.983-32.58 9.273-9.43 20.238-14.18 32.894-14.24h.245.001c12.76 0 23.76 4.67 33 14s13.86 20.48 13.86 33.44v.08.08c0 12.8-4.501 24-13.499 33.4-9.001 9.4-19.98 14.01-32.942 14.01-5.096 0-9.914-.72-14.454-2.14-7.009-2.19-13.357-6.07-19.045-11.65zm-522.06 473.96c0-13.22 4.593-24.39 13.78-33.5 7.934-7.88 17.237-12.36 27.909-13.43 1.677-.17 3.387-.25 5.131-.25 1.188 0 2.362.04 3.52.11 11.645.74 21.786 5.2 30.42 13.39 9.493 9 14.24 20.11 14.24 33.32v.09.1c0 13.19-4.66 24.38-13.999 33.38-7.842 7.74-16.949 12.07-27.338 13.26-1.987.23-4.022.35-6.103.35-2.574 0-5.077-.18-7.51-.53-9.812-1.41-18.472-5.65-25.99-12.88-9.38-8.99-14.06-20.19-14.06-33.4 0 0 0 0 0-.01zm183.562 202.22c-1.096-1.05-2.127-2.13-3.095-3.23-7.302-8.33-10.967-18.09-10.967-29.56 0-13.01 4.6-24.21 13.781-33.61 9.18-9.4 20.2-14.01 33.039-14.01 13.14 0 24.46 4.61 33.94 14.01 9.5 9.4 14.239 20.39 14.239 33.2 0 6.3-1.164 12.19-3.494 17.69-2.332 5.5-5.833 10.61-10.506 15.31-1.689 1.66-3.438 3.18-5.247 4.55-6.107 4.61-12.899 7.492-20.367 8.656-2.531.396-5.139.594-7.825.594-12.96 0-24.119-4.41-33.498-13.6zm-.629-743.25c9.226-9.45 20.293-14.1 33.178-14.15h.209.003c13.279 0 24.719 4.65 34.3 14.15 8.521 8.45 13.253 18.18 14.195 29.33.122 1.41.183 2.85.183 4.32 0 12.81-4.721 23.8-14.142 33.4-9.419 9.2-20.7 13.81-33.779 13.81-13.1 0-24.38-4.41-33.861-13.61-9.459-9.19-14.219-20-14.219-33.19 0-1.31.046-2.6.137-3.87.813-11.55 5.417-21.61 13.796-30.19z"/></svg>