<svg height="48" viewBox="0 -960 960 960" width="48" xmlns="http://www.w3.org/2000/svg"><path fill="rgb(255, 255, 255)" d="m452-177q-18 0-29.5-12t-11.5-30q0-18 11.5-29.5t29.5-11.5h363q18 0 30 11.5t12 29.5q0 18-12 30t-30 12zm182-183q-15 0-25.5-10.5t-10.5-25.5v-228l-43 43q-11 11-25 11t-25-11q-11-11-11-25t11-25l95-95q14-14 34-14t34 14l95 95q11 11 11 25t-11 25q-11 11-25 11.5t-25-10.5l-44-44v229q0 15-10 25t-25 10zm-491 0q-15 0-23.5-12t-3.5-25l115-297q2-7 8.5-12.5t15.5-5.5h20q9 0 15.5 5t9.5 12l115 296q5 14-4 26.5t-24 12.5q-10 0-18-6t-11-15l-25-70h-138l-27 71q-3 9-10 14.5t-15 5.5zm65-136h114l-55-156h-4z"/></svg>