<svg height="48" viewBox="0 -960 960 960" width="48" xmlns="http://www.w3.org/2000/svg"><path fill="rgb(255, 255, 255)" d="m478.423-386.02c-.028.03-.056.06-.086.09-.028.02-.056.05-.084.08-26.236 26.24-57.707 39.39-94.24 39.59-25.195.01-47.776-6-68.037-18.37-9.113-5.48-18.027-12.56-26.039-20.57l-.297-.3c-14.509-14.51-25.015-30.67-31.474-48.45l-28.883-.01c-8.428 17.18-20.778 30.99-37.064 41.54-3.826 2.49-7.773 4.68-11.827 6.6-14.248 7.13-29.938 10.76-47.059 10.76-29.362 0-54.219-10.12-74.602-30.35-20.368-20.25-30.568-45.15-30.571-74.49.004-29.55 10.2-54.45 30.568-74.69 20.38-20.45 45.239-30.78 74.609-30.77 16.053 0 30.861 3.08 44.392 9.4 5 2.16 9.829 4.74 14.488 7.76 16.356 10.6 28.741 24.65 37.165 41.95h29.011c6.477-17.67 16.928-33.77 31.394-48.23 26.264-26.27 57.764-39.45 94.474-39.54 36.695-.06 68.217 13.06 94.387 39.23.141.14.141.14.283.29 0 0 0 0 .155.15 10.869 10.87 19.517 22.81 25.711 35.5 2.039 4.11 3.838 8.31 5.411 12.6h216.459c8.425-17.3 20.808-31.35 37.164-41.94 11.987-7.77 25.101-12.67 39.346-14.77 7.506-1.6 15.341-2.4 23.503-2.4 29.372 0 54.226 10.32 74.589 30.77 20.387 20.24 30.563 45.14 30.567 74.7-.005 29.33-10.185 54.23-30.565 74.49-20.367 20.22-45.222 30.34-74.587 30.34-8.103 0-15.887-.81-23.342-2.42-14.305-2.13-27.478-7.13-39.515-14.93-16.283-10.56-28.633-24.36-37.059-41.54l-216.925-.01c-6.539 17.54-17.007 33.53-31.42 47.94zm-94.199-39.7c15.096.08 28.637-6.04 38.463-15.86 5.28-5.28 9.525-11.54 12.29-18.59 2.431-6.15 3.579-13.04 3.661-19.96.082-1.78-.07-3.65-.239-5.45-2.901-27.48-25.97-48.74-54.038-48.69-12.097-.22-23.054 3.58-31.883 10.12-12.288 8.85-20.715 22.71-22.286 38.59-.153 1.91-.32 3.74-.244 5.7-.063.94.03 1.95.003 2.84 1.656 28.7 25.3 51.37 54.273 51.3z" stroke-width=".003"/></svg>