<svg viewBox="0 0 22 22" xmlns="http://www.w3.org/2000/svg"><path fill="rgb(255, 255, 255)" d="m7.5 3v4c0 .276-.224.5-.5.5h-4c-.276 0-.5-.224-.5-.5v-4c0-.276.224-.5.5-.5h4c.276 0 .5.224.5.5zm0 12v4c0 .276-.224.5-.5.5h-4c-.276 0-.5-.224-.5-.5v-4c0-.276.224-.5.5-.5h4c.276 0 .5.224.5.5zm0-6v4c0 .276-.224.5-.5.5h-4c-.276 0-.5-.224-.5-.5v-4c0-.276.224-.5.5-.5h4c.276 0 .5.224.5.5zm12-6v4c0 .276-.224.5-.5.5h-4c-.276 0-.5-.224-.5-.5v-4c0-.276.224-.5.5-.5h4c.276 0 .5.224.5.5zm-6 0v4c0 .276-.224.5-.5.5h-4c-.276 0-.5-.224-.5-.5v-4c0-.276.224-.5.5-.5h4c.276 0 .5.224.5.5zm4 6v4.5c-.022 1.071-.473 2.135-1.169 2.831s-1.76 1.169-2.831 1.169c-1.097 0-1.407-.218-2-.566v.066c0 .276-.224.5-.5.5h-1c-.276 0-.5-.224-.5-.5v-3c0-.276.224-.5.5-.5h3c.276 0 .5.224.5.5v1c0 .223-.146.411-.347.476.11.016.226.024.347.024.591 0 1.027-.196 1.416-.584.388-.389.606-.825.584-1.416v-4.5c0-.276.224-.5.5-.5h1c.276 0 .5.224.5.5zm-13.5-3h2v-2h-2zm12 0h2v-2h-2zm-12 6h2v-2h-2z"/></svg>