<svg height="48" viewBox="0 -960 960 960" width="48" xmlns="http://www.w3.org/2000/svg"><path fill="rgb(255, 255, 255)" d="m446.5-616.24c-9-9.493-13.5-20.807-13.5-33.94 0-12.847 4.56-23.86 13.68-33.04 9.113-9.187 20.28-13.78 33.5-13.78 13.213 0 24.32 4.687 33.32 14.06s13.5 20.54 13.5 33.5-4.56 24.107-13.68 33.44c-9.113 9.333-20.28 14-33.5 14-13.213 0-24.32-4.747-33.32-14.24zm-135.68 183.24c-12.847 0-23.863-4.56-33.05-13.68-9.18-9.113-13.77-20.28-13.77-33.5 0-13.213 4.687-24.32 14.06-33.32s20.54-13.5 33.5-13.5 24.107 4.56 33.44 13.68c9.333 9.113 14 20.28 14 33.5 0 13.213-4.747 24.32-14.24 33.32s-20.807 13.5-33.94 13.5zm135.68-13.68c-9-9.113-13.5-20.28-13.5-33.5 0-13.213 4.56-24.32 13.68-33.32 9.113-9 20.28-13.5 33.5-13.5 13.213 0 24.32 4.56 33.32 13.68 9 9.113 13.5 20.28 13.5 33.5 0 13.213-4.56 24.32-13.68 33.32-9.113 9-20.28 13.5-33.5 13.5-13.213 0-24.32-4.56-33.32-13.68zm202.94 13.68c-12.96 0-24.107-4.56-33.44-13.68-9.333-9.113-14-20.28-14-33.5 0-13.213 4.747-24.32 14.24-33.32s20.807-13.5 33.94-13.5c12.847 0 23.86 4.56 33.04 13.68 9.187 9.113 13.78 20.28 13.78 33.5 0 13.213-4.687 24.32-14.06 33.32s-20.54 13.5-33.5 13.5zm-508-169c-12.96 0-23.94-4.747-32.94-14.24s-13.5-20.807-13.5-33.94c0-12.847 4.62-23.86 13.86-33.04 9.24-9.187 20.24-13.78 33-13.78s23.807 4.687 33.14 14.06 14 20.54 14 33.5-4.687 24.107-14.06 33.44-20.54 14-33.5 14zm676.38 0c-12.847 0-23.86-4.747-33.04-14.24-9.187-9.493-13.78-20.807-13.78-33.94 0-12.847 4.687-23.86 14.06-33.04 9.373-9.187 20.54-13.78 33.5-13.78s24.107 4.687 33.44 14.06 14 20.54 14 33.5-4.747 24.107-14.24 33.44-20.807 14-33.94 14zm-709.32 155.32c-9-9.113-13.5-20.28-13.5-33.5 0-13.213 4.62-24.32 13.86-33.32s20.24-13.5 33-13.5 23.807 4.56 33.14 13.68c9.333 9.113 14 20.28 14 33.5 0 13.213-4.687 24.32-14.06 33.32s-20.54 13.5-33.5 13.5-23.94-4.56-32.94-13.68zm676.28 0c-9.187-9.113-13.78-20.28-13.78-33.5 0-13.213 4.687-24.32 14.06-33.32s20.54-13.5 33.5-13.5 24.107 4.56 33.44 13.68c9.333 9.113 14 20.28 14 33.5 0 13.213-4.747 24.32-14.24 33.32s-20.807 13.5-33.94 13.5c-12.847 0-23.86-4.56-33.04-13.68zm-643.34 182.68c-.788 0-1.569-.017-2.342-.052-12.135-.53-22.455-5.121-30.978-13.748-9.08-9-13.62-20.2-13.62-33.4 0-13 4.54-24.4 13.62-33.81 9.08-9.4 20.199-13.99 33.379-13.99h675.987c.176 0 .352.001.528.003.182-.002.364-.003.546-.003 12.96 0 24.107 4.747 33.44 14.24s14 20.807 14 33.94c0 12.847-4.747 23.863-14.24 33.05-9.493 9.18-20.807 13.77-33.94 13.77-.055 0-.11 0-.165 0-.056 0-.113 0-.169 0h-675.987c-.01 0-.02 0-.03 0-.009 0-.019 0-.029 0zm710.56 89.06c9.333 9.373 14 20.54 14 33.5s-4.747 23.94-14.24 32.94c-.577.547-1.16 1.077-1.75 1.59-9.171 8.207-20.02 12.411-32.512 12.411h-676.001c-13.18 0-24.298-4.611-33.382-13.811-9.081-8.99-13.615-20.19-13.615-33.39 0-13 4.534-24.4 13.615-33.8 9.084-9.4 20.202-14 33.382-14h676.001c7.772 0 14.907 1.694 21.399 5.04 4.705 2.3 9.073 5.473 13.103 9.52zm-710-596.06c-13.167 0-24.29-4.56-33.37-13.68-9.087-9.113-13.63-20.25-13.63-33.41 0-13.153 4.543-24.427 13.63-33.82 9.08-9.393 20.203-14.09 33.37-14.09h676c13.087 0 24.357 4.753 33.81 14.26 9.46 9.513 14.19 20.847 14.19 34 0 13.16-4.73 24.24-14.19 33.24-9.453 9-20.723 13.5-33.81 13.5z"/></svg>