<svg height="48" viewBox="0 -960 960 960" width="48" xmlns="http://www.w3.org/2000/svg"><path fill="rgb(255, 255, 255)" d="m446.5-616.24c-9-9.493-13.5-20.807-13.5-33.94 0-12.847 4.56-23.86 13.68-33.04 9.113-9.187 20.28-13.78 33.5-13.78 13.213 0 24.32 4.687 33.32 14.06s13.5 20.54 13.5 33.5-4.56 24.107-13.68 33.44c-9.113 9.333-20.28 14-33.5 14-13.213 0-24.32-4.747-33.32-14.24zm-135.68 183.24c-12.847 0-23.863-4.56-33.05-13.68-9.18-9.113-13.77-20.28-13.77-33.5 0-13.213 4.687-24.32 14.06-33.32s20.54-13.5 33.5-13.5 24.107 4.56 33.44 13.68c9.333 9.113 14 20.28 14 33.5 0 13.213-4.747 24.32-14.24 33.32s-20.807 13.5-33.94 13.5zm135.68-13.68c-9-9.113-13.5-20.28-13.5-33.5 0-13.213 4.56-24.32 13.68-33.32 9.113-9 20.28-13.5 33.5-13.5 13.213 0 24.32 4.56 33.32 13.68 9 9.113 13.5 20.28 13.5 33.5 0 13.213-4.56 24.32-13.68 33.32-9.113 9-20.28 13.5-33.5 13.5-13.213 0-24.32-4.56-33.32-13.68zm202.94 13.68c-12.96 0-24.107-4.56-33.44-13.68-9.333-9.113-14-20.28-14-33.5 0-13.213 4.747-24.32 14.24-33.32s20.807-13.5 33.94-13.5c12.847 0 23.86 4.56 33.04 13.68 9.187 9.113 13.78 20.28 13.78 33.5 0 13.213-4.687 24.32-14.06 33.32s-20.54 13.5-33.5 13.5zm-508-169c-12.96 0-23.94-4.747-32.94-14.24s-13.5-20.807-13.5-33.94c0-12.847 4.62-23.86 13.86-33.04 9.24-9.187 20.24-13.78 33-13.78s23.807 4.687 33.14 14.06 14 20.54 14 33.5-4.687 24.107-14.06 33.44-20.54 14-33.5 14zm676.38 0c-12.847 0-23.86-4.747-33.04-14.24-9.187-9.493-13.78-20.807-13.78-33.94 0-12.847 4.687-23.86 14.06-33.04 9.373-9.187 20.54-13.78 33.5-13.78s24.107 4.687 33.44 14.06 14 20.54 14 33.5-4.747 24.107-14.24 33.44-20.807 14-33.94 14zm-709.32 155.32c-9-9.113-13.5-20.28-13.5-33.5 0-13.213 4.62-24.32 13.86-33.32s20.24-13.5 33-13.5 23.807 4.56 33.14 13.68c9.333 9.113 14 20.28 14 33.5 0 13.213-4.687 24.32-14.06 33.32s-20.54 13.5-33.5 13.5-23.94-4.56-32.94-13.68zm676.28 0c-9.187-9.113-13.78-20.28-13.78-33.5 0-13.213 4.687-24.32 14.06-33.32s20.54-13.5 33.5-13.5 24.107 4.56 33.44 13.68c9.333 9.113 14 20.28 14 33.5 0 13.213-4.747 24.32-14.24 33.32s-20.807 13.5-33.94 13.5c-12.847 0-23.86-4.56-33.04-13.68zm-643.281 87.68h675.987c.176 0 .352.001.528.003.182-.002.364-.003.546-.003 12.96 0 24.107 4.747 33.44 14.24s14 20.807 14 33.94c0 1.709-.084 3.386-.252 5.03v159.231c.168 1.674.252 3.38.252 5.119 0 6.839-1.322 13.128-3.966 18.864-2.364 5.417-5.855 10.312-10.477 14.716-9.465 9.009-20.753 13.61-33.84 13.61h-676.436c-13.168 0-24.296-4.601-33.382-13.82-8.404-8.38-12.927-18.59-13.567-30.61h-.081v-176.92h.14c.8-11.59 5.302-21.42 13.489-29.61 2.849-2.811 5.901-5.173 9.156-7.089 7.167-4.492 15.319-6.701 24.463-6.701zm.501-412c-13.167 0-24.29-4.56-33.37-13.68-9.087-9.113-13.63-20.25-13.63-33.41 0-13.153 4.543-24.427 13.63-33.82 9.08-9.393 20.203-14.09 33.37-14.09h676c13.087 0 24.357 4.753 33.81 14.26 9.46 9.513 14.19 20.847 14.19 34 0 13.16-4.73 24.24-14.19 33.24-9.453 9-20.723 13.5-33.81 13.5z"/></svg>