<svg height="48" viewBox="0 -960 960 960" width="48" xmlns="http://www.w3.org/2000/svg"><path fill="rgb(255, 255, 255)" d="m446.5-616.24c-9-9.493-13.5-20.807-13.5-33.94 0-12.847 4.56-23.86 13.68-33.04 9.113-9.187 20.28-13.78 33.5-13.78 13.213 0 24.32 4.687 33.32 14.06s13.5 20.54 13.5 33.5-4.56 24.107-13.68 33.44c-9.113 9.333-20.28 14-33.5 14-13.213 0-24.32-4.747-33.32-14.24zm-304.5 521.24c-13.167 0-24.29-4.56-33.37-13.68-9.087-9.113-13.63-20.28-13.63-33.5 0-13.213 4.543-24.32 13.63-33.32 9.08-9 20.203-13.5 33.37-13.5h676c13.087 0 24.357 4.56 33.81 13.68 9.46 9.113 14.19 20.28 14.19 33.5 0 13.213-4.73 24.32-14.19 33.32-9.453 9-20.723 13.5-33.81 13.5zm642.78-351.68c-9.187-9.113-13.78-20.28-13.78-33.5 0-13.213 4.687-24.32 14.06-33.32s20.54-13.5 33.5-13.5 24.107 4.56 33.44 13.68c9.333 9.113 14 20.28 14 33.5 0 13.213-4.747 24.32-14.24 33.32s-20.807 13.5-33.94 13.5c-12.847 0-23.86-4.56-33.04-13.68zm-676.28 0c-9-9.113-13.5-20.28-13.5-33.5 0-13.213 4.62-24.32 13.86-33.32s20.24-13.5 33-13.5 23.807 4.56 33.14 13.68c9.333 9.113 14 20.28 14 33.5 0 13.213-4.687 24.32-14.06 33.32s-20.54 13.5-33.5 13.5-23.94-4.56-32.94-13.68zm709.32-155.32c-12.847 0-23.86-4.747-33.04-14.24-9.187-9.493-13.78-20.807-13.78-33.94 0-12.847 4.687-23.86 14.06-33.04 9.373-9.187 20.54-13.78 33.5-13.78s24.107 4.687 33.44 14.06 14 20.54 14 33.5-4.747 24.107-14.24 33.44-20.807 14-33.94 14zm-676.38 0c-12.96 0-23.94-4.747-32.94-14.24s-13.5-20.807-13.5-33.94c0-12.847 4.62-23.86 13.86-33.04 9.24-9.187 20.24-13.78 33-13.78s23.807 4.687 33.14 14.06 14 20.54 14 33.5-4.687 24.107-14.06 33.44-20.54 14-33.5 14zm676.38-169c-12.847 0-23.86-4.687-33.04-14.06-9.187-9.373-13.78-20.54-13.78-33.5s4.687-24.107 14.06-33.44 20.54-14 33.5-14 24.107 4.747 33.44 14.24 14 20.807 14 33.94c0 12.847-4.747 23.86-14.24 33.04-9.493 9.187-20.807 13.78-33.94 13.78zm-168.38 0c-12.96 0-24.107-4.687-33.44-14.06s-14-20.54-14-33.5 4.747-24.107 14.24-33.44 20.807-14 33.94-14c12.847 0 23.86 4.747 33.04 14.24 9.187 9.493 13.78 20.807 13.78 33.94 0 12.847-4.687 23.86-14.06 33.04-9.373 9.187-20.54 13.78-33.5 13.78zm-169.62 0c-13.213 0-24.32-4.687-33.32-14.06s-13.5-20.54-13.5-33.5 4.56-24.107 13.68-33.44c9.113-9.333 20.28-14 33.5-14 13.213 0 24.32 4.747 33.32 14.24s13.5 20.807 13.5 33.94c0 12.847-4.56 23.86-13.68 33.04-9.113 9.187-20.28 13.78-33.5 13.78zm-169 0c-12.847 0-23.863-4.687-33.05-14.06-9.18-9.373-13.77-20.54-13.77-33.5s4.687-24.107 14.06-33.44 20.54-14 33.5-14 24.107 4.747 33.44 14.24 14 20.807 14 33.94c0 12.847-4.747 23.86-14.24 33.04-9.493 9.187-20.807 13.78-33.94 13.78zm-169.38 0c-12.96 0-23.94-4.687-32.94-14.06s-13.5-20.54-13.5-33.5 4.62-24.107 13.86-33.44 20.24-14 33-14 23.807 4.747 33.14 14.24 14 20.807 14 33.94c0 12.847-4.687 23.86-14.06 33.04-9.373 9.187-20.54 13.78-33.5 13.78zm508 338c-12.96 0-24.107-4.56-33.44-13.68-9.333-9.113-14-20.28-14-33.5 0-13.213 4.747-24.32 14.24-33.32s20.807-13.5 33.94-13.5c12.847 0 23.86 4.56 33.04 13.68 9.187 9.113 13.78 20.28 13.78 33.5 0 13.213-4.687 24.32-14.06 33.32s-20.54 13.5-33.5 13.5zm-202.94-13.68c-9-9.113-13.5-20.28-13.5-33.5 0-13.213 4.56-24.32 13.68-33.32 9.113-9 20.28-13.5 33.5-13.5 13.213 0 24.32 4.56 33.32 13.68 9 9.113 13.5 20.28 13.5 33.5 0 13.213-4.56 24.32-13.68 33.32-9.113 9-20.28 13.5-33.5 13.5-13.213 0-24.32-4.56-33.32-13.68zm-135.68 13.68c-12.847 0-23.863-4.56-33.05-13.68-9.18-9.113-13.77-20.28-13.77-33.5 0-13.213 4.687-24.32 14.06-33.32s20.54-13.5 33.5-13.5 24.107 4.56 33.44 13.68c9.333 9.113 14 20.28 14 33.5 0 13.213-4.747 24.32-14.24 33.32s-20.807 13.5-33.94 13.5zm-172.421 169c-13.301 0-24.538-4.64-33.716-13.75-9.178-9.29-13.784-20.61-13.784-33.94 0-13.35 4.606-24.47 13.784-33.56 9.178-9.11 20.415-13.75 33.716-13.75h683.189c13.241 0 24.621 4.64 34.182 13.96 9.56 9.08 14.331 20.4 14.331 33.73 0 13.35-4.771 24.67-14.331 33.78-9.561 9.09-20.941 13.53-34.182 13.53z"/></svg>