<svg height="48" viewBox="0 -960 960 960" width="48" xmlns="http://www.w3.org/2000/svg"><path fill="rgb(255, 255, 255)" d="m729.436-496.64v-120.36c0-2.16.075-4.31.223-6.45l-161.659-187.55h-339v662h162.221c15.667 0 27.083 4.81 34.25 14.44s11.083 20.43 11.75 32.38c0 12.12-3.75 23.013-11.25 32.68s-19.083 14.5-34.75 14.5h-162.221c-26.033 0-48.207-9.157-66.52-27.47-18.32-18.32-27.48-40.5-27.48-66.53v-662c0-26.31 9.16-48.72 27.48-67.23 18.313-18.51 40.487-27.77 66.52-27.77h331c13.747 0 26.77 2.97 39.07 8.9 12.293 5.93 22.937 13.96 31.93 24.1l171 195c8.033 8.34 14.043 17.78 18.03 28.33 3.98 10.55 5.97 21.44 5.97 32.67v120.36c0 20.31-9.43 34.65-28.291 43.03-6.325 3.47-13.039 5.09-20.14 4.88-6.755.15-13.159-1.38-19.209-4.57-19.276-8.42-28.924-22.74-28.924-43.34zm-180.932 358.27h-52.184c-8.112-.27-16.298-3.67-22.123-9.17-5.45-5.79-9.065-14.01-9.065-22.12 0-8.12 3.641-16.36 9.091-22.16 5.853-5.41 14.038-8.68 22.097-8.93h52.184v-69.37h-52.184c-8.112-.27-16.301-3.67-22.123-9.16-5.435-5.8-9.065-14.02-9.065-22.13 0-8.12 3.407-16.49 8.984-22.26 5.646-5.85 14.097-9.08 22.204-9.34h52.184v-51.67c.259-8.12 3.648-16.37 9.124-22.17 5.817-5.38 14.018-9.02 22.157-9.02 8.144 0 16.331 3.66 22.096 9.05 5.405 5.8 8.746 14.03 8.999 22.14v51.67h69.372v-51.67c.259-8.12 3.648-16.37 9.124-22.17 5.817-5.38 14.018-9.02 22.157-9.02 8.126 0 16.36 3.61 22.264 8.96 5.608 5.81 9.077 14.09 9.346 22.23v51.67h51.669c8.117.26 16.359 3.71 22.241 9.48 5.409 5.97 8.947 14.24 8.947 22.32 0 8.14-3.444 16.48-9.082 22.06-5.614 5.57-13.984 8.76-22.106 9.03h-51.669v69.37h51.669c8.122.27 16.361 3.7 22.159 9.08 5.427 5.88 9.029 14.11 9.029 22.21 0 8.12-3.64 16.27-9.082 22.06-5.797 5.38-13.984 8.76-22.106 9.03h-51.669v52.18c-.284 8.17-3.825 16.39-9.469 22.257-5.955 5.339-14.206 8.933-22.326 8.933-8.133 0-16.387-3.719-22.154-9.108-5.369-5.86-8.681-13.967-8.942-22.082v-52.18h-69.372v52.18c-.267 8.131-3.68 16.306-9.118 22.168-5.811 5.377-14.026 9.022-22.163 9.022-8.132 0-16.388-3.72-22.155-9.108-5.367-5.861-8.679-13.967-8.94-22.082zm62.376-62.38h69.372v-69.37h-69.372z" stroke-width=".05"/></svg>