<svg height="48" viewBox="0 -960 960 960" width="48" xmlns="http://www.w3.org/2000/svg"><path fill="rgb(255, 255, 255)" d="m138-30.169c-11.747 0-21.85-4.253-30.31-12.76-8.46-8.513-12.69-18.68-12.69-30.5 0-11.827 4.23-22.073 12.69-30.74s18.563-13 30.31-13h684c12.033 0 22.377 4.32 31.03 12.96 8.647 8.647 12.97 18.98 12.97 31 0 12.027-4.323 22.207-12.97 30.54-8.653 8.333-18.997 12.5-31.03 12.5zm0-171c-11.747 0-21.85-4.253-30.31-12.76-8.46-8.513-12.69-18.68-12.69-30.5 0-11.827 4.23-22.073 12.69-30.74s18.563-13 30.31-13h444c12.033 0 22.377 4.32 31.03 12.96 8.647 8.647 12.97 18.98 12.97 31 0 12.027-4.323 22.207-12.97 30.54-8.653 8.333-18.997 12.5-31.03 12.5zm0-235.831c-11.747 0-21.85-4.253-30.31-12.76-8.46-8.513-12.69-18.68-12.69-30.5 0-11.827 4.23-22.073 12.69-30.74s18.563-13 30.31-13h684c12.033 0 22.377 4.32 31.03 12.96 8.647 8.647 12.97 18.98 12.97 31 0 12.027-4.323 22.207-12.97 30.54-8.653 8.333-18.997 12.5-31.03 12.5zm0-230.337c-11.747 0-21.85-4.254-30.31-12.76-8.46-8.514-12.69-18.68-12.69-30.5 0-11.827 4.23-22.074 12.69-30.74 8.46-8.667 18.563-13 30.31-13h444c12.033 0 22.377 4.32 31.03 12.96 8.647 8.646 12.97 18.98 12.97 31 0 12.026-4.323 22.206-12.97 30.54-8.653 8.333-18.997 12.5-31.03 12.5zm0-171c-11.747 0-21.85-4.254-30.31-12.76-8.46-8.514-12.69-18.68-12.69-30.5 0-11.827 4.23-22.074 12.69-30.74 8.46-8.667 18.563-13 30.31-13h684c12.033 0 22.377 4.32 31.03 12.96 8.647 8.646 12.97 18.98 12.97 31 0 12.026-4.323 22.206-12.97 30.54-8.653 8.333-18.997 12.5-31.03 12.5z"/></svg>