<svg height="48" viewBox="0 -960 960 960" width="48" xmlns="http://www.w3.org/2000/svg"><path fill="rgb(255, 255, 255)" d="m169.068-474.29v213.21c0 10.7-3.711 19.76-11.132 27.14-7.416 7.4-16.502 11.1-27.26 11.1-10.753 0-19.791-3.7-27.114-11.1-7.324-7.38-10.986-16.44-10.986-27.14v-517.55c0-10.72 3.698-19.9 11.092-27.57 7.388-7.67 16.44-11.5 27.155-11.5h247.376c8.952 0 17.022 3.13 24.209 9.36 7.188 6.25 11.596 13.71 13.223 22.38l8.952 38.25h158.678c10.715 0 19.904 3.83 27.57 11.49 7.66 7.67 11.491 16.85 11.491 27.58v265.27c0 10.72-3.831 19.76-11.491 27.16-7.666 7.39-16.855 11.08-27.57 11.08h-176.581c-8.952 0-17.02-2.83-24.209-8.54-7.188-5.7-11.596-12.88-13.223-21.56l-8.951-39.06zm271.789-7.33h104.159v-188.78h-154.611c-8.951 0-17.021-2.98-24.208-8.96-7.188-5.96-11.596-13.28-13.223-21.97l-8.952-39.05h-174.954v189.61h225.406c8.951 0 17.021 2.82 24.209 8.52 7.187 5.71 11.595 12.89 13.224 21.57zm288.071-10.52-14.679 54.78c-2.152 8.04-6.798 13.99-13.725 17.98-6.944 3.94-14.282 4.89-22.4 2.71-8.128-2.16-14.008-6.66-18.036-13.56-3.816-6.84-4.662-14.28-2.51-22.31l27.84-103.91c3.33-12.43 10.302-21.81 21.287-28.08 10.806-6.3 22.537-7.75 34.982-4.42l103.913 27.84c7.944 2.13 14.004 6.7 18.021 13.62 3.822 6.88 4.849 14.42 2.687 22.49-2.166 8.09-6.807 14.04-13.524 17.95-6.919 3.91-14.425 4.74-22.369 2.61l-52.895-14.17c27.765 32.43 45.779 67.96 53.857 106.56 8.275 38.67 8.027 74.31-.72 106.97-13.693 51.09-41.74 91.57-83.763 121.48-42.051 29.91-88.015 43.57-137.943 40.98-8.818-.34-15.747-3.95-20.964-10.91-5.229-6.97-6.658-14.46-4.506-22.47 2.151-8.03 7.05-14.25 14.52-18.72 7.67-4.41 15.977-6.72 24.754-6.97 35.035-.05 66.672-10.8 94.712-32.32 28.025-21.52 46.854-50.24 56.482-86.17 7.077-26.4 6.783-55.49-.909-87.25-7.684-31.75-22.392-59.97-44.112-84.71z"/></svg>