<svg height="48" viewBox="0 -960 960 960" width="48" xmlns="http://www.w3.org/2000/svg"><path fill="rgb(255, 255, 255)" d="m651.5-480-166-165c-9.33-9.33-13.83-20.33-13.5-33s4.83-23.67 13.5-33c9.33-9.33 20.33-14 33-14s23.67 4.67 33 14l198 197c4.67 4.67 8.33 10 11 16s4 12 4 18-1.33 12-4 18-6.33 11.33-11 16l-198 197c-9.33 9.33-20.33 14-33 14s-23.67-4.67-33-14-14-20.33-14-33 4.67-23.67 14-33zm-276 0-166-165c-9.33-9.33-13.83-20.33-13.5-33s5.17-23.67 14.5-33 20.33-14 33-14 23.67 4.67 33 14l197 197c4.67 4.67 8.33 10 11 16s4 12 4 18-1.33 12-4 18-6.33 11.33-11 16l-197 197c-9.33 9.33-20.33 14-33 14s-23.67-4.67-33-14c-10-9.33-15-20.33-15-33s5-24 15-34z"/></svg>