<svg height="48" viewBox="0 -960 960 960" width="48" xmlns="http://www.w3.org/2000/svg"><path fill="rgb(255, 255, 255)" d="m153.961-480 145.526 144.65c8.179 8.18 12.124 17.82 11.835 28.93-.29 11.1-4.533 20.75-12.712 28.93s-17.822 12.27-28.93 12.27c-11.107 0-20.75-4.09-28.93-12.27l-172.702-172.71c-4.094-4.09-7.302-8.76-9.643-14.02s-3.507-10.52-3.507-15.78 1.166-10.52 3.507-15.78 5.549-9.93 9.643-14.03l172.702-172.7c8.18-8.18 17.823-12.27 28.93-12.27 11.108 0 20.751 4.09 28.93 12.27 8.767 8.18 13.15 17.82 13.15 28.93s-4.383 21.04-13.15 29.81zm677.1-106.78h-214.33v214.33h214.33zm37.409-74.03c10.257 0 18.924 3.57 26.001 10.59 7.093 7.16 10.631 15.72 10.631 26.02v288.39c0 10.26-3.538 18.86-10.631 26.02-7.077 7.01-15.744 10.6-26.001 10.6h-288.375c-10.274 0-18.935-3.59-26.01-10.6-7.084-7.16-10.616-15.76-10.616-26.02v-107.57h-247.85c-10.266 0-18.936-3.57-26.011-10.59-7.083-7.18-10.625-15.9-10.625-26.2 0-10.29 3.542-19 10.625-26.03 7.075-7.02 15.745-10.45 26.011-10.45h247.85v-107.55c0-10.3 3.532-18.86 10.616-26.02 7.075-7.02 15.736-10.59 26.01-10.59z"/></svg>