<svg viewBox="0 0 22 22" xmlns="http://www.w3.org/2000/svg"><path fill="rgb(255, 255, 255)" d="m20.5 3v16c0 .277-.224.5-.5.5h-14c-.189 0-.362-.107-.447-.276l-4-8c-.07-.141-.07-.306 0-.447l4-8c.085-.17.258-.277.447-.277h14c.276 0 .5.224.5.5zm-8.564 4.592v-.592c0-.276-.224-.5-.5-.5-.59.007-1.144.131-1.476.401-.347.282-.531.817-.546 1.353v1.223c0 .27-.006.482-.063.641-.025.068-.01.047-.03.063-.002.001-.004.003-.004.004-.005-.002-.012-.004-.022-.007h-.295c-.276 0-.5.224-.5.5v.645c0 .276.224.5.5.5h.295c.01-.003.017-.005.022-.007 0 .001.002.003.004.004.02.016.005-.006.03.063.057.159.063.371.063.641v1.223c.015.536.199 1.071.546 1.353.332.27.886.394 1.476.4.276 0 .5-.223.5-.5v-.591c0-.276-.224-.5-.5-.5-.135.006-.182.017-.196.026-.034-.067-.033-.21-.033-.632v-1.008c-.002-.237-.044-.601-.179-.907-.133-.301.137-.182-.257-.381.113-.126.123-.085.256-.385.136-.305.178-.669.18-.907v-1.017c0-.422-.001-.565.033-.632.014.009.061.02.196.026.276 0 .5-.224.5-.5zm2.136 0c0 .276.224.5.5.5.129-.006.177-.017.192-.026.031.068.029.216.029.632v1.017c.002.238.044.602.18.907.133.3-.138.181.256.38-.112.127-.123.085-.256.386-.136.306-.178.67-.18.907v1.008c0 .414.003.564-.027.632-.015-.009-.064-.02-.194-.026-.276 0-.5.224-.5.5v.591c0 .277.224.5.5.5.59-.006 1.143-.131 1.474-.402.345-.282.526-.817.54-1.351v-1.223c0-.274.003-.49.057-.648.015-.043.013-.073.009-.089.008.009.021.021.043.036h.305c.276 0 .5-.224.5-.5v-.645c0-.276-.224-.5-.5-.5h-.305c-.022.015-.035.027-.043.036.004-.016.006-.046-.009-.089-.054-.158-.057-.374-.057-.648v-1.223c-.014-.534-.195-1.069-.54-1.352-.328-.268-.875-.393-1.46-.402-.005 0-.009 0-.014 0-.276 0-.5.224-.5.5z"/></svg>