<svg height="48" viewBox="0 -960 960 960" width="48" xmlns="http://www.w3.org/2000/svg"><path fill="rgb(255, 255, 255)" d="m778-866c13.167 0 24.46 4.5 33.88 13.5 9.413 9 14.12 20.11 14.12 33.32 0 13.22-4.707 24.39-14.12 33.5-9.42 9.12-20.713 13.68-33.88 13.68h-596c-13.167 0-24.29-4.5-33.37-13.5-9.087-9-13.63-20.11-13.63-33.32 0-13.22 4.543-24.39 13.63-33.5 9.08-9.12 20.203-13.68 33.37-13.68zm-472.733 463.9c-9.891 9.95-21.539 14.82-34.945 14.82-13.429 0-25.079-4.87-34.947-14.82-9.891-9.75-14.826-21.41-14.826-34.96 0-13.34 4.935-25 14.826-34.95l208.62-209.68c4.935-4.85 10.589-8.69 16.944-11.66 6.353-2.74 12.708-4.22 19.061-4.22 6.355 0 12.708 1.48 19.063 4.22 6.353 2.97 11.987 6.81 16.942 11.66l208.62 209.68c9.871 9.95 14.826 21.61 14.826 34.95 0 13.55-4.955 25.21-14.826 34.96-9.891 9.3-21.538 13.95-34.945 14.4-13.429.2-25.078-4.45-34.947-14.4l-174.733-175.8zm1.06 291.22c-10.59 10.58-22.599 15.88-36.005 15.88-13.429 0-25.079-5.3-34.947-15.88-9.891-9.75-14.826-21.39-14.826-34.97 0-13.35 4.935-24.99 14.826-34.96l208.62-208.6c4.935-4.87 10.589-8.69 16.944-11.64 6.353-2.76 12.708-4.24 19.061-4.24 6.355 0 12.708 1.48 19.063 4.24 6.353 2.95 11.987 6.77 16.942 11.64l208.62 208.6c9.871 9.97 14.826 21.61 14.826 34.96 0 13.58-4.955 25.22-14.826 34.97-9.891 9.95-21.538 15.03-34.945 15.45-13.429.43-25.078-4.46-34.947-14.4l-174.733-175.8z"/></svg>