<svg height="48" viewBox="0 -960 960 960" width="48" xmlns="http://www.w3.org/2000/svg"><path fill="rgb(255, 255, 255)" d="m479.483-632c6 0 12 1.33 18 4s11.333 6.33 16 11l197 197c7.799 7.8 12.223 16.88 13.272 27.24.207 2.03.283 4.12.228 6.26-.333 13-5.166 24.18-14.5 33.5-9.333 9.39-20.5 14-33.5 14s-24.166-4.61-33.5-14l-163-163.98-164 163.98c-9.333 9.39-20.333 13.89-33 13.5-12.666-.32-23.666-5.11-33-14.5-9.333-9.32-14-20.5-14-33.5s4.667-24.17 14-33.5l196-196c4.667-4.67 10-8.33 16-11s12-4 18-4z"/></svg>