<svg height="48" viewBox="0 -960 960 960" width="48" xmlns="http://www.w3.org/2000/svg"><path fill="rgb(255, 255, 255)" d="m480-639-165 166c-9.333 9.33-20.333 13.83-33 13.5s-23.667-4.83-33-13.5c-9.333-9.33-14-20.33-14-33s4.667-23.67 14-33l197-198c4.667-4.67 10-8.33 16-11s12-4 18-4 12 1.33 18 4 11.333 6.33 16 11l197 198c9.333 9.33 14 20.33 14 33s-4.667 23.67-14 33-20.333 14-33 14-23.667-4.67-33-14zm0 276-165 166c-9.333 9.33-20.333 13.83-33 13.5s-23.667-5.17-33-14.5-14-20.33-14-33 4.667-23.67 14-33l197-197c4.667-4.67 10-8.33 16-11s12-4 18-4 12 1.33 18 4 11.333 6.33 16 11l197 197c9.333 9.33 14 20.33 14 33s-4.667 23.67-14 33c-9.333 10-20.333 15-33 15s-24-5-34-15z"/></svg>