<svg height="16" width="16" xmlns="http://www.w3.org/2000/svg"><path fill="rgb(255, 255, 255)" d="m5 1.5h1c.276 0 .5.224.5.5v1.242l4.148-1.555c.259-.097.547.034.644.292l.352.938c.047.124.042.262-.013.383s-.155.215-.279.261l-4.852 1.82v.862l4.148-1.556c.259-.097.547.034.644.292l.352.938c.047.124.042.262-.013.383s-.155.215-.279.261l-4.852 1.82v4.101c1.06-.096 1.84-.458 2.682-1.3s1.34-1.903 1.318-3.182c0-.276.224-.5.5-.5h1c.276 0 .5.224.5.5-.022 1.759-.755 3.447-1.904 4.596s-2.837 1.882-4.596 1.904h-1c-.276 0-.5-.224-.5-.5v-4.87l-1.148.431c-.259.097-.547-.034-.644-.292l-.352-.938c-.047-.124-.042-.262.013-.383s.155-.215.279-.261l1.852-.695v-.862l-1.148.431c-.259.097-.547-.034-.644-.292l-.352-.938c-.047-.124-.042-.262.013-.383s.155-.215.279-.261l1.852-.695v-1.992c0-.276.224-.5.5-.5z"/></svg>