<svg height="16" width="16" xmlns="http://www.w3.org/2000/svg"><path fill="rgb(255, 255, 255)" d="m1 1.5h1c.276 0 .5.224.5.5v7.085l3.439-3.439c.094-.093.221-.146.354-.146h.707c.276 0 .5.224.5.5v.707c0 .133-.053.26-.146.354l-2.939 2.939 2.939 2.939c.093.094.146.221.146.354v.707c0 .276-.224.5-.5.5h-.707c-.133 0-.26-.053-.354-.146l-2.939-2.939-.5.5v2.085c0 .276-.224.5-.5.5h-1c-.276 0-.5-.224-.5-.5v-12c0-.276.224-.5.5-.5zm8 4h1c.276 0 .5.224.5.5v1.31c1.146-1.095 2.789-1.789 4.5-1.81.276 0 .5.224.5.5v1c0 .276-.224.5-.5.5-1.279-.022-2.34.476-3.182 1.318-.806.806-1.297 1.813-1.318 3.02v2.162c0 .276-.224.5-.5.5h-1c-.276 0-.5-.224-.5-.5v-8c0-.276.224-.5.5-.5z"/></svg>