<svg height="48" viewBox="0 -960 960 960" width="48" xmlns="http://www.w3.org/2000/svg"><path fill="rgb(255, 255, 255)" d="m189-95c-26.533 0-48.833-9.033-66.9-27.1s-27.1-40.367-27.1-66.9v-493c0-10.587 1.833-20.94 5.5-31.06s8.897-19.42 15.69-27.9l72.81-95.04c8.5-10.687 18.703-18.36 30.61-23.02 11.907-4.653 24.703-6.98 38.39-6.98h444c13 0 25.457 2.327 37.37 6.98 11.913 4.66 22.123 12.333 30.63 23.02l74.81 95.04c6.127 8.48 11.19 17.78 15.19 27.9s6 20.473 6 31.06v493c0 26.533-9.13 48.833-27.39 66.9-18.267 18.067-40.803 27.1-67.61 27.1zm0-544v450h582v-450zm34-87h513l-36.41-46h-440.59zm356.99 272.463c-7.068 14.165-18.063 29.208-31.753 43.207-8.421 8.148-14.895 15.313-19.88 22.35-4.981 6.756-8.141 12.454-10.343 19.16-3.023 9.461-8.346 18.305-14.393 24.3-6.651 5.676-16.075 9.82-24.874 9.82-9.416 0-19.353-4.151-26.363-10.213-6.575-6.843-10.523-17.349-10.344-26.879 1.758-15.034 5.962-29.14 11.919-40.363 6.12-10.857 17.845-24.892 34.386-41.081 9.375-9.887 15.842-18.06 20.332-25.479 4.316-6.805 5.795-12.146 5.795-18.305 0-10.037-1.765-15.508-7.898-20.193-5.711-5.705-12.375-7.527-23.339-7.527-8.479 0-15.064 1.235-21.462 4.244-6.299 2.488-11.582 7.023-16.928 13.899-6.604 6.94-15.406 12.466-24.12 15.082-9.098 2.315-19.251 1.695-27.434-1.233-9.123-3.942-17.215-11.677-21.425-20.336-3.475-9.516-2.653-20.819 2.253-29.327 12.259-18.815 28.695-34.121 47.439-44.181 18.824-9.927 40.416-15.378 62.47-15.378 31.379 0 58.393 9.881 77.608 27.448 18.669 18.157 29.305 43.92 29.305 73.382 0 16.375-3.967 32.951-10.951 47.603zm-129.594 217.989c-7.819-8.581-12.997-20.263-12.997-31.332 0-11.831 5.235-23.591 13.134-31.959 8.403-7.925 19.927-13.151 31.068-13.151 11.667 0 23.588 5.136 32.305 13.045 8.196 8.448 13.699 20.12 13.699 31.595 0 11.469-5.442 23.236-13.592 31.93-8.715 8.245-20.548 13.65-31.984 13.65-11.45 0-23.191-5.483-31.633-13.778z"/></svg>