<svg height="16" width="16" xmlns="http://www.w3.org/2000/svg"><path fill="rgb(255, 255, 255)" d="m9.5 6v.707c0 .133-.053.26-.146.354l-5.44 5.439h5.086c.276 0 .5.224.5.5v1c0 .276-.224.5-.5.5h-8c-.276 0-.5-.224-.5-.5v-.707c0-.133.053-.26.146-.354l5.44-5.439h-5.086c-.276 0-.5-.224-.5-.5v-1c0-.276.224-.5.5-.5h8c.276 0 .5.224.5.5zm2.5-4.5h1c.276 0 .5.224.5.5v4.705l.973-.584c.237-.142.544-.065.686.172l.54.9c.142.237.065.544-.172.686l-2.027 1.216v4.905c0 .276-.224.5-.5.5h-1c-.276 0-.5-.224-.5-.5v-3.705l-.973.584c-.237.142-.544.065-.686-.172l-.54-.9c-.142-.237-.065-.544.172-.686l2.027-1.216v-5.905c0-.276.224-.5.5-.5z"/></svg>