<svg viewBox="0 0 16 16" xmlns="http://www.w3.org/2000/svg"><path fill="rgb(255, 255, 255)" d="m11.5 3v1c0 .276-.224.5-.5.5h-2.5v2.047c.757.124 1.478.481 1.975.978.606.606 1.025 1.544 1.025 2.475s-.419 1.869-1.025 2.475c-.497.497-1.218.854-1.975.978v.547c0 .276-.224.5-.5.5h-1c-.276 0-.5-.224-.5-.5v-.5h-2.5c-.276 0-.5-.224-.5-.5v-1c0-.276.224-.5.5-.5h2.5v-3c-.793-.022-1.606-.363-2.121-.879-.516-.515-.879-1.328-.879-2.121s.363-1.606.879-2.121c.515-.516 1.328-.857 2.121-.879v-.5c0-.276.224-.5.5-.5h1c.276 0 .5.224.5.5v.5h2.5c.276 0 .5.224.5.5zm-5.707 1.793c-.209.208-.293.395-.293.707s.084.499.293.707c.208.209.395.315.707.293v-2c-.312-.022-.499.084-.707.293zm3.268 6.268c.299-.299.439-.611.439-1.061s-.14-.762-.439-1.061c-.174-.174-.353-.302-.561-.374v2.87c.208-.072.387-.2.561-.374z"/></svg>