<svg viewBox="0 0 22 22" xmlns="http://www.w3.org/2000/svg"><path fill="rgb(255, 255, 255)" d="m7.26 9.148h2.181c.011.073.02.146.02.221 0 .776-.574 1.41-1.32 1.518v.892c1.234-.111 2.201-1.146 2.201-2.41 0-.074-.003-.148-.01-.221h.01v-3.084h-3.082zm4.398 0h2.184c.01.073.017.146.017.221 0 .776-.574 1.41-1.32 1.518v.892c1.235-.111 2.201-1.146 2.201-2.41 0-.074-.003-.148-.01-.221h.01v-3.084h-3.082zm7.842-.148c0 1.132-.001 2.6-1.095 4.337-1.056 1.677-3.199 3.69-7.354 6.096-.155.089-.346.089-.5 0-.155-.089-.25-.254-.25-.433v-3.531c-2.054-.141-3.855-.755-5.326-1.883-1.485-1.137-2.441-2.828-2.475-4.586.035-1.785 1.02-3.5 2.543-4.643 1.511-1.133 3.668-1.857 5.957-1.857s4.446.724 5.957 1.857c1.523 1.143 2.543 2.858 2.543 4.643z"/></svg>