<svg viewBox="0 0 22 22" xmlns="http://www.w3.org/2000/svg"><path fill="rgb(255, 255, 255)" d="m12 11c0 .554-.446 1-1 1s-1-.446-1-1 .446-1 1-1 1 .446 1 1zm2.986-6.28c.687-.137 1.392.022 1.847.447.425.455.584 1.16.447 1.847-.115.573-.429 1.201-.892 1.754.719.063 1.385.285 1.872.61.583.388.969 1 .99 1.622-.021.622-.407 1.234-.99 1.622-.486.324-1.154.546-1.872.61.463.552.777 1.18.892 1.754.137.687-.022 1.392-.447 1.847-.455.425-1.16.584-1.847.447-.573-.115-1.201-.429-1.754-.892-.063.719-.285 1.385-.61 1.872-.388.583-1 .99-1.622.99s-1.234-.407-1.622-.99c-.324-.486-.546-1.154-.61-1.872-.552.463-1.18.777-1.754.892-.687.137-1.392-.022-1.847-.447-.425-.455-.584-1.16-.447-1.847.115-.573.429-1.201.892-1.754-.719-.063-1.385-.285-1.872-.61-.583-.388-.969-1-.99-1.622.021-.622.407-1.234.99-1.622.486-.324 1.154-.546 1.872-.61-.463-.552-.777-1.18-.892-1.754-.137-.687.022-1.392.447-1.847.455-.425 1.16-.584 1.847-.447.573.115 1.201.429 1.754.892.063-.719.285-1.385.61-1.872.388-.583 1-.99 1.622-.99s1.234.407 1.622.99c.324.486.546 1.154.61 1.872.552-.463 1.18-.777 1.754-.892zm-3.985 4.53c-.395-.01-.56-.089-.822-.232-.084.286-.143.457-.416.744-.286.273-.459.333-.745.417.143.262.222.425.232.82-.01.396-.089.56-.232.822.286.084.457.143.744.416.273.286.333.459.417.745.262-.143.425-.222.82-.232.396.01.56.089.822.232.084-.286.143-.457.416-.744.287-.273.459-.333.746-.417-.143-.262-.222-.424-.233-.82.01-.395.089-.56.232-.822-.286-.084-.457-.143-.744-.416-.273-.287-.333-.459-.417-.746-.262.143-.424.222-.82.233z"/></svg>