<svg height="48" viewBox="0 -960 960 960" width="48" xmlns="http://www.w3.org/2000/svg"><path fill="rgb(255, 255, 255)" d="m479.84-55c-85.893 0-158.173-29.32-216.84-87.96-58.667-58.633-88-130.98-88-217.04v-260c0-85.847 29.313-158.31 87.94-217.39 58.627-59.073 130.887-88.61 216.78-88.61s158.413 29.537 217.56 88.61c59.147 59.08 88.72 131.543 88.72 217.39v260c0 86.06-29.553 158.407-88.66 217.04-59.107 58.64-131.607 87.96-217.5 87.96zm211.16-565c0-50.793-16.667-96.323-50-136.59-19.095-23.071-41.582-40.846-67.459-53.326v189.916zm-422 0h117.46v-189.917c-25.878 12.48-48.364 30.256-67.46 53.327-33.333 40.267-50 85.797-50 136.59zm210.6 471c58.267 0 108.067-20.573 149.4-61.72s62-90.907 62-149.28v-200h-422v200c0 58.2 20.533 107.917 61.6 149.15s90.733 61.85 149 61.85z"/></svg>