<svg height="48" viewBox="0 -960 960 960" width="48" xmlns="http://www.w3.org/2000/svg"><path fill="rgb(255, 255, 255)" d="m711.23-84.47c-17.098 16.916-37.523 26.019-61.275 27.31-1.963.107-3.948.161-5.955.161h-328c-25.6 0-48-9.14-66.8-27.46-18.8-18.321-28.2-40.501-28.2-66.541v-658c0-3.92.213-7.75.64-11.49 2.406-21.12 11.592-39.47 27.56-55.03 18.8-18.31 41.2-27.48 66.8-27.48h328c2.33 0 4.63.07 6.901.22 23.349 1.47 43.459 10.56 60.329 27.25 4.269 4.23 8.045 8.65 11.33 13.29 10.274 14.47 15.71 30.93 16.371 49.38.046 1.28.069 2.56.069 3.86v658c0 23.41-7.441 43.69-22.446 60.863-1.68 1.928-3.455 3.817-5.324 5.667zm-261.23-425.53c6.982 0 13.033 1.95 18.158 5.86 1.126.85 2.206 1.79 3.242 2.82.41.42.806.86 1.188 1.29 4.939 5.55 7.412 12.28 7.412 20.21v.11c-.022 7.75-2.422 14.32-7.194 19.7-.449.51-.917 1.02-1.406 1.51-1.727 1.7-3.581 3.14-5.555 4.32-3.787 2.29-8.03 3.64-12.732 4.05-1.019.09-2.056.13-3.113.13h-134v120h134c6.964 0 13.001 1.94 18.118 5.83 1.14.85 2.234 1.8 3.282 2.85.41.42.806.86 1.189 1.29 4.938 5.55 7.411 12.28 7.411 20.21v.11c-.022 7.78-2.437 14.36-7.238 19.75-.435.5-.889.98-1.362 1.46-1.648 1.62-3.411 3-5.283 4.16-4.117 2.55-8.779 3.98-13.99 4.28-.7.04-1.409.06-2.127.06h-134v119h328v-657.99h-328v298.99zm56.41-32.59c-7.039 7.16-15.774 10.78-25.788 10.85-.14 0-.281 0-.422 0-4.528 0-8.74-.71-12.69-2.14-4.423-1.58-8.494-4.05-12.294-7.4-.476-.42-.948-.85-1.416-1.3-7.4-7.22-11-15.82-11-25.8v-51.76h-50.8c-10.2 0-19.2-3.4-26.4-10.24-7.6-6.84-11.2-15.56-11.2-26.22v-.01c0-.31.003-.63.01-.94.217-9.94 3.825-18.54 11.19-25.79 5.326-5.52 11.637-8.99 18.69-10.42 2.509-.52 5.122-.77 7.84-.77h50.67v-50.67c0-9.16 3.036-17.18 9.263-24.02.554-.62 1.133-1.22 1.737-1.81.32-.32.642-.63.968-.93 7.032-6.61 15.684-9.9 25.432-9.9h.797c9.847.16 18.247 3.76 25.413 10.83 5.985 6.07 9.525 13.13 10.502 21.16.191 1.52.288 3.08.288 4.67v50.67h50.66c10.35 0 19.2 3.6 26.53 10.78 7.54 7.18 11.21 16.1 11.21 26.76v.01c0 .3-.003.59-.009.88-.194 9.93-3.642 18.22-10.508 24.86-.224.23-.452.44-.683.66-.718.68-1.45 1.32-2.195 1.94-4.058 3.34-8.545 5.69-13.46 7.06-3.434.96-7.079 1.44-10.945 1.44h-50.6v51.76c0 1.89-.136 3.73-.405 5.52-1.121 7.67-4.618 14.42-10.385 20.27z"/></svg>