<svg height="48" viewBox="0 -960 960 960" width="48" xmlns="http://www.w3.org/2000/svg"><path fill="rgb(255, 255, 255)" d="m149-215c-26.033 0-48.21-9.16-66.53-27.48-18.313-18.313-27.47-40.487-27.47-66.52v-342c0-26.307 9.157-48.717 27.47-67.23 18.32-18.513 40.497-27.77 66.53-27.77h662c26.307 0 48.717 9.257 67.23 27.77s27.77 40.923 27.77 67.23v342c0 26.033-9.257 48.207-27.77 66.52-18.513 18.32-40.923 27.48-67.23 27.48zm0-94h662v-342h-662zm165.698-138.85 38.769 39.116c5.513 5.986 9.068 14.732 9.258 22.76-.56 7.799-4.292 16.321-9.735 22.238-5.935 5.402-14.6 9.426-22.668 9.426-8.066 0-16.752-4.042-22.687-9.445l-93.678-93.198c-2.699-2.902-5.351-6.835-7.068-10.589-1.571-3.745-2.744-8.483-2.744-12.418 0-3.83 1.187-8.545 2.765-12.278 1.69-3.605 4.434-7.615 7.192-10.497l93.969-93.468c6.015-5.534 14.713-9.497 22.729-9.497s16.671 3.944 22.684 9.456c5.516 5.947 9.482 14.642 9.482 22.654 0 8.045-3.961 16.727-9.434 22.739l-39.305 39.641h203.922v-50.16c.352-8.095 3.924-16.759 9.313-22.636 5.995-5.494 14.645-9.284 22.663-9.284 7.99 0 16.659 3.756 22.754 9.184 5.546 5.879 9.233 14.595 9.604 22.736v59.18c-.357 14.116-6.088 28.053-15.822 38.381-10.31 9.847-24.439 15.611-39.012 15.959z"/></svg>