<svg height="48" viewBox="0 -960 960 960" width="48" xmlns="http://www.w3.org/2000/svg"><path fill="rgb(255, 255, 255)" d="m794.895-466.89h-101.88c-12.16 0-22.22-3.93-30.18-11.78s-11.94-17.57-11.94-29.18 4.027-21.36 12.08-29.23c8.047-7.87 18.02-11.81 29.92-11.81h102c11.613 0 21.35 3.93 29.21 11.78s11.79 17.57 11.79 29.18-3.93 21.35-11.79 29.23c-7.86 7.87-17.597 11.81-29.21 11.81zm-540.791 104h-47c-23.833-2.67-43.623-13.06-59.37-31.19-15.753-18.13-23.63-39.06-23.63-62.81v-102c0-26.13 9.303-48.49 27.91-67.09 18.6-18.61 40.963-27.91 67.09-27.91h163l162-96c16-9.33 31.833-9.62 47.5-.85s23.5 22.38 23.5 40.85v404c0 18.47-7.833 32.08-23.5 40.85s-31.5 8.48-47.5-.85l-162-97h-29v111c0 13.83-4.727 25.46-14.18 34.87-9.447 9.42-21.113 14.13-35 14.13-13.88 0-25.653-4.71-35.32-14.13-9.667-9.41-14.5-21.04-14.5-34.87zm266-26v-238l-115 68h-186v102h186z"/></svg>