<svg height="48" viewBox="0 -960 960 960" width="48" xmlns="http://www.w3.org/2000/svg"><path fill="rgb(255, 255, 255)" d="m92.299-61.5c-26.307 0-48.717-9.157-67.23-27.47-18.513-18.32-27.77-40.5-27.77-66.53v-647c0-26.31 9.257-48.88 27.77-67.73s40.923-28.27 67.23-28.27h777.401c25.56 0 47.45 9.42 65.67 28.27s27.33 41.42 27.33 67.73v647c0 26.03-9.11 48.21-27.33 66.53-18.22 18.313-40.11 27.47-65.67 27.47zm186-94h406.401v-647h-406.401zm-186 0h91v-91h-91zm685.401 0h92v-91h-92zm-685.401-184h91v-92h-91zm685.401 0h92v-92h-92zm-685.401-186h91v-92h-91zm685.401 0h92v-92h-92zm-685.401-186h91v-91h-91zm685.401 0h92v-91h-92zm-421.763 416.21c-17.196-9.72-25.796-23.76-25.796-42.22v-281.41c0-20.01 8.6-34.7 25.796-44.08 17.199-9.07 34.117-8.46 50.813 1.87l209.496 140.69c13.541 10.34 20.325 24.07 20.325 41.27 0 17.23-6.784 30.64-20.325 40.04l-209.496 140.69c-16.696 11.6-33.614 12.52-50.813 3.15z"/></svg>