<svg viewBox="0 0 22 22" xmlns="http://www.w3.org/2000/svg"><path fill="rgb(255, 255, 255)" d="m5.5 3v11.5c-.022.588.196 1.025.586 1.414.389.39.826.586 1.414.586s1.025-.196 1.414-.586c.39-.389.608-.826.586-1.414v-11.5c0-.276.224-.5.5-.5h2.094c.199 0 .379.118.458.3l3.948 9.053v-4.853c0-.276.224-.5.5-.5h2c.276 0 .5.224.5.5v12c0 .276-.224.5-.5.5h-2.094c-.199 0-.379-.118-.458-.3l-3.948-9.053v4.353c-.022 1.345-.587 2.658-1.464 3.536-.878.877-2.191 1.464-3.536 1.464s-2.658-.587-3.536-1.464c-.877-.878-1.442-2.191-1.464-3.536v-11.5c0-.276.224-.5.5-.5h2c.276 0 .5.224.5.5zm14 0v2c0 .276-.224.5-.5.5h-2c-.276 0-.5-.224-.5-.5v-2c0-.276.224-.5.5-.5h2c.276 0 .5.224.5.5z"/></svg>