<svg height="48" viewBox="0 -960 960 960" width="48" xmlns="http://www.w3.org/2000/svg"><path fill="rgb(255, 255, 255)" d="m96.44-61.5c-26.307 0-48.717-9.157-67.23-27.47-18.514-18.32-27.77-40.5-27.77-66.53v-647c0-26.31 9.256-48.88 27.77-67.73 18.513-18.85 40.923-28.27 67.23-28.27h769.119c25.56 0 47.45 9.42 65.67 28.27s27.33 41.42 27.33 67.73v647c0 26.03-9.11 48.21-27.33 66.53-18.22 18.313-40.11 27.47-65.67 27.47zm186-94h398.119v-124.309c4.289-6.485 9.851-15.314 11.658-19.821 2.374-5.94 4.863-16.62 5.976-23.56l.587-3.64-.201-2.99c-.604-8.99-2.835-23.17-5.682-30.66-2.153-5.65-7.106-13.95-11.763-20.71 6.536-7.04 12.684-14.37 18.43-21.86 9.905-13.39 20.42-30.56 28.088-45.89 2.87-6.74 6.863-18.99 8.403-26.3.71-5.05 1.606-13.89 1.606-19.31 0-7.6-1.909-19.08-3.399-25.44-1.498-5.01-4.465-13.35-6.603-18.27-10.969-21.76-27.054-47.01-42.707-65.08-1.421-1.638-2.887-3.279-4.393-4.92v-194.24h-398.119v95.76c-.125.054-.249.107-.37.16-7.374 3.24-18.231 10.75-24.354 15.78l-3.333 2.72-2.78 3.7c-4.258 5.64-10.767 15.73-13.715 22.67-2.998 7.08-6.823 22.18-6.823 32.46 0 10.71 4.253 26.74 7.73 34.26 2.15 4.66 6.051 10.66 9.92 15.95l2.987 4.75c-6.404 9.75-12.536 20.11-17.537 29.69-1.638 4.17-6.556 16.73-8.142 22.24-1.632 7.09-3.684 19.68-3.684 27.81 0 7.53 1.571 18.75 2.976 25.47 1.599 5.7 4.828 15.19 7.233 20.82 12.802 22.721 30.304 46.526 49.892 67.859zm-186 0h91v-91h-91zm677.119 0h92v-91h-92zm-677.119-184h91v-92h-91zm677.119 0h92v-92h-92zm-677.119-186h91v-92h-91zm677.119 0h92v-92h-92zm-677.119-186h91v-91h-91zm677.119 0h92v-91h-92zm-238.667 161.41c5.82 5.94 11.069 14.19 14.865 23.46 3.685 9.3 5.566 18.99 5.36 27.94-.286 6.55-3.194 13.61-7.403 18.27-4.642 4.11-11.628 7.18-18.159 7.18-6.541 0-13.596-3.19-18.191-7.31-4.124-4.66-6.896-11.62-7.172-18.14l-.069-1.63.706-1.5c1.924-4.11 2.258-6.62 1.234-10-.704-3.71-1.866-5.79-4.525-8.22-2.354-2.63-4.38-3.68-8.116-4.29-3.492-.9-5.833-.49-9.634 1.63l-1.679.94-1.901-.1c-6.13-.28-12.898-3.04-17.471-7.17-4.092-4.56-7.162-11.37-7.162-17.54 0-6.18 3.16-12.98 7.237-17.52 4.534-4.01 10.715-6.7 16.845-7 9.534-.54 20.09 1.23 29.832 4.84 9.705 3.85 18.64 9.57 25.403 16.16zm-51.361-36.16c-7.018 0-13.75.3-20.611.96-6.734.69-12.738 1.79-18.809 3.67l-.601.2-.471.05c-6.309.85-13.422-.14-19.002-2.58-5.712-3.02-10.671-8.52-13.168-14.4-2.185-6.16-1.861-13.75.844-19.6 3.264-5.19 8.527-9.54 14.458-11.34 9.017-2.96 18.558-4.96 27.701-6.01 8.974-.95 18.301-1.46 27.582-1.46 40.437 0 78.586 11.83 112.231 34.17 33.381 22.57 59.849 53.13 77.876 89.84 1.231 2.7 2.355 5.8 3.143 8.6.796 3 1.331 6.57 1.331 9.6 0 2.82-.27 6.01-.721 8.91-.555 3.24-1.671 6.77-3 9.58-6.276 12.81-13.735 24.99-21.986 35.95-8.297 11.03-17.431 20.98-27.953 30.37-4.729 4.57-12.014 7.39-18.389 7.07-5.61-1.01-11.675-4.16-15.826-8.33-3.878-4.7-6.306-11.57-6.25-17.56.635-5.82 3.908-12.61 8.037-17.08 8.326-7.49 15.609-15.35 22.287-24.12 6.622-8.54 10.66-15.59 14.595-24.56-13.492-27.48-31.377-48.18-57.58-65.89-26.104-17.63-53.832-26.04-85.718-26.04zm-4.195 233.94c-40.189 0-78.06-11.57-111.397-33.58-33.014-22.1-59.99-52.03-79.113-87.49-1.507-3.37-2.781-6.97-3.583-10.06-.784-3.27-1.278-7.32-1.278-11.11 0-3.84.589-8.05 1.525-11.64.898-3.31 2.318-7.31 3.508-10.28 6.548-12.77 14.279-25.1 22.821-36.35 8.532-11.21 14.447-17.83 22.435-26.06l-34.499-34.51c-3.933-4.13-7.064-10.36-7.064-15.86 0-5.34 2.989-11.72 6.484-15.96 4.323-3.92 10.695-6.93 16.278-6.93 5.584 0 11.94 2.99 16.261 6.91l299.143 299.16c3.691 4.14 6.117 10.55 6.096 16.01-.556 4.93-2.75 10.37-5.681 14.24-3.994 4.42-10.423 7.96-16.227 7.96-5.583 0-11.894-2.94-16.216-6.87l-49.506-48.72c-10.599 3.89-19.916 6.46-32.493 8.31-12.4 1.85-25.091 2.83-37.494 2.83zm-110.33-192.05c-7.481 6.49-12.629 11.62-20.203 21.48-7.597 9.76-12.367 18.06-16.876 28.19 13.751 28.44 32.35 49.52 60.194 66.46 27.729 17.25 57.225 25.41 90.579 25.41 7.164 0 14.129-.08 20.993-.25 5.894.06 4.267-.16 6.249-.55l-14.352-14.34c-2.053.6-2.413.82-5.981 1.33-3.255.44-6.858.74-10.233.74-21.199 0-40.72-8.36-55.737-22.97-14.579-15.01-22.914-34.45-22.914-55.69 0-3.35.254-6.88.698-10.21.462-3.35.588-3.74.985-5.61z"/></svg>