<svg height="48" viewBox="0 -960 960 960" width="48" xmlns="http://www.w3.org/2000/svg"><path fill="rgb(255, 255, 255)" d="m189-95c-26.033 0-48.21-9.157-66.53-27.47-18.313-18.32-27.47-40.497-27.47-66.53v-582c0-26.307 9.157-48.717 27.47-67.23 18.32-18.513 40.497-27.77 66.53-27.77h336c13.167 0 24.293 4.753 33.38 14.26 9.08 9.513 13.62 20.847 13.62 34 0 13.16-4.54 24.24-13.62 33.24-9.087 9-20.213 13.5-33.38 13.5h-336v582h582v-336c0-13.167 4.56-24.293 13.68-33.38 9.113-9.08 20.25-13.62 33.41-13.62 13.153 0 24.427 4.54 33.82 13.62 9.393 9.087 14.09 20.213 14.09 33.38v336c0 26.033-9.257 48.21-27.77 66.53-18.513 18.313-40.923 27.47-67.23 27.47zm544.91-507c-9.94 0-18.427-3.493-25.46-10.48-7.04-6.987-10.56-15.643-10.56-25.97v-59.44h-60.44c-10.047 0-18.467-3.51-25.26-10.53s-10.19-15.64-10.19-25.86c0-9.94 3.497-18.21 10.49-24.81 7-6.607 15.67-9.91 26.01-9.91h59.5v-60.6c0-10.08 3.467-18.667 10.4-25.76s15.527-10.64 25.78-10.64c9.967 0 18.26 3.547 24.88 10.64 6.627 7.093 9.94 15.68 9.94 25.76v60.6h60.6c10.08 0 18.667 3.373 25.76 10.12s10.64 15.103 10.64 25.07c0 9.973-3.547 18.437-10.64 25.39-7.093 6.947-15.68 10.42-25.76 10.42h-60.6v60.5c0 10.06-3.363 18.49-10.09 25.29-6.727 6.807-15.06 10.21-25 10.21z"/></svg>