<svg height="48" viewBox="0 -960 960 960" width="48" xmlns="http://www.w3.org/2000/svg"><path fill="rgb(255, 255, 255)" d="m92.299-61.5c-26.307 0-48.717-9.157-67.23-27.47-18.513-18.32-27.77-40.5-27.77-66.53v-647c0-26.31 9.257-48.88 27.77-67.73s40.923-28.27 67.23-28.27h777.401c25.56 0 47.45 9.42 65.67 28.27s27.33 41.42 27.33 67.73v647c0 26.03-9.11 48.21-27.33 66.53-18.22 18.313-40.11 27.47-65.67 27.47zm186-94h406.401v-647h-406.401zm-186 0h91v-91h-91zm685.401 0h92v-91h-92zm-685.401-184h91v-92h-91zm685.401 0h92v-92h-92zm-685.401-186h91v-92h-91zm685.401 0h92v-92h-92zm-685.401-186h91v-91h-91zm685.401 0h92v-91h-92zm-330.384 367.32-31.959-71.17-71.181-31.96c-14.527-6.68-21.79-17.71-21.79-33.43 0-15.39 7.263-26.41 21.79-33.39l71.181-30.51 31.959-72.61c5.81-13.38 16.473-20.37 31.959-20.37 15.484 0 26.64 6.99 33.411 20.37l31.957 72.61 71.181 30.51c14.527 6.98 21.79 18 21.79 33.39 0 15.72-7.263 26.75-21.79 33.43l-71.181 31.96-31.957 71.17c-6.771 14.54-17.927 21.8-33.411 21.8-15.486 0-26.149-7.26-31.959-21.8z"/></svg>