<svg viewBox="0 0 22 22" xmlns="http://www.w3.org/2000/svg"><path fill="rgb(255, 255, 255)" d="m13.501 9.5h.999v-2.5c0-.203.122-.385.309-.462.186-.078.401-.035.544.108l4.001 4c.195.195.195.512 0 .707l-4 4c-.143.143-.359.186-.545.109-.187-.078-.309-.26-.309-.462v-2.5h-.999l-.001 6.5c0 .276-.224.5-.5.5h-4c-.276 0-.5-.224-.5-.5v-6.5h-1v2.5c0 .202-.122.384-.309.462-.186.077-.401.034-.544-.109l-4.001-4c-.093-.093-.146-.221-.146-.353 0-.133.053-.26.146-.354l4.001-4c.143-.143.358-.186.544-.108.187.077.309.26.309.462v2.5h1v-6.5c0-.276.224-.5.5-.5h4c.276 0 .5.224.5.5zm-3.001 8h1v-13h-1z"/></svg>