<svg height="48" viewBox="0 -960 960 960" width="48" xmlns="http://www.w3.org/2000/svg"><path fill="rgb(255, 255, 255)" d="m480-806c48 0 92.4 7.5 133.2 22.5 40.807 15 76.12 36.167 105.94 63.5l30.86-31c8.667-8.667 18.5-13 29.5-13s20.833 4.5 29.5 13.5 13 19 13 30-4.333 20.833-13 29.5l-30 30c30 32 52 68.667 66 110s21 85 21 131c0 22-2.167 43.667-6.5 65s-10.833 41.667-19.5 61c-4.667 16.667-13 27.333-25 32s-23.667 5.333-35 2-20.667-9.833-28-19.5-8.667-21.833-4-36.5c6.667-12.667 12.167-27.84 16.5-45.52 4.333-17.673 6.5-37.167 6.5-58.48 0-81.493-28.127-150.367-84.38-206.62s-125.127-84.38-206.62-84.38c-21.333 0-41 2.167-59 6.5s-33 9.833-45 16.5c-13.673 4.667-25.76 3.667-36.26-3-10.493-6.667-17.407-15.667-20.74-27s-2.667-23 2-35 15-20.667 31-26c20-9.333 40.89-16.167 62.67-20.5 21.773-4.333 43.55-6.5 65.33-6.5zm-.48 771c-53.347 0-103.27-10.167-149.77-30.5s-87.25-47.833-122.25-82.5-62.5-75.34-82.5-122.02c-20-46.673-30-96.787-30-150.34 0-41.093 6.167-80.973 18.5-119.64s32.5-76.667 60.5-114l-100-100c-7.333-7.333-11-15.667-11-25s3.667-17.667 11-25 15.833-11 25.5-11 18.167 3.667 25.5 11l705 704c7.333 7.333 11 15.54 11 24.62s-3.667 17.54-11 25.38c-7.333 7.333-15.833 11-25.5 11s-18.167-3.667-25.5-11l-66-64c-31.8 25.333-66.917 44.833-105.35 58.5s-81.143 20.5-128.13 20.5zm.96-95c32.347 0 62.317-4.427 89.91-13.28s53.463-22.093 77.61-39.72l-403-405c-18 24.667-31.833 51.5-41.5 80.5s-14.5 58.167-14.5 87.5c0 81.493 28.173 150.2 84.52 206.12s125.333 83.88 206.96 83.88zm-102.36-730c-12.08 0-21.953-4-29.62-12s-11.5-18-11.5-30 3.833-21.833 11.5-29.5 17.54-11.5 29.62-11.5h203.76c12.08 0 21.953 3.833 29.62 11.5s11.5 17.5 11.5 29.5-3.833 22-11.5 30-17.54 12-29.62 12z"/></svg>