<svg height="48" viewBox="0 -960 960 960" width="48" xmlns="http://www.w3.org/2000/svg"><path fill="rgb(255, 255, 255)" d="m378.12-860c-12.16 0-22.053-4.06-29.68-12.18-7.627-8.113-11.44-18.113-11.44-30 0-11.88 3.813-21.653 11.44-29.32s17.52-11.5 29.68-11.5h203.76c12.167 0 22.06 3.83 29.68 11.49 7.627 7.66 11.44 17.557 11.44 29.69 0 11.88-3.813 21.82-11.44 29.82-7.62 8-17.513 12-29.68 12zm101.65 825c-53.493 0-103.553-10.113-150.18-30.34s-87.383-47.727-122.27-82.5c-34.88-34.773-62.32-75.447-82.32-122.02-20-46.567-30-96.567-30-150 0-53.427 10.03-103.457 30.09-150.09 20.06-46.64 47.53-87.463 82.41-122.47 34.887-35 75.643-62.68 122.27-83.04s96.703-30.54 150.23-30.54c46 0 89.5 7.5 130.5 22.5s77.167 36.167 108.5 63.5l31-31c8.667-8.667 18.5-13 29.5-13s20.833 4.5 29.5 13.5 13 19 13 30-4.333 20.833-13 29.5l-30 30c24.667 28 45.333 61.667 62 101s25 86 25 140c0 53.573-10.133 103.707-30.4 150.4s-47.89 87.383-82.87 122.07c-34.98 34.68-75.847 62.103-122.6 82.27-46.753 20.173-96.873 30.26-150.36 30.26zm.06-95c81.447 0 150.337-27.943 206.67-83.83s84.5-124.553 84.5-206-28.11-150.337-84.33-206.67-125.053-84.5-206.5-84.5-150.337 28.11-206.67 84.33-84.5 125.053-84.5 206.5 28.11 150.17 84.33 206.17 125.053 84 206.5 84zm-94.811-144.38c-12.758-7.03-19.117-17.51-19.117-31.58v-232.42c0-13.49 6.359-23.76 19.117-30.79 12.738-7.07 24.813-6.86 36.224.58l182.121 116.74c11.389 7.25 17.106 17.29 17.106 30.16 0 12.69-5.717 22.75-17.106 30.21l-182.121 116.72c-11.411 7.23-23.486 7.43-36.224.38z"/></svg>