<svg height="48" viewBox="0 -960 960 960" width="48" xmlns="http://www.w3.org/2000/svg"><path fill="rgb(255, 255, 255)" d="m581-666.03c0-26.967-8.817-48.703-26.45-65.21-17.64-16.507-40.577-24.76-68.81-24.76-18.367 0-35.14 3.677-50.32 11.03s-28.32 18.01-39.42 31.97c-14 15.333-30.523 24.5-49.57 27.5-19.04 3-35.517-.5-49.43-10.5-16-10-24.833-23.58-26.5-40.74-1.667-17.153 3.833-34.24 16.5-51.26 23.347-30.987 51.89-54.4 85.63-70.24s71.53-23.76 113.37-23.76c68 0 122.833 19.677 164.5 59.03 41.667 39.347 62.5 90.67 62.5 153.97 0 33.333-8.667 67-26 101s-43 68.667-77 104c-13.333 14-24 26.907-32 38.72s-14.333 24.573-19 38.28c-8 16.667-18.54 29.667-31.62 39-13.073 9.333-26.467 14-40.18 14-17.193 0-32.193-5.667-45-17-12.8-11.333-19.2-24.91-19.2-40.73 0-26.567 7.167-52.92 21.5-79.06s34.62-48.95 60.86-68.43c25.76-19.853 44.807-40.113 57.14-60.78s18.5-42.677 18.5-66.03zm-83.175 372.81c33.358 0 61.783 11.79 85.297 35.59 23.513 23.82 35.261 52.17 35.261 85.12 0 33.32-11.748 61.67-35.261 85.294-23.514 23.417-51.939 35.216-85.297 35.216-32.937 0-61.267-11.799-84.972-35.216-23.723-23.624-35.584-51.974-35.584-85.294 0-32.95 11.861-61.3 35.584-85.12 23.705-23.8 52.035-35.59 84.972-35.59zm-16.144 138.03-23.629-24.18c-3.313-3.04-7.234-4.58-11.804-4.75-4.551-.19-8.283 1.33-11.175 4.75-3.332 2.85-5.085 6.66-5.294 11.42-.209 4.77 1.352 8.57 4.665 11.43l26.103 26.28c5.807 5.7 12.832 8.56 21.134 8.56 8.281 0 15.327-2.86 21.133-8.56l58.412-60.37c2.894-2.85 4.342-6.46 4.342-10.84s-1.448-8.2-4.342-11.62c-3.331-2.66-7.254-4.38-11.823-4.57-4.55-.19-8.281 1.33-11.176 4.57z"/></svg>