<svg height="48" viewBox="0 -960 960 960" width="48" xmlns="http://www.w3.org/2000/svg"><path fill="rgb(255, 255, 255)" d="m149-135c-26.033 0-48.21-9.327-66.53-27.98-18.313-18.647-27.47-40.653-27.47-66.02v-502c0-25.64 9.157-47.883 27.47-66.73 18.32-18.847 40.497-28.27 66.53-28.27h261l71 72h330c25.64 0 47.883 9.323 66.73 27.97 18.847 18.653 28.27 40.663 28.27 66.03v167c0 14.053-4.753 25.567-14.26 34.54-9.513 8.973-20.847 13.46-34 13.46-13.16 0-24.24-4.543-33.24-13.63-9-9.08-13.5-20.203-13.5-33.37v-168h-369l-71-71h-222v502h276c13.167 0 24.293 4.56 33.38 13.68 9.08 9.113 13.62 20.28 13.62 33.5 0 13.213-4.54 24.32-13.62 33.32-9.087 9-20.213 13.5-33.38 13.5zm361.768-137.56c0-49.84 17.13-92.44 51.404-128.03 34.263-35.58 76.444-54.07 126.534-55.36v-22.24c0-4.94 2.055-8.5 6.178-10.68 4.112-2.17 8.155-1.68 12.109 1.3l62.773 47.93c6.257 4.95 9.392 11.18 9.392 18.79 0 7.51-3.135 13.64-9.392 18.28l-62.773 48.44c-3.954 2.98-7.997 3.37-12.109 1.2-4.123-2.19-6.178-5.64-6.178-10.59v-21.74c-30.319 1.27-55.853 12.85-76.614 34.6-20.758 21.74-31.139 47.74-31.139 78.1 0 12.15 2.136 23.91 6.426 35.28 4.281 11.37 10.538 21.85 18.782 31.45 3.293 6.52 4.607 13.63 3.955 21.25-.662 7.5-3.796 13.33-9.391 17.29l-15.323 11.86c-7.255 5.55-15.076 7.22-23.478 4.94-8.403-2.37-14.086-7.4-17.052-15.31-10.874-16.81-19.277-35.09-25.208-54.68-5.931-19.56-8.896-36.97-8.896-52.08zm188.811 183.36v22.24c0 4.944-2.065 8.401-6.178 10.577-4.122 2.177-8.155 1.783-12.11-1.181l-62.772-48.436c-6.268-4.65-9.392-10.77-9.392-18.29 0-7.62 3.124-13.84 9.392-18.78l62.772-47.94c3.955-2.97 7.988-3.46 12.11-1.29 4.113 2.17 6.178 5.74 6.178 10.68v21.75c30.309-1.39 55.853-12.85 76.613-34.6 20.758-21.75 31.139-47.85 31.139-78.09 0-12.56-2.225-24.42-6.672-35.59-4.45-11.28-10.795-21.76-19.03-31.64-3.629-6.33-5.111-13.25-4.449-20.76.653-7.61 3.954-13.55 9.885-17.8l17.301-13.34c6.92-5.34 14.492-6.72 22.735-4.24 8.235 2.47 13.671 7.8 16.311 16.1 10.539 18.09 18.863 37.08 24.961 57.04 6.09 19.98 9.144 36.68 9.144 50.23 0 49.71-17.142 92.42-51.404 128.01-34.273 35.59-76.454 53.972-126.534 55.35z"/></svg>