<svg height="48" viewBox="0 -960 960 960" width="48" xmlns="http://www.w3.org/2000/svg"><path fill="rgb(255, 255, 255)" d="m151-36.447c-26.033 0-48.21-9.256-66.53-27.77-18.313-18.513-27.47-40.923-27.47-67.223v-328.01c0-25.64 9.157-47.88 27.47-66.73 18.32-18.84 40.497-28.27 66.53-28.27h658c26.033 0 48.21 9.43 66.53 28.27 18.313 18.85 27.47 41.09 27.47 66.73v328.01c0 26.3-9.157 48.71-27.47 67.223-18.32 18.514-40.497 27.77-66.53 27.77zm0-94.993h658v-328.01h-119v134c0 8.5-2.893 15.63-8.68 21.37-5.78 5.76-12.947 8.63-21.5 8.63-8.547 0-15.653-2.87-21.32-8.63-5.667-5.74-8.5-12.87-8.5-21.37v-134h-120v134c0 8.5-2.893 15.63-8.68 21.37-5.78 5.76-12.947 8.63-21.5 8.63-8.547 0-15.653-2.87-21.32-8.63-5.667-5.74-8.5-12.87-8.5-21.37v-134h-120v134c0 8.5-2.893 15.63-8.68 21.37-5.78 5.76-12.947 8.63-21.5 8.63-8.547 0-15.653-2.87-21.32-8.63-5.667-5.74-8.5-12.87-8.5-21.37v-134h-119zm96.148-587.06.105.05c8.42 8.31 12.648 18.42 12.648 30.17 0 11.74-4.228 21.85-12.648 30.35-8.438 8.3-18.52 12.66-30.265 12.66-11.744 0-21.537-4.36-29.361-12.66l-73.28-72.32c-4.23-4.34-7.392-9.03-9.486-14.47-2.116-5.4-3.164-10.84-3.164-16.24 0-5.43 1.048-10.68 3.164-15.89 2.094-5.08 5.256-9.77 9.486-13.93l72.377-72.4c8.421-8.98 18.52-13.33 30.264-13.15 11.745.34 21.827 5.04 30.265 14.1 8.42 7.75 12.648 17.49 12.648 29.25 0 11.75-4.228 21.51-12.648 29.43l.8.13h469.494l-48.786-48.74c-7.841-8.02-11.598-17.77-11.292-29.52.289-11.76 4.662-21.85 13.1-30.12 7.824-8.01 17.616-11.75 29.361-11.75 11.743 0 21.827 3.74 30.265 11.75l120.156 121.02c3.612 4.16 6.467 8.85 8.581 13.93 2.096 5.21 3.162 10.46 3.162 15.89 0 5.4-1.066 10.84-3.162 16.24-2.114 5.44-4.969 10.13-8.581 14.47l-120.156 120.15c-8.438 7.78-18.375 11.75-29.815 11.75-11.453 0-21.39-4.33-29.811-12.65-8.438-7.95-12.811-17.71-13.1-29.45-.306-11.75 3.757-21.86 12.198-30.17l47.88-47.88z"/></svg>