<svg height="48" viewBox="0 -960 960 960" width="48" xmlns="http://www.w3.org/2000/svg"><path fill="rgb(255, 255, 255)" d="m36.449-809c0-26.03 9.25-48.21 27.77-66.53 18.51-18.31 40.92-27.47 67.22-27.47h328.01c25.64 0 47.88 9.16 66.73 27.47 18.84 18.32 28.27 40.5 28.27 66.53v658c0 26.03-9.43 48.21-28.27 66.529-18.85 18.31-41.09 27.47-66.73 27.47h-328.01c-26.3 0-48.71-9.16-67.22-27.47-18.52-18.319-27.77-40.499-27.77-66.529zm94.99 0v658h328.01v-119h-134c-8.5 0-15.63-2.89-21.37-8.68-5.76-5.78-8.63-12.95-8.63-21.5s2.87-15.65 8.63-21.32c5.74-5.67 12.87-8.5 21.37-8.5h134v-120h-134c-8.5 0-15.63-2.89-21.37-8.68-5.76-5.78-8.63-12.95-8.63-21.5s2.87-15.65 8.63-21.32c5.74-5.67 12.87-8.5 21.37-8.5h134v-120h-134c-8.5 0-15.63-2.89-21.37-8.68-5.76-5.78-8.63-12.95-8.63-21.5s2.87-15.65 8.63-21.32c5.74-5.67 12.87-8.5 21.37-8.5h134v-119zm587.062 96.14-.05.11c-8.31 8.42-18.42 12.65-30.17 12.65-11.74 0-21.85-4.23-30.35-12.65-8.3-8.44-12.66-18.52-12.66-30.27 0-11.74 4.36-21.53 12.66-29.36l72.32-73.28c4.34-4.23 9.03-7.39 14.47-9.48 5.4-2.12 10.84-3.17 16.24-3.17 5.43 0 10.68 1.05 15.89 3.17 5.08 2.09 9.77 5.25 13.93 9.48l72.4 72.38c8.98 8.42 13.33 18.52 13.15 30.26-.34 11.75-5.04 21.83-14.1 30.27-7.75 8.42-17.49 12.65-29.25 12.65-11.75 0-21.51-4.23-29.43-12.65l-.13.8v469.49l48.74-48.78c8.02-7.84 17.77-11.6 29.52-11.3 11.76.29 21.85 4.67 30.12 13.1 8.01 7.83 11.75 17.62 11.75 29.37 0 11.74-3.74 21.82-11.75 30.26l-121.02 120.16c-4.16 3.61-8.85 6.46-13.93 8.58-5.21 2.09-10.46 3.16-15.89 3.16-5.4 0-10.84-1.07-16.24-3.16-5.44-2.12-10.13-4.97-14.47-8.58l-120.15-120.16c-7.78-8.44-11.75-18.37-11.75-29.81 0-11.46 4.33-21.39 12.65-29.82 7.95-8.43 17.71-12.81 29.45-13.1 11.75-.3 21.86 3.76 30.17 12.2l47.88 47.88z"/></svg>