<svg height="48" viewBox="0 -960 960 960" width="48" xmlns="http://www.w3.org/2000/svg"><path fill="rgb(255, 255, 255)" d="m480-135c-77.333 0-145.333-3.833-204-11.5s-109-16.5-151-26.5c-12.667-2.667-23.333-9-32-19s-13-21.667-13-35c0-11.333 4.667-20.167 14-26.5s19.667-7.833 31-4.5c21.333 6 42.667 11.333 64 16s39 8 53 10c-32.667-27.333-58.667-64.5-78-111.5s-29-92.5-29-136.5c0-68 3.833-132 11.5-192s16.833-113.667 27.5-161c2.667-13.333 8.833-24.5 18.5-33.5s21.167-13.5 34.5-13.5c11.333 0 20.167 4.333 26.5 13s8.167 19 5.5 31c-5.333 21.333-9.833 42.833-13.5 64.5s-6.5 38.5-8.5 50.5c28.667-31.333 63.833-56.5 105.5-75.5s87.5-28.5 137.5-28.5c75.333 0 142.333 4 201 12s109.667 16.667 153 26c12.667 3.333 23.5 9.833 32.5 19.5s13.5 21.167 13.5 34.5c0 10.667-4.5 19.167-13.5 25.5s-19.167 7.833-30.5 4.5c-22-6-43.667-11.167-65-15.5s-38.333-7.167-51-8.5c36.667 37.333 63.333 75.333 80 114s25 83 25 133c0 74.667-3.667 141.667-11 201s-16.333 110.667-27 154c-2.667 12.667-9 23.333-19 32s-21.667 13-35 13c-10.667 0-19.333-4.5-26-13.5s-8.333-19.167-5-30.5c5.333-20.667 10.167-41.5 14.5-62.5s7.5-38.5 9.5-52.5c-32.667 36-71.167 62.333-115.5 79s-87.833 25-130.5 25z"/></svg>