<svg viewBox="0 0 22 22" xmlns="http://www.w3.org/2000/svg"><path fill="rgb(255, 255, 255)" d="m11.036 8.217v5.566c-.022 1.383-.603 2.731-1.505 3.633s-2.25 1.505-3.633 1.505-2.731-.603-3.633-1.505-1.483-2.25-1.505-3.633v-5.566c.022-1.383.603-2.731 1.505-3.633s2.25-1.505 3.633-1.505 2.731.603 3.633 1.505 1.483 2.25 1.505 3.633zm-7.408-2.27c-.608.609-.962 1.348-.94 2.27v5.566c-.022.922.332 1.661.94 2.27.609.608 1.348.94 2.27.94s1.662-.332 2.27-.94c.609-.609.963-1.348.941-2.27v-5.566c.022-.922-.332-1.661-.941-2.27-.608-.608-1.348-.94-2.27-.94s-1.661.332-2.27.94zm17.612 1.343v.927c0 .276-.224.5-.5.5h-.928c-.276 0-.5-.224-.5-.5v-.927c0-.276.224-.5.5-.5h.928c.276 0 .5.224.5.5zm-6.066 2.283c.871.022 1.755.395 2.321.961.567.566.94 1.45.962 2.321 0 .276-.224.5-.5.5h-.928c-.276 0-.5-.224-.5-.5.022-.41-.124-.686-.397-.958-.272-.273-.548-.397-.958-.397s-.686.124-.958.397c-.273.272-.419.548-.397.958v5.566c0 .276-.224.5-.5.5h-.928c-.276 0-.5-.224-.5-.5v-8.348c0-.276.224-.5.5-.5h.928c.216 0 .401.137.47.33.439-.202.922-.32 1.385-.33zm6.066.5v8.348c0 .276-.224.5-.5.5h-.928c-.276 0-.5-.224-.5-.5v-8.348c0-.276.224-.5.5-.5h.928c.276 0 .5.224.5.5z"/></svg>