<svg viewBox="0 0 22 22" xmlns="http://www.w3.org/2000/svg"><path fill="rgb(255, 255, 255)" d="m17.82 13.5h-2.187c-.193 0-.369-.111-.452-.286-2.223-4.776-6.913-7.747-12.182-7.714-.275 0-.499-.224-.499-.5v-2c0-.133.053-.26.147-.354.093-.093.221-.146.353-.146 3.334.014 6.573 1.039 9.217 2.822 2.643 1.784 4.806 4.404 6.067 7.491.062.154.044.329-.049.467-.093.137-.249.22-.415.22zm-4.439 0h-2.213c-.004.001-.007.002-.011.004-.204.067-.429-.004-.558-.176-1.794-2.455-4.559-3.848-7.6-3.828-.276-.001-.499-.224-.499-.5v-2c0-.133.053-.26.147-.354.093-.093.221-.146.353-.146 4.408.038 8.581 2.45 10.814 6.25.089.155.089.345 0 .5s-.254.25-.433.25zm-2.381 6h-2c-.276 0-.5-.224-.5-.5.022-1.555-.588-2.866-1.611-3.889s-2.334-1.633-3.889-1.611c-.276 0-.5-.224-.5-.5v-2c0-.276.224-.5.5-.5 2.311.022 4.5.979 6.01 2.49 1.511 1.51 2.468 3.699 2.49 6.01 0 .276-.224.5-.5.5zm6.5-4.568v1.5h1.5c.276 0 .5.224.5.5v1c0 .276-.224.5-.5.5h-1.5v1.5c0 .276-.224.5-.5.5h-1c-.276 0-.5-.224-.5-.5v-1.5h-1.5c-.276 0-.5-.224-.5-.5v-1c0-.276.224-.5.5-.5h1.5v-1.5c0-.276.224-.5.5-.5h1c.276 0 .5.224.5.5zm-11 2.568c0 .516-.251 1.08-.586 1.414-.334.335-.898.586-1.414.586s-1.08-.251-1.414-.586c-.335-.334-.586-.898-.586-1.414s.251-1.08.586-1.414c.334-.335.898-.586 1.414-.586s1.08.251 1.414.586c.335.334.586.898.586 1.414z"/></svg>