<svg height="48" viewBox="0 -960 960 960" width="48" xmlns="http://www.w3.org/2000/svg"><path fill="rgb(255, 255, 255)" d="m508.5-141.5c0 13.17-4.54 24.29-13.63 33.37-9.08 9.09-20.07 13.63-32.98 13.63h-257.78c-12.91 0-23.9-4.54-32.99-13.63-9.08-9.08-13.62-20.2-13.62-33.37v-676c0-13.09 4.54-24.36 13.62-33.81 9.09-9.46 20.08-14.19 32.99-14.19h257.78c12.91 0 23.9 4.73 32.98 14.19 9.09 9.45 13.63 20.72 13.63 33.81zm150 0c0 13.17-4.55 24.29-13.65 33.37-9.11 9.09-20.26 13.63-33.45 13.63h-7.11c-13.19 0-24.29-4.54-33.29-13.63-9-9.08-13.5-20.2-13.5-33.37v-676c0-13.09 4.55-24.36 13.65-33.81 9.11-9.46 20.26-14.19 33.45-14.19h7.11c13.19 0 24.29 4.73 33.29 14.19 9 9.45 13.5 20.72 13.5 33.81zm144 0c0 13.17-4.56 24.29-13.68 33.37-9.11 9.09-20.45 13.63-34 13.63s-24.82-4.54-33.82-13.63c-9-9.08-13.5-20.2-13.5-33.37v-676c0-13.09 4.56-24.36 13.68-33.81 9.11-9.46 20.45-14.19 34-14.19s24.82 4.73 33.82 14.19c9 9.45 13.5 20.72 13.5 33.81z"/></svg>