<svg height="48" viewBox="0 -960 960 960" width="48" xmlns="http://www.w3.org/2000/svg"><path fill="rgb(255, 255, 255)" d="m270.485-94.5c-26.31 0-48.72-9.15-67.23-27.47s-27.77-40.49-27.77-66.53v-56h-19c-11.17 0-20.79-4.13-28.88-12.39-8.08-8.26-12.12-17.86-12.12-28.8 0-11.21 4.04-20.82 12.12-28.82 8.09-7.99 17.71-11.99 28.88-11.99h19v-306h-19c-11.17 0-20.79-4.13-28.88-12.39-8.08-8.26-12.12-17.86-12.12-28.79 0-11.23 4.04-20.84 12.12-28.83 8.09-7.99 17.71-11.99 28.88-11.99h19v-56c0-26.3 9.26-48.71 27.77-67.23 18.51-18.51 40.92-27.77 67.23-27.77h480.03c6.965 0 13.653.663 20.067 1.988 17.725 3.603 33.313 12.1 46.763 25.492 18.59 18.32 27.8 40.5 27.8 66.52v303.843c0 13.179-4.81 24.3-14.21 33.379-9.59 9.08-20.79 13.621-33.98 13.621-13.21 0-24.21-4.541-33.21-13.621-9-9.079-13.6-20.2-13.6-33.379v-302.843h-381.569v580.999h184.726c13.19 0 24.4 4.56 33.4 13.68 9.19 9.12 13.6 20.26 13.6 33.421 0 13.159-4.41 24.419-13.6 33.819-9 9.4-20.21 14.08-33.4 14.08h-147.534zm38.091-676h-37.14v580.999h37.14zm415.823 501.41v-69.84c0-9.58 3.491-17.79 10.475-24.65 6.809-6.84 15.18-10.26 24.792-10.26 9.768 0 17.982 3.42 24.617 10.26 6.634 6.86 9.943 15.07 9.943 24.65v69.84h69.844c9.602 0 17.808 3.46 24.792 10.37 6.809 6.91 10.126 15.21 10.126 24.88s-3.317 17.86-10.126 24.55c-6.984 6.7-15.19 10.04-24.792 10.04h-69.844v69.83c0 9.59-3.309 17.81-10.292 24.65-6.984 6.848-15.19 10.269-24.967 10.269-9.602 0-17.808-3.421-24.451-10.269-6.626-6.84-10.117-15.06-10.117-24.65v-69.83h-69.836c-9.603 0-17.8-3.44-24.617-10.36-6.809-6.91-10.301-15.2-10.301-24.88 0-9.67 3.492-17.86 10.301-24.56 6.817-6.69 15.014-10.04 24.617-10.04zm-165.694-69.2c-38.401 0-71.781-6.61-98.541-19.42-27.1-13.39-42.159-31.99-43.059-52.4v-139.18c.92-20.21 16.061-38.82 43.361-52.61 26.999-12.79 60.219-19.6 98-19.6 37.561 0 70.779 6.81 98.041 19.6 27.58 13.6 42.899 32.2 43.819 52.61v139.18c-.9 20.41-16.041 39.01-43.26 52.4-26.88 12.81-60.2 19.42-98.361 19.42zm-.16-193.82c19.24 0 38.36-2.8 58.48-8.78 19.962-5.82 25.12-8.61 31.781-13.2-6.881-4.61-12.261-7.41-32.56-13.41-20.381-5.99-39.32-8.81-57.881-8.81-19.279 0-38.379 2.82-58.401 8.81-19.899 5.81-25.52 8.61-32.14 13.41 6.502 4.99 12.061 7.99 31.501 13.58 19.621 5.6 39.02 8.4 59.22 8.4zm-.34 74.01c9.281 0 18.28-.4 27.44-1.59 9.221-1.2 17.841-2.82 26.321-5.01 8.459-2.01 16.56-4.59 24.659-7.8 8.06-3.2 12.62-5.4 18.441-8.39v-26.01c-4.219 1.81-4.62 2.2-13.02 5.21-8.461 3.19-17.481 5.79-26.54 7.79-9.04 2.01-18.5 3.6-27.94 4.61-9.481 1.18-19.46 1.79-29.501 1.79-9.58 0-19.399-.61-29.059-1.79-9.681-1.01-19.322-2.6-28.422-4.8-9.1-2-18-4.8-26.318-7.6-8.401-3.01-8.08-3.21-11.882-4.8v25.98c4.982 2.8 8.941 4.81 16.762 7.82 7.918 2.99 16.02 5.6 24.739 7.99 8.68 2.19 17.44 3.81 26.759 5.01 9.301 1.19 18.341 1.59 27.561 1.59zm.34 74.41c10.321.38 20.801-.41 31.841-2.22 11.1-1.79 21.18-4.2 30.779-7.38 9.54-3.02 17.24-6.2 23.901-10.02 6.42-3.59 8.42-5.18 10-7.79v-21.59c-3.961 1.79-3.98 2-12.2 5.19-8.26 3.4-17.281 6.2-26.499 8.2-9.221 2.2-18.861 3.81-28.502 4.8-9.619 1.21-19.66 1.81-29.66 1.81-9.901 0-19.959-.6-29.761-1.81-9.718-1.4-19.298-2.99-28.34-5.19-9.059-2-17.959-4.8-26.198-8.01-8.241-3.4-7.841-3.2-11.522-4.99v22.19c1.402 2.01 3.122 3.6 9.421 7 6.54 3.79 14.22 7 23.78 10.01 9.581 2.99 19.66 5.38 30.76 7.19s21.621 2.8 32.2 2.61z"/></svg>