<svg viewBox="0 0 22 22" xmlns="http://www.w3.org/2000/svg"><path fill="rgb(255, 255, 255)" d="m19.5 11.002c-.02 1.854-.569 3.429-1.538 4.839l3.099 3.098c.252.283.439.716.439 1.061s-.187.778-.439 1.061c-.283.252-.716.439-1.061.439s-.778-.187-1.061-.439l-3.098-3.099c-1.41.969-2.987 1.518-4.841 1.538-2.311-.022-4.5-.979-6.01-2.49-1.511-1.51-2.49-3.699-2.49-6.01s.979-4.5 2.49-6.01c1.51-1.511 3.699-2.49 6.01-2.49s4.5.979 6.01 2.49c1.511 1.51 2.468 3.701 2.49 6.012zm-13.096-4.598c-1.204 1.204-1.904 2.765-1.904 4.596s.7 3.392 1.904 4.596 2.765 1.904 4.596 1.904 3.392-.7 4.596-1.904 1.904-2.765 1.904-4.596-.7-3.392-1.904-4.596-2.765-1.904-4.596-1.904-3.392.7-4.596 1.904zm7.474 7.312h-.653v1.284c0 .277-.223.502-.498.502h-.951c-.276 0-.499-.225-.499-.502v-1.284h-3.154c-.276 0-.499-.224-.499-.501v-.865c0-.1.03-.199.086-.281l3.588-5.35c.092-.138.247-.221.413-.221h1.016c.275 0 .498.225.498.502v4.81h.653c.275 0 .498.225.498.501v.904c0 .277-.223.501-.498.501zm-2.601-1.906v-1.436c0-.136.001-.28.004-.43l-1.253 1.866z" stroke-linecap="round"/></svg>