<svg viewBox="0 0 22 22" xmlns="http://www.w3.org/2000/svg"><path fill="rgb(255, 255, 255)" d="m7.5 3v1c0 .276-.224.5-.5.5h-2.5v2.5c0 .276-.224.5-.5.5h-1c-.276 0-.5-.224-.5-.5v-4c0-.276.224-.5.5-.5h4c.276 0 .5.224.5.5zm4 0v.402c.737.147 1.426.53 1.95 1.02.319.311.612.676.881 1.078h1.669c.276 0 .5.224.5.5v4.588c.2.632.393 1.274.585 1.912h1.915c.276 0 .5.224.5.5v1c0 .276-.224.5-.5.5h-7.5v5.5c0 .276-.224.5-.5.5h-1c-.276 0-.5-.224-.5-.5v-5.5h-6.5c-.276 0-.5-.224-.5-.5v-1c0-.276.224-.5.5-.5h1.874c.096-.371.31-1.152.626-2.103v-4.397c0-.276.224-.5.5-.5h1.762c.096-.14.194-.275.295-.405.394-.501.884-.964 1.443-1.288v-.807c0-.276.224-.5.5-.5h1c.276 0 .5.224.5.5zm8 0v4c0 .276-.224.5-.5.5h-1c-.276 0-.5-.224-.5-.5v-2.5h-2.5c-.276 0-.5-.224-.5-.5v-1c0-.276.224-.5.5-.5h4c.276 0 .5.224.5.5zm-12 9.5h2v-5h-.465c-.275.497-.533 1.048-.771 1.613-.301.712-.557 1.426-.764 2.055zm4 0h3v-1.121c-.44-1.402-.892-2.703-1.404-3.733-.024-.05-.049-.098-.073-.146h-1.523zm-7 3.5v2.5h2.5c.276 0 .5.224.5.5v1c0 .276-.224.5-.5.5h-4c-.276 0-.5-.224-.5-.5v-4c0-.276.224-.5.5-.5h1c.276 0 .5.224.5.5zm15 0v4c0 .276-.224.5-.5.5h-4c-.276 0-.5-.224-.5-.5v-1c0-.276.224-.5.5-.5h2.5v-2.5c0-.276.224-.5.5-.5h1c.276 0 .5.224.5.5z"/></svg>