<svg viewBox="0 0 22 22" xmlns="http://www.w3.org/2000/svg"><path fill="rgb(255, 255, 255)" d="m21.5 1v20c0 .276-.224.5-.5.5h-20.033c-.276 0-.5-.224-.5-.5v-20c0-.276.224-.5.5-.5h20.033c.276 0 .5.224.5.5zm-19.033 8.5h7.504v-7h-7.504zm9.504 0h7.529v-7h-7.529zm-4.37-4.932-.582.932h1.099c.276 0 .5.224.5.5-.015.54-.212 1.127-.523 1.53-.311.402-.831.74-1.35.89-.527.121-1.144.078-1.612-.123-.467-.2-.925-.619-1.2-1.083-.249-.48-.362-1.089-.285-1.592s.367-1.05.749-1.434c.476-.424 1.183-.691 1.821-.686.41.025.869.166 1.224.377.112.07.192.182.222.311s.007.265-.063.378zm-5.134 14.932h7.504v-8h-7.504zm9.504 0h7.529v-8h-7.529zm7.158-6.5v5c0 .276-.224.5-.5.5h-1c-.276 0-.5-.224-.5-.5v-5c0-.276.224-.5.5-.5h1c.276 0 .5.224.5.5zm-2.478 2v3c0 .276-.224.5-.5.5h-1c-.276 0-.5-.224-.5-.5v-3c0-.276.224-.5.5-.5h1c.276 0 .5.224.5.5zm-2.403 1v2c0 .276-.224.5-.5.5h-1c-.276 0-.5-.224-.5-.5v-2c0-.276.224-.5.5-.5h1c.276 0 .5.224.5.5z"/></svg>