<svg viewBox="0 0 22 22" xmlns="http://www.w3.org/2000/svg"><path fill="rgb(255, 255, 255)" d="m19.5 11.002c-.02 1.854-.569 3.429-1.538 4.839l3.099 3.098c.252.283.439.716.439 1.061s-.187.778-.439 1.061c-.283.252-.716.439-1.061.439s-.778-.187-1.061-.439l-3.098-3.099c-1.41.969-2.987 1.518-4.841 1.538-2.311-.022-4.5-.979-6.01-2.49-1.511-1.51-2.49-3.699-2.49-6.01s.979-4.5 2.49-6.01c1.51-1.511 3.699-2.49 6.01-2.49s4.5.979 6.01 2.49c1.511 1.51 2.468 3.701 2.49 6.012zm-13.096-4.598c-1.204 1.204-1.904 2.765-1.904 4.596s.7 3.392 1.904 4.596 2.765 1.904 4.596 1.904 3.392-.7 4.596-1.904 1.904-2.765 1.904-4.596-.7-3.392-1.904-4.596-2.765-1.904-4.596-1.904-3.392.7-4.596 1.904zm5.596 9.087h-1c-.282 0-.51-.22-.51-.491v-4.996c.001-.225.004-.504.012-.836l-.655.52c-.107.083-.242.123-.379.109-.136-.015-.261-.08-.345-.184l-.552-.673c-.083-.102-.122-.233-.105-.363.016-.129.085-.248.192-.328l2.176-1.636c.089-.067.2-.103.313-.103h.853c.282 0 .509.219.509.49v8c0 .271-.227.491-.509.491z" stroke-linecap="round"/></svg>