<svg viewBox="0 0 22 22" xmlns="http://www.w3.org/2000/svg"><path fill="rgb(255, 255, 255)" d="m19.71 2.5v2.842c0 .276-.224.5-.5.5h-1c-.276 0-.5-.224-.5-.5v-1.342h-11v3.5c0 .276-.224.5-.5.5h-3.5v9h1.5c.276 0 .5.224.5.5v1c0 .276-.224.5-.5.5h-3c-.276 0-.5-.224-.5-.5v-12c0-.133.053-.26.146-.354l4-4c.094-.093.221-.146.354-.146h14c.276 0 .5.224.5.5zm-5.143 4.646 1.774 1.772 1.771-1.772c.094-.093.222-.146.354-.146.133 0 .26.053.354.147 0 0 .613.625.614.634.068.041.126.099.168.169.018.03.032.061.044.094 0 .002.001.003.001.004s.001.002.001.003c.01.031.017.063.021.096.003.018.004.036.004.055v.004.003c-.001.13-.052.256-.145.35-.001.001-.002.002-.003.003 0 0-.001.001-.001.002l-2.825 2.825c-.099.098-.229.147-.358.146-.131.001-.262-.048-.36-.146l-1.769-1.77-3.236 3.237c-.084.083-.193.134-.309.144h.418c.133 0 .26.053.354.146l3.085 3.086c.116.093.186.235.186.389v1.414c0 .083-.02.162-.057.232.036.07.057.149.057.233v1c0 .276-.224.5-.5.5h-7c-.276 0-.5-.224-.5-.5v-10c0-.276.224-.5.5-.5h1c.276 0 .5.224.5.5v1.502h1.291l3.855-3.856c.099-.098.227-.147.356-.146.129-.001.257.048.355.146zm-4.103 7.854h-1.754v3h4.754zm8.825-2.615v1.5h1.5c.276 0 .5.224.5.5v1c0 .276-.224.5-.5.5h-1.5v1.5c0 .276-.224.5-.5.5h-1c-.276 0-.5-.224-.5-.5v-1.5h-1.5c-.276 0-.5-.224-.5-.5v-1c0-.276.224-.5.5-.5h1.5v-1.5c0-.276.224-.5.5-.5h1c.276 0 .5.224.5.5z"/></svg>