<svg viewBox="0 0 22 22" xmlns="http://www.w3.org/2000/svg"><path fill="rgb(255, 255, 255)" d="m21 2v10c0 .276-.224.5-.5.5h-8.5v7.5c0 .276-.224.5-.5.5h-10c-.276 0-.5-.224-.5-.5v-18c0-.276.224-.5.5-.5h19c.276 0 .5.224.5.5zm-18 8.5h7v-7h-7zm9 0h7v-7h-7zm-4.017-4.932-.582.932h1.099c.276 0 .5.224.5.5-.015.54-.212 1.127-.523 1.53-.311.402-.831.74-1.35.89-.527.121-1.144.078-1.612-.123-.467-.2-.925-.619-1.2-1.083-.249-.48-.362-1.089-.285-1.592s.367-1.05.749-1.434c.476-.424 1.183-.691 1.821-.686.41.025.869.166 1.224.377.112.07.192.182.222.311s.007.265-.063.378zm-4.983 12.932h7v-6h-7zm11.263 2c-.233 0-.43-.081-.59-.241-.161-.161-.241-.358-.241-.59v-1.38c0-.1.021-.198.062-.293.041-.094.103-.185.186-.272l3.742-3.728c.132-.131.279-.23.439-.295.162-.065.325-.098.488-.098.176 0 .344.035.503.106s.31.172.451.301l.654.653c.129.13.225.276.283.434.059.159.088.321.088.487 0 .176-.032.346-.097.508-.065.164-.163.312-.293.449l-3.713 3.729c-.086.083-.177.142-.27.176-.094.036-.198.054-.312.054zm.496-1.326h.67l2.087-2.1-.077-.082.077.077-.317-.336-.336-.318-2.104 2.082zm2.68-2.182-.576-.577.336.321z"/></svg>