<svg viewBox="0 0 22 22" xmlns="http://www.w3.org/2000/svg"><path fill="rgb(255, 255, 255)" d="m4.921 3.143v13.5h13.5c.276 0 .5.224.5.5v1c0 .276-.224.5-.5.5h-13.5v.5c0 .276-.224.5-.5.5h-1c-.276 0-.5-.224-.5-.5v-.5h-.5c-.276 0-.5-.224-.5-.5v-1c0-.276.224-.5.5-.5h.5v-13.5c0-.276.224-.5.5-.5h1c.276 0 .5.224.5.5zm7.582 6.944 1.185-.677 3.865-6.763c.137-.24.442-.323.682-.186l.868.496c.24.137.323.442.186.682l-4.067 7.119c-.044.078-.108.142-.186.186l-1.381.789.395.566 5.687 1.895c.262.087.404.37.316.632l-.316.95c-.041.126-.132.23-.25.289-.119.06-.256.069-.382.027l-6.156-2.053c-.102-.034-.19-.099-.252-.187l-.785-1.123-3.995 2.282c-.24.137-.545.054-.682-.186l-.496-.868c-.066-.115-.083-.252-.048-.38s.119-.236.234-.302l3.835-2.19-5.159-7.368c-.076-.109-.105-.243-.082-.374.023-.13.097-.247.205-.323l.82-.574c.226-.158.538-.103.697.123z"/></svg>