<svg viewBox="0 0 22 22" xmlns="http://www.w3.org/2000/svg"><path fill="rgb(255, 255, 255)" d="m19.5 11.002c-.02 1.854-.569 3.429-1.538 4.839l3.099 3.098c.252.283.439.716.439 1.061s-.187.778-.439 1.061c-.283.252-.716.439-1.061.439s-.778-.187-1.061-.439l-3.098-3.099c-1.41.969-2.987 1.518-4.841 1.538-2.311-.022-4.5-.979-6.01-2.49-1.511-1.51-2.49-3.699-2.49-6.01s.979-4.5 2.49-6.01c1.51-1.511 3.699-2.49 6.01-2.49s4.5.979 6.01 2.49c1.511 1.51 2.468 3.701 2.49 6.012zm-13.096-4.598c-1.204 1.204-1.904 2.765-1.904 4.596s.7 3.392 1.904 4.596 2.765 1.904 4.596 1.904 3.392-.7 4.596-1.904 1.904-2.765 1.904-4.596-.7-3.392-1.904-4.596-2.765-1.904-4.596-1.904-3.392.7-4.596 1.904zm2.488 6.832c.444.312.954.435 1.668.435.531 0 .797-.081 1.02-.29.219-.204.295-.425.295-.907 0-.438-.069-.623-.289-.811-.231-.197-.518-.277-1.069-.277-.293 0-.664.041-1.159.132-.123.023-.251-.002-.357-.07l-.487-.308c-.156-.099-.245-.277-.23-.462l.297-3.718c.021-.259.237-.46.498-.46h3.729c.276 0 .5.224.5.5v.897c0 .276-.224.5-.5.5h-2.419l-.111 1.184c.195-.018.182-.028.574-.028.836 0 1.612.284 2.162.747.534.503.872 1.253.872 2.066 0 .932-.347 1.769-.907 2.324-.589.511-1.459.819-2.441.819-.861 0-1.631-.184-2.18-.498-.151-.091-.244-.254-.244-.429v-.93c0-.184.102-.354.265-.441.162-.087.359-.077.513.025z" stroke-linecap="round"/></svg>