<svg viewBox="0 0 22 22" xmlns="http://www.w3.org/2000/svg"><path fill="rgb(255, 255, 255)" d="m19.5 3v2.846c0 .14-.059.273-.162.368l-3.838 3.523v.763h2.5c.276 0 .5.224.5.5v1c0 .276-.224.5-.5.5h-2.795l-3.705 3.401v3.099c0 .276-.224.5-.5.5h-1c-.276 0-.5-.224-.5-.5v-1.263l-1.777 1.631c-.092.085-.213.132-.338.132h-4.385c-.276 0-.5-.224-.5-.5v-1c0-.276.224-.5.5-.5h3.801l2.699-2.478v-2.522h-6.5c-.276 0-.5-.224-.5-.5v-1c0-.276.224-.5.5-.5h6.5v-6.5c0-.276.224-.5.5-.5h1c.276 0 .5.224.5.5v6.5h2v-1.422c0-.14.059-.274.162-.368l3.838-3.523v-2.187c0-.276.224-.5.5-.5h1c.276 0 .5.224.5.5zm-8 10.186.747-.686h-.747z"/></svg>