<svg height="48" viewBox="0 -960 960 960" width="48" xmlns="http://www.w3.org/2000/svg"><path fill="rgb(255, 255, 255)" d="m239.082-504.83c-21.404 0-39.725-7.63-54.964-22.88-15.239-15.26-22.859-33.84-22.859-55.77v-137.43c0-21.63 7.62-40.14 22.859-55.54 15.239-15.41 33.56-23.11 54.964-23.11h138.258c21.399 0 39.72 7.7 54.964 23.11 15.239 15.4 22.858 33.91 22.858 55.54v137.43c0 21.93-7.619 40.51-22.858 55.77-15.244 15.25-33.565 22.88-54.964 22.88zm0 343.58c-21.404 0-39.725-7.62-54.964-22.86s-22.859-33.56-22.859-54.96v-138.26c0-21.4 7.62-39.72 22.859-54.97 15.239-15.24 33.56-22.85 54.964-22.85h138.258c21.399 0 39.72 7.61 54.964 22.85 15.239 15.25 22.858 33.57 22.858 54.97v138.26c0 21.4-7.619 39.72-22.858 54.96-15.244 15.24-33.565 22.86-54.964 22.86zm344.404-343.58c-21.923 0-40.511-7.63-55.767-22.88-15.256-15.26-22.883-33.84-22.883-55.77v-137.43c0-21.63 7.627-40.14 22.883-55.54 15.256-15.41 33.844-23.11 55.767-23.11h137.431c21.63 0 40.144 7.7 55.543 23.11 15.405 15.4 23.107 33.91 23.107 55.54v137.43c0 21.93-7.702 40.51-23.107 55.77-15.399 15.25-33.913 22.88-55.543 22.88zm0 343.58c-21.923 0-40.511-7.62-55.767-22.86s-22.883-33.56-22.883-54.96v-138.26c0-21.4 7.627-39.72 22.883-54.97 15.256-15.24 33.844-22.85 55.767-22.85h137.431c21.63 0 40.144 7.61 55.543 22.85 15.405 15.25 23.107 33.57 23.107 54.97v138.26c0 21.4-7.702 39.72-23.107 54.96-15.399 15.24-33.913 22.86-55.543 22.86zm-344.404-422.23h138.258v-137.43h-138.258zm344.404 0h137.431v-137.43h-137.431zm0 344.41h137.431v-138.26h-137.431zm-344.404 0h138.258v-138.26h-138.258zm-223.713-605.43c0-25.35 8.503-46.66 25.657-63.9 16.98-17.08 38.108-25.86 62.986-25.86h116.954c12.454 0 23.014 4.56 31.493 13.42 8.68 8.94 12.835 19.49 12.835 31.88 0 12.56-4.155 22.84-12.835 31.51-8.479 8.58-19.039 12.95-31.493 12.95h-116.954v730.11h116.954c12.454 0 23.014 4.19 31.493 12.74 8.68 8.532 12.835 18.939 12.835 31.506 0 12.394-4.155 22.949-12.835 31.501-8.479 8.71-19.039 12.899-31.493 12.899h-116.954c-24.878 0-46.006-8.544-62.986-25.466-17.154-17.096-25.657-38.207-25.657-63.18zm929.262 730.11c0 24.973-8.494 46.084-25.657 63.18-16.979 16.922-38.107 25.466-63.008 25.466h-116.95c-12.438 0-23.014-4.189-31.493-12.899-8.68-8.552-12.835-19.107-12.835-31.501 0-12.567 4.155-22.974 12.835-31.506 8.479-8.55 19.055-12.74 31.493-12.74h116.95v-730.11h-116.95c-12.438 0-23.014-4.37-31.493-12.95-8.68-8.67-12.835-19.12-12.835-31.51s4.155-23.11 12.835-32.05c8.479-8.69 19.055-13.25 31.493-13.25h116.95c24.901 0 46.029 8.78 63.008 25.86 17.163 17.24 25.657 38.55 25.657 63.9z"/></svg>