<svg viewBox="0 0 22 22" xmlns="http://www.w3.org/2000/svg"><path fill="rgb(255, 255, 255)" d="m4.831 3.185v13.5h13.5c.276 0 .5.224.5.5v1c0 .276-.224.5-.5.5h-13.5v.5c0 .276-.224.5-.5.5h-1c-.276 0-.5-.224-.5-.5v-.5h-.5c-.276 0-.5-.224-.5-.5v-1c0-.276.224-.5.5-.5h.5v-13.5c0-.276.224-.5.5-.5h1c.276 0 .5.224.5.5zm15.176.738-6.287 5.762h.611c.276 0 .5.224.5.5v.5h.5c.276 0 .5.224.5.5v1c0 .276-.224.5-.5.5h-.5v.5c0 .276-.224.5-.5.5h-1c-.276 0-.5-.224-.5-.5v-.5h-.5c-.276 0-.5-.224-.5-.5v-.768l-2 1.833v.935c0 .276-.224.5-.5.5h-.5v.5c0 .276-.224.5-.5.5h-1c-.276 0-.5-.224-.5-.5v-.5h-.5c-.276 0-.5-.224-.5-.5v-1c0-.276.224-.5.5-.5h.5v-.5c0-.276.224-.5.5-.5h1c.071 0 .139.015.201.042l10.123-9.28c.098-.089.227-.136.36-.131.133.006.257.064.347.162l.676.739c.186.203.172.519-.031.706zm-6.697-.738v.5h.5c.276 0 .5.224.5.5v1c0 .276-.224.5-.5.5h-.5v.5c0 .276-.224.5-.5.5h-1c-.277 0-.5-.224-.5-.5v-.5h-.5c-.277 0-.5-.224-.5-.5v-1c0-.276.223-.5.5-.5h.5v-.5c0-.276.223-.5.5-.5h1c.276 0 .5.224.5.5zm5.521 4v.5h.5c.276 0 .5.224.5.5v1c0 .276-.224.5-.5.5h-.5v.5c0 .276-.224.5-.5.5h-1c-.276 0-.5-.224-.5-.5v-.5h-.5c-.276 0-.5-.224-.5-.5v-1c0-.276.224-.5.5-.5h.5v-.5c0-.276.224-.5.5-.5h1c.276 0 .5.224.5.5zm-6 3.5v-.185l-.202.185z"/></svg>