<svg height="48" viewBox="0 -960 960 960" width="48" xmlns="http://www.w3.org/2000/svg"><path fill="rgb(255, 255, 255)" d="m906-168-87-86v-301h-301l-87-87h380c26.127 0 48.49 9.303 67.09 27.91 18.607 18.6 27.91 40.963 27.91 67.09zm-500 26h324l-324-324zm7 87c-26.267 0-48.5-9.1-66.7-27.3s-27.3-40.433-27.3-66.7v-403l-44.698-47.194c-6.833-6.807-10.25-15.183-10.25-25.13s3.65-18.587 10.95-25.92c6.94-6.667 15.183-10 24.73-10s17.987 3.333 25.32 10l567.948 571.244c6.667 6.667 10 14.833 10 24.5s-3.65 18.167-10.95 25.5c-6.94 6.667-15.183 10-24.73 10s-18.027-3.467-25.44-10.4l-24.88-25.6zm-266.594-261.74c-25.941 0-48.144-9.03-66.614-27.11-18.494-18.27-27.748-40.57-27.748-67.25v-399.54c0-26.89 9.254-49.38 27.748-67.86 18.47-18.26 40.673-27.5 66.614-27.5h399.529c26.903 0 49.53 9.24 67.88 27.5 18.328 18.48 27.486 40.97 27.486 67.86v66.25c0 11.85-4.237 22.09-12.73 30.52-8.472 8.45-18.852 12.66-31.121 12.66-12.266 0-22.565-4.21-30.939-12.66-8.369-8.43-12.544-18.67-12.544-30.52v-74.28h-414.589v414.59h74.285c12.086 0 22.466 4.41 31.14 13.06 8.694 8.62 13.031 19.06 13.031 31.1s-4.337 22.28-13.031 30.74c-8.674 8.23-19.054 12.44-31.14 12.44z"/></svg>