<svg viewBox="0 0 22 22" xmlns="http://www.w3.org/2000/svg"><path fill="rgb(255, 255, 255)" d="m19.5 2.496v17.058c0 .276-.224.5-.5.5h-16c-.276 0-.5-.224-.5-.5v-17.058c0-.276.224-.5.5-.5h16c.276 0 .5.224.5.5zm-15 3.137c1.899-.724 3.894-1.125 6.499-1.133 2.607.009 4.602.412 6.501 1.138v-1.642h-13zm0 2.127v.947c1.584-.743 3.532-1.2 6.5-1.207 2.965.006 4.914.461 6.5 1.203v-.947c-1.77-.815-3.929-1.258-6.5-1.256-2.571-.001-4.731.443-6.5 1.26zm1.688 2.306c-.605.173-1.044.358-1.358.57-.286.193-.33.237-.33.364s.044.171.33.364c.314.212.753.397 1.358.57 1.23.351 2.911.566 4.812.566s3.582-.215 4.812-.566c.605-.173 1.044-.358 1.358-.57.286-.193.33-.237.33-.364s-.044-.171-.33-.364c-.314-.212-.753-.397-1.358-.57-1.23-.351-2.911-.566-4.812-.566s-3.582.215-4.812.566zm4.812 4.434c-2.965-.006-4.914-.461-6.5-1.203v.943c1.769.817 3.928 1.261 6.5 1.26 2.571.002 4.73-.441 6.5-1.256v-.951c-1.584.743-3.532 1.2-6.5 1.207zm.001 3c-2.605-.008-4.602-.409-6.501-1.133v1.687h13v-1.692c-1.899.726-3.893 1.129-6.499 1.138z"/></svg>