<svg viewBox="0 0 22 22" xmlns="http://www.w3.org/2000/svg"><path fill="rgb(255, 255, 255)" d="m19.5 11c-.022 2.311-.979 4.5-2.49 6.01-1.51 1.511-3.699 2.49-6.01 2.49s-4.5-.979-6.01-2.49c-1.511-1.51-2.468-3.699-2.49-6.01.022-2.311.979-4.5 2.49-6.01 1.51-1.511 3.699-2.49 6.01-2.49s4.5.979 6.01 2.49c1.511 1.51 2.468 3.699 2.49 6.01zm-13.096-4.596c-1.204 1.204-1.904 2.765-1.904 4.596s.7 3.392 1.904 4.596 2.765 1.904 4.596 1.904 3.392-.7 4.596-1.904 1.904-2.765 1.904-4.596-.7-3.392-1.904-4.596-2.765-1.904-4.596-1.904-3.392.7-4.596 1.904zm4.596-.904c1.422.02 2.869.621 3.887 1.613.195.196.195.512 0 .707l-.707.707c-.094.094-.221.147-.354.147s-.26-.053-.354-.147c-.668-.696-1.508-1.045-2.472-1.027-1.003-.022-1.814.364-2.475 1.025s-1.025 1.473-1.025 2.475.364 1.814 1.025 2.475 1.472 1.047 2.475 1.025c.965.018 1.804-.331 2.472-1.027.094-.094.221-.147.354-.147s.26.053.354.147l.707.707c.195.195.195.511 0 .707-1.018.992-2.466 1.593-3.887 1.613-1.483-.022-2.921-.643-3.889-1.611s-1.611-2.406-1.611-3.889.643-2.921 1.611-3.889 2.407-1.589 3.889-1.611z"/></svg>