<svg height="48" viewBox="0 -960 960 960" width="48" xmlns="http://www.w3.org/2000/svg"><path fill="rgb(255, 255, 255)" d="m153-731 325 193 325-193zm-4 584c-26.533 0-48.833-9.033-66.9-27.1s-27.1-40.367-27.1-66.9v-490c0-26.807 9.033-49.343 27.1-67.61 18.067-18.26 40.367-27.39 66.9-27.39h659c26.807 0 49.343 9.13 67.61 27.39 18.26 18.267 27.39 40.803 27.39 67.61v162.75c0 13.167-5.227 24.29-15.68 33.37-10.447 9.087-25.28 13.63-44.5 13.63-9.6 0-17.803-3.35-24.61-10.05s-10.21-14.683-10.21-23.95v-96.75l-306.76 183.79c-3.947 2.36-11.603 4.097-22.97 5.21-4.973 0-9.093-.333-12.36-1-3.273-.667-6.91-2-10.91-4l-306-184v411h348.88c13.167 0 24.293 4.56 33.38 13.68 9.08 9.113 13.62 20.28 13.62 33.5 0 13.213-4.54 24.32-13.62 33.32-9.087 9-20.213 13.5-33.38 13.5zm497.252-35.04c-7.276 7.34-15.929 10.79-25.959 10.79-10.902 0-19.924-3.45-27.039-10.79-7.139-7.11-10.696-16.06-10.696-27.08v-224.93c0-15.16 5.21-27.78 15.632-38.34 10.42-10.32 23.182-15.6 38.307-15.6h164.114c10.328 0 18.064 4.81 23.229 14.46 5.164 9.41 4.682 18.82-1.423 28l-37.873 51.64 37.873 51.64c6.105 10.11 6.587 19.74 1.423 29.39-5.165 9.41-12.901 14.24-23.229 14.24h-143.456v89.5c0 11.02-3.649 19.97-10.903 27.08z"/></svg>