<svg height="48" viewBox="0 -960 960 960" width="48" xmlns="http://www.w3.org/2000/svg"><path fill="rgb(255, 255, 255)" d="m153-731 325 193 325-193zm-4 584c-26.533 0-48.833-9.033-66.9-27.1s-27.1-40.367-27.1-66.9v-490c0-26.807 9.033-49.343 27.1-67.61 18.067-18.26 40.367-27.39 66.9-27.39h659c26.807 0 49.343 9.13 67.61 27.39 18.26 18.267 27.39 40.803 27.39 67.61v210c0 13.167-5.227 24.29-15.68 33.37-10.447 9.087-25.28 13.63-44.5 13.63-9.6 0-17.803-3.35-24.61-10.05s-10.21-14.683-10.21-23.95v-144l-306.76 183.79c-3.947 2.36-11.603 4.097-22.97 5.21-4.973 0-9.093-.333-12.36-1-3.273-.667-6.91-2-10.91-4l-306-184v411h389.537c13.167 0 24.293 4.56 33.38 13.68 9.08 9.113 13.62 20.28 13.62 33.5 0 13.213-4.54 24.32-13.62 33.32-9.087 9-20.213 13.5-33.38 13.5zm556.452-25.7c-12.005 0-22.086-4.18-30.258-12.54-8.173-8.17-12.26-18.33-12.26-30.33 0-11.98 4.14-22.15 12.422-30.31 8.264-8.19 18.418-12.18 30.423-12.18 11.987 0 22.085 3.99 30.259 12.34 8.173 8.17 12.26 18.34 12.26 30.33 0 12.01-4.142 22.17-12.424 30.34-8.283 8.17-18.416 12.35-30.422 12.35zm0-139.84c-12.005 0-22.086-4.18-30.258-12.54-8.173-8.19-12.26-18.53-12.26-31.06v-108.97c0-11.99 4.14-22.15 12.422-30.35 8.264-8.35 18.418-12.33 30.423-12.33 11.987 0 22.085 3.98 30.259 12.33 8.173 8.2 12.26 18.36 12.26 30.35v108.97c0 12.53-4.142 22.87-12.424 31.06-8.283 8.36-18.416 12.54-30.422 12.54z"/></svg>