<svg height="48" viewBox="0 -960 960 960" width="48" xmlns="http://www.w3.org/2000/svg"><path fill="rgb(255, 255, 255)" d="m153-731 325 193 325-193zm-4 584c-26.533 0-48.833-9.033-66.9-27.1s-27.1-40.367-27.1-66.9v-490c0-26.807 9.033-49.343 27.1-67.61 18.067-18.26 40.367-27.39 66.9-27.39h659c26.807 0 49.343 9.13 67.61 27.39 18.26 18.267 27.39 40.803 27.39 67.61v195.715c0 13.167-5.227 24.29-15.68 33.37-10.447 9.087-25.28 13.63-44.5 13.63-9.6 0-17.803-3.35-24.61-10.05s-10.21-14.683-10.21-23.95v-129.715l-306.76 183.79c-3.947 2.36-11.603 4.097-22.97 5.21-4.973 0-9.093-.333-12.36-1-3.273-.667-6.91-2-10.91-4l-306-184v411h383.142c13.167 0 24.293 4.56 33.38 13.68 9.08 9.113 13.62 20.28 13.62 33.5 0 13.213-4.54 24.32-13.62 33.32-9.087 9-20.213 13.5-33.38 13.5zm555.634-63.77c-38.981 0-71.912-13.54-98.791-40.78-26.881-27.08-40.321-59.9-40.321-98.33 0-38.57 13.44-71.25 40.321-98.48 26.879-27.08 59.81-40.63 98.791-40.63 38.481 0 71.293 13.55 98.425 40.63 27.115 27.23 40.688 59.91 40.688 98.48 0 38.43-13.573 71.25-40.688 98.33-27.132 27.24-59.944 40.78-98.425 40.78zm12.513-142.34v-67.43c0-4.85-1.825-9.12-5.461-12.52-3.637-3.52-7.891-5.14-12.734-5.14-5.049 0-9.54 1.76-13.455 5.44-3.93 3.54-5.888 8.24-5.888 13.7v65.5c0 4.87.854 9.27 2.576 13.25 1.708 3.98 4.049 7.66 6.993 11.04l44.898 46.37c3.431 3.39 7.729 5.16 12.881 5.16s9.436-2.06 12.881-6.04c3.429-3.97 5.27-8.39 5.521-13.25.234-4.86-1.606-9.28-5.521-13.1z"/></svg>