<svg clip-rule="evenodd" fill-rule="evenodd" stroke-linejoin="round" stroke-miterlimit="2" viewBox="0 0 48 48" xmlns="http://www.w3.org/2000/svg"><path fill="rgb(255, 255, 255)" d="m151.5-134.5c-26.7 0-49.543-9.33-68.53-27.98-18.98-18.65-28.47-40.65-28.47-66.02v-502c0-25.64 9.157-47.88 27.47-66.73 18.32-18.85 40.497-28.27 66.53-28.27h662c25.64 0 47.883 9.42 66.73 28.27s28.27 41.09 28.27 66.73v157.414c0 13.17-4.753 24.29-14.26 33.37-9.513 9.09-20.847 13.63-34 13.63-13.16 0-24.24-4.54-33.24-13.63-9-9.08-13.5-20.2-13.5-33.37v-74.414l-305 200c-3.873 2.67-8.01 4.5-12.41 5.5-4.393 1-8.923 1.5-13.59 1.5s-9.197-.5-13.59-1.5c-4.4-1-8.537-2.83-12.41-5.5l-305-200v419h390.858c13.167 0 24.293 4.56 33.38 13.68 9.08 9.11 13.62 20.28 13.62 33.5 0 13.21-4.54 24.32-13.62 33.32-9.087 9-20.213 13.5-33.38 13.5zm328-383 331-213h-662zm-13.546 166.844-.03-1.224c0-3.74.836-7.47 2.491-11.21 1.669-3.73 3.949-7.1 6.852-9.97l64.134-63.51c5.818-5.86 12.669-8.71 20.554-8.71l1.187.022 1.239-.022c8.308 0 15.371 2.87 21.177 8.72 5.818 5.86 8.72 12.72 8.72 20.56 0 7.85-2.691 14.7-8.097 20.56l-44.781 44.784 44.781 44.784c5.406 5.86 8.097 12.71 8.097 20.56 0 7.84-2.902 14.7-8.72 20.56-5.806 5.85-12.869 8.72-21.177 8.72l-1.239-.021-1.187.021c-7.885 0-14.736-2.85-20.554-8.71l-64.134-63.51c-2.903-2.87-5.183-6.24-6.852-9.97-1.655-3.74-2.491-7.47-2.491-11.21zm227.227 28.056 70.383 70.38c5.406 5.86 8.097 12.71 8.097 20.56 0 7.84-2.902 14.7-8.721 20.56-5.394 5.85-12.245 8.72-20.553 8.72-8.296 0-15.36-2.87-21.177-8.72l-119.59-119.6c-2.902-2.86-5.181-6.22-6.851-9.96-1.657-3.74-2.491-7.49-2.491-11.22 0-3.74.834-7.47 2.491-11.21 1.67-3.73 3.949-7.1 6.851-9.97l120.212-120.21c5.818-5.86 12.881-8.71 21.177-8.71 8.31 0 15.16 2.85 20.555 8.71 5.817 5.85 8.718 12.72 8.718 20.81 0 8.1-2.901 14.95-8.718 20.3l-70.383 71.02h77.781c38.207 0 70.184 12.82 95.922 38.6 25.748 25.8 38.616 57.57 38.616 95.3v83.46c0 8.35-2.903 15.2-8.72 20.8-5.805 5.63-12.868 8.48-21.178 8.48-8.296 0-15.258-2.85-20.865-8.48-5.606-5.6-8.409-12.45-8.409-20.8v-83.46c0-22.43-6.951-40.61-20.865-54.56-13.903-13.83-32.078-20.8-54.501-20.8z" transform="matrix(.05 0 0 .05 0 48)"/></svg>