<svg height="48" viewBox="0 -960 960 960" width="48" xmlns="http://www.w3.org/2000/svg"><path fill="rgb(255, 255, 255)" d="m214-699c-13.167 0-24.46-4.56-33.88-13.68-9.413-9.11-14.12-20.28-14.12-33.5 0-13.21 4.707-24.32 14.12-33.32 9.42-9 20.713-13.5 33.88-13.5h534.5c13.16 0 24.28 4.6 33.36 13.8 9.099 9 13.639 20.2 13.639 33.4s-4.54 24.4-13.639 33.4c-9.08 9-20.2 13.4-33.36 13.4zm267 533c-7.72 0-15.06-1.83-22.02-5.5-6.953-3.67-12.613-8.83-16.98-15.5l-230-346c-10.667-16-11.417-32.33-2.25-49s22.917-25 41.25-25h460.5c18.34 0 32.08 8.4 41.24 25 9.18 16.8 8.42 33-2.241 49l-229.999 346c-4.36 6.8-10.02 11.8-16.98 15.6-6.96 3.6-14.3 5.4-22.02 5.4-.084 0-.167 0-.251 0-.083 0-.166 0-.249 0zm.25-134.37 143.75-211.63h-287.5z"/></svg>