<svg height="48" viewBox="0 -960 960 960" width="48" xmlns="http://www.w3.org/2000/svg"><path fill="rgb(255, 255, 255)" d="m275-302c-13.167 0-24.29-4.56-33.37-13.68-9.087-9.11-13.63-20.61-13.63-34.5 0-13.21 4.543-24.32 13.63-33.32 9.08-9 20.203-13.5 33.37-13.5h410.499c13.167 0 24.46 4.56 33.88 13.68 9.413 9.11 14.12 20.28 14.12 33.5 0 13.88-4.707 25.32-14.12 34.32-9.42 9-20.713 13.5-33.88 13.5zm0-189c-13.167 0-24.29-4.56-33.37-13.68-9.087-9.11-13.63-20.28-13.63-33.5 0-13.21 4.543-24.32 13.63-33.32 9.08-9 20.203-13.5 33.37-13.5h410c13.167 0 24.293 4.56 33.38 13.68 9.08 9.11 13.62 20.28 13.62 33.5 0 13.21-4.54 24.32-13.62 33.32-9.087 9-20.213 13.5-33.38 13.5zm0-188c-13.167 0-24.29-4.56-33.37-13.68-9.087-9.11-13.63-20.28-13.63-33.5 0-13.21 4.543-24.32 13.63-33.32 9.08-9 20.203-13.5 33.37-13.5h410c13.167 0 24.293 4.56 33.38 13.68 9.08 9.11 13.62 20.28 13.62 33.5 0 13.21-4.54 24.32-13.62 33.32-9.087 9-20.213 13.5-33.38 13.5z"/></svg>