<svg height="48" viewBox="0 -960 960 960" width="48" xmlns="http://www.w3.org/2000/svg"><path fill="rgb(255, 255, 255)" d="m173-240v-480q0-19.75 13.68-33.38 13.67-13.62 33.5-13.62 19.82 0 33.32 13.62 13.5 13.63 13.5 33.38v480q0 19.75-13.68 33.37-13.67 13.63-33.5 13.63-19.82 0-33.32-13.63-13.5-13.62-13.5-33.37zm540-4-285-197q-11-7-16-17.3-5-10.29-5-21.7t5-21.7q5-10.3 16-17.3l285-197q6-4 13-6.5t14-2.5q19 0 33 13.25t14 33.75v396q0 20.5-14 33.75t-33 13.25q-7 0-14-2.5t-13-6.5zm-20-128v-216l-156 108z"/></svg>