<svg height="48" viewBox="0 -960 960 960" width="48" xmlns="http://www.w3.org/2000/svg"><path fill="rgb(255, 255, 255)" d="m261-189 42 42c8.667 8.667 13 18.833 13 30.5s-4.227 21.887-12.68 30.66c-8.187 8.773-18.287 13.273-30.3 13.5s-22.353-3.993-31.02-12.66l-114-114c-4.967-4.533-8.71-9.71-11.23-15.53-2.513-5.827-3.77-11.86-3.77-18.1 0-6.247 1.257-12.237 3.77-17.97 2.52-5.733 6.263-10.867 11.23-15.4l114-114c8.667-8.667 19.167-12.833 31.5-12.5s22.47 4.833 30.41 13.5c8.227 8.667 12.3 19 12.22 31-.087 12-4.463 22-13.13 30l-42 42h438v-117c0-11.753 4.253-21.857 12.76-30.31 8.513-8.46 18.68-12.69 30.5-12.69 11.827 0 22.073 4.23 30.74 12.69 8.667 8.453 13 18.557 13 30.31v109c0 26.807-9.13 49.343-27.39 67.61-18.267 18.26-40.803 27.39-67.61 27.39zm439-488h-438v117c0 11.747-4.32 21.85-12.96 30.31-8.647 8.46-18.98 12.69-31 12.69-12.027 0-22.207-4.23-30.54-12.69s-12.5-18.563-12.5-30.31v-109c0-26.807 9.033-49.343 27.1-67.61 18.067-18.26 40.367-27.39 66.9-27.39h431l-42-42c-9.333-8-14-18-14-30s4.43-22.373 13.29-31.12c8.64-8.747 18.92-13.247 30.84-13.5 11.913-.253 22.203 3.953 30.87 12.62l114 114c4.667 4.773 8.333 10.21 11 16.31 2.667 6.107 4 12.073 4 17.9 0 5.833-1.333 11.757-4 17.77s-6.333 11.353-11 16.02l-114 114c-9.38 8.667-20.037 12.847-31.97 12.54s-22.067-4.807-30.4-13.5c-8.587-8.693-12.837-19.04-12.75-31.04.08-12 4.787-22.333 14.12-31zm-220.352 243.33-56.251 56.96c-6.554 6.6-14.289 9.84-23.203 9.84-8.903 0-16.637-3.24-23.204-9.84-6.553-6.48-9.844-14.34-9.844-23.48s3.291-17.02 9.844-23.63l56.251-56.24-56.954-56.26c-6.553-6.47-9.844-14.19-9.844-23.2 0-8.86 3.291-16.6 9.844-23.07 6.567-6.61 14.414-9.99 23.555-9.99 9.14 0 17.001 3.38 23.555 9.99l56.251 56.24 56.25-56.94c6.568-6.61 14.302-9.84 23.205-9.84 8.915 0 16.649 3.23 23.203 9.84 7.031 6.46 10.547 14.34 10.547 23.47 0 9.16-3.516 17.17-10.547 24.2l-55.548 55.56 56.954 56.24c6.568 6.61 9.844 14.34 9.844 23.34 0 8.85-3.516 16.6-10.547 23.06-6.553 6.61-14.415 9.85-23.555 9.85-9.141 0-16.988-3.24-23.556-9.85z"/></svg>