<svg clip-rule="evenodd" fill-rule="evenodd" stroke-linejoin="round" stroke-miterlimit="2" viewBox="0 0 48 48" xmlns="http://www.w3.org/2000/svg"><path fill="rgb(255, 255, 255)" d="m19.55 26.35c-.658 0-1.214-.228-1.668-.684-.455-.456-.682-1.014-.682-1.675s.227-1.216.682-1.666c.454-.45 1.01-.675 1.668-.675h8.9c.658 0 1.215.228 1.669.684.454.455.681 1.014.681 1.675 0 .66-.227 1.216-.681 1.666s-1.011.675-1.669.675zm16.6 0c-.658 0-1.214-.228-1.668-.684-.455-.456-.682-1.014-.682-1.675s.227-1.216.682-1.666c.454-.45 1.01-.675 1.668-.675h8.35c.658 0 1.215.228 1.669.684.454.455.681 1.014.681 1.675 0 .66-.227 1.216-.681 1.666s-1.011.675-1.669.675zm-32.65 0c-.658 0-1.214-.228-1.668-.684-.455-.456-.682-1.014-.682-1.675s.227-1.216.682-1.666c.454-.45 1.01-.675 1.668-.675h8.35c.658 0 1.215.228 1.669.684.454.455.681 1.014.681 1.675 0 .66-.227 1.216-.681 1.666s-1.011.675-1.669.675zm23.176-19.948c.623 0 1.221.248 1.662.688.44.441.688 1.039.688 1.662s-.248 1.221-.688 1.662c-.441.44-1.039.688-1.662.688-4.794 0-15.251 0-15.251 0v4.85c0 .66-.225 1.219-.675 1.67-.45.46-1.005.68-1.666.68s-1.219-.22-1.675-.68c-.456-.451-.684-1.01-.684-1.67v-4.85c0-1.29.46-2.4 1.38-3.32s2.027-1.38 3.32-1.38zm-15.251 35.196c-1.293 0-2.4-.461-3.32-1.381-.92-.919-1.38-2.026-1.38-3.319v-4.851c0-.658.228-1.214.684-1.669.456-.453 1.014-.681 1.675-.681s1.216.228 1.666.681c.45.455.675 1.011.675 1.669v4.851h25.1v-4.851c0-.658.228-1.214.684-1.669.456-.453 1.013-.681 1.671-.681.657 0 1.221.228 1.691.681.469.455.704 1.011.704 1.669v4.851c0 1.293-.465 2.4-1.394 3.319-.93.92-2.049 1.381-3.356 1.381zm20.72-26.619c-.526 0-.979-.189-1.36-.568s-.571-.837-.571-1.376.19-1.003.571-1.392.834-.583 1.36-.583h2.727v-2.67c0-.543.18-1.01.54-1.401.359-.391.82-.587 1.381-.587.545 0 1.015.196 1.408.587.394.391.59.858.59 1.401v2.67h2.67c.527 0 .98.193 1.361.58.38.386.57.852.57 1.398 0 .529-.19.985-.57 1.368-.381.382-.834.573-1.361.573h-2.67v2.67c0 .543-.189 1.01-.568 1.401-.378.391-.848.587-1.41.587-.561 0-1.025-.196-1.391-.587-.367-.391-.55-.858-.55-1.401v-2.67z" fill-rule="nonzero" stroke-width=".05"/></svg>