<svg height="48" viewBox="0 -960 960 960" width="48" xmlns="http://www.w3.org/2000/svg"><path fill="rgb(255, 255, 255)" d="m129-685.49c-9.98-9.35-15-20.34-14.6-33 .385-12.21 4.868-22.87 13.575-31.96.335-.35.676-.7 1.024-1.05.179-.18.358-.36.538-.53 8.456-8.35 18.244-12.82 29.354-13.4.862-.05 1.731-.07 2.608-.07 9.906 0 19.064 3.01 27.467 9.04 2.06 1.47 4.074 3.13 6.044 4.97l158.325 158.33 31.664 31.66c12.267 12.27 23.514 20.95 33.732 26.05 1.448.72 2.878 1.37 4.289 1.95.488.21.989.4 1.502.6 9.064 3.4 21.817 5.45 38.252 6.14 1.78.07 3.603.13 5.468.17 2.508.06 5.093.09 7.757.09h211l-18.999-19-38-38c-7.874-7.34-12.642-15.72-14.318-25.12-.455-2.55-.683-5.18-.683-7.88 0-2.19.15-4.34.449-6.43 1.314-9.19 5.513-17.42 12.61-24.67.625-.64 1.272-1.28 1.941-1.9.101-.1.203-.2.304-.3 8.465-8.46 18.408-12.99 29.407-13.62.921-.05 1.851-.08 2.789-.08 9.625 0 18.543 2.84 26.75 8.53 2.311 1.6 4.565 3.42 6.761 5.47l135.99 136c.028.03.057.06.085.09 8.769 8.81 13.396 19.4 13.873 31.76.028.71.042 1.43.042 2.15 0 .71-.014 1.41-.04 2.11-.47 12.42-5.126 23.05-13.96 31.89l-135.99 136c-.908.84-1.826 1.65-2.754 2.42-9.287 7.72-19.542 11.58-30.757 11.58-.539 0-1.075-.01-1.608-.03-11.406-.36-21.707-4.88-30.444-13.53-.149-.14-.299-.29-.448-.44-10-9.33-15-20.33-15-33 0-.8.018-1.58.055-2.36.538-11.65 5.091-21.83 13.846-30.54.033-.03.066-.07.099-.1l57.001-56.02.999-.98h-211c-23.012 0-40.204 2.14-51.568 6.44-.482.18-.952.37-1.411.56-.848.35-1.702.72-2.563 1.12-9.55 4.43-20.018 12.07-31.4 22.92-1.339 1.27-2.691 2.59-4.057 3.96l-189.99 190c-.791.73-1.59 1.44-2.397 2.12-9.406 7.92-19.941 11.88-31.614 11.88-2.863 0-5.624-.24-8.282-.72-8.752-1.55-16.328-5.66-22.805-12.32-.307-.32-.611-.64-.913-.96-10-9.33-15-20.33-15-33 0-10.98 3.758-20.71 11.274-29.19 1.154-1.3 2.396-2.57 3.727-3.81l24.722-24.72 181.277-181.28-164.795-164.79z" stroke-width=".05"/></svg>