<svg height="48" viewBox="0 -960 960 960" width="48" xmlns="http://www.w3.org/2000/svg"><path fill="rgb(255, 255, 255)" d="m149-55c-26.033 0-48.21-9.157-66.53-27.47-18.313-18.32-27.47-40.497-27.47-66.53v-662c0-26.307 9.157-48.717 27.47-67.23 18.32-18.513 40.497-27.77 66.53-27.77h662c26.307 0 48.717 9.257 67.23 27.77s27.77 40.923 27.77 67.23v662c0 26.033-9.257 48.21-27.77 66.53-18.513 18.313-40.923 27.47-67.23 27.47zm1-94h662v-662h-662zm288.142-107.93c-11.961-11.96-17.939-26.01-17.939-42.38 0-16.38 5.978-30.42 17.939-42.38 11.96-12.2 26.127-18.19 42.507-18.19 16.354 0 30.314 5.99 41.859 17.93 11.517 11.69 17.289 25.74 17.289 42.13 0 16.37-5.772 30.68-17.289 42.89-11.545 11.96-25.505 18.21-41.859 18.21-16.38 0-30.547-6-42.507-18.21zm10.633-188.47c-8.659-8.6-12.973-19.79-12.973-33.56v-195.26c0-13.51 4.238-24.44 12.739-33.53 8.502-8.86 19.759-13.52 33.825-13.52 14.065 0 25.426 4.66 34.058 13.52 8.658 9.09 12.973 20.02 12.973 33.53v195.26c0 13.77-4.237 24.96-12.74 33.56-8.501 8.55-19.759 12.97-33.824 12.97s-25.427-4.42-34.058-12.97z"/></svg>