<svg height="48" viewBox="0 -960 960 960" width="48" xmlns="http://www.w3.org/2000/svg"><path fill="rgb(255, 255, 255)" d="m700.419-491.62c-8.426 0-15.672-3.05-21.74-9.15s-9.103-13.4-9.103-21.88 3.035-15.83 9.103-22.05c6.068-6.21 13.314-9.32 21.74-9.32h203.414c8.636 0 16.053 3.1 22.257 9.3s9.303 13.61 9.303 22.23c0 8.63-3.099 15.93-9.303 21.91-6.204 5.97-13.621 8.96-22.257 8.96zm-386.269 298.13c-8.426 0-15.672-3.05-21.741-9.16-6.068-6.11-9.102-13.39-9.102-21.88 0-8.48 3.034-15.83 9.102-22.04 6.069-6.23 13.315-9.32 21.741-9.32h589.683c8.636 0 16.053 3.09 22.257 9.28 6.204 6.21 9.303 13.62 9.303 22.24 0 8.63-3.099 15.93-9.303 21.91-6.204 5.97-13.621 8.97-22.257 8.97zm193.847-148.68c-8.426 0-15.672-3.05-21.74-9.15s-9.102-13.4-9.102-21.88 3.034-15.83 9.102-22.05c6.068-6.21 13.314-9.32 21.74-9.32h395.836c8.636 0 16.053 3.1 22.257 9.3s9.303 13.61 9.303 22.23c0 8.63-3.099 15.93-9.303 21.91-6.204 5.97-13.621 8.96-22.257 8.96zm-452.548-298.65c-8.425 0-15.672-3.05-21.74-9.16-6.068-6.1-9.102-13.39-9.102-21.87 0-8.49 3.034-15.83 9.102-22.05s13.315-9.33 21.74-9.33h479.219c8.636 0 16.052 3.1 22.257 9.3 6.204 6.2 9.303 13.61 9.303 22.24 0 8.62-3.099 15.92-9.303 21.9-6.205 5.97-13.621 8.97-22.257 8.97zm517.4 185.2c-18.868 0-34.935-6.47-48.16-19.54-13.256-13.05-19.868-28.95-19.868-48.06 0-19.06 6.438-35.11 19.363-48.17 12.897-13.06 28.575-19.68 47.027-19.68 3.659 0 7.16.31 10.503.99 3.327.74 6.628 1.74 9.881 3.17v-160.36c0-8.22 2.554-14.8 7.676-19.69 5.122-5 11.866-7.58 20.242-7.58h63.579c7.691 0 14.162 2.74 19.368 7.89 5.207 5.43 7.818 12.06 7.818 20.06 0 8.05-2.611 14.53-7.818 19.53-5.206 4.9-11.677 7.48-19.368 7.48h-42.347v196.52c0 19.05-6.612 35.16-19.8 48.06-13.208 12.91-29.234 19.38-48.096 19.38zm191.526-148.94c-18.871 0-34.939-6.48-48.163-19.54-13.256-13.05-19.869-28.95-19.869-48.06 0-19.06 6.439-35.11 19.363-48.17 12.898-13.06 28.578-19.69 47.026-19.69 3.658 0 7.166.32 10.508 1 3.321.74 6.628 1.74 9.877 3.17v-160.34c0-8.24 2.553-14.84 7.675-19.75 5.121-5 11.871-7.6 20.241-7.6h63.586c7.689 0 14.159 2.8 19.366 7.9 5.207 5.47 7.818 12.14 7.818 20.1 0 8.03-2.611 14.56-7.818 19.51s-11.677 7.53-19.366 7.53h-42.348v196.5c0 19.05-6.613 35.16-19.803 48.06-13.205 12.9-29.236 19.38-48.093 19.38zm-382.59 297.88c-18.867 0-34.935-6.47-48.159-19.54-13.256-13.05-19.869-28.95-19.869-48.06 0-19.06 6.439-35.11 19.363-48.16 12.898-13.07 28.576-19.69 47.028-19.69 3.659 0 7.159.31 10.503.99 3.326.74 6.627 1.74 9.881 3.17v-160.36c0-8.22 2.553-14.8 7.675-19.69 5.123-5 11.867-7.58 20.242-7.58h63.579c7.692 0 14.162 2.74 19.369 7.89 5.206 5.43 7.817 12.06 7.817 20.06 0 8.05-2.611 14.53-7.817 19.53-5.207 4.9-11.677 7.48-19.369 7.48h-42.347v196.52c0 19.05-6.612 35.17-19.799 48.06-13.209 12.91-29.234 19.38-48.097 19.38zm-191.524 148.94c-18.862 0-34.923-6.47-48.159-19.55-13.249-12.97-19.867-28.96-19.867-48.09 0-19.03 6.451-35.03 19.364-48.11 12.903-13.06 28.587-19.65 47.031-19.65 3.659 0 7.162.31 10.497.94 3.336.74 6.629 1.77 9.892 3.24v-160.49c0-8.06 2.551-14.64 7.674-19.65 5.113-5.03 11.857-7.54 20.232-7.54h63.582c7.695 0 14.157 2.72 19.364 7.95 5.218 5.33 7.821 12.02 7.821 20.07 0 7.95-2.603 14.43-7.821 19.45-5.207 4.91-11.669 7.43-19.364 7.43h-42.346v196.56c0 19.13-6.609 35.14-19.803 48.1-13.206 12.87-29.234 19.34-48.097 19.34zm-134.811-184.43c-8.421 0-15.666-3.01-21.736-9.18-6.069-6.02-9.107-13.34-9.107-21.8 0-8.47 3.038-15.93 9.107-22.1 6.07-6.16 13.315-9.32 21.736-9.32h91.633c8.636 0 16.053 3.16 22.264 9.32 6.197 6.17 9.296 13.63 9.296 22.24s-3.099 15.92-9.296 21.95c-6.211 5.88-13.628 8.89-22.264 8.89zm-.001 148.68c-8.42 0-15.679-3.02-21.747-9.18-6.067-6.04-9.095-13.34-9.095-21.81 0-8.46 3.028-15.93 9.095-22.1 6.068-6.15 13.327-9.31 21.747-9.31h8.241c8.635 0 16.052 3.16 22.263 9.31 6.198 6.17 9.297 13.64 9.297 22.25 0 8.6-3.099 15.91-9.297 21.94-6.211 5.88-13.628 8.9-22.263 8.9zm-.004-298.13c-8.42 0-15.662-3.03-21.73-9.19-6.067-6.03-9.108-13.34-9.108-21.79 0-8.47 3.041-15.93 9.108-22.1 6.068-6.16 13.31-9.32 21.73-9.32h292.601c8.636 0 16.052 3.16 22.262 9.32 6.197 6.17 9.296 13.63 9.296 22.23s-3.099 15.92-9.296 21.95c-6.21 5.87-13.626 8.9-22.262 8.9zm834.545-149.2c-8.426 0-15.672-3.05-21.741-9.16-6.068-6.1-9.102-13.39-9.102-21.87 0-8.49 3.034-15.83 9.102-22.05 6.069-6.22 13.315-9.33 21.741-9.33h13.843c8.636 0 16.053 3.1 22.257 9.3s9.303 13.61 9.303 22.24c0 8.62-3.099 15.92-9.303 21.9-6.204 5.97-13.621 8.97-22.257 8.97z"/></svg>