<svg height="48" viewBox="0 -960 960 960" width="48" xmlns="http://www.w3.org/2000/svg"><path fill="rgb(255, 255, 255)" d="m137.5-94.5c-11.747 0-21.85-4.25-30.31-12.76s-12.69-18.68-12.69-30.5c0-11.83 4.23-22.07 12.69-30.74s18.563-13 30.31-13h684c12.033 0 22.377 4.32 31.03 12.96 8.647 8.65 12.97 18.98 12.97 31 0 12.03-4.323 22.21-12.97 30.54-8.653 8.33-18.997 12.5-31.03 12.5zm0-684c-11.747 0-21.85-4.25-30.31-12.76s-12.69-18.68-12.69-30.5c0-11.83 4.23-22.07 12.69-30.74s18.563-13 30.31-13h684c12.033 0 22.377 4.32 31.03 12.96 8.647 8.65 12.97 18.98 12.97 31 0 12.03-4.323 22.21-12.97 30.54-8.653 8.33-18.997 12.5-31.03 12.5zm0 171c-11.747 0-21.85-4.25-30.31-12.76s-12.69-18.68-12.69-30.5c0-11.83 4.23-22.07 12.69-30.74s18.563-13 30.31-13h684c12.033 0 22.377 4.32 31.03 12.96 8.647 8.65 12.97 18.98 12.97 31 0 12.03-4.323 22.21-12.97 30.54-8.653 8.33-18.997 12.5-31.03 12.5zm428.067 169.44c-5.24 4.79-13.218 8-20.098 8.19-6.599-.4-14.118-3.59-19.217-7.8-4.48-5-8.339-13-8.339-19.39 0-6.6 3.619-14.41 8.159-19.8l59.935-59.96c5.14-4.4 13.018-8 19.558-8 6.779 0 14.558 4 19.497 8.6 4.34 5.2 7.779 13 7.779 19.6 0 6.8-3.599 14.39-8.038 19.39zm-208.292 200c-7.419-.4-15.718-3.79-21.257-8.6-5.04-5.6-8.639-13.79-9.059-21.39v-67.39c.38-6.8 3.62-14.6 8.119-19.6 5.099-4.4 12.858-7.8 19.638-7.8 6.779 0 14.538 3.4 19.658 7.8 4.558 5 7.858 12.8 8.258 19.6v3.59l12.509-11.6c5.099-4.6 12.818-7.6 19.597-7.8 6.599.6 14.118 3.6 19.238 8 4.439 5 8.319 13 8.319 19.6 0 6.8-3.6 14.39-8.039 19.39l-11.449 11.21h2.58c6.879.4 14.678 3.6 19.657 8.2 4.32 5 7.78 12.6 7.78 19.19 0 6.8-3.5 14.6-7.859 19.6-5.02 4.4-12.779 7.6-19.578 8zm248.13.4c-6.859 0-14.679-4-19.658-8.8l-203.115-203.17v2.8c-.38 6.8-3.519 14.59-7.999 19.59-5.079 4.6-12.898 8.21-19.777 8.21-6.859 0-14.659-3.61-19.778-8-4.519-5.21-7.739-13-8.119-19.8v-67.4c.4-7.39 3.88-15.79 8.899-21.19 5.54-5 13.918-8.6 21.417-9h67.712c6.859.4 14.638 3.6 19.698 8 4.519 5 8.139 12.8 8.139 19.8 0 6.8-3.42 14.39-7.72 19.6-5.019 4.6-12.818 7.79-19.717 8.19h-3.579l202.995 203.38c4.419 5 7.658 12.6 8.238 19.19-.3 6.8-3.299 14.41-8.139 19.41-5.059 5-12.558 9.19-19.497 9.19z"/></svg>