<svg height="48" viewBox="0 -960 960 960" width="48" xmlns="http://www.w3.org/2000/svg"><path fill="rgb(255, 255, 255)" d="m137.5-94.5c-11.747 0-21.85-4.253-30.31-12.76-8.46-8.51-12.69-18.68-12.69-30.5 0-11.83 4.23-22.07 12.69-30.74s18.563-13 30.31-13h684c12.033 0 22.377 4.32 31.03 12.96 8.647 8.65 12.97 18.98 12.97 31 0 12.03-4.323 22.21-12.97 30.54-8.653 8.333-18.997 12.5-31.03 12.5zm0-513c-11.747 0-21.85-4.25-30.31-12.76s-12.69-18.68-12.69-30.5c0-11.83 4.23-22.07 12.69-30.74s18.563-13 30.31-13h684c12.033 0 22.377 4.32 31.03 12.96 8.647 8.65 12.97 18.98 12.97 31 0 12.03-4.323 22.21-12.97 30.54-8.653 8.33-18.997 12.5-31.03 12.5zm0-171c-11.747 0-21.85-4.25-30.31-12.76s-12.69-18.68-12.69-30.5c0-11.83 4.23-22.07 12.69-30.74s18.563-13 30.31-13h684c12.033 0 22.377 4.32 31.03 12.96 8.647 8.65 12.97 18.98 12.97 31 0 12.03-4.323 22.21-12.97 30.54-8.653 8.33-18.997 12.5-31.03 12.5zm277.344 535.52c0 6.89-3.635 14.86-8.274 20.19-5.119 4.9-13.05 8.43-20.22 8.99-7.133-.31-15.311-3.63-20.696-8.4l-47.88-47.89c-2.793-2.73-5.63-6.7-7.252-10.13-1.375-3.45-2.448-8.07-2.448-11.77 0-3.78 1.088-8.41 2.476-11.83 1.62-3.41 4.035-6.97 6.936-9.7l48.106-48.11c5.543-4.95 13.985-8.2 21.139-8.45 7.124.6 15.032 4.14 20.193 9.1 4.522 5.36 7.646 13.3 7.972 20.31-.475 7.13-3.71 14.89-8.619 20.02l.174-.17h149.218v-38.93c.404-7.02 3.755-15.05 8.509-20.32 5.29-4.68 13.277-8.36 20.27-8.36 6.981 0 14.964 3.64 20.301 8.29 4.83 5.26 8.258 13.33 8.679 20.39v46.04c-.389 13.3-5.815 26.51-14.664 36.01-9.437 8.83-22.667 14.25-35.975 14.64h-156.328l-.214-.21c4.794 5.3 8.597 13.34 8.597 20.29zm-22.815-226.27v38.93c-.416 6.95-3.815 14.98-8.622 20.25-5.371 4.74-13.389 8.42-20.452 8.42-7.095 0-15.119-3.75-20.4-8.56-4.659-5.27-7.897-13.23-8.285-20.11v-46.06c.374-13.27 5.702-26.5 14.48-35.94 9.407-8.94 22.554-14.32 35.737-14.7h156.76l10.498 10.5h.02l-9.737-9.76c-5.298-5.15-9.597-13.37-9.597-20.65 0-7.12 3.814-15.2 8.67-20.59 5.325-4.84 13.205-8.22 20.193-8.75 7.206.22 15.34 3.51 20.75 8.39l48.133 48.13c2.664 2.8 5.371 6.89 6.907 10.17 1.424 3.55 2.54 8.15 2.54 11.74s-1.147 8.22-2.603 11.71c-1.66 3.52-4.316 7.33-6.809 9.99l-48.49 48.48c-5.603 4.67-13.762 7.78-20.874 7.99-7.095-.57-14.986-4.07-20.112-8.82-4.707-5.36-7.992-13.38-8.356-20.5.501-7.19 3.871-15.12 9.045-20.46l-.198.2z"/></svg>