<svg height="48" viewBox="0 -960 960 960" width="48" xmlns="http://www.w3.org/2000/svg"><path fill="rgb(255, 255, 255)" d="m231.18-367.07c-13.167 0-24.29-4.56-33.37-13.68-9.087-9.11-13.63-20.28-13.63-33.5 0-13.21 4.543-24.32 13.63-33.32 9.08-9 20.203-13.5 33.37-13.5h496.64c13.167 0 24.46 4.57 33.88 13.69 9.413 9.11 14.12 20.27 14.12 33.5 0 13.21-4.707 24.31-14.12 33.31-9.42 9-20.713 13.5-33.88 13.5zm455.634-233.99c-10.16 0-18.914-3.73-26.265-10.98-7.35-7.44-11.037-16.23-11.037-26.76 0-10.31 3.687-19.29 11.037-26.77 7.351-7.46 16.105-11.41 26.265-11.41h52.656v-51.56c0-10.31 3.468-19.3 10.428-26.99 6.951-7.45 15.835-11.41 26.675-11.41 10.533 0 19.594 3.96 27.209 11.41 7.597 7.69 11.389 16.68 11.389 26.99v51.56h51.564c10.161 0 18.939 3.95 26.287 11.41 7.348 7.48 11.018 16.46 11.018 27 0 10.09-3.67 18.87-11.018 26.33-7.348 7.45-16.126 11.18-26.287 11.18h-51.564v51.36c0 10.52-3.662 19.51-10.969 27.21-7.307 7.44-16.393 11.18-27.233 11.18s-19.812-3.74-26.877-11.18c-7.09-7.7-10.622-16.69-10.622-27.21v-51.36z"/></svg>