<svg viewBox="0 0 22 22" xmlns="http://www.w3.org/2000/svg"><path fill="rgb(255, 255, 255)" d="m12.986 3.812c.962.878 1.514 2.167 1.514 3.678 0 .654-.094 1.284-.273 1.802-.179.517-.473 1.037-.832 1.496-.355.453-1.05 1.119-2.053 1.97-.808.704-1.842 1.563-1.852 2.143l.001.004c.028.147-.01.298-.105.413s-.237.182-.386.182h-2c-.137 0-.268-.056-.363-.156-.094-.1-.144-.234-.136-.371.209-2.054 1.452-3.018 2.526-3.999.888-.761 1.448-1.281 1.705-1.593.256-.299.409-.553.502-.841.104-.288.145-.595.145-1.001 0-.729-.173-1.149-.611-1.517-.448-.377-1.031-.545-1.948-.545-.625 0-1.206.073-1.807.233-.598.158-1.254.414-2.015.79-.123.06-.265.067-.393.02-.129-.047-.232-.144-.287-.27l-.777-1.787c-.103-.238-.007-.516.222-.639 1.619-.864 3.393-1.324 5.206-1.324 1.638 0 3.032.469 4.017 1.312zm6.575 12.042-3.5 3.5c-.196.195-.512.195-.708 0l-.707-.707c-.195-.196-.195-.512 0-.708l1.44-1.439h-3.086c-.276 0-.5-.224-.5-.5v-1c0-.276.224-.5.5-.5h3.086l-1.44-1.439c-.195-.196-.195-.512 0-.708l.707-.707c.196-.195.512-.195.708 0l3.5 3.5c.195.196.195.512 0 .708zm-10.061 1.146v2c0 .276-.224.5-.5.5h-2c-.276 0-.5-.224-.5-.5v-2c0-.276.224-.5.5-.5h2c.276 0 .5.224.5.5z"/></svg>