<svg viewBox="0 0 22 22" xmlns="http://www.w3.org/2000/svg"><path fill="rgb(255, 255, 255)" d="m5.5 3v13.5h6.5c.276 0 .5.224.5.5v1c0 .276-.224.5-.5.5h-6.5v.5c0 .276-.224.5-.5.5h-1c-.276 0-.5-.224-.5-.5v-.5h-.5c-.276 0-.5-.224-.5-.5v-1c0-.276.224-.5.5-.5h.5v-13.5c0-.276.224-.5.5-.5h1c.276 0 .5.224.5.5zm7.874.627c.696.728 1.126 1.813 1.126 2.873 0 .87-.279 1.693-.66 2.257-.016.023-.035.045-.055.066-.709.705-1.622 1.25-2.285 1.885v.292c0 .276-.224.5-.5.5h-2c-.276 0-.5-.224-.5-.5v-.5c.073-.952.722-1.703 1.318-2.158.523-.443 1.106-.854 1.59-1.342.079-.109.092-.147.092-.5 0-.423-.064-.589-.249-.752-.164-.186-.328-.248-.751-.248s-.589.064-.752.249c-.186.164-.271.328-.248.751 0 .276-.224.5-.5.5h-2c-.276 0-.5-.224-.5-.5.016-1.06.431-2.145 1.127-2.874.728-.696 1.813-1.126 2.873-1.126s2.145.431 2.874 1.127zm5.126-.627v7c0 .276-.224.5-.5.5h-1c-.276 0-.5-.224-.5-.5v-7c0-.276.224-.5.5-.5h1c.276 0 .5.224.5.5zm1.061 12.854-3.5 3.5c-.196.195-.512.195-.708 0l-.707-.707c-.195-.196-.195-.512 0-.708l1.44-1.439h-3.086c-.276 0-.5-.224-.5-.5v-1c0-.276.224-.5.5-.5h3.086l-1.44-1.439c-.195-.196-.195-.512 0-.708l.707-.707c.196-.195.512-.195.708 0l3.5 3.5c.195.196.195.512 0 .708zm-8.061-2.854v2c0 .276-.224.5-.5.5h-2c-.276 0-.5-.224-.5-.5v-2c0-.276.224-.5.5-.5h2c.276 0 .5.224.5.5z"/></svg>