<svg height="48" viewBox="0 -960 960 960" width="48" xmlns="http://www.w3.org/2000/svg"><path fill="rgb(255, 255, 255)" d="m735.56-95c-.05 0-.08 0-.13 0-.03 0-.07 0-.11 0-36.22 0-67.035-12.44-92.394-37.52-17.396-17.39-28.832-37.13-34.284-59.66-2.508-10.25-3.773-21.13-3.773-32.38v-.4c0-35.93 12.701-66.76 38.099-92.04 25.377-25.27 56.212-38.12 92.462-38.12 36.26 0 67.12 12.66 92.51 37.94 25.38 25.26 38.06 55.88 38.06 92.02v.41.19c0 15.21-2.25 29.42-6.73 42.46-6.21 18.36-16.61 34.95-31.29 49.58-25.38 25.08-56.18 37.52-92.42 37.52zm-37.63-92.25c10.37 10.28 23.94 15.62 37.5 15.62 7.29 0 14.54-1.38 21.32-4.55 5.92-2.58 11.47-6.33 16.31-11.07 1.26-1.17 2.47-2.55 3.59-3.93 16.97-20.94 15.72-51.77-3.69-71.1-8.2-8.29-18.39-13.23-28.99-14.83-14.6-2.36-29.98 1.38-42.03 11.07-1.42 1.19-2.81 2.37-4.11 3.76-.69.59-1.32 1.58-1.96 1.97-18.66 21.14-17.99 53.14 2.06 73.06zm-218.11 35.07c-13.22 0-24.32-4.6-33.32-13.8-9-9.4-13.5-20.4-13.5-33.2 0-12.6 4.56-23.8 13.68-33 9.12-9.4 20.28-14 33.5-14s24.32 4.6 33.32 14 13.5 20.6 13.5 33.6c0 12.8-4.56 23.8-13.68 32.8s-20.28 13.6-33.5 13.6zm386.18-609.57c0 57.49-46.65 104.11-104.2 104.11-41.095 0-76.639-23.788-93.593-58.333l-375.468.112c-10.11 20.54-26.797 37.265-47.316 47.434l.042 375.878c34.325 17.039 57.916 52.45 57.916 93.439 0 57.49-46.65 104.11-104.2 104.11-57.531 0-104.181-46.62-104.181-104.11 0-41.276 23.922-76.895 58.631-93.794l-.113-375.244c-34.648-16.912-58.518-52.471-58.518-93.602 0-57.63 46.65-104.25 104.181-104.25 41.053 0 76.559 23.723 93.542 58.242l375.573-.043c16.989-34.499 52.48-58.199 93.504-58.199 57.55 0 104.2 46.61 104.2 104.25zm-104.87 328.75c-12.84 0-23.86-4.6-33.04-13.8-9.18-9-13.78-20.2-13.78-33.4s4.68-24.4 14.06-33.4 20.54-13.4 33.5-13.4 24.1 4.6 33.44 13.6c9.34 9.2 14 20.4 14 33.6s-4.74 24.2-14.24 33.2-20.8 13.6-33.94 13.6z"/></svg>