<svg height="48" viewBox="0 -960 960 960" width="48" xmlns="http://www.w3.org/2000/svg"><path fill="rgb(255, 255, 255)" d="m726.77-323.85h-111.757v17.59c0 19.61-7.059 36.41-21.179 50.39-14.121 14.01-31.061 21.01-50.881 21.01h-125.902c-20.081 0-37.121-7-51.081-21.01-13.98-13.98-20.96-30.78-20.96-50.39v-17.6h-115.725c-8.428 17.17-20.778 30.98-37.064 41.53-3.826 2.49-7.773 4.68-11.827 6.61-14.248 7.13-29.938 10.76-47.059 10.76-29.362 0-54.219-10.13-74.602-30.36-20.368-20.25-30.568-45.14-30.571-74.48.004-29.55 10.2-54.46 30.568-74.7 20.38-20.45 45.239-30.78 74.609-30.77 16.053 0 30.861 3.08 44.392 9.41 5 2.15 9.829 4.73 14.488 7.76 16.356 10.59 28.741 24.64 37.165 41.95h64.773c-30.181-38.62-45.812-83.33-46.806-134.16-.039-1.72-.057-3.45-.057-5.17v-125.61h.018c.269-12.26 4.655-22.59 13.006-31.03 8.618-8.61 19.344-12.83 32.177-12.83 12.621 0 23.347 4.22 31.965 12.83 8.62 8.62 13.024 19.34 13.024 32.18v125.42c0 28.96 7.655 54.79 23.051 77.27 1.676-2.06 3.488-4.06 5.435-6.01 13.96-13.79 31-21.01 51.081-21.01h125.902c19.82 0 36.76 7.22 50.881 21.01 2.004 1.99 3.867 4.03 5.586 6.13 15.515-22.48 23.272-48.32 23.272-77.39v-125.61c0-12.83 4.309-23.55 12.928-32.18 8.619-8.61 19.325-12.83 32.081-12.83 12.776 0 23.463 4.22 32.081 12.83 8.62 8.63 12.929 19.35 12.929 32.18v124.65c0 52.89-15.584 99.33-46.763 139.33h60.721c8.425-17.31 20.808-31.36 37.164-41.94 11.987-7.77 25.101-12.68 39.346-14.77 7.506-1.6 15.341-2.41 23.503-2.41 29.372 0 54.226 10.32 74.589 30.77 20.387 20.24 30.563 45.15 30.567 74.71-.005 29.33-10.185 54.22-30.565 74.49-20.367 20.21-45.222 30.34-74.587 30.34-8.103 0-15.887-.82-23.342-2.43-14.305-2.13-27.478-7.13-39.515-14.93-16.283-10.56-28.633-24.35-37.059-41.53zm-309.719 17.59h125.902v-126.6h-125.902z" stroke-width=".003"/></svg>