<svg height="48" viewBox="0 -960 960 960" width="48" xmlns="http://www.w3.org/2000/svg"><path fill="rgb(255, 255, 255)" d="m822-182c12.033 0 22.377 4.17 31.03 12.5 8.647 8.33 12.97 18.51 12.97 30.54 0 12.02-4.323 22.35-12.97 31-8.653 8.64-18.997 12.96-31.03 12.96h-316.988c-11.747 0-21.85-4.33-30.31-13s-12.69-18.91-12.69-30.74c0-11.82 4.23-21.99 12.69-30.5s18.563-12.76 30.31-12.76zm-654.616-148.37c-9.047 8.33-19.146 12.85-30.31 13.04-11.166.36-20.956-3.98-29.408-13.04-8.45-8.5-12.666-18.45-12.666-29.85 0-11.59 4.216-21.53 12.666-29.88l119.437-120.33c4.216-4.34 9.048-7.6 14.477-9.94 5.429-2.36 10.858-3.63 16.286-3.63 5.43 0 10.858 1.27 16.288 3.63 5.427 2.34 10.259 5.6 14.476 9.94l120.341 120.33c8.45 8.35 12.666 18.29 12.666 29.88 0 11.4-4.216 21.35-12.666 29.85-8.451 8.33-18.404 12.67-29.86 12.67-11.455 0-21.408-4.34-29.859-12.67l-48.859-46.14.375 238.66c0 23.65-19.186 42.85-42.854 42.85h-.001c-23.668 0-42.854-19.2-42.854-42.85l.281-238.66zm654.616-22.63c12.033 0 22.377 4.17 31.03 12.5 8.647 8.33 12.97 18.51 12.97 30.54 0 12.02-4.323 22.35-12.97 31-8.653 8.64-18.997 12.96-31.03 12.96h-315.436c-11.747 0-21.85-4.33-30.31-13s-12.69-18.91-12.69-30.74c0-11.82 4.23-21.99 12.69-30.5s18.563-12.76 30.31-12.76zm0-171c12.033 0 22.377 4.17 31.03 12.5 8.647 8.33 12.97 18.51 12.97 30.54 0 12.02-4.323 22.35-12.97 31-8.653 8.64-18.997 12.96-31.03 12.96h-316.988c-11.747 0-21.85-4.33-30.31-13s-12.69-18.91-12.69-30.74c0-11.82 4.23-21.99 12.69-30.5s18.563-12.76 30.31-12.76zm-315.436-255c-11.747 0-21.85-4.25-30.31-12.76s-12.69-18.68-12.69-30.5c0-11.83 4.23-22.07 12.69-30.74s18.563-13 30.31-13h315.436c12.033 0 22.377 4.32 31.03 12.96 8.647 8.65 12.97 18.98 12.97 31 0 12.03-4.323 22.21-12.97 30.54-8.653 8.33-18.997 12.5-31.03 12.5zm-368.564 171c-11.747 0-21.85-4.25-30.31-12.76s-12.69-18.68-12.69-30.5c0-11.83 4.23-22.07 12.69-30.74s18.563-13 30.31-13h684c12.033 0 22.377 4.32 31.03 12.96 8.647 8.65 12.97 18.98 12.97 31 0 12.03-4.323 22.21-12.97 30.54-8.653 8.33-18.997 12.5-31.03 12.5z"/></svg>