<svg height="48" viewBox="0 -960 960 960" width="48" xmlns="http://www.w3.org/2000/svg"><path fill="rgb(255, 255, 255)" d="m383.778-845.68 362.641 362.64c22.247 22.08 33.371 48.77 33.371 80.08 0 31.3-11.124 58-33.371 80.1l-189.108 190.22c-22.233 21.5-48.185 32.26-77.856 32.26s-55.631-10.76-77.879-32.26l-187.995-190.22c-22.248-22.06-33.371-48.73-33.371-80.01 0-31.27 11.123-57.96 33.371-80.04l200.231-200.36-95.665-95.67c-9.642-9.78-14.462-20.94-14.462-33.47 0-12.54 4.82-23.77 14.462-33.71 8.899-9.35 19.837-13.84 32.815-13.47s23.917 5.01 32.816 13.91zm96.778 229.15-204.681 202.45h407.137z"/></svg>