<svg height="48" viewBox="0 -960 960 960" width="48" xmlns="http://www.w3.org/2000/svg"><path fill="rgb(255, 255, 255)" d="m551.5-742.34 137 108h82c26.807 0 49.343 9.13 67.61 27.39 18.26 18.27 27.39 40.81 27.39 67.61v410.4h-771v-435.4c0-19.31 8.5-33.48 25.5-42.49 17-9 33.5-7.51 49.5 4.49l104 78 143-200c15.333-22.24 36.5-35.14 63.5-38.67 27-3.55 50.833 3.34 71.5 20.67zm-363 273v104.41l134 106 160-221 288 226v-285.41h-116l-161-130-198 279zm609.358-225.75c-7.417-7.6-11.585-17.3-11.585-28.07 0-10.61 4.132-20.33 11.479-28.08 7.543-7.44 17.361-11.5 28.046-11.5 10.668 0 20.522 4.06 28.135 11.3 7.364 7.79 11.567 17.67 11.567 28.09 0 10.77-4.151 20.48-11.479 28.26-7.559 7.41-17.379 11.48-28.063 11.48-10.651 0-20.487-4.07-28.1-11.48zm-141.639-26.85c0-6.34 2.843-12.71 7.541-17.66l145.084-145.71c4.892-4.77 11.391-7.41 18.067-7.41 6.694 0 13.175 2.64 18.119 7.41 4.717 4.96 7.613 11.15 7.613 17.84 0 6.37-2.88 12.73-7.559 17.68l-145.773 145.88c-4.91 4.75-11.285 7.41-17.767 7.41-6.498 0-12.857-2.66-17.767-7.41-4.697-4.95-7.558-11.49-7.558-18.03zm-1.289-116.2c-7.383-7.42-11.569-17.31-11.569-28.08 0-10.41 4.133-20.31 11.479-27.91 7.543-7.41 17.38-11.65 28.046-11.65 10.668 0 20.522 4.24 28.117 11.46 7.382 7.59 11.585 17.49 11.585 28.1 0 10.59-4.167 20.48-11.479 28.08-7.559 7.4-17.379 11.65-28.063 11.65-10.667 0-20.487-4.25-28.116-11.65z"/></svg>