<svg height="48" viewBox="0 -960 960 960" width="48" xmlns="http://www.w3.org/2000/svg"><path fill="rgb(255, 255, 255)" d="m105-125.75 222-222c18.667-18.67 40.833-28 66.5-28s47.833 9.33 66.5 28l93 93 75-85-233-235-220 220c-9.333 10-20.833 15-34.5 15s-25.5-5-35.5-15c-9.333-9.33-14-20.83-14-34.5s4.667-25.5 14-35.5l222-221c18.667-18.67 41-27.83 67-27.5s48.333 9.83 67 28.5l231 233 127-142c8.667-9.33 19.5-14.5 32.5-15.5s24.167 3.17 33.5 12.5c9.333 8.67 14.167 19.5 14.5 32.5s-3.5 24.17-11.5 33.5l-130 147 127 128c8.667 10 12.833 21.33 12.5 34s-5.167 23.67-14.5 33c-10 10-21.333 14.83-34 14.5s-23.667-5.17-33-14.5l-122-123-72 82c-18 21.33-40.667 32-68 32s-50.667-9.33-70-28l-90-89-219 219.005c-10 10-21.667 15-35 15s-25-5-35-15c-9.333-10-14-21.834-14-35.501 0-13.674 4.667-25.174 14-34.504zm254.671-661.01v-94.65c0-10.39 3.595-19.23 10.79-26.81 7.193-7.4 15.995-11.04 26.423-11.04s19.182 3.64 26.28 11.04c7.098 7.58 10.648 16.42 10.648 26.81v94.65c0 10.4-3.596 19.1-10.792 26.35-7.175 7.1-15.995 10.72-26.421 10.72-10.41 0-19.182-3.62-26.28-10.72-7.099-7.25-10.648-15.95-10.648-26.35zm174.542 49.71 67.045-67.06c7.887-6.8 16.861-10.24 26.894-10.24 10.05 0 18.695 3.61 25.951 11.04 7.366 7.39 11.042 16.08 11.042 26.01 0 9.95-3.676 18.62-11.042 26.02l-67.044 67.85c-7.351 7.4-16.168 11.03-26.423 11.03-10.253 0-19.055-3.77-26.423-11.03-7.885-7.42-11.828-16.4-11.828-26.82 0-10.57 3.943-19.41 11.828-26.8zm127.544 108.64h94.648c10.396 0 19.166 3.64 26.328 10.73 7.161 7.26 10.742 16.09 10.742 26.52 0 10.4-3.581 19.07-10.742 26.18-7.162 7.09-15.932 10.73-26.328 10.73h-94.648c-10.379 0-19.151-3.64-26.312-10.9-7.178-7.09-10.759-15.92-10.759-26.34 0-10.4 3.581-19.24 10.759-26.33 7.161-7.09 15.933-10.59 26.312-10.59zm-456.422-55.81-67.044-67.06c-6.83-7.4-10.254-16.07-10.254-26.17 0-9.94 3.693-18.61 11.043-25.86 7.367-7.9 16.044-11.83 26.028-11.83 10.002 0 18.93 3.62 26.818 11.03l67.042 67.06c7.366 7.39 11.041 16.06 11.041 26.32 0 10.28-3.689 19.08-11.073 26.51-7.399 7.88-16.342 11.68-26.818 11.35-10.489-.16-19.418-3.93-26.783-11.35zm-168.245 129.97c-10.386 0-19.174-3.64-26.34-10.9-7.167-7.09-10.75-15.92-10.75-26.34 0-10.4 3.583-19.24 10.75-26.33 7.166-7.09 15.954-10.59 26.34-10.59h94.636c10.396 0 19.293 3.64 26.723 10.73 7.429 7.26 11.136 16.09 11.136 26.52 0 10.4-3.707 19.07-11.136 26.18-7.43 7.09-16.327 10.73-26.723 10.73z"/></svg>