<svg height="48" viewBox="0 -960 960 960" width="48" xmlns="http://www.w3.org/2000/svg"><path fill="rgb(255, 255, 255)" d="m91-184.85c-9.333-9.33-14-21-14-35s4.667-25.67 14-35l222-222c18.667-18.67 40.833-28 66.5-28s47.833 9.33 66.5 28l93 92 266-298c8.667-10 19.5-15.5 32.5-16.5s24.167 3.17 33.5 12.5c9.333 8.67 14.333 19.5 15 32.5s-3 24.17-11 33.5l-267 302c-18 20.67-40.667 31.33-68 32s-50.667-8.67-70-28l-90-89-219 219c-9.333 9.33-21 14-35 14s-25.667-4.67-35-14zm521.871-420.23c-8.392-8.62-13.116-19.59-13.116-31.75 0-11.95 4.685-23.14 12.998-31.76 8.547-8.43 19.663-13.13 31.76-13.13 12.096 0 23.251 4.7 31.859 12.94 8.351 8.63 13.116 19.8 13.116 31.76 0 12.15-4.706 23.13-12.998 31.94-8.569 8.44-19.685 12.96-31.78 12.96-12.079 0-23.213-4.52-31.839-12.96zm-160.392-30.37c0-7.26 3.215-14.51 8.547-20l164.294-165.08c5.548-5.29 12.9-8.44 20.468-8.44 7.566 0 14.919 3.15 20.507 8.44 5.351 5.68 8.626 12.74 8.626 20.19 0 7.26-3.255 14.5-8.569 20l-165.076 165.27c-5.548 5.29-12.783 8.43-20.115 8.43-7.352 0-14.567-3.14-20.115-8.43-5.332-5.67-8.567-12.94-8.567-20.38zm-1.45-131.55c-8.372-8.44-13.116-19.61-13.116-31.78 0-11.94 4.685-23.13 12.998-31.76 8.547-8.42 19.683-13.12 31.76-13.12 12.096 0 23.251 4.7 31.859 12.94 8.351 8.63 13.116 19.8 13.116 31.76 0 12.14-4.726 23.33-12.998 31.96-8.569 8.42-19.685 13.12-31.78 13.12-12.097 0-23.213-4.7-31.839-13.12z"/></svg>