<svg height="48" viewBox="0 -960 960 960" width="48" xmlns="http://www.w3.org/2000/svg"><path fill="rgb(255, 255, 255)" d="m731-190v-580c0-12.24 3.887-22.71 11.662-31.42.59-.67 1.203-1.33 1.838-1.98.772-.77 1.559-1.51 2.362-2.22 8.558-7.59 18.878-11.38 30.958-11.38 11.895 0 22.129 3.68 30.699 11.03.954.81 1.888 1.67 2.801 2.57.652.66 1.281 1.32 1.886 2 5.607 6.21 9.215 13.31 10.823 21.31.647 3.21.971 6.57.971 10.09v580c0 13.4-4.539 24.6-13.62 33.6-9.079 8.99-20.2 13.4-33.38 13.4-13.159 0-24.28-4.61-33.381-14-.052-.05-.103-.11-.154-.16-8.977-9.3-13.465-20.24-13.465-32.84zm-308.18-627c11.827 0 22.011 3.63 30.552 10.9 1.006.85 1.989 1.75 2.949 2.7.679.68 1.332 1.38 1.961 2.08 5.254 5.85 8.741 12.48 10.461 19.91.839 3.61 1.258 7.41 1.258 11.41v95c0 13.81-4.502 25.4-13.501 34.4-9 9.19-20.101 13.6-33.32 13.6-13.22 0-24.38-4.61-33.501-14-9.118-9.19-13.68-20.59-13.68-34v-95c0-3.86.385-7.53 1.156-11.03 1.688-7.68 5.228-14.52 10.62-20.52.555-.62 1.131-1.24 1.726-1.85.74-.74 1.494-1.45 2.262-2.13 8.578-7.65 18.931-11.47 31.057-11.47zm-306.82 337c0-12.92 4.381-23.96 13.143-33.12.281-.3.567-.6.858-.89l89.1-89.09 9.899-9.9c.058-.06.116-.12.175-.17 8.917-8.89 19.631-13.44 32.14-13.81.542-.01 1.087-.02 1.635-.02h.005.005c13.281 0 24.62 4.61 34.001 14 .751.81 1.471 1.63 2.16 2.46 3.075 3.69 5.528 7.57 7.359 11.66 2.51 5.59 3.851 11.54 4.02 17.87.141 5-.495 9.75-1.91 14.26-1.971 6.32-5.453 12.18-10.445 17.59-.048.05-.096.11-.144.16l-20.992 22h305.991c13.12 0 24.045 3.99 32.774 11.96.585.53 1.16 1.08 1.726 1.65.325.33.645.67.958 1 8.361 8.91 12.542 19.7 12.542 32.39v.01c0 13.19-4.659 24.39-14 33.4-2.2 2.13-4.513 4-6.938 5.63-7.853 5.31-16.874 7.96-27.062 7.96h-305.991l20.992 21c8.68 9.99 12.838 20.99 12.499 33.01-.166 6.22-1.458 12.07-3.875 17.57-2.241 5.1-5.45 9.9-9.625 14.42-9.319 9.39-20.479 14.2-33.46 14.6-12.429.18-23.208-3.84-32.337-12.44-.404-.38-.805-.76-1.203-1.16l-50-50-49.999-49.99c-8.595-8.5-13.244-18.86-13.915-30.91-.057-1.02-.086-2.06-.086-3.1zm306.82 147c11.827 0 22.011 3.63 30.552 10.9 1.006.85 1.989 1.75 2.949 2.7.679.69 1.332 1.38 1.961 2.09 5.254 5.84 8.741 12.48 10.461 19.9.839 3.61 1.258 7.41 1.258 11.41v96c0 13.4-4.541 24.6-13.621 33.6-9.081 8.99-20.199 13.4-33.379 13.4h-.001c-.055 0-.11 0-.165 0-13.089-.04-24.152-4.65-33.215-14-8.273-8.5-12.778-18.39-13.513-29.66-.072-1.1-.108-2.22-.108-3.34v-96c0-3.86.385-7.54 1.156-11.03 1.688-7.68 5.228-14.52 10.62-20.52.555-.63 1.131-1.24 1.726-1.85.74-.74 1.494-1.45 2.262-2.13 8.578-7.65 18.931-11.47 31.057-11.47z"/></svg>