<svg height="48" viewBox="0 -960 960 960" width="48" xmlns="http://www.w3.org/2000/svg"><path fill="rgb(255, 255, 255)" d="m189-95c-26.033 0-48.21-9.157-66.53-27.47-18.313-18.32-27.47-40.497-27.47-66.53v-582c0-26.307 9.157-48.717 27.47-67.23 18.32-18.513 40.497-27.77 66.53-27.77h582c26.307 0 48.717 9.257 67.23 27.77s27.77 40.923 27.77 67.23v582c0 26.033-9.257 48.21-27.77 66.53-18.513 18.313-40.923 27.47-67.23 27.47zm0-94h582v-582h-582zm144.28-185.61 41.92 41.93c5.593 5.99 8.383 12.69 8.383 20.12s-2.718 13.91-8.144 19.41c-5.353 5.98-11.929 8.97-19.762 8.97-7.821 0-14.493-2.87-20.002-8.38l-90.427-90.43c-2.792-2.87-4.983-5.97-6.588-9.33-1.592-3.49-2.395-7.19-2.395-11.14 0-3.6.803-6.94 2.395-10.42 1.605-3.36 3.796-6.48 6.588-9.23l90.427-90.42c5.593-5.26 12.277-7.92 20.062-8.15 7.785-.12 14.349 2.53 19.702 8.15 5.426 5.51 8.144 12.22 8.144 19.99 0 7.79-2.79 14.27-8.383 19.54l-41.92 42.5h137.139c7.892 0 14.648 2.63 20.289 8.15s8.455 12.22 8.455 20.12c0 8.27-2.814 15.1-8.455 20.48-5.641 5.39-12.397 8.14-20.289 8.14zm294.039-153.89h-137.738c-7.88 0-14.54-2.75-19.978-8.26-5.449-5.4-8.167-12.35-8.167-20.62 0-7.89 2.718-14.6 8.167-20 5.438-5.38 12.098-8.01 19.978-8.01h137.738l-42.519-42.51c-5.581-5.64-8.383-12.11-8.383-19.67 0-7.42 2.718-14.11 8.156-20 5.342-5.51 11.93-8.26 19.75-8.26 7.833 0 14.493 2.75 20.002 8.4l90.427 90.42c2.804 2.75 4.995 5.88 6.588 9.35 1.604 3.46 2.395 6.93 2.395 10.41 0 3.96-.791 7.66-2.395 11.01-1.593 3.48-3.784 6.48-6.588 9.36l-90.427 89.82c-5.581 5.51-12.277 8.5-20.062 8.62-7.784.25-14.348-2.62-19.69-8.62-5.438-5.27-8.156-11.74-8.156-19.52 0-7.79 2.802-14.48 8.383-20z"/></svg>