<svg height="48" viewBox="0 -960 960 960" width="48" xmlns="http://www.w3.org/2000/svg"><path fill="rgb(255, 255, 255)" d="m417-393c6 6.22 9 13.61 9 22.17 0 8.55-3 15.83-9 21.83s-13.28 9-21.83 9c-8.56 0-15.95-3-22.17-9l-97-97c-9.33-9.33-14-20.55-14-33.64s4.67-24.54 14-34.36l97-97c6.22-6 13.61-9 22.17-9 8.55 0 15.83 3 21.83 9s9 13.33 9 22-3 16-9 22l-87 87zm-228 298c-26.033 0-48.21-9.16-66.53-27.47-18.313-18.32-27.47-40.5-27.47-66.53v-582c0-26.31 9.157-48.72 27.47-67.23 18.32-18.51 40.497-27.77 66.53-27.77h582c26.307 0 48.717 9.26 67.23 27.77s27.77 40.92 27.77 67.23v582c0 26.03-9.257 48.21-27.77 66.53-18.513 18.31-40.923 27.47-67.23 27.47zm0-94h582v-582h-582zm354-378c-6-6.22-9-13.61-9-22.17 0-8.55 3-15.83 9-21.83s13.33-9 22-9 16 3 22 9l97 97c9.33 9.33 14 20.55 14 33.64s-4.67 24.54-14 34.36l-97 97c-6.22 6-13.61 9-22.17 9-8.55 0-15.83-3-21.83-9s-9-13.33-9-22 3-16 9-22l87-87z"/></svg>