<svg height="48" viewBox="0 -960 960 960" width="48" xmlns="http://www.w3.org/2000/svg"><path fill="rgb(255, 255, 255)" d="m94.834-102.44c-10.018-14.03-14.226-30.26-12.623-48.69 8.816-96.99 33.663-187.96 74.541-272.92 40.878-84.97 93.979-159.9 159.302-224.83 65.324-64.92 140.868-117.41 226.631-157.49 85.762-40.04 177.135-64.09 274.12-72.14 16.831-.8 31.259 4.03 43.282 14.4 12.023 10.46 18.034 24.05 18.034 40.9 0 15.24-5.01 28.66-15.029 40.28-10.018 11.62-22.642 17.84-37.872 18.63-83.357 6.42-161.706 27.06-235.046 61.92-73.338 34.87-138.061 80.16-194.168 135.85-56.107 55.72-101.794 120.04-137.06 192.98-35.267 72.94-56.507 151.09-63.721 234.44-1.602 16.03-7.815 29.66-18.635 40.874-10.821 11.221-24.247 16.836-40.277 16.836-17.633 0-31.459-7.01-41.479-21.04zm408.879-221.332c-12.92 21.538-24.04 43.746-33.08 66.573-9.04 22.831-16.56 45.893-22.49 69.163-2.58 13.78-9.83 24.767-21.47 32.964-11.62 8.195-24.28 12.279-38 12.279-19.9 0-35.69-7.549-47.3-22.623-11.64-15.07-15.77-32.109-12.17-51.061 6.73-30.17 16.02-59.671 27.67-88.551 11.64-28.88 26.12-56.672 43.43-83.379 10.36-15.512 25.08-24.123 44.47-25.855s35.69 3.879 48.62 16.805c11.11 10.343 17.84 22.416 19.89 36.196 2.07 13.78-1.03 26.294-9.57 37.489zm314.136-248.205c0 13.781-4.13 26.5-12.41 38.136-8.27 11.633-19.12 19.183-32.82 22.621-23.28 5.171-46.29 12.489-68.53 21.976-22.49 9.489-44.46 20.684-65.9 33.61-12.17 7.757-25.1 10.551-38.79 8.404-13.98-2.147-25.86-8.842-36.21-20.037-13.96-12.927-19.64-29.086-17.58-48.476 2.07-19.392 11.12-34.257 26.64-44.6 26.62-16.366 54.29-30.379 83.25-42.011 28.96-11.636 58.42-21.33 88.66-29.088 18.88-3.437 35.96.647 50.93 12.279 15.01 11.637 22.76 27.357 22.76 47.186z"/></svg>