<svg height="48" viewBox="0 -960 960 960" width="48" xmlns="http://www.w3.org/2000/svg"><path fill="rgb(255, 255, 255)" d="m323.137-715.869c-6.244 17.96-16.524 33.998-30.914 48.509-13.849 13.641-29.311 23.533-46.39 29.709l-.021 192.961h-.364l.014 124.273c17.177 6.242 32.727 16.265 46.645 30.067 14.229 14.234 24.472 30.104 30.724 47.65l7.237-.027v-.413l78.971.113 28.874-.11v.151l200.564.286c6.261-17.563 16.507-33.457 30.738-47.62 25.39-25.29 56.255-38.14 92.533-38.14 36.277 0 67.122 12.65 92.532 37.94 25.391 25.29 38.096 56.11 38.096 92.08v.39.2c0 15.22-2.252 29.44-6.738 42.48-6.204 18.39-16.638 34.98-31.318 49.6-25.392 25.093-56.195 37.743-92.455 37.743-.038 0-.078 0-.117 0-.04 0-.08 0-.12 0-36.238 0-67.083-12.65-92.453-37.743-13.507-13.493-23.409-28.412-29.726-44.94l-230.665-.328-86.946.328c-6.337 16.747-16.209 31.693-29.692 45.28-25.39 25.013-56.181 37.403-92.429 37.403-.06 0-.079 0-.14 0-.021 0-.06 0-.1 0-36.248 0-67.057-12.39-92.41-37.403-17.414-17.38-28.851-37.38-34.289-59.97-2.518-10.2-3.778-20.99-3.778-32.4v-.19c0-36 12.695-66.79 38.106-92.18 13.875-13.775 29.382-23.841 46.517-30.137l-.096-317.316c-17.107-6.173-32.59-16.075-46.45-29.737-16.033-16.024-27.006-34.101-32.893-54.519-3.453-11.667-5.187-24.239-5.187-37.581 0-.2 0-.2 0-.2 0-.2 0-.2 0-.4 0-36.2 12.68-66.8 38.064-92.1 25.39-25.2 56.25-37.9 92.51-37.9h.024.024c36.277 0 67.151 12.6 92.563 37.81 13.365 13.381 23.211 28.199 29.539 44.487l174-.034c.19-.489.373-.85.549-1.09 6.35-15.753 16.015-30.113 28.997-43.033 25.39-25.29 56.255-38.14 92.533-38.14 36.277 0 67.122 12.65 92.532 37.94 25.391 25.29 38.096 56.11 38.096 92.08v.39.2c0 15.22-2.252 29.44-6.738 42.48-6.204 18.39-16.638 34.98-31.318 49.6-25.392 25.09-56.195 37.74-92.455 37.74-.038 0-.078 0-.117 0-.04 0-.08 0-.12 0-36.238 0-67.083-12.65-92.453-37.74-14.468-14.452-24.799-30.541-31.018-48.49zm-161.035-6.311c4.768 4.683 10.207 8.357 16.008 10.96l.141.06c.041.019.081.038.122.057 6.759 2.991 14.003 4.533 21.246 4.533.984 0 1.967-.026 2.947-.078 5.938-.347 11.832-1.724 17.413-4.079.324-.144.648-.291.97-.443.931-.41 1.854-.845 2.766-1.305 4.811-2.48 9.326-5.72 13.359-9.685 17.886-17.842 20.35-45.233 7.426-65.917-1.656-2.611-3.561-5.108-5.716-7.456-.212-.195-.425-.435-.64-.685-.317-.334-.639-.665-.967-.992-.791-.811-1.601-1.588-2.428-2.333-.554-.473-1.117-.937-1.685-1.417-6.451-5.191-13.854-8.693-21.581-10.458-1.101-.239-2.208-.443-3.319-.612-13.662-2.245-28.006.943-39.676 9.219-2.196 1.598-4.298 3.393-6.284 5.387-.067.071-.134.142-.201.214-.03.025-.06.052-.09.078-.155.156-.309.313-.462.47-.427.477-.833 1.011-1.242 1.326-2.347 2.59-4.393 5.356-6.137 8.255-12.25 20.505-9.592 47.332 8.03 64.901zm-.032 561.78c10.375 10.18 23.932 15.79 37.507 15.79 7.297 0 14.535-1.39 21.313-4.61 5.918-2.79 11.497-6.38 16.335-11.18 1.26-1 2.459-2.6 3.579-4 16.974-20.8 15.714-51.59-3.679-70.99-8.217-8.38-18.413-13.18-29.01-14.79-14.595-2.4-29.99 1.4-42.047 11-1.42 1.21-2.799 2.39-4.099 3.79-.698.61-1.32 1.61-1.958 2.01-18.674 21-18.015 52.98 2.059 72.98zm418.187-561.7c10.372 10.47 23.947 15.61 37.543 15.61 7.271 0 14.523-1.39 21.32-4.36 5.907-2.57 11.46-6.51 16.302-11.25 1.282-1.2 2.47-2.57 3.595-3.95 16.973-20.95 15.728-51.58-3.695-70.94-8.199-8.51-18.377-13.44-28.986-15.02-14.603-2.37-30.014 1.38-42.068 11.26-1.422 1.19-2.786 2.37-4.111 3.76-.671.6-1.322 1.37-1.956 1.97-18.671 20.95-17.98 52.96 2.056 72.92zm143.948 561.6c10.372 10.47 23.947 15.61 37.543 15.61 7.271 0 14.523-1.39 21.32-4.36 5.907-2.57 11.46-6.51 16.302-11.25 1.282-1.2 2.47-2.57 3.595-3.95 16.973-20.95 15.728-51.58-3.695-70.94-8.199-8.51-18.377-13.44-28.986-15.02-14.603-2.37-30.014 1.38-42.068 11.26-1.422 1.19-2.786 2.37-4.111 3.76-.671.6-1.322 1.37-1.956 1.97-18.671 20.95-17.98 52.96 2.056 72.92z"/></svg>