<svg height="48" viewBox="0 -960 960 960" width="48" xmlns="http://www.w3.org/2000/svg"><path fill="rgb(255, 255, 255)" d="m149-135c-26.033 0-48.21-9.16-66.53-27.48-18.313-18.313-27.47-40.487-27.47-66.52v-502c0-26.307 9.157-48.717 27.47-67.23 18.32-18.513 40.497-27.77 66.53-27.77h662c26.307 0 48.717 9.257 67.23 27.77s27.77 40.923 27.77 67.23v502c0 26.033-9.257 48.207-27.77 66.52-18.513 18.32-40.923 27.48-67.23 27.48zm332-184c66.42 0 123.693-15.833 171.82-47.5 48.12-31.667 72.18-69.5 72.18-113.5s-24.06-81.833-72.18-113.5c-48.127-31.667-105.4-47.5-171.82-47.5s-123.693 15.833-171.82 47.5c-48.12 31.667-72.18 69.5-72.18 113.5s24.06 81.833 72.18 113.5c48.127 31.667 105.4 47.5 171.82 47.5z"/><path d="m149-229v-502z"/></svg>