<svg viewBox="0 0 22 22" xmlns="http://www.w3.org/2000/svg"><path fill="rgb(255, 255, 255)" d="m20.5 11c0 1.796-1.151 3.52-2.859 4.659-1.689 1.126-4.084 1.841-6.641 1.841s-4.952-.715-6.641-1.841c-1.708-1.139-2.859-2.863-2.859-4.659s1.151-3.52 2.859-4.659c1.689-1.126 4.084-1.841 6.641-1.841s4.952.715 6.641 1.841c1.708 1.139 2.859 2.863 2.859 4.659zm-14.892-3.112c-1.367.855-2.108 1.877-2.108 3.112s.741 2.257 2.108 3.112c1.388.867 3.25 1.388 5.392 1.388s4.004-.521 5.392-1.388c1.367-.855 2.108-1.877 2.108-3.112s-.741-2.257-2.108-3.112c-1.388-.867-3.25-1.388-5.392-1.388s-4.004.521-5.392 1.388z"/></svg>