<svg viewBox="0 0 22 22" xmlns="http://www.w3.org/2000/svg"><path fill="rgb(255, 255, 255)" d="m10.833 4.871c-.41 0-.776.094-1.099.285s-.603.441-.84.752c-.173.276-.418.465-.733.569-.315.101-.609.08-.88-.068-.329-.117-.56-.33-.692-.637-.132-.308-.109-.593.071-.855.441-.738 1.032-1.318 1.769-1.741.738-.425 1.543-.637 2.415-.637 1.253 0 2.342.41 3.266 1.227.924.819 1.386 1.842 1.386 3.069 0 .362-.045.704-.133 1.025-.088.323-.235.631-.44.924-.41.558-.865 1.049-1.363 1.474-.499.426-.909.931-1.231 1.517-.059.089-.132.308-.22.661-.069.342-.214.632-.435.871-.22.24-.501.36-.841.36-.379 0-.686-.126-.922-.377-.235-.251-.338-.544-.31-.879.03-.26.075-.508.133-.743.058-.236.158-.471.302-.705.326-.572.753-1.064 1.28-1.474.529-.41.986-.886 1.373-1.426.083-.104.197-.495.344-1.166 0-.559-.223-1.037-.666-1.433s-.954-.593-1.534-.593zm.004 13.986c-.471 0-.876-.164-1.214-.494-.336-.328-.505-.736-.505-1.222 0-.44.169-.828.505-1.164.337-.339.74-.507 1.212-.507s.868.168 1.188.507c.322.336.482.732.482 1.187 0 .454-.16.85-.48 1.188-.32.336-.717.505-1.188.505zm6.007.108c0 .284-.098.524-.292.72-.194.197-.434.295-.72.295-.285 0-.526-.098-.724-.295-.196-.196-.295-.436-.295-.72v-3.976c0-.285.098-.524.294-.722.196-.195.437-.294.722-.294h3.975c.284 0 .524.098.72.292.197.195.295.435.295.721 0 .285-.098.527-.295.723-.196.197-.436.296-.72.296h-1.535l1.686 1.685c.202.201.302.439.302.713 0 .273-.097.511-.294.713-.207.201-.451.306-.732.313s-.522-.089-.724-.292l-1.663-1.685z"/></svg>