<svg height="48" viewBox="0 -960 960 960" width="48" xmlns="http://www.w3.org/2000/svg"><path fill="rgb(255, 255, 255)" d="m925.793-480c0 28.89-23.424 52.32-52.318 52.32-15.81 0-29.982-7.015-39.575-18.1h-169.032c-8.4-.6-18.86-4.6-24.218-10-5.341-5.42-9.96-15.81-9.96-24.21s4.679-18.8 10.04-24.19c5.378-5.4 15.798-9.4 24.138-10h168.997c9.594-11.109 23.781-18.14 39.61-18.14 28.894 0 52.318 23.43 52.318 52.32zm-839.266 52.32c-28.896 0-52.32-23.42-52.32-52.32s23.424-52.32 52.32-52.32c15.813 0 29.987 7.013 39.58 18.1h169.025c8.335.64 18.768 4.6 24.14 9.94 5.374 5.35 10.038 15.8 10.038 24.18 0 8.36-4.614 18.81-9.957 24.2-5.35 5.41-15.824 9.45-24.221 10.12h-169.025c-9.593 11.087-23.767 18.1-39.58 18.1zm434.236-151.7c1.375-1.45 2.798-2.66 4.294-3.86 6.755-5.07 14.596-7.96 23.666-7.96h1.013 1.882c10.132.24 18.913 4.1 26.44 11.09.313.24.603.73.917.96 8.081 7.97 12.182 17.85 12.303 29.44.145 11.58-3.764 21.23-11.653 29.18l-40.938 41.02 40.07 40.05c8.154 8.19 12.472 17.85 12.931 29.19.482 11.09-3.498 20.98-11.918 29.43-.024 0-.024 0-.047 0-8.179 8.2-18.142 12.3-29.914 12.3-11.098 0-20.578-3.62-28.443-10.62-.482-.48-.965-.96-1.447-1.45l-40.094-40.04-40.094 40.04c-7.889 7.97-17.611 11.83-29.118 11.58-11.483 0-21.278-4.1-29.456-12.3-.096 0-.168 0-.265-.24-7.84-7.72-11.821-17.36-11.917-28.95-.072-9.89 2.919-18.33 8.733-25.32.965-1.21 2.027-2.42 3.184-3.62l40.094-40.05-40.263-40.29c-8.009-7.96-12.159-17.85-12.447-29.67-.121-11.34 3.859-21.47 12.278-29.91 8.444-8.45 18.504-12.31 29.769-12.07 11.435.49 21.157 4.82 29.142 12.79.096 0 .194 0 .266.24l40.094 40.04z" stroke-width=".637"/></svg>