<svg clip-rule="evenodd" fill-rule="evenodd" stroke-linejoin="round" stroke-miterlimit="2" viewBox="0 0 48 48" xmlns="http://www.w3.org/2000/svg"><path fill="rgb(255, 255, 255)" d="m30.869 12.417c-.051.005-.123.015-.2.032-.835.188-2.61 1.324-4.6 3.457-.383.422-.924.664-1.494.664-1.106 0-2.017-.911-2.017-2.017 0-.314.074-.629.217-.909.094-.182.21-.345.346-.489 2.373-2.545 4.498-4.152 6.669-4.642h.003c.286-.062.58-.105.878-.115.916-.04 1.852.183 2.613.752.993.748 1.523 1.907 1.728 3.166.388 2.363-.183 5.214-1.304 8.442-1.106 3.18-2.797 6.679-4.921 10.047-.365.584-1.012.942-1.703.942-1.106 0-2.018-.91-2.018-2.014 0-.383.109-.755.311-1.076 1.961-3.114 3.529-6.371 4.519-9.222.973-2.793 1.341-5.235 1.136-6.472-.042-.264-.121-.454-.163-.546zm-22.305 12.894c.026.037.064.081.1.126.541.609 2.393 1.602 5.25 2.269.911.215 1.56 1.032 1.56 1.965 0 1.106-.911 2.018-2.017 2.018-.153 0-.306-.017-.457-.053-3.42-.799-5.881-1.854-7.362-3.538-.799-.908-1.294-2.17-1.082-3.422.207-1.23.98-2.232 2.005-3.029 1.928-1.492 4.772-2.42 8.205-3.037 2.538-.46 5.392-.716 8.35-.731.985-.008 1.982.013 2.983.062 1.069.054 1.921.946 1.921 2.014 0 1.106-.912 2.016-2.018 2.016h-.098c-3.704-.181-7.376.054-10.422.604-2.99.538-5.388 1.438-6.449 2.259-.258.198-.405.383-.469.477zm22.322 12.868c.017-.039.037-.093.057-.147.261-.778.19-2.894-.669-5.716-.059-.196-.089-.395-.089-.601 0-1.102.908-2.014 2.014-2.014.675 0 1.302.339 1.68.897l.002.007c.109.165.191.345.247.541 1.027 3.372 1.353 6.039.635 8.173-.386 1.147-1.24 2.212-2.434 2.656-1.176.432-2.433.259-3.638-.237-2.261-.931-4.496-2.943-6.753-5.624-2.23-2.638-4.419-5.942-6.249-9.524-.148-.284-.222-.6-.222-.921 0-1.104.906-2.015 2.01-2.015.758-.002 1.454.423 1.799 1.094 1.692 3.308 3.739 6.387 5.746 8.768 1.968 2.336 3.951 3.98 5.205 4.494v.002c.311.128.548.161.659.167zm-14.886-25.76c-.027.06-.077.173-.109.305-.115.451-.155 1.224-.029 2.244v.013c.007.066.01.132.01.2 0 1.106-.912 2.014-2.016 2.014-.999 0-1.856-.743-1.995-1.736l-.002-.007c-.173-1.407-.151-2.632.126-3.721.292-1.153.944-2.23 1.993-2.832.666-.383 1.41-.531 2.158-.506.437.011.874.088 1.294.207 1.081.309 2.148.911 3.286 1.767.198.144.371.324.501.532.213.325.324.706.324 1.094 0 1.106-.908 2.014-2.016 2.014-.448 0-.885-.147-1.239-.424-.822-.62-1.506-.976-1.96-1.104-.134-.04-.256-.054-.326-.06zm22.318 12.882c-.039-.052-.111-.146-.205-.237-.333-.329-.982-.753-1.928-1.156-.751-.311-1.245-1.046-1.245-1.862 0-1.103.912-2.014 2.016-2.014h.027c.269.005.535.064.777.17 1.314.561 2.365 1.188 3.173 1.978.852.835 1.455 1.95 1.44 3.168-.017 1.22-.639 2.311-1.502 3.136-.817.778-1.876 1.402-3.195 1.958-.262.12-.548.182-.842.182-1.103 0-2.014-.908-2.014-2.014 0-.838.518-1.588 1.303-1.887.958-.4 1.62-.827 1.968-1.155.111-.109.188-.21.227-.267zm-22.32 12.889c.068-.007.197-.024.347-.069.473-.141 1.185-.514 2.035-1.166v-.002c.35-.264.776-.407 1.215-.407 1.106 0 2.017.91 2.017 2.014 0 .623-.286 1.205-.772 1.588l-.005.002c-1.156.891-2.248 1.511-3.344 1.837-1.163.344-2.442.333-3.511-.279-1.071-.614-1.721-1.713-2.01-2.888-.271-1.112-.281-2.363-.094-3.808.03-.245.102-.482.215-.703l.003-.003c.355-.671 1.061-1.091 1.822-1.076 1.091.019 1.978.923 1.978 2.014 0 .099-.005.198-.022.299-.136 1.054-.104 1.849.012 2.321.035.14.084.262.114.326zm24.271-26.846-1.126-2.51-2.511-1.127c-.511-.247-.768-.636-.768-1.18 0-.552.257-.941.768-1.176l2.511-1.077 1.126-2.562c.205-.481.582-.717 1.127-.717.546 0 .941.236 1.179.717l1.127 2.562 2.51 1.077c.513.235.769.624.769 1.176 0 .544-.256.933-.769 1.18l-2.51 1.127-1.127 2.51c-.238.512-.633.768-1.179.768-.545 0-.922-.256-1.127-.768z"/></svg>