<svg clip-rule="evenodd" fill-rule="evenodd" stroke-linejoin="round" stroke-miterlimit="2" viewBox="0 0 48 48" xmlns="http://www.w3.org/2000/svg"><path fill="rgb(255, 255, 255)" d="m27.044 5.487c.393 1.137.803 2.35.803 2.35.867.207 1.717.483 2.541.826 0 0 .978-.693 1.93-1.369 1.143-.811 2.675-.803 3.809.021.03.034.066.062.102.088 1.061.783 1.508 2.151 1.116 3.409-.35 1.15-.732 2.373-.732 2.373.581.677 1.105 1.401 1.57 2.162 0 0 1.2.013 2.367.026 1.401.016 2.636.924 3.068 2.257.004.046.018.088.032.131.398 1.256-.045 2.627-1.103 3.413-.839.634-1.731 1.3-1.941 1.456-1.427-.677-3.023-1.055-4.707-1.055-.08 0-.16.001-.239.003-1.121-5.412-5.918-9.485-11.66-9.485-6.571 0-11.907 5.336-11.907 11.908 0 6.571 5.336 11.905 11.907 11.905.467 0 .929-.027 1.382-.08.505 1.636 2.082 5.473 1.709 6.58-.448 1.327-1.693 2.22-3.095 2.22-.044-.01-.09-.01-.135-.01-1.318-.01-2.484-.854-2.905-2.103-.393-1.138-.803-2.351-.803-2.351-.868-.206-1.717-.482-2.54-.826 0 0-.979.694-1.931 1.37-1.142.811-2.675.803-3.809-.021-.03-.034-.066-.062-.102-.089-1.061-.782-1.508-2.15-1.116-3.408.35-1.151.732-2.373.732-2.373-.58-.677-1.105-1.401-1.57-2.162 0 0-1.2-.013-2.367-.026-1.401-.016-2.635-.924-3.068-2.257-.004-.046-.018-.088-.031-.131-.398-1.256.044-2.627 1.102-3.413.959-.725 1.987-1.49 1.987-1.49-.072-.889-.072-1.783 0-2.672 0 0-.963-.717-1.9-1.413-1.123-.836-1.59-2.295-1.156-3.627.023-.04.037-.083.052-.126.417-1.251 1.58-2.1 2.897-2.114 1.204-.023 2.484-.037 2.484-.037.465-.761.99-1.485 1.57-2.162 0 0-.357-1.144-.705-2.259-.419-1.337.063-2.792 1.197-3.615.042-.018.079-.045.115-.071 1.073-.767 2.513-.769 3.588-.006.986.689 2.031 1.429 2.031 1.429.823-.343 1.672-.619 2.54-.826 0 0 .383-1.136.756-2.243.449-1.327 1.693-2.22 3.095-2.22.044.01.09.01.136.01 1.317.01 2.483.854 2.904 2.103zm-8.691 25.725v-14.393c0-.442.143-.793.426-1.054.284-.26.612-.391.983-.391.121 0 .248.015.383.045.136.03.271.085.403.163l11.325 7.259c.211.141.374.311.489.511.116.201.174.422.174.664 0 .241-.058.462-.174.662-.115.201-.278.371-.489.511l-11.325 7.26c-.134.078-.269.129-.406.148-.136.02-.265.03-.385.03-.374 0-.702-.122-.982-.369-.281-.247-.422-.596-.422-1.046zm16.526-5.376c.018-.521.219-1.071.573-1.43.356-.361.907-.584 1.431-.584s1.076.221 1.437.58c.362.359.568.911.586 1.434v10.971l1.917-1.916c.372-.358.896-.606 1.387-.606.486 0 1.016.234 1.424.582.013.012.026.024.037.037.349.408.582.939.582 1.425 0 .491-.242 1.009-.6 1.384l-4.691 4.69c-.552.525-1.295.852-2.051.852-.754 0-1.515-.333-2.089-.854l-4.617-4.667c-.395-.373-.673-.904-.673-1.405 0-.496.263-1.033.647-1.44.373-.357.893-.604 1.385-.604.487 0 1.04.256 1.448.604l1.867 1.901z"/></svg>