<svg clip-rule="evenodd" fill-rule="evenodd" stroke-linejoin="round" stroke-miterlimit="2" viewBox="0 0 48 48" xmlns="http://www.w3.org/2000/svg"><path fill="rgb(255, 255, 255)" d="m29.201 16.29c-.377.377-.838.613-1.379.707-.543.094-1.05 0-1.521-.282-.777-.495-1.603-.92-2.474-1.273-.873-.354-1.78-.649-2.723-.884-.542-.118-.972-.395-1.29-.831-.319-.436-.466-.949-.442-1.538-.024-.731.259-1.332.848-1.803.589-.472 1.238-.636 1.945-.495 1.178.283 2.321.66 3.429 1.131s2.18 1.014 3.218 1.627c.612.424.966 1.001 1.06 1.732s-.129 1.367-.671 1.909zm6.717 12.445c-.566.047-1.078-.088-1.538-.406-.459-.318-.725-.749-.795-1.291-.237-.943-.525-1.844-.867-2.704-.341-.861-.76-1.704-1.255-2.528-.283-.425-.389-.908-.318-1.45.07-.542.306-1.013.707-1.414.543-.542 1.178-.767 1.909-.672.731.094 1.308.448 1.733 1.061.636 1.013 1.184 2.079 1.644 3.199.459 1.12.819 2.258 1.078 3.412.165.731.017 1.385-.442 1.963-.459.576-1.079.854-1.856.83zm-21.299-19.53c-.001 2.914-2.363 5.276-5.277 5.276s-5.276-2.362-5.276-5.276 2.362-5.276 5.276-5.276 5.276 2.362 5.277 5.276zm29.315 29.59c0 2.914-2.362 5.276-5.277 5.276-2.913 0-5.275-2.362-5.275-5.276s2.361-5.276 5.276-5.276c2.913 0 5.276 2.362 5.276 5.276z" stroke-width=".05"/></svg>