<svg viewBox="0 0 22 22" xmlns="http://www.w3.org/2000/svg"><path fill="rgb(255, 255, 255)" d="m4.102 10.926c-.383 0-.712-.138-.989-.414-.277-.275-.415-.609-.415-1 0-.392.138-.73.415-1.013.277-.282.606-.424.989-.424h1.983v-1.941c0-.395.131-.734.392-1.019.262-.284.597-.427 1.005-.427.397 0 .738.143 1.024.427.286.285.429.624.429 1.019v1.941h1.942c.383 0 .712.141.989.422s.415.62.415 1.017c0 .385-.138.716-.415.994s-.606.418-.989.418h-1.942v1.941c0 .395-.137.734-.413 1.019-.275.284-.617.427-1.025.427s-.746-.143-1.012-.427c-.267-.285-.4-.624-.4-1.019v-1.941zm7.151 6.592c-.277-.275-.415-.609-.415-1 0-.392.138-.73.415-1.013.277-.282.606-.424.989-.424h6.775c.383 0 .712.141.989.422s.415.62.415 1.017c0 .385-.138.716-.415.994s-.606.418-.989.418h-6.775c-.383 0-.712-.138-.989-.414z"/></svg>