<svg height="48" viewBox="0 -960 960 960" width="48" xmlns="http://www.w3.org/2000/svg"><path fill="rgb(255, 255, 255)" d="m189-95c-26.033 0-48.21-9.157-66.53-27.47-18.313-18.32-27.47-40.497-27.47-66.53v-116c0-13.167 4.56-24.293 13.68-33.38 9.113-9.08 20.28-13.62 33.5-13.62 13.213 0 24.32 4.54 33.32 13.62 9 9.087 13.5 20.213 13.5 33.38v116h116c13.167 0 24.293 4.56 33.38 13.68 9.08 9.113 13.62 20.28 13.62 33.5 0 13.213-4.54 24.32-13.62 33.32-9.087 9-20.213 13.5-33.38 13.5zm339-169c-26.8 0-49.34-9.2-67.6-27.4-18.26-18.4-27.4-40.8-27.4-67.6v-243c0-26.8 9.14-49.4 27.4-67.6 18.26-18.4 40.8-27.4 67.6-27.4h243v-74h-116c-13.167 0-24.29-4.56-33.37-13.68-9.087-9.113-13.63-20.25-13.63-33.41 0-13.153 4.543-24.427 13.63-33.82 9.08-9.393 20.203-14.09 33.37-14.09h116c26.307 0 48.717 9.257 67.23 27.77s27.77 40.923 27.77 67.23v582c0 26.033-9.257 48.21-27.77 66.53-18.513 18.313-40.923 27.47-67.23 27.47h-116c-13.167 0-24.29-4.56-33.37-13.68-9.087-9.113-13.63-20.28-13.63-33.5 0-13.213 4.543-24.32 13.63-33.32 9.08-9 20.203-13.5 33.37-13.5h116v-75zm-48.18 169c-13.22 0-24.32-4.6-33.32-13.8-9-9.4-13.5-20.4-13.5-33.2 0-12.6 4.56-23.8 13.68-33 9.12-9.4 20.28-14 33.5-14s24.32 4.6 33.32 14 13.5 20.6 13.5 33.6c0 12.8-4.56 23.8-13.68 32.8s-20.28 13.6-33.5 13.6zm-176-338c-12.84 0-23.86-4.6-33.04-13.8-9.18-9-13.78-20.2-13.78-33.4s4.68-24.4 14.06-33.4 20.54-13.4 33.5-13.4 24.1 4.6 33.44 13.6c9.34 9.2 14 20.4 14 33.6s-4.74 24.2-14.24 33.2-20.8 13.6-33.94 13.6zm-162.38 0c-12.96 0-23.94-4.6-32.94-13.8-9-9-13.5-20.2-13.5-33.4s4.62-24.4 13.86-33.4 20.24-13.4 33-13.4 23.8 4.6 33.14 13.6c9.34 9.2 14 20.4 14 33.6s-4.68 24.2-14.06 33.2-20.54 13.6-33.5 13.6zm338.38-338c-13.22 0-24.32-4.8-33.32-14.2-9-9.2-13.5-20.4-13.5-33.4s4.56-24.2 13.68-33.4c9.12-9.4 20.28-14 33.5-14s24.32 4.8 33.32 14.2 13.5 20.8 13.5 34c0 12.8-4.56 23.8-13.68 33s-20.28 13.8-33.5 13.8zm-384.82 116v-116c0-26.307 9.157-48.717 27.47-67.23 18.32-18.513 40.497-27.77 66.53-27.77h116c13.167 0 24.293 4.753 33.38 14.26 9.08 9.513 13.62 20.847 13.62 34 0 13.16-4.54 24.24-13.62 33.24-9.087 9-20.213 13.5-33.38 13.5h-116v116c0 13.167-4.56 24.29-13.68 33.37-9.113 9.087-20.28 13.63-33.5 13.63-13.213 0-24.32-4.543-33.32-13.63-9-9.08-13.5-20.203-13.5-33.37zm208.82 47c-12.84 0-23.86-4.59-33.039-13.79-9.181-9-13.781-20.2-13.781-33.4s4.68-24.4 14.06-33.41c9.38-8.99 20.54-13.39 33.5-13.39 12.959 0 24.1 4.6 33.44 13.6 9.339 9.2 14 20.4 14 33.6s-4.741 24.19-14.241 33.2c-9.499 9-20.8 13.59-33.939 13.59zm0 350c-12.84 0-23.859-4.6-33.04-13.8-9.18-9.01-13.78-20.2-13.78-33.4s4.68-24.4 14.06-33.41c9.38-8.99 20.539-13.39 33.5-13.39 12.96 0 24.1 4.6 33.439 13.6 9.341 9.2 14.001 20.4 14.001 33.6s-4.74 24.21-14.24 33.2c-9.5 9-20.8 13.6-33.94 13.6z"/></svg>