<svg height="48" viewBox="0 -960 960 960" width="48" xmlns="http://www.w3.org/2000/svg"><path fill="rgb(255, 255, 255)" d="m323.137-715.869c-6.244 17.96-16.524 33.998-30.914 48.509-13.849 13.641-29.311 23.533-46.39 29.709l-.021 192.961h-.364l.014 124.273c17.177 6.242 32.727 16.265 46.645 30.067 14.229 14.234 24.472 30.104 30.724 47.65l7.237-.027v-.413l78.971.113 28.874-.11v.151l200.632.286c6.252-17.55 16.495-33.42 30.724-47.65 13.918-13.81 29.468-23.83 46.645-30.07l.014-124.26h-.364l-.021-193.025c-17.079-6.113-32.541-16.063-46.39-29.655-14.39-14.5-24.67-30.6-30.914-48.5l-165.759-.053zm-1.299 565.159c-6.337 16.747-16.209 31.693-29.692 45.28-25.39 25.013-56.181 37.403-92.429 37.403-.06 0-.079 0-.14 0-.021 0-.06 0-.1 0-36.248 0-67.057-12.39-92.41-37.403-17.414-17.38-28.851-37.38-34.289-59.97-2.518-10.2-3.778-20.99-3.778-32.4v-.19c0-36 12.695-66.79 38.106-92.18 13.875-13.775 29.382-23.841 46.517-30.137l-.096-317.316c-17.107-6.173-32.59-16.075-46.45-29.737-16.033-16.024-27.006-34.101-32.893-54.519-3.453-11.667-5.187-24.239-5.187-37.581 0-.2 0-.2 0-.2 0-.2 0-.2 0-.4 0-36.2 12.68-66.8 38.064-92.1 25.39-25.2 56.25-37.9 92.51-37.9h.024.024c36.277 0 67.151 12.6 92.563 37.81 13.365 13.381 23.211 28.199 29.539 44.487l317.948-.034c6.329-16.285 16.17-31.073 29.525-44.463 25.412-25.2 56.286-37.8 92.563-37.8h.024.024c36.26 0 67.12 12.66 92.51 37.94 25.154 25.035 37.833 55.336 38.057 91.057.003.367.004.735.004 1.103v.4c0 .911-.008 1.817-.024 2.72-.206 11.808-1.789 22.998-4.738 33.488-5.776 21.024-16.891 39.576-33.315 55.992-11.272 11.142-23.617 19.77-37.036 25.885-3.082 1.415-6.22 2.7-9.414 3.854l-.096 317.311c17.135 6.29 32.642 16.36 46.517 30.13 25.411 25.39 38.106 56.19 38.106 92.19v.18c0 11.41-1.26 22.21-3.778 32.4-5.438 22.6-16.875 42.6-34.289 59.97-25.353 25.02-56.162 37.41-92.41 37.41-.04 0-.079 0-.1 0-.061 0-.08 0-.14 0-36.248 0-67.039-12.39-92.429-37.41-13.483-13.58-23.355-28.53-29.692-45.27l-230.754-.328zm402.464-571.48c4.089 4.053 8.676 7.338 13.562 9.83.846.422 1.701.821 2.563 1.2.308.146.618.287.928.425 6.53 2.759 13.492 4.165 20.45 4.165.916 0 1.832-.022 2.746-.066 12.62-.688 25.051-6.024 34.723-15.524 15.986-15.931 19.658-39.538 11.055-59.098-2.574-5.801-6.239-11.227-10.994-15.962-3.602-3.641-7.587-6.636-11.823-8.986-4.617-2.515-9.536-4.316-14.584-5.386-.858-.175-1.719-.328-2.583-.458-14.6-2.36-29.98 1.38-42.033 11.07-1.42 1.19-2.81 2.37-4.11 3.76-.647.553-1.242 1.459-1.841 1.891-.895.988-1.746 2.002-2.554 3.04-16.123 21.076-14.64 51.088 4.495 70.099zm-562.2.01c4.768 4.683 10.207 8.357 16.008 10.96l.141.06c.041.019.081.038.122.057 6.759 2.991 14.003 4.533 21.246 4.533.984 0 1.967-.026 2.947-.078 5.938-.347 11.832-1.724 17.413-4.079.324-.144.648-.291.97-.443.931-.41 1.854-.845 2.766-1.305 4.811-2.48 9.326-5.72 13.359-9.685 17.886-17.842 20.35-45.233 7.426-65.917-1.656-2.611-3.561-5.108-5.716-7.456-.212-.195-.425-.435-.64-.685-.317-.334-.639-.665-.967-.992-.791-.811-1.601-1.588-2.428-2.333-.554-.473-1.117-.937-1.685-1.417-6.451-5.191-13.854-8.693-21.581-10.458-1.101-.239-2.208-.443-3.319-.612-13.662-2.245-28.006.943-39.676 9.219-2.196 1.598-4.298 3.393-6.284 5.387-.067.071-.134.142-.201.214-.03.025-.06.052-.09.078-.155.156-.309.313-.462.47-.427.477-.833 1.011-1.242 1.326-2.347 2.59-4.393 5.356-6.137 8.255-12.25 20.505-9.592 47.332 8.03 64.901zm-.032 561.78c10.375 10.18 23.932 15.79 37.507 15.79 7.297 0 14.535-1.39 21.313-4.61 5.918-2.79 11.497-6.38 16.335-11.18 1.26-1 2.459-2.6 3.579-4 16.974-20.8 15.714-51.59-3.679-70.99-8.217-8.38-18.413-13.18-29.01-14.79-14.595-2.4-29.99 1.4-42.047 11-1.42 1.21-2.799 2.39-4.099 3.79-.698.61-1.32 1.61-1.958 2.01-18.674 21-18.015 52.98 2.059 72.98zm639.295-72.99c-.638-.4-1.26-1.4-1.958-2.01-1.3-1.4-2.679-2.57-4.099-3.79-12.057-9.6-27.452-13.39-42.047-11-10.597 1.62-20.793 6.41-29.01 14.79-19.393 19.41-20.653 50.2-3.679 70.99 1.12 1.4 2.319 3 3.579 4 4.838 4.81 10.417 8.39 16.335 11.19 6.778 3.21 14.016 4.61 21.313 4.61 13.575 0 27.132-5.61 37.507-15.8 20.074-20 20.733-51.98 2.059-72.98z"/></svg>