<svg height="48" viewBox="0 -960 960 960" width="48" xmlns="http://www.w3.org/2000/svg"><path fill="rgb(255, 255, 255)" d="m613.506-788.58c10.826-10.01 26.209-16.48 40.899-17.24 14.755.33 30.428 6.7 41.33 16.74 10.066 10.93 16.438 26.65 16.746 41.41-.911 14.63-7.541 29.85-17.505 40.56l-342.949 342.95c2.264 5.22 1.455 3.32 2.063 4.79h484.096c14.699.57 30.204 6.84 41.128 16.62 10.184 10.73 17.367 26.3 17.367 41.14 0 14.87-7.224 30.42-17.436 41.05-10.926 9.67-26.397 15.85-41.059 16.4h-486.013c-7.471 16.89-15.688 30.27-31.937 46.56-28.798 27.83-66.064 43.42-106.388 43.42-.036 0-.084 0-.12 0-.059 0-.108 0-.144 0-40.311 0-77.596-15.59-106.374-43.43-19.228-19.4-33.085-43.46-39.552-68.78-2.756-11.55-4.288-24.6-4.34-37.07v-.36c.587-40.31 15.991-77.55 43.93-106.1 28.716-27.8 66.047-43.89 106.48-43.89 23.03 0 38.067 3.55 55.079 9.93zm-399.85 547.78c19.044 0 32.093-4.67 44.648-18.02 13.423-12.62 18.125-25.5 18.125-44.53 0-19.05-4.68-32.18-18.02-44.63-12.466-13.44-25.511-18.15-44.538-18.15-19.031 0-32.098 4.7-44.668 18.04-13.399 12.48-18.104 25.48-18.104 44.51 0 19.04 4.685 32.05 18.046 44.67 12.518 13.34 25.521 18.11 44.511 18.11zm496.021-375.29c1.834-12.28 7.813-22.96 17.707-32.22 11.496-11.57 25.999-16.55 43.26-14.95 17.245 1.62 30.343 9.07 39.559 22.95 15.411 23.86 28.295 48.59 38.653 74.21 10.356 25.63 18.63 51.97 24.609 78.84 3.204 16.9-.461 32.04-10.82 45.38-10.338 13.35-24.379 20.11-42.084 20.11-12.208 0-23.472-3.56-33.812-10.86-10.356-7.3-16.817-17.07-19.112-29.35-5.267-20.66-11.958-41.29-20.001-61.59-8.044-20.28-17.939-40.03-29.434-59.25-7.599-9.98-10.357-21-8.525-33.27z" stroke-width="31"/></svg>