<svg height="48" viewBox="0 -960 960 960" width="48" xmlns="http://www.w3.org/2000/svg"><path fill="rgb(255, 255, 255)" d="m680-255c-51.347 0-96.683-15.333-136.01-46-37.054-28.894-63.161-67.257-78.323-115.09h-307.923c-19.257 0-35.205-6.12-47.83-18.91-12.625-12.81-18.93-28.12-18.93-46.75 0-18.35 6.305-33.66 18.93-46.17 12.625-12.52 28.573-18.91 47.83-18.91h308.583c15.254-46.324 41.141-83.881 77.663-112.67 39.327-31 84.663-46.5 136.01-46.5 62.073 0 115.257 22.14 159.55 66.42 44.3 44.28 66.45 97.51 66.45 159.69 0 62.173-22.15 115.2-66.45 159.08-44.293 43.873-97.477 65.81-159.55 65.81zm-.18-94c36.787 0 67.847-12.607 93.18-37.82 25.333-25.22 38-56.22 38-93 0-36.787-12.607-67.847-37.82-93.18-25.22-25.333-56.22-38-93-38-36.787 0-67.847 12.607-93.18 37.82-25.333 25.22-38 56.22-38 93 0 36.787 12.607 67.847 37.82 93.18 25.22 25.333 56.22 38 93 38z"/></svg>