<svg height="48" viewBox="0 -960 960 960" width="48" xmlns="http://www.w3.org/2000/svg"><path fill="rgb(255, 255, 255)" d="m528-95c-26.8 0-49.34-9.2-67.6-27.4-18.26-18.4-27.4-40.8-27.4-67.6v-243c0-26.8 9.14-49.4 27.4-67.6 18.26-18.4 40.8-27.4 67.6-27.4h243c26.8 0 49.34 9 67.62 27.4 18.26 18.2 27.38 40.8 27.38 67.6v243c0 26.8-9.12 49.2-27.38 67.6-18.28 18.2-40.82 27.4-67.62 27.4zm-339 0c-26.033 0-48.21-9.157-66.53-27.47-18.313-18.32-27.47-40.497-27.47-66.53v-116c0-13.167 4.56-24.293 13.68-33.38 9.113-9.08 20.28-13.62 33.5-13.62 13.213 0 24.32 4.54 33.32 13.62 9 9.087 13.5 20.213 13.5 33.38v116h116c13.167 0 24.293 4.56 33.38 13.68 9.08 9.113 13.62 20.28 13.62 33.5 0 13.213-4.54 24.32-13.62 33.32-9.087 9-20.213 13.5-33.38 13.5zm582-560v-116h-116c-13.167 0-24.29-4.56-33.37-13.68-9.087-9.113-13.63-20.25-13.63-33.41 0-13.153 4.543-24.427 13.63-33.82 9.08-9.393 20.203-14.09 33.37-14.09h116c26.307 0 48.717 9.257 67.23 27.77s27.77 40.923 27.77 67.23v116c0 13.167-4.753 24.29-14.26 33.37-9.513 9.087-20.847 13.63-34 13.63-13.16 0-24.24-4.543-33.24-13.63-9-9.08-13.5-20.203-13.5-33.37zm-676 0v-116c0-26.307 9.157-48.717 27.47-67.23 18.32-18.513 40.497-27.77 66.53-27.77h116c13.167 0 24.293 4.753 33.38 14.26 9.08 9.513 13.62 20.847 13.62 34 0 13.16-4.54 24.24-13.62 33.24-9.087 9-20.213 13.5-33.38 13.5h-116v116c0 13.167-4.56 24.29-13.68 33.37-9.113 9.087-20.28 13.63-33.5 13.63-13.213 0-24.32-4.543-33.32-13.63-9-9.08-13.5-20.203-13.5-33.37zm351.5-130.2c-9-9.2-13.5-20.4-13.5-33.4s4.56-24.2 13.68-33.4c9.12-9.4 20.28-14 33.5-14s24.32 4.8 33.32 14.2 13.5 20.8 13.5 34c0 12.8-4.56 23.8-13.68 33s-20.28 13.8-33.5 13.8-24.32-4.8-33.32-14.2zm-175 338.4c-9-9.4-13.5-20.4-13.5-33.2 0-12.6 4.56-23.8 13.68-33 9.12-9.4 20.28-14 33.5-14s24.32 4.6 33.32 14 13.5 20.6 13.5 33.6c0 12.8-4.56 23.8-13.68 32.8s-20.28 13.6-33.5 13.6-24.32-4.6-33.32-13.8zm175.28-175c-9.18-9-13.78-20.2-13.78-33.4s4.68-24.4 14.06-33.4 20.54-13.4 33.5-13.4 24.1 4.6 33.44 13.6c9.34 9.2 14 20.4 14 33.6s-4.74 24.2-14.24 33.2-20.8 13.6-33.94 13.6c-12.84 0-23.86-4.6-33.04-13.8zm-338.28 175c-9-9-13.5-20.2-13.5-33.4s4.62-24.4 13.86-33.4 20.24-13.4 33-13.4 23.8 4.6 33.14 13.6c9.34 9.2 14 20.4 14 33.6s-4.68 24.2-14.06 33.2-20.54 13.6-33.5 13.6-23.94-4.6-32.94-13.8zm163.135-175.84c-9.083-8.91-13.635-19.99-13.635-33.05 0-13.07 4.631-24.14 13.913-33.06 9.28-8.89 20.324-13.25 33.146-13.25 12.824 0 23.847 4.55 33.088 13.46 9.243 9.1 13.853 20.18 13.853 33.24 0 13.07-4.689 23.95-14.09 32.85-9.4 8.91-20.581 13.46-33.582 13.46-12.706 0-23.609-4.55-32.693-13.65zm350 .99c-9.084-8.91-13.635-19.99-13.635-33.05 0-13.07 4.631-24.15 13.912-33.05s20.324-13.26 33.147-13.26c12.824 0 23.846 4.55 33.089 13.46 9.241 9.1 13.852 20.18 13.852 33.24 0 13.07-4.69 23.95-14.09 32.85-9.4 8.91-20.581 13.46-33.582 13.46-12.705 0-23.61-4.55-32.693-13.65zm-349.995 349.05c-9.08-8.8-13.64-20-13.64-33s4.641-24.2 13.92-33c9.28-9 20.32-13.4 33.14-13.4s23.84 4.6 33.1 13.6c9.24 9 13.84 20.2 13.84 33.19 0 13.01-4.68 24.01-14.08 32.8-9.4 9-20.58 13.61-33.58 13.61-12.72 0-23.62-4.61-32.7-13.8z" stroke-width=".05"/></svg>