<svg viewBox="0 0 22 22" xmlns="http://www.w3.org/2000/svg"><path fill="rgb(255, 255, 255)" d="m11.516 4.498h9.484c.276 0 .5.224.5.5v2c0 .276-.224.5-.5.5h-1c-.276 0-.5-.224-.5-.5v-.5h-7.114c-.03.053-.064.114-.103.181-.157.274-.383.666-.653 1.135-.541.938-1.263 2.188-1.985 3.438-1.444 2.499-2.89 4.996-2.89 4.996-.09.155-.254.25-.433.25-.178 0-.343-.095-.432-.249l-2.762-4.751h-2.128c-.276 0-.5-.224-.5-.5v-1c0-.263.204-.481.466-.499.058-.004.115.002.168.017.007.001.015.001.025.002.075.004.181.006.319.008.278.003.647.001 1.02-.003.746-.008 1.502-.025 1.502-.025h.004c.179 0 .344.095.433.25l1.883 3.256 4.742-8.215c.079-.172.253-.291.454-.291zm6.689 4.793v-.289c0-.276.224-.5.5-.5h1c.276 0 .5.224.5.5v8c0 .276-.224.5-.5.5h-1c-.276 0-.5-.224-.5-.5v-.289c-.742.486-1.247.789-2.5.789-1.207 0-2.395-.531-3.182-1.318s-1.318-1.975-1.318-3.182.531-2.395 1.318-3.182 1.976-1.296 3.183-1.318c1.252.024 1.757.304 2.499.789zm-4.268 1.943c-.48.48-.732 1.042-.732 1.768s.252 1.288.732 1.768 1.042.732 1.768.732 1.288-.252 1.768-.732.732-1.042.732-1.768-.252-1.288-.732-1.768-1.042-.732-1.768-.732-1.288.252-1.768.732z"/></svg>