<svg viewBox="0 0 22 22" xmlns="http://www.w3.org/2000/svg"><path fill="rgb(255, 255, 255)" d="m17 2.5c.656.022 1.344.306 1.769.731s.709 1.113.731 1.769v12c-.022.656-.306 1.344-.731 1.769s-1.113.709-1.769.731h-12c-.656-.022-1.344-.306-1.769-.731s-.709-1.113-.731-1.769v-12c.022-.656.306-1.344.731-1.769s1.113-.709 1.769-.731zm-12.354 2.146c-.118.117-.168.179-.146.354v12c-.022.175.028.237.146.354.117.118.179.168.354.146h12c.175.022.237-.028.354-.146.118-.117.168-.179.146-.354v-12c.022-.175-.028-.237-.146-.354-.117-.118-.179-.168-.354-.146h-12c-.175-.022-.237.028-.354.146zm10.354.854c.379.022.817.195 1.061.439s.417.682.439 1.061v8c-.022.379-.195.817-.439 1.061s-.682.417-1.061.439h-8c-.379-.022-.817-.195-1.061-.439s-.417-.682-.439-1.061v-8c.022-.379.195-.817.439-1.061s.682-.417 1.061-.439z"/></svg>