<svg viewBox="0 0 22 22" xmlns="http://www.w3.org/2000/svg"><path fill="rgb(255, 255, 255)" d="m18 3.551c0 .276-.224.5-.5.5h-1.906l-3.322 1.292h5.228c.276 0 .5.224.5.5v1.146c0 .276-.224.5-.5.5h-1.775l-4.787 2.439h6.562c.276 0 .5.224.5.5v1.146c0 .276-.224.5-.5.5h-1.775l-4.787 2.438h6.562c.276 0 .5.224.5.5v1.146c0 .276-.224.5-.5.5h-1.906l-3.322 1.292h5.228c.276 0 .5.224.5.5v1.146c0 .276-.224.5-.5.5h-13c-.276 0-.5-.224-.5-.5v-1.146c0-.276.224-.5.5-.5h1.906l3.322-1.292h-5.228c-.276 0-.5-.224-.5-.5v-1.146c0-.276.224-.5.5-.5h1.775l4.787-2.438h-6.562c-.276 0-.5-.224-.5-.5v-1.146c0-.276.224-.5.5-.5h1.775l4.787-2.439h-6.562c-.276 0-.5-.224-.5-.5v-1.146c0-.276.224-.5.5-.5h1.906l3.322-1.292h-5.228c-.276 0-.5-.224-.5-.5v-1.146c0-.276.224-.5.5-.5h13c.276 0 .5.224.5.5z"/></svg>