<svg viewBox="0 0 22 22" xmlns="http://www.w3.org/2000/svg"><path fill="rgb(255, 255, 255)" d="m11.321 1.797 2.21 2.211.45.441c.145.142.19.358.113.546s-.26.311-.463.311h-11.063c-.276 0-.5-.224-.5-.5v-.885c0-.276.224-.5.5-.5h7.711l-.587-.587-.325-.336c-.14-.145-.18-.358-.101-.543.078-.185.259-.305.46-.305h1.241c.133 0 .26.053.354.147zm-.288 5.664v.885c0 .276-.224.5-.5.5h-6.58v3.425h4.81c.276 0 .5.224.5.5v.885c0 .276-.224.5-.5.5h-4.81v5.695c0 .276-.224.5-.5.5h-.885c-.276 0-.5-.224-.5-.5v-12.39c0-.276.224-.5.5-.5h7.965c.276 0 .5.224.5.5zm1.793 6.922.829 2.486.829-2.486c.068-.204.259-.342.474-.342h.934c.215 0 .406.138.474.342l.829 2.486.829-2.486c.068-.204.259-.342.474-.342h.934c.161 0 .312.077.406.208s.119.299.068.451l-.047.14-1.723 5.169c-.068.204-.259.342-.474.342h-.934c-.215 0-.406-.138-.474-.342l-.829-2.486-.829 2.486c-.068.204-.259.342-.474.342h-.934c-.215 0-.406-.138-.474-.342l-1.723-5.169-.047-.14c-.051-.152-.026-.32.068-.451s.245-.208.406-.208h.934c.215 0 .406.138.474.342z"/></svg>