<svg height="48" viewBox="0 -960 960 960" width="48" xmlns="http://www.w3.org/2000/svg"><path fill="rgb(255, 255, 255)" d="m417.754-59.952c-12.756-1.348-22.631-7.614-29.644-18.803-7.013-11.19-8.793-23.215-5.351-36.055 3.379-12.61 10.765-22.13 22.15-28.57 11.383-6.44 23.867-9.21 37.433-8.34 19.08 2.5 37.811 3.42 56.194 2.76 1.16-.65 2.392-1.04 3.693-1.14 23.08-1.7 45.735-5.72 67.967-12.04 80.266-22.82 142.859-68.69 187.779-137.6 11.415-17.51 21-35.4 28.752-53.66 5.297-13.21 9.861-26.96 13.691-41.25 4.713-17.59 7.992-35.42 9.835-53.48 2.056-24.65 1.19-49.9-2.597-75.74-1.08-13.55 1.509-26.07 7.766-37.55 6.266-11.49 15.675-19.02 28.231-22.59 12.792-3.63 24.839-2.03 36.13 4.81 11.295 6.84 17.714 16.63 19.252 29.35 14.782 85.52 4.902 166.49-29.64 242.89-22.764 53.03-54.922 98.83-96.473 137.4-27.196 25.93-57.694 47.67-91.492 65.25-81.842 44.342-169.734 59.128-263.676 44.358zm-267.962-437.258c-.076 1.3-.444 2.53-1.071 3.7-.383 18.39.822 37.11 3.612 56.15 1.083 13.56-1.506 26.08-7.766 37.56-6.263 11.49-15.675 19.01-28.234 22.58-12.793 3.64-24.829 2.04-36.131-4.8-11.289-6.84-17.711-16.62-19.251-29.36-16.171-93.6-2.769-181.62 40.214-264.06 17.079-34.16 38.399-65.06 63.962-92.72 37.977-42.17 83.337-75.05 136.082-98.62 75.827-35.65 156.577-46.74 242.259-33.26 12.756 1.34 22.631 7.61 29.644 18.8s8.793 23.21 5.351 36.05c-3.379 12.61-10.765 22.13-22.15 28.57-11.383 6.44-23.867 9.21-37.433 8.34-25.933-3.4-51.221-3.88-75.865-1.44-18.003 2.12-35.743 5.66-53.222 10.63-14.184 4.04-27.817 8.79-40.898 14.26-18.192 8.04-35.98 17.92-53.364 29.63-68.22 45.96-113.129 109.24-134.727 189.85-5.982 22.33-9.656 45.04-11.012 68.14zm330.176 169.58c-41.987 0-77.79-14.84-107.41-44.52s-44.43-65.51-44.43-107.5 14.84-77.98 44.52-107.98 65.513-45 107.5-45c41.986 0 77.98 15.03 107.98 45.09s45 66.08 45 108.07-15.03 77.79-45.089 107.41c-30.061 29.62-66.085 44.43-108.071 44.43zm-373.654 161.28c-11.864 0-22.1-4.17-30.704-12.89-8.605-8.71-12.926-18.95-12.926-30.7 0-12.51 4.321-23.13 12.926-31.84 8.604-8.72 18.84-12.89 30.704-12.89h61.637l-.001-60.27c0-12.51 4.056-23.13 12.168-31.84 8.15-9.1 18.536-13.27 31.235-13.27 12.319 0 22.934 4.17 31.841 13.27 8.87 8.71 13.306 19.33 13.306 31.84v60.27h60.347c11.902 0 22.138 4.17 30.742 12.89 8.605 8.71 12.888 19.33 12.888 31.84 0 11.75-4.283 21.99-12.888 30.7-8.604 8.72-18.84 12.89-30.742 12.89h-60.347l-.001 60.65c.001 12.147-4.245 22.759-12.811 31.473-8.568 8.722-19.181 13.268-31.88 13.268-12.698 0-23.161-4.546-31.462-13.268-8.264-8.714-12.396-19.326-12.396-31.473v-60.65zm503.19-548.68c-8.605-8.71-12.926-18.95-12.926-30.7 0-12.51 4.321-23.13 12.926-31.84 8.604-8.72 18.84-12.89 30.704-12.89h210.533c11.902 0 22.138 4.17 30.742 12.89 8.605 8.71 12.888 19.33 12.888 31.84 0 11.75-4.283 21.99-12.888 30.7-8.604 8.72-18.84 12.89-30.742 12.89h-210.533c-11.864 0-22.1-4.17-30.704-12.89z"/></svg>