<svg height="48" viewBox="0 -960 960 960" width="48" xmlns="http://www.w3.org/2000/svg"><path fill="rgb(255, 255, 255)" d="m480.11-103c-15.407 0-29.777-3.17-43.11-9.5s-26-14.17-38-23.5l-276-238c-9.38-8.85-16.727-18.32-22.04-28.43-5.307-10.11-7.96-20.97-7.96-32.57v-77c0-12 2.833-22.75 8.5-32.26 5.667-9.5 12.5-18.41 20.5-26.74l276-257c10.793-10 23.253-17.33 37.38-22 14.133-4.67 28.937-7 44.41-7s30.327 2.33 44.56 7c14.227 4.67 26.777 12.33 37.65 23l276 257c8 8 14.833 16.67 20.5 26s8.5 19.67 8.5 31v78c0 11.6-2.653 22.46-7.96 32.57-5.313 10.11-12.66 19.58-22.04 28.43l-276 238c-12 9.33-24.63 17.17-37.89 23.5-13.267 6.33-27.6 9.5-43 9.5zm-3.11-195c9.6 0 18.65-1.66 27.15-4.97 8.5-3.32 16.783-8 24.85-14.03l235-213-259-234c-2-3.33-5.107-5.83-9.32-7.5s-8.483-2.17-12.81-1.5c-4.093.67-8.593 1.67-13.5 3-4.913 1.33-9.703 3.33-14.37 6l-260 235 230.09 211.82c7.94 6.12 16.17 10.85 24.69 14.18s17.593 5 27.22 5zm-127.11-178c13.407 0 24.777-4.63 34.11-13.89 9.333-9.25 14-20.59 14-34s-4.63-24.78-13.89-34.11c-9.253-9.33-20.587-14-34-14-13.407 0-24.777 4.63-34.11 13.89-9.333 9.25-14 20.59-14 34s4.63 24.78 13.89 34.11c9.253 9.33 20.587 14 34 14zm65.11 61c30.667 13.33 61.93 16.8 93.79 10.4s60.033-20.74 84.52-43.02c22.46-19.59 36.69-43.21 42.69-70.88s3.667-55.17-7-82.5zm64.89-187c13.407 0 24.777-4.63 34.11-13.89 9.333-9.25 14-20.59 14-34s-4.63-24.78-13.89-34.11c-9.253-9.33-20.587-14-34-14-13.407 0-24.777 4.63-34.11 13.89-9.333 9.25-14 20.59-14 34s4.63 24.78 13.89 34.11c9.253 9.33 20.587 14 34 14z"/></svg>