<svg height="48" viewBox="0 -960 960 960" width="48" xmlns="http://www.w3.org/2000/svg"><path fill="rgb(255, 255, 255)" d="m817.82-95c-12.847 0-23.86-4.62-33.04-13.86-9.187-9.24-13.78-20.24-13.78-33s4.687-23.807 14.06-33.14 20.54-14 33.5-14 24.107 4.687 33.44 14.06 14 20.54 14 33.5-4.747 23.94-14.24 32.94-20.807 13.5-33.94 13.5zm-676.38 0c-12.96 0-23.94-4.62-32.94-13.86s-13.5-20.24-13.5-33 4.62-23.807 13.86-33.14 20.24-14 33-14 23.807 4.687 33.14 14.06 14 20.54 14 33.5-4.687 23.94-14.06 32.94-20.54 13.5-33.5 13.5zm643.34-183.06c-9.187-9.373-13.78-20.54-13.78-33.5s4.687-24.107 14.06-33.44 20.54-14 33.5-14 24.107 4.747 33.44 14.24 14 20.807 14 33.94c0 12.847-4.747 23.863-14.24 33.05-9.493 9.18-20.807 13.77-33.94 13.77-12.847 0-23.86-4.687-33.04-14.06zm-643.34 14.06c-12.96 0-23.94-4.687-32.94-14.06s-13.5-20.54-13.5-33.5 4.62-24.107 13.86-33.44 20.24-14 33-14 23.807 4.747 33.14 14.24 14 20.807 14 33.94c0 12.847-4.687 23.863-14.06 33.05-9.373 9.18-20.54 13.77-33.5 13.77zm199.551 72.6h279.033v-428.63h-279.033zm-48.703 96.4c-13.354 0-24.637-4.67-33.849-13.81-9.215-9.34-13.842-20.51-13.842-33.89v-525.01c0-13.39 4.627-24.76 13.842-33.9 9.212-9.13 20.495-13.8 33.849-13.8h375.424c13.374 0 24.655 4.67 33.87 13.8 9.212 9.14 13.82 20.51 13.82 33.9v525.01c0 13.38-4.608 24.55-13.82 33.89-9.215 9.14-20.496 13.81-33.87 13.81zm479.171-770.99c26.201 0 48.482 9.01 66.922 27.59 18.4 18.6 27.619 40.8 27.619 66.82v288.6c0 13.18-4.539 24.19-13.619 33.18-9.061 9.02-20.34 13.61-33.841 13.61-13.459 0-24.68-4.59-33.639-13.61-8.96-8.99-13.442-20-13.442-33.18v-288.6h-581.92v288.59c0 13.21-4.479 24.2-13.439 33.21-8.96 8.99-20.18 13.59-33.64 13.59-13.5 0-24.78-4.6-33.84-13.59-9.081-9.01-13.62-20-13.62-33.21v-288.59c0-26.01 9.219-48.2 27.619-66.8 18.441-18.61 40.721-27.61 66.92-27.61z"/></svg>