<svg height="48" viewBox="0 -960 960 960" width="48" xmlns="http://www.w3.org/2000/svg"><path fill="rgb(255, 255, 255)" d="m141.44-771c-12.96 0-23.94-4.687-32.94-14.06s-13.5-20.54-13.5-33.5 4.62-24.107 13.86-33.44 20.24-14 33-14 23.807 4.747 33.14 14.24 14 20.807 14 33.94c0 12.847-4.687 23.86-14.06 33.04-9.373 9.187-20.54 13.78-33.5 13.78zm169.38 0c-12.847 0-23.863-4.687-33.05-14.06-9.18-9.373-13.77-20.54-13.77-33.5s4.687-24.107 14.06-33.44 20.54-14 33.5-14 24.107 4.747 33.44 14.24 14 20.807 14 33.94c0 12.847-4.747 23.86-14.24 33.04-9.493 9.187-20.807 13.78-33.94 13.78zm507 507c-12.847 0-23.86-4.687-33.04-14.06-9.187-9.373-13.78-20.54-13.78-33.5s4.687-24.107 14.06-33.44 20.54-14 33.5-14 24.107 4.747 33.44 14.24 14 20.807 14 33.94c0 12.847-4.747 23.863-14.24 33.05-9.493 9.18-20.807 13.77-33.94 13.77zm0 169c-12.847 0-23.86-4.62-33.04-13.86-9.187-9.24-13.78-20.24-13.78-33s4.687-23.807 14.06-33.14 20.54-14 33.5-14 24.107 4.687 33.44 14.06 14 20.54 14 33.5-4.747 23.94-14.24 32.94-20.807 13.5-33.94 13.5zm-46.82-386v-160c0-36-12.667-66.667-38-92s-56-38-92-38h-160c-13.167 0-24.29-4.56-33.37-13.68-9.087-9.113-13.63-20.25-13.63-33.41 0-13.153 4.543-24.427 13.63-33.82 9.08-9.393 20.203-14.09 33.37-14.09h172c59.28 0 109.6 20.68 150.96 62.04s62.04 91.68 62.04 150.96v172c0 13.167-4.753 24.29-14.26 33.37-9.513 9.087-20.847 13.63-34 13.63-13.16 0-24.24-4.543-33.24-13.63-9-9.08-13.5-20.203-13.5-33.37zm-599.644 309.62h419.562v-419.53h-419.562zm-38.58 76.38c-10.577 0-19.516-3.72-26.813-10.93-7.314-7.25-10.963-16.25-10.963-26.86v-495.91c0-10.59 3.649-19.44 10.963-26.84 7.297-7.23 16.236-10.94 26.813-10.94h495.916c10.577 0 19.532 3.71 26.829 10.94 7.298 7.4 10.947 16.25 10.947 26.84v495.91c0 10.61-3.649 19.61-10.947 26.86-7.297 7.21-16.252 10.93-26.829 10.93z"/></svg>