<svg height="48" viewBox="0 -960 960 960" width="48" xmlns="http://www.w3.org/2000/svg"><path fill="rgb(255, 255, 255)" d="m396-106c-75.333-18-137.667-57.67-187-119-49.333-61.34-74-132.34-74-213 0-44 8.833-86.17 26.5-126.5 17.667-40.34 42.833-74.84 75.5-103.5 7.333-10.67 18.167-16 32.5-16s26.5 5 36.5 15c8 8 12 17.83 12 29.5 0 11.66-4.333 22.16-13 31.5-24 21.33-42.667 47-56 77s-20 61-20 93c0 58 17.333 108.83 52 152.5 34.667 43.66 79 72.16 133 85.5 10.667 4 19.5 10.33 26.5 19 7 8.66 10.5 18.33 10.5 29 0 16.66-5.667 29.5-17 38.5s-24 11.5-38 7.5zm171 0c-14.667 4.66-27.667 2.33-39-7-11.333-9.34-17-22-17-38 0-10 3.5-19.67 10.5-29 7-9.34 15.833-16 26.5-20 54.667-13.34 99-41.84 133-85.5 34-43.67 51-94.5 51-152.5 0-66.67-22.5-124-67.5-172s-100.833-74-167.5-78h-23l40 40c6 6.66 9 15 9 25s-3 18.33-9 25c-7.333 7.33-16.167 11-26.5 11s-18.833-3.67-25.5-11l-110-109c-4.667-4.67-8.167-9.84-10.5-15.5-2.333-5.67-3.5-11.5-3.5-17.5 0-6.67 1.167-12.67 3.5-18 2.333-5.34 5.833-10.34 10.5-15l110-112c6.667-6 15.167-9 25.5-9s19.167 3 26.5 9c6 7.33 9 16.16 9 26.5 0 10.33-3 18.83-9 25.5l-51 50h24c94.667 0 175 33.83 241 101.5 66 67.66 99 148.83 99 243.5 0 80.66-24.667 151.66-74 213-49.333 61.33-111.333 101-186 119zm-122.747-248.81v-146.259c0-9.93 3.488-18.65 10.463-25.85 6.975-7.18 15.51-10.85 25.62-10.85s18.6 3.67 25.482 10.85c6.885 7.2 10.326 15.92 10.326 25.85v146.259l58.888-58.12c7.144-7.2 15.557-10.57 25.238-10.26 9.683.15 18.095 3.83 25.239 11.03 7.143 7.48 10.707 16.05 10.707 25.85 0 9.77-3.564 18.18-10.707 25.38l-119.307 120.08c-7.328 7.18-16.031 10.7-26.141 10.7s-18.723-3.52-25.865-10.7l-120.072-120.85c-7.144-7.18-10.585-15.61-10.326-25.23.26-9.64 3.948-18.21 11.09-25.54 7.145-7.51 15.678-11.18 25.621-11.18s18.738 3.52 26.385 10.72z"/></svg>