<svg height="48" width="48" xmlns="http://www.w3.org/2000/svg"><path fill="rgb(255, 255, 255)" d="m24 15.104c-.667 0-1.225-.225-1.675-.675s-.675-1.008-.675-1.675v-6.154c0-.667.225-1.233.675-1.7s1.008-.7 1.675-.7 1.225.233 1.675.7.675 1.033.675 1.7v6.154c0 .667-.225 1.225-.675 1.675s-1.008.675-1.675.675zm-2.334 10.128-.016-5.63c0-.667.225-1.233.675-1.7s1.008-.7 1.675-.7 1.225.233 1.675.7.675 1.033.675 1.7l.016 5.63 3.85-3.8c.467-.467 1.017-.692 1.65-.675.634.017 1.184.258 1.65.725.467.484.7 1.047.7 1.689 0 .641-.233 1.194-.7 1.661l-7.8 7.85c-.478.467-1.048.7-1.709.7-.66 0-1.224-.233-1.691-.7l-7.85-7.9c-.466-.467-.691-1.017-.675-1.65.017-.633.259-1.192.725-1.675.467-.483 1.025-.725 1.675-.725s1.225.233 1.725.7zm2.334 17.818c-2.667 0-5.167-.5-7.5-1.5s-4.375-2.375-6.125-4.125-3.125-3.792-4.125-6.125-1.5-4.833-1.5-7.5c0-2.333.417-4.575 1.25-6.725s2.033-4.075 3.6-5.775c.433-.533 1-.833 1.7-.9s1.317.133 1.85.6c.467.467.692 1.025.675 1.675s-.225 1.225-.625 1.725c-1.167 1.3-2.083 2.75-2.75 4.35s-1 3.283-1 5.05c0 4.033 1.417 7.467 4.25 10.3s6.267 4.25 10.3 4.25 7.467-1.417 10.3-4.25 4.25-6.267 4.25-10.3c0-1.767-.325-3.45-.975-5.05s-1.558-3.05-2.725-4.35c-.4-.533-.6-1.125-.6-1.775s.233-1.192.7-1.625c.533-.5 1.158-.7 1.875-.6s1.325.433 1.825 1c1.5 1.7 2.65 3.617 3.45 5.75s1.2 4.35 1.2 6.65c0 2.667-.508 5.167-1.525 7.5s-2.4 4.375-4.15 6.125-3.792 3.125-6.125 4.125-4.833 1.5-7.5 1.5z"/></svg>