<svg height="48" viewBox="0 -960 960 960" width="48" xmlns="http://www.w3.org/2000/svg"><path fill="rgb(255, 255, 255)" d="m515.744-306.33c-37.226 0-71.807-14.88-97.982-40.38-25.272-26.31-39.951-60.69-39.951-97.56 0-36.73 14.746-71.18 40.019-97.49 26.147-25.48 60.659-40.43 97.914-40.43 36.851 0 71.286 14.99 97.607 40.45 25.506 26.31 40.325 60.71 40.325 97.47 0 36.91-14.885 71.37-40.389 97.68-26.35 25.47-60.72 40.26-97.543 40.26zm19.859-144.44v-55.25c-.424-6.28-3.315-12.99-7.459-17.56-4.687-3.88-11.511-7.06-17.372-7.06-6.111 0-12.906 3.12-17.705 7.02-4.471 4.83-7.758 12.14-8.161 18.88v57.22c.087 5.13 1.206 10.74 2.979 15.16 1.864 4.26 4.657 8.66 7.711 12.14l39.502 40.82c4.842 4.23 11.797 7.3 17.778 7.3 6.23 0 13.292-3.56 18.056-8.3 3.734-4.7 6.336-11.07 6.948-16.88-.205-6.31-3.04-13.45-7.438-18.42zm-253.618-122.51c-6.28-6.49-12.879-15.77-16.207-23.95-3.299-8.1-5.362-19.25-5.362-28.45 0-9.15 1.995-20.2 5.196-28.3 3.229-8.16 9.609-17.46 15.721-24.03 6.496-6.29 15.78-12.89 23.955-16.22 8.102-3.3 19.257-5.36 28.455-5.36 9.147 0 20.202 1.99 28.299 5.19 8.169 3.23 17.467 9.62 24.042 15.73 6.281 6.5 12.88 15.78 16.208 23.96 3.298 8.1 5.361 19.25 5.361 28.45 0 9.15-1.994 20.2-5.195 28.3-3.229 8.16-9.609 17.46-15.721 24.03-6.497 6.29-15.782 12.89-23.956 16.22-8.103 3.3-19.257 5.36-28.455 5.36-9.147 0-20.202-1.99-28.299-5.2-8.169-3.23-17.467-9.61-24.042-15.73zm157.5 459.53-327.362-327.36c-10.566-10.75-18.609-23.18-24.13-37.29-5.522-14.11-8.282-28.69-8.282-43.74v-244.71c0-31.6 11.032-58.41 33.093-80.43 22.052-22.01 48.834-33.01 80.349-33.01h244.712c15.05 0 29.629 2.76 43.74 8.28 14.11 5.52 26.54 13.57 37.29 24.13l327.362 327.36c22.688 22.42 34.032 49.36 34.032 80.82 0 31.47-11.344 58.55-34.032 81.24l-244.711 244.71c-22.418 22.692-49.359 34.042-80.82 34.042-31.472 0-58.552-11.35-81.241-34.042zm-251.631-382.01 288.467 288.45c24.408 24.41 63.981 24.41 88.389 0l187.99-187.99c24.36-24.35 24.415-63.83.124-88.26l-286.847-288.46c-11.731-11.8-27.681-18.43-44.318-18.43h-189.611c-34.518 0-62.5 27.98-62.5 62.5v187.99c0 16.58 6.585 32.47 18.306 44.2z"/></svg>