<svg height="48" viewBox="0 -960 960 960" width="48" xmlns="http://www.w3.org/2000/svg"><path fill="rgb(255, 255, 255)" d="m449-54.5c-58.667 0-113.833-11-165.5-33s-96.833-52.33-135.5-91-69-83.83-91-135.5-33-106.83-33-165.5 11-113.83 33-165.5 52.333-96.83 91-135.5 83.833-69.17 135.5-91.5 106.833-33.5 165.5-33.5c36.06 0 70.907 4.83 104.54 14.5 33.64 9.67 65.793 23.83 96.46 42.5 11.333 4.67 18.5 13.33 21.5 26s.833 24-6.5 34c-7.333 10.67-17.5 17.5-30.5 20.5s-25.5 2.17-37.5-2.5c-22-13.33-45.667-23.33-71-30s-51-10-77-10c-92.247 0-170.477 32.1-234.69 96.31-64.207 64.21-96.31 142.44-96.31 234.69s32.137 170.48 96.41 234.69c64.28 64.21 142.593 96.31 234.94 96.31 12.433 0 24.483-.83 36.15-2.5s23.167-3.83 34.5-6.5c14-2 27.167-.17 39.5 5.5s20.833 14.83 25.5 27.5 4 24.83-2 36.5c-6 11.667-15 18.833-27 21.5-18 4-35.833 7-53.5 9s-35.5 3-53.5 3zm273-218h-73c-13.167 0-24.29-4.56-33.37-13.68-9.087-9.11-13.63-20.28-13.63-33.5 0-13.21 4.543-24.32 13.63-33.32 9.08-9 20.203-13.5 33.37-13.5h73v-73c0-13.17 4.56-24.29 13.68-33.38 9.113-9.08 20.28-13.62 33.5-13.62 13.213 0 24.32 4.54 33.32 13.62 9 9.09 13.5 20.21 13.5 33.38v73h73c13.167 0 24.293 4.56 33.38 13.68 9.08 9.11 13.62 20.28 13.62 33.5 0 13.21-4.54 24.32-13.62 33.32-9.087 9-20.213 13.5-33.38 13.5h-73v73c0 13.17-4.56 24.29-13.68 33.37-9.113 9.09-20.28 13.63-33.5 13.63-13.213 0-24.32-4.54-33.32-13.63-9-9.08-13.5-20.2-13.5-33.37zm-334-142 388-389c9.04-8.67 19.967-13 32.78-13s23.887 4.5 33.22 13.5c9.333 9.67 14 20.83 14 33.5s-4.667 23.67-14 33l-420 420c-10 9.33-21.5 14-34.5 14s-24.167-4.67-33.5-14l-111-112c-8.667-8.67-12.833-19.33-12.5-32s4.78-23.67 13.34-33c9.227-8.67 20.393-13 33.5-13s23.993 4.33 32.66 13z"/></svg>