<svg height="48" viewBox="0 -960 960 960" width="48" xmlns="http://www.w3.org/2000/svg"><path fill="rgb(255, 255, 255)" d="m234.567-299.05c-9.501 0-17.528-3.29-24.08-9.88-6.557-6.58-9.835-14.63-9.835-24.17s3.278-17.55 9.835-24.05c6.552-6.49 14.579-9.73 24.08-9.73h27.42v-232.07h-27.42c-9.501 0-17.528-3.29-24.08-9.87-6.557-6.59-9.835-14.61-9.835-24.11 0-9.49 3.278-17.62 9.835-24.41 6.552-6.78 14.579-10.16 24.08-10.16h121.95c9.501 0 17.529 3.43 24.086 10.29 6.553 6.85 9.829 15.04 9.829 24.53 0 9.5-3.276 17.49-9.829 24-6.557 6.48-14.585 9.73-24.086 9.73h-26.699v232.07h26.699c9.501 0 17.529 3.28 24.086 9.87 6.553 6.58 9.829 14.62 9.829 24.17 0 9.53-3.276 17.54-9.829 24.05-6.557 6.48-14.585 9.74-24.086 9.74zm257.71 56.59c-22.24 0-40.926-7.54-56.061-22.64-15.151-15.23-22.708-33.83-22.708-56.11v-41.29c0-11.05 3.82-20.27 11.463-28 7.625-7.52 16.994-11.38 28.072-11.38 11.061 0 20.38 3.86 27.921 11.38 7.542 7.73 11.313 16.95 11.313 28v41.29h171.222v-41.29c0-11.05 3.824-20.27 11.466-28 7.628-7.52 16.957-11.38 27.99-11.38 11.027 0 20.458 3.86 28.338 11.38 7.88 7.73 11.82 16.95 11.82 28v41.29c0 22.28-7.664 40.88-22.962 56.11-15.305 15.1-34.189 22.64-56.652 22.64zm-315.725 163.735c-27.106 0-50.176-9.37-69.246-28.545-19.072-19.12-28.607-42.04-28.607-69.3v-120.76c0-13.54 4.746-25.21 14.241-34.57 9.493-9.56 21.111-14.35 34.874-14.35 13.761 0 25.315 4.79 34.684 14.35 9.37 9.36 14.054 21.03 14.054 34.57v120.76h120.754c13.699 0 25.296 4.79 34.749 14.35 9.451 9.38 14.177 21.03 14.177 34.75 0 13.75-4.726 25.41-14.177 34.795-9.453 9.38-21.05 13.95-34.749 13.95zm605.853 0h-120.753c-13.7 0-25.277-4.57-34.73-14.17-9.472-9.575-14.198-21.025-14.198-34.965 0-13.77 4.726-25.2 14.198-34.57 9.453-9.35 21.03-14.14 34.73-14.14h120.753v-120.76c0-13.54 4.747-25.21 14.24-34.57 9.495-9.56 21.091-14.35 34.791-14.35 13.677 0 25.42 4.79 35.205 14.35 9.766 9.36 14.659 21.03 14.659 34.57v120.76c0 27.26-9.64 50.18-28.899 69.3-19.28 19.175-42.618 28.545-69.996 28.545zm-703.706-582.955v-120.78c0-27.25 9.535-50.51 28.607-69.94 19.07-19.11 42.14-28.87 69.246-28.87h120.754c13.699 0 25.296 4.91 34.749 14.91 9.451 9.77 14.177 21.68 14.177 35.44 0 13.5-4.726 25.17-14.177 34.54-9.453 9.36-21.05 13.92-34.749 13.92h-120.754v120.78c0 13.75-4.748 25.39-14.241 34.75-9.494 9.59-21.112 14.18-34.873 14.18s-25.317-4.59-34.684-14.18c-9.371-9.36-14.055-21-14.055-34.75zm703.706 0v-120.78h-120.753c-13.7 0-25.277-4.56-34.73-14.15-9.472-9.56-14.198-21.01-14.198-34.76s4.726-25.43 14.198-35.22c9.453-9.77 21.03-14.68 34.73-14.68h120.753c27.378 0 50.716 9.76 69.996 28.87 19.259 19.43 28.899 42.69 28.899 69.94v120.78c0 13.75-4.957 25.39-14.846 34.75-9.91 9.59-21.695 14.18-35.394 14.18-13.7 0-25.232-4.59-34.602-14.18-9.369-9.36-14.053-21-14.053-34.75z"/></svg>