<svg height="48" viewBox="0 -960 960 960" width="48" xmlns="http://www.w3.org/2000/svg"><path fill="rgb(255, 255, 255)" d="m258.682-174.5c-20.08 0-34.767-8.5-44.06-25.5s-8.607-33.83 2.06-50.5l153-241-139-217c-10-16-10.51-32.83-1.53-50.5s23.397-26.5 43.25-26.5c9.167 0 17.46 2.14 24.88 6.43 7.413 4.29 13.547 10.14 18.4 17.57l116.496 183.63 116.504-184.63c3.927-6.6 9.743-12.08 17.45-16.45 7.713-4.37 15.437-6.55 23.17-6.55 20.487 0 35.507 8.83 45.06 26.5 9.547 17.67 8.987 34.5-1.68 50.5l-139 217 153 241c10.667 16.67 11.28 33.5 1.84 50.5-9.433 17-23.517 25.5-42.25 25.5-9.12 0-17.7-1.94-25.74-5.81-8.033-3.87-14.317-9.6-18.85-17.19l-129.506-206.62-130.494 206.62c-4.593 6.92-10.747 12.48-18.46 16.69s-15.893 6.31-24.54 6.31zm546.167 74.03h-110.837c-5.014-.42-11.252-3.02-14.997-6.19-3.271-3.84-5.879-10.18-6.264-15.15v-17.32c.382-2.96 1.878-7.66 3.946-11.88l.642-1.31 1.003-1.11 72.527-79.96c7.237-7.67 12.002-13.79 15.005-19.32 2.968-5 3.815-8.47 3.815-12.86 0-7.09-.6-10.22-4.179-13.19-2.941-3.61-5.675-4.19-11.981-4.19-4.912 0-8.129.54-11.887 2.43-3.802 1.6-5.843 3.27-8.154 6.51-3.843 4.74-10.069 9.08-15.78 11.15-5.963 1.5-14.104 1.02-19.862-.8-6.141-2.96-12.084-8.39-15.27-13.86-2.542-6.53-2.14-15.55 1.011-21.9 7.554-12.02 18.374-22.3 30.413-28.67 11.976-6 25.975-9.49 39.615-9.49 19.645 0 37.909 7.41 51.13 19.76 12.643 12.99 20.296 31.44 20.296 51.39 0 12.31-3.187 25.22-8.913 35.92-5.463 10.21-14.221 22.08-25.251 34.33l-39.206 42.5h53.178c6.554.39 14.173 3.57 18.973 7.79 4.193 4.84 7.634 12.33 7.634 18.94 0 6.57-3.504 14.08-7.765 18.86-4.872 4.25-12.359 7.25-18.842 7.62z"/></svg>