<svg height="48" viewBox="0 -960 960 960" width="48" xmlns="http://www.w3.org/2000/svg"><path fill="rgb(255, 255, 255)" d="m181-448c-13.167 0-24.123-4.56-32.87-13.68-8.753-9.113-13.13-20.28-13.13-33.5 0-13.213 4.543-24.153 13.63-32.82 9.08-8.667 20.203-13 33.37-13h505c49.333 0 91.5 17.333 126.5 52s52.5 76.667 52.5 126c0 50-17.5 92.667-52.5 128s-77.167 53-126.5 53h-88l30 28c3.333 8.667 4.043 17.597 2.13 26.79-1.92 9.187-6.297 17.187-13.13 24-10 10.14-22.167 15.543-36.5 16.21s-26.167-3.667-35.5-13l-95-97c-4.667-4-8.333-9.043-11-15.13-2.667-6.093-4-12.093-4-18 0-6.58 1.333-12.703 4-18.37s6.333-10.833 11-15.5l97-98c9.867-10 21.5-14.333 34.9-13s25.433 6.947 36.1 16.84c6.833 7.227 11.043 15.227 12.63 24 1.58 8.773 1.037 17.493-1.63 26.16l-31 31h88c23.473 0 43.51-8.333 60.11-25 16.593-16.667 24.89-37.05 24.89-61.15 0-23.433-8.297-43.433-24.89-60-16.6-16.567-36.637-24.85-60.11-24.85zm0-263c-13.167 0-24.123-4.56-32.87-13.68-8.753-9.113-13.13-20.613-13.13-34.5 0-13.213 4.543-24.153 13.63-32.82 9.08-8.667 20.203-13 33.37-13h597c13.167 0 24.293 4.393 33.38 13.18 9.08 8.78 13.62 19.78 13.62 33 0 13.88-4.707 25.32-14.12 34.32-9.42 9-20.713 13.5-33.88 13.5zm126.267 373.19c1.554-1.63 3.16-3 4.822-4.37 7.63-5.7 16.486-8.97 26.759-8.97h1.118 2.153c11.443.27 21.362 4.35 29.862 12.53.328.26.682.55 1.009 1.1 9.156 8.97 13.789 20.15 13.924 33.23.136 13.08-4.249 23.98-13.188 32.98l-46.24 46.05 45.287 45.5c9.21 9 14.06 20.16 14.605 32.7.545 12.81-3.952 23.98-13.461 33.5-.028 0-.054 0-.054 0-9.238 9.28-20.518 13.92-33.788 13.92-12.535 0-23.244-4.11-32.154-12.27-.545-.28-1.09-.82-1.635-1.37l-45.261-45.5-45.285 45.5c-8.939 8.73-19.893 13.36-32.918 13.09-12.942 0-24.032-4.64-33.243-13.9-.109 0-.218-.27-.326-.27-8.856-8.72-13.353-19.89-13.435-32.7-.08-11.18 3.298-20.7 9.837-28.88 1.118-1.37 2.317-2.74 3.624-3.82l45.261-45.5-45.478-45.24c-9.047-9.26-13.734-20.15-14.06-33.52-.109-12.8 4.386-24.24 13.897-33.79 9.509-9.52 20.872-13.89 33.623-13.61 12.917.54 23.897 5.17 32.916 14.16.111.27.191.27.302.27l45.285 45.23z"/></svg>