<svg height="48" viewBox="0 -960 960 960" width="48" xmlns="http://www.w3.org/2000/svg"><path fill="rgb(255, 255, 255)" d="m221.841-444.86c-8.608-.82-19.345-4.9-24.817-10.4-5.472-5.55-10.204-16.22-10.204-24.82 0-8.61 4.774-19.29 10.285-24.78 5.494-5.56 16.187-9.42 24.736-10.28h169.426v-29.23c.292-6.111 3.058-12.854 7.109-17.325 4.447-3.984 11.132-6.742 17.245-7.045h128.756c6.109.304 12.797 3.067 17.249 7.047 4.051 4.47 6.815 11.212 7.107 17.323v29.23h169.421c8.549.86 19.246 4.72 24.736 10.28 5.514 5.49 10.29 16.17 10.29 24.78 0 8.6-4.737 19.27-10.209 24.82-5.472 5.5-16.209 9.58-24.817 10.4h-169.421v29.23c-.301 6.111-3.104 12.833-7.116 17.322-4.443 3.977-11.123 6.741-17.24 7.048h-128.756c-6.121-.307-12.87-3.139-17.309-7.12-4.012-4.489-6.744-11.139-7.045-17.25v-29.23zm218.484 4.55h79.698v-79.71h-79.698zm-294.482-39.69c0 29.72-24 53.69-53.609 53.69-29.613 0-53.608-23.97-53.608-53.69 0-29.51 23.995-53.69 53.608-53.69 29.609 0 53.609 24.18 53.609 53.69zm775.531 0c0 29.51-23.995 53.69-53.609 53.69-29.586 0-53.604-24.18-53.604-53.69s24.018-53.69 53.604-53.69c29.614 0 53.609 24.18 53.609 53.69z" stroke-width=".032"/></svg>