<svg clip-rule="evenodd" fill-rule="evenodd" stroke-linejoin="round" stroke-miterlimit="2" viewBox="0 0 250 250" xmlns="http://www.w3.org/2000/svg"><path fill="rgb(255, 255, 255)" d="m6.433 124.889.003-.712c.196-29.874 12.717-57.302 33.042-76.948 6.933-6.706 14.789-12.516 23.402-17.208 7.074-3.856 14.643-6.949 22.607-9.163 9.56-2.668 19.648-4.053 30.065-3.957.781.007 1.56.024 2.339.047 37.167 1.141 70.815 21.28 89.535 52.721 1.982 3.37 2.406 7.433 1.167 11.141-1.241 3.708-4.026 6.697-7.638 8.196-.201.194-.442.294-.683.393-5.884 2.444-12.669.145-15.858-5.372-1.085-1.865-2.24-3.678-3.46-5.437-.217-.258-.425-.528-.624-.81-.872-1.223-1.776-2.421-2.71-3.588-.123-.138-.244-.282-.362-.43-15.165-18.697-37.93-29.616-61.955-29.837l-.15-.002h-.211c-4.023-.019-8.081.26-12.144.857-5.208.761-10.228 2.005-15.021 3.677-17.435 6.108-32.173 18.016-41.875 33.421-2.232 3.548-4.193 7.274-5.859 11.142-4.124 9.591-6.452 20.14-6.553 31.226-.266 28.887 14.641 54.404 37.281 68.973 5.846 3.755 12.182 6.769 18.857 8.933 7.627 2.465 15.749 3.83 24.183 3.908 1.147.01 2.293-.004 3.438-.042-.909-2.07-1.388-4.297-1.381-6.541.203-4.161 1.864-8.153 4.689-11.206l66.933-71.683c3-2.962 7.114-4.753 11.419-4.697 4.279.056 8.488 1.93 11.629 4.857l27.993 29.475c3.031 3.152 4.831 7.294 5.036 11.569.004 4.319-1.628 8.405-4.687 11.498l-56.643 60.378c-.851.826-1.966 1.616-2.993 2.123-1.096.485-7.774 1.312-9 1.312h-54.376l.01-.01c-7.322.098-14.524-.551-21.521-1.883-8.453-1.604-16.588-4.202-24.266-7.676-1.922-.869-3.814-1.794-5.675-2.77-8.123-4.264-15.66-9.537-22.431-15.666-8.803-7.962-16.327-17.388-22.158-27.968-7.134-12.93-11.718-27.535-13.018-43.193-.252-3.036-.376-6.054-.376-9.048zm80.102 1.896c-.044-.746-.06-1.498-.048-2.257.161-16.092 12.976-29.35 29.217-29.898 16.563-.558 30.461 12.307 31.229 28.811.1 1.769.046 3.571-.175 5.391-2.013 16.58-17.085 28.389-33.665 26.377-14.811-1.798-25.815-14.018-26.558-28.424zm20.123-1.426c.274 5.485 4.899 9.755 10.408 9.568 5.363-.181 9.607-4.52 9.736-9.817.004-.281-.005-.56-.024-.835-.416-4.635-4.019-8.51-8.826-9.093-5.527-.671-10.55 3.265-11.221 8.791-.057.466-.081.929-.073 1.386zm11.95-65.865c5.56.16 9.946 4.805 9.785 10.366-.16 5.563-4.804 9.947-10.366 9.787-25.042-.721-45.925 18.995-46.646 44.037-.161 5.561-4.804 9.945-10.366 9.787-5.561-.16-9.946-4.806-9.786-10.366 1.04-36.173 31.206-64.651 67.379-63.611zm105.378 97.865-25.018-26.322-34.376 37.535 25.369 25.368z"/></svg>