<svg viewBox="0 0 22 22" xmlns="http://www.w3.org/2000/svg"><path fill="rgb(255, 255, 255)" d="m19.5 11c0 2.308-.98 4.497-2.492 6.008-1.511 1.512-3.7 2.492-6.008 2.492s-4.497-.98-6.008-2.492c-1.512-1.511-2.492-3.7-2.492-6.008s.98-4.497 2.492-6.008c1.511-1.512 3.7-2.492 6.008-2.492s4.497.98 6.008 2.492c1.512 1.511 2.492 3.7 2.492 6.008zm-13.098-4.598c-1.203 1.202-1.902 2.764-1.902 4.598s.699 3.396 1.902 4.598c1.202 1.203 2.764 1.902 4.598 1.902s3.396-.699 4.598-1.902c1.203-1.202 1.902-2.764 1.902-4.598s-.699-3.396-1.902-4.598c-1.202-1.203-2.764-1.902-4.598-1.902s-3.396.699-4.598 1.902zm4.098.098v7.493c-.031.312-.24.735-.512.887-.289.162-.76.129-1-.014s-.451-.534-.488-.866v-4.197l-.164.245c-.199.244-.609.48-.92.455-.33-.026-.704-.315-.824-.567-.119-.253-.077-.694.076-.991l2-2.999c.176-.215.526-.409.801-.446.246.015.568.128.727.282s.281.472.304.718zm1.984.492c.246.019.567.137.723.293s.274.469.293.715v4.197l.164-.245c.199-.244.609-.48.92-.455.33.026.704.315.824.567.119.253.077.694-.076.991l-2 3c-.08.107-.216.244-.332.311-.286.165-.758.14-1 0s-.458-.535-.5-.866v-7.492c.018-.241.131-.556.282-.712s.463-.278.702-.304z"/></svg>