<svg viewBox="0 0 22 22" xmlns="http://www.w3.org/2000/svg"><path fill="rgb(255, 255, 255)" d="m13.21 2.823v3c0 .276-.224.5-.5.5h-1c-.276 0-.5-.224-.5-.5v-1.5h-7v10h3.5c.276 0 .5.224.5.5v1c0 .276-.224.5-.5.5h-5c-.276 0-.5-.224-.5-.5v-13c0-.276.224-.5.5-.5h10c.276 0 .5.224.5.5zm-2.871 3.954 9 .901c.255.026.45.241.45.498v11c0 .141-.06.276-.164.371-.105.095-.245.141-.386.127l-10-1c-.255-.026-.45-.241-.45-.498v-11c0-.141.06-.276.164-.371.105-.094.245-.14.385-.127zm.45 10.046 7 .7v-7.995l-7-.7z"/></svg>