<svg viewBox="0 0 22 22" xmlns="http://www.w3.org/2000/svg"><path fill="rgb(255, 255, 255)" d="m6.776 13.447-4-2c-.169-.084-.276-.258-.276-.447s.107-.363.276-.447l4-2c.155-.078.339-.069.487.022.147.091.237.252.237.425v4c0 .173-.09.334-.237.425-.148.091-.332.1-.487.022zm12.448-2-4 2c-.155.078-.339.069-.487-.022-.147-.091-.237-.252-.237-.425v-4c0-.173.09-.334.237-.425.148-.091.332-.1.487-.022l4 2c.169.084.276.258.276.447s-.107.362-.276.447zm-6.724-.447c0 .379-.195.817-.439 1.061s-.682.439-1.061.439-.817-.195-1.061-.439-.439-.682-.439-1.061.195-.817.439-1.061.682-.439 1.061-.439.817.195 1.061.439.439.682.439 1.061z"/></svg>