<svg height="48" viewBox="0 -960 960 960" width="48" xmlns="http://www.w3.org/2000/svg"><path fill="rgb(255, 255, 255)" d="m310.82-771c-12.847 0-23.863-4.687-33.05-14.06-9.18-9.373-13.77-20.54-13.77-33.5s4.687-24.107 14.06-33.44 20.54-14 33.5-14 24.107 4.747 33.44 14.24 14 20.807 14 33.94c0 12.847-4.747 23.86-14.24 33.04-9.493 9.187-20.807 13.78-33.94 13.78zm135.925-13.81c-9.498-9.2-14.238-20.19-14.238-33 0-13.19 4.66-24.4 13.998-33.99 9.319-9.4 20.477-14.2 33.436-14.2 12.958 0 24.117 4.59 33.495 14 9.359 9.4 14.058 20.39 14.058 33.39s-4.599 24.2-13.777 33.6c-9.18 9.39-20.198 14-33.037 14-13.137 0-24.456-4.61-33.935-13.8zm-305.305 13.81c-12.96 0-23.94-4.687-32.94-14.06-8.944-9.314-13.444-20.401-13.499-33.257-.005-.297-.008-.594-.008-.893 0 0 0 0 0-.2 0 0 0 0 0-.18 0-6.81 1.36-13.22 4.06-19 2.24-4.81 5.379-9.41 9.439-13.61 9.001-9.2 19.981-13.8 32.942-13.8h.82.918c12.86 0 23.861 4.6 33.042 13.8 9.2 9.39 13.779 20.4 13.779 33.2 0 10.886-3.493 20.727-10.493 29.143-1.371 1.75-2.891 3.443-4.56 5.077-9.373 9.187-20.54 13.78-33.5 13.78zm0 169c-12.96 0-23.94-4.747-32.94-14.24-1.898-2.002-3.597-4.086-5.095-6.25-5.608-7.933-8.412-16.928-8.412-26.9 0 0 0-.13.009-.283 0-.053-.001-.107-.001-.161-.008-.065-.008-.213-.008-.356 0-1.74.086-3.433.259-5.089.872-8.642 4.006-16.387 9.402-23.235 1.172-1.539 2.452-3.038 3.838-4.486 9.001-9.4 19.981-14 32.942-14h.799.939c12.86 0 23.861 4.8 33.042 14.21 9.2 9.18 13.779 20.39 13.779 33.4 0 12.99-4.68 24.19-14.059 33.39-9.361 9.41-20.54 14-33.5 14-.021 0-.061 0-.101 0-.159 0-.32 0-.48 0-.069 0-.137 0-.206 0s-.138 0-.207 0zm-32.94 155.32c-8.924-9.036-13.424-20.091-13.499-33.165-.005-.314-.008-.629-.008-.945 0-13.21 4.5-24.4 13.499-33.6 9.001-9 19.981-13.6 32.942-13.6 12.96 0 24.139 4.4 33.5 13.39 9.379 9 14.059 20.21 14.059 33.4 0 .136 0 .272-.001.408.005.322.008.647.008.972 0 13.213-4.687 24.32-14.06 33.32s-20.54 13.5-33.5 13.5-23.94-4.56-32.94-13.68zm32.94 182.68c-12.96 0-23.94-4.687-32.94-14.06-1.069-1.114-2.075-2.252-3.017-3.417-6.993-8.404-10.49-18.177-10.49-29.313 0-.305.002-.608.007-.911.027-10.39 3.03-19.613 9.008-27.668 1.344-1.865 2.839-3.674 4.484-5.431 9.001-9.39 19.981-14.2 32.942-14.2h.215.211.109c.157-.001.314-.002.471-.002 12.961 0 24.12 4.6 33.501 14.01 9.36 9.39 14.059 20.59 14.059 33.39 0 13-4.6 24.2-13.78 33.6-9.18 9.41-20.199 14-33.039 14-.2 0-.4-.001-.599-.003-.242.003-.485.005-.729.005-.07 0-.14 0-.21 0-.068 0-.135 0-.203 0zm0 169c-12.96 0-23.94-4.62-32.94-13.86-2.233-2.292-4.188-4.693-5.867-7.201-5.091-7.375-7.633-15.822-7.633-25.341 0-.038 0-.077 0-.115-.005-.29-.007-.581-.007-.873 0-13.01 4.5-24.2 13.499-33.6 9.001-9.41 19.981-14.01 32.942-14.01 12.96 0 24.139 4.6 33.5 13.8 1.806 1.774 3.438 3.614 4.896 5.521 6.772 8.41 10.17 17.994 10.17 28.887 0 12.78-4.6 23.78-13.78 32.99-9.18 9.2-20.199 13.8-33.039 13.8-.2 0-.4-.001-.599-.003-.243.003-.486.005-.729.005-.07 0-.141 0-.211 0-.067 0-.135 0-.202 0zm643.34-183.06c-9.187-9.373-13.78-20.54-13.78-33.5s4.687-24.107 14.06-33.44 20.54-14 33.5-14h.116c.155-.001.31-.002.465-.002.154 0 .308.001.462.002 12.941.011 23.908 4.82 32.898 14.2 1.769 1.889 3.364 3.847 4.785 5.872 5.809 8.033 8.714 17.177 8.714 27.326 0 .131 0 .262-.001.393.001.129.001.259.001.389v.015.015c0 10.321-3.004 19.472-9.011 27.448-1.346 1.84-2.842 3.62-4.489 5.34-8.991 9.4-19.956 13.99-32.898 14-.154.001-.308.002-.462.002-.22 0-.44-.001-.659-.004-.22.003-.44.004-.661.004-12.847 0-23.86-4.687-33.04-14.06zm33.04 183.06c-12.847 0-23.86-4.62-33.04-13.86-1.159-1.166-2.171-2.942-3.034-5.174-6.49-8.383-9.746-18.154-9.746-29.156 0-12.8 4.7-23.8 14.059-33.01 9.381-9.2 20.54-13.8 33.501-13.8 12.96 0 23.941 4.8 32.941 14.01 8.999 9.4 13.499 20.59 13.499 33.6 0 .1 0 .201-.001.301.001.099.001.198.001.297v.176.176c0 6.914-1.351 13.264-4.053 19.05-2.229 4.895-5.378 9.424-9.447 13.588-8.99 9.19-19.956 13.79-32.898 13.8-.154.001-.308.002-.462.002-.218 0-.436-.001-.653-.004-.222.002-.444.004-.667.004zm-398.04-137.22-62.473-62.47 60.989-60.99 62.473 62.47zm60.989-60.99 1.832-1.83-.412-.41 59.9-59.9-62.061-62.07-61.732 61.74-62.341-62.34-60.918 60.91-61.645-61.64 61.162-61.16 61.097 61.09 62.231-62.23 62.89 62.89 61.732-61.73 62.473 62.47-60.721 60.72 61.594 61.6-1.755 1.75.15.15-60.648 60.65-1.233.93zm-123.462-1.48-61.732 61.73-62.183-62.19 61.732-61.73zm310.981 62.03-62.438-62.44 60.92-60.92 62.437 62.43zm60.871-185.75-62.389 62.39-62.713-62.71 62.389-62.4zm-112.919-366.392c-9.499-9.2-14.24-20.2-14.24-33 0-13.2 4.661-24.4 14-34.01 9.32-9.39 20.48-14.188 33.44-14.188 12.961 0 24.121 4.598 33.501 13.988 9.36 9.41 14.059 20.41 14.059 33.41s-4.6 24.2-13.78 33.6c-9.18 9.39-20.199 13.99-33.039 13.99-13.14 0-24.46-4.6-33.941-13.79zm169.82 0c-1.889-1.853-3.587-3.779-5.095-5.777-6.635-8.349-9.965-17.849-9.965-28.631 0-12.78 4.6-23.78 13.779-32.99 9.181-9.2 20.2-13.8 33.042-13.8h.82.919c12.96 0 23.941 4.6 32.941 13.8 2.24 2.4 4.199 4.79 5.88 7.41 5.081 7.2 7.619 15.79 7.619 25.2v.18.41.196.202c0 13-4.499 24.2-13.5 33.6-9 9.39-19.979 13.99-32.939 13.99-12.961 0-24.141-4.6-33.501-13.79zm33.081 87.79c.58 0 1.156.01 1.728.029 11.524.291 21.45 4.453 29.777 12.346.504.465 1.002.943 1.495 1.435 9.239 9.2 13.859 20.2 13.859 33v.006.006.39.41c0 11.307-3.501 21.259-10.501 29.715-.937 1.177-1.937 2.331-2.999 3.463-8.99 9.4-19.956 14.2-32.898 14.21-.153.001-.308.002-.462.002-.02 0-.059 0-.1 0-.159 0-.319 0-.48 0-12.959 0-24.12-4.59-33.501-14-9.359-9.4-14.059-20.59-14.059-33.39 0-13.01 4.6-24.22 13.779-33.61 9.181-9.4 20.2-14 33.042-14h.219c.365-.008.732-.012 1.101-.012zm.42 264.01c-12.961 0-24.141-4.4-33.501-13.4-9.38-9-14.059-20.2-14.059-33.4 0-.22.001-.44.004-.66-.003-.245-.005-.491-.005-.738 0-13.19 4.7-24.19 14.059-33.19 9.381-9 20.54-13.6 33.501-13.6 12.96 0 23.941 4.6 32.941 13.79 8.999 9.01 13.499 20.2 13.499 33.41 0 .1 0 .199-.001.299.001.099.001.199.001.299 0 13.19-4.499 24.39-13.5 33.59-9 9-19.979 13.6-32.939 13.6zm-169.383 243.002c12.861 0 23.88 4.8 33.061 14.01 9.181 9.4 13.76 20.59 13.76 33.6 0 12.99-4.679 24.2-14.061 33.4-9.359 9.4-20.54 13.99-33.5 13.99s-24.1-4.79-33.439-14.2c-9.322-9.38-14.001-20.8-14.001-33.99 0-12.8 4.761-23.8 14.24-33.01 9.5-9.2 20.82-13.8 33.94-13.8zm-135.921 13.8c9.5 9.21 14.24 20.21 14.24 33.01 0 13.19-4.66 24.4-13.999 33.99-9.322 9.41-20.481 14.2-33.441 14.2-12.94 0-24.101-4.59-33.48-13.99-9.361-9.41-14.061-20.41-14.061-33.4 0-13.01 4.6-24.2 13.781-33.6 9.179-9.41 20.2-14.01 33.02-14.01 13.14 0 24.46 4.6 33.94 13.8zm26.96-552.6 62.48 62.61-60.979 60.99-62.481-62.61zm-60.98 60.99-1.841 1.82.421.39-59.901 60.01 62.061 61.99 61.741-61.6 62.339 62.21 60.922-60.8 61.641 61.6-61.162 61.19-61.1-61.19-62.241 62.4-62.88-63.01-61.741 61.8-62.46-62.6 60.72-60.6-61.601-61.6 1.761-1.8-.16-.21 60.66-60.6 1.22-.98zm123.46 1.62 61.742-61.81 62.181 62.2-61.741 61.8zm-310.982-62.01 62.44 62.4-60.921 60.8-62.44-62.4zm-60.861 185.6 62.38-62.4 62.721 62.81-62.4 62.4zm112.901 366.4c9.5 9.21 14.241 20.21 14.241 33.01 0 13.19-4.661 24.4-14 33.99-9.322 9.41-20.481 14.2-33.441 14.2s-24.121-4.59-33.5-13.99c-9.361-9.41-14.061-20.41-14.061-33.4 0-13.01 4.6-24.2 13.781-33.6 9.18-9.41 20.2-14.01 33.04-14.01 13.14 0 24.46 4.6 33.94 13.8z"/></svg>