<svg viewBox="0 0 22 22" xmlns="http://www.w3.org/2000/svg"><path fill="rgb(255, 255, 255)" d="m19.415 14.272-10 1c-.141.014-.281-.032-.385-.127-.105-.095-.165-.23-.165-.371v-11c0-.257.195-.472.45-.498l10-1c.141-.014.281.032.386.127.104.095.164.23.164.371v11c0 .257-.195.472-.45.498zm-8.55-9.146v7.996l7-.7v-7.996zm-2.73 1.101v1c0 .276-.224.5-.5.5h-3.5v10h7v-1.5c0-.276.224-.5.5-.5h1c.276 0 .5.224.5.5v3c0 .276-.224.5-.5.5h-10c-.276 0-.5-.224-.5-.5v-13c0-.276.224-.5.5-.5h5c.276 0 .5.224.5.5z"/></svg>