<svg height="48" viewBox="0 -960 960 960" width="48" xmlns="http://www.w3.org/2000/svg"><path fill="rgb(255, 255, 255)" d="m189-95c-26.033 0-48.21-9.157-66.53-27.47-18.313-18.32-27.47-40.497-27.47-66.53v-582c0-26.307 9.157-48.717 27.47-67.23 18.32-18.513 40.497-27.77 66.53-27.77h582c26.307 0 48.717 9.257 67.23 27.77s27.77 40.923 27.77 67.23v582c0 26.033-9.257 48.21-27.77 66.53-18.513 18.313-40.923 27.47-67.23 27.47zm0-94h582v-582h-582zm0-582v582zm127 172c13.32 0 24.15-4.17 32.49-12.51s12.51-19.003 12.51-31.99-4.17-23.817-12.51-32.49-19.003-13.01-31.99-13.01-23.817 4.313-32.49 12.94c-8.673 8.62-13.01 19.307-13.01 32.06 0 13.32 4.313 24.15 12.94 32.49s19.313 12.51 32.06 12.51zm163.5 0c13.267 0 24.333-4.17 33.2-12.51s13.3-19.003 13.3-31.99-4.407-23.817-13.22-32.49c-8.82-8.673-19.747-13.01-32.78-13.01-12.933 0-23.5 4.407-31.7 13.22-8.2 8.82-12.3 19.413-12.3 31.78 0 12.933 4.077 23.667 12.23 32.2 8.147 8.533 18.57 12.8 31.27 12.8zm165 0c12.987 0 23.817-4.17 32.49-12.51s13.01-19.003 13.01-31.99-4.313-23.817-12.94-32.49c-8.62-8.673-19.307-13.01-32.06-13.01-13.32 0-24.15 4.313-32.49 12.94-8.34 8.62-12.51 19.307-12.51 32.06 0 13.32 4.17 24.15 12.51 32.49s19.003 12.51 31.99 12.51zm-165 164c13.267 0 24.333-4.303 33.2-12.91 8.867-8.6 13.3-19.26 13.3-31.98 0-12.727-4.407-23.427-13.22-32.1-8.82-8.673-19.747-13.01-32.78-13.01-12.933 0-23.5 4.267-31.7 12.8s-12.3 19.267-12.3 32.2 4.077 23.667 12.23 32.2c8.147 8.533 18.57 12.8 31.27 12.8z"/></svg>