<svg height="48" viewBox="0 -960 960 960" width="48" xmlns="http://www.w3.org/2000/svg"><path fill="rgb(255, 255, 255)" d="m377.62-851c-12.16 0-22.053-4.06-29.68-12.18-7.627-8.11-11.44-18.11-11.44-30 0-11.88 3.813-21.65 11.44-29.32s17.52-11.5 29.68-11.5h203.76c12.167 0 22.06 3.83 29.68 11.49 7.627 7.66 11.44 17.56 11.44 29.69 0 11.88-3.813 21.82-11.44 29.82-7.62 8-17.513 12-29.68 12zm-48.53 794.66c-46.627-20.227-87.383-47.73-122.27-82.5-34.88-34.77-62.32-75.45-82.32-122.02s-30-96.57-30-150 10.03-103.46 30.09-150.09c20.06-46.64 47.53-87.46 82.41-122.47 34.887-35 75.643-62.68 122.27-83.04s96.703-30.54 150.23-30.54c46 0 89.5 7.5 130.5 22.5s77.167 36.17 108.5 63.5l31-31c8.667-8.67 18.5-13 29.5-13s20.833 4.5 29.5 13.5 13 19 13 30-4.333 20.83-13 29.5l-30 30c24.667 28 45.333 61.67 62 101s25 86 25 140c0 53.57-10.133 103.71-30.4 150.4s-47.89 87.38-82.87 122.07c-34.98 34.68-75.847 62.103-122.6 82.27-46.753 20.173-96.873 30.26-150.36 30.26-53.493 0-103.553-10.113-150.18-30.34zm356.91-148.49c56.333-55.89 84.5-124.55 84.5-206s-28.11-150.34-84.33-206.67-125.053-84.5-206.5-84.5-150.337 28.11-206.67 84.33-84.5 125.05-84.5 206.5 28.11 150.17 84.33 206.17 125.053 84 206.5 84 150.337-27.94 206.67-83.83zm-205.896 4.22c-11.895 0-21.879-3.92-29.918-12.12-8.038-7.89-12.055-17.87-12.055-29.85v-232l-73.233 73.23c-8.325 7.66-18.15 11.61-29.473 11.61-11.307 0-20.827-4.14-28.578-12.53-8.325-7.67-12.504-17.3-12.504-28.92s4.179-21.95 12.504-30.91l143.785-143.78c4.182-4.09 8.788-7.33 13.844-9.46 5.073-1.97 10.271-3.03 15.628-3.03 5.36 0 10.575 1.06 15.629 3.03 5.072 2.13 9.682 5.37 13.843 9.46l144.681 144.68c8.34 8.4 12.504 18.22 12.504 29.49 0 11.25-4.164 21.05-12.504 29.44-7.734 8.39-17.417 12.35-29.025 11.98-11.61-.17-21.578-4.26-29.919-11.98l-73.233-72.31v232c0 11.98-4.019 21.96-12.058 29.85-8.037 8.2-18.004 12.12-29.918 12.12z"/></svg>