<svg height="48" viewBox="0 -960 960 960" width="48" xmlns="http://www.w3.org/2000/svg"><path fill="rgb(255, 255, 255)" d="m185-95c-26.807 0-49.343-9.033-67.61-27.1-18.26-18.067-27.39-40.367-27.39-66.9v-582c0-26.807 9.13-49.343 27.39-67.61 18.267-18.26 40.803-27.39 67.61-27.39h329c13.167 0 24.293 4.753 33.38 14.26 9.08 9.513 13.62 20.847 13.62 34 0 13.16-4.54 24.24-13.62 33.24-9.087 9-20.213 13.5-33.38 13.5h-329v582h582v-329c0-13.167 4.56-24.293 13.68-33.38 9.113-9.08 20.28-13.62 33.5-13.62 13.213 0 24.32 4.54 33.32 13.62 9 9.087 13.5 20.213 13.5 33.38v329c0 26.533-9.207 48.833-27.62 66.9-18.42 18.067-40.547 27.1-66.38 27.1zm368-353c4.667-6.667 10.833-10 18.5-10s13.833 3.333 18.5 10l97 128c6 8.5 6.833 16.957 2.5 25.37-4.333 8.42-11.5 12.63-21.5 12.63h-384c-10.333 0-17.583-4.167-21.75-12.5s-3.25-16.833 2.75-25.5l67-85c4.667-6.667 10.833-10 18.5-10s13.833 3.333 18.5 10l76 98zm227.759-297.663v88.367c0 10.572-3.54 19.505-10.93 26.8-7.38 7.293-16.22 10.957-26.83 10.957-10.77 0-19.61-3.664-26.83-10.957-7.23-7.295-10.76-16.228-10.76-26.8v-88.367l-21.05 20.084c-7.39 6.957-15.91 10.443-25.22 10.443-9.33 0-18-4.017-26.04-12.05-7.55-7.504-11.4-16.341-11.4-26.51 0-10.186 3.85-19.023 11.4-26.51l82.75-82.744c4.18-4.289 8.51-7.373 13.02-9.237 4.33-1.88 9.16-2.813 14.13-2.813 5.14 0 9.96.933 14.3 2.813 4.5 1.864 8.84 4.948 13.02 9.237l82.73 82.744c7.57 7.487 11.26 16.468 10.93 26.912-.32 10.444-4.65 19.939-13.33 28.517-6.91 6.957-14.94 10.299-24.11 10.043-9-.273-17.34-3.615-24.73-10.043z"/></svg>