<svg height="48" viewBox="0 -960 960 960" width="48" xmlns="http://www.w3.org/2000/svg"><path fill="rgb(255, 255, 255)" d="m525.5-112.16c-12.81 12.63-28.12 18.934-46.75 18.934-17.855 0-32.832-5.964-45.152-17.924-.365-.35-.727-.7-1.088-1.07-.594-.6-1.175-1.21-1.742-1.83-11.324-12.32-17.098-27.63-17.098-45.94v-98.39h-.6c-43.553-14.36-79.49-38.08-107.744-71.14-2.041-2.38-4.043-4.82-6.006-7.29-2.614-3.33-5.119-6.7-7.516-10.11-26.266-37.3-39.464-79.7-39.464-127.18 0-.01 0-.01 0-.01 0-.18 0-.36.001-.53.065-31.79 5.905-61.26 17.509-88.43 1.06-2.63 2.17-5.24 3.33-7.83 11.03-24.73 26.94-47.49 47.74-68.29 27.48-27.5 58.41-46.46 92.78-56.89v-103.93c0-19.26 6.4-35.2 18.8-47.84 12.6-12.62 27.81-18.92 46.2-18.92 18.61 0 34 6.3 46.8 18.92 12.81 12.64 18.8 28.58 18.8 47.84v103.01c35.54 10.21 67.33 29.48 95.39 57.81 21.03 21.23 37.03 44.52 47.98 69.84.51 1.11 1.011 2.23 1.502 3.35 12.382 28.12 18.488 58.75 18.488 91.89v.01c0 49.66-14.082 93.77-42.598 132.29-1.237 1.68-2.501 3.34-3.792 5-.707.9-1.419 1.8-2.136 2.69-28.846 36-66.919 61.47-114.014 76.41l-.62-.01v97.67c0 12.36-2.555 23.37-7.772 33-2.899 5.39-6.633 10.36-11.228 14.89zm49.11-455.84c-4.698-4.73-9.597-9.02-14.695-12.87-22.563-16.99-48.893-25.48-79.215-25.48-37.2 0-68.39 12.72-93.79 38.18-25.8 25.47-38.59 56.76-38.59 93.88 0 37.13 12.79 68.49 38.39 94.06 25.4 25.58 56.59 38.38 93.79 38.38 31.416 0 58.545-9.09 81.761-27.25 4.253-3.33 8.369-6.97 12.349-10.92 9.523-9.53 17.262-19.88 23.219-31.05 9.914-18.67 14.841-39.61 14.841-62.84 0-22.95-4.799-43.68-14.452-62.21-6.007-11.48-13.876-22.1-23.608-31.88z" stroke-width=".05"/></svg>