<svg viewBox="0 0 22 22" xmlns="http://www.w3.org/2000/svg"><path fill="rgb(255, 255, 255)" d="m8.5 16.5c0 .793-.363 1.606-.879 2.121-.515.516-1.328.879-2.121.879s-1.606-.363-2.121-.879c-.516-.515-.879-1.328-.879-2.121s.363-1.606.879-2.121c.296-.296.689-.542 1.121-.698v-1.681c.021-.643.297-1.322.711-1.746.413-.424 1.091-.717 1.734-.754h.058 2.497v-1.181c-.432-.156-.825-.402-1.121-.698-.516-.515-.879-1.328-.879-2.121s.363-1.606.879-2.121c.515-.516 1.328-.879 2.121-.879s1.606.363 2.121.879c.516.515.879 1.328.879 2.121s-.363 1.606-.879 2.121c-.296.296-.689.542-1.121.698v1.181h2.561c.643.037 1.315.33 1.728.754.414.424.69 1.103.711 1.746v1.681c.432.156.825.402 1.121.698.516.515.879 1.328.879 2.121s-.363 1.606-.879 2.121c-.515.516-1.328.879-2.121.879s-1.606-.363-2.121-.879c-.516-.515-.879-1.328-.879-2.121s.363-1.606.879-2.121c.296-.296.689-.542 1.121-.698v-1.681c.022-.174-.028-.236-.146-.354s-.18-.168-.354-.146h-7c-.174-.022-.236.028-.354.146s-.168.18-.146.354v1.681c.432.156.825.402 1.121.698.516.515.879 1.328.879 2.121zm-3.707-.707c-.209.208-.293.395-.293.707s.084.499.293.707c.208.209.395.293.707.293s.499-.084.707-.293c.209-.208.293-.395.293-.707s-.084-.499-.293-.707c-.208-.209-.395-.293-.707-.293s-.499.084-.707.293zm10 0c-.209.208-.293.395-.293.707s.084.499.293.707c.208.209.395.293.707.293s.499-.084.707-.293c.209-.208.293-.395.293-.707s-.084-.499-.293-.707c-.208-.209-.395-.293-.707-.293s-.499.084-.707.293zm-5-11c-.209.208-.293.395-.293.707s.084.499.293.707c.208.209.395.293.707.293s.499-.084.707-.293c.209-.208.293-.395.293-.707s-.084-.499-.293-.707c-.208-.209-.395-.293-.707-.293s-.499.084-.707.293z"/></svg>