<svg height="48" viewBox="0 -960 960 960" width="48" xmlns="http://www.w3.org/2000/svg"><path fill="rgb(255, 255, 255)" d="m449.368-94.004c.044.001.088.003.132.004 0 0-.046-.001-.132-.004zm-147.368-19.996c-52.667-12-100.333-30.833-143-56.5s-64-62.167-64-109.5v-400c0-51.333 37.5-95.167 112.5-131.5s165.833-54.5 272.5-54.5c106 0 196.833 18.167 272.5 54.5s113.5 80.167 113.5 131.5v241c-13.333-7.333-27.333-13.833-42-19.5s-29.667-9.167-45-10.5v-123c-42 22-88.5 38.833-139.5 50.5s-104.5 17.5-160.5 17.5c-54.667 0-108.333-6-161-18s-98-28.667-136-50v136c37.333 14 80.5 27.5 129.5 40.5s104.833 19.5 167.5 19.5c14 0 28.167-.333 42.5-1s28.5-1.667 42.5-3c-12.667 13.333-23.333 27.5-32 42.5s-15.667 31.167-21 48.5h-25c-69.333.667-127.833-5.333-175.5-18s-90.5-30.333-128.5-53v104c3.333 11.333 15.667 22.667 37 34s47 21.5 77 30.5 62.667 16.333 98 22 69 8.167 101 7.5c2 16 5.833 31.333 11.5 46s12.5 28.333 20.5 41c-5.333 2-31 2.333-77 1-1.625-.047-3.136-.091-4.539-.131-44.524-1.599-92.343-8.222-143.461-19.869zm143.461 19.869c1.279.045 2.554.087 3.828.125-3.176-.093-40.535-1.188-3.828-.125zm3.899.127c-.021-.001-.045-.001-.071-.002.023 0 .048.001.071.002zm.008 0c-.003 0-.005 0-.008 0zm30.632-514.996c56.667 0 114.667-8.5 174-25.5s98.667-36.833 118-59.5c-20-21.333-60-40.833-120-58.5s-117.333-26.5-172-26.5c-57.333 0-115.5 8.667-174.5 26s-98.167 37-117.5 59c19.333 24.667 58 45 116 61s116.667 24 176 24zm261 569c-51.333 0-95.833-18.5-133.5-55.5s-56.5-81.5-56.5-133.5c0-52.667 18.833-97.667 56.5-135s82.167-56 133.5-56c52 0 96.667 18.667 134 56s56 82.333 56 135c0 52-18.667 96.5-56 133.5s-82 55.5-134 55.5zm.114-239.47-32.679-32.62c-.083-.16-.149-.16-.214-.16-6.54-6.59-14.463-10.04-23.772-10.54-9.206-.16-17.411 2.97-24.279 9.88-6.885 6.91-10.13 15.14-10.032 24.54.248 9.56 3.625 17.63 10.165 24.05l32.829 32.79-32.698 32.77c-.939 1-1.811 1.98-2.602 2.96-4.745 5.6-7.182 12.54-7.117 20.59.083 9.4 3.328 17.31 9.719 23.56.081.34.148.34.214.34 6.672 6.58 14.677 9.87 24.017 9.87 9.405.34 17.312-2.8 23.77-9.38l32.679-32.62 32.698 32.62c.396.32.791.81 1.186 1.15 6.408 5.93 14.133 8.72 23.193 8.72 9.604 0 17.723-3.29 24.396-10.05h.033c6.885-6.9 10.113-14.98 9.735-24.04-.397-9.23-3.905-17.14-10.543-23.72l-32.697-32.77 33.389-33.44c6.458-6.42 9.619-14.33 9.52-23.72-.115-9.56-3.459-17.47-10.048-24.06-.263-.16-.492-.49-.757-.81-6.128-5.6-13.293-8.73-21.53-9.07-.543 0-1.054 0-1.564 0-.28 0-.543 0-.823 0-7.396 0-13.788 2.48-19.306 6.59-1.202.98-2.372 1.98-3.492 3.13z"/></svg>