<svg viewBox="0 0 22 22" xmlns="http://www.w3.org/2000/svg"><path fill="rgb(255, 255, 255)" d="m8.5 5.5c0 .793-.363 1.606-.879 2.121-.296.296-.689.542-1.121.698v1.246c.148-.034.297-.057.445-.065h.058 6.997c.174.022.236-.028.354-.146.117-.118.168-.18.146-.354v-.681c-.224-.081-.438-.186-.634-.31-.18-.115-.345-.246-.487-.388-.516-.515-.879-1.328-.879-2.121s.363-1.606.879-2.121c.515-.516 1.328-.879 2.121-.879s1.606.363 2.121.879c.516.515.879 1.328.879 2.121s-.363 1.606-.879 2.121c-.142.142-.307.273-.487.388-.196.124-.41.229-.634.31v.681c-.021.643-.297 1.322-.711 1.746-.413.424-1.091.717-1.734.754-.019 0-.039 0-.058 0h-6.997c-.174-.022-.236.028-.354.146-.082.082-.131.137-.146.22v1.815c.432.156.825.402 1.121.698.516.515.879 1.328.879 2.121s-.363 1.606-.879 2.121c-.515.516-1.328.879-2.121.879s-1.606-.363-2.121-.879c-.516-.515-.879-1.328-.879-2.121s.363-1.606.879-2.121c.296-.296.689-.542 1.121-.698v-5.362c-.432-.156-.825-.402-1.121-.698-.516-.515-.879-1.328-.879-2.121s.363-1.606.879-2.121c.515-.516 1.328-.879 2.121-.879s1.606.363 2.121.879c.516.515.879 1.328.879 2.121zm-3.707-.707c-.209.208-.293.395-.293.707s.084.499.293.707c.208.209.395.293.707.293s.499-.084.707-.293c.209-.208.293-.395.293-.707s-.084-.499-.293-.707c-.208-.209-.395-.293-.707-.293s-.499.084-.707.293zm0 11c-.209.208-.293.395-.293.707s.084.499.293.707c.208.209.395.293.707.293s.499-.084.707-.293c.209-.208.293-.395.293-.707s-.084-.499-.293-.707c-.208-.209-.395-.293-.707-.293s-.499.084-.707.293zm10-11c-.209.208-.293.395-.293.707s.084.499.293.707c.208.209.395.293.707.293s.499-.084.707-.293c.209-.208.293-.395.293-.707s-.084-.499-.293-.707c-.208-.209-.395-.293-.707-.293s-.499.084-.707.293zm-1.411 8.327 1.717 1.717 1.718-1.717.277-.276c.195-.195.512-.195.707 0l.553.553c.195.196.195.512 0 .708l-1.994 1.994 1.717 1.717.277.277c.195.196.195.512 0 .708l-.553.553c-.196.195-.512.195-.708 0l-1.994-1.994-1.994 1.994c-.196.195-.512.195-.708 0l-.553-.553c-.195-.195-.195-.512 0-.707l.276-.278 1.718-1.717-1.718-1.718-.276-.277c-.195-.195-.195-.512 0-.707l.553-.553c.195-.195.512-.195.707 0z"/></svg>