<svg viewBox="0 0 22 22" xmlns="http://www.w3.org/2000/svg"><path fill="rgb(255, 255, 255)" d="m4.396 10v3.5h4v-3.5c0-.276.224-.5.5-.5h1c.276 0 .5.224.5.5v9c0 .276-.224.5-.5.5h-7c-.276 0-.5-.224-.5-.5v-9c0-.276.224-.5.5-.5h1c.276 0 .5.224.5.5zm8.707 1.793 1.293 1.293v-8.086c.022-.174-.029-.235-.147-.353s-.179-.169-.353-.147h-6c-.174-.022-.235.029-.353.147s-.169.179-.147.353v4c0 .276-.224.5-.5.5h-1c-.276 0-.5-.224-.5-.5v-4c.021-.643.297-1.322.711-1.746.413-.424 1.098-.717 1.74-.754h6.049.061c.643.037 1.315.33 1.728.754.414.424.69 1.103.711 1.746v8.086l1.293-1.293.353-.354c.196-.195.512-.195.708 0l.707.707c.195.196.195.512 0 .708l-.354.353-3.353 3.354c-.196.195-.512.195-.708 0l-3.353-3.354-.354-.353c-.195-.196-.195-.512 0-.708l.707-.707c.196-.195.512-.195.708 0z" stroke-linecap="square"/></svg>