<svg height="48" viewBox="0 -960 960 960" width="48" xmlns="http://www.w3.org/2000/svg"><path fill="rgb(255, 255, 255)" d="m620.5-675v70c0 10.08-3.507 18.43-10.52 25.06s-15.547 9.94-25.6 9.94c-10.06 0-18.557-3.41-25.49-10.22-6.927-6.82-10.39-15.41-10.39-25.78v-162c0-13.33 4.5-24.5 13.5-33.5s20.5-13.5 34.5-13.5h161c9.98 0 18.477 3.31 25.49 9.94 7.007 6.63 10.51 14.99 10.51 25.08s-3.503 18.61-10.51 25.56c-7.013 6.95-15.51 10.42-25.49 10.42h-71c23.333 21.33 44.833 45.33 64.5 72s34.833 54 45.5 82c4.667 12.67 3.833 24.83-2.5 36.5s-16.167 19-29.5 22c-12.667 3-24.833 1.17-36.5-5.5s-20.5-16-26.5-28c-8-21.33-18.5-40.83-31.5-58.5s-29.5-34.83-49.5-51.5zm-427.04 159.25c-32.913-.51-63.55-13.22-87.063-36.02-22.791-23.54-35.972-54.09-35.972-86.99 0-14.25 2.642-29.26 7.175-42.2 4.712-12.98 12.172-26.16 20.925-37.06l64.765-76.9-28.797-58.27c-2.485-5.17-4.4-12.43-4.115-17.61.285-5.42 2.794-12.43 5.697-17.35 3.185-4.67 8.103-9.85 12.765-12.42 4.687-2.85 11.707-4.14 17.351-4.41h197.773c5.619.27 12.662 1.56 17.349 4.41 4.662 2.57 9.584 7.75 12.768 12.42 2.928 4.92 5.438 11.93 5.698 17.35.258 5.18-1.45 12.16-3.936 17.11l-29.004 58.77 63.857 76.9c9.117 11.15 16.705 24.08 21.6 37.06 4.689 12.94 7.459 28.21 7.9 42.2-.519 33.13-13.236 63.69-36.153 86.99-23.643 22.8-54.332 35.51-87.322 36.02zm0-70.71h142.794c15.565.51 26.259-3.88 36.876-15.27 11.369-10.87 15.305-21.74 15.305-37.03 0-6.73-.75-11.92-2.952-17.88-1.995-5.7-4.582-10.09-8.935-15.28l-68.261-82.08h-86.856l-67.748 82.08c-4.427 5.19-7.174 9.86-9.294 15.55-2.358 6.19-3.161 11.15-3.161 17.61 0 15.29 3.959 25.89 15.46 36.76 10.772 11.66 21.416 16.05 36.772 15.54zm146.04 301.46v-70c0-10.08 3.506-18.43 10.52-25.06 7.013-6.63 15.546-9.94 25.6-9.94 10.06 0 18.556 3.41 25.49 10.22 6.926 6.82 10.39 15.41 10.39 25.78v162c0 13.33-4.5 24.5-13.5 33.5s-20.5 13.5-34.5 13.5h-161c-9.98 0-18.477-3.31-25.49-9.94-7.007-6.63-10.51-14.99-10.51-25.08s3.503-18.61 10.51-25.56c7.013-6.95 15.51-10.42 25.49-10.42h71c-23.334-21.33-44.834-45.33-64.5-72-19.667-26.67-34.834-54-45.5-82-4.667-12.67-3.834-24.83 2.5-36.5 6.333-11.67 16.166-19 29.5-22 12.666-3 24.833-1.17 36.5 5.5 11.666 6.67 20.5 16 26.5 28 8 21.33 18.5 40.83 31.5 58.5s29.5 34.83 49.5 51.5zm282.003 228.61c-32.913-.51-63.55-13.22-87.063-36.02-22.794-23.54-35.974-54.09-35.974-86.99 0-14.25 2.64-29.26 7.18-42.2 4.71-12.98 12.17-26.16 20.922-37.06l64.765-76.9-28.797-58.25c-2.485-5.2-4.4-12.4-4.115-17.6.285-5.4 2.794-12.5 5.697-17.4 3.185-4.6 8.103-9.8 12.765-12.4 4.687-2.8 11.707-4.1 17.351-4.4h197.773c5.619.3 12.662 1.6 17.349 4.4 4.662 2.6 9.584 7.8 12.768 12.4 2.928 4.9 5.438 12 5.698 17.4.258 5.2-1.45 12.1-3.936 17.1l-29.004 58.75 63.857 76.9c9.117 11.15 16.705 24.08 21.6 37.06 4.689 12.94 7.459 28.21 7.9 42.2-.519 33.13-13.236 63.69-36.153 86.99-23.643 22.8-54.332 35.51-87.322 36.02zm0-70.71h142.794c15.565.51 26.259-3.88 36.876-15.27 11.369-10.87 15.305-21.74 15.305-37.03 0-6.73-.75-11.92-2.952-17.88-1.995-5.7-4.582-10.09-8.935-15.28l-68.261-82.08h-86.856l-67.748 82.08c-4.427 5.19-7.174 9.86-9.294 15.55-2.358 6.19-3.161 11.15-3.161 17.61 0 15.29 3.959 25.89 15.46 36.76 10.772 11.66 21.416 16.05 36.772 15.54z"/></svg>