<svg height="48" viewBox="0 -960 960 960" width="48" xmlns="http://www.w3.org/2000/svg"><path fill="rgb(255, 255, 255)" d="m854-166v-649h-748v296c0 13.833-4.56 25.29-13.68 34.37-9.113 9.087-20.28 13.63-33.5 13.63-13.213 0-24.32-4.543-33.32-13.63-9-9.08-13.5-20.537-13.5-34.37v-296c0-25.847 9.203-47.977 27.61-66.39 18.407-18.407 40.537-27.61 66.39-27.61h748c26.127 0 48.49 9.203 67.09 27.61 18.607 18.413 27.91 40.543 27.91 66.39v563c0 22.287-9.17 41.69-27.51 58.21-18.347 16.527-40.843 25.79-67.49 27.79zm-498.2-231c-51.473 0-93.307-16.267-125.5-48.8-32.2-32.527-48.3-74.527-48.3-126 0-51.467 16.1-93.533 48.3-126.2 32.193-32.667 74.027-49 125.5-49 51.467 0 93.7 16.333 126.7 49s49.5 74.733 49.5 126.2c0 51.473-16.5 93.473-49.5 126-33 32.533-75.233 48.8-126.7 48.8zm.2-94c24.033 0 43.54-7.6 58.52-22.8 14.987-15.193 22.48-34.527 22.48-58 0-23.467-7.487-42.7-22.46-57.7-14.98-15-34.313-22.5-58-22.5-23.693 0-43.04 7.503-58.04 22.51-15 15.013-22.5 34.12-22.5 57.32 0 23.48 7.52 42.88 22.56 58.2 15.047 15.313 34.193 22.97 57.44 22.97zm-250 466c-26.533 0-48.833-9.033-66.9-27.1s-27.1-40.367-27.1-66.9v-27c0-29.56 7.5-55.45 22.5-77.67s34.5-38.663 58.5-49.33c46-21.333 90.49-37.167 133.47-47.5 42.987-10.333 86.17-15.5 129.55-15.5 44.653 0 88.313 5.333 130.98 16s86.64 26.063 131.92 46.19c25.533 10.753 45.763 27.243 60.69 49.47s22.39 48.34 22.39 78.34v27c0 26.533-9.13 48.833-27.39 66.9-18.267 18.067-40.803 27.1-67.61 27.1zm0-94h501v-23c0-9.353-3.167-18.933-9.5-28.74-6.333-9.8-14.21-16.913-23.63-21.34-39.167-18.307-75.677-31.037-109.53-38.19-33.847-7.153-70.03-10.73-108.55-10.73-37.4 0-73.383 3.5-107.95 10.5-34.56 7-71.03 19.78-109.41 38.34-9.62 4.48-17.43 11.62-23.43 21.42-6 9.807-9 19.387-9 28.74zm495.549-320.75c-8.625-4.55-12.957-11.62-12.957-21.55v-216.67c0-9.96 4.332-17.2 12.957-21.98 8.646-4.55 17.105-4.15 25.399 1.26l160.677 107.81c6.926 5.18 10.367 12.23 10.367 21.13 0 8.94-3.338 15.55-10.014 20.13l-161.03 106.98c-8.294 6.21-16.753 7.24-25.399 2.89z"/></svg>