<svg height="48" viewBox="0 -960 960 960" width="48" xmlns="http://www.w3.org/2000/svg"><path fill="rgb(255, 255, 255)" d="m354.38-695.5c-35.08-11-70.54-16.5-106.38-16.5-25.333 0-50.167 3.167-74.5 9.5s-48.833 14.167-73.5 23.5v428.997c19.319-6.798 42.498-12.198 69.493-16.197 27-4 53.159-6.01 78.501-6.01 24.988 0 49.013 2.028 72.075 6.079 10.831 1.797 21.568 4.008 32.211 6.631 32.431 7.993 64.336 19.819 95.713 35.478v-427.613c-28.885-18.731-60.089-33.353-93.613-43.865zm-337.38 14.5c0-16.667 3.667-32.1 11-46.3s18.333-25.1 33-32.7c29.333-13 59.463-22.25 90.39-27.75 30.933-5.5 62.47-8.25 94.61-8.25 49.22 0 91.527 6.333 126.92 19 35.064 12.551 70.756 30.666 107.076 54.344 36.313-23.679 71.999-41.859 107.077-54.334 35.379-12.81 77.698-19.01 126.92-19.01 32.139 0 63.68 2.6 94.599 8.21 30.939 5.39 61.06 14.8 90.399 27.79 14.662 7.6 25.661 18.41 33 32.6 7.321 14.2 11.001 29.59 11.001 46.4v46.859c.005.312.008.624.008.938v425.203c0 24.627-11 42.283-33 52.97s-44 9.363-66-3.97c-3.153-1.182-6.313-2.343-9.478-3.482-18.499-6.073-36.969-11.734-55.411-17.118-21.918-6.409-44.254-9.399-66.971-9.4-.002 0-.005 0-.007 0-32.437.001-63.735 5.001-93.893 15-30.16 10-59.24 23.333-87.24 40-7.78 4-15.307 7-22.58 9-7.28 2-15.42 3-24.42 3-1.391 0-2.78-.025-4.165-.076-1.279.05-2.56.076-3.844.076-8.998 0-17.14-1-24.419-2.99-7.28-2.01-14.8-5.01-22.58-9.01-27.999-16.8-57.079-30-87.24-39.99-30.159-10.01-61.456-15.01-93.896-15.01-22.731 0-45.057 3.167-66.976 9.5-18.728 5.411-37.485 11.187-56.271 17.328-2.878 1.039-5.751 2.096-8.617 3.172-21.999 13.2-43.999 14.6-66 3.8-22.002-10.6-32.992-28.21-32.992-52.8v-11zm695 408.94c25.333 0 51.5 2.007 78.5 6.02 26.996 4.006 50.16 9.351 69.491 16.037v-428.987c-24.68-9.4-49.179-17.21-73.5-23.61-24.339-6.4-49.18-9.4-74.5-9.4-35.839 0-71.299 5.41-106.38 16.4-33.523 10.522-64.726 25.217-93.611 43.972v427.582c31.371-15.752 63.275-27.497 95.712-35.554 21.605-5.369 43.602-8.941 65.99-10.819 12.504-1.094 25.27-1.641 38.298-1.641z"/></svg>