<svg height="48" viewBox="0 -960 960 960" width="48" xmlns="http://www.w3.org/2000/svg"><path fill="rgb(255, 255, 255)" d="m289.594-513.239c-6.562 6.564-14.496 9.884-23.788 9.815-.392.001-.786-.004-1.183-.016-9.655-.15-17.652-3.61-23.964-10.38-6.513-6.78-9.885-14.7-10.129-23.78-.245-9.22 2.997-17.15 9.725-23.77l132.949-131.722v.344l23.74-23.521c6.73-6.92 14.18-11.96 22.334-15.28 8.171-3.31 16.572-5.03 25.217-5.03 8.646 0 17.119 1.72 25.419 5.03 8.299 3.32 15.677 8.36 22.132 15.28l6.166 5.503c6.802 6.7 10.079 14.7 9.831 24.03-.246 9.17-3.655 17.2-10.24 24.03-6.381 6.85-14.466 10.36-24.227 10.5-9.759.28-18.063-3.06-24.895-9.89l-5.245-4.13zm92.812 289.709c-9.25 0-16.96-3.16-23.098-9.65-6.125-6.2-9.194-14.12-9.194-23.64v-208.149c0-9.22 3.142-16.87 9.409-23.06 6.269-6.2 14.079-9.36 23.416-9.36s17.133 3.16 23.373 9.36c6.239 6.19 9.365 13.84 9.365 23.06v208.149c0 9.52-3.184 17.44-9.538 23.64-6.355 6.49-14.265 9.65-23.733 9.65zm-118.878 0c-9.524 0-17.406-3.16-23.646-9.51-6.239-6.34-9.365-14.12-9.365-23.64v-113.769c0-9.07 3.17-16.85 9.495-23.34 6.326-6.63 14.135-9.94 23.415-9.94s17.047 3.31 23.286 9.94c6.239 6.49 9.367 14.41 9.367 23.49v113.919c0 9.22-3.186 17-9.54 23.34-6.354 6.35-14.035 9.51-23.012 9.51zm-74.528 128.53c-26.533 0-48.833-9.033-66.9-27.1s-27.1-40.367-27.1-66.9v-582c0-26.807 9.033-49.343 27.1-67.61 18.067-18.26 40.367-27.39 66.9-27.39h582c26.807 0 49.343 9.13 67.61 27.39 18.26 18.267 27.39 40.803 27.39 67.61v132.383c7.06 3.559 13.647 8.368 19.76 14.426 14.827 14.687 22.24 32.01 22.24 51.97v185.593c0 20.007-7.413 37.133-22.24 51.38-6.113 5.877-12.7 10.541-19.76 13.994v132.254c0 26.533-9.13 48.833-27.39 66.9-18.267 18.067-40.803 27.1-67.61 27.1zm582-676h-582v582h582v-124.878h-231c-20.9 0-38.79-7.007-53.67-21.02-14.887-14.007-22.33-31.417-22.33-52.23v-185.093c0-19.96 7.443-37.283 22.33-51.97 14.88-14.687 32.77-22.03 53.67-22.03h231zm77 397.122v-212.343h-324v212.343zm-227.263-25.112c-9.7 0-17.518-2.82-23.459-8.79-5.959-5.82-8.94-13.61-8.94-23.41 0-9.01 3.1-16.82 9.301-23.22 6.22-5.98 13.919-9.19 23.098-9.19h131.501c9.681 0 17.5 3.21 23.462 9.19 5.938 6.22 8.919 14.21 8.919 23.41 0 9.4-3.101 17.21-9.32 23.22-6.201 5.97-13.879 8.79-23.061 8.79zm0-99.6c-9.7 0-17.518-3.22-23.459-9.01-5.959-5.79-8.94-13.79-8.94-23.41 0-9.19 3.1-17 9.301-23.19 6.22-6.19 13.919-9.4 23.098-9.4h131.501c9.681 0 17.5 3.21 23.462 9.4 5.938 6 8.919 14 8.919 23.41 0 9.4-3.101 17-9.32 23.19-6.201 5.79-13.879 9.01-23.061 9.01z" stroke-width=".05"/></svg>