<svg height="48" viewBox="0 -960 960 960" width="48" xmlns="http://www.w3.org/2000/svg"><path fill="rgb(255, 255, 255)" d="m150.289-26.73c-21.493 0-40.182-7.945-56.065-23.835-15.891-15.884-23.836-34.572-23.836-56.065v-745.77c0-21.76 7.952-40.64 23.835-56.81 15.883-16.15 34.577-24.06 56.064-24.06h658.443c21.756 0 40.682 7.91 56.738 24.06 16.096 16.17 24.144 35.05 24.144 56.81v745.77c0 21.493-8.038 40.181-24.115 56.065-16.076 15.89-34.992 23.835-56.748 23.835zm0-750.55h658.441v-75.12h-658.443v75.12zm0 670.65h658.46v-427.42h-658.46zm562.193-178.09c0-6.31 2.407-11.9 7.22-16.77 4.814-4.86 10.39-7.3 16.731-7.3 6.989 0 12.765 2.44 17.328 7.3 4.57 4.87 6.854 10.46 6.854 16.77v84.71c0 12.68-4.37 23.38-13.111 32.12-8.748 8.76-19.458 13.13-32.134 13.13h-84.714c-6.308 0-11.898-2.25-16.769-6.74-4.865-4.5-7.297-10.07-7.297-16.73 0-6.68 2.432-12.45 7.297-17.33 4.871-4.89 10.461-7.34 16.769-7.34h81.826zm-311.362 42.83c-21.538-21.49-32.307-47.63-32.307-78.39 0-30.77 10.75-56.93 32.249-78.46 21.499-21.54 47.632-32.31 78.399-32.31s56.919 10.76 78.457 32.25c21.537 21.5 32.307 47.63 32.307 78.4s-10.75 56.92-32.25 78.46c-21.499 21.53-47.632 32.3-78.399 32.3-30.766 0-56.919-10.75-78.456-32.25zm-154.565-109.26c0 6.31-2.407 11.9-7.22 16.77-4.813 4.86-10.39 7.3-16.731 7.3-6.989 0-12.765-2.44-17.328-7.3-4.57-4.87-6.854-10.46-6.854-16.77v-84.71c0-12.68 4.373-23.38 13.121-32.13 8.741-8.74 19.449-13.12 32.124-13.12h84.714c6.308 0 11.898 2.25 16.77 6.74 4.864 4.5 7.297 10.07 7.297 16.73 0 6.67-2.433 12.45-7.297 17.33-4.872 4.89-10.462 7.34-16.77 7.34h-81.826zm-96.266-345.26v81.5h658.441v-81.5z"/></svg>