<svg height="48" viewBox="0 -960 960 960" width="48" xmlns="http://www.w3.org/2000/svg"><path fill="rgb(255, 255, 255)" d="m598-182v-35h-71c-25.833 0-47.957-9.033-66.37-27.1-18.42-18.067-27.63-40.367-27.63-66.9v-338h-70v40c0 24.167-8.957 45.207-26.87 63.12-17.92 17.92-38.963 26.88-63.13 26.88h-139c-26.533 0-48.833-9.13-66.9-27.39-18.067-18.267-27.1-40.803-27.1-67.61v-160c0-26.807 9.033-49.343 27.1-67.61 18.067-18.26 40.367-27.39 66.9-27.39h139c24.167 0 45.21 8.957 63.13 26.87 17.913 17.92 26.87 38.963 26.87 63.13v35h235v-35c0-24.167 8.96-45.21 26.88-63.13 17.913-17.913 38.953-26.87 63.12-26.87h138c26.807 0 49.343 9.13 67.61 27.39 18.26 18.267 27.39 40.803 27.39 67.61v160c0 26.807-9.13 49.343-27.39 67.61-18.267 18.26-40.803 27.39-67.61 27.39h-138c-24.167 0-45.207-8.96-63.12-26.88-17.92-17.913-26.88-38.953-26.88-63.12v-40h-71v338h71v-40c0-24.167 8.96-45.21 26.88-63.13 17.913-17.913 38.953-26.87 63.12-26.87h138c26.807 0 49.343 9.207 67.61 27.62 18.26 18.42 27.39 40.547 27.39 66.38v161c0 26.533-9.13 48.833-27.39 66.9-18.267 18.067-40.803 27.1-67.61 27.1h-138c-24.167 0-45.207-8.813-63.12-26.44-17.92-17.627-26.88-38.813-26.88-63.56zm-464-592v160zm559 0v160zm0 160h133v-160h-133zm-559 0h135v-160h-135z"/></svg>