<svg height="48" viewBox="0 -960 960 960" width="48" xmlns="http://www.w3.org/2000/svg"><path fill="rgb(255, 255, 255)" d="m727.703-539.55h-502c-26.033 0-48.207-9.16-66.52-27.47-18.32-18.32-27.48-40.49-27.48-66.53v-213.334c0-26.06 21.126-47.186 47.186-47.186s47.186 21.126 47.186 47.186l-.372 213.334h502l-.109-213.334c0-26.06 21.126-47.186 47.186-47.186h.737c26.06 0 47.186 21.126 47.186 47.186v213.334c0 26.04-9.257 48.21-27.77 66.53-18.513 18.31-40.923 27.47-67.23 27.47zm-596 123.03c0-26.3 9.16-48.71 27.48-67.23 18.313-18.51 40.487-27.77 66.52-27.77h303c13.04 0 25.467 2.67 37.28 8 11.813 5.34 22.053 12.34 30.72 21l197 197c8.667 8.67 15.667 18.91 21 30.72 5.333 11.82 8 24.24 8 37.28v126.592c0 26.07-21.215 46.01-47.262 46.01h-.792c-26.021 0-47.262-19.94-47.262-46.01v-108.132c0-1.853.107-3.685.316-5.49v-11.15l-201.42-200.82h-300.58l.69 325.592c0 26.07-22.226 46.01-48.257 46.01s-47.254-19.94-47.254-46.01z"/></svg>