<svg height="48" viewBox="0 -960 960 960" width="48" xmlns="http://www.w3.org/2000/svg"><path fill="rgb(255, 255, 255)" d="m296-480.36c0-.01 0-.01 0-.02s0-.01 0-.02c0-2.52.176-4.98.527-7.37 1.459-9.96 5.951-18.71 13.473-26.23l85-85c7.34-7.4 16-9 26-5 8.778 3.51 13.704 9.64 14.776 18.26.149 1.2.224 2.44.224 3.74v204c0 1.3-.075 2.54-.224 3.74-1.072 8.62-5.998 14.75-14.776 18.26-10 4-18.66 2.4-26-5l-85-85c-8.063-8.46-12.638-18.11-13.738-29.08-.175-1.73-.262-3.49-.262-5.28zm-173.61 358.26c-10.353-10.25-17.772-21.85-22.255-34.82-3.423-9.88-5.135-20.57-5.135-32.08v-582c0-10.06 1.286-19.52 3.857-28.38 3.327-11.46 8.804-21.92 16.43-31.34 2.19-2.71 4.558-5.34 7.103-7.89 18.267-18.26 40.803-27.39 67.61-27.39h582c26.533 0 48.833 9.13 66.9 27.39 1.096 1.11 2.158 2.23 3.188 3.37 11.132 12.29 18.38 26.48 21.738 42.49 1.449 6.91 2.174 14.16 2.174 21.75v582c0 12.56-2.014 24.13-6.04 34.75-4.503 11.89-11.523 22.61-21.06 32.15-8.721 8.72-18.429 15.34-29.123 19.85-11.458 4.843-24.05 7.25-37.777 7.25h-582c-11.496 0-22.207-1.656-32.134-4.98-13.218-4.43-25.043-11.8-35.476-22.12zm649.61-66.9v-582h-132v582zm-227-582h-355v582h355z"/></svg>