<svg height="48" viewBox="0 -960 960 960" width="48" xmlns="http://www.w3.org/2000/svg"><path fill="rgb(255, 255, 255)" d="m289.594-513.239c-6.562 6.564-14.496 9.884-23.788 9.815-.392.001-.786-.004-1.183-.016-9.655-.15-17.652-3.61-23.964-10.38-6.513-6.78-9.885-14.7-10.129-23.78-.245-9.22 2.997-17.15 9.725-23.77l132.949-131.722v.344l23.74-23.521c6.73-6.92 14.18-11.96 22.334-15.28 8.171-3.31 16.572-5.03 25.217-5.03 8.646 0 17.119 1.72 25.419 5.03 8.299 3.32 15.677 8.36 22.132 15.28l6.166 5.503c6.802 6.7 10.079 14.7 9.831 24.03-.246 9.17-3.655 17.2-10.24 24.03-6.381 6.85-14.466 10.36-24.227 10.5-9.759.28-18.063-3.06-24.895-9.89l-5.245-4.13zm92.812 289.709c-9.25 0-16.96-3.16-23.098-9.65-6.125-6.2-9.194-14.12-9.194-23.64v-208.149c0-9.22 3.142-16.87 9.409-23.06 6.269-6.2 14.079-9.36 23.416-9.36s17.133 3.16 23.373 9.36c6.239 6.19 9.365 13.84 9.365 23.06v208.149c0 9.52-3.184 17.44-9.538 23.64-6.355 6.49-14.265 9.65-23.733 9.65zm-118.878 0c-9.524 0-17.406-3.16-23.646-9.51-6.239-6.34-9.365-14.12-9.365-23.64v-113.769c0-9.07 3.17-16.85 9.495-23.34 6.326-6.63 14.135-9.94 23.415-9.94s17.047 3.31 23.286 9.94c6.239 6.49 9.367 14.41 9.367 23.49v113.919c0 9.22-3.186 17-9.54 23.34-6.354 6.35-14.035 9.51-23.012 9.51zm-74.528 128.53c-26.533 0-48.833-9.033-66.9-27.1s-27.1-40.367-27.1-66.9v-582c0-26.807 9.033-49.343 27.1-67.61 18.067-18.26 40.367-27.39 66.9-27.39h582c26.807 0 49.343 9.13 67.61 27.39 18.26 18.267 27.39 40.803 27.39 67.61v132.383c7.06 3.559 13.647 8.368 19.76 14.426 14.827 14.687 22.24 32.01 22.24 51.97v185.593c0 20.007-7.413 37.133-22.24 51.38-6.113 5.877-12.7 10.541-19.76 13.994v132.254c0 26.533-9.13 48.833-27.39 66.9-18.267 18.067-40.803 27.1-67.61 27.1zm582-676h-582v582h582v-124.878h-231c-20.9 0-38.79-7.007-53.67-21.02-14.887-14.007-22.33-31.417-22.33-52.23v-185.093c0-19.96 7.443-37.283 22.33-51.97 14.88-14.687 32.77-22.03 53.67-22.03h231zm77 397.122v-212.343h-324v212.343zm-135.419-168.322c.82-.81 1.68-1.4 2.68-2.19 4.2-3.41 9.4-5.21 15-5.21.259 0 .54-.2.64 0 .519-.2.86 0 1.219 0 6.481.21 12.14 2.4 16.821 7.21.181.19.34.38.681.38 5.04 5.21 7.779 11.41 7.719 18.81.16 7.4-2.42 13.81-7.36 18.6l-26.08 26 25.521 25.61c5.179 5.19 7.94 11.38 8.279 18.38.361 7.21-2.26 13.62-7.68 19-5.12 5.21-11.48 7.81-18.939 7.81-7.1 0-13.121-2.4-18.081-7-.3-.19-.62-.6-.92-.81l-25.519-25.59-25.721 25.8c-4.94 5-11.14 7.41-18.52 7.41-7.3-.21-13.52-2.62-18.719-7.81-.121-.19-.141-.19-.162-.19-5.04-5-7.519-11.21-7.519-18.62-.14-6.19 1.84-11.59 5.419-16 .7-1 1.4-1.79 2.021-2.38l25.721-25.61-25.642-25.79c-5.079-5-7.84-11.21-8.059-18.41 0-7.59 2.54-14 7.959-19.4 5.321-5.19 11.561-7.6 18.881-7.4 7.18.21 13.461 2.8 18.54 8h.159l25.501 25.59z" stroke-width=".05"/></svg>