<svg height="48" viewBox="0 -960 960 960" width="48" xmlns="http://www.w3.org/2000/svg"><path fill="rgb(255, 255, 255)" d="m55-347c0-25.33 9.11-47.17 27.33-65.5 18.213-18.33 40.437-27.5 66.67-27.5h158c26.233 0 48.457 9.17 66.67 27.5 18.22 18.33 27.33 40.17 27.33 65.5v159c0 .16 0 .31-.001.47v.13c0 25.99-9.119 47.99-27.338 66.01-18.222 17.98-40.44 26.985-66.662 26.985h-157.999c-26.241 0-48.462-9.005-66.682-26.985-18.219-18.02-27.318-40.02-27.318-66.01zm95 158h156v-156.4h-156zm372-77.74c0-13.15 4.73-24.49 14.19-34 9.453-9.51 20.723-14.26 33.81-14.26h276c13.833 0 25.29 4.7 34.37 14.09 9.087 9.39 13.63 20.67 13.63 33.82v.24.23c0 13.22-4.558 24.43-13.639 33.62-9.081 9-20.541 13.59-34.36 13.59h-276.002c-13.099 0-24.359-4.59-33.818-13.38-9.461-9.21-14.181-20.21-14.181-33.41 0-.09 0-.18.001-.27-.001-.09-.001-.18-.001-.27zm-373-253.26c-1.026 0-2.047-.01-3.061-.04-24.912-.61-46.114-8.67-63.621-25.95-15.774-15.6-24.711-35.68-26.826-57.67-.328-3.37-.492-6.82-.492-10.34v-158c0-26.23 9.11-48.46 27.33-66.67 18.213-18.22 40.437-27.33 66.67-27.33h158c26.233 0 48.457 9.11 66.67 27.33 18.22 18.21 27.33 40.44 27.33 66.67v158c0 4.14-.227 8.18-.681 12.12-2.422 21.29-11.312 40.72-26.658 55.89-17.503 17.28-38.693 25.34-63.577 25.95-1.022.03-2.05.04-3.084.04zm1-95h156v-155h-156zm420-31c-.734 0-1.463-.01-2.185-.04-12.171-.42-22.705-4.39-31.634-11.95-9.461-10.02-14.181-22.01-14.181-34.01 0-.14 0-.28.001-.42-.001-.14-.001-.27-.001-.4 0-13.22 4.73-24.39 14.19-33.5 9.453-9.12 20.723-13.68 33.81-13.68h276c13.833 0 25.29 4.5 34.37 13.5 9.087 9 13.63 20.11 13.63 33.32 0 .19-.001.38-.003.57.002.2.003.4.003.61 0 10.41-3.435 20.82-10.281 28.62-1.038 1.27-2.154 2.5-3.349 3.7-1.529 1.54-3.125 2.94-4.789 4.22-7.669 6.25-16.769 9.07-27.292 9.42-.756.03-1.519.04-2.289.04z"/></svg>