<svg height="48" viewBox="0 -960 960 960" width="48" xmlns="http://www.w3.org/2000/svg"><path fill="rgb(255, 255, 255)" d="m189-55c-26.033 0-48.21-9.157-66.53-27.47-18.313-18.32-27.47-40.497-27.47-66.53v-602c0-26.307 9.157-48.717 27.47-67.23 18.32-18.513 40.497-27.77 66.53-27.77h56v-19c0-11.167 4.13-20.793 12.39-28.88 8.267-8.08 17.867-12.12 28.8-12.12 11.22 0 20.827 4.04 28.82 12.12 7.993 8.087 11.99 17.713 11.99 28.88v19h306v-19c0-11.167 4.13-20.793 12.39-28.88 8.267-8.08 17.867-12.12 28.8-12.12 11.227 0 20.833 4.04 28.82 12.12 7.993 8.087 11.99 17.713 11.99 28.88v19h56c26.307 0 48.717 9.257 67.23 27.77s27.77 40.923 27.77 67.23v602c0 26.033-9.257 48.21-27.77 66.53-18.513 18.313-40.923 27.47-67.23 27.47zm0-94h582v-421h-582zm0-481h582v-121h-582zm325.603 221.273 26.284-34.205c3.498-4.237 9.13-8.801 13.63-11.295 4.86-2.119 11.58-3.823 16.662-3.823s12.051 1.823 16.916 3.939c4.524 2.496 9.834 6.833 13.341 11.081l26.44 34.292 40.181 13.569c7.117 2.907 14.941 8.997 19.385 15.042 3.52 6.072 6.407 14.762 6.407 21.687 0 3.285-.742 7.676-1.619 10.972-1.102 3.47-3.294 8.075-5.262 11.165l-25.373 36.473.886 38.47c-.663 9.55-5.501 20.72-12.023 27.773-7.207 6.072-18.168 11.057-27.429 11.057-1.113 0-3.594-.321-6.604-.641l-1.3-.138-43.924-12.159-43.851 12.1c-1.418.263-3.282.566-3.564.657-1.136.169-3.22.431-5.05.431-9.348 0-20.406-5.192-27.525-11.423-6.382-7.344-10.856-18.517-11.04-28.33l.881-37.835-25.266-36.232c-2.297-3.277-4.717-8.267-5.882-12.151-.752-3.196-1.356-7.296-1.356-10.439 0-7.051 2.893-15.805 6.437-21.89 4.66-6.171 12.258-12.008 19.736-14.634zm33.671 47.492-33.944 11.518 23.339 33.002-1.004 32.799 34.523-9.678 34.796 9.706-1.005-32.842 23.173-32.649-34.14-11.942-22.66-29.687z"/></svg>