<svg height="48" viewBox="0 -960 960 960" width="48" xmlns="http://www.w3.org/2000/svg"><path fill="rgb(255, 255, 255)" d="m149-135c-26.033 0-48.21-9.16-66.53-27.48-18.313-18.313-27.47-40.487-27.47-66.52v-502c0-26.307 9.157-48.717 27.47-67.23 18.32-18.513 40.497-27.77 66.53-27.77h662c26.307 0 48.717 9.257 67.23 27.77s27.77 40.923 27.77 67.23v502c0 26.033-9.257 48.207-27.77 66.52-18.513 18.32-40.923 27.48-67.23 27.48zm0-94h662v-502h-662zm158.489-97.69c-25.587 0-47.376-9.05-65.361-27.03-17.985-17.92-26.982-39.73-26.982-65.32 0-11.1 1.792-21.72 5.374-31.78 3.583-10.08 8.791-19.34 15.631-27.66l59.448-70.55-27.741-56.28c-3.172-6.11-2.871-12.13.895-18.07 3.765-5.95 9.011-8.88 15.75-8.88h166.852c6.737 0 11.993 2.93 15.757 8.88 3.765 5.94 4.058 11.96.888 18.07l-27.743 56.28 58.656 70.55c7.134 8.38 12.547 17.67 16.25 27.73 3.701 10.07 5.683 20.61 5.944 31.63 0 25.67-9.036 47.48-27.116 65.48-18.073 17.9-39.949 26.95-65.623 26.95zm343.112-94.9c-24.861 0-47.348-6.46-67.436-19.52-20.1-13.05-35.738-30.45-46.926-51.95-3.729-6.84-4.251-13.31-1.554-19.65 2.686-6.34 7.347-10.56 13.984-12.67 5.793-2.12 11.698-2.12 17.714 0 6.005 2.11 10.666 5.84 13.986 11.17 7.035 13.31 16.78 23.75 29.212 31.46 12.43 7.59 26.178 11.43 41.269 11.43 22.201 0 41.282-7.82 57.243-23.49 15.949-15.67 23.93-34.8 23.93-57.18 0-22.5-7.981-41.52-23.93-57.3-15.961-15.79-35.117-23.63-57.492-23.63-7.557 0-14.941 1.13-22.139 3.48-7.21 2.25-13.909 5.23-20.125 8.96h4.351c5.793 1.23 10.454 4.35 13.984 9.19 3.519 4.85 5.284 10.08 5.284 15.79 0 6.96-2.425 12.8-7.247 17.65-4.824 4.73-10.704 7.09-17.614 7.09h-62.154c-7.049 0-12.854-2.36-17.403-7.21-4.562-4.85-6.837-10.69-6.837-17.65v-62.16c0-6.96 2.275-12.8 6.837-17.65 4.549-4.85 10.367-7.21 17.453-7.21 6.675 0 12.269 2.36 16.781 7.21 4.525 4.73 7.197 10.44 8.03 17.03v4.35c11.598-9.07 24.228-16.15 37.889-21.13 13.661-4.97 27.969-7.46 42.91-7.46 36.36 0 67.201 12.8 92.535 38.3 25.321 25.47 37.988 56.3 37.988 92.6 0 36.17-12.667 67-37.988 92.23-25.334 25.24-56.175 37.92-92.535 37.92z"/></svg>