<svg height="16" viewBox="0 0 16 16" width="16" xmlns="http://www.w3.org/2000/svg"><path fill="rgb(255, 255, 255)" d="m8 1.738 2.842-.947c.132-.044.277-.031.399.036s.21.182.244.317l1 4c.037.149.004.307-.091.429-.095.121-.24.192-.394.192h-8c-.154 0-.299-.071-.394-.192-.095-.122-.128-.28-.091-.429l1-4c.034-.135.122-.25.244-.317s.267-.08.399-.036zm5.354 4.88 1 1c.143.143.185.359.108.545-.077.187-.26.309-.462.309h-12c-.202 0-.385-.122-.462-.309-.077-.186-.035-.402.108-.545l1-1c.094-.093.221-.146.354-.146h10c.133 0 .26.053.354.146zm-5.981 6.45c-.149.496-.418.954-.752 1.287-.515.516-1.328.879-2.121.879s-1.606-.363-2.121-.879c-.516-.515-.879-1.328-.879-2.121s.363-1.606.879-2.121c.515-.516 1.328-.879 2.121-.879s1.606.363 2.121.879c.334.333.604.791.753 1.288h1.424c.141-.45.388-.861.698-1.171.495-.494 1.245-.829 2.004-.829s1.509.335 2.004.829c.494.495.83 1.245.83 2.004s-.336 1.509-.83 2.004c-.495.494-1.245.83-2.004.83s-1.509-.336-2.004-.83c-.309-.31-.557-.72-.698-1.17zm-3.58-1.541c-.208.209-.293.395-.293.707s.085.498.293.707c.209.208.395.293.707.293s.498-.085.707-.293c.208-.209.293-.395.293-.707s-.085-.498-.293-.707c-.209-.208-.395-.293-.707-.293s-.498.085-.707.293zm6.882-.118c-.217.218-.329.452-.341.769v.112c.012.317.124.551.341.769.23.229.479.342.825.342s.595-.113.825-.342c.229-.23.342-.479.342-.825s-.113-.595-.342-.825c-.23-.229-.479-.342-.825-.342s-.595.113-.825.342z"/></svg>