<svg clip-rule="evenodd" fill-rule="evenodd" stroke-linejoin="round" stroke-miterlimit="2" viewBox="0 0 48 48" xmlns="http://www.w3.org/2000/svg"><path fill="rgb(255, 255, 255)" d="m25.246 1.464 2.491 2.441 3.377-.869c.939-.241 1.898.313 2.158 1.247l.937 3.358 3.359.938c.934.26 1.488 1.219 1.247 2.158l-.869 3.377 2.441 2.491c.678.692.678 1.8 0 2.492l-2.441 2.491.869 3.377c.241.939-.313 1.898-1.247 2.158l-3.359.937-.937 3.359c-.26.934-1.219 1.488-2.158 1.246l-3.377-.868-2.491 2.44c-.692.679-1.8.679-2.492 0l-2.491-2.44-3.377.868c-.939.242-1.898-.312-2.158-1.246l-.937-3.359-3.359-.937c-.934-.26-1.488-1.219-1.247-2.158l.869-3.377-2.44-2.491c-.679-.692-.679-1.8 0-2.492l2.44-2.491-.869-3.377c-.241-.939.313-1.898 1.247-2.158l3.359-.938.937-3.358c.26-.934 1.219-1.488 2.158-1.247l3.377.869 2.491-2.441c.692-.678 1.8-.678 2.492 0zm-1.246 3.764-1.962 1.923c-.445.437-1.086.608-1.689.452l-2.66-.684-.738 2.645c-.168.602-.636 1.07-1.237 1.238l-2.646.737.684 2.661c.156.603-.015 1.244-.452 1.689l-1.923 1.962 1.923 1.962c.437.445.608 1.086.452 1.689l-.684 2.66 2.646.738c.601.168 1.069.636 1.237 1.237l.738 2.646 2.66-.684c.603-.156 1.244.015 1.689.452l1.962 1.923 1.962-1.923c.445-.437 1.086-.608 1.689-.452l2.66.684.738-2.646c.168-.601.636-1.069 1.237-1.237l2.646-.738-.684-2.66c-.156-.603.015-1.244.452-1.689l1.923-1.962-1.923-1.962c-.437-.445-.608-1.086-.452-1.689l.684-2.661-2.646-.737c-.601-.168-1.069-.636-1.237-1.238l-.738-2.645-2.66.684c-.603.156-1.244-.015-1.689-.452zm4.877 29.72c.462-.04.921.116 1.263.43.343.315.538.759.538 1.222v7.38c0 2.551-2.941 3.982-4.948 2.408l-1.73-1.296-1.73 1.296c-2.007 1.574-4.948.143-4.948-2.408v-7.38c0-.463.195-.907.538-1.222.341-.314.799-.47 1.263-.43l.091.007c.802.068 1.419.738 1.419 1.545v6.973l2.601-1.995c.452-.346 1.08-.346 1.532 0l2.601 1.995v-6.884c0-.855.657-1.569 1.51-1.641zm-3.03-17.702.029 4.479c0 .54-.193.993-.577 1.359-.386.367-.852.552-1.399.56-.533-.006-.981-.194-1.347-.561-.366-.366-.552-.818-.551-1.358l.001-4.508-2.052 2.052c-.381.381-.835.57-1.361.569-.527-.001-.978-.193-1.36-.574-.383-.383-.574-.834-.572-1.357.004-.522.195-.975.576-1.356l5.318-5.318c.381-.381.835-.571 1.359-.569.524 0 .977.188 1.358.569l5.319 5.32c.38.379.57.833.569 1.359s-.192.978-.575 1.361c-.382.382-.834.572-1.356.57-.523-.002-.975-.193-1.355-.573z"/></svg>