<svg height="48" viewBox="0 -960 960 960" width="48" xmlns="http://www.w3.org/2000/svg"><path fill="rgb(255, 255, 255)" d="m189-135c-26.033 0-48.21-9.16-66.53-27.48-18.313-18.313-27.47-40.487-27.47-66.52v-522c0-26.307 9.157-48.717 27.47-67.23 18.32-18.513 40.497-27.77 66.53-27.77h56v-19c0-11.167 4.13-20.793 12.39-28.88 8.267-8.08 17.867-12.12 28.8-12.12 11.22 0 20.827 4.04 28.82 12.12 7.993 8.087 11.99 17.713 11.99 28.88v19h226v-19c0-11.167 4.13-20.793 12.39-28.88 8.267-8.08 17.867-12.12 28.8-12.12 11.227 0 20.833 4.04 28.82 12.12 7.993 8.087 11.99 17.713 11.99 28.88v19h56c26.307 0 48.717 9.257 67.23 27.77s27.77 40.923 27.77 67.23v243c0 13.833-4.753 25.29-14.26 34.37-9.513 9.087-20.847 13.63-34 13.63-13.16 0-24.24-4.543-33.24-13.63-9-9.08-13.5-20.537-13.5-34.37v-62h-502v341h244c13.087 0 24.357 4.56 33.81 13.68 9.46 9.113 14.19 20.28 14.19 33.5 0 13.213-4.73 24.32-14.19 33.32-9.453 9-20.723 13.5-33.81 13.5zm0-495h502v-121h-502zm434.633 585.517c-12.144-.572-25.385-6.085-34.32-14.172-8.142-8.987-13.581-22.182-14.146-34.294v-214.321c.555-12.232 5.983-25.475 14.12-34.484 8.995-8.271 22.205-13.765 34.346-14.336h4.937s4.326-7.444 8.91-12.723c5.347-4.525 13.979-8.637 20.751-8.637 6.873 0 15.586 4.221 20.931 8.807 4.463 5.262 8.602 12.553 8.602 12.553h78.942s4.33-7.453 8.916-12.731c5.354-4.492 13.981-8.629 20.745-8.629 6.879 0 15.592 4.225 20.938 8.816 4.464 5.261 8.595 12.544 8.595 12.544h4.937c12.207.56 25.474 6.027 34.533 14.281 8.224 9.006 13.722 22.275 14.29 34.539v214.321c-.578 12.145-6.141 25.419-14.371 34.403-8.999 8.073-22.241 13.502-34.452 14.063zm15-63.466h177.204v-119.881h-177.204zm177.204-184.321h-177.204v28.08h177.204z"/></svg>