<svg clip-rule="evenodd" fill-rule="evenodd" stroke-linejoin="round" stroke-miterlimit="2" viewBox="0 0 48 48" xmlns="http://www.w3.org/2000/svg"><path fill="rgb(255, 255, 255)" d="m25.246 1.464 2.491 2.441 3.377-.869c.939-.241 1.898.313 2.158 1.247l.937 3.358 3.359.938c.934.26 1.488 1.219 1.247 2.158l-.869 3.377 2.441 2.491c.678.692.678 1.8 0 2.492l-2.441 2.491.869 3.377c.241.939-.313 1.898-1.247 2.158l-3.359.937-.937 3.359c-.26.934-1.219 1.488-2.158 1.246l-3.377-.868-2.491 2.44c-.692.679-1.8.679-2.492 0l-2.491-2.44-3.377.868c-.939.242-1.898-.312-2.158-1.246l-.937-3.359-3.359-.937c-.934-.26-1.488-1.219-1.247-2.158l.869-3.377-2.44-2.491c-.679-.692-.679-1.8 0-2.492l2.44-2.491-.869-3.377c-.241-.939.313-1.898 1.247-2.158l3.359-.938.937-3.358c.26-.934 1.219-1.488 2.158-1.247l3.377.869 2.491-2.441c.692-.678 1.8-.678 2.492 0zm3.631 33.484c.462-.04.921.116 1.263.43.343.315.538.759.538 1.222v7.38c0 2.551-2.941 3.982-4.948 2.408l-1.73-1.296-1.73 1.296c-2.007 1.574-4.948.143-4.948-2.408v-7.38c0-.463.195-.907.538-1.222.341-.314.799-.47 1.263-.43l.091.007c.802.068 1.419.738 1.419 1.545v6.973l2.601-1.995c.452-.346 1.08-.346 1.532 0l2.601 1.995v-6.884c0-.855.657-1.569 1.51-1.641zm-4.892-6.933c2.563 0 4.772-.817 6.628-2.453 1.778-1.565 2.873-3.487 3.286-5.765-.228.242-.497.437-.804.583-.346.164-.725.245-1.138.245h-2.3c-.75 0-1.392-.267-1.927-.804-.534-.537-.801-1.181-.801-1.934v-1.37h-5.459v-2.532c0-.773.269-1.423.805-1.95.537-.529 1.182-.792 1.935-.792h1.369v-.674c0-.437.153-.934.461-1.493.306-.559.664-.848 1.072-.869-.491-.134-.997-.249-1.519-.345-.523-.097-1.055-.145-1.597-.145-2.828 0-5.229.985-7.201 2.953-1.973 1.969-2.959 4.367-2.959 7.196 0 .081.004.158.015.23.011.071.015.148.015.23h3.189c1.513 0 2.801.531 3.864 1.594 1.062 1.063 1.594 2.345 1.594 3.847v1.365h-4.078v1.473c.818.428 1.695.771 2.632 1.026.937.256 1.909.384 2.918.384z"/></svg>