<svg height="48" viewBox="0 -960 960 960" width="48" xmlns="http://www.w3.org/2000/svg"><path fill="rgb(255, 255, 255)" d="m276-378v-204c0-10.6 5-18 15-22 9.999-4 18.659-2.4 25.999 5l85 85c9.939 9.74 14.938 21.06 14.999 33.96.001.13.002.27.002.4 0 13.09-5 24.31-15 33.64l-85 85c-7.333 7.33-16 8.99-26 4.96s-15-11.35-15-21.96zm-86 283c-26.807 0-49.343-9.03-67.61-27.1-17.051-16.87-26.141-37.43-27.27-61.68-.081-1.73-.121-3.46-.121-5.22v-582c0-26.8 9.12-49.4 27.381-67.6 18.279-18.4 40.819-27.4 67.619-27.4h582.001c25.974 0 47.889 8.62 65.741 26.24.388.38.775.76 1.159 1.15.971.98 1.915 1.98 2.834 2.98 11.755 12.85 19.242 27.76 22.455 44.7 1.124 5.92 1.725 12.09 1.802 18.5.006.48.009.95.009 1.43v582c0 26.53-9.033 48.83-27.1 66.9s-40.367 27.1-66.9 27.1zm0-676v582h355v-582zm582 582v-582h-132v582z"/></svg>