<svg height="48" viewBox="0 -960 960 960" width="48" xmlns="http://www.w3.org/2000/svg"><path fill="rgb(255, 255, 255)" d="m150.289-26.73c-21.493 0-40.182-7.945-56.065-23.835-15.891-15.884-23.836-34.572-23.836-56.065v-745.77c0-21.76 7.952-40.64 23.835-56.81 15.883-16.15 34.577-24.06 56.064-24.06h658.443c21.756 0 40.682 7.91 56.738 24.06 16.096 16.17 24.144 35.05 24.144 56.81v745.77c0 21.493-8.038 40.181-24.115 56.065-16.076 15.89-34.992 23.835-56.748 23.835zm0-750.55h658.441v-75.12h-658.443v75.12zm0 670.65h658.46v-427.42h-658.46zm562.193-178.09c0-6.31 2.407-11.9 7.22-16.77 4.814-4.86 10.39-7.3 16.731-7.3 6.989 0 12.765 2.44 17.328 7.3 4.57 4.87 6.854 10.46 6.854 16.77v84.71c0 12.68-4.37 23.38-13.111 32.12-8.748 8.76-19.458 13.13-32.134 13.13h-84.714c-6.308 0-11.898-2.25-16.769-6.74-4.865-4.5-7.297-10.07-7.297-16.73 0-6.68 2.432-12.45 7.297-17.33 4.871-4.89 10.461-7.34 16.769-7.34h81.826zm-465.927-66.43c0 6.31-2.407 11.9-7.22 16.77-4.813 4.86-10.39 7.3-16.731 7.3-6.989 0-12.765-2.44-17.328-7.3-4.57-4.87-6.854-10.46-6.854-16.77v-84.71c0-12.68 4.373-23.38 13.121-32.13 8.741-8.74 19.449-13.12 32.124-13.12h84.714c6.308 0 11.898 2.25 16.77 6.74 4.864 4.5 7.297 10.07 7.297 16.73 0 6.67-2.433 12.45-7.297 17.33-4.872 4.89-10.462 7.34-16.77 7.34h-81.826zm-96.266-345.26v81.5h658.441v-81.5zm371.578 273.59c1.413-1.49 2.899-2.73 4.411-3.97 6.94-5.2 14.994-8.18 24.338-8.18h1.016 1.957c10.409.25 19.407 3.96 27.139 11.41.321.24.62.74.941.99 8.303 8.17 12.517 18.34 12.665 30.23.124 11.9-3.866 21.8-11.995 29.98l-42.058 42.15 41.191 41.13c8.351 8.43 12.788 18.33 13.284 29.99.471 11.4-3.594 21.56-12.269 30.24h-.024c-8.426 8.42-18.663 12.64-30.757 12.64-11.4 0-21.139-3.72-29.218-11.16-.497-.25-.993-.75-1.489-1.24l-41.191-41.13-41.164 41.13c-8.129 8.18-18.092 12.14-29.939 11.9-11.772 0-21.859-4.22-30.261-12.64-.074 0-.172 0-.273-.25-8.055-7.93-12.143-17.84-12.218-29.73-.074-10.18 2.974-18.84 8.947-26.03 1.018-1.25 2.107-2.49 3.271-3.72l41.191-41.13-41.363-41.4c-8.229-8.18-12.491-18.33-12.789-30.49-.123-11.63 3.967-22.06 12.641-30.72 8.648-8.68 18.983-12.64 30.582-12.4 11.747.5 21.709 4.96 29.939 12.9.074.24.172.24.272.24l41.164 41.38z"/></svg>