<svg height="48" viewBox="0 -960 960 960" width="48" xmlns="http://www.w3.org/2000/svg"><path fill="rgb(255, 255, 255)" d="m188.5-238.5v-256c0-11.17 4.06-20.79 12.18-28.88 8.113-8.08 18.113-12.12 30-12.12 11.88 0 21.653 4.04 29.32 12.12 7.667 8.09 11.5 17.71 11.5 28.88v257c0 11.83-3.893 21.62-11.68 29.37-7.78 7.75-17.613 11.63-29.5 11.63-11.88 0-21.82-4.04-29.82-12.13-8-8.08-12-18.04-12-29.87zm254 1v-257c0-11.17 4.06-20.79 12.18-28.88 8.113-8.08 17.78-12.12 29-12.12 11.213 0 20.82 4.04 28.82 12.12 8 8.09 12 17.71 12 28.88v257c0 11.17-4.06 20.79-12.18 28.87-8.113 8.09-17.78 12.13-29 12.13-11.213 0-20.82-4.04-28.82-12.13-8-8.08-12-17.7-12-28.87zm-341 172c-13.167 0-24.29-4.56-33.37-13.68-9.087-9.113-13.63-20.28-13.63-33.5 0-13.21 4.543-24.32 13.63-33.32 9.08-9 20.203-13.5 33.37-13.5h434.041c13.166 0 24.46 4.56 33.88 13.68 9.413 9.11 14.12 20.28 14.12 33.5 0 13.21-4.707 24.32-14.12 33.32-9.42 9-20.714 13.5-33.88 13.5zm586-375.19v-53.81c0-11.17 4.06-20.79 12.18-28.88 8.113-8.08 18.113-12.12 30-12.12 11.88 0 21.653 4.04 29.32 12.12 7.667 8.09 11.5 17.71 11.5 28.88v54.81c0 11.84-3.893 21.63-11.68 29.37-7.78 7.76-17.613 11.63-29.5 11.63-11.88 0-21.82-4.04-29.82-12.13-8-8.08-12-18.03-12-29.87zm171-131.81h-763c-11.72 0-21.483-4.07-29.29-12.21s-11.71-17.74-11.71-28.79v-29c0-7.33 1.833-14.33 5.5-21s8.833-12 15.5-16l359-204c13.447-7.33 28.447-11 45-11s31.553 3.67 45 11l356 202c7.333 4.67 13.333 10.67 18 18s7 15.5 7 24.5v18.23c0 13.73-4.49 25.2-13.47 34.43-8.987 9.23-20.163 13.84-33.53 13.84zm-606-95h454l-227-132zm403.96 498.86c-11.647 0-21.684-4.03-30.111-12.58-8.427-8.29-12.654-18.36-12.654-30.43 0-11.83 4.227-22.15 12.654-30.7s18.464-12.82 30.111-12.82h60.373v-59.11c0-12.08 4-22.4 11.949-31.2 7.975-8.55 18.162-12.83 30.589-12.83 12.075 0 22.464 4.28 31.193 12.83 8.704 8.8 13.056 19.12 13.056 31.2v59.11h59.115c11.672 0 21.709 4.03 30.136 12.82 8.427 8.55 12.629 18.87 12.629 30.95 0 11.57-4.202 21.63-12.629 30.18s-18.464 12.58-30.136 12.58h-59.115v59.12c0 12.07-4.176 22.39-12.578 31.19-8.377 8.55-18.791 12.83-31.218 12.83s-22.69-4.28-30.816-12.83c-8.1-8.8-12.175-19.12-12.175-31.19v-59.12z"/></svg>