<svg height="48" viewBox="0 -960 960 960" width="48" xmlns="http://www.w3.org/2000/svg"><path fill="rgb(255, 255, 255)" d="m141-189c-13.4 0-24.417-4.56-33.05-13.68-8.633-9.113-12.95-20.33-12.95-33.65 0-13.327 4.317-24.437 12.95-33.33s19.65-13.34 33.05-13.34h185c13.32 0 24.483 4.56 33.49 13.68 9.007 9.113 13.51 20.527 13.51 34.24s-4.503 24.823-13.51 33.33c-9.007 8.5-20.17 12.75-33.49 12.75zm558.57-135.33v-92.46c0-11.06 3.87-20.41 11.43-28.04 7.74-7.63 17.15-11.47 28.25-11.47 11.09 0 20.34 3.84 27.9 11.47s11.44 16.98 11.44 28.04v92.46l21.85-21.01c7.73-7.28 16.64-10.93 26.39-10.93 9.92 0 19 4.2 27.4 12.61 7.73 7.85 11.77 17.1 11.77 27.74 0 10.66-4.04 19.9-11.77 27.74l-86.58 86.57c-4.53 4.49-9.07 7.72-13.61 9.67-4.7 1.96-9.59 2.94-14.96 2.94-5.38 0-10.43-.98-14.97-2.94-4.7-1.95-9.24-5.18-13.61-9.67l-86.58-86.57c-7.9-7.84-11.6-17.24-11.43-28.16.33-10.93 4.87-20.87 13.95-29.84 7.23-7.28 15.64-10.78 25.21-10.51 9.43.29 18.17 3.78 26.06 10.51zm-558.57-352.67c-13.4 0-24.417-4.56-33.05-13.68-8.633-9.113-12.95-20.36-12.95-33.74s4.543-24.323 13.63-32.83c9.08-8.5 20.203-12.75 33.37-12.75h677c13.313 0 24.477 4.56 33.49 13.68 9.007 9.113 13.51 20.36 13.51 33.74s-4.73 24.323-14.19 32.83c-9.453 8.5-20.723 12.75-33.81 12.75zm0 244c-13.4 0-24.417-4.56-33.05-13.68-8.633-9.113-12.95-20.33-12.95-33.65 0-13.327 4.317-24.437 12.95-33.33s19.65-13.34 33.05-13.34h415.616c13.314 0 24.477 4.753 33.49 14.26 9.007 9.513 13.51 20.93 13.51 34.25s-4.503 24.233-13.51 32.74c-9.013 8.5-20.176 12.75-33.49 12.75z"/></svg>