<svg height="48" viewBox="0 -960 960 960" width="48" xmlns="http://www.w3.org/2000/svg"><path fill="rgb(255, 255, 255)" d="m189-95c-26.533 0-48.833-9.033-66.9-27.1s-27.1-40.367-27.1-66.9v-582c0-26.807 9.033-49.343 27.1-67.61 18.067-18.26 40.367-27.39 66.9-27.39h582c26.807 0 49.343 9.13 67.61 27.39 18.26 18.267 27.39 40.803 27.39 67.61v132.383c7.06 3.559 13.647 8.368 19.76 14.426 14.827 14.687 22.24 32.01 22.24 51.97v185.593c0 20.007-7.413 37.133-22.24 51.38-6.113 5.877-12.7 10.541-19.76 13.994v132.254c0 26.533-9.13 48.833-27.39 66.9-18.267 18.067-40.803 27.1-67.61 27.1zm582-676h-582v582h582v-124.878h-231c-20.9 0-38.79-7.007-53.67-21.02-14.887-14.007-22.33-31.417-22.33-52.23v-185.093c0-19.96 7.443-37.283 22.33-51.97 14.88-14.687 32.77-22.03 53.67-22.03h231zm77 397.122v-212.343h-324v212.343zm-291.542 92.088h66.974c17.253 0 31.239 13.986 31.24 31.239 0 17.253-13.987 31.24-31.24 31.24h-11.38v.001h-225.459c-43.351 0-80.244-15.18-110.706-45.65-30.477-30.48-45.701-67.26-45.701-110.62 0-18.79 3.034-36.79 9.103-53.84 6.067-17.04 14.888-32.75 26.475-46.98l100.69-119.49-46.989-95.32c-5.369-10.21-4.874-20.4 1.505-30.47 6.376-10.08 15.277-15.18 26.689-15.18h258.086c17.427 0 31.554 14.127 31.554 31.554s-14.127 31.554-31.554 31.554h-56.327v.002h-151.414l25.509 51.01.952 56.106-109.645 131.174c-7.195 8.61-12.701 17.85-16.501 28.06-3.811 10.21-5.705 20.68-5.705 31.69 0 25.65 9.251 47.8 27.75 66.33 18.514 18.38 40.585 27.64 66.229 27.64h168.083c.589-.033 1.184-.05 1.782-.05zm156.12-260.363c.825-.731 1.673-1.424 2.684-2.281 4.184-3.254 9.399-5.153 14.995-5.142.265-.047.529-.094.637.014.512-.11.862-.057 1.22-.011 6.474.28 12.136 2.52 16.829 7.213.171.171.341.341.676.379 5.041 5.338 7.776 11.495 7.72 18.864.154 7.282-2.422 13.7-7.363 18.672l-26.084 25.96 25.515 25.515c5.19 5.19 7.948 11.356 8.289 18.514.356 7.172-2.251 13.56-7.674 18.983l-.016-.015c-5.112 5.112-11.461 7.743-18.93 7.714-7.096.031-13.123-2.277-18.09-6.946-.294-.295-.619-.62-.914-.915l-25.515-25.515-25.718 25.718c-4.948 4.979-11.142 7.455-18.532 7.503-7.283-.155-13.511-2.664-18.716-7.869-.109-.109-.14-.14-.156-.156-5.034-5.034-7.513-11.232-7.527-18.685-.14-6.024 1.844-11.478 5.425-15.959.693-.847 1.409-1.687 2.031-2.31l25.718-25.717-25.639-25.639c-5.082-5.082-7.847-11.24-8.063-18.584-.014-7.453 2.531-13.903 7.947-19.319 5.33-5.206 11.578-7.642 18.891-7.457 7.187.372 13.463 2.928 18.544 8.009.016.016.124.124.155.155l25.5 25.5z"/></svg>