<svg height="48" viewBox="0 -960 960 960" width="48" xmlns="http://www.w3.org/2000/svg"><path fill="rgb(255, 255, 255)" d="m149-95c-26.033 0-48.21-9.157-66.53-27.47-18.313-18.32-27.47-40.497-27.47-66.53v-450c0-26.307 9.157-48.717 27.47-67.23 18.32-18.513 40.497-27.77 66.53-27.77h148v-100c0-25.333 9.16-47.333 27.48-66 18.313-18.667 40.487-28 66.52-28h178c26.033 0 48.21 9.333 66.53 28 18.313 18.667 27.47 40.667 27.47 66v100h148c26.307 0 48.717 9.257 67.23 27.77s27.77 40.923 27.77 67.23v450c0 26.033-9.257 48.21-27.77 66.53-18.513 18.313-40.923 27.47-67.23 27.47zm0-94h662v-450h-662zm242-545h178v-100h-178zm21.385 491.4c-28.541 0-52.83-10.09-72.885-30.04-20.064-20.07-30.086-44.38-30.086-72.94 0-12.35 1.997-24.22 5.991-35.44 3.996-11.23 9.803-21.47 17.43-30.84l66.291-78.66-30.936-62.76c-3.535-6.8-3.208-13.52.991-20.14 4.198-6.66 10.058-9.91 17.571-9.91h186.055c7.513 0 13.364 3.25 17.563 9.91 4.197 6.62 4.534 13.34.997 20.14l-30.935 62.76 65.407 78.66c7.955 9.37 13.991 19.71 18.118 30.94 4.12 11.22 6.329 22.99 6.629 35.34 0 28.56-10.083 52.87-30.235 72.94-20.162 19.95-44.548 30.04-73.177 30.04z"/></svg>