<svg height="48" viewBox="0 -960 960 960" width="48" xmlns="http://www.w3.org/2000/svg"><path fill="rgb(255, 255, 255)" d="m429.832-645c-9.33-9.33-14-20.33-14-33s4.67-23.67 14-33 20.33-14 33-14 23.67 4.67 33 14l198 197c4.67 4.67 8.33 10 11 16s4 12 4 18-1.33 12-4 18-6.33 11.33-11 16l-198 197c-9.33 9.33-20.33 14-33 14s-23.67-4.67-33-14c-8.67-9.33-13.17-20.33-13.5-33s4.17-23.67 13.5-33l166-165zm-174.676 316.56c-7.032-6.87-10.548-15.81-10.548-26.85 0-9.98 3.474-18.52 10.402-25.17 6.949-6.86 15.563-10.4 25.862-10.4 10.319 0 18.995 3.32 26.007 9.98 7.032 6.44 10.548 15.19 10.548 26.01 0 10.81-3.453 19.56-10.402 26.43-6.928 6.87-15.542 10.4-25.862 10.4-10.298 0-18.975-3.53-26.007-10.4zm90.468-288.8c18.154 16.48 27.818 37.53 27.818 62.08 0 14.3-4.218 28.08-12.098 40.27-7.766 11.85-17.036 22.7-27.368 31.83-5.68 4.87-10.71 10.16-15.397 16.81-4.567 6.11-6.515 12.22-6.515 19.49 0 8.1-3.488 15.45-9.23 20.53-5.817 4.73-13.511 7.6-21.817 7.6-8.44 0-16.407-3.81-22.275-10.12-5.541-6.59-8.773-14.36-8.773-22.38 0-5.96.373-11.81 1.068-17.94.788-6.4 2.713-12.47 5.595-17.97 3.719-7.89 9.153-14.74 15.848-20.25 6.389-5.2 12.697-10.32 18.623-15.29 5.339-3.97 10.166-8.81 14.848-14.87 4.566-5.69 6.437-11.12 6.437-17.93 0-8.51-2.654-14.65-9.281-19.78-6.56-5.49-13.579-7.84-22.276-7.84-4.986 0-9.342 1.14-14.076 3.67-4.903 2.75-8.635 5.58-11.809 9.43-5.231 6.38-11.695 11.15-18.449 14.1-7.142 2.63-14.998 2.37-21.931-.5-8.014-3.75-14.142-10.03-17.365-17.77-2.897-7.8-2.081-16.43 2.347-24.31l.093-.17.149-.2c9.615-12.79 21.807-23.35 35.848-31.29 14.168-7.66 29.754-11.93 45.837-11.93 24.043 0 45.871 8.56 64.149 24.73z"/></svg>