<svg clip-rule="evenodd" fill-rule="evenodd" stroke-linejoin="round" stroke-miterlimit="2" viewBox="0 0 250 250" xmlns="http://www.w3.org/2000/svg"><path fill="rgb(255, 255, 255)" d="m36.791 24.525h176.419c19.007 0 34.331 15.306 34.331 34.314v132.323c0 19.007-15.324 34.314-34.331 34.314h-176.419c-19.008 0-34.332-15.307-34.332-34.314v-132.323c0-19.008 15.324-34.314 34.332-34.314zm185.888 70.626c-.018-5.56-4.535-10.059-10.095-10.059h-175.168c-5.559.017-10.077 4.499-10.094 10.077l-.313 95.993c0 5.42 4.361 9.764 9.782 9.764h176.419c5.42 0 9.781-4.344 9.781-9.764zm-80.42 81.551c1.876 1.877 2.815 4.136 2.815 6.759 0 2.624-.939 4.882-2.815 6.759-1.894 1.893-4.1 2.866-6.672 2.936-2.554.069-4.778-.851-6.654-2.728l-39.978-39.978c-.939-.938-1.686-2.016-2.224-3.232-.539-1.216-.799-2.415-.799-3.631s.26-2.415.799-3.631c.538-1.216 1.285-2.294 2.224-3.232l39.769-39.77c1.894-1.893 4.136-2.832 6.776-2.832 2.624 0 4.865.939 6.759 2.832 1.876 1.877 2.849 4.101 2.919 6.655.069 2.554-.834 4.778-2.728 6.672l-33.306 33.306z"/></svg>