<svg clip-rule="evenodd" fill-rule="evenodd" stroke-linejoin="round" stroke-miterlimit="2" viewBox="0 0 250 250" xmlns="http://www.w3.org/2000/svg"><path fill="rgb(255, 255, 255)" d="m2.923 2.217h10.154c1.094 0 1.976.881 1.976 1.975v7.616c0 1.094-.882 1.975-1.976 1.975h-10.154c-1.094 0-1.976-.881-1.976-1.975v-7.616c0-1.094.882-1.975 1.976-1.975zm10.699 4.065c-.001-.32-.261-.579-.581-.579h-10.082c-.32.001-.58.259-.581.58l-.018 5.525c0 .312.251.562.563.562h10.154c.312 0 .563-.25.563-.562z" transform="matrix(17.3743 0 0 17.3743 -13.9941 -13.9941)"/></svg>