<svg height="48" viewBox="0 -960 960 960" width="48" xmlns="http://www.w3.org/2000/svg"><path fill="rgb(255, 255, 255)" d="m221.25-124.06c-25.734-.52-50.286-10.66-68.786-28.41-17.748-18.5-27.891-43.04-28.412-68.78v-102.98c.514-14.28 6.586-29.03 16.191-39.37 10.354-9.55 25.121-16.09 39.447-16.09 14.331 0 29.081 6.57 39.352 16.15 9.479 10.34 15.465 25.05 15.967 39.31v89.22h89.208c14.297.51 29.046 6.58 39.377 16.19 9.559 10.35 16.102 25.13 16.102 39.44 0 14.34-6.582 29.09-16.167 39.36-10.327 9.48-25.044 15.46-39.312 15.96zm516.612 0h-102.967c-14.297-.51-29.042-6.58-39.367-16.19-9.565-10.34-16.111-25.12-16.111-39.44 0-14.34 6.582-29.09 16.174-39.35 10.322-9.49 25.036-15.46 39.304-15.97h89.209v-89.22c.514-14.28 6.585-29.03 16.191-39.37 10.347-9.55 25.088-16.09 39.367-16.09 14.245 0 29.037 6.45 39.586 15.95 9.892 10.34 16.158 25.16 16.7 39.51v102.98c-.531 25.75-10.791 50.34-28.734 68.84-18.668 17.73-43.399 27.84-69.352 28.35zm-613.81-510.83v-102.98c.512-25.95 10.63-50.68 28.363-69.35 18.502-17.94 43.077-28.2 68.835-28.73h102.967c14.391.56 29.247 6.91 39.583 16.92 9.469 10.64 15.896 25.44 15.896 39.67 0 14.29-6.584 29.02-16.167 39.28-10.327 9.48-25.044 15.47-39.312 15.97h-89.208v89.22c-.514 14.29-6.586 29.03-16.191 39.36-10.354 9.56-25.121 16.12-39.447 16.12-14.333 0-29.078-6.59-39.351-16.19-9.478-10.31-15.465-25.03-15.968-39.29zm600.052 0v-89.22h-89.209c-14.297-.52-29.042-6.59-39.367-16.18-9.563-10.35-16.111-25.09-16.111-39.37 0-14.25 6.465-29.04 15.967-39.59 10.329-9.89 25.147-16.15 39.511-16.7h102.967c25.978.53 51.107 10.38 69.406 28.68 18.299 18.29 28.159 43.42 28.68 69.4v102.98c-.553 14.39-6.9 29.24-16.914 39.56-10.636 9.47-25.449 15.92-39.683 15.92-14.291 0-29.012-6.59-39.279-16.19-9.479-10.31-15.466-25.03-15.968-39.29z" stroke-width="31"/></svg>