<svg viewBox="0 0 32 32" xmlns="http://www.w3.org/2000/svg"><path fill="rgb(255, 255, 255)" d="m12.5 7.196v4.804c0 .276-.224.5-.5.5h-2c-.276 0-.5-.224-.5-.5v-1c0-.276.224-.5.5-.5h.5v-.994l-.505-.006c-.251-.003-.458-.19-.491-.433-.012.011-.024.023-.036.034-.063.06-.125.12-.186.181-.195.195-.381.397-.558.606-.627.738-1.139 1.56-1.514 2.453-.403.962-.646 2.006-.699 3.115-.003.051-.005.103-.006.154-.005.129-.006.259-.005.39.005 1.326.274 2.57.813 3.773l1.107 1.936c.282.383.588.739.915 1.069.055.052.112.105.168.156.014-.125.074-.24.17-.323.11-.095.256-.138.399-.117l.428.063v-1.057h-.5c-.276 0-.5-.224-.5-.5v-1c0-.276.224-.5.5-.5h2c.276 0 .5.224.5.5v4.804c1.119.461 2.172.692 3.5.696.611.004 1.209-.048 1.791-.154 1.91-.352 3.585-1.287 4.927-2.628.073-.073.145-.147.215-.222.227-.248.443-.511.647-.787l1.107-1.936c.539-1.203.809-2.445.813-3.773 0-2.659-1.036-4.971-2.782-6.718-1.747-1.746-4.059-2.782-6.718-2.782-1.326.005-2.381.235-3.5.696zm1.613 4.257c0-.531.177-.987.528-1.368.351-.382.802-.574 1.349-.574.533 0 .991.192 1.375.574.385.381.578.837.578 1.368v2.608h2.607c.515 0 .958.188 1.33.566.371.379.556.833.556 1.366 0 .516-.185.962-.556 1.336-.372.373-.815.562-1.33.562h-2.607v2.606c0 .531-.185.987-.556 1.368-.37.384-.83.575-1.377.575-.549 0-1.001-.191-1.36-.575-.358-.381-.537-.837-.537-1.368v-2.606h-2.663c-.515 0-.958-.185-1.33-.557-.371-.37-.556-.817-.556-1.344s.185-.979.556-1.359c.372-.381.815-.57 1.33-.57h2.663zm14.387 4.549c-.024 2.741-.871 5.18-2.382 7.288l3.797 3.796c.349.38.585.941.585 1.414s-.237 1.034-.586 1.415c-.38.349-.941.585-1.414.585s-1.034-.236-1.415-.585l-3.795-3.797c-2.108 1.511-4.549 2.358-7.29 2.382-3.416-.022-6.604-1.427-8.839-3.661-2.234-2.235-3.661-5.423-3.661-8.839s1.427-6.604 3.661-8.839c2.235-2.234 5.423-3.661 8.839-3.661s6.604 1.427 8.839 3.661c2.234 2.235 3.639 5.425 3.661 8.841z"/></svg>