<svg viewBox="0 0 22 22" xmlns="http://www.w3.org/2000/svg"><path fill="rgb(255, 255, 255)" d="m8.068 3v10.687c.516.196.918.423 1.322.918.405.495.661 1.214.678 1.895-.022.793-.363 1.606-.879 2.121-.515.516-1.328.879-2.121.879s-1.606-.363-2.121-.879c-.516-.515-.857-1.329-.879-2.121.016-.682.272-1.402.676-1.897.405-.496.805-.726 1.324-.921v-10.682c0-.276.224-.5.5-.5h1c.276 0 .5.224.5.5zm-1.707 12.793c-.209.208-.293.395-.293.707s.084.499.293.707c.208.209.395.293.707.293s.499-.084.707-.293c.209-.208.293-.395.293-.707s-.084-.499-.293-.707c-.208-.209-.395-.293-.707-.293s-.499.084-.707.293zm5.386-4.494c-.013.251-.126.529-.29.713-.187.168-.471.295-.729.295-.251 0-.53-.127-.716-.293-.165-.184-.281-.464-.294-.715v-5.877c.013-.249.117-.538.293-.713.176-.177.465-.281.715-.294h5.876c.258.012.541.126.727.29.167.185.295.464.295.715s-.117.54-.294.716c-.175.176-.469.281-.728.294h-3.437l4.454 4.455c.176.192.313.471.313.716 0 .243-.135.52-.309.711-.185.178-.459.317-.706.317-.239 0-.516-.126-.708-.291l-4.462-4.474z"/></svg>