<svg viewBox="0 0 32 32" xmlns="http://www.w3.org/2000/svg"><path fill="rgb(255, 255, 255)" d="m28.5 16.002c-.024 2.741-.871 5.18-2.382 7.288l3.797 3.796c.349.38.585.941.585 1.414s-.237 1.034-.586 1.415c-.38.349-.941.585-1.414.585s-1.034-.236-1.415-.585l-3.795-3.797c-2.108 1.511-4.549 2.358-7.29 2.382-3.416-.022-6.604-1.427-8.839-3.661-2.234-2.235-3.661-5.423-3.661-8.839s1.427-6.604 3.661-8.839c2.235-2.234 5.423-3.661 8.839-3.661s6.604 1.427 8.839 3.661c2.234 2.235 3.639 5.425 3.661 8.841zm-19.218-6.72c-1.746 1.747-2.804 4.059-2.782 6.718.005 1.326.274 2.57.813 3.773l1.107 1.936c1.797 2.435 4.541 3.814 7.58 3.791 3.039.022 5.783-1.356 7.58-3.791l1.107-1.936c.539-1.203.809-2.445.813-3.773.022-2.659-1.036-4.971-2.782-6.718-1.747-1.746-4.059-2.782-6.718-2.782s-4.971 1.036-6.718 2.782zm2.168 8.609c-.515 0-.958-.185-1.33-.557-.371-.37-.556-.817-.556-1.344s.185-.979.556-1.359c.372-.381.815-.57 1.33-.57h2.663v-2.608c0-.531.177-.987.528-1.368.351-.382.802-.574 1.349-.574.533 0 .991.192 1.375.574.385.381.578.837.578 1.368v2.608h2.607c.515 0 .958.188 1.33.566.371.379.556.833.556 1.366 0 .516-.185.962-.556 1.336-.372.373-.815.562-1.33.562h-2.607v2.606c0 .531-.185.987-.556 1.368-.37.384-.83.575-1.377.575-.549 0-1.001-.191-1.36-.575-.358-.381-.537-.837-.537-1.368v-2.606z" stroke-linecap="round"/></svg>