<svg viewBox="0 0 32 32" xmlns="http://www.w3.org/2000/svg"><path fill="rgb(255, 255, 255)" d="m28.5 16.002c-.024 2.741-.871 5.18-2.382 7.288l3.796 3.796c.35.38.586.941.586 1.414s-.236 1.034-.586 1.414c-.38.35-.941.586-1.414.586s-1.034-.236-1.414-.586l-3.796-3.796c-2.108 1.511-4.549 2.358-7.29 2.382-3.416-.022-6.604-1.427-8.839-3.661-2.234-2.235-3.661-5.423-3.661-8.839s1.427-6.604 3.661-8.839c2.235-2.234 5.423-3.661 8.839-3.661s6.604 1.427 8.839 3.661c2.234 2.235 3.639 5.425 3.661 8.841zm-19.218-6.72c-1.746 1.747-2.782 4.059-2.782 6.718s1.036 4.971 2.782 6.718c1.747 1.746 4.059 2.782 6.718 2.782s4.971-1.036 6.718-2.782c1.746-1.747 2.782-4.059 2.782-6.718s-1.036-4.971-2.782-6.718c-1.747-1.746-4.059-2.782-6.718-2.782s-4.971 1.036-6.718 2.782zm12.216 1.605v3.076c-.022.208-.126.493-.259.625-.132.133-.417.237-.625.259h-1.538c-.208-.022-.492-.126-.625-.258-.133-.133-.238-.417-.26-.626v-.654h-4.382v.654c-.022.209-.127.493-.26.626-.133.132-.417.236-.625.258h-1.538c-.208-.022-.493-.126-.625-.259-.133-.132-.237-.417-.259-.625v-3.076c.022-.208.126-.492.258-.625.133-.133.417-.238.626-.26h9.228c.209.022.493.127.626.26.132.133.236.417.258.625zm-7.689 7.152v.653h4.382v-.653c.022-.209.127-.494.26-.626.133-.133.417-.237.625-.259h1.538c.208.022.493.127.625.259.133.133.237.418.259.626v3.076c-.022.208-.126.493-.259.625-.132.133-.417.237-.625.259h-9.228c-.208-.022-.493-.126-.625-.259-.133-.132-.237-.417-.259-.625v-3.076c.022-.208.126-.493.259-.626.132-.132.417-.237.625-.259h1.538c.208.022.492.126.625.259.133.132.238.417.26.626z" stroke-linecap="round"/></svg>