<svg viewBox="0 0 32 32" xmlns="http://www.w3.org/2000/svg"><path fill="rgb(255, 255, 255)" d="m28.5 16.002c-.024 2.741-.871 5.18-2.382 7.288l3.796 3.796c.35.38.586.941.586 1.414s-.236 1.034-.586 1.414c-.38.35-.941.586-1.414.586s-1.034-.236-1.414-.586l-3.796-3.796c-2.108 1.511-4.549 2.358-7.29 2.382-3.416-.022-6.604-1.427-8.839-3.661-2.234-2.235-3.661-5.423-3.661-8.839s1.427-6.604 3.661-8.839c2.235-2.234 5.423-3.661 8.839-3.661s6.604 1.427 8.839 3.661c2.234 2.235 3.639 5.425 3.661 8.841zm-19.218-6.72c-1.746 1.747-2.782 4.059-2.782 6.718s1.036 4.971 2.782 6.718c1.747 1.746 4.059 2.782 6.718 2.782s4.971-1.036 6.718-2.782c1.746-1.747 2.782-4.059 2.782-6.718s-1.036-4.971-2.782-6.718c-1.747-1.746-4.059-2.782-6.718-2.782s-4.971 1.036-6.718 2.782zm12.289 11.371c-.251.215-.627.383-.955.383-.132 0-.302-.035-.427-.076-.111-.041-.248-.109-.352-.177l-5.28-3.649c-.186-.128-.368-.322-.461-.513-.087-.177-.144-.424-.144-.621 0-.198.063-.44.143-.62.103-.187.292-.395.477-.523l5.261-3.636c.102-.067.241-.138.354-.18.128-.042.3-.076.429-.076.328 0 .704.168.955.381.232.25.397.64.416.989v7.331c-.019.349-.183.738-.416.987zm-9.606.76c-.249.223-.631.4-.971.4-.339 0-.722-.175-.973-.398-.224-.25-.382-.633-.401-.972v-8.885c.018-.338.174-.72.393-.969.248-.222.633-.402.974-.402.34 0 .722.176.971.396.224.251.384.636.403.975v8.885c-.019.338-.175.72-.396.97z" stroke-linecap="round"/></svg>