<svg viewBox="0 0 32 32" xmlns="http://www.w3.org/2000/svg"><path fill="rgb(255, 255, 255)" d="m28.5 16.002c-.024 2.741-.871 5.18-2.382 7.288l3.797 3.796c.349.38.585.941.585 1.414s-.237 1.034-.586 1.415c-.38.349-.941.585-1.414.585s-1.034-.236-1.415-.585l-3.795-3.797c-2.108 1.511-4.549 2.358-7.29 2.382-3.416-.022-6.604-1.427-8.839-3.661-2.234-2.235-3.661-5.423-3.661-8.839s1.427-6.604 3.661-8.839c2.235-2.234 5.423-3.661 8.839-3.661s6.604 1.427 8.839 3.661c2.234 2.235 3.639 5.425 3.661 8.841zm-19.218-6.72c-1.746 1.747-2.782 4.059-2.782 6.718s1.036 4.971 2.782 6.718c1.747 1.746 4.059 2.782 6.718 2.782s4.971-1.036 6.718-2.782c1.746-1.747 2.782-4.059 2.782-6.718s-1.036-4.971-2.782-6.718c-1.747-1.746-4.059-2.782-6.718-2.782s-4.971 1.036-6.718 2.782z" stroke-linecap="round"/></svg>