<svg viewBox="0 0 32 32" xmlns="http://www.w3.org/2000/svg"><path fill="rgb(255, 255, 255)" d="m28.5 16.002c-.024 2.741-.871 5.18-2.382 7.288l3.796 3.796c.35.38.586.941.586 1.414s-.236 1.034-.586 1.414c-.38.35-.941.586-1.414.586s-1.034-.236-1.414-.586l-3.796-3.796c-2.108 1.511-4.549 2.358-7.29 2.382-3.416-.022-6.604-1.427-8.839-3.661-2.234-2.235-3.661-5.423-3.661-8.839s1.427-6.604 3.661-8.839c2.235-2.234 5.423-3.661 8.839-3.661s6.604 1.427 8.839 3.661c2.234 2.235 3.639 5.425 3.661 8.841zm-19.218-6.72c-1.746 1.747-2.782 4.059-2.782 6.718s1.036 4.971 2.782 6.718c1.747 1.746 4.059 2.782 6.718 2.782s4.971-1.036 6.718-2.782c1.746-1.747 2.782-4.059 2.782-6.718s-1.036-4.971-2.782-6.718c-1.747-1.746-4.059-2.782-6.718-2.782s-4.971 1.036-6.718 2.782zm9.964 11.161v-8.885c.019-.339.179-.724.403-.975.249-.22.631-.396.971-.396.341 0 .726.18.974.402.219.249.375.631.393.969v8.885c-.019.339-.177.722-.401.972-.251.223-.634.398-.973.398-.34 0-.722-.177-.971-.4-.221-.25-.377-.632-.396-.97zm-9.626-.777v-7.331c.019-.349.184-.739.416-.989.251-.213.627-.381.955-.381.129 0 .301.034.429.076.113.042.252.113.354.18l5.261 3.636c.185.128.374.336.477.523.08.18.143.422.143.62 0 .197-.057.444-.144.621-.093.191-.275.385-.461.513l-5.28 3.649c-.104.068-.241.136-.352.177-.125.041-.295.076-.427.076-.328 0-.704-.168-.955-.383-.233-.249-.397-.638-.416-.987zm2.74-2.62 1.51-1.046-1.51-1.045z" stroke-linecap="round"/></svg>