<svg height="48" width="48" xmlns="http://www.w3.org/2000/svg"><path fill="rgb(255, 255, 255)" d="m15.774 11.772c-.09.001-.19.009-.306.016-.439.028-8.723 1.58-9.251 1.732-.558.162-1.033.503-1.15.827-.198.551.376 2.341 1.134 3.542 3.023 3.591 6.379 4.503 9.668 6.437.377.443.527.656-2.369 1.938-4.526 2.003-5.991 3.709-6.858 6.23-.255.745-.374 2.715-.193 3.212.233.642.374.771 4.747-.059 4.393-.833 4.03-.881 4.396-1.228.298-.283.315-.351.446-1.689.075-.767.23-2.263.344-2.659.264-.921.927-1.882 1.649-2.391 2.74-1.928 7.897-.967 10.688 1.992 1.051 1.116 1.711 2.707 2.238 4.436.305.998.614 1.431 1.093 1.527.441.087.452-.051 6.04-1.113 3.109-.59 4.404-.877 4.587-1.019.392-.306.394-1.055.002-2.293-.672-2.126-1.837-3.54-3.997-5.175-1.068-.81-2.416-1.575-4.7-2.668-2.171-1.04-3.206-1.322-3.206-1.645 0-.267.853-.386 2.576-.901 3.775-1.131 5.594-2.715 5.594-5.65 0-1.288-.243-2.327-.621-2.664-.503-.449-1.386-.463-3.496-.08-6.765 1.223-6.299 1.175-6.614 1.685-.166.269-.16.332.147 1.556.176.701.317 1.58.316 1.783-.003.433-.567 1.157-.841 1.415-.674.631-2.201 1.06-3.765 1.06-1.891 0-3.316-.65-4.731-2.157-1.023-1.09-1.545-2.144-2.243-4.084-.611-1.703-.695-1.925-1.324-1.914z"/></svg>