<svg height="48" viewBox="0 -960 960 960" width="48" xmlns="http://www.w3.org/2000/svg"><path fill="rgb(255, 255, 255)" d="m229-55c-26.033 0-48.207-9.157-66.52-27.47-18.32-18.32-27.48-40.497-27.48-66.53v-662c0-26.307 9.16-48.717 27.48-67.23 18.313-18.513 40.487-27.77 66.52-27.77h323c13.04 0 25.467 2.667 37.28 8s22.053 12.333 30.72 21l177 177c8.667 8.667 15.667 18.907 21 30.72s8 24.24 8 37.28v483c0 26.033-9.257 48.21-27.77 66.53-18.513 18.313-40.923 27.47-67.23 27.47zm502-594h-94c-19.333 0-36-7-50-21s-21-30.667-21-50v-91h-337v662h502zm-436.551-56.741c-6.613-6.533-9.92-15.207-9.92-26.02 0-10.82 3.45-19.553 10.35-26.2 6.9-6.653 15.45-9.98 25.65-9.98h154.471c10.767 0 19.46 3.267 26.08 9.8 6.613 6.533 9.92 15.207 9.92 26.02 0 10.82-3.45 19.553-10.35 26.2-6.9 6.653-15.45 9.98-25.65 9.98h-154.471c-10.767 0-19.46-3.267-26.08-9.8zm236.252 511.311c-12.43 0-24.654-3.46-34.736-9.45-9.751-6.05-15.585-11.67-22.237-19.69-3.439 2.12-5.029 3.12-10.172 5.84-4.943 2.6-9.51 4.98-14.775 7.75-6.284 3.67-14.23 5.05-21.014 3.74-6.642-1.89-13.019-6.73-16.805-12.87-3.218-6.23-4.319-14.13-2.932-20.89 1.948-6.69 6.803-13.25 12.936-17.33l.259-.17.453-.21c5.25-2.49 10.361-5.35 15.584-8.44 5.284-3.13 7.026-4.2 10.396-6.27-2.359-8.04-3.922-14.46-5.521-24.97-1.583-10.51-2.405-21.7-2.405-33.03 0-44.8 9.749-83.76 28.392-115.02 19.356-31.32 45.596-48.87 75.577-48.87 20.768 0 38.998 9.15 51.762 24.64 12.086 15.8 18.778 36.84 18.778 60.79 0 26.87-9.402 54.74-27.008 81.43-17.608 26.33-39.245 48.54-67.72 71.01 3.277 4.54 1.547 1.84 5.25 3.97 3.392 2.2 6.285 2.84 10.58 2.84 8.064 0 14.965-2.27 22.857-8.08 8.155-5.72 15.348-14.25 22.736-26.74 3.205-5.08 8.746-9.51 14.056-11.58 5.375-1.4 12.427-1.03 18.196 1.15 5.646 2.81 10.869 7.82 13.921 13.26 2.649 5.43 4.03 12.5 3.799 18.43-.129 1.08-.225 2.19-.292 3.33 3.596-3.64 8.24-6.5 13.362-8.08 5.703-1.34 12.664-1.04 18.328.67 5.65 2.42 10.853 7.51 13.407 13.07 1.936 6.04 1.301 13.28-1.769 18.68-8.083 12.92-17.093 23.29-26.121 30.14-9.385 6.85-20.23 10.95-30.302 10.95-9.268 0-18.452-3.48-25.113-9.03-6.268-5.9-6.392-7.41-8.59-12.09-6.822 5.69-10.868 8.9-20.864 13.74-10.134 4.7-21.419 7.38-32.253 7.38zm-34.3-115.33c18.644-15.41 31.459-28.4 44.213-47.07 12.715-18.34 18.437-34.82 18.437-51.72 0-10.19-1.479-17.41-5.24-23.53-3.005-5.83-5.277-7-9.99-7-12.448 0-22.243 8.43-32.687 30.13-11.014 21.89-16.212 46.95-16.212 76.66 0 6.22.283 12.06.888 17.8.566 5.62-.889-.51.591 4.73z"/></svg>