<?xml version="1.0" encoding="utf-8"?>
<svg fill="none" height="800" viewBox="0 0 16 16" width="800" xmlns="http://www.w3.org/2000/svg">
  <path fill="rgb(255, 255, 255)" d="M 4.906 2.433 C 4.664 2.572 4.409 2.957 4.379 3.798 C 4.366 4.197 4.03 4.509 3.631 4.495 C 3.232 4.48 2.921 4.146 2.934 3.746 C 2.971 2.717 3.297 1.692 4.183 1.18 C 5.071 0.667 6.125 0.9 7.037 1.387 C 7.39 1.575 7.523 2.013 7.335 2.365 C 7.147 2.717 6.709 2.851 6.356 2.663 C 5.611 2.265 5.149 2.293 4.906 2.433 Z M 9.8 3.782 C 10.335 4.427 10.848 5.163 11.312 5.968 C 12.316 7.706 12.934 9.485 13.1 10.977 C 13.183 11.723 13.158 12.432 12.984 13.039 C 12.808 13.652 12.467 14.207 11.895 14.537 C 11.201 14.937 10.401 14.882 9.669 14.614 C 8.934 14.346 8.177 13.84 7.456 13.182 C 7.161 12.913 7.14 12.455 7.41 12.16 C 7.679 11.865 8.136 11.845 8.431 12.114 C 9.066 12.694 9.664 13.074 10.163 13.255 C 10.666 13.438 10.983 13.395 11.172 13.285 C 11.33 13.194 11.49 13.008 11.594 12.642 C 11.7 12.272 11.734 11.765 11.663 11.138 C 11.523 9.887 10.987 8.297 10.06 6.691 C 9.634 5.953 9.167 5.285 8.686 4.705 C 8.432 4.397 8.474 3.941 8.782 3.687 C 9.089 3.432 9.545 3.475 9.8 3.782 Z M 14.324 8.056 C 14.324 7.777 14.117 7.363 13.404 6.918 C 13.066 6.706 12.963 6.261 13.175 5.922 C 13.387 5.583 13.832 5.481 14.171 5.692 C 15.045 6.238 15.77 7.033 15.77 8.056 C 15.77 9.082 15.041 9.878 14.163 10.425 C 13.824 10.636 13.378 10.533 13.167 10.194 C 12.956 9.854 13.06 9.409 13.398 9.198 C 14.116 8.751 14.324 8.336 14.324 8.056 Z M 11.184 10.786 C 11.251 11.18 10.985 11.554 10.592 11.62 C 9.766 11.76 8.872 11.836 7.942 11.836 C 5.937 11.836 4.086 11.482 2.711 10.881 C 2.023 10.58 1.423 10.203 0.983 9.749 C 0.54 9.29 0.23 8.718 0.23 8.056 C 0.23 7.255 0.679 6.591 1.276 6.09 C 1.876 5.588 2.693 5.186 3.623 4.891 C 4.004 4.769 4.411 4.98 4.532 5.361 C 4.652 5.741 4.442 6.148 4.061 6.268 C 3.241 6.529 2.613 6.856 2.206 7.198 C 1.796 7.542 1.676 7.838 1.676 8.056 C 1.676 8.239 1.758 8.47 2.022 8.744 C 2.29 9.02 2.713 9.303 3.29 9.555 C 4.444 10.061 6.087 10.39 7.942 10.39 C 8.795 10.39 9.607 10.321 10.35 10.195 C 10.744 10.128 11.117 10.393 11.184 10.786 Z M 4.927 13.568 C 5.169 13.707 5.63 13.735 6.372 13.341 C 6.725 13.154 7.162 13.288 7.349 13.64 C 7.537 13.993 7.403 14.43 7.05 14.618 C 6.14 15.101 5.09 15.332 4.204 14.82 C 3.315 14.307 2.99 13.278 2.955 12.245 C 2.942 11.846 3.254 11.511 3.653 11.498 C 4.052 11.484 4.387 11.797 4.4 12.196 C 4.428 13.04 4.684 13.428 4.927 13.568 Z M 4.075 9.301 C 3.7 9.162 3.509 8.746 3.649 8.372 C 3.94 7.586 4.32 6.774 4.785 5.968 C 5.789 4.231 7.021 2.807 8.229 1.916 C 8.833 1.471 9.459 1.139 10.074 0.986 C 10.691 0.831 11.343 0.85 11.916 1.18 C 12.609 1.58 12.96 2.301 13.095 3.07 C 13.231 3.84 13.17 4.748 12.961 5.701 C 12.875 6.092 12.489 6.339 12.099 6.253 C 11.709 6.167 11.463 5.781 11.548 5.392 C 11.733 4.551 11.763 3.844 11.671 3.32 C 11.578 2.793 11.382 2.541 11.193 2.433 C 11.035 2.341 10.793 2.296 10.424 2.388 C 10.05 2.482 9.594 2.706 9.087 3.08 C 8.073 3.826 6.965 5.085 6.038 6.691 C 5.611 7.43 5.266 8.168 5.004 8.875 C 4.865 9.249 4.449 9.44 4.075 9.301 Z M 9.349 7.921 C 9.349 8.645 8.763 9.233 8.039 9.233 C 7.315 9.233 6.728 8.645 6.728 7.921 C 6.728 7.198 7.315 6.611 8.039 6.611 C 8.763 6.611 9.349 7.198 9.349 7.921 Z" fill="#000"/>
</svg>