<svg height="128" width="128" xmlns="http://www.w3.org/2000/svg"><path fill="rgb(255, 255, 255)" d="m64.059 19.89c12.583.09 24.21 5.293 32.365 13.527 8.153 8.231 13.322 19.928 13.737 32.408l.358 4.672v16.695c-.078 2.418-1.082 4.995-2.587 6.651-1.505 1.657-2.892 2.309-4.702 2.858-.728 5.166-2.207 9.61-4.712 13.345-2.514 3.749-6.328 6.321-10.159 6.741-.146.034-.299.052-.455.052h-6.233c-1.105 0-2-.895-2-2v-11.387l-1.838-6.721-5.862 16.958c-.288.833-1.086 1.379-1.967 1.346-.88-.034-1.634-.64-1.858-1.492l-4.14-15.804-4.06 15.731c-.222.857-.979 1.466-1.864 1.499-.884.032-1.684-.52-1.968-1.359l-5.826-17.243-1.959 6.633v11.839c0 1.105-.895 2-2 2h-6.233c-.156 0-.309-.018-.455-.052-3.831-.42-7.645-2.992-10.159-6.741-2.505-3.735-3.99-8.18-4.713-13.352-2.351-.318-3.196-1.194-4.701-2.851-1.505-1.656-2.509-4.233-2.587-6.651l.006-16.819.352-4.548c.415-12.48 5.584-24.177 13.737-32.408 8.155-8.234 19.782-13.437 32.365-13.527zm24.48 45.537c4.031.516 8.011 3.457 10.548 7.654.64 1.06 1.226 2.23 1.749 3.488v-5.904l-.355-4.529c-.189-10.293-4.236-19.198-10.867-25.907-6.627-6.704-15.336-10.655-25.555-10.655-.02 0-.039 0-.059 0s-.039 0-.059 0c-10.219 0-18.928 3.951-25.555 10.655-6.631 6.709-10.683 15.72-10.872 26.013l-.35 4.423v5.904c.523-1.258 1.109-2.428 1.749-3.488 2.537-4.197 6.517-7.138 10.548-7.654.099-.001.18 0 .243 0 .127-.025.258-.038.392-.038h6.233c1.105 0 2 .895 2 2v8.587c.365-.377.872-.604 1.421-.609.861-.007 1.63.538 1.908 1.353l5.605 16.387 4.923-24.422c.191-.944 1.026-1.618 1.989-1.605.962.013 1.779.711 1.943 1.659l4.173 24.122 5.528-15.934c.274-.788 1.008-1.324 1.843-1.343.834-.02 1.593.48 1.903 1.255l.106.263v-9.713c0-1.105.895-2 2-2h6.233c.134 0 .265.013.392.038.063 0 .144-.001.243 0z" stroke-linecap="round" stroke-linejoin="round" stroke-width="4"/></svg>