<?xml version="1.0" encoding="utf-8"?>
<svg clip-rule="evenodd" fill-rule="evenodd" stroke-linejoin="round" stroke-miterlimit="2" viewBox="0 0 48 48" xmlns="http://www.w3.org/2000/svg">
  <path fill="rgb(255, 255, 255)" d="M 22.475 43.3 C 20.192 43.233 17.733 42.9 15.1 42.3 C 12.467 41.7 10.083 40.758 7.95 39.475 C 5.817 38.192 4.75 36.367 4.75 34 L 4.75 14 C 4.75 11.433 6.625 9.242 10.375 7.425 C 14.125 5.608 18.667 4.7 24 4.7 C 29.3 4.7 33.842 5.608 37.625 7.425 C 41.408 9.242 43.3 11.433 43.3 14 L 43.3 26.05 C 42.633 25.683 41.933 25.358 41.2 25.075 C 40.467 24.792 39.717 24.617 38.95 24.55 L 38.95 18.4 C 36.85 19.5 34.525 20.342 31.975 20.925 C 29.425 21.508 26.75 21.8 23.95 21.8 C 21.217 21.8 18.533 21.5 15.9 20.9 C 13.267 20.3 11 19.467 9.1 18.4 L 9.1 25.2 C 10.967 25.9 13.125 26.575 15.575 27.225 C 18.025 27.875 20.817 28.2 23.95 28.2 C 24.65 28.2 25.358 28.183 26.075 28.15 C 26.792 28.117 27.5 28.067 28.2 28 C 27.567 28.667 27.033 29.375 26.6 30.125 C 26.167 30.875 25.817 31.683 25.55 32.55 L 24.3 32.55 C 20.833 32.583 17.908 32.283 15.525 31.65 C 13.142 31.017 11 30.133 9.1 29 L 9.1 34.2 C 9.267 34.767 9.883 35.333 10.95 35.9 C 12.017 36.467 13.3 36.975 14.8 37.425 C 16.3 37.875 17.933 38.242 19.7 38.525 C 21.467 38.808 23.15 38.933 24.75 38.9 C 24.85 39.7 25.042 40.467 25.325 41.2 C 25.608 41.933 25.95 42.617 26.35 43.25 C 26.083 43.35 24.8 43.367 22.5 43.3 C 20.2 43.233 17.733 42.9 15.1 42.3 C 12.467 41.7 10.083 40.758 7.95 39.475 C 5.817 38.192 4.75 36.367 4.75 34 Z M 32.7 16.275 C 35.667 15.425 37.633 14.433 38.6 13.3 C 37.6 12.233 35.6 11.258 32.6 10.375 C 29.6 9.492 26.733 9.05 24 9.05 C 21.133 9.05 18.225 9.483 15.275 10.35 C 12.325 11.217 10.367 12.2 9.4 13.3 C 10.367 14.533 12.3 15.55 15.2 16.35 C 18.1 17.15 21.033 17.55 24 17.55 C 26.833 17.55 29.733 17.125 32.7 16.275 Z M 33.343 45.311 C 32.203 44.824 31.207 44.152 30.353 43.297 C 29.498 42.443 28.826 41.447 28.339 40.309 C 27.85 39.168 27.604 37.942 27.604 36.628 C 27.604 35.314 27.85 34.086 28.339 32.945 C 28.827 31.803 29.498 30.809 30.351 29.961 C 31.202 29.114 32.195 28.443 33.333 27.949 C 34.475 27.454 35.705 27.204 37.02 27.204 C 38.336 27.204 39.566 27.453 40.711 27.947 C 41.852 28.44 42.845 29.11 43.692 29.956 C 44.538 30.801 45.208 31.795 45.702 32.938 C 46.197 34.083 46.446 35.314 46.446 36.63 C 46.446 37.945 46.196 39.174 45.701 40.316 C 45.206 41.454 44.535 42.446 43.689 43.295 C 42.841 44.145 41.847 44.816 40.706 45.307 C 39.564 45.799 38.336 46.046 37.023 46.046 C 35.71 46.046 34.483 45.8 33.343 45.311 Z M 42.355 39.165 L 40.814 39.165 C 40.124 39.165 39.533 38.919 39.041 38.426 C 38.55 37.933 38.305 37.341 38.305 36.649 L 38.305 36.413 L 35.331 36.413 C 34.955 36.413 34.65 36.107 34.65 35.732 L 34.65 34.035 C 34.65 33.325 34.898 32.729 35.391 32.244 C 35.884 31.76 36.475 31.517 37.165 31.517 L 37.415 31.517 C 37.449 31.228 37.546 30.908 37.719 30.564 C 37.489 30.533 37.257 30.518 37.022 30.518 C 35.317 30.518 33.869 31.11 32.679 32.296 C 31.578 33.396 30.988 34.718 30.907 36.263 L 32.372 36.263 C 33.575 36.263 34.598 36.685 35.442 37.53 C 36.288 38.375 36.71 39.394 36.71 40.589 L 36.71 41.503 C 36.71 41.88 36.405 42.184 36.029 42.184 L 34.251 42.184 C 34.568 42.315 34.898 42.427 35.239 42.52 C 35.809 42.676 36.401 42.753 37.015 42.753 C 38.557 42.753 39.888 42.264 41.005 41.28 C 41.705 40.663 42.23 39.956 42.578 39.156 C 42.506 39.162 42.431 39.165 42.355 39.165 Z" fill-rule="nonzero"/>
</svg>