<svg fill="none" height="800" viewBox="0 0 16 16" width="800" xmlns="http://www.w3.org/2000/svg"><path fill="rgb(255, 255, 255)" d="m0 1.75c0-.966499.783502-1.75 1.75-1.75h12.5c.9665 0 1.75.783502 1.75 1.75v12.5c0 .9665-.7835 1.75-1.75 1.75h-12.5c-.966499 0-1.75-.7835-1.75-1.75zm1.75-.25c-.13807 0-.25.11193-.25.25v12.5c0 .1381.11193.25.25.25h12.5c.1381 0 .25-.1119.25-.25v-12.5c0-.13807-.1119-.25-.25-.25zm2.5 2.5c0-.41421.33579-.75.75-.75h3.6c1.5188 0 2.75 1.23122 2.75 2.75 0 1.31438-.9221 2.41339-2.15473 2.6854l2.01913 2.8845c.2376.3393.155.807-.1843 1.0445-.3393.2376-.807.155-1.04452-.1843l-2.57607-3.6801h-1.65951v3.25c0 .4142-.33579.75-.75.75s-.75-.3358-.75-.75zm1.5 3.25h2.85c.69036 0 1.25-.55964 1.25-1.25s-.55964-1.25-1.25-1.25h-2.85z" fill="#000"/></svg>