<svg height="22" width="22" xmlns="http://www.w3.org/2000/svg"><path fill="rgb(255, 255, 255)" d="m7.3 8.611v.7h3.4v-.7c0-.166.134-.3.3-.3h1c.166 0 .3.134.3.3v3c0 .166-.134.3-.3.3h-1c-.166 0-.3-.134-.3-.3v-.7h-3.4v.7c0 .166-.134.3-.3.3h-1c-.166 0-.3-.134-.3-.3v-3c0-.166.134-.3.3-.3h1c.166 0 .3.134.3.3zm4 4.801v.7h3.4v-.7c0-.166.134-.3.3-.3h1c.166 0 .3.134.3.3v3c0 .166-.134.3-.3.3h-1c-.166 0-.3-.134-.3-.3v-.7h-3.4v.7c0 .166-.134.3-.3.3h-1c-.166 0-.3-.134-.3-.3v-3c0-.166.134-.3.3-.3h1c.166 0 .3.134.3.3zm-5.3-8.412h3v-1h-3zm7 0h3v-1h-3zm-4-2.3s.324.002.634.157c.293.146.507.407.618.843h1.496c.112-.434.325-.697.618-.843.31-.155.634-.157.634-.157h3s.324.002.634.157c.293.146.507.407.618.843h1.748c.166 0 .3.134.3.3v15c0 .166-.134.3-.3.3h-16c-.166 0-.3-.134-.3-.3v-15c0-.166.134-.3.3-.3h1.748c.112-.434.325-.697.618-.843.31-.155.634-.157.634-.157zm-4.7 15h13.4v-10.4h-13.4z" stroke-linecap="round" stroke-linejoin="round" stroke-width=".6"/></svg>