<svg clip-rule="evenodd" fill-rule="evenodd" stroke-linejoin="round" stroke-miterlimit="2" viewBox="0 0 48 48" xmlns="http://www.w3.org/2000/svg"><path fill="rgb(255, 255, 255)" d="m12.51 13.214c.046-.8.438-1.506 1.03-2.006.621-.516 1.405-.796 2.212-.79.85 0 1.631.3 2.211.79.592.5.983 1.206 1.028 2.005.045.823-.285 1.586-.865 2.153-.639.61-1.491.947-2.374.938-.884.009-1.737-.328-2.376-.938-.58-.567-.91-1.33-.865-2.152m-5.161 1.617c.006.314.106.922.256 1.398.324 1.024.868 1.965 1.593 2.757.778.855 1.728 1.537 2.787 2.001 1.153.508 2.4.767 3.66.76 1.26.002 2.506-.261 3.657-.772 1.059-.468 2.007-1.153 2.785-2.01.724-.795 1.267-1.737 1.592-2.762.312-.993.397-2.044.25-3.074-.14-.987-.487-1.934-1.016-2.779-.49-.786-1.118-1.478-1.852-2.043h.002l-7.498-5.757-.02-.015c-.492-.378-1.319-.376-1.86.002-.547.382-.609 1.015-.123 1.415l-.001.001 3.126 2.543-9.53.01h-.013c-.788.001-1.545.518-1.695 1.172-.154.665.38 1.217 1.2 1.22v.002l4.83-.01-8.62 6.617-.034.025c-.813.622-1.075 1.658-.563 2.313.52.667 1.625.668 2.447.004l4.704-3.849s-.069.52-.063.831zm12.09 1.741c-.97.988-2.326 1.548-3.795 1.55-1.47.004-2.827-.552-3.797-1.538-.458-.46-.811-1.013-1.036-1.622-.416-1.158-.313-2.442.282-3.519.293-.527.684-.992 1.153-1.371.942-.768 2.141-1.183 3.396-1.185 1.256-.002 2.455.41 3.398 1.175.48.391.87.854 1.152 1.367.292.526.47 1.107.522 1.706.053.614-.029 1.232-.239 1.811-.225.61-.578 1.164-1.035 1.626" fill-rule="nonzero" transform="matrix(1.73766 0 0 1.73766 3.14759 3.14834)"/></svg>