<svg clip-rule="evenodd" fill-rule="evenodd" stroke-linejoin="round" stroke-miterlimit="2" viewBox="0 0 250 250" xmlns="http://www.w3.org/2000/svg"><path fill="rgb(255, 255, 255)" d="m83.163 138.706h27.607c7.524 0 13.608 6.117 13.608 13.64v19.822c2.78 3.532 4.35 7.916 4.35 12.495v21.098c0 7.524-6.116 13.608-13.639 13.608h-70.687c-3.631 0-7.098-1.406-9.65-3.958-2.551-2.584-3.99-6.019-3.99-9.65v-57.733c0-3.631 1.439-7.098 3.99-9.649 2.552-2.551 6.019-3.99 9.65-3.99h26.267c4.546 0 8.93 1.537 12.494 4.317zm0-103.756h27.607c7.524 0 13.608 6.084 13.608 13.607v19.822c2.78 3.533 4.35 7.949 4.35 12.528v21.098c0 7.524-6.116 13.608-13.639 13.608h-70.687c-3.631 0-7.098-1.439-9.65-3.99-2.551-2.553-3.99-6.019-3.99-9.618v-57.766c0-3.598 1.439-7.065 3.99-9.616 2.552-2.551 6.019-3.992 9.65-3.992h26.267c4.546 0 8.93 1.506 12.494 4.319zm28.033 42.752h-.032l-37.748-29.995-.065-.033c-.753-.622-1.702-.982-2.682-.982h-21.917c-.49 0-.981.196-1.341.557-.359.36-.588.85-.588 1.374v48.998c0 .492.229.982.588 1.341.36.361.851.59 1.341.59h61.953c.524 0 1.014-.229 1.374-.59.36-.359.557-.849.557-1.341v-16.714c0-1.243-.525-2.388-1.44-3.205zm0 0c1.178.98.621.523 0 0zm49.719 141.667c-3.304 0-6.117-1.145-8.439-3.468-2.323-2.322-3.467-5.135-3.467-8.439v-61.037c0-3.337 1.144-6.149 3.467-8.505 2.322-2.355 5.135-3.531 8.439-3.531h29.8c1.667 0 3.27.359 4.774 1.045 1.473.655 2.716 1.539 3.795 2.584l16.322 16.323c1.08 1.079 1.931 2.355 2.584 3.794.688 1.539 1.047 3.108 1.047 4.776v44.551c0 3.304-1.178 6.117-3.533 8.439-2.354 2.323-5.168 3.468-8.504 3.468zm3.272-69.672v54.495h39.775v-37.356h-9.847c-2.125 0-3.925-.751-5.396-2.225-1.439-1.471-2.192-3.237-2.192-5.364v-9.55zm-3.272-34.084c-3.304 0-6.117-1.178-8.439-3.5-2.323-2.323-3.467-5.136-3.467-8.44v-61.036c0-3.305 1.144-6.15 3.467-8.473 2.322-2.355 5.135-3.533 8.439-3.533h29.8c1.667 0 3.27.328 4.774 1.015 1.473.654 2.716 1.537 3.795 2.616l16.322 16.323c1.08 1.047 1.931 2.322 2.584 3.794.688 1.504 1.047 3.108 1.047 4.776v44.518c0 3.304-1.178 6.15-3.533 8.472-2.354 2.29-5.168 3.468-8.504 3.468z"/></svg>