<svg height="48" viewBox="0 -960 960 960" width="48" xmlns="http://www.w3.org/2000/svg"><path fill="rgb(255, 255, 255)" d="m541-694.72c13.167 0 24.293 4.5 33.38 13.5 9.08 9 13.62 20.11 13.62 33.32 0 13.22-4.54 24.39-13.62 33.5-9.087 9.12-20.213 13.68-33.38 13.68h-352v262h582v-80c0-11.26 4.833-19.75 14.5-25.45s20.413-8.55 32.24-8.55c13.153 0 24.487 4.55 34 13.63 9.507 9.08 14.26 20.21 14.26 33.37v114c0 13.09-4.73 24.36-14.19 33.81-9.453 9.46-20.723 14.19-33.81 14.19h-676c-13.167 0-24.29-4.73-33.37-14.19-9.087-9.45-13.63-20.72-13.63-33.81v-356c0-13.16 4.543-24.29 13.63-33.37 9.08-9.08 20.203-13.63 33.37-13.63zm242.261-1.26h-83c-9.54 0-17.6-3.32-24.16-9.97s-9.84-14.82-9.84-24.5 3.28-17.69 9.84-24.03c6.56-6.33 14.62-9.5 24.16-9.5h151c13.09 0 24.36 4.55 33.81 13.63 9.46 9.08 14.19 20.21 14.19 33.37v152c0 9.17-3.32 17.13-9.97 23.88s-14.82 10.12-24.5 10.12-17.69-3.37-24.03-10.12c-6.33-6.75-9.5-14.71-9.5-23.88v-84l-126.81 125.81c-6.66 6.8-14.35 10.19-23.09 10.19-8.73 0-16.6-3.35-23.6-10.05s-10.33-14.54-10-23.5c.34-8.96 3.84-16.78 10.5-23.45z"/></svg>