<svg height="48" viewBox="0 -960 960 960" width="48" xmlns="http://www.w3.org/2000/svg"><path fill="rgb(255, 255, 255)" d="m95-189v-582c0-26.807 9.033-49.343 27.1-67.61 18.067-18.26 40.367-27.39 66.9-27.39h582c26.807 0 49.343 9.13 67.61 27.39 18.26 18.267 27.39 40.803 27.39 67.61v582c0 26.533-9.13 48.833-27.39 66.9-18.267 18.067-40.803 27.1-67.61 27.1h-582c-26.533 0-48.833-9.033-66.9-27.1s-27.1-40.367-27.1-66.9zm94-444h582v-138h-582zm214 60v384h368v-384zm-214 162h154v-162h-154zm0 222h154v-162h-154zm494.907-213.93-4.406 16.3c-18.081 62.5-68.883 115.8-131.892 138.36-8.077 2.68-16.957-.12-21.982-6.93-5.071-6.91-5.025-16.25 0-23.08 12.115-16.14 20.054-32.66 25.217-52.04 2.983-11.11 3.19-13.61 4.039-20.52-15.191-8.56-26.503-16.75-36.668-34.35-10.211-17.67-14.364-43.18-8.673-64.45 5.92-22.03 23.221-42.64 41.83-52.85 18.517-10.05 45.203-13.83 67.85-7.78 22.602 6.06 43.873 22.67 54.864 40.66 11.014 18.13 14.8 44.4 9.821 66.68z"/></svg>