<?xml version="1.0" encoding="utf-8"?>
<svg fill="none" height="800" viewBox="0 0 16 16" width="800" xmlns="http://www.w3.org/2000/svg">
  <path fill="rgb(255, 255, 255)" d="M 4.5 8 C 4.5 9.381 5.619 10.5 7 10.5 C 7.712 10.5 8.354 10.204 8.81 9.725 C 9.096 9.425 9.571 9.414 9.87 9.7 C 10.17 9.986 10.182 10.46 9.896 10.76 C 9.168 11.523 8.139 12 7 12 C 4.791 12 3 10.209 3 8 C 3 5.791 4.791 4 7 4 C 8.134 4 9.16 4.473 9.887 5.231 C 10.173 5.53 10.164 6.004 9.865 6.291 C 9.566 6.578 9.091 6.568 8.804 6.269 C 8.348 5.794 7.709 5.5 7 5.5 C 5.619 5.5 4.5 6.619 4.5 8 Z M 14 6 C 14.276 6 14.5 6.224 14.5 6.5 L 14.5 7.5 L 15.5 7.5 C 15.776 7.5 16 7.724 16 8 C 16 8.276 15.776 8.5 15.5 8.5 L 14.5 8.5 L 14.5 9.5 C 14.5 9.776 14.276 10 14 10 C 13.724 10 13.5 9.776 13.5 9.5 L 13.5 8.5 L 12 8.5 L 12 9.5 C 12 9.776 11.776 10 11.5 10 C 11.224 10 11 9.776 11 9.5 L 11 8.5 L 10 8.5 C 9.724 8.5 9.5 8.276 9.5 8 C 9.5 7.724 9.724 7.5 10 7.5 L 11 7.5 L 11 6.5 C 11 6.224 11.224 6 11.5 6 C 11.776 6 12 6.224 12 6.5 L 12 7.5 L 13.5 7.5 L 13.5 6.5 C 13.5 6.224 13.724 6 14 6 Z M 6.586 0.102 C 6.82 -0.034 7.109 -0.034 7.342 0.102 L 12.057 2.852 C 12.414 3.061 12.535 3.52 12.326 3.878 C 12.118 4.236 11.659 4.357 11.301 4.148 L 6.964 1.618 L 1.5 4.806 L 1.5 11.194 L 6.964 14.382 L 11.301 11.852 C 11.658 11.644 12.118 11.764 12.326 12.122 C 12.535 12.48 12.414 12.939 12.057 13.148 L 7.342 15.898 C 7.109 16.034 6.82 16.034 6.586 15.898 L 0.372 12.273 C 0.142 12.138 0 11.892 0 11.625 L 0 4.375 C 0 4.108 0.142 3.862 0.372 3.727 Z" fill="#000"/>
</svg>