<svg height="48" viewBox="0 -960 960 960" width="48" xmlns="http://www.w3.org/2000/svg"><path fill="rgb(255, 255, 255)" d="m482.5-351c-13.167 0-24.29-4.54-33.37-13.63-9.087-9.08-13.63-20.2-13.63-33.37v-334c0-13.09 4.543-24.36 13.63-33.81 9.08-9.46 20.203-14.19 33.37-14.19h335c13.167 0 24.293 4.73 33.38 14.19 9.08 9.45 13.62 20.72 13.62 33.81v334c0 13.17-4.54 24.29-13.62 33.37-9.087 9.09-20.213 13.63-33.38 13.63zm47-87h240v-255h-240zm-392 258c-11.747 0-21.85-4.25-30.31-12.76s-12.69-18.68-12.69-30.5c0-11.83 4.23-22.07 12.69-30.74s18.563-13 30.31-13h684c12.033 0 22.377 4.32 31.03 12.96 8.647 8.65 12.97 18.98 12.97 31 0 12.03-4.323 22.21-12.97 30.54-8.653 8.33-18.997 12.5-31.03 12.5zm0-171c-11.747 0-21.85-4.25-30.31-12.76s-12.69-18.68-12.69-30.5c0-11.83 4.23-22.07 12.69-30.74s18.563-13 30.31-13h194c12.5 0 22.96 4.32 31.38 12.96 8.413 8.65 12.62 18.98 12.62 31 0 12.03-4.207 22.21-12.62 30.54-8.42 8.33-18.88 12.5-31.38 12.5zm0-171c-11.747 0-21.85-4.25-30.31-12.76s-12.69-18.68-12.69-30.5c0-11.83 4.23-22.07 12.69-30.74s18.563-13 30.31-13h194c12.5 0 22.96 4.32 31.38 12.96 8.413 8.65 12.62 18.98 12.62 31 0 12.03-4.207 22.21-12.62 30.54-8.42 8.33-18.88 12.5-31.38 12.5zm0-171c-11.747 0-21.85-4.25-30.31-12.76s-12.69-18.68-12.69-30.5c0-11.83 4.23-22.07 12.69-30.74s18.563-13 30.31-13h194c12.5 0 22.96 4.32 31.38 12.96 8.413 8.65 12.62 18.98 12.62 31 0 12.03-4.207 22.21-12.62 30.54-8.42 8.33-18.88 12.5-31.38 12.5z"/></svg>