<svg clip-rule="evenodd" fill-rule="evenodd" stroke-linejoin="round" stroke-miterlimit="2" viewBox="0 0 250 250" xmlns="http://www.w3.org/2000/svg"><path fill="rgb(255, 255, 255)" d="m297.5-55c-14.333 0-26-4.5-35-13.5s-13.5-20.167-13.5-33.5v-692c0-13.253 4.5-24.567 13.5-33.94s20.5-14.06 34.5-14.06h70.006c8.833 0 15.994-7.161 15.994-15.993 0-.005 0-.007 0-.007 0-13.253 4.5-24.567 13.5-33.94s20.167-14.06 33.5-14.06h100c13.333 0 24.5 4.687 33.5 14.06s13.5 20.687 13.5 33.94v.007c0 8.832 7.161 15.993 15.994 15.993h71.006c13.333 0 24.5 4.687 33.5 14.06s13.5 20.687 13.5 33.94v692c0 13.333-4.5 24.5-13.5 33.5s-20.167 13.5-33.5 13.5zm291.688-94c7.111 0 13.931-2.825 18.959-7.853s7.853-11.848 7.853-18.959c0-99.246 0-445.13 0-544.376 0-7.111-2.825-13.931-7.853-18.959s-11.848-7.853-18.959-7.853c-52.067 0-166.309 0-218.376 0-7.111 0-13.931 2.825-18.959 7.853s-7.853 11.848-7.853 18.959v544.376c0 7.111 2.825 13.931 7.853 18.959s11.848 7.853 18.959 7.853zm-76.249-480.018h31.476c9.457 0 17.211 3.234 23.402 9.346l.008.007c6.292 6.222 9.529 13.908 9.529 23.133 0 8.907-3.034 16.624-9.104 23.148-6.297 6.768-14.216 10.245-23.835 10.245h-31.476v31.475c0 8.517-2.937 16.101-9.002 22.677l-.006.007c-6.306 6.827-14.127 10.256-23.477 10.256-9.035 0-16.89-3.225-23.507-9.816-6.719-6.693-9.886-14.456-9.886-23.124v-31.475h-31.476c-8.64 0-16.369-3.124-23.041-9.716l-.007-.007c-6.704-6.633-9.891-14.39-9.891-23.129 0-9.639 3.463-17.559 10.172-23.853 6.6-6.191 14.22-9.174 22.767-9.174h31.476v-31.475c0-9.59 3.431-17.477 10.072-23.756l.008-.007c6.541-6.175 14.154-9.176 22.771-9.176 9.509 0 17.298 3.266 23.506 9.448 6.239 6.213 9.521 14 9.521 23.491zm31.476 317.238c9.457 0 17.211 3.233 23.402 9.346l.008.007c6.292 6.222 9.529 13.908 9.529 23.133 0 8.907-3.034 16.623-9.104 23.148-6.297 6.768-14.216 10.245-23.835 10.245h-128.83c-8.64 0-16.369-3.124-23.041-9.716l-.007-.007c-6.704-6.633-9.891-14.39-9.891-23.129 0-9.639 3.463-17.559 10.172-23.853 6.6-6.191 14.22-9.174 22.767-9.174z" transform="matrix(.284614 0 0 .284614 -11.6149 261.757)"/></svg>