<svg clip-rule="evenodd" fill-rule="evenodd" stroke-linejoin="round" stroke-miterlimit="2" viewBox="0 0 250 250" xmlns="http://www.w3.org/2000/svg"><path fill="rgb(255, 255, 255)" d="m8.2 22c-1.365 0-2.041-.061-2.562-.327-.564-.288-1.023-.747-1.311-1.311-.266-.521-.327-1.197-.327-2.562v-11.6c0-1.365.061-2.041.327-2.562.288-.564.747-1.023 1.311-1.311.521-.266 1.197-.327 2.562-.327h7.6c1.365 0 2.041.061 2.562.327.564.288 1.023.747 1.311 1.311.266.521.327 1.197.327 2.562v11.6c0 1.365-.061 2.041-.327 2.562-.288.564-.747 1.023-1.311 1.311-.521.266-1.197.327-2.562.327zm0-2h7.6c.876 0 1.319.062 1.654-.109.188-.096.341-.249.437-.437.171-.335.109-.778.109-1.654v-11.6c0-.876.062-1.319-.109-1.654-.096-.188-.249-.341-.437-.437-.335-.171-.778-.109-1.654-.109h-7.6c-.876 0-1.319-.062-1.654.109-.188.096-.341.249-.437.437-.171.335-.109.778-.109 1.654v11.6c0 .876-.062 1.319.109 1.654.096.188.249.341.437.437.335.171.778.109 1.654.109zm-.852-10.363c0-.552.448-1 1-1s1 .448 1 1v4.726c0 .552-.448 1-1 1s-1-.448-1-1zm3.352.124c0-.302.105-.561.316-.78.21-.218.47-.327.78-.327h2.978c.301 0 .564.109.789.327.225.219.338.48.338.785v.38c0 .241.095.473.263.645l.201.204c.169.172.263.404.263.645v.731c0 .24-.093.471-.261.643l-.204.209c-.168.172-.262.403-.262.643v.371c0 .303-.113.563-.338.782-.225.218-.488.327-.789.327h-2.978c-.31 0-.57-.109-.78-.327-.211-.219-.316-.478-.316-.78zm1.291 2.241c0 .362.127.671.382.925.254.255.561.382.921.382.359 0 .666-.128.919-.384.252-.256.379-.565.379-.927s-.127-.668-.381-.916c-.253-.249-.559-.373-.918-.373s-.665.126-.92.379c-.254.252-.382.557-.382.914z" transform="matrix(0 -12.0655 12.0655 0 -19.786 269.786)"/></svg>