<svg clip-rule="evenodd" fill-rule="evenodd" stroke-linejoin="round" stroke-miterlimit="2" viewBox="0 0 250 250" xmlns="http://www.w3.org/2000/svg"><path fill="rgb(255, 255, 255)" d="m95-149v-954.56c0-26.31 9.157-48.72 27.47-67.23 18.32-18.52 40.497-27.77 66.53-27.77h582c26.307 0 48.717 9.25 67.23 27.77 18.513 18.51 27.77 40.92 27.77 67.23v954.56c0 26.033-9.257 48.21-27.77 66.53-18.513 18.313-40.923 27.47-67.23 27.47h-582c-26.033 0-48.21-9.157-66.53-27.47-18.313-18.32-27.47-40.497-27.47-66.53zm676-176.923c0-9.303-3.696-18.225-10.274-24.803s-15.5-10.274-24.803-10.274h-511.846c-9.303 0-18.225 3.696-24.803 10.274s-10.274 15.5-10.274 24.803v141.846c0 9.303 3.696 18.225 10.274 24.803s15.5 10.274 24.803 10.274h511.846c9.303 0 18.225-3.696 24.803-10.274s10.274-15.5 10.274-24.803zm-105.61 116.923c-12.4 0-23.233-4.667-32.5-14-9.26-9.333-13.89-20.037-13.89-32.11 0-13 4.667-23.9 14-32.7 9.333-8.793 20.037-13.19 32.11-13.19 13 0 23.9 4.5 32.7 13.5 8.793 9 13.19 19.703 13.19 32.11 0 12.4-4.5 23.233-13.5 32.5-9 9.26-19.703 13.89-32.11 13.89zm-152.5 0c-13 0-23.9-4.667-32.7-14-8.793-9.333-13.19-20.037-13.19-32.11 0-13 4.433-23.9 13.3-32.7 8.867-8.793 19.803-13.19 32.81-13.19 13 0 23.9 4.5 32.7 13.5 8.793 9 13.19 19.703 13.19 32.11 0 12.4-4.433 23.233-13.3 32.5-8.867 9.26-19.803 13.89-32.81 13.89zm223.033-541.635c9.303 0 18.225-3.696 24.803-10.274s10.274-15.5 10.274-24.803v-282.778c0-9.3-3.696-18.22-10.274-24.8s-15.5-10.27-24.803-10.27h-511.846c-9.303 0-18.225 3.69-24.803 10.27s-10.274 15.5-10.274 24.8v282.778c0 9.303 3.696 18.225 10.274 24.803s15.5 10.274 24.803 10.274zm-255.852-65.92c-31.234 0-57.557-10.507-78.972-31.52-21.419-21.013-32.129-47.106-32.129-78.279s10.717-57.727 32.15-79.666c21.437-21.93 47.898-32.9 79.38-32.9s57.943 10.97 79.38 32.9c21.433 21.939 32.15 48.378 32.15 79.32 0 30.803-10.853 56.862-32.558 78.175-21.706 21.313-48.173 31.97-79.401 31.97zm.429-72.045c10.797 0 19.847-3.65 27.148-10.952 7.302-7.306 10.952-16.355 10.952-27.148 0-10.336-3.65-19.27-10.952-26.802-7.301-7.532-16.351-11.298-27.148-11.298-10.793 0-19.842 3.766-27.148 11.298-7.302 7.532-10.952 16.466-10.952 26.802 0 10.793 3.65 19.842 10.952 27.148 7.306 7.302 16.355 10.952 27.148 10.952zm290.5 268.042c0-9.303-3.696-18.225-10.274-24.803-6.578-6.579-15.5-10.274-24.803-10.274h-511.846c-9.303 0-18.225 3.695-24.803 10.274-6.578 6.578-10.274 15.5-10.274 24.803v141.846c0 9.303 3.696 18.225 10.274 24.803s15.5 10.274 24.803 10.274h511.846c9.303 0 18.225-3.696 24.803-10.274s10.274-15.5 10.274-24.803zm-105.61 116.923c-12.4 0-23.233-4.667-32.5-14-9.26-9.333-13.89-20.037-13.89-32.11 0-13 4.667-23.9 14-32.7 9.333-8.793 20.037-13.19 32.11-13.19 13 0 23.9 4.5 32.7 13.5 8.793 9 13.19 19.703 13.19 32.11 0 12.4-4.5 23.233-13.5 32.5-9 9.26-19.703 13.89-32.11 13.89zm-152.5 0c-13 0-23.9-4.667-32.7-14-8.793-9.333-13.19-20.037-13.19-32.11 0-13 4.433-23.9 13.3-32.7 8.867-8.793 19.803-13.19 32.81-13.19 13 0 23.9 4.5 32.7 13.5 8.793 9 13.19 19.703 13.19 32.11 0 12.4-4.433 23.233-13.3 32.5-8.867 9.26-19.803 13.89-32.81 13.89z" transform="matrix(.208829 0 0 .208829 24.6579 255.89)"/></svg>