<svg clip-rule="evenodd" fill-rule="evenodd" stroke-linejoin="round" stroke-miterlimit="2" viewBox="0 0 250 250" xmlns="http://www.w3.org/2000/svg"><path fill="rgb(255, 255, 255)" d="m15.08 20.473c.03.022.06.046.088.071h.001c.35.307.503.781.398 1.235-.106.454-.453.812-.903.933l-9.135 2.448c-1.659.444-2.501.59-3.221.437-.78-.167-1.488-.575-2.022-1.167-.493-.547-.787-1.349-1.232-3.009l-2.476-9.241c-.445-1.66-.591-2.502-.437-3.222.166-.779.575-1.487 1.167-2.021.547-.493 1.349-.788 3.009-1.232l14.104-3.78c1.66-.444 2.502-.591 3.222-.437.78.167 1.487.575 2.021 1.167.494.547.788 1.349 1.233 3.009l2.701 10.082c.18.672-.218 1.362-.89 1.542-.671.18-1.362-.219-1.542-.89l-2.701-10.083c-.286-1.065-.354-1.624-.672-1.975-.178-.198-.413-.334-.673-.389-.463-.099-.982.121-2.047.406l-14.105 3.78c-1.065.285-1.624.354-1.975.671-.198.178-.334.414-.389.674-.099.463.12.981.406 2.046l2.476 9.242c.285 1.065.354 1.624.671 1.975.178.197.414.334.674.389.463.099.982-.121 2.047-.406l9.145-2.451c.366-.098.754-.024 1.057.196zm-3.747-13.357c.671-.18 1.362.218 1.542.89.18.671-.219 1.362-.89 1.541l-5.747 1.54c-.671.18-1.362-.219-1.542-.89s.219-1.362.89-1.542zm-.248 5.631c0-.302.245-.548.548-.548h.25c.442 0 1.545.419 1.721.516.19.105.357.251.692.544l7.423 6.496c.615.537.646 1.482.069 2.059-.525.526-1.368.554-1.927.064l-7.377-6.454c-.402-.352-.603-.528-.747-.741-.134-.197-.652-1.406-.652-1.936z" transform="matrix(-9.2581 -2.4807 2.4807 -9.2581 183.759 275.124)"/></svg>