<svg clip-rule="evenodd" fill-rule="evenodd" stroke-linejoin="round" stroke-miterlimit="2" viewBox="0 0 250 250" xmlns="http://www.w3.org/2000/svg"><path fill="rgb(255, 255, 255)" d="m305-252v-163h-118c-19.573 0-33.8-9-42.68-27s-6.653-35 6.68-51l293-366c9.253-11.333 21.233-17 35.94-17s27.06 5.667 37.06 17l292 366c13.333 16 15.56 33 6.68 51s-23.107 27-42.68 27h-118v163c0 13.167-4.54 24.29-13.62 33.37-9.087 9.087-20.213 13.63-33.38 13.63h-256c-13.167 0-24.29-4.543-33.37-13.63-9.087-9.08-13.63-20.203-13.63-33.37zm95-84.808c0 20.328 16.48 36.808 36.808 36.808h87.384c20.328 0 36.808-16.48 36.808-36.808 0-38.337 0-98.047 0-136.384 0-20.328 16.479-36.808 36.808-36.808h51.509c4.225 0 8.079-2.411 9.929-6.209 1.849-3.799 1.368-8.319-1.237-11.645-37.409-47.734-138.951-177.306-169.318-216.055-2.093-2.671-5.298-4.231-8.691-4.231s-6.598 1.56-8.691 4.231c-30.367 38.749-131.909 168.321-169.318 216.055-2.605 3.326-3.086 7.846-1.237 11.645 1.85 3.798 5.704 6.209 9.929 6.209h52.509c20.328 0 36.808 16.48 36.808 36.808zm-238 299.808c-13.167 0-24.29-4.56-33.37-13.68-9.087-9.113-13.63-20.613-13.63-34.5 0-13.213 4.543-24.32 13.63-33.32 9.08-9 20.203-13.5 33.37-13.5h636c13.167 0 24.46 4.56 33.88 13.68 9.413 9.113 14.12 20.28 14.12 33.5 0 13.88-4.707 25.32-14.12 34.32-9.42 9-20.713 13.5-33.88 13.5z" fill-rule="nonzero" transform="matrix(.27168 0 0 .27168 -5.54205 249.022)"/></svg>