<svg clip-rule="evenodd" fill-rule="evenodd" stroke-linejoin="round" stroke-miterlimit="2" viewBox="0 0 250 250" xmlns="http://www.w3.org/2000/svg"><path fill="rgb(255, 255, 255)" d="m166.721 54.688c36.282 0 65.739 29.457 65.739 65.739s-29.457 65.739-65.739 65.739-65.739-29.457-65.739-65.739 29.457-65.739 65.739-65.739zm0 16.435c-27.212 0-49.304 22.092-49.304 49.304s22.092 49.304 49.304 49.304 49.304-22.092 49.304-49.304-22.092-49.304-49.304-49.304zm-.721 67.686c-10.094-1.131-17.359-10.231-16.228-20.325s10.23-17.36 20.324-16.229c10.095 1.132 17.36 10.231 16.229 20.325s-10.23 17.36-20.325 16.229zm1.366-12.185c3.364.377 6.398-2.044 6.775-5.409s-2.045-6.398-5.41-6.775-6.398 2.045-6.775 5.409c-.377 3.365 2.045 6.398 5.41 6.775zm5.12-45.691c3.362.376 5.786 3.412 5.409 6.774-.376 3.363-3.412 5.787-6.774 5.41-15.142-1.697-28.791 9.202-30.488 24.343-.376 3.362-3.412 5.786-6.775 5.41-3.362-.377-5.786-3.413-5.409-6.775 2.451-21.871 22.166-37.613 44.037-35.162z" transform="matrix(1.68826 -.140158 .140158 1.68826 -172.658 -54.9448)"/></svg>