<svg clip-rule="evenodd" fill-rule="evenodd" stroke-linejoin="round" stroke-miterlimit="2" viewBox="0 0 250 250" xmlns="http://www.w3.org/2000/svg"><path fill="rgb(255, 255, 255)" d="m222.888 86.263c1.224 2.039 1.505 4.507.772 6.769-.734 2.262-2.411 4.095-4.599 5.027-.121.119-.267.181-.413.243-3.565 1.519-7.704.159-9.674-3.179-8.768-14.757-24.763-24-42.253-24-27.212 0-49.304 22.092-49.304 49.304s22.092 49.304 49.304 49.304c4.247 0 8.465-.548 12.553-1.624 3.954-1.07 8.092.938 9.697 4.707l.06-.025c.939 2.203.878 4.704-.165 6.86-1.044 2.155-2.969 3.754-5.279 4.383-5.502 1.393-11.165 2.134-16.866 2.134-36.282 0-65.739-29.457-65.739-65.739s29.457-65.739 65.739-65.739c23.166 0 44.365 12.162 56.167 31.575zm-50.402-5.328c3.362.376 5.786 3.412 5.409 6.774-.377 3.363-3.412 5.787-6.775 5.41-15.141-1.697-28.79 9.202-30.487 24.343-.377 3.362-3.412 5.786-6.775 5.41-3.362-.377-5.786-3.413-5.409-6.775 2.45-21.871 22.166-37.613 44.037-35.162zm-6.486 57.876c-10.094-1.131-17.36-10.231-16.228-20.325 1.131-10.094 10.23-17.36 20.324-16.229 10.095 1.132 17.36 10.231 16.229 20.325s-10.231 17.36-20.325 16.229zm1.366-12.185c3.364.377 6.397-2.044 6.774-5.409.378-3.365-2.044-6.398-5.409-6.775s-6.398 2.045-6.775 5.409c-.377 3.365 2.045 6.398 5.41 6.775zm40.874-17.478 3.856.321c.362-.664.853-1.253 1.47-1.771 1.305-1.095 2.828-1.581 4.575-1.436l15.194 1.261c1.75.146 3.175.881 4.283 2.189l.001.001c.515.609.897 1.265 1.143 1.969l3.867.321c.363-.779.901-1.439 1.6-1.988 1.199-.942 2.606-1.371 4.236-1.236 1.675.139 2.99.826 3.981 1.991.991 1.163 1.461 2.582 1.32 4.285l-4.281 51.565c-.141 1.701-.838 3.023-2.006 4.008-1.163.981-2.582 1.447-4.284 1.305-1.665-.138-3.002-.836-4.029-2.062-.55-.657-.937-1.374-1.155-2.154l-3.834-.318c-.365.693-.869 1.307-1.509 1.844l-.001.001c-1.305 1.094-2.828 1.581-4.575 1.436l-15.194-1.262c-1.751-.145-3.175-.881-4.282-2.19-.536-.632-.927-1.314-1.172-2.049l-3.797-.315c-.346.791-.861 1.461-1.53 2.018l-.001.001c-1.159.966-2.574 1.426-4.271 1.285-1.665-.138-3.002-.836-4.029-2.062-1.021-1.219-1.479-2.647-1.342-4.296l4.274-51.489c.143-1.723.872-3.062 2.119-4.052 1.203-.956 2.614-1.39 4.248-1.255 1.675.139 2.99.826 3.981 1.991.542.636.929 1.349 1.144 2.143zm-5.149 27.726c-.074.885.207 1.763.781 2.44.574.678 1.393 1.1 2.278 1.173l.767.064c.885.074 1.763-.207 2.44-.781.678-.574 1.1-1.393 1.173-2.278l.011-.131c.074-.885-.207-1.763-.781-2.441-.574-.677-1.393-1.099-2.278-1.173l-.767-.063c-.885-.074-1.763.207-2.44.781-.678.574-1.1 1.393-1.173 2.278zm-1.276 15.369c-.153 1.843 1.217 3.46 3.059 3.613l.767.064c1.843.153 3.46-1.217 3.613-3.059l.018-.208c.073-.885-.208-1.763-.782-2.44-.573-.678-1.393-1.1-2.278-1.174l-.767-.063c-.884-.074-1.762.207-2.44.781-.677.574-1.099 1.393-1.173 2.278zm21.774-36.342c-.885-.073-1.763.208-2.441.782-.677.573-1.099 1.393-1.173 2.278l-3.174 38.235c-.153 1.842 1.217 3.46 3.06 3.613l2.148.178c1.842.153 3.46-1.216 3.613-3.059l3.174-38.235c.153-1.843-1.217-3.461-3.059-3.614zm12.103 23.68c-.073.884.208 1.762.781 2.44.574.678 1.394 1.1 2.278 1.173l.767.064c.885.073 1.763-.208 2.441-.782.677-.573 1.099-1.393 1.173-2.278l.01-.131c.074-.885-.207-1.762-.781-2.44s-1.393-1.1-2.278-1.173l-.767-.064c-.885-.073-1.762.208-2.44.782-.678.573-1.1 1.393-1.173 2.278zm-1.276 15.368c-.153 1.843 1.217 3.461 3.06 3.614l.766.064c1.843.152 3.461-1.217 3.614-3.06l.017-.208c.073-.884-.208-1.762-.781-2.44-.574-.678-1.394-1.1-2.278-1.173l-.767-.064c-.885-.073-1.763.208-2.441.782-.677.573-1.099 1.393-1.173 2.278zm2.546-30.66c-.153 1.842 1.216 3.46 3.059 3.613l.767.064c1.842.153 3.46-1.217 3.613-3.06l.017-.208c.074-.884-.207-1.762-.781-2.44s-1.393-1.099-2.278-1.173l-.767-.064c-.885-.073-1.762.208-2.44.782s-1.1 1.393-1.173 2.278zm-32.602-2.707c-.153 1.843 1.217 3.46 3.06 3.613l.766.064c1.843.153 3.461-1.217 3.614-3.059l.017-.208c.074-.885-.207-1.763-.781-2.44-.574-.678-1.393-1.1-2.278-1.173l-.767-.064c-.885-.074-1.763.207-2.44.781-.678.574-1.1 1.393-1.173 2.278z" transform="matrix(1.562 -.129677 .129677 1.562 -167.148 -41.4894)"/></svg>