<svg clip-rule="evenodd" fill-rule="evenodd" stroke-linejoin="round" stroke-miterlimit="2" viewBox="0 0 250 250" xmlns="http://www.w3.org/2000/svg"><path fill="rgb(255, 255, 255)" d="m26.705 10.066c1.215.647 2.051 1.927 2.058 3.389v.003 18.081.003c-.01 2.112-1.753 3.843-3.863 3.838h-14.798c-2.113.005-3.856-1.726-3.866-3.838v-.003-18.081-.003c.007-1.461.843-2.741 2.058-3.388v-5.716c0-2.634 1.875-4.73 4.113-4.73h10.193c2.233 0 4.105 2.096 4.105 4.73zm-3.869-6.15c-.16-.414-.557-.686-1.001-.686h-8.648c-.454 0-.862.278-1.028.701-.011.028-.021.055-.031.08-.049.125-.074.258-.074.392v4.11c0 .293.116.574.323.781s.488.323.781.323h8.684c.293 0 .574-.116.781-.323s.323-.488.323-.781c0-1.322 0-3.443 0-4.107 0-.136-.025-.271-.074-.398-.011-.029-.023-.06-.036-.092zm-3.009 4.012c-.686 0-1.25-.564-1.25-1.25v-.64c0-.686.564-1.25 1.25-1.25s1.25.564 1.25 1.25v.641c0 .685-.564 1.249-1.249 1.249zm-4.654 0h-.001c-.685 0-1.249-.564-1.249-1.249v-.641c0-.686.564-1.25 1.25-1.25s1.25.564 1.25 1.25v.64c0 .686-.564 1.25-1.25 1.25zm-3.577 5.452c-.831 0-1.507.671-1.511 1.503-.02 3.41-.068 11.703-.087 15.13-.003.403.156.789.44 1.075.283.285.669.446 1.072.446 2.879-.001 9.094-.002 11.973-.002.402-.001.788-.161 1.072-.446.284-.286.442-.672.439-1.075-.019-3.426-.066-11.72-.085-15.131-.005-.831-.681-1.503-1.512-1.503-2.84.001-8.962.002-11.801.003zm9.482 14.794h-7.156c-1.031 0-1.88-.849-1.88-1.88s.849-1.88 1.88-1.88h7.156c1.031 0 1.88.849 1.88 1.88s-.849 1.88-1.88 1.88z" transform="matrix(6.61462 0 0 6.61462 9.24748 9.24083)"/></svg>