<svg clip-rule="evenodd" fill-rule="evenodd" stroke-linejoin="round" stroke-miterlimit="2" viewBox="0 0 250 250" xmlns="http://www.w3.org/2000/svg"><path fill="rgb(255, 255, 255)" d="m10 10.96c.53 0 .96-.43.96-.96s-.43-.96-.96-.96c-.364 0-.785 0-1.179 0-.751 0-1.361-.61-1.361-1.361v-4.358c0-.751.61-1.361 1.361-1.361h6.358c.751 0 1.361.61 1.361 1.361v4.358c0 .751-.61 1.361-1.361 1.361h-1.179c-.53 0-.96.43-.96.96s.43.96.96.96h7c.574 0 1.04.466 1.04 1.04s-.466 1.04-1.04 1.04h-1.5c-.53 0-.96.43-.96.96s.43.96.96.96h1.179c.751 0 1.361.61 1.361 1.361v4.358c0 .751-.61 1.361-1.361 1.361-1.715 0-4.643 0-6.358 0-.751 0-1.361-.61-1.361-1.361 0-1.254 0-3.104 0-4.358 0-.751.61-1.361 1.361-1.361h1.179c.53 0 .96-.43.96-.96s-.43-.96-.96-.96h-7c-.53 0-.96.43-.96.96s.43.96.96.96h1.179c.751 0 1.361.61 1.361 1.361v4.358c0 .751-.61 1.361-1.361 1.361-1.715 0-4.643 0-6.358 0-.751 0-1.361-.61-1.361-1.361 0-1.254 0-3.104 0-4.358 0-.751.61-1.361 1.361-1.361h1.179c.53 0 .96-.43.96-.96s-.43-.96-.96-.96h-1.5c-.574 0-1.04-.466-1.04-1.04s.466-1.04 1.04-1.04zm-1.04 6.806c0-.401-.325-.726-.726-.726-.931 0-2.537 0-3.468 0-.401 0-.726.325-.726.726v1.468c0 .401.325.726.726.726h3.468c.193 0 .377-.076.513-.213.137-.136.213-.32.213-.513 0-.448 0-1.02 0-1.468zm11 0c0-.401-.325-.726-.726-.726-.931 0-2.537 0-3.468 0-.401 0-.726.325-.726.726v1.468c0 .401.325.726.726.726h3.468c.193 0 .377-.076.513-.213.137-.136.213-.32.213-.513 0-.448 0-1.02 0-1.468zm-10.42-11.532c0 .401.325.726.726.726h3.468c.193 0 .377-.076.513-.213.137-.136.213-.32.213-.513 0-.448 0-1.02 0-1.468 0-.401-.325-.726-.726-.726-.931 0-2.537 0-3.468 0-.401 0-.726.325-.726.726z" transform="matrix(11.0184 0 0 11.0184 -7.22129 -7.22129)"/></svg>