<svg clip-rule="evenodd" fill-rule="evenodd" stroke-linejoin="round" stroke-miterlimit="2" viewBox="0 0 250 250" xmlns="http://www.w3.org/2000/svg"><path fill="rgb(255, 255, 255)" d="m9.384 22c-1.365 0-2.04-.061-2.562-.327-.564-.288-1.023-.747-1.311-1.311-.265-.521-.327-1.197-.327-2.562v-11.6c0-1.365.062-2.041.327-2.562.288-.564.747-1.023 1.311-1.311.522-.266 1.197-.327 2.562-.327h6.416c1.365 0 2.041.061 2.562.327.564.288 1.023.747 1.311 1.311.266.521.327 1.197.327 2.562v11.6c0 1.365-.061 2.041-.327 2.562-.288.564-.747 1.023-1.311 1.311-.521.266-1.197.327-2.562.327zm0-2h6.416c.876 0 1.319.062 1.654-.109.188-.096.341-.249.437-.437.171-.335.109-.778.109-1.654v-11.6c0-.876.062-1.319-.109-1.654-.096-.188-.249-.341-.437-.437-.335-.171-.778-.109-1.654-.109h-6.416c-.876 0-1.319-.062-1.654.109-.188.096-.341.249-.437.437-.17.335-.109.778-.109 1.654v11.6c0 .876-.061 1.319.109 1.654.096.188.249.341.437.437.335.171.778.109 1.654.109zm1.046-1.919c-.552 0-1-.448-1-1s.448-1 1-1h4.324c.552 0 1 .448 1 1s-.448 1-1 1z" transform="matrix(11.9365 0 0 11.9365 -25.3039 -18.2375)"/></svg>