<svg clip-rule="evenodd" fill-rule="evenodd" stroke-linejoin="round" stroke-miterlimit="2" viewBox="0 0 250 250" xmlns="http://www.w3.org/2000/svg"><path fill="rgb(255, 255, 255)" d="m7.244 10.76.001.001.015.109c0 .391-.181.76-.49.999-.31.239-.712.322-1.091.223-2.255-.594-3.939-2.662-3.939-5.092 0-2.886 2.374-5.26 5.26-5.26 2.43 0 4.498 1.684 5.09 3.939v.001c.099.378.017.78-.222 1.089-.237.307-.603.488-.99.489-.036.002-.072.002-.108.002-.533 0-.995-.366-1.117-.885v-.001c-.275-1.207-1.366-2.114-2.653-2.114-1.503 0-2.74 1.237-2.74 2.74 0 1.275.891 2.358 2.078 2.658.514.129.88.578.906 1.102zm13.996-3.516-.001.001-.109.015c-.391 0-.76-.181-.999-.49-.239-.31-.322-.712-.223-1.091.594-2.255 2.662-3.939 5.092-3.939 2.886 0 5.26 2.374 5.26 5.26 0 2.43-1.684 4.498-3.939 5.09h-.001c-.378.099-.78.017-1.089-.222-.307-.237-.488-.603-.489-.99-.002-.036-.002-.072-.002-.108 0-.533.366-.995.885-1.117h.001c1.207-.275 2.114-1.366 2.114-2.653 0-1.503-1.237-2.74-2.74-2.74-1.275 0-2.358.891-2.658 2.078-.129.514-.578.88-1.102.906zm-10.481 17.512h.001l.109-.016c.392 0 .761.181 1 .491.239.309.321.712.222 1.091h-.001c-.595 2.253-2.661 3.936-5.09 3.938-2.886 0-5.26-2.374-5.26-5.26 0-2.43 1.684-4.498 3.939-5.09h.001c.378-.099.78-.017 1.089.222.307.237.488.603.489.99.002.036.002.072.002.108 0 .533-.366.995-.885 1.117h-.001c-1.207.275-2.114 1.366-2.114 2.653 0 1.503 1.237 2.74 2.74 2.74 1.275 0 2.358-.891 2.658-2.078.128-.513.577-.879 1.101-.906zm13.997-3.516-.001-.001-.015-.109c0-.391.181-.76.49-.999.31-.239.712-.322 1.091-.223 2.255.594 3.939 2.662 3.939 5.092 0 2.886-2.374 5.26-5.26 5.26-2.429-.002-4.495-1.685-5.089-3.938v-.001c-.099-.378-.017-.78.222-1.089.237-.308.603-.489.99-.49.036-.002.072-.002.107-.002.533 0 .995.366 1.117.885v.001c.275 1.207 1.366 2.114 2.653 2.114 1.503 0 2.74-1.237 2.74-2.74 0-1.275-.891-2.358-2.078-2.658-.514-.129-.88-.578-.906-1.102zm-4.685-2.879 5.361 5.361.003.003c.218.226.34.528.34.843 0 .665-.547 1.212-1.213 1.212-.314 0-.616-.122-.842-.34l-.003-.003-3.999-4c-.632 1.47-2.092 2.449-3.717 2.449s-3.085-.979-3.717-2.449l-4 4c-.227.227-.536.355-.857.355-.322 0-.63-.128-.858-.355-.227-.228-.355-.536-.355-.858 0-.321.128-.63.355-.857l5.361-5.361v-4.711l-5.361-5.36c-.227-.227-.355-.536-.355-.858 0-.321.128-.63.355-.857.228-.227.536-.355.858-.355.321 0 .63.128.857.355l4 4c.631-1.47 2.091-2.45 3.716-2.45s3.085.98 3.717 2.45l3.998-3.999c.228-.235.542-.368.87-.368.666 0 1.213.547 1.213 1.213 0 .328-.133.642-.368.87l-5.359 5.359zm-2.426 1.455v-7.621c0-.902-.742-1.645-1.645-1.645-.902 0-1.645.743-1.645 1.645v7.621c0 .903.743 1.645 1.645 1.645.903 0 1.645-.742 1.645-1.645z" transform="matrix(8.00617 0 0 8.00617 -3.09871 -3.09871)"/></svg>