<svg clip-rule="evenodd" fill-rule="evenodd" stroke-linejoin="round" stroke-miterlimit="2" viewBox="0 0 250 250" xmlns="http://www.w3.org/2000/svg"><path fill="rgb(255, 255, 255)" d="m286.168 497.469c0-7.285-5.906-13.191-13.191-13.191h-16.977l-7.209-.714-6.863-2.087-6.326-3.38-5.59-4.585-19.238-19.234h-29.548l-19.234 19.23-5.594 4.589-6.326 3.38-6.863 2.087-7.209.714h-12.341c-6.573 0-11.902 5.329-11.902 11.902v14.717l-.746 7.384-2.151 6.93-3.393 6.252-4.475 5.426-5.425 4.475-6.253 3.393-6.93 2.151-7.384.746-7.384-.746-6.93-2.151-6.253-3.393-5.425-4.475-4.475-5.426-3.393-6.252-2.151-6.93-.746-7.384v-480.431h-23.243l-7.384-.746-6.93-2.151-6.252-3.393-5.426-4.475-4.475-5.425-3.393-6.253-2.151-6.93-.746-7.384.746-7.384 2.151-6.93 3.393-6.252 4.475-5.425 5.426-4.476 6.252-3.393 6.93-2.151 7.384-.746h60l7.384.746 6.93 2.151 6.252 3.393 5.426 4.476 4.475 5.425 3.393 6.252 2.151 6.93.746 7.384v53.127h539.348l7.385.747 6.929 2.15 6.253 3.393 5.425 4.476 4.475 5.425 3.393 6.253 2.151 6.929.746 7.385v363.927l-.746 7.384-2.151 6.93-3.393 6.252-4.475 5.426-5.425 4.475-6.253 3.393-6.929 2.151-7.385.746h-13.545c-7.286 0-13.191 5.906-13.191 13.191v16.366c0 18.678-15.142 33.819-33.82 33.819-18.679 0-33.82-15.141-33.82-33.819v-16.366c0-3.498-1.39-6.853-3.864-9.327-2.473-2.474-5.829-3.864-9.327-3.864h-41.259c-3.498 0-6.854 1.39-9.328 3.864-2.473 2.474-3.863 5.829-3.863 9.327v16.366c0 18.678-15.142 33.819-33.82 33.819s-33.82-15.141-33.82-33.819v-16.366c0-3.498-1.389-6.853-3.863-9.327s-5.829-3.864-9.328-3.864h-41.259c-3.498 0-6.853 1.39-9.327 3.864s-3.864 5.829-3.864 9.327v16.366c0 18.678-15.141 33.819-33.82 33.819-18.678 0-33.819-15.141-33.819-33.819zm-180.668-289.453c-4.11 0-8.054 1.633-10.961 4.539-2.906 2.907-4.539 6.849-4.539 10.959v64.972c0 4.11 1.633 8.052 4.539 10.959 2.907 2.906 6.851 4.539 10.961 4.539s8.054-1.633 10.961-4.539c2.906-2.907 4.539-6.849 4.539-10.959v-64.972c0-4.11-1.633-8.052-4.539-10.959-2.907-2.906-6.851-4.539-10.961-4.539zm485.783 202.748c6.117 0 11.984-2.43 16.309-6.756 4.326-4.326 6.756-10.192 6.756-16.31v-244.282c0-6.117-2.43-11.984-6.756-16.309-4.325-4.326-10.192-6.756-16.309-6.756h-458.286c-5.633 0-11.036 2.238-15.019 6.221s-6.221 9.385-6.221 15.018v.008c0 4.68 1.859 9.168 5.168 12.477s7.797 5.168 12.477 5.168h6.598l7.384.746 6.93 2.151 6.252 3.393 5.426 4.475 4.475 5.426 3.393 6.252 2.151 6.93.746 7.384v120l-.746 7.384-2.151 6.93-3.393 6.252-4.475 5.426-5.426 4.475-6.252 3.393-6.93 2.151-7.384.746h-19.272c-2.745 0-4.971 2.226-4.971 4.971v46.72c0 3.488 2.828 6.316 6.316 6.316h.085c1.675 0 3.282-.665 4.466-1.85l17.384-17.38 5.594-4.589 6.326-3.38 6.863-2.087 7.209-.714h60l7.209.714 6.863 2.087 6.326 3.38 5.59 4.585 19.238 19.234zm-164.876-40.079c-8.067 5.684-16.479 5.866-25.237.547-8.754-5.315-13.131-12.839-13.131-22.573v-163.417c0-9.928 4.382-17.502 13.145-22.722s17.17-5.224 25.223-.014l128.602 83.13c8.052 5.21 12.078 12.206 12.078 20.988 0 8.777-4.026 15.754-12.078 20.932zm-104.273 4.39c-4.308.165-8.708-1.116-13.198-3.843-8.753-5.315-13.13-12.839-13.13-22.573v-163.417c0-9.928 4.382-17.502 13.145-22.722 4.487-2.673 8.882-3.978 13.183-3.916 4.301-.062 8.696 1.243 13.183 3.916 8.763 5.22 13.145 12.794 13.145 22.722v163.417c0 9.734-4.377 17.258-13.131 22.573-4.49 2.727-8.889 4.008-13.197 3.843z" transform="matrix(.313188 0 0 .313188 16.9342 45.9816)"/></svg>