<svg version="1.1" xmlns="http://www.w3.org/2000/svg" style="fill:rgba(0,0,0,1.0)" width="256" height="256" viewBox="0 0 36.796875 32.96875"><path fill="rgb(255, 255, 255)" d="M16.484375 32.968750 C14.192697 32.968750 12.049489 32.544275 10.054688 31.695312 C8.059886 30.846350 6.309903 29.669278 4.804688 28.164062 C3.299472 26.658847 2.122400 24.908864 1.273438 22.914062 C0.424475 20.919261 0.000000 18.776053 0.000000 16.484375 C0.000000 14.192697 0.427079 12.049489 1.281250 10.054688 C2.135421 8.059886 3.315097 6.309903 4.820312 4.804688 C6.325528 3.299472 8.075511 2.122400 10.070312 1.273438 C12.065114 0.424475 14.203114 -0.000000 16.484375 -0.000000 C18.765636 -0.000000 20.903636 0.424475 22.898438 1.273438 C24.893239 2.122400 26.643222 3.302076 28.148438 4.812500 C29.653653 6.322924 30.833329 8.075511 31.687500 10.070312 C32.541671 12.065114 32.968750 14.203114 32.968750 16.484375 C32.968750 18.765636 32.541671 20.903636 31.687500 22.898438 C30.833329 24.893239 29.653653 26.645826 28.148438 28.156250 C26.643222 29.666674 24.893239 30.846350 22.898438 31.695312 C20.903636 32.544275 18.765636 32.968750 16.484375 32.968750 Z M11.406250 26.500000 L11.406250 24.781250 L21.562500 24.781250 L21.562500 26.500000 Z M16.484375 31.250000 C18.536469 31.250000 20.453116 30.869795 22.234375 30.109375 C24.015634 29.348955 25.583327 28.291673 26.937500 26.937500 C28.291673 25.583327 29.348955 24.013030 30.109375 22.226562 C30.869795 20.440095 31.250000 18.526052 31.250000 16.484375 C31.250000 14.432281 30.869795 12.515634 30.109375 10.734375 C29.348955 8.953116 28.291673 7.385423 26.937500 6.031250 C25.583327 4.677077 24.015634 3.619795 22.234375 2.859375 C20.453116 2.098955 18.536469 1.718750 16.484375 1.718750 C14.442698 1.718750 12.528655 2.098955 10.742188 2.859375 C8.955720 3.619795 7.385423 4.677077 6.031250 6.031250 C4.677077 7.385423 3.619795 8.953116 2.859375 10.734375 C2.098955 12.515634 1.718750 14.432281 1.718750 16.484375 C1.718750 18.526052 2.098955 20.440095 2.859375 22.226562 C3.619795 24.013030 4.677077 25.583327 6.031250 26.937500 C7.385423 28.291673 8.955720 29.348955 10.742188 30.109375 C12.528655 30.869795 14.442698 31.250000 16.484375 31.250000 Z M10.234375 20.062500 C8.963535 20.062500 7.919275 19.679691 7.101562 18.914062 C6.283850 18.148434 5.796876 17.197922 5.640625 16.062500 L7.156250 15.828125 C7.260417 16.619796 7.585935 17.263018 8.132812 17.757812 C8.679690 18.252607 9.374996 18.500000 10.218750 18.500000 C11.062504 18.500000 11.757810 18.252607 12.304688 17.757812 C12.851565 17.263018 13.177083 16.619796 13.281250 15.828125 L14.796875 16.062500 C14.640624 17.197922 14.156254 18.148434 13.343750 18.914062 C12.531246 19.679691 11.494798 20.062500 10.234375 20.062500 Z M10.218750 16.656250 C9.749998 16.656250 9.343752 16.484377 9.000000 16.140625 C8.656248 15.796873 8.484375 15.390627 8.484375 14.921875 C8.484375 14.442706 8.656248 14.033856 9.000000 13.695312 C9.343752 13.356769 9.749998 13.187500 10.218750 13.187500 C10.697919 13.187500 11.106769 13.356769 11.445312 13.695312 C11.783856 14.033856 11.953125 14.442706 11.953125 14.921875 C11.953125 15.390627 11.783856 15.796873 11.445312 16.140625 C11.106769 16.484377 10.697919 16.656250 10.218750 16.656250 Z M5.281250 13.390625 C6.177088 13.234374 7.033850 13.114584 7.851562 13.031250 C8.669275 12.947916 9.458330 12.906250 10.218750 12.906250 C10.979170 12.906250 11.770829 12.947916 12.593750 13.031250 C13.416671 13.114584 14.270829 13.234374 15.156250 13.390625 L14.875000 14.906250 C13.114575 14.614582 11.562507 14.468750 10.218750 14.468750 C8.874993 14.468750 7.322925 14.614582 5.562500 14.906250 Z M4.968750 10.484375 C6.114589 10.119790 7.317702 9.841147 8.578125 9.648438 C9.838548 9.455728 11.041661 9.359375 12.187500 9.359375 C12.708336 9.359375 13.179685 9.364583 13.601562 9.375000 C14.023440 9.385417 14.520830 9.416666 15.093750 9.468750 L14.937500 11.031250 C14.364580 10.979166 13.888023 10.947917 13.507812 10.937500 C13.127602 10.927083 12.687502 10.921875 12.187500 10.921875 C9.885405 10.921875 7.619803 11.286455 5.390625 12.015625 Z M22.765625 20.062500 C21.494785 20.062500 20.450525 19.679691 19.632812 18.914062 C18.815100 18.148434 18.328126 17.197922 18.171875 16.062500 L19.687500 15.828125 C19.791667 16.619796 20.117185 17.263018 20.664062 17.757812 C21.210940 18.252607 21.906246 18.500000 22.750000 18.500000 C23.593754 18.500000 24.289060 18.252607 24.835938 17.757812 C25.382815 17.263018 25.708333 16.619796 25.812500 15.828125 L27.328125 16.062500 C27.171874 17.197922 26.687504 18.148434 25.875000 18.914062 C25.062496 19.679691 24.026048 20.062500 22.765625 20.062500 Z M22.750000 16.656250 C22.270831 16.656250 21.861981 16.484377 21.523438 16.140625 C21.184894 15.796873 21.015625 15.390627 21.015625 14.921875 C21.015625 14.442706 21.184894 14.033856 21.523438 13.695312 C21.861981 13.356769 22.270831 13.187500 22.750000 13.187500 C23.218752 13.187500 23.624998 13.356769 23.968750 13.695312 C24.312502 14.033856 24.484375 14.442706 24.484375 14.921875 C24.484375 15.390627 24.312502 15.796873 23.968750 16.140625 C23.624998 16.484377 23.218752 16.656250 22.750000 16.656250 Z M17.812500 13.390625 C18.708338 13.234374 19.565100 13.114584 20.382812 13.031250 C21.200525 12.947916 21.989580 12.906250 22.750000 12.906250 C23.510420 12.906250 24.302079 12.947916 25.125000 13.031250 C25.947921 13.114584 26.802079 13.234374 27.687500 13.390625 L27.406250 14.906250 C25.645825 14.614582 24.093757 14.468750 22.750000 14.468750 C21.406243 14.468750 19.854175 14.614582 18.093750 14.906250 Z M27.578125 12.015625 C25.348947 11.286455 23.083345 10.921875 20.781250 10.921875 C20.281248 10.921875 19.841148 10.927083 19.460938 10.937500 C19.080727 10.947917 18.604170 10.979166 18.031250 11.031250 L17.875000 9.468750 C18.447920 9.416666 18.945310 9.385417 19.367188 9.375000 C19.789065 9.364583 20.260414 9.359375 20.781250 9.359375 C21.927089 9.359375 23.130202 9.455728 24.390625 9.648438 C25.651048 9.841147 26.854161 10.119790 28.000000 10.484375 Z M36.796875 27.421875" /></svg>