<svg version="1.1" xmlns="http://www.w3.org/2000/svg" style="fill:rgba(0,0,0,1.0)" width="256" height="256" viewBox="0 0 36.5625 28.12745102202429"><path fill="rgb(255, 255, 255)" d="M13.625000 28.127451 C13.041664 28.127451 12.442711 27.830579 11.828125 27.236826 L0.718750 16.346201 C0.239581 15.877449 0.000000 15.372245 0.000000 14.830576 C0.000000 14.257656 0.255206 13.710787 0.765625 13.189951 L4.046875 9.814951 C4.536461 9.325365 5.046872 9.080576 5.578125 9.080576 C5.890627 9.080576 6.208332 9.169117 6.531250 9.346201 L5.890625 9.314951 C6.807296 8.950366 7.528643 8.489433 8.054688 7.932139 C8.580732 7.374844 8.906249 6.575373 9.031250 5.533701 L10.046875 4.877451 C10.880212 4.877451 11.606768 4.671724 12.226562 4.260264 C12.846357 3.848803 13.260416 3.242038 13.468750 2.439951 L14.218750 2.111826 C14.458335 2.174326 14.695311 2.221201 14.929688 2.252451 C15.164064 2.283701 15.385416 2.299326 15.593750 2.299326 C16.177086 2.299326 16.713539 2.176931 17.203125 1.932139 C17.692711 1.687346 18.151040 1.309745 18.578125 0.799326 L19.765625 0.580576 C20.067710 0.726410 20.401040 0.835784 20.765625 0.908701 C21.130210 0.981618 21.505206 1.018076 21.890625 1.018076 C22.380211 1.018076 22.867185 0.963389 23.351562 0.854014 C23.835940 0.744638 24.291665 0.575369 24.718750 0.346201 L24.218750 1.299326 C24.218750 0.903491 24.351561 0.583181 24.617188 0.338389 C24.882814 0.093596 25.255206 -0.018382 25.734375 0.002451 L29.640625 0.174326 C30.442712 0.215993 31.124997 0.505053 31.687500 1.041514 C32.250003 1.577975 32.520833 2.257655 32.500000 3.080576 L32.109375 17.549326 C32.088542 18.361830 31.781253 19.049323 31.187500 19.611826 C30.593747 20.174329 29.895837 20.439951 29.093750 20.408701 L25.156250 20.268076 C24.562497 20.257659 24.151043 20.007662 23.921875 19.518076 L24.687500 19.674326 C23.666662 19.778493 22.635422 20.090990 21.593750 20.611826 C20.552078 21.132662 19.630212 21.893071 18.828125 22.893076 L19.234375 21.893076 C19.234375 22.372245 19.190105 22.757658 19.101562 23.049326 C19.013020 23.340994 18.807293 23.653491 18.484375 23.986826 L15.453125 27.189951 C14.859372 27.814954 14.250003 28.127451 13.625000 28.127451 Z M12.796875 25.564951 C13.015626 25.804536 13.289061 25.919118 13.617188 25.908701 C13.945314 25.898284 14.218749 25.778494 14.437500 25.549326 L15.875000 24.002451 L15.390625 23.533701 L13.828125 25.064951 L13.171875 24.439951 L14.734375 22.893076 L14.453125 22.643076 L12.906250 24.158701 L12.250000 23.518076 L13.812500 22.002451 L13.546875 21.768076 L12.000000 23.268076 L11.328125 22.627451 L12.875000 21.096201 L11.968750 20.221201 L10.437500 21.736826 L9.765625 21.080576 L11.296875 19.564951 L11.046875 19.330576 L9.515625 20.830576 L8.875000 20.189951 L10.390625 18.689951 L9.484375 17.814951 L7.968750 19.299326 L7.296875 18.658701 L8.828125 17.189951 L8.546875 16.939951 L7.031250 18.408701 L6.375000 17.768076 L7.875000 16.283701 L7.609375 16.049326 L6.140625 17.518076 L5.484375 16.893076 L6.953125 15.408701 L6.031250 14.533701 L4.578125 15.971201 L3.921875 15.330576 L5.375000 13.877451 L5.109375 13.643076 L3.656250 15.080576 L3.000000 14.455576 L4.453125 13.002451 L4.015625 12.580576 L2.375000 14.205576 C2.135415 14.434744 2.039062 14.671721 2.085938 14.916514 C2.132813 15.161306 2.223958 15.351409 2.359375 15.486826 C2.609376 15.715994 2.916665 15.814951 3.281250 15.783701 C3.270833 15.950369 3.296875 16.114429 3.359375 16.275889 C3.421875 16.437348 3.520833 16.590992 3.656250 16.736826 C3.906251 16.986827 4.223956 17.080576 4.609375 17.018076 C4.598958 17.215994 4.614583 17.395679 4.656250 17.557139 C4.697917 17.718598 4.802082 17.872242 4.968750 18.018076 C5.093751 18.122243 5.242187 18.200367 5.414062 18.252451 C5.585938 18.304535 5.744791 18.320159 5.890625 18.299326 C5.880208 18.465994 5.898437 18.632659 5.945312 18.799326 C5.992188 18.965994 6.083333 19.117034 6.218750 19.252451 C6.333334 19.367035 6.481770 19.450367 6.664062 19.502451 C6.846355 19.554535 7.020832 19.564951 7.187500 19.533701 C7.135416 19.950370 7.234374 20.278491 7.484375 20.518076 C7.630209 20.653493 7.791666 20.739430 7.968750 20.775889 C8.145834 20.812347 8.328124 20.825368 8.515625 20.814951 C8.515625 20.992035 8.544271 21.161304 8.601562 21.322764 C8.658854 21.484223 8.749999 21.637867 8.875000 21.783701 C8.989584 21.908702 9.138020 21.994638 9.320312 22.041514 C9.502605 22.088389 9.677083 22.096201 9.843750 22.064951 C9.833333 22.252452 9.846354 22.429534 9.882812 22.596201 C9.919271 22.762869 10.005208 22.913909 10.140625 23.049326 C10.286459 23.184743 10.445312 23.270680 10.617188 23.307139 C10.789063 23.343597 10.958332 23.356618 11.125000 23.346201 C11.072916 23.710786 11.187499 24.023283 11.468750 24.283701 C11.614584 24.419118 11.770833 24.518076 11.937500 24.580576 C12.104168 24.643076 12.286457 24.658701 12.484375 24.627451 C12.401041 24.950369 12.505207 25.262866 12.796875 25.564951 Z M19.437500 21.439951 L8.359375 4.939951 L9.640625 4.064951 L20.718750 20.564951 Z M18.703125 21.002451 L18.328125 21.111826 C19.213546 20.226405 20.171870 19.541516 21.203125 19.057139 C22.234380 18.572761 23.307286 18.262868 24.421875 18.127451 L23.765625 18.533701 L24.203125 1.924326 L24.390625 2.127451 C23.536454 2.429536 22.682296 2.580576 21.828125 2.580576 C21.411456 2.580576 21.005210 2.544118 20.609375 2.471201 C20.213540 2.398284 19.833335 2.288910 19.468750 2.143076 C18.916664 2.715996 18.320316 3.145679 17.679688 3.432139 C17.039059 3.718598 16.338545 3.861826 15.578125 3.861826 C15.432291 3.861826 15.281251 3.854014 15.125000 3.838389 C14.968749 3.822763 14.807292 3.804534 14.640625 3.783701 C14.244790 4.606622 13.661462 5.257657 12.890625 5.736826 C12.119788 6.215995 11.265630 6.455576 10.328125 6.455576 C10.223958 7.434748 9.880211 8.242031 9.296875 8.877451 C8.713539 9.512871 8.000004 10.059740 7.156250 10.518076 L7.250000 9.908701 L18.531250 20.830576 C18.562500 20.861826 18.591146 20.890472 18.617188 20.916514 C18.643229 20.942555 18.671875 20.971201 18.703125 21.002451 Z M20.609375 20.252451 L12.843750 2.221201 L14.281250 1.564951 L22.046875 19.596201 Z M26.359375 16.549326 C26.557293 16.549326 26.721354 16.484223 26.851562 16.354014 C26.981771 16.223805 27.046875 16.064952 27.046875 15.877451 C27.046875 15.679533 26.981771 15.515473 26.851562 15.385264 C26.721354 15.255055 26.557293 15.189951 26.359375 15.189951 C26.171874 15.189951 26.013021 15.255055 25.882812 15.385264 C25.752604 15.515473 25.687500 15.679533 25.687500 15.877451 C25.687500 16.064952 25.752604 16.223805 25.882812 16.354014 C26.013021 16.484223 26.171874 16.549326 26.359375 16.549326 Z M22.062500 19.486826 L18.296875 0.439951 L19.828125 0.096201 L23.593750 19.143076 Z M26.500000 13.627451 C26.687501 13.627451 26.846354 13.559743 26.976562 13.424326 C27.106771 13.288909 27.171875 13.122244 27.171875 12.924326 C27.171875 12.736825 27.106771 12.577973 26.976562 12.447764 C26.846354 12.317555 26.687501 12.252451 26.500000 12.252451 C26.302082 12.252451 26.138021 12.317555 26.007812 12.447764 C25.877604 12.577973 25.812500 12.736825 25.812500 12.924326 C25.812500 13.122244 25.877604 13.288909 26.007812 13.424326 C26.138021 13.559743 26.302082 13.627451 26.500000 13.627451 Z M28.015625 15.080576 C28.203126 15.080576 28.364583 15.012868 28.500000 14.877451 C28.635417 14.742034 28.703125 14.575369 28.703125 14.377451 C28.703125 14.189950 28.635417 14.028493 28.500000 13.893076 C28.364583 13.757659 28.203126 13.689951 28.015625 13.689951 C27.817707 13.689951 27.651042 13.757659 27.515625 13.893076 C27.380208 14.028493 27.312500 14.189950 27.312500 14.377451 C27.312500 14.575369 27.380208 14.742034 27.515625 14.877451 C27.651042 15.012868 27.817707 15.080576 28.015625 15.080576 Z M26.578125 10.705576 C26.776043 10.705576 26.940104 10.637868 27.070312 10.502451 C27.200521 10.367034 27.265625 10.200369 27.265625 10.002451 C27.265625 9.814950 27.200521 9.653493 27.070312 9.518076 C26.940104 9.382659 26.776043 9.314951 26.578125 9.314951 C26.390624 9.314951 26.229167 9.382659 26.093750 9.518076 C25.958333 9.653493 25.890625 9.814950 25.890625 10.002451 C25.890625 10.200369 25.958333 10.367034 26.093750 10.502451 C26.229167 10.637868 26.390624 10.705576 26.578125 10.705576 Z M28.140625 12.143076 C28.338543 12.143076 28.502604 12.075368 28.632812 11.939951 C28.763021 11.804534 28.828125 11.643077 28.828125 11.455576 C28.828125 11.257658 28.763021 11.093598 28.632812 10.963389 C28.502604 10.833180 28.338543 10.768076 28.140625 10.768076 C27.953124 10.768076 27.791667 10.833180 27.656250 10.963389 C27.520833 11.093598 27.453125 11.257658 27.453125 11.455576 C27.453125 11.643077 27.520833 11.804534 27.656250 11.939951 C27.791667 12.075368 27.953124 12.143076 28.140625 12.143076 Z M29.656250 13.596201 C29.843751 13.596201 30.005208 13.531098 30.140625 13.400889 C30.276042 13.270680 30.343750 13.106619 30.343750 12.908701 C30.343750 12.721200 30.276042 12.559743 30.140625 12.424326 C30.005208 12.288909 29.843751 12.221201 29.656250 12.221201 C29.468749 12.221201 29.307292 12.288909 29.171875 12.424326 C29.036458 12.559743 28.968750 12.721200 28.968750 12.908701 C28.968750 13.106619 29.036458 13.270680 29.171875 13.400889 C29.307292 13.531098 29.468749 13.596201 29.656250 13.596201 Z M26.671875 7.783701 C26.848959 7.783701 27.005208 7.715993 27.140625 7.580576 C27.276042 7.445159 27.343750 7.283702 27.343750 7.096201 C27.343750 6.908700 27.276042 6.747243 27.140625 6.611826 C27.005208 6.476409 26.848959 6.408701 26.671875 6.408701 C26.473957 6.408701 26.307292 6.476409 26.171875 6.611826 C26.036458 6.747243 25.968750 6.908700 25.968750 7.096201 C25.968750 7.283702 26.036458 7.445159 26.171875 7.580576 C26.307292 7.715993 26.473957 7.783701 26.671875 7.783701 Z M28.234375 9.221201 C28.411459 9.221201 28.567708 9.153493 28.703125 9.018076 C28.838542 8.882659 28.906250 8.721202 28.906250 8.533701 C28.906250 8.346200 28.838542 8.184743 28.703125 8.049326 C28.567708 7.913909 28.411459 7.846201 28.234375 7.846201 C28.036457 7.846201 27.869792 7.913909 27.734375 8.049326 C27.598958 8.184743 27.531250 8.346200 27.531250 8.533701 C27.531250 8.721202 27.598958 8.882659 27.734375 9.018076 C27.869792 9.153493 28.036457 9.221201 28.234375 9.221201 Z M29.796875 10.658701 C29.973959 10.658701 30.130208 10.593598 30.265625 10.463389 C30.401042 10.333180 30.468750 10.169119 30.468750 9.971201 C30.468750 9.783700 30.401042 9.624848 30.265625 9.494639 C30.130208 9.364430 29.973959 9.299326 29.796875 9.299326 C29.598957 9.299326 29.432292 9.364430 29.296875 9.494639 C29.161458 9.624848 29.093750 9.783700 29.093750 9.971201 C29.093750 10.169119 29.161458 10.333180 29.296875 10.463389 C29.432292 10.593598 29.598957 10.658701 29.796875 10.658701 Z M28.312500 6.314951 C28.500001 6.314951 28.661458 6.247243 28.796875 6.111826 C28.932292 5.976409 29.000000 5.809744 29.000000 5.611826 C29.000000 5.434742 28.932292 5.278493 28.796875 5.143076 C28.661458 5.007659 28.500001 4.939951 28.312500 4.939951 C28.114582 4.939951 27.947917 5.007659 27.812500 5.143076 C27.677083 5.278493 27.609375 5.434742 27.609375 5.611826 C27.609375 5.809744 27.677083 5.976409 27.812500 6.111826 C27.947917 6.247243 28.114582 6.314951 28.312500 6.314951 Z M29.875000 7.752451 C30.062501 7.752451 30.223958 7.684743 30.359375 7.549326 C30.494792 7.413909 30.562500 7.247244 30.562500 7.049326 C30.562500 6.851408 30.494792 6.687348 30.359375 6.557139 C30.223958 6.426930 30.062501 6.361826 29.875000 6.361826 C29.677082 6.361826 29.510417 6.426930 29.375000 6.557139 C29.239583 6.687348 29.171875 6.851408 29.171875 7.049326 C29.171875 7.247244 29.239583 7.413909 29.375000 7.549326 C29.510417 7.684743 29.677082 7.752451 29.875000 7.752451 Z M29.953125 4.830576 C30.140626 4.830576 30.299479 4.762868 30.429688 4.627451 C30.559896 4.492034 30.625000 4.330577 30.625000 4.143076 C30.625000 3.945158 30.559896 3.781098 30.429688 3.650889 C30.299479 3.520680 30.140626 3.455576 29.953125 3.455576 C29.755207 3.455576 29.591146 3.520680 29.460938 3.650889 C29.330729 3.781098 29.265625 3.945158 29.265625 4.143076 C29.265625 4.330577 29.330729 4.492034 29.460938 4.627451 C29.591146 4.762868 29.755207 4.830576 29.953125 4.830576 Z M36.562500 25.002451" /></svg>