<svg version="1.1" xmlns="http://www.w3.org/2000/svg" style="fill:rgba(0,0,0,1.0)" width="256" height="256" viewBox="0 0 36.5625 32.8125"><path fill="rgb(255, 255, 255)" d="M13.562500 32.812500 C12.489578 32.812500 11.531254 32.572919 10.687500 32.093750 C9.843746 31.614581 9.182294 30.953129 8.703125 30.109375 C8.223956 29.265621 7.984375 28.307297 7.984375 27.234375 L7.984375 19.296875 C7.984375 18.515621 8.205727 17.929689 8.648438 17.539062 C9.091148 17.148436 9.703121 16.953125 10.484375 16.953125 L23.765625 16.953125 C24.546879 16.953125 25.158852 17.148436 25.601562 17.539062 C26.044273 17.929689 26.265625 18.515621 26.265625 19.296875 L26.265625 27.234375 C26.265625 28.307297 26.026044 29.265621 25.546875 30.109375 C25.067706 30.953129 24.408858 31.614581 23.570312 32.093750 C22.731767 32.572919 21.770839 32.812500 20.687500 32.812500 Z M8.953125 28.515625 L8.828125 27.265625 L11.578125 27.265625 L11.578125 21.953125 L8.828125 21.953125 L8.828125 20.703125 L12.828125 20.703125 L12.828125 28.515625 Z M14.234375 31.953125 L14.234375 19.921875 L20.015625 19.921875 L20.015625 31.953125 L18.609375 31.953125 L18.609375 21.171875 L15.640625 21.171875 L15.640625 31.953125 Z M13.562500 31.250000 L20.687500 31.250000 C21.791672 31.250000 22.710934 30.882816 23.445312 30.148438 C24.179691 29.414059 24.546875 28.494797 24.546875 27.390625 L24.546875 19.296875 C24.546875 19.057290 24.476563 18.867188 24.335938 18.726562 C24.195312 18.585937 24.005210 18.515625 23.765625 18.515625 L10.484375 18.515625 C10.255207 18.515625 10.067709 18.585937 9.921875 18.726562 C9.776041 18.867188 9.703125 19.057290 9.703125 19.296875 L9.703125 27.390625 C9.703125 28.494797 10.070309 29.414059 10.804688 30.148438 C11.539066 30.882816 12.458328 31.250000 13.562500 31.250000 Z M21.421875 28.515625 L21.421875 20.703125 L25.421875 20.703125 L25.421875 21.953125 L22.671875 21.953125 L22.671875 27.265625 L25.421875 27.265625 L25.296875 28.515625 Z M10.953125 17.265625 C11.119792 16.890623 11.499997 16.614584 12.093750 16.437500 C12.687503 16.260416 13.416662 16.171875 14.281250 16.171875 L19.968750 16.171875 C20.833338 16.171875 21.562497 16.260416 22.156250 16.437500 C22.750003 16.614584 23.130208 16.890623 23.296875 17.265625 Z M13.750000 16.906250 C13.572916 16.906250 13.421876 16.843751 13.296875 16.718750 C13.171874 16.593749 13.109375 16.442709 13.109375 16.265625 L13.109375 15.781250 C13.109375 15.604166 13.171874 15.453126 13.296875 15.328125 C13.421876 15.203124 13.572916 15.140625 13.750000 15.140625 L20.500000 15.140625 C20.677084 15.140625 20.828124 15.203124 20.953125 15.328125 C21.078126 15.453126 21.140625 15.604166 21.140625 15.781250 L21.140625 16.265625 C21.140625 16.442709 21.078126 16.593749 20.953125 16.718750 C20.828124 16.843751 20.677084 16.906250 20.500000 16.906250 Z M17.484375 15.937500 C16.296869 15.333330 15.354170 14.523443 14.656250 13.507812 C13.958330 12.492182 13.609375 11.375006 13.609375 10.156250 C13.609375 9.562497 13.684895 8.994794 13.835938 8.453125 C13.986980 7.911456 14.161457 7.427085 14.359375 7.000000 C14.567709 6.541664 14.718750 6.127606 14.812500 5.757812 C14.906250 5.388019 14.953125 4.994794 14.953125 4.578125 L16.828125 4.578125 C16.828125 5.244795 16.747397 5.835935 16.585938 6.351562 C16.424478 6.867190 16.255209 7.333331 16.078125 7.750000 C15.901041 8.166669 15.757813 8.544269 15.648438 8.882812 C15.539062 9.221356 15.484375 9.645831 15.484375 10.156250 C15.484375 10.916670 15.648436 11.567706 15.976562 12.109375 C16.304689 12.651044 16.911454 13.223955 17.796875 13.828125 C18.338544 14.192710 18.710936 14.526040 18.914062 14.828125 C19.117189 15.130210 19.218750 15.499998 19.218750 15.937500 Z M9.687500 4.031250 C9.270831 4.031250 8.914064 3.882814 8.617188 3.585938 C8.320311 3.289061 8.171875 2.932294 8.171875 2.515625 C8.171875 2.088540 8.320311 1.729168 8.617188 1.437500 C8.914064 1.145832 9.270831 1.000000 9.687500 1.000000 C10.114585 1.000000 10.473957 1.145832 10.765625 1.437500 C11.057293 1.729168 11.203125 2.088540 11.203125 2.515625 C11.203125 2.932294 11.057293 3.289061 10.765625 3.585938 C10.473957 3.882814 10.114585 4.031250 9.687500 4.031250 Z M12.578125 4.625000 C12.161456 4.625000 11.804689 4.476564 11.507812 4.179688 C11.210936 3.882811 11.062500 3.526044 11.062500 3.109375 C11.062500 2.682290 11.210936 2.322918 11.507812 2.031250 C11.804689 1.739582 12.161456 1.593750 12.578125 1.593750 C13.005210 1.593750 13.364582 1.739582 13.656250 2.031250 C13.947918 2.322918 14.093750 2.682290 14.093750 3.109375 C14.093750 3.526044 13.947918 3.882811 13.656250 4.179688 C13.364582 4.476564 13.005210 4.625000 12.578125 4.625000 Z M16.750000 6.375000 L14.609375 5.937500 C14.213540 5.854166 14.005208 5.593752 13.984375 5.156250 C13.953125 4.333329 13.828126 3.723960 13.609375 3.328125 L18.687500 4.421875 C18.302081 4.723960 17.947918 5.223955 17.625000 5.921875 C17.447916 6.307294 17.156252 6.458334 16.750000 6.375000 Z M32.500000 8.437500 L0.000000 1.281250 L0.000000 -0.000000 L32.500000 7.156250 Z M24.859375 5.750000 L8.609375 2.390625 C8.317707 2.328125 8.085938 2.187501 7.914062 1.968750 C7.742187 1.749999 7.656250 1.494793 7.656250 1.203125 L7.656250 0.343750 C7.656250 0.197916 7.700520 0.098959 7.789062 0.046875 C7.877605 -0.005209 8.010416 -0.010417 8.187500 0.031250 L24.296875 3.203125 C24.588543 3.255209 24.822916 3.388020 25.000000 3.601562 C25.177084 3.815105 25.265625 4.067707 25.265625 4.359375 L25.265625 5.406250 C25.265625 5.520834 25.226563 5.611979 25.148438 5.679688 C25.070312 5.747396 24.973959 5.770833 24.859375 5.750000 Z M20.000000 6.218750 C19.583331 6.218750 19.226564 6.070314 18.929688 5.773438 C18.632811 5.476561 18.484375 5.119794 18.484375 4.703125 C18.484375 4.276040 18.632811 3.916668 18.929688 3.625000 C19.226564 3.333332 19.583331 3.187500 20.000000 3.187500 C20.427085 3.187500 20.786457 3.333332 21.078125 3.625000 C21.369793 3.916668 21.515625 4.276040 21.515625 4.703125 C21.515625 5.119794 21.369793 5.476561 21.078125 5.773438 C20.786457 6.070314 20.427085 6.218750 20.000000 6.218750 Z M22.890625 6.812500 C22.473956 6.812500 22.117189 6.664064 21.820312 6.367188 C21.523436 6.070311 21.375000 5.713544 21.375000 5.296875 C21.375000 4.869790 21.523436 4.510418 21.820312 4.218750 C22.117189 3.927082 22.473956 3.781250 22.890625 3.781250 C23.317710 3.781250 23.677082 3.927082 23.968750 4.218750 C24.260418 4.510418 24.406250 4.869790 24.406250 5.296875 C24.406250 5.713544 24.260418 6.070311 23.968750 6.367188 C23.677082 6.664064 23.317710 6.812500 22.890625 6.812500 Z M36.562500 27.343750" /></svg>