<svg version="1.1" xmlns="http://www.w3.org/2000/svg" style="fill:rgba(0,0,0,1.0)" width="256" height="256" viewBox="0 0 36.95596643735918 32.8125"><path fill="rgb(255, 255, 255)" d="M2.093750 32.812500 C1.645831 32.812500 1.250002 32.682293 0.906250 32.421875 C0.562498 32.161457 0.325521 31.830731 0.195312 31.429688 C0.065104 31.028644 0.078124 30.614585 0.234375 30.187500 L4.984375 17.609375 L5.203125 18.000000 C3.546867 17.677082 2.283859 17.244794 1.414062 16.703125 C0.544266 16.161456 0.109375 15.531254 0.109375 14.812500 C0.109375 14.312498 0.268228 13.924481 0.585938 13.648438 C0.903647 13.372394 1.286456 13.234375 1.734375 13.234375 C2.057293 13.234375 2.359374 13.291666 2.640625 13.406250 C3.171878 13.614584 3.981765 13.833332 5.070312 14.062500 C6.158860 14.291668 7.414055 14.486978 8.835938 14.648438 C10.257820 14.809897 11.734367 14.890625 13.265625 14.890625 C14.796883 14.890625 16.273430 14.809897 17.695312 14.648438 C19.117195 14.486978 20.374995 14.291668 21.468750 14.062500 C22.562505 13.833332 23.369789 13.614584 23.890625 13.406250 C24.182293 13.291666 24.484373 13.234375 24.796875 13.234375 C25.255211 13.234375 25.640623 13.372394 25.953125 13.648438 C26.265627 13.924481 26.421875 14.312498 26.421875 14.812500 C26.421875 15.531254 25.986984 16.161456 25.117188 16.703125 C24.247391 17.244794 22.984383 17.677082 21.328125 18.000000 L21.546875 17.609375 L26.296875 30.187500 C26.463542 30.614585 26.479167 31.028644 26.343750 31.429688 C26.208333 31.830731 25.971356 32.161457 25.632812 32.421875 C25.294269 32.682293 24.895836 32.812500 24.437500 32.812500 C24.062498 32.812500 23.710939 32.710939 23.382812 32.507812 C23.054686 32.304686 22.812501 32.026043 22.656250 31.671875 L16.843750 18.250000 L9.687500 18.250000 L3.875000 31.671875 C3.718749 32.026043 3.476564 32.304686 3.148438 32.507812 C2.820311 32.710939 2.468752 32.812500 2.093750 32.812500 Z M4.953125 20.390625 C3.776036 19.255203 2.875003 17.958341 2.250000 16.500000 L4.125000 16.781250 C4.614586 17.656254 5.213538 18.421872 5.921875 19.078125 Z M13.015625 31.000000 C12.505206 31.000000 12.057294 30.820314 11.671875 30.460938 C11.286456 30.101561 11.078125 29.666669 11.046875 29.156250 L10.671875 22.765625 L12.265625 23.218750 L12.609375 29.046875 C12.619792 29.151042 12.664062 29.242187 12.742188 29.320312 C12.820313 29.398438 12.911458 29.437500 13.015625 29.437500 C13.130209 29.437500 13.223958 29.401042 13.296875 29.328125 C13.369792 29.255208 13.411458 29.161459 13.421875 29.046875 L13.765625 23.218750 L15.359375 22.796875 L14.984375 29.156250 C14.953125 29.666669 14.750002 30.101561 14.375000 30.460938 C13.999998 30.820314 13.546878 31.000000 13.015625 31.000000 Z M2.093750 31.250000 C2.270834 31.250000 2.390625 31.177084 2.453125 31.031250 L8.312500 17.140625 C9.062504 17.213542 9.841142 17.273437 10.648438 17.320312 C11.455733 17.367188 12.328120 17.390625 13.265625 17.390625 C14.203130 17.390625 15.075517 17.367188 15.882812 17.320312 C16.690108 17.273437 17.468746 17.213542 18.218750 17.140625 L24.078125 31.031250 C24.140625 31.177084 24.260416 31.250000 24.437500 31.250000 C24.604168 31.250000 24.742187 31.187501 24.851562 31.062500 C24.960938 30.937499 24.989584 30.812501 24.937500 30.687500 L19.703125 16.984375 C21.442717 16.734374 22.789058 16.408856 23.742188 16.007812 C24.695317 15.606769 25.171875 15.208335 25.171875 14.812500 C25.171875 14.583332 25.046876 14.468750 24.796875 14.468750 C24.682291 14.468750 24.567709 14.489583 24.453125 14.531250 C23.859372 14.750001 22.986985 14.984374 21.835938 15.234375 C20.684890 15.484376 19.367195 15.697916 17.882812 15.875000 C16.398430 16.052084 14.859383 16.140625 13.265625 16.140625 C11.671867 16.140625 10.132820 16.052084 8.648438 15.875000 C7.164055 15.697916 5.846360 15.484376 4.695312 15.234375 C3.544265 14.984374 2.671878 14.750001 2.078125 14.531250 C1.963541 14.489583 1.848959 14.468750 1.734375 14.468750 C1.484374 14.468750 1.359375 14.583332 1.359375 14.812500 C1.359375 15.208335 1.835933 15.606769 2.789062 16.007812 C3.742192 16.408856 5.088533 16.734374 6.828125 16.984375 L1.593750 30.687500 C1.552083 30.812501 1.583333 30.937499 1.687500 31.062500 C1.791667 31.187501 1.927082 31.250000 2.093750 31.250000 Z M13.109375 23.656250 C12.088537 23.656250 11.098963 23.528647 10.140625 23.273438 C9.182287 23.018228 8.286462 22.666669 7.453125 22.218750 L7.062500 20.375000 C8.145839 20.947920 9.174474 21.377603 10.148438 21.664062 C11.122401 21.950522 12.109370 22.093750 13.109375 22.093750 C13.942712 22.093750 14.763017 21.994793 15.570312 21.796875 C16.377608 21.598957 17.208329 21.302085 18.062500 20.906250 L18.687500 22.265625 C17.864579 22.703127 16.981776 23.044270 16.039062 23.289062 C15.096349 23.533855 14.119797 23.656250 13.109375 23.656250 Z M13.312500 20.843750 C12.302078 20.843750 11.411462 20.718751 10.640625 20.468750 C9.869788 20.218749 9.093754 19.869794 8.312500 19.421875 L9.203125 17.765625 L17.421875 17.765625 L18.312500 19.421875 C17.531246 19.869794 16.757816 20.218749 15.992188 20.468750 C15.226559 20.718751 14.333338 20.843750 13.312500 20.843750 Z M13.093750 15.531250 L4.968750 14.921875 C4.802082 14.505206 4.674480 14.023440 4.585938 13.476562 C4.497395 12.929685 4.453125 12.427086 4.453125 11.968750 C4.453125 12.177084 4.841142 12.369791 5.617188 12.546875 C6.393233 12.723959 7.434889 12.864583 8.742188 12.968750 C10.049486 13.072917 11.499992 13.125000 13.093750 13.125000 C14.687508 13.125000 16.138014 13.072917 17.445312 12.968750 C18.752611 12.864583 19.794267 12.723959 20.570312 12.546875 C21.346358 12.369791 21.734375 12.177084 21.734375 11.968750 C21.734375 12.427086 21.690105 12.929685 21.601562 13.476562 C21.513020 14.023440 21.385418 14.505206 21.218750 14.921875 Z M13.109375 11.875000 C11.515617 11.875000 10.062507 11.822917 8.750000 11.718750 C7.437493 11.614583 6.393233 11.473959 5.617188 11.296875 C4.841142 11.119791 4.453125 10.927084 4.453125 10.718750 C4.453125 10.499999 4.841142 10.304688 5.617188 10.132812 C6.393233 9.960937 7.437493 9.825521 8.750000 9.726562 C10.062507 9.627604 11.515617 9.578125 13.109375 9.578125 C14.703133 9.578125 16.153639 9.627604 17.460938 9.726562 C18.768236 9.825521 19.809892 9.960937 20.585938 10.132812 C21.361983 10.304688 21.750000 10.499999 21.750000 10.718750 C21.750000 10.927084 21.361983 11.119791 20.585938 11.296875 C19.809892 11.473959 18.768236 11.614583 17.460938 11.718750 C16.153639 11.822917 14.703133 11.875000 13.109375 11.875000 Z M21.578125 20.078125 L20.796875 18.578125 C21.036460 18.307290 21.260416 18.031251 21.468750 17.750000 C21.677084 17.468749 21.864582 17.177085 22.031250 16.875000 L23.796875 16.875000 C23.234372 18.062506 22.494796 19.130204 21.578125 20.078125 Z M23.093750 14.125000 C23.270834 13.364580 23.359375 12.598962 23.359375 11.828125 C23.359375 11.359373 23.351563 10.989585 23.335938 10.718750 C23.320312 10.447915 23.302083 10.255209 23.281250 10.140625 L30.500000 11.875000 C30.708334 11.916667 30.927082 11.835939 31.156250 11.632812 C31.385418 11.429686 31.567708 11.062503 31.703125 10.531250 C31.807292 10.124998 31.859375 9.776043 31.859375 9.484375 C31.859375 8.984372 31.744793 8.677084 31.515625 8.562500 L23.578125 4.687500 C22.536453 4.177081 21.445318 3.682294 20.304688 3.203125 C19.164057 2.723956 17.992194 2.330731 16.789062 2.023438 C15.585931 1.716144 14.359381 1.562500 13.109375 1.562500 C11.692701 1.562500 10.364590 1.828122 9.125000 2.359375 C7.885410 2.890628 6.794276 3.627599 5.851562 4.570312 C4.908849 5.513026 4.171878 6.604160 3.640625 7.843750 C3.109372 9.083340 2.843750 10.411451 2.843750 11.828125 C2.843750 12.223960 2.867187 12.614581 2.914062 13.000000 C2.960938 13.385419 3.026041 13.760415 3.109375 14.125000 L1.468750 13.906250 C1.406250 13.572915 1.359375 13.231773 1.328125 12.882812 C1.296875 12.533852 1.281250 12.182293 1.281250 11.828125 C1.281250 10.192700 1.585934 8.658861 2.195312 7.226562 C2.804691 5.794264 3.651036 4.536464 4.734375 3.453125 C5.817714 2.369786 7.075514 1.523441 8.507812 0.914062 C9.940111 0.304684 11.473950 -0.000000 13.109375 -0.000000 C14.473965 -0.000000 15.809889 0.166665 17.117188 0.500000 C18.424486 0.833335 19.679681 1.249997 20.882812 1.750000 C22.085944 2.250003 23.213536 2.760414 24.265625 3.281250 L32.328125 7.250000 C32.692710 7.427084 32.960937 7.718748 33.132812 8.125000 C33.304688 8.531252 33.390625 8.994789 33.390625 9.515625 C33.390625 9.973961 33.328126 10.447914 33.203125 10.937500 C33.005207 11.729171 32.640628 12.380206 32.109375 12.890625 C31.578122 13.401044 31.015628 13.588542 30.421875 13.453125 L24.765625 12.109375 L24.921875 11.828125 C24.921875 12.213544 24.903646 12.601561 24.867188 12.992188 C24.830729 13.382814 24.776042 13.760415 24.703125 14.125000 Z M37.062500 27.343750" /></svg>