<svg version="1.1" xmlns="http://www.w3.org/2000/svg" style="fill:rgba(0,0,0,1.0)" width="256" height="256" viewBox="0 0 39.53125 32.8125"><path fill="rgb(255, 255, 255)" d="M8.125000 32.812500 L8.125000 27.000000 L12.250000 27.000000 L12.250000 25.125000 L8.125000 25.125000 L8.125000 21.171875 L4.062500 21.171875 L4.062500 17.265625 L0.000000 17.265625 L0.000000 7.656250 L5.781250 7.656250 L5.781250 15.546875 L8.125000 15.546875 L8.125000 7.656250 L12.250000 7.656250 L12.250000 5.781250 L8.125000 5.781250 L8.125000 -0.000000 L13.968750 -0.000000 L13.968750 4.062500 L18.031250 4.062500 L18.031250 7.656250 L20.406250 7.656250 L20.406250 4.062500 L24.468750 4.062500 L24.468750 -0.000000 L30.312500 -0.000000 L30.312500 5.781250 L26.187500 5.781250 L26.187500 7.656250 L30.312500 7.656250 L30.312500 15.546875 L32.656250 15.546875 L32.656250 7.656250 L38.437500 7.656250 L38.437500 17.265625 L34.375000 17.265625 L34.375000 21.171875 L30.312500 21.171875 L30.312500 25.125000 L26.187500 25.125000 L26.187500 27.000000 L30.312500 27.000000 L30.312500 32.812500 L24.468750 32.812500 L24.468750 28.718750 L20.406250 28.718750 L20.406250 25.125000 L18.031250 25.125000 L18.031250 28.718750 L13.968750 28.718750 L13.968750 32.812500 Z M9.843750 31.093750 L12.250000 31.093750 L12.250000 28.718750 L9.843750 28.718750 Z M1.718750 15.546875 L4.062500 15.546875 L4.062500 9.375000 L1.718750 9.375000 Z M26.187500 31.093750 L28.593750 31.093750 L28.593750 28.718750 L26.187500 28.718750 Z M13.078125 16.406250 L13.078125 12.328125 L17.171875 12.328125 L17.171875 16.406250 Z M13.968750 27.000000 L16.312500 27.000000 L16.312500 23.406250 L22.125000 23.406250 L22.125000 27.000000 L24.468750 27.000000 L24.468750 23.406250 L28.593750 23.406250 L28.593750 19.453125 L32.656250 19.453125 L32.656250 17.265625 L28.593750 17.265625 L28.593750 9.375000 L24.468750 9.375000 L24.468750 5.781250 L22.125000 5.781250 L22.125000 9.375000 L16.312500 9.375000 L16.312500 5.781250 L13.968750 5.781250 L13.968750 9.375000 L9.843750 9.375000 L9.843750 17.265625 L5.781250 17.265625 L5.781250 19.453125 L9.843750 19.453125 L9.843750 23.406250 L13.968750 23.406250 Z M9.843750 4.062500 L12.250000 4.062500 L12.250000 1.718750 L9.843750 1.718750 Z M21.265625 16.406250 L21.265625 12.328125 L25.359375 12.328125 L25.359375 16.406250 Z M34.375000 15.546875 L36.718750 15.546875 L36.718750 9.375000 L34.375000 9.375000 Z M26.187500 4.062500 L28.593750 4.062500 L28.593750 1.718750 L26.187500 1.718750 Z M39.531250 27.343750" /></svg>