<svg version="1.1" xmlns="http://www.w3.org/2000/svg" style="fill:rgba(0,0,0,1.0)" width="256" height="256" viewBox="0 0 36.40625 32.8125"><path fill="rgb(255, 255, 255)" d="M8.609375 32.812500 C11.380222 32.812500 13.968738 32.414066 16.375000 31.617188 C18.781262 30.820309 20.955719 29.687507 22.898438 28.218750 C24.841156 26.749993 26.505201 25.010427 27.890625 23.000000 C29.276049 20.989573 30.338538 18.765637 31.078125 16.328125 C31.817712 13.890613 32.187500 11.307305 32.187500 8.578125 C32.187500 6.369781 31.846358 4.643235 31.164062 3.398438 C30.481767 2.153640 29.434903 1.276044 28.023438 0.765625 C26.611972 0.255206 24.802094 -0.000000 22.593750 -0.000000 C20.583323 -0.000000 18.601572 0.299476 16.648438 0.898438 C14.695303 1.497399 12.838550 2.348953 11.078125 3.453125 C9.317700 4.557297 7.718757 5.874992 6.281250 7.406250 C4.833326 8.947924 3.645838 10.666657 2.718750 12.562500 C1.791662 14.458343 1.106773 16.445302 0.664062 18.523438 C0.221352 20.601573 0.000000 22.687490 0.000000 24.781250 C0.000000 26.791677 0.289060 28.382807 0.867188 29.554688 C1.445315 30.726568 2.367181 31.562498 3.632812 32.062500 C4.898444 32.562502 6.557281 32.812500 8.609375 32.812500 Z M2.703125 29.734375 C3.098960 28.338535 3.546872 27.031256 4.046875 25.812500 C4.546878 24.593744 5.093747 23.414068 5.687500 22.273438 C6.281253 21.132807 6.906247 19.984381 7.562500 18.828125 L6.062500 17.703125 C5.437497 18.765630 4.885419 19.734371 4.406250 20.609375 C3.927081 21.484379 3.492189 22.343746 3.101562 23.187500 C2.710936 24.031254 2.354168 24.919266 2.031250 25.851562 C1.708332 26.783859 1.390627 27.828119 1.078125 28.984375 Z M12.390625 31.953125 L16.000000 30.437500 C15.187496 29.291661 14.260422 28.091152 13.218750 26.835938 C12.177078 25.580723 11.044277 24.361985 9.820312 23.179688 C8.596348 21.997390 7.302090 20.927088 5.937500 19.968750 C4.572910 19.010412 3.156257 18.250003 1.687500 17.687500 L1.031250 21.593750 C2.437507 22.187503 3.807285 23.036453 5.140625 24.140625 C6.473965 25.244797 7.752598 26.479160 8.976562 27.843750 C10.200527 29.208340 11.338536 30.578118 12.390625 31.953125 Z M8.609375 30.937500 C6.890616 30.937500 5.541672 30.778647 4.562500 30.460938 C3.583328 30.143228 2.890627 29.541671 2.484375 28.656250 C2.078123 27.770829 1.875000 26.479175 1.875000 24.781250 C1.875000 22.854157 2.072915 20.929697 2.468750 19.007812 C2.864585 17.085928 3.486975 15.244800 4.335938 13.484375 C5.184900 11.723950 6.276035 10.130215 7.609375 8.703125 C9.567718 6.598948 11.851549 4.934902 14.460938 3.710938 C17.070326 2.486973 19.781236 1.875000 22.593750 1.875000 C24.437509 1.875000 25.927078 2.049477 27.062500 2.398438 C28.197922 2.747398 29.026039 3.401037 29.546875 4.359375 C30.067711 5.317713 30.328125 6.723949 30.328125 8.578125 C30.328125 11.098971 29.986983 13.484364 29.304688 15.734375 C28.622392 17.984386 27.645840 20.039053 26.375000 21.898438 C25.104160 23.757822 23.575530 25.361972 21.789062 26.710938 C20.002595 28.059903 18.000011 29.101559 15.781250 29.835938 C13.562489 30.570316 11.171888 30.937500 8.609375 30.937500 Z M7.500000 18.265625 C7.322916 18.171875 7.205729 18.033855 7.148438 17.851562 C7.091146 17.669270 7.114583 17.484376 7.218750 17.296875 C7.364584 17.036457 7.523437 16.770835 7.695312 16.500000 C7.867188 16.229165 8.046874 15.958335 8.234375 15.687500 L7.453125 15.062500 C7.078123 14.760415 7.041665 14.427085 7.343750 14.062500 C7.468751 13.906249 7.624999 13.815104 7.812500 13.789062 C8.000001 13.763021 8.177082 13.817708 8.343750 13.953125 L9.078125 14.546875 C9.255209 14.307290 9.442707 14.065105 9.640625 13.820312 C9.838543 13.575520 10.036457 13.338543 10.234375 13.109375 L9.578125 12.578125 C9.411458 12.442708 9.317708 12.283855 9.296875 12.101562 C9.276042 11.919270 9.333333 11.744792 9.468750 11.578125 C9.593751 11.421874 9.749999 11.330729 9.937500 11.304688 C10.125001 11.278646 10.302083 11.333333 10.468750 11.468750 L11.171875 12.031250 C11.390626 11.791665 11.617186 11.552085 11.851562 11.312500 C12.085939 11.072915 12.317707 10.838543 12.546875 10.609375 L11.984375 10.156250 C11.817708 10.020833 11.723958 9.859376 11.703125 9.671875 C11.682292 9.484374 11.739583 9.312501 11.875000 9.156250 C12.197918 8.812498 12.546873 8.786457 12.921875 9.078125 L13.578125 9.609375 C13.828126 9.369790 14.078124 9.140626 14.328125 8.921875 C14.578126 8.703124 14.833332 8.484376 15.093750 8.265625 L14.640625 7.906250 C14.473958 7.770833 14.380208 7.611980 14.359375 7.429688 C14.338542 7.247395 14.395833 7.072917 14.531250 6.906250 C14.656251 6.749999 14.812499 6.658854 15.000000 6.632812 C15.187501 6.606771 15.364582 6.661458 15.531250 6.796875 L16.218750 7.359375 C16.479168 7.151041 16.736978 6.953126 16.992188 6.765625 C17.247397 6.578124 17.505207 6.401042 17.765625 6.234375 C17.942709 6.119791 18.124999 6.078125 18.312500 6.109375 C18.500001 6.140625 18.645833 6.244791 18.750000 6.421875 C18.864584 6.588542 18.901042 6.763020 18.859375 6.945312 C18.817708 7.127605 18.713542 7.276041 18.546875 7.390625 C18.348957 7.526042 18.151043 7.666666 17.953125 7.812500 C17.755207 7.958334 17.552084 8.109374 17.343750 8.265625 L18.250000 8.984375 C18.416668 9.119792 18.510417 9.278645 18.531250 9.460938 C18.552083 9.643230 18.494792 9.817708 18.359375 9.984375 C18.234374 10.140626 18.078126 10.231771 17.890625 10.257812 C17.703124 10.283854 17.526042 10.229167 17.359375 10.093750 L16.218750 9.171875 C15.958332 9.380209 15.703126 9.596353 15.453125 9.820312 C15.203124 10.044272 14.953126 10.276040 14.703125 10.515625 L15.687500 11.296875 C16.062502 11.598960 16.098960 11.932290 15.796875 12.296875 C15.671874 12.453126 15.515626 12.544271 15.328125 12.570312 C15.140624 12.596354 14.963542 12.541667 14.796875 12.406250 L13.671875 11.500000 C13.442707 11.729168 13.210939 11.966145 12.976562 12.210938 C12.742186 12.455730 12.515626 12.697915 12.296875 12.937500 L13.265625 13.718750 C13.432292 13.854167 13.526042 14.013020 13.546875 14.195312 C13.567708 14.377605 13.510417 14.552083 13.375000 14.718750 C13.249999 14.875001 13.093751 14.966146 12.906250 14.992188 C12.718749 15.018229 12.541668 14.963542 12.375000 14.828125 L11.343750 14.000000 C11.145832 14.239585 10.947918 14.476561 10.750000 14.710938 C10.552082 14.945314 10.359376 15.182290 10.171875 15.421875 L11.062500 16.140625 C11.437502 16.442710 11.473960 16.776040 11.171875 17.140625 C11.046874 17.296876 10.890626 17.388021 10.703125 17.414062 C10.515624 17.440104 10.338542 17.385417 10.171875 17.250000 L9.328125 16.578125 C9.161458 16.817710 9.005209 17.054686 8.859375 17.289062 C8.713541 17.523439 8.572917 17.755207 8.437500 17.984375 C8.208332 18.380210 7.895835 18.473959 7.500000 18.265625 Z M8.578125 19.734375 C9.244795 19.734375 9.846351 19.601564 10.382812 19.335938 C10.919274 19.070311 11.471351 18.664065 12.039062 18.117188 C12.606774 17.570310 13.260413 16.880212 14.000000 16.046875 C14.770837 15.182287 15.505205 14.393233 16.203125 13.679688 C16.901045 12.966142 17.645829 12.234379 18.437500 11.484375 C19.385421 10.598954 20.075519 9.864586 20.507812 9.281250 C20.940106 8.697914 21.156250 8.161461 21.156250 7.671875 C21.156250 7.411457 21.091146 7.145835 20.960938 6.875000 C20.830729 6.604165 20.630210 6.322918 20.359375 6.031250 C19.932290 5.572914 19.479169 5.250001 19.000000 5.062500 C18.520831 4.874999 18.031252 4.781250 17.531250 4.781250 C16.822913 4.781250 16.091150 4.950519 15.335938 5.289062 C14.580725 5.627606 13.859378 6.041664 13.171875 6.531250 C12.484372 7.020836 11.880211 7.505206 11.359375 7.984375 C9.640616 9.567716 8.356775 10.903640 7.507812 11.992188 C6.658850 13.080735 6.093751 13.973955 5.812500 14.671875 C5.531249 15.369795 5.390625 15.942706 5.390625 16.390625 C5.390625 17.307296 5.684893 18.093747 6.273438 18.750000 C6.861982 19.406253 7.630204 19.734375 8.578125 19.734375 Z M30.343750 13.562500 L31.265625 9.468750 C30.098952 7.822908 28.908860 6.419277 27.695312 5.257812 C26.481765 4.096348 25.252610 3.164066 24.007812 2.460938 C22.763015 1.757809 21.505215 1.276043 20.234375 1.015625 L16.578125 2.093750 C17.859381 2.354168 19.140619 2.877600 20.421875 3.664062 C21.703131 4.450525 22.942702 5.393224 24.140625 6.492188 C25.338548 7.591151 26.463536 8.755202 27.515625 9.984375 C28.567714 11.213548 29.510412 12.406244 30.343750 13.562500 Z M20.046875 6.859375 C21.057297 6.119788 22.124994 5.554689 23.250000 5.164062 C24.375006 4.773436 25.497390 4.489584 26.617188 4.312500 C27.736985 4.135416 28.791662 3.994792 29.781250 3.890625 L29.109375 2.390625 C28.067703 2.390625 26.914069 2.515624 25.648438 2.765625 C24.382806 3.015626 23.151048 3.367185 21.953125 3.820312 C20.755202 4.273440 19.723963 4.812497 18.859375 5.437500 Z M36.406250 27.343750" /></svg>