<svg version="1.1" xmlns="http://www.w3.org/2000/svg" style="fill:rgba(0,0,0,1.0)" width="256" height="256" viewBox="0 0 30.78125 32.8125"><path fill="rgb(255, 255, 255)" d="M10.468750 30.781250 C9.510412 30.781250 8.703128 30.638022 8.046875 30.351562 C7.390622 30.065103 6.807294 29.552087 6.296875 28.812500 C4.276032 25.854152 2.768234 23.231782 1.773438 20.945312 C0.778641 18.658843 0.281250 16.671883 0.281250 14.984375 C0.281250 13.713535 0.596351 12.653650 1.226562 11.804688 C1.856774 10.955725 2.802077 10.322919 4.062500 9.906250 C4.916671 9.624999 5.544269 9.281252 5.945312 8.875000 C6.346356 8.468748 6.546875 7.869796 6.546875 7.078125 C6.546875 6.869791 6.533854 6.627606 6.507812 6.351562 C6.481771 6.075519 6.416667 5.625003 6.312500 5.000000 C6.208333 4.374997 6.041668 3.437506 5.812500 2.187500 L7.687500 2.343750 C7.885418 3.447922 8.028645 4.286455 8.117188 4.859375 C8.205730 5.432295 8.263021 5.869790 8.289062 6.171875 C8.315104 6.473960 8.328125 6.786457 8.328125 7.109375 C8.328125 8.286464 8.036461 9.223955 7.453125 9.921875 C6.869789 10.619795 5.937506 11.182290 4.656250 11.609375 C3.770829 11.901043 3.132814 12.312497 2.742188 12.843750 C2.351561 13.375003 2.156250 14.088537 2.156250 14.984375 C2.156250 16.494799 2.627599 18.325510 3.570312 20.476562 C4.513026 22.627615 5.937490 25.104153 7.843750 27.906250 C8.145835 28.343752 8.479165 28.645832 8.843750 28.812500 C9.208335 28.979168 9.749996 29.062500 10.468750 29.062500 C11.187504 29.062500 11.731769 28.979168 12.101562 28.812500 C12.471356 28.645832 12.802082 28.343752 13.093750 27.906250 C15.000010 25.104153 16.424474 22.627615 17.367188 20.476562 C18.309901 18.325510 18.781250 16.494799 18.781250 14.984375 C18.781250 14.088537 18.585939 13.375003 18.195312 12.843750 C17.804686 12.312497 17.166671 11.901043 16.281250 11.609375 C14.999994 11.182290 14.067711 10.619795 13.484375 9.921875 C12.901039 9.223955 12.609375 8.286464 12.609375 7.109375 C12.609375 6.786457 12.622396 6.473960 12.648438 6.171875 C12.674479 5.869790 12.731770 5.432295 12.820312 4.859375 C12.908855 4.286455 13.052082 3.447922 13.250000 2.343750 L15.125000 2.187500 C14.895832 3.437506 14.729167 4.374997 14.625000 5.000000 C14.520833 5.625003 14.455729 6.075519 14.429688 6.351562 C14.403646 6.627606 14.390625 6.869791 14.390625 7.078125 C14.390625 7.869796 14.591144 8.468748 14.992188 8.875000 C15.393231 9.281252 16.020829 9.624999 16.875000 9.906250 C18.135423 10.322919 19.080726 10.955725 19.710938 11.804688 C20.341149 12.653650 20.656250 13.713535 20.656250 14.984375 C20.656250 16.671883 20.158859 18.658843 19.164062 20.945312 C18.169266 23.231782 16.661468 25.854152 14.640625 28.812500 C14.130206 29.552087 13.546878 30.065103 12.890625 30.351562 C12.234372 30.638022 11.427088 30.781250 10.468750 30.781250 Z M10.468750 32.812500 C9.114577 32.812500 8.013025 32.684897 7.164062 32.429688 C6.315100 32.174478 5.890625 31.885418 5.890625 31.562500 C5.890625 31.291665 6.067707 30.950523 6.421875 30.539062 C6.776043 30.127602 7.140623 29.807293 7.515625 29.578125 L13.421875 29.578125 C13.796877 29.807293 14.161457 30.127602 14.515625 30.539062 C14.869793 30.950523 15.046875 31.291665 15.046875 31.562500 C15.046875 31.885418 14.625004 32.174478 13.781250 32.429688 C12.937496 32.684897 11.833340 32.812500 10.468750 32.812500 Z M10.468750 23.203125 C9.187494 23.203125 7.869798 23.122397 6.515625 22.960938 C5.161452 22.799478 4.015630 22.557293 3.078125 22.234375 L3.406250 20.562500 C4.302088 20.864585 5.393223 21.093749 6.679688 21.250000 C7.966152 21.406251 9.229160 21.484375 10.468750 21.484375 C11.708340 21.484375 12.973952 21.406251 14.265625 21.250000 C15.557298 21.093749 16.645829 20.864585 17.531250 20.562500 L17.859375 22.234375 C16.921870 22.557293 15.776048 22.799478 14.421875 22.960938 C13.067702 23.122397 11.750006 23.203125 10.468750 23.203125 Z M9.562500 19.671875 C8.708329 19.671875 7.841150 19.643229 6.960938 19.585938 C6.080725 19.528646 5.260420 19.421876 4.500000 19.265625 L4.671875 16.656250 L6.390625 16.765625 L6.328125 17.765625 C6.567710 17.807292 6.820311 17.838542 7.085938 17.859375 C7.351564 17.880208 7.604165 17.890625 7.843750 17.890625 L7.843750 14.703125 L9.562500 14.703125 Z M0.953125 12.750000 C0.796874 12.499999 0.645834 12.091149 0.500000 11.523438 C0.354166 10.955726 0.234375 10.333337 0.140625 9.656250 C0.046875 8.979163 0.000000 8.343753 0.000000 7.750000 C0.000000 6.302076 0.273435 5.200525 0.820312 4.445312 C1.367190 3.690100 2.088537 3.312500 2.984375 3.312500 C4.005213 3.312500 4.893225 3.791662 5.648438 4.750000 C6.403650 5.708338 7.046872 7.072908 7.578125 8.843750 L5.984375 9.343750 C5.744790 8.531246 5.450523 7.786462 5.101562 7.109375 C4.752602 6.432288 4.390627 5.890627 4.015625 5.484375 C3.640623 5.078123 3.296877 4.875000 2.984375 4.875000 C2.630207 4.875000 2.330730 5.140622 2.085938 5.671875 C1.841145 6.203128 1.718750 6.895829 1.718750 7.750000 C1.718750 8.395837 1.786458 9.093746 1.921875 9.843750 C2.057292 10.593754 2.223957 11.234372 2.421875 11.765625 Z M10.468750 15.546875 C9.322911 15.546875 8.143235 15.510417 6.929688 15.437500 C5.716140 15.364583 4.554693 15.252605 3.445312 15.101562 C2.335932 14.950520 1.359379 14.770834 0.515625 14.562500 L0.953125 12.906250 C1.755212 13.104168 2.682286 13.273437 3.734375 13.414062 C4.786464 13.554688 5.893223 13.658854 7.054688 13.726562 C8.216152 13.794271 9.354161 13.828125 10.468750 13.828125 C11.583339 13.828125 12.721348 13.794271 13.882812 13.726562 C15.044277 13.658854 16.153641 13.554688 17.210938 13.414062 C18.268234 13.273437 19.192704 13.104168 19.984375 12.906250 L20.421875 14.562500 C19.578121 14.770834 18.601568 14.950520 17.492188 15.101562 C16.382807 15.252605 15.223964 15.364583 14.015625 15.437500 C12.807286 15.510417 11.625006 15.546875 10.468750 15.546875 Z M11.375000 19.671875 L11.375000 16.812500 L13.093750 16.812500 L13.093750 17.890625 C13.333335 17.890625 13.588540 17.880208 13.859375 17.859375 C14.130210 17.838542 14.380207 17.807292 14.609375 17.765625 L14.390625 14.546875 L16.109375 14.437500 L16.437500 19.265625 C15.677080 19.421876 14.856775 19.528646 13.976562 19.585938 C13.096350 19.643229 12.229171 19.671875 11.375000 19.671875 Z M19.984375 12.750000 L18.515625 11.765625 C18.723959 11.234372 18.893229 10.593754 19.023438 9.843750 C19.153646 9.093746 19.218750 8.395837 19.218750 7.750000 C19.218750 6.895829 19.098960 6.203128 18.859375 5.671875 C18.619790 5.140622 18.317710 4.875000 17.953125 4.875000 C17.640623 4.875000 17.296877 5.078123 16.921875 5.484375 C16.546873 5.890627 16.184898 6.432288 15.835938 7.109375 C15.486977 7.786462 15.192710 8.531246 14.953125 9.343750 L13.359375 8.843750 C13.890628 7.072908 14.536455 5.708338 15.296875 4.750000 C16.057295 3.791662 16.942703 3.312500 17.953125 3.312500 C18.848963 3.312500 19.570310 3.690100 20.117188 4.445312 C20.664065 5.200525 20.937500 6.302076 20.937500 7.750000 C20.937500 8.343753 20.890625 8.979163 20.796875 9.656250 C20.703125 10.333337 20.585938 10.955726 20.445312 11.523438 C20.304687 12.091149 20.151042 12.499999 19.984375 12.750000 Z M6.515625 3.000000 C6.234374 3.072917 5.940106 3.031251 5.632812 2.875000 C5.325519 2.718749 5.067709 2.510418 4.859375 2.250000 C4.651041 1.989582 4.546875 1.739585 4.546875 1.500000 C4.546875 0.979164 5.080724 0.598960 6.148438 0.359375 C7.216151 0.119790 8.656241 -0.000000 10.468750 -0.000000 C12.281259 -0.000000 13.721349 0.119790 14.789062 0.359375 C15.856776 0.598960 16.390625 0.979164 16.390625 1.500000 C16.390625 1.739585 16.283855 1.989582 16.070312 2.250000 C15.856770 2.510418 15.598960 2.718749 15.296875 2.875000 C14.994790 3.031251 14.703126 3.072917 14.421875 3.000000 C13.776038 2.833333 13.117191 2.708334 12.445312 2.625000 C11.773434 2.541666 11.114587 2.500000 10.468750 2.500000 C9.822913 2.500000 9.164066 2.541666 8.492188 2.625000 C7.820309 2.708334 7.161462 2.833333 6.515625 3.000000 Z M30.781250 27.343750" /></svg>