<svg version="1.1" xmlns="http://www.w3.org/2000/svg" style="fill:rgba(0,0,0,1.0)" width="256" height="256" viewBox="0 0 36.875 32.8125"><path fill="rgb(255, 255, 255)" d="M16.562500 32.812500 C14.187488 32.812500 11.992198 32.403650 9.976562 31.585938 C7.960927 30.768225 6.208341 29.619799 4.718750 28.140625 C3.229159 26.661451 2.070317 24.924489 1.242188 22.929688 C0.414058 20.934886 0.000000 18.760428 0.000000 16.406250 C0.000000 14.052072 0.414058 11.877614 1.242188 9.882812 C2.070317 7.888011 3.229159 6.151049 4.718750 4.671875 C6.208341 3.192701 7.960927 2.044275 9.976562 1.226562 C11.992198 0.408850 14.187488 -0.000000 16.562500 -0.000000 C18.937512 -0.000000 21.132802 0.408850 23.148438 1.226562 C25.164073 2.044275 26.916659 3.192701 28.406250 4.671875 C29.895841 6.151049 31.054683 7.888011 31.882812 9.882812 C32.710942 11.877614 33.125000 14.052072 33.125000 16.406250 C33.125000 18.760428 32.710942 20.934886 31.882812 22.929688 C31.054683 24.924489 29.895841 26.661451 28.406250 28.140625 C26.916659 29.619799 25.164073 30.768225 23.148438 31.585938 C21.132802 32.403650 18.937512 32.812500 16.562500 32.812500 Z M11.609375 27.453125 L10.515625 26.140625 C12.567719 24.421866 14.583323 23.562500 16.562500 23.562500 C18.541677 23.562500 20.557281 24.421866 22.609375 26.140625 L21.515625 27.453125 C19.765616 26.005201 18.114591 25.281250 16.562500 25.281250 C15.010409 25.281250 13.359384 26.005201 11.609375 27.453125 Z M11.656250 21.968750 C11.052080 21.968750 10.536460 21.723961 10.109375 21.234375 C9.682290 20.744789 9.468750 20.156253 9.468750 19.468750 C9.468750 19.104165 9.533854 18.760418 9.664062 18.437500 C9.794271 18.114582 9.968749 17.838543 10.187500 17.609375 C9.781248 17.401041 9.401043 17.223959 9.046875 17.078125 C8.692707 16.932291 8.338543 16.802084 7.984375 16.687500 L8.515625 15.046875 C9.661464 15.432294 10.757807 15.919268 11.804688 16.507812 C12.851568 17.096357 13.859370 17.802079 14.828125 18.625000 L13.828125 19.828125 C13.817708 19.890625 13.807292 19.955729 13.796875 20.023438 C13.786458 20.091146 13.770833 20.161458 13.750000 20.234375 C13.614583 20.734378 13.354169 21.148436 12.968750 21.476562 C12.583331 21.804689 12.145836 21.968750 11.656250 21.968750 Z M16.562500 31.093750 C18.677094 31.093750 20.627595 30.726566 22.414062 29.992188 C24.200530 29.257809 25.752598 28.231777 27.070312 26.914062 C28.388027 25.596348 29.414059 24.041676 30.148438 22.250000 C30.882816 20.458324 31.250000 18.510427 31.250000 16.406250 C31.250000 14.291656 30.882816 12.341155 30.148438 10.554688 C29.414059 8.768220 28.388027 7.216152 27.070312 5.898438 C25.752598 4.580723 24.200530 3.554691 22.414062 2.820312 C20.627595 2.085934 18.677094 1.718750 16.562500 1.718750 C14.458323 1.718750 12.513030 2.085934 10.726562 2.820312 C8.940095 3.554691 7.385423 4.580723 6.062500 5.898438 C4.739577 7.216152 3.710941 8.768220 2.976562 10.554688 C2.242184 12.341155 1.875000 14.291656 1.875000 16.406250 C1.875000 18.510427 2.242184 20.458324 2.976562 22.250000 C3.710941 24.041676 4.736973 25.596348 6.054688 26.914062 C7.372402 28.231777 8.927074 29.257809 10.718750 29.992188 C12.510426 30.726566 14.458323 31.093750 16.562500 31.093750 Z M21.468750 21.968750 C20.979164 21.968750 20.544273 21.804689 20.164062 21.476562 C19.783852 21.148436 19.520834 20.734378 19.375000 20.234375 C19.364583 20.161458 19.351563 20.091146 19.335938 20.023438 C19.320312 19.955729 19.307292 19.890625 19.296875 19.828125 L18.296875 18.625000 C19.265630 17.802079 20.276036 17.096357 21.328125 16.507812 C22.380214 15.919268 23.473953 15.432294 24.609375 15.046875 L25.140625 16.687500 C24.786457 16.802084 24.432293 16.932291 24.078125 17.078125 C23.723957 17.223959 23.343752 17.401041 22.937500 17.609375 C23.156251 17.838543 23.330729 18.114582 23.460938 18.437500 C23.591146 18.760418 23.656250 19.104165 23.656250 19.468750 C23.656250 20.156253 23.445315 20.744789 23.023438 21.234375 C22.601560 21.723961 22.083336 21.968750 21.468750 21.968750 Z M36.875000 27.343750" /></svg>