<svg version="1.1" xmlns="http://www.w3.org/2000/svg" style="fill:rgba(0,0,0,1.0)" width="256" height="256" viewBox="0 0 36.71875 32.8125"><path fill="rgb(255, 255, 255)" d="M2.734375 32.812500 C1.984371 32.812500 1.341149 32.544274 0.804688 32.007812 C0.268226 31.471351 0.000000 30.828129 0.000000 30.078125 L0.000000 2.718750 C0.000000 1.979163 0.270831 1.341149 0.812500 0.804688 C1.354169 0.268226 1.999996 -0.000000 2.750000 -0.000000 L30.078125 -0.000000 C30.828129 -0.000000 31.471351 0.268226 32.007812 0.804688 C32.544274 1.341149 32.812500 1.984371 32.812500 2.734375 L32.812500 30.078125 C32.812500 30.828129 32.544274 31.471351 32.007812 32.007812 C31.471351 32.544274 30.828129 32.812500 30.078125 32.812500 Z M5.484375 26.718750 L8.890625 26.718750 L8.890625 18.484375 L5.484375 18.484375 Z M11.625000 26.718750 L15.031250 26.718750 L15.031250 14.343750 L11.625000 14.343750 Z M17.765625 26.718750 L21.187500 26.718750 L21.187500 10.234375 L17.765625 10.234375 Z M23.921875 26.718750 L27.312500 26.718750 L27.312500 6.125000 L23.921875 6.125000 Z M36.718750 27.343750" /></svg>