<svg version="1.1" xmlns="http://www.w3.org/2000/svg" style="fill:rgba(0,0,0,1.0)" width="256" height="256" viewBox="0 0 36.71875 32.8125"><path fill="rgb(255, 255, 255)" d="M16.406250 32.812500 C14.593741 32.812500 12.867196 32.536461 11.226562 31.984375 C9.585929 31.432289 8.083340 30.653651 6.718750 29.648438 C5.354160 28.643224 4.169276 27.455736 3.164062 26.085938 C2.158849 24.716139 1.380211 23.210946 0.828125 21.570312 C0.276039 19.929679 0.000000 18.203134 0.000000 16.390625 C0.000000 14.578116 0.276039 12.851571 0.828125 11.210938 C1.380211 9.570304 2.158849 8.067715 3.164062 6.703125 C4.169276 5.338535 5.354160 4.156255 6.718750 3.156250 C8.083340 2.156245 9.585929 1.380211 11.226562 0.828125 C12.867196 0.276039 14.593741 -0.000000 16.406250 -0.000000 C18.218759 -0.000000 19.945304 0.276039 21.585938 0.828125 C23.226571 1.380211 24.729160 2.156245 26.093750 3.156250 C27.458340 4.156255 28.643224 5.338535 29.648438 6.703125 C30.653651 8.067715 31.432289 9.570304 31.984375 11.210938 C32.536461 12.851571 32.812500 14.578116 32.812500 16.390625 C32.812500 18.203134 32.536461 19.929679 31.984375 21.570312 C31.432289 23.210946 30.653651 24.716139 29.648438 26.085938 C28.643224 27.455736 27.458340 28.643224 26.093750 29.648438 C24.729160 30.653651 23.226571 31.432289 21.585938 31.984375 C19.945304 32.536461 18.218759 32.812500 16.406250 32.812500 Z M15.218750 25.359375 L17.593750 25.359375 L19.250000 14.453125 C19.427084 13.276036 19.768227 12.406253 20.273438 11.843750 C20.778648 11.281247 21.437496 11.000000 22.250000 11.000000 C23.062504 11.000000 23.757810 11.296872 24.335938 11.890625 C24.914065 12.484378 25.203125 13.197913 25.203125 14.031250 L27.703125 14.031250 C27.703125 13.010412 27.458336 12.083337 26.968750 11.250000 C26.479164 10.416663 25.822921 9.750002 25.000000 9.250000 C24.177079 8.749998 23.260422 8.500000 22.250000 8.500000 C20.770826 8.500000 19.557296 8.992183 18.609375 9.976562 C17.661454 10.960942 17.052085 12.328116 16.781250 14.078125 L16.406250 16.531250 L16.031250 14.078125 C15.770832 12.328116 15.164067 10.960942 14.210938 9.976562 C13.257808 8.992183 12.041674 8.500000 10.562500 8.500000 C9.562495 8.500000 8.648442 8.749998 7.820312 9.250000 C6.992183 9.750002 6.333336 10.416663 5.843750 11.250000 C5.354164 12.083337 5.109375 13.010412 5.109375 14.031250 L7.609375 14.031250 C7.609375 13.197913 7.898435 12.484378 8.476562 11.890625 C9.054690 11.296872 9.749996 11.000000 10.562500 11.000000 C11.375004 11.000000 12.033852 11.281247 12.539062 11.843750 C13.044273 12.406253 13.385416 13.276036 13.562500 14.453125 Z M36.718750 27.343750" /></svg>