<svg version="1.1" xmlns="http://www.w3.org/2000/svg" style="fill:rgba(0,0,0,1.0)" width="256" height="256" viewBox="0 0 36.71875 32.8125"><path fill="rgb(255, 255, 255)" d="M2.734375 32.812500 C1.984371 32.812500 1.341149 32.544274 0.804688 32.007812 C0.268226 31.471351 0.000000 30.828129 0.000000 30.078125 L0.000000 2.718750 C0.000000 1.979163 0.270831 1.341149 0.812500 0.804688 C1.354169 0.268226 1.999996 -0.000000 2.750000 -0.000000 L30.078125 -0.000000 C30.828129 -0.000000 31.471351 0.268226 32.007812 0.804688 C32.544274 1.341149 32.812500 1.984371 32.812500 2.734375 L32.812500 30.078125 C32.812500 30.828129 32.544274 31.471351 32.007812 32.007812 C31.471351 32.544274 30.828129 32.812500 30.078125 32.812500 Z M1.687500 21.234375 L3.953125 21.234375 L4.640625 18.890625 L8.234375 18.890625 L8.968750 21.234375 L11.203125 21.234375 L7.718750 11.359375 L5.156250 11.359375 Z M5.171875 17.140625 L6.437500 12.890625 L7.734375 17.140625 Z M13.218750 21.234375 L15.281250 21.234375 L15.281250 13.156250 L17.953125 13.156250 L17.953125 11.406250 L10.515625 11.406250 L10.515625 13.156250 L13.218750 13.156250 Z M19.437500 21.234375 L21.312500 21.234375 L21.312500 13.531250 L23.625000 21.234375 L25.515625 21.234375 L28.031250 13.546875 L28.031250 21.234375 L29.968750 21.234375 L29.968750 11.406250 L27.140625 11.406250 L24.640625 18.906250 L22.296875 11.406250 L19.437500 11.406250 Z M36.718750 27.343750" /></svg>