<svg version="1.1" xmlns="http://www.w3.org/2000/svg" style="fill:rgba(0,0,0,1.0)" width="256" height="256" viewBox="0 0 39.0625 32.8125"><path fill="rgb(255, 255, 255)" d="M24.187500 27.546875 C24.208333 27.265624 24.236979 26.984376 24.273438 26.703125 C24.309896 26.421874 24.359375 26.140626 24.421875 25.859375 L8.031250 25.781250 L5.125000 24.140625 C4.156245 24.140625 3.270837 24.242186 2.468750 24.445312 C1.666663 24.648439 0.843754 24.953123 0.000000 25.359375 C0.000000 24.588538 0.111978 23.817712 0.335938 23.046875 C0.559897 22.276038 1.031246 21.656252 1.750000 21.187500 C1.510415 21.052083 1.291668 20.809898 1.093750 20.460938 C0.895832 20.111977 0.796875 19.651045 0.796875 19.078125 C0.796875 18.380205 0.971352 17.828127 1.320312 17.421875 C1.669273 17.015623 2.088539 16.812500 2.578125 16.812500 C3.130211 16.812500 3.638019 16.953124 4.101562 17.234375 C4.565106 17.515626 4.940103 17.841144 5.226562 18.210938 C5.513022 18.580731 5.656250 18.895832 5.656250 19.156250 C5.656250 19.375001 5.572918 19.596353 5.406250 19.820312 C5.239582 20.044272 5.044272 20.244791 4.820312 20.421875 C4.596353 20.598959 4.390626 20.734375 4.203125 20.828125 C4.671877 20.828125 5.122394 20.875000 5.554688 20.968750 C5.986981 21.062500 6.395831 21.213541 6.781250 21.421875 L7.437500 20.843750 C6.927081 20.104163 6.523439 19.210943 6.226562 18.164062 C5.929686 17.117182 5.781250 16.072922 5.781250 15.031250 C5.781250 13.343742 5.950519 11.757820 6.289062 10.273438 C6.627606 8.789055 7.182288 7.166675 7.953125 5.406250 L5.093750 2.750000 C4.729165 2.416665 4.471355 2.104168 4.320312 1.812500 C4.169270 1.520832 4.093750 1.250001 4.093750 1.000000 C4.093750 0.666665 4.226561 0.416668 4.492188 0.250000 C4.757814 0.083332 5.130206 -0.000000 5.609375 -0.000000 L13.250000 -0.000000 C13.729169 -0.000000 14.187498 0.427079 14.625000 1.281250 L31.281250 1.281250 C32.208338 1.281250 33.039059 1.494790 33.773438 1.921875 C34.507816 2.348960 35.104164 2.919267 35.562500 3.632812 C36.020836 4.346358 36.302083 5.140621 36.406250 6.015625 L37.468750 15.093750 C37.541667 15.718753 37.447918 16.244790 37.187500 16.671875 L37.187500 27.546875 L34.718750 27.546875 L31.125000 24.156250 L28.671875 24.156250 L26.312500 27.546875 Z M5.875000 32.812500 C5.010412 32.812500 4.223962 32.601565 3.515625 32.179688 C2.807288 31.757810 2.242190 31.192712 1.820312 30.484375 C1.398435 29.776038 1.187500 28.994796 1.187500 28.140625 C1.187500 27.276037 1.398435 26.489587 1.820312 25.781250 C2.242190 25.072913 2.807288 24.507815 3.515625 24.085938 C4.223962 23.664060 5.010412 23.453125 5.875000 23.453125 C6.739588 23.453125 7.523434 23.664060 8.226562 24.085938 C8.929691 24.507815 9.492185 25.072913 9.914062 25.781250 C10.335940 26.489587 10.546875 27.276037 10.546875 28.140625 C10.546875 28.994796 10.335940 29.776038 9.914062 30.484375 C9.492185 31.192712 8.929691 31.757810 8.226562 32.179688 C7.523434 32.601565 6.739588 32.812500 5.875000 32.812500 Z M5.875000 30.937500 C6.645837 30.937500 7.304685 30.664065 7.851562 30.117188 C8.398440 29.570310 8.671875 28.911462 8.671875 28.140625 C8.671875 27.359371 8.398440 26.695315 7.851562 26.148438 C7.304685 25.601560 6.645837 25.328125 5.875000 25.328125 C5.093746 25.328125 4.429690 25.601560 3.882812 26.148438 C3.335935 26.695315 3.062500 27.359371 3.062500 28.140625 C3.062500 28.911462 3.335935 29.570310 3.882812 30.117188 C4.429690 30.664065 5.093746 30.937500 5.875000 30.937500 Z M2.578125 20.265625 C2.765626 20.265625 2.927083 20.148439 3.062500 19.914062 C3.197917 19.679686 3.265625 19.401043 3.265625 19.078125 C3.265625 18.755207 3.197917 18.479168 3.062500 18.250000 C2.927083 18.020832 2.765626 17.906250 2.578125 17.906250 C2.390624 17.906250 2.229167 18.020832 2.093750 18.250000 C1.958333 18.479168 1.890625 18.755207 1.890625 19.078125 C1.890625 19.401043 1.958333 19.679686 2.093750 19.914062 C2.229167 20.148439 2.390624 20.265625 2.578125 20.265625 Z M6.187500 13.828125 L6.187500 12.578125 L10.453125 12.578125 C10.744793 12.578125 10.890625 12.432293 10.890625 12.140625 L10.890625 6.187500 L12.140625 6.187500 L12.140625 12.203125 C12.140625 12.796878 12.020835 13.216145 11.781250 13.460938 C11.541665 13.705730 11.229169 13.828125 10.843750 13.828125 Z M15.421875 23.984375 L17.640625 23.984375 L17.640625 20.125000 C17.640625 19.864582 17.658854 19.656251 17.695312 19.500000 C17.731771 19.343749 17.786458 19.171876 17.859375 18.984375 L16.750000 18.984375 C16.593749 18.619790 16.515625 18.265627 16.515625 17.921875 C16.515625 17.557290 16.593749 17.203127 16.750000 16.859375 L21.453125 16.859375 L21.453125 15.546875 L23.171875 15.546875 L23.171875 23.984375 L25.812500 23.984375 L25.812500 18.687500 C25.812500 18.249998 25.927082 17.807294 26.156250 17.359375 C26.385418 16.911456 26.716144 16.536460 27.148438 16.234375 C27.580731 15.932290 28.093747 15.781250 28.687500 15.781250 L35.171875 15.781250 C35.390626 15.781250 35.531250 15.723959 35.593750 15.609375 C35.656250 15.494791 35.671875 15.291668 35.640625 15.000000 L34.625000 6.234375 C34.552083 5.598955 34.359377 5.039065 34.046875 4.554688 C33.734373 4.070310 33.338544 3.690106 32.859375 3.414062 C32.380206 3.138019 31.854170 3.000000 31.281250 3.000000 L13.437500 3.000000 C13.312499 2.718749 13.148439 2.434897 12.945312 2.148438 C12.742186 1.861978 12.546876 1.718750 12.359375 1.718750 L7.859375 1.718750 L8.046875 1.250000 L12.140625 4.984375 L12.140625 6.187500 L9.546875 6.187500 C9.057289 7.375006 8.671876 8.414058 8.390625 9.304688 C8.109374 10.195317 7.914063 11.052079 7.804688 11.875000 C7.695312 12.697921 7.640625 13.609370 7.640625 14.609375 C7.640625 14.984377 7.656250 15.374998 7.687500 15.781250 L15.421875 15.781250 Z M21.453125 17.375000 L21.453125 7.375000 L15.421875 7.375000 L15.421875 17.093750 L13.703125 17.093750 L13.703125 5.656250 L29.015625 5.656250 C29.286460 5.656250 29.513020 5.747395 29.695312 5.929688 C29.877605 6.111980 29.968750 6.338540 29.968750 6.609375 L29.968750 17.000000 L28.250000 17.000000 L28.250000 7.859375 C28.250000 7.536457 28.088543 7.375000 27.765625 7.375000 L23.171875 7.375000 L23.171875 17.375000 Z M30.562500 32.812500 C29.697912 32.812500 28.911462 32.601565 28.203125 32.179688 C27.494788 31.757810 26.929690 31.192712 26.507812 30.484375 C26.085935 29.776038 25.875000 28.994796 25.875000 28.140625 C25.875000 27.276037 26.085935 26.489587 26.507812 25.781250 C26.929690 25.072913 27.494788 24.507815 28.203125 24.085938 C28.911462 23.664060 29.697912 23.453125 30.562500 23.453125 C31.427088 23.453125 32.210934 23.664060 32.914062 24.085938 C33.617191 24.507815 34.179685 25.072913 34.601562 25.781250 C35.023440 26.489587 35.234375 27.276037 35.234375 28.140625 C35.234375 28.994796 35.023440 29.776038 34.601562 30.484375 C34.179685 31.192712 33.617191 31.757810 32.914062 32.179688 C32.210934 32.601565 31.427088 32.812500 30.562500 32.812500 Z M30.562500 30.937500 C31.333337 30.937500 31.992185 30.664065 32.539062 30.117188 C33.085940 29.570310 33.359375 28.911462 33.359375 28.140625 C33.359375 27.359371 33.085940 26.695315 32.539062 26.148438 C31.992185 25.601560 31.333337 25.328125 30.562500 25.328125 C29.781246 25.328125 29.117190 25.601560 28.570312 26.148438 C28.023435 26.695315 27.750000 27.359371 27.750000 28.140625 C27.750000 28.911462 28.023435 29.570310 28.570312 30.117188 C29.117190 30.664065 29.781246 30.937500 30.562500 30.937500 Z M29.406250 19.390625 L33.625000 19.390625 L33.625000 17.906250 L29.406250 17.906250 Z M39.062500 27.343750" /></svg>