<svg version="1.1" xmlns="http://www.w3.org/2000/svg" style="fill:rgba(0,0,0,1.0)" width="256" height="256" viewBox="0 0 36.71875 32.8125"><path fill="rgb(255, 255, 255)" d="M2.734375 32.812500 C1.984371 32.812500 1.341149 32.544274 0.804688 32.007812 C0.268226 31.471351 0.000000 30.828129 0.000000 30.078125 L0.000000 2.718750 C0.000000 1.979163 0.270831 1.341149 0.812500 0.804688 C1.354169 0.268226 1.999996 -0.000000 2.750000 -0.000000 L30.078125 -0.000000 C30.828129 -0.000000 31.471351 0.268226 32.007812 0.804688 C32.544274 1.341149 32.812500 1.984371 32.812500 2.734375 L32.812500 30.078125 C32.812500 30.828129 32.544274 31.471351 32.007812 32.007812 C31.471351 32.544274 30.828129 32.812500 30.078125 32.812500 Z M13.625000 27.859375 C14.010419 27.859375 14.333332 27.726564 14.593750 27.460938 C14.854168 27.195311 14.984375 26.880210 14.984375 26.515625 C14.984375 26.078123 14.796877 25.671877 14.421875 25.296875 L12.484375 23.343750 L13.109375 22.859375 L11.375000 20.593750 L9.640625 22.203125 C9.265623 22.546877 9.078125 22.942706 9.078125 23.390625 C9.078125 23.786460 9.260415 24.166665 9.625000 24.531250 L12.296875 27.218750 C12.723960 27.645835 13.166664 27.859375 13.625000 27.859375 Z M14.937500 23.203125 L17.875000 23.203125 L20.968750 19.156250 L20.968750 18.281250 L11.843750 18.281250 L11.843750 19.156250 Z M19.187500 27.859375 C19.645836 27.859375 20.088540 27.645835 20.515625 27.218750 L23.187500 24.531250 C23.552085 24.166665 23.734375 23.786460 23.734375 23.390625 C23.734375 22.942706 23.546877 22.546877 23.171875 22.203125 L21.437500 20.593750 L19.703125 22.859375 L20.328125 23.343750 L18.390625 25.296875 C18.015623 25.671877 17.828125 26.078123 17.828125 26.515625 C17.828125 26.880210 17.958332 27.195311 18.218750 27.460938 C18.479168 27.726564 18.802081 27.859375 19.187500 27.859375 Z M12.265625 17.031250 L20.546875 17.031250 L20.546875 15.609375 L22.546875 16.468750 C22.713542 16.541667 22.859374 16.588542 22.984375 16.609375 C23.109376 16.630208 23.229166 16.640625 23.343750 16.640625 C23.625001 16.640625 23.895832 16.541668 24.156250 16.343750 L26.843750 14.359375 C27.229169 14.078124 27.421875 13.708336 27.421875 13.250000 C27.421875 12.874998 27.289064 12.552085 27.023438 12.281250 C26.757811 12.010415 26.427085 11.875000 26.031250 11.875000 C25.739582 11.875000 25.453126 11.973957 25.171875 12.171875 L23.109375 13.640625 L19.062500 11.921875 C18.718748 11.776041 18.315106 11.671875 17.851562 11.609375 C17.388019 11.546875 16.906252 11.515625 16.406250 11.515625 C15.906248 11.515625 15.424481 11.546875 14.960938 11.609375 C14.497394 11.671875 14.093752 11.776041 13.750000 11.921875 L9.703125 13.640625 L7.640625 12.171875 C7.359374 11.973957 7.072918 11.875000 6.781250 11.875000 C6.374998 11.875000 6.041668 12.013019 5.781250 12.289062 C5.520832 12.565106 5.390625 12.885415 5.390625 13.250000 C5.390625 13.708336 5.583331 14.078124 5.968750 14.359375 L8.656250 16.343750 C8.916668 16.541668 9.187499 16.640625 9.468750 16.640625 C9.583334 16.640625 9.703124 16.630208 9.828125 16.609375 C9.953126 16.588542 10.098958 16.541667 10.265625 16.468750 L12.265625 15.609375 Z M16.406250 11.000000 C17.125004 11.000000 17.776039 10.825523 18.359375 10.476562 C18.942711 10.127602 19.406248 9.658857 19.750000 9.070312 C20.093752 8.481768 20.265625 7.833337 20.265625 7.125000 C20.265625 6.416663 20.093752 5.770836 19.750000 5.187500 C19.406248 4.604164 18.942711 4.138023 18.359375 3.789062 C17.776039 3.440102 17.125004 3.265625 16.406250 3.265625 C15.697913 3.265625 15.049482 3.440102 14.460938 3.789062 C13.872393 4.138023 13.406252 4.604164 13.062500 5.187500 C12.718748 5.770836 12.546875 6.416663 12.546875 7.125000 C12.546875 7.833337 12.718748 8.481768 13.062500 9.070312 C13.406252 9.658857 13.872393 10.127602 14.460938 10.476562 C15.049482 10.825523 15.697913 11.000000 16.406250 11.000000 Z M36.718750 27.343750" /></svg>