<svg version="1.1" xmlns="http://www.w3.org/2000/svg" style="fill:rgba(0,0,0,1.0)" width="256" height="256" viewBox="0 0 37.5 32.8125"><path fill="rgb(255, 255, 255)" d="M16.984375 32.812500 C16.348955 32.812500 15.867189 32.674481 15.539062 32.398438 C15.210936 32.122394 14.942709 31.789064 14.734375 31.398438 C14.526041 31.007811 14.296876 30.632814 14.046875 30.273438 C13.796874 29.914061 13.427086 29.656251 12.937500 29.500000 C12.437498 29.333332 11.835941 29.020836 11.132812 28.562500 C10.429684 28.104164 9.718754 27.520837 9.000000 26.812500 C8.281246 26.104163 7.640628 25.289067 7.078125 24.367188 C6.515622 23.445308 6.119793 22.437505 5.890625 21.343750 L6.531250 21.687500 C6.270832 22.010418 5.927085 22.255207 5.500000 22.421875 C5.072915 22.588542 4.692710 22.671875 4.359375 22.671875 C3.817706 22.671875 3.328127 22.463544 2.890625 22.046875 C2.453123 21.630206 2.234375 21.125003 2.234375 20.531250 C2.234375 19.854163 2.390623 19.242190 2.703125 18.695312 C3.015627 18.148435 3.380206 17.658856 3.796875 17.226562 C4.213544 16.794269 4.585936 16.401043 4.914062 16.046875 C5.242189 15.692707 5.416667 15.375001 5.437500 15.093750 C5.562501 13.593743 5.885414 12.132820 6.406250 10.710938 C6.927086 9.289055 7.611975 7.997402 8.460938 6.835938 C9.309900 5.674473 10.276036 4.739587 11.359375 4.031250 L13.031250 5.000000 C11.937495 5.489586 10.973962 6.265620 10.140625 7.328125 C9.307288 8.390630 8.643232 9.638014 8.148438 11.070312 C7.653643 12.502611 7.354167 14.020825 7.250000 15.625000 C7.229167 16.000002 7.057293 16.369790 6.734375 16.734375 C6.411457 17.098960 6.046877 17.476561 5.640625 17.867188 C5.234373 18.257814 4.877606 18.671873 4.570312 19.109375 C4.263019 19.546877 4.109375 20.020831 4.109375 20.531250 C4.109375 20.666667 4.156250 20.770833 4.250000 20.843750 C4.343750 20.916667 4.447916 20.953125 4.562500 20.953125 C4.770834 20.953125 5.067706 20.851564 5.453125 20.648438 C5.838544 20.445311 6.296872 20.078128 6.828125 19.546875 L7.312500 19.796875 C7.562501 21.265632 8.041663 22.554682 8.750000 23.664062 C9.458337 24.773443 10.242183 25.674476 11.101562 26.367188 C11.960942 27.059899 12.723955 27.520832 13.390625 27.750000 C14.088545 27.989585 14.617186 28.294269 14.976562 28.664062 C15.335939 29.033856 15.606770 29.406248 15.789062 29.781250 C15.971355 30.156252 16.140624 30.468749 16.296875 30.718750 C16.453126 30.968751 16.682290 31.093750 16.984375 31.093750 C17.390627 31.093750 17.687499 30.960939 17.875000 30.695312 C18.062501 30.429686 18.156250 30.052086 18.156250 29.562500 C18.156250 29.374999 18.143229 29.158855 18.117188 28.914062 C18.091146 28.669270 18.046875 28.411460 17.984375 28.140625 C19.453132 27.765623 20.697912 27.041672 21.718750 25.968750 C22.500004 26.427086 23.098956 26.846352 23.515625 27.226562 C23.932294 27.606773 24.257811 27.911457 24.492188 28.140625 C24.726564 28.369793 24.963540 28.484375 25.203125 28.484375 C25.432293 28.484375 25.609374 28.385418 25.734375 28.187500 C25.859376 27.989582 25.921875 27.734377 25.921875 27.421875 C25.921875 26.994790 25.778647 26.578127 25.492188 26.171875 C25.205728 25.765623 24.692712 25.239587 23.953125 24.593750 C24.411461 23.697912 24.640625 22.708339 24.640625 21.625000 C24.640625 21.187498 24.601563 20.742190 24.523438 20.289062 C24.445312 19.835935 24.333334 19.375002 24.187500 18.906250 L24.765625 18.406250 C25.380211 19.166670 25.830728 19.666665 26.117188 19.906250 C26.403647 20.145835 26.645832 20.265625 26.843750 20.265625 C27.010418 20.265625 27.151041 20.200521 27.265625 20.070312 C27.380209 19.940104 27.437500 19.791668 27.437500 19.625000 C27.437500 19.364582 27.289064 18.997398 26.992188 18.523438 C26.695311 18.049477 26.309898 17.536461 25.835938 16.984375 C25.361977 16.432289 24.854169 15.916669 24.312500 15.437500 C23.999998 12.906237 23.291672 10.731780 22.187500 8.914062 C21.083328 7.096345 19.770841 5.822920 18.250000 5.093750 L19.687500 3.968750 C20.770839 4.614587 21.752600 5.479161 22.632812 6.562500 C23.513025 7.645839 24.252601 8.880201 24.851562 10.265625 C25.450524 11.651049 25.864582 13.124992 26.093750 14.687500 C26.927088 15.479171 27.666663 16.322912 28.312500 17.218750 C28.958337 18.114588 29.281250 18.979162 29.281250 19.812500 C29.281250 20.416670 29.096356 20.955727 28.726562 21.429688 C28.356769 21.903648 27.864586 22.140625 27.250000 22.140625 C26.677080 22.140625 26.213543 21.963543 25.859375 21.609375 L26.500000 21.468750 C26.510417 21.531250 26.515625 21.591146 26.515625 21.648438 C26.515625 21.705729 26.515625 21.770833 26.515625 21.843750 C26.515625 22.281252 26.460938 22.763018 26.351562 23.289062 C26.242187 23.815107 26.093751 24.333331 25.906250 24.843750 L25.296875 23.921875 C26.005212 24.557295 26.523436 25.166664 26.851562 25.750000 C27.179689 26.333336 27.343750 26.916664 27.343750 27.500000 C27.343750 28.229170 27.132815 28.835935 26.710938 29.320312 C26.289060 29.804690 25.786461 30.046875 25.203125 30.046875 C24.796873 30.046875 24.442710 29.934897 24.140625 29.710938 C23.838540 29.486978 23.513023 29.213543 23.164062 28.890625 C22.815102 28.567707 22.354170 28.260418 21.781250 27.968750 C21.395831 28.281252 21.023439 28.539061 20.664062 28.742188 C20.304686 28.945314 19.932294 29.119791 19.546875 29.265625 C19.567708 29.369792 19.580729 29.471354 19.585938 29.570312 C19.591146 29.669271 19.593750 29.776041 19.593750 29.890625 C19.593750 30.744796 19.367190 31.445310 18.914062 31.992188 C18.460935 32.539065 17.817712 32.812500 16.984375 32.812500 Z M6.406250 12.093750 C6.062498 12.093750 5.742189 12.026042 5.445312 11.890625 C5.148436 11.755208 4.927084 11.567710 4.781250 11.328125 C4.552082 11.390625 4.307293 11.421875 4.046875 11.421875 C3.567706 11.421875 3.138023 11.320314 2.757812 11.117188 C2.377602 10.914061 2.156250 10.635418 2.093750 10.281250 C1.552081 10.281250 1.067710 10.158855 0.640625 9.914062 C0.213540 9.669270 0.000000 9.333335 0.000000 8.906250 C0.000000 8.666665 0.078124 8.450522 0.234375 8.257812 C0.390626 8.065103 0.614582 7.843751 0.906250 7.593750 L4.343750 4.687500 C4.781252 4.322915 5.335934 4.184895 6.007812 4.273438 C6.679691 4.361980 7.260414 4.645831 7.750000 5.125000 L10.015625 7.328125 L9.140625 8.234375 L6.875000 6.031250 C6.614582 5.770832 6.307293 5.606771 5.953125 5.539062 C5.598957 5.471354 5.333334 5.510416 5.156250 5.656250 L1.718750 8.562500 C1.645833 8.625000 1.572917 8.684896 1.500000 8.742188 C1.427083 8.799479 1.354167 8.854166 1.281250 8.906250 C1.395834 8.947917 1.526041 8.979167 1.671875 9.000000 C1.817709 9.020833 1.958333 9.031250 2.093750 9.031250 C2.562502 9.031250 3.039060 8.882814 3.523438 8.585938 C4.007815 8.289061 4.531247 7.770837 5.093750 7.031250 L5.937500 7.718750 C5.541665 8.239586 5.153648 8.671873 4.773438 9.015625 C4.393227 9.359377 3.875003 9.687498 3.218750 10.000000 C3.343751 10.062500 3.479166 10.106771 3.625000 10.132812 C3.770834 10.158854 3.911458 10.171875 4.046875 10.171875 C4.609378 10.171875 5.104165 10.007814 5.531250 9.679688 C5.958335 9.351561 6.364581 8.937502 6.750000 8.437500 L7.593750 9.078125 C7.333332 9.432293 7.080730 9.744790 6.835938 10.015625 C6.591145 10.286460 6.338543 10.510416 6.078125 10.687500 L5.921875 10.796875 C5.994792 10.828125 6.075520 10.851562 6.164062 10.867188 C6.252605 10.882813 6.343750 10.890625 6.437500 10.890625 C6.677085 10.890625 6.919270 10.825521 7.164062 10.695312 C7.408855 10.565104 7.614582 10.328127 7.781250 9.984375 L7.656250 11.734375 C7.270831 11.973960 6.854169 12.093750 6.406250 12.093750 Z M11.843750 13.718750 C11.416665 13.718750 10.979169 13.606772 10.531250 13.382812 C10.083331 13.158853 9.713543 12.864585 9.421875 12.500000 L10.515625 11.625000 C10.890627 12.083336 11.333331 12.312500 11.843750 12.312500 C12.302086 12.312500 12.656249 12.109377 12.906250 11.703125 L14.125000 12.421875 C13.895832 12.807294 13.572919 13.119790 13.156250 13.359375 C12.739581 13.598960 12.302086 13.718750 11.843750 13.718750 Z M15.468750 17.250000 C14.958331 17.250000 14.442711 17.135418 13.921875 16.906250 C13.401039 16.677082 13.005210 16.390627 12.734375 16.046875 L13.828125 15.171875 C13.973959 15.348959 14.208332 15.505208 14.531250 15.640625 C14.854168 15.776042 15.166665 15.843750 15.468750 15.843750 C15.770835 15.843750 16.083332 15.776042 16.406250 15.640625 C16.729168 15.505208 16.963541 15.348959 17.109375 15.171875 L18.203125 16.046875 C17.932290 16.390627 17.536461 16.677082 17.015625 16.906250 C16.494789 17.135418 15.979169 17.250000 15.468750 17.250000 Z M18.687500 13.718750 C17.666662 13.718750 16.901044 13.286463 16.390625 12.421875 L17.609375 11.703125 C17.838543 12.109377 18.197914 12.312500 18.687500 12.312500 C19.166669 12.312500 19.609373 12.078127 20.015625 11.609375 L21.078125 12.515625 C20.411455 13.317712 19.614588 13.718750 18.687500 13.718750 Z M15.640625 6.140625 C14.130201 6.140625 12.750006 6.002606 11.500000 5.726562 C10.249994 5.450519 9.252608 5.080731 8.507812 4.617188 C7.763017 4.153644 7.390625 3.640628 7.390625 3.078125 C7.390625 2.505205 7.763017 1.986981 8.507812 1.523438 C9.252608 1.059894 10.249994 0.690106 11.500000 0.414062 C12.750006 0.138019 14.130201 -0.000000 15.640625 -0.000000 C16.463546 -0.000000 17.351558 0.062499 18.304688 0.187500 C19.257817 0.312501 20.158850 0.502603 21.007812 0.757812 C21.856775 1.013022 22.549476 1.333331 23.085938 1.718750 C23.622399 2.104169 23.890625 2.557289 23.890625 3.078125 C23.890625 3.640628 23.518233 4.153644 22.773438 4.617188 C22.028642 5.080731 21.033860 5.450519 19.789062 5.726562 C18.544265 6.002606 17.161466 6.140625 15.640625 6.140625 Z M15.640625 3.796875 C16.921881 3.796875 18.020829 3.674480 18.937500 3.429688 C19.854171 3.184895 20.312500 2.890627 20.312500 2.546875 C20.312500 2.203123 19.854171 1.908855 18.937500 1.664062 C18.020829 1.419270 16.921881 1.296875 15.640625 1.296875 C14.359369 1.296875 13.260421 1.419270 12.343750 1.664062 C11.427079 1.908855 10.968750 2.203123 10.968750 2.546875 C10.968750 2.890627 11.427079 3.184895 12.343750 3.429688 C13.260421 3.674480 14.359369 3.796875 15.640625 3.796875 Z M25.843750 12.703125 C25.739583 12.703125 25.638021 12.695313 25.539062 12.679688 C25.440104 12.664062 25.343750 12.645833 25.250000 12.625000 L24.859375 10.984375 C25.067709 11.119792 25.236979 11.221354 25.367188 11.289062 C25.497396 11.356771 25.640624 11.390625 25.796875 11.390625 C25.848959 11.390625 25.908854 11.385417 25.976562 11.375000 C26.044271 11.364583 26.114583 11.348958 26.187500 11.328125 C26.052083 11.213541 25.903647 11.070313 25.742188 10.898438 C25.580728 10.726562 25.395834 10.515626 25.187500 10.265625 L25.953125 9.671875 C26.307293 10.109377 26.643228 10.401041 26.960938 10.546875 C27.278647 10.692709 27.677081 10.776042 28.156250 10.796875 C28.208334 10.796875 28.257812 10.796875 28.304688 10.796875 C28.351563 10.796875 28.401041 10.796875 28.453125 10.796875 L28.296875 10.687500 C28.036457 10.510416 27.783855 10.286460 27.539062 10.015625 C27.294270 9.744790 27.041668 9.432293 26.781250 9.078125 L27.625000 8.390625 C28.020835 8.901044 28.427081 9.325519 28.843750 9.664062 C29.260419 10.002606 29.755205 10.171875 30.328125 10.171875 C30.442709 10.171875 30.572916 10.166667 30.718750 10.156250 C30.864584 10.145833 30.958333 10.135417 31.000000 10.125000 C30.406247 9.729165 29.927085 9.356773 29.562500 9.007812 C29.197915 8.658852 28.822919 8.229169 28.437500 7.718750 L29.281250 7.031250 C29.843753 7.770837 30.380206 8.289061 30.890625 8.585938 C31.401044 8.882814 31.864581 9.031250 32.281250 9.031250 C32.427084 9.031250 32.572916 9.018229 32.718750 8.992188 C32.864584 8.966146 32.989583 8.937500 33.093750 8.906250 C33.020833 8.854166 32.950521 8.804688 32.882812 8.757812 C32.815104 8.710937 32.739584 8.651042 32.656250 8.578125 L29.515625 5.906250 C29.192707 5.635415 28.843752 5.523437 28.468750 5.570312 C28.093748 5.617188 27.770835 5.770832 27.500000 6.031250 L23.875000 9.562500 L23.203125 8.468750 L26.625000 5.125000 C27.114586 4.645831 27.708330 4.372396 28.406250 4.304688 C29.104170 4.236979 29.744789 4.447914 30.328125 4.937500 L33.468750 7.593750 C33.770835 7.843751 33.997395 8.065103 34.148438 8.257812 C34.299480 8.450522 34.375000 8.666665 34.375000 8.906250 C34.375000 9.333335 34.161460 9.669270 33.734375 9.914062 C33.307290 10.158855 32.817711 10.281250 32.265625 10.281250 C32.213541 10.635418 31.997398 10.914061 31.617188 11.117188 C31.236977 11.320314 30.807294 11.421875 30.328125 11.421875 C30.078124 11.421875 29.833335 11.390625 29.593750 11.328125 C29.458333 11.567710 29.242189 11.755208 28.945312 11.890625 C28.648436 12.026042 28.322918 12.093750 27.968750 12.093750 C27.885416 12.093750 27.794271 12.088542 27.695312 12.078125 C27.596354 12.067708 27.500000 12.052083 27.406250 12.031250 C27.260416 12.239584 27.041668 12.403645 26.750000 12.523438 C26.458332 12.643230 26.156252 12.703125 25.843750 12.703125 Z M37.500000 27.343750" /></svg>