<svg version="1.1" xmlns="http://www.w3.org/2000/svg" style="fill:rgba(0,0,0,1.0)" width="256" height="256" viewBox="0 0 33.125 32.8125"><path fill="rgb(255, 255, 255)" d="M16.109375 32.812500 C15.213537 32.812500 14.497399 32.533857 13.960938 31.976562 C13.424476 31.419268 13.156250 30.692713 13.156250 29.796875 L13.156250 24.859375 C12.770831 25.078126 12.338544 25.187500 11.859375 25.187500 C11.317706 25.187500 10.835940 25.041668 10.414062 24.750000 C9.992185 24.458332 9.656251 24.057294 9.406250 23.546875 C8.906248 23.911460 8.333337 24.093750 7.687500 24.093750 C7.156247 24.093750 6.674481 23.953126 6.242188 23.671875 C5.809894 23.390624 5.468751 23.015627 5.218750 22.546875 C4.791665 22.776043 4.312503 22.890625 3.781250 22.890625 C2.677078 22.890625 1.770837 22.111987 1.062500 20.554688 C0.354163 18.997388 0.000000 16.848972 0.000000 14.109375 C0.000000 11.255194 0.317705 8.700532 0.953125 6.445312 C1.588545 4.190093 2.598951 2.041677 3.984375 -0.000000 L17.312500 -0.000000 C17.447917 0.989588 17.609374 1.820309 17.796875 2.492188 C17.984376 3.164066 18.236978 3.744789 18.554688 4.234375 C18.872397 4.723961 19.286456 5.203123 19.796875 5.671875 C20.223960 6.057294 20.614582 6.479164 20.968750 6.937500 C21.322918 7.395836 21.664061 7.924476 21.992188 8.523438 C22.320314 9.122399 22.648436 9.809892 22.976562 10.585938 C23.304689 11.361983 23.651040 12.255203 24.015625 13.265625 L24.140625 13.609375 C24.411460 14.338545 24.726561 15.036455 25.085938 15.703125 C25.445314 16.369795 25.625000 17.067705 25.625000 17.796875 C25.625000 18.526045 25.361982 19.161456 24.835938 19.703125 C24.309893 20.244794 23.687504 20.515625 22.968750 20.515625 C22.499998 20.515625 22.059898 20.393230 21.648438 20.148438 C21.236977 19.903645 20.833335 19.510419 20.437500 18.968750 C20.041665 18.427081 19.630210 17.718754 19.203125 16.843750 L19.203125 29.796875 C19.203125 30.692713 18.911461 31.419268 18.328125 31.976562 C17.744789 32.533857 17.005213 32.812500 16.109375 32.812500 Z M16.109375 31.093750 C16.536460 31.093750 16.872395 30.960939 17.117188 30.695312 C17.361980 30.429686 17.484375 30.078127 17.484375 29.640625 L17.484375 14.125000 L19.281250 13.453125 C19.927087 14.838549 20.463540 15.919267 20.890625 16.695312 C21.317710 17.471358 21.692707 18.015623 22.015625 18.328125 C22.338543 18.640627 22.656248 18.796875 22.968750 18.796875 C23.239585 18.796875 23.450520 18.710938 23.601562 18.539062 C23.752605 18.367187 23.828125 18.119793 23.828125 17.796875 C23.828125 17.536457 23.739584 17.177086 23.562500 16.718750 C23.385416 16.260414 23.187501 15.799481 22.968750 15.335938 C22.749999 14.872394 22.578126 14.494793 22.453125 14.203125 L22.312500 13.859375 C21.833331 12.692702 21.424481 11.723962 21.085938 10.953125 C20.747394 10.182288 20.440106 9.549482 20.164062 9.054688 C19.888019 8.559893 19.614585 8.143231 19.343750 7.804688 C19.072915 7.466144 18.765627 7.140627 18.421875 6.828125 C17.651038 6.119788 17.057294 5.380212 16.640625 4.609375 C16.223956 3.838538 15.901043 2.875006 15.671875 1.718750 L5.046875 1.718750 C3.942703 3.510426 3.138023 5.393219 2.632812 7.367188 C2.127602 9.341156 1.875000 11.588529 1.875000 14.109375 C1.875000 15.442715 1.958332 16.643224 2.125000 17.710938 C2.291668 18.778651 2.518228 19.622393 2.804688 20.242188 C3.091147 20.861982 3.416665 21.171875 3.781250 21.171875 C4.427087 21.171875 4.750000 20.932294 4.750000 20.453125 L4.750000 18.546875 L6.312500 18.546875 L6.312500 20.453125 C6.312500 21.015628 6.445311 21.476561 6.710938 21.835938 C6.976564 22.195314 7.302081 22.375000 7.687500 22.375000 C8.062502 22.375000 8.364582 22.265626 8.593750 22.046875 C8.822918 21.828124 8.937500 21.546877 8.937500 21.203125 L8.937500 18.687500 L10.500000 18.687500 L10.500000 21.671875 C10.500000 22.119794 10.630207 22.531248 10.890625 22.906250 C11.151043 23.281252 11.473956 23.468750 11.859375 23.468750 C12.223960 23.468750 12.531249 23.330731 12.781250 23.054688 C13.031251 22.778644 13.156250 22.447919 13.156250 22.062500 L13.156250 18.812500 L14.718750 18.812500 L14.718750 29.640625 C14.718750 30.078127 14.843749 30.429686 15.093750 30.695312 C15.343751 30.960939 15.682290 31.093750 16.109375 31.093750 Z M33.125000 27.343750" /></svg>