<svg version="1.1" xmlns="http://www.w3.org/2000/svg" style="fill:rgba(0,0,0,1.0)" width="256" height="256" viewBox="0 0 39.3125 29.6875"><path fill="rgb(255, 255, 255)" d="M16.328125 29.687500 C13.098942 29.687500 10.156263 29.309900 7.500000 28.554688 C4.843737 27.799475 2.343762 26.635425 0.000000 25.062500 L0.000000 10.156250 C0.979172 9.979166 1.835934 9.760418 2.570312 9.500000 C3.304691 9.239582 3.966143 8.908856 4.554688 8.507812 C5.143232 8.106769 5.703122 7.614586 6.234375 7.031250 C6.744794 6.468747 7.302080 5.968752 7.906250 5.531250 C8.510420 5.093748 9.218746 4.674481 10.031250 4.273438 C10.843754 3.872394 11.822911 3.447919 12.968750 3.000000 C13.427086 2.822916 13.817707 2.664063 14.140625 2.523438 C14.463543 2.382812 14.817706 2.229167 15.203125 2.062500 C15.786461 1.802082 16.359372 1.510418 16.921875 1.187500 C17.484378 0.864582 18.049476 0.585939 18.617188 0.351562 C19.184899 0.117186 19.755205 -0.000000 20.328125 -0.000000 C21.171879 -0.000000 21.908851 0.278643 22.539062 0.835938 C23.169274 1.393232 23.484375 2.119787 23.484375 3.015625 C23.484375 3.859379 23.171878 4.604163 22.546875 5.250000 C21.921872 5.895837 20.927090 6.541663 19.562500 7.187500 L18.531250 7.671875 L34.125000 7.671875 C35.302089 7.671875 36.242184 7.986976 36.945312 8.617188 C37.648441 9.247399 38.000000 10.052078 38.000000 11.031250 C38.000000 12.010422 37.648441 12.815101 36.945312 13.445312 C36.242184 14.075524 35.302089 14.390625 34.125000 14.390625 L28.750000 14.390625 C29.031251 14.890627 29.171875 15.437497 29.171875 16.031250 C29.171875 16.729170 28.994793 17.338539 28.640625 17.859375 C28.286457 18.380211 27.770837 18.786457 27.093750 19.078125 C27.510419 19.640628 27.718750 20.291663 27.718750 21.031250 C27.718750 21.697920 27.552085 22.286456 27.218750 22.796875 C26.885415 23.307294 26.432295 23.697915 25.859375 23.968750 C26.244794 24.479169 26.437500 25.046872 26.437500 25.671875 C26.437500 27.026048 25.609383 28.033851 23.953125 28.695312 C22.296867 29.356774 19.755225 29.687500 16.328125 29.687500 Z M16.328125 27.968750 C19.005222 27.968750 21.046868 27.773439 22.453125 27.382812 C23.859382 26.992186 24.562500 26.421879 24.562500 25.671875 C24.562500 25.338540 24.437501 25.041668 24.187500 24.781250 C23.937499 24.520832 23.604169 24.390625 23.187500 24.390625 L21.562500 24.390625 L21.562500 22.671875 L24.156250 22.671875 C24.750003 22.671875 25.179686 22.518231 25.445312 22.210938 C25.710939 21.903644 25.843750 21.510419 25.843750 21.031250 C25.843750 20.541664 25.710939 20.145835 25.445312 19.843750 C25.179686 19.541665 24.750003 19.390625 24.156250 19.390625 L21.718750 19.390625 L21.718750 17.671875 L25.296875 17.671875 C25.890628 17.671875 26.372394 17.518231 26.742188 17.210938 C27.111981 16.903644 27.296875 16.510419 27.296875 16.031250 C27.296875 15.708332 27.213542 15.424480 27.046875 15.179688 C26.880208 14.934895 26.645835 14.742188 26.343750 14.601562 C26.041665 14.460937 25.692710 14.390625 25.296875 14.390625 L21.875000 14.390625 L21.875000 12.671875 L34.125000 12.671875 C34.718753 12.671875 35.200519 12.518231 35.570312 12.210938 C35.940106 11.903644 36.125000 11.510419 36.125000 11.031250 C36.125000 10.552081 35.940106 10.158856 35.570312 9.851562 C35.200519 9.544269 34.718753 9.390625 34.125000 9.390625 L15.281250 9.390625 L14.765625 7.406250 L18.234375 5.828125 C19.588548 5.213539 20.489581 4.705731 20.937500 4.304688 C21.385419 3.903644 21.609375 3.473961 21.609375 3.015625 C21.609375 2.578123 21.479168 2.252605 21.218750 2.039062 C20.958332 1.825520 20.661460 1.718750 20.328125 1.718750 C19.953123 1.718750 19.505211 1.843749 18.984375 2.093750 C18.463539 2.343751 17.927086 2.630207 17.375000 2.953125 C16.822914 3.276043 16.312502 3.541666 15.843750 3.750000 C15.447915 3.927084 15.080731 4.085937 14.742188 4.226562 C14.403644 4.367188 14.000002 4.526041 13.531250 4.703125 C11.999992 5.286461 10.770838 5.854164 9.843750 6.406250 C8.916662 6.958336 8.109378 7.619788 7.421875 8.390625 C6.911456 8.963545 6.364586 9.466144 5.781250 9.898438 C5.197914 10.330731 4.583337 10.690103 3.937500 10.976562 C3.291663 11.263022 2.604170 11.484374 1.875000 11.640625 L1.875000 24.078125 C3.229173 24.963546 4.606764 25.695310 6.007812 26.273438 C7.408861 26.851565 8.942700 27.278644 10.609375 27.554688 C12.276050 27.830731 14.182281 27.968750 16.328125 27.968750 Z M39.312500 25.781250" /></svg>