<svg version="1.1" xmlns="http://www.w3.org/2000/svg" style="fill:rgba(0,0,0,1.0)" width="256" height="256" viewBox="0 0 35.90625 31.25"><path fill="rgb(255, 255, 255)" d="M2.093750 31.250000 C1.416663 31.250000 0.898439 31.088543 0.539062 30.765625 C0.179686 30.442707 0.000000 30.026044 0.000000 29.515625 C0.000000 28.640621 0.263018 27.598964 0.789062 26.390625 C1.315107 25.182286 2.044266 23.869799 2.976562 22.453125 C3.908859 21.036451 4.994785 19.567716 6.234375 18.046875 C7.473965 16.526034 8.807285 15.015632 10.234375 13.515625 C11.921883 11.744783 13.656241 10.049487 15.437500 8.429688 C17.218759 6.809888 18.958325 5.367194 20.656250 4.101562 C22.354175 2.835931 23.929680 1.835941 25.382812 1.101562 C26.835945 0.367184 28.072912 -0.000000 29.093750 -0.000000 C29.822920 -0.000000 30.354165 0.122395 30.687500 0.367188 C31.020835 0.611980 31.187500 0.994789 31.187500 1.515625 C31.187500 2.286462 30.945315 3.257807 30.460938 4.429688 C29.976560 5.601568 29.273442 6.924472 28.351562 8.398438 C27.429683 9.872403 26.317715 11.450512 25.015625 13.132812 C23.713535 14.815113 22.250008 16.546866 20.625000 18.328125 C19.302077 19.776049 17.981777 21.148431 16.664062 22.445312 C15.346348 23.742194 14.046881 24.927078 12.765625 26.000000 C11.484369 27.072922 10.229173 28.002600 9.000000 28.789062 C7.770827 29.575525 6.578131 30.182290 5.421875 30.609375 C4.265619 31.036460 3.156255 31.250000 2.093750 31.250000 Z M1.453125 25.125000 C2.661464 23.416658 4.072909 22.093755 5.687500 21.156250 C7.302091 20.218745 8.989575 19.750000 10.750000 19.750000 C11.395837 19.750000 11.929685 19.817708 12.351562 19.953125 C12.773440 20.088542 12.984375 20.260416 12.984375 20.468750 C12.984375 20.906252 12.486984 21.401039 11.492188 21.953125 C10.497391 22.505211 9.132821 23.059893 7.398438 23.617188 C5.664054 24.174482 3.682303 24.677081 1.453125 25.125000 Z M8.328125 16.843750 C9.036462 15.770828 9.916661 14.856775 10.968750 14.101562 C12.020839 13.346350 13.153640 12.770835 14.367188 12.375000 C15.580735 11.979165 16.770828 11.781250 17.937500 11.781250 C18.583337 11.781250 19.117185 11.848958 19.539062 11.984375 C19.960940 12.119792 20.171875 12.291666 20.171875 12.500000 C20.171875 12.895835 19.682297 13.325519 18.703125 13.789062 C17.723953 14.252606 16.348967 14.739581 14.578125 15.250000 C12.807283 15.760419 10.723970 16.291664 8.328125 16.843750 Z M2.593750 29.421875 C3.270837 29.421875 4.080724 29.218752 5.023438 28.812500 C5.966151 28.406248 6.997390 27.830733 8.117188 27.085938 C9.236985 26.341142 10.411452 25.463547 11.640625 24.453125 C12.869798 23.442703 14.122389 22.330735 15.398438 21.117188 C16.674486 19.903640 17.927077 18.625007 19.156250 17.281250 C20.635424 15.677075 21.989577 14.098966 23.218750 12.546875 C24.447923 10.994784 25.507808 9.539069 26.398438 8.179688 C27.289067 6.820306 27.976560 5.617193 28.460938 4.570312 C28.945315 3.523432 29.187500 2.703128 29.187500 2.109375 C29.187500 1.994791 29.169271 1.903646 29.132812 1.835938 C29.096354 1.768229 29.020834 1.734375 28.906250 1.734375 C27.791661 1.734375 26.372404 2.265620 24.648438 3.328125 C22.924471 4.390630 20.986990 5.859366 18.835938 7.734375 C16.684885 9.609384 14.411470 11.770821 12.015625 14.218750 C10.630201 15.635424 9.328131 17.057285 8.109375 18.484375 C6.890619 19.911465 5.820317 21.276035 4.898438 22.578125 C3.976558 23.880215 3.252607 25.065099 2.726562 26.132812 C2.200518 27.200526 1.937500 28.083330 1.937500 28.781250 C1.937500 28.989584 1.999999 29.148437 2.125000 29.257812 C2.250001 29.367188 2.406249 29.421875 2.593750 29.421875 Z M15.750000 9.343750 C17.041673 7.729159 18.408847 6.533858 19.851562 5.757812 C21.294278 4.981767 22.817700 4.593750 24.421875 4.593750 C25.067712 4.593750 25.601560 4.661458 26.023438 4.796875 C26.445315 4.932292 26.656250 5.104166 26.656250 5.312500 C26.656250 5.906253 25.755217 6.520830 23.953125 7.156250 C22.151033 7.791670 19.416685 8.520829 15.750000 9.343750 Z M35.906250 26.562500" /></svg>