<svg version="1.1" xmlns="http://www.w3.org/2000/svg" style="fill:rgba(0,0,0,1.0)" width="256" height="256" viewBox="0 0 29.0625 32.8125"><path fill="rgb(255, 255, 255)" d="M8.750000 32.812500 C7.124992 32.812500 5.651048 32.609377 4.328125 32.203125 C3.005202 31.796873 1.953129 31.242191 1.171875 30.539062 C0.390621 29.835934 0.000000 29.036463 0.000000 28.140625 L0.000000 5.390625 C0.000000 4.369787 0.390621 3.453129 1.171875 2.640625 C1.953129 1.828121 3.007806 1.184898 4.335938 0.710938 C5.664069 0.236977 7.135409 -0.000000 8.750000 -0.000000 C10.375008 -0.000000 11.848952 0.236977 13.171875 0.710938 C14.494798 1.184898 15.546871 1.828121 16.328125 2.640625 C17.109379 3.453129 17.500000 4.369787 17.500000 5.390625 L17.500000 28.140625 C17.500000 29.036463 17.109379 29.835934 16.328125 30.539062 C15.546871 31.242191 14.497402 31.796873 13.179688 32.203125 C11.861973 32.609377 10.385425 32.812500 8.750000 32.812500 Z M8.750000 30.937500 C9.979173 30.937500 11.114578 30.802085 12.156250 30.531250 C13.197922 30.260415 14.036455 29.908856 14.671875 29.476562 C15.307295 29.044269 15.625000 28.598961 15.625000 28.140625 L15.625000 8.484375 C14.822913 9.057295 13.825527 9.507811 12.632812 9.835938 C11.440098 10.164064 10.145840 10.328125 8.750000 10.328125 C7.364576 10.328125 6.072923 10.164064 4.875000 9.835938 C3.677077 9.507811 2.677087 9.057295 1.875000 8.484375 L1.875000 28.140625 C1.875000 28.598961 2.192705 29.044269 2.828125 29.476562 C3.463545 29.908856 4.302078 30.260415 5.343750 30.531250 C6.385422 30.802085 7.520827 30.937500 8.750000 30.937500 Z M8.750000 8.453125 C9.947923 8.453125 11.067703 8.320314 12.109375 8.054688 C13.151047 7.789061 13.997393 7.424481 14.648438 6.960938 C15.299482 6.497394 15.625000 5.973961 15.625000 5.390625 C15.625000 4.817705 15.307295 4.263024 14.671875 3.726562 C14.036455 3.190101 13.197922 2.747398 12.156250 2.398438 C11.114578 2.049477 9.979173 1.875000 8.750000 1.875000 C7.531244 1.875000 6.398443 2.049477 5.351562 2.398438 C4.304682 2.747398 3.463545 3.190101 2.828125 3.726562 C2.192705 4.263024 1.875000 4.817705 1.875000 5.390625 C1.875000 5.973961 2.200518 6.497394 2.851562 6.960938 C3.502607 7.424481 4.351557 7.789061 5.398438 8.054688 C6.445318 8.320314 7.562494 8.453125 8.750000 8.453125 Z M8.750000 28.468750 C7.406243 28.468750 6.281255 28.270835 5.375000 27.875000 L5.375000 25.765625 C6.281255 26.161460 7.406243 26.359375 8.750000 26.359375 C10.093757 26.359375 11.218745 26.161460 12.125000 25.765625 L12.125000 27.875000 C11.218745 28.270835 10.093757 28.468750 8.750000 28.468750 Z M8.750000 5.609375 C7.760412 5.609375 6.932295 5.414064 6.265625 5.023438 C5.598955 4.632811 5.265625 4.145836 5.265625 3.562500 L5.265625 2.890625 C5.265625 2.276039 5.601559 1.765627 6.273438 1.359375 C6.945316 0.953123 7.770828 0.750000 8.750000 0.750000 C9.729172 0.750000 10.554684 0.953123 11.226562 1.359375 C11.898441 1.765627 12.234375 2.276039 12.234375 2.890625 L12.234375 3.562500 C12.234375 4.145836 11.903649 4.632811 11.242188 5.023438 C10.580726 5.414064 9.750005 5.609375 8.750000 5.609375 Z M8.750000 3.734375 C9.208336 3.734375 9.588540 3.658855 9.890625 3.507812 C10.192710 3.356770 10.343750 3.166668 10.343750 2.937500 C10.343750 2.677082 10.192710 2.463542 9.890625 2.296875 C9.588540 2.130208 9.208336 2.046875 8.750000 2.046875 C8.291664 2.046875 7.911460 2.130208 7.609375 2.296875 C7.307290 2.463542 7.156250 2.677082 7.156250 2.937500 C7.156250 3.166668 7.309894 3.356770 7.617188 3.507812 C7.924481 3.658855 8.302081 3.734375 8.750000 3.734375 Z M5.375000 16.640625 L5.375000 14.531250 C5.697918 14.604167 6.083331 14.661458 6.531250 14.703125 C6.979169 14.744792 7.343749 14.765625 7.625000 14.765625 L7.625000 12.656250 C7.770834 12.677083 7.940103 12.695312 8.132812 12.710938 C8.325522 12.726563 8.531249 12.734375 8.750000 12.734375 C8.968751 12.734375 9.174478 12.726563 9.367188 12.710938 C9.559897 12.695312 9.729166 12.677083 9.875000 12.656250 L9.875000 14.765625 C10.156251 14.765625 10.520831 14.744792 10.968750 14.703125 C11.416669 14.661458 11.802082 14.604167 12.125000 14.531250 L12.125000 16.640625 C11.802082 16.713542 11.416669 16.770833 10.968750 16.812500 C10.520831 16.854167 10.156251 16.875000 9.875000 16.875000 L9.875000 18.984375 C9.729166 19.005208 9.559897 19.023437 9.367188 19.039062 C9.174478 19.054688 8.968751 19.062500 8.750000 19.062500 C8.531249 19.062500 8.325522 19.054688 8.132812 19.039062 C7.940103 19.023437 7.770834 19.005208 7.625000 18.984375 L7.625000 16.875000 C7.343749 16.875000 6.979169 16.854167 6.531250 16.812500 C6.083331 16.770833 5.697918 16.713542 5.375000 16.640625 Z M29.062500 27.343750" /></svg>