<svg version="1.1" xmlns="http://www.w3.org/2000/svg" style="fill:rgba(0,0,0,1.0)" width="256" height="256" viewBox="0 0 36.875 31.25"><path fill="rgb(255, 255, 255)" d="M16.562500 31.250000 C13.083316 31.250000 10.109387 30.750005 7.640625 29.750000 C5.171863 28.749995 3.281257 27.309905 1.968750 25.429688 C0.656243 23.549470 0.000000 21.286472 0.000000 18.640625 C0.000000 16.692699 0.286455 14.828134 0.859375 13.046875 C1.432295 11.265616 2.234370 9.625007 3.265625 8.125000 C4.296880 6.624993 5.505201 5.320318 6.890625 4.210938 C8.276049 3.101557 9.789054 2.239586 11.429688 1.625000 C13.070321 1.010414 14.781241 0.703125 16.562500 0.703125 C18.343759 0.703125 20.054679 1.010414 21.695312 1.625000 C23.335946 2.239586 24.848951 3.101557 26.234375 4.210938 C27.619799 5.320318 28.828120 6.624993 29.859375 8.125000 C30.890630 9.625007 31.692705 11.265616 32.265625 13.046875 C32.838545 14.828134 33.125000 16.692699 33.125000 18.640625 C33.125000 21.286472 32.468757 23.549470 31.156250 25.429688 C29.843743 27.309905 27.953137 28.749995 25.484375 29.750000 C23.015613 30.750005 20.041684 31.250000 16.562500 31.250000 Z M16.562500 25.328125 C15.739579 25.328125 14.934900 25.156252 14.148438 24.812500 C13.361975 24.468748 12.739586 24.015628 12.281250 23.453125 L13.609375 22.359375 C13.911460 22.723960 14.335935 23.023436 14.882812 23.257812 C15.429690 23.492189 15.989580 23.609375 16.562500 23.609375 C17.145836 23.609375 17.710935 23.492189 18.257812 23.257812 C18.804690 23.023436 19.223957 22.723960 19.515625 22.359375 L20.843750 23.453125 C20.385414 24.015628 19.763025 24.468748 18.976562 24.812500 C18.190100 25.156252 17.385421 25.328125 16.562500 25.328125 Z M9.875000 16.656250 C10.416669 16.656250 10.880206 16.427086 11.265625 15.968750 C11.651044 15.510414 11.843750 14.963545 11.843750 14.328125 C11.843750 13.682288 11.651044 13.132815 11.265625 12.679688 C10.880206 12.226560 10.416669 12.000000 9.875000 12.000000 C9.333331 12.000000 8.867189 12.226560 8.476562 12.679688 C8.085936 13.132815 7.890625 13.682288 7.890625 14.328125 C7.890625 14.963545 8.085936 15.510414 8.476562 15.968750 C8.867189 16.427086 9.333331 16.656250 9.875000 16.656250 Z M16.562500 27.484375 C18.729178 27.484375 20.445306 26.992192 21.710938 26.007812 C22.976569 25.023433 23.609375 23.697925 23.609375 22.031250 C23.609375 21.062495 23.411460 20.119796 23.015625 19.203125 C22.619790 18.286454 22.088545 17.463545 21.421875 16.734375 C20.755205 16.005205 20.002608 15.424481 19.164062 14.992188 C18.325517 14.559894 17.458338 14.343750 16.562500 14.343750 C15.677079 14.343750 14.812504 14.559894 13.968750 14.992188 C13.124996 15.424481 12.369795 16.005205 11.703125 16.734375 C11.036455 17.463545 10.505210 18.286454 10.109375 19.203125 C9.713540 20.119796 9.515625 21.062495 9.515625 22.031250 C9.515625 23.697925 10.148431 25.023433 11.414062 26.007812 C12.679694 26.992192 14.395822 27.484375 16.562500 27.484375 Z M16.562500 21.734375 C15.687496 21.734375 14.973961 21.531252 14.421875 21.125000 C13.869789 20.718748 13.593750 20.098962 13.593750 19.265625 C13.593750 18.588538 13.820310 18.041669 14.273438 17.625000 C14.726565 17.208331 15.489578 17.000000 16.562500 17.000000 C17.645839 17.000000 18.411456 17.208331 18.859375 17.625000 C19.307294 18.041669 19.531250 18.588538 19.531250 19.265625 C19.531250 20.098962 19.255211 20.718748 18.703125 21.125000 C18.151039 21.531252 17.437504 21.734375 16.562500 21.734375 Z M3.171875 9.890625 C2.442705 9.401039 1.856773 8.763025 1.414062 7.976562 C0.971352 7.190100 0.750000 6.322921 0.750000 5.375000 C0.750000 4.385412 0.992185 3.484379 1.476562 2.671875 C1.960940 1.859371 2.609371 1.210940 3.421875 0.726562 C4.234379 0.242185 5.135412 -0.000000 6.125000 -0.000000 C7.041671 -0.000000 7.885413 0.208331 8.656250 0.625000 C9.427087 1.041669 10.057289 1.598955 10.546875 2.296875 L8.406250 3.500000 C8.135415 3.197915 7.802085 2.955730 7.406250 2.773438 C7.010415 2.591145 6.583336 2.500000 6.125000 2.500000 C5.302079 2.500000 4.617190 2.770831 4.070312 3.312500 C3.523435 3.854169 3.250000 4.541663 3.250000 5.375000 C3.250000 5.854169 3.338541 6.289061 3.515625 6.679688 C3.692709 7.070314 3.932290 7.401040 4.234375 7.671875 Z M23.250000 16.656250 C23.802086 16.656250 24.270831 16.427086 24.656250 15.968750 C25.041669 15.510414 25.234375 14.963545 25.234375 14.328125 C25.234375 13.682288 25.041669 13.132815 24.656250 12.679688 C24.270831 12.226560 23.802086 12.000000 23.250000 12.000000 C22.708331 12.000000 22.244794 12.226560 21.859375 12.679688 C21.473956 13.132815 21.281250 13.682288 21.281250 14.328125 C21.281250 14.963545 21.473956 15.510414 21.859375 15.968750 C22.244794 16.427086 22.708331 16.656250 23.250000 16.656250 Z M29.953125 9.890625 L28.890625 7.671875 C29.192710 7.401040 29.432291 7.070314 29.609375 6.679688 C29.786459 6.289061 29.875000 5.854169 29.875000 5.375000 C29.875000 4.541663 29.604169 3.854169 29.062500 3.312500 C28.520831 2.770831 27.833338 2.500000 27.000000 2.500000 C26.541664 2.500000 26.114585 2.591145 25.718750 2.773438 C25.322915 2.955730 24.989585 3.197915 24.718750 3.500000 L22.578125 2.296875 C23.067711 1.598955 23.697913 1.041669 24.468750 0.625000 C25.239587 0.208331 26.083329 -0.000000 27.000000 -0.000000 C27.989588 -0.000000 28.890621 0.242185 29.703125 0.726562 C30.515629 1.210940 31.164060 1.859371 31.648438 2.671875 C32.132815 3.484379 32.375000 4.385412 32.375000 5.375000 C32.375000 6.322921 32.156252 7.190100 31.718750 7.976562 C31.281248 8.763025 30.692712 9.401039 29.953125 9.890625 Z M36.875000 26.562500" /></svg>