<svg version="1.1" xmlns="http://www.w3.org/2000/svg" style="fill:rgba(0,0,0,1.0)" width="256" height="256" viewBox="0 0 37.1875 32.8125"><path fill="rgb(255, 255, 255)" d="M14.046875 30.343750 C12.286450 30.343750 10.619800 30.026045 9.046875 29.390625 C7.473950 28.755205 6.080735 27.872401 4.867188 26.742188 C3.653640 25.611974 2.700524 24.304695 2.007812 22.820312 C1.315101 21.335930 0.968750 19.744800 0.968750 18.046875 L0.968750 16.109375 C0.322913 15.432288 0.000000 14.609380 0.000000 13.640625 C0.000000 12.651037 0.343747 11.718754 1.031250 10.843750 C0.645831 10.052079 0.453125 9.203130 0.453125 8.296875 C0.453125 7.234370 0.677081 6.208338 1.125000 5.218750 C1.572919 4.229162 2.179684 3.341150 2.945312 2.554688 C3.710941 1.768225 4.575516 1.145836 5.539062 0.687500 C6.502609 0.229164 7.505203 -0.000000 8.546875 -0.000000 C9.630214 -0.000000 10.661453 0.244789 11.640625 0.734375 C12.619797 1.223961 13.481767 1.893225 14.226562 2.742188 C14.971358 3.591150 15.515623 4.557286 15.859375 5.640625 C19.036474 8.369805 21.388013 10.914051 22.914062 13.273438 C24.440112 15.632824 25.203125 17.927072 25.203125 20.156250 C25.203125 21.593757 24.919274 22.929681 24.351562 24.164062 C23.783851 25.398444 22.992193 26.479162 21.976562 27.406250 C20.960932 28.333338 19.778653 29.054685 18.429688 29.570312 C17.080722 30.085940 15.619800 30.343750 14.046875 30.343750 Z M4.546875 30.500000 C4.265624 30.500000 4.098959 30.416668 4.046875 30.250000 C3.994791 30.083332 3.940104 29.919272 3.882812 29.757812 C3.825521 29.596353 3.656251 29.515625 3.375000 29.515625 C3.177082 29.515625 2.984376 29.552083 2.796875 29.625000 C2.609374 29.697917 2.421876 29.734375 2.234375 29.734375 C1.973957 29.734375 1.843750 29.653647 1.843750 29.492188 C1.843750 29.330728 1.841146 29.171876 1.835938 29.015625 C1.830729 28.859374 1.687501 28.781250 1.406250 28.781250 C1.312500 28.781250 1.223959 28.789062 1.140625 28.804688 C1.057291 28.820313 0.979167 28.828125 0.906250 28.828125 C0.708332 28.828125 0.609375 28.765626 0.609375 28.640625 C0.609375 28.473958 0.861977 28.229168 1.367188 27.906250 C1.872398 27.583332 2.523434 27.236981 3.320312 26.867188 C4.117191 26.497394 4.947912 26.161460 5.812500 25.859375 L8.515625 27.953125 L5.718750 30.078125 C5.343748 30.359376 4.953127 30.500000 4.546875 30.500000 Z M11.687500 32.812500 C11.489582 32.812500 11.364584 32.731772 11.312500 32.570312 C11.260416 32.408853 11.208334 32.247397 11.156250 32.085938 C11.104166 31.924478 10.968751 31.843750 10.750000 31.843750 C10.572916 31.843750 10.382814 31.893229 10.179688 31.992188 C9.976561 32.091146 9.781251 32.140625 9.593750 32.140625 C9.427083 32.140625 9.325521 32.072917 9.289062 31.937500 C9.252604 31.802083 9.221354 31.666667 9.195312 31.531250 C9.169271 31.395833 9.083334 31.328125 8.937500 31.328125 C8.802083 31.328125 8.625001 31.388020 8.406250 31.507812 C8.187499 31.627605 7.979168 31.687500 7.781250 31.687500 C7.614582 31.687500 7.531250 31.619792 7.531250 31.484375 C7.531250 31.328124 7.666665 31.091147 7.937500 30.773438 C8.208335 30.455728 8.544269 30.111981 8.945312 29.742188 C9.346356 29.372394 9.729165 29.031252 10.093750 28.718750 L15.937500 29.406250 C14.989579 30.416672 14.130212 31.236976 13.359375 31.867188 C12.588538 32.497399 12.031252 32.812500 11.687500 32.812500 Z M16.250000 22.109375 C15.041661 22.109375 13.919276 21.700525 12.882812 20.882812 C11.846349 20.065100 10.916671 18.932299 10.093750 17.484375 C9.906249 17.546875 9.723959 17.578125 9.546875 17.578125 C9.348957 17.578125 9.156251 17.544271 8.968750 17.476562 C8.781249 17.408854 8.598959 17.312501 8.421875 17.187500 C8.286458 17.093750 8.158855 16.989584 8.039062 16.875000 C7.919270 16.760416 7.786459 16.666667 7.640625 16.593750 C7.473958 16.510416 7.265626 16.369793 7.015625 16.171875 C6.765624 15.973957 6.640625 15.807292 6.640625 15.671875 C6.640625 15.515624 6.906247 15.359376 7.437500 15.203125 C7.270832 14.890623 7.067710 14.731771 6.828125 14.726562 C6.588540 14.721354 6.468750 14.656251 6.468750 14.531250 C6.468750 14.458333 6.502604 14.372396 6.570312 14.273438 C6.638021 14.174479 6.770832 14.125000 6.968750 14.125000 C7.052084 14.125000 7.148437 14.130208 7.257812 14.140625 C7.367188 14.151042 7.489583 14.171875 7.625000 14.203125 C7.625000 14.078124 7.557292 13.971355 7.421875 13.882812 C7.286458 13.794270 7.151042 13.713542 7.015625 13.640625 C6.880208 13.567708 6.812500 13.500000 6.812500 13.437500 C6.812500 13.270833 6.953124 13.187500 7.234375 13.187500 C7.473960 13.187500 7.807290 13.268228 8.234375 13.429688 C8.661460 13.591147 9.119789 13.895831 9.609375 14.343750 C10.151044 14.833336 10.638019 15.424476 11.070312 16.117188 C11.502606 16.809899 11.950519 17.494788 12.414062 18.171875 C12.877606 18.848962 13.424476 19.414060 14.054688 19.867188 C14.684899 20.320315 15.468745 20.546875 16.406250 20.546875 C16.875002 20.546875 17.281248 20.489584 17.625000 20.375000 L17.968750 21.781250 C17.406247 22.000001 16.833336 22.109375 16.250000 22.109375 Z M14.046875 28.578125 C15.890634 28.578125 17.507806 28.208337 18.898438 27.468750 C20.289069 26.729163 21.374996 25.723965 22.156250 24.453125 C22.937504 23.182285 23.328125 21.750008 23.328125 20.156250 C23.328125 18.135407 22.627611 16.020844 21.226562 13.812500 C19.825514 11.604156 17.578140 9.229179 14.484375 6.687500 C14.255207 5.718745 13.846357 4.859379 13.257812 4.109375 C12.669268 3.359371 11.966150 2.773440 11.148438 2.351562 C10.330725 1.929685 9.463546 1.718750 8.546875 1.718750 C7.723954 1.718750 6.924483 1.901040 6.148438 2.265625 C5.372392 2.630210 4.671878 3.122393 4.046875 3.742188 C3.421872 4.361982 2.927085 5.065100 2.562500 5.851562 C2.197915 6.638025 2.015625 7.453121 2.015625 8.296875 C2.015625 8.890628 2.104166 9.385415 2.281250 9.781250 C2.458334 10.177085 2.729165 10.546873 3.093750 10.890625 C2.677081 11.286460 2.359376 11.708331 2.140625 12.156250 C1.921874 12.604169 1.812500 13.052081 1.812500 13.500000 C1.812500 13.979169 1.934895 14.388019 2.179688 14.726562 C2.424480 15.065106 2.770831 15.322916 3.218750 15.500000 C3.270834 14.677079 3.520831 14.070314 3.968750 13.679688 C4.416669 13.289061 4.973955 13.093750 5.640625 13.093750 C5.973960 13.093750 6.140625 13.171874 6.140625 13.328125 C6.140625 13.411459 6.031251 13.494791 5.812500 13.578125 C5.343748 13.755209 5.072917 14.015623 5.000000 14.359375 C5.114584 14.317708 5.223958 14.296875 5.328125 14.296875 C5.484376 14.296875 5.640624 14.320312 5.796875 14.367188 C5.953126 14.414063 6.031250 14.489583 6.031250 14.593750 C6.031250 14.645834 5.984375 14.687500 5.890625 14.718750 C5.546873 14.822917 5.322917 15.119789 5.218750 15.609375 C5.406251 15.567708 5.578124 15.546875 5.734375 15.546875 C5.838542 15.546875 5.953124 15.583333 6.078125 15.656250 C6.203126 15.729167 6.265625 15.807291 6.265625 15.890625 C6.265625 15.973959 6.184897 16.044271 6.023438 16.101562 C5.861978 16.158854 5.734375 16.265624 5.640625 16.421875 C5.473958 16.682293 5.257814 16.882812 4.992188 17.023438 C4.726561 17.164063 4.354169 17.234375 3.875000 17.234375 C3.697916 17.234375 3.526042 17.226563 3.359375 17.210938 C3.192708 17.195312 3.031251 17.166667 2.875000 17.125000 C2.864583 17.333334 2.856771 17.507812 2.851562 17.648438 C2.846354 17.789063 2.843750 17.921874 2.843750 18.046875 C2.843750 19.526049 3.132810 20.903639 3.710938 22.179688 C4.289065 23.455736 5.093745 24.572912 6.125000 25.531250 C7.156255 26.489588 8.348952 27.236976 9.703125 27.773438 C11.057298 28.309899 12.505201 28.578125 14.046875 28.578125 Z M6.265625 9.015625 C6.536460 9.015625 6.726562 8.934897 6.835938 8.773438 C6.945313 8.611978 7.005208 8.390626 7.015625 8.109375 C6.692707 8.109375 6.406251 7.973960 6.156250 7.703125 C6.072916 7.828126 5.976563 7.927083 5.867188 8.000000 C5.757812 8.072917 5.661459 8.109375 5.578125 8.109375 C5.578125 8.713545 5.807289 9.015625 6.265625 9.015625 Z M5.859375 10.265625 C5.401039 10.265625 5.041668 9.997399 4.781250 9.460938 C4.520832 8.924476 4.390625 8.182296 4.390625 7.234375 C4.734377 7.203125 5.028645 7.101563 5.273438 6.929688 C5.518230 6.757812 5.640625 6.541668 5.640625 6.281250 L6.609375 6.328125 C6.609375 6.848961 7.151036 7.125000 8.234375 7.156250 C8.234375 8.020838 8.098960 8.755205 7.828125 9.359375 C7.557290 9.963545 7.192711 10.265625 6.734375 10.265625 Z M3.734375 5.093750 C3.494790 5.000000 3.328125 4.817710 3.234375 4.546875 C3.140625 4.276040 3.145833 3.989585 3.250000 3.687500 C3.354167 3.406249 3.531249 3.192709 3.781250 3.046875 C4.031251 2.901041 4.276040 2.875000 4.515625 2.968750 C4.744793 3.052084 4.908854 3.226561 5.007812 3.492188 C5.106771 3.757814 5.098959 4.041665 4.984375 4.343750 C4.880208 4.635418 4.705730 4.856770 4.460938 5.007812 C4.216145 5.158855 3.973960 5.187500 3.734375 5.093750 Z M5.968750 7.046875 L5.312500 6.453125 C5.145832 6.317708 5.062500 6.151043 5.062500 5.953125 C5.062500 5.828124 5.143228 5.661459 5.304688 5.453125 C5.466147 5.244791 5.643228 5.057292 5.835938 4.890625 C6.028647 4.723958 6.171875 4.640625 6.265625 4.640625 C6.369792 4.640625 6.499999 4.726562 6.656250 4.898438 C6.812501 5.070313 6.950520 5.263020 7.070312 5.476562 C7.190105 5.690105 7.250000 5.859374 7.250000 5.984375 C7.250000 6.265626 7.151043 6.453125 6.953125 6.546875 Z M10.515625 12.937500 L9.984375 11.484375 C10.786462 11.171873 11.432289 10.736982 11.921875 10.179688 C12.411461 9.622393 12.817707 8.994795 13.140625 8.296875 L14.500000 8.921875 C14.177082 9.765629 13.687503 10.546871 13.031250 11.265625 C12.374997 11.984379 11.536463 12.541665 10.515625 12.937500 Z M3.296875 3.890625 C2.838539 3.776041 2.609375 3.187505 2.609375 2.125000 C2.609375 0.958327 2.874997 0.375000 3.406250 0.375000 C3.635418 0.375000 3.924477 0.434895 4.273438 0.554688 C4.622398 0.674480 5.072914 0.734375 5.625000 0.734375 Z M10.140625 5.562500 C9.890624 5.604167 9.653647 5.533855 9.429688 5.351562 C9.205728 5.169270 9.067709 4.916668 9.015625 4.593750 C8.973958 4.291665 9.023437 4.015626 9.164062 3.765625 C9.304688 3.515624 9.499999 3.369792 9.750000 3.328125 C10.000001 3.286458 10.234374 3.356770 10.453125 3.539062 C10.671876 3.721355 10.807291 3.968748 10.859375 4.281250 C10.911459 4.593752 10.869792 4.874999 10.734375 5.125000 C10.598958 5.375001 10.401043 5.520833 10.140625 5.562500 Z M25.671875 22.359375 C25.088539 22.359375 24.515628 22.281251 23.953125 22.125000 L23.562500 15.906250 C23.770834 16.135418 24.007811 16.315104 24.273438 16.445312 C24.539064 16.575521 24.760416 16.640625 24.937500 16.640625 C25.250002 16.640625 25.609373 16.481772 26.015625 16.164062 C26.421877 15.846353 26.898435 15.476565 27.445312 15.054688 C27.992190 14.632810 28.627601 14.263022 29.351562 13.945312 C30.075524 13.627603 30.901037 13.468750 31.828125 13.468750 C32.536462 13.468750 33.033853 13.604165 33.320312 13.875000 C33.606772 14.145835 33.750000 14.630205 33.750000 15.328125 C33.750000 16.244796 33.515627 17.124996 33.046875 17.968750 C32.578123 18.812504 31.955733 19.562497 31.179688 20.218750 C30.403642 20.875003 29.536463 21.395831 28.578125 21.781250 C27.619787 22.166669 26.651047 22.359375 25.671875 22.359375 Z M14.281250 4.812500 C14.041665 4.812500 13.778647 4.611981 13.492188 4.210938 C13.205728 3.809894 12.958334 3.333336 12.750000 2.781250 C12.541666 2.229164 12.437500 1.723961 12.437500 1.265625 C12.593751 1.307292 12.731770 1.338542 12.851562 1.359375 C12.971355 1.380208 13.140624 1.390625 13.359375 1.390625 C13.692710 1.390625 13.963541 1.372396 14.171875 1.335938 C14.380209 1.299479 14.593749 1.281250 14.812500 1.281250 C15.510420 1.281250 15.859375 1.598955 15.859375 2.234375 C15.859375 2.567710 15.770834 2.937498 15.593750 3.343750 C15.416666 3.750002 15.205730 4.096353 14.960938 4.382812 C14.716145 4.669272 14.489584 4.812500 14.281250 4.812500 Z M37.187500 27.343750" /></svg>