<svg version="1.1" xmlns="http://www.w3.org/2000/svg" style="fill:rgba(0,0,0,1.0)" width="256" height="256" viewBox="0 0 36.625 31.875"><path fill="rgb(255, 255, 255)" d="M11.406250 26.875000 C10.854164 26.416664 10.320315 25.927086 9.804688 25.406250 C9.289060 24.885414 8.744795 24.234379 8.171875 23.453125 L9.171875 22.703125 C9.723961 23.442712 10.231769 24.054685 10.695312 24.539062 C11.158856 25.023440 11.661456 25.484373 12.203125 25.921875 Z M16.203125 27.734375 L13.062500 24.390625 L13.984375 23.562500 L17.109375 26.859375 Z M20.703125 17.453125 L19.609375 16.328125 L22.750000 13.296875 L23.843750 14.421875 Z M17.765625 14.187500 L16.671875 13.062500 L19.828125 10.031250 L21.062500 11.156250 Z M25.796875 14.906250 C23.703115 14.906250 22.130214 14.320318 21.078125 13.148438 C20.026036 11.976557 19.500000 10.421885 19.500000 8.484375 L21.062500 8.484375 C21.062500 10.026049 21.445309 11.221350 22.210938 12.070312 C22.976566 12.919275 24.171867 13.343750 25.796875 13.343750 Z M26.828125 19.062500 C26.088538 19.062500 25.455732 18.895835 24.929688 18.562500 C24.403643 18.229165 23.963543 17.875002 23.609375 17.500000 L23.578125 17.468750 C23.286457 17.166665 22.981772 16.895835 22.664062 16.656250 C22.346353 16.416665 21.942711 16.296875 21.453125 16.296875 L21.453125 15.046875 C22.151045 15.046875 22.721352 15.192707 23.164062 15.484375 C23.606773 15.776043 23.994790 16.093748 24.328125 16.437500 L24.359375 16.468750 C24.692710 16.812502 25.044269 17.122394 25.414062 17.398438 C25.783856 17.674481 26.255205 17.812500 26.828125 17.812500 C27.463545 17.812500 27.942707 17.567711 28.265625 17.078125 C28.588543 16.588539 28.750000 15.822922 28.750000 14.781250 C29.656255 14.572916 30.291665 14.234377 30.656250 13.765625 C31.020835 13.296873 31.203125 12.666671 31.203125 11.875000 C31.203125 11.260414 31.065106 10.750002 30.789062 10.343750 C30.513019 9.937498 30.192710 9.632814 29.828125 9.429688 C29.463540 9.226561 29.156251 9.125000 28.906250 9.125000 C28.104163 9.125000 27.447919 9.307290 26.937500 9.671875 L26.218750 8.640625 C26.937504 8.130206 27.833328 7.875000 28.906250 7.875000 C29.312502 7.875000 29.794268 8.018228 30.351562 8.304688 C30.908857 8.591147 31.398435 9.028643 31.820312 9.617188 C32.242190 10.205732 32.453125 10.958329 32.453125 11.875000 C32.453125 12.750004 32.268231 13.507809 31.898438 14.148438 C31.528644 14.789066 30.895838 15.302081 30.000000 15.687500 C30.000000 16.885423 29.671878 17.747393 29.015625 18.273438 C28.359372 18.799482 27.630212 19.062500 26.828125 19.062500 Z M2.406250 31.875000 C1.562496 31.875000 0.950523 31.687502 0.570312 31.312500 C0.190102 30.937498 0.000000 30.505211 0.000000 30.015625 C0.000000 29.526039 0.190102 29.093752 0.570312 28.718750 C0.950523 28.343748 1.562496 28.156250 2.406250 28.156250 C2.864586 28.156250 3.255207 27.971356 3.578125 27.601562 C3.901043 27.231769 4.062500 26.666670 4.062500 25.906250 C4.062500 25.437498 3.981772 24.882816 3.820312 24.242188 C3.658853 23.601559 3.468751 22.927087 3.250000 22.218750 L3.234375 22.171875 C3.067708 21.619789 2.921876 21.018232 2.796875 20.367188 C2.671874 19.716143 2.609375 19.020837 2.609375 18.281250 C2.609375 16.656242 2.966142 15.231777 3.679688 14.007812 C4.393233 12.783848 5.390619 11.830733 6.671875 11.148438 C7.953131 10.466142 9.442700 10.125000 11.140625 10.125000 C12.182297 10.125000 13.283848 10.374998 14.445312 10.875000 C15.606777 11.375002 16.742182 12.057287 17.851562 12.921875 C18.960943 13.786463 19.966141 14.773432 20.867188 15.882812 C21.768234 16.992193 22.486976 18.164056 23.023438 19.398438 C23.559899 20.632819 23.828125 21.864577 23.828125 23.093750 C23.828125 24.885426 23.479170 26.388015 22.781250 27.601562 C22.083330 28.815110 21.119798 29.729164 19.890625 30.343750 C18.661452 30.958336 17.239591 31.265625 15.625000 31.265625 C14.187493 31.265625 12.945318 31.117189 11.898438 30.820312 C10.851557 30.523436 9.924483 30.083336 9.117188 29.500000 C8.309892 28.916664 7.536462 28.208338 6.796875 27.375000 L7.968750 26.328125 C8.635420 27.088545 9.312497 27.718748 10.000000 28.218750 C10.687503 28.718752 11.479162 29.091145 12.375000 29.335938 C13.270838 29.580730 14.354160 29.703125 15.625000 29.703125 C16.979173 29.703125 18.151037 29.460940 19.140625 28.976562 C20.130213 28.492185 20.898435 27.760422 21.445312 26.781250 C21.992190 25.802078 22.265625 24.572924 22.265625 23.093750 C22.265625 22.052078 22.020836 20.994797 21.531250 19.921875 C21.041664 18.848953 20.390629 17.820317 19.578125 16.835938 C18.765621 15.851558 17.869797 14.973962 16.890625 14.203125 C15.911453 13.432288 14.921880 12.820315 13.921875 12.367188 C12.921870 11.914060 11.994796 11.687500 11.140625 11.687500 C9.723951 11.687500 8.494797 11.960935 7.453125 12.507812 C6.411453 13.054690 5.604170 13.822912 5.031250 14.812500 C4.458330 15.802088 4.171875 16.958327 4.171875 18.281250 C4.171875 18.885420 4.221354 19.460935 4.320312 20.007812 C4.419271 20.554690 4.546874 21.072914 4.703125 21.562500 L4.734375 21.609375 C4.963543 22.359379 5.169270 23.098955 5.351562 23.828125 C5.533855 24.557295 5.625000 25.229164 5.625000 25.843750 C5.625000 27.072923 5.315107 28.026038 4.695312 28.703125 C4.075518 29.380212 3.312505 29.718750 2.406250 29.718750 C2.052082 29.718750 1.822917 29.747396 1.718750 29.804688 C1.614583 29.861979 1.562500 29.932291 1.562500 30.015625 C1.562500 30.088542 1.614583 30.156250 1.718750 30.218750 C1.822917 30.281250 2.052082 30.312500 2.406250 30.312500 C3.052087 30.312500 3.606769 30.236980 4.070312 30.085938 C4.533856 29.934895 5.020831 29.744793 5.531250 29.515625 L5.703125 29.437500 C6.244794 29.197915 6.890621 28.968751 7.640625 28.750000 C8.390629 28.531249 9.270828 28.421875 10.281250 28.421875 L10.281250 29.984375 C9.302078 29.984375 8.453129 30.104165 7.734375 30.343750 C7.015621 30.583335 6.380211 30.833332 5.828125 31.093750 L5.656250 31.171875 C5.208331 31.369793 4.731773 31.536458 4.226562 31.671875 C3.721352 31.807292 3.114587 31.875000 2.406250 31.875000 Z M17.640625 12.593750 C17.640625 12.281248 17.565105 11.973960 17.414062 11.671875 C17.263020 11.369790 17.065105 11.078126 16.820312 10.796875 C16.575520 10.515624 16.312501 10.260418 16.031250 10.031250 L15.953125 9.968750 C15.442706 9.552081 15.020835 9.052086 14.687500 8.468750 C14.354165 7.885414 14.187500 7.119796 14.187500 6.171875 C14.187500 5.515622 14.343748 4.846358 14.656250 4.164062 C14.968752 3.481767 15.450518 2.908856 16.101562 2.445312 C16.752607 1.981769 17.583328 1.750000 18.593750 1.750000 C18.937502 1.750000 19.257811 1.776041 19.554688 1.828125 C19.851564 1.880209 20.130207 1.958333 20.390625 2.062500 C21.609381 0.687493 23.083325 -0.000000 24.812500 -0.000000 C25.875005 -0.000000 26.848954 0.249997 27.734375 0.750000 C28.619796 1.250003 29.328122 1.919267 29.859375 2.757812 C30.390628 3.596358 30.656250 4.536453 30.656250 5.578125 C30.656250 6.338545 30.557293 6.968747 30.359375 7.468750 C30.161457 7.968753 29.869794 8.499997 29.484375 9.062500 L28.187500 8.203125 C28.520835 7.703122 28.755208 7.281252 28.890625 6.937500 C29.026042 6.593748 29.093750 6.140628 29.093750 5.578125 C29.093750 4.838538 28.901044 4.166670 28.515625 3.562500 C28.130206 2.958330 27.614587 2.473960 26.968750 2.109375 C26.322913 1.744790 25.604171 1.562500 24.812500 1.562500 C23.989579 1.562500 23.268232 1.755206 22.648438 2.140625 C22.028643 2.526044 21.411461 3.177079 20.796875 4.093750 C20.536457 3.854165 20.221356 3.664063 19.851562 3.523438 C19.481769 3.382812 19.062502 3.312500 18.593750 3.312500 C17.968747 3.312500 17.445315 3.458332 17.023438 3.750000 C16.601560 4.041668 16.283855 4.408852 16.070312 4.851562 C15.856770 5.294273 15.750000 5.734373 15.750000 6.171875 C15.750000 6.848962 15.861978 7.380206 16.085938 7.765625 C16.309897 8.151044 16.630206 8.494790 17.046875 8.796875 L17.109375 8.843750 C17.619794 9.218752 18.098956 9.708330 18.546875 10.312500 C18.994794 10.916670 19.218750 11.677079 19.218750 12.593750 Z M36.625000 26.968750" /></svg>