<svg version="1.1" xmlns="http://www.w3.org/2000/svg" style="fill:rgba(0,0,0,1.0)" width="256" height="256" viewBox="0 0 37.59375 31.25"><path fill="rgb(255, 255, 255)" d="M17.281250 23.765625 C14.083317 23.765625 11.395844 23.619793 9.218750 23.328125 C7.041656 23.036457 5.395839 22.604170 4.281250 22.031250 C3.166661 21.458330 2.609375 20.755212 2.609375 19.921875 C2.609375 19.151038 3.093745 18.484378 4.062500 17.921875 C4.062500 16.213533 4.408851 14.640632 5.101562 13.203125 C5.794274 11.765618 6.752598 10.518234 7.976562 9.460938 C9.200527 8.403641 10.609367 7.585940 12.203125 7.007812 C13.796883 6.429685 15.489574 6.140625 17.281250 6.140625 C19.083342 6.140625 20.778638 6.429685 22.367188 7.007812 C23.955737 7.585940 25.361973 8.403641 26.585938 9.460938 C27.809902 10.518234 28.768226 11.765618 29.460938 13.203125 C30.153649 14.640632 30.500000 16.213533 30.500000 17.921875 C31.468755 18.484378 31.953125 19.151038 31.953125 19.921875 C31.953125 20.755212 31.395839 21.458330 30.281250 22.031250 C29.166661 22.604170 27.520844 23.036457 25.343750 23.328125 C23.166656 23.619793 20.479183 23.765625 17.281250 23.765625 Z M17.281250 31.250000 C15.229156 31.250000 13.226572 31.164063 11.273438 30.992188 C9.320303 30.820312 7.539071 30.583335 5.929688 30.281250 C4.320304 29.979165 2.989589 29.635419 1.937500 29.250000 C0.885411 28.864581 0.239585 28.458335 0.000000 28.031250 C0.177084 25.604155 0.666663 23.843755 1.468750 22.750000 C2.270837 21.656245 3.510408 21.109375 5.187500 21.109375 C5.666669 21.109375 6.156248 21.145833 6.656250 21.218750 L6.656250 22.796875 C6.510416 22.776042 6.367188 22.765625 6.226562 22.765625 C6.085937 22.765625 5.947917 22.765625 5.812500 22.765625 C4.947912 22.765625 4.260419 22.895832 3.750000 23.156250 C3.239581 23.416668 2.848960 23.877601 2.578125 24.539062 C2.307290 25.200524 2.088542 26.135411 1.921875 27.343750 C2.286460 27.625001 2.981766 27.895832 4.007812 28.156250 C5.033859 28.416668 6.273430 28.651041 7.726562 28.859375 C9.179695 29.067709 10.731763 29.231770 12.382812 29.351562 C14.033862 29.471355 15.666659 29.531250 17.281250 29.531250 C18.895841 29.531250 20.528638 29.471355 22.179688 29.351562 C23.830737 29.231770 25.382805 29.067709 26.835938 28.859375 C28.289070 28.651041 29.528641 28.416668 30.554688 28.156250 C31.580734 27.895832 32.276040 27.625001 32.640625 27.343750 C32.484374 26.135411 32.268231 25.200524 31.992188 24.539062 C31.716144 23.877601 31.325523 23.416668 30.820312 23.156250 C30.315102 22.895832 29.625004 22.765625 28.750000 22.765625 C28.614583 22.765625 28.476563 22.765625 28.335938 22.765625 C28.195312 22.765625 28.052084 22.776042 27.906250 22.796875 L27.906250 21.218750 C28.406252 21.145833 28.895831 21.109375 29.375000 21.109375 C31.052092 21.109375 32.294267 21.656245 33.101562 22.750000 C33.908858 23.843755 34.395832 25.604155 34.562500 28.031250 C34.322915 28.458335 33.677089 28.864581 32.625000 29.250000 C31.572911 29.635419 30.242196 29.979165 28.632812 30.281250 C27.023429 30.583335 25.242197 30.820312 23.289062 30.992188 C21.335928 31.164063 19.333344 31.250000 17.281250 31.250000 Z M17.281250 20.484375 C14.489569 20.484375 12.005219 20.346356 9.828125 20.070312 C7.651031 19.794269 5.989589 19.406252 4.843750 18.906250 L5.468750 17.468750 C6.520839 17.927086 8.078115 18.283853 10.140625 18.539062 C12.203135 18.794272 14.583320 18.921875 17.281250 18.921875 Z M17.281250 25.421875 C15.374990 25.421875 13.591154 25.364584 11.929688 25.250000 C10.268221 25.135416 8.812506 24.979168 7.562500 24.781250 C6.312494 24.583332 5.335941 24.354168 4.632812 24.093750 C3.929684 23.833332 3.578125 23.552085 3.578125 23.250000 C3.578125 22.999999 3.783852 22.796876 4.195312 22.640625 C4.606773 22.484374 5.257808 22.369792 6.148438 22.296875 C7.039067 22.223958 8.203118 22.187500 9.640625 22.187500 L17.281250 22.953125 L24.921875 22.187500 C26.359382 22.187500 27.523433 22.223958 28.414062 22.296875 C29.304692 22.369792 29.955727 22.484374 30.367188 22.640625 C30.778648 22.796876 30.984375 22.999999 30.984375 23.250000 C30.984375 23.552085 30.632816 23.833332 29.929688 24.093750 C29.226559 24.354168 28.250006 24.583332 27.000000 24.781250 C25.749994 24.979168 24.294279 25.135416 22.632812 25.250000 C20.971346 25.364584 19.187510 25.421875 17.281250 25.421875 Z M9.906250 15.484375 C9.812500 15.838543 9.630210 16.039062 9.359375 16.085938 C9.088540 16.132813 8.848959 16.065105 8.640625 15.882812 C8.432291 15.700520 8.375000 15.447918 8.468750 15.125000 C8.760418 14.166662 9.226559 13.281254 9.867188 12.468750 C10.507816 11.656246 11.213538 11.057294 11.984375 10.671875 C12.317710 10.505208 12.588541 10.510416 12.796875 10.687500 C13.005209 10.864584 13.114583 11.091144 13.125000 11.367188 C13.135417 11.643231 13.005210 11.838541 12.734375 11.953125 C12.161455 12.203126 11.596357 12.666663 11.039062 13.343750 C10.481768 14.020837 10.104168 14.734371 9.906250 15.484375 Z M17.281250 22.046875 C18.875008 22.046875 20.432284 21.986980 21.953125 21.867188 C23.473966 21.747395 24.846348 21.585939 26.070312 21.382812 C27.294277 21.179686 28.268226 20.950522 28.992188 20.695312 C29.716149 20.440103 30.078125 20.182293 30.078125 19.921875 C30.078125 19.619790 29.598963 19.296877 28.640625 18.953125 C28.640625 18.869791 28.640625 18.789063 28.640625 18.710938 C28.640625 18.632812 28.640625 18.557292 28.640625 18.484375 C28.640625 16.921867 28.346357 15.492194 27.757812 14.195312 C27.169268 12.898431 26.356776 11.776046 25.320312 10.828125 C24.283849 9.880204 23.078132 9.148440 21.703125 8.632812 C20.328118 8.117185 18.854175 7.859375 17.281250 7.859375 C15.708325 7.859375 14.234382 8.117185 12.859375 8.632812 C11.484368 9.148440 10.278651 9.880204 9.242188 10.828125 C8.205724 11.776046 7.393232 12.898431 6.804688 14.195312 C6.216143 15.492194 5.921875 16.921867 5.921875 18.484375 C5.921875 18.557292 5.921875 18.632812 5.921875 18.710938 C5.921875 18.789063 5.921875 18.869791 5.921875 18.953125 C4.963537 19.296877 4.484375 19.619790 4.484375 19.921875 C4.484375 20.182293 4.846351 20.440103 5.570312 20.695312 C6.294274 20.950522 7.268223 21.179686 8.492188 21.382812 C9.716152 21.585939 11.088534 21.747395 12.609375 21.867188 C14.130216 21.986980 15.687492 22.046875 17.281250 22.046875 Z M16.109375 7.000000 L16.109375 4.187500 L18.453125 4.187500 L18.453125 7.000000 Z M17.281250 4.875000 C16.281245 4.875000 15.437503 4.791667 14.750000 4.625000 C14.062497 4.458333 13.552085 4.260418 13.218750 4.031250 L13.109375 2.578125 C13.317709 1.880205 13.825517 1.276044 14.632812 0.765625 C15.440108 0.255206 16.322912 -0.000000 17.281250 -0.000000 C18.239588 -0.000000 19.122392 0.255206 19.929688 0.765625 C20.736983 1.276044 21.244791 1.880205 21.453125 2.578125 L21.343750 4.031250 C21.020832 4.260418 20.513024 4.458333 19.820312 4.625000 C19.127601 4.791667 18.281255 4.875000 17.281250 4.875000 Z M17.281250 3.125000 C17.864586 3.125000 18.395831 3.096354 18.875000 3.039062 C19.354169 2.981771 19.760415 2.901042 20.093750 2.796875 C19.927082 2.401040 19.580732 2.070314 19.054688 1.804688 C18.528643 1.539061 17.937503 1.406250 17.281250 1.406250 C16.624997 1.406250 16.033857 1.539061 15.507812 1.804688 C14.981768 2.070314 14.635418 2.401040 14.468750 2.796875 C14.802085 2.901042 15.210935 2.981771 15.695312 3.039062 C16.179690 3.096354 16.708330 3.125000 17.281250 3.125000 Z M37.593750 26.562500" /></svg>