<svg version="1.1" xmlns="http://www.w3.org/2000/svg" style="fill:rgba(0,0,0,1.0)" width="256" height="256" viewBox="0 0 32.421875 32.8125"><path fill="rgb(255, 255, 255)" d="M24.218750 19.781250 C19.562477 19.781250 15.195333 19.546877 11.117188 19.078125 C7.039042 18.609373 3.333350 17.781256 0.000000 16.593750 C0.333335 15.156243 0.796872 13.822923 1.390625 12.593750 C1.984378 11.364577 2.682288 10.229172 3.484375 9.187500 C4.286462 8.145828 5.161454 7.192713 6.109375 6.328125 L7.562500 6.078125 C7.791668 6.338543 8.088540 6.781247 8.453125 7.406250 C8.817710 8.031253 9.213540 8.749996 9.640625 9.562500 C10.067710 10.375004 10.476561 11.192704 10.867188 12.015625 C11.257814 12.838546 11.596353 13.583330 11.882812 14.250000 C12.169272 14.916670 12.354166 15.411457 12.437500 15.734375 C13.041670 14.901038 13.703121 14.046879 14.421875 13.171875 C15.140629 12.296871 15.940100 11.455733 16.820312 10.648438 C17.700525 9.841142 18.677078 9.125003 19.750000 8.500000 L21.031250 8.734375 C21.791670 10.296883 22.403644 11.690098 22.867188 12.914062 C23.330731 14.138027 23.671874 15.294265 23.890625 16.382812 C24.109376 17.471360 24.218750 18.604161 24.218750 19.781250 Z M3.984375 26.593750 C3.661457 26.593750 3.382814 26.479168 3.148438 26.250000 C2.914061 26.020832 2.796875 25.744793 2.796875 25.421875 C2.796875 25.098957 2.914061 24.822918 3.148438 24.593750 C3.382814 24.364582 3.661457 24.250000 3.984375 24.250000 C4.307293 24.250000 4.583332 24.364582 4.812500 24.593750 C5.041668 24.822918 5.156250 25.098957 5.156250 25.421875 C5.156250 25.744793 5.041668 26.020832 4.812500 26.250000 C4.583332 26.479168 4.307293 26.593750 3.984375 26.593750 Z M7.062500 29.500000 C6.739582 29.500000 6.460939 29.385418 6.226562 29.156250 C5.992186 28.927082 5.875000 28.651043 5.875000 28.328125 C5.875000 28.005207 5.992186 27.729168 6.226562 27.500000 C6.460939 27.270832 6.739582 27.156250 7.062500 27.156250 C7.385418 27.156250 7.661457 27.270832 7.890625 27.500000 C8.119793 27.729168 8.234375 28.005207 8.234375 28.328125 C8.234375 28.651043 8.119793 28.927082 7.890625 29.156250 C7.661457 29.385418 7.385418 29.500000 7.062500 29.500000 Z M10.921875 28.890625 C10.598957 28.890625 10.320314 28.776043 10.085938 28.546875 C9.851561 28.317707 9.734375 28.041668 9.734375 27.718750 C9.734375 27.395832 9.851561 27.119793 10.085938 26.890625 C10.320314 26.661457 10.598957 26.546875 10.921875 26.546875 C11.244793 26.546875 11.520832 26.661457 11.750000 26.890625 C11.979168 27.119793 12.093750 27.395832 12.093750 27.718750 C12.093750 28.041668 11.979168 28.317707 11.750000 28.546875 C11.520832 28.776043 11.244793 28.890625 10.921875 28.890625 Z M13.640625 31.453125 C13.317707 31.453125 13.039064 31.338543 12.804688 31.109375 C12.570311 30.880207 12.453125 30.604168 12.453125 30.281250 C12.453125 29.958332 12.570311 29.682293 12.804688 29.453125 C13.039064 29.223957 13.317707 29.109375 13.640625 29.109375 C13.963543 29.109375 14.239582 29.223957 14.468750 29.453125 C14.697918 29.682293 14.812500 29.958332 14.812500 30.281250 C14.812500 30.604168 14.697918 30.880207 14.468750 31.109375 C14.239582 31.338543 13.963543 31.453125 13.640625 31.453125 Z M8.500000 26.187500 C8.177082 26.187500 7.898439 26.072918 7.664062 25.843750 C7.429686 25.614582 7.312500 25.338543 7.312500 25.015625 C7.312500 24.692707 7.429686 24.416668 7.664062 24.187500 C7.898439 23.958332 8.177082 23.843750 8.500000 23.843750 C8.822918 23.843750 9.098957 23.958332 9.328125 24.187500 C9.557293 24.416668 9.671875 24.692707 9.671875 25.015625 C9.671875 25.338543 9.557293 25.614582 9.328125 25.843750 C9.098957 26.072918 8.822918 26.187500 8.500000 26.187500 Z M12.062500 31.250000 C13.000005 31.250000 13.843746 30.869795 14.593750 30.109375 C14.812501 29.890624 15.182289 29.559898 15.703125 29.117188 C16.223961 28.674477 16.817705 28.184899 17.484375 27.648438 C18.151045 27.111976 18.822913 26.583336 19.500000 26.062500 C20.177087 25.541664 20.770831 25.093752 21.281250 24.718750 L21.156250 22.375000 C20.135412 22.531251 18.984381 22.671874 17.703125 22.796875 C16.421869 22.921876 15.098965 23.028645 13.734375 23.117188 C12.369785 23.205730 11.033861 23.281250 9.726562 23.343750 C8.419264 23.406250 7.216151 23.450521 6.117188 23.476562 C5.018224 23.502604 4.109379 23.515625 3.390625 23.515625 L3.390625 25.640625 L9.546875 30.359375 C9.994794 30.692710 10.414061 30.924479 10.804688 31.054688 C11.195314 31.184896 11.614581 31.250000 12.062500 31.250000 Z M12.062500 32.812500 C11.458330 32.812500 10.848961 32.700522 10.234375 32.476562 C9.619789 32.252603 9.078127 31.963543 8.609375 31.609375 L1.828125 26.421875 L1.828125 21.937500 C2.869797 21.937500 4.083326 21.924479 5.468750 21.898438 C6.854174 21.872396 8.328117 21.828125 9.890625 21.765625 C11.453133 21.703125 13.013013 21.619792 14.570312 21.515625 C16.127612 21.411458 17.598951 21.278647 18.984375 21.117188 C20.369799 20.955728 21.583328 20.760418 22.625000 20.531250 L22.875000 25.500000 C22.437498 25.802085 21.864587 26.223956 21.156250 26.765625 C20.447913 27.307294 19.716150 27.877601 18.960938 28.476562 C18.205725 29.075524 17.531253 29.624998 16.937500 30.125000 C16.343747 30.625002 15.937501 30.984374 15.718750 31.203125 C14.666661 32.276047 13.447924 32.812500 12.062500 32.812500 Z M15.359375 27.859375 C15.036457 27.859375 14.757814 27.744793 14.523438 27.515625 C14.289061 27.286457 14.171875 27.010418 14.171875 26.687500 C14.171875 26.364582 14.289061 26.088543 14.523438 25.859375 C14.757814 25.630207 15.036457 25.515625 15.359375 25.515625 C15.661460 25.515625 15.932290 25.630207 16.171875 25.859375 C16.411460 26.088543 16.531250 26.364582 16.531250 26.687500 C16.531250 27.010418 16.416668 27.286457 16.187500 27.515625 C15.958332 27.744793 15.682293 27.859375 15.359375 27.859375 Z M12.515625 24.640625 C12.192707 24.640625 11.914064 24.526043 11.679688 24.296875 C11.445311 24.067707 11.328125 23.791668 11.328125 23.468750 C11.328125 23.145832 11.445311 22.869793 11.679688 22.640625 C11.914064 22.411457 12.192707 22.296875 12.515625 22.296875 C12.838543 22.296875 13.114582 22.411457 13.343750 22.640625 C13.572918 22.869793 13.687500 23.145832 13.687500 23.468750 C13.687500 23.781252 13.575522 24.054686 13.351562 24.289062 C13.127603 24.523439 12.848960 24.640625 12.515625 24.640625 Z M4.484375 15.609375 C4.161457 15.609375 3.882814 15.494793 3.648438 15.265625 C3.414061 15.036457 3.296875 14.760418 3.296875 14.437500 C3.296875 14.114582 3.414061 13.838543 3.648438 13.609375 C3.882814 13.380207 4.161457 13.265625 4.484375 13.265625 C4.807293 13.265625 5.083332 13.380207 5.312500 13.609375 C5.541668 13.838543 5.656250 14.114582 5.656250 14.437500 C5.656250 14.760418 5.541668 15.036457 5.312500 15.265625 C5.083332 15.494793 4.807293 15.609375 4.484375 15.609375 Z M19.593750 26.921875 C19.270832 26.921875 18.992189 26.807293 18.757812 26.578125 C18.523436 26.348957 18.406250 26.072918 18.406250 25.750000 C18.406250 25.427082 18.523436 25.151043 18.757812 24.921875 C18.992189 24.692707 19.270832 24.578125 19.593750 24.578125 C19.916668 24.578125 20.192707 24.692707 20.421875 24.921875 C20.651043 25.151043 20.765625 25.427082 20.765625 25.750000 C20.765625 26.072918 20.651043 26.348957 20.421875 26.578125 C20.192707 26.807293 19.916668 26.921875 19.593750 26.921875 Z M17.218750 24.234375 C16.895832 24.234375 16.617189 24.119793 16.382812 23.890625 C16.148436 23.661457 16.031250 23.385418 16.031250 23.062500 C16.031250 22.739582 16.148436 22.463543 16.382812 22.234375 C16.617189 22.005207 16.895832 21.890625 17.218750 21.890625 C17.541668 21.890625 17.817707 22.005207 18.046875 22.234375 C18.276043 22.463543 18.390625 22.739582 18.390625 23.062500 C18.390625 23.385418 18.276043 23.661457 18.046875 23.890625 C17.817707 24.119793 17.541668 24.234375 17.218750 24.234375 Z M4.968750 11.640625 C4.645832 11.640625 4.367189 11.526043 4.132812 11.296875 C3.898436 11.067707 3.781250 10.791668 3.781250 10.468750 C3.781250 10.145832 3.898436 9.869793 4.132812 9.640625 C4.367189 9.411457 4.645832 9.296875 4.968750 9.296875 C5.291668 9.296875 5.567707 9.411457 5.796875 9.640625 C6.026043 9.869793 6.140625 10.145832 6.140625 10.468750 C6.140625 10.791668 6.026043 11.067707 5.796875 11.296875 C5.567707 11.526043 5.291668 11.640625 4.968750 11.640625 Z M10.093750 16.500000 C9.770832 16.500000 9.492189 16.385418 9.257812 16.156250 C9.023436 15.927082 8.906250 15.651043 8.906250 15.328125 C8.906250 15.005207 9.023436 14.729168 9.257812 14.500000 C9.492189 14.270832 9.770832 14.156250 10.093750 14.156250 C10.416668 14.156250 10.692707 14.270832 10.921875 14.500000 C11.151043 14.729168 11.265625 15.005207 11.265625 15.328125 C11.265625 15.651043 11.151043 15.927082 10.921875 16.156250 C10.692707 16.385418 10.416668 16.500000 10.093750 16.500000 Z M7.640625 13.687500 C7.317707 13.687500 7.039064 13.572918 6.804688 13.343750 C6.570311 13.114582 6.453125 12.838543 6.453125 12.515625 C6.453125 12.192707 6.570311 11.916668 6.804688 11.687500 C7.039064 11.458332 7.317707 11.343750 7.640625 11.343750 C7.963543 11.343750 8.239582 11.458332 8.468750 11.687500 C8.697918 11.916668 8.812500 12.192707 8.812500 12.515625 C8.812500 12.838543 8.697918 13.114582 8.468750 13.343750 C8.239582 13.572918 7.963543 13.687500 7.640625 13.687500 Z M22.515625 18.078125 C22.515625 17.546872 22.401043 16.820317 22.171875 15.898438 C21.942707 14.976558 21.638023 13.989589 21.257812 12.937500 C20.877602 11.885411 20.458336 10.901046 20.000000 9.984375 C18.739577 10.796879 17.455736 11.916660 16.148438 13.343750 C14.841139 14.770840 13.645839 16.343741 12.562500 18.062500 L11.546875 17.968750 C11.203123 16.854161 10.794273 15.692714 10.320312 14.484375 C9.846352 13.276036 9.322920 12.093756 8.750000 10.937500 C8.177080 9.781244 7.562503 8.729171 6.906250 7.781250 C6.041662 8.625004 5.289066 9.468746 4.648438 10.312500 C4.007809 11.156254 3.471356 12.010412 3.039062 12.875000 C2.606769 13.739588 2.276043 14.619787 2.046875 15.515625 C4.536471 16.317712 7.546857 16.929685 11.078125 17.351562 C14.609393 17.773440 18.421855 18.015625 22.515625 18.078125 Z M17.593750 18.781250 C17.270832 18.781250 16.992189 18.666668 16.757812 18.437500 C16.523436 18.208332 16.406250 17.932293 16.406250 17.609375 C16.406250 17.286457 16.523436 17.010418 16.757812 16.781250 C16.992189 16.552082 17.270832 16.437500 17.593750 16.437500 C17.916668 16.437500 18.192707 16.552082 18.421875 16.781250 C18.651043 17.010418 18.765625 17.286457 18.765625 17.609375 C18.765625 17.932293 18.651043 18.208332 18.421875 18.437500 C18.192707 18.666668 17.916668 18.781250 17.593750 18.781250 Z M15.250000 15.875000 C14.927082 15.875000 14.648439 15.760418 14.414062 15.531250 C14.179686 15.302082 14.062500 15.026043 14.062500 14.703125 C14.062500 14.380207 14.179686 14.104168 14.414062 13.875000 C14.648439 13.645832 14.927082 13.531250 15.250000 13.531250 C15.572918 13.531250 15.848957 13.645832 16.078125 13.875000 C16.307293 14.104168 16.421875 14.380207 16.421875 14.703125 C16.421875 15.026043 16.307293 15.302082 16.078125 15.531250 C15.848957 15.760418 15.572918 15.875000 15.250000 15.875000 Z M18.890625 15.250000 C18.567707 15.250000 18.289064 15.135418 18.054688 14.906250 C17.820311 14.677082 17.703125 14.401043 17.703125 14.078125 C17.703125 13.755207 17.820311 13.479168 18.054688 13.250000 C18.289064 13.020832 18.567707 12.906250 18.890625 12.906250 C19.213543 12.906250 19.489582 13.020832 19.718750 13.250000 C19.947918 13.479168 20.062500 13.755207 20.062500 14.078125 C20.062500 14.401043 19.947918 14.677082 19.718750 14.906250 C19.489582 15.135418 19.213543 15.250000 18.890625 15.250000 Z M21.984375 17.468750 C21.661457 17.468750 21.382814 17.354168 21.148438 17.125000 C20.914061 16.895832 20.796875 16.619793 20.796875 16.296875 C20.796875 15.973957 20.914061 15.697918 21.148438 15.468750 C21.382814 15.239582 21.661457 15.125000 21.984375 15.125000 C22.307293 15.125000 22.583332 15.239582 22.812500 15.468750 C23.041668 15.697918 23.156250 15.973957 23.156250 16.296875 C23.156250 16.619793 23.041668 16.895832 22.812500 17.125000 C22.583332 17.354168 22.307293 17.468750 21.984375 17.468750 Z M11.593750 9.234375 C11.072914 9.234375 10.630210 9.075522 10.265625 8.757812 C9.901040 8.440103 9.718750 8.010419 9.718750 7.468750 C9.718750 6.843747 9.880207 6.317710 10.203125 5.890625 C10.526043 5.463540 10.932289 5.091147 11.421875 4.773438 C11.911461 4.455728 12.406248 4.166668 12.906250 3.906250 C13.531253 3.572915 14.093748 3.226564 14.593750 2.867188 C15.093752 2.507811 15.343750 2.156252 15.343750 1.812500 C15.343750 1.427081 15.140627 1.234375 14.734375 1.234375 C14.463540 1.234375 14.210939 1.364582 13.976562 1.625000 C13.742186 1.885418 13.625000 2.286456 13.625000 2.828125 C13.625000 3.057293 13.645833 3.294270 13.687500 3.539062 C13.729167 3.783855 13.781250 4.041665 13.843750 4.312500 C13.916667 4.604168 13.973958 4.901040 14.015625 5.203125 C14.057292 5.505210 14.078125 5.807290 14.078125 6.109375 C14.078125 7.088547 13.828127 7.854164 13.328125 8.406250 C12.828122 8.958336 12.250003 9.234375 11.593750 9.234375 Z M21.109375 9.218750 L19.546875 8.906250 C19.578125 8.729166 19.604167 8.549480 19.625000 8.367188 C19.645833 8.184895 19.656250 8.000001 19.656250 7.812500 C19.656250 6.947912 19.479168 6.244794 19.125000 5.703125 C18.770832 5.161456 18.067714 4.890625 17.015625 4.890625 C16.442705 4.890625 15.950523 4.927083 15.539062 5.000000 C15.127602 5.072917 14.604170 5.109375 13.968750 5.109375 C13.312497 5.109375 12.721357 5.018230 12.195312 4.835938 C11.669268 4.653645 11.164065 4.473959 10.679688 4.296875 C10.195310 4.119791 9.687503 4.031250 9.156250 4.031250 C8.645831 4.031250 8.247397 4.166665 7.960938 4.437500 C7.674478 4.708335 7.531250 5.062498 7.531250 5.500000 C7.531250 5.822918 7.604166 6.151040 7.750000 6.484375 L6.187500 7.000000 C6.083333 6.760415 6.000000 6.515626 5.937500 6.265625 C5.875000 6.015624 5.843750 5.760418 5.843750 5.500000 C5.843750 4.635412 6.151039 3.914065 6.765625 3.335938 C7.380211 2.757810 8.151037 2.468750 9.078125 2.468750 C9.598961 2.468750 10.059894 2.536458 10.460938 2.671875 C10.861981 2.807292 11.244790 2.960937 11.609375 3.132812 C11.973960 3.304688 12.351561 3.458333 12.742188 3.593750 C13.132814 3.729167 13.572914 3.796875 14.062500 3.796875 C14.708337 3.796875 15.268227 3.721355 15.742188 3.570312 C16.216148 3.419270 16.791663 3.343750 17.468750 3.343750 C18.572922 3.343750 19.479163 3.763017 20.187500 4.601562 C20.895837 5.440108 21.250000 6.515618 21.250000 7.828125 C21.250000 8.057293 21.236979 8.286457 21.210938 8.515625 C21.184896 8.744793 21.151042 8.979165 21.109375 9.218750 Z M16.562500 8.187500 C15.552078 7.916665 14.697920 7.518232 14.000000 6.992188 C13.302080 6.466143 12.864584 5.744796 12.687500 4.828125 L14.062500 4.515625 C14.156250 5.026044 14.494789 5.471352 15.078125 5.851562 C15.661461 6.231773 16.270830 6.499999 16.906250 6.656250 Z M20.671875 12.656250 C20.348957 12.656250 20.070314 12.541668 19.835938 12.312500 C19.601561 12.083332 19.484375 11.807293 19.484375 11.484375 C19.484375 11.161457 19.601561 10.885418 19.835938 10.656250 C20.070314 10.427082 20.348957 10.312500 20.671875 10.312500 C20.994793 10.312500 21.270832 10.427082 21.500000 10.656250 C21.729168 10.885418 21.843750 11.161457 21.843750 11.484375 C21.843750 11.807293 21.729168 12.083332 21.500000 12.312500 C21.270832 12.541668 20.994793 12.656250 20.671875 12.656250 Z M11.593750 7.984375 C11.833335 7.984375 12.078124 7.846356 12.328125 7.570312 C12.578126 7.294269 12.703125 6.833337 12.703125 6.187500 C12.703125 5.906249 12.679688 5.627606 12.632812 5.351562 C12.585937 5.075519 12.536459 4.802085 12.484375 4.531250 C12.432291 4.249999 12.382813 3.968751 12.335938 3.687500 C12.289062 3.406249 12.265625 3.119793 12.265625 2.828125 C12.265625 1.942704 12.507810 1.250003 12.992188 0.750000 C13.476565 0.249997 14.093746 -0.000000 14.843750 -0.000000 C15.416670 -0.000000 15.869790 0.145832 16.203125 0.437500 C16.536460 0.729168 16.703125 1.119789 16.703125 1.609375 C16.703125 2.265628 16.414065 2.851560 15.835938 3.367188 C15.257810 3.882815 14.458338 4.406247 13.437500 4.937500 C12.781247 5.281252 12.208336 5.630207 11.718750 5.984375 C11.229164 6.338543 10.984375 6.739581 10.984375 7.187500 C10.984375 7.718753 11.187498 7.984375 11.593750 7.984375 Z M32.421875 27.343750" /></svg>