<svg version="1.1" xmlns="http://www.w3.org/2000/svg" style="fill:rgba(0,0,0,1.0)" width="256" height="256" viewBox="0 0 36.875 32.8125"><path fill="rgb(255, 255, 255)" d="M16.562500 32.812500 C14.760408 32.812500 13.036467 32.536461 11.390625 31.984375 C9.744783 31.432289 8.229174 30.651047 6.843750 29.640625 C5.458326 28.630203 4.255213 27.442715 3.234375 26.078125 C2.213537 24.713535 1.419274 23.210946 0.851562 21.570312 C0.283851 19.929679 0.000000 18.208342 0.000000 16.406250 C0.000000 14.604158 0.283851 12.882821 0.851562 11.242188 C1.419274 9.601554 2.213537 8.098965 3.234375 6.734375 C4.255213 5.369785 5.458326 4.182297 6.843750 3.171875 C8.229174 2.161453 9.744783 1.380211 11.390625 0.828125 C13.036467 0.276039 14.760408 -0.000000 16.562500 -0.000000 C18.364592 -0.000000 20.088533 0.276039 21.734375 0.828125 C23.380217 1.380211 24.895826 2.161453 26.281250 3.171875 C27.666674 4.182297 28.869787 5.369785 29.890625 6.734375 C30.911463 8.098965 31.705726 9.601554 32.273438 11.242188 C32.841149 12.882821 33.125000 14.604158 33.125000 16.406250 C33.125000 18.208342 32.841149 19.929679 32.273438 21.570312 C31.705726 23.210946 30.911463 24.713535 29.890625 26.078125 C28.869787 27.442715 27.666674 28.630203 26.281250 29.640625 C24.895826 30.651047 23.380217 31.432289 21.734375 31.984375 C20.088533 32.536461 18.364592 32.812500 16.562500 32.812500 Z M14.578125 29.046875 C16.307300 28.911458 17.932284 28.593752 19.453125 28.093750 C20.973966 27.593748 22.369785 26.924483 23.640625 26.085938 C24.911465 25.247392 26.036453 24.252610 27.015625 23.101562 C27.994797 21.950515 28.802080 20.661465 29.437500 19.234375 C29.572917 18.932290 29.591146 18.656251 29.492188 18.406250 C29.393229 18.156249 29.218751 17.984375 28.968750 17.890625 C28.416664 17.682291 27.994793 17.890622 27.703125 18.515625 C27.119789 19.755215 26.395838 20.882807 25.531250 21.898438 C24.666662 22.914068 23.682297 23.796871 22.578125 24.546875 C21.473953 25.296879 20.260423 25.895831 18.937500 26.343750 C17.614577 26.791669 16.192716 27.067708 14.671875 27.171875 C14.317707 27.192708 14.033855 27.294270 13.820312 27.476562 C13.606770 27.658855 13.500000 27.885415 13.500000 28.156250 C13.500000 28.427085 13.606770 28.648437 13.820312 28.820312 C14.033855 28.992188 14.286457 29.067708 14.578125 29.046875 Z M12.515625 13.265625 C12.911460 13.265625 13.151041 13.083335 13.234375 12.718750 C13.244792 12.677083 13.250000 12.619792 13.250000 12.546875 C13.250000 12.369791 13.187501 12.192709 13.062500 12.015625 C12.937499 11.838541 12.755210 11.619793 12.515625 11.359375 C12.234374 11.421875 11.984376 11.520833 11.765625 11.656250 C11.546874 11.791667 11.406250 11.979165 11.343750 12.218750 C11.322917 12.302084 11.312500 12.364583 11.312500 12.406250 C11.312500 12.583334 11.377604 12.744791 11.507812 12.890625 C11.638021 13.036459 11.822915 13.140625 12.062500 13.203125 C12.218751 13.244792 12.369791 13.265625 12.515625 13.265625 Z M12.609375 17.515625 C13.921882 17.515625 15.098953 17.197920 16.140625 16.562500 C17.182297 15.927080 18.005205 15.067714 18.609375 13.984375 C19.213545 12.901036 19.515625 11.682298 19.515625 10.328125 C19.515625 9.140619 19.242190 8.098963 18.695312 7.203125 C18.148435 6.307287 17.401046 5.609378 16.453125 5.109375 C15.505204 4.609372 14.421881 4.359375 13.203125 4.359375 C11.921869 4.359375 10.734380 4.677080 9.640625 5.312500 C8.546870 5.947920 7.669274 6.796870 7.007812 7.859375 C6.346351 8.921880 6.015625 10.098952 6.015625 11.390625 C6.015625 12.630215 6.309893 13.708329 6.898438 14.625000 C7.486982 15.541671 8.281245 16.252602 9.281250 16.757812 C10.281255 17.263023 11.390619 17.515625 12.609375 17.515625 Z M12.890625 14.968750 C12.536457 14.968750 12.130211 14.911459 11.671875 14.796875 C10.817704 14.567707 10.195314 14.244794 9.804688 13.828125 C9.414061 13.411456 9.218750 12.937503 9.218750 12.406250 C9.218750 12.229166 9.244791 12.020835 9.296875 11.781250 C9.442709 11.218747 9.695311 10.817710 10.054688 10.578125 C10.414064 10.338540 10.838539 10.171875 11.328125 10.078125 C11.098957 9.807290 10.908855 9.523439 10.757812 9.226562 C10.606770 8.929686 10.531250 8.614585 10.531250 8.281250 C10.531250 8.083332 10.552083 7.901042 10.593750 7.734375 C10.718751 7.244789 10.966144 6.882814 11.335938 6.648438 C11.705731 6.414061 12.151039 6.296875 12.671875 6.296875 C13.057294 6.296875 13.442706 6.348958 13.828125 6.453125 C14.526045 6.640626 15.080727 6.911457 15.492188 7.265625 C15.903648 7.619793 16.109375 8.062497 16.109375 8.593750 C16.109375 8.770834 16.088542 8.942708 16.046875 9.109375 C15.921874 9.588544 15.684898 9.958332 15.335938 10.218750 C14.986977 10.479168 14.578127 10.656250 14.109375 10.750000 C14.390626 11.010418 14.656249 11.309894 14.906250 11.648438 C15.156251 11.986981 15.281250 12.369790 15.281250 12.796875 C15.281250 12.973959 15.260417 13.130208 15.218750 13.265625 C15.083333 13.776044 14.822919 14.187498 14.437500 14.500000 C14.052081 14.812502 13.536462 14.968750 12.890625 14.968750 Z M13.046875 9.453125 C13.223959 9.401041 13.395832 9.330730 13.562500 9.242188 C13.729167 9.153645 13.843750 9.005209 13.906250 8.796875 C13.927083 8.713541 13.937500 8.651042 13.937500 8.609375 C13.937500 8.286457 13.765627 8.088542 13.421875 8.015625 C13.380208 8.005208 13.312500 8.000000 13.218750 8.000000 C12.895832 8.000000 12.687500 8.145832 12.593750 8.437500 C12.572917 8.520834 12.562500 8.583333 12.562500 8.625000 C12.562500 8.770834 12.609375 8.914062 12.703125 9.054688 C12.796875 9.195313 12.911458 9.328124 13.046875 9.453125 Z M36.875000 27.343750" /></svg>