<svg version="1.1" xmlns="http://www.w3.org/2000/svg" style="fill:rgba(0,0,0,1.0)" width="256" height="256" viewBox="0 0 25.0 15.625"><path fill="rgb(255, 255, 255)" d="M2.234375 15.625000 L7.140625 15.625000 C7.786462 15.625000 8.320310 15.414065 8.742188 14.992188 C9.164065 14.570310 9.375000 14.041670 9.375000 13.406250 L9.375000 8.468750 C9.375000 7.833330 9.164065 7.304690 8.742188 6.882812 C8.320310 6.460935 7.786462 6.250000 7.140625 6.250000 L2.234375 6.250000 C1.598955 6.250000 1.067710 6.460935 0.640625 6.882812 C0.213540 7.304690 0.000000 7.833330 0.000000 8.468750 L0.000000 13.406250 C0.000000 14.041670 0.213540 14.570310 0.640625 14.992188 C1.067710 15.414065 1.598955 15.625000 2.234375 15.625000 Z M2.093750 15.125000 L3.093750 15.125000 L3.093750 6.750000 L2.093750 6.750000 Z M0.515625 13.531250 L8.875000 13.531250 L8.875000 12.531250 L0.515625 12.531250 Z M2.234375 14.609375 C1.880207 14.609375 1.585939 14.497397 1.351562 14.273438 C1.117186 14.049478 1.000000 13.760418 1.000000 13.406250 L1.000000 8.468750 C1.000000 8.114582 1.117186 7.825522 1.351562 7.601562 C1.585939 7.377603 1.880207 7.265625 2.234375 7.265625 L7.140625 7.265625 C7.505210 7.265625 7.802082 7.377603 8.031250 7.601562 C8.260418 7.825522 8.375000 8.114582 8.375000 8.468750 L8.375000 13.406250 C8.375000 13.760418 8.260418 14.049478 8.031250 14.273438 C7.802082 14.497397 7.505210 14.609375 7.140625 14.609375 Z M4.187500 15.125000 L5.187500 15.125000 L5.187500 6.750000 L4.187500 6.750000 Z M0.515625 11.437500 L8.875000 11.437500 L8.875000 10.437500 L0.515625 10.437500 Z M6.281250 15.125000 L7.281250 15.125000 L7.281250 6.750000 L6.281250 6.750000 Z M0.515625 9.343750 L8.875000 9.343750 L8.875000 8.343750 L0.515625 8.343750 Z M25.000000 21.875000" /></svg>