<svg version="1.1" xmlns="http://www.w3.org/2000/svg" style="fill:rgba(0,0,0,1.0)" width="256" height="256" viewBox="0 0 36.171875 32.8125"><path fill="rgb(255, 255, 255)" d="M12.578125 32.812500 C11.901038 32.812500 11.440105 32.739584 11.195312 32.593750 C10.950520 32.447916 10.828125 32.244793 10.828125 31.984375 C10.828125 31.817708 10.869791 31.611980 10.953125 31.367188 C11.036459 31.122395 11.130208 30.921876 11.234375 30.765625 C11.442709 30.463540 11.669270 30.023440 11.914062 29.445312 C12.158855 28.867185 12.328125 28.354169 12.421875 27.906250 L13.140625 24.609375 C12.890624 24.588542 12.656251 24.544271 12.437500 24.476562 C12.218749 24.408854 11.994793 24.317709 11.765625 24.203125 C11.598958 24.505210 11.442709 24.820311 11.296875 25.148438 C11.151041 25.476564 11.078125 25.697916 11.078125 25.812500 C11.078125 26.041668 11.119791 26.356769 11.203125 26.757812 C11.286459 27.158856 11.328125 27.468749 11.328125 27.687500 C11.328125 28.333337 11.190106 28.856769 10.914062 29.257812 C10.638019 29.658856 10.343752 29.859375 10.031250 29.859375 C9.697915 29.859375 9.380210 29.643231 9.078125 29.210938 C8.776040 28.778644 8.531251 28.255211 8.343750 27.640625 C8.156249 27.026039 8.062500 26.442711 8.062500 25.890625 C8.062500 24.890620 8.432288 23.651049 9.171875 22.171875 C9.026041 21.911457 8.882813 21.510419 8.742188 20.968750 C8.601562 20.427081 8.486980 19.838545 8.398438 19.203125 C8.309895 18.567705 8.265625 17.979169 8.265625 17.437500 C8.161458 17.135415 7.895835 16.794273 7.468750 16.414062 C7.041665 16.033852 6.255214 15.447921 5.109375 14.656250 C4.453122 14.197914 3.984376 13.638024 3.703125 12.976562 C3.421874 12.315101 3.281250 11.682295 3.281250 11.078125 C3.281250 9.473950 3.927077 8.671875 5.218750 8.671875 C5.416668 8.671875 5.572916 8.627605 5.687500 8.539062 C5.802084 8.450520 5.911458 8.322917 6.015625 8.156250 C6.578128 7.218745 7.143226 6.473961 7.710938 5.921875 C8.278649 5.369789 8.966142 4.973960 9.773438 4.734375 C10.580733 4.494790 11.624994 4.375000 12.906250 4.375000 C13.541670 3.041660 14.213538 1.979171 14.921875 1.187500 C15.630212 0.395829 16.182290 -0.000000 16.578125 -0.000000 C16.890627 -0.000000 17.192707 0.247393 17.484375 0.742188 C17.776043 1.236982 18.039061 1.890621 18.273438 2.703125 C18.507814 3.515629 18.695312 4.406245 18.835938 5.375000 C18.976563 6.343755 19.046875 7.296870 19.046875 8.234375 C19.307293 8.557293 19.492187 8.903644 19.601562 9.273438 C19.710938 9.643231 19.765625 10.015623 19.765625 10.390625 C19.765625 11.140629 19.622397 11.838538 19.335938 12.484375 C19.049478 13.130212 18.763022 13.682289 18.476562 14.140625 C18.190103 14.598961 18.046875 14.921874 18.046875 15.109375 C18.046875 15.265626 18.130208 15.343750 18.296875 15.343750 C18.442709 15.343750 18.718748 15.270834 19.125000 15.125000 C19.531252 14.979166 20.091142 14.835938 20.804688 14.695312 C21.518233 14.554687 22.416661 14.484375 23.500000 14.484375 C23.937502 14.484375 24.377602 14.500000 24.820312 14.531250 C25.263023 14.562500 25.713539 14.604166 26.171875 14.656250 C27.911467 13.864579 28.781250 12.880214 28.781250 11.703125 C28.781250 11.130205 28.497399 10.625002 27.929688 10.187500 C27.361976 9.749998 26.583338 9.437501 25.593750 9.250000 C24.739579 9.083333 24.125002 8.882814 23.750000 8.648438 C23.374998 8.414061 23.187500 8.104169 23.187500 7.718750 C23.187500 7.322915 23.354165 7.023439 23.687500 6.820312 C24.020835 6.617186 24.510413 6.515625 25.156250 6.515625 C26.260422 6.515625 27.294266 6.765622 28.257812 7.265625 C29.221359 7.765628 30.002601 8.427079 30.601562 9.250000 C31.200524 10.072921 31.500000 10.973953 31.500000 11.953125 C31.500000 12.776046 31.276044 13.523434 30.828125 14.195312 C30.380206 14.867191 29.861982 15.447914 29.273438 15.937500 C28.684893 16.427086 28.166669 16.807290 27.718750 17.078125 C28.104169 17.890629 28.432290 18.841140 28.703125 19.929688 C28.973960 21.018235 29.161458 22.052078 29.265625 23.031250 C29.317709 23.437502 29.473957 23.752603 29.734375 23.976562 C29.994793 24.200522 30.249999 24.401041 30.500000 24.578125 C30.750001 24.755209 30.880208 24.979165 30.890625 25.250000 C30.911458 25.906253 31.054686 26.638017 31.320312 27.445312 C31.585939 28.252608 31.718750 29.119787 31.718750 30.046875 C31.718750 30.859379 31.559897 31.419269 31.242188 31.726562 C30.924478 32.033856 30.411462 32.187500 29.703125 32.187500 C28.796870 32.187500 28.343750 31.932294 28.343750 31.421875 C28.343750 31.119790 28.458332 30.723961 28.687500 30.234375 C28.916668 29.744789 29.031250 29.192711 29.031250 28.578125 C29.031250 27.963539 28.828127 27.445315 28.421875 27.023438 C28.015623 26.601560 27.281255 26.203127 26.218750 25.828125 C26.218750 26.015626 26.151042 26.367185 26.015625 26.882812 C25.880208 27.398440 25.713543 27.960934 25.515625 28.570312 C25.317707 29.179691 25.117189 29.729164 24.914062 30.218750 C24.710936 30.708336 24.536459 31.026041 24.390625 31.171875 C24.286458 31.276042 24.041669 31.375000 23.656250 31.468750 C23.270831 31.562500 22.921877 31.609375 22.609375 31.609375 C22.067706 31.609375 21.666668 31.554688 21.406250 31.445312 C21.145832 31.335937 21.015625 31.171876 21.015625 30.953125 C21.015625 30.817708 21.093749 30.645834 21.250000 30.437500 C21.406251 30.229166 21.651040 29.963543 21.984375 29.640625 C22.338543 29.307290 22.619791 28.838545 22.828125 28.234375 C23.036459 27.630205 23.140625 27.119794 23.140625 26.703125 C23.140625 26.432290 22.997397 26.153647 22.710938 25.867188 C22.424478 25.580728 21.968753 25.260418 21.343750 24.906250 C21.270833 24.864583 21.119793 24.835938 20.890625 24.820312 C20.661457 24.804687 20.380210 24.796875 20.046875 24.796875 C19.567706 24.796875 19.036461 24.815104 18.453125 24.851562 C17.869789 24.888021 17.338544 24.947916 16.859375 25.031250 L15.203125 30.093750 C14.942707 30.895837 14.697918 31.492186 14.468750 31.882812 C14.239582 32.273439 13.981772 32.526041 13.695312 32.640625 C13.408853 32.755209 13.036461 32.812500 12.578125 32.812500 Z M0.406250 12.859375 L0.000000 11.671875 C0.572920 11.473957 1.164059 11.304688 1.773438 11.164062 C2.382816 11.023437 3.020830 10.901042 3.687500 10.796875 L3.875000 12.046875 C3.249997 12.130209 2.648440 12.242187 2.070312 12.382812 C1.492185 12.523438 0.937503 12.682291 0.406250 12.859375 Z M3.656250 10.562500 C3.270831 10.510416 2.882814 10.473958 2.492188 10.453125 C2.101561 10.432292 1.708335 10.421875 1.312500 10.421875 C1.145832 10.421875 0.979168 10.421875 0.812500 10.421875 C0.645832 10.421875 0.473959 10.427083 0.296875 10.437500 L0.296875 9.203125 C0.473959 9.192708 0.645832 9.184896 0.812500 9.179688 C0.979168 9.174479 1.145832 9.171875 1.312500 9.171875 C1.708335 9.171875 2.171872 9.197916 2.703125 9.250000 C3.234378 9.302084 3.692706 9.390624 4.078125 9.515625 Z M4.531250 11.718750 C4.843752 11.718750 5.177082 11.640626 5.531250 11.484375 C5.885418 11.328124 6.184895 11.140626 6.429688 10.921875 C6.674480 10.703124 6.796875 10.500001 6.796875 10.312500 C6.796875 10.052082 6.296880 9.921875 5.296875 9.921875 C4.973957 9.921875 4.760417 9.994791 4.656250 10.140625 C4.552083 10.286459 4.500000 10.562498 4.500000 10.968750 C4.500000 11.281252 4.510417 11.531249 4.531250 11.718750 Z M11.437500 16.656250 L12.437500 15.875000 C11.572912 14.791661 10.593755 13.875004 9.500000 13.125000 L8.781250 14.140625 C9.802088 14.838545 10.687496 15.677078 11.437500 16.656250 Z M13.015625 14.281250 L13.796875 13.296875 C12.942704 12.630205 11.901048 12.031253 10.671875 11.500000 L10.171875 12.656250 C11.265630 13.093752 12.213538 13.635413 13.015625 14.281250 Z M9.265625 10.765625 C9.630210 10.765625 9.947915 10.601564 10.218750 10.273438 C10.489585 9.945311 10.625000 9.583335 10.625000 9.187500 C10.625000 8.927082 10.554688 8.703126 10.414062 8.515625 C10.273437 8.328124 10.078126 8.234375 9.828125 8.234375 C9.473957 8.234375 9.158856 8.401040 8.882812 8.734375 C8.606769 9.067710 8.468750 9.427081 8.468750 9.812500 C8.468750 10.072918 8.539062 10.296874 8.679688 10.484375 C8.820313 10.671876 9.015624 10.765625 9.265625 10.765625 Z M7.593750 7.062500 C7.489583 6.916666 7.411459 6.692710 7.359375 6.390625 C7.307291 6.088540 7.281250 5.744794 7.281250 5.359375 C7.281250 4.682288 7.348958 3.960941 7.484375 3.195312 C7.619792 2.429684 7.804686 1.776044 8.039062 1.234375 C8.273439 0.692706 8.536457 0.421875 8.828125 0.421875 C9.161460 0.421875 9.627601 0.828121 10.226562 1.640625 C10.825524 2.453129 11.442705 3.651034 12.078125 5.234375 Z M17.015625 7.734375 C17.296876 7.734375 17.437500 7.223963 17.437500 6.203125 C17.437500 5.776040 17.401042 5.315107 17.328125 4.820312 C17.255208 4.325518 17.161459 3.859377 17.046875 3.421875 C16.932291 2.984373 16.809896 2.625001 16.679688 2.343750 C16.549479 2.062499 16.427084 1.921875 16.312500 1.921875 C16.218750 1.921875 16.059897 2.070311 15.835938 2.367188 C15.611978 2.664064 15.377605 3.018227 15.132812 3.429688 C14.888020 3.841148 14.677084 4.234373 14.500000 4.609375 C14.322916 4.984377 14.234375 5.249999 14.234375 5.406250 C14.234375 5.541667 14.367186 5.700520 14.632812 5.882812 C14.898439 6.065105 15.177082 6.286457 15.468750 6.546875 C15.781252 6.817710 16.075519 7.083332 16.351562 7.343750 C16.627606 7.604168 16.848958 7.734375 17.015625 7.734375 Z M36.171875 27.343750" /></svg>