<svg version="1.1" xmlns="http://www.w3.org/2000/svg" style="fill:rgba(0,0,0,1.0)" width="256" height="256" viewBox="0 0 28.984375 19.375"><path fill="rgb(255, 255, 255)" d="M2.375000 19.375000 L14.968750 19.375000 C15.645837 19.375000 16.210935 19.148440 16.664062 18.695312 C17.117190 18.242185 17.343750 17.677087 17.343750 17.000000 L17.343750 4.875000 C17.343750 4.197913 17.117190 3.632815 16.664062 3.179688 C16.210935 2.726560 15.645837 2.500000 14.968750 2.500000 L2.375000 2.500000 C1.697913 2.500000 1.132815 2.726560 0.679688 3.179688 C0.226560 3.632815 0.000000 4.197913 0.000000 4.875000 L0.000000 17.000000 C0.000000 17.677087 0.226560 18.242185 0.679688 18.695312 C1.132815 19.148440 1.697913 19.375000 2.375000 19.375000 Z M4.000000 18.593750 L5.406250 18.593750 L5.406250 3.359375 L4.000000 3.359375 Z M0.781250 15.578125 L16.562500 15.578125 L16.562500 14.171875 L0.781250 14.171875 Z M2.375000 17.812500 C2.135415 17.812500 1.940105 17.736980 1.789062 17.585938 C1.638020 17.434895 1.562500 17.239585 1.562500 17.000000 L1.562500 4.875000 C1.562500 4.635415 1.638020 4.440105 1.789062 4.289062 C1.940105 4.138020 2.135415 4.062500 2.375000 4.062500 L14.968750 4.062500 C15.208335 4.062500 15.403645 4.138020 15.554688 4.289062 C15.705730 4.440105 15.781250 4.635415 15.781250 4.875000 L15.781250 17.000000 C15.781250 17.239585 15.705730 17.434895 15.554688 17.585938 C15.403645 17.736980 15.208335 17.812500 14.968750 17.812500 Z M0.781250 11.640625 L16.562500 11.640625 L16.562500 10.234375 L0.781250 10.234375 Z M7.968750 18.593750 L9.375000 18.593750 L9.375000 3.359375 L7.968750 3.359375 Z M11.937500 18.593750 L13.343750 18.593750 L13.343750 3.359375 L11.937500 3.359375 Z M0.781250 7.687500 L16.562500 7.687500 L16.562500 6.281250 L0.781250 6.281250 Z M28.984375 21.875000" /></svg>