<svg version="1.1" xmlns="http://www.w3.org/2000/svg" style="fill:rgba(0,0,0,1.0)" width="256" height="256" viewBox="0 0 36.71875 32.8125"><path fill="rgb(255, 255, 255)" d="M30.625000 32.812500 C30.083331 32.812500 29.526045 32.661460 28.953125 32.359375 C28.046870 31.869789 26.979173 31.377607 25.750000 30.882812 C24.520827 30.388018 23.273444 29.940106 22.007812 29.539062 C20.742181 29.138019 19.598963 28.838543 18.578125 28.640625 C17.567703 28.442707 16.747399 28.143231 16.117188 27.742188 C15.486976 27.341144 14.927086 26.692713 14.437500 25.796875 C14.041665 25.046871 13.687502 24.414065 13.375000 23.898438 C13.062498 23.382810 12.713544 22.859378 12.328125 22.328125 C11.942706 21.796872 11.437503 21.145837 10.812500 20.375000 C10.510415 20.510417 10.187502 20.578125 9.843750 20.578125 C9.406248 20.578125 9.020835 20.458335 8.687500 20.218750 C8.416665 20.020832 8.192709 19.781251 8.015625 19.500000 C7.838541 19.218749 7.750000 18.916668 7.750000 18.593750 C7.750000 18.354165 7.921873 17.976565 8.265625 17.460938 C8.609377 16.945310 9.041664 16.372399 9.562500 15.742188 C10.083336 15.111976 10.609372 14.505211 11.140625 13.921875 C11.671878 13.338539 12.124998 12.859377 12.500000 12.484375 C13.177087 11.807288 13.914059 11.114587 14.710938 10.406250 C15.507816 9.697913 16.270830 9.101565 17.000000 8.617188 C17.729170 8.132810 18.317706 7.890625 18.765625 7.890625 C19.359378 7.890625 19.843748 8.145831 20.218750 8.656250 C20.468751 9.010418 20.593750 9.406248 20.593750 9.843750 C20.593750 10.187502 20.526042 10.510415 20.390625 10.812500 C20.973961 11.291669 21.466144 11.690103 21.867188 12.007812 C22.268231 12.325522 22.648436 12.604165 23.007812 12.843750 C23.367189 13.083335 23.763019 13.325520 24.195312 13.570312 C24.627606 13.815105 25.161455 14.104165 25.796875 14.437500 C26.682296 14.895836 27.330727 15.442705 27.742188 16.078125 C28.153648 16.713545 28.458332 17.541662 28.656250 18.562500 C28.864584 19.572922 29.169269 20.710931 29.570312 21.976562 C29.971356 23.242194 30.419268 24.489577 30.914062 25.718750 C31.408857 26.947923 31.890623 28.020829 32.359375 28.937500 C32.661460 29.520836 32.812500 30.093747 32.812500 30.656250 C32.812500 31.302087 32.609377 31.822915 32.203125 32.218750 C31.786456 32.614585 31.260420 32.812500 30.625000 32.812500 Z M22.046875 24.687500 C21.380205 24.687500 20.807294 24.450523 20.328125 23.976562 C19.848956 23.502602 19.609375 22.932295 19.609375 22.265625 C19.609375 21.588538 19.848956 21.015627 20.328125 20.546875 C20.807294 20.078123 21.380205 19.843750 22.046875 19.843750 C22.713545 19.843750 23.283852 20.078123 23.757812 20.546875 C24.231773 21.015627 24.468750 21.588538 24.468750 22.265625 C24.468750 22.932295 24.231773 23.502602 23.757812 23.976562 C23.283852 24.450523 22.713545 24.687500 22.046875 24.687500 Z M8.062500 19.218750 L0.812500 12.781250 C0.270831 12.291664 0.000000 11.687504 0.000000 10.968750 C0.000000 10.447914 0.151040 9.973960 0.453125 9.546875 C0.869794 8.963539 1.432288 8.223963 2.140625 7.328125 C2.848962 6.432287 3.666662 5.515630 4.593750 4.578125 C5.520838 3.651037 6.432287 2.830733 7.328125 2.117188 C8.223963 1.403642 8.973955 0.843752 9.578125 0.437500 C10.015627 0.145832 10.484372 -0.000000 10.984375 -0.000000 C11.703129 -0.000000 12.307289 0.270831 12.796875 0.812500 L19.234375 8.062500 L17.828125 9.312500 L11.500000 2.187500 C11.322916 1.989582 11.135418 1.890625 10.937500 1.890625 C10.781249 1.890625 10.625001 1.947916 10.468750 2.062500 C9.718746 2.593753 8.940108 3.195309 8.132812 3.867188 C7.325517 4.539066 6.583337 5.213538 5.906250 5.890625 C5.031246 6.776046 4.263024 7.630204 3.601562 8.453125 C2.940101 9.276046 2.437502 9.947914 2.093750 10.468750 C1.947916 10.687501 1.875000 10.869791 1.875000 11.015625 C1.875000 11.161459 1.942708 11.291666 2.078125 11.406250 L9.312500 17.812500 Z M29.828125 30.703125 C30.119793 30.859376 30.390624 30.833334 30.640625 30.625000 C30.755209 30.531250 30.815104 30.406251 30.820312 30.250000 C30.825521 30.093749 30.786459 29.947917 30.703125 29.812500 C30.307290 29.104163 29.914064 28.291671 29.523438 27.375000 C29.132811 26.458329 28.760418 25.502609 28.406250 24.507812 C28.052082 23.513016 27.736981 22.533859 27.460938 21.570312 C27.184894 20.606766 26.968751 19.729171 26.812500 18.937500 C26.656249 18.166663 26.447918 17.572919 26.187500 17.156250 C25.927082 16.739581 25.473962 16.364585 24.828125 16.031250 C24.192705 15.697915 23.653648 15.403647 23.210938 15.148438 C22.768227 14.893228 22.354169 14.638022 21.968750 14.382812 C21.583331 14.127603 21.169273 13.828127 20.726562 13.484375 C20.283852 13.140623 19.744795 12.708336 19.109375 12.187500 C18.494789 12.656252 17.841149 13.179685 17.148438 13.757812 C16.455726 14.335940 15.869794 14.869789 15.390625 15.359375 C14.880206 15.890628 14.333336 16.497392 13.750000 17.179688 C13.166664 17.861983 12.645836 18.499997 12.187500 19.093750 C12.875003 19.937504 13.424477 20.648435 13.835938 21.226562 C14.247398 21.804690 14.614582 22.364581 14.937500 22.906250 C15.260418 23.447919 15.624998 24.088538 16.031250 24.828125 C16.395835 25.484378 16.781248 25.937499 17.187500 26.187500 C17.593752 26.437501 18.182288 26.640624 18.953125 26.796875 C19.755212 26.953126 20.635412 27.174478 21.593750 27.460938 C22.552088 27.747397 23.528641 28.067707 24.523438 28.421875 C25.518234 28.776043 26.471350 29.151040 27.382812 29.546875 C28.294275 29.942710 29.109371 30.328123 29.828125 30.703125 Z M30.593750 31.875000 L20.812500 22.125000 L22.125000 20.796875 L31.906250 30.546875 Z M36.718750 27.343750" /></svg>