<svg version="1.1" xmlns="http://www.w3.org/2000/svg" style="fill:rgba(0,0,0,1.0)" width="256" height="256" viewBox="0 0 38.125 32.8125"><path fill="rgb(255, 255, 255)" d="M17.812500 32.812500 C21.916687 29.677068 25.281237 26.770847 27.906250 24.093750 C30.531263 21.416653 32.473952 18.864595 33.734375 16.437500 C34.994798 14.010405 35.625000 11.609387 35.625000 9.234375 C35.625000 7.911452 35.398440 6.687506 34.945312 5.562500 C34.492185 4.437494 33.856775 3.458337 33.039062 2.625000 C32.221350 1.791663 31.255214 1.145836 30.140625 0.687500 C29.026036 0.229164 27.812507 -0.000000 26.500000 -0.000000 C25.249994 -0.000000 24.057297 0.226560 22.921875 0.679688 C21.786453 1.132815 20.778650 1.765621 19.898438 2.578125 C19.018225 3.390629 18.322919 4.338536 17.812500 5.421875 C17.312498 4.338536 16.619796 3.390629 15.734375 2.578125 C14.848954 1.765621 13.838547 1.132815 12.703125 0.679688 C11.567703 0.226560 10.375006 -0.000000 9.125000 -0.000000 C7.812493 -0.000000 6.598964 0.229164 5.484375 0.687500 C4.369786 1.145836 3.403650 1.791663 2.585938 2.625000 C1.768225 3.458337 1.132815 4.437494 0.679688 5.562500 C0.226560 6.687506 0.000000 7.911452 0.000000 9.234375 C0.000000 11.609387 0.630202 14.010405 1.890625 16.437500 C3.151048 18.864595 5.093737 21.416653 7.718750 24.093750 C10.343763 26.770847 13.708313 29.677068 17.812500 32.812500 Z M13.984375 28.906250 L21.640625 28.906250 L21.640625 27.656250 L13.984375 27.656250 Z M9.531250 24.843750 L26.093750 24.843750 L26.093750 23.593750 L9.531250 23.593750 Z M5.312500 18.734375 L5.312500 2.265625 L4.062500 2.265625 L4.062500 18.734375 Z M8.437500 24.140625 L9.687500 24.140625 L9.687500 1.078125 L8.437500 1.078125 Z M5.875000 20.781250 L29.750000 20.781250 L29.750000 19.531250 L5.875000 19.531250 Z M12.812500 27.640625 L14.062500 27.640625 L14.062500 1.593750 L12.812500 1.593750 Z M17.187500 31.765625 L18.437500 31.765625 L18.437500 6.046875 L17.187500 6.046875 Z M17.812500 30.468750 C14.249982 27.729153 11.289074 25.148450 8.929688 22.726562 C6.570301 20.304675 4.804693 17.981782 3.632812 15.757812 C2.460932 13.533843 1.875000 11.359386 1.875000 9.234375 C1.875000 7.817701 2.184893 6.554693 2.804688 5.445312 C3.424482 4.335932 4.281245 3.463545 5.375000 2.828125 C6.468755 2.192705 7.718743 1.875000 9.125000 1.875000 C10.562507 1.875000 11.817703 2.164060 12.890625 2.742188 C13.963547 3.320315 14.901038 4.122391 15.703125 5.148438 C16.505212 6.174484 17.208330 7.359368 17.812500 8.703125 C18.427086 7.359368 19.132809 6.174484 19.929688 5.148438 C20.726566 4.122391 21.664057 3.320315 22.742188 2.742188 C23.820318 2.164060 25.072910 1.875000 26.500000 1.875000 C27.916674 1.875000 29.169265 2.192705 30.257812 2.828125 C31.346360 3.463545 32.200518 4.335932 32.820312 5.445312 C33.440107 6.554693 33.750000 7.817701 33.750000 9.234375 C33.750000 11.359386 33.164068 13.533843 31.992188 15.757812 C30.820307 17.981782 29.054699 20.304675 26.695312 22.726562 C24.335926 25.148450 21.375018 27.729153 17.812500 30.468750 Z M2.687500 16.718750 L32.937500 16.718750 L32.937500 15.468750 L2.687500 15.468750 Z M2.250000 4.515625 L16.250000 4.515625 L16.250000 3.265625 L2.250000 3.265625 Z M1.265625 12.656250 L34.359375 12.656250 L34.359375 11.406250 L1.265625 11.406250 Z M21.562500 27.640625 L22.812500 27.640625 L22.812500 1.593750 L21.562500 1.593750 Z M1.093750 8.593750 L34.531250 8.593750 L34.531250 7.343750 L1.093750 7.343750 Z M25.937500 24.140625 L27.187500 24.140625 L27.187500 1.078125 L25.937500 1.078125 Z M30.312500 18.734375 L31.562500 18.734375 L31.562500 2.265625 L30.312500 2.265625 Z M19.375000 4.515625 L33.375000 4.515625 L33.375000 3.265625 L19.375000 3.265625 Z M38.125000 27.343750" /></svg>