<svg version="1.1" xmlns="http://www.w3.org/2000/svg" style="fill:rgba(0,0,0,1.0)" width="256" height="256" viewBox="0 0 35.15312516000065 32.8125"><path fill="rgb(255, 255, 255)" d="M4.218750 22.296875 L0.796875 5.328125 C1.348961 4.578121 2.124995 4.005210 3.125000 3.609375 C4.125005 3.213540 5.276035 3.015625 6.578125 3.015625 C7.130211 3.015625 7.781246 3.054687 8.531250 3.132812 C9.281254 3.210938 10.026038 3.250000 10.765625 3.250000 C11.244794 3.250000 11.744789 3.210938 12.265625 3.132812 C12.786461 3.054687 13.385413 2.888022 14.062500 2.632812 C14.739587 2.377603 15.552079 1.979169 16.500000 1.437500 C17.364588 0.947914 18.195309 0.585939 18.992188 0.351562 C19.789066 0.117186 20.614579 -0.000000 21.468750 -0.000000 C22.250004 -0.000000 23.070308 0.078124 23.929688 0.234375 C24.789067 0.390626 25.661454 0.619790 26.546875 0.921875 C26.880210 2.203131 27.179686 3.408849 27.445312 4.539062 C27.710939 5.669276 27.963540 6.817702 28.203125 7.984375 C28.442710 9.151048 28.684895 10.419264 28.929688 11.789062 C29.174480 13.158861 29.442707 14.723950 29.734375 16.484375 C29.036455 16.348958 28.447919 16.244792 27.968750 16.171875 C27.489581 16.098958 27.041669 16.046875 26.625000 16.015625 C26.208331 15.984375 25.739586 15.968750 25.218750 15.968750 C24.604164 15.968750 23.986982 16.036458 23.367188 16.171875 C22.747393 16.307292 22.075524 16.528644 21.351562 16.835938 C20.627601 17.143231 19.791671 17.557289 18.843750 18.078125 C17.531243 18.796879 16.359380 19.372394 15.328125 19.804688 C14.296870 20.236981 13.338546 20.549478 12.453125 20.742188 C11.567704 20.934897 10.677088 21.031250 9.781250 21.031250 C9.322914 21.031250 8.856773 21.020833 8.382812 21.000000 C7.908852 20.979167 7.484377 20.968750 7.109375 20.968750 C6.505205 20.968750 5.932294 21.091145 5.390625 21.335938 C4.848956 21.580730 4.458335 21.901040 4.218750 22.296875 Z M4.625000 32.812500 C4.427082 32.812500 4.234376 32.744792 4.046875 32.609375 C3.859374 32.473958 3.744792 32.265626 3.703125 31.984375 L0.062500 4.125000 C0.020833 3.854165 0.083332 3.609376 0.250000 3.390625 C0.416667 3.171874 0.666665 3.062500 1.000000 3.062500 C1.208334 3.062500 1.403645 3.130208 1.585938 3.265625 C1.768230 3.401042 1.880208 3.609374 1.921875 3.890625 L5.562500 31.750000 C5.604167 32.020835 5.546876 32.265624 5.390625 32.484375 C5.234374 32.703126 4.979168 32.812500 4.625000 32.812500 Z M35.203125 27.343750" /></svg>