<svg version="1.1" xmlns="http://www.w3.org/2000/svg" style="fill:rgba(0,0,0,1.0)" width="256" height="256" viewBox="0 0 37.1875 32.8125"><path fill="rgb(255, 255, 255)" d="M10.093750 32.812500 C8.666660 32.812500 7.341152 32.562502 6.117188 32.062500 C4.893223 31.562498 3.822921 30.861984 2.906250 29.960938 C1.989579 29.059891 1.276044 28.007819 0.765625 26.804688 C0.255206 25.601556 0.000000 24.296882 0.000000 22.890625 C0.000000 21.484368 0.255206 20.179694 0.765625 18.976562 C1.276044 17.773431 1.989579 16.721359 2.906250 15.820312 C3.822921 14.919266 4.893223 14.216148 6.117188 13.710938 C7.341152 13.205727 8.666660 12.953125 10.093750 12.953125 C11.520840 12.953125 12.843744 13.205727 14.062500 13.710938 C15.281256 14.216148 16.348954 14.919266 17.265625 15.820312 C18.182296 16.721359 18.895831 17.773431 19.406250 18.976562 C19.916669 20.179694 20.171875 21.479160 20.171875 22.875000 C20.171875 24.281257 19.916669 25.585931 19.406250 26.789062 C18.895831 27.992194 18.182296 29.044266 17.265625 29.945312 C16.348954 30.846359 15.281256 31.549477 14.062500 32.054688 C12.843744 32.559898 11.520840 32.812500 10.093750 32.812500 Z M10.093750 31.250000 C11.635424 31.250000 13.036452 30.872400 14.296875 30.117188 C15.557298 29.361975 16.565100 28.351569 17.320312 27.085938 C18.075525 25.820306 18.453125 24.416674 18.453125 22.875000 C18.453125 21.343742 18.078129 19.945319 17.328125 18.679688 C16.578121 17.414056 15.570319 16.403650 14.304688 15.648438 C13.039056 14.893225 11.635424 14.515625 10.093750 14.515625 C8.552076 14.515625 7.148444 14.893225 5.882812 15.648438 C4.617181 16.403650 3.606775 17.414056 2.851562 18.679688 C2.096350 19.945319 1.718750 21.348951 1.718750 22.890625 C1.718750 24.432299 2.096350 25.835931 2.851562 27.101562 C3.606775 28.367194 4.617181 29.374996 5.882812 30.125000 C7.148444 30.875004 8.552076 31.250000 10.093750 31.250000 Z M8.203125 21.156250 C8.640627 21.156250 9.015623 21.007814 9.328125 20.710938 C9.640627 20.414061 9.796875 20.067710 9.796875 19.671875 C9.796875 19.276040 9.651043 18.942710 9.359375 18.671875 C9.067707 18.401040 8.708335 18.265625 8.281250 18.265625 C7.843748 18.265625 7.468752 18.408853 7.156250 18.695312 C6.843748 18.981772 6.687500 19.333331 6.687500 19.750000 C6.687500 20.125002 6.838540 20.453124 7.140625 20.734375 C7.442710 21.015626 7.796873 21.156250 8.203125 21.156250 Z M7.187500 23.281250 C6.864582 23.281250 6.585939 23.192709 6.351562 23.015625 C6.117186 22.838541 6.000000 22.557294 6.000000 22.171875 C6.000000 22.067708 6.010417 21.958334 6.031250 21.843750 C6.052083 21.729166 6.078125 21.609376 6.109375 21.484375 C5.515622 21.401041 5.072918 21.239585 4.781250 21.000000 C4.489582 20.760415 4.343750 20.500001 4.343750 20.218750 C4.343750 19.927082 4.497394 19.656251 4.804688 19.406250 C5.111981 19.156249 5.567705 18.994792 6.171875 18.921875 C5.921874 18.442706 5.796875 17.994794 5.796875 17.578125 C5.796875 17.265623 5.888020 17.007814 6.070312 16.804688 C6.252605 16.601561 6.473957 16.500000 6.734375 16.500000 C6.973960 16.500000 7.231769 16.593749 7.507812 16.781250 C7.783856 16.968751 7.999999 17.197915 8.156250 17.468750 C8.291667 16.999998 8.494790 16.591148 8.765625 16.242188 C9.036460 15.893227 9.317707 15.718750 9.609375 15.718750 C9.942710 15.718750 10.229165 15.950519 10.468750 16.414062 C10.708335 16.877606 10.828125 17.463538 10.828125 18.171875 C10.828125 18.328126 10.825521 18.453125 10.820312 18.546875 C10.815104 18.640625 10.807292 18.723958 10.796875 18.796875 C11.255211 18.796875 11.585936 18.898436 11.789062 19.101562 C11.992189 19.304689 12.093750 19.546874 12.093750 19.828125 C12.093750 20.286461 11.864586 20.752602 11.406250 21.226562 C10.947914 21.700523 10.348962 21.937500 9.609375 21.937500 C9.317707 22.364585 8.940106 22.695311 8.476562 22.929688 C8.013019 23.164064 7.583335 23.281250 7.187500 23.281250 Z M1.984375 5.343750 C1.984375 4.906248 2.098957 4.565105 2.328125 4.320312 C2.557293 4.075520 2.820311 3.890626 3.117188 3.765625 C3.414064 3.640624 3.674478 3.528646 3.898438 3.429688 C4.122397 3.330729 4.234375 3.203126 4.234375 3.046875 C4.234375 2.953125 4.216146 2.838542 4.179688 2.703125 C4.143229 2.567708 4.125000 2.421876 4.125000 2.265625 C4.125000 1.921873 4.249999 1.635418 4.500000 1.406250 C4.750001 1.177082 5.046873 1.062500 5.390625 1.062500 C5.661460 1.062500 5.898436 1.130208 6.101562 1.265625 C6.304689 1.401042 6.468749 1.468750 6.593750 1.468750 C6.760418 1.468750 6.914062 1.346355 7.054688 1.101562 C7.195313 0.856770 7.377603 0.611980 7.601562 0.367188 C7.825522 0.122395 8.140623 -0.000000 8.546875 -0.000000 C8.734376 -0.000000 8.921874 0.046875 9.109375 0.140625 C8.671873 0.609377 8.453125 1.260413 8.453125 2.093750 L8.453125 2.718750 L4.812500 5.375000 C4.718750 5.302083 4.518231 5.239584 4.210938 5.187500 C3.903644 5.135416 3.609376 5.109375 3.328125 5.109375 C2.880206 5.109375 2.432294 5.187499 1.984375 5.343750 Z M4.859375 15.671875 C4.130205 14.869788 3.567710 13.958338 3.171875 12.937500 C2.776040 11.916662 2.578125 10.854172 2.578125 9.750000 C2.578125 8.531244 2.815102 7.388026 3.289062 6.320312 C3.763023 5.252599 4.414058 4.315108 5.242188 3.507812 C6.070317 2.700517 7.023432 2.070315 8.101562 1.617188 C9.179693 1.164060 10.328119 0.937500 11.546875 0.937500 C12.942715 0.937500 14.252598 1.236976 15.476562 1.835938 C16.700527 2.434899 17.742183 3.255203 18.601562 4.296875 C19.460942 5.338547 20.031249 6.526035 20.312500 7.859375 L18.625000 8.203125 C18.385415 7.088536 17.921878 6.104171 17.234375 5.250000 C16.546872 4.395829 15.710942 3.723961 14.726562 3.234375 C13.742183 2.744789 12.682297 2.500000 11.546875 2.500000 C10.213535 2.500000 8.997401 2.825518 7.898438 3.476562 C6.799474 4.127607 5.924482 5.002599 5.273438 6.101562 C4.622393 7.200526 4.296875 8.416660 4.296875 9.750000 C4.296875 11.625009 4.921869 13.244785 6.171875 14.609375 Z M24.046875 24.843750 C23.161454 24.843750 22.289067 24.721355 21.429688 24.476562 C20.570308 24.231770 19.770837 23.885419 19.031250 23.437500 L19.843750 22.093750 C21.114590 22.885421 22.515617 23.281250 24.046875 23.281250 C25.515632 23.281250 26.854161 22.921879 28.062500 22.203125 C29.270839 21.484371 30.234371 20.520839 30.953125 19.312500 C31.671879 18.104161 32.031250 16.765632 32.031250 15.296875 C32.031250 13.817701 31.671879 12.473964 30.953125 11.265625 C30.234371 10.057286 29.273444 9.093754 28.070312 8.375000 C26.867181 7.656246 25.526049 7.296875 24.046875 7.296875 C22.942703 7.296875 21.906255 7.502602 20.937500 7.914062 C19.968745 8.325523 19.117191 8.898434 18.382812 9.632812 C17.648434 10.367191 17.075523 11.218745 16.664062 12.187500 C16.252602 13.156255 16.046875 14.192703 16.046875 15.296875 L14.328125 15.296875 C14.328125 13.984368 14.580727 12.750006 15.085938 11.593750 C15.591148 10.437494 16.289058 9.421879 17.179688 8.546875 C18.070317 7.671871 19.104161 6.984378 20.281250 6.484375 C21.458339 5.984372 22.713535 5.734375 24.046875 5.734375 C25.401048 5.734375 26.664057 5.979164 27.835938 6.468750 C29.007818 6.958336 30.036454 7.640621 30.921875 8.515625 C31.807296 9.390629 32.499998 10.406244 33.000000 11.562500 C33.500002 12.718756 33.750000 13.963535 33.750000 15.296875 C33.750000 16.619798 33.500002 17.859369 33.000000 19.015625 C32.499998 20.171881 31.807296 21.187496 30.921875 22.062500 C30.036454 22.937504 29.007818 23.619789 27.835938 24.109375 C26.664057 24.598961 25.401048 24.843750 24.046875 24.843750 Z M25.968750 13.609375 C26.416669 13.609375 26.786457 13.473960 27.078125 13.203125 C27.369793 12.932290 27.515625 12.588544 27.515625 12.171875 C27.515625 11.692706 27.325523 11.273439 26.945312 10.914062 C26.565102 10.554686 26.114586 10.375000 25.593750 10.375000 C25.156248 10.375000 24.786460 10.515624 24.484375 10.796875 C24.182290 11.078126 24.031250 11.427081 24.031250 11.843750 C24.031250 12.312502 24.223956 12.723957 24.609375 13.078125 C24.994794 13.432293 25.447914 13.609375 25.968750 13.609375 Z M26.687500 16.046875 C26.145831 16.046875 25.640627 15.838544 25.171875 15.421875 C24.703123 15.005206 24.411459 14.546878 24.296875 14.046875 C23.515621 14.046875 22.838545 13.822919 22.265625 13.375000 C21.692705 12.927081 21.406250 12.421878 21.406250 11.859375 C21.406250 11.140621 21.869787 10.781250 22.796875 10.781250 C22.723958 10.499999 22.671875 10.239585 22.640625 10.000000 C22.609375 9.760415 22.593750 9.541668 22.593750 9.343750 C22.593750 8.468746 22.947913 8.031250 23.656250 8.031250 C24.031252 8.031250 24.401040 8.151040 24.765625 8.390625 C25.130210 8.630210 25.442707 8.953123 25.703125 9.359375 C26.057293 9.098957 26.346353 8.919271 26.570312 8.820312 C26.794272 8.721354 26.999999 8.671875 27.187500 8.671875 C27.614585 8.671875 27.955728 8.885415 28.210938 9.312500 C28.466147 9.739585 28.614583 10.338538 28.656250 11.109375 C29.114586 11.182292 29.528644 11.390623 29.898438 11.734375 C30.268231 12.078127 30.453125 12.401040 30.453125 12.703125 C30.453125 13.057293 30.197919 13.356770 29.687500 13.601562 C29.177081 13.846355 28.588545 13.968750 27.921875 13.968750 C27.921875 14.718754 27.820314 15.252603 27.617188 15.570312 C27.414061 15.888022 27.104169 16.046875 26.687500 16.046875 Z M37.187500 27.343750" /></svg>