<svg version="1.1" xmlns="http://www.w3.org/2000/svg" style="fill:rgba(0,0,0,1.0)" width="256" height="256" viewBox="0 0 33.984375 32.8125"><path fill="rgb(255, 255, 255)" d="M11.343750 32.812500 C9.781242 32.812500 8.315111 32.518232 6.945312 31.929688 C5.575514 31.341143 4.369797 30.523443 3.328125 29.476562 C2.286453 28.429682 1.471357 27.216153 0.882812 25.835938 C0.294268 24.455722 0.000000 22.979175 0.000000 21.406250 C0.000000 19.843742 0.294268 18.377611 0.882812 17.007812 C1.471357 15.638014 2.286453 14.429693 3.328125 13.382812 C4.369797 12.335932 5.578118 11.515628 6.953125 10.921875 C8.328132 10.328122 9.802075 10.031250 11.375000 10.031250 C12.666673 10.031250 13.895828 10.231769 15.062500 10.632812 C16.229172 11.033856 17.218746 11.557288 18.031250 12.203125 C18.343752 12.453126 18.692706 12.578125 19.078125 12.578125 C19.348960 12.578125 19.617186 12.520834 19.882812 12.406250 C20.148439 12.291666 20.390624 12.177084 20.609375 12.062500 L21.343750 11.671875 C21.604168 11.536458 21.869790 11.468750 22.140625 11.468750 C22.598961 11.468750 23.044269 11.632811 23.476562 11.960938 C23.908856 12.289064 24.299477 12.710935 24.648438 13.226562 C24.997398 13.742190 25.273436 14.294268 25.476562 14.882812 C25.679689 15.471357 25.781250 16.031247 25.781250 16.562500 C25.781250 16.843751 25.710938 17.093749 25.570312 17.312500 C25.429687 17.531251 25.265626 17.697916 25.078125 17.812500 C24.505205 18.135418 23.976565 18.526039 23.492188 18.984375 C23.007810 19.442711 22.765625 20.026038 22.765625 20.734375 L22.765625 21.406250 C22.765625 22.968758 22.468753 24.437493 21.875000 25.812500 C21.281247 27.187507 20.463547 28.401036 19.421875 29.453125 C18.380203 30.505214 17.169278 31.328122 15.789062 31.921875 C14.408847 32.515628 12.927091 32.812500 11.343750 32.812500 Z M3.078125 20.984375 C3.317710 20.984375 3.544270 20.908855 3.757812 20.757812 C3.971355 20.606770 4.109375 20.369793 4.171875 20.046875 C4.265625 19.557289 4.419270 19.096356 4.632812 18.664062 C4.846355 18.231769 5.083332 17.817710 5.343750 17.421875 C5.510418 17.161457 5.593750 16.911460 5.593750 16.671875 C5.593750 16.411457 5.492189 16.177084 5.289062 15.968750 C5.085936 15.760416 4.838543 15.656250 4.546875 15.656250 C4.182290 15.656250 3.901043 15.786457 3.703125 16.046875 C3.307290 16.578128 2.971356 17.151039 2.695312 17.765625 C2.419269 18.380211 2.223959 19.031247 2.109375 19.718750 C2.088542 19.843751 2.078125 19.937500 2.078125 20.000000 C2.078125 20.322918 2.182291 20.567708 2.390625 20.734375 C2.598959 20.901043 2.828124 20.984375 3.078125 20.984375 Z M6.859375 15.312500 C7.078126 15.312500 7.302082 15.250001 7.531250 15.125000 C7.656251 15.052083 7.781249 14.986979 7.906250 14.929688 C8.031251 14.872396 8.156249 14.822917 8.281250 14.781250 C8.770836 14.593749 9.015625 14.250002 9.015625 13.750000 C9.015625 13.416665 8.908855 13.164063 8.695312 12.992188 C8.481770 12.820312 8.239585 12.734375 7.968750 12.734375 C7.791666 12.734375 7.546877 12.796874 7.234375 12.921875 C6.921873 13.046876 6.656251 13.182291 6.437500 13.328125 C6.083332 13.578126 5.906250 13.880207 5.906250 14.234375 C5.906250 14.494793 5.997395 14.739582 6.179688 14.968750 C6.361980 15.197918 6.588540 15.312500 6.859375 15.312500 Z M23.671875 16.406250 C24.151044 16.406250 24.390625 16.046879 24.390625 15.328125 C24.390625 14.932290 24.291668 14.557293 24.093750 14.203125 C23.895832 13.848957 23.651043 13.559897 23.359375 13.335938 C23.067707 13.111978 22.776043 13.000000 22.484375 13.000000 C22.005206 13.000000 21.765625 13.359371 21.765625 14.078125 C21.765625 14.473960 21.864582 14.848957 22.062500 15.203125 C22.260418 15.557293 22.505207 15.846353 22.796875 16.070312 C23.088543 16.294272 23.380207 16.406250 23.671875 16.406250 Z M23.546875 15.328125 C23.338541 15.328125 23.143230 15.210939 22.960938 14.976562 C22.778645 14.742186 22.687500 14.510418 22.687500 14.281250 C22.687500 14.031249 22.770832 13.890625 22.937500 13.859375 C23.291668 13.796875 23.674477 13.643230 24.085938 13.398438 C24.497398 13.153645 24.851561 12.822919 25.148438 12.406250 C25.445314 11.989581 25.593750 11.505211 25.593750 10.953125 C25.593750 10.328122 25.380210 9.869793 24.953125 9.578125 C24.526040 9.286457 23.781255 9.015626 22.718750 8.765625 C22.031247 8.598958 21.328129 8.338543 20.609375 7.984375 C19.890621 7.630207 19.375002 7.296877 19.062500 6.984375 C19.010416 6.932291 18.963542 6.864584 18.921875 6.781250 C18.880208 6.697916 18.859375 6.572917 18.859375 6.406250 C18.859375 6.208332 18.947916 6.026042 19.125000 5.859375 C19.302084 5.692708 19.484374 5.609375 19.671875 5.609375 C19.890626 5.609375 20.078124 5.687499 20.234375 5.843750 C20.276042 5.885417 20.528644 6.059894 20.992188 6.367188 C21.455731 6.674481 22.156245 6.932291 23.093750 7.140625 C23.864587 7.307292 24.565101 7.523436 25.195312 7.789062 C25.825524 8.054689 26.325519 8.429685 26.695312 8.914062 C27.065106 9.398440 27.250000 10.052079 27.250000 10.875000 C27.250000 11.479170 27.117189 12.049476 26.851562 12.585938 C26.585936 13.122399 26.252606 13.596352 25.851562 14.007812 C25.450519 14.419273 25.041669 14.742186 24.625000 14.976562 C24.208331 15.210939 23.848960 15.328125 23.546875 15.328125 Z M18.734375 11.515625 L17.578125 8.453125 L10.203125 8.562500 L16.531250 5.093750 L15.109375 -0.000000 L19.187500 3.093750 L23.218750 0.062500 L22.187500 4.156250 L27.343750 4.718750 L24.015625 6.000000 L20.515625 5.515625 L21.000000 3.703125 L19.296875 5.000000 L17.734375 3.812500 L18.343750 5.953125 L16.109375 7.171875 L18.687500 7.109375 L19.750000 9.765625 Z M33.984375 27.343750" /></svg>