<svg version="1.1" xmlns="http://www.w3.org/2000/svg" style="fill:rgba(0,0,0,1.0)" width="256" height="256" viewBox="0 0 36.796875 32.8125"><path fill="rgb(255, 255, 255)" d="M22.796875 32.812500 C21.401035 32.812500 20.302087 32.440108 19.500000 31.695312 C18.697913 30.950517 18.296875 29.880215 18.296875 28.484375 L18.296875 27.578125 C18.296875 27.026039 18.260417 26.505211 18.187500 26.015625 C18.114583 25.526039 17.989584 25.192709 17.812500 25.015625 L7.937500 15.156250 C7.822916 15.041666 7.640626 14.921876 7.390625 14.796875 C7.140624 14.671874 6.843752 14.567709 6.500000 14.484375 C6.156248 14.401041 5.786460 14.359375 5.390625 14.359375 L4.484375 14.359375 C3.130202 14.359375 2.044275 13.947921 1.226562 13.125000 C0.408850 12.302079 0.000000 11.218757 0.000000 9.875000 C0.000000 8.510410 0.406246 7.450525 1.218750 6.695312 C2.031254 5.940100 3.124993 5.562500 4.500000 5.562500 L5.359375 5.562500 C5.473959 5.562500 5.559896 5.539063 5.617188 5.492188 C5.674479 5.445312 5.703125 5.364584 5.703125 5.250000 L5.703125 4.343750 C5.703125 2.989577 6.083330 1.927087 6.843750 1.156250 C7.604170 0.385413 8.708326 -0.000000 10.156250 -0.000000 C11.552090 -0.000000 12.651038 0.372392 13.453125 1.117188 C14.255212 1.861983 14.656250 2.932285 14.656250 4.328125 L14.656250 5.234375 C14.656250 5.786461 14.692708 6.307289 14.765625 6.796875 C14.838542 7.286461 14.963541 7.619791 15.140625 7.796875 L25.015625 17.656250 C25.130209 17.770834 25.312499 17.890624 25.562500 18.015625 C25.812501 18.140626 26.109373 18.244791 26.453125 18.328125 C26.796877 18.411459 27.166665 18.453125 27.562500 18.453125 L28.468750 18.453125 C29.833340 18.453125 30.924475 18.867183 31.742188 19.695312 C32.559900 20.523442 32.968750 21.604160 32.968750 22.937500 C32.968750 24.270840 32.565108 25.322913 31.757812 26.093750 C30.950517 26.864587 29.848965 27.250000 28.453125 27.250000 L27.593750 27.250000 C27.479166 27.250000 27.393229 27.273437 27.335938 27.320312 C27.278646 27.367188 27.250000 27.447916 27.250000 27.562500 L27.250000 28.468750 C27.250000 29.822923 26.869795 30.885413 26.109375 31.656250 C25.348955 32.427087 24.244799 32.812500 22.796875 32.812500 Z M22.828125 31.015625 C23.755213 31.015625 24.411456 30.809898 24.796875 30.398438 C25.182294 29.986977 25.375000 29.343754 25.375000 28.468750 L25.375000 27.531250 C25.375000 26.937497 25.583331 26.442710 26.000000 26.046875 C26.416669 25.651040 26.921872 25.453125 27.515625 25.453125 L28.453125 25.453125 C29.401046 25.453125 30.078123 25.263023 30.484375 24.882812 C30.890627 24.502602 31.093750 23.838546 31.093750 22.890625 C31.093750 21.953120 30.882815 21.278648 30.460938 20.867188 C30.039060 20.455727 29.364588 20.250000 28.437500 20.250000 L27.531250 20.250000 C26.979164 20.250000 26.466148 20.197917 25.992188 20.093750 C25.518227 19.989583 25.104168 19.846355 24.750000 19.664062 C24.395832 19.481770 24.109376 19.286459 23.890625 19.078125 L13.843750 9.046875 C13.520832 8.713540 13.263022 8.210941 13.070312 7.539062 C12.877603 6.867184 12.781250 6.119796 12.781250 5.296875 L12.781250 4.390625 C12.781250 3.432287 12.557294 2.760419 12.109375 2.375000 C11.661456 1.989581 11.000004 1.796875 10.125000 1.796875 C9.197912 1.796875 8.541669 2.002602 8.156250 2.414062 C7.770831 2.825523 7.578125 3.468746 7.578125 4.343750 L7.578125 5.281250 C7.578125 5.875003 7.369794 6.369790 6.953125 6.765625 C6.536456 7.161460 6.031253 7.359375 5.437500 7.359375 L4.500000 7.359375 C3.552079 7.359375 2.877606 7.549477 2.476562 7.929688 C2.075519 8.309898 1.875000 8.973954 1.875000 9.921875 C1.875000 10.859380 2.083331 11.533852 2.500000 11.945312 C2.916669 12.356773 3.588537 12.562500 4.515625 12.562500 L5.421875 12.562500 C5.984378 12.562500 6.499998 12.614583 6.968750 12.718750 C7.437502 12.822917 7.851561 12.963541 8.210938 13.140625 C8.570314 13.317709 8.854166 13.515624 9.062500 13.734375 L19.109375 23.765625 C19.442710 24.088543 19.703124 24.585934 19.890625 25.257812 C20.078126 25.929691 20.171875 26.682288 20.171875 27.515625 L20.171875 28.421875 C20.171875 29.369796 20.395831 30.039061 20.843750 30.429688 C21.291669 30.820314 21.953121 31.015625 22.828125 31.015625 Z M36.796875 27.343750" /></svg>