<svg version="1.1" xmlns="http://www.w3.org/2000/svg" style="fill:rgba(0,0,0,1.0)" width="256" height="256" viewBox="0 0 36.875 32.8125"><path fill="rgb(255, 255, 255)" d="M17.828125 21.234375 L0.000000 11.453125 L0.000000 10.359375 L1.406250 9.796875 C1.458334 9.609374 1.484375 9.416668 1.484375 9.218750 C1.484375 8.927082 1.429688 8.596356 1.320312 8.226562 C1.210937 7.856769 1.026043 7.421878 0.765625 6.921875 L2.406250 7.937500 C2.625001 8.364585 2.734375 8.838539 2.734375 9.359375 C2.734375 9.682293 2.695313 9.999998 2.617188 10.312500 C2.539062 10.625002 2.432292 10.921874 2.296875 11.203125 L17.484375 19.625000 L16.640625 19.718750 C17.078127 19.010413 17.296875 18.244796 17.296875 17.421875 C17.296875 17.192707 17.273438 16.971355 17.226562 16.757812 C17.179687 16.544270 17.114584 16.348959 17.031250 16.171875 L0.000000 7.000000 L0.000000 5.906250 L11.593750 0.406250 C12.187503 0.135415 12.723956 -0.000000 13.203125 -0.000000 C13.692711 -0.000000 14.171873 0.124999 14.640625 0.375000 L30.156250 8.750000 C30.979171 9.197919 31.606769 9.669268 32.039062 10.164062 C32.471356 10.658857 32.687500 11.291663 32.687500 12.062500 C32.687500 12.729170 32.484377 13.312498 32.078125 13.812500 C31.671873 14.312502 31.114587 14.734373 30.406250 15.078125 Z M9.859375 23.625000 L0.484375 18.578125 L0.484375 17.484375 L4.921875 15.375000 L5.421875 16.531250 L2.265625 18.031250 L9.859375 22.125000 Z M18.312500 32.812500 L0.484375 23.031250 L0.484375 21.937500 L1.890625 21.375000 C1.942709 21.187499 1.968750 20.994793 1.968750 20.796875 C1.968750 20.505207 1.914063 20.174481 1.804688 19.804688 C1.695312 19.434894 1.510418 19.000002 1.250000 18.500000 L2.890625 19.515625 C3.005209 19.744793 3.088541 19.979165 3.140625 20.218750 C3.192709 20.458335 3.218750 20.697915 3.218750 20.937500 C3.218750 21.260418 3.179688 21.578123 3.101562 21.890625 C3.023437 22.203127 2.916667 22.499999 2.781250 22.781250 L17.968750 31.203125 L17.125000 31.296875 C17.562502 30.588538 17.781250 29.822921 17.781250 29.000000 C17.781250 28.770832 17.757813 28.549480 17.710938 28.335938 C17.664062 28.122395 17.598959 27.927084 17.515625 27.750000 L13.203125 25.421875 L15.125000 24.953125 L18.343750 26.687500 L29.187500 21.593750 C29.802086 21.312499 30.369789 21.171875 30.890625 21.171875 C31.598962 21.171875 32.148436 21.414060 32.539062 21.898438 C32.929689 22.382815 33.125000 22.963538 33.125000 23.640625 C33.125000 24.932298 32.140635 26.057287 30.171875 27.015625 Z M13.015625 25.921875 C11.640618 25.921875 10.697919 25.536462 10.187500 24.765625 L3.906250 15.281250 C3.479165 14.635413 3.265625 13.932295 3.265625 13.171875 C3.265625 13.057291 3.273437 12.950521 3.289062 12.851562 C3.304688 12.752604 3.317708 12.651042 3.328125 12.546875 L8.750000 15.078125 L12.421875 21.062500 L29.984375 17.500000 L28.171875 15.734375 L29.046875 14.796875 L31.640625 17.343750 L31.640625 18.437500 L12.625000 22.296875 C12.114581 22.401042 11.744793 22.570311 11.515625 22.804688 C11.286457 23.039064 11.171875 23.322915 11.171875 23.656250 C11.171875 24.041669 11.330728 24.309895 11.648438 24.460938 C11.966147 24.611980 12.364581 24.687500 12.843750 24.687500 C13.177085 24.687500 13.526040 24.661459 13.890625 24.609375 C14.255210 24.557291 14.614582 24.494792 14.968750 24.421875 L30.156250 21.109375 L28.859375 19.453125 L29.859375 18.671875 L31.640625 20.984375 L31.640625 22.078125 L15.250000 25.640625 C14.833331 25.734375 14.437502 25.804687 14.062500 25.851562 C13.687498 25.898438 13.338543 25.921875 13.015625 25.921875 Z M18.796875 31.140625 L29.609375 25.890625 C30.401046 25.505206 30.979165 25.132814 31.343750 24.773438 C31.708335 24.414061 31.890625 24.041669 31.890625 23.656250 C31.890625 23.322915 31.802084 23.028647 31.625000 22.773438 C31.447916 22.518228 31.192710 22.390625 30.859375 22.390625 C30.692708 22.390625 30.513022 22.419271 30.320312 22.476562 C30.127603 22.533854 29.927084 22.614583 29.718750 22.718750 L18.906250 27.875000 C18.968750 28.072918 19.015625 28.278645 19.046875 28.492188 C19.078125 28.705730 19.093750 28.921874 19.093750 29.140625 C19.093750 29.515627 19.062500 29.880207 19.000000 30.234375 C18.937500 30.588543 18.869792 30.890624 18.796875 31.140625 Z M17.859375 15.109375 L27.671875 10.484375 L11.421875 1.875000 L1.781250 6.453125 Z M29.375000 22.140625 C28.885414 20.932286 28.640625 20.015628 28.640625 19.390625 C28.640625 19.244791 28.651042 19.104167 28.671875 18.968750 C28.692708 18.833333 28.718750 18.697917 28.750000 18.562500 L29.906250 18.843750 C29.864583 19.062501 29.843750 19.296874 29.843750 19.546875 C29.843750 19.921877 29.911458 20.283852 30.046875 20.632812 C30.182292 20.981773 30.380207 21.380206 30.640625 21.828125 Z M18.312500 19.609375 L29.828125 13.968750 C30.380211 13.697915 30.786457 13.403647 31.046875 13.085938 C31.307293 12.768228 31.437500 12.421877 31.437500 12.046875 C31.437500 11.703123 31.359376 11.406251 31.203125 11.156250 C31.046874 10.906249 30.802085 10.781250 30.468750 10.781250 C30.156248 10.781250 29.744794 10.901040 29.234375 11.140625 L18.421875 16.296875 C18.484375 16.494793 18.531250 16.700520 18.562500 16.914062 C18.593750 17.127605 18.609375 17.343749 18.609375 17.562500 C18.609375 17.937502 18.585938 18.304686 18.539062 18.664062 C18.492187 19.023439 18.416667 19.338540 18.312500 19.609375 Z M36.875000 27.343750" /></svg>