<svg version="1.1" xmlns="http://www.w3.org/2000/svg" style="fill:rgba(0,0,0,1.0)" width="256" height="256" viewBox="0 0 36.26840310074812 32.8125"><path fill="rgb(255, 255, 255)" d="M24.765625 32.812500 C24.098955 32.812500 23.593752 32.609377 23.250000 32.203125 L16.718750 24.750000 C16.333331 24.302081 16.015626 23.880210 15.765625 23.484375 C15.515624 23.088540 15.296876 22.619794 15.109375 22.078125 C14.921874 21.536456 14.718751 20.833338 14.500000 19.968750 C13.958331 17.843739 12.833342 15.729177 11.125000 13.625000 C10.999999 13.645833 10.901042 13.656250 10.828125 13.656250 C10.557290 13.656250 10.348959 13.572917 10.203125 13.406250 C10.057291 13.239583 9.984375 13.046876 9.984375 12.828125 C9.984375 12.671874 10.015625 12.510417 10.078125 12.343750 C9.765623 12.270833 9.489585 12.143230 9.250000 11.960938 C9.010415 11.778645 8.890625 11.541668 8.890625 11.250000 C8.890625 10.958332 8.945312 10.763021 9.054688 10.664062 C9.164063 10.565104 9.406248 10.515625 9.781250 10.515625 L10.890625 9.125000 C10.890625 8.968749 10.934895 8.859375 11.023438 8.796875 C11.111980 8.734375 11.249999 8.703125 11.437500 8.703125 C11.791668 8.703125 12.078124 8.825520 12.296875 9.070312 C12.515626 9.315105 12.645833 9.651040 12.687500 10.078125 C12.822917 10.036458 12.963541 10.015625 13.109375 10.015625 C13.651044 10.015625 13.921875 10.270831 13.921875 10.781250 C13.921875 10.916667 13.911458 11.020833 13.890625 11.093750 C14.807296 12.041671 15.773432 12.854163 16.789062 13.531250 C17.804693 14.208337 18.906244 14.713540 20.093750 15.046875 C20.958338 15.286460 21.757809 15.611977 22.492188 16.023438 C23.226566 16.434898 23.932288 16.999996 24.609375 17.718750 L30.609375 24.109375 C31.005210 24.536460 31.333332 24.932290 31.593750 25.296875 C31.854168 25.661460 31.984375 26.010415 31.984375 26.343750 C31.984375 26.739585 31.861980 27.278642 31.617188 27.960938 C31.372395 28.643233 30.802088 29.432287 29.906250 30.328125 C29.333330 30.901045 28.734378 31.374998 28.109375 31.750000 C27.484372 32.125002 26.786462 32.416666 26.015625 32.625000 C25.546873 32.750001 25.130210 32.812500 24.765625 32.812500 Z M0.953125 9.031250 C0.640623 8.916666 0.403647 8.757814 0.242188 8.554688 C0.080728 8.351561 0.036458 8.145834 0.109375 7.937500 C0.182292 7.739582 0.351561 7.609375 0.617188 7.546875 C0.882814 7.484375 1.161457 7.510416 1.453125 7.625000 C1.755210 7.729167 1.986978 7.885416 2.148438 8.093750 C2.309897 8.302084 2.348959 8.510416 2.265625 8.718750 C2.192708 8.916668 2.026043 9.044271 1.765625 9.101562 C1.505207 9.158854 1.234376 9.135417 0.953125 9.031250 Z M9.109375 11.187500 C8.942708 11.187500 8.557295 11.177083 7.953125 11.156250 C7.348955 11.135417 6.723962 11.072917 6.078125 10.968750 C5.505205 10.875000 4.994794 10.736980 4.546875 10.554688 C4.098956 10.372395 3.875000 10.125002 3.875000 9.812500 C3.875000 9.697916 3.927083 9.588542 4.031250 9.484375 C4.135417 9.380208 4.286457 9.276042 4.484375 9.171875 C4.755210 9.036458 4.968749 8.880209 5.125000 8.703125 C5.281251 8.526041 5.401041 8.307293 5.484375 8.046875 C5.723960 7.317705 6.104164 6.822918 6.625000 6.562500 C7.145836 6.302082 7.593748 6.171875 7.968750 6.171875 C7.979167 5.911457 8.057291 5.567710 8.203125 5.140625 C8.348959 4.713540 8.580728 4.330731 8.898438 3.992188 C9.216147 3.653644 9.635414 3.484375 10.156250 3.484375 C10.614586 3.484375 10.914062 3.794268 11.054688 4.414062 C11.195313 5.033857 11.265625 5.802079 11.265625 6.718750 C11.265625 7.104169 11.257813 7.513019 11.242188 7.945312 C11.226562 8.377606 11.208333 8.812498 11.187500 9.250000 C11.166667 9.635419 11.117188 9.973957 11.039062 10.265625 C10.960937 10.557293 10.781251 10.783853 10.500000 10.945312 C10.218749 11.106772 9.755212 11.187500 9.109375 11.187500 Z M9.109375 10.109375 C9.473960 10.109375 9.729166 10.062500 9.875000 9.968750 C10.020834 9.875000 10.114583 9.635419 10.156250 9.250000 C10.177083 9.010415 10.192708 8.721356 10.203125 8.382812 C10.213542 8.044269 10.218750 7.697918 10.218750 7.343750 C10.218750 6.697913 10.197917 6.109378 10.156250 5.578125 C10.114583 5.046872 10.036459 4.781250 9.921875 4.781250 C9.828125 4.781250 9.705730 4.916665 9.554688 5.187500 C9.403645 5.458335 9.270834 5.789061 9.156250 6.179688 C9.041666 6.570314 8.984375 6.942707 8.984375 7.296875 C8.911458 7.286458 8.838542 7.281250 8.765625 7.281250 C8.692708 7.281250 8.619792 7.281250 8.546875 7.281250 C7.911455 7.281250 7.463543 7.414061 7.203125 7.679688 C6.942707 7.945314 6.765625 8.229165 6.671875 8.531250 C6.598958 8.750001 6.505209 8.929687 6.390625 9.070312 C6.276041 9.210938 6.104168 9.322916 5.875000 9.406250 C5.729166 9.458334 5.622396 9.505208 5.554688 9.546875 C5.486979 9.588542 5.453125 9.630208 5.453125 9.671875 C5.453125 9.744792 5.575520 9.809896 5.820312 9.867188 C6.065105 9.924479 6.377602 9.971354 6.757812 10.007812 C7.138023 10.044271 7.536456 10.070312 7.953125 10.085938 C8.369794 10.101563 8.755207 10.109375 9.109375 10.109375 Z M26.453125 30.062500 C26.963544 29.895832 27.502601 29.575523 28.070312 29.101562 C28.638024 28.627602 29.122394 28.101565 29.523438 27.523438 C29.924481 26.945310 30.125000 26.411461 30.125000 25.921875 C30.125000 25.838541 30.114583 25.734376 30.093750 25.609375 L24.828125 19.906250 C24.473957 20.697921 23.986982 21.450517 23.367188 22.164062 C22.747393 22.877608 22.000004 23.546872 21.125000 24.171875 Z M15.796875 19.562500 C16.567712 19.218748 17.377600 18.950522 18.226562 18.757812 C19.075525 18.565103 19.963537 18.453125 20.890625 18.421875 C20.786458 18.057290 20.640626 17.690106 20.453125 17.320312 C20.265624 16.950519 20.052085 16.588543 19.812500 16.234375 C18.645828 15.859373 17.622400 15.403649 16.742188 14.867188 C15.861975 14.330726 15.036462 13.671879 14.265625 12.890625 C14.015624 13.432294 13.567712 13.828124 12.921875 14.078125 C13.567712 14.963546 14.132810 15.864579 14.617188 16.781250 C15.101565 17.697921 15.494790 18.624995 15.796875 19.562500 Z M3.843750 5.375000 L2.625000 4.406250 C2.489583 4.489584 2.330730 4.520833 2.148438 4.500000 C1.966145 4.479167 1.750001 4.343751 1.500000 4.093750 L1.140625 3.734375 C0.890624 3.484374 0.835937 3.140627 0.976562 2.703125 C1.117188 2.265623 1.468747 1.765628 2.031250 1.203125 C2.593753 0.640622 3.093748 0.289063 3.531250 0.148438 C3.968752 0.007812 4.312499 0.062499 4.562500 0.312500 L4.921875 0.671875 C5.171876 0.921876 5.307292 1.135416 5.328125 1.312500 C5.348958 1.489584 5.317709 1.651041 5.234375 1.796875 L6.203125 3.015625 C6.328126 3.171876 6.320313 3.429686 6.179688 3.789062 C6.039062 4.148439 5.833335 4.463540 5.562500 4.734375 C5.302082 4.994793 4.986981 5.195312 4.617188 5.335938 C4.247394 5.476563 3.989584 5.489584 3.843750 5.375000 Z M9.265625 2.500000 C9.036457 2.500000 8.843751 2.377605 8.687500 2.132812 C8.531249 1.888020 8.453125 1.593752 8.453125 1.250000 C8.453125 0.906248 8.531249 0.611980 8.687500 0.367188 C8.843751 0.122395 9.036457 -0.000000 9.265625 -0.000000 C9.494793 -0.000000 9.687499 0.122395 9.843750 0.367188 C10.000001 0.611980 10.078125 0.906248 10.078125 1.250000 C10.078125 1.593752 10.000001 1.888020 9.843750 2.132812 C9.687499 2.377605 9.494793 2.500000 9.265625 2.500000 Z M12.218750 2.640625 C12.020832 2.578125 11.895834 2.440105 11.843750 2.226562 C11.791666 2.013020 11.817708 1.776043 11.921875 1.515625 C12.015625 1.265624 12.161457 1.075521 12.359375 0.945312 C12.557293 0.815104 12.739582 0.776041 12.906250 0.828125 C13.093751 0.890625 13.216146 1.028645 13.273438 1.242188 C13.330729 1.455730 13.307292 1.692707 13.203125 1.953125 C13.098958 2.203126 12.950522 2.393229 12.757812 2.523438 C12.565103 2.653646 12.385417 2.692709 12.218750 2.640625 Z M36.343750 27.343750" /></svg>