<svg version="1.1" xmlns="http://www.w3.org/2000/svg" style="fill:rgba(0,0,0,1.0)" width="256" height="256" viewBox="0 0 36.328125 32.8125"><path fill="rgb(255, 255, 255)" d="M27.984375 32.812500 L24.859375 29.078125 C24.328122 28.432288 23.739587 27.914064 23.093750 27.523438 C22.447913 27.132811 21.734379 26.848959 20.953125 26.671875 C20.171871 26.494791 19.307296 26.406250 18.359375 26.406250 C17.421870 26.406250 16.437505 26.497395 15.406250 26.679688 C14.374995 26.861980 13.320318 27.127602 12.242188 27.476562 C11.164057 27.825523 10.083339 28.255206 9.000000 28.765625 C10.041672 26.328113 11.494782 24.520839 13.359375 23.343750 C15.223968 22.166661 17.380196 21.552084 19.828125 21.500000 C19.890625 21.500000 19.953125 21.500000 20.015625 21.500000 C20.078125 21.500000 20.140625 21.500000 20.203125 21.500000 C18.911452 20.885414 17.601569 20.424481 16.273438 20.117188 C14.945306 19.809894 13.734380 19.619792 12.640625 19.546875 L12.765625 17.984375 C13.859380 18.057292 15.031244 18.234374 16.281250 18.515625 C17.531256 18.796876 18.755202 19.213539 19.953125 19.765625 C19.161454 18.682286 18.218755 17.458340 17.125000 16.093750 C16.031245 14.729160 14.880214 13.380215 13.671875 12.046875 L14.828125 10.984375 C15.734380 11.984380 16.604162 12.997391 17.437500 14.023438 C18.270838 15.049484 19.041663 16.039058 19.750000 16.992188 C20.458337 17.945317 21.078122 18.807288 21.609375 19.578125 C21.473958 18.869788 21.377604 18.231774 21.320312 17.664062 C21.263021 17.096351 21.234375 16.562502 21.234375 16.062500 C21.234375 15.583331 21.257812 15.122398 21.304688 14.679688 C21.351563 14.236977 21.411458 13.776044 21.484375 13.296875 L22.984375 13.734375 C22.911458 14.182294 22.856771 14.611977 22.820312 15.023438 C22.783854 15.434898 22.765625 15.864581 22.765625 16.312500 C22.765625 16.791669 22.794271 17.309893 22.851562 17.867188 C22.908854 18.424482 23.005208 19.057288 23.140625 19.765625 C23.598961 18.151034 24.591138 16.757818 26.117188 15.585938 C27.643237 14.414057 29.614571 13.729168 32.031250 13.531250 C31.135412 14.375004 30.361982 15.307287 29.710938 16.328125 C29.059893 17.348963 28.559898 18.380203 28.210938 19.421875 C27.861977 20.463547 27.687500 21.458329 27.687500 22.406250 C27.687500 23.041670 27.783853 23.640622 27.976562 24.203125 C28.169272 24.765628 28.442707 25.260415 28.796875 25.687500 L31.968750 29.468750 Z M2.921875 19.718750 C2.234372 19.385415 1.651044 18.971357 1.171875 18.476562 C0.692706 17.981768 0.302085 17.411462 0.000000 16.765625 C0.500002 16.223956 1.075518 15.799481 1.726562 15.492188 C2.377607 15.184894 3.098954 15.005209 3.890625 14.953125 L4.000000 16.359375 C3.166662 16.421875 2.453128 16.645831 1.859375 17.031250 C2.307294 17.645836 2.890621 18.124998 3.609375 18.468750 Z M8.750000 22.968750 C7.927079 22.968750 7.195316 22.861980 6.554688 22.648438 C5.914059 22.434895 5.255212 22.221355 4.578125 22.007812 C3.901038 21.794270 3.093755 21.687500 2.156250 21.687500 C1.843748 21.687500 1.531252 21.710937 1.218750 21.757812 C0.906248 21.804688 0.619793 21.895833 0.359375 22.031250 C0.661460 21.062495 1.059893 20.263024 1.554688 19.632812 C2.049482 19.002601 2.692704 18.492189 3.484375 18.101562 C4.276046 17.710936 5.276036 17.395835 6.484375 17.156250 L6.812500 18.453125 C5.697911 18.713543 4.854170 18.979165 4.281250 19.250000 C3.708330 19.520835 3.208335 19.885414 2.781250 20.343750 C3.020835 20.302083 3.281249 20.281250 3.562500 20.281250 C4.125003 20.281250 4.708330 20.377603 5.312500 20.570312 C5.916670 20.763022 6.520830 20.955728 7.125000 21.148438 C7.729170 21.341147 8.296872 21.437500 8.828125 21.437500 C9.786463 21.437500 10.557289 21.135420 11.140625 20.531250 C11.723961 19.927080 12.015625 19.151046 12.015625 18.203125 C12.015625 17.401038 11.750003 16.716149 11.218750 16.148438 C10.687497 15.580726 9.927088 15.208334 8.937500 15.031250 C8.520831 14.947916 8.106773 14.903646 7.695312 14.898438 C7.283852 14.893229 6.872398 14.885417 6.460938 14.875000 C6.049477 14.864583 5.635419 14.817709 5.218750 14.734375 C4.979165 14.682291 4.744793 14.611980 4.515625 14.523438 C4.286457 14.434895 4.067709 14.333334 3.859375 14.218750 C4.286460 15.093754 4.953120 15.867184 5.859375 16.539062 C6.765630 17.210941 7.947909 17.807289 9.406250 18.328125 L9.000000 19.515625 C6.552071 18.640621 4.796880 17.695318 3.734375 16.679688 C2.671870 15.664057 2.140625 14.427091 2.140625 12.968750 C2.140625 12.812499 2.145833 12.653647 2.156250 12.492188 C2.166667 12.330728 2.182292 12.166667 2.203125 12.000000 C2.755211 12.302085 3.296872 12.549478 3.828125 12.742188 C4.359378 12.934897 4.927080 13.088541 5.531250 13.203125 C6.177087 13.317709 6.768226 13.361979 7.304688 13.335938 C7.841149 13.309896 8.479163 13.364583 9.218750 13.500000 C10.562507 13.729168 11.624996 14.270829 12.406250 15.125000 C13.187504 15.979171 13.578125 16.999994 13.578125 18.187500 C13.578125 19.583340 13.130213 20.729162 12.234375 21.625000 C11.338537 22.520838 10.177090 22.968750 8.750000 22.968750 Z M25.718750 28.046875 L27.656250 26.406250 C26.989580 25.614579 26.218754 24.955732 25.343750 24.429688 C24.468746 23.903643 23.588546 23.507814 22.703125 23.242188 C21.817704 22.976561 21.020837 22.843750 20.312500 22.843750 C19.031244 22.843750 17.861984 22.989582 16.804688 23.281250 C15.747391 23.572918 14.828129 23.966143 14.046875 24.460938 C13.265621 24.955732 12.645836 25.515622 12.187500 26.140625 C13.166672 25.786457 14.187495 25.518230 15.250000 25.335938 C16.312505 25.153645 17.338537 25.062500 18.328125 25.062500 C19.369797 25.062500 20.341141 25.166666 21.242188 25.375000 C22.143234 25.583334 22.968746 25.906248 23.718750 26.343750 C24.468754 26.781252 25.135414 27.348955 25.718750 28.046875 Z M28.125000 30.937500 L30.078125 29.296875 L28.515625 27.437500 L26.562500 29.078125 Z M12.015625 12.843750 C10.734369 12.843750 9.598963 12.276047 8.609375 11.140625 C8.213540 10.682289 7.846356 10.156253 7.507812 9.562500 C7.169269 8.968747 6.833335 8.479169 6.500000 8.093750 C6.229165 7.781248 5.885419 7.500001 5.468750 7.250000 C5.052081 6.999999 4.453129 6.776043 3.671875 6.578125 C4.255211 6.328124 4.799477 6.140626 5.304688 6.015625 C5.809898 5.890624 6.302081 5.828125 6.781250 5.828125 C7.395836 5.828125 8.023434 5.934895 8.664062 6.148438 C9.304691 6.361980 10.020829 6.687498 10.812500 7.125000 C10.593749 6.499997 10.427084 5.927086 10.312500 5.406250 C10.197916 4.885414 10.140625 4.385419 10.140625 3.906250 C10.140625 3.249997 10.255207 2.611982 10.484375 1.992188 C10.713543 1.372393 11.057289 0.708337 11.515625 -0.000000 C11.578125 0.791671 11.697916 1.414060 11.875000 1.867188 C12.052084 2.320315 12.270832 2.713540 12.531250 3.046875 C12.833335 3.442710 13.247393 3.861977 13.773438 4.304688 C14.299482 4.747398 14.755206 5.197914 15.140625 5.656250 C15.901045 6.552088 16.281250 7.531245 16.281250 8.593750 C16.281250 9.333337 16.080731 10.028643 15.679688 10.679688 C15.278644 11.330732 14.755212 11.854165 14.109375 12.250000 C13.463538 12.645835 12.765629 12.843750 12.015625 12.843750 Z M7.531250 7.578125 C7.114581 6.963539 6.807293 6.372399 6.609375 5.804688 C6.411457 5.236976 6.312500 4.640628 6.312500 4.015625 C6.312500 3.723957 6.333333 3.424481 6.375000 3.117188 C6.416667 2.809894 6.473958 2.484377 6.546875 2.140625 C6.723959 2.119792 6.901041 2.101563 7.078125 2.085938 C7.255209 2.070312 7.427082 2.062500 7.593750 2.062500 C8.416671 2.062500 9.161455 2.216144 9.828125 2.523438 C10.494795 2.830731 11.161455 3.312497 11.828125 3.968750 L10.734375 4.937500 C10.244789 4.458331 9.755211 4.093751 9.265625 3.843750 C8.776039 3.593749 8.270836 3.468750 7.750000 3.468750 C7.739583 3.562500 7.729167 3.656250 7.718750 3.750000 C7.708333 3.843750 7.703125 3.937500 7.703125 4.031250 C7.703125 4.854171 8.020830 5.744787 8.656250 6.703125 Z M22.796875 14.359375 C21.880204 14.359375 21.059899 14.148440 20.335938 13.726562 C19.611976 13.304685 19.041669 12.726566 18.625000 11.992188 C18.208331 11.257809 18.000000 10.416671 18.000000 9.468750 C18.000000 8.666663 18.106770 7.958336 18.320312 7.343750 C18.533855 6.729164 18.747395 6.083337 18.960938 5.406250 C19.174480 4.729163 19.281250 3.906255 19.281250 2.937500 C19.281250 2.624998 19.257813 2.312502 19.210938 2.000000 C19.164062 1.687498 19.072917 1.401043 18.937500 1.140625 C19.781254 1.401043 20.518226 1.747394 21.148438 2.179688 C21.778649 2.611981 22.315102 3.226559 22.757812 4.023438 C23.200523 4.820316 23.552082 5.901035 23.812500 7.265625 L22.515625 7.609375 C22.317707 6.776038 22.101564 6.036462 21.867188 5.390625 C21.632811 4.744788 21.218753 4.145836 20.625000 3.593750 C20.666667 3.812501 20.687500 4.062499 20.687500 4.343750 C20.687500 4.937503 20.593751 5.518226 20.406250 6.085938 C20.218749 6.653649 20.031251 7.218747 19.843750 7.781250 C19.656249 8.343753 19.562500 8.911455 19.562500 9.484375 C19.562500 10.463547 19.864580 11.263018 20.468750 11.882812 C21.072920 12.502607 21.843745 12.812500 22.781250 12.812500 C23.645838 12.812500 24.346351 12.533857 24.882812 11.976562 C25.419274 11.419268 25.770832 10.666671 25.937500 9.718750 C26.020834 9.281248 26.065104 8.856773 26.070312 8.445312 C26.075521 8.033852 26.083333 7.627606 26.093750 7.226562 C26.104167 6.825519 26.151041 6.416669 26.234375 6.000000 C26.286459 5.760415 26.354166 5.523439 26.437500 5.289062 C26.520834 5.054686 26.630208 4.833334 26.765625 4.625000 C26.213539 4.885418 25.705731 5.249998 25.242188 5.718750 C24.778644 6.187502 24.338544 6.783851 23.921875 7.507812 C23.505206 8.231774 23.078127 9.119786 22.640625 10.171875 L21.468750 9.781250 C22.333338 7.354155 23.268224 5.606776 24.273438 4.539062 C25.278651 3.471349 26.515618 2.937500 27.984375 2.937500 C28.338543 2.937500 28.666665 2.958333 28.968750 3.000000 C28.666665 3.541669 28.419272 4.075518 28.226562 4.601562 C28.033853 5.127607 27.880209 5.697914 27.765625 6.312500 C27.651041 6.937503 27.606771 7.523435 27.632812 8.070312 C27.658854 8.617190 27.604167 9.260413 27.468750 10.000000 C27.229165 11.343757 26.703129 12.406246 25.890625 13.187500 C25.078121 13.968754 24.046881 14.359375 22.796875 14.359375 Z M24.609375 4.765625 C24.546875 3.942704 24.322919 3.229170 23.937500 2.625000 C23.333330 3.052085 22.854168 3.640621 22.500000 4.390625 L21.250000 3.703125 C21.583335 3.026038 21.997393 2.442711 22.492188 1.953125 C22.986982 1.463539 23.557288 1.072918 24.203125 0.781250 C24.755211 1.281253 25.182290 1.859372 25.484375 2.515625 C25.786460 3.171878 25.963541 3.890621 26.015625 4.671875 Z M36.328125 27.343750" /></svg>