<svg version="1.1" xmlns="http://www.w3.org/2000/svg" style="fill:rgba(0,0,0,1.0)" width="256" height="256" viewBox="0 0 35.390625 32.8125"><path fill="rgb(255, 255, 255)" d="M8.984375 32.812500 C7.744785 32.812500 6.580735 32.580731 5.492188 32.117188 C4.403640 31.653644 3.447921 31.010421 2.625000 30.187500 C1.802079 29.364579 1.158856 28.408860 0.695312 27.320312 C0.231769 26.231765 0.000000 25.067715 0.000000 23.828125 C0.000000 22.588535 0.239581 21.429693 0.718750 20.351562 C1.197919 19.273432 1.854162 18.322921 2.687500 17.500000 C3.520838 16.677079 4.476557 16.033856 5.554688 15.570312 C6.632818 15.106769 7.776036 14.875000 8.984375 14.875000 C10.223965 14.875000 11.382807 15.106769 12.460938 15.570312 C13.539068 16.033856 14.489579 16.677079 15.312500 17.500000 C16.135421 18.322921 16.778644 19.273432 17.242188 20.351562 C17.705731 21.429693 17.937500 22.588535 17.937500 23.828125 C17.937500 25.057298 17.705731 26.213536 17.242188 27.296875 C16.778644 28.380214 16.135421 29.335933 15.312500 30.164062 C14.489579 30.992192 13.539068 31.640623 12.460938 32.109375 C11.382807 32.578127 10.223965 32.812500 8.984375 32.812500 Z M4.828125 27.609375 C5.213544 27.609375 5.541665 27.473960 5.812500 27.203125 C6.083335 26.932290 6.218750 26.604169 6.218750 26.218750 C6.218750 25.833331 6.083335 25.505210 5.812500 25.234375 C5.541665 24.963540 5.213544 24.828125 4.828125 24.828125 C4.442706 24.828125 4.114585 24.963540 3.843750 25.234375 C3.572915 25.505210 3.437500 25.833331 3.437500 26.218750 C3.437500 26.604169 3.572915 26.932290 3.843750 27.203125 C4.114585 27.473960 4.442706 27.609375 4.828125 27.609375 Z M5.671875 22.718750 C6.109377 22.718750 6.484373 22.562502 6.796875 22.250000 C7.109377 21.937498 7.265625 21.557294 7.265625 21.109375 C7.265625 20.671873 7.109377 20.296877 6.796875 19.984375 C6.484373 19.671873 6.109377 19.515625 5.671875 19.515625 C5.223956 19.515625 4.843752 19.671873 4.531250 19.984375 C4.218748 20.296877 4.062500 20.671873 4.062500 21.109375 C4.062500 21.557294 4.218748 21.937498 4.531250 22.250000 C4.843752 22.562502 5.223956 22.718750 5.671875 22.718750 Z M9.453125 25.171875 C9.880210 25.171875 10.239582 25.023439 10.531250 24.726562 C10.822918 24.429686 10.968750 24.072919 10.968750 23.656250 C10.968750 23.229165 10.822918 22.869793 10.531250 22.578125 C10.239582 22.286457 9.880210 22.140625 9.453125 22.140625 C9.036456 22.140625 8.679689 22.286457 8.382812 22.578125 C8.085936 22.869793 7.937500 23.229165 7.937500 23.656250 C7.937500 24.072919 8.085936 24.429686 8.382812 24.726562 C8.679689 25.023439 9.036456 25.171875 9.453125 25.171875 Z M6.140625 12.328125 L6.140625 10.453125 L10.218750 10.453125 L10.218750 12.328125 Z M5.171875 17.906250 L3.437500 17.328125 C3.822919 16.463537 4.156249 15.656254 4.437500 14.906250 C4.718751 14.156246 4.937499 13.414066 5.093750 12.679688 C5.250001 11.945309 5.328125 11.182296 5.328125 10.390625 C5.328125 9.880206 5.289063 9.375002 5.210938 8.875000 C5.132812 8.374998 5.041667 7.880211 4.937500 7.390625 C4.843750 6.921873 4.760417 6.455731 4.687500 5.992188 C4.614583 5.528644 4.578125 5.067711 4.578125 4.609375 C4.578125 3.848955 4.692707 3.132816 4.921875 2.460938 C5.151043 1.789059 5.526039 1.239585 6.046875 0.812500 C6.567711 0.385415 7.270829 0.171875 8.156250 0.171875 C9.250005 0.171875 10.130205 0.565100 10.796875 1.351562 C11.463545 2.138025 11.796875 3.182285 11.796875 4.484375 C11.796875 4.984378 11.760417 5.476560 11.687500 5.960938 C11.614583 6.445315 11.526042 6.932289 11.421875 7.421875 C11.317708 7.901044 11.229167 8.380206 11.156250 8.859375 C11.083333 9.338544 11.046875 9.822914 11.046875 10.312500 C11.046875 11.072920 11.164061 11.906245 11.398438 12.812500 C11.632814 13.718755 11.927082 14.713536 12.281250 15.796875 L10.546875 16.343750 C10.203123 15.385412 9.932293 14.570316 9.734375 13.898438 C9.536457 13.226559 9.393230 12.609378 9.304688 12.046875 C9.216145 11.484372 9.171875 10.901045 9.171875 10.296875 C9.171875 9.807289 9.210937 9.322919 9.289062 8.843750 C9.367188 8.364581 9.453125 7.885419 9.546875 7.406250 C9.640625 6.916664 9.726562 6.429690 9.804688 5.945312 C9.882813 5.460935 9.921875 4.973961 9.921875 4.484375 C9.921875 3.713538 9.765627 3.111981 9.453125 2.679688 C9.140623 2.247394 8.708336 2.031250 8.156250 2.031250 C7.593747 2.031250 7.169272 2.244790 6.882812 2.671875 C6.596353 3.098960 6.453125 3.739579 6.453125 4.593750 C6.453125 5.041669 6.486979 5.492185 6.554688 5.945312 C6.622396 6.398440 6.708333 6.854164 6.812500 7.312500 C6.927084 7.812503 7.020833 8.317706 7.093750 8.828125 C7.166667 9.338544 7.203125 9.859372 7.203125 10.390625 C7.203125 11.171879 7.122397 11.945309 6.960938 12.710938 C6.799478 13.476566 6.567710 14.281246 6.265625 15.125000 C5.963540 15.968754 5.598960 16.895828 5.171875 17.906250 Z M6.218750 9.125000 L6.218750 7.250000 L10.187500 7.250000 L10.187500 9.125000 Z M16.328125 32.515625 C15.828123 32.515625 15.330732 32.494792 14.835938 32.453125 C14.341143 32.411458 13.843752 32.354167 13.343750 32.281250 C13.145832 32.041665 12.963542 31.770835 12.796875 31.468750 C12.630208 31.166665 12.489584 30.869793 12.375000 30.578125 L13.484375 28.625000 C13.609376 28.979168 13.755208 29.307290 13.921875 29.609375 C14.088542 29.911460 14.270832 30.223957 14.468750 30.546875 C14.760418 30.578125 15.049478 30.601562 15.335938 30.617188 C15.622397 30.632813 15.906249 30.640625 16.187500 30.640625 C16.541668 30.640625 16.890623 30.630208 17.234375 30.609375 C17.578127 30.588542 17.921873 30.557292 18.265625 30.515625 C18.484376 30.244790 18.721353 29.783857 18.976562 29.132812 C19.231772 28.481768 19.471353 27.729171 19.695312 26.875000 C19.919272 26.020829 20.101562 25.138025 20.242188 24.226562 C20.382813 23.315100 20.453125 22.468754 20.453125 21.687500 C20.453125 20.541661 20.281252 19.510421 19.937500 18.593750 C19.593748 17.677079 19.208335 16.791671 18.781250 15.937500 C18.395831 15.145829 18.049481 14.348962 17.742188 13.546875 C17.434894 12.744788 17.281250 11.885421 17.281250 10.968750 C17.281250 10.416664 17.317708 9.869794 17.390625 9.328125 C17.463542 8.786456 17.552083 8.244794 17.656250 7.703125 C17.760417 7.171872 17.846354 6.643232 17.914062 6.117188 C17.981771 5.591143 18.015625 5.057294 18.015625 4.515625 C18.015625 3.744788 17.869793 3.143231 17.578125 2.710938 C17.286457 2.278644 16.880211 2.062500 16.359375 2.062500 C15.817706 2.062500 15.411460 2.276040 15.140625 2.703125 C14.869790 3.130210 14.734375 3.770829 14.734375 4.625000 C14.734375 5.125003 14.770833 5.624997 14.843750 6.125000 C14.916667 6.625003 15.000000 7.124997 15.093750 7.625000 C15.187500 8.114586 15.273437 8.609372 15.351562 9.109375 C15.429688 9.609378 15.468750 10.114581 15.468750 10.625000 C15.468750 11.385420 15.424480 12.075518 15.335938 12.695312 C15.247395 13.315107 15.098959 13.934893 14.890625 14.554688 C14.682291 15.174482 14.395835 15.869788 14.031250 16.640625 L12.343750 15.796875 C12.625001 15.213539 12.859374 14.640628 13.046875 14.078125 C13.234376 13.515622 13.372395 12.947920 13.460938 12.375000 C13.549480 11.802080 13.593750 11.218753 13.593750 10.625000 C13.593750 10.114581 13.559896 9.611982 13.492188 9.117188 C13.424479 8.622393 13.338542 8.130211 13.234375 7.640625 C13.130208 7.140622 13.041667 6.640628 12.968750 6.140625 C12.895833 5.640622 12.859375 5.135419 12.859375 4.625000 C12.859375 3.864580 12.971353 3.148441 13.195312 2.476562 C13.419272 1.804684 13.786456 1.255210 14.296875 0.828125 C14.807294 0.401040 15.494787 0.187500 16.359375 0.187500 C17.421880 0.187500 18.276038 0.580725 18.921875 1.367188 C19.567712 2.153650 19.890625 3.197910 19.890625 4.500000 C19.890625 5.000003 19.856771 5.479164 19.789062 5.937500 C19.721354 6.395836 19.645834 6.859373 19.562500 7.328125 C19.458333 7.859378 19.364584 8.419268 19.281250 9.007812 C19.197916 9.596357 19.156250 10.244788 19.156250 10.953125 C19.156250 11.682295 19.289061 12.382809 19.554688 13.054688 C19.820314 13.726566 20.130207 14.416663 20.484375 15.125000 C20.932294 16.010421 21.351561 16.976557 21.742188 18.023438 C22.132814 19.070318 22.328125 20.286451 22.328125 21.671875 C22.328125 22.588546 22.234376 23.606765 22.046875 24.726562 C21.859374 25.846360 21.617189 26.937495 21.320312 28.000000 C21.023436 29.062505 20.700523 29.981767 20.351562 30.757812 C20.002602 31.533858 19.666668 32.041665 19.343750 32.281250 C18.843748 32.354167 18.341148 32.411458 17.835938 32.453125 C17.330727 32.494792 16.828128 32.515625 16.328125 32.515625 Z M14.343750 13.312500 L14.343750 11.437500 L18.562500 11.437500 L18.562500 13.312500 Z M14.500000 10.109375 L14.500000 8.234375 L18.250000 8.234375 L18.250000 10.109375 Z M24.125000 31.312500 C23.624998 31.312500 23.127607 31.291667 22.632812 31.250000 C22.138018 31.208333 21.640628 31.151042 21.140625 31.078125 C20.942707 30.838540 20.760418 30.567710 20.593750 30.265625 C20.427082 29.963540 20.286459 29.666668 20.171875 29.375000 L21.281250 27.421875 C21.406251 27.776043 21.552082 28.104165 21.718750 28.406250 C21.885418 28.708335 22.067707 29.020832 22.265625 29.343750 C22.557293 29.375000 22.846353 29.398437 23.132812 29.414062 C23.419272 29.429688 23.703124 29.437500 23.984375 29.437500 C24.338543 29.437500 24.687498 29.427083 25.031250 29.406250 C25.375002 29.385417 25.718748 29.354167 26.062500 29.312500 C26.260418 28.968748 26.484374 28.515628 26.734375 27.953125 C26.984376 27.390622 27.226561 26.757816 27.460938 26.054688 C27.695314 25.351559 27.890624 24.601566 28.046875 23.804688 C28.203126 23.007809 28.281250 22.203129 28.281250 21.390625 C28.281250 20.276036 28.117189 19.239588 27.789062 18.281250 C27.460936 17.322912 27.098960 16.395838 26.703125 15.500000 C26.348957 14.677079 26.031251 13.861983 25.750000 13.054688 C25.468749 12.247392 25.328125 11.411463 25.328125 10.546875 C25.328125 10.015622 25.364583 9.489586 25.437500 8.968750 C25.510417 8.447914 25.598958 7.927086 25.703125 7.406250 C25.817709 6.885414 25.911458 6.367190 25.984375 5.851562 C26.057292 5.335935 26.093750 4.812503 26.093750 4.281250 C26.093750 3.541663 25.945314 2.958335 25.648438 2.531250 C25.351561 2.104165 24.942711 1.890625 24.421875 1.890625 C23.890622 1.890625 23.489585 2.106769 23.218750 2.539062 C22.947915 2.971356 22.812500 3.614579 22.812500 4.468750 C22.812500 4.947919 22.846354 5.424477 22.914062 5.898438 C22.981771 6.372398 23.067708 6.854164 23.171875 7.343750 C23.276042 7.822919 23.361979 8.309893 23.429688 8.804688 C23.497396 9.299482 23.531250 9.796872 23.531250 10.296875 C23.531250 11.171879 23.479167 11.942705 23.375000 12.609375 C23.270833 13.276045 23.122397 13.882810 22.929688 14.429688 C22.736978 14.976565 22.507814 15.497393 22.242188 15.992188 C21.976561 16.486982 21.687502 16.994789 21.375000 17.515625 L19.968750 15.937500 C20.260418 15.510415 20.513020 15.104169 20.726562 14.718750 C20.940105 14.333331 21.114583 13.932294 21.250000 13.515625 C21.385417 13.098956 21.486979 12.627607 21.554688 12.101562 C21.622396 11.575518 21.656250 10.963545 21.656250 10.265625 C21.656250 9.786456 21.619792 9.312502 21.546875 8.843750 C21.473958 8.374998 21.390625 7.901044 21.296875 7.421875 C21.203125 6.932289 21.119792 6.440107 21.046875 5.945312 C20.973958 5.450518 20.937500 4.947919 20.937500 4.437500 C20.937500 3.687496 21.046874 2.973962 21.265625 2.296875 C21.484376 1.619788 21.848956 1.067710 22.359375 0.640625 C22.869794 0.213540 23.557287 -0.000000 24.421875 -0.000000 C25.484380 -0.000000 26.341143 0.388017 26.992188 1.164062 C27.643232 1.940108 27.968750 2.968744 27.968750 4.250000 C27.968750 4.729169 27.934896 5.213539 27.867188 5.703125 C27.799479 6.192711 27.713542 6.687497 27.609375 7.187500 C27.505208 7.718753 27.411459 8.260414 27.328125 8.812500 C27.244791 9.364586 27.203125 9.932289 27.203125 10.515625 C27.203125 11.234379 27.328124 11.945309 27.578125 12.648438 C27.828126 13.351566 28.119790 14.088538 28.453125 14.859375 C28.859377 15.786463 29.244790 16.781245 29.609375 17.843750 C29.973960 18.906255 30.156250 20.098952 30.156250 21.421875 C30.156250 22.359380 30.070313 23.289058 29.898438 24.210938 C29.726562 25.132817 29.494793 26.015621 29.203125 26.859375 C28.911457 27.703129 28.588543 28.484371 28.234375 29.203125 C27.880207 29.921879 27.515627 30.546872 27.140625 31.078125 C26.640622 31.151042 26.138023 31.208333 25.632812 31.250000 C25.127602 31.291667 24.625002 31.312500 24.125000 31.312500 Z M22.453125 12.375000 L22.453125 10.500000 L26.546875 10.500000 L26.546875 12.375000 Z M22.562500 9.171875 L22.562500 7.296875 L26.312500 7.296875 L26.312500 9.171875 Z M35.390625 27.343750" /></svg>