<svg version="1.1" xmlns="http://www.w3.org/2000/svg" style="fill:rgba(0,0,0,1.0)" width="256" height="256" viewBox="0 0 37.1875 21.875"><path fill="rgb(255, 255, 255)" d="M16.875000 21.875000 C16.374998 21.875000 15.880211 21.869792 15.390625 21.859375 C14.901039 21.848958 14.445315 21.833333 14.023438 21.812500 C13.601560 21.791667 13.239585 21.765625 12.937500 21.734375 C12.177080 21.651041 11.333338 21.395835 10.406250 20.968750 C9.479162 20.541665 8.531255 19.992191 7.562500 19.320312 C6.593745 18.648434 5.658859 17.903650 4.757812 17.085938 C3.856766 16.268225 3.049483 15.429692 2.335938 14.570312 C1.622392 13.710933 1.054690 12.875004 0.632812 12.062500 C0.210935 11.249996 0.000000 10.520837 0.000000 9.875000 L0.937500 2.296875 C1.041667 1.505204 1.354164 0.924481 1.875000 0.554688 C2.395836 0.184894 3.130204 -0.000000 4.078125 -0.000000 L29.671875 -0.000000 C30.630213 -0.000000 31.367185 0.184894 31.882812 0.554688 C32.398440 0.924481 32.708333 1.505204 32.812500 2.296875 L33.750000 9.875000 C33.750000 10.520837 33.539065 11.249996 33.117188 12.062500 C32.695310 12.875004 32.127608 13.710933 31.414062 14.570312 C30.700517 15.429692 29.893234 16.268225 28.992188 17.085938 C28.091141 17.903650 27.156255 18.648434 26.187500 19.320312 C25.218745 19.992191 24.270838 20.541665 23.343750 20.968750 C22.416662 21.395835 21.572920 21.651041 20.812500 21.734375 C20.520832 21.765625 20.161460 21.791667 19.734375 21.812500 C19.307290 21.833333 18.848961 21.848958 18.359375 21.859375 C17.869789 21.869792 17.375002 21.875000 16.875000 21.875000 Z M4.984375 11.812500 L6.343750 6.125000 C5.583330 6.083333 4.869795 6.039063 4.203125 5.992188 C3.536455 5.945312 2.927086 5.901042 2.375000 5.859375 L1.843750 9.812500 C2.333336 10.052085 2.843747 10.343748 3.375000 10.687500 C3.906253 11.031252 4.442706 11.406248 4.984375 11.812500 Z M16.875000 19.968750 C17.343752 19.968750 17.807289 19.960938 18.265625 19.945312 C18.723961 19.929687 19.171873 19.908854 19.609375 19.882812 C20.046877 19.856771 20.468748 19.822917 20.875000 19.781250 C21.531253 18.822912 22.338537 17.822922 23.296875 16.781250 C24.255213 15.739578 25.270828 14.744796 26.343750 13.796875 L24.546875 6.250000 C23.369786 6.291667 22.132819 6.325521 20.835938 6.351562 C19.539056 6.377604 18.218757 6.390625 16.875000 6.390625 C15.531243 6.390625 14.210944 6.377604 12.914062 6.351562 C11.617181 6.325521 10.380214 6.291667 9.203125 6.250000 L7.406250 13.796875 C8.479172 14.744796 9.494787 15.739578 10.453125 16.781250 C11.411463 17.822922 12.218747 18.822912 12.875000 19.781250 C13.281252 19.822917 13.703123 19.856771 14.140625 19.882812 C14.578127 19.908854 15.028644 19.929687 15.492188 19.945312 C15.955731 19.960938 16.416664 19.968750 16.875000 19.968750 Z M16.875000 3.781250 C18.187507 3.781250 19.536451 3.770833 20.921875 3.750000 C22.307299 3.729167 23.648431 3.700521 24.945312 3.664062 C26.242194 3.627604 27.419266 3.588542 28.476562 3.546875 C29.533859 3.505208 30.390622 3.463542 31.046875 3.421875 L30.984375 2.921875 C30.942708 2.557290 30.830730 2.291667 30.648438 2.125000 C30.466145 1.958333 30.156252 1.875000 29.718750 1.875000 L4.031250 1.875000 C3.593748 1.875000 3.286459 1.958333 3.109375 2.125000 C2.932291 2.291667 2.817709 2.557290 2.765625 2.921875 L2.703125 3.421875 C3.359378 3.463542 4.216141 3.505208 5.273438 3.546875 C6.330734 3.588542 7.507806 3.627604 8.804688 3.664062 C10.101569 3.700521 11.442701 3.729167 12.828125 3.750000 C14.213549 3.770833 15.562493 3.781250 16.875000 3.781250 Z M28.765625 11.812500 C29.317711 11.406248 29.859372 11.031252 30.390625 10.687500 C30.921878 10.343748 31.427081 10.052085 31.906250 9.812500 L31.375000 5.859375 C30.822914 5.901042 30.213545 5.945312 29.546875 5.992188 C28.880205 6.039063 28.166670 6.083333 27.406250 6.125000 Z M37.187500 21.093750" /></svg>