<svg version="1.1" xmlns="http://www.w3.org/2000/svg" style="fill:rgba(0,0,0,1.0)" width="256" height="256" viewBox="0 0 36.711208026671876 32.84429105334375"><path fill="rgb(255, 255, 255)" d="M21.109375 27.047416 L19.593750 27.344291 L18.625000 22.016166 L20.125000 21.719291 Z M11.125000 12.703666 L10.843750 14.219291 L5.515625 13.250541 L5.796875 11.719291 Z M26.734375 25.125541 L25.609375 26.250541 L20.656250 21.328666 L21.750000 20.234916 Z M12.656250 11.047416 L11.546875 12.156791 L6.578125 7.250541 L7.687500 6.141166 Z M14.687500 10.406791 L13.156250 10.688041 L12.187500 5.359916 L13.718750 5.078666 Z M27.781250 19.094291 L27.500000 20.625541 L22.171875 19.656791 L22.484375 18.125541 Z M17.812500 13.641166 L18.609375 15.563041 L22.218750 11.953666 C22.500001 11.672415 22.643229 11.393772 22.648438 11.117729 C22.653646 10.841686 22.565105 10.612521 22.382812 10.430229 C22.200520 10.247936 21.971356 10.159395 21.695312 10.164604 C21.419269 10.169812 21.140626 10.313040 20.859375 10.594291 Z M23.343750 13.016166 L18.062500 18.297416 L16.015625 13.250541 L19.796875 9.469291 C20.276044 8.979705 20.783851 8.708875 21.320312 8.656791 C21.856774 8.604707 22.348956 8.706269 22.796875 8.961479 C23.244794 9.216688 23.596353 9.568247 23.851562 10.016166 C24.106772 10.464085 24.208334 10.953663 24.156250 11.484916 C24.104166 12.016169 23.833336 12.526580 23.343750 13.016166 Z M19.578125 15.453666 L20.734375 14.313041 C21.848964 14.917211 22.997390 15.143771 24.179688 14.992729 C25.361985 14.841686 26.390621 14.323462 27.265625 13.438041 L29.906250 10.781791 C30.635420 10.052621 31.114582 9.219296 31.343750 8.281791 C31.572918 7.344286 31.559897 6.406796 31.304688 5.469291 C31.049478 4.531786 30.557295 3.693253 29.828125 2.953666 C29.078121 2.203662 28.234380 1.706271 27.296875 1.461479 C26.359370 1.216686 25.429692 1.214082 24.507812 1.453666 C23.585933 1.693251 22.760420 2.177621 22.031250 2.906791 L19.375000 5.547416 C18.489579 6.422420 17.973959 7.451056 17.828125 8.633354 C17.682291 9.815651 17.911455 10.964077 18.515625 12.078666 L17.359375 13.234916 C16.765622 12.286995 16.416667 11.273984 16.312500 10.195854 C16.208333 9.117723 16.328123 8.076067 16.671875 7.070854 C17.015627 6.065640 17.552080 5.193253 18.281250 4.453666 L20.921875 1.797416 C21.828130 0.880745 22.885411 0.276584 24.093750 -0.015084 C25.302089 -0.306752 26.513015 -0.296336 27.726562 0.016166 C28.940110 0.328668 30.005204 0.943245 30.921875 1.859916 C31.828130 2.766171 32.442707 3.828660 32.765625 5.047416 C33.088543 6.266172 33.106772 7.484910 32.820312 8.703666 C32.533853 9.922422 31.937505 10.984912 31.031250 11.891166 L28.375000 14.547416 C27.635413 15.287003 26.763026 15.828664 25.757812 16.172416 C24.752599 16.516168 23.710943 16.633354 22.632812 16.523979 C21.554682 16.414603 20.536463 16.057836 19.578125 15.453666 Z M22.281250 12.797416 L23.187500 11.531791 C23.541668 11.573458 23.841145 11.557833 24.085938 11.484916 C24.330730 11.411999 24.572915 11.255751 24.812500 11.016166 L27.484375 8.344291 C27.921877 7.906789 28.135417 7.419815 28.125000 6.883354 C28.114583 6.346893 27.880211 5.839085 27.421875 5.359916 C26.942706 4.901580 26.434899 4.667208 25.898438 4.656791 C25.361976 4.646374 24.875002 4.859914 24.437500 5.297416 L21.765625 7.969291 C21.526040 8.208876 21.372396 8.453665 21.304688 8.703666 C21.236979 8.953667 21.223958 9.250539 21.265625 9.594291 L19.984375 10.500541 C19.598956 9.833871 19.513020 9.162003 19.726562 8.484916 C19.940105 7.807829 20.249998 7.266168 20.656250 6.859916 L23.343750 4.203666 C24.052087 3.505746 24.908849 3.159395 25.914062 3.164604 C26.919276 3.169812 27.791663 3.531787 28.531250 4.250541 C29.260420 5.000545 29.625000 5.878140 29.625000 6.883354 C29.625000 7.888567 29.276045 8.745329 28.578125 9.453666 L25.937500 12.125541 C25.520831 12.542210 24.976566 12.854707 24.304688 13.063041 C23.632809 13.271375 22.958337 13.182835 22.281250 12.797416 Z M12.328125 21.844291 L15.375000 18.797416 L14.593750 16.875541 L10.968750 20.484916 C10.687499 20.755751 10.546875 21.029186 10.546875 21.305229 C10.546875 21.581272 10.638020 21.807832 10.820312 21.984916 C11.002605 22.162000 11.231769 22.250541 11.507812 22.250541 C11.783856 22.250541 12.057290 22.115126 12.328125 21.844291 Z M17.203125 19.156791 L13.421875 22.938041 C12.942706 23.417210 12.437503 23.682832 11.906250 23.734916 C11.374997 23.787000 10.885419 23.685438 10.437500 23.430229 C9.989581 23.175019 9.638022 22.823460 9.382812 22.375541 C9.127603 21.927622 9.026041 21.438044 9.078125 20.906791 C9.130209 20.375538 9.395831 19.870335 9.875000 19.391166 L15.171875 14.094291 Z M12.562500 25.547416 L9.906250 28.188041 C9.437498 28.656793 8.890628 28.966686 8.265625 29.117729 C7.640622 29.268771 7.013024 29.263563 6.382812 29.102104 C5.752601 28.940644 5.192711 28.625543 4.703125 28.156791 C4.223956 27.656789 3.901042 27.091690 3.734375 26.461479 C3.567708 25.831267 3.562499 25.203669 3.718750 24.578666 C3.875001 23.953663 4.187498 23.406793 4.656250 22.938041 L7.328125 20.281791 C7.734377 19.875539 8.276038 19.563042 8.953125 19.344291 C9.630212 19.125540 10.302080 19.208872 10.968750 19.594291 L10.031250 20.875541 C9.708332 20.833874 9.416668 20.849499 9.156250 20.922416 C8.895832 20.995333 8.645835 21.151582 8.406250 21.391166 L5.765625 24.031791 C5.317706 24.479710 5.098958 24.974497 5.109375 25.516166 C5.119792 26.057835 5.348956 26.568247 5.796875 27.047416 C6.276044 27.495335 6.789060 27.727103 7.335938 27.742729 C7.882815 27.758354 8.374998 27.542210 8.812500 27.094291 L11.453125 24.438041 C11.692710 24.198457 11.854166 23.951063 11.937500 23.695854 C12.020834 23.440644 12.041667 23.146376 12.000000 22.813041 L13.265625 21.891166 C13.640627 22.557836 13.721355 23.232308 13.507812 23.914604 C13.294270 24.596899 12.979169 25.141164 12.562500 25.547416 Z M14.984375 27.938041 L12.312500 30.609916 C11.406245 31.516171 10.348964 32.115123 9.140625 32.406791 C7.932286 32.698459 6.721360 32.688043 5.507812 32.375541 C4.294265 32.063039 3.223963 31.453671 2.296875 30.547416 C1.390620 29.630745 0.781252 28.565651 0.468750 27.352104 C0.156248 26.138556 0.145832 24.922422 0.437500 23.703666 C0.729168 22.484910 1.328120 21.422421 2.234375 20.516166 L4.890625 17.859916 C5.630212 17.120329 6.499995 16.581272 7.500000 16.242729 C8.500005 15.904185 9.539057 15.786999 10.617188 15.891166 C11.695318 15.995333 12.703120 16.349496 13.640625 16.953666 L12.500000 18.094291 C11.374994 17.490121 10.226568 17.263561 9.054688 17.414604 C7.882807 17.565646 6.859379 18.078662 5.984375 18.953666 L3.312500 21.625541 C2.583330 22.354711 2.104168 23.185432 1.875000 24.117729 C1.645832 25.050025 1.661457 25.984911 1.921875 26.922416 C2.182293 27.859921 2.682288 28.698454 3.421875 29.438041 C4.171879 30.177628 5.010412 30.675019 5.937500 30.930229 C6.864588 31.185438 7.789058 31.193251 8.710938 30.953666 C9.632817 30.714082 10.458330 30.229711 11.187500 29.500541 L13.875000 26.828666 C14.739588 25.964078 15.247395 24.943255 15.398438 23.766166 C15.549480 22.589077 15.322920 21.438047 14.718750 20.313041 L15.875000 19.172416 C16.489586 20.120337 16.848958 21.133348 16.953125 22.211479 C17.057292 23.289609 16.937502 24.331265 16.593750 25.336479 C16.249998 26.341692 15.713545 27.208871 14.984375 27.938041 Z M36.937500 27.125541" /></svg>