<svg version="1.1" xmlns="http://www.w3.org/2000/svg" style="fill:rgba(0,0,0,1.0)" width="256" height="256" viewBox="0 0 38.125 32.8125"><path fill="rgb(255, 255, 255)" d="M19.468750 31.812500 L17.281250 23.031250 L20.390625 17.921875 L16.281250 12.125000 L20.156250 2.390625 C22.020843 0.796867 24.161446 -0.000000 26.578125 -0.000000 C28.338550 -0.000000 29.898431 0.414058 31.257812 1.242188 C32.617194 2.070317 33.684892 3.205722 34.460938 4.648438 C35.236983 6.091153 35.625000 7.739574 35.625000 9.593750 C35.625000 15.958365 30.239637 23.364541 19.468750 31.812500 Z M17.656250 32.812500 C11.770804 28.510395 7.356786 24.390645 4.414062 20.453125 C1.471339 16.515605 0.000000 12.807309 0.000000 9.328125 C0.000000 7.578116 0.398434 5.997403 1.195312 4.585938 C1.992191 3.174472 3.075514 2.057296 4.445312 1.234375 C5.815111 0.411454 7.354158 -0.000000 9.062500 -0.000000 C9.895838 -0.000000 10.723954 0.109374 11.546875 0.328125 C12.369796 0.546876 13.151038 0.854165 13.890625 1.250000 C14.630212 1.645835 15.296872 2.119789 15.890625 2.671875 C16.484378 3.223961 16.973956 3.828122 17.359375 4.484375 L14.171875 12.265625 L18.140625 18.000000 L15.234375 22.750000 Z M14.750000 28.328125 L13.203125 22.468750 L15.890625 18.062500 L12.046875 12.484375 L15.250000 4.718750 C14.791664 4.156247 14.229170 3.661460 13.562500 3.234375 C12.895830 2.807290 12.174483 2.473960 11.398438 2.234375 C10.622392 1.994790 9.843754 1.875000 9.062500 1.875000 C7.697910 1.875000 6.471360 2.203122 5.382812 2.859375 C4.294265 3.515628 3.437503 4.406244 2.812500 5.531250 C2.187497 6.656256 1.875000 7.921868 1.875000 9.328125 C1.875000 12.026055 2.940094 14.947901 5.070312 18.093750 C7.200531 21.239599 10.427062 24.651023 14.750000 28.328125 Z M20.578125 28.515625 C29.359419 21.192672 33.750000 14.885443 33.750000 9.593750 C33.750000 8.083326 33.445316 6.747402 32.835938 5.585938 C32.226559 4.424473 31.382818 3.515628 30.304688 2.859375 C29.226557 2.203122 27.984382 1.875000 26.578125 1.875000 C25.630204 1.875000 24.768233 2.005207 23.992188 2.265625 C23.216142 2.526043 22.458337 2.947914 21.718750 3.531250 L18.406250 11.875000 L22.640625 17.859375 L19.281250 23.343750 Z M38.125000 27.343750" /></svg>