<svg version="1.1" xmlns="http://www.w3.org/2000/svg" style="fill:rgba(0,0,0,1.0)" width="256" height="256" viewBox="0 0 37.15625 32.8125"><path fill="rgb(255, 255, 255)" d="M20.125000 32.812500 C16.583316 32.812500 13.531263 32.562502 10.968750 32.062500 C8.406237 31.562498 6.236988 30.791672 4.460938 29.750000 C2.684887 28.708328 1.197923 27.380216 0.000000 25.765625 L0.000000 24.421875 C1.312507 24.421875 2.492182 24.335938 3.539062 24.164062 C4.585943 23.992187 5.562495 23.700523 6.468750 23.289062 C7.375005 22.877602 8.268225 22.315108 9.148438 21.601562 C10.028650 20.888017 10.958328 19.989589 11.937500 18.906250 C13.427091 17.260408 14.726557 16.049483 15.835938 15.273438 C16.945318 14.497392 17.999995 14.109375 19.000000 14.109375 C19.656253 14.109375 20.315101 14.255207 20.976562 14.546875 C21.638024 14.838543 22.242185 15.234372 22.789062 15.734375 C23.335940 16.234378 23.773436 16.794268 24.101562 17.414062 C24.429689 18.033857 24.593750 18.671872 24.593750 19.328125 C24.593750 20.161462 24.398439 21.124995 24.007812 22.218750 C23.617186 23.312505 23.036462 24.588534 22.265625 26.046875 C21.796873 27.578133 21.398439 28.859370 21.070312 29.890625 C20.742186 30.921880 20.427085 31.895829 20.125000 32.812500 Z M7.359375 30.000000 L6.250000 28.890625 L11.578125 23.890625 L12.687500 25.000000 Z M11.531250 31.390625 L10.265625 30.468750 L13.484375 26.328125 L14.750000 27.234375 Z M15.968750 31.468750 L14.546875 30.812500 L16.687500 26.062500 L18.109375 26.718750 Z M18.640625 30.937500 C18.817709 30.489581 18.989582 30.031252 19.156250 29.562500 C19.322918 29.093748 19.515624 28.520837 19.734375 27.843750 C19.953126 27.166663 20.229165 26.302089 20.562500 25.250000 C21.291670 23.874993 21.833332 22.726567 22.187500 21.804688 C22.541668 20.882808 22.718750 20.098962 22.718750 19.453125 C22.718750 18.869789 22.520835 18.315107 22.125000 17.789062 C21.729165 17.263018 21.242190 16.833335 20.664062 16.500000 C20.085935 16.166665 19.515628 16.000000 18.953125 16.000000 C18.223955 16.000000 17.432296 16.325518 16.578125 16.976562 C15.723954 17.627607 14.645840 18.687493 13.343750 20.156250 C12.166661 21.500007 11.049484 22.609371 9.992188 23.484375 C8.934891 24.359379 7.778652 25.015623 6.523438 25.453125 C5.268223 25.890627 3.755217 26.125000 1.984375 26.156250 L2.062500 25.437500 C2.947921 26.406255 4.096347 27.307288 5.507812 28.140625 C6.919278 28.973962 8.695302 29.648435 10.835938 30.164062 C12.976573 30.679690 15.578110 30.937500 18.640625 30.937500 Z M20.671875 26.281250 C19.567703 24.979160 18.283861 23.820318 16.820312 22.804688 C15.356764 21.789057 13.854174 20.989586 12.312500 20.406250 L12.968750 18.656250 C14.062505 19.052085 15.171869 19.583330 16.296875 20.250000 C17.421881 20.916670 18.486974 21.666662 19.492188 22.500000 C20.497401 23.333338 21.369788 24.197912 22.109375 25.093750 Z M22.109375 23.687500 C21.286454 22.822912 20.476566 22.067712 19.679688 21.421875 C18.882809 20.776038 18.046879 20.195315 17.171875 19.679688 C16.296871 19.164060 15.328130 18.671877 14.265625 18.203125 L15.046875 16.484375 C16.192714 17.005211 17.236974 17.544268 18.179688 18.101562 C19.122401 18.658857 20.020829 19.283851 20.875000 19.976562 C21.729171 20.669274 22.588537 21.479162 23.453125 22.406250 Z M23.171875 18.609375 L22.750000 17.000000 C23.072918 16.791666 23.330728 16.513023 23.523438 16.164062 C23.716147 15.815102 23.812500 15.489585 23.812500 15.187500 C23.812500 14.916665 23.718751 14.664064 23.531250 14.429688 C23.343749 14.195311 23.119793 14.005209 22.859375 13.859375 C22.598957 13.713541 22.354168 13.640625 22.125000 13.640625 C21.874999 13.640625 21.619793 13.731770 21.359375 13.914062 C21.098957 14.096355 20.867189 14.315103 20.664062 14.570312 C20.460936 14.825522 20.307292 15.067707 20.203125 15.296875 L18.640625 15.296875 C18.640625 14.723955 18.796873 14.166669 19.109375 13.625000 C19.421877 13.083331 19.835935 12.635418 20.351562 12.281250 C20.867190 11.927082 21.437497 11.750000 22.062500 11.750000 C22.645836 11.750000 23.213539 11.906248 23.765625 12.218750 C24.317711 12.531252 24.773436 12.945310 25.132812 13.460938 C25.492189 13.976565 25.671875 14.531247 25.671875 15.125000 C25.671875 15.604169 25.557293 16.114581 25.328125 16.656250 C25.098957 17.197919 24.796877 17.658852 24.421875 18.039062 C24.046873 18.419273 23.630211 18.609375 23.171875 18.609375 Z M25.515625 15.359375 L23.953125 14.328125 L31.718750 2.921875 C31.770834 2.838541 31.796875 2.750000 31.796875 2.656250 C31.796875 2.447916 31.690105 2.263022 31.476562 2.101562 C31.263020 1.940103 31.046876 1.859375 30.828125 1.859375 C30.682291 1.859375 30.583334 1.890625 30.531250 1.953125 L22.734375 13.421875 L21.171875 12.390625 L28.968750 0.953125 C29.406252 0.317705 30.031246 -0.000000 30.843750 -0.000000 C31.572920 -0.000000 32.229164 0.263018 32.812500 0.789062 C33.395836 1.315107 33.687500 1.947913 33.687500 2.687500 C33.687500 3.135419 33.562501 3.546873 33.312500 3.921875 Z M37.156250 27.343750" /></svg>