<svg version="1.1" xmlns="http://www.w3.org/2000/svg" style="fill:rgba(0,0,0,1.0)" width="256" height="256" viewBox="0 0 35.703125 32.8125"><path fill="rgb(255, 255, 255)" d="M15.078125 21.375000 C13.703118 21.375000 12.307299 21.330730 10.890625 21.242188 C9.473951 21.153645 8.114590 20.963543 6.812500 20.671875 C5.510410 20.380207 4.348963 19.932295 3.328125 19.328125 C2.307287 18.723955 1.497399 17.914068 0.898438 16.898438 C0.299476 15.882807 0.000000 14.598966 0.000000 13.046875 C0.000000 11.151032 0.398434 9.408862 1.195312 7.820312 C1.992191 6.231763 3.088535 4.854173 4.484375 3.687500 C5.880215 2.520827 7.484366 1.614587 9.296875 0.968750 C11.109384 0.322913 13.036448 -0.000000 15.078125 -0.000000 C17.109385 -0.000000 19.062491 0.322913 20.937500 0.968750 C22.812509 1.614587 24.492180 2.520827 25.976562 3.687500 C27.460945 4.854173 28.632808 6.231763 29.492188 7.820312 C30.351567 9.408862 30.781250 11.151032 30.781250 13.046875 C30.781250 14.598966 30.476566 15.882807 29.867188 16.898438 C29.257809 17.914068 28.427089 18.723955 27.375000 19.328125 C26.322911 19.932295 25.125007 20.380207 23.781250 20.671875 C22.437493 20.963543 21.018237 21.153645 19.523438 21.242188 C18.028638 21.330730 16.546882 21.375000 15.078125 21.375000 Z M15.078125 32.812500 C12.359361 32.812500 10.325528 32.419275 8.976562 31.632812 C7.627597 30.846350 6.953125 29.661466 6.953125 28.078125 C6.953125 27.661456 7.010416 27.156253 7.125000 26.562500 C7.239584 25.968747 7.437499 25.140630 7.718750 24.078125 C7.854167 23.598956 7.942708 23.054691 7.984375 22.445312 C8.026042 21.835934 8.046875 21.010422 8.046875 19.968750 L9.921875 20.343750 C9.921875 21.354172 9.893229 22.164059 9.835938 22.773438 C9.778646 23.382816 9.677084 23.953122 9.531250 24.484375 C9.270832 25.484380 9.088542 26.247393 8.984375 26.773438 C8.880208 27.299482 8.828125 27.734373 8.828125 28.078125 C8.828125 29.078130 9.351557 29.830727 10.398438 30.335938 C11.445318 30.841148 13.005198 31.093750 15.078125 31.093750 C17.151052 31.093750 18.710932 30.841148 19.757812 30.335938 C20.804693 29.830727 21.328125 29.078130 21.328125 28.078125 C21.328125 27.734373 21.278646 27.299482 21.179688 26.773438 C21.080729 26.247393 20.895835 25.484380 20.625000 24.484375 C20.479166 23.901039 20.377604 23.328128 20.320312 22.765625 C20.263021 22.203122 20.234375 21.395839 20.234375 20.343750 L22.109375 19.968750 C22.109375 21.062505 22.132812 21.890622 22.179688 22.453125 C22.226563 23.015628 22.312499 23.557289 22.437500 24.078125 C22.718751 25.140630 22.916666 25.968747 23.031250 26.562500 C23.145834 27.156253 23.203125 27.661456 23.203125 28.078125 C23.203125 29.661466 22.528653 30.846350 21.179688 31.632812 C19.830722 32.419275 17.796889 32.812500 15.078125 32.812500 Z M6.187500 9.312500 C6.645836 8.677080 7.078123 8.158856 7.484375 7.757812 C7.890627 7.356769 8.401039 6.979168 9.015625 6.625000 C9.307293 6.437499 9.437500 6.205731 9.406250 5.929688 C9.375000 5.653644 9.247397 5.432292 9.023438 5.265625 C8.799478 5.098958 8.531252 5.098958 8.218750 5.265625 C7.552080 5.619793 6.932295 6.078122 6.359375 6.640625 C5.786455 7.203128 5.302085 7.791664 4.906250 8.406250 C4.718749 8.697918 4.695312 8.966145 4.835938 9.210938 C4.976563 9.455730 5.187499 9.604166 5.468750 9.656250 C5.750001 9.708334 5.989582 9.593751 6.187500 9.312500 Z M11.656250 5.171875 C11.854168 5.171875 12.054686 5.119792 12.257812 5.015625 C12.460939 4.911458 12.697915 4.833334 12.968750 4.781250 C13.302085 4.708333 13.494791 4.536460 13.546875 4.265625 C13.598959 3.994790 13.544272 3.744793 13.382812 3.515625 C13.221353 3.286457 12.973960 3.197916 12.640625 3.250000 C12.432291 3.281250 12.177085 3.348958 11.875000 3.453125 C11.572915 3.557292 11.328126 3.703124 11.140625 3.890625 C10.911457 4.119793 10.851562 4.390623 10.960938 4.703125 C11.070313 5.015627 11.302082 5.171875 11.656250 5.171875 Z M35.703125 27.343750" /></svg>