<svg version="1.1" xmlns="http://www.w3.org/2000/svg" style="fill:rgba(0,0,0,1.0)" width="256" height="256" viewBox="0 0 36.78125 32.8125"><path fill="rgb(255, 255, 255)" d="M7.359375 24.625000 C5.953118 24.625000 4.695318 24.351565 3.585938 23.804688 C2.476557 23.257810 1.601566 22.513026 0.960938 21.570312 C0.320309 20.627599 0.000000 19.557298 0.000000 18.359375 C0.000000 16.671867 0.682285 15.093757 2.046875 13.625000 C3.411465 12.156243 5.348946 10.856776 7.859375 9.726562 C10.369804 8.596349 13.343733 7.697920 16.781250 7.031250 L20.562500 3.250000 C21.406254 2.406246 22.273433 1.747398 23.164062 1.273438 C24.054692 0.799477 25.036453 0.468751 26.109375 0.281250 C27.182297 0.093749 28.401035 -0.000000 29.765625 -0.000000 L32.937500 -0.000000 L32.937500 24.625000 Z M3.531250 23.312500 L3.531250 13.218750 L4.781250 13.218750 L4.781250 23.312500 Z M1.953125 30.937500 C1.598957 30.937500 1.328126 30.807293 1.140625 30.546875 C0.953124 30.286457 0.937499 29.994793 1.093750 29.671875 L4.109375 23.421875 L32.937500 23.296875 L32.937500 30.281250 L24.359375 30.281250 L24.359375 29.171875 L17.328125 29.171875 L16.031250 30.718750 C15.906249 30.864584 15.744793 30.937500 15.546875 30.937500 Z M7.640625 19.828125 C7.192706 19.828125 6.807293 19.640627 6.484375 19.265625 C6.161457 18.890623 6.000000 18.442711 6.000000 17.921875 C6.000000 17.401039 6.161457 16.953127 6.484375 16.578125 C6.807293 16.203123 7.192706 16.015625 7.640625 16.015625 C8.098961 16.015625 8.486978 16.203123 8.804688 16.578125 C9.122397 16.953127 9.281250 17.401039 9.281250 17.921875 C9.281250 18.442711 9.122397 18.890623 8.804688 19.265625 C8.486978 19.640627 8.098961 19.828125 7.640625 19.828125 Z M3.218750 29.218750 L15.046875 29.218750 L17.171875 26.687500 L31.218750 26.687500 L31.218750 25.015625 L5.187500 25.140625 Z M20.953125 32.812500 C20.223955 32.812500 19.554691 32.632814 18.945312 32.273438 C18.335934 31.914061 17.851564 31.432295 17.492188 30.828125 C17.132811 30.223955 16.953125 29.557295 16.953125 28.828125 C16.953125 28.734375 16.955729 28.638021 16.960938 28.539062 C16.966146 28.440104 16.973958 28.354167 16.984375 28.281250 L18.578125 28.281250 C18.536458 28.437501 18.515625 28.619791 18.515625 28.828125 C18.515625 29.494795 18.755206 30.065102 19.234375 30.539062 C19.713544 31.013023 20.286455 31.250000 20.953125 31.250000 C21.619795 31.250000 22.190102 31.013023 22.664062 30.539062 C23.138023 30.065102 23.375000 29.494795 23.375000 28.828125 C23.375000 28.619791 23.354167 28.437501 23.312500 28.281250 L24.906250 28.281250 C24.916667 28.364584 24.924479 28.453125 24.929688 28.546875 C24.934896 28.640625 24.937500 28.734375 24.937500 28.828125 C24.937500 29.557295 24.757814 30.223955 24.398438 30.828125 C24.039061 31.432295 23.557295 31.914061 22.953125 32.273438 C22.348955 32.632814 21.682295 32.812500 20.953125 32.812500 Z M20.953125 29.953125 C20.734374 29.953125 20.546876 29.875001 20.390625 29.718750 C20.234374 29.562499 20.156250 29.375001 20.156250 29.156250 C20.156250 28.937499 20.234374 28.750001 20.390625 28.593750 C20.546876 28.437499 20.734374 28.359375 20.953125 28.359375 C21.171876 28.359375 21.359374 28.437499 21.515625 28.593750 C21.671876 28.750001 21.750000 28.937499 21.750000 29.156250 C21.750000 29.375001 21.671876 29.562499 21.515625 29.718750 C21.359374 29.875001 21.171876 29.953125 20.953125 29.953125 Z M7.468750 22.750000 L31.062500 22.750000 L31.062500 1.718750 L29.765625 1.718750 C28.619786 1.718750 27.622400 1.786458 26.773438 1.921875 C25.924475 2.057292 25.166670 2.278644 24.500000 2.585938 C23.833330 2.893231 23.187503 3.312497 22.562500 3.843750 L27.921875 3.843750 C28.192710 3.843750 28.419270 3.916666 28.601562 4.062500 C28.783855 4.208334 28.875000 4.401040 28.875000 4.640625 L28.875000 7.812500 C28.875000 8.041668 28.783855 8.231770 28.601562 8.382812 C28.419270 8.533855 28.192710 8.609375 27.921875 8.609375 L17.531250 8.609375 C14.343734 9.234378 11.578137 10.046870 9.234375 11.046875 C6.890613 12.046880 5.078131 13.169265 3.796875 14.414062 C2.515619 15.658860 1.875000 16.973951 1.875000 18.359375 C1.875000 19.223963 2.111977 19.986976 2.585938 20.648438 C3.059898 21.309899 3.716142 21.825519 4.554688 22.195312 C5.393233 22.565106 6.364578 22.750000 7.468750 22.750000 Z M26.953125 18.359375 C26.213538 18.359375 25.651044 18.210939 25.265625 17.914062 C24.880206 17.617186 24.687500 17.213544 24.687500 16.703125 C24.687500 16.151039 24.898435 15.552087 25.320312 14.906250 C25.742190 14.260413 26.304684 13.630211 27.007812 13.015625 C27.710941 12.401039 28.497391 11.846357 29.367188 11.351562 C30.236984 10.856768 31.114579 10.484376 32.000000 10.234375 L32.000000 18.359375 Z M18.984375 7.359375 L23.578125 7.359375 C23.755209 7.359375 23.872396 7.333334 23.929688 7.281250 C23.986979 7.229166 24.036458 7.119792 24.078125 6.953125 L24.406250 5.468750 C24.458334 5.218749 24.364585 5.093750 24.125000 5.093750 L21.250000 5.093750 Z M25.687500 7.359375 L27.328125 7.359375 C27.526043 7.359375 27.625000 7.270834 27.625000 7.093750 L27.625000 5.359375 C27.625000 5.182291 27.531251 5.093750 27.343750 5.093750 L26.187500 5.093750 C25.906249 5.093750 25.744792 5.192707 25.703125 5.390625 L25.343750 7.000000 C25.281250 7.239585 25.395832 7.359375 25.687500 7.359375 Z M36.781250 27.343750" /></svg>