<svg version="1.1" xmlns="http://www.w3.org/2000/svg" style="fill:rgba(0,0,0,1.0)" width="256" height="256" viewBox="0 0 35.0625 32.8125"><path fill="rgb(255, 255, 255)" d="M22.875000 13.218750 C21.656244 13.218750 20.546880 12.921878 19.546875 12.328125 C18.546870 11.734372 17.747399 10.937505 17.148438 9.937500 C16.549476 8.937495 16.250000 7.828131 16.250000 6.609375 C16.250000 5.390619 16.549476 4.281255 17.148438 3.281250 C17.747399 2.281245 18.546870 1.484378 19.546875 0.890625 C20.546880 0.296872 21.656244 -0.000000 22.875000 -0.000000 C24.093756 -0.000000 25.205724 0.296872 26.210938 0.890625 C27.216151 1.484378 28.015622 2.281245 28.609375 3.281250 C29.203128 4.281255 29.500000 5.390619 29.500000 6.609375 C29.500000 7.828131 29.203128 8.937495 28.609375 9.937500 C28.015622 10.937505 27.216151 11.734372 26.210938 12.328125 C25.205724 12.921878 24.093756 13.218750 22.875000 13.218750 Z M12.546875 32.812500 L12.546875 26.781250 L15.046875 26.781250 L15.046875 32.812500 Z M10.828125 24.906250 L10.828125 22.875000 L13.250000 22.875000 L13.250000 24.906250 Z M10.828125 21.859375 L10.828125 19.828125 L13.250000 19.828125 L13.250000 21.859375 Z M14.343750 24.906250 L14.343750 22.875000 L16.765625 22.875000 L16.765625 24.906250 Z M7.859375 27.562500 L7.859375 14.125000 L19.734375 14.125000 L19.734375 27.562500 Z M9.578125 26.000000 L18.015625 26.000000 L18.015625 15.687500 L9.578125 15.687500 Z M10.828125 18.812500 L10.828125 16.781250 L13.250000 16.781250 L13.250000 18.812500 Z M14.343750 21.859375 L14.343750 19.828125 L16.765625 19.828125 L16.765625 21.859375 Z M1.562500 10.406250 L9.421875 10.406250 L9.421875 8.531250 L1.562500 8.531250 Z M14.343750 18.812500 L14.343750 16.781250 L16.765625 16.781250 L16.765625 18.812500 Z M0.000000 11.812500 L0.000000 1.656250 L10.984375 1.656250 L10.984375 11.812500 Z M1.562500 7.437500 L9.421875 7.437500 L9.421875 6.031250 L1.562500 6.031250 Z M1.562500 4.937500 L9.421875 4.937500 L9.421875 3.062500 L1.562500 3.062500 Z M12.546875 14.906250 L12.546875 -0.000000 L15.046875 -0.000000 L15.046875 14.906250 Z M10.203125 7.609375 L10.203125 5.734375 L17.062500 5.734375 L17.062500 7.609375 Z M21.406250 8.015625 L22.234375 8.015625 L22.234375 7.640625 C22.234375 7.317707 22.072918 7.156250 21.750000 7.156250 L20.921875 7.156250 L20.921875 7.531250 C20.921875 7.854168 21.083332 8.015625 21.406250 8.015625 Z M22.875000 11.578125 C23.791671 11.578125 24.627600 11.354169 25.382812 10.906250 C26.138025 10.458331 26.739581 9.859379 27.187500 9.109375 C27.635419 8.359371 27.859375 7.526046 27.859375 6.609375 C27.859375 5.692704 27.635419 4.859379 27.187500 4.109375 C26.739581 3.359371 26.138025 2.760419 25.382812 2.312500 C24.627600 1.864581 23.791671 1.640625 22.875000 1.640625 C21.958329 1.640625 21.122400 1.864581 20.367188 2.312500 C19.611975 2.760419 19.010419 3.359371 18.562500 4.109375 C18.114581 4.859379 17.890625 5.692704 17.890625 6.609375 C17.890625 7.526046 18.114581 8.359371 18.562500 9.109375 C19.010419 9.859379 19.611975 10.458331 20.367188 10.906250 C21.122400 11.354169 21.958329 11.578125 22.875000 11.578125 Z M20.750000 9.703125 C20.552082 9.703125 20.393230 9.643230 20.273438 9.523438 C20.153645 9.403645 20.093750 9.255209 20.093750 9.078125 L20.093750 4.390625 C20.093750 4.057290 20.304685 3.781251 20.726562 3.562500 C21.148440 3.343749 21.864578 3.234375 22.875000 3.234375 C23.895838 3.234375 24.614581 3.343749 25.031250 3.562500 C25.447919 3.781251 25.656250 4.057290 25.656250 4.390625 L25.656250 9.078125 C25.656250 9.494794 25.437502 9.703125 25.000000 9.703125 C24.822916 9.703125 24.677084 9.643230 24.562500 9.523438 C24.447916 9.403645 24.390625 9.255209 24.390625 9.078125 L24.390625 8.750000 L21.359375 8.750000 L21.359375 9.078125 C21.359375 9.255209 21.302084 9.403645 21.187500 9.523438 C21.072916 9.643230 20.927084 9.703125 20.750000 9.703125 Z M23.546875 8.015625 L24.375000 8.015625 C24.697918 8.015625 24.859375 7.854168 24.859375 7.531250 L24.859375 7.156250 L24.031250 7.156250 C23.708332 7.156250 23.546875 7.317707 23.546875 7.640625 Z M22.765625 6.515625 L23.000000 6.515625 C23.552086 6.515625 23.999998 6.429688 24.343750 6.257812 C24.687502 6.085937 24.859375 5.859376 24.859375 5.578125 L24.859375 4.265625 L20.890625 4.265625 L20.890625 5.578125 C20.890625 5.859376 21.065102 6.085937 21.414062 6.257812 C21.763023 6.429688 22.213539 6.515625 22.765625 6.515625 Z M35.062500 27.343750" /></svg>