<svg version="1.1" xmlns="http://www.w3.org/2000/svg" style="fill:rgba(0,0,0,1.0)" width="256" height="256" viewBox="0 0 38.953125 25.0"><path fill="rgb(255, 255, 255)" d="M2.156250 22.296875 C1.552080 22.296875 1.041669 22.070315 0.625000 21.617188 C0.208331 21.164060 0.000000 20.572920 0.000000 19.843750 C0.000000 19.281247 0.075520 18.679691 0.226562 18.039062 C0.377605 17.398434 0.593749 16.703129 0.875000 15.953125 C1.031251 13.307278 1.213541 11.098967 1.421875 9.328125 C1.630209 7.557283 1.929686 6.132818 2.320312 5.054688 C2.710939 3.976557 3.252601 3.161461 3.945312 2.609375 C4.638024 2.057289 5.536453 1.687501 6.640625 1.500000 C7.744797 1.312499 9.124992 1.218750 10.781250 1.218750 C11.020835 1.218750 11.192708 1.252604 11.296875 1.320312 C11.401042 1.388021 11.505208 1.526041 11.609375 1.734375 L11.921875 2.328125 L32.828125 2.328125 C33.786463 2.328125 34.554685 2.460936 35.132812 2.726562 C35.710940 2.992189 36.135415 3.440101 36.406250 4.070312 C36.677085 4.700524 36.828125 5.567703 36.859375 6.671875 L37.281250 20.000000 C37.302083 20.677087 37.132814 21.229165 36.773438 21.656250 C36.414061 22.083335 35.932295 22.296875 35.328125 22.296875 L31.093750 22.296875 L31.093750 20.578125 L34.390625 20.578125 C34.817710 20.578125 35.117187 20.494792 35.289062 20.328125 C35.460938 20.161458 35.536458 19.864585 35.515625 19.437500 L34.937500 4.046875 L4.687500 4.046875 C4.437499 4.682295 4.182293 5.463537 3.921875 6.390625 C3.661457 7.317713 3.421876 8.335932 3.203125 9.445312 C2.984374 10.554693 2.807292 11.695307 2.671875 12.867188 C2.536458 14.039068 2.468750 15.182286 2.468750 16.296875 C2.260416 16.765627 2.088542 17.289060 1.953125 17.867188 C1.817708 18.445315 1.750000 18.968748 1.750000 19.437500 C1.750000 19.802085 1.807291 20.083332 1.921875 20.281250 C2.036459 20.479168 2.255207 20.578125 2.578125 20.578125 L5.187500 20.578125 L5.187500 22.296875 Z M1.000000 19.796875 L1.000000 18.546875 L2.781250 18.546875 L3.031250 16.968750 C3.062500 16.760416 3.013021 16.604167 2.882812 16.500000 C2.752604 16.395833 2.536460 16.343750 2.234375 16.343750 L1.656250 16.343750 L1.656250 15.093750 L2.234375 15.093750 C3.005212 15.093750 3.567707 15.247394 3.921875 15.554688 C4.276043 15.861981 4.406250 16.307289 4.312500 16.890625 L3.859375 19.796875 Z M7.328125 25.000000 C6.401037 25.000000 5.609378 24.671878 4.953125 24.015625 C4.296872 23.359372 3.968750 22.562505 3.968750 21.625000 C3.968750 20.697912 4.296872 19.906253 4.953125 19.250000 C5.609378 18.593747 6.401037 18.265625 7.328125 18.265625 C8.255213 18.265625 9.046872 18.593747 9.703125 19.250000 C10.359378 19.906253 10.687500 20.697912 10.687500 21.625000 C10.687500 22.562505 10.359378 23.359372 9.703125 24.015625 C9.046872 24.671878 8.255213 25.000000 7.328125 25.000000 Z M7.328125 23.125000 C7.744794 23.125000 8.096353 22.979168 8.382812 22.687500 C8.669272 22.395832 8.812500 22.041669 8.812500 21.625000 C8.812500 21.218748 8.669272 20.869793 8.382812 20.578125 C8.096353 20.286457 7.744794 20.140625 7.328125 20.140625 C6.911456 20.140625 6.559897 20.286457 6.273438 20.578125 C5.986978 20.869793 5.843750 21.218748 5.843750 21.625000 C5.843750 22.041669 5.986978 22.395832 6.273438 22.687500 C6.559897 22.979168 6.911456 23.125000 7.328125 23.125000 Z M9.531250 22.296875 L9.531250 20.578125 L26.640625 20.578125 L26.640625 22.296875 Z M5.281250 13.234375 L9.968750 13.234375 L9.968750 4.984375 L6.500000 4.984375 C5.583329 4.984375 4.937502 5.515620 4.562500 6.578125 C4.187498 7.640630 4.000000 9.447904 4.000000 12.000000 C4.000000 12.416669 4.101561 12.726561 4.304688 12.929688 C4.507814 13.132814 4.833331 13.234375 5.281250 13.234375 Z M11.375000 18.546875 L13.875000 18.546875 L13.875000 5.765625 L11.375000 5.765625 Z M9.968750 21.437500 L9.968750 14.640625 L1.703125 14.640625 L4.234375 3.421875 L35.703125 3.421875 L36.171875 13.437500 L15.281250 13.437500 L15.281250 21.437500 Z M28.890625 25.000000 C27.963537 25.000000 27.171878 24.671878 26.515625 24.015625 C25.859372 23.359372 25.531250 22.562505 25.531250 21.625000 C25.531250 20.697912 25.859372 19.906253 26.515625 19.250000 C27.171878 18.593747 27.963537 18.265625 28.890625 18.265625 C29.817713 18.265625 30.609372 18.593747 31.265625 19.250000 C31.921878 19.906253 32.250000 20.697912 32.250000 21.625000 C32.250000 22.562505 31.921878 23.359372 31.265625 24.015625 C30.609372 24.671878 29.817713 25.000000 28.890625 25.000000 Z M28.890625 23.125000 C29.307294 23.125000 29.658853 22.979168 29.945312 22.687500 C30.231772 22.395832 30.375000 22.041669 30.375000 21.625000 C30.375000 21.218748 30.231772 20.869793 29.945312 20.578125 C29.658853 20.286457 29.307294 20.140625 28.890625 20.140625 C28.473956 20.140625 28.122397 20.286457 27.835938 20.578125 C27.549478 20.869793 27.406250 21.218748 27.406250 21.625000 C27.406250 22.041669 27.549478 22.395832 27.835938 22.687500 C28.122397 22.979168 28.473956 23.125000 28.890625 23.125000 Z M15.281250 12.031250 L23.687500 12.031250 L23.687500 4.984375 L15.281250 4.984375 Z M31.843750 18.593750 C31.520832 18.593750 31.359375 18.437502 31.359375 18.125000 C31.359375 17.812498 31.520832 17.656250 31.843750 17.656250 L33.296875 17.656250 C33.619793 17.656250 33.781250 17.812498 33.781250 18.125000 C33.781250 18.437502 33.619793 18.593750 33.296875 18.593750 Z M31.843750 16.875000 C31.520832 16.875000 31.359375 16.718752 31.359375 16.406250 C31.359375 16.093748 31.520832 15.937500 31.843750 15.937500 L33.296875 15.937500 C33.619793 15.937500 33.781250 16.093748 33.781250 16.406250 C33.781250 16.718752 33.619793 16.875000 33.296875 16.875000 Z M13.875000 2.890625 L14.187500 0.984375 C14.239584 0.692707 14.369791 0.455730 14.578125 0.273438 C14.786459 0.091145 15.036457 -0.000000 15.328125 -0.000000 L23.562500 -0.000000 C23.854168 -0.000000 24.106770 0.091145 24.320312 0.273438 C24.533855 0.455730 24.661458 0.692707 24.703125 0.984375 L25.000000 2.890625 Z M31.843750 15.156250 C31.520832 15.156250 31.359375 15.000002 31.359375 14.687500 C31.359375 14.374998 31.520832 14.218750 31.843750 14.218750 L33.296875 14.218750 C33.619793 14.218750 33.781250 14.374998 33.781250 14.687500 C33.781250 15.000002 33.619793 15.156250 33.296875 15.156250 Z M34.437500 19.187500 L34.437500 15.531250 L36.234375 15.531250 L36.359375 19.187500 Z M25.093750 12.031250 L33.046875 12.031250 C33.348960 12.031250 33.583332 11.937501 33.750000 11.750000 C33.916668 11.562499 33.989583 11.307293 33.968750 10.984375 L33.765625 6.046875 C33.755208 5.734373 33.632814 5.479168 33.398438 5.281250 C33.164061 5.083332 32.890627 4.984375 32.578125 4.984375 L25.093750 4.984375 Z M38.953125 23.437500" /></svg>