<svg version="1.1" xmlns="http://www.w3.org/2000/svg" style="fill:rgba(0,0,0,1.0)" width="256" height="256" viewBox="0 0 34.53125 32.8125"><path fill="rgb(255, 255, 255)" d="M0.484375 32.812500 C0.307291 32.291664 0.182292 31.838544 0.109375 31.453125 C0.036458 31.067706 0.000000 30.739585 0.000000 30.468750 C0.000000 29.260411 0.476558 28.184901 1.429688 27.242188 C2.382817 26.299474 3.677075 25.531253 5.312500 24.937500 C6.947925 24.343747 8.796865 23.968751 10.859375 23.812500 L10.937500 24.859375 C9.489576 24.296872 8.223964 23.403652 7.140625 22.179688 C6.057286 20.955723 5.216149 19.489592 4.617188 17.781250 C4.018226 16.072908 3.718750 14.229177 3.718750 12.250000 C3.718750 9.833321 4.158850 7.705738 5.039062 5.867188 C5.919275 4.028637 7.148430 2.591151 8.726562 1.554688 C10.304695 0.518224 12.135406 -0.000000 14.218750 -0.000000 C16.302094 -0.000000 18.132805 0.518224 19.710938 1.554688 C21.289070 2.591151 22.518225 4.028637 23.398438 5.867188 C24.278650 7.705738 24.718750 9.833321 24.718750 12.250000 C24.718750 14.229177 24.419274 16.072908 23.820312 17.781250 C23.221351 19.489592 22.380214 20.955723 21.296875 22.179688 C20.213536 23.403652 18.947924 24.296872 17.500000 24.859375 L17.578125 23.812500 C19.640635 23.968751 21.492179 24.343747 23.132812 24.937500 C24.773446 25.531253 26.067704 26.299474 27.015625 27.242188 C27.963546 28.184901 28.437500 29.260411 28.437500 30.468750 C28.437500 30.739585 28.401042 31.067706 28.328125 31.453125 C28.255208 31.838544 28.130209 32.291664 27.953125 32.812500 Z M1.765625 31.093750 L26.671875 31.093750 C26.692708 30.979166 26.705729 30.869792 26.710938 30.765625 C26.716146 30.661458 26.718750 30.562500 26.718750 30.468750 C26.718750 29.593746 26.260421 28.794274 25.343750 28.070312 C24.427079 27.346351 23.153654 26.750002 21.523438 26.281250 C19.893221 25.812498 18.005219 25.526042 15.859375 25.421875 L15.859375 23.578125 C17.307299 23.151040 18.552078 22.406255 19.593750 21.343750 C20.635422 20.281245 21.437497 18.973966 22.000000 17.421875 C22.562503 15.869784 22.843750 14.145843 22.843750 12.250000 C22.843750 10.104156 22.489587 8.242195 21.781250 6.664062 C21.072913 5.085930 20.072923 3.867192 18.781250 3.007812 C17.489577 2.148433 15.968759 1.718750 14.218750 1.718750 C12.479158 1.718750 10.960944 2.148433 9.664062 3.007812 C8.367181 3.867192 7.364587 5.085930 6.656250 6.664062 C5.947913 8.242195 5.593750 10.104156 5.593750 12.250000 C5.593750 14.145843 5.874997 15.869784 6.437500 17.421875 C7.000003 18.973966 7.804682 20.281245 8.851562 21.343750 C9.898443 22.406255 11.140618 23.151040 12.578125 23.578125 L12.578125 25.421875 C10.442698 25.526042 8.557300 25.812498 6.921875 26.281250 C5.286450 26.750002 4.010421 27.346351 3.093750 28.070312 C2.177079 28.794274 1.718750 29.593746 1.718750 30.468750 C1.718750 30.562500 1.723958 30.661458 1.734375 30.765625 C1.744792 30.869792 1.755208 30.979166 1.765625 31.093750 Z M34.531250 27.343750" /></svg>