<svg version="1.1" xmlns="http://www.w3.org/2000/svg" style="fill:rgba(0,0,0,1.0)" width="256" height="256" viewBox="0 0 38.75 32.8125"><path fill="rgb(255, 255, 255)" d="M16.515625 32.812500 C15.734371 32.812500 14.932296 32.687501 14.109375 32.437500 C13.286454 32.187499 12.528649 31.838544 11.835938 31.390625 C11.143226 30.942706 10.580731 30.421878 10.148438 29.828125 C9.716144 29.234372 9.500000 28.593753 9.500000 27.906250 C9.500000 27.104163 9.736977 26.229171 10.210938 25.281250 C10.684898 24.333329 11.302080 23.531253 12.062500 22.875000 C11.677081 22.916667 11.317710 22.950521 10.984375 22.976562 C10.651040 23.002604 10.333335 23.015625 10.031250 23.015625 C9.083329 23.015625 8.273441 22.846356 7.601562 22.507812 C6.929684 22.169269 6.255212 21.570317 5.578125 20.710938 C4.901038 19.851558 4.078130 18.645841 3.109375 17.093750 C2.359371 15.885411 1.757815 14.846359 1.304688 13.976562 C0.851560 13.106766 0.520834 12.375003 0.312500 11.781250 C0.104166 11.187497 0.000000 10.703127 0.000000 10.328125 C0.000000 9.744789 0.229164 9.361980 0.687500 9.179688 C1.145836 8.997395 1.760413 8.906250 2.531250 8.906250 C3.583339 8.906250 4.835930 9.059894 6.289062 9.367188 C7.742195 9.674481 9.265617 10.124997 10.859375 10.718750 C12.453133 11.312503 14.015617 12.039058 15.546875 12.898438 C17.078133 13.757817 18.447911 14.744786 19.656250 15.859375 L18.828125 16.703125 C17.755203 15.723953 16.500007 14.841150 15.062500 14.054688 C13.624993 13.268225 12.156258 12.596357 10.656250 12.039062 C9.156242 11.481768 7.752611 11.054689 6.445312 10.757812 C5.138014 10.460936 4.067712 10.312500 3.234375 10.312500 C2.776039 10.312500 2.414064 10.364583 2.148438 10.468750 C1.882811 10.572917 1.750000 10.776040 1.750000 11.078125 C1.750000 11.328126 1.848957 11.674477 2.046875 12.117188 C2.244793 12.559898 2.544269 13.122392 2.945312 13.804688 C3.346356 14.486983 3.843747 15.312495 4.437500 16.281250 C5.052086 17.281255 5.598956 18.117184 6.078125 18.789062 C6.557294 19.460941 7.033852 19.997394 7.507812 20.398438 C7.981773 20.799481 8.510414 21.088541 9.093750 21.265625 C9.677086 21.442709 10.380204 21.531250 11.203125 21.531250 C11.703128 21.531250 12.260414 21.502604 12.875000 21.445312 C13.489586 21.388021 14.177080 21.312500 14.937500 21.218750 C13.958328 22.385422 13.184899 23.385412 12.617188 24.218750 C12.049476 25.052088 11.648439 25.757810 11.414062 26.335938 C11.179686 26.914065 11.062500 27.406248 11.062500 27.812500 C11.062500 28.500003 11.343747 29.101560 11.906250 29.617188 C12.468753 30.132815 13.164058 30.533853 13.992188 30.820312 C14.820317 31.106772 15.630204 31.250000 16.421875 31.250000 C17.276046 31.250000 17.945310 31.125001 18.429688 30.875000 C18.914065 30.624999 19.307290 30.132816 19.609375 29.398438 C19.911460 28.664059 20.213540 27.572924 20.515625 26.125000 L21.265625 27.515625 C21.130208 29.192717 20.700524 30.494787 19.976562 31.421875 C19.252601 32.348963 18.098966 32.812500 16.515625 32.812500 Z M11.937500 28.312500 C11.791666 28.312500 11.664063 28.257813 11.554688 28.148438 C11.445312 28.039062 11.390625 27.911459 11.390625 27.765625 C11.390625 27.619791 11.445312 27.492188 11.554688 27.382812 C11.664063 27.273437 11.791666 27.218750 11.937500 27.218750 C12.083334 27.218750 12.210937 27.273437 12.320312 27.382812 C12.429688 27.492188 12.484375 27.619791 12.484375 27.765625 C12.484375 27.911459 12.429688 28.039062 12.320312 28.148438 C12.210937 28.257813 12.083334 28.312500 11.937500 28.312500 Z M14.640625 30.218750 C14.494791 30.218750 14.367188 30.164063 14.257812 30.054688 C14.148437 29.945312 14.093750 29.817709 14.093750 29.671875 C14.093750 29.526041 14.148437 29.398438 14.257812 29.289062 C14.367188 29.179687 14.494791 29.125000 14.640625 29.125000 C14.786459 29.125000 14.914062 29.179687 15.023438 29.289062 C15.132813 29.398438 15.187500 29.526041 15.187500 29.671875 C15.187500 29.817709 15.132813 29.945312 15.023438 30.054688 C14.914062 30.164063 14.786459 30.218750 14.640625 30.218750 Z M12.734375 26.437500 C12.588541 26.437500 12.460938 26.382813 12.351562 26.273438 C12.242187 26.164062 12.187500 26.036459 12.187500 25.890625 C12.187500 25.744791 12.242187 25.617188 12.351562 25.507812 C12.460938 25.398437 12.588541 25.343750 12.734375 25.343750 C12.880209 25.343750 13.007812 25.398437 13.117188 25.507812 C13.226563 25.617188 13.281250 25.744791 13.281250 25.890625 C13.281250 26.036459 13.226563 26.164062 13.117188 26.273438 C13.007812 26.382813 12.880209 26.437500 12.734375 26.437500 Z M14.015625 28.578125 C13.786457 28.578125 13.578126 28.497397 13.390625 28.335938 C13.203124 28.174478 13.109375 27.963543 13.109375 27.703125 C13.109375 27.286456 13.338539 26.820315 13.796875 26.304688 C14.255211 25.789060 14.854163 25.369793 15.593750 25.046875 C15.593750 26.119797 15.437502 26.976559 15.125000 27.617188 C14.812498 28.257816 14.442710 28.578125 14.015625 28.578125 Z M16.937500 30.390625 C16.520831 30.390625 16.166668 30.260418 15.875000 30.000000 C15.583332 29.739582 15.437500 29.385419 15.437500 28.937500 C15.437500 28.458331 15.614582 27.971357 15.968750 27.476562 C16.322918 26.981768 16.822913 26.625001 17.468750 26.406250 C17.791668 26.729168 18.031249 27.085936 18.187500 27.476562 C18.343751 27.867189 18.421875 28.244790 18.421875 28.609375 C18.421875 29.088544 18.291668 29.505207 18.031250 29.859375 C17.770832 30.213543 17.406252 30.390625 16.937500 30.390625 Z M4.062500 13.875000 C3.916666 13.875000 3.789063 13.820313 3.679688 13.710938 C3.570312 13.601562 3.515625 13.473959 3.515625 13.328125 C3.515625 13.182291 3.570312 13.054688 3.679688 12.945312 C3.789063 12.835937 3.916666 12.781250 4.062500 12.781250 C4.208334 12.781250 4.335937 12.835937 4.445312 12.945312 C4.554688 13.054688 4.609375 13.182291 4.609375 13.328125 C4.609375 13.473959 4.554688 13.601562 4.445312 13.710938 C4.335937 13.820313 4.208334 13.875000 4.062500 13.875000 Z M3.406250 12.468750 C3.187499 12.468750 3.002605 12.393230 2.851562 12.242188 C2.700520 12.091145 2.625000 11.906251 2.625000 11.687500 C2.625000 11.468749 2.700520 11.283855 2.851562 11.132812 C3.002605 10.981770 3.187499 10.906250 3.406250 10.906250 C3.625001 10.906250 3.809895 10.981770 3.960938 11.132812 C4.111980 11.283855 4.187500 11.468749 4.187500 11.687500 C4.187500 11.906251 4.111980 12.091145 3.960938 12.242188 C3.809895 12.393230 3.625001 12.468750 3.406250 12.468750 Z M8.265625 18.203125 C7.630205 18.307292 7.122398 18.273438 6.742188 18.101562 C6.361977 17.929687 6.171875 17.583336 6.171875 17.062500 C6.171875 16.562498 6.416664 16.203126 6.906250 15.984375 C7.395836 15.765624 7.906247 15.656250 8.437500 15.656250 C8.968753 15.656250 9.539059 15.791665 10.148438 16.062500 C10.757816 16.333335 11.567703 16.791663 12.578125 17.437500 Z M6.625000 15.359375 C6.114581 15.453125 5.687502 15.429688 5.343750 15.289062 C4.999998 15.148437 4.828125 14.843752 4.828125 14.375000 C4.828125 14.031248 4.945311 13.773438 5.179688 13.601562 C5.414064 13.429687 5.708332 13.343750 6.062500 13.343750 C6.520836 13.343750 7.015622 13.481769 7.546875 13.757812 C8.078128 14.033856 8.510415 14.432289 8.843750 14.953125 Z M14.453125 24.843750 C14.286458 24.843750 14.143230 24.786459 14.023438 24.671875 C13.903645 24.557291 13.843750 24.406251 13.843750 24.218750 C13.843750 23.781248 14.156247 23.231774 14.781250 22.570312 C15.406253 21.908851 16.213537 21.333336 17.203125 20.843750 C16.671872 22.114590 16.174481 23.098955 15.710938 23.796875 C15.247394 24.494795 14.828127 24.843750 14.453125 24.843750 Z M19.156250 28.234375 C18.937499 28.234375 18.770834 28.041669 18.656250 27.656250 C18.541666 27.270831 18.484375 26.833336 18.484375 26.343750 C18.484375 25.916665 18.526041 25.500002 18.609375 25.093750 C18.692709 24.687498 18.822916 24.369793 19.000000 24.140625 C19.239585 24.505210 19.416666 24.942706 19.531250 25.453125 C19.645834 25.963544 19.703125 26.437498 19.703125 26.875000 C19.703125 27.166668 19.664063 27.466144 19.585938 27.773438 C19.507812 28.080731 19.364584 28.234375 19.156250 28.234375 Z M5.515625 12.421875 C5.348958 12.421875 5.203126 12.359376 5.078125 12.234375 C4.953124 12.109374 4.890625 11.963542 4.890625 11.796875 C4.890625 11.619791 4.953124 11.471355 5.078125 11.351562 C5.203126 11.231770 5.348958 11.171875 5.515625 11.171875 C5.692709 11.171875 5.841145 11.231770 5.960938 11.351562 C6.080730 11.471355 6.140625 11.619791 6.140625 11.796875 C6.140625 11.963542 6.080730 12.109374 5.960938 12.234375 C5.841145 12.359376 5.692709 12.421875 5.515625 12.421875 Z M11.812500 20.734375 C10.833328 20.859376 10.057295 20.848959 9.484375 20.703125 C8.911455 20.557291 8.625000 20.291669 8.625000 19.906250 C8.625000 19.499998 8.833331 19.166668 9.250000 18.906250 C9.666669 18.645832 10.164060 18.455730 10.742188 18.335938 C11.320315 18.216145 11.859373 18.156250 12.359375 18.156250 C13.234379 18.156250 14.164058 18.312498 15.148438 18.625000 C16.132817 18.937502 17.145828 19.364581 18.187500 19.906250 Z M16.875000 26.078125 C16.593749 26.078125 16.382813 25.984376 16.242188 25.796875 C16.101562 25.609374 16.031250 25.369793 16.031250 25.078125 C16.031250 24.494789 16.265623 23.773442 16.734375 22.914062 C17.203127 22.054683 17.828121 21.244795 18.609375 20.484375 C18.630208 20.682293 18.645833 20.882811 18.656250 21.085938 C18.666667 21.289064 18.671875 21.484374 18.671875 21.671875 C18.671875 22.932298 18.497398 23.981767 18.148438 24.820312 C17.799477 25.658858 17.375002 26.078125 16.875000 26.078125 Z M7.375000 12.937500 C7.229166 12.937500 7.101563 12.882813 6.992188 12.773438 C6.882812 12.664062 6.828125 12.536459 6.828125 12.390625 C6.828125 12.244791 6.882812 12.117188 6.992188 12.007812 C7.101563 11.898437 7.229166 11.843750 7.375000 11.843750 C7.520834 11.843750 7.648437 11.898437 7.757812 12.007812 C7.867188 12.117188 7.921875 12.244791 7.921875 12.390625 C7.921875 12.536459 7.867188 12.664062 7.757812 12.773438 C7.648437 12.882813 7.520834 12.937500 7.375000 12.937500 Z M22.578125 31.140625 C22.317707 31.140625 22.010418 30.789066 21.656250 30.085938 C21.302082 29.382809 20.953127 28.429694 20.609375 27.226562 C20.265623 26.023431 19.963543 24.666674 19.703125 23.156250 C19.546874 22.229162 19.421875 21.346358 19.328125 20.507812 C19.234375 19.669267 19.166667 18.901045 19.125000 18.203125 L21.390625 17.812500 C21.598959 18.479170 21.799478 19.223954 21.992188 20.046875 C22.184897 20.869796 22.364582 21.734370 22.531250 22.640625 C22.739584 23.796881 22.895833 24.890620 23.000000 25.921875 C23.104167 26.953130 23.156250 27.854163 23.156250 28.625000 C23.156250 29.375004 23.109375 29.981769 23.015625 30.445312 C22.921875 30.908856 22.776043 31.140625 22.578125 31.140625 Z M17.968750 18.687500 L12.375000 16.125000 C11.291661 15.624998 10.377608 15.072920 9.632812 14.468750 C8.888017 13.864580 8.515625 13.375002 8.515625 13.000000 C8.515625 12.833333 8.583333 12.716146 8.718750 12.648438 C8.854167 12.580729 9.020832 12.546875 9.218750 12.546875 C9.729169 12.546875 10.338538 12.679686 11.046875 12.945312 C11.755212 13.210939 12.492184 13.565102 13.257812 14.007812 C14.023441 14.450523 14.747392 14.942706 15.429688 15.484375 C16.111983 16.026044 16.684894 16.572914 17.148438 17.125000 C17.611981 17.677086 17.885416 18.197914 17.968750 18.687500 Z M24.750000 27.265625 C24.541666 27.265625 24.338543 27.109377 24.140625 26.796875 C23.942707 26.484373 23.781251 26.091148 23.656250 25.617188 C23.531249 25.143227 23.468750 24.661461 23.468750 24.171875 C23.468750 24.026041 23.473958 23.885417 23.484375 23.750000 C23.494792 23.614583 23.515625 23.484376 23.546875 23.359375 C23.817710 23.536459 24.070311 23.822915 24.304688 24.218750 C24.539064 24.614585 24.726562 25.033852 24.867188 25.476562 C25.007813 25.919273 25.078125 26.302082 25.078125 26.625000 C25.078125 27.052085 24.968751 27.265625 24.750000 27.265625 Z M27.093750 28.625000 C26.624998 28.625000 26.231772 28.395836 25.914062 27.937500 C25.596353 27.479164 25.437500 26.947920 25.437500 26.343750 C25.437500 25.854164 25.541666 25.395835 25.750000 24.968750 C26.583338 24.968750 27.270831 25.203123 27.812500 25.671875 C28.354169 26.140627 28.625000 26.645831 28.625000 27.187500 C28.625000 27.593752 28.460939 27.934894 28.132812 28.210938 C27.804686 28.486981 27.458335 28.625000 27.093750 28.625000 Z M25.937500 24.484375 C25.385414 24.484375 24.791670 24.044275 24.156250 23.164062 C23.520830 22.283850 23.026043 21.156257 22.671875 19.781250 C23.432295 20.114585 24.119789 20.518227 24.734375 20.992188 C25.348961 21.466148 25.838540 21.940102 26.203125 22.414062 C26.567710 22.888023 26.750000 23.307290 26.750000 23.671875 C26.750000 23.932293 26.664063 24.132812 26.492188 24.273438 C26.320312 24.414063 26.135418 24.484375 25.937500 24.484375 Z M29.593750 27.531250 C29.447916 27.531250 29.320313 27.476563 29.210938 27.367188 C29.101562 27.257812 29.046875 27.130209 29.046875 26.984375 C29.046875 26.838541 29.101562 26.710938 29.210938 26.601562 C29.320313 26.492187 29.447916 26.437500 29.593750 26.437500 C29.739584 26.437500 29.867187 26.492187 29.976562 26.601562 C30.085938 26.710938 30.140625 26.838541 30.140625 26.984375 C30.140625 27.130209 30.085938 27.257812 29.976562 27.367188 C29.867187 27.476563 29.739584 27.531250 29.593750 27.531250 Z M20.140625 19.359375 C19.630206 19.359375 19.218752 19.174481 18.906250 18.804688 C18.593748 18.434894 18.364584 17.971357 18.218750 17.414062 C18.072916 16.856768 18.000000 16.302086 18.000000 15.750000 C18.000000 14.312493 18.614577 13.593750 19.843750 13.593750 C20.343752 13.593750 20.749998 13.778644 21.062500 14.148438 C21.375002 14.518231 21.604166 14.979164 21.750000 15.531250 C21.895834 16.083336 21.968750 16.635414 21.968750 17.187500 C21.968750 17.864587 21.817710 18.395831 21.515625 18.781250 C21.213540 19.166669 20.755211 19.359375 20.140625 19.359375 Z M29.484375 25.843750 C29.098956 25.843750 28.687502 25.596357 28.250000 25.101562 C27.812498 24.606768 27.416668 23.916671 27.062500 23.031250 C27.968755 23.072917 28.742184 23.296873 29.382812 23.703125 C30.023441 24.109377 30.343750 24.531248 30.343750 24.968750 C30.343750 25.197918 30.257813 25.401041 30.085938 25.578125 C29.914062 25.755209 29.713543 25.843750 29.484375 25.843750 Z M27.828125 22.468750 C27.442706 22.468750 26.934899 22.223961 26.304688 21.734375 C25.674476 21.244789 24.942712 20.541671 24.109375 19.625000 C24.911462 19.708334 25.643226 19.874999 26.304688 20.125000 C26.966149 20.375001 27.492186 20.656248 27.882812 20.968750 C28.273439 21.281252 28.468750 21.583332 28.468750 21.875000 C28.468750 22.010417 28.421875 22.135416 28.328125 22.250000 C28.203124 22.395834 28.036459 22.468750 27.828125 22.468750 Z M17.843750 12.703125 C18.052084 12.703125 18.229166 12.627605 18.375000 12.476562 C18.520834 12.325520 18.593750 12.135418 18.593750 11.906250 C18.593750 11.708332 18.544271 11.544271 18.445312 11.414062 C18.346354 11.283854 18.197918 11.218750 18.000000 11.218750 C17.770832 11.218750 17.591146 11.302083 17.460938 11.468750 C17.330729 11.635417 17.265625 11.812499 17.265625 12.000000 C17.265625 12.187501 17.320312 12.351562 17.429688 12.492188 C17.539063 12.632813 17.677082 12.703125 17.843750 12.703125 Z M19.156250 15.328125 C18.333329 15.328125 17.684898 15.033857 17.210938 14.445312 C16.736977 13.856768 16.500000 13.177087 16.500000 12.406250 C16.500000 11.583329 16.794268 10.937502 17.382812 10.468750 C17.971357 9.999998 18.656246 9.765625 19.437500 9.765625 C20.250004 9.765625 20.893227 10.052080 21.367188 10.625000 C21.841148 11.197920 22.078125 11.880204 22.078125 12.671875 C22.078125 13.494796 21.789065 14.143227 21.210938 14.617188 C20.632810 15.091148 19.947921 15.328125 19.156250 15.328125 Z M31.328125 24.953125 C31.182291 24.953125 31.054688 24.898438 30.945312 24.789062 C30.835937 24.679687 30.781250 24.552084 30.781250 24.406250 C30.781250 24.260416 30.835937 24.132813 30.945312 24.023438 C31.054688 23.914062 31.182291 23.859375 31.328125 23.859375 C31.473959 23.859375 31.601562 23.914062 31.710938 24.023438 C31.820313 24.132813 31.875000 24.260416 31.875000 24.406250 C31.875000 24.552084 31.820313 24.679687 31.710938 24.789062 C31.601562 24.898438 31.473959 24.953125 31.328125 24.953125 Z M30.031250 23.390625 C29.885416 23.390625 29.757813 23.335938 29.648438 23.226562 C29.539062 23.117187 29.484375 22.989584 29.484375 22.843750 C29.484375 22.697916 29.539062 22.570313 29.648438 22.460938 C29.757813 22.351562 29.885416 22.296875 30.031250 22.296875 C30.177084 22.296875 30.304687 22.351562 30.414062 22.460938 C30.523438 22.570313 30.578125 22.697916 30.578125 22.843750 C30.578125 22.989584 30.523438 23.117187 30.414062 23.226562 C30.304687 23.335938 30.177084 23.390625 30.031250 23.390625 Z M17.437500 10.781250 C17.333333 9.958329 17.085939 9.135421 16.695312 8.312500 C16.304686 7.489579 15.835940 6.739587 15.289062 6.062500 C14.742185 5.385413 14.171878 4.841148 13.578125 4.429688 C12.984372 4.018227 12.432294 3.812500 11.921875 3.812500 C11.932292 3.854167 11.937500 3.895833 11.937500 3.937500 C11.937500 3.979167 11.937500 4.026041 11.937500 4.078125 C11.937500 4.505210 11.789064 4.854165 11.492188 5.125000 C11.195311 5.395835 10.859377 5.531250 10.484375 5.531250 C10.046873 5.531250 9.687501 5.377606 9.406250 5.070312 C9.124999 4.763019 8.984375 4.416669 8.984375 4.031250 C8.984375 3.489581 9.234372 3.070314 9.734375 2.773438 C10.234377 2.476561 10.786455 2.328125 11.390625 2.328125 C12.151045 2.328125 12.927079 2.549477 13.718750 2.992188 C14.510421 3.434898 15.252601 4.036455 15.945312 4.796875 C16.638024 5.557295 17.229164 6.411454 17.718750 7.359375 C18.208336 8.307296 18.531249 9.281245 18.687500 10.281250 Z M20.453125 12.234375 C20.848960 12.234375 21.046875 12.031252 21.046875 11.625000 C21.046875 11.416666 20.973959 11.226563 20.828125 11.054688 C20.682291 10.882812 20.500001 10.796875 20.281250 10.796875 C20.114582 10.796875 19.966146 10.854166 19.835938 10.968750 C19.705729 11.083334 19.640625 11.239582 19.640625 11.437500 C19.640625 11.677085 19.726562 11.869791 19.898438 12.015625 C20.070313 12.161459 20.255207 12.234375 20.453125 12.234375 Z M22.859375 19.093750 C24.161465 17.666660 25.406244 16.630212 26.593750 15.984375 C27.781256 15.338538 29.026035 15.015625 30.328125 15.015625 C31.359380 15.015625 31.875000 15.338538 31.875000 15.984375 C31.875000 16.328127 31.635419 16.648436 31.156250 16.945312 C30.677081 17.242189 30.005213 17.489582 29.140625 17.687500 Z M26.968750 31.000000 C25.999995 31.000000 25.158858 30.674482 24.445312 30.023438 C23.731767 29.372393 23.104169 28.458339 22.562500 27.281250 L22.796875 25.718750 C23.401045 26.666671 23.911456 27.414060 24.328125 27.960938 C24.744794 28.507815 25.135415 28.895832 25.500000 29.125000 C25.864585 29.354168 26.265623 29.468750 26.703125 29.468750 C27.317711 29.468750 27.955726 29.333335 28.617188 29.062500 C29.278649 28.791665 29.895830 28.429690 30.468750 27.976562 C31.041670 27.523435 31.505207 27.020836 31.859375 26.468750 C32.213543 25.916664 32.390625 25.364586 32.390625 24.812500 C32.390625 24.177080 32.101565 23.541670 31.523438 22.906250 C30.945310 22.270830 30.195317 21.640628 29.273438 21.015625 C28.351558 20.390622 27.380213 19.786461 26.359375 19.203125 C27.651048 18.911457 28.723954 18.627606 29.578125 18.351562 C30.432296 18.075519 31.130206 17.755210 31.671875 17.390625 C32.213544 17.026040 32.648436 16.570315 32.976562 16.023438 C33.304689 15.476560 33.583332 14.796879 33.812500 13.984375 C34.041668 13.171871 34.281249 12.166673 34.531250 10.968750 C34.802085 9.687494 35.010416 8.630212 35.156250 7.796875 C35.302084 6.963538 35.375000 6.312502 35.375000 5.843750 C35.375000 5.447915 35.317709 5.161459 35.203125 4.984375 C35.088541 4.807291 34.906251 4.718750 34.656250 4.718750 C33.989580 4.718750 33.169276 4.984372 32.195312 5.515625 C31.221349 6.046878 30.184901 6.747391 29.085938 7.617188 C27.986974 8.486984 26.916672 9.437495 25.875000 10.468750 C24.833328 11.500005 23.895838 12.526037 23.062500 13.546875 C22.229162 14.567713 21.598960 15.484371 21.171875 16.296875 L20.093750 15.781250 C20.614586 14.781245 21.338537 13.703131 22.265625 12.546875 C23.192713 11.390619 24.234369 10.250006 25.390625 9.125000 C26.546881 7.999994 27.736973 6.973963 28.960938 6.046875 C30.184902 5.119787 31.361974 4.380211 32.492188 3.828125 C33.622401 3.276039 34.619787 3.000000 35.484375 3.000000 C35.911460 3.000000 36.249999 3.169269 36.500000 3.507812 C36.750001 3.846356 36.875000 4.479162 36.875000 5.406250 C36.875000 6.041670 36.809896 6.838537 36.679688 7.796875 C36.549479 8.755213 36.343751 9.916660 36.062500 11.281250 C35.729165 12.906258 35.406252 14.221349 35.093750 15.226562 C34.781248 16.231776 34.408856 17.018226 33.976562 17.585938 C33.544269 18.153649 32.984378 18.596353 32.296875 18.914062 C31.609372 19.231772 30.718755 19.515624 29.625000 19.765625 C30.322920 20.026043 30.999997 20.416664 31.656250 20.937500 C32.312503 21.458336 32.856769 22.044268 33.289062 22.695312 C33.721356 23.346357 33.937500 24.005205 33.937500 24.671875 C33.937500 25.401045 33.721356 26.138017 33.289062 26.882812 C32.856769 27.627608 32.291670 28.312497 31.593750 28.937500 C30.895830 29.562503 30.140629 30.062498 29.328125 30.437500 C28.515621 30.812502 27.729170 31.000000 26.968750 31.000000 Z M22.640625 17.859375 C22.630208 17.776041 22.622396 17.695313 22.617188 17.617188 C22.611979 17.539062 22.609375 17.473959 22.609375 17.421875 C22.609375 16.619788 22.911455 15.677089 23.515625 14.593750 C24.119795 13.510411 24.973953 12.385422 26.078125 11.218750 C26.713545 10.541663 27.307289 10.005210 27.859375 9.609375 C28.411461 9.213540 28.843748 9.015625 29.156250 9.015625 C29.468752 9.015625 29.625000 9.187498 29.625000 9.531250 C29.625000 9.947919 29.380211 10.536455 28.890625 11.296875 C28.401039 12.057295 27.781254 12.807288 27.031250 13.546875 Z M27.281250 14.843750 C27.937503 13.989579 28.507810 13.322919 28.992188 12.843750 C29.476565 12.364581 29.945310 12.026043 30.398438 11.828125 C30.851565 11.630207 31.338539 11.531250 31.859375 11.531250 C32.796880 11.531250 33.265625 11.953121 33.265625 12.796875 C33.265625 13.453128 32.708339 13.885416 31.593750 14.093750 Z M20.546875 10.234375 L19.203125 10.171875 C19.151041 9.890624 19.109375 9.601564 19.078125 9.304688 C19.046875 9.007811 19.031250 8.708335 19.031250 8.406250 C19.031250 7.437495 19.164061 6.458338 19.429688 5.468750 C19.695314 4.479162 20.070310 3.570317 20.554688 2.742188 C21.039065 1.914058 21.611976 1.250003 22.273438 0.750000 C22.934899 0.249997 23.661454 -0.000000 24.453125 -0.000000 C24.973961 -0.000000 25.403644 0.132811 25.742188 0.398438 C26.080731 0.664064 26.250000 1.041664 26.250000 1.531250 C26.250000 1.947919 26.109376 2.296874 25.828125 2.578125 C25.546874 2.859376 25.197919 3.000000 24.781250 3.000000 C24.427082 3.000000 24.114585 2.890626 23.843750 2.671875 C23.572915 2.453124 23.401042 2.171877 23.328125 1.828125 C22.796872 1.963542 22.307294 2.369788 21.859375 3.046875 C21.411456 3.723962 21.049481 4.541662 20.773438 5.500000 C20.497394 6.458338 20.359375 7.432287 20.359375 8.421875 C20.359375 8.734377 20.375000 9.041665 20.406250 9.343750 C20.437500 9.645835 20.484375 9.942707 20.546875 10.234375 Z M29.953125 11.218750 C30.098959 10.541663 30.442706 9.945315 30.984375 9.429688 C31.526044 8.914060 32.072914 8.656250 32.625000 8.656250 C32.927085 8.656250 33.166666 8.752603 33.343750 8.945312 C33.520834 9.138022 33.609375 9.401040 33.609375 9.734375 C33.609375 10.317711 33.130213 10.687499 32.171875 10.843750 Z M30.500000 8.890625 C30.354166 8.890625 30.226563 8.835938 30.117188 8.726562 C30.007812 8.617187 29.953125 8.489584 29.953125 8.343750 C29.953125 8.197916 30.007812 8.070313 30.117188 7.960938 C30.226563 7.851562 30.354166 7.796875 30.500000 7.796875 C30.645834 7.796875 30.773437 7.851562 30.882812 7.960938 C30.992188 8.070313 31.046875 8.197916 31.046875 8.343750 C31.046875 8.489584 30.992188 8.617187 30.882812 8.726562 C30.773437 8.835938 30.645834 8.890625 30.500000 8.890625 Z M32.031250 7.750000 C31.864582 7.750000 31.718751 7.687501 31.593750 7.562500 C31.468749 7.437499 31.406250 7.291667 31.406250 7.125000 C31.406250 6.947916 31.468749 6.799480 31.593750 6.679688 C31.718751 6.559895 31.864582 6.500000 32.031250 6.500000 C32.208334 6.500000 32.356770 6.559895 32.476562 6.679688 C32.596355 6.799480 32.656250 6.947916 32.656250 7.125000 C32.656250 7.291667 32.596355 7.437499 32.476562 7.562500 C32.356770 7.687501 32.208334 7.750000 32.031250 7.750000 Z M33.906250 8.578125 C33.760416 8.578125 33.632813 8.523438 33.523438 8.414062 C33.414062 8.304687 33.359375 8.177084 33.359375 8.031250 C33.359375 7.885416 33.414062 7.757813 33.523438 7.648438 C33.632813 7.539062 33.760416 7.484375 33.906250 7.484375 C34.052084 7.484375 34.179687 7.539062 34.289062 7.648438 C34.398438 7.757813 34.453125 7.885416 34.453125 8.031250 C34.453125 8.177084 34.398438 8.304687 34.289062 8.414062 C34.179687 8.523438 34.052084 8.578125 33.906250 8.578125 Z M33.984375 7.031250 C33.765624 7.031250 33.580730 6.955730 33.429688 6.804688 C33.278645 6.653645 33.203125 6.468751 33.203125 6.250000 C33.203125 6.031249 33.278645 5.846355 33.429688 5.695312 C33.580730 5.544270 33.765624 5.468750 33.984375 5.468750 C34.203126 5.468750 34.388020 5.544270 34.539062 5.695312 C34.690105 5.846355 34.765625 6.031249 34.765625 6.250000 C34.765625 6.468751 34.690105 6.653645 34.539062 6.804688 C34.388020 6.955730 34.203126 7.031250 33.984375 7.031250 Z M38.750000 27.343750" /></svg>