<svg version="1.1" xmlns="http://www.w3.org/2000/svg" style="fill:rgba(0,0,0,1.0)" width="256" height="256" viewBox="0 0 35.9375 32.8125"><path fill="rgb(255, 255, 255)" d="M0.000000 32.812500 L0.000000 -0.000000 L4.468750 -0.000000 L4.468750 1.531250 C4.468750 1.718751 4.390626 1.854166 4.234375 1.937500 C3.734372 2.208335 3.484375 2.640622 3.484375 3.234375 C3.484375 3.651044 3.630207 4.005207 3.921875 4.296875 C4.213543 4.588543 4.562498 4.734375 4.968750 4.734375 C5.375002 4.734375 5.723957 4.588543 6.015625 4.296875 C6.307293 4.005207 6.453125 3.651044 6.453125 3.234375 C6.453125 2.640622 6.203128 2.208335 5.703125 1.937500 C5.546874 1.854166 5.468750 1.718751 5.468750 1.531250 L5.468750 -0.000000 L25.781250 -0.000000 L25.781250 1.531250 C25.781250 1.718751 25.703126 1.854166 25.546875 1.937500 C25.046872 2.208335 24.796875 2.640622 24.796875 3.234375 C24.796875 3.651044 24.942707 4.005207 25.234375 4.296875 C25.526043 4.588543 25.874998 4.734375 26.281250 4.734375 C26.687502 4.734375 27.036457 4.588543 27.328125 4.296875 C27.619793 4.005207 27.765625 3.651044 27.765625 3.234375 C27.765625 2.640622 27.515628 2.208335 27.015625 1.937500 C26.859374 1.854166 26.781250 1.718751 26.781250 1.531250 L26.781250 -0.000000 L31.250000 -0.000000 L31.250000 32.812500 Z M7.531250 27.968750 L7.531250 26.109375 L10.015625 26.109375 L10.015625 18.796875 L7.921875 18.796875 L7.921875 17.375000 C8.505211 17.260416 9.007810 17.127605 9.429688 16.976562 C9.851565 16.825520 10.244790 16.635418 10.609375 16.406250 L12.312500 16.406250 L12.312500 26.109375 L14.484375 26.109375 L14.484375 27.968750 Z M1.562500 31.250000 L29.687500 31.250000 L29.687500 13.281250 L1.562500 13.281250 Z M18.531250 27.968750 C18.604167 26.624993 18.739582 25.419276 18.937500 24.351562 C19.135418 23.283849 19.447915 22.268234 19.875000 21.304688 C20.302085 20.341141 20.880205 19.348963 21.609375 18.328125 L16.406250 18.328125 L16.406250 16.406250 L24.093750 16.406250 L24.093750 17.796875 C23.197912 18.890630 22.531252 19.924474 22.093750 20.898438 C21.656248 21.872401 21.356772 22.916661 21.195312 24.031250 C21.033853 25.145839 20.921875 26.458326 20.859375 27.968750 Z M8.640625 9.406250 C9.276045 9.406250 9.739582 9.208335 10.031250 8.812500 C10.322918 8.416665 10.468750 7.942711 10.468750 7.390625 L10.468750 3.390625 L9.281250 3.390625 L9.281250 7.296875 C9.281250 7.703127 9.216146 7.986978 9.085938 8.148438 C8.955729 8.309897 8.760418 8.390625 8.500000 8.390625 C8.124998 8.390625 7.828126 8.182294 7.609375 7.765625 L6.796875 8.375000 C7.203127 9.062503 7.817704 9.406250 8.640625 9.406250 Z M13.046875 9.406250 C13.359377 9.406250 13.627603 9.338542 13.851562 9.203125 C14.075522 9.067708 14.286457 8.885418 14.484375 8.656250 L14.515625 8.656250 L14.609375 9.296875 L15.562500 9.296875 L15.562500 4.828125 L14.390625 4.828125 L14.390625 7.843750 C14.098957 8.218752 13.796877 8.406250 13.484375 8.406250 C13.067706 8.406250 12.859375 8.093753 12.859375 7.468750 L12.859375 4.828125 L11.687500 4.828125 L11.687500 7.625000 C11.687500 8.177086 11.794270 8.611978 12.007812 8.929688 C12.221355 9.247397 12.567706 9.406250 13.046875 9.406250 Z M17.937500 9.406250 C18.177085 9.406250 18.380208 9.375000 18.546875 9.312500 L18.406250 8.437500 C18.354166 8.447917 18.302084 8.453125 18.250000 8.453125 C18.083332 8.453125 18.000000 8.333335 18.000000 8.093750 L18.000000 2.921875 L16.843750 2.921875 L16.843750 8.046875 C16.843750 8.463544 16.924478 8.794270 17.085938 9.039062 C17.247397 9.283855 17.531248 9.406250 17.937500 9.406250 Z M19.781250 11.093750 C20.281252 11.093750 20.674478 10.950522 20.960938 10.664062 C21.247397 10.377603 21.479166 9.968753 21.656250 9.437500 L23.250000 4.828125 L22.125000 4.828125 L21.500000 6.906250 C21.427083 7.135418 21.367188 7.343749 21.320312 7.531250 C21.273437 7.718751 21.229167 7.927082 21.187500 8.156250 L21.140625 8.156250 C21.088541 7.927082 21.031250 7.710939 20.968750 7.507812 C20.906250 7.304686 20.838542 7.104168 20.765625 6.906250 L20.062500 4.828125 L18.875000 4.828125 L20.625000 9.218750 L20.546875 9.484375 C20.421874 9.932294 20.140627 10.156250 19.703125 10.156250 C19.578124 10.156250 19.468750 10.140625 19.375000 10.109375 L19.156250 11.000000 C19.333334 11.062500 19.541665 11.093750 19.781250 11.093750 Z M35.937500 27.343750" /></svg>