<svg version="1.1" xmlns="http://www.w3.org/2000/svg" style="fill:rgba(0,0,0,1.0)" width="256" height="256" viewBox="0 0 38.28125 32.8125"><path fill="rgb(255, 255, 255)" d="M2.640625 32.812500 C1.911455 32.812500 1.289065 32.549482 0.773438 32.023438 C0.257810 31.497393 0.000000 30.869795 0.000000 30.140625 L0.000000 8.140625 C0.000000 7.401038 0.257810 6.770836 0.773438 6.250000 C1.289065 5.729164 1.911455 5.468750 2.640625 5.468750 L14.734375 5.468750 L15.390625 7.031250 L2.640625 7.031250 C2.348957 7.031250 2.096355 7.140624 1.882812 7.359375 C1.669270 7.578126 1.562500 7.838540 1.562500 8.140625 L1.562500 13.375000 L17.296875 13.375000 L17.296875 14.937500 L1.562500 14.937500 L1.562500 27.703125 L14.593750 27.703125 L14.593750 29.265625 L1.562500 29.265625 L1.562500 30.140625 C1.562500 30.442710 1.669270 30.703124 1.882812 30.921875 C2.096355 31.140626 2.348957 31.250000 2.640625 31.250000 L33.296875 31.250000 C33.598960 31.250000 33.854166 31.140626 34.062500 30.921875 C34.270834 30.703124 34.375000 30.442710 34.375000 30.140625 L34.375000 29.265625 L26.781250 29.265625 L26.781250 27.703125 L34.375000 27.703125 L34.375000 14.937500 L26.578125 14.937500 L26.578125 13.375000 L34.375000 13.375000 L34.375000 8.140625 C34.375000 7.838540 34.270834 7.578126 34.062500 7.359375 C33.854166 7.140624 33.598960 7.031250 33.296875 7.031250 L30.718750 7.031250 L32.468750 5.468750 L33.296875 5.468750 C34.026045 5.468750 34.648435 5.729164 35.164062 6.250000 C35.679690 6.770836 35.937500 7.401038 35.937500 8.140625 L35.937500 30.140625 C35.937500 30.869795 35.679690 31.497393 35.164062 32.023438 C34.648435 32.549482 34.026045 32.812500 33.296875 32.812500 Z M20.828125 32.093750 C19.473952 32.093750 18.205735 31.838544 17.023438 31.328125 C15.841140 30.817706 14.802088 30.114588 13.906250 29.218750 C13.010412 28.322912 12.307294 27.283860 11.796875 26.101562 C11.286456 24.919265 11.031250 23.651048 11.031250 22.296875 C11.031250 20.869785 11.309893 19.541673 11.867188 18.312500 C12.424482 17.083327 13.190099 16.013025 14.164062 15.101562 C15.138026 14.190100 16.255202 13.510419 17.515625 13.062500 L18.000000 15.484375 C17.114579 15.859377 16.328128 16.385413 15.640625 17.062500 C14.953122 17.739587 14.414064 18.526037 14.023438 19.421875 C13.632811 20.317713 13.437500 21.276037 13.437500 22.296875 C13.437500 23.651048 13.770830 24.885411 14.437500 26.000000 C15.104170 27.114589 15.997390 28.002601 17.117188 28.664062 C18.236985 29.325524 19.473952 29.656250 20.828125 29.656250 C22.192715 29.656250 23.432286 29.325524 24.546875 28.664062 C25.661464 28.002601 26.552080 27.114589 27.218750 26.000000 C27.885420 24.885411 28.218750 23.651048 28.218750 22.296875 C28.218750 21.015619 27.921878 19.841151 27.328125 18.773438 C26.734372 17.705724 25.929693 16.830733 24.914062 16.148438 C23.898432 15.466142 22.765631 15.067709 21.515625 14.953125 L22.656250 13.812500 L27.750000 15.531250 C28.187502 15.968752 28.580727 16.445310 28.929688 16.960938 C29.278648 17.476565 29.580728 18.020830 29.835938 18.593750 C30.091147 19.166670 30.286458 19.763018 30.421875 20.382812 C30.557292 21.002607 30.625000 21.640622 30.625000 22.296875 C30.625000 23.651048 30.372398 24.919265 29.867188 26.101562 C29.361977 27.283860 28.658859 28.322912 27.757812 29.218750 C26.856766 30.114588 25.815110 30.817706 24.632812 31.328125 C23.450515 31.838544 22.182298 32.093750 20.828125 32.093750 Z M20.828125 27.781250 C19.828120 27.781250 18.916671 27.533857 18.093750 27.039062 C17.270829 26.544268 16.611982 25.880212 16.117188 25.046875 C15.622393 24.213538 15.375000 23.296880 15.375000 22.296875 C15.375000 21.244786 15.645831 20.286463 16.187500 19.421875 C16.729169 18.557287 17.437496 17.895836 18.312500 17.437500 L18.968750 18.906250 L19.921875 17.062500 C20.015625 17.010416 20.148437 16.955729 20.320312 16.898438 C20.492188 16.841146 20.656249 16.812500 20.812500 16.812500 C21.843755 16.812500 22.773433 17.044269 23.601562 17.507812 C24.429692 17.971356 25.085935 18.614579 25.570312 19.437500 C26.054690 20.260421 26.296875 21.213536 26.296875 22.296875 C26.296875 23.296880 26.052086 24.213538 25.562500 25.046875 C25.072914 25.880212 24.416671 26.544268 23.593750 27.039062 C22.770829 27.533857 21.848963 27.781250 20.828125 27.781250 Z M3.671875 6.375000 L3.671875 4.656250 C3.671875 3.718745 4.140620 3.250000 5.078125 3.250000 L9.718750 3.250000 C10.656255 3.250000 11.125000 3.718745 11.125000 4.656250 L11.125000 6.375000 Z M18.250000 22.312500 L16.937500 14.203125 L5.640625 14.203125 L15.375000 9.343750 L12.109375 0.109375 L19.984375 6.234375 L24.406250 -0.000000 L24.656250 6.828125 L35.000000 4.171875 L26.265625 11.921875 L28.828125 16.843750 L22.484375 14.875000 Z M19.093750 17.687500 L21.734375 13.031250 L25.718750 14.234375 L24.296875 11.546875 L28.890625 7.531250 L23.140625 9.046875 L23.000000 4.687500 L20.328125 8.421875 L15.437500 4.859375 L17.343750 10.125000 L12.281250 12.640625 L18.281250 12.640625 Z M27.765625 12.125000 C27.494790 12.125000 27.260418 12.028647 27.062500 11.835938 C26.864582 11.643228 26.765625 11.411460 26.765625 11.140625 L26.765625 10.375000 L29.109375 8.281250 L31.234375 8.281250 C31.505210 8.281250 31.739582 8.377603 31.937500 8.570312 C32.135418 8.763022 32.234375 8.994790 32.234375 9.265625 L32.234375 11.140625 C32.234375 11.411460 32.135418 11.643228 31.937500 11.835938 C31.739582 12.028647 31.505210 12.125000 31.234375 12.125000 Z M23.765625 7.031250 L23.765625 5.468750 L31.531250 5.468750 L29.781250 7.031250 Z M38.281250 27.343750" /></svg>