<svg version="1.1" xmlns="http://www.w3.org/2000/svg" style="fill:rgba(0,0,0,1.0)" width="256" height="256" viewBox="0 0 38.15625 32.8125"><path fill="rgb(255, 255, 255)" d="M17.843750 24.765625 C16.312492 24.765625 14.914069 24.388025 13.648438 23.632812 C12.382806 22.877600 11.372400 21.867194 10.617188 20.601562 C9.861975 19.335931 9.484375 17.932299 9.484375 16.390625 C9.484375 14.848951 9.861975 13.447923 10.617188 12.187500 C11.372400 10.927077 12.382806 9.919275 13.648438 9.164062 C14.914069 8.408850 16.312492 8.031250 17.843750 8.031250 C19.385424 8.031250 20.789056 8.408850 22.054688 9.164062 C23.320319 9.919275 24.330725 10.927077 25.085938 12.187500 C25.841150 13.447923 26.218750 14.848951 26.218750 16.390625 C26.218750 17.932299 25.841150 19.335931 25.085938 20.601562 C24.330725 21.867194 23.320319 22.877600 22.054688 23.632812 C20.789056 24.388025 19.385424 24.765625 17.843750 24.765625 Z M8.546875 10.671875 L5.484375 9.078125 L6.046875 7.953125 L9.093750 9.562500 Z M8.640625 12.046875 C9.317712 12.046875 9.932289 11.893231 10.484375 11.585938 C11.036461 11.278644 11.476561 10.861982 11.804688 10.335938 C12.132814 9.809893 12.296875 9.229170 12.296875 8.593750 C12.296875 8.239582 12.255209 7.906252 12.171875 7.593750 C12.088541 7.281248 11.927085 6.927085 11.687500 6.531250 C11.447915 6.135415 11.098961 5.648440 10.640625 5.070312 C10.182289 4.492185 9.572920 3.760421 8.812500 2.875000 C8.541665 3.375003 8.234377 3.765624 7.890625 4.046875 C7.515623 4.359377 7.106773 4.570312 6.664062 4.679688 C6.221352 4.789063 5.804689 4.885416 5.414062 4.968750 C5.023436 5.052084 4.718751 5.223957 4.500000 5.484375 C4.291666 5.734376 4.171875 6.028644 4.140625 6.367188 C4.109375 6.705731 4.080729 7.057290 4.054688 7.421875 C4.028646 7.786460 3.911459 8.145832 3.703125 8.500000 C3.630208 8.625001 3.497397 8.812499 3.304688 9.062500 C3.111978 9.312501 2.895835 9.526041 2.656250 9.703125 C3.177086 9.890626 3.760413 10.171873 4.406250 10.546875 C5.052087 10.921877 5.734371 11.265623 6.453125 11.578125 C7.171879 11.890627 7.901038 12.046875 8.640625 12.046875 Z M12.640625 21.468750 L11.546875 20.375000 C14.880225 17.041650 16.781248 13.177105 17.250000 8.781250 L18.812500 8.937500 C18.312498 13.677107 16.255226 17.854149 12.640625 21.468750 Z M8.546875 13.625000 C7.567703 13.625000 6.570318 13.416669 5.554688 13.000000 C4.539057 12.583331 3.554692 12.117190 2.601562 11.601562 C1.648433 11.085935 0.781254 10.671877 0.000000 10.359375 C0.520836 9.796872 0.994790 9.260419 1.421875 8.750000 C1.848960 8.239581 2.145832 7.807293 2.312500 7.453125 C2.468751 7.140623 2.559896 6.789064 2.585938 6.398438 C2.611979 6.007811 2.661458 5.625002 2.734375 5.250000 C2.807292 4.874998 2.979165 4.557293 3.250000 4.296875 C3.552085 4.015624 3.903644 3.802084 4.304688 3.656250 C4.705731 3.510416 5.106769 3.377605 5.507812 3.257812 C5.908856 3.138020 6.255207 2.979168 6.546875 2.781250 C6.848960 2.583332 7.119790 2.354168 7.359375 2.093750 C7.598960 1.833332 7.833332 1.531252 8.062500 1.187500 C8.291668 0.843748 8.531249 0.447919 8.781250 -0.000000 C9.302086 0.875004 9.856768 1.645830 10.445312 2.312500 C11.033857 2.979170 11.588539 3.611976 12.109375 4.210938 C12.630211 4.809899 13.057290 5.434893 13.390625 6.085938 C13.723960 6.736982 13.890625 7.489579 13.890625 8.343750 C13.890625 9.322922 13.653648 10.210934 13.179688 11.007812 C12.705727 11.804691 12.065108 12.440102 11.257812 12.914062 C10.450517 13.388023 9.546880 13.625000 8.546875 13.625000 Z M26.750000 27.375000 L24.906250 24.468750 L25.953125 23.796875 L27.796875 26.703125 Z M17.843750 22.890625 C19.041673 22.890625 20.132808 22.598961 21.117188 22.015625 C22.101567 21.432289 22.885414 20.648442 23.468750 19.664062 C24.052086 18.679683 24.343750 17.588548 24.343750 16.390625 C24.343750 15.192702 24.052086 14.104172 23.468750 13.125000 C22.885414 12.145828 22.101567 11.364586 21.117188 10.781250 C20.132808 10.197914 19.041673 9.906250 17.843750 9.906250 C16.656244 9.906250 15.570317 10.197914 14.585938 10.781250 C13.601558 11.364586 12.817711 12.145828 12.234375 13.125000 C11.651039 14.104172 11.359375 15.192702 11.359375 16.390625 C11.359375 17.588548 11.651039 18.679683 12.234375 19.664062 C12.817711 20.648442 13.601558 21.432289 14.585938 22.015625 C15.570317 22.598961 16.656244 22.890625 17.843750 22.890625 Z M16.484375 23.953125 L15.453125 22.765625 C16.609381 21.765620 17.627600 20.606777 18.507812 19.289062 C19.388025 17.971348 20.096351 16.562508 20.632812 15.062500 C21.169274 13.562493 21.499999 12.046883 21.625000 10.515625 L23.187500 10.640625 C23.052083 12.296883 22.692711 13.940096 22.109375 15.570312 C21.526039 17.200529 20.755213 18.731764 19.796875 20.164062 C18.838537 21.596361 17.734381 22.859370 16.484375 23.953125 Z M9.734375 9.015625 L7.890625 6.109375 L8.937500 5.437500 L10.781250 8.343750 Z M26.906250 32.812500 C26.395831 31.937496 25.843753 31.166670 25.250000 30.500000 C24.656247 29.833330 24.098961 29.200524 23.578125 28.601562 C23.057289 28.002601 22.630210 27.377607 22.296875 26.726562 C21.963540 26.075518 21.796875 25.322921 21.796875 24.468750 C21.796875 23.489578 22.033852 22.601566 22.507812 21.804688 C22.981773 21.007809 23.624996 20.372398 24.437500 19.898438 C25.250004 19.424477 26.151037 19.187500 27.140625 19.187500 C28.119797 19.187500 29.117182 19.395831 30.132812 19.812500 C31.148443 20.229169 32.132808 20.695310 33.085938 21.210938 C34.039067 21.726565 34.906246 22.140623 35.687500 22.453125 C35.177081 23.015628 34.708335 23.552081 34.281250 24.062500 C33.854165 24.572919 33.552084 25.005207 33.375000 25.359375 C33.229166 25.671877 33.140625 26.023436 33.109375 26.414062 C33.078125 26.804689 33.028646 27.187498 32.960938 27.562500 C32.893229 27.937502 32.718751 28.255207 32.437500 28.515625 C32.135415 28.796876 31.783856 29.010416 31.382812 29.156250 C30.981769 29.302084 30.583335 29.434895 30.187500 29.554688 C29.791665 29.674480 29.442710 29.833332 29.140625 30.031250 C28.848957 30.229168 28.580730 30.458332 28.335938 30.718750 C28.091145 30.979168 27.856772 31.281248 27.632812 31.625000 C27.408853 31.968752 27.166668 32.364581 26.906250 32.812500 Z M26.875000 29.937500 C27.145835 29.437498 27.453123 29.046876 27.796875 28.765625 C28.182294 28.453123 28.596352 28.242188 29.039062 28.132812 C29.481773 28.023437 29.898436 27.927084 30.289062 27.843750 C30.679689 27.760416 30.979166 27.588543 31.187500 27.328125 C31.406251 27.067707 31.531250 26.770835 31.562500 26.437500 C31.593750 26.104165 31.622396 25.755210 31.648438 25.390625 C31.674479 25.026040 31.786457 24.666668 31.984375 24.312500 C32.057292 24.187499 32.190103 24.000001 32.382812 23.750000 C32.575522 23.499999 32.791665 23.286459 33.031250 23.109375 C32.510414 22.921874 31.927087 22.640627 31.281250 22.265625 C30.635413 21.890623 29.955733 21.546877 29.242188 21.234375 C28.528642 20.921873 27.796879 20.765625 27.046875 20.765625 C26.369788 20.765625 25.755211 20.919269 25.203125 21.226562 C24.651039 21.533856 24.210939 21.947914 23.882812 22.468750 C23.554686 22.989586 23.390625 23.572913 23.390625 24.218750 C23.390625 24.572918 23.432291 24.906248 23.515625 25.218750 C23.598959 25.531252 23.760415 25.885415 24.000000 26.281250 C24.239585 26.677085 24.588539 27.164060 25.046875 27.742188 C25.505211 28.320315 26.114580 29.052079 26.875000 29.937500 Z M29.640625 24.859375 L26.593750 23.250000 L27.140625 22.140625 L30.203125 23.734375 Z M38.156250 27.343750" /></svg>