<svg version="1.1" xmlns="http://www.w3.org/2000/svg" style="fill:rgba(0,0,0,1.0)" width="256" height="256" viewBox="0 0 30.375 32.8125"><path fill="rgb(255, 255, 255)" d="M10.062500 32.812500 C8.239574 32.812500 6.565112 32.611981 5.039062 32.210938 C3.513013 31.809894 2.291671 31.268233 1.375000 30.585938 C0.458329 29.903642 0.000000 29.151046 0.000000 28.328125 L0.000000 4.328125 C0.000000 3.505204 0.453120 2.768232 1.359375 2.117188 C2.265630 1.466143 3.479159 0.950523 5.000000 0.570312 C6.520841 0.190102 8.208324 -0.000000 10.062500 -0.000000 C11.916676 -0.000000 13.604159 0.190102 15.125000 0.570312 C16.645841 0.950523 17.859370 1.466143 18.765625 2.117188 C19.671880 2.768232 20.125000 3.505204 20.125000 4.328125 L20.125000 28.328125 C20.125000 29.151046 19.666671 29.903642 18.750000 30.585938 C17.833329 31.268233 16.614591 31.809894 15.093750 32.210938 C13.572909 32.611981 11.895842 32.812500 10.062500 32.812500 Z M10.062500 26.312500 C10.791670 26.312500 11.453122 26.135418 12.046875 25.781250 C12.640628 25.427082 13.114582 24.950524 13.468750 24.351562 C13.822918 23.752601 14.000000 23.093754 14.000000 22.375000 C14.000000 21.656246 13.822918 21.000003 13.468750 20.406250 C13.114582 19.812497 12.640628 19.338543 12.046875 18.984375 C11.453122 18.630207 10.791670 18.453125 10.062500 18.453125 C9.343746 18.453125 8.684899 18.630207 8.085938 18.984375 C7.486976 19.338543 7.010418 19.812497 6.656250 20.406250 C6.302082 21.000003 6.125000 21.656246 6.125000 22.375000 C6.125000 23.093754 6.302082 23.752601 6.656250 24.351562 C7.010418 24.950524 7.486976 25.427082 8.085938 25.781250 C8.684899 26.135418 9.343746 26.312500 10.062500 26.312500 Z M10.062500 28.640625 C9.239579 28.640625 8.432296 28.588542 7.640625 28.484375 C6.848954 28.380208 6.114587 28.223959 5.437500 28.015625 C4.760413 27.807291 4.177086 27.546877 3.687500 27.234375 L3.687500 12.578125 C4.520838 12.776043 5.497390 12.921875 6.617188 13.015625 C7.736985 13.109375 8.885411 13.156250 10.062500 13.156250 C11.239589 13.156250 12.388015 13.109375 13.507812 13.015625 C14.627610 12.921875 15.604162 12.776043 16.437500 12.578125 L16.437500 27.234375 C15.958331 27.546877 15.377608 27.807291 14.695312 28.015625 C14.013017 28.223959 13.276046 28.380208 12.484375 28.484375 C11.692704 28.588542 10.885421 28.640625 10.062500 28.640625 Z M10.062500 31.093750 C11.093755 31.093750 12.096349 31.005209 13.070312 30.828125 C14.044276 30.651041 14.921871 30.421876 15.703125 30.140625 C16.484379 29.859374 17.104164 29.557293 17.562500 29.234375 C18.020836 28.911457 18.250000 28.609376 18.250000 28.328125 L18.250000 6.812500 C17.364579 7.354169 16.218757 7.799477 14.812500 8.148438 C13.406243 8.497398 11.822925 8.671875 10.062500 8.671875 C8.302075 8.671875 6.718757 8.497398 5.312500 8.148438 C3.906243 7.799477 2.760421 7.354169 1.875000 6.812500 L1.875000 28.328125 C1.875000 28.609376 2.104164 28.911457 2.562500 29.234375 C3.020836 29.557293 3.640621 29.859374 4.421875 30.140625 C5.203129 30.421876 6.080724 30.651041 7.054688 30.828125 C8.028651 31.005209 9.031245 31.093750 10.062500 31.093750 Z M10.062500 17.250000 C10.770837 17.250000 11.468747 17.226563 12.156250 17.179688 C12.843753 17.132812 13.458331 17.062500 14.000000 16.968750 L14.000000 15.109375 C13.458331 15.203125 12.843753 15.273437 12.156250 15.320312 C11.468747 15.367188 10.770837 15.390625 10.062500 15.390625 C9.354163 15.390625 8.656253 15.367188 7.968750 15.320312 C7.281247 15.273437 6.666669 15.203125 6.125000 15.109375 L6.125000 16.968750 C6.666669 17.062500 7.281247 17.132812 7.968750 17.179688 C8.656253 17.226563 9.354163 17.250000 10.062500 17.250000 Z M10.062500 6.953125 C11.604174 6.953125 12.992181 6.809897 14.226562 6.523438 C15.460944 6.236978 16.440101 5.890627 17.164062 5.484375 C17.888024 5.078123 18.250000 4.692710 18.250000 4.328125 C18.250000 4.057290 18.041669 3.770835 17.625000 3.468750 C17.208331 3.166665 16.627608 2.882814 15.882812 2.617188 C15.138017 2.351561 14.268234 2.135417 13.273438 1.968750 C12.278641 1.802083 11.208339 1.718750 10.062500 1.718750 C8.916661 1.718750 7.846359 1.802083 6.851562 1.968750 C5.856766 2.135417 4.986983 2.351561 4.242188 2.617188 C3.497392 2.882814 2.916669 3.166665 2.500000 3.468750 C2.083331 3.770835 1.875000 4.057290 1.875000 4.328125 C1.875000 4.692710 2.236976 5.078123 2.960938 5.484375 C3.684899 5.890627 4.664056 6.236978 5.898438 6.523438 C7.132819 6.809897 8.520826 6.953125 10.062500 6.953125 Z M30.375000 27.343750" /></svg>