<svg version="1.1" xmlns="http://www.w3.org/2000/svg" style="fill:rgba(0,0,0,1.0)" width="256" height="256" viewBox="0 0 36.71875 32.8125"><path fill="rgb(255, 255, 255)" d="M16.406250 32.812500 C14.593741 32.812500 12.867196 32.536461 11.226562 31.984375 C9.585929 31.432289 8.083340 30.656255 6.718750 29.656250 C5.354160 28.656245 4.169276 27.473965 3.164062 26.109375 C2.158849 24.744785 1.380211 23.242196 0.828125 21.601562 C0.276039 19.960929 0.000000 18.234384 0.000000 16.421875 C0.000000 14.609366 0.276039 12.882821 0.828125 11.242188 C1.380211 9.601554 2.158849 8.096361 3.164062 6.726562 C4.169276 5.356764 5.354160 4.169276 6.718750 3.164062 C8.083340 2.158849 9.585929 1.380211 11.226562 0.828125 C12.867196 0.276039 14.593741 -0.000000 16.406250 -0.000000 C18.218759 -0.000000 19.945304 0.276039 21.585938 0.828125 C23.226571 1.380211 24.729160 2.158849 26.093750 3.164062 C27.458340 4.169276 28.643224 5.356764 29.648438 6.726562 C30.653651 8.096361 31.432289 9.601554 31.984375 11.242188 C32.536461 12.882821 32.812500 14.609366 32.812500 16.421875 C32.812500 18.234384 32.536461 19.960929 31.984375 21.601562 C31.432289 23.242196 30.653651 24.744785 29.648438 26.109375 C28.643224 27.473965 27.458340 28.656245 26.093750 29.656250 C24.729160 30.656255 23.226571 31.432289 21.585938 31.984375 C19.945304 32.536461 18.218759 32.812500 16.406250 32.812500 Z M15.781250 28.140625 C16.979173 28.140625 17.992183 27.841149 18.820312 27.242188 C19.648442 26.643226 20.244790 25.760422 20.609375 24.593750 C21.317712 24.739584 22.052080 24.812500 22.812500 24.812500 C23.885422 24.812500 24.833329 24.588544 25.656250 24.140625 C26.479171 23.692706 27.127602 23.078129 27.601562 22.296875 C28.075523 21.515621 28.312500 20.625005 28.312500 19.625000 C28.312500 18.677079 28.109377 17.825525 27.703125 17.070312 C27.296873 16.315100 26.742191 15.718752 26.039062 15.281250 C25.335934 14.843748 24.536463 14.625000 23.640625 14.625000 C22.692704 14.625000 21.846358 14.867185 21.101562 15.351562 C20.356767 15.835940 19.757815 16.531245 19.304688 17.437500 C18.851560 18.343755 18.593750 19.432285 18.531250 20.703125 C17.781246 19.838537 17.406250 18.682299 17.406250 17.234375 L17.406250 11.796875 C17.406250 10.276034 17.028650 9.046880 16.273438 8.109375 C15.518225 7.171870 14.427090 6.703125 13.000000 6.703125 C12.239580 6.703125 11.575524 6.859373 11.007812 7.171875 C10.440101 7.484377 9.963544 7.921872 9.578125 8.484375 C9.369791 8.182290 9.130210 7.898439 8.859375 7.632812 C8.588540 7.367186 8.296877 7.119793 7.984375 6.890625 L6.515625 8.890625 C7.713548 9.786463 8.312500 11.026034 8.312500 12.609375 L8.312500 22.250000 L10.812500 22.250000 L10.812500 11.796875 C10.812500 10.963538 10.994790 10.322919 11.359375 9.875000 C11.723960 9.427081 12.223955 9.203125 12.859375 9.203125 C13.505212 9.203125 14.007811 9.427081 14.367188 9.875000 C14.726564 10.322919 14.906250 10.963538 14.906250 11.796875 L14.906250 17.234375 C14.906250 18.703132 15.197914 19.986974 15.781250 21.085938 C16.364586 22.184901 17.187495 23.046872 18.250000 23.671875 C18.052082 24.338545 17.755210 24.846352 17.359375 25.195312 C16.963540 25.544273 16.479170 25.718750 15.906250 25.718750 C15.624999 25.718750 15.330731 25.661459 15.023438 25.546875 C14.716144 25.432291 14.447918 25.276043 14.218750 25.078125 L12.578125 26.859375 C12.953127 27.276044 13.447914 27.593749 14.062500 27.812500 C14.677086 28.031251 15.249997 28.140625 15.781250 28.140625 Z M22.812500 22.312500 C22.166663 22.312500 21.567711 22.250001 21.015625 22.125000 C21.015625 21.031245 21.104166 20.111983 21.281250 19.367188 C21.458334 18.622392 21.742186 18.062502 22.132812 17.687500 C22.523439 17.312498 23.026039 17.125000 23.640625 17.125000 C24.276045 17.125000 24.796873 17.356769 25.203125 17.820312 C25.609377 18.283856 25.812500 18.885413 25.812500 19.625000 C25.812500 20.427087 25.541669 21.075518 25.000000 21.570312 C24.458331 22.065107 23.729171 22.312500 22.812500 22.312500 Z M36.718750 27.343750" /></svg>