<svg version="1.1" xmlns="http://www.w3.org/2000/svg" style="fill:rgba(0,0,0,1.0)" width="256" height="256" viewBox="0 0 38.828125 32.8125"><path fill="rgb(255, 255, 255)" d="M8.406250 30.609375 L8.406250 27.859375 L5.593750 27.859375 L6.953125 25.109375 L4.968750 25.109375 L6.093750 23.000000 L2.281250 23.000000 L7.687500 15.531250 L7.687500 -0.000000 L29.343750 -0.000000 L29.343750 15.531250 L34.750000 23.000000 L30.937500 23.000000 L32.062500 25.109375 L30.078125 25.109375 L31.437500 27.859375 L28.625000 27.859375 L28.625000 30.609375 Z M3.015625 32.812500 C2.192704 32.812500 1.484378 32.328130 0.890625 31.359375 C0.296872 30.390620 0.000000 29.041675 0.000000 27.312500 C0.000000 26.541663 0.111978 25.804691 0.335938 25.101562 C0.559897 24.398434 0.890623 23.713545 1.328125 23.046875 L4.531250 18.171875 L6.078125 19.828125 L3.453125 24.093750 C3.151040 24.583336 2.921876 25.062498 2.765625 25.531250 C2.609374 26.000002 2.531250 26.510414 2.531250 27.062500 C2.531250 27.760420 2.575520 28.351560 2.664062 28.835938 C2.752605 29.320315 2.877603 29.690103 3.039062 29.945312 C3.200522 30.200522 3.385416 30.328125 3.593750 30.328125 C3.770834 30.328125 3.955728 30.281250 4.148438 30.187500 C4.341147 30.093750 4.572915 29.942709 4.843750 29.734375 L8.890625 26.531250 L9.859375 28.406250 L5.500000 31.921875 C5.208332 32.161460 4.867189 32.369791 4.476562 32.546875 C4.085936 32.723959 3.598961 32.812500 3.015625 32.812500 Z M9.968750 29.046875 L27.062500 29.046875 L27.062500 27.859375 L9.968750 27.859375 Z M6.078125 19.703125 C5.098953 19.494791 4.341149 18.979171 3.804688 18.156250 C3.268226 17.333329 3.000000 16.276048 3.000000 14.984375 C3.000000 13.494784 3.341142 12.325525 4.023438 11.476562 C4.705733 10.627600 5.656244 10.203125 6.875000 10.203125 C7.656254 10.203125 8.421871 10.343749 9.171875 10.625000 L9.171875 12.312500 C8.401038 12.770836 8.015625 13.661452 8.015625 14.984375 C8.015625 15.630212 8.119791 16.213539 8.328125 16.734375 L6.859375 17.296875 C6.588540 16.567705 6.453125 15.796879 6.453125 14.984375 C6.453125 14.432289 6.510416 13.924481 6.625000 13.460938 C6.739584 12.997394 6.911457 12.580731 7.140625 12.210938 C7.369793 11.841144 7.651040 11.526043 7.984375 11.265625 L7.687500 11.828125 C7.562499 11.807292 7.432292 11.791667 7.296875 11.781250 C7.161458 11.770833 7.020834 11.765625 6.875000 11.765625 C6.124996 11.765625 5.552085 12.033851 5.156250 12.570312 C4.760415 13.106774 4.562500 13.911453 4.562500 14.984375 C4.562500 16.869801 5.171869 17.932290 6.390625 18.171875 Z M8.093750 26.296875 L28.937500 26.296875 L28.343750 25.109375 L8.687500 25.109375 Z M7.484375 23.734375 L29.546875 23.734375 L29.140625 23.000000 L7.875000 23.000000 Z M13.640625 17.765625 C13.411457 17.765625 13.213542 17.679688 13.046875 17.507812 C12.880208 17.335937 12.796875 17.130210 12.796875 16.890625 L12.796875 14.078125 C12.796875 13.838540 12.880208 13.635417 13.046875 13.468750 C13.213542 13.302083 13.411457 13.218750 13.640625 13.218750 C13.880210 13.218750 14.085937 13.302083 14.257812 13.468750 C14.429688 13.635417 14.515625 13.838540 14.515625 14.078125 L14.515625 16.890625 C14.515625 17.130210 14.429688 17.335937 14.257812 17.507812 C14.085937 17.679688 13.880210 17.765625 13.640625 17.765625 Z M5.281250 21.750000 L31.750000 21.750000 L27.937500 16.265625 L9.093750 16.265625 Z M34.015625 32.812500 C33.442705 32.812500 32.960939 32.723959 32.570312 32.546875 C32.179686 32.369791 31.833335 32.161460 31.531250 31.921875 L27.171875 28.406250 L28.140625 26.531250 L32.187500 29.734375 C32.458335 29.942709 32.690103 30.093750 32.882812 30.187500 C33.075522 30.281250 33.260416 30.328125 33.437500 30.328125 C33.656251 30.328125 33.843749 30.200522 34.000000 29.945312 C34.156251 29.690103 34.278645 29.320315 34.367188 28.835938 C34.455730 28.351560 34.500000 27.760420 34.500000 27.062500 C34.500000 26.510414 34.421876 26.000002 34.265625 25.531250 C34.109374 25.062498 33.880210 24.583336 33.578125 24.093750 L30.953125 19.828125 L32.500000 18.171875 L35.703125 23.046875 C36.140627 23.713545 36.471353 24.398434 36.695312 25.101562 C36.919272 25.804691 37.031250 26.541663 37.031250 27.312500 C37.031250 29.041675 36.734378 30.390620 36.140625 31.359375 C35.546872 32.328130 34.838546 32.812500 34.015625 32.812500 Z M11.359375 10.000000 L11.359375 3.750000 L16.453125 3.750000 L16.453125 10.000000 Z M23.390625 17.765625 C23.151040 17.765625 22.945313 17.679688 22.773438 17.507812 C22.601562 17.335937 22.515625 17.130210 22.515625 16.890625 L22.515625 14.078125 C22.515625 13.838540 22.601562 13.635417 22.773438 13.468750 C22.945313 13.302083 23.151040 13.218750 23.390625 13.218750 C23.630210 13.218750 23.830728 13.302083 23.992188 13.468750 C24.153647 13.635417 24.234375 13.838540 24.234375 14.078125 L24.234375 16.890625 C24.234375 17.130210 24.153647 17.335937 23.992188 17.507812 C23.830728 17.679688 23.630210 17.765625 23.390625 17.765625 Z M18.484375 11.562500 L18.484375 10.000000 L22.265625 10.000000 L22.265625 11.562500 Z M9.250000 14.703125 L27.781250 14.703125 L27.781250 1.562500 L9.250000 1.562500 Z M18.484375 8.437500 L18.484375 6.875000 L23.828125 6.875000 L23.828125 8.437500 Z M30.953125 19.703125 L30.640625 18.171875 C31.859381 17.932290 32.468750 16.869801 32.468750 14.984375 C32.468750 13.911453 32.270835 13.106774 31.875000 12.570312 C31.479165 12.033851 30.906254 11.765625 30.156250 11.765625 C30.010416 11.765625 29.869792 11.770833 29.734375 11.781250 C29.598958 11.791667 29.468751 11.807292 29.343750 11.828125 L29.046875 11.265625 C29.380210 11.526043 29.661457 11.841144 29.890625 12.210938 C30.119793 12.580731 30.291666 12.997394 30.406250 13.460938 C30.520834 13.924481 30.578125 14.432289 30.578125 14.984375 C30.578125 15.796879 30.442710 16.567705 30.171875 17.296875 L28.703125 16.734375 C28.911459 16.213539 29.015625 15.630212 29.015625 14.984375 C29.015625 13.661452 28.630212 12.770836 27.859375 12.312500 L27.859375 10.625000 C28.609379 10.343749 29.374996 10.203125 30.156250 10.203125 C31.375006 10.203125 32.325517 10.627600 33.007812 11.476562 C33.690108 12.325525 34.031250 13.494784 34.031250 14.984375 C34.031250 16.276048 33.765628 17.333329 33.234375 18.156250 C32.703122 18.979171 31.942713 19.494791 30.953125 19.703125 Z M18.484375 5.312500 L18.484375 3.750000 L25.390625 3.750000 L25.390625 5.312500 Z M38.828125 27.343750" /></svg>