<svg version="1.1" xmlns="http://www.w3.org/2000/svg" style="fill:rgba(0,0,0,1.0)" width="256" height="256" viewBox="0 0 36.875 32.8125"><path fill="rgb(255, 255, 255)" d="M0.000000 32.812500 L0.000000 13.671875 L1.546875 10.343750 L2.078125 13.765625 L31.046875 13.765625 L31.578125 10.343750 L33.125000 13.671875 L33.125000 32.812500 Z M1.875000 31.093750 L31.250000 31.093750 L31.250000 15.484375 L1.875000 15.484375 Z M11.906250 25.781250 L11.906250 19.921875 L21.218750 19.921875 L21.218750 25.781250 Z M13.468750 24.234375 L19.656250 24.234375 L19.656250 21.484375 L13.468750 21.484375 Z M27.531250 5.796875 L27.531250 3.765625 L4.343750 3.765625 L4.343750 5.796875 L2.796875 5.796875 L2.796875 2.515625 L22.687500 2.515625 L22.859375 1.078125 C22.901042 0.744790 23.033853 0.481772 23.257812 0.289062 C23.481772 0.096353 23.755207 -0.000000 24.078125 -0.000000 L27.796875 -0.000000 C28.161460 -0.000000 28.466145 0.122395 28.710938 0.367188 C28.955730 0.611980 29.078125 0.916665 29.078125 1.281250 L29.078125 5.796875 Z M4.109375 6.734375 L4.109375 5.171875 L12.046875 5.171875 L12.343750 2.671875 C12.385417 2.338540 12.518228 2.072918 12.742188 1.875000 C12.966147 1.677082 13.239582 1.578125 13.562500 1.578125 L19.093750 1.578125 C19.416668 1.578125 19.690103 1.677082 19.914062 1.875000 C20.138022 2.072918 20.270833 2.338540 20.312500 2.671875 L20.609375 5.171875 L30.328125 5.171875 L30.328125 9.859375 L28.781250 9.859375 L28.781250 6.734375 Z M30.031250 14.234375 L30.031250 10.640625 L3.093750 10.640625 L3.093750 14.234375 L1.546875 14.234375 L1.546875 6.453125 C1.546875 6.088540 1.669270 5.783855 1.914062 5.539062 C2.158855 5.294270 2.463540 5.171875 2.828125 5.171875 L9.671875 5.171875 L10.140625 9.078125 L31.578125 9.078125 L31.578125 14.234375 Z M36.875000 27.343750" /></svg>