<svg version="1.1" xmlns="http://www.w3.org/2000/svg" style="fill:rgba(0,0,0,1.0)" width="256" height="256" viewBox="0 0 38.28125 31.25"><path fill="rgb(255, 255, 255)" d="M3.421875 21.234375 C3.182290 20.192703 3.062500 19.109381 3.062500 17.984375 C3.062500 16.463534 3.276040 15.036465 3.703125 13.703125 C3.296873 12.453119 2.994793 11.255214 2.796875 10.109375 C2.598957 8.963536 2.500000 7.812506 2.500000 6.656250 C2.500000 4.604156 2.804684 2.981777 3.414062 1.789062 C4.023441 0.596348 4.880203 -0.000000 5.984375 -0.000000 C6.619795 -0.000000 7.315100 0.226560 8.070312 0.679688 C8.825525 1.132815 9.604163 1.757809 10.406250 2.554688 C11.208337 3.351566 11.994788 4.276036 12.765625 5.328125 C13.557296 5.109374 14.385412 4.940105 15.250000 4.820312 C16.114588 4.700520 17.020829 4.640625 17.968750 4.640625 C18.916671 4.640625 19.822912 4.700520 20.687500 4.820312 C21.552088 4.940105 22.380204 5.109374 23.171875 5.328125 C23.942712 4.276036 24.729163 3.351566 25.531250 2.554688 C26.333337 1.757809 27.114580 1.132815 27.875000 0.679688 C28.635420 0.226560 29.328122 -0.000000 29.953125 -0.000000 C31.067714 -0.000000 31.927080 0.596348 32.531250 1.789062 C33.135420 2.981777 33.437500 4.604156 33.437500 6.656250 C33.437500 7.812506 33.338543 8.966140 33.140625 10.117188 C32.942707 11.268235 32.640627 12.463535 32.234375 13.703125 C32.661460 15.046882 32.875000 16.473951 32.875000 17.984375 C32.875000 19.109381 32.755210 20.197911 32.515625 21.250000 L30.828125 20.109375 C30.942709 19.390621 31.000000 18.682295 31.000000 17.984375 C31.000000 16.484367 30.760419 15.088548 30.281250 13.796875 C30.677085 12.588536 30.966145 11.557296 31.148438 10.703125 C31.330730 9.848954 31.445312 9.098962 31.492188 8.453125 C31.539063 7.807288 31.562500 7.208336 31.562500 6.656250 C31.562500 5.177076 31.403647 3.984380 31.085938 3.078125 C30.768228 2.171870 30.390627 1.718750 29.953125 1.718750 C29.557290 1.718750 29.046878 1.942706 28.421875 2.390625 C27.796872 2.838544 27.093754 3.486975 26.312500 4.335938 C25.531246 5.184900 24.713546 6.203119 23.859375 7.390625 C23.005204 7.057290 22.080734 6.802084 21.085938 6.625000 C20.091141 6.447916 19.052089 6.359375 17.968750 6.359375 C16.874995 6.359375 15.835942 6.447916 14.851562 6.625000 C13.867183 6.802084 12.942713 7.057290 12.078125 7.390625 C11.223954 6.203119 10.406254 5.184900 9.625000 4.335938 C8.843746 3.486975 8.140628 2.838544 7.515625 2.390625 C6.890622 1.942706 6.380210 1.718750 5.984375 1.718750 C5.546873 1.718750 5.169272 2.171870 4.851562 3.078125 C4.533853 3.984380 4.375000 5.177076 4.375000 6.656250 C4.375000 7.208336 4.398437 7.807288 4.445312 8.453125 C4.492188 9.098962 4.606770 9.848954 4.789062 10.703125 C4.971355 11.557296 5.260415 12.588536 5.656250 13.796875 C5.177081 15.088548 4.937500 16.484367 4.937500 17.984375 C4.937500 18.671878 4.994791 19.369788 5.109375 20.078125 Z M4.718750 25.593750 C5.416670 25.593750 5.950519 25.346357 6.320312 24.851562 C6.690106 24.356768 7.020832 23.442715 7.312500 22.109375 C7.395834 21.723956 7.486979 21.333335 7.585938 20.937500 C7.684896 20.541665 7.802083 20.151044 7.937500 19.765625 C6.374992 19.963543 5.127609 20.416663 4.195312 21.125000 C3.263016 21.833337 2.796875 22.682287 2.796875 23.671875 C2.796875 24.276045 2.966144 24.747394 3.304688 25.085938 C3.643231 25.424481 4.114580 25.593750 4.718750 25.593750 Z M4.718750 27.000000 C3.708328 27.000000 2.901045 26.697920 2.296875 26.093750 C1.692705 25.489580 1.390625 24.682297 1.390625 23.671875 C1.390625 22.036450 2.132805 20.747401 3.617188 19.804688 C5.101570 18.861974 7.223945 18.348959 9.984375 18.265625 C9.598956 19.203130 9.317709 19.984372 9.140625 20.609375 C8.963541 21.234378 8.812501 21.838539 8.687500 22.421875 C8.541666 23.109378 8.338543 23.807288 8.078125 24.515625 C7.817707 25.223962 7.424482 25.815102 6.898438 26.289062 C6.372393 26.763023 5.645838 27.000000 4.718750 27.000000 Z M3.234375 20.015625 L0.000000 19.515625 L0.250000 17.828125 L3.718750 18.359375 Z M6.031250 18.296875 L0.265625 15.593750 L0.984375 14.031250 L6.750000 16.734375 Z M12.187500 25.734375 L12.187500 22.187500 L13.125000 22.187500 L13.125000 25.734375 Z M17.968750 31.250000 C15.302070 31.250000 12.921885 30.791671 10.828125 29.875000 C8.734365 28.958329 7.036465 27.682300 5.734375 26.046875 L7.062500 24.750000 C8.177089 26.250008 9.666657 27.421871 11.531250 28.265625 C13.395843 29.109379 15.541655 29.531250 17.968750 29.531250 C20.395845 29.531250 22.544261 29.109379 24.414062 28.265625 C26.283864 27.421871 27.770828 26.255216 28.875000 24.765625 L30.203125 26.062500 C28.911452 27.697925 27.216156 28.971350 25.117188 29.882812 C23.018219 30.794275 20.635430 31.250000 17.968750 31.250000 Z M14.843750 26.671875 L14.843750 22.343750 L15.781250 22.343750 L15.781250 26.671875 Z M17.968750 26.203125 C19.125006 26.203125 20.195308 26.052085 21.179688 25.750000 C22.164067 25.447915 22.955726 25.057294 23.554688 24.578125 C24.153649 24.098956 24.453125 23.588544 24.453125 23.046875 C24.453125 22.921874 24.408855 22.817709 24.320312 22.734375 C24.231770 22.651041 24.109376 22.609375 23.953125 22.609375 C23.848958 22.609375 23.723959 22.627604 23.578125 22.664062 C23.432291 22.700521 23.203127 22.776041 22.890625 22.890625 C22.588540 22.994792 22.236981 23.104166 21.835938 23.218750 C21.434894 23.333334 21.000002 23.390625 20.531250 23.390625 C19.947914 23.390625 19.427086 23.247397 18.968750 22.960938 C18.510414 22.674478 18.177084 22.307294 17.968750 21.859375 C17.760416 22.307294 17.427086 22.674478 16.968750 22.960938 C16.510414 23.247397 15.989586 23.390625 15.406250 23.390625 C14.937498 23.390625 14.502606 23.333334 14.101562 23.218750 C13.700519 23.104166 13.348960 22.994792 13.046875 22.890625 C12.734373 22.776041 12.505209 22.700521 12.359375 22.664062 C12.213541 22.627604 12.088542 22.609375 11.984375 22.609375 C11.828124 22.609375 11.705730 22.651041 11.617188 22.734375 C11.528645 22.817709 11.484375 22.921874 11.484375 23.046875 C11.484375 23.588544 11.783851 24.098956 12.382812 24.578125 C12.981774 25.057294 13.773433 25.447915 14.757812 25.750000 C15.742192 26.052085 16.812494 26.203125 17.968750 26.203125 Z M17.968750 27.609375 C16.541660 27.609375 15.229173 27.406252 14.031250 27.000000 C12.833327 26.593748 11.875004 26.044274 11.156250 25.351562 C10.437496 24.658851 10.078125 23.890629 10.078125 23.046875 C10.078125 22.526039 10.260415 22.088543 10.625000 21.734375 C10.989585 21.380207 11.442706 21.203125 11.984375 21.203125 C12.244793 21.203125 12.505207 21.242187 12.765625 21.320312 C13.026043 21.398438 13.276040 21.479166 13.515625 21.562500 C13.817710 21.666667 14.122394 21.763020 14.429688 21.851562 C14.736981 21.940105 15.062498 21.984375 15.406250 21.984375 C15.812502 21.984375 16.145832 21.869793 16.406250 21.640625 C16.666668 21.411457 16.796875 21.130210 16.796875 20.796875 L16.796875 19.250000 L19.140625 19.250000 L19.140625 20.796875 C19.140625 21.130210 19.270832 21.411457 19.531250 21.640625 C19.791668 21.869793 20.124998 21.984375 20.531250 21.984375 C20.875002 21.984375 21.200519 21.940105 21.507812 21.851562 C21.815106 21.763020 22.119790 21.666667 22.421875 21.562500 C22.661460 21.479166 22.911457 21.398438 23.171875 21.320312 C23.432293 21.242187 23.692707 21.203125 23.953125 21.203125 C24.494794 21.203125 24.947915 21.380207 25.312500 21.734375 C25.677085 22.088543 25.859375 22.526039 25.859375 23.046875 C25.859375 23.890629 25.500004 24.658851 24.781250 25.351562 C24.062496 26.044274 23.106777 26.593748 21.914062 27.000000 C20.721348 27.406252 19.406257 27.609375 17.968750 27.609375 Z M17.500000 26.671875 L17.500000 20.109375 L18.437500 20.109375 L18.437500 26.671875 Z M20.156250 26.671875 L20.156250 22.343750 L21.093750 22.343750 L21.093750 26.671875 Z M17.968750 20.609375 C17.510414 20.609375 17.067710 20.427085 16.640625 20.062500 C16.213540 19.697915 16.000000 19.338543 16.000000 18.984375 C16.000000 18.682290 16.177082 18.445313 16.531250 18.273438 C16.885418 18.101562 17.364580 18.015625 17.968750 18.015625 C18.583336 18.015625 19.065102 18.101562 19.414062 18.273438 C19.763023 18.445313 19.937500 18.682290 19.937500 18.984375 C19.937500 19.338543 19.723960 19.697915 19.296875 20.062500 C18.869790 20.427085 18.427086 20.609375 17.968750 20.609375 Z M22.812500 25.734375 L22.812500 22.187500 L23.750000 22.187500 L23.750000 25.734375 Z M6.796875 11.609375 C6.526040 10.901038 6.320313 10.062505 6.179688 9.093750 C6.039062 8.124995 5.968750 7.218754 5.968750 6.375000 C5.968750 5.645830 6.020833 5.039065 6.125000 4.554688 C6.229167 4.070310 6.385416 3.828125 6.593750 3.828125 C6.781251 3.828125 7.093748 4.026040 7.531250 4.421875 C7.968752 4.817710 8.460935 5.338538 9.007812 5.984375 C9.554690 6.630212 10.093747 7.328121 10.625000 8.078125 C9.979163 8.432293 9.307295 8.947913 8.609375 9.625000 C7.911455 10.302087 7.307294 10.963538 6.796875 11.609375 Z M15.953125 11.265625 C15.567706 11.265625 15.132815 10.942712 14.648438 10.296875 C14.164060 9.651038 13.661461 8.432301 13.140625 6.640625 L17.359375 6.000000 C17.380208 6.260418 17.395833 6.515624 17.406250 6.765625 C17.416667 7.015626 17.421875 7.260415 17.421875 7.500000 C17.421875 8.666672 17.291668 9.585934 17.031250 10.257812 C16.770832 10.929691 16.411461 11.265625 15.953125 11.265625 Z M31.218750 27.000000 C30.291662 27.000000 29.567711 26.763023 29.046875 26.289062 C28.526039 25.815102 28.132814 25.223962 27.867188 24.515625 C27.601561 23.807288 27.395834 23.109378 27.250000 22.421875 C27.124999 21.838539 26.976563 21.234378 26.804688 20.609375 C26.632812 19.984372 26.348960 19.203130 25.953125 18.265625 C28.723972 18.348959 30.848951 18.861974 32.328125 19.804688 C33.807299 20.747401 34.546875 22.036450 34.546875 23.671875 C34.546875 24.671880 34.242191 25.476559 33.632812 26.085938 C33.023434 26.695316 32.218755 27.000000 31.218750 27.000000 Z M31.218750 25.593750 C31.833336 25.593750 32.307290 25.424481 32.640625 25.085938 C32.973960 24.747394 33.140625 24.276045 33.140625 23.671875 C33.140625 22.682287 32.674484 21.833337 31.742188 21.125000 C30.809891 20.416663 29.562508 19.963543 28.000000 19.765625 C28.135417 20.151044 28.252604 20.541665 28.351562 20.937500 C28.450521 21.333335 28.541666 21.723956 28.625000 22.109375 C28.927085 23.442715 29.260415 24.356768 29.625000 24.851562 C29.989585 25.346357 30.520830 25.593750 31.218750 25.593750 Z M19.984375 11.265625 C19.526039 11.265625 19.166668 10.929691 18.906250 10.257812 C18.645832 9.585934 18.515625 8.666672 18.515625 7.500000 C18.515625 7.260415 18.520833 7.015626 18.531250 6.765625 C18.541667 6.515624 18.557292 6.260418 18.578125 6.000000 L22.796875 6.640625 C22.276039 8.432301 21.776044 9.651038 21.296875 10.296875 C20.817706 10.942712 20.380210 11.265625 19.984375 11.265625 Z M29.906250 18.296875 L29.187500 16.734375 L34.953125 14.031250 L35.671875 15.593750 Z M29.140625 11.609375 C28.630206 10.963538 28.026045 10.302087 27.328125 9.625000 C26.630205 8.947913 25.958337 8.432293 25.312500 8.078125 C25.843753 7.328121 26.385414 6.630212 26.937500 5.984375 C27.489586 5.338538 27.981769 4.817710 28.414062 4.421875 C28.846356 4.026040 29.156249 3.828125 29.343750 3.828125 C29.552084 3.828125 29.708333 4.070310 29.812500 4.554688 C29.916667 5.039065 29.968750 5.645830 29.968750 6.375000 C29.968750 7.218754 29.898438 8.124995 29.757812 9.093750 C29.617187 10.062505 29.411460 10.901038 29.140625 11.609375 Z M32.703125 20.015625 L32.218750 18.359375 L35.687500 17.828125 L35.937500 19.515625 Z M9.718750 17.437500 L8.406250 16.593750 C8.895836 15.854163 9.434893 15.281252 10.023438 14.875000 C10.611982 14.468748 11.218747 14.265625 11.843750 14.265625 C12.468753 14.265625 13.078122 14.468748 13.671875 14.875000 C14.265628 15.281252 14.802081 15.854163 15.281250 16.593750 L13.968750 17.437500 C13.260413 16.364578 12.552087 15.828125 11.843750 15.828125 C11.135413 15.828125 10.427087 16.364578 9.718750 17.437500 Z M21.968750 17.437500 L20.656250 16.593750 C21.145836 15.854163 21.684893 15.281252 22.273438 14.875000 C22.861982 14.468748 23.468747 14.265625 24.093750 14.265625 C24.718753 14.265625 25.328122 14.468748 25.921875 14.875000 C26.515628 15.281252 27.052081 15.854163 27.531250 16.593750 L26.218750 17.437500 C25.510413 16.364578 24.802087 15.828125 24.093750 15.828125 C23.385413 15.828125 22.677087 16.364578 21.968750 17.437500 Z M38.281250 26.562500" /></svg>