<svg version="1.1" xmlns="http://www.w3.org/2000/svg" style="fill:rgba(0,0,0,1.0)" width="256" height="256" viewBox="0 0 38.28125 31.25"><path fill="rgb(255, 255, 255)" d="M17.968750 31.250000 C15.749989 31.250000 13.729176 30.932295 11.906250 30.296875 C10.083324 29.661455 8.510423 28.760422 7.187500 27.593750 C5.864577 26.427078 4.846358 25.028654 4.132812 23.398438 C3.419267 21.768221 3.062500 19.963552 3.062500 17.984375 C3.062500 16.463534 3.276040 15.036465 3.703125 13.703125 C2.901038 11.234363 2.500000 8.885428 2.500000 6.656250 C2.500000 4.604156 2.804684 2.981777 3.414062 1.789062 C4.023441 0.596348 4.880203 -0.000000 5.984375 -0.000000 C6.619795 -0.000000 7.315100 0.226560 8.070312 0.679688 C8.825525 1.132815 9.604163 1.757809 10.406250 2.554688 C11.208337 3.351566 11.994788 4.276036 12.765625 5.328125 C13.557296 5.109374 14.385412 4.940105 15.250000 4.820312 C16.114588 4.700520 17.020829 4.640625 17.968750 4.640625 C18.916671 4.640625 19.822912 4.700520 20.687500 4.820312 C21.552088 4.940105 22.380204 5.109374 23.171875 5.328125 C23.942712 4.276036 24.729163 3.351566 25.531250 2.554688 C26.333337 1.757809 27.114580 1.132815 27.875000 0.679688 C28.635420 0.226560 29.328122 -0.000000 29.953125 -0.000000 C31.067714 -0.000000 31.927080 0.596348 32.531250 1.789062 C33.135420 2.981777 33.437500 4.604156 33.437500 6.656250 C33.437500 8.906261 33.036462 11.255196 32.234375 13.703125 C32.661460 15.046882 32.875000 16.473951 32.875000 17.984375 C32.875000 19.963552 32.518233 21.768221 31.804688 23.398438 C31.091142 25.028654 30.072923 26.427078 28.750000 27.593750 C27.427077 28.760422 25.854176 29.661455 24.031250 30.296875 C22.208324 30.932295 20.187511 31.250000 17.968750 31.250000 Z M2.734375 27.500000 L1.421875 26.390625 C1.838544 25.848956 2.401038 25.356773 3.109375 24.914062 C3.817712 24.471352 4.593746 24.119793 5.437500 23.859375 C6.281254 23.598957 7.114579 23.468750 7.937500 23.468750 L7.937500 25.187500 C7.302080 25.187500 6.645837 25.291666 5.968750 25.500000 C5.291663 25.708334 4.666670 25.986977 4.093750 26.335938 C3.520830 26.684898 3.067710 27.072915 2.734375 27.500000 Z M0.687500 23.281250 L0.000000 21.718750 C0.614586 21.406248 1.338538 21.161459 2.171875 20.984375 C3.005212 20.807291 3.854162 20.718750 4.718750 20.718750 C5.156252 20.718750 5.583331 20.744791 6.000000 20.796875 C6.416669 20.848959 6.802082 20.932291 7.156250 21.046875 L6.703125 22.703125 C6.484374 22.630208 6.221356 22.565104 5.914062 22.507812 C5.606769 22.450521 5.270835 22.421875 4.906250 22.421875 C4.156246 22.421875 3.393233 22.499999 2.617188 22.656250 C1.841142 22.812501 1.197919 23.020832 0.687500 23.281250 Z M6.218750 20.171875 C5.458330 19.807290 4.593755 19.539063 3.625000 19.367188 C2.656245 19.195312 1.520840 19.109375 0.218750 19.109375 L0.218750 17.390625 C1.635424 17.390625 2.898432 17.484374 4.007812 17.671875 C5.117193 17.859376 6.072913 18.166665 6.875000 18.593750 Z M10.859375 19.890625 C10.307289 19.890625 9.833335 19.648440 9.437500 19.164062 C9.041665 18.679685 8.843750 18.093753 8.843750 17.406250 C8.843750 16.718747 9.041665 16.132815 9.437500 15.648438 C9.833335 15.164060 10.307289 14.921875 10.859375 14.921875 C11.411461 14.921875 11.885415 15.164060 12.281250 15.648438 C12.677085 16.132815 12.875000 16.718747 12.875000 17.406250 C12.875000 18.093753 12.677085 18.679685 12.281250 19.164062 C11.885415 19.648440 11.411461 19.890625 10.859375 19.890625 Z M15.671875 25.187500 C15.046872 25.187500 14.445315 25.044272 13.867188 24.757812 C13.289060 24.471353 12.817710 24.104169 12.453125 23.656250 L13.640625 22.531250 C13.911460 22.822918 14.223957 23.052082 14.578125 23.218750 C14.932293 23.385418 15.296873 23.468750 15.671875 23.468750 C16.182294 23.468750 16.580728 23.317710 16.867188 23.015625 C17.153647 22.713540 17.296875 22.296878 17.296875 21.765625 L18.640625 21.765625 C18.640625 22.296878 18.783853 22.713540 19.070312 23.015625 C19.356772 23.317710 19.755206 23.468750 20.265625 23.468750 C20.640627 23.468750 21.007811 23.385418 21.367188 23.218750 C21.726564 23.052082 22.036457 22.822918 22.296875 22.531250 L23.484375 23.656250 C23.119790 24.104169 22.648440 24.471353 22.070312 24.757812 C21.492185 25.044272 20.890628 25.187500 20.265625 25.187500 C19.317704 25.187500 18.552086 24.854170 17.968750 24.187500 C17.385414 24.854170 16.619796 25.187500 15.671875 25.187500 Z M17.968750 22.375000 C17.583331 22.375000 17.195314 22.263022 16.804688 22.039062 C16.414061 21.815103 16.091147 21.541668 15.835938 21.218750 C15.580728 20.895832 15.453125 20.588543 15.453125 20.296875 C15.453125 19.901040 15.677081 19.596355 16.125000 19.382812 C16.572919 19.169270 17.187496 19.062500 17.968750 19.062500 C18.750004 19.062500 19.364581 19.169270 19.812500 19.382812 C20.260419 19.596355 20.484375 19.901040 20.484375 20.296875 C20.484375 20.588543 20.356772 20.895832 20.101562 21.218750 C19.846353 21.541668 19.526044 21.815103 19.140625 22.039062 C18.755206 22.263022 18.364585 22.375000 17.968750 22.375000 Z M6.796875 11.609375 C6.526040 10.901038 6.320313 10.062505 6.179688 9.093750 C6.039062 8.124995 5.968750 7.218754 5.968750 6.375000 C5.968750 5.645830 6.020833 5.039065 6.125000 4.554688 C6.229167 4.070310 6.385416 3.828125 6.593750 3.828125 C6.781251 3.828125 7.093748 4.026040 7.531250 4.421875 C7.968752 4.817710 8.460935 5.338538 9.007812 5.984375 C9.554690 6.630212 10.093747 7.328121 10.625000 8.078125 C9.979163 8.432293 9.307295 8.947913 8.609375 9.625000 C7.911455 10.302087 7.307294 10.963538 6.796875 11.609375 Z M17.968750 29.531250 C20.593763 29.531250 22.882803 29.046880 24.835938 28.078125 C26.789072 27.109370 28.304682 25.757821 29.382812 24.023438 C30.460943 22.289054 31.000000 20.276053 31.000000 17.984375 C31.000000 16.484367 30.760419 15.088548 30.281250 13.796875 C30.677085 12.588536 30.966145 11.557296 31.148438 10.703125 C31.330730 9.848954 31.445312 9.098962 31.492188 8.453125 C31.539063 7.807288 31.562500 7.208336 31.562500 6.656250 C31.562500 5.177076 31.403647 3.984380 31.085938 3.078125 C30.768228 2.171870 30.390627 1.718750 29.953125 1.718750 C29.557290 1.718750 29.046878 1.942706 28.421875 2.390625 C27.796872 2.838544 27.093754 3.486975 26.312500 4.335938 C25.531246 5.184900 24.713546 6.203119 23.859375 7.390625 C23.005204 7.057290 22.080734 6.802084 21.085938 6.625000 C20.091141 6.447916 19.052089 6.359375 17.968750 6.359375 C16.874995 6.359375 15.835942 6.447916 14.851562 6.625000 C13.867183 6.802084 12.942713 7.057290 12.078125 7.390625 C11.223954 6.203119 10.406254 5.184900 9.625000 4.335938 C8.843746 3.486975 8.140628 2.838544 7.515625 2.390625 C6.890622 1.942706 6.380210 1.718750 5.984375 1.718750 C5.546873 1.718750 5.169272 2.171870 4.851562 3.078125 C4.533853 3.984380 4.375000 5.177076 4.375000 6.656250 C4.375000 7.208336 4.398437 7.807288 4.445312 8.453125 C4.492188 9.098962 4.606770 9.848954 4.789062 10.703125 C4.971355 11.557296 5.260415 12.588536 5.656250 13.796875 C5.177081 15.088548 4.937500 16.484367 4.937500 17.984375 C4.937500 20.276053 5.476557 22.289054 6.554688 24.023438 C7.632818 25.757821 9.151032 27.109370 11.109375 28.078125 C13.067718 29.046880 15.354154 29.531250 17.968750 29.531250 Z M33.203125 27.500000 C32.880207 27.072915 32.429690 26.684898 31.851562 26.335938 C31.273435 25.986977 30.645837 25.708334 29.968750 25.500000 C29.291663 25.291666 28.635420 25.187500 28.000000 25.187500 L28.000000 23.468750 C28.833338 23.468750 29.669267 23.598957 30.507812 23.859375 C31.346358 24.119793 32.119788 24.471352 32.828125 24.914062 C33.536462 25.356773 34.098956 25.848956 34.515625 26.390625 Z M15.953125 11.265625 C15.567706 11.265625 15.132815 10.942712 14.648438 10.296875 C14.164060 9.651038 13.661461 8.432301 13.140625 6.640625 L17.359375 6.000000 C17.380208 6.260418 17.395833 6.515624 17.406250 6.765625 C17.416667 7.015626 17.421875 7.260415 17.421875 7.500000 C17.421875 8.666672 17.291668 9.585934 17.031250 10.257812 C16.770832 10.929691 16.411461 11.265625 15.953125 11.265625 Z M25.078125 19.890625 C24.526039 19.890625 24.052085 19.648440 23.656250 19.164062 C23.260415 18.679685 23.062500 18.093753 23.062500 17.406250 C23.062500 16.718747 23.260415 16.132815 23.656250 15.648438 C24.052085 15.164060 24.526039 14.921875 25.078125 14.921875 C25.630211 14.921875 26.104165 15.164060 26.500000 15.648438 C26.895835 16.132815 27.093750 16.718747 27.093750 17.406250 C27.093750 18.093753 26.895835 18.679685 26.500000 19.164062 C26.104165 19.648440 25.630211 19.890625 25.078125 19.890625 Z M35.250000 23.281250 C34.739581 23.020832 34.096358 22.812501 33.320312 22.656250 C32.544267 22.499999 31.781254 22.421875 31.031250 22.421875 C30.677082 22.421875 30.343752 22.450521 30.031250 22.507812 C29.718748 22.565104 29.453126 22.630208 29.234375 22.703125 L28.781250 21.046875 C29.135418 20.932291 29.520831 20.848959 29.937500 20.796875 C30.354169 20.744791 30.781248 20.718750 31.218750 20.718750 C32.083338 20.718750 32.934892 20.807291 33.773438 20.984375 C34.611983 21.161459 35.333330 21.406248 35.937500 21.718750 Z M19.984375 11.265625 C19.526039 11.265625 19.166668 10.929691 18.906250 10.257812 C18.645832 9.585934 18.515625 8.666672 18.515625 7.500000 C18.515625 7.260415 18.520833 7.015626 18.531250 6.765625 C18.541667 6.515624 18.557292 6.260418 18.578125 6.000000 L22.796875 6.640625 C22.276039 8.432301 21.776044 9.651038 21.296875 10.296875 C20.817706 10.942712 20.380210 11.265625 19.984375 11.265625 Z M29.718750 20.171875 L29.062500 18.593750 C29.864587 18.166665 30.820307 17.859376 31.929688 17.671875 C33.039068 17.484374 34.302076 17.390625 35.718750 17.390625 L35.718750 19.109375 C34.416660 19.109375 33.283859 19.195312 32.320312 19.367188 C31.356766 19.539063 30.489587 19.807290 29.718750 20.171875 Z M29.140625 11.609375 C28.630206 10.963538 28.026045 10.302087 27.328125 9.625000 C26.630205 8.947913 25.958337 8.432293 25.312500 8.078125 C25.843753 7.328121 26.385414 6.630212 26.937500 5.984375 C27.489586 5.338538 27.981769 4.817710 28.414062 4.421875 C28.846356 4.026040 29.156249 3.828125 29.343750 3.828125 C29.552084 3.828125 29.708333 4.070310 29.812500 4.554688 C29.916667 5.039065 29.968750 5.645830 29.968750 6.375000 C29.968750 7.218754 29.898438 8.124995 29.757812 9.093750 C29.617187 10.062505 29.411460 10.901038 29.140625 11.609375 Z M38.281250 26.562500" /></svg>