<svg version="1.1" xmlns="http://www.w3.org/2000/svg" style="fill:rgba(0,0,0,1.0)" width="256" height="256" viewBox="0 0 36.71875 32.8125"><path fill="rgb(255, 255, 255)" d="M2.750000 32.812500 C1.999996 32.812500 1.354169 32.544274 0.812500 32.007812 C0.270831 31.471351 0.000000 30.833337 0.000000 30.093750 L0.000000 2.734375 C0.000000 1.984371 0.268226 1.341149 0.804688 0.804688 C1.341149 0.268226 1.984371 -0.000000 2.734375 -0.000000 L30.078125 -0.000000 C30.828129 -0.000000 31.471351 0.268226 32.007812 0.804688 C32.544274 1.341149 32.812500 1.984371 32.812500 2.734375 L32.812500 30.078125 C32.812500 30.828129 32.544274 31.471351 32.007812 32.007812 C31.471351 32.544274 30.828129 32.812500 30.078125 32.812500 Z M8.546875 17.937500 L11.265625 17.937500 L11.265625 14.796875 L14.593750 14.796875 L14.593750 13.421875 L11.265625 13.421875 L11.265625 12.218750 L14.593750 12.218750 L14.593750 10.859375 L11.890625 10.859375 L15.109375 4.484375 L12.343750 4.484375 L11.109375 7.500000 C10.921874 7.958336 10.734376 8.424477 10.546875 8.898438 C10.359374 9.372398 10.177084 9.848956 10.000000 10.328125 L9.906250 10.328125 C9.739582 9.869789 9.559897 9.398440 9.367188 8.914062 C9.174478 8.429685 8.984376 7.958336 8.796875 7.500000 L7.578125 4.484375 L4.734375 4.484375 L7.921875 10.859375 L5.234375 10.859375 L5.234375 12.218750 L8.546875 12.218750 L8.546875 13.421875 L5.234375 13.421875 L5.234375 14.796875 L8.546875 14.796875 Z M3.953125 29.312500 L6.593750 25.968750 L10.109375 28.484375 L12.265625 23.171875 L14.578125 21.781250 L18.078125 27.468750 L20.750000 20.296875 L23.765625 24.562500 L28.140625 16.343750 L30.406250 6.140625 L28.562500 5.734375 L26.359375 15.687500 L23.546875 21.000000 L20.250000 16.296875 L17.671875 23.218750 L15.203125 19.218750 L10.765625 21.890625 L9.265625 25.578125 L6.218750 23.406250 L2.484375 28.156250 Z M36.718750 27.343750" /></svg>