<svg version="1.1" xmlns="http://www.w3.org/2000/svg" style="fill:rgba(0,0,0,1.0)" width="256" height="256" viewBox="0 0 33.15625 32.8125"><path fill="rgb(255, 255, 255)" d="M7.250000 22.234375 C7.250000 19.651029 7.057294 17.393239 6.671875 15.460938 C6.286456 13.528636 5.687504 11.856778 4.875000 10.445312 C4.062496 9.033847 3.010423 7.812505 1.718750 6.781250 L2.406250 7.078125 C1.770830 7.078125 1.210940 6.898439 0.726562 6.539062 C0.242185 6.179686 0.000000 5.781252 0.000000 5.343750 C0.000000 4.979165 0.164061 4.669272 0.492188 4.414062 C0.820314 4.158853 1.218748 4.031250 1.687500 4.031250 C2.270836 4.031250 2.796873 4.213540 3.265625 4.578125 C3.734377 4.942710 3.968750 5.348956 3.968750 5.796875 L10.140625 7.656250 C11.307298 8.302087 12.364579 8.966142 13.312500 9.648438 C14.260421 10.330733 15.098955 11.036455 15.828125 11.765625 C17.192715 13.119798 18.197913 14.570305 18.843750 16.117188 C19.489587 17.664070 19.812500 19.343741 19.812500 21.156250 L18.109375 21.250000 C18.109375 19.614575 17.812503 18.093757 17.218750 16.687500 C16.624997 15.281243 15.729173 13.989589 14.531250 12.812500 C13.395828 11.687494 11.979175 10.635422 10.281250 9.656250 C8.583325 8.677078 6.604178 7.843753 4.343750 7.156250 L4.562500 7.125000 C6.041674 8.677091 7.145830 10.692696 7.875000 13.171875 C8.604170 15.651054 8.968750 18.671857 8.968750 22.234375 Z M7.781250 32.812500 C6.291659 32.812500 4.960943 32.484378 3.789062 31.828125 C2.617182 31.171872 1.692712 30.273443 1.015625 29.132812 C0.338538 27.992182 0.000000 26.703132 0.000000 25.265625 C0.000000 23.807284 0.341142 22.500006 1.023438 21.343750 C1.705733 20.187494 2.635411 19.270837 3.812500 18.593750 C4.989589 17.916663 6.312493 17.578125 7.781250 17.578125 C8.812505 17.578125 9.791662 17.781248 10.718750 18.187500 C11.645838 18.593752 12.466142 19.153642 13.179688 19.867188 C13.893233 20.580733 14.453123 21.398433 14.859375 22.320312 C15.265627 23.242192 15.468750 24.223953 15.468750 25.265625 C15.468750 26.640632 15.119795 27.898432 14.421875 29.039062 C13.723955 30.179693 12.791672 31.093747 11.625000 31.781250 C10.458328 32.468753 9.177090 32.812500 7.781250 32.812500 Z M7.781250 31.093750 C8.895839 31.093750 9.903641 30.835940 10.804688 30.320312 C11.705734 29.804685 12.421872 29.104171 12.953125 28.218750 C13.484378 27.333329 13.750000 26.348964 13.750000 25.265625 C13.750000 24.171870 13.479169 23.171880 12.937500 22.265625 C12.395831 21.359370 11.674484 20.638024 10.773438 20.101562 C9.872391 19.565101 8.875005 19.296875 7.781250 19.296875 C6.687495 19.296875 5.687505 19.565101 4.781250 20.101562 C3.874995 20.638024 3.151044 21.359370 2.609375 22.265625 C2.067706 23.171880 1.796875 24.171870 1.796875 25.265625 C1.796875 26.348964 2.062497 27.333329 2.593750 28.218750 C3.125003 29.104171 3.843745 29.804685 4.750000 30.320312 C5.656255 30.835940 6.666661 31.093750 7.781250 31.093750 Z M8.250000 23.703125 C7.614580 23.703125 7.005211 23.570314 6.421875 23.304688 C5.838539 23.039061 5.348960 22.640628 4.953125 22.109375 L6.031250 21.171875 C6.312501 21.515627 6.638019 21.770832 7.007812 21.937500 C7.377606 22.104168 7.776040 22.187500 8.203125 22.187500 C8.505210 22.187500 8.815103 22.148438 9.132812 22.070312 C9.450522 21.992187 9.770832 21.875001 10.093750 21.718750 L10.796875 22.984375 C10.401040 23.223960 9.984377 23.403645 9.546875 23.523438 C9.109373 23.643230 8.677085 23.703125 8.250000 23.703125 Z M18.265625 31.250000 C17.286453 31.250000 16.338546 31.057294 15.421875 30.671875 C14.505204 30.286456 13.703128 29.744795 13.015625 29.046875 L14.140625 27.796875 C14.682294 28.359378 15.307288 28.789061 16.015625 29.085938 C16.723962 29.382814 17.473954 29.531250 18.265625 29.531250 C19.328130 29.531250 20.283850 29.281252 21.132812 28.781250 C21.981775 28.281248 22.653643 27.606775 23.148438 26.757812 C23.643232 25.908850 23.890625 24.953130 23.890625 23.890625 C23.890625 22.817703 23.638023 21.843754 23.132812 20.968750 C22.627602 20.093746 21.950525 19.398440 21.101562 18.882812 C20.252600 18.367185 19.307297 18.109375 18.265625 18.109375 C17.223953 18.109375 16.252609 18.369789 15.351562 18.890625 C14.450516 19.411461 13.739586 20.130204 13.218750 21.046875 L11.875000 20.265625 C12.531253 19.119786 13.429682 18.187504 14.570312 17.468750 C15.710943 16.749996 16.942702 16.390625 18.265625 16.390625 C19.682299 16.390625 20.950515 16.716143 22.070312 17.367188 C23.190110 18.018232 24.072913 18.908849 24.718750 20.039062 C25.364587 21.169276 25.687500 22.453118 25.687500 23.890625 C25.687500 25.307299 25.367191 26.570307 24.726562 27.679688 C24.085934 28.789068 23.208339 29.661455 22.093750 30.296875 C20.979161 30.932295 19.703132 31.250000 18.265625 31.250000 Z M19.343750 22.328125 C18.624996 22.328125 17.947920 22.169272 17.312500 21.851562 C16.677080 21.533853 16.166669 21.062503 15.781250 20.437500 L16.921875 19.609375 C17.203126 20.015627 17.549477 20.320311 17.960938 20.523438 C18.372398 20.726564 18.822914 20.828125 19.312500 20.828125 C19.854169 20.828125 20.390622 20.723959 20.921875 20.515625 L21.515625 21.828125 C20.838538 22.161460 20.114587 22.328125 19.343750 22.328125 Z M10.421875 6.468750 C12.171884 6.468750 13.851554 6.122399 15.460938 5.429688 C17.070321 4.736976 18.614576 3.635424 20.093750 2.125000 L20.265625 2.625000 C18.901035 2.302082 17.687505 2.070313 16.625000 1.929688 C15.562495 1.789062 14.546880 1.718750 13.578125 1.718750 C11.463531 1.718750 9.580737 2.046872 7.929688 2.703125 C6.278638 3.359378 4.911464 4.317702 3.828125 5.578125 L3.609375 5.062500 C4.848965 5.593753 6.031244 5.960936 7.156250 6.164062 C8.281256 6.367189 9.369786 6.468750 10.421875 6.468750 Z M10.421875 8.187500 C9.182285 8.187500 7.888028 8.031252 6.539062 7.718750 C5.190097 7.406248 3.786466 6.916670 2.328125 6.250000 L2.046875 5.265625 C3.234381 3.557283 4.817698 2.252609 6.796875 1.351562 C8.776052 0.450516 11.036446 -0.000000 13.578125 -0.000000 C14.713547 -0.000000 15.960931 0.109374 17.320312 0.328125 C18.679694 0.546876 20.427073 0.942705 22.562500 1.515625 C21.218743 3.119800 19.914069 4.411453 18.648438 5.390625 C17.382806 6.369797 16.085944 7.080727 14.757812 7.523438 C13.429681 7.966148 11.984383 8.187500 10.421875 8.187500 Z M33.156250 27.343750" /></svg>