<svg version="1.1" xmlns="http://www.w3.org/2000/svg" style="fill:rgba(0,0,0,1.0)" width="256" height="256" viewBox="0 0 37.96875 32.8125"><path fill="rgb(255, 255, 255)" d="M11.718750 32.812500 C10.697912 32.812500 9.718755 32.609377 8.781250 32.203125 L9.125000 29.328125 L6.703125 30.703125 C5.994788 30.005205 5.445314 29.195317 5.054688 28.273438 C4.664061 27.351558 4.468750 26.395838 4.468750 25.406250 C4.468750 23.906242 4.885412 22.541673 5.718750 21.312500 C4.624995 21.031249 3.645838 20.541670 2.781250 19.843750 C1.916662 19.145830 1.236982 18.302088 0.742188 17.312500 C0.247393 16.322912 0.000000 15.255214 0.000000 14.109375 C0.000000 14.005208 0.002604 13.901042 0.007812 13.796875 C0.013021 13.692708 0.020833 13.588542 0.031250 13.484375 L2.687500 12.859375 L0.765625 10.859375 C1.390628 9.588535 2.291661 8.580733 3.468750 7.835938 C4.645839 7.091142 5.937493 6.718750 7.343750 6.718750 C8.343755 6.718750 9.322912 6.921873 10.281250 7.328125 C10.270833 7.213541 10.263021 7.093751 10.257812 6.968750 C10.252604 6.843749 10.250000 6.723959 10.250000 6.609375 C10.250000 5.671870 10.486977 4.750005 10.960938 3.843750 C11.434898 2.937495 12.096350 2.140628 12.945312 1.453125 C13.794275 0.765622 14.776036 0.281251 15.890625 -0.000000 L17.656250 2.812500 L19.421875 -0.000000 C20.536464 0.281251 21.518225 0.765622 22.367188 1.453125 C23.216150 2.140628 23.877602 2.937495 24.351562 3.843750 C24.825523 4.750005 25.062500 5.671870 25.062500 6.609375 C25.062500 6.723959 25.059896 6.843749 25.054688 6.968750 C25.049479 7.093751 25.041667 7.213541 25.031250 7.328125 C25.989588 6.921873 26.968745 6.718750 27.968750 6.718750 C29.375007 6.718750 30.666661 7.091142 31.843750 7.835938 C33.020839 8.580733 33.921872 9.588535 34.546875 10.859375 L32.625000 12.859375 L35.281250 13.484375 C35.291667 13.588542 35.299479 13.692708 35.304688 13.796875 C35.309896 13.901042 35.312500 14.005208 35.312500 14.109375 C35.312500 15.255214 35.065107 16.322912 34.570312 17.312500 C34.075518 18.302088 33.398442 19.145830 32.539062 19.843750 C31.679683 20.541670 30.697922 21.031249 29.593750 21.312500 C30.427088 22.541673 30.843750 23.906242 30.843750 25.406250 C30.843750 26.395838 30.648439 27.351558 30.257812 28.273438 C29.867186 29.195317 29.317712 30.005205 28.609375 30.703125 L26.187500 29.328125 L26.531250 32.203125 C25.593745 32.609377 24.614588 32.812500 23.593750 32.812500 C22.416661 32.812500 21.304693 32.546878 20.257812 32.015625 C19.210932 31.484372 18.343753 30.755213 17.656250 29.828125 C16.968747 30.755213 16.101568 31.484372 15.054688 32.015625 C14.007807 32.546878 12.895839 32.812500 11.718750 32.812500 Z M14.984375 18.656250 C15.234376 18.656250 15.450520 18.565105 15.632812 18.382812 C15.815105 18.200520 15.906250 17.984376 15.906250 17.734375 C15.906250 17.484374 15.815105 17.268230 15.632812 17.085938 C15.450520 16.903645 15.234376 16.812500 14.984375 16.812500 C14.734374 16.812500 14.518230 16.903645 14.335938 17.085938 C14.153645 17.268230 14.062500 17.484374 14.062500 17.734375 C14.062500 17.984376 14.153645 18.200520 14.335938 18.382812 C14.518230 18.565105 14.734374 18.656250 14.984375 18.656250 Z M17.656250 20.609375 C17.927085 20.609375 18.156249 20.513022 18.343750 20.320312 C18.531251 20.127603 18.625000 19.901043 18.625000 19.640625 C18.625000 19.369790 18.531251 19.140626 18.343750 18.953125 C18.156249 18.765624 17.927085 18.671875 17.656250 18.671875 C17.395832 18.671875 17.169272 18.765624 16.976562 18.953125 C16.783853 19.140626 16.687500 19.369790 16.687500 19.640625 C16.687500 19.901043 16.783853 20.127603 16.976562 20.320312 C17.169272 20.513022 17.395832 20.609375 17.656250 20.609375 Z M17.656250 23.843750 C17.083330 22.260409 16.247401 21.059900 15.148438 20.242188 C14.049474 19.424475 12.817715 18.984375 11.453125 18.921875 C12.119795 18.265622 12.643227 17.494796 13.023438 16.609375 C13.403648 15.723954 13.593750 14.776047 13.593750 13.765625 C13.593750 12.859370 13.447918 12.015629 13.156250 11.234375 C13.770836 11.723961 14.460934 12.106769 15.226562 12.382812 C15.992191 12.658856 16.802079 12.796875 17.656250 12.796875 C18.510421 12.796875 19.320309 12.658856 20.085938 12.382812 C20.851566 12.106769 21.541664 11.723961 22.156250 11.234375 C21.864582 12.015629 21.718750 12.859370 21.718750 13.765625 C21.718750 14.776047 21.908852 15.723954 22.289062 16.609375 C22.669273 17.494796 23.192705 18.265622 23.859375 18.921875 C22.494785 18.984375 21.263026 19.424475 20.164062 20.242188 C19.065099 21.059900 18.229170 22.260409 17.656250 23.843750 Z M17.656250 18.281250 L19.031250 17.187500 L18.359375 15.796875 L16.953125 15.796875 L16.281250 17.187500 Z M11.718750 31.250000 C13.083340 31.250000 14.317703 30.817713 15.421875 29.953125 C16.526047 29.088537 17.270831 27.958340 17.656250 26.562500 C18.052085 27.958340 18.802078 29.088537 19.906250 29.953125 C21.010422 30.817713 22.239577 31.250000 23.593750 31.250000 C24.010419 31.250000 24.421873 31.203125 24.828125 31.109375 L24.250000 26.546875 L28.234375 28.734375 C28.932295 27.755203 29.281250 26.645840 29.281250 25.406250 C29.281250 24.479162 29.101564 23.578129 28.742188 22.703125 C28.382811 21.828121 27.864587 21.041670 27.187500 20.343750 C28.302089 20.312500 29.333329 20.044273 30.281250 19.539062 C31.229171 19.033852 32.013018 18.361983 32.632812 17.523438 C33.252607 16.684892 33.614583 15.750005 33.718750 14.718750 L29.593750 13.734375 L32.593750 10.640625 C32.052081 9.901038 31.380212 9.322919 30.578125 8.906250 C29.776038 8.489581 28.906255 8.281250 27.968750 8.281250 C27.124996 8.281250 26.307296 8.401040 25.515625 8.640625 C24.723954 8.880210 23.937504 9.281247 23.156250 9.843750 C23.291667 9.197913 23.382812 8.627607 23.429688 8.132812 C23.476563 7.638018 23.500000 7.130211 23.500000 6.609375 C23.500000 5.776038 23.190107 4.898442 22.570312 3.976562 C21.950518 3.054683 21.119797 2.359377 20.078125 1.890625 L17.656250 5.750000 L15.234375 1.890625 C14.192703 2.359377 13.361982 3.054683 12.742188 3.976562 C12.122393 4.898442 11.812500 5.776038 11.812500 6.609375 C11.812500 7.130211 11.835937 7.638018 11.882812 8.132812 C11.929688 8.627607 12.020833 9.197913 12.156250 9.843750 C11.374996 9.281247 10.588546 8.880210 9.796875 8.640625 C9.005204 8.401040 8.187504 8.281250 7.343750 8.281250 C6.406245 8.281250 5.539066 8.489581 4.742188 8.906250 C3.945309 9.322919 3.270836 9.901038 2.718750 10.640625 L5.718750 13.734375 L1.593750 14.718750 C1.708334 15.750005 2.072914 16.684892 2.687500 17.523438 C3.302086 18.361983 4.083329 19.033852 5.031250 19.539062 C5.979171 20.044273 7.010411 20.312500 8.125000 20.343750 C7.458330 21.041670 6.942710 21.828121 6.578125 22.703125 C6.213540 23.578129 6.031250 24.479162 6.031250 25.406250 C6.031250 26.645840 6.380205 27.755203 7.078125 28.734375 L11.062500 26.546875 L10.484375 31.109375 C10.890627 31.203125 11.302081 31.250000 11.718750 31.250000 Z M16.109375 15.625000 C16.359376 15.625000 16.572916 15.536459 16.750000 15.359375 C16.927084 15.182291 17.015625 14.963543 17.015625 14.703125 C17.015625 14.442707 16.927084 14.223959 16.750000 14.046875 C16.572916 13.869791 16.359376 13.781250 16.109375 13.781250 C15.848957 13.781250 15.627605 13.869791 15.445312 14.046875 C15.263020 14.223959 15.171875 14.442707 15.171875 14.703125 C15.171875 14.963543 15.263020 15.182291 15.445312 15.359375 C15.627605 15.536459 15.848957 15.625000 16.109375 15.625000 Z M20.328125 18.656250 C20.578126 18.656250 20.794270 18.565105 20.976562 18.382812 C21.158855 18.200520 21.250000 17.984376 21.250000 17.734375 C21.250000 17.484374 21.158855 17.268230 20.976562 17.085938 C20.794270 16.903645 20.578126 16.812500 20.328125 16.812500 C20.078124 16.812500 19.861980 16.903645 19.679688 17.085938 C19.497395 17.268230 19.406250 17.484374 19.406250 17.734375 C19.406250 17.984376 19.497395 18.200520 19.679688 18.382812 C19.861980 18.565105 20.078124 18.656250 20.328125 18.656250 Z M19.203125 15.625000 C19.463543 15.625000 19.684895 15.536459 19.867188 15.359375 C20.049480 15.182291 20.140625 14.963543 20.140625 14.703125 C20.140625 14.442707 20.049480 14.223959 19.867188 14.046875 C19.684895 13.869791 19.463543 13.781250 19.203125 13.781250 C18.953124 13.781250 18.739584 13.869791 18.562500 14.046875 C18.385416 14.223959 18.296875 14.442707 18.296875 14.703125 C18.296875 14.963543 18.385416 15.182291 18.562500 15.359375 C18.739584 15.536459 18.953124 15.625000 19.203125 15.625000 Z M37.968750 27.343750" /></svg>