<svg version="1.1" xmlns="http://www.w3.org/2000/svg" style="fill:rgba(0,0,0,1.0)" width="256" height="256" viewBox="0 0 36.71875 32.8125"><path fill="rgb(255, 255, 255)" d="M21.265625 32.812500 L17.718750 30.250000 L15.187500 32.437500 L14.015625 32.437500 L11.453125 29.265625 L9.468750 31.359375 L7.734375 31.359375 C7.453124 30.359370 7.242188 29.380213 7.101562 28.421875 C6.960937 27.463537 6.890625 26.494797 6.890625 25.515625 C6.890625 25.296874 6.895833 25.078126 6.906250 24.859375 C6.916667 24.640624 6.927083 24.416668 6.937500 24.187500 C6.104162 23.947915 5.494794 23.518232 5.109375 22.898438 C4.723956 22.278643 4.531250 21.526046 4.531250 20.640625 C4.531250 20.223956 4.580729 19.796877 4.679688 19.359375 C4.778646 18.921873 4.927082 18.468752 5.125000 18.000000 L8.062500 16.906250 C9.677091 16.906250 11.070307 16.760418 12.242188 16.468750 C13.414068 16.177082 14.315101 15.747399 14.945312 15.179688 C15.575524 14.611976 15.890625 13.921879 15.890625 13.109375 C15.890625 12.244787 15.554691 11.593752 14.882812 11.156250 C14.210934 10.718748 13.453129 10.500000 12.609375 10.500000 C12.088539 10.500000 11.583336 10.585937 11.093750 10.757812 C10.604164 10.929688 10.135419 11.192707 9.687500 11.546875 C9.239581 11.901043 8.817710 12.354164 8.421875 12.906250 C7.192702 12.458331 6.221358 11.869795 5.507812 11.140625 C4.794267 10.411455 4.437500 9.557297 4.437500 8.578125 C4.437500 7.703121 4.736976 6.919274 5.335938 6.226562 C5.934899 5.533851 6.812494 5.130209 7.968750 5.015625 C8.802088 4.932291 9.333332 4.804688 9.562500 4.632812 C9.791668 4.460937 9.953125 4.104169 10.046875 3.562500 C10.213542 2.624995 10.658851 1.903648 11.382812 1.398438 C12.106774 0.893227 12.864579 0.640625 13.656250 0.640625 C14.291670 0.640625 14.825519 0.763020 15.257812 1.007812 C15.690106 1.252605 16.065103 1.499999 16.382812 1.750000 C16.700522 2.000001 17.005207 2.125000 17.296875 2.125000 C17.557293 2.125000 17.776041 2.018230 17.953125 1.804688 C18.130209 1.591145 18.330728 1.343751 18.554688 1.062500 C18.778647 0.781249 19.080727 0.533855 19.460938 0.320312 C19.841148 0.106770 20.364580 -0.000000 21.031250 -0.000000 C22.125005 -0.000000 23.023434 0.341142 23.726562 1.023438 C24.429691 1.705733 24.781250 2.640619 24.781250 3.828125 C24.781250 4.713546 24.578127 5.554684 24.171875 6.351562 C23.765623 7.148441 23.161462 7.901038 22.359375 8.609375 C25.119805 10.276050 27.374991 12.804671 29.125000 16.195312 C30.875009 19.585954 32.104163 23.739559 32.812500 28.656250 L31.875000 29.593750 L29.046875 28.781250 L27.781250 31.640625 L26.734375 31.828125 L24.218750 30.031250 L22.093750 32.734375 Z M0.000000 18.671875 C0.000000 17.442702 0.294268 16.307297 0.882812 15.265625 C1.471357 14.223953 2.401035 13.359378 3.671875 12.671875 C4.942715 11.984372 6.598948 11.562501 8.640625 11.406250 C9.067710 12.020836 9.367187 12.593747 9.539062 13.125000 C9.710938 13.656253 9.796875 14.291663 9.796875 15.031250 C9.796875 16.312506 9.559898 17.231768 9.085938 17.789062 C8.611977 18.346357 7.880213 18.651041 6.890625 18.703125 Z M2.046875 16.890625 L7.640625 16.890625 C7.765626 16.557290 7.848958 16.255210 7.890625 15.984375 C7.932292 15.713540 7.953125 15.401043 7.953125 15.046875 C7.953125 14.692707 7.932292 14.380210 7.890625 14.109375 C7.848958 13.838540 7.765626 13.536460 7.640625 13.203125 C6.942705 13.203125 6.190108 13.351561 5.382812 13.648438 C4.575517 13.945314 3.856774 14.369789 3.226562 14.921875 C2.596351 15.473961 2.203126 16.130205 2.046875 16.890625 Z M15.156250 22.281250 C15.052083 21.822914 14.934896 21.367190 14.804688 20.914062 C14.674479 20.460935 14.536459 20.010419 14.390625 19.562500 L16.171875 19.000000 C16.328126 19.479169 16.476562 19.955727 16.617188 20.429688 C16.757813 20.903648 16.880208 21.385414 16.984375 21.875000 Z M20.234375 24.125000 C19.963540 23.208329 19.625002 22.359379 19.218750 21.578125 L20.921875 20.781250 C21.130209 21.187502 21.322916 21.614581 21.500000 22.062500 C21.677084 22.510419 21.848958 23.010414 22.015625 23.562500 Z M21.437500 30.828125 L23.890625 27.656250 L26.781250 29.687500 L28.062500 26.687500 L30.750000 27.406250 C30.395832 24.843737 29.765630 22.424491 28.859375 20.148438 C27.953120 17.872384 26.843757 15.867196 25.531250 14.132812 C24.218743 12.398429 22.765633 11.036463 21.171875 10.046875 C19.578117 9.057287 17.906259 8.562500 16.156250 8.562500 C15.822915 8.562500 15.437502 8.578125 15.000000 8.609375 C14.562498 8.640625 14.177085 8.687500 13.843750 8.750000 C14.583337 8.895834 15.247393 9.177081 15.835938 9.593750 C16.424482 10.010419 16.893227 10.520830 17.242188 11.125000 C17.591148 11.729170 17.765625 12.390621 17.765625 13.109375 C17.765625 13.973963 17.533856 14.755205 17.070312 15.453125 C16.606769 16.151045 15.955733 16.747393 15.117188 17.242188 C14.278642 17.736982 13.302089 18.104165 12.187500 18.343750 C12.239584 18.572918 12.273437 18.765624 12.289062 18.921875 C12.304688 19.078126 12.312500 19.229166 12.312500 19.375000 C12.312500 20.197921 12.190105 20.971351 11.945312 21.695312 C11.700520 22.419274 11.320315 23.020831 10.804688 23.500000 C10.289060 23.979169 9.625004 24.265625 8.812500 24.359375 C8.791667 24.588543 8.776042 24.825520 8.765625 25.070312 C8.755208 25.315105 8.750000 25.562499 8.750000 25.812500 C8.750000 26.468753 8.768229 27.093747 8.804688 27.687500 C8.841146 28.281253 8.911458 28.838539 9.015625 29.359375 L11.421875 26.765625 L14.703125 30.531250 L17.703125 27.921875 Z M24.187500 21.375000 C24.052083 21.020832 23.885418 20.645835 23.687500 20.250000 C23.489582 19.854165 23.239585 19.385419 22.937500 18.843750 L24.593750 17.968750 C24.843751 18.416669 25.078124 18.861977 25.296875 19.304688 C25.515626 19.747398 25.718749 20.197914 25.906250 20.656250 Z M20.328125 17.140625 C20.151041 16.796873 19.945314 16.432294 19.710938 16.046875 C19.476561 15.661456 19.192710 15.218752 18.859375 14.718750 L20.453125 13.718750 C20.755210 14.166669 21.031249 14.601560 21.281250 15.023438 C21.531251 15.445315 21.765624 15.859373 21.984375 16.265625 Z M12.375000 14.781250 C11.947915 14.781250 11.598960 14.645835 11.328125 14.375000 C11.057290 14.104165 10.921875 13.755210 10.921875 13.328125 C10.921875 12.901040 11.057290 12.552085 11.328125 12.281250 C11.598960 12.010415 11.947915 11.875000 12.375000 11.875000 C12.802085 11.875000 13.151040 12.010415 13.421875 12.281250 C13.692710 12.552085 13.828125 12.901040 13.828125 13.328125 C13.828125 13.755210 13.692710 14.104165 13.421875 14.375000 C13.151040 14.645835 12.802085 14.781250 12.375000 14.781250 Z M36.718750 27.343750" /></svg>