<svg version="1.1" xmlns="http://www.w3.org/2000/svg" style="fill:rgba(0,0,0,1.0)" width="256" height="256" viewBox="0 0 33.125 32.8125"><path fill="rgb(255, 255, 255)" d="M13.421875 32.812500 C10.286443 32.812500 7.802092 32.333338 5.968750 31.375000 C4.135408 30.416662 3.135418 29.072925 2.968750 27.343750 C2.875000 26.416662 2.802084 25.500005 2.750000 24.593750 C2.697916 23.687495 2.658854 22.703130 2.632812 21.640625 C2.606771 20.578120 2.588542 19.359382 2.578125 17.984375 C2.567708 16.609368 2.562500 14.994801 2.562500 13.140625 L4.437500 13.171875 C4.437500 15.015634 4.440104 16.622389 4.445312 17.992188 C4.450521 19.361986 4.466146 20.575516 4.492188 21.632812 C4.518229 22.690109 4.559896 23.661454 4.617188 24.546875 C4.674479 25.432296 4.750000 26.312496 4.843750 27.187500 C4.968751 28.281255 5.776034 29.179684 7.265625 29.882812 C8.755216 30.585941 10.807279 30.937500 13.421875 30.937500 C15.494802 30.937500 17.255201 30.770835 18.703125 30.437500 C20.151049 30.104165 21.255205 29.656253 22.015625 29.093750 C22.776045 28.531247 23.156250 27.916670 23.156250 27.250000 C23.156250 27.010415 23.117188 26.763022 23.039062 26.507812 C22.960937 26.252603 22.854167 25.989585 22.718750 25.718750 C22.552082 25.385415 22.408855 25.026044 22.289062 24.640625 C22.169270 24.255206 22.109375 23.838544 22.109375 23.390625 L22.109375 9.875000 L23.984375 9.875000 L23.984375 23.390625 C23.984375 23.859377 24.041666 24.263019 24.156250 24.601562 C24.270834 24.940106 24.401041 25.260415 24.546875 25.562500 C24.682292 25.822918 24.796875 26.085936 24.890625 26.351562 C24.984375 26.617189 25.031250 26.916665 25.031250 27.250000 C25.031250 28.364589 24.572921 29.338538 23.656250 30.171875 C22.739579 31.005212 21.416675 31.653644 19.687500 32.117188 C17.958325 32.580731 15.869804 32.812500 13.421875 32.812500 Z M13.281250 22.343750 C12.406246 22.343750 11.585941 22.169273 10.820312 21.820312 C10.054684 21.471352 9.375003 20.937504 8.781250 20.218750 L9.890625 19.250000 C10.369794 19.822920 10.885414 20.234374 11.437500 20.484375 C11.989586 20.734376 12.604163 20.859375 13.281250 20.859375 C13.958337 20.859375 14.570310 20.734376 15.117188 20.484375 C15.664065 20.234374 16.177081 19.822920 16.656250 19.250000 L17.765625 20.218750 C17.171872 20.937504 16.492191 21.471352 15.726562 21.820312 C14.960934 22.169273 14.145838 22.343750 13.281250 22.343750 Z M9.234375 18.046875 C8.796873 18.046875 8.434897 17.882814 8.148438 17.554688 C7.861978 17.226561 7.718750 16.838544 7.718750 16.390625 C7.718750 15.932289 7.861978 15.541668 8.148438 15.218750 C8.434897 14.895832 8.796873 14.734375 9.234375 14.734375 C9.671877 14.734375 10.033853 14.895832 10.320312 15.218750 C10.606772 15.541668 10.750000 15.932289 10.750000 16.390625 C10.750000 16.838544 10.606772 17.226561 10.320312 17.554688 C10.033853 17.882814 9.671877 18.046875 9.234375 18.046875 Z M3.203125 9.703125 C2.442705 9.651041 1.804690 9.223962 1.289062 8.421875 C0.773435 7.619788 0.343752 6.588548 0.000000 5.328125 C0.114584 5.338542 0.231770 5.346354 0.351562 5.351562 C0.471355 5.356771 0.588541 5.359375 0.703125 5.359375 C1.536462 5.359375 2.338538 5.179689 3.109375 4.820312 C3.880212 4.460936 4.583330 3.854171 5.218750 3.000000 Z M17.312500 18.046875 C16.885415 18.046875 16.526043 17.882814 16.234375 17.554688 C15.942707 17.226561 15.796875 16.838544 15.796875 16.390625 C15.796875 15.932289 15.940103 15.541668 16.226562 15.218750 C16.513022 14.895832 16.874998 14.734375 17.312500 14.734375 C17.750002 14.734375 18.111978 14.895832 18.398438 15.218750 C18.684897 15.541668 18.828125 15.932289 18.828125 16.390625 C18.828125 16.838544 18.684897 17.226561 18.398438 17.554688 C18.111978 17.882814 17.750002 18.046875 17.312500 18.046875 Z M3.296875 17.656250 C3.015624 17.364582 2.742189 16.867191 2.476562 16.164062 C2.210936 15.460934 1.992188 14.690108 1.820312 13.851562 C1.648437 13.013017 1.562500 12.250003 1.562500 11.562500 C1.562500 9.333322 2.031245 7.348967 2.968750 5.609375 C3.906255 3.869783 5.257804 2.500005 7.023438 1.500000 C8.789071 0.499995 10.916654 -0.000000 13.406250 -0.000000 C15.114592 -0.000000 16.588535 0.291664 17.828125 0.875000 C19.067715 1.458336 20.083329 2.369785 20.875000 3.609375 C21.833338 3.921877 22.669267 4.460934 23.382812 5.226562 C24.096358 5.992191 24.648436 6.916661 25.039062 8.000000 C25.429689 9.083339 25.625000 10.270827 25.625000 11.562500 C25.625000 12.250003 25.539063 13.013017 25.367188 13.851562 C25.195312 14.690108 24.979168 15.460934 24.718750 16.164062 C24.458332 16.867191 24.182293 17.364582 23.890625 17.656250 L23.453125 15.062500 C22.942706 14.760415 22.398440 14.375002 21.820312 13.906250 C21.242185 13.437498 20.708336 12.890628 20.218750 12.265625 C19.729164 11.640622 19.348960 10.937504 19.078125 10.156250 C18.338538 10.822920 17.510421 11.419268 16.593750 11.945312 C15.677079 12.471357 14.828129 12.882811 14.046875 13.179688 C13.265621 13.476564 12.697918 13.625000 12.343750 13.625000 C11.927081 13.625000 11.718750 13.416669 11.718750 13.000000 C11.718750 12.666665 11.828124 12.244794 12.046875 11.734375 L13.343750 8.703125 C11.239573 9.734380 9.346363 10.838536 7.664062 12.015625 C5.981762 13.192714 4.552089 14.510409 3.375000 15.968750 Z M33.125000 27.343750" /></svg>