<svg version="1.1" xmlns="http://www.w3.org/2000/svg" style="fill:rgba(0,0,0,1.0)" width="256" height="256" viewBox="0 0 35.25 33.59375"><path fill="rgb(255, 255, 255)" d="M8.640625 30.218750 C6.994783 30.218750 6.020835 29.609381 5.718750 28.390625 C5.677083 28.390625 5.640625 28.390625 5.609375 28.390625 C5.578125 28.390625 5.546875 28.390625 5.515625 28.390625 C4.494787 28.390625 3.565108 28.283855 2.726562 28.070312 C1.888017 27.856770 1.223961 27.544273 0.734375 27.132812 C0.244789 26.721352 0.000000 26.218753 0.000000 25.625000 C0.000000 25.041664 0.249998 24.536460 0.750000 24.109375 C1.250002 23.682290 1.958329 23.244794 2.875000 22.796875 C4.500008 22.015621 5.567706 21.109380 6.078125 20.078125 L7.484375 20.750000 C6.817705 22.104173 5.500010 23.244787 3.531250 24.171875 C2.833330 24.494793 2.330731 24.778645 2.023438 25.023438 C1.716144 25.268230 1.562500 25.468749 1.562500 25.625000 C1.562500 25.812501 1.736977 25.999999 2.085938 26.187500 C2.434898 26.375001 2.908851 26.531249 3.507812 26.656250 C4.106774 26.781251 4.776038 26.843750 5.515625 26.843750 C5.744793 26.843750 5.973957 26.838542 6.203125 26.828125 C6.432293 26.817708 6.760415 26.786459 7.187500 26.734375 C7.114583 27.463545 7.158853 27.968749 7.320312 28.250000 C7.481772 28.531251 7.921871 28.671875 8.640625 28.671875 C9.380212 28.671875 10.213537 28.489585 11.140625 28.125000 L12.656250 27.515625 C12.947918 27.963544 13.286456 28.268228 13.671875 28.429688 C14.057294 28.591147 14.479164 28.671875 14.937500 28.671875 C15.395836 28.671875 15.817706 28.591147 16.203125 28.429688 C16.588544 28.268228 16.927082 27.963544 17.218750 27.515625 L18.734375 28.125000 C19.661463 28.489585 20.494788 28.671875 21.234375 28.671875 C21.953129 28.671875 22.393228 28.528647 22.554688 28.242188 C22.716147 27.955728 22.760417 27.447920 22.687500 26.718750 C23.083335 26.781250 23.403645 26.817708 23.648438 26.828125 C23.893230 26.838542 24.130207 26.843750 24.359375 26.843750 C25.098962 26.843750 25.765622 26.781251 26.359375 26.656250 C26.953128 26.531249 27.427082 26.375001 27.781250 26.187500 C28.135418 25.999999 28.312500 25.812501 28.312500 25.625000 C28.312500 25.447916 28.153647 25.231772 27.835938 24.976562 C27.518228 24.721353 27.083336 24.489584 26.531250 24.281250 C24.458323 23.479163 23.098962 22.286466 22.453125 20.703125 L23.890625 20.125000 C24.380211 21.312506 25.447908 22.218747 27.093750 22.843750 C27.916671 23.156252 28.585935 23.552081 29.101562 24.031250 C29.617190 24.510419 29.875000 25.041664 29.875000 25.625000 C29.875000 26.218753 29.627607 26.721352 29.132812 27.132812 C28.638018 27.544273 27.973962 27.856770 27.140625 28.070312 C26.307288 28.283855 25.380213 28.390625 24.359375 28.390625 C24.328125 28.390625 24.296875 28.390625 24.265625 28.390625 C24.234375 28.390625 24.197917 28.390625 24.156250 28.390625 C23.854165 29.609381 22.880217 30.218750 21.234375 30.218750 C20.755206 30.218750 20.260419 30.158855 19.750000 30.039062 C19.239581 29.919270 18.703128 29.750001 18.140625 29.531250 L17.734375 29.375000 C17.036455 29.937503 16.104172 30.218750 14.937500 30.218750 C13.770828 30.218750 12.838545 29.937503 12.140625 29.375000 L11.734375 29.531250 C11.171872 29.750001 10.635419 29.919270 10.125000 30.039062 C9.614581 30.158855 9.119794 30.218750 8.640625 30.218750 Z M14.937500 33.593750 C14.145829 33.593750 13.513023 33.486980 13.039062 33.273438 C12.565102 33.059895 12.328125 32.713544 12.328125 32.234375 C12.328125 31.848956 12.440103 31.447919 12.664062 31.031250 C12.888022 30.614581 13.000000 30.156252 13.000000 29.656250 L13.000000 28.609375 C13.645837 28.828126 14.291663 28.921875 14.937500 28.890625 C15.583337 28.859375 16.229163 28.765626 16.875000 28.609375 L16.875000 29.656250 C16.875000 30.156252 16.986978 30.614581 17.210938 31.031250 C17.434897 31.447919 17.546875 31.848956 17.546875 32.234375 C17.546875 32.713544 17.312502 33.059895 16.843750 33.273438 C16.374998 33.486980 15.739587 33.593750 14.937500 33.593750 Z M12.062500 28.296875 C11.614581 28.296875 11.234377 28.138022 10.921875 27.820312 C10.609373 27.502603 10.453125 27.114586 10.453125 26.656250 C10.453125 26.197914 10.609373 25.812502 10.921875 25.500000 C11.234377 25.187498 11.614581 25.031250 12.062500 25.031250 C12.520836 25.031250 12.906248 25.187498 13.218750 25.500000 C13.531252 25.812502 13.687500 26.197914 13.687500 26.656250 C13.687500 27.104169 13.531252 27.489582 13.218750 27.812500 C12.906248 28.135418 12.520836 28.296875 12.062500 28.296875 Z M9.687500 22.968750 C9.239581 22.968750 8.859377 22.809897 8.546875 22.492188 C8.234373 22.174478 8.078125 21.786461 8.078125 21.328125 C8.078125 20.869789 8.234373 20.484377 8.546875 20.171875 C8.859377 19.859373 9.239581 19.703125 9.687500 19.703125 C10.145836 19.703125 10.531248 19.859373 10.843750 20.171875 C11.156252 20.484377 11.312500 20.869789 11.312500 21.328125 C11.312500 21.776044 11.156252 22.161457 10.843750 22.484375 C10.531248 22.807293 10.145836 22.968750 9.687500 22.968750 Z M20.578125 27.187500 C20.130206 27.187500 19.750002 27.028647 19.437500 26.710938 C19.124998 26.393228 18.968750 26.005211 18.968750 25.546875 C18.968750 25.088539 19.124998 24.703127 19.437500 24.390625 C19.750002 24.078123 20.130206 23.921875 20.578125 23.921875 C21.036461 23.921875 21.421873 24.078123 21.734375 24.390625 C22.046877 24.703127 22.203125 25.088539 22.203125 25.546875 C22.203125 25.994794 22.046877 26.380207 21.734375 26.703125 C21.421873 27.026043 21.036461 27.187500 20.578125 27.187500 Z M10.000000 16.171875 C9.552081 16.171875 9.171877 16.013022 8.859375 15.695312 C8.546873 15.377603 8.390625 14.989586 8.390625 14.531250 C8.390625 14.072914 8.546873 13.687502 8.859375 13.375000 C9.171877 13.062498 9.552081 12.906250 10.000000 12.906250 C10.458336 12.906250 10.843748 13.062498 11.156250 13.375000 C11.468752 13.687502 11.625000 14.072914 11.625000 14.531250 C11.625000 14.979169 11.468752 15.364582 11.156250 15.687500 C10.843748 16.010418 10.458336 16.171875 10.000000 16.171875 Z M14.703125 19.546875 C14.255206 19.546875 13.875002 19.388022 13.562500 19.070312 C13.249998 18.752603 13.093750 18.364586 13.093750 17.906250 C13.093750 17.447914 13.249998 17.062502 13.562500 16.750000 C13.875002 16.437498 14.255206 16.281250 14.703125 16.281250 C15.161461 16.281250 15.546873 16.437498 15.859375 16.750000 C16.171877 17.062502 16.328125 17.447914 16.328125 17.906250 C16.328125 18.354169 16.171877 18.739582 15.859375 19.062500 C15.546873 19.385418 15.161461 19.546875 14.703125 19.546875 Z M14.593750 23.281250 C13.718746 23.281250 12.953128 23.059898 12.296875 22.617188 C11.640622 22.174477 11.067711 21.578129 10.578125 20.828125 C9.973955 21.015626 9.341149 21.145833 8.679688 21.218750 C8.018226 21.291667 7.437502 21.328125 6.937500 21.328125 C5.427076 21.328125 4.263025 21.054690 3.445312 20.507812 C2.627600 19.960935 2.218750 19.286462 2.218750 18.484375 C2.218750 17.890622 2.513018 17.333336 3.101562 16.812500 C3.690107 16.291664 4.453120 15.828127 5.390625 15.421875 C6.442714 14.963539 7.179685 14.549481 7.601562 14.179688 C8.023440 13.809894 8.234375 13.427085 8.234375 13.031250 L9.796875 13.031250 C9.796875 13.812504 9.500003 14.499997 8.906250 15.093750 C8.312497 15.687503 7.348965 16.265622 6.015625 16.828125 C5.338538 17.119793 4.796877 17.424478 4.390625 17.742188 C3.984373 18.059897 3.781250 18.307291 3.781250 18.484375 C3.781250 18.755210 4.028643 19.041665 4.523438 19.343750 C5.018232 19.645835 5.822911 19.796875 6.937500 19.796875 C7.833338 19.796875 8.614580 19.708334 9.281250 19.531250 C9.947920 19.354166 10.609372 19.119793 11.265625 18.828125 C11.630210 19.661462 12.109372 20.356768 12.703125 20.914062 C13.296878 21.471357 13.942705 21.750000 14.640625 21.750000 C15.473962 21.750000 16.200518 21.476565 16.820312 20.929688 C17.440107 20.382810 17.880207 19.750004 18.140625 19.031250 C18.546877 19.166667 19.195308 19.343749 20.085938 19.562500 C20.976567 19.781251 21.895829 19.890625 22.843750 19.890625 C23.468753 19.890625 24.075518 19.820313 24.664062 19.679688 C25.252607 19.539062 25.736977 19.367189 26.117188 19.164062 C26.497398 18.960936 26.687500 18.770834 26.687500 18.593750 C26.687500 18.500000 26.541668 18.346355 26.250000 18.132812 C25.958332 17.919270 25.489587 17.682293 24.843750 17.421875 C23.583327 16.901039 22.596358 16.247400 21.882812 15.460938 C21.169267 14.674475 20.812500 13.838546 20.812500 12.953125 L22.375000 12.953125 C22.375000 13.494794 22.645831 14.041664 23.187500 14.593750 C23.729169 15.145836 24.479162 15.619790 25.437500 16.015625 C26.343755 16.390627 27.039060 16.776040 27.523438 17.171875 C28.007815 17.567710 28.250000 18.041664 28.250000 18.593750 C28.250000 19.156253 27.992190 19.651040 27.476562 20.078125 C26.960935 20.505210 26.291671 20.835936 25.468750 21.070312 C24.645829 21.304689 23.770838 21.421875 22.843750 21.421875 C22.229164 21.421875 21.539066 21.372396 20.773438 21.273438 C20.007809 21.174479 19.333336 21.057292 18.750000 20.921875 C18.208331 21.755212 17.611982 22.356769 16.960938 22.726562 C16.309893 23.096356 15.520838 23.281250 14.593750 23.281250 Z M21.500000 22.015625 C21.052081 22.015625 20.671877 21.856772 20.359375 21.539062 C20.046873 21.221353 19.890625 20.833336 19.890625 20.375000 C19.890625 19.916664 20.046873 19.531252 20.359375 19.218750 C20.671877 18.906248 21.052081 18.750000 21.500000 18.750000 C21.958336 18.750000 22.343748 18.906248 22.656250 19.218750 C22.968752 19.531252 23.125000 19.916664 23.125000 20.375000 C23.125000 20.822919 22.968752 21.208332 22.656250 21.531250 C22.343748 21.854168 21.958336 22.015625 21.500000 22.015625 Z M15.906250 11.500000 C15.458331 11.500000 15.078127 11.341147 14.765625 11.023438 C14.453123 10.705728 14.296875 10.317711 14.296875 9.859375 C14.296875 9.401039 14.453123 9.015627 14.765625 8.703125 C15.078127 8.390623 15.458331 8.234375 15.906250 8.234375 C16.364586 8.234375 16.749998 8.390623 17.062500 8.703125 C17.375002 9.015627 17.531250 9.401039 17.531250 9.859375 C17.531250 10.307294 17.375002 10.692707 17.062500 11.015625 C16.749998 11.338543 16.364586 11.500000 15.906250 11.500000 Z M20.562500 15.687500 C20.114581 15.687500 19.734377 15.528647 19.421875 15.210938 C19.109373 14.893228 18.953125 14.505211 18.953125 14.046875 C18.953125 13.588539 19.109373 13.203127 19.421875 12.890625 C19.734377 12.578123 20.114581 12.421875 20.562500 12.421875 C21.020836 12.421875 21.406248 12.578123 21.718750 12.890625 C22.031252 13.203127 22.187500 13.588539 22.187500 14.046875 C22.187500 14.494794 22.031252 14.880207 21.718750 15.203125 C21.406248 15.526043 21.020836 15.687500 20.562500 15.687500 Z M11.843750 10.500000 C11.458331 10.500000 11.265625 10.302085 11.265625 9.906250 C11.265625 9.520831 11.458331 9.328125 11.843750 9.328125 C12.010417 9.328125 12.151041 9.382812 12.265625 9.492188 C12.380209 9.601563 12.437500 9.739583 12.437500 9.906250 C12.437500 10.072917 12.380209 10.213541 12.265625 10.328125 C12.151041 10.442709 12.010417 10.500000 11.843750 10.500000 Z M13.093750 12.062500 C12.708331 12.062500 12.515625 11.864585 12.515625 11.468750 C12.515625 11.083331 12.708331 10.890625 13.093750 10.890625 C13.260417 10.890625 13.401041 10.945312 13.515625 11.054688 C13.630209 11.164063 13.687500 11.302083 13.687500 11.468750 C13.687500 11.635417 13.630209 11.776041 13.515625 11.890625 C13.401041 12.005209 13.260417 12.062500 13.093750 12.062500 Z M14.812500 13.000000 C14.427081 13.000000 14.234375 12.802085 14.234375 12.406250 C14.234375 12.020831 14.427081 11.828125 14.812500 11.828125 C14.979168 11.828125 15.119791 11.882812 15.234375 11.992188 C15.348959 12.101563 15.406250 12.239583 15.406250 12.406250 C15.406250 12.572917 15.348959 12.713541 15.234375 12.828125 C15.119791 12.942709 14.979168 13.000000 14.812500 13.000000 Z M18.406250 11.140625 C18.020831 11.140625 17.828125 10.942710 17.828125 10.546875 C17.828125 10.161456 18.020831 9.968750 18.406250 9.968750 C18.572918 9.968750 18.713541 10.023437 18.828125 10.132812 C18.942709 10.242188 19.000000 10.380208 19.000000 10.546875 C19.000000 10.713542 18.942709 10.854166 18.828125 10.968750 C18.713541 11.083334 18.572918 11.140625 18.406250 11.140625 Z M20.109375 10.390625 C19.723956 10.390625 19.531250 10.192710 19.531250 9.796875 C19.531250 9.411456 19.723956 9.218750 20.109375 9.218750 C20.276042 9.218750 20.416666 9.273437 20.531250 9.382812 C20.645834 9.492188 20.703125 9.630208 20.703125 9.796875 C20.703125 9.963542 20.645834 10.104166 20.531250 10.218750 C20.416666 10.333334 20.276042 10.390625 20.109375 10.390625 Z M6.468750 16.078125 C6.635418 16.078125 6.776041 16.135416 6.890625 16.250000 C7.005209 16.364584 7.062500 16.505208 7.062500 16.671875 C7.062500 16.838542 7.005209 16.976562 6.890625 17.085938 C6.776041 17.195313 6.635418 17.250000 6.468750 17.250000 C6.083331 17.250000 5.890625 17.057294 5.890625 16.671875 C5.890625 16.276040 6.083331 16.078125 6.468750 16.078125 Z M7.875000 17.296875 C8.041668 17.296875 8.182291 17.354166 8.296875 17.468750 C8.411459 17.583334 8.468750 17.723958 8.468750 17.890625 C8.468750 18.057293 8.411459 18.195312 8.296875 18.304688 C8.182291 18.414063 8.041668 18.468750 7.875000 18.468750 C7.489581 18.468750 7.296875 18.276044 7.296875 17.890625 C7.296875 17.494790 7.489581 17.296875 7.875000 17.296875 Z M9.843750 16.796875 C10.010418 16.796875 10.151041 16.854166 10.265625 16.968750 C10.380209 17.083334 10.437500 17.223958 10.437500 17.390625 C10.437500 17.557292 10.380209 17.695312 10.265625 17.804688 C10.151041 17.914063 10.010418 17.968750 9.843750 17.968750 C9.458331 17.968750 9.265625 17.776044 9.265625 17.390625 C9.265625 16.994790 9.458331 16.796875 9.843750 16.796875 Z M11.875000 16.328125 C12.041668 16.328125 12.182291 16.385416 12.296875 16.500000 C12.411459 16.614584 12.468750 16.755208 12.468750 16.921875 C12.468750 17.088542 12.411459 17.226562 12.296875 17.335938 C12.182291 17.445313 12.041668 17.500000 11.875000 17.500000 C11.489581 17.500000 11.296875 17.307294 11.296875 16.921875 C11.296875 16.526040 11.489581 16.328125 11.875000 16.328125 Z M17.468750 18.953125 C17.083331 18.953125 16.890625 18.755210 16.890625 18.359375 C16.890625 17.973956 17.083331 17.781250 17.468750 17.781250 C17.635418 17.781250 17.776041 17.835937 17.890625 17.945312 C18.005209 18.054688 18.062500 18.192707 18.062500 18.359375 C18.062500 18.526042 18.005209 18.666666 17.890625 18.781250 C17.776041 18.895834 17.635418 18.953125 17.468750 18.953125 Z M19.031250 17.859375 C18.645831 17.859375 18.453125 17.661460 18.453125 17.265625 C18.453125 16.880206 18.645831 16.687500 19.031250 16.687500 C19.197918 16.687500 19.338541 16.742187 19.453125 16.851562 C19.567709 16.960938 19.625000 17.098958 19.625000 17.265625 C19.625000 17.432292 19.567709 17.572916 19.453125 17.687500 C19.338541 17.802084 19.197918 17.859375 19.031250 17.859375 Z M21.062500 17.546875 C20.677081 17.546875 20.484375 17.348960 20.484375 16.953125 C20.484375 16.567706 20.677081 16.375000 21.062500 16.375000 C21.229168 16.375000 21.369791 16.429687 21.484375 16.539062 C21.598959 16.648438 21.656250 16.786458 21.656250 16.953125 C21.656250 17.119792 21.598959 17.260416 21.484375 17.375000 C21.369791 17.489584 21.229168 17.546875 21.062500 17.546875 Z M22.781250 16.921875 C22.395831 16.921875 22.203125 16.723960 22.203125 16.328125 C22.203125 15.942706 22.395831 15.750000 22.781250 15.750000 C22.947918 15.750000 23.088541 15.804687 23.203125 15.914062 C23.317709 16.023438 23.375000 16.161458 23.375000 16.328125 C23.375000 16.494792 23.317709 16.635416 23.203125 16.750000 C23.088541 16.864584 22.947918 16.921875 22.781250 16.921875 Z M14.125000 24.921875 C13.739581 24.921875 13.546875 24.723960 13.546875 24.328125 C13.546875 23.942706 13.739581 23.750000 14.125000 23.750000 C14.291668 23.750000 14.432291 23.804687 14.546875 23.914062 C14.661459 24.023438 14.718750 24.161457 14.718750 24.328125 C14.718750 24.494793 14.661459 24.635416 14.546875 24.750000 C14.432291 24.864584 14.291668 24.921875 14.125000 24.921875 Z M16.250000 25.109375 C15.864581 25.109375 15.671875 24.911460 15.671875 24.515625 C15.671875 24.130206 15.864581 23.937500 16.250000 23.937500 C16.416668 23.937500 16.557291 23.992187 16.671875 24.101562 C16.786459 24.210938 16.843750 24.348957 16.843750 24.515625 C16.843750 24.682292 16.786459 24.822916 16.671875 24.937500 C16.557291 25.052084 16.416668 25.109375 16.250000 25.109375 Z M17.656250 26.515625 C17.270831 26.515625 17.078125 26.317710 17.078125 25.921875 C17.078125 25.536456 17.270831 25.343750 17.656250 25.343750 C17.822918 25.343750 17.963541 25.398437 18.078125 25.507812 C18.192709 25.617188 18.250000 25.755208 18.250000 25.921875 C18.250000 26.088542 18.192709 26.229166 18.078125 26.343750 C17.963541 26.458334 17.822918 26.515625 17.656250 26.515625 Z M22.750000 23.421875 C22.916668 23.421875 23.057291 23.479166 23.171875 23.593750 C23.286459 23.708334 23.343750 23.848958 23.343750 24.015625 C23.343750 24.182293 23.286459 24.320312 23.171875 24.429688 C23.057291 24.539063 22.916668 24.593750 22.750000 24.593750 C22.364581 24.593750 22.171875 24.401044 22.171875 24.015625 C22.171875 23.619790 22.364581 23.421875 22.750000 23.421875 Z M24.625000 24.515625 C24.791668 24.515625 24.932291 24.572916 25.046875 24.687500 C25.161459 24.802084 25.218750 24.942707 25.218750 25.109375 C25.218750 25.276042 25.161459 25.414062 25.046875 25.523438 C24.932291 25.632813 24.791668 25.687500 24.625000 25.687500 C24.239581 25.687500 24.046875 25.494794 24.046875 25.109375 C24.046875 24.713540 24.239581 24.515625 24.625000 24.515625 Z M26.812500 24.828125 C26.979168 24.828125 27.119791 24.885416 27.234375 25.000000 C27.348959 25.114584 27.406250 25.255208 27.406250 25.421875 C27.406250 25.588543 27.348959 25.726562 27.234375 25.835938 C27.119791 25.945313 26.979168 26.000000 26.812500 26.000000 C26.427081 26.000000 26.234375 25.807294 26.234375 25.421875 C26.234375 25.026040 26.427081 24.828125 26.812500 24.828125 Z M5.875000 23.265625 C6.041668 23.265625 6.182291 23.322916 6.296875 23.437500 C6.411459 23.552084 6.468750 23.692708 6.468750 23.859375 C6.468750 24.026043 6.411459 24.164062 6.296875 24.273438 C6.182291 24.382813 6.041668 24.437500 5.875000 24.437500 C5.489581 24.437500 5.296875 24.244794 5.296875 23.859375 C5.296875 23.463540 5.489581 23.265625 5.875000 23.265625 Z M7.437500 24.515625 C7.604168 24.515625 7.744791 24.572916 7.859375 24.687500 C7.973959 24.802084 8.031250 24.942707 8.031250 25.109375 C8.031250 25.276042 7.973959 25.414062 7.859375 25.523438 C7.744791 25.632813 7.604168 25.687500 7.437500 25.687500 C7.052081 25.687500 6.859375 25.494794 6.859375 25.109375 C6.859375 24.713540 7.052081 24.515625 7.437500 24.515625 Z M9.625000 24.828125 C9.791668 24.828125 9.932291 24.885416 10.046875 25.000000 C10.161459 25.114584 10.218750 25.255208 10.218750 25.421875 C10.218750 25.588543 10.161459 25.726562 10.046875 25.835938 C9.932291 25.945313 9.791668 26.000000 9.625000 26.000000 C9.239581 26.000000 9.046875 25.807294 9.046875 25.421875 C9.046875 25.026040 9.239581 24.828125 9.625000 24.828125 Z M13.843750 6.328125 L13.437500 6.062500 L15.109375 5.171875 L16.781250 6.062500 L16.375000 6.328125 L16.062500 4.500000 L17.000000 3.593750 L15.734375 3.437500 L14.875000 1.734375 L15.359375 1.734375 L14.500000 3.437500 L13.218750 3.593750 L14.156250 4.500000 Z M12.437500 7.125000 L12.765625 5.218750 C12.786458 5.135416 12.776042 5.052084 12.734375 4.968750 C12.692708 4.885416 12.640625 4.817709 12.578125 4.765625 L11.218750 3.421875 C11.083333 3.276041 11.046875 3.101564 11.109375 2.898438 C11.171875 2.695311 11.302082 2.583333 11.500000 2.562500 L13.406250 2.312500 C13.489584 2.302083 13.567708 2.268229 13.640625 2.210938 C13.713542 2.153646 13.770833 2.088542 13.812500 2.015625 L14.640625 0.281250 C14.723959 0.093749 14.874999 -0.000000 15.093750 -0.000000 C15.322918 -0.000000 15.479166 0.093749 15.562500 0.281250 L16.390625 2.015625 C16.432292 2.088542 16.486979 2.153646 16.554688 2.210938 C16.622396 2.268229 16.697916 2.302083 16.781250 2.312500 L18.703125 2.562500 C18.901043 2.583333 19.033854 2.695311 19.101562 2.898438 C19.169271 3.101564 19.130209 3.276041 18.984375 3.421875 L17.593750 4.765625 C17.531250 4.828125 17.486979 4.898437 17.460938 4.976562 C17.434896 5.054688 17.427083 5.135416 17.437500 5.218750 L17.750000 7.125000 C17.791667 7.354168 17.718751 7.518229 17.531250 7.617188 C17.343749 7.716146 17.177084 7.729167 17.031250 7.656250 L15.312500 6.765625 C15.218750 6.713541 15.132813 6.695312 15.054688 6.710938 C14.976562 6.726563 14.911459 6.744792 14.859375 6.765625 L13.156250 7.656250 C12.989582 7.739584 12.817709 7.726563 12.640625 7.617188 C12.463541 7.507812 12.395833 7.343751 12.437500 7.125000 Z M6.000000 11.890625 C6.000000 11.453123 6.187498 11.049481 6.562500 10.679688 C6.937502 10.309894 7.442705 9.942710 8.078125 9.578125 C8.838545 9.140623 9.632808 8.604170 10.460938 7.968750 C11.289067 7.333330 12.078121 6.640629 12.828125 5.890625 L13.156250 7.656250 C12.531247 8.145836 12.005210 8.554686 11.578125 8.882812 C11.151040 9.210939 10.742189 9.507811 10.351562 9.773438 C9.960936 10.039064 9.505211 10.338540 8.984375 10.671875 C8.557290 10.932293 8.229168 11.148437 8.000000 11.320312 C7.770832 11.492188 7.656250 11.656249 7.656250 11.812500 C7.656250 11.968751 7.895831 12.093750 8.375000 12.187500 C8.854169 12.281250 9.380205 12.328125 9.953125 12.328125 C10.213543 12.328125 10.539061 12.304688 10.929688 12.257812 C11.320314 12.210937 11.695311 12.148438 12.054688 12.070312 C12.414064 11.992187 12.677083 11.906250 12.843750 11.812500 C13.041668 12.572920 13.395831 13.208331 13.906250 13.718750 C14.416669 14.229169 14.932289 14.484375 15.453125 14.484375 C16.296879 14.484375 16.770833 13.645842 16.875000 11.968750 C17.156251 12.031250 17.520831 12.093750 17.968750 12.156250 C18.416669 12.218750 18.867185 12.268229 19.320312 12.304688 C19.773440 12.341146 20.156248 12.359375 20.468750 12.359375 C21.062503 12.359375 21.531248 12.291667 21.875000 12.156250 C22.218752 12.020833 22.390625 11.880209 22.390625 11.734375 C22.390625 11.598958 22.265626 11.414064 22.015625 11.179688 C21.765624 10.945311 21.255212 10.588544 20.484375 10.109375 C19.953122 9.776040 19.416669 9.411460 18.875000 9.015625 C18.333331 8.619790 17.718753 8.166669 17.031250 7.656250 L17.421875 6.000000 C17.723960 6.291668 18.101560 6.611977 18.554688 6.960938 C19.007815 7.309898 19.708329 7.786455 20.656250 8.390625 C21.864589 9.151045 22.716143 9.765623 23.210938 10.234375 C23.705732 10.703127 23.953125 11.203122 23.953125 11.734375 C23.953125 12.432295 23.625003 12.966144 22.968750 13.335938 C22.312497 13.705731 21.479172 13.890625 20.468750 13.890625 C20.166665 13.890625 19.809898 13.875000 19.398438 13.843750 C18.986977 13.812500 18.572919 13.776042 18.156250 13.734375 C17.677081 15.255216 16.776048 16.015625 15.453125 16.015625 C14.776038 16.015625 14.122399 15.799481 13.492188 15.367188 C12.861976 14.934894 12.348960 14.364587 11.953125 13.656250 C11.630207 13.708334 11.283856 13.755208 10.914062 13.796875 C10.544269 13.838542 10.223960 13.859375 9.953125 13.859375 C8.869786 13.859375 7.940108 13.700522 7.164062 13.382812 C6.388017 13.065103 6.000000 12.567712 6.000000 11.890625 Z M35.250000 28.125000" /></svg>