<svg version="1.1" xmlns="http://www.w3.org/2000/svg" style="fill:rgba(0,0,0,1.0)" width="256" height="256" viewBox="0 0 36.953125 32.8125"><path fill="rgb(255, 255, 255)" d="M2.453125 24.734375 C2.453125 23.494785 2.682289 22.445317 3.140625 21.585938 C3.598961 20.726558 4.369786 19.997399 5.453125 19.398438 C6.536464 18.799476 8.005199 18.265627 9.859375 17.796875 C11.161465 17.463540 12.036456 17.174480 12.484375 16.929688 C12.932294 16.684895 13.156250 16.427085 13.156250 16.156250 C13.156250 16.010416 13.065105 15.843751 12.882812 15.656250 C12.700520 15.468749 12.359378 15.291667 11.859375 15.125000 C11.359373 14.958333 10.640630 14.843750 9.703125 14.781250 C8.661453 14.708333 7.575526 14.533856 6.445312 14.257812 C5.315099 13.981769 4.260422 13.536461 3.281250 12.921875 C2.302078 12.307289 1.510420 11.466151 0.906250 10.398438 C0.302080 9.330724 0.000000 7.968758 0.000000 6.312500 C0.000000 5.135411 0.249998 4.010422 0.750000 2.937500 C1.250002 1.864578 2.161452 0.885421 3.484375 -0.000000 C3.484375 1.531258 3.783851 2.742183 4.382812 3.632812 C4.981774 4.523442 6.023430 5.158852 7.507812 5.539062 C8.992195 5.919273 11.067695 6.109375 13.734375 6.109375 C17.776062 6.109375 20.851552 6.661453 22.960938 7.765625 C25.070323 8.869797 26.125000 10.557280 26.125000 12.828125 C26.125000 14.161465 25.846357 15.299474 25.289062 16.242188 C24.731768 17.184901 23.976567 17.976559 23.023438 18.617188 C22.070308 19.257816 20.994798 19.789060 19.796875 20.210938 C18.598952 20.632815 17.356777 20.976561 16.070312 21.242188 C14.783848 21.507814 13.536464 21.744791 12.328125 21.953125 C10.088530 22.338544 8.111988 22.729165 6.398438 23.125000 C4.684887 23.520835 3.369796 24.057288 2.453125 24.734375 Z M2.781250 30.406250 L3.234375 29.812500 L3.031250 29.140625 L2.187500 29.250000 L2.078125 29.921875 Z M2.343750 28.187500 L3.203125 28.031250 L3.375000 27.375000 L2.640625 26.937500 L2.171875 27.453125 Z M4.437500 28.781250 L4.921875 28.218750 L4.281250 27.656250 L3.656250 27.906250 L3.750000 28.734375 Z M4.906250 32.812500 L4.906250 31.250000 L30.796875 31.250000 C31.411461 30.666664 31.718750 29.911463 31.718750 28.984375 C31.718750 28.057287 31.411461 27.302086 30.796875 26.718750 L4.906250 26.718750 L4.906250 25.156250 L31.375000 25.156250 C32.645840 26.125005 33.281250 27.401034 33.281250 28.984375 C33.281250 30.567716 32.645840 31.843745 31.375000 32.812500 Z M24.687500 32.000000 C25.302086 31.364580 25.716145 30.830731 25.929688 30.398438 C26.143230 29.966144 26.250000 29.494794 26.250000 28.984375 C26.250000 28.473956 26.143230 28.002606 25.929688 27.570312 C25.716145 27.138019 25.302086 26.604170 24.687500 25.968750 L31.406250 25.968750 C32.104170 26.802088 32.453125 27.807286 32.453125 28.984375 C32.453125 30.161464 32.104170 31.166662 31.406250 32.000000 Z M3.718750 22.937500 C4.218752 22.656249 4.919266 22.380210 5.820312 22.109375 C6.721359 21.838540 7.721349 21.580730 8.820312 21.335938 C9.919276 21.091145 11.005203 20.880209 12.078125 20.703125 C13.317715 20.494791 14.552077 20.265626 15.781250 20.015625 C17.010423 19.765624 18.169265 19.460939 19.257812 19.101562 C20.346360 18.742186 21.312496 18.289065 22.156250 17.742188 C23.000004 17.195310 23.664060 16.520837 24.148438 15.718750 C24.632815 14.916663 24.875000 13.953131 24.875000 12.828125 C24.875000 9.182273 21.161495 7.359375 13.734375 7.359375 C12.567702 7.359375 11.375006 7.325521 10.156250 7.257812 C8.937494 7.190104 7.802089 7.010418 6.750000 6.718750 C5.697911 6.427082 4.820316 5.947920 4.117188 5.281250 C3.414059 4.614580 2.994792 3.687506 2.859375 2.500000 L2.453125 2.500000 C2.036456 2.937502 1.731772 3.492184 1.539062 4.164062 C1.346353 4.835941 1.250000 5.552080 1.250000 6.312500 C1.250000 7.666673 1.494789 8.783850 1.984375 9.664062 C2.473961 10.544275 3.127600 11.239581 3.945312 11.750000 C4.763025 12.260419 5.671870 12.640624 6.671875 12.890625 C7.671880 13.140626 8.682287 13.317708 9.703125 13.421875 C12.317721 13.682293 14.369784 14.109372 15.859375 14.703125 C17.348966 15.296878 18.093750 16.182286 18.093750 17.359375 C18.093750 18.401047 17.479173 19.270830 16.250000 19.968750 C15.020827 20.666670 13.005222 21.359372 10.203125 22.046875 L9.890625 21.140625 C12.348971 20.536455 14.122390 19.906253 15.210938 19.250000 C16.299485 18.593747 16.843750 17.963545 16.843750 17.359375 C16.843750 16.838539 16.549482 16.406252 15.960938 16.062500 C15.372393 15.718748 14.609380 15.442709 13.671875 15.234375 L13.718750 14.937500 C13.927084 15.083334 14.093749 15.255207 14.218750 15.453125 C14.343751 15.651043 14.406250 15.885415 14.406250 16.156250 C14.406250 16.687503 14.205731 17.135415 13.804688 17.500000 C13.403644 17.864585 12.872399 18.171874 12.210938 18.421875 C11.549476 18.671876 10.828129 18.901041 10.046875 19.109375 C8.630201 19.484377 7.523441 19.851561 6.726562 20.210938 C5.929684 20.570314 5.315106 20.966144 4.882812 21.398438 C4.450519 21.830731 4.062502 22.343747 3.718750 22.937500 Z M19.968750 19.453125 L19.687500 18.953125 C20.468754 18.526040 21.091144 17.976566 21.554688 17.304688 C22.018231 16.632809 22.250000 16.000003 22.250000 15.406250 C22.250000 14.239578 21.492195 13.281254 19.976562 12.531250 C18.460930 11.781246 16.119808 11.208335 12.953125 10.812500 C10.203111 10.458332 8.036466 9.942712 6.453125 9.265625 C4.869784 8.588538 3.744795 7.664068 3.078125 6.492188 C2.411455 5.320307 2.078125 3.828134 2.078125 2.015625 L3.328125 2.015625 C3.328125 3.578133 3.609372 4.859370 4.171875 5.859375 C4.734378 6.859380 5.723951 7.645830 7.140625 8.218750 C8.557299 8.791670 10.546862 9.239582 13.109375 9.562500 C16.619809 10.000002 19.229158 10.687495 20.937500 11.625000 C22.645842 12.562505 23.500000 13.822909 23.500000 15.406250 C23.500000 16.239588 23.158858 16.986976 22.476562 17.648438 C21.794267 18.309899 20.958338 18.911456 19.968750 19.453125 Z M4.906250 32.812500 C4.604165 32.812500 4.393230 32.778646 4.273438 32.710938 C4.153645 32.643229 3.843752 32.526042 3.343750 32.359375 C3.104165 32.276041 2.864585 32.216146 2.625000 32.179688 C2.385415 32.143229 2.140626 32.104167 1.890625 32.062500 C1.463540 32.000000 1.250000 31.723961 1.250000 31.234375 C1.250000 31.151041 1.231771 31.028647 1.195312 30.867188 C1.158854 30.705728 1.057292 30.520834 0.890625 30.312500 C0.765624 30.145832 0.666667 29.971355 0.593750 29.789062 C0.520833 29.606770 0.484375 29.354168 0.484375 29.031250 C0.484375 28.854166 0.533854 28.679688 0.632812 28.507812 C0.731771 28.335937 0.781250 28.182292 0.781250 28.046875 C0.781250 27.953125 0.770833 27.851563 0.750000 27.742188 C0.729167 27.632812 0.718750 27.494792 0.718750 27.328125 C0.718750 26.973957 0.906248 26.697918 1.281250 26.500000 C1.500001 26.385416 1.674479 26.270834 1.804688 26.156250 C1.934896 26.041666 2.052083 25.901042 2.156250 25.734375 C2.239584 25.619791 2.374999 25.533854 2.562500 25.476562 C2.750001 25.419271 2.937499 25.390625 3.125000 25.390625 C3.218750 25.390625 3.304687 25.395833 3.382812 25.406250 C3.460938 25.416667 3.583332 25.421875 3.750000 25.421875 C4.020835 25.421875 4.184896 25.377605 4.242188 25.289062 C4.299479 25.200520 4.520831 25.156250 4.906250 25.156250 C5.427086 25.156250 5.908852 25.226562 6.351562 25.367188 C6.794273 25.507813 7.015625 25.755207 7.015625 26.109375 C7.015625 26.203125 7.007813 26.289062 6.992188 26.367188 C6.976562 26.445313 6.968750 26.515625 6.968750 26.578125 C6.968750 26.807293 7.203123 27.041665 7.671875 27.281250 C7.848959 27.364584 8.013020 27.523436 8.164062 27.757812 C8.315105 27.992189 8.390625 28.260415 8.390625 28.562500 C8.390625 28.677084 8.377604 28.794270 8.351562 28.914062 C8.325521 29.033855 8.255209 29.161458 8.140625 29.296875 C7.994791 29.484376 7.833334 29.619791 7.656250 29.703125 C7.479166 29.786459 7.390625 29.963540 7.390625 30.234375 C7.390625 30.536460 7.372396 30.773437 7.335938 30.945312 C7.299479 31.117188 7.203126 31.302082 7.046875 31.500000 C6.765624 31.854168 6.507814 32.161457 6.273438 32.421875 C6.039061 32.682293 5.583337 32.812500 4.906250 32.812500 Z M36.953125 27.343750" /></svg>