<svg version="1.1" xmlns="http://www.w3.org/2000/svg" style="fill:rgba(0,0,0,1.0)" width="256" height="256" viewBox="0 0 36.875 32.8125"><path fill="rgb(255, 255, 255)" d="M16.562500 32.812500 C14.187488 32.812500 11.992198 32.403650 9.976562 31.585938 C7.960927 30.768225 6.208341 29.619799 4.718750 28.140625 C3.229159 26.661451 2.070317 24.924489 1.242188 22.929688 C0.414058 20.934886 0.000000 18.760428 0.000000 16.406250 C0.000000 14.052072 0.414058 11.877614 1.242188 9.882812 C2.070317 7.888011 3.229159 6.151049 4.718750 4.671875 C6.208341 3.192701 7.960927 2.044275 9.976562 1.226562 C11.992198 0.408850 14.187488 -0.000000 16.562500 -0.000000 C18.937512 -0.000000 21.132802 0.408850 23.148438 1.226562 C25.164073 2.044275 26.916659 3.192701 28.406250 4.671875 C29.895841 6.151049 31.054683 7.888011 31.882812 9.882812 C32.710942 11.877614 33.125000 14.052072 33.125000 16.406250 C33.125000 18.760428 32.710942 20.934886 31.882812 22.929688 C31.054683 24.924489 29.895841 26.661451 28.406250 28.140625 C26.916659 29.619799 25.164073 30.768225 23.148438 31.585938 C21.132802 32.403650 18.937512 32.812500 16.562500 32.812500 Z M16.562500 24.890625 C15.302077 24.890625 14.075527 24.669273 12.882812 24.226562 C11.690098 23.783852 10.505214 23.171879 9.328125 22.390625 L10.296875 20.968750 C11.338547 21.666670 12.367182 22.208331 13.382812 22.593750 C14.398443 22.979169 15.458328 23.171875 16.562500 23.171875 C17.666672 23.171875 18.726557 22.979169 19.742188 22.593750 C20.757818 22.208331 21.786453 21.666670 22.828125 20.968750 L23.796875 22.390625 C22.630202 23.171879 21.447923 23.783852 20.250000 24.226562 C19.052077 24.669273 17.822923 24.890625 16.562500 24.890625 Z M11.062500 17.109375 C10.479164 17.109375 9.973960 16.854169 9.546875 16.343750 C9.119790 15.833331 8.906250 15.229170 8.906250 14.531250 C8.906250 13.822913 9.119790 13.216148 9.546875 12.710938 C9.973960 12.205727 10.479164 11.953125 11.062500 11.953125 C11.645836 11.953125 12.151040 12.205727 12.578125 12.710938 C13.005210 13.216148 13.218750 13.822913 13.218750 14.531250 C13.218750 15.229170 13.005210 15.833331 12.578125 16.343750 C12.151040 16.854169 11.645836 17.109375 11.062500 17.109375 Z M16.562500 31.093750 C18.677094 31.093750 20.627595 30.726566 22.414062 29.992188 C24.200530 29.257809 25.752598 28.231777 27.070312 26.914062 C28.388027 25.596348 29.414059 24.041676 30.148438 22.250000 C30.882816 20.458324 31.250000 18.510427 31.250000 16.406250 C31.250000 14.291656 30.882816 12.341155 30.148438 10.554688 C29.414059 8.768220 28.388027 7.216152 27.070312 5.898438 C25.752598 4.580723 24.200530 3.554691 22.414062 2.820312 C20.627595 2.085934 18.677094 1.718750 16.562500 1.718750 C14.458323 1.718750 12.513030 2.085934 10.726562 2.820312 C8.940095 3.554691 7.385423 4.580723 6.062500 5.898438 C4.739577 7.216152 3.710941 8.768220 2.976562 10.554688 C2.242184 12.341155 1.875000 14.291656 1.875000 16.406250 C1.875000 18.510427 2.242184 20.458324 2.976562 22.250000 C3.710941 24.041676 4.736973 25.596348 6.054688 26.914062 C7.372402 28.231777 8.927074 29.257809 10.718750 29.992188 C12.510426 30.726566 14.458323 31.093750 16.562500 31.093750 Z M7.562500 10.984375 L6.187500 10.234375 C6.677086 9.359371 7.320309 8.622399 8.117188 8.023438 C8.914066 7.424476 9.963535 6.890627 11.265625 6.421875 L11.796875 7.890625 C10.661453 8.296877 9.770837 8.736977 9.125000 9.210938 C8.479163 9.684898 7.958335 10.276038 7.562500 10.984375 Z M25.250000 17.421875 C24.583330 17.119790 23.903649 16.882813 23.210938 16.710938 C22.518226 16.539062 21.812504 16.453125 21.093750 16.453125 C20.937499 16.453125 20.773438 16.460937 20.601562 16.476562 C20.429687 16.492188 20.229168 16.515625 20.000000 16.546875 L19.234375 14.875000 C20.182296 14.031246 21.138016 13.302086 22.101562 12.687500 C23.065109 12.072914 24.020829 11.567710 24.968750 11.171875 L25.593750 12.781250 C25.104164 12.979168 24.570315 13.236978 23.992188 13.554688 C23.414060 13.872397 22.755212 14.291664 22.015625 14.812500 C22.057292 14.812500 22.093750 14.812500 22.125000 14.812500 C22.156250 14.812500 22.192708 14.812500 22.234375 14.812500 C22.651044 14.812500 23.213538 14.914061 23.921875 15.117188 C24.630212 15.320314 25.322913 15.572915 26.000000 15.875000 Z M36.875000 27.343750" /></svg>