<svg version="1.1" xmlns="http://www.w3.org/2000/svg" style="fill:rgba(0,0,0,1.0)" width="256" height="256" viewBox="0 0 32.375 32.8125"><path fill="rgb(255, 255, 255)" d="M0.000000 32.812500 L0.000000 4.734375 L24.125000 4.734375 L24.125000 32.812500 Z M4.656250 27.500000 L4.656250 25.937500 L12.062500 25.937500 L12.062500 27.500000 Z M4.656250 23.703125 L4.656250 22.125000 L19.468750 22.125000 L19.468750 23.703125 Z M1.562500 31.250000 L22.562500 31.250000 L22.562500 6.296875 L1.562500 6.296875 Z M4.656250 19.890625 L4.656250 18.328125 L19.468750 18.328125 L19.468750 19.890625 Z M4.656250 16.093750 L4.656250 14.515625 L19.468750 14.515625 L19.468750 16.093750 Z M4.656250 12.281250 L4.656250 10.718750 L19.468750 10.718750 L19.468750 12.281250 Z M6.031250 7.515625 C5.833332 7.515625 5.664063 7.442709 5.523438 7.296875 C5.382812 7.151041 5.312500 6.979168 5.312500 6.781250 L5.312500 6.265625 C5.312500 5.515621 5.575518 4.872399 6.101562 4.335938 C6.627607 3.799476 7.270830 3.531250 8.031250 3.531250 L8.593750 3.531250 C8.906252 3.531250 9.166666 3.416668 9.375000 3.187500 C9.583334 2.958332 9.687500 2.692710 9.687500 2.390625 L9.687500 2.375000 C9.687500 1.729163 9.921873 1.171877 10.390625 0.703125 C10.859377 0.234373 11.416663 -0.000000 12.062500 -0.000000 C12.708337 -0.000000 13.265623 0.234373 13.734375 0.703125 C14.203127 1.171877 14.437500 1.729163 14.437500 2.375000 L14.437500 2.390625 C14.437500 2.692710 14.541666 2.958332 14.750000 3.187500 C14.958334 3.416668 15.218748 3.531250 15.531250 3.531250 L16.093750 3.531250 C16.854170 3.531250 17.497393 3.799476 18.023438 4.335938 C18.549482 4.872399 18.812500 5.515621 18.812500 6.265625 L18.812500 6.781250 C18.812500 6.979168 18.744792 7.151041 18.609375 7.296875 C18.473958 7.442709 18.302084 7.515625 18.093750 7.515625 Z M12.062500 3.375000 C12.333335 3.375000 12.565103 3.278647 12.757812 3.085938 C12.950522 2.893228 13.046875 2.666668 13.046875 2.406250 C13.046875 2.135415 12.950522 1.903647 12.757812 1.710938 C12.565103 1.518228 12.333335 1.421875 12.062500 1.421875 C11.791665 1.421875 11.559897 1.518228 11.367188 1.710938 C11.174478 1.903647 11.078125 2.135415 11.078125 2.406250 C11.078125 2.666668 11.174478 2.893228 11.367188 3.085938 C11.559897 3.278647 11.791665 3.375000 12.062500 3.375000 Z M32.375000 27.343750" /></svg>