<svg version="1.1" xmlns="http://www.w3.org/2000/svg" style="fill:rgba(0,0,0,1.0)" width="256" height="256" viewBox="0 0 37.1875 32.8125"><path fill="rgb(255, 255, 255)" d="M29.625000 30.968750 C28.958330 30.968750 28.317711 30.760419 27.703125 30.343750 L3.406250 13.906250 C4.187504 13.437498 4.979163 13.072918 5.781250 12.812500 C6.583337 12.552082 7.385413 12.395834 8.187500 12.343750 L7.953125 13.109375 L4.625000 10.531250 C5.302087 10.291665 6.098954 10.075522 7.015625 9.882812 C7.932296 9.690103 8.854162 9.526042 9.781250 9.390625 C10.708338 9.255208 11.520830 9.166667 12.218750 9.125000 L12.218750 10.171875 L9.078125 6.718750 L10.453125 5.468750 L13.593750 8.921875 L12.656250 8.812500 C12.885418 7.583327 13.192706 6.356777 13.578125 5.132812 C13.963544 3.908848 14.411456 2.619798 14.921875 1.265625 L17.187500 5.203125 L16.390625 5.328125 C16.463542 5.005207 16.619790 4.570315 16.859375 4.023438 C17.098960 3.476560 17.382811 2.927086 17.710938 2.375000 C18.039064 1.822914 18.359373 1.380210 18.671875 1.046875 L31.953125 27.281250 C32.171876 27.708335 32.281250 28.135415 32.281250 28.562500 C32.281250 29.260420 32.020836 29.835935 31.500000 30.289062 C30.979164 30.742190 30.354170 30.968750 29.625000 30.968750 Z M32.437500 32.812500 C32.020831 32.812500 31.671876 32.661460 31.390625 32.359375 L29.812500 30.609375 L30.953125 29.875000 L31.796875 28.812500 L33.359375 30.546875 C33.619793 30.817710 33.750000 31.151040 33.750000 31.546875 C33.750000 31.911460 33.625001 32.213540 33.375000 32.453125 C33.124999 32.692710 32.812502 32.812500 32.437500 32.812500 Z M3.312500 7.578125 C3.489584 7.578125 3.651041 7.515626 3.796875 7.390625 C3.942709 7.265624 4.015625 7.109376 4.015625 6.921875 C4.015625 6.838541 4.002604 6.755209 3.976562 6.671875 C3.950521 6.588541 3.906250 6.505209 3.843750 6.421875 C3.677082 6.192707 3.554688 5.979168 3.476562 5.781250 C3.398437 5.583332 3.359375 5.364585 3.359375 5.125000 C3.359375 4.635414 3.541665 4.213543 3.906250 3.859375 C4.270835 3.505207 4.708331 3.328125 5.218750 3.328125 C5.833336 3.328125 6.401039 3.604164 6.921875 4.156250 L8.812500 6.171875 L9.937500 5.109375 L8.031250 3.062500 C7.468747 2.447914 6.966148 2.044272 6.523438 1.851562 C6.080727 1.658853 5.588544 1.562500 5.046875 1.562500 C4.505206 1.562500 3.966149 1.710936 3.429688 2.007812 C2.893226 2.304689 2.447918 2.710935 2.093750 3.226562 C1.739582 3.742190 1.562500 4.333330 1.562500 5.000000 C1.562500 5.572920 1.749998 6.130206 2.125000 6.671875 C2.312501 6.942710 2.494791 7.161458 2.671875 7.328125 C2.848959 7.494792 3.062499 7.578125 3.312500 7.578125 Z M3.312500 9.140625 C2.770831 9.140625 2.307294 9.000001 1.921875 8.718750 C1.536456 8.437499 1.177085 8.057294 0.843750 7.578125 C0.281247 6.765621 0.000000 5.906255 0.000000 5.000000 C0.000000 4.041662 0.249998 3.187504 0.750000 2.437500 C1.250002 1.687496 1.885413 1.093752 2.656250 0.656250 C3.427087 0.218748 4.223954 -0.000000 5.046875 -0.000000 C5.807295 -0.000000 6.507809 0.145832 7.148438 0.437500 C7.789066 0.729168 8.458330 1.249996 9.156250 2.000000 L12.156250 5.203125 L8.718750 8.359375 L5.796875 5.218750 C5.588541 4.999999 5.401042 4.890625 5.234375 4.890625 C5.151041 4.890625 5.078125 4.919271 5.015625 4.976562 C4.953125 5.033854 4.921875 5.109375 4.921875 5.203125 C4.921875 5.276042 4.953125 5.361979 5.015625 5.460938 C5.078125 5.559896 5.145833 5.666666 5.218750 5.781250 C5.322917 5.916667 5.427083 6.080728 5.531250 6.273438 C5.635417 6.466147 5.687500 6.677082 5.687500 6.906250 C5.687500 7.552087 5.434898 8.085935 4.929688 8.507812 C4.424477 8.929690 3.885420 9.140625 3.312500 9.140625 Z M29.828125 29.500000 C30.057293 29.500000 30.242187 29.421876 30.382812 29.265625 C30.523438 29.109374 30.593750 28.916668 30.593750 28.687500 C30.593750 28.520832 30.557292 28.364584 30.484375 28.218750 L17.968750 3.343750 L19.156250 3.625000 C18.802082 4.104169 18.505210 4.601560 18.265625 5.117188 C18.026040 5.632815 17.791668 6.385412 17.562500 7.375000 L17.343750 6.171875 L25.734375 20.546875 L24.640625 21.109375 L14.609375 4.406250 L15.687500 4.093750 C15.531249 4.489585 15.354168 5.026038 15.156250 5.703125 C14.958332 6.380212 14.765626 7.106767 14.578125 7.882812 C14.390624 8.658858 14.229167 9.390622 14.093750 10.078125 L13.609375 9.250000 L25.625000 23.140625 L24.828125 23.875000 L12.515625 10.250000 L13.203125 10.703125 C12.796873 10.713542 12.289066 10.755208 11.679688 10.828125 C11.070309 10.901042 10.427087 10.992187 9.750000 11.101562 C9.072913 11.210938 8.427086 11.343749 7.812500 11.500000 L8.031250 10.953125 L22.625000 22.343750 L21.890625 23.328125 L8.937500 13.484375 L10.109375 13.796875 C9.067703 13.880209 8.244795 13.992187 7.640625 14.132812 C7.036455 14.273438 6.479169 14.484374 5.968750 14.765625 L6.015625 13.640625 L29.218750 29.296875 C29.416668 29.432292 29.619791 29.500000 29.828125 29.500000 Z M37.187500 27.343750" /></svg>