<svg version="1.1" xmlns="http://www.w3.org/2000/svg" style="fill:rgba(0,0,0,1.0)" width="256" height="256" viewBox="0 0 37.25 32.8125"><path fill="rgb(255, 255, 255)" d="M4.750000 20.015625 C3.208326 20.015625 2.031254 19.648441 1.218750 18.914062 C0.406246 18.179684 0.000000 17.171881 0.000000 15.890625 C0.000000 14.630202 0.471349 13.585942 1.414062 12.757812 C2.356776 11.929683 3.614575 11.458334 5.187500 11.343750 C5.281250 10.333328 5.598956 9.424483 6.140625 8.617188 C6.682294 7.809892 7.380204 7.169273 8.234375 6.695312 C9.088546 6.221352 10.020828 5.984375 11.031250 5.984375 C11.114584 5.984375 11.234374 5.986979 11.390625 5.992188 C11.546876 5.997396 11.708332 6.005208 11.875000 6.015625 C12.302085 4.817702 12.953121 3.768234 13.828125 2.867188 C14.703129 1.966141 15.723953 1.263023 16.890625 0.757812 C18.057298 0.252602 19.286452 -0.000000 20.578125 -0.000000 C21.828131 -0.000000 23.010411 0.234373 24.125000 0.703125 C25.239589 1.171877 26.221350 1.822913 27.070312 2.656250 C27.919275 3.489587 28.588539 4.455724 29.078125 5.554688 C29.567711 6.653651 29.812500 7.833327 29.812500 9.093750 C29.812500 9.656253 29.755209 10.249997 29.640625 10.875000 C30.942715 11.093751 31.973955 11.624996 32.734375 12.468750 C33.494795 13.312504 33.875000 14.338536 33.875000 15.546875 C33.875000 16.901048 33.369797 17.984371 32.359375 18.796875 C31.348953 19.609379 30.005217 20.015625 28.328125 20.015625 Z M10.750000 32.812500 L9.828125 32.234375 L10.843750 30.500000 L8.906250 30.500000 L8.906250 29.406250 L10.843750 29.406250 L9.828125 27.671875 L10.750000 27.093750 L11.812500 28.828125 L12.875000 27.093750 L13.796875 27.671875 L12.781250 29.406250 L14.718750 29.406250 L14.718750 30.500000 L12.781250 30.500000 L13.796875 32.234375 L12.875000 32.812500 L11.812500 31.078125 Z M4.656250 26.765625 L3.734375 26.187500 L4.750000 24.453125 L2.812500 24.453125 L2.812500 23.359375 L4.750000 23.359375 L3.734375 21.625000 L4.656250 21.046875 L5.718750 22.781250 L6.781250 21.046875 L7.703125 21.625000 L6.687500 23.359375 L8.625000 23.359375 L8.625000 24.453125 L6.687500 24.453125 L7.703125 26.187500 L6.781250 26.765625 L5.718750 25.031250 Z M16.062500 26.921875 L15.140625 26.343750 L16.156250 24.609375 L14.218750 24.609375 L14.218750 23.515625 L16.156250 23.515625 L15.140625 21.781250 L16.062500 21.203125 L17.125000 22.937500 L18.187500 21.203125 L19.109375 21.781250 L18.093750 23.515625 L20.031250 23.515625 L20.031250 24.609375 L18.093750 24.609375 L19.109375 26.343750 L18.187500 26.921875 L17.125000 25.187500 Z M22.468750 32.343750 L21.546875 31.765625 L22.562500 30.031250 L20.625000 30.031250 L20.625000 28.937500 L22.562500 28.937500 L21.546875 27.203125 L22.468750 26.625000 L23.531250 28.359375 L24.593750 26.625000 L25.515625 27.203125 L24.500000 28.937500 L26.437500 28.937500 L26.437500 30.031250 L24.500000 30.031250 L25.515625 31.765625 L24.593750 32.343750 L23.531250 30.609375 Z M27.781250 26.921875 L26.859375 26.343750 L27.875000 24.609375 L25.937500 24.609375 L25.937500 23.515625 L27.875000 23.515625 L26.859375 21.781250 L27.781250 21.203125 L28.843750 22.937500 L29.906250 21.203125 L30.828125 21.781250 L29.812500 23.515625 L31.750000 23.515625 L31.750000 24.609375 L29.812500 24.609375 L30.828125 26.343750 L29.906250 26.921875 L28.843750 25.187500 Z M5.218750 18.296875 L28.328125 18.296875 C29.557298 18.296875 30.476559 18.067711 31.085938 17.609375 C31.695316 17.151039 32.000000 16.463546 32.000000 15.546875 C32.000000 14.505203 31.593754 13.716149 30.781250 13.179688 C29.968746 12.643226 28.880215 12.322917 27.515625 12.218750 C27.651042 11.729164 27.755208 11.231773 27.828125 10.726562 C27.901042 10.221352 27.937500 9.729169 27.937500 9.250000 C27.937500 7.864576 27.611982 6.601568 26.960938 5.460938 C26.309893 4.320307 25.429693 3.411462 24.320312 2.734375 C23.210932 2.057288 21.963549 1.718750 20.578125 1.718750 C19.536453 1.718750 18.562505 1.916665 17.656250 2.312500 C16.749995 2.708335 15.955733 3.263017 15.273438 3.976562 C14.591142 4.690108 14.062502 5.520829 13.687500 6.468750 C14.781255 6.927086 15.653643 7.648433 16.304688 8.632812 C16.955732 9.617192 17.281250 10.697911 17.281250 11.875000 L15.562500 11.875000 C15.562500 11.052079 15.382814 10.328128 15.023438 9.703125 C14.664061 9.078122 14.164066 8.588543 13.523438 8.234375 C12.882809 7.880207 12.145838 7.703125 11.312500 7.703125 C10.510413 7.703125 9.776045 7.901040 9.109375 8.296875 C8.442705 8.692710 7.911460 9.216143 7.515625 9.867188 C7.119790 10.518232 6.921875 11.239579 6.921875 12.031250 L6.921875 12.937500 C5.088532 13.062501 3.789066 13.354164 3.023438 13.812500 C2.257809 14.270836 1.875000 14.963537 1.875000 15.890625 C1.875000 16.671879 2.143226 17.268227 2.679688 17.679688 C3.216149 18.091148 4.062494 18.296875 5.218750 18.296875 Z M37.250000 27.343750" /></svg>