<svg version="1.1" xmlns="http://www.w3.org/2000/svg" style="fill:rgba(0,0,0,1.0)" width="256" height="256" viewBox="0 0 36.125 32.8125"><path fill="rgb(255, 255, 255)" d="M1.562500 5.984375 L1.562500 12.906250 L5.093750 22.000000 L24.312500 31.000000 L30.062500 26.765625 L30.062500 19.968750 L17.875000 5.046875 L7.906250 1.718750 Z M0.000000 5.140625 L7.656250 -0.000000 L18.812500 3.703125 L31.625000 19.406250 L31.625000 27.546875 L24.500000 32.812500 L3.875000 23.156250 L0.000000 13.187500 Z M0.046875 5.859375 L1.515625 5.296875 L5.093750 14.531250 L24.312500 23.531250 L30.375000 19.062500 L31.312500 20.312500 L24.500000 25.343750 L3.875000 15.687500 Z M25.187500 31.906250 L23.625000 31.906250 L23.625000 24.437500 L25.187500 24.437500 Z M5.265625 22.578125 L3.703125 22.578125 L3.703125 15.109375 L5.265625 15.109375 Z M16.015625 23.468750 L21.171875 25.890625 L21.171875 27.625000 L16.015625 25.203125 Z M7.578125 19.515625 L12.734375 21.937500 L12.734375 23.671875 L7.578125 21.250000 Z M36.125000 27.343750" /></svg>