<svg version="1.1" xmlns="http://www.w3.org/2000/svg" style="fill:rgba(0,0,0,1.0)" width="256" height="256" viewBox="0 0 37.5 32.8125"><path fill="rgb(255, 255, 255)" d="M20.609375 32.812500 L17.234375 26.937500 L9.312500 31.062500 L10.390625 25.937500 L0.734375 26.765625 L7.625000 20.531250 L0.000000 14.109375 L8.437500 13.921875 L0.890625 0.562500 L15.203125 9.046875 L17.093750 -0.000000 L21.953125 8.156250 L31.843750 0.453125 L28.203125 11.953125 L34.375000 10.312500 L28.390625 18.703125 L34.250000 20.671875 L28.109375 23.562500 L31.890625 30.875000 L22.921875 27.265625 Z M20.328125 28.187500 L21.843750 24.812500 L27.906250 27.250000 L25.546875 22.687500 L29.234375 20.968750 L25.500000 19.531250 L29.843750 13.468750 L25.718750 14.265625 L28.234375 5.640625 L21.421875 10.937500 L17.937500 5.093750 L16.500000 12.000000 L5.984375 5.765625 L11.609375 15.718750 L4.984375 15.875000 L10.468750 20.484375 L6.125000 24.421875 L12.750000 23.859375 L11.968750 27.562500 L18.031250 24.406250 Z M20.015625 24.984375 L18.312500 21.937500 L14.406250 24.500000 L15.593750 21.437500 L10.250000 22.750000 L13.750000 19.531250 L9.062500 17.109375 L14.093750 16.953125 L9.953125 9.718750 L17.406250 14.328125 L18.531250 8.703125 L21.093750 13.296875 L25.640625 9.156250 L23.187500 15.875000 L26.421875 15.578125 L22.734375 19.984375 L25.421875 20.984375 L22.750000 21.703125 L24.531250 24.234375 L20.890625 22.187500 Z M37.500000 27.343750" /></svg>