<svg version="1.1" xmlns="http://www.w3.org/2000/svg" style="fill:rgba(0,0,0,1.0)" width="256" height="256" viewBox="0 0 35.9375 32.8125"><path fill="rgb(255, 255, 255)" d="M0.125000 27.703125 L0.000000 25.593750 L1.875000 25.468750 L2.000000 27.578125 Z M10.156250 30.890625 L7.968750 29.281250 L9.093750 27.781250 L11.281250 29.390625 Z M10.375000 26.359375 L9.281250 24.828125 C9.604168 24.598957 9.898436 24.359376 10.164062 24.109375 C10.429689 23.859374 10.677082 23.588543 10.906250 23.296875 L12.375000 24.484375 C12.093749 24.828127 11.783856 25.158853 11.445312 25.476562 C11.106769 25.794272 10.750002 26.088540 10.375000 26.359375 Z M1.609375 24.500000 C1.401041 23.177077 1.791662 22.166670 2.781250 21.468750 C3.177085 21.197915 3.427083 21.005209 3.531250 20.890625 C3.635417 20.776041 3.687500 20.677084 3.687500 20.593750 C3.687500 20.458333 3.656250 20.302084 3.593750 20.125000 C3.531250 19.947916 3.411459 19.671877 3.234375 19.296875 C3.046874 18.890623 2.906250 18.544272 2.812500 18.257812 C2.718750 17.971353 2.671875 17.697918 2.671875 17.437500 C2.671875 16.895831 2.825519 16.466147 3.132812 16.148438 C3.440106 15.830728 3.895830 15.536460 4.500000 15.265625 C4.958336 15.057291 5.312499 14.848959 5.562500 14.640625 C5.812501 14.432291 5.937500 14.046878 5.937500 13.484375 L7.812500 13.484375 C7.812500 14.213545 7.687501 14.799477 7.437500 15.242188 C7.187499 15.684898 6.882814 16.020832 6.523438 16.250000 C6.164061 16.479168 5.817710 16.640625 5.484375 16.734375 C5.223957 16.807292 5.002605 16.890625 4.820312 16.984375 C4.638020 17.078125 4.546875 17.229166 4.546875 17.437500 C4.546875 17.541667 4.578125 17.674478 4.640625 17.835938 C4.703125 17.997397 4.781250 18.171874 4.875000 18.359375 C5.020834 18.661460 5.171874 19.018227 5.328125 19.429688 C5.484376 19.841148 5.562500 20.229165 5.562500 20.593750 C5.562500 21.093752 5.421876 21.518227 5.140625 21.867188 C4.859374 22.216148 4.427086 22.593748 3.843750 23.000000 C3.635416 23.145834 3.505209 23.296874 3.453125 23.453125 C3.401041 23.609376 3.401041 23.854165 3.453125 24.187500 Z M18.843750 32.812500 L17.500000 30.625000 L19.093750 29.656250 L20.437500 31.843750 Z M18.859375 19.156250 C18.473956 18.999999 18.106773 18.817709 17.757812 18.609375 C17.408852 18.401041 17.088543 18.182293 16.796875 17.953125 L17.984375 16.484375 C18.421877 16.848960 18.953122 17.166665 19.578125 17.437500 Z M18.953125 24.781250 L17.765625 23.312500 L19.859375 21.609375 L21.046875 23.078125 Z M16.578125 9.562500 L14.984375 8.562500 L16.093750 6.781250 L17.687500 7.781250 Z M21.125000 10.687500 C21.072916 10.927085 21.026042 11.195311 20.984375 11.492188 C20.942708 11.789064 20.921875 12.062499 20.921875 12.312500 C20.921875 13.020837 21.117186 13.690101 21.507812 14.320312 C21.898439 14.950524 22.401039 15.557289 23.015625 16.140625 C23.630211 16.723961 24.281247 17.302080 24.968750 17.875000 C25.656253 18.447920 26.307289 19.026039 26.921875 19.609375 C27.536461 20.192711 28.039061 20.802080 28.429688 21.437500 C28.820314 22.072920 29.015625 22.749996 29.015625 23.468750 C29.015625 23.843752 28.973959 24.239581 28.890625 24.656250 C28.807291 25.072919 28.697917 25.416665 28.562500 25.687500 L26.875000 24.843750 C27.052084 24.510415 27.140625 24.052086 27.140625 23.468750 C27.140625 23.156248 27.044272 22.830731 26.851562 22.492188 C26.658853 22.153644 26.328127 21.744794 25.859375 21.265625 C25.390623 20.786456 24.734379 20.192712 23.890625 19.484375 C23.171871 18.869789 22.437504 18.203129 21.687500 17.484375 C20.937496 16.765621 20.309898 15.979171 19.804688 15.125000 C19.299477 14.270829 19.046875 13.333338 19.046875 12.312500 C19.046875 11.916665 19.067708 11.539064 19.109375 11.179688 C19.151042 10.820311 19.223958 10.463543 19.328125 10.109375 Z M29.343750 17.859375 L27.531250 16.515625 L28.656250 15.015625 L30.468750 16.359375 Z M9.562500 3.562500 C9.864585 3.656250 10.098958 3.619792 10.265625 3.453125 C10.432292 3.286458 10.507813 3.080730 10.492188 2.835938 C10.476562 2.591145 10.328126 2.411459 10.046875 2.296875 C9.723957 2.161458 9.385418 2.062500 9.031250 2.000000 C8.729165 1.947916 8.497397 2.026041 8.335938 2.234375 C8.174478 2.442709 8.122396 2.666665 8.179688 2.906250 C8.236979 3.145835 8.427082 3.296875 8.750000 3.359375 C9.031251 3.411459 9.302082 3.479166 9.562500 3.562500 Z M22.859375 3.781250 C23.067709 3.687500 23.312499 3.609375 23.593750 3.546875 C23.875001 3.484375 24.151040 3.453125 24.421875 3.453125 C24.765627 3.453125 24.992187 3.335939 25.101562 3.101562 C25.210938 2.867186 25.210938 2.632814 25.101562 2.398438 C24.992187 2.164061 24.765627 2.046875 24.421875 2.046875 C24.067707 2.046875 23.697919 2.088541 23.312500 2.171875 C22.927081 2.255209 22.583335 2.364583 22.281250 2.500000 C21.968748 2.635417 21.807292 2.835936 21.796875 3.101562 C21.786458 3.367189 21.880207 3.583333 22.078125 3.750000 C22.276043 3.916667 22.536457 3.927084 22.859375 3.781250 Z M12.750000 10.031250 C13.020835 10.114584 13.320311 10.244791 13.648438 10.421875 C13.976564 10.598959 14.234374 10.765624 14.421875 10.921875 C15.130212 11.505211 15.622394 12.106768 15.898438 12.726562 C16.174481 13.346357 16.312500 14.052079 16.312500 14.843750 C16.312500 15.687504 16.161460 16.440101 15.859375 17.101562 C15.557290 17.763024 15.255210 18.388018 14.953125 18.976562 C14.651040 19.565107 14.500000 20.187497 14.500000 20.843750 C14.500000 21.375003 14.588541 21.869789 14.765625 22.328125 C14.942709 22.786461 15.286456 23.401038 15.796875 24.171875 C16.619796 25.401048 17.031250 26.515620 17.031250 27.515625 C17.031250 28.286462 16.807294 28.999997 16.359375 29.656250 C15.911456 30.312503 15.307295 30.807290 14.546875 31.140625 L13.796875 29.421875 C14.703130 29.015623 15.156250 28.380213 15.156250 27.515625 C15.156250 26.890622 14.848961 26.119796 14.234375 25.203125 C13.817706 24.567705 13.445314 23.908858 13.117188 23.226562 C12.789061 22.544267 12.625000 21.750005 12.625000 20.843750 C12.625000 20.020829 12.776040 19.276045 13.078125 18.609375 C13.380210 17.942705 13.682290 17.304691 13.984375 16.695312 C14.286460 16.085934 14.437500 15.468753 14.437500 14.843750 C14.437500 14.333331 14.364584 13.895835 14.218750 13.531250 C14.072916 13.166665 13.744794 12.776044 13.234375 12.359375 C13.036457 12.192708 12.815105 12.036459 12.570312 11.890625 C12.325520 11.744791 12.088543 11.614584 11.859375 11.500000 Z M0.468750 30.671875 C3.177097 28.755199 5.268222 26.406264 6.742188 23.625000 C8.216153 20.843736 8.953125 17.770850 8.953125 14.406250 C8.953125 14.124999 8.940104 13.794273 8.914062 13.414062 C8.888021 13.033852 8.843750 12.645835 8.781250 12.250000 L10.734375 12.687500 C10.765625 12.916668 10.789062 13.169269 10.804688 13.445312 C10.820313 13.721356 10.828125 14.041665 10.828125 14.406250 C10.828125 18.083352 10.023446 21.447901 8.414062 24.500000 C6.804679 27.552099 4.520848 30.119781 1.562500 32.203125 Z M21.500000 19.125000 C21.500000 18.177079 21.575520 17.148443 21.726562 16.039062 C21.877605 14.929682 22.057291 13.848964 22.265625 12.796875 L24.140625 12.984375 C23.932291 13.994797 23.752605 15.041661 23.601562 16.125000 C23.450520 17.208339 23.375000 18.208329 23.375000 19.125000 C23.375000 21.572929 23.833329 23.783844 24.750000 25.757812 C25.666671 27.731781 26.927075 29.244786 28.531250 30.296875 L27.500000 31.859375 C26.249994 31.046871 25.177088 29.994798 24.281250 28.703125 C23.385412 27.411452 22.697919 25.950529 22.218750 24.320312 C21.739581 22.690096 21.500000 20.958342 21.500000 19.125000 Z M16.796875 4.750000 C16.796875 4.260414 17.002602 3.742190 17.414062 3.195312 C17.825523 2.648435 18.380205 2.132815 19.078125 1.648438 C19.776045 1.164060 20.562496 0.768231 21.437500 0.460938 C22.312504 0.153644 23.208329 -0.000000 24.125000 -0.000000 C25.458340 -0.000000 26.664057 0.322913 27.742188 0.968750 C28.820318 1.614587 29.674476 2.473953 30.304688 3.546875 C30.934899 4.619797 31.250000 5.796869 31.250000 7.078125 C31.250000 8.182297 31.062502 9.216141 30.687500 10.179688 C30.312498 11.143234 29.833336 11.919268 29.250000 12.507812 C28.666664 13.096357 28.067711 13.390625 27.453125 13.390625 C27.098957 13.390625 26.596357 13.250001 25.945312 12.968750 C25.294268 12.687499 24.567712 12.309898 23.765625 11.835938 C22.963538 11.361977 22.153650 10.822920 21.335938 10.218750 C20.518225 9.614580 19.768233 8.989587 19.085938 8.343750 C18.403642 7.697913 17.851565 7.065107 17.429688 6.445312 C17.007810 5.825518 16.796875 5.260419 16.796875 4.750000 Z M18.625000 4.078125 C19.427087 4.119792 20.283850 4.330727 21.195312 4.710938 C22.106775 5.091148 23.020829 5.598955 23.937500 6.234375 C25.020839 6.994795 25.958329 7.822912 26.750000 8.718750 C27.541671 9.614588 28.036457 10.463538 28.234375 11.265625 C28.557293 10.838540 28.880207 10.283858 29.203125 9.601562 C29.526043 8.919267 29.687500 8.078130 29.687500 7.078125 C29.687500 6.088537 29.440107 5.174483 28.945312 4.335938 C28.450518 3.497392 27.783858 2.825523 26.945312 2.320312 C26.106767 1.815102 25.166672 1.562500 24.125000 1.562500 C23.343746 1.562500 22.580733 1.690103 21.835938 1.945312 C21.091142 2.200522 20.437503 2.520831 19.875000 2.906250 C19.312497 3.291669 18.895835 3.682290 18.625000 4.078125 Z M0.968750 7.078125 C0.968750 5.796869 1.283851 4.619797 1.914062 3.546875 C2.544274 2.473953 3.398432 1.614587 4.476562 0.968750 C5.554693 0.322913 6.760410 -0.000000 8.093750 -0.000000 C9.010421 -0.000000 9.906246 0.153644 10.781250 0.460938 C11.656254 0.768231 12.442705 1.164060 13.140625 1.648438 C13.838545 2.132815 14.393227 2.648435 14.804688 3.195312 C15.216148 3.742190 15.421875 4.260414 15.421875 4.750000 C15.421875 5.260419 15.210940 5.825518 14.789062 6.445312 C14.367185 7.065107 13.815108 7.697913 13.132812 8.343750 C12.450517 8.989587 11.700525 9.614580 10.882812 10.218750 C10.065100 10.822920 9.255212 11.361977 8.453125 11.835938 C7.651038 12.309898 6.924482 12.687499 6.273438 12.968750 C5.622393 13.250001 5.119793 13.390625 4.765625 13.390625 C4.151039 13.390625 3.552086 13.096357 2.968750 12.507812 C2.385414 11.919268 1.906252 11.143234 1.531250 10.179688 C1.156248 9.216141 0.968750 8.182297 0.968750 7.078125 Z M2.531250 7.078125 C2.531250 8.078130 2.692707 8.919267 3.015625 9.601562 C3.338543 10.283858 3.661457 10.838540 3.984375 11.265625 C4.192709 10.463538 4.690100 9.614588 5.476562 8.718750 C6.263025 7.822912 7.197911 6.994795 8.281250 6.234375 C9.197921 5.598955 10.114579 5.091148 11.031250 4.710938 C11.947921 4.330727 12.802079 4.119792 13.593750 4.078125 C13.333332 3.682290 12.919274 3.291669 12.351562 2.906250 C11.783851 2.520831 11.130212 2.200522 10.390625 1.945312 C9.651038 1.690103 8.885421 1.562500 8.093750 1.562500 C7.052078 1.562500 6.111983 1.815102 5.273438 2.320312 C4.434892 2.825523 3.768232 3.497392 3.273438 4.335938 C2.778643 5.174483 2.531250 6.088537 2.531250 7.078125 Z M35.937500 27.343750" /></svg>