<svg version="1.1" xmlns="http://www.w3.org/2000/svg" style="fill:rgba(0,0,0,1.0)" width="256" height="256" viewBox="0 0 33.125 32.8125"><path fill="rgb(255, 255, 255)" d="M12.890625 32.812500 C9.755193 32.812500 7.273447 32.333338 5.445312 31.375000 C3.617178 30.416662 2.614584 29.072925 2.437500 27.343750 C2.343750 26.333328 2.265625 25.242193 2.203125 24.070312 C2.140625 22.898432 2.096354 21.583341 2.070312 20.125000 C2.044271 18.666659 2.031250 17.010426 2.031250 15.156250 L3.906250 15.406250 C3.906250 17.197926 3.916667 18.804680 3.937500 20.226562 C3.958333 21.648445 4.000000 22.927078 4.062500 24.062500 C4.125000 25.197922 4.208333 26.239579 4.312500 27.187500 C4.437501 28.281255 5.244784 29.179684 6.734375 29.882812 C8.223966 30.585941 10.276029 30.937500 12.890625 30.937500 C14.963552 30.937500 16.723951 30.770835 18.171875 30.437500 C19.619799 30.104165 20.723955 29.656253 21.484375 29.093750 C22.244795 28.531247 22.625000 27.916670 22.625000 27.250000 C22.625000 27.010415 22.585938 26.763022 22.507812 26.507812 C22.429687 26.252603 22.322917 25.989585 22.187500 25.718750 C22.020832 25.385415 21.877605 25.026044 21.757812 24.640625 C21.638020 24.255206 21.578125 23.838544 21.578125 23.390625 L21.578125 15.578125 L23.453125 15.093750 L23.453125 23.390625 C23.453125 23.859377 23.510416 24.263019 23.625000 24.601562 C23.739584 24.940106 23.869791 25.260415 24.015625 25.562500 C24.151042 25.822918 24.265625 26.085936 24.359375 26.351562 C24.453125 26.617189 24.500000 26.916665 24.500000 27.250000 C24.500000 28.364589 24.041671 29.338538 23.125000 30.171875 C22.208329 31.005212 20.885425 31.653644 19.156250 32.117188 C17.427075 32.580731 15.338554 32.812500 12.890625 32.812500 Z M12.812500 26.156250 C11.927079 26.156250 11.098962 25.981773 10.328125 25.632812 C9.557288 25.283852 8.875003 24.750004 8.281250 24.031250 L9.390625 23.062500 C9.869794 23.635420 10.385414 24.046874 10.937500 24.296875 C11.489586 24.546876 12.114580 24.671875 12.812500 24.671875 C13.520837 24.671875 14.151039 24.546876 14.703125 24.296875 C15.255211 24.046874 15.765623 23.635420 16.234375 23.062500 L17.343750 24.031250 C16.749997 24.750004 16.070316 25.283852 15.304688 25.632812 C14.539059 25.981773 13.708338 26.156250 12.812500 26.156250 Z M8.468750 21.328125 C8.031248 21.328125 7.669272 21.164064 7.382812 20.835938 C7.096353 20.507811 6.953125 20.119794 6.953125 19.671875 C6.953125 19.213539 7.096353 18.822918 7.382812 18.500000 C7.669272 18.177082 8.031248 18.015625 8.468750 18.015625 C8.906252 18.015625 9.268228 18.177082 9.554688 18.500000 C9.841147 18.822918 9.984375 19.213539 9.984375 19.671875 C9.984375 20.119794 9.841147 20.507811 9.554688 20.835938 C9.268228 21.164064 8.906252 21.328125 8.468750 21.328125 Z M16.750000 21.328125 C16.312498 21.328125 15.950522 21.164064 15.664062 20.835938 C15.377603 20.507811 15.234375 20.119794 15.234375 19.671875 C15.234375 19.213539 15.377603 18.822918 15.664062 18.500000 C15.950522 18.177082 16.312498 18.015625 16.750000 18.015625 C17.187502 18.015625 17.549478 18.177082 17.835938 18.500000 C18.122397 18.822918 18.265625 19.213539 18.265625 19.671875 C18.265625 20.119794 18.122397 20.507811 17.835938 20.835938 C17.549478 21.164064 17.187502 21.328125 16.750000 21.328125 Z M12.812500 16.328125 C10.343738 16.328125 8.283862 16.270834 6.632812 16.156250 C4.981763 16.041666 3.671880 15.848960 2.703125 15.578125 C1.734370 15.307290 1.041669 14.945315 0.625000 14.492188 C0.208331 14.039060 0.000000 13.468753 0.000000 12.781250 C0.000000 12.145830 0.281247 11.651043 0.843750 11.296875 C0.906250 9.671867 1.356767 8.148445 2.195312 6.726562 C3.033858 5.304680 4.156243 4.096359 5.562500 3.101562 C6.968757 2.106766 8.552075 1.437502 10.312500 1.093750 L10.312500 2.875000 C8.781242 3.218752 7.445318 3.807288 6.304688 4.640625 C5.164057 5.473962 4.278649 6.481765 3.648438 7.664062 C3.018226 8.846360 2.703125 10.135410 2.703125 11.531250 C2.703125 11.625000 2.703125 11.716145 2.703125 11.804688 C2.703125 11.893230 2.708333 11.979166 2.718750 12.062500 C2.427082 12.135417 2.213542 12.249999 2.078125 12.406250 C1.942708 12.562501 1.875000 12.687500 1.875000 12.781250 C1.875000 13.239586 2.218747 13.601561 2.906250 13.867188 C3.593753 14.132814 4.734367 14.322916 6.328125 14.437500 C7.921883 14.552084 10.083320 14.609375 12.812500 14.609375 C15.541680 14.609375 17.703117 14.552084 19.296875 14.437500 C20.890633 14.322916 22.031247 14.132814 22.718750 13.867188 C23.406253 13.601561 23.750000 13.239586 23.750000 12.781250 C23.750000 12.687500 23.682292 12.562501 23.546875 12.406250 C23.411458 12.249999 23.197918 12.135417 22.906250 12.062500 C22.916667 11.979166 22.921875 11.893230 22.921875 11.804688 C22.921875 11.716145 22.921875 11.625000 22.921875 11.531250 C22.921875 10.135410 22.606774 8.846360 21.976562 7.664062 C21.346351 6.481765 20.460943 5.473962 19.320312 4.640625 C18.179682 3.807288 16.843758 3.218752 15.312500 2.875000 L15.312500 1.093750 C17.083342 1.437502 18.669264 2.106766 20.070312 3.101562 C21.471361 4.096359 22.591142 5.304680 23.429688 6.726562 C24.268233 8.148445 24.718750 9.671867 24.781250 11.296875 C25.343753 11.651043 25.625000 12.145830 25.625000 12.781250 C25.625000 13.468753 25.416669 14.039060 25.000000 14.492188 C24.583331 14.945315 23.890630 15.307290 22.921875 15.578125 C21.953120 15.848960 20.643237 16.041666 18.992188 16.156250 C17.341138 16.270834 15.281262 16.328125 12.812500 16.328125 Z M9.312500 7.671875 C9.177083 6.557286 8.989585 5.622400 8.750000 4.867188 C8.510415 4.111975 8.208335 3.494794 7.843750 3.015625 L9.062500 2.046875 C9.270834 2.307293 9.460937 2.598957 9.632812 2.921875 C9.804688 3.244793 9.958333 3.598956 10.093750 3.984375 L9.312500 3.984375 L9.312500 2.109375 C9.312500 1.526039 9.518227 1.028648 9.929688 0.617188 C10.341148 0.205727 10.838539 -0.000000 11.421875 -0.000000 L14.203125 -0.000000 C14.786461 -0.000000 15.283852 0.205727 15.695312 0.617188 C16.106773 1.028648 16.312500 1.526039 16.312500 2.109375 L16.312500 3.984375 L15.531250 3.984375 C15.677084 3.598956 15.835937 3.244793 16.007812 2.921875 C16.179688 2.598957 16.364582 2.307293 16.562500 2.046875 L17.781250 3.015625 C17.416665 3.494794 17.114585 4.111975 16.875000 4.867188 C16.635415 5.622400 16.447917 6.557286 16.312500 7.671875 L14.750000 7.578125 L14.750000 2.265625 C14.750000 2.119791 14.695313 1.992188 14.585938 1.882812 C14.476562 1.773437 14.348959 1.718750 14.203125 1.718750 L11.421875 1.718750 C11.276041 1.718750 11.148438 1.773437 11.039062 1.882812 C10.929687 1.992188 10.875000 2.119791 10.875000 2.265625 L10.875000 7.578125 Z M33.125000 27.343750" /></svg>