<svg version="1.1" xmlns="http://www.w3.org/2000/svg" style="fill:rgba(0,0,0,1.0)" width="256" height="256" viewBox="0 0 34.0 32.8125"><path fill="rgb(255, 255, 255)" d="M12.171875 24.328125 C10.494783 24.328125 8.919278 24.013024 7.445312 23.382812 C5.971347 22.752601 4.677089 21.880214 3.562500 20.765625 C2.447911 19.651036 1.575524 18.356778 0.945312 16.882812 C0.315101 15.408847 0.000000 13.833342 0.000000 12.156250 C0.000000 10.479158 0.315101 8.906257 0.945312 7.437500 C1.575524 5.968743 2.447911 4.677089 3.562500 3.562500 C4.677089 2.447911 5.971347 1.575524 7.445312 0.945312 C8.919278 0.315101 10.494783 -0.000000 12.171875 -0.000000 C13.848967 -0.000000 15.424472 0.315101 16.898438 0.945312 C18.372403 1.575524 19.666661 2.447911 20.781250 3.562500 C21.895839 4.677089 22.768226 5.968743 23.398438 7.437500 C24.028649 8.906257 24.343750 10.479158 24.343750 12.156250 C24.343750 13.833342 24.028649 15.408847 23.398438 16.882812 C22.768226 18.356778 21.895839 19.651036 20.781250 20.765625 C19.666661 21.880214 18.372403 22.752601 16.898438 23.382812 C15.424472 24.013024 13.848967 24.328125 12.171875 24.328125 Z M24.843750 30.359375 C25.125001 30.151041 25.151043 29.875002 24.921875 29.531250 L23.921875 28.109375 C23.817708 27.963541 23.687501 27.867188 23.531250 27.820312 C23.374999 27.773437 23.234376 27.796875 23.109375 27.890625 C22.828124 28.098959 22.802082 28.374998 23.031250 28.718750 L24.031250 30.140625 C24.135417 30.286459 24.265624 30.382812 24.421875 30.429688 C24.578126 30.476563 24.718749 30.453125 24.843750 30.359375 Z M24.140625 32.812500 L15.609375 20.593750 L18.843750 18.328125 L27.375000 30.546875 Z M11.000000 12.734375 C11.385419 12.734375 11.578125 12.458336 11.578125 11.906250 C11.578125 11.645832 11.632812 11.424480 11.742188 11.242188 C11.851563 11.059895 11.989582 10.916667 12.156250 10.812500 C12.427085 10.645833 12.562500 10.432293 12.562500 10.171875 C12.562500 9.828123 12.375002 9.656250 12.000000 9.656250 C11.604165 9.656250 11.239585 9.882810 10.906250 10.335938 C10.572915 10.789065 10.406250 11.312497 10.406250 11.906250 C10.406250 12.458336 10.604165 12.734375 11.000000 12.734375 Z M13.812500 20.015625 C14.937506 20.015625 15.888017 19.768232 16.664062 19.273438 C17.440108 18.778643 18.062498 18.135421 18.531250 17.343750 C19.000002 16.552079 19.341145 15.700525 19.554688 14.789062 C19.768230 13.877600 19.875000 13.010421 19.875000 12.187500 C19.875000 11.218745 19.705731 10.223963 19.367188 9.203125 C19.028644 8.182287 18.557295 7.234379 17.953125 6.359375 C17.348955 5.484371 16.645837 4.778649 15.843750 4.242188 C15.041663 3.705726 14.182296 3.437500 13.265625 3.437500 C12.265620 3.437500 11.466149 3.653644 10.867188 4.085938 C10.268226 4.518231 9.781252 5.065101 9.406250 5.726562 C9.031248 6.388024 8.692710 7.070309 8.390625 7.773438 C8.088540 8.476566 7.734377 9.098956 7.328125 9.640625 C6.901040 10.203128 6.471356 10.760414 6.039062 11.312500 C5.606769 11.864586 5.244793 12.471351 4.953125 13.132812 C4.661457 13.794274 4.515625 14.578120 4.515625 15.484375 C4.515625 16.213545 4.677082 16.893226 5.000000 17.523438 C5.322918 18.153649 5.778643 18.658852 6.367188 19.039062 C6.955732 19.419273 7.640621 19.609375 8.421875 19.609375 C8.817710 19.609375 9.182290 19.562500 9.515625 19.468750 C9.848960 19.375000 10.223956 19.328125 10.640625 19.328125 C11.171878 19.328125 11.700518 19.442707 12.226562 19.671875 C12.752607 19.901043 13.281247 20.015625 13.812500 20.015625 Z M12.687500 15.546875 C12.020830 15.546875 11.408857 15.382814 10.851562 15.054688 C10.294268 14.726561 9.851564 14.283857 9.523438 13.726562 C9.195311 13.169268 9.031250 12.557295 9.031250 11.890625 C9.031250 11.223955 9.195311 10.614586 9.523438 10.062500 C9.851564 9.510414 10.294268 9.070314 10.851562 8.742188 C11.408857 8.414061 12.020830 8.250000 12.687500 8.250000 C13.354170 8.250000 13.963539 8.414061 14.515625 8.742188 C15.067711 9.070314 15.507811 9.510414 15.835938 10.062500 C16.164064 10.614586 16.328125 11.223955 16.328125 11.890625 C16.328125 12.557295 16.164064 13.169268 15.835938 13.726562 C15.507811 14.283857 15.067711 14.726561 14.515625 15.054688 C13.963539 15.382814 13.354170 15.546875 12.687500 15.546875 Z M34.000000 27.343750" /></svg>