<svg version="1.1" xmlns="http://www.w3.org/2000/svg" style="fill:rgba(0,0,0,1.0)" width="256" height="256" viewBox="0 0 37.8125 32.8125"><path fill="rgb(255, 255, 255)" d="M13.578125 32.812500 C12.484370 32.812500 11.611982 32.580731 10.960938 32.117188 C10.309893 31.653644 9.984375 31.020837 9.984375 30.218750 C9.984375 29.718748 10.104165 29.265627 10.343750 28.859375 C10.583335 28.453123 10.895831 28.145834 11.281250 27.937500 L11.515625 28.468750 C11.192707 28.322916 10.919272 28.197917 10.695312 28.093750 C10.471353 27.989583 10.270834 27.893230 10.093750 27.804688 C9.916666 27.716145 9.739584 27.625000 9.562500 27.531250 C8.895830 27.166665 8.408856 26.830731 8.101562 26.523438 C7.794269 26.216144 7.640625 25.833336 7.640625 25.375000 C7.640625 24.739580 7.864581 24.213544 8.312500 23.796875 C8.760419 23.380206 9.302080 23.182292 9.937500 23.203125 C10.260418 23.203125 10.705726 23.309895 11.273438 23.523438 C11.841149 23.736980 12.302082 23.968749 12.656250 24.218750 C12.750000 24.281250 12.817708 24.354166 12.859375 24.437500 C12.901042 24.520834 12.921875 24.604166 12.921875 24.687500 C12.921875 24.947918 12.747398 25.013021 12.398438 24.882812 C12.049477 24.752604 11.635419 24.541668 11.156250 24.250000 C10.677081 23.958332 10.239585 23.697918 9.843750 23.468750 C9.541665 23.291666 9.231772 23.111980 8.914062 22.929688 C8.596353 22.747395 8.281252 22.572918 7.968750 22.406250 L6.390625 21.531250 C4.276031 20.354161 2.682297 18.890634 1.609375 17.140625 C0.536453 15.390616 0.000000 13.401053 0.000000 11.171875 C0.000000 10.505205 0.234373 9.937502 0.703125 9.468750 C1.171877 8.999998 1.739580 8.765625 2.406250 8.765625 C3.072920 8.765625 3.640623 8.999998 4.109375 9.468750 C4.578127 9.937502 4.812500 10.505205 4.812500 11.171875 C4.812500 12.026046 4.908853 12.757809 5.101562 13.367188 C5.294272 13.976566 5.505207 14.440103 5.734375 14.757812 C5.963543 15.075522 6.119791 15.234375 6.203125 15.234375 C6.234375 15.234375 6.250000 15.208334 6.250000 15.156250 C6.250000 14.624997 6.166668 14.018233 6.000000 13.335938 C5.833332 12.653642 5.750000 11.963545 5.750000 11.265625 C5.750000 10.630205 5.971352 10.091148 6.414062 9.648438 C6.856773 9.205727 7.395830 8.984375 8.031250 8.984375 C8.666670 8.984375 9.205727 9.205727 9.648438 9.648438 C10.091148 10.091148 10.312500 10.630205 10.312500 11.265625 C10.312500 11.848961 10.343750 12.354165 10.406250 12.781250 C10.468750 13.208335 10.528646 13.630206 10.585938 14.046875 C10.643229 14.463544 10.671875 14.947914 10.671875 15.500000 C10.671875 15.822918 10.656250 16.135415 10.625000 16.437500 C10.593750 16.739585 10.541667 17.031249 10.468750 17.312500 C10.520834 17.385417 10.583333 17.455729 10.656250 17.523438 C10.729167 17.591146 10.807291 17.656250 10.890625 17.718750 C11.161460 16.739578 11.466144 15.739588 11.804688 14.718750 C12.143231 13.697912 12.473957 12.802087 12.796875 12.031250 L12.718750 12.890625 C12.520832 11.442701 12.203127 10.085944 11.765625 8.820312 C11.328123 7.554681 10.708337 6.312506 9.906250 5.093750 C9.656249 4.708331 9.531250 4.286461 9.531250 3.828125 C9.531250 3.161455 9.765623 2.593752 10.234375 2.125000 C10.703127 1.656248 11.270830 1.421875 11.937500 1.421875 C12.885421 1.421875 13.588539 1.843746 14.046875 2.687500 C14.484377 3.500004 14.895831 4.283850 15.281250 5.039062 C15.666669 5.794275 15.968749 6.406248 16.187500 6.875000 C16.364584 7.250002 16.479166 7.473958 16.531250 7.546875 C16.583334 7.619792 16.635416 7.656250 16.687500 7.656250 C16.760417 7.656250 16.817708 7.559897 16.859375 7.367188 C16.901042 7.174478 16.921875 6.916668 16.921875 6.593750 C16.921875 6.260415 16.869792 5.828128 16.765625 5.296875 C16.661458 4.765622 16.557292 4.231774 16.453125 3.695312 C16.348958 3.158851 16.296875 2.729168 16.296875 2.406250 C16.296875 1.739580 16.531248 1.171877 17.000000 0.703125 C17.468752 0.234373 18.036455 -0.000000 18.703125 -0.000000 C19.536462 -0.000000 20.184894 0.388017 20.648438 1.164062 C21.111981 1.940108 21.343750 2.994785 21.343750 4.328125 C21.343750 4.432292 21.341146 4.572916 21.335938 4.750000 C21.330729 4.927084 21.302084 5.223956 21.250000 5.640625 C21.864586 5.682292 22.388019 5.914060 22.820312 6.335938 C23.252606 6.757815 23.468750 7.276039 23.468750 7.890625 C23.468750 8.484378 23.304689 8.958332 22.976562 9.312500 C22.648436 9.666668 22.221357 10.015623 21.695312 10.359375 C21.169268 10.703127 20.598961 11.166664 19.984375 11.750000 L19.718750 12.000000 C18.552078 13.104172 17.630212 14.257806 16.953125 15.460938 C16.276038 16.664069 15.937500 17.744787 15.937500 18.703125 C15.937500 18.932293 15.958333 19.140624 16.000000 19.328125 C16.041667 19.515626 16.098958 19.697916 16.171875 19.875000 L15.703125 19.796875 C16.182294 19.213539 16.802080 18.921875 17.562500 18.921875 C18.229170 18.921875 18.796873 19.148435 19.265625 19.601562 C19.734377 20.054690 19.968750 20.557289 19.968750 21.109375 C19.968750 21.390626 19.901042 21.684894 19.765625 21.992188 C19.630208 22.299481 19.518230 22.557291 19.429688 22.765625 C19.341145 22.973959 19.359374 23.078125 19.484375 23.078125 C19.744793 23.078125 20.026040 22.864585 20.328125 22.437500 C20.630210 22.010415 20.893228 21.502607 21.117188 20.914062 C21.341147 20.325518 21.453125 19.791669 21.453125 19.312500 C21.453125 18.302078 21.390626 17.473962 21.265625 16.828125 C21.140624 16.182288 21.013021 15.611982 20.882812 15.117188 C20.752604 14.622393 20.687500 14.088545 20.687500 13.515625 C20.687500 12.848955 20.921873 12.281252 21.390625 11.812500 C21.859377 11.343748 22.427080 11.109375 23.093750 11.109375 C23.739587 11.109375 24.302081 11.335935 24.781250 11.789062 C25.260419 12.242190 25.500000 12.802080 25.500000 13.468750 C25.500000 13.791668 25.486979 14.153644 25.460938 14.554688 C25.434896 14.955731 25.421875 15.322915 25.421875 15.656250 C25.421875 16.093752 25.588540 16.312500 25.921875 16.312500 C26.494795 16.312500 27.010414 16.018232 27.468750 15.429688 C27.927086 14.841143 28.291665 14.028651 28.562500 12.992188 C28.833335 11.955724 28.968750 10.776048 28.968750 9.453125 C28.968750 8.786455 29.203123 8.218752 29.671875 7.750000 C30.140627 7.281248 30.708330 7.046875 31.375000 7.046875 C32.041670 7.046875 32.609373 7.281248 33.078125 7.750000 C33.546877 8.218752 33.781250 8.786455 33.781250 9.453125 L33.781250 11.828125 C34.145835 11.942709 34.440103 12.153644 34.664062 12.460938 C34.888022 12.768231 35.000000 13.119790 35.000000 13.515625 C35.000000 14.286462 34.778648 15.085933 34.335938 15.914062 C33.893227 16.742192 33.281254 17.546871 32.500000 18.328125 C31.718746 19.109379 30.822922 19.812497 29.812500 20.437500 C28.802078 21.062503 27.734381 21.557290 26.609375 21.921875 L27.296875 21.328125 C26.807289 22.432297 26.216149 23.484370 25.523438 24.484375 C24.830726 25.484380 24.031255 26.453120 23.125000 27.390625 C23.083333 27.338541 23.052083 27.291667 23.031250 27.250000 C23.208334 27.135416 23.398436 27.046875 23.601562 26.984375 C23.804689 26.921875 24.010416 26.890625 24.218750 26.890625 C24.822920 26.890625 25.341144 27.106769 25.773438 27.539062 C26.205731 27.971356 26.421875 28.489580 26.421875 29.093750 C26.421875 30.229172 25.927088 31.132809 24.937500 31.804688 C23.947912 32.476566 22.630217 32.812500 20.984375 32.812500 Z M8.312500 21.359375 C8.010415 21.359375 7.859375 21.151044 7.859375 20.734375 C7.671874 20.723958 7.513021 20.677084 7.382812 20.593750 C7.252604 20.510416 7.187500 20.411459 7.187500 20.296875 C7.187500 20.130207 7.286457 20.005209 7.484375 19.921875 C7.307291 19.744791 7.218750 19.567709 7.218750 19.390625 C7.218750 19.203124 7.307291 19.109375 7.484375 19.109375 C7.661459 19.109375 7.838541 19.197916 8.015625 19.375000 C8.036458 19.177082 8.083333 19.007813 8.156250 18.867188 C8.229167 18.726562 8.317708 18.656250 8.421875 18.656250 C8.536459 18.656250 8.632812 18.736978 8.710938 18.898438 C8.789063 19.059897 8.828125 19.249999 8.828125 19.468750 C8.828125 19.604167 8.807292 19.744791 8.765625 19.890625 C8.796875 19.890625 8.828125 19.890625 8.859375 19.890625 C8.890625 19.890625 8.921875 19.890625 8.953125 19.890625 C9.130209 19.890625 9.278645 19.934895 9.398438 20.023438 C9.518230 20.111980 9.578125 20.218749 9.578125 20.343750 C9.578125 20.677085 9.369794 20.843750 8.953125 20.843750 C8.869791 20.843750 8.812500 20.838542 8.781250 20.828125 C8.770833 20.973959 8.718750 21.098958 8.625000 21.203125 C8.531250 21.307292 8.427084 21.359375 8.312500 21.359375 Z M1.781250 14.468750 C1.489582 14.468750 1.239584 14.403646 1.031250 14.273438 C0.822916 14.143229 0.718750 13.989584 0.718750 13.812500 C0.718750 13.604166 0.869790 13.429688 1.171875 13.289062 C1.473960 13.148437 1.817706 13.125000 2.203125 13.218750 L1.593750 13.828125 C1.510416 13.442706 1.536458 13.098960 1.671875 12.796875 C1.807292 12.494790 1.984374 12.343750 2.203125 12.343750 C2.380209 12.343750 2.531249 12.445311 2.656250 12.648438 C2.781251 12.851564 2.843750 13.104165 2.843750 13.406250 C2.843750 14.114587 2.489587 14.468750 1.781250 14.468750 Z M16.000000 26.812500 C15.708332 26.812500 15.458334 26.747396 15.250000 26.617188 C15.041666 26.486979 14.937500 26.333334 14.937500 26.156250 C14.937500 25.947916 15.088540 25.773438 15.390625 25.632812 C15.692710 25.492187 16.036456 25.468750 16.421875 25.562500 L15.812500 26.171875 C15.729166 25.786456 15.755208 25.442710 15.890625 25.140625 C16.026042 24.838540 16.203124 24.687500 16.421875 24.687500 C16.598959 24.687500 16.749999 24.789061 16.875000 24.992188 C17.000001 25.195314 17.062500 25.447915 17.062500 25.750000 C17.062500 26.458337 16.708337 26.812500 16.000000 26.812500 Z M12.875000 22.203125 C12.697916 22.203125 12.546876 22.109376 12.421875 21.921875 C12.296874 21.734374 12.234375 21.510418 12.234375 21.250000 C12.234375 20.989582 12.296874 20.768230 12.421875 20.585938 C12.546876 20.403645 12.697916 20.312500 12.875000 20.312500 C13.052084 20.312500 13.203124 20.403645 13.328125 20.585938 C13.453126 20.768230 13.515625 20.989582 13.515625 21.250000 C13.515625 21.510418 13.453126 21.734374 13.328125 21.921875 C13.203124 22.109376 13.052084 22.203125 12.875000 22.203125 Z M22.515625 23.859375 C22.401041 23.859375 22.296875 23.807292 22.203125 23.703125 C22.109375 23.598958 22.057292 23.473959 22.046875 23.328125 C22.015625 23.338542 21.958334 23.343750 21.875000 23.343750 C21.458331 23.343750 21.250000 23.177085 21.250000 22.843750 C21.250000 22.718749 21.312499 22.611980 21.437500 22.523438 C21.562501 22.434895 21.708332 22.390625 21.875000 22.390625 C21.906250 22.390625 21.937500 22.390625 21.968750 22.390625 C22.000000 22.390625 22.031250 22.390625 22.062500 22.390625 C22.020833 22.244791 22.000000 22.104167 22.000000 21.968750 C22.000000 21.749999 22.041666 21.559897 22.125000 21.398438 C22.208334 21.236978 22.302083 21.156250 22.406250 21.156250 C22.520834 21.156250 22.614583 21.226562 22.687500 21.367188 C22.760417 21.507813 22.802083 21.677082 22.812500 21.875000 C22.989584 21.697916 23.166666 21.609375 23.343750 21.609375 C23.520834 21.609375 23.609375 21.703124 23.609375 21.890625 C23.609375 22.067709 23.520834 22.244791 23.343750 22.421875 C23.541668 22.505209 23.640625 22.630207 23.640625 22.796875 C23.640625 22.911459 23.575521 23.010416 23.445312 23.093750 C23.315104 23.177084 23.156251 23.223958 22.968750 23.234375 C22.968750 23.651044 22.817710 23.859375 22.515625 23.859375 Z M13.578125 31.250000 L20.984375 31.250000 C22.192714 31.250000 23.140622 31.052085 23.828125 30.656250 C24.515628 30.260415 24.859375 29.739587 24.859375 29.093750 C24.859375 28.916666 24.796876 28.765626 24.671875 28.640625 C24.546874 28.515624 24.395834 28.453125 24.218750 28.453125 C23.906248 28.453125 23.505211 28.729164 23.015625 29.281250 C22.630206 29.062499 22.289064 28.791668 21.992188 28.468750 C21.695311 28.145832 21.385418 27.713544 21.062500 27.171875 C23.260428 25.182282 24.895828 22.958346 25.968750 20.500000 C26.947922 20.197915 27.885412 19.778649 28.781250 19.242188 C29.677088 18.705726 30.473955 18.111982 31.171875 17.460938 C31.869795 16.809893 32.421873 16.153649 32.828125 15.492188 C33.234377 14.830726 33.437500 14.229169 33.437500 13.687500 C33.437500 13.552083 33.398438 13.450521 33.320312 13.382812 C33.242187 13.315104 33.130209 13.281250 32.984375 13.281250 C32.744790 13.281250 32.390627 13.442707 31.921875 13.765625 C32.005209 13.203122 32.075521 12.567712 32.132812 11.859375 C32.190104 11.151038 32.218750 10.348963 32.218750 9.453125 C32.218750 9.213540 32.138022 9.013022 31.976562 8.851562 C31.815103 8.690103 31.614585 8.609375 31.375000 8.609375 C31.145832 8.609375 30.947918 8.690103 30.781250 8.851562 C30.614582 9.013022 30.531250 9.213540 30.531250 9.453125 C30.531250 11.088550 30.338544 12.541660 29.953125 13.812500 C29.567706 15.083340 29.028649 16.078121 28.335938 16.796875 C27.643226 17.515629 26.838546 17.875000 25.921875 17.875000 C24.546868 17.875000 23.859375 17.135424 23.859375 15.656250 C23.859375 15.291665 23.875000 14.937502 23.906250 14.593750 C23.927083 14.385416 23.937500 14.195313 23.937500 14.023438 C23.937500 13.851562 23.937500 13.697917 23.937500 13.562500 C23.937500 13.302082 23.854168 13.088542 23.687500 12.921875 C23.520832 12.755208 23.322918 12.671875 23.093750 12.671875 C22.864582 12.671875 22.666668 12.752603 22.500000 12.914062 C22.333332 13.075522 22.250000 13.276040 22.250000 13.515625 C22.250000 13.776043 22.273437 14.023436 22.320312 14.257812 C22.367188 14.492189 22.427083 14.760415 22.500000 15.062500 C22.614584 15.510419 22.729166 16.067705 22.843750 16.734375 C22.958334 17.401045 23.015625 18.260411 23.015625 19.312500 C23.015625 20.145838 22.825523 20.979162 22.445312 21.812500 C22.065102 22.645838 21.585940 23.335935 21.007812 23.882812 C20.429685 24.429690 19.833336 24.703125 19.218750 24.703125 C18.822915 24.703125 18.494793 24.583335 18.234375 24.343750 C17.973957 24.104165 17.843750 23.791669 17.843750 23.406250 C17.843750 23.249999 17.867187 23.070314 17.914062 22.867188 C17.960938 22.664061 18.041666 22.432293 18.156250 22.171875 C18.208334 22.067708 18.263021 21.934897 18.320312 21.773438 C18.377604 21.611978 18.406250 21.463542 18.406250 21.328125 C18.406250 21.088540 18.325522 20.888022 18.164062 20.726562 C18.002603 20.565103 17.802085 20.484375 17.562500 20.484375 C17.249998 20.484375 16.984376 20.648436 16.765625 20.976562 C16.546874 21.304689 16.437500 21.786455 16.437500 22.421875 C15.833330 22.130207 15.338544 21.643233 14.953125 20.960938 C14.567706 20.278642 14.375000 19.526046 14.375000 18.703125 C14.375000 17.515619 14.757809 16.226569 15.523438 14.835938 C16.289066 13.445306 17.333327 12.125006 18.656250 10.875000 L18.921875 10.625000 C19.223960 10.333332 19.520832 10.075522 19.812500 9.851562 C20.104168 9.627603 20.374999 9.427084 20.625000 9.250000 C21.166669 8.854165 21.515624 8.570313 21.671875 8.398438 C21.828126 8.226562 21.906250 8.057292 21.906250 7.890625 C21.906250 7.692707 21.841146 7.528646 21.710938 7.398438 C21.580729 7.268229 21.427084 7.203125 21.250000 7.203125 C21.062499 7.203125 20.848960 7.255208 20.609375 7.359375 C20.369790 7.463542 19.942711 7.692707 19.328125 8.046875 C19.473959 7.328121 19.585937 6.661461 19.664062 6.046875 C19.742188 5.432289 19.781250 4.859378 19.781250 4.328125 C19.781250 3.442704 19.684897 2.760419 19.492188 2.281250 C19.299478 1.802081 19.036460 1.562500 18.703125 1.562500 C18.494791 1.562500 18.302084 1.643228 18.125000 1.804688 C17.947916 1.966147 17.859375 2.166665 17.859375 2.406250 C17.859375 2.531251 17.877604 2.713540 17.914062 2.953125 C17.950521 3.192710 18.020833 3.583331 18.125000 4.125000 C18.208334 4.541669 18.289062 4.973956 18.367188 5.421875 C18.445313 5.869794 18.484375 6.260415 18.484375 6.593750 C18.484375 7.354170 18.330731 7.981768 18.023438 8.476562 C17.716144 8.971357 17.270836 9.218750 16.687500 9.218750 C15.916663 9.218750 15.375002 8.869795 15.062500 8.171875 C14.708332 7.401038 14.330731 6.617191 13.929688 5.820312 C13.528644 5.023434 13.109377 4.229171 12.671875 3.437500 C12.505208 3.135415 12.260418 2.984375 11.937500 2.984375 C11.708332 2.984375 11.510417 3.065103 11.343750 3.226562 C11.177082 3.388022 11.093750 3.588540 11.093750 3.828125 C11.093750 3.994792 11.135416 4.145833 11.218750 4.281250 C12.000004 5.583340 12.648435 6.914056 13.164062 8.273438 C13.679690 9.632819 14.046874 11.078117 14.265625 12.609375 C13.984374 13.265628 13.697918 14.015621 13.406250 14.859375 C13.114582 15.703129 12.843751 16.557287 12.593750 17.421875 C12.343749 18.286463 12.140626 19.083330 11.984375 19.812500 C10.515618 19.322914 9.447920 18.557297 8.781250 17.515625 C9.000001 16.921872 9.109375 16.250004 9.109375 15.500000 C9.109375 15.177082 9.096354 14.880210 9.070312 14.609375 C9.044271 14.338540 9.005209 14.057293 8.953125 13.765625 C8.901041 13.432290 8.854167 13.067710 8.812500 12.671875 C8.770833 12.276040 8.750000 11.807294 8.750000 11.265625 C8.750000 11.067707 8.679688 10.898438 8.539062 10.757812 C8.398437 10.617187 8.229168 10.546875 8.031250 10.546875 C7.833332 10.546875 7.664063 10.617187 7.523438 10.757812 C7.382812 10.898438 7.312500 11.067707 7.312500 11.265625 C7.312500 11.557293 7.335937 11.859373 7.382812 12.171875 C7.429688 12.484377 7.489583 12.807290 7.562500 13.140625 C7.635417 13.463543 7.695312 13.796873 7.742188 14.140625 C7.789063 14.484377 7.812500 14.822915 7.812500 15.156250 C7.812500 15.666669 7.692710 16.093748 7.453125 16.437500 C7.213540 16.781252 6.875002 16.953125 6.437500 16.953125 C5.947914 16.953125 5.510419 16.744794 5.125000 16.328125 C4.406246 15.546871 3.914064 14.760421 3.648438 13.968750 C3.382811 13.177079 3.250000 12.244797 3.250000 11.171875 C3.250000 10.932290 3.169272 10.731772 3.007812 10.570312 C2.846353 10.408853 2.645835 10.328125 2.406250 10.328125 C2.177082 10.328125 1.979168 10.408853 1.812500 10.570312 C1.645832 10.731772 1.562500 10.932290 1.562500 11.171875 C1.562500 15.015644 3.432273 18.010406 7.171875 20.156250 L8.750000 21.062500 C10.010423 21.781254 11.005205 22.359373 11.734375 22.796875 C12.463545 23.234377 12.999998 23.580728 13.343750 23.835938 C13.687502 24.091147 13.906250 24.312499 14.000000 24.500000 C14.093750 24.687501 14.140625 24.890624 14.140625 25.109375 C14.140625 25.432293 14.033855 25.697916 13.820312 25.906250 C13.606770 26.114584 13.333335 26.218750 13.000000 26.218750 C12.708332 26.218750 12.388023 26.135418 12.039062 25.968750 C11.690102 25.802082 11.328127 25.588543 10.953125 25.328125 C10.630207 25.098957 10.393230 24.945313 10.242188 24.867188 C10.091145 24.789062 9.958334 24.750000 9.843750 24.750000 C9.677083 24.750000 9.528646 24.809895 9.398438 24.929688 C9.268229 25.049480 9.203125 25.197916 9.203125 25.375000 C9.203125 25.500001 9.263020 25.611979 9.382812 25.710938 C9.502605 25.809896 9.749998 25.927083 10.125000 26.062500 C10.625002 26.239584 11.085935 26.406249 11.507812 26.562500 C11.929690 26.718751 12.302082 26.869791 12.625000 27.015625 C13.031252 27.192709 13.325520 27.372395 13.507812 27.554688 C13.690105 27.736980 13.781250 27.942707 13.781250 28.171875 C13.781250 28.838545 13.364588 29.171875 12.531250 29.171875 C12.249999 29.171875 12.015626 29.270832 11.828125 29.468750 C11.640624 29.666668 11.546875 29.916665 11.546875 30.218750 C11.546875 30.531252 11.716144 30.781249 12.054688 30.968750 C12.393231 31.156251 12.901038 31.250000 13.578125 31.250000 Z M15.703125 11.593750 C15.359373 11.593750 15.187500 11.421877 15.187500 11.078125 C15.187500 10.807290 15.307290 10.557293 15.546875 10.328125 C15.786460 10.098957 16.036457 9.984375 16.296875 9.984375 C16.640627 9.984375 16.812500 10.151040 16.812500 10.484375 C16.812500 10.734376 16.695314 10.981770 16.460938 11.226562 C16.226561 11.471355 15.973960 11.593750 15.703125 11.593750 Z M12.875000 8.859375 C12.770833 8.859375 12.677084 8.778647 12.593750 8.617188 C12.510416 8.455728 12.468750 8.265626 12.468750 8.046875 C12.468750 7.911458 12.489583 7.770834 12.531250 7.625000 C12.500000 7.625000 12.468750 7.625000 12.437500 7.625000 C12.406250 7.625000 12.375000 7.625000 12.343750 7.625000 C12.177083 7.625000 12.031251 7.580730 11.906250 7.492188 C11.781249 7.403645 11.718750 7.296876 11.718750 7.171875 C11.718750 6.838540 11.927081 6.671875 12.343750 6.671875 C12.427084 6.671875 12.484375 6.677083 12.515625 6.687500 C12.526042 6.541666 12.578125 6.416667 12.671875 6.312500 C12.765625 6.208333 12.869791 6.156250 12.984375 6.156250 C13.286460 6.156250 13.437500 6.364581 13.437500 6.781250 C13.625001 6.791667 13.783854 6.838541 13.914062 6.921875 C14.044271 7.005209 14.109375 7.104166 14.109375 7.218750 C14.109375 7.385417 14.010418 7.510416 13.812500 7.593750 C13.989584 7.770834 14.078125 7.947916 14.078125 8.125000 C14.078125 8.312501 13.989584 8.406250 13.812500 8.406250 C13.635416 8.406250 13.458334 8.317709 13.281250 8.140625 C13.270833 8.338543 13.229167 8.507812 13.156250 8.648438 C13.083333 8.789063 12.989584 8.859375 12.875000 8.859375 Z M19.281250 10.875000 C18.989582 10.875000 18.739584 10.809896 18.531250 10.679688 C18.322916 10.549479 18.218750 10.395834 18.218750 10.218750 C18.218750 10.010416 18.369790 9.835938 18.671875 9.695312 C18.973960 9.554687 19.317706 9.531250 19.703125 9.625000 L19.093750 10.234375 C19.010416 9.848956 19.036458 9.505210 19.171875 9.203125 C19.307292 8.901040 19.484374 8.750000 19.703125 8.750000 C19.880209 8.750000 20.031249 8.851561 20.156250 9.054688 C20.281251 9.257814 20.343750 9.510415 20.343750 9.812500 C20.343750 10.520837 19.989587 10.875000 19.281250 10.875000 Z M30.296875 16.203125 C30.192708 16.203125 30.104167 16.132813 30.031250 15.992188 C29.958333 15.851562 29.911458 15.682293 29.890625 15.484375 C29.713541 15.661459 29.536459 15.750000 29.359375 15.750000 C29.182291 15.750000 29.093750 15.656251 29.093750 15.468750 C29.093750 15.291666 29.182291 15.114584 29.359375 14.937500 C29.161457 14.854166 29.062500 14.729167 29.062500 14.562500 C29.062500 14.447916 29.127604 14.348959 29.257812 14.265625 C29.388021 14.182291 29.546874 14.135417 29.734375 14.125000 C29.734375 13.708331 29.885415 13.500000 30.187500 13.500000 C30.302084 13.500000 30.406250 13.552083 30.500000 13.656250 C30.593750 13.760417 30.645833 13.885416 30.656250 14.031250 C30.687500 14.020833 30.744791 14.015625 30.828125 14.015625 C31.244794 14.015625 31.453125 14.182290 31.453125 14.515625 C31.453125 14.640626 31.393230 14.747395 31.273438 14.835938 C31.153645 14.924480 31.005209 14.968750 30.828125 14.968750 C30.796875 14.968750 30.765625 14.968750 30.734375 14.968750 C30.703125 14.968750 30.671875 14.968750 30.640625 14.968750 C30.682292 15.114584 30.703125 15.255208 30.703125 15.390625 C30.703125 15.609376 30.664063 15.799478 30.585938 15.960938 C30.507812 16.122397 30.411459 16.203125 30.296875 16.203125 Z M26.656250 18.921875 C26.312498 18.921875 26.140625 18.750002 26.140625 18.406250 C26.140625 18.135415 26.260415 17.885418 26.500000 17.656250 C26.739585 17.427082 26.989582 17.312500 27.250000 17.312500 C27.593752 17.312500 27.765625 17.479165 27.765625 17.812500 C27.765625 18.062501 27.648439 18.309895 27.414062 18.554688 C27.179686 18.799480 26.927085 18.921875 26.656250 18.921875 Z M18.671875 28.937500 C18.328123 28.937500 18.156250 28.765627 18.156250 28.421875 C18.156250 28.151040 18.276040 27.901043 18.515625 27.671875 C18.755210 27.442707 19.005207 27.328125 19.265625 27.328125 C19.609377 27.328125 19.781250 27.494790 19.781250 27.828125 C19.781250 28.078126 19.664064 28.325520 19.429688 28.570312 C19.195311 28.815105 18.942710 28.937500 18.671875 28.937500 Z M37.812500 27.343750" /></svg>