<svg version="1.1" xmlns="http://www.w3.org/2000/svg" style="fill:rgba(0,0,0,1.0)" width="256" height="256" viewBox="0 0 38.59375 32.8125"><path fill="rgb(255, 255, 255)" d="M18.281250 32.015625 C14.760399 32.015625 12.020843 31.166675 10.062500 29.468750 C8.104157 27.770825 7.125000 25.244808 7.125000 21.890625 C7.125000 20.567702 7.390622 19.507816 7.921875 18.710938 C8.453128 17.914059 9.341140 17.338543 10.585938 16.984375 C11.830735 16.630207 13.526031 16.453125 15.671875 16.453125 L20.890625 16.453125 C23.036469 16.453125 24.731765 16.630207 25.976562 16.984375 C27.221360 17.338543 28.109372 17.914059 28.640625 18.710938 C29.171878 19.507816 29.437500 20.567702 29.437500 21.890625 C29.437500 25.244808 28.458343 27.770825 26.500000 29.468750 C24.541657 31.166675 21.802101 32.015625 18.281250 32.015625 Z M4.421875 32.812500 C4.421875 32.229164 4.463541 31.565108 4.546875 30.820312 C4.630209 30.075517 4.736979 29.380212 4.867188 28.734375 C4.997396 28.088538 5.130208 27.630210 5.265625 27.359375 C5.484376 27.171874 5.932288 26.934897 6.609375 26.648438 C7.286462 26.361978 7.947913 26.119793 8.593750 25.921875 L9.703125 27.484375 C9.213539 27.723960 8.679690 27.937499 8.101562 28.125000 C7.523435 28.312501 7.062502 28.437500 6.718750 28.500000 C6.614583 28.812502 6.518230 29.223956 6.429688 29.734375 C6.341145 30.244794 6.268229 30.776039 6.210938 31.328125 C6.153646 31.880211 6.125000 32.374998 6.125000 32.812500 Z M3.250000 28.750000 L1.484375 28.140625 C1.671876 27.546872 1.890624 26.945316 2.140625 26.335938 C2.390626 25.726559 2.645832 25.177086 2.906250 24.687500 C3.166668 24.197914 3.395832 23.843751 3.593750 23.625000 C3.760418 23.572916 4.062498 23.520834 4.500000 23.468750 C4.937502 23.416666 5.421872 23.369792 5.953125 23.328125 C6.484378 23.286458 6.976560 23.255208 7.429688 23.234375 C7.882815 23.213542 8.208332 23.203125 8.406250 23.203125 L9.031250 25.078125 C8.760415 25.078125 8.367190 25.085937 7.851562 25.101562 C7.335935 25.117188 6.791670 25.140625 6.218750 25.171875 C5.645830 25.203125 5.130211 25.250000 4.671875 25.312500 C4.380207 25.854169 4.098960 26.460934 3.828125 27.132812 C3.557290 27.804691 3.364584 28.343748 3.250000 28.750000 Z M1.500000 24.359375 L0.000000 23.234375 C0.354168 22.723956 0.747394 22.218752 1.179688 21.718750 C1.611981 21.218748 2.028644 20.776044 2.429688 20.390625 C2.830731 20.005206 3.156249 19.739584 3.406250 19.593750 C3.583334 19.593750 3.888019 19.635416 4.320312 19.718750 C4.752606 19.802084 5.226560 19.906249 5.742188 20.031250 C6.257815 20.156251 6.734373 20.281249 7.171875 20.406250 C7.609377 20.531251 7.927082 20.640625 8.125000 20.734375 L8.125000 22.703125 C7.864582 22.598958 7.492190 22.473959 7.007812 22.328125 C6.523435 22.182291 6.002607 22.036459 5.445312 21.890625 C4.888018 21.744791 4.375002 21.625000 3.906250 21.531250 C3.614582 21.812501 3.312502 22.130207 3.000000 22.484375 C2.687498 22.838543 2.398439 23.182290 2.132812 23.515625 C1.867186 23.848960 1.656251 24.130207 1.500000 24.359375 Z M7.890625 19.921875 L4.937500 18.015625 C4.364580 18.255210 3.856773 18.492186 3.414062 18.726562 C2.971352 18.960939 2.552085 19.223957 2.156250 19.515625 L1.093750 17.984375 C1.406252 17.734374 1.843747 17.458335 2.406250 17.156250 C2.968753 16.854165 3.513018 16.591147 4.039062 16.367188 C4.565107 16.143228 4.921874 16.031250 5.109375 16.031250 L8.656250 18.203125 Z M18.281250 30.296875 C21.375015 30.296875 23.695305 29.625007 25.242188 28.281250 C26.789070 26.937493 27.562500 24.807306 27.562500 21.890625 C27.562500 20.921870 27.369794 20.169274 26.984375 19.632812 C26.598956 19.096351 25.924484 18.718751 24.960938 18.500000 C23.997391 18.281249 22.640634 18.171875 20.890625 18.171875 L15.671875 18.171875 C13.932283 18.171875 12.578130 18.281249 11.609375 18.500000 C10.640620 18.718751 9.963544 19.096351 9.578125 19.632812 C9.192706 20.169274 9.000000 20.921870 9.000000 21.890625 C9.000000 24.807306 9.773430 26.937493 11.320312 28.281250 C12.867195 29.625007 15.187485 30.296875 18.281250 30.296875 Z M30.437500 32.812500 C30.437500 32.374998 30.408854 31.880211 30.351562 31.328125 C30.294271 30.776039 30.221355 30.244794 30.132812 29.734375 C30.044270 29.223956 29.947917 28.812502 29.843750 28.500000 C29.499998 28.437500 29.039065 28.312501 28.460938 28.125000 C27.882810 27.937499 27.348961 27.723960 26.859375 27.484375 L27.968750 25.921875 C28.614587 26.119793 29.276038 26.361978 29.953125 26.648438 C30.630212 26.934897 31.078124 27.171874 31.296875 27.359375 C31.432292 27.630210 31.565104 28.088538 31.695312 28.734375 C31.825521 29.380212 31.932291 30.075517 32.015625 30.820312 C32.098959 31.565108 32.140625 32.229164 32.140625 32.812500 Z M7.828125 19.156250 C7.578124 18.749998 7.312501 18.268232 7.031250 17.710938 C6.749999 17.153643 6.507814 16.591149 6.304688 16.023438 C6.101561 15.455726 5.979167 14.958335 5.937500 14.531250 C5.760416 14.239582 5.617188 13.867190 5.507812 13.414062 C5.398437 12.960935 5.343750 12.510419 5.343750 12.062500 C5.343750 11.374997 5.473957 10.682295 5.734375 9.984375 C5.640625 9.619790 5.593750 9.234377 5.593750 8.828125 C5.593750 7.744786 5.851560 6.682297 6.367188 5.640625 C6.882815 4.598953 7.575516 3.651046 8.445312 2.796875 C9.315109 1.942704 10.283849 1.263023 11.351562 0.757812 C12.419276 0.252602 13.505203 -0.000000 14.609375 -0.000000 C15.286462 -0.000000 15.807290 0.127603 16.171875 0.382812 C16.536460 0.638022 16.718750 1.031247 16.718750 1.562500 C16.718750 1.885418 16.651042 2.236977 16.515625 2.617188 C16.380208 2.997398 16.182293 3.343748 15.921875 3.656250 C16.171876 3.593750 16.374999 3.562500 16.531250 3.562500 C16.885418 3.562500 17.158853 3.687499 17.351562 3.937500 C17.544272 4.187501 17.640625 4.520831 17.640625 4.937500 C17.640625 5.687504 17.346357 6.492183 16.757812 7.351562 C16.169268 8.210942 15.372401 9.054683 14.367188 9.882812 C13.361974 10.710942 12.234381 11.453122 10.984375 12.109375 C11.005208 12.234376 11.023437 12.356770 11.039062 12.476562 C11.054688 12.596355 11.062500 12.718749 11.062500 12.843750 C11.062500 13.000001 11.059896 13.156249 11.054688 13.312500 C11.049479 13.468751 11.026042 13.624999 10.984375 13.781250 C11.296877 14.125002 11.632811 14.565101 11.992188 15.101562 C12.351564 15.638024 12.687498 16.244788 13.000000 16.921875 L11.375000 17.265625 C11.052082 16.567705 10.695314 15.908857 10.304688 15.289062 C9.914061 14.669268 9.583335 14.182293 9.312500 13.828125 C9.114582 13.776041 8.921876 13.742188 8.734375 13.726562 C8.546874 13.710937 8.416667 13.703125 8.343750 13.703125 C8.010415 13.703125 7.666668 13.822915 7.312500 14.062500 C7.312500 14.395835 7.393228 14.815102 7.554688 15.320312 C7.716147 15.825523 7.927082 16.346351 8.187500 16.882812 C8.447918 17.419274 8.718749 17.901040 9.000000 18.328125 Z M15.671875 14.640625 C15.911460 14.640625 16.117187 14.533855 16.289062 14.320312 C16.460938 14.106770 16.546875 13.848960 16.546875 13.546875 C16.546875 13.244790 16.460938 12.986980 16.289062 12.773438 C16.117187 12.559895 15.911460 12.453125 15.671875 12.453125 C15.432290 12.453125 15.226563 12.559895 15.054688 12.773438 C14.882812 12.986980 14.796875 13.244790 14.796875 13.546875 C14.796875 13.848960 14.882812 14.106770 15.054688 14.320312 C15.226563 14.533855 15.432290 14.640625 15.671875 14.640625 Z M33.312500 28.750000 C33.197916 28.343748 33.005210 27.804691 32.734375 27.132812 C32.463540 26.460934 32.182293 25.854169 31.890625 25.312500 C31.432289 25.250000 30.916670 25.203125 30.343750 25.171875 C29.770830 25.140625 29.229169 25.117188 28.718750 25.101562 C28.208331 25.085937 27.812501 25.078125 27.531250 25.078125 L28.156250 23.203125 C28.354168 23.203125 28.679685 23.213542 29.132812 23.234375 C29.585940 23.255208 30.078122 23.286458 30.609375 23.328125 C31.140628 23.369792 31.624998 23.416666 32.062500 23.468750 C32.500002 23.520834 32.802082 23.572916 32.968750 23.625000 C33.166668 23.843751 33.395832 24.197914 33.656250 24.687500 C33.916668 25.177086 34.174478 25.726559 34.429688 26.335938 C34.684897 26.945316 34.901041 27.546872 35.078125 28.140625 Z M8.968750 11.046875 C9.083334 11.046875 9.265624 11.036458 9.515625 11.015625 C9.765626 10.994792 9.989582 10.963542 10.187500 10.921875 C11.260422 10.390622 12.255204 9.755212 13.171875 9.015625 C14.088546 8.276038 14.825518 7.554691 15.382812 6.851562 C15.940107 6.148434 16.218750 5.583335 16.218750 5.156250 C16.218750 4.906249 16.057293 4.781250 15.734375 4.781250 C15.442707 4.781250 15.127606 4.846354 14.789062 4.976562 C14.450519 5.106771 14.151043 5.260416 13.890625 5.437500 L13.203125 4.375000 C14.682299 3.458329 15.421875 2.619795 15.421875 1.859375 C15.421875 1.557290 15.156253 1.406250 14.625000 1.406250 C13.708329 1.406250 12.799484 1.622394 11.898438 2.054688 C10.997391 2.486981 10.177087 3.062496 9.437500 3.781250 C8.697913 4.500004 8.106773 5.296871 7.664062 6.171875 C7.221352 7.046879 7.000000 7.932287 7.000000 8.828125 C7.000000 9.578129 7.130207 10.135415 7.390625 10.500000 C7.651043 10.864585 8.177079 11.046875 8.968750 11.046875 Z M22.062500 17.312500 L19.718750 17.312500 C19.718750 16.635413 19.679688 16.127606 19.601562 15.789062 C19.523437 15.450519 19.429688 15.187501 19.320312 15.000000 C19.210937 14.812499 19.117188 14.619793 19.039062 14.421875 C18.960937 14.223957 18.921875 13.932294 18.921875 13.546875 C18.921875 12.828121 19.091144 12.270835 19.429688 11.875000 C19.768231 11.479165 20.255205 11.281250 20.890625 11.281250 C21.536462 11.281250 22.026040 11.479165 22.359375 11.875000 C22.692710 12.270835 22.859375 12.828121 22.859375 13.546875 C22.859375 13.932294 22.820313 14.223957 22.742188 14.421875 C22.664062 14.619793 22.570313 14.812499 22.460938 15.000000 C22.351562 15.187501 22.257813 15.450519 22.179688 15.789062 C22.101562 16.127606 22.062500 16.635413 22.062500 17.312500 Z M20.890625 14.640625 C21.130210 14.640625 21.335937 14.533855 21.507812 14.320312 C21.679688 14.106770 21.765625 13.848960 21.765625 13.546875 C21.765625 13.244790 21.679688 12.986980 21.507812 12.773438 C21.335937 12.559895 21.130210 12.453125 20.890625 12.453125 C20.651040 12.453125 20.445313 12.559895 20.273438 12.773438 C20.101562 12.986980 20.015625 13.244790 20.015625 13.546875 C20.015625 13.848960 20.101562 14.106770 20.273438 14.320312 C20.445313 14.533855 20.651040 14.640625 20.890625 14.640625 Z M35.062500 24.359375 C34.906249 24.130207 34.695314 23.848960 34.429688 23.515625 C34.164061 23.182290 33.875002 22.838543 33.562500 22.484375 C33.249998 22.130207 32.947918 21.812501 32.656250 21.531250 C32.187498 21.625000 31.674482 21.744791 31.117188 21.890625 C30.559893 22.036459 30.039065 22.182291 29.554688 22.328125 C29.070310 22.473959 28.697918 22.598958 28.437500 22.703125 L28.437500 20.734375 C28.635418 20.640625 28.953123 20.531251 29.390625 20.406250 C29.828127 20.281249 30.304685 20.156251 30.820312 20.031250 C31.335940 19.906249 31.809894 19.802084 32.242188 19.718750 C32.674481 19.635416 32.979166 19.593750 33.156250 19.593750 C33.416668 19.739584 33.744790 20.005206 34.140625 20.390625 C34.536460 20.776044 34.950519 21.218748 35.382812 21.718750 C35.815106 22.218752 36.208332 22.723956 36.562500 23.234375 Z M28.671875 19.921875 L27.906250 18.203125 L31.453125 16.031250 C31.651043 16.031250 32.010414 16.143228 32.531250 16.367188 C33.052086 16.591147 33.593747 16.854165 34.156250 17.156250 C34.718753 17.458335 35.156248 17.734374 35.468750 17.984375 L34.406250 19.515625 C34.010415 19.223957 33.593752 18.960939 33.156250 18.726562 C32.718748 18.492186 32.208336 18.255210 31.625000 18.015625 Z M28.734375 19.156250 L27.562500 18.328125 C27.854168 17.901040 28.127603 17.419274 28.382812 16.882812 C28.638022 16.346351 28.846353 15.825523 29.007812 15.320312 C29.169272 14.815102 29.250000 14.395835 29.250000 14.062500 C28.895832 13.822915 28.552085 13.703125 28.218750 13.703125 C28.145833 13.703125 28.018230 13.710937 27.835938 13.726562 C27.653645 13.742188 27.458334 13.776041 27.250000 13.828125 C26.979165 14.182293 26.648439 14.669268 26.257812 15.289062 C25.867186 15.908857 25.510418 16.567705 25.187500 17.265625 L23.562500 16.921875 C23.875002 16.244788 24.210936 15.638024 24.570312 15.101562 C24.929689 14.565101 25.265623 14.125002 25.578125 13.781250 C25.536458 13.624999 25.513021 13.468751 25.507812 13.312500 C25.502604 13.156249 25.500000 13.000001 25.500000 12.843750 C25.500000 12.718749 25.507812 12.596355 25.523438 12.476562 C25.539063 12.356770 25.557292 12.234376 25.578125 12.109375 C24.328119 11.453122 23.200526 10.710942 22.195312 9.882812 C21.190099 9.054683 20.393232 8.210942 19.804688 7.351562 C19.216143 6.492183 18.921875 5.687504 18.921875 4.937500 C18.921875 4.520831 19.018228 4.187501 19.210938 3.937500 C19.403647 3.687499 19.677082 3.562500 20.031250 3.562500 C20.187501 3.562500 20.390624 3.593750 20.640625 3.656250 C20.380207 3.343748 20.182292 2.997398 20.046875 2.617188 C19.911458 2.236977 19.843750 1.885418 19.843750 1.562500 C19.843750 1.031247 20.028644 0.638022 20.398438 0.382812 C20.768231 0.127603 21.286455 -0.000000 21.953125 -0.000000 C23.057297 -0.000000 24.143224 0.252602 25.210938 0.757812 C26.278651 1.263023 27.247391 1.942704 28.117188 2.796875 C28.986984 3.651046 29.679685 4.598953 30.195312 5.640625 C30.710940 6.682297 30.968750 7.744786 30.968750 8.828125 C30.968750 9.234377 30.921875 9.619790 30.828125 9.984375 C31.088543 10.682295 31.218750 11.374997 31.218750 12.062500 C31.218750 12.510419 31.164063 12.960935 31.054688 13.414062 C30.945312 13.867190 30.802084 14.239582 30.625000 14.531250 C30.593750 14.958335 30.473959 15.455726 30.265625 16.023438 C30.057291 16.591149 29.812501 17.153643 29.531250 17.710938 C29.249999 18.268232 28.984376 18.749998 28.734375 19.156250 Z M27.593750 11.046875 C28.395837 11.046875 28.924478 10.864585 29.179688 10.500000 C29.434897 10.135415 29.562500 9.578129 29.562500 8.828125 C29.562500 7.932287 29.341148 7.046879 28.898438 6.171875 C28.455727 5.296871 27.864587 4.500004 27.125000 3.781250 C26.385413 3.062496 25.565109 2.486981 24.664062 2.054688 C23.763016 1.622394 22.854171 1.406250 21.937500 1.406250 C21.406247 1.406250 21.140625 1.557290 21.140625 1.859375 C21.140625 2.619795 21.880201 3.458329 23.359375 4.375000 L22.671875 5.437500 C22.411457 5.260416 22.111981 5.106771 21.773438 4.976562 C21.434894 4.846354 21.119793 4.781250 20.828125 4.781250 C20.505207 4.781250 20.343750 4.906249 20.343750 5.156250 C20.343750 5.583335 20.622393 6.148434 21.179688 6.851562 C21.736982 7.554691 22.473954 8.276038 23.390625 9.015625 C24.307296 9.755212 25.302078 10.390622 26.375000 10.921875 C26.572918 10.963542 26.796874 10.994792 27.046875 11.015625 C27.296876 11.036458 27.479166 11.046875 27.593750 11.046875 Z M16.843750 17.312500 L14.500000 17.312500 C14.500000 16.635413 14.460938 16.127606 14.382812 15.789062 C14.304687 15.450519 14.210938 15.187501 14.101562 15.000000 C13.992187 14.812499 13.898438 14.619793 13.820312 14.421875 C13.742187 14.223957 13.703125 13.932294 13.703125 13.546875 C13.703125 12.828121 13.872394 12.270835 14.210938 11.875000 C14.549481 11.479165 15.036455 11.281250 15.671875 11.281250 C16.317712 11.281250 16.807290 11.479165 17.140625 11.875000 C17.473960 12.270835 17.640625 12.828121 17.640625 13.546875 C17.640625 13.932294 17.601563 14.223957 17.523438 14.421875 C17.445312 14.619793 17.351563 14.812499 17.242188 15.000000 C17.132812 15.187501 17.039063 15.450519 16.960938 15.789062 C16.882812 16.127606 16.843750 16.635413 16.843750 17.312500 Z M38.593750 27.343750" /></svg>