<svg version="1.1" xmlns="http://www.w3.org/2000/svg" style="fill:rgba(0,0,0,1.0)" width="256" height="256" viewBox="0 0 37.1875 32.8125"><path fill="rgb(255, 255, 255)" d="M16.171875 32.812500 C14.182282 32.812500 12.278655 32.505211 10.460938 31.890625 C8.643220 31.276039 7.000007 30.421880 5.531250 29.328125 C4.062493 28.234370 2.843755 26.958341 1.875000 25.500000 C0.906245 24.041659 0.281251 22.468758 0.000000 20.781250 C1.395840 21.833339 3.018220 22.666664 4.867188 23.281250 C6.716155 23.895836 8.531241 24.203125 10.312500 24.203125 C12.552095 24.203125 14.583324 23.864587 16.406250 23.187500 C18.229176 22.510413 19.799473 21.541673 21.117188 20.281250 C22.434902 19.020827 23.447913 17.515634 24.156250 15.765625 C24.864587 14.015616 25.218750 12.072927 25.218750 9.937500 C25.218750 8.510410 25.085939 7.007820 24.820312 5.429688 C24.554686 3.851555 24.104170 2.041677 23.468750 -0.000000 C25.770845 0.947921 27.682284 2.145826 29.203125 3.593750 C30.723966 5.041674 31.861975 6.744782 32.617188 8.703125 C33.372400 10.661468 33.750000 12.890612 33.750000 15.390625 C33.750000 17.796887 33.294275 20.052073 32.382812 22.156250 C31.471350 24.260427 30.210946 26.111971 28.601562 27.710938 C26.992179 29.309904 25.125011 30.559891 23.000000 31.460938 C20.874989 32.361984 18.598970 32.812500 16.171875 32.812500 Z M16.171875 31.015625 C18.338552 31.015625 20.369782 30.609379 22.265625 29.796875 C24.161468 28.984371 25.830722 27.859382 27.273438 26.421875 C28.716153 24.984368 29.843746 23.322926 30.656250 21.437500 C31.468754 19.552074 31.875000 17.536469 31.875000 15.390625 C31.875000 13.598949 31.656252 11.945320 31.218750 10.429688 C30.781248 8.914055 30.127609 7.544277 29.257812 6.320312 C28.388016 5.096348 27.307298 4.026046 26.015625 3.109375 C26.734379 5.421887 27.093750 7.697905 27.093750 9.937500 C27.093750 12.333345 26.692712 14.513011 25.890625 16.476562 C25.088538 18.440114 23.942716 20.132805 22.453125 21.554688 C20.963534 22.976570 19.192719 24.072913 17.140625 24.843750 C15.088531 25.614587 12.812512 26.000000 10.312500 26.000000 C7.843738 26.000000 5.567719 25.541671 3.484375 24.625000 C4.484380 25.968757 5.653639 27.117183 6.992188 28.070312 C8.330736 29.023442 9.778638 29.752602 11.335938 30.257812 C12.893237 30.763023 14.505200 31.015625 16.171875 31.015625 Z M37.187500 27.343750" /></svg>