<svg version="1.1" xmlns="http://www.w3.org/2000/svg" style="fill:rgba(0,0,0,1.0)" width="256" height="256" viewBox="0 0 37.5 32.8125"><path fill="rgb(255, 255, 255)" d="M8.484375 32.812500 L26.500000 14.687500 C26.249999 14.322915 26.062501 13.984377 25.937500 13.671875 C25.812499 13.359373 25.750000 13.062501 25.750000 12.781250 C25.750000 12.458332 25.822916 12.148439 25.968750 11.851562 C26.114584 11.554686 26.333332 11.260418 26.625000 10.968750 L32.484375 5.046875 C32.671876 4.859374 32.932290 4.653647 33.265625 4.429688 C33.598960 4.205728 33.968748 4.005209 34.375000 3.828125 C34.375000 2.598952 34.044274 1.653649 33.382812 0.992188 C32.721351 0.330726 31.651049 -0.000000 30.171875 -0.000000 C30.036458 0.531253 29.911459 0.927082 29.796875 1.187500 C29.682291 1.447918 29.520834 1.687499 29.312500 1.906250 L23.328125 7.984375 C22.994790 8.328127 22.656252 8.570312 22.312500 8.710938 C21.968748 8.851563 21.614585 8.921875 21.250000 8.921875 C20.927082 8.921875 20.596356 8.877605 20.257812 8.789062 C19.919269 8.700520 19.567710 8.583334 19.203125 8.437500 L2.109375 25.953125 L1.921875 28.718750 L5.718750 32.578125 Z M4.937500 15.843750 C4.010412 15.843750 3.171879 15.601565 2.421875 15.117188 C1.671871 14.632810 1.080731 14.000004 0.648438 13.218750 C0.216144 12.437496 0.000000 11.598963 0.000000 10.703125 C0.000000 9.786454 0.221352 8.955733 0.664062 8.210938 C1.106773 7.466142 1.700517 6.869794 2.445312 6.421875 C3.190108 5.973956 4.020829 5.750000 4.937500 5.750000 C6.500008 5.750000 7.736975 6.239578 8.648438 7.218750 C9.559900 8.197922 10.015625 9.437493 10.015625 10.937500 C10.015625 11.875005 9.783856 12.713538 9.320312 13.453125 C8.856769 14.192712 8.242191 14.776040 7.476562 15.203125 C6.710934 15.630210 5.864588 15.843750 4.937500 15.843750 Z M5.000000 14.125000 C5.895838 14.125000 6.669268 13.820316 7.320312 13.210938 C7.971357 12.601559 8.296875 11.838546 8.296875 10.921875 C8.296875 9.901037 8.007815 9.070316 7.429688 8.429688 C6.851560 7.789059 6.020839 7.468750 4.937500 7.468750 C4.031245 7.468750 3.268232 7.783851 2.648438 8.414062 C2.028643 9.044274 1.718750 9.812495 1.718750 10.718750 C1.718750 11.312503 1.864582 11.869789 2.156250 12.390625 C2.447918 12.911461 2.841143 13.330728 3.335938 13.648438 C3.830732 13.966147 4.385414 14.125000 5.000000 14.125000 Z M2.281250 13.296875 L1.406250 11.843750 C1.906252 11.843750 2.455726 11.718751 3.054688 11.468750 C3.653649 11.218749 4.242185 10.888023 4.820312 10.476562 C5.398440 10.065102 5.903644 9.611982 6.335938 9.117188 C6.768231 8.622393 7.062499 8.135419 7.218750 7.656250 L8.250000 8.937500 C8.052082 9.552086 7.651045 10.179684 7.046875 10.820312 C6.442705 11.460941 5.723962 12.010414 4.890625 12.468750 C4.057288 12.927086 3.187505 13.203125 2.281250 13.296875 Z M7.765625 30.875000 L6.562500 30.796875 L3.812500 27.984375 L3.859375 26.843750 L19.781250 10.531250 C20.468753 10.718751 21.046873 10.812500 21.515625 10.812500 C22.119795 10.812500 22.697914 10.604169 23.250000 10.187500 C23.802086 9.770831 24.442705 9.197920 25.171875 8.468750 L30.453125 3.093750 C30.588542 2.947916 30.729166 2.763022 30.875000 2.539062 C31.020834 2.315103 31.130208 2.104168 31.203125 1.906250 C31.515627 1.906250 31.802082 2.020832 32.062500 2.250000 C32.322918 2.479168 32.463542 2.729165 32.484375 3.000000 C32.296874 3.104167 32.106772 3.229166 31.914062 3.375000 C31.721353 3.520834 31.531251 3.687499 31.343750 3.875000 L25.593750 9.687500 C25.020830 10.270836 24.583335 10.794269 24.281250 11.257812 C23.979165 11.721356 23.828125 12.208331 23.828125 12.718750 C23.828125 13.177086 23.963540 13.708330 24.234375 14.312500 Z M16.312500 18.593750 L26.265625 10.062500 L24.406250 8.156250 L15.796875 17.984375 C15.463540 18.359377 15.296875 18.656249 15.296875 18.875000 C15.296875 19.000001 15.354166 19.062500 15.468750 19.062500 C15.677084 19.062500 15.958332 18.906252 16.312500 18.593750 Z M27.609375 8.531250 L28.937500 7.203125 L27.078125 5.281250 L25.750000 6.609375 Z M30.171875 6.062500 L31.500000 4.734375 L29.640625 2.812500 L28.312500 4.140625 Z M37.500000 27.343750" /></svg>