<svg version="1.1" xmlns="http://www.w3.org/2000/svg" style="fill:rgba(0,0,0,1.0)" width="256" height="256" viewBox="0 0 37.5 32.8125"><path fill="rgb(255, 255, 255)" d="M13.859375 32.812500 C12.036449 32.812500 10.463548 32.398442 9.140625 31.570312 C7.817702 30.742183 6.843753 29.739589 6.218750 28.562500 C4.656242 27.989580 3.427088 27.187505 2.531250 26.156250 C1.635412 25.124995 1.187500 24.000006 1.187500 22.781250 C1.187500 22.416665 1.234375 22.026044 1.328125 21.609375 C1.421875 21.192706 1.567707 20.786460 1.765625 20.390625 C1.223956 19.869789 0.794272 19.174484 0.476562 18.304688 C0.158853 17.434891 0.000000 16.510422 0.000000 15.531250 C0.000000 14.572912 0.156248 13.664067 0.468750 12.804688 C0.781252 11.945308 1.244789 11.145837 1.859375 10.406250 C2.473961 9.666663 3.223954 9.005211 4.109375 8.421875 C4.078125 8.244791 4.052083 8.072917 4.031250 7.906250 C4.010417 7.739583 4.000000 7.557293 4.000000 7.359375 C4.000000 6.442704 4.213540 5.546879 4.640625 4.671875 C5.067710 3.796871 5.653642 3.007816 6.398438 2.304688 C7.143233 1.601559 8.002599 1.041669 8.976562 0.625000 C9.950526 0.208331 10.989578 -0.000000 12.093750 -0.000000 C13.364590 -0.000000 14.570307 0.286455 15.710938 0.859375 C16.851568 1.432295 17.898433 2.260411 18.851562 3.343750 C19.804692 4.427089 20.643226 5.731763 21.367188 7.257812 C22.091149 8.783862 22.661456 10.499990 23.078125 12.406250 L21.281250 12.781250 C20.749997 10.520822 20.023442 8.570321 19.101562 6.929688 C18.179683 5.289054 17.114589 4.023442 15.906250 3.132812 C14.697911 2.242183 13.401049 1.796875 12.015625 1.796875 C11.161454 1.796875 10.354170 1.963540 9.593750 2.296875 C8.833330 2.630210 8.161461 3.080726 7.578125 3.648438 C6.994789 4.216149 6.536460 4.864580 6.203125 5.593750 C5.869790 6.322920 5.703125 7.078121 5.703125 7.859375 C5.703125 8.109376 5.723958 8.361978 5.765625 8.617188 C5.807292 8.872397 5.864583 9.130207 5.937500 9.390625 C4.645827 10.057295 3.645837 10.895828 2.937500 11.906250 C2.229163 12.916672 1.875000 14.130201 1.875000 15.546875 C1.875000 16.192712 1.955728 16.833330 2.117188 17.468750 C2.278647 18.104170 2.536457 18.708330 2.890625 19.281250 C3.630212 18.916665 4.377600 18.643230 5.132812 18.460938 C5.888025 18.278645 6.677079 18.187500 7.500000 18.187500 C9.187508 18.187500 10.791659 18.541663 12.312500 19.250000 C13.833341 19.958337 15.072912 20.932285 16.031250 22.171875 C16.145834 21.869790 16.234375 21.528648 16.296875 21.148438 C16.359375 20.768227 16.390625 20.364585 16.390625 19.937500 C17.921883 19.677082 19.177078 19.208337 20.156250 18.531250 C21.135422 17.854163 21.838540 16.895840 22.265625 15.656250 C22.786461 15.781251 23.307289 15.843750 23.828125 15.843750 C24.546879 15.843750 25.223955 15.708335 25.859375 15.437500 C26.296877 15.750002 26.718748 15.966145 27.125000 16.085938 C27.531252 16.205730 27.973956 16.302083 28.453125 16.375000 C28.453125 17.197921 28.630207 17.908851 28.984375 18.507812 C29.338543 19.106774 29.812497 19.406250 30.406250 19.406250 C31.020836 19.406250 31.523436 19.046879 31.914062 18.328125 C32.304689 17.609371 32.500000 16.520841 32.500000 15.062500 C32.500000 14.635415 32.468750 14.158857 32.406250 13.632812 C32.343750 13.106768 32.208334 12.489587 32.000000 11.781250 C31.833332 12.458337 31.598960 13.111976 31.296875 13.742188 C30.994790 14.372399 30.666668 14.916664 30.312500 15.375000 L29.062500 14.453125 C29.520836 13.838539 29.893228 13.114587 30.179688 12.281250 C30.466147 11.447913 30.609375 10.625004 30.609375 9.812500 C30.609375 8.437493 30.203129 7.328129 29.390625 6.484375 C28.578121 5.640621 27.541673 5.218750 26.281250 5.218750 L25.484375 3.531250 C27.411468 3.531250 28.992181 3.997391 30.226562 4.929688 C31.460944 5.861984 32.156249 7.130200 32.312500 8.734375 C32.979170 9.526046 33.489582 10.489578 33.843750 11.625000 C34.197918 12.760422 34.375000 13.906244 34.375000 15.062500 C34.375000 16.260423 34.192710 17.322912 33.828125 18.250000 C33.463540 19.177088 32.976566 19.901039 32.367188 20.421875 C31.757809 20.942711 31.083337 21.203125 30.343750 21.203125 C29.489579 21.203125 28.742191 20.872399 28.101562 20.210938 C27.460934 19.549476 27.067709 18.729172 26.921875 17.750000 C26.661457 17.697916 26.424480 17.630209 26.210938 17.546875 C25.997395 17.463541 25.786459 17.364584 25.578125 17.250000 C25.067706 17.416668 24.531253 17.500000 23.968750 17.500000 C23.854166 17.500000 23.742188 17.494792 23.632812 17.484375 C23.523437 17.473958 23.416667 17.463542 23.312500 17.453125 C22.864581 18.380213 22.156255 19.182288 21.187500 19.859375 C20.218745 20.536462 19.197922 21.010415 18.125000 21.281250 C18.125000 21.770836 18.026043 22.236977 17.828125 22.679688 C17.630207 23.122398 17.364585 23.526040 17.031250 23.890625 C17.114584 24.005209 17.182291 24.124999 17.234375 24.250000 C17.286459 24.375001 17.328125 24.510416 17.359375 24.656250 C18.223963 24.854168 18.906248 25.283851 19.406250 25.945312 C19.906252 26.606774 20.156250 27.369787 20.156250 28.234375 C20.156250 29.109379 19.885419 29.893226 19.343750 30.585938 C18.802081 31.278649 18.059901 31.822915 17.117188 32.218750 C16.174474 32.614585 15.088548 32.812500 13.859375 32.812500 Z M7.578125 28.375000 L6.281250 27.171875 C7.229171 26.307287 8.289057 25.674481 9.460938 25.273438 C10.632818 24.872394 12.005200 24.671875 13.578125 24.671875 L13.578125 26.390625 C12.255202 26.390625 11.106776 26.552082 10.132812 26.875000 C9.158849 27.197918 8.307295 27.697913 7.578125 28.375000 Z M13.859375 31.000000 C14.734379 31.000000 15.502601 30.880210 16.164062 30.640625 C16.825524 30.401040 17.343748 30.072919 17.718750 29.656250 C18.093752 29.239581 18.281250 28.770836 18.281250 28.250000 C18.281250 27.739581 18.072919 27.281252 17.656250 26.875000 C17.239581 26.468748 16.656254 26.213542 15.906250 26.109375 C15.666665 24.942702 15.140629 23.903650 14.328125 22.992188 C13.515621 22.080725 12.518235 21.359378 11.335938 20.828125 C10.153640 20.296872 8.880215 20.031250 7.515625 20.031250 C6.776038 20.031250 6.062503 20.119791 5.375000 20.296875 C4.687497 20.473959 4.005212 20.749998 3.328125 21.125000 C3.223958 21.416668 3.153646 21.703124 3.117188 21.984375 C3.080729 22.265626 3.062500 22.499999 3.062500 22.687500 C3.062500 23.697922 3.411455 24.557288 4.109375 25.265625 C4.807295 25.973962 5.911451 26.598956 7.421875 27.140625 C8.067712 28.265631 8.916661 29.190101 9.968750 29.914062 C11.020839 30.638024 12.317701 31.000000 13.859375 31.000000 Z M4.921875 17.156250 C4.661457 17.208334 4.424480 17.169271 4.210938 17.039062 C3.997395 16.908854 3.869792 16.713543 3.828125 16.453125 C3.807292 16.307291 3.789063 16.156251 3.773438 16.000000 C3.757812 15.843749 3.750000 15.687501 3.750000 15.531250 C3.750000 15.374999 3.755208 15.216147 3.765625 15.054688 C3.776042 14.893228 3.796875 14.734376 3.828125 14.578125 C3.880209 14.317707 4.010416 14.119792 4.218750 13.984375 C4.427084 13.848958 4.656249 13.807291 4.906250 13.859375 C5.468753 13.973959 5.723959 14.286456 5.671875 14.796875 C5.640625 15.078126 5.625000 15.328124 5.625000 15.546875 C5.625000 15.640625 5.627604 15.729166 5.632812 15.812500 C5.638021 15.895834 5.645833 15.979166 5.656250 16.062500 C5.677083 16.322918 5.625001 16.557291 5.500000 16.765625 C5.374999 16.973959 5.182293 17.104166 4.921875 17.156250 Z M15.343750 17.109375 C14.635413 15.619784 13.744797 14.356776 12.671875 13.320312 C11.598953 12.283849 10.354174 11.473961 8.937500 10.890625 C7.520826 10.307289 5.932300 9.953126 4.171875 9.828125 L4.937500 8.078125 C6.697925 8.171875 8.354159 8.570309 9.906250 9.273438 C11.458341 9.976566 12.843744 10.927077 14.062500 12.125000 C15.281256 13.322923 16.260413 14.723950 17.000000 16.328125 Z M8.484375 7.281250 C8.223957 7.166666 8.044271 6.989585 7.945312 6.750000 C7.846354 6.510415 7.864583 6.260418 8.000000 6.000000 C8.343752 5.374997 8.770831 4.846356 9.281250 4.414062 C9.791669 3.981769 10.369788 3.656251 11.015625 3.437500 C11.276043 3.354166 11.513020 3.374999 11.726562 3.500000 C11.940105 3.625001 12.083333 3.812499 12.156250 4.062500 C12.302084 4.593753 12.135419 4.958332 11.656250 5.156250 C11.249998 5.322917 10.882814 5.541665 10.554688 5.812500 C10.226561 6.083335 9.927085 6.432290 9.656250 6.859375 C9.354165 7.338544 8.963544 7.479168 8.484375 7.281250 Z M26.203125 16.703125 L24.437500 16.265625 C25.031253 15.244787 25.471353 14.132819 25.757812 12.929688 C26.044272 11.726556 26.187500 10.604172 26.187500 9.562500 C26.187500 8.072909 25.929690 6.757818 25.414062 5.617188 C24.898435 4.476557 24.166671 3.583337 23.218750 2.937500 C22.270829 2.291663 21.156256 1.968750 19.875000 1.968750 C19.395831 1.968750 18.953127 2.023437 18.546875 2.132812 C18.140623 2.242188 17.739585 2.427082 17.343750 2.687500 L15.656250 1.578125 C16.125002 1.130206 16.734371 0.783855 17.484375 0.539062 C18.234379 0.294270 19.046871 0.171875 19.921875 0.171875 C21.484383 0.171875 22.877598 0.567704 24.101562 1.359375 C25.325527 2.151046 26.291663 3.242181 27.000000 4.632812 C27.708337 6.023444 28.062500 7.609366 28.062500 9.390625 C28.062500 10.463547 27.914064 11.664056 27.617188 12.992188 C27.320311 14.320319 26.848962 15.557286 26.203125 16.703125 Z M37.500000 27.343750" /></svg>