<svg version="1.1" xmlns="http://www.w3.org/2000/svg" style="fill:rgba(0,0,0,1.0)" width="256" height="256" viewBox="0 0 31.619583501168655 32.8125"><path fill="rgb(255, 255, 255)" d="M11.500000 32.812500 C7.708314 32.812500 4.932300 31.776052 3.171875 29.703125 C1.411450 27.630198 0.531250 24.364606 0.531250 19.906250 L2.437500 20.578125 C2.437500 24.182310 3.171868 26.835929 4.640625 28.539062 C6.109382 30.242196 8.395818 31.093750 11.500000 31.093750 C14.427098 31.093750 16.716138 30.385424 18.367188 28.968750 C20.018237 27.552076 20.843750 25.630220 20.843750 23.203125 C20.843750 21.463533 20.338547 20.208337 19.328125 19.437500 C18.317703 18.666663 17.067716 18.281250 15.578125 18.281250 C13.765616 18.281250 12.322922 18.351562 11.250000 18.492188 C10.177078 18.632813 9.406252 18.867186 8.937500 19.195312 C8.468748 19.523439 8.234375 19.963539 8.234375 20.515625 C8.234375 21.057294 8.484372 21.453124 8.984375 21.703125 C9.484377 21.953126 10.260411 22.078125 11.312500 22.078125 C12.375005 22.078125 13.265621 22.153645 13.984375 22.304688 C14.703129 22.455730 15.356768 22.752602 15.945312 23.195312 C16.533857 23.638023 17.161455 24.291662 17.828125 25.156250 L16.406250 26.234375 C15.927081 25.557288 15.492189 25.054689 15.101562 24.726562 C14.710936 24.398436 14.226565 24.171876 13.648438 24.046875 C13.070310 23.921874 12.265630 23.838542 11.234375 23.796875 C9.588533 23.713541 8.364587 23.406253 7.562500 22.875000 C6.760413 22.343747 6.359375 21.562505 6.359375 20.531250 C6.359375 19.624995 6.598956 18.903649 7.078125 18.367188 C7.557294 17.830726 8.221350 17.434897 9.070312 17.179688 C9.919275 16.924478 10.901036 16.757813 12.015625 16.679688 C13.130214 16.601562 14.317702 16.562500 15.578125 16.562500 C16.901048 16.562500 18.101557 16.799477 19.179688 17.273438 C20.257818 17.747398 21.117184 18.473953 21.757812 19.453125 C22.398441 20.432297 22.718750 21.682284 22.718750 23.203125 C22.718750 25.161468 22.268234 26.861972 21.367188 28.304688 C20.466141 29.747403 19.179696 30.859371 17.507812 31.640625 C15.835929 32.421879 13.833345 32.812500 11.500000 32.812500 Z M3.671875 22.281250 C2.713537 22.281250 1.994794 22.088544 1.515625 21.703125 C1.036456 21.317706 0.713542 20.830732 0.546875 20.242188 C0.380208 19.653643 0.276042 19.057295 0.234375 18.453125 L0.109375 16.421875 C0.036458 15.140619 0.354163 14.169274 1.062500 13.507812 C1.770837 12.846351 2.635412 12.515625 3.656250 12.515625 C4.395837 12.515625 5.072914 12.710936 5.687500 13.101562 C6.302086 13.492189 6.692708 14.109371 6.859375 14.953125 L5.156250 15.375000 C5.114583 15.083332 4.955731 14.820314 4.679688 14.585938 C4.403644 14.351561 4.036461 14.234375 3.578125 14.234375 C3.036456 14.234375 2.611981 14.424477 2.304688 14.804688 C1.997394 15.184898 1.864583 15.729163 1.906250 16.437500 L2.046875 18.468750 C2.098959 19.197920 2.276040 19.729165 2.578125 20.062500 C2.880210 20.395835 3.244790 20.562500 3.671875 20.562500 C4.276045 20.562500 4.718749 20.416668 5.000000 20.125000 C5.281251 19.833332 5.494791 19.411461 5.640625 18.859375 L7.390625 19.359375 C7.130207 20.328130 6.703128 21.057289 6.109375 21.546875 C5.515622 22.036461 4.703130 22.281250 3.671875 22.281250 Z M13.937500 27.937500 L12.171875 27.687500 C12.265625 26.687495 12.591143 25.783858 13.148438 24.976562 C13.705732 24.169267 14.411454 23.557294 15.265625 23.140625 L15.984375 24.781250 C15.401039 25.072918 14.937502 25.515622 14.593750 26.109375 C14.249998 26.703128 14.031250 27.312497 13.937500 27.937500 Z M7.625000 21.531250 C6.739579 21.322916 6.169272 20.958336 5.914062 20.437500 C5.658853 19.916664 5.494792 19.244796 5.421875 18.421875 L5.140625 15.265625 C5.005208 13.796868 5.255205 12.664066 5.890625 11.867188 C6.526045 11.070309 7.390620 10.671875 8.484375 10.671875 C9.588547 10.671875 10.429685 10.994788 11.007812 11.640625 C11.585940 12.286462 11.932291 13.291660 12.046875 14.656250 L12.343750 18.156250 L10.546875 18.312500 L10.250000 14.687500 C10.187500 13.916663 10.007814 13.341148 9.710938 12.960938 C9.414061 12.580727 9.000003 12.390625 8.468750 12.390625 C7.895830 12.390625 7.471356 12.635414 7.195312 13.125000 C6.919269 13.614586 6.817708 14.281246 6.890625 15.125000 L7.140625 17.968750 C7.182292 18.437502 7.268229 18.802082 7.398438 19.062500 C7.528646 19.322918 7.739582 19.531249 8.031250 19.687500 Z M10.640625 17.734375 L12.875000 10.468750 L13.968750 13.046875 L12.609375 17.453125 Z M22.156250 20.578125 L20.093750 20.015625 L15.109375 3.750000 C14.911457 3.104163 14.656252 2.630210 14.343750 2.328125 C14.031248 2.026040 13.635419 1.875000 13.156250 1.875000 C12.677081 1.875000 12.312501 2.046873 12.062500 2.390625 C11.812499 2.734377 11.687500 3.135414 11.687500 3.593750 C11.687500 3.854168 11.755208 4.221352 11.890625 4.695312 C12.026042 5.169273 12.177083 5.661456 12.343750 6.171875 L16.093750 17.500000 L14.328125 17.906250 L10.578125 6.546875 C10.265623 5.598954 10.059896 4.927085 9.960938 4.531250 C9.861979 4.135415 9.812500 3.822918 9.812500 3.593750 C9.812500 2.614578 10.111976 1.796878 10.710938 1.140625 C11.309899 0.484372 12.114578 0.156250 13.125000 0.156250 C14.083338 0.156250 14.861976 0.406247 15.460938 0.906250 C16.059899 1.406253 16.520832 2.197911 16.843750 3.281250 Z M19.062500 13.453125 L18.031250 10.812500 L19.625000 6.015625 C19.802084 5.505206 19.955729 5.013023 20.085938 4.539062 C20.216146 4.065102 20.281250 3.697918 20.281250 3.437500 C20.281250 2.979164 20.158855 2.578127 19.914062 2.234375 C19.669270 1.890623 19.302086 1.718750 18.812500 1.718750 C18.333331 1.718750 17.937502 1.869790 17.625000 2.171875 C17.312498 2.473960 17.057293 2.947913 16.859375 3.593750 L16.484375 4.828125 L15.421875 2.296875 C15.765627 1.505204 16.216143 0.924481 16.773438 0.554688 C17.330732 0.184894 18.020829 -0.000000 18.843750 -0.000000 C19.854172 -0.000000 20.658851 0.328122 21.257812 0.984375 C21.856774 1.640628 22.156250 2.458328 22.156250 3.437500 C22.156250 3.666668 22.106771 3.979165 22.007812 4.375000 C21.908854 4.770835 21.703127 5.442704 21.390625 6.390625 Z M31.718750 27.343750" /></svg>