<svg version="1.1" xmlns="http://www.w3.org/2000/svg" style="fill:rgba(0,0,0,1.0)" width="256" height="256" viewBox="0 0 39.03125 32.8125"><path fill="rgb(255, 255, 255)" d="M12.828125 32.812500 C12.473957 32.812500 12.208334 32.682293 12.031250 32.421875 C11.854166 32.161457 11.817708 31.869793 11.921875 31.546875 L22.625000 0.640625 C22.770834 0.213540 23.062498 -0.000000 23.500000 -0.000000 C23.854168 -0.000000 24.122395 0.130207 24.304688 0.390625 C24.486980 0.651043 24.520834 0.942707 24.406250 1.265625 L13.703125 32.171875 C13.557291 32.598960 13.265627 32.812500 12.828125 32.812500 Z M3.984375 18.578125 C3.578123 17.567703 3.221356 16.523443 2.914062 15.445312 C2.606769 14.367182 2.322918 13.291672 2.062500 12.218750 C1.739582 10.864577 1.403648 9.666672 1.054688 8.625000 C0.705727 7.583328 0.354168 6.661462 0.000000 5.859375 C0.614586 5.692708 1.265622 5.476564 1.953125 5.210938 C2.640628 4.945311 3.330726 4.630210 4.023438 4.265625 C4.716149 3.901040 5.374997 3.500002 6.000000 3.062500 C7.104172 2.281246 8.083329 1.718752 8.937500 1.375000 C9.791671 1.031248 10.624996 0.859375 11.437500 0.859375 C11.708335 0.859375 12.075519 0.901041 12.539062 0.984375 C13.002606 1.067709 13.630204 1.276040 14.421875 1.609375 L13.984375 3.265625 C12.932286 2.807289 12.083337 2.578125 11.437500 2.578125 C10.812497 2.578125 10.156253 2.718749 9.468750 3.000000 C8.781247 3.281251 7.953130 3.770830 6.984375 4.468750 C6.276038 4.979169 5.510421 5.440102 4.687500 5.851562 C3.864579 6.263023 3.046879 6.604165 2.234375 6.875000 C2.557293 7.677087 2.838540 8.494788 3.078125 9.328125 C3.317710 10.161462 3.536457 10.989579 3.734375 11.812500 C3.932293 12.635421 4.138020 13.442704 4.351562 14.234375 C4.565105 15.026046 4.802082 15.802080 5.062500 16.562500 C5.593753 16.364582 6.143226 16.085939 6.710938 15.726562 C7.278649 15.367186 8.057287 14.796879 9.046875 14.015625 C10.328131 13.005203 11.484370 12.276044 12.515625 11.828125 C13.546880 11.380206 14.572912 11.156250 15.593750 11.156250 C15.958335 11.156250 16.296873 11.164062 16.609375 11.179688 C16.921877 11.195313 17.218749 11.223958 17.500000 11.265625 L17.296875 12.968750 C17.036457 12.937500 16.770835 12.914063 16.500000 12.898438 C16.229165 12.882812 15.927085 12.875000 15.593750 12.875000 C14.739579 12.875000 13.890629 13.065102 13.046875 13.445312 C12.203121 13.825523 11.218756 14.468745 10.093750 15.375000 C8.749993 16.447922 7.622400 17.223956 6.710938 17.703125 C5.799475 18.182294 4.890630 18.473958 3.984375 18.578125 Z M8.718750 11.875000 C7.854162 11.875000 7.114586 11.567711 6.500000 10.953125 C5.885414 10.338539 5.578125 9.598963 5.578125 8.734375 C5.578125 7.869787 5.885414 7.130211 6.500000 6.515625 C7.114586 5.901039 7.854162 5.593750 8.718750 5.593750 C9.583338 5.593750 10.322914 5.901039 10.937500 6.515625 C11.552086 7.130211 11.859375 7.869787 11.859375 8.734375 C11.859375 9.598963 11.552086 10.338539 10.937500 10.953125 C10.322914 11.567711 9.583338 11.875000 8.718750 11.875000 Z M24.609375 32.812500 C24.171873 32.812500 23.880209 32.598960 23.734375 32.171875 L13.031250 1.265625 C12.927083 0.942707 12.966145 0.651043 13.148438 0.390625 C13.330730 0.130207 13.593748 -0.000000 13.937500 -0.000000 C14.375002 -0.000000 14.666666 0.213540 14.812500 0.640625 L25.515625 31.546875 C25.630209 31.869793 25.593751 32.161457 25.406250 32.421875 C25.218749 32.682293 24.953127 32.812500 24.609375 32.812500 Z M33.453125 18.578125 C32.536454 18.473958 31.625005 18.182294 30.718750 17.703125 C29.812495 17.223956 28.687507 16.447922 27.343750 15.375000 C26.208328 14.468745 25.223962 13.825523 24.390625 13.445312 C23.557288 13.065102 22.708338 12.875000 21.843750 12.875000 C21.520832 12.875000 21.221356 12.882812 20.945312 12.898438 C20.669269 12.914063 20.401043 12.937500 20.140625 12.968750 L19.937500 11.265625 C20.218751 11.223958 20.515623 11.195313 20.828125 11.179688 C21.140627 11.164062 21.479165 11.156250 21.843750 11.156250 C22.864588 11.156250 23.890620 11.380206 24.921875 11.828125 C25.953130 12.276044 27.109369 13.005203 28.390625 14.015625 C29.380213 14.796879 30.158851 15.367186 30.726562 15.726562 C31.294274 16.085939 31.843747 16.364582 32.375000 16.562500 C32.635418 15.802080 32.872395 15.026046 33.085938 14.234375 C33.299480 13.442704 33.505207 12.635421 33.703125 11.812500 C33.901043 10.989579 34.119790 10.161462 34.359375 9.328125 C34.598960 8.494788 34.880207 7.677087 35.203125 6.875000 C34.390621 6.604165 33.575525 6.260419 32.757812 5.843750 C31.940100 5.427081 31.171879 4.968753 30.453125 4.468750 C29.473953 3.791663 28.643233 3.307293 27.960938 3.015625 C27.278642 2.723957 26.625003 2.578125 26.000000 2.578125 C25.354163 2.578125 24.505214 2.807289 23.453125 3.265625 L23.015625 1.609375 C23.807296 1.276040 24.437498 1.067709 24.906250 0.984375 C25.375002 0.901041 25.739582 0.859375 26.000000 0.859375 C26.812504 0.859375 27.645829 1.031248 28.500000 1.375000 C29.354171 1.718752 30.333328 2.281246 31.437500 3.062500 C32.062503 3.500002 32.721351 3.901040 33.414062 4.265625 C34.106774 4.630210 34.796872 4.945311 35.484375 5.210938 C36.171878 5.476564 36.822914 5.692708 37.437500 5.859375 C37.083332 6.661462 36.731773 7.583328 36.382812 8.625000 C36.033852 9.666672 35.697918 10.864577 35.375000 12.218750 C35.114582 13.291672 34.830731 14.367182 34.523438 15.445312 C34.216144 16.523443 33.859377 17.567703 33.453125 18.578125 Z M28.718750 11.875000 C27.854162 11.875000 27.114586 11.567711 26.500000 10.953125 C25.885414 10.338539 25.578125 9.598963 25.578125 8.734375 C25.578125 7.869787 25.885414 7.130211 26.500000 6.515625 C27.114586 5.901039 27.854162 5.593750 28.718750 5.593750 C29.583338 5.593750 30.322914 5.901039 30.937500 6.515625 C31.552086 7.130211 31.859375 7.869787 31.859375 8.734375 C31.859375 9.598963 31.552086 10.338539 30.937500 10.953125 C30.322914 11.567711 29.583338 11.875000 28.718750 11.875000 Z M39.031250 27.343750" /></svg>