<svg version="1.1" xmlns="http://www.w3.org/2000/svg" style="fill:rgba(0,0,0,1.0)" width="256" height="256" viewBox="0 0 36.640625 32.8125"><path fill="rgb(255, 255, 255)" d="M8.265625 27.859375 C7.817706 27.859375 7.328128 27.674481 6.796875 27.304688 C6.265622 26.934894 5.809898 26.489586 5.429688 25.968750 C5.049477 25.447914 4.859375 24.968752 4.859375 24.531250 C4.859375 24.249999 4.953124 24.015626 5.140625 23.828125 L10.171875 18.796875 C10.338542 18.630208 10.471354 18.398439 10.570312 18.101562 C10.669271 17.804686 10.755208 17.416669 10.828125 16.937500 L10.921875 16.312500 C11.015625 15.687497 11.218748 15.057295 11.531250 14.421875 C11.843752 13.786455 12.270831 13.197919 12.812500 12.656250 L23.390625 2.015625 L24.375000 3.015625 L13.796875 13.656250 C13.411456 14.041669 13.101564 14.489581 12.867188 15.000000 C12.632811 15.510419 12.463542 16.104163 12.359375 16.781250 L12.265625 17.406250 C12.192708 17.916669 12.065105 18.367186 11.882812 18.757812 C11.700520 19.148439 11.458335 19.494790 11.156250 19.796875 L6.609375 24.343750 C6.526041 24.427084 6.484375 24.531249 6.484375 24.656250 C6.484375 24.854168 6.578124 25.078124 6.765625 25.328125 C6.953126 25.578126 7.174478 25.794270 7.429688 25.976562 C7.684897 26.158855 7.916666 26.250000 8.125000 26.250000 C8.260417 26.250000 8.369791 26.208334 8.453125 26.125000 L12.375000 22.187500 C12.843752 21.718748 13.333331 21.361980 13.843750 21.117188 C14.354169 20.872395 14.968746 20.697917 15.687500 20.593750 L16.312500 20.500000 C16.958337 20.406250 17.486977 20.260418 17.898438 20.062500 C18.309898 19.864582 18.723956 19.557294 19.140625 19.140625 L29.921875 8.312500 L30.921875 9.296875 L20.140625 20.125000 C19.630206 20.635419 19.085940 21.036457 18.507812 21.328125 C17.929685 21.619793 17.302087 21.817708 16.625000 21.921875 L16.000000 22.015625 C15.416664 22.098959 14.914065 22.234374 14.492188 22.421875 C14.070310 22.609376 13.697918 22.864582 13.375000 23.187500 L8.984375 27.578125 C8.796874 27.765626 8.557293 27.859375 8.265625 27.859375 Z M2.109375 32.812500 C1.859374 32.812500 1.635418 32.713543 1.437500 32.515625 L0.296875 31.375000 C0.098957 31.177082 0.000000 30.953126 0.000000 30.703125 C0.000000 30.453124 0.098957 30.229168 0.296875 30.031250 L0.734375 29.593750 C0.942709 29.385416 1.205728 29.268229 1.523438 29.242188 C1.841147 29.216146 2.124999 29.078126 2.375000 28.828125 L2.812500 28.390625 L4.421875 30.000000 L3.984375 30.437500 C3.734374 30.687501 3.596354 30.971353 3.570312 31.289062 C3.544271 31.606772 3.427084 31.869791 3.218750 32.078125 L2.781250 32.515625 C2.583332 32.713543 2.359376 32.812500 2.109375 32.812500 Z M4.125000 30.515625 C3.874999 30.515625 3.604168 30.403647 3.312500 30.179688 C3.020832 29.955728 2.768230 29.697918 2.554688 29.406250 C2.341145 29.114582 2.234375 28.869793 2.234375 28.671875 C2.234375 28.578125 2.255208 28.510417 2.296875 28.468750 L3.125000 27.562500 C3.312501 27.354166 3.489582 27.250000 3.656250 27.250000 C3.739584 27.250000 3.807291 27.270833 3.859375 27.312500 L5.750000 25.406250 L7.375000 27.000000 L5.531250 28.843750 C5.562500 28.906250 5.578125 28.979166 5.578125 29.062500 C5.578125 29.218751 5.515626 29.359374 5.390625 29.484375 L4.515625 30.359375 C4.411458 30.463542 4.281251 30.515625 4.125000 30.515625 Z M20.328125 17.218750 C20.192708 17.218750 20.098959 17.156251 20.046875 17.031250 C19.984375 16.885416 19.908855 16.736980 19.820312 16.585938 C19.731770 16.434895 19.625001 16.291667 19.500000 16.156250 C19.270832 15.906249 18.984377 15.695313 18.640625 15.523438 C18.296873 15.351562 18.005210 15.140626 17.765625 14.890625 C17.567707 14.682291 17.382813 14.429689 17.210938 14.132812 C17.039062 13.835936 16.848959 13.583334 16.640625 13.375000 C16.567708 13.291666 16.489584 13.221354 16.406250 13.164062 C16.322916 13.106771 16.239584 13.052084 16.156250 13.000000 L17.468750 11.671875 C17.562500 11.880209 17.651041 12.026041 17.734375 12.109375 C18.015626 12.390626 18.312498 12.601562 18.625000 12.742188 C18.937502 12.882813 19.229165 13.093749 19.500000 13.375000 C19.739585 13.614585 19.929687 13.888019 20.070312 14.195312 C20.210938 14.502606 20.395832 14.781249 20.625000 15.031250 C20.739584 15.145834 20.869791 15.250000 21.015625 15.343750 C21.161459 15.437500 21.307291 15.520833 21.453125 15.593750 C21.567709 15.645834 21.625000 15.739583 21.625000 15.875000 C21.625000 15.968750 21.593750 16.046875 21.531250 16.109375 L20.593750 17.093750 C20.510416 17.177084 20.421875 17.218750 20.328125 17.218750 Z M12.203125 21.296875 L11.484375 20.515625 C11.932294 20.119790 12.278645 19.690106 12.523438 19.226562 C12.768230 18.763019 12.937500 18.223961 13.031250 17.609375 L13.125000 16.984375 C13.208334 16.442706 13.338541 15.976564 13.515625 15.585938 C13.692709 15.195311 13.937498 14.843752 14.250000 14.531250 L24.765625 3.953125 L25.531250 4.734375 L15.015625 15.312500 C14.786457 15.541668 14.601563 15.817707 14.460938 16.140625 C14.320312 16.463543 14.218750 16.838540 14.156250 17.265625 L14.062500 17.890625 C13.989583 18.401044 13.846355 18.861977 13.632812 19.273438 C13.419270 19.684898 13.140627 20.041665 12.796875 20.343750 L12.437500 19.953125 C13.395838 19.296872 14.302079 18.906251 15.156250 18.781250 L15.781250 18.687500 C16.145835 18.635416 16.471353 18.541667 16.757812 18.406250 C17.044272 18.270833 17.291666 18.098959 17.500000 17.890625 L28.093750 7.265625 L28.875000 8.046875 L18.281250 18.671875 C17.958332 18.994793 17.625002 19.236978 17.281250 19.398438 C16.937498 19.559897 16.484378 19.682291 15.921875 19.765625 L15.296875 19.859375 C14.723955 19.942709 14.171878 20.109374 13.640625 20.359375 C13.109372 20.609376 12.630210 20.921873 12.203125 21.296875 Z M31.187500 9.671875 C30.833332 9.671875 30.320316 9.453127 29.648438 9.015625 C28.976559 8.578123 28.250004 8.015628 27.468750 7.328125 C26.687496 6.640622 25.940108 5.914066 25.226562 5.148438 C24.513017 4.382809 23.929690 3.669274 23.476562 3.007812 C23.023435 2.346351 22.796875 1.833335 22.796875 1.468750 C22.796875 1.072915 22.940103 0.729168 23.226562 0.437500 C23.513022 0.145832 23.848956 -0.000000 24.234375 -0.000000 C24.630210 -0.000000 24.973957 0.145832 25.265625 0.437500 C25.557293 0.729168 25.703125 1.072915 25.703125 1.468750 C25.703125 1.593751 25.854165 1.854165 26.156250 2.250000 C26.458335 2.645835 26.843748 3.096352 27.312500 3.601562 C27.781252 4.106773 28.273435 4.598956 28.789062 5.078125 C29.304690 5.557294 29.778644 5.955728 30.210938 6.273438 C30.643231 6.591147 30.968749 6.750000 31.187500 6.750000 C31.583335 6.750000 31.927082 6.895832 32.218750 7.187500 C32.510418 7.479168 32.656250 7.822915 32.656250 8.218750 C32.656250 8.614585 32.510418 8.955728 32.218750 9.242188 C31.927082 9.528647 31.583335 9.671875 31.187500 9.671875 Z M36.640625 27.343750" /></svg>