<svg version="1.1" xmlns="http://www.w3.org/2000/svg" style="fill:rgba(0,0,0,1.0)" width="256" height="256" viewBox="0 0 33.75 32.8125"><path fill="rgb(255, 255, 255)" d="M13.437500 26.562500 C11.562491 26.562500 9.812508 26.223962 8.187500 25.546875 C6.562492 24.869788 5.138027 23.929694 3.914062 22.726562 C2.690098 21.523431 1.731774 20.117196 1.039062 18.507812 C0.346351 16.898429 0.000000 15.156259 0.000000 13.281250 C0.000000 11.416657 0.343747 9.679696 1.031250 8.070312 C1.718753 6.460929 2.674473 5.052089 3.898438 3.843750 C5.122402 2.635411 6.546867 1.692712 8.171875 1.015625 C9.796883 0.338538 11.552074 -0.000000 13.437500 -0.000000 C15.322926 -0.000000 17.078117 0.338538 18.703125 1.015625 C20.328133 1.692712 21.752598 2.635411 22.976562 3.843750 C24.200527 5.052089 25.156247 6.460929 25.843750 8.070312 C26.531253 9.679696 26.875000 11.416657 26.875000 13.281250 C26.875000 15.135426 26.531253 16.867179 25.843750 18.476562 C25.156247 20.085946 24.200527 21.497390 22.976562 22.710938 C21.752598 23.924485 20.328133 24.869788 18.703125 25.546875 C17.078117 26.223962 15.322926 26.562500 13.437500 26.562500 Z M13.437500 32.812500 C12.156244 32.812500 10.867194 32.638023 9.570312 32.289062 C8.273431 31.940102 7.127609 31.471357 6.132812 30.882812 C5.138016 30.294268 4.447919 29.645837 4.062500 28.937500 L5.859375 22.890625 L7.593750 23.656250 L6.140625 28.468750 C6.598961 28.947919 7.223954 29.380206 8.015625 29.765625 C8.807296 30.151044 9.677079 30.455728 10.625000 30.679688 C11.572921 30.903647 12.510412 31.015625 13.437500 31.015625 C14.375005 31.015625 15.317704 30.903647 16.265625 30.679688 C17.213546 30.455728 18.083329 30.153648 18.875000 29.773438 C19.666671 29.393227 20.291664 28.963544 20.750000 28.484375 L19.281250 23.656250 L21.015625 22.890625 L22.812500 28.937500 C22.437498 29.645837 21.750005 30.294268 20.750000 30.882812 C19.749995 31.471357 18.601569 31.940102 17.304688 32.289062 C16.007806 32.638023 14.718756 32.812500 13.437500 32.812500 Z M13.265625 23.609375 L13.453125 23.609375 C13.630209 22.578120 13.838540 21.783857 14.078125 21.226562 C14.317710 20.669268 14.677081 20.247397 15.156250 19.960938 C15.635419 19.674478 16.317704 19.432293 17.203125 19.234375 L17.203125 19.046875 C16.317704 18.838541 15.635419 18.593751 15.156250 18.312500 C14.677081 18.031249 14.317710 17.609378 14.078125 17.046875 C13.838540 16.484372 13.630209 15.692713 13.453125 14.671875 L13.265625 14.671875 C13.098958 15.692713 12.893230 16.484372 12.648438 17.046875 C12.403645 17.609378 12.041669 18.031249 11.562500 18.312500 C11.083331 18.593751 10.401046 18.838541 9.515625 19.046875 L9.515625 19.234375 C10.401046 19.432293 11.083331 19.674478 11.562500 19.960938 C12.041669 20.247397 12.403645 20.669268 12.648438 21.226562 C12.893230 21.783857 13.098958 22.578120 13.265625 23.609375 Z M4.531250 13.421875 C4.791668 13.421875 5.026041 13.338542 5.234375 13.171875 C5.442709 13.005208 5.557292 12.791668 5.578125 12.531250 C5.661459 11.614579 5.880207 10.744796 6.234375 9.921875 C6.588543 9.098954 7.052080 8.369795 7.625000 7.734375 C7.802084 7.526041 7.898437 7.304689 7.914062 7.070312 C7.929688 6.835936 7.848959 6.619793 7.671875 6.421875 C7.484374 6.213541 7.257814 6.096354 6.992188 6.070312 C6.726561 6.044271 6.500001 6.124999 6.312500 6.312500 C5.531246 7.072920 4.882815 8.013015 4.367188 9.132812 C3.851560 10.252610 3.593750 11.343745 3.593750 12.406250 C3.593750 12.697918 3.677082 12.940103 3.843750 13.132812 C4.010418 13.325522 4.239582 13.421875 4.531250 13.421875 Z M10.328125 5.750000 C10.588543 5.635416 10.856769 5.541667 11.132812 5.468750 C11.408856 5.395833 11.682290 5.338542 11.953125 5.296875 C12.203126 5.255208 12.408853 5.153647 12.570312 4.992188 C12.731772 4.830728 12.812500 4.625001 12.812500 4.375000 C12.812500 4.093749 12.716147 3.861980 12.523438 3.679688 C12.330728 3.497395 12.083335 3.421875 11.781250 3.453125 C10.958329 3.546875 10.197920 3.760415 9.500000 4.093750 C9.239582 4.218751 9.078125 4.403645 9.015625 4.648438 C8.953125 4.893230 8.984374 5.135415 9.109375 5.375000 C9.234376 5.625001 9.411457 5.773437 9.640625 5.820312 C9.869793 5.867188 10.098957 5.843750 10.328125 5.750000 Z M17.968750 17.546875 L18.156250 17.546875 C18.343751 16.255202 18.557290 15.203129 18.796875 14.390625 C19.036460 13.578121 19.351561 12.929690 19.742188 12.445312 C20.132814 11.960935 20.651038 11.575522 21.296875 11.289062 C21.942712 11.002603 22.770828 10.744793 23.781250 10.515625 L23.781250 10.328125 C22.770828 10.088540 21.942712 9.828126 21.296875 9.546875 C20.651038 9.265624 20.132814 8.882815 19.742188 8.398438 C19.351561 7.914060 19.036460 7.265629 18.796875 6.453125 C18.557290 5.640621 18.343751 4.588548 18.156250 3.296875 L17.968750 3.296875 C17.781249 4.588548 17.567710 5.640621 17.328125 6.453125 C17.088540 7.265629 16.773439 7.914060 16.382812 8.398438 C15.992186 8.882815 15.473962 9.265624 14.828125 9.546875 C14.182288 9.828126 13.354172 10.088540 12.343750 10.328125 L12.343750 10.515625 C13.354172 10.744793 14.182288 11.002603 14.828125 11.289062 C15.473962 11.575522 15.992186 11.960935 16.382812 12.445312 C16.773439 12.929690 17.088540 13.578121 17.328125 14.390625 C17.567710 15.203129 17.781249 16.255202 17.968750 17.546875 Z M33.750000 27.343750" /></svg>