<svg version="1.1" xmlns="http://www.w3.org/2000/svg" style="fill:rgba(0,0,0,1.0)" width="256" height="256" viewBox="0 0 31.6875 32.818142867645165"><path fill="rgb(255, 255, 255)" d="M8.781250 32.818143 C7.489577 32.818143 6.312505 32.682728 5.250000 32.411893 C4.187495 32.141058 3.335941 31.781687 2.695312 31.333768 C2.054684 30.885849 1.713542 30.401479 1.671875 29.880643 L0.093750 8.255643 L1.968750 8.115018 L3.515625 29.255643 C3.536458 29.516061 3.796872 29.781683 4.296875 30.052518 C4.796878 30.323353 5.445309 30.552517 6.242188 30.740018 C7.039066 30.927519 7.885412 31.021268 8.781250 31.021268 C9.677088 31.021268 10.523434 30.927519 11.320312 30.740018 C12.117191 30.552517 12.768227 30.323353 13.273438 30.052518 C13.778648 29.781683 14.041667 29.516061 14.062500 29.255643 L15.609375 8.115018 L17.484375 8.255643 L15.906250 29.880643 C15.875000 30.401479 15.536462 30.885849 14.890625 31.333768 C14.244788 31.781687 13.390630 32.141058 12.328125 32.411893 C11.265620 32.682728 10.083340 32.818143 8.781250 32.818143 Z M6.656250 28.990018 C6.156248 28.906684 5.755210 28.737415 5.453125 28.482205 C5.151040 28.226996 4.984375 27.875437 4.953125 27.427518 L4.546875 20.818143 C4.526042 20.391057 4.718748 20.167101 5.125000 20.146268 C5.302084 20.135851 5.455729 20.185330 5.585938 20.294705 C5.716146 20.404081 5.786458 20.552517 5.796875 20.740018 L6.203125 27.365018 C6.213542 27.448352 6.263020 27.521268 6.351562 27.583768 C6.440105 27.646268 6.578124 27.708768 6.765625 27.771268 C6.942709 27.823351 7.085937 27.891059 7.195312 27.974393 C7.304688 28.057727 7.359375 28.182725 7.359375 28.349393 C7.359375 28.547311 7.291667 28.711371 7.156250 28.841580 C7.020833 28.971789 6.854168 29.021268 6.656250 28.990018 Z M8.796875 11.505643 C6.973949 11.505643 5.406257 11.318145 4.093750 10.943143 C2.781243 10.568141 1.770837 10.094187 1.062500 9.521268 C0.354163 8.948348 0.000000 8.370229 0.000000 7.786893 C0.000000 7.099389 0.354163 6.477000 1.062500 5.919705 C1.770837 5.362411 2.781243 4.917103 4.093750 4.583768 C5.406257 4.250433 6.973949 4.083768 8.796875 4.083768 C10.619801 4.083768 12.187493 4.250433 13.500000 4.583768 C14.812507 4.917103 15.822913 5.362411 16.531250 5.919705 C17.239587 6.477000 17.593750 7.099389 17.593750 7.786893 C17.593750 8.370229 17.239587 8.948348 16.531250 9.521268 C15.822913 10.094187 14.812507 10.568141 13.500000 10.943143 C12.187493 11.318145 10.619801 11.505643 8.796875 11.505643 Z M8.796875 9.786893 C10.098965 9.786893 11.270828 9.685331 12.312500 9.482205 C13.354172 9.279079 14.177080 9.021269 14.781250 8.708768 C15.385420 8.396266 15.687500 8.088978 15.687500 7.786893 C15.687500 7.484808 15.382816 7.180124 14.773438 6.872830 C14.164059 6.565537 13.338547 6.310331 12.296875 6.107205 C11.255203 5.904079 10.088548 5.802518 8.796875 5.802518 C7.505202 5.802518 6.338547 5.904079 5.296875 6.107205 C4.255203 6.310331 3.429691 6.565537 2.820312 6.872830 C2.210934 7.180124 1.906250 7.484808 1.906250 7.786893 C1.906250 8.088978 2.208330 8.396266 2.812500 8.708768 C3.416670 9.021269 4.239578 9.279079 5.281250 9.482205 C6.322922 9.685331 7.494785 9.786893 8.796875 9.786893 Z M12.718750 10.802518 L10.937500 10.208768 L13.546875 3.974393 C13.848960 3.255639 14.174477 2.734811 14.523438 2.411893 C14.872398 2.088975 15.359372 1.838977 15.984375 1.661893 L21.640625 0.052518 C22.036460 -0.062066 22.330728 0.010850 22.523438 0.271268 C22.716147 0.531686 22.789063 0.823350 22.742188 1.146268 C22.695312 1.469186 22.505210 1.677517 22.171875 1.771268 L16.515625 3.380643 C16.182290 3.474393 15.932292 3.622829 15.765625 3.825955 C15.598958 4.029081 15.416668 4.365016 15.218750 4.833768 Z M31.687500 27.349393" /></svg>