<svg version="1.1" xmlns="http://www.w3.org/2000/svg" style="fill:rgba(0,0,0,1.0)" width="256" height="256" viewBox="0 0 33.4375 32.8125"><path fill="rgb(255, 255, 255)" d="M13.125000 32.812500 C11.979161 32.812500 10.843756 32.708334 9.718750 32.500000 C8.593744 32.291666 7.559901 32.013023 6.617188 31.664062 C5.674474 31.315102 4.898441 30.916669 4.289062 30.468750 C3.679684 30.020831 3.312501 29.562502 3.187500 29.093750 L0.671875 19.312500 C0.463541 18.916665 0.299480 18.510419 0.179688 18.093750 C0.059895 17.677081 0.000000 17.276044 0.000000 16.890625 C0.000000 16.161455 0.221352 15.468753 0.664062 14.812500 C1.106773 14.156247 1.734371 13.588544 2.546875 13.109375 L3.375000 14.796875 C2.374995 15.421878 1.875000 16.119788 1.875000 16.890625 C1.875000 17.213543 1.927083 17.541665 2.031250 17.875000 C2.135417 18.208335 2.276041 18.515624 2.453125 18.796875 C2.921877 18.932292 3.395831 19.114582 3.875000 19.343750 C4.354169 19.572918 4.802081 19.828124 5.218750 20.109375 C5.635419 20.390626 5.973957 20.687498 6.234375 21.000000 C6.682294 20.635415 7.184893 20.367188 7.742188 20.195312 C8.299482 20.023437 8.880205 19.937500 9.484375 19.937500 C10.223962 19.937500 10.924476 20.111977 11.585938 20.460938 C12.247399 20.809898 12.760415 21.135415 13.125000 21.437500 C13.489585 21.135415 14.002601 20.809898 14.664062 20.460938 C15.325524 20.111977 16.026038 19.937500 16.765625 19.937500 C17.380211 19.937500 17.963539 20.023437 18.515625 20.195312 C19.067711 20.367188 19.567706 20.635415 20.015625 21.000000 C20.276043 20.697915 20.611977 20.406251 21.023438 20.125000 C21.434898 19.843749 21.882810 19.585939 22.367188 19.351562 C22.851565 19.117186 23.328123 18.932292 23.796875 18.796875 C23.973959 18.515624 24.114583 18.208335 24.218750 17.875000 C24.322917 17.541665 24.375000 17.213543 24.375000 16.890625 C24.375000 16.119788 23.875005 15.421878 22.875000 14.796875 L23.703125 13.109375 C24.515629 13.588544 25.143227 14.156247 25.585938 14.812500 C26.028648 15.468753 26.250000 16.161455 26.250000 16.890625 C26.250000 17.276044 26.190105 17.677081 26.070312 18.093750 C25.950520 18.510419 25.786459 18.916665 25.578125 19.312500 L23.062500 29.093750 C22.937499 29.562502 22.570316 30.020831 21.960938 30.468750 C21.351559 30.916669 20.575526 31.315102 19.632812 31.664062 C18.690099 32.013023 17.656256 32.291666 16.531250 32.500000 C15.406244 32.708334 14.270839 32.812500 13.125000 32.812500 Z M13.125000 31.093750 C13.302084 31.093750 13.481770 31.088542 13.664062 31.078125 C13.846355 31.067708 14.031249 31.057292 14.218750 31.046875 L14.468750 26.140625 C14.489583 25.901040 14.575520 25.716146 14.726562 25.585938 C14.877605 25.455729 15.052082 25.390625 15.250000 25.390625 C15.458334 25.390625 15.645833 25.460937 15.812500 25.601562 C15.979168 25.742188 16.052083 25.958332 16.031250 26.250000 L15.781250 30.875000 C16.572921 30.749999 17.338538 30.583334 18.078125 30.375000 L18.828125 25.203125 C18.859375 24.963540 18.953124 24.786459 19.109375 24.671875 C19.265626 24.557291 19.432291 24.500000 19.609375 24.500000 C19.817709 24.500000 20.010416 24.575520 20.187500 24.726562 C20.364584 24.877605 20.427084 25.124998 20.375000 25.468750 L19.734375 29.812500 C20.182294 29.624999 20.549478 29.432293 20.835938 29.234375 C21.122397 29.036457 21.286458 28.838543 21.328125 28.640625 L23.312500 20.921875 C22.802081 21.130209 22.270836 21.406248 21.718750 21.750000 C21.166664 22.093752 20.598961 22.531247 20.015625 23.062500 C19.484372 22.562498 19.005210 22.213543 18.578125 22.015625 C18.151040 21.817707 17.598962 21.718750 16.921875 21.718750 C16.390622 21.718750 15.877607 21.828124 15.382812 22.046875 C14.888018 22.265626 14.447919 22.528644 14.062500 22.835938 C13.677081 23.143231 13.364585 23.421874 13.125000 23.671875 C12.895832 23.421874 12.585939 23.143231 12.195312 22.835938 C11.804686 22.528644 11.364586 22.265626 10.875000 22.046875 C10.385414 21.828124 9.869794 21.718750 9.328125 21.718750 C8.661455 21.718750 8.111981 21.817707 7.679688 22.015625 C7.247394 22.213543 6.765628 22.562498 6.234375 23.062500 C5.651039 22.531247 5.085940 22.093752 4.539062 21.750000 C3.992185 21.406248 3.458336 21.130209 2.937500 20.921875 L4.921875 28.640625 C4.973959 28.838543 5.140624 29.036457 5.421875 29.234375 C5.703126 29.432293 6.067706 29.624999 6.515625 29.812500 L5.875000 25.468750 C5.833333 25.124998 5.898437 24.877605 6.070312 24.726562 C6.242188 24.575520 6.432291 24.500000 6.640625 24.500000 C6.817709 24.500000 6.984374 24.557291 7.140625 24.671875 C7.296876 24.786459 7.390625 24.963540 7.421875 25.203125 L8.171875 30.375000 C8.536460 30.479167 8.911456 30.572916 9.296875 30.656250 C9.682294 30.739584 10.072915 30.812500 10.468750 30.875000 L10.218750 26.250000 C10.208333 25.958332 10.283853 25.742188 10.445312 25.601562 C10.606772 25.460937 10.791666 25.390625 11.000000 25.390625 C11.208334 25.390625 11.388020 25.455729 11.539062 25.585938 C11.690105 25.716146 11.770833 25.901040 11.781250 26.140625 L12.031250 31.046875 C12.218751 31.057292 12.403645 31.067708 12.585938 31.078125 C12.768230 31.088542 12.947916 31.093750 13.125000 31.093750 Z M6.734375 13.875000 C6.453124 13.875000 6.216147 13.778647 6.023438 13.585938 C5.830728 13.393228 5.734375 13.156251 5.734375 12.875000 C5.734375 12.604165 5.830728 12.372397 6.023438 12.179688 C6.216147 11.986978 6.453124 11.890625 6.734375 11.890625 C7.005210 11.890625 7.236978 11.986978 7.429688 12.179688 C7.622397 12.372397 7.718750 12.604165 7.718750 12.875000 C7.718750 13.156251 7.622397 13.393228 7.429688 13.585938 C7.236978 13.778647 7.005210 13.875000 6.734375 13.875000 Z M10.656250 14.093750 L9.625000 13.218750 C9.510416 13.114583 9.442708 12.989584 9.421875 12.843750 C9.401042 12.697916 9.442708 12.567709 9.546875 12.453125 C9.796876 12.171874 10.062499 12.145832 10.343750 12.375000 L11.375000 13.250000 C11.489584 13.354167 11.557292 13.479166 11.578125 13.625000 C11.598958 13.770834 11.557292 13.901041 11.453125 14.015625 C11.203124 14.296876 10.937501 14.322918 10.656250 14.093750 Z M9.468750 9.328125 C9.145832 9.505209 8.890626 9.437502 8.703125 9.125000 L8.031250 7.953125 C7.958333 7.817708 7.937500 7.677084 7.968750 7.531250 C8.000000 7.385416 8.083333 7.276042 8.218750 7.203125 C8.541668 7.026041 8.796874 7.093748 8.984375 7.406250 L9.656250 8.578125 C9.843751 8.890627 9.781252 9.140624 9.468750 9.328125 Z M13.140625 11.468750 C12.817707 11.645834 12.562501 11.578127 12.375000 11.265625 L11.703125 10.093750 C11.630208 9.958333 11.609375 9.817709 11.640625 9.671875 C11.671875 9.526041 11.755208 9.416667 11.890625 9.343750 C12.213543 9.166666 12.468749 9.234373 12.656250 9.546875 L13.328125 10.718750 C13.411459 10.854167 13.437500 10.992187 13.406250 11.132812 C13.375000 11.273438 13.286459 11.385416 13.140625 11.468750 Z M14.875000 14.406250 C14.739583 14.322916 14.656250 14.210938 14.625000 14.070312 C14.593750 13.929687 14.614583 13.791667 14.687500 13.656250 L15.359375 12.484375 C15.442709 12.348958 15.557291 12.260417 15.703125 12.218750 C15.848959 12.177083 15.989583 12.197916 16.125000 12.281250 C16.270834 12.354167 16.359375 12.463541 16.390625 12.609375 C16.421875 12.755209 16.395834 12.895833 16.312500 13.031250 L15.640625 14.203125 C15.453124 14.515627 15.197918 14.583334 14.875000 14.406250 Z M13.125000 16.281250 C16.218765 16.281250 18.632804 15.966149 20.367188 15.335938 C22.101571 14.705726 22.968750 13.833339 22.968750 12.718750 C22.968750 11.989580 22.677086 11.286462 22.093750 10.609375 C21.510414 9.932288 20.817712 9.463543 20.015625 9.203125 C20.015625 8.151036 19.778648 7.213546 19.304688 6.390625 C18.830727 5.567704 18.085943 4.815108 17.070312 4.132812 C16.054682 3.450517 14.734383 2.796878 13.109375 2.171875 C12.932291 2.776045 12.585940 3.263019 12.070312 3.632812 C11.554685 4.002606 10.838546 4.338540 9.921875 4.640625 C8.661452 5.046877 7.731774 5.598955 7.132812 6.296875 C6.533851 6.994795 6.234375 7.880203 6.234375 8.953125 C6.234375 9.182293 6.247396 9.421874 6.273438 9.671875 C6.299479 9.921876 6.338541 10.182290 6.390625 10.453125 C5.505204 10.869794 4.742191 11.346351 4.101562 11.882812 C3.460934 12.419274 3.140625 12.911456 3.140625 13.359375 C3.140625 13.932295 3.565100 14.440102 4.414062 14.882812 C5.263025 15.325523 6.440097 15.669270 7.945312 15.914062 C9.450528 16.158855 11.177074 16.281250 13.125000 16.281250 Z M13.125000 18.000000 C9.281231 18.000000 6.343760 17.604171 4.312500 16.812500 C2.281240 16.020829 1.265625 14.869799 1.265625 13.359375 C1.265625 12.723955 1.440102 12.156252 1.789062 11.656250 C2.138023 11.156248 2.562498 10.718752 3.062500 10.343750 C3.562502 9.968748 4.036456 9.656251 4.484375 9.406250 C4.453125 9.166665 4.437500 8.937501 4.437500 8.718750 C4.437500 7.406243 4.867183 6.236984 5.726562 5.210938 C6.585942 4.184891 7.770826 3.432294 9.281250 2.953125 C10.145838 2.682290 10.760415 2.375002 11.125000 2.031250 C11.489585 1.687498 11.671875 1.223961 11.671875 0.640625 C11.671875 0.463541 11.651042 0.250001 11.609375 -0.000000 C12.973965 0.229168 14.255202 0.606768 15.453125 1.132812 C16.651048 1.658857 17.708329 2.289059 18.625000 3.023438 C19.541671 3.757816 20.268226 4.557287 20.804688 5.421875 C21.341149 6.286463 21.625000 7.166662 21.656250 8.062500 C22.614588 8.510419 23.385414 9.164058 23.968750 10.023438 C24.552086 10.882817 24.843750 11.781245 24.843750 12.718750 C24.843750 14.500009 23.880218 15.825516 21.953125 16.695312 C20.026032 17.565109 17.083353 18.000000 13.125000 18.000000 Z M12.953125 6.875000 C12.671874 6.875000 12.434897 6.778647 12.242188 6.585938 C12.049478 6.393228 11.953125 6.156251 11.953125 5.875000 C11.953125 5.604165 12.049478 5.372397 12.242188 5.179688 C12.434897 4.986978 12.671874 4.890625 12.953125 4.890625 C13.223960 4.890625 13.455728 4.986978 13.648438 5.179688 C13.841147 5.372397 13.937500 5.604165 13.937500 5.875000 C13.937500 6.156251 13.841147 6.393228 13.648438 6.585938 C13.455728 6.778647 13.223960 6.875000 12.953125 6.875000 Z M19.046875 12.687500 C18.765624 12.687500 18.528647 12.591147 18.335938 12.398438 C18.143228 12.205728 18.046875 11.968751 18.046875 11.687500 C18.046875 11.416665 18.143228 11.184897 18.335938 10.992188 C18.528647 10.799478 18.765624 10.703125 19.046875 10.703125 C19.317710 10.703125 19.549478 10.799478 19.742188 10.992188 C19.934897 11.184897 20.031250 11.416665 20.031250 11.687500 C20.031250 11.968751 19.934897 12.205728 19.742188 12.398438 C19.549478 12.591147 19.317710 12.687500 19.046875 12.687500 Z M16.078125 8.546875 C15.942708 8.463541 15.859375 8.351563 15.828125 8.210938 C15.796875 8.070312 15.817708 7.932292 15.890625 7.796875 L16.562500 6.625000 C16.750001 6.312498 17.005207 6.244791 17.328125 6.421875 C17.473959 6.494792 17.562500 6.604166 17.593750 6.750000 C17.625000 6.895834 17.598959 7.036458 17.515625 7.171875 L16.843750 8.343750 C16.656249 8.656252 16.401043 8.723959 16.078125 8.546875 Z M33.437500 27.343750" /></svg>