<svg version="1.1" xmlns="http://www.w3.org/2000/svg" style="fill:rgba(0,0,0,1.0)" width="256" height="256" viewBox="0 0 39.53125 32.8125"><path fill="rgb(255, 255, 255)" d="M19.328125 32.812500 C17.546866 32.812500 15.742197 32.666668 13.914062 32.375000 C12.085928 32.083332 10.341154 31.609378 8.679688 30.953125 C7.018221 30.296872 5.533861 29.429693 4.226562 28.351562 C2.919264 27.273432 1.888025 25.955737 1.132812 24.398438 C0.377600 22.841138 0.000000 21.010427 0.000000 18.906250 C0.000000 17.437493 0.192706 16.002611 0.578125 14.601562 C0.963544 13.200514 1.557288 11.901048 2.359375 10.703125 C3.161462 9.505202 4.182285 8.484379 5.421875 7.640625 C6.848965 6.671870 8.395825 5.929690 10.062500 5.414062 C11.729175 4.898435 13.421866 4.562501 15.140625 4.406250 L14.375000 6.234375 C12.458324 6.619794 10.940110 7.075518 9.820312 7.601562 C8.700515 8.127607 7.898440 8.760413 7.414062 9.500000 C6.929685 10.239587 6.687500 11.130203 6.687500 12.171875 C6.687500 13.182297 7.203120 14.080725 8.234375 14.867188 C9.265630 15.653650 10.690095 16.270831 12.507812 16.718750 C14.325530 17.166669 16.416655 17.390625 18.781250 17.390625 C20.562509 17.390625 22.226555 17.239585 23.773438 16.937500 C25.320320 16.635415 26.674473 16.221357 27.835938 15.695312 C28.997402 15.169268 29.906247 14.567712 30.562500 13.890625 C31.218753 13.213538 31.546875 12.500004 31.546875 11.750000 C31.546875 10.749995 31.221357 9.893233 30.570312 9.179688 C29.919268 8.466142 28.906257 7.888023 27.531250 7.445312 C26.156243 7.002602 24.390636 6.697917 22.234375 6.531250 L26.812500 5.531250 C30.489602 6.385421 33.346344 7.841136 35.382812 9.898438 C37.419281 11.955739 38.437500 14.807273 38.437500 18.453125 C38.437500 20.630219 38.083337 22.523429 37.375000 24.132812 C36.666663 25.742196 35.692715 27.101557 34.453125 28.210938 C33.213535 29.320318 31.783862 30.213538 30.164062 30.890625 C28.544263 31.567712 26.809905 32.057290 24.960938 32.359375 C23.111970 32.661460 21.234385 32.812500 19.328125 32.812500 Z M8.328125 21.390625 C6.328115 20.609371 4.770839 19.625006 3.656250 18.437500 C3.458332 18.218749 3.372396 17.981772 3.398438 17.726562 C3.424479 17.471353 3.546874 17.260418 3.765625 17.093750 C4.005210 16.895832 4.242186 16.817708 4.476562 16.859375 C4.710939 16.901042 4.911458 17.015624 5.078125 17.203125 C5.984380 18.151046 7.281242 18.958330 8.968750 19.625000 C9.229168 19.729167 9.414062 19.888020 9.523438 20.101562 C9.632813 20.315105 9.645834 20.552082 9.562500 20.812500 C9.479166 21.072918 9.320314 21.260416 9.085938 21.375000 C8.851561 21.489584 8.598960 21.494792 8.328125 21.390625 Z M12.937500 22.640625 C12.770833 22.609375 12.609376 22.578125 12.453125 22.546875 C12.296874 22.515625 12.140626 22.479167 11.984375 22.437500 C11.723957 22.364583 11.523438 22.223959 11.382812 22.015625 C11.242187 21.807291 11.203125 21.572918 11.265625 21.312500 C11.328125 21.052082 11.468749 20.854167 11.687500 20.718750 C11.906251 20.583333 12.145832 20.552083 12.406250 20.625000 C12.552084 20.666667 12.692708 20.700521 12.828125 20.726562 C12.963542 20.752604 13.098958 20.776042 13.234375 20.796875 C13.505210 20.838542 13.716145 20.958332 13.867188 21.156250 C14.018230 21.354168 14.072917 21.588540 14.031250 21.859375 C13.989583 22.119793 13.867189 22.328124 13.664062 22.484375 C13.460936 22.640626 13.218751 22.692709 12.937500 22.640625 Z M19.328125 30.937500 C21.317718 30.937500 23.299469 30.755210 25.273438 30.390625 C27.247406 30.026040 29.062492 29.411463 30.718750 28.546875 C32.375008 27.682287 33.708328 26.500008 34.718750 25.000000 C33.760412 25.750004 32.562507 26.445309 31.125000 27.085938 C29.687493 27.726566 27.997406 28.242186 26.054688 28.632812 C24.111969 29.023439 21.901054 29.218750 19.421875 29.218750 C17.276031 29.218750 15.200531 29.039064 13.195312 28.679688 C11.190094 28.320311 9.359383 27.812503 7.703125 27.156250 C6.046867 26.499997 4.661464 25.718755 3.546875 24.812500 C4.328129 25.979172 5.309890 26.955725 6.492188 27.742188 C7.674485 28.528650 8.981764 29.156248 10.414062 29.625000 C11.846361 30.093752 13.325513 30.429686 14.851562 30.632812 C16.377612 30.835939 17.869784 30.937500 19.328125 30.937500 Z M18.968750 24.625000 C21.947932 24.625000 24.476552 24.395836 26.554688 23.937500 C28.632823 23.479164 30.343743 22.895837 31.687500 22.187500 C33.031257 21.479163 34.088538 20.747400 34.859375 19.992188 C35.630212 19.236975 36.192707 18.562503 36.546875 17.968750 C36.546875 16.447909 36.234378 15.007819 35.609375 13.648438 C34.984372 12.289056 34.098964 11.119797 32.953125 10.140625 C33.098959 10.401043 33.213541 10.671874 33.296875 10.953125 C33.380209 11.234376 33.421875 11.505207 33.421875 11.765625 C33.421875 12.869797 33.036462 13.882808 32.265625 14.804688 C31.494788 15.726567 30.434903 16.518226 29.085938 17.179688 C27.736972 17.841149 26.179696 18.354165 24.414062 18.718750 C22.648429 19.083335 20.770843 19.265625 18.781250 19.265625 C15.989569 19.265625 13.546885 18.968753 11.453125 18.375000 C9.359365 17.781247 7.729172 16.945318 6.562500 15.867188 C5.395828 14.789057 4.812500 13.531257 4.812500 12.093750 C4.812500 11.760415 4.856770 11.427085 4.945312 11.093750 C5.033855 10.760415 5.161458 10.437502 5.328125 10.125000 C4.255203 11.135422 3.440107 12.312493 2.882812 13.656250 C2.325518 15.000007 2.000000 16.416659 1.906250 17.906250 C2.906255 19.489591 4.229158 20.776037 5.875000 21.765625 C7.520842 22.755213 9.447906 23.479164 11.656250 23.937500 C13.864594 24.395836 16.302070 24.625000 18.968750 24.625000 Z M20.875000 12.375000 C19.989579 11.947915 19.338544 11.427086 18.921875 10.812500 C18.505206 10.197914 18.296875 9.567712 18.296875 8.921875 C18.296875 7.994787 18.664059 7.161462 19.398438 6.421875 C20.132816 5.682288 21.291659 5.197918 22.875000 4.968750 L30.484375 3.890625 C31.411463 3.755208 32.101560 3.562501 32.554688 3.312500 C33.007815 3.062499 33.234375 2.781252 33.234375 2.468750 C33.234375 2.229165 33.088543 2.070313 32.796875 1.992188 C32.505207 1.914062 32.114586 1.875000 31.625000 1.875000 C31.489583 1.875000 31.346355 1.875000 31.195312 1.875000 C31.044270 1.875000 30.890626 1.880208 30.734375 1.890625 L25.437500 2.187500 C23.812492 2.281250 22.356777 2.424478 21.070312 2.617188 C19.783848 2.809897 18.669276 3.187497 17.726562 3.750000 C16.783849 4.312503 16.005211 5.192702 15.390625 6.390625 C14.640621 7.848966 13.932295 8.903643 13.265625 9.554688 C12.598955 10.205732 11.776047 10.630207 10.796875 10.828125 L10.421875 8.984375 C11.067712 8.859374 11.619789 8.557294 12.078125 8.078125 C12.536461 7.598956 13.088538 6.744798 13.734375 5.515625 C14.296878 4.442703 14.934892 3.583337 15.648438 2.937500 C16.361983 2.291663 17.179683 1.794273 18.101562 1.445312 C19.023442 1.096352 20.075515 0.843751 21.257812 0.687500 C22.440110 0.531249 23.781242 0.411459 25.281250 0.328125 L30.375000 0.031250 C30.583334 0.010417 30.757812 -0.000000 30.898438 -0.000000 C31.039063 -0.000000 31.166666 -0.000000 31.281250 -0.000000 C32.770841 -0.000000 33.781247 0.229164 34.312500 0.687500 C34.843753 1.145836 35.109375 1.734371 35.109375 2.453125 C35.109375 3.317713 34.710941 4.036455 33.914062 4.609375 C33.117184 5.182295 32.057298 5.562499 30.734375 5.750000 L23.062500 6.843750 C22.093745 6.979167 21.369794 7.234373 20.890625 7.609375 C20.411456 7.984377 20.171875 8.411456 20.171875 8.890625 C20.171875 9.213543 20.296874 9.533853 20.546875 9.851562 C20.796876 10.169272 21.177081 10.447915 21.687500 10.687500 Z M39.531250 27.343750" /></svg>