<svg version="1.1" xmlns="http://www.w3.org/2000/svg" style="fill:rgba(0,0,0,1.0)" width="256" height="256" viewBox="0 0 35.15625 23.4375"><path fill="rgb(255, 255, 255)" d="M14.843750 23.437500 C13.520827 23.437500 12.283860 23.192711 11.132812 22.703125 C9.981765 22.213539 8.973963 21.536463 8.109375 20.671875 C7.244787 19.807287 6.570315 18.804693 6.085938 17.664062 C5.601560 16.523432 5.359375 15.296882 5.359375 13.984375 C5.359375 12.328117 5.664059 10.812507 6.273438 9.437500 C6.882816 8.062493 7.703120 6.833339 8.734375 5.750000 C8.276039 5.604166 7.765628 5.494792 7.203125 5.421875 C6.640622 5.348958 6.057295 5.312500 5.453125 5.312500 C4.838539 5.312500 4.218753 5.348958 3.593750 5.421875 C2.968747 5.494792 2.377607 5.598958 1.820312 5.734375 C1.263018 5.869792 0.760419 6.036457 0.312500 6.234375 L0.000000 1.296875 C0.552086 0.994790 1.356766 0.703126 2.414062 0.421875 C3.471359 0.140624 4.677077 -0.000000 6.031250 -0.000000 C7.489591 -0.000000 8.874993 0.153644 10.187500 0.460938 C11.500007 0.768231 12.859368 1.276038 14.265625 1.984375 C15.744799 1.328122 17.289054 0.833335 18.898438 0.500000 C20.507821 0.166665 22.093742 -0.000000 23.656250 -0.000000 C25.010423 -0.000000 26.218745 0.140624 27.281250 0.421875 C28.343755 0.703126 29.145831 0.994790 29.687500 1.296875 L29.375000 6.328125 C28.947915 6.151041 28.447920 5.986980 27.875000 5.835938 C27.302080 5.684895 26.661462 5.559896 25.953125 5.460938 C25.244788 5.361979 24.479171 5.312500 23.656250 5.312500 C23.114581 5.312500 22.565107 5.328125 22.007812 5.359375 C21.450518 5.390625 20.880211 5.442708 20.296875 5.515625 C21.828133 6.671881 22.882810 7.992180 23.460938 9.476562 C24.039065 10.960945 24.328125 12.463534 24.328125 13.984375 C24.328125 15.828134 23.906254 17.460930 23.062500 18.882812 C22.218746 20.304695 21.080736 21.419267 19.648438 22.226562 C18.216139 23.033858 16.614592 23.437500 14.843750 23.437500 Z M14.843750 18.593750 C16.104173 18.593750 17.166662 18.145838 18.031250 17.250000 C18.895838 16.354162 19.328125 15.125008 19.328125 13.562500 C19.328125 12.281244 18.976566 11.059902 18.273438 9.898438 C17.570309 8.736973 16.427091 7.776045 14.843750 7.015625 C13.552077 7.640628 12.481775 8.486974 11.632812 9.554688 C10.783850 10.622401 10.359375 11.979158 10.359375 13.625000 C10.359375 15.156258 10.791662 16.367183 11.656250 17.257812 C12.520838 18.148442 13.583327 18.593750 14.843750 18.593750 Z M35.156250 22.656250" /></svg>