<svg version="1.1" xmlns="http://www.w3.org/2000/svg" style="fill:rgba(0,0,0,1.0)" width="256" height="256" viewBox="0 0 34.765625 32.8125"><path fill="rgb(255, 255, 255)" d="M19.875000 28.468750 L19.875000 25.984375 L17.031250 25.984375 L17.031250 23.562500 L19.875000 23.562500 L19.875000 22.171875 L17.031250 22.171875 L17.031250 19.750000 L19.234375 19.750000 L15.125000 11.437500 L19.765625 11.437500 L22.015625 17.281250 L24.250000 11.437500 L28.906250 11.437500 L24.687500 19.750000 L26.937500 19.750000 L26.937500 22.171875 L24.125000 22.171875 L24.125000 23.562500 L26.937500 23.562500 L26.937500 25.984375 L24.125000 25.984375 L24.125000 28.468750 Z M13.093750 32.812500 C11.749993 32.812500 10.440111 32.552086 9.164062 32.031250 C7.888014 31.510414 6.723964 30.645839 5.671875 29.437500 L3.140625 32.312500 L3.843750 25.015625 L11.328125 25.156250 L7.937500 27.531250 C9.812509 29.604177 12.140611 30.640625 14.921875 30.640625 C15.463544 30.640625 16.020830 30.604167 16.593750 30.531250 C17.166670 30.458333 17.770830 30.354167 18.406250 30.218750 C18.291666 30.645835 17.979169 31.057290 17.468750 31.453125 C16.958331 31.848960 16.322920 32.174478 15.562500 32.429688 C14.802080 32.684897 13.979171 32.812500 13.093750 32.812500 Z M6.234375 16.125000 C6.578127 15.979166 6.815104 15.783855 6.945312 15.539062 C7.075521 15.294270 7.140625 14.994793 7.140625 14.640625 C7.140625 14.307290 7.057292 14.033855 6.890625 13.820312 C6.723958 13.606770 6.505210 13.416667 6.234375 13.250000 Z M4.390625 21.812500 L4.390625 19.500000 C3.713538 19.447916 3.005212 19.330730 2.265625 19.148438 C1.526038 18.966145 0.828128 18.713543 0.171875 18.390625 L0.171875 14.718750 C0.786461 15.135419 1.473955 15.507811 2.234375 15.835938 C2.994795 16.164064 3.713538 16.343750 4.390625 16.375000 L4.390625 12.421875 C2.953118 11.838539 1.861983 11.156254 1.117188 10.375000 C0.372392 9.593746 0.000000 8.572923 0.000000 7.312500 C0.000000 5.927076 0.411454 4.854170 1.234375 4.093750 C2.057296 3.333330 3.109369 2.869792 4.390625 2.703125 L4.390625 0.953125 L6.234375 0.953125 L6.234375 2.671875 C7.505215 2.786459 8.770827 3.182288 10.031250 3.859375 L9.156250 6.953125 C8.697914 6.682290 8.205732 6.460938 7.679688 6.289062 C7.153643 6.117187 6.671877 6.000000 6.234375 5.937500 L6.234375 9.562500 C7.661465 10.104169 8.708330 10.731767 9.375000 11.445312 C10.041670 12.158858 10.375000 13.135410 10.375000 14.375000 C10.375000 15.635423 10.033858 16.713537 9.351562 17.609375 C8.669267 18.505213 7.630215 19.104165 6.234375 19.406250 L6.234375 21.812500 Z M4.390625 8.796875 L4.390625 5.953125 C3.973956 6.057292 3.695313 6.234374 3.554688 6.484375 C3.414062 6.734376 3.343750 7.031248 3.343750 7.375000 C3.343750 7.666668 3.424478 7.924478 3.585938 8.148438 C3.747397 8.372397 4.015623 8.588541 4.390625 8.796875 Z M26.062500 7.796875 L18.578125 7.656250 L21.968750 5.281250 C20.093741 3.208323 17.750014 2.171875 14.937500 2.171875 C14.416664 2.171875 13.869795 2.208333 13.296875 2.281250 C12.723955 2.354167 12.125003 2.458333 11.500000 2.593750 C11.625001 2.166665 11.940102 1.755210 12.445312 1.359375 C12.950523 0.963540 13.585934 0.638022 14.351562 0.382812 C15.117191 0.127603 15.937496 -0.000000 16.812500 -0.000000 C18.156257 -0.000000 19.468744 0.260414 20.750000 0.781250 C22.031256 1.302086 23.192703 2.166661 24.234375 3.375000 L26.765625 0.500000 Z M34.765625 27.343750" /></svg>