<svg version="1.1" xmlns="http://www.w3.org/2000/svg" style="fill:rgba(0,0,0,1.0)" width="256" height="256" viewBox="0 0 38.625 31.25"><path fill="rgb(255, 255, 255)" d="M18.312500 31.250000 C15.572903 31.250000 13.080740 30.947920 10.835938 30.343750 C8.591135 29.739580 6.661466 28.875006 5.046875 27.750000 C3.432284 26.624994 2.187504 25.283862 1.312500 23.726562 C0.437496 22.169263 0.000000 20.437510 0.000000 18.531250 C0.000000 16.708324 0.372392 15.075528 1.117188 13.632812 C1.861983 12.190097 2.835931 10.979172 4.039062 10.000000 C5.242194 9.020828 6.520827 8.317710 7.875000 7.890625 L8.437500 9.640625 C7.135410 10.057294 5.992192 10.705725 5.007812 11.585938 C4.023433 12.466150 3.255211 13.502598 2.703125 14.695312 C2.151039 15.888027 1.875000 17.166660 1.875000 18.531250 C1.875000 20.708344 2.562493 22.617179 3.937500 24.257812 C5.312507 25.898446 7.231759 27.174475 9.695312 28.085938 C12.158866 28.997400 15.031234 29.453125 18.312500 29.453125 C21.593766 29.453125 24.468738 28.997400 26.937500 28.085938 C29.406262 27.174475 31.325514 25.898446 32.695312 24.257812 C34.065111 22.617179 34.750000 20.708344 34.750000 18.531250 C34.750000 17.166660 34.473961 15.888027 33.921875 14.695312 C33.369789 13.502598 32.601567 12.466150 31.617188 11.585938 C30.632808 10.705725 29.489590 10.057294 28.187500 9.640625 L28.750000 7.890625 C30.114590 8.317710 31.395827 9.020828 32.593750 10.000000 C33.791673 10.979172 34.763017 12.190097 35.507812 13.632812 C36.252608 15.075528 36.625000 16.708324 36.625000 18.531250 C36.625000 20.437510 36.187504 22.169263 35.312500 23.726562 C34.437496 25.283862 33.192716 26.624994 31.578125 27.750000 C29.963534 28.875006 28.033865 29.739580 25.789062 30.343750 C23.544260 30.947920 21.052097 31.250000 18.312500 31.250000 Z M11.687500 19.625000 C10.666662 19.135414 9.963544 18.635419 9.578125 18.125000 C9.192706 17.614581 9.078124 16.989587 9.234375 16.250000 L9.828125 13.406250 C9.880209 13.187499 9.976562 13.026042 10.117188 12.921875 C10.257813 12.817708 10.411458 12.765625 10.578125 12.765625 C10.807293 12.765625 11.010416 12.848958 11.187500 13.015625 C11.364584 13.182292 11.421875 13.416665 11.359375 13.718750 L10.765625 16.562500 C10.703125 16.875002 10.768228 17.151040 10.960938 17.390625 C11.153647 17.630210 11.593747 17.895832 12.281250 18.187500 C12.635418 18.333334 12.812500 18.578123 12.812500 18.921875 C12.812500 19.182293 12.703126 19.401041 12.484375 19.578125 C12.265624 19.755209 12.000002 19.770834 11.687500 19.625000 Z M18.312500 24.546875 C16.145822 24.546875 14.221363 24.330731 12.539062 23.898438 C10.856762 23.466144 9.453131 22.882816 8.328125 22.148438 C7.203119 21.414059 6.388023 20.596359 5.882812 19.695312 C5.377602 18.794266 5.218749 17.875005 5.406250 16.937500 L7.593750 5.765625 L9.437500 6.125000 L7.250000 17.296875 C7.114583 17.994795 7.302081 18.671872 7.812500 19.328125 C8.322919 19.984378 9.088537 20.575518 10.109375 21.101562 C11.130213 21.627607 12.341139 22.046873 13.742188 22.359375 C15.143236 22.671877 16.666658 22.828125 18.312500 22.828125 C19.958342 22.828125 21.481764 22.671877 22.882812 22.359375 C24.283861 22.046873 25.494787 21.627607 26.515625 21.101562 C27.536463 20.575518 28.302081 19.984378 28.812500 19.328125 C29.322919 18.671872 29.510417 17.994795 29.375000 17.296875 L27.187500 6.125000 L29.031250 5.765625 L31.218750 16.937500 C31.406251 17.875005 31.247398 18.794266 30.742188 19.695312 C30.236977 20.596359 29.421881 21.414059 28.296875 22.148438 C27.171869 22.882816 25.768238 23.466144 24.085938 23.898438 C22.403637 24.330731 20.479178 24.546875 18.312500 24.546875 Z M18.312500 11.156250 C16.833326 11.156250 15.442715 11.010418 14.140625 10.718750 C12.838535 10.427082 11.692713 10.026044 10.703125 9.515625 C9.713537 9.005206 8.937503 8.414066 8.375000 7.742188 C7.812497 7.070309 7.531250 6.348962 7.531250 5.578125 C7.531250 4.807288 7.812497 4.085941 8.375000 3.414062 C8.937503 2.742184 9.713537 2.151044 10.703125 1.640625 C11.692713 1.130206 12.838535 0.729168 14.140625 0.437500 C15.442715 0.145832 16.833326 -0.000000 18.312500 -0.000000 C19.802091 -0.000000 21.197910 0.145832 22.500000 0.437500 C23.802090 0.729168 24.947912 1.130206 25.937500 1.640625 C26.927088 2.151044 27.700518 2.742184 28.257812 3.414062 C28.815107 4.085941 29.093750 4.807288 29.093750 5.578125 C29.093750 6.348962 28.815107 7.070309 28.257812 7.742188 C27.700518 8.414066 26.927088 9.005206 25.937500 9.515625 C24.947912 10.026044 23.802090 10.427082 22.500000 10.718750 C21.197910 11.010418 19.802091 11.156250 18.312500 11.156250 Z M23.828125 8.453125 C24.692713 8.171874 25.364581 7.773440 25.843750 7.257812 C26.322919 6.742185 26.562500 6.151045 26.562500 5.484375 C26.562500 4.932289 26.395835 4.411461 26.062500 3.921875 C25.729165 3.432289 25.270836 3.010418 24.687500 2.656250 C24.343748 2.447916 24.023439 2.390625 23.726562 2.484375 C23.429686 2.578125 23.281250 2.781248 23.281250 3.093750 C23.281250 3.447918 23.499998 3.760415 23.937500 4.031250 C24.281252 4.239584 24.544270 4.471353 24.726562 4.726562 C24.908855 4.981772 25.000000 5.234374 25.000000 5.484375 C25.000000 5.776043 24.867189 6.049478 24.601562 6.304688 C24.335936 6.559897 23.932294 6.781249 23.390625 6.968750 C22.932289 7.135417 22.703125 7.411456 22.703125 7.796875 C22.703125 8.026043 22.807291 8.218749 23.015625 8.375000 C23.223959 8.531251 23.494790 8.557292 23.828125 8.453125 Z M38.625000 26.562500" /></svg>