<svg version="1.1" xmlns="http://www.w3.org/2000/svg" style="fill:rgba(0,0,0,1.0)" width="256" height="256" viewBox="0 0 37.5 32.8125"><path fill="rgb(255, 255, 255)" d="M13.578125 32.812500 C11.578115 32.812500 9.750008 32.447920 8.093750 31.718750 C6.437492 30.989580 5.005214 29.960944 3.796875 28.632812 C2.588536 27.304681 1.653649 25.726572 0.992188 23.898438 C0.330726 22.070303 0.000000 20.062511 0.000000 17.875000 C0.000000 15.739573 0.408850 13.916674 1.226562 12.406250 C2.044275 10.895826 3.156243 9.729171 4.562500 8.906250 C5.468755 8.374997 6.450516 7.989585 7.507812 7.750000 C8.565109 7.510415 9.627599 7.341146 10.695312 7.242188 C11.763026 7.143229 12.778641 7.036459 13.742188 6.921875 C14.705734 6.807291 15.546871 6.609376 16.265625 6.328125 C17.057296 6.015623 17.791663 5.601565 18.468750 5.085938 C19.145837 4.570310 19.812497 4.020836 20.468750 3.437500 C21.125003 2.854164 21.809892 2.302086 22.523438 1.781250 C23.236983 1.260414 24.023433 0.833335 24.882812 0.500000 C25.742192 0.166665 26.718745 -0.000000 27.812500 -0.000000 C29.864594 -0.000000 31.471348 0.864575 32.632812 2.593750 C33.794277 4.322925 34.375000 6.708318 34.375000 9.750000 C34.375000 12.135429 34.026045 14.458322 33.328125 16.718750 C32.630205 18.979178 31.648444 21.080719 30.382812 23.023438 C29.117181 24.966156 27.617196 26.671868 25.882812 28.140625 C24.148429 29.609382 22.242198 30.755204 20.164062 31.578125 C18.085927 32.401046 15.890637 32.812500 13.578125 32.812500 Z M11.218750 20.984375 C9.947910 20.984375 8.815109 20.807293 7.820312 20.453125 C6.825516 20.098957 6.041670 19.611982 5.468750 18.992188 C4.895830 18.372393 4.609375 17.661462 4.609375 16.859375 C4.609375 16.296872 4.744790 15.666670 5.015625 14.968750 C5.286460 14.270830 5.632810 13.619795 6.054688 13.015625 C6.476565 12.411455 6.911456 11.979168 7.359375 11.718750 C7.869794 11.416665 8.716140 11.132814 9.898438 10.867188 C11.080735 10.601561 12.497388 10.385417 14.148438 10.218750 C15.799487 10.052083 17.588532 9.968750 19.515625 9.968750 C19.515625 10.479169 19.617186 11.010414 19.820312 11.562500 C20.023439 12.114586 20.286457 12.619789 20.609375 13.078125 C20.932293 13.536461 21.270832 13.885415 21.625000 14.125000 C20.447911 16.406261 18.971363 18.119786 17.195312 19.265625 C15.419262 20.411464 13.427094 20.984375 11.218750 20.984375 Z M14.250000 26.984375 C13.572913 26.984375 13.075522 26.825522 12.757812 26.507812 C12.440103 26.190103 12.281250 25.807294 12.281250 25.359375 C12.281250 24.807289 12.450519 24.367189 12.789062 24.039062 C13.127606 23.710936 13.578122 23.429689 14.140625 23.195312 C14.703128 22.960936 15.322913 22.705731 16.000000 22.429688 C16.677087 22.153644 17.354163 21.796877 18.031250 21.359375 C18.843754 20.828122 19.611976 20.187504 20.335938 19.437500 C21.059899 18.687496 21.747393 17.945316 22.398438 17.210938 C23.049482 16.476559 23.661455 15.875002 24.234375 15.406250 C24.817711 14.927081 25.395830 14.570314 25.968750 14.335938 C26.541670 14.101561 27.114580 13.984375 27.687500 13.984375 C28.322920 13.984375 28.804686 14.140623 29.132812 14.453125 C29.460939 14.765627 29.625000 15.140623 29.625000 15.578125 C29.625000 16.088544 29.416669 16.721350 29.000000 17.476562 C28.583331 18.231775 28.002608 19.036454 27.257812 19.890625 C26.513017 20.744796 25.648442 21.591142 24.664062 22.429688 C23.679683 23.268233 22.611985 24.031247 21.460938 24.718750 C20.309890 25.406253 19.122402 25.955727 17.898438 26.367188 C16.674473 26.778648 15.458339 26.984375 14.250000 26.984375 Z M14.125000 28.703125 C15.520840 28.703125 16.945305 28.463544 18.398438 27.984375 C19.851570 27.505206 21.268222 26.828129 22.648438 25.953125 C24.028653 25.078121 25.322911 24.049485 26.531250 22.867188 C27.739589 21.684890 28.802079 20.385424 29.718750 18.968750 C30.635421 17.552076 31.354164 16.059904 31.875000 14.492188 C32.395836 12.924471 32.656250 11.328133 32.656250 9.703125 C32.656250 7.192696 32.216150 5.234382 31.335938 3.828125 C30.455725 2.421868 29.229175 1.718750 27.656250 1.718750 C27.052080 1.718750 26.557294 1.851561 26.171875 2.117188 C25.786456 2.382814 25.424481 2.731769 25.085938 3.164062 C24.747394 3.596356 24.346356 4.067706 23.882812 4.578125 C23.419269 5.088544 22.802087 5.588539 22.031250 6.078125 C20.927078 6.776045 19.778652 7.304686 18.585938 7.664062 C17.393223 8.023439 16.192714 8.291666 14.984375 8.468750 C13.776036 8.645834 12.598964 8.799479 11.453125 8.929688 C10.307286 9.059896 9.229172 9.231770 8.218750 9.445312 C7.208328 9.658855 6.302087 9.994789 5.500000 10.453125 C4.395828 11.088545 3.593752 11.971349 3.093750 13.101562 C2.593748 14.231776 2.343750 15.473952 2.343750 16.828125 C2.343750 18.171882 2.583331 19.278641 3.062500 20.148438 C3.541669 21.018234 4.195308 21.697914 5.023438 22.187500 C5.851567 22.677086 6.781245 23.036457 7.812500 23.265625 C8.760421 23.463543 9.505206 23.729165 10.046875 24.062500 C10.588544 24.395835 10.859375 24.843747 10.859375 25.406250 C10.859375 26.239588 11.015623 26.895831 11.328125 27.375000 C11.640627 27.854169 12.044268 28.195311 12.539062 28.398438 C13.033857 28.601564 13.562497 28.703125 14.125000 28.703125 Z M23.671875 12.750000 C22.994788 12.750000 22.416669 12.510419 21.937500 12.031250 C21.458331 11.552081 21.218750 10.973962 21.218750 10.296875 C21.218750 9.619788 21.455727 9.041669 21.929688 8.562500 C22.403648 8.083331 22.984372 7.843750 23.671875 7.843750 C24.348962 7.843750 24.927081 8.083331 25.406250 8.562500 C25.885419 9.041669 26.125000 9.619788 26.125000 10.296875 C26.125000 10.973962 25.885419 11.552081 25.406250 12.031250 C24.927081 12.510419 24.348962 12.750000 23.671875 12.750000 Z M29.890625 11.812500 C29.536457 11.812500 29.166669 11.770834 28.781250 11.687500 C28.395831 11.604166 28.000002 11.416668 27.593750 11.125000 C27.677084 10.791665 27.718750 10.468752 27.718750 10.156250 C27.718750 9.499997 27.583335 8.864586 27.312500 8.250000 C27.041665 7.635414 26.677086 7.197918 26.218750 6.937500 C26.364584 6.052079 26.661456 5.359378 27.109375 4.859375 C27.557294 4.359372 28.020831 4.109375 28.500000 4.109375 C29.010419 4.109375 29.453123 4.372393 29.828125 4.898438 C30.203127 5.424482 30.497395 6.111975 30.710938 6.960938 C30.924480 7.809900 31.031250 8.723953 31.031250 9.703125 C31.031250 10.276045 30.937501 10.770831 30.750000 11.187500 C30.562499 11.604169 30.276044 11.812500 29.890625 11.812500 Z M37.500000 27.343750" /></svg>