<svg version="1.1" xmlns="http://www.w3.org/2000/svg" style="fill:rgba(0,0,0,1.0)" width="256" height="256" viewBox="0 0 37.046875 33.21875"><path fill="rgb(255, 255, 255)" d="M16.734375 33.218750 C15.963538 33.218750 15.328128 33.166667 14.828125 33.062500 C14.328122 32.958333 13.958335 32.768231 13.718750 32.492188 C13.479165 32.216144 13.359375 31.822919 13.359375 31.312500 C13.359375 30.895831 13.377604 30.507814 13.414062 30.148438 C13.450521 29.789061 13.489583 29.479168 13.531250 29.218750 L13.562500 29.031250 C13.593750 28.822916 13.619792 28.625001 13.640625 28.437500 C13.661458 28.249999 13.671875 28.072918 13.671875 27.906250 L13.671875 25.328125 C13.671875 24.911456 13.627605 24.510419 13.539062 24.125000 C13.450520 23.739581 13.255210 23.427085 12.953125 23.187500 L9.531250 20.406250 C9.218748 20.145832 8.934897 19.966146 8.679688 19.867188 C8.424478 19.768229 8.093752 19.718750 7.687500 19.718750 L0.828125 19.718750 L0.484375 18.156250 L2.421875 17.859375 C2.515625 17.838542 2.562500 17.807292 2.562500 17.765625 C2.562500 17.734375 2.546875 17.700521 2.515625 17.664062 C2.484375 17.627604 2.453125 17.593750 2.421875 17.562500 L0.000000 15.109375 L1.125000 14.046875 L4.765625 17.328125 C4.838542 17.401042 4.914062 17.450521 4.992188 17.476562 C5.070313 17.502604 5.140625 17.515625 5.203125 17.515625 L7.328125 17.390625 C7.567710 17.369792 7.723958 17.343750 7.796875 17.312500 C7.869792 17.281250 7.942708 17.182292 8.015625 17.015625 L9.562500 13.609375 L11.062500 14.000000 C10.979166 14.354168 10.888021 14.757810 10.789062 15.210938 C10.690104 15.664065 10.606771 16.072915 10.539062 16.437500 C10.471354 16.802085 10.437500 17.041666 10.437500 17.156250 C10.437500 17.322918 10.455729 17.450520 10.492188 17.539062 C10.528646 17.627605 10.635416 17.718750 10.812500 17.812500 C10.937501 17.875000 11.182290 17.997395 11.546875 18.179688 C11.911460 18.361980 12.309894 18.557291 12.742188 18.765625 C13.174481 18.973959 13.565102 19.151041 13.914062 19.296875 C14.263023 19.442709 14.484375 19.515625 14.578125 19.515625 C14.713542 19.515625 14.841145 19.429688 14.960938 19.257812 C15.080730 19.085937 15.182291 18.854168 15.265625 18.562500 C15.348959 18.270832 15.390625 17.937502 15.390625 17.562500 C15.390625 17.187498 15.257814 16.760419 14.992188 16.281250 C14.726561 15.802081 14.393231 15.322919 13.992188 14.843750 C13.591144 14.364581 13.182294 13.942710 12.765625 13.578125 C12.140622 13.026039 11.359380 12.526044 10.421875 12.078125 C9.484370 11.630206 8.510422 11.406250 7.500000 11.406250 L1.125000 11.406250 L1.125000 9.812500 L4.375000 9.593750 C4.531251 9.583333 4.643229 9.565104 4.710938 9.539062 C4.778646 9.513021 4.812500 9.458334 4.812500 9.375000 C4.812500 9.249999 4.653647 8.942711 4.335938 8.453125 C4.018228 7.963539 3.677085 7.463544 3.312500 6.953125 L4.562500 6.015625 L6.796875 9.015625 C6.953126 9.223959 7.187498 9.328125 7.500000 9.328125 L9.953125 9.328125 C10.255210 9.328125 10.463541 9.257813 10.578125 9.117188 C10.692709 8.976562 10.750000 8.755210 10.750000 8.453125 L10.750000 3.343750 C10.750000 2.833331 10.898436 2.361981 11.195312 1.929688 C11.492189 1.497394 11.848956 1.117189 12.265625 0.789062 C12.682294 0.460936 13.057290 0.197918 13.390625 -0.000000 L14.484375 1.109375 C14.057290 1.494794 13.687502 1.864582 13.375000 2.218750 C13.062498 2.572918 12.906250 2.947915 12.906250 3.343750 L12.906250 4.078125 C13.208335 3.807290 13.583331 3.479169 14.031250 3.093750 C14.479169 2.708331 14.934894 2.351564 15.398438 2.023438 C15.861981 1.695311 16.255207 1.489584 16.578125 1.406250 L20.515625 0.328125 L21.031250 1.796875 L17.328125 3.156250 C17.088540 3.250000 16.804689 3.450519 16.476562 3.757812 C16.148436 4.065106 15.828127 4.429685 15.515625 4.851562 C15.203123 5.273440 14.942709 5.703123 14.734375 6.140625 C14.526041 6.578127 14.421875 6.973957 14.421875 7.328125 C14.421875 7.744794 14.434896 8.109373 14.460938 8.421875 C14.486979 8.734377 14.572916 9.072915 14.718750 9.437500 C14.822917 9.677085 15.002603 9.927082 15.257812 10.187500 C15.513022 10.447918 15.789061 10.666666 16.085938 10.843750 C16.382814 11.020834 16.640624 11.109375 16.859375 11.109375 C17.026042 11.109375 17.210936 11.054688 17.414062 10.945312 C17.617189 10.835937 17.820311 10.697917 18.023438 10.531250 C18.226564 10.364583 18.416666 10.195313 18.593750 10.023438 C18.770834 9.851562 18.911458 9.697917 19.015625 9.562500 C19.223959 9.302082 19.390624 9.052085 19.515625 8.812500 C19.640626 8.572915 19.703125 8.286460 19.703125 7.953125 L19.703125 4.687500 L21.234375 4.687500 L21.781250 7.953125 C21.833334 8.213543 21.976561 8.369791 22.210938 8.421875 C22.445314 8.473959 22.692707 8.500000 22.953125 8.500000 C23.223960 8.500000 23.442708 8.445313 23.609375 8.335938 C23.776042 8.226562 23.963541 8.062501 24.171875 7.843750 L27.062500 4.781250 L28.171875 5.859375 L25.562500 9.250000 C25.229165 9.677085 24.848960 10.020832 24.421875 10.281250 C23.994790 10.541668 23.505211 10.671875 22.953125 10.671875 C22.442706 10.671875 22.078126 10.705729 21.859375 10.773438 C21.640624 10.841146 21.411460 11.072915 21.171875 11.468750 L19.906250 13.593750 C19.791666 13.781251 19.734375 13.968749 19.734375 14.156250 C19.734375 14.250000 19.773437 14.374999 19.851562 14.531250 C19.929688 14.687501 20.005208 14.833333 20.078125 14.968750 L20.203125 15.187500 C20.286459 15.322917 20.419270 15.635414 20.601562 16.125000 C20.783855 16.614586 20.875000 17.093748 20.875000 17.562500 C20.875000 18.010419 20.822917 18.408852 20.718750 18.757812 C20.614583 19.106773 20.500001 19.442707 20.375000 19.765625 L20.296875 19.968750 C20.223958 20.156251 20.153646 20.351561 20.085938 20.554688 C20.018229 20.757814 19.963542 20.968749 19.921875 21.187500 C19.880208 21.406251 19.859375 21.645832 19.859375 21.906250 C19.859375 21.979167 19.875000 22.046875 19.906250 22.109375 C19.937500 22.171875 19.984375 22.203125 20.046875 22.203125 C20.109375 22.203125 20.187500 22.171875 20.281250 22.109375 C20.375000 22.046875 20.458333 21.979167 20.531250 21.906250 L23.359375 19.156250 C23.578126 18.947916 23.687500 18.697918 23.687500 18.406250 L23.687500 16.562500 C23.687500 16.322915 23.653646 16.125001 23.585938 15.968750 C23.518229 15.812499 23.416667 15.666667 23.281250 15.531250 L21.515625 13.703125 L22.609375 12.593750 L23.984375 13.750000 C24.098959 13.843750 24.231770 13.937500 24.382812 14.031250 C24.533855 14.125000 24.692708 14.171875 24.859375 14.171875 C25.036459 14.171875 25.195312 14.127605 25.335938 14.039062 C25.476563 13.950520 25.598958 13.854167 25.703125 13.750000 L27.546875 12.031250 L28.671875 13.156250 L26.312500 15.531250 C26.166666 15.677084 26.080729 15.825520 26.054688 15.976562 C26.028646 16.127605 26.015625 16.322915 26.015625 16.562500 L26.015625 17.078125 C26.015625 17.182292 26.044271 17.250000 26.101562 17.281250 C26.158854 17.312500 26.239583 17.328125 26.343750 17.328125 C26.395834 17.328125 26.455729 17.320313 26.523438 17.304688 C26.591146 17.289062 26.671875 17.265625 26.765625 17.234375 L27.015625 17.140625 C27.348960 17.015624 27.747394 16.888021 28.210938 16.757812 C28.674481 16.627604 29.109373 16.562500 29.515625 16.562500 C30.130211 16.562500 30.739580 16.710936 31.343750 17.007812 C31.947920 17.304689 32.484373 17.598957 32.953125 17.890625 L32.375000 19.296875 C31.864581 19.109374 31.380211 18.950521 30.921875 18.820312 C30.463539 18.690104 29.994794 18.625000 29.515625 18.625000 C29.203123 18.625000 28.835940 18.713541 28.414062 18.890625 C27.992185 19.067709 27.588544 19.283853 27.203125 19.539062 C26.817706 19.794272 26.515626 20.046874 26.296875 20.296875 L20.515625 26.734375 C20.328124 26.932293 20.182292 27.114582 20.078125 27.281250 C19.973958 27.447918 19.921875 27.656249 19.921875 27.906250 C19.921875 28.072918 19.932292 28.260416 19.953125 28.468750 C19.973958 28.677084 19.989583 28.854166 20.000000 29.000000 L20.015625 29.187500 C20.036458 29.468751 20.059896 29.794269 20.085938 30.164062 C20.111979 30.533856 20.125000 30.916665 20.125000 31.312500 C20.125000 31.822919 20.005210 32.216144 19.765625 32.492188 C19.526040 32.768231 19.156252 32.958333 18.656250 33.062500 C18.156248 33.166667 17.515629 33.218750 16.734375 33.218750 Z M37.046875 27.656250" /></svg>