<svg version="1.1" xmlns="http://www.w3.org/2000/svg" style="fill:rgba(0,0,0,1.0)" width="256" height="256" viewBox="0 0 39.78125 32.8125"><path fill="rgb(255, 255, 255)" d="M3.140625 32.812500 C2.567705 32.812500 2.098960 32.630210 1.734375 32.265625 C1.369790 31.901040 1.187500 31.432295 1.187500 30.859375 L1.187500 4.734375 C0.833332 4.338540 0.546876 3.903648 0.328125 3.429688 C0.109374 2.955727 0.000000 2.494794 0.000000 2.046875 C0.000000 1.473955 0.184894 0.989585 0.554688 0.593750 C0.924481 0.197915 1.395830 -0.000000 1.968750 -0.000000 L26.656250 -0.000000 C27.239586 -0.000000 27.713540 0.197915 28.078125 0.593750 C28.442710 0.989585 28.625000 1.473955 28.625000 2.046875 C28.625000 2.494794 28.515626 2.955727 28.296875 3.429688 C28.078124 3.903648 27.791668 4.338540 27.437500 4.734375 L27.437500 11.984375 L36.968750 11.984375 C37.552086 11.984375 38.026040 12.182290 38.390625 12.578125 C38.755210 12.973960 38.937500 13.458330 38.937500 14.031250 C38.937500 14.479169 38.828126 14.940102 38.609375 15.414062 C38.390624 15.888023 38.104168 16.322915 37.750000 16.718750 L37.750000 30.859375 C37.750000 31.432295 37.567710 31.901040 37.203125 32.265625 C36.838540 32.630210 36.369795 32.812500 35.796875 32.812500 Z M3.921875 30.515625 L3.921875 26.156250 L6.500000 26.156250 L6.500000 30.515625 Z M4.859375 29.578125 L5.562500 29.578125 L5.562500 26.546875 L4.859375 26.546875 Z M3.937500 26.750000 C3.781249 26.750000 3.664063 26.682292 3.585938 26.546875 C3.507812 26.411458 3.500000 26.234376 3.562500 26.015625 L4.171875 23.906250 L6.250000 23.906250 L6.859375 26.015625 C6.921875 26.234376 6.914063 26.411458 6.835938 26.546875 C6.757812 26.682292 6.640626 26.750000 6.484375 26.750000 Z M11.109375 31.250000 L12.828125 31.250000 L12.828125 27.031250 L11.109375 27.031250 Z M4.312500 22.500000 L4.312500 18.281250 L7.281250 18.281250 L7.281250 22.500000 Z M5.250000 21.562500 L6.343750 21.562500 L6.343750 19.218750 L5.250000 19.218750 Z M8.921875 31.250000 L10.171875 31.250000 L10.171875 26.093750 L13.765625 26.093750 L13.765625 31.250000 L14.859375 31.250000 L14.859375 26.093750 L18.453125 26.093750 L18.453125 31.250000 L19.703125 31.250000 L19.703125 25.156250 L8.921875 25.156250 Z M15.796875 31.250000 L17.515625 31.250000 L17.515625 27.031250 L15.796875 27.031250 Z M4.312500 16.875000 L4.312500 12.656250 L7.281250 12.656250 L7.281250 16.875000 Z M5.250000 15.937500 L6.343750 15.937500 L6.343750 13.593750 L5.250000 13.593750 Z M22.125000 30.515625 L22.125000 26.156250 L24.703125 26.156250 L24.703125 30.515625 Z M23.062500 29.578125 L23.765625 29.578125 L23.765625 26.546875 L23.062500 26.546875 Z M8.765625 22.500000 L8.765625 7.031250 L11.734375 7.031250 L11.734375 22.500000 Z M9.703125 21.562500 L10.796875 21.562500 L10.796875 7.968750 L9.703125 7.968750 Z M3.453125 31.250000 L7.671875 31.250000 L7.671875 23.906250 L20.953125 23.906250 L20.953125 31.250000 L25.875000 31.250000 L25.875000 5.625000 L2.750000 5.625000 L2.750000 30.546875 C2.750000 30.765626 2.812499 30.937499 2.937500 31.062500 C3.062501 31.187501 3.234374 31.250000 3.453125 31.250000 Z M4.312500 11.250000 L4.312500 7.031250 L7.281250 7.031250 L7.281250 11.250000 Z M5.250000 10.312500 L6.343750 10.312500 L6.343750 7.968750 L5.250000 7.968750 Z M22.140625 26.750000 C21.984374 26.750000 21.867188 26.682292 21.789062 26.546875 C21.710937 26.411458 21.703125 26.234376 21.765625 26.015625 L22.375000 23.906250 L24.453125 23.906250 L25.062500 26.015625 C25.125000 26.234376 25.117188 26.411458 25.039062 26.546875 C24.960937 26.682292 24.843751 26.750000 24.687500 26.750000 Z M12.828125 22.500000 L12.828125 7.031250 L15.796875 7.031250 L15.796875 22.500000 Z M13.765625 21.562500 L14.859375 21.562500 L14.859375 7.968750 L13.765625 7.968750 Z M21.343750 22.500000 L21.343750 18.281250 L24.312500 18.281250 L24.312500 22.500000 Z M22.281250 21.562500 L23.375000 21.562500 L23.375000 19.218750 L22.281250 19.218750 Z M29.281250 30.515625 L29.281250 26.156250 L34.343750 26.156250 L34.343750 30.515625 Z M16.890625 22.500000 L16.890625 7.031250 L19.859375 7.031250 L19.859375 22.500000 Z M17.828125 21.562500 L18.921875 21.562500 L18.921875 7.968750 L17.828125 7.968750 Z M30.218750 29.578125 L33.406250 29.578125 L33.406250 26.546875 L30.218750 26.546875 Z M29.296875 26.750000 C29.140624 26.750000 29.023438 26.682292 28.945312 26.546875 C28.867187 26.411458 28.859375 26.234376 28.921875 26.015625 L29.531250 23.906250 L34.093750 23.906250 L34.703125 26.015625 C34.765625 26.234376 34.757813 26.411458 34.679688 26.546875 C34.601562 26.682292 34.484376 26.750000 34.328125 26.750000 Z M21.343750 16.875000 L21.343750 12.656250 L24.312500 12.656250 L24.312500 16.875000 Z M22.281250 15.937500 L23.375000 15.937500 L23.375000 13.593750 L22.281250 13.593750 Z M27.437500 31.250000 L35.484375 31.250000 C35.703126 31.250000 35.874999 31.187501 36.000000 31.062500 C36.125001 30.937499 36.187500 30.765626 36.187500 30.546875 L36.187500 16.046875 C36.520835 15.786457 36.802082 15.460939 37.031250 15.070312 C37.260418 14.679686 37.375000 14.333335 37.375000 14.031250 C37.375000 13.708332 37.239585 13.546875 36.968750 13.546875 L27.437500 13.546875 Z M29.000000 22.343750 L29.000000 18.593750 L34.625000 18.593750 L34.625000 22.343750 Z M29.937500 21.406250 L33.687500 21.406250 L33.687500 19.531250 L29.937500 19.531250 Z M2.750000 4.062500 L25.875000 4.062500 C26.208335 3.802082 26.489582 3.476564 26.718750 3.085938 C26.947918 2.695311 27.062500 2.348960 27.062500 2.046875 C27.062500 1.890624 27.028646 1.770834 26.960938 1.687500 C26.893229 1.604166 26.791667 1.562500 26.656250 1.562500 L1.968750 1.562500 C1.697915 1.562500 1.562500 1.723957 1.562500 2.046875 C1.562500 2.348960 1.679686 2.695311 1.914062 3.085938 C2.148439 3.476564 2.427082 3.802082 2.750000 4.062500 Z M21.343750 11.250000 L21.343750 7.031250 L24.312500 7.031250 L24.312500 11.250000 Z M22.281250 10.312500 L23.375000 10.312500 L23.375000 7.968750 L22.281250 7.968750 Z M26.734375 17.187500 L26.734375 15.625000 L36.984375 15.625000 L36.984375 17.187500 Z M29.593750 12.312500 L29.593750 11.109375 L29.062500 11.109375 C28.645831 11.109375 28.437500 10.901044 28.437500 10.484375 C28.437500 10.067706 28.645831 9.859375 29.062500 9.859375 L36.921875 9.859375 C37.338544 9.859375 37.546875 10.067706 37.546875 10.484375 C37.546875 10.901044 37.338544 11.109375 36.921875 11.109375 L36.390625 11.109375 L36.390625 12.312500 L34.828125 12.312500 L34.828125 11.109375 L31.156250 11.109375 L31.156250 12.312500 Z M29.734375 10.234375 L36.250000 10.234375 L36.250000 5.703125 L29.734375 5.703125 Z M28.796875 10.562500 L28.796875 4.765625 L37.187500 4.765625 L37.187500 10.562500 Z M29.406250 9.578125 L29.406250 8.062500 C29.927086 7.583331 30.403644 7.242189 30.835938 7.039062 C31.268231 6.835936 31.630207 6.734375 31.921875 6.734375 C32.296877 6.734375 32.567708 6.848957 32.734375 7.078125 C32.901042 7.307293 33.041666 7.539061 33.156250 7.773438 C33.270834 8.007814 33.432291 8.125000 33.640625 8.125000 C33.932293 8.125000 34.372393 7.890627 34.960938 7.421875 C35.549482 6.953123 36.166663 6.416670 36.812500 5.812500 L36.812500 7.109375 C36.020829 7.890629 35.385419 8.450519 34.906250 8.789062 C34.427081 9.127606 33.963544 9.296875 33.515625 9.296875 C33.182290 9.296875 32.945313 9.229167 32.804688 9.093750 C32.664062 8.958333 32.559896 8.799480 32.492188 8.617188 C32.424479 8.434895 32.346355 8.276042 32.257812 8.140625 C32.169270 8.005208 32.010418 7.937500 31.781250 7.937500 C31.479165 7.937500 31.114585 8.085936 30.687500 8.382812 C30.260415 8.679689 29.833335 9.078122 29.406250 9.578125 Z M39.781250 27.343750" /></svg>