<svg version="1.1" xmlns="http://www.w3.org/2000/svg" style="fill:rgba(0,0,0,1.0)" width="256" height="256" viewBox="0 0 36.71875 32.8125"><path fill="rgb(255, 255, 255)" d="M2.750000 32.812500 C1.999996 32.812500 1.354169 32.544274 0.812500 32.007812 C0.270831 31.471351 0.000000 30.833337 0.000000 30.093750 L0.000000 2.734375 C0.000000 1.984371 0.268226 1.341149 0.804688 0.804688 C1.341149 0.268226 1.984371 -0.000000 2.734375 -0.000000 L30.078125 -0.000000 C30.828129 -0.000000 31.471351 0.268226 32.007812 0.804688 C32.544274 1.341149 32.812500 1.984371 32.812500 2.734375 L32.812500 30.093750 C32.812500 30.833337 32.541669 31.471351 32.000000 32.007812 C31.458331 32.544274 30.812504 32.812500 30.062500 32.812500 Z M7.500000 28.796875 C6.552079 28.796875 5.742191 28.718751 5.070312 28.562500 C4.398434 28.406249 4.062500 28.218751 4.062500 28.000000 C4.062500 27.854166 4.216144 27.723959 4.523438 27.609375 C4.830731 27.494791 5.244789 27.401042 5.765625 27.328125 C6.286461 27.255208 6.864580 27.218750 7.500000 27.218750 C8.135420 27.218750 8.713539 27.255208 9.234375 27.328125 C9.755211 27.401042 10.169269 27.494791 10.476562 27.609375 C10.783856 27.723959 10.937500 27.854166 10.937500 28.000000 C10.937500 28.218751 10.604170 28.406249 9.937500 28.562500 C9.270830 28.718751 8.458338 28.796875 7.500000 28.796875 Z M4.312500 26.031250 C3.812498 26.031250 3.273440 26.026042 2.695312 26.015625 C2.117185 26.005208 1.546878 25.994792 0.984375 25.984375 L0.984375 24.328125 C1.661462 24.390625 2.257810 24.440104 2.773438 24.476562 C3.289065 24.513021 3.854164 24.531250 4.468750 24.531250 C5.843757 24.531250 7.106765 24.458334 8.257812 24.312500 C9.408860 24.166666 10.442704 24.093750 11.359375 24.093750 C12.432297 24.093750 13.276039 24.174478 13.890625 24.335938 C14.505211 24.497397 14.812500 24.630208 14.812500 24.734375 C14.812500 24.838542 14.518232 24.963541 13.929688 25.109375 C13.341143 25.255209 12.546880 25.398437 11.546875 25.539062 C10.546870 25.679688 9.421881 25.796875 8.171875 25.890625 C6.921869 25.984375 5.635423 26.031250 4.312500 26.031250 Z M7.468750 22.375000 C6.177077 22.375000 4.986985 22.346354 3.898438 22.289062 C2.809890 22.231771 1.812505 22.151042 0.906250 22.046875 L1.531250 20.875000 C2.364588 20.958334 3.278641 21.015625 4.273438 21.046875 C5.268234 21.078125 6.333328 21.093750 7.468750 21.093750 C7.947919 21.093750 8.427081 21.093750 8.906250 21.093750 C9.385419 21.093750 9.864581 21.093750 10.343750 21.093750 C9.989582 20.802082 9.692710 20.565105 9.453125 20.382812 C9.213540 20.200520 9.026042 20.062500 8.890625 19.968750 C8.651040 19.791666 8.406251 19.606772 8.156250 19.414062 C7.906249 19.221353 7.697918 19.015626 7.531250 18.796875 C7.333332 18.526040 7.210938 18.278647 7.164062 18.054688 C7.117187 17.830728 7.093750 17.640626 7.093750 17.484375 L7.093750 17.312500 C6.635414 17.583335 6.223960 17.794270 5.859375 17.945312 C5.494790 18.096355 5.156252 18.223958 4.843750 18.328125 C4.531248 18.432292 4.213543 18.562499 3.890625 18.718750 C3.536457 18.885418 3.252605 19.036458 3.039062 19.171875 C2.825520 19.307292 2.611980 19.432291 2.398438 19.546875 C2.184895 19.661459 1.895835 19.786458 1.531250 19.921875 L0.906250 18.875000 C1.479170 18.697916 1.927082 18.486980 2.250000 18.242188 C2.572918 17.997395 2.942706 17.781251 3.359375 17.593750 C3.744794 17.416666 4.221351 17.226564 4.789062 17.023438 C5.356774 16.820311 5.781249 16.640626 6.062500 16.484375 C6.343751 16.328124 6.606770 16.197917 6.851562 16.093750 C7.096355 15.989583 7.291666 15.937500 7.437500 15.937500 C7.604168 15.937500 7.911456 16.031249 8.359375 16.218750 C8.807294 16.406251 9.328122 16.619790 9.921875 16.859375 C10.515628 17.098960 11.119789 17.307291 11.734375 17.484375 C12.067710 17.578125 12.554684 17.671875 13.195312 17.765625 C13.835941 17.859375 14.364581 17.958333 14.781250 18.062500 L15.921875 18.343750 L16.390625 22.218750 C15.796872 22.218750 15.184899 22.226562 14.554688 22.242188 C13.924476 22.257813 13.270837 22.276042 12.593750 22.296875 C11.760413 22.328125 10.914067 22.348958 10.054688 22.359375 C9.195308 22.369792 8.333338 22.375000 7.468750 22.375000 Z M17.562500 24.531250 C17.416666 24.531250 17.307292 24.515625 17.234375 24.484375 C17.223958 24.442708 17.216146 24.398438 17.210938 24.351562 C17.205729 24.304687 17.203125 24.260417 17.203125 24.218750 C17.203125 23.989582 17.250000 23.778647 17.343750 23.585938 C17.437500 23.393228 17.552083 23.296875 17.687500 23.296875 C17.812501 23.296875 17.875000 23.380207 17.875000 23.546875 C17.875000 23.598959 17.867188 23.658854 17.851562 23.726562 C17.835937 23.794271 17.812500 23.869791 17.781250 23.953125 C17.916667 23.890625 18.052083 23.859375 18.187500 23.859375 C18.343751 23.859375 18.421875 23.916666 18.421875 24.031250 C18.421875 24.166667 18.333334 24.283854 18.156250 24.382812 C17.979166 24.481771 17.781251 24.531250 17.562500 24.531250 Z M21.781250 32.015625 C20.947912 31.817707 20.286461 31.531252 19.796875 31.156250 C19.307289 30.781248 19.062500 30.369794 19.062500 29.921875 C19.062500 29.463539 19.296873 29.088543 19.765625 28.796875 C20.234377 28.505207 20.828121 28.359375 21.546875 28.359375 L22.093750 30.687500 L24.734375 30.687500 L25.203125 28.781250 C25.807295 28.822917 26.518225 28.882812 27.335938 28.960938 C28.153650 29.039063 28.973954 29.119791 29.796875 29.203125 C30.619796 29.286459 31.328122 29.364583 31.921875 29.437500 L31.171875 31.625000 Z M24.171875 28.703125 C24.026041 28.703125 23.906250 28.596355 23.812500 28.382812 C23.718750 28.169270 23.671875 27.963543 23.671875 27.765625 C23.671875 27.651041 23.687500 27.546875 23.718750 27.453125 C23.989585 27.453125 24.257811 27.497395 24.523438 27.585938 C24.789064 27.674480 24.921875 27.807291 24.921875 27.984375 C24.921875 28.098959 24.833334 28.156250 24.656250 28.156250 C24.572916 28.156250 24.442709 28.125000 24.265625 28.062500 C24.328125 28.229168 24.359375 28.359375 24.359375 28.453125 C24.359375 28.619792 24.296876 28.703125 24.171875 28.703125 Z M21.828125 25.859375 C21.609374 25.859375 21.500000 25.791667 21.500000 25.656250 C21.500000 25.593750 21.536458 25.528646 21.609375 25.460938 C21.682292 25.393229 21.791666 25.322917 21.937500 25.250000 C21.791666 25.187500 21.682292 25.119792 21.609375 25.046875 C21.536458 24.973958 21.500000 24.911459 21.500000 24.859375 C21.500000 24.723958 21.609374 24.656250 21.828125 24.656250 C22.182293 24.656250 22.479165 24.854165 22.718750 25.250000 C22.468749 25.656252 22.171877 25.859375 21.828125 25.859375 Z M18.515625 21.453125 C18.296874 21.453125 18.096355 21.403646 17.914062 21.304688 C17.731770 21.205729 17.640625 21.088542 17.640625 20.953125 C17.640625 20.838541 17.718749 20.781250 17.875000 20.781250 C17.927084 20.781250 17.989583 20.786458 18.062500 20.796875 C18.135417 20.807292 18.208333 20.833333 18.281250 20.875000 C18.250000 20.791666 18.229167 20.716146 18.218750 20.648438 C18.208333 20.580729 18.203125 20.520834 18.203125 20.468750 C18.203125 20.312499 18.260416 20.234375 18.375000 20.234375 C18.520834 20.234375 18.638020 20.330728 18.726562 20.523438 C18.815105 20.716147 18.859375 20.921874 18.859375 21.140625 C18.859375 21.182292 18.859375 21.229166 18.859375 21.281250 C18.859375 21.333334 18.854167 21.380208 18.843750 21.421875 C18.791666 21.432292 18.736979 21.440104 18.679688 21.445312 C18.622396 21.450521 18.567709 21.453125 18.515625 21.453125 Z M7.093750 11.281250 C6.177079 11.281250 5.398441 10.960941 4.757812 10.320312 C4.117184 9.679684 3.796875 8.901046 3.796875 7.984375 C3.796875 7.078120 4.117184 6.304691 4.757812 5.664062 C5.398441 5.023434 6.177079 4.703125 7.093750 4.703125 C8.000005 4.703125 8.773434 5.023434 9.414062 5.664062 C10.054691 6.304691 10.375000 7.078120 10.375000 7.984375 C10.375000 8.901046 10.054691 9.679684 9.414062 10.320312 C8.773434 10.960941 8.000005 11.281250 7.093750 11.281250 Z M19.562500 21.906250 L19.140625 19.093750 C19.494793 19.104167 19.830728 19.135416 20.148438 19.187500 C20.466147 19.239584 20.765624 19.302083 21.046875 19.375000 L21.046875 21.906250 Z M2.750000 31.250000 L30.062500 31.250000 C30.385418 31.250000 30.664061 31.135418 30.898438 30.906250 C31.132814 30.677082 31.250000 30.406252 31.250000 30.093750 L31.250000 2.734375 C31.250000 2.421873 31.132814 2.148439 30.898438 1.914062 C30.664061 1.679686 30.390627 1.562500 30.078125 1.562500 L2.734375 1.562500 C2.421873 1.562500 2.148439 1.679686 1.914062 1.914062 C1.679686 2.148439 1.562500 2.421873 1.562500 2.734375 L1.562500 30.093750 C1.562500 30.406252 1.679686 30.677082 1.914062 30.906250 C2.148439 31.135418 2.427082 31.250000 2.750000 31.250000 Z M18.046875 18.140625 C17.828124 18.140625 17.718750 18.072917 17.718750 17.937500 C17.718750 17.875000 17.757812 17.809896 17.835938 17.742188 C17.914063 17.674479 18.026041 17.609375 18.171875 17.546875 C18.026041 17.473958 17.914063 17.403646 17.835938 17.335938 C17.757812 17.268229 17.718750 17.203125 17.718750 17.140625 C17.718750 17.005208 17.828124 16.937500 18.046875 16.937500 C18.390627 16.937500 18.687499 17.140623 18.937500 17.546875 C18.687499 17.942710 18.390627 18.140625 18.046875 18.140625 Z M24.078125 21.890625 C23.723957 21.890625 23.421876 21.687502 23.171875 21.281250 C23.442710 20.885415 23.744790 20.687500 24.078125 20.687500 C24.296876 20.687500 24.406250 20.749999 24.406250 20.875000 C24.406250 20.947917 24.367188 21.018229 24.289062 21.085938 C24.210937 21.153646 24.098959 21.223958 23.953125 21.296875 C24.098959 21.359375 24.210937 21.427083 24.289062 21.500000 C24.367188 21.572917 24.406250 21.635416 24.406250 21.687500 C24.406250 21.822917 24.296876 21.890625 24.078125 21.890625 Z M23.218750 31.750000 C22.333329 31.750000 21.682294 31.427087 21.265625 30.781250 C20.848956 30.135413 20.640625 29.015633 20.640625 27.421875 C19.598953 27.317708 18.651046 26.880212 17.796875 26.109375 C16.942704 25.338538 16.263023 24.315111 15.757812 23.039062 C15.252602 21.763014 15.000000 20.317716 15.000000 18.703125 C15.000000 17.255201 15.247393 16.135421 15.742188 15.343750 C16.236982 14.552079 16.880204 14.156250 17.671875 14.156250 C18.338545 14.156250 18.835936 14.445310 19.164062 15.023438 C19.492189 15.601565 19.656250 16.390620 19.656250 17.390625 C19.656250 17.557293 19.648438 17.848956 19.632812 18.265625 C19.617187 18.682294 19.601563 19.093748 19.585938 19.500000 C19.570312 19.906252 19.562500 20.182291 19.562500 20.328125 C19.562500 21.015628 19.653645 21.526040 19.835938 21.859375 C20.018230 22.192710 20.291665 22.406250 20.656250 22.500000 L20.656250 20.984375 C20.656250 20.411455 20.606771 19.674484 20.507812 18.773438 C20.408854 17.872391 20.307292 16.968755 20.203125 16.062500 C20.098958 15.156245 20.046875 14.406253 20.046875 13.812500 C20.046875 12.187492 20.322914 10.929692 20.875000 10.039062 C21.427086 9.148433 22.208328 8.703125 23.218750 8.703125 C24.177088 8.703125 24.921872 9.098954 25.453125 9.890625 C25.984378 10.682296 26.250000 11.796868 26.250000 13.234375 C26.250000 13.515626 26.226563 13.968747 26.179688 14.593750 C26.132812 15.218753 26.075521 15.898434 26.007812 16.632812 C25.940104 17.367191 25.882813 18.049476 25.835938 18.679688 C25.789062 19.309899 25.765625 19.776040 25.765625 20.078125 C25.911459 20.182292 26.057291 20.234375 26.203125 20.234375 C26.369792 20.234375 26.507812 20.151043 26.617188 19.984375 C26.726563 19.817708 26.781250 19.593751 26.781250 19.312500 C26.781250 19.083332 26.770833 18.750002 26.750000 18.312500 C26.729167 17.874998 26.708333 17.437502 26.687500 17.000000 C26.666667 16.562498 26.656250 16.239584 26.656250 16.031250 C26.656250 15.156246 26.822915 14.460940 27.156250 13.945312 C27.489585 13.429685 27.984372 13.171875 28.640625 13.171875 C29.411462 13.171875 29.958332 13.528642 30.281250 14.242188 C30.604168 14.955733 30.765625 16.046868 30.765625 17.515625 C30.765625 18.911465 30.588543 20.158849 30.234375 21.257812 C29.880207 22.356776 29.385420 23.223955 28.750000 23.859375 C28.114580 24.494795 27.375004 24.812500 26.531250 24.812500 C26.270832 24.812500 26.052084 24.781250 25.875000 24.718750 L25.875000 27.515625 C25.875000 28.994799 25.656252 30.070309 25.218750 30.742188 C24.781248 31.414066 24.114588 31.750000 23.218750 31.750000 Z M23.218750 30.812500 C23.791670 30.812500 24.195311 30.575523 24.429688 30.101562 C24.664064 29.627602 24.781250 28.765631 24.781250 27.515625 L24.781250 23.125000 C25.416670 23.520835 25.999997 23.718750 26.531250 23.718750 C27.166670 23.718750 27.731768 23.455732 28.226562 22.929688 C28.721357 22.403643 29.111978 21.674484 29.398438 20.742188 C29.684897 19.809891 29.828125 18.734381 29.828125 17.515625 C29.828125 16.286452 29.736980 15.437502 29.554688 14.968750 C29.372395 14.499998 29.067710 14.265625 28.640625 14.265625 C28.286457 14.265625 28.023438 14.398436 27.851562 14.664062 C27.679687 14.929689 27.593750 15.385413 27.593750 16.031250 C27.593750 16.197918 27.598958 16.424478 27.609375 16.710938 C27.619792 16.997397 27.635417 17.302082 27.656250 17.625000 C27.677083 17.947918 27.692708 18.260415 27.703125 18.562500 C27.713542 18.864585 27.718750 19.114582 27.718750 19.312500 C27.718750 19.843753 27.578126 20.286457 27.296875 20.640625 C27.015624 20.994793 26.651044 21.171875 26.203125 21.171875 C25.973957 21.171875 25.739585 21.111980 25.500000 20.992188 C25.260415 20.872395 25.036459 20.708334 24.828125 20.500000 C24.828125 20.229165 24.838542 19.846357 24.859375 19.351562 C24.880208 18.856768 24.906250 18.312503 24.937500 17.718750 C24.968750 17.124997 25.002604 16.533857 25.039062 15.945312 C25.075521 15.356768 25.104167 14.820315 25.125000 14.335938 C25.145833 13.851560 25.156250 13.484376 25.156250 13.234375 C25.156250 12.161453 24.979168 11.320316 24.625000 10.710938 C24.270832 10.101559 23.802086 9.796875 23.218750 9.796875 C22.593747 9.796875 22.091148 10.156246 21.710938 10.875000 C21.330727 11.593754 21.140625 12.572910 21.140625 13.812500 C21.140625 14.218752 21.164062 14.736976 21.210938 15.367188 C21.257813 15.997399 21.309896 16.664059 21.367188 17.367188 C21.424479 18.070316 21.476562 18.742184 21.523438 19.382812 C21.570313 20.023441 21.593750 20.557290 21.593750 20.984375 L21.593750 23.593750 C21.520833 23.604167 21.445313 23.611979 21.367188 23.617188 C21.289062 23.622396 21.208334 23.625000 21.125000 23.625000 C20.302079 23.625000 19.679690 23.341149 19.257812 22.773438 C18.835935 22.205726 18.625000 21.390630 18.625000 20.328125 C18.625000 20.171874 18.632812 19.885419 18.648438 19.468750 C18.664063 19.052081 18.679687 18.638023 18.695312 18.226562 C18.710938 17.815102 18.718750 17.536459 18.718750 17.390625 C18.718750 16.630205 18.632813 16.083335 18.460938 15.750000 C18.289062 15.416665 18.026043 15.250000 17.671875 15.250000 C17.203123 15.250000 16.848960 15.531247 16.609375 16.093750 C16.369790 16.656253 16.250000 17.526036 16.250000 18.703125 C16.250000 20.223966 16.463540 21.559890 16.890625 22.710938 C17.317710 23.861985 17.908850 24.760413 18.664062 25.406250 C19.419275 26.052087 20.286453 26.375000 21.265625 26.375000 L21.734375 26.375000 L21.734375 27.296875 C21.734375 28.203130 21.781250 28.911456 21.875000 29.421875 C21.968750 29.932294 22.124999 30.291666 22.343750 30.500000 C22.562501 30.708334 22.854165 30.812500 23.218750 30.812500 Z M17.562500 14.640625 C17.166665 14.401040 16.968750 14.104168 16.968750 13.750000 C16.968750 13.520832 17.036458 13.406250 17.171875 13.406250 C17.223959 13.406250 17.286458 13.445312 17.359375 13.523438 C17.432292 13.601563 17.500000 13.713541 17.562500 13.859375 C17.635417 13.713541 17.705729 13.601563 17.773438 13.523438 C17.841146 13.445312 17.906250 13.406250 17.968750 13.406250 C18.093751 13.406250 18.156250 13.520832 18.156250 13.750000 C18.156250 14.104168 17.958335 14.401040 17.562500 14.640625 Z M21.593750 18.375000 C21.437499 18.375000 21.322917 18.359375 21.250000 18.328125 C21.239583 18.286458 21.234375 18.242188 21.234375 18.195312 C21.234375 18.148437 21.234375 18.104167 21.234375 18.062500 C21.234375 17.833332 21.281250 17.622397 21.375000 17.429688 C21.468750 17.236978 21.583333 17.140625 21.718750 17.140625 C21.833334 17.140625 21.890625 17.223958 21.890625 17.390625 C21.890625 17.515626 21.864584 17.651041 21.812500 17.796875 C21.895834 17.755208 21.971354 17.729167 22.039062 17.718750 C22.106771 17.708333 22.166666 17.703125 22.218750 17.703125 C22.375001 17.703125 22.453125 17.760416 22.453125 17.875000 C22.453125 18.010417 22.359376 18.127604 22.171875 18.226562 C21.984374 18.325521 21.791668 18.375000 21.593750 18.375000 Z M27.734375 23.484375 C27.515624 23.484375 27.315105 23.434896 27.132812 23.335938 C26.950520 23.236979 26.859375 23.119792 26.859375 22.984375 C26.859375 22.869791 26.937499 22.812500 27.093750 22.812500 C27.145834 22.812500 27.208333 22.817708 27.281250 22.828125 C27.354167 22.838542 27.427083 22.864583 27.500000 22.906250 C27.468750 22.822916 27.447917 22.747396 27.437500 22.679688 C27.427083 22.611979 27.421875 22.552084 27.421875 22.500000 C27.421875 22.343749 27.479166 22.265625 27.593750 22.265625 C27.739584 22.265625 27.856770 22.361978 27.945312 22.554688 C28.033855 22.747397 28.078125 22.953124 28.078125 23.171875 C28.078125 23.213542 28.078125 23.260416 28.078125 23.312500 C28.078125 23.364584 28.072917 23.411458 28.062500 23.453125 C28.010416 23.463542 27.955729 23.471354 27.898438 23.476562 C27.841146 23.481771 27.786459 23.484375 27.734375 23.484375 Z M31.343750 26.109375 C30.677080 26.078125 30.114586 25.976563 29.656250 25.804688 C29.197914 25.632812 28.968750 25.432293 28.968750 25.203125 C28.968750 25.046874 29.127603 24.901042 29.445312 24.765625 C29.763022 24.630208 30.111977 24.520834 30.492188 24.437500 C30.872398 24.354166 31.156249 24.312500 31.343750 24.312500 Z M25.234375 20.484375 L25.296875 19.796875 C25.578126 19.796875 25.864582 19.802083 26.156250 19.812500 C26.447918 19.822917 26.739582 19.859375 27.031250 19.921875 L26.921875 20.484375 Z M29.546875 22.140625 L29.984375 20.578125 C30.296877 20.651042 30.632811 20.721354 30.992188 20.789062 C31.351564 20.856771 31.687498 20.890625 32.000000 20.890625 L32.000000 22.140625 Z M29.109375 19.421875 C28.963541 19.421875 28.854167 19.406250 28.781250 19.375000 C28.770833 19.333333 28.765625 19.289063 28.765625 19.242188 C28.765625 19.195312 28.765625 19.151042 28.765625 19.109375 C28.765625 18.880207 28.809895 18.669272 28.898438 18.476562 C28.986980 18.283853 29.104166 18.187500 29.250000 18.187500 C29.364584 18.187500 29.421875 18.270832 29.421875 18.437500 C29.421875 18.562501 29.395834 18.697916 29.343750 18.843750 C29.427084 18.802083 29.502604 18.776042 29.570312 18.765625 C29.638021 18.755208 29.697916 18.750000 29.750000 18.750000 C29.906251 18.750000 29.984375 18.807291 29.984375 18.921875 C29.984375 19.057292 29.890626 19.174479 29.703125 19.273438 C29.515624 19.372396 29.317709 19.421875 29.109375 19.421875 Z M23.843750 13.718750 C23.791666 13.718750 23.736979 13.716146 23.679688 13.710938 C23.622396 13.705729 23.567709 13.697917 23.515625 13.687500 C23.484375 13.593750 23.468750 13.489584 23.468750 13.375000 C23.468750 13.166666 23.518229 12.968751 23.617188 12.781250 C23.716146 12.593749 23.833333 12.500000 23.968750 12.500000 C24.093751 12.500000 24.156250 12.583333 24.156250 12.750000 C24.156250 12.854167 24.125000 12.984374 24.062500 13.140625 C24.145834 13.098958 24.221354 13.075521 24.289062 13.070312 C24.356771 13.065104 24.416666 13.062500 24.468750 13.062500 C24.625001 13.062500 24.703125 13.114583 24.703125 13.218750 C24.703125 13.364584 24.609376 13.484375 24.421875 13.578125 C24.234374 13.671875 24.041668 13.718750 23.843750 13.718750 Z M22.531250 9.218750 C22.093748 8.958332 21.875000 8.666668 21.875000 8.343750 C21.875000 8.104165 21.942708 7.984375 22.078125 7.984375 C22.151042 7.984375 22.226562 8.023437 22.304688 8.101562 C22.382813 8.179688 22.458333 8.302083 22.531250 8.468750 C22.604167 8.302083 22.679687 8.179688 22.757812 8.101562 C22.835938 8.023437 22.906250 7.984375 22.968750 7.984375 C23.114584 7.984375 23.187500 8.104165 23.187500 8.343750 C23.187500 8.666668 22.968752 8.958332 22.531250 9.218750 Z M27.796875 13.906250 C27.401040 13.677082 27.203125 13.380210 27.203125 13.015625 C27.203125 12.796874 27.270833 12.687500 27.406250 12.687500 C27.468750 12.687500 27.533854 12.723958 27.601562 12.796875 C27.669271 12.869792 27.734375 12.979166 27.796875 13.125000 C27.869792 12.979166 27.940104 12.869792 28.007812 12.796875 C28.075521 12.723958 28.140625 12.687500 28.203125 12.687500 C28.338542 12.687500 28.406250 12.796874 28.406250 13.015625 C28.406250 13.380210 28.203127 13.677082 27.796875 13.906250 Z M36.718750 27.343750" /></svg>