<svg version="1.1" xmlns="http://www.w3.org/2000/svg" style="fill:rgba(0,0,0,1.0)" width="256" height="256" viewBox="0 0 34.53125 32.8125"><path fill="rgb(255, 255, 255)" d="M14.234375 32.812500 C11.390611 32.812500 8.901052 32.536461 6.765625 31.984375 C4.630198 31.432289 2.968756 30.679692 1.781250 29.726562 C0.593744 28.773433 0.000000 27.692714 0.000000 26.484375 C0.000000 25.505203 0.432287 24.614587 1.296875 23.812500 C2.161463 23.010413 3.328118 22.343753 4.796875 21.812500 C6.265632 21.281247 7.906241 20.937501 9.718750 20.781250 L6.390625 22.890625 C5.463537 23.182293 4.661462 23.510415 3.984375 23.875000 C3.307288 24.239585 2.786460 24.638019 2.421875 25.070312 C2.057290 25.502606 1.875000 25.973956 1.875000 26.484375 C1.875000 27.109378 2.200518 27.697914 2.851562 28.250000 C3.502607 28.802086 4.398432 29.291665 5.539062 29.718750 C6.679693 30.145835 7.994784 30.481770 9.484375 30.726562 C10.973966 30.971355 12.557283 31.093750 14.234375 31.093750 C15.869800 31.093750 17.427076 30.971355 18.906250 30.726562 C20.385424 30.481770 21.700515 30.148440 22.851562 29.726562 C24.002610 29.304685 24.908851 28.815107 25.570312 28.257812 C26.231774 27.700518 26.562500 27.109378 26.562500 26.484375 C26.562500 25.901039 26.252607 25.330732 25.632812 24.773438 C25.013018 24.216143 24.156255 23.723960 23.062500 23.296875 C21.968745 22.869790 20.718757 22.562501 19.312500 22.375000 L19.093750 20.953125 C20.906259 21.130209 22.515618 21.486976 23.921875 22.023438 C25.328132 22.559899 26.432288 23.213538 27.234375 23.984375 C28.036462 24.755212 28.437500 25.588537 28.437500 26.484375 C28.437500 27.723965 27.835944 28.820308 26.632812 29.773438 C25.429681 30.726567 23.760427 31.471351 21.625000 32.007812 C19.489573 32.544274 17.026056 32.812500 14.234375 32.812500 Z M7.500000 29.531250 C6.916664 29.333332 6.229171 28.817712 5.437500 27.984375 C5.124998 27.651040 4.885418 27.421876 4.718750 27.296875 C4.552082 27.171874 4.348960 27.041667 4.109375 26.906250 C3.869790 26.770833 3.700521 26.664063 3.601562 26.585938 C3.502604 26.507812 3.411459 26.406251 3.328125 26.281250 L4.218750 25.687500 C4.458335 25.895834 4.729165 26.062499 5.031250 26.187500 C5.333335 26.312501 5.734372 26.661455 6.234375 27.234375 C6.817711 27.911462 7.354164 28.333332 7.843750 28.500000 Z M12.312500 18.250000 C11.499996 18.041666 10.867190 17.604170 10.414062 16.937500 C9.960935 16.270830 9.734375 15.479171 9.734375 14.562500 C9.734375 14.489583 9.734375 14.421875 9.734375 14.359375 C9.734375 14.296875 9.739583 14.229167 9.750000 14.156250 L6.796875 17.109375 C6.213539 16.151037 5.921875 15.062506 5.921875 13.843750 C5.921875 12.937495 6.109373 12.109379 6.484375 11.359375 C6.859377 10.609371 7.385413 9.979169 8.062500 9.468750 L4.875000 9.421875 C4.833333 9.213541 4.812500 8.979168 4.812500 8.718750 C4.812500 7.874996 5.041664 7.138024 5.500000 6.507812 C5.958336 5.877601 6.552080 5.388023 7.281250 5.039062 C8.010420 4.690102 8.781246 4.515625 9.593750 4.515625 C10.177086 4.515625 10.739581 4.609374 11.281250 4.796875 C11.270833 4.734375 11.265625 4.669271 11.265625 4.601562 C11.265625 4.533854 11.265625 4.468750 11.265625 4.406250 C11.265625 3.083327 11.684892 2.018233 12.523438 1.210938 C13.361983 0.403642 14.473951 -0.000000 15.859375 -0.000000 C16.119793 -0.000000 16.380207 0.015625 16.640625 0.046875 L16.296875 3.328125 C16.776044 2.932290 17.299476 2.625001 17.867188 2.406250 C18.434899 2.187499 19.020830 2.078125 19.625000 2.078125 C20.427087 2.078125 21.161455 2.283852 21.828125 2.695312 C22.494795 3.106773 22.999998 3.682288 23.343750 4.421875 L20.031250 6.781250 C21.322923 6.822917 22.356767 7.242184 23.132812 8.039062 C23.908858 8.835941 24.296875 9.874994 24.296875 11.156250 C24.296875 11.968754 24.166668 12.671872 23.906250 13.265625 L15.921875 10.984375 Z M17.375000 30.093750 L17.328125 28.984375 C17.484376 28.932291 17.658853 28.898438 17.851562 28.882812 C18.044272 28.867187 18.223958 28.859375 18.390625 28.859375 C19.390630 28.859375 20.145831 28.789063 20.656250 28.648438 C21.166669 28.507812 21.559894 28.322918 21.835938 28.093750 C22.111981 27.864582 22.380207 27.609376 22.640625 27.328125 C22.901043 27.046874 23.276039 26.760418 23.765625 26.468750 L24.265625 27.437500 C23.880206 27.656251 23.549481 27.906249 23.273438 28.187500 C22.997394 28.468751 22.684898 28.744790 22.335938 29.015625 C21.986977 29.286460 21.507816 29.510416 20.898438 29.687500 C20.289059 29.864584 19.453130 29.953125 18.390625 29.953125 C18.255208 29.953125 18.088543 29.963542 17.890625 29.984375 C17.692707 30.005208 17.520834 30.041666 17.375000 30.093750 Z M18.093750 20.390625 C17.708331 20.390625 17.341148 20.361979 16.992188 20.304688 C16.643227 20.247396 16.307293 20.161459 15.984375 20.046875 L16.328125 19.015625 C16.880211 19.203126 17.458330 19.296875 18.062500 19.296875 C18.479169 19.296875 18.906248 19.260417 19.343750 19.187500 L19.500000 20.281250 C19.249999 20.312500 19.007814 20.338542 18.773438 20.359375 C18.539061 20.380208 18.312501 20.390625 18.093750 20.390625 Z M16.531250 17.843750 L16.531250 16.750000 C17.093753 16.750000 17.575519 16.723959 17.976562 16.671875 C18.377606 16.619791 18.666666 16.552084 18.843750 16.468750 L19.343750 17.437500 C18.989582 17.614584 18.531253 17.726562 17.968750 17.773438 C17.406247 17.820313 16.927085 17.843750 16.531250 17.843750 Z M16.421875 15.390625 L16.421875 14.296875 C17.109378 14.296875 17.687498 14.135418 18.156250 13.812500 L18.781250 14.718750 C18.135413 15.166669 17.348963 15.390625 16.421875 15.390625 Z M17.640625 22.750000 C16.692704 22.750000 15.994794 22.643230 15.546875 22.429688 C15.098956 22.216145 14.875000 21.791670 14.875000 21.156250 C14.875000 20.885415 14.911458 20.617189 14.984375 20.351562 C15.057292 20.085936 15.140625 19.828126 15.234375 19.578125 C15.380209 19.192706 15.510416 18.770836 15.625000 18.312500 C15.739584 17.854164 15.796875 17.286462 15.796875 16.609375 C15.796875 15.838538 15.695314 15.096358 15.492188 14.382812 C15.289061 13.669267 14.947919 12.901046 14.468750 12.078125 L15.593750 11.500000 C16.104169 12.416671 16.473957 13.281246 16.703125 14.093750 C16.932293 14.906254 17.046875 15.744787 17.046875 16.609375 C17.046875 17.390629 16.976563 18.052081 16.835938 18.593750 C16.695312 19.135419 16.557292 19.598956 16.421875 19.984375 C16.307291 20.317710 16.229167 20.562499 16.187500 20.718750 C16.145833 20.875001 16.125000 21.020833 16.125000 21.156250 C16.125000 21.281251 16.195312 21.369791 16.335938 21.421875 C16.476563 21.473959 16.911455 21.500000 17.640625 21.500000 C17.973960 21.500000 18.249999 21.494792 18.468750 21.484375 C18.687501 21.473958 18.854166 21.453125 18.968750 21.421875 C18.968750 17.119770 18.166675 13.656263 16.562500 11.031250 L17.609375 10.359375 C19.348967 13.182306 20.218750 16.869769 20.218750 21.421875 C20.218750 21.963544 19.997398 22.320312 19.554688 22.492188 C19.111977 22.664063 18.473962 22.750000 17.640625 22.750000 Z M15.671875 13.265625 L15.671875 12.171875 C16.359378 12.171875 16.937498 12.005210 17.406250 11.671875 L18.031250 12.578125 C17.739582 12.776043 17.380210 12.940104 16.953125 13.070312 C16.526040 13.200521 16.098960 13.265625 15.671875 13.265625 Z M15.203125 10.703125 L13.171875 10.015625 C12.911457 9.921875 12.781250 9.755210 12.781250 9.515625 C12.781250 9.244790 12.927082 9.109375 13.218750 9.109375 C13.322917 9.109375 13.442708 9.135416 13.578125 9.187500 L14.718750 9.609375 L14.000000 8.328125 C13.927083 8.213541 13.890625 8.093751 13.890625 7.968750 C13.890625 7.687499 14.036457 7.546875 14.328125 7.546875 C14.505209 7.546875 14.651041 7.651041 14.765625 7.859375 L15.562500 9.281250 L15.750000 8.281250 C15.812500 7.937498 15.973957 7.765625 16.234375 7.765625 C16.359376 7.765625 16.466145 7.822916 16.554688 7.937500 C16.643230 8.052084 16.666667 8.203124 16.625000 8.390625 L16.265625 10.234375 Z M13.421875 24.781250 C13.015623 24.781250 12.674481 24.643231 12.398438 24.367188 C12.122394 24.091144 11.984375 23.755210 11.984375 23.359375 C11.984375 22.963540 12.122394 22.627606 12.398438 22.351562 C12.674481 22.075519 13.015623 21.937500 13.421875 21.937500 C13.817710 21.937500 14.153644 22.075519 14.429688 22.351562 C14.705731 22.627606 14.843750 22.963540 14.843750 23.359375 C14.843750 23.755210 14.705731 24.091144 14.429688 24.367188 C14.153644 24.643231 13.817710 24.781250 13.421875 24.781250 Z M14.046875 28.140625 C13.619790 28.140625 13.231773 28.054688 12.882812 27.882812 C12.533852 27.710937 12.182293 27.541668 11.828125 27.375000 C11.473957 27.208332 11.072919 27.125000 10.625000 27.125000 C10.281248 27.125000 9.885419 27.145833 9.437500 27.187500 C8.781247 27.250000 8.268231 27.221355 7.898438 27.101562 C7.528644 26.981770 7.177085 26.729169 6.843750 26.343750 C6.718749 26.197916 6.593751 26.067709 6.468750 25.953125 C6.343749 25.838541 6.143231 25.666668 5.867188 25.437500 C5.591144 25.208332 5.151045 24.854169 4.546875 24.375000 C5.244795 23.437495 6.114578 22.617191 7.156250 21.914062 C8.197922 21.210934 9.328119 20.661460 10.546875 20.265625 C11.765631 19.869790 12.979161 19.671875 14.187500 19.671875 C14.531252 19.671875 14.890623 19.682292 15.265625 19.703125 C15.640627 19.723958 16.036456 19.765625 16.453125 19.828125 L15.656250 21.125000 C15.270831 21.093750 14.848961 21.078125 14.390625 21.078125 C13.088535 21.078125 11.984380 21.210936 11.078125 21.476562 C10.171870 21.742189 9.375003 22.106769 8.687500 22.570312 C7.999997 23.033856 7.328128 23.562497 6.671875 24.156250 C6.973960 24.364584 7.221353 24.565103 7.414062 24.757812 C7.606772 24.950522 7.760416 25.114583 7.875000 25.250000 C8.062501 25.468751 8.252603 25.593750 8.445312 25.625000 C8.638022 25.656250 8.927081 25.656250 9.312500 25.625000 C9.489584 25.604167 9.687499 25.588542 9.906250 25.578125 C10.125001 25.567708 10.364582 25.562500 10.625000 25.562500 C11.125002 25.562500 11.591144 25.645832 12.023438 25.812500 C12.455731 25.979168 12.843748 26.148437 13.187500 26.320312 C13.531252 26.492188 13.817707 26.578125 14.046875 26.578125 C14.286460 26.578125 14.565103 26.489584 14.882812 26.312500 C15.200522 26.135416 15.562498 25.958334 15.968750 25.781250 C16.375002 25.604166 16.828122 25.515625 17.328125 25.515625 C17.546876 25.515625 17.822915 25.536458 18.156250 25.578125 C18.489585 25.619792 18.812498 25.656250 19.125000 25.687500 C19.437502 25.718750 19.671874 25.713542 19.828125 25.671875 C20.140627 25.588541 20.468748 25.377606 20.812500 25.039062 C21.156252 24.700519 21.463540 24.427084 21.734375 24.218750 C21.369790 23.822915 21.000002 23.453127 20.625000 23.109375 C20.249998 22.765623 19.833336 22.463543 19.375000 22.203125 L21.687500 22.453125 C22.166669 22.817710 22.580727 23.197915 22.929688 23.593750 C23.278648 23.989585 23.552082 24.416664 23.750000 24.875000 C23.208331 25.041668 22.783856 25.270832 22.476562 25.562500 C22.169269 25.854168 21.869793 26.145832 21.578125 26.437500 C21.286457 26.729168 20.885419 26.963541 20.375000 27.140625 C20.124999 27.223959 19.794273 27.257813 19.382812 27.242188 C18.971352 27.226562 18.572919 27.195313 18.187500 27.148438 C17.802081 27.101562 17.515626 27.078125 17.328125 27.078125 C16.880206 27.078125 16.494793 27.166666 16.171875 27.343750 C15.848957 27.520834 15.526043 27.697916 15.203125 27.875000 C14.880207 28.052084 14.494794 28.140625 14.046875 28.140625 Z M11.703125 16.312500 L15.171875 9.296875 L22.875000 11.515625 C22.885417 11.432291 22.890625 11.312501 22.890625 11.156250 C22.890625 10.229162 22.617190 9.502607 22.070312 8.976562 C21.523435 8.450518 20.770838 8.187500 19.812500 8.187500 C19.552082 8.187500 19.281251 8.208333 19.000000 8.250000 C18.718749 8.291667 18.432293 8.354166 18.140625 8.437500 L17.218750 7.062500 L21.375000 4.109375 C20.895831 3.692706 20.312503 3.484375 19.625000 3.484375 C18.999997 3.484375 18.403649 3.645832 17.835938 3.968750 C17.268226 4.291668 16.786460 4.729164 16.390625 5.281250 L14.718750 4.843750 L15.109375 1.296875 L15.609375 1.406250 C14.692704 1.447917 13.973961 1.736976 13.453125 2.273438 C12.932289 2.809899 12.671875 3.520829 12.671875 4.406250 C12.671875 4.697918 12.700521 4.963540 12.757812 5.203125 C12.815104 5.442710 12.895833 5.666666 13.000000 5.875000 L11.921875 6.750000 C11.578123 6.458332 11.203127 6.247396 10.796875 6.117188 C10.390623 5.986979 9.984377 5.921875 9.578125 5.921875 C8.755204 5.921875 8.010420 6.158852 7.343750 6.632812 C6.677080 7.106773 6.302084 7.729163 6.218750 8.500000 L6.078125 8.062500 L10.984375 8.062500 L10.984375 9.671875 C9.848953 9.932293 8.955732 10.429684 8.304688 11.164062 C7.653643 11.898441 7.328125 12.791661 7.328125 13.843750 C7.328125 14.093751 7.343750 14.328124 7.375000 14.546875 L10.875000 11.031250 L11.968750 11.906250 C11.697915 12.343752 11.492188 12.783852 11.351562 13.226562 C11.210937 13.669273 11.140625 14.114581 11.140625 14.562500 C11.140625 15.302087 11.328123 15.885415 11.703125 16.312500 Z M34.531250 27.343750" /></svg>