<svg version="1.1" xmlns="http://www.w3.org/2000/svg" style="fill:rgba(0,0,0,1.0)" width="256" height="256" viewBox="0 0 36.875 32.8125"><path fill="rgb(255, 255, 255)" d="M16.562500 32.812500 C14.187488 32.812500 11.992198 32.403650 9.976562 31.585938 C7.960927 30.768225 6.208341 29.619799 4.718750 28.140625 C3.229159 26.661451 2.070317 24.924489 1.242188 22.929688 C0.414058 20.934886 0.000000 18.760428 0.000000 16.406250 C0.000000 14.052072 0.414058 11.877614 1.242188 9.882812 C2.070317 7.888011 3.229159 6.151049 4.718750 4.671875 C6.208341 3.192701 7.960927 2.044275 9.976562 1.226562 C11.992198 0.408850 14.187488 -0.000000 16.562500 -0.000000 C18.937512 -0.000000 21.132802 0.408850 23.148438 1.226562 C25.164073 2.044275 26.916659 3.192701 28.406250 4.671875 C29.895841 6.151049 31.054683 7.888011 31.882812 9.882812 C32.710942 11.877614 33.125000 14.052072 33.125000 16.406250 C33.125000 18.760428 32.710942 20.934886 31.882812 22.929688 C31.054683 24.924489 29.895841 26.661451 28.406250 28.140625 C26.916659 29.619799 25.164073 30.768225 23.148438 31.585938 C21.132802 32.403650 18.937512 32.812500 16.562500 32.812500 Z M12.140625 27.078125 L11.140625 25.671875 C12.911467 24.390619 14.718741 23.750000 16.562500 23.750000 C18.406259 23.750000 20.213533 24.390619 21.984375 25.671875 L20.984375 27.078125 C19.515618 26.005203 18.041674 25.468750 16.562500 25.468750 C15.083326 25.468750 13.609382 26.005203 12.140625 27.078125 Z M6.687500 20.906250 L6.687500 19.187500 C8.020840 19.187500 9.208328 19.041668 10.250000 18.750000 C11.291672 18.458332 12.286454 17.989587 13.234375 17.343750 L14.203125 18.765625 C13.119786 19.494795 11.971360 20.033852 10.757812 20.382812 C9.544265 20.731773 8.187508 20.906250 6.687500 20.906250 Z M16.562500 31.093750 C18.677094 31.093750 20.627595 30.726566 22.414062 29.992188 C24.200530 29.257809 25.752598 28.231777 27.070312 26.914062 C28.388027 25.596348 29.414059 24.041676 30.148438 22.250000 C30.882816 20.458324 31.250000 18.510427 31.250000 16.406250 C31.250000 14.291656 30.882816 12.341155 30.148438 10.554688 C29.414059 8.768220 28.388027 7.216152 27.070312 5.898438 C25.752598 4.580723 24.200530 3.554691 22.414062 2.820312 C20.627595 2.085934 18.677094 1.718750 16.562500 1.718750 C14.458323 1.718750 12.513030 2.085934 10.726562 2.820312 C8.940095 3.554691 7.385423 4.580723 6.062500 5.898438 C4.739577 7.216152 3.710941 8.768220 2.976562 10.554688 C2.242184 12.341155 1.875000 14.291656 1.875000 16.406250 C1.875000 18.510427 2.242184 20.458324 2.976562 22.250000 C3.710941 24.041676 4.736973 25.596348 6.054688 26.914062 C7.372402 28.231777 8.927074 29.257809 10.718750 29.992188 C12.510426 30.726566 14.458323 31.093750 16.562500 31.093750 Z M26.437500 20.906250 C24.937492 20.906250 23.580735 20.731773 22.367188 20.382812 C21.153640 20.033852 20.005214 19.494795 18.921875 18.765625 L19.890625 17.343750 C20.848963 17.989587 21.846349 18.458332 22.882812 18.750000 C23.919276 19.041668 25.104160 19.187500 26.437500 19.187500 Z M36.875000 27.343750" /></svg>