<svg version="1.1" xmlns="http://www.w3.org/2000/svg" style="fill:rgba(0,0,0,1.0)" width="256" height="256" viewBox="0 0 36.484375 32.8125"><path fill="rgb(255, 255, 255)" d="M6.437500 23.406250 C5.229161 23.406250 4.138026 23.114586 3.164062 22.531250 C2.190099 21.947914 1.419274 21.135422 0.851562 20.093750 C0.283851 19.052078 0.000000 17.854173 0.000000 16.500000 C0.000000 14.854158 0.351559 13.440110 1.054688 12.257812 C1.757816 11.075515 2.744785 10.169274 4.015625 9.539062 C5.286465 8.908851 6.765617 8.593750 8.453125 8.593750 L19.234375 8.593750 C20.932300 8.593750 22.414056 8.908851 23.679688 9.539062 C24.945319 10.169274 25.929684 11.075515 26.632812 12.257812 C27.335941 13.440110 27.687500 14.854158 27.687500 16.500000 C27.687500 17.854173 27.403649 19.052078 26.835938 20.093750 C26.268226 21.135422 25.500005 21.947914 24.531250 22.531250 C23.562495 23.114586 22.468756 23.406250 21.250000 23.406250 C20.020827 23.406250 19.046879 23.244793 18.328125 22.921875 C17.609371 22.598957 17.054689 22.203127 16.664062 21.734375 C16.273436 21.265623 15.942710 20.812502 15.671875 20.375000 C15.411457 19.947915 15.156251 19.591147 14.906250 19.304688 C14.656249 19.018228 14.302086 18.875000 13.843750 18.875000 C13.395831 18.875000 13.044272 19.018228 12.789062 19.304688 C12.533853 19.591147 12.276043 19.947915 12.015625 20.375000 C11.744790 20.812502 11.414064 21.265623 11.023438 21.734375 C10.632811 22.203127 10.080733 22.598957 9.367188 22.921875 C8.653642 23.244793 7.677090 23.406250 6.437500 23.406250 Z M12.562500 32.812500 C11.739579 32.812500 11.328125 32.380213 11.328125 31.515625 L11.328125 28.781250 L12.734375 28.781250 L12.734375 31.359375 C12.734375 31.432292 12.752604 31.484375 12.789062 31.515625 C12.825521 31.546875 12.880208 31.562500 12.953125 31.562500 L14.765625 31.562500 C14.848959 31.562500 14.906250 31.546875 14.937500 31.515625 C14.968750 31.484375 14.984375 31.432292 14.984375 31.359375 L14.984375 28.781250 L16.390625 28.781250 L16.390625 31.515625 C16.390625 32.380213 15.979171 32.812500 15.156250 32.812500 Z M13.843750 29.593750 C12.427076 29.593750 11.289067 29.213545 10.429688 28.453125 C9.570308 27.692705 9.140625 26.578132 9.140625 25.109375 L18.578125 25.109375 C18.578125 26.578132 18.143234 27.692705 17.273438 28.453125 C16.403641 29.213545 15.260424 29.593750 13.843750 29.593750 Z M13.843750 28.187500 C14.510420 28.187500 15.119789 28.067710 15.671875 27.828125 C16.223961 27.588540 16.583332 27.151045 16.750000 26.515625 L10.968750 26.515625 C11.135418 27.151045 11.489581 27.588540 12.031250 27.828125 C12.572919 28.067710 13.177080 28.187500 13.843750 28.187500 Z M13.843750 24.203125 C12.833328 24.203125 11.856776 24.078126 10.914062 23.828125 C9.971349 23.578124 9.213545 23.203128 8.640625 22.703125 L9.671875 21.515625 C10.098960 21.880210 10.690100 22.156249 11.445312 22.343750 C12.200525 22.531251 12.999996 22.625000 13.843750 22.625000 C14.687504 22.625000 15.489580 22.531251 16.250000 22.343750 C17.010420 22.156249 17.598956 21.880210 18.015625 21.515625 L19.046875 22.703125 C18.473955 23.203128 17.718755 23.578124 16.781250 23.828125 C15.843745 24.078126 14.864588 24.203125 13.843750 24.203125 Z M6.437500 21.843750 C7.281254 21.843750 7.960935 21.721355 8.476562 21.476562 C8.992190 21.231770 9.416665 20.919273 9.750000 20.539062 C10.083335 20.158852 10.385415 19.770835 10.656250 19.375000 C11.020835 18.843747 11.421873 18.367190 11.859375 17.945312 C12.296877 17.523435 12.958329 17.312500 13.843750 17.312500 C14.729171 17.312500 15.393227 17.523435 15.835938 17.945312 C16.278648 18.367190 16.677082 18.843747 17.031250 19.375000 C17.302085 19.770835 17.604165 20.158852 17.937500 20.539062 C18.270835 20.919273 18.697914 21.231770 19.218750 21.476562 C19.739586 21.721355 20.416662 21.843750 21.250000 21.843750 C22.166671 21.843750 22.992184 21.622398 23.726562 21.179688 C24.460941 20.736977 25.044269 20.114587 25.476562 19.312500 C25.908856 18.510413 26.125000 17.572922 26.125000 16.500000 C26.125000 14.458323 25.505215 12.890630 24.265625 11.796875 C23.026035 10.703120 21.348969 10.156250 19.234375 10.156250 L8.453125 10.156250 C6.348948 10.156250 4.674485 10.703120 3.429688 11.796875 C2.184890 12.890630 1.562500 14.458323 1.562500 16.500000 C1.562500 17.572922 1.778644 18.510413 2.210938 19.312500 C2.643231 20.114587 3.226559 20.736977 3.960938 21.179688 C4.695316 21.622398 5.520829 21.843750 6.437500 21.843750 Z M6.593750 20.593750 C5.510411 20.593750 4.635420 20.195316 3.968750 19.398438 C3.302080 18.601559 2.968750 17.630214 2.968750 16.484375 C2.968750 14.838533 3.463537 13.580734 4.453125 12.710938 C5.442713 11.841141 6.822908 11.406250 8.593750 11.406250 L19.093750 11.406250 C20.864592 11.406250 22.244787 11.841141 23.234375 12.710938 C24.223963 13.580734 24.718750 14.838533 24.718750 16.484375 C24.718750 17.630214 24.385420 18.601559 23.718750 19.398438 C23.052080 20.195316 22.177089 20.593750 21.093750 20.593750 C20.177079 20.593750 19.432295 20.333336 18.859375 19.812500 C18.286455 19.291664 17.739586 18.697920 17.218750 18.031250 C16.854165 17.552081 16.526043 17.169272 16.234375 16.882812 C15.942707 16.596353 15.617189 16.388021 15.257812 16.257812 C14.898436 16.127604 14.427086 16.062500 13.843750 16.062500 C13.270830 16.062500 12.804689 16.127604 12.445312 16.257812 C12.085936 16.388021 11.763022 16.596353 11.476562 16.882812 C11.190103 17.169272 10.854169 17.552081 10.468750 18.031250 C9.937497 18.697920 9.390628 19.291664 8.828125 19.812500 C8.265622 20.333336 7.520838 20.593750 6.593750 20.593750 Z M6.593750 19.343750 C7.166670 19.343750 7.645831 19.166668 8.031250 18.812500 C8.416669 18.458332 8.838539 17.973961 9.296875 17.359375 C9.671877 16.859372 10.044269 16.419273 10.414062 16.039062 C10.783856 15.658852 11.234372 15.359376 11.765625 15.140625 C12.296878 14.921874 12.989579 14.812500 13.843750 14.812500 C14.708338 14.812500 15.403643 14.921874 15.929688 15.140625 C16.455732 15.359376 16.903644 15.658852 17.273438 16.039062 C17.643231 16.419273 18.015623 16.859372 18.390625 17.359375 C18.848961 17.973961 19.270831 18.458332 19.656250 18.812500 C20.041669 19.166668 20.520830 19.343750 21.093750 19.343750 C21.812504 19.343750 22.388019 19.067711 22.820312 18.515625 C23.252606 17.963539 23.468750 17.286462 23.468750 16.484375 C23.468750 13.932279 22.010431 12.656250 19.093750 12.656250 L8.593750 12.656250 C5.677069 12.656250 4.218750 13.932279 4.218750 16.484375 C4.218750 17.286462 4.434894 17.963539 4.867188 18.515625 C5.299481 19.067711 5.874996 19.343750 6.593750 19.343750 Z M16.031250 32.140625 L16.031250 30.578125 L21.578125 30.578125 C23.255217 30.578125 24.723952 30.223962 25.984375 29.515625 C27.244798 28.807288 28.229163 27.815111 28.937500 26.539062 C29.645837 25.263014 30.000000 23.786467 30.000000 22.109375 L30.000000 18.609375 L31.562500 18.609375 L31.562500 22.109375 C31.562500 24.078135 31.140629 25.817701 30.296875 27.328125 C29.453121 28.838549 28.281258 30.018225 26.781250 30.867188 C25.281242 31.716150 23.546885 32.140625 21.578125 32.140625 Z M16.031250 29.328125 L16.031250 27.765625 L21.578125 27.765625 C23.317717 27.765625 24.687495 27.260422 25.687500 26.250000 C26.687505 25.239578 27.187500 23.859384 27.187500 22.109375 L27.187500 18.609375 L28.750000 18.609375 L28.750000 22.109375 C28.750000 23.557299 28.453128 24.822911 27.859375 25.906250 C27.265622 26.989589 26.432297 27.830726 25.359375 28.429688 C24.286453 29.028649 23.026049 29.328125 21.578125 29.328125 Z M28.328125 19.234375 C27.046869 19.234375 26.406250 18.593756 26.406250 17.312500 L26.406250 15.656250 C26.406250 14.374994 27.046869 13.734375 28.328125 13.734375 L30.421875 13.734375 C31.703131 13.734375 32.343750 14.374994 32.343750 15.656250 L32.343750 17.312500 C32.343750 18.593756 31.703131 19.234375 30.421875 19.234375 Z M28.515625 17.671875 L30.234375 17.671875 C30.453126 17.671875 30.598958 17.630209 30.671875 17.546875 C30.744792 17.463541 30.781250 17.302085 30.781250 17.062500 L30.781250 15.906250 C30.781250 15.666665 30.744792 15.505209 30.671875 15.421875 C30.598958 15.338541 30.453126 15.296875 30.234375 15.296875 L28.515625 15.296875 C28.296874 15.296875 28.151042 15.338541 28.078125 15.421875 C28.005208 15.505209 27.968750 15.666665 27.968750 15.906250 L27.968750 17.062500 C27.968750 17.302085 28.005208 17.463541 28.078125 17.546875 C28.151042 17.630209 28.296874 17.671875 28.515625 17.671875 Z M27.187500 14.437500 L27.187500 6.031250 L28.750000 6.031250 L28.750000 14.437500 Z M30.000000 14.437500 L30.000000 6.031250 L31.562500 6.031250 L31.562500 14.437500 Z M28.328125 6.906250 C27.046869 6.906250 26.406250 6.265631 26.406250 4.984375 L26.406250 1.921875 C26.406250 0.640619 27.046869 -0.000000 28.328125 -0.000000 L30.421875 -0.000000 C31.703131 -0.000000 32.343750 0.640619 32.343750 1.921875 L32.343750 4.984375 C32.343750 6.265631 31.703131 6.906250 30.421875 6.906250 Z M28.515625 5.343750 L30.234375 5.343750 C30.453126 5.343750 30.598958 5.302084 30.671875 5.218750 C30.744792 5.135416 30.781250 4.973960 30.781250 4.734375 L30.781250 2.171875 C30.781250 1.932290 30.744792 1.770834 30.671875 1.687500 C30.598958 1.604166 30.453126 1.562500 30.234375 1.562500 L28.515625 1.562500 C28.296874 1.562500 28.151042 1.604166 28.078125 1.687500 C28.005208 1.770834 27.968750 1.932290 27.968750 2.171875 L27.968750 4.734375 C27.968750 4.973960 28.005208 5.135416 28.078125 5.218750 C28.151042 5.302084 28.296874 5.343750 28.515625 5.343750 Z M36.484375 27.343750" /></svg>