<svg version="1.1" xmlns="http://www.w3.org/2000/svg" style="fill:rgba(0,0,0,1.0)" width="256" height="256" viewBox="0 0 36.09375 32.8125"><path fill="rgb(255, 255, 255)" d="M13.859375 32.812500 C11.973949 32.812500 10.197925 32.500003 8.531250 31.875000 C6.864575 31.249997 5.390631 30.380214 4.109375 29.265625 C2.828119 28.151036 1.822920 26.848966 1.093750 25.359375 C0.364580 23.869784 0.000000 22.260425 0.000000 20.531250 C0.000000 18.937492 0.533849 17.518235 1.601562 16.273438 C2.669276 15.028640 4.166657 14.052087 6.093750 13.343750 C8.020843 12.635413 10.260404 12.281250 12.812500 12.281250 C14.447925 12.281250 16.088533 12.447915 17.734375 12.781250 C19.380217 13.114585 21.057283 13.598955 22.765625 14.234375 L22.359375 16.031250 C20.692700 15.322913 19.104174 14.807293 17.593750 14.484375 C16.083326 14.161457 14.505217 14.000000 12.859375 14.000000 C11.265617 14.000000 9.799486 14.156248 8.460938 14.468750 C7.122389 14.781252 5.960942 15.218747 4.976562 15.781250 C3.992183 16.343753 3.229169 17.007809 2.687500 17.773438 C2.145831 18.539066 1.875000 19.374995 1.875000 20.281250 C1.875000 21.218755 2.127602 22.057288 2.632812 22.796875 C3.138023 23.536462 3.812496 24.177081 4.656250 24.718750 C5.500004 25.260419 6.440099 25.710936 7.476562 26.070312 C8.513026 26.429689 9.565099 26.695312 10.632812 26.867188 C11.700526 27.039063 12.708329 27.125000 13.656250 27.125000 C15.541676 27.125000 17.481761 26.789066 19.476562 26.117188 C21.471364 25.445309 23.367179 24.453132 25.164062 23.140625 C26.960946 21.828118 28.505202 20.223968 29.796875 18.328125 C30.015626 18.671877 30.171875 18.994790 30.265625 19.296875 C30.359375 19.598960 30.406250 19.890624 30.406250 20.171875 C30.406250 20.671878 30.252606 21.140623 29.945312 21.578125 C29.638019 22.015627 29.255211 22.447915 28.796875 22.875000 C28.161455 23.479170 27.638023 24.020831 27.226562 24.500000 C26.815102 24.979169 26.427085 25.458331 26.062500 25.937500 C24.895828 27.458341 23.726568 28.729162 22.554688 29.750000 C21.382807 30.770838 20.101569 31.536456 18.710938 32.046875 C17.320306 32.557294 15.703134 32.812500 13.859375 32.812500 Z M4.718750 23.796875 C4.135414 23.796875 3.843750 23.572919 3.843750 23.125000 C3.843750 22.937499 3.921874 22.776042 4.078125 22.640625 C4.234376 22.505208 4.421874 22.437500 4.640625 22.437500 C5.223961 22.437500 5.515625 22.661456 5.515625 23.109375 C5.515625 23.296876 5.437501 23.458333 5.281250 23.593750 C5.124999 23.729167 4.937501 23.796875 4.718750 23.796875 Z M7.312500 25.500000 C7.062499 25.500000 6.854168 25.432292 6.687500 25.296875 C6.520832 25.161458 6.437500 24.963543 6.437500 24.703125 C6.437500 24.463540 6.523437 24.291667 6.695312 24.187500 C6.867188 24.083333 7.067707 24.031250 7.296875 24.031250 C7.536460 24.031250 7.739582 24.091145 7.906250 24.210938 C8.072918 24.330730 8.156250 24.515624 8.156250 24.765625 C8.156250 25.255211 7.875003 25.500000 7.312500 25.500000 Z M3.343750 20.859375 C2.749997 20.859375 2.453125 20.645835 2.453125 20.218750 C2.453125 19.770831 2.755205 19.546875 3.359375 19.546875 C3.901044 19.546875 4.171875 19.760415 4.171875 20.187500 C4.171875 20.635419 3.895836 20.859375 3.343750 20.859375 Z M10.968750 26.453125 C10.708332 26.453125 10.489584 26.388021 10.312500 26.257812 C10.135416 26.127604 10.046875 25.958334 10.046875 25.750000 C10.046875 25.239581 10.354164 24.984375 10.968750 24.984375 C11.260418 24.984375 11.494791 25.049479 11.671875 25.179688 C11.848959 25.309896 11.937500 25.479166 11.937500 25.687500 C11.937500 25.947918 11.846355 26.140624 11.664062 26.265625 C11.481770 26.390626 11.250001 26.453125 10.968750 26.453125 Z M4.484375 18.093750 C4.078123 18.093750 3.875000 17.895835 3.875000 17.500000 C3.875000 17.260415 3.968749 17.075521 4.156250 16.945312 C4.343751 16.815104 4.562499 16.750000 4.812500 16.750000 C5.031251 16.750000 5.197916 16.812499 5.312500 16.937500 C5.427084 17.062501 5.484375 17.208332 5.484375 17.375000 C5.484375 17.614585 5.369793 17.794270 5.140625 17.914062 C4.911457 18.033855 4.692709 18.093750 4.484375 18.093750 Z M14.796875 26.625000 C14.494790 26.625000 14.263022 26.557292 14.101562 26.421875 C13.940103 26.286458 13.859375 26.125001 13.859375 25.937500 C13.859375 25.749999 13.934895 25.575522 14.085938 25.414062 C14.236980 25.252603 14.473957 25.171875 14.796875 25.171875 C15.130210 25.171875 15.367187 25.255208 15.507812 25.421875 C15.648438 25.588542 15.718750 25.760416 15.718750 25.937500 C15.718750 26.114584 15.638022 26.273437 15.476562 26.414062 C15.315103 26.554688 15.088543 26.625000 14.796875 26.625000 Z M7.046875 16.515625 C6.828124 16.515625 6.661459 16.455730 6.546875 16.335938 C6.432291 16.216145 6.375000 16.083334 6.375000 15.937500 C6.375000 15.708332 6.473957 15.539063 6.671875 15.429688 C6.869793 15.320312 7.067707 15.265625 7.265625 15.265625 C7.463543 15.265625 7.630208 15.320312 7.765625 15.429688 C7.901042 15.539063 7.968750 15.697916 7.968750 15.906250 C7.968750 16.114584 7.859376 16.268229 7.640625 16.367188 C7.421874 16.466146 7.223959 16.515625 7.046875 16.515625 Z M18.937500 25.781250 C18.708332 25.781250 18.539063 25.716146 18.429688 25.585938 C18.320312 25.455729 18.265625 25.307292 18.265625 25.140625 C18.265625 24.880207 18.395832 24.677084 18.656250 24.531250 C18.916668 24.385416 19.166665 24.312500 19.406250 24.312500 C19.885419 24.312500 20.125000 24.510415 20.125000 24.906250 C20.125000 25.197918 19.992189 25.416666 19.726562 25.562500 C19.460936 25.708334 19.197918 25.781250 18.937500 25.781250 Z M14.046875 23.031250 C15.411465 23.031250 16.697911 22.882814 17.906250 22.585938 C19.114589 22.289061 20.187495 21.908856 21.125000 21.445312 C22.062505 20.981769 22.796872 20.505211 23.328125 20.015625 C22.223953 19.505206 21.036465 19.093752 19.765625 18.781250 C18.494785 18.468748 17.242194 18.236980 16.007812 18.085938 C14.773431 17.934895 13.645838 17.859375 12.625000 17.859375 C10.718740 17.859375 9.242193 18.054686 8.195312 18.445312 C7.148432 18.835939 6.625000 19.432288 6.625000 20.234375 C6.625000 20.817711 6.942705 21.317706 7.578125 21.734375 C8.213545 22.151044 9.088536 22.471353 10.203125 22.695312 C11.317714 22.919272 12.598951 23.031250 14.046875 23.031250 Z M10.171875 15.828125 C9.973957 15.828125 9.804688 15.776042 9.664062 15.671875 C9.523437 15.567708 9.453125 15.427084 9.453125 15.250000 C9.453125 15.041666 9.539062 14.882813 9.710938 14.773438 C9.882813 14.664062 10.083332 14.609375 10.312500 14.609375 C10.520834 14.609375 10.697916 14.661458 10.843750 14.765625 C10.989584 14.869792 11.062500 15.026041 11.062500 15.234375 C11.062500 15.463543 10.960939 15.619791 10.757812 15.703125 C10.554686 15.786459 10.359376 15.828125 10.171875 15.828125 Z M13.968750 24.750000 C12.072907 24.750000 10.434903 24.544273 9.054688 24.132812 C7.674472 23.721352 6.611983 23.174483 5.867188 22.492188 C5.122392 21.809892 4.750000 21.062504 4.750000 20.250000 C4.750000 18.989577 5.460930 17.989587 6.882812 17.250000 C8.304695 16.510413 10.218738 16.140625 12.625000 16.140625 C14.395842 16.140625 16.408843 16.445309 18.664062 17.054688 C20.919282 17.664066 23.374987 18.520828 26.031250 19.625000 L26.031250 20.000000 C24.197908 21.416674 22.320322 22.562496 20.398438 23.437500 C18.476553 24.312504 16.333345 24.750000 13.968750 24.750000 Z M13.500000 15.703125 C13.249999 15.703125 13.044272 15.651042 12.882812 15.546875 C12.721353 15.442708 12.640625 15.291668 12.640625 15.093750 C12.640625 14.916666 12.716145 14.765626 12.867188 14.640625 C13.018230 14.515624 13.223957 14.453125 13.484375 14.453125 C14.057295 14.453125 14.343750 14.661456 14.343750 15.078125 C14.343750 15.494794 14.062503 15.703125 13.500000 15.703125 Z M22.359375 24.296875 C21.963540 24.296875 21.765625 24.114585 21.765625 23.750000 C21.765625 23.499999 21.882811 23.302084 22.117188 23.156250 C22.351564 23.010416 22.567707 22.937500 22.765625 22.937500 C22.953126 22.937500 23.096354 22.997395 23.195312 23.117188 C23.294271 23.236980 23.343750 23.364583 23.343750 23.500000 C23.343750 23.697918 23.236980 23.880208 23.023438 24.046875 C22.809895 24.213543 22.588543 24.296875 22.359375 24.296875 Z M16.765625 16.031250 C16.119788 16.031250 15.796875 15.822919 15.796875 15.406250 C15.796875 15.187499 15.877603 15.033855 16.039062 14.945312 C16.200522 14.856770 16.374999 14.812500 16.562500 14.812500 C16.833335 14.812500 17.062499 14.861979 17.250000 14.960938 C17.437501 15.059896 17.531250 15.213541 17.531250 15.421875 C17.531250 15.651043 17.455730 15.809895 17.304688 15.898438 C17.153645 15.986980 16.973959 16.031250 16.765625 16.031250 Z M19.812500 16.843750 C19.593749 16.843750 19.377605 16.789063 19.164062 16.679688 C18.950520 16.570312 18.843750 16.406251 18.843750 16.187500 C18.843750 15.802081 19.062498 15.609375 19.500000 15.609375 C19.770835 15.609375 19.994791 15.666666 20.171875 15.781250 C20.348959 15.895834 20.437500 16.057291 20.437500 16.265625 C20.437500 16.651044 20.229169 16.843750 19.812500 16.843750 Z M25.156250 22.390625 C25.020833 22.390625 24.898438 22.341146 24.789062 22.242188 C24.679687 22.143229 24.625000 22.026042 24.625000 21.890625 C24.625000 21.682291 24.731770 21.489584 24.945312 21.312500 C25.158855 21.135416 25.369791 21.046875 25.578125 21.046875 C25.921877 21.046875 26.093750 21.218748 26.093750 21.562500 C26.093750 21.791668 25.981772 21.986978 25.757812 22.148438 C25.533853 22.309897 25.333334 22.390625 25.156250 22.390625 Z M25.406250 18.203125 C25.333333 17.963540 25.278646 17.718751 25.242188 17.468750 C25.205729 17.218749 25.187500 16.963543 25.187500 16.703125 C25.187500 16.161456 25.291666 15.539066 25.500000 14.835938 C25.708334 14.132809 26.072914 13.276047 26.593750 12.265625 C27.125003 13.307297 27.494791 14.177080 27.703125 14.875000 C27.911459 15.572920 28.015625 16.182289 28.015625 16.703125 C28.015625 16.973960 27.994792 17.231770 27.953125 17.476562 C27.911458 17.721355 27.854167 17.963540 27.781250 18.203125 C28.010418 18.046874 28.263019 17.838543 28.539062 17.578125 C28.815106 17.317707 29.054686 16.968752 29.257812 16.531250 C29.460939 16.093748 29.562500 15.536462 29.562500 14.859375 C29.562500 14.494790 29.526042 14.091148 29.453125 13.648438 C29.380208 13.205727 29.255209 12.718753 29.078125 12.187500 L26.578125 4.468750 L24.078125 12.187500 C23.911458 12.708336 23.791667 13.184894 23.718750 13.617188 C23.645833 14.049481 23.609375 14.447915 23.609375 14.812500 C23.609375 15.500003 23.713541 16.065102 23.921875 16.507812 C24.130209 16.950523 24.374999 17.304686 24.656250 17.570312 C24.937501 17.835939 25.187499 18.046874 25.406250 18.203125 Z M26.562500 20.140625 C25.083326 20.140625 23.890630 19.674484 22.984375 18.742188 C22.078120 17.809891 21.625000 16.541675 21.625000 14.937500 C21.625000 14.406247 21.679687 13.841149 21.789062 13.242188 C21.898438 12.643226 22.067707 12.020837 22.296875 11.375000 L26.359375 -0.000000 L26.796875 -0.000000 L30.875000 11.375000 C31.333336 12.645840 31.562500 13.833328 31.562500 14.937500 C31.562500 16.541675 31.104171 17.809891 30.187500 18.742188 C29.270829 19.674484 28.062508 20.140625 26.562500 20.140625 Z M36.093750 27.343750" /></svg>