<svg version="1.1" xmlns="http://www.w3.org/2000/svg" style="fill:rgba(0,0,0,1.0)" width="256" height="256" viewBox="0 0 35.9375 32.8125"><path fill="rgb(255, 255, 255)" d="M13.296875 32.812500 C12.786456 32.812500 12.401043 32.671876 12.140625 32.390625 C11.880207 32.109374 11.750000 31.744794 11.750000 31.296875 C11.750000 30.953123 11.815104 30.601564 11.945312 30.242188 C12.075521 29.882811 12.140625 29.432294 12.140625 28.890625 C12.140625 28.276039 12.200520 27.713544 12.320312 27.203125 C12.440105 26.692706 12.630207 26.250002 12.890625 25.875000 C12.661457 25.604165 12.434897 25.281252 12.210938 24.906250 C11.986978 24.531248 11.734376 24.052086 11.453125 23.468750 C11.182290 22.895830 10.893231 22.372398 10.585938 21.898438 C10.278644 21.424477 10.125000 21.026043 10.125000 20.703125 C10.125000 20.338540 10.346352 20.039064 10.789062 19.804688 C11.231773 19.570311 11.796872 19.453125 12.484375 19.453125 C13.671881 19.453125 14.734370 19.723956 15.671875 20.265625 C16.609380 20.807294 17.286456 21.541662 17.703125 22.468750 C18.036460 22.291666 18.328124 22.091147 18.578125 21.867188 C18.828126 21.643228 19.010416 21.432293 19.125000 21.234375 C19.187500 20.953124 19.236979 20.656252 19.273438 20.343750 C19.309896 20.031248 19.328125 19.734376 19.328125 19.453125 C19.328125 18.140618 18.890629 17.158857 18.015625 16.507812 C17.140621 15.856768 15.739593 15.531250 13.812500 15.531250 C13.395831 15.531250 12.942711 15.546875 12.453125 15.578125 C11.963539 15.609375 11.427086 15.651041 10.843750 15.703125 C8.833323 16.932298 7.231777 17.812497 6.039062 18.343750 C4.846348 18.875003 3.848962 19.140625 3.046875 19.140625 C1.984370 19.140625 1.210940 18.859378 0.726562 18.296875 C0.242185 17.734372 0.000000 17.088545 0.000000 16.359375 C0.000000 15.901039 0.104166 15.486981 0.312500 15.117188 C0.520834 14.747394 0.765624 14.416668 1.046875 14.125000 C1.328126 13.833332 1.572916 13.578126 1.781250 13.359375 C1.989584 13.140624 2.093750 12.958334 2.093750 12.812500 C2.093750 12.666666 2.018230 12.455731 1.867188 12.179688 C1.716145 11.903644 1.565105 11.539065 1.414062 11.085938 C1.263020 10.632810 1.187500 10.072920 1.187500 9.406250 C1.187500 8.135410 1.513018 6.934901 2.164062 5.804688 C2.815107 4.674474 3.710932 3.674484 4.851562 2.804688 C5.992193 1.934891 7.302076 1.250003 8.781250 0.750000 C10.260424 0.249997 11.828117 -0.000000 13.484375 -0.000000 C15.192717 -0.000000 16.890617 0.234373 18.578125 0.703125 C20.265633 1.171877 21.864576 1.859370 23.375000 2.765625 C23.687502 2.692708 24.023436 2.638021 24.382812 2.601562 C24.742189 2.565104 25.083332 2.546875 25.406250 2.546875 C26.385422 2.546875 27.320308 2.716144 28.210938 3.054688 C29.101567 3.393231 29.830726 3.833331 30.398438 4.375000 C30.966149 4.916669 31.250000 5.484372 31.250000 6.078125 C31.250000 6.526044 31.075523 6.924477 30.726562 7.273438 C30.377602 7.622398 29.973961 7.864583 29.515625 8.000000 C28.994789 8.145834 28.640626 8.341145 28.453125 8.585938 C28.265624 8.830730 28.171875 9.130207 28.171875 9.484375 C28.171875 9.942711 28.192708 10.338540 28.234375 10.671875 C28.276042 11.005210 28.333333 11.348957 28.406250 11.703125 C28.489584 12.078127 28.559896 12.492185 28.617188 12.945312 C28.674479 13.398440 28.703125 13.947913 28.703125 14.593750 C28.703125 16.510426 28.286463 18.330721 27.453125 20.054688 C26.619788 21.778654 25.460945 23.291660 23.976562 24.593750 C22.492180 25.895840 20.765635 26.880205 18.796875 27.546875 C18.546874 28.598964 18.138024 29.520829 17.570312 30.312500 C17.002601 31.104171 16.346358 31.718748 15.601562 32.156250 C14.856767 32.593752 14.088546 32.812500 13.296875 32.812500 Z M1.531250 17.531250 L1.031250 16.390625 C2.520841 15.869789 3.880202 15.210941 5.109375 14.414062 C6.338548 13.617184 7.494786 12.661464 8.578125 11.546875 L9.453125 12.421875 C8.338536 13.588548 7.127611 14.596350 5.820312 15.445312 C4.513014 16.294275 3.083341 16.989581 1.531250 17.531250 Z M16.812500 19.140625 C15.999996 19.140625 15.184900 18.916669 14.367188 18.468750 C13.549475 18.020831 12.848961 17.450524 12.265625 16.757812 C11.682289 16.065101 11.322917 15.348962 11.187500 14.609375 L16.312500 14.609375 C16.312500 15.088544 16.341146 15.541665 16.398438 15.968750 C16.455729 16.395835 16.536458 16.749999 16.640625 17.031250 C16.807292 17.447919 16.994791 17.778645 17.203125 18.023438 C17.411459 18.268230 17.515625 18.510415 17.515625 18.750000 C17.515625 19.010418 17.281252 19.140625 16.812500 19.140625 Z M14.000000 30.906250 C14.281251 30.906250 14.609373 30.752606 14.984375 30.445312 C15.359377 30.138019 15.729165 29.742190 16.093750 29.257812 C16.458335 28.773435 16.770832 28.257815 17.031250 27.710938 C17.291668 27.164060 17.442708 26.651044 17.484375 26.171875 C19.369801 25.619789 21.013014 24.773443 22.414062 23.632812 C23.815111 22.492182 24.901038 21.145841 25.671875 19.593750 C26.442712 18.041659 26.828125 16.375009 26.828125 14.593750 C26.828125 14.010414 26.804688 13.523439 26.757812 13.132812 C26.710937 12.742186 26.645834 12.359377 26.562500 11.984375 C26.489583 11.630207 26.427084 11.257814 26.375000 10.867188 C26.322916 10.476561 26.296875 10.015628 26.296875 9.484375 C26.296875 8.765621 26.526039 8.145836 26.984375 7.625000 C27.442711 7.104164 28.088538 6.729168 28.921875 6.500000 C29.223960 6.416666 29.375000 6.276043 29.375000 6.078125 C29.375000 5.838540 29.177085 5.578126 28.781250 5.296875 C28.385415 5.015624 27.882816 4.773439 27.273438 4.570312 C26.664059 4.367186 26.041670 4.265625 25.406250 4.265625 C25.083332 4.265625 24.731773 4.291666 24.351562 4.343750 C23.971352 4.395834 23.567710 4.484374 23.140625 4.609375 C21.526034 3.619787 19.934904 2.890627 18.367188 2.421875 C16.799471 1.953123 15.171883 1.718750 13.484375 1.718750 C12.109368 1.718750 10.796881 1.924477 9.546875 2.335938 C8.296869 2.747398 7.184901 3.312496 6.210938 4.031250 C5.236974 4.750004 4.468753 5.567704 3.906250 6.484375 C3.343747 7.401046 3.062500 8.369787 3.062500 9.390625 C3.062500 9.963545 3.138020 10.453123 3.289062 10.859375 C3.440105 11.265627 3.591145 11.624998 3.742188 11.937500 C3.893230 12.250002 3.968750 12.557290 3.968750 12.859375 C3.968750 13.171877 3.864584 13.463540 3.656250 13.734375 C3.447916 14.005210 3.203126 14.270832 2.921875 14.531250 C2.640624 14.791668 2.395834 15.065103 2.187500 15.351562 C1.979166 15.638022 1.875000 15.953123 1.875000 16.296875 C1.875000 16.619793 1.973957 16.888020 2.171875 17.101562 C2.369793 17.315105 2.661456 17.421875 3.046875 17.421875 C3.630211 17.421875 4.513015 17.143232 5.695312 16.585938 C6.877610 16.028643 8.520823 15.119798 10.625000 13.859375 C11.041669 13.817708 11.437498 13.781250 11.812500 13.750000 C12.187502 13.718750 12.541665 13.695313 12.875000 13.679688 C13.208335 13.664062 13.520832 13.656250 13.812500 13.656250 C16.156262 13.656250 17.960931 14.174474 19.226562 15.210938 C20.492194 16.247401 21.125000 17.661449 21.125000 19.453125 C21.125000 19.765627 21.098959 20.111977 21.046875 20.492188 C20.994791 20.872398 20.890626 21.374997 20.734375 22.000000 C20.515624 22.385419 20.205731 22.765623 19.804688 23.140625 C19.403644 23.515627 18.963544 23.838540 18.484375 24.109375 C18.005206 24.380210 17.526044 24.552083 17.046875 24.625000 C16.536456 23.479161 15.859379 22.591149 15.015625 21.960938 C14.171871 21.330726 13.328129 21.015625 12.484375 21.015625 C12.276041 21.015625 12.171875 21.083333 12.171875 21.218750 C12.171875 21.354167 12.268228 21.552082 12.460938 21.812500 C12.653647 22.072918 12.838541 22.385415 13.015625 22.750000 C13.213543 23.135419 13.403645 23.497394 13.585938 23.835938 C13.768230 24.174481 13.976561 24.494790 14.210938 24.796875 C14.445314 25.098960 14.729165 25.401040 15.062500 25.703125 C14.708332 26.140627 14.419272 26.588539 14.195312 27.046875 C13.971353 27.505211 13.859375 28.088538 13.859375 28.796875 C13.859375 29.213544 13.809896 29.539061 13.710938 29.773438 C13.611979 30.007814 13.562500 30.229166 13.562500 30.437500 C13.562500 30.750002 13.708332 30.906250 14.000000 30.906250 Z M8.546875 10.125000 C8.151040 10.125000 7.807293 9.976564 7.515625 9.679688 C7.223957 9.382811 7.078125 9.031252 7.078125 8.625000 C7.078125 8.239581 7.205728 7.916668 7.460938 7.656250 C7.716147 7.395832 8.026040 7.265625 8.390625 7.265625 C8.786460 7.265625 9.127603 7.414061 9.414062 7.710938 C9.700522 8.007814 9.843750 8.364581 9.843750 8.781250 C9.843750 9.166669 9.718751 9.486978 9.468750 9.742188 C9.218749 9.997397 8.911460 10.125000 8.546875 10.125000 Z M17.406250 12.484375 L16.953125 11.046875 C17.557295 10.828124 18.231767 10.533856 18.976562 10.164062 C19.721358 9.794269 20.463538 9.395835 21.203125 8.968750 C21.671877 8.697915 22.033853 8.460939 22.289062 8.257812 C22.544272 8.054686 22.671875 7.901042 22.671875 7.796875 C22.671875 7.661458 22.528647 7.526042 22.242188 7.390625 C21.955728 7.255208 21.591148 7.140625 21.148438 7.046875 C20.705727 6.953125 20.250002 6.906250 19.781250 6.906250 C17.760407 6.906250 16.026049 7.541660 14.578125 8.812500 L13.640625 7.578125 C14.463546 6.869788 15.408849 6.320314 16.476562 5.929688 C17.544276 5.539061 18.645828 5.343750 19.781250 5.343750 C21.041673 5.343750 22.106766 5.588539 22.976562 6.078125 C23.846359 6.567711 24.281250 7.166663 24.281250 7.875000 C24.281250 8.291669 24.091148 8.684894 23.710938 9.054688 C23.330727 9.424481 22.755212 9.833331 21.984375 10.281250 C20.901036 10.906253 20.023441 11.377603 19.351562 11.695312 C18.679684 12.013022 18.031253 12.276041 17.406250 12.484375 Z M35.937500 27.343750" /></svg>