<svg version="1.1" xmlns="http://www.w3.org/2000/svg" style="fill:rgba(0,0,0,1.0)" width="256" height="256" viewBox="0 0 36.71875 32.8125"><path fill="rgb(255, 255, 255)" d="M2.734375 32.812500 C1.984371 32.812500 1.341149 32.544274 0.804688 32.007812 C0.268226 31.471351 0.000000 30.828129 0.000000 30.078125 L0.000000 2.718750 C0.000000 1.979163 0.270831 1.341149 0.812500 0.804688 C1.354169 0.268226 1.999996 -0.000000 2.750000 -0.000000 L30.078125 -0.000000 C30.828129 -0.000000 31.471351 0.268226 32.007812 0.804688 C32.544274 1.341149 32.812500 1.984371 32.812500 2.734375 L32.812500 30.078125 C32.812500 30.828129 32.544274 31.471351 32.007812 32.007812 C31.471351 32.544274 30.828129 32.812500 30.078125 32.812500 Z M8.078125 20.984375 L9.765625 18.218750 L11.437500 20.984375 Z M16.406250 25.531250 L14.781250 22.859375 L18.031250 22.859375 Z M9.765625 14.593750 L8.078125 11.828125 L11.437500 11.828125 Z M16.406250 29.156250 L20.234375 22.859375 L28.078125 22.859375 L24.156250 16.406250 L28.078125 9.953125 L20.234375 9.953125 L16.406250 3.656250 L12.578125 9.953125 L4.734375 9.953125 L8.656250 16.406250 L4.734375 22.859375 L12.578125 22.859375 Z M13.640625 20.984375 L10.859375 16.406250 L13.640625 11.828125 L19.171875 11.828125 L21.953125 16.406250 L19.171875 20.984375 Z M16.406250 18.125000 C16.885419 18.125000 17.294269 17.955731 17.632812 17.617188 C17.971356 17.278644 18.140625 16.869794 18.140625 16.390625 C18.140625 15.911456 17.971356 15.502606 17.632812 15.164062 C17.294269 14.825519 16.885419 14.656250 16.406250 14.656250 C15.927081 14.656250 15.518231 14.825519 15.179688 15.164062 C14.841144 15.502606 14.671875 15.911456 14.671875 16.390625 C14.671875 16.869794 14.841144 17.278644 15.179688 17.617188 C15.518231 17.955731 15.927081 18.125000 16.406250 18.125000 Z M21.375000 20.984375 L23.046875 18.218750 L24.734375 20.984375 Z M14.781250 9.953125 L16.406250 7.281250 L18.031250 9.953125 Z M23.046875 14.593750 L21.375000 11.828125 L24.734375 11.828125 Z M36.718750 27.343750" /></svg>