<svg version="1.1" xmlns="http://www.w3.org/2000/svg" style="fill:rgba(0,0,0,1.0)" width="256" height="256" viewBox="0 0 30.0 32.8125"><path fill="rgb(255, 255, 255)" d="M12.687500 22.203125 L12.125000 -0.000000 L18.812500 -0.000000 L18.250000 22.203125 Z M3.921875 32.812500 C3.203121 32.812500 2.546878 32.635418 1.953125 32.281250 C1.359372 31.927082 0.885418 31.453128 0.531250 30.859375 C0.177082 30.265622 0.000000 29.614587 0.000000 28.906250 C0.000000 28.197913 0.177082 27.549482 0.531250 26.960938 C0.885418 26.372393 1.361976 25.901043 1.960938 25.546875 C2.559899 25.192707 3.213538 25.015625 3.921875 25.015625 C4.630212 25.015625 5.278643 25.192707 5.867188 25.546875 C6.455732 25.901043 6.927082 26.372393 7.281250 26.960938 C7.635418 27.549482 7.812500 28.197913 7.812500 28.906250 C7.812500 29.614587 7.638023 30.265622 7.289062 30.859375 C6.940102 31.453128 6.471357 31.927082 5.882812 32.281250 C5.294268 32.635418 4.640629 32.812500 3.921875 32.812500 Z M15.453125 32.812500 C14.744788 32.812500 14.093753 32.635418 13.500000 32.281250 C12.906247 31.927082 12.434898 31.453128 12.085938 30.859375 C11.736977 30.265622 11.562500 29.614587 11.562500 28.906250 C11.562500 28.197913 11.739582 27.549482 12.093750 26.960938 C12.447918 26.372393 12.919268 25.901043 13.507812 25.546875 C14.096357 25.192707 14.744788 25.015625 15.453125 25.015625 C16.171879 25.015625 16.828122 25.192707 17.421875 25.546875 C18.015628 25.901043 18.489582 26.372393 18.843750 26.960938 C19.197918 27.549482 19.375000 28.197913 19.375000 28.906250 C19.375000 29.614587 19.197918 30.265622 18.843750 30.859375 C18.489582 31.453128 18.018232 31.927082 17.429688 32.281250 C16.841143 32.635418 16.182295 32.812500 15.453125 32.812500 Z M1.125000 22.203125 L0.562500 -0.000000 L7.250000 -0.000000 L6.687500 22.203125 Z M30.000000 27.343750" /></svg>