<svg version="1.1" xmlns="http://www.w3.org/2000/svg" style="fill:rgba(0,0,0,1.0)" width="256" height="256" viewBox="0 0 34.734375 32.8125"><path fill="rgb(255, 255, 255)" d="M5.828125 29.906250 C5.598957 29.906250 5.406251 29.809897 5.250000 29.617188 C5.093749 29.424478 5.015625 29.187501 5.015625 28.906250 C5.015625 28.812500 5.026042 28.713542 5.046875 28.609375 C4.984375 28.640625 4.848959 28.656250 4.640625 28.656250 C4.359374 28.656250 4.119793 28.562501 3.921875 28.375000 C3.723957 28.187499 3.546876 27.885419 3.390625 27.468750 C3.151040 27.468750 2.966146 27.570311 2.835938 27.773438 C2.705729 27.976564 2.585938 28.182291 2.476562 28.390625 C2.367187 28.598959 2.213543 28.703125 2.015625 28.703125 C1.880208 28.703125 1.757813 28.664063 1.648438 28.585938 C1.539062 28.507812 1.484375 28.395834 1.484375 28.250000 C1.484375 28.072916 1.565103 27.898438 1.726562 27.726562 C1.888022 27.554687 1.968750 27.416667 1.968750 27.312500 C1.968750 27.250000 1.942709 27.218750 1.890625 27.218750 C1.828125 27.218750 1.750000 27.268229 1.656250 27.367188 C1.562500 27.466146 1.421876 27.515625 1.234375 27.515625 C0.880207 27.515625 0.703125 27.348960 0.703125 27.015625 C0.703125 26.807291 0.791666 26.648438 0.968750 26.539062 C1.145834 26.429687 1.322916 26.335938 1.500000 26.257812 C1.677084 26.179687 1.765625 26.098959 1.765625 26.015625 C1.765625 25.932291 1.682292 25.880208 1.515625 25.859375 C1.348958 25.838542 1.182292 25.794271 1.015625 25.726562 C0.848958 25.658854 0.765625 25.526043 0.765625 25.328125 C0.765625 24.984373 1.036456 24.812500 1.578125 24.812500 C2.088544 24.812500 2.526040 24.932290 2.890625 25.171875 C3.255210 25.411460 3.585936 25.651040 3.882812 25.890625 C4.179689 26.130210 4.473957 26.250000 4.765625 26.250000 L6.406250 28.515625 L6.406250 29.390625 C6.406250 29.557292 6.346355 29.684895 6.226562 29.773438 C6.106770 29.861980 5.973959 29.906250 5.828125 29.906250 Z M8.187500 29.578125 L7.250000 28.765625 L8.718750 27.093750 L9.656250 27.906250 Z M5.734375 26.468750 L5.312500 25.296875 L7.421875 24.578125 L7.843750 25.750000 Z M7.375000 23.203125 L5.156250 23.156250 L5.156250 21.906250 L7.375000 21.953125 Z M4.156250 21.843750 L2.734375 20.890625 C2.505207 20.994792 2.268230 21.067708 2.023438 21.109375 C1.778645 21.151042 1.614584 21.171875 1.531250 21.171875 C1.020831 21.171875 0.638022 21.119792 0.382812 21.015625 C0.127603 20.911458 0.000000 20.739585 0.000000 20.500000 C0.000000 20.135415 0.255206 19.953125 0.765625 19.953125 C1.015626 19.953125 1.239582 19.914063 1.437500 19.835938 C1.635418 19.757812 1.734375 19.640626 1.734375 19.484375 C1.734375 19.411458 1.726563 19.328125 1.710938 19.234375 C1.695312 19.140625 1.687500 19.057292 1.687500 18.984375 C1.687500 18.744790 1.765624 18.531251 1.921875 18.343750 C2.078126 18.156249 2.234374 17.981772 2.390625 17.820312 C2.546876 17.658853 2.625000 17.510417 2.625000 17.375000 C2.625000 17.208332 2.502605 17.046876 2.257812 16.890625 C2.013020 16.734374 1.765626 16.570313 1.515625 16.398438 C1.265624 16.226562 1.140625 16.046876 1.140625 15.859375 C1.140625 15.505207 1.364581 15.328125 1.812500 15.328125 C2.208335 15.328125 2.513020 15.440103 2.726562 15.664062 C2.940105 15.888022 3.111979 16.114582 3.242188 16.343750 C3.372396 16.572918 3.499999 16.687500 3.625000 16.687500 C3.718750 16.687500 3.765625 16.619792 3.765625 16.484375 C3.765625 16.276041 3.684897 16.080730 3.523438 15.898438 C3.361978 15.716145 3.200522 15.541667 3.039062 15.375000 C2.877603 15.208333 2.796875 15.046876 2.796875 14.890625 C2.796875 14.765624 2.846354 14.664063 2.945312 14.585938 C3.044271 14.507812 3.151041 14.468750 3.265625 14.468750 C3.453126 14.468750 3.658853 14.565103 3.882812 14.757812 C4.106772 14.950522 4.296874 15.177082 4.453125 15.437500 C4.609376 15.697918 4.687500 15.932291 4.687500 16.140625 C4.687500 16.244792 4.723958 16.296875 4.796875 16.296875 C4.880209 16.296875 4.921875 16.208334 4.921875 16.031250 C4.921875 15.791665 4.841147 15.572918 4.679688 15.375000 C4.518228 15.177082 4.437500 14.979168 4.437500 14.781250 C4.437500 14.552082 4.552082 14.437500 4.781250 14.437500 C5.083335 14.437500 5.372394 14.614582 5.648438 14.968750 C5.924481 15.322918 6.062500 15.682290 6.062500 16.046875 C6.062500 16.380210 5.916668 16.809893 5.625000 17.335938 C5.333332 17.861982 4.911461 18.453122 4.359375 19.109375 L5.109375 19.531250 Z M7.656250 20.843750 L5.750000 19.703125 L6.406250 18.640625 L8.312500 19.781250 Z M9.093750 18.843750 L7.687500 17.109375 L8.656250 16.328125 L10.062500 18.062500 Z M11.250000 17.265625 L10.156250 15.312500 L11.250000 14.718750 L12.343750 16.671875 Z M23.890625 28.937500 C23.682291 28.937500 23.549479 28.867188 23.492188 28.726562 C23.434896 28.585937 23.401042 28.445313 23.390625 28.304688 C23.380208 28.164062 23.328125 28.093750 23.234375 28.093750 C23.151041 28.093750 23.093750 28.153645 23.062500 28.273438 C23.031250 28.393230 22.984375 28.513020 22.921875 28.632812 C22.859375 28.752605 22.729168 28.812500 22.531250 28.812500 C22.239582 28.812500 22.093750 28.661460 22.093750 28.359375 C22.093750 28.255208 22.109375 28.145834 22.140625 28.031250 C22.171875 27.916666 22.187500 27.828125 22.187500 27.765625 C22.187500 27.703125 22.161459 27.671875 22.109375 27.671875 C22.015625 27.671875 21.947917 27.736979 21.906250 27.867188 C21.864583 27.997396 21.812500 28.130208 21.750000 28.265625 C21.687500 28.401042 21.572918 28.468750 21.406250 28.468750 C21.166665 28.468750 21.046875 28.265627 21.046875 27.859375 C21.046875 27.369789 21.226561 26.934898 21.585938 26.554688 C21.945314 26.174477 22.630203 25.760419 23.640625 25.312500 L23.500000 24.656250 L25.515625 24.234375 L25.703125 24.984375 C26.036460 24.984375 26.377602 25.101561 26.726562 25.335938 C27.075523 25.570314 27.250000 25.869790 27.250000 26.234375 C27.250000 26.640627 27.125001 26.843750 26.875000 26.843750 C26.718749 26.843750 26.583334 26.768230 26.468750 26.617188 C26.354166 26.466145 26.203126 26.390625 26.015625 26.390625 C25.880208 26.390625 25.768230 26.453124 25.679688 26.578125 C25.591145 26.703126 25.380210 26.869791 25.046875 27.078125 C24.692707 27.296876 24.447917 27.432291 24.312500 27.484375 C24.177083 27.536459 24.109375 27.635416 24.109375 27.781250 C24.109375 27.916667 24.148437 28.036458 24.226562 28.140625 C24.304688 28.244792 24.343750 28.359374 24.343750 28.484375 C24.343750 28.786460 24.192710 28.937500 23.890625 28.937500 Z M5.156250 7.109375 C4.874999 7.109375 4.734375 6.973960 4.734375 6.703125 C4.734375 6.432290 4.874999 6.296875 5.156250 6.296875 C5.427085 6.296875 5.562500 6.432290 5.562500 6.703125 C5.562500 6.973960 5.427085 7.109375 5.156250 7.109375 Z M6.187500 12.656250 C6.708336 12.656250 7.161456 12.552084 7.546875 12.343750 C7.932294 12.135416 8.348956 12.031250 8.796875 12.031250 L9.828125 12.031250 C10.786463 12.031250 11.489581 11.932293 11.937500 11.734375 C12.385419 11.536457 12.697916 11.182294 12.875000 10.671875 C13.260419 10.463541 13.578124 10.221356 13.828125 9.945312 C14.078126 9.669269 14.203125 9.421876 14.203125 9.203125 C14.203125 9.088541 14.164063 8.981771 14.085938 8.882812 C14.007812 8.783854 13.906251 8.734375 13.781250 8.734375 C13.697916 8.734375 13.614584 8.752604 13.531250 8.789062 C13.447916 8.825521 13.380209 8.843750 13.328125 8.843750 C13.255208 8.843750 13.218750 8.796875 13.218750 8.703125 C13.218750 8.651041 13.226562 8.554688 13.242188 8.414062 C13.257813 8.273437 13.265625 8.130209 13.265625 7.984375 C13.265625 7.713540 13.184897 7.489584 13.023438 7.312500 C12.861978 7.135416 12.700522 6.981771 12.539062 6.851562 C12.377603 6.721354 12.296875 6.593751 12.296875 6.468750 C12.296875 6.291666 12.499998 6.203125 12.906250 6.203125 C13.187501 6.203125 13.328125 6.109376 13.328125 5.921875 C13.328125 5.661457 13.072919 5.531250 12.562500 5.531250 C12.489583 5.531250 12.411459 5.539062 12.328125 5.554688 C12.244791 5.570313 12.177084 5.578125 12.125000 5.578125 C12.041666 5.578125 12.000000 5.546875 12.000000 5.484375 C12.000000 5.432291 12.059895 5.388021 12.179688 5.351562 C12.299480 5.315104 12.359375 5.250000 12.359375 5.156250 C12.359375 5.010416 12.182293 4.937500 11.828125 4.937500 C11.421873 4.937500 11.078126 4.994791 10.796875 5.109375 C10.515624 5.223959 10.286459 5.281250 10.109375 5.281250 C10.036458 5.281250 10.000000 5.255209 10.000000 5.203125 C10.000000 5.109375 10.106770 5.002605 10.320312 4.882812 C10.533855 4.763020 10.640625 4.671875 10.640625 4.609375 C10.640625 4.526041 10.531251 4.484375 10.312500 4.484375 C9.989582 4.484375 9.638023 4.648436 9.257812 4.976562 C8.877602 5.304689 8.539064 5.656248 8.242188 6.031250 C7.945311 6.406252 7.750000 6.666666 7.656250 6.812500 L6.171875 6.812500 C5.973957 6.447915 5.736981 6.174480 5.460938 5.992188 C5.184894 5.809895 4.963542 5.718750 4.796875 5.718750 C4.661458 5.718750 4.536459 5.843749 4.421875 6.093750 C4.307291 6.343751 4.250000 6.677081 4.250000 7.093750 C4.250000 7.531252 4.374999 7.848957 4.625000 8.046875 C4.875001 8.244793 5.291664 8.343750 5.875000 8.343750 C6.020834 8.343750 6.242186 8.333333 6.539062 8.312500 C6.835939 8.291667 7.119790 8.273438 7.390625 8.257812 C7.661460 8.242187 7.828125 8.234375 7.890625 8.234375 C8.411461 8.234375 8.830728 8.351561 9.148438 8.585938 C9.466147 8.820314 9.625000 9.151040 9.625000 9.578125 C9.625000 9.994794 9.476564 10.333332 9.179688 10.593750 C8.882811 10.854168 8.515627 10.984375 8.078125 10.984375 C7.848957 10.984375 7.640626 11.052083 7.453125 11.187500 C7.265624 11.322917 7.098959 11.473958 6.953125 11.640625 C6.807291 11.807292 6.661459 11.950520 6.515625 12.070312 C6.369791 12.190105 6.197918 12.250000 6.000000 12.250000 C5.770832 12.250000 5.583334 12.187501 5.437500 12.062500 C5.614584 12.458335 5.864582 12.656250 6.187500 12.656250 Z M9.843750 7.421875 C10.114585 7.421875 10.250000 7.286460 10.250000 7.015625 C10.250000 6.744790 10.114585 6.609375 9.843750 6.609375 C9.562499 6.609375 9.421875 6.744790 9.421875 7.015625 C9.421875 7.286460 9.562499 7.421875 9.843750 7.421875 Z M9.734375 7.937500 C9.473957 7.937500 9.255209 7.851563 9.078125 7.679688 C8.901041 7.507812 8.812500 7.291668 8.812500 7.031250 C8.812500 6.458330 9.171871 6.171875 9.890625 6.171875 L11.531250 6.171875 C11.458333 6.609377 11.239585 7.013019 10.875000 7.382812 C10.510415 7.752606 10.130210 7.937500 9.734375 7.937500 Z M15.015625 14.046875 C14.484372 14.046875 13.877608 14.007813 13.195312 13.929688 C12.513017 13.851562 11.877607 13.755209 11.289062 13.640625 C10.700518 13.526041 10.265626 13.406251 9.984375 13.281250 L8.796875 13.281250 C8.494790 13.281250 8.119794 13.385416 7.671875 13.593750 C7.223956 13.802084 6.734378 13.906250 6.203125 13.906250 C5.505205 13.906250 4.958335 13.682294 4.562500 13.234375 C4.166665 12.786456 3.968750 12.244795 3.968750 11.609375 C3.968750 11.171873 4.075520 10.835939 4.289062 10.601562 C4.502605 10.367186 4.776040 10.250000 5.109375 10.250000 C5.317709 10.250000 5.492187 10.302083 5.632812 10.406250 C5.773438 10.510417 5.890625 10.661457 5.984375 10.859375 C6.255210 10.494790 6.580727 10.216147 6.960938 10.023438 C7.341148 9.830728 7.682290 9.734375 7.984375 9.734375 C8.244793 9.734375 8.375000 9.666667 8.375000 9.531250 C8.375000 9.468750 8.330730 9.419271 8.242188 9.382812 C8.153645 9.346354 8.052084 9.328125 7.937500 9.328125 C7.739582 9.328125 7.427085 9.372395 7.000000 9.460938 C6.572915 9.549480 6.197918 9.593750 5.875000 9.593750 C4.958329 9.593750 4.223961 9.377606 3.671875 8.945312 C3.119789 8.513019 2.843750 7.895837 2.843750 7.093750 C2.843750 6.354163 3.031248 5.731773 3.406250 5.226562 C3.781252 4.721352 4.244789 4.468750 4.796875 4.468750 C5.130210 4.468750 5.499998 4.580728 5.906250 4.804688 C6.312502 5.028647 6.661457 5.333331 6.953125 5.718750 C7.630212 4.781245 8.273434 4.109377 8.882812 3.703125 C9.492191 3.296873 10.161455 3.093750 10.890625 3.093750 C11.369794 3.093750 11.768228 3.145833 12.085938 3.250000 C12.403647 3.354167 12.752602 3.460937 13.132812 3.570312 C13.513023 3.679688 14.026038 3.734375 14.671875 3.734375 C15.244795 3.734375 15.906246 3.671876 16.656250 3.546875 C17.406254 3.421874 18.239579 3.359375 19.156250 3.359375 C19.645836 3.359375 19.973958 3.414062 20.140625 3.523438 C20.307292 3.632813 20.390625 3.760416 20.390625 3.906250 C20.390625 4.135418 20.273439 4.299479 20.039062 4.398438 C19.804686 4.497396 19.567710 4.580729 19.328125 4.648438 C19.088540 4.716146 18.968750 4.822916 18.968750 4.968750 C18.968750 5.031250 19.002604 5.080729 19.070312 5.117188 C19.138021 5.153646 19.255208 5.171875 19.421875 5.171875 C19.671876 5.171875 19.914061 5.138021 20.148438 5.070312 C20.382814 5.002604 20.630207 4.968750 20.890625 4.968750 C21.338544 4.968750 21.562500 5.119790 21.562500 5.421875 C21.562500 5.692710 21.437501 5.895833 21.187500 6.031250 C20.937499 6.166667 20.648439 6.268229 20.320312 6.335938 C19.992186 6.403646 19.703126 6.468750 19.453125 6.531250 C19.203124 6.593750 19.078125 6.692708 19.078125 6.828125 C19.078125 6.901042 19.117187 6.955729 19.195312 6.992188 C19.273438 7.028646 19.374999 7.046875 19.500000 7.046875 C19.802085 7.046875 20.166665 6.994792 20.593750 6.890625 C21.020835 6.786458 21.385415 6.734375 21.687500 6.734375 C22.062502 6.734375 22.250000 6.880207 22.250000 7.171875 C22.250000 7.484377 22.111981 7.708333 21.835938 7.843750 C21.559894 7.979167 21.236981 8.078125 20.867188 8.140625 C20.497394 8.203125 20.174481 8.260416 19.898438 8.312500 C19.622394 8.364584 19.484375 8.458333 19.484375 8.593750 C19.484375 8.645834 19.502604 8.687500 19.539062 8.718750 C19.575521 8.750000 19.651041 8.765625 19.765625 8.765625 C19.973959 8.765625 20.236978 8.734375 20.554688 8.671875 C20.872397 8.609375 21.135416 8.578125 21.343750 8.578125 C21.770835 8.578125 21.984375 8.739582 21.984375 9.062500 C21.984375 9.354168 21.846356 9.554687 21.570312 9.664062 C21.294269 9.773438 21.015626 9.851562 20.734375 9.898438 C20.453124 9.945313 20.312500 10.031249 20.312500 10.156250 C20.312500 10.270834 20.445311 10.328125 20.710938 10.328125 C20.976564 10.328125 21.242186 10.354166 21.507812 10.406250 C21.773439 10.458334 21.906250 10.630207 21.906250 10.921875 C21.906250 11.182293 21.773439 11.403645 21.507812 11.585938 C21.242186 11.768230 20.911460 11.859375 20.515625 11.859375 C20.369791 11.859375 20.106773 11.825521 19.726562 11.757812 C19.346352 11.690104 18.958335 11.614584 18.562500 11.531250 C18.166665 11.447916 17.859376 11.375000 17.640625 11.312500 L15.625000 11.984375 C15.625000 12.078125 15.705728 12.151041 15.867188 12.203125 C16.028647 12.255209 16.213541 12.312500 16.421875 12.375000 C16.630209 12.437500 16.815103 12.528645 16.976562 12.648438 C17.138022 12.768230 17.218750 12.937499 17.218750 13.156250 C17.218750 13.447918 17.036460 13.669270 16.671875 13.820312 C16.307290 13.971355 15.755212 14.046875 15.015625 14.046875 Z M4.453125 5.312500 C4.203124 5.072915 4.013021 4.804689 3.882812 4.507812 C3.752604 4.210936 3.687500 3.890627 3.687500 3.546875 C3.687500 2.932289 3.877602 2.440106 4.257812 2.070312 C4.638023 1.700519 5.119789 1.515625 5.703125 1.515625 C6.067710 1.515625 6.367186 1.572916 6.601562 1.687500 C6.835939 1.802084 7.065103 1.916666 7.289062 2.031250 C7.513022 2.145834 7.781248 2.203125 8.093750 2.203125 C8.656253 2.203125 8.937500 2.000002 8.937500 1.593750 C8.937500 1.260415 8.770835 1.093750 8.437500 1.093750 C8.312499 1.093750 8.208334 1.135416 8.125000 1.218750 C8.041666 1.302084 8.000000 1.380208 8.000000 1.453125 L6.906250 1.453125 C6.906250 1.026040 7.052082 0.677085 7.343750 0.406250 C7.635418 0.135415 8.010414 -0.000000 8.468750 -0.000000 C8.895835 -0.000000 9.263019 0.156248 9.570312 0.468750 C9.877606 0.781252 10.031250 1.166664 10.031250 1.625000 C10.031250 2.104169 9.854168 2.502603 9.500000 2.820312 C9.145832 3.138022 8.677086 3.296875 8.093750 3.296875 C7.604164 3.296875 7.171877 3.169272 6.796875 2.914062 C6.421873 2.658853 6.057293 2.531250 5.703125 2.531250 C5.421874 2.531250 5.197918 2.622395 5.031250 2.804688 C4.864582 2.986980 4.781250 3.234373 4.781250 3.546875 C4.781250 3.942710 4.921874 4.281249 5.203125 4.562500 Z M13.718750 4.343750 L12.203125 3.640625 C12.286459 3.557291 12.354166 3.479167 12.406250 3.406250 C12.458334 3.333333 12.494792 3.255209 12.515625 3.171875 C12.567709 2.973957 12.664062 2.736981 12.804688 2.460938 C12.945313 2.184894 13.119791 1.940105 13.328125 1.726562 C13.536459 1.513020 13.776040 1.406250 14.046875 1.406250 C14.390627 1.406250 14.562500 1.572915 14.562500 1.906250 C14.562500 2.125001 14.473959 2.317708 14.296875 2.484375 C14.119791 2.651042 13.942709 2.804687 13.765625 2.945312 C13.588541 3.085938 13.500000 3.229166 13.500000 3.375000 C13.500000 3.510417 13.572916 3.578125 13.718750 3.578125 C13.895834 3.578125 14.085936 3.468751 14.289062 3.250000 C14.492189 3.031249 14.700520 2.778647 14.914062 2.492188 C15.127605 2.205728 15.346353 1.953126 15.570312 1.734375 C15.794272 1.515624 16.020832 1.406250 16.250000 1.406250 C16.416668 1.406250 16.541666 1.466145 16.625000 1.585938 C16.708334 1.705730 16.750000 1.854166 16.750000 2.031250 C16.750000 2.385418 16.596356 2.726561 16.289062 3.054688 C15.981769 3.382814 15.593752 3.661457 15.125000 3.890625 C14.656248 4.119793 14.187502 4.270833 13.718750 4.343750 Z M26.953125 15.453125 C27.640628 16.546880 28.127603 17.424476 28.414062 18.085938 C28.700522 18.747399 28.843750 19.374997 28.843750 19.968750 C28.843750 20.947922 28.619794 21.807288 28.171875 22.546875 C27.723956 23.286462 27.117191 23.861977 26.351562 24.273438 C25.585934 24.684898 24.723963 24.890625 23.765625 24.890625 C23.484374 24.890625 23.130210 24.875000 22.703125 24.843750 C22.276040 24.812500 21.869794 24.781250 21.484375 24.750000 C21.098956 24.718750 20.817709 24.703125 20.640625 24.703125 C20.421874 24.703125 20.236980 24.799478 20.085938 24.992188 C19.934895 25.184897 19.812500 25.578122 19.718750 26.171875 C19.499999 27.515632 19.031254 28.578121 18.312500 29.359375 C17.593746 30.140629 16.723963 30.531250 15.703125 30.531250 C15.515624 30.656251 15.320314 30.765625 15.117188 30.859375 C14.914061 30.953125 14.723959 31.015625 14.546875 31.046875 C14.640625 31.192709 14.726562 31.390624 14.804688 31.640625 C14.882813 31.890626 14.921875 32.093749 14.921875 32.250000 C14.921875 32.416668 14.872396 32.546875 14.773438 32.640625 C14.674479 32.734375 14.536459 32.781250 14.359375 32.781250 C14.109374 32.781250 13.927084 32.695313 13.812500 32.523438 C13.697916 32.351562 13.619792 32.182292 13.578125 32.015625 C13.536458 31.848958 13.489584 31.765625 13.437500 31.765625 C13.395833 31.765625 13.372396 31.851562 13.367188 32.023438 C13.361979 32.195313 13.320313 32.369791 13.242188 32.546875 C13.164062 32.723959 12.989585 32.812500 12.718750 32.812500 C12.437499 32.812500 12.263021 32.716147 12.195312 32.523438 C12.127604 32.330728 12.098958 32.140626 12.109375 31.953125 C12.119792 31.765624 12.098959 31.671875 12.046875 31.671875 C11.994791 31.671875 11.940104 31.744791 11.882812 31.890625 C11.825521 32.036459 11.750000 32.182291 11.656250 32.328125 C11.562500 32.473959 11.427084 32.546875 11.250000 32.546875 C11.083332 32.546875 10.953125 32.463542 10.859375 32.296875 C10.765625 32.130208 10.718750 31.932293 10.718750 31.703125 C10.718750 31.515624 10.739583 31.354167 10.781250 31.218750 C9.510410 31.052082 8.359380 30.585941 7.328125 29.820312 C6.296870 29.054684 5.476566 28.083339 4.867188 26.906250 C4.257809 25.729161 3.953125 24.453132 3.953125 23.078125 C3.953125 21.838535 4.166665 20.747401 4.593750 19.804688 C5.020835 18.861974 5.575517 18.031254 6.257812 17.312500 C6.940108 16.593746 7.677079 15.960940 8.468750 15.414062 C9.260421 14.867185 10.020830 14.375002 10.750000 13.937500 C11.927089 13.229163 12.739581 12.651044 13.187500 12.203125 C13.635419 11.755206 13.859375 11.307294 13.859375 10.859375 L18.546875 9.328125 C18.911460 9.588543 19.187499 10.028643 19.375000 10.648438 C19.562501 11.268232 19.656250 11.973954 19.656250 12.765625 C19.656250 13.963548 19.385419 15.013016 18.843750 15.914062 C18.302081 16.815109 17.406256 17.635413 16.156250 18.375000 L12.421875 20.562500 C11.807289 20.916668 11.312502 21.372393 10.937500 21.929688 C10.562498 22.486982 10.375000 23.052080 10.375000 23.625000 C10.375000 24.166669 10.544269 24.598957 10.882812 24.921875 C11.221356 25.244793 11.666664 25.406250 12.218750 25.406250 C12.739586 25.406250 13.182290 25.239585 13.546875 24.906250 C13.911460 24.572915 14.270832 24.020837 14.625000 23.250000 L15.062500 22.296875 C15.593753 21.140619 16.213538 20.302086 16.921875 19.781250 C17.630212 19.260414 18.494787 19.000000 19.515625 19.000000 C19.984377 19.000000 20.494789 19.036458 21.046875 19.109375 C21.598961 19.182292 22.109373 19.257812 22.578125 19.335938 C23.046877 19.414063 23.380207 19.453125 23.578125 19.453125 C23.661459 19.453125 23.726562 19.427084 23.773438 19.375000 C23.820313 19.322916 23.843750 19.250000 23.843750 19.156250 C23.843750 19.041666 23.799480 18.890626 23.710938 18.703125 C23.622395 18.515624 23.442710 18.208335 23.171875 17.781250 C22.880207 17.322914 22.572918 16.760420 22.250000 16.093750 C21.927082 15.427080 21.765625 14.604172 21.765625 13.625000 C21.765625 12.937497 21.940102 12.239587 22.289062 11.531250 C22.638023 10.822913 23.078122 10.226565 23.609375 9.742188 C24.140628 9.257810 24.677081 9.015625 25.218750 9.015625 C25.614585 9.015625 25.898437 9.151040 26.070312 9.421875 C26.242188 9.692710 26.328125 10.020831 26.328125 10.406250 C26.328125 10.791669 26.263021 11.156248 26.132812 11.500000 C26.002604 11.843752 25.937500 12.223956 25.937500 12.640625 C25.937500 13.432296 26.276038 14.369786 26.953125 15.453125 Z M23.750000 23.265625 C24.729172 23.265625 25.520830 22.932295 26.125000 22.265625 C26.729170 21.598955 27.031250 20.781255 27.031250 19.812500 C27.031250 19.354164 26.916668 18.867190 26.687500 18.351562 C26.458332 17.835935 26.067711 17.135421 25.515625 16.250000 C25.036456 15.479163 24.695314 14.833336 24.492188 14.312500 C24.289061 13.791664 24.187500 13.291669 24.187500 12.812500 C24.187500 12.666666 24.195312 12.523438 24.210938 12.382812 C24.226563 12.242187 24.252604 12.093751 24.289062 11.937500 C24.325521 11.781249 24.369791 11.625001 24.421875 11.468750 C24.182290 11.677084 23.986980 11.901040 23.835938 12.140625 C23.684895 12.380210 23.572917 12.627603 23.500000 12.882812 C23.427083 13.138022 23.390625 13.406249 23.390625 13.687500 C23.390625 14.166669 23.489582 14.669268 23.687500 15.195312 C23.885418 15.721357 24.145832 16.244789 24.468750 16.765625 C24.906252 17.463545 25.205728 18.023435 25.367188 18.445312 C25.528647 18.867190 25.609375 19.249998 25.609375 19.593750 C25.609375 20.135419 25.442710 20.533853 25.109375 20.789062 C24.776040 21.044272 24.312503 21.171875 23.718750 21.171875 C23.177081 21.171875 22.502608 21.083334 21.695312 20.906250 C20.888017 20.729166 20.161462 20.640625 19.515625 20.640625 C18.755205 20.640625 18.135419 20.841144 17.656250 21.242188 C17.177081 21.643231 16.723960 22.307287 16.296875 23.234375 L15.812500 24.296875 C15.354164 25.307297 14.846357 26.031248 14.289062 26.468750 C13.731768 26.906252 13.031254 27.125000 12.187500 27.125000 C11.093745 27.125000 10.218753 26.815107 9.562500 26.195312 C8.906247 25.575518 8.578125 24.765630 8.578125 23.765625 C8.578125 22.869787 8.838539 22.002608 9.359375 21.164062 C9.880211 20.325517 10.614579 19.635419 11.562500 19.093750 L15.265625 16.953125 C16.255213 16.369789 16.937498 15.747399 17.312500 15.085938 C17.687502 14.424476 17.875000 13.651046 17.875000 12.765625 C17.875000 12.536457 17.867188 12.322918 17.851562 12.125000 C17.835937 11.927082 17.812500 11.744792 17.781250 11.578125 C17.510415 11.578125 17.187502 11.617187 16.812500 11.695312 C16.437498 11.773438 16.075523 11.867187 15.726562 11.976562 C15.377602 12.085938 15.098959 12.192708 14.890625 12.296875 C14.630207 12.776044 14.203128 13.276039 13.609375 13.796875 C13.015622 14.317711 12.166672 14.901038 11.062500 15.546875 C10.218746 16.036461 9.382817 16.614580 8.554688 17.281250 C7.726558 17.947920 7.039065 18.749995 6.492188 19.687500 C5.945310 20.625005 5.671875 21.755202 5.671875 23.078125 C5.671875 24.203131 5.945310 25.268224 6.492188 26.273438 C7.039065 27.278651 7.760412 28.096351 8.656250 28.726562 C9.552088 29.356774 10.515620 29.682292 11.546875 29.703125 C12.067711 29.442707 12.601560 29.229168 13.148438 29.062500 C13.695315 28.895832 14.265622 28.812500 14.859375 28.812500 C15.036459 28.812500 15.210937 28.820312 15.382812 28.835938 C15.554688 28.851563 15.729166 28.875000 15.906250 28.906250 C16.322919 28.906250 16.747394 28.596357 17.179688 27.976562 C17.611981 27.356768 17.901041 26.635421 18.046875 25.812500 C18.255209 24.708328 18.536457 23.973960 18.890625 23.609375 C19.244793 23.244790 19.786455 23.062500 20.515625 23.062500 C21.057294 23.062500 21.635414 23.096354 22.250000 23.164062 C22.864586 23.231771 23.364581 23.265625 23.750000 23.265625 Z M34.734375 27.343750" /></svg>