<svg version="1.1" xmlns="http://www.w3.org/2000/svg" style="fill:rgba(0,0,0,1.0)" width="256" height="256" viewBox="0 0 38.125 32.8125"><path fill="rgb(255, 255, 255)" d="M19.156250 32.812500 C18.354163 32.812500 17.682294 32.705730 17.140625 32.492188 C16.598956 32.278645 16.328125 31.880211 16.328125 31.296875 C16.328125 31.067707 16.401041 30.835939 16.546875 30.601562 C16.692709 30.367186 16.846353 30.151043 17.007812 29.953125 C17.169272 29.755207 17.260417 29.598959 17.281250 29.484375 L18.093750 26.015625 C18.145834 25.807291 18.166667 25.544272 18.156250 25.226562 C18.145833 24.908853 18.109375 24.578127 18.046875 24.234375 C17.984375 23.890623 17.895834 23.593751 17.781250 23.343750 C17.520832 23.385417 17.216148 23.419271 16.867188 23.445312 C16.518227 23.471354 16.015628 23.484375 15.359375 23.484375 C12.630195 23.484375 10.539070 22.679696 9.085938 21.070312 C7.632805 19.460929 6.906250 17.151057 6.906250 14.140625 L6.906250 12.109375 C6.489581 11.942708 6.148439 11.789063 5.882812 11.648438 C5.617186 11.507812 5.364585 11.343751 5.125000 11.156250 C4.916666 11.250000 4.669272 11.341145 4.382812 11.429688 C4.096353 11.518230 3.713544 11.562500 3.234375 11.562500 C2.682289 11.562500 2.158857 11.401043 1.664062 11.078125 C1.169268 10.755207 0.768231 10.325524 0.460938 9.789062 C0.153644 9.252601 0.000000 8.656253 0.000000 8.000000 C0.000000 7.010412 0.354163 6.096358 1.062500 5.257812 C1.770837 4.419267 2.697911 3.880210 3.843750 3.640625 L6.171875 3.156250 C6.255209 3.135417 6.463540 2.984376 6.796875 2.703125 C7.130210 2.421874 7.565101 2.119793 8.101562 1.796875 C8.638024 1.473957 9.249997 1.255209 9.937500 1.140625 C10.114584 0.786457 10.356769 0.507814 10.664062 0.304688 C10.971356 0.101561 11.317706 -0.000000 11.703125 -0.000000 C12.140627 -0.000000 12.510415 0.122395 12.812500 0.367188 C13.114585 0.611980 13.317708 0.932290 13.421875 1.328125 C13.744793 1.463542 14.052082 1.661457 14.343750 1.921875 C14.583335 1.859375 14.807291 1.828125 15.015625 1.828125 C15.598961 1.828125 16.104165 2.049477 16.531250 2.492188 C16.958335 2.934898 17.171875 3.468747 17.171875 4.093750 C17.171875 4.541669 17.067709 4.958331 16.859375 5.343750 C16.651041 5.729169 16.354169 6.067707 15.968750 6.359375 C15.927083 7.286463 15.760418 8.161454 15.468750 8.984375 C15.177082 9.807296 14.791669 10.458331 14.312500 10.937500 C14.270833 11.145834 14.239583 11.346353 14.218750 11.539062 C14.197917 11.731772 14.187500 11.932291 14.187500 12.140625 C14.187500 12.744795 14.239583 13.177082 14.343750 13.437500 C14.447917 13.697918 14.682290 13.880208 15.046875 13.984375 C15.203126 13.130204 15.531248 12.348962 16.031250 11.640625 C16.531252 10.932288 17.161455 10.385419 17.921875 10.000000 C18.203126 8.468742 18.518227 7.166672 18.867188 6.093750 C19.216148 5.020828 19.627602 4.151045 20.101562 3.484375 C20.575523 2.817705 21.127601 2.330731 21.757812 2.023438 C22.388024 1.716144 23.119788 1.562500 23.953125 1.562500 C24.786462 1.562500 25.515622 1.721353 26.140625 2.039062 C26.765628 2.356772 27.317706 2.872392 27.796875 3.585938 C28.276044 4.299483 28.703123 5.242182 29.078125 6.414062 C29.453127 7.585943 29.807290 9.020825 30.140625 10.718750 C31.671883 11.135419 32.747393 12.046868 33.367188 13.453125 C33.986982 14.859382 34.296875 16.666656 34.296875 18.875000 C34.296875 19.322919 34.408853 19.851559 34.632812 20.460938 C34.856772 21.070316 35.078124 21.640622 35.296875 22.171875 C35.515626 22.703128 35.625000 23.083332 35.625000 23.312500 C35.625000 23.729169 35.492189 24.031249 35.226562 24.218750 C34.960936 24.406251 34.630210 24.500000 34.234375 24.500000 C33.807290 24.500000 33.351565 24.393230 32.867188 24.179688 C32.382810 23.966145 31.979168 23.682293 31.656250 23.328125 C31.750000 23.682293 31.841145 24.067706 31.929688 24.484375 C32.018230 24.901044 32.091146 25.278644 32.148438 25.617188 C32.205729 25.955731 32.234375 26.192708 32.234375 26.328125 C32.234375 26.505209 32.184896 26.851560 32.085938 27.367188 C31.986979 27.882815 31.867188 28.419268 31.726562 28.976562 C31.585937 29.533857 31.453126 29.973957 31.328125 30.296875 C31.057290 31.036462 30.684898 31.570311 30.210938 31.898438 C29.736977 32.226564 29.098962 32.390625 28.296875 32.390625 C27.557288 32.390625 27.013023 32.242189 26.664062 31.945312 C26.315102 31.648436 26.140625 31.276044 26.140625 30.828125 C26.140625 30.473957 26.223958 30.166668 26.390625 29.906250 C26.557292 29.645832 26.729166 29.416668 26.906250 29.218750 C27.083334 29.020832 27.187500 28.843751 27.218750 28.687500 L27.859375 25.984375 C27.890625 25.880208 27.859375 25.682293 27.765625 25.390625 C27.671875 25.098957 27.549480 24.776043 27.398438 24.421875 C27.247395 24.067707 27.083334 23.750001 26.906250 23.468750 C26.354164 23.656251 25.705733 23.809895 24.960938 23.929688 C24.216142 24.049480 23.427088 24.125000 22.593750 24.156250 L22.593750 24.609375 C22.593750 24.869793 22.617187 25.190102 22.664062 25.570312 C22.710938 25.950523 22.734375 26.244791 22.734375 26.453125 C22.734375 26.598959 22.697917 26.786457 22.625000 27.015625 C22.552083 27.244793 22.447917 27.604164 22.312500 28.093750 L21.906250 29.593750 C21.833333 29.864585 21.802083 30.093749 21.812500 30.281250 C21.822917 30.468751 21.828125 30.651041 21.828125 30.828125 C21.828125 31.505212 21.598961 32.005207 21.140625 32.328125 C20.682289 32.651043 20.020838 32.812500 19.156250 32.812500 Z M13.781250 31.906250 C13.218747 31.906250 12.752606 31.825522 12.382812 31.664062 C12.013019 31.502603 11.828125 31.296876 11.828125 31.046875 C11.828125 30.755207 11.984373 30.484376 12.296875 30.234375 C12.609377 29.984374 12.796875 29.744793 12.859375 29.515625 L13.578125 26.734375 C13.609375 26.619791 13.614583 26.343752 13.593750 25.906250 C13.572917 25.468748 13.533854 24.955732 13.476562 24.367188 C13.419271 23.778643 13.348959 23.203128 13.265625 22.640625 L16.531250 22.718750 C16.604167 23.364587 16.661458 24.010413 16.703125 24.656250 C16.744792 25.302087 16.765625 25.861977 16.765625 26.335938 C16.765625 26.809898 16.734375 27.119791 16.671875 27.265625 L15.468750 30.328125 C15.416666 30.463542 15.393229 30.648436 15.398438 30.882812 C15.403646 31.117189 15.369792 31.317708 15.296875 31.484375 C15.244791 31.609376 15.078126 31.710937 14.796875 31.789062 C14.515624 31.867188 14.177085 31.906250 13.781250 31.906250 Z M2.531250 8.062500 C2.239582 7.968750 1.953126 7.768231 1.671875 7.460938 C1.390624 7.153644 1.250000 6.885418 1.250000 6.656250 C1.250000 6.499999 1.328124 6.421875 1.484375 6.421875 C1.598959 6.421875 1.776040 6.497395 2.015625 6.648438 C2.255210 6.799480 2.468749 6.968749 2.656250 7.156250 C3.281253 6.895832 3.708332 6.765625 3.937500 6.765625 C4.135418 6.765625 4.234375 6.854166 4.234375 7.031250 C4.234375 7.250001 4.075522 7.455728 3.757812 7.648438 C3.440103 7.841147 3.031252 7.979166 2.531250 8.062500 Z M24.171875 30.750000 C23.234370 30.750000 22.765625 30.510419 22.765625 30.031250 C22.765625 29.760415 22.843749 29.486981 23.000000 29.210938 C23.156251 28.934894 23.291666 28.713542 23.406250 28.546875 C23.468750 28.453125 23.549479 28.231773 23.648438 27.882812 C23.747396 27.533852 23.835937 27.169273 23.914062 26.789062 C23.992188 26.408852 24.031250 26.135418 24.031250 25.968750 C24.031250 25.770832 23.992188 25.416669 23.914062 24.906250 C23.835937 24.395831 23.729167 23.843753 23.593750 23.250000 L26.281250 22.671875 C26.458334 23.473962 26.601562 24.171872 26.710938 24.765625 C26.820313 25.359378 26.848959 25.744791 26.796875 25.921875 L26.031250 28.968750 C25.854166 29.687504 25.643230 30.164061 25.398438 30.398438 C25.153645 30.632814 24.744795 30.750000 24.171875 30.750000 Z M19.156250 31.406250 C19.593752 31.406250 19.901041 31.351563 20.078125 31.242188 C20.255209 31.132812 20.343750 30.994792 20.343750 30.828125 C20.343750 30.578124 20.333333 30.369792 20.312500 30.203125 C20.291667 30.036458 20.312500 29.838543 20.375000 29.609375 L20.906250 27.687500 C21.020834 27.270831 21.093750 26.992188 21.125000 26.851562 C21.156250 26.710937 21.171875 26.572917 21.171875 26.437500 C21.171875 26.104165 21.148438 25.763023 21.101562 25.414062 C21.054687 25.065102 21.031250 24.796876 21.031250 24.609375 L21.031250 22.437500 L21.765625 22.437500 C22.817714 22.437500 23.859370 22.367188 24.890625 22.226562 C25.921880 22.085937 26.854162 21.869793 27.687500 21.578125 C27.968751 22.067711 28.239582 22.651038 28.500000 23.328125 C28.760418 24.005212 28.968749 24.627601 29.125000 25.195312 C29.281251 25.763024 29.338542 26.140624 29.296875 26.328125 L28.656250 29.062500 C28.604166 29.302085 28.492188 29.486979 28.320312 29.617188 C28.148437 29.747396 27.986980 29.867187 27.835938 29.976562 C27.684895 30.085938 27.609375 30.234374 27.609375 30.421875 C27.609375 30.567709 27.695312 30.697916 27.867188 30.812500 C28.039063 30.927084 28.265624 30.984375 28.546875 30.984375 C28.932294 30.984375 29.213541 30.911459 29.390625 30.765625 C29.567709 30.619791 29.692708 30.463542 29.765625 30.296875 C29.838542 30.119791 29.929687 29.846356 30.039062 29.476562 C30.148438 29.106769 30.255208 28.710940 30.359375 28.289062 C30.463542 27.867185 30.552083 27.489585 30.625000 27.156250 C30.697917 26.822915 30.734375 26.604167 30.734375 26.500000 C30.734375 25.885414 30.635418 25.075526 30.437500 24.070312 C30.239582 23.065099 29.828128 21.635426 29.203125 19.781250 L30.593750 19.093750 C30.843751 19.750003 31.158852 20.348956 31.539062 20.890625 C31.919273 21.432294 32.289061 21.861978 32.648438 22.179688 C33.007814 22.497397 33.281249 22.656250 33.468750 22.656250 C33.656251 22.656250 33.750000 22.562501 33.750000 22.375000 C33.750000 22.239583 33.648439 21.979169 33.445312 21.593750 C33.242186 21.208331 33.039064 20.776044 32.835938 20.296875 C32.632811 19.817706 32.531250 19.375002 32.531250 18.968750 C32.531250 17.572910 32.414064 16.388026 32.179688 15.414062 C31.945311 14.440099 31.546878 13.658857 30.984375 13.070312 C30.421872 12.481768 29.640630 12.072918 28.640625 11.843750 C28.192706 9.562489 27.752606 7.789069 27.320312 6.523438 C26.888019 5.257806 26.406253 4.375003 25.875000 3.875000 C25.343747 3.374997 24.703129 3.125000 23.953125 3.125000 C23.182288 3.125000 22.523440 3.369789 21.976562 3.859375 C21.429685 4.348961 20.958335 5.174473 20.562500 6.335938 C20.166665 7.497402 19.796877 9.098948 19.453125 11.140625 C18.880205 11.265626 18.348961 11.575518 17.859375 12.070312 C17.369789 12.565107 16.976564 13.151038 16.679688 13.828125 C16.382811 14.505212 16.234375 15.171872 16.234375 15.828125 C14.901035 15.828125 13.940107 15.541670 13.351562 14.968750 C12.763018 14.395830 12.468750 13.453132 12.468750 12.140625 C12.468750 11.786457 12.492187 11.445314 12.539062 11.117188 C12.585938 10.789061 12.661458 10.437502 12.765625 10.062500 C13.140627 9.833332 13.434895 9.458336 13.648438 8.937500 C13.861980 8.416664 14.015625 7.843753 14.109375 7.218750 C14.203125 6.593747 14.250000 6.010419 14.250000 5.468750 C14.656252 5.291666 14.958332 5.088543 15.156250 4.859375 C15.354168 4.630207 15.453125 4.375001 15.453125 4.093750 C15.453125 3.770832 15.369792 3.539063 15.203125 3.398438 C15.036458 3.257812 14.822918 3.187500 14.562500 3.187500 C14.229165 3.187500 13.890627 3.281249 13.546875 3.468750 C13.296874 3.041665 12.916669 2.765626 12.406250 2.640625 C12.406250 2.359374 12.335938 2.109376 12.195312 1.890625 C12.054687 1.671874 11.890626 1.562500 11.703125 1.562500 C11.473957 1.562500 11.278647 1.671874 11.117188 1.890625 C10.955728 2.109376 10.833334 2.369790 10.750000 2.671875 C10.114580 2.744792 9.583335 2.916665 9.156250 3.187500 C8.729165 3.458335 8.302085 3.776040 7.875000 4.140625 C7.583332 4.390626 7.330730 4.557291 7.117188 4.640625 C6.903645 4.723959 6.692709 4.791666 6.484375 4.843750 L4.156250 5.328125 C3.406246 5.484376 2.812502 5.804685 2.375000 6.289062 C1.937498 6.773440 1.718750 7.343747 1.718750 8.000000 C1.718750 8.583336 1.885415 9.036457 2.218750 9.359375 C2.552085 9.682293 2.942706 9.843750 3.390625 9.843750 C3.994795 9.843750 4.692704 9.661460 5.484375 9.296875 C5.848960 9.630210 6.268227 9.916665 6.742188 10.156250 C7.216148 10.395835 7.895829 10.630207 8.781250 10.859375 L8.781250 14.140625 C8.781250 16.744805 9.304682 18.666660 10.351562 19.906250 C11.398443 21.145840 13.067697 21.765625 15.359375 21.765625 C15.661460 21.765625 16.156247 21.750000 16.843750 21.718750 C17.531253 21.687500 18.156247 21.640625 18.718750 21.578125 C18.937501 21.984377 19.124999 22.494789 19.281250 23.109375 C19.437501 23.723961 19.541666 24.325518 19.593750 24.914062 C19.645834 25.502607 19.630209 25.973957 19.546875 26.328125 L18.718750 29.828125 C18.677083 30.005209 18.570313 30.182291 18.398438 30.359375 C18.226562 30.536459 18.140625 30.718749 18.140625 30.906250 C18.140625 31.031251 18.208333 31.145833 18.343750 31.250000 C18.479167 31.354167 18.749998 31.406250 19.156250 31.406250 Z M9.890625 7.906250 C9.734374 7.906250 9.656250 7.843751 9.656250 7.718750 C9.656250 7.604166 9.739582 7.471355 9.906250 7.320312 C10.072917 7.169270 10.192708 7.010417 10.265625 6.843750 C10.140624 6.843750 10.046875 6.833333 9.984375 6.812500 C9.859374 6.979167 9.690105 7.135416 9.476562 7.281250 C9.263020 7.427084 9.083334 7.500000 8.937500 7.500000 C8.749999 7.500000 8.656250 7.421876 8.656250 7.265625 C8.656250 7.161458 8.763020 7.067709 8.976562 6.984375 C9.190105 6.901041 9.354166 6.786459 9.468750 6.640625 C9.385416 6.598958 9.322917 6.557292 9.281250 6.515625 C8.947915 6.796876 8.635418 6.937500 8.343750 6.937500 C8.114582 6.937500 8.000000 6.859376 8.000000 6.703125 C8.000000 6.546874 8.098957 6.458333 8.296875 6.437500 C8.494793 6.416667 8.708332 6.302084 8.937500 6.093750 C8.885416 5.989583 8.859375 5.906250 8.859375 5.843750 C8.859375 5.604165 9.187497 5.484375 9.843750 5.484375 C10.822922 5.484375 11.312500 5.687498 11.312500 6.093750 C11.312500 6.270834 11.166668 6.458332 10.875000 6.656250 C10.802083 7.000002 10.669272 7.294270 10.476562 7.539062 C10.283853 7.783855 10.088543 7.906250 9.890625 7.906250 Z M25.546875 7.859375 C25.213540 7.859375 24.963542 7.752605 24.796875 7.539062 C24.630208 7.325520 24.510417 6.958336 24.437500 6.437500 C24.395833 6.072915 24.325521 5.817709 24.226562 5.671875 C24.127604 5.526041 23.973959 5.453125 23.765625 5.453125 C23.546874 5.453125 23.388021 5.536458 23.289062 5.703125 C23.190104 5.869792 23.119792 6.166665 23.078125 6.593750 C23.036458 7.041669 22.945313 7.354166 22.804688 7.531250 C22.664062 7.708334 22.453126 7.796875 22.171875 7.796875 C21.630206 7.796875 21.359375 7.531253 21.359375 7.000000 C21.359375 6.739582 21.408854 6.494793 21.507812 6.265625 C21.606771 6.036457 21.656250 5.828126 21.656250 5.640625 C21.656250 5.515624 21.625000 5.419271 21.562500 5.351562 C21.500000 5.283854 21.411459 5.250000 21.296875 5.250000 C21.078124 5.250000 20.872397 5.364582 20.679688 5.593750 C20.486978 5.822918 20.307292 6.049478 20.140625 6.273438 C19.973958 6.497397 19.817709 6.609375 19.671875 6.609375 L21.062500 3.093750 L24.703125 2.203125 L27.281250 4.078125 L28.078125 6.765625 C27.828124 6.765625 27.645834 6.625001 27.531250 6.343750 C27.416666 6.062499 27.296876 5.781251 27.171875 5.500000 C27.046874 5.218749 26.833335 5.078125 26.531250 5.078125 C26.406249 5.078125 26.309896 5.114583 26.242188 5.187500 C26.174479 5.260417 26.140625 5.380208 26.140625 5.546875 C26.140625 5.744793 26.171875 5.981769 26.234375 6.257812 C26.296875 6.533856 26.328125 6.796874 26.328125 7.046875 C26.328125 7.588544 26.067711 7.859375 25.546875 7.859375 Z M38.125000 27.343750" /></svg>