<svg version="1.1" xmlns="http://www.w3.org/2000/svg" style="fill:rgba(0,0,0,1.0)" width="256" height="256" viewBox="0 0 31.09375 32.8125"><path fill="rgb(255, 255, 255)" d="M10.781250 32.812500 C8.552072 32.812500 6.632821 32.372400 5.023438 31.492188 C3.414054 30.611975 2.174484 29.375008 1.304688 27.781250 C0.434891 26.187492 0.000000 24.328136 0.000000 22.203125 C0.000000 20.432283 0.346351 18.562510 1.039062 16.593750 C1.731774 14.624990 2.817701 12.479178 4.296875 10.156250 L10.781250 -0.000000 L17.265625 10.156250 C18.755216 12.479178 19.843747 14.624990 20.531250 16.593750 C21.218753 18.562510 21.562500 20.432283 21.562500 22.203125 C21.562500 24.328136 21.127609 26.187492 20.257812 27.781250 C19.388016 29.375008 18.148446 30.611975 16.539062 31.492188 C14.929679 32.372400 13.010428 32.812500 10.781250 32.812500 Z M10.953125 28.906250 C11.223960 28.906250 11.445312 28.828126 11.617188 28.671875 C11.789063 28.515624 11.875000 28.307293 11.875000 28.046875 C11.875000 27.807290 11.796876 27.606772 11.640625 27.445312 C11.484374 27.283853 11.286460 27.197917 11.046875 27.187500 C9.380200 27.072916 8.052088 26.520838 7.062500 25.531250 C6.072912 24.541662 5.500001 23.229175 5.343750 21.593750 C5.291666 21.041664 5.005211 20.765625 4.484375 20.765625 C4.223957 20.765625 4.015626 20.851562 3.859375 21.023438 C3.703124 21.195313 3.625000 21.416665 3.625000 21.687500 C3.625000 23.072924 3.942705 24.309890 4.578125 25.398438 C5.213545 26.486985 6.083328 27.343747 7.187500 27.968750 C8.291672 28.593753 9.546868 28.906250 10.953125 28.906250 Z M31.093750 27.343750" /></svg>