<svg version="1.1" xmlns="http://www.w3.org/2000/svg" style="fill:rgba(0,0,0,1.0)" width="256" height="256" viewBox="0 0 34.96875 32.8125"><path fill="rgb(255, 255, 255)" d="M15.531250 26.156250 C13.156238 26.156250 11.114592 25.833337 9.406250 25.187500 C7.697908 24.541663 6.385421 23.596360 5.468750 22.351562 C4.552079 21.106765 4.093750 19.598967 4.093750 17.828125 C4.093750 16.817703 4.223957 15.953129 4.484375 15.234375 C4.744793 14.515621 5.070311 13.898440 5.460938 13.382812 C5.851564 12.867185 6.239581 12.408856 6.625000 12.007812 C7.010419 11.606769 7.333332 11.213544 7.593750 10.828125 C7.854168 10.442706 7.984375 10.026044 7.984375 9.578125 C7.984375 9.286457 7.906251 9.041668 7.750000 8.843750 C7.593749 8.645832 7.348960 8.479167 7.015625 8.343750 L5.796875 7.828125 C5.651041 7.848958 5.505209 7.864583 5.359375 7.875000 C5.213541 7.885417 4.979168 7.890625 4.656250 7.890625 C3.864579 7.890625 3.145837 7.828126 2.500000 7.703125 C1.854163 7.578124 1.315106 7.390626 0.882812 7.140625 C0.450519 6.890624 0.156251 6.578127 0.000000 6.203125 C0.000000 5.713539 0.164061 5.296877 0.492188 4.953125 C0.820314 4.609373 1.385413 4.437500 2.187500 4.437500 L3.390625 4.437500 C3.984378 4.437500 4.484373 4.289064 4.890625 3.992188 C5.296877 3.695311 5.679686 3.325523 6.039062 2.882812 C6.398439 2.440102 6.789060 1.997398 7.210938 1.554688 C7.632815 1.111977 8.156247 0.742189 8.781250 0.445312 C9.406253 0.148436 10.192704 -0.000000 11.140625 -0.000000 C12.265631 -0.000000 13.260412 0.223956 14.125000 0.671875 C14.989588 1.119794 15.666664 1.742184 16.156250 2.539062 C16.645836 3.335941 16.890625 4.249995 16.890625 5.281250 C16.890625 6.020837 16.789064 6.700518 16.585938 7.320312 C16.382811 7.940107 16.148439 8.531247 15.882812 9.093750 C15.617186 9.656253 15.382814 10.208331 15.179688 10.750000 C14.976561 11.291669 14.875000 11.854164 14.875000 12.437500 L14.875000 13.515625 L13.000000 13.515625 L13.000000 12.437500 C13.000000 11.749997 13.101561 11.101566 13.304688 10.492188 C13.507814 9.882809 13.742186 9.291670 14.007812 8.718750 C14.273439 8.145830 14.507811 7.578128 14.710938 7.015625 C14.914064 6.453122 15.015625 5.875003 15.015625 5.281250 C15.015625 4.208328 14.661462 3.346357 13.953125 2.695312 C13.244788 2.044268 12.307298 1.718750 11.140625 1.718750 C10.286454 1.718750 9.565107 1.867186 8.976562 2.164062 C8.388018 2.460939 7.817711 2.953122 7.265625 3.640625 C7.109374 3.838543 6.979167 4.010416 6.875000 4.156250 C6.989584 4.312501 7.070312 4.460937 7.117188 4.601562 C7.164063 4.742188 7.187500 4.869791 7.187500 4.984375 C7.187500 5.213543 7.148438 5.408853 7.070312 5.570312 C6.992187 5.731772 6.914063 5.882812 6.835938 6.023438 C6.757812 6.164063 6.718750 6.322916 6.718750 6.500000 L7.921875 7.046875 C8.557295 7.338543 9.039061 7.682290 9.367188 8.078125 C9.695314 8.473960 9.859375 8.973955 9.859375 9.578125 C9.859375 10.140628 9.729168 10.648435 9.468750 11.101562 C9.208332 11.554690 8.885419 11.997394 8.500000 12.429688 C8.114581 12.861981 7.726564 13.325518 7.335938 13.820312 C6.945311 14.315107 6.619793 14.885413 6.359375 15.531250 C6.098957 16.177087 5.968750 16.942704 5.968750 17.828125 C5.968750 19.880219 6.783846 21.494786 8.414062 22.671875 C10.044279 23.848964 12.416651 24.437500 15.531250 24.437500 C17.979179 24.437500 20.091137 24.101566 21.867188 23.429688 C23.643238 22.757809 25.015620 21.799485 25.984375 20.554688 C26.953130 19.309890 27.437500 17.828134 27.437500 16.109375 C27.437500 15.369788 27.359376 14.648441 27.203125 13.945312 C27.046874 13.242184 26.822918 12.664065 26.531250 12.210938 C26.239582 11.757810 25.890627 11.531250 25.484375 11.531250 C25.390625 11.531250 25.322917 11.559896 25.281250 11.617188 C25.239583 11.674479 25.218750 11.744791 25.218750 11.828125 C25.218750 11.911459 25.239583 12.033853 25.281250 12.195312 C25.322917 12.356772 25.364583 12.557290 25.406250 12.796875 C25.447917 13.036460 25.468750 13.333332 25.468750 13.687500 L23.750000 13.453125 C23.750000 13.026040 23.734375 12.666668 23.703125 12.375000 C23.671875 12.083332 23.656250 11.776043 23.656250 11.453125 C23.656250 10.901039 23.791665 10.486981 24.062500 10.210938 C24.333335 9.934894 24.739581 9.796875 25.281250 9.796875 C26.031254 9.796875 26.710934 10.075518 27.320312 10.632812 C27.929691 11.190107 28.414061 11.945308 28.773438 12.898438 C29.132814 13.851567 29.312500 14.921869 29.312500 16.109375 C29.312500 18.151052 28.752610 19.924472 27.632812 21.429688 C26.513015 22.934903 24.924489 24.098954 22.867188 24.921875 C20.809886 25.744796 18.364598 26.156250 15.531250 26.156250 Z M10.640625 31.062500 C10.369790 31.062500 10.070314 30.950522 9.742188 30.726562 C9.414061 30.502603 9.130210 30.234377 8.890625 29.921875 C8.651040 29.609373 8.531250 29.328126 8.531250 29.078125 C8.531250 28.869791 8.635416 28.729167 8.843750 28.656250 L12.171875 27.546875 C12.213542 27.401041 12.239583 27.250001 12.250000 27.093750 C12.260417 26.937499 12.265625 26.776042 12.265625 26.609375 C12.265625 26.203123 12.234375 25.781252 12.171875 25.343750 L14.125000 25.578125 L14.125000 28.546875 C14.125000 28.713542 13.986981 28.934894 13.710938 29.210938 C13.434894 29.486981 13.098960 29.768228 12.703125 30.054688 C12.307290 30.341147 11.919273 30.580728 11.539062 30.773438 C11.158852 30.966147 10.859376 31.062500 10.640625 31.062500 Z M15.859375 32.812500 C15.213538 32.812500 14.684898 32.684897 14.273438 32.429688 C13.861977 32.174478 13.656250 31.911460 13.656250 31.640625 C13.656250 31.401040 13.770832 31.138022 14.000000 30.851562 C14.229168 30.565103 14.497394 30.276043 14.804688 29.984375 C15.111981 29.692707 15.380207 29.416668 15.609375 29.156250 C15.838543 28.895832 15.953125 28.677084 15.953125 28.500000 L15.953125 25.359375 L17.828125 24.875000 L17.828125 28.750000 C17.828125 29.125002 17.893229 29.567706 18.023438 30.078125 C18.153646 30.588544 18.218750 31.026040 18.218750 31.390625 C18.218750 31.911461 17.973961 32.278645 17.484375 32.492188 C16.994789 32.705730 16.453128 32.812500 15.859375 32.812500 Z M10.812500 12.109375 C10.468748 12.109375 10.125002 12.096354 9.781250 12.070312 C9.437498 12.044271 9.098960 12.010417 8.765625 11.968750 L8.984375 10.250000 C9.286460 10.291667 9.591144 10.325521 9.898438 10.351562 C10.205731 10.377604 10.510415 10.390625 10.812500 10.390625 C11.250002 10.390625 11.731768 10.367188 12.257812 10.320312 C12.783857 10.273437 13.249998 10.197917 13.656250 10.093750 L13.968750 11.781250 C13.354164 11.885417 12.796878 11.966146 12.296875 12.023438 C11.796872 12.080729 11.302086 12.109375 10.812500 12.109375 Z M17.640625 21.343750 C15.817699 21.343750 14.356776 20.911463 13.257812 20.046875 C12.158849 19.182287 11.609375 18.041674 11.609375 16.625000 C11.609375 15.187493 12.083329 14.065108 13.031250 13.257812 C13.979171 12.450517 15.401032 12.046875 17.296875 12.046875 C18.296880 12.046875 19.458327 12.161457 20.781250 12.390625 C22.104173 12.619793 23.666658 13.036455 25.468750 13.640625 C25.468750 14.161461 25.218752 14.661456 24.718750 15.140625 C24.218748 15.619794 23.567712 15.859375 22.765625 15.859375 C22.911459 16.151043 23.018229 16.442707 23.085938 16.734375 C23.153646 17.026043 23.187500 17.307290 23.187500 17.578125 C23.187500 18.661464 22.684901 19.559892 21.679688 20.273438 C20.674474 20.986983 19.328133 21.343750 17.640625 21.343750 Z M10.562500 5.687500 C10.312499 5.687500 10.098959 5.591147 9.921875 5.398438 C9.744791 5.205728 9.656250 4.979168 9.656250 4.718750 C9.656250 4.447915 9.744791 4.218751 9.921875 4.031250 C10.098959 3.843749 10.312499 3.750000 10.562500 3.750000 C10.812501 3.750000 11.026041 3.843749 11.203125 4.031250 C11.380209 4.218751 11.468750 4.447915 11.468750 4.718750 C11.468750 4.979168 11.380209 5.205728 11.203125 5.398438 C11.026041 5.591147 10.812501 5.687500 10.562500 5.687500 Z M34.968750 27.343750" /></svg>