<svg version="1.1" xmlns="http://www.w3.org/2000/svg" style="fill:rgba(0,0,0,1.0)" width="256" height="256" viewBox="0 0 36.59375 26.5625"><path fill="rgb(255, 255, 255)" d="M5.328125 26.562500 C4.338537 26.562500 3.513024 26.335940 2.851562 25.882812 C2.190101 25.429685 1.692710 24.835941 1.359375 24.101562 C1.026040 23.367184 0.859375 22.578129 0.859375 21.734375 C0.859375 21.161455 0.906250 20.697918 1.000000 20.343750 C1.093750 19.989582 1.140625 19.598960 1.140625 19.171875 C1.140625 18.630206 1.046876 18.182293 0.859375 17.828125 C0.671874 17.473957 0.481772 17.078127 0.289062 16.640625 C0.096353 16.203123 0.000000 15.583337 0.000000 14.781250 C0.000000 14.041663 0.140624 13.388024 0.421875 12.820312 C0.703126 12.252601 1.156247 11.729169 1.781250 11.250000 C2.302086 10.843748 2.695311 10.486981 2.960938 10.179688 C3.226564 9.872394 3.414062 9.518231 3.523438 9.117188 C3.632813 8.716144 3.703125 8.171878 3.734375 7.484375 C3.786459 6.505203 4.098955 5.690107 4.671875 5.039062 C5.244795 4.388018 6.151035 3.994792 7.390625 3.859375 C8.036462 3.786458 8.557290 3.611981 8.953125 3.335938 C9.348960 3.059894 9.687499 2.739585 9.968750 2.375000 C10.250001 2.010415 10.539061 1.651043 10.835938 1.296875 C11.132814 0.942707 11.507810 0.648439 11.960938 0.414062 C12.414065 0.179686 13.015621 0.062500 13.765625 0.062500 C14.390628 0.062500 14.908852 0.130208 15.320312 0.265625 C15.731773 0.401042 16.106769 0.539062 16.445312 0.679688 C16.783856 0.820313 17.151040 0.890625 17.546875 0.890625 C17.984377 0.890625 18.369790 0.815105 18.703125 0.664062 C19.036460 0.513020 19.408852 0.364584 19.820312 0.218750 C20.231773 0.072916 20.765622 -0.000000 21.421875 -0.000000 C22.276046 -0.000000 22.955727 0.085937 23.460938 0.257812 C23.966148 0.429688 24.382811 0.648436 24.710938 0.914062 C25.039064 1.179689 25.364582 1.468748 25.687500 1.781250 C26.010418 2.093752 26.411456 2.393228 26.890625 2.679688 C27.369794 2.966147 28.020829 3.208332 28.843750 3.406250 L29.218750 3.500000 C30.270839 3.781251 31.091143 4.286455 31.679688 5.015625 C32.268232 5.744795 32.562500 6.687494 32.562500 7.843750 C32.562500 9.072923 31.500011 10.783843 29.375000 12.976562 C27.249989 15.169282 24.109396 17.562487 19.953125 20.156250 C18.317700 21.177088 16.750008 22.083329 15.250000 22.875000 C13.749992 23.666671 12.359381 24.335935 11.078125 24.882812 C9.796869 25.429690 8.666672 25.846353 7.687500 26.132812 C6.708328 26.419272 5.921878 26.562500 5.328125 26.562500 Z M6.703125 15.812500 L4.296875 15.593750 L4.453125 14.031250 L6.859375 14.250000 Z M9.203125 9.953125 L7.484375 8.406250 L8.546875 7.265625 L10.265625 8.812500 Z M8.328125 19.671875 C8.328125 17.203113 8.716142 15.075530 9.492188 13.289062 C10.268233 11.502595 11.380201 10.127609 12.828125 9.164062 C14.276049 8.200516 16.005198 7.718750 18.015625 7.718750 C19.161464 7.718750 20.312494 7.893227 21.468750 8.242188 C22.625006 8.591148 23.645829 9.072914 24.531250 9.687500 L23.562500 11.093750 C22.812496 10.572914 21.947922 10.153647 20.968750 9.835938 C19.989578 9.518228 19.005213 9.359375 18.015625 9.359375 C16.338533 9.359375 14.906256 9.768225 13.718750 10.585938 C12.531244 11.403650 11.622399 12.583326 10.992188 14.125000 C10.361976 15.666674 10.046875 17.515614 10.046875 19.671875 Z M5.140625 24.765625 C5.692711 24.765625 6.429683 24.627606 7.351562 24.351562 C8.273442 24.075519 9.343744 23.674482 10.562500 23.148438 C11.781256 22.622393 13.109368 21.973962 14.546875 21.203125 C15.984382 20.432288 17.494784 19.557297 19.078125 18.578125 C23.098978 16.078112 26.039053 13.927092 27.898438 12.125000 C29.757822 10.322908 30.687500 8.854172 30.687500 7.718750 C30.687500 7.041663 30.523439 6.492190 30.195312 6.070312 C29.867186 5.648435 29.364587 5.364584 28.687500 5.218750 L28.265625 5.125000 C27.536455 4.958333 26.908857 4.692710 26.382812 4.328125 C25.856768 3.963540 25.369794 3.580731 24.921875 3.179688 C24.473956 2.778644 24.002607 2.434897 23.507812 2.148438 C23.013018 1.861978 22.421878 1.718750 21.734375 1.718750 C21.244789 1.718750 20.804689 1.791666 20.414062 1.937500 C20.023436 2.083334 19.609377 2.231770 19.171875 2.382812 C18.734373 2.533855 18.192712 2.609375 17.546875 2.609375 C17.015622 2.609375 16.528648 2.539063 16.085938 2.398438 C15.643227 2.257812 15.231773 2.119792 14.851562 1.984375 C14.471352 1.848958 14.109377 1.781250 13.765625 1.781250 C13.296873 1.781250 12.903647 1.893228 12.585938 2.117188 C12.268228 2.341147 11.968751 2.622394 11.687500 2.960938 C11.406249 3.299481 11.101564 3.648436 10.773438 4.007812 C10.445311 4.367189 10.049481 4.687499 9.585938 4.968750 C9.122394 5.250001 8.536462 5.442708 7.828125 5.546875 C6.963537 5.671876 6.354168 5.874999 6.000000 6.156250 C5.645832 6.437501 5.468750 6.859372 5.468750 7.421875 C5.468750 8.588548 5.289064 9.559892 4.929688 10.335938 C4.570311 11.111983 3.911463 11.864580 2.953125 12.593750 C2.526040 12.916668 2.239584 13.229165 2.093750 13.531250 C1.947916 13.833335 1.875000 14.197915 1.875000 14.625000 C1.875000 15.135419 1.966145 15.617185 2.148438 16.070312 C2.330730 16.523440 2.513020 17.020831 2.695312 17.562500 C2.877605 18.104169 2.968750 18.770829 2.968750 19.562500 C2.968750 20.114586 2.924480 20.570311 2.835938 20.929688 C2.747395 21.289064 2.703125 21.713539 2.703125 22.203125 C2.703125 22.984379 2.919269 23.606769 3.351562 24.070312 C3.783856 24.533856 4.380205 24.765625 5.140625 24.765625 Z M13.593750 6.468750 L13.000000 4.390625 L14.484375 3.921875 L15.078125 6.000000 Z M21.859375 6.312500 L20.375000 5.765625 L21.062500 3.812500 L22.546875 4.359375 Z M36.593750 24.218750" /></svg>