<svg version="1.1" xmlns="http://www.w3.org/2000/svg" style="fill:rgba(0,0,0,1.0)" width="256" height="256" viewBox="0 0 36.15625 32.8125"><path fill="rgb(255, 255, 255)" d="M14.750000 29.937500 C14.052080 29.937500 13.520835 29.700523 13.156250 29.226562 C12.791665 28.752602 12.562500 28.192712 12.468750 27.546875 C11.812497 28.119795 11.210940 28.546874 10.664062 28.828125 C10.117185 29.109376 9.682293 29.250000 9.359375 29.250000 C8.817706 29.250000 8.335940 28.984378 7.914062 28.453125 C7.492185 27.921872 7.281250 27.354170 7.281250 26.750000 C7.281250 26.343748 7.398436 25.927085 7.632812 25.500000 C7.867189 25.072915 8.286455 24.572920 8.890625 24.000000 L8.203125 22.562500 C7.848957 21.812496 7.447919 21.122399 7.000000 20.492188 C6.552081 19.861976 6.130210 19.359377 5.734375 18.984375 C5.338540 18.609373 5.031251 18.421875 4.812500 18.421875 L5.843750 17.453125 C6.177085 17.453125 6.648434 17.796872 7.257812 18.484375 C7.867191 19.171878 8.583329 20.291659 9.406250 21.843750 L10.734375 24.312500 C10.015621 24.843753 9.500002 25.309894 9.187500 25.710938 C8.874998 26.111981 8.718750 26.432290 8.718750 26.671875 C8.718750 26.838542 8.770833 27.049478 8.875000 27.304688 C8.979167 27.559897 9.140624 27.687500 9.359375 27.687500 C9.703127 27.687500 10.119789 27.567710 10.609375 27.328125 C11.098961 27.088540 11.606768 26.763023 12.132812 26.351562 C12.658857 25.940102 13.140623 25.484378 13.578125 24.984375 C13.630209 25.776046 13.713541 26.421872 13.828125 26.921875 C13.942709 27.421878 14.091145 27.789061 14.273438 28.023438 C14.455730 28.257814 14.661457 28.375000 14.890625 28.375000 C15.390628 28.375000 15.815102 28.184898 16.164062 27.804688 C16.513023 27.424477 16.778645 26.940107 16.960938 26.351562 C17.143230 25.763018 17.234375 25.166670 17.234375 24.562500 C17.234375 24.156248 17.190105 23.765627 17.101562 23.390625 C17.013020 23.015623 16.880209 22.687501 16.703125 22.406250 C18.088549 21.968748 19.276037 21.205735 20.265625 20.117188 C21.255213 19.028640 22.119788 17.401052 22.859375 15.234375 C23.255210 15.036457 23.708331 14.744794 24.218750 14.359375 C24.729169 13.973956 25.223956 13.554690 25.703125 13.101562 C26.182294 12.648435 26.578123 12.213544 26.890625 11.796875 C27.203127 11.380206 27.359375 11.041668 27.359375 10.781250 C27.359375 10.552082 27.252605 10.375001 27.039062 10.250000 C26.825520 10.124999 26.609376 9.984376 26.390625 9.828125 C26.171874 9.671874 26.062500 9.437502 26.062500 9.125000 C26.062500 8.697915 26.307289 8.393230 26.796875 8.210938 C27.286461 8.028645 27.921871 7.911459 28.703125 7.859375 C28.817709 7.848958 28.906250 7.822917 28.968750 7.781250 C29.031250 7.739583 29.093750 7.651042 29.156250 7.515625 L29.656250 6.500000 C29.583333 6.489583 29.489584 6.481771 29.375000 6.476562 C29.260416 6.471354 29.125001 6.468750 28.968750 6.468750 C25.437482 6.468750 22.674489 6.640623 20.679688 6.984375 C18.684886 7.328127 17.348962 7.859371 16.671875 8.578125 C16.421874 8.838543 16.226563 9.153644 16.085938 9.523438 C15.945312 9.893231 15.760418 10.578120 15.531250 11.578125 L15.406250 12.125000 C15.229166 12.916671 14.973960 13.638018 14.640625 14.289062 C14.307290 14.940107 13.945314 15.458331 13.554688 15.843750 C13.164061 16.229169 12.776044 16.421875 12.390625 16.421875 L12.453125 14.859375 C12.515625 14.859375 12.635416 14.674481 12.812500 14.304688 C12.989584 13.934894 13.166666 13.513023 13.343750 13.039062 C13.520834 12.565102 13.645833 12.166668 13.718750 11.843750 L13.843750 11.296875 C14.114585 10.088536 14.354166 9.218753 14.562500 8.687500 C14.770834 8.156247 15.036457 7.713543 15.359375 7.359375 C16.151046 6.515621 17.549469 5.869794 19.554688 5.421875 C21.559906 4.973956 24.072902 4.750000 27.093750 4.750000 C28.354173 4.750000 29.312497 4.778646 29.968750 4.835938 C30.625003 4.893229 31.075520 5.007812 31.320312 5.179688 C31.565105 5.351563 31.687500 5.609373 31.687500 5.953125 C31.687500 6.182293 31.630209 6.463540 31.515625 6.796875 C31.401041 7.130210 31.166668 7.640622 30.812500 8.328125 C30.635416 8.682293 30.390627 8.950520 30.078125 9.132812 C29.765623 9.315105 29.411460 9.406250 29.015625 9.406250 L28.515625 9.406250 C28.786460 9.479167 29.010416 9.635415 29.187500 9.875000 C29.364584 10.114585 29.453125 10.369790 29.453125 10.640625 C29.453125 10.984377 29.315106 11.395831 29.039062 11.875000 C28.763019 12.354169 28.388023 12.859372 27.914062 13.390625 C27.440102 13.921878 26.903649 14.440102 26.304688 14.945312 C25.705726 15.450523 25.088545 15.906248 24.453125 16.312500 C23.744788 18.260426 22.895838 19.809890 21.906250 20.960938 C20.916662 22.111985 19.822923 22.885415 18.625000 23.281250 C18.718750 23.562501 18.778646 23.861978 18.804688 24.179688 C18.830729 24.497397 18.843750 24.822915 18.843750 25.156250 C18.843750 25.979171 18.640627 26.755205 18.234375 27.484375 C17.828123 28.213545 17.309899 28.804685 16.679688 29.257812 C16.049476 29.710940 15.406253 29.937500 14.750000 29.937500 Z M8.062500 31.031250 C7.812499 31.031250 7.645834 30.828127 7.562500 30.421875 C7.510416 30.140624 7.372397 29.851564 7.148438 29.554688 C6.924478 29.257811 6.583336 29.109375 6.125000 29.109375 L5.296875 29.109375 C4.640622 29.109375 4.312500 28.880211 4.312500 28.421875 C4.312500 27.994790 4.591143 27.598960 5.148438 27.234375 C5.705732 26.869790 6.312497 26.687500 6.968750 26.687500 C7.635420 26.687500 8.179685 26.869790 8.601562 27.234375 C9.023440 27.598960 9.234375 28.109372 9.234375 28.765625 C9.234375 29.307294 9.111980 29.820310 8.867188 30.304688 C8.622395 30.789065 8.354168 31.031250 8.062500 31.031250 Z M14.828125 32.812500 C14.567707 32.812500 14.395834 32.609377 14.312500 32.203125 C14.260416 31.921874 14.156251 31.632814 14.000000 31.335938 C13.843749 31.039061 13.536461 30.890625 13.078125 30.890625 L12.234375 30.890625 C11.848956 30.890625 11.656250 30.750001 11.656250 30.468750 C11.656250 29.885414 11.867185 29.406252 12.289062 29.031250 C12.710940 28.656248 13.255205 28.468750 13.921875 28.468750 C14.588545 28.468750 15.132810 28.664061 15.554688 29.054688 C15.976565 29.445314 16.187500 29.942705 16.187500 30.546875 C16.187500 31.088544 16.039064 31.601560 15.742188 32.085938 C15.445311 32.570315 15.140627 32.812500 14.828125 32.812500 Z M6.390625 16.015625 C6.244791 16.015625 6.109376 15.955730 5.984375 15.835938 C5.859374 15.716145 5.796875 15.588542 5.796875 15.453125 C5.796875 15.244791 5.924478 15.002606 6.179688 14.726562 C6.434897 14.450519 6.656249 14.312500 6.843750 14.312500 C6.979167 14.312500 7.096354 14.377604 7.195312 14.507812 C7.294271 14.638021 7.343750 14.791666 7.343750 14.968750 C7.343750 15.229168 7.244793 15.468749 7.046875 15.687500 C6.848957 15.906251 6.630210 16.015625 6.390625 16.015625 Z M17.968750 30.109375 C17.708332 30.109375 17.453126 30.041667 17.203125 29.906250 C16.953124 29.770833 16.656252 29.541668 16.312500 29.218750 L17.828125 26.406250 L18.390625 22.812500 C18.630210 22.833333 19.023435 22.994790 19.570312 23.296875 C20.117190 23.598960 20.708330 23.966144 21.343750 24.398438 C21.979170 24.830731 22.562497 25.260415 23.093750 25.687500 C23.625003 26.114585 23.994791 26.468749 24.203125 26.750000 C24.203125 27.364586 23.989585 27.877602 23.562500 28.289062 C23.135415 28.700523 22.598962 28.906250 21.953125 28.906250 C21.869791 29.250002 21.656252 29.531249 21.312500 29.750000 C20.968748 29.968751 20.567711 30.078125 20.109375 30.078125 C19.755207 30.078125 19.395835 29.994792 19.031250 29.828125 C18.656248 30.015626 18.302085 30.109375 17.968750 30.109375 Z M10.093750 23.625000 L8.921875 21.593750 L9.343750 19.921875 L10.953125 20.500000 L10.734375 18.421875 L12.406250 18.859375 L11.437500 15.609375 L9.312500 14.078125 C8.822914 13.723957 8.361981 13.424480 7.929688 13.179688 C7.497394 12.934895 7.083335 12.812500 6.687500 12.812500 C5.864579 12.812500 5.218752 13.046873 4.750000 13.515625 C4.281248 13.984377 4.046875 14.520830 4.046875 15.125000 C4.046875 15.583336 4.187499 15.940103 4.468750 16.195312 C4.750001 16.450522 5.145831 16.578125 5.656250 16.578125 C5.864584 16.578125 6.138019 16.567708 6.476562 16.546875 C6.815106 16.526042 7.197915 16.494792 7.625000 16.453125 C7.625000 16.588542 7.473960 16.804686 7.171875 17.101562 C6.869790 17.398439 6.473961 17.723957 5.984375 18.078125 L5.640625 18.328125 C5.255206 18.598960 4.994792 18.874999 4.859375 19.156250 C4.723958 19.437501 4.656250 19.828122 4.656250 20.328125 C4.177081 20.328125 3.718752 20.085940 3.281250 19.601562 C2.843748 19.117185 2.625000 18.578128 2.625000 17.984375 C2.625000 17.703124 2.679687 17.427085 2.789062 17.156250 C2.898438 16.885415 3.052082 16.630210 3.250000 16.390625 C2.197911 15.276036 1.393232 14.078131 0.835938 12.796875 C0.278643 11.515619 0.000000 10.223965 0.000000 8.921875 C0.000000 7.703119 0.218748 6.557297 0.656250 5.484375 C1.093752 4.411453 1.666663 3.463546 2.375000 2.640625 C3.083337 1.817704 3.854162 1.171877 4.687500 0.703125 C5.520838 0.234373 6.333329 -0.000000 7.125000 -0.000000 C7.385418 -0.000000 7.515625 0.151040 7.515625 0.453125 C7.515625 0.651043 7.453126 0.888019 7.328125 1.164062 C7.203124 1.440106 7.015626 1.776040 6.765625 2.171875 L6.531250 2.546875 C6.302082 2.911460 6.119792 3.249998 5.984375 3.562500 C5.848958 3.875002 5.781250 4.130207 5.781250 4.328125 C5.781250 4.453126 5.833333 4.515625 5.937500 4.515625 C6.041667 4.515625 6.218749 4.429688 6.468750 4.257812 C6.718751 4.085937 7.067706 3.822918 7.515625 3.468750 L7.906250 3.156250 C8.375002 2.781248 8.718749 2.528646 8.937500 2.398438 C9.156251 2.268229 9.307291 2.203125 9.390625 2.203125 C9.609376 2.203125 9.770833 2.437498 9.875000 2.906250 C9.979167 3.375002 10.072916 3.945309 10.156250 4.617188 C10.239584 5.289066 10.351562 5.945309 10.492188 6.585938 C10.632813 7.226566 10.843749 7.718748 11.125000 8.062500 L11.484375 8.500000 C12.213545 9.385421 12.664062 10.236975 12.835938 11.054688 C13.007813 11.872400 13.093750 12.697913 13.093750 13.531250 C13.093750 13.843752 13.080729 14.130207 13.054688 14.390625 C13.028646 14.651043 12.994792 14.885416 12.953125 15.093750 L14.437500 20.500000 L12.218750 20.000000 L12.406250 22.375000 L10.437500 21.750000 Z M36.156250 27.343750" /></svg>