<svg version="1.1" xmlns="http://www.w3.org/2000/svg" style="fill:rgba(0,0,0,1.0)" width="256" height="256" viewBox="0 0 36.90625 32.8125"><path fill="rgb(255, 255, 255)" d="M4.015625 32.812500 C3.619790 32.812500 3.190106 32.682293 2.726562 32.421875 C2.263019 32.161457 1.825523 31.825523 1.414062 31.414062 C1.002602 31.002602 0.664064 30.567711 0.398438 30.109375 C0.132811 29.651039 0.000000 29.223960 0.000000 28.828125 C0.000000 28.328122 0.148436 27.950522 0.445312 27.695312 C0.742189 27.440103 1.096352 27.205730 1.507812 26.992188 C1.919273 26.778645 2.291665 26.484377 2.625000 26.109375 C2.302082 25.369788 2.091146 24.776044 1.992188 24.328125 C1.893229 23.880206 1.843750 23.322920 1.843750 22.656250 C1.843750 21.531244 2.026040 20.348965 2.390625 19.109375 C2.755210 17.869785 3.273434 16.638027 3.945312 15.414062 C4.617191 14.190098 5.421870 13.046880 6.359375 11.984375 C7.765632 10.390617 8.859371 9.104172 9.640625 8.125000 C10.421879 7.145828 10.968748 6.356774 11.281250 5.757812 C11.593752 5.158851 11.750000 4.645835 11.750000 4.218750 C11.750000 3.854165 11.651043 3.578126 11.453125 3.390625 C11.255207 3.203124 10.963544 3.109375 10.578125 3.109375 C9.953122 3.109375 9.276045 3.369789 8.546875 3.890625 C8.546875 3.244788 8.747394 2.640628 9.148438 2.078125 C9.549481 1.515622 10.075518 1.062502 10.726562 0.718750 C11.377607 0.374998 12.072913 0.203125 12.812500 0.203125 C13.583337 0.203125 14.247393 0.401040 14.804688 0.796875 C15.361982 1.192710 15.817707 1.791663 16.171875 2.593750 C16.442710 2.156248 16.705728 1.700523 16.960938 1.226562 C17.216147 0.752602 17.416666 0.354168 17.562500 0.031250 C18.166670 0.458335 18.684894 0.992184 19.117188 1.632812 C19.549481 2.273441 19.838541 2.937497 19.984375 3.625000 C20.192709 2.791663 20.591143 2.132815 21.179688 1.648438 C21.768232 1.164060 22.453121 0.921875 23.234375 0.921875 C23.473960 0.921875 23.713540 0.950521 23.953125 1.007812 C24.192710 1.065104 24.416666 1.151041 24.625000 1.265625 C24.895835 0.880206 25.273435 0.572918 25.757812 0.343750 C26.242190 0.114582 26.739581 -0.000000 27.250000 -0.000000 C28.062504 -0.000000 28.734372 0.281247 29.265625 0.843750 C29.796878 1.406253 30.062500 2.119787 30.062500 2.984375 C30.062500 3.661462 29.901043 4.244789 29.578125 4.734375 C29.953127 5.203127 30.140625 5.833329 30.140625 6.625000 C30.140625 7.406254 29.908856 8.132809 29.445312 8.804688 C28.981769 9.476566 28.401045 9.916666 27.703125 10.125000 C27.723958 10.197917 27.736979 10.270833 27.742188 10.343750 C27.747396 10.416667 27.750000 10.494791 27.750000 10.578125 C27.750000 10.776043 27.726563 10.979166 27.679688 11.187500 C27.632812 11.395834 27.567709 11.598957 27.484375 11.796875 L25.109375 12.453125 C25.442710 12.057290 25.684895 11.669273 25.835938 11.289062 C25.986980 10.908852 26.062500 10.515627 26.062500 10.109375 C26.062500 9.765623 26.015625 9.375002 25.921875 8.937500 C26.703129 8.791666 27.289061 8.523439 27.679688 8.132812 C28.070314 7.742186 28.265625 7.234378 28.265625 6.609375 C28.265625 6.276040 28.213542 5.955731 28.109375 5.648438 C28.005208 5.341144 27.854168 5.062501 27.656250 4.812500 C28.093752 4.260414 28.312500 3.708336 28.312500 3.156250 C28.312500 2.739581 28.190105 2.398439 27.945312 2.132812 C27.700520 1.867186 27.395835 1.734375 27.031250 1.734375 C26.645831 1.734375 26.263023 1.864582 25.882812 2.125000 C25.502602 2.385418 25.208334 2.713540 25.000000 3.109375 C24.489581 2.890624 24.005211 2.781250 23.546875 2.781250 C22.828121 2.781250 22.255210 3.057289 21.828125 3.609375 C21.401040 4.161461 21.171875 4.921870 21.140625 5.890625 C20.973958 5.869792 20.812501 5.854167 20.656250 5.843750 C20.499999 5.833333 20.333334 5.828125 20.156250 5.828125 C19.166662 5.828125 18.437502 6.067706 17.968750 6.546875 C17.499998 7.026044 17.265625 7.776037 17.265625 8.796875 C17.265625 8.932292 17.265625 9.039062 17.265625 9.117188 C17.265625 9.195313 17.270833 9.276041 17.281250 9.359375 C16.937498 9.317708 16.671876 9.296875 16.484375 9.296875 C15.588537 9.296875 14.893232 9.510415 14.398438 9.937500 C13.903643 10.364585 13.656250 10.973954 13.656250 11.765625 C13.656250 12.161460 13.708333 12.604164 13.812500 13.093750 C12.729161 13.093750 11.898440 13.359372 11.320312 13.890625 C10.742185 14.421878 10.453125 15.171870 10.453125 16.140625 C10.453125 16.546877 10.489583 16.916665 10.562500 17.250000 C9.770829 17.322917 9.140627 17.596352 8.671875 18.070312 C8.203123 18.544273 7.968750 19.166663 7.968750 19.937500 C7.968750 20.395836 8.052082 20.854164 8.218750 21.312500 C7.989582 21.447917 7.809896 21.627603 7.679688 21.851562 C7.549479 22.075522 7.484375 22.338540 7.484375 22.640625 C7.484375 22.890626 7.528645 23.145832 7.617188 23.406250 C7.705730 23.666668 7.833332 23.916665 8.000000 24.156250 L13.296875 19.625000 C15.411469 17.812491 17.492177 16.278652 19.539062 15.023438 C21.585948 13.768223 23.578115 12.807295 25.515625 12.140625 C26.171878 11.911457 26.802080 11.723959 27.406250 11.578125 C28.010420 11.432291 28.601560 11.322917 29.179688 11.250000 C29.757815 11.177083 30.322914 11.140625 30.875000 11.140625 C31.333336 11.140625 31.755206 11.171875 32.140625 11.234375 C32.526044 11.296875 32.874998 11.385416 33.187500 11.500000 C32.156245 12.229170 31.309899 12.841143 30.648438 13.335938 C29.986976 13.830732 29.414065 14.276040 28.929688 14.671875 C28.445310 15.067710 27.947919 15.494789 27.437500 15.953125 C27.520834 15.953125 27.598958 15.953125 27.671875 15.953125 C27.744792 15.953125 27.817708 15.953125 27.890625 15.953125 C28.807296 15.953125 29.544268 16.210935 30.101562 16.726562 C30.658857 17.242190 30.937500 17.921871 30.937500 18.765625 C30.937500 19.588546 30.679690 20.296872 30.164062 20.890625 C29.648435 21.484378 29.005212 21.838541 28.234375 21.953125 C28.161458 21.401039 28.054688 21.007814 27.914062 20.773438 C27.773437 20.539061 27.531252 20.421875 27.187500 20.421875 C26.937499 20.421875 26.627606 20.507812 26.257812 20.679688 C25.888019 20.851563 25.372399 21.190102 24.710938 21.695312 C24.049476 22.200523 23.151047 22.958328 22.015625 23.968750 L20.031250 25.718750 C18.604160 26.979173 17.335943 27.976559 16.226562 28.710938 C15.117182 29.445316 14.078130 29.966144 13.109375 30.273438 C12.140620 30.580731 11.145838 30.734375 10.125000 30.734375 C9.552080 30.734375 8.947920 30.684896 8.312500 30.585938 C7.677080 30.486979 7.088544 30.354168 6.546875 30.187500 C6.223957 30.552085 5.960939 30.937498 5.757812 31.343750 C5.554686 31.750002 5.330730 32.096353 5.085938 32.382812 C4.841145 32.669272 4.484377 32.812500 4.015625 32.812500 Z M3.921875 31.109375 C4.130209 31.109375 4.304687 30.955731 4.445312 30.648438 C4.585938 30.341144 4.776040 29.960940 5.015625 29.507812 C5.255210 29.054685 5.619789 28.614585 6.109375 28.187500 C6.901046 28.416668 7.617184 28.585937 8.257812 28.695312 C8.898441 28.804688 9.520830 28.859375 10.125000 28.859375 C11.000004 28.859375 11.851558 28.721356 12.679688 28.445312 C13.507817 28.169269 14.419266 27.700524 15.414062 27.039062 C16.408859 26.377601 17.583327 25.468756 18.937500 24.312500 L20.953125 22.593750 C22.244798 21.489578 23.278642 20.653649 24.054688 20.085938 C24.830733 19.518226 25.468748 19.132814 25.968750 18.929688 C26.468752 18.726561 26.947914 18.625000 27.406250 18.625000 C27.822919 18.625000 28.164061 18.690104 28.429688 18.820312 C28.695314 18.950521 28.911458 19.119791 29.078125 19.328125 C29.161459 19.109374 29.203125 18.921876 29.203125 18.765625 C29.203125 18.307289 28.973961 17.940106 28.515625 17.664062 C28.057289 17.388019 27.437504 17.250000 26.656250 17.250000 C26.208331 17.250000 25.755211 17.286458 25.296875 17.359375 C24.838539 17.432292 24.390627 17.526041 23.953125 17.640625 C24.640628 16.807288 25.390621 15.992191 26.203125 15.195312 C27.015629 14.398434 28.078118 13.531255 29.390625 12.593750 C27.713533 12.989585 26.031258 13.557288 24.343750 14.296875 C22.656242 15.036462 20.986987 15.934891 19.335938 16.992188 C17.684888 18.049484 16.057300 19.270826 14.453125 20.656250 L7.625000 26.546875 C6.927080 26.088539 6.416668 25.546878 6.093750 24.921875 C5.770832 24.296872 5.609375 23.682295 5.609375 23.078125 C5.609375 22.255204 5.848956 21.614586 6.328125 21.156250 C6.265625 20.927082 6.216146 20.700522 6.179688 20.476562 C6.143229 20.252603 6.125000 20.015626 6.125000 19.765625 C6.125000 18.817704 6.385414 18.005212 6.906250 17.328125 C7.427086 16.651038 8.098954 16.260417 8.921875 16.156250 C8.890625 16.052083 8.867188 15.929688 8.851562 15.789062 C8.835937 15.648437 8.828125 15.510417 8.828125 15.375000 C8.828125 14.739580 8.968749 14.156253 9.250000 13.625000 C9.531251 13.093747 9.919268 12.669272 10.414062 12.351562 C10.908857 12.033853 11.473955 11.875000 12.109375 11.875000 C12.046875 11.666666 12.015625 11.421876 12.015625 11.140625 C12.015625 10.494788 12.164061 9.919273 12.460938 9.414062 C12.757814 8.908852 13.156248 8.510418 13.656250 8.218750 C14.156252 7.927082 14.703122 7.781250 15.296875 7.781250 C15.380209 7.781250 15.455729 7.783854 15.523438 7.789062 C15.591146 7.794271 15.656250 7.807292 15.718750 7.828125 C15.708333 7.776041 15.703125 7.721354 15.703125 7.664062 C15.703125 7.606771 15.703125 7.557292 15.703125 7.515625 C15.703125 6.713538 15.973956 6.010420 16.515625 5.406250 C17.057294 4.802080 17.744788 4.432292 18.578125 4.296875 C18.526041 3.942707 18.445313 3.609377 18.335938 3.296875 C18.226562 2.984373 18.067709 2.687501 17.859375 2.406250 C17.515623 3.239587 17.138023 3.872394 16.726562 4.304688 C16.315102 4.736981 15.864586 5.041666 15.375000 5.218750 C15.249999 4.635414 15.075522 4.083336 14.851562 3.562500 C14.627603 3.041664 14.328127 2.617189 13.953125 2.289062 C13.578123 1.960936 13.083336 1.796875 12.468750 1.796875 C12.166665 1.796875 11.880210 1.838541 11.609375 1.921875 C12.203128 2.005209 12.669269 2.249998 13.007812 2.656250 C13.346356 3.062502 13.515625 3.583330 13.515625 4.218750 C13.515625 4.739586 13.419272 5.257810 13.226562 5.773438 C13.033853 6.289065 12.713544 6.874997 12.265625 7.531250 C11.817706 8.187503 11.213545 8.971350 10.453125 9.882812 C9.692705 10.794275 8.739589 11.906243 7.593750 13.218750 C6.770829 14.156255 6.070315 15.174474 5.492188 16.273438 C4.914060 17.372401 4.473960 18.471349 4.171875 19.570312 C3.869790 20.669276 3.718750 21.697912 3.718750 22.656250 C3.718750 23.270836 3.786458 23.846351 3.921875 24.382812 C4.057292 24.919274 4.286457 25.598954 4.609375 26.421875 C4.109372 27.088545 3.651044 27.565103 3.234375 27.851562 C2.817706 28.138022 2.484376 28.338541 2.234375 28.453125 C1.984374 28.567709 1.859375 28.718749 1.859375 28.906250 C1.859375 29.041667 1.927083 29.231770 2.062500 29.476562 C2.197917 29.721355 2.369791 29.968749 2.578125 30.218750 C2.786459 30.468751 3.010415 30.679687 3.250000 30.851562 C3.489585 31.023438 3.713541 31.109375 3.921875 31.109375 Z M10.203125 22.796875 C10.776045 22.244789 11.231769 21.656253 11.570312 21.031250 C11.908856 20.406247 12.078125 19.760420 12.078125 19.093750 C12.078125 18.635414 11.994792 18.187502 11.828125 17.750000 C12.817713 17.739583 13.598955 17.507815 14.171875 17.054688 C14.744795 16.601560 15.031250 15.895838 15.031250 14.937500 C15.031250 14.489581 14.968751 14.088543 14.843750 13.734375 C15.156252 13.796875 15.458332 13.828125 15.750000 13.828125 C16.541671 13.828125 17.140623 13.638023 17.546875 13.257812 C17.953127 12.877602 18.156250 12.307295 18.156250 11.546875 C18.156250 11.119790 18.093751 10.640628 17.968750 10.109375 C18.020834 10.109375 18.070312 10.109375 18.117188 10.109375 C18.164063 10.109375 18.208333 10.109375 18.250000 10.109375 C19.458339 10.109375 20.320310 9.908856 20.835938 9.507812 C21.351565 9.106769 21.609375 8.411463 21.609375 7.421875 C21.609375 7.276041 21.606771 7.138021 21.601562 7.007812 C21.596354 6.877604 21.588542 6.744792 21.578125 6.609375 C22.119794 6.578125 22.580727 6.526042 22.960938 6.453125 C23.341148 6.380208 23.687498 6.265626 24.000000 6.109375 C24.312502 5.953124 24.635415 5.750001 24.968750 5.500000 C24.624998 6.135420 24.453125 6.755205 24.453125 7.359375 C24.453125 7.651043 24.505208 7.869791 24.609375 8.015625 C23.713537 8.401044 23.083335 8.854164 22.718750 9.375000 C22.354165 9.895836 22.171875 10.593746 22.171875 11.468750 C22.171875 11.885419 22.218750 12.255207 22.312500 12.578125 C22.239583 12.578125 22.166667 12.578125 22.093750 12.578125 C22.020833 12.578125 21.953125 12.578125 21.890625 12.578125 C20.765619 12.578125 19.833337 12.916663 19.093750 13.593750 C18.354163 14.270837 17.984375 15.124995 17.984375 16.156250 C17.984375 16.260417 17.986979 16.367187 17.992188 16.476562 C17.997396 16.585938 18.005208 16.697916 18.015625 16.812500 Z M36.906250 27.343750" /></svg>