<svg version="1.1" xmlns="http://www.w3.org/2000/svg" style="fill:rgba(0,0,0,1.0)" width="256" height="256" viewBox="0 0 36.71875 32.8125"><path fill="rgb(255, 255, 255)" d="M16.406250 32.812500 L12.734375 20.093750 L0.000000 16.406250 L12.734375 12.718750 L16.406250 -0.000000 L20.078125 12.718750 L32.812500 16.406250 L20.078125 20.093750 Z M2.187500 30.031250 L9.656250 18.000000 L11.250000 19.000000 L7.500000 25.031250 L13.875000 21.593750 L14.750000 23.250000 Z M9.656250 14.812500 L2.187500 2.781250 L14.750000 9.562500 L13.875000 11.218750 L7.500000 7.781250 L11.250000 13.812500 Z M16.406250 26.078125 L18.578125 18.593750 L26.062500 16.406250 L18.578125 14.218750 L16.406250 6.734375 L14.234375 14.218750 L6.750000 16.406250 L14.234375 18.593750 Z M30.640625 30.015625 L18.046875 23.250000 L18.921875 21.593750 L25.328125 25.046875 L21.578125 19.000000 L23.171875 18.000000 Z M23.171875 14.812500 L21.578125 13.812500 L25.328125 7.765625 L18.921875 11.218750 L18.046875 9.562500 L30.640625 2.796875 Z M36.718750 27.343750" /></svg>