<svg version="1.1" xmlns="http://www.w3.org/2000/svg" style="fill:rgba(0,0,0,1.0)" width="256" height="256" viewBox="0 0 37.03125 32.59375"><path fill="rgb(255, 255, 255)" d="M7.015625 26.593750 C6.473956 26.593750 6.018231 26.411460 5.648438 26.046875 C5.278644 25.682290 5.093750 25.234378 5.093750 24.703125 C5.093750 24.442707 5.140625 24.213543 5.234375 24.015625 C4.755206 23.963541 4.354168 23.760418 4.031250 23.406250 C3.708332 23.052082 3.546875 22.640627 3.546875 22.171875 C3.546875 21.744790 3.651041 21.385418 3.859375 21.093750 C3.546873 20.937499 3.291668 20.710939 3.093750 20.414062 C2.895832 20.117186 2.796875 19.786460 2.796875 19.421875 C2.796875 18.848955 2.994790 18.380210 3.390625 18.015625 C2.963540 17.671873 2.750000 17.208336 2.750000 16.625000 C2.750000 16.249998 2.843749 15.914064 3.031250 15.617188 C3.218751 15.320311 3.463540 15.088542 3.765625 14.921875 C3.536457 14.609373 3.421875 14.250002 3.421875 13.843750 C3.421875 13.395831 3.557290 13.005210 3.828125 12.671875 C4.098960 12.338540 4.442706 12.119792 4.859375 12.015625 C4.807291 11.807291 4.781250 11.625001 4.781250 11.468750 C4.781250 10.947914 4.968748 10.505210 5.343750 10.140625 C5.718752 9.776040 6.177081 9.593750 6.718750 9.593750 L6.781250 9.593750 C6.770833 9.541666 6.765625 9.463542 6.765625 9.359375 C6.765625 8.859372 6.953123 8.424481 7.328125 8.054688 C7.703127 7.684894 8.151039 7.500000 8.671875 7.500000 C8.817709 7.500000 8.968749 7.515625 9.125000 7.546875 C9.187500 7.109373 9.390623 6.739585 9.734375 6.437500 C10.078127 6.135415 10.484373 5.984375 10.953125 5.984375 C11.390627 5.984375 11.744790 6.098957 12.015625 6.328125 C12.109375 5.932290 12.320311 5.604168 12.648438 5.343750 C12.976564 5.083332 13.359373 4.953125 13.796875 4.953125 C14.338544 4.953125 14.781248 5.140623 15.125000 5.515625 C15.270834 5.244790 15.484374 5.026042 15.765625 4.859375 C16.046876 4.692708 16.364582 4.609375 16.718750 4.609375 C17.072918 4.609375 17.390624 4.692708 17.671875 4.859375 C17.953126 5.026042 18.166666 5.244790 18.312500 5.515625 C18.656252 5.140623 19.098956 4.953125 19.640625 4.953125 C20.078127 4.953125 20.460936 5.083332 20.789062 5.343750 C21.117189 5.604168 21.328125 5.932290 21.421875 6.328125 C21.692710 6.098957 22.046873 5.984375 22.484375 5.984375 C22.953127 5.984375 23.359373 6.135415 23.703125 6.437500 C24.046877 6.739585 24.250000 7.109373 24.312500 7.546875 C24.468751 7.515625 24.619791 7.500000 24.765625 7.500000 C25.286461 7.500000 25.734373 7.684894 26.109375 8.054688 C26.484377 8.424481 26.671875 8.859372 26.671875 9.359375 C26.671875 9.463542 26.666667 9.541666 26.656250 9.593750 L26.718750 9.593750 C27.270836 9.593750 27.731769 9.776040 28.101562 10.140625 C28.471356 10.505210 28.656250 10.947914 28.656250 11.468750 C28.656250 11.625001 28.630209 11.807291 28.578125 12.015625 C28.994794 12.119792 29.338540 12.338540 29.609375 12.671875 C29.880210 13.005210 30.015625 13.395831 30.015625 13.843750 C30.015625 14.250002 29.901043 14.609373 29.671875 14.921875 C29.973960 15.088542 30.218749 15.320311 30.406250 15.617188 C30.593751 15.914064 30.687500 16.249998 30.687500 16.625000 C30.687500 17.208336 30.473960 17.671873 30.046875 18.015625 C30.442710 18.380210 30.640625 18.848955 30.640625 19.421875 C30.640625 19.786460 30.541668 20.117186 30.343750 20.414062 C30.145832 20.710939 29.890627 20.937499 29.578125 21.093750 C29.786459 21.385418 29.890625 21.744790 29.890625 22.171875 C29.890625 22.640627 29.731772 23.052082 29.414062 23.406250 C29.096353 23.760418 28.692711 23.963541 28.203125 24.015625 C28.296875 24.213543 28.343750 24.442707 28.343750 24.703125 C28.343750 25.234378 28.161460 25.682290 27.796875 26.046875 C27.432290 26.411460 26.973961 26.593750 26.421875 26.593750 C26.203124 26.593750 26.031251 26.531251 25.906250 26.406250 L25.906250 22.812500 C25.333330 22.666666 24.934897 22.419273 24.710938 22.070312 C24.486978 21.721352 24.375000 21.333335 24.375000 20.906250 C24.375000 20.666665 24.408854 20.447918 24.476562 20.250000 C24.544271 20.052082 24.614583 19.901042 24.687500 19.796875 C24.322915 19.546874 24.062501 19.273439 23.906250 18.976562 C23.749999 18.679686 23.671875 18.354168 23.671875 18.000000 C23.161456 17.822916 22.791668 17.500002 22.562500 17.031250 C22.385416 17.083334 22.223959 17.109375 22.078125 17.109375 C21.744790 17.109375 21.437501 17.026042 21.156250 16.859375 C20.874999 16.692707 20.651042 16.479168 20.484375 16.218750 C20.140623 16.447918 19.760419 16.562500 19.343750 16.562500 C18.760414 16.562500 18.296877 16.343752 17.953125 15.906250 C17.598957 16.197918 17.187502 16.343750 16.718750 16.343750 C16.249998 16.343750 15.838543 16.197918 15.484375 15.906250 C15.140623 16.343752 14.677086 16.562500 14.093750 16.562500 C13.677081 16.562500 13.296877 16.447918 12.953125 16.218750 C12.786458 16.479168 12.562501 16.692707 12.281250 16.859375 C11.999999 17.026042 11.692710 17.109375 11.359375 17.109375 C11.213541 17.109375 11.052084 17.083334 10.875000 17.031250 C10.645832 17.500002 10.276044 17.822916 9.765625 18.000000 C9.765625 18.354168 9.687501 18.679686 9.531250 18.976562 C9.374999 19.273439 9.114585 19.546874 8.750000 19.796875 C8.833334 19.901042 8.906250 20.052082 8.968750 20.250000 C9.031250 20.447918 9.062500 20.666665 9.062500 20.906250 C9.062500 21.333335 8.950522 21.721352 8.726562 22.070312 C8.502603 22.419273 8.104170 22.666666 7.531250 22.812500 L7.531250 26.406250 C7.406249 26.531251 7.234376 26.593750 7.015625 26.593750 Z M2.734375 32.593750 C1.984371 32.593750 1.341149 32.325524 0.804688 31.789062 C0.268226 31.252601 0.000000 30.609379 0.000000 29.859375 L0.000000 29.500000 L1.875000 29.500000 L1.875000 29.703125 C1.875000 30.015627 1.992186 30.289061 2.226562 30.523438 C2.460939 30.757814 2.734373 30.875000 3.046875 30.875000 L3.515625 30.875000 L3.515625 32.593750 Z M4.765625 32.593750 L4.765625 30.875000 L6.640625 30.875000 L6.640625 32.593750 Z M0.000000 28.250000 L0.000000 26.375000 L1.875000 26.375000 L1.875000 28.250000 Z M7.890625 32.593750 L7.890625 30.875000 L9.765625 30.875000 L9.765625 32.593750 Z M0.000000 25.125000 L0.000000 23.250000 L1.875000 23.250000 L1.875000 25.125000 Z M11.015625 32.593750 L11.015625 30.875000 L12.890625 30.875000 L12.890625 32.593750 Z M0.000000 22.000000 L0.000000 20.125000 L1.875000 20.125000 L1.875000 22.000000 Z M14.140625 32.593750 L14.140625 30.875000 L16.015625 30.875000 L16.015625 32.593750 Z M0.000000 18.875000 L0.000000 17.000000 L1.875000 17.000000 L1.875000 18.875000 Z M17.265625 32.593750 L17.265625 30.875000 L19.140625 30.875000 L19.140625 32.593750 Z M0.000000 15.750000 L0.000000 13.875000 L1.875000 13.875000 L1.875000 15.750000 Z M20.390625 32.593750 L20.390625 30.875000 L22.265625 30.875000 L22.265625 32.593750 Z M0.000000 12.625000 L0.000000 10.750000 L1.875000 10.750000 L1.875000 12.625000 Z M23.515625 32.593750 L23.515625 30.875000 L25.390625 30.875000 L25.390625 32.593750 Z M0.000000 9.500000 L0.000000 7.625000 L1.875000 7.625000 L1.875000 9.500000 Z M26.640625 32.593750 L26.640625 30.875000 L28.515625 30.875000 L28.515625 32.593750 Z M0.000000 6.375000 L0.000000 4.500000 L1.875000 4.500000 L1.875000 6.375000 Z M29.765625 32.593750 L29.765625 30.875000 L30.390625 30.875000 C30.703127 30.875000 30.976561 30.757814 31.210938 30.523438 C31.445314 30.289061 31.562500 30.015627 31.562500 29.703125 L31.562500 29.500000 L33.437500 29.500000 L33.437500 29.859375 C33.437500 30.609379 33.169274 31.252601 32.632812 31.789062 C32.096351 32.325524 31.453129 32.593750 30.703125 32.593750 Z M0.000000 3.250000 L0.000000 2.734375 C0.000000 1.984371 0.268226 1.341149 0.804688 0.804688 C1.341149 0.268226 1.984371 -0.000000 2.734375 -0.000000 L3.515625 -0.000000 L3.515625 1.718750 L3.046875 1.718750 C2.734373 1.718750 2.460939 1.835936 2.226562 2.070312 C1.992186 2.304689 1.875000 2.578123 1.875000 2.890625 L1.875000 3.250000 Z M31.562500 28.250000 L31.562500 26.375000 L33.437500 26.375000 L33.437500 28.250000 Z M4.765625 1.718750 L4.765625 -0.000000 L6.640625 -0.000000 L6.640625 1.718750 Z M31.562500 25.125000 L31.562500 23.250000 L33.437500 23.250000 L33.437500 25.125000 Z M7.890625 1.718750 L7.890625 -0.000000 L9.765625 -0.000000 L9.765625 1.718750 Z M31.562500 22.000000 L31.562500 20.125000 L33.437500 20.125000 L33.437500 22.000000 Z M11.015625 1.718750 L11.015625 -0.000000 L12.890625 -0.000000 L12.890625 1.718750 Z M31.562500 18.875000 L31.562500 17.000000 L33.437500 17.000000 L33.437500 18.875000 Z M14.140625 1.718750 L14.140625 -0.000000 L16.015625 -0.000000 L16.015625 1.718750 Z M31.562500 15.750000 L31.562500 13.875000 L33.437500 13.875000 L33.437500 15.750000 Z M17.265625 1.718750 L17.265625 -0.000000 L19.140625 -0.000000 L19.140625 1.718750 Z M31.562500 12.625000 L31.562500 10.750000 L33.437500 10.750000 L33.437500 12.625000 Z M20.390625 1.718750 L20.390625 -0.000000 L22.265625 -0.000000 L22.265625 1.718750 Z M31.562500 9.500000 L31.562500 7.625000 L33.437500 7.625000 L33.437500 9.500000 Z M23.515625 1.718750 L23.515625 -0.000000 L25.390625 -0.000000 L25.390625 1.718750 Z M31.562500 6.375000 L31.562500 4.500000 L33.437500 4.500000 L33.437500 6.375000 Z M26.640625 1.718750 L26.640625 -0.000000 L28.515625 -0.000000 L28.515625 1.718750 Z M31.562500 3.250000 L31.562500 2.890625 C31.562500 2.578123 31.445314 2.304689 31.210938 2.070312 C30.976561 1.835936 30.703127 1.718750 30.390625 1.718750 L29.765625 1.718750 L29.765625 -0.000000 L30.703125 -0.000000 C31.453129 -0.000000 32.096351 0.268226 32.632812 0.804688 C33.169274 1.341149 33.437500 1.984371 33.437500 2.734375 L33.437500 3.250000 Z M37.031250 27.343750" /></svg>