<svg version="1.1" xmlns="http://www.w3.org/2000/svg" style="fill:rgba(0,0,0,1.0)" width="256" height="256" viewBox="0 0 39.0625 28.125"><path fill="rgb(255, 255, 255)" d="M0.000000 28.125000 L37.500000 28.125000 L37.500000 -0.000000 L0.000000 -0.000000 Z M0.937500 24.859375 L15.093750 24.859375 L15.093750 23.296875 L0.937500 23.296875 Z M6.531250 18.609375 L15.359375 18.609375 L15.359375 17.406250 L7.531250 17.406250 C7.427083 16.760413 7.096357 16.184898 6.539062 15.679688 C5.981768 15.174477 5.348962 14.869792 4.640625 14.765625 L4.640625 7.125000 C5.348962 7.010416 5.981768 6.700523 6.539062 6.195312 C7.096357 5.690102 7.427083 5.119795 7.531250 4.484375 L15.359375 4.484375 L15.359375 3.281250 L6.531250 3.281250 C6.531250 4.145838 6.226566 4.841143 5.617188 5.367188 C5.007809 5.893232 4.281254 6.156250 3.437500 6.156250 L3.437500 15.734375 C4.281254 15.734375 5.007809 15.997393 5.617188 16.523438 C6.226566 17.049482 6.531250 17.744787 6.531250 18.609375 Z M10.609375 15.296875 C9.786454 15.296875 9.083336 15.033857 8.500000 14.507812 C7.916664 13.981768 7.536459 13.223963 7.359375 12.234375 L6.500000 12.234375 L6.500000 11.406250 L7.250000 11.359375 C7.239583 11.296875 7.234375 11.234375 7.234375 11.171875 C7.234375 11.109375 7.234375 11.046875 7.234375 10.984375 C7.234375 10.921875 7.234375 10.861979 7.234375 10.804688 C7.234375 10.747396 7.239583 10.687500 7.250000 10.625000 L6.500000 10.625000 L6.500000 9.812500 L7.359375 9.750000 C7.536459 8.739578 7.929684 7.960940 8.539062 7.414062 C9.148441 6.867185 9.890621 6.593750 10.765625 6.593750 C11.161460 6.593750 11.544269 6.684895 11.914062 6.867188 C12.283856 7.049480 12.598957 7.302082 12.859375 7.625000 L11.906250 8.562500 C11.739583 8.364582 11.557293 8.210938 11.359375 8.101562 C11.161457 7.992187 10.942710 7.937500 10.703125 7.937500 C10.286456 7.937500 9.937501 8.091144 9.656250 8.398438 C9.374999 8.705731 9.177084 9.151039 9.062500 9.734375 L12.046875 9.734375 L12.046875 10.625000 L8.968750 10.625000 C8.968750 10.666667 8.968750 10.713541 8.968750 10.765625 C8.968750 10.817709 8.968750 10.869791 8.968750 10.921875 C8.968750 10.994792 8.968750 11.065104 8.968750 11.132812 C8.968750 11.200521 8.968750 11.270833 8.968750 11.343750 L11.500000 11.343750 L11.500000 12.234375 L9.093750 12.234375 C9.208334 12.776044 9.403644 13.197915 9.679688 13.500000 C9.955731 13.802085 10.296873 13.953125 10.703125 13.953125 C11.213544 13.953125 11.656248 13.703128 12.031250 13.203125 L12.984375 14.078125 C12.682290 14.463544 12.330731 14.763020 11.929688 14.976562 C11.528644 15.190105 11.088544 15.296875 10.609375 15.296875 Z M14.312500 27.015625 L15.875000 27.015625 L15.875000 0.890625 L14.312500 0.890625 Z M1.875000 26.250000 L1.875000 21.890625 L15.125000 21.890625 L15.125000 20.015625 L1.875000 20.015625 L1.875000 1.875000 L35.625000 1.875000 L35.625000 20.015625 L22.390625 20.015625 L22.390625 21.890625 L35.625000 21.890625 L35.625000 26.250000 Z M22.406250 24.859375 L36.562500 24.859375 L36.562500 23.296875 L22.406250 23.296875 Z M21.625000 27.015625 L23.187500 27.015625 L23.187500 0.890625 L21.625000 0.890625 Z M22.140625 18.609375 L30.968750 18.609375 C30.968750 17.744787 31.273434 17.049482 31.882812 16.523438 C32.492191 15.997393 33.218746 15.734375 34.062500 15.734375 L34.062500 6.156250 C33.218746 6.156250 32.492191 5.893232 31.882812 5.367188 C31.273434 4.841143 30.968750 4.145838 30.968750 3.281250 L22.140625 3.281250 L22.140625 4.484375 L29.968750 4.484375 C30.083334 5.119795 30.419268 5.690102 30.976562 6.195312 C31.533857 6.700523 32.161455 7.010416 32.859375 7.125000 L32.859375 14.765625 C32.161455 14.869792 31.533857 15.174477 30.976562 15.679688 C30.419268 16.184898 30.083334 16.760413 29.968750 17.406250 L22.140625 17.406250 Z M39.062500 25.000000" /></svg>