<svg version="1.1" xmlns="http://www.w3.org/2000/svg" style="fill:rgba(0,0,0,1.0)" width="256" height="256" viewBox="0 0 35.25 32.8125"><path fill="rgb(255, 255, 255)" d="M8.640625 28.906250 C6.994783 28.906250 6.020835 28.286465 5.718750 27.046875 C5.656250 27.046875 5.593750 27.046875 5.531250 27.046875 C5.468750 27.046875 5.406250 27.046875 5.343750 27.046875 C3.708325 27.005208 2.408859 26.731773 1.445312 26.226562 C0.481766 25.721352 0.000000 25.057296 0.000000 24.234375 C0.000000 23.671872 0.226560 23.169273 0.679688 22.726562 C1.132815 22.283852 1.864578 21.854169 2.875000 21.437500 C3.645837 21.114582 4.247394 20.757814 4.679688 20.367188 C5.111981 19.976561 5.442707 19.536461 5.671875 19.046875 L7.312500 19.328125 C6.979165 20.119796 6.500003 20.802080 5.875000 21.375000 C5.249997 21.947920 4.406255 22.463539 3.343750 22.921875 C2.739580 23.182293 2.291668 23.424478 2.000000 23.648438 C1.708332 23.872397 1.562500 24.067707 1.562500 24.234375 C1.562500 24.442709 1.755206 24.643228 2.140625 24.835938 C2.526044 25.028647 3.026039 25.184895 3.640625 25.304688 C4.255211 25.424480 4.901038 25.484375 5.578125 25.484375 C5.848960 25.484375 6.124999 25.473958 6.406250 25.453125 C6.687501 25.432292 6.973957 25.401042 7.265625 25.359375 C7.255208 25.463542 7.244792 25.565104 7.234375 25.664062 C7.223958 25.763021 7.218750 25.854166 7.218750 25.937500 C7.218750 26.447919 7.346353 26.809895 7.601562 27.023438 C7.856772 27.236980 8.203123 27.343750 8.640625 27.343750 C9.390629 27.343750 10.223954 27.156252 11.140625 26.781250 L12.656250 26.156250 C12.947918 26.604169 13.286456 26.914062 13.671875 27.085938 C14.057294 27.257813 14.479164 27.343750 14.937500 27.343750 C15.395836 27.343750 15.817706 27.257813 16.203125 27.085938 C16.588544 26.914062 16.927082 26.604169 17.218750 26.156250 L18.734375 26.781250 C19.651046 27.156252 20.484371 27.343750 21.234375 27.343750 C21.671877 27.343750 22.018228 27.236980 22.273438 27.023438 C22.528647 26.809895 22.656250 26.447919 22.656250 25.937500 C22.656250 25.854166 22.653646 25.763021 22.648438 25.664062 C22.643229 25.565104 22.630208 25.463542 22.609375 25.359375 C22.901043 25.401042 23.187499 25.432292 23.468750 25.453125 C23.750001 25.473958 24.026040 25.484375 24.296875 25.484375 C25.411464 25.484375 26.359371 25.354168 27.140625 25.093750 C27.921879 24.833332 28.312500 24.546877 28.312500 24.234375 C28.312500 24.119791 28.192710 23.966147 27.953125 23.773438 C27.713540 23.580728 27.239587 23.354168 26.531250 23.093750 C25.614579 22.749998 24.809899 22.265628 24.117188 21.640625 C23.424476 21.015622 22.848961 20.197922 22.390625 19.187500 L24.031250 19.062500 C24.291668 19.635420 24.656248 20.127602 25.125000 20.539062 C25.593752 20.950523 26.234371 21.338540 27.046875 21.703125 C27.828129 22.057293 28.421873 22.356770 28.828125 22.601562 C29.234377 22.846355 29.510416 23.088540 29.656250 23.328125 C29.802084 23.567710 29.875000 23.869790 29.875000 24.234375 C29.875000 24.828128 29.638023 25.328123 29.164062 25.734375 C28.690102 26.140627 28.049483 26.453124 27.242188 26.671875 C26.434892 26.890626 25.536463 27.015625 24.546875 27.046875 C24.473958 27.046875 24.406250 27.046875 24.343750 27.046875 C24.281250 27.046875 24.218750 27.046875 24.156250 27.046875 C23.854165 28.286465 22.880217 28.906250 21.234375 28.906250 C20.255203 28.906250 19.223964 28.677086 18.140625 28.218750 L17.734375 28.046875 C17.046872 28.619795 16.114589 28.906250 14.937500 28.906250 C13.760411 28.906250 12.828128 28.619795 12.140625 28.046875 L11.734375 28.218750 C10.651036 28.677086 9.619797 28.906250 8.640625 28.906250 Z M14.937500 32.812500 C14.145829 32.812500 13.513023 32.703126 13.039062 32.484375 C12.565102 32.265624 12.328125 31.916669 12.328125 31.437500 C12.328125 31.041665 12.440103 30.684897 12.664062 30.367188 C12.888022 30.049478 13.000000 29.635419 13.000000 29.125000 L13.000000 27.750000 L16.875000 27.750000 L16.875000 29.125000 C16.875000 29.635419 16.986978 30.049478 17.210938 30.367188 C17.434897 30.684897 17.546875 31.041665 17.546875 31.437500 C17.546875 31.916669 17.312502 32.265624 16.843750 32.484375 C16.374998 32.703126 15.739587 32.812500 14.937500 32.812500 Z M13.906250 21.328125 C13.229163 21.328125 12.614586 21.130210 12.062500 20.734375 C11.510414 20.338540 11.020835 19.750004 10.593750 18.968750 C9.906247 19.177084 9.260420 19.317708 8.656250 19.390625 C8.052080 19.463542 7.484378 19.500000 6.953125 19.500000 C6.078121 19.500000 5.278649 19.364585 4.554688 19.093750 C3.830726 18.822915 3.252606 18.455731 2.820312 17.992188 C2.388019 17.528644 2.171875 17.010420 2.171875 16.437500 C2.171875 15.927081 2.385415 15.458335 2.812500 15.031250 C3.239585 14.604165 3.968745 14.156252 5.000000 13.687500 L5.656250 13.390625 C6.666672 12.932289 7.346352 12.544272 7.695312 12.226562 C8.044273 11.908853 8.218750 11.526044 8.218750 11.078125 L9.781250 11.078125 C9.781250 11.869796 9.489586 12.549476 8.906250 13.117188 C8.322914 13.684899 7.291674 14.296872 5.812500 14.953125 C4.999996 15.307293 4.450522 15.606770 4.164062 15.851562 C3.877603 16.096355 3.734375 16.291666 3.734375 16.437500 C3.734375 16.666668 3.888019 16.895832 4.195312 17.125000 C4.502606 17.354168 4.903643 17.546874 5.398438 17.703125 C5.893232 17.859376 6.411456 17.937500 6.953125 17.937500 C7.796879 17.937500 8.562497 17.861980 9.250000 17.710938 C9.937503 17.559895 10.656246 17.312502 11.406250 16.968750 C11.770835 17.947922 12.156248 18.658852 12.562500 19.101562 C12.968752 19.544273 13.416664 19.765625 13.906250 19.765625 C14.354169 19.765625 14.859372 19.630210 15.421875 19.359375 C15.984378 19.088540 16.515622 18.739585 17.015625 18.312500 C17.515628 17.885415 17.890624 17.442711 18.140625 16.984375 C18.671878 17.244793 19.403641 17.471353 20.335938 17.664062 C21.268234 17.856772 22.119788 17.953125 22.890625 17.953125 C23.442711 17.953125 24.005205 17.882813 24.578125 17.742188 C25.151045 17.601562 25.632811 17.427084 26.023438 17.218750 C26.414064 17.010416 26.609375 16.812501 26.609375 16.625000 C26.609375 16.468749 26.463543 16.289064 26.171875 16.085938 C25.880207 15.882811 25.458336 15.666668 24.906250 15.437500 C23.458326 14.812497 22.401045 14.138024 21.734375 13.414062 C21.067705 12.690101 20.734375 11.843755 20.734375 10.875000 L22.296875 10.875000 C22.296875 11.531253 22.486977 12.088539 22.867188 12.546875 C23.247398 13.005211 23.859371 13.406248 24.703125 13.750000 L25.390625 14.031250 C26.317713 14.406252 27.013019 14.789061 27.476562 15.179688 C27.940106 15.570314 28.171875 16.036456 28.171875 16.578125 C28.171875 17.130211 27.945315 17.627602 27.492188 18.070312 C27.039060 18.513023 26.414066 18.864582 25.617188 19.125000 C24.820309 19.385418 23.911463 19.515625 22.890625 19.515625 C22.182288 19.515625 21.442712 19.453126 20.671875 19.328125 C19.901038 19.203124 19.218753 19.036459 18.625000 18.828125 C18.281248 19.276044 17.838544 19.690102 17.296875 20.070312 C16.755206 20.450523 16.187503 20.755207 15.593750 20.984375 C14.999997 21.213543 14.437503 21.328125 13.906250 21.328125 Z M20.218750 15.906250 C19.968749 15.666665 19.726564 15.427085 19.492188 15.187500 C19.257811 14.947915 19.031251 14.687501 18.812500 14.406250 L19.750000 13.562500 C20.010418 13.864585 20.249999 14.132811 20.468750 14.367188 C20.687501 14.601564 20.895832 14.802083 21.093750 14.968750 Z M7.312500 24.093750 L6.640625 23.031250 C6.859376 22.895833 7.093749 22.736980 7.343750 22.554688 C7.593751 22.372395 7.880207 22.156251 8.203125 21.906250 L8.984375 22.906250 C8.703124 23.125001 8.427085 23.333332 8.156250 23.531250 C7.885415 23.729168 7.604168 23.916666 7.312500 24.093750 Z M17.875000 8.875000 C17.624999 8.635415 17.382814 8.395835 17.148438 8.156250 C16.914061 7.916665 16.687501 7.656251 16.468750 7.375000 L17.406250 6.531250 C17.666668 6.833335 17.906249 7.101561 18.125000 7.335938 C18.343751 7.570314 18.552082 7.770833 18.750000 7.937500 Z M14.609375 9.625000 C14.515625 9.291665 14.427084 8.963543 14.343750 8.640625 C14.260416 8.317707 14.187500 7.979168 14.125000 7.625000 L15.375000 7.359375 C15.520834 8.140629 15.671874 8.770831 15.828125 9.250000 Z M15.406250 12.921875 C15.937503 12.921875 16.289062 12.643232 16.460938 12.085938 C16.632813 11.528643 16.755208 10.791671 16.828125 9.875000 C17.651046 10.114585 18.364580 10.263021 18.968750 10.320312 C19.572920 10.377604 20.119789 10.406250 20.609375 10.406250 C21.078127 10.406250 21.486977 10.312501 21.835938 10.125000 C22.184898 9.937499 22.359375 9.744793 22.359375 9.546875 C22.359375 9.286457 22.210939 9.020835 21.914062 8.750000 C21.617186 8.479165 21.190107 8.130210 20.632812 7.703125 C20.075518 7.276040 19.406254 6.713545 18.625000 6.015625 C17.885413 5.348955 17.283856 4.671878 16.820312 3.984375 C16.356769 3.296872 15.984376 2.721356 15.703125 2.257812 C15.421874 1.794269 15.166668 1.562500 14.937500 1.562500 C14.770832 1.562500 14.562501 1.721353 14.312500 2.039062 C14.062499 2.356772 13.783856 2.760414 13.476562 3.250000 C13.169269 3.739586 12.841148 4.244789 12.492188 4.765625 C12.143227 5.286461 11.781252 5.755206 11.406250 6.171875 C10.749997 6.890629 10.125003 7.460935 9.531250 7.882812 C8.937497 8.304690 8.453127 8.648436 8.078125 8.914062 C7.703123 9.179689 7.515625 9.442707 7.515625 9.703125 C7.515625 9.901043 7.734373 10.067708 8.171875 10.203125 C8.609377 10.338542 9.130205 10.406250 9.734375 10.406250 C10.703130 10.406250 11.692703 10.197919 12.703125 9.781250 C13.171877 11.010423 13.638019 11.841144 14.101562 12.273438 C14.565106 12.705731 14.999998 12.921875 15.406250 12.921875 Z M15.406250 14.484375 C14.729163 14.484375 14.065107 14.244794 13.414062 13.765625 C12.763018 13.286456 12.250002 12.572921 11.875000 11.625000 C11.427081 11.770834 11.033856 11.867187 10.695312 11.914062 C10.356769 11.960938 9.963544 11.984375 9.515625 11.984375 C8.442703 11.984375 7.580732 11.768231 6.929688 11.335938 C6.278643 10.903644 5.953125 10.343753 5.953125 9.656250 C5.953125 9.124997 6.200518 8.638023 6.695312 8.195312 C7.190107 7.752602 7.783851 7.286461 8.476562 6.796875 C9.169274 6.307289 9.807289 5.739587 10.390625 5.093750 C10.807294 4.624998 11.208331 4.101565 11.593750 3.523438 C11.979169 2.945310 12.354165 2.388024 12.718750 1.851562 C13.083335 1.315101 13.447915 0.872398 13.812500 0.523438 C14.177085 0.174477 14.552081 -0.000000 14.937500 -0.000000 C15.354169 -0.000000 15.723957 0.151040 16.046875 0.453125 C16.369793 0.755210 16.692707 1.151039 17.015625 1.640625 C17.338543 2.130211 17.708331 2.664060 18.125000 3.242188 C18.541669 3.820315 19.046872 4.385414 19.640625 4.937500 C20.338545 5.572920 21.013018 6.135414 21.664062 6.625000 C22.315107 7.114586 22.854165 7.583331 23.281250 8.031250 C23.708335 8.479169 23.921875 8.968747 23.921875 9.500000 C23.921875 10.187503 23.585941 10.773435 22.914062 11.257812 C22.242184 11.742190 21.442713 11.984375 20.515625 11.984375 C19.984372 11.984375 19.526044 11.968750 19.140625 11.937500 C18.755206 11.906250 18.416668 11.854167 18.125000 11.781250 C18.020833 12.510420 17.739586 13.143226 17.281250 13.679688 C16.822914 14.216149 16.197921 14.484375 15.406250 14.484375 Z M8.484375 16.656250 L7.984375 15.484375 C8.223960 15.390625 8.481769 15.273438 8.757812 15.132812 C9.033856 14.992187 9.354165 14.822918 9.718750 14.625000 L10.328125 15.750000 C10.015623 15.916667 9.705731 16.075520 9.398438 16.226562 C9.091144 16.377605 8.786460 16.520833 8.484375 16.656250 Z M10.734375 25.593750 L9.609375 25.015625 C9.734376 24.786457 9.856770 24.531251 9.976562 24.250000 C10.096355 23.968749 10.234374 23.635419 10.390625 23.250000 L11.578125 23.718750 C11.442708 24.041668 11.307292 24.359373 11.171875 24.671875 C11.036458 24.984377 10.890626 25.291665 10.734375 25.593750 Z M19.359375 24.656250 C19.203124 24.354165 19.057292 24.046877 18.921875 23.734375 C18.786458 23.421873 18.651042 23.104168 18.515625 22.781250 L19.703125 22.312500 C19.859376 22.697919 19.997395 23.031249 20.117188 23.312500 C20.236980 23.593751 20.359374 23.848957 20.484375 24.078125 Z M35.250000 27.343750" /></svg>