<svg version="1.1" xmlns="http://www.w3.org/2000/svg" style="fill:rgba(0,0,0,1.0)" width="256" height="256" viewBox="0 0 38.75 26.5625"><path fill="rgb(255, 255, 255)" d="M18.437500 26.562500 C15.812487 26.562500 13.320324 26.028651 10.960938 24.960938 C8.601551 23.893224 6.481780 22.364593 4.601562 20.375000 C2.721345 18.385407 1.187506 16.020847 0.000000 13.281250 C1.177089 10.552070 2.710928 8.195322 4.601562 6.210938 C6.492197 4.226553 8.622384 2.695318 10.992188 1.617188 C13.361991 0.539057 15.843737 -0.000000 18.437500 -0.000000 C21.041680 -0.000000 23.526030 0.539057 25.890625 1.617188 C28.255220 2.695318 30.382803 4.226553 32.273438 6.210938 C34.164072 8.195322 35.697911 10.552070 36.875000 13.281250 C35.687494 16.020847 34.153655 18.385407 32.273438 20.375000 C30.393220 22.364593 28.273449 23.893224 25.914062 24.960938 C23.554676 26.028651 21.062513 26.562500 18.437500 26.562500 Z M18.437500 24.843750 C20.718761 24.843750 22.903635 24.377609 24.992188 23.445312 C27.080740 22.513016 28.968742 21.190113 30.656250 19.476562 C32.343758 17.763012 33.723953 15.729178 34.796875 13.375000 C33.109367 11.156239 31.385425 9.317716 29.625000 7.859375 C27.864575 6.401034 26.057301 5.312504 24.203125 4.593750 C22.348949 3.874996 20.432302 3.515625 18.453125 3.515625 C16.463532 3.515625 14.539072 3.874996 12.679688 4.593750 C10.820303 5.312504 9.010425 6.401034 7.250000 7.859375 C5.489575 9.317716 3.765633 11.156239 2.078125 13.375000 C3.151047 15.729178 4.531242 17.763012 6.218750 19.476562 C7.906258 21.190113 9.794260 22.513016 11.882812 23.445312 C13.971365 24.377609 16.156239 24.843750 18.437500 24.843750 Z M18.437500 23.906250 C16.958326 23.906250 15.567715 23.630211 14.265625 23.078125 C12.963535 22.526039 11.817713 21.760422 10.828125 20.781250 C9.838537 19.802078 9.062503 18.671881 8.500000 17.390625 C7.937497 16.109369 7.656250 14.739591 7.656250 13.281250 C7.656250 11.822909 7.937497 10.453131 8.500000 9.171875 C9.062503 7.890619 9.838537 6.763026 10.828125 5.789062 C11.817713 4.815099 12.963535 4.049482 14.265625 3.492188 C15.567715 2.934893 16.958326 2.656250 18.437500 2.656250 C19.916674 2.656250 21.307285 2.934893 22.609375 3.492188 C23.911465 4.049482 25.057287 4.815099 26.046875 5.789062 C27.036463 6.763026 27.812497 7.890619 28.375000 9.171875 C28.937503 10.453131 29.218750 11.822909 29.218750 13.281250 C29.218750 14.739591 28.937503 16.109369 28.375000 17.390625 C27.812497 18.671881 27.036463 19.802078 26.046875 20.781250 C25.057287 21.760422 23.911465 22.526039 22.609375 23.078125 C21.307285 23.630211 19.916674 23.906250 18.437500 23.906250 Z M18.437500 22.187500 C19.666673 22.187500 20.820307 21.955731 21.898438 21.492188 C22.976568 21.028644 23.921871 20.390629 24.734375 19.578125 C25.546879 18.765621 26.184894 17.820318 26.648438 16.742188 C27.111981 15.664057 27.343750 14.510423 27.343750 13.281250 C27.343750 12.052077 27.111981 10.901047 26.648438 9.828125 C26.184894 8.755203 25.544275 7.809900 24.726562 6.992188 C23.908850 6.174475 22.963547 5.533856 21.890625 5.070312 C20.817703 4.606769 19.666673 4.375000 18.437500 4.375000 C17.208327 4.375000 16.057297 4.606769 14.984375 5.070312 C13.911453 5.533856 12.966150 6.174475 12.148438 6.992188 C11.330725 7.809900 10.690106 8.755203 10.226562 9.828125 C9.763019 10.901047 9.531250 12.052077 9.531250 13.281250 C9.531250 14.510423 9.763019 15.664057 10.226562 16.742188 C10.690106 17.820318 11.328121 18.765621 12.140625 19.578125 C12.953129 20.390629 13.898432 21.028644 14.976562 21.492188 C16.054693 21.955731 17.208327 22.187500 18.437500 22.187500 Z M18.437500 18.046875 C17.562496 18.046875 16.763024 17.833335 16.039062 17.406250 C15.315101 16.979165 14.739585 16.403649 14.312500 15.679688 C13.885415 14.955726 13.671875 14.156254 13.671875 13.281250 C13.671875 12.406246 13.885415 11.609379 14.312500 10.890625 C14.739585 10.171871 15.315101 9.598960 16.039062 9.171875 C16.763024 8.744790 17.562496 8.531250 18.437500 8.531250 C19.312504 8.531250 20.109371 8.744790 20.828125 9.171875 C21.546879 9.598960 22.119790 10.171871 22.546875 10.890625 C22.973960 11.609379 23.187500 12.406246 23.187500 13.281250 C23.187500 14.156254 22.973960 14.955726 22.546875 15.679688 C22.119790 16.403649 21.546879 16.979165 20.828125 17.406250 C20.109371 17.833335 19.312504 18.046875 18.437500 18.046875 Z M38.750000 24.218750" /></svg>