<svg version="1.1" xmlns="http://www.w3.org/2000/svg" style="fill:rgba(0,0,0,1.0)" width="256" height="256" viewBox="0 0 36.875 33.59375"><path fill="rgb(255, 255, 255)" d="M12.390625 32.187500 C10.557282 31.749998 8.882820 31.059901 7.367188 30.117188 C5.851555 29.174474 4.544276 28.015632 3.445312 26.640625 C2.346349 25.265618 1.497399 23.713550 0.898438 21.984375 C0.299476 20.255200 0.000000 18.395843 0.000000 16.406250 C0.000000 14.052072 0.414058 11.877614 1.242188 9.882812 C2.070317 7.888011 3.229159 6.151049 4.718750 4.671875 C6.208341 3.192701 7.960927 2.044275 9.976562 1.226562 C11.992198 0.408850 14.187488 -0.000000 16.562500 -0.000000 C18.937512 -0.000000 21.132802 0.408850 23.148438 1.226562 C25.164073 2.044275 26.916659 3.192701 28.406250 4.671875 C29.895841 6.151049 31.054683 7.888011 31.882812 9.882812 C32.710942 11.877614 33.125000 14.052072 33.125000 16.406250 C33.125000 18.395843 32.825524 20.255200 32.226562 21.984375 C31.627601 23.713550 30.778651 25.265618 29.679688 26.640625 C28.580724 28.015632 27.273445 29.174474 25.757812 30.117188 C24.242180 31.059901 22.567718 31.749998 20.734375 32.187500 L21.640625 30.125000 C23.098966 29.635414 24.419265 28.958338 25.601562 28.093750 C26.783860 27.229162 27.796871 26.205735 28.640625 25.023438 C29.484379 23.841140 30.130206 22.523445 30.578125 21.070312 C31.026044 19.617180 31.250000 18.062508 31.250000 16.406250 C31.250000 14.291656 30.882816 12.341155 30.148438 10.554688 C29.414059 8.768220 28.385423 7.216152 27.062500 5.898438 C25.739577 4.580723 24.184905 3.554691 22.398438 2.820312 C20.611970 2.085934 18.666677 1.718750 16.562500 1.718750 C14.458323 1.718750 12.513030 2.085934 10.726562 2.820312 C8.940095 3.554691 7.385423 4.580723 6.062500 5.898438 C4.739577 7.216152 3.710941 8.768220 2.976562 10.554688 C2.242184 12.341155 1.875000 14.291656 1.875000 16.406250 C1.875000 18.062508 2.098956 19.617180 2.546875 21.070312 C2.994794 22.523445 3.640621 23.841140 4.484375 25.023438 C5.328129 26.205735 6.341140 27.229162 7.523438 28.093750 C8.705735 28.958338 10.026034 29.635414 11.484375 30.125000 Z M16.453125 33.593750 C14.630199 33.593750 13.161464 33.117192 12.046875 32.164062 C10.932286 31.210933 10.375000 29.953133 10.375000 28.390625 L10.375000 21.000000 C11.416672 21.145834 12.450516 21.255208 13.476562 21.328125 C14.502609 21.401042 15.531245 21.437500 16.562500 21.437500 C17.593755 21.437500 18.624995 21.401042 19.656250 21.328125 C20.687505 21.255208 21.718745 21.145834 22.750000 21.000000 L22.750000 28.390625 C22.750000 29.953133 22.195318 31.210933 21.085938 32.164062 C19.976557 33.117192 18.505218 33.593750 16.671875 33.593750 Z M16.453125 32.031250 L16.671875 32.031250 C18.067715 32.031250 19.169267 31.703128 19.976562 31.046875 C20.783858 30.390622 21.187500 29.505214 21.187500 28.390625 L21.187500 22.765625 C20.427080 22.838542 19.658858 22.898437 18.882812 22.945312 C18.106767 22.992188 17.333337 23.015625 16.562500 23.015625 C15.791663 23.015625 15.020837 22.992188 14.250000 22.945312 C13.479163 22.898437 12.708337 22.838542 11.937500 22.765625 L11.937500 28.390625 C11.937500 29.505214 12.343746 30.390622 13.156250 31.046875 C13.968754 31.703128 15.067701 32.031250 16.453125 32.031250 Z M15.937500 28.593750 L15.937500 22.312500 L17.187500 22.312500 L17.187500 28.593750 Z M11.125000 27.937500 C10.062495 27.437498 9.106775 26.830733 8.257812 26.117188 C7.408850 25.403642 6.736982 24.638025 6.242188 23.820312 C5.747393 23.002600 5.500000 22.182296 5.500000 21.359375 C5.500000 20.807289 5.651040 20.432293 5.953125 20.234375 C6.255210 20.036457 6.614581 19.937500 7.031250 19.937500 C7.500002 19.937500 8.205724 20.023437 9.148438 20.195312 C10.091151 20.367188 11.200514 20.541666 12.476562 20.718750 C13.752611 20.895834 15.114576 20.984375 16.562500 20.984375 C18.020841 20.984375 19.385410 20.895834 20.656250 20.718750 C21.927090 20.541666 23.033849 20.367188 23.976562 20.195312 C24.919276 20.023437 25.624998 19.937500 26.093750 19.937500 C26.510419 19.937500 26.869790 20.036457 27.171875 20.234375 C27.473960 20.432293 27.625000 20.807289 27.625000 21.359375 C27.625000 22.182296 27.377607 23.002600 26.882812 23.820312 C26.388018 24.638025 25.718754 25.403642 24.875000 26.117188 C24.031246 26.830733 23.072922 27.437498 22.000000 27.937500 L22.000000 21.906250 L11.125000 21.906250 Z M6.093750 17.046875 L5.421875 15.671875 C6.203129 15.098955 6.968746 14.674481 7.718750 14.398438 C8.468754 14.122394 9.255204 13.979167 10.078125 13.968750 C10.098958 13.968750 10.122396 13.968750 10.148438 13.968750 C10.174479 13.968750 10.197917 13.968750 10.218750 13.968750 C9.927082 13.760416 9.625002 13.567709 9.312500 13.390625 C8.999998 13.213541 8.598961 13.018230 8.109375 12.804688 C7.619789 12.591145 6.968754 12.317710 6.156250 11.984375 L6.781250 10.578125 C7.729171 10.911460 8.606767 11.286456 9.414062 11.703125 C10.221358 12.119794 10.966142 12.570310 11.648438 13.054688 C12.330733 13.539065 12.942706 14.062497 13.484375 14.625000 L12.921875 15.828125 C12.526040 15.713541 12.135419 15.632813 11.750000 15.585938 C11.364581 15.539062 10.968752 15.515625 10.562500 15.515625 C9.739579 15.515625 8.989587 15.632811 8.312500 15.867188 C7.635413 16.101564 6.895837 16.494789 6.093750 17.046875 Z M22.171875 18.546875 C21.286454 18.546875 20.476566 18.330731 19.742188 17.898438 C19.007809 17.466144 18.424481 16.882816 17.992188 16.148438 C17.559894 15.414059 17.343750 14.604171 17.343750 13.718750 C17.343750 12.822912 17.559894 12.010420 17.992188 11.281250 C18.424481 10.552080 19.007809 9.971356 19.742188 9.539062 C20.476566 9.106769 21.286454 8.890625 22.171875 8.890625 C23.067713 8.890625 23.880205 9.106769 24.609375 9.539062 C25.338545 9.971356 25.919269 10.552080 26.351562 11.281250 C26.783856 12.010420 27.000000 12.822912 27.000000 13.718750 C27.000000 14.604171 26.783856 15.414059 26.351562 16.148438 C25.919269 16.882816 25.338545 17.466144 24.609375 17.898438 C23.880205 18.330731 23.067713 18.546875 22.171875 18.546875 Z M22.171875 17.296875 C22.838545 17.296875 23.440101 17.135418 23.976562 16.812500 C24.513024 16.489582 24.942707 16.057294 25.265625 15.515625 C25.588543 14.973956 25.750000 14.375003 25.750000 13.718750 C25.750000 13.052080 25.588543 12.450524 25.265625 11.914062 C24.942707 11.377601 24.513024 10.947918 23.976562 10.625000 C23.440101 10.302082 22.838545 10.140625 22.171875 10.140625 C21.515622 10.140625 20.916669 10.302082 20.375000 10.625000 C19.833331 10.947918 19.401043 11.377601 19.078125 11.914062 C18.755207 12.450524 18.593750 13.052080 18.593750 13.718750 C18.593750 14.375003 18.755207 14.973956 19.078125 15.515625 C19.401043 16.057294 19.833331 16.489582 20.375000 16.812500 C20.916669 17.135418 21.515622 17.296875 22.171875 17.296875 Z M22.171875 15.453125 C21.692706 15.453125 21.283856 15.283856 20.945312 14.945312 C20.606769 14.606769 20.437500 14.197919 20.437500 13.718750 C20.437500 13.239581 20.606769 12.830731 20.945312 12.492188 C21.283856 12.153644 21.692706 11.984375 22.171875 11.984375 C22.651044 11.984375 23.059894 12.153644 23.398438 12.492188 C23.736981 12.830731 23.906250 13.239581 23.906250 13.718750 C23.906250 14.197919 23.736981 14.606769 23.398438 14.945312 C23.059894 15.283856 22.651044 15.453125 22.171875 15.453125 Z M36.875000 27.343750" /></svg>