<svg version="1.1" xmlns="http://www.w3.org/2000/svg" style="fill:rgba(0,0,0,1.0)" width="256" height="256" viewBox="0 0 36.875 32.8125"><path fill="rgb(255, 255, 255)" d="M16.562500 32.812500 C14.187488 32.812500 11.992198 32.403650 9.976562 31.585938 C7.960927 30.768225 6.208341 29.619799 4.718750 28.140625 C3.229159 26.661451 2.070317 24.924489 1.242188 22.929688 C0.414058 20.934886 0.000000 18.760428 0.000000 16.406250 C0.000000 14.052072 0.414058 11.877614 1.242188 9.882812 C2.070317 7.888011 3.229159 6.151049 4.718750 4.671875 C6.208341 3.192701 7.960927 2.044275 9.976562 1.226562 C11.992198 0.408850 14.187488 -0.000000 16.562500 -0.000000 C18.937512 -0.000000 21.132802 0.408850 23.148438 1.226562 C25.164073 2.044275 26.916659 3.192701 28.406250 4.671875 C29.895841 6.151049 31.054683 7.888011 31.882812 9.882812 C32.710942 11.877614 33.125000 14.052072 33.125000 16.406250 C33.125000 18.760428 32.710942 20.934886 31.882812 22.929688 C31.054683 24.924489 29.895841 26.661451 28.406250 28.140625 C26.916659 29.619799 25.164073 30.768225 23.148438 31.585938 C21.132802 32.403650 18.937512 32.812500 16.562500 32.812500 Z M12.437500 25.625000 L12.437500 23.906250 L20.687500 23.906250 L20.687500 25.625000 Z M10.906250 18.406250 C10.312497 18.406250 9.804690 18.145836 9.382812 17.625000 C8.960935 17.104164 8.750000 16.453129 8.750000 15.671875 C8.750000 14.890621 8.960935 14.239586 9.382812 13.718750 C9.804690 13.197914 10.312497 12.937500 10.906250 12.937500 C11.500003 12.937500 12.007810 13.197914 12.429688 13.718750 C12.851565 14.239586 13.062500 14.890621 13.062500 15.671875 C13.062500 16.453129 12.851565 17.104164 12.429688 17.625000 C12.007810 18.145836 11.500003 18.406250 10.906250 18.406250 Z M7.156250 12.203125 L5.937500 11.234375 C6.989589 9.890618 8.130202 9.218750 9.359375 9.218750 C9.901044 9.218750 10.398435 9.315103 10.851562 9.507812 C11.304690 9.700522 11.731769 9.893228 12.132812 10.085938 C12.533856 10.278647 12.911457 10.375000 13.265625 10.375000 C13.651044 10.375000 14.031248 10.166669 14.406250 9.750000 L15.562500 10.812500 C14.874997 11.562504 14.109379 11.937500 13.265625 11.937500 C12.744789 11.937500 12.263023 11.841147 11.820312 11.648438 C11.377602 11.455728 10.958335 11.263022 10.562500 11.070312 C10.166665 10.877603 9.765627 10.781250 9.359375 10.781250 C8.640621 10.781250 7.906254 11.255204 7.156250 12.203125 Z M16.562500 31.093750 C18.677094 31.093750 20.627595 30.726566 22.414062 29.992188 C24.200530 29.257809 25.752598 28.231777 27.070312 26.914062 C28.388027 25.596348 29.414059 24.041676 30.148438 22.250000 C30.882816 20.458324 31.250000 18.510427 31.250000 16.406250 C31.250000 14.291656 30.882816 12.341155 30.148438 10.554688 C29.414059 8.768220 28.388027 7.216152 27.070312 5.898438 C25.752598 4.580723 24.200530 3.554691 22.414062 2.820312 C20.627595 2.085934 18.677094 1.718750 16.562500 1.718750 C14.458323 1.718750 12.513030 2.085934 10.726562 2.820312 C8.940095 3.554691 7.385423 4.580723 6.062500 5.898438 C4.739577 7.216152 3.710941 8.768220 2.976562 10.554688 C2.242184 12.341155 1.875000 14.291656 1.875000 16.406250 C1.875000 18.510427 2.242184 20.458324 2.976562 22.250000 C3.710941 24.041676 4.736973 25.596348 6.054688 26.914062 C7.372402 28.231777 8.927074 29.257809 10.718750 29.992188 C12.510426 30.726566 14.458323 31.093750 16.562500 31.093750 Z M22.265625 18.203125 C21.661455 18.203125 21.151044 17.885420 20.734375 17.250000 C20.317706 16.614580 20.109375 15.838546 20.109375 14.921875 C20.109375 13.994787 20.317706 13.216149 20.734375 12.585938 C21.151044 11.955726 21.661455 11.640625 22.265625 11.640625 C22.880211 11.640625 23.393227 11.955726 23.804688 12.585938 C24.216148 13.216149 24.421875 13.994787 24.421875 14.921875 C24.421875 15.838546 24.216148 16.614580 23.804688 17.250000 C23.393227 17.885420 22.880211 18.203125 22.265625 18.203125 Z M19.703125 9.375000 L18.671875 8.187500 C19.744797 7.260412 20.682288 6.583335 21.484375 6.156250 C22.286462 5.729165 23.005205 5.515625 23.640625 5.515625 C25.151049 5.515625 26.151039 6.515615 26.640625 8.515625 L25.125000 8.890625 C24.822915 7.682286 24.328128 7.078125 23.640625 7.078125 C23.203123 7.078125 22.661462 7.268227 22.015625 7.648438 C21.369788 8.028648 20.598963 8.604163 19.703125 9.375000 Z M36.875000 27.343750" /></svg>