<svg version="1.1" xmlns="http://www.w3.org/2000/svg" style="fill:rgba(0,0,0,1.0)" width="256" height="256" viewBox="0 0 36.875 32.8125"><path fill="rgb(255, 255, 255)" d="M16.562500 32.812500 C14.187488 32.812500 11.992198 32.403650 9.976562 31.585938 C7.960927 30.768225 6.208341 29.619799 4.718750 28.140625 C3.229159 26.661451 2.070317 24.924489 1.242188 22.929688 C0.414058 20.934886 0.000000 18.760428 0.000000 16.406250 C0.000000 14.052072 0.414058 11.877614 1.242188 9.882812 C2.070317 7.888011 3.229159 6.151049 4.718750 4.671875 C6.208341 3.192701 7.960927 2.044275 9.976562 1.226562 C11.992198 0.408850 14.187488 -0.000000 16.562500 -0.000000 C18.937512 -0.000000 21.132802 0.408850 23.148438 1.226562 C25.164073 2.044275 26.916659 3.192701 28.406250 4.671875 C29.895841 6.151049 31.054683 7.888011 31.882812 9.882812 C32.710942 11.877614 33.125000 14.052072 33.125000 16.406250 C33.125000 18.760428 32.710942 20.934886 31.882812 22.929688 C31.054683 24.924489 29.895841 26.661451 28.406250 28.140625 C26.916659 29.619799 25.164073 30.768225 23.148438 31.585938 C21.132802 32.403650 18.937512 32.812500 16.562500 32.812500 Z M7.046875 16.921875 L6.484375 15.296875 L11.718750 13.625000 L11.718750 14.046875 L6.453125 11.390625 L7.156250 9.828125 L15.250000 13.890625 L15.250000 14.296875 Z M16.562500 31.093750 C18.677094 31.093750 20.627595 30.726566 22.414062 29.992188 C24.200530 29.257809 25.752598 28.231777 27.070312 26.914062 C28.388027 25.596348 29.414059 24.041676 30.148438 22.250000 C30.882816 20.458324 31.250000 18.510427 31.250000 16.406250 C31.250000 14.291656 30.882816 12.341155 30.148438 10.554688 C29.414059 8.768220 28.388027 7.216152 27.070312 5.898438 C25.752598 4.580723 24.200530 3.554691 22.414062 2.820312 C20.627595 2.085934 18.677094 1.718750 16.562500 1.718750 C14.458323 1.718750 12.513030 2.085934 10.726562 2.820312 C8.940095 3.554691 7.385423 4.580723 6.062500 5.898438 C4.739577 7.216152 3.710941 8.768220 2.976562 10.554688 C2.242184 12.341155 1.875000 14.291656 1.875000 16.406250 C1.875000 18.510427 2.242184 20.458324 2.976562 22.250000 C3.710941 24.041676 4.736973 25.596348 6.054688 26.914062 C7.372402 28.231777 8.927074 29.257809 10.718750 29.992188 C12.510426 30.726566 14.458323 31.093750 16.562500 31.093750 Z M26.078125 16.921875 L17.875000 14.296875 L17.875000 13.890625 L25.968750 9.828125 L26.671875 11.390625 L21.406250 14.046875 L21.406250 13.625000 L26.640625 15.296875 Z M16.562500 26.531250 C18.125008 26.531250 19.583327 26.250003 20.937500 25.687500 C19.447909 24.822912 17.989590 24.390625 16.562500 24.390625 C15.135410 24.390625 13.677091 24.822912 12.187500 25.687500 C13.541673 26.250003 14.999992 26.531250 16.562500 26.531250 Z M16.562500 27.625000 C15.208327 27.625000 13.882819 27.406252 12.585938 26.968750 C11.289056 26.531248 10.119797 25.945316 9.078125 25.210938 C8.036453 24.476559 7.205732 23.666671 6.585938 22.781250 C5.966143 21.895829 5.656250 21.005213 5.656250 20.109375 C5.656250 19.557289 5.781249 19.169272 6.031250 18.945312 C6.281251 18.721353 6.614581 18.609375 7.031250 18.609375 C7.291668 18.609375 7.622394 18.640625 8.023438 18.703125 C8.424481 18.765625 8.885414 18.848958 9.406250 18.953125 C10.333338 19.130209 11.411452 19.299478 12.640625 19.460938 C13.869798 19.622397 15.177076 19.703125 16.562500 19.703125 C17.958340 19.703125 19.270827 19.622397 20.500000 19.460938 C21.729173 19.299478 22.802079 19.130209 23.718750 18.953125 C24.239586 18.848958 24.700519 18.765625 25.101562 18.703125 C25.502606 18.640625 25.833332 18.609375 26.093750 18.609375 C26.510419 18.609375 26.843749 18.721353 27.093750 18.945312 C27.343751 19.169272 27.468750 19.557289 27.468750 20.109375 C27.468750 21.005213 27.158857 21.895829 26.539062 22.781250 C25.919268 23.666671 25.088547 24.476559 24.046875 25.210938 C23.005203 25.945316 21.835944 26.531248 20.539062 26.968750 C19.242181 27.406252 17.916673 27.625000 16.562500 27.625000 Z M16.562500 22.359375 C17.541672 22.359375 18.588536 22.320313 19.703125 22.242188 C20.817714 22.164062 21.932286 22.039063 23.046875 21.867188 C24.161464 21.695312 25.203120 21.479168 26.171875 21.218750 L26.171875 20.109375 C26.171875 19.953124 26.109376 19.851563 25.984375 19.804688 C25.859374 19.757812 25.729167 19.750000 25.593750 19.781250 C24.708329 19.989584 23.731776 20.169270 22.664062 20.320312 C21.596349 20.471355 20.533859 20.588541 19.476562 20.671875 C18.419266 20.755209 17.447921 20.796875 16.562500 20.796875 C15.687496 20.796875 14.718755 20.755209 13.656250 20.671875 C12.593745 20.588541 11.531255 20.471355 10.468750 20.320312 C9.406245 20.169270 8.427088 19.989584 7.531250 19.781250 C7.395833 19.750000 7.265626 19.757812 7.140625 19.804688 C7.015624 19.851563 6.953125 19.953124 6.953125 20.109375 L6.953125 21.218750 C7.921880 21.479168 8.963536 21.695312 10.078125 21.867188 C11.192714 22.039063 12.309890 22.164062 13.429688 22.242188 C14.549485 22.320313 15.593745 22.359375 16.562500 22.359375 Z M36.875000 27.343750" /></svg>