<svg version="1.1" xmlns="http://www.w3.org/2000/svg" style="fill:rgba(0,0,0,1.0)" width="256" height="256" viewBox="0 0 36.875 32.859375"><path fill="rgb(255, 255, 255)" d="M16.562500 32.812500 C14.187488 32.812500 11.992198 32.403650 9.976562 31.585938 C7.960927 30.768225 6.208341 29.619799 4.718750 28.140625 C3.229159 26.661451 2.070317 24.924489 1.242188 22.929688 C0.414058 20.934886 0.000000 18.760428 0.000000 16.406250 C0.000000 14.052072 0.414058 11.877614 1.242188 9.882812 C2.070317 7.888011 3.229159 6.151049 4.718750 4.671875 C6.208341 3.192701 7.960927 2.044275 9.976562 1.226562 C11.992198 0.408850 14.187488 -0.000000 16.562500 -0.000000 C18.937512 -0.000000 21.132802 0.408850 23.148438 1.226562 C25.164073 2.044275 26.916659 3.192701 28.406250 4.671875 C29.895841 6.151049 31.054683 7.888011 31.882812 9.882812 C32.710942 11.877614 33.125000 14.052072 33.125000 16.406250 C33.125000 18.062508 32.914065 19.635409 32.492188 21.125000 C32.070310 22.614591 31.473962 23.989577 30.703125 25.250000 L29.703125 23.250000 C30.203128 22.239578 30.585936 21.161464 30.851562 20.015625 C31.117189 18.869786 31.250000 17.666673 31.250000 16.406250 C31.250000 14.291656 30.882816 12.341155 30.148438 10.554688 C29.414059 8.768220 28.388027 7.216152 27.070312 5.898438 C25.752598 4.580723 24.200530 3.554691 22.414062 2.820312 C20.627595 2.085934 18.677094 1.718750 16.562500 1.718750 C14.458323 1.718750 12.513030 2.085934 10.726562 2.820312 C8.940095 3.554691 7.385423 4.580723 6.062500 5.898438 C4.739577 7.216152 3.710941 8.768220 2.976562 10.554688 C2.242184 12.341155 1.875000 14.291656 1.875000 16.406250 C1.875000 18.510427 2.242184 20.458324 2.976562 22.250000 C3.710941 24.041676 4.736973 25.596348 6.054688 26.914062 C7.372402 28.231777 8.927074 29.257809 10.718750 29.992188 C12.510426 30.726566 14.458323 31.093750 16.562500 31.093750 C17.583338 31.093750 18.572912 31.002605 19.531250 30.820312 C20.489588 30.638020 21.401037 30.380210 22.265625 30.046875 L23.687500 31.343750 C22.624995 31.822919 21.497402 32.187499 20.304688 32.437500 C19.111973 32.687501 17.864590 32.812500 16.562500 32.812500 Z M16.562500 27.375000 C14.687491 27.375000 12.921883 27.023441 11.265625 26.320312 C9.609367 25.617184 8.135423 24.614590 6.843750 23.312500 C5.552077 22.010410 4.505212 20.458342 3.703125 18.656250 L5.281250 17.968750 C5.989587 19.562508 6.911453 20.932286 8.046875 22.078125 C9.182297 23.223964 10.473951 24.106768 11.921875 24.726562 C13.369799 25.346357 14.916658 25.656250 16.562500 25.656250 C18.208342 25.656250 19.755201 25.346357 21.203125 24.726562 C22.651049 24.106768 23.942703 23.223964 25.078125 22.078125 C26.213547 20.932286 27.135413 19.562508 27.843750 17.968750 L29.421875 18.656250 C28.630204 20.458342 27.585944 22.010410 26.289062 23.312500 C24.992181 24.614590 23.515633 25.617184 21.859375 26.320312 C20.203117 27.023441 18.437509 27.375000 16.562500 27.375000 Z M8.046875 14.453125 L6.609375 13.500000 C7.651047 11.979159 8.927076 11.218750 10.437500 11.218750 C11.947924 11.218750 13.223953 11.979159 14.265625 13.500000 L12.828125 14.453125 C12.151038 13.442703 11.354171 12.937500 10.437500 12.937500 C9.520829 12.937500 8.723962 13.442703 8.046875 14.453125 Z M26.296875 32.859375 C24.734367 32.859375 23.296882 32.218756 21.984375 30.937500 L17.968750 27.046875 L19.062500 25.921875 L23.078125 29.812500 C24.098963 30.802088 25.171869 31.296875 26.296875 31.296875 C27.005212 31.296875 27.653643 31.106773 28.242188 30.726562 C28.830732 30.346352 29.304686 29.841149 29.664062 29.210938 C30.023439 28.580726 30.203125 27.890629 30.203125 27.140625 C30.203125 25.848952 29.661464 24.677089 28.578125 23.625000 L26.531250 21.609375 L27.625000 20.484375 L29.671875 22.500000 C31.067715 23.864590 31.765625 25.411450 31.765625 27.140625 C31.765625 28.182297 31.518232 29.135412 31.023438 30.000000 C30.528643 30.864588 29.867192 31.557289 29.039062 32.078125 C28.210933 32.598961 27.296880 32.859375 26.296875 32.859375 Z M25.312500 27.218750 L23.093750 25.000000 L23.984375 24.125000 L26.203125 26.343750 Z M20.296875 14.453125 L18.859375 13.500000 C19.901047 11.979159 21.177076 11.218750 22.687500 11.218750 C24.197924 11.218750 25.473953 11.979159 26.515625 13.500000 L25.078125 14.453125 C24.401038 13.442703 23.604171 12.937500 22.687500 12.937500 C21.770829 12.937500 20.973962 13.442703 20.296875 14.453125 Z M36.875000 27.343750" /></svg>