<svg version="1.1" xmlns="http://www.w3.org/2000/svg" style="fill:rgba(0,0,0,1.0)" width="256" height="256" viewBox="0 0 38.59375 32.8125"><path fill="rgb(255, 255, 255)" d="M18.281250 32.812500 C15.906238 32.812500 13.710948 32.403650 11.695312 31.585938 C9.679677 30.768225 7.927091 29.619799 6.437500 28.140625 C4.947909 26.661451 3.789067 24.924489 2.960938 22.929688 C2.132808 20.934886 1.718750 18.760428 1.718750 16.406250 C1.718750 15.677080 1.760416 14.966149 1.843750 14.273438 C1.927084 13.580726 2.046874 12.906253 2.203125 12.250000 L4.015625 12.718750 C3.734374 13.885422 3.593750 15.114577 3.593750 16.406250 C3.593750 18.510427 3.960934 20.458324 4.695312 22.250000 C5.429691 24.041676 6.455723 25.596348 7.773438 26.914062 C9.091152 28.231777 10.645824 29.257809 12.437500 29.992188 C14.229176 30.726566 16.182281 31.093750 18.296875 31.093750 C20.401052 31.093750 22.346345 30.726566 24.132812 29.992188 C25.919280 29.257809 27.471348 28.231777 28.789062 26.914062 C30.106777 25.596348 31.132809 24.041676 31.867188 22.250000 C32.601566 20.458324 32.968750 18.510427 32.968750 16.406250 C32.968750 15.114577 32.828126 13.885422 32.546875 12.718750 L34.359375 12.250000 C34.515626 12.906253 34.635416 13.580726 34.718750 14.273438 C34.802084 14.966149 34.843750 15.677080 34.843750 16.406250 C34.843750 18.760428 34.429692 20.934886 33.601562 22.929688 C32.773433 24.924489 31.614591 26.661451 30.125000 28.140625 C28.635409 29.619799 26.882823 30.768225 24.867188 31.585938 C22.851552 32.403650 20.656262 32.812500 18.281250 32.812500 Z M18.281250 28.625000 C16.791659 28.625000 15.406256 28.382815 14.125000 27.898438 C12.843744 27.414060 11.809900 26.776046 11.023438 25.984375 C10.236975 25.192704 9.843750 24.338546 9.843750 23.421875 C9.843750 22.880206 9.973957 22.463543 10.234375 22.171875 C10.494793 21.880207 10.895831 21.734375 11.437500 21.734375 C11.781252 21.734375 12.140623 21.776041 12.515625 21.859375 C12.890627 21.942709 13.328122 22.039062 13.828125 22.148438 C14.328127 22.257813 14.937496 22.354166 15.656250 22.437500 C16.375004 22.520834 17.249995 22.562500 18.281250 22.562500 C19.312505 22.562500 20.187496 22.520834 20.906250 22.437500 C21.625004 22.354166 22.234372 22.257813 22.734375 22.148438 C23.234378 22.039062 23.671873 21.942709 24.046875 21.859375 C24.421877 21.776041 24.781248 21.734375 25.125000 21.734375 C25.677086 21.734375 26.080728 21.880207 26.335938 22.171875 C26.591147 22.463543 26.718750 22.880206 26.718750 23.421875 C26.718750 24.338546 26.325525 25.192704 25.539062 25.984375 C24.752600 26.776046 23.718756 27.414060 22.437500 27.898438 C21.156244 28.382815 19.770841 28.625000 18.281250 28.625000 Z M18.281250 26.828125 C19.312505 26.828125 20.294266 26.682293 21.226562 26.390625 C22.158859 26.098957 22.919268 25.726565 23.507812 25.273438 C24.096357 24.820310 24.390625 24.343752 24.390625 23.843750 C24.390625 23.739583 24.364584 23.661459 24.312500 23.609375 C24.260416 23.557291 24.182292 23.531250 24.078125 23.531250 C23.838540 23.531250 23.497398 23.598958 23.054688 23.734375 C22.611977 23.869792 22.010420 24.007812 21.250000 24.148438 C20.489580 24.289063 19.505214 24.359375 18.296875 24.359375 C17.078119 24.359375 16.085941 24.289063 15.320312 24.148438 C14.554684 24.007812 13.950523 23.869792 13.507812 23.734375 C13.065102 23.598958 12.723960 23.531250 12.484375 23.531250 C12.380208 23.531250 12.302084 23.557291 12.250000 23.609375 C12.197916 23.661459 12.171875 23.739583 12.171875 23.843750 C12.171875 24.343752 12.466143 24.820310 13.054688 25.273438 C13.643232 25.726565 14.406245 26.098957 15.343750 26.390625 C16.281255 26.682293 17.260412 26.828125 18.281250 26.828125 Z M12.468750 15.390625 C11.874997 15.390625 11.367190 15.135419 10.945312 14.625000 C10.523435 14.114581 10.312500 13.510420 10.312500 12.812500 C10.312500 12.104163 10.523435 11.497398 10.945312 10.992188 C11.367190 10.486977 11.874997 10.234375 12.468750 10.234375 C13.062503 10.234375 13.570310 10.486977 13.992188 10.992188 C14.414065 11.497398 14.625000 12.104163 14.625000 12.812500 C14.625000 13.510420 14.414065 14.114581 13.992188 14.625000 C13.570310 15.135419 13.062503 15.390625 12.468750 15.390625 Z M3.703125 13.640625 C3.026038 13.640625 2.406253 13.471356 1.843750 13.132812 C1.281247 12.794269 0.833335 12.343753 0.500000 11.781250 C0.166665 11.218747 0.000000 10.593753 0.000000 9.906250 C0.000000 8.791661 0.411454 7.869795 1.234375 7.140625 C1.140625 6.744790 1.093750 6.364585 1.093750 6.000000 C1.093750 5.083329 1.315102 4.250004 1.757812 3.500000 C2.200523 2.749996 2.796871 2.151044 3.546875 1.703125 C4.296879 1.255206 5.124995 1.031250 6.031250 1.031250 C6.781254 1.031250 7.484372 1.187498 8.140625 1.500000 C8.432293 1.041664 8.817706 0.677085 9.296875 0.406250 C9.776044 0.135415 10.296872 -0.000000 10.859375 -0.000000 C11.755213 -0.000000 12.518226 0.312497 13.148438 0.937500 C13.778649 1.562503 14.093750 2.322912 14.093750 3.218750 C14.093750 4.114588 13.778649 4.877601 13.148438 5.507812 C12.518226 6.138024 11.755213 6.453125 10.859375 6.453125 L11.031250 6.000000 C11.031250 7.135422 10.687503 8.145829 10.000000 9.031250 C9.312497 9.916671 8.427089 10.505207 7.343750 10.796875 C7.145832 11.619796 6.710941 12.299476 6.039062 12.835938 C5.367184 13.372399 4.588546 13.640625 3.703125 13.640625 Z M18.281250 21.468750 C17.562496 21.468750 16.908857 21.291668 16.320312 20.937500 C15.731768 20.583332 15.260418 20.111982 14.906250 19.523438 C14.552082 18.934893 14.375000 18.281254 14.375000 17.562500 C14.375000 16.843746 14.552082 16.187503 14.906250 15.593750 C15.260418 14.999997 15.731768 14.528648 16.320312 14.179688 C16.908857 13.830727 17.562496 13.656250 18.281250 13.656250 C19.000004 13.656250 19.653643 13.830727 20.242188 14.179688 C20.830732 14.528648 21.302082 14.999997 21.656250 15.593750 C22.010418 16.187503 22.187500 16.843746 22.187500 17.562500 C22.187500 18.281254 22.010418 18.934893 21.656250 19.523438 C21.302082 20.111982 20.830732 20.583332 20.242188 20.937500 C19.653643 21.291668 19.000004 21.468750 18.281250 21.468750 Z M24.093750 15.390625 C23.499997 15.390625 22.992190 15.135419 22.570312 14.625000 C22.148435 14.114581 21.937500 13.510420 21.937500 12.812500 C21.937500 12.104163 22.148435 11.497398 22.570312 10.992188 C22.992190 10.486977 23.499997 10.234375 24.093750 10.234375 C24.687503 10.234375 25.195310 10.486977 25.617188 10.992188 C26.039065 11.497398 26.250000 12.104163 26.250000 12.812500 C26.250000 13.510420 26.039065 14.114581 25.617188 14.625000 C25.195310 15.135419 24.687503 15.390625 24.093750 15.390625 Z M13.140625 2.562500 L12.125000 1.078125 C13.072921 0.723957 14.059891 0.455730 15.085938 0.273438 C16.111984 0.091145 17.177078 -0.000000 18.281250 -0.000000 C19.385422 -0.000000 20.450516 0.091145 21.476562 0.273438 C22.502609 0.455730 23.489579 0.723957 24.437500 1.078125 L23.421875 2.562500 C22.630204 2.291665 21.804692 2.083334 20.945312 1.937500 C20.085933 1.791666 19.197921 1.718750 18.281250 1.718750 C17.364579 1.718750 16.479171 1.791666 15.625000 1.937500 C14.770829 2.083334 13.942712 2.291665 13.140625 2.562500 Z M32.859375 13.640625 C31.973954 13.640625 31.195316 13.372399 30.523438 12.835938 C29.851559 12.299476 29.416668 11.619796 29.218750 10.796875 C28.145828 10.505207 27.263024 9.916671 26.570312 9.031250 C25.877601 8.145829 25.531250 7.135422 25.531250 6.000000 L25.703125 6.453125 C24.807287 6.453125 24.044274 6.138024 23.414062 5.507812 C22.783851 4.877601 22.468750 4.114588 22.468750 3.218750 C22.468750 2.322912 22.786455 1.562503 23.421875 0.937500 C24.057295 0.312497 24.817704 -0.000000 25.703125 -0.000000 C26.265628 -0.000000 26.786456 0.135415 27.265625 0.406250 C27.744794 0.677085 28.130207 1.041664 28.421875 1.500000 C29.078128 1.187498 29.781246 1.031250 30.531250 1.031250 C31.437505 1.031250 32.265621 1.255206 33.015625 1.703125 C33.765629 2.151044 34.361977 2.749996 34.804688 3.500000 C35.247398 4.250004 35.468750 5.083329 35.468750 6.000000 C35.468750 6.364585 35.421875 6.744790 35.328125 7.140625 C36.151046 7.869795 36.562500 8.791661 36.562500 9.906250 C36.562500 10.593753 36.395835 11.218747 36.062500 11.781250 C35.729165 12.343753 35.283857 12.794269 34.726562 13.132812 C34.169268 13.471356 33.546878 13.640625 32.859375 13.640625 Z M38.593750 27.343750" /></svg>