<svg version="1.1" xmlns="http://www.w3.org/2000/svg" style="fill:rgba(0,0,0,1.0)" width="256" height="256" viewBox="0 0 36.875 32.8125"><path fill="rgb(255, 255, 255)" d="M16.562500 32.812500 C14.187488 32.812500 11.992198 32.403650 9.976562 31.585938 C7.960927 30.768225 6.208341 29.619799 4.718750 28.140625 C3.229159 26.661451 2.070317 24.924489 1.242188 22.929688 C0.414058 20.934886 0.000000 18.760428 0.000000 16.406250 C0.000000 14.052072 0.414058 11.877614 1.242188 9.882812 C2.070317 7.888011 3.229159 6.151049 4.718750 4.671875 C6.208341 3.192701 7.960927 2.044275 9.976562 1.226562 C11.992198 0.408850 14.187488 -0.000000 16.562500 -0.000000 C18.937512 -0.000000 21.132802 0.408850 23.148438 1.226562 C25.164073 2.044275 26.916659 3.192701 28.406250 4.671875 C29.895841 6.151049 31.054683 7.888011 31.882812 9.882812 C32.710942 11.877614 33.125000 14.052072 33.125000 16.406250 C33.125000 18.760428 32.710942 20.934886 31.882812 22.929688 C31.054683 24.924489 29.895841 26.661451 28.406250 28.140625 C26.916659 29.619799 25.164073 30.768225 23.148438 31.585938 C21.132802 32.403650 18.937512 32.812500 16.562500 32.812500 Z M7.046875 20.500000 C5.755202 20.437500 4.520839 20.169273 3.343750 19.695312 C2.166661 19.221352 1.166671 18.588546 0.343750 17.796875 L1.656250 16.453125 C2.312503 17.088545 3.122391 17.596352 4.085938 17.976562 C5.049484 18.356773 6.067703 18.572916 7.140625 18.625000 Z M16.562500 29.609375 C13.177066 29.609375 9.859391 28.453137 6.609375 26.140625 C6.432291 25.338538 6.296875 24.567712 6.203125 23.828125 C6.109375 23.088538 6.062500 22.333337 6.062500 21.562500 C6.062500 20.885413 6.096354 20.250003 6.164062 19.656250 C6.231771 19.062497 6.333333 18.447920 6.468750 17.812500 C7.395838 17.479165 8.429682 17.158856 9.570312 16.851562 C10.710943 16.544269 11.885411 16.291668 13.093750 16.093750 C14.302089 15.895832 15.458328 15.796875 16.562500 15.796875 C17.677089 15.796875 18.835931 15.895832 20.039062 16.093750 C21.242194 16.291668 22.414057 16.544269 23.554688 16.851562 C24.695318 17.158856 25.729162 17.479165 26.656250 17.812500 C26.791667 18.447920 26.893229 19.062497 26.960938 19.656250 C27.028646 20.250003 27.062500 20.885413 27.062500 21.562500 C27.062500 22.333337 27.015625 23.088538 26.921875 23.828125 C26.828125 24.567712 26.692709 25.338538 26.515625 26.140625 C23.265609 28.453137 19.947934 29.609375 16.562500 29.609375 Z M16.562500 28.046875 C19.375014 28.046875 22.182278 27.119801 24.984375 25.265625 C25.223960 23.973952 25.343750 22.739589 25.343750 21.562500 C25.343750 21.114581 25.328125 20.674481 25.296875 20.242188 C25.265625 19.809894 25.213542 19.385419 25.140625 18.968750 C23.578117 18.447914 22.052091 18.049481 20.562500 17.773438 C19.072909 17.497394 17.739589 17.359375 16.562500 17.359375 C15.385411 17.359375 14.052091 17.497394 12.562500 17.773438 C11.072909 18.049481 9.546883 18.447914 7.984375 18.968750 C7.911458 19.385419 7.859375 19.809894 7.828125 20.242188 C7.796875 20.674481 7.781250 21.114581 7.781250 21.562500 C7.781250 22.739589 7.901040 23.973952 8.140625 25.265625 C10.942722 27.119801 13.749986 28.046875 16.562500 28.046875 Z M11.062500 15.546875 C10.468747 15.546875 9.960940 15.294273 9.539062 14.789062 C9.117185 14.283852 8.906250 13.677087 8.906250 12.968750 C8.906250 12.260413 9.117185 11.653648 9.539062 11.148438 C9.960940 10.643227 10.468747 10.390625 11.062500 10.390625 C11.645836 10.390625 12.151040 10.643227 12.578125 11.148438 C13.005210 11.653648 13.218750 12.260413 13.218750 12.968750 C13.218750 13.666670 13.007815 14.270831 12.585938 14.781250 C12.164060 15.291669 11.656253 15.546875 11.062500 15.546875 Z M16.562500 31.093750 C18.677094 31.093750 20.627595 30.726566 22.414062 29.992188 C24.200530 29.257809 25.752598 28.231777 27.070312 26.914062 C28.388027 25.596348 29.414059 24.041676 30.148438 22.250000 C30.882816 20.458324 31.250000 18.510427 31.250000 16.406250 C31.250000 14.291656 30.882816 12.341155 30.148438 10.554688 C29.414059 8.768220 28.388027 7.216152 27.070312 5.898438 C25.752598 4.580723 24.200530 3.554691 22.414062 2.820312 C20.627595 2.085934 18.677094 1.718750 16.562500 1.718750 C14.458323 1.718750 12.513030 2.085934 10.726562 2.820312 C8.940095 3.554691 7.385423 4.580723 6.062500 5.898438 C4.739577 7.216152 3.710941 8.768220 2.976562 10.554688 C2.242184 12.341155 1.875000 14.291656 1.875000 16.406250 C1.875000 18.510427 2.242184 20.458324 2.976562 22.250000 C3.710941 24.041676 4.736973 25.596348 6.054688 26.914062 C7.372402 28.231777 8.927074 29.257809 10.718750 29.992188 C12.510426 30.726566 14.458323 31.093750 16.562500 31.093750 Z M27.953125 27.906250 C27.598957 27.791666 27.223960 27.617189 26.828125 27.382812 C26.432290 27.148436 26.005211 26.854168 25.546875 26.500000 L26.281250 24.687500 C27.312505 25.562504 28.124997 26.057291 28.718750 26.171875 Z M22.062500 15.546875 C21.468747 15.546875 20.960940 15.294273 20.539062 14.789062 C20.117185 14.283852 19.906250 13.677087 19.906250 12.968750 C19.906250 12.260413 20.117185 11.653648 20.539062 11.148438 C20.960940 10.643227 21.468747 10.390625 22.062500 10.390625 C22.645836 10.390625 23.151040 10.643227 23.578125 11.148438 C24.005210 11.653648 24.218750 12.260413 24.218750 12.968750 C24.218750 13.666670 24.007815 14.270831 23.585938 14.781250 C23.164060 15.291669 22.656253 15.546875 22.062500 15.546875 Z M26.078125 20.500000 L25.984375 18.625000 C27.067714 18.572916 28.088537 18.356773 29.046875 17.976562 C30.005213 17.596352 30.812497 17.088545 31.468750 16.453125 L32.781250 17.796875 C31.958329 18.588546 30.958339 19.221352 29.781250 19.695312 C28.604161 20.169273 27.369798 20.437500 26.078125 20.500000 Z M5.171875 27.906250 L4.406250 26.171875 C5.000003 26.057291 5.812495 25.562504 6.843750 24.687500 L7.578125 26.500000 C7.130206 26.854168 6.708335 27.148436 6.312500 27.382812 C5.916665 27.617189 5.536460 27.791666 5.171875 27.906250 Z M36.875000 27.343750" /></svg>