<svg version="1.1" xmlns="http://www.w3.org/2000/svg" style="fill:rgba(0,0,0,1.0)" width="256" height="256" viewBox="0 0 36.875 32.8125"><path fill="rgb(255, 255, 255)" d="M16.562500 32.812500 C14.187488 32.812500 11.992198 32.403650 9.976562 31.585938 C7.960927 30.768225 6.208341 29.619799 4.718750 28.140625 C3.229159 26.661451 2.070317 24.924489 1.242188 22.929688 C0.414058 20.934886 0.000000 18.760428 0.000000 16.406250 C0.000000 14.406240 0.302080 12.531259 0.906250 10.781250 C1.510420 9.031241 2.364578 7.463549 3.468750 6.078125 L2.812500 11.015625 C2.510415 11.838546 2.278647 12.700516 2.117188 13.601562 C1.955728 14.502609 1.875000 15.437495 1.875000 16.406250 C1.875000 18.510427 2.242184 20.458324 2.976562 22.250000 C3.710941 24.041676 4.736973 25.596348 6.054688 26.914062 C7.372402 28.231777 8.927074 29.257809 10.718750 29.992188 C12.510426 30.726566 14.458323 31.093750 16.562500 31.093750 C18.677094 31.093750 20.627595 30.726566 22.414062 29.992188 C24.200530 29.257809 25.752598 28.231777 27.070312 26.914062 C28.388027 25.596348 29.414059 24.041676 30.148438 22.250000 C30.882816 20.458324 31.250000 18.510427 31.250000 16.406250 C31.250000 14.291656 30.882816 12.341155 30.148438 10.554688 C29.414059 8.768220 28.388027 7.216152 27.070312 5.898438 C25.752598 4.580723 24.200530 3.554691 22.414062 2.820312 C20.627595 2.085934 18.677094 1.718750 16.562500 1.718750 C15.145826 1.718750 13.796881 1.888019 12.515625 2.226562 C11.234369 2.565106 10.041672 3.052080 8.937500 3.687500 L7.921875 2.234375 C9.161465 1.526038 10.510409 0.976564 11.968750 0.585938 C13.427091 0.195311 14.958325 -0.000000 16.562500 -0.000000 C18.937512 -0.000000 21.132802 0.408850 23.148438 1.226562 C25.164073 2.044275 26.916659 3.192701 28.406250 4.671875 C29.895841 6.151049 31.054683 7.888011 31.882812 9.882812 C32.710942 11.877614 33.125000 14.052072 33.125000 16.406250 C33.125000 18.760428 32.710942 20.934886 31.882812 22.929688 C31.054683 24.924489 29.895841 26.661451 28.406250 28.140625 C26.916659 29.619799 25.164073 30.768225 23.148438 31.585938 C21.132802 32.403650 18.937512 32.812500 16.562500 32.812500 Z M12.140625 27.046875 L11.140625 25.640625 C12.932301 24.359369 14.739574 23.718750 16.562500 23.718750 C18.385426 23.718750 20.192699 24.359369 21.984375 25.640625 L20.984375 27.046875 C19.473951 25.973953 18.000007 25.437500 16.562500 25.437500 C15.124993 25.437500 13.651049 25.973953 12.140625 27.046875 Z M6.906250 20.125000 L6.281250 18.531250 C7.593757 18.020831 8.901035 17.765625 10.203125 17.765625 C11.505215 17.765625 12.812493 18.020831 14.125000 18.531250 L13.500000 20.125000 C12.364578 19.697915 11.265630 19.484375 10.203125 19.484375 C9.140620 19.484375 8.041672 19.697915 6.906250 20.125000 Z M6.796875 13.671875 C7.890630 13.671875 8.739580 13.375003 9.343750 12.781250 C9.947920 12.187497 10.250000 11.359380 10.250000 10.296875 C10.250000 8.901035 9.723964 7.395841 8.671875 5.781250 L6.796875 2.906250 L4.921875 5.781250 C3.869786 7.395841 3.343750 8.901035 3.343750 10.296875 C3.343750 11.359380 3.645830 12.187497 4.250000 12.781250 C4.854170 13.375003 5.703120 13.671875 6.796875 13.671875 Z M6.796875 15.234375 C5.276034 15.234375 4.059900 14.786463 3.148438 13.890625 C2.236975 12.994787 1.781250 11.796882 1.781250 10.296875 C1.781250 8.578116 2.390619 6.791676 3.609375 4.937500 L6.796875 0.062500 L9.984375 4.937500 C11.203131 6.791676 11.812500 8.578116 11.812500 10.296875 C11.812500 11.796882 11.356775 12.994787 10.445312 13.890625 C9.533850 14.786463 8.317716 15.234375 6.796875 15.234375 Z M19.625000 20.125000 L19.000000 18.531250 C20.312507 18.020831 21.619785 17.765625 22.921875 17.765625 C24.223965 17.765625 25.531243 18.020831 26.843750 18.531250 L26.218750 20.125000 C25.083328 19.697915 23.984380 19.484375 22.921875 19.484375 C21.859370 19.484375 20.760422 19.697915 19.625000 20.125000 Z M36.875000 27.343750" /></svg>