<svg version="1.1" xmlns="http://www.w3.org/2000/svg" style="fill:rgba(0,0,0,1.0)" width="256" height="256" viewBox="0 0 36.5625 33.4375"><path fill="rgb(255, 255, 255)" d="M14.187500 31.750000 C12.020822 31.479165 10.065113 30.901046 8.320312 30.015625 C6.575512 29.130204 5.083340 27.992194 3.843750 26.601562 C2.604160 25.210931 1.653649 23.625009 0.992188 21.843750 C0.330726 20.062491 0.000000 18.145844 0.000000 16.093750 C0.000000 13.791655 0.406246 11.661468 1.218750 9.703125 C2.031254 7.744782 3.169264 6.039070 4.632812 4.585938 C6.096361 3.132805 7.817698 2.005212 9.796875 1.203125 C11.776052 0.401038 13.927072 -0.000000 16.250000 -0.000000 C18.583345 -0.000000 20.736969 0.401038 22.710938 1.203125 C24.684906 2.005212 26.403639 3.132805 27.867188 4.585938 C29.330736 6.039070 30.468746 7.744782 31.281250 9.703125 C32.093754 11.661468 32.500000 13.791655 32.500000 16.093750 C32.500000 18.562512 32.036463 20.835927 31.109375 22.914062 C30.182287 24.992198 28.856779 26.770826 27.132812 28.250000 C25.408846 29.729174 23.338554 30.812497 20.921875 31.500000 L21.781250 29.500000 C23.562509 28.802080 25.114577 27.802090 26.437500 26.500000 C27.760423 25.197910 28.789059 23.661467 29.523438 21.890625 C30.257816 20.119783 30.625000 18.187510 30.625000 16.093750 C30.625000 14.020823 30.268233 12.109384 29.554688 10.359375 C28.841142 8.609366 27.835944 7.088548 26.539062 5.796875 C25.242181 4.505202 23.718759 3.502608 21.968750 2.789062 C20.218741 2.075517 18.312510 1.718750 16.250000 1.718750 C14.187490 1.718750 12.281259 2.075517 10.531250 2.789062 C8.781241 3.502608 7.260423 4.505202 5.968750 5.796875 C4.677077 7.088548 3.671879 8.609366 2.953125 10.359375 C2.234371 12.109384 1.875000 14.020823 1.875000 16.093750 C1.875000 17.718758 2.106769 19.252597 2.570312 20.695312 C3.033856 22.138028 3.708329 23.442702 4.593750 24.609375 C5.479171 25.776048 6.559889 26.778642 7.835938 27.617188 C9.111986 28.455733 10.562492 29.088540 12.187500 29.515625 Z M17.296875 33.437500 C16.015619 33.437500 14.867193 33.174482 13.851562 32.648438 C12.835932 32.122393 12.031253 31.411463 11.437500 30.515625 C10.843747 29.619787 10.546875 28.619797 10.546875 27.515625 C10.546875 26.651037 10.713540 25.742192 11.046875 24.789062 C11.380210 23.835933 11.833330 22.963546 12.406250 22.171875 C12.895836 21.119786 13.187500 20.221358 13.281250 19.476562 C13.375000 18.731767 13.421875 18.072920 13.421875 17.500000 C13.421875 16.031243 13.643227 14.968753 14.085938 14.312500 C14.528648 13.656247 15.182287 13.328125 16.046875 13.328125 C16.973963 13.328125 17.674477 13.666663 18.148438 14.343750 C18.622398 15.020837 18.859375 15.968744 18.859375 17.187500 C18.859375 17.697919 18.825521 18.145831 18.757812 18.531250 C18.690104 18.916669 18.656250 19.307290 18.656250 19.703125 C18.656250 19.838542 18.666667 19.968749 18.687500 20.093750 C18.708333 20.218751 18.729167 20.354166 18.750000 20.500000 L17.312500 20.812500 C17.281250 20.624999 17.255208 20.442709 17.234375 20.265625 C17.213542 20.088541 17.203125 19.901043 17.203125 19.703125 C17.203125 19.182289 17.236979 18.742189 17.304688 18.382812 C17.372396 18.023436 17.406250 17.625002 17.406250 17.187500 C17.406250 15.593742 16.953130 14.796875 16.046875 14.796875 C15.619790 14.796875 15.320313 14.999998 15.148438 15.406250 C14.976562 15.812502 14.890625 16.510412 14.890625 17.500000 C14.890625 18.093753 14.833334 18.841141 14.718750 19.742188 C14.604166 20.643234 14.255211 21.708327 13.671875 22.937500 C13.151039 23.614587 12.742189 24.361975 12.445312 25.179688 C12.148436 25.997400 12.000000 26.776038 12.000000 27.515625 C12.000000 28.338546 12.234373 29.088538 12.703125 29.765625 C13.171877 30.442712 13.807288 30.979165 14.609375 31.375000 C15.411462 31.770835 16.307287 31.968750 17.296875 31.968750 C18.223963 31.968750 19.041663 31.802085 19.750000 31.468750 C20.458337 31.135415 20.942707 30.604170 21.203125 29.875000 L22.312500 29.875000 C22.041665 30.197918 21.703127 30.455728 21.296875 30.648438 C20.890623 30.841147 20.479169 30.937500 20.062500 30.937500 C19.541664 30.937500 19.093752 30.786460 18.718750 30.484375 C18.343748 30.182290 18.156250 29.796877 18.156250 29.328125 C18.156250 28.932290 18.302082 28.601564 18.593750 28.335938 C18.885418 28.070311 19.234373 27.937500 19.640625 27.937500 L19.640625 29.093750 C19.463541 29.093750 19.375000 29.145833 19.375000 29.250000 C19.375000 29.322917 19.440104 29.382812 19.570312 29.429688 C19.700521 29.476563 19.864582 29.500000 20.062500 29.500000 C20.520836 29.500000 20.856770 29.414063 21.070312 29.242188 C21.283855 29.070312 21.390625 28.848960 21.390625 28.578125 C21.390625 27.932288 21.291668 27.507814 21.093750 27.304688 C20.895832 27.101561 20.546878 27.000000 20.046875 27.000000 C19.328121 27.000000 18.364589 27.187498 17.156250 27.562500 L16.812500 26.375000 C17.447920 26.114582 18.046872 25.911459 18.609375 25.765625 C19.171878 25.619791 19.697914 25.546875 20.187500 25.546875 C21.020838 25.546875 21.674477 25.783852 22.148438 26.257812 C22.622398 26.731773 22.859375 27.505203 22.859375 28.578125 C22.859375 30.119799 22.333339 31.315100 21.281250 32.164062 C20.229161 33.013025 18.901050 33.437500 17.296875 33.437500 Z M13.359375 19.812500 C12.963540 19.718750 12.570314 19.609376 12.179688 19.484375 C11.789061 19.359374 11.395835 19.213542 11.000000 19.046875 L11.593750 17.609375 C11.927085 17.744792 12.263019 17.867187 12.601562 17.976562 C12.940106 18.085938 13.270832 18.182291 13.593750 18.265625 Z M22.671875 27.546875 L21.156250 26.375000 C21.197917 26.156249 21.229167 25.958334 21.250000 25.781250 C21.270833 25.604166 21.281250 25.437501 21.281250 25.281250 C21.281250 24.833331 21.179689 24.513022 20.976562 24.320312 C20.773436 24.127603 20.453127 24.031250 20.015625 24.031250 C19.567706 24.031250 19.041670 24.088541 18.437500 24.203125 C17.833330 24.317709 17.156254 24.479166 16.406250 24.687500 L16.046875 23.515625 C16.828129 23.213540 17.549476 22.979168 18.210938 22.812500 C18.872399 22.645832 19.473956 22.562500 20.015625 22.562500 C20.453127 22.562500 20.916664 22.656249 21.406250 22.843750 C21.895836 23.031251 22.317707 23.255207 22.671875 23.515625 C22.755209 23.901044 22.812500 24.242186 22.843750 24.539062 C22.875000 24.835939 22.890625 25.130207 22.890625 25.421875 C22.890625 25.734377 22.872396 26.057290 22.835938 26.390625 C22.799479 26.723960 22.744792 27.109373 22.671875 27.546875 Z M22.093750 28.421875 L22.093750 26.968750 C22.583336 26.968750 22.971353 26.828126 23.257812 26.546875 C23.544272 26.265624 23.687500 25.953127 23.687500 25.609375 C23.687500 25.151039 23.442711 24.750002 22.953125 24.406250 C22.463539 24.062498 21.916670 23.854167 21.312500 23.781250 C21.312500 23.614582 21.312500 23.450522 21.312500 23.289062 C21.312500 23.127603 21.312500 22.968751 21.312500 22.812500 C21.312500 22.322914 21.182293 21.929689 20.921875 21.632812 C20.661457 21.335936 20.317710 21.187500 19.890625 21.187500 C19.473956 21.187500 18.927087 21.270832 18.250000 21.437500 C17.572913 21.604168 16.739588 21.947914 15.750000 22.468750 L15.234375 21.343750 C16.192713 20.770830 17.052080 20.356772 17.812500 20.101562 C18.572920 19.846353 19.265622 19.718750 19.890625 19.718750 C20.703129 19.718750 21.377601 19.992185 21.914062 20.539062 C22.450524 21.085940 22.739583 21.791662 22.781250 22.656250 C22.781250 22.687500 22.781250 22.718750 22.781250 22.750000 C22.781250 22.781250 22.781250 22.807292 22.781250 22.828125 C23.489587 22.984376 24.059894 23.309893 24.492188 23.804688 C24.924481 24.299482 25.140625 24.901038 25.140625 25.609375 C25.140625 26.411462 24.861982 27.080726 24.304688 27.617188 C23.747393 28.153649 23.010421 28.421875 22.093750 28.421875 Z M9.140625 14.390625 C8.890624 14.390625 8.682292 14.216148 8.515625 13.867188 C8.348958 13.518227 8.265625 13.104169 8.265625 12.625000 C8.265625 11.822913 8.481769 11.177086 8.914062 10.687500 C9.346356 10.197914 9.890622 9.953125 10.546875 9.953125 C11.203128 9.953125 11.747394 10.197914 12.179688 10.687500 C12.611981 11.177086 12.828125 11.822913 12.828125 12.625000 C12.828125 13.114586 12.742188 13.531248 12.570312 13.875000 C12.398437 14.218752 12.192710 14.390625 11.953125 14.390625 C11.838541 14.390625 11.643231 14.359375 11.367188 14.296875 C11.091144 14.234375 10.817710 14.203125 10.546875 14.203125 C10.276040 14.203125 10.002606 14.234375 9.726562 14.296875 C9.450519 14.359375 9.255209 14.390625 9.140625 14.390625 Z M17.578125 20.078125 L17.578125 18.515625 C18.703131 18.369791 19.812495 18.067711 20.906250 17.609375 L21.500000 19.046875 C20.197910 19.598961 18.890632 19.942708 17.578125 20.078125 Z M20.546875 14.390625 C20.296874 14.390625 20.088542 14.216148 19.921875 13.867188 C19.755208 13.518227 19.671875 13.104169 19.671875 12.625000 C19.671875 11.822913 19.888019 11.177086 20.320312 10.687500 C20.752606 10.197914 21.296872 9.953125 21.953125 9.953125 C22.609378 9.953125 23.153644 10.197914 23.585938 10.687500 C24.018231 11.177086 24.234375 11.822913 24.234375 12.625000 C24.234375 13.104169 24.151042 13.518227 23.984375 13.867188 C23.817708 14.216148 23.609376 14.390625 23.359375 14.390625 C23.244791 14.390625 23.049481 14.359375 22.773438 14.296875 C22.497394 14.234375 22.223960 14.203125 21.953125 14.203125 C21.682290 14.203125 21.408856 14.234375 21.132812 14.296875 C20.856769 14.359375 20.661459 14.390625 20.546875 14.390625 Z M36.562500 27.343750" /></svg>