<svg version="1.1" xmlns="http://www.w3.org/2000/svg" style="fill:rgba(0,0,0,1.0)" width="256" height="256" viewBox="0 0 37.578125 33.59375"><path fill="rgb(255, 255, 255)" d="M17.265625 32.812500 C15.817701 32.812500 14.429694 32.653647 13.101562 32.335938 C11.773431 32.018228 10.531256 31.567711 9.375000 30.984375 L9.562500 29.078125 C10.666672 29.723962 11.867181 30.221352 13.164062 30.570312 C14.460944 30.919273 15.828118 31.093750 17.265625 31.093750 C19.380219 31.093750 21.330720 30.726566 23.117188 29.992188 C24.903655 29.257809 26.455723 28.231777 27.773438 26.914062 C29.091152 25.596348 30.117184 24.041676 30.851562 22.250000 C31.585941 20.458324 31.953125 18.510427 31.953125 16.406250 C31.953125 14.291656 31.585941 12.341155 30.851562 10.554688 C30.117184 8.768220 29.091152 7.216152 27.773438 5.898438 C26.455723 4.580723 24.903655 3.554691 23.117188 2.820312 C21.330720 2.085934 19.380219 1.718750 17.265625 1.718750 C15.161448 1.718750 13.216155 2.085934 11.429688 2.820312 C9.643220 3.554691 8.088548 4.580723 6.765625 5.898438 C5.442702 7.216152 4.414066 8.768220 3.679688 10.554688 C2.945309 12.341155 2.578125 14.291656 2.578125 16.406250 C2.578125 18.125009 2.828122 19.744784 3.328125 21.265625 C3.828128 22.786466 4.526037 24.156244 5.421875 25.375000 L3.156250 25.296875 C2.374996 24.036452 1.770835 22.656258 1.343750 21.156250 C0.916665 19.656242 0.703125 18.072925 0.703125 16.406250 C0.703125 14.052072 1.117183 11.877614 1.945312 9.882812 C2.773442 7.888011 3.932284 6.151049 5.421875 4.671875 C6.911466 3.192701 8.664052 2.044275 10.679688 1.226562 C12.695323 0.408850 14.890613 -0.000000 17.265625 -0.000000 C19.640637 -0.000000 21.835927 0.408850 23.851562 1.226562 C25.867198 2.044275 27.619784 3.192701 29.109375 4.671875 C30.598966 6.151049 31.757808 7.888011 32.585938 9.882812 C33.414067 11.877614 33.828125 14.052072 33.828125 16.406250 C33.828125 18.760428 33.414067 20.934886 32.585938 22.929688 C31.757808 24.924489 30.598966 26.661451 29.109375 28.140625 C27.619784 29.619799 25.867198 30.768225 23.851562 31.585938 C21.835927 32.403650 19.640637 32.812500 17.265625 32.812500 Z M4.453125 32.031250 C5.109378 32.031250 5.645831 31.703128 6.062500 31.046875 C6.333335 31.203126 6.544270 31.312500 6.695312 31.375000 C6.846355 31.437500 7.020832 31.468750 7.218750 31.468750 C7.604169 31.468750 7.934894 31.330731 8.210938 31.054688 C8.486981 30.778644 8.625000 30.447919 8.625000 30.062500 C8.625000 29.333330 8.703124 28.703128 8.859375 28.171875 C9.015626 27.640622 9.286456 27.119794 9.671875 26.609375 C9.307290 26.651042 8.966147 26.684896 8.648438 26.710938 C8.330728 26.736979 8.067709 26.750000 7.859375 26.750000 C7.401039 26.750000 6.953127 26.687501 6.515625 26.562500 C6.078123 26.437499 5.677085 26.307292 5.312500 26.171875 C4.958332 26.036458 4.627606 25.924480 4.320312 25.835938 C4.013019 25.747395 3.713543 25.703125 3.421875 25.703125 C2.911456 25.703125 2.473960 25.882811 2.109375 26.242188 C1.744790 26.601564 1.562500 27.041664 1.562500 27.562500 C1.562500 27.979169 1.692707 28.361977 1.953125 28.710938 C2.213543 29.059898 2.557290 29.307291 2.984375 29.453125 C2.911458 29.723960 2.861979 29.916666 2.835938 30.031250 C2.809896 30.145834 2.796875 30.265624 2.796875 30.390625 C2.796875 30.838544 2.960936 31.223957 3.289062 31.546875 C3.617189 31.869793 4.005206 32.031250 4.453125 32.031250 Z M4.453125 33.593750 C3.567704 33.593750 2.809899 33.281253 2.179688 32.656250 C1.549476 32.031247 1.234375 31.276046 1.234375 30.390625 C1.234375 30.359375 1.234375 30.328125 1.234375 30.296875 C1.234375 30.265625 1.234375 30.229167 1.234375 30.187500 C0.411454 29.499997 0.000000 28.625005 0.000000 27.562500 C0.000000 26.614579 0.333330 25.807295 1.000000 25.140625 C1.666670 24.473955 2.473954 24.140625 3.421875 24.140625 C3.880211 24.140625 4.317706 24.200520 4.734375 24.320312 C5.151044 24.440105 5.552081 24.572916 5.937500 24.718750 C6.270835 24.843751 6.598957 24.953125 6.921875 25.046875 C7.244793 25.140625 7.557290 25.187500 7.859375 25.187500 C8.109376 25.187500 8.515622 25.158854 9.078125 25.101562 C9.640628 25.044271 10.273434 24.963542 10.976562 24.859375 C11.679691 24.755208 12.382809 24.632813 13.085938 24.492188 C13.789066 24.351562 14.411456 24.197918 14.953125 24.031250 C13.932287 24.843754 13.106774 25.513018 12.476562 26.039062 C11.846351 26.565107 11.367189 27.028644 11.039062 27.429688 C10.710936 27.830731 10.486980 28.231769 10.367188 28.632812 C10.247395 29.033856 10.187500 29.510414 10.187500 30.062500 C10.187500 30.885421 9.898440 31.585935 9.320312 32.164062 C8.742185 32.742190 8.041671 33.031250 7.218750 33.031250 C6.989582 33.031250 6.718752 32.994792 6.406250 32.921875 C5.812497 33.369794 5.161462 33.593750 4.453125 33.593750 Z M13.203125 29.281250 L12.953125 28.062500 C13.869796 27.885416 14.755204 27.796875 15.609375 27.796875 C16.463546 27.796875 17.343745 27.885416 18.250000 28.062500 L18.000000 29.281250 C17.604165 29.197916 17.205731 29.135417 16.804688 29.093750 C16.403644 29.052083 16.005210 29.031250 15.609375 29.031250 C15.213540 29.031250 14.815106 29.052083 14.414062 29.093750 C14.013019 29.135417 13.609377 29.197916 13.203125 29.281250 Z M11.015625 26.656250 L11.015625 25.796875 L9.187500 25.796875 C9.156250 25.682291 9.140625 25.546876 9.140625 25.390625 C9.140625 24.953123 9.429685 24.541669 10.007812 24.156250 C10.585940 23.770831 11.335933 23.455730 12.257812 23.210938 C13.179692 22.966145 14.156245 22.843750 15.187500 22.843750 C16.322922 22.843750 17.372391 22.989582 18.335938 23.281250 C19.299484 23.572918 20.075518 23.945310 20.664062 24.398438 C21.252607 24.851565 21.546875 25.322914 21.546875 25.812500 C21.546875 26.375003 21.166670 26.656250 20.406250 26.656250 Z M9.265625 18.406250 C8.744789 18.406250 8.278648 18.166669 7.867188 17.687500 C7.455727 17.208331 7.250000 16.546879 7.250000 15.703125 C7.250000 15.609375 7.255208 15.513021 7.265625 15.414062 C7.276042 15.315104 7.286458 15.229167 7.296875 15.156250 L11.234375 15.156250 C11.244792 15.229167 11.252604 15.315104 11.257812 15.414062 C11.263021 15.513021 11.265625 15.609375 11.265625 15.703125 C11.265625 16.546879 11.062502 17.208331 10.656250 17.687500 C10.249998 18.166669 9.786461 18.406250 9.265625 18.406250 Z M5.406250 15.921875 L5.406250 14.359375 L12.781250 14.359375 L12.781250 15.921875 Z M6.921875 11.328125 L6.921875 9.765625 C9.317720 9.765625 11.104161 9.130215 12.281250 7.859375 L13.437500 8.921875 C12.708330 9.713546 11.786464 10.312498 10.671875 10.718750 C9.557286 11.125002 8.307299 11.328125 6.921875 11.328125 Z M21.671875 18.406250 C21.151039 18.406250 20.684898 18.166669 20.273438 17.687500 C19.861977 17.208331 19.656250 16.546879 19.656250 15.703125 C19.656250 15.609375 19.661458 15.513021 19.671875 15.414062 C19.682292 15.315104 19.692708 15.229167 19.703125 15.156250 L23.640625 15.156250 C23.651042 15.229167 23.658854 15.315104 23.664062 15.414062 C23.669271 15.513021 23.671875 15.609375 23.671875 15.703125 C23.671875 16.546879 23.468752 17.208331 23.062500 17.687500 C22.656248 18.166669 22.192711 18.406250 21.671875 18.406250 Z M17.812500 15.921875 L17.812500 14.359375 L25.187500 14.359375 L25.187500 15.921875 Z M23.796875 11.171875 C22.411451 11.171875 21.164068 10.968752 20.054688 10.562500 C18.945307 10.156248 18.020837 9.557296 17.281250 8.765625 L18.437500 7.703125 C19.614589 8.973965 21.401030 9.609375 23.796875 9.609375 Z M37.578125 27.343750" /></svg>