<svg version="1.1" xmlns="http://www.w3.org/2000/svg" style="fill:rgba(0,0,0,1.0)" width="256" height="256" viewBox="0 0 36.875 32.8125"><path fill="rgb(255, 255, 255)" d="M16.562500 32.812500 C14.187488 32.812500 11.992198 32.403650 9.976562 31.585938 C7.960927 30.768225 6.208341 29.619799 4.718750 28.140625 C3.229159 26.661451 2.070317 24.924489 1.242188 22.929688 C0.414058 20.934886 0.000000 18.760428 0.000000 16.406250 C0.000000 14.052072 0.414058 11.877614 1.242188 9.882812 C2.070317 7.888011 3.229159 6.151049 4.718750 4.671875 C6.208341 3.192701 7.960927 2.044275 9.976562 1.226562 C11.992198 0.408850 14.187488 -0.000000 16.562500 -0.000000 C18.937512 -0.000000 21.132802 0.408850 23.148438 1.226562 C25.164073 2.044275 26.916659 3.192701 28.406250 4.671875 C29.895841 6.151049 31.054683 7.888011 31.882812 9.882812 C32.710942 11.877614 33.125000 14.052072 33.125000 16.406250 C33.125000 18.760428 32.710942 20.934886 31.882812 22.929688 C31.054683 24.924489 29.895841 26.661451 28.406250 28.140625 C26.916659 29.619799 25.164073 30.768225 23.148438 31.585938 C21.132802 32.403650 18.937512 32.812500 16.562500 32.812500 Z M10.000000 21.125000 C10.864588 21.125000 11.638017 20.903648 12.320312 20.460938 C13.002608 20.018227 13.583331 19.348963 14.062500 18.453125 C13.822915 18.682293 13.559897 18.856770 13.273438 18.976562 C12.986978 19.096355 12.677085 19.156250 12.343750 19.156250 C12.072915 19.156250 11.830730 19.223958 11.617188 19.359375 C11.403645 19.494792 11.135418 19.562500 10.812500 19.562500 C10.583332 19.562500 10.403646 19.541667 10.273438 19.500000 C10.143229 19.458333 10.020834 19.408854 9.906250 19.351562 C9.791666 19.294271 9.653647 19.244792 9.492188 19.203125 C9.330728 19.161458 9.104168 19.140625 8.812500 19.140625 C8.489582 19.140625 8.242188 19.083334 8.070312 18.968750 C7.898437 18.854166 7.752605 18.718751 7.632812 18.562500 C7.513020 18.406249 7.369792 18.270834 7.203125 18.156250 C7.036458 18.041666 6.791668 17.984375 6.468750 17.984375 C6.312499 17.984375 6.125001 18.031250 5.906250 18.125000 C6.177085 19.010421 6.690100 19.731768 7.445312 20.289062 C8.200525 20.846357 9.052079 21.125000 10.000000 21.125000 Z M16.562500 27.234375 C14.749991 27.234375 12.942717 26.593756 11.140625 25.312500 L12.140625 23.906250 C13.609382 24.979172 15.083326 25.515625 16.562500 25.515625 C18.041674 25.515625 19.515618 24.979172 20.984375 23.906250 L21.984375 25.312500 C20.192699 26.593756 18.385426 27.234375 16.562500 27.234375 Z M10.000000 22.375000 C8.979162 22.375000 8.052087 22.127607 7.218750 21.632812 C6.385412 21.138018 5.723961 20.481775 5.234375 19.664062 C4.744789 18.846350 4.500000 17.953130 4.500000 16.984375 C4.500000 15.973953 4.747393 15.052087 5.242188 14.218750 C5.736982 13.385413 6.401038 12.721357 7.234375 12.226562 C8.067712 11.731768 8.989578 11.484375 10.000000 11.484375 C11.010422 11.484375 11.932288 11.731768 12.765625 12.226562 C13.598962 12.721357 14.263018 13.385413 14.757812 14.218750 C15.252607 15.052087 15.500000 15.973953 15.500000 16.984375 C15.500000 17.984380 15.250002 18.890621 14.750000 19.703125 C14.249998 20.515629 13.585942 21.164060 12.757812 21.648438 C11.929683 22.132815 11.010422 22.375000 10.000000 22.375000 Z M8.265625 17.390625 C8.713544 17.390625 9.171873 17.244793 9.640625 16.953125 C10.109377 16.661457 10.502603 16.296877 10.820312 15.859375 C11.138022 15.421873 11.296875 14.979169 11.296875 14.531250 C11.296875 14.072914 11.135418 13.666668 10.812500 13.312500 C10.489582 12.958332 10.083336 12.781250 9.593750 12.781250 C9.135414 12.781250 8.671877 12.924478 8.203125 13.210938 C7.734373 13.497397 7.343752 13.861977 7.031250 14.304688 C6.718748 14.747398 6.562500 15.203123 6.562500 15.671875 C6.562500 16.140627 6.729165 16.544269 7.062500 16.882812 C7.395835 17.221356 7.796873 17.390625 8.265625 17.390625 Z M11.609375 18.250000 C11.807293 18.250000 11.973958 18.182292 12.109375 18.046875 C12.244792 17.911458 12.312500 17.744793 12.312500 17.546875 C12.312500 17.348957 12.244792 17.182292 12.109375 17.046875 C11.973958 16.911458 11.807293 16.843750 11.609375 16.843750 C11.411457 16.843750 11.244792 16.911458 11.109375 17.046875 C10.973958 17.182292 10.906250 17.348957 10.906250 17.546875 C10.906250 17.744793 10.973958 17.911458 11.109375 18.046875 C11.244792 18.182292 11.411457 18.250000 11.609375 18.250000 Z M6.359375 11.109375 L5.953125 9.593750 C7.130214 9.281248 8.070309 8.911460 8.773438 8.484375 C9.476566 8.057290 10.036456 7.526045 10.453125 6.890625 L11.750000 7.750000 C11.229164 8.552087 10.533859 9.221351 9.664062 9.757812 C8.794266 10.294274 7.692715 10.744790 6.359375 11.109375 Z M16.562500 31.093750 C18.677094 31.093750 20.627595 30.726566 22.414062 29.992188 C24.200530 29.257809 25.752598 28.231777 27.070312 26.914062 C28.388027 25.596348 29.414059 24.041676 30.148438 22.250000 C30.882816 20.458324 31.250000 18.510427 31.250000 16.406250 C31.250000 14.291656 30.882816 12.341155 30.148438 10.554688 C29.414059 8.768220 28.388027 7.216152 27.070312 5.898438 C25.752598 4.580723 24.200530 3.554691 22.414062 2.820312 C20.627595 2.085934 18.677094 1.718750 16.562500 1.718750 C14.458323 1.718750 12.513030 2.085934 10.726562 2.820312 C8.940095 3.554691 7.385423 4.580723 6.062500 5.898438 C4.739577 7.216152 3.710941 8.768220 2.976562 10.554688 C2.242184 12.341155 1.875000 14.291656 1.875000 16.406250 C1.875000 18.510427 2.242184 20.458324 2.976562 22.250000 C3.710941 24.041676 4.736973 25.596348 6.054688 26.914062 C7.372402 28.231777 8.927074 29.257809 10.718750 29.992188 C12.510426 30.726566 14.458323 31.093750 16.562500 31.093750 Z M23.125000 21.125000 C23.989588 21.125000 24.807288 20.888023 25.578125 20.414062 C26.348962 19.940102 27.010414 19.062506 27.562500 17.781250 C27.229165 17.781250 26.953126 17.880207 26.734375 18.078125 C26.515624 18.276043 26.291668 18.476561 26.062500 18.679688 C25.833332 18.882814 25.520835 18.984375 25.125000 18.984375 C24.854165 18.984375 24.627605 19.059895 24.445312 19.210938 C24.263020 19.361980 24.010418 19.437500 23.687500 19.437500 C23.458332 19.437500 23.291667 19.414063 23.187500 19.367188 C23.083333 19.320312 22.989584 19.268229 22.906250 19.210938 C22.822916 19.153646 22.713542 19.101563 22.578125 19.054688 C22.442708 19.007812 22.229168 18.984375 21.937500 18.984375 C21.604165 18.984375 21.351563 18.934896 21.179688 18.835938 C21.007812 18.736979 20.861980 18.619792 20.742188 18.484375 C20.622395 18.348958 20.479168 18.231771 20.312500 18.132812 C20.145832 18.033854 19.906252 17.984375 19.593750 17.984375 C19.437499 17.984375 19.250001 18.031250 19.031250 18.125000 C19.302085 19.010421 19.815100 19.731768 20.570312 20.289062 C21.325525 20.846357 22.177079 21.125000 23.125000 21.125000 Z M23.125000 22.375000 C22.104162 22.375000 21.177088 22.127607 20.343750 21.632812 C19.510412 21.138018 18.848961 20.481775 18.359375 19.664062 C17.869789 18.846350 17.625000 17.953130 17.625000 16.984375 C17.625000 15.973953 17.872393 15.052087 18.367188 14.218750 C18.861982 13.385413 19.526038 12.721357 20.359375 12.226562 C21.192712 11.731768 22.114578 11.484375 23.125000 11.484375 C24.135422 11.484375 25.057288 11.731768 25.890625 12.226562 C26.723962 12.721357 27.388018 13.385413 27.882812 14.218750 C28.377607 15.052087 28.625000 15.973953 28.625000 16.984375 C28.625000 17.984380 28.375002 18.890621 27.875000 19.703125 C27.374998 20.515629 26.710942 21.164060 25.882812 21.648438 C25.054683 22.132815 24.135422 22.375000 23.125000 22.375000 Z M21.390625 17.390625 C21.838544 17.390625 22.294269 17.244793 22.757812 16.953125 C23.221356 16.661457 23.614582 16.296877 23.937500 15.859375 C24.260418 15.421873 24.421875 14.979169 24.421875 14.531250 C24.421875 14.072914 24.260418 13.666668 23.937500 13.312500 C23.614582 12.958332 23.208336 12.781250 22.718750 12.781250 C22.260414 12.781250 21.796877 12.924478 21.328125 13.210938 C20.859373 13.497397 20.468752 13.861977 20.156250 14.304688 C19.843748 14.747398 19.687500 15.203123 19.687500 15.671875 C19.687500 16.140627 19.854165 16.544269 20.187500 16.882812 C20.520835 17.221356 20.921873 17.390625 21.390625 17.390625 Z M24.734375 18.250000 C24.932293 18.250000 25.098958 18.182292 25.234375 18.046875 C25.369792 17.911458 25.437500 17.744793 25.437500 17.546875 C25.437500 17.348957 25.369792 17.182292 25.234375 17.046875 C25.098958 16.911458 24.932293 16.843750 24.734375 16.843750 C24.536457 16.843750 24.369792 16.911458 24.234375 17.046875 C24.098958 17.182292 24.031250 17.348957 24.031250 17.546875 C24.031250 17.744793 24.098958 17.911458 24.234375 18.046875 C24.369792 18.182292 24.536457 18.250000 24.734375 18.250000 Z M26.765625 11.109375 C25.432285 10.744790 24.330734 10.294274 23.460938 9.757812 C22.591141 9.221351 21.895836 8.552087 21.375000 7.750000 L22.671875 6.890625 C23.098960 7.526045 23.664059 8.057290 24.367188 8.484375 C25.070316 8.911460 26.005202 9.281248 27.171875 9.593750 Z M36.875000 27.343750" /></svg>