<svg version="1.1" xmlns="http://www.w3.org/2000/svg" style="fill:rgba(0,0,0,1.0)" width="256" height="256" viewBox="0 0 36.875 32.8125"><path fill="rgb(255, 255, 255)" d="M16.562500 32.812500 C14.187488 32.812500 11.992198 32.403650 9.976562 31.585938 C7.960927 30.768225 6.208341 29.619799 4.718750 28.140625 C3.229159 26.661451 2.070317 24.924489 1.242188 22.929688 C0.414058 20.934886 0.000000 18.760428 0.000000 16.406250 C0.000000 14.052072 0.414058 11.877614 1.242188 9.882812 C2.070317 7.888011 3.229159 6.151049 4.718750 4.671875 C6.208341 3.192701 7.960927 2.044275 9.976562 1.226562 C11.992198 0.408850 14.187488 -0.000000 16.562500 -0.000000 C18.937512 -0.000000 21.132802 0.408850 23.148438 1.226562 C25.164073 2.044275 26.916659 3.192701 28.406250 4.671875 C29.895841 6.151049 31.054683 7.888011 31.882812 9.882812 C32.710942 11.877614 33.125000 14.052072 33.125000 16.406250 C33.125000 18.760428 32.710942 20.934886 31.882812 22.929688 C31.054683 24.924489 29.895841 26.661451 28.406250 28.140625 C26.916659 29.619799 25.164073 30.768225 23.148438 31.585938 C21.132802 32.403650 18.937512 32.812500 16.562500 32.812500 Z M23.000000 26.906250 C21.104157 25.291659 18.890638 24.484375 16.359375 24.484375 C15.307286 24.484375 14.192714 24.640623 13.015625 24.953125 L12.578125 23.296875 C13.859381 22.942707 15.119785 22.765625 16.359375 22.765625 C19.307306 22.765625 21.895822 23.708324 24.125000 25.593750 Z M1.734375 20.968750 L0.859375 19.687500 C2.109381 18.822912 3.494784 17.932296 5.015625 17.015625 C6.536466 16.098954 8.080721 15.216150 9.648438 14.367188 C11.216154 13.518225 12.692701 12.763024 14.078125 12.101562 C15.463549 11.440101 16.640620 10.942710 17.609375 10.609375 L18.640625 11.765625 C17.578120 12.161460 16.335945 12.703122 14.914062 13.390625 C13.492180 14.078128 11.997404 14.848954 10.429688 15.703125 C8.861971 16.557296 7.325528 17.437495 5.820312 18.343750 C4.315097 19.250005 2.953131 20.124996 1.734375 20.968750 Z M11.062500 19.140625 C10.468747 19.140625 9.960940 18.888023 9.539062 18.382812 C9.117185 17.877602 8.906250 17.270837 8.906250 16.562500 C8.906250 15.854163 9.117185 15.247398 9.539062 14.742188 C9.960940 14.236977 10.468747 13.984375 11.062500 13.984375 C11.645836 13.984375 12.151040 14.236977 12.578125 14.742188 C13.005210 15.247398 13.218750 15.854163 13.218750 16.562500 C13.218750 17.260420 13.007815 17.864581 12.585938 18.375000 C12.164060 18.885419 11.656253 19.140625 11.062500 19.140625 Z M16.562500 31.093750 C18.677094 31.093750 20.627595 30.726566 22.414062 29.992188 C24.200530 29.257809 25.752598 28.231777 27.070312 26.914062 C28.388027 25.596348 29.414059 24.041676 30.148438 22.250000 C30.882816 20.458324 31.250000 18.510427 31.250000 16.406250 C31.250000 14.291656 30.882816 12.341155 30.148438 10.554688 C29.414059 8.768220 28.388027 7.216152 27.070312 5.898438 C25.752598 4.580723 24.200530 3.554691 22.414062 2.820312 C20.627595 2.085934 18.677094 1.718750 16.562500 1.718750 C14.458323 1.718750 12.513030 2.085934 10.726562 2.820312 C8.940095 3.554691 7.385423 4.580723 6.062500 5.898438 C4.739577 7.216152 3.710941 8.768220 2.976562 10.554688 C2.242184 12.341155 1.875000 14.291656 1.875000 16.406250 C1.875000 18.510427 2.242184 20.458324 2.976562 22.250000 C3.710941 24.041676 4.736973 25.596348 6.054688 26.914062 C7.372402 28.231777 8.927074 29.257809 10.718750 29.992188 C12.510426 30.726566 14.458323 31.093750 16.562500 31.093750 Z M0.921875 13.843750 L0.734375 12.281250 C6.046902 11.635413 11.197892 11.067711 16.187500 10.578125 C21.177108 10.088539 26.046851 9.666668 30.796875 9.312500 L30.921875 10.875000 C26.182268 11.218752 21.322942 11.638018 16.343750 12.132812 C11.364558 12.627607 6.223985 13.197913 0.921875 13.843750 Z M22.062500 19.140625 C21.468747 19.140625 20.960940 18.888023 20.539062 18.382812 C20.117185 17.877602 19.906250 17.270837 19.906250 16.562500 C19.906250 15.854163 20.117185 15.247398 20.539062 14.742188 C20.960940 14.236977 21.468747 13.984375 22.062500 13.984375 C22.645836 13.984375 23.151040 14.236977 23.578125 14.742188 C24.005210 15.247398 24.218750 15.854163 24.218750 16.562500 C24.218750 17.260420 24.007815 17.864581 23.585938 18.375000 C23.164060 18.885419 22.656253 19.140625 22.062500 19.140625 Z M4.390625 7.171875 L4.203125 5.609375 C8.078144 5.161456 11.869773 4.752606 15.578125 4.382812 C19.286477 4.013019 22.927065 3.682293 26.500000 3.390625 L26.625000 4.953125 C23.062482 5.244793 19.432310 5.572915 15.734375 5.937500 C12.036440 6.302085 8.255228 6.713539 4.390625 7.171875 Z M15.046875 5.906250 L14.140625 4.625000 C15.473965 3.916663 16.786452 3.257816 18.078125 2.648438 C19.369798 2.039059 20.723951 1.463544 22.140625 0.921875 L22.703125 2.390625 C21.317701 2.911461 20.005215 3.466143 18.765625 4.054688 C17.526035 4.643232 16.286465 5.260413 15.046875 5.906250 Z M36.875000 27.343750" /></svg>