<svg version="1.1" xmlns="http://www.w3.org/2000/svg" style="fill:rgba(0,0,0,1.0)" width="256" height="256" viewBox="0 0 36.875 32.8125"><path fill="rgb(255, 255, 255)" d="M16.562500 32.812500 C14.187488 32.812500 11.992198 32.403650 9.976562 31.585938 C7.960927 30.768225 6.208341 29.619799 4.718750 28.140625 C3.229159 26.661451 2.070317 24.924489 1.242188 22.929688 C0.414058 20.934886 0.000000 18.760428 0.000000 16.406250 C0.000000 14.052072 0.414058 11.877614 1.242188 9.882812 C2.070317 7.888011 3.229159 6.151049 4.718750 4.671875 C6.208341 3.192701 7.960927 2.044275 9.976562 1.226562 C11.992198 0.408850 14.187488 -0.000000 16.562500 -0.000000 C18.937512 -0.000000 21.132802 0.408850 23.148438 1.226562 C25.164073 2.044275 26.916659 3.192701 28.406250 4.671875 C29.895841 6.151049 31.054683 7.888011 31.882812 9.882812 C32.710942 11.877614 33.125000 14.052072 33.125000 16.406250 C33.125000 18.354176 32.838545 20.184887 32.265625 21.898438 C31.692705 23.611988 30.880214 25.151035 29.828125 26.515625 L28.609375 25.093750 L30.046875 24.421875 L29.781250 23.078125 C30.250002 22.088537 30.611978 21.033860 30.867188 19.914062 C31.122397 18.794265 31.250000 17.625006 31.250000 16.406250 C31.250000 14.291656 30.882816 12.341155 30.148438 10.554688 C29.414059 8.768220 28.388027 7.216152 27.070312 5.898438 C25.752598 4.580723 24.200530 3.554691 22.414062 2.820312 C20.627595 2.085934 18.682302 1.718750 16.578125 1.718750 C14.463531 1.718750 12.513030 2.085934 10.726562 2.820312 C8.940095 3.554691 7.385423 4.580723 6.062500 5.898438 C4.739577 7.216152 3.710941 8.768220 2.976562 10.554688 C2.242184 12.341155 1.875000 14.286448 1.875000 16.390625 C1.875000 18.505219 2.242184 20.458324 2.976562 22.250000 C3.710941 24.041676 4.736973 25.596348 6.054688 26.914062 C7.372402 28.231777 8.927074 29.257809 10.718750 29.992188 C12.510426 30.726566 14.458323 31.093750 16.562500 31.093750 C18.708344 31.093750 20.692699 30.710941 22.515625 29.945312 C24.338551 29.179684 25.906243 28.119798 27.218750 26.765625 L27.968750 28.562500 C26.510409 29.895840 24.809906 30.937496 22.867188 31.687500 C20.924469 32.437504 18.822928 32.812500 16.562500 32.812500 Z M18.703125 25.828125 C17.098950 25.119788 15.598965 24.765625 14.203125 24.765625 C13.098953 24.765625 12.046880 24.989581 11.046875 25.437500 L10.328125 23.875000 C11.546881 23.322914 12.838535 23.046875 14.203125 23.046875 C15.880217 23.046875 17.609366 23.447913 19.390625 24.250000 Z M9.000000 16.328125 C8.406247 16.328125 7.898440 16.067711 7.476562 15.546875 C7.054685 15.026039 6.843750 14.375004 6.843750 13.593750 C6.843750 12.812496 7.054685 12.161461 7.476562 11.640625 C7.898440 11.119789 8.406247 10.859375 9.000000 10.859375 C9.583336 10.859375 10.088540 11.119789 10.515625 11.640625 C10.942710 12.161461 11.156250 12.812496 11.156250 13.593750 C11.156250 14.375004 10.945315 15.026039 10.523438 15.546875 C10.101560 16.067711 9.593753 16.328125 9.000000 16.328125 Z M28.718750 32.812500 C28.208331 32.812500 27.770835 32.632814 27.406250 32.273438 C27.041665 31.914061 26.859375 31.479169 26.859375 30.968750 C26.859375 30.447914 27.041665 30.010418 27.406250 29.656250 C27.770835 29.302082 28.208331 29.125000 28.718750 29.125000 C29.229169 29.125000 29.664061 29.304686 30.023438 29.664062 C30.382814 30.023439 30.562500 30.458331 30.562500 30.968750 C30.562500 31.479169 30.382814 31.914061 30.023438 32.273438 C29.664061 32.632814 29.229169 32.812500 28.718750 32.812500 Z M28.718750 31.875000 C28.968751 31.875000 29.182291 31.786459 29.359375 31.609375 C29.536459 31.432291 29.625000 31.218751 29.625000 30.968750 C29.625000 30.718749 29.536459 30.505209 29.359375 30.328125 C29.182291 30.151041 28.968751 30.062500 28.718750 30.062500 C28.458332 30.062500 28.239584 30.151041 28.062500 30.328125 C27.885416 30.505209 27.796875 30.718749 27.796875 30.968750 C27.796875 31.218751 27.885416 31.432291 28.062500 31.609375 C28.239584 31.786459 28.458332 31.875000 28.718750 31.875000 Z M6.156250 10.625000 L4.656250 10.187500 C5.010418 9.031244 5.445310 8.174482 5.960938 7.617188 C6.476565 7.059893 7.119788 6.781250 7.890625 6.781250 C8.151043 6.781250 8.408853 6.807291 8.664062 6.859375 C8.919272 6.911459 9.161457 6.963541 9.390625 7.015625 C9.640626 7.078125 9.877603 7.132812 10.101562 7.179688 C10.325522 7.226563 10.552082 7.250000 10.781250 7.250000 L12.203125 7.250000 L12.203125 8.812500 L10.781250 8.812500 C10.437498 8.812500 10.114585 8.783854 9.812500 8.726562 C9.510415 8.669271 9.229168 8.604167 8.968750 8.531250 C8.770832 8.479166 8.580730 8.434896 8.398438 8.398438 C8.216145 8.361979 8.046876 8.343750 7.890625 8.343750 C7.536457 8.343750 7.221356 8.515623 6.945312 8.859375 C6.669269 9.203127 6.406251 9.791663 6.156250 10.625000 Z M28.718750 29.218750 C28.208331 29.218750 27.770835 29.039064 27.406250 28.679688 C27.041665 28.320311 26.859375 27.885419 26.859375 27.375000 C26.859375 26.854164 27.041665 26.416668 27.406250 26.062500 C27.770835 25.708332 28.208331 25.531250 28.718750 25.531250 C29.229169 25.531250 29.664061 25.710936 30.023438 26.070312 C30.382814 26.429689 30.562500 26.864581 30.562500 27.375000 C30.562500 27.885419 30.382814 28.320311 30.023438 28.679688 C29.664061 29.039064 29.229169 29.218750 28.718750 29.218750 Z M28.718750 28.281250 C28.968751 28.281250 29.182291 28.192709 29.359375 28.015625 C29.536459 27.838541 29.625000 27.625001 29.625000 27.375000 C29.625000 27.124999 29.536459 26.911459 29.359375 26.734375 C29.182291 26.557291 28.968751 26.468750 28.718750 26.468750 C28.458332 26.468750 28.239584 26.557291 28.062500 26.734375 C27.885416 26.911459 27.796875 27.124999 27.796875 27.375000 C27.796875 27.625001 27.885416 27.838541 28.062500 28.015625 C28.239584 28.192709 28.458332 28.281250 28.718750 28.281250 Z M28.718750 25.625000 C28.208331 25.625000 27.770835 25.445314 27.406250 25.085938 C27.041665 24.726561 26.859375 24.291669 26.859375 23.781250 C26.859375 23.260414 27.041665 22.822918 27.406250 22.468750 C27.770835 22.114582 28.208331 21.937500 28.718750 21.937500 C29.229169 21.937500 29.664061 22.117186 30.023438 22.476562 C30.382814 22.835939 30.562500 23.270831 30.562500 23.781250 C30.562500 24.291669 30.382814 24.726561 30.023438 25.085938 C29.664061 25.445314 29.229169 25.625000 28.718750 25.625000 Z M28.718750 24.687500 C28.968751 24.687500 29.182291 24.598959 29.359375 24.421875 C29.536459 24.244791 29.625000 24.031251 29.625000 23.781250 C29.625000 23.531249 29.536459 23.317709 29.359375 23.140625 C29.182291 22.963541 28.968751 22.875000 28.718750 22.875000 C28.458332 22.875000 28.239584 22.963541 28.062500 23.140625 C27.885416 23.317709 27.796875 23.531249 27.796875 23.781250 C27.796875 24.031251 27.885416 24.244791 28.062500 24.421875 C28.239584 24.598959 28.458332 24.687500 28.718750 24.687500 Z M21.531250 19.015625 C20.458328 19.015625 19.476567 18.755211 18.585938 18.234375 C17.695308 17.713539 16.986982 17.010421 16.460938 16.125000 C15.934893 15.239579 15.671875 14.255214 15.671875 13.171875 C15.671875 12.098953 15.934893 11.119796 16.460938 10.234375 C16.986982 9.348954 17.692704 8.643232 18.578125 8.117188 C19.463546 7.591143 20.447911 7.328125 21.531250 7.328125 C22.604172 7.328125 23.580725 7.591143 24.460938 8.117188 C25.341150 8.643232 26.044268 9.346350 26.570312 10.226562 C27.096357 11.106775 27.359375 12.088536 27.359375 13.171875 C27.359375 14.255214 27.096357 15.239579 26.570312 16.125000 C26.044268 17.010421 25.341150 17.713539 24.460938 18.234375 C23.580725 18.755211 22.604172 19.015625 21.531250 19.015625 Z M21.531250 17.625000 C22.354171 17.625000 23.098955 17.424481 23.765625 17.023438 C24.432295 16.622394 24.966144 16.083337 25.367188 15.406250 C25.768231 14.729163 25.968750 13.984379 25.968750 13.171875 C25.968750 12.348954 25.768231 11.604170 25.367188 10.937500 C24.966144 10.270830 24.429691 9.736981 23.757812 9.335938 C23.085934 8.934894 22.343754 8.734375 21.531250 8.734375 C20.708329 8.734375 19.960941 8.932290 19.289062 9.328125 C18.617184 9.723960 18.080731 10.257809 17.679688 10.929688 C17.278644 11.601566 17.078125 12.348954 17.078125 13.171875 C17.078125 13.984379 17.278644 14.729163 17.679688 15.406250 C18.080731 16.083337 18.617184 16.622394 19.289062 17.023438 C19.960941 17.424481 20.708329 17.625000 21.531250 17.625000 Z M21.656250 16.156250 C20.979163 16.156250 20.406252 15.877607 19.937500 15.320312 C19.468748 14.763018 19.234375 14.083337 19.234375 13.281250 C19.234375 12.479163 19.468748 11.799482 19.937500 11.242188 C20.406252 10.684893 20.979163 10.406250 21.656250 10.406250 C22.333337 10.406250 22.906248 10.684893 23.375000 11.242188 C23.843752 11.799482 24.078125 12.479163 24.078125 13.281250 C24.078125 14.083337 23.843752 14.763018 23.375000 15.320312 C22.906248 15.877607 22.333337 16.156250 21.656250 16.156250 Z M28.718750 22.031250 C28.208331 22.031250 27.770835 21.851564 27.406250 21.492188 C27.041665 21.132811 26.859375 20.697919 26.859375 20.187500 C26.859375 19.666664 27.041665 19.229168 27.406250 18.875000 C27.770835 18.520832 28.208331 18.343750 28.718750 18.343750 C29.229169 18.343750 29.664061 18.523436 30.023438 18.882812 C30.382814 19.242189 30.562500 19.677081 30.562500 20.187500 C30.562500 20.697919 30.382814 21.132811 30.023438 21.492188 C29.664061 21.851564 29.229169 22.031250 28.718750 22.031250 Z M28.718750 21.093750 C28.968751 21.093750 29.182291 21.005209 29.359375 20.828125 C29.536459 20.651041 29.625000 20.437501 29.625000 20.187500 C29.625000 19.937499 29.536459 19.723959 29.359375 19.546875 C29.182291 19.369791 28.968751 19.281250 28.718750 19.281250 C28.458332 19.281250 28.239584 19.369791 28.062500 19.546875 C27.885416 19.723959 27.796875 19.937499 27.796875 20.187500 C27.796875 20.437501 27.885416 20.651041 28.062500 20.828125 C28.239584 21.005209 28.458332 21.093750 28.718750 21.093750 Z M28.718750 18.437500 C28.208331 18.437500 27.770835 18.257814 27.406250 17.898438 C27.041665 17.539061 26.859375 17.104169 26.859375 16.593750 C26.859375 16.072914 27.041665 15.635418 27.406250 15.281250 C27.770835 14.927082 28.208331 14.750000 28.718750 14.750000 C29.229169 14.750000 29.664061 14.929686 30.023438 15.289062 C30.382814 15.648439 30.562500 16.083331 30.562500 16.593750 C30.562500 17.104169 30.382814 17.539061 30.023438 17.898438 C29.664061 18.257814 29.229169 18.437500 28.718750 18.437500 Z M28.718750 17.500000 C28.968751 17.500000 29.182291 17.411459 29.359375 17.234375 C29.536459 17.057291 29.625000 16.843751 29.625000 16.593750 C29.625000 16.343749 29.536459 16.130209 29.359375 15.953125 C29.182291 15.776041 28.968751 15.687500 28.718750 15.687500 C28.458332 15.687500 28.239584 15.776041 28.062500 15.953125 C27.885416 16.130209 27.796875 16.343749 27.796875 16.593750 C27.796875 16.843751 27.885416 17.057291 28.062500 17.234375 C28.239584 17.411459 28.458332 17.500000 28.718750 17.500000 Z M26.859375 14.843750 L26.859375 11.156250 L28.718750 11.156250 C29.229169 11.156250 29.664061 11.335936 30.023438 11.695312 C30.382814 12.054689 30.562500 12.489581 30.562500 13.000000 C30.562500 13.510419 30.382814 13.945311 30.023438 14.304688 C29.664061 14.664064 29.229169 14.843750 28.718750 14.843750 Z M28.718750 13.906250 C28.968751 13.906250 29.182291 13.817709 29.359375 13.640625 C29.536459 13.463541 29.625000 13.250001 29.625000 13.000000 C29.625000 12.749999 29.536459 12.536459 29.359375 12.359375 C29.182291 12.182291 28.968751 12.093750 28.718750 12.093750 C28.458332 12.093750 28.239584 12.182291 28.062500 12.359375 C27.885416 12.536459 27.796875 12.749999 27.796875 13.000000 C27.796875 13.250001 27.885416 13.463541 28.062500 13.640625 C28.239584 13.817709 28.458332 13.906250 28.718750 13.906250 Z M18.734375 7.640625 L17.718750 6.453125 C18.739588 5.557287 19.664058 4.916669 20.492188 4.531250 C21.320317 4.145831 22.057288 3.953125 22.703125 3.953125 C23.442712 3.953125 24.065102 4.208331 24.570312 4.718750 C25.075523 5.229169 25.447915 5.973953 25.687500 6.953125 L24.171875 7.328125 C24.015624 6.692705 23.815105 6.231772 23.570312 5.945312 C23.325520 5.658853 23.036460 5.515625 22.703125 5.515625 C22.276040 5.515625 21.731774 5.677082 21.070312 6.000000 C20.408851 6.322918 19.630213 6.869788 18.734375 7.640625 Z M36.875000 27.343750" /></svg>