<svg version="1.1" xmlns="http://www.w3.org/2000/svg" style="fill:rgba(0,0,0,1.0)" width="256" height="256" viewBox="0 0 36.875 32.8125"><path fill="rgb(255, 255, 255)" d="M16.562500 32.812500 C14.187488 32.812500 11.992198 32.403650 9.976562 31.585938 C7.960927 30.768225 6.208341 29.619799 4.718750 28.140625 C3.229159 26.661451 2.070317 24.924489 1.242188 22.929688 C0.414058 20.934886 0.000000 18.760428 0.000000 16.406250 C0.000000 14.052072 0.414058 11.877614 1.242188 9.882812 C2.070317 7.888011 3.229159 6.151049 4.718750 4.671875 C6.208341 3.192701 7.960927 2.044275 9.976562 1.226562 C11.992198 0.408850 14.187488 -0.000000 16.562500 -0.000000 C18.937512 -0.000000 21.132802 0.408850 23.148438 1.226562 C25.164073 2.044275 26.916659 3.192701 28.406250 4.671875 C29.895841 6.151049 31.054683 7.888011 31.882812 9.882812 C32.710942 11.877614 33.125000 14.052072 33.125000 16.406250 C33.125000 16.833335 33.109375 17.255206 33.078125 17.671875 C33.046875 18.088544 33.005209 18.499998 32.953125 18.906250 C32.421872 18.520831 31.822920 18.270834 31.156250 18.156250 C31.187500 17.864582 31.210937 17.572918 31.226562 17.281250 C31.242188 16.989582 31.250000 16.697918 31.250000 16.406250 C31.250000 14.291656 30.882816 12.341155 30.148438 10.554688 C29.414059 8.768220 28.388027 7.216152 27.070312 5.898438 C25.752598 4.580723 24.200530 3.554691 22.414062 2.820312 C20.627595 2.085934 18.677094 1.718750 16.562500 1.718750 C14.458323 1.718750 12.513030 2.085934 10.726562 2.820312 C8.940095 3.554691 7.385423 4.580723 6.062500 5.898438 C4.739577 7.216152 3.710941 8.768220 2.976562 10.554688 C2.242184 12.341155 1.875000 14.291656 1.875000 16.406250 C1.875000 18.510427 2.242184 20.458324 2.976562 22.250000 C3.710941 24.041676 4.736973 25.596348 6.054688 26.914062 C7.372402 28.231777 8.927074 29.257809 10.718750 29.992188 C12.510426 30.726566 14.458323 31.093750 16.562500 31.093750 C18.135425 31.093750 19.622389 30.885419 21.023438 30.468750 C22.424486 30.052081 23.708328 29.463545 24.875000 28.703125 C25.343752 28.734375 25.815102 28.757812 26.289062 28.773438 C26.763023 28.789063 27.234373 28.796875 27.703125 28.796875 C26.255201 30.057298 24.585947 31.041663 22.695312 31.750000 C20.804678 32.458337 18.760428 32.812500 16.562500 32.812500 Z M15.890625 27.000000 L15.890625 25.281250 C16.609379 25.281250 17.187498 25.177084 17.625000 24.968750 C18.062502 24.760416 18.281250 24.463544 18.281250 24.078125 C18.281250 23.796874 18.156251 23.554689 17.906250 23.351562 C17.656249 23.148436 17.286461 23.026042 16.796875 22.984375 L16.796875 21.578125 C17.234377 21.557292 17.572915 21.479167 17.812500 21.343750 C18.052085 21.208333 18.171875 21.026043 18.171875 20.796875 C18.171875 20.526040 17.979169 20.317709 17.593750 20.171875 C17.208331 20.026041 16.656254 19.953125 15.937500 19.953125 L15.937500 18.234375 C17.114589 18.234375 18.062496 18.450519 18.781250 18.882812 C19.500004 19.315106 19.859375 19.885413 19.859375 20.593750 C19.859375 21.145836 19.640627 21.718747 19.203125 22.312500 C19.505210 22.593751 19.713541 22.874999 19.828125 23.156250 C19.942709 23.437501 20.000000 23.744790 20.000000 24.078125 C20.000000 25.015630 19.625004 25.736977 18.875000 26.242188 C18.124996 26.747398 17.130215 27.000000 15.890625 27.000000 Z M10.906250 15.390625 C10.322914 15.390625 9.817710 15.135419 9.390625 14.625000 C8.963540 14.114581 8.750000 13.510420 8.750000 12.812500 C8.750000 12.104163 8.963540 11.497398 9.390625 10.992188 C9.817710 10.486977 10.322914 10.234375 10.906250 10.234375 C11.489586 10.234375 11.994790 10.486977 12.421875 10.992188 C12.848960 11.497398 13.062500 12.104163 13.062500 12.812500 C13.062500 13.510420 12.848960 14.114581 12.421875 14.625000 C11.994790 15.135419 11.489586 15.390625 10.906250 15.390625 Z M7.093750 10.515625 L5.718750 9.765625 C6.208336 8.890621 6.851559 8.153649 7.648438 7.554688 C8.445316 6.955726 9.494785 6.421877 10.796875 5.953125 L11.328125 7.421875 C10.192703 7.828127 9.302087 8.268227 8.656250 8.742188 C8.010413 9.216148 7.489585 9.807288 7.093750 10.515625 Z M26.609375 27.250000 C25.119784 27.250000 23.619799 26.979169 22.109375 26.437500 C22.515627 26.114582 22.804687 25.773439 22.976562 25.414062 C23.148438 25.054686 23.234375 24.697918 23.234375 24.343750 C23.234375 23.854164 23.143230 23.338544 22.960938 22.796875 C22.778645 22.255206 22.687500 21.567712 22.687500 20.734375 C22.687500 19.494785 22.966143 18.528649 23.523438 17.835938 C24.080732 17.143226 24.812495 16.796875 25.718750 16.796875 C26.552088 16.796875 27.268226 17.080726 27.867188 17.648438 C28.466149 18.216149 28.765625 18.937496 28.765625 19.812500 C29.005210 19.739583 29.244790 19.687500 29.484375 19.656250 C29.723960 19.625000 29.947916 19.609375 30.156250 19.609375 C31.083338 19.609375 31.809893 19.877601 32.335938 20.414062 C32.861982 20.950524 33.125000 21.677079 33.125000 22.593750 C33.125000 23.510421 32.848961 24.317705 32.296875 25.015625 C31.744789 25.713545 30.979172 26.260415 30.000000 26.656250 C29.020828 27.052085 27.890631 27.250000 26.609375 27.250000 Z M25.093750 15.703125 C24.427080 15.401040 23.747399 15.164063 23.054688 14.992188 C22.361976 14.820312 21.656254 14.734375 20.937500 14.734375 C20.781249 14.734375 20.617188 14.742187 20.445312 14.757812 C20.273437 14.773438 20.072918 14.796875 19.843750 14.828125 L19.078125 13.156250 C20.026046 12.312496 20.981766 11.583336 21.945312 10.968750 C22.908859 10.354164 23.864579 9.848960 24.812500 9.453125 L25.437500 11.062500 C24.947914 11.260418 24.414065 11.518228 23.835938 11.835938 C23.257810 12.153647 22.598962 12.572914 21.859375 13.093750 C21.901042 13.093750 21.937500 13.093750 21.968750 13.093750 C22.000000 13.093750 22.036458 13.093750 22.078125 13.093750 C22.494794 13.093750 23.057288 13.195311 23.765625 13.398438 C24.473962 13.601564 25.166663 13.854165 25.843750 14.156250 Z M36.875000 27.343750" /></svg>