<svg version="1.1" xmlns="http://www.w3.org/2000/svg" style="fill:rgba(0,0,0,1.0)" width="256" height="256" viewBox="0 0 36.875 32.8125"><path fill="rgb(255, 255, 255)" d="M16.562500 32.812500 C14.187488 32.812500 11.992198 32.403650 9.976562 31.585938 C7.960927 30.768225 6.208341 29.619799 4.718750 28.140625 C3.229159 26.661451 2.070317 24.924489 1.242188 22.929688 C0.414058 20.934886 0.000000 18.760428 0.000000 16.406250 C0.000000 14.052072 0.414058 11.877614 1.242188 9.882812 C2.070317 7.888011 3.229159 6.151049 4.718750 4.671875 C6.208341 3.192701 7.960927 2.044275 9.976562 1.226562 C11.992198 0.408850 14.187488 -0.000000 16.562500 -0.000000 C18.937512 -0.000000 21.132802 0.408850 23.148438 1.226562 C25.164073 2.044275 26.916659 3.192701 28.406250 4.671875 C29.895841 6.151049 31.054683 7.888011 31.882812 9.882812 C32.710942 11.877614 33.125000 14.052072 33.125000 16.406250 C33.125000 18.760428 32.710942 20.934886 31.882812 22.929688 C31.054683 24.924489 29.895841 26.661451 28.406250 28.140625 C26.916659 29.619799 25.164073 30.768225 23.148438 31.585938 C21.132802 32.403650 18.937512 32.812500 16.562500 32.812500 Z M13.781250 27.187500 L13.046875 25.656250 C14.203131 25.114581 15.374994 24.843750 16.562500 24.843750 C17.750006 24.843750 18.921869 25.114581 20.078125 25.656250 L19.343750 27.187500 C18.437495 26.770831 17.510421 26.562500 16.562500 26.562500 C15.614579 26.562500 14.687505 26.770831 13.781250 27.187500 Z M10.312500 21.750000 C9.406245 21.750000 8.583337 21.531252 7.843750 21.093750 C7.104163 20.656248 6.513023 20.065108 6.070312 19.320312 C5.627602 18.575517 5.406250 17.750005 5.406250 16.843750 C5.406250 15.937495 5.627602 15.114587 6.070312 14.375000 C6.513023 13.635413 7.104163 13.044273 7.843750 12.601562 C8.583337 12.158852 9.406245 11.937500 10.312500 11.937500 C11.218755 11.937500 12.041663 12.158852 12.781250 12.601562 C13.520837 13.044273 14.111977 13.635413 14.554688 14.375000 C14.997398 15.114587 15.218750 15.937495 15.218750 16.843750 C15.218750 17.750005 14.997398 18.575517 14.554688 19.320312 C14.111977 20.065108 13.520837 20.656248 12.781250 21.093750 C12.041663 21.531252 11.218755 21.750000 10.312500 21.750000 Z M11.921875 18.718750 C12.119793 18.718750 12.286458 18.651042 12.421875 18.515625 C12.557292 18.380208 12.625000 18.213543 12.625000 18.015625 C12.625000 17.817707 12.557292 17.651042 12.421875 17.515625 C12.286458 17.380208 12.119793 17.312500 11.921875 17.312500 C11.723957 17.312500 11.557292 17.380208 11.421875 17.515625 C11.286458 17.651042 11.218750 17.817707 11.218750 18.015625 C11.218750 18.213543 11.286458 18.380208 11.421875 18.515625 C11.557292 18.651042 11.723957 18.718750 11.921875 18.718750 Z M8.578125 17.390625 C9.026044 17.390625 9.484373 17.244793 9.953125 16.953125 C10.421877 16.661457 10.815103 16.296877 11.132812 15.859375 C11.450522 15.421873 11.609375 14.979169 11.609375 14.531250 C11.609375 14.072914 11.447918 13.666668 11.125000 13.312500 C10.802082 12.958332 10.395836 12.781250 9.906250 12.781250 C9.447914 12.781250 8.984377 12.924478 8.515625 13.210938 C8.046873 13.497397 7.656252 13.861977 7.343750 14.304688 C7.031248 14.747398 6.875000 15.203123 6.875000 15.671875 C6.875000 16.140627 7.041665 16.544269 7.375000 16.882812 C7.708335 17.221356 8.109373 17.390625 8.578125 17.390625 Z M6.187500 10.875000 L5.906250 9.343750 C7.104173 9.135416 8.070309 8.848960 8.804688 8.484375 C9.539066 8.119790 10.145831 7.635420 10.625000 7.031250 L11.843750 8.000000 C11.249997 8.760420 10.500005 9.369789 9.593750 9.828125 C8.687495 10.286461 7.552090 10.635415 6.187500 10.875000 Z M16.578125 31.093750 C18.682302 31.093750 20.627595 30.726566 22.414062 29.992188 C24.200530 29.257809 25.752598 28.231777 27.070312 26.914062 C28.388027 25.596348 29.414059 24.041676 30.148438 22.250000 C30.882816 20.458324 31.250000 18.505219 31.250000 16.390625 C31.250000 14.286448 30.882816 12.341155 30.148438 10.554688 C29.414059 8.768220 28.388027 7.216152 27.070312 5.898438 C25.752598 4.580723 24.200530 3.554691 22.414062 2.820312 C20.627595 2.085934 18.682302 1.718750 16.578125 1.718750 C14.463531 1.718750 12.513030 2.085934 10.726562 2.820312 C8.940095 3.554691 7.385423 4.580723 6.062500 5.898438 C4.739577 7.216152 3.710941 8.768220 2.976562 10.554688 C2.242184 12.341155 1.875000 14.286448 1.875000 16.390625 C1.875000 18.505219 2.242184 20.458324 2.976562 22.250000 C3.710941 24.041676 4.736973 25.596348 6.054688 26.914062 C7.372402 28.231777 8.927074 29.257809 10.718750 29.992188 C12.510426 30.726566 14.463531 31.093750 16.578125 31.093750 Z M22.812500 21.750000 C21.906245 21.750000 21.083337 21.531252 20.343750 21.093750 C19.604163 20.656248 19.013023 20.065108 18.570312 19.320312 C18.127602 18.575517 17.906250 17.750005 17.906250 16.843750 C17.906250 15.937495 18.127602 15.114587 18.570312 14.375000 C19.013023 13.635413 19.604163 13.044273 20.343750 12.601562 C21.083337 12.158852 21.906245 11.937500 22.812500 11.937500 C23.718755 11.937500 24.541663 12.158852 25.281250 12.601562 C26.020837 13.044273 26.611977 13.635413 27.054688 14.375000 C27.497398 15.114587 27.718750 15.937495 27.718750 16.843750 C27.718750 17.750005 27.497398 18.575517 27.054688 19.320312 C26.611977 20.065108 26.020837 20.656248 25.281250 21.093750 C24.541663 21.531252 23.718755 21.750000 22.812500 21.750000 Z M24.421875 18.718750 C24.619793 18.718750 24.786458 18.651042 24.921875 18.515625 C25.057292 18.380208 25.125000 18.213543 25.125000 18.015625 C25.125000 17.817707 25.057292 17.651042 24.921875 17.515625 C24.786458 17.380208 24.619793 17.312500 24.421875 17.312500 C24.223957 17.312500 24.057292 17.380208 23.921875 17.515625 C23.786458 17.651042 23.718750 17.817707 23.718750 18.015625 C23.718750 18.213543 23.786458 18.380208 23.921875 18.515625 C24.057292 18.651042 24.223957 18.718750 24.421875 18.718750 Z M21.078125 17.390625 C21.526044 17.390625 21.984373 17.244793 22.453125 16.953125 C22.921877 16.661457 23.315103 16.296877 23.632812 15.859375 C23.950522 15.421873 24.109375 14.979169 24.109375 14.531250 C24.109375 14.072914 23.947918 13.666668 23.625000 13.312500 C23.302082 12.958332 22.895836 12.781250 22.406250 12.781250 C21.947914 12.781250 21.484377 12.924478 21.015625 13.210938 C20.546873 13.497397 20.156252 13.861977 19.843750 14.304688 C19.531248 14.747398 19.375000 15.203123 19.375000 15.671875 C19.375000 16.140627 19.541665 16.544269 19.875000 16.882812 C20.208335 17.221356 20.609373 17.390625 21.078125 17.390625 Z M26.937500 10.875000 C25.583327 10.635415 24.450525 10.286461 23.539062 9.828125 C22.627600 9.369789 21.875003 8.760420 21.281250 8.000000 L22.500000 7.031250 C22.979169 7.635420 23.585934 8.119790 24.320312 8.484375 C25.054691 8.848960 26.020827 9.135416 27.218750 9.343750 Z M36.875000 27.343750" /></svg>