<svg version="1.1" xmlns="http://www.w3.org/2000/svg" style="fill:rgba(0,0,0,1.0)" width="256" height="256" viewBox="0 0 35.828125 32.8125"><path fill="rgb(255, 255, 255)" d="M15.515625 32.812500 C13.265614 32.812500 11.208343 32.427087 9.343750 31.656250 C7.479157 30.885413 5.872403 29.815111 4.523438 28.445312 C3.174472 27.075514 2.130212 25.476572 1.390625 23.648438 C0.651038 21.820303 0.281250 19.843761 0.281250 17.718750 C0.281250 15.604156 0.651038 13.632822 1.390625 11.804688 C2.130212 9.976553 3.174472 8.377611 4.523438 7.007812 C5.872403 5.638014 7.479157 4.567712 9.343750 3.796875 C11.208343 3.026038 13.265614 2.640625 15.515625 2.640625 C17.765636 2.640625 19.822907 3.026038 21.687500 3.796875 C23.552093 4.567712 25.158847 5.638014 26.507812 7.007812 C27.856778 8.377611 28.901038 9.976553 29.640625 11.804688 C30.380212 13.632822 30.750000 15.609364 30.750000 17.734375 C30.750000 19.848969 30.380212 21.820303 29.640625 23.648438 C28.901038 25.476572 27.856778 27.075514 26.507812 28.445312 C25.158847 29.815111 23.552093 30.885413 21.687500 31.656250 C19.822907 32.427087 17.765636 32.812500 15.515625 32.812500 Z M15.515625 25.328125 C13.067696 25.328125 10.781261 24.578133 8.656250 23.078125 L9.656250 21.671875 C11.468759 22.963548 13.421865 23.609375 15.515625 23.609375 C17.609385 23.609375 19.562491 22.963548 21.375000 21.671875 L22.375000 23.078125 C20.249989 24.578133 17.963554 25.328125 15.515625 25.328125 Z M7.890625 17.031250 L6.656250 15.984375 C7.114586 15.276038 7.656247 14.729169 8.281250 14.343750 C8.906253 13.958331 9.557288 13.765625 10.234375 13.765625 C11.630215 13.765625 12.822912 14.505201 13.812500 15.984375 L12.578125 17.031250 C11.932288 15.999995 11.151046 15.484375 10.234375 15.484375 C9.317704 15.484375 8.536462 15.999995 7.890625 17.031250 Z M15.515625 31.109375 C17.494802 31.109375 19.302075 30.768233 20.937500 30.085938 C22.572925 29.403642 23.981765 28.453131 25.164062 27.234375 C26.346360 26.015619 27.260413 24.596362 27.906250 22.976562 C28.552087 21.356763 28.875000 19.609384 28.875000 17.734375 C28.875000 15.859366 28.552087 14.111987 27.906250 12.492188 C27.260413 10.872388 26.346360 9.450527 25.164062 8.226562 C23.981765 7.002598 22.572925 6.049483 20.937500 5.367188 C19.302075 4.684892 17.494802 4.343750 15.515625 4.343750 C13.536448 4.343750 11.729175 4.684892 10.093750 5.367188 C8.458325 6.049483 7.049485 6.999994 5.867188 8.218750 C4.684890 9.437506 3.770837 10.856763 3.125000 12.476562 C2.479163 14.096362 2.156250 15.843741 2.156250 17.718750 C2.156250 19.593759 2.479163 21.341138 3.125000 22.960938 C3.770837 24.580737 4.684890 26.002598 5.867188 27.226562 C7.049485 28.450527 8.458325 29.403642 10.093750 30.085938 C11.729175 30.768233 13.536448 31.109375 15.515625 31.109375 Z M18.453125 17.031250 L17.218750 15.984375 C18.208338 14.505201 19.401035 13.765625 20.796875 13.765625 C21.473962 13.765625 22.124997 13.958331 22.750000 14.343750 C23.375003 14.729169 23.916664 15.276038 24.375000 15.984375 L23.140625 17.031250 C22.494788 15.999995 21.713546 15.484375 20.796875 15.484375 C19.880204 15.484375 19.098962 15.999995 18.453125 17.031250 Z M15.515625 10.515625 C13.390614 10.515625 11.390634 10.372397 9.515625 10.085938 C7.640616 9.799478 5.989590 9.406252 4.562500 8.906250 C3.135410 8.406248 2.018233 7.820316 1.210938 7.148438 C0.403642 6.476559 0.000000 5.760420 0.000000 5.000000 C0.000000 4.270830 0.377600 3.601566 1.132812 2.992188 C1.888025 2.382809 2.955722 1.854169 4.335938 1.406250 C5.716153 0.958331 7.354157 0.611980 9.250000 0.367188 C11.145843 0.122395 13.234364 -0.000000 15.515625 -0.000000 C17.796886 -0.000000 19.885407 0.122395 21.781250 0.367188 C23.677093 0.611980 25.315097 0.958331 26.695312 1.406250 C28.075528 1.854169 29.143225 2.382809 29.898438 2.992188 C30.653650 3.601566 31.031250 4.270830 31.031250 5.000000 C31.031250 5.760420 30.627608 6.476559 29.820312 7.148438 C29.013017 7.820316 27.895840 8.406248 26.468750 8.906250 C25.041660 9.406252 23.390634 9.799478 21.515625 10.085938 C19.640616 10.372397 17.640636 10.515625 15.515625 10.515625 Z M15.515625 7.312500 C17.723969 7.312500 19.679679 7.200522 21.382812 6.976562 C23.085946 6.752603 24.419266 6.450523 25.382812 6.070312 C26.346359 5.690102 26.828125 5.265627 26.828125 4.796875 C26.828125 4.401040 26.505212 4.020835 25.859375 3.656250 C25.213538 3.291665 24.346360 2.960939 23.257812 2.664062 C22.169265 2.367186 20.955736 2.132813 19.617188 1.960938 C18.278639 1.789062 16.911465 1.703125 15.515625 1.703125 C14.130201 1.703125 12.765632 1.789062 11.421875 1.960938 C10.078118 2.132813 8.861985 2.367186 7.773438 2.664062 C6.684890 2.960939 5.817712 3.291665 5.171875 3.656250 C4.526038 4.020835 4.203125 4.401040 4.203125 4.796875 C4.203125 5.265627 4.684891 5.690102 5.648438 6.070312 C6.611984 6.450523 7.945304 6.752603 9.648438 6.976562 C11.351571 7.200522 13.307281 7.312500 15.515625 7.312500 Z M35.828125 27.343750" /></svg>