<svg version="1.1" xmlns="http://www.w3.org/2000/svg" style="fill:rgba(0,0,0,1.0)" width="256" height="256" viewBox="0 0 36.875 33.59375"><path fill="rgb(255, 255, 255)" d="M6.781250 29.843750 C4.687490 28.385409 3.033860 26.494803 1.820312 24.171875 C0.606765 21.848947 0.000000 19.260431 0.000000 16.406250 C0.000000 14.052072 0.414058 11.877614 1.242188 9.882812 C2.070317 7.888011 3.229159 6.151049 4.718750 4.671875 C6.208341 3.192701 7.960927 2.044275 9.976562 1.226562 C11.992198 0.408850 14.187488 -0.000000 16.562500 -0.000000 C18.937512 -0.000000 21.132802 0.408850 23.148438 1.226562 C25.164073 2.044275 26.916659 3.192701 28.406250 4.671875 C29.895841 6.151049 31.054683 7.888011 31.882812 9.882812 C32.710942 11.877614 33.125000 14.052072 33.125000 16.406250 C33.125000 19.145847 32.562506 21.645822 31.437500 23.906250 C30.312494 26.166678 28.781260 28.031243 26.843750 29.500000 L24.734375 28.796875 C26.734385 27.515619 28.320307 25.796886 29.492188 23.640625 C30.664068 21.484364 31.250000 19.072930 31.250000 16.406250 C31.250000 14.291656 30.882816 12.341155 30.148438 10.554688 C29.414059 8.768220 28.388027 7.216152 27.070312 5.898438 C25.752598 4.580723 24.200530 3.554691 22.414062 2.820312 C20.627595 2.085934 18.677094 1.718750 16.562500 1.718750 C14.458323 1.718750 12.513030 2.085934 10.726562 2.820312 C8.940095 3.554691 7.385423 4.580723 6.062500 5.898438 C4.739577 7.216152 3.710941 8.768220 2.976562 10.554688 C2.242184 12.341155 1.875000 14.291656 1.875000 16.406250 C1.875000 19.072930 2.458327 21.481760 3.625000 23.632812 C4.791672 25.783865 6.369782 27.499994 8.359375 28.781250 Z M3.078125 30.578125 C2.744790 30.578125 2.429689 30.484376 2.132812 30.296875 C1.835936 30.109374 1.687500 29.885418 1.687500 29.625000 C1.687500 29.427082 1.776041 29.289063 1.953125 29.210938 C2.130209 29.132812 2.307291 29.093750 2.484375 29.093750 C2.828127 29.093750 3.145832 29.190103 3.437500 29.382812 C3.729168 29.575522 3.875000 29.802082 3.875000 30.062500 C3.875000 30.260418 3.786459 30.395833 3.609375 30.468750 C3.432291 30.541667 3.255209 30.578125 3.078125 30.578125 Z M15.125000 31.156250 C14.927082 31.156250 14.763021 31.049480 14.632812 30.835938 C14.502604 30.622395 14.437500 30.369793 14.437500 30.078125 C14.437500 29.776040 14.502604 29.520834 14.632812 29.312500 C14.763021 29.104166 14.927082 29.000000 15.125000 29.000000 C15.312501 29.000000 15.471354 29.104166 15.601562 29.312500 C15.731771 29.520834 15.796875 29.776040 15.796875 30.078125 C15.796875 30.369793 15.731771 30.622395 15.601562 30.835938 C15.471354 31.049480 15.312501 31.156250 15.125000 31.156250 Z M13.390625 27.875000 C13.265624 27.875000 13.158855 27.807292 13.070312 27.671875 C12.981770 27.536458 12.937500 27.375001 12.937500 27.187500 C12.937500 26.999999 12.981770 26.838542 13.070312 26.703125 C13.158855 26.567708 13.265624 26.500000 13.390625 26.500000 C13.505209 26.500000 13.606770 26.567708 13.695312 26.703125 C13.783855 26.838542 13.828125 26.999999 13.828125 27.187500 C13.828125 27.375001 13.783855 27.536458 13.695312 27.671875 C13.606770 27.807292 13.505209 27.875000 13.390625 27.875000 Z M24.968750 33.578125 C24.270830 33.578125 23.546879 33.541667 22.796875 33.468750 C22.046871 33.395833 21.296879 33.291667 20.546875 33.156250 C19.223952 33.291667 17.937506 33.398437 16.687500 33.476562 C15.437494 33.554688 14.239589 33.593750 13.093750 33.593750 C10.822905 33.593750 9.080735 33.507813 7.867188 33.335938 C6.653640 33.164062 5.817711 32.911460 5.359375 32.578125 C4.901039 32.244790 4.671875 31.838544 4.671875 31.359375 C4.671875 30.994790 4.817707 30.703126 5.109375 30.484375 C5.401043 30.265624 5.786456 30.104167 6.265625 30.000000 C6.213541 29.864583 6.187500 29.729167 6.187500 29.593750 C6.187500 29.072914 6.484372 28.716147 7.078125 28.523438 C7.671878 28.330728 8.333330 28.234375 9.062500 28.234375 C9.218751 28.234375 9.468748 28.236979 9.812500 28.242188 C10.156252 28.247396 10.406249 28.260417 10.562500 28.281250 L10.562500 22.859375 L12.125000 22.859375 L12.125000 29.875000 C11.770832 29.749999 11.291670 29.656250 10.687500 29.593750 C10.083330 29.531250 9.562502 29.500000 9.125000 29.500000 C8.708331 29.500000 8.341147 29.544270 8.023438 29.632812 C7.705728 29.721355 7.546875 29.828124 7.546875 29.953125 C7.546875 30.234376 8.109369 30.536457 9.234375 30.859375 C8.213537 30.859375 7.458336 30.914062 6.968750 31.023438 C6.479164 31.132813 6.234375 31.244791 6.234375 31.359375 C6.234375 31.505209 6.559893 31.630208 7.210938 31.734375 C7.861982 31.838542 8.710932 31.914062 9.757812 31.960938 C10.804693 32.007813 11.916661 32.031250 13.093750 32.031250 C15.406262 32.031250 17.911445 31.875002 20.609375 31.562500 C22.484384 31.937502 23.937495 32.125000 24.968750 32.125000 C25.354169 32.125000 25.664061 32.088542 25.898438 32.015625 C26.132814 31.942708 26.250000 31.838542 26.250000 31.703125 C26.250000 31.484374 25.994794 31.255210 25.484375 31.015625 C25.973961 30.963541 26.359374 30.880209 26.640625 30.765625 C26.921876 30.651041 27.062500 30.526042 27.062500 30.390625 C27.062500 30.130207 26.580734 29.937501 25.617188 29.812500 C24.653641 29.687499 23.208343 29.625000 21.281250 29.625000 L21.281250 22.859375 L22.843750 22.859375 L22.843750 28.078125 C23.822922 28.109375 24.755204 28.203124 25.640625 28.359375 C26.526046 28.515626 27.252601 28.744790 27.820312 29.046875 C28.388024 29.348960 28.671875 29.739581 28.671875 30.218750 C28.671875 30.375001 28.643229 30.520833 28.585938 30.656250 C28.528646 30.791667 28.447917 30.916666 28.343750 31.031250 C28.583335 31.156251 28.770833 31.302082 28.906250 31.468750 C29.041667 31.635418 29.109375 31.838540 29.109375 32.078125 C29.109375 32.484377 28.911460 32.794270 28.515625 33.007812 C28.119790 33.221355 27.606774 33.369791 26.976562 33.453125 C26.346351 33.536459 25.677087 33.578125 24.968750 33.578125 Z M15.750000 26.781250 C15.552082 26.781250 15.388021 26.674480 15.257812 26.460938 C15.127604 26.247395 15.062500 25.994793 15.062500 25.703125 C15.062500 25.401040 15.127604 25.145834 15.257812 24.937500 C15.388021 24.729166 15.552082 24.625000 15.750000 24.625000 C15.937501 24.625000 16.096354 24.729166 16.226562 24.937500 C16.356771 25.145834 16.421875 25.401040 16.421875 25.703125 C16.421875 25.994793 16.356771 26.247395 16.226562 26.460938 C16.096354 26.674480 15.937501 26.781250 15.750000 26.781250 Z M19.500000 29.796875 C19.187498 29.796875 18.924480 29.625002 18.710938 29.281250 C18.497395 28.937498 18.390625 28.526044 18.390625 28.046875 C18.390625 27.557289 18.497395 27.143231 18.710938 26.804688 C18.924480 26.466144 19.187498 26.296875 19.500000 26.296875 C19.802085 26.296875 20.059895 26.466144 20.273438 26.804688 C20.486980 27.143231 20.593750 27.557289 20.593750 28.046875 C20.593750 28.526044 20.486980 28.937498 20.273438 29.281250 C20.059895 29.625002 19.802085 29.796875 19.500000 29.796875 Z M9.937500 27.468750 C9.406247 27.468750 8.976564 27.281252 8.648438 26.906250 C8.320311 26.531248 8.156250 25.953129 8.156250 25.171875 C8.156250 23.744785 8.518226 22.473964 9.242188 21.359375 C9.966149 20.244786 10.963535 19.369795 12.234375 18.734375 C13.505215 18.098955 14.947909 17.781250 16.562500 17.781250 C18.187508 17.781250 19.632806 18.098955 20.898438 18.734375 C22.164069 19.369795 23.158851 20.244786 23.882812 21.359375 C24.606774 22.473964 24.968750 23.744785 24.968750 25.171875 C24.968750 25.953129 24.804689 26.531248 24.476562 26.906250 C24.148436 27.281252 23.718753 27.468750 23.187500 27.468750 C23.041666 27.468750 22.888022 27.455729 22.726562 27.429688 C22.565103 27.403646 22.395834 27.369792 22.218750 27.328125 L21.921875 24.078125 L11.515625 24.078125 L11.250000 27.218750 C11.020832 27.291667 10.794272 27.351562 10.570312 27.398438 C10.346353 27.445313 10.135418 27.468750 9.937500 27.468750 Z M10.562500 22.203125 L22.562500 22.203125 C21.937497 21.296870 21.117193 20.593752 20.101562 20.093750 C19.085932 19.593748 17.906257 19.343750 16.562500 19.343750 C15.229160 19.343750 14.052088 19.593748 13.031250 20.093750 C12.010412 20.593752 11.187503 21.296870 10.562500 22.203125 Z M8.031250 17.953125 L7.468750 16.328125 L11.343750 15.000000 L7.406250 13.234375 L8.093750 11.656250 L14.250000 14.421875 L14.250000 15.828125 Z M30.609375 30.796875 C30.432291 30.796875 30.276042 30.757813 30.140625 30.679688 C30.005208 30.601562 29.937500 30.484376 29.937500 30.328125 C29.937500 30.098957 30.072915 29.903647 30.343750 29.742188 C30.614585 29.580728 30.874999 29.500000 31.125000 29.500000 C31.302084 29.500000 31.460937 29.541666 31.601562 29.625000 C31.742188 29.708334 31.812500 29.828124 31.812500 29.984375 C31.812500 30.203126 31.677085 30.393228 31.406250 30.554688 C31.135415 30.716147 30.869793 30.796875 30.609375 30.796875 Z M7.437500 9.625000 L7.156250 8.093750 C8.354173 7.885416 9.320309 7.598960 10.054688 7.234375 C10.789066 6.869790 11.395831 6.385420 11.875000 5.781250 L13.093750 6.750000 C12.489580 7.510420 11.734380 8.122394 10.828125 8.585938 C9.921870 9.049481 8.791673 9.395832 7.437500 9.625000 Z M25.093750 17.953125 L18.875000 15.828125 L18.875000 14.421875 L25.031250 11.656250 L25.718750 13.234375 L21.781250 15.000000 L25.656250 16.328125 Z M25.687500 9.625000 C24.333327 9.395832 23.203130 9.049481 22.296875 8.585938 C21.390620 8.122394 20.635420 7.510420 20.031250 6.750000 L21.250000 5.781250 C21.729169 6.385420 22.335934 6.869790 23.070312 7.234375 C23.804691 7.598960 24.770827 7.885416 25.968750 8.093750 Z M36.875000 27.343750" /></svg>