<svg version="1.1" xmlns="http://www.w3.org/2000/svg" style="fill:rgba(0,0,0,1.0)" width="256" height="256" viewBox="0 0 36.484375 32.8125"><path fill="rgb(255, 255, 255)" d="M23.671875 32.812500 C23.442707 31.916662 22.981774 31.192711 22.289062 30.640625 C21.596351 30.088539 20.807296 29.812500 19.921875 29.812500 C19.609373 29.812500 19.283856 29.856770 18.945312 29.945312 C18.606769 30.033855 18.302085 30.161458 18.031250 30.328125 C18.031250 30.265625 18.031250 30.200521 18.031250 30.132812 C18.031250 30.065104 18.031250 30.000000 18.031250 29.937500 C18.031250 28.635410 17.695316 27.463547 17.023438 26.421875 C16.351559 25.380203 15.458339 24.552086 14.343750 23.937500 C13.229161 23.322914 12.005215 23.015625 10.671875 23.015625 C9.223951 23.015625 7.901048 23.390621 6.703125 24.140625 C5.505202 24.890629 4.598961 25.906244 3.984375 27.187500 L2.421875 26.437500 C3.182295 24.864575 4.307284 23.614588 5.796875 22.687500 C7.286466 21.760412 8.911450 21.296875 10.671875 21.296875 C12.067715 21.296875 13.369786 21.585935 14.578125 22.164062 C15.786464 22.742190 16.822912 23.541662 17.687500 24.562500 C18.552088 25.583338 19.156248 26.765618 19.500000 28.109375 C19.552084 28.098958 19.609375 28.093750 19.671875 28.093750 C19.734375 28.093750 19.817708 28.093750 19.921875 28.093750 C21.203131 28.093750 22.346349 28.494788 23.351562 29.296875 C24.356776 30.098962 25.015623 31.135410 25.328125 32.406250 Z M6.078125 23.265625 C5.901041 22.348954 5.536461 21.536462 4.984375 20.828125 C4.432289 20.119788 3.752608 19.562502 2.945312 19.156250 C2.138017 18.749998 1.265630 18.546875 0.328125 18.546875 L0.328125 16.828125 C1.546881 16.828125 2.677078 17.091143 3.718750 17.617188 C4.760422 18.143232 5.638017 18.867183 6.351562 19.789062 C7.065108 20.710942 7.536457 21.765619 7.765625 22.953125 Z M2.296875 18.234375 C2.130208 17.453121 2.010417 16.773440 1.937500 16.195312 C1.864583 15.617185 1.828125 15.057294 1.828125 14.515625 C1.828125 14.036456 1.856771 13.565106 1.914062 13.101562 C1.971354 12.638019 2.062499 12.125003 2.187500 11.562500 L3.875000 11.937500 C3.656249 12.895838 3.546875 13.755205 3.546875 14.515625 C3.546875 15.005211 3.580729 15.502602 3.648438 16.007812 C3.716146 16.513023 3.828124 17.130205 3.984375 17.859375 Z M1.828125 12.593750 C1.203122 12.593750 0.593753 12.515626 0.000000 12.359375 L0.406250 10.703125 C0.958336 10.817709 1.432290 10.875000 1.828125 10.875000 C3.026048 10.875000 4.109370 10.518233 5.078125 9.804688 C6.046880 9.091142 6.718748 8.166672 7.093750 7.031250 L8.718750 7.562500 C8.395832 8.562505 7.890628 9.440100 7.203125 10.195312 C6.515622 10.950525 5.710942 11.539060 4.789062 11.960938 C3.867183 12.382815 2.880214 12.593750 1.828125 12.593750 Z M11.625000 18.328125 C11.114581 18.328125 10.674481 18.039065 10.304688 17.460938 C9.934894 16.882810 9.750000 16.182296 9.750000 15.359375 C9.750000 14.536454 9.934894 13.835940 10.304688 13.257812 C10.674481 12.679685 11.114581 12.390625 11.625000 12.390625 C12.135419 12.390625 12.575519 12.679685 12.945312 13.257812 C13.315106 13.835940 13.500000 14.536454 13.500000 15.359375 C13.500000 16.182296 13.315106 16.882810 12.945312 17.460938 C12.575519 18.039065 12.135419 18.328125 11.625000 18.328125 Z M27.640625 25.468750 C27.088539 24.541662 26.341151 23.815107 25.398438 23.289062 C24.455724 22.763018 23.442714 22.500000 22.359375 22.500000 C21.348953 22.500000 20.398442 22.726560 19.507812 23.179688 C18.617183 23.632815 17.916669 24.249996 17.406250 25.031250 L15.968750 24.093750 C16.635420 23.072912 17.544265 22.265628 18.695312 21.671875 C19.846360 21.078122 21.067702 20.781250 22.359375 20.781250 C23.755215 20.781250 25.052077 21.119788 26.250000 21.796875 C27.447923 22.473962 28.401038 23.406244 29.109375 24.593750 Z M8.546875 8.265625 C7.536453 8.265625 6.609379 7.981774 5.765625 7.414062 C4.921871 6.846351 4.302085 6.098963 3.906250 5.171875 L5.500000 4.515625 C5.760418 5.119795 6.169268 5.609373 6.726562 5.984375 C7.283857 6.359377 7.890622 6.546875 8.546875 6.546875 C9.505213 6.546875 10.296872 6.263024 10.921875 5.695312 C11.546878 5.127601 11.859375 4.411463 11.859375 3.546875 C11.859375 3.182290 11.812500 2.804689 11.718750 2.414062 C11.625000 2.023436 11.505209 1.708335 11.359375 1.468750 L12.796875 0.562500 C13.026043 0.916668 13.213541 1.372393 13.359375 1.929688 C13.505209 2.486982 13.578125 3.026039 13.578125 3.546875 C13.578125 4.442713 13.356773 5.247392 12.914062 5.960938 C12.471352 6.674483 11.872400 7.236977 11.117188 7.648438 C10.361975 8.059898 9.505213 8.265625 8.546875 8.265625 Z M21.875000 18.328125 C21.364581 18.328125 20.924481 18.039065 20.554688 17.460938 C20.184894 16.882810 20.000000 16.182296 20.000000 15.359375 C20.000000 14.536454 20.184894 13.835940 20.554688 13.257812 C20.924481 12.679685 21.364581 12.390625 21.875000 12.390625 C22.385419 12.390625 22.825519 12.679685 23.195312 13.257812 C23.565106 13.835940 23.750000 14.536454 23.750000 15.359375 C23.750000 16.182296 23.565106 16.882810 23.195312 17.460938 C22.825519 18.039065 22.385419 18.328125 21.875000 18.328125 Z M25.265625 22.171875 L23.609375 21.765625 C23.942710 20.432285 24.533850 19.252609 25.382812 18.226562 C26.231775 17.200516 27.260411 16.398440 28.468750 15.820312 C29.677089 15.242185 30.968743 14.953125 32.343750 14.953125 L32.343750 16.671875 C31.229161 16.671875 30.184901 16.906248 29.210938 17.375000 C28.236974 17.843752 27.403649 18.492183 26.710938 19.320312 C26.018226 20.148442 25.536460 21.098953 25.265625 22.171875 Z M14.562500 5.718750 C13.677079 5.718750 12.854170 5.500002 12.093750 5.062500 L12.968750 3.562500 C13.458336 3.854168 13.989580 4.000000 14.562500 4.000000 C15.197920 4.000000 15.768227 3.843752 16.273438 3.531250 C16.778648 3.218748 17.161457 2.791669 17.421875 2.250000 L18.984375 3.000000 C18.578123 3.833337 17.979171 4.494789 17.187500 4.984375 C16.395829 5.473961 15.520838 5.718750 14.562500 5.718750 Z M31.078125 16.109375 L29.390625 15.734375 C29.453125 15.442707 29.497396 15.210938 29.523438 15.039062 C29.549479 14.867187 29.562500 14.692709 29.562500 14.515625 C29.562500 13.369786 29.421876 12.260422 29.140625 11.187500 L30.796875 10.750000 C31.119793 12.020840 31.281250 13.276035 31.281250 14.515625 C31.281250 14.744793 31.265625 14.984374 31.234375 15.234375 C31.203125 15.484376 31.151042 15.776040 31.078125 16.109375 Z M23.578125 7.078125 C22.348952 7.078125 21.229172 6.776045 20.218750 6.171875 C19.208328 5.567705 18.401045 4.760422 17.796875 3.750000 C17.192705 2.739578 16.890625 1.619798 16.890625 0.390625 C16.890625 0.286458 16.890625 0.208334 16.890625 0.156250 C16.890625 0.104166 16.895833 0.052084 16.906250 -0.000000 L18.625000 0.156250 C18.614583 0.218750 18.609375 0.296875 18.609375 0.390625 C18.609375 1.307296 18.833331 2.140621 19.281250 2.890625 C19.729169 3.640629 20.328121 4.239581 21.078125 4.687500 C21.828129 5.135419 22.661454 5.359375 23.578125 5.359375 C24.473963 5.359375 25.304684 5.138023 26.070312 4.695312 C26.835941 4.252602 27.437498 3.651045 27.875000 2.890625 L29.375000 3.734375 C28.781247 4.765630 27.966151 5.580726 26.929688 6.179688 C25.893224 6.778649 24.776048 7.078125 23.578125 7.078125 Z M30.031250 11.812500 C29.124995 11.812500 28.299483 11.591148 27.554688 11.148438 C26.809892 10.705727 26.216148 10.111983 25.773438 9.367188 C25.330727 8.622392 25.109375 7.796880 25.109375 6.890625 C25.109375 6.578123 25.138021 6.268231 25.195312 5.960938 C25.252604 5.653644 25.312500 5.411459 25.375000 5.234375 L27.078125 5.656250 C26.911458 6.052085 26.828125 6.463540 26.828125 6.890625 C26.828125 7.484378 26.971353 8.023435 27.257812 8.507812 C27.544272 8.992190 27.929685 9.377603 28.414062 9.664062 C28.898440 9.950522 29.437497 10.093750 30.031250 10.093750 C30.562503 10.093750 31.036456 9.989584 31.453125 9.781250 L32.171875 11.343750 C31.484372 11.656252 30.770837 11.812500 30.031250 11.812500 Z M36.484375 27.343750" /></svg>