<svg version="1.1" xmlns="http://www.w3.org/2000/svg" style="fill:rgba(0,0,0,1.0)" width="256" height="256" viewBox="0 0 38.59375 32.8125"><path fill="rgb(255, 255, 255)" d="M5.218750 27.984375 C3.666659 27.984375 2.408859 27.752606 1.445312 27.289062 C0.481766 26.825519 0.000000 26.244795 0.000000 25.546875 C0.000000 25.161456 0.190102 24.742190 0.570312 24.289062 C0.950523 23.835935 1.388018 23.382815 1.882812 22.929688 C2.377607 22.476560 2.812498 22.059898 3.187500 21.679688 C3.562502 21.299477 3.750000 21.000001 3.750000 20.781250 C3.750000 20.687500 3.682292 20.588542 3.546875 20.484375 C3.411458 20.380208 3.273438 20.250001 3.132812 20.093750 C2.992187 19.937499 2.921875 19.739585 2.921875 19.500000 C2.921875 19.249999 3.026041 18.932294 3.234375 18.546875 C3.442709 18.161456 3.687499 17.763023 3.968750 17.351562 C4.250001 16.940102 4.494791 16.549481 4.703125 16.179688 C4.911459 15.809894 5.015625 15.515626 5.015625 15.296875 C5.015625 15.026040 4.877606 14.783855 4.601562 14.570312 C4.325519 14.356770 4.187500 14.093752 4.187500 13.781250 C4.187500 13.520832 4.309895 13.283855 4.554688 13.070312 C4.799480 12.856770 5.083332 12.611981 5.406250 12.335938 C5.729168 12.059894 6.005207 11.697919 6.234375 11.250000 L6.640625 10.453125 C7.598963 8.557282 8.713535 7.174484 9.984375 6.304688 C11.255215 5.434891 12.776033 5.000000 14.546875 5.000000 C15.911465 5.000000 17.132807 5.234373 18.210938 5.703125 C19.289068 6.171877 20.203121 6.859370 20.953125 7.765625 C21.703129 8.671880 22.276040 9.776035 22.671875 11.078125 C23.067710 12.380215 23.265625 13.859367 23.265625 15.515625 C23.265625 16.828132 23.140626 17.971349 22.890625 18.945312 C22.640624 19.919276 22.296877 20.674476 21.859375 21.210938 C21.421873 21.747399 20.921878 22.015625 20.359375 22.015625 C20.109374 22.015625 19.864585 21.937501 19.625000 21.781250 C19.218748 22.166669 18.869793 22.539061 18.578125 22.898438 C18.286457 23.257814 18.020835 23.635415 17.781250 24.031250 C17.302081 24.802087 16.880210 25.372394 16.515625 25.742188 C16.151040 26.111981 15.835939 26.354166 15.570312 26.468750 C15.304686 26.583334 15.067709 26.640625 14.859375 26.640625 C14.536457 26.640625 14.145836 26.570313 13.687500 26.429688 C13.229164 26.289062 12.843752 26.135418 12.531250 25.968750 C11.614579 26.572920 10.510423 27.059894 9.218750 27.429688 C7.927077 27.799481 6.593757 27.984375 5.218750 27.984375 Z M13.453125 22.468750 C13.130207 21.802080 12.859376 21.015630 12.640625 20.109375 C12.421874 19.203120 12.270834 18.291671 12.187500 17.375000 C11.364579 17.895836 10.539067 18.328123 9.710938 18.671875 C8.882808 19.015627 8.020838 19.276041 7.125000 19.453125 L6.875000 17.906250 C8.041672 17.666665 9.166661 17.270836 10.250000 16.718750 C11.333339 16.166664 12.421870 15.427088 13.515625 14.500000 C13.515625 15.354171 13.572916 16.231766 13.687500 17.132812 C13.802084 18.033859 13.958332 18.882809 14.156250 19.679688 C14.354168 20.476566 14.583332 21.145831 14.843750 21.687500 Z M5.218750 26.265625 C5.979170 26.265625 6.708330 26.203126 7.406250 26.078125 C8.104170 25.953124 8.859371 25.739585 9.671875 25.437500 C10.484379 25.135415 11.437495 24.723961 12.531250 24.203125 C13.708339 24.713544 14.437499 24.968750 14.718750 24.968750 C14.864584 24.968750 15.057290 24.809897 15.296875 24.492188 C15.536460 24.174478 15.833332 23.734378 16.187500 23.171875 C16.531252 22.630206 16.986976 22.031253 17.554688 21.375000 C18.122399 20.718747 18.812496 20.046878 19.625000 19.359375 C19.770834 19.651043 19.901041 19.861979 20.015625 19.992188 C20.130209 20.122396 20.229166 20.187500 20.312500 20.187500 C20.531251 20.187500 20.721353 19.989585 20.882812 19.593750 C21.044272 19.197915 21.169270 18.651045 21.257812 17.953125 C21.346355 17.255205 21.390625 16.453130 21.390625 15.546875 C21.390625 14.057284 21.252606 12.760422 20.976562 11.656250 C20.700519 10.552078 20.278649 9.632816 19.710938 8.898438 C19.143226 8.164059 18.429692 7.617189 17.570312 7.257812 C16.710933 6.898436 15.703131 6.718750 14.546875 6.718750 C11.890612 6.718750 9.791674 8.234360 8.250000 11.265625 L7.843750 12.062500 C7.656249 12.427085 7.432293 12.716145 7.171875 12.929688 C6.911457 13.143230 6.684897 13.312499 6.492188 13.437500 C6.299478 13.562501 6.203125 13.687499 6.203125 13.812500 C6.203125 14.000001 6.317707 14.203124 6.546875 14.421875 C6.776043 14.640626 6.890625 14.932290 6.890625 15.296875 C6.890625 15.494793 6.786459 15.794269 6.578125 16.195312 C6.369791 16.596356 6.125001 17.020831 5.843750 17.468750 C5.562499 17.916669 5.317709 18.320311 5.109375 18.679688 C4.901041 19.039064 4.796875 19.276041 4.796875 19.390625 C4.796875 19.515626 4.934894 19.705728 5.210938 19.960938 C5.486981 20.216147 5.625000 20.489582 5.625000 20.781250 C5.625000 21.125002 5.437502 21.531248 5.062500 22.000000 C4.687498 22.468752 4.252607 22.937498 3.757812 23.406250 C3.263018 23.875002 2.825523 24.294269 2.445312 24.664062 C2.065102 25.033856 1.875000 25.302082 1.875000 25.468750 C1.875000 25.614584 2.023436 25.747395 2.320312 25.867188 C2.617189 25.986980 3.018227 26.083333 3.523438 26.156250 C4.028648 26.229167 4.593747 26.265625 5.218750 26.265625 Z M17.984375 17.437500 C17.255205 16.760413 16.609378 15.911463 16.046875 14.890625 C15.484372 13.869787 15.083335 12.869797 14.843750 11.890625 C13.979162 12.411461 13.041672 12.848957 12.031250 13.203125 C11.020828 13.557293 10.062505 13.822916 9.156250 14.000000 L8.781250 12.484375 C9.593754 12.317708 10.437496 12.078127 11.312500 11.765625 C12.187504 11.453123 13.026038 11.085940 13.828125 10.664062 C14.630212 10.242185 15.322914 9.802086 15.906250 9.343750 C15.906250 9.687502 15.976562 10.153643 16.117188 10.742188 C16.257813 11.330732 16.466144 11.966142 16.742188 12.648438 C17.018231 13.330733 17.354165 13.997393 17.750000 14.648438 C18.145835 15.299482 18.593748 15.864581 19.093750 16.343750 Z M7.156250 24.625000 L5.953125 23.375000 C6.953130 22.479162 7.901037 21.471360 8.796875 20.351562 C9.692713 19.231765 10.546871 17.992194 11.359375 16.632812 C12.171879 15.273431 12.953121 13.783862 13.703125 12.164062 C14.453129 10.544263 15.182288 8.781260 15.890625 6.875000 C16.411461 5.479160 16.958330 4.197923 17.531250 3.031250 C18.104170 1.864577 18.677080 0.854171 19.250000 -0.000000 L20.671875 0.937500 C20.192706 1.635420 19.687503 2.533849 19.156250 3.632812 C18.624997 4.731776 17.979170 6.218741 17.218750 8.093750 C16.979165 8.697920 16.721356 9.351559 16.445312 10.054688 C16.169269 10.757816 15.875002 11.510413 15.562500 12.312500 C14.583328 14.875013 13.398444 17.171865 12.007812 19.203125 C10.617181 21.234385 9.000009 23.041659 7.156250 24.625000 Z M34.234375 31.093750 C34.276042 31.093750 34.317708 31.093750 34.359375 31.093750 C34.401042 31.093750 34.442708 31.093750 34.484375 31.093750 C34.151040 30.624998 33.877605 30.166669 33.664062 29.718750 C33.450520 29.270831 33.294271 28.825523 33.195312 28.382812 C33.096354 27.940102 33.046875 27.494794 33.046875 27.046875 C33.046875 26.703123 33.070312 26.325523 33.117188 25.914062 C33.164063 25.502602 33.210937 25.088544 33.257812 24.671875 C33.304688 24.255206 33.328125 23.864585 33.328125 23.500000 C33.328125 22.572912 33.153648 21.742191 32.804688 21.007812 C32.455727 20.273434 31.981774 19.692710 31.382812 19.265625 C30.783851 18.838540 30.109379 18.625000 29.359375 18.625000 C28.619788 18.625000 27.960940 18.807290 27.382812 19.171875 C26.804685 19.536460 26.348960 20.033851 26.015625 20.664062 C25.682290 21.294274 25.515625 22.015621 25.515625 22.828125 C25.515625 23.578129 25.687498 24.359371 26.031250 25.171875 L28.281250 25.125000 L27.265625 27.343750 C27.723961 28.083337 28.315101 28.734372 29.039062 29.296875 C29.763024 29.859378 30.570308 30.299478 31.460938 30.617188 C32.351567 30.934897 33.276037 31.093750 34.234375 31.093750 Z M34.718750 32.812500 C33.416660 32.812500 32.145840 32.598960 30.906250 32.171875 C29.666660 31.744790 28.546880 31.127608 27.546875 30.320312 C26.546870 29.513017 25.739586 28.546881 25.125000 27.421875 L25.781250 26.468750 L24.687500 26.500000 C24.427082 26.135415 24.187501 25.604170 23.968750 24.906250 C23.749999 24.208330 23.640625 23.515628 23.640625 22.828125 C23.640625 21.744786 23.901039 20.755213 24.421875 19.859375 C24.942711 18.963537 25.635412 18.247399 26.500000 17.710938 C27.364588 17.174476 28.317703 16.906250 29.359375 16.906250 C30.442714 16.906250 31.424475 17.200518 32.304688 17.789062 C33.184900 18.377607 33.888018 19.171870 34.414062 20.171875 C34.940107 21.171880 35.203125 22.281244 35.203125 23.500000 C35.203125 24.114586 35.156250 24.723955 35.062500 25.328125 C34.968750 25.932295 34.921875 26.505206 34.921875 27.046875 C34.921875 27.734378 35.005208 28.317706 35.171875 28.796875 C35.338542 29.276044 35.528645 29.687498 35.742188 30.031250 C35.955730 30.375002 36.145832 30.682290 36.312500 30.953125 C36.479168 31.223960 36.562500 31.494790 36.562500 31.765625 C36.562500 32.203127 36.377606 32.486979 36.007812 32.617188 C35.638019 32.747396 35.208336 32.812500 34.718750 32.812500 Z M27.453125 23.937500 L26.484375 23.125000 C26.880210 22.656248 27.255207 22.252606 27.609375 21.914062 C27.963543 21.575519 28.505205 21.130211 29.234375 20.578125 C29.744794 20.744793 30.153644 20.888020 30.460938 21.007812 C30.768231 21.127605 31.049478 21.252604 31.304688 21.382812 C31.559897 21.513021 31.854165 21.687499 32.187500 21.906250 L31.531250 22.968750 C31.135415 22.718749 30.807293 22.531251 30.546875 22.406250 C30.286457 22.281249 29.927086 22.140626 29.468750 21.984375 C28.979164 22.369794 28.601564 22.692707 28.335938 22.953125 C28.070311 23.213543 27.776043 23.541665 27.453125 23.937500 Z M30.031250 26.578125 C29.249996 24.901033 28.747397 23.057302 28.523438 21.046875 C28.299478 19.036448 28.187500 16.963552 28.187500 14.828125 L29.671875 14.859375 C29.671875 17.307304 29.799478 19.437491 30.054688 21.250000 C30.309897 23.062509 30.755205 24.661451 31.390625 26.046875 Z M32.234375 9.906250 C31.796873 9.437498 31.234378 8.940107 30.546875 8.414062 C29.859372 7.888018 29.127608 7.377607 28.351562 6.882812 C27.575517 6.388018 26.817712 5.953127 26.078125 5.578125 C25.338538 5.203123 24.692711 4.942709 24.140625 4.796875 L24.484375 3.734375 C25.078128 3.880209 25.763017 4.143227 26.539062 4.523438 C27.315108 4.903648 28.111975 5.348956 28.929688 5.859375 C29.747400 6.369794 30.520830 6.908851 31.250000 7.476562 C31.979170 8.044274 32.593748 8.588539 33.093750 9.109375 Z M36.218750 14.031250 C35.802081 13.906249 35.317711 13.778646 34.765625 13.648438 C34.213539 13.518229 33.614587 13.401042 32.968750 13.296875 L31.328125 13.031250 C29.630200 12.760415 28.286463 12.182296 27.296875 11.296875 C26.307287 10.411454 25.812500 9.302090 25.812500 7.968750 C25.812500 7.114579 26.015623 6.343753 26.421875 5.656250 C26.828127 4.968747 27.372392 4.419273 28.054688 4.007812 C28.736983 3.596352 29.494788 3.390625 30.328125 3.390625 C31.130212 3.390625 31.901038 3.630206 32.640625 4.109375 C33.380212 4.588544 34.039060 5.236975 34.617188 6.054688 C35.195315 6.872400 35.653644 7.799474 35.992188 8.835938 C36.330731 9.872401 36.500000 10.947911 36.500000 12.062500 C36.500000 12.343751 36.473959 12.671873 36.421875 13.046875 C36.369791 13.421877 36.302084 13.749999 36.218750 14.031250 Z M34.781250 12.062500 C34.781250 11.791665 34.765625 11.515626 34.734375 11.234375 C34.661458 10.421871 34.486981 9.643233 34.210938 8.898438 C33.934894 8.153642 33.593752 7.492190 33.187500 6.914062 C32.781248 6.335935 32.333336 5.877606 31.843750 5.539062 C31.354164 5.200519 30.848961 5.031250 30.328125 5.031250 C29.505204 5.031250 28.833336 5.309893 28.312500 5.867188 C27.791664 6.424482 27.531250 7.124996 27.531250 7.968750 C27.531250 8.885421 27.874997 9.645830 28.562500 10.250000 C29.250003 10.854170 30.255202 11.265624 31.578125 11.484375 L33.218750 11.750000 C33.458335 11.791667 33.690103 11.833333 33.914062 11.875000 C34.138022 11.916667 34.427082 11.979166 34.781250 12.062500 Z M29.640625 9.484375 C29.567708 9.057290 29.520833 8.658856 29.500000 8.289062 C29.479167 7.919269 29.468750 7.364587 29.468750 6.625000 C29.979169 6.510416 30.453123 6.429688 30.890625 6.382812 C31.328127 6.335937 31.755206 6.312500 32.171875 6.312500 L32.171875 7.406250 C31.942707 7.406250 31.682293 7.414062 31.390625 7.429688 C31.098957 7.445313 30.822918 7.473958 30.562500 7.515625 C30.562500 8.130211 30.609375 8.713539 30.703125 9.265625 Z M38.593750 27.343750" /></svg>