<svg version="1.1" xmlns="http://www.w3.org/2000/svg" style="fill:rgba(0,0,0,1.0)" width="256" height="256" viewBox="0 0 30.46875 21.875"><path fill="rgb(255, 255, 255)" d="M4.375000 21.875000 C4.052082 21.875000 3.752606 21.820313 3.476562 21.710938 C3.200519 21.601562 3.062500 21.432293 3.062500 21.203125 C3.062500 21.046874 3.117187 20.856772 3.226562 20.632812 C3.335938 20.408853 3.557290 20.072919 3.890625 19.625000 L3.890625 16.843750 C3.890625 16.385414 3.786459 15.906252 3.578125 15.406250 C3.369791 14.906248 3.265625 14.286462 3.265625 13.546875 C3.265625 13.088539 3.307291 12.653648 3.390625 12.242188 C3.473959 11.830727 3.515625 11.479168 3.515625 11.187500 C3.515625 10.833332 3.432292 10.656250 3.265625 10.656250 C3.078124 10.656250 2.895834 10.812498 2.718750 11.125000 C2.541666 11.437502 2.395834 11.802081 2.281250 12.218750 C2.166666 12.635419 2.109375 12.994790 2.109375 13.296875 C2.109375 13.901045 2.005209 14.322915 1.796875 14.562500 C1.588541 14.802085 1.317710 14.921875 0.984375 14.921875 C0.328122 14.921875 0.000000 14.557295 0.000000 13.828125 C0.000000 12.567702 0.283851 11.388026 0.851562 10.289062 C1.419274 9.190099 2.179683 8.296878 3.132812 7.609375 C4.085942 6.921872 5.130203 6.578125 6.265625 6.578125 C7.411464 6.578125 8.458329 6.921872 9.406250 7.609375 C10.354171 8.296878 11.111976 9.190099 11.679688 10.289062 C12.247399 11.388026 12.531250 12.567702 12.531250 13.828125 C12.531250 14.557295 12.203128 14.921875 11.546875 14.921875 C11.213540 14.921875 10.942709 14.802085 10.734375 14.562500 C10.526041 14.322915 10.421875 13.901045 10.421875 13.296875 C10.421875 12.994790 10.364584 12.635419 10.250000 12.218750 C10.135416 11.802081 9.989584 11.437502 9.812500 11.125000 C9.635416 10.812498 9.453126 10.656250 9.265625 10.656250 C9.098958 10.656250 9.015625 10.833332 9.015625 11.187500 C9.015625 11.479168 9.057291 11.830727 9.140625 12.242188 C9.223959 12.653648 9.265625 13.088539 9.265625 13.546875 C9.265625 14.286462 9.161459 14.906248 8.953125 15.406250 C8.744791 15.906252 8.640625 16.385414 8.640625 16.843750 L8.640625 19.625000 C8.973960 20.072919 9.195312 20.408853 9.304688 20.632812 C9.414063 20.856772 9.468750 21.046874 9.468750 21.203125 C9.468750 21.432293 9.330731 21.601562 9.054688 21.710938 C8.778644 21.820313 8.479168 21.875000 8.156250 21.875000 C7.791665 21.875000 7.445314 21.802084 7.117188 21.656250 C6.789061 21.510416 6.625000 21.208336 6.625000 20.750000 L6.625000 16.859375 C6.625000 16.526040 6.505210 16.359375 6.265625 16.359375 C6.026040 16.359375 5.906250 16.526040 5.906250 16.859375 L5.906250 20.750000 C5.906250 21.208336 5.742189 21.510416 5.414062 21.656250 C5.085936 21.802084 4.739585 21.875000 4.375000 21.875000 Z M6.265625 6.953125 C5.307287 6.953125 4.484378 6.614587 3.796875 5.937500 C3.109372 5.260413 2.765625 4.437505 2.765625 3.468750 C2.765625 2.510412 3.109372 1.692712 3.796875 1.015625 C4.484378 0.338538 5.307287 -0.000000 6.265625 -0.000000 C7.223963 -0.000000 8.046872 0.338538 8.734375 1.015625 C9.421878 1.692712 9.765625 2.510412 9.765625 3.468750 C9.765625 4.437505 9.421878 5.260413 8.734375 5.937500 C8.046872 6.614587 7.223963 6.953125 6.265625 6.953125 Z M14.687500 21.875000 C14.468749 21.875000 14.260418 21.838542 14.062500 21.765625 C13.864582 21.692708 13.765625 21.583334 13.765625 21.437500 C13.765625 21.333333 13.804687 21.205730 13.882812 21.054688 C13.960938 20.903645 14.119790 20.682293 14.359375 20.390625 L14.359375 18.578125 C14.359375 18.276040 14.283855 17.958335 14.132812 17.625000 C13.981770 17.291665 13.906250 16.885419 13.906250 16.406250 C13.906250 16.291666 13.916667 16.098960 13.937500 15.828125 C13.958333 15.557290 13.979167 15.276043 14.000000 14.984375 C14.020833 14.692707 14.031250 14.468751 14.031250 14.312500 C14.031250 14.135416 13.968751 14.046875 13.843750 14.046875 C13.760416 14.046875 13.640626 14.109374 13.484375 14.234375 C13.192707 14.473960 12.893231 14.653645 12.585938 14.773438 C12.278644 14.893230 11.979168 14.953125 11.687500 14.953125 C11.270831 14.953125 10.942710 14.786460 10.703125 14.453125 L11.640625 13.437500 C11.932293 13.437500 12.195311 13.382813 12.429688 13.273438 C12.664064 13.164062 12.963540 12.932293 13.328125 12.578125 C13.692710 12.223957 14.119789 11.973959 14.609375 11.828125 C15.098961 11.682291 15.583331 11.609375 16.062500 11.609375 C17.406257 11.609375 18.450517 12.028642 19.195312 12.867188 C19.940108 13.705733 20.312500 14.812493 20.312500 16.187500 C20.312500 16.447918 20.244792 16.643229 20.109375 16.773438 C19.973958 16.903646 19.812501 16.968750 19.625000 16.968750 C19.395832 16.968750 19.205730 16.890626 19.054688 16.734375 C18.903645 16.578124 18.828125 16.286460 18.828125 15.859375 C18.828125 15.661457 18.804688 15.421876 18.757812 15.140625 C18.710937 14.859374 18.645834 14.606772 18.562500 14.382812 C18.479166 14.158853 18.375001 14.046875 18.250000 14.046875 C18.145833 14.046875 18.093750 14.151041 18.093750 14.359375 C18.093750 14.588543 18.114583 14.945310 18.156250 15.429688 C18.197917 15.914065 18.218750 16.239582 18.218750 16.406250 C18.218750 16.885419 18.143230 17.291665 17.992188 17.625000 C17.841145 17.958335 17.765625 18.276040 17.765625 18.578125 L17.765625 20.390625 C18.005210 20.682293 18.164062 20.903645 18.242188 21.054688 C18.320313 21.205730 18.359375 21.333333 18.359375 21.437500 C18.359375 21.583334 18.260418 21.692708 18.062500 21.765625 C17.864582 21.838542 17.656251 21.875000 17.437500 21.875000 C17.177082 21.875000 16.929689 21.828125 16.695312 21.734375 C16.460936 21.640625 16.343750 21.442710 16.343750 21.140625 L16.343750 18.578125 C16.343750 18.348957 16.250001 18.234375 16.062500 18.234375 C15.874999 18.234375 15.781250 18.348957 15.781250 18.578125 L15.781250 21.140625 C15.781250 21.442710 15.666668 21.640625 15.437500 21.734375 C15.208332 21.828125 14.958335 21.875000 14.687500 21.875000 Z M16.062500 12.093750 C15.249996 12.093750 14.554690 11.807295 13.976562 11.234375 C13.398435 10.661455 13.109375 9.973962 13.109375 9.171875 C13.109375 8.359371 13.398435 7.669274 13.976562 7.101562 C14.554690 6.533851 15.249996 6.250000 16.062500 6.250000 C16.864587 6.250000 17.552080 6.533851 18.125000 7.101562 C18.697920 7.669274 18.984375 8.359371 18.984375 9.171875 C18.984375 9.973962 18.697920 10.661455 18.125000 11.234375 C17.552080 11.807295 16.864587 12.093750 16.062500 12.093750 Z M30.468750 21.875000" /></svg>