<svg version="1.1" xmlns="http://www.w3.org/2000/svg" style="fill:rgba(0,0,0,1.0)" width="256" height="256" viewBox="0 0 40.0 21.875"><path fill="rgb(255, 255, 255)" d="M12.125000 21.875000 C11.802082 21.875000 11.502606 21.820313 11.226562 21.710938 C10.950519 21.601562 10.812500 21.432293 10.812500 21.203125 C10.812500 21.046874 10.867187 20.856772 10.976562 20.632812 C11.085938 20.408853 11.307290 20.072919 11.640625 19.625000 L11.640625 16.843750 C11.640625 16.385414 11.536459 15.906252 11.328125 15.406250 C11.119791 14.906248 11.015625 14.286462 11.015625 13.546875 C11.015625 13.088539 11.057291 12.653648 11.140625 12.242188 C11.223959 11.830727 11.265625 11.479168 11.265625 11.187500 C11.265625 10.833332 11.182292 10.656250 11.015625 10.656250 C10.828124 10.656250 10.645834 10.812498 10.468750 11.125000 C10.291666 11.437502 10.145834 11.802081 10.031250 12.218750 C9.916666 12.635419 9.859375 12.994790 9.859375 13.296875 C9.859375 13.901045 9.755209 14.322915 9.546875 14.562500 C9.338541 14.802085 9.067710 14.921875 8.734375 14.921875 C8.078122 14.921875 7.750000 14.557295 7.750000 13.828125 C7.750000 12.567702 8.033851 11.388026 8.601562 10.289062 C9.169274 9.190099 9.929683 8.296878 10.882812 7.609375 C11.835942 6.921872 12.880203 6.578125 14.015625 6.578125 C15.161464 6.578125 16.208329 6.921872 17.156250 7.609375 C18.104171 8.296878 18.861976 9.190099 19.429688 10.289062 C19.997399 11.388026 20.281250 12.567702 20.281250 13.828125 C20.281250 14.557295 19.953128 14.921875 19.296875 14.921875 C18.963540 14.921875 18.692709 14.802085 18.484375 14.562500 C18.276041 14.322915 18.171875 13.901045 18.171875 13.296875 C18.171875 12.994790 18.114584 12.635419 18.000000 12.218750 C17.885416 11.802081 17.739584 11.437502 17.562500 11.125000 C17.385416 10.812498 17.203126 10.656250 17.015625 10.656250 C16.848958 10.656250 16.765625 10.833332 16.765625 11.187500 C16.765625 11.479168 16.807291 11.830727 16.890625 12.242188 C16.973959 12.653648 17.015625 13.088539 17.015625 13.546875 C17.015625 14.286462 16.911459 14.906248 16.703125 15.406250 C16.494791 15.906252 16.390625 16.385414 16.390625 16.843750 L16.390625 19.625000 C16.723960 20.072919 16.945312 20.408853 17.054688 20.632812 C17.164063 20.856772 17.218750 21.046874 17.218750 21.203125 C17.218750 21.432293 17.080731 21.601562 16.804688 21.710938 C16.528644 21.820313 16.229168 21.875000 15.906250 21.875000 C15.541665 21.875000 15.195314 21.802084 14.867188 21.656250 C14.539061 21.510416 14.375000 21.208336 14.375000 20.750000 L14.375000 16.859375 C14.375000 16.526040 14.255210 16.359375 14.015625 16.359375 C13.776040 16.359375 13.656250 16.526040 13.656250 16.859375 L13.656250 20.750000 C13.656250 21.208336 13.492189 21.510416 13.164062 21.656250 C12.835936 21.802084 12.489585 21.875000 12.125000 21.875000 Z M14.015625 6.953125 C13.057287 6.953125 12.234378 6.614587 11.546875 5.937500 C10.859372 5.260413 10.515625 4.437505 10.515625 3.468750 C10.515625 2.510412 10.859372 1.692712 11.546875 1.015625 C12.234378 0.338538 13.057287 -0.000000 14.015625 -0.000000 C14.973963 -0.000000 15.796872 0.338538 16.484375 1.015625 C17.171878 1.692712 17.515625 2.510412 17.515625 3.468750 C17.515625 4.437505 17.171878 5.260413 16.484375 5.937500 C15.796872 6.614587 14.973963 6.953125 14.015625 6.953125 Z M23.453125 21.875000 C23.130207 21.875000 22.830731 21.820313 22.554688 21.710938 C22.278644 21.601562 22.140625 21.432293 22.140625 21.203125 C22.140625 21.046874 22.195312 20.856772 22.304688 20.632812 C22.414063 20.408853 22.635415 20.072919 22.968750 19.625000 L22.968750 16.843750 C22.968750 16.385414 22.864584 15.906252 22.656250 15.406250 C22.447916 14.906248 22.343750 14.286462 22.343750 13.546875 C22.343750 13.088539 22.385416 12.653648 22.468750 12.242188 C22.552084 11.830727 22.593750 11.479168 22.593750 11.187500 C22.593750 10.999999 22.575521 10.864584 22.539062 10.781250 C22.502604 10.697916 22.437500 10.656250 22.343750 10.656250 C22.229166 10.656250 22.117188 10.765624 22.007812 10.984375 C21.898437 11.203126 21.791667 11.468748 21.687500 11.781250 C21.541666 12.229169 21.364584 12.713539 21.156250 13.234375 C20.947916 13.755211 20.708335 14.166665 20.437500 14.468750 C20.291666 14.635417 20.125001 14.755208 19.937500 14.828125 C19.749999 14.901042 19.567709 14.937500 19.390625 14.937500 C19.067707 14.937500 18.804689 14.843751 18.601562 14.656250 C18.398436 14.468749 18.296875 14.255210 18.296875 14.015625 C18.296875 13.682290 18.447915 13.385418 18.750000 13.125000 C18.906251 12.989583 19.070312 12.718752 19.242188 12.312500 C19.414063 11.906248 19.583332 11.479169 19.750000 11.031250 C20.270836 9.614576 21.039057 8.518233 22.054688 7.742188 C23.070318 6.966142 24.166661 6.578125 25.343750 6.578125 C26.489589 6.578125 27.536454 6.919267 28.484375 7.601562 C29.432296 8.283858 30.190101 9.177078 30.757812 10.281250 C31.325524 11.385422 31.609375 12.567702 31.609375 13.828125 C31.609375 14.557295 31.281253 14.921875 30.625000 14.921875 C30.291665 14.921875 30.020834 14.802085 29.812500 14.562500 C29.604166 14.322915 29.500000 13.901045 29.500000 13.296875 C29.500000 12.994790 29.442709 12.635419 29.328125 12.218750 C29.213541 11.802081 29.067709 11.437502 28.890625 11.125000 C28.713541 10.812498 28.531251 10.656250 28.343750 10.656250 C28.177082 10.656250 28.093750 10.833332 28.093750 11.187500 C28.093750 11.479168 28.135416 11.830727 28.218750 12.242188 C28.302084 12.653648 28.343750 13.088539 28.343750 13.546875 C28.343750 14.286462 28.239584 14.906248 28.031250 15.406250 C27.822916 15.906252 27.718750 16.385414 27.718750 16.843750 L27.718750 19.625000 C28.052085 20.072919 28.273437 20.408853 28.382812 20.632812 C28.492188 20.856772 28.546875 21.046874 28.546875 21.203125 C28.546875 21.432293 28.408856 21.601562 28.132812 21.710938 C27.856769 21.820313 27.557293 21.875000 27.234375 21.875000 C26.869790 21.875000 26.523439 21.802084 26.195312 21.656250 C25.867186 21.510416 25.703125 21.208336 25.703125 20.750000 L25.703125 16.859375 C25.703125 16.526040 25.583335 16.359375 25.343750 16.359375 C25.104165 16.359375 24.984375 16.526040 24.984375 16.859375 L24.984375 20.750000 C24.984375 21.208336 24.820314 21.510416 24.492188 21.656250 C24.164061 21.802084 23.817710 21.875000 23.453125 21.875000 Z M25.343750 6.953125 C24.385412 6.953125 23.562503 6.614587 22.875000 5.937500 C22.187497 5.260413 21.843750 4.437505 21.843750 3.468750 C21.843750 2.510412 22.187497 1.692712 22.875000 1.015625 C23.562503 0.338538 24.385412 -0.000000 25.343750 -0.000000 C26.302088 -0.000000 27.124997 0.338538 27.812500 1.015625 C28.500003 1.692712 28.843750 2.510412 28.843750 3.468750 C28.843750 4.437505 28.500003 5.260413 27.812500 5.937500 C27.124997 6.614587 26.302088 6.953125 25.343750 6.953125 Z M2.875000 21.875000 C2.656249 21.875000 2.447918 21.838542 2.250000 21.765625 C2.052082 21.692708 1.953125 21.583334 1.953125 21.437500 C1.953125 21.333333 1.992187 21.205730 2.070312 21.054688 C2.148438 20.903645 2.307290 20.682293 2.546875 20.390625 L2.546875 18.578125 C2.546875 18.276040 2.471355 17.958335 2.320312 17.625000 C2.169270 17.291665 2.093750 16.885419 2.093750 16.406250 C2.093750 16.239582 2.114583 15.914065 2.156250 15.429688 C2.197917 14.945310 2.218750 14.588543 2.218750 14.359375 C2.218750 14.151041 2.166667 14.046875 2.062500 14.046875 C1.947916 14.046875 1.846355 14.158853 1.757812 14.382812 C1.669270 14.606772 1.601563 14.859374 1.554688 15.140625 C1.507812 15.421876 1.484375 15.661457 1.484375 15.859375 C1.484375 16.286460 1.408855 16.578124 1.257812 16.734375 C1.106770 16.890626 0.916668 16.968750 0.687500 16.968750 C0.499999 16.968750 0.338542 16.903646 0.203125 16.773438 C0.067708 16.643229 0.000000 16.447918 0.000000 16.187500 C0.000000 14.812493 0.372392 13.705733 1.117188 12.867188 C1.861983 12.028642 2.906243 11.609375 4.250000 11.609375 C4.739586 11.609375 5.226560 11.682291 5.710938 11.828125 C6.195315 11.973959 6.619790 12.223957 6.984375 12.578125 C7.348960 12.932293 7.648436 13.164062 7.882812 13.273438 C8.117189 13.382813 8.380207 13.437500 8.671875 13.437500 L9.609375 14.453125 C9.369790 14.786460 9.041669 14.953125 8.625000 14.953125 C8.333332 14.953125 8.036460 14.893230 7.734375 14.773438 C7.432290 14.653645 7.130210 14.473960 6.828125 14.234375 C6.671874 14.109374 6.552084 14.046875 6.468750 14.046875 C6.343749 14.046875 6.281250 14.135416 6.281250 14.312500 C6.281250 14.468751 6.291667 14.692707 6.312500 14.984375 C6.333333 15.276043 6.354167 15.557290 6.375000 15.828125 C6.395833 16.098960 6.406250 16.291666 6.406250 16.406250 C6.406250 16.885419 6.330730 17.291665 6.179688 17.625000 C6.028645 17.958335 5.953125 18.276040 5.953125 18.578125 L5.953125 20.390625 C6.192710 20.682293 6.351562 20.903645 6.429688 21.054688 C6.507813 21.205730 6.546875 21.333333 6.546875 21.437500 C6.546875 21.583334 6.447918 21.692708 6.250000 21.765625 C6.052082 21.838542 5.843751 21.875000 5.625000 21.875000 C5.364582 21.875000 5.117189 21.828125 4.882812 21.734375 C4.648436 21.640625 4.531250 21.442710 4.531250 21.140625 L4.531250 18.578125 C4.531250 18.348957 4.437501 18.234375 4.250000 18.234375 C4.062499 18.234375 3.968750 18.348957 3.968750 18.578125 L3.968750 21.140625 C3.968750 21.442710 3.854168 21.640625 3.625000 21.734375 C3.395832 21.828125 3.145835 21.875000 2.875000 21.875000 Z M4.250000 12.093750 C3.458329 12.093750 2.773440 11.807295 2.195312 11.234375 C1.617185 10.661455 1.328125 9.973962 1.328125 9.171875 C1.328125 8.359371 1.617185 7.669274 2.195312 7.101562 C2.773440 6.533851 3.458329 6.250000 4.250000 6.250000 C5.062504 6.250000 5.757810 6.533851 6.335938 7.101562 C6.914065 7.669274 7.203125 8.359371 7.203125 9.171875 C7.203125 9.973962 6.914065 10.661455 6.335938 11.234375 C5.757810 11.807295 5.062504 12.093750 4.250000 12.093750 Z M33.750000 21.875000 C33.531249 21.875000 33.322918 21.838542 33.125000 21.765625 C32.927082 21.692708 32.828125 21.583334 32.828125 21.437500 C32.828125 21.333333 32.867187 21.205730 32.945312 21.054688 C33.023438 20.903645 33.182290 20.682293 33.421875 20.390625 L33.421875 18.578125 C33.421875 18.276040 33.346355 17.958335 33.195312 17.625000 C33.044270 17.291665 32.968750 16.885419 32.968750 16.406250 C32.968750 16.291666 32.979167 16.098960 33.000000 15.828125 C33.020833 15.557290 33.041667 15.276043 33.062500 14.984375 C33.083333 14.692707 33.093750 14.468751 33.093750 14.312500 C33.093750 14.135416 33.031251 14.046875 32.906250 14.046875 C32.822916 14.046875 32.703126 14.109374 32.546875 14.234375 C32.255207 14.473960 31.955731 14.653645 31.648438 14.773438 C31.341144 14.893230 31.041668 14.953125 30.750000 14.953125 C30.333331 14.953125 30.005210 14.786460 29.765625 14.453125 L30.703125 13.437500 C30.994793 13.437500 31.257811 13.382813 31.492188 13.273438 C31.726564 13.164062 32.026040 12.932293 32.390625 12.578125 C32.755210 12.223957 33.182289 11.973959 33.671875 11.828125 C34.161461 11.682291 34.645831 11.609375 35.125000 11.609375 C36.468757 11.609375 37.513017 12.028642 38.257812 12.867188 C39.002608 13.705733 39.375000 14.812493 39.375000 16.187500 C39.375000 16.447918 39.307292 16.643229 39.171875 16.773438 C39.036458 16.903646 38.875001 16.968750 38.687500 16.968750 C38.458332 16.968750 38.268230 16.890626 38.117188 16.734375 C37.966145 16.578124 37.890625 16.286460 37.890625 15.859375 C37.890625 15.661457 37.867188 15.421876 37.820312 15.140625 C37.773437 14.859374 37.708334 14.606772 37.625000 14.382812 C37.541666 14.158853 37.437501 14.046875 37.312500 14.046875 C37.208333 14.046875 37.156250 14.151041 37.156250 14.359375 C37.156250 14.588543 37.177083 14.945310 37.218750 15.429688 C37.260417 15.914065 37.281250 16.239582 37.281250 16.406250 C37.281250 16.885419 37.205730 17.291665 37.054688 17.625000 C36.903645 17.958335 36.828125 18.276040 36.828125 18.578125 L36.828125 20.390625 C37.067710 20.682293 37.226562 20.903645 37.304688 21.054688 C37.382813 21.205730 37.421875 21.333333 37.421875 21.437500 C37.421875 21.583334 37.322918 21.692708 37.125000 21.765625 C36.927082 21.838542 36.718751 21.875000 36.500000 21.875000 C36.239582 21.875000 35.992189 21.828125 35.757812 21.734375 C35.523436 21.640625 35.406250 21.442710 35.406250 21.140625 L35.406250 18.578125 C35.406250 18.348957 35.312501 18.234375 35.125000 18.234375 C34.937499 18.234375 34.843750 18.348957 34.843750 18.578125 L34.843750 21.140625 C34.843750 21.442710 34.729168 21.640625 34.500000 21.734375 C34.270832 21.828125 34.020835 21.875000 33.750000 21.875000 Z M35.125000 12.093750 C34.312496 12.093750 33.617190 11.807295 33.039062 11.234375 C32.460935 10.661455 32.171875 9.973962 32.171875 9.171875 C32.171875 8.359371 32.460935 7.669274 33.039062 7.101562 C33.617190 6.533851 34.312496 6.250000 35.125000 6.250000 C35.927087 6.250000 36.614580 6.533851 37.187500 7.101562 C37.760420 7.669274 38.046875 8.359371 38.046875 9.171875 C38.046875 9.973962 37.760420 10.661455 37.187500 11.234375 C36.614580 11.807295 35.927087 12.093750 35.125000 12.093750 Z M40.000000 21.875000" /></svg>