<svg version="1.1" xmlns="http://www.w3.org/2000/svg" style="fill:rgba(0,0,0,1.0)" width="256" height="256" viewBox="0 0 40.234375 21.875"><path fill="rgb(255, 255, 255)" d="M14.625000 16.390625 C13.802079 16.390625 13.093753 16.299480 12.500000 16.117188 C11.906247 15.934895 11.447918 15.716147 11.125000 15.460938 C10.802082 15.205728 10.640625 14.968751 10.640625 14.750000 C10.640625 14.593749 10.713541 14.432292 10.859375 14.265625 C11.317711 13.776039 11.697915 13.177087 12.000000 12.468750 C12.302085 11.760413 12.453125 11.145836 12.453125 10.625000 C12.453125 10.281248 12.359376 10.109375 12.171875 10.109375 C12.036458 10.109375 11.927084 10.213541 11.843750 10.421875 C11.760416 10.630209 11.687500 10.874999 11.625000 11.156250 C11.562500 11.458335 11.450522 11.822915 11.289062 12.250000 C11.127603 12.677085 10.950522 13.091144 10.757812 13.492188 C10.565103 13.893231 10.380209 14.218749 10.203125 14.468750 C9.994791 14.770835 9.692710 14.921875 9.296875 14.921875 C9.057290 14.921875 8.841147 14.835938 8.648438 14.664062 C8.455728 14.492187 8.359375 14.276043 8.359375 14.015625 C8.359375 13.776040 8.411458 13.570313 8.515625 13.398438 C8.619792 13.226562 8.749999 13.046876 8.906250 12.859375 C9.093751 12.640624 9.304686 12.354168 9.539062 12.000000 C9.773439 11.645832 9.989582 11.161461 10.187500 10.546875 C10.718753 8.963534 11.289059 7.828128 11.898438 7.140625 C12.507816 6.453122 13.416661 6.109375 14.625000 6.109375 C15.833339 6.109375 16.742184 6.453122 17.351562 7.140625 C17.960941 7.828128 18.531247 8.963534 19.062500 10.546875 C19.270834 11.161461 19.489582 11.645832 19.718750 12.000000 C19.947918 12.354168 20.156249 12.640624 20.343750 12.859375 C20.500001 13.046876 20.630208 13.226562 20.734375 13.398438 C20.838542 13.570313 20.890625 13.776040 20.890625 14.015625 C20.890625 14.276043 20.794272 14.492187 20.601562 14.664062 C20.408853 14.835938 20.192710 14.921875 19.953125 14.921875 C19.776041 14.921875 19.609376 14.885417 19.453125 14.812500 C19.296874 14.739583 19.161459 14.625001 19.046875 14.468750 C18.880208 14.218749 18.697918 13.893231 18.500000 13.492188 C18.302082 13.091144 18.125001 12.677085 17.968750 12.250000 C17.812499 11.822915 17.697917 11.458335 17.625000 11.156250 C17.562500 10.874999 17.489584 10.630209 17.406250 10.421875 C17.322916 10.213541 17.213542 10.109375 17.078125 10.109375 C16.890624 10.109375 16.796875 10.281248 16.796875 10.625000 C16.796875 11.145836 16.950519 11.760413 17.257812 12.468750 C17.565106 13.177087 17.942706 13.776039 18.390625 14.265625 C18.536459 14.432292 18.609375 14.593749 18.609375 14.750000 C18.609375 14.968751 18.447918 15.205728 18.125000 15.460938 C17.802082 15.716147 17.343753 15.934895 16.750000 16.117188 C16.156247 16.299480 15.447921 16.390625 14.625000 16.390625 Z M13.062500 21.875000 C12.791665 21.875000 12.523439 21.830730 12.257812 21.742188 C11.992186 21.653645 11.859375 21.520834 11.859375 21.343750 C11.859375 21.218749 11.908854 21.070313 12.007812 20.898438 C12.106771 20.726562 12.333332 20.463543 12.687500 20.109375 L12.687500 15.750000 L16.562500 15.750000 L16.562500 20.109375 C16.927085 20.463543 17.156250 20.726562 17.250000 20.898438 C17.343750 21.070313 17.390625 21.218749 17.390625 21.343750 C17.390625 21.520834 17.257814 21.653645 16.992188 21.742188 C16.726561 21.830730 16.458335 21.875000 16.187500 21.875000 C15.895832 21.875000 15.622397 21.817709 15.367188 21.703125 C15.111978 21.588541 14.984375 21.348960 14.984375 20.984375 L14.984375 16.859375 C14.984375 16.588540 14.864585 16.453125 14.625000 16.453125 C14.385415 16.453125 14.265625 16.588540 14.265625 16.859375 L14.265625 20.984375 C14.265625 21.348960 14.138022 21.588541 13.882812 21.703125 C13.627603 21.817709 13.354168 21.875000 13.062500 21.875000 Z M14.625000 6.312500 C13.760412 6.312500 13.015628 6.005211 12.390625 5.390625 C11.765622 4.776039 11.453125 4.031254 11.453125 3.156250 C11.453125 2.281246 11.765622 1.536461 12.390625 0.921875 C13.015628 0.307289 13.760412 -0.000000 14.625000 -0.000000 C15.489588 -0.000000 16.234372 0.307289 16.859375 0.921875 C17.484378 1.536461 17.796875 2.281246 17.796875 3.156250 C17.796875 4.031254 17.484378 4.776039 16.859375 5.390625 C16.234372 6.005211 15.489588 6.312500 14.625000 6.312500 Z M25.218750 16.390625 C24.395829 16.390625 23.687503 16.299480 23.093750 16.117188 C22.499997 15.934895 22.041668 15.716147 21.718750 15.460938 C21.395832 15.205728 21.234375 14.968751 21.234375 14.750000 C21.234375 14.593749 21.307291 14.432292 21.453125 14.265625 C21.911461 13.776039 22.291665 13.177087 22.593750 12.468750 C22.895835 11.760413 23.046875 11.145836 23.046875 10.625000 C23.046875 10.281248 22.953126 10.109375 22.765625 10.109375 C22.630208 10.109375 22.520834 10.213541 22.437500 10.421875 C22.354166 10.630209 22.281250 10.874999 22.218750 11.156250 C22.156250 11.458335 22.044272 11.822915 21.882812 12.250000 C21.721353 12.677085 21.544272 13.091144 21.351562 13.492188 C21.158853 13.893231 20.973959 14.218749 20.796875 14.468750 C20.588541 14.770835 20.286460 14.921875 19.890625 14.921875 C19.651040 14.921875 19.434897 14.835938 19.242188 14.664062 C19.049478 14.492187 18.953125 14.276043 18.953125 14.015625 C18.953125 13.776040 19.005208 13.570313 19.109375 13.398438 C19.213542 13.226562 19.343749 13.046876 19.500000 12.859375 C19.687501 12.640624 19.898436 12.354168 20.132812 12.000000 C20.367189 11.645832 20.583332 11.161461 20.781250 10.546875 C21.312503 8.963534 21.882809 7.828128 22.492188 7.140625 C23.101566 6.453122 24.010411 6.109375 25.218750 6.109375 C26.427089 6.109375 27.335934 6.453122 27.945312 7.140625 C28.554691 7.828128 29.124997 8.963534 29.656250 10.546875 C29.864584 11.161461 30.083332 11.645832 30.312500 12.000000 C30.541668 12.354168 30.749999 12.640624 30.937500 12.859375 C31.093751 13.046876 31.223958 13.226562 31.328125 13.398438 C31.432292 13.570313 31.484375 13.776040 31.484375 14.015625 C31.484375 14.276043 31.388022 14.492187 31.195312 14.664062 C31.002603 14.835938 30.786460 14.921875 30.546875 14.921875 C30.369791 14.921875 30.203126 14.885417 30.046875 14.812500 C29.890624 14.739583 29.755209 14.625001 29.640625 14.468750 C29.473957 14.218749 29.291668 13.893231 29.093750 13.492188 C28.895832 13.091144 28.718751 12.677085 28.562500 12.250000 C28.406249 11.822915 28.291667 11.458335 28.218750 11.156250 C28.156250 10.874999 28.083334 10.630209 28.000000 10.421875 C27.916666 10.213541 27.807292 10.109375 27.671875 10.109375 C27.484374 10.109375 27.390625 10.281248 27.390625 10.625000 C27.390625 11.145836 27.544269 11.760413 27.851562 12.468750 C28.158856 13.177087 28.536456 13.776039 28.984375 14.265625 C29.130209 14.432292 29.203125 14.593749 29.203125 14.750000 C29.203125 14.968751 29.041668 15.205728 28.718750 15.460938 C28.395832 15.716147 27.937503 15.934895 27.343750 16.117188 C26.749997 16.299480 26.041671 16.390625 25.218750 16.390625 Z M23.656250 21.875000 C23.385415 21.875000 23.117189 21.830730 22.851562 21.742188 C22.585936 21.653645 22.453125 21.520834 22.453125 21.343750 C22.453125 21.218749 22.502604 21.070313 22.601562 20.898438 C22.700521 20.726562 22.927082 20.463543 23.281250 20.109375 L23.281250 15.750000 L27.156250 15.750000 L27.156250 20.109375 C27.520835 20.463543 27.750000 20.726562 27.843750 20.898438 C27.937500 21.070313 27.984375 21.218749 27.984375 21.343750 C27.984375 21.520834 27.851564 21.653645 27.585938 21.742188 C27.320311 21.830730 27.052085 21.875000 26.781250 21.875000 C26.489582 21.875000 26.216147 21.817709 25.960938 21.703125 C25.705728 21.588541 25.578125 21.348960 25.578125 20.984375 L25.578125 16.859375 C25.578125 16.588540 25.458335 16.453125 25.218750 16.453125 C24.979165 16.453125 24.859375 16.588540 24.859375 16.859375 L24.859375 20.984375 C24.859375 21.348960 24.731772 21.588541 24.476562 21.703125 C24.221353 21.817709 23.947918 21.875000 23.656250 21.875000 Z M25.218750 6.312500 C24.354162 6.312500 23.609378 6.005211 22.984375 5.390625 C22.359372 4.776039 22.046875 4.031254 22.046875 3.156250 C22.046875 2.281246 22.359372 1.536461 22.984375 0.921875 C23.609378 0.307289 24.354162 -0.000000 25.218750 -0.000000 C26.083338 -0.000000 26.828122 0.307289 27.453125 0.921875 C28.078128 1.536461 28.390625 2.281246 28.390625 3.156250 C28.390625 4.031254 28.078128 4.776039 27.453125 5.390625 C26.828122 6.005211 26.083338 6.312500 25.218750 6.312500 Z M4.828125 18.812500 C3.817703 18.812500 3.020836 18.661460 2.437500 18.359375 C1.854164 18.057290 1.562500 17.781251 1.562500 17.531250 C1.562500 17.395833 1.619791 17.270834 1.734375 17.156250 C2.109377 16.781248 2.380208 16.315107 2.546875 15.757812 C2.713542 15.200518 2.796875 14.718752 2.796875 14.312500 C2.796875 14.135416 2.750000 14.046875 2.656250 14.046875 C2.604166 14.046875 2.559896 14.093750 2.523438 14.187500 C2.486979 14.281250 2.442709 14.421874 2.390625 14.609375 C2.255208 15.161461 2.119792 15.583332 1.984375 15.875000 C1.848958 16.166668 1.671876 16.468748 1.453125 16.781250 C1.213540 17.114585 0.958335 17.281250 0.687500 17.281250 C0.520832 17.281250 0.364584 17.221355 0.218750 17.101562 C0.072916 16.981770 0.000000 16.828126 0.000000 16.640625 C0.000000 16.494791 0.036458 16.364584 0.109375 16.250000 C0.182292 16.135416 0.270833 16.010417 0.375000 15.875000 C0.489584 15.729166 0.622395 15.533855 0.773438 15.289062 C0.924480 15.044270 1.067708 14.718752 1.203125 14.312500 C1.588544 13.197911 2.062497 12.468752 2.625000 12.125000 C3.187503 11.781248 3.921870 11.609375 4.828125 11.609375 C5.317711 11.609375 5.804685 11.682291 6.289062 11.828125 C6.773440 11.973959 7.197915 12.223957 7.562500 12.578125 C7.927085 12.932293 8.226561 13.164062 8.460938 13.273438 C8.695314 13.382813 8.958332 13.437500 9.250000 13.437500 L10.187500 14.453125 C9.947915 14.786460 9.619794 14.953125 9.203125 14.953125 C8.588539 14.953125 7.989586 14.713544 7.406250 14.234375 C7.249999 14.109374 7.130209 14.046875 7.046875 14.046875 C6.921874 14.046875 6.859375 14.135416 6.859375 14.312500 C6.859375 14.718752 6.968749 15.200518 7.187500 15.757812 C7.406251 16.315107 7.703123 16.781248 8.078125 17.156250 C8.192709 17.270834 8.250000 17.395833 8.250000 17.531250 C8.250000 17.781251 7.950524 18.057290 7.351562 18.359375 C6.752601 18.661460 5.911464 18.812500 4.828125 18.812500 Z M3.453125 21.875000 C3.234374 21.875000 3.026043 21.838542 2.828125 21.765625 C2.630207 21.692708 2.531250 21.583334 2.531250 21.437500 C2.531250 21.333333 2.570312 21.205730 2.648438 21.054688 C2.726563 20.903645 2.885415 20.682293 3.125000 20.390625 L3.125000 18.343750 L6.531250 18.343750 L6.531250 20.390625 C6.770835 20.682293 6.929687 20.903645 7.007812 21.054688 C7.085938 21.205730 7.125000 21.333333 7.125000 21.437500 C7.125000 21.583334 7.026043 21.692708 6.828125 21.765625 C6.630207 21.838542 6.421876 21.875000 6.203125 21.875000 C5.942707 21.875000 5.695314 21.828125 5.460938 21.734375 C5.226561 21.640625 5.109375 21.442710 5.109375 21.140625 L5.109375 19.265625 C5.109375 19.036457 5.015626 18.921875 4.828125 18.921875 C4.640624 18.921875 4.546875 19.036457 4.546875 19.265625 L4.546875 21.140625 C4.546875 21.442710 4.432293 21.640625 4.203125 21.734375 C3.973957 21.828125 3.723960 21.875000 3.453125 21.875000 Z M4.828125 12.093750 C4.036454 12.093750 3.351565 11.807295 2.773438 11.234375 C2.195310 10.661455 1.906250 9.973962 1.906250 9.171875 C1.906250 8.359371 2.195310 7.669274 2.773438 7.101562 C3.351565 6.533851 4.036454 6.250000 4.828125 6.250000 C5.640629 6.250000 6.335935 6.533851 6.914062 7.101562 C7.492190 7.669274 7.781250 8.359371 7.781250 9.171875 C7.781250 9.973962 7.492190 10.661455 6.914062 11.234375 C6.335935 11.807295 5.640629 12.093750 4.828125 12.093750 Z M35.015625 18.812500 C33.932286 18.812500 33.091149 18.661460 32.492188 18.359375 C31.893226 18.057290 31.593750 17.781251 31.593750 17.531250 C31.593750 17.395833 31.651041 17.270834 31.765625 17.156250 C32.140627 16.781248 32.437499 16.315107 32.656250 15.757812 C32.875001 15.200518 32.984375 14.718752 32.984375 14.312500 C32.984375 14.135416 32.921876 14.046875 32.796875 14.046875 C32.713541 14.046875 32.593751 14.109374 32.437500 14.234375 C31.854164 14.713544 31.255211 14.953125 30.640625 14.953125 C30.223956 14.953125 29.895835 14.786460 29.656250 14.453125 L30.593750 13.437500 C30.885418 13.437500 31.148436 13.382813 31.382812 13.273438 C31.617189 13.164062 31.916665 12.932293 32.281250 12.578125 C32.645835 12.223957 33.072914 11.973959 33.562500 11.828125 C34.052086 11.682291 34.536456 11.609375 35.015625 11.609375 C35.921880 11.609375 36.656247 11.781248 37.218750 12.125000 C37.781253 12.468752 38.255206 13.197911 38.640625 14.312500 C38.786459 14.718752 38.932291 15.044270 39.078125 15.289062 C39.223959 15.533855 39.354166 15.729166 39.468750 15.875000 C39.583334 16.010417 39.674479 16.135416 39.742188 16.250000 C39.809896 16.364584 39.843750 16.494791 39.843750 16.640625 C39.843750 16.828126 39.773438 16.981770 39.632812 17.101562 C39.492187 17.221355 39.333334 17.281250 39.156250 17.281250 C38.885415 17.281250 38.630210 17.114585 38.390625 16.781250 C38.171874 16.468748 37.997396 16.166668 37.867188 15.875000 C37.736979 15.583332 37.598959 15.161461 37.453125 14.609375 C37.411458 14.421874 37.369792 14.281250 37.328125 14.187500 C37.286458 14.093750 37.239584 14.046875 37.187500 14.046875 C37.093750 14.046875 37.046875 14.135416 37.046875 14.312500 C37.046875 14.718752 37.130208 15.200518 37.296875 15.757812 C37.463542 16.315107 37.734373 16.781248 38.109375 17.156250 C38.223959 17.270834 38.281250 17.395833 38.281250 17.531250 C38.281250 17.781251 37.989586 18.057290 37.406250 18.359375 C36.822914 18.661460 36.026047 18.812500 35.015625 18.812500 Z M33.640625 21.875000 C33.421874 21.875000 33.213543 21.838542 33.015625 21.765625 C32.817707 21.692708 32.718750 21.583334 32.718750 21.437500 C32.718750 21.333333 32.757812 21.205730 32.835938 21.054688 C32.914063 20.903645 33.072915 20.682293 33.312500 20.390625 L33.312500 18.343750 L36.718750 18.343750 L36.718750 20.390625 C36.958335 20.682293 37.117187 20.903645 37.195312 21.054688 C37.273438 21.205730 37.312500 21.333333 37.312500 21.437500 C37.312500 21.583334 37.213543 21.692708 37.015625 21.765625 C36.817707 21.838542 36.609376 21.875000 36.390625 21.875000 C36.130207 21.875000 35.882814 21.828125 35.648438 21.734375 C35.414061 21.640625 35.296875 21.442710 35.296875 21.140625 L35.296875 19.265625 C35.296875 19.036457 35.203126 18.921875 35.015625 18.921875 C34.828124 18.921875 34.734375 19.036457 34.734375 19.265625 L34.734375 21.140625 C34.734375 21.442710 34.619793 21.640625 34.390625 21.734375 C34.161457 21.828125 33.911460 21.875000 33.640625 21.875000 Z M35.015625 12.093750 C34.203121 12.093750 33.507815 11.807295 32.929688 11.234375 C32.351560 10.661455 32.062500 9.973962 32.062500 9.171875 C32.062500 8.359371 32.351560 7.669274 32.929688 7.101562 C33.507815 6.533851 34.203121 6.250000 35.015625 6.250000 C35.817712 6.250000 36.505205 6.533851 37.078125 7.101562 C37.651045 7.669274 37.937500 8.359371 37.937500 9.171875 C37.937500 9.973962 37.651045 10.661455 37.078125 11.234375 C36.505205 11.807295 35.817712 12.093750 35.015625 12.093750 Z M40.234375 21.875000" /></svg>