<svg version="1.1" xmlns="http://www.w3.org/2000/svg" style="fill:rgba(0,0,0,1.0)" width="256" height="256" viewBox="0 0 35.0 21.875"><path fill="rgb(255, 255, 255)" d="M12.796875 21.875000 C12.473957 21.875000 12.174481 21.820313 11.898438 21.710938 C11.622394 21.601562 11.484375 21.432293 11.484375 21.203125 C11.484375 21.046874 11.539062 20.856772 11.648438 20.632812 C11.757813 20.408853 11.979165 20.072919 12.312500 19.625000 L12.312500 16.843750 C12.312500 16.385414 12.208334 15.906252 12.000000 15.406250 C11.791666 14.906248 11.687500 14.286462 11.687500 13.546875 C11.687500 13.088539 11.729166 12.653648 11.812500 12.242188 C11.895834 11.830727 11.937500 11.479168 11.937500 11.187500 C11.937500 10.833332 11.854168 10.656250 11.687500 10.656250 C11.499999 10.656250 11.317709 10.812498 11.140625 11.125000 C10.963541 11.437502 10.817709 11.802081 10.703125 12.218750 C10.588541 12.635419 10.531250 12.994790 10.531250 13.296875 C10.531250 13.901045 10.427084 14.322915 10.218750 14.562500 C10.010416 14.802085 9.739585 14.921875 9.406250 14.921875 C8.749997 14.921875 8.421875 14.557295 8.421875 13.828125 C8.421875 12.567702 8.705726 11.388026 9.273438 10.289062 C9.841149 9.190099 10.601558 8.296878 11.554688 7.609375 C12.507817 6.921872 13.552078 6.578125 14.687500 6.578125 C15.833339 6.578125 16.880204 6.921872 17.828125 7.609375 C18.776046 8.296878 19.533851 9.190099 20.101562 10.289062 C20.669274 11.388026 20.953125 12.567702 20.953125 13.828125 C20.953125 14.557295 20.625003 14.921875 19.968750 14.921875 C19.635415 14.921875 19.364584 14.802085 19.156250 14.562500 C18.947916 14.322915 18.843750 13.901045 18.843750 13.296875 C18.843750 12.994790 18.786459 12.635419 18.671875 12.218750 C18.557291 11.802081 18.411459 11.437502 18.234375 11.125000 C18.057291 10.812498 17.875001 10.656250 17.687500 10.656250 C17.520832 10.656250 17.437500 10.833332 17.437500 11.187500 C17.437500 11.479168 17.479166 11.830727 17.562500 12.242188 C17.645834 12.653648 17.687500 13.088539 17.687500 13.546875 C17.687500 14.286462 17.583334 14.906248 17.375000 15.406250 C17.166666 15.906252 17.062500 16.385414 17.062500 16.843750 L17.062500 19.625000 C17.395835 20.072919 17.617187 20.408853 17.726562 20.632812 C17.835938 20.856772 17.890625 21.046874 17.890625 21.203125 C17.890625 21.432293 17.752606 21.601562 17.476562 21.710938 C17.200519 21.820313 16.901043 21.875000 16.578125 21.875000 C16.213540 21.875000 15.867189 21.802084 15.539062 21.656250 C15.210936 21.510416 15.046875 21.208336 15.046875 20.750000 L15.046875 16.859375 C15.046875 16.526040 14.927085 16.359375 14.687500 16.359375 C14.447915 16.359375 14.328125 16.526040 14.328125 16.859375 L14.328125 20.750000 C14.328125 21.208336 14.164064 21.510416 13.835938 21.656250 C13.507811 21.802084 13.161460 21.875000 12.796875 21.875000 Z M14.687500 6.953125 C13.729162 6.953125 12.906253 6.614587 12.218750 5.937500 C11.531247 5.260413 11.187500 4.437505 11.187500 3.468750 C11.187500 2.510412 11.531247 1.692712 12.218750 1.015625 C12.906253 0.338538 13.729162 -0.000000 14.687500 -0.000000 C15.645838 -0.000000 16.468747 0.338538 17.156250 1.015625 C17.843753 1.692712 18.187500 2.510412 18.187500 3.468750 C18.187500 4.437505 17.843753 5.260413 17.156250 5.937500 C16.468747 6.614587 15.645838 6.953125 14.687500 6.953125 Z M4.828125 18.812500 C3.817703 18.812500 3.020836 18.661460 2.437500 18.359375 C1.854164 18.057290 1.562500 17.781251 1.562500 17.531250 C1.562500 17.395833 1.619791 17.270834 1.734375 17.156250 C2.109377 16.781248 2.380208 16.315107 2.546875 15.757812 C2.713542 15.200518 2.796875 14.718752 2.796875 14.312500 C2.796875 14.135416 2.750000 14.046875 2.656250 14.046875 C2.604166 14.046875 2.559896 14.093750 2.523438 14.187500 C2.486979 14.281250 2.442709 14.421874 2.390625 14.609375 C2.255208 15.161461 2.119792 15.583332 1.984375 15.875000 C1.848958 16.166668 1.671876 16.468748 1.453125 16.781250 C1.213540 17.114585 0.958335 17.281250 0.687500 17.281250 C0.520832 17.281250 0.364584 17.221355 0.218750 17.101562 C0.072916 16.981770 0.000000 16.828126 0.000000 16.640625 C0.000000 16.494791 0.036458 16.364584 0.109375 16.250000 C0.182292 16.135416 0.270833 16.010417 0.375000 15.875000 C0.489584 15.729166 0.622395 15.533855 0.773438 15.289062 C0.924480 15.044270 1.067708 14.718752 1.203125 14.312500 C1.588544 13.197911 2.062497 12.468752 2.625000 12.125000 C3.187503 11.781248 3.921870 11.609375 4.828125 11.609375 C5.317711 11.609375 5.804685 11.682291 6.289062 11.828125 C6.773440 11.973959 7.197915 12.223957 7.562500 12.578125 C7.927085 12.932293 8.226561 13.164062 8.460938 13.273438 C8.695314 13.382813 8.958332 13.437500 9.250000 13.437500 L10.187500 14.453125 C9.947915 14.786460 9.619794 14.953125 9.203125 14.953125 C8.588539 14.953125 7.989586 14.713544 7.406250 14.234375 C7.249999 14.109374 7.130209 14.046875 7.046875 14.046875 C6.921874 14.046875 6.859375 14.135416 6.859375 14.312500 C6.859375 14.718752 6.968749 15.200518 7.187500 15.757812 C7.406251 16.315107 7.703123 16.781248 8.078125 17.156250 C8.192709 17.270834 8.250000 17.395833 8.250000 17.531250 C8.250000 17.781251 7.950524 18.057290 7.351562 18.359375 C6.752601 18.661460 5.911464 18.812500 4.828125 18.812500 Z M3.453125 21.875000 C3.234374 21.875000 3.026043 21.838542 2.828125 21.765625 C2.630207 21.692708 2.531250 21.583334 2.531250 21.437500 C2.531250 21.333333 2.570312 21.205730 2.648438 21.054688 C2.726563 20.903645 2.885415 20.682293 3.125000 20.390625 L3.125000 18.343750 L6.531250 18.343750 L6.531250 20.390625 C6.770835 20.682293 6.929687 20.903645 7.007812 21.054688 C7.085938 21.205730 7.125000 21.333333 7.125000 21.437500 C7.125000 21.583334 7.026043 21.692708 6.828125 21.765625 C6.630207 21.838542 6.421876 21.875000 6.203125 21.875000 C5.942707 21.875000 5.695314 21.828125 5.460938 21.734375 C5.226561 21.640625 5.109375 21.442710 5.109375 21.140625 L5.109375 19.265625 C5.109375 19.036457 5.015626 18.921875 4.828125 18.921875 C4.640624 18.921875 4.546875 19.036457 4.546875 19.265625 L4.546875 21.140625 C4.546875 21.442710 4.432293 21.640625 4.203125 21.734375 C3.973957 21.828125 3.723960 21.875000 3.453125 21.875000 Z M4.828125 12.093750 C4.036454 12.093750 3.351565 11.807295 2.773438 11.234375 C2.195310 10.661455 1.906250 9.973962 1.906250 9.171875 C1.906250 8.359371 2.195310 7.669274 2.773438 7.101562 C3.351565 6.533851 4.036454 6.250000 4.828125 6.250000 C5.640629 6.250000 6.335935 6.533851 6.914062 7.101562 C7.492190 7.669274 7.781250 8.359371 7.781250 9.171875 C7.781250 9.973962 7.492190 10.661455 6.914062 11.234375 C6.335935 11.807295 5.640629 12.093750 4.828125 12.093750 Z M24.546875 18.812500 C23.463536 18.812500 22.622399 18.661460 22.023438 18.359375 C21.424476 18.057290 21.125000 17.781251 21.125000 17.531250 C21.125000 17.395833 21.182291 17.270834 21.296875 17.156250 C21.671877 16.781248 21.968749 16.315107 22.187500 15.757812 C22.406251 15.200518 22.515625 14.718752 22.515625 14.312500 C22.515625 14.135416 22.453126 14.046875 22.328125 14.046875 C22.244791 14.046875 22.125001 14.109374 21.968750 14.234375 C21.385414 14.713544 20.786461 14.953125 20.171875 14.953125 C19.755206 14.953125 19.427085 14.786460 19.187500 14.453125 L20.125000 13.437500 C20.416668 13.437500 20.679686 13.382813 20.914062 13.273438 C21.148439 13.164062 21.447915 12.932293 21.812500 12.578125 C22.177085 12.223957 22.604164 11.973959 23.093750 11.828125 C23.583336 11.682291 24.067706 11.609375 24.546875 11.609375 C25.453130 11.609375 26.187497 11.781248 26.750000 12.125000 C27.312503 12.468752 27.786456 13.197911 28.171875 14.312500 C28.317709 14.718752 28.463541 15.044270 28.609375 15.289062 C28.755209 15.533855 28.885416 15.729166 29.000000 15.875000 C29.114584 16.010417 29.205729 16.135416 29.273438 16.250000 C29.341146 16.364584 29.375000 16.494791 29.375000 16.640625 C29.375000 16.828126 29.304688 16.981770 29.164062 17.101562 C29.023437 17.221355 28.864584 17.281250 28.687500 17.281250 C28.416665 17.281250 28.161460 17.114585 27.921875 16.781250 C27.703124 16.468748 27.528646 16.166668 27.398438 15.875000 C27.268229 15.583332 27.130209 15.161461 26.984375 14.609375 C26.942708 14.421874 26.901042 14.281250 26.859375 14.187500 C26.817708 14.093750 26.770834 14.046875 26.718750 14.046875 C26.625000 14.046875 26.578125 14.135416 26.578125 14.312500 C26.578125 14.718752 26.661458 15.200518 26.828125 15.757812 C26.994792 16.315107 27.265623 16.781248 27.640625 17.156250 C27.755209 17.270834 27.812500 17.395833 27.812500 17.531250 C27.812500 17.781251 27.520836 18.057290 26.937500 18.359375 C26.354164 18.661460 25.557297 18.812500 24.546875 18.812500 Z M23.171875 21.875000 C22.953124 21.875000 22.744793 21.838542 22.546875 21.765625 C22.348957 21.692708 22.250000 21.583334 22.250000 21.437500 C22.250000 21.333333 22.289062 21.205730 22.367188 21.054688 C22.445313 20.903645 22.604165 20.682293 22.843750 20.390625 L22.843750 18.343750 L26.250000 18.343750 L26.250000 20.390625 C26.489585 20.682293 26.648437 20.903645 26.726562 21.054688 C26.804688 21.205730 26.843750 21.333333 26.843750 21.437500 C26.843750 21.583334 26.744793 21.692708 26.546875 21.765625 C26.348957 21.838542 26.140626 21.875000 25.921875 21.875000 C25.661457 21.875000 25.414064 21.828125 25.179688 21.734375 C24.945311 21.640625 24.828125 21.442710 24.828125 21.140625 L24.828125 19.265625 C24.828125 19.036457 24.734376 18.921875 24.546875 18.921875 C24.359374 18.921875 24.265625 19.036457 24.265625 19.265625 L24.265625 21.140625 C24.265625 21.442710 24.151043 21.640625 23.921875 21.734375 C23.692707 21.828125 23.442710 21.875000 23.171875 21.875000 Z M24.546875 12.093750 C23.734371 12.093750 23.039065 11.807295 22.460938 11.234375 C21.882810 10.661455 21.593750 9.973962 21.593750 9.171875 C21.593750 8.359371 21.882810 7.669274 22.460938 7.101562 C23.039065 6.533851 23.734371 6.250000 24.546875 6.250000 C25.348962 6.250000 26.036455 6.533851 26.609375 7.101562 C27.182295 7.669274 27.468750 8.359371 27.468750 9.171875 C27.468750 9.973962 27.182295 10.661455 26.609375 11.234375 C26.036455 11.807295 25.348962 12.093750 24.546875 12.093750 Z M35.000000 21.875000" /></svg>