<svg version="1.1" xmlns="http://www.w3.org/2000/svg" style="fill:rgba(0,0,0,1.0)" width="256" height="256" viewBox="0 0 39.921875 21.875"><path fill="rgb(255, 255, 255)" d="M25.187500 16.390625 C24.364579 16.390625 23.656253 16.299480 23.062500 16.117188 C22.468747 15.934895 22.010418 15.716147 21.687500 15.460938 C21.364582 15.205728 21.203125 14.968751 21.203125 14.750000 C21.203125 14.593749 21.276041 14.432292 21.421875 14.265625 C21.880211 13.776039 22.260415 13.177087 22.562500 12.468750 C22.864585 11.760413 23.015625 11.145836 23.015625 10.625000 C23.015625 10.281248 22.921876 10.109375 22.734375 10.109375 C22.598958 10.109375 22.489584 10.213541 22.406250 10.421875 C22.322916 10.630209 22.250000 10.874999 22.187500 11.156250 C22.125000 11.458335 22.013022 11.822915 21.851562 12.250000 C21.690103 12.677085 21.513022 13.091144 21.320312 13.492188 C21.127603 13.893231 20.942709 14.218749 20.765625 14.468750 C20.557291 14.770835 20.255210 14.921875 19.859375 14.921875 C19.619790 14.921875 19.403647 14.835938 19.210938 14.664062 C19.018228 14.492187 18.921875 14.276043 18.921875 14.015625 C18.921875 13.776040 18.973958 13.570313 19.078125 13.398438 C19.182292 13.226562 19.312499 13.046876 19.468750 12.859375 C19.656251 12.640624 19.867186 12.354168 20.101562 12.000000 C20.335939 11.645832 20.552082 11.161461 20.750000 10.546875 C21.281253 8.963534 21.851559 7.828128 22.460938 7.140625 C23.070316 6.453122 23.979161 6.109375 25.187500 6.109375 C26.395839 6.109375 27.304684 6.453122 27.914062 7.140625 C28.523441 7.828128 29.093747 8.963534 29.625000 10.546875 C29.833334 11.161461 30.052082 11.645832 30.281250 12.000000 C30.510418 12.354168 30.718749 12.640624 30.906250 12.859375 C31.062501 13.046876 31.192708 13.226562 31.296875 13.398438 C31.401042 13.570313 31.453125 13.776040 31.453125 14.015625 C31.453125 14.276043 31.356772 14.492187 31.164062 14.664062 C30.971353 14.835938 30.755210 14.921875 30.515625 14.921875 C30.338541 14.921875 30.171876 14.885417 30.015625 14.812500 C29.859374 14.739583 29.723959 14.625001 29.609375 14.468750 C29.442708 14.218749 29.260418 13.893231 29.062500 13.492188 C28.864582 13.091144 28.687501 12.677085 28.531250 12.250000 C28.374999 11.822915 28.260417 11.458335 28.187500 11.156250 C28.125000 10.874999 28.052084 10.630209 27.968750 10.421875 C27.885416 10.213541 27.776042 10.109375 27.640625 10.109375 C27.453124 10.109375 27.359375 10.281248 27.359375 10.625000 C27.359375 11.145836 27.513019 11.760413 27.820312 12.468750 C28.127606 13.177087 28.505206 13.776039 28.953125 14.265625 C29.098959 14.432292 29.171875 14.593749 29.171875 14.750000 C29.171875 14.968751 29.010418 15.205728 28.687500 15.460938 C28.364582 15.716147 27.906253 15.934895 27.312500 16.117188 C26.718747 16.299480 26.010421 16.390625 25.187500 16.390625 Z M23.625000 21.875000 C23.354165 21.875000 23.085939 21.830730 22.820312 21.742188 C22.554686 21.653645 22.421875 21.520834 22.421875 21.343750 C22.421875 21.218749 22.471354 21.070313 22.570312 20.898438 C22.669271 20.726562 22.895832 20.463543 23.250000 20.109375 L23.250000 15.750000 L27.125000 15.750000 L27.125000 20.109375 C27.489585 20.463543 27.718750 20.726562 27.812500 20.898438 C27.906250 21.070313 27.953125 21.218749 27.953125 21.343750 C27.953125 21.520834 27.820314 21.653645 27.554688 21.742188 C27.289061 21.830730 27.020835 21.875000 26.750000 21.875000 C26.458332 21.875000 26.184897 21.817709 25.929688 21.703125 C25.674478 21.588541 25.546875 21.348960 25.546875 20.984375 L25.546875 16.859375 C25.546875 16.588540 25.427085 16.453125 25.187500 16.453125 C24.947915 16.453125 24.828125 16.588540 24.828125 16.859375 L24.828125 20.984375 C24.828125 21.348960 24.700522 21.588541 24.445312 21.703125 C24.190103 21.817709 23.916668 21.875000 23.625000 21.875000 Z M25.187500 6.312500 C24.322912 6.312500 23.578128 6.005211 22.953125 5.390625 C22.328122 4.776039 22.015625 4.031254 22.015625 3.156250 C22.015625 2.281246 22.328122 1.536461 22.953125 0.921875 C23.578128 0.307289 24.322912 -0.000000 25.187500 -0.000000 C26.052088 -0.000000 26.796872 0.307289 27.421875 0.921875 C28.046878 1.536461 28.359375 2.281246 28.359375 3.156250 C28.359375 4.031254 28.046878 4.776039 27.421875 5.390625 C26.796872 6.005211 26.052088 6.312500 25.187500 6.312500 Z M33.593750 21.875000 C33.374999 21.875000 33.166668 21.838542 32.968750 21.765625 C32.770832 21.692708 32.671875 21.583334 32.671875 21.437500 C32.671875 21.333333 32.710937 21.205730 32.789062 21.054688 C32.867188 20.903645 33.026040 20.682293 33.265625 20.390625 L33.265625 18.578125 C33.265625 18.276040 33.190105 17.958335 33.039062 17.625000 C32.888020 17.291665 32.812500 16.885419 32.812500 16.406250 C32.812500 16.291666 32.822917 16.098960 32.843750 15.828125 C32.864583 15.557290 32.885417 15.276043 32.906250 14.984375 C32.927083 14.692707 32.937500 14.468751 32.937500 14.312500 C32.937500 14.135416 32.875001 14.046875 32.750000 14.046875 C32.666666 14.046875 32.546876 14.109374 32.390625 14.234375 C32.098957 14.473960 31.799481 14.653645 31.492188 14.773438 C31.184894 14.893230 30.885418 14.953125 30.593750 14.953125 C30.177081 14.953125 29.848960 14.786460 29.609375 14.453125 L30.546875 13.437500 C30.838543 13.437500 31.101561 13.382813 31.335938 13.273438 C31.570314 13.164062 31.869790 12.932293 32.234375 12.578125 C32.598960 12.223957 33.026039 11.973959 33.515625 11.828125 C34.005211 11.682291 34.489581 11.609375 34.968750 11.609375 C36.312507 11.609375 37.356767 12.028642 38.101562 12.867188 C38.846358 13.705733 39.218750 14.812493 39.218750 16.187500 C39.218750 16.447918 39.151042 16.643229 39.015625 16.773438 C38.880208 16.903646 38.718751 16.968750 38.531250 16.968750 C38.302082 16.968750 38.111980 16.890626 37.960938 16.734375 C37.809895 16.578124 37.734375 16.286460 37.734375 15.859375 C37.734375 15.661457 37.710938 15.421876 37.664062 15.140625 C37.617187 14.859374 37.552084 14.606772 37.468750 14.382812 C37.385416 14.158853 37.281251 14.046875 37.156250 14.046875 C37.052083 14.046875 37.000000 14.151041 37.000000 14.359375 C37.000000 14.588543 37.020833 14.945310 37.062500 15.429688 C37.104167 15.914065 37.125000 16.239582 37.125000 16.406250 C37.125000 16.885419 37.049480 17.291665 36.898438 17.625000 C36.747395 17.958335 36.671875 18.276040 36.671875 18.578125 L36.671875 20.390625 C36.911460 20.682293 37.070312 20.903645 37.148438 21.054688 C37.226563 21.205730 37.265625 21.333333 37.265625 21.437500 C37.265625 21.583334 37.166668 21.692708 36.968750 21.765625 C36.770832 21.838542 36.562501 21.875000 36.343750 21.875000 C36.083332 21.875000 35.835939 21.828125 35.601562 21.734375 C35.367186 21.640625 35.250000 21.442710 35.250000 21.140625 L35.250000 18.578125 C35.250000 18.348957 35.156251 18.234375 34.968750 18.234375 C34.781249 18.234375 34.687500 18.348957 34.687500 18.578125 L34.687500 21.140625 C34.687500 21.442710 34.572918 21.640625 34.343750 21.734375 C34.114582 21.828125 33.864585 21.875000 33.593750 21.875000 Z M34.968750 12.093750 C34.156246 12.093750 33.460940 11.807295 32.882812 11.234375 C32.304685 10.661455 32.015625 9.973962 32.015625 9.171875 C32.015625 8.359371 32.304685 7.669274 32.882812 7.101562 C33.460940 6.533851 34.156246 6.250000 34.968750 6.250000 C35.770837 6.250000 36.458330 6.533851 37.031250 7.101562 C37.604170 7.669274 37.890625 8.359371 37.890625 9.171875 C37.890625 9.973962 37.604170 10.661455 37.031250 11.234375 C36.458330 11.807295 35.770837 12.093750 34.968750 12.093750 Z M12.718750 21.875000 C12.395832 21.875000 12.096356 21.820313 11.820312 21.710938 C11.544269 21.601562 11.406250 21.432293 11.406250 21.203125 C11.406250 21.046874 11.460937 20.856772 11.570312 20.632812 C11.679688 20.408853 11.901040 20.072919 12.234375 19.625000 L12.234375 16.843750 C12.234375 16.385414 12.130209 15.906252 11.921875 15.406250 C11.713541 14.906248 11.609375 14.286462 11.609375 13.546875 C11.609375 13.088539 11.651041 12.653648 11.734375 12.242188 C11.817709 11.830727 11.859375 11.479168 11.859375 11.187500 C11.859375 10.833332 11.776042 10.656250 11.609375 10.656250 C11.421874 10.656250 11.239584 10.812498 11.062500 11.125000 C10.885416 11.437502 10.739584 11.802081 10.625000 12.218750 C10.510416 12.635419 10.453125 12.994790 10.453125 13.296875 C10.453125 13.901045 10.348959 14.322915 10.140625 14.562500 C9.932291 14.802085 9.661460 14.921875 9.328125 14.921875 C8.671872 14.921875 8.343750 14.557295 8.343750 13.828125 C8.343750 12.567702 8.627601 11.388026 9.195312 10.289062 C9.763024 9.190099 10.523433 8.296878 11.476562 7.609375 C12.429692 6.921872 13.473953 6.578125 14.609375 6.578125 C15.755214 6.578125 16.802079 6.921872 17.750000 7.609375 C18.697921 8.296878 19.455726 9.190099 20.023438 10.289062 C20.591149 11.388026 20.875000 12.567702 20.875000 13.828125 C20.875000 14.557295 20.546878 14.921875 19.890625 14.921875 C19.557290 14.921875 19.286459 14.802085 19.078125 14.562500 C18.869791 14.322915 18.765625 13.901045 18.765625 13.296875 C18.765625 12.994790 18.708334 12.635419 18.593750 12.218750 C18.479166 11.802081 18.333334 11.437502 18.156250 11.125000 C17.979166 10.812498 17.796876 10.656250 17.609375 10.656250 C17.442708 10.656250 17.359375 10.833332 17.359375 11.187500 C17.359375 11.479168 17.401041 11.830727 17.484375 12.242188 C17.567709 12.653648 17.609375 13.088539 17.609375 13.546875 C17.609375 14.286462 17.505209 14.906248 17.296875 15.406250 C17.088541 15.906252 16.984375 16.385414 16.984375 16.843750 L16.984375 19.625000 C17.317710 20.072919 17.539062 20.408853 17.648438 20.632812 C17.757813 20.856772 17.812500 21.046874 17.812500 21.203125 C17.812500 21.432293 17.674481 21.601562 17.398438 21.710938 C17.122394 21.820313 16.822918 21.875000 16.500000 21.875000 C16.135415 21.875000 15.789064 21.802084 15.460938 21.656250 C15.132811 21.510416 14.968750 21.208336 14.968750 20.750000 L14.968750 16.859375 C14.968750 16.526040 14.848960 16.359375 14.609375 16.359375 C14.369790 16.359375 14.250000 16.526040 14.250000 16.859375 L14.250000 20.750000 C14.250000 21.208336 14.085939 21.510416 13.757812 21.656250 C13.429686 21.802084 13.083335 21.875000 12.718750 21.875000 Z M14.609375 6.953125 C13.651037 6.953125 12.828128 6.614587 12.140625 5.937500 C11.453122 5.260413 11.109375 4.437505 11.109375 3.468750 C11.109375 2.510412 11.453122 1.692712 12.140625 1.015625 C12.828128 0.338538 13.651037 -0.000000 14.609375 -0.000000 C15.567713 -0.000000 16.390622 0.338538 17.078125 1.015625 C17.765628 1.692712 18.109375 2.510412 18.109375 3.468750 C18.109375 4.437505 17.765628 5.260413 17.078125 5.937500 C16.390622 6.614587 15.567713 6.953125 14.609375 6.953125 Z M4.828125 18.812500 C3.817703 18.812500 3.020836 18.661460 2.437500 18.359375 C1.854164 18.057290 1.562500 17.781251 1.562500 17.531250 C1.562500 17.395833 1.619791 17.270834 1.734375 17.156250 C2.109377 16.781248 2.380208 16.315107 2.546875 15.757812 C2.713542 15.200518 2.796875 14.718752 2.796875 14.312500 C2.796875 14.135416 2.750000 14.046875 2.656250 14.046875 C2.604166 14.046875 2.559896 14.093750 2.523438 14.187500 C2.486979 14.281250 2.442709 14.421874 2.390625 14.609375 C2.255208 15.161461 2.119792 15.583332 1.984375 15.875000 C1.848958 16.166668 1.671876 16.468748 1.453125 16.781250 C1.213540 17.114585 0.958335 17.281250 0.687500 17.281250 C0.520832 17.281250 0.364584 17.221355 0.218750 17.101562 C0.072916 16.981770 0.000000 16.828126 0.000000 16.640625 C0.000000 16.494791 0.036458 16.364584 0.109375 16.250000 C0.182292 16.135416 0.270833 16.010417 0.375000 15.875000 C0.489584 15.729166 0.622395 15.533855 0.773438 15.289062 C0.924480 15.044270 1.067708 14.718752 1.203125 14.312500 C1.588544 13.197911 2.062497 12.468752 2.625000 12.125000 C3.187503 11.781248 3.921870 11.609375 4.828125 11.609375 C5.317711 11.609375 5.804685 11.682291 6.289062 11.828125 C6.773440 11.973959 7.197915 12.223957 7.562500 12.578125 C7.927085 12.932293 8.226561 13.164062 8.460938 13.273438 C8.695314 13.382813 8.958332 13.437500 9.250000 13.437500 L10.187500 14.453125 C9.947915 14.786460 9.619794 14.953125 9.203125 14.953125 C8.588539 14.953125 7.989586 14.713544 7.406250 14.234375 C7.249999 14.109374 7.130209 14.046875 7.046875 14.046875 C6.921874 14.046875 6.859375 14.135416 6.859375 14.312500 C6.859375 14.718752 6.968749 15.200518 7.187500 15.757812 C7.406251 16.315107 7.703123 16.781248 8.078125 17.156250 C8.192709 17.270834 8.250000 17.395833 8.250000 17.531250 C8.250000 17.781251 7.950524 18.057290 7.351562 18.359375 C6.752601 18.661460 5.911464 18.812500 4.828125 18.812500 Z M3.453125 21.875000 C3.234374 21.875000 3.026043 21.838542 2.828125 21.765625 C2.630207 21.692708 2.531250 21.583334 2.531250 21.437500 C2.531250 21.333333 2.570312 21.205730 2.648438 21.054688 C2.726563 20.903645 2.885415 20.682293 3.125000 20.390625 L3.125000 18.343750 L6.531250 18.343750 L6.531250 20.390625 C6.770835 20.682293 6.929687 20.903645 7.007812 21.054688 C7.085938 21.205730 7.125000 21.333333 7.125000 21.437500 C7.125000 21.583334 7.026043 21.692708 6.828125 21.765625 C6.630207 21.838542 6.421876 21.875000 6.203125 21.875000 C5.942707 21.875000 5.695314 21.828125 5.460938 21.734375 C5.226561 21.640625 5.109375 21.442710 5.109375 21.140625 L5.109375 19.265625 C5.109375 19.036457 5.015626 18.921875 4.828125 18.921875 C4.640624 18.921875 4.546875 19.036457 4.546875 19.265625 L4.546875 21.140625 C4.546875 21.442710 4.432293 21.640625 4.203125 21.734375 C3.973957 21.828125 3.723960 21.875000 3.453125 21.875000 Z M4.828125 12.093750 C4.036454 12.093750 3.351565 11.807295 2.773438 11.234375 C2.195310 10.661455 1.906250 9.973962 1.906250 9.171875 C1.906250 8.359371 2.195310 7.669274 2.773438 7.101562 C3.351565 6.533851 4.036454 6.250000 4.828125 6.250000 C5.640629 6.250000 6.335935 6.533851 6.914062 7.101562 C7.492190 7.669274 7.781250 8.359371 7.781250 9.171875 C7.781250 9.973962 7.492190 10.661455 6.914062 11.234375 C6.335935 11.807295 5.640629 12.093750 4.828125 12.093750 Z M39.921875 21.875000" /></svg>