<svg version="1.1" xmlns="http://www.w3.org/2000/svg" style="fill:rgba(0,0,0,1.0)" width="256" height="256" viewBox="0 0 26.578125 21.875"><path fill="rgb(255, 255, 255)" d="M4.375000 21.875000 C4.052082 21.875000 3.752606 21.820313 3.476562 21.710938 C3.200519 21.601562 3.062500 21.432293 3.062500 21.203125 C3.062500 21.046874 3.117187 20.856772 3.226562 20.632812 C3.335938 20.408853 3.557290 20.072919 3.890625 19.625000 L3.890625 16.843750 C3.890625 16.385414 3.786459 15.906252 3.578125 15.406250 C3.369791 14.906248 3.265625 14.286462 3.265625 13.546875 C3.265625 13.088539 3.307291 12.653648 3.390625 12.242188 C3.473959 11.830727 3.515625 11.479168 3.515625 11.187500 C3.515625 10.833332 3.432292 10.656250 3.265625 10.656250 C3.078124 10.656250 2.895834 10.812498 2.718750 11.125000 C2.541666 11.437502 2.395834 11.802081 2.281250 12.218750 C2.166666 12.635419 2.109375 12.994790 2.109375 13.296875 C2.109375 13.901045 2.005209 14.322915 1.796875 14.562500 C1.588541 14.802085 1.317710 14.921875 0.984375 14.921875 C0.328122 14.921875 0.000000 14.557295 0.000000 13.828125 C0.000000 12.567702 0.283851 11.385422 0.851562 10.281250 C1.419274 9.177078 2.179683 8.283858 3.132812 7.601562 C4.085942 6.919267 5.130203 6.578125 6.265625 6.578125 C7.442714 6.578125 8.539057 6.966142 9.554688 7.742188 C10.570318 8.518233 11.338539 9.614576 11.859375 11.031250 C12.026042 11.479169 12.195312 11.906248 12.367188 12.312500 C12.539063 12.718752 12.703124 12.989583 12.859375 13.125000 C13.161460 13.385418 13.312500 13.682290 13.312500 14.015625 C13.312500 14.255210 13.210939 14.468749 13.007812 14.656250 C12.804686 14.843751 12.541668 14.937500 12.218750 14.937500 C12.041666 14.937500 11.859376 14.901042 11.671875 14.828125 C11.484374 14.755208 11.317709 14.635417 11.171875 14.468750 C10.911457 14.166665 10.674480 13.755211 10.460938 13.234375 C10.247395 12.713539 10.067709 12.229169 9.921875 11.781250 C9.817708 11.468748 9.710938 11.203126 9.601562 10.984375 C9.492187 10.765624 9.380209 10.656250 9.265625 10.656250 C9.171875 10.656250 9.106771 10.697916 9.070312 10.781250 C9.033854 10.864584 9.015625 10.999999 9.015625 11.187500 C9.015625 11.479168 9.057291 11.830727 9.140625 12.242188 C9.223959 12.653648 9.265625 13.088539 9.265625 13.546875 C9.265625 14.286462 9.161459 14.906248 8.953125 15.406250 C8.744791 15.906252 8.640625 16.385414 8.640625 16.843750 L8.640625 19.625000 C8.973960 20.072919 9.195312 20.408853 9.304688 20.632812 C9.414063 20.856772 9.468750 21.046874 9.468750 21.203125 C9.468750 21.432293 9.330731 21.601562 9.054688 21.710938 C8.778644 21.820313 8.479168 21.875000 8.156250 21.875000 C7.791665 21.875000 7.445314 21.802084 7.117188 21.656250 C6.789061 21.510416 6.625000 21.208336 6.625000 20.750000 L6.625000 16.859375 C6.625000 16.526040 6.505210 16.359375 6.265625 16.359375 C6.026040 16.359375 5.906250 16.526040 5.906250 16.859375 L5.906250 20.750000 C5.906250 21.208336 5.742189 21.510416 5.414062 21.656250 C5.085936 21.802084 4.739585 21.875000 4.375000 21.875000 Z M6.265625 6.953125 C5.307287 6.953125 4.484378 6.614587 3.796875 5.937500 C3.109372 5.260413 2.765625 4.437505 2.765625 3.468750 C2.765625 2.510412 3.109372 1.692712 3.796875 1.015625 C4.484378 0.338538 5.307287 -0.000000 6.265625 -0.000000 C7.223963 -0.000000 8.046872 0.338538 8.734375 1.015625 C9.421878 1.692712 9.765625 2.510412 9.765625 3.468750 C9.765625 4.437505 9.421878 5.260413 8.734375 5.937500 C8.046872 6.614587 7.223963 6.953125 6.265625 6.953125 Z M26.578125 21.875000" /></svg>