<svg version="1.1" xmlns="http://www.w3.org/2000/svg" style="fill:rgba(0,0,0,1.0)" width="256" height="256" viewBox="0 0 30.46875 21.875"><path fill="rgb(255, 255, 255)" d="M6.265625 16.390625 C5.442704 16.390625 4.734378 16.299480 4.140625 16.117188 C3.546872 15.934895 3.088543 15.716147 2.765625 15.460938 C2.442707 15.205728 2.281250 14.968751 2.281250 14.750000 C2.281250 14.593749 2.354166 14.432292 2.500000 14.265625 C2.958336 13.776039 3.338540 13.177087 3.640625 12.468750 C3.942710 11.760413 4.093750 11.145836 4.093750 10.625000 C4.093750 10.281248 4.000001 10.109375 3.812500 10.109375 C3.677083 10.109375 3.567709 10.213541 3.484375 10.421875 C3.401041 10.630209 3.328125 10.874999 3.265625 11.156250 C3.203125 11.458335 3.091147 11.822915 2.929688 12.250000 C2.768228 12.677085 2.591147 13.091144 2.398438 13.492188 C2.205728 13.893231 2.020834 14.218749 1.843750 14.468750 C1.635416 14.770835 1.333335 14.921875 0.937500 14.921875 C0.697915 14.921875 0.481772 14.835938 0.289062 14.664062 C0.096353 14.492187 0.000000 14.276043 0.000000 14.015625 C0.000000 13.776040 0.052083 13.570313 0.156250 13.398438 C0.260417 13.226562 0.390624 13.046876 0.546875 12.859375 C0.734376 12.640624 0.945311 12.354168 1.179688 12.000000 C1.414064 11.645832 1.630207 11.161461 1.828125 10.546875 C2.359378 8.963534 2.929684 7.828128 3.539062 7.140625 C4.148441 6.453122 5.057286 6.109375 6.265625 6.109375 C7.473964 6.109375 8.382809 6.453122 8.992188 7.140625 C9.601566 7.828128 10.171872 8.963534 10.703125 10.546875 C10.911459 11.161461 11.130207 11.645832 11.359375 12.000000 C11.588543 12.354168 11.796874 12.640624 11.984375 12.859375 C12.140626 13.046876 12.270833 13.226562 12.375000 13.398438 C12.479167 13.570313 12.531250 13.776040 12.531250 14.015625 C12.531250 14.276043 12.434897 14.492187 12.242188 14.664062 C12.049478 14.835938 11.833335 14.921875 11.593750 14.921875 C11.416666 14.921875 11.250001 14.885417 11.093750 14.812500 C10.937499 14.739583 10.802084 14.625001 10.687500 14.468750 C10.520833 14.218749 10.338543 13.893231 10.140625 13.492188 C9.942707 13.091144 9.765626 12.677085 9.609375 12.250000 C9.453124 11.822915 9.338542 11.458335 9.265625 11.156250 C9.203125 10.874999 9.130209 10.630209 9.046875 10.421875 C8.963541 10.213541 8.854167 10.109375 8.718750 10.109375 C8.531249 10.109375 8.437500 10.281248 8.437500 10.625000 C8.437500 11.145836 8.591144 11.760413 8.898438 12.468750 C9.205731 13.177087 9.583331 13.776039 10.031250 14.265625 C10.177084 14.432292 10.250000 14.593749 10.250000 14.750000 C10.250000 14.968751 10.088543 15.205728 9.765625 15.460938 C9.442707 15.716147 8.984378 15.934895 8.390625 16.117188 C7.796872 16.299480 7.088546 16.390625 6.265625 16.390625 Z M4.703125 21.875000 C4.432290 21.875000 4.164064 21.830730 3.898438 21.742188 C3.632811 21.653645 3.500000 21.520834 3.500000 21.343750 C3.500000 21.218749 3.549479 21.070313 3.648438 20.898438 C3.747396 20.726562 3.973957 20.463543 4.328125 20.109375 L4.328125 15.750000 L8.203125 15.750000 L8.203125 20.109375 C8.567710 20.463543 8.796875 20.726562 8.890625 20.898438 C8.984375 21.070313 9.031250 21.218749 9.031250 21.343750 C9.031250 21.520834 8.898439 21.653645 8.632812 21.742188 C8.367186 21.830730 8.098960 21.875000 7.828125 21.875000 C7.536457 21.875000 7.263022 21.817709 7.007812 21.703125 C6.752603 21.588541 6.625000 21.348960 6.625000 20.984375 L6.625000 16.859375 C6.625000 16.588540 6.505210 16.453125 6.265625 16.453125 C6.026040 16.453125 5.906250 16.588540 5.906250 16.859375 L5.906250 20.984375 C5.906250 21.348960 5.778647 21.588541 5.523438 21.703125 C5.268228 21.817709 4.994793 21.875000 4.703125 21.875000 Z M6.265625 6.312500 C5.401037 6.312500 4.656253 6.005211 4.031250 5.390625 C3.406247 4.776039 3.093750 4.031254 3.093750 3.156250 C3.093750 2.281246 3.406247 1.536461 4.031250 0.921875 C4.656253 0.307289 5.401037 -0.000000 6.265625 -0.000000 C7.130213 -0.000000 7.874997 0.307289 8.500000 0.921875 C9.125003 1.536461 9.437500 2.281246 9.437500 3.156250 C9.437500 4.031254 9.125003 4.776039 8.500000 5.390625 C7.874997 6.005211 7.130213 6.312500 6.265625 6.312500 Z M14.687500 21.875000 C14.468749 21.875000 14.260418 21.838542 14.062500 21.765625 C13.864582 21.692708 13.765625 21.583334 13.765625 21.437500 C13.765625 21.333333 13.804687 21.205730 13.882812 21.054688 C13.960938 20.903645 14.119790 20.682293 14.359375 20.390625 L14.359375 18.578125 C14.359375 18.276040 14.283855 17.958335 14.132812 17.625000 C13.981770 17.291665 13.906250 16.885419 13.906250 16.406250 C13.906250 16.291666 13.916667 16.098960 13.937500 15.828125 C13.958333 15.557290 13.979167 15.276043 14.000000 14.984375 C14.020833 14.692707 14.031250 14.468751 14.031250 14.312500 C14.031250 14.135416 13.968751 14.046875 13.843750 14.046875 C13.760416 14.046875 13.640626 14.109374 13.484375 14.234375 C13.192707 14.473960 12.893231 14.653645 12.585938 14.773438 C12.278644 14.893230 11.979168 14.953125 11.687500 14.953125 C11.270831 14.953125 10.942710 14.786460 10.703125 14.453125 L11.640625 13.437500 C11.932293 13.437500 12.195311 13.382813 12.429688 13.273438 C12.664064 13.164062 12.963540 12.932293 13.328125 12.578125 C13.692710 12.223957 14.119789 11.973959 14.609375 11.828125 C15.098961 11.682291 15.583331 11.609375 16.062500 11.609375 C17.406257 11.609375 18.450517 12.028642 19.195312 12.867188 C19.940108 13.705733 20.312500 14.812493 20.312500 16.187500 C20.312500 16.447918 20.244792 16.643229 20.109375 16.773438 C19.973958 16.903646 19.812501 16.968750 19.625000 16.968750 C19.395832 16.968750 19.205730 16.890626 19.054688 16.734375 C18.903645 16.578124 18.828125 16.286460 18.828125 15.859375 C18.828125 15.661457 18.804688 15.421876 18.757812 15.140625 C18.710937 14.859374 18.645834 14.606772 18.562500 14.382812 C18.479166 14.158853 18.375001 14.046875 18.250000 14.046875 C18.145833 14.046875 18.093750 14.151041 18.093750 14.359375 C18.093750 14.588543 18.114583 14.945310 18.156250 15.429688 C18.197917 15.914065 18.218750 16.239582 18.218750 16.406250 C18.218750 16.885419 18.143230 17.291665 17.992188 17.625000 C17.841145 17.958335 17.765625 18.276040 17.765625 18.578125 L17.765625 20.390625 C18.005210 20.682293 18.164062 20.903645 18.242188 21.054688 C18.320313 21.205730 18.359375 21.333333 18.359375 21.437500 C18.359375 21.583334 18.260418 21.692708 18.062500 21.765625 C17.864582 21.838542 17.656251 21.875000 17.437500 21.875000 C17.177082 21.875000 16.929689 21.828125 16.695312 21.734375 C16.460936 21.640625 16.343750 21.442710 16.343750 21.140625 L16.343750 18.578125 C16.343750 18.348957 16.250001 18.234375 16.062500 18.234375 C15.874999 18.234375 15.781250 18.348957 15.781250 18.578125 L15.781250 21.140625 C15.781250 21.442710 15.666668 21.640625 15.437500 21.734375 C15.208332 21.828125 14.958335 21.875000 14.687500 21.875000 Z M16.062500 12.093750 C15.249996 12.093750 14.554690 11.807295 13.976562 11.234375 C13.398435 10.661455 13.109375 9.973962 13.109375 9.171875 C13.109375 8.359371 13.398435 7.669274 13.976562 7.101562 C14.554690 6.533851 15.249996 6.250000 16.062500 6.250000 C16.864587 6.250000 17.552080 6.533851 18.125000 7.101562 C18.697920 7.669274 18.984375 8.359371 18.984375 9.171875 C18.984375 9.973962 18.697920 10.661455 18.125000 11.234375 C17.552080 11.807295 16.864587 12.093750 16.062500 12.093750 Z M30.468750 21.875000" /></svg>