<svg version="1.1" xmlns="http://www.w3.org/2000/svg" style="fill:rgba(0,0,0,1.0)" width="256" height="256" viewBox="0 0 25.703125 15.625"><path fill="rgb(255, 255, 255)" d="M3.984375 15.625000 C3.765624 15.625000 3.557293 15.588542 3.359375 15.515625 C3.161457 15.442708 3.062500 15.333334 3.062500 15.187500 C3.062500 15.083333 3.101562 14.955730 3.179688 14.804688 C3.257813 14.653645 3.416665 14.432293 3.656250 14.140625 L3.656250 12.328125 C3.656250 12.026040 3.580730 11.708335 3.429688 11.375000 C3.278645 11.041665 3.203125 10.635419 3.203125 10.156250 C3.203125 10.041666 3.213542 9.848960 3.234375 9.578125 C3.255208 9.307290 3.276042 9.026043 3.296875 8.734375 C3.317708 8.442707 3.328125 8.218751 3.328125 8.062500 C3.328125 7.885416 3.265626 7.796875 3.140625 7.796875 C3.057291 7.796875 2.937501 7.859374 2.781250 7.984375 C2.489582 8.223960 2.190106 8.403645 1.882812 8.523438 C1.575519 8.643230 1.276043 8.703125 0.984375 8.703125 C0.567706 8.703125 0.239585 8.536460 0.000000 8.203125 L0.937500 7.187500 C1.229168 7.187500 1.492186 7.132813 1.726562 7.023438 C1.960939 6.914062 2.260415 6.682293 2.625000 6.328125 C2.989585 5.973957 3.416664 5.723959 3.906250 5.578125 C4.395836 5.432291 4.880206 5.359375 5.359375 5.359375 C6.703132 5.359375 7.747392 5.778642 8.492188 6.617188 C9.236983 7.455733 9.609375 8.562493 9.609375 9.937500 C9.609375 10.197918 9.541667 10.393229 9.406250 10.523438 C9.270833 10.653646 9.109376 10.718750 8.921875 10.718750 C8.692707 10.718750 8.502605 10.640626 8.351562 10.484375 C8.200520 10.328124 8.125000 10.036460 8.125000 9.609375 C8.125000 9.411457 8.101563 9.171876 8.054688 8.890625 C8.007812 8.609374 7.942709 8.356772 7.859375 8.132812 C7.776041 7.908853 7.671876 7.796875 7.546875 7.796875 C7.442708 7.796875 7.390625 7.901041 7.390625 8.109375 C7.390625 8.338543 7.411458 8.695310 7.453125 9.179688 C7.494792 9.664065 7.515625 9.989583 7.515625 10.156250 C7.515625 10.635419 7.440105 11.041665 7.289062 11.375000 C7.138020 11.708335 7.062500 12.026040 7.062500 12.328125 L7.062500 14.140625 C7.302085 14.432293 7.460937 14.653645 7.539062 14.804688 C7.617188 14.955730 7.656250 15.083333 7.656250 15.187500 C7.656250 15.333334 7.557293 15.442708 7.359375 15.515625 C7.161457 15.588542 6.953126 15.625000 6.734375 15.625000 C6.473957 15.625000 6.226564 15.578125 5.992188 15.484375 C5.757811 15.390625 5.640625 15.192710 5.640625 14.890625 L5.640625 12.328125 C5.640625 12.098957 5.546876 11.984375 5.359375 11.984375 C5.171874 11.984375 5.078125 12.098957 5.078125 12.328125 L5.078125 14.890625 C5.078125 15.192710 4.963543 15.390625 4.734375 15.484375 C4.505207 15.578125 4.255210 15.625000 3.984375 15.625000 Z M5.359375 5.843750 C4.546871 5.843750 3.851565 5.557295 3.273438 4.984375 C2.695310 4.411455 2.406250 3.723962 2.406250 2.921875 C2.406250 2.109371 2.695310 1.419274 3.273438 0.851562 C3.851565 0.283851 4.546871 -0.000000 5.359375 -0.000000 C6.161462 -0.000000 6.848955 0.283851 7.421875 0.851562 C7.994795 1.419274 8.281250 2.109371 8.281250 2.921875 C8.281250 3.723962 7.994795 4.411455 7.421875 4.984375 C6.848955 5.557295 6.161462 5.843750 5.359375 5.843750 Z M25.703125 15.625000" /></svg>