<svg version="1.1" xmlns="http://www.w3.org/2000/svg" style="fill:rgba(0,0,0,1.0)" width="256" height="256" viewBox="0 0 40.546875 21.875"><path fill="rgb(255, 255, 255)" d="M23.937500 21.875000 C23.614582 21.875000 23.315106 21.820313 23.039062 21.710938 C22.763019 21.601562 22.625000 21.432293 22.625000 21.203125 C22.625000 21.046874 22.679687 20.856772 22.789062 20.632812 C22.898438 20.408853 23.119790 20.072919 23.453125 19.625000 L23.453125 16.843750 C23.453125 16.385414 23.348959 15.906252 23.140625 15.406250 C22.932291 14.906248 22.828125 14.286462 22.828125 13.546875 C22.828125 13.088539 22.869791 12.653648 22.953125 12.242188 C23.036459 11.830727 23.078125 11.479168 23.078125 11.187500 C23.078125 10.833332 22.994792 10.656250 22.828125 10.656250 C22.640624 10.656250 22.458334 10.812498 22.281250 11.125000 C22.104166 11.437502 21.958334 11.802081 21.843750 12.218750 C21.729166 12.635419 21.671875 12.994790 21.671875 13.296875 C21.671875 13.901045 21.567709 14.322915 21.359375 14.562500 C21.151041 14.802085 20.880210 14.921875 20.546875 14.921875 C19.890622 14.921875 19.562500 14.557295 19.562500 13.828125 C19.562500 12.567702 19.846351 11.388026 20.414062 10.289062 C20.981774 9.190099 21.742183 8.296878 22.695312 7.609375 C23.648442 6.921872 24.692703 6.578125 25.828125 6.578125 C26.973964 6.578125 28.020829 6.921872 28.968750 7.609375 C29.916671 8.296878 30.674476 9.190099 31.242188 10.289062 C31.809899 11.388026 32.093750 12.567702 32.093750 13.828125 C32.093750 14.557295 31.765628 14.921875 31.109375 14.921875 C30.776040 14.921875 30.505209 14.802085 30.296875 14.562500 C30.088541 14.322915 29.984375 13.901045 29.984375 13.296875 C29.984375 12.994790 29.927084 12.635419 29.812500 12.218750 C29.697916 11.802081 29.552084 11.437502 29.375000 11.125000 C29.197916 10.812498 29.015626 10.656250 28.828125 10.656250 C28.661458 10.656250 28.578125 10.833332 28.578125 11.187500 C28.578125 11.479168 28.619791 11.830727 28.703125 12.242188 C28.786459 12.653648 28.828125 13.088539 28.828125 13.546875 C28.828125 14.286462 28.723959 14.906248 28.515625 15.406250 C28.307291 15.906252 28.203125 16.385414 28.203125 16.843750 L28.203125 19.625000 C28.536460 20.072919 28.757812 20.408853 28.867188 20.632812 C28.976563 20.856772 29.031250 21.046874 29.031250 21.203125 C29.031250 21.432293 28.893231 21.601562 28.617188 21.710938 C28.341144 21.820313 28.041668 21.875000 27.718750 21.875000 C27.354165 21.875000 27.007814 21.802084 26.679688 21.656250 C26.351561 21.510416 26.187500 21.208336 26.187500 20.750000 L26.187500 16.859375 C26.187500 16.526040 26.067710 16.359375 25.828125 16.359375 C25.588540 16.359375 25.468750 16.526040 25.468750 16.859375 L25.468750 20.750000 C25.468750 21.208336 25.304689 21.510416 24.976562 21.656250 C24.648436 21.802084 24.302085 21.875000 23.937500 21.875000 Z M25.828125 6.953125 C24.869787 6.953125 24.046878 6.614587 23.359375 5.937500 C22.671872 5.260413 22.328125 4.437505 22.328125 3.468750 C22.328125 2.510412 22.671872 1.692712 23.359375 1.015625 C24.046878 0.338538 24.869787 -0.000000 25.828125 -0.000000 C26.786463 -0.000000 27.609372 0.338538 28.296875 1.015625 C28.984378 1.692712 29.328125 2.510412 29.328125 3.468750 C29.328125 4.437505 28.984378 5.260413 28.296875 5.937500 C27.609372 6.614587 26.786463 6.953125 25.828125 6.953125 Z M12.734375 21.875000 C12.411457 21.875000 12.111981 21.820313 11.835938 21.710938 C11.559894 21.601562 11.421875 21.432293 11.421875 21.203125 C11.421875 21.046874 11.476562 20.856772 11.585938 20.632812 C11.695313 20.408853 11.916665 20.072919 12.250000 19.625000 L12.250000 16.843750 C12.250000 16.385414 12.145834 15.906252 11.937500 15.406250 C11.729166 14.906248 11.625000 14.286462 11.625000 13.546875 C11.625000 13.088539 11.666666 12.653648 11.750000 12.242188 C11.833334 11.830727 11.875000 11.479168 11.875000 11.187500 C11.875000 10.833332 11.791667 10.656250 11.625000 10.656250 C11.437499 10.656250 11.255209 10.812498 11.078125 11.125000 C10.901041 11.437502 10.755209 11.802081 10.640625 12.218750 C10.526041 12.635419 10.468750 12.994790 10.468750 13.296875 C10.468750 13.901045 10.364584 14.322915 10.156250 14.562500 C9.947916 14.802085 9.677085 14.921875 9.343750 14.921875 C8.687497 14.921875 8.359375 14.557295 8.359375 13.828125 C8.359375 12.567702 8.643226 11.385422 9.210938 10.281250 C9.778649 9.177078 10.539058 8.283858 11.492188 7.601562 C12.445317 6.919267 13.489578 6.578125 14.625000 6.578125 C15.802089 6.578125 16.898432 6.966142 17.914062 7.742188 C18.929693 8.518233 19.697914 9.614576 20.218750 11.031250 C20.385418 11.479169 20.554687 11.906248 20.726562 12.312500 C20.898438 12.718752 21.062499 12.989583 21.218750 13.125000 C21.520835 13.385418 21.671875 13.682290 21.671875 14.015625 C21.671875 14.255210 21.570314 14.468749 21.367188 14.656250 C21.164061 14.843751 20.901043 14.937500 20.578125 14.937500 C20.401041 14.937500 20.218751 14.901042 20.031250 14.828125 C19.843749 14.755208 19.677084 14.635417 19.531250 14.468750 C19.270832 14.166665 19.033855 13.755211 18.820312 13.234375 C18.606770 12.713539 18.427084 12.229169 18.281250 11.781250 C18.177083 11.468748 18.070313 11.203126 17.960938 10.984375 C17.851562 10.765624 17.739584 10.656250 17.625000 10.656250 C17.531250 10.656250 17.466146 10.697916 17.429688 10.781250 C17.393229 10.864584 17.375000 10.999999 17.375000 11.187500 C17.375000 11.479168 17.416666 11.830727 17.500000 12.242188 C17.583334 12.653648 17.625000 13.088539 17.625000 13.546875 C17.625000 14.286462 17.520834 14.906248 17.312500 15.406250 C17.104166 15.906252 17.000000 16.385414 17.000000 16.843750 L17.000000 19.625000 C17.333335 20.072919 17.554687 20.408853 17.664062 20.632812 C17.773438 20.856772 17.828125 21.046874 17.828125 21.203125 C17.828125 21.432293 17.690106 21.601562 17.414062 21.710938 C17.138019 21.820313 16.838543 21.875000 16.515625 21.875000 C16.151040 21.875000 15.804689 21.802084 15.476562 21.656250 C15.148436 21.510416 14.984375 21.208336 14.984375 20.750000 L14.984375 16.859375 C14.984375 16.526040 14.864585 16.359375 14.625000 16.359375 C14.385415 16.359375 14.265625 16.526040 14.265625 16.859375 L14.265625 20.750000 C14.265625 21.208336 14.101564 21.510416 13.773438 21.656250 C13.445311 21.802084 13.098960 21.875000 12.734375 21.875000 Z M14.625000 6.953125 C13.666662 6.953125 12.843753 6.614587 12.156250 5.937500 C11.468747 5.260413 11.125000 4.437505 11.125000 3.468750 C11.125000 2.510412 11.468747 1.692712 12.156250 1.015625 C12.843753 0.338538 13.666662 -0.000000 14.625000 -0.000000 C15.583338 -0.000000 16.406247 0.338538 17.093750 1.015625 C17.781253 1.692712 18.125000 2.510412 18.125000 3.468750 C18.125000 4.437505 17.781253 5.260413 17.093750 5.937500 C16.406247 6.614587 15.583338 6.953125 14.625000 6.953125 Z M35.640625 18.812500 C34.557286 18.812500 33.716149 18.661460 33.117188 18.359375 C32.518226 18.057290 32.218750 17.781251 32.218750 17.531250 C32.218750 17.395833 32.276041 17.270834 32.390625 17.156250 C32.765627 16.781248 33.062499 16.315107 33.281250 15.757812 C33.500001 15.200518 33.609375 14.718752 33.609375 14.312500 C33.609375 14.135416 33.546876 14.046875 33.421875 14.046875 C33.338541 14.046875 33.218751 14.109374 33.062500 14.234375 C32.479164 14.713544 31.880211 14.953125 31.265625 14.953125 C30.848956 14.953125 30.520835 14.786460 30.281250 14.453125 L31.218750 13.437500 C31.510418 13.437500 31.773436 13.382813 32.007812 13.273438 C32.242189 13.164062 32.541665 12.932293 32.906250 12.578125 C33.270835 12.223957 33.697914 11.973959 34.187500 11.828125 C34.677086 11.682291 35.161456 11.609375 35.640625 11.609375 C36.546880 11.609375 37.281247 11.781248 37.843750 12.125000 C38.406253 12.468752 38.880206 13.197911 39.265625 14.312500 C39.411459 14.718752 39.557291 15.044270 39.703125 15.289062 C39.848959 15.533855 39.979166 15.729166 40.093750 15.875000 C40.208334 16.010417 40.299479 16.135416 40.367188 16.250000 C40.434896 16.364584 40.468750 16.494791 40.468750 16.640625 C40.468750 16.828126 40.398438 16.981770 40.257812 17.101562 C40.117187 17.221355 39.958334 17.281250 39.781250 17.281250 C39.510415 17.281250 39.255210 17.114585 39.015625 16.781250 C38.796874 16.468748 38.622396 16.166668 38.492188 15.875000 C38.361979 15.583332 38.223959 15.161461 38.078125 14.609375 C38.036458 14.421874 37.994792 14.281250 37.953125 14.187500 C37.911458 14.093750 37.864584 14.046875 37.812500 14.046875 C37.718750 14.046875 37.671875 14.135416 37.671875 14.312500 C37.671875 14.718752 37.755208 15.200518 37.921875 15.757812 C38.088542 16.315107 38.359373 16.781248 38.734375 17.156250 C38.848959 17.270834 38.906250 17.395833 38.906250 17.531250 C38.906250 17.781251 38.614586 18.057290 38.031250 18.359375 C37.447914 18.661460 36.651047 18.812500 35.640625 18.812500 Z M34.265625 21.875000 C34.046874 21.875000 33.838543 21.838542 33.640625 21.765625 C33.442707 21.692708 33.343750 21.583334 33.343750 21.437500 C33.343750 21.333333 33.382812 21.205730 33.460938 21.054688 C33.539063 20.903645 33.697915 20.682293 33.937500 20.390625 L33.937500 18.343750 L37.343750 18.343750 L37.343750 20.390625 C37.583335 20.682293 37.742187 20.903645 37.820312 21.054688 C37.898438 21.205730 37.937500 21.333333 37.937500 21.437500 C37.937500 21.583334 37.838543 21.692708 37.640625 21.765625 C37.442707 21.838542 37.234376 21.875000 37.015625 21.875000 C36.755207 21.875000 36.507814 21.828125 36.273438 21.734375 C36.039061 21.640625 35.921875 21.442710 35.921875 21.140625 L35.921875 19.265625 C35.921875 19.036457 35.828126 18.921875 35.640625 18.921875 C35.453124 18.921875 35.359375 19.036457 35.359375 19.265625 L35.359375 21.140625 C35.359375 21.442710 35.244793 21.640625 35.015625 21.734375 C34.786457 21.828125 34.536460 21.875000 34.265625 21.875000 Z M35.640625 12.093750 C34.828121 12.093750 34.132815 11.807295 33.554688 11.234375 C32.976560 10.661455 32.687500 9.973962 32.687500 9.171875 C32.687500 8.359371 32.976560 7.669274 33.554688 7.101562 C34.132815 6.533851 34.828121 6.250000 35.640625 6.250000 C36.442712 6.250000 37.130205 6.533851 37.703125 7.101562 C38.276045 7.669274 38.562500 8.359371 38.562500 9.171875 C38.562500 9.973962 38.276045 10.661455 37.703125 11.234375 C37.130205 11.807295 36.442712 12.093750 35.640625 12.093750 Z M4.828125 18.812500 C3.817703 18.812500 3.020836 18.661460 2.437500 18.359375 C1.854164 18.057290 1.562500 17.781251 1.562500 17.531250 C1.562500 17.395833 1.619791 17.270834 1.734375 17.156250 C2.109377 16.781248 2.380208 16.315107 2.546875 15.757812 C2.713542 15.200518 2.796875 14.718752 2.796875 14.312500 C2.796875 14.135416 2.750000 14.046875 2.656250 14.046875 C2.604166 14.046875 2.559896 14.093750 2.523438 14.187500 C2.486979 14.281250 2.442709 14.421874 2.390625 14.609375 C2.255208 15.161461 2.119792 15.583332 1.984375 15.875000 C1.848958 16.166668 1.671876 16.468748 1.453125 16.781250 C1.213540 17.114585 0.958335 17.281250 0.687500 17.281250 C0.520832 17.281250 0.364584 17.221355 0.218750 17.101562 C0.072916 16.981770 0.000000 16.828126 0.000000 16.640625 C0.000000 16.494791 0.036458 16.364584 0.109375 16.250000 C0.182292 16.135416 0.270833 16.010417 0.375000 15.875000 C0.489584 15.729166 0.622395 15.533855 0.773438 15.289062 C0.924480 15.044270 1.067708 14.718752 1.203125 14.312500 C1.588544 13.197911 2.062497 12.468752 2.625000 12.125000 C3.187503 11.781248 3.921870 11.609375 4.828125 11.609375 C5.317711 11.609375 5.804685 11.682291 6.289062 11.828125 C6.773440 11.973959 7.197915 12.223957 7.562500 12.578125 C7.927085 12.932293 8.226561 13.164062 8.460938 13.273438 C8.695314 13.382813 8.958332 13.437500 9.250000 13.437500 L10.187500 14.453125 C9.947915 14.786460 9.619794 14.953125 9.203125 14.953125 C8.588539 14.953125 7.989586 14.713544 7.406250 14.234375 C7.249999 14.109374 7.130209 14.046875 7.046875 14.046875 C6.921874 14.046875 6.859375 14.135416 6.859375 14.312500 C6.859375 14.718752 6.968749 15.200518 7.187500 15.757812 C7.406251 16.315107 7.703123 16.781248 8.078125 17.156250 C8.192709 17.270834 8.250000 17.395833 8.250000 17.531250 C8.250000 17.781251 7.950524 18.057290 7.351562 18.359375 C6.752601 18.661460 5.911464 18.812500 4.828125 18.812500 Z M3.453125 21.875000 C3.234374 21.875000 3.026043 21.838542 2.828125 21.765625 C2.630207 21.692708 2.531250 21.583334 2.531250 21.437500 C2.531250 21.333333 2.570312 21.205730 2.648438 21.054688 C2.726563 20.903645 2.885415 20.682293 3.125000 20.390625 L3.125000 18.343750 L6.531250 18.343750 L6.531250 20.390625 C6.770835 20.682293 6.929687 20.903645 7.007812 21.054688 C7.085938 21.205730 7.125000 21.333333 7.125000 21.437500 C7.125000 21.583334 7.026043 21.692708 6.828125 21.765625 C6.630207 21.838542 6.421876 21.875000 6.203125 21.875000 C5.942707 21.875000 5.695314 21.828125 5.460938 21.734375 C5.226561 21.640625 5.109375 21.442710 5.109375 21.140625 L5.109375 19.265625 C5.109375 19.036457 5.015626 18.921875 4.828125 18.921875 C4.640624 18.921875 4.546875 19.036457 4.546875 19.265625 L4.546875 21.140625 C4.546875 21.442710 4.432293 21.640625 4.203125 21.734375 C3.973957 21.828125 3.723960 21.875000 3.453125 21.875000 Z M4.828125 12.093750 C4.036454 12.093750 3.351565 11.807295 2.773438 11.234375 C2.195310 10.661455 1.906250 9.973962 1.906250 9.171875 C1.906250 8.359371 2.195310 7.669274 2.773438 7.101562 C3.351565 6.533851 4.036454 6.250000 4.828125 6.250000 C5.640629 6.250000 6.335935 6.533851 6.914062 7.101562 C7.492190 7.669274 7.781250 8.359371 7.781250 9.171875 C7.781250 9.973962 7.492190 10.661455 6.914062 11.234375 C6.335935 11.807295 5.640629 12.093750 4.828125 12.093750 Z M40.546875 21.875000" /></svg>