<svg version="1.1" xmlns="http://www.w3.org/2000/svg" style="fill:rgba(0,0,0,1.0)" width="256" height="256" viewBox="0 0 30.9375 32.8125"><path fill="rgb(255, 255, 255)" d="M8.437500 32.812500 L8.437500 28.734375 L4.578125 28.734375 L4.578125 24.359375 L8.437500 24.359375 L8.437500 21.140625 C6.822909 20.796873 5.380215 20.125005 4.109375 19.125000 C2.838535 18.124995 1.835941 16.893236 1.101562 15.429688 C0.367184 13.966139 0.000000 12.380217 0.000000 10.671875 C0.000000 9.203118 0.276039 7.825527 0.828125 6.539062 C1.380211 5.252598 2.143224 4.119797 3.117188 3.140625 C4.091151 2.161453 5.218744 1.393232 6.500000 0.835938 C7.781256 0.278643 9.156243 -0.000000 10.625000 -0.000000 C12.093757 -0.000000 13.468744 0.278643 14.750000 0.835938 C16.031256 1.393232 17.158849 2.161453 18.132812 3.140625 C19.106776 4.119797 19.869789 5.252598 20.421875 6.539062 C20.973961 7.825527 21.250000 9.203118 21.250000 10.671875 C21.250000 12.380217 20.882816 13.966139 20.148438 15.429688 C19.414059 16.893236 18.411465 18.124995 17.140625 19.125000 C15.869785 20.125005 14.427091 20.796873 12.812500 21.140625 L12.812500 24.359375 L16.671875 24.359375 L16.671875 28.734375 L12.812500 28.734375 L12.812500 32.812500 Z M10.625000 17.000000 C11.781256 17.000000 12.833329 16.713545 13.781250 16.140625 C14.729171 15.567705 15.481768 14.802088 16.039062 13.843750 C16.596357 12.885412 16.875000 11.828131 16.875000 10.671875 C16.875000 9.526036 16.593753 8.476567 16.031250 7.523438 C15.468747 6.570308 14.716151 5.807295 13.773438 5.234375 C12.830724 4.661455 11.781256 4.375000 10.625000 4.375000 C9.479161 4.375000 8.432296 4.661455 7.484375 5.234375 C6.536454 5.807295 5.781253 6.570308 5.218750 7.523438 C4.656247 8.476567 4.375000 9.526036 4.375000 10.671875 C4.375000 11.828131 4.653643 12.885412 5.210938 13.843750 C5.768232 14.802088 6.520829 15.567705 7.468750 16.140625 C8.416671 16.713545 9.468744 17.000000 10.625000 17.000000 Z M30.937500 27.343750" /></svg>