<svg version="1.1" xmlns="http://www.w3.org/2000/svg" style="fill:rgba(0,0,0,1.0)" width="256" height="256" viewBox="0 0 37.34375 32.8125"><path fill="rgb(255, 255, 255)" d="M16.015625 32.812500 C15.359372 32.812500 14.833335 32.679689 14.437500 32.414062 C14.041665 32.148436 13.843750 31.791669 13.843750 31.343750 C13.843750 30.895831 14.041665 30.539064 14.437500 30.273438 C14.833335 30.007811 15.328122 29.875000 15.921875 29.875000 C16.057292 29.875000 16.179687 29.882812 16.289062 29.898438 C16.398438 29.914063 16.505208 29.932292 16.609375 29.953125 C16.505208 29.619790 16.377605 29.210940 16.226562 28.726562 C16.075520 28.242185 15.929688 27.739586 15.789062 27.218750 C15.648437 26.697914 15.528646 26.205731 15.429688 25.742188 C15.330729 25.278644 15.281250 24.901043 15.281250 24.609375 C15.281250 24.088539 15.661455 23.216152 16.421875 21.992188 C17.182295 20.768223 18.369784 19.109385 19.984375 17.015625 C19.880208 16.723957 19.794271 16.421877 19.726562 16.109375 C19.658854 15.796873 19.598959 15.473960 19.546875 15.140625 C19.161456 15.432293 18.760419 15.661458 18.343750 15.828125 C17.927081 15.994792 17.494794 16.078125 17.046875 16.078125 C16.401038 16.078125 15.736983 15.851565 15.054688 15.398438 C14.372392 14.945310 13.692712 14.359379 13.015625 13.640625 C12.723957 13.828126 12.390627 13.921875 12.015625 13.921875 C11.671873 13.921875 11.359376 13.843751 11.078125 13.687500 C10.723957 14.010418 10.338544 14.171875 9.921875 14.171875 C9.567707 14.171875 9.265626 14.054689 9.015625 13.820312 C8.765624 13.585936 8.598959 13.265627 8.515625 12.859375 L0.000000 10.718750 L0.312500 9.046875 L9.000000 10.265625 C9.166668 10.015624 9.361978 9.817709 9.585938 9.671875 C9.809897 9.526041 10.046874 9.453125 10.296875 9.453125 C10.765627 9.453125 11.161457 9.656248 11.484375 10.062500 C11.619792 10.020833 11.796874 10.000000 12.015625 10.000000 C12.578128 10.000000 13.054686 10.156248 13.445312 10.468750 C13.835939 10.781252 14.195311 11.145831 14.523438 11.562500 C14.851564 11.979169 15.195311 12.343748 15.554688 12.656250 C15.914064 12.968752 16.343748 13.125000 16.843750 13.125000 C17.281252 13.125000 17.653644 12.994793 17.960938 12.734375 C18.268231 12.473957 18.554686 12.140627 18.820312 11.734375 C19.085939 11.328123 19.359374 10.898440 19.640625 10.445312 C19.921876 9.992185 20.249998 9.570314 20.625000 9.179688 C21.000002 8.789061 21.458331 8.484376 22.000000 8.265625 C21.229163 7.932290 20.596357 7.408858 20.101562 6.695312 C19.606768 5.981767 19.359375 5.182296 19.359375 4.296875 C19.359375 3.505204 19.552081 2.783857 19.937500 2.132812 C20.322919 1.481768 20.841143 0.963544 21.492188 0.578125 C22.143232 0.192706 22.864579 -0.000000 23.656250 -0.000000 C24.447921 -0.000000 25.169268 0.192706 25.820312 0.578125 C26.471357 0.963544 26.989581 1.481768 27.375000 2.132812 C27.760419 2.783857 27.953125 3.505204 27.953125 4.296875 C27.953125 5.119796 27.739585 5.869788 27.312500 6.546875 C26.885415 7.223962 26.333337 7.744790 25.656250 8.109375 C26.375004 8.234376 26.976560 8.421874 27.460938 8.671875 C27.945315 8.921876 28.348957 9.179686 28.671875 9.445312 C28.994793 9.710939 29.270832 9.937499 29.500000 10.125000 C29.729168 10.312501 29.953124 10.406250 30.171875 10.406250 C30.536460 10.406250 30.770833 10.093753 30.875000 9.468750 C30.979167 8.843747 31.031250 7.968756 31.031250 6.843750 C31.031250 6.427081 31.179686 6.070314 31.476562 5.773438 C31.773439 5.476561 32.130206 5.328125 32.546875 5.328125 C32.963544 5.328125 33.320311 5.476561 33.617188 5.773438 C33.914064 6.070314 34.062500 6.427081 34.062500 6.843750 C34.062500 8.822927 33.752607 10.429681 33.132812 11.664062 C32.513018 12.898444 31.651047 13.515625 30.546875 13.515625 C30.161456 13.515625 29.692711 13.434897 29.140625 13.273438 C28.588539 13.111978 28.036461 12.875002 27.484375 12.562500 C27.505208 12.697917 27.528646 12.976560 27.554688 13.398438 C27.580729 13.820315 27.606771 14.291664 27.632812 14.812500 C27.658854 15.333336 27.682292 15.817706 27.703125 16.265625 C27.723958 16.713544 27.734375 17.031249 27.734375 17.218750 C27.734375 17.541668 27.778645 18.044267 27.867188 18.726562 C27.955730 19.408858 28.065104 20.203120 28.195312 21.109375 C28.325521 22.015630 28.458333 22.968745 28.593750 23.968750 C28.729167 24.968755 28.841145 25.947912 28.929688 26.906250 C29.018230 27.864588 29.062500 28.734371 29.062500 29.515625 C29.062500 29.651042 29.062500 29.781249 29.062500 29.906250 C29.062500 30.031251 29.057292 30.151041 29.046875 30.265625 C29.359377 30.432292 29.624999 30.661457 29.843750 30.953125 C30.062501 31.244793 30.171875 31.557290 30.171875 31.890625 C30.171875 32.213543 30.031251 32.447916 29.750000 32.593750 C29.468749 32.739584 28.921879 32.812500 28.109375 32.812500 C27.286454 32.812500 26.734376 32.739584 26.453125 32.593750 C26.171874 32.447916 26.031250 32.213543 26.031250 31.890625 C26.031250 31.557290 26.151040 31.229168 26.390625 30.906250 C26.192707 29.802078 25.953126 28.638027 25.671875 27.414062 C25.390624 26.190098 25.101564 25.044276 24.804688 23.976562 C24.507811 22.908849 24.229168 22.041670 23.968750 21.375000 C23.708332 20.708330 23.505209 20.375000 23.359375 20.375000 C23.130207 20.375000 22.781252 20.552082 22.312500 20.906250 C21.843748 21.260418 21.356773 21.692706 20.851562 22.203125 C20.346352 22.713544 19.916668 23.223956 19.562500 23.734375 C19.208332 24.244794 19.031250 24.656248 19.031250 24.968750 C19.031250 25.427086 19.049479 25.984372 19.085938 26.640625 C19.122396 27.296878 19.164062 27.963538 19.210938 28.640625 C19.257813 29.317712 19.299479 29.924476 19.335938 30.460938 C19.372396 30.997399 19.390625 31.385415 19.390625 31.625000 C19.390625 32.416671 18.765631 32.812500 17.515625 32.812500 Z M8.453125 11.859375 C8.473958 11.744791 8.494792 11.627605 8.515625 11.507812 C8.536458 11.388020 8.562500 11.270834 8.593750 11.156250 L1.093750 9.937500 L1.046875 10.171875 Z M9.906250 13.234375 C9.979167 13.234375 10.049479 13.210938 10.117188 13.164062 C10.184896 13.117187 10.255208 13.052084 10.328125 12.968750 C10.140624 12.666665 10.046875 12.328127 10.046875 11.953125 C10.046875 11.390622 10.234373 10.921877 10.609375 10.546875 C10.505208 10.442708 10.401042 10.390625 10.296875 10.390625 C10.078124 10.390625 9.869793 10.585936 9.671875 10.976562 C9.473957 11.367189 9.375000 11.786456 9.375000 12.234375 C9.375000 12.536460 9.424479 12.778645 9.523438 12.960938 C9.622396 13.143230 9.749999 13.234375 9.906250 13.234375 Z M37.343750 27.343750" /></svg>