<svg version="1.1" xmlns="http://www.w3.org/2000/svg" style="fill:rgba(0,0,0,1.0)" width="256" height="256" viewBox="0 0 35.62332608112389 32.8125"><path fill="rgb(255, 255, 255)" d="M9.656250 26.375000 C8.208326 25.666663 6.932297 24.718756 5.828125 23.531250 C4.723953 22.343744 3.861982 20.989591 3.242188 19.468750 C2.622393 17.947909 2.312500 16.333342 2.312500 14.625000 C2.312500 12.822908 2.651038 11.132820 3.328125 9.554688 C4.005212 7.976555 4.942702 6.588548 6.140625 5.390625 C7.338548 4.192702 8.726555 3.255212 10.304688 2.578125 C11.882820 1.901038 13.572908 1.562500 15.375000 1.562500 C17.177092 1.562500 18.867180 1.901038 20.445312 2.578125 C22.023445 3.255212 23.411452 4.190098 24.609375 5.382812 C25.807298 6.575527 26.744788 7.960930 27.421875 9.539062 C28.098962 11.117195 28.437500 12.812491 28.437500 14.625000 C28.437500 16.333342 28.127607 17.947909 27.507812 19.468750 C26.888018 20.989591 26.028651 22.343744 24.929688 23.531250 C23.830724 24.718756 22.552091 25.666663 21.093750 26.375000 L20.375000 24.984375 C21.656256 24.359372 22.786453 23.526047 23.765625 22.484375 C24.744797 21.442703 25.507810 20.250007 26.054688 18.906250 C26.601565 17.562493 26.875000 16.135424 26.875000 14.625000 C26.875000 13.041659 26.578128 11.554694 25.984375 10.164062 C25.390622 8.773431 24.565109 7.549484 23.507812 6.492188 C22.450516 5.434891 21.226569 4.609378 19.835938 4.015625 C18.445306 3.421872 16.958341 3.125000 15.375000 3.125000 C13.791659 3.125000 12.304694 3.421872 10.914062 4.015625 C9.523431 4.609378 8.299484 5.434891 7.242188 6.492188 C6.184891 7.549484 5.359378 8.773431 4.765625 10.164062 C4.171872 11.554694 3.875000 13.041659 3.875000 14.625000 C3.875000 16.135424 4.148435 17.562493 4.695312 18.906250 C5.242190 20.250007 6.005203 21.442703 6.984375 22.484375 C7.963547 23.526047 9.093744 24.359372 10.375000 24.984375 Z M5.640625 27.218750 C5.286457 27.218750 4.989585 27.085939 4.750000 26.820312 C4.510415 26.554686 4.416666 26.239585 4.468750 25.875000 L4.921875 22.687500 C5.026042 21.937496 5.427080 21.562500 6.125000 21.562500 L8.937500 21.562500 C9.635420 21.562500 10.036458 21.937496 10.140625 22.687500 L10.531250 25.406250 L9.281250 27.218750 Z M4.750000 32.812500 C4.677083 32.812500 4.619792 32.718751 4.578125 32.531250 C4.536458 32.343749 4.515625 32.104168 4.515625 31.812500 C4.515625 31.520832 4.536458 31.281251 4.578125 31.093750 C4.619792 30.906249 4.677083 30.812500 4.750000 30.812500 L26.000000 30.812500 C26.072917 30.812500 26.130208 30.906249 26.171875 31.093750 C26.213542 31.281251 26.234375 31.520832 26.234375 31.812500 C26.234375 32.104168 26.213542 32.343749 26.171875 32.531250 C26.130208 32.718751 26.072917 32.812500 26.000000 32.812500 Z M5.171875 31.593750 L11.718750 21.984375 L13.750000 16.968750 L14.687500 16.968750 L15.906250 19.906250 L14.750000 22.968750 L10.609375 31.593750 Z M7.187500 31.062500 L9.312500 31.062500 L13.593750 22.531250 L15.140625 18.421875 L14.562500 18.000000 L12.843750 22.546875 Z M1.250000 18.234375 C0.895832 18.234375 0.598960 18.101564 0.359375 17.835938 C0.119790 17.570311 0.026041 17.255210 0.078125 16.890625 L0.531250 13.703125 C0.635417 12.953121 1.036455 12.578125 1.734375 12.578125 L4.546875 12.578125 C5.244795 12.578125 5.645833 12.953121 5.750000 13.703125 L6.203125 16.890625 C6.255209 17.255210 6.164064 17.570311 5.929688 17.835938 C5.695311 18.101564 5.395835 18.234375 5.031250 18.234375 Z M15.375000 27.687500 C14.791664 27.687500 14.216149 27.648438 13.648438 27.570312 C13.080726 27.492187 12.526044 27.385417 11.984375 27.250000 L12.625000 25.796875 C13.520838 26.015626 14.437495 26.125000 15.375000 26.125000 C15.854169 26.125000 16.320310 26.096354 16.773438 26.039062 C17.226565 25.981771 17.677081 25.901042 18.125000 25.796875 L18.765625 27.250000 C17.651036 27.541668 16.520839 27.687500 15.375000 27.687500 Z M6.531250 21.718750 L7.734375 17.687500 L5.546875 16.562500 L5.453125 15.125000 L9.234375 17.062500 L7.828125 21.718750 Z M9.078125 23.296875 L8.796875 22.062500 L13.140625 20.875000 L12.484375 22.343750 Z M15.375000 22.578125 C15.010415 22.578125 14.619794 22.552084 14.203125 22.500000 L14.609375 20.968750 C14.859376 21.000000 15.114582 21.015625 15.375000 21.015625 C15.635418 21.015625 15.890624 21.000000 16.140625 20.968750 L16.546875 22.500000 C16.130206 22.552084 15.739585 22.578125 15.375000 22.578125 Z M21.437500 31.062500 L23.562500 31.062500 L17.906250 22.546875 L16.187500 18.000000 L15.609375 18.421875 L17.156250 22.531250 Z M5.250000 14.281250 L4.625000 13.203125 L7.656250 11.734375 L6.796875 8.625000 L8.078125 8.578125 L9.125000 12.390625 Z M8.390625 15.171875 L8.390625 14.078125 L12.328125 14.078125 L12.328125 15.171875 Z M20.140625 31.593750 L16.000000 22.968750 L14.843750 19.906250 L16.062500 16.968750 L17.000000 16.968750 L19.031250 21.984375 L25.578125 31.593750 Z M21.671875 23.296875 L18.265625 22.343750 L17.609375 20.875000 L21.953125 22.062500 Z M21.468750 27.218750 L20.218750 25.406250 L20.609375 22.687500 C20.713542 21.937496 21.114580 21.562500 21.812500 21.562500 L24.625000 21.562500 C25.322920 21.562500 25.723958 21.937496 25.828125 22.687500 L26.281250 25.875000 C26.333334 26.239585 26.242189 26.554686 26.007812 26.820312 C25.773436 27.085939 25.473960 27.218750 25.109375 27.218750 Z M4.546875 9.218750 C4.192707 9.218750 3.895835 9.085939 3.656250 8.820312 C3.416665 8.554686 3.322916 8.239585 3.375000 7.875000 L3.828125 4.687500 C3.932292 3.937496 4.333330 3.562500 5.031250 3.562500 L7.843750 3.562500 C8.541670 3.562500 8.942708 3.937496 9.046875 4.687500 L9.500000 7.875000 C9.552084 8.239585 9.460939 8.554686 9.226562 8.820312 C8.992186 9.085939 8.692710 9.218750 8.328125 9.218750 Z M15.375000 19.093750 L14.062500 17.781250 L12.218750 17.781250 L12.218750 15.937500 L10.906250 14.625000 L12.218750 13.312500 L12.218750 11.468750 L14.062500 11.468750 L15.375000 10.187500 L16.687500 11.468750 L18.531250 11.468750 L18.531250 13.312500 L19.843750 14.625000 L18.531250 15.937500 L18.531250 17.781250 L16.687500 17.781250 Z M15.375000 17.312500 L16.156250 16.531250 L17.281250 16.531250 L17.281250 15.406250 L18.062500 14.625000 L17.281250 13.843750 L17.281250 12.718750 L16.187500 12.718750 L15.375000 11.937500 L14.562500 12.718750 L13.468750 12.718750 L13.468750 13.843750 L12.687500 14.625000 L13.468750 15.406250 L13.468750 16.531250 L14.593750 16.531250 Z M12.265625 21.953125 C10.848951 21.338539 9.687505 20.375007 8.781250 19.062500 C7.874995 17.749993 7.421875 16.270842 7.421875 14.625000 C7.421875 13.156243 7.778642 11.820319 8.492188 10.617188 C9.205733 9.414056 10.166661 8.455733 11.375000 7.742188 C12.583339 7.028642 13.916659 6.671875 15.375000 6.671875 C16.843757 6.671875 18.179681 7.028642 19.382812 7.742188 C20.585944 8.455733 21.544267 9.414056 22.257812 10.617188 C22.971358 11.820319 23.328125 13.156243 23.328125 14.625000 C23.328125 16.270842 22.877609 17.749993 21.976562 19.062500 C21.075516 20.375007 19.911465 21.338539 18.484375 21.953125 L17.859375 20.515625 C19.005214 20.026039 19.942705 19.252609 20.671875 18.195312 C21.401045 17.138016 21.765625 15.947923 21.765625 14.625000 C21.765625 13.447911 21.479170 12.375005 20.906250 11.406250 C20.333330 10.437495 19.562505 9.666670 18.593750 9.093750 C17.624995 8.520830 16.552089 8.234375 15.375000 8.234375 C14.197911 8.234375 13.125005 8.520830 12.156250 9.093750 C11.187495 9.666670 10.416670 10.437495 9.843750 11.406250 C9.270830 12.375005 8.984375 13.447911 8.984375 14.625000 C8.984375 15.947923 9.348955 17.138016 10.078125 18.195312 C10.807295 19.252609 11.744786 20.026039 12.890625 20.515625 Z M22.921875 21.718750 L21.515625 17.062500 L25.296875 15.125000 L25.203125 16.562500 L23.015625 17.687500 L24.218750 21.718750 Z M12.937500 8.484375 L9.031250 7.296875 L9.046875 6.000000 L12.312500 6.984375 L13.562500 4.531250 L14.937500 4.609375 Z M18.421875 15.171875 L18.421875 14.078125 L22.359375 14.078125 L22.359375 15.171875 Z M14.828125 11.640625 L14.828125 7.671875 L15.921875 7.671875 L15.921875 11.640625 Z M25.718750 18.234375 C25.364582 18.234375 25.067710 18.101564 24.828125 17.835938 C24.588540 17.570311 24.494791 17.255210 24.546875 16.890625 L25.000000 13.703125 C25.104167 12.953121 25.505205 12.578125 26.203125 12.578125 L29.015625 12.578125 C29.713545 12.578125 30.114583 12.953121 30.218750 13.703125 L30.671875 16.890625 C30.723959 17.255210 30.632814 17.570311 30.398438 17.835938 C30.164061 18.101564 29.864585 18.234375 29.500000 18.234375 Z M13.484375 5.656250 C13.130207 5.656250 12.833335 5.523439 12.593750 5.257812 C12.354165 4.992186 12.260416 4.677085 12.312500 4.312500 L12.765625 1.125000 C12.869792 0.374996 13.270830 -0.000000 13.968750 -0.000000 L16.781250 -0.000000 C17.479170 -0.000000 17.880208 0.374996 17.984375 1.125000 L18.437500 4.312500 C18.489584 4.677085 18.398439 4.992186 18.164062 5.257812 C17.929686 5.523439 17.630210 5.656250 17.265625 5.656250 Z M17.812500 8.484375 L15.812500 4.609375 L17.187500 4.531250 L18.437500 6.984375 L21.703125 6.000000 L21.718750 7.296875 Z M25.500000 14.281250 L21.625000 12.390625 L22.671875 8.578125 L23.953125 8.625000 L23.093750 11.734375 L26.125000 13.203125 Z M22.421875 9.218750 C22.067707 9.218750 21.770835 9.085939 21.531250 8.820312 C21.291665 8.554686 21.197916 8.239585 21.250000 7.875000 L21.703125 4.687500 C21.807292 3.937496 22.208330 3.562500 22.906250 3.562500 L25.718750 3.562500 C26.416670 3.562500 26.817708 3.937496 26.921875 4.687500 L27.375000 7.875000 C27.427084 8.239585 27.335939 8.554686 27.101562 8.820312 C26.867186 9.085939 26.567710 9.218750 26.203125 9.218750 Z M35.687500 27.343750" /></svg>