<svg version="1.1" xmlns="http://www.w3.org/2000/svg" style="fill:rgba(0,0,0,1.0)" width="256" height="256" viewBox="0 0 36.71875 32.8125"><path fill="rgb(255, 255, 255)" d="M6.125000 32.812500 C7.166672 32.812500 8.083329 32.661460 8.875000 32.359375 C9.666671 32.057290 10.445309 31.544274 11.210938 30.820312 C11.976566 30.096351 12.828120 29.098965 13.765625 27.828125 L30.562500 5.156250 C30.791668 5.156250 30.989582 5.140625 31.156250 5.109375 C31.447918 5.057291 31.718749 4.916668 31.968750 4.687500 C32.218751 4.458332 32.421874 4.187502 32.578125 3.875000 C32.734376 3.562498 32.812500 3.265626 32.812500 2.984375 C32.812500 2.192704 32.302088 1.447920 31.281250 0.750000 C30.541663 0.249997 29.869795 -0.000000 29.265625 -0.000000 C28.932290 -0.000000 28.598960 0.109374 28.265625 0.328125 C27.932290 0.546876 27.653647 0.817707 27.429688 1.140625 C27.205728 1.463543 27.093750 1.781248 27.093750 2.093750 C27.093750 2.197917 27.101562 2.294270 27.117188 2.382812 C27.132813 2.471355 27.161458 2.567708 27.203125 2.671875 L7.828125 24.953125 C7.692708 25.109376 7.575521 25.234375 7.476562 25.328125 C7.377604 25.421875 7.291667 25.468750 7.218750 25.468750 C7.083333 25.468750 7.015625 25.328126 7.015625 25.046875 C7.015625 24.932291 7.026042 24.812501 7.046875 24.687500 C7.067708 24.562499 7.078125 24.447917 7.078125 24.343750 C7.078125 23.479162 6.796878 22.765628 6.234375 22.203125 C5.671872 21.640622 4.958338 21.359375 4.093750 21.359375 C2.895827 21.359375 1.914066 21.817704 1.148438 22.734375 C0.382809 23.651046 0.000000 24.828118 0.000000 26.265625 C0.000000 27.526048 0.276039 28.648433 0.828125 29.632812 C1.380211 30.617192 2.122391 31.393226 3.054688 31.960938 C3.986984 32.528649 5.010411 32.812500 6.125000 32.812500 Z M13.046875 27.078125 L14.203125 25.609375 L10.875000 22.796875 L9.703125 24.265625 Z M24.437500 32.812500 C23.416662 32.812500 22.484379 32.562502 21.640625 32.062500 C20.796871 31.562498 20.125002 30.893233 19.625000 30.054688 C19.124998 29.216142 18.875000 28.286463 18.875000 27.265625 C18.875000 26.244787 19.124998 25.315108 19.625000 24.476562 C20.125002 23.638017 20.796871 22.968752 21.640625 22.468750 C22.484379 21.968748 23.416662 21.718750 24.437500 21.718750 C25.468755 21.718750 26.403642 21.968748 27.242188 22.468750 C28.080733 22.968752 28.749998 23.638017 29.250000 24.476562 C29.750002 25.315108 30.000000 26.244787 30.000000 27.265625 C30.000000 28.286463 29.750002 29.216142 29.250000 30.054688 C28.749998 30.893233 28.080733 31.562498 27.242188 32.062500 C26.403642 32.562502 25.468755 32.812500 24.437500 32.812500 Z M24.437500 30.937500 C25.125003 30.937500 25.747393 30.773439 26.304688 30.445312 C26.861982 30.117186 27.304686 29.674482 27.632812 29.117188 C27.960939 28.559893 28.125000 27.942712 28.125000 27.265625 C28.125000 26.588538 27.960939 25.971357 27.632812 25.414062 C27.304686 24.856768 26.861982 24.414064 26.304688 24.085938 C25.747393 23.757811 25.125003 23.593750 24.437500 23.593750 C23.760413 23.593750 23.140628 23.757811 22.578125 24.085938 C22.015622 24.414064 21.570314 24.856768 21.242188 25.414062 C20.914061 25.971357 20.750000 26.588538 20.750000 27.265625 C20.750000 27.942712 20.914061 28.559893 21.242188 29.117188 C21.570314 29.674482 22.015622 30.117186 22.578125 30.445312 C23.140628 30.773439 23.760413 30.937500 24.437500 30.937500 Z M15.609375 24.343750 L22.312500 15.687500 L18.984375 12.875000 L11.921875 21.234375 Z M6.140625 30.937500 C5.359371 30.937500 4.645837 30.739585 4.000000 30.343750 C3.354163 29.947915 2.838544 29.398441 2.453125 28.695312 C2.067706 27.992184 1.875000 27.182296 1.875000 26.265625 C1.875000 25.359370 2.059894 24.627607 2.429688 24.070312 C2.799481 23.513018 3.328122 23.234375 4.015625 23.234375 C4.307293 23.234375 4.578124 23.333332 4.828125 23.531250 C5.078126 23.729168 5.203125 24.015623 5.203125 24.390625 C5.203125 24.588543 5.184896 24.799478 5.148438 25.023438 C5.111979 25.247397 5.093750 25.520832 5.093750 25.843750 C5.093750 26.500003 5.249998 26.973957 5.562500 27.265625 C5.875002 27.557293 6.255206 27.703125 6.703125 27.703125 C7.192711 27.703125 7.632811 27.552085 8.023438 27.250000 C8.414064 26.947915 8.880206 26.479170 9.421875 25.843750 L28.953125 3.046875 C28.911458 2.984375 28.864584 2.906250 28.812500 2.812500 C28.760416 2.718750 28.734375 2.625000 28.734375 2.531250 C28.734375 2.374999 28.809895 2.200522 28.960938 2.007812 C29.111980 1.815103 29.296874 1.718750 29.515625 1.718750 C29.723959 1.718750 29.968749 1.807291 30.250000 1.984375 C30.750002 2.296877 31.000000 2.604165 31.000000 2.906250 C31.000000 3.052084 30.940105 3.216145 30.820312 3.398438 C30.700520 3.580730 30.536459 3.671875 30.328125 3.671875 C30.255208 3.671875 30.177084 3.658854 30.093750 3.632812 C30.010416 3.606771 29.911459 3.572917 29.796875 3.531250 L12.062500 26.984375 C11.385413 27.869796 10.731774 28.606768 10.101562 29.195312 C9.471351 29.783857 8.835941 30.221353 8.195312 30.507812 C7.554684 30.794272 6.869795 30.937500 6.140625 30.937500 Z M23.328125 14.093750 L24.484375 12.625000 L21.156250 9.812500 L19.984375 11.281250 Z M36.718750 27.343750" /></svg>