<svg version="1.1" xmlns="http://www.w3.org/2000/svg" style="fill:rgba(0,0,0,1.0)" width="256" height="256" viewBox="0 0 37.65625 32.8125"><path fill="rgb(255, 255, 255)" d="M9.781250 32.812500 C9.020830 32.812500 8.424481 32.614585 7.992188 32.218750 C7.559894 31.822915 7.343750 31.234379 7.343750 30.453125 L7.343750 20.578125 C7.343750 19.307285 7.611976 18.166672 8.148438 17.156250 C8.684899 16.145828 9.414058 15.346357 10.335938 14.757812 C11.257817 14.169268 12.296869 13.875000 13.453125 13.875000 L23.671875 13.875000 C24.838548 13.875000 25.880204 14.169268 26.796875 14.757812 C27.713546 15.346357 28.440101 16.145828 28.976562 17.156250 C29.513024 18.166672 29.781250 19.307285 29.781250 20.578125 L29.781250 21.281250 L28.218750 21.281250 L28.218750 20.578125 C28.218750 19.328119 27.994794 18.328129 27.546875 17.578125 C27.098956 16.828121 26.526045 16.283856 25.828125 15.945312 C25.130205 15.606769 24.411462 15.437500 23.671875 15.437500 L13.453125 15.437500 C12.713538 15.437500 11.994795 15.606769 11.296875 15.945312 C10.598955 16.283856 10.026044 16.828121 9.578125 17.578125 C9.130206 18.328129 8.906250 19.328119 8.906250 20.578125 L8.906250 29.984375 C8.906250 30.828129 9.302079 31.250000 10.093750 31.250000 L27.031250 31.250000 C27.822921 31.250000 28.218750 30.828129 28.218750 29.984375 L28.218750 25.750000 L29.781250 25.750000 L29.781250 30.296875 C29.781250 31.078129 29.567710 31.692706 29.140625 32.140625 C28.713540 32.588544 28.114587 32.812500 27.343750 32.812500 Z M4.078125 17.015625 C3.890624 16.807291 3.710938 16.593751 3.539062 16.375000 C3.367187 16.156249 3.208334 15.927085 3.062500 15.687500 C2.916666 15.437499 2.789063 15.179689 2.679688 14.914062 C2.570312 14.648436 2.479167 14.385418 2.406250 14.125000 C2.364583 13.979166 2.390625 13.848959 2.484375 13.734375 C2.578125 13.619791 2.703124 13.557292 2.859375 13.546875 L6.031250 13.312500 C6.322918 13.291667 6.531249 13.390624 6.656250 13.609375 C6.781251 13.828126 6.760418 14.057290 6.593750 14.296875 L4.812500 16.921875 C4.729166 17.057292 4.614584 17.135417 4.468750 17.156250 C4.322916 17.177083 4.192709 17.130209 4.078125 17.015625 Z M4.359375 15.921875 L5.468750 14.296875 L3.500000 14.437500 C3.552084 14.572917 3.609375 14.705729 3.671875 14.835938 C3.734375 14.966146 3.802083 15.093749 3.875000 15.218750 C3.958334 15.343751 4.036458 15.463541 4.109375 15.578125 C4.182292 15.692709 4.265625 15.807291 4.359375 15.921875 Z M5.093750 15.515625 C4.645831 15.005206 4.322918 14.401045 4.125000 13.703125 L6.031250 14.000000 Z M8.796875 18.890625 C8.484373 18.901042 8.171877 18.888021 7.859375 18.851562 C7.546873 18.815104 7.239585 18.750000 6.937500 18.656250 C6.781249 18.604166 6.674479 18.510417 6.617188 18.375000 C6.559896 18.239583 6.567708 18.104167 6.640625 17.968750 L8.015625 15.109375 C8.140626 14.848957 8.330728 14.718750 8.585938 14.718750 C8.841147 14.718750 9.031249 14.854165 9.156250 15.125000 L9.968750 16.828125 L9.328125 17.640625 L8.578125 16.093750 L7.734375 17.875000 C8.171877 17.947917 8.609373 17.963542 9.046875 17.921875 Z M8.578125 17.109375 C8.203123 17.109375 7.869793 17.072917 7.578125 17.000000 L8.609375 15.343750 L9.265625 17.062500 C9.161458 17.072917 9.049480 17.083333 8.929688 17.093750 C8.809895 17.104167 8.692709 17.109375 8.578125 17.109375 Z M15.484375 30.031250 C14.567704 30.031250 13.807295 29.734378 13.203125 29.140625 C12.598955 28.546872 12.296875 27.791671 12.296875 26.875000 L12.296875 20.203125 C12.296875 19.286454 12.598955 18.523441 13.203125 17.914062 C13.807295 17.304684 14.567704 17.000000 15.484375 17.000000 L23.203125 17.000000 C24.119796 17.000000 24.880205 17.304684 25.484375 17.914062 C26.088545 18.523441 26.390625 19.286454 26.390625 20.203125 L26.390625 26.875000 C26.390625 27.791671 26.091149 28.546872 25.492188 29.140625 C24.893226 29.734378 24.130213 30.031250 23.203125 30.031250 Z M15.640625 28.468750 L23.046875 28.468750 C23.630211 28.468750 24.072915 28.320314 24.375000 28.023438 C24.677085 27.726561 24.828125 27.291670 24.828125 26.718750 L24.828125 20.359375 C24.828125 19.776039 24.674481 19.330731 24.367188 19.023438 C24.059894 18.716144 23.619795 18.562500 23.046875 18.562500 L15.640625 18.562500 C15.067705 18.562500 14.627606 18.716144 14.320312 19.023438 C14.013019 19.330731 13.859375 19.776039 13.859375 20.359375 L13.859375 26.718750 C13.859375 27.291670 14.013019 27.726561 14.320312 28.023438 C14.627606 28.320314 15.067705 28.468750 15.640625 28.468750 Z M8.265625 21.078125 C6.734367 21.015625 5.343756 20.596358 4.093750 19.820312 C2.843744 19.044267 1.848962 18.015631 1.109375 16.734375 C0.369788 15.453119 0.000000 14.041674 0.000000 12.500000 C0.000000 11.312494 0.221352 10.200526 0.664062 9.164062 C1.106773 8.127599 1.721350 7.216150 2.507812 6.429688 C3.294275 5.643225 4.205724 5.028648 5.242188 4.585938 C6.278651 4.143227 7.390619 3.921875 8.578125 3.921875 C9.765631 3.921875 10.877599 4.143227 11.914062 4.585938 C12.950526 5.028648 13.861975 5.643225 14.648438 6.429688 C15.434900 7.216150 16.049477 8.127599 16.492188 9.164062 C16.934898 10.200526 17.156250 11.312494 17.156250 12.500000 C17.156250 12.885419 17.132813 13.263019 17.085938 13.632812 C17.039062 14.002606 16.963542 14.364582 16.859375 14.718750 L15.562500 14.718750 C15.791668 13.979163 15.906250 13.239587 15.906250 12.500000 C15.906250 11.145827 15.575524 9.916672 14.914062 8.812500 C14.252601 7.708328 13.369797 6.825524 12.265625 6.164062 C11.161453 5.502601 9.932298 5.171875 8.578125 5.171875 C7.234368 5.171875 6.007818 5.502601 4.898438 6.164062 C3.789057 6.825524 2.903649 7.708328 2.242188 8.812500 C1.580726 9.916672 1.250000 11.145827 1.250000 12.500000 C1.250000 13.812507 1.562497 15.013015 2.187500 16.101562 C2.812503 17.190110 3.656245 18.067705 4.718750 18.734375 C5.781255 19.401045 6.963535 19.765625 8.265625 19.828125 Z M9.984375 16.359375 L8.781250 15.109375 C8.354165 14.661456 7.968752 14.231773 7.625000 13.820312 C7.281248 13.408852 7.109375 12.973961 7.109375 12.515625 C7.109375 12.151040 7.239582 11.828126 7.500000 11.546875 C7.760418 11.265624 8.093748 11.125000 8.500000 11.125000 C8.916669 11.125000 9.315102 11.229166 9.695312 11.437500 C10.075523 11.645834 10.499998 11.958331 10.968750 12.375000 L12.906250 14.078125 L12.109375 15.046875 L9.781250 13.000000 C9.447915 12.708332 9.208334 12.520834 9.062500 12.437500 C8.916666 12.354166 8.786459 12.312500 8.671875 12.312500 C8.588541 12.312500 8.515625 12.343750 8.453125 12.406250 C8.390625 12.468750 8.359375 12.541666 8.359375 12.625000 C8.359375 12.708334 8.447916 12.869790 8.625000 13.109375 C8.802084 13.348960 9.145831 13.723956 9.656250 14.234375 C9.770834 14.338542 9.885416 14.450520 10.000000 14.570312 C10.114584 14.690105 10.229166 14.807291 10.343750 14.921875 L10.890625 15.500000 Z M14.328125 15.265625 L13.312500 15.171875 L13.656250 14.437500 L11.687500 14.296875 L11.125000 13.312500 L14.296875 13.546875 C14.453126 13.557292 14.578125 13.619791 14.671875 13.734375 C14.765625 13.848959 14.791667 13.979166 14.750000 14.125000 C14.697916 14.322918 14.635417 14.515624 14.562500 14.703125 C14.489583 14.890626 14.411459 15.078124 14.328125 15.265625 Z M8.609375 9.656250 L7.578125 8.000000 C7.869793 7.927083 8.203123 7.890625 8.578125 7.890625 C8.994794 7.890625 9.406248 7.947916 9.812500 8.062500 Z M8.015625 9.890625 L6.640625 7.031250 C6.567708 6.885416 6.559896 6.744792 6.617188 6.609375 C6.674479 6.473958 6.781249 6.385417 6.937500 6.343750 C7.468753 6.187499 8.013018 6.114583 8.570312 6.125000 C9.127607 6.135417 9.677081 6.208333 10.218750 6.343750 C10.385418 6.385417 10.497396 6.473958 10.554688 6.609375 C10.611979 6.744792 10.604167 6.885416 10.531250 7.031250 L9.156250 9.875000 C9.031249 10.135418 8.841147 10.268229 8.585938 10.273438 C8.330728 10.278646 8.140626 10.151043 8.015625 9.890625 Z M8.578125 8.906250 L9.437500 7.125000 C8.874997 7.031250 8.307295 7.031250 7.734375 7.125000 Z M13.031250 11.296875 L11.125000 11.000000 L12.062500 9.484375 C12.510419 9.994794 12.833332 10.598955 13.031250 11.296875 Z M11.687500 10.703125 L13.656250 10.562500 C13.604166 10.427083 13.549479 10.294271 13.492188 10.164062 C13.434896 10.033854 13.364584 9.906251 13.281250 9.781250 C13.208333 9.656249 13.132813 9.533855 13.054688 9.414062 C12.976562 9.294270 12.890625 9.182292 12.796875 9.078125 Z M11.125000 11.687500 C10.833332 11.708333 10.625001 11.609376 10.500000 11.390625 C10.374999 11.171874 10.395833 10.942710 10.562500 10.703125 L12.343750 8.078125 C12.427084 7.942708 12.544270 7.864583 12.695312 7.843750 C12.846355 7.822917 12.973958 7.869791 13.078125 7.984375 C13.265626 8.182293 13.447916 8.393228 13.625000 8.617188 C13.802084 8.841147 13.958333 9.072915 14.093750 9.312500 C14.239584 9.562501 14.367187 9.817707 14.476562 10.078125 C14.585938 10.338543 14.677083 10.604165 14.750000 10.875000 C14.791667 11.020834 14.765625 11.151041 14.671875 11.265625 C14.578125 11.380209 14.453126 11.442708 14.296875 11.453125 Z M25.921875 25.203125 L30.890625 25.203125 C31.067709 25.203125 31.203125 25.080730 31.296875 24.835938 C31.390625 24.591145 31.437500 24.135420 31.437500 23.468750 C31.437500 22.749996 31.390625 22.244793 31.296875 21.953125 C31.203125 21.661457 31.067709 21.515625 30.890625 21.515625 L25.921875 21.515625 Z M25.921875 26.765625 L25.921875 19.953125 L31.203125 19.953125 C31.713544 19.953125 32.096353 20.124998 32.351562 20.468750 C32.606772 20.812502 32.778645 21.252601 32.867188 21.789062 C32.955730 22.325524 33.000000 22.885414 33.000000 23.468750 C33.000000 24.031253 32.953125 24.562498 32.859375 25.062500 C32.765625 25.562502 32.591147 25.971353 32.335938 26.289062 C32.080728 26.606772 31.703128 26.765625 31.203125 26.765625 Z M21.609375 13.093750 C21.421874 12.885416 21.242188 12.671876 21.070312 12.453125 C20.898437 12.234374 20.739584 12.005210 20.593750 11.765625 C20.447916 11.515624 20.320313 11.257814 20.210938 10.992188 C20.101562 10.726561 20.010417 10.463543 19.937500 10.203125 C19.895833 10.057291 19.921875 9.927084 20.015625 9.812500 C20.109375 9.697916 20.234374 9.635417 20.390625 9.625000 L23.562500 9.390625 C23.854168 9.369792 24.062499 9.468749 24.187500 9.687500 C24.312501 9.906251 24.291668 10.135415 24.125000 10.375000 L22.343750 13.000000 C22.260416 13.135417 22.145834 13.213542 22.000000 13.234375 C21.854166 13.255208 21.723959 13.208334 21.609375 13.093750 Z M21.890625 12.000000 L23.000000 10.375000 L21.031250 10.515625 C21.083334 10.651042 21.140625 10.783854 21.203125 10.914062 C21.265625 11.044271 21.333333 11.171874 21.406250 11.296875 C21.489584 11.421876 21.567708 11.541666 21.640625 11.656250 C21.713542 11.770834 21.796875 11.885416 21.890625 12.000000 Z M22.625000 11.593750 C22.177081 11.083331 21.854168 10.479170 21.656250 9.781250 L23.562500 10.078125 Z M23.328125 14.828125 L22.171875 14.359375 L24.296875 9.078125 C24.463542 8.661456 24.674478 8.250002 24.929688 7.843750 C25.184897 7.437498 25.567706 7.234375 26.078125 7.234375 C27.192714 7.234375 27.750000 7.822911 27.750000 9.000000 C27.750000 9.354168 27.677084 9.817705 27.531250 10.390625 C27.385416 10.963545 27.203126 11.635413 26.984375 12.406250 L26.187500 15.171875 L24.984375 14.828125 L25.781250 12.062500 C26.062501 11.072912 26.252604 10.367190 26.351562 9.945312 C26.450521 9.523435 26.500000 9.208334 26.500000 9.000000 C26.500000 8.656248 26.380210 8.484375 26.140625 8.484375 C26.057291 8.484375 25.966146 8.554687 25.867188 8.695312 C25.768229 8.835938 25.630209 9.119790 25.453125 9.546875 Z M25.921875 14.968750 L25.593750 14.000000 C25.822918 14.031250 26.049478 14.041667 26.273438 14.031250 C26.497397 14.020833 26.723957 13.994792 26.953125 13.953125 L26.109375 12.171875 L26.671875 11.187500 L28.046875 14.046875 C28.119792 14.182292 28.127604 14.317708 28.070312 14.453125 C28.013021 14.588542 27.906251 14.682291 27.750000 14.734375 C27.156247 14.911459 26.546878 14.989583 25.921875 14.968750 Z M26.109375 13.187500 L26.078125 11.421875 L27.109375 13.078125 C26.953124 13.119792 26.791668 13.148437 26.625000 13.164062 C26.458332 13.179688 26.286459 13.187500 26.109375 13.187500 Z M23.000000 6.781250 L21.890625 5.156250 C21.713541 5.354168 21.552084 5.588540 21.406250 5.859375 C21.333333 5.984376 21.265625 6.111979 21.203125 6.242188 C21.140625 6.372396 21.083334 6.505208 21.031250 6.640625 Z M23.562500 7.765625 L20.390625 7.531250 C20.234374 7.520833 20.109375 7.458334 20.015625 7.343750 C19.921875 7.229166 19.895833 7.098959 19.937500 6.953125 C20.010417 6.682290 20.101562 6.416668 20.210938 6.156250 C20.320313 5.895832 20.447916 5.640626 20.593750 5.390625 C20.739584 5.151040 20.895832 4.919272 21.062500 4.695312 C21.229168 4.471353 21.411457 4.260418 21.609375 4.062500 C21.723959 3.947916 21.854166 3.901042 22.000000 3.921875 C22.145834 3.942708 22.260416 4.020833 22.343750 4.156250 L24.125000 6.781250 C24.291668 7.020835 24.312501 7.249999 24.187500 7.468750 C24.062499 7.687501 23.854168 7.786458 23.562500 7.765625 Z M28.109375 16.921875 L27.046875 15.843750 C28.244798 15.687499 29.325516 15.270837 30.289062 14.593750 C31.252609 13.916663 32.018226 13.054693 32.585938 12.007812 C33.153649 10.960932 33.437500 9.817715 33.437500 8.578125 C33.437500 7.223952 33.106774 5.994797 32.445312 4.890625 C31.783851 3.786453 30.901047 2.903649 29.796875 2.242188 C28.692703 1.580726 27.463548 1.250000 26.109375 1.250000 C24.765618 1.250000 23.539068 1.580726 22.429688 2.242188 C21.320307 2.903649 20.434899 3.786453 19.773438 4.890625 C19.111976 5.994797 18.781250 7.223952 18.781250 8.578125 C18.781250 9.744798 19.031248 10.822912 19.531250 11.812500 C20.031252 12.802088 20.703121 13.635413 21.546875 14.312500 L19.734375 14.312500 C19.046872 13.552080 18.507814 12.682297 18.117188 11.703125 C17.726561 10.723953 17.531250 9.682297 17.531250 8.578125 C17.531250 7.390619 17.752602 6.278651 18.195312 5.242188 C18.638023 4.205724 19.252600 3.294275 20.039062 2.507812 C20.825525 1.721350 21.736974 1.106773 22.773438 0.664062 C23.809901 0.221352 24.921869 -0.000000 26.109375 -0.000000 C27.296881 -0.000000 28.408849 0.221352 29.445312 0.664062 C30.481776 1.106773 31.393225 1.721350 32.179688 2.507812 C32.966150 3.294275 33.580727 4.205724 34.023438 5.242188 C34.466148 6.278651 34.687500 7.390619 34.687500 8.578125 C34.687500 9.932298 34.401045 11.184890 33.828125 12.335938 C33.255205 13.486985 32.473963 14.463538 31.484375 15.265625 C30.494787 16.067712 29.369798 16.619790 28.109375 16.921875 Z M30.609375 13.093750 C30.505208 13.208334 30.377605 13.255208 30.226562 13.234375 C30.075520 13.213542 29.958334 13.135417 29.875000 13.000000 L28.093750 10.375000 C27.927082 10.135415 27.906249 9.906251 28.031250 9.687500 C28.156251 9.468749 28.364582 9.369792 28.656250 9.390625 L31.828125 9.625000 C31.984376 9.635417 32.109375 9.697916 32.203125 9.812500 C32.296875 9.927084 32.322917 10.057291 32.281250 10.203125 C32.208333 10.463543 32.117188 10.726561 32.007812 10.992188 C31.898437 11.257814 31.770834 11.515624 31.625000 11.765625 C31.489583 12.005210 31.333334 12.234374 31.156250 12.453125 C30.979166 12.671876 30.796876 12.885416 30.609375 13.093750 Z M29.593750 11.593750 L28.656250 10.078125 L30.562500 9.781250 C30.364582 10.479170 30.041669 11.083331 29.593750 11.593750 Z M26.078125 5.734375 L24.875000 4.140625 C25.281252 4.026041 25.692706 3.968750 26.109375 3.968750 C26.484377 3.968750 26.817707 4.005208 27.109375 4.078125 Z M26.671875 5.968750 C26.546874 6.229168 26.356772 6.356771 26.101562 6.351562 C25.846353 6.346354 25.656251 6.213543 25.531250 5.953125 L24.156250 3.109375 C24.083333 2.963541 24.075521 2.822917 24.132812 2.687500 C24.190104 2.552083 24.302082 2.463542 24.468750 2.421875 C25.572922 2.098957 26.666661 2.098957 27.750000 2.421875 C27.906251 2.463542 28.013021 2.552083 28.070312 2.687500 C28.127604 2.822917 28.119792 2.963541 28.046875 3.109375 Z M26.109375 4.984375 L26.953125 3.203125 C26.380205 3.109375 25.812503 3.109375 25.250000 3.203125 Z M30.562500 7.375000 L28.656250 7.078125 L29.593750 5.562500 C30.041669 6.072919 30.364582 6.677080 30.562500 7.375000 Z M29.218750 6.781250 L31.187500 6.640625 C31.135416 6.505208 31.080729 6.372396 31.023438 6.242188 C30.966146 6.111979 30.895834 5.984376 30.812500 5.859375 C30.739583 5.734374 30.664063 5.611980 30.585938 5.492188 C30.507812 5.372395 30.421875 5.260417 30.328125 5.156250 Z M28.656250 7.765625 C28.364582 7.786458 28.156251 7.687501 28.031250 7.468750 C27.906249 7.249999 27.927082 7.020835 28.093750 6.781250 L29.875000 4.156250 C29.958334 4.020833 30.075520 3.942708 30.226562 3.921875 C30.377605 3.901042 30.505208 3.947916 30.609375 4.062500 C30.796876 4.260418 30.979166 4.471353 31.156250 4.695312 C31.333334 4.919272 31.489583 5.151040 31.625000 5.390625 C31.770834 5.640626 31.898437 5.895832 32.007812 6.156250 C32.117188 6.416668 32.208333 6.682290 32.281250 6.953125 C32.322917 7.098959 32.296875 7.229166 32.203125 7.343750 C32.109375 7.458334 31.984376 7.520833 31.828125 7.531250 Z M4.125000 11.296875 C4.322918 10.598955 4.645831 9.994794 5.093750 9.484375 L6.031250 11.000000 Z M6.031250 11.687500 L2.859375 11.453125 C2.703124 11.442708 2.578125 11.380209 2.484375 11.265625 C2.390625 11.151041 2.364583 11.020834 2.406250 10.875000 C2.479167 10.604165 2.570312 10.338543 2.679688 10.078125 C2.789063 9.817707 2.916666 9.562501 3.062500 9.312500 C3.208334 9.072915 3.367187 8.841147 3.539062 8.617188 C3.710938 8.393228 3.890624 8.182293 4.078125 7.984375 C4.192709 7.869791 4.322916 7.822917 4.468750 7.843750 C4.614584 7.864583 4.729166 7.942708 4.812500 8.078125 L6.593750 10.703125 C6.760418 10.942710 6.781251 11.171874 6.656250 11.390625 C6.531249 11.609376 6.322918 11.708333 6.031250 11.687500 Z M5.468750 10.703125 L4.359375 9.078125 C4.265625 9.182292 4.182292 9.294270 4.109375 9.414062 C4.036458 9.533855 3.958334 9.656249 3.875000 9.781250 C3.802083 9.906251 3.734375 10.033854 3.671875 10.164062 C3.609375 10.294271 3.552084 10.427083 3.500000 10.562500 Z M21.656250 7.375000 C21.854168 6.677080 22.177081 6.072919 22.625000 5.562500 L23.562500 7.078125 Z M30.328125 12.000000 C30.421875 11.885416 30.507812 11.770834 30.585938 11.656250 C30.664063 11.541666 30.739583 11.421876 30.812500 11.296875 C30.895834 11.171874 30.966146 11.044271 31.023438 10.914062 C31.080729 10.783854 31.135416 10.651042 31.187500 10.515625 L29.218750 10.375000 Z M37.656250 27.343750" /></svg>