<svg version="1.1" xmlns="http://www.w3.org/2000/svg" style="fill:rgba(0,0,0,1.0)" width="256" height="256" viewBox="0 0 28.4375 32.8125"><path fill="rgb(255, 255, 255)" d="M9.718750 32.812500 C8.531244 32.812500 7.442713 32.645835 6.453125 32.312500 C5.463537 31.979165 4.671878 31.528649 4.078125 30.960938 C3.484372 30.393226 3.187500 29.760420 3.187500 29.062500 L3.187500 16.718750 C3.187500 14.031237 4.411446 12.239588 6.859375 11.343750 L7.031250 11.281250 C7.156251 11.229166 7.218750 11.140626 7.218750 11.015625 L7.218750 9.406250 L8.781250 9.718750 L8.781250 11.218750 C8.781250 11.635419 8.658855 11.960936 8.414062 12.195312 C8.169270 12.429689 7.817711 12.624999 7.359375 12.781250 C5.619783 13.375003 4.750000 14.687490 4.750000 16.718750 L4.750000 29.062500 C4.750000 29.416668 4.981769 29.760415 5.445312 30.093750 C5.908856 30.427085 6.520830 30.703124 7.281250 30.921875 C8.041670 31.140626 8.854162 31.250000 9.718750 31.250000 C10.593754 31.250000 11.408850 31.140626 12.164062 30.921875 C12.919275 30.703124 13.528644 30.427085 13.992188 30.093750 C14.455731 29.760415 14.687500 29.416668 14.687500 29.062500 L14.687500 16.718750 C14.687500 14.687490 13.817717 13.375003 12.078125 12.781250 C11.619789 12.624999 11.268230 12.429689 11.023438 12.195312 C10.778645 11.960936 10.656250 11.635419 10.656250 11.218750 L10.656250 9.718750 L12.218750 9.406250 L12.218750 11.015625 C12.218750 11.140626 12.281249 11.229166 12.406250 11.281250 L12.578125 11.343750 C15.026054 12.239588 16.250000 14.031237 16.250000 16.718750 L16.250000 29.062500 C16.250000 29.760420 15.953128 30.393226 15.359375 30.960938 C14.765622 31.528649 13.973963 31.979165 12.984375 32.312500 C11.994787 32.645835 10.906256 32.812500 9.718750 32.812500 Z M0.000000 24.984375 L0.000000 22.218750 L3.953125 22.218750 L3.953125 24.984375 Z M1.265625 27.828125 C1.098958 25.619781 0.947917 23.700529 0.812500 22.070312 C0.677083 20.440096 0.559896 19.026048 0.460938 17.828125 C0.361979 16.630202 0.286459 15.578130 0.234375 14.671875 C0.213542 14.234373 0.200521 13.903647 0.195312 13.679688 C0.190104 13.455728 0.187500 13.255209 0.187500 13.078125 C0.187500 9.015605 1.645819 6.843751 4.562500 6.562500 C4.885418 6.531250 5.249998 6.507813 5.656250 6.492188 C6.062502 6.476562 6.505206 6.479167 6.984375 6.500000 L6.937500 8.062500 C6.031245 8.031250 5.291670 8.046875 4.718750 8.109375 C3.562494 8.234376 2.776044 8.729162 2.359375 9.593750 C1.942706 10.458338 1.734375 11.552077 1.734375 12.875000 C1.734375 13.072918 1.739583 13.273436 1.750000 13.476562 C1.760417 13.679689 1.770833 13.885416 1.781250 14.093750 C1.854167 15.333340 1.940104 16.575515 2.039062 17.820312 C2.138021 19.065110 2.252604 20.471346 2.382812 22.039062 C2.513021 23.606779 2.661458 25.494781 2.828125 27.703125 Z M9.718750 25.687500 C10.145835 25.687500 10.513019 25.570314 10.820312 25.335938 C11.127606 25.101561 11.281250 24.791669 11.281250 24.406250 C11.281250 24.062498 11.182293 23.781251 10.984375 23.562500 C10.786457 23.343749 10.585939 23.111980 10.382812 22.867188 C10.179686 22.622395 10.078125 22.307294 10.078125 21.921875 C10.078125 21.744791 10.101562 21.541668 10.148438 21.312500 C10.195313 21.083332 10.244791 20.911459 10.296875 20.796875 C9.880206 21.005209 9.536460 21.294269 9.265625 21.664062 C8.994790 22.033856 8.859375 22.395832 8.859375 22.750000 C8.859375 22.979168 8.898437 23.158854 8.976562 23.289062 C9.054688 23.419271 9.093750 23.541666 9.093750 23.656250 C9.093750 23.802084 9.015626 23.875000 8.859375 23.875000 C8.609374 23.875000 8.484375 23.682294 8.484375 23.296875 C8.411458 23.369792 8.338542 23.513020 8.265625 23.726562 C8.192708 23.940105 8.156250 24.145832 8.156250 24.343750 C8.156250 24.729169 8.304686 25.049478 8.601562 25.304688 C8.898439 25.559897 9.270831 25.687500 9.718750 25.687500 Z M9.718750 26.859375 C8.583328 26.859375 7.648441 26.473962 6.914062 25.703125 C6.179684 24.932288 5.812500 23.984381 5.812500 22.859375 C5.812500 22.130205 5.963540 21.476565 6.265625 20.898438 C6.567710 20.320310 6.958331 19.932293 7.437500 19.734375 C7.406250 19.828125 7.377604 19.976561 7.351562 20.179688 C7.325521 20.382814 7.312500 20.557291 7.312500 20.703125 C7.312500 20.932293 7.343750 21.138020 7.406250 21.320312 C7.468750 21.502605 7.546875 21.640625 7.640625 21.734375 C7.640625 21.338540 7.718749 21.002606 7.875000 20.726562 C8.031251 20.450519 8.213541 20.195314 8.421875 19.960938 C8.630209 19.726561 8.812499 19.476564 8.968750 19.210938 C9.125001 18.945311 9.203125 18.635418 9.203125 18.281250 C9.203125 17.822914 9.020835 17.395835 8.656250 17.000000 C8.833334 16.906250 9.036457 16.859375 9.265625 16.859375 C9.942712 16.859375 10.518227 17.148435 10.992188 17.726562 C11.466148 18.304690 11.703125 19.010412 11.703125 19.843750 C11.703125 20.177085 11.677084 20.458332 11.625000 20.687500 C11.572916 20.916668 11.546875 21.119791 11.546875 21.296875 C11.546875 21.494793 11.596354 21.656249 11.695312 21.781250 C11.794271 21.906251 11.927083 21.968750 12.093750 21.968750 C12.447918 21.968750 12.677083 21.765627 12.781250 21.359375 C13.020835 21.546876 13.221353 21.833331 13.382812 22.218750 C13.544272 22.604169 13.625000 23.010415 13.625000 23.437500 C13.625000 24.062503 13.447918 24.632810 13.093750 25.148438 C12.739582 25.664065 12.265628 26.078123 11.671875 26.390625 C11.078122 26.703127 10.427087 26.859375 9.718750 26.859375 Z M4.734375 8.578125 L4.734375 5.812500 L7.078125 5.812500 L7.078125 8.578125 Z M9.656250 10.796875 C8.708329 10.796875 7.895837 10.460941 7.218750 9.789062 C6.541663 9.117184 6.203125 8.307296 6.203125 7.359375 C6.203125 6.401037 6.541663 5.585941 7.218750 4.914062 C7.895837 4.242184 8.708329 3.906250 9.656250 3.906250 C10.604171 3.906250 11.416663 4.242184 12.093750 4.914062 C12.770837 5.585941 13.109375 6.401037 13.109375 7.359375 C13.109375 8.307296 12.773441 9.117184 12.101562 9.789062 C11.429684 10.460941 10.614588 10.796875 9.656250 10.796875 Z M9.656250 9.250000 C10.177086 9.250000 10.622394 9.062502 10.992188 8.687500 C11.361981 8.312498 11.546875 7.869794 11.546875 7.359375 C11.546875 6.838539 11.361981 6.390627 10.992188 6.015625 C10.622394 5.640623 10.177086 5.453125 9.656250 5.453125 C9.135414 5.453125 8.690106 5.640623 8.320312 6.015625 C7.950519 6.390627 7.765625 6.838539 7.765625 7.359375 C7.765625 7.869794 7.950519 8.312498 8.320312 8.687500 C8.690106 9.062502 9.135414 9.250000 9.656250 9.250000 Z M9.656250 8.390625 C9.499999 8.390625 9.361980 8.333334 9.242188 8.218750 C9.122395 8.104166 9.062500 7.973959 9.062500 7.828125 C9.062500 7.651041 9.101562 7.398439 9.179688 7.070312 C9.257813 6.742186 9.346354 6.442710 9.445312 6.171875 C9.544271 5.901040 9.614583 5.765625 9.656250 5.765625 C9.718750 5.765625 9.796875 5.901040 9.890625 6.171875 C9.984375 6.442710 10.067708 6.742186 10.140625 7.070312 C10.213542 7.398439 10.250000 7.651041 10.250000 7.828125 C10.250000 7.973959 10.195313 8.104166 10.085938 8.218750 C9.976562 8.333334 9.833334 8.390625 9.656250 8.390625 Z M14.562500 7.328125 C14.416666 7.328125 14.270834 7.291667 14.125000 7.218750 L11.484375 6.015625 L10.843750 4.578125 L8.484375 3.500000 L8.640625 3.093750 L15.406250 6.203125 C15.406250 6.453126 15.335938 6.703124 15.195312 6.953125 C15.054687 7.203126 14.843751 7.328125 14.562500 7.328125 Z M8.250000 4.796875 C7.958332 4.401040 7.812500 4.046877 7.812500 3.734375 C7.812500 3.276039 7.979165 2.968751 8.312500 2.812500 L14.703125 -0.000000 C14.901043 0.447919 14.906251 0.903644 14.718750 1.367188 C14.531249 1.830731 14.213544 2.161457 13.765625 2.359375 Z M28.437500 27.343750" /></svg>