<svg version="1.1" xmlns="http://www.w3.org/2000/svg" style="fill:rgba(0,0,0,1.0)" width="256" height="256" viewBox="0 0 36.71875 32.8125"><path fill="rgb(255, 255, 255)" d="M2.750000 32.812500 C1.999996 32.812500 1.354169 32.544274 0.812500 32.007812 C0.270831 31.471351 0.000000 30.833337 0.000000 30.093750 L0.000000 2.734375 C0.000000 1.984371 0.268226 1.341149 0.804688 0.804688 C1.341149 0.268226 1.984371 -0.000000 2.734375 -0.000000 L30.078125 -0.000000 C30.828129 -0.000000 31.471351 0.268226 32.007812 0.804688 C32.544274 1.341149 32.812500 1.984371 32.812500 2.734375 L32.812500 30.078125 C32.812500 30.828129 32.544274 31.471351 32.007812 32.007812 C31.471351 32.544274 30.828129 32.812500 30.078125 32.812500 Z M6.437500 24.484375 C6.635418 23.421870 7.197912 22.442713 8.125000 21.546875 L7.250000 20.640625 C6.135411 21.723964 5.458335 22.932285 5.218750 24.265625 Z M3.718750 25.437500 C4.093752 24.041660 4.716141 22.752610 5.585938 21.570312 C6.455734 20.388015 7.505202 19.406254 8.734375 18.625000 L8.046875 17.562500 C6.703118 18.427088 5.546880 19.518223 4.578125 20.835938 C3.609370 22.153652 2.916669 23.583326 2.500000 25.125000 Z M7.109375 28.906250 L8.359375 28.906250 C8.359375 26.624989 9.359365 24.026056 11.359375 21.109375 L10.328125 20.390625 C8.182281 23.526057 7.109375 26.364571 7.109375 28.906250 Z M2.640625 21.265625 C3.713547 19.796868 5.333322 18.421881 7.500000 17.140625 L6.875000 16.078125 C4.572905 17.421882 2.828131 18.901034 1.640625 20.515625 Z M11.562500 30.328125 L12.781250 30.078125 C12.312498 27.765613 12.708327 25.421887 13.968750 23.046875 L12.875000 22.453125 C11.468743 25.109388 11.031247 27.734362 11.562500 30.328125 Z M13.625000 28.359375 L14.875000 28.265625 C14.854167 28.015624 14.856771 27.682294 14.882812 27.265625 C14.908854 26.848956 14.953125 26.416669 15.015625 25.968750 C15.078125 25.520831 15.145833 25.135418 15.218750 24.812500 L14.000000 24.531250 C13.916666 24.895835 13.843750 25.325518 13.781250 25.820312 C13.718750 26.315107 13.671875 26.791664 13.640625 27.250000 C13.609375 27.708336 13.604167 28.078124 13.625000 28.359375 Z M3.843750 16.609375 C4.229169 16.296873 4.705726 16.023439 5.273438 15.789062 C5.841149 15.554686 6.411455 15.401042 6.984375 15.328125 L6.828125 14.078125 C6.151038 14.171875 5.468753 14.361978 4.781250 14.648438 C4.093747 14.934897 3.520836 15.265623 3.062500 15.640625 Z M1.296875 13.640625 C2.317713 13.213540 3.361974 12.934896 4.429688 12.804688 C5.497401 12.674479 6.395830 12.713541 7.125000 12.921875 L7.468750 11.734375 C6.614579 11.484374 5.578131 11.427083 4.359375 11.562500 C3.140619 11.697917 1.963547 12.005206 0.828125 12.484375 Z M20.765625 29.859375 C20.932292 29.119788 21.054687 28.442711 21.132812 27.828125 C21.210938 27.213539 21.234375 26.473963 21.203125 25.609375 L19.953125 25.671875 C19.984375 26.463546 19.966146 27.130206 19.898438 27.671875 C19.830729 28.213544 19.713542 28.848955 19.546875 29.578125 Z M10.765625 19.343750 C11.005210 19.020832 11.354164 18.692710 11.812500 18.359375 C12.270836 18.026040 12.770831 17.734376 13.312500 17.484375 L12.781250 16.359375 C12.166664 16.640626 11.585940 16.984373 11.039062 17.390625 C10.492185 17.796877 10.067710 18.197915 9.765625 18.593750 Z M12.687500 21.937500 C13.083335 20.906245 13.489581 20.072920 13.906250 19.437500 C14.322919 18.802080 14.880205 18.166670 15.578125 17.531250 L14.734375 16.593750 C13.973955 17.291670 13.354169 18.005205 12.875000 18.734375 C12.395831 19.463545 11.947919 20.385411 11.531250 21.500000 Z M9.187500 16.812500 C9.489585 16.385415 10.026038 16.083334 10.796875 15.906250 C11.567712 15.729166 12.442703 15.718749 13.421875 15.875000 L13.609375 14.656250 C12.401036 14.458332 11.304692 14.486978 10.320312 14.742188 C9.335933 14.997397 8.614586 15.447913 8.156250 16.093750 Z M16.078125 22.265625 C16.130209 21.953123 16.187500 21.640627 16.250000 21.328125 C16.312500 21.015623 16.369791 20.708335 16.421875 20.406250 C16.473959 20.093748 16.528646 19.781252 16.585938 19.468750 C16.643229 19.156248 16.697916 18.843752 16.750000 18.531250 L15.531250 18.312500 C15.427083 18.937503 15.317709 19.559893 15.203125 20.179688 C15.088541 20.799482 14.973959 21.421872 14.859375 22.046875 Z M8.953125 11.515625 L9.640625 10.453125 C8.755204 9.880205 7.916671 9.479168 7.125000 9.250000 C6.333329 9.020832 5.570316 8.885417 4.835938 8.843750 C4.101559 8.802083 3.364587 8.781250 2.625000 8.781250 L2.625000 10.031250 C3.364587 10.031250 4.070309 10.049479 4.742188 10.085938 C5.414066 10.122396 6.091142 10.242186 6.773438 10.445312 C7.455733 10.648439 8.182288 11.005206 8.953125 11.515625 Z M19.062500 23.203125 C19.364585 21.234365 19.088546 19.166678 18.234375 17.000000 L17.078125 17.468750 C17.848962 19.427093 18.093751 21.276033 17.812500 23.015625 Z M23.328125 27.296875 C23.609376 24.796862 22.744802 22.192722 20.734375 19.484375 L19.734375 20.234375 C21.557301 22.682304 22.338543 24.984364 22.078125 27.140625 Z M14.234375 14.234375 L15.296875 13.578125 C14.109369 11.713532 12.250013 11.359369 9.718750 12.515625 L10.218750 13.640625 C11.208338 13.203123 12.023434 13.031250 12.664062 13.125000 C13.304691 13.218750 13.828123 13.588538 14.234375 14.234375 Z M26.156250 29.375000 L27.406250 29.250000 C27.229166 27.510408 26.833336 25.908861 26.218750 24.445312 C25.604164 22.981764 24.776047 21.692714 23.734375 20.578125 L22.828125 21.421875 C24.713551 23.484385 25.822915 26.135400 26.156250 29.375000 Z M11.828125 10.812500 L12.796875 10.031250 C12.307289 9.406247 11.718753 8.773441 11.031250 8.132812 C10.343747 7.492184 9.468755 6.911461 8.406250 6.390625 L7.843750 7.515625 C8.645837 7.901044 9.359372 8.354164 9.984375 8.875000 C10.609378 9.395836 11.223955 10.041663 11.828125 10.812500 Z M21.875000 20.156250 L22.750000 19.250000 C22.302081 18.822915 21.856773 18.395835 21.414062 17.968750 C20.971352 17.541665 20.526044 17.109377 20.078125 16.671875 L19.203125 17.578125 C19.651044 17.994794 20.096352 18.421873 20.539062 18.859375 C20.981773 19.296877 21.427081 19.729165 21.875000 20.156250 Z M6.046875 3.484375 C6.255209 3.484375 6.432291 3.408855 6.578125 3.257812 C6.723959 3.106770 6.796875 2.927084 6.796875 2.718750 C6.796875 2.510416 6.723959 2.333334 6.578125 2.187500 C6.432291 2.041666 6.255209 1.968750 6.046875 1.968750 C5.838541 1.968750 5.658855 2.041666 5.507812 2.187500 C5.356770 2.333334 5.281250 2.510416 5.281250 2.718750 C5.281250 2.927084 5.356770 3.106770 5.507812 3.257812 C5.658855 3.408855 5.838541 3.484375 6.046875 3.484375 Z M15.359375 13.234375 L16.546875 12.828125 C16.348957 12.223955 16.101564 11.653649 15.804688 11.117188 C15.507811 10.580726 15.005212 10.036461 14.296875 9.484375 L13.515625 10.453125 C14.098961 10.911461 14.502603 11.343748 14.726562 11.750000 C14.950522 12.156252 15.161457 12.651039 15.359375 13.234375 Z M12.765625 8.671875 L13.921875 8.171875 C12.713536 5.484362 10.703139 3.645838 7.890625 2.656250 L7.484375 3.843750 C9.953137 4.697921 11.713536 6.307280 12.765625 8.671875 Z M28.140625 23.703125 L29.046875 22.859375 C28.848957 22.640624 28.645834 22.421876 28.437500 22.203125 C28.229166 21.984374 28.020834 21.770834 27.812500 21.562500 C27.614582 21.354166 27.414064 21.143230 27.210938 20.929688 C27.007811 20.716145 26.802084 20.505209 26.593750 20.296875 L25.687500 21.140625 C26.093752 21.578127 26.502602 22.007810 26.914062 22.429688 C27.325523 22.851565 27.734373 23.276040 28.140625 23.703125 Z M23.796875 18.421875 L24.765625 17.640625 C23.838537 16.473952 22.171887 15.578128 19.765625 14.953125 L19.453125 16.171875 C20.567714 16.463543 21.471351 16.789061 22.164062 17.148438 C22.856774 17.507814 23.401040 17.932289 23.796875 18.421875 Z M17.906250 13.421875 C18.437503 12.901039 18.971351 12.375003 19.507812 11.843750 C20.044274 11.312497 20.578122 10.786461 21.109375 10.265625 L20.234375 9.390625 C19.973957 9.651043 19.708335 9.911457 19.437500 10.171875 C19.166665 10.432293 18.895835 10.697915 18.625000 10.968750 C18.364582 11.229168 18.101564 11.489582 17.835938 11.750000 C17.570311 12.010418 17.302085 12.276040 17.031250 12.546875 Z M19.203125 14.671875 C20.494798 13.473952 21.843743 13.343745 23.250000 14.281250 L23.937500 13.250000 C21.989574 11.937493 20.130217 12.109367 18.359375 13.765625 Z M30.468750 22.687500 L31.375000 21.812500 C31.239583 21.677083 31.109376 21.541667 30.984375 21.406250 C30.859374 21.270833 30.734376 21.135417 30.609375 21.000000 C30.015622 20.354163 29.406253 19.747399 28.781250 19.179688 C28.156247 18.611976 27.395838 18.135419 26.500000 17.750000 L26.000000 18.906250 C26.937505 19.302085 27.718747 19.822913 28.343750 20.468750 C28.968753 21.114587 29.677079 21.854162 30.468750 22.687500 Z M14.578125 6.984375 L15.796875 6.734375 C15.692708 6.234372 15.463543 5.611983 15.109375 4.867188 C14.755207 4.122392 14.442710 3.473961 14.171875 2.921875 L13.046875 3.484375 C13.317710 4.036461 13.619790 4.651038 13.953125 5.328125 C14.286460 6.005212 14.494791 6.557290 14.578125 6.984375 Z M29.921875 18.296875 L30.640625 17.265625 C29.567703 16.515621 28.497401 15.963543 27.429688 15.609375 C26.361974 15.255207 25.302089 14.994792 24.250000 14.828125 L24.062500 16.078125 C25.260423 16.255209 26.325516 16.520832 27.257812 16.875000 C28.190109 17.229168 29.078121 17.703122 29.921875 18.296875 Z M12.843750 2.734375 C13.052084 2.734375 13.229166 2.658855 13.375000 2.507812 C13.520834 2.356770 13.593750 2.177084 13.593750 1.968750 C13.593750 1.760416 13.520834 1.583334 13.375000 1.437500 C13.229166 1.291666 13.052084 1.218750 12.843750 1.218750 C12.635416 1.218750 12.455730 1.291666 12.304688 1.437500 C12.153645 1.583334 12.078125 1.760416 12.078125 1.968750 C12.078125 2.177084 12.153645 2.356770 12.304688 2.507812 C12.455730 2.658855 12.635416 2.734375 12.843750 2.734375 Z M16.234375 9.625000 L17.484375 9.625000 C17.484375 8.624995 17.640623 7.533860 17.953125 6.351562 C18.265627 5.169265 18.677081 4.088547 19.187500 3.109375 L18.093750 2.515625 C17.531247 3.567714 17.080731 4.744785 16.742188 6.046875 C16.403644 7.348965 16.234375 8.541661 16.234375 9.625000 Z M25.203125 14.453125 C26.442715 14.098957 27.489579 14.078123 28.343750 14.390625 L28.781250 13.203125 C27.677078 12.807290 26.369799 12.817706 24.859375 13.234375 Z M22.843750 11.437500 C24.166673 9.843742 25.859365 8.911460 27.921875 8.640625 L27.765625 7.390625 C25.369780 7.713543 23.406258 8.802074 21.875000 10.656250 Z M24.218750 12.531250 C26.250010 11.822913 28.203116 11.630207 30.078125 11.953125 L30.296875 10.734375 C28.234365 10.359373 26.072928 10.562496 23.812500 11.343750 Z M20.015625 8.328125 C20.567711 6.953118 21.252600 5.861983 22.070312 5.054688 C22.888025 4.247392 23.937494 3.635419 25.218750 3.218750 L24.812500 2.031250 C23.364576 2.510419 22.164067 3.218745 21.210938 4.156250 C20.257808 5.093755 19.473961 6.328117 18.859375 7.859375 Z M22.046875 8.968750 C22.671878 7.979162 23.539057 7.156253 24.648438 6.500000 C25.757818 5.843747 26.932285 5.463542 28.171875 5.359375 L28.046875 4.109375 C26.630201 4.234376 25.283861 4.677080 24.007812 5.437500 C22.731764 6.197920 21.723962 7.156244 20.984375 8.312500 Z M6.609375 7.203125 C6.817709 7.203125 6.994791 7.127605 7.140625 6.976562 C7.286459 6.825520 7.359375 6.645834 7.359375 6.437500 C7.359375 6.229166 7.286459 6.052084 7.140625 5.906250 C6.994791 5.760416 6.817709 5.687500 6.609375 5.687500 C6.401041 5.687500 6.221355 5.760416 6.070312 5.906250 C5.919270 6.052084 5.843750 6.229166 5.843750 6.437500 C5.843750 6.645834 5.919270 6.825520 6.070312 6.976562 C6.221355 7.127605 6.401041 7.203125 6.609375 7.203125 Z M19.296875 2.421875 C19.505209 2.421875 19.682291 2.346355 19.828125 2.195312 C19.973959 2.044270 20.046875 1.864584 20.046875 1.656250 C20.046875 1.447916 19.973959 1.270834 19.828125 1.125000 C19.682291 0.979166 19.505209 0.906250 19.296875 0.906250 C19.088541 0.906250 18.908855 0.979166 18.757812 1.125000 C18.606770 1.270834 18.531250 1.447916 18.531250 1.656250 C18.531250 1.864584 18.606770 2.044270 18.757812 2.195312 C18.908855 2.346355 19.088541 2.421875 19.296875 2.421875 Z M26.328125 2.937500 C26.536459 2.937500 26.713541 2.861980 26.859375 2.710938 C27.005209 2.559895 27.078125 2.380209 27.078125 2.171875 C27.078125 1.963541 27.005209 1.786459 26.859375 1.640625 C26.713541 1.494791 26.536459 1.421875 26.328125 1.421875 C26.119791 1.421875 25.940105 1.494791 25.789062 1.640625 C25.638020 1.786459 25.562500 1.963541 25.562500 2.171875 C25.562500 2.380209 25.638020 2.559895 25.789062 2.710938 C25.940105 2.861980 26.119791 2.937500 26.328125 2.937500 Z M29.437500 5.312500 C29.645834 5.312500 29.822916 5.236980 29.968750 5.085938 C30.114584 4.934895 30.187500 4.755209 30.187500 4.546875 C30.187500 4.338541 30.114584 4.161459 29.968750 4.015625 C29.822916 3.869791 29.645834 3.796875 29.437500 3.796875 C29.229166 3.796875 29.049480 3.869791 28.898438 4.015625 C28.747395 4.161459 28.671875 4.338541 28.671875 4.546875 C28.671875 4.755209 28.747395 4.934895 28.898438 5.085938 C29.049480 5.236980 29.229166 5.312500 29.437500 5.312500 Z M26.859375 31.296875 C27.067709 31.296875 27.244791 31.221355 27.390625 31.070312 C27.536459 30.919270 27.609375 30.739584 27.609375 30.531250 C27.609375 30.322916 27.536459 30.145834 27.390625 30.000000 C27.244791 29.854166 27.067709 29.781250 26.859375 29.781250 C26.651041 29.781250 26.471355 29.854166 26.320312 30.000000 C26.169270 30.145834 26.093750 30.322916 26.093750 30.531250 C26.093750 30.739584 26.169270 30.919270 26.320312 31.070312 C26.471355 31.221355 26.651041 31.296875 26.859375 31.296875 Z M29.500000 25.359375 C29.708334 25.359375 29.885416 25.283855 30.031250 25.132812 C30.177084 24.981770 30.250000 24.802084 30.250000 24.593750 C30.250000 24.385416 30.177084 24.208334 30.031250 24.062500 C29.885416 23.916666 29.708334 23.843750 29.500000 23.843750 C29.291666 23.843750 29.111980 23.916666 28.960938 24.062500 C28.809895 24.208334 28.734375 24.385416 28.734375 24.593750 C28.734375 24.802084 28.809895 24.981770 28.960938 25.132812 C29.111980 25.283855 29.291666 25.359375 29.500000 25.359375 Z M29.968750 15.109375 C30.177084 15.109375 30.354166 15.033855 30.500000 14.882812 C30.645834 14.731770 30.718750 14.552084 30.718750 14.343750 C30.718750 14.135416 30.645834 13.958334 30.500000 13.812500 C30.354166 13.666666 30.177084 13.593750 29.968750 13.593750 C29.760416 13.593750 29.580730 13.666666 29.429688 13.812500 C29.278645 13.958334 29.203125 14.135416 29.203125 14.343750 C29.203125 14.552084 29.278645 14.731770 29.429688 14.882812 C29.580730 15.033855 29.760416 15.109375 29.968750 15.109375 Z M14.437500 30.468750 C14.645834 30.468750 14.822916 30.393230 14.968750 30.242188 C15.114584 30.091145 15.187500 29.911459 15.187500 29.703125 C15.187500 29.494791 15.114584 29.317709 14.968750 29.171875 C14.822916 29.026041 14.645834 28.953125 14.437500 28.953125 C14.229166 28.953125 14.049480 29.026041 13.898438 29.171875 C13.747395 29.317709 13.671875 29.494791 13.671875 29.703125 C13.671875 29.911459 13.747395 30.091145 13.898438 30.242188 C14.049480 30.393230 14.229166 30.468750 14.437500 30.468750 Z M18.343750 25.234375 C18.552084 25.234375 18.729166 25.158855 18.875000 25.007812 C19.020834 24.856770 19.093750 24.677084 19.093750 24.468750 C19.093750 24.260416 19.020834 24.083334 18.875000 23.937500 C18.729166 23.791666 18.552084 23.718750 18.343750 23.718750 C18.135416 23.718750 17.955730 23.791666 17.804688 23.937500 C17.653645 24.083334 17.578125 24.260416 17.578125 24.468750 C17.578125 24.677084 17.653645 24.856770 17.804688 25.007812 C17.955730 25.158855 18.135416 25.234375 18.343750 25.234375 Z M7.671875 31.015625 C7.880209 31.015625 8.057291 30.940105 8.203125 30.789062 C8.348959 30.638020 8.421875 30.458334 8.421875 30.250000 C8.421875 30.041666 8.348959 29.864584 8.203125 29.718750 C8.057291 29.572916 7.880209 29.500000 7.671875 29.500000 C7.463541 29.500000 7.283855 29.572916 7.132812 29.718750 C6.981770 29.864584 6.906250 30.041666 6.906250 30.250000 C6.906250 30.458334 6.981770 30.638020 7.132812 30.789062 C7.283855 30.940105 7.463541 31.015625 7.671875 31.015625 Z M5.578125 26.562500 C5.786459 26.562500 5.963541 26.486980 6.109375 26.335938 C6.255209 26.184895 6.328125 26.005209 6.328125 25.796875 C6.328125 25.588541 6.255209 25.411459 6.109375 25.265625 C5.963541 25.119791 5.786459 25.046875 5.578125 25.046875 C5.369791 25.046875 5.190105 25.119791 5.039062 25.265625 C4.888020 25.411459 4.812500 25.588541 4.812500 25.796875 C4.812500 26.005209 4.888020 26.184895 5.039062 26.335938 C5.190105 26.486980 5.369791 26.562500 5.578125 26.562500 Z M2.765625 27.484375 C2.973959 27.484375 3.151041 27.408855 3.296875 27.257812 C3.442709 27.106770 3.515625 26.927084 3.515625 26.718750 C3.515625 26.510416 3.442709 26.333334 3.296875 26.187500 C3.151041 26.041666 2.973959 25.968750 2.765625 25.968750 C2.557291 25.968750 2.377605 26.041666 2.226562 26.187500 C2.075520 26.333334 2.000000 26.510416 2.000000 26.718750 C2.000000 26.927084 2.075520 27.106770 2.226562 27.257812 C2.377605 27.408855 2.557291 27.484375 2.765625 27.484375 Z M2.218750 17.718750 C2.427084 17.718750 2.604166 17.643230 2.750000 17.492188 C2.895834 17.341145 2.968750 17.161459 2.968750 16.953125 C2.968750 16.744791 2.895834 16.567709 2.750000 16.421875 C2.604166 16.276041 2.427084 16.203125 2.218750 16.203125 C2.010416 16.203125 1.830730 16.276041 1.679688 16.421875 C1.528645 16.567709 1.453125 16.744791 1.453125 16.953125 C1.453125 17.161459 1.528645 17.341145 1.679688 17.492188 C1.830730 17.643230 2.010416 17.718750 2.218750 17.718750 Z M18.484375 15.187500 C17.953122 15.135416 17.572918 15.007814 17.343750 14.804688 C17.114582 14.601561 16.942709 14.255211 16.828125 13.765625 L16.359375 13.765625 C16.244791 14.255211 16.072918 14.601561 15.843750 14.804688 C15.614582 15.007814 15.234378 15.135416 14.703125 15.187500 L14.703125 15.687500 C15.234378 15.729167 15.614582 15.854166 15.843750 16.062500 C16.072918 16.270834 16.244791 16.619789 16.359375 17.109375 L16.828125 17.109375 C16.942709 16.619789 17.114582 16.270834 17.343750 16.062500 C17.572918 15.854166 17.953122 15.729167 18.484375 15.687500 Z M22.656250 29.546875 C22.864584 29.546875 23.041666 29.471355 23.187500 29.320312 C23.333334 29.169270 23.406250 28.989584 23.406250 28.781250 C23.406250 28.572916 23.333334 28.395834 23.187500 28.250000 C23.041666 28.104166 22.864584 28.031250 22.656250 28.031250 C22.447916 28.031250 22.268230 28.104166 22.117188 28.250000 C21.966145 28.395834 21.890625 28.572916 21.890625 28.781250 C21.890625 28.989584 21.966145 29.169270 22.117188 29.320312 C22.268230 29.471355 22.447916 29.546875 22.656250 29.546875 Z M36.718750 27.343750" /></svg>