<svg version="1.1" xmlns="http://www.w3.org/2000/svg" style="fill:rgba(0,0,0,1.0)" width="256" height="256" viewBox="0 0 35.62803214851984 32.8125"><path fill="rgb(255, 255, 255)" d="M15.046875 32.812500 C11.828109 32.812500 8.966158 32.143236 6.460938 30.804688 C3.955717 29.466139 1.927091 27.453138 0.375000 24.765625 C0.124999 24.317706 0.049479 23.901044 0.148438 23.515625 C0.247396 23.130206 0.471352 22.843751 0.820312 22.656250 C1.169273 22.468749 1.583331 22.463541 2.062500 22.640625 C2.760420 22.890626 3.507809 23.062500 4.304688 23.156250 C5.101566 23.250000 5.927079 23.296875 6.781250 23.296875 C8.208340 23.296875 9.442703 23.203126 10.484375 23.015625 C11.526047 22.828124 12.182290 22.552085 12.453125 22.187500 C12.494792 22.135416 12.552083 21.989585 12.625000 21.750000 C12.687500 21.510415 12.833332 21.286459 13.062500 21.078125 C13.166667 20.984375 13.283854 20.901042 13.414062 20.828125 C13.544271 20.755208 13.656250 20.703125 13.750000 20.671875 C13.864584 20.630208 13.953125 20.585938 14.015625 20.539062 C14.078125 20.492187 14.109375 20.437500 14.109375 20.375000 C14.109375 20.302083 13.976564 20.169272 13.710938 19.976562 C13.445311 19.783853 13.177085 19.507814 12.906250 19.148438 C12.635415 18.789061 12.500000 18.333336 12.500000 17.781250 C12.500000 17.291664 12.643228 16.895835 12.929688 16.593750 C13.216147 16.291665 13.692705 16.067709 14.359375 15.921875 C15.692715 15.619790 16.705726 14.981776 17.398438 14.007812 C18.091149 13.033849 18.437500 11.791674 18.437500 10.281250 C18.437500 9.458329 18.299481 8.570317 18.023438 7.617188 C17.747394 6.664058 17.380211 5.750004 16.921875 4.875000 C16.463539 3.999996 15.953128 3.265628 15.390625 2.671875 C14.796872 2.036455 14.635415 1.432295 14.906250 0.859375 C15.177085 0.286455 15.828120 -0.000000 16.859375 -0.000000 C18.255215 -0.000000 19.627597 0.294268 20.976562 0.882812 C22.325528 1.471357 23.585932 2.294266 24.757812 3.351562 C25.929693 4.408859 26.963537 5.645826 27.859375 7.062500 C28.755213 8.479174 29.458331 10.026033 29.968750 11.703125 C30.479169 13.380217 30.734375 15.130199 30.734375 16.953125 C30.734375 19.255220 30.343754 21.372386 29.562500 23.304688 C28.781246 25.236989 27.684903 26.914055 26.273438 28.335938 C24.861972 29.757820 23.200530 30.859371 21.289062 31.640625 C19.377595 32.421879 17.296886 32.812500 15.046875 32.812500 Z M15.921875 24.171875 C14.796869 24.171875 13.776046 23.718755 12.859375 22.812500 L13.968750 21.703125 C14.291668 22.015627 14.601561 22.244791 14.898438 22.390625 C15.195314 22.536459 15.536456 22.609375 15.921875 22.609375 C16.640629 22.609375 17.416662 22.385419 18.250000 21.937500 L18.984375 23.312500 C17.921870 23.885420 16.901047 24.171875 15.921875 24.171875 Z M15.046875 31.015625 C17.078135 31.015625 18.937492 30.677087 20.625000 30.000000 C22.312508 29.322913 23.770827 28.361985 25.000000 27.117188 C26.229173 25.872390 27.179684 24.388029 27.851562 22.664062 C28.523441 20.940096 28.859375 19.036469 28.859375 16.953125 C28.859375 15.421867 28.643231 13.911466 28.210938 12.421875 C27.778644 10.932284 27.179691 9.533861 26.414062 8.226562 C25.648434 6.919264 24.763026 5.765630 23.757812 4.765625 C22.752599 3.765620 21.677089 2.981774 20.531250 2.414062 C19.385411 1.846351 18.213548 1.562500 17.015625 1.562500 C16.880208 1.562500 16.791667 1.598958 16.750000 1.671875 C16.708333 1.744792 16.723958 1.828125 16.796875 1.921875 C17.588546 2.869796 18.231768 3.822912 18.726562 4.781250 C19.221357 5.739588 19.583332 6.679683 19.812500 7.601562 C20.041668 8.523442 20.156250 9.416662 20.156250 10.281250 C20.156250 12.166676 19.669276 13.742181 18.695312 15.007812 C17.721349 16.273444 16.385425 17.088540 14.687500 17.453125 C14.468749 17.494792 14.309896 17.559895 14.210938 17.648438 C14.111979 17.736980 14.062500 17.869791 14.062500 18.046875 C14.062500 18.359377 14.205728 18.622395 14.492188 18.835938 C14.778647 19.049480 15.062499 19.273436 15.343750 19.507812 C15.625001 19.742189 15.765625 20.052081 15.765625 20.437500 C15.765625 20.822919 15.645835 21.197915 15.406250 21.562500 C15.166665 21.927085 14.864585 22.161458 14.500000 22.265625 C14.374999 22.296875 14.291667 22.333333 14.250000 22.375000 C14.218750 22.406250 14.182292 22.494791 14.140625 22.640625 C14.067708 22.890626 13.968751 23.098957 13.843750 23.265625 C13.385414 23.880211 12.520840 24.325519 11.250000 24.601562 C9.979160 24.877606 8.489592 25.015625 6.781250 25.015625 C6.156247 25.015625 5.510420 24.960938 4.843750 24.851562 C4.177080 24.742187 3.593752 24.622396 3.093750 24.492188 C2.593748 24.361979 2.270834 24.270834 2.125000 24.218750 C2.041666 24.187500 1.981771 24.195312 1.945312 24.242188 C1.908854 24.289063 1.911458 24.348958 1.953125 24.421875 C3.307298 26.453135 5.091135 28.059890 7.304688 29.242188 C9.518240 30.424485 12.098944 31.015625 15.046875 31.015625 Z M22.328125 17.593750 C21.880206 17.593750 21.520835 17.442710 21.250000 17.140625 C20.979165 16.838540 20.843750 16.447919 20.843750 15.968750 C20.843750 15.416664 21.020832 14.968752 21.375000 14.625000 C21.729168 14.281248 22.192705 14.109375 22.765625 14.109375 C23.442712 14.109375 24.010414 14.354164 24.468750 14.843750 C24.927086 15.333336 25.223958 16.005204 25.359375 16.859375 L24.421875 17.062500 C24.317708 16.791665 24.221355 16.567709 24.132812 16.390625 C24.044270 16.213541 23.932292 16.125000 23.796875 16.125000 C23.692708 16.125000 23.640625 16.192708 23.640625 16.328125 C23.640625 16.588543 23.552084 16.864582 23.375000 17.156250 C23.197916 17.447918 22.848961 17.593750 22.328125 17.593750 Z M35.734375 27.343750" /></svg>