<svg version="1.1" xmlns="http://www.w3.org/2000/svg" style="fill:rgba(0,0,0,1.0)" width="256" height="256" viewBox="0 0 36.671875 32.8125"><path fill="rgb(255, 255, 255)" d="M16.359375 32.812500 C15.953123 32.812500 15.554689 32.731772 15.164062 32.570312 C14.773436 32.408853 14.385419 32.171877 14.000000 31.859375 L12.515625 30.625000 L10.046875 30.625000 C9.109370 30.625000 8.320316 30.450523 7.679688 30.101562 C7.039059 29.752602 6.536460 29.140629 6.171875 28.265625 L5.343750 26.281250 L4.718750 26.078125 C3.802079 25.776040 3.111981 25.328128 2.648438 24.734375 C2.184894 24.140622 1.953125 23.364588 1.953125 22.406250 L1.953125 20.234375 L0.906250 18.859375 C0.593748 18.442706 0.364584 18.026044 0.218750 17.609375 C0.072916 17.192706 0.000000 16.791669 0.000000 16.406250 C0.000000 16.010415 0.072916 15.606773 0.218750 15.195312 C0.364584 14.783852 0.593748 14.369794 0.906250 13.953125 L1.953125 12.578125 L1.953125 10.406250 C1.953125 9.447912 2.184894 8.669274 2.648438 8.070312 C3.111981 7.471351 3.802079 7.026043 4.718750 6.734375 L5.343750 6.531250 L6.171875 4.546875 C6.536460 3.671871 7.039059 3.059898 7.679688 2.710938 C8.320316 2.361977 9.109370 2.187500 10.046875 2.187500 L12.515625 2.187500 L14.000000 0.953125 C14.385419 0.640623 14.773436 0.403647 15.164062 0.242188 C15.554689 0.080728 15.953123 -0.000000 16.359375 -0.000000 C16.765627 -0.000000 17.164061 0.080728 17.554688 0.242188 C17.945314 0.403647 18.333331 0.640623 18.718750 0.953125 L20.203125 2.187500 L22.671875 2.187500 C23.609380 2.187500 24.398434 2.361977 25.039062 2.710938 C25.679691 3.059898 26.182290 3.671871 26.546875 4.546875 L27.375000 6.531250 L28.000000 6.734375 C28.916671 7.026043 29.606769 7.471351 30.070312 8.070312 C30.533856 8.669274 30.765625 9.447912 30.765625 10.406250 L30.765625 12.578125 L31.812500 13.953125 C32.125002 14.369794 32.354166 14.783852 32.500000 15.195312 C32.645834 15.606773 32.718750 16.010415 32.718750 16.406250 C32.718750 16.791669 32.645834 17.192706 32.500000 17.609375 C32.354166 18.026044 32.125002 18.442706 31.812500 18.859375 L30.765625 20.234375 L30.765625 22.406250 C30.765625 23.364588 30.533856 24.140622 30.070312 24.734375 C29.606769 25.328128 28.916671 25.776040 28.000000 26.078125 L27.375000 26.281250 L26.546875 28.265625 C26.182290 29.140629 25.679691 29.752602 25.039062 30.101562 C24.398434 30.450523 23.609380 30.625000 22.671875 30.625000 L20.203125 30.625000 L18.718750 31.859375 C18.333331 32.171877 17.945314 32.408853 17.554688 32.570312 C17.164061 32.731772 16.765627 32.812500 16.359375 32.812500 Z M16.359375 30.937500 C16.723960 30.937500 17.114581 30.760418 17.531250 30.406250 L19.562500 28.734375 L22.718750 28.734375 C23.302086 28.734375 23.747394 28.656251 24.054688 28.500000 C24.361981 28.343749 24.614582 28.026044 24.812500 27.546875 L25.984375 24.765625 L27.437500 24.281250 C27.958336 24.104166 28.330728 23.880210 28.554688 23.609375 C28.778647 23.338540 28.890625 22.932294 28.890625 22.390625 L28.890625 19.593750 L30.312500 17.734375 C30.489584 17.494790 30.622395 17.268230 30.710938 17.054688 C30.799480 16.841145 30.843750 16.625001 30.843750 16.406250 C30.843750 16.187499 30.799480 15.968751 30.710938 15.750000 C30.622395 15.531249 30.489584 15.307293 30.312500 15.078125 L28.890625 13.218750 L28.890625 10.421875 C28.890625 9.880206 28.778647 9.471356 28.554688 9.195312 C28.330728 8.919269 27.958336 8.697917 27.437500 8.531250 L25.984375 8.046875 L24.812500 5.265625 C24.614582 4.776039 24.361981 4.455730 24.054688 4.304688 C23.747394 4.153645 23.302086 4.078125 22.718750 4.078125 L19.562500 4.078125 L17.531250 2.406250 C17.114581 2.052082 16.723960 1.875000 16.359375 1.875000 C15.994790 1.875000 15.604169 2.052082 15.187500 2.406250 L13.156250 4.078125 L10.000000 4.078125 C9.427080 4.078125 8.986981 4.153645 8.679688 4.304688 C8.372394 4.455730 8.114584 4.776039 7.906250 5.265625 L6.734375 8.046875 L5.281250 8.531250 C4.760414 8.697917 4.388022 8.919269 4.164062 9.195312 C3.940103 9.471356 3.828125 9.880206 3.828125 10.421875 L3.828125 13.218750 L2.406250 15.078125 C2.229166 15.307293 2.096355 15.531249 2.007812 15.750000 C1.919270 15.968751 1.875000 16.187499 1.875000 16.406250 C1.875000 16.625001 1.919270 16.841145 2.007812 17.054688 C2.096355 17.268230 2.229166 17.494790 2.406250 17.734375 L3.828125 19.593750 L3.828125 22.390625 C3.828125 22.932294 3.940103 23.338540 4.164062 23.609375 C4.388022 23.880210 4.760414 24.104166 5.281250 24.281250 L6.734375 24.765625 L7.906250 27.546875 C8.114584 28.026044 8.372394 28.343749 8.679688 28.500000 C8.986981 28.656251 9.427080 28.734375 10.000000 28.734375 L13.156250 28.734375 L15.187500 30.406250 C15.604169 30.760418 15.994790 30.937500 16.359375 30.937500 Z M16.328125 26.109375 C15.067702 26.109375 13.882818 25.875002 12.773438 25.406250 C11.664057 24.937498 10.684900 24.291671 9.835938 23.468750 C8.986975 22.645829 8.322919 21.690110 7.843750 20.601562 C7.364581 19.513015 7.125000 18.348965 7.125000 17.109375 C7.125000 15.317699 7.494788 13.705736 8.234375 12.273438 C8.973962 10.841139 10.031243 9.645838 11.406250 8.687500 C12.781257 7.729162 14.427074 7.067710 16.343750 6.703125 L16.656250 8.390625 C14.187488 8.869794 12.268236 9.874992 10.898438 11.406250 C9.528639 12.937508 8.843750 14.838530 8.843750 17.109375 C8.843750 18.442715 9.182288 19.661453 9.859375 20.765625 C10.536462 21.869797 11.442703 22.749997 12.578125 23.406250 C13.713547 24.062503 14.963535 24.390625 16.328125 24.390625 C17.765632 24.390625 19.052078 24.083336 20.187500 23.468750 C21.322922 22.854164 22.218747 22.010422 22.875000 20.937500 C23.531253 19.864578 23.859375 18.645840 23.859375 17.281250 C23.859375 16.281245 23.617190 15.390629 23.132812 14.609375 C22.648435 13.828121 21.984379 13.210940 21.140625 12.757812 C20.296871 12.304685 19.343755 12.078125 18.281250 12.078125 C17.583330 12.078125 16.916670 12.273436 16.281250 12.664062 C15.645830 13.054689 15.127606 13.562497 14.726562 14.187500 C14.325519 14.812503 14.125000 15.473955 14.125000 16.171875 C14.125000 16.994796 14.361977 17.674476 14.835938 18.210938 C15.309898 18.747399 15.895830 19.015625 16.593750 19.015625 C17.177086 19.015625 17.640623 18.830731 17.984375 18.460938 C18.328127 18.091144 18.500000 17.604170 18.500000 17.000000 L20.218750 16.968750 C20.218750 18.062505 19.882816 18.963538 19.210938 19.671875 C18.539059 20.380212 17.666672 20.734375 16.593750 20.734375 C15.812496 20.734375 15.104170 20.533856 14.468750 20.132812 C13.833330 19.731769 13.330731 19.184899 12.960938 18.492188 C12.591144 17.799476 12.406250 17.026046 12.406250 16.171875 C12.406250 15.151037 12.682289 14.200525 13.234375 13.320312 C13.786461 12.440100 14.510412 11.726565 15.406250 11.179688 C16.302088 10.632810 17.260412 10.359375 18.281250 10.359375 C19.656257 10.359375 20.893224 10.664059 21.992188 11.273438 C23.091151 11.882816 23.963538 12.708328 24.609375 13.750000 C25.255212 14.791672 25.578125 15.968743 25.578125 17.281250 C25.578125 18.541673 25.343752 19.708328 24.875000 20.781250 C24.406248 21.854172 23.755212 22.789059 22.921875 23.585938 C22.088538 24.382816 21.109381 25.002602 19.984375 25.445312 C18.859369 25.888023 17.640632 26.109375 16.328125 26.109375 Z M36.671875 27.343750" /></svg>