<svg version="1.1" xmlns="http://www.w3.org/2000/svg" style="fill:rgba(0,0,0,1.0)" width="256" height="256" viewBox="0 0 37.5 19.53125"><path fill="rgb(255, 255, 255)" d="M26.343750 19.531250 C25.208328 19.531250 23.973965 19.421876 22.640625 19.203125 C21.307285 18.984374 19.783863 18.645836 18.070312 18.187500 C16.356762 17.729164 14.348970 17.140629 12.046875 16.421875 L11.968750 17.625000 C10.781244 17.427082 9.552090 17.177085 8.281250 16.875000 C7.010410 16.572915 5.770839 16.231773 4.562500 15.851562 C3.354161 15.471352 2.244797 15.078127 1.234375 14.671875 L0.843750 11.343750 C0.562499 10.833331 0.351563 10.255212 0.210938 9.609375 C0.070312 8.963538 0.000000 8.291670 0.000000 7.593750 C0.000000 6.677079 0.117186 5.778650 0.351562 4.898438 C0.585939 4.018225 0.901040 3.229170 1.296875 2.531250 C1.526043 2.135415 1.804686 1.875001 2.132812 1.750000 C2.460939 1.624999 2.906247 1.562500 3.468750 1.562500 C4.093753 1.562500 4.825517 1.695311 5.664062 1.960938 C6.502608 2.226564 7.374995 2.570310 8.281250 2.992188 C9.187505 3.414065 10.052079 3.859373 10.875000 4.328125 C12.697926 5.359380 14.653635 6.302079 16.742188 7.156250 C18.830740 8.010421 21.010405 8.697914 23.281250 9.218750 C23.708335 9.020832 24.111977 8.802085 24.492188 8.562500 C24.872398 8.322915 25.239582 8.067710 25.593750 7.796875 C26.687505 8.119793 27.755203 8.606768 28.796875 9.257812 C29.838547 9.908857 30.778642 10.632809 31.617188 11.429688 C32.455733 12.226566 33.124998 13.028642 33.625000 13.835938 C34.125002 14.643233 34.375000 15.369788 34.375000 16.015625 C34.375000 16.796879 34.062503 17.447914 33.437500 17.968750 C32.812497 18.489586 31.903652 18.880207 30.710938 19.140625 C29.518223 19.401043 28.062509 19.531250 26.343750 19.531250 Z M26.343750 17.671875 C27.625006 17.671875 28.723954 17.598959 29.640625 17.453125 C30.557296 17.307291 31.263018 17.109376 31.757812 16.859375 C32.252607 16.609374 32.500000 16.328127 32.500000 16.015625 C32.500000 15.578123 32.299481 15.070315 31.898438 14.492188 C31.497394 13.914060 30.968753 13.328128 30.312500 12.734375 C29.656247 12.140622 28.937504 11.591148 28.156250 11.085938 C27.374996 10.580727 26.598962 10.182293 25.828125 9.890625 C24.890620 10.567712 23.906255 11.078123 22.875000 11.421875 C21.843745 11.765627 20.687506 11.937500 19.406250 11.937500 C18.437495 11.937500 17.372402 11.755210 16.210938 11.390625 C15.049473 11.026040 13.817715 10.526045 12.515625 9.890625 C11.213535 9.255205 9.864590 8.536462 8.468750 7.734375 C7.072910 6.932288 5.656257 6.093754 4.218750 5.218750 C3.895832 5.020832 3.598960 4.833334 3.328125 4.656250 C3.057290 4.479166 2.807293 4.307292 2.578125 4.140625 C2.348957 4.651044 2.174480 5.210934 2.054688 5.820312 C1.934895 6.429691 1.875000 7.036455 1.875000 7.640625 C1.875000 8.255211 1.940104 8.833331 2.070312 9.375000 C2.200521 9.916669 2.395832 10.364582 2.656250 10.718750 L2.812500 11.859375 L6.953125 13.078125 C10.286475 14.057297 13.179675 14.888017 15.632812 15.570312 C18.085950 16.252608 20.184887 16.773436 21.929688 17.132812 C23.674488 17.492189 25.145827 17.671875 26.343750 17.671875 Z M37.500000 21.093750" /></svg>