<svg version="1.1" xmlns="http://www.w3.org/2000/svg" style="fill:rgba(0,0,0,1.0)" width="256" height="256" viewBox="0 0 35.9375 32.8125"><path fill="rgb(255, 255, 255)" d="M4.421875 22.781250 C3.703121 22.781250 3.005212 22.614585 2.328125 22.281250 C1.651038 21.947915 1.093752 21.442712 0.656250 20.765625 C0.218748 20.088538 0.000000 19.244797 0.000000 18.234375 C0.000000 17.057286 0.289060 16.002609 0.867188 15.070312 C1.445315 14.138016 2.213537 13.403649 3.171875 12.867188 C4.130213 12.330726 5.182286 12.062500 6.328125 12.062500 C7.223963 12.062500 8.062496 12.210936 8.843750 12.507812 C9.625004 12.804689 10.333330 13.223956 10.968750 13.765625 L10.593750 14.109375 C10.333332 13.557289 10.135417 12.976566 10.000000 12.367188 C9.864583 11.757809 9.796875 11.093754 9.796875 10.375000 C9.796875 9.020827 10.072914 7.718756 10.625000 6.468750 C11.177086 5.218744 11.898433 4.046880 12.789062 2.953125 C13.679692 1.859370 14.624995 0.875004 15.625000 -0.000000 C16.625005 0.875004 17.570308 1.859370 18.460938 2.953125 C19.351567 4.046880 20.072914 5.218744 20.625000 6.468750 C21.177086 7.718756 21.453125 9.020827 21.453125 10.375000 C21.453125 11.093754 21.385417 11.757809 21.250000 12.367188 C21.114583 12.976566 20.916668 13.557289 20.656250 14.109375 L20.281250 13.765625 C20.916670 13.223956 21.624996 12.804689 22.406250 12.507812 C23.187504 12.210936 24.026037 12.062500 24.921875 12.062500 C26.067714 12.062500 27.119787 12.330726 28.078125 12.867188 C29.036463 13.403649 29.804685 14.138016 30.382812 15.070312 C30.960940 16.002609 31.250000 17.057286 31.250000 18.234375 C31.250000 19.244797 31.031252 20.088538 30.593750 20.765625 C30.156248 21.442712 29.598962 21.947915 28.921875 22.281250 C28.244788 22.614585 27.546879 22.781250 26.828125 22.781250 C26.401040 22.781250 25.942711 22.734375 25.453125 22.640625 C25.661459 22.244790 25.802083 21.869793 25.875000 21.515625 C25.947917 21.161457 25.984375 20.822918 25.984375 20.500000 C25.984375 19.697913 25.802085 19.078127 25.437500 18.640625 C25.072915 18.203123 24.567712 17.984375 23.921875 17.984375 C23.276038 17.984375 22.744794 18.158852 22.328125 18.507812 C21.911456 18.856773 21.588543 19.343747 21.359375 19.968750 L19.906250 19.968750 C20.177085 18.979162 20.684892 18.166670 21.429688 17.531250 C22.174483 16.895830 23.005204 16.578125 23.921875 16.578125 C24.984380 16.578125 25.835934 16.950517 26.476562 17.695312 C27.117191 18.440108 27.437500 19.374994 27.437500 20.500000 C27.437500 20.791668 27.401042 21.088540 27.328125 21.390625 C27.255208 21.692710 27.119793 21.942707 26.921875 22.140625 L26.484375 21.296875 C26.536459 21.307292 26.593750 21.320312 26.656250 21.335938 C26.718750 21.351563 26.776041 21.359375 26.828125 21.359375 C27.276044 21.359375 27.718748 21.257814 28.156250 21.054688 C28.593752 20.851561 28.958332 20.520836 29.250000 20.062500 C29.541668 19.604164 29.687500 18.994795 29.687500 18.234375 C29.687500 17.348954 29.468752 16.546879 29.031250 15.828125 C28.593748 15.109371 28.015629 14.536460 27.296875 14.109375 C26.578121 13.682290 25.786463 13.468750 24.921875 13.468750 C23.588535 13.468750 22.341152 13.864579 21.179688 14.656250 C20.018223 15.447921 19.177086 16.526035 18.656250 17.890625 L18.656250 19.500000 L16.937500 19.500000 L16.937500 17.343750 C17.614587 16.427079 18.169269 15.617191 18.601562 14.914062 C19.033856 14.210934 19.356770 13.505212 19.570312 12.796875 C19.783855 12.088538 19.890625 11.281255 19.890625 10.375000 C19.890625 9.333328 19.692710 8.325526 19.296875 7.351562 C18.901040 6.377599 18.377607 5.453129 17.726562 4.578125 C17.075518 3.703121 16.375004 2.890629 15.625000 2.140625 C14.874996 2.890629 14.177087 3.703121 13.531250 4.578125 C12.885413 5.453129 12.361981 6.377599 11.960938 7.351562 C11.559894 8.325526 11.359375 9.333328 11.359375 10.375000 C11.359375 11.281255 11.466145 12.088538 11.679688 12.796875 C11.893230 13.505212 12.218748 14.210934 12.656250 14.914062 C13.093752 15.617191 13.645830 16.427079 14.312500 17.343750 L14.312500 19.500000 L12.593750 19.500000 L12.593750 17.890625 C12.072914 16.526035 11.231777 15.447921 10.070312 14.656250 C8.908848 13.864579 7.661465 13.468750 6.328125 13.468750 C5.473954 13.468750 4.684899 13.682290 3.960938 14.109375 C3.236976 14.536460 2.656252 15.109371 2.218750 15.828125 C1.781248 16.546879 1.562500 17.348954 1.562500 18.234375 C1.562500 18.994795 1.708332 19.604164 2.000000 20.062500 C2.291668 20.520836 2.658852 20.851561 3.101562 21.054688 C3.544273 21.257814 3.984373 21.359375 4.421875 21.359375 C4.473959 21.359375 4.531250 21.351563 4.593750 21.335938 C4.656250 21.320312 4.713541 21.307292 4.765625 21.296875 L4.328125 22.140625 C4.130207 21.942707 3.994792 21.692710 3.921875 21.390625 C3.848958 21.088540 3.812500 20.791668 3.812500 20.500000 C3.812500 19.374994 4.132809 18.440108 4.773438 17.695312 C5.414066 16.950517 6.265620 16.578125 7.328125 16.578125 C8.255213 16.578125 9.088538 16.895830 9.828125 17.531250 C10.567712 18.166670 11.072915 18.979162 11.343750 19.968750 L9.890625 19.968750 C9.661457 19.343747 9.338544 18.856773 8.921875 18.507812 C8.505206 18.158852 7.973962 17.984375 7.328125 17.984375 C6.692705 17.984375 6.190106 18.203123 5.820312 18.640625 C5.450519 19.078127 5.265625 19.697913 5.265625 20.500000 C5.265625 20.822918 5.304687 21.161457 5.382812 21.515625 C5.460938 21.869793 5.598957 22.244790 5.796875 22.640625 C5.317706 22.734375 4.859377 22.781250 4.421875 22.781250 Z M15.625000 32.812500 C14.624995 32.281247 13.817711 31.481776 13.203125 30.414062 C12.588539 29.346349 12.281250 28.140632 12.281250 26.796875 C12.281250 26.619791 12.309896 26.382814 12.367188 26.085938 C12.424479 25.789061 12.484375 25.572917 12.546875 25.437500 L12.656250 26.859375 C12.249998 27.369794 11.760420 27.760415 11.187500 28.031250 C10.614580 28.302085 9.973962 28.437500 9.265625 28.437500 C8.182286 28.437500 7.312503 28.153649 6.656250 27.585938 C5.999997 27.018226 5.671875 26.291671 5.671875 25.406250 C5.671875 24.802080 5.809894 24.291669 6.085938 23.875000 C6.361981 23.458331 6.703123 23.104168 7.109375 22.812500 C7.348960 23.229169 7.614582 23.513020 7.906250 23.664062 C8.197918 23.815105 8.505207 23.890625 8.828125 23.890625 C9.213544 23.890625 9.520832 23.739585 9.750000 23.437500 C9.979168 23.135415 10.093750 22.666670 10.093750 22.031250 L11.500000 22.031250 C11.458333 23.072922 11.210940 23.877601 10.757812 24.445312 C10.304685 25.013024 9.661462 25.296875 8.828125 25.296875 C8.411456 25.296875 8.033856 25.216147 7.695312 25.054688 C7.356769 24.893228 7.114584 24.677085 6.968750 24.406250 L7.531250 24.250000 C7.458333 24.385417 7.390625 24.546874 7.328125 24.734375 C7.265625 24.921876 7.234375 25.140624 7.234375 25.390625 C7.234375 25.890628 7.406248 26.289061 7.750000 26.585938 C8.093752 26.882814 8.598955 27.031250 9.265625 27.031250 C10.244797 27.031250 11.078122 26.598963 11.765625 25.734375 C12.453128 24.869787 12.796875 23.703132 12.796875 22.234375 L14.765625 22.234375 C14.463540 23.026046 14.234376 23.768226 14.078125 24.460938 C13.921874 25.153649 13.843750 25.833330 13.843750 26.500000 C13.843750 27.437505 13.997394 28.294267 14.304688 29.070312 C14.611981 29.846358 15.052080 30.494789 15.625000 31.015625 C16.208336 30.494789 16.651040 29.846358 16.953125 29.070312 C17.255210 28.294267 17.406250 27.437505 17.406250 26.500000 C17.406250 25.833330 17.328126 25.153649 17.171875 24.460938 C17.015624 23.768226 16.786460 23.026046 16.484375 22.234375 L18.453125 22.234375 C18.453125 23.703132 18.796872 24.869787 19.484375 25.734375 C20.171878 26.598963 21.005203 27.031250 21.984375 27.031250 C22.651045 27.031250 23.156248 26.882814 23.500000 26.585938 C23.843752 26.289061 24.015625 25.890628 24.015625 25.390625 C24.015625 25.140624 23.984375 24.921876 23.921875 24.734375 C23.859375 24.546874 23.791667 24.385417 23.718750 24.250000 L24.281250 24.406250 C24.135416 24.677085 23.895835 24.893228 23.562500 25.054688 C23.229165 25.216147 22.848960 25.296875 22.421875 25.296875 C21.588538 25.296875 20.945315 25.013024 20.492188 24.445312 C20.039060 23.877601 19.791667 23.072922 19.750000 22.031250 L21.156250 22.031250 C21.156250 22.666670 21.270832 23.135415 21.500000 23.437500 C21.729168 23.739585 22.036456 23.890625 22.421875 23.890625 C22.755210 23.890625 23.067707 23.815105 23.359375 23.664062 C23.651043 23.513020 23.911457 23.229169 24.140625 22.812500 C24.546877 23.104168 24.888019 23.458331 25.164062 23.875000 C25.440106 24.291669 25.578125 24.802080 25.578125 25.406250 C25.578125 26.291671 25.250003 27.018226 24.593750 27.585938 C23.937497 28.153649 23.067714 28.437500 21.984375 28.437500 C21.286455 28.437500 20.648440 28.302085 20.070312 28.031250 C19.492185 27.760415 19.000002 27.369794 18.593750 26.859375 L18.703125 25.437500 C18.765625 25.572917 18.825521 25.789061 18.882812 26.085938 C18.940104 26.382814 18.968750 26.619791 18.968750 26.796875 C18.968750 28.140632 18.661461 29.346349 18.046875 30.414062 C17.432289 31.481776 16.625005 32.281247 15.625000 32.812500 Z M8.921875 22.703125 C8.411456 22.703125 7.984377 22.533856 7.640625 22.195312 C7.296873 21.856769 7.125000 21.432294 7.125000 20.921875 C7.125000 20.421872 7.296873 20.000002 7.640625 19.656250 C7.984377 19.312498 8.411456 19.140625 8.921875 19.140625 L22.328125 19.140625 C22.838544 19.140625 23.265623 19.312498 23.609375 19.656250 C23.953127 20.000002 24.125000 20.421872 24.125000 20.921875 C24.125000 21.432294 23.953127 21.856769 23.609375 22.195312 C23.265623 22.533856 22.838544 22.703125 22.328125 22.703125 Z M8.921875 21.453125 L22.328125 21.453125 C22.494792 21.453125 22.627604 21.406250 22.726562 21.312500 C22.825521 21.218750 22.875000 21.088543 22.875000 20.921875 C22.875000 20.765624 22.825521 20.638021 22.726562 20.539062 C22.627604 20.440104 22.494792 20.390625 22.328125 20.390625 L8.921875 20.390625 C8.755208 20.390625 8.622396 20.440104 8.523438 20.539062 C8.424479 20.638021 8.375000 20.765624 8.375000 20.921875 C8.375000 21.088543 8.424479 21.218750 8.523438 21.312500 C8.622396 21.406250 8.755208 21.453125 8.921875 21.453125 Z M35.937500 27.343750" /></svg>