<svg version="1.1" xmlns="http://www.w3.org/2000/svg" style="fill:rgba(0,0,0,1.0)" width="256" height="256" viewBox="0 0 36.46875 32.8125"><path fill="rgb(255, 255, 255)" d="M4.109375 32.812500 C3.328121 32.812500 2.627607 32.638023 2.007812 32.289062 C1.388018 31.940102 0.898439 31.471357 0.539062 30.882812 C0.179686 30.294268 0.000000 29.635420 0.000000 28.906250 C0.000000 28.385414 0.101561 27.846357 0.304688 27.289062 C0.507814 26.731768 0.817706 26.244794 1.234375 25.828125 L25.812500 0.796875 C26.333336 0.265622 27.020829 -0.000000 27.875000 -0.000000 C28.656254 -0.000000 29.382809 0.187498 30.054688 0.562500 C30.726566 0.937502 31.270831 1.429684 31.687500 2.039062 C32.104169 2.648441 32.312500 3.307288 32.312500 4.015625 C32.312500 4.442710 32.265625 4.799478 32.171875 5.085938 C32.078125 5.372397 31.911460 5.635415 31.671875 5.875000 L6.796875 31.781250 C6.473957 32.125002 6.078127 32.382812 5.609375 32.554688 C5.140623 32.726563 4.640628 32.812500 4.109375 32.812500 Z M3.796875 30.687500 C3.380206 30.687500 3.007814 30.526043 2.679688 30.203125 C2.351561 29.880207 2.187500 29.505210 2.187500 29.078125 C2.187500 28.703123 2.312499 28.388022 2.562500 28.132812 C2.812501 27.877603 3.130206 27.750000 3.515625 27.750000 C3.942710 27.750000 4.317707 27.911457 4.640625 28.234375 C4.963543 28.557293 5.125000 28.932290 5.125000 29.359375 C5.125000 29.734377 5.000001 30.049478 4.750000 30.304688 C4.499999 30.559897 4.182294 30.687500 3.796875 30.687500 Z M4.015625 31.296875 C4.567711 31.296875 5.026040 31.114585 5.390625 30.750000 C5.755210 30.385415 5.937500 29.927086 5.937500 29.375000 C5.937500 28.687497 5.713544 28.119794 5.265625 27.671875 C4.817706 27.223956 4.260420 27.000000 3.593750 27.000000 C3.041664 27.000000 2.583335 27.182290 2.218750 27.546875 C1.854165 27.911460 1.671875 28.369789 1.671875 28.921875 C1.671875 29.609378 1.895831 30.177081 2.343750 30.625000 C2.791669 31.072919 3.348955 31.296875 4.015625 31.296875 Z M8.765625 24.656250 C8.432290 24.656250 8.140626 24.531251 7.890625 24.281250 C7.640624 24.031249 7.515625 23.739585 7.515625 23.406250 C7.515625 23.072915 7.640624 22.781251 7.890625 22.531250 C8.140626 22.281249 8.432290 22.156250 8.765625 22.156250 C9.098960 22.156250 9.390624 22.281249 9.640625 22.531250 C9.890626 22.781251 10.015625 23.072915 10.015625 23.406250 C10.015625 23.739585 9.890626 24.031249 9.640625 24.281250 C9.390624 24.531251 9.098960 24.656250 8.765625 24.656250 Z M11.906250 21.437500 C11.583332 21.437500 11.304689 21.320314 11.070312 21.085938 C10.835936 20.851561 10.718750 20.572918 10.718750 20.250000 C10.718750 19.927082 10.835936 19.648439 11.070312 19.414062 C11.304689 19.179686 11.583332 19.062500 11.906250 19.062500 C12.229168 19.062500 12.507811 19.179686 12.742188 19.414062 C12.976564 19.648439 13.093750 19.927082 13.093750 20.250000 C13.093750 20.572918 12.976564 20.851561 12.742188 21.085938 C12.507811 21.320314 12.229168 21.437500 11.906250 21.437500 Z M8.406250 27.515625 L24.843750 10.406250 C24.614582 9.666663 24.234378 9.033857 23.703125 8.507812 C23.171872 7.981768 22.541670 7.625001 21.812500 7.437500 L5.109375 24.437500 C5.119792 24.437500 5.127604 24.437500 5.132812 24.437500 C5.138021 24.437500 5.145833 24.437500 5.156250 24.437500 C5.552085 24.447917 5.984373 24.591144 6.453125 24.867188 C6.921877 25.143231 7.341144 25.513019 7.710938 25.976562 C8.080731 26.440106 8.312500 26.953122 8.406250 27.515625 Z M15.046875 18.218750 C14.744790 18.218750 14.481772 18.106772 14.257812 17.882812 C14.033853 17.658853 13.921875 17.395835 13.921875 17.093750 C13.921875 16.791665 14.033853 16.528647 14.257812 16.304688 C14.481772 16.080728 14.744790 15.968750 15.046875 15.968750 C15.348960 15.968750 15.611978 16.080728 15.835938 16.304688 C16.059897 16.528647 16.171875 16.791665 16.171875 17.093750 C16.171875 17.395835 16.059897 17.658853 15.835938 17.882812 C15.611978 18.106772 15.348960 18.218750 15.046875 18.218750 Z M18.203125 14.968750 C17.911457 14.968750 17.661459 14.864584 17.453125 14.656250 C17.244791 14.447916 17.140625 14.197918 17.140625 13.906250 C17.140625 13.604165 17.244791 13.351564 17.453125 13.148438 C17.661459 12.945311 17.911457 12.843750 18.203125 12.843750 C18.505210 12.843750 18.757811 12.945311 18.960938 13.148438 C19.164064 13.351564 19.265625 13.604165 19.265625 13.906250 C19.265625 14.197918 19.164064 14.447916 18.960938 14.656250 C18.757811 14.864584 18.505210 14.968750 18.203125 14.968750 Z M27.140625 8.015625 L30.265625 4.750000 C30.359375 4.656250 30.416667 4.549480 30.437500 4.429688 C30.458333 4.309895 30.468750 4.182292 30.468750 4.046875 C30.468750 3.703123 30.335939 3.351564 30.070312 2.992188 C29.804686 2.632811 29.479169 2.330730 29.093750 2.085938 C28.708331 1.841145 28.328127 1.718750 27.953125 1.718750 C27.609373 1.718750 27.307293 1.848957 27.046875 2.109375 L24.140625 5.062500 C24.796878 5.260418 25.388018 5.614581 25.914062 6.125000 C26.440107 6.635419 26.848957 7.265621 27.140625 8.015625 Z M27.500000 5.218750 C27.218749 5.218750 26.979168 5.119793 26.781250 4.921875 C26.583332 4.723957 26.484375 4.484376 26.484375 4.203125 C26.484375 3.921874 26.583332 3.682293 26.781250 3.484375 C26.979168 3.286457 27.218749 3.187500 27.500000 3.187500 C27.781251 3.187500 28.020832 3.286457 28.218750 3.484375 C28.416668 3.682293 28.515625 3.921874 28.515625 4.203125 C28.515625 4.484376 28.416668 4.723957 28.218750 4.921875 C28.020832 5.119793 27.781251 5.218750 27.500000 5.218750 Z M36.468750 27.343750" /></svg>