<svg version="1.1" xmlns="http://www.w3.org/2000/svg" style="fill:rgba(0,0,0,1.0)" width="256" height="256" viewBox="0 0 37.03125 32.8125"><path fill="rgb(255, 255, 255)" d="M2.750000 32.812500 C1.999996 32.812500 1.354169 32.544274 0.812500 32.007812 C0.270831 31.471351 0.000000 30.833337 0.000000 30.093750 L0.000000 2.734375 C0.000000 1.984371 0.268226 1.341149 0.804688 0.804688 C1.341149 0.268226 1.984371 -0.000000 2.734375 -0.000000 L30.703125 -0.000000 C31.453129 -0.000000 32.096351 0.268226 32.632812 0.804688 C33.169274 1.341149 33.437500 1.984371 33.437500 2.734375 L33.437500 30.078125 C33.437500 30.828129 33.169274 31.471351 32.632812 32.007812 C32.096351 32.544274 31.453129 32.812500 30.703125 32.812500 Z M8.156250 32.343750 L7.031250 31.250000 C8.562508 29.697909 10.320303 28.505212 12.304688 27.671875 C14.289072 26.838538 16.484363 26.369792 18.890625 26.265625 C20.057298 25.119786 21.291660 24.192712 22.593750 23.484375 C23.895840 22.776038 25.335930 22.255210 26.914062 21.921875 C28.492195 21.588540 30.276032 21.421875 32.265625 21.421875 L32.265625 22.984375 C30.328115 22.984375 28.627611 23.140623 27.164062 23.453125 C25.700514 23.765627 24.364589 24.276038 23.156250 24.984375 C21.947911 25.692712 20.760422 26.635411 19.593750 27.812500 C17.177071 27.875000 15.028655 28.278642 13.148438 29.023438 C11.268220 29.768233 9.604174 30.874993 8.156250 32.343750 Z M3.062500 31.093750 L30.390625 31.093750 C30.703127 31.093750 30.976561 30.976564 31.210938 30.742188 C31.445314 30.507811 31.562500 30.234377 31.562500 29.921875 L31.562500 2.890625 C31.562500 2.578123 31.445314 2.304689 31.210938 2.070312 C30.976561 1.835936 30.703127 1.718750 30.390625 1.718750 L3.046875 1.718750 C2.734373 1.718750 2.460939 1.835936 2.226562 2.070312 C1.992186 2.304689 1.875000 2.578123 1.875000 2.890625 L1.875000 29.937500 C1.875000 30.250002 1.992186 30.520832 2.226562 30.750000 C2.460939 30.979168 2.739582 31.093750 3.062500 31.093750 Z M31.765625 20.906250 C30.817704 20.354164 29.841151 19.947918 28.835938 19.687500 C27.830724 19.427082 26.776047 19.296875 25.671875 19.296875 C25.140622 19.296875 24.580732 19.330729 23.992188 19.398438 C23.403643 19.466146 22.708337 19.588541 21.906250 19.765625 C21.249997 18.630203 20.450526 17.666671 19.507812 16.875000 C18.565099 16.083329 17.518235 15.479169 16.367188 15.062500 C15.216140 14.645831 13.989590 14.437500 12.687500 14.437500 C10.791657 14.437500 9.026050 14.973953 7.390625 16.046875 C6.546871 14.921869 5.606776 14.018233 4.570312 13.335938 C3.533849 12.653642 2.354173 12.166668 1.031250 11.875000 L1.375000 10.343750 C3.895846 10.906253 6.026033 12.135407 7.765625 14.031250 C9.328133 13.260413 10.968741 12.875000 12.687500 12.875000 C14.093757 12.875000 15.424473 13.083331 16.679688 13.500000 C17.934902 13.916669 19.065099 14.510413 20.070312 15.281250 C21.075526 16.052087 21.895830 16.973953 22.531250 18.046875 C23.062503 17.942708 23.591143 17.864584 24.117188 17.812500 C24.643232 17.760416 25.161456 17.734375 25.671875 17.734375 C26.880214 17.734375 28.065098 17.885415 29.226562 18.187500 C30.388027 18.489585 31.494786 18.937497 32.546875 19.531250 Z M6.796875 13.875000 L5.296875 13.500000 C5.651043 12.104160 6.299474 10.877609 7.242188 9.820312 C8.184901 8.763016 9.330722 7.937503 10.679688 7.343750 C12.028653 6.749997 13.489575 6.453125 15.062500 6.453125 C15.927088 6.453125 16.786454 6.546874 17.640625 6.734375 C18.598963 5.651036 19.815097 4.799482 21.289062 4.179688 C22.763028 3.559893 24.333325 3.250000 26.000000 3.250000 C27.302090 3.250000 28.536452 3.455727 29.703125 3.867188 C30.869798 4.278648 31.869788 4.859371 32.703125 5.609375 L31.640625 6.765625 C30.942705 6.140622 30.109380 5.658856 29.140625 5.320312 C28.171870 4.981769 27.125006 4.812500 26.000000 4.812500 C24.374992 4.812500 22.861986 5.143226 21.460938 5.804688 C20.059889 6.466149 18.989587 7.369786 18.250000 8.515625 C17.156245 8.182290 16.093755 8.015625 15.062500 8.015625 C13.729160 8.015625 12.492193 8.263018 11.351562 8.757812 C10.210932 9.252607 9.242191 9.937496 8.445312 10.812500 C7.648434 11.687504 7.098960 12.708328 6.796875 13.875000 Z M21.875000 5.296875 C21.208330 4.942707 20.513024 4.666668 19.789062 4.468750 C19.065101 4.270832 18.302087 4.171875 17.500000 4.171875 C16.093743 4.171875 14.583341 4.437497 12.968750 4.968750 C12.708332 4.260413 12.278649 3.578128 11.679688 2.921875 C11.080726 2.265622 10.510419 1.828126 9.968750 1.609375 L10.562500 0.171875 C11.114586 0.390626 11.682289 0.768226 12.265625 1.304688 C12.848961 1.841149 13.348956 2.442705 13.765625 3.109375 C15.067715 2.776040 16.312494 2.609375 17.500000 2.609375 C18.406255 2.609375 19.289058 2.723957 20.148438 2.953125 C21.007817 3.182293 21.822913 3.494790 22.593750 3.890625 Z M37.031250 27.343750" /></svg>