<svg version="1.1" xmlns="http://www.w3.org/2000/svg" style="fill:rgba(0,0,0,1.0)" width="256" height="256" viewBox="0 0 39.0625 24.6875"><path fill="rgb(255, 255, 255)" d="M18.765625 24.687500 C17.973954 24.687500 17.270836 24.526043 16.656250 24.203125 C16.041664 23.880207 15.734375 23.510419 15.734375 23.093750 C15.734375 22.812499 15.854165 22.609376 16.093750 22.484375 L17.328125 21.781250 L0.000000 12.234375 C0.968755 9.713529 2.374991 7.539072 4.218750 5.710938 C6.062509 3.882803 8.223946 2.473963 10.703125 1.484375 C13.182304 0.494787 15.859361 -0.000000 18.734375 -0.000000 C21.630223 -0.000000 24.317696 0.494787 26.796875 1.484375 C29.276054 2.473963 31.437491 3.882803 33.281250 5.710938 C35.125009 7.539072 36.531245 9.713529 37.500000 12.234375 L20.171875 21.781250 L21.406250 22.484375 C21.645835 22.619792 21.765625 22.822915 21.765625 23.093750 C21.765625 23.510419 21.466149 23.880207 20.867188 24.203125 C20.268226 24.526043 19.567712 24.687500 18.765625 24.687500 Z M15.671875 19.281250 L12.203125 15.390625 C12.026041 15.609376 11.856772 15.833332 11.695312 16.062500 C11.533853 16.291668 11.380209 16.531249 11.234375 16.781250 Z M18.750000 22.312500 C19.104168 22.312500 19.281250 22.135418 19.281250 21.781250 C19.281250 21.635416 19.229167 21.510417 19.125000 21.406250 C19.020833 21.302083 18.895834 21.250000 18.750000 21.250000 C18.395832 21.250000 18.218750 21.427082 18.218750 21.781250 C18.218750 22.135418 18.395832 22.312500 18.750000 22.312500 Z M10.796875 13.750000 C10.973959 13.541666 10.963543 13.322918 10.765625 13.093750 L6.968750 8.484375 C6.770832 8.244790 6.559897 8.125000 6.335938 8.125000 C6.111978 8.125000 5.869793 8.260415 5.609375 8.531250 C5.359374 8.791668 5.231771 9.031249 5.226562 9.250000 C5.221354 9.468751 5.338540 9.677082 5.578125 9.875000 L10.187500 13.671875 C10.291667 13.755209 10.403645 13.807292 10.523438 13.828125 C10.643230 13.848958 10.734375 13.822917 10.796875 13.750000 Z M16.796875 18.468750 L14.796875 13.312500 C14.234372 13.604168 13.708336 13.958331 13.218750 14.375000 Z M18.031250 17.812500 L18.031250 12.390625 C17.374997 12.432292 16.744795 12.562499 16.140625 12.781250 Z M19.468750 17.812500 L21.359375 12.781250 C20.755205 12.562499 20.125003 12.432292 19.468750 12.390625 Z M14.500000 10.890625 C14.729168 10.765624 14.791667 10.557293 14.687500 10.265625 L12.703125 4.640625 C12.598958 4.348957 12.442709 4.166667 12.234375 4.093750 C12.026041 4.020833 11.750002 4.062499 11.406250 4.218750 C11.083332 4.364584 10.880209 4.541666 10.796875 4.750000 C10.713541 4.958334 10.755208 5.197915 10.921875 5.468750 L13.953125 10.609375 C14.130209 10.901043 14.312499 10.994792 14.500000 10.890625 Z M20.703125 18.468750 L24.281250 14.375000 C23.791664 13.958331 23.265628 13.604168 22.703125 13.312500 Z M21.828125 19.281250 L26.265625 16.781250 C26.119791 16.531249 25.966147 16.291668 25.804688 16.062500 C25.643228 15.833332 25.473959 15.609376 25.296875 15.390625 Z M18.750000 10.171875 C18.979168 10.171875 19.114583 10.010418 19.156250 9.687500 L19.734375 3.750000 C19.765625 3.437498 19.700522 3.203126 19.539062 3.046875 C19.377603 2.890624 19.114585 2.812500 18.750000 2.812500 C18.395832 2.812500 18.135418 2.890624 17.968750 3.046875 C17.802082 3.203126 17.734375 3.437498 17.765625 3.750000 L18.343750 9.687500 C18.385417 10.010418 18.520832 10.171875 18.750000 10.171875 Z M23.000000 10.890625 C23.187501 10.994792 23.369791 10.901043 23.546875 10.609375 L26.578125 5.468750 C26.744792 5.197915 26.789063 4.958334 26.710938 4.750000 C26.632812 4.541666 26.427085 4.364584 26.093750 4.218750 C25.749998 4.062499 25.473959 4.020833 25.265625 4.093750 C25.057291 4.166667 24.901042 4.348957 24.796875 4.640625 L22.812500 10.265625 C22.708333 10.557293 22.770832 10.765624 23.000000 10.890625 Z M26.703125 13.750000 C26.765625 13.822917 26.856770 13.848958 26.976562 13.828125 C27.096355 13.807292 27.208333 13.755209 27.312500 13.671875 L31.921875 9.875000 C32.161460 9.677082 32.278646 9.468751 32.273438 9.250000 C32.268229 9.031249 32.140626 8.791668 31.890625 8.531250 C31.630207 8.260415 31.388022 8.125000 31.164062 8.125000 C30.940103 8.125000 30.729168 8.244790 30.531250 8.484375 L26.734375 13.093750 C26.536457 13.322918 26.526041 13.541666 26.703125 13.750000 Z M39.062500 23.281250" /></svg>