<svg version="1.1" xmlns="http://www.w3.org/2000/svg" style="fill:rgba(0,0,0,1.0)" width="256" height="256" viewBox="0 0 39.1875 32.8125"><path fill="rgb(255, 255, 255)" d="M19.062500 28.515625 C17.479159 28.515625 15.997403 28.221357 14.617188 27.632812 C13.236972 27.044268 12.023443 26.226568 10.976562 25.179688 C9.929682 24.132807 9.111982 22.919278 8.523438 21.539062 C7.934893 20.158847 7.640625 18.682300 7.640625 17.109375 C7.640625 15.526034 7.934893 14.046882 8.523438 12.671875 C9.111982 11.296868 9.929682 10.085943 10.976562 9.039062 C12.023443 7.992182 13.236972 7.174482 14.617188 6.585938 C15.997403 5.997393 17.473950 5.703125 19.046875 5.703125 C20.630216 5.703125 22.109368 5.997393 23.484375 6.585938 C24.859382 7.174482 26.070307 7.992182 27.117188 9.039062 C28.164068 10.085943 28.981768 11.296868 29.570312 12.671875 C30.158857 14.046882 30.453125 15.526034 30.453125 17.109375 C30.453125 18.682300 30.158857 20.158847 29.570312 21.539062 C28.981768 22.919278 28.164068 24.132807 27.117188 25.179688 C26.070307 26.226568 24.859382 27.044268 23.484375 27.632812 C22.109368 28.221357 20.635425 28.515625 19.062500 28.515625 Z M3.015625 32.812500 C2.255205 32.812500 1.718752 32.674481 1.406250 32.398438 C1.093748 32.122394 0.937500 31.786460 0.937500 31.390625 C0.937500 30.598954 0.986979 29.677089 1.085938 28.625000 C1.184896 27.572911 1.296874 26.455735 1.421875 25.273438 C1.546876 24.091140 1.658854 22.908860 1.757812 21.726562 C1.856771 20.544265 1.906250 19.421880 1.906250 18.359375 C1.906250 17.723955 1.882813 17.125003 1.835938 16.562500 C1.789062 15.999997 1.708334 15.494794 1.593750 15.046875 L4.453125 15.046875 C4.348958 15.494794 4.270834 15.999997 4.218750 16.562500 C4.166666 17.125003 4.140625 17.723955 4.140625 18.359375 C4.140625 19.421880 4.190104 20.544265 4.289062 21.726562 C4.388021 22.908860 4.499999 24.091140 4.625000 25.273438 C4.750001 26.455735 4.861979 27.572911 4.960938 28.625000 C5.059896 29.677089 5.109375 30.598954 5.109375 31.390625 C5.109375 31.786460 4.953127 32.122394 4.640625 32.398438 C4.328123 32.674481 3.786462 32.812500 3.015625 32.812500 Z M3.031250 15.703125 C2.104162 15.703125 1.367190 15.398441 0.820312 14.789062 C0.273435 14.179684 0.000000 13.364588 0.000000 12.343750 C0.000000 11.739580 0.013021 11.059900 0.039062 10.304688 C0.065104 9.549475 0.111979 8.622401 0.179688 7.523438 C0.247396 6.424474 0.338541 5.067716 0.453125 3.453125 L1.546875 3.453125 L1.250000 11.000000 C1.239583 11.187501 1.289062 11.343749 1.398438 11.468750 C1.507813 11.593751 1.645832 11.656250 1.812500 11.656250 C1.979168 11.656250 2.119791 11.598959 2.234375 11.484375 C2.348959 11.369791 2.406250 11.218751 2.406250 11.031250 L2.468750 3.453125 L3.593750 3.453125 L3.656250 11.031250 C3.656250 11.218751 3.713541 11.369791 3.828125 11.484375 C3.942709 11.598959 4.083332 11.656250 4.250000 11.656250 C4.416668 11.656250 4.554687 11.593751 4.664062 11.468750 C4.773438 11.343749 4.822917 11.187501 4.812500 11.000000 L4.515625 3.453125 L5.609375 3.453125 C5.723959 5.067716 5.815104 6.424474 5.882812 7.523438 C5.950521 8.622401 5.997396 9.549475 6.023438 10.304688 C6.049479 11.059900 6.062500 11.739580 6.062500 12.343750 C6.062500 13.354172 5.789065 14.166664 5.242188 14.781250 C4.695310 15.395836 3.958338 15.703125 3.031250 15.703125 Z M19.046875 26.796875 C20.390632 26.796875 21.645828 26.546878 22.812500 26.046875 C23.979172 25.546872 25.007808 24.851567 25.898438 23.960938 C26.789067 23.070308 27.484372 22.041672 27.984375 20.875000 C28.484378 19.708328 28.734375 18.453132 28.734375 17.109375 C28.734375 15.765618 28.484378 14.510422 27.984375 13.343750 C27.484372 12.177078 26.789067 11.148442 25.898438 10.257812 C25.007808 9.367183 23.979172 8.671878 22.812500 8.171875 C21.645828 7.671872 20.390632 7.421875 19.046875 7.421875 C17.703118 7.421875 16.447922 7.671872 15.281250 8.171875 C14.114578 8.671878 13.085942 9.367183 12.195312 10.257812 C11.304683 11.148442 10.609378 12.177078 10.109375 13.343750 C9.609372 14.510422 9.359375 15.765618 9.359375 17.109375 C9.359375 18.453132 9.609372 19.708328 10.109375 20.875000 C10.609378 22.041672 11.304683 23.070308 12.195312 23.960938 C13.085942 24.851567 14.114578 25.546872 15.281250 26.046875 C16.447922 26.546878 17.703118 26.796875 19.046875 26.796875 Z M14.796875 21.125000 C14.630208 21.291668 14.429689 21.354167 14.195312 21.312500 C13.960936 21.270833 13.765626 21.140626 13.609375 20.921875 C13.223956 20.380206 12.927084 19.786462 12.718750 19.140625 C12.510416 18.494788 12.406250 17.817712 12.406250 17.109375 C12.406250 15.890619 12.705726 14.778651 13.304688 13.773438 C13.903649 12.768224 14.705724 11.966149 15.710938 11.367188 C16.716151 10.768226 17.828119 10.468750 19.046875 10.468750 C20.546882 10.468750 21.880202 10.911454 23.046875 11.796875 C23.276043 11.963542 23.403646 12.164061 23.429688 12.398438 C23.455729 12.632814 23.385418 12.828124 23.218750 12.984375 C22.874998 13.317710 22.494794 13.333335 22.078125 13.031250 C21.661456 12.718748 21.195315 12.473959 20.679688 12.296875 C20.164060 12.119791 19.619795 12.031250 19.046875 12.031250 C18.119787 12.031250 17.270837 12.260414 16.500000 12.718750 C15.729163 13.177086 15.114586 13.789059 14.656250 14.554688 C14.197914 15.320316 13.968750 16.171870 13.968750 17.109375 C13.968750 17.640628 14.044270 18.153643 14.195312 18.648438 C14.346355 19.143232 14.567707 19.593748 14.859375 20.000000 C15.151043 20.416669 15.130210 20.791665 14.796875 21.125000 Z M35.656250 32.812500 C34.989580 32.812500 34.476564 32.690105 34.117188 32.445312 C33.757811 32.200520 33.578125 31.848961 33.578125 31.390625 C33.578125 30.640621 33.679686 29.679693 33.882812 28.507812 C34.085939 27.335932 34.289061 26.049486 34.492188 24.648438 C34.695314 23.247389 34.796875 21.848965 34.796875 20.453125 C34.796875 19.203119 34.687501 18.078130 34.468750 17.078125 C33.770830 16.703123 33.260418 16.216149 32.937500 15.617188 C32.614582 15.018226 32.453125 14.260421 32.453125 13.343750 C32.453125 11.687492 32.554686 10.065112 32.757812 8.476562 C32.960939 6.888013 33.231769 5.455736 33.570312 4.179688 C33.908856 2.903639 34.291665 1.888025 34.718750 1.132812 C35.145835 0.377600 35.578123 -0.000000 36.015625 -0.000000 C36.453127 -0.000000 36.677083 0.281247 36.687500 0.843750 L37.078125 15.859375 C37.109375 17.255215 37.145833 18.513015 37.187500 19.632812 C37.229167 20.752610 37.273437 21.867182 37.320312 22.976562 C37.367188 24.085943 37.427083 25.307285 37.500000 26.640625 C37.572917 27.973965 37.656250 29.557282 37.750000 31.390625 C37.770833 31.838544 37.598960 32.187499 37.234375 32.437500 C36.869790 32.687501 36.343753 32.812500 35.656250 32.812500 Z M39.187500 27.343750" /></svg>