<svg version="1.1" xmlns="http://www.w3.org/2000/svg" style="fill:rgba(0,0,0,1.0)" width="256" height="256" viewBox="0 0 34.734375 32.8125"><path fill="rgb(255, 255, 255)" d="M14.421875 32.812500 C12.546866 32.812500 10.747404 32.572919 9.023438 32.093750 C7.299471 31.614581 5.757819 30.963546 4.398438 30.140625 C3.039056 29.317704 1.966150 28.380214 1.179688 27.328125 C0.393225 26.276036 0.000000 25.182297 0.000000 24.046875 C0.000000 22.963536 0.562494 22.088545 1.687500 21.421875 C2.812506 20.755205 4.567696 20.281251 6.953125 20.000000 C6.901041 19.062495 6.861979 18.328128 6.835938 17.796875 C6.809896 17.265622 6.794271 16.799481 6.789062 16.398438 C6.783854 15.997394 6.781250 15.531253 6.781250 15.000000 C6.499999 14.739582 6.247397 14.455731 6.023438 14.148438 C5.799478 13.841144 5.609376 13.505210 5.453125 13.140625 C5.015623 12.786457 4.796875 12.380211 4.796875 11.921875 C4.796875 11.567707 4.916665 11.239585 5.156250 10.937500 C5.156250 10.604165 5.234374 10.364584 5.390625 10.218750 C5.546876 10.072916 5.700520 9.942709 5.851562 9.828125 C6.002605 9.713541 6.078125 9.541668 6.078125 9.312500 C6.078125 7.562491 6.299477 5.984382 6.742188 4.578125 C7.184898 3.171868 7.802079 2.057296 8.593750 1.234375 C9.385421 0.411454 10.302078 -0.000000 11.343750 -0.000000 C12.052087 -0.000000 12.679685 0.210935 13.226562 0.632812 C13.773440 1.054690 14.171874 1.510414 14.421875 2.000000 C14.671876 1.510414 15.070310 1.054690 15.617188 0.632812 C16.164065 0.210935 16.791663 -0.000000 17.500000 -0.000000 C18.541672 -0.000000 19.458329 0.411454 20.250000 1.234375 C21.041671 2.057296 21.658852 3.171868 22.101562 4.578125 C22.544273 5.984382 22.765625 7.562491 22.765625 9.312500 L22.765625 10.000000 C23.619796 10.447919 24.046875 11.062496 24.046875 11.843750 C24.046875 12.354169 23.828127 12.786457 23.390625 13.140625 C23.255208 13.473960 23.088543 13.781249 22.890625 14.062500 C22.692707 14.343751 22.479168 14.604165 22.250000 14.843750 C22.187500 15.322919 22.140625 15.794269 22.109375 16.257812 C22.078125 16.721356 22.057292 17.247393 22.046875 17.835938 C22.036458 18.424482 22.031250 19.151037 22.031250 20.015625 C24.354178 20.307293 26.070307 20.786455 27.179688 21.453125 C28.289068 22.119795 28.843750 22.984370 28.843750 24.046875 C28.843750 25.182297 28.450525 26.276036 27.664062 27.328125 C26.877600 28.380214 25.804694 29.317704 24.445312 30.140625 C23.085931 30.963546 21.544279 31.614581 19.820312 32.093750 C18.096346 32.572919 16.296884 32.812500 14.421875 32.812500 Z M7.781250 25.531250 C7.322914 25.531250 6.903648 25.414064 6.523438 25.179688 C6.143227 24.945311 5.953125 24.687501 5.953125 24.406250 C5.953125 24.166665 6.036458 23.968751 6.203125 23.812500 C6.369792 23.656249 6.546874 23.520834 6.734375 23.406250 C6.921876 23.291666 7.041666 23.197917 7.093750 23.125000 C7.166667 23.020833 7.190104 22.903646 7.164062 22.773438 C7.138021 22.643229 7.255207 22.578125 7.515625 22.578125 C7.682292 22.578125 7.848958 22.617187 8.015625 22.695312 C8.182292 22.773438 8.265625 22.880208 8.265625 23.015625 C8.265625 23.182292 8.130210 23.351562 7.859375 23.523438 C7.588540 23.695313 7.453125 23.916665 7.453125 24.187500 C7.453125 24.364584 7.544270 24.572915 7.726562 24.812500 C7.908855 25.052085 8.000000 25.234374 8.000000 25.359375 C8.000000 25.473959 7.927084 25.531250 7.781250 25.531250 Z M10.078125 19.781250 C10.494794 19.750000 10.893227 19.729167 11.273438 19.718750 C11.653648 19.708333 12.036456 19.703125 12.421875 19.703125 C12.359375 19.015622 12.125002 18.427086 11.718750 17.937500 C11.312498 17.447914 10.817711 17.145834 10.234375 17.031250 C10.192708 17.322918 10.156250 17.690102 10.125000 18.132812 C10.093750 18.575523 10.078125 19.124997 10.078125 19.781250 Z M14.421875 24.968750 C13.286453 24.968750 12.445315 24.861980 11.898438 24.648438 C11.351560 24.434895 11.078125 24.104169 11.078125 23.656250 C11.078125 23.374999 11.182291 23.156251 11.390625 23.000000 C11.598959 22.843749 11.815103 22.645835 12.039062 22.406250 C12.263022 22.166665 12.401041 21.786461 12.453125 21.265625 C11.994789 21.265625 11.497399 21.276042 10.960938 21.296875 C10.424476 21.317708 9.812503 21.354166 9.125000 21.406250 C9.125000 19.729158 9.169270 18.395838 9.257812 17.406250 C9.346355 16.416662 9.484374 15.671878 9.671875 15.171875 C9.859376 14.671872 10.109373 14.343751 10.421875 14.187500 C10.734377 14.031249 11.109373 13.953125 11.546875 13.953125 C12.234378 13.953125 12.815102 13.963542 13.289062 13.984375 C13.763023 14.005208 14.140624 14.015625 14.421875 14.015625 C14.692710 14.015625 15.067706 14.005208 15.546875 13.984375 C16.026044 13.963542 16.609372 13.953125 17.296875 13.953125 C17.734377 13.953125 18.109373 14.031249 18.421875 14.187500 C18.734377 14.343751 18.984374 14.671872 19.171875 15.171875 C19.359376 15.671878 19.497395 16.416662 19.585938 17.406250 C19.674480 18.395838 19.718750 19.729158 19.718750 21.406250 C19.031247 21.354166 18.419274 21.317708 17.882812 21.296875 C17.346351 21.276042 16.848961 21.265625 16.390625 21.265625 C16.442709 21.786461 16.580728 22.166665 16.804688 22.406250 C17.028647 22.645835 17.244791 22.843749 17.453125 23.000000 C17.661459 23.156251 17.765625 23.374999 17.765625 23.656250 C17.765625 24.104169 17.492190 24.434895 16.945312 24.648438 C16.398435 24.861980 15.557297 24.968750 14.421875 24.968750 Z M21.859375 25.187500 C21.671874 25.187500 21.578125 25.119792 21.578125 24.984375 C21.578125 24.911458 21.598958 24.802084 21.640625 24.656250 C21.682292 24.510416 21.703125 24.375001 21.703125 24.250000 C21.703125 24.010415 21.625001 23.804688 21.468750 23.632812 C21.312499 23.460937 21.153647 23.317709 20.992188 23.203125 C20.830728 23.088541 20.750000 23.000000 20.750000 22.937500 C20.750000 22.885416 20.794270 22.833334 20.882812 22.781250 C20.971355 22.729166 21.130207 22.703125 21.359375 22.703125 C21.807294 22.703125 22.234373 22.812499 22.640625 23.031250 C23.046877 23.250001 23.250000 23.546873 23.250000 23.921875 C23.250000 24.223960 23.122397 24.510415 22.867188 24.781250 C22.611978 25.052085 22.276044 25.187500 21.859375 25.187500 Z M11.234375 13.062500 C10.796873 13.062500 10.335940 12.942710 9.851562 12.703125 C9.367185 12.463540 9.125000 12.192710 9.125000 11.890625 C9.125000 11.619790 9.335935 11.356772 9.757812 11.101562 C10.179690 10.846353 10.630206 10.718750 11.109375 10.718750 C11.432293 10.718750 11.593750 10.781249 11.593750 10.906250 C11.593750 11.010417 11.468751 11.132812 11.218750 11.273438 C10.968749 11.414063 10.843750 11.604165 10.843750 11.843750 C10.843750 12.093751 10.966145 12.299478 11.210938 12.460938 C11.455730 12.622397 11.578125 12.765624 11.578125 12.890625 C11.578125 13.005209 11.463543 13.062500 11.234375 13.062500 Z M18.765625 19.781250 C18.765625 19.124997 18.750000 18.575523 18.718750 18.132812 C18.687500 17.690102 18.651042 17.322918 18.609375 17.031250 C18.026039 17.145834 17.531252 17.447914 17.125000 17.937500 C16.718748 18.427086 16.484375 19.015622 16.421875 19.703125 C16.807294 19.703125 17.190102 19.708333 17.570312 19.718750 C17.950523 19.729167 18.348956 19.750000 18.765625 19.781250 Z M14.421875 27.343750 C15.953133 27.343750 17.463534 27.242189 18.953125 27.039062 C20.442716 26.835936 21.794265 26.565106 23.007812 26.226562 C24.221360 25.888019 25.187496 25.510419 25.906250 25.093750 C26.625004 24.677081 26.984375 24.255210 26.984375 23.828125 C26.984375 23.307289 26.473963 22.854169 25.453125 22.468750 C24.432287 22.083331 22.958343 21.786459 21.031250 21.578125 C21.000000 21.255207 20.976563 20.940106 20.960938 20.632812 C20.945312 20.325519 20.937500 20.036460 20.937500 19.765625 C20.937500 17.817699 20.979166 16.221360 21.062500 14.976562 C21.145834 13.731765 21.343748 13.010418 21.656250 12.812500 C21.781251 12.729166 21.908854 12.606772 22.039062 12.445312 C22.169271 12.283853 22.234375 12.114584 22.234375 11.937500 C22.234375 11.635415 22.031252 11.369793 21.625000 11.140625 C21.656250 10.640622 21.671875 10.135419 21.671875 9.625000 C21.671875 7.979158 21.489585 6.515631 21.125000 5.234375 C20.760415 3.953119 20.263024 2.942712 19.632812 2.203125 C19.002601 1.463538 18.291671 1.093750 17.500000 1.093750 C16.885414 1.093750 16.361981 1.320310 15.929688 1.773438 C15.497394 2.226565 14.994795 3.026036 14.421875 4.171875 C13.848955 3.026036 13.346356 2.226565 12.914062 1.773438 C12.481769 1.320310 11.958336 1.093750 11.343750 1.093750 C10.552079 1.093750 9.841149 1.463538 9.210938 2.203125 C8.580726 2.942712 8.083335 3.953119 7.718750 5.234375 C7.354165 6.515631 7.171875 7.979158 7.171875 9.625000 C7.171875 10.052085 7.111980 10.351562 6.992188 10.523438 C6.872395 10.695313 6.752605 10.833333 6.632812 10.937500 C6.513020 11.041667 6.453125 11.218749 6.453125 11.468750 C6.453125 11.802085 6.617186 12.130207 6.945312 12.453125 C7.273439 12.776043 7.786455 13.062499 8.484375 13.312500 C8.192707 13.489584 7.992188 13.749998 7.882812 14.093750 C7.773437 14.437502 7.718750 14.942705 7.718750 15.609375 C7.718750 15.817709 7.726562 16.164060 7.742188 16.648438 C7.757813 17.132815 7.778646 17.674476 7.804688 18.273438 C7.830729 18.872399 7.859375 19.463539 7.890625 20.046875 C7.921875 20.630211 7.953125 21.130206 7.984375 21.546875 C6.005198 21.765626 4.489589 22.070311 3.437500 22.460938 C2.385411 22.851564 1.859375 23.307289 1.859375 23.828125 C1.859375 24.255210 2.218746 24.677081 2.937500 25.093750 C3.656254 25.510419 4.622390 25.888019 5.835938 26.226562 C7.049485 26.565106 8.401034 26.835936 9.890625 27.039062 C11.380216 27.242189 12.890617 27.343750 14.421875 27.343750 Z M14.421875 12.640625 C14.015623 12.640625 13.679689 12.609375 13.414062 12.546875 C13.148436 12.484375 12.958334 12.390626 12.843750 12.265625 L12.843750 10.078125 C12.427081 9.671873 12.138022 9.229169 11.976562 8.750000 C11.815103 8.270831 11.734375 7.625004 11.734375 6.812500 C11.942709 6.520832 12.385413 6.239585 13.062500 5.968750 L14.421875 8.203125 L15.781250 5.968750 C16.458337 6.239585 16.901041 6.520832 17.109375 6.812500 C17.109375 7.625004 17.028647 8.270831 16.867188 8.750000 C16.705728 9.229169 16.416669 9.671873 16.000000 10.078125 L16.000000 12.265625 C15.885416 12.390626 15.695314 12.484375 15.429688 12.546875 C15.164061 12.609375 14.828127 12.640625 14.421875 12.640625 Z M18.109375 13.062500 C17.848957 13.062500 17.718750 13.010417 17.718750 12.906250 C17.718750 12.822916 17.794270 12.705730 17.945312 12.554688 C18.096355 12.403645 18.171875 12.218751 18.171875 12.000000 C18.171875 11.729165 18.059897 11.526042 17.835938 11.390625 C17.611978 11.255208 17.500000 11.151042 17.500000 11.078125 C17.500000 10.984375 17.671873 10.937500 18.015625 10.937500 C18.473961 10.937500 18.874998 11.036457 19.218750 11.234375 C19.562502 11.432293 19.734375 11.666665 19.734375 11.937500 C19.734375 12.218751 19.570314 12.476561 19.242188 12.710938 C18.914061 12.945314 18.536460 13.062500 18.109375 13.062500 Z M8.328125 10.671875 C8.317708 10.494791 8.307292 10.325522 8.296875 10.164062 C8.286458 10.002603 8.281250 9.838542 8.281250 9.671875 C8.281250 8.088534 8.437498 6.770839 8.750000 5.718750 C9.062502 4.666661 9.453123 3.877607 9.921875 3.351562 C10.390627 2.825518 10.859373 2.562500 11.328125 2.562500 C11.869794 2.562500 12.364581 2.901038 12.812500 3.578125 C13.260419 4.255212 13.572916 5.265618 13.750000 6.609375 L13.781250 6.843750 C13.802083 7.010417 13.880208 7.138020 14.015625 7.226562 C14.151042 7.315105 14.286458 7.359375 14.421875 7.359375 C14.557292 7.359375 14.692708 7.315105 14.828125 7.226562 C14.963542 7.138020 15.041667 7.010417 15.062500 6.843750 L15.093750 6.609375 C15.270834 5.265618 15.583331 4.255212 16.031250 3.578125 C16.479169 2.901038 16.973956 2.562500 17.515625 2.562500 C17.984377 2.562500 18.453123 2.825518 18.921875 3.351562 C19.390627 3.877607 19.781248 4.666661 20.093750 5.718750 C20.406252 6.770839 20.562500 8.088534 20.562500 9.671875 C20.562500 9.838542 20.559896 10.002603 20.554688 10.164062 C20.549479 10.325522 20.536458 10.494791 20.515625 10.671875 C20.067706 10.536458 19.304693 10.408855 18.226562 10.289062 C17.148432 10.169270 15.880216 10.109375 14.421875 10.109375 C12.973951 10.109375 11.710943 10.169270 10.632812 10.289062 C9.554682 10.408855 8.786461 10.536458 8.328125 10.671875 Z M9.390625 9.187500 C10.786465 8.968749 12.463532 8.859375 14.421875 8.859375 C16.390635 8.859375 18.067701 8.968749 19.453125 9.187500 C19.453125 8.156245 19.343751 7.221358 19.125000 6.382812 C18.906249 5.544267 18.648439 4.880211 18.351562 4.390625 C18.054686 3.901039 17.776043 3.656250 17.515625 3.656250 C17.307291 3.656250 17.062501 3.937497 16.781250 4.500000 C16.499999 5.062503 16.296876 5.812495 16.171875 6.750000 L16.140625 6.984375 C16.078125 7.432294 15.867189 7.789061 15.507812 8.054688 C15.148436 8.320314 14.786460 8.453125 14.421875 8.453125 C14.057290 8.453125 13.695314 8.320314 13.335938 8.054688 C12.976561 7.789061 12.765625 7.432294 12.703125 6.984375 L12.671875 6.750000 C12.546874 5.812495 12.343751 5.062503 12.062500 4.500000 C11.781249 3.937497 11.536459 3.656250 11.328125 3.656250 C11.078124 3.656250 10.802085 3.901039 10.500000 4.390625 C10.197915 4.880211 9.937501 5.544267 9.718750 6.382812 C9.499999 7.221358 9.390625 8.156245 9.390625 9.187500 Z M34.734375 27.343750" /></svg>