<svg version="1.1" xmlns="http://www.w3.org/2000/svg" style="fill:rgba(0,0,0,1.0)" width="256" height="256" viewBox="0 0 37.375 31.25"><path fill="rgb(255, 255, 255)" d="M3.468750 20.828125 L1.875000 19.921875 C2.479170 19.057287 2.958332 18.205733 3.312500 17.367188 C3.666668 16.528642 3.994790 15.713546 4.296875 14.921875 C4.598960 14.130204 4.973956 13.385420 5.421875 12.687500 C5.192707 12.083330 5.041667 11.390629 4.968750 10.609375 C4.895833 9.828121 4.859375 9.005213 4.859375 8.140625 C4.859375 6.567700 4.999999 5.169277 5.281250 3.945312 C5.562501 2.721348 5.960935 1.757816 6.476562 1.054688 C6.992190 0.351559 7.593747 -0.000000 8.281250 -0.000000 C8.770836 -0.000000 9.325518 0.182290 9.945312 0.546875 C10.565107 0.911460 11.200518 1.408851 11.851562 2.039062 C12.502607 2.669274 13.127601 3.388017 13.726562 4.195312 C14.325524 5.002608 14.843748 5.848954 15.281250 6.734375 C15.531251 6.703125 15.809894 6.679688 16.117188 6.664062 C16.424481 6.648437 16.739582 6.640625 17.062500 6.640625 C17.395835 6.640625 17.713540 6.648437 18.015625 6.664062 C18.317710 6.679688 18.593749 6.703125 18.843750 6.734375 C19.281252 5.848954 19.799476 5.002608 20.398438 4.195312 C20.997399 3.388017 21.622393 2.669274 22.273438 2.039062 C22.924482 1.408851 23.562497 0.911460 24.187500 0.546875 C24.812503 0.182290 25.364581 -0.000000 25.843750 -0.000000 C26.541670 -0.000000 27.145831 0.351559 27.656250 1.054688 C28.166669 1.757816 28.562499 2.721348 28.843750 3.945312 C29.125001 5.169277 29.265625 6.567700 29.265625 8.140625 C29.265625 9.005213 29.231771 9.828121 29.164062 10.609375 C29.096354 11.390629 28.942710 12.083330 28.703125 12.687500 C29.151044 13.385420 29.526040 14.130204 29.828125 14.921875 C30.130210 15.713546 30.458332 16.528642 30.812500 17.367188 C31.166668 18.205733 31.645830 19.057287 32.250000 19.921875 L30.656250 20.828125 C30.072914 19.984371 29.565106 19.052088 29.132812 18.031250 C28.700519 17.010412 28.289064 16.033859 27.898438 15.101562 C27.507811 14.169266 27.072919 13.416670 26.593750 12.843750 C26.895835 12.156247 27.119791 11.559898 27.265625 11.054688 C27.411459 10.549477 27.484375 10.015628 27.484375 9.453125 C27.484375 8.609371 27.335939 7.830733 27.039062 7.117188 C26.742186 6.403642 26.335940 5.833335 25.820312 5.406250 C25.304685 4.979165 24.713545 4.765625 24.046875 4.765625 C23.619790 4.765625 23.187502 4.848958 22.750000 5.015625 C22.312498 5.182292 21.901044 5.450519 21.515625 5.820312 C21.130206 6.190106 20.781252 6.671872 20.468750 7.265625 L19.750000 8.656250 C19.614583 8.572916 19.296878 8.502604 18.796875 8.445312 C18.296872 8.388021 17.718753 8.359375 17.062500 8.359375 C16.406247 8.359375 15.828128 8.388021 15.328125 8.445312 C14.828122 8.502604 14.510417 8.572916 14.375000 8.656250 L13.656250 7.265625 C13.354165 6.671872 13.007814 6.190106 12.617188 5.820312 C12.226561 5.450519 11.815106 5.182292 11.382812 5.015625 C10.950519 4.848958 10.515627 4.765625 10.078125 4.765625 C9.411455 4.765625 8.820315 4.979165 8.304688 5.406250 C7.789060 5.833335 7.382814 6.403642 7.085938 7.117188 C6.789061 7.830733 6.640625 8.609371 6.640625 9.453125 C6.640625 10.015628 6.713541 10.549477 6.859375 11.054688 C7.005209 11.559898 7.229165 12.156247 7.531250 12.843750 C7.052081 13.416670 6.617189 14.169266 6.226562 15.101562 C5.835936 16.033859 5.427085 17.010412 5.000000 18.031250 C4.572915 19.052088 4.062503 19.984371 3.468750 20.828125 Z M10.015625 26.500000 L6.515625 25.031250 C6.151040 24.874999 6.026041 24.664064 6.140625 24.398438 C6.255209 24.132811 6.505206 24.057291 6.890625 24.171875 L10.515625 25.312500 C10.755210 25.385417 10.880208 25.541665 10.890625 25.781250 C10.901042 26.020835 10.825522 26.229166 10.664062 26.406250 C10.502603 26.583334 10.286460 26.614584 10.015625 26.500000 Z M10.531250 24.609375 L7.078125 22.453125 C6.755207 22.244791 6.671874 22.018230 6.828125 21.773438 C6.984376 21.528645 7.229165 21.489582 7.562500 21.656250 L11.234375 23.468750 C11.515626 23.604167 11.651042 23.802082 11.640625 24.062500 C11.630208 24.322918 11.520834 24.526041 11.312500 24.671875 C11.104166 24.817709 10.843752 24.796876 10.531250 24.609375 Z M14.968750 28.312500 C14.406247 28.312500 13.861982 28.184897 13.335938 27.929688 C12.809893 27.674478 12.380210 27.338544 12.046875 26.921875 L13.125000 25.906250 C13.635419 26.468753 14.249996 26.750000 14.968750 26.750000 C15.427086 26.750000 15.773436 26.625001 16.007812 26.375000 C16.242189 26.124999 16.359375 25.838543 16.359375 25.515625 L17.765625 25.515625 C17.765625 25.838543 17.882811 26.124999 18.117188 26.375000 C18.351564 26.625001 18.697914 26.750000 19.156250 26.750000 C19.875004 26.750000 20.489581 26.468753 21.000000 25.906250 L22.078125 26.921875 C21.744790 27.338544 21.315107 27.674478 20.789062 27.929688 C20.263018 28.184897 19.718753 28.312500 19.156250 28.312500 C18.302079 28.312500 17.604169 28.010420 17.062500 27.406250 C16.520831 28.010420 15.822921 28.312500 14.968750 28.312500 Z M17.062500 31.250000 C16.437497 31.250000 15.843753 31.210938 15.281250 31.132812 C14.718747 31.054687 14.111982 30.911459 13.460938 30.703125 C12.809893 30.494791 12.052088 30.205731 11.187500 29.835938 C10.322912 29.466144 9.270840 28.984378 8.031250 28.390625 L3.031250 26.015625 C2.093745 25.567706 1.354169 25.151044 0.812500 24.765625 C0.270831 24.380206 0.000000 23.937502 0.000000 23.437500 C0.000000 23.114582 0.166665 22.802085 0.500000 22.500000 C0.364583 22.364583 0.255209 22.218751 0.171875 22.062500 C0.088541 21.906249 0.046875 21.739584 0.046875 21.562500 C0.046875 21.072914 0.356768 20.648439 0.976562 20.289062 C1.596357 19.929686 2.367183 19.653647 3.289062 19.460938 C4.210942 19.268228 5.124995 19.171875 6.031250 19.171875 C8.041677 19.171875 9.867179 19.546871 11.507812 20.296875 C13.148446 21.046879 14.697909 22.255200 16.156250 23.921875 L15.062500 25.312500 C13.802077 23.697909 12.442716 22.557295 10.984375 21.890625 C9.526034 21.223955 7.875009 20.890625 6.031250 20.890625 C5.114579 20.890625 4.354170 20.916666 3.750000 20.968750 C3.145830 21.020834 2.690106 21.106770 2.382812 21.226562 C2.075519 21.346355 1.921875 21.499999 1.921875 21.687500 C1.921875 21.791667 1.979166 21.911458 2.093750 22.046875 C2.208334 22.182292 2.411457 22.359374 2.703125 22.578125 C2.171872 22.859376 1.906250 23.156248 1.906250 23.468750 C1.906250 23.635418 2.005207 23.799478 2.203125 23.960938 C2.401043 24.122397 2.802080 24.338540 3.406250 24.609375 L8.687500 26.984375 C9.906256 27.526044 10.927079 27.973957 11.750000 28.328125 C12.572921 28.682293 13.276039 28.958332 13.859375 29.156250 C14.442711 29.354168 14.981768 29.492187 15.476562 29.570312 C15.971357 29.648438 16.499997 29.687500 17.062500 29.687500 C17.625003 29.687500 18.153643 29.648438 18.648438 29.570312 C19.143232 29.492187 19.682289 29.354168 20.265625 29.156250 C20.848961 28.958332 21.552079 28.682293 22.375000 28.328125 C23.197921 27.973957 24.218744 27.526044 25.437500 26.984375 L30.718750 24.609375 C31.322920 24.338540 31.723957 24.122397 31.921875 23.960938 C32.119793 23.799478 32.218750 23.635418 32.218750 23.468750 C32.218750 23.156248 31.953128 22.859376 31.421875 22.578125 C31.723960 22.359374 31.929687 22.182292 32.039062 22.046875 C32.148438 21.911458 32.203125 21.791667 32.203125 21.687500 C32.203125 21.499999 32.049481 21.346355 31.742188 21.226562 C31.434894 21.106770 30.979170 21.020834 30.375000 20.968750 C29.770830 20.916666 29.010421 20.890625 28.093750 20.890625 C26.249991 20.890625 24.601570 21.223955 23.148438 21.890625 C21.695305 22.557295 20.333340 23.697909 19.062500 25.312500 L17.968750 23.921875 C19.427091 22.255200 20.976554 21.046879 22.617188 20.296875 C24.257821 19.546871 26.083323 19.171875 28.093750 19.171875 C29.000005 19.171875 29.914058 19.268228 30.835938 19.460938 C31.757817 19.653647 32.528643 19.929686 33.148438 20.289062 C33.768232 20.648439 34.078125 21.072914 34.078125 21.562500 C34.078125 21.739584 34.039063 21.906249 33.960938 22.062500 C33.882812 22.218751 33.770834 22.364583 33.625000 22.500000 C33.958335 22.802085 34.125000 23.114582 34.125000 23.437500 C34.125000 23.937502 33.854169 24.380206 33.312500 24.765625 C32.770831 25.151044 32.031255 25.567706 31.093750 26.015625 L26.093750 28.390625 C24.854160 28.984378 23.802088 29.466144 22.937500 29.835938 C22.072912 30.205731 21.315107 30.494791 20.664062 30.703125 C20.013018 30.911459 19.406253 31.054687 18.843750 31.132812 C18.281247 31.210938 17.687503 31.250000 17.062500 31.250000 Z M17.062500 25.812500 C16.114579 25.812500 15.388023 25.638023 14.882812 25.289062 C14.377602 24.940102 14.125000 24.442712 14.125000 23.796875 C14.125000 23.338539 14.374998 22.960939 14.875000 22.664062 C15.375002 22.367186 16.104162 22.218750 17.062500 22.218750 C18.020838 22.218750 18.749998 22.367186 19.250000 22.664062 C19.750002 22.960939 20.000000 23.338539 20.000000 23.796875 C20.000000 24.442712 19.747398 24.940102 19.242188 25.289062 C18.736977 25.638023 18.010421 25.812500 17.062500 25.812500 Z M12.343750 19.406250 C11.895831 19.406250 11.510418 19.218752 11.187500 18.843750 C10.864582 18.468748 10.703125 18.015628 10.703125 17.484375 C10.703125 16.953122 10.864582 16.500002 11.187500 16.125000 C11.510418 15.749998 11.895831 15.562500 12.343750 15.562500 C12.791669 15.562500 13.174478 15.749998 13.492188 16.125000 C13.809897 16.500002 13.968750 16.953122 13.968750 17.484375 C13.968750 18.015628 13.809897 18.468748 13.492188 18.843750 C13.174478 19.218752 12.791669 19.406250 12.343750 19.406250 Z M24.109375 26.500000 C23.838540 26.614584 23.622397 26.583334 23.460938 26.406250 C23.299478 26.229166 23.223958 26.020835 23.234375 25.781250 C23.244792 25.541665 23.369790 25.385417 23.609375 25.312500 L27.234375 24.171875 C27.619794 24.057291 27.869791 24.132811 27.984375 24.398438 C28.098959 24.664064 27.973960 24.874999 27.609375 25.031250 Z M23.593750 24.609375 C23.291665 24.796876 23.033855 24.817709 22.820312 24.671875 C22.606770 24.526041 22.494792 24.322918 22.484375 24.062500 C22.473958 23.802082 22.609374 23.604167 22.890625 23.468750 L26.562500 21.656250 C26.895835 21.489582 27.140624 21.528645 27.296875 21.773438 C27.453126 22.018230 27.369793 22.244791 27.046875 22.453125 Z M8.484375 10.734375 C8.255207 10.401040 8.085938 9.940107 7.976562 9.351562 C7.867187 8.763018 7.812500 8.151045 7.812500 7.515625 C7.812500 6.911455 7.859375 6.333336 7.953125 5.781250 C8.046875 5.229164 8.182291 4.778648 8.359375 4.429688 C8.536459 4.080727 8.749999 3.906250 9.000000 3.906250 C9.281251 3.906250 9.643227 4.122394 10.085938 4.554688 C10.528648 4.986981 10.960935 5.531247 11.382812 6.187500 C11.804690 6.843753 12.124999 7.505205 12.343750 8.171875 C11.562496 8.473960 10.854170 8.838540 10.218750 9.265625 C9.583330 9.692710 9.005211 10.182289 8.484375 10.734375 Z M21.781250 19.406250 C21.333331 19.406250 20.950522 19.218752 20.632812 18.843750 C20.315103 18.468748 20.156250 18.015628 20.156250 17.484375 C20.156250 16.953122 20.315103 16.500002 20.632812 16.125000 C20.950522 15.749998 21.333331 15.562500 21.781250 15.562500 C22.239586 15.562500 22.627603 15.749998 22.945312 16.125000 C23.263022 16.500002 23.421875 16.953122 23.421875 17.484375 C23.421875 18.015628 23.263022 18.468748 22.945312 18.843750 C22.627603 19.218752 22.239586 19.406250 21.781250 19.406250 Z M25.640625 10.734375 C25.130206 10.182289 24.554691 9.692710 23.914062 9.265625 C23.273434 8.838540 22.562504 8.473960 21.781250 8.171875 C22.010418 7.505205 22.333331 6.843753 22.750000 6.187500 C23.166669 5.531247 23.596352 4.986981 24.039062 4.554688 C24.481773 4.122394 24.843749 3.906250 25.125000 3.906250 C25.385418 3.906250 25.601562 4.080727 25.773438 4.429688 C25.945313 4.778648 26.078125 5.229164 26.171875 5.781250 C26.265625 6.333336 26.312500 6.911455 26.312500 7.515625 C26.312500 8.151045 26.260417 8.763018 26.156250 9.351562 C26.052083 9.940107 25.880210 10.401040 25.640625 10.734375 Z M37.375000 26.562500" /></svg>