<svg version="1.1" xmlns="http://www.w3.org/2000/svg" style="fill:rgba(0,0,0,1.0)" width="256" height="256" viewBox="0 0 33.6875 32.8125"><path fill="rgb(255, 255, 255)" d="M13.812500 32.812500 C11.947907 32.812500 10.502609 32.726563 9.476562 32.554688 C8.450516 32.382812 7.723960 32.145835 7.296875 31.843750 C6.869790 31.541665 6.619792 31.203127 6.546875 30.828125 L3.500000 15.046875 C3.802085 14.901041 4.135415 14.828125 4.500000 14.828125 C5.052086 14.828125 5.666663 15.018227 6.343750 15.398438 C7.020837 15.778648 7.755204 16.216143 8.546875 16.710938 C9.338546 17.205732 10.177079 17.643227 11.062500 18.023438 C11.947921 18.403648 12.864579 18.593750 13.812500 18.593750 C14.687504 18.593750 15.559891 18.403648 16.429688 18.023438 C17.299484 17.643227 18.140621 17.205732 18.953125 16.710938 C19.765629 16.216143 20.526038 15.778648 21.234375 15.398438 C21.942712 15.018227 22.572914 14.828125 23.125000 14.828125 C23.489585 14.828125 23.822915 14.901041 24.125000 15.046875 L21.078125 30.828125 C21.005208 31.203127 20.755210 31.541665 20.328125 31.843750 C19.901040 32.145835 19.174484 32.382812 18.148438 32.554688 C17.122391 32.726563 15.677093 32.812500 13.812500 32.812500 Z M4.078125 17.468750 C3.661456 15.583324 3.109378 13.690114 2.421875 11.789062 C1.734372 9.888011 0.927088 7.979176 0.000000 6.062500 L3.515625 4.359375 C4.244795 5.921883 4.921872 7.494784 5.546875 9.078125 C6.171878 10.661466 6.697915 12.249992 7.125000 13.843750 L6.468750 15.359375 C6.041665 13.765617 5.536461 12.171883 4.953125 10.578125 C4.369789 8.984367 3.713545 7.401050 2.984375 5.828125 L1.453125 6.578125 C2.276046 8.348967 2.994789 10.114575 3.609375 11.875000 C4.223961 13.635425 4.744790 15.390616 5.171875 17.140625 Z M16.453125 30.687500 C16.473958 30.687500 16.489583 30.687500 16.500000 30.687500 C16.510417 30.687500 16.520833 30.687500 16.531250 30.687500 C17.583339 30.687500 18.346352 30.479169 18.820312 30.062500 C19.294273 29.645831 19.598958 29.036462 19.734375 28.234375 L21.015625 20.312500 C21.026042 20.229166 21.031250 20.151042 21.031250 20.078125 C21.031250 19.619789 20.833335 19.390625 20.437500 19.390625 C20.083332 19.390625 19.869792 19.609373 19.796875 20.046875 L18.500000 28.046875 C18.416666 28.588544 18.255210 28.940103 18.015625 29.101562 C17.776040 29.263022 17.244796 29.375000 16.421875 29.437500 C16.203124 29.447917 16.039063 29.520833 15.929688 29.656250 C15.820312 29.791667 15.765625 29.932291 15.765625 30.078125 C15.765625 30.244792 15.825520 30.388020 15.945312 30.507812 C16.065105 30.627605 16.234374 30.687500 16.453125 30.687500 Z M6.781250 19.187500 C6.687500 17.510408 6.507814 15.841154 6.242188 14.179688 C5.976561 12.518221 5.619794 10.833342 5.171875 9.125000 L9.500000 7.984375 C9.875002 9.723967 10.179686 11.489574 10.414062 13.281250 C10.648439 15.072926 10.817708 16.901032 10.921875 18.765625 L9.875000 18.765625 C9.770833 17.140617 9.617189 15.544279 9.414062 13.976562 C9.210936 12.408846 8.958335 10.864591 8.656250 9.343750 L6.500000 9.921875 C6.864585 11.453133 7.164061 12.973951 7.398438 14.484375 C7.632814 15.994799 7.807291 17.515617 7.921875 19.046875 Z M10.312500 20.109375 C10.427084 17.796863 10.583332 15.552094 10.781250 13.375000 C10.979168 11.197906 11.213540 9.119802 11.484375 7.140625 L16.437500 8.062500 C15.999998 9.885426 15.645835 11.794261 15.375000 13.789062 C15.104165 15.783864 14.880209 17.890614 14.703125 20.109375 L13.593750 20.109375 C13.760417 18.088532 13.963540 16.151051 14.203125 14.296875 C14.442710 12.442699 14.749998 10.656259 15.125000 8.937500 L12.421875 8.421875 C12.171874 10.223967 11.968751 12.106761 11.812500 14.070312 C11.656249 16.033864 11.520834 18.046865 11.406250 20.109375 Z M7.015625 9.296875 L4.250000 3.062500 L8.015625 1.468750 L10.109375 6.171875 L9.265625 6.984375 L7.453125 2.890625 L5.703125 3.640625 L7.906250 8.593750 Z M18.296875 20.546875 L17.156250 20.312500 C17.552085 18.020822 18.026039 15.955738 18.578125 14.117188 C19.130211 12.278637 19.781246 10.510425 20.531250 8.812500 L18.687500 7.937500 C17.864579 9.697925 17.153649 11.578115 16.554688 13.578125 C15.955726 15.578135 15.458335 17.697905 15.062500 19.937500 L14.062500 19.750000 C14.468752 17.239571 15.013017 14.877615 15.695312 12.664062 C16.377608 10.450510 17.203120 8.395843 18.171875 6.500000 L21.968750 8.265625 C21.104162 10.046884 20.367191 11.953115 19.757812 13.984375 C19.148434 16.015635 18.661460 18.203113 18.296875 20.546875 Z M9.953125 10.546875 L8.859375 10.078125 C9.067709 8.776035 9.213541 7.544277 9.296875 6.382812 C9.380209 5.221348 9.421875 4.015631 9.421875 2.765625 C9.421875 2.338540 9.419271 1.901044 9.414062 1.453125 C9.408854 1.005206 9.395833 0.546877 9.375000 0.078125 L13.937500 -0.000000 L13.937500 0.515625 C13.937500 1.619797 13.898438 2.791660 13.820312 4.031250 C13.742187 5.270840 13.630209 6.520827 13.484375 7.781250 L12.375000 7.781250 C12.531251 6.697911 12.648437 5.588547 12.726562 4.453125 C12.804688 3.317703 12.843750 2.203130 12.843750 1.109375 L10.515625 1.156250 L10.515625 2.000000 C10.515625 2.927088 10.497396 3.854162 10.460938 4.781250 C10.424479 5.708338 10.367188 6.648433 10.289062 7.601562 C10.210937 8.554692 10.098959 9.536453 9.953125 10.546875 Z M14.921875 8.296875 C14.921875 7.255203 14.880209 6.221359 14.796875 5.195312 C14.713541 4.169266 14.588542 3.078131 14.421875 1.921875 L18.921875 1.453125 C19.026042 2.359380 19.109375 3.333328 19.171875 4.375000 C19.234375 5.416672 19.265625 6.468745 19.265625 7.531250 L18.171875 7.640625 C18.171875 6.828121 18.153646 5.997400 18.117188 5.148438 C18.080729 4.299475 18.015625 3.473962 17.921875 2.671875 L15.656250 2.890625 C15.760417 3.796880 15.846354 4.695308 15.914062 5.585938 C15.981771 6.476567 16.015625 7.369787 16.015625 8.265625 Z M21.078125 16.718750 L20.000000 16.687500 C20.208334 14.354155 20.562498 12.052095 21.062500 9.781250 C21.562502 7.510405 22.197913 5.312511 22.968750 3.187500 L26.750000 4.531250 C26.114580 6.197925 25.580731 7.903637 25.148438 9.648438 C24.716144 11.393238 24.375001 13.192699 24.125000 15.046875 L22.906250 15.906250 C23.135418 14.031241 23.447915 12.205738 23.843750 10.429688 C24.239585 8.653637 24.739580 6.906259 25.343750 5.187500 L23.640625 4.578125 C22.963538 6.630219 22.421877 8.640615 22.015625 10.609375 C21.609373 12.578135 21.296876 14.614573 21.078125 16.718750 Z M21.140625 8.390625 L21.296875 3.781250 L18.937500 3.781250 L18.781250 2.687500 L22.437500 2.687500 L22.218750 8.390625 Z M33.687500 27.343750" /></svg>