<svg version="1.1" xmlns="http://www.w3.org/2000/svg" style="fill:rgba(0,0,0,1.0)" width="256" height="256" viewBox="0 0 36.484375 32.8125"><path fill="rgb(255, 255, 255)" d="M16.171875 32.812500 C13.932280 32.812500 11.835947 32.388025 9.882812 31.539062 C7.929678 30.690100 6.210945 29.513028 4.726562 28.007812 C3.242180 26.502597 2.083338 24.757822 1.250000 22.773438 C0.416663 20.789053 0.000000 18.666678 0.000000 16.406250 C0.000000 14.135405 0.416663 12.010427 1.250000 10.031250 C2.083338 8.052073 3.242180 6.309903 4.726562 4.804688 C6.210945 3.299472 7.929678 2.122400 9.882812 1.273438 C11.835947 0.424475 13.932280 -0.000000 16.171875 -0.000000 C18.411470 -0.000000 20.507803 0.424475 22.460938 1.273438 C24.414072 2.122400 26.132805 3.299472 27.617188 4.804688 C29.101570 6.309903 30.260412 8.052073 31.093750 10.031250 C31.927088 12.010427 32.343750 14.135405 32.343750 16.406250 C32.343750 18.666678 31.927088 20.789053 31.093750 22.773438 C30.260412 24.757822 29.104174 26.502597 27.625000 28.007812 C26.145826 29.513028 24.429697 30.690100 22.476562 31.539062 C20.523428 32.388025 18.421886 32.812500 16.171875 32.812500 Z M15.875000 25.156250 L15.687500 23.750000 C16.145836 23.687500 16.559894 23.588542 16.929688 23.453125 C17.299481 23.317708 17.640623 23.135418 17.953125 22.906250 L18.765625 24.062500 C17.973954 24.635420 17.010422 24.999999 15.875000 25.156250 Z M16.171875 22.437500 C14.421866 22.437500 12.906256 21.901047 11.625000 20.828125 L12.609375 19.640625 C13.609380 20.463546 14.796868 20.875000 16.171875 20.875000 C17.546882 20.875000 18.734370 20.463546 19.734375 19.640625 L20.718750 20.828125 C19.437494 21.901047 17.921884 22.437500 16.171875 22.437500 Z M9.484375 15.718750 C9.046873 15.718750 8.666668 15.580731 8.343750 15.304688 C8.020832 15.028644 7.859375 14.604170 7.859375 14.031250 C7.859375 13.395830 8.067706 12.885419 8.484375 12.500000 C8.901044 12.114581 9.442705 11.921875 10.109375 11.921875 C10.848962 11.921875 11.559892 12.158852 12.242188 12.632812 C12.924483 13.106773 13.369791 13.885411 13.578125 14.968750 L12.546875 15.187500 C12.317707 14.854165 12.088543 14.583334 11.859375 14.375000 C11.630207 14.166666 11.395835 14.062500 11.156250 14.062500 C11.072916 14.062500 11.013021 14.088541 10.976562 14.140625 C10.940104 14.192709 10.921875 14.260416 10.921875 14.343750 C10.921875 14.625001 10.822918 14.924478 10.625000 15.242188 C10.427082 15.559897 10.046878 15.718750 9.484375 15.718750 Z M16.171875 31.015625 C18.192718 31.015625 20.070304 30.643233 21.804688 29.898438 C23.539071 29.153642 25.054681 28.114590 26.351562 26.781250 C27.648444 25.447910 28.658851 23.895842 29.382812 22.125000 C30.106774 20.354158 30.468750 18.447927 30.468750 16.406250 C30.468750 14.354156 30.106774 12.445321 29.382812 10.679688 C28.658851 8.914054 27.648444 7.364590 26.351562 6.031250 C25.054681 4.697910 23.539071 3.658858 21.804688 2.914062 C20.070304 2.169267 18.192718 1.796875 16.171875 1.796875 C14.151032 1.796875 12.273446 2.169267 10.539062 2.914062 C8.804679 3.658858 7.289069 4.697910 5.992188 6.031250 C4.695306 7.364590 3.684899 8.914054 2.960938 10.679688 C2.236976 12.445321 1.875000 14.354156 1.875000 16.406250 C1.875000 18.447927 2.236976 20.354158 2.960938 22.125000 C3.684899 23.895842 4.695306 25.447910 5.992188 26.781250 C7.289069 28.114590 8.804679 29.153642 10.539062 29.898438 C12.273446 30.643233 14.151032 31.015625 16.171875 31.015625 Z M16.046875 19.375000 C15.651040 19.375000 15.177086 19.276043 14.625000 19.078125 L15.093750 17.703125 C15.510419 17.838542 15.828124 17.906250 16.046875 17.906250 C16.255209 17.906250 16.401041 17.859375 16.484375 17.765625 C16.567709 17.671875 16.609375 17.536459 16.609375 17.359375 C16.609375 16.911456 16.489585 16.484377 16.250000 16.078125 C16.010415 15.671873 15.770835 15.239586 15.531250 14.781250 C15.291665 14.322914 15.171875 13.802086 15.171875 13.218750 C15.171875 12.729164 15.309894 12.247398 15.585938 11.773438 C15.861981 11.299477 16.197915 10.963543 16.593750 10.765625 L17.265625 12.140625 C17.098958 12.223959 16.963542 12.364582 16.859375 12.562500 C16.755208 12.760418 16.703125 12.979165 16.703125 13.218750 C16.703125 13.604169 16.822915 14.007810 17.062500 14.429688 C17.302085 14.851565 17.541665 15.302081 17.781250 15.781250 C18.020835 16.260419 18.140625 16.786455 18.140625 17.359375 C18.140625 17.932295 17.937502 18.411456 17.531250 18.796875 C17.124998 19.182294 16.630211 19.375000 16.046875 19.375000 Z M20.421875 15.718750 C19.984373 15.718750 19.604168 15.580731 19.281250 15.304688 C18.958332 15.028644 18.796875 14.604170 18.796875 14.031250 C18.796875 13.395830 19.005206 12.885419 19.421875 12.500000 C19.838544 12.114581 20.380205 11.921875 21.046875 11.921875 C21.786462 11.921875 22.497392 12.158852 23.179688 12.632812 C23.861983 13.106773 24.307291 13.885411 24.515625 14.968750 L23.484375 15.187500 C23.255207 14.854165 23.026043 14.583334 22.796875 14.375000 C22.567707 14.166666 22.333335 14.062500 22.093750 14.062500 C22.010416 14.062500 21.950521 14.088541 21.914062 14.140625 C21.877604 14.192709 21.859375 14.260416 21.859375 14.343750 C21.859375 14.625001 21.760418 14.924478 21.562500 15.242188 C21.364582 15.559897 20.984378 15.718750 20.421875 15.718750 Z M36.484375 27.343750" /></svg>