<svg version="1.1" xmlns="http://www.w3.org/2000/svg" style="fill:rgba(0,0,0,1.0)" width="256" height="256" viewBox="0 0 36.71875 32.8125"><path fill="rgb(255, 255, 255)" d="M7.312500 32.812500 C6.531246 32.812500 5.744796 32.601565 4.953125 32.179688 C4.161454 31.757810 3.437503 31.200524 2.781250 30.507812 C2.124997 29.815101 1.596356 29.049483 1.195312 28.210938 C0.794269 27.372392 0.593750 26.536462 0.593750 25.703125 C0.593750 25.140622 0.703124 24.625002 0.921875 24.156250 C1.140626 23.687498 1.432290 23.333335 1.796875 23.093750 C2.286461 22.770832 2.854163 22.359378 3.500000 21.859375 C4.145837 21.359372 4.820309 20.804691 5.523438 20.195312 C6.226566 19.585934 6.906247 18.960941 7.562500 18.320312 C8.218753 17.679684 8.804685 17.059899 9.320312 16.460938 C9.835940 15.861976 10.234374 15.328127 10.515625 14.859375 C10.776043 14.421873 11.013020 13.901045 11.226562 13.296875 C11.440105 12.692705 11.611979 12.085941 11.742188 11.476562 C11.872396 10.867184 11.937500 10.328127 11.937500 9.859375 C11.937500 9.276039 11.898438 8.765627 11.820312 8.328125 C11.742187 7.890623 11.664063 7.437502 11.585938 6.968750 C11.507812 6.499998 11.468750 5.927087 11.468750 5.250000 C11.468750 3.374991 12.119785 2.031254 13.421875 1.218750 C14.723965 0.406246 16.880193 -0.000000 19.890625 -0.000000 C22.130220 -0.000000 23.927077 0.143228 25.281250 0.429688 C26.635423 0.716147 27.617184 1.179684 28.226562 1.820312 C28.835941 2.460941 29.140625 3.312495 29.140625 4.375000 C29.140625 4.854169 29.122396 5.414059 29.085938 6.054688 C29.049479 6.695316 29.005209 7.322914 28.953125 7.937500 C29.338544 8.041667 29.713540 8.156249 30.078125 8.281250 C30.442710 8.406251 30.739582 8.541666 30.968750 8.687500 C31.229168 8.854167 31.424479 9.124998 31.554688 9.500000 C31.684896 9.875002 31.750000 10.307289 31.750000 10.796875 C31.750000 11.473962 31.625001 12.184892 31.375000 12.929688 C31.124999 13.674483 30.750002 14.182290 30.250000 14.453125 C29.895832 14.651043 29.388024 14.843749 28.726562 15.031250 C28.065101 15.218751 27.411462 15.385416 26.765625 15.531250 C26.026038 16.864590 25.158859 18.143223 24.164062 19.367188 C23.169266 20.591152 22.052090 21.755203 20.812500 22.859375 C20.875000 22.869792 20.937500 22.875000 21.000000 22.875000 C21.062500 22.875000 21.125000 22.875000 21.187500 22.875000 C22.031254 22.875000 22.776038 22.658856 23.421875 22.226562 C24.067712 21.794269 24.619789 21.140629 25.078125 20.265625 C25.401043 19.651039 25.783852 19.179689 26.226562 18.851562 C26.669273 18.523436 27.145831 18.359375 27.656250 18.359375 C28.218753 18.359375 28.799476 18.497394 29.398438 18.773438 C29.997399 19.049481 30.557289 19.424477 31.078125 19.898438 C31.598961 20.372398 32.018228 20.901039 32.335938 21.484375 C32.653647 22.067711 32.812500 22.666664 32.812500 23.281250 C32.812500 23.625002 32.611981 24.127601 32.210938 24.789062 C31.809894 25.450524 31.291670 26.119788 30.656250 26.796875 C29.999997 27.494795 29.226567 28.101560 28.335938 28.617188 C27.445308 29.132815 26.489588 29.531249 25.468750 29.812500 C24.447912 30.093751 23.416672 30.234375 22.375000 30.234375 C21.229161 30.234375 20.098964 30.072918 18.984375 29.750000 C17.869786 29.427082 16.765630 28.937503 15.671875 28.281250 C15.130206 28.750002 14.554691 29.208331 13.945312 29.656250 C13.335934 30.104169 12.734378 30.518227 12.140625 30.898438 C11.546872 31.278648 10.994794 31.606769 10.484375 31.882812 C9.973956 32.158856 9.536460 32.359374 9.171875 32.484375 C8.942707 32.557292 8.684897 32.630208 8.398438 32.703125 C8.111978 32.776042 7.750002 32.812500 7.312500 32.812500 Z M7.312500 31.093750 C8.458339 31.093750 9.031250 30.552089 9.031250 29.468750 C9.031250 28.874997 8.877606 28.263024 8.570312 27.632812 C8.263019 27.002601 7.859378 26.419274 7.359375 25.882812 C6.859372 25.346351 6.317711 24.911460 5.734375 24.578125 C5.151039 24.244790 4.583336 24.078125 4.031250 24.078125 C2.885411 24.078125 2.312500 24.619786 2.312500 25.703125 C2.312500 26.296878 2.466144 26.908851 2.773438 27.539062 C3.080731 28.169274 3.484372 28.752601 3.984375 29.289062 C4.484378 29.825524 5.026039 30.260415 5.609375 30.593750 C6.192711 30.927085 6.760414 31.093750 7.312500 31.093750 Z M14.656250 28.015625 C14.052080 27.682290 13.580731 27.132816 13.242188 26.367188 C12.903644 25.601559 12.734375 24.697922 12.734375 23.656250 C12.734375 21.895825 12.526044 20.611983 12.109375 19.804688 C11.692706 18.997392 11.036463 18.593750 10.140625 18.593750 C9.848957 18.593750 9.604168 18.638020 9.406250 18.726562 C9.208332 18.815105 9.083334 18.885416 9.031250 18.937500 L8.000000 17.750000 C8.177084 17.604166 8.458331 17.421876 8.843750 17.203125 C9.229169 16.984374 9.661456 16.875000 10.140625 16.875000 C11.661466 16.875000 12.786455 17.398432 13.515625 18.445312 C14.244795 19.492193 14.609375 21.104156 14.609375 23.281250 C14.609375 24.041670 14.671874 24.721351 14.796875 25.320312 C14.921876 25.919274 15.177081 26.322916 15.562500 26.531250 Z M4.921875 18.796875 L3.578125 17.671875 C4.130211 16.713537 4.872391 15.890628 5.804688 15.203125 C6.736984 14.515622 7.692703 14.088542 8.671875 13.921875 L8.937500 15.671875 C7.520826 15.911460 6.182298 16.953116 4.921875 18.796875 Z M14.781250 27.359375 C14.750000 27.192708 14.718750 27.002605 14.687500 26.789062 C14.656250 26.575520 14.640625 26.369793 14.640625 26.171875 C14.640625 25.067703 14.994788 24.117191 15.703125 23.320312 C16.411462 22.523434 17.348952 22.125000 18.515625 22.125000 C18.651042 22.125000 18.781249 22.132812 18.906250 22.148438 C19.031251 22.164063 19.145833 22.182292 19.250000 22.203125 L19.000000 23.890625 C18.802082 23.859375 18.640626 23.843750 18.515625 23.843750 C17.859372 23.843750 17.338544 24.057290 16.953125 24.484375 C16.567706 24.911460 16.375000 25.473955 16.375000 26.171875 C16.375000 26.307292 16.385417 26.450520 16.406250 26.601562 C16.427083 26.752605 16.453125 26.911458 16.484375 27.078125 Z M5.375000 13.484375 C4.520829 13.484375 3.643234 13.330731 2.742188 13.023438 C1.841141 12.716144 1.052087 12.296878 0.375000 11.765625 L1.343750 10.281250 C1.906253 10.718752 2.544267 11.075519 3.257812 11.351562 C3.971358 11.627606 4.697913 11.765625 5.437500 11.765625 C5.843752 11.765625 6.270831 11.726563 6.718750 11.648438 C7.166669 11.570312 7.671872 11.447917 8.234375 11.281250 L8.671875 12.984375 C8.026038 13.161459 7.429690 13.289062 6.882812 13.367188 C6.335935 13.445313 5.833336 13.484375 5.375000 13.484375 Z M5.578125 20.906250 C3.598948 19.291659 2.174484 17.476573 1.304688 15.460938 C0.434891 13.445302 0.000000 11.270845 0.000000 8.937500 C0.000000 8.145829 0.065104 7.411462 0.195312 6.734375 C0.325521 6.057288 0.473958 5.447919 0.640625 4.906250 C0.838543 4.291664 1.299476 3.802085 2.023438 3.437500 C2.747399 3.072915 3.692702 2.890625 4.859375 2.890625 C5.953130 2.890625 6.947912 3.039061 7.843750 3.335938 C8.739588 3.632814 9.453122 4.028643 9.984375 4.523438 C10.515628 5.018232 10.781250 5.572914 10.781250 6.187500 C10.781250 6.614585 10.705730 7.184892 10.554688 7.898438 C10.403645 8.611983 10.213543 9.249997 9.984375 9.812500 C9.807291 10.260419 9.656251 10.734372 9.531250 11.234375 C9.406249 11.734378 9.343750 12.265622 9.343750 12.828125 C9.343750 13.401045 9.437499 13.924477 9.625000 14.398438 C9.812501 14.872398 10.151039 15.359372 10.640625 15.859375 L9.296875 17.171875 C8.119786 15.994786 7.531250 14.546884 7.531250 12.828125 C7.531250 12.151038 7.604166 11.505211 7.750000 10.890625 C7.895834 10.276039 8.067707 9.729169 8.265625 9.250000 C8.317709 9.114583 8.367187 8.989584 8.414062 8.875000 C8.460938 8.760416 8.510416 8.625001 8.562500 8.468750 C8.270832 8.541667 7.932294 8.598958 7.546875 8.640625 C7.161456 8.682292 6.776044 8.703125 6.390625 8.703125 C5.505204 8.703125 4.677087 8.601564 3.906250 8.398438 C3.135413 8.195311 2.479169 7.921877 1.937500 7.578125 C1.916667 7.786459 1.901042 8.005207 1.890625 8.234375 C1.880208 8.463543 1.875000 8.697915 1.875000 8.937500 C1.875000 11.104177 2.265621 13.072908 3.046875 14.843750 C3.828129 16.614592 5.109366 18.218743 6.890625 19.656250 Z M19.046875 29.187500 C19.005208 28.979166 18.966146 28.671877 18.929688 28.265625 C18.893229 27.859373 18.875000 27.557293 18.875000 27.359375 C18.875000 26.723955 18.914062 26.192710 18.992188 25.765625 C19.070313 25.338540 19.210936 24.934898 19.414062 24.554688 C19.617189 24.174477 19.906248 23.744794 20.281250 23.265625 L21.812500 24.234375 C21.499998 24.630210 21.268230 24.966144 21.117188 25.242188 C20.966145 25.518231 20.867188 25.817707 20.820312 26.140625 C20.773437 26.463543 20.750000 26.890622 20.750000 27.421875 C20.750000 27.546876 20.763021 27.763019 20.789062 28.070312 C20.815104 28.377606 20.848958 28.666665 20.890625 28.937500 Z M26.765625 29.281250 C26.244789 29.135416 25.723961 28.851565 25.203125 28.429688 C24.682289 28.007810 24.208335 27.507815 23.781250 26.929688 C23.354165 26.351560 23.010418 25.747399 22.750000 25.117188 C22.489582 24.486976 22.359375 23.890628 22.359375 23.328125 L24.218750 23.421875 C24.218750 23.921878 24.369790 24.455726 24.671875 25.023438 C24.973960 25.591149 25.356769 26.096352 25.820312 26.539062 C26.283856 26.981773 26.755206 27.270833 27.234375 27.406250 Z M6.500000 6.984375 C7.260420 6.984375 7.851560 6.916667 8.273438 6.781250 C8.695315 6.645833 8.906250 6.447918 8.906250 6.187500 C8.906250 5.916665 8.713544 5.661460 8.328125 5.421875 C7.942706 5.182290 7.442711 4.986980 6.828125 4.835938 C6.213539 4.684895 5.557295 4.609375 4.859375 4.609375 C4.098955 4.609375 3.507815 4.679687 3.085938 4.820312 C2.664060 4.960938 2.453125 5.156249 2.453125 5.406250 C2.453125 5.677085 2.645831 5.932290 3.031250 6.171875 C3.416669 6.411460 3.916664 6.606770 4.531250 6.757812 C5.145836 6.908855 5.802080 6.984375 6.500000 6.984375 Z M10.750000 29.515625 C11.364586 29.130206 11.979164 28.731773 12.593750 28.320312 C13.208336 27.908852 13.770831 27.507814 14.281250 27.117188 C14.791669 26.726561 15.203123 26.375002 15.515625 26.062500 C16.869798 26.947921 18.067703 27.578123 19.109375 27.953125 C20.151047 28.328127 21.239578 28.515625 22.375000 28.515625 C23.802090 28.515625 25.148431 28.236982 26.414062 27.679688 C27.679694 27.122393 28.781245 26.328130 29.718750 25.296875 C29.614583 25.276042 29.541667 25.260417 29.500000 25.250000 C28.989581 25.114583 28.492190 24.895835 28.007812 24.593750 C27.523435 24.291665 27.085939 23.927085 26.695312 23.500000 C26.304686 23.072915 25.989585 22.609378 25.750000 22.109375 C25.156247 22.911462 24.471358 23.526040 23.695312 23.953125 C22.919267 24.380210 22.083338 24.593750 21.187500 24.593750 C20.854165 24.593750 20.450523 24.531251 19.976562 24.406250 C19.502602 24.281249 19.039065 24.114584 18.585938 23.906250 C18.132810 23.697916 17.770835 23.468751 17.500000 23.218750 C18.562505 22.416663 19.481767 21.682295 20.257812 21.015625 C21.033858 20.348955 21.718747 19.677087 22.312500 19.000000 C22.906253 18.322913 23.458331 17.578129 23.968750 16.765625 C24.479169 15.953121 24.999997 15.005214 25.531250 13.921875 C26.239587 13.796874 26.937497 13.653647 27.625000 13.492188 C28.312503 13.330728 28.833332 13.156251 29.187500 12.968750 C29.395834 12.854166 29.562499 12.598960 29.687500 12.203125 C29.812501 11.807290 29.875000 11.364586 29.875000 10.875000 C29.875000 10.593749 29.867188 10.406250 29.851562 10.312500 C29.835937 10.218750 29.802084 10.156250 29.750000 10.125000 C29.541666 9.979166 29.156253 9.828126 28.593750 9.671875 C28.031247 9.515624 27.484378 9.401042 26.953125 9.328125 C27.005209 8.869789 27.054687 8.341149 27.101562 7.742188 C27.148438 7.143226 27.187500 6.541670 27.218750 5.937500 C27.250000 5.333330 27.265625 4.812502 27.265625 4.375000 C27.265625 3.708330 27.036461 3.182294 26.578125 2.796875 C26.119789 2.411456 25.354172 2.135417 24.281250 1.968750 C23.208328 1.802083 21.744801 1.718750 19.890625 1.718750 C18.151033 1.718750 16.807296 1.817707 15.859375 2.015625 C14.911454 2.213543 14.255210 2.565102 13.890625 3.070312 C13.526040 3.575523 13.343750 4.302079 13.343750 5.250000 C13.343750 5.864586 13.382812 6.408852 13.460938 6.882812 C13.539063 7.356773 13.617187 7.822914 13.695312 8.281250 C13.773438 8.739586 13.812500 9.265622 13.812500 9.859375 C13.812500 10.682296 13.661460 11.635411 13.359375 12.718750 C13.057290 13.802089 12.671877 14.776037 12.203125 15.640625 C11.901040 16.192711 11.536460 16.739581 11.109375 17.281250 C10.682290 17.822919 10.184899 18.369789 9.617188 18.921875 C9.049476 19.473961 8.411462 20.049476 7.703125 20.648438 C6.994788 21.247399 6.208338 21.885413 5.343750 22.562500 C6.031253 22.770834 6.697913 23.109373 7.343750 23.578125 C7.989587 24.046877 8.567706 24.601559 9.078125 25.242188 C9.588544 25.882816 9.994790 26.565101 10.296875 27.289062 C10.598960 28.013024 10.750000 28.729163 10.750000 29.437500 C10.750000 29.447917 10.750000 29.458333 10.750000 29.468750 C10.750000 29.479167 10.750000 29.494792 10.750000 29.515625 Z M24.343750 18.390625 C23.645830 18.307291 22.945316 18.093752 22.242188 17.750000 C21.539059 17.406248 20.666672 16.828129 19.625000 16.015625 C18.927080 15.463539 18.338544 15.041668 17.859375 14.750000 C17.380206 14.458332 16.940106 14.257813 16.539062 14.148438 C16.138019 14.039062 15.708336 13.984375 15.250000 13.984375 C14.999999 13.984375 14.674481 14.010416 14.273438 14.062500 C13.872394 14.114584 13.484377 14.208333 13.109375 14.343750 C12.734373 14.479167 12.442709 14.682290 12.234375 14.953125 L11.015625 13.984375 C11.265626 13.661457 11.601560 13.385418 12.023438 13.156250 C12.445315 12.927082 12.924476 12.747396 13.460938 12.617188 C13.997399 12.486979 14.562497 12.421875 15.156250 12.421875 C15.791670 12.421875 16.377601 12.489583 16.914062 12.625000 C17.450524 12.760417 18.023434 13.005207 18.632812 13.359375 C19.242191 13.713543 19.968746 14.223955 20.812500 14.890625 C21.677088 15.567712 22.377601 16.046874 22.914062 16.328125 C23.450524 16.609376 23.979164 16.776041 24.500000 16.828125 Z M30.515625 23.718750 C30.723959 23.718750 30.872395 23.690104 30.960938 23.632812 C31.049480 23.575521 31.093750 23.458334 31.093750 23.281250 C31.093750 22.822914 30.906252 22.346357 30.531250 21.851562 C30.156248 21.356768 29.700524 20.937502 29.164062 20.593750 C28.627601 20.249998 28.125002 20.078125 27.656250 20.078125 C27.270831 20.078125 27.078125 20.223957 27.078125 20.515625 C27.078125 20.963544 27.268227 21.437498 27.648438 21.937500 C28.028648 22.437502 28.484372 22.859373 29.015625 23.203125 C29.546878 23.546877 30.046873 23.718750 30.515625 23.718750 Z M13.500000 10.906250 L12.125000 10.156250 C12.552085 9.395830 13.096351 8.783856 13.757812 8.320312 C14.419274 7.856769 15.270828 7.505210 16.312500 7.265625 C17.354172 7.026040 18.651034 6.880209 20.203125 6.828125 C21.630215 6.776041 22.796870 6.656251 23.703125 6.468750 C24.609380 6.281249 25.361976 5.992189 25.960938 5.601562 C26.559899 5.210936 27.093748 4.677087 27.562500 4.000000 L28.843750 4.906250 C28.239580 5.739587 27.575524 6.401039 26.851562 6.890625 C26.127601 7.380211 25.234380 7.739582 24.171875 7.968750 C23.109370 8.197918 21.765633 8.343750 20.140625 8.406250 C18.140615 8.479167 16.653651 8.697915 15.679688 9.062500 C14.705724 9.427085 13.979169 10.041662 13.500000 10.906250 Z M25.578125 15.140625 C24.807288 14.098953 24.421875 12.911465 24.421875 11.578125 C24.421875 10.359369 24.718747 9.750000 25.312500 9.750000 C25.562501 9.750000 25.765624 9.848957 25.921875 10.046875 C26.078126 10.244793 26.130209 10.463540 26.078125 10.703125 C26.015625 10.994793 25.984375 11.286457 25.984375 11.578125 C25.984375 12.557297 26.265622 13.442704 26.828125 14.234375 Z M36.718750 27.343750" /></svg>