<svg version="1.1" xmlns="http://www.w3.org/2000/svg" style="fill:rgba(0,0,0,1.0)" width="256" height="256" viewBox="0 0 36.71875 32.8125"><path fill="rgb(255, 255, 255)" d="M16.421875 32.812500 C14.171864 32.812500 12.054697 32.393233 10.070312 31.554688 C8.085928 30.716142 6.338549 29.549487 4.828125 28.054688 C3.317701 26.559888 2.135421 24.817718 1.281250 22.828125 C0.427079 20.838532 0.000000 18.697928 0.000000 16.406250 C0.000000 14.156239 0.427079 12.039072 1.281250 10.054688 C2.135421 8.070303 3.317701 6.325528 4.828125 4.820312 C6.338549 3.315097 8.085928 2.135421 10.070312 1.281250 C12.054697 0.427079 14.171864 -0.000000 16.421875 -0.000000 C18.671886 -0.000000 20.786448 0.427079 22.765625 1.281250 C24.744802 2.135421 26.486972 3.315097 27.992188 4.820312 C29.497403 6.325528 30.677079 8.070303 31.531250 10.054688 C32.385421 12.039072 32.812500 14.156239 32.812500 16.406250 C32.812500 18.697928 32.385421 20.838532 31.531250 22.828125 C30.677079 24.817718 29.497403 26.559888 27.992188 28.054688 C26.486972 29.549487 24.744802 30.716142 22.765625 31.554688 C20.786448 32.393233 18.671886 32.812500 16.421875 32.812500 Z M18.203125 22.109375 C18.057291 22.109375 17.984375 22.020834 17.984375 21.843750 C17.984375 21.458331 18.145832 21.255208 18.468750 21.234375 C18.687501 21.223958 18.796875 21.307291 18.796875 21.484375 C18.796875 21.640626 18.739584 21.783854 18.625000 21.914062 C18.510416 22.044271 18.369792 22.109375 18.203125 22.109375 Z M21.718750 27.406250 C21.864584 27.406250 22.002604 27.291668 22.132812 27.062500 C22.263021 26.833332 22.388020 26.575522 22.507812 26.289062 C22.627605 26.002603 22.734375 25.765626 22.828125 25.578125 C23.005209 25.234373 23.145833 24.929689 23.250000 24.664062 C23.354167 24.398436 23.406250 24.182292 23.406250 24.015625 C23.406250 23.880208 23.364584 23.812500 23.281250 23.812500 C23.187500 23.812500 23.072917 23.906249 22.937500 24.093750 C22.802083 24.281251 22.645834 24.473957 22.468750 24.671875 C22.281249 24.880209 22.080730 25.054687 21.867188 25.195312 C21.653645 25.335938 21.546875 25.458333 21.546875 25.562500 C21.546875 25.833335 21.541667 26.114582 21.531250 26.406250 C21.520833 26.697918 21.515625 26.921874 21.515625 27.078125 C21.515625 27.296876 21.583333 27.406250 21.718750 27.406250 Z M16.421875 29.656250 C16.776043 29.656250 17.036458 29.622396 17.203125 29.554688 C17.369792 29.486979 17.552082 29.380209 17.750000 29.234375 C17.979168 29.057291 18.138020 28.898438 18.226562 28.757812 C18.315105 28.617187 18.406250 28.510417 18.500000 28.437500 C18.864585 28.135415 19.122395 27.880209 19.273438 27.671875 C19.424480 27.463541 19.500000 27.161460 19.500000 26.765625 C19.500000 26.609374 19.609374 26.432293 19.828125 26.234375 C20.046876 26.036457 20.265624 25.835939 20.484375 25.632812 C20.703126 25.429686 20.812500 25.250001 20.812500 25.093750 C20.812500 25.031250 20.807292 24.861981 20.796875 24.585938 C20.786458 24.309894 20.776042 23.997398 20.765625 23.648438 C20.755208 23.299477 20.750000 22.989585 20.750000 22.718750 C20.750000 22.239581 20.895832 21.809898 21.187500 21.429688 C21.479168 21.049477 21.815102 20.671877 22.195312 20.296875 C22.575523 19.921873 22.911457 19.507815 23.203125 19.054688 C23.494793 18.601560 23.640625 18.067711 23.640625 17.453125 C23.640625 17.296874 23.627604 17.161459 23.601562 17.046875 C23.575521 16.932291 23.520834 16.875000 23.437500 16.875000 C23.302083 16.875000 23.083335 16.984374 22.781250 17.203125 C22.479165 17.421876 22.072919 17.531250 21.562500 17.531250 C21.374999 17.531250 21.265625 17.455730 21.234375 17.304688 C21.203125 17.153645 21.125001 17.000001 21.000000 16.843750 C20.895833 16.708333 20.742189 16.588542 20.539062 16.484375 C20.335936 16.380208 20.177084 16.270834 20.062500 16.156250 C20.020833 16.114583 19.992188 16.036459 19.976562 15.921875 C19.960937 15.807291 19.911459 15.697917 19.828125 15.593750 C19.786458 15.531250 19.716146 15.479167 19.617188 15.437500 C19.518229 15.395833 19.442709 15.338542 19.390625 15.265625 C19.307291 15.119791 19.257813 14.953126 19.242188 14.765625 C19.226562 14.578124 19.145834 14.369793 19.000000 14.140625 C18.958333 14.067708 18.882813 14.026042 18.773438 14.015625 C18.664062 14.005208 18.593750 13.968750 18.562500 13.906250 C18.531250 13.843750 18.515625 13.757813 18.515625 13.648438 C18.515625 13.539062 18.505208 13.458334 18.484375 13.406250 C18.359374 13.114582 18.244792 12.890626 18.140625 12.734375 C18.036458 12.578124 17.984375 12.473959 17.984375 12.421875 C17.984375 12.317708 18.026041 12.265625 18.109375 12.265625 C18.182292 12.265625 18.244791 12.307291 18.296875 12.390625 C18.348959 12.473959 18.416666 12.557291 18.500000 12.640625 C18.552084 12.692709 18.609375 12.750000 18.671875 12.812500 C18.734375 12.875000 18.786458 12.942708 18.828125 13.015625 C18.880209 13.088542 18.914062 13.156250 18.929688 13.218750 C18.945313 13.281250 18.979166 13.354166 19.031250 13.437500 C19.083334 13.500000 19.158854 13.562500 19.257812 13.625000 C19.356771 13.687500 19.427083 13.755208 19.468750 13.828125 C19.552084 13.963542 19.601562 14.078125 19.617188 14.171875 C19.632813 14.265625 19.739582 14.442707 19.937500 14.703125 C20.145834 14.973960 20.315104 15.135416 20.445312 15.187500 C20.575521 15.239584 20.739582 15.421873 20.937500 15.734375 C21.052084 15.921876 21.153645 16.158853 21.242188 16.445312 C21.330730 16.731772 21.463541 16.875000 21.640625 16.875000 C21.744792 16.875000 21.841145 16.848959 21.929688 16.796875 C22.018230 16.744791 22.177082 16.661459 22.406250 16.546875 C22.552084 16.463541 22.723957 16.380209 22.921875 16.296875 C23.119793 16.213541 23.291666 16.104167 23.437500 15.968750 C23.510417 15.906250 23.583333 15.820313 23.656250 15.710938 C23.729167 15.601562 23.817708 15.505209 23.921875 15.421875 C24.015625 15.348958 24.122395 15.291667 24.242188 15.250000 C24.361980 15.208333 24.442708 15.156250 24.484375 15.093750 C24.661459 14.854165 24.794270 14.609376 24.882812 14.359375 C24.971355 14.109374 25.015625 13.828127 25.015625 13.515625 C25.015625 13.338541 24.950521 13.205730 24.820312 13.117188 C24.690104 13.028645 24.552084 12.932292 24.406250 12.828125 C24.312500 12.755208 24.229167 12.677084 24.156250 12.593750 C24.083333 12.510416 24.005209 12.468750 23.921875 12.468750 C23.776041 12.468750 23.671875 12.567707 23.609375 12.765625 C23.546875 12.963543 23.411459 13.062500 23.203125 13.062500 C23.057291 13.062500 22.833335 12.932293 22.531250 12.671875 C22.479166 12.619791 22.429688 12.541667 22.382812 12.437500 C22.335937 12.333333 22.286459 12.255209 22.234375 12.203125 C22.088541 12.057291 21.947917 11.940105 21.812500 11.851562 C21.677083 11.763020 21.609375 11.651042 21.609375 11.515625 C21.609375 11.369791 21.687499 11.296875 21.843750 11.296875 C22.052084 11.296875 22.244791 11.427082 22.421875 11.687500 C22.598959 11.947918 22.833332 12.078125 23.125000 12.078125 C23.270834 12.078125 23.385416 12.028646 23.468750 11.929688 C23.552084 11.830729 23.677082 11.781250 23.843750 11.781250 C24.041668 11.781250 24.164062 11.869791 24.210938 12.046875 C24.257813 12.223959 24.421874 12.312500 24.703125 12.312500 C25.088544 12.312500 25.361978 12.270834 25.523438 12.187500 C25.684897 12.104166 25.864582 12.062500 26.062500 12.062500 C26.218751 12.062500 26.390624 12.174478 26.578125 12.398438 C26.765626 12.622397 26.966145 12.848957 27.179688 13.078125 C27.393230 13.307293 27.614582 13.421875 27.843750 13.421875 C27.895834 13.630209 27.999999 13.872394 28.156250 14.148438 C28.312501 14.424481 28.489582 14.755206 28.687500 15.140625 C28.812501 15.380210 28.924479 15.609374 29.023438 15.828125 C29.122396 16.046876 29.239583 16.156250 29.375000 16.156250 C29.520834 16.156250 29.606771 16.049480 29.632812 15.835938 C29.658854 15.622395 29.671875 15.130212 29.671875 14.359375 C29.671875 13.734372 29.664063 13.130211 29.648438 12.546875 C29.632812 11.963539 29.640625 11.286462 29.671875 10.515625 C29.192706 9.380203 28.528650 8.312505 27.679688 7.312500 C26.830725 6.312495 25.867193 5.427087 24.789062 4.656250 C23.710932 3.885413 22.593756 3.265627 21.437500 2.796875 C20.281244 2.328123 19.161464 2.057292 18.078125 1.984375 C18.015625 2.026042 17.971354 2.072916 17.945312 2.125000 C17.919271 2.177084 17.906250 2.229166 17.906250 2.281250 C17.906250 2.385417 17.963541 2.440104 18.078125 2.445312 C18.192709 2.450521 18.307291 2.450521 18.421875 2.445312 C18.536459 2.440104 18.593750 2.489583 18.593750 2.593750 C18.593750 2.760417 18.437502 2.890625 18.125000 2.984375 C17.812498 3.078125 17.583334 3.125000 17.437500 3.125000 C17.281249 3.125000 17.096355 2.997397 16.882812 2.742188 C16.669270 2.486978 16.395835 2.359375 16.062500 2.359375 C15.677081 2.359375 15.276044 2.481770 14.859375 2.726562 C14.442706 2.971355 14.067710 3.260415 13.734375 3.593750 C13.598958 3.729167 13.427084 3.835937 13.218750 3.914062 C13.010416 3.992188 12.825522 4.085937 12.664062 4.195312 C12.502603 4.304688 12.421875 4.468749 12.421875 4.687500 C12.421875 4.812501 12.450521 4.898437 12.507812 4.945312 C12.565104 4.992188 12.630208 5.015625 12.703125 5.015625 C12.786459 5.015625 12.867187 4.981771 12.945312 4.914062 C13.023438 4.846354 13.078125 4.812500 13.109375 4.812500 C13.161459 4.812500 13.195312 4.908853 13.210938 5.101562 C13.226563 5.294272 13.333332 5.390625 13.531250 5.390625 C13.656251 5.390625 13.750000 5.354167 13.812500 5.281250 C13.875000 5.208333 13.942708 5.135417 14.015625 5.062500 C14.109375 4.968750 14.197916 4.888021 14.281250 4.820312 C14.364584 4.752604 14.406250 4.697917 14.406250 4.656250 C14.406250 4.593750 14.401042 4.536459 14.390625 4.484375 C14.380208 4.432291 14.375000 4.369792 14.375000 4.296875 C14.375000 4.223958 14.460937 4.088543 14.632812 3.890625 C14.804688 3.692707 14.937500 3.593750 15.031250 3.593750 C15.145834 3.593750 15.203125 3.630208 15.203125 3.703125 C15.203125 3.796875 15.145834 3.916666 15.031250 4.062500 C14.916666 4.208334 14.859375 4.317708 14.859375 4.390625 C14.859375 4.421875 14.885416 4.437500 14.937500 4.437500 C15.020834 4.437500 15.143228 4.408854 15.304688 4.351562 C15.466147 4.294271 15.604166 4.265625 15.718750 4.265625 C15.875001 4.265625 15.953125 4.333333 15.953125 4.468750 C15.953125 4.562500 15.854168 4.638021 15.656250 4.695312 C15.458332 4.752604 15.244793 4.781250 15.015625 4.781250 C14.984375 4.781250 14.869793 4.890624 14.671875 5.109375 C14.609375 5.182292 14.507813 5.257812 14.367188 5.335938 C14.226562 5.414063 14.119792 5.489583 14.046875 5.562500 C13.953125 5.656250 13.859375 5.736979 13.765625 5.804688 C13.671875 5.872396 13.567709 5.906250 13.453125 5.906250 C13.286458 5.906250 13.177084 5.867188 13.125000 5.789062 C13.072916 5.710937 13.018229 5.635417 12.960938 5.562500 C12.903646 5.489583 12.770834 5.453125 12.562500 5.453125 C12.458333 5.453125 12.395833 5.492187 12.375000 5.570312 C12.354167 5.648438 12.286459 5.723958 12.171875 5.796875 C12.088541 5.848959 11.984376 5.885417 11.859375 5.906250 C11.734374 5.927083 11.630209 5.973958 11.546875 6.046875 C11.348957 6.213542 11.174480 6.369791 11.023438 6.515625 C10.872395 6.661459 10.729167 6.734375 10.593750 6.734375 C10.520833 6.734375 10.453125 6.723958 10.390625 6.703125 C10.328125 6.682292 10.281250 6.671875 10.250000 6.671875 C10.177083 6.671875 10.106771 6.697916 10.039062 6.750000 C9.971354 6.802084 9.895834 6.859375 9.812500 6.921875 C9.770833 6.963542 9.721354 7.005208 9.664062 7.046875 C9.606771 7.088542 9.578125 7.156250 9.578125 7.250000 C9.578125 7.322917 9.596354 7.382812 9.632812 7.429688 C9.669271 7.476563 9.765624 7.572916 9.921875 7.718750 C9.869791 7.739583 9.802084 7.843749 9.718750 8.031250 C9.666666 8.041667 9.598959 8.046875 9.515625 8.046875 C9.432291 8.046875 9.359375 8.046875 9.296875 8.046875 C9.098957 8.046875 8.937501 8.036458 8.812500 8.015625 C8.687499 7.994792 8.614583 7.984375 8.593750 7.984375 C8.447916 7.984375 8.270834 8.276039 8.062500 8.859375 C8.020833 8.963542 7.966146 9.062500 7.898438 9.156250 C7.830729 9.250000 7.796875 9.338541 7.796875 9.421875 C7.796875 9.619793 7.867187 9.794270 8.007812 9.945312 C8.148438 10.096355 8.255208 10.171875 8.328125 10.171875 C8.640627 10.171875 8.947915 10.067709 9.250000 9.859375 C9.364584 9.776041 9.453125 9.658855 9.515625 9.507812 C9.578125 9.356770 9.666666 9.244792 9.781250 9.171875 C10.020835 9.005208 10.210937 8.867188 10.351562 8.757812 C10.492188 8.648437 10.572917 8.536459 10.593750 8.421875 C10.979169 8.421875 11.244791 8.330730 11.390625 8.148438 C11.536459 7.966145 11.645833 7.875000 11.718750 7.875000 C11.770834 7.875000 11.820312 7.947916 11.867188 8.093750 C11.914063 8.239584 11.989583 8.385416 12.093750 8.531250 C12.166667 8.625000 12.250000 8.708333 12.343750 8.781250 C12.437500 8.854167 12.526041 8.932291 12.609375 9.015625 C12.734376 9.140626 12.848958 9.252604 12.953125 9.351562 C13.057292 9.450521 13.145833 9.500000 13.218750 9.500000 C13.291667 9.500000 13.338542 9.463542 13.359375 9.390625 C13.380208 9.317708 13.390625 9.229167 13.390625 9.125000 C13.390625 9.010416 13.270835 8.838543 13.031250 8.609375 C12.791665 8.380207 12.671875 8.130210 12.671875 7.859375 C12.671875 7.755208 12.692708 7.661459 12.734375 7.578125 C12.755208 7.598958 12.807291 7.653645 12.890625 7.742188 C12.973959 7.830730 13.078124 7.921875 13.203125 8.015625 C13.296875 8.088542 13.408854 8.156250 13.539062 8.218750 C13.669271 8.281250 13.750000 8.369791 13.781250 8.484375 C13.854167 8.723960 13.955729 8.950520 14.085938 9.164062 C14.216146 9.377605 14.296875 9.572916 14.328125 9.750000 C14.348958 9.864584 14.393229 9.960937 14.460938 10.039062 C14.528646 10.117188 14.583333 10.156250 14.625000 10.156250 C14.687500 10.156250 14.765625 10.122396 14.859375 10.054688 C14.953125 9.986979 15.000000 9.901042 15.000000 9.796875 C15.000000 9.682291 14.973959 9.593750 14.921875 9.531250 C14.869791 9.468750 14.843750 9.338543 14.843750 9.140625 C14.843750 8.994791 14.895833 8.908854 15.000000 8.882812 C15.104167 8.856771 15.270832 8.843750 15.500000 8.843750 C15.645834 8.843750 15.765625 8.817709 15.859375 8.765625 C15.953125 8.713541 16.000000 8.635417 16.000000 8.531250 C16.000000 8.281249 16.093749 8.036460 16.281250 7.796875 C16.468751 7.557290 16.661457 7.437500 16.859375 7.437500 C16.953125 7.437500 17.039062 7.468750 17.117188 7.531250 C17.195313 7.593750 17.286458 7.625000 17.390625 7.625000 C17.463542 7.625000 17.575520 7.585938 17.726562 7.507812 C17.877605 7.429687 18.000000 7.390625 18.093750 7.390625 C18.229167 7.390625 18.369791 7.458333 18.515625 7.593750 C18.661459 7.729167 18.802083 7.838541 18.937500 7.921875 C19.052084 7.994792 19.156250 8.036458 19.250000 8.046875 C19.343750 8.057292 19.390625 8.072917 19.390625 8.093750 C19.390625 8.239584 19.257814 8.364583 18.992188 8.468750 C18.726561 8.572917 18.437502 8.625000 18.125000 8.625000 C18.020833 8.625000 17.927084 8.591146 17.843750 8.523438 C17.760416 8.455729 17.661459 8.421875 17.546875 8.421875 C17.421874 8.421875 17.307292 8.442708 17.203125 8.484375 C17.098958 8.526042 16.979167 8.562500 16.843750 8.593750 C16.572915 8.656250 16.317710 8.744791 16.078125 8.859375 C15.838540 8.973959 15.718750 9.114583 15.718750 9.281250 C15.718750 9.416667 15.791666 9.585936 15.937500 9.789062 C16.083334 9.992189 16.302082 10.093750 16.593750 10.093750 C16.656250 10.093750 16.713541 10.083333 16.765625 10.062500 C16.817709 10.041667 16.880208 10.020833 16.953125 10.000000 C17.005209 9.979167 17.067708 9.971354 17.140625 9.976562 C17.213542 9.981771 17.276041 9.984375 17.328125 9.984375 C17.473959 9.984375 17.596354 9.934896 17.695312 9.835938 C17.794271 9.736979 17.895833 9.687500 18.000000 9.687500 C18.041667 9.687500 18.075521 9.747395 18.101562 9.867188 C18.127604 9.986980 18.140625 10.114583 18.140625 10.250000 C18.140625 10.739586 18.117188 11.059895 18.070312 11.210938 C18.023437 11.361980 17.911459 11.437500 17.734375 11.437500 C17.567708 11.437500 17.473958 11.492187 17.453125 11.601562 C17.432292 11.710938 17.348959 11.765625 17.203125 11.765625 C16.776040 11.765625 16.322919 11.679688 15.843750 11.507812 C15.364581 11.335937 14.885419 11.250000 14.406250 11.250000 C14.177082 11.250000 14.033854 11.296875 13.976562 11.390625 C13.919271 11.484375 13.877604 11.578125 13.851562 11.671875 C13.825521 11.765625 13.750001 11.812500 13.625000 11.812500 C13.416666 11.812500 13.216147 11.734376 13.023438 11.578125 C12.830728 11.421874 12.614585 11.276042 12.375000 11.140625 C12.270833 11.088541 12.130209 11.044271 11.953125 11.007812 C11.776041 10.971354 11.687500 10.911459 11.687500 10.828125 C11.687500 10.744791 11.713541 10.669271 11.765625 10.601562 C11.817709 10.533854 11.843750 10.463542 11.843750 10.390625 C11.843750 10.276041 11.768230 10.177084 11.617188 10.093750 C11.466145 10.010416 11.312501 9.968750 11.156250 9.968750 C11.020833 9.968750 10.799481 9.989583 10.492188 10.031250 C10.184894 10.072917 9.958334 10.093750 9.812500 10.093750 C9.604166 10.093750 9.432292 10.171874 9.296875 10.328125 C9.161458 10.484376 9.015626 10.562500 8.859375 10.562500 C8.723958 10.562500 8.562501 10.552083 8.375000 10.531250 C8.187499 10.510417 8.010417 10.500000 7.843750 10.500000 C7.614582 10.500000 7.390626 10.614582 7.171875 10.843750 C6.953124 11.072918 6.817709 11.312499 6.765625 11.562500 C6.713541 11.791668 6.614584 11.973958 6.468750 12.109375 C6.322916 12.244792 6.130210 12.359375 5.890625 12.453125 C5.817708 12.484375 5.736980 12.593749 5.648438 12.781250 C5.559895 12.968751 5.463542 13.135416 5.359375 13.281250 C5.255208 13.427084 5.151042 13.544270 5.046875 13.632812 C4.942708 13.721355 4.890625 13.848958 4.890625 14.015625 C4.890625 14.682295 4.796876 15.249998 4.609375 15.718750 C4.421874 16.187502 4.328125 16.677081 4.328125 17.187500 C4.328125 17.677086 4.494790 17.984374 4.828125 18.109375 C4.921875 18.140625 5.057291 18.304686 5.234375 18.601562 C5.411459 18.898439 5.611978 19.187499 5.835938 19.468750 C6.059897 19.750001 6.276041 19.890625 6.484375 19.890625 C6.588542 19.890625 6.684895 19.856771 6.773438 19.789062 C6.861980 19.721354 6.942708 19.687500 7.015625 19.687500 C7.130209 19.687500 7.234375 19.755208 7.328125 19.890625 C7.421875 20.026042 7.578124 20.093750 7.796875 20.093750 C8.036460 20.093750 8.278645 20.013022 8.523438 19.851562 C8.768230 19.690103 8.973958 19.609375 9.140625 19.609375 C9.265626 19.609375 9.364583 19.661458 9.437500 19.765625 C9.510417 19.869792 9.601562 19.976562 9.710938 20.085938 C9.820313 20.195313 9.994790 20.250000 10.234375 20.250000 C10.703127 20.250000 10.937500 20.432290 10.937500 20.796875 C10.937500 20.932292 10.929688 21.059895 10.914062 21.179688 C10.898437 21.299480 10.890625 21.447916 10.890625 21.625000 C10.890625 21.979168 11.020832 22.283853 11.281250 22.539062 C11.541668 22.794272 11.815103 23.096352 12.101562 23.445312 C12.388022 23.794273 12.557291 24.296872 12.609375 24.953125 C12.494791 25.057292 12.395834 25.179687 12.312500 25.320312 C12.229166 25.460938 12.187500 25.677082 12.187500 25.968750 C12.187500 26.083334 12.283853 26.273436 12.476562 26.539062 C12.669272 26.804689 12.911457 27.104165 13.203125 27.437500 C13.328126 27.572917 13.447916 27.716145 13.562500 27.867188 C13.677084 28.018230 13.802083 28.177082 13.937500 28.343750 C14.020834 28.447917 14.124999 28.533854 14.250000 28.601562 C14.375001 28.669271 14.479166 28.755208 14.562500 28.859375 C14.822918 29.161460 15.080728 29.369791 15.335938 29.484375 C15.591147 29.598959 15.953123 29.656250 16.421875 29.656250 Z M11.484375 9.468750 C11.567709 9.468750 11.638021 9.401042 11.695312 9.265625 C11.752604 9.130208 11.781250 8.973959 11.781250 8.796875 C11.781250 8.619791 11.734375 8.531250 11.640625 8.531250 C11.432291 8.531250 11.328125 8.718748 11.328125 9.093750 C11.328125 9.343751 11.380208 9.468750 11.484375 9.468750 Z M10.593750 6.265625 C10.739584 6.265625 10.851562 6.190105 10.929688 6.039062 C11.007813 5.888020 11.046875 5.578127 11.046875 5.109375 C11.046875 4.984374 11.033854 4.882813 11.007812 4.804688 C10.981771 4.726562 10.921875 4.687500 10.828125 4.687500 C10.619791 4.687500 10.515625 4.885415 10.515625 5.281250 C10.515625 5.375000 10.479167 5.447916 10.406250 5.500000 C10.333333 5.552084 10.187501 5.578125 9.968750 5.578125 C9.843749 5.578125 9.716146 5.622395 9.585938 5.710938 C9.455729 5.799480 9.390625 5.916666 9.390625 6.062500 C9.390625 6.145834 9.466145 6.200521 9.617188 6.226562 C9.768230 6.252604 10.093748 6.265625 10.593750 6.265625 Z M17.468750 10.609375 C17.635418 10.609375 17.718750 10.536459 17.718750 10.390625 C17.718750 10.255208 17.635418 10.187500 17.468750 10.187500 C17.302082 10.187500 17.218750 10.255208 17.218750 10.390625 C17.218750 10.536459 17.302082 10.609375 17.468750 10.609375 Z M9.218750 4.218750 C9.333334 4.218750 9.468749 4.179688 9.625000 4.101562 C9.781251 4.023437 9.958332 3.947917 10.156250 3.875000 C10.458335 3.760416 10.789061 3.630209 11.148438 3.484375 C11.507814 3.338541 11.864582 3.192709 12.218750 3.046875 C12.750003 2.828124 13.247394 2.653646 13.710938 2.523438 C14.174481 2.393229 14.406250 2.270834 14.406250 2.156250 C14.406250 2.062500 14.307293 2.000000 14.109375 1.968750 C13.911457 1.937500 13.684897 1.914063 13.429688 1.898438 C13.174478 1.882812 12.953126 1.859375 12.765625 1.828125 L10.187500 2.687500 C9.885415 2.895834 9.604168 3.145832 9.343750 3.437500 C9.083332 3.729168 8.953125 3.942708 8.953125 4.078125 C8.953125 4.171875 9.041666 4.218750 9.218750 4.218750 Z M22.000000 9.578125 C21.666665 9.578125 21.429688 9.500001 21.289062 9.343750 C21.148437 9.187499 21.046875 9.002605 20.984375 8.789062 C20.921875 8.575520 20.833334 8.375001 20.718750 8.187500 C20.614583 7.999999 20.468751 7.888021 20.281250 7.851562 C20.093749 7.815104 20.000000 7.666668 20.000000 7.406250 C20.000000 7.218749 20.054687 7.062501 20.164062 6.937500 C20.273438 6.812499 20.395833 6.750000 20.531250 6.750000 C20.645834 6.750000 20.739583 6.786458 20.812500 6.859375 C20.885417 6.932292 20.921875 7.026041 20.921875 7.140625 C20.921875 7.203125 20.914063 7.257812 20.898438 7.304688 C20.882812 7.351563 20.875000 7.390625 20.875000 7.421875 C20.875000 7.515625 21.010415 7.656249 21.281250 7.843750 C21.552085 8.031251 21.820311 8.247395 22.085938 8.492188 C22.351564 8.736980 22.484375 8.989582 22.484375 9.250000 C22.484375 9.354167 22.453125 9.434896 22.390625 9.492188 C22.328125 9.549479 22.197918 9.578125 22.000000 9.578125 Z M36.718750 27.343750" /></svg>