<svg version="1.1" xmlns="http://www.w3.org/2000/svg" style="fill:rgba(0,0,0,1.0)" width="256" height="256" viewBox="0 0 36.71875 32.8125"><path fill="rgb(255, 255, 255)" d="M16.421875 32.812500 C14.171864 32.812500 12.054697 32.393233 10.070312 31.554688 C8.085928 30.716142 6.338549 29.549487 4.828125 28.054688 C3.317701 26.559888 2.135421 24.817718 1.281250 22.828125 C0.427079 20.838532 0.000000 18.697928 0.000000 16.406250 C0.000000 14.156239 0.427079 12.039072 1.281250 10.054688 C2.135421 8.070303 3.317701 6.325528 4.828125 4.820312 C6.338549 3.315097 8.085928 2.135421 10.070312 1.281250 C12.054697 0.427079 14.171864 -0.000000 16.421875 -0.000000 C18.671886 -0.000000 20.786448 0.427079 22.765625 1.281250 C24.744802 2.135421 26.486972 3.315097 27.992188 4.820312 C29.497403 6.325528 30.677079 8.070303 31.531250 10.054688 C32.385421 12.039072 32.812500 14.156239 32.812500 16.406250 C32.812500 18.697928 32.385421 20.838532 31.531250 22.828125 C30.677079 24.817718 29.497403 26.559888 27.992188 28.054688 C26.486972 29.549487 24.744802 30.716142 22.765625 31.554688 C20.786448 32.393233 18.671886 32.812500 16.421875 32.812500 Z M20.828125 30.062500 C20.953126 30.062500 21.083333 29.989584 21.218750 29.843750 C21.354167 29.697916 21.421875 29.567709 21.421875 29.453125 C21.421875 29.286458 21.276043 29.203125 20.984375 29.203125 C20.630207 29.203125 20.453125 29.322915 20.453125 29.562500 C20.453125 29.697917 20.492187 29.815104 20.570312 29.914062 C20.648438 30.013021 20.734375 30.062500 20.828125 30.062500 Z M12.781250 22.265625 C13.531254 22.265625 14.093748 22.184897 14.468750 22.023438 C14.843752 21.861978 15.182290 21.781250 15.484375 21.781250 C15.630209 21.781250 15.739583 21.729167 15.812500 21.625000 C15.885417 21.520833 15.973958 21.468750 16.078125 21.468750 C16.182292 21.468750 16.320312 21.401042 16.492188 21.265625 C16.664063 21.130208 16.750000 21.010417 16.750000 20.906250 C16.750000 20.843750 16.718750 20.812500 16.656250 20.812500 C16.583333 20.812500 16.479167 20.854166 16.343750 20.937500 C16.208333 21.020834 16.104167 21.114583 16.031250 21.218750 C15.947916 21.333334 15.854167 21.390625 15.750000 21.390625 C15.614583 21.390625 15.414064 21.408854 15.148438 21.445312 C14.882811 21.481771 14.625001 21.526041 14.375000 21.578125 C14.145832 21.619792 13.901043 21.661458 13.640625 21.703125 C13.380207 21.744792 13.083335 21.765625 12.750000 21.765625 C12.635416 21.765625 12.520834 21.760417 12.406250 21.750000 C12.291666 21.739583 12.161459 21.734375 12.015625 21.734375 C11.973958 21.734375 11.932292 21.763021 11.890625 21.820312 C11.848958 21.877604 11.828125 21.937500 11.828125 22.000000 C11.828125 22.052084 11.851562 22.106771 11.898438 22.164062 C11.945313 22.221354 11.994791 22.250000 12.046875 22.250000 C12.192709 22.250000 12.320312 22.252604 12.429688 22.257812 C12.539063 22.263021 12.656249 22.265625 12.781250 22.265625 Z M13.265625 21.093750 C13.348959 21.093750 13.442708 20.976564 13.546875 20.742188 C13.651042 20.507811 13.747395 20.268230 13.835938 20.023438 C13.924480 19.778645 13.984375 19.640625 14.015625 19.609375 C14.067709 19.557291 14.117187 19.500000 14.164062 19.437500 C14.210938 19.375000 14.234375 19.317709 14.234375 19.265625 C14.234375 19.119791 14.239583 18.986980 14.250000 18.867188 C14.260417 18.747395 14.270833 18.619792 14.281250 18.484375 C14.302083 18.359374 14.338541 18.210938 14.390625 18.039062 C14.442709 17.867187 14.468750 17.718751 14.468750 17.593750 C14.468750 17.468749 14.421875 17.406250 14.328125 17.406250 C13.942706 17.406250 13.671876 17.463541 13.515625 17.578125 C13.401041 17.661459 13.330729 17.812499 13.304688 18.031250 C13.278646 18.250001 13.208334 18.401041 13.093750 18.484375 C12.916666 18.619792 12.729168 18.776041 12.531250 18.953125 C12.333332 19.130209 12.187500 19.296874 12.093750 19.453125 L11.671875 19.453125 C11.567708 19.453125 11.460938 19.492187 11.351562 19.570312 C11.242187 19.648438 11.187500 19.739583 11.187500 19.843750 C11.187500 19.979167 11.255208 20.138020 11.390625 20.320312 C11.526042 20.502605 11.671874 20.661458 11.828125 20.796875 C11.984376 20.932292 12.098958 21.000000 12.171875 21.000000 C12.265625 21.000000 12.348958 20.986979 12.421875 20.960938 C12.494792 20.934896 12.578125 20.921875 12.671875 20.921875 C12.776042 20.921875 12.875000 20.950521 12.968750 21.007812 C13.062500 21.065104 13.161458 21.093750 13.265625 21.093750 Z M20.812500 28.687500 C21.302086 28.687500 21.671874 28.591147 21.921875 28.398438 C22.171876 28.205728 22.380208 27.981772 22.546875 27.726562 C22.713542 27.471353 22.916665 27.250001 23.156250 27.062500 C23.885420 26.499997 24.250000 25.906253 24.250000 25.281250 C24.250000 25.041665 24.174480 24.888021 24.023438 24.820312 C23.872395 24.752604 23.796875 24.671875 23.796875 24.578125 C23.796875 24.505208 23.802083 24.434896 23.812500 24.367188 C23.822917 24.299479 23.828125 24.229167 23.828125 24.156250 C23.828125 23.947916 23.721355 23.752605 23.507812 23.570312 C23.294270 23.388020 23.187500 23.203126 23.187500 23.015625 C23.187500 22.911458 23.187500 22.812500 23.187500 22.718750 C23.187500 22.625000 23.187500 22.531250 23.187500 22.437500 C23.187500 22.333333 23.145834 22.221355 23.062500 22.101562 C22.979166 21.981770 22.906250 21.859376 22.843750 21.734375 C22.770833 21.588541 22.703125 21.455730 22.640625 21.335938 C22.578125 21.216145 22.484376 21.156250 22.359375 21.156250 C22.213541 21.156250 22.119792 21.286457 22.078125 21.546875 C22.036458 21.807293 21.979167 22.062499 21.906250 22.312500 C21.843750 22.541668 21.760417 22.729166 21.656250 22.875000 C21.552083 23.020834 21.401043 23.093750 21.203125 23.093750 C20.994791 23.093750 20.765626 22.986980 20.515625 22.773438 C20.265624 22.559895 20.140625 22.390626 20.140625 22.265625 C20.140625 22.151041 20.177083 22.062500 20.250000 22.000000 C20.322917 21.937500 20.359375 21.828126 20.359375 21.671875 C20.359375 21.494791 20.255209 21.369792 20.046875 21.296875 C19.838541 21.223958 19.520835 21.187500 19.093750 21.187500 C18.708331 21.187500 18.429688 21.223958 18.257812 21.296875 C18.085937 21.369792 17.973959 21.494791 17.921875 21.671875 C17.838541 21.932293 17.692709 22.062500 17.484375 22.062500 C17.348958 22.062500 17.250000 22.015625 17.187500 21.921875 C17.125000 21.828125 17.052084 21.781250 16.968750 21.781250 C16.885416 21.781250 16.742189 21.859374 16.539062 22.015625 C16.335936 22.171876 16.041669 22.411457 15.656250 22.734375 C15.614583 22.776042 15.583333 22.833333 15.562500 22.906250 C15.541667 22.979167 15.520833 23.041666 15.500000 23.093750 C15.489583 23.156250 15.460938 23.223958 15.414062 23.296875 C15.367187 23.369792 15.260417 23.442708 15.093750 23.515625 C14.916666 23.588542 14.781250 23.648437 14.687500 23.695312 C14.593750 23.742188 14.489584 23.765625 14.375000 23.765625 C14.197916 23.765625 14.070313 23.859374 13.992188 24.046875 C13.914062 24.234376 13.875000 24.416666 13.875000 24.593750 C13.875000 24.822918 13.999999 25.171873 14.250000 25.640625 C14.500001 26.109377 14.739582 26.630205 14.968750 27.203125 C14.895833 27.265625 14.846354 27.315104 14.820312 27.351562 C14.794271 27.388021 14.781250 27.427083 14.781250 27.468750 C14.781250 27.697918 15.010414 27.812500 15.468750 27.812500 C15.666668 27.812500 15.835937 27.799479 15.976562 27.773438 C16.117188 27.747396 16.270832 27.734375 16.437500 27.734375 C16.614584 27.734375 16.742187 27.697917 16.820312 27.625000 C16.898438 27.552083 17.044270 27.479167 17.257812 27.406250 C17.471355 27.333333 17.869789 27.296875 18.453125 27.296875 C18.953128 27.296875 19.203125 27.453123 19.203125 27.765625 C19.203125 27.796875 19.197917 27.830729 19.187500 27.867188 C19.177083 27.903646 19.171875 27.937500 19.171875 27.968750 C19.171875 28.041667 19.203125 28.104166 19.265625 28.156250 C19.328125 28.208334 19.406250 28.234375 19.500000 28.234375 C19.635417 28.234375 19.768229 28.309895 19.898438 28.460938 C20.028646 28.611980 20.333331 28.687500 20.812500 28.687500 Z M14.812500 21.078125 C15.135418 21.078125 15.296875 21.005209 15.296875 20.859375 C15.296875 20.765625 15.255209 20.690104 15.171875 20.632812 C15.088541 20.575521 15.046875 20.510417 15.046875 20.437500 C15.046875 20.385416 15.046875 20.338542 15.046875 20.296875 C15.046875 20.255208 15.046875 20.192709 15.046875 20.109375 C15.046875 19.994791 15.114583 19.914063 15.250000 19.867188 C15.385417 19.820312 15.520833 19.776042 15.656250 19.734375 C15.791667 19.692708 15.859375 19.625000 15.859375 19.531250 C15.859375 19.510417 15.859375 19.476563 15.859375 19.429688 C15.859375 19.382812 15.859375 19.343750 15.859375 19.312500 C15.859375 19.197916 15.828125 19.140625 15.765625 19.140625 C15.703125 19.140625 15.671875 19.203124 15.671875 19.328125 C15.671875 19.473959 15.614584 19.546875 15.500000 19.546875 C15.437500 19.546875 15.382813 19.518229 15.335938 19.460938 C15.289062 19.403646 15.203126 19.375000 15.078125 19.375000 C14.880207 19.375000 14.695313 19.481770 14.523438 19.695312 C14.351562 19.908855 14.265625 20.197915 14.265625 20.562500 C14.265625 20.906252 14.447915 21.078125 14.812500 21.078125 Z M22.562500 29.515625 C22.708334 29.515625 22.919269 29.455730 23.195312 29.335938 C23.471356 29.216145 23.752603 29.070313 24.039062 28.898438 C24.325522 28.726562 24.570311 28.557292 24.773438 28.390625 C24.976564 28.223958 25.078125 28.088542 25.078125 27.984375 C25.078125 27.932291 25.054688 27.856771 25.007812 27.757812 C24.960937 27.658854 24.911459 27.557292 24.859375 27.453125 C24.807291 27.317708 24.786458 27.203125 24.796875 27.109375 C24.807292 27.015625 24.755209 26.968750 24.640625 26.968750 C24.578125 26.968750 24.539063 27.010416 24.523438 27.093750 C24.507812 27.177084 24.500000 27.338540 24.500000 27.578125 C24.500000 27.723959 24.432292 27.833333 24.296875 27.906250 C24.151041 27.989584 24.078125 28.109374 24.078125 28.265625 C24.078125 28.484376 24.046875 28.593750 23.984375 28.593750 C23.901041 28.593750 23.835938 28.536459 23.789062 28.421875 C23.742187 28.307291 23.687500 28.250000 23.625000 28.250000 C23.572916 28.250000 23.476563 28.296875 23.335938 28.390625 C23.195312 28.484375 23.046876 28.583333 22.890625 28.687500 C22.651040 28.843751 22.494792 28.960937 22.421875 29.039062 C22.348958 29.117188 22.312500 29.197916 22.312500 29.281250 C22.312500 29.437501 22.395832 29.515625 22.562500 29.515625 Z M17.031250 20.125000 C17.197918 20.125000 17.281250 20.046876 17.281250 19.890625 C17.281250 19.765624 17.239584 19.671875 17.156250 19.609375 C17.072916 19.546875 17.031250 19.442709 17.031250 19.296875 C17.031250 19.192708 17.049479 19.117188 17.085938 19.070312 C17.122396 19.023437 17.140625 18.979167 17.140625 18.937500 C17.140625 18.843750 17.057292 18.796875 16.890625 18.796875 C16.744791 18.796875 16.632813 18.882812 16.554688 19.054688 C16.476562 19.226563 16.437500 19.437499 16.437500 19.687500 C16.197915 19.750000 16.078125 19.828125 16.078125 19.921875 C16.078125 20.026042 16.265623 20.078125 16.640625 20.078125 C16.692709 20.078125 16.755208 20.085937 16.828125 20.101562 C16.901042 20.117188 16.968750 20.125000 17.031250 20.125000 Z M16.046875 18.828125 C16.286460 18.828125 16.406250 18.786459 16.406250 18.703125 C16.406250 18.661458 16.354167 18.536459 16.250000 18.328125 C16.322917 18.276041 16.359375 18.203125 16.359375 18.109375 C16.359375 18.015625 16.294271 17.875001 16.164062 17.687500 C16.033854 17.499999 15.890626 17.330730 15.734375 17.179688 C15.578124 17.028645 15.458334 16.953125 15.375000 16.953125 C15.281250 16.953125 15.203125 16.888021 15.140625 16.757812 C15.078125 16.627604 15.046875 16.484376 15.046875 16.328125 C15.046875 16.161458 15.018229 16.041667 14.960938 15.968750 C14.903646 15.895833 14.833334 15.859375 14.750000 15.859375 C14.677083 15.859375 14.630208 15.903645 14.609375 15.992188 C14.588542 16.080730 14.578125 16.255207 14.578125 16.515625 C14.578125 16.869793 14.697915 17.182290 14.937500 17.453125 C14.937500 17.494792 14.937500 17.539062 14.937500 17.585938 C14.937500 17.632813 14.937500 17.677083 14.937500 17.718750 C14.937500 18.072918 14.966146 18.299479 15.023438 18.398438 C15.080729 18.497396 15.197916 18.546875 15.375000 18.546875 C15.458334 18.546875 15.565104 18.593750 15.695312 18.687500 C15.825521 18.781250 15.942708 18.828125 16.046875 18.828125 Z M11.234375 22.000000 C11.317709 22.000000 11.382812 21.947917 11.429688 21.843750 C11.476563 21.739583 11.500000 21.645834 11.500000 21.562500 C11.500000 21.458333 11.382814 21.296876 11.148438 21.078125 C10.914061 20.859374 10.687501 20.604168 10.468750 20.312500 C10.343749 20.145832 10.239584 19.958334 10.156250 19.750000 C10.072916 19.541666 9.989584 19.385417 9.906250 19.281250 C9.854166 19.218750 9.710939 19.135417 9.476562 19.031250 C9.242186 18.927083 9.109375 18.817709 9.078125 18.703125 C8.994791 18.390623 8.953125 18.127605 8.953125 17.914062 C8.953125 17.700520 9.026041 17.593750 9.171875 17.593750 C9.328126 17.593750 9.476562 17.679687 9.617188 17.851562 C9.757813 18.023438 9.888020 18.197916 10.007812 18.375000 C10.127605 18.552084 10.223958 18.640625 10.296875 18.640625 C10.380209 18.640625 10.481770 18.601563 10.601562 18.523438 C10.721355 18.445312 10.843749 18.380209 10.968750 18.328125 C11.145834 18.244791 11.299479 18.164063 11.429688 18.085938 C11.559896 18.007812 11.625000 17.911459 11.625000 17.796875 C11.625000 17.494790 11.554688 17.250001 11.414062 17.062500 C11.273437 16.874999 11.132813 16.718751 10.992188 16.593750 C10.851562 16.468749 10.781250 16.348959 10.781250 16.234375 C10.781250 16.119791 10.859374 15.997396 11.015625 15.867188 C11.171876 15.736979 11.322916 15.671875 11.468750 15.671875 C11.593751 15.671875 11.656250 15.697916 11.656250 15.750000 C11.656250 15.791667 11.617188 15.848958 11.539062 15.921875 C11.460937 15.994792 11.421875 16.088541 11.421875 16.203125 C11.421875 16.276042 11.447916 16.338541 11.500000 16.390625 C11.552084 16.442709 11.614583 16.468750 11.687500 16.468750 C11.843751 16.468750 11.958333 16.388022 12.031250 16.226562 C12.104167 16.065103 12.203124 15.901042 12.328125 15.734375 C12.453126 15.567708 12.671873 15.484375 12.984375 15.484375 C13.338543 15.484375 13.674478 15.380209 13.992188 15.171875 C14.309897 14.963541 14.671873 14.619794 15.078125 14.140625 C15.369793 13.796873 15.546875 13.572917 15.609375 13.468750 C15.671875 13.364583 15.703125 13.250001 15.703125 13.125000 C15.703125 12.843749 15.638021 12.635417 15.507812 12.500000 C15.377604 12.364583 15.244792 12.257813 15.109375 12.179688 C14.973958 12.101562 14.906250 12.026042 14.906250 11.953125 C14.906250 11.880208 14.958333 11.778646 15.062500 11.648438 C15.166667 11.518229 15.218750 11.375001 15.218750 11.218750 C15.218750 11.125000 15.130209 11.065104 14.953125 11.039062 C14.776041 11.013021 14.687500 10.901043 14.687500 10.703125 C14.687500 10.567708 14.776041 10.434896 14.953125 10.304688 C15.130209 10.174479 15.270833 10.109375 15.375000 10.109375 C15.437500 10.109375 15.468750 10.135416 15.468750 10.187500 C15.468750 10.229167 15.458333 10.273437 15.437500 10.320312 C15.416667 10.367188 15.406250 10.421875 15.406250 10.484375 C15.406250 10.609376 15.567707 10.671875 15.890625 10.671875 C16.109376 10.671875 16.223958 10.721354 16.234375 10.820312 C16.244792 10.919271 16.380207 10.994791 16.640625 11.046875 C16.640625 11.151042 16.640625 11.265624 16.640625 11.390625 C16.640625 11.515626 16.640625 11.630208 16.640625 11.734375 C16.640625 11.963543 16.661458 12.078125 16.703125 12.078125 C16.973960 12.078125 17.171874 12.010417 17.296875 11.875000 C17.421876 11.739583 17.484375 11.515627 17.484375 11.203125 C17.484375 10.921874 17.328127 10.609377 17.015625 10.265625 C17.307293 10.182291 17.471354 10.065105 17.507812 9.914062 C17.544271 9.763020 17.614583 9.630209 17.718750 9.515625 C17.802084 9.421875 17.947916 9.390625 18.156250 9.421875 C18.364584 9.453125 18.520833 9.421875 18.625000 9.328125 C18.718750 9.244791 18.791666 9.135417 18.843750 9.000000 C18.895834 8.864583 18.953125 8.739584 19.015625 8.625000 C19.140626 8.385415 19.244791 8.164064 19.328125 7.960938 C19.411459 7.757811 19.453125 7.510418 19.453125 7.218750 C19.453125 7.114583 19.416667 6.997396 19.343750 6.867188 C19.270833 6.736979 19.213542 6.604167 19.171875 6.468750 C19.119791 6.291666 19.065104 6.138021 19.007812 6.007812 C18.950521 5.877604 18.885417 5.812500 18.812500 5.812500 C18.729166 5.812500 18.666667 5.833333 18.625000 5.875000 C18.583333 5.916667 18.520834 5.937500 18.437500 5.937500 C18.333333 5.937500 18.231771 5.908854 18.132812 5.851562 C18.033854 5.794271 17.984375 5.697917 17.984375 5.562500 C17.984375 5.343749 18.096353 5.104168 18.320312 4.843750 C18.544272 4.583332 18.796874 4.453125 19.078125 4.453125 C19.171875 4.453125 19.263020 4.486979 19.351562 4.554688 C19.440105 4.622396 19.552083 4.656250 19.687500 4.656250 C19.822917 4.656250 19.934895 4.578126 20.023438 4.421875 C20.111980 4.265624 20.210937 4.111980 20.320312 3.960938 C20.429688 3.809895 20.578124 3.734375 20.765625 3.734375 C20.880209 3.734375 20.960937 3.796874 21.007812 3.921875 C21.054688 4.046876 21.078125 4.187499 21.078125 4.343750 C21.078125 4.416667 21.070313 4.507812 21.054688 4.617188 C21.039062 4.726563 21.031250 4.828125 21.031250 4.921875 C21.031250 5.026042 21.059896 5.109375 21.117188 5.171875 C21.174479 5.234375 21.223958 5.312500 21.265625 5.406250 C21.359375 5.635418 21.463541 5.848957 21.578125 6.046875 C21.692709 6.244793 21.802083 6.343750 21.906250 6.343750 C21.979167 6.343750 22.031250 6.229168 22.062500 6.000000 C22.093750 5.770832 22.109375 5.479168 22.109375 5.125000 C22.109375 4.854165 22.083334 4.643230 22.031250 4.492188 C21.979166 4.341145 21.953125 4.088543 21.953125 3.734375 C21.953125 3.557291 21.968750 3.434896 22.000000 3.367188 C22.031250 3.299479 22.046875 3.182292 22.046875 3.015625 C22.046875 2.963541 22.044271 2.906250 22.039062 2.843750 C22.033854 2.781250 22.026042 2.713542 22.015625 2.640625 C21.296871 2.369790 20.479171 2.145834 19.562500 1.968750 C18.645829 1.791666 17.848962 1.713542 17.171875 1.734375 C17.026041 1.911459 16.903646 2.052083 16.804688 2.156250 C16.705729 2.260417 16.635417 2.312500 16.593750 2.312500 C16.416666 2.312500 16.161460 2.291667 15.828125 2.250000 C15.494790 2.208333 15.223959 2.145834 15.015625 2.062500 C14.963541 2.041667 14.932292 2.002604 14.921875 1.945312 C14.911458 1.888021 14.906250 1.822917 14.906250 1.750000 C12.958324 1.885417 11.257820 2.322913 9.804688 3.062500 C8.351555 3.802087 7.119797 4.700516 6.109375 5.757812 C5.098953 6.815109 4.283857 7.916661 3.664062 9.062500 C3.044268 10.208339 2.593751 11.260412 2.312500 12.218750 C2.427084 12.291667 2.541666 12.388020 2.656250 12.507812 C2.770834 12.627605 2.828125 12.749999 2.828125 12.875000 C2.828125 13.062501 2.822917 13.236978 2.812500 13.398438 C2.802083 13.559897 2.796875 13.718749 2.796875 13.875000 C2.796875 13.979167 2.843750 14.033854 2.937500 14.039062 C3.031250 14.044271 3.078125 14.109374 3.078125 14.234375 C3.078125 14.651044 3.117187 15.111977 3.195312 15.617188 C3.273438 16.122398 3.364583 16.567706 3.468750 16.953125 C3.520834 17.140626 3.552083 17.335936 3.562500 17.539062 C3.572917 17.742189 3.630208 17.843750 3.734375 17.843750 C3.880209 17.843750 3.984375 17.692710 4.046875 17.390625 C4.109375 17.088540 4.169271 16.783856 4.226562 16.476562 C4.283854 16.169269 4.369791 16.015625 4.484375 16.015625 C4.598959 16.015625 4.781249 15.908855 5.031250 15.695312 C5.281251 15.481770 5.528645 15.268230 5.773438 15.054688 C6.018230 14.841145 6.187500 14.734375 6.281250 14.734375 C6.520835 14.734375 6.692708 14.763021 6.796875 14.820312 C6.901042 14.877604 7.026041 15.026040 7.171875 15.265625 C7.338542 15.526043 7.421875 15.744791 7.421875 15.921875 C7.421875 16.286460 7.450521 16.533854 7.507812 16.664062 C7.565104 16.794271 7.677082 16.859375 7.843750 16.859375 C8.041668 16.859375 8.182291 16.999999 8.265625 17.281250 C8.348959 17.562501 8.390625 17.895831 8.390625 18.281250 C8.390625 18.364584 8.398437 18.458333 8.414062 18.562500 C8.429688 18.666667 8.458333 18.760416 8.500000 18.843750 C8.604167 19.031251 8.721354 19.216145 8.851562 19.398438 C8.981771 19.580730 9.119791 19.760416 9.265625 19.937500 C8.994790 19.864583 8.742189 19.726564 8.507812 19.523438 C8.273436 19.320311 8.093751 19.218750 7.968750 19.218750 C7.833333 19.218750 7.815104 19.289062 7.914062 19.429688 C8.013021 19.570313 8.182290 19.755207 8.421875 19.984375 C8.661460 20.213543 8.916665 20.455728 9.187500 20.710938 C9.458335 20.966147 9.697916 21.208332 9.906250 21.437500 C9.979167 21.510417 10.059895 21.562500 10.148438 21.593750 C10.236980 21.625000 10.322916 21.666666 10.406250 21.718750 C10.541667 21.791667 10.677083 21.856771 10.812500 21.914062 C10.947917 21.971354 11.088541 22.000000 11.234375 22.000000 Z M21.875000 20.875000 C21.937500 20.875000 22.062499 20.838542 22.250000 20.765625 C22.437501 20.692708 22.531250 20.619792 22.531250 20.546875 C22.531250 20.526042 22.520833 20.497396 22.500000 20.460938 C22.479167 20.424479 22.468750 20.385417 22.468750 20.343750 C22.468750 20.250000 22.520833 20.203125 22.625000 20.203125 C22.791668 20.203125 22.950520 20.281249 23.101562 20.437500 C23.252605 20.593751 23.432291 20.671875 23.640625 20.671875 C23.848959 20.671875 23.953125 20.614584 23.953125 20.500000 C23.953125 20.385416 23.807293 20.307292 23.515625 20.265625 L22.984375 19.671875 L22.968750 19.312500 L22.593750 19.218750 C22.458333 19.114583 22.317709 19.013021 22.171875 18.914062 C22.026041 18.815104 21.880209 18.723959 21.734375 18.640625 C21.380207 18.619792 21.044272 18.614583 20.726562 18.625000 C20.408853 18.635417 20.093752 18.651042 19.781250 18.671875 C19.656249 18.796876 19.531251 18.950520 19.406250 19.132812 C19.281249 19.315105 19.161459 19.406250 19.046875 19.406250 C18.963541 19.406250 18.908854 19.351563 18.882812 19.242188 C18.856771 19.132812 18.822917 19.026042 18.781250 18.921875 C18.739583 18.817708 18.635418 18.765625 18.468750 18.765625 C18.364583 18.765625 18.221355 18.791666 18.039062 18.843750 C17.856770 18.895834 17.718750 18.958333 17.625000 19.031250 L17.625000 19.187500 C17.625000 19.291667 17.677083 19.369791 17.781250 19.421875 C17.885417 19.473959 17.963541 19.526041 18.015625 19.578125 C18.098959 19.651042 18.164062 19.739583 18.210938 19.843750 C18.257813 19.947917 18.406249 20.000000 18.656250 20.000000 C18.781251 20.000000 18.986978 19.989583 19.273438 19.968750 C19.559897 19.947917 19.828124 19.937500 20.078125 19.937500 C20.286459 19.937500 20.440104 19.958333 20.539062 20.000000 C20.638021 20.041667 20.687500 20.119791 20.687500 20.234375 C20.687500 20.359376 20.651042 20.437500 20.578125 20.468750 C20.505208 20.500000 20.468750 20.557291 20.468750 20.640625 C20.468750 20.755209 20.713539 20.812500 21.203125 20.812500 C21.317709 20.812500 21.434895 20.822917 21.554688 20.843750 C21.674480 20.864583 21.781250 20.875000 21.875000 20.875000 Z M12.796875 6.859375 C12.651041 6.859375 12.528646 6.799480 12.429688 6.679688 C12.330729 6.559895 12.281250 6.447917 12.281250 6.343750 C12.281250 6.229166 12.338541 6.156250 12.453125 6.125000 C12.567709 6.093750 12.692708 6.031250 12.828125 5.937500 C12.921875 5.864583 13.005208 5.776042 13.078125 5.671875 C13.151042 5.567708 13.239583 5.515625 13.343750 5.515625 C13.427084 5.515625 13.494791 5.565104 13.546875 5.664062 C13.598959 5.763021 13.625000 5.869791 13.625000 5.984375 C13.625000 6.213543 13.533855 6.416666 13.351562 6.593750 C13.169270 6.770834 12.984376 6.859375 12.796875 6.859375 Z M18.203125 12.937500 C18.244792 12.937500 18.489581 12.859376 18.937500 12.703125 C19.385419 12.557291 19.651041 12.427084 19.734375 12.312500 C19.848959 12.166666 19.945312 12.049480 20.023438 11.960938 C20.101563 11.872395 20.255207 11.713543 20.484375 11.484375 C20.536459 11.432291 20.578125 11.356771 20.609375 11.257812 C20.640625 11.158854 20.661458 10.994793 20.671875 10.765625 C20.682292 10.640624 20.697917 10.494792 20.718750 10.328125 C20.739583 10.161458 20.750000 9.963543 20.750000 9.734375 C20.750000 9.619791 20.822916 9.546875 20.968750 9.515625 C21.114584 9.484375 21.187500 9.348960 21.187500 9.109375 C21.187500 8.994791 21.140625 8.937500 21.046875 8.937500 C20.796874 8.937500 20.638021 8.872396 20.570312 8.742188 C20.502604 8.611979 20.437500 8.546875 20.375000 8.546875 C20.302083 8.546875 20.244792 8.622395 20.203125 8.773438 C20.161458 8.924480 20.140625 9.151040 20.140625 9.453125 C20.140625 9.890627 20.130208 10.223957 20.109375 10.453125 C20.088542 10.682293 20.052084 10.869791 20.000000 11.015625 C19.958333 11.057292 19.846355 11.161458 19.664062 11.328125 C19.481770 11.494792 19.354167 11.614583 19.281250 11.687500 C19.250000 11.718750 19.205729 11.736979 19.148438 11.742188 C19.091146 11.747396 18.947918 11.750000 18.718750 11.750000 C18.583333 11.750000 18.447917 11.804687 18.312500 11.914062 C18.177083 12.023438 18.078125 12.135416 18.015625 12.250000 C17.973958 12.322917 17.932292 12.382812 17.890625 12.429688 C17.848958 12.476563 17.828125 12.526041 17.828125 12.578125 C17.828125 12.671875 17.867187 12.755208 17.945312 12.828125 C18.023438 12.901042 18.109375 12.937500 18.203125 12.937500 Z M36.718750 27.343750" /></svg>