<svg version="1.1" xmlns="http://www.w3.org/2000/svg" style="fill:rgba(0,0,0,1.0)" width="256" height="256" viewBox="0 0 36.71875 32.8125"><path fill="rgb(255, 255, 255)" d="M16.421875 32.812500 C14.171864 32.812500 12.054697 32.393233 10.070312 31.554688 C8.085928 30.716142 6.338549 29.549487 4.828125 28.054688 C3.317701 26.559888 2.135421 24.817718 1.281250 22.828125 C0.427079 20.838532 0.000000 18.697928 0.000000 16.406250 C0.000000 14.156239 0.427079 12.039072 1.281250 10.054688 C2.135421 8.070303 3.317701 6.325528 4.828125 4.820312 C6.338549 3.315097 8.085928 2.135421 10.070312 1.281250 C12.054697 0.427079 14.171864 -0.000000 16.421875 -0.000000 C18.671886 -0.000000 20.786448 0.427079 22.765625 1.281250 C24.744802 2.135421 26.486972 3.315097 27.992188 4.820312 C29.497403 6.325528 30.677079 8.070303 31.531250 10.054688 C32.385421 12.039072 32.812500 14.156239 32.812500 16.406250 C32.812500 18.697928 32.385421 20.838532 31.531250 22.828125 C30.677079 24.817718 29.497403 26.559888 27.992188 28.054688 C26.486972 29.549487 24.744802 30.716142 22.765625 31.554688 C20.786448 32.393233 18.671886 32.812500 16.421875 32.812500 Z M17.515625 31.046875 C17.994794 31.046875 18.492185 31.013021 19.007812 30.945312 C19.523440 30.877604 19.958332 30.773438 20.312500 30.632812 C20.666668 30.492187 20.843750 30.317709 20.843750 30.109375 C20.843750 30.026041 20.812500 29.942709 20.750000 29.859375 C20.687500 29.776041 20.656250 29.692709 20.656250 29.609375 C20.656250 29.557291 20.684896 29.515625 20.742188 29.484375 C20.799479 29.453125 20.927082 29.437500 21.125000 29.437500 C21.302084 29.437500 21.562498 29.453125 21.906250 29.484375 C22.166668 29.286457 22.388020 29.104168 22.570312 28.937500 C22.752605 28.770832 22.927082 28.588543 23.093750 28.390625 C23.156250 28.317708 23.187500 28.166668 23.187500 27.937500 C23.187500 27.666665 23.299478 27.369793 23.523438 27.046875 C23.747397 26.723957 24.020832 26.562500 24.343750 26.562500 C24.510418 26.562500 24.744790 26.463543 25.046875 26.265625 C25.348960 26.067707 25.614582 25.791668 25.843750 25.437500 C26.020834 25.156249 26.151041 24.835939 26.234375 24.476562 C26.317709 24.117186 26.458332 23.802085 26.656250 23.531250 C26.895835 23.208332 27.093749 22.927085 27.250000 22.687500 C27.406251 22.447915 27.500000 22.260417 27.531250 22.125000 C27.552083 22.010416 27.567708 21.895834 27.578125 21.781250 C27.588542 21.666666 27.593750 21.458335 27.593750 21.156250 C27.593750 20.854165 27.440106 20.630209 27.132812 20.484375 C26.825519 20.338541 26.348962 20.265625 25.703125 20.265625 C25.307290 19.932290 24.843753 19.765625 24.312500 19.765625 L24.140625 19.140625 C23.994791 18.588539 23.765627 18.244792 23.453125 18.109375 C23.140623 17.973958 22.677086 17.906250 22.062500 17.906250 C21.718748 17.906250 21.460938 17.799480 21.289062 17.585938 C21.117187 17.372395 20.919272 17.161459 20.695312 16.953125 C20.471353 16.744791 20.104169 16.640625 19.593750 16.640625 C18.927080 16.640625 18.460939 16.580730 18.195312 16.460938 C17.929686 16.341145 17.713542 16.281250 17.546875 16.281250 C17.411458 16.281250 17.317709 16.325520 17.265625 16.414062 C17.213541 16.502605 17.114584 16.546875 16.968750 16.546875 C16.864583 16.546875 16.778646 16.520834 16.710938 16.468750 C16.643229 16.416666 16.567709 16.390625 16.484375 16.390625 C16.255207 16.390625 16.007814 16.486978 15.742188 16.679688 C15.476561 16.872397 15.171877 17.177081 14.828125 17.593750 C14.734375 17.479166 14.619792 17.369792 14.484375 17.265625 C14.348958 17.161458 14.229167 17.109375 14.125000 17.109375 L13.234375 17.109375 C13.088541 17.109375 12.916668 16.989585 12.718750 16.750000 C12.520832 16.510415 12.421875 16.333334 12.421875 16.218750 C12.536459 16.072916 12.625000 15.903647 12.687500 15.710938 C12.750000 15.518228 12.781250 15.338542 12.781250 15.171875 C12.781250 15.109375 12.778646 15.039063 12.773438 14.960938 C12.768229 14.882812 12.750000 14.822917 12.718750 14.781250 C12.593749 14.593749 12.406251 14.500000 12.156250 14.500000 L11.421875 14.500000 C11.328125 14.500000 11.268229 14.518229 11.242188 14.554688 C11.216146 14.591146 11.171875 14.609375 11.109375 14.609375 C11.005208 14.609375 10.953125 14.552084 10.953125 14.437500 C10.953125 14.354166 10.981771 14.281250 11.039062 14.218750 C11.096354 14.156250 11.161458 14.062501 11.234375 13.937500 C11.276042 13.864583 11.309896 13.781250 11.335938 13.687500 C11.361979 13.593750 11.395833 13.510417 11.437500 13.437500 C11.520834 13.291666 11.601562 13.169271 11.679688 13.070312 C11.757813 12.971354 11.796875 12.901042 11.796875 12.859375 C11.796875 12.796875 11.770834 12.734375 11.718750 12.671875 C11.666666 12.609375 11.588542 12.578125 11.484375 12.578125 C11.432291 12.578125 11.348959 12.585937 11.234375 12.601562 C11.119791 12.617188 11.036459 12.625000 10.984375 12.625000 C10.838541 12.625000 10.710938 12.645833 10.601562 12.687500 C10.492187 12.729167 10.380209 12.869790 10.265625 13.109375 C10.140624 13.380210 9.934897 13.546875 9.648438 13.609375 C9.361978 13.671875 9.161459 13.703125 9.046875 13.703125 C8.932291 13.703125 8.796876 13.609376 8.640625 13.421875 C8.484374 13.234374 8.406250 13.046876 8.406250 12.859375 C8.406250 12.432290 8.476562 12.119793 8.617188 11.921875 C8.757813 11.723957 8.828125 11.437502 8.828125 11.062500 C8.828125 10.854166 8.919270 10.635418 9.101562 10.406250 C9.283855 10.177082 9.567706 10.062500 9.953125 10.062500 C10.192710 10.062500 10.424478 10.065104 10.648438 10.070312 C10.872397 10.075521 11.114582 10.078125 11.375000 10.078125 C11.593751 10.078125 11.822915 10.049479 12.062500 9.992188 C12.302085 9.934896 12.494791 9.906250 12.640625 9.906250 C12.765626 9.906250 12.872395 10.041665 12.960938 10.312500 C13.049480 10.583335 13.145833 10.854165 13.250000 11.125000 C13.354167 11.395835 13.489582 11.531250 13.656250 11.531250 C13.729167 11.531250 13.778646 11.502604 13.804688 11.445312 C13.830729 11.388021 13.843750 11.317709 13.843750 11.234375 C13.843750 10.994790 13.802084 10.682294 13.718750 10.296875 C13.635416 9.911456 13.645833 9.609376 13.750000 9.390625 C13.895834 9.088540 14.104165 8.882813 14.375000 8.773438 C14.645835 8.664062 14.895832 8.570313 15.125000 8.492188 C15.354168 8.414062 15.468750 8.281251 15.468750 8.093750 C15.468750 8.010416 15.460938 7.955729 15.445312 7.929688 C15.429687 7.903646 15.421875 7.854167 15.421875 7.781250 C15.421875 7.666666 15.497395 7.520834 15.648438 7.343750 C15.799480 7.166666 15.958332 7.005209 16.125000 6.859375 C16.291668 6.713541 16.401041 6.640625 16.453125 6.640625 C16.796877 6.640625 17.002604 6.598959 17.070312 6.515625 C17.138021 6.432291 17.171875 6.250001 17.171875 5.968750 C17.328126 5.822916 17.546874 5.697917 17.828125 5.593750 C17.817708 5.656250 17.812500 5.723958 17.812500 5.796875 C17.812500 5.984376 17.874999 6.078125 18.000000 6.078125 C18.072917 6.078125 18.156250 6.033855 18.250000 5.945312 C18.343750 5.856770 18.463541 5.776042 18.609375 5.703125 C18.786459 5.609375 18.945312 5.518230 19.085938 5.429688 C19.226563 5.341145 19.296875 5.276042 19.296875 5.234375 C19.296875 5.130208 19.158856 5.070313 18.882812 5.054688 C18.606769 5.039062 18.395834 5.031250 18.250000 5.031250 C18.218750 5.031250 18.195313 5.000000 18.179688 4.937500 C18.164062 4.875000 18.156250 4.744793 18.156250 4.546875 C18.156250 4.494791 18.145833 4.460938 18.125000 4.445312 C18.104167 4.429687 18.072917 4.421875 18.031250 4.421875 C17.958333 4.421875 17.859376 4.445312 17.734375 4.492188 C17.609374 4.539063 17.505209 4.562500 17.421875 4.562500 C17.348958 4.562500 17.312500 4.526042 17.312500 4.453125 C17.312500 4.307291 17.489582 4.179688 17.843750 4.070312 C18.197918 3.960937 18.567706 3.906250 18.953125 3.906250 C19.244793 3.906250 19.429687 3.942708 19.507812 4.015625 C19.585938 4.088542 19.625000 4.203124 19.625000 4.359375 C19.489583 4.401042 19.421875 4.463541 19.421875 4.546875 C19.421875 4.671876 19.494791 4.791666 19.640625 4.906250 C19.786459 5.020834 20.057290 5.078125 20.453125 5.078125 C20.744793 5.078125 20.890625 5.005209 20.890625 4.859375 C20.890625 4.807291 20.843750 4.742188 20.750000 4.664062 C20.656250 4.585937 20.468751 4.468751 20.187500 4.312500 C20.125000 4.270833 20.041667 4.151043 19.937500 3.953125 C19.833333 3.755207 19.567710 3.526043 19.140625 3.265625 C18.901040 3.119791 18.705730 2.919272 18.554688 2.664062 C18.403645 2.408853 18.328125 2.119793 18.328125 1.796875 C17.994790 1.692708 17.697918 1.622396 17.437500 1.585938 C17.177082 1.549479 16.848960 1.531250 16.453125 1.531250 C15.109368 1.531250 13.786465 1.718748 12.484375 2.093750 C11.182285 2.468752 9.976568 2.984372 8.867188 3.640625 C7.757807 4.296878 6.817712 5.052079 6.046875 5.906250 C5.276038 6.760421 4.750001 7.666662 4.468750 8.625000 C4.468750 9.322920 4.513020 9.822915 4.601562 10.125000 C4.690105 10.427085 4.734375 10.651041 4.734375 10.796875 C4.734375 11.088543 4.776041 11.346353 4.859375 11.570312 C4.942709 11.794272 5.067708 11.906250 5.234375 11.906250 C5.348959 11.906250 5.406250 11.843751 5.406250 11.718750 C5.406250 11.625000 5.367188 11.533855 5.289062 11.445312 C5.210937 11.356770 5.171875 11.229167 5.171875 11.062500 C5.171875 10.802082 5.153646 10.544272 5.117188 10.289062 C5.080729 10.033853 5.062500 9.843751 5.062500 9.718750 C5.062500 9.406248 5.135416 9.250000 5.281250 9.250000 C5.385417 9.250000 5.473958 9.411457 5.546875 9.734375 C5.619792 10.057293 5.679687 10.442706 5.726562 10.890625 C5.773438 11.338544 5.809896 11.765623 5.835938 12.171875 C5.861979 12.578127 5.875000 12.859374 5.875000 13.015625 C5.875000 13.119792 5.953124 13.255208 6.109375 13.421875 C6.265626 13.588542 6.531248 13.807290 6.906250 14.078125 C7.270835 14.348960 7.554686 14.539062 7.757812 14.648438 C7.960939 14.757813 8.140624 14.812500 8.296875 14.812500 C8.442709 14.812500 8.567708 14.786459 8.671875 14.734375 C8.776042 14.682291 8.864583 14.656250 8.937500 14.656250 C8.989584 14.656250 9.065104 14.700520 9.164062 14.789062 C9.263021 14.877605 9.385416 15.020832 9.531250 15.218750 C9.625000 15.343751 9.721354 15.458333 9.820312 15.562500 C9.919271 15.666667 10.015625 15.744791 10.109375 15.796875 C10.244792 15.859375 10.390624 15.890625 10.546875 15.890625 C10.703126 15.890625 10.864582 15.963541 11.031250 16.109375 C11.208334 16.265626 11.346354 16.445311 11.445312 16.648438 C11.544271 16.851564 11.781248 17.104165 12.156250 17.406250 C12.375001 17.572918 12.585936 17.716145 12.789062 17.835938 C12.992189 17.955730 13.171874 18.015625 13.328125 18.015625 C13.536459 18.015625 13.703124 17.973959 13.828125 17.890625 C13.953126 17.807291 14.062500 17.765625 14.156250 17.765625 C14.375001 17.765625 14.541666 17.908853 14.656250 18.195312 C14.770834 18.481772 14.828125 18.781248 14.828125 19.093750 C14.828125 19.187500 14.557294 19.432290 14.015625 19.828125 C13.880208 19.932292 13.763021 20.054687 13.664062 20.195312 C13.565104 20.335938 13.515625 20.505207 13.515625 20.703125 C13.515625 20.796875 13.549479 20.872396 13.617188 20.929688 C13.684896 20.986979 13.718750 21.046875 13.718750 21.109375 C13.718750 21.171875 13.674480 21.226562 13.585938 21.273438 C13.497395 21.320313 13.453125 21.468749 13.453125 21.718750 C13.453125 21.947918 13.562499 22.171874 13.781250 22.390625 C14.000001 22.609376 14.151041 22.822916 14.234375 23.031250 C14.380209 23.385418 14.533853 23.666666 14.695312 23.875000 C14.856772 24.083334 15.046874 24.260416 15.265625 24.406250 C15.817711 24.781252 16.184895 25.044270 16.367188 25.195312 C16.549480 25.346355 16.640625 25.479166 16.640625 25.593750 C16.640625 25.770834 16.635417 26.052081 16.625000 26.437500 C16.614583 26.822919 16.609375 27.302080 16.609375 27.875000 C16.609375 28.041668 16.609375 28.210937 16.609375 28.382812 C16.609375 28.554688 16.609375 28.729166 16.609375 28.906250 C16.609375 29.906255 16.463543 30.567707 16.171875 30.890625 C16.307292 30.932292 16.492186 30.968750 16.726562 31.000000 C16.960939 31.031250 17.223957 31.046875 17.515625 31.046875 Z M16.750000 14.343750 C16.822917 14.343750 16.903645 14.302084 16.992188 14.218750 C17.080730 14.135416 17.161458 14.093750 17.234375 14.093750 C17.453126 14.093750 17.653645 14.075521 17.835938 14.039062 C18.018230 14.002604 18.109375 13.947917 18.109375 13.875000 C18.109375 13.791666 18.033855 13.651043 17.882812 13.453125 C17.731770 13.255207 17.541668 13.156250 17.312500 13.156250 C17.218750 13.156250 17.132813 13.192708 17.054688 13.265625 C16.976562 13.338542 16.890625 13.375000 16.796875 13.375000 C16.723958 13.375000 16.635417 13.343750 16.531250 13.281250 C16.427083 13.218750 16.343750 13.187500 16.281250 13.187500 C16.177083 13.187500 16.088542 13.213541 16.015625 13.265625 C15.942708 13.317709 15.880209 13.343750 15.828125 13.343750 C15.203122 12.927081 14.731772 12.635417 14.414062 12.468750 C14.096353 12.302083 13.859376 12.218750 13.703125 12.218750 C13.192706 12.218750 12.838543 12.234375 12.640625 12.265625 C12.442707 12.296875 12.343750 12.343750 12.343750 12.406250 C12.343750 12.552084 12.427083 12.692708 12.593750 12.828125 C12.760418 12.963542 12.958332 13.031250 13.187500 13.031250 C13.718753 13.031250 14.156248 13.119791 14.500000 13.296875 C14.843752 13.473959 15.122395 13.653645 15.335938 13.835938 C15.549480 14.018230 15.713541 14.109375 15.828125 14.109375 C15.901042 14.109375 15.973958 14.101563 16.046875 14.085938 C16.119792 14.070312 16.192708 14.062500 16.265625 14.062500 C16.328125 14.062500 16.390625 14.109375 16.453125 14.203125 C16.515625 14.296875 16.614583 14.343750 16.750000 14.343750 Z M36.718750 27.343750" /></svg>