<svg version="1.1" xmlns="http://www.w3.org/2000/svg" style="fill:rgba(0,0,0,1.0)" width="256" height="256" viewBox="0 0 39.84375 32.8125"><path fill="rgb(255, 255, 255)" d="M33.468750 32.812500 C30.802070 32.614582 28.338553 32.265628 26.078125 31.765625 C23.817697 31.265622 21.984382 30.729170 20.578125 30.156250 C20.703126 29.604164 20.812500 29.039065 20.906250 28.460938 C21.000000 27.882810 21.072916 27.322919 21.125000 26.781250 C21.177084 26.239581 21.203125 25.739586 21.203125 25.281250 C21.203125 24.354162 21.138021 23.536462 21.007812 22.828125 C20.877604 22.119788 20.718751 21.447920 20.531250 20.812500 C20.333332 20.145830 20.164063 19.494795 20.023438 18.859375 C19.882812 18.223955 19.812500 17.583337 19.812500 16.937500 C19.812500 15.999995 20.026040 15.307294 20.453125 14.859375 C20.880210 14.411456 21.489579 14.187500 22.281250 14.187500 C23.447922 14.187500 24.388017 14.815098 25.101562 16.070312 C25.815108 17.325527 26.249999 19.203112 26.406250 21.703125 L24.953125 21.765625 C24.723957 19.682281 24.393231 18.158859 23.960938 17.195312 C23.528644 16.231766 23.000003 15.750000 22.375000 15.750000 C22.124999 15.750000 21.921876 15.830728 21.765625 15.992188 C21.609374 16.153647 21.531250 16.468748 21.531250 16.937500 C21.531250 17.500003 21.591145 18.059893 21.710938 18.617188 C21.830730 19.174482 21.968749 19.755205 22.125000 20.359375 C22.322918 21.119795 22.502603 21.966141 22.664062 22.898438 C22.825522 23.830734 22.906250 24.755204 22.906250 25.671875 L22.203125 25.000000 C23.567715 25.364585 24.846348 25.682290 26.039062 25.953125 C27.231777 26.223960 28.471348 26.466145 29.757812 26.679688 C31.044277 26.893230 32.510408 27.109374 34.156250 27.328125 L33.187500 27.468750 C33.656252 25.708325 34.158851 23.992196 34.695312 22.320312 C35.231774 20.648429 35.770831 19.072924 36.312500 17.593750 C36.729169 16.447911 37.005208 15.653648 37.140625 15.210938 C37.276042 14.768227 37.343750 14.432293 37.343750 14.203125 C37.343750 13.984374 37.273438 13.807292 37.132812 13.671875 C36.992187 13.536458 36.796876 13.468750 36.546875 13.468750 C36.338541 13.468750 36.164063 13.544270 36.023438 13.695312 C35.882812 13.846355 35.739584 14.114581 35.593750 14.500000 L34.343750 17.953125 L32.796875 17.421875 L34.328125 12.953125 C34.411459 12.713540 34.473958 12.486980 34.515625 12.273438 C34.557292 12.059895 34.578125 11.864584 34.578125 11.687500 C34.578125 11.291665 34.489584 10.984376 34.312500 10.765625 C34.135416 10.546874 33.890627 10.437500 33.578125 10.437500 C33.265623 10.437500 33.026042 10.528645 32.859375 10.710938 C32.692708 10.893230 32.567709 11.161457 32.484375 11.515625 L31.187500 16.937500 L29.515625 16.546875 L30.812500 10.921875 C30.864584 10.713541 30.903646 10.523438 30.929688 10.351562 C30.955729 10.179687 30.968750 10.005209 30.968750 9.828125 C30.968750 9.369789 30.859376 9.018230 30.640625 8.773438 C30.421874 8.528645 30.130210 8.406250 29.765625 8.406250 C29.088538 8.406250 28.682292 8.942703 28.546875 10.015625 L27.796875 16.218750 L26.093750 16.062500 L26.765625 10.171875 C26.817709 9.786456 26.760418 9.476564 26.593750 9.242188 C26.427082 9.007811 26.192710 8.890625 25.890625 8.890625 C25.348956 8.890625 25.046875 9.265621 24.984375 10.015625 L24.500000 15.546875 L22.812500 14.906250 L23.265625 9.906250 C23.338542 9.093746 23.591144 8.460940 24.023438 8.007812 C24.455731 7.554685 25.036455 7.328125 25.765625 7.328125 C26.244794 7.328125 26.664061 7.437499 27.023438 7.656250 C27.382814 7.875001 27.640624 8.182290 27.796875 8.578125 L27.312500 8.578125 C27.541668 8.005205 27.861977 7.572918 28.273438 7.281250 C28.684898 6.989582 29.171872 6.843750 29.734375 6.843750 C30.536462 6.843750 31.177081 7.098956 31.656250 7.609375 C32.135419 8.119794 32.375000 8.718747 32.375000 9.406250 C32.375000 9.510417 32.369792 9.611979 32.359375 9.710938 C32.348958 9.809896 32.333333 9.911458 32.312500 10.015625 L32.078125 9.406250 C32.244792 9.229166 32.455728 9.096355 32.710938 9.007812 C32.966147 8.919270 33.255207 8.875000 33.578125 8.875000 C34.348962 8.875000 34.960935 9.124998 35.414062 9.625000 C35.867190 10.125002 36.093750 10.744788 36.093750 11.484375 C36.093750 11.651042 36.078125 11.825520 36.046875 12.007812 C36.015625 12.190105 35.973959 12.374999 35.921875 12.562500 L35.546875 12.203125 C35.692709 12.119791 35.848958 12.049479 36.015625 11.992188 C36.182292 11.934896 36.380207 11.906250 36.609375 11.906250 C37.369795 11.906250 37.968748 12.132810 38.406250 12.585938 C38.843752 13.039065 39.062500 13.541664 39.062500 14.093750 C39.062500 14.458335 38.950522 15.007809 38.726562 15.742188 C38.502603 16.476566 38.229168 17.281246 37.906250 18.156250 C37.312497 19.770841 36.773440 21.351555 36.289062 22.898438 C35.804685 24.445320 35.359377 25.958326 34.953125 27.437500 Z M7.062500 24.500000 L8.453125 24.296875 L7.718750 21.453125 L6.328125 21.640625 Z M9.875000 24.062500 L11.265625 23.812500 L10.531250 20.984375 L9.156250 21.203125 Z M12.656250 23.562500 L14.031250 23.250000 L13.281250 20.421875 L11.921875 20.718750 Z M15.406250 22.921875 L16.781250 22.562500 L16.031250 19.765625 L14.671875 20.093750 Z M23.656250 29.765625 L24.390625 26.937500 L23.031250 26.609375 L22.281250 29.406250 Z M5.593750 25.968750 L4.109375 20.593750 C3.703123 19.114576 3.257815 17.601570 2.773438 16.054688 C2.289060 14.507805 1.750003 12.927091 1.156250 11.312500 C0.833332 10.437496 0.559897 9.632816 0.335938 8.898438 C0.111978 8.164059 0.000000 7.614585 0.000000 7.250000 C0.000000 6.697914 0.218748 6.195315 0.656250 5.742188 C1.093752 5.289060 1.692705 5.062500 2.453125 5.062500 C2.692710 5.062500 2.895832 5.091146 3.062500 5.148438 C3.229168 5.205729 3.380208 5.276041 3.515625 5.359375 L3.140625 5.718750 C3.088541 5.531249 3.046875 5.346355 3.015625 5.164062 C2.984375 4.981770 2.968750 4.807292 2.968750 4.640625 C2.968750 3.901038 3.197914 3.281253 3.656250 2.781250 C4.114586 2.281247 4.723955 2.031250 5.484375 2.031250 C5.807293 2.031250 6.096353 2.075520 6.351562 2.164062 C6.606772 2.252605 6.817708 2.385416 6.984375 2.562500 L6.750000 3.218750 C6.708333 3.010416 6.687500 2.791668 6.687500 2.562500 C6.708333 1.874997 6.953123 1.276044 7.421875 0.765625 C7.890627 0.255206 8.526038 -0.000000 9.328125 -0.000000 C9.890628 -0.000000 10.377602 0.145832 10.789062 0.437500 C11.200523 0.729168 11.520832 1.161455 11.750000 1.734375 L11.265625 1.734375 C11.421876 1.338540 11.679686 1.031251 12.039062 0.812500 C12.398439 0.593749 12.817706 0.484375 13.296875 0.484375 C14.026045 0.484375 14.606769 0.710935 15.039062 1.164062 C15.471356 1.617190 15.723958 2.249996 15.796875 3.062500 L16.250000 8.062500 L14.562500 8.703125 L14.078125 3.171875 C14.015625 2.421871 13.713544 2.046875 13.171875 2.046875 C12.880207 2.046875 12.651042 2.164061 12.484375 2.398438 C12.317708 2.632814 12.255208 2.942706 12.296875 3.328125 L12.968750 9.218750 L11.265625 9.375000 L10.515625 3.171875 C10.380208 2.098953 9.973962 1.562500 9.296875 1.562500 C8.932290 1.562500 8.640626 1.684895 8.421875 1.929688 C8.203124 2.174480 8.093750 2.526039 8.093750 2.984375 C8.093750 3.161459 8.109375 3.335937 8.140625 3.507812 C8.171875 3.679688 8.208333 3.869791 8.250000 4.078125 L9.546875 9.703125 L7.875000 10.093750 L6.578125 4.671875 C6.494791 4.317707 6.369792 4.049480 6.203125 3.867188 C6.036458 3.684895 5.796877 3.593750 5.484375 3.593750 C5.171873 3.593750 4.927084 3.703124 4.750000 3.921875 C4.572916 4.140626 4.484375 4.447915 4.484375 4.843750 C4.484375 5.020834 4.505208 5.216145 4.546875 5.429688 C4.588542 5.643230 4.651041 5.869790 4.734375 6.109375 L6.265625 10.578125 L4.718750 11.109375 L3.468750 7.656250 C3.333333 7.270831 3.192709 7.002605 3.046875 6.851562 C2.901041 6.700520 2.723959 6.625000 2.515625 6.625000 C2.265624 6.625000 2.070313 6.692708 1.929688 6.828125 C1.789062 6.963542 1.718750 7.140624 1.718750 7.359375 C1.718750 7.588543 1.786458 7.924477 1.921875 8.367188 C2.057292 8.809898 2.333331 9.604161 2.750000 10.750000 C3.291669 12.229174 3.830726 13.804679 4.367188 15.476562 C4.903649 17.148446 5.406248 18.864575 5.875000 20.625000 L4.906250 20.484375 C6.552092 20.265624 8.018223 20.049480 9.304688 19.835938 C10.591152 19.622395 11.830723 19.380210 13.023438 19.109375 C14.216152 18.838540 15.494785 18.520835 16.859375 18.156250 L16.156250 18.828125 C16.156250 17.911454 16.236978 16.986984 16.398438 16.054688 C16.559897 15.122391 16.739582 14.276045 16.937500 13.515625 C17.093751 12.911455 17.231770 12.330732 17.351562 11.773438 C17.471355 11.216143 17.531250 10.656253 17.531250 10.093750 C17.531250 9.624998 17.453126 9.309897 17.296875 9.148438 C17.140624 8.986978 16.937501 8.906250 16.687500 8.906250 C16.062497 8.906250 15.533856 9.388016 15.101562 10.351562 C14.669269 11.315109 14.338543 12.838531 14.109375 14.921875 L12.656250 14.859375 C12.812501 12.359362 13.247392 10.481777 13.960938 9.226562 C14.674483 7.971348 15.614578 7.343750 16.781250 7.343750 C17.583337 7.343750 18.195310 7.567706 18.617188 8.015625 C19.039065 8.463544 19.250000 9.156245 19.250000 10.093750 C19.250000 10.739587 19.179688 11.380205 19.039062 12.015625 C18.898437 12.651045 18.729168 13.302080 18.531250 13.968750 C18.343749 14.604170 18.184896 15.276038 18.054688 15.984375 C17.924479 16.692712 17.859375 17.510412 17.859375 18.437500 C17.859375 18.895836 17.885416 19.395831 17.937500 19.937500 C17.989584 20.479169 18.065104 21.036455 18.164062 21.609375 C18.263021 22.182295 18.369791 22.749997 18.484375 23.312500 C17.078118 23.885420 15.244803 24.421872 12.984375 24.921875 C10.723947 25.421878 8.260430 25.770832 5.593750 25.968750 Z M26.406250 30.406250 L27.140625 27.562500 L25.781250 27.265625 L25.031250 30.093750 Z M29.187500 30.906250 L29.906250 28.046875 L28.531250 27.828125 L27.796875 30.656250 Z M32.000000 31.343750 L32.734375 28.484375 L31.343750 28.296875 L30.609375 31.140625 Z M39.843750 27.343750" /></svg>