<svg version="1.1" xmlns="http://www.w3.org/2000/svg" style="fill:rgba(0,0,0,1.0)" width="256" height="256" viewBox="0 0 34.0625 32.8125"><path fill="rgb(255, 255, 255)" d="M13.062500 28.750000 C12.145829 28.750000 11.380211 28.520836 10.765625 28.062500 C10.151039 27.604164 9.588544 26.854172 9.078125 25.812500 C8.994791 25.624999 8.869792 25.427084 8.703125 25.218750 C8.536458 25.010416 8.278648 24.726564 7.929688 24.367188 C7.580727 24.007811 7.083337 23.510420 6.437500 22.875000 C5.604162 22.052079 4.997398 21.169276 4.617188 20.226562 C4.236977 19.283849 4.046875 18.187506 4.046875 16.937500 C4.046875 16.249997 4.200519 15.447921 4.507812 14.531250 C4.815106 13.614579 5.223956 12.739587 5.734375 11.906250 C6.067710 11.354164 6.330728 10.752607 6.523438 10.101562 C6.716147 9.450518 6.812500 8.854169 6.812500 8.312500 C6.812500 7.718747 6.645835 7.203127 6.312500 6.765625 C5.979165 6.328123 5.484378 5.979168 4.828125 5.718750 L0.656250 4.953125 C0.218748 4.880208 0.000000 4.614586 0.000000 4.156250 C0.000000 3.989583 0.046875 3.828126 0.140625 3.671875 C0.234375 3.515624 0.359374 3.395834 0.515625 3.312500 L2.359375 2.296875 C2.505209 2.213541 2.622395 2.101563 2.710938 1.960938 C2.799480 1.820312 2.906249 1.583335 3.031250 1.250000 C3.114584 1.031249 3.252603 0.856771 3.445312 0.726562 C3.638022 0.596354 3.833332 0.531250 4.031250 0.531250 C4.156251 0.531250 4.260416 0.552083 4.343750 0.593750 C4.697918 0.416666 5.085935 0.273438 5.507812 0.164062 C5.929690 0.054687 6.302082 -0.000000 6.625000 -0.000000 C7.802089 -0.000000 8.799475 0.226560 9.617188 0.679688 C10.434900 1.132815 11.059894 1.794266 11.492188 2.664062 C11.924481 3.533859 12.140625 4.593744 12.140625 5.843750 C12.140625 6.708338 12.072917 7.604162 11.937500 8.531250 C11.802083 9.458338 11.734375 10.244788 11.734375 10.890625 C11.734375 11.328127 11.781250 11.708332 11.875000 12.031250 C11.968750 12.354168 12.135415 12.682290 12.375000 13.015625 C12.552084 12.984375 12.731770 12.960938 12.914062 12.945312 C13.096355 12.929687 13.286457 12.921875 13.484375 12.921875 C14.348963 12.921875 15.249995 13.065103 16.187500 13.351562 C17.125005 13.638022 18.135411 14.083330 19.218750 14.687500 C19.979170 15.104169 20.622393 15.416666 21.148438 15.625000 C21.674482 15.833334 22.236976 15.971354 22.835938 16.039062 C23.434899 16.106771 24.208329 16.140625 25.156250 16.140625 C25.583335 16.140625 26.036456 16.135417 26.515625 16.125000 C26.994794 16.114583 27.322916 16.104167 27.500000 16.093750 C26.906247 17.104172 26.453127 17.903643 26.140625 18.492188 C25.828123 19.080732 25.588542 19.565102 25.421875 19.945312 C25.255208 20.325523 25.093751 20.718748 24.937500 21.125000 C24.333330 22.750008 23.619796 24.059891 22.796875 25.054688 C21.973954 26.049484 20.976568 26.773435 19.804688 27.226562 C18.632807 27.679690 17.223967 27.916667 15.578125 27.937500 C14.859371 28.479169 14.020838 28.750000 13.062500 28.750000 Z M9.828125 32.812500 C8.713536 32.812500 7.932294 32.734376 7.484375 32.578125 C7.036456 32.421874 6.812500 32.151044 6.812500 31.765625 C6.812500 31.296873 7.333328 30.937501 8.375000 30.687500 C9.260421 30.468749 9.859373 30.278647 10.171875 30.117188 C10.484377 29.955728 10.734374 29.682294 10.921875 29.296875 L11.875000 27.296875 L14.875000 27.250000 C14.562498 27.666669 14.239585 28.229163 13.906250 28.937500 C13.572915 29.645837 13.406250 30.317705 13.406250 30.953125 C13.406250 31.671879 13.151044 32.161457 12.640625 32.421875 C12.130206 32.682293 11.192715 32.812500 9.828125 32.812500 Z M18.218750 32.625000 C17.395829 32.625000 16.815106 32.546876 16.476562 32.390625 C16.138019 32.234374 15.968750 31.994793 15.968750 31.671875 C15.968750 31.276040 16.161456 31.010417 16.546875 30.875000 C17.359379 30.572915 17.861978 30.356771 18.054688 30.226562 C18.247397 30.096354 18.343750 29.916668 18.343750 29.687500 C18.343750 29.406249 18.210939 29.039065 17.945312 28.585938 C17.679686 28.132810 17.255211 27.494796 16.671875 26.671875 L19.687500 26.031250 L20.515625 27.578125 C20.828127 28.151045 21.140623 28.567707 21.453125 28.828125 C21.765627 29.088543 21.921875 29.385415 21.921875 29.718750 C21.921875 29.968751 21.822918 30.265623 21.625000 30.609375 C21.427082 30.953127 21.179689 31.283853 20.882812 31.601562 C20.585936 31.919272 20.286460 32.171874 19.984375 32.359375 C19.817708 32.463542 19.619793 32.533854 19.390625 32.570312 C19.161457 32.606771 18.770836 32.625000 18.218750 32.625000 Z M16.500000 24.203125 C14.812492 24.203125 13.325527 23.924482 12.039062 23.367188 C10.752598 22.809893 9.747399 22.039067 9.023438 21.054688 C8.299476 20.070308 7.937500 18.932298 7.937500 17.640625 C7.937500 17.401040 7.955729 17.164064 7.992188 16.929688 C8.028646 16.695311 8.098958 16.343752 8.203125 15.875000 L10.000000 16.234375 C9.927083 16.484376 9.877604 16.718749 9.851562 16.937500 C9.825521 17.156251 9.812500 17.390624 9.812500 17.640625 C9.812500 18.588546 10.096351 19.427080 10.664062 20.156250 C11.231774 20.885420 12.018224 21.455727 13.023438 21.867188 C14.028651 22.278648 15.187493 22.484375 16.500000 22.484375 C17.114586 22.484375 17.718747 22.361980 18.312500 22.117188 C18.906253 21.872395 19.447914 21.536460 19.937500 21.109375 L18.718750 20.187500 L19.828125 18.750000 L22.609375 20.890625 C21.598953 22.046881 20.601567 22.888018 19.617188 23.414062 C18.632808 23.940107 17.593755 24.203125 16.500000 24.203125 Z M13.062500 27.031250 C13.406252 27.031250 13.692707 26.979167 13.921875 26.875000 C14.151043 26.770833 14.458331 26.552085 14.843750 26.218750 C16.458341 26.218750 17.786453 26.057293 18.828125 25.734375 C19.869797 25.411457 20.731767 24.841150 21.414062 24.023438 C22.096358 23.205725 22.697914 22.062507 23.218750 20.593750 C23.333334 20.260415 23.492186 19.851565 23.695312 19.367188 C23.898439 18.882810 24.156248 18.385419 24.468750 17.875000 C24.375000 17.875000 24.299479 17.875000 24.242188 17.875000 C24.184896 17.875000 24.109375 17.869792 24.015625 17.859375 C23.213538 17.817708 22.546878 17.752605 22.015625 17.664062 C21.484372 17.575520 20.945315 17.411460 20.398438 17.171875 C19.851560 16.932290 19.145838 16.583336 18.281250 16.125000 C17.270828 15.572914 16.395837 15.187501 15.656250 14.968750 C14.916663 14.749999 14.192712 14.640625 13.484375 14.640625 C13.182290 14.640625 12.901043 14.677083 12.640625 14.750000 C12.380207 14.822917 12.067710 14.958332 11.703125 15.156250 C10.932288 14.447913 10.432293 13.757816 10.203125 13.085938 C9.973957 12.414059 9.859375 11.682296 9.859375 10.890625 C9.859375 10.411456 9.893229 9.880211 9.960938 9.296875 C10.028646 8.713539 10.096354 8.122399 10.164062 7.523438 C10.231771 6.924476 10.265625 6.364586 10.265625 5.843750 C10.265625 5.020829 10.109377 4.291670 9.796875 3.656250 C9.484373 3.020830 9.054690 2.523439 8.507812 2.164062 C7.960935 1.804686 7.333337 1.625000 6.625000 1.625000 C6.395832 1.625000 6.119793 1.677083 5.796875 1.781250 C5.473957 1.885417 5.229168 1.999999 5.062500 2.125000 C5.052083 2.229167 5.044271 2.346354 5.039062 2.476562 C5.033854 2.606771 5.031250 2.744791 5.031250 2.890625 C5.031250 3.088543 5.036458 3.289061 5.046875 3.492188 C5.057292 3.695314 5.078125 3.885416 5.109375 4.062500 C6.380215 4.510419 7.294268 5.070309 7.851562 5.742188 C8.408857 6.414066 8.687500 7.270828 8.687500 8.312500 C8.687500 8.927086 8.559897 9.640621 8.304688 10.453125 C8.049478 11.265629 7.708335 12.057288 7.281250 12.828125 C6.781248 13.723963 6.429689 14.489580 6.226562 15.125000 C6.023436 15.760420 5.921875 16.364580 5.921875 16.937500 C5.921875 17.729171 5.973958 18.393226 6.078125 18.929688 C6.182292 19.466149 6.364582 19.945310 6.625000 20.367188 C6.885418 20.789065 7.249998 21.234373 7.718750 21.703125 C8.427087 22.390628 8.981769 22.945310 9.382812 23.367188 C9.783856 23.789065 10.085936 24.130207 10.289062 24.390625 C10.492189 24.651043 10.645833 24.895832 10.750000 25.125000 C11.156252 25.937504 11.497394 26.458332 11.773438 26.687500 C12.049481 26.916668 12.479164 27.031250 13.062500 27.031250 Z M6.796875 3.437500 C6.598957 3.437500 6.434896 3.372396 6.304688 3.242188 C6.174479 3.111979 6.109375 2.947918 6.109375 2.750000 C6.109375 2.552082 6.174479 2.388021 6.304688 2.257812 C6.434896 2.127604 6.598957 2.062500 6.796875 2.062500 C6.994793 2.062500 7.158854 2.127604 7.289062 2.257812 C7.419271 2.388021 7.484375 2.552082 7.484375 2.750000 C7.484375 2.947918 7.419271 3.111979 7.289062 3.242188 C7.158854 3.372396 6.994793 3.437500 6.796875 3.437500 Z M34.062500 27.343750" /></svg>