<svg version="1.1" xmlns="http://www.w3.org/2000/svg" style="fill:rgba(0,0,0,1.0)" width="256" height="256" viewBox="0 0 34.375 32.8125"><path fill="rgb(255, 255, 255)" d="M11.656250 32.812500 C10.458327 32.812500 9.580732 32.638023 9.023438 32.289062 C8.466143 31.940102 8.187500 31.427087 8.187500 30.750000 C8.187500 30.531249 8.218750 30.278647 8.281250 29.992188 C8.343750 29.705728 8.437499 29.401043 8.562500 29.078125 C8.666667 28.807290 8.734375 28.601563 8.765625 28.460938 C8.796875 28.320312 8.812500 28.192709 8.812500 28.078125 C8.812500 27.942708 8.781250 27.757814 8.718750 27.523438 C8.656250 27.289061 8.536459 26.895836 8.359375 26.343750 C8.098957 25.552079 7.903646 24.791670 7.773438 24.062500 C7.643229 23.333330 7.578125 22.625003 7.578125 21.937500 C7.578125 21.697915 7.585937 21.460939 7.601562 21.226562 C7.617188 20.992186 7.640625 20.760418 7.671875 20.531250 C7.307290 20.124998 7.005210 19.770835 6.765625 19.468750 C6.526040 19.166665 6.255210 18.802085 5.953125 18.375000 C5.276038 17.937498 4.687502 17.322921 4.187500 16.531250 C3.687498 15.739579 3.380209 14.947921 3.265625 14.156250 C1.421866 13.093745 0.500000 11.739592 0.500000 10.093750 C0.500000 9.291663 0.708331 8.567712 1.125000 7.921875 C0.927082 7.526040 0.828125 7.083336 0.828125 6.593750 C0.828125 5.822913 1.059894 5.127607 1.523438 4.507812 C1.986981 3.888018 2.651037 3.359377 3.515625 2.921875 C3.630209 1.942703 4.018226 1.210940 4.679688 0.726562 C5.341149 0.242185 6.208328 -0.000000 7.281250 -0.000000 C8.000004 -0.000000 8.713538 0.153644 9.421875 0.460938 C10.130212 0.768231 10.778643 1.184893 11.367188 1.710938 C11.955732 2.236982 12.427082 2.835934 12.781250 3.507812 C13.135418 4.179691 13.312500 4.880205 13.312500 5.609375 C14.468756 5.869793 15.507808 6.473954 16.429688 7.421875 C17.351567 8.369796 18.010415 9.526035 18.406250 10.890625 C19.145837 11.473961 19.932288 11.971352 20.765625 12.382812 C21.598962 12.794273 22.536453 13.130207 23.578125 13.390625 C24.171878 13.536459 24.713539 13.942705 25.203125 14.609375 C25.692711 15.276045 26.085936 16.098953 26.382812 17.078125 C26.679689 18.057297 26.828125 19.088536 26.828125 20.171875 C26.828125 20.661461 26.804688 21.161456 26.757812 21.671875 C26.710937 22.182294 26.619792 22.697914 26.484375 23.218750 C27.067711 24.041671 27.486978 24.854163 27.742188 25.656250 C27.997397 26.458337 28.125000 27.249996 28.125000 28.031250 C28.125000 29.645841 27.705733 30.791663 26.867188 31.468750 C26.028642 32.145837 24.692718 32.484375 22.859375 32.484375 C22.192705 32.484375 21.588544 32.335939 21.046875 32.039062 C20.505206 31.742186 20.234375 31.317711 20.234375 30.765625 C20.234375 30.307289 20.377603 29.882814 20.664062 29.492188 C20.950522 29.101561 21.317706 28.744793 21.765625 28.421875 L21.734375 27.500000 C20.286451 26.812497 19.265628 25.635425 18.671875 23.968750 L15.796875 23.968750 L13.843750 28.390625 C13.843750 28.630210 13.942707 28.856770 14.140625 29.070312 C14.338543 29.283855 14.536457 29.520832 14.734375 29.781250 C14.932293 30.041668 15.031250 30.374998 15.031250 30.781250 C15.031250 31.416670 14.770836 31.914061 14.250000 32.273438 C13.729164 32.632814 12.864589 32.812500 11.656250 32.812500 Z M3.437500 31.546875 C2.520829 31.546875 1.898439 31.372398 1.570312 31.023438 C1.242186 30.674477 1.078125 30.135420 1.078125 29.406250 L1.078125 27.406250 C1.078125 27.249999 0.986980 26.898440 0.804688 26.351562 C0.622395 25.804685 0.442709 25.179691 0.265625 24.476562 C0.088541 23.773434 0.000000 23.119795 0.000000 22.515625 C0.000000 21.921872 0.083332 21.398440 0.250000 20.945312 C0.416667 20.492185 0.583332 20.067710 0.750000 19.671875 C0.916668 19.276040 1.000000 18.875002 1.000000 18.468750 C1.000000 17.947914 0.882814 17.242192 0.648438 16.351562 C0.414061 15.460933 0.296875 14.541671 0.296875 13.593750 C0.296875 12.843746 0.390624 12.231773 0.578125 11.757812 C0.765626 11.283852 0.973957 10.875002 1.203125 10.531250 L2.625000 12.671875 L4.093750 13.390625 L4.843750 16.031250 L6.390625 18.375000 C6.421875 18.541668 6.453125 18.856769 6.484375 19.320312 C6.515625 19.783856 6.541667 20.268227 6.562500 20.773438 C6.583333 21.278648 6.593750 21.682290 6.593750 21.984375 C6.593750 22.713545 6.494793 23.497392 6.296875 24.335938 C6.098957 25.174483 5.734378 26.260410 5.203125 27.593750 C5.255209 27.750001 5.281250 27.927082 5.281250 28.125000 C5.281250 28.322918 5.223959 28.513020 5.109375 28.695312 C4.994791 28.877605 4.937500 29.020833 4.937500 29.125000 C4.937500 29.270834 5.059895 29.375000 5.304688 29.437500 C5.549480 29.500000 5.794270 29.580729 6.039062 29.679688 C6.283855 29.778646 6.406250 29.973957 6.406250 30.265625 C6.406250 30.609377 6.166669 30.908853 5.687500 31.164062 C5.208331 31.419272 4.458338 31.546875 3.437500 31.546875 Z M17.718750 31.343750 C17.104164 31.343750 16.627606 31.270834 16.289062 31.125000 C15.950519 30.979166 15.781250 30.776043 15.781250 30.515625 C15.781250 30.088540 16.078122 29.630211 16.671875 29.140625 C16.671875 28.515622 16.609376 27.992190 16.484375 27.570312 C16.359374 27.148435 16.216147 26.739585 16.054688 26.343750 C15.893228 25.947915 15.750001 25.492190 15.625000 24.976562 C15.499999 24.460935 15.437500 23.802087 15.437500 23.000000 L19.156250 23.640625 L21.046875 26.375000 C20.932291 26.479167 20.856771 26.598958 20.820312 26.734375 C20.783854 26.869792 20.765625 26.979166 20.765625 27.062500 C20.765625 27.281251 20.817708 27.627602 20.921875 28.101562 C21.026042 28.575523 21.078125 29.015623 21.078125 29.421875 C21.078125 30.109378 20.791670 30.601561 20.218750 30.898438 C19.645830 31.195314 18.812505 31.343750 17.718750 31.343750 Z M4.343750 11.562500 C3.822914 11.562500 3.315107 11.489584 2.820312 11.343750 C2.325518 11.197916 1.854169 10.979168 1.406250 10.687500 L1.906250 9.906250 C2.645837 10.385419 3.458329 10.625000 4.343750 10.625000 C5.020837 10.625000 5.718746 10.479168 6.437500 10.187500 L6.796875 11.062500 C5.942704 11.395835 5.125004 11.562500 4.343750 11.562500 Z M3.671875 7.328125 C3.515624 7.328125 3.377605 7.260417 3.257812 7.125000 C3.138020 6.989583 3.078125 6.838542 3.078125 6.671875 C3.078125 6.442707 3.203124 6.328125 3.453125 6.328125 C3.609376 6.328125 3.739583 6.390624 3.843750 6.515625 C3.947917 6.640626 4.000000 6.791666 4.000000 6.968750 C4.000000 7.208335 3.890626 7.328125 3.671875 7.328125 Z M11.343750 31.093750 C11.989587 31.093750 12.479165 31.041667 12.812500 30.937500 C13.145835 30.833333 13.312500 30.682293 13.312500 30.484375 C13.312500 30.286457 13.213543 30.101563 13.015625 29.929688 C12.817707 29.757812 12.622397 29.562501 12.429688 29.343750 C12.236978 29.124999 12.140625 28.854168 12.140625 28.531250 C12.140625 28.218748 12.234374 27.820315 12.421875 27.335938 C12.609376 26.851560 12.911456 26.177088 13.328125 25.312500 C13.838544 24.249995 14.187499 23.489586 14.375000 23.031250 C14.562501 22.572914 14.687500 22.197918 14.750000 21.906250 C15.552087 22.197918 16.286455 22.343750 16.953125 22.343750 C17.067709 22.343750 17.205728 22.338542 17.367188 22.328125 C17.528647 22.317708 17.708332 22.291667 17.906250 22.250000 C17.781249 21.499996 17.684896 20.687504 17.617188 19.812500 C17.549479 18.937496 17.515625 18.015630 17.515625 17.046875 L19.078125 17.046875 C19.078125 19.067718 19.200520 20.708327 19.445312 21.968750 C19.690105 23.229173 20.104164 24.210934 20.687500 24.914062 C21.270836 25.617191 22.062495 26.145832 23.062500 26.500000 C23.104167 26.677084 23.145833 26.947915 23.187500 27.312500 C23.229167 27.677085 23.250000 28.062498 23.250000 28.468750 C23.250000 28.645834 23.244792 28.820312 23.234375 28.992188 C23.223958 29.164063 23.203125 29.333332 23.171875 29.500000 C22.755206 29.729168 22.460938 29.914062 22.289062 30.054688 C22.117187 30.195313 22.031250 30.307291 22.031250 30.390625 C22.031250 30.494792 22.104166 30.583333 22.250000 30.656250 C22.395834 30.729167 22.651040 30.765625 23.015625 30.765625 C24.171881 30.765625 25.026039 30.572919 25.578125 30.187500 C26.130211 29.802081 26.406250 29.083339 26.406250 28.031250 C26.406250 27.343747 26.247397 26.645837 25.929688 25.937500 C25.611978 25.229163 25.114587 24.447921 24.437500 23.593750 C24.625001 22.999997 24.760416 22.421878 24.843750 21.859375 C24.927084 21.296872 24.968750 20.734378 24.968750 20.171875 C24.968750 19.432288 24.867189 18.682295 24.664062 17.921875 C24.460936 17.161455 24.216147 16.507815 23.929688 15.960938 C23.643228 15.414060 23.369793 15.109375 23.109375 15.046875 C22.140620 14.786457 21.315108 14.526043 20.632812 14.265625 C19.950517 14.005207 19.322920 13.682294 18.750000 13.296875 C18.177080 12.911456 17.557295 12.411461 16.890625 11.796875 C16.651040 10.755203 16.177087 9.835941 15.468750 9.039062 C14.760413 8.242184 13.927088 7.640627 12.968750 7.234375 C12.875000 7.442709 12.765626 7.630208 12.640625 7.796875 C12.515624 7.963542 12.369792 8.124999 12.203125 8.281250 C12.213542 8.343750 12.218750 8.408854 12.218750 8.476562 C12.218750 8.544271 12.218750 8.609375 12.218750 8.671875 C12.218750 9.640630 11.872399 10.466142 11.179688 11.148438 C10.486976 11.830733 9.588547 12.171875 8.484375 12.171875 L8.484375 10.609375 C9.130212 10.609375 9.653644 10.424481 10.054688 10.054688 C10.455731 9.684894 10.656250 9.223961 10.656250 8.671875 C10.656250 8.463541 10.625000 8.250001 10.562500 8.031250 C10.500000 7.812499 10.406251 7.588543 10.281250 7.359375 C10.708335 7.203124 11.036457 7.000001 11.265625 6.750000 C11.494793 6.499999 11.609375 6.145836 11.609375 5.687500 C11.609375 5.031247 11.388023 4.401045 10.945312 3.796875 C10.502602 3.192705 9.947920 2.695314 9.281250 2.304688 C8.614580 1.914061 7.947920 1.718750 7.281250 1.718750 C6.531246 1.718750 5.953127 1.914061 5.546875 2.304688 C5.140623 2.695314 4.937500 3.239580 4.937500 3.937500 C4.489581 4.041667 4.091148 4.223957 3.742188 4.484375 C3.393227 4.744793 3.119793 5.059894 2.921875 5.429688 C2.723957 5.799481 2.625000 6.208331 2.625000 6.656250 C2.625000 7.000002 2.677083 7.255208 2.781250 7.421875 C2.885417 7.588542 3.036457 7.671875 3.234375 7.671875 C3.411459 7.671875 3.567708 7.708333 3.703125 7.781250 C3.838542 7.854167 3.953125 7.953124 4.046875 8.078125 C4.151042 7.942708 4.273437 7.841146 4.414062 7.773438 C4.554688 7.705729 4.708332 7.671875 4.875000 7.671875 C5.239585 7.671875 5.549478 7.783853 5.804688 8.007812 C6.059897 8.231772 6.187500 8.505207 6.187500 8.828125 C6.187500 9.130210 6.080730 9.385416 5.867188 9.593750 C5.653645 9.802084 5.375002 9.906250 5.031250 9.906250 C4.666665 9.906250 4.484375 9.776043 4.484375 9.515625 C4.484375 9.359374 4.572916 9.216146 4.750000 9.085938 C4.927084 8.955729 5.130207 8.890625 5.359375 8.890625 C5.359375 8.838541 5.304688 8.778646 5.195312 8.710938 C5.085937 8.643229 4.979167 8.609375 4.875000 8.609375 C4.614582 8.609375 4.333335 8.802081 4.031250 9.187500 C3.812499 8.822915 3.578126 8.640625 3.328125 8.640625 C3.088540 8.640625 2.937500 8.729166 2.875000 8.906250 C3.343752 8.979167 3.578125 9.166665 3.578125 9.468750 C3.578125 9.708335 3.447918 9.828125 3.187500 9.828125 C3.041666 9.828125 2.875001 9.778646 2.687500 9.679688 C2.499999 9.580729 2.338542 9.458334 2.203125 9.312500 C2.109375 9.531251 2.062500 9.786457 2.062500 10.078125 C2.062500 10.807295 2.315102 11.414060 2.820312 11.898438 C3.325523 12.382815 4.114578 12.755207 5.187500 13.015625 C5.145833 13.098959 5.117188 13.190104 5.101562 13.289062 C5.085937 13.388021 5.078125 13.489583 5.078125 13.593750 C5.078125 13.968752 5.169270 14.374998 5.351562 14.812500 C5.533855 15.250002 5.789061 15.664061 6.117188 16.054688 C6.445314 16.445314 6.817706 16.760415 7.234375 17.000000 C7.411459 17.281251 7.583332 17.531249 7.750000 17.750000 C7.916668 17.968751 8.078124 18.166666 8.234375 18.343750 C8.442709 17.760414 8.708332 17.177086 9.031250 16.593750 C9.354168 16.010414 9.729165 15.427086 10.156250 14.843750 L11.437500 15.843750 C11.093748 16.218752 10.796876 16.632810 10.546875 17.085938 C10.296874 17.539065 10.085938 18.023435 9.914062 18.539062 C9.742187 19.054690 9.614584 19.591143 9.531250 20.148438 C9.447916 20.705732 9.406250 21.276039 9.406250 21.859375 C9.406250 22.588545 9.471354 23.268226 9.601562 23.898438 C9.731771 24.528649 9.895832 25.156247 10.093750 25.781250 C10.229167 26.197919 10.348958 26.614581 10.453125 27.031250 C10.557292 27.447919 10.609375 27.791665 10.609375 28.062500 C10.609375 28.552086 10.481772 29.018227 10.226562 29.460938 C9.971353 29.903648 9.843750 30.260415 9.843750 30.531250 C9.843750 30.729168 9.958332 30.872395 10.187500 30.960938 C10.416668 31.049480 10.802081 31.093750 11.343750 31.093750 Z M6.234375 7.609375 C5.921873 7.609375 5.765625 7.453127 5.765625 7.140625 C5.765625 6.963541 5.838541 6.809896 5.984375 6.679688 C6.130209 6.549479 6.291666 6.484375 6.468750 6.484375 C6.781252 6.484375 6.937500 6.640623 6.937500 6.953125 C6.937500 7.130209 6.864584 7.283854 6.718750 7.414062 C6.572916 7.544271 6.411459 7.609375 6.234375 7.609375 Z M4.468750 6.421875 C4.197915 6.067707 3.882814 5.809897 3.523438 5.648438 C3.164061 5.486978 2.802085 5.406250 2.437500 5.406250 L2.546875 4.359375 C2.817710 4.359375 3.143227 4.398437 3.523438 4.476562 C3.903648 4.554688 4.255207 4.739582 4.578125 5.031250 C4.786459 4.854166 5.072915 4.713542 5.437500 4.609375 C5.802085 4.505208 6.161457 4.453125 6.515625 4.453125 C6.953127 4.453125 7.395831 4.541666 7.843750 4.718750 C8.291669 4.895834 8.692707 5.140623 9.046875 5.453125 L8.343750 6.296875 C7.812497 5.796872 7.203128 5.546875 6.515625 5.546875 C5.848955 5.546875 5.166670 5.838539 4.468750 6.421875 Z M34.375000 27.343750" /></svg>