<svg version="1.1" xmlns="http://www.w3.org/2000/svg" style="fill:rgba(0,0,0,1.0)" width="256" height="256" viewBox="0 0 38.59375 31.25"><path fill="rgb(255, 255, 255)" d="M18.937500 31.250000 C16.354154 31.250000 14.005219 30.861983 11.890625 30.085938 C9.776031 29.309892 7.955737 28.205736 6.429688 26.773438 C4.903638 25.341139 3.729171 23.632822 2.906250 21.648438 C2.083329 19.664053 1.671875 17.463554 1.671875 15.046875 C1.671875 14.078120 1.700521 13.369794 1.757812 12.921875 C1.815104 12.473956 1.947916 12.114585 2.156250 11.843750 C2.322918 12.114585 2.622394 12.531247 3.054688 13.093750 C3.486981 13.656253 4.101559 14.273434 4.898438 14.945312 C5.695316 15.617191 6.718744 16.260414 7.968750 16.875000 C9.218756 17.489586 10.747387 17.997394 12.554688 18.398438 C14.361988 18.799481 16.489571 19.000000 18.937500 19.000000 C21.385429 19.000000 23.513012 18.799481 25.320312 18.398438 C27.127613 17.997394 28.656244 17.489586 29.906250 16.875000 C31.156256 16.260414 32.179684 15.617191 32.976562 14.945312 C33.773441 14.273434 34.388019 13.656253 34.820312 13.093750 C35.252606 12.531247 35.552082 12.114585 35.718750 11.843750 C35.927084 12.114585 36.059896 12.473956 36.117188 12.921875 C36.174479 13.369794 36.203125 14.078120 36.203125 15.046875 C36.203125 17.463554 35.791671 19.664053 34.968750 21.648438 C34.145829 23.632822 32.971362 25.341139 31.445312 26.773438 C29.919263 28.205736 28.098969 29.309892 25.984375 30.085938 C23.869781 30.861983 21.520846 31.250000 18.937500 31.250000 Z M6.453125 15.046875 C6.296874 14.338538 6.057293 13.695315 5.734375 13.117188 C5.411457 12.539060 5.065106 12.075523 4.695312 11.726562 C4.325519 11.377602 3.973960 11.203125 3.640625 11.203125 C3.494791 11.203125 3.372396 11.289062 3.273438 11.460938 C3.174479 11.632813 3.125000 11.916665 3.125000 12.312500 C3.125000 12.625002 3.182291 13.052081 3.296875 13.593750 L1.765625 13.937500 C1.630208 13.354164 1.562500 12.812502 1.562500 12.312500 C1.562500 11.520829 1.747394 10.877607 2.117188 10.382812 C2.486981 9.888018 2.994788 9.640625 3.640625 9.640625 C4.255211 9.640625 4.851560 9.861977 5.429688 10.304688 C6.007815 10.747398 6.523435 11.351559 6.976562 12.117188 C7.429690 12.882816 7.765624 13.744787 7.984375 14.703125 Z M11.109375 17.187500 C10.932291 17.187500 10.781251 17.088543 10.656250 16.890625 C10.531249 16.692707 10.468750 16.458335 10.468750 16.187500 C10.468750 15.916665 10.531249 15.682293 10.656250 15.484375 C10.781251 15.286457 10.932291 15.187500 11.109375 15.187500 C11.286459 15.187500 11.434895 15.286457 11.554688 15.484375 C11.674480 15.682293 11.734375 15.916665 11.734375 16.187500 C11.734375 16.458335 11.674480 16.692707 11.554688 16.890625 C11.434895 17.088543 11.286459 17.187500 11.109375 17.187500 Z M18.937500 29.531250 C21.229178 29.531250 23.317699 29.197920 25.203125 28.531250 C27.088551 27.864580 28.710931 26.908860 30.070312 25.664062 C31.429694 24.419265 32.479163 22.927092 33.218750 21.187500 C33.958337 19.447908 34.328125 17.510427 34.328125 15.375000 C34.328125 15.322916 34.328125 15.268229 34.328125 15.210938 C34.328125 15.153646 34.328125 15.098959 34.328125 15.046875 L34.718750 15.734375 C33.729162 16.588546 32.635423 17.328122 31.437500 17.953125 C30.239577 18.578128 28.966153 19.096352 27.617188 19.507812 C26.268222 19.919273 24.864591 20.223957 23.406250 20.421875 C21.947909 20.619793 20.458341 20.718750 18.937500 20.718750 C17.427076 20.718750 15.940111 20.619793 14.476562 20.421875 C13.013014 20.223957 11.606778 19.919273 10.257812 19.507812 C8.908847 19.096352 7.635423 18.578128 6.437500 17.953125 C5.239577 17.328122 4.145838 16.588546 3.156250 15.734375 L3.546875 15.046875 C3.546875 15.098959 3.546875 15.153646 3.546875 15.210938 C3.546875 15.268229 3.546875 15.322916 3.546875 15.375000 C3.546875 17.510427 3.916663 19.447908 4.656250 21.187500 C5.395837 22.927092 6.445306 24.419265 7.804688 25.664062 C9.164069 26.908860 10.786449 27.864580 12.671875 28.531250 C14.557301 29.197920 16.645822 29.531250 18.937500 29.531250 Z M13.593750 16.312500 C13.427082 16.385417 13.247397 16.359376 13.054688 16.234375 C12.861978 16.109374 12.708334 15.921876 12.593750 15.671875 C12.479166 15.421874 12.434896 15.182293 12.460938 14.953125 C12.486979 14.723957 12.583332 14.572917 12.750000 14.500000 C12.906251 14.416666 13.080728 14.440104 13.273438 14.570312 C13.466147 14.700521 13.619791 14.890624 13.734375 15.140625 C13.848959 15.390626 13.893229 15.627603 13.867188 15.851562 C13.841146 16.075522 13.750001 16.229166 13.593750 16.312500 Z M7.765625 14.875000 C7.848959 14.635415 7.927083 14.372397 8.000000 14.085938 C8.072917 13.799478 8.145833 13.468752 8.218750 13.093750 C8.479168 11.874994 8.812498 10.960941 9.218750 10.351562 C9.625002 9.742184 10.223954 9.223960 11.015625 8.796875 L11.671875 10.015625 C11.067705 10.338543 10.627606 10.721352 10.351562 11.164062 C10.075519 11.606773 9.817710 12.348953 9.578125 13.390625 L9.421875 14.062500 Z M8.390625 12.437500 C8.390625 11.187494 7.937505 10.104171 7.031250 9.187500 L8.031250 8.218750 C8.562503 8.812503 8.958332 9.463538 9.218750 10.171875 C9.479168 10.880212 9.609375 11.635413 9.609375 12.437500 Z M7.140625 17.859375 C6.817707 17.473956 6.536460 17.049481 6.296875 16.585938 C6.057290 16.122394 5.875001 15.625003 5.750000 15.093750 L16.750000 9.265625 C17.385420 10.130213 17.843749 10.992183 18.125000 11.851562 C18.406251 12.710942 18.546875 13.546871 18.546875 14.359375 L16.984375 13.734375 C16.942708 12.984371 16.682294 12.177088 16.203125 11.312500 L7.671875 15.843750 C8.161461 16.843755 8.895828 17.557290 9.875000 17.984375 Z M2.390625 15.046875 C1.609371 14.151037 1.015627 13.263025 0.609375 12.382812 C0.203123 11.502600 0.000000 10.677087 0.000000 9.906250 C0.000000 8.874995 0.343747 8.020837 1.031250 7.343750 C1.718753 6.666663 2.546870 6.328125 3.515625 6.328125 C3.869793 6.328125 4.239581 6.375000 4.625000 6.468750 C4.895835 5.583329 5.429684 4.901044 6.226562 4.421875 C7.023441 3.942706 7.927078 3.703125 8.937500 3.703125 C9.802088 3.703125 10.526039 3.843749 11.109375 4.125000 C11.390626 3.833332 11.742185 3.617188 12.164062 3.476562 C12.585940 3.335937 12.999998 3.265625 13.406250 3.265625 C14.447922 3.265625 15.351559 3.656246 16.117188 4.437500 C16.882816 5.218754 17.520831 6.385409 18.031250 7.937500 C18.541669 9.489591 18.921874 11.421863 19.171875 13.734375 L17.625000 13.734375 C17.385415 12.151034 17.041669 10.684903 16.593750 9.335938 C16.145831 7.986972 15.625003 6.901046 15.031250 6.078125 C14.437497 5.255204 13.791670 4.843750 13.093750 4.843750 C12.802082 4.843750 12.479168 4.937499 12.125000 5.125000 C11.770832 5.312501 11.479168 5.557290 11.250000 5.859375 C10.937498 5.713541 10.593752 5.596355 10.218750 5.507812 C9.843748 5.419270 9.458335 5.375000 9.062500 5.375000 C8.218746 5.375000 7.445316 5.630206 6.742188 6.140625 C6.039059 6.651044 5.598959 7.276038 5.421875 8.015625 C5.213541 7.953125 5.005209 7.906250 4.796875 7.875000 C4.588541 7.843750 4.380209 7.828125 4.171875 7.828125 C3.453121 7.828125 2.856773 8.023436 2.382812 8.414062 C1.908852 8.804689 1.671875 9.322913 1.671875 9.968750 C1.671875 11.114589 2.380201 12.473950 3.796875 14.046875 Z M15.625000 14.734375 C15.510416 14.869792 15.338543 14.921875 15.109375 14.890625 C14.880207 14.859375 14.661459 14.755209 14.453125 14.578125 C14.244791 14.401041 14.106771 14.203126 14.039062 13.984375 C13.971354 13.765624 13.989583 13.588542 14.093750 13.453125 C14.208334 13.307291 14.377603 13.252604 14.601562 13.289062 C14.825522 13.325521 15.041666 13.432291 15.250000 13.609375 C15.468751 13.786459 15.614583 13.981770 15.687500 14.195312 C15.760417 14.408855 15.739584 14.588541 15.625000 14.734375 Z M25.000000 19.015625 C24.604165 19.005208 24.106774 18.919272 23.507812 18.757812 C22.908851 18.596353 22.291670 18.395835 21.656250 18.156250 C21.020830 17.916665 20.429690 17.671876 19.882812 17.421875 C19.335935 17.171874 18.911460 16.953126 18.609375 16.765625 L19.343750 15.515625 C19.645835 15.703126 20.052081 15.916665 20.562500 16.156250 C21.072919 16.395835 21.617185 16.630207 22.195312 16.859375 C22.773440 17.088543 23.325518 17.286457 23.851562 17.453125 C24.377607 17.619792 24.807290 17.723958 25.140625 17.765625 Z M22.125000 18.031250 C21.916666 17.531248 21.812500 16.989586 21.812500 16.406250 C21.812500 15.812497 21.911457 15.197920 22.109375 14.562500 L23.468750 15.000000 C23.395833 15.260418 23.335938 15.505207 23.289062 15.734375 C23.242187 15.963543 23.218750 16.182291 23.218750 16.390625 C23.218750 16.588543 23.239583 16.776041 23.281250 16.953125 C23.322917 17.130209 23.380208 17.296874 23.453125 17.453125 Z M5.437500 5.203125 C5.437500 4.182287 5.658852 3.289066 6.101562 2.523438 C6.544273 1.757809 7.130205 1.161460 7.859375 0.734375 C8.588545 0.307290 9.374996 0.093750 10.218750 0.093750 C10.687502 0.093750 11.164060 0.166666 11.648438 0.312500 C12.132815 0.458334 12.598956 0.687498 13.046875 1.000000 L12.171875 2.281250 C11.546872 1.854165 10.895837 1.640625 10.218750 1.640625 C9.645830 1.640625 9.114586 1.786457 8.625000 2.078125 C8.135414 2.369793 7.742189 2.770831 7.445312 3.281250 C7.148436 3.791669 7.000000 4.380205 7.000000 5.046875 Z M14.781250 19.390625 L13.203125 18.703125 L13.859375 17.203125 C14.442711 15.859368 15.078122 14.856774 15.765625 14.195312 C16.453128 13.533851 17.260412 13.140626 18.187500 13.015625 C18.416668 12.140621 18.825518 11.458336 19.414062 10.968750 C20.002607 10.479164 20.671871 10.234375 21.421875 10.234375 C21.942711 10.234375 22.473956 10.359374 23.015625 10.609375 C23.234376 10.421874 23.479165 10.283855 23.750000 10.195312 C24.020835 10.106770 24.291665 10.062500 24.562500 10.062500 C25.270837 10.062500 25.880206 10.291664 26.390625 10.750000 C26.598959 10.645833 26.815103 10.570313 27.039062 10.523438 C27.263022 10.476562 27.489582 10.453125 27.718750 10.453125 C28.322920 10.453125 28.937497 10.604165 29.562500 10.906250 C30.187503 11.208335 30.723956 11.619789 31.171875 12.140625 C31.505210 12.515627 31.992184 12.786458 32.632812 12.953125 C33.273441 13.119792 34.182286 13.203125 35.359375 13.203125 L34.343750 14.718750 C33.427079 14.718750 32.682295 14.653646 32.109375 14.523438 C31.536455 14.393229 31.067710 14.205730 30.703125 13.960938 C30.338540 13.716145 30.005210 13.427085 29.703125 13.093750 C29.369790 12.718748 29.033856 12.471355 28.695312 12.351562 C28.356769 12.231770 27.958336 12.171875 27.500000 12.171875 C27.270832 12.171875 27.044272 12.205729 26.820312 12.273438 C26.596353 12.341146 26.380209 12.447916 26.171875 12.593750 C25.921874 12.322915 25.664064 12.132813 25.398438 12.023438 C25.132811 11.914062 24.869793 11.859375 24.609375 11.859375 C24.359374 11.859375 24.117189 11.906250 23.882812 12.000000 C23.648436 12.093750 23.432293 12.213541 23.234375 12.359375 C22.963540 12.151041 22.692710 11.997396 22.421875 11.898438 C22.151040 11.799479 21.885418 11.750000 21.625000 11.750000 C21.052080 11.750000 20.559898 11.976560 20.148438 12.429688 C19.736977 12.882815 19.505209 13.510413 19.453125 14.312500 C18.838539 14.312500 18.309898 14.416666 17.867188 14.625000 C17.424477 14.833334 17.015627 15.197914 16.640625 15.718750 C16.265623 16.239586 15.869794 16.963537 15.453125 17.890625 Z M25.250000 19.500000 L23.718750 19.218750 C23.916668 18.124995 24.236977 17.148442 24.679688 16.289062 C25.122398 15.429683 25.640622 14.752607 26.234375 14.257812 C26.828128 13.763018 27.447913 13.515625 28.093750 13.515625 C28.791670 13.515625 29.335936 13.796872 29.726562 14.359375 C30.117189 14.921878 30.312500 15.645829 30.312500 16.531250 C30.312500 16.822918 30.291667 17.135415 30.250000 17.468750 C30.208333 17.802085 30.145834 18.151040 30.062500 18.515625 L28.531250 18.171875 C28.677084 17.505205 28.750000 16.958335 28.750000 16.531250 C28.750000 16.041664 28.687501 15.677085 28.562500 15.437500 C28.437499 15.197915 28.281251 15.078125 28.093750 15.078125 C27.739582 15.078125 27.372398 15.276040 26.992188 15.671875 C26.611977 16.067710 26.265627 16.598955 25.953125 17.265625 C25.640623 17.932295 25.406251 18.677079 25.250000 19.500000 Z M20.875000 11.578125 L19.343750 11.203125 C19.510418 10.567705 19.593750 9.937503 19.593750 9.312500 C19.593750 8.072910 19.250003 6.890631 18.562500 5.765625 L16.843750 6.937500 L15.171875 6.156250 L18.906250 3.609375 C20.406258 5.359384 21.156250 7.270823 21.156250 9.343750 C21.156250 10.062504 21.062501 10.807288 20.875000 11.578125 Z M10.796875 4.281250 C11.161460 2.979160 11.729163 1.940108 12.500000 1.164062 C13.270837 0.388017 14.322910 -0.000000 15.656250 -0.000000 C16.520838 -0.000000 17.328121 0.203123 18.078125 0.609375 C18.661461 0.348957 19.249997 0.218750 19.843750 0.218750 C20.781255 0.218750 21.596351 0.520830 22.289062 1.125000 C22.981774 1.729170 23.427082 2.463537 23.625000 3.328125 L22.812500 5.218750 C22.572915 5.218750 22.385417 5.057293 22.250000 4.734375 C22.114583 4.411457 22.010417 4.067710 21.937500 3.703125 C21.843750 3.213539 21.601564 2.799481 21.210938 2.460938 C20.820311 2.122394 20.359378 1.953125 19.828125 1.953125 C19.526040 1.953125 19.221356 2.005208 18.914062 2.109375 C18.606769 2.213542 18.307293 2.354166 18.015625 2.531250 C17.682290 2.281249 17.304690 2.080730 16.882812 1.929688 C16.460935 1.778645 16.036460 1.703125 15.609375 1.703125 C14.796871 1.703125 14.151044 1.934894 13.671875 2.398438 C13.192706 2.861981 12.833335 3.479163 12.593750 4.250000 Z M26.171875 10.203125 C26.057291 10.057291 26.036458 9.877605 26.109375 9.664062 C26.182292 9.450520 26.328124 9.255209 26.546875 9.078125 C26.755209 8.901041 26.973957 8.794271 27.203125 8.757812 C27.432293 8.721354 27.598958 8.776041 27.703125 8.921875 C27.817709 9.057292 27.838542 9.234374 27.765625 9.453125 C27.692708 9.671876 27.552084 9.869791 27.343750 10.046875 C27.135416 10.223959 26.916668 10.328125 26.687500 10.359375 C26.458332 10.390625 26.286459 10.338542 26.171875 10.203125 Z M29.203125 11.140625 L28.062500 10.609375 C28.177084 10.359374 28.330728 10.169271 28.523438 10.039062 C28.716147 9.908854 28.890624 9.885416 29.046875 9.968750 C29.213542 10.041667 29.309896 10.192707 29.335938 10.421875 C29.361979 10.651043 29.317709 10.890624 29.203125 11.140625 Z M30.687500 12.656250 C30.520832 12.656250 30.375001 12.557293 30.250000 12.359375 C30.124999 12.161457 30.062500 11.927085 30.062500 11.656250 C30.062500 11.385415 30.124999 11.151043 30.250000 10.953125 C30.375001 10.755207 30.520832 10.656250 30.687500 10.656250 C30.864584 10.656250 31.015624 10.755207 31.140625 10.953125 C31.265626 11.151043 31.328125 11.385415 31.328125 11.656250 C31.328125 11.927085 31.265626 12.161457 31.140625 12.359375 C31.015624 12.557293 30.864584 12.656250 30.687500 12.656250 Z M36.203125 14.203125 L34.484375 14.109375 C34.651042 13.619789 34.768229 13.179689 34.835938 12.789062 C34.903646 12.398436 34.937500 12.052085 34.937500 11.750000 C34.937500 10.968746 34.763023 10.440106 34.414062 10.164062 C34.065102 9.888019 33.750001 9.697917 33.468750 9.593750 C32.822913 9.343749 32.291669 9.033856 31.875000 8.664062 C31.458331 8.294269 31.166668 7.760420 31.000000 7.062500 C30.822916 6.312496 30.460940 5.861980 29.914062 5.710938 C29.367185 5.559895 28.692712 5.468750 27.890625 5.437500 C27.890625 5.052081 27.802084 4.710939 27.625000 4.414062 C27.447916 4.117186 27.195314 3.882813 26.867188 3.710938 C26.539061 3.539062 26.145836 3.453125 25.687500 3.453125 C25.124997 3.453125 24.690106 3.588540 24.382812 3.859375 C24.075519 4.130210 23.921875 4.510414 23.921875 5.000000 C23.921875 5.489586 23.778647 5.817707 23.492188 5.984375 C23.205728 6.151042 22.802086 6.234375 22.281250 6.234375 C22.041665 6.234375 21.791668 6.260416 21.531250 6.312500 C21.270832 6.364584 20.927085 6.484374 20.500000 6.671875 L19.703125 5.015625 C20.244794 4.786457 20.708331 4.640625 21.093750 4.578125 C21.479169 4.515625 21.859373 4.484375 22.234375 4.484375 C22.317709 3.588537 22.627601 2.906252 23.164062 2.437500 C23.700524 1.968748 24.437495 1.734375 25.375000 1.734375 C26.239588 1.734375 27.002601 1.911457 27.664062 2.265625 C28.325524 2.619793 28.828123 3.119788 29.171875 3.765625 C30.046879 3.869792 30.802080 4.208330 31.437500 4.781250 C32.072920 5.354170 32.489582 6.020830 32.687500 6.781250 C32.770834 7.072918 32.906249 7.296874 33.093750 7.453125 C33.281251 7.609376 33.588540 7.776041 34.015625 7.953125 C35.713550 8.651045 36.562500 9.901033 36.562500 11.703125 C36.562500 12.057293 36.533854 12.440102 36.476562 12.851562 C36.419271 13.263023 36.328126 13.713539 36.203125 14.203125 Z M31.921875 13.453125 C32.390627 13.244791 32.815102 12.958335 33.195312 12.593750 C33.575523 12.229165 33.885415 11.802086 34.125000 11.312500 L25.593750 6.781250 C25.364582 7.208335 25.179688 7.674477 25.039062 8.179688 C24.898437 8.684898 24.828125 9.427078 24.828125 10.406250 L23.296875 10.750000 C23.296875 9.562494 23.429686 8.479172 23.695312 7.500000 C23.960939 6.520828 24.411455 5.598963 25.046875 4.734375 L36.046875 10.562500 C35.796874 11.614589 35.333337 12.536454 34.656250 13.328125 Z M35.734375 9.718750 L34.296875 9.125000 C34.505209 8.614581 34.609375 8.125002 34.609375 7.656250 C34.609375 7.062497 34.466147 6.526044 34.179688 6.046875 C33.893228 5.567706 33.502607 5.187501 33.007812 4.906250 C32.513018 4.624999 31.958336 4.484375 31.343750 4.484375 C30.739580 4.484375 30.182294 4.677081 29.671875 5.062500 L28.734375 3.812500 C29.505212 3.218747 30.374995 2.921875 31.343750 2.921875 C32.250005 2.921875 33.067705 3.132810 33.796875 3.554688 C34.526045 3.976565 35.104165 4.544267 35.531250 5.257812 C35.958335 5.971358 36.171875 6.770829 36.171875 7.656250 C36.171875 7.979168 36.135417 8.317707 36.062500 8.671875 C35.989583 9.026043 35.880209 9.374998 35.734375 9.718750 Z M38.593750 26.562500" /></svg>