<svg version="1.1" xmlns="http://www.w3.org/2000/svg" style="fill:rgba(0,0,0,1.0)" width="256" height="256" viewBox="0 0 31.59375 32.8125"><path fill="rgb(255, 255, 255)" d="M0.000000 19.203125 L0.000000 12.109375 C0.000000 9.890614 0.179686 8.010424 0.539062 6.468750 C0.898439 4.927076 1.492183 3.682296 2.320312 2.734375 C3.148442 1.786454 4.249993 1.093752 5.625000 0.656250 C7.000007 0.218748 8.703115 -0.000000 10.734375 -0.000000 C13.442722 -0.000000 15.583325 0.393225 17.156250 1.179688 C18.729175 1.966150 19.848955 3.244783 20.515625 5.015625 C21.182295 6.786467 21.515625 9.151027 21.515625 12.109375 L21.515625 19.203125 C20.151035 19.203125 18.851569 19.117188 17.617188 18.945312 C16.382806 18.773437 15.197922 18.601563 14.062500 18.429688 C12.927078 18.257812 11.817714 18.171875 10.734375 18.171875 C9.651036 18.171875 8.544276 18.257812 7.414062 18.429688 C6.283849 18.601563 5.109381 18.773437 3.890625 18.945312 C2.671869 19.117188 1.375007 19.203125 0.000000 19.203125 Z M10.937500 32.812500 C7.708317 32.812500 5.169280 32.333338 3.320312 31.375000 C1.471345 30.416662 0.463542 29.072925 0.296875 27.343750 C0.203125 26.302078 0.135417 25.236985 0.093750 24.148438 C0.052083 23.059890 0.026042 22.070317 0.015625 21.179688 C0.005208 20.289058 0.000000 19.630210 0.000000 19.203125 L1.796875 13.625000 C1.796875 16.822933 1.817708 19.492177 1.859375 21.632812 C1.901042 23.773448 2.005208 25.624992 2.171875 27.187500 C2.255209 27.916670 2.664059 28.575518 3.398438 29.164062 C4.132816 29.752607 5.143223 30.221352 6.429688 30.570312 C7.716152 30.919273 9.218741 31.093750 10.937500 31.093750 C13.010427 31.093750 14.770826 30.914064 16.218750 30.554688 C17.666674 30.195311 18.773434 29.721357 19.539062 29.132812 C20.304691 28.544268 20.687500 27.916670 20.687500 27.250000 C20.687500 27.010415 20.648438 26.763022 20.570312 26.507812 C20.492187 26.252603 20.385417 25.989585 20.250000 25.718750 C20.083332 25.385415 19.940105 25.026044 19.820312 24.640625 C19.700520 24.255206 19.640625 23.838544 19.640625 23.390625 L19.640625 15.062500 L21.515625 16.468750 L21.515625 23.390625 C21.515625 23.859377 21.572916 24.263019 21.687500 24.601562 C21.802084 24.940106 21.932291 25.260415 22.078125 25.562500 C22.213542 25.822918 22.328125 26.085936 22.421875 26.351562 C22.515625 26.617189 22.562500 26.916665 22.562500 27.250000 C22.562500 28.364589 22.104171 29.338538 21.187500 30.171875 C20.270829 31.005212 18.947925 31.653644 17.218750 32.117188 C15.489575 32.580731 13.395846 32.812500 10.937500 32.812500 Z M10.734375 25.687500 C9.848954 25.687500 9.020837 25.513023 8.250000 25.164062 C7.479163 24.815102 6.796878 24.281254 6.203125 23.562500 L7.312500 22.593750 C7.791669 23.166670 8.307289 23.578124 8.859375 23.828125 C9.411461 24.078126 10.036455 24.203125 10.734375 24.203125 C11.442712 24.203125 12.072914 24.078126 12.625000 23.828125 C13.177086 23.578124 13.687498 23.166670 14.156250 22.593750 L15.265625 23.562500 C14.671872 24.281254 13.992191 24.815102 13.226562 25.164062 C12.460934 25.513023 11.630213 25.687500 10.734375 25.687500 Z M10.734375 29.562500 C9.109367 29.562500 7.611986 29.117192 6.242188 28.226562 C4.872389 27.335933 3.700526 26.091154 2.726562 24.492188 C1.752599 22.893221 1.036461 21.031261 0.578125 18.906250 L1.796875 18.656250 C2.213544 20.593760 2.851558 22.286451 3.710938 23.734375 C4.570317 25.182299 5.601556 26.307288 6.804688 27.109375 C8.007819 27.911462 9.317701 28.312500 10.734375 28.312500 C12.161465 28.312500 13.473952 27.911462 14.671875 27.109375 C15.869798 26.307288 16.901037 25.182299 17.765625 23.734375 C18.630213 22.286451 19.265623 20.593760 19.671875 18.656250 L20.890625 18.906250 C20.442706 21.031261 19.729172 22.893221 18.750000 24.492188 C17.770828 26.091154 16.598965 27.335933 15.234375 28.226562 C13.869785 29.117192 12.369800 29.562500 10.734375 29.562500 Z M6.390625 20.859375 C5.953123 20.859375 5.591147 20.695314 5.304688 20.367188 C5.018228 20.039061 4.875000 19.651044 4.875000 19.203125 C4.875000 18.744789 5.018228 18.354168 5.304688 18.031250 C5.591147 17.708332 5.953123 17.546875 6.390625 17.546875 C6.828127 17.546875 7.190103 17.708332 7.476562 18.031250 C7.763022 18.354168 7.906250 18.744789 7.906250 19.203125 C7.906250 19.651044 7.763022 20.039061 7.476562 20.367188 C7.190103 20.695314 6.828127 20.859375 6.390625 20.859375 Z M15.078125 20.859375 C14.640623 20.859375 14.278647 20.695314 13.992188 20.367188 C13.705728 20.039061 13.562500 19.651044 13.562500 19.203125 C13.562500 18.744789 13.705728 18.354168 13.992188 18.031250 C14.278647 17.708332 14.640623 17.546875 15.078125 17.546875 C15.515627 17.546875 15.877603 17.708332 16.164062 18.031250 C16.450522 18.354168 16.593750 18.744789 16.593750 19.203125 C16.593750 19.651044 16.450522 20.039061 16.164062 20.367188 C15.877603 20.695314 15.515627 20.859375 15.078125 20.859375 Z M31.593750 27.343750" /></svg>