<svg version="1.1" xmlns="http://www.w3.org/2000/svg" style="fill:rgba(0,0,0,1.0)" width="256" height="256" viewBox="0 0 38.046875 32.8125"><path fill="rgb(255, 255, 255)" d="M15.375000 32.812500 C14.822914 32.812500 14.361981 32.695314 13.992188 32.460938 C13.622394 32.226561 13.437500 31.875002 13.437500 31.406250 C13.437500 31.135415 13.494791 30.830731 13.609375 30.492188 C13.723959 30.153644 13.841145 29.674482 13.960938 29.054688 C14.080730 28.434893 14.140625 27.583339 14.140625 26.500000 C14.140625 26.083331 14.122396 25.562503 14.085938 24.937500 C14.049479 24.312497 13.994792 23.744794 13.921875 23.234375 C12.223950 23.109374 10.807297 22.533859 9.671875 21.507812 C8.536453 20.481766 7.682295 19.125008 7.109375 17.437500 L4.718750 10.375000 C3.010408 10.291666 1.796879 9.901045 1.078125 9.203125 C0.359371 8.505205 0.000000 7.442715 0.000000 6.015625 C0.000000 5.588540 0.140624 5.260418 0.421875 5.031250 C0.703126 4.802082 1.036456 4.619792 1.421875 4.484375 C1.807294 4.348958 2.161457 4.216146 2.484375 4.085938 C2.807293 3.955729 3.015625 3.786459 3.109375 3.578125 C3.473960 2.734371 4.062496 2.057294 4.875000 1.546875 C5.687504 1.036456 6.645828 0.781250 7.750000 0.781250 C8.531254 0.781250 9.216143 0.916665 9.804688 1.187500 C10.393232 1.458335 10.890623 1.843747 11.296875 2.343750 C11.557293 2.343750 11.843748 2.539061 12.156250 2.929688 C12.468752 3.320314 12.768228 3.807289 13.054688 4.390625 C13.341147 4.973961 13.575520 5.559893 13.757812 6.148438 C13.940105 6.736982 14.031250 7.234373 14.031250 7.640625 C14.031250 7.755209 14.015625 7.869791 13.984375 7.984375 C13.953125 8.098959 13.911459 8.213541 13.859375 8.328125 L14.531250 8.953125 C16.031258 8.890625 17.268224 8.851563 18.242188 8.835938 C19.216151 8.820312 19.947914 8.812500 20.437500 8.812500 C22.979179 8.812500 25.018221 9.114580 26.554688 9.718750 C28.091154 10.322920 29.205726 11.283848 29.898438 12.601562 C30.591149 13.919277 30.937500 15.645823 30.937500 17.781250 C30.937500 19.083340 31.080728 20.210933 31.367188 21.164062 C31.653647 22.117192 31.940103 22.903643 32.226562 23.523438 C32.513022 24.143232 32.656250 24.604165 32.656250 24.906250 C32.656250 26.395841 32.651042 27.518225 32.640625 28.273438 C32.630208 29.028650 32.606771 29.557290 32.570312 29.859375 C32.533854 30.161460 32.479167 30.385416 32.406250 30.531250 C32.187499 30.947919 31.875002 31.289061 31.468750 31.554688 C31.062498 31.820314 30.625002 31.953125 30.156250 31.953125 C29.520830 31.953125 28.958336 31.825522 28.468750 31.570312 C27.979164 31.315103 27.734375 30.937502 27.734375 30.437500 C27.734375 30.083332 27.838541 29.804689 28.046875 29.601562 C28.255209 29.398436 28.359375 29.197918 28.359375 29.000000 L28.359375 26.203125 C28.359375 25.984374 28.208335 25.679689 27.906250 25.289062 C27.604165 24.898436 27.213544 24.432294 26.734375 23.890625 C26.213539 23.296872 25.682294 22.601566 25.140625 21.804688 C24.598956 21.007809 24.156252 20.135421 23.812500 19.187500 C23.208330 19.395834 22.643232 19.677082 22.117188 20.031250 C21.591143 20.385418 21.059899 20.760415 20.523438 21.156250 C19.986976 21.552085 19.401045 21.916665 18.765625 22.250000 C18.786458 22.541668 18.799479 22.841144 18.804688 23.148438 C18.809896 23.455731 18.812500 23.770832 18.812500 24.093750 C18.812500 25.135422 18.781250 26.179682 18.718750 27.226562 C18.656250 28.273443 18.572917 29.177080 18.468750 29.937500 C18.364583 30.697920 18.244792 31.177082 18.109375 31.375000 C17.817707 31.812502 17.427086 32.161457 16.937500 32.421875 C16.447914 32.682293 15.927086 32.812500 15.375000 32.812500 Z M9.968750 31.296875 C9.552081 31.296875 9.229168 31.208334 9.000000 31.031250 C8.770832 30.854166 8.656250 30.630210 8.656250 30.359375 C8.656250 30.078124 8.755207 29.778647 8.953125 29.460938 C9.151043 29.143228 9.346353 28.846356 9.539062 28.570312 C9.731772 28.294269 9.828125 28.072918 9.828125 27.906250 L9.828125 21.281250 L12.906250 22.593750 L12.906250 24.734375 C12.906250 25.401045 12.880209 26.122392 12.828125 26.898438 C12.776041 27.674483 12.721354 28.359372 12.664062 28.953125 C12.606771 29.546878 12.557292 29.916666 12.515625 30.062500 C12.442708 30.354168 12.130211 30.632811 11.578125 30.898438 C11.026039 31.164064 10.489586 31.296875 9.968750 31.296875 Z M1.687500 7.343750 C1.489582 7.343750 1.302084 7.231772 1.125000 7.007812 C0.947916 6.783853 0.859375 6.546876 0.859375 6.296875 C0.859375 6.098957 0.947916 5.932292 1.125000 5.796875 C1.302084 5.661458 1.520832 5.593750 1.781250 5.593750 C2.072918 5.593750 2.312499 5.651041 2.500000 5.765625 C2.687501 5.880209 2.781250 6.026041 2.781250 6.203125 C2.781250 6.380209 2.643231 6.614582 2.367188 6.906250 C2.091144 7.197918 1.864584 7.343750 1.687500 7.343750 Z M7.640625 16.984375 L7.078125 15.125000 C8.348965 15.125000 9.533849 15.080730 10.632812 14.992188 C11.731776 14.903645 12.736975 14.770834 13.648438 14.593750 C14.559900 14.416666 15.364580 14.197918 16.062500 13.937500 L16.656250 15.781250 C16.312498 15.864584 15.705734 16.005207 14.835938 16.203125 C13.966141 16.401043 12.911465 16.580728 11.671875 16.742188 C10.432285 16.903647 9.088549 16.984375 7.640625 16.984375 Z M15.531250 31.250000 C15.802085 31.250000 16.052082 31.187501 16.281250 31.062500 C16.510418 30.937499 16.708332 30.750001 16.875000 30.500000 C16.916667 30.437500 16.960937 30.161461 17.007812 29.671875 C17.054688 29.182289 17.098958 28.572920 17.140625 27.843750 C17.182292 27.114580 17.216146 26.348962 17.242188 25.546875 C17.268229 24.744788 17.281250 24.000003 17.281250 23.312500 C17.281250 22.854164 17.273438 22.442710 17.257812 22.078125 C17.242187 21.713540 17.218750 21.432293 17.187500 21.234375 C17.843753 21.015624 18.458330 20.708335 19.031250 20.312500 C19.604170 19.916665 20.182289 19.505210 20.765625 19.078125 C21.348961 18.651040 21.976559 18.273439 22.648438 17.945312 C23.320316 17.617186 24.083329 17.421875 24.937500 17.359375 C25.156251 18.505214 25.533851 19.533850 26.070312 20.445312 C26.606774 21.356775 27.197913 22.161455 27.843750 22.859375 C28.385419 23.432295 28.841144 23.950519 29.210938 24.414062 C29.580731 24.877606 29.765625 25.255207 29.765625 25.546875 L29.765625 28.687500 C29.765625 29.000002 29.669272 29.252603 29.476562 29.445312 C29.283853 29.638022 29.187500 29.822916 29.187500 30.000000 C29.187500 30.166668 29.268228 30.273437 29.429688 30.320312 C29.591147 30.367188 29.776041 30.390625 29.984375 30.390625 C30.234376 30.390625 30.473957 30.338542 30.703125 30.234375 C30.932293 30.130208 31.083333 30.000001 31.156250 29.843750 C31.177083 29.812500 31.192708 29.653647 31.203125 29.367188 C31.213542 29.080728 31.223958 28.614587 31.234375 27.968750 C31.244792 27.322913 31.250000 26.458339 31.250000 25.375000 C31.250000 25.093749 31.148439 24.736981 30.945312 24.304688 C30.742186 23.872394 30.505210 23.348961 30.234375 22.734375 C29.963540 22.119789 29.726564 21.403650 29.523438 20.585938 C29.320311 19.768225 29.218750 18.833339 29.218750 17.781250 C29.218750 15.958324 28.955732 14.505214 28.429688 13.421875 C27.903643 12.338536 27.002611 11.559898 25.726562 11.085938 C24.450514 10.611977 22.677095 10.375000 20.406250 10.375000 C19.906248 10.375000 19.122401 10.385417 18.054688 10.406250 C16.986974 10.427083 15.614592 10.473958 13.937500 10.546875 L12.781250 9.468750 C12.343748 9.760418 11.846357 9.994791 11.289062 10.171875 C10.731768 10.348959 10.182294 10.437500 9.640625 10.437500 C8.921871 10.437500 8.406252 10.263023 8.093750 9.914062 C7.781248 9.565102 7.625000 9.010420 7.625000 8.250000 C7.625000 7.510413 7.739582 6.781254 7.968750 6.062500 C8.197918 5.343746 8.494790 4.703128 8.859375 4.140625 L10.046875 4.890625 C9.723957 5.380211 9.479167 5.950518 9.312500 6.601562 C9.145832 7.252607 9.062500 7.802081 9.062500 8.250000 C9.062500 8.760419 9.260415 9.015625 9.656250 9.015625 C9.958335 9.015625 10.338539 8.940105 10.796875 8.789062 C11.255211 8.638020 11.661457 8.466147 12.015625 8.273438 C12.369793 8.080728 12.546875 7.921876 12.546875 7.796875 C12.546875 7.640624 12.489584 7.361981 12.375000 6.960938 C12.260416 6.559894 12.114584 6.135419 11.937500 5.687500 C11.760416 5.239581 11.580730 4.854168 11.398438 4.531250 C11.216145 4.208332 11.057292 4.041667 10.921875 4.031250 L10.687500 4.015625 C10.385415 3.463539 10.000002 3.046876 9.531250 2.765625 C9.062498 2.484374 8.468754 2.343750 7.750000 2.343750 C6.874996 2.343750 6.161461 2.544269 5.609375 2.945312 C5.057289 3.346356 4.640626 3.916663 4.359375 4.656250 C4.265625 4.885418 4.072918 5.062499 3.781250 5.187500 C3.489582 5.312501 3.171877 5.416666 2.828125 5.500000 C2.484373 5.583334 2.187501 5.671875 1.937500 5.765625 C1.687499 5.859375 1.562500 5.994791 1.562500 6.171875 C1.562500 6.734378 1.682290 7.213540 1.921875 7.609375 C2.161460 8.005210 2.598955 8.307291 3.234375 8.515625 C3.869795 8.723959 4.776036 8.828125 5.953125 8.828125 L8.687500 16.968750 C9.208336 18.531258 9.973953 19.705725 10.984375 20.492188 C11.994797 21.278650 13.385408 21.671875 15.156250 21.671875 C15.281251 21.942710 15.385416 22.380205 15.468750 22.984375 C15.552084 23.588545 15.611979 24.216143 15.648438 24.867188 C15.684896 25.518232 15.703125 26.062498 15.703125 26.500000 C15.703125 27.322921 15.643230 28.020830 15.523438 28.593750 C15.403645 29.166670 15.283855 29.638019 15.164062 30.007812 C15.044270 30.377606 14.984375 30.682290 14.984375 30.921875 C14.984375 31.036459 15.041666 31.119791 15.156250 31.171875 C15.270834 31.223959 15.395833 31.250000 15.531250 31.250000 Z M22.859375 29.828125 C22.057288 29.828125 21.656250 29.552086 21.656250 29.000000 C21.656250 28.666665 21.752603 28.330731 21.945312 27.992188 C22.138022 27.653644 22.330728 27.283856 22.523438 26.882812 C22.716147 26.481769 22.812500 26.031252 22.812500 25.531250 C22.812500 25.031248 22.718751 24.518232 22.531250 23.992188 C22.343749 23.466143 22.153647 22.851566 21.960938 22.148438 C21.768228 21.445309 21.671875 20.578130 21.671875 19.546875 L24.218750 18.171875 L26.468750 22.687500 L24.781250 28.828125 C24.708333 29.119793 24.492189 29.359374 24.132812 29.546875 C23.773436 29.734376 23.348961 29.828125 22.859375 29.828125 Z M17.281250 22.984375 C17.218750 22.005203 17.135417 21.111983 17.031250 20.304688 C16.927083 19.497392 16.739585 18.562505 16.468750 17.500000 L15.796875 14.812500 C15.713541 14.447915 15.617188 13.997399 15.507812 13.460938 C15.398437 12.924476 15.302084 12.367190 15.218750 11.789062 C15.135416 11.210935 15.078125 10.677086 15.046875 10.187500 L16.750000 10.078125 C16.750000 10.828129 16.843749 11.664058 17.031250 12.585938 C17.218751 13.507817 17.432290 14.463537 17.671875 15.453125 C17.942710 16.557297 18.192707 17.671869 18.421875 18.796875 C18.651043 19.921881 18.765625 20.989578 18.765625 22.000000 Z M6.359375 5.781250 C6.192708 5.781250 6.046876 5.697917 5.921875 5.531250 C5.796874 5.364583 5.734375 5.166668 5.734375 4.937500 C5.734375 4.697915 5.796874 4.497397 5.921875 4.335938 C6.046876 4.174478 6.192708 4.093750 6.359375 4.093750 C6.536459 4.093750 6.684895 4.174478 6.804688 4.335938 C6.924480 4.497397 6.984375 4.697915 6.984375 4.937500 C6.984375 5.166668 6.924480 5.364583 6.804688 5.531250 C6.684895 5.697917 6.536459 5.781250 6.359375 5.781250 Z M17.062500 15.671875 L16.250000 14.515625 L23.531250 9.468750 L27.000000 3.125000 C27.218751 2.718748 27.210939 2.333335 26.976562 1.968750 C26.742186 1.604165 26.380211 1.421875 25.890625 1.421875 C25.661457 1.421875 25.450522 1.473958 25.257812 1.578125 C25.065103 1.682292 24.864584 1.854165 24.656250 2.093750 L21.062500 6.343750 L15.187500 10.312500 L14.406250 9.156250 L20.125000 5.281250 L23.593750 1.203125 C23.958335 0.776040 24.317707 0.468751 24.671875 0.281250 C25.026043 0.093749 25.416665 -0.000000 25.843750 -0.000000 C26.593754 -0.000000 27.208331 0.184894 27.687500 0.554688 C28.166669 0.924481 28.463541 1.401039 28.578125 1.984375 C28.692709 2.567711 28.572918 3.177080 28.218750 3.812500 L24.593750 10.437500 Z M30.484375 15.578125 L30.250000 13.953125 C30.697919 13.817708 31.054686 13.609376 31.320312 13.328125 C31.585939 13.046874 31.815103 12.614586 32.007812 12.031250 C32.200522 11.447914 32.411457 10.640630 32.640625 9.609375 C32.755209 9.078122 32.893228 8.619794 33.054688 8.234375 C33.216147 7.848956 33.354166 7.520835 33.468750 7.250000 C33.489583 7.197916 33.486979 7.151042 33.460938 7.109375 C33.434896 7.067708 33.390625 7.046875 33.328125 7.046875 C32.588538 7.046875 31.966148 7.309893 31.460938 7.835938 C30.955727 8.361982 30.578126 8.989580 30.328125 9.718750 C30.130207 10.302086 29.927084 10.794269 29.718750 11.195312 C29.510416 11.596356 29.265626 11.901041 28.984375 12.109375 L28.015625 10.734375 C28.328127 10.463540 28.591145 10.041670 28.804688 9.468750 C29.018230 8.895830 29.317706 8.260420 29.703125 7.562500 C30.026043 6.989580 30.510413 6.497398 31.156250 6.085938 C31.802087 5.674477 32.671870 5.468750 33.765625 5.468750 C34.223961 5.468750 34.622394 5.544270 34.960938 5.695312 C35.299481 5.846355 35.468750 6.119790 35.468750 6.515625 C35.468750 6.723959 35.304689 7.104164 34.976562 7.656250 C34.648436 8.208336 34.380209 8.963537 34.171875 9.921875 C33.901040 11.182298 33.614585 12.192705 33.312500 12.953125 C33.010415 13.713545 32.638023 14.294269 32.195312 14.695312 C31.752602 15.096356 31.182295 15.390624 30.484375 15.578125 Z M38.046875 27.343750" /></svg>