<svg version="1.1" xmlns="http://www.w3.org/2000/svg" style="fill:rgba(0,0,0,1.0)" width="256" height="256" viewBox="0 0 40.109375 31.25"><path fill="rgb(255, 255, 255)" d="M19.796875 31.250000 C15.932272 31.250000 12.375016 30.440112 9.125000 28.820312 C5.874984 27.200513 2.833348 24.807308 0.000000 21.640625 L2.625000 19.953125 L0.578125 18.218750 C0.859376 17.302079 1.294268 16.291672 1.882812 15.187500 C2.471357 14.083328 3.135413 13.018234 3.875000 11.992188 C4.614587 10.966141 5.343746 10.109378 6.062500 9.421875 C5.697915 8.151035 5.406251 6.916673 5.187500 5.718750 C4.968749 4.520827 4.859375 3.536462 4.859375 2.765625 C4.859375 1.869787 5.023436 1.184898 5.351562 0.710938 C5.679689 0.236977 6.208330 -0.000000 6.937500 -0.000000 C7.989589 -0.000000 9.190097 0.249997 10.539062 0.750000 C11.888028 1.250003 13.239577 1.947912 14.593750 2.843750 C15.208336 2.489582 16.015620 2.187501 17.015625 1.937500 C18.015630 1.687499 18.942704 1.562500 19.796875 1.562500 C20.661463 1.562500 21.593745 1.687499 22.593750 1.937500 C23.593755 2.187501 24.395830 2.489582 25.000000 2.843750 C26.364590 1.947912 27.718743 1.250003 29.062500 0.750000 C30.406257 0.249997 31.604161 -0.000000 32.656250 -0.000000 C33.385420 -0.000000 33.914061 0.236977 34.242188 0.710938 C34.570314 1.184898 34.734375 1.869787 34.734375 2.765625 C34.734375 3.536462 34.625001 4.520827 34.406250 5.718750 C34.187499 6.916673 33.895835 8.151035 33.531250 9.421875 C34.260420 10.109378 34.992184 10.966141 35.726562 11.992188 C36.460941 13.018234 37.122393 14.083328 37.710938 15.187500 C38.299482 16.291672 38.734374 17.302079 39.015625 18.218750 L36.968750 19.953125 L39.593750 21.640625 C36.760402 24.807308 33.718766 27.200513 30.468750 28.820312 C27.218734 30.440112 23.661478 31.250000 19.796875 31.250000 Z M17.703125 27.218750 C17.140622 27.218750 16.596357 27.091147 16.070312 26.835938 C15.544268 26.580728 15.114585 26.244794 14.781250 25.828125 L15.859375 24.812500 C16.369794 25.375003 16.984371 25.656250 17.703125 25.656250 C18.161461 25.656250 18.523436 25.531251 18.789062 25.281250 C19.054689 25.031249 19.187500 24.744793 19.187500 24.421875 L20.406250 24.421875 C20.406250 24.744793 20.539061 25.031249 20.804688 25.281250 C21.070314 25.531251 21.432289 25.656250 21.890625 25.656250 C22.609379 25.656250 23.223956 25.375003 23.734375 24.812500 L24.812500 25.828125 C24.479165 26.244794 24.049482 26.580728 23.523438 26.835938 C22.997393 27.091147 22.453128 27.218750 21.890625 27.218750 C21.036454 27.218750 20.338544 26.916670 19.796875 26.312500 C19.255206 26.916670 18.557296 27.218750 17.703125 27.218750 Z M19.796875 25.359375 C18.963538 25.359375 18.291669 25.132815 17.781250 24.679688 C17.270831 24.226560 17.015625 23.630212 17.015625 22.890625 C17.015625 22.151038 17.270831 21.557294 17.781250 21.109375 C18.291669 20.661456 18.963538 20.437500 19.796875 20.437500 C20.630212 20.437500 21.299477 20.661456 21.804688 21.109375 C22.309898 21.557294 22.562500 22.151038 22.562500 22.890625 C22.562500 23.630212 22.309898 24.226560 21.804688 24.679688 C21.299477 25.132815 20.630212 25.359375 19.796875 25.359375 Z M15.343750 17.921875 C15.770835 17.921875 16.130207 17.718752 16.421875 17.312500 C16.713543 16.906248 16.859375 16.416670 16.859375 15.843750 C16.859375 15.270830 16.713543 14.783856 16.421875 14.382812 C16.130207 13.981769 15.770835 13.781250 15.343750 13.781250 C14.927081 13.781250 14.570314 13.981769 14.273438 14.382812 C13.976561 14.783856 13.828125 15.270830 13.828125 15.843750 C13.828125 16.416670 13.976561 16.906248 14.273438 17.312500 C14.570314 17.718752 14.927081 17.921875 15.343750 17.921875 Z M19.796875 29.687500 C23.192725 29.687500 26.322902 29.028652 29.187500 27.710938 C32.052098 26.393223 34.781237 24.432305 37.375000 21.828125 L34.687500 20.031250 L37.218750 17.937500 C36.374996 16.562493 35.312506 15.356776 34.031250 14.320312 C32.749994 13.283849 31.380216 12.476565 29.921875 11.898438 C28.463534 11.320310 27.041674 11.031250 25.656250 11.031250 C24.989580 11.031250 24.416669 11.114583 23.937500 11.281250 C23.458331 11.447917 23.067710 11.739581 22.765625 12.156250 C23.046876 12.041666 23.346353 11.953125 23.664062 11.890625 C23.981772 11.828125 24.317707 11.796875 24.671875 11.796875 C25.505212 11.796875 26.242184 11.953123 26.882812 12.265625 C27.523441 12.578127 28.088539 12.960935 28.578125 13.414062 C29.067711 13.867190 29.499998 14.322914 29.875000 14.781250 C30.250002 15.239586 30.588540 15.614582 30.890625 15.906250 C31.296877 16.291669 31.710935 16.721352 32.132812 17.195312 C32.554690 17.669273 32.911457 18.192705 33.203125 18.765625 C33.494793 19.338545 33.640625 19.979163 33.640625 20.687500 C33.640625 21.500004 33.427085 22.302079 33.000000 23.093750 C32.572915 23.885421 32.005212 24.601559 31.296875 25.242188 C30.588538 25.882816 29.794275 26.393227 28.914062 26.773438 C28.033850 27.153648 27.140630 27.343750 26.234375 27.343750 C25.921873 25.645825 25.541669 24.223964 25.093750 23.078125 C24.645831 21.932286 24.067712 20.945317 23.359375 20.117188 C22.651038 19.289058 21.739589 18.500004 20.625000 17.750000 C20.552083 17.614583 20.497396 17.375002 20.460938 17.031250 C20.424479 16.687498 20.406250 16.322919 20.406250 15.937500 C20.406250 13.635405 20.848954 11.981776 21.734375 10.976562 C22.619796 9.971349 23.927075 9.468750 25.656250 9.468750 C26.625005 9.468750 27.617182 9.604165 28.632812 9.875000 C29.648443 10.145835 30.669266 10.546872 31.695312 11.078125 C32.721359 11.609378 33.723953 12.270829 34.703125 13.062500 C34.244789 12.395830 33.765628 11.778649 33.265625 11.210938 C32.765622 10.643226 32.270836 10.171877 31.781250 9.796875 C32.218752 8.432285 32.559895 7.117194 32.804688 5.851562 C33.049480 4.585931 33.171875 3.557296 33.171875 2.765625 C33.171875 2.234372 33.132813 1.901042 33.054688 1.765625 C32.976562 1.630208 32.843751 1.562500 32.656250 1.562500 C31.677078 1.562500 30.539069 1.825518 29.242188 2.351562 C27.945306 2.877607 26.625007 3.619787 25.281250 4.578125 C24.927082 4.348957 24.427087 4.122397 23.781250 3.898438 C23.135413 3.674478 22.455733 3.489584 21.742188 3.343750 C21.028642 3.197916 20.380211 3.125000 19.796875 3.125000 C19.223955 3.125000 18.578129 3.197916 17.859375 3.343750 C17.140621 3.489584 16.458337 3.674478 15.812500 3.898438 C15.166663 4.122397 14.666668 4.348957 14.312500 4.578125 C12.968743 3.619787 11.648444 2.877607 10.351562 2.351562 C9.054681 1.825518 7.916672 1.562500 6.937500 1.562500 C6.749999 1.562500 6.617188 1.630208 6.539062 1.765625 C6.460937 1.901042 6.421875 2.234372 6.421875 2.765625 C6.421875 3.557296 6.549478 4.593744 6.804688 5.875000 C7.059897 7.156256 7.395831 8.463535 7.812500 9.796875 C7.322914 10.171877 6.828128 10.643226 6.328125 11.210938 C5.828122 11.778649 5.348961 12.395830 4.890625 13.062500 C5.880213 12.270829 6.885412 11.609378 7.906250 11.078125 C8.927088 10.546872 9.947912 10.145835 10.968750 9.875000 C11.989588 9.604165 12.979162 9.468750 13.937500 9.468750 C15.677092 9.468750 16.986975 9.971349 17.867188 10.976562 C18.747400 11.981776 19.187500 13.635405 19.187500 15.937500 C19.187500 16.322919 19.169271 16.687498 19.132812 17.031250 C19.096354 17.375002 19.041667 17.614583 18.968750 17.750000 C17.854161 18.500004 16.942712 19.289058 16.234375 20.117188 C15.526038 20.945317 14.950523 21.932286 14.507812 23.078125 C14.065102 24.223964 13.682293 25.645825 13.359375 27.343750 C12.453120 27.343750 11.559900 27.153648 10.679688 26.773438 C9.799475 26.393227 9.005212 25.882816 8.296875 25.242188 C7.588538 24.601559 7.020835 23.885421 6.593750 23.093750 C6.166665 22.302079 5.953125 21.500004 5.953125 20.687500 C5.953125 19.979163 6.098957 19.338545 6.390625 18.765625 C6.682293 18.192705 7.039060 17.669273 7.460938 17.195312 C7.882815 16.721352 8.296873 16.291669 8.703125 15.906250 C9.005210 15.614582 9.343748 15.239586 9.718750 14.781250 C10.093752 14.322914 10.526039 13.867190 11.015625 13.414062 C11.505211 12.960935 12.070309 12.578127 12.710938 12.265625 C13.351566 11.953123 14.088538 11.796875 14.921875 11.796875 C15.276043 11.796875 15.609373 11.828125 15.921875 11.890625 C16.234377 11.953125 16.531249 12.041666 16.812500 12.156250 C16.510415 11.739581 16.122398 11.447917 15.648438 11.281250 C15.174477 11.114583 14.604170 11.031250 13.937500 11.031250 C12.562493 11.031250 11.143236 11.320310 9.679688 11.898438 C8.216139 12.476565 6.843756 13.283849 5.562500 14.320312 C4.281244 15.356776 3.218754 16.562493 2.375000 17.937500 L4.906250 20.031250 L2.218750 21.828125 C4.812513 24.432305 7.544256 26.393223 10.414062 27.710938 C13.283869 29.028652 16.411441 29.687500 19.796875 29.687500 Z M9.062500 8.265625 C8.812499 7.942707 8.575522 7.526044 8.351562 7.015625 C8.127603 6.505206 7.945313 5.973961 7.804688 5.421875 C7.664062 4.869789 7.593750 4.385419 7.593750 3.968750 C7.593750 3.270830 7.869789 2.921875 8.421875 2.921875 C8.765627 2.921875 9.190102 3.023436 9.695312 3.226562 C10.200523 3.429689 10.726560 3.703123 11.273438 4.046875 C11.820315 4.390627 12.312498 4.765623 12.750000 5.171875 C12.145830 5.651044 11.541670 6.140622 10.937500 6.640625 C10.333330 7.140628 9.708337 7.682289 9.062500 8.265625 Z M24.250000 17.921875 C24.677085 17.921875 25.036457 17.718752 25.328125 17.312500 C25.619793 16.906248 25.765625 16.416670 25.765625 15.843750 C25.765625 15.270830 25.619793 14.783856 25.328125 14.382812 C25.036457 13.981769 24.677085 13.781250 24.250000 13.781250 C23.833331 13.781250 23.476564 13.981769 23.179688 14.382812 C22.882811 14.783856 22.734375 15.270830 22.734375 15.843750 C22.734375 16.416670 22.882811 16.906248 23.179688 17.312500 C23.476564 17.718752 23.833331 17.921875 24.250000 17.921875 Z M30.531250 8.265625 C29.895830 7.682289 29.276045 7.140628 28.671875 6.640625 C28.067705 6.140622 27.458336 5.651044 26.843750 5.171875 C27.291669 4.765623 27.786456 4.390627 28.328125 4.046875 C28.869794 3.703123 29.395831 3.429689 29.906250 3.226562 C30.416669 3.023436 30.838540 2.921875 31.171875 2.921875 C31.723961 2.921875 32.000000 3.270830 32.000000 3.968750 C32.000000 4.385419 31.929688 4.869789 31.789062 5.421875 C31.648437 5.973961 31.466147 6.505206 31.242188 7.015625 C31.018228 7.526044 30.781251 7.942707 30.531250 8.265625 Z M40.109375 26.562500" /></svg>