<svg version="1.1" xmlns="http://www.w3.org/2000/svg" style="fill:rgba(0,0,0,1.0)" width="256" height="256" viewBox="0 0 36.484375 32.8125"><path fill="rgb(255, 255, 255)" d="M16.156250 17.250000 C13.135402 17.250000 10.541678 16.981774 8.375000 16.445312 C6.208322 15.908851 4.544277 15.101568 3.382812 14.023438 C2.221348 12.945307 1.640625 11.604175 1.640625 10.000000 C1.640625 8.864578 1.945309 7.710943 2.554688 6.539062 C3.164066 5.367182 4.075515 4.286463 5.289062 3.296875 C6.502610 2.307287 8.015616 1.510420 9.828125 0.906250 C11.640634 0.302080 13.749988 -0.000000 16.156250 -0.000000 C18.562512 -0.000000 20.671866 0.302080 22.484375 0.906250 C24.296884 1.510420 25.809890 2.307287 27.023438 3.296875 C28.236985 4.286463 29.148434 5.367182 29.757812 6.539062 C30.367191 7.710943 30.671875 8.864578 30.671875 10.000000 C30.671875 11.604175 30.091152 12.945307 28.929688 14.023438 C27.768223 15.101568 26.104178 15.908851 23.937500 16.445312 C21.770822 16.981774 19.177098 17.250000 16.156250 17.250000 Z M16.156250 32.812500 C14.124990 32.812500 12.247404 32.617189 10.523438 32.226562 C8.799471 31.835936 7.299486 31.286462 6.023438 30.578125 C4.747389 29.869788 3.755212 29.041671 3.046875 28.093750 C2.338538 27.145829 1.984375 26.119797 1.984375 25.015625 C1.984375 24.723957 2.007812 24.427085 2.054688 24.125000 C2.101563 23.822915 2.177083 23.520835 2.281250 23.218750 L4.062500 23.968750 C3.937499 24.343752 3.875000 24.713540 3.875000 25.078125 C3.875000 25.932296 4.179684 26.726559 4.789062 27.460938 C5.398441 28.195316 6.255203 28.833331 7.359375 29.375000 C8.463547 29.916669 9.763013 30.338540 11.257812 30.640625 C12.752612 30.942710 14.385408 31.093750 16.156250 31.093750 C17.927092 31.093750 19.559888 30.942710 21.054688 30.640625 C22.549487 30.338540 23.848953 29.916669 24.953125 29.375000 C26.057297 28.833331 26.914059 28.195316 27.523438 27.460938 C28.132816 26.726559 28.437500 25.932296 28.437500 25.078125 C28.437500 24.713540 28.375001 24.343752 28.250000 23.968750 L30.031250 23.218750 C30.135417 23.520835 30.210937 23.822915 30.257812 24.125000 C30.304688 24.427085 30.328125 24.723957 30.328125 25.015625 C30.328125 26.119797 29.973962 27.145829 29.265625 28.093750 C28.557288 29.041671 27.565111 29.869788 26.289062 30.578125 C25.013014 31.286462 23.513029 31.835936 21.789062 32.226562 C20.065096 32.617189 18.187510 32.812500 16.156250 32.812500 Z M16.140625 28.968750 C14.796868 28.968750 13.489590 28.877605 12.218750 28.695312 C10.947910 28.513020 9.789068 28.255210 8.742188 27.921875 C7.695307 27.588540 6.833337 27.197919 6.156250 26.750000 C4.468742 26.312498 3.299482 25.692712 2.648438 24.890625 C1.997393 24.088538 1.671875 23.265629 1.671875 22.421875 C1.671875 21.880206 1.822915 21.380211 2.125000 20.921875 L16.609375 27.828125 L29.687500 20.500000 C29.989585 21.093753 30.140625 21.734372 30.140625 22.421875 C30.140625 23.265629 29.757816 24.078121 28.992188 24.859375 C28.226559 25.640629 27.182298 26.341143 25.859375 26.960938 C24.536452 27.580732 23.039071 28.070311 21.367188 28.429688 C19.695304 28.789064 17.953134 28.968750 16.140625 28.968750 Z M16.843750 28.718750 C14.781240 27.697912 12.908863 26.789066 11.226562 25.992188 C9.544262 25.195309 7.914070 24.437504 6.335938 23.718750 C4.757805 22.999996 3.083342 22.250004 1.312500 21.468750 C0.895831 21.281249 0.687500 20.979169 0.687500 20.562500 C0.687500 20.312499 0.770832 20.083334 0.937500 19.875000 L3.109375 17.187500 L4.234375 17.921875 L2.265625 20.281250 C2.223958 20.343750 2.208333 20.406250 2.218750 20.468750 C2.229167 20.531250 2.270833 20.578125 2.343750 20.609375 C4.479177 21.505213 6.692697 22.479161 8.984375 23.531250 C11.276053 24.583339 13.645821 25.749994 16.093750 27.031250 C16.322918 27.145834 16.546874 27.140626 16.765625 27.015625 C18.630218 25.994787 20.585927 24.942714 22.632812 23.859375 C24.679698 22.776036 26.890613 21.635423 29.265625 20.437500 C29.401042 20.385416 29.427084 20.296876 29.343750 20.171875 L28.093750 18.015625 L29.234375 17.609375 L30.578125 19.953125 C30.671875 20.119792 30.718750 20.291666 30.718750 20.468750 C30.718750 20.843752 30.526044 21.130207 30.140625 21.328125 C27.807280 22.463547 25.557302 23.627598 23.390625 24.820312 C21.223948 26.013027 19.041678 27.312493 16.843750 28.718750 Z M15.609375 23.046875 C13.661449 23.046875 11.890633 22.872398 10.296875 22.523438 C8.703117 22.174477 7.401047 21.781252 6.390625 21.343750 C5.182286 20.822914 4.325523 20.218753 3.820312 19.531250 C3.315102 18.843747 3.062500 17.921881 3.062500 16.765625 L5.812500 19.156250 L11.093750 19.546875 L13.390625 21.109375 L18.656250 19.750000 L23.718750 20.078125 L26.281250 18.609375 L28.515625 18.156250 C28.255207 18.854170 27.841149 19.453122 27.273438 19.953125 C26.705726 20.453128 25.942713 20.916665 24.984375 21.343750 C23.973953 21.791669 22.664071 22.187498 21.054688 22.531250 C19.445304 22.875002 17.630218 23.046875 15.609375 23.046875 Z M13.640625 21.984375 C12.786454 21.984375 12.098961 21.854168 11.578125 21.593750 C11.057289 21.333332 10.609377 20.869795 10.234375 20.203125 C9.265620 20.380209 8.432295 20.468750 7.734375 20.468750 C6.546869 20.468750 5.614587 20.257815 4.937500 19.835938 C4.260413 19.414060 3.786460 18.703130 3.515625 17.703125 C2.411453 17.526041 1.549482 17.213544 0.929688 16.765625 C0.309893 16.317706 0.000000 15.770837 0.000000 15.125000 C0.000000 14.541664 0.252602 13.981774 0.757812 13.445312 C1.263023 12.908851 1.932288 12.494793 2.765625 12.203125 L3.281250 13.703125 C2.583330 13.973960 2.119793 14.213541 1.890625 14.421875 C1.661457 14.630209 1.546875 14.833332 1.546875 15.031250 C1.546875 15.281251 1.789060 15.515624 2.273438 15.734375 C2.757815 15.953126 3.546870 16.187499 4.640625 16.437500 C4.817709 17.343755 5.187497 18.005206 5.750000 18.421875 C6.312503 18.838544 7.166661 19.046875 8.312500 19.046875 C8.708335 19.046875 9.145831 19.023438 9.625000 18.976562 C10.104169 18.929687 10.624997 18.859375 11.187500 18.765625 C11.406251 19.213544 11.606770 19.557290 11.789062 19.796875 C11.971355 20.036460 12.203124 20.200520 12.484375 20.289062 C12.765626 20.377605 13.151039 20.421875 13.640625 20.421875 C14.276045 20.421875 14.919268 20.286460 15.570312 20.015625 C16.221357 19.744790 16.877601 19.476564 17.539062 19.210938 C18.200524 18.945311 18.859372 18.812500 19.515625 18.812500 C20.182295 18.812500 20.874996 18.924478 21.593750 19.148438 C22.312504 19.372397 22.953122 19.484375 23.515625 19.484375 C24.057294 19.484375 24.510415 19.315106 24.875000 18.976562 C25.239585 18.638019 25.526041 18.229169 25.734375 17.750000 C25.921876 17.791667 26.132811 17.830729 26.367188 17.867188 C26.601564 17.903646 26.843749 17.921875 27.093750 17.921875 C27.614586 17.921875 28.106769 17.822918 28.570312 17.625000 C29.033856 17.427082 29.265625 17.135419 29.265625 16.750000 C29.265625 16.562499 29.242188 16.343751 29.195312 16.093750 C29.148437 15.843749 29.125000 15.583335 29.125000 15.312500 C29.125000 14.822914 29.304686 14.398439 29.664062 14.039062 C30.023439 13.679686 30.437498 13.343752 30.906250 13.031250 L30.765625 13.453125 C30.765625 13.046873 30.604168 12.734376 30.281250 12.515625 C29.958332 12.296874 29.552086 12.187500 29.062500 12.187500 L29.062500 10.609375 C29.979171 10.609375 30.755205 10.874997 31.390625 11.406250 C32.026045 11.937503 32.343750 12.588538 32.343750 13.359375 C32.343750 13.692710 32.208335 13.968749 31.937500 14.187500 C31.666665 14.406251 31.393231 14.604166 31.117188 14.781250 C30.841144 14.958334 30.703125 15.156249 30.703125 15.375000 C30.703125 15.604168 30.723958 15.815103 30.765625 16.007812 C30.807292 16.200522 30.828125 16.447915 30.828125 16.750000 C30.828125 17.541671 30.494795 18.190102 29.828125 18.695312 C29.161455 19.200523 28.411462 19.453125 27.578125 19.453125 C27.192706 19.453125 26.786460 19.395834 26.359375 19.281250 C25.838539 20.447922 24.885424 21.031250 23.500000 21.031250 C22.739580 21.031250 22.020837 20.921876 21.343750 20.703125 C20.666663 20.484374 20.072919 20.375000 19.562500 20.375000 C18.833330 20.375000 18.158857 20.507811 17.539062 20.773438 C16.919268 21.039064 16.299482 21.307290 15.679688 21.578125 C15.059893 21.848960 14.380212 21.984375 13.640625 21.984375 Z M9.265625 6.843750 C9.098958 6.760416 8.924480 6.695313 8.742188 6.648438 C8.559895 6.601562 8.369793 6.567708 8.171875 6.546875 L8.343750 5.453125 C8.843752 5.515625 9.307290 5.651041 9.734375 5.859375 Z M12.562500 8.437500 C12.458333 8.187499 12.380209 7.940105 12.328125 7.695312 C12.276041 7.450520 12.239583 7.229168 12.218750 7.031250 L13.234375 6.812500 C13.255208 7.000001 13.302083 7.205728 13.375000 7.429688 C13.447917 7.653647 13.520833 7.854166 13.593750 8.031250 Z M16.156250 15.531250 C20.322938 15.531250 23.471344 15.041672 25.601562 14.062500 C27.731781 13.083328 28.796875 11.729175 28.796875 10.000000 C28.796875 8.864578 28.476566 7.796880 27.835938 6.796875 C27.195309 5.796870 26.302089 4.916670 25.156250 4.156250 C24.010411 3.395830 22.671883 2.799481 21.140625 2.367188 C19.609367 1.934894 17.947926 1.718750 16.156250 1.718750 C14.364574 1.718750 12.703133 1.934894 11.171875 2.367188 C9.640617 2.799481 8.302089 3.395830 7.156250 4.156250 C6.010411 4.916670 5.117191 5.796870 4.476562 6.796875 C3.835934 7.796880 3.515625 8.864578 3.515625 10.000000 C3.515625 11.729175 4.580719 13.083328 6.710938 14.062500 C8.841156 15.041672 11.989562 15.531250 16.156250 15.531250 Z M14.062500 5.359375 L13.390625 4.468750 C13.609376 4.302083 13.828124 4.161459 14.046875 4.046875 C14.265626 3.932291 14.473957 3.838542 14.671875 3.765625 L15.140625 4.687500 C14.963541 4.750000 14.776043 4.846354 14.578125 4.976562 C14.380207 5.106771 14.208334 5.234374 14.062500 5.359375 Z M18.000000 8.265625 L16.906250 8.093750 C16.937500 7.822915 16.989583 7.570314 17.062500 7.335938 C17.135417 7.101561 17.218750 6.890626 17.312500 6.703125 L18.296875 7.015625 C18.223958 7.182292 18.161459 7.382811 18.109375 7.617188 C18.057291 7.851564 18.020833 8.067707 18.000000 8.265625 Z M19.296875 5.328125 C19.109374 5.276041 18.921876 5.244792 18.734375 5.234375 C18.546874 5.223958 18.348959 5.218750 18.140625 5.218750 L18.140625 4.125000 C18.348959 4.125000 18.591144 4.132812 18.867188 4.148438 C19.143231 4.164063 19.380207 4.208333 19.578125 4.281250 Z M23.203125 7.171875 C22.994791 7.161458 22.770835 7.127604 22.531250 7.070312 C22.291665 7.013021 22.046876 6.932292 21.796875 6.828125 L22.203125 5.796875 C22.546877 5.942709 22.911456 6.041666 23.296875 6.093750 Z M36.484375 27.343750" /></svg>