<svg version="1.1" xmlns="http://www.w3.org/2000/svg" style="fill:rgba(0,0,0,1.0)" width="256" height="256" viewBox="0 0 34.53125 32.8125"><path fill="rgb(255, 255, 255)" d="M14.218750 32.812500 C11.468736 32.812500 9.278654 32.122403 7.648438 30.742188 C6.018221 29.361972 4.770838 27.145849 3.906250 24.093750 L3.531250 22.765625 C3.249999 21.755203 2.908856 20.934899 2.507812 20.304688 C2.106769 19.674476 1.716148 19.153648 1.335938 18.742188 C0.955727 18.330727 0.638022 17.950523 0.382812 17.601562 C0.127603 17.252602 0.000000 16.848961 0.000000 16.390625 C0.000000 15.546871 0.356767 14.825524 1.070312 14.226562 C1.783858 13.627601 2.661453 13.328125 3.703125 13.328125 C4.661463 13.328125 5.591141 13.598956 6.492188 14.140625 C7.393234 14.682294 8.083331 15.401037 8.562500 16.296875 C9.291670 15.744789 10.156245 15.307293 11.156250 14.984375 C12.156255 14.661457 13.177078 14.500000 14.218750 14.500000 C15.260422 14.500000 16.281245 14.661457 17.281250 14.984375 C18.281255 15.307293 19.145830 15.744789 19.875000 16.296875 C20.364586 15.401037 21.057287 14.682294 21.953125 14.140625 C22.848963 13.598956 23.776037 13.328125 24.734375 13.328125 C25.776047 13.328125 26.653642 13.627601 27.367188 14.226562 C28.080733 14.825524 28.437500 15.546871 28.437500 16.390625 C28.437500 16.848961 28.309897 17.252602 28.054688 17.601562 C27.799478 17.950523 27.481773 18.330727 27.101562 18.742188 C26.721352 19.153648 26.330731 19.674476 25.929688 20.304688 C25.528644 20.934899 25.187501 21.755203 24.906250 22.765625 L24.531250 24.093750 C23.677079 27.145849 22.432300 29.361972 20.796875 30.742188 C19.161450 32.122403 16.968764 32.812500 14.218750 32.812500 Z M14.218750 31.093750 C15.760424 31.093750 17.072911 30.854169 18.156250 30.375000 C19.239589 29.895831 20.153642 29.111985 20.898438 28.023438 C21.643233 26.934890 22.270831 25.479176 22.781250 23.656250 L23.156250 22.328125 C23.458335 21.276036 23.802081 20.414066 24.187500 19.742188 C24.572919 19.070309 24.945311 18.528648 25.304688 18.117188 C25.664064 17.705727 25.963540 17.369793 26.203125 17.109375 C26.442710 16.848957 26.562500 16.609376 26.562500 16.390625 C26.562500 15.973956 26.406252 15.645835 26.093750 15.406250 C25.781248 15.166665 25.328128 15.046875 24.734375 15.046875 C23.807287 15.046875 22.963545 15.351559 22.203125 15.960938 C21.442705 16.570316 20.833336 17.463536 20.375000 18.640625 C19.239578 17.744787 18.213546 17.117189 17.296875 16.757812 C16.380204 16.398436 15.354172 16.218750 14.218750 16.218750 C13.083328 16.218750 12.057296 16.398436 11.140625 16.757812 C10.223954 17.117189 9.197922 17.744787 8.062500 18.640625 C7.604164 17.463536 6.994795 16.570316 6.234375 15.960938 C5.473955 15.351559 4.630213 15.046875 3.703125 15.046875 C3.109372 15.046875 2.656252 15.166665 2.343750 15.406250 C2.031248 15.645835 1.875000 15.973956 1.875000 16.390625 C1.875000 16.609376 1.994790 16.848957 2.234375 17.109375 C2.473960 17.369793 2.773436 17.705727 3.132812 18.117188 C3.492189 18.528648 3.867186 19.070309 4.257812 19.742188 C4.648439 20.414066 4.989582 21.276036 5.281250 22.328125 L5.656250 23.656250 C6.177086 25.479176 6.807288 26.934890 7.546875 28.023438 C8.286462 29.111985 9.200515 29.895831 10.289062 30.375000 C11.377610 30.854169 12.687492 31.093750 14.218750 31.093750 Z M14.218750 27.671875 C12.718742 27.671875 11.354173 27.231775 10.125000 26.351562 C8.895827 25.471350 7.994795 24.291674 7.421875 22.812500 C7.994795 21.322909 8.895827 20.140629 10.125000 19.265625 C11.354173 18.390621 12.718742 17.953125 14.218750 17.953125 C15.718758 17.953125 17.083327 18.390621 18.312500 19.265625 C19.541673 20.140629 20.442705 21.322909 21.015625 22.812500 C20.442705 24.291674 19.541673 25.471350 18.312500 26.351562 C17.083327 27.231775 15.718758 27.671875 14.218750 27.671875 Z M14.218750 26.109375 C15.375006 26.109375 16.429683 25.773441 17.382812 25.101562 C18.335942 24.429684 19.046873 23.510422 19.515625 22.343750 L19.515625 23.281250 C19.046873 22.114578 18.335942 21.195316 17.382812 20.523438 C16.429683 19.851559 15.375006 19.515625 14.218750 19.515625 C13.062494 19.515625 12.007817 19.851559 11.054688 20.523438 C10.101558 21.195316 9.390627 22.114578 8.921875 23.281250 L8.921875 22.343750 C9.390627 23.510422 10.101558 24.429684 11.054688 25.101562 C12.007817 25.773441 13.062494 26.109375 14.218750 26.109375 Z M14.218750 26.171875 C13.302079 26.171875 12.513024 25.841149 11.851562 25.179688 C11.190101 24.518226 10.859375 23.729171 10.859375 22.812500 C10.859375 21.885412 11.190101 21.093753 11.851562 20.437500 C12.513024 19.781247 13.302079 19.453125 14.218750 19.453125 C15.145838 19.453125 15.937497 19.781247 16.593750 20.437500 C17.250003 21.093753 17.578125 21.885412 17.578125 22.812500 C17.578125 23.729171 17.250003 24.518226 16.593750 25.179688 C15.937497 25.841149 15.145838 26.171875 14.218750 26.171875 Z M14.218750 24.921875 C14.802086 24.921875 15.299477 24.713544 15.710938 24.296875 C16.122398 23.880206 16.328125 23.385420 16.328125 22.812500 C16.328125 22.229164 16.122398 21.731773 15.710938 21.320312 C15.299477 20.908852 14.802086 20.703125 14.218750 20.703125 C13.645830 20.703125 13.151044 20.908852 12.734375 21.320312 C12.317706 21.731773 12.109375 22.229164 12.109375 22.812500 C12.109375 23.385420 12.317706 23.880206 12.734375 24.296875 C13.151044 24.713544 13.645830 24.921875 14.218750 24.921875 Z M14.218750 23.859375 C13.927082 23.859375 13.679689 23.757814 13.476562 23.554688 C13.273436 23.351561 13.171875 23.104168 13.171875 22.812500 C13.171875 22.520832 13.273436 22.273439 13.476562 22.070312 C13.679689 21.867186 13.927082 21.765625 14.218750 21.765625 C14.510418 21.765625 14.757811 21.867186 14.960938 22.070312 C15.164064 22.273439 15.265625 22.520832 15.265625 22.812500 C15.265625 23.104168 15.164064 23.351561 14.960938 23.554688 C14.757811 23.757814 14.510418 23.859375 14.218750 23.859375 Z M5.546875 15.296875 L5.546875 6.734375 C5.546875 5.786454 5.885413 4.994795 6.562500 4.359375 C7.239587 3.723955 8.046870 3.406250 8.984375 3.406250 C9.921880 3.406250 10.716143 3.723955 11.367188 4.359375 C12.018232 4.994795 12.343750 5.786454 12.343750 6.734375 L12.343750 15.796875 L10.625000 15.796875 L10.625000 3.562500 C10.625000 2.541662 10.971351 1.692712 11.664062 1.015625 C12.356774 0.338538 13.208328 -0.000000 14.218750 -0.000000 C15.229172 -0.000000 16.080726 0.338538 16.773438 1.015625 C17.466149 1.692712 17.812500 2.541662 17.812500 3.562500 L17.812500 15.796875 L16.093750 15.796875 L16.093750 6.734375 C16.093750 5.786454 16.419268 4.994795 17.070312 4.359375 C17.721357 3.723955 18.515620 3.406250 19.453125 3.406250 C20.390630 3.406250 21.197913 3.723955 21.875000 4.359375 C22.552087 4.994795 22.890625 5.786454 22.890625 6.734375 L22.890625 15.296875 L21.171875 15.296875 L21.171875 6.890625 C21.171875 6.369789 21.010418 5.945314 20.687500 5.617188 C20.364582 5.289061 19.953128 5.125000 19.453125 5.125000 C18.953122 5.125000 18.554689 5.289061 18.257812 5.617188 C17.960936 5.945314 17.812500 6.369789 17.812500 6.890625 L17.812500 15.796875 L16.093750 15.796875 L16.093750 3.718750 C16.093750 3.135414 15.927085 2.656252 15.593750 2.281250 C15.260415 1.906248 14.802086 1.718750 14.218750 1.718750 C13.645830 1.718750 13.190106 1.906248 12.851562 2.281250 C12.513019 2.656252 12.343750 3.135414 12.343750 3.718750 L12.343750 15.796875 L10.625000 15.796875 L10.625000 6.890625 C10.625000 6.369789 10.476564 5.945314 10.179688 5.617188 C9.882811 5.289061 9.484377 5.125000 8.984375 5.125000 C8.484372 5.125000 8.072918 5.289061 7.750000 5.617188 C7.427082 5.945314 7.265625 6.369789 7.265625 6.890625 L7.265625 15.296875 Z M34.531250 27.343750" /></svg>