<svg version="1.1" xmlns="http://www.w3.org/2000/svg" style="fill:rgba(0,0,0,1.0)" width="256" height="256" viewBox="0 0 36.875 31.25"><path fill="rgb(255, 255, 255)" d="M11.593750 31.250000 C9.604157 31.250000 7.835945 30.822921 6.289062 29.968750 C4.742180 29.114579 3.528650 27.927091 2.648438 26.406250 C1.768225 24.885409 1.328125 23.119802 1.328125 21.109375 C1.328125 19.817702 1.549477 18.479174 1.992188 17.093750 C2.434898 15.708326 3.044267 14.343757 3.820312 13.000000 C4.596358 11.656243 5.486974 10.393235 6.492188 9.210938 C7.497401 8.028640 8.570307 6.981775 9.710938 6.070312 C10.851568 5.158850 12.005202 4.442711 13.171875 3.921875 C14.338547 3.401039 15.468745 3.140625 16.562500 3.140625 C17.656255 3.140625 18.786452 3.401039 19.953125 3.921875 C21.119798 4.442711 22.273432 5.158850 23.414062 6.070312 C24.554693 6.981775 25.627599 8.028640 26.632812 9.210938 C27.638026 10.393235 28.528642 11.656243 29.304688 13.000000 C30.080733 14.343757 30.690102 15.708326 31.132812 17.093750 C31.575523 18.479174 31.796875 19.817702 31.796875 21.109375 C31.796875 23.119802 31.356775 24.885409 30.476562 26.406250 C29.596350 27.927091 28.385424 29.114579 26.843750 29.968750 C25.302076 30.822921 23.531260 31.250000 21.531250 31.250000 C20.489578 31.250000 19.578129 31.179688 18.796875 31.039062 C18.015621 30.898437 17.270837 30.671877 16.562500 30.359375 C15.854163 30.671877 15.109379 30.898437 14.328125 31.039062 C13.546871 31.179688 12.635422 31.250000 11.593750 31.250000 Z M3.000000 30.343750 L1.750000 29.375000 C2.208336 28.791664 2.749997 28.208336 3.375000 27.625000 C4.000003 27.041664 4.692705 26.468753 5.453125 25.906250 L6.390625 27.156250 C5.661455 27.687503 5.015628 28.218747 4.453125 28.750000 C3.890622 29.281253 3.406252 29.812497 3.000000 30.343750 Z M1.000000 26.921875 L0.000000 25.734375 C1.083339 24.817704 2.114578 24.080732 3.093750 23.523438 C4.072922 22.966143 5.031245 22.572918 5.968750 22.343750 L6.343750 23.843750 C5.520829 24.062501 4.679692 24.419268 3.820312 24.914062 C2.960933 25.408857 2.020838 26.078121 1.000000 26.921875 Z M15.593750 30.000000 C14.906247 30.000000 14.427085 29.570317 14.156250 28.710938 C13.885415 27.851558 13.750000 26.421885 13.750000 24.421875 L15.218750 25.046875 C15.218750 26.015630 15.252604 26.874996 15.320312 27.625000 C15.388021 28.375004 15.510416 28.750000 15.687500 28.750000 C15.791667 28.750000 15.919270 28.682292 16.070312 28.546875 C16.221355 28.411458 16.385416 28.239584 16.562500 28.031250 C16.739584 28.239584 16.903645 28.411458 17.054688 28.546875 C17.205730 28.682292 17.333333 28.750000 17.437500 28.750000 C17.614584 28.750000 17.736979 28.375004 17.804688 27.625000 C17.872396 26.874996 17.906250 26.015630 17.906250 25.046875 L19.375000 24.421875 C19.375000 26.421885 19.239585 27.851558 18.968750 28.710938 C18.697915 29.570317 18.218753 30.000000 17.531250 30.000000 C17.166665 30.000000 16.843751 29.880210 16.562500 29.640625 C16.270832 29.880210 15.947918 30.000000 15.593750 30.000000 Z M14.265625 25.656250 C13.640622 25.656250 13.039065 25.513022 12.460938 25.226562 C11.882810 24.940103 11.411460 24.572919 11.046875 24.125000 L12.234375 23.000000 C12.505210 23.291668 12.817707 23.520832 13.171875 23.687500 C13.526043 23.854168 13.890623 23.937500 14.265625 23.937500 C14.776044 23.937500 15.174478 23.786460 15.460938 23.484375 C15.747397 23.182290 15.890625 22.765628 15.890625 22.234375 L17.234375 22.234375 C17.234375 22.765628 17.377603 23.182290 17.664062 23.484375 C17.950522 23.786460 18.348956 23.937500 18.859375 23.937500 C19.234377 23.937500 19.601561 23.854168 19.960938 23.687500 C20.320314 23.520832 20.630207 23.291668 20.890625 23.000000 L22.078125 24.125000 C21.713540 24.572919 21.242190 24.940103 20.664062 25.226562 C20.085935 25.513022 19.484378 25.656250 18.859375 25.656250 C17.911454 25.656250 17.145836 25.322920 16.562500 24.656250 C15.979164 25.322920 15.213546 25.656250 14.265625 25.656250 Z M16.562500 23.468750 C15.979164 23.468750 15.414065 23.312502 14.867188 23.000000 C14.320310 22.687498 14.046875 22.307294 14.046875 21.859375 C14.046875 21.463540 14.270831 21.158855 14.718750 20.945312 C15.166669 20.731770 15.781246 20.625000 16.562500 20.625000 C17.343754 20.625000 17.958331 20.731770 18.406250 20.945312 C18.854169 21.158855 19.078125 21.463540 19.078125 21.859375 C19.078125 22.307294 18.804690 22.687498 18.257812 23.000000 C17.710935 23.312502 17.145836 23.468750 16.562500 23.468750 Z M10.765625 17.671875 C10.390623 17.671875 10.072918 17.494793 9.812500 17.140625 C9.552082 16.786457 9.421875 16.354169 9.421875 15.843750 C9.421875 15.343748 9.552082 14.916668 9.812500 14.562500 C10.072918 14.208332 10.390623 14.031250 10.765625 14.031250 C11.130210 14.031250 11.442707 14.208332 11.703125 14.562500 C11.963543 14.916668 12.093750 15.343748 12.093750 15.843750 C12.093750 16.354169 11.963543 16.786457 11.703125 17.140625 C11.442707 17.494793 11.130210 17.671875 10.765625 17.671875 Z M12.578125 29.531250 C12.973960 29.531250 13.458330 29.479167 14.031250 29.375000 C14.604170 29.270833 15.026040 29.156251 15.296875 29.031250 L17.812500 29.031250 C18.093751 29.156251 18.523435 29.270833 19.101562 29.375000 C19.679690 29.479167 20.161456 29.531250 20.546875 29.531250 C21.213545 29.531250 21.791664 29.348960 22.281250 28.984375 C22.770836 28.619790 23.151040 28.109378 23.421875 27.453125 C23.692710 26.796872 23.828125 26.041671 23.828125 25.187500 C23.828125 24.072911 23.552086 23.065109 23.000000 22.164062 C22.447914 21.263016 21.604172 20.500003 20.468750 19.875000 L18.265625 18.656250 L18.265625 13.031250 C18.265625 11.791660 18.143230 10.937502 17.898438 10.468750 C17.653645 9.999998 17.208337 9.765625 16.562500 9.765625 C15.916663 9.765625 15.471355 9.999998 15.226562 10.468750 C14.981770 10.937502 14.859375 11.791660 14.859375 13.031250 L14.859375 18.656250 L12.656250 19.875000 C11.520828 20.500003 10.677086 21.260412 10.125000 22.156250 C9.572914 23.052088 9.296875 24.062494 9.296875 25.187500 C9.296875 26.041671 9.432290 26.796872 9.703125 27.453125 C9.973960 28.109378 10.354164 28.619790 10.843750 28.984375 C11.333336 29.348960 11.911455 29.531250 12.578125 29.531250 Z M9.015625 29.218750 C8.619790 28.697914 8.307293 28.091149 8.078125 27.398438 C7.848957 26.705726 7.734375 25.968754 7.734375 25.187500 C7.734375 23.843743 8.083330 22.622401 8.781250 21.523438 C9.479170 20.424474 10.499993 19.468754 11.843750 18.656250 L13.296875 17.781250 L13.296875 13.031250 C13.296875 9.916651 14.385406 8.359375 16.562500 8.359375 C18.739594 8.359375 19.828125 9.916651 19.828125 13.031250 L19.828125 17.781250 L21.281250 18.656250 C22.625007 19.468754 23.645830 20.429682 24.343750 21.539062 C25.041670 22.648443 25.390625 23.864577 25.390625 25.187500 C25.390625 25.968754 25.273439 26.705726 25.039062 27.398438 C24.804686 28.091149 24.484377 28.703122 24.078125 29.234375 C25.296881 28.921873 26.341141 28.395837 27.210938 27.656250 C28.080734 26.916663 28.749998 25.992193 29.218750 24.882812 C29.687502 23.773432 29.921875 22.515632 29.921875 21.109375 C29.921875 19.734368 29.645836 18.296882 29.093750 16.796875 C28.541664 15.296868 27.796880 13.838549 26.859375 12.421875 C25.921870 11.005201 24.869798 9.729172 23.703125 8.593750 C22.536452 7.458328 21.338548 6.552087 20.109375 5.875000 C18.880202 5.197913 17.697922 4.859375 16.562500 4.859375 C15.427078 4.859375 14.244798 5.197913 13.015625 5.875000 C11.786452 6.552087 10.588548 7.458328 9.421875 8.593750 C8.255202 9.729172 7.203130 11.005201 6.265625 12.421875 C5.328120 13.838549 4.583336 15.296868 4.031250 16.796875 C3.479164 18.296882 3.203125 19.734368 3.203125 21.109375 C3.203125 22.515632 3.434894 23.773432 3.898438 24.882812 C4.361981 25.992193 5.028641 26.914059 5.898438 27.648438 C6.768234 28.382816 7.807286 28.906248 9.015625 29.218750 Z M5.468750 12.000000 C4.531245 11.802082 3.687504 11.419274 2.937500 10.851562 C2.187496 10.283851 1.593752 9.583337 1.156250 8.750000 C0.718748 7.916663 0.500000 7.020838 0.500000 6.062500 C0.500000 4.958328 0.783851 3.947921 1.351562 3.031250 C1.919274 2.114579 2.674474 1.380211 3.617188 0.828125 C4.559901 0.276039 5.593744 -0.000000 6.718750 -0.000000 C7.666671 -0.000000 8.559892 0.205727 9.398438 0.617188 C10.236983 1.028648 10.955726 1.588538 11.554688 2.296875 C12.153649 3.005212 12.562499 3.807287 12.781250 4.703125 L11.093750 5.453125 C10.864582 4.432287 10.380212 3.554691 9.640625 2.820312 C8.901038 2.085934 7.927089 1.718750 6.718750 1.718750 C5.895829 1.718750 5.156253 1.908852 4.500000 2.289062 C3.843747 2.669273 3.325523 3.184893 2.945312 3.835938 C2.565102 4.486982 2.375000 5.229162 2.375000 6.062500 C2.375000 7.208339 2.731767 8.182288 3.445312 8.984375 C4.158858 9.786462 5.067703 10.249999 6.171875 10.375000 Z M6.718750 8.406250 C6.072913 8.406250 5.520836 8.177086 5.062500 7.718750 C4.604164 7.260414 4.375000 6.708337 4.375000 6.062500 C4.375000 5.416663 4.604164 4.864586 5.062500 4.406250 C5.520836 3.947914 6.072913 3.718750 6.718750 3.718750 C7.364587 3.718750 7.916664 3.947914 8.375000 4.406250 C8.833336 4.864586 9.062500 5.416663 9.062500 6.062500 C9.062500 6.708337 8.833336 7.260414 8.375000 7.718750 C7.916664 8.177086 7.364587 8.406250 6.718750 8.406250 Z M30.125000 30.343750 C29.718748 29.812497 29.234378 29.281253 28.671875 28.750000 C28.109372 28.218747 27.463545 27.687503 26.734375 27.156250 L27.671875 25.906250 C28.442712 26.468753 29.140622 27.041664 29.765625 27.625000 C30.390628 28.208336 30.927081 28.791664 31.375000 29.375000 Z M32.125000 26.921875 C31.114578 26.078121 30.179692 25.408857 29.320312 24.914062 C28.460933 24.419268 27.614588 24.062501 26.781250 23.843750 L27.156250 22.343750 C28.093755 22.572918 29.052078 22.966143 30.031250 23.523438 C31.010422 24.080732 32.041661 24.817704 33.125000 25.734375 Z M22.359375 17.671875 C21.994790 17.671875 21.682293 17.494793 21.421875 17.140625 C21.161457 16.786457 21.031250 16.354169 21.031250 15.843750 C21.031250 15.343748 21.161457 14.916668 21.421875 14.562500 C21.682293 14.208332 21.994790 14.031250 22.359375 14.031250 C22.734377 14.031250 23.052082 14.208332 23.312500 14.562500 C23.572918 14.916668 23.703125 15.343748 23.703125 15.843750 C23.703125 16.354169 23.572918 16.786457 23.312500 17.140625 C23.052082 17.494793 22.734377 17.671875 22.359375 17.671875 Z M26.406250 8.406250 C25.760413 8.406250 25.208336 8.177086 24.750000 7.718750 C24.291664 7.260414 24.062500 6.708337 24.062500 6.062500 C24.062500 5.416663 24.291664 4.864586 24.750000 4.406250 C25.208336 3.947914 25.760413 3.718750 26.406250 3.718750 C27.052087 3.718750 27.604164 3.947914 28.062500 4.406250 C28.520836 4.864586 28.750000 5.416663 28.750000 6.062500 C28.750000 6.708337 28.520836 7.260414 28.062500 7.718750 C27.604164 8.177086 27.052087 8.406250 26.406250 8.406250 Z M27.656250 12.000000 L26.953125 10.375000 C28.057297 10.249999 28.966142 9.786462 29.679688 8.984375 C30.393233 8.182288 30.750000 7.208339 30.750000 6.062500 C30.750000 5.229162 30.559898 4.486982 30.179688 3.835938 C29.799477 3.184893 29.283857 2.669273 28.632812 2.289062 C27.981768 1.908852 27.239588 1.718750 26.406250 1.718750 C25.218744 1.718750 24.252608 2.085934 23.507812 2.820312 C22.763017 3.554691 22.270835 4.432287 22.031250 5.453125 L20.343750 4.703125 C20.562501 3.807287 20.966143 3.005212 21.554688 2.296875 C22.143232 1.588538 22.856767 1.028648 23.695312 0.617188 C24.533858 0.205727 25.437495 -0.000000 26.406250 -0.000000 C27.541672 -0.000000 28.578120 0.276039 29.515625 0.828125 C30.453130 1.380211 31.205726 2.114579 31.773438 3.031250 C32.341149 3.947921 32.625000 4.958328 32.625000 6.062500 C32.625000 7.020838 32.406252 7.916663 31.968750 8.750000 C31.531248 9.583337 30.937504 10.283851 30.187500 10.851562 C29.437496 11.419274 28.593755 11.802082 27.656250 12.000000 Z M36.875000 26.562500" /></svg>