<svg version="1.1" xmlns="http://www.w3.org/2000/svg" style="fill:rgba(0,0,0,1.0)" width="256" height="256" viewBox="0 0 32.96875 32.8125"><path fill="rgb(255, 255, 255)" d="M17.187500 32.812500 C15.635409 32.812500 14.049487 32.580731 12.429688 32.117188 C10.809888 31.653644 9.260424 31.026046 7.781250 30.234375 C6.302076 29.442704 4.976568 28.549484 3.804688 27.554688 C2.632807 26.559891 1.705733 25.523443 1.023438 24.445312 C0.341142 23.367182 0.000000 22.317713 0.000000 21.296875 C0.000000 20.359370 0.236977 19.244798 0.710938 17.953125 C1.184898 16.661452 1.825517 15.289070 2.632812 13.835938 C3.440108 12.382805 4.338537 10.947924 5.328125 9.531250 L6.031250 8.531250 C7.302090 6.729158 8.369787 5.265631 9.234375 4.140625 C10.098963 3.015619 10.830726 2.153649 11.429688 1.554688 C12.028649 0.955726 12.565102 0.546876 13.039062 0.328125 C13.513023 0.109374 13.999998 -0.000000 14.500000 -0.000000 C15.500005 -0.000000 16.304684 0.309893 16.914062 0.929688 C17.523441 1.549482 17.828125 2.291662 17.828125 3.156250 C17.828125 3.833337 17.653648 4.497393 17.304688 5.148438 C16.955727 5.799482 16.533857 6.466142 16.039062 7.148438 C15.544268 7.830733 15.072919 8.567704 14.625000 9.359375 L8.734375 19.906250 L7.156250 19.046875 L13.015625 8.546875 C13.484377 7.713537 13.942706 6.976566 14.390625 6.335938 C14.838544 5.695309 15.210936 5.117190 15.507812 4.601562 C15.804689 4.085935 15.953125 3.604169 15.953125 3.156250 C15.953125 2.749998 15.817710 2.408856 15.546875 2.132812 C15.276040 1.856769 14.927085 1.718750 14.500000 1.718750 C14.145832 1.718750 13.781252 1.833332 13.406250 2.062500 C13.031248 2.291668 12.593752 2.695310 12.093750 3.273438 C11.593748 3.851565 10.973962 4.653641 10.234375 5.679688 C9.494788 6.705734 8.578130 8.010409 7.484375 9.593750 L6.781250 10.609375 C5.874995 11.921882 5.049483 13.249993 4.304688 14.593750 C3.559892 15.937507 2.968752 17.190098 2.531250 18.351562 C2.093748 19.513027 1.875000 20.494788 1.875000 21.296875 C1.875000 22.130212 2.187497 22.999995 2.812500 23.906250 C3.437503 24.812505 4.278641 25.692704 5.335938 26.546875 C6.393234 27.401046 7.585931 28.169267 8.914062 28.851562 C10.242194 29.533858 11.619785 30.078123 13.046875 30.484375 C14.473965 30.890627 15.854160 31.093750 17.187500 31.093750 C18.510423 31.093750 19.559892 30.856773 20.335938 30.382812 C21.111983 29.908852 21.635415 29.156255 21.906250 28.125000 L23.125000 23.562500 C23.375001 22.635412 23.500000 21.848962 23.500000 21.203125 C23.500000 20.432288 23.330731 19.854169 22.992188 19.468750 C22.653644 19.083331 22.161462 18.890625 21.515625 18.890625 L21.234375 18.890625 L21.140625 17.171875 L21.484375 17.171875 C22.692714 17.171875 23.632809 17.531246 24.304688 18.250000 C24.976566 18.968754 25.312500 19.937494 25.312500 21.156250 C25.312500 21.614586 25.276042 22.067706 25.203125 22.515625 C25.130208 22.963544 25.031251 23.421873 24.906250 23.890625 L23.546875 28.906250 C23.182290 30.260423 22.455735 31.249997 21.367188 31.875000 C20.278640 32.500003 18.885425 32.812500 17.187500 32.812500 Z M14.671875 22.640625 L13.093750 21.953125 L14.312500 19.156250 C14.802086 18.020828 15.151041 17.080733 15.359375 16.335938 C15.567709 15.591142 15.671875 14.916670 15.671875 14.312500 C15.671875 13.718747 15.463544 13.216148 15.046875 12.804688 C14.630206 12.393227 14.125003 12.187500 13.531250 12.187500 C13.354166 12.187500 13.130210 12.234375 12.859375 12.328125 L12.296875 10.703125 C12.526043 10.619791 12.739582 10.559896 12.937500 10.523438 C13.135418 10.486979 13.333332 10.468750 13.531250 10.468750 C14.250004 10.468750 14.914059 10.640623 15.523438 10.984375 C16.132816 11.328127 16.622394 11.789060 16.992188 12.367188 C17.361981 12.945315 17.546875 13.593746 17.546875 14.312500 C17.546875 15.031254 17.403647 15.828121 17.117188 16.703125 C16.830728 17.578129 16.421878 18.624994 15.890625 19.843750 Z M20.000000 24.968750 L18.375000 24.375000 L19.250000 22.031250 C19.677085 20.874994 19.973958 19.976566 20.140625 19.335938 C20.307292 18.695309 20.390625 18.135419 20.390625 17.656250 C20.390625 16.999997 20.158856 16.442711 19.695312 15.984375 C19.231769 15.526039 18.666670 15.296875 18.000000 15.296875 C17.593748 15.296875 17.229168 15.380208 16.906250 15.546875 L16.093750 14.046875 C16.666670 13.734373 17.302080 13.578125 18.000000 13.578125 C18.760420 13.578125 19.463538 13.760415 20.109375 14.125000 C20.755212 14.489585 21.276040 14.979164 21.671875 15.593750 C22.067710 16.208336 22.265625 16.895830 22.265625 17.656250 C22.265625 18.239586 22.148439 18.906246 21.914062 19.656250 C21.679686 20.406254 21.333336 21.395827 20.875000 22.625000 Z M4.390625 11.250000 C4.255208 10.093744 4.078126 9.114587 3.859375 8.312500 C3.640624 7.510413 3.416668 6.822920 3.187500 6.250000 C2.958332 5.677080 2.765626 5.156252 2.609375 4.687500 C2.453124 4.218748 2.375000 3.744794 2.375000 3.265625 C2.375000 2.432288 2.697913 1.734378 3.343750 1.171875 C3.989587 0.609372 4.749996 0.328125 5.625000 0.328125 C6.520838 0.328125 7.377600 0.643226 8.195312 1.273438 C9.013025 1.903649 9.703122 2.760411 10.265625 3.843750 L9.000000 5.171875 C8.583331 4.223954 8.070316 3.466149 7.460938 2.898438 C6.851559 2.330726 6.239586 2.046875 5.625000 2.046875 C5.218748 2.046875 4.888022 2.158853 4.632812 2.382812 C4.377603 2.606772 4.250000 2.901040 4.250000 3.265625 C4.250000 3.598960 4.346353 4.013018 4.539062 4.507812 C4.731772 5.002607 4.958332 5.656246 5.218750 6.468750 C5.479168 7.281254 5.713541 8.343743 5.921875 9.656250 Z M32.968750 27.343750" /></svg>