<svg version="1.1" xmlns="http://www.w3.org/2000/svg" style="fill:rgba(0,0,0,1.0)" width="256" height="256" viewBox="0 0 30.0 32.8125"><path fill="rgb(255, 255, 255)" d="M14.531250 32.812500 L14.531250 -0.000000 L19.375000 -0.000000 L19.375000 32.812500 Z M16.093750 31.250000 L17.812500 31.250000 L17.812500 1.562500 L16.093750 1.562500 Z M3.281250 29.562500 L3.281250 25.484375 L16.093750 25.484375 L16.093750 29.562500 Z M4.843750 28.000000 L14.531250 28.000000 L14.531250 27.046875 L4.843750 27.046875 Z M0.000000 32.796875 L0.000000 -0.000000 L4.843750 -0.000000 L4.843750 32.796875 Z M1.562500 31.234375 L3.281250 31.234375 L3.281250 1.562500 L1.562500 1.562500 Z M3.281250 22.125000 L3.281250 18.046875 L16.093750 18.046875 L16.093750 22.125000 Z M4.843750 20.562500 L14.531250 20.562500 L14.531250 19.609375 L4.843750 19.609375 Z M3.281250 3.250000 L16.093750 3.250000 L16.093750 7.328125 L3.281250 7.328125 Z M4.843750 4.812500 L4.843750 5.765625 L14.531250 5.765625 L14.531250 4.812500 Z M3.281250 10.687500 L16.093750 10.687500 L16.093750 14.765625 L3.281250 14.765625 Z M4.843750 12.250000 L4.843750 13.203125 L14.531250 13.203125 L14.531250 12.250000 Z M30.000000 27.343750" /></svg>