<svg version="1.1" xmlns="http://www.w3.org/2000/svg" style="fill:rgba(0,0,0,1.0)" width="256" height="256" viewBox="0 0 34.1875 33.09375"><path fill="rgb(255, 255, 255)" d="M13.875000 33.093750 C12.020824 33.093750 10.278654 32.744795 8.648438 32.046875 C7.018221 31.348955 5.583340 30.380215 4.343750 29.140625 C3.104160 27.901035 2.135420 26.466154 1.437500 24.835938 C0.739580 23.205721 0.390625 21.463551 0.390625 19.609375 C0.390625 17.744782 0.739580 16.000008 1.437500 14.375000 C2.135420 12.749992 3.104160 11.317715 4.343750 10.078125 C5.583340 8.838535 7.018221 7.869795 8.648438 7.171875 C10.278654 6.473955 12.020824 6.125000 13.875000 6.125000 C15.739593 6.125000 17.484367 6.473955 19.109375 7.171875 C20.734383 7.869795 22.166660 8.838535 23.406250 10.078125 C24.645840 11.317715 25.614580 12.749992 26.312500 14.375000 C27.010420 16.000008 27.359375 17.744782 27.359375 19.609375 C27.359375 21.463551 27.010420 23.205721 26.312500 24.835938 C25.614580 26.466154 24.645840 27.901035 23.406250 29.140625 C22.166660 30.380215 20.734383 31.348955 19.109375 32.046875 C17.484367 32.744795 15.739593 33.093750 13.875000 33.093750 Z M13.875000 28.656250 C13.208330 28.656250 12.565107 28.572918 11.945312 28.406250 C11.325518 28.239582 10.708336 27.994793 10.093750 27.671875 L10.859375 26.125000 C11.390628 26.406251 11.890623 26.611979 12.359375 26.742188 C12.828127 26.872396 13.333331 26.937500 13.875000 26.937500 C14.427086 26.937500 14.934894 26.872396 15.398438 26.742188 C15.861981 26.611979 16.359372 26.406251 16.890625 26.125000 L17.656250 27.671875 C17.052080 27.994793 16.437503 28.239582 15.812500 28.406250 C15.187497 28.572918 14.541670 28.656250 13.875000 28.656250 Z M9.062500 23.796875 C8.177079 23.796875 7.442711 23.484378 6.859375 22.859375 C6.276039 22.234372 5.901042 21.520837 5.734375 20.718750 L7.406250 20.296875 C7.520834 20.869795 7.713540 21.309894 7.984375 21.617188 C8.255210 21.924481 8.614581 22.078125 9.062500 22.078125 C9.510419 22.078125 9.869790 21.924481 10.140625 21.617188 C10.411460 21.309894 10.604166 20.869795 10.718750 20.296875 L12.390625 20.718750 C12.223958 21.520837 11.851565 22.234372 11.273438 22.859375 C10.695310 23.484378 9.958338 23.796875 9.062500 23.796875 Z M13.875000 31.375000 C15.531258 31.375000 17.070305 31.075524 18.492188 30.476562 C19.914070 29.877601 21.161453 29.041672 22.234375 27.968750 C23.307297 26.895828 24.143226 25.648445 24.742188 24.226562 C25.341149 22.804680 25.640625 21.265633 25.640625 19.609375 C25.640625 17.953117 25.341149 16.414070 24.742188 14.992188 C24.143226 13.570305 23.307297 12.322922 22.234375 11.250000 C21.161453 10.177078 19.914070 9.341149 18.492188 8.742188 C17.070305 8.143226 15.531258 7.843750 13.875000 7.843750 C12.218742 7.843750 10.679695 8.143226 9.257812 8.742188 C7.835930 9.341149 6.588547 10.177078 5.515625 11.250000 C4.442703 12.322922 3.606774 13.570305 3.007812 14.992188 C2.408851 16.414070 2.109375 17.953117 2.109375 19.609375 C2.109375 21.265633 2.408851 22.804680 3.007812 24.226562 C3.606774 25.648445 4.442703 26.895828 5.515625 27.968750 C6.588547 29.041672 7.835930 29.877601 9.257812 30.476562 C10.679695 31.075524 12.218742 31.375000 13.875000 31.375000 Z M4.312500 8.046875 L3.093750 9.156250 L0.000000 5.718750 L1.203125 4.640625 Z M18.687500 23.796875 C17.802079 23.796875 17.067711 23.484378 16.484375 22.859375 C15.901039 22.234372 15.526042 21.520837 15.359375 20.718750 L17.031250 20.296875 C17.145834 20.869795 17.338540 21.309894 17.609375 21.617188 C17.880210 21.924481 18.239581 22.078125 18.687500 22.078125 C19.135419 22.078125 19.494790 21.924481 19.765625 21.617188 C20.036460 21.309894 20.229166 20.869795 20.343750 20.296875 L22.015625 20.718750 C21.848958 21.520837 21.476565 22.234372 20.898438 22.859375 C20.320310 23.484378 19.583338 23.796875 18.687500 23.796875 Z M10.984375 4.875000 L9.375000 5.234375 L8.343750 0.328125 L9.953125 -0.000000 Z M19.406250 0.328125 L18.375000 5.234375 L16.765625 4.875000 L17.796875 -0.000000 Z M27.750000 5.718750 L24.656250 9.156250 L23.437500 8.046875 L26.546875 4.640625 Z M34.187500 27.515625" /></svg>