<svg version="1.1" xmlns="http://www.w3.org/2000/svg" style="fill:rgba(0,0,0,1.0)" width="256" height="256" viewBox="0 0 35.390625 32.8125"><path fill="rgb(255, 255, 255)" d="M2.765625 17.312500 C1.911454 17.312500 1.236982 17.020836 0.742188 16.437500 C0.247393 15.854164 0.000000 15.119796 0.000000 14.234375 C0.000000 12.182281 0.372392 10.289071 1.117188 8.554688 C1.861983 6.820304 2.911452 5.312506 4.265625 4.031250 C5.619798 2.749994 7.213532 1.757816 9.046875 1.054688 C10.880218 0.351559 12.890614 -0.000000 15.078125 -0.000000 C17.265636 -0.000000 19.276032 0.351559 21.109375 1.054688 C22.942718 1.757816 24.536452 2.749994 25.890625 4.031250 C27.244798 5.312506 28.294267 6.820304 29.039062 8.554688 C29.783858 10.289071 30.156250 12.182281 30.156250 14.234375 C30.156250 15.119796 29.911461 15.854164 29.421875 16.437500 C28.932289 17.020836 28.255213 17.312500 27.390625 17.312500 C26.442704 17.312500 25.677086 17.046878 25.093750 16.515625 C24.510414 15.984372 24.182292 15.182297 24.109375 14.109375 C24.005208 12.505200 23.546879 11.114589 22.734375 9.937500 C21.921871 8.760411 20.851569 7.851566 19.523438 7.210938 C18.195306 6.570309 16.713550 6.250000 15.078125 6.250000 C13.442700 6.250000 11.963548 6.570309 10.640625 7.210938 C9.317702 7.851566 8.247400 8.760411 7.429688 9.937500 C6.611975 11.114589 6.151042 12.505200 6.046875 14.109375 C5.973958 15.182297 5.648440 15.984372 5.070312 16.515625 C4.492185 17.046878 3.723963 17.312500 2.765625 17.312500 Z M3.421875 28.937500 C2.557287 28.937500 1.908856 28.645836 1.476562 28.062500 C1.044269 27.479164 0.828125 26.791671 0.828125 26.000000 C0.828125 25.385414 0.963540 24.820315 1.234375 24.304688 C1.505210 23.789060 1.927080 23.479167 2.500000 23.375000 C2.520833 23.697918 2.562500 24.124997 2.625000 24.656250 C2.687500 25.187503 2.765625 25.742185 2.859375 26.320312 C2.953125 26.898440 3.049479 27.424477 3.148438 27.898438 C3.247396 28.372398 3.338541 28.718749 3.421875 28.937500 Z M8.015625 31.578125 C7.463539 31.130206 6.963544 30.377609 6.515625 29.320312 C6.067706 28.263016 5.713543 27.065111 5.453125 25.726562 C5.192707 24.388014 5.062500 23.072923 5.062500 21.781250 C5.062500 21.135413 5.098958 20.515628 5.171875 19.921875 C5.244792 19.328122 5.359374 18.786461 5.515625 18.296875 L7.234375 18.296875 C7.109374 18.744794 7.018229 19.229164 6.960938 19.750000 C6.903646 20.270836 6.875000 20.812497 6.875000 21.375000 C6.875000 22.635423 7.005207 23.934889 7.265625 25.273438 C7.526043 26.611986 7.872394 27.838536 8.304688 28.953125 C8.736981 30.067714 9.213539 30.921872 9.734375 31.515625 Z M2.000000 23.703125 C1.937500 22.984371 1.882813 22.179692 1.835938 21.289062 C1.789062 20.398433 1.752604 19.505213 1.726562 18.609375 C1.700521 17.713537 1.687500 16.906254 1.687500 16.187500 L3.515625 16.187500 C3.515625 16.739586 3.526042 17.377601 3.546875 18.101562 C3.567708 18.825524 3.593750 19.546871 3.625000 20.265625 C3.656250 20.984379 3.687500 21.619789 3.718750 22.171875 Z M8.890625 31.171875 C9.067709 31.171875 9.239582 31.164063 9.406250 31.148438 C9.572917 31.132812 9.739582 31.109375 9.906250 31.078125 L11.437500 30.812500 C11.614584 30.541665 11.726562 30.132815 11.773438 29.585938 C11.820313 29.039060 11.843750 28.604168 11.843750 28.281250 C11.843750 27.062494 11.734376 25.846360 11.515625 24.632812 C11.296874 23.419265 10.981773 22.291672 10.570312 21.250000 C10.158852 20.208328 9.656253 19.348962 9.062500 18.671875 L7.546875 18.921875 C6.776038 19.046876 6.091149 19.385414 5.492188 19.937500 C4.893226 20.489586 4.424481 21.177079 4.085938 22.000000 C3.747394 22.822921 3.578125 23.718745 3.578125 24.687500 C3.578125 25.854172 3.778644 26.929683 4.179688 27.914062 C4.580731 28.898442 5.177079 29.687497 5.968750 30.281250 C6.760421 30.875003 7.734369 31.171875 8.890625 31.171875 Z M9.187500 32.812500 C7.604159 32.812500 6.268235 32.466149 5.179688 31.773438 C4.091140 31.080726 3.270836 30.122402 2.718750 28.898438 C2.166664 27.674473 1.890625 26.270841 1.890625 24.687500 C1.890625 23.677078 2.062498 22.648443 2.406250 21.601562 C2.750002 20.554682 3.278642 19.638025 3.992188 18.851562 C4.705733 18.065100 5.609370 17.572918 6.703125 17.375000 L8.546875 17.031250 C9.151045 16.916666 9.692706 17.059894 10.171875 17.460938 C10.651044 17.861981 11.075519 18.424476 11.445312 19.148438 C11.815106 19.872399 12.130207 20.679683 12.390625 21.570312 C12.651043 22.460942 12.864583 23.348954 13.031250 24.234375 C13.197918 25.119796 13.320312 25.921871 13.398438 26.640625 C13.476563 27.359379 13.515625 27.906248 13.515625 28.281250 C13.515625 28.760419 13.486979 29.309893 13.429688 29.929688 C13.372396 30.549482 13.216147 31.104164 12.960938 31.593750 C12.705728 32.083336 12.276045 32.380208 11.671875 32.484375 L10.125000 32.750000 C9.989583 32.770833 9.843751 32.786458 9.687500 32.796875 C9.531249 32.807292 9.364584 32.812500 9.187500 32.812500 Z M11.750000 31.578125 C11.458332 31.578125 11.138023 31.286461 10.789062 30.703125 C10.440102 30.119789 10.106772 29.330734 9.789062 28.335938 C9.471353 27.341141 9.203126 26.229173 8.984375 25.000000 C8.848958 24.208329 8.744792 23.450524 8.671875 22.726562 C8.598958 22.002601 8.562500 21.338545 8.562500 20.734375 C8.562500 20.296873 8.588541 19.848961 8.640625 19.390625 C8.692709 18.932289 8.781249 18.544272 8.906250 18.226562 C9.031251 17.908853 9.208332 17.750000 9.437500 17.750000 C9.729168 17.750000 10.046873 18.041664 10.390625 18.625000 C10.734377 19.208336 11.067707 19.997391 11.390625 20.992188 C11.713543 21.986984 11.984374 23.098952 12.203125 24.328125 C12.317709 24.942711 12.414062 25.651038 12.492188 26.453125 C12.570313 27.255212 12.609375 28.020830 12.609375 28.750000 C12.609375 29.541671 12.546876 30.210935 12.421875 30.757812 C12.296874 31.304690 12.072918 31.578125 11.750000 31.578125 Z M18.406250 31.578125 C18.083332 31.578125 17.859376 31.304690 17.734375 30.757812 C17.609374 30.210935 17.546875 29.541671 17.546875 28.750000 C17.546875 28.020830 17.588541 27.255212 17.671875 26.453125 C17.755209 25.651038 17.848958 24.942711 17.953125 24.328125 C18.171876 23.098952 18.442707 21.986984 18.765625 20.992188 C19.088543 19.997391 19.421873 19.208336 19.765625 18.625000 C20.109377 18.041664 20.427082 17.750000 20.718750 17.750000 C20.947918 17.750000 21.124999 17.908853 21.250000 18.226562 C21.375001 18.544272 21.463541 18.932289 21.515625 19.390625 C21.567709 19.848961 21.593750 20.296873 21.593750 20.734375 C21.593750 21.338545 21.559896 22.002601 21.492188 22.726562 C21.424479 23.450524 21.317709 24.208329 21.171875 25.000000 C20.953124 26.229173 20.684897 27.341141 20.367188 28.335938 C20.049478 29.330734 19.718752 30.119789 19.375000 30.703125 C19.031248 31.286461 18.708335 31.578125 18.406250 31.578125 Z M22.140625 31.578125 L20.421875 31.515625 C20.942711 30.921872 21.419269 30.067714 21.851562 28.953125 C22.283856 27.838536 22.630207 26.611986 22.890625 25.273438 C23.151043 23.934889 23.281250 22.635423 23.281250 21.375000 C23.281250 20.812497 23.252604 20.270836 23.195312 19.750000 C23.138021 19.229164 23.046876 18.744794 22.921875 18.296875 L24.640625 18.296875 C24.796876 18.786461 24.911458 19.328122 24.984375 19.921875 C25.057292 20.515628 25.093750 21.135413 25.093750 21.781250 C25.093750 23.072923 24.963543 24.388014 24.703125 25.726562 C24.442707 27.065111 24.088544 28.263016 23.640625 29.320312 C23.192706 30.377609 22.692711 31.130206 22.140625 31.578125 Z M21.265625 31.171875 C22.432298 31.171875 23.408850 30.875003 24.195312 30.281250 C24.981775 29.687497 25.575519 28.898442 25.976562 27.914062 C26.377606 26.929683 26.578125 25.854172 26.578125 24.687500 C26.578125 23.718745 26.408856 22.822921 26.070312 22.000000 C25.731769 21.177079 25.265628 20.489586 24.671875 19.937500 C24.078122 19.385414 23.390629 19.046876 22.609375 18.921875 L21.093750 18.671875 C20.510414 19.348962 20.010419 20.208328 19.593750 21.250000 C19.177081 22.291672 18.859376 23.419265 18.640625 24.632812 C18.421874 25.846360 18.312500 27.062494 18.312500 28.281250 C18.312500 28.604168 18.335937 29.039060 18.382812 29.585938 C18.429688 30.132815 18.541666 30.541665 18.718750 30.812500 L20.250000 31.078125 C20.416668 31.109375 20.585937 31.132812 20.757812 31.148438 C20.929688 31.164063 21.098958 31.171875 21.265625 31.171875 Z M20.968750 32.812500 C20.802082 32.812500 20.640626 32.807292 20.484375 32.796875 C20.328124 32.786458 20.177084 32.770833 20.031250 32.750000 L18.484375 32.484375 C17.890622 32.380208 17.463543 32.083336 17.203125 31.593750 C16.942707 31.104164 16.783854 30.549482 16.726562 29.929688 C16.669271 29.309893 16.640625 28.760419 16.640625 28.281250 C16.640625 27.906248 16.679687 27.359379 16.757812 26.640625 C16.835938 25.921871 16.958332 25.119796 17.125000 24.234375 C17.291668 23.348954 17.505207 22.460942 17.765625 21.570312 C18.026043 20.679683 18.341144 19.872399 18.710938 19.148438 C19.080731 18.424476 19.505206 17.861981 19.984375 17.460938 C20.463544 17.059894 21.005205 16.916666 21.609375 17.031250 L23.453125 17.375000 C24.546880 17.572918 25.450517 18.065100 26.164062 18.851562 C26.877608 19.638025 27.406248 20.554682 27.750000 21.601562 C28.093752 22.648443 28.265625 23.677078 28.265625 24.687500 C28.265625 26.270841 27.989586 27.674473 27.437500 28.898438 C26.885414 30.122402 26.067714 31.080726 24.984375 31.773438 C23.901036 32.466149 22.562508 32.812500 20.968750 32.812500 Z M26.734375 28.937500 C26.817709 28.718749 26.908854 28.372398 27.007812 27.898438 C27.106771 27.424477 27.203125 26.898440 27.296875 26.320312 C27.390625 25.742185 27.468750 25.187503 27.531250 24.656250 C27.593750 24.124997 27.635417 23.697918 27.656250 23.375000 C28.229170 23.479167 28.651040 23.789060 28.921875 24.304688 C29.192710 24.820315 29.328125 25.385414 29.328125 26.000000 C29.328125 26.791671 29.111981 27.479164 28.679688 28.062500 C28.247394 28.645836 27.598963 28.937500 26.734375 28.937500 Z M2.921875 15.640625 C3.432294 15.640625 3.760416 15.523439 3.906250 15.289062 C4.052084 15.054686 4.140625 14.661461 4.171875 14.109375 C4.255209 12.546867 4.609372 11.164069 5.234375 9.960938 C5.859378 8.757806 6.679682 7.739587 7.695312 6.906250 C8.710943 6.072913 9.854160 5.442710 11.125000 5.015625 C12.395840 4.588540 13.713535 4.375000 15.078125 4.375000 C16.442715 4.375000 17.760410 4.588540 19.031250 5.015625 C20.302090 5.442710 21.445307 6.072913 22.460938 6.906250 C23.476568 7.739587 24.299476 8.757806 24.929688 9.960938 C25.559899 11.164069 25.911458 12.546867 25.984375 14.109375 C26.015625 14.661461 26.104166 15.054686 26.250000 15.289062 C26.395834 15.523439 26.723956 15.640625 27.234375 15.640625 C27.703127 15.640625 28.028645 15.505210 28.210938 15.234375 C28.393230 14.963540 28.484375 14.625002 28.484375 14.218750 C28.484375 12.395824 28.156253 10.731778 27.500000 9.226562 C26.843747 7.721347 25.914069 6.419276 24.710938 5.320312 C23.507806 4.221349 22.091154 3.372399 20.460938 2.773438 C18.830721 2.174476 17.036468 1.875000 15.078125 1.875000 C13.130199 1.875000 11.338550 2.174476 9.703125 2.773438 C8.067700 3.372399 6.648444 4.221349 5.445312 5.320312 C4.242181 6.419276 3.312503 7.721347 2.656250 9.226562 C1.999997 10.731778 1.671875 12.395824 1.671875 14.218750 C1.671875 14.625002 1.763020 14.963540 1.945312 15.234375 C2.127605 15.505210 2.453123 15.640625 2.921875 15.640625 Z M28.156250 23.703125 L26.437500 22.171875 C26.479167 21.619789 26.513021 20.984379 26.539062 20.265625 C26.565104 19.546871 26.588542 18.825524 26.609375 18.101562 C26.630208 17.377601 26.640625 16.739586 26.640625 16.187500 L28.468750 16.187500 C28.468750 16.906254 28.455729 17.713537 28.429688 18.609375 C28.403646 19.505213 28.367188 20.398433 28.320312 21.289062 C28.273437 22.179692 28.218750 22.984371 28.156250 23.703125 Z M35.390625 27.343750" /></svg>