<svg version="1.1" xmlns="http://www.w3.org/2000/svg" style="fill:rgba(0,0,0,1.0)" width="256" height="256" viewBox="0 0 34.1875 32.8125"><path fill="rgb(255, 255, 255)" d="M0.000000 32.812500 L0.000000 26.750000 L1.562500 26.750000 L1.562500 6.078125 L3.015625 6.078125 C3.744795 6.078125 4.255207 5.966147 4.546875 5.742188 C4.838543 5.518228 5.083332 5.125003 5.281250 4.562500 C5.812503 3.083326 6.627599 1.953129 7.726562 1.171875 C8.825526 0.390621 10.145826 -0.000000 11.687500 -0.000000 L16.062500 -0.000000 C17.593758 -0.000000 18.908849 0.382809 20.007812 1.148438 C21.106776 1.914066 21.911456 3.010410 22.421875 4.437500 C22.640626 5.052086 22.916665 5.479165 23.250000 5.718750 C23.583335 5.958335 24.078122 6.078125 24.734375 6.078125 L26.187500 6.078125 L26.187500 26.750000 L27.750000 26.750000 L27.750000 32.812500 Z M1.562500 31.250000 L4.375000 31.250000 L4.375000 28.312500 L1.562500 28.312500 Z M5.937500 31.250000 L26.187500 31.250000 L26.187500 28.312500 L5.937500 28.312500 Z M3.125000 26.750000 L5.937500 26.750000 L5.937500 7.640625 L3.125000 7.640625 Z M14.312500 17.500000 L12.843750 17.156250 L11.671875 17.437500 L11.046875 17.140625 L11.046875 15.953125 L11.734375 16.125000 L12.843750 15.875000 L14.156250 16.187500 L14.921875 15.953125 L14.921875 17.203125 Z M7.500000 26.750000 L24.625000 26.750000 L24.625000 7.640625 L24.531250 7.640625 C23.645829 7.640625 22.911461 7.427085 22.328125 7.000000 C21.744789 6.572915 21.286460 5.895838 20.953125 4.968750 C20.140621 2.697905 18.510429 1.562500 16.062500 1.562500 C13.635405 1.562500 11.989588 2.739572 11.125000 5.093750 C10.802082 5.968754 10.361982 6.611977 9.804688 7.023438 C9.247393 7.434898 8.505213 7.640625 7.578125 7.640625 L7.500000 7.640625 Z M18.687500 14.593750 L17.593750 14.359375 L15.890625 14.453125 L15.015625 14.250000 L13.046875 14.421875 L12.203125 14.296875 L12.234375 13.046875 L12.953125 13.171875 L15.109375 12.968750 L16.078125 13.203125 L17.687500 13.093750 L18.656250 13.312500 L19.859375 12.984375 L19.859375 14.265625 Z M20.343750 17.500000 L19.625000 17.343750 L18.812500 17.281250 L17.375000 17.406250 L17.375000 16.156250 L18.812500 16.031250 L19.812500 16.093750 L20.437500 16.250000 L21.390625 16.187500 L21.390625 17.421875 Z M6.281250 6.078125 L7.390625 6.078125 C8.098962 6.078125 8.604165 5.966147 8.906250 5.742188 C9.208335 5.518228 9.458332 5.125003 9.656250 4.562500 C9.885418 3.937497 10.164061 3.375003 10.492188 2.875000 C10.820314 2.374997 11.192706 1.937502 11.609375 1.562500 L11.468750 1.562500 C10.416661 1.562500 9.473962 1.859372 8.640625 2.453125 C7.807288 3.046878 7.177085 3.927077 6.750000 5.093750 C6.687500 5.270834 6.614584 5.442708 6.531250 5.609375 C6.447916 5.776042 6.364584 5.932291 6.281250 6.078125 Z M11.046875 11.718750 L11.046875 10.406250 L12.531250 10.046875 L14.515625 10.218750 L15.578125 9.968750 L16.593750 10.375000 L17.953125 10.015625 L19.250000 10.328125 L21.390625 10.109375 L21.390625 11.359375 L19.156250 11.609375 L17.953125 11.296875 L16.500000 11.687500 L15.484375 11.281250 L14.609375 11.468750 L12.625000 11.296875 Z M34.187500 27.343750" /></svg>