<svg version="1.1" xmlns="http://www.w3.org/2000/svg" style="fill:rgba(0,0,0,1.0)" width="256" height="256" viewBox="0 0 38.90625 26.5625"><path fill="rgb(255, 255, 255)" d="M35.546875 26.562500 C34.734371 25.614579 33.973962 24.848961 33.265625 24.265625 C32.557288 23.682289 31.770838 23.171877 30.906250 22.734375 L31.687500 21.203125 C32.333337 21.526043 32.958330 21.890623 33.562500 22.296875 C34.166670 22.703127 34.749997 23.177081 35.312500 23.718750 L35.312500 8.718750 L34.687500 7.843750 C34.374998 7.406248 34.072918 7.033856 33.781250 6.726562 C33.489582 6.419269 33.161460 6.140626 32.796875 5.890625 C31.744786 5.171871 30.679693 4.494795 29.601562 3.859375 C28.523432 3.223955 27.559900 2.708335 26.710938 2.312500 C25.861975 1.916665 25.250002 1.718750 24.875000 1.718750 C24.687499 1.718750 24.361981 1.830728 23.898438 2.054688 C23.434894 2.278647 22.937503 2.572915 22.406250 2.937500 C21.833330 3.322919 21.377606 3.687498 21.039062 4.031250 C20.700519 4.375002 20.489584 4.661457 20.406250 4.890625 C20.093748 5.807296 19.856772 6.705725 19.695312 7.585938 C19.533853 8.466150 19.453125 9.166664 19.453125 9.687500 C19.453125 10.322920 19.486979 10.713541 19.554688 10.859375 C19.622396 11.005209 19.729166 11.078125 19.875000 11.078125 C20.125001 11.078125 20.369790 10.919272 20.609375 10.601562 C20.848960 10.283853 21.192706 9.572922 21.640625 8.468750 C22.515629 7.822913 23.562494 7.500000 24.781250 7.500000 C25.635421 7.500000 26.416663 7.747393 27.125000 8.242188 C27.833337 8.736982 28.401040 9.398433 28.828125 10.226562 C29.255210 11.054692 29.468750 11.968745 29.468750 12.968750 C29.468750 14.343757 29.052088 15.549474 28.218750 16.585938 C27.385412 17.622401 26.036468 18.609370 24.171875 19.546875 L23.703125 19.781250 C22.609370 20.322919 21.763024 20.809894 21.164062 21.242188 C20.565101 21.674481 20.148439 22.093748 19.914062 22.500000 C19.679686 22.906252 19.562500 23.354164 19.562500 23.843750 C19.562500 24.093751 19.632812 24.294270 19.773438 24.445312 C19.914063 24.596355 20.062499 24.671875 20.218750 24.671875 C20.458335 24.671875 20.789060 24.513022 21.210938 24.195312 C21.632815 23.877603 22.164059 23.507815 22.804688 23.085938 C23.445316 22.664060 24.210933 22.294272 25.101562 21.976562 C25.992192 21.658853 27.031244 21.500000 28.218750 21.500000 C29.239588 21.500000 30.023435 21.453125 30.570312 21.359375 C31.117190 21.265625 31.539061 21.070314 31.835938 20.773438 C32.132814 20.476561 32.416665 20.031253 32.687500 19.437500 L34.250000 20.156250 C33.854165 21.010421 33.419273 21.656248 32.945312 22.093750 C32.471352 22.531252 31.864587 22.828124 31.125000 22.984375 C30.385413 23.140626 29.416673 23.218750 28.218750 23.218750 C27.052078 23.218750 26.085941 23.377603 25.320312 23.695312 C24.554684 24.013022 23.903649 24.382810 23.367188 24.804688 C22.830726 25.226565 22.322919 25.596353 21.843750 25.914062 C21.364581 26.231772 20.822920 26.390625 20.218750 26.390625 C19.572913 26.390625 19.041669 26.166669 18.625000 25.718750 C18.208331 25.270831 18.000000 24.645837 18.000000 23.843750 C18.000000 23.062496 18.153644 22.359378 18.460938 21.734375 C18.768231 21.109372 19.283851 20.507815 20.007812 19.929688 C20.731774 19.351560 21.713535 18.755211 22.953125 18.140625 L23.421875 17.906250 C24.932299 17.145830 26.005205 16.390629 26.640625 15.640625 C27.276045 14.890621 27.593750 14.000005 27.593750 12.968750 C27.593750 12.270830 27.468751 11.638024 27.218750 11.070312 C26.968749 10.502601 26.630210 10.052085 26.203125 9.718750 C25.776040 9.385415 25.302086 9.218750 24.781250 9.218750 C24.416665 9.218750 24.096356 9.250000 23.820312 9.312500 C23.544269 9.375000 23.281251 9.479166 23.031250 9.625000 C22.552081 10.739589 22.085940 11.546873 21.632812 12.046875 C21.179685 12.546878 20.593754 12.796875 19.875000 12.796875 C19.114580 12.796875 18.567710 12.528649 18.234375 11.992188 C17.901040 11.455726 17.734375 10.687505 17.734375 9.687500 C17.734375 8.999997 17.843749 8.153651 18.062500 7.148438 C18.281251 6.143224 18.520832 5.223962 18.781250 4.390625 C19.072918 3.473954 19.958326 2.520838 21.437500 1.531250 C22.145837 1.062498 22.799476 0.690106 23.398438 0.414062 C23.997399 0.138019 24.489581 -0.000000 24.875000 -0.000000 C25.218752 -0.000000 25.718747 0.122395 26.375000 0.367188 C27.031253 0.611980 27.773433 0.942706 28.601562 1.359375 C29.429692 1.776044 30.294266 2.252601 31.195312 2.789062 C32.096359 3.325524 32.963538 3.890622 33.796875 4.484375 C34.171877 4.744793 34.507811 5.015624 34.804688 5.296875 C35.101564 5.578126 35.432290 5.947914 35.796875 6.406250 C36.161460 6.864586 36.624997 7.505204 37.187500 8.328125 L37.187500 26.562500 Z M0.000000 26.562500 L0.000000 8.328125 C0.572920 7.505204 1.039061 6.864586 1.398438 6.406250 C1.757814 5.947914 2.085936 5.578126 2.382812 5.296875 C2.679689 5.015624 3.015623 4.744793 3.390625 4.484375 C4.223962 3.890622 5.091141 3.325524 5.992188 2.789062 C6.893234 2.252601 7.757808 1.776044 8.585938 1.359375 C9.414067 0.942706 10.156247 0.611980 10.812500 0.367188 C11.468753 0.122395 11.968748 -0.000000 12.312500 -0.000000 C12.708335 -0.000000 13.205726 0.138019 13.804688 0.414062 C14.403649 0.690106 15.052080 1.062498 15.750000 1.531250 C17.229174 2.520838 18.114582 3.473954 18.406250 4.390625 C18.677085 5.223962 18.919270 6.143224 19.132812 7.148438 C19.346355 8.153651 19.453125 8.999997 19.453125 9.687500 C19.453125 10.687505 19.289064 11.455726 18.960938 11.992188 C18.632811 12.528649 18.083337 12.796875 17.312500 12.796875 C16.593746 12.796875 16.010419 12.546878 15.562500 12.046875 C15.114581 11.546873 14.645836 10.739589 14.156250 9.625000 C13.906249 9.479166 13.643231 9.375000 13.367188 9.312500 C13.091144 9.250000 12.770835 9.218750 12.406250 9.218750 C11.885414 9.218750 11.411460 9.385415 10.984375 9.718750 C10.557290 10.052085 10.218751 10.502601 9.968750 11.070312 C9.718749 11.638024 9.593750 12.270830 9.593750 12.968750 C9.593750 14.000005 9.911455 14.890621 10.546875 15.640625 C11.182295 16.390629 12.255201 17.145830 13.765625 17.906250 L14.234375 18.140625 C15.484381 18.755211 16.468746 19.351560 17.187500 19.929688 C17.906254 20.507815 18.419269 21.109372 18.726562 21.734375 C19.033856 22.359378 19.187500 23.062496 19.187500 23.843750 C19.187500 24.645837 18.979169 25.270831 18.562500 25.718750 C18.145831 26.166669 17.614587 26.390625 16.968750 26.390625 C16.364580 26.390625 15.822919 26.231772 15.343750 25.914062 C14.864581 25.596353 14.356774 25.226565 13.820312 24.804688 C13.283851 24.382810 12.635420 24.013022 11.875000 23.695312 C11.114580 23.377603 10.145839 23.218750 8.968750 23.218750 C7.770827 23.218750 6.802087 23.140626 6.062500 22.984375 C5.322913 22.828124 4.716148 22.531252 4.242188 22.093750 C3.768227 21.656248 3.333335 21.010421 2.937500 20.156250 L4.500000 19.437500 C4.781251 20.031253 5.067707 20.476561 5.359375 20.773438 C5.651043 21.070314 6.070310 21.265625 6.617188 21.359375 C7.164065 21.453125 7.947912 21.500000 8.968750 21.500000 C10.156256 21.500000 11.195308 21.658853 12.085938 21.976562 C12.976567 22.294272 13.742184 22.664060 14.382812 23.085938 C15.023441 23.507815 15.554685 23.877603 15.976562 24.195312 C16.398440 24.513022 16.729165 24.671875 16.968750 24.671875 C17.125001 24.671875 17.273437 24.596355 17.414062 24.445312 C17.554688 24.294270 17.625000 24.093751 17.625000 23.843750 C17.625000 23.354164 17.507814 22.906252 17.273438 22.500000 C17.039061 22.093748 16.625003 21.674481 16.031250 21.242188 C15.437497 20.809894 14.588547 20.322919 13.484375 19.781250 L13.015625 19.546875 C11.161449 18.609370 9.815108 17.622401 8.976562 16.585938 C8.138017 15.549474 7.718750 14.343757 7.718750 12.968750 C7.718750 11.968745 7.932290 11.054692 8.359375 10.226562 C8.786460 9.398433 9.354163 8.736982 10.062500 8.242188 C10.770837 7.747393 11.552079 7.500000 12.406250 7.500000 C13.625006 7.500000 14.671871 7.822913 15.546875 8.468750 C16.005211 9.572922 16.351561 10.283853 16.585938 10.601562 C16.820314 10.919272 17.062499 11.078125 17.312500 11.078125 C17.458334 11.078125 17.565104 11.005209 17.632812 10.859375 C17.700521 10.713541 17.734375 10.322920 17.734375 9.687500 C17.734375 9.166664 17.653647 8.466150 17.492188 7.585938 C17.330728 6.705725 17.093752 5.807296 16.781250 4.890625 C16.708333 4.661457 16.500002 4.375002 16.156250 4.031250 C15.812498 3.687498 15.354170 3.322919 14.781250 2.937500 C14.249997 2.572915 13.752606 2.278647 13.289062 2.054688 C12.825519 1.830728 12.500001 1.718750 12.312500 1.718750 C11.947915 1.718750 11.341150 1.916665 10.492188 2.312500 C9.643225 2.708335 8.679693 3.223955 7.601562 3.859375 C6.523432 4.494795 5.453130 5.171871 4.390625 5.890625 C4.026040 6.140626 3.697918 6.419269 3.406250 6.726562 C3.114582 7.033856 2.812502 7.406248 2.500000 7.843750 L1.875000 8.718750 L1.875000 23.718750 C2.437503 23.177081 3.020830 22.703127 3.625000 22.296875 C4.229170 21.890623 4.854163 21.526043 5.500000 21.203125 L6.281250 22.734375 C5.416662 23.171877 4.630212 23.682289 3.921875 24.265625 C3.213538 24.848961 2.453129 25.614579 1.640625 26.562500 Z M17.765625 7.875000 L14.718750 5.625000 C13.833329 4.979163 13.031254 4.656250 12.312500 4.656250 C11.979165 4.656250 11.617189 4.718749 11.226562 4.843750 C10.835936 4.968751 10.442710 5.151040 10.046875 5.390625 L6.828125 7.312500 L6.015625 5.968750 L9.234375 4.046875 C10.286464 3.411455 11.312495 3.093750 12.312500 3.093750 C12.822919 3.093750 13.359372 3.197916 13.921875 3.406250 C14.484378 3.614584 15.062497 3.937498 15.656250 4.375000 L18.703125 6.625000 Z M19.421875 7.875000 L18.484375 6.625000 L21.531250 4.375000 C22.125003 3.937498 22.703122 3.614584 23.265625 3.406250 C23.828128 3.197916 24.364581 3.093750 24.875000 3.093750 C25.875005 3.093750 26.901036 3.411455 27.953125 4.046875 L31.171875 5.968750 L30.359375 7.312500 L27.140625 5.390625 C26.755206 5.151040 26.364585 4.968751 25.968750 4.843750 C25.572915 4.718749 25.208335 4.656250 24.875000 4.656250 C24.156246 4.656250 23.354171 4.979163 22.468750 5.625000 Z M38.906250 24.218750" /></svg>