<svg version="1.1" xmlns="http://www.w3.org/2000/svg" style="fill:rgba(0,0,0,1.0)" width="256" height="256" viewBox="0 0 39.765625 31.25"><path fill="rgb(255, 255, 255)" d="M7.562500 29.953125 C7.083331 29.953125 6.619794 29.875001 6.171875 29.718750 C5.723956 29.562499 5.356772 29.364585 5.070312 29.125000 C4.783853 28.885415 4.640625 28.635418 4.640625 28.375000 C4.640625 28.156249 4.781249 27.893231 5.062500 27.585938 C5.343751 27.278644 5.697915 26.981772 6.125000 26.695312 C6.552085 26.408853 6.973956 26.192709 7.390625 26.046875 L8.765625 23.250000 L11.687500 23.562500 L13.140625 25.906250 L11.781250 27.234375 C11.552082 27.463543 11.145836 27.822914 10.562500 28.312500 C9.979164 28.802086 9.390628 29.244790 8.796875 29.640625 C8.640624 29.744792 8.458334 29.822916 8.250000 29.875000 C8.041666 29.927084 7.812501 29.953125 7.562500 29.953125 Z M12.312500 29.281250 C12.177083 29.281250 12.083334 29.234375 12.031250 29.140625 C11.979166 29.046875 11.953125 28.958334 11.953125 28.875000 C11.953125 28.687499 12.028645 28.510418 12.179688 28.343750 C12.330730 28.177082 12.505207 28.093750 12.703125 28.093750 C12.848959 28.093750 12.945312 28.140625 12.992188 28.234375 C13.039063 28.328125 13.062500 28.416666 13.062500 28.500000 C13.062500 28.687501 12.986980 28.864582 12.835938 29.031250 C12.684895 29.197918 12.510418 29.281250 12.312500 29.281250 Z M13.671875 29.921875 C13.536458 29.921875 13.442709 29.875000 13.390625 29.781250 C13.338541 29.687500 13.312500 29.598959 13.312500 29.515625 C13.312500 29.328124 13.388020 29.151042 13.539062 28.984375 C13.690105 28.817708 13.864582 28.734375 14.062500 28.734375 C14.208334 28.734375 14.304687 28.781250 14.351562 28.875000 C14.398438 28.968750 14.421875 29.057291 14.421875 29.140625 C14.421875 29.328126 14.346355 29.505208 14.195312 29.671875 C14.044270 29.838542 13.869793 29.921875 13.671875 29.921875 Z M2.046875 18.953125 C1.682290 18.953125 1.343752 18.752606 1.031250 18.351562 C0.718748 17.950519 0.562500 17.531252 0.562500 17.093750 C0.562500 16.749998 0.723957 16.458335 1.046875 16.218750 C1.369793 15.979165 1.755206 15.859375 2.203125 15.859375 C2.713544 15.859375 3.138019 15.963541 3.476562 16.171875 C3.815106 16.380209 3.984375 16.635415 3.984375 16.937500 C3.984375 17.145834 3.867189 17.411457 3.632812 17.734375 C3.398436 18.057293 3.127606 18.341145 2.820312 18.585938 C2.513019 18.830730 2.255209 18.953125 2.046875 18.953125 Z M9.437500 17.250000 C9.114582 17.250000 8.841147 17.096356 8.617188 16.789062 C8.393228 16.481769 8.281250 16.114585 8.281250 15.687500 C8.281250 15.260415 8.393228 14.895835 8.617188 14.593750 C8.841147 14.291665 9.114582 14.140625 9.437500 14.140625 C9.760418 14.140625 10.033853 14.291665 10.257812 14.593750 C10.481772 14.895835 10.593750 15.260415 10.593750 15.687500 C10.593750 16.114585 10.481772 16.481769 10.257812 16.789062 C10.033853 17.096356 9.760418 17.250000 9.437500 17.250000 Z M24.593750 29.468750 C24.458333 29.468750 24.356771 29.421875 24.289062 29.328125 C24.221354 29.234375 24.187500 29.135417 24.187500 29.031250 C24.187500 28.802082 24.281249 28.598959 24.468750 28.421875 C24.656251 28.244791 24.838541 28.156250 25.015625 28.156250 C25.161459 28.156250 25.265625 28.200520 25.328125 28.289062 C25.390625 28.377605 25.421875 28.479166 25.421875 28.593750 C25.421875 28.822918 25.328126 29.026041 25.140625 29.203125 C24.953124 29.380209 24.770834 29.468750 24.593750 29.468750 Z M26.109375 29.875000 C25.973958 29.875000 25.872396 29.828125 25.804688 29.734375 C25.736979 29.640625 25.703125 29.541667 25.703125 29.437500 C25.703125 29.208332 25.796874 29.005209 25.984375 28.828125 C26.171876 28.651041 26.354166 28.562500 26.531250 28.562500 C26.677084 28.562500 26.781250 28.606770 26.843750 28.695312 C26.906250 28.783855 26.937500 28.885416 26.937500 29.000000 C26.937500 29.229168 26.843751 29.432291 26.656250 29.609375 C26.468749 29.786459 26.286459 29.875000 26.109375 29.875000 Z M15.562500 15.828125 C15.333332 15.338539 15.109376 14.984376 14.890625 14.765625 C15.192710 14.151039 15.499998 13.700522 15.812500 13.414062 C16.125002 13.127603 16.411457 12.984375 16.671875 12.984375 C17.140627 12.984375 17.375000 13.286455 17.375000 13.890625 C17.375000 14.432294 17.179689 14.890623 16.789062 15.265625 C16.398436 15.640627 15.989585 15.828125 15.562500 15.828125 Z M11.406250 8.828125 C11.572918 8.828125 11.726562 8.773438 11.867188 8.664062 C12.007813 8.554687 12.098958 8.385418 12.140625 8.156250 L12.703125 4.937500 C12.723958 4.854166 12.734375 4.770834 12.734375 4.687500 C12.734375 4.406249 12.619793 4.265625 12.390625 4.265625 C12.151040 4.265625 11.963542 4.458331 11.828125 4.843750 L10.781250 7.734375 C10.729166 7.890626 10.703125 8.020833 10.703125 8.125000 C10.703125 8.354168 10.776041 8.528645 10.921875 8.648438 C11.067709 8.768230 11.229166 8.828125 11.406250 8.828125 Z M28.593750 21.234375 C28.645834 21.234375 28.713541 21.223958 28.796875 21.203125 L32.671875 20.187500 C32.942710 20.114583 33.122395 20.023438 33.210938 19.914062 C33.299480 19.804687 33.343750 19.697917 33.343750 19.593750 C33.343750 19.302082 33.166668 19.156250 32.812500 19.156250 C32.708333 19.156250 32.604167 19.166667 32.500000 19.187500 L28.500000 19.765625 C28.302082 19.796875 28.156250 19.880208 28.062500 20.015625 C27.968750 20.151042 27.921875 20.302082 27.921875 20.468750 C27.921875 20.656251 27.981770 20.830728 28.101562 20.992188 C28.221355 21.153647 28.385416 21.234375 28.593750 21.234375 Z M21.781250 16.734375 C21.979168 16.734375 22.197915 16.651043 22.437500 16.484375 L29.546875 11.437500 C29.817710 11.239582 29.953125 11.036459 29.953125 10.828125 C29.953125 10.515623 29.791668 10.359375 29.468750 10.359375 C29.333333 10.359375 29.161459 10.421874 28.953125 10.546875 L21.437500 14.953125 C21.083332 15.161459 20.906250 15.442707 20.906250 15.796875 C20.906250 16.036460 20.992187 16.252603 21.164062 16.445312 C21.335938 16.638022 21.541665 16.734375 21.781250 16.734375 Z M18.796875 8.562500 C19.015626 8.562500 19.208332 8.479167 19.375000 8.312500 L22.937500 4.796875 C23.041667 4.692708 23.117187 4.591146 23.164062 4.492188 C23.210938 4.393229 23.234375 4.291667 23.234375 4.187500 C23.234375 3.927082 23.109376 3.796875 22.859375 3.796875 C22.682291 3.796875 22.489584 3.880208 22.281250 4.046875 L18.375000 7.062500 C18.114582 7.260418 17.984375 7.494790 17.984375 7.765625 C17.984375 7.984376 18.067708 8.171874 18.234375 8.328125 C18.401042 8.484376 18.588541 8.562500 18.796875 8.562500 Z M28.875000 17.031250 C29.000001 17.031250 29.130208 17.000000 29.265625 16.937500 L34.125000 14.828125 C34.333334 14.744791 34.473958 14.648438 34.546875 14.539062 C34.619792 14.429687 34.656250 14.322917 34.656250 14.218750 C34.656250 13.927082 34.484377 13.781250 34.140625 13.781250 C34.015624 13.781250 33.875001 13.807291 33.718750 13.859375 L28.812500 15.531250 C28.354164 15.697917 28.125000 15.958332 28.125000 16.312500 C28.125000 16.489584 28.195312 16.653645 28.335938 16.804688 C28.476563 16.955730 28.656249 17.031250 28.875000 17.031250 Z M25.250000 9.546875 C25.385417 9.546875 25.531249 9.500000 25.687500 9.406250 L29.031250 7.218750 C29.145834 7.145833 29.203125 7.041667 29.203125 6.906250 C29.203125 6.645832 29.072918 6.515625 28.812500 6.515625 C28.760416 6.515625 28.692709 6.531250 28.609375 6.562500 L25.140625 8.187500 C24.807290 8.343751 24.640625 8.578123 24.640625 8.890625 C24.640625 9.057292 24.697916 9.208333 24.812500 9.343750 C24.927084 9.479167 25.072916 9.546875 25.250000 9.546875 Z M36.593750 14.234375 C37.208336 14.442709 37.690102 14.648436 38.039062 14.851562 C38.388023 15.054689 38.562500 15.208333 38.562500 15.312500 C38.562500 15.395834 38.432293 15.658852 38.171875 16.101562 C37.911457 16.544273 37.593752 17.046872 37.218750 17.609375 C36.843748 18.171878 36.489585 18.682289 36.156250 19.140625 C36.541669 19.484377 36.856770 19.835936 37.101562 20.195312 C37.346355 20.554689 37.468750 20.791666 37.468750 20.906250 C37.468750 21.093751 37.132816 21.406248 36.460938 21.843750 C35.789059 22.281252 34.927089 22.796872 33.875000 23.390625 C34.041668 23.640626 34.208332 23.934894 34.375000 24.273438 C34.541668 24.611981 34.682291 24.919269 34.796875 25.195312 C34.911459 25.471356 34.968750 25.651041 34.968750 25.734375 C34.968750 25.880209 34.796877 26.015624 34.453125 26.140625 C34.109373 26.265626 33.697919 26.369791 33.218750 26.453125 C32.739581 26.536459 32.291669 26.598958 31.875000 26.640625 L31.875000 26.671875 C31.875000 28.057299 31.351568 29.166662 30.304688 30.000000 C29.257807 30.833338 27.833342 31.250000 26.031250 31.250000 C25.197912 31.250000 24.429691 31.054689 23.726562 30.664062 C23.023434 30.273436 22.593751 29.703129 22.437500 28.953125 C21.947914 28.953125 21.520835 28.934896 21.156250 28.898438 C20.791665 28.861979 20.302086 28.760418 19.687500 28.593750 C18.333327 29.572922 17.234379 30.260415 16.390625 30.656250 C15.546871 31.052085 14.723962 31.250000 13.921875 31.250000 C13.203121 31.250000 12.539066 31.122397 11.929688 30.867188 C11.320309 30.611978 10.833335 30.263023 10.468750 29.820312 C10.104165 29.377602 9.921875 28.885419 9.921875 28.343750 C9.921875 28.041665 10.036457 27.747397 10.265625 27.460938 C10.494793 27.174478 10.723957 26.932293 10.953125 26.734375 L11.953125 25.875000 L11.281250 24.390625 C11.177083 24.401042 11.062501 24.408854 10.937500 24.414062 C10.812499 24.419271 10.692709 24.421875 10.578125 24.421875 C9.244785 24.421875 7.947923 24.195315 6.687500 23.742188 C5.427077 23.289060 4.294276 22.679691 3.289062 21.914062 C2.283849 21.148434 1.484378 20.283859 0.890625 19.320312 C0.296872 18.356766 0.000000 17.364588 0.000000 16.343750 C0.000000 15.624996 0.234373 15.044273 0.703125 14.601562 C1.171877 14.158852 1.927078 13.822918 2.968750 13.593750 C3.250001 13.531250 3.468749 13.458334 3.625000 13.375000 C3.781251 13.291666 3.927083 13.166667 4.062500 13.000000 C4.177084 12.854166 4.296874 12.718751 4.421875 12.593750 C4.546876 12.468749 4.666666 12.348959 4.781250 12.234375 C4.437498 11.734372 4.065106 11.174482 3.664062 10.554688 C3.263019 9.934893 2.919272 9.364586 2.632812 8.843750 C2.346353 8.322914 2.203125 7.968751 2.203125 7.781250 C2.203125 7.604166 2.338540 7.515625 2.609375 7.515625 C2.817709 7.515625 3.098957 7.565104 3.453125 7.664062 C3.807293 7.763021 4.179686 7.882812 4.570312 8.023438 C4.960939 8.164063 5.302082 8.291666 5.593750 8.406250 L5.812500 6.406250 C5.895834 5.687496 6.026041 5.031253 6.203125 4.437500 C6.380209 3.843747 6.536458 3.546875 6.671875 3.546875 C6.755209 3.546875 7.028644 3.713540 7.492188 4.046875 C7.955731 4.380210 8.541663 4.838539 9.250000 5.421875 C9.812503 4.213536 10.315102 3.234379 10.757812 2.484375 C11.200523 1.734371 11.505208 1.359375 11.671875 1.359375 C11.838542 1.359375 12.093748 1.531248 12.437500 1.875000 C12.781252 2.218752 13.270830 2.802079 13.906250 3.625000 C15.052089 2.239576 15.713541 1.546875 15.890625 1.546875 C16.005209 1.546875 16.229165 1.739581 16.562500 2.125000 C16.895835 2.510419 17.291664 3.036455 17.750000 3.703125 C18.895839 2.369785 19.817705 1.419274 20.515625 0.851562 C21.213545 0.283851 21.807289 -0.000000 22.296875 -0.000000 C22.505209 -0.000000 22.674479 0.148436 22.804688 0.445312 C22.934896 0.742189 23.010417 1.161456 23.031250 1.703125 C23.489586 1.473957 24.002601 1.252605 24.570312 1.039062 C25.138024 0.825520 25.674477 0.648438 26.179688 0.507812 C26.684898 0.367187 27.078124 0.296875 27.359375 0.296875 C27.557293 0.296875 27.656250 0.401041 27.656250 0.609375 C27.656250 0.776042 27.619792 1.033852 27.546875 1.382812 C27.473958 1.731773 27.375001 2.124998 27.250000 2.562500 C27.375001 2.541667 27.499999 2.528646 27.625000 2.523438 C27.750001 2.518229 27.927082 2.515625 28.156250 2.515625 C29.072921 2.515625 29.932288 2.557291 30.734375 2.640625 C31.536462 2.723959 32.184893 2.830729 32.679688 2.960938 C33.174482 3.091146 33.421875 3.239583 33.421875 3.406250 C33.421875 3.520834 33.283856 3.841143 33.007812 4.367188 C32.731769 4.893232 32.395835 5.458330 32.000000 6.062500 C33.489591 6.291668 34.638017 6.520832 35.445312 6.750000 C36.252608 6.979168 36.656250 7.213540 36.656250 7.453125 C36.656250 7.557292 36.583334 7.744790 36.437500 8.015625 C36.291666 8.286460 36.114584 8.572915 35.906250 8.875000 C35.697916 9.177085 35.494793 9.432291 35.296875 9.640625 C35.828128 9.734375 36.372393 9.877603 36.929688 10.070312 C37.486982 10.263022 37.955727 10.460936 38.335938 10.664062 C38.716148 10.867189 38.906250 11.031249 38.906250 11.156250 C38.906250 11.250000 38.794272 11.460936 38.570312 11.789062 C38.346353 12.117189 38.057293 12.499998 37.703125 12.937500 C37.348957 13.375002 36.979169 13.807290 36.593750 14.234375 Z M1.562500 16.343750 C1.562500 17.135421 1.822914 17.916663 2.343750 18.687500 C2.864586 19.458337 3.559891 20.158851 4.429688 20.789062 C5.299484 21.419274 6.268224 21.921873 7.335938 22.296875 C8.403651 22.671877 9.484370 22.859375 10.578125 22.859375 C12.192716 22.859375 13.447912 22.333339 14.343750 21.281250 C15.239588 20.229161 15.687500 18.760426 15.687500 16.875000 C16.250003 16.875000 16.757810 16.705731 17.210938 16.367188 C17.664065 16.028644 18.026040 15.572920 18.296875 15.000000 C18.567710 14.427080 18.703125 13.791670 18.703125 13.093750 C18.703125 12.489580 18.591147 12.041668 18.367188 11.750000 C18.143228 11.458332 17.802086 11.312500 17.343750 11.312500 C16.822914 11.312500 16.302086 11.557289 15.781250 12.046875 C15.260414 12.536461 14.744794 13.140621 14.234375 13.859375 C13.692706 13.286455 13.033858 12.770836 12.257812 12.312500 C11.481767 11.854164 10.598963 11.625000 9.609375 11.625000 C8.859371 11.625000 8.210940 11.755207 7.664062 12.015625 C7.117185 12.276043 6.651044 12.588540 6.265625 12.953125 C5.880206 13.317710 5.552085 13.661457 5.281250 13.984375 C5.135416 14.161459 4.997396 14.320312 4.867188 14.460938 C4.736979 14.601563 4.614584 14.697916 4.500000 14.750000 C4.333332 14.833334 4.148439 14.903646 3.945312 14.960938 C3.742186 15.018229 3.536459 15.067708 3.328125 15.109375 C2.880206 15.192709 2.473960 15.317708 2.109375 15.484375 C1.744790 15.651042 1.562500 15.937498 1.562500 16.343750 Z M26.031250 29.687500 C27.479174 29.687500 28.554684 29.401045 29.257812 28.828125 C29.960941 28.255205 30.312500 27.536463 30.312500 26.671875 C30.312500 26.223956 30.013024 25.734378 29.414062 25.203125 C28.815101 24.671872 28.018234 24.140628 27.023438 23.609375 C26.028641 23.078122 24.929694 22.585940 23.726562 22.132812 C22.523431 21.679685 21.304694 21.304689 20.070312 21.007812 C18.835931 20.710936 17.687505 20.536459 16.625000 20.484375 C15.864580 22.338551 14.588551 23.541664 12.796875 24.093750 L13.953125 26.187500 L12.015625 27.921875 C11.942708 27.984375 11.888021 28.052083 11.851562 28.125000 C11.815104 28.197917 11.796875 28.270833 11.796875 28.343750 C11.796875 28.656252 12.039060 28.947915 12.523438 29.218750 C13.007815 29.489585 13.526039 29.625000 14.078125 29.625000 C14.661461 29.625000 15.361975 29.414065 16.179688 28.992188 C16.997400 28.570310 18.062493 27.869797 19.375000 26.890625 C20.250004 27.151043 21.036455 27.325520 21.734375 27.414062 C22.432295 27.502605 23.218746 27.546875 24.093750 27.546875 C24.041666 27.682292 24.002604 27.822916 23.976562 27.968750 C23.950521 28.114584 23.937500 28.260416 23.937500 28.406250 C23.937500 28.791669 24.143227 29.101561 24.554688 29.335938 C24.966148 29.570314 25.458330 29.687500 26.031250 29.687500 Z M39.765625 26.562500" /></svg>