<svg version="1.1" xmlns="http://www.w3.org/2000/svg" style="fill:rgba(0,0,0,1.0)" width="256" height="256" viewBox="0 0 37.53125 32.8125"><path fill="rgb(255, 255, 255)" d="M5.046875 32.812500 L4.828125 31.093750 C5.869797 30.968749 6.799475 30.697919 7.617188 30.281250 C8.434900 29.864581 9.171872 29.328128 9.828125 28.671875 C10.484378 28.015622 11.083331 27.270838 11.625000 26.437500 C12.166669 25.604162 12.682289 24.710942 13.171875 23.757812 C13.661461 22.804683 14.145831 21.817713 14.625000 20.796875 C15.177086 19.640619 15.752601 18.486985 16.351562 17.335938 C16.950524 16.184890 17.617184 15.093755 18.351562 14.062500 C19.085941 13.031245 19.927079 12.125004 20.875000 11.343750 L22.015625 12.640625 C21.203121 13.307295 20.468753 14.106766 19.812500 15.039062 C19.156247 15.971359 18.546878 16.981765 17.984375 18.070312 C17.421872 19.158860 16.864586 20.270828 16.312500 21.406250 C15.802081 22.458339 15.278649 23.502599 14.742188 24.539062 C14.205726 25.575526 13.625003 26.557287 13.000000 27.484375 C12.374997 28.411463 11.677087 29.249996 10.906250 30.000000 C10.135413 30.750004 9.270838 31.369789 8.312500 31.859375 C7.354162 32.348961 6.265631 32.666666 5.046875 32.812500 Z M11.625000 27.828125 C11.625000 26.807287 11.552084 25.888025 11.406250 25.070312 C11.260416 24.252600 10.942711 23.416671 10.453125 22.562500 L11.546875 21.937500 C11.911460 22.604170 12.203124 23.276038 12.421875 23.953125 C12.640626 24.630212 12.781250 25.322913 12.843750 26.031250 C13.020834 25.989583 13.200520 25.958333 13.382812 25.937500 C13.565105 25.916667 13.749999 25.906250 13.937500 25.906250 C14.270835 25.906250 14.640623 25.914062 15.046875 25.929688 C15.453127 25.945313 15.848956 25.968750 16.234375 26.000000 L16.140625 27.250000 C15.776040 27.218750 15.398439 27.195313 15.007812 27.179688 C14.617186 27.164062 14.260418 27.156250 13.937500 27.156250 C13.520831 27.156250 13.138023 27.210937 12.789062 27.320312 C12.440102 27.429688 12.052085 27.598957 11.625000 27.828125 Z M6.687500 18.546875 C5.677078 17.640620 4.843753 16.588548 4.187500 15.390625 C3.531247 14.192702 3.093751 12.901049 2.875000 11.515625 C2.843750 11.317707 2.890624 11.143230 3.015625 10.992188 C3.140626 10.841145 3.296874 10.765625 3.484375 10.765625 C3.838543 10.765625 4.046875 10.953123 4.109375 11.328125 C4.328126 12.567715 4.729164 13.710932 5.312500 14.757812 C5.895836 15.804693 6.630204 16.749996 7.515625 17.593750 C7.807293 17.875001 7.833335 18.171873 7.593750 18.484375 C7.489583 18.619792 7.348959 18.697917 7.171875 18.718750 C6.994791 18.739583 6.833334 18.682292 6.687500 18.546875 Z M10.828125 23.093750 C8.609364 22.687498 6.690112 21.929693 5.070312 20.820312 C3.450513 19.710932 2.200525 18.325529 1.320312 16.664062 C0.440100 15.002596 0.000000 13.140635 0.000000 11.078125 C0.000000 10.380205 0.065104 9.640629 0.195312 8.859375 C0.325521 8.078121 0.557290 7.166672 0.890625 6.125000 C3.359387 6.531252 5.445304 7.278640 7.148438 8.367188 C8.851571 9.455735 10.145829 10.830721 11.031250 12.492188 C11.916671 14.153654 12.359375 16.057281 12.359375 18.203125 C12.359375 19.598965 12.145835 21.046867 11.718750 22.546875 Z M10.406250 21.421875 C10.666668 20.338536 10.796875 19.265630 10.796875 18.203125 C10.796875 16.453116 10.442712 14.872403 9.734375 13.460938 C9.026038 12.049472 8.013027 10.861984 6.695312 9.898438 C5.377598 8.934891 3.796884 8.250002 1.953125 7.843750 C1.692707 8.947922 1.562500 10.026036 1.562500 11.078125 C1.562500 12.807300 1.916663 14.374993 2.625000 15.781250 C3.333337 17.187507 4.346348 18.372391 5.664062 19.335938 C6.981777 20.299484 8.562491 20.994790 10.406250 21.421875 Z M24.125000 31.625000 C22.520825 31.625000 20.932300 31.216150 19.359375 30.398438 C17.786450 29.580725 16.348965 28.317717 15.046875 26.609375 C16.401048 25.078117 17.828118 23.927087 19.328125 23.156250 C20.828132 22.385413 22.427075 22.000000 24.125000 22.000000 C25.739591 22.000000 27.320305 22.385413 28.867188 23.156250 C30.414070 23.927087 31.958326 25.119784 33.500000 26.734375 C31.979159 28.401050 30.466153 29.632809 28.960938 30.429688 C27.455722 31.226566 25.843759 31.625000 24.125000 31.625000 Z M24.125000 30.062500 C26.739596 30.062500 29.114573 28.979178 31.250000 26.812500 C29.114573 24.645822 26.739596 23.562500 24.125000 23.562500 C22.833327 23.562500 21.580735 23.838539 20.367188 24.390625 C19.153640 24.942711 18.020839 25.749995 16.968750 26.812500 C19.104177 28.979178 21.489570 30.062500 24.125000 30.062500 Z M21.375000 26.609375 C20.979165 26.755209 20.703126 26.640627 20.546875 26.265625 C20.380208 25.869790 20.499998 25.598959 20.906250 25.453125 C21.552087 25.213540 22.192705 25.044271 22.828125 24.945312 C23.463545 24.846354 24.270828 24.796875 25.250000 24.796875 C25.583335 24.796875 25.817708 24.856770 25.953125 24.976562 C26.088542 25.096355 26.156250 25.249999 26.156250 25.437500 C26.156250 25.614584 26.085938 25.763020 25.945312 25.882812 C25.804687 26.002605 25.640626 26.062500 25.453125 26.062500 C24.651038 26.062500 24.039065 26.072917 23.617188 26.093750 C23.195310 26.114583 22.830731 26.164062 22.523438 26.242188 C22.216144 26.320313 21.833336 26.442708 21.375000 26.609375 Z M15.375000 20.937500 C15.375000 19.979162 15.367188 19.161462 15.351562 18.484375 C15.335937 17.807288 15.307292 17.179690 15.265625 16.601562 C15.223958 16.023435 15.151042 15.421878 15.046875 14.796875 L16.296875 14.609375 C16.369792 15.078127 16.429687 15.520831 16.476562 15.937500 C16.523438 16.354169 16.559896 16.781248 16.585938 17.218750 C16.611979 17.656252 16.625000 18.151039 16.625000 18.703125 C17.187503 18.473957 17.776039 18.289063 18.390625 18.148438 C19.005211 18.007812 19.536456 17.937500 19.984375 17.937500 L19.984375 19.187500 C19.536456 19.187500 18.984378 19.273437 18.328125 19.445312 C17.671872 19.617188 17.062503 19.838540 16.500000 20.109375 C15.937497 20.380210 15.562501 20.656249 15.375000 20.937500 Z M15.234375 10.500000 C15.057291 10.562500 14.893230 10.552084 14.742188 10.468750 C14.591145 10.385416 14.489584 10.250001 14.437500 10.062500 C14.343750 9.697915 14.273438 9.322919 14.226562 8.937500 C14.179687 8.552081 14.156250 8.156252 14.156250 7.750000 C14.156250 7.541666 14.164062 7.330730 14.179688 7.117188 C14.195313 6.903645 14.213542 6.666668 14.234375 6.406250 C14.265625 6.020831 14.463540 5.828125 14.828125 5.828125 C15.015626 5.828125 15.179687 5.898437 15.320312 6.039062 C15.460938 6.179688 15.515625 6.354166 15.484375 6.562500 C15.453125 6.791668 15.432292 7.002603 15.421875 7.195312 C15.411458 7.388022 15.406250 7.572916 15.406250 7.750000 C15.406250 8.104168 15.421875 8.445311 15.453125 8.773438 C15.484375 9.101564 15.541666 9.416665 15.625000 9.718750 C15.729167 10.104169 15.598960 10.364583 15.234375 10.500000 Z M15.796875 15.953125 C14.390618 14.890620 13.283858 13.666674 12.476562 12.281250 C11.669267 10.895826 11.265625 9.447924 11.265625 7.937500 C11.265625 6.541660 11.619788 5.195319 12.328125 3.898438 C13.036462 2.601556 14.020827 1.406255 15.281250 0.312500 C16.687507 1.385422 17.765621 2.604160 18.515625 3.968750 C19.265629 5.333340 19.640625 6.770826 19.640625 8.281250 C19.640625 9.666674 19.309899 11.020827 18.648438 12.343750 C17.986976 13.666673 17.036465 14.869786 15.796875 15.953125 Z M15.734375 13.843750 C17.296883 12.135408 18.078125 10.281260 18.078125 8.281250 C18.078125 6.083322 17.166676 4.130217 15.343750 2.421875 C13.770825 4.109383 12.984375 5.947907 12.984375 7.937500 C12.984375 10.135428 13.901032 12.104158 15.734375 13.843750 Z M25.531250 20.062500 C26.770840 20.062500 27.940099 19.755211 29.039062 19.140625 C30.138026 18.526039 31.098954 17.635422 31.921875 16.468750 C30.369784 15.364578 28.770842 14.812500 27.125000 14.812500 C25.895827 14.812500 24.721360 15.127601 23.601562 15.757812 C22.481765 16.388024 21.505212 17.276036 20.671875 18.421875 C22.286466 19.515630 23.906242 20.062500 25.531250 20.062500 Z M25.531250 21.625000 C23.333322 21.625000 21.197927 20.822925 19.125000 19.218750 L18.953125 18.187500 C19.932297 16.635409 21.140618 15.424484 22.578125 14.554688 C24.015632 13.684891 25.531242 13.250000 27.125000 13.250000 C28.208339 13.250000 29.304682 13.481769 30.414062 13.945312 C31.523443 14.408856 32.692702 15.197911 33.921875 16.312500 C32.807286 18.093759 31.546882 19.424475 30.140625 20.304688 C28.734368 21.184900 27.197925 21.625000 25.531250 21.625000 Z M24.781250 17.656250 C24.427082 17.833334 24.156251 17.776043 23.968750 17.484375 C23.885416 17.348958 23.861979 17.200522 23.898438 17.039062 C23.934896 16.877603 24.026041 16.755209 24.171875 16.671875 C24.755211 16.328123 25.351559 16.098959 25.960938 15.984375 C26.570316 15.869791 27.229163 15.812500 27.937500 15.812500 C28.114584 15.812500 28.257812 15.872395 28.367188 15.992188 C28.476563 16.111980 28.531250 16.260416 28.531250 16.437500 C28.531250 16.614584 28.486980 16.755208 28.398438 16.859375 C28.309895 16.963542 28.197917 17.015625 28.062500 17.015625 C27.531247 17.015625 26.971357 17.062500 26.382812 17.156250 C25.794268 17.250000 25.260419 17.416665 24.781250 17.656250 Z M23.015625 12.734375 C22.473956 12.734375 21.921878 12.703125 21.359375 12.640625 L20.671875 11.859375 C20.671875 9.526030 21.135412 7.468759 22.062500 5.687500 C22.989588 3.906241 24.273429 2.513026 25.914062 1.507812 C27.554696 0.502599 29.447906 -0.000000 31.593750 -0.000000 C31.927085 -0.000000 32.304685 0.010417 32.726562 0.031250 C33.148440 0.052083 33.718746 0.130208 34.437500 0.265625 C34.437500 2.817721 33.966151 5.026032 33.023438 6.890625 C32.080724 8.755218 30.752613 10.195307 29.039062 11.210938 C27.325512 12.226568 25.317720 12.734375 23.015625 12.734375 Z M23.015625 11.171875 C24.901051 11.171875 26.565097 10.770837 28.007812 9.968750 C29.450528 9.166663 30.596350 8.046882 31.445312 6.609375 C32.294275 5.171868 32.765625 3.494801 32.859375 1.578125 C32.651041 1.567708 32.440105 1.562500 32.226562 1.562500 C32.013020 1.562500 31.802084 1.562500 31.593750 1.562500 C29.812491 1.562500 28.218757 1.963538 26.812500 2.765625 C25.406243 3.567712 24.294275 4.687493 23.476562 6.125000 C22.658850 7.562507 22.250000 9.234365 22.250000 11.140625 C22.385417 11.151042 22.515624 11.158854 22.640625 11.164062 C22.765626 11.169271 22.890624 11.171875 23.015625 11.171875 Z M24.765625 7.359375 C24.609374 7.265625 24.510417 7.132813 24.468750 6.960938 C24.427083 6.789062 24.463541 6.619792 24.578125 6.453125 C25.005210 5.859372 25.499997 5.294274 26.062500 4.757812 C26.625003 4.221351 27.255205 3.723961 27.953125 3.265625 C28.119792 3.151041 28.289062 3.114583 28.460938 3.156250 C28.632813 3.197917 28.760416 3.291666 28.843750 3.437500 C29.041668 3.781252 28.947919 4.083332 28.562500 4.343750 C27.947914 4.760419 27.393232 5.200519 26.898438 5.664062 C26.403643 6.127606 25.973960 6.624997 25.609375 7.156250 C25.369790 7.500002 25.088543 7.567709 24.765625 7.359375 Z M37.531250 27.343750" /></svg>