<svg version="1.1" xmlns="http://www.w3.org/2000/svg" style="fill:rgba(0,0,0,1.0)" width="256" height="256" viewBox="0 0 35.859375 32.8125"><path fill="rgb(255, 255, 255)" d="M23.640625 32.812500 C21.890616 32.812500 20.325528 32.739584 18.945312 32.593750 C17.565097 32.447916 16.346359 32.200523 15.289062 31.851562 C14.231766 31.502602 13.312504 31.028649 12.531250 30.429688 C11.749996 29.830726 11.085940 29.078130 10.539062 28.171875 C9.992185 27.265620 9.536460 26.182298 9.171875 24.921875 C8.953124 24.140621 8.705731 23.322921 8.429688 22.468750 C8.153644 21.614579 7.877606 20.828129 7.601562 20.109375 C7.325519 19.390621 7.062501 18.843752 6.812500 18.468750 L7.406250 18.187500 C7.229166 19.229172 7.096355 20.390619 7.007812 21.671875 C6.919270 22.953131 6.864583 24.200515 6.843750 25.414062 C6.822917 26.627610 6.812500 27.651038 6.812500 28.484375 C6.458332 28.567709 6.104168 28.632812 5.750000 28.679688 C5.395832 28.726563 5.041668 28.750000 4.687500 28.750000 C4.333332 28.750000 3.960939 28.726563 3.570312 28.679688 C3.179686 28.632812 2.807293 28.557292 2.453125 28.453125 C2.453125 27.234369 2.440104 25.927090 2.414062 24.531250 C2.388021 23.135410 2.325521 21.739590 2.226562 20.343750 C2.127604 18.947910 1.966147 17.625006 1.742188 16.375000 C1.518228 15.124994 1.208335 14.031255 0.812500 13.093750 C0.583332 12.541664 0.390626 11.968753 0.234375 11.375000 C0.078124 10.781247 0.000000 10.218753 0.000000 9.687500 C0.000000 8.989580 0.072916 8.341149 0.218750 7.742188 C0.364584 7.143226 0.606769 6.518232 0.945312 5.867188 C1.283856 5.216143 1.739580 4.463546 2.312500 3.609375 C3.177088 2.307285 3.958330 1.380211 4.656250 0.828125 C5.354170 0.276039 6.005205 -0.000000 6.609375 -0.000000 C7.161461 -0.000000 7.843746 0.276039 8.656250 0.828125 C9.468754 1.380211 10.335933 2.138016 11.257812 3.101562 C12.179692 4.065109 13.085933 5.174473 13.976562 6.429688 C14.867192 7.684902 15.661455 9.010410 16.359375 10.406250 C17.036462 11.760423 17.648435 12.960932 18.195312 14.007812 C18.742190 15.054693 19.294268 16.007808 19.851562 16.867188 C20.408857 17.726567 21.033851 18.552079 21.726562 19.343750 C22.419274 20.135421 23.244787 20.947912 24.203125 21.781250 C25.161463 22.614588 26.317702 23.536453 27.671875 24.546875 C28.911465 25.463546 29.791664 26.273434 30.312500 26.976562 C30.833336 27.679691 31.093750 28.411455 31.093750 29.171875 C31.093750 29.890629 30.778649 30.523435 30.148438 31.070312 C29.518226 31.617190 28.645839 32.044269 27.531250 32.351562 C26.416661 32.658856 25.119799 32.812500 23.640625 32.812500 Z M23.640625 31.093750 C24.703130 31.093750 25.666662 31.007813 26.531250 30.835938 C27.395838 30.664062 28.085935 30.432293 28.601562 30.140625 C29.117190 29.848957 29.375000 29.526043 29.375000 29.171875 C29.375000 28.713539 29.174481 28.247398 28.773438 27.773438 C28.372394 27.299477 27.640630 26.666671 26.578125 25.875000 C25.578120 25.124996 24.656254 24.395837 23.812500 23.687500 C22.968746 22.979163 22.223962 22.291670 21.578125 21.625000 L22.250000 21.625000 C21.927082 21.760417 21.507815 21.927082 20.992188 22.125000 C20.476560 22.322918 19.934899 22.497395 19.367188 22.648438 C18.799476 22.799480 18.265628 22.875000 17.765625 22.875000 C17.130205 22.875000 16.518232 22.765626 15.929688 22.546875 C15.341143 22.328124 14.781253 21.898441 14.250000 21.257812 C13.718747 20.617184 13.213544 19.677090 12.734375 18.437500 C12.255206 17.197910 11.807294 15.557302 11.390625 13.515625 C11.046873 11.848950 10.562503 10.372402 9.937500 9.085938 C9.312497 7.799473 8.708336 6.651047 8.125000 5.640625 C7.645831 4.796871 7.236981 4.023441 6.898438 3.320312 C6.559894 2.617184 6.375000 1.947920 6.343750 1.312500 L6.781250 1.734375 C6.750000 1.723958 6.718750 1.718750 6.687500 1.718750 C6.656250 1.718750 6.630208 1.718750 6.609375 1.718750 C6.203123 1.718750 5.796877 1.934894 5.390625 2.367188 C4.984373 2.799481 4.442712 3.515620 3.765625 4.515625 C2.953121 5.713548 2.408856 6.705725 2.132812 7.492188 C1.856769 8.278650 1.718750 9.010413 1.718750 9.687500 C1.718750 10.125002 1.789062 10.572914 1.929688 11.031250 C2.070313 11.489586 2.239582 11.979164 2.437500 12.500000 C3.208337 14.583344 3.684895 16.763009 3.867188 19.039062 C4.049480 21.315116 4.140625 23.744779 4.140625 26.328125 C4.203125 26.348958 4.281250 26.367187 4.375000 26.382812 C4.468750 26.398438 4.567708 26.406250 4.671875 26.406250 C4.765625 26.406250 4.856770 26.401042 4.945312 26.390625 C5.033855 26.380208 5.114583 26.369792 5.187500 26.359375 C5.187500 25.515621 5.216146 24.578130 5.273438 23.546875 C5.330729 22.515620 5.424479 21.403652 5.554688 20.210938 C5.684896 19.018223 5.859374 17.770840 6.078125 16.468750 L6.171875 17.265625 C5.973957 17.067707 5.750001 16.888022 5.500000 16.726562 C5.249999 16.565103 4.984376 16.427084 4.703125 16.312500 L5.296875 14.906250 C6.109379 15.197918 6.799476 15.684892 7.367188 16.367188 C7.934899 17.049483 8.473956 18.044264 8.984375 19.351562 C9.494794 20.658861 10.067705 22.395822 10.703125 24.562500 C11.109377 25.937507 11.651038 27.054683 12.328125 27.914062 C13.005212 28.773442 13.856766 29.432289 14.882812 29.890625 C15.908859 30.348961 17.143222 30.664062 18.585938 30.835938 C20.028653 31.007813 21.713532 31.093750 23.640625 31.093750 Z M35.859375 27.343750" /></svg>