<svg version="1.1" xmlns="http://www.w3.org/2000/svg" style="fill:rgba(0,0,0,1.0)" width="256" height="256" viewBox="0 0 33.234375 32.8125"><path fill="rgb(255, 255, 255)" d="M5.125000 29.078125 L5.125000 15.031250 C5.125000 13.791660 5.429684 12.606776 6.039062 11.476562 C6.648441 10.346349 7.520828 9.348963 8.656250 8.484375 L8.656250 8.093750 L8.500000 8.093750 C8.302082 8.093750 8.143230 8.018230 8.023438 7.867188 C7.903645 7.716145 7.843750 7.541668 7.843750 7.343750 C7.843750 7.145832 7.903645 6.971355 8.023438 6.820312 C8.143230 6.669270 8.302082 6.593750 8.500000 6.593750 L8.687500 6.593750 C8.906251 5.812496 9.390621 5.205731 10.140625 4.773438 C10.890629 4.341144 11.822911 4.125000 12.937500 4.125000 C14.041672 4.125000 14.966142 4.341144 15.710938 4.773438 C16.455733 5.205731 16.937499 5.812496 17.156250 6.593750 L17.343750 6.593750 C17.541668 6.593750 17.700520 6.669270 17.820312 6.820312 C17.940105 6.971355 18.000000 7.145832 18.000000 7.343750 C18.000000 7.541668 17.940105 7.716145 17.820312 7.867188 C17.700520 8.018230 17.541668 8.093750 17.343750 8.093750 L17.187500 8.093750 L17.187500 8.484375 C18.322922 9.348963 19.195309 10.346349 19.804688 11.476562 C20.414066 12.606776 20.718750 13.791660 20.718750 15.031250 L20.718750 29.078125 L19.156250 29.078125 L19.156250 15.031250 C19.156250 13.927078 18.854170 12.880213 18.250000 11.890625 C17.645830 10.901037 16.770839 10.031254 15.625000 9.281250 L10.218750 9.281250 C9.083328 10.031254 8.210941 10.901037 7.601562 11.890625 C6.992184 12.880213 6.687500 13.927078 6.687500 15.031250 L6.687500 29.078125 Z M1.562500 31.406250 L7.890625 31.406250 L7.890625 30.203125 L1.562500 30.203125 Z M1.609375 25.046875 C1.432291 25.046875 1.283855 24.984376 1.164062 24.859375 C1.044270 24.734374 0.984375 24.588543 0.984375 24.421875 C0.984375 24.005206 1.192706 23.796875 1.609375 23.796875 L5.453125 23.796875 L5.453125 25.046875 Z M1.562500 28.921875 L1.562500 23.843750 L2.031250 23.843750 L2.031250 21.171875 L2.500000 21.171875 L2.500000 18.656250 L2.968750 18.656250 L2.968750 16.312500 L3.437500 16.312500 L3.437500 14.375000 L4.343750 14.375000 L4.343750 17.406250 L4.062500 17.406250 L4.062500 19.750000 L3.593750 19.750000 L3.593750 22.265625 L3.125000 22.265625 L3.125000 24.937500 L2.656250 24.937500 L2.656250 28.921875 Z M9.093750 32.031250 L16.750000 32.031250 L16.750000 31.406250 L9.093750 31.406250 Z M2.296875 22.312500 C2.119791 22.312500 1.971355 22.250001 1.851562 22.125000 C1.731770 21.999999 1.671875 21.854168 1.671875 21.687500 C1.671875 21.270831 1.880206 21.062500 2.296875 21.062500 L5.453125 21.062500 L5.453125 22.312500 Z M0.000000 32.812500 L0.000000 28.796875 L25.843750 28.796875 L25.843750 32.812500 Z M7.937500 29.281250 L7.937500 22.671875 L9.343750 22.671875 L9.343750 29.281250 Z M9.328125 30.468750 L16.515625 30.468750 L16.515625 29.843750 L9.328125 29.843750 Z M2.828125 19.812500 C2.651041 19.812500 2.502605 19.750001 2.382812 19.625000 C2.263020 19.499999 2.203125 19.354168 2.203125 19.187500 C2.203125 18.770831 2.411456 18.562500 2.828125 18.562500 L5.453125 18.562500 L5.453125 19.812500 Z M10.593750 28.921875 L10.593750 24.000000 L15.250000 24.000000 L15.250000 28.921875 Z M3.140625 17.468750 C2.963541 17.468750 2.815105 17.406251 2.695312 17.281250 C2.575520 17.156249 2.515625 17.010418 2.515625 16.843750 C2.515625 16.427081 2.723956 16.218750 3.140625 16.218750 L5.609375 16.218750 L5.609375 17.468750 Z M17.953125 31.406250 L24.281250 31.406250 L24.281250 30.203125 L17.953125 30.203125 Z M3.640625 15.187500 C3.348957 15.031249 3.203125 14.760419 3.203125 14.375000 C3.203125 13.968748 3.382811 13.606772 3.742188 13.289062 C4.101564 12.971353 4.437498 12.812500 4.750000 12.812500 C5.062502 12.812500 5.398436 12.971353 5.757812 13.289062 C6.117189 13.606772 6.296875 13.968748 6.296875 14.375000 C6.296875 14.760419 6.151043 15.031249 5.859375 15.187500 Z M7.312500 22.812500 L8.687500 20.515625 L17.156250 20.515625 L18.531250 22.812500 Z M16.500000 29.281250 L16.500000 22.671875 L17.906250 22.671875 L17.906250 29.281250 Z M4.765625 13.031250 C4.588541 13.031250 4.437501 12.968751 4.312500 12.843750 C4.187499 12.718749 4.125000 12.567709 4.125000 12.390625 C4.125000 12.213541 4.187499 12.065105 4.312500 11.945312 C4.437501 11.825520 4.583332 11.765625 4.750000 11.765625 C4.927084 11.765625 5.075520 11.825520 5.195312 11.945312 C5.315105 12.065105 5.375000 12.213541 5.375000 12.390625 C5.375000 12.567709 5.315105 12.718749 5.195312 12.843750 C5.075520 12.968751 4.932292 13.031250 4.765625 13.031250 Z M10.250000 21.062500 L9.281250 20.531250 L12.906250 13.812500 L13.875000 14.343750 Z M9.171875 19.687500 L10.437500 17.546875 L15.406250 17.546875 L16.671875 19.687500 Z M10.843750 16.875000 L11.750000 15.359375 L14.093750 15.359375 L15.000000 16.875000 Z M15.593750 21.062500 L11.968750 14.343750 L12.937500 13.812500 L16.562500 20.531250 Z M20.390625 25.046875 L20.390625 23.796875 L24.234375 23.796875 C24.651044 23.796875 24.859375 24.005206 24.859375 24.421875 C24.859375 24.588543 24.799480 24.734374 24.679688 24.859375 C24.559895 24.984376 24.411459 25.046875 24.234375 25.046875 Z M11.796875 14.953125 C11.546874 14.953125 11.421875 14.864584 11.421875 14.687500 C11.421875 14.489582 11.578123 14.333334 11.890625 14.218750 L11.765625 14.406250 C11.765625 14.166665 11.877603 13.960938 12.101562 13.789062 C12.325522 13.617187 12.598957 13.531250 12.921875 13.531250 C13.244793 13.531250 13.518228 13.617187 13.742188 13.789062 C13.966147 13.960938 14.078125 14.166665 14.078125 14.406250 L13.953125 14.218750 C14.265627 14.333334 14.421875 14.489582 14.421875 14.687500 C14.421875 14.864584 14.296876 14.953125 14.046875 14.953125 Z M12.921875 13.593750 C12.567707 13.593750 12.390625 13.411460 12.390625 13.046875 C12.390625 12.901041 12.442708 12.776042 12.546875 12.671875 C12.651042 12.567708 12.776041 12.515625 12.921875 12.515625 C13.067709 12.515625 13.192708 12.567708 13.296875 12.671875 C13.401042 12.776042 13.453125 12.901041 13.453125 13.046875 C13.453125 13.411460 13.276043 13.593750 12.921875 13.593750 Z M20.390625 22.312500 L20.390625 21.062500 L23.546875 21.062500 C23.963544 21.062500 24.171875 21.270831 24.171875 21.687500 C24.171875 21.854168 24.111980 21.999999 23.992188 22.125000 C23.872395 22.250001 23.723959 22.312500 23.546875 22.312500 Z M23.187500 28.921875 L23.187500 24.937500 L22.718750 24.937500 L22.718750 22.265625 L22.250000 22.265625 L22.250000 19.750000 L21.781250 19.750000 L21.781250 17.406250 L21.500000 17.406250 L21.500000 14.375000 L22.406250 14.375000 L22.406250 16.312500 L22.875000 16.312500 L22.875000 18.656250 L23.343750 18.656250 L23.343750 21.171875 L23.812500 21.171875 L23.812500 23.843750 L24.281250 23.843750 L24.281250 28.921875 Z M20.390625 19.812500 L20.390625 18.562500 L23.015625 18.562500 C23.432294 18.562500 23.640625 18.770831 23.640625 19.187500 C23.640625 19.354168 23.580730 19.499999 23.460938 19.625000 C23.341145 19.750001 23.192709 19.812500 23.015625 19.812500 Z M20.234375 17.468750 L20.234375 16.218750 L22.703125 16.218750 C23.119794 16.218750 23.328125 16.427081 23.328125 16.843750 C23.328125 17.010418 23.268230 17.156249 23.148438 17.281250 C23.028645 17.406251 22.880209 17.468750 22.703125 17.468750 Z M10.218750 6.609375 L15.625000 6.609375 C15.489583 6.223956 15.190106 5.921876 14.726562 5.703125 C14.263019 5.484374 13.661462 5.375000 12.921875 5.375000 C12.192705 5.375000 11.593752 5.484374 11.125000 5.703125 C10.656248 5.921876 10.354167 6.223956 10.218750 6.609375 Z M19.984375 15.187500 C19.692707 15.031249 19.546875 14.760419 19.546875 14.375000 C19.546875 13.968748 19.726561 13.606772 20.085938 13.289062 C20.445314 12.971353 20.781248 12.812500 21.093750 12.812500 C21.406252 12.812500 21.742186 12.971353 22.101562 13.289062 C22.460939 13.606772 22.640625 13.968748 22.640625 14.375000 C22.640625 14.760419 22.494793 15.031249 22.203125 15.187500 Z M21.109375 13.031250 C20.932291 13.031250 20.781251 12.968751 20.656250 12.843750 C20.531249 12.718749 20.468750 12.567709 20.468750 12.390625 C20.468750 12.213541 20.531249 12.065105 20.656250 11.945312 C20.781251 11.825520 20.927082 11.765625 21.093750 11.765625 C21.270834 11.765625 21.419270 11.825520 21.539062 11.945312 C21.658855 12.065105 21.718750 12.213541 21.718750 12.390625 C21.718750 12.567709 21.658855 12.718749 21.539062 12.843750 C21.419270 12.968751 21.276042 13.031250 21.109375 13.031250 Z M11.562500 5.156250 C11.447916 4.927082 11.390625 4.687501 11.390625 4.437500 C11.390625 3.999998 11.541665 3.640626 11.843750 3.359375 C11.645832 3.234374 11.546875 3.057293 11.546875 2.828125 C11.546875 2.671874 11.598958 2.536459 11.703125 2.421875 C11.807292 2.307291 11.932291 2.244792 12.078125 2.234375 C11.994791 2.130208 11.927084 2.015626 11.875000 1.890625 C11.822916 1.765624 11.796875 1.635417 11.796875 1.500000 C11.796875 1.197915 11.906249 0.911460 12.125000 0.640625 C12.343751 0.369790 12.609373 0.156251 12.921875 -0.000000 C13.234377 0.156251 13.499999 0.369790 13.718750 0.640625 C13.937501 0.911460 14.046875 1.197915 14.046875 1.500000 C14.046875 1.635417 14.020834 1.765624 13.968750 1.890625 C13.916666 2.015626 13.848959 2.130208 13.765625 2.234375 C13.911459 2.244792 14.036458 2.307291 14.140625 2.421875 C14.244792 2.536459 14.296875 2.671874 14.296875 2.828125 C14.296875 3.057293 14.197918 3.234374 14.000000 3.359375 C14.302085 3.640626 14.453125 3.999998 14.453125 4.437500 C14.453125 4.687501 14.395834 4.927082 14.281250 5.156250 Z M33.234375 27.343750" /></svg>