<svg version="1.1" xmlns="http://www.w3.org/2000/svg" style="fill:rgba(0,0,0,1.0)" width="256" height="256" viewBox="0 0 40.15625 29.6875"><path fill="rgb(255, 255, 255)" d="M19.703125 29.687500 C18.838537 29.687500 18.111982 29.541668 17.523438 29.250000 C16.934893 28.958332 16.640625 28.510420 16.640625 27.906250 C16.640625 27.604165 16.768228 27.289064 17.023438 26.960938 C17.278647 26.632811 17.531249 26.309897 17.781250 25.992188 C18.031251 25.674478 18.156250 25.385418 18.156250 25.125000 L18.156250 22.265625 C17.499997 22.265625 16.807295 22.177084 16.078125 22.000000 C15.348955 21.822916 14.479172 21.484378 13.468750 20.984375 L14.718750 19.703125 C15.229169 19.953126 15.776039 20.153645 16.359375 20.304688 C16.942711 20.455730 17.510414 20.531250 18.062500 20.531250 C18.364585 20.531250 18.653644 20.515625 18.929688 20.484375 C19.205731 20.453125 19.458332 20.416667 19.687500 20.375000 L19.687500 25.125000 C19.687500 25.583336 19.588543 25.945311 19.390625 26.210938 C19.192707 26.476564 18.997397 26.705728 18.804688 26.898438 C18.611978 27.091147 18.515625 27.312499 18.515625 27.562500 C18.515625 27.708334 18.627603 27.838541 18.851562 27.953125 C19.075522 28.067709 19.359373 28.125000 19.703125 28.125000 C20.609380 28.125000 21.307289 27.890627 21.796875 27.421875 C22.286461 26.953123 22.531250 26.286463 22.531250 25.421875 C22.531250 23.973951 22.570312 22.882816 22.648438 22.148438 C22.726563 21.414059 22.854166 20.776044 23.031250 20.234375 C23.302085 20.276042 23.598957 20.317708 23.921875 20.359375 C24.244793 20.401042 24.619790 20.421875 25.046875 20.421875 C25.734378 20.421875 26.523433 20.283856 27.414062 20.007812 C28.304692 19.731769 29.221349 19.354169 30.164062 18.875000 C31.106776 18.395831 31.994788 17.848961 32.828125 17.234375 C32.880209 18.286464 32.914062 19.140622 32.929688 19.796875 C32.945313 20.453128 32.953125 21.119788 32.953125 21.796875 C32.953125 22.057293 32.877605 22.299478 32.726562 22.523438 C32.575520 22.747397 32.421876 22.950520 32.265625 23.132812 C32.109374 23.315105 32.031250 23.484374 32.031250 23.640625 C32.031250 23.734375 32.111978 23.820312 32.273438 23.898438 C32.434897 23.976563 32.739581 24.015625 33.187500 24.015625 C33.927087 24.015625 34.427082 23.843752 34.687500 23.500000 C34.947918 23.156248 35.093750 22.520838 35.125000 21.593750 L35.296875 16.375000 C35.463542 15.729163 35.562500 15.057295 35.593750 14.359375 C35.625000 13.661455 35.640625 12.979170 35.640625 12.312500 C36.296878 12.312500 36.877602 12.130210 37.382812 11.765625 C37.888023 11.401040 38.140625 10.947919 38.140625 10.406250 C38.140625 10.166665 38.098959 9.955730 38.015625 9.773438 C37.932291 9.591145 37.802084 9.500000 37.625000 9.500000 C37.437499 9.500000 37.286459 9.580728 37.171875 9.742188 C37.057291 9.903647 36.822918 9.984375 36.468750 9.984375 C36.083331 9.984375 35.729168 9.776044 35.406250 9.359375 C35.083332 8.942706 34.726564 8.424482 34.335938 7.804688 C33.945311 7.184893 33.447920 6.565107 32.843750 5.945312 C32.239580 5.325518 31.460942 4.807294 30.507812 4.390625 C29.554683 3.973956 28.354174 3.765625 26.906250 3.765625 C25.854161 3.765625 24.833338 3.934894 23.843750 4.273438 C22.854162 4.611981 21.802089 5.140621 20.687500 5.859375 L20.796875 3.796875 C22.932302 2.630202 25.031240 2.046875 27.093750 2.046875 C28.614591 2.046875 29.898432 2.257810 30.945312 2.679688 C31.992193 3.101565 32.861976 3.619789 33.554688 4.234375 C34.247399 4.848961 34.812498 5.466143 35.250000 6.085938 C35.687502 6.705732 36.046874 7.226560 36.328125 7.648438 C36.609376 8.070315 36.869790 8.281250 37.109375 8.281250 C37.369793 8.281250 37.585937 8.197917 37.757812 8.031250 C37.929688 7.864583 38.177082 7.781250 38.500000 7.781250 C38.864585 7.781250 39.153645 8.023435 39.367188 8.507812 C39.580730 8.992190 39.687500 9.557288 39.687500 10.203125 C39.687500 11.057296 39.492189 11.752601 39.101562 12.289062 C38.710936 12.825524 38.177087 13.244790 37.500000 13.546875 C37.500000 14.005211 37.468750 14.523435 37.406250 15.101562 C37.343750 15.679690 37.250001 16.276039 37.125000 16.890625 L36.968750 21.593750 C36.927083 22.947923 36.585941 23.950518 35.945312 24.601562 C35.304684 25.252607 34.385423 25.578125 33.187500 25.578125 C32.427080 25.578125 31.765628 25.460939 31.203125 25.226562 C30.640622 24.992186 30.359375 24.604169 30.359375 24.062500 C30.359375 23.802082 30.442708 23.507814 30.609375 23.179688 C30.776042 22.851561 31.046873 22.390628 31.421875 21.796875 L31.296875 20.312500 C30.234370 20.916670 29.174484 21.372394 28.117188 21.679688 C27.059891 21.986981 25.786466 22.140625 24.296875 22.140625 C24.223958 22.276042 24.171875 22.606768 24.140625 23.132812 C24.109375 23.658857 24.093750 24.421870 24.093750 25.421875 C24.093750 26.734382 23.690108 27.773434 22.882812 28.539062 C22.075517 29.304691 21.015632 29.687500 19.703125 29.687500 Z M4.265625 17.515625 C3.911457 17.515625 3.575522 17.330731 3.257812 16.960938 C2.940103 16.591144 2.781250 16.234377 2.781250 15.890625 C2.781250 15.494790 2.963540 15.296875 3.328125 15.296875 C3.661460 15.296875 3.992186 15.468748 4.320312 15.812500 C4.648439 16.156252 4.812500 16.526040 4.812500 16.921875 C4.812500 17.317710 4.630210 17.515625 4.265625 17.515625 Z M12.640625 27.640625 C12.223956 27.640625 11.786461 27.559897 11.328125 27.398438 C10.869789 27.236978 10.640625 26.984377 10.640625 26.640625 C10.640625 26.411457 10.731770 26.117189 10.914062 25.757812 C11.096355 25.398436 11.276041 25.028648 11.453125 24.648438 C11.630209 24.268227 11.718750 23.937501 11.718750 23.656250 C11.718750 23.031247 11.716146 22.432295 11.710938 21.859375 C11.705729 21.286455 11.697917 20.932292 11.687500 20.796875 L13.593750 20.390625 L16.031250 20.812500 C16.020833 20.947917 16.005208 21.174478 15.984375 21.492188 C15.963542 21.809897 15.945313 22.138019 15.929688 22.476562 C15.914062 22.815106 15.906250 23.093749 15.906250 23.312500 C15.906250 23.322917 15.906250 23.447915 15.906250 23.687500 C15.906250 23.927085 15.906250 24.197915 15.906250 24.500000 C15.906250 24.802085 15.906250 25.052082 15.906250 25.250000 C15.906250 25.791669 15.744793 26.239582 15.421875 26.593750 C15.098957 26.947918 14.687502 27.210937 14.187500 27.382812 C13.687498 27.554688 13.171878 27.640625 12.640625 27.640625 Z M7.562500 18.375000 C7.395832 18.375000 7.226563 18.335938 7.054688 18.257812 C6.882812 18.179687 6.796875 18.036459 6.796875 17.828125 C6.796875 17.526040 6.979165 17.250001 7.343750 17.000000 C7.708335 16.749999 8.083331 16.625000 8.468750 16.625000 C8.677084 16.625000 8.854166 16.669270 9.000000 16.757812 C9.145834 16.846355 9.218750 16.979166 9.218750 17.156250 C9.218750 17.458335 9.041668 17.736978 8.687500 17.992188 C8.333332 18.247397 7.958335 18.375000 7.562500 18.375000 Z M6.125000 11.343750 C5.770832 11.343750 5.463543 11.197918 5.203125 10.906250 C4.942707 10.614582 4.812500 10.260419 4.812500 9.843750 C4.812500 9.416665 4.942707 9.059897 5.203125 8.773438 C5.463543 8.486978 5.770832 8.343750 6.125000 8.343750 C6.489585 8.343750 6.799478 8.489582 7.054688 8.781250 C7.309897 9.072918 7.437500 9.427081 7.437500 9.843750 C7.437500 10.260419 7.309897 10.614582 7.054688 10.906250 C6.799478 11.197918 6.489585 11.343750 6.125000 11.343750 Z M7.515625 23.187500 C6.109368 23.187500 4.838547 22.888024 3.703125 22.289062 C2.567703 21.690101 1.666670 20.877609 1.000000 19.851562 C0.333330 18.825516 0.000000 17.677090 0.000000 16.406250 C0.000000 15.333328 0.291664 14.526044 0.875000 13.984375 C1.458336 13.442706 2.119788 13.067709 2.859375 12.859375 C3.265627 12.744791 3.528645 12.432294 3.648438 11.921875 C3.768230 11.411456 3.828125 10.911461 3.828125 10.421875 C3.828125 10.151040 3.820313 9.903647 3.804688 9.679688 C3.789062 9.455728 3.781250 9.291667 3.781250 9.187500 C3.781250 7.010406 4.770823 5.666669 6.750000 5.156250 C7.197919 4.281246 7.833329 3.609377 8.656250 3.140625 C8.885418 2.255204 9.244789 1.510420 9.734375 0.906250 C10.223961 0.302080 10.906246 -0.000000 11.781250 -0.000000 C12.427087 -0.000000 12.973956 0.226560 13.421875 0.679688 C13.869794 1.132815 14.093750 1.734371 14.093750 2.484375 C14.093750 2.630209 14.088542 2.744791 14.078125 2.828125 C14.255209 2.838542 14.458332 2.864583 14.687500 2.906250 C14.916668 2.947917 15.109374 2.994791 15.265625 3.046875 C15.723961 2.276038 16.203122 1.695314 16.703125 1.304688 C17.203128 0.914061 17.760414 0.718750 18.375000 0.718750 C19.125004 0.718750 19.760414 1.026039 20.281250 1.640625 C20.802086 2.255211 21.062500 3.197910 21.062500 4.468750 C21.062500 4.989586 21.023438 5.460935 20.945312 5.882812 C20.867187 6.304690 20.692710 6.760414 20.421875 7.250000 C20.942711 8.572923 21.203125 9.906243 21.203125 11.250000 C21.203125 12.197921 21.059897 13.122391 20.773438 14.023438 C20.486978 14.924484 20.031253 15.744788 19.406250 16.484375 L18.062500 15.421875 C18.552086 14.838539 18.911457 14.187504 19.140625 13.468750 C19.369793 12.749996 19.484375 12.026045 19.484375 11.296875 C19.484375 9.828118 19.093754 8.515631 18.312500 7.359375 C19.031254 6.453120 19.390625 5.500005 19.390625 4.500000 C19.390625 3.885414 19.309897 3.388023 19.148438 3.007812 C18.986978 2.627602 18.729168 2.437500 18.375000 2.437500 C17.979165 2.437500 17.559898 2.684893 17.117188 3.179688 C16.674477 3.674482 16.348959 4.307288 16.140625 5.078125 C15.682289 4.869791 15.091149 4.708334 14.367188 4.593750 C13.643226 4.479166 13.031252 4.421875 12.531250 4.421875 C12.572917 4.244791 12.604167 4.070313 12.625000 3.898438 C12.645833 3.726562 12.656250 3.562501 12.656250 3.406250 C12.656250 2.895831 12.565105 2.486981 12.382812 2.179688 C12.200520 1.872394 11.973960 1.718750 11.703125 1.718750 C11.223956 1.718750 10.869793 1.981768 10.640625 2.507812 C10.411457 3.033857 10.255209 3.604164 10.171875 4.218750 C9.911457 4.291667 9.611981 4.479165 9.273438 4.781250 C8.934894 5.083335 8.630210 5.414061 8.359375 5.773438 C8.088540 6.132814 7.916667 6.442707 7.843750 6.703125 C6.927079 6.776042 6.309897 7.054685 5.992188 7.539062 C5.674478 8.023440 5.515625 8.697912 5.515625 9.562500 C5.515625 10.354171 5.473959 11.044268 5.390625 11.632812 C5.307291 12.221357 5.187501 12.619791 5.031250 12.828125 C5.270835 12.848958 5.552082 12.950520 5.875000 13.132812 C6.197918 13.315105 6.421874 13.463541 6.546875 13.578125 C6.734376 13.546875 6.921874 13.523438 7.109375 13.507812 C7.296876 13.492187 7.473958 13.484375 7.640625 13.484375 C9.348967 13.484375 10.729161 14.213534 11.781250 15.671875 L10.375000 16.671875 C10.020832 16.171872 9.627606 15.802085 9.195312 15.562500 C8.763019 15.322915 8.260420 15.203125 7.687500 15.203125 C7.437499 15.203125 7.171876 15.226562 6.890625 15.273438 C6.609374 15.320313 6.307293 15.390625 5.984375 15.484375 C5.598956 15.015623 5.221356 14.671876 4.851562 14.453125 C4.481769 14.234374 4.093752 14.125000 3.687500 14.125000 C3.114580 14.125000 2.643231 14.296873 2.273438 14.640625 C1.903644 14.984377 1.718750 15.572912 1.718750 16.406250 C1.718750 17.312505 1.958331 18.148434 2.437500 18.914062 C2.916669 19.679691 3.591141 20.296873 4.460938 20.765625 C5.330734 21.234377 6.348952 21.468750 7.515625 21.468750 C8.786465 21.468750 9.934891 21.247398 10.960938 20.804688 C11.986984 20.361977 12.802080 19.760420 13.406250 19.000000 C14.010420 18.239580 14.312500 17.395838 14.312500 16.468750 C14.312500 16.270832 14.307292 16.098959 14.296875 15.953125 C14.286458 15.807291 14.270833 15.666667 14.250000 15.531250 C14.229167 15.406249 14.213542 15.302084 14.203125 15.218750 C14.192708 15.135416 14.187500 15.057292 14.187500 14.984375 C14.187500 14.651040 14.309895 14.361980 14.554688 14.117188 C14.799480 13.872395 15.093748 13.750000 15.437500 13.750000 C15.770835 13.750000 16.059895 13.872395 16.304688 14.117188 C16.549480 14.361980 16.671875 14.651040 16.671875 14.984375 C16.671875 15.223960 16.609376 15.442707 16.484375 15.640625 C16.359374 15.838543 16.197918 15.989583 16.000000 16.093750 C15.968750 16.114583 15.921875 16.135417 15.859375 16.156250 C15.859375 16.208334 15.859375 16.265625 15.859375 16.328125 C15.859375 16.390625 15.859375 16.447916 15.859375 16.500000 C15.859375 17.541672 15.632815 18.476558 15.179688 19.304688 C14.726560 20.132817 14.106775 20.835935 13.320312 21.414062 C12.533850 21.992190 11.640630 22.432290 10.640625 22.734375 C9.640620 23.036460 8.598964 23.187500 7.515625 23.187500 Z M12.343750 12.390625 C11.989582 12.390625 11.682293 12.244793 11.421875 11.953125 C11.161457 11.661457 11.031250 11.307294 11.031250 10.890625 C11.031250 10.473956 11.161457 10.119793 11.421875 9.828125 C11.682293 9.536457 11.989582 9.390625 12.343750 9.390625 C12.708335 9.390625 13.018228 9.536457 13.273438 9.828125 C13.528647 10.119793 13.656250 10.473956 13.656250 10.890625 C13.656250 11.307294 13.528647 11.661457 13.273438 11.953125 C13.018228 12.244793 12.708335 12.390625 12.343750 12.390625 Z M26.828125 24.156250 C26.234372 24.156250 25.781252 24.075522 25.468750 23.914062 C25.156248 23.752603 25.000000 23.520835 25.000000 23.218750 C25.000000 22.885415 25.109374 22.580731 25.328125 22.304688 C25.546876 22.028644 25.687500 21.661461 25.750000 21.203125 L29.843750 19.859375 C29.843750 20.296877 29.835938 20.752602 29.820312 21.226562 C29.804687 21.700523 29.786458 22.109373 29.765625 22.453125 C29.744792 22.796877 29.718750 23.000000 29.687500 23.062500 C29.552083 23.385418 29.213544 23.648436 28.671875 23.851562 C28.130206 24.054689 27.515628 24.156250 26.828125 24.156250 Z M40.156250 25.781250" /></svg>