<svg version="1.1" xmlns="http://www.w3.org/2000/svg" style="fill:rgba(0,0,0,1.0)" width="256" height="256" viewBox="0 0 35.8125 32.8125"><path fill="rgb(255, 255, 255)" d="M20.656250 32.812500 C19.031242 32.812500 17.588548 32.755209 16.328125 32.640625 C15.067702 32.526041 14.078129 32.302085 13.359375 31.968750 C12.640621 31.635415 12.281250 31.145837 12.281250 30.500000 C12.281250 30.374999 12.322916 30.046878 12.406250 29.515625 C12.489584 28.984372 12.601562 28.328129 12.742188 27.546875 C12.882813 26.765621 13.039062 25.937504 13.210938 25.062500 C13.382813 24.187496 13.562499 23.348962 13.750000 22.546875 C13.083330 22.630209 12.515627 22.687500 12.046875 22.718750 C11.578123 22.750000 11.000003 22.765625 10.312500 22.765625 C10.083332 22.765625 9.846355 22.763021 9.601562 22.757812 C9.356770 22.752604 9.109376 22.744792 8.859375 22.734375 C8.067704 23.380212 7.255212 23.874998 6.421875 24.218750 C5.588538 24.562502 4.786462 24.734375 4.015625 24.734375 C2.838536 24.734375 1.875004 24.361983 1.125000 23.617188 C0.374996 22.872392 0.000000 21.890631 0.000000 20.671875 C0.000000 19.651037 0.296872 18.726567 0.890625 17.898438 C1.484378 17.070308 2.354161 16.276045 3.500000 15.515625 C4.531255 14.244785 5.479162 13.145838 6.343750 12.218750 C7.208338 11.291662 8.156245 10.364588 9.187500 9.437500 L11.250000 9.953125 C10.427079 10.651045 9.671878 11.330726 8.984375 11.992188 C8.296872 12.653649 7.609378 13.369788 6.921875 14.140625 C6.234372 14.911462 5.479171 15.802078 4.656250 16.812500 C3.770829 17.354169 3.085940 17.914060 2.601562 18.492188 C2.117185 19.070315 1.875000 19.744788 1.875000 20.515625 C1.875000 21.276045 2.101560 21.882810 2.554688 22.335938 C3.007815 22.789065 3.583330 23.015625 4.281250 23.015625 C5.520840 23.015625 6.880201 22.348965 8.359375 21.015625 C8.713543 21.026042 9.054686 21.033854 9.382812 21.039062 C9.710939 21.044271 10.020832 21.046875 10.312500 21.046875 C11.739590 21.046875 12.921870 20.986980 13.859375 20.867188 C14.796880 20.747395 15.565101 20.531252 16.164062 20.218750 C16.763024 19.906248 17.252602 19.466149 17.632812 18.898438 C18.013023 18.330726 18.359373 17.593755 18.671875 16.687500 L20.296875 17.250000 C19.817706 18.635424 19.223962 19.705725 18.515625 20.460938 C17.807288 21.216150 16.859381 21.776040 15.671875 22.140625 C15.526041 22.838545 15.367188 23.630204 15.195312 24.515625 C15.023437 25.401046 14.856772 26.260412 14.695312 27.093750 C14.533853 27.927088 14.403646 28.630205 14.304688 29.203125 C14.205729 29.776045 14.156250 30.104166 14.156250 30.187500 C14.156250 30.333334 14.479163 30.476562 15.125000 30.617188 C15.770837 30.757813 16.593745 30.872395 17.593750 30.960938 C18.593755 31.049480 19.614578 31.093750 20.656250 31.093750 C21.739589 31.093750 22.807286 31.054688 23.859375 30.976562 C24.911464 30.898437 25.783851 30.794271 26.476562 30.664062 C27.169274 30.533854 27.515625 30.401042 27.515625 30.265625 C27.515625 28.567700 27.330731 26.755218 26.960938 24.828125 C26.591144 22.901032 26.091149 20.989593 25.460938 19.093750 C24.830726 17.197907 24.114587 15.434904 23.312500 13.804688 C22.510413 12.174471 21.671879 10.791672 20.796875 9.656250 C19.921871 8.520828 19.057296 7.760419 18.203125 7.375000 C18.223958 7.270833 18.242187 7.145834 18.257812 7.000000 C18.273438 6.854166 18.281250 6.713542 18.281250 6.578125 C18.281250 6.057289 18.226563 5.520836 18.117188 4.968750 C18.007812 4.416664 17.867188 3.906252 17.695312 3.437500 C17.523437 2.968748 17.333334 2.588543 17.125000 2.296875 C16.916666 2.005207 16.718751 1.859375 16.531250 1.859375 C16.354166 1.859375 16.164064 1.989582 15.960938 2.250000 C15.757811 2.510418 15.567709 2.830727 15.390625 3.210938 C15.213541 3.591148 15.067709 3.973956 14.953125 4.359375 L13.359375 4.359375 C13.536459 3.723955 13.820311 3.070316 14.210938 2.398438 C14.601564 1.726559 15.015623 1.158856 15.453125 0.695312 C15.890627 0.231769 16.270832 -0.000000 16.593750 -0.000000 C16.906252 -0.000000 17.257811 0.221352 17.648438 0.664062 C18.039064 1.106773 18.411457 1.669267 18.765625 2.351562 C19.119793 3.033858 19.414061 3.739580 19.648438 4.468750 C19.882814 5.197920 20.000000 5.848955 20.000000 6.421875 C20.000000 6.494792 19.997396 6.570312 19.992188 6.648438 C19.986979 6.726563 19.979167 6.807291 19.968750 6.890625 C20.916671 7.546878 21.841141 8.499994 22.742188 9.750000 C23.643234 11.000006 24.486975 12.447908 25.273438 14.093750 C26.059900 15.739592 26.749997 17.497386 27.343750 19.367188 C27.937503 21.236989 28.401040 23.130199 28.734375 25.046875 C29.067710 26.963551 29.234375 28.807283 29.234375 30.578125 C29.234375 31.223962 28.864587 31.705728 28.125000 32.023438 C27.385413 32.341147 26.372402 32.552083 25.085938 32.656250 C23.799473 32.760417 22.322925 32.812500 20.656250 32.812500 Z M5.593750 20.656250 C5.416666 20.656250 5.291667 20.526043 5.218750 20.265625 C5.187500 20.140624 5.164063 20.002605 5.148438 19.851562 C5.132812 19.700520 5.088542 19.557292 5.015625 19.421875 C4.911458 19.213541 4.830729 19.036459 4.773438 18.890625 C4.716146 18.744791 4.687500 18.619792 4.687500 18.515625 C4.687500 18.140623 4.901040 17.953125 5.328125 17.953125 C5.609376 17.953125 5.851561 18.078124 6.054688 18.328125 C6.257814 18.578126 6.359375 18.885415 6.359375 19.250000 C6.359375 19.593752 6.278647 19.914061 6.117188 20.210938 C5.955728 20.507814 5.781251 20.656250 5.593750 20.656250 Z M13.515625 15.593750 C13.161457 15.593750 12.861980 15.442710 12.617188 15.140625 C12.372395 14.838540 12.250000 14.473960 12.250000 14.046875 C12.250000 13.619790 12.372395 13.257814 12.617188 12.960938 C12.861980 12.664061 13.161457 12.515625 13.515625 12.515625 C13.859377 12.515625 14.153645 12.664061 14.398438 12.960938 C14.643230 13.257814 14.765625 13.619790 14.765625 14.046875 C14.765625 14.473960 14.643230 14.838540 14.398438 15.140625 C14.153645 15.442710 13.859377 15.593750 13.515625 15.593750 Z M11.031250 10.437500 C10.229163 10.437500 9.463545 10.239585 8.734375 9.843750 C8.005205 9.447915 7.411461 8.929691 6.953125 8.289062 C6.494789 7.648434 6.265625 6.963545 6.265625 6.234375 C6.265625 5.942707 6.380207 5.796875 6.609375 5.796875 C6.859376 5.796875 7.145832 5.932290 7.468750 6.203125 C7.791668 6.473960 8.171873 6.609375 8.609375 6.609375 C9.036460 6.609375 9.473956 6.455731 9.921875 6.148438 C10.369794 5.841144 10.833331 5.486981 11.312500 5.085938 C11.791669 4.684894 12.294268 4.330731 12.820312 4.023438 C13.346357 3.716144 13.901039 3.562500 14.484375 3.562500 C14.661459 3.562500 14.807291 3.578125 14.921875 3.609375 C15.036459 3.640625 15.125000 3.666667 15.187500 3.687500 C15.083333 4.041668 15.007813 4.388019 14.960938 4.726562 C14.914062 5.065106 14.890625 5.385415 14.890625 5.687500 C14.890625 6.250003 14.955729 6.742185 15.085938 7.164062 C15.216146 7.585940 15.369791 7.895832 15.546875 8.093750 C15.432291 8.354168 15.174481 8.669269 14.773438 9.039062 C14.372394 9.408856 13.854170 9.734374 13.218750 10.015625 C12.583330 10.296876 11.854171 10.437500 11.031250 10.437500 Z M28.343750 31.343750 L27.984375 24.984375 L27.265625 21.203125 L25.078125 14.859375 L21.906250 9.640625 L19.000000 7.125000 L18.453125 4.812500 L20.171875 5.406250 C21.015629 5.697918 21.843746 5.895833 22.656250 6.000000 C23.468754 6.104167 24.205726 6.216145 24.867188 6.335938 C25.528649 6.455730 26.054686 6.669269 26.445312 6.976562 C26.835939 7.283856 27.031250 7.791663 27.031250 8.500000 C27.031250 9.010419 26.942709 9.473956 26.765625 9.890625 C26.588541 10.307294 26.411459 10.677082 26.234375 11.000000 C26.057291 11.322918 25.968750 11.614582 25.968750 11.875000 C25.968750 12.166668 26.104165 12.416666 26.375000 12.625000 C26.645835 12.833334 26.981769 13.036457 27.382812 13.234375 C27.783856 13.432293 28.184894 13.658853 28.585938 13.914062 C28.986981 14.169272 29.322915 14.489581 29.593750 14.875000 C29.864585 15.260419 30.000000 15.755205 30.000000 16.359375 C30.000000 16.973961 29.875001 17.510414 29.625000 17.968750 C29.374999 18.427086 29.125001 18.822915 28.875000 19.156250 C28.624999 19.489585 28.500000 19.781249 28.500000 20.031250 C28.500000 20.260418 28.624999 20.468749 28.875000 20.656250 C29.125001 20.843751 29.416665 21.039061 29.750000 21.242188 C30.083335 21.445314 30.374999 21.692707 30.625000 21.984375 C30.875001 22.276043 31.000000 22.645831 31.000000 23.093750 C31.000000 23.531252 30.890626 23.960935 30.671875 24.382812 C30.453124 24.804690 30.231772 25.221352 30.007812 25.632812 C29.783853 26.044273 29.671875 26.453123 29.671875 26.859375 C29.671875 27.192710 29.739583 27.541665 29.875000 27.906250 C30.010417 28.270835 30.078125 28.666665 30.078125 29.093750 C30.078125 29.687503 29.908856 30.210935 29.570312 30.664062 C29.231769 31.117190 28.822919 31.343750 28.343750 31.343750 Z M35.812500 27.343750" /></svg>