<svg version="1.1" xmlns="http://www.w3.org/2000/svg" style="fill:rgba(0,0,0,1.0)" width="256" height="256" viewBox="0 0 36.890625 32.8125"><path fill="rgb(255, 255, 255)" d="M0.000000 32.812500 L0.000000 5.890625 L10.156250 5.890625 L10.156250 7.453125 L1.562500 7.453125 L1.562500 31.250000 L31.593750 31.250000 L31.593750 7.453125 L23.000000 7.453125 L23.000000 5.890625 L33.156250 5.890625 L33.156250 32.812500 Z M8.765625 32.031250 L8.765625 27.343750 L11.890625 27.343750 L11.890625 32.031250 Z M2.656250 20.890625 L2.656250 18.703125 L4.843750 18.703125 L4.843750 20.890625 Z M12.828125 32.031250 L12.828125 27.343750 L16.109375 27.343750 L16.109375 32.031250 Z M6.093750 20.890625 L6.093750 18.703125 L8.281250 18.703125 L8.281250 20.890625 Z M2.656250 16.046875 L2.656250 13.859375 L4.843750 13.859375 L4.843750 16.046875 Z M17.046875 32.031250 L17.046875 27.343750 L20.328125 27.343750 L20.328125 32.031250 Z M6.093750 16.046875 L6.093750 13.859375 L8.281250 13.859375 L8.281250 16.046875 Z M21.265625 32.031250 L21.265625 27.343750 L24.390625 27.343750 L24.390625 32.031250 Z M2.656250 11.203125 L2.656250 9.015625 L4.843750 9.015625 L4.843750 11.203125 Z M12.343750 23.875000 L12.343750 20.750000 L20.812500 20.750000 L20.812500 23.875000 Z M6.093750 11.203125 L6.093750 9.015625 L8.281250 9.015625 L8.281250 11.203125 Z M12.343750 18.562500 L12.343750 15.437500 L20.812500 15.437500 L20.812500 18.562500 Z M5.031250 28.125000 L5.031250 23.125000 L9.375000 23.125000 L9.375000 -0.000000 L23.781250 -0.000000 L23.781250 23.125000 L28.125000 23.125000 L28.125000 28.125000 Z M6.593750 26.562500 L26.562500 26.562500 L26.562500 24.687500 L22.218750 24.687500 L22.218750 1.562500 L10.937500 1.562500 L10.937500 24.687500 L6.593750 24.687500 Z M24.875000 20.890625 L24.875000 18.703125 L27.062500 18.703125 L27.062500 20.890625 Z M15.093750 12.000000 L15.093750 8.875000 L12.343750 8.875000 L12.343750 5.937500 L15.093750 5.937500 L15.093750 2.812500 L18.062500 2.812500 L18.062500 5.937500 L20.812500 5.937500 L20.812500 8.875000 L18.062500 8.875000 L18.062500 12.000000 Z M28.312500 20.890625 L28.312500 18.703125 L30.500000 18.703125 L30.500000 20.890625 Z M24.875000 16.046875 L24.875000 13.859375 L27.062500 13.859375 L27.062500 16.046875 Z M28.312500 16.046875 L28.312500 13.859375 L30.500000 13.859375 L30.500000 16.046875 Z M24.875000 11.203125 L24.875000 9.015625 L27.062500 9.015625 L27.062500 11.203125 Z M28.312500 11.203125 L28.312500 9.015625 L30.500000 9.015625 L30.500000 11.203125 Z M36.890625 27.343750" /></svg>