<svg version="1.1" xmlns="http://www.w3.org/2000/svg" style="fill:rgba(0,0,0,1.0)" width="256" height="256" viewBox="0 0 37.34375 32.8125"><path fill="rgb(255, 255, 255)" d="M16.281250 32.812500 C13.958322 32.812500 11.807302 32.570315 9.828125 32.085938 C7.848948 31.601560 6.122403 30.927088 4.648438 30.062500 C3.174472 29.197912 2.031254 28.182298 1.218750 27.015625 C0.406246 25.848952 0.000000 24.578132 0.000000 23.203125 C0.000000 21.963535 0.328122 20.768235 0.984375 19.617188 C1.640628 18.466140 2.536453 17.515629 3.671875 16.765625 L5.421875 16.765625 C5.098957 17.463545 4.885417 18.002602 4.781250 18.382812 C4.677083 18.763023 4.625000 19.182289 4.625000 19.640625 C4.625000 21.234383 5.122391 22.609369 6.117188 23.765625 C7.111984 24.921881 8.536449 25.815101 10.390625 26.445312 C12.244801 27.075524 14.458320 27.390625 17.031250 27.390625 C19.614596 27.390625 21.830720 27.075524 23.679688 26.445312 C25.528655 25.815101 26.950516 24.921881 27.945312 23.765625 C28.940109 22.609369 29.437500 21.234383 29.437500 19.640625 C29.437500 19.182289 29.388021 18.763023 29.289062 18.382812 C29.190104 18.002602 28.973960 17.463545 28.640625 16.765625 L30.390625 16.765625 C31.536464 17.515629 32.434893 18.466140 33.085938 19.617188 C33.736982 20.768235 34.062500 21.963535 34.062500 23.203125 C34.062500 24.578132 33.656254 25.848952 32.843750 27.015625 C32.031246 28.182298 30.888028 29.197912 29.414062 30.062500 C27.940097 30.927088 26.216156 31.601560 24.242188 32.085938 C22.268219 32.570315 20.114595 32.812500 17.781250 32.812500 Z M6.437500 21.859375 C6.625001 21.046871 6.765625 20.281254 6.859375 19.562500 C6.953125 18.843746 7.000000 18.166670 7.000000 17.531250 C7.000000 16.583329 6.867189 15.638026 6.601562 14.695312 C6.335936 13.752599 6.067710 12.796880 5.796875 11.828125 C5.526040 10.859370 5.390625 9.869797 5.390625 8.859375 C5.390625 6.536447 6.817694 4.375010 9.671875 2.375000 L11.375000 2.375000 C11.187499 3.187504 11.046875 3.953121 10.953125 4.671875 C10.859375 5.390629 10.812500 6.067705 10.812500 6.703125 C10.812500 7.640630 10.947915 8.583329 11.218750 9.531250 C11.489585 10.479171 11.757811 11.434891 12.023438 12.398438 C12.289064 13.361984 12.421875 14.354162 12.421875 15.375000 C12.421875 17.697928 10.994806 19.859365 8.140625 21.859375 Z M13.750000 21.859375 C13.916667 21.046871 14.052083 20.192713 14.156250 19.296875 C14.260417 18.401037 14.312500 17.635420 14.312500 17.000000 C14.312500 15.833328 14.158856 14.703130 13.851562 13.609375 C13.544269 12.515620 13.239585 11.442714 12.937500 10.390625 C12.635415 9.338536 12.484375 8.302088 12.484375 7.281250 C12.484375 5.916660 12.854163 4.653652 13.593750 3.492188 C14.333337 2.330723 15.515617 1.166673 17.140625 -0.000000 L19.000000 -0.000000 C18.833332 0.812504 18.697917 1.666662 18.593750 2.562500 C18.489583 3.458338 18.437500 4.223955 18.437500 4.859375 C18.437500 6.015631 18.588540 7.143224 18.890625 8.242188 C19.192710 9.341151 19.497394 10.414057 19.804688 11.460938 C20.111981 12.507818 20.265625 13.546870 20.265625 14.578125 C20.265625 15.942715 19.895837 17.203119 19.156250 18.359375 C18.416663 19.515631 17.234383 20.682286 15.609375 21.859375 Z M22.046875 21.859375 C22.234376 21.046871 22.375000 20.281254 22.468750 19.562500 C22.562500 18.843746 22.609375 18.166670 22.609375 17.531250 C22.609375 16.583329 22.476564 15.638026 22.210938 14.695312 C21.945311 13.752599 21.677085 12.796880 21.406250 11.828125 C21.135415 10.859370 21.000000 9.869797 21.000000 8.859375 C21.000000 6.536447 22.427069 4.375010 25.281250 2.375000 L26.984375 2.375000 C26.796874 3.187504 26.656250 3.953121 26.562500 4.671875 C26.468750 5.390629 26.421875 6.067705 26.421875 6.703125 C26.421875 7.640630 26.554686 8.583329 26.820312 9.531250 C27.085939 10.479171 27.354165 11.434891 27.625000 12.398438 C27.895835 13.361984 28.031250 14.354162 28.031250 15.375000 C28.031250 17.697928 26.604181 19.859365 23.750000 21.859375 Z M37.343750 27.343750" /></svg>