<svg version="1.1" xmlns="http://www.w3.org/2000/svg" style="fill:rgba(0,0,0,1.0)" width="256" height="256" viewBox="0 0 35.46875 32.8125"><path fill="rgb(255, 255, 255)" d="M14.093750 29.140625 C10.499982 29.140625 7.880217 27.854180 6.234375 25.281250 C4.588533 22.708320 3.765625 18.682319 3.765625 13.203125 C3.765625 12.473955 4.111976 11.804691 4.804688 11.195312 C5.497399 10.585934 6.445306 10.067710 7.648438 9.640625 C8.851569 9.213540 10.213534 8.921876 11.734375 8.765625 L13.125000 10.390625 C11.812493 10.453125 10.588547 10.630207 9.453125 10.921875 C8.317703 11.213543 7.398441 11.562498 6.695312 11.968750 C5.992184 12.375002 5.640625 12.786456 5.640625 13.203125 C5.640625 13.526043 5.874998 13.846353 6.343750 14.164062 C6.812502 14.481772 7.447913 14.770832 8.250000 15.031250 C9.052087 15.291668 9.958328 15.499999 10.968750 15.656250 C11.979172 15.812501 13.020828 15.890625 14.093750 15.890625 C15.177089 15.890625 16.221349 15.812501 17.226562 15.656250 C18.231776 15.499999 19.135413 15.291668 19.937500 15.031250 C20.739587 14.770832 21.374998 14.481772 21.843750 14.164062 C22.312502 13.846353 22.546875 13.526043 22.546875 13.203125 C22.546875 12.776040 22.177087 12.354169 21.437500 11.937500 C20.697913 11.520831 19.734381 11.166668 18.546875 10.875000 C17.359369 10.583332 16.083340 10.416667 14.718750 10.375000 L14.937500 8.656250 C16.708342 8.718750 18.309889 8.958331 19.742188 9.375000 C21.174486 9.791669 22.312496 10.333330 23.156250 11.000000 C24.000004 11.666670 24.421875 12.401038 24.421875 13.203125 C24.421875 18.682319 23.598967 22.708320 21.953125 25.281250 C20.307283 27.854180 17.687518 29.140625 14.093750 29.140625 Z M14.093750 32.812500 C12.083323 32.812500 10.221363 32.656252 8.507812 32.343750 C6.794262 32.031248 5.302090 31.596357 4.031250 31.039062 C2.760410 30.481768 1.770837 29.828129 1.062500 29.078125 C0.354163 28.328121 0.000000 27.510421 0.000000 26.625000 C0.000000 25.656245 0.492183 24.760421 1.476562 23.937500 C2.460942 23.114579 3.765617 22.510419 5.390625 22.125000 L6.015625 23.578125 C4.786452 23.921877 3.789066 24.374997 3.023438 24.937500 C2.257809 25.500003 1.875000 26.062497 1.875000 26.625000 C1.875000 27.208336 2.208330 27.768226 2.875000 28.304688 C3.541670 28.841149 4.447911 29.317706 5.593750 29.734375 C6.739589 30.151044 8.044264 30.481770 9.507812 30.726562 C10.971361 30.971355 12.499992 31.093750 14.093750 31.093750 C15.687508 31.093750 17.216139 30.971355 18.679688 30.726562 C20.143236 30.481770 21.447911 30.151044 22.593750 29.734375 C23.739589 29.317706 24.645830 28.841149 25.312500 28.304688 C25.979170 27.768226 26.312500 27.208336 26.312500 26.625000 C26.312500 26.062497 25.929691 25.500003 25.164062 24.937500 C24.398434 24.374997 23.401048 23.921877 22.171875 23.578125 L22.796875 22.125000 C24.421883 22.510419 25.726558 23.114579 26.710938 23.937500 C27.695317 24.760421 28.187500 25.656245 28.187500 26.625000 C28.187500 27.510421 27.833337 28.328121 27.125000 29.078125 C26.416663 29.828129 25.427090 30.481768 24.156250 31.039062 C22.885410 31.596357 21.393238 32.031248 19.679688 32.343750 C17.966137 32.656252 16.104177 32.812500 14.093750 32.812500 Z M9.953125 23.937500 C9.807291 24.031250 9.651042 24.059896 9.484375 24.023438 C9.317708 23.986979 9.187500 23.885418 9.093750 23.718750 C8.729165 23.072913 8.427085 22.395837 8.187500 21.687500 C7.947915 20.979163 7.828125 20.229171 7.828125 19.437500 C7.828125 18.989581 8.036456 18.765625 8.453125 18.765625 C8.630209 18.765625 8.778645 18.828124 8.898438 18.953125 C9.018230 19.078126 9.083333 19.239582 9.093750 19.437500 C9.125000 20.125003 9.226562 20.768226 9.398438 21.367188 C9.570313 21.966149 9.817707 22.536456 10.140625 23.078125 C10.359376 23.432293 10.296877 23.718749 9.953125 23.937500 Z M14.093750 27.421875 C15.937509 27.421875 17.453119 27.031254 18.640625 26.250000 C19.828131 25.468746 20.731768 24.231779 21.351562 22.539062 C21.971357 20.846346 22.348958 18.625014 22.484375 15.875000 C21.546870 16.447920 20.346361 16.906248 18.882812 17.250000 C17.419264 17.593752 15.822925 17.765625 14.093750 17.765625 C12.364575 17.765625 10.768236 17.593752 9.304688 17.250000 C7.841139 16.906248 6.640630 16.447920 5.703125 15.875000 C5.838542 18.625014 6.216143 20.846346 6.835938 22.539062 C7.455732 24.231779 8.361973 25.468746 9.554688 26.250000 C10.747402 27.031254 12.260408 27.421875 14.093750 27.421875 Z M22.265625 28.515625 C22.109374 28.515625 21.973959 28.460938 21.859375 28.351562 C21.744791 28.242187 21.687500 28.114584 21.687500 27.968750 C21.687500 27.749999 21.796874 27.546876 22.015625 27.359375 C22.286460 27.130207 22.513020 26.882814 22.695312 26.617188 C22.877605 26.351561 23.005208 26.119793 23.078125 25.921875 C23.255209 25.494790 23.505207 25.281250 23.828125 25.281250 C24.005209 25.281250 24.143229 25.338541 24.242188 25.453125 C24.341146 25.567709 24.390625 25.713541 24.390625 25.890625 C24.390625 26.203127 24.270835 26.565102 24.031250 26.976562 C23.791665 27.388023 23.505210 27.747394 23.171875 28.054688 C22.838540 28.361981 22.536460 28.515625 22.265625 28.515625 Z M14.125000 16.921875 L6.390625 14.859375 C6.796877 14.515623 7.403642 14.195314 8.210938 13.898438 C9.018233 13.601561 9.958328 13.359376 11.031250 13.171875 C12.104172 12.984374 13.239577 12.890625 14.437500 12.890625 C16.208342 12.890625 17.729160 13.085936 19.000000 13.476562 C20.270840 13.867189 21.208330 14.312498 21.812500 14.812500 Z M22.937500 21.687500 L22.937500 19.687500 C24.760426 19.614583 26.080725 19.395835 26.898438 19.031250 C27.716150 18.666665 28.125000 18.104170 28.125000 17.343750 C28.125000 16.708330 27.817711 16.263022 27.203125 16.007812 C26.588539 15.752603 25.515633 15.625000 23.984375 15.625000 L23.984375 13.531250 C26.098969 13.531250 27.682286 13.848955 28.734375 14.484375 C29.786464 15.119795 30.312500 16.072910 30.312500 17.343750 C30.312500 18.718757 29.700527 19.765621 28.476562 20.484375 C27.252598 21.203129 25.406262 21.604166 22.937500 21.687500 Z M15.781250 12.375000 C14.208325 11.947915 12.994796 11.338546 12.140625 10.546875 C11.286454 9.755204 10.859375 8.843755 10.859375 7.812500 C10.859375 7.104163 11.039061 6.500003 11.398438 6.000000 C11.757814 5.499997 12.223955 5.072918 12.796875 4.718750 C13.369795 4.364582 13.976559 4.054689 14.617188 3.789062 C15.257816 3.523436 15.864580 3.276043 16.437500 3.046875 C17.010420 2.817707 17.476561 2.578126 17.835938 2.328125 C18.195314 2.078124 18.375000 1.791668 18.375000 1.468750 C18.375000 1.270832 18.296876 1.046876 18.140625 0.796875 C17.984374 0.546874 17.755210 0.281251 17.453125 -0.000000 C18.921882 -0.000000 20.096350 0.338538 20.976562 1.015625 C21.856775 1.692712 22.296875 2.583328 22.296875 3.687500 C22.296875 4.458337 22.125002 5.080727 21.781250 5.554688 C21.437498 6.028648 20.994794 6.403644 20.453125 6.679688 C19.911456 6.955731 19.338545 7.184895 18.734375 7.367188 C18.130205 7.549480 17.557294 7.726562 17.015625 7.898438 C16.473956 8.070313 16.031252 8.289061 15.687500 8.554688 C15.343748 8.820314 15.171875 9.187498 15.171875 9.656250 C15.171875 9.916668 15.213541 10.229165 15.296875 10.593750 C15.380209 10.958335 15.541665 11.552079 15.781250 12.375000 Z M13.656250 10.281250 C13.645833 10.187500 13.635417 10.093750 13.625000 10.000000 C13.614583 9.906250 13.609375 9.817709 13.609375 9.734375 C13.609375 9.098955 13.781248 8.583335 14.125000 8.187500 C14.468752 7.791665 14.911456 7.466147 15.453125 7.210938 C15.994794 6.955728 16.570309 6.726564 17.179688 6.523438 C17.789066 6.320311 18.364581 6.101564 18.906250 5.867188 C19.447919 5.632811 19.890623 5.343752 20.234375 5.000000 C20.578127 4.656248 20.750000 4.208336 20.750000 3.656250 C20.750000 3.312498 20.651043 2.992189 20.453125 2.695312 C20.255207 2.398436 19.989585 2.171876 19.656250 2.015625 C19.656250 2.026042 19.656250 2.039062 19.656250 2.054688 C19.656250 2.070313 19.656250 2.088542 19.656250 2.109375 C19.656250 2.651044 19.411461 3.101561 18.921875 3.460938 C18.432289 3.820314 17.830733 4.138019 17.117188 4.414062 C16.403642 4.690106 15.687504 4.973957 14.968750 5.265625 C14.249996 5.557293 13.645836 5.901040 13.156250 6.296875 C12.666664 6.692710 12.421875 7.197914 12.421875 7.812500 C12.421875 8.229169 12.565103 8.627602 12.851562 9.007812 C13.138022 9.388023 13.562497 9.729165 14.125000 10.031250 Z M35.468750 27.343750" /></svg>