<svg version="1.1" xmlns="http://www.w3.org/2000/svg" style="fill:rgba(0,0,0,1.0)" width="256" height="256" viewBox="0 0 38.914773149887345 32.8125"><path fill="rgb(255, 255, 255)" d="M1.671875 32.812500 L1.671875 12.015625 L0.187500 9.437500 C0.062499 9.229166 0.052083 9.028647 0.156250 8.835938 C0.260417 8.643228 0.437499 8.546875 0.687500 8.546875 L6.906250 8.546875 L6.906250 10.109375 L2.359375 10.109375 L3.234375 11.578125 L3.234375 31.250000 L13.843750 31.250000 L13.843750 25.546875 L5.265625 25.546875 L5.265625 21.015625 L32.109375 21.015625 L32.109375 25.546875 L23.531250 25.546875 L23.531250 31.250000 L34.140625 31.250000 L34.140625 11.578125 L35.015625 10.109375 L30.468750 10.109375 L30.468750 8.546875 L36.687500 8.546875 C36.937501 8.546875 37.114583 8.643228 37.218750 8.835938 C37.322917 9.028647 37.312501 9.229166 37.187500 9.437500 L35.703125 12.015625 L35.703125 32.812500 Z M4.765625 32.031250 L4.765625 30.000000 L6.703125 30.000000 L6.703125 32.031250 Z M5.734375 30.171875 C5.401040 30.171875 5.125001 30.036460 4.906250 29.765625 C4.687499 29.494790 4.578125 29.140627 4.578125 28.703125 C4.578125 28.369790 4.638020 28.020835 4.757812 27.656250 C4.877605 27.291665 5.028645 26.984376 5.210938 26.734375 C5.393230 26.484374 5.567708 26.359375 5.734375 26.359375 C5.901042 26.359375 6.075520 26.484374 6.257812 26.734375 C6.440105 26.984376 6.593749 27.291665 6.718750 27.656250 C6.843751 28.020835 6.906250 28.369790 6.906250 28.703125 C6.906250 29.140627 6.794272 29.494790 6.570312 29.765625 C6.346353 30.036460 6.067710 30.171875 5.734375 30.171875 Z M9.000000 32.031250 L9.000000 24.765625 L10.875000 24.765625 L10.875000 32.031250 Z M4.171875 20.109375 L4.171875 17.609375 L5.265625 17.609375 L5.265625 20.109375 Z M15.250000 31.250000 L17.984375 31.250000 L17.984375 25.546875 L15.250000 25.546875 Z M4.171875 16.359375 L4.171875 13.859375 L5.265625 13.859375 L5.265625 16.359375 Z M8.546875 19.921875 L8.546875 17.421875 L9.640625 17.421875 L9.640625 19.921875 Z M19.390625 31.250000 L22.125000 31.250000 L22.125000 25.546875 L19.390625 25.546875 Z M2.359375 12.453125 L2.359375 11.046875 L6.906250 11.046875 L6.906250 12.453125 Z M8.546875 16.171875 L8.546875 13.671875 L9.640625 13.671875 L9.640625 16.171875 Z M6.828125 23.984375 L30.546875 23.984375 L30.546875 22.578125 L6.828125 22.578125 Z M8.546875 12.421875 L8.546875 9.921875 L9.640625 9.921875 L9.640625 12.421875 Z M26.500000 32.031250 L26.500000 24.765625 L28.375000 24.765625 L28.375000 32.031250 Z M30.671875 32.031250 L30.671875 30.000000 L32.609375 30.000000 L32.609375 32.031250 Z M31.640625 30.171875 C31.307290 30.171875 31.028647 30.036460 30.804688 29.765625 C30.580728 29.494790 30.468750 29.140627 30.468750 28.703125 C30.468750 28.369790 30.531249 28.020835 30.656250 27.656250 C30.781251 27.291665 30.934895 26.984376 31.117188 26.734375 C31.299480 26.484374 31.473958 26.359375 31.640625 26.359375 C31.817709 26.359375 31.994791 26.484374 32.171875 26.734375 C32.348959 26.984376 32.497395 27.291665 32.617188 27.656250 C32.736980 28.020835 32.796875 28.369790 32.796875 28.703125 C32.796875 29.140627 32.687501 29.494790 32.468750 29.765625 C32.249999 30.036460 31.973960 30.171875 31.640625 30.171875 Z M13.734375 18.828125 L13.734375 6.250000 L16.593750 6.250000 L16.593750 11.187500 L20.781250 11.187500 L20.781250 6.250000 L23.656250 6.250000 L23.656250 18.828125 L20.781250 18.828125 L20.781250 13.406250 L16.593750 13.406250 L16.593750 18.828125 Z M6.203125 21.796875 L6.203125 5.343750 L10.625000 5.312500 C11.135419 3.666658 12.111972 2.369796 13.554688 1.421875 C14.997403 0.473954 16.708323 -0.000000 18.687500 -0.000000 C20.666677 -0.000000 22.377597 0.473954 23.820312 1.421875 C25.263028 2.369796 26.239581 3.666658 26.750000 5.312500 L31.171875 5.343750 L31.171875 21.796875 L29.765625 21.796875 L29.765625 6.906250 L26.796875 6.875000 L26.796875 21.796875 L25.390625 21.796875 L25.390625 6.875000 C25.390625 5.864578 25.101565 4.960941 24.523438 4.164062 C23.945310 3.367184 23.153651 2.734377 22.148438 2.265625 C21.143224 1.796873 19.989590 1.562500 18.687500 1.562500 C17.395827 1.562500 16.244797 1.796873 15.234375 2.265625 C14.223953 2.734377 13.429690 3.367184 12.851562 4.164062 C12.273435 4.960941 11.984375 5.864578 11.984375 6.875000 L11.984375 21.796875 L10.578125 21.796875 L10.578125 6.875000 L7.609375 6.906250 L7.609375 21.796875 Z M27.734375 19.921875 L27.734375 17.421875 L28.828125 17.421875 L28.828125 19.921875 Z M27.734375 16.171875 L27.734375 13.671875 L28.828125 13.671875 L28.828125 16.171875 Z M32.109375 20.109375 L32.109375 17.609375 L33.203125 17.609375 L33.203125 20.109375 Z M27.734375 12.421875 L27.734375 9.921875 L28.828125 9.921875 L28.828125 12.421875 Z M32.109375 16.359375 L32.109375 13.859375 L33.203125 13.859375 L33.203125 16.359375 Z M30.468750 12.453125 L30.468750 11.046875 L35.015625 11.046875 L35.015625 12.453125 Z M39.000000 27.343750" /></svg>