<svg version="1.1" xmlns="http://www.w3.org/2000/svg" style="fill:rgba(0,0,0,1.0)" width="256" height="256" viewBox="0 0 39.6875 32.8125"><path fill="rgb(255, 255, 255)" d="M10.265625 10.875000 C10.036457 10.875000 9.828126 10.809896 9.640625 10.679688 C9.453124 10.549479 9.359375 10.369793 9.359375 10.140625 C9.359375 9.901040 9.458332 9.682293 9.656250 9.484375 L17.937500 0.812500 C18.208335 0.531249 18.463540 0.325521 18.703125 0.195312 C18.942710 0.065104 19.197915 -0.000000 19.468750 -0.000000 C19.947919 -0.000000 20.453122 0.270831 20.984375 0.812500 L29.250000 9.484375 C29.333334 9.567709 29.406250 9.666666 29.468750 9.781250 C29.531250 9.895834 29.562500 10.015624 29.562500 10.140625 C29.562500 10.369793 29.471355 10.549479 29.289062 10.679688 C29.106770 10.809896 28.901043 10.875000 28.671875 10.875000 L26.437500 10.875000 L19.468750 3.546875 L12.484375 10.875000 Z M1.781250 32.812500 L1.781250 24.453125 L3.187500 24.453125 L3.187500 31.406250 L16.984375 31.406250 L16.984375 24.687500 L18.390625 24.687500 L18.390625 32.812500 Z M8.000000 31.531250 L8.000000 26.031250 C8.000000 25.479164 8.210935 25.015627 8.632812 24.640625 C9.054690 24.265623 9.531247 24.078125 10.062500 24.078125 C10.604169 24.078125 11.088540 24.265623 11.515625 24.640625 C11.942710 25.015627 12.156250 25.479164 12.156250 26.031250 L12.156250 31.531250 Z M10.890625 28.531250 C11.026042 28.531250 11.143229 28.479167 11.242188 28.375000 C11.341146 28.270833 11.390625 28.151042 11.390625 28.015625 C11.390625 27.880208 11.341146 27.763021 11.242188 27.664062 C11.143229 27.565104 11.026042 27.515625 10.890625 27.515625 C10.755208 27.515625 10.635417 27.565104 10.531250 27.664062 C10.427083 27.763021 10.375000 27.880208 10.375000 28.015625 C10.375000 28.151042 10.427083 28.270833 10.531250 28.375000 C10.635417 28.479167 10.755208 28.531250 10.890625 28.531250 Z M3.687500 20.609375 L3.687500 16.593750 L3.390625 16.593750 L3.390625 14.578125 L5.921875 14.578125 L5.921875 16.593750 L5.625000 16.593750 L5.625000 18.593750 Z M8.906250 22.468750 L8.906250 21.187500 C8.906250 20.749998 9.015624 20.401043 9.234375 20.140625 C9.453126 19.880207 9.739582 19.750000 10.093750 19.750000 C10.458335 19.750000 10.747395 19.880207 10.960938 20.140625 C11.174480 20.401043 11.281250 20.749998 11.281250 21.187500 L11.281250 22.468750 Z M0.906250 25.062500 C0.677082 25.062500 0.468751 24.997396 0.281250 24.867188 C0.093749 24.736979 0.000000 24.557293 0.000000 24.328125 C0.000000 24.088540 0.098957 23.869793 0.296875 23.671875 L8.562500 15.000000 C8.833335 14.718749 9.088540 14.513021 9.328125 14.382812 C9.567710 14.252604 9.822915 14.187500 10.093750 14.187500 C10.364585 14.187500 10.617186 14.252604 10.851562 14.382812 C11.085939 14.513021 11.338540 14.718749 11.609375 15.000000 L19.875000 23.671875 C19.958334 23.755209 20.031250 23.854166 20.093750 23.968750 C20.156250 24.083334 20.187500 24.203124 20.187500 24.328125 C20.187500 24.557293 20.096355 24.736979 19.914062 24.867188 C19.731770 24.997396 19.526043 25.062500 19.296875 25.062500 L17.062500 25.062500 L10.093750 17.734375 L3.109375 25.062500 Z M19.140625 24.484375 L10.828125 15.765625 C10.651041 15.567707 10.513021 15.442709 10.414062 15.390625 C10.315104 15.338541 10.208334 15.312500 10.093750 15.312500 C9.979166 15.312500 9.869792 15.338541 9.765625 15.390625 C9.661458 15.442709 9.520834 15.567707 9.343750 15.765625 L1.687500 23.781250 C1.656250 23.822917 1.653646 23.864583 1.679688 23.906250 C1.705729 23.947917 1.739583 23.968750 1.781250 23.968750 L2.640625 23.968750 L10.093750 16.156250 L17.531250 23.968750 L19.359375 23.968750 Z M12.562500 16.718750 L11.156250 15.281250 L11.156250 10.265625 L12.562500 10.265625 Z M20.359375 32.812500 L20.359375 24.453125 L21.765625 24.453125 L21.765625 31.406250 L35.562500 31.406250 L35.562500 24.687500 L36.968750 24.687500 L36.968750 32.812500 Z M26.546875 31.531250 L26.546875 26.031250 C26.546875 25.479164 26.757810 25.015627 27.179688 24.640625 C27.601565 24.265623 28.078122 24.078125 28.609375 24.078125 C29.151044 24.078125 29.635415 24.265623 30.062500 24.640625 C30.489585 25.015627 30.703125 25.479164 30.703125 26.031250 L30.703125 31.531250 Z M29.437500 28.531250 C29.572917 28.531250 29.690104 28.479167 29.789062 28.375000 C29.888021 28.270833 29.937500 28.151042 29.937500 28.015625 C29.937500 27.880208 29.888021 27.763021 29.789062 27.664062 C29.690104 27.565104 29.572917 27.515625 29.437500 27.515625 C29.302083 27.515625 29.182292 27.565104 29.078125 27.664062 C28.973958 27.763021 28.921875 27.880208 28.921875 28.015625 C28.921875 28.151042 28.973958 28.270833 29.078125 28.375000 C29.182292 28.479167 29.302083 28.531250 29.437500 28.531250 Z M14.437500 18.625000 L13.062500 17.218750 L25.843750 17.218750 L24.578125 18.625000 Z M17.375000 17.343750 L17.375000 11.843750 C17.375000 11.291664 17.585935 10.828127 18.007812 10.453125 C18.429690 10.078123 18.906247 9.890625 19.437500 9.890625 C19.979169 9.890625 20.463540 10.078123 20.890625 10.453125 C21.317710 10.828127 21.531250 11.291664 21.531250 11.843750 L21.531250 17.343750 Z M20.265625 14.343750 C20.401042 14.343750 20.518229 14.291667 20.617188 14.187500 C20.716146 14.083333 20.765625 13.963542 20.765625 13.828125 C20.765625 13.692708 20.716146 13.575521 20.617188 13.476562 C20.518229 13.377604 20.401042 13.328125 20.265625 13.328125 C20.130208 13.328125 20.010417 13.377604 19.906250 13.476562 C19.802083 13.575521 19.750000 13.692708 19.750000 13.828125 C19.750000 13.963542 19.802083 14.083333 19.906250 14.187500 C20.010417 14.291667 20.130208 14.343750 20.265625 14.343750 Z M27.453125 22.468750 L27.453125 21.187500 C27.453125 20.749998 27.562499 20.401043 27.781250 20.140625 C28.000001 19.880207 28.286457 19.750000 28.640625 19.750000 C29.005210 19.750000 29.294270 19.880207 29.507812 20.140625 C29.721355 20.401043 29.828125 20.749998 29.828125 21.187500 L29.828125 22.468750 Z M19.468750 25.062500 C19.239582 25.062500 19.031251 24.997396 18.843750 24.867188 C18.656249 24.736979 18.562500 24.557293 18.562500 24.328125 C18.562500 24.088540 18.661457 23.869793 18.859375 23.671875 L27.140625 15.000000 C27.411460 14.718749 27.666665 14.513021 27.906250 14.382812 C28.145835 14.252604 28.401040 14.187500 28.671875 14.187500 C28.942710 14.187500 29.195311 14.252604 29.429688 14.382812 C29.664064 14.513021 29.916665 14.718749 30.187500 15.000000 L38.437500 23.671875 C38.520834 23.755209 38.593750 23.854166 38.656250 23.968750 C38.718750 24.083334 38.750000 24.203124 38.750000 24.328125 C38.750000 24.557293 38.658855 24.736979 38.476562 24.867188 C38.294270 24.997396 38.088543 25.062500 37.859375 25.062500 L35.640625 25.062500 L28.671875 17.734375 L21.687500 25.062500 Z M20.406250 23.968750 L21.218750 23.968750 L28.671875 16.156250 L36.109375 23.968750 L36.968750 23.968750 C37.020834 23.968750 37.057292 23.947917 37.078125 23.906250 C37.098958 23.864583 37.093750 23.822917 37.062500 23.781250 L29.406250 15.765625 C29.229166 15.567707 29.091146 15.442709 28.992188 15.390625 C28.893229 15.338541 28.786459 15.312500 28.671875 15.312500 C28.557291 15.312500 28.447917 15.338541 28.343750 15.390625 C28.239583 15.442709 28.098959 15.567707 27.921875 15.765625 L20.312500 23.750000 C20.270833 23.791667 20.260417 23.838541 20.281250 23.890625 C20.302083 23.942709 20.343750 23.968750 20.406250 23.968750 Z M13.062500 6.421875 L13.062500 2.406250 L12.765625 2.406250 L12.765625 0.390625 L15.296875 0.390625 L15.296875 2.406250 L15.000000 2.406250 L15.000000 4.406250 Z M18.281250 8.281250 L18.281250 7.000000 C18.281250 6.562498 18.390624 6.213543 18.609375 5.953125 C18.828126 5.692707 19.114582 5.562500 19.468750 5.562500 C19.833335 5.562500 20.122395 5.692707 20.335938 5.953125 C20.549480 6.213543 20.656250 6.562498 20.656250 7.000000 L20.656250 8.281250 Z M26.359375 16.656250 L26.359375 10.500000 L27.765625 10.500000 L27.765625 15.093750 Z M11.156250 9.781250 L12.015625 9.781250 L19.468750 1.968750 L26.906250 9.781250 L27.765625 9.781250 C27.817709 9.781250 27.854167 9.760417 27.875000 9.718750 C27.895833 9.677083 27.890625 9.635417 27.859375 9.593750 L20.203125 1.578125 C20.026041 1.380207 19.888021 1.255209 19.789062 1.203125 C19.690104 1.151041 19.583334 1.125000 19.468750 1.125000 C19.354166 1.125000 19.244792 1.151041 19.140625 1.203125 C19.036458 1.255209 18.895834 1.380207 18.718750 1.578125 L11.062500 9.593750 C11.031250 9.635417 11.028646 9.677083 11.054688 9.718750 C11.080729 9.760417 11.114583 9.781250 11.156250 9.781250 Z M35.062500 20.609375 L33.125000 18.593750 L33.125000 16.593750 L32.828125 16.593750 L32.828125 14.578125 L35.359375 14.578125 L35.359375 16.593750 L35.062500 16.593750 Z M39.687500 27.343750" /></svg>