<svg version="1.1" xmlns="http://www.w3.org/2000/svg" style="fill:rgba(0,0,0,1.0)" width="256" height="256" viewBox="0 0 37.265625 32.8125"><path fill="rgb(255, 255, 255)" d="M1.296875 32.812500 C0.911456 32.812500 0.598960 32.697918 0.359375 32.468750 C0.119790 32.239582 0.000000 31.947918 0.000000 31.593750 C0.000000 31.135414 0.208331 30.778647 0.625000 30.523438 C1.041669 30.268228 1.869785 29.979168 3.109375 29.656250 C4.651049 29.260415 6.343741 28.835940 8.187500 28.382812 C10.031259 27.929685 11.934886 27.473961 13.898438 27.015625 C15.861989 26.557289 17.807282 26.122398 19.734375 25.710938 C21.661468 25.299477 23.492179 24.932293 25.226562 24.609375 C26.960946 24.286457 28.518222 24.031251 29.898438 23.843750 C31.278653 23.656249 32.395829 23.562500 33.250000 23.562500 C33.468751 23.562500 33.632812 23.630208 33.742188 23.765625 C33.851563 23.901042 33.906250 24.046874 33.906250 24.203125 C33.906250 24.536460 33.729168 24.734375 33.375000 24.796875 C31.281240 25.182294 29.421883 25.539061 27.796875 25.867188 C26.171867 26.195314 24.682298 26.515623 23.328125 26.828125 C21.973952 27.140627 20.656256 27.466144 19.375000 27.804688 C18.093744 28.143231 16.757819 28.510415 15.367188 28.906250 C13.976556 29.302085 12.427092 29.749998 10.718750 30.250000 L2.953125 32.515625 C2.567706 32.619792 2.244793 32.695312 1.984375 32.742188 C1.723957 32.789063 1.494793 32.812500 1.296875 32.812500 Z M7.265625 26.078125 C6.911457 26.078125 6.604168 25.950522 6.343750 25.695312 C6.083332 25.440103 5.953125 25.140627 5.953125 24.796875 C5.953125 24.088538 6.473953 23.593751 7.515625 23.312500 C8.432296 23.072915 9.570306 22.830730 10.929688 22.585938 C12.289069 22.341145 13.749992 22.111980 15.312500 21.898438 C16.875008 21.684895 18.429680 21.494792 19.976562 21.328125 C21.523445 21.161457 22.953118 21.031250 24.265625 20.937500 C25.578132 20.843750 26.651038 20.796875 27.484375 20.796875 C27.692709 20.796875 27.880208 20.838541 28.046875 20.921875 C28.213542 21.005209 28.296875 21.177082 28.296875 21.437500 C28.296875 21.770835 28.130210 21.968750 27.796875 22.031250 L25.671875 22.375000 C24.536453 22.562501 23.257820 22.786457 21.835938 23.046875 C20.414055 23.307293 18.945320 23.588540 17.429688 23.890625 C15.914055 24.192710 14.432299 24.502603 12.984375 24.820312 C11.536451 25.138022 10.223964 25.447915 9.046875 25.750000 C8.588539 25.864584 8.229168 25.947916 7.968750 26.000000 C7.708332 26.052084 7.473959 26.078125 7.265625 26.078125 Z M2.656250 22.406250 C2.468749 22.406250 2.296876 22.322918 2.140625 22.156250 C1.984374 21.989582 1.906250 21.755210 1.906250 21.453125 C1.906250 21.046873 1.973958 20.476566 2.109375 19.742188 C2.244792 19.007809 2.432290 18.184900 2.671875 17.273438 C2.911460 16.361975 3.182290 15.442713 3.484375 14.515625 C4.036461 12.838533 4.617184 11.184904 5.226562 9.554688 C5.835941 7.924471 6.526038 6.177093 7.296875 4.312500 L2.484375 6.296875 C2.130207 6.442709 1.807293 6.515625 1.515625 6.515625 C1.182290 6.515625 0.921876 6.429688 0.734375 6.257812 C0.546874 6.085937 0.453125 5.880210 0.453125 5.640625 C0.453125 5.401040 0.541666 5.148439 0.718750 4.882812 C0.895834 4.617186 1.208331 4.380209 1.656250 4.171875 L9.593750 0.390625 C9.916668 0.234374 10.174478 0.130209 10.367188 0.078125 C10.559897 0.026041 10.723958 -0.000000 10.859375 -0.000000 C11.067709 -0.000000 11.239583 0.075520 11.375000 0.226562 C11.510417 0.377605 11.578125 0.572915 11.578125 0.812500 C11.578125 0.916667 11.565104 1.028645 11.539062 1.148438 C11.513021 1.268230 11.453125 1.442707 11.359375 1.671875 C9.567699 6.005230 8.015632 9.794255 6.703125 13.039062 C5.390618 16.283870 4.276046 19.208320 3.359375 21.812500 C3.223958 22.208335 2.989585 22.406250 2.656250 22.406250 Z M13.031250 19.546875 C11.781244 19.546875 10.802087 19.028651 10.093750 17.992188 C9.385413 16.955724 9.031250 15.557300 9.031250 13.796875 C9.031250 12.359368 9.239581 10.916674 9.656250 9.468750 C10.072919 8.020826 10.651038 6.695319 11.390625 5.492188 C12.130212 4.289056 12.984370 3.322920 13.953125 2.593750 C14.921880 1.864580 15.958328 1.500000 17.062500 1.500000 C17.583336 1.500000 17.843750 1.666665 17.843750 2.000000 C17.843750 2.166667 17.770834 2.320312 17.625000 2.460938 C17.479166 2.601563 17.244793 2.776041 16.921875 2.984375 C15.932287 3.609378 15.101566 4.369787 14.429688 5.265625 C13.757809 6.161463 13.221356 7.117182 12.820312 8.132812 C12.419269 9.148443 12.130209 10.151037 11.953125 11.140625 C11.776041 12.130213 11.687500 13.031246 11.687500 13.843750 C11.687500 14.791671 11.830728 15.567705 12.117188 16.171875 C12.403647 16.776045 12.812497 17.078125 13.343750 17.078125 C14.052087 17.078125 14.684893 16.763024 15.242188 16.132812 C15.799482 15.502601 16.270831 14.666672 16.656250 13.625000 C17.041669 12.583328 17.335936 11.429694 17.539062 10.164062 C17.742189 8.898431 17.843750 7.625006 17.843750 6.343750 C17.843750 6.010415 17.835938 5.690106 17.820312 5.382812 C17.804687 5.075519 17.781250 4.776043 17.750000 4.484375 L20.359375 3.812500 C20.421875 4.218752 20.466146 4.635415 20.492188 5.062500 C20.518229 5.489585 20.531250 5.927081 20.531250 6.375000 C20.531250 8.072925 20.375002 9.708325 20.062500 11.281250 C19.749998 12.854175 19.281253 14.263015 18.656250 15.507812 C18.031247 16.752610 17.250005 17.736976 16.312500 18.460938 C15.374995 19.184899 14.281256 19.546875 13.031250 19.546875 Z M25.265625 19.687500 C24.046869 19.687500 23.067712 19.156255 22.328125 18.093750 C21.588538 17.031245 21.218750 15.630217 21.218750 13.890625 C21.218750 12.151033 21.416665 10.518237 21.812500 8.992188 C22.208335 7.466138 22.747392 6.153651 23.429688 5.054688 C24.111983 3.955724 24.890621 3.182294 25.765625 2.734375 L26.406250 3.125000 C24.760408 3.343751 23.406255 3.627602 22.343750 3.976562 C21.281245 4.325523 20.390629 4.651040 19.671875 4.953125 C19.223956 5.140626 18.807294 5.234375 18.421875 5.234375 C18.057290 5.234375 17.776043 5.148438 17.578125 4.976562 C17.380207 4.804687 17.281250 4.598960 17.281250 4.359375 C17.281250 4.088540 17.395832 3.804689 17.625000 3.507812 C17.854168 3.210936 18.218748 2.947918 18.718750 2.718750 C19.385420 2.416665 20.195308 2.117189 21.148438 1.820312 C22.101567 1.523436 23.109370 1.278647 24.171875 1.085938 C25.234380 0.893228 26.244787 0.796875 27.203125 0.796875 C29.088551 0.796875 30.484370 1.294266 31.390625 2.289062 C32.296880 3.283859 32.750000 4.817698 32.750000 6.890625 C32.750000 8.401049 32.583335 9.908847 32.250000 11.414062 C31.916665 12.919278 31.429691 14.296869 30.789062 15.546875 C30.148434 16.796881 29.364588 17.799475 28.437500 18.554688 C27.510412 19.309900 26.453131 19.687500 25.265625 19.687500 Z M25.546875 17.218750 C26.036461 17.218750 26.541664 16.971357 27.062500 16.476562 C27.583336 15.981768 28.072914 15.276046 28.531250 14.359375 C28.989586 13.442704 29.359374 12.341152 29.640625 11.054688 C29.921876 9.768223 30.062500 8.328133 30.062500 6.734375 C30.062500 5.776037 29.921876 5.026044 29.640625 4.484375 C29.359374 3.942706 28.953128 3.671875 28.421875 3.671875 C27.942706 3.671875 27.440107 3.919268 26.914062 4.414062 C26.388018 4.908857 25.895836 5.617183 25.437500 6.539062 C24.979164 7.460942 24.609376 8.565098 24.328125 9.851562 C24.046874 11.138027 23.906250 12.578117 23.906250 14.171875 C23.906250 15.119796 24.046874 15.864581 24.328125 16.406250 C24.609376 16.947919 25.015622 17.218750 25.546875 17.218750 Z M37.265625 27.343750" /></svg>