<svg version="1.1" xmlns="http://www.w3.org/2000/svg" style="fill:rgba(0,0,0,1.0)" width="256" height="256" viewBox="0 0 37.875 32.8125"><path fill="rgb(255, 255, 255)" d="M2.671875 22.828125 C1.848954 22.828125 1.197919 22.515628 0.718750 21.890625 C0.239581 21.265622 0.000000 20.463547 0.000000 19.484375 C0.000000 18.380203 0.283851 17.138028 0.851562 15.757812 C1.419274 14.377597 2.190099 12.955736 3.164062 11.492188 C4.138026 10.028639 5.234369 8.614590 6.453125 7.250000 C7.671881 5.885410 8.940098 4.656255 10.257812 3.562500 C11.575527 2.468745 12.864577 1.601566 14.125000 0.960938 C15.385423 0.320309 16.531245 -0.000000 17.562500 -0.000000 C18.604172 -0.000000 19.752598 0.320309 21.007812 0.960938 C22.263027 1.601566 23.549473 2.468745 24.867188 3.562500 C26.184902 4.656255 27.453119 5.885410 28.671875 7.250000 C29.890631 8.614590 30.986974 10.028639 31.960938 11.492188 C32.934901 12.955736 33.705726 14.377597 34.273438 15.757812 C34.841149 17.138028 35.125000 18.380203 35.125000 19.484375 C35.125000 20.463547 34.885419 21.265622 34.406250 21.890625 C33.927081 22.515628 33.276046 22.828125 32.453125 22.828125 C32.067706 22.828125 31.721356 22.750001 31.414062 22.593750 C31.106769 22.437499 30.838543 22.213543 30.609375 21.921875 L30.921875 21.812500 C30.744791 22.166668 30.544272 22.424478 30.320312 22.585938 C30.096353 22.747397 29.822918 22.828125 29.500000 22.828125 C29.145832 22.828125 28.807293 22.742188 28.484375 22.570312 C28.161457 22.398437 27.875001 22.151043 27.625000 21.828125 L27.906250 21.718750 C27.749999 22.072918 27.528647 22.346353 27.242188 22.539062 C26.955728 22.731772 26.630210 22.828125 26.265625 22.828125 C25.942707 22.828125 25.619793 22.744793 25.296875 22.578125 C24.973957 22.411458 24.656252 22.161460 24.343750 21.828125 L24.484375 21.828125 C24.276041 22.151043 24.023439 22.398437 23.726562 22.570312 C23.429686 22.742188 23.125002 22.828125 22.812500 22.828125 C22.510415 22.828125 22.210939 22.750001 21.914062 22.593750 C21.617186 22.437499 21.354168 22.213543 21.125000 21.921875 L21.265625 21.890625 C21.088541 22.161460 20.830731 22.385416 20.492188 22.562500 C20.153644 22.739584 19.807293 22.828125 19.453125 22.828125 C19.109373 22.828125 18.760418 22.747397 18.406250 22.585938 C18.052082 22.424478 17.770834 22.213543 17.562500 21.953125 C17.354166 22.213543 17.072918 22.424478 16.718750 22.585938 C16.364582 22.747397 16.015627 22.828125 15.671875 22.828125 C15.317707 22.828125 14.971356 22.739584 14.632812 22.562500 C14.294269 22.385416 14.036459 22.161460 13.859375 21.890625 L14.000000 21.921875 C13.770832 22.213543 13.507814 22.437499 13.210938 22.593750 C12.914061 22.750001 12.614585 22.828125 12.312500 22.828125 C11.999998 22.828125 11.695314 22.742188 11.398438 22.570312 C11.101561 22.398437 10.848959 22.151043 10.640625 21.828125 L10.781250 21.828125 C10.468748 22.161460 10.153647 22.411458 9.835938 22.578125 C9.518228 22.744793 9.192710 22.828125 8.859375 22.828125 C8.494790 22.828125 8.169272 22.731772 7.882812 22.539062 C7.596353 22.346353 7.375001 22.072918 7.218750 21.718750 L7.500000 21.828125 C7.249999 22.151043 6.963543 22.398437 6.640625 22.570312 C6.317707 22.742188 5.979168 22.828125 5.625000 22.828125 C5.302082 22.828125 5.028647 22.747397 4.804688 22.585938 C4.580728 22.424478 4.380209 22.166668 4.203125 21.812500 L4.515625 21.921875 C4.286457 22.213543 4.018231 22.437499 3.710938 22.593750 C3.403644 22.750001 3.057294 22.828125 2.671875 22.828125 Z M2.890625 28.375000 L2.890625 21.750000 L4.765625 21.187500 L4.765625 28.375000 Z M1.484375 32.812500 L1.484375 27.968750 L33.640625 27.968750 L33.640625 32.812500 Z M3.359375 31.093750 L31.765625 31.093750 L31.765625 29.687500 L3.359375 29.687500 Z M14.390625 32.015625 L14.390625 24.250000 L20.734375 24.250000 L20.734375 32.015625 Z M7.187500 13.296875 L6.187500 12.828125 C6.427085 12.307289 6.645832 11.895835 6.843750 11.593750 C7.041668 11.291665 7.328123 10.932294 7.703125 10.515625 L8.515625 11.234375 C8.182290 11.619794 7.932292 11.942707 7.765625 12.203125 C7.598958 12.463543 7.406251 12.828123 7.187500 13.296875 Z M11.250000 10.484375 L10.250000 10.015625 C10.489585 9.494789 10.708332 9.083335 10.906250 8.781250 C11.104168 8.479165 11.390623 8.119794 11.765625 7.703125 L12.578125 8.421875 C12.244790 8.807294 11.994792 9.130207 11.828125 9.390625 C11.661458 9.651043 11.468751 10.015623 11.250000 10.484375 Z M2.625000 21.109375 C2.781251 21.109375 2.916666 21.088542 3.031250 21.046875 C3.145834 21.005208 3.281249 20.916667 3.437500 20.781250 L4.296875 20.015625 C4.484376 19.848957 4.645833 19.874999 4.781250 20.093750 L5.250000 20.781250 C5.343750 20.916667 5.416666 21.005208 5.468750 21.046875 C5.520834 21.088542 5.572916 21.109375 5.625000 21.109375 C5.729167 21.109375 5.958332 21.000001 6.312500 20.781250 L7.625000 19.953125 C7.791668 19.838541 7.932291 19.869791 8.046875 20.046875 L8.562500 20.781250 C8.718751 21.000001 8.864583 21.109375 9.000000 21.109375 C9.072917 21.109375 9.145833 21.088542 9.218750 21.046875 C9.291667 21.005208 9.416666 20.916667 9.593750 20.781250 L10.687500 19.953125 C10.843751 19.838541 10.979166 19.848958 11.093750 19.984375 L11.859375 20.781250 C12.078126 21.000001 12.244791 21.109375 12.359375 21.109375 C12.442709 21.109375 12.513021 21.088542 12.570312 21.046875 C12.627604 21.005208 12.739582 20.916667 12.906250 20.781250 L13.843750 19.984375 C14.000001 19.848958 14.140624 19.854166 14.265625 20.000000 L15.031250 20.781250 C15.250001 21.000001 15.468749 21.109375 15.687500 21.109375 C15.916668 21.109375 16.161457 21.000001 16.421875 20.781250 L17.359375 19.968750 C17.494792 19.854166 17.630208 19.854166 17.765625 19.968750 L18.703125 20.781250 C18.963543 21.000001 19.208332 21.109375 19.437500 21.109375 C19.656251 21.109375 19.874999 21.000001 20.093750 20.781250 L20.859375 20.000000 C20.984376 19.854166 21.124999 19.848958 21.281250 19.984375 L22.218750 20.781250 C22.385418 20.916667 22.500000 21.005208 22.562500 21.046875 C22.625000 21.088542 22.692708 21.109375 22.765625 21.109375 C22.880209 21.109375 23.046874 21.000001 23.265625 20.781250 L24.031250 19.984375 C24.145834 19.848958 24.281249 19.838541 24.437500 19.953125 L25.531250 20.781250 C25.708334 20.916667 25.833333 21.005208 25.906250 21.046875 C25.979167 21.088542 26.052083 21.109375 26.125000 21.109375 C26.260417 21.109375 26.406249 21.000001 26.562500 20.781250 L27.078125 20.046875 C27.192709 19.869791 27.333332 19.838541 27.500000 19.953125 L28.812500 20.781250 C29.166668 21.000001 29.395833 21.109375 29.500000 21.109375 C29.552084 21.109375 29.604166 21.088542 29.656250 21.046875 C29.708334 21.005208 29.781250 20.916667 29.875000 20.781250 L30.343750 20.093750 C30.479167 19.874999 30.640624 19.848957 30.828125 20.015625 L31.687500 20.781250 C31.833334 20.916667 31.966145 21.005208 32.085938 21.046875 C32.205730 21.088542 32.343749 21.109375 32.500000 21.109375 C32.760418 21.109375 32.950520 20.919273 33.070312 20.539062 C33.190105 20.158852 33.250000 19.755210 33.250000 19.328125 C33.250000 18.359370 32.984378 17.257819 32.453125 16.023438 C31.921872 14.789056 31.205734 13.510423 30.304688 12.187500 C29.403641 10.864577 28.395839 9.583340 27.281250 8.343750 C26.166661 7.104160 25.020839 5.984380 23.843750 4.984375 C22.666661 3.984370 21.533860 3.190107 20.445312 2.601562 C19.356765 2.013018 18.395838 1.718750 17.562500 1.718750 C16.729162 1.718750 15.768235 2.013018 14.679688 2.601562 C13.591140 3.190107 12.458339 3.984370 11.281250 4.984375 C10.104161 5.984380 8.958339 7.104160 7.843750 8.343750 C6.729161 9.583340 5.721359 10.864577 4.820312 12.187500 C3.919266 13.510423 3.203128 14.789056 2.671875 16.023438 C2.140622 17.257819 1.875000 18.359370 1.875000 19.328125 C1.875000 19.755210 1.934895 20.158852 2.054688 20.539062 C2.174480 20.919273 2.364582 21.109375 2.625000 21.109375 Z M30.359375 28.375000 L30.359375 21.187500 L32.234375 21.750000 L32.234375 28.375000 Z M21.859375 14.375000 C21.609374 13.322911 21.000005 12.192714 20.031250 10.984375 L20.875000 10.296875 C21.947922 11.640632 22.624999 12.911452 22.906250 14.109375 Z M26.109375 17.171875 C25.921874 16.651039 25.752605 16.252606 25.601562 15.976562 C25.450520 15.700519 25.229168 15.369794 24.937500 14.984375 L25.828125 14.328125 C26.151043 14.776044 26.398437 15.158853 26.570312 15.476562 C26.742188 15.794272 26.932291 16.234372 27.140625 16.796875 Z M22.671875 8.812500 C22.244790 7.833328 21.447922 6.822922 20.281250 5.781250 L21.000000 4.968750 C22.281256 6.083339 23.171872 7.218744 23.671875 8.375000 Z M27.828125 13.484375 C27.421873 12.526037 26.625006 11.520839 25.437500 10.468750 L26.156250 9.656250 C27.468757 10.812506 28.359373 11.953119 28.828125 13.078125 Z M37.875000 27.343750" /></svg>