<svg version="1.1" xmlns="http://www.w3.org/2000/svg" style="fill:rgba(0,0,0,1.0)" width="256" height="256" viewBox="0 0 37.265625 32.8125"><path fill="rgb(255, 255, 255)" d="M21.031250 28.828125 C19.833327 28.828125 18.778650 28.684897 17.867188 28.398438 C16.955725 28.111978 16.015630 27.770835 15.046875 27.375000 C14.276038 27.052082 13.497400 26.752606 12.710938 26.476562 C11.924475 26.200519 11.114588 26.005209 10.281250 25.890625 L10.218750 27.437500 C9.770831 27.479167 9.263024 27.510417 8.695312 27.531250 C8.127601 27.552083 7.411463 27.562500 6.546875 27.562500 C5.557287 27.562500 4.802086 27.466147 4.281250 27.273438 C3.760414 27.080728 3.395834 26.739586 3.187500 26.250000 C2.979166 25.760414 2.838542 25.083338 2.765625 24.218750 C2.744792 23.885415 2.721354 23.554689 2.695312 23.226562 C2.669271 22.898436 2.651042 22.567710 2.640625 22.234375 C2.630208 21.901040 2.625000 21.552085 2.625000 21.187500 C2.416666 20.708331 2.260417 20.216148 2.156250 19.710938 C2.052083 19.205727 2.000000 18.572920 2.000000 17.812500 C2.000000 17.322914 2.065104 16.776045 2.195312 16.171875 C2.325521 15.567705 2.505207 14.893233 2.734375 14.148438 C2.963543 13.403642 3.229165 12.578130 3.531250 11.671875 L5.656250 5.328125 C5.906251 4.588538 6.205727 4.010419 6.554688 3.593750 C6.903648 3.177081 7.453121 2.880209 8.203125 2.703125 L13.390625 1.437500 C13.682293 1.010415 14.083331 0.664064 14.593750 0.398438 C15.104169 0.132811 15.723955 -0.000000 16.453125 -0.000000 C17.421880 -0.000000 18.179685 0.299476 18.726562 0.898438 C19.273440 1.497399 19.604166 2.390619 19.718750 3.578125 L20.593750 12.484375 C20.625000 12.796877 20.812498 13.171873 21.156250 13.609375 C21.500002 14.046877 22.239578 14.687496 23.375000 15.531250 L29.765625 20.250000 C30.619796 20.562502 31.356768 20.903644 31.976562 21.273438 C32.596357 21.643231 33.072915 22.104164 33.406250 22.656250 C33.739585 23.208336 33.906250 23.921871 33.906250 24.796875 C33.906250 25.671879 33.729168 26.408851 33.375000 27.007812 C33.020832 27.606774 32.494795 28.059894 31.796875 28.367188 C31.098955 28.674481 30.234380 28.828125 29.203125 28.828125 Z M25.343750 32.812500 C23.427074 32.812500 21.489593 32.786459 19.531250 32.734375 C17.572907 32.682291 15.697926 32.617188 13.906250 32.539062 C12.114574 32.460937 10.500007 32.377605 9.062500 32.289062 C7.624993 32.200520 6.473963 32.119792 5.609375 32.046875 C4.421869 31.953125 3.414067 31.867188 2.585938 31.789062 C1.757808 31.710937 0.895838 31.614584 0.000000 31.500000 C0.052084 30.874997 0.197915 30.432293 0.437500 30.171875 C0.677085 29.911457 1.067706 29.760417 1.609375 29.718750 L3.828125 29.531250 C4.130210 29.416666 4.401040 29.119794 4.640625 28.640625 C4.880210 28.161456 5.067708 27.557295 5.203125 26.828125 L7.671875 26.890625 C7.671875 27.619795 7.710937 28.190102 7.789062 28.601562 C7.867188 29.013023 8.093748 29.390623 8.468750 29.734375 L21.437500 30.437500 C22.000003 30.197915 22.348958 29.942710 22.484375 29.671875 C22.619792 29.401040 22.687500 28.973961 22.687500 28.390625 L24.765625 28.265625 C24.765625 28.786461 24.820312 29.234373 24.929688 29.609375 C25.039063 29.984377 25.296873 30.307290 25.703125 30.578125 L29.750000 30.578125 C30.104168 30.578125 30.398436 30.471355 30.632812 30.257812 C30.867189 30.044270 30.984375 29.791668 30.984375 29.500000 C30.984375 29.281249 30.916667 29.065105 30.781250 28.851562 C30.645833 28.638020 30.447918 28.473959 30.187500 28.359375 L31.656250 27.953125 C32.270836 28.432294 32.721353 29.119787 33.007812 30.015625 C33.294272 30.911463 33.437500 31.755204 33.437500 32.546875 C32.427078 32.619792 31.500004 32.677083 30.656250 32.718750 C29.812496 32.760417 28.971358 32.786458 28.132812 32.796875 C27.294267 32.807292 26.364588 32.812500 25.343750 32.812500 Z M32.578125 25.734375 C31.848955 25.796875 31.041671 25.846354 30.156250 25.882812 C29.270829 25.919271 28.364588 25.937500 27.437500 25.937500 C26.239577 25.937500 25.057298 25.903646 23.890625 25.835938 C22.723952 25.768229 21.677088 25.666667 20.750000 25.531250 C19.791662 25.385416 18.700527 25.174481 17.476562 24.898438 C16.252598 24.622394 14.971361 24.304689 13.632812 23.945312 C12.294264 23.585936 10.960944 23.208335 9.632812 22.812500 C8.304681 22.416665 7.054693 22.031252 5.882812 21.656250 C4.710932 21.281248 3.687504 20.937502 2.812500 20.625000 L3.156250 19.093750 C4.302089 19.500002 5.635409 19.945310 7.156250 20.429688 C8.677091 20.914065 10.260408 21.390623 11.906250 21.859375 C13.552092 22.328127 15.161450 22.749998 16.734375 23.125000 C18.307300 23.500002 19.718744 23.786457 20.968750 23.984375 C21.822921 24.119792 22.838536 24.216146 24.015625 24.273438 C25.192714 24.330729 26.380202 24.359375 27.578125 24.359375 C28.484380 24.359375 29.364579 24.343750 30.218750 24.312500 C31.072921 24.281250 31.833330 24.239584 32.500000 24.187500 Z M20.750000 19.296875 C20.354165 19.296875 20.033855 19.177085 19.789062 18.937500 C19.544270 18.697915 19.421875 18.380210 19.421875 17.984375 C19.421875 17.588540 19.544270 17.268230 19.789062 17.023438 C20.033855 16.778645 20.354165 16.656250 20.750000 16.656250 C21.145835 16.656250 21.463540 16.778645 21.703125 17.023438 C21.942710 17.268230 22.062500 17.588540 22.062500 17.984375 C22.062500 18.380210 21.942710 18.697915 21.703125 18.937500 C21.463540 19.177085 21.145835 19.296875 20.750000 19.296875 Z M23.843750 22.078125 C23.447915 22.078125 23.127605 21.958335 22.882812 21.718750 C22.638020 21.479165 22.515625 21.161460 22.515625 20.765625 C22.515625 20.369790 22.638020 20.049480 22.882812 19.804688 C23.127605 19.559895 23.447915 19.437500 23.843750 19.437500 C24.239585 19.437500 24.557290 19.559895 24.796875 19.804688 C25.036460 20.049480 25.156250 20.369790 25.156250 20.765625 C25.156250 21.161460 25.036460 21.479165 24.796875 21.718750 C24.557290 21.958335 24.239585 22.078125 23.843750 22.078125 Z M18.031250 16.156250 C17.635415 16.156250 17.315105 16.036460 17.070312 15.796875 C16.825520 15.557290 16.703125 15.239585 16.703125 14.843750 C16.703125 14.447915 16.825520 14.127605 17.070312 13.882812 C17.315105 13.638020 17.635415 13.515625 18.031250 13.515625 C18.427085 13.515625 18.744790 13.638020 18.984375 13.882812 C19.223960 14.127605 19.343750 14.447915 19.343750 14.843750 C19.343750 15.239585 19.223960 15.557290 18.984375 15.796875 C18.744790 16.036460 18.427085 16.156250 18.031250 16.156250 Z M21.031250 26.953125 L29.156250 26.953125 C29.791670 26.953125 30.322915 26.872397 30.750000 26.710938 C31.177085 26.549478 31.497395 26.307293 31.710938 25.984375 C31.924480 25.661457 32.031250 25.260419 32.031250 24.781250 C32.031250 24.083330 31.695316 23.455732 31.023438 22.898438 C30.351559 22.341143 29.500005 21.916668 28.468750 21.625000 L22.187500 16.968750 C21.166662 16.208330 20.359378 15.520836 19.765625 14.906250 C19.171872 14.291664 18.833334 13.598962 18.750000 12.828125 L17.843750 3.625000 C17.791666 3.052080 17.640626 2.617189 17.390625 2.320312 C17.140624 2.023436 16.776044 1.875000 16.296875 1.875000 C15.869790 1.875000 15.497397 1.984374 15.179688 2.203125 C14.861978 2.421876 14.598959 2.729165 14.390625 3.125000 L8.781250 4.468750 C8.427082 4.552084 8.156251 4.690103 7.968750 4.882812 C7.781249 5.075522 7.604168 5.421872 7.437500 5.921875 L5.421875 11.921875 C5.078123 12.942713 4.791668 13.812496 4.562500 14.531250 C4.333332 15.250004 4.161459 15.869789 4.046875 16.390625 C3.932291 16.911461 3.875000 17.385415 3.875000 17.812500 C3.875000 18.541670 3.919270 19.096352 4.007812 19.476562 C4.096355 19.856773 4.255207 20.322914 4.484375 20.875000 C4.484375 21.135418 4.489583 21.479165 4.500000 21.906250 C4.510417 22.333335 4.531250 22.778644 4.562500 23.242188 C4.593750 23.705731 4.630208 24.135415 4.671875 24.531250 C4.723959 24.916669 4.809895 25.190103 4.929688 25.351562 C5.049480 25.513022 5.236978 25.609375 5.492188 25.640625 C5.747397 25.671875 6.098956 25.687500 6.546875 25.687500 C6.859377 25.687500 7.174478 25.677083 7.492188 25.656250 C7.809897 25.635417 8.124998 25.609375 8.437500 25.578125 L8.500000 23.906250 C9.802090 23.906250 10.994786 24.057290 12.078125 24.359375 C13.161464 24.661460 14.395826 25.093747 15.781250 25.656250 C16.625004 26.000002 17.460933 26.302082 18.289062 26.562500 C19.117192 26.822918 20.031245 26.953125 21.031250 26.953125 Z M21.312500 18.718750 L20.109375 17.296875 L23.609375 14.296875 L24.828125 15.734375 Z M16.234375 11.796875 C15.838540 11.796875 15.518230 11.677085 15.273438 11.437500 C15.028645 11.197915 14.906250 10.880210 14.906250 10.484375 C14.906250 10.088540 15.028645 9.768230 15.273438 9.523438 C15.518230 9.278645 15.838540 9.156250 16.234375 9.156250 C16.630210 9.156250 16.947915 9.278645 17.187500 9.523438 C17.427085 9.768230 17.546875 10.088540 17.546875 10.484375 C17.546875 10.880210 17.427085 11.197915 17.187500 11.437500 C16.947915 11.677085 16.630210 11.796875 16.234375 11.796875 Z M24.500000 21.343750 L23.109375 20.078125 L26.250000 16.593750 L27.656250 17.843750 Z M18.734375 15.515625 L17.765625 13.921875 L21.625000 11.609375 L22.593750 13.203125 Z M16.656250 11.343750 L16.187500 9.531250 L20.906250 8.328125 L21.375000 10.140625 Z M15.390625 7.921875 C14.994790 7.921875 14.674480 7.802085 14.429688 7.562500 C14.184895 7.322915 14.062500 7.005210 14.062500 6.609375 C14.062500 6.213540 14.184895 5.893230 14.429688 5.648438 C14.674480 5.403645 14.994790 5.281250 15.390625 5.281250 C15.786460 5.281250 16.104165 5.403645 16.343750 5.648438 C16.583335 5.893230 16.703125 6.213540 16.703125 6.609375 C16.703125 7.005210 16.583335 7.322915 16.343750 7.562500 C16.104165 7.802085 15.786460 7.921875 15.390625 7.921875 Z M15.593750 7.531250 L15.187500 5.687500 L20.421875 4.531250 L20.828125 6.375000 Z M37.265625 27.343750" /></svg>