<svg version="1.1" xmlns="http://www.w3.org/2000/svg" style="fill:rgba(0,0,0,1.0)" width="256" height="256" viewBox="0 0 38.75 25.0"><path fill="rgb(255, 255, 255)" d="M4.265625 25.000000 C3.463538 25.000000 2.739587 24.812502 2.093750 24.437500 C1.447913 24.062498 0.937502 23.552087 0.562500 22.906250 C0.187498 22.260413 0.000000 21.536462 0.000000 20.734375 L0.000000 4.265625 C0.000000 3.453121 0.187498 2.726566 0.562500 2.085938 C0.937502 1.445309 1.447913 0.937502 2.093750 0.562500 C2.739587 0.187498 3.463538 -0.000000 4.265625 -0.000000 L32.609375 -0.000000 C33.411462 -0.000000 34.135413 0.187498 34.781250 0.562500 C35.427087 0.937502 35.937498 1.445309 36.312500 2.085938 C36.687502 2.726566 36.875000 3.453121 36.875000 4.265625 L36.875000 20.734375 C36.875000 21.536462 36.687502 22.260413 36.312500 22.906250 C35.937498 23.552087 35.429691 24.062498 34.789062 24.437500 C34.148434 24.812502 33.421879 25.000000 32.609375 25.000000 Z M4.734375 19.312500 C4.661458 19.156249 4.625000 18.963543 4.625000 18.734375 C4.625000 18.255206 4.908851 17.859377 5.476562 17.546875 C6.044274 17.234373 6.812495 17.052084 7.781250 17.000000 C7.114580 16.874999 6.591148 16.533857 6.210938 15.976562 C5.830727 15.419268 5.640625 14.713546 5.640625 13.859375 C5.640625 12.880203 5.882810 12.104170 6.367188 11.531250 C6.851565 10.958330 7.505204 10.671875 8.328125 10.671875 C9.161462 10.671875 9.820310 10.958330 10.304688 11.531250 C10.789065 12.104170 11.031250 12.880203 11.031250 13.859375 C11.031250 14.713546 10.841148 15.419268 10.460938 15.976562 C10.080727 16.533857 9.552087 16.874999 8.875000 17.000000 C9.854172 17.052084 10.627601 17.234373 11.195312 17.546875 C11.763024 17.859377 12.046875 18.255206 12.046875 18.734375 C12.046875 18.963543 12.010417 19.156249 11.937500 19.312500 Z M4.546875 20.390625 C4.234373 20.390625 3.971355 20.283855 3.757812 20.070312 C3.544270 19.856770 3.437500 19.593752 3.437500 19.281250 L3.437500 9.156250 C3.437500 8.843748 3.544270 8.580730 3.757812 8.367188 C3.971355 8.153645 4.234373 8.046875 4.546875 8.046875 L12.125000 8.046875 C12.437502 8.046875 12.700520 8.153645 12.914062 8.367188 C13.127605 8.580730 13.234375 8.843748 13.234375 9.156250 L13.234375 19.281250 C13.234375 19.593752 13.127605 19.856770 12.914062 20.070312 C12.700520 20.283855 12.437502 20.390625 12.125000 20.390625 Z M5.234375 18.984375 L11.437500 18.984375 C11.697918 18.984375 11.828125 18.854168 11.828125 18.593750 L11.828125 9.843750 C11.828125 9.583332 11.697918 9.453125 11.437500 9.453125 L5.234375 9.453125 C4.973957 9.453125 4.843750 9.583332 4.843750 9.843750 L4.843750 18.593750 C4.843750 18.854168 4.973957 18.984375 5.234375 18.984375 Z M14.796875 20.390625 L14.796875 18.828125 L20.937500 18.828125 L20.937500 20.390625 Z M14.796875 16.796875 L14.796875 15.234375 L22.671875 15.234375 L22.671875 16.796875 Z M4.265625 23.281250 L32.609375 23.281250 C33.296878 23.281250 33.867185 23.028648 34.320312 22.523438 C34.773440 22.018227 35.000000 21.421878 35.000000 20.734375 L35.000000 5.078125 L1.875000 5.078125 L1.875000 20.734375 C1.875000 21.421878 2.101560 22.018227 2.554688 22.523438 C3.007815 23.028648 3.578122 23.281250 4.265625 23.281250 Z M14.796875 13.203125 L14.796875 11.640625 L26.625000 11.640625 L26.625000 13.203125 Z M14.796875 9.609375 L14.796875 8.046875 L23.859375 8.046875 L23.859375 9.609375 Z M38.750000 23.437500" /></svg>