<svg version="1.1" xmlns="http://www.w3.org/2000/svg" style="fill:rgba(0,0,0,1.0)" width="256" height="256" viewBox="0 0 37.96875 33.59375"><path fill="rgb(255, 255, 255)" d="M17.656250 33.593750 C15.281238 33.593750 13.085948 33.184900 11.070312 32.367188 C9.054677 31.549475 7.302091 30.401049 5.812500 28.921875 C4.322909 27.442701 3.164067 25.705739 2.335938 23.710938 C1.507808 21.716136 1.093750 19.541678 1.093750 17.187500 C1.093750 16.166662 1.174478 15.179692 1.335938 14.226562 C1.497397 13.273433 1.729165 12.359379 2.031250 11.484375 C1.333330 9.765616 0.820314 8.164070 0.492188 6.679688 C0.164061 5.195305 0.000000 3.734382 0.000000 2.296875 C0.000000 1.630205 0.161457 1.080731 0.484375 0.648438 C0.807293 0.216144 1.197914 -0.000000 1.656250 -0.000000 C2.218753 -0.000000 2.822913 0.338538 3.468750 1.015625 C4.093753 1.682295 4.747392 2.263018 5.429688 2.757812 C6.111983 3.252607 6.807288 3.671873 7.515625 4.015625 C8.901049 2.994787 10.450512 2.200524 12.164062 1.632812 C13.877613 1.065101 15.708324 0.781250 17.656250 0.781250 C19.614593 0.781250 21.450512 1.065101 23.164062 1.632812 C24.877613 2.200524 26.421868 2.994787 27.796875 4.015625 C28.505212 3.671873 29.197913 3.250003 29.875000 2.750000 C30.552087 2.249997 31.208330 1.671878 31.843750 1.015625 C32.489587 0.338538 33.093747 -0.000000 33.656250 -0.000000 C34.114586 -0.000000 34.505207 0.216144 34.828125 0.648438 C35.151043 1.080731 35.312500 1.630205 35.312500 2.296875 C35.312500 3.734382 35.148439 5.195305 34.820312 6.679688 C34.492186 8.164070 33.979170 9.765616 33.281250 11.484375 C33.583335 12.359379 33.815103 13.273433 33.976562 14.226562 C34.138022 15.179692 34.218750 16.166662 34.218750 17.187500 C34.218750 19.541678 33.804692 21.716136 32.976562 23.710938 C32.148433 25.705739 30.989591 27.442701 29.500000 28.921875 C28.010409 30.401049 26.257823 31.549475 24.242188 32.367188 C22.226552 33.184900 20.031262 33.593750 17.656250 33.593750 Z M12.703125 27.453125 L11.609375 26.140625 C13.661469 24.421866 15.677073 23.562500 17.656250 23.562500 C19.635427 23.562500 21.651031 24.421866 23.703125 26.140625 L22.609375 27.453125 C20.859366 26.005201 19.208341 25.281250 17.656250 25.281250 C16.104159 25.281250 14.453134 26.005201 12.703125 27.453125 Z M12.750000 21.187500 C12.145830 21.187500 11.630210 20.942711 11.203125 20.453125 C10.776040 19.963539 10.562500 19.375003 10.562500 18.687500 C10.562500 18.322915 10.627604 17.979168 10.757812 17.656250 C10.888021 17.333332 11.062499 17.057293 11.281250 16.828125 C10.874998 16.619791 10.494793 16.442709 10.140625 16.296875 C9.786457 16.151041 9.432293 16.020834 9.078125 15.906250 L9.609375 14.265625 C10.755214 14.651044 11.851557 15.138018 12.898438 15.726562 C13.945318 16.315107 14.953120 17.020829 15.921875 17.843750 L14.921875 19.046875 C14.911458 19.109375 14.901042 19.174479 14.890625 19.242188 C14.880208 19.309896 14.864583 19.380208 14.843750 19.453125 C14.739583 19.963544 14.486981 20.380207 14.085938 20.703125 C13.684894 21.026043 13.239586 21.187500 12.750000 21.187500 Z M17.656250 31.875000 C19.770844 31.875000 21.721345 31.507816 23.507812 30.773438 C25.294280 30.039059 26.846348 29.013027 28.164062 27.695312 C29.481777 26.377598 30.507809 24.822926 31.242188 23.031250 C31.976566 21.239574 32.343750 19.291677 32.343750 17.187500 C32.343750 16.114578 32.244793 15.080734 32.046875 14.085938 C31.848957 13.091141 31.567710 12.151046 31.203125 11.265625 C31.942712 9.817701 32.499998 8.341153 32.875000 6.835938 C33.250002 5.330722 33.437500 3.817716 33.437500 2.296875 C33.437500 2.244791 33.429688 2.203125 33.414062 2.171875 C33.398437 2.140625 33.369792 2.125000 33.328125 2.125000 C33.286458 2.125000 33.239584 2.151041 33.187500 2.203125 C32.364579 3.119796 31.484380 3.885414 30.546875 4.500000 C29.609370 5.114586 28.572922 5.619790 27.437500 6.015625 C26.166660 4.901036 24.700529 4.036461 23.039062 3.421875 C21.377596 2.807289 19.583343 2.500000 17.656250 2.500000 C15.739574 2.500000 13.950529 2.809893 12.289062 3.429688 C10.627596 4.049482 9.156256 4.911453 7.875000 6.015625 C6.739578 5.619790 5.703130 5.114586 4.765625 4.500000 C3.828120 3.885414 2.947921 3.119796 2.125000 2.203125 C2.072916 2.151041 2.026042 2.125000 1.984375 2.125000 C1.942708 2.125000 1.914063 2.140625 1.898438 2.171875 C1.882812 2.203125 1.875000 2.244791 1.875000 2.296875 C1.875000 3.817716 2.062498 5.330722 2.437500 6.835938 C2.812502 8.341153 3.369788 9.817701 4.109375 11.265625 C3.744790 12.161463 3.463543 13.104162 3.265625 14.093750 C3.067707 15.083338 2.968750 16.114578 2.968750 17.187500 C2.968750 19.291677 3.335934 21.239574 4.070312 23.031250 C4.804691 24.822926 5.830723 26.377598 7.148438 27.695312 C8.466152 29.013027 10.020824 30.039059 11.812500 30.773438 C13.604176 31.507816 15.552073 31.875000 17.656250 31.875000 Z M22.562500 21.187500 C22.072914 21.187500 21.630210 21.026043 21.234375 20.703125 C20.838540 20.380207 20.583334 19.963544 20.468750 19.453125 C20.458333 19.380208 20.445313 19.309896 20.429688 19.242188 C20.414062 19.174479 20.401042 19.109375 20.390625 19.046875 L19.390625 17.843750 C20.359380 17.020829 21.369786 16.315107 22.421875 15.726562 C23.473964 15.138018 24.567703 14.651044 25.703125 14.265625 L26.234375 15.906250 C25.880207 16.020834 25.526043 16.151041 25.171875 16.296875 C24.817707 16.442709 24.437502 16.619791 24.031250 16.828125 C24.250001 17.057293 24.424479 17.333332 24.554688 17.656250 C24.684896 17.979168 24.750000 18.322915 24.750000 18.687500 C24.750000 19.375003 24.539065 19.963539 24.117188 20.453125 C23.695310 20.942711 23.177086 21.187500 22.562500 21.187500 Z M37.968750 28.125000" /></svg>