<svg version="1.1" xmlns="http://www.w3.org/2000/svg" style="fill:rgba(0,0,0,1.0)" width="256" height="256" viewBox="0 0 37.109375 32.96875"><path fill="rgb(255, 255, 255)" d="M13.531250 32.968750 C12.385411 32.968750 11.190110 32.736981 9.945312 32.273438 C8.700515 31.809894 7.489589 31.187504 6.312500 30.406250 C5.135411 29.624996 4.070317 28.747401 3.117188 27.773438 C2.164058 26.799474 1.406253 25.796880 0.843750 24.765625 C0.281247 23.734370 0.000000 22.744796 0.000000 21.796875 C0.000000 21.057288 0.075520 20.468752 0.226562 20.031250 C0.377605 19.593748 0.565103 19.244793 0.789062 18.984375 C1.013022 18.723957 1.234374 18.481772 1.453125 18.257812 C1.671876 18.033853 1.856770 17.765627 2.007812 17.453125 C2.158855 17.140623 2.234375 16.713544 2.234375 16.171875 C2.234375 15.348954 2.348957 14.684898 2.578125 14.179688 C2.807293 13.674477 3.093748 13.276043 3.437500 12.984375 C3.781252 12.692707 4.122394 12.447918 4.460938 12.250000 C4.799481 12.052082 5.083332 11.854168 5.312500 11.656250 C5.541668 11.458332 5.656250 11.197918 5.656250 10.875000 C5.656250 9.812495 5.914060 8.846359 6.429688 7.976562 C6.945315 7.106766 7.630204 6.411461 8.484375 5.890625 C9.338546 5.369789 10.270828 5.109375 11.281250 5.109375 C11.552085 5.109375 11.687500 4.958335 11.687500 4.656250 C11.687500 3.895830 11.932289 3.158858 12.421875 2.445312 C12.911461 1.731767 13.570308 1.145836 14.398438 0.687500 C15.226567 0.229164 16.145828 -0.000000 17.156250 -0.000000 C18.833342 -0.000000 20.184891 0.565099 21.210938 1.695312 C22.236984 2.825526 22.750000 4.359365 22.750000 6.296875 C22.750000 8.057300 22.320317 9.437495 21.460938 10.437500 C20.601558 11.437505 19.442716 11.937500 17.984375 11.937500 C17.911458 11.937500 17.833334 11.937500 17.750000 11.937500 C17.666666 11.937500 17.583334 11.932292 17.500000 11.921875 L18.453125 11.437500 C19.567714 12.385421 20.591141 13.348953 21.523438 14.328125 C22.455734 15.307297 23.260413 16.255204 23.937500 17.171875 C24.614587 18.088546 25.138019 18.942704 25.507812 19.734375 C25.877606 20.526046 26.062500 21.208330 26.062500 21.781250 C26.062500 22.541670 25.880210 23.234372 25.515625 23.859375 C25.151040 24.484378 24.664066 24.989581 24.054688 25.375000 C23.445309 25.760419 22.760420 25.973958 22.000000 26.015625 C21.968750 26.786462 21.752606 27.484372 21.351562 28.109375 C20.950519 28.734378 20.416670 29.229165 19.750000 29.593750 C19.083330 29.958335 18.343754 30.140625 17.531250 30.140625 C17.531250 30.609377 17.335939 31.059894 16.945312 31.492188 C16.554686 31.924481 16.054691 32.278644 15.445312 32.554688 C14.835934 32.830731 14.197920 32.968750 13.531250 32.968750 Z M20.859375 26.031250 C17.338524 23.635405 14.276055 20.770850 11.671875 17.437500 L12.890625 16.468750 C15.380221 19.656266 18.328108 22.416655 21.734375 24.750000 Z M13.531250 31.250000 C14.166670 31.250000 14.697915 31.109376 15.125000 30.828125 C15.552085 30.546874 15.807291 30.182294 15.890625 29.734375 C14.692702 29.286456 13.343758 28.421881 11.843750 27.140625 C10.343742 25.859369 8.796883 24.244801 7.203125 22.296875 L8.421875 21.296875 C9.317713 22.390630 10.205725 23.377600 11.085938 24.257812 C11.966150 25.138025 12.807288 25.888018 13.609375 26.507812 C14.411462 27.127607 15.148434 27.601561 15.820312 27.929688 C16.492191 28.257814 17.067706 28.421875 17.546875 28.421875 C18.328129 28.421875 18.979164 28.161461 19.500000 27.640625 C20.020836 27.119789 20.281250 26.416671 20.281250 25.531250 L20.968750 24.359375 C22.177089 24.359375 23.015623 24.106773 23.484375 23.601562 C23.953127 23.096352 24.187500 22.489587 24.187500 21.781250 C24.187500 21.312498 23.979169 20.690108 23.562500 19.914062 C23.145831 19.138017 22.562504 18.273442 21.812500 17.320312 C21.062496 16.367183 20.182297 15.385422 19.171875 14.375000 C18.161453 13.364578 17.067714 12.395838 15.890625 11.468750 C14.567702 10.822913 13.734377 9.609384 13.390625 7.828125 L15.078125 7.484375 C15.255209 8.348963 15.575519 9.020831 16.039062 9.500000 C16.502606 9.979169 17.156246 10.218750 18.000000 10.218750 C18.937505 10.218750 19.651039 9.888024 20.140625 9.226562 C20.630211 8.565101 20.875000 7.588548 20.875000 6.296875 C20.875000 4.817701 20.552087 3.684900 19.906250 2.898438 C19.260413 2.111975 18.343756 1.718750 17.156250 1.718750 C16.458330 1.718750 15.825524 1.861978 15.257812 2.148438 C14.690101 2.434897 14.239585 2.830727 13.906250 3.335938 C13.572915 3.841148 13.406250 4.416663 13.406250 5.062500 C13.406250 5.583336 13.247397 6.007811 12.929688 6.335938 C12.611978 6.664064 12.114587 6.828125 11.437500 6.828125 C10.687496 6.828125 10.005211 7.010415 9.390625 7.375000 C8.776039 7.739585 8.286460 8.226559 7.921875 8.835938 C7.557290 9.445316 7.375000 10.124996 7.375000 10.875000 C7.375000 11.479170 7.260418 11.953123 7.031250 12.296875 C6.802082 12.640627 6.518231 12.921874 6.179688 13.140625 C5.841144 13.359376 5.500002 13.580728 5.156250 13.804688 C4.812498 14.028647 4.526043 14.320311 4.296875 14.679688 C4.067707 15.039064 3.953125 15.536455 3.953125 16.171875 C3.953125 16.932295 3.848959 17.567706 3.640625 18.078125 C3.432291 18.588544 3.190106 19.033852 2.914062 19.414062 C2.638019 19.794273 2.395834 20.166665 2.187500 20.531250 C1.979166 20.895835 1.875000 21.317706 1.875000 21.796875 C1.875000 22.546879 2.122393 23.351558 2.617188 24.210938 C3.111982 25.070317 3.776038 25.914058 4.609375 26.742188 C5.442712 27.570317 6.369787 28.325517 7.390625 29.007812 C8.411463 29.690108 9.453120 30.234373 10.515625 30.640625 C11.578130 31.046877 12.583329 31.250000 13.531250 31.250000 Z M25.171875 20.562500 L24.046875 19.468750 C24.828129 18.666663 25.776036 18.265625 26.890625 18.265625 C27.661462 18.265625 28.374997 18.479165 29.031250 18.906250 L28.187500 20.218750 C27.791665 19.958332 27.359377 19.828125 26.890625 19.828125 C26.213538 19.828125 25.640627 20.072914 25.171875 20.562500 Z M24.281250 19.218750 L23.250000 18.062500 C23.802086 17.562498 24.078125 16.953129 24.078125 16.234375 C24.078125 15.859373 24.000001 15.510418 23.843750 15.187500 L25.250000 14.500000 C25.510418 15.052086 25.640625 15.630205 25.640625 16.234375 C25.640625 17.432298 25.187505 18.427079 24.281250 19.218750 Z M23.578125 30.437500 C22.838538 30.437500 22.171878 30.231773 21.578125 29.820312 C20.984372 29.408852 20.546876 28.885420 20.265625 28.250000 L21.687500 26.359375 C21.739584 27.161462 21.942707 27.755206 22.296875 28.140625 C22.651043 28.526044 23.078122 28.718750 23.578125 28.718750 C24.057294 28.718750 24.471352 28.531252 24.820312 28.156250 C25.169273 27.781248 25.513019 27.346357 25.851562 26.851562 C26.190106 26.356768 26.567706 25.937502 26.984375 25.593750 L27.671875 25.031250 C28.182294 24.614581 28.679685 24.304689 29.164062 24.101562 C29.648440 23.898436 30.083331 23.695314 30.468750 23.492188 C30.854169 23.289061 31.158853 22.981773 31.382812 22.570312 C31.606772 22.158852 31.718750 21.536462 31.718750 20.703125 C31.718750 19.609370 31.466148 18.622400 30.960938 17.742188 C30.455727 16.861975 29.835941 16.067712 29.101562 15.359375 C28.367184 14.651038 27.643233 14.010420 26.929688 13.437500 C26.216142 12.864580 25.645835 12.333336 25.218750 11.843750 L24.921875 11.500000 C24.651040 11.187498 24.356772 10.763024 24.039062 10.226562 C23.721353 9.690101 23.401043 9.122399 23.078125 8.523438 C22.755207 7.924476 22.447918 7.367190 22.156250 6.851562 C21.864582 6.335935 21.604168 5.942710 21.375000 5.671875 L21.375000 2.609375 C22.062503 3.473963 22.682289 4.395828 23.234375 5.375000 C23.786461 6.354172 24.309893 7.281246 24.804688 8.156250 C25.299482 9.031254 25.791664 9.755205 26.281250 10.328125 L26.578125 10.671875 C26.765626 10.890626 27.124997 11.208331 27.656250 11.625000 C28.187503 12.041669 28.786455 12.552080 29.453125 13.156250 C30.119795 13.760420 30.768226 14.445309 31.398438 15.210938 C32.028649 15.976566 32.552081 16.820308 32.968750 17.742188 C33.385419 18.664067 33.593750 19.651036 33.593750 20.703125 C33.593750 21.828131 33.403648 22.713538 33.023438 23.359375 C32.643227 24.005212 32.177086 24.505207 31.625000 24.859375 C31.072914 25.213543 30.533857 25.494791 30.007812 25.703125 C29.481768 25.911459 29.067710 26.135415 28.765625 26.375000 L28.078125 26.937500 C27.786457 27.177085 27.505210 27.489581 27.234375 27.875000 C26.963540 28.260419 26.666668 28.651040 26.343750 29.046875 C26.020832 29.442710 25.638023 29.773436 25.195312 30.039062 C24.752602 30.304689 24.213545 30.437500 23.578125 30.437500 Z M15.421875 6.593750 L14.109375 5.750000 C14.692711 4.843745 15.369788 4.174481 16.140625 3.742188 C16.911462 3.309894 17.864578 3.062500 19.000000 3.000000 L19.093750 4.562500 C18.208329 4.604167 17.489586 4.778644 16.937500 5.085938 C16.385414 5.393231 15.880211 5.895830 15.421875 6.593750 Z M37.109375 27.421875" /></svg>