<svg version="1.1" xmlns="http://www.w3.org/2000/svg" style="fill:rgba(0,0,0,1.0)" width="256" height="256" viewBox="0 0 36.71875 32.8125"><path fill="rgb(255, 255, 255)" d="M2.750000 32.812500 C1.999996 32.812500 1.354169 32.544274 0.812500 32.007812 C0.270831 31.471351 0.000000 30.833337 0.000000 30.093750 L0.000000 2.734375 C0.000000 1.984371 0.268226 1.341149 0.804688 0.804688 C1.341149 0.268226 1.984371 -0.000000 2.734375 -0.000000 L30.078125 -0.000000 C30.828129 -0.000000 31.471351 0.268226 32.007812 0.804688 C32.544274 1.341149 32.812500 1.984371 32.812500 2.734375 L32.812500 30.078125 C32.812500 30.828129 32.544274 31.471351 32.007812 32.007812 C31.471351 32.544274 30.828129 32.812500 30.078125 32.812500 Z M9.093750 24.953125 C8.802082 24.953125 8.567709 24.869792 8.390625 24.703125 C8.213541 24.536457 8.125000 24.333335 8.125000 24.093750 C8.125000 23.916666 8.164062 23.750001 8.242188 23.593750 C8.320313 23.437499 8.442708 23.296876 8.609375 23.171875 L10.046875 24.640625 C9.963541 24.713542 9.838542 24.783854 9.671875 24.851562 C9.505208 24.919271 9.312501 24.953125 9.093750 24.953125 Z M8.875000 26.781250 C9.510420 26.781250 10.018227 26.705730 10.398438 26.554688 C10.778648 26.403645 11.130207 26.229168 11.453125 26.031250 L12.031250 26.671875 L14.984375 26.671875 L13.109375 24.828125 C13.411460 24.473957 13.690103 24.031253 13.945312 23.500000 C14.200522 22.968747 14.390624 22.411461 14.515625 21.828125 L12.140625 21.828125 C12.088541 22.109376 12.010417 22.382811 11.906250 22.648438 C11.802083 22.914064 11.677084 23.151041 11.531250 23.359375 L10.359375 22.234375 C10.817711 21.963540 11.192707 21.648439 11.484375 21.289062 C11.776043 20.929686 11.921875 20.500002 11.921875 20.000000 C11.921875 19.354163 11.684898 18.854168 11.210938 18.500000 C10.736977 18.145832 10.098962 17.968750 9.296875 17.968750 C8.411454 17.968750 7.739586 18.158852 7.281250 18.539062 C6.822914 18.919273 6.593750 19.406247 6.593750 20.000000 C6.593750 20.385419 6.661458 20.731769 6.796875 21.039062 C6.932292 21.346356 7.119790 21.635415 7.359375 21.906250 C6.848956 22.166668 6.453126 22.497394 6.171875 22.898438 C5.890624 23.299481 5.750000 23.755206 5.750000 24.265625 C5.750000 24.953128 6.018226 25.544268 6.554688 26.039062 C7.091149 26.533857 7.864578 26.781250 8.875000 26.781250 Z M9.171875 20.984375 C9.036458 20.859374 8.916667 20.718751 8.812500 20.562500 C8.708333 20.406249 8.656250 20.239584 8.656250 20.062500 C8.656250 19.854166 8.716145 19.700521 8.835938 19.601562 C8.955730 19.502604 9.098958 19.453125 9.265625 19.453125 C9.432292 19.453125 9.570312 19.494791 9.679688 19.578125 C9.789063 19.661459 9.843750 19.802082 9.843750 20.000000 C9.843750 20.187501 9.786459 20.367187 9.671875 20.539062 C9.557291 20.710938 9.390626 20.859374 9.171875 20.984375 Z M9.015625 14.171875 L11.343750 14.171875 L11.343750 10.234375 L13.437500 10.234375 L13.437500 8.328125 L6.921875 8.328125 L6.921875 10.234375 L9.015625 10.234375 Z M19.406250 22.828125 C20.083337 22.828125 20.658852 22.593752 21.132812 22.125000 C21.606773 21.656248 21.843750 21.088545 21.843750 20.421875 C21.843750 19.755205 21.606773 19.190106 21.132812 18.726562 C20.658852 18.263019 20.083337 18.031250 19.406250 18.031250 C18.729163 18.031250 18.156252 18.263019 17.687500 18.726562 C17.218748 19.190106 16.984375 19.755205 16.984375 20.421875 C16.984375 21.088545 17.218748 21.656248 17.687500 22.125000 C18.156252 22.593752 18.729163 22.828125 19.406250 22.828125 Z M19.406250 21.250000 C19.177082 21.250000 18.989584 21.169272 18.843750 21.007812 C18.697916 20.846353 18.625000 20.651043 18.625000 20.421875 C18.625000 20.182290 18.697916 19.986980 18.843750 19.835938 C18.989584 19.684895 19.177082 19.609375 19.406250 19.609375 C19.635418 19.609375 19.825520 19.684895 19.976562 19.835938 C20.127605 19.986980 20.203125 20.182290 20.203125 20.421875 C20.203125 20.651043 20.127605 20.846353 19.976562 21.007812 C19.825520 21.169272 19.635418 21.250000 19.406250 21.250000 Z M18.796875 26.671875 L20.734375 26.671875 L26.593750 18.078125 L24.656250 18.078125 Z M25.984375 26.718750 C26.661462 26.718750 27.234373 26.486981 27.703125 26.023438 C28.171877 25.559894 28.406250 24.994795 28.406250 24.328125 C28.406250 23.661455 28.171877 23.093752 27.703125 22.625000 C27.234373 22.156248 26.661462 21.921875 25.984375 21.921875 C25.307288 21.921875 24.731773 22.156248 24.257812 22.625000 C23.783852 23.093752 23.546875 23.661455 23.546875 24.328125 C23.546875 24.994795 23.783852 25.559894 24.257812 26.023438 C24.731773 26.486981 25.307288 26.718750 25.984375 26.718750 Z M25.984375 25.140625 C25.755207 25.140625 25.565105 25.062501 25.414062 24.906250 C25.263020 24.749999 25.187500 24.557293 25.187500 24.328125 C25.187500 24.088540 25.263020 23.890626 25.414062 23.734375 C25.565105 23.578124 25.755207 23.500000 25.984375 23.500000 C26.213543 23.500000 26.401041 23.578124 26.546875 23.734375 C26.692709 23.890626 26.765625 24.088540 26.765625 24.328125 C26.765625 24.557293 26.692709 24.749999 26.546875 24.906250 C26.401041 25.062501 26.213543 25.140625 25.984375 25.140625 Z M6.921875 7.484375 L13.437500 7.484375 L13.437500 5.578125 L6.921875 5.578125 Z M21.546875 14.468750 C22.317712 14.468750 22.895831 14.278648 23.281250 13.898438 C23.666669 13.518227 23.859375 12.963545 23.859375 12.234375 L23.859375 7.765625 L25.953125 7.093750 L25.953125 4.421875 L21.828125 5.640625 L21.828125 10.984375 C21.755208 10.973958 21.684896 10.966146 21.617188 10.960938 C21.549479 10.955729 21.473959 10.953125 21.390625 10.953125 C20.786455 10.953125 20.299481 11.122394 19.929688 11.460938 C19.559894 11.799481 19.375000 12.213539 19.375000 12.703125 C19.375000 13.192711 19.588540 13.609373 20.015625 13.953125 C20.442710 14.296877 20.953122 14.468750 21.546875 14.468750 Z M36.718750 27.343750" /></svg>