<svg version="1.1" xmlns="http://www.w3.org/2000/svg" style="fill:rgba(0,0,0,1.0)" width="256" height="256" viewBox="0 0 36.71875 32.8125"><path fill="rgb(255, 255, 255)" d="M15.093750 27.000000 C16.979176 26.145829 18.432287 25.169276 19.453125 24.070312 C20.473963 22.971349 21.179686 21.664070 21.570312 20.148438 C21.960939 18.632805 22.156250 16.833344 22.156250 14.750000 L22.156250 13.921875 L24.468750 13.921875 C25.052086 13.921875 25.546873 13.929687 25.953125 13.945312 C26.359377 13.960938 26.661457 13.979167 26.859375 14.000000 L26.859375 11.421875 C26.630207 11.463542 26.317710 11.500000 25.921875 11.531250 C25.526040 11.562500 25.031253 11.578125 24.437500 11.578125 L22.156250 11.578125 L22.156250 8.765625 C22.156250 8.276039 22.174479 7.846356 22.210938 7.476562 C22.247396 7.106769 22.281250 6.833334 22.312500 6.656250 L19.562500 6.656250 C19.593750 6.822917 19.622396 7.093748 19.648438 7.468750 C19.674479 7.843752 19.687500 8.276039 19.687500 8.765625 L19.687500 11.578125 L13.296875 11.578125 L13.296875 8.781250 C13.296875 8.333331 13.315104 7.940106 13.351562 7.601562 C13.388021 7.263019 13.416667 7.010417 13.437500 6.843750 L10.703125 6.843750 C10.755209 7.166668 10.791667 7.494790 10.812500 7.828125 C10.833333 8.161460 10.843750 8.479165 10.843750 8.781250 L10.843750 11.578125 L8.484375 11.578125 C7.921872 11.578125 7.398440 11.554688 6.914062 11.507812 C6.429685 11.460937 6.109376 11.416667 5.953125 11.375000 L5.953125 14.015625 C6.151043 13.994792 6.479164 13.973958 6.937500 13.953125 C7.395836 13.932292 7.911455 13.921875 8.484375 13.921875 L10.843750 13.921875 L10.843750 17.562500 C10.843750 18.072919 10.830729 18.528644 10.804688 18.929688 C10.778646 19.330731 10.755208 19.656249 10.734375 19.906250 L13.421875 19.906250 C13.390625 19.656249 13.361979 19.325523 13.335938 18.914062 C13.309896 18.502602 13.296875 18.052086 13.296875 17.562500 L13.296875 13.921875 L19.687500 13.921875 L19.687500 14.890625 C19.687500 16.494800 19.552085 17.851557 19.281250 18.960938 C19.010415 20.070318 18.601565 21.002600 18.054688 21.757812 C17.507810 22.513025 16.817712 23.148435 15.984375 23.664062 C15.151038 24.179690 14.166672 24.645831 13.031250 25.062500 Z M2.750000 32.812500 C1.999996 32.812500 1.354169 32.544274 0.812500 32.007812 C0.270831 31.471351 0.000000 30.833337 0.000000 30.093750 L0.000000 2.734375 C0.000000 1.984371 0.268226 1.341149 0.804688 0.804688 C1.341149 0.268226 1.984371 -0.000000 2.734375 -0.000000 L30.078125 -0.000000 C30.828129 -0.000000 31.471351 0.268226 32.007812 0.804688 C32.544274 1.341149 32.812500 1.984371 32.812500 2.734375 L32.812500 30.078125 C32.812500 30.828129 32.544274 31.471351 32.007812 32.007812 C31.471351 32.544274 30.828129 32.812500 30.078125 32.812500 Z M36.718750 27.343750" /></svg>