<svg version="1.1" xmlns="http://www.w3.org/2000/svg" style="fill:rgba(0,0,0,1.0)" width="256" height="256" viewBox="0 0 36.71875 32.8125"><path fill="rgb(255, 255, 255)" d="M12.671875 19.656250 L12.671875 17.531250 L22.250000 17.531250 L22.250000 19.656250 Z M10.421875 26.312500 L12.671875 26.312500 L12.671875 21.593750 L22.250000 21.593750 L22.250000 23.656250 C22.250000 23.989585 22.062502 24.156250 21.687500 24.156250 C21.489582 24.156250 21.065107 24.153646 20.414062 24.148438 C19.763018 24.143229 19.083337 24.125000 18.375000 24.093750 C18.520834 24.406252 18.664062 24.776040 18.804688 25.203125 C18.945313 25.630210 19.036458 25.999998 19.078125 26.312500 C20.098963 26.312500 20.958330 26.294271 21.656250 26.257812 C22.354170 26.221354 22.921873 26.119792 23.359375 25.953125 C23.796877 25.776041 24.091145 25.507814 24.242188 25.148438 C24.393230 24.789061 24.468750 24.307295 24.468750 23.703125 L24.468750 11.468750 L12.937500 11.468750 C13.177085 11.083331 13.398436 10.692710 13.601562 10.296875 C13.804689 9.901040 13.994791 9.494794 14.171875 9.078125 L27.281250 9.078125 L27.281250 6.921875 L15.093750 6.921875 C15.250001 6.494790 15.401041 6.072919 15.546875 5.656250 C15.692709 5.239581 15.833333 4.822919 15.968750 4.406250 L13.625000 3.843750 C13.489583 4.354169 13.338542 4.867185 13.171875 5.382812 C13.005208 5.898440 12.817709 6.411456 12.609375 6.921875 L5.890625 6.921875 L5.890625 9.078125 L11.656250 9.078125 C10.895830 10.588549 9.981776 12.013014 8.914062 13.351562 C7.846349 14.690111 6.619799 15.822912 5.234375 16.750000 C5.473960 16.958334 5.744790 17.236977 6.046875 17.585938 C6.348960 17.934898 6.583332 18.239582 6.750000 18.500000 C7.437503 18.010414 8.085934 17.481774 8.695312 16.914062 C9.304691 16.346351 9.880206 15.744795 10.421875 15.109375 Z M12.671875 15.593750 L12.671875 13.500000 L22.250000 13.500000 L22.250000 15.593750 Z M2.750000 32.812500 C1.999996 32.812500 1.354169 32.544274 0.812500 32.007812 C0.270831 31.471351 0.000000 30.833337 0.000000 30.093750 L0.000000 2.734375 C0.000000 1.984371 0.268226 1.341149 0.804688 0.804688 C1.341149 0.268226 1.984371 -0.000000 2.734375 -0.000000 L30.078125 -0.000000 C30.828129 -0.000000 31.471351 0.268226 32.007812 0.804688 C32.544274 1.341149 32.812500 1.984371 32.812500 2.734375 L32.812500 30.078125 C32.812500 30.828129 32.544274 31.471351 32.007812 32.007812 C31.471351 32.544274 30.828129 32.812500 30.078125 32.812500 Z M36.718750 27.343750" /></svg>