<svg version="1.1" xmlns="http://www.w3.org/2000/svg" style="fill:rgba(0,0,0,1.0)" width="256" height="256" viewBox="0 0 36.71875 32.8125"><path fill="rgb(255, 255, 255)" d="M6.703125 26.859375 L8.750000 26.859375 L8.750000 25.687500 L14.578125 25.687500 L14.578125 26.593750 L16.734375 26.593750 L16.734375 19.390625 L6.703125 19.390625 Z M8.750000 23.953125 L8.750000 21.109375 L14.578125 21.109375 L14.578125 23.953125 Z M5.281250 18.218750 L17.937500 18.218750 L17.937500 16.484375 L12.671875 16.484375 L12.671875 15.062500 L16.328125 15.062500 L16.328125 13.468750 L12.671875 13.468750 L12.671875 12.140625 L16.328125 12.140625 L16.328125 10.484375 L12.671875 10.484375 L12.671875 9.015625 L10.546875 9.015625 L10.546875 10.484375 L6.890625 10.484375 L6.890625 12.140625 L10.546875 12.140625 L10.546875 13.468750 L6.890625 13.468750 L6.890625 15.062500 L10.546875 15.062500 L10.546875 16.484375 L5.281250 16.484375 Z M4.812500 10.625000 L6.656250 10.625000 L6.656250 8.421875 L16.562500 8.421875 L16.562500 10.625000 L18.406250 10.625000 L18.406250 6.640625 L12.703125 6.640625 L12.703125 4.531250 L10.500000 4.531250 L10.500000 6.640625 L4.812500 6.640625 Z M19.359375 20.515625 L21.515625 20.515625 L21.515625 7.031250 L19.359375 7.031250 Z M21.218750 26.828125 C22.177088 26.828125 23.010413 26.802084 23.718750 26.750000 C24.427087 26.697916 24.989581 26.578126 25.406250 26.390625 C25.833335 26.192707 26.127603 25.911460 26.289062 25.546875 C26.450522 25.182290 26.531250 24.651045 26.531250 23.953125 L26.531250 4.875000 L24.328125 4.875000 L24.328125 23.953125 C24.328125 24.151043 24.289063 24.283854 24.210938 24.351562 C24.132812 24.419271 24.000001 24.463542 23.812500 24.484375 C23.572915 24.494792 23.135420 24.500000 22.500000 24.500000 C21.864580 24.500000 21.177087 24.484375 20.437500 24.453125 C20.614584 24.786460 20.778645 25.182289 20.929688 25.640625 C21.080730 26.098961 21.177083 26.494790 21.218750 26.828125 Z M2.750000 32.812500 C1.999996 32.812500 1.354169 32.544274 0.812500 32.007812 C0.270831 31.471351 0.000000 30.833337 0.000000 30.093750 L0.000000 2.734375 C0.000000 1.984371 0.268226 1.341149 0.804688 0.804688 C1.341149 0.268226 1.984371 -0.000000 2.734375 -0.000000 L30.078125 -0.000000 C30.828129 -0.000000 31.471351 0.268226 32.007812 0.804688 C32.544274 1.341149 32.812500 1.984371 32.812500 2.734375 L32.812500 30.078125 C32.812500 30.828129 32.544274 31.471351 32.007812 32.007812 C31.471351 32.544274 30.828129 32.812500 30.078125 32.812500 Z M36.718750 27.343750" /></svg>