<svg version="1.1" xmlns="http://www.w3.org/2000/svg" style="fill:rgba(0,0,0,1.0)" width="256" height="256" viewBox="0 0 36.71875 32.8125"><path fill="rgb(255, 255, 255)" d="M16.406250 32.812500 C14.593741 32.812500 12.867196 32.536461 11.226562 31.984375 C9.585929 31.432289 8.083340 30.653651 6.718750 29.648438 C5.354160 28.643224 4.169276 27.455736 3.164062 26.085938 C2.158849 24.716139 1.380211 23.210946 0.828125 21.570312 C0.276039 19.929679 0.000000 18.203134 0.000000 16.390625 C0.000000 14.578116 0.276039 12.854175 0.828125 11.218750 C1.380211 9.583325 2.158849 8.083340 3.164062 6.718750 C4.169276 5.354160 5.354160 4.169276 6.718750 3.164062 C8.083340 2.158849 9.585929 1.380211 11.226562 0.828125 C12.867196 0.276039 14.593741 -0.000000 16.406250 -0.000000 C18.218759 -0.000000 19.945304 0.276039 21.585938 0.828125 C23.226571 1.380211 24.729160 2.158849 26.093750 3.164062 C27.458340 4.169276 28.643224 5.354160 29.648438 6.718750 C30.653651 8.083340 31.432289 9.583325 31.984375 11.218750 C32.536461 12.854175 32.812500 14.578116 32.812500 16.390625 C32.812500 18.203134 32.536461 19.929679 31.984375 21.570312 C31.432289 23.210946 30.653651 24.716139 29.648438 26.085938 C28.643224 27.455736 27.458340 28.643224 26.093750 29.648438 C24.729160 30.653651 23.226571 31.432289 21.585938 31.984375 C19.945304 32.536461 18.218759 32.812500 16.406250 32.812500 Z M7.906250 23.687500 L10.140625 23.687500 L10.140625 21.781250 L18.000000 21.781250 L18.000000 12.578125 L7.906250 12.578125 Z M10.140625 19.593750 L10.140625 14.750000 L15.734375 14.750000 L15.734375 19.593750 Z M17.734375 27.859375 C18.942714 27.859375 19.984371 27.835938 20.859375 27.789062 C21.734379 27.742187 22.437497 27.619793 22.968750 27.421875 C23.489586 27.234374 23.854166 26.940106 24.062500 26.539062 C24.270834 26.138019 24.375000 25.562504 24.375000 24.812500 L24.375000 9.375000 L27.281250 9.375000 L27.281250 7.078125 L5.515625 7.078125 L5.515625 9.375000 L21.984375 9.375000 L21.984375 24.781250 C21.984375 25.260419 21.739586 25.500000 21.250000 25.500000 C20.958332 25.500000 20.369796 25.492188 19.484375 25.476562 C18.598954 25.460937 17.692713 25.432292 16.765625 25.390625 C16.953126 25.713543 17.143228 26.122393 17.335938 26.617188 C17.528647 27.111982 17.661458 27.526040 17.734375 27.859375 Z M36.718750 27.343750" /></svg>