<svg version="1.1" xmlns="http://www.w3.org/2000/svg" style="fill:rgba(0,0,0,1.0)" width="256" height="256" viewBox="0 0 36.71875 32.8125"><path fill="rgb(255, 255, 255)" d="M5.750000 26.109375 L27.062500 26.109375 L27.062500 24.031250 L17.515625 24.031250 L17.515625 19.703125 L24.984375 19.703125 L24.984375 17.609375 L8.296875 17.609375 L8.296875 19.703125 L15.171875 19.703125 L15.171875 24.031250 L5.750000 24.031250 Z M7.062500 16.843750 C9.041677 16.406248 10.565099 15.825524 11.632812 15.101562 C12.700526 14.377601 13.466144 13.494797 13.929688 12.453125 C14.393231 11.411453 14.708333 10.192715 14.875000 8.796875 L17.890625 8.796875 L17.890625 13.203125 C17.890625 14.234380 18.083331 14.937498 18.468750 15.312500 C18.854169 15.687502 19.645827 15.875000 20.843750 15.875000 L24.062500 15.875000 C24.947921 15.875000 25.578123 15.669273 25.953125 15.257812 C26.328127 14.846352 26.578124 14.041673 26.703125 12.843750 C26.401040 12.770833 26.049481 12.658855 25.648438 12.507812 C25.247394 12.356770 24.937501 12.203126 24.718750 12.046875 C24.666666 12.859379 24.588542 13.372395 24.484375 13.585938 C24.380208 13.799480 24.156252 13.906250 23.812500 13.906250 L21.125000 13.906250 C20.708331 13.906250 20.440105 13.864584 20.320312 13.781250 C20.200520 13.697916 20.140625 13.500002 20.140625 13.187500 L20.140625 8.796875 L24.390625 8.796875 L24.390625 11.375000 L26.765625 11.375000 L26.765625 6.687500 L17.515625 6.687500 L17.515625 4.343750 L15.171875 4.343750 L15.171875 6.687500 L6.109375 6.687500 L6.109375 11.859375 L8.390625 11.859375 L8.390625 8.796875 L12.484375 8.796875 C12.359374 9.880214 12.111981 10.817704 11.742188 11.609375 C11.372394 12.401046 10.734380 13.067706 9.828125 13.609375 C8.921870 14.151044 7.588550 14.583332 5.828125 14.906250 C6.057293 15.135418 6.294270 15.445311 6.539062 15.835938 C6.783855 16.226564 6.958333 16.562499 7.062500 16.843750 Z M2.750000 32.812500 C1.999996 32.812500 1.354169 32.544274 0.812500 32.007812 C0.270831 31.471351 0.000000 30.833337 0.000000 30.093750 L0.000000 2.734375 C0.000000 1.984371 0.268226 1.341149 0.804688 0.804688 C1.341149 0.268226 1.984371 -0.000000 2.734375 -0.000000 L30.078125 -0.000000 C30.828129 -0.000000 31.471351 0.268226 32.007812 0.804688 C32.544274 1.341149 32.812500 1.984371 32.812500 2.734375 L32.812500 30.078125 C32.812500 30.828129 32.544274 31.471351 32.007812 32.007812 C31.471351 32.544274 30.828129 32.812500 30.078125 32.812500 Z M36.718750 27.343750" /></svg>