<svg version="1.1" xmlns="http://www.w3.org/2000/svg" style="fill:rgba(0,0,0,1.0)" width="256" height="256" viewBox="0 0 36.21875 32.8125"><path fill="rgb(255, 255, 255)" d="M12.687500 32.812500 C10.989575 32.812500 9.377612 32.497399 7.851562 31.867188 C6.325513 31.236976 4.971360 30.364589 3.789062 29.250000 C2.606765 28.135411 1.679691 26.843757 1.007812 25.375000 C0.335934 23.906243 0.000000 22.338550 0.000000 20.671875 L0.000000 7.703125 C0.000000 5.057278 0.575515 3.111985 1.726562 1.867188 C2.877610 0.622390 4.562489 -0.000000 6.781250 -0.000000 C7.666671 -0.000000 8.486975 0.075520 9.242188 0.226562 C9.997400 0.377605 10.770829 0.531249 11.562500 0.687500 C12.354171 0.843751 13.234370 0.921875 14.203125 0.921875 C15.171880 0.921875 16.033850 0.843751 16.789062 0.687500 C17.544275 0.531249 18.249997 0.377605 18.906250 0.226562 C19.562503 0.075520 20.208330 -0.000000 20.843750 -0.000000 C22.708343 -0.000000 24.119787 0.546870 25.078125 1.640625 C26.036463 2.734380 26.515625 4.338531 26.515625 6.453125 L26.515625 14.500000 L24.640625 15.312500 L24.640625 6.453125 C24.640625 4.765617 24.346357 3.554691 23.757812 2.820312 C23.169268 2.085934 22.197923 1.718750 20.843750 1.718750 C20.322914 1.718750 19.718753 1.794270 19.031250 1.945312 C18.343747 2.096355 17.591150 2.249999 16.773438 2.406250 C15.955725 2.562501 15.098963 2.640625 14.203125 2.640625 C13.192703 2.640625 12.281254 2.562501 11.468750 2.406250 C10.656246 2.249999 9.875004 2.096355 9.125000 1.945312 C8.374996 1.794270 7.593754 1.718750 6.781250 1.718750 C5.072908 1.718750 3.828129 2.158850 3.046875 3.039062 C2.265621 3.919275 1.875000 5.473947 1.875000 7.703125 L1.875000 20.671875 C1.875000 22.130216 2.158851 23.492181 2.726562 24.757812 C3.294274 26.023444 4.075516 27.130204 5.070312 28.078125 C6.065109 29.026046 7.216139 29.765622 8.523438 30.296875 C9.830736 30.828128 11.218743 31.093750 12.687500 31.093750 C15.104179 31.093750 17.205720 30.648442 18.992188 29.757812 C20.778655 28.867183 22.166662 27.614591 23.156250 26.000000 C24.145838 24.385409 24.640625 22.489594 24.640625 20.312500 L24.640625 19.812500 L26.515625 19.437500 L26.515625 20.312500 C26.515625 22.156259 26.179691 23.841138 25.507812 25.367188 C24.835934 26.893237 23.885423 28.213536 22.656250 29.328125 C21.427077 30.442714 19.968758 31.302080 18.281250 31.906250 C16.593742 32.510420 14.729177 32.812500 12.687500 32.812500 Z M6.593750 23.953125 C5.791663 23.953125 5.083336 23.742190 4.468750 23.320312 C3.854164 22.898435 3.372398 22.328129 3.023438 21.609375 C2.674477 20.890621 2.500000 20.093754 2.500000 19.218750 C2.500000 18.322912 2.692706 17.421880 3.078125 16.515625 C3.598961 17.380213 4.148435 18.122393 4.726562 18.742188 C5.304690 19.361982 5.953121 19.682292 6.671875 19.703125 C6.661458 19.609375 6.651042 19.518230 6.640625 19.429688 C6.630208 19.341145 6.625000 19.250000 6.625000 19.156250 C6.625000 18.749998 6.703124 18.369793 6.859375 18.015625 C7.369794 18.401044 7.934893 18.718749 8.554688 18.968750 C9.174482 19.218751 9.848955 19.395833 10.578125 19.500000 L11.125000 19.578125 C12.229172 19.734376 13.065101 19.877604 13.632812 20.007812 C14.200524 20.138021 14.588541 20.294270 14.796875 20.476562 C15.005209 20.658855 15.130208 20.906248 15.171875 21.218750 C14.661456 21.218750 14.109378 21.312499 13.515625 21.500000 C12.921872 21.687501 12.135422 22.015623 11.156250 22.484375 L10.671875 22.718750 C9.807287 23.135419 9.044274 23.445311 8.382812 23.648438 C7.721351 23.851564 7.125003 23.953125 6.593750 23.953125 Z M8.218750 28.718750 C7.979165 28.718750 7.859375 28.572918 7.859375 28.281250 C7.859375 27.697914 8.052081 27.059899 8.437500 26.367188 C8.822919 25.674476 9.356767 25.013024 10.039062 24.382812 C10.721358 23.752601 11.505204 23.234377 12.390625 22.828125 C13.276046 22.421873 14.218745 22.218750 15.218750 22.218750 C16.406256 22.218750 17.447912 22.492185 18.343750 23.039062 C19.239588 23.585940 19.940102 24.257809 20.445312 25.054688 C20.950523 25.851566 21.203125 26.635413 21.203125 27.406250 C21.203125 27.572918 21.169271 27.723958 21.101562 27.859375 C21.033854 27.994792 20.895834 28.062500 20.687500 28.062500 C20.562499 28.062500 20.401043 28.031250 20.203125 27.968750 C20.005207 27.906250 19.744793 27.791668 19.421875 27.625000 C18.703121 27.260415 18.041670 27.002605 17.437500 26.851562 C16.833330 26.700520 16.140629 26.625000 15.359375 26.625000 C14.505204 26.625000 13.572922 26.768228 12.562500 27.054688 C11.552078 27.341147 10.489589 27.760414 9.375000 28.312500 C8.833331 28.583335 8.447918 28.718750 8.218750 28.718750 Z M10.078125 26.671875 C10.213542 26.671875 10.531248 26.549480 11.031250 26.304688 C11.531252 26.059895 12.166663 25.817710 12.937500 25.578125 C13.708337 25.338540 14.552079 25.218750 15.468750 25.218750 C16.166670 25.218750 16.791664 25.309895 17.343750 25.492188 C17.895836 25.674480 18.354165 25.859374 18.718750 26.046875 C19.083335 26.234376 19.333333 26.328125 19.468750 26.328125 C19.625001 26.328125 19.703125 26.244792 19.703125 26.078125 C19.703125 25.869791 19.513023 25.544273 19.132812 25.101562 C18.752602 24.658852 18.234378 24.250002 17.578125 23.875000 C16.921872 23.499998 16.177088 23.312500 15.343750 23.312500 C14.645830 23.312500 13.973962 23.429686 13.328125 23.664062 C12.682288 23.898439 12.104169 24.187498 11.593750 24.531250 C11.083331 24.875002 10.679689 25.223957 10.382812 25.578125 C10.085936 25.932293 9.937500 26.229165 9.937500 26.468750 C9.937500 26.604167 9.984375 26.671875 10.078125 26.671875 Z M10.125000 16.171875 C9.249996 16.171875 8.481774 15.861982 7.820312 15.242188 C7.158851 14.622393 6.739584 13.822922 6.562500 12.843750 L6.109375 10.359375 C5.994791 9.723955 6.062499 9.278647 6.312500 9.023438 C6.562501 8.768228 7.005205 8.687500 7.640625 8.781250 L10.218750 9.156250 C11.177088 9.291667 11.973955 9.697913 12.609375 10.375000 C13.244795 11.052087 13.562500 11.838537 13.562500 12.734375 C13.562500 13.682296 13.226566 14.492184 12.554688 15.164062 C11.882809 15.835941 11.072921 16.171875 10.125000 16.171875 Z M10.125000 14.921875 C10.729170 14.921875 11.244790 14.708335 11.671875 14.281250 C12.098960 13.854165 12.312500 13.338545 12.312500 12.734375 C12.312500 12.151039 12.098960 11.640627 11.671875 11.203125 C11.244790 10.765623 10.697920 10.500000 10.031250 10.406250 L8.531250 10.187500 C7.999997 10.104166 7.677084 10.124999 7.562500 10.250000 C7.447916 10.375001 7.437500 10.703122 7.531250 11.234375 L7.781250 12.625000 C7.906251 13.312503 8.184894 13.867185 8.617188 14.289062 C9.049481 14.710940 9.552080 14.921875 10.125000 14.921875 Z M10.140625 14.187500 C9.744790 14.187500 9.403647 14.044272 9.117188 13.757812 C8.830728 13.471353 8.687500 13.130210 8.687500 12.734375 C8.687500 12.338540 8.830728 12.000001 9.117188 11.718750 C9.403647 11.437499 9.744790 11.296875 10.140625 11.296875 C10.536460 11.296875 10.874999 11.437499 11.156250 11.718750 C11.437501 12.000001 11.578125 12.338540 11.578125 12.734375 C11.578125 13.130210 11.437501 13.471353 11.156250 13.757812 C10.874999 14.044272 10.536460 14.187500 10.140625 14.187500 Z M22.359375 23.953125 C21.973956 23.953125 21.570315 23.859376 21.148438 23.671875 C20.726560 23.484374 20.036463 23.104170 19.078125 22.531250 L18.843750 22.390625 C18.416665 22.130207 17.979169 21.906251 17.531250 21.718750 C17.083331 21.531249 16.609378 21.364584 16.109375 21.218750 C16.307293 20.718748 16.619790 20.291668 17.046875 19.937500 L21.078125 20.406250 L25.640625 19.765625 C25.640625 20.994798 25.330732 21.999996 24.710938 22.781250 C24.091143 23.562504 23.307296 23.953125 22.359375 23.953125 Z M13.015625 10.687500 C12.296871 10.687500 11.531254 10.486981 10.718750 10.085938 C9.906246 9.684894 9.106775 9.135420 8.320312 8.437500 C7.533850 7.739580 6.812503 6.937505 6.156250 6.031250 C5.499997 5.124995 4.963544 4.166672 4.546875 3.156250 C5.338546 3.156250 6.070309 3.263020 6.742188 3.476562 C7.414066 3.690105 7.999998 3.999998 8.500000 4.406250 L8.312500 3.140625 C8.854169 3.317709 9.364581 3.674476 9.843750 4.210938 C10.322919 4.747399 10.843747 5.541661 11.406250 6.593750 L12.109375 5.187500 C12.588544 5.666669 12.968749 6.328121 13.250000 7.171875 C13.531251 8.015629 13.671875 8.760413 13.671875 9.406250 C13.671875 9.781252 13.619792 10.088540 13.515625 10.328125 C13.411458 10.567710 13.244793 10.687500 13.015625 10.687500 Z M21.156250 21.312500 C19.552075 21.312500 18.127610 21.145835 16.882812 20.812500 C15.638015 20.479165 14.661462 19.994795 13.953125 19.359375 L14.796875 17.828125 C15.265627 18.369794 16.062494 18.799478 17.187500 19.117188 C18.312506 19.434897 19.635409 19.593750 21.156250 19.593750 C22.802092 19.593750 24.294264 19.424481 25.632812 19.085938 C26.971361 18.747394 28.036454 18.289065 28.828125 17.710938 C29.619796 17.132810 30.015625 16.489587 30.015625 15.781250 C30.015625 15.020830 29.604171 14.640625 28.781250 14.640625 C28.260414 14.640625 27.666670 14.796873 27.000000 15.109375 C26.333330 15.421877 25.606775 15.781248 24.820312 16.187500 C24.033850 16.593752 23.205734 16.953123 22.335938 17.265625 C21.466141 17.578127 20.567713 17.734375 19.640625 17.734375 C18.890621 17.734375 18.195316 17.622397 17.554688 17.398438 C16.914059 17.174478 16.307295 16.854169 15.734375 16.437500 L16.562500 15.093750 C17.416671 15.760420 18.442702 16.093750 19.640625 16.093750 C20.598963 16.093750 21.484371 15.937502 22.296875 15.625000 C23.109379 15.312498 23.874996 14.953127 24.593750 14.546875 C25.312504 14.140623 26.015622 13.781252 26.703125 13.468750 C27.390628 13.156248 28.083330 13.000000 28.781250 13.000000 C29.666671 13.000000 30.393226 13.260414 30.960938 13.781250 C31.528649 14.302086 31.812500 14.968746 31.812500 15.781250 C31.812500 16.822922 31.343755 17.760412 30.406250 18.593750 C29.468745 19.427088 28.195321 20.088539 26.585938 20.578125 C24.976554 21.067711 23.166677 21.312500 21.156250 21.312500 Z M19.843750 14.187500 C19.447915 14.187500 19.106772 14.044272 18.820312 13.757812 C18.533853 13.471353 18.390625 13.130210 18.390625 12.734375 C18.390625 12.338540 18.533853 12.000001 18.820312 11.718750 C19.106772 11.437499 19.447915 11.296875 19.843750 11.296875 C20.239585 11.296875 20.578124 11.437499 20.859375 11.718750 C21.140626 12.000001 21.281250 12.338540 21.281250 12.734375 C21.281250 13.130210 21.140626 13.471353 20.859375 13.757812 C20.578124 14.044272 20.239585 14.187500 19.843750 14.187500 Z M19.843750 16.171875 C18.895829 16.171875 18.085941 15.835941 17.414062 15.164062 C16.742184 14.492184 16.406250 13.682296 16.406250 12.734375 C16.406250 11.838537 16.723955 11.052087 17.359375 10.375000 C17.994795 9.697913 18.791662 9.291667 19.750000 9.156250 L22.328125 8.781250 C22.963545 8.687500 23.406249 8.768228 23.656250 9.023438 C23.906251 9.278647 23.973959 9.723955 23.859375 10.359375 L23.406250 12.843750 C23.229166 13.822922 22.809899 14.622393 22.148438 15.242188 C21.486976 15.861982 20.718754 16.171875 19.843750 16.171875 Z M19.843750 14.921875 C20.416670 14.921875 20.919269 14.710940 21.351562 14.289062 C21.783856 13.867185 22.062499 13.312503 22.187500 12.625000 L22.437500 11.234375 C22.531250 10.703122 22.520834 10.375001 22.406250 10.250000 C22.291666 10.124999 21.968753 10.104166 21.437500 10.187500 L19.937500 10.406250 C19.270830 10.500000 18.723960 10.765623 18.296875 11.203125 C17.869790 11.640627 17.656250 12.151039 17.656250 12.734375 C17.656250 13.338545 17.869790 13.854165 18.296875 14.281250 C18.723960 14.708335 19.239580 14.921875 19.843750 14.921875 Z M17.062500 10.703125 C16.854166 10.703125 16.700521 10.585939 16.601562 10.351562 C16.502604 10.117186 16.453125 9.822918 16.453125 9.468750 C16.453125 8.843747 16.583332 8.130212 16.843750 7.328125 C17.104168 6.526038 17.447915 5.906252 17.875000 5.468750 L18.421875 6.828125 C18.859377 6.026038 19.304685 5.348961 19.757812 4.796875 C20.210940 4.244789 20.677081 3.822918 21.156250 3.531250 L20.906250 4.796875 C21.427086 4.369790 21.973955 4.052084 22.546875 3.843750 C23.119795 3.635416 23.718747 3.531250 24.343750 3.531250 C23.083327 5.854178 21.835944 7.630202 20.601562 8.859375 C19.367181 10.088548 18.187506 10.703125 17.062500 10.703125 Z M36.218750 27.343750" /></svg>