<svg version="1.1" xmlns="http://www.w3.org/2000/svg" style="fill:rgba(0,0,0,1.0)" width="256" height="256" viewBox="0 0 36.71875 32.8125"><path fill="rgb(255, 255, 255)" d="M6.875000 27.109375 C7.739588 26.588539 8.622391 25.924483 9.523438 25.117188 C10.424484 24.309892 11.177080 23.473963 11.781250 22.609375 L9.640625 21.921875 C9.130206 22.640629 8.460942 23.333330 7.632812 24.000000 C6.804683 24.666670 5.947921 25.223956 5.062500 25.671875 C5.333335 25.838542 5.653644 26.070311 6.023438 26.367188 C6.393231 26.664064 6.677082 26.911457 6.875000 27.109375 Z M12.140625 27.421875 C13.067713 27.421875 13.861976 27.406250 14.523438 27.375000 C15.184899 27.343750 15.739581 27.255209 16.187500 27.109375 C16.635419 26.963541 16.937499 26.739585 17.093750 26.437500 C17.250001 26.135415 17.328125 25.697920 17.328125 25.125000 L17.328125 21.218750 L26.734375 21.218750 L26.734375 19.265625 L5.484375 19.265625 L5.484375 21.218750 L15.015625 21.218750 L15.015625 25.046875 C15.015625 25.213542 14.984375 25.320312 14.921875 25.367188 C14.859375 25.414063 14.723959 25.447917 14.515625 25.468750 C14.317707 25.479167 13.916670 25.481771 13.312500 25.476562 C12.708330 25.471354 12.057295 25.458333 11.359375 25.437500 C11.505209 25.729168 11.653645 26.057290 11.804688 26.421875 C11.955730 26.786460 12.067708 27.119790 12.140625 27.421875 Z M24.640625 27.062500 L26.578125 25.843750 C26.213540 25.458331 25.750003 25.028648 25.187500 24.554688 C24.624997 24.080727 24.031253 23.606773 23.406250 23.132812 C22.781247 22.658852 22.187503 22.234377 21.625000 21.859375 L19.812500 22.937500 C20.385420 23.343752 20.981768 23.794268 21.601562 24.289062 C22.221357 24.783857 22.799476 25.273435 23.335938 25.757812 C23.872399 26.242190 24.307290 26.677081 24.640625 27.062500 Z M8.218750 17.640625 L24.296875 17.640625 L24.296875 15.750000 L8.218750 15.750000 Z M9.578125 14.968750 L11.703125 14.968750 L11.703125 11.140625 C12.015627 11.380210 12.330728 11.632811 12.648438 11.898438 C12.966147 12.164064 13.263019 12.411457 13.539062 12.640625 C13.815106 12.869793 14.041666 13.067708 14.218750 13.234375 L15.437500 11.703125 C15.281249 11.588541 15.046877 11.421876 14.734375 11.203125 C14.421873 10.984374 14.072919 10.747397 13.687500 10.492188 C13.302081 10.236978 12.932293 9.997397 12.578125 9.773438 C12.223957 9.549478 11.932293 9.369792 11.703125 9.234375 L11.703125 9.109375 L14.968750 9.109375 L14.968750 7.203125 L11.703125 7.203125 L11.703125 4.906250 L9.578125 4.906250 L9.578125 7.203125 L5.671875 7.203125 L5.671875 9.109375 L8.937500 9.109375 C8.406247 9.963546 7.768233 10.768225 7.023438 11.523438 C6.278642 12.278650 5.520837 12.880206 4.750000 13.328125 C4.989585 13.505209 5.244790 13.752603 5.515625 14.070312 C5.786460 14.388022 5.999999 14.666665 6.156250 14.906250 C6.750003 14.479165 7.341143 13.950524 7.929688 13.320312 C8.518232 12.690101 9.067706 12.005212 9.578125 11.265625 Z M20.171875 14.968750 L22.328125 14.968750 L22.328125 11.125000 C22.880211 11.854170 23.463539 12.544268 24.078125 13.195312 C24.692711 13.846357 25.296872 14.385415 25.890625 14.812500 C26.046876 14.552082 26.268228 14.268231 26.554688 13.960938 C26.841147 13.653644 27.098957 13.411459 27.328125 13.234375 C26.567705 12.776039 25.783858 12.174483 24.976562 11.429688 C24.169267 10.684892 23.473961 9.911462 22.890625 9.109375 L26.468750 9.109375 L26.468750 7.203125 L22.328125 7.203125 L22.328125 4.906250 L20.171875 4.906250 L20.171875 7.203125 L15.984375 7.203125 L15.984375 9.109375 L19.421875 9.109375 C18.869789 9.942712 18.192712 10.731767 17.390625 11.476562 C16.588538 12.221358 15.781254 12.807290 14.968750 13.234375 C15.187501 13.411459 15.432290 13.653644 15.703125 13.960938 C15.973960 14.268231 16.192708 14.541665 16.359375 14.781250 C17.026045 14.354165 17.690101 13.812503 18.351562 13.156250 C19.013024 12.499997 19.619789 11.791670 20.171875 11.031250 Z M2.750000 32.812500 C1.999996 32.812500 1.354169 32.544274 0.812500 32.007812 C0.270831 31.471351 0.000000 30.833337 0.000000 30.093750 L0.000000 2.734375 C0.000000 1.984371 0.268226 1.341149 0.804688 0.804688 C1.341149 0.268226 1.984371 -0.000000 2.734375 -0.000000 L30.078125 -0.000000 C30.828129 -0.000000 31.471351 0.268226 32.007812 0.804688 C32.544274 1.341149 32.812500 1.984371 32.812500 2.734375 L32.812500 30.078125 C32.812500 30.828129 32.544274 31.471351 32.007812 32.007812 C31.471351 32.544274 30.828129 32.812500 30.078125 32.812500 Z M36.718750 27.343750" /></svg>