<svg version="1.1" xmlns="http://www.w3.org/2000/svg" style="fill:rgba(0,0,0,1.0)" width="256" height="256" viewBox="0 0 36.71875 32.8125"><path fill="rgb(255, 255, 255)" d="M10.281250 24.671875 L10.281250 21.875000 L22.562500 21.875000 L22.562500 24.671875 Z M8.109375 27.546875 L10.281250 27.546875 L10.281250 26.671875 L22.562500 26.671875 L22.562500 27.531250 L24.843750 27.531250 L24.843750 19.875000 L16.468750 19.875000 L17.187500 18.125000 L22.765625 18.125000 L22.765625 12.359375 L9.953125 12.359375 L9.953125 18.125000 L14.687500 18.125000 L14.234375 19.875000 L8.109375 19.875000 Z M12.078125 16.406250 L12.078125 14.078125 L20.500000 14.078125 L20.500000 16.406250 Z M6.250000 13.796875 L8.328125 13.796875 L8.328125 10.796875 L24.328125 10.796875 L24.328125 13.796875 L26.562500 13.796875 L26.562500 8.828125 L22.921875 8.828125 C23.286460 8.401040 23.661456 7.942711 24.046875 7.453125 C24.432294 6.963539 24.802082 6.468753 25.156250 5.968750 L22.765625 5.203125 C22.484374 5.755211 22.119794 6.369788 21.671875 7.046875 C21.223956 7.723962 20.796877 8.317706 20.390625 8.828125 L16.171875 8.828125 L17.578125 8.296875 C17.421874 7.838539 17.158856 7.294274 16.789062 6.664062 C16.419269 6.033851 16.052085 5.463544 15.687500 4.953125 L13.671875 5.656250 C14.005210 6.135419 14.330728 6.669268 14.648438 7.257812 C14.966147 7.846357 15.208333 8.369789 15.375000 8.828125 L11.109375 8.828125 L11.812500 8.515625 C11.614582 8.067706 11.302085 7.544274 10.875000 6.945312 C10.447915 6.346351 10.015627 5.817711 9.578125 5.359375 L7.625000 6.218750 C7.958335 6.604169 8.286457 7.031248 8.609375 7.500000 C8.932293 7.968752 9.208332 8.411456 9.437500 8.828125 L6.250000 8.828125 Z M2.750000 32.812500 C1.999996 32.812500 1.354169 32.544274 0.812500 32.007812 C0.270831 31.471351 0.000000 30.833337 0.000000 30.093750 L0.000000 2.734375 C0.000000 1.984371 0.268226 1.341149 0.804688 0.804688 C1.341149 0.268226 1.984371 -0.000000 2.734375 -0.000000 L30.078125 -0.000000 C30.828129 -0.000000 31.471351 0.268226 32.007812 0.804688 C32.544274 1.341149 32.812500 1.984371 32.812500 2.734375 L32.812500 30.078125 C32.812500 30.828129 32.544274 31.471351 32.007812 32.007812 C31.471351 32.544274 30.828129 32.812500 30.078125 32.812500 Z M36.718750 27.343750" /></svg>