<svg version="1.1" xmlns="http://www.w3.org/2000/svg" style="fill:rgba(0,0,0,1.0)" width="256" height="256" viewBox="0 0 38.828125 32.8125"><path fill="rgb(255, 255, 255)" d="M2.546875 29.562500 C1.828121 29.562500 1.223961 29.289065 0.734375 28.742188 C0.244789 28.195310 0.000000 27.557295 0.000000 26.828125 C0.000000 26.390623 0.104166 25.945315 0.312500 25.492188 C0.520834 25.039060 0.854164 24.614585 1.312500 24.218750 C1.822919 23.781248 2.320310 23.260420 2.804688 22.656250 C3.289065 22.052080 3.723956 21.260422 4.109375 20.281250 C4.421877 19.510413 4.731769 18.817711 5.039062 18.203125 C5.346356 17.588539 5.705727 17.046877 6.117188 16.578125 C6.528648 16.109373 7.036455 15.713543 7.640625 15.390625 L13.187500 15.296875 C14.093755 15.734377 14.901038 16.343746 15.609375 17.125000 C16.317712 17.906254 16.916664 18.789058 17.406250 19.773438 C17.895836 20.757817 18.260415 21.781245 18.500000 22.843750 L18.500000 28.843750 C18.374999 29.083335 18.203126 29.263020 17.984375 29.382812 C17.765624 29.502605 17.473960 29.562500 17.109375 29.562500 Z M2.640625 31.250000 L2.640625 28.906250 L4.359375 28.906250 L4.359375 31.250000 Z M5.921875 31.250000 L5.921875 28.906250 L7.484375 28.906250 L7.484375 31.250000 Z M2.640625 32.812500 L2.640625 30.937500 L17.015625 30.937500 L17.015625 32.812500 Z M9.046875 31.250000 L9.046875 28.906250 L10.609375 28.906250 L10.609375 31.250000 Z M12.171875 31.250000 L12.171875 28.906250 L13.734375 28.906250 L13.734375 31.250000 Z M5.171875 27.343750 L15.625000 27.343750 L14.640625 25.656250 C14.244790 25.854168 13.825523 26.002604 13.382812 26.101562 C12.940102 26.200521 12.510419 26.250000 12.093750 26.250000 C11.687498 26.250000 11.315106 26.200521 10.976562 26.101562 C10.638019 26.002604 10.364584 25.854168 10.156250 25.656250 L6.484375 25.656250 C6.286457 25.958335 6.072918 26.252603 5.843750 26.539062 C5.614582 26.825522 5.390626 27.093749 5.171875 27.343750 Z M7.296875 23.750000 C7.973962 23.697916 8.552081 23.513022 9.031250 23.195312 C9.510419 22.877603 9.750000 22.442711 9.750000 21.890625 C9.750000 21.567707 9.643230 21.309897 9.429688 21.117188 C9.216145 20.924478 8.942710 20.828125 8.609375 20.828125 C8.369790 20.828125 8.125001 20.869791 7.875000 20.953125 C7.875000 21.453128 7.841146 21.945310 7.773438 22.429688 C7.705729 22.914065 7.546876 23.354165 7.296875 23.750000 Z M15.296875 31.250000 L15.296875 28.906250 L17.015625 28.906250 L17.015625 31.250000 Z M12.343750 24.671875 C12.604168 24.671875 12.888019 24.645834 13.195312 24.593750 C13.502606 24.541666 13.828123 24.463542 14.171875 24.359375 C13.994791 24.046873 13.833334 23.731772 13.687500 23.414062 C13.541666 23.096353 13.411459 22.781252 13.296875 22.468750 C12.755206 22.468750 12.226565 22.588540 11.710938 22.828125 C11.195310 23.067710 10.937500 23.411456 10.937500 23.859375 C10.937500 24.151043 11.083332 24.359374 11.375000 24.484375 C11.666668 24.609376 11.989582 24.671875 12.343750 24.671875 Z M19.781250 31.250000 L19.781250 28.906250 L21.500000 28.906250 L21.500000 31.250000 Z M7.906250 19.671875 L9.640625 19.671875 L9.640625 16.515625 L7.906250 16.515625 Z M23.062500 31.250000 L23.062500 28.906250 L24.625000 28.906250 L24.625000 31.250000 Z M5.546875 12.250000 C5.151040 12.250000 4.809897 12.098960 4.523438 11.796875 C4.236978 11.494790 4.093750 11.135419 4.093750 10.718750 C4.093750 10.239581 4.205728 9.859376 4.429688 9.578125 C4.653647 9.296874 4.953123 9.156250 5.328125 9.156250 Z M19.781250 32.812500 L19.781250 30.937500 L34.156250 30.937500 L34.156250 32.812500 Z M19.625000 27.843750 C20.354170 27.843750 21.062497 27.596357 21.750000 27.101562 C22.437503 26.606768 23.057289 26.007816 23.609375 25.304688 C24.161461 24.601559 24.593748 23.947920 24.906250 23.343750 C24.458331 23.687502 23.945315 23.981770 23.367188 24.226562 C22.789060 24.471355 22.208336 24.697916 21.625000 24.906250 C20.822913 25.197918 20.114586 25.497394 19.500000 25.804688 C18.885414 26.111981 18.578125 26.526039 18.578125 27.046875 C18.578125 27.276043 18.664062 27.466145 18.835938 27.617188 C19.007813 27.768230 19.270832 27.843750 19.625000 27.843750 Z M26.187500 31.250000 L26.187500 28.906250 L27.750000 28.906250 L27.750000 31.250000 Z M10.562500 13.687500 C9.697912 13.687500 9.265625 13.416669 9.265625 12.875000 C9.265625 12.552082 9.697912 12.390625 10.562500 12.390625 C11.427088 12.390625 11.859375 12.552082 11.859375 12.875000 C11.859375 13.416669 11.427088 13.687500 10.562500 13.687500 Z M8.703125 11.125000 C8.369790 11.125000 8.075522 11.049480 7.820312 10.898438 C7.565103 10.747395 7.437500 10.541668 7.437500 10.281250 C7.437500 9.999999 7.578124 9.859375 7.859375 9.859375 C7.973959 9.859375 8.109374 9.890625 8.265625 9.953125 C8.421876 10.015625 8.567708 10.046875 8.703125 10.046875 C8.848959 10.046875 8.999999 10.015625 9.156250 9.953125 C9.312501 9.890625 9.442708 9.859375 9.546875 9.859375 C9.828126 9.859375 9.968750 9.999999 9.968750 10.281250 C9.968750 10.541668 9.841147 10.747395 9.585938 10.898438 C9.330728 11.049480 9.036460 11.125000 8.703125 11.125000 Z M10.546875 14.937500 C12.078133 14.937500 13.132810 14.515629 13.710938 13.671875 C14.289065 12.828121 14.578125 11.598966 14.578125 9.984375 C14.244790 9.744790 14.002605 9.411460 13.851562 8.984375 C13.700520 8.557290 13.625000 8.119794 13.625000 7.671875 L7.468750 7.671875 C7.468750 8.119794 7.393230 8.557290 7.242188 8.984375 C7.091145 9.411460 6.848960 9.744790 6.515625 9.984375 C6.515625 11.598966 6.804685 12.828121 7.382812 13.671875 C7.960940 14.515629 9.015617 14.937500 10.546875 14.937500 Z M8.968750 9.031250 C8.791666 9.031250 8.630209 8.992188 8.484375 8.914062 C8.338541 8.835937 8.265625 8.734376 8.265625 8.609375 C8.265625 8.484374 8.346353 8.385417 8.507812 8.312500 C8.669272 8.239583 8.833333 8.203125 9.000000 8.203125 C9.156251 8.203125 9.302083 8.239583 9.437500 8.312500 C9.572917 8.385417 9.640625 8.484374 9.640625 8.609375 C9.640625 8.734376 9.570313 8.835937 9.429688 8.914062 C9.289062 8.992188 9.135418 9.031250 8.968750 9.031250 Z M29.312500 31.250000 L29.312500 28.906250 L30.875000 28.906250 L30.875000 31.250000 Z M23.390625 27.343750 L29.078125 27.343750 C28.713540 26.927081 28.361981 26.468752 28.023438 25.968750 C27.684894 25.468748 27.348960 24.848962 27.015625 24.109375 L25.453125 24.109375 C25.192707 24.848962 24.869794 25.476560 24.484375 25.992188 C24.098956 26.507815 23.734377 26.958331 23.390625 27.343750 Z M10.546875 16.359375 C9.473953 16.359375 8.526046 16.135419 7.703125 15.687500 C6.880204 15.239581 6.236981 14.622400 5.773438 13.835938 C5.309894 13.049475 5.078125 12.140630 5.078125 11.109375 L5.078125 6.718750 C5.078125 5.854162 5.341143 5.260418 5.867188 4.937500 C6.393232 4.614582 7.317702 4.453125 8.640625 4.453125 L8.640625 1.781250 C8.640625 1.364581 8.773436 0.963544 9.039062 0.578125 C9.304689 0.192706 9.807288 -0.000000 10.546875 -0.000000 C11.286462 -0.000000 11.789061 0.192706 12.054688 0.578125 C12.320314 0.963544 12.453125 1.364581 12.453125 1.781250 L12.453125 4.453125 C13.786465 4.453125 14.713539 4.614582 15.234375 4.937500 C15.755211 5.260418 16.015625 5.854162 16.015625 6.718750 L16.015625 11.109375 C16.015625 12.140630 15.783856 13.049475 15.320312 13.835938 C14.856769 14.622400 14.213546 15.239581 13.390625 15.687500 C12.567704 16.135419 11.619797 16.359375 10.546875 16.359375 Z M12.375000 11.125000 C12.041665 11.125000 11.747397 11.049480 11.492188 10.898438 C11.236978 10.747395 11.109375 10.541668 11.109375 10.281250 C11.109375 9.999999 11.249999 9.859375 11.531250 9.859375 C11.645834 9.859375 11.781249 9.890625 11.937500 9.953125 C12.093751 10.015625 12.239583 10.046875 12.375000 10.046875 C12.520834 10.046875 12.671874 10.015625 12.828125 9.953125 C12.984376 9.890625 13.114583 9.859375 13.218750 9.859375 C13.500001 9.859375 13.640625 9.999999 13.640625 10.281250 C13.640625 10.541668 13.513022 10.747395 13.257812 10.898438 C13.002603 11.049480 12.708335 11.125000 12.375000 11.125000 Z M32.437500 31.250000 L32.437500 28.906250 L34.156250 28.906250 L34.156250 31.250000 Z M19.765625 29.562500 C18.932288 29.562500 18.434897 29.244795 18.273438 28.609375 C18.111978 27.973955 18.031250 27.026048 18.031250 25.765625 C18.031250 24.765620 18.156249 23.755213 18.406250 22.734375 C18.656251 21.713537 19.015623 20.734380 19.484375 19.796875 C19.953127 18.859370 20.510413 18.013025 21.156250 17.257812 C21.802087 16.502600 22.520829 15.885419 23.312500 15.406250 L29.515625 15.453125 C30.276045 15.973961 30.979163 16.651038 31.625000 17.484375 C32.270837 18.317712 32.796873 19.249995 33.203125 20.281250 C33.588544 21.260422 33.973956 22.054684 34.359375 22.664062 C34.744794 23.273441 35.192706 23.791665 35.703125 24.218750 C36.171877 24.604169 36.510416 25.023435 36.718750 25.476562 C36.927084 25.929690 37.031250 26.369790 37.031250 26.796875 C37.031250 27.536462 36.783857 28.182289 36.289062 28.734375 C35.794268 29.286461 35.187504 29.562500 34.468750 29.562500 Z M12.125000 9.031250 C11.958332 9.031250 11.804688 8.992188 11.664062 8.914062 C11.523437 8.835937 11.453125 8.734376 11.453125 8.609375 C11.453125 8.484374 11.520833 8.385417 11.656250 8.312500 C11.791667 8.239583 11.937499 8.203125 12.093750 8.203125 C12.260418 8.203125 12.424478 8.239583 12.585938 8.312500 C12.747397 8.385417 12.828125 8.484374 12.828125 8.609375 C12.828125 8.734376 12.755209 8.835937 12.609375 8.914062 C12.463541 8.992188 12.302084 9.031250 12.125000 9.031250 Z M15.546875 12.250000 L15.765625 9.156250 C16.140627 9.156250 16.440103 9.296874 16.664062 9.578125 C16.888022 9.859376 17.000000 10.239581 17.000000 10.718750 C17.000000 11.135419 16.856772 11.494790 16.570312 11.796875 C16.283853 12.098960 15.942710 12.250000 15.546875 12.250000 Z M33.843750 27.843750 C34.281252 27.843750 34.598957 27.757813 34.796875 27.585938 C34.994793 27.414062 35.093750 27.197918 35.093750 26.937500 C35.093750 26.385414 34.804690 25.973960 34.226562 25.703125 C33.648435 25.432290 32.895838 25.171876 31.968750 24.921875 C31.343747 24.744791 30.700524 24.533855 30.039062 24.289062 C29.377601 24.044270 28.671879 23.713544 27.921875 23.296875 C28.057292 23.807294 28.348956 24.328122 28.796875 24.859375 C29.244794 25.390628 29.768226 25.882810 30.367188 26.335938 C30.966149 26.789065 31.575518 27.153644 32.195312 27.429688 C32.815107 27.705731 33.364581 27.843750 33.843750 27.843750 Z M26.234375 22.968750 L30.562500 19.734375 C30.208332 18.848954 29.669274 18.117190 28.945312 17.539062 C28.221351 16.960935 27.317714 16.671875 26.234375 16.671875 C25.151036 16.671875 24.247399 16.960935 23.523438 17.539062 C22.799476 18.117190 22.260418 18.848954 21.906250 19.734375 Z M4.140625 4.625000 L4.140625 3.062500 L7.937500 3.062500 L7.937500 1.968750 L13.156250 1.968750 L13.156250 3.062500 L16.953125 3.062500 L16.953125 4.625000 Z M26.234375 13.562500 C25.755206 13.562500 25.421876 13.481772 25.234375 13.320312 C25.046874 13.158853 24.953125 13.000001 24.953125 12.843750 C24.953125 12.541665 25.380204 12.390625 26.234375 12.390625 C27.088546 12.390625 27.515625 12.541665 27.515625 12.843750 C27.515625 13.000001 27.421876 13.158853 27.234375 13.320312 C27.046874 13.481772 26.713544 13.562500 26.234375 13.562500 Z M24.218750 11.015625 C23.885415 11.015625 23.591147 10.940105 23.335938 10.789062 C23.080728 10.638020 22.953125 10.432293 22.953125 10.171875 C22.953125 9.890624 23.093749 9.750000 23.375000 9.750000 C23.489584 9.750000 23.624999 9.781250 23.781250 9.843750 C23.937501 9.906250 24.083333 9.937500 24.218750 9.937500 C24.364584 9.937500 24.515624 9.906250 24.671875 9.843750 C24.828126 9.781250 24.958333 9.750000 25.062500 9.750000 C25.343751 9.750000 25.484375 9.890624 25.484375 10.171875 C25.484375 10.432293 25.356772 10.638020 25.101562 10.789062 C24.846353 10.940105 24.552085 11.015625 24.218750 11.015625 Z M26.234375 15.109375 C27.411464 15.109375 28.364580 14.697921 29.093750 13.875000 C29.822920 13.052079 30.187500 12.026048 30.187500 10.796875 C30.187500 10.036455 30.104168 9.388024 29.937500 8.851562 C29.770832 8.315101 29.565105 7.861981 29.320312 7.492188 C29.075520 7.122394 28.838543 6.812501 28.609375 6.562500 C28.223956 6.760418 27.825523 6.916666 27.414062 7.031250 C27.002602 7.145834 26.609377 7.203125 26.234375 7.203125 C25.859373 7.203125 25.468752 7.145834 25.062500 7.031250 C24.656248 6.916666 24.255210 6.760418 23.859375 6.562500 C23.630207 6.812501 23.393230 7.122394 23.148438 7.492188 C22.903645 7.861981 22.697918 8.315101 22.531250 8.851562 C22.364582 9.388024 22.281250 10.036455 22.281250 10.796875 C22.281250 12.026048 22.645830 13.052079 23.375000 13.875000 C24.104170 14.697921 25.057286 15.109375 26.234375 15.109375 Z M24.640625 8.750000 C24.463541 8.750000 24.302084 8.710938 24.156250 8.632812 C24.010416 8.554687 23.937500 8.453126 23.937500 8.328125 C23.937500 8.203124 24.018228 8.104167 24.179688 8.031250 C24.341147 7.958333 24.505208 7.921875 24.671875 7.921875 C24.828126 7.921875 24.973958 7.958333 25.109375 8.031250 C25.244792 8.104167 25.312500 8.203124 25.312500 8.328125 C25.312500 8.453126 25.242188 8.554687 25.101562 8.632812 C24.960937 8.710938 24.807292 8.750000 24.640625 8.750000 Z M24.375000 16.593750 C23.187494 15.906247 22.177088 15.265628 21.343750 14.671875 C20.510412 14.078122 19.875002 13.476566 19.437500 12.867188 C18.999998 12.257809 18.781250 11.593754 18.781250 10.875000 C18.781250 9.760411 19.005206 8.791671 19.453125 7.968750 C19.901044 7.145829 20.473955 6.432295 21.171875 5.828125 C21.869795 5.223955 22.593746 4.708335 23.343750 4.281250 C23.552084 3.583330 23.880206 3.031252 24.328125 2.625000 C24.776044 2.218748 25.411454 2.015625 26.234375 2.015625 C27.067712 2.015625 27.708331 2.218748 28.156250 2.625000 C28.604169 3.031252 28.927082 3.583330 29.125000 4.281250 C29.875004 4.708335 30.598955 5.223955 31.296875 5.828125 C31.994795 6.432295 32.567706 7.145829 33.015625 7.968750 C33.463544 8.791671 33.687500 9.760411 33.687500 10.875000 C33.687500 11.593754 33.468752 12.257809 33.031250 12.867188 C32.593748 13.476566 31.958338 14.078122 31.125000 14.671875 C30.291662 15.265628 29.281256 15.906247 28.093750 16.593750 Z M28.203125 11.015625 C27.869790 11.015625 27.575522 10.940105 27.320312 10.789062 C27.065103 10.638020 26.937500 10.432293 26.937500 10.171875 C26.937500 9.890624 27.078124 9.750000 27.359375 9.750000 C27.473959 9.750000 27.609374 9.781250 27.765625 9.843750 C27.921876 9.906250 28.067708 9.937500 28.203125 9.937500 C28.348959 9.937500 28.499999 9.906250 28.656250 9.843750 C28.812501 9.781250 28.942708 9.750000 29.046875 9.750000 C29.328126 9.750000 29.468750 9.890624 29.468750 10.171875 C29.468750 10.432293 29.341147 10.638020 29.085938 10.789062 C28.830728 10.940105 28.536460 11.015625 28.203125 11.015625 Z M27.796875 8.750000 C27.630208 8.750000 27.476563 8.710938 27.335938 8.632812 C27.195312 8.554687 27.125000 8.453126 27.125000 8.328125 C27.125000 8.203124 27.192708 8.104167 27.328125 8.031250 C27.463542 7.958333 27.609374 7.921875 27.765625 7.921875 C27.932292 7.921875 28.096353 7.958333 28.257812 8.031250 C28.419272 8.104167 28.500000 8.203124 28.500000 8.328125 C28.500000 8.453126 28.427084 8.554687 28.281250 8.632812 C28.135416 8.710938 27.973959 8.750000 27.796875 8.750000 Z M26.234375 6.187500 C26.619794 6.187500 26.942707 6.052085 27.203125 5.781250 C27.463543 5.510415 27.593750 5.192710 27.593750 4.828125 C27.593750 4.453123 27.463543 4.130210 27.203125 3.859375 C26.942707 3.588540 26.619794 3.453125 26.234375 3.453125 C25.848956 3.453125 25.526043 3.588540 25.265625 3.859375 C25.005207 4.130210 24.875000 4.453123 24.875000 4.828125 C24.875000 5.192710 25.005207 5.510415 25.265625 5.781250 C25.526043 6.052085 25.848956 6.187500 26.234375 6.187500 Z M24.328125 2.828125 C24.192708 2.630207 24.083334 2.411460 24.000000 2.171875 C23.916666 1.932290 23.875000 1.708334 23.875000 1.500000 C23.875000 0.979164 24.109373 0.718750 24.578125 0.718750 C24.723959 0.718750 24.869791 0.763020 25.015625 0.851562 C25.161459 0.940105 25.302083 1.093749 25.437500 1.312500 C25.437500 0.937498 25.510416 0.625001 25.656250 0.375000 C25.802084 0.124999 25.994790 -0.000000 26.234375 -0.000000 C26.473960 -0.000000 26.666666 0.124999 26.812500 0.375000 C26.958334 0.625001 27.031250 0.937498 27.031250 1.312500 C27.166667 1.093749 27.309895 0.940105 27.460938 0.851562 C27.611980 0.763020 27.755208 0.718750 27.890625 0.718750 C28.359377 0.718750 28.593750 0.979164 28.593750 1.500000 C28.593750 1.708334 28.552084 1.932290 28.468750 2.171875 C28.385416 2.411460 28.276042 2.630207 28.140625 2.828125 Z M38.828125 27.343750" /></svg>