<svg version="1.1" xmlns="http://www.w3.org/2000/svg" style="fill:rgba(0,0,0,1.0)" width="256" height="256" viewBox="0 0 32.1875 32.8125"><path fill="rgb(255, 255, 255)" d="M11.875000 32.812500 C9.520822 32.812500 7.453134 32.632814 5.671875 32.273438 C3.890616 31.914061 2.500005 31.382816 1.500000 30.679688 C0.499995 29.976559 0.000000 29.109380 0.000000 28.078125 L0.000000 12.375000 C0.000000 11.229161 0.239581 10.145838 0.718750 9.125000 C1.197919 8.104162 1.901037 7.135421 2.828125 6.218750 L4.296875 7.171875 C3.442704 7.963546 2.825523 8.789058 2.445312 9.648438 C2.065102 10.507817 1.875000 11.416662 1.875000 12.375000 L1.875000 28.078125 C1.875000 28.640628 2.317704 29.151039 3.203125 29.609375 C4.088546 30.067711 5.289055 30.429686 6.804688 30.695312 C8.320320 30.960939 10.010407 31.093750 11.875000 31.093750 C13.750009 31.093750 15.442701 30.960939 16.953125 30.695312 C18.463549 30.429686 19.661454 30.067711 20.546875 29.609375 C21.432296 29.151039 21.875000 28.640628 21.875000 28.078125 L21.875000 12.375000 C21.875000 11.416662 21.684898 10.507817 21.304688 9.648438 C20.924477 8.789058 20.307296 7.963546 19.453125 7.171875 L20.921875 6.218750 C21.848963 7.135421 22.552081 8.104162 23.031250 9.125000 C23.510419 10.145838 23.750000 11.229161 23.750000 12.375000 L23.750000 28.078125 C23.750000 29.109380 23.250005 29.976559 22.250000 30.679688 C21.249995 31.382816 19.859384 31.914061 18.078125 32.273438 C16.296866 32.632814 14.229178 32.812500 11.875000 32.812500 Z M11.875000 29.562500 C10.437493 29.562500 9.127610 29.473959 7.945312 29.296875 C6.763015 29.119791 5.820316 28.882814 5.117188 28.585938 C4.414059 28.289061 4.062500 27.963543 4.062500 27.609375 C4.062500 27.244790 4.414059 26.916668 5.117188 26.625000 C5.820316 26.333332 6.763015 26.098959 7.945312 25.921875 C9.127610 25.744791 10.437493 25.656250 11.875000 25.656250 C13.312507 25.656250 14.622390 25.744791 15.804688 25.921875 C16.986985 26.098959 17.929684 26.333332 18.632812 26.625000 C19.335941 26.916668 19.687500 27.244790 19.687500 27.609375 C19.687500 27.963543 19.335941 28.289061 18.632812 28.585938 C17.929684 28.882814 16.986985 29.119791 15.804688 29.296875 C14.622390 29.473959 13.312507 29.562500 11.875000 29.562500 Z M5.156250 21.718750 C4.927082 21.718750 4.739584 21.643230 4.593750 21.492188 C4.447916 21.341145 4.375000 21.151043 4.375000 20.921875 L4.375000 13.781250 C4.375000 13.197914 4.442708 12.648440 4.578125 12.132812 C4.713542 11.617185 4.885416 11.197918 5.093750 10.875000 C5.343751 10.489581 5.624998 10.296875 5.937500 10.296875 C6.114584 10.296875 6.283853 10.361979 6.445312 10.492188 C6.606772 10.622396 6.687500 10.781249 6.687500 10.968750 C6.687500 11.187501 6.630209 11.385416 6.515625 11.562500 C6.338541 11.854168 6.197917 12.190102 6.093750 12.570312 C5.989583 12.950523 5.937500 13.354165 5.937500 13.781250 L5.937500 20.921875 C5.937500 21.151043 5.864584 21.341145 5.718750 21.492188 C5.572916 21.643230 5.385418 21.718750 5.156250 21.718750 Z M11.875000 6.890625 C12.927089 6.890625 13.963537 6.848959 14.984375 6.765625 C16.005213 6.682291 16.929683 6.565105 17.757812 6.414062 C18.585942 6.263020 19.244789 6.085939 19.734375 5.882812 C20.223961 5.679686 20.468750 5.458335 20.468750 5.218750 L20.468750 3.406250 C19.937497 3.625001 19.218755 3.815103 18.312500 3.976562 C17.406245 4.138022 16.395839 4.265625 15.281250 4.359375 C14.166661 4.453125 13.031256 4.500000 11.875000 4.500000 C10.729161 4.500000 9.596360 4.453125 8.476562 4.359375 C7.356765 4.265625 6.343755 4.138022 5.437500 3.976562 C4.531245 3.815103 3.812503 3.625001 3.281250 3.406250 L3.281250 5.218750 C3.281250 5.458335 3.526039 5.679686 4.015625 5.882812 C4.505211 6.085939 5.164058 6.263020 5.992188 6.414062 C6.820317 6.565105 7.744787 6.682291 8.765625 6.765625 C9.786463 6.848959 10.822911 6.890625 11.875000 6.890625 Z M11.875000 8.609375 C9.749989 8.609375 7.903654 8.492189 6.335938 8.257812 C4.768221 8.023436 3.554692 7.687502 2.695312 7.250000 C1.835933 6.812498 1.406250 6.291670 1.406250 5.687500 L1.406250 2.921875 C1.406250 2.307289 1.835933 1.783856 2.695312 1.351562 C3.554692 0.919269 4.768221 0.585939 6.335938 0.351562 C7.903654 0.117186 9.749989 -0.000000 11.875000 -0.000000 C14.000011 -0.000000 15.846346 0.117186 17.414062 0.351562 C18.981779 0.585939 20.195308 0.919269 21.054688 1.351562 C21.914067 1.783856 22.343750 2.307289 22.343750 2.921875 L22.343750 5.687500 C22.343750 6.291670 21.914067 6.812498 21.054688 7.250000 C20.195308 7.687502 18.981779 8.023436 17.414062 8.257812 C15.846346 8.492189 14.000011 8.609375 11.875000 8.609375 Z M11.875000 2.781250 C12.791671 2.781250 13.679683 2.757813 14.539062 2.710938 C15.398442 2.664062 16.158851 2.601563 16.820312 2.523438 C17.481774 2.445312 17.963540 2.354167 18.265625 2.250000 C17.578122 2.093749 16.640631 1.966146 15.453125 1.867188 C14.265619 1.768229 13.072923 1.718750 11.875000 1.718750 C10.677077 1.718750 9.484381 1.768229 8.296875 1.867188 C7.109369 1.966146 6.171878 2.093749 5.484375 2.250000 C5.796877 2.354167 6.281247 2.445312 6.937500 2.523438 C7.593753 2.601563 8.354162 2.664062 9.218750 2.710938 C10.083338 2.757813 10.968745 2.781250 11.875000 2.781250 Z M32.187500 27.343750" /></svg>