<svg version="1.1" xmlns="http://www.w3.org/2000/svg" style="fill:rgba(0,0,0,1.0)" width="256" height="256" viewBox="0 0 32.1875 32.8125"><path fill="rgb(255, 255, 255)" d="M2.531250 32.812500 C1.718746 32.812500 1.093752 32.593752 0.656250 32.156250 C0.218748 31.718748 0.000000 31.098962 0.000000 30.296875 L0.000000 2.515625 C0.000000 1.713538 0.218748 1.093752 0.656250 0.656250 C1.093752 0.218748 1.718746 -0.000000 2.531250 -0.000000 L21.218750 -0.000000 C22.031254 -0.000000 22.656248 0.218748 23.093750 0.656250 C23.531252 1.093752 23.750000 1.713538 23.750000 2.515625 L23.750000 30.296875 C23.750000 31.098962 23.531252 31.718748 23.093750 32.156250 C22.656248 32.593752 22.031254 32.812500 21.218750 32.812500 Z M18.812500 29.843750 C18.666666 29.843750 18.473960 29.536461 18.234375 28.921875 C17.651039 28.921875 17.338542 28.875000 17.296875 28.781250 C17.276042 28.718750 17.330729 28.596355 17.460938 28.414062 C17.591146 28.231770 17.744791 28.041668 17.921875 27.843750 C17.869791 27.677082 17.815104 27.466147 17.757812 27.210938 C17.700521 26.955728 17.697916 26.807292 17.750000 26.765625 C17.822917 26.713541 17.958332 26.734375 18.156250 26.828125 C18.354168 26.921875 18.572915 27.046874 18.812500 27.203125 C19.062501 27.046874 19.286457 26.921875 19.484375 26.828125 C19.682293 26.734375 19.817708 26.713541 19.890625 26.765625 C19.942709 26.807292 19.940104 26.955728 19.882812 27.210938 C19.825521 27.466147 19.770834 27.677082 19.718750 27.843750 C19.895834 28.041668 20.046874 28.231770 20.171875 28.414062 C20.296876 28.596355 20.348958 28.718750 20.328125 28.781250 C20.296875 28.875000 19.989586 28.921875 19.406250 28.921875 C19.156249 29.536461 18.958334 29.843750 18.812500 29.843750 Z M8.312500 25.453125 C8.041665 25.453125 7.822918 25.380209 7.656250 25.234375 C8.218753 24.744789 8.648436 24.229169 8.945312 23.687500 C9.242189 23.145831 9.390625 22.645836 9.390625 22.187500 C9.067707 22.520835 8.708335 22.757812 8.312500 22.898438 C7.916665 23.039063 7.541668 23.109375 7.187500 23.109375 C6.531247 23.109375 6.130209 22.958335 5.984375 22.656250 C6.411460 22.447916 6.817706 22.169273 7.203125 21.820312 C7.588544 21.471352 7.908853 21.119793 8.164062 20.765625 C8.419272 20.411457 8.567708 20.140626 8.609375 19.953125 C8.317707 19.484373 8.098959 18.955732 7.953125 18.367188 C7.807291 17.778643 7.734375 17.145837 7.734375 16.468750 C7.734375 16.239582 7.742187 16.007814 7.757812 15.773438 C7.773438 15.539061 7.796875 15.302085 7.828125 15.062500 C8.255210 14.666665 8.791663 14.328126 9.437500 14.046875 C10.083337 13.765624 10.895828 13.625000 11.875000 13.625000 C12.854172 13.625000 13.669268 13.765624 14.320312 14.046875 C14.971357 14.328126 15.505206 14.666665 15.921875 15.062500 C15.953125 15.302085 15.976562 15.539061 15.992188 15.773438 C16.007813 16.007814 16.015625 16.239582 16.015625 16.468750 C16.015625 17.135420 15.942709 17.765622 15.796875 18.359375 C15.651041 18.953128 15.432293 19.484373 15.140625 19.953125 C15.182292 20.140626 15.330728 20.411457 15.585938 20.765625 C15.841147 21.119793 16.161456 21.471352 16.546875 21.820312 C16.932294 22.169273 17.338540 22.447916 17.765625 22.656250 C17.619791 22.958335 17.213545 23.109375 16.546875 23.109375 C16.203123 23.109375 15.833335 23.039063 15.437500 22.898438 C15.041665 22.757812 14.682293 22.520835 14.359375 22.187500 C14.359375 22.645836 14.507811 23.145831 14.804688 23.687500 C15.101564 24.229169 15.531247 24.744789 16.093750 25.234375 C15.927082 25.380209 15.703126 25.453125 15.421875 25.453125 C14.901039 25.453125 14.276045 25.223961 13.546875 24.765625 C12.817705 24.307289 12.260419 23.687504 11.875000 22.906250 C11.489581 23.687504 10.932295 24.307289 10.203125 24.765625 C9.473955 25.223961 8.843753 25.453125 8.312500 25.453125 Z M4.375000 13.281250 C3.999998 13.281250 3.679689 13.148439 3.414062 12.882812 C3.148436 12.617186 3.015625 12.302085 3.015625 11.937500 C3.015625 11.572915 3.148436 11.260418 3.414062 11.000000 C3.679689 10.739582 3.999998 10.609375 4.375000 10.609375 C4.729168 10.609375 5.036457 10.739582 5.296875 11.000000 C5.557293 11.260418 5.687500 11.572915 5.687500 11.937500 C5.687500 12.302085 5.557293 12.617186 5.296875 12.882812 C5.036457 13.148439 4.729168 13.281250 4.375000 13.281250 Z M11.875000 19.468750 C11.177080 19.468750 10.734376 19.322918 10.546875 19.031250 C10.359374 18.739582 10.265625 18.463543 10.265625 18.203125 L13.484375 18.203125 C13.484375 18.463543 13.393230 18.739582 13.210938 19.031250 C13.028645 19.322918 12.583337 19.468750 11.875000 19.468750 Z M7.828125 15.234375 C7.828125 14.734372 7.700522 14.239586 7.445312 13.750000 C7.190103 13.260414 6.882814 12.854168 6.523438 12.531250 C6.164061 12.208332 5.822918 12.046875 5.500000 12.046875 C5.312499 12.046875 5.161459 12.104166 5.046875 12.218750 L4.421875 11.500000 C4.703126 11.249999 5.041665 11.125000 5.437500 11.125000 C5.947919 11.125000 6.458331 11.322915 6.968750 11.718750 C7.479169 12.114585 7.906248 12.624997 8.250000 13.250000 C8.593752 13.875003 8.765625 14.536455 8.765625 15.234375 Z M10.375000 17.343750 C10.166666 17.343750 10.052083 17.109377 10.031250 16.640625 C9.645831 16.609375 9.453125 16.515626 9.453125 16.359375 C9.453125 16.203124 9.645831 16.109375 10.031250 16.078125 C10.052083 15.609373 10.166666 15.375000 10.375000 15.375000 C10.583334 15.375000 10.697917 15.609373 10.718750 16.078125 C11.104169 16.109375 11.296875 16.203124 11.296875 16.359375 C11.296875 16.515626 11.104169 16.609375 10.718750 16.640625 C10.697917 17.109377 10.583334 17.343750 10.375000 17.343750 Z M11.875000 20.578125 C12.802088 20.578125 13.497394 20.348961 13.960938 19.890625 C14.424481 19.432289 14.734374 18.877607 14.890625 18.226562 C15.046876 17.575518 15.125000 16.973961 15.125000 16.421875 C15.125000 16.244791 15.122396 16.080730 15.117188 15.929688 C15.111979 15.778645 15.098958 15.640626 15.078125 15.515625 C14.796874 15.286457 14.377607 15.070314 13.820312 14.867188 C13.263018 14.664061 12.614587 14.562500 11.875000 14.562500 C11.135413 14.562500 10.494794 14.664061 9.953125 14.867188 C9.411456 15.070314 9.000001 15.286457 8.718750 15.515625 C8.708333 15.651042 8.697917 15.799478 8.687500 15.960938 C8.677083 16.122397 8.671875 16.296874 8.671875 16.484375 C8.671875 17.036461 8.749999 17.630205 8.906250 18.265625 C9.062501 18.901045 9.369789 19.445310 9.828125 19.898438 C10.286461 20.351565 10.968745 20.578125 11.875000 20.578125 Z M2.703125 30.937500 L21.046875 30.937500 C21.598961 30.937500 21.875000 30.656253 21.875000 30.093750 L21.875000 2.734375 C21.875000 2.453124 21.807292 2.239584 21.671875 2.093750 C21.536458 1.947916 21.328126 1.875000 21.046875 1.875000 L2.703125 1.875000 C2.151039 1.875000 1.875000 2.161455 1.875000 2.734375 L1.875000 30.078125 C1.875000 30.359376 1.942708 30.572916 2.078125 30.718750 C2.213542 30.864584 2.421874 30.937500 2.703125 30.937500 Z M5.062500 11.765625 L4.250000 11.265625 C4.906253 9.973952 5.869785 9.328125 7.140625 9.328125 C7.723961 9.328125 8.257810 9.450520 8.742188 9.695312 C9.226565 9.940105 9.614582 10.286456 9.906250 10.734375 L9.328125 11.656250 C9.171874 11.229165 8.901044 10.890626 8.515625 10.640625 C8.130206 10.390624 7.671878 10.265625 7.140625 10.265625 C6.692706 10.265625 6.294273 10.382811 5.945312 10.617188 C5.596352 10.851564 5.302085 11.234372 5.062500 11.765625 Z M13.375000 17.343750 C13.166666 17.343750 13.052083 17.109377 13.031250 16.640625 C12.645831 16.609375 12.453125 16.515626 12.453125 16.359375 C12.453125 16.203124 12.645831 16.109375 13.031250 16.078125 C13.052083 15.609373 13.166666 15.375000 13.375000 15.375000 C13.583334 15.375000 13.697917 15.609373 13.718750 16.078125 C14.104169 16.109375 14.296875 16.203124 14.296875 16.359375 C14.296875 16.515626 14.104169 16.609375 13.718750 16.640625 C13.697917 17.109377 13.583334 17.343750 13.375000 17.343750 Z M3.859375 6.031250 C3.807291 5.979166 3.809896 5.828126 3.867188 5.578125 C3.924479 5.328124 3.979166 5.119792 4.031250 4.953125 C3.854166 4.744791 3.703126 4.552084 3.578125 4.375000 C3.453124 4.197916 3.401042 4.078125 3.421875 4.015625 C3.463542 3.921875 3.770830 3.875000 4.343750 3.875000 C4.593751 3.260414 4.791666 2.953125 4.937500 2.953125 C5.083334 2.953125 5.276040 3.260414 5.515625 3.875000 C6.098961 3.875000 6.411458 3.921875 6.453125 4.015625 C6.473958 4.078125 6.419271 4.197916 6.289062 4.375000 C6.158854 4.552084 6.005209 4.744791 5.828125 4.953125 C5.880209 5.119792 5.934896 5.328124 5.992188 5.578125 C6.049479 5.828126 6.052084 5.979166 6.000000 6.031250 C5.927083 6.083334 5.791668 6.062500 5.593750 5.968750 C5.395832 5.875000 5.177085 5.750001 4.937500 5.593750 C4.687499 5.750001 4.463543 5.875000 4.265625 5.968750 C4.067707 6.062500 3.932292 6.083334 3.859375 6.031250 Z M8.968750 14.375000 C8.968750 12.354157 9.244789 10.588549 9.796875 9.078125 C10.348961 7.567701 11.187494 6.411462 12.312500 5.609375 C12.739585 5.817709 13.109373 6.260413 13.421875 6.937500 C13.734377 7.614587 13.976562 8.434891 14.148438 9.398438 C14.320313 10.361984 14.406250 11.385411 14.406250 12.468750 C14.406250 12.781252 14.398438 13.096353 14.382812 13.414062 C14.367187 13.731772 14.343750 14.052082 14.312500 14.375000 L13.375000 14.281250 C13.437500 13.687497 13.468750 13.088545 13.468750 12.484375 C13.468750 11.286452 13.361980 10.166672 13.148438 9.125000 C12.934895 8.083328 12.651043 7.322919 12.296875 6.843750 C11.494788 7.604170 10.895835 8.630202 10.500000 9.921875 C10.104165 11.213548 9.906250 12.697908 9.906250 14.375000 Z M14.984375 15.078125 C14.984375 14.390622 15.153644 13.744795 15.492188 13.140625 C15.830731 12.536455 16.252602 12.046877 16.757812 11.671875 C17.263023 11.296873 17.765622 11.109375 18.265625 11.109375 C18.682294 11.109375 19.036457 11.239582 19.328125 11.500000 L18.703125 12.218750 C18.567708 12.093749 18.401043 12.031250 18.203125 12.031250 C17.890623 12.031250 17.557293 12.182290 17.203125 12.484375 C16.848957 12.786460 16.546876 13.171873 16.296875 13.640625 C16.046874 14.109377 15.921875 14.588539 15.921875 15.078125 Z M18.687500 11.765625 C18.447915 11.234372 18.156252 10.851564 17.812500 10.617188 C17.468748 10.382811 17.067711 10.265625 16.609375 10.265625 C16.078122 10.265625 15.619794 10.390624 15.234375 10.640625 C14.848956 10.890626 14.578126 11.229165 14.421875 11.656250 L13.843750 10.734375 C14.135418 10.286456 14.526039 9.940105 15.015625 9.695312 C15.505211 9.450520 16.036455 9.328125 16.609375 9.328125 C17.880215 9.328125 18.843747 9.973952 19.500000 11.265625 Z M12.421875 6.734375 C12.036456 6.734375 11.705731 6.598960 11.429688 6.328125 C11.153644 6.057290 11.015625 5.729169 11.015625 5.343750 C11.015625 4.958331 11.153644 4.632814 11.429688 4.367188 C11.705731 4.101561 12.036456 3.968750 12.421875 3.968750 C12.796877 3.968750 13.119790 4.101561 13.390625 4.367188 C13.661460 4.632814 13.796875 4.958331 13.796875 5.343750 C13.796875 5.729169 13.661460 6.057290 13.390625 6.328125 C13.119790 6.598960 12.796877 6.734375 12.421875 6.734375 Z M19.375000 13.281250 C19.020832 13.281250 18.713543 13.148439 18.453125 12.882812 C18.192707 12.617186 18.062500 12.302085 18.062500 11.937500 C18.062500 11.572915 18.192707 11.260418 18.453125 11.000000 C18.713543 10.739582 19.020832 10.609375 19.375000 10.609375 C19.750002 10.609375 20.070311 10.739582 20.335938 11.000000 C20.601564 11.260418 20.734375 11.572915 20.734375 11.937500 C20.734375 12.302085 20.601564 12.617186 20.335938 12.882812 C20.070311 13.148439 19.750002 13.281250 19.375000 13.281250 Z M32.187500 27.343750" /></svg>