<svg version="1.1" xmlns="http://www.w3.org/2000/svg" style="fill:rgba(0,0,0,1.0)" width="256" height="256" viewBox="0 0 35.15625 32.8125"><path fill="rgb(255, 255, 255)" d="M15.625000 32.812500 L0.000000 26.109375 L0.000000 18.484375 L12.781250 13.265625 L12.781250 15.390625 L2.578125 19.562500 L15.750000 25.218750 L27.265625 19.453125 L17.218750 15.437500 L17.218750 13.406250 L29.687500 18.375000 L29.687500 25.781250 Z M7.500000 20.515625 C6.916664 20.515625 6.463543 20.421876 6.140625 20.234375 C5.817707 20.046874 5.656250 19.807293 5.656250 19.515625 C5.656250 19.223957 5.817707 18.984376 6.140625 18.796875 C6.463543 18.609374 6.916664 18.515625 7.500000 18.515625 C8.083336 18.515625 8.536457 18.609374 8.859375 18.796875 C9.182293 18.984376 9.343750 19.223957 9.343750 19.515625 C9.343750 19.807293 9.182293 20.046874 8.859375 20.234375 C8.536457 20.421876 8.083336 20.515625 7.500000 20.515625 Z M14.843750 21.718750 C13.229159 21.718750 12.098962 21.486981 11.453125 21.023438 C10.807288 20.559894 10.484375 20.072919 10.484375 19.562500 C10.484375 18.864580 10.700519 18.236982 11.132812 17.679688 C11.565106 17.122393 12.213537 16.796875 13.078125 16.703125 C13.515627 17.171877 14.104163 17.406250 14.843750 17.406250 C15.583337 17.406250 16.171873 17.171877 16.609375 16.703125 C17.473963 16.796875 18.122394 17.122393 18.554688 17.679688 C18.986981 18.236982 19.203125 18.864580 19.203125 19.562500 C19.203125 20.072919 18.880212 20.559894 18.234375 21.023438 C17.588538 21.486981 16.458341 21.718750 14.843750 21.718750 Z M12.296875 18.375000 L12.296875 11.859375 L13.859375 11.859375 L13.859375 18.375000 Z M15.734375 18.390625 L15.734375 11.906250 L17.296875 11.906250 L17.296875 18.390625 Z M12.234375 7.015625 C12.036457 6.921875 11.895834 6.763022 11.812500 6.539062 C11.729166 6.315103 11.729166 6.067710 11.812500 5.796875 C11.958334 5.338539 12.171874 4.914064 12.453125 4.523438 C12.734376 4.132811 13.067706 3.791668 13.453125 3.500000 C13.723960 3.291666 14.002603 3.223958 14.289062 3.296875 C14.575522 3.369792 14.786458 3.526040 14.921875 3.765625 C15.078126 4.026043 15.101563 4.265624 14.992188 4.484375 C14.882812 4.703126 14.723959 4.895833 14.515625 5.062500 C14.317707 5.229167 14.138022 5.419270 13.976562 5.632812 C13.815103 5.846355 13.687500 6.078124 13.593750 6.328125 C13.458333 6.682293 13.265626 6.916666 13.015625 7.031250 C12.765624 7.145834 12.505210 7.140626 12.234375 7.015625 Z M14.796875 13.046875 C13.588536 13.046875 12.489588 12.752607 11.500000 12.164062 C10.510412 11.575518 9.721357 10.786463 9.132812 9.796875 C8.544268 8.807287 8.250000 7.713548 8.250000 6.515625 C8.250000 5.317702 8.544268 4.226567 9.132812 3.242188 C9.721357 2.257808 10.510412 1.471357 11.500000 0.882812 C12.489588 0.294268 13.588536 -0.000000 14.796875 -0.000000 C15.994798 -0.000000 17.085933 0.294268 18.070312 0.882812 C19.054692 1.471357 19.841143 2.257808 20.429688 3.242188 C21.018232 4.226567 21.312500 5.317702 21.312500 6.515625 C21.312500 7.713548 21.018232 8.807287 20.429688 9.796875 C19.841143 10.786463 19.054692 11.575518 18.070312 12.164062 C17.085933 12.752607 15.994798 13.046875 14.796875 13.046875 Z M14.796875 11.171875 C15.651046 11.171875 16.429684 10.963544 17.132812 10.546875 C17.835941 10.130206 18.395831 9.567712 18.812500 8.859375 C19.229169 8.151038 19.437500 7.369796 19.437500 6.515625 C19.437500 5.661454 19.229169 4.882816 18.812500 4.179688 C18.395831 3.476559 17.835941 2.916669 17.132812 2.500000 C16.429684 2.083331 15.651046 1.875000 14.796875 1.875000 C13.932287 1.875000 13.145837 2.083331 12.437500 2.500000 C11.729163 2.916669 11.166669 3.476559 10.750000 4.179688 C10.333331 4.882816 10.125000 5.661454 10.125000 6.515625 C10.125000 7.369796 10.333331 8.151038 10.750000 8.859375 C11.166669 9.567712 11.729163 10.130206 12.437500 10.546875 C13.145837 10.963544 13.932287 11.171875 14.796875 11.171875 Z M35.156250 27.343750" /></svg>