<svg version="1.1" xmlns="http://www.w3.org/2000/svg" style="fill:rgba(0,0,0,1.0)" width="256" height="256" viewBox="0 0 34.84375 32.8125"><path fill="rgb(255, 255, 255)" d="M14.796875 32.812500 C13.328118 32.812500 12.236983 32.335942 11.523438 31.382812 C10.809892 30.429683 10.453125 28.848969 10.453125 26.640625 C8.588532 26.494791 6.947924 25.895839 5.531250 24.843750 C4.114576 23.791661 3.013025 22.382821 2.226562 20.617188 C1.440100 18.851554 1.046875 16.833345 1.046875 14.562500 C1.046875 12.531240 1.411455 10.963547 2.140625 9.859375 C2.869795 8.755203 3.895827 8.203125 5.218750 8.203125 C6.333339 8.203125 7.179685 8.606767 7.757812 9.414062 C8.335940 10.221358 8.625000 11.333326 8.625000 12.750000 C8.625000 13.416670 8.593750 14.101559 8.531250 14.804688 C8.468750 15.507816 8.437500 16.182288 8.437500 16.828125 C8.437500 17.755213 8.598957 18.468748 8.921875 18.968750 C9.244793 19.468752 9.739580 19.781249 10.406250 19.906250 L10.406250 17.734375 C10.406250 17.098955 10.375000 16.348963 10.312500 15.484375 C10.250000 14.619787 10.174480 13.718755 10.085938 12.781250 C9.997395 11.843745 9.921875 10.940109 9.859375 10.070312 C9.796875 9.200516 9.765625 8.447920 9.765625 7.812500 C9.765625 5.604156 10.210933 3.984380 11.101562 2.953125 C11.992192 1.921870 13.223950 1.406250 14.796875 1.406250 C16.286466 1.406250 17.479162 1.851558 18.375000 2.742188 C19.270838 3.632817 19.718750 5.046865 19.718750 6.984375 C19.718750 7.515628 19.700521 8.182288 19.664062 8.984375 C19.627604 9.786462 19.578125 10.638016 19.515625 11.539062 C19.453125 12.440109 19.390625 13.315100 19.328125 14.164062 C19.265625 15.013025 19.208334 15.749997 19.156250 16.375000 C19.291667 16.447917 19.421874 16.500000 19.546875 16.531250 C19.671876 16.562500 19.796874 16.578125 19.921875 16.578125 C20.223960 16.578125 20.471353 16.473959 20.664062 16.265625 C20.856772 16.057291 20.953125 15.781252 20.953125 15.437500 C20.953125 14.604163 20.919271 13.838545 20.851562 13.140625 C20.783854 12.442705 20.750000 11.682296 20.750000 10.859375 C20.750000 8.286445 21.874989 7.000000 24.125000 7.000000 C25.427090 7.000000 26.385414 7.468745 27.000000 8.406250 C27.614586 9.343755 27.921875 10.848948 27.921875 12.921875 C27.921875 14.880218 27.598962 16.617180 26.953125 18.132812 C26.307288 19.648445 25.424485 20.835933 24.304688 21.695312 C23.184890 22.554692 21.911465 22.984375 20.484375 22.984375 C20.005206 22.984375 19.536461 22.932292 19.078125 22.828125 L19.078125 26.812500 C19.078125 28.906260 18.739587 30.429683 18.062500 31.382812 C17.385413 32.335942 16.296882 32.812500 14.796875 32.812500 Z M3.484375 24.031250 C3.286457 24.031250 3.187500 23.890626 3.187500 23.609375 C3.187500 23.421874 3.234375 23.197918 3.328125 22.937500 C3.192708 22.989584 3.067709 23.028646 2.953125 23.054688 C2.838541 23.080729 2.734375 23.093750 2.640625 23.093750 C2.369790 23.093750 2.234375 22.994793 2.234375 22.796875 C2.234375 22.661458 2.312499 22.515626 2.468750 22.359375 C2.750001 22.078124 3.161456 21.937500 3.703125 21.937500 C3.807292 21.937500 3.906250 21.942708 4.000000 21.953125 C4.093750 21.963542 4.187500 21.979167 4.281250 22.000000 C4.312500 22.135417 4.328125 22.291666 4.328125 22.468750 C4.328125 22.843752 4.250001 23.197915 4.093750 23.531250 C3.937499 23.864585 3.734376 24.031250 3.484375 24.031250 Z M10.187500 29.937500 C9.812498 29.937500 9.625000 29.828126 9.625000 29.609375 C9.625000 29.380207 9.874998 29.151043 10.375000 28.921875 C9.885414 28.703124 9.640625 28.473960 9.640625 28.234375 C9.640625 28.015624 9.822915 27.906250 10.187500 27.906250 C10.447918 27.906250 10.721353 27.999999 11.007812 28.187500 C11.294272 28.375001 11.531249 28.619790 11.718750 28.921875 C11.531249 29.213543 11.294272 29.455728 11.007812 29.648438 C10.721353 29.841147 10.447918 29.937500 10.187500 29.937500 Z M1.062500 18.781250 C0.697915 18.781250 0.515625 18.671876 0.515625 18.453125 C0.515625 18.223957 0.765622 17.994793 1.265625 17.765625 C0.765622 17.536457 0.515625 17.307293 0.515625 17.078125 C0.515625 16.859374 0.697915 16.750000 1.062500 16.750000 C1.333335 16.750000 1.611978 16.843749 1.898438 17.031250 C2.184897 17.218751 2.416666 17.458332 2.593750 17.750000 C2.416666 18.052085 2.184897 18.299478 1.898438 18.492188 C1.611978 18.684897 1.333335 18.781250 1.062500 18.781250 Z M1.468750 13.562500 C0.927081 13.562500 0.515626 13.421876 0.234375 13.140625 C0.078124 12.984374 0.000000 12.838542 0.000000 12.703125 C0.000000 12.505207 0.135415 12.406250 0.406250 12.406250 C0.500000 12.406250 0.604166 12.419271 0.718750 12.445312 C0.833334 12.471354 0.958333 12.510416 1.093750 12.562500 C1.000000 12.291665 0.953125 12.067709 0.953125 11.890625 C0.953125 11.609374 1.052082 11.468750 1.250000 11.468750 C1.500001 11.468750 1.703124 11.635415 1.859375 11.968750 C2.015626 12.302085 2.093750 12.656248 2.093750 13.031250 C2.093750 13.197917 2.078125 13.354166 2.046875 13.500000 C1.953125 13.520833 1.859375 13.536458 1.765625 13.546875 C1.671875 13.557292 1.572917 13.562500 1.468750 13.562500 Z M4.328125 16.062500 C3.786456 16.062500 3.375001 15.921876 3.093750 15.640625 C2.937499 15.484374 2.859375 15.338542 2.859375 15.203125 C2.859375 15.005207 2.994790 14.906250 3.265625 14.906250 C3.359375 14.906250 3.463541 14.919271 3.578125 14.945312 C3.692709 14.971354 3.817708 15.010416 3.953125 15.062500 C3.859375 14.791665 3.812500 14.567709 3.812500 14.390625 C3.812500 14.109374 3.911457 13.968750 4.109375 13.968750 C4.359376 13.968750 4.562499 14.135415 4.718750 14.468750 C4.875001 14.802085 4.953125 15.156248 4.953125 15.531250 C4.953125 15.697917 4.937500 15.854166 4.906250 16.000000 C4.812500 16.020833 4.718750 16.036458 4.625000 16.046875 C4.531250 16.057292 4.432292 16.062500 4.328125 16.062500 Z M19.593750 29.937500 C19.333332 29.937500 19.059897 29.841147 18.773438 29.648438 C18.486978 29.455728 18.250001 29.213543 18.062500 28.921875 C18.250001 28.619790 18.486978 28.375001 18.773438 28.187500 C19.059897 27.999999 19.333332 27.906250 19.593750 27.906250 C19.958335 27.906250 20.140625 28.015624 20.140625 28.234375 C20.140625 28.473960 19.895836 28.703124 19.406250 28.921875 C19.906252 29.151043 20.156250 29.380207 20.156250 29.609375 C20.156250 29.828126 19.968752 29.937500 19.593750 29.937500 Z M11.593750 24.078125 C9.083321 24.078125 7.182298 23.291675 5.890625 21.718750 C4.598952 20.145825 3.953125 17.828140 3.953125 14.765625 C3.953125 13.057283 4.166665 11.088553 4.593750 8.859375 L6.125000 9.109375 C5.687498 11.401053 5.468750 13.395825 5.468750 15.093750 C5.468750 17.604179 5.966141 19.468744 6.960938 20.687500 C7.955734 21.906256 9.473948 22.515625 11.515625 22.515625 C12.151045 22.515625 12.802080 22.463542 13.468750 22.359375 L13.656250 23.921875 C12.958330 24.026042 12.270837 24.078125 11.593750 24.078125 Z M10.140625 18.531250 C9.776040 18.531250 9.593750 18.421876 9.593750 18.203125 C9.593750 17.963540 9.843748 17.734376 10.343750 17.515625 C9.843748 17.296874 9.593750 17.067710 9.593750 16.828125 C9.593750 16.609374 9.776040 16.500000 10.140625 16.500000 C10.411460 16.500000 10.690103 16.593749 10.976562 16.781250 C11.263022 16.968751 11.494791 17.213540 11.671875 17.515625 C11.494791 17.807293 11.263022 18.049478 10.976562 18.242188 C10.690103 18.434897 10.411460 18.531250 10.140625 18.531250 Z M19.906250 26.031250 C19.645832 26.031250 19.372397 25.934897 19.085938 25.742188 C18.799478 25.549478 18.562501 25.307293 18.375000 25.015625 C18.562501 24.713540 18.799478 24.468751 19.085938 24.281250 C19.372397 24.093749 19.645832 24.000000 19.906250 24.000000 C20.270835 24.000000 20.453125 24.109374 20.453125 24.328125 C20.453125 24.567710 20.208336 24.796874 19.718750 25.015625 C20.218752 25.244793 20.468750 25.473957 20.468750 25.703125 C20.468750 25.921876 20.281252 26.031250 19.906250 26.031250 Z M13.093750 31.750000 C13.093750 28.447900 13.072917 25.523450 13.031250 22.976562 C12.989583 20.429675 12.916667 18.156260 12.812500 16.156250 C12.718750 14.364574 12.640625 12.747403 12.578125 11.304688 C12.515625 9.861972 12.484375 8.526048 12.484375 7.296875 C12.484375 6.276037 12.531250 5.302088 12.625000 4.375000 C12.718750 3.447912 12.890624 2.526046 13.140625 1.609375 L14.515625 1.859375 C14.286457 2.994797 14.130209 4.153640 14.046875 5.335938 C13.963541 6.518235 13.921875 7.817701 13.921875 9.234375 C13.921875 10.213547 13.937500 11.265619 13.968750 12.390625 C14.000000 13.515631 14.036458 14.744785 14.078125 16.078125 C14.151042 18.078135 14.213541 20.356758 14.265625 22.914062 C14.317709 25.471367 14.343750 28.416650 14.343750 31.750000 Z M5.359375 9.281250 C5.067707 9.104166 4.825522 8.869793 4.632812 8.578125 C4.440103 8.286457 4.343750 8.010418 4.343750 7.750000 C4.343750 7.374998 4.453124 7.187500 4.671875 7.187500 C4.911460 7.187500 5.140624 7.437497 5.359375 7.937500 C5.578126 7.437497 5.807290 7.187500 6.046875 7.187500 C6.265626 7.187500 6.375000 7.374998 6.375000 7.750000 C6.375000 8.010418 6.281251 8.286457 6.093750 8.578125 C5.906249 8.869793 5.661460 9.104166 5.359375 9.281250 Z M14.796875 31.250000 C15.796880 31.250000 16.499998 30.934899 16.906250 30.304688 C17.312502 29.674476 17.515625 28.510425 17.515625 26.812500 L17.515625 20.625000 C18.619797 21.156253 19.609371 21.421875 20.484375 21.421875 C21.598964 21.421875 22.585933 21.062504 23.445312 20.343750 C24.304692 19.624996 24.979164 18.627611 25.468750 17.351562 C25.958336 16.075514 26.203125 14.598967 26.203125 12.921875 C26.203125 11.244783 26.052085 10.098961 25.750000 9.484375 C25.447915 8.869789 24.906254 8.562500 24.125000 8.562500 C23.479163 8.562500 23.041668 8.734373 22.812500 9.078125 C22.583332 9.421877 22.468750 10.015621 22.468750 10.859375 C22.468750 11.494795 22.502604 12.239579 22.570312 13.093750 C22.638021 13.947921 22.671875 14.729163 22.671875 15.437500 C22.671875 16.208337 22.398440 16.851560 21.851562 17.367188 C21.304685 17.882815 20.661462 18.140625 19.921875 18.140625 C19.067704 18.140625 18.291670 17.807295 17.593750 17.140625 C17.625000 16.588539 17.664062 15.856775 17.710938 14.945312 C17.757813 14.033850 17.802083 13.067713 17.843750 12.046875 C17.885417 11.026037 17.921875 10.059900 17.953125 9.148438 C17.984375 8.236975 18.000000 7.515628 18.000000 6.984375 C18.000000 5.536451 17.721357 4.505211 17.164062 3.890625 C16.606768 3.276039 15.817713 2.968750 14.796875 2.968750 C13.692703 2.968750 12.838545 3.348955 12.234375 4.109375 C11.630205 4.869795 11.328125 6.104158 11.328125 7.812500 C11.328125 8.437503 11.359375 9.177079 11.421875 10.031250 C11.484375 10.885421 11.559895 11.778641 11.648438 12.710938 C11.736980 13.643234 11.812500 14.546871 11.875000 15.421875 C11.937500 16.296879 11.968750 17.067705 11.968750 17.734375 L11.968750 21.484375 C11.833333 21.494792 11.697917 21.505208 11.562500 21.515625 C11.427083 21.526042 11.291667 21.531250 11.156250 21.531250 C9.770826 21.531250 8.684900 21.125004 7.898438 20.312500 C7.111975 19.499996 6.718750 18.338549 6.718750 16.828125 C6.718750 16.494790 6.734375 16.059899 6.765625 15.523438 C6.796875 14.986976 6.828125 14.458336 6.859375 13.937500 C6.890625 13.416664 6.906250 13.020835 6.906250 12.750000 C6.906250 11.729162 6.783855 10.976565 6.539062 10.492188 C6.294270 10.007810 5.854170 9.765625 5.218750 9.765625 C4.395829 9.765625 3.781252 10.161454 3.375000 10.953125 C2.968748 11.744796 2.765625 12.947909 2.765625 14.562500 C2.765625 16.656260 3.140621 18.494784 3.890625 20.078125 C4.640629 21.661466 5.718743 22.895829 7.125000 23.781250 C8.531257 24.666671 10.218740 25.109375 12.187500 25.109375 L12.187500 26.500000 C12.187500 27.729173 12.268228 28.690101 12.429688 29.382812 C12.591147 30.075524 12.861977 30.559894 13.242188 30.835938 C13.622398 31.111981 14.140622 31.250000 14.796875 31.250000 Z M15.171875 31.750000 C15.171875 28.458317 15.197916 25.544284 15.250000 23.007812 C15.302084 20.471341 15.364583 18.213552 15.437500 16.234375 C15.489584 15.015619 15.528646 13.791673 15.554688 12.562500 C15.580729 11.333327 15.593750 10.223963 15.593750 9.234375 C15.593750 7.817701 15.552084 6.518235 15.468750 5.335938 C15.385416 4.153640 15.229168 2.994797 15.000000 1.859375 L16.375000 1.609375 C16.625001 2.526046 16.796875 3.447912 16.890625 4.375000 C16.984375 5.302088 17.031250 6.276037 17.031250 7.296875 C17.031250 8.526048 17.000000 9.861972 16.937500 11.304688 C16.875000 12.747403 16.796875 14.364574 16.703125 16.156250 C16.598958 18.156260 16.526042 20.429675 16.484375 22.976562 C16.442708 25.523450 16.421875 28.447900 16.421875 31.750000 Z M9.203125 7.437500 C8.838540 7.437500 8.656250 7.328126 8.656250 7.109375 C8.656250 6.869790 8.906248 6.640626 9.406250 6.421875 C8.906248 6.203124 8.656250 5.973960 8.656250 5.734375 C8.656250 5.515624 8.838540 5.406250 9.203125 5.406250 C9.473960 5.406250 9.752603 5.499999 10.039062 5.687500 C10.325522 5.875001 10.557291 6.119790 10.734375 6.421875 C10.557291 6.713543 10.325522 6.955728 10.039062 7.148438 C9.752603 7.341147 9.473960 7.437500 9.203125 7.437500 Z M13.953125 11.687500 C13.848958 11.687500 13.750000 11.682292 13.656250 11.671875 C13.562500 11.661458 13.468750 11.645833 13.375000 11.625000 C13.343750 11.479166 13.328125 11.322917 13.328125 11.156250 C13.328125 10.781248 13.406249 10.427085 13.562500 10.093750 C13.718751 9.760415 13.921874 9.593750 14.171875 9.593750 C14.369793 9.593750 14.468750 9.734374 14.468750 10.015625 C14.468750 10.192709 14.421875 10.416665 14.328125 10.687500 C14.463542 10.635416 14.588541 10.596354 14.703125 10.570312 C14.817709 10.544271 14.921875 10.531250 15.015625 10.531250 C15.286460 10.531250 15.421875 10.630207 15.421875 10.828125 C15.421875 10.963542 15.343751 11.109374 15.187500 11.265625 C14.906249 11.546876 14.494794 11.687500 13.953125 11.687500 Z M25.062500 22.562500 C24.802082 22.562500 24.593751 22.380210 24.437500 22.015625 C24.281249 21.651040 24.203125 21.302085 24.203125 20.968750 C24.203125 20.760416 24.223958 20.578126 24.265625 20.421875 C24.723961 20.421875 25.182289 20.494791 25.640625 20.640625 C26.098961 20.786459 26.328125 21.015623 26.328125 21.328125 C26.328125 21.421875 26.281250 21.494791 26.187500 21.546875 C26.093750 21.598959 25.989584 21.625000 25.875000 21.625000 C25.687499 21.625000 25.468751 21.572917 25.218750 21.468750 C25.312500 21.729168 25.359375 21.947916 25.359375 22.125000 C25.359375 22.229167 25.338542 22.328125 25.296875 22.421875 C25.255208 22.515625 25.177084 22.562500 25.062500 22.562500 Z M20.234375 20.671875 C19.598955 20.671875 18.916670 20.536460 18.187500 20.265625 C17.458330 19.994790 16.703129 19.578128 15.921875 19.015625 L16.640625 17.859375 C17.307295 18.338544 17.940101 18.690103 18.539062 18.914062 C19.138024 19.138022 19.692706 19.250000 20.203125 19.250000 C21.328131 19.250000 22.221351 18.750005 22.882812 17.750000 C23.544274 16.749995 23.875000 15.354176 23.875000 13.562500 C23.875000 12.739579 23.799480 11.843755 23.648438 10.875000 C23.497395 9.906245 23.255210 8.875005 22.921875 7.781250 L24.296875 7.500000 C24.609377 8.572922 24.838541 9.596349 24.984375 10.570312 C25.130209 11.544276 25.203125 12.463537 25.203125 13.328125 C25.203125 15.588553 24.747400 17.377598 23.835938 18.695312 C22.924475 20.013027 21.723966 20.671875 20.234375 20.671875 Z M28.015625 17.687500 C27.755207 17.687500 27.479168 17.591147 27.187500 17.398438 C26.895832 17.205728 26.656251 16.958335 26.468750 16.656250 C26.656251 16.364582 26.895832 16.125001 27.187500 15.937500 C27.479168 15.749999 27.755207 15.656250 28.015625 15.656250 C28.369793 15.656250 28.546875 15.760416 28.546875 15.968750 C28.546875 16.218751 28.302086 16.453124 27.812500 16.671875 C28.312502 16.901043 28.562500 17.130207 28.562500 17.359375 C28.562500 17.578126 28.380210 17.687500 28.015625 17.687500 Z M14.875000 2.093750 C14.583332 1.916666 14.341147 1.682293 14.148438 1.390625 C13.955728 1.098957 13.859375 0.822918 13.859375 0.562500 C13.859375 0.187498 13.968749 -0.000000 14.187500 -0.000000 C14.427085 -0.000000 14.656249 0.249997 14.875000 0.750000 C15.093751 0.249997 15.322915 -0.000000 15.562500 -0.000000 C15.781251 -0.000000 15.890625 0.187498 15.890625 0.562500 C15.890625 0.822918 15.796876 1.098957 15.609375 1.390625 C15.421874 1.682293 15.177085 1.916666 14.875000 2.093750 Z M19.281250 5.437500 C19.177083 5.437500 19.078125 5.432292 18.984375 5.421875 C18.890625 5.411458 18.796875 5.395833 18.703125 5.375000 C18.661458 5.218749 18.640625 5.041668 18.640625 4.843750 C18.640625 4.499998 18.726562 4.164064 18.898438 3.835938 C19.070313 3.507811 19.270832 3.343750 19.500000 3.343750 C19.697918 3.343750 19.796875 3.484374 19.796875 3.765625 C19.796875 3.942709 19.750000 4.166665 19.656250 4.437500 C19.791667 4.385416 19.916666 4.346354 20.031250 4.320312 C20.145834 4.294271 20.250000 4.281250 20.343750 4.281250 C20.614585 4.281250 20.750000 4.380207 20.750000 4.578125 C20.750000 4.828126 20.588543 5.033853 20.265625 5.195312 C19.942707 5.356772 19.614585 5.437500 19.281250 5.437500 Z M27.593750 11.687500 C27.489583 11.687500 27.390625 11.682292 27.296875 11.671875 C27.203125 11.661458 27.109375 11.645833 27.015625 11.625000 C26.984375 11.479166 26.968750 11.322917 26.968750 11.156250 C26.968750 10.781248 27.046874 10.427085 27.203125 10.093750 C27.359376 9.760415 27.562499 9.593750 27.812500 9.593750 C28.010418 9.593750 28.109375 9.734374 28.109375 10.015625 C28.109375 10.192709 28.062500 10.416665 27.968750 10.687500 C28.104167 10.635416 28.229166 10.596354 28.343750 10.570312 C28.458334 10.544271 28.562500 10.531250 28.656250 10.531250 C28.927085 10.531250 29.062500 10.630207 29.062500 10.828125 C29.062500 10.963542 28.984376 11.109374 28.828125 11.265625 C28.546874 11.546876 28.135419 11.687500 27.593750 11.687500 Z M24.281250 7.875000 C23.989582 7.697916 23.747397 7.463543 23.554688 7.171875 C23.361978 6.880207 23.265625 6.604168 23.265625 6.343750 C23.265625 5.968748 23.374999 5.781250 23.593750 5.781250 C23.833335 5.781250 24.062499 6.031247 24.281250 6.531250 C24.500001 6.031247 24.729165 5.781250 24.968750 5.781250 C25.187501 5.781250 25.296875 5.968748 25.296875 6.343750 C25.296875 6.604168 25.203126 6.880207 25.015625 7.171875 C24.828124 7.463543 24.583335 7.697916 24.281250 7.875000 Z M34.843750 27.343750" /></svg>