<svg version="1.1" xmlns="http://www.w3.org/2000/svg" style="fill:rgba(0,0,0,1.0)" width="256" height="256" viewBox="0 0 37.03125 32.8125"><path fill="rgb(255, 255, 255)" d="M2.750000 32.812500 C1.999996 32.812500 1.354169 32.544274 0.812500 32.007812 C0.270831 31.471351 0.000000 30.833337 0.000000 30.093750 L0.000000 2.734375 C0.000000 1.984371 0.268226 1.341149 0.804688 0.804688 C1.341149 0.268226 1.984371 -0.000000 2.734375 -0.000000 L30.703125 -0.000000 C31.453129 -0.000000 32.096351 0.268226 32.632812 0.804688 C33.169274 1.341149 33.437500 1.984371 33.437500 2.734375 L33.437500 30.078125 C33.437500 30.828129 33.169274 31.471351 32.632812 32.007812 C32.096351 32.544274 31.453129 32.812500 30.703125 32.812500 Z M15.750000 21.765625 C14.854162 21.765625 14.177086 21.557294 13.718750 21.140625 C13.260414 20.723956 13.031250 20.192712 13.031250 19.546875 C13.031250 19.088539 13.140624 18.677085 13.359375 18.312500 C13.578126 17.947915 13.882811 17.617189 14.273438 17.320312 C14.664064 17.023436 15.114581 16.755210 15.625000 16.515625 L15.953125 16.687500 C16.578128 17.010418 17.166664 17.401039 17.718750 17.859375 C18.270836 18.317711 18.546875 18.885413 18.546875 19.562500 C18.546875 20.229170 18.315106 20.763019 17.851562 21.164062 C17.388019 21.565106 16.687505 21.765625 15.750000 21.765625 Z M3.062500 31.093750 L30.390625 31.093750 C30.703127 31.093750 30.976561 30.976564 31.210938 30.742188 C31.445314 30.507811 31.562500 30.234377 31.562500 29.921875 L31.562500 2.890625 C31.562500 2.578123 31.445314 2.304689 31.210938 2.070312 C30.976561 1.835936 30.703127 1.718750 30.390625 1.718750 L3.046875 1.718750 C2.734373 1.718750 2.460939 1.835936 2.226562 2.070312 C1.992186 2.304689 1.875000 2.578123 1.875000 2.890625 L1.875000 29.937500 C1.875000 30.250002 1.992186 30.520832 2.226562 30.750000 C2.460939 30.979168 2.739582 31.093750 3.062500 31.093750 Z M15.796875 24.546875 C17.036465 24.546875 18.124995 24.346356 19.062500 23.945312 C20.000005 23.544269 20.731768 22.979170 21.257812 22.250000 C21.783857 21.520830 22.046875 20.661463 22.046875 19.671875 C22.046875 18.880204 21.867189 18.187503 21.507812 17.593750 C21.148436 16.999997 20.682295 16.481773 20.109375 16.039062 C19.536455 15.596352 18.932295 15.208335 18.296875 14.875000 C19.213546 14.416664 19.976559 13.843753 20.585938 13.156250 C21.195316 12.468747 21.500000 11.588547 21.500000 10.515625 C21.500000 9.557287 21.239586 8.760420 20.718750 8.125000 C20.197914 7.489580 19.505213 7.013022 18.640625 6.695312 C17.776037 6.377603 16.828130 6.218750 15.796875 6.218750 C14.796870 6.218750 13.861984 6.380207 12.992188 6.703125 C12.122391 7.026043 11.419274 7.502601 10.882812 8.132812 C10.346351 8.763024 10.078125 9.552079 10.078125 10.500000 C10.078125 11.208337 10.208332 11.835935 10.468750 12.382812 C10.729168 12.929690 11.075519 13.414060 11.507812 13.835938 C11.940106 14.257815 12.421872 14.635415 12.953125 14.968750 C12.005204 15.427086 11.197920 16.033850 10.531250 16.789062 C9.864580 17.544275 9.531250 18.536452 9.531250 19.765625 C9.531250 21.255216 10.075515 22.424475 11.164062 23.273438 C12.252610 24.122400 13.796865 24.546875 15.796875 24.546875 Z M1.828125 31.281250 L6.125000 26.968750 L25.750000 26.968750 C26.177085 26.968750 26.539061 26.817710 26.835938 26.515625 C27.132814 26.213540 27.281250 25.843752 27.281250 25.406250 L27.281250 5.828125 L31.593750 1.515625 C31.760418 1.723959 31.856771 1.947915 31.882812 2.187500 C31.908854 2.427085 31.921875 2.786456 31.921875 3.265625 L31.921875 29.546875 C31.921875 30.026044 31.752606 30.434894 31.414062 30.773438 C31.075519 31.111981 30.671877 31.281250 30.203125 31.281250 Z M15.796875 13.296875 C15.213539 13.005207 14.705731 12.666669 14.273438 12.281250 C13.841144 11.895831 13.625000 11.401045 13.625000 10.796875 C13.625000 10.213539 13.830727 9.763022 14.242188 9.445312 C14.653648 9.127603 15.166664 8.968750 15.781250 8.968750 C16.406253 8.968750 16.924477 9.127603 17.335938 9.445312 C17.747398 9.763022 17.953125 10.213539 17.953125 10.796875 C17.953125 11.442712 17.734377 11.953123 17.296875 12.328125 C16.859373 12.703127 16.359378 13.026040 15.796875 13.296875 Z M37.031250 27.343750" /></svg>