<svg version="1.1" xmlns="http://www.w3.org/2000/svg" style="fill:rgba(0,0,0,1.0)" width="256" height="256" viewBox="0 0 37.03125 32.8125"><path fill="rgb(255, 255, 255)" d="M2.750000 32.812500 C1.999996 32.812500 1.354169 32.544274 0.812500 32.007812 C0.270831 31.471351 0.000000 30.833337 0.000000 30.093750 L0.000000 2.734375 C0.000000 1.984371 0.268226 1.341149 0.804688 0.804688 C1.341149 0.268226 1.984371 -0.000000 2.734375 -0.000000 L30.703125 -0.000000 C31.453129 -0.000000 32.096351 0.268226 32.632812 0.804688 C33.169274 1.341149 33.437500 1.984371 33.437500 2.734375 L33.437500 30.078125 C33.437500 30.828129 33.169274 31.471351 32.632812 32.007812 C32.096351 32.544274 31.453129 32.812500 30.703125 32.812500 Z M3.062500 31.093750 L30.390625 31.093750 C30.703127 31.093750 30.976561 30.976564 31.210938 30.742188 C31.445314 30.507811 31.562500 30.234377 31.562500 29.921875 L31.562500 2.890625 C31.562500 2.578123 31.445314 2.304689 31.210938 2.070312 C30.976561 1.835936 30.703127 1.718750 30.390625 1.718750 L3.046875 1.718750 C2.734373 1.718750 2.460939 1.835936 2.226562 2.070312 C1.992186 2.304689 1.875000 2.578123 1.875000 2.890625 L1.875000 29.937500 C1.875000 30.250002 1.992186 30.520832 2.226562 30.750000 C2.460939 30.979168 2.739582 31.093750 3.062500 31.093750 Z M1.828125 31.281250 L6.125000 26.968750 L25.750000 26.968750 C26.177085 26.968750 26.539061 26.817710 26.835938 26.515625 C27.132814 26.213540 27.281250 25.843752 27.281250 25.406250 L27.281250 5.828125 L31.593750 1.515625 C31.760418 1.723959 31.856771 1.947915 31.882812 2.187500 C31.908854 2.427085 31.921875 2.786456 31.921875 3.265625 L31.921875 29.546875 C31.921875 30.026044 31.752606 30.434894 31.414062 30.773438 C31.075519 31.111981 30.671877 31.281250 30.203125 31.281250 Z M16.156250 24.578125 C18.437511 24.578125 20.049474 23.768237 20.992188 22.148438 C21.934901 20.528638 22.406250 18.281264 22.406250 15.406250 C22.406250 13.468740 22.182294 11.815111 21.734375 10.445312 C21.286456 9.075514 20.601567 8.028649 19.679688 7.304688 C18.757808 6.580726 17.583340 6.218750 16.156250 6.218750 C14.635409 6.218750 13.416671 6.583330 12.500000 7.312500 C11.583329 8.041670 10.924481 9.091139 10.523438 10.460938 C10.122394 11.830736 9.921875 13.479157 9.921875 15.406250 C9.921875 18.281264 10.424474 20.528638 11.429688 22.148438 C12.434901 23.768237 14.010406 24.578125 16.156250 24.578125 Z M16.156250 21.531250 C15.208329 21.531250 14.557293 21.020838 14.203125 20.000000 C13.848957 18.979162 13.671875 17.447927 13.671875 15.406250 C13.671875 14.052077 13.747395 12.919275 13.898438 12.007812 C14.049480 11.096350 14.304686 10.411461 14.664062 9.953125 C15.023439 9.494789 15.520830 9.265625 16.156250 9.265625 C16.781253 9.265625 17.276040 9.494789 17.640625 9.953125 C18.005210 10.411461 18.265624 11.096350 18.421875 12.007812 C18.578126 12.919275 18.656250 14.052077 18.656250 15.406250 C18.656250 17.458344 18.473960 18.992182 18.109375 20.007812 C17.744790 21.023443 17.093755 21.531250 16.156250 21.531250 Z M37.031250 27.343750" /></svg>