<svg version="1.1" xmlns="http://www.w3.org/2000/svg" style="fill:rgba(0,0,0,1.0)" width="256" height="256" viewBox="0 0 36.71875 32.8125"><path fill="rgb(255, 255, 255)" d="M2.734375 32.812500 C1.984371 32.812500 1.341149 32.544274 0.804688 32.007812 C0.268226 31.471351 0.000000 30.828129 0.000000 30.078125 L0.000000 2.718750 C0.000000 1.979163 0.270831 1.341149 0.812500 0.804688 C1.354169 0.268226 1.999996 -0.000000 2.750000 -0.000000 L30.078125 -0.000000 C30.828129 -0.000000 31.471351 0.268226 32.007812 0.804688 C32.544274 1.341149 32.812500 1.984371 32.812500 2.734375 L32.812500 30.078125 C32.812500 30.828129 32.544274 31.471351 32.007812 32.007812 C31.471351 32.544274 30.828129 32.812500 30.078125 32.812500 Z M13.750000 17.437500 C13.083330 16.999998 12.557294 16.440108 12.171875 15.757812 C11.786456 15.075517 11.593750 14.307296 11.593750 13.453125 C11.593750 12.609371 11.778644 11.854170 12.148438 11.187500 C12.518231 10.520830 13.026038 9.963544 13.671875 9.515625 C13.911460 10.244795 14.091145 10.950517 14.210938 11.632812 C14.330730 12.315108 14.390625 13.010413 14.390625 13.718750 C14.390625 14.979173 14.177085 16.218744 13.750000 17.437500 Z M16.406250 28.578125 C16.802085 28.578125 17.138019 28.453126 17.414062 28.203125 C17.690106 27.953124 17.833333 27.635419 17.843750 27.250000 C17.864583 26.885415 17.739585 26.552085 17.468750 26.250000 C17.333333 26.093749 17.265625 25.932292 17.265625 25.765625 L17.265625 24.828125 C17.682294 24.984376 18.023436 25.119791 18.289062 25.234375 C18.554689 25.348959 18.708333 25.432291 18.750000 25.484375 C18.791667 25.526042 18.815104 25.583333 18.820312 25.656250 C18.825521 25.729167 18.833333 25.807291 18.843750 25.890625 C18.875000 26.307294 19.002603 26.624999 19.226562 26.843750 C19.450522 27.062501 19.708332 27.171875 20.000000 27.171875 C20.343752 27.171875 20.630207 27.052085 20.859375 26.812500 C21.088543 26.572915 21.203125 26.276043 21.203125 25.921875 C21.203125 25.265622 20.729171 24.671878 19.781250 24.140625 C19.645833 24.057291 19.479168 23.979167 19.281250 23.906250 C19.083332 23.833333 18.859376 23.755209 18.609375 23.671875 C18.942710 23.526041 19.255207 23.377605 19.546875 23.226562 C19.838543 23.075520 20.114582 22.916668 20.375000 22.750000 L23.265625 25.734375 C23.494793 24.890621 23.682291 24.226565 23.828125 23.742188 C23.973959 23.257810 24.119791 22.877606 24.265625 22.601562 C24.411459 22.325519 24.588541 22.078126 24.796875 21.859375 C25.755213 20.869787 26.481768 19.841151 26.976562 18.773438 C27.471357 17.705724 27.718750 16.473965 27.718750 15.078125 C27.718750 13.869786 27.424482 12.802088 26.835938 11.875000 C26.247393 10.947912 25.307298 10.046879 24.015625 9.171875 C23.848958 9.057291 23.661459 8.950521 23.453125 8.851562 C23.244791 8.752604 23.083334 8.703125 22.968750 8.703125 C22.843749 8.703125 22.781250 8.755208 22.781250 8.859375 C22.781250 8.932292 22.828125 9.026041 22.921875 9.140625 C23.307294 9.588544 23.622395 10.179684 23.867188 10.914062 C24.111980 11.648441 24.234375 12.489579 24.234375 13.437500 C24.234375 15.510427 23.648443 17.296868 22.476562 18.796875 C21.304682 20.296883 19.552095 21.520829 17.218750 22.468750 L17.218750 21.046875 C17.677086 20.848957 18.164060 20.645834 18.679688 20.437500 C19.195315 20.229166 19.598957 20.052084 19.890625 19.906250 C20.057292 19.822916 20.088542 19.708334 19.984375 19.562500 C19.921875 19.458333 19.861979 19.351563 19.804688 19.242188 C19.747396 19.132812 19.692709 19.026042 19.640625 18.921875 C20.598963 18.369789 21.361976 17.611984 21.929688 16.648438 C22.497399 15.684891 22.781250 14.619798 22.781250 13.453125 C22.781250 12.307286 22.502607 11.250005 21.945312 10.281250 C21.388018 9.312495 20.640630 8.562503 19.703125 8.031250 C19.755209 7.895833 19.809896 7.763021 19.867188 7.632812 C19.924479 7.502604 19.984375 7.369792 20.046875 7.234375 C20.109375 7.109374 20.088542 7.020834 19.984375 6.968750 C19.411455 6.624998 18.794274 6.242190 18.132812 5.820312 C17.471351 5.398435 16.953127 4.932294 16.578125 4.421875 C16.463541 4.244791 16.348959 4.244791 16.234375 4.421875 C15.859373 4.932294 15.343753 5.398435 14.687500 5.820312 C14.031247 6.242190 13.411461 6.624998 12.828125 6.968750 C12.723958 7.020834 12.703125 7.109374 12.765625 7.234375 C12.828125 7.369792 12.888021 7.502604 12.945312 7.632812 C13.002604 7.763021 13.057291 7.895833 13.109375 8.031250 C12.171870 8.562503 11.424482 9.312495 10.867188 10.281250 C10.309893 11.250005 10.031250 12.307286 10.031250 13.453125 C10.031250 14.619798 10.317705 15.684891 10.890625 16.648438 C11.463545 17.611984 12.223954 18.369789 13.171875 18.921875 C13.119791 19.026042 13.065104 19.132812 13.007812 19.242188 C12.950521 19.351563 12.890625 19.458333 12.828125 19.562500 C12.723958 19.708334 12.755208 19.822916 12.921875 19.906250 C13.213543 20.052084 13.617185 20.229166 14.132812 20.437500 C14.648440 20.645834 15.135414 20.848957 15.593750 21.046875 L15.593750 22.468750 C13.260405 21.520829 11.507818 20.296883 10.335938 18.796875 C9.164057 17.296868 8.578125 15.510427 8.578125 13.437500 C8.578125 12.489579 8.700520 11.648441 8.945312 10.914062 C9.190105 10.179684 9.505206 9.588544 9.890625 9.140625 C9.984375 9.026041 10.031250 8.932292 10.031250 8.859375 C10.031250 8.755208 9.968751 8.703125 9.843750 8.703125 C9.739583 8.703125 9.583334 8.752604 9.375000 8.851562 C9.166666 8.950521 8.973959 9.057291 8.796875 9.171875 C7.505202 10.046879 6.565107 10.947912 5.976562 11.875000 C5.388018 12.802088 5.093750 13.869786 5.093750 15.078125 C5.093750 16.473965 5.341143 17.705724 5.835938 18.773438 C6.330732 19.841151 7.057287 20.869787 8.015625 21.859375 C8.234376 22.078126 8.414062 22.325519 8.554688 22.601562 C8.695313 22.877606 8.838541 23.257810 8.984375 23.742188 C9.130209 24.226565 9.317707 24.890621 9.546875 25.734375 L12.437500 22.750000 C12.697918 22.916668 12.973957 23.075520 13.265625 23.226562 C13.557293 23.377605 13.869790 23.526041 14.203125 23.671875 C13.953124 23.755209 13.731772 23.833333 13.539062 23.906250 C13.346353 23.979167 13.177084 24.057291 13.031250 24.140625 C12.083329 24.671878 11.609375 25.265622 11.609375 25.921875 C11.609375 26.276043 11.723957 26.572915 11.953125 26.812500 C12.182293 27.052085 12.468748 27.171875 12.812500 27.171875 C13.114585 27.171875 13.374999 27.062501 13.593750 26.843750 C13.812501 26.624999 13.937500 26.307294 13.968750 25.890625 C13.979167 25.807291 13.986979 25.729167 13.992188 25.656250 C13.997396 25.583333 14.020833 25.526042 14.062500 25.484375 C14.114584 25.432291 14.270832 25.348959 14.531250 25.234375 C14.791668 25.119791 15.130206 24.984376 15.546875 24.828125 L15.546875 25.765625 C15.546875 25.932292 15.479167 26.093749 15.343750 26.250000 C15.072915 26.552085 14.947917 26.885415 14.968750 27.250000 C14.989583 27.635419 15.138019 27.953124 15.414062 28.203125 C15.690106 28.453126 16.020831 28.578125 16.406250 28.578125 Z M19.062500 17.437500 C18.635415 16.218744 18.421875 14.979173 18.421875 13.718750 C18.421875 13.010413 18.484374 12.315108 18.609375 11.632812 C18.734376 10.950517 18.911457 10.244795 19.140625 9.515625 C19.786462 9.963544 20.294269 10.520830 20.664062 11.187500 C21.033856 11.854170 21.218750 12.609371 21.218750 13.453125 C21.218750 14.307296 21.026044 15.075517 20.640625 15.757812 C20.255206 16.440108 19.729170 16.999998 19.062500 17.437500 Z M36.718750 27.343750" /></svg>