<svg version="1.1" xmlns="http://www.w3.org/2000/svg" style="fill:rgba(0,0,0,1.0)" width="256" height="256" viewBox="0 0 37.8125 32.8125"><path fill="rgb(255, 255, 255)" d="M16.968750 28.406250 C13.645817 24.447897 10.552098 20.841162 7.687500 17.585938 C4.822902 14.330713 2.260428 11.567720 0.000000 9.296875 C0.333335 9.036457 0.856767 8.630211 1.570312 8.078125 C2.283858 7.526039 3.098954 6.888024 4.015625 6.164062 C4.932296 5.440101 5.867183 4.695316 6.820312 3.929688 C7.773442 3.164059 8.671871 2.437503 9.515625 1.750000 C10.359379 1.062497 11.057289 0.479169 11.609375 -0.000000 C12.473963 0.260418 13.489578 0.562498 14.656250 0.906250 C15.822922 1.250002 17.059889 1.614581 18.367188 2.000000 C19.674486 2.385419 20.981764 2.768227 22.289062 3.148438 C23.596361 3.528648 24.817703 3.885415 25.953125 4.218750 C25.234371 6.104176 24.513024 8.080719 23.789062 10.148438 C23.065101 12.216156 22.361983 14.302073 21.679688 16.406250 C20.997392 18.510427 20.356774 20.557282 19.757812 22.546875 C19.158851 24.536468 18.625002 26.395825 18.156250 28.125000 Z M18.640625 32.812500 L18.250000 29.031250 L18.562500 28.390625 L21.062500 25.687500 C21.458335 25.875001 21.783853 26.130207 22.039062 26.453125 C22.294272 26.776043 22.494791 27.145831 22.640625 27.562500 L20.046875 29.078125 L19.734375 29.750000 L20.859375 32.062500 C20.203122 32.562502 19.463546 32.812500 18.640625 32.812500 Z M2.140625 23.562500 L1.109375 22.000000 C2.140630 21.312497 3.190099 20.434901 4.257812 19.367188 C5.325526 18.299474 6.343745 17.132819 7.312500 15.867188 C8.281255 14.601556 9.140621 13.315111 9.890625 12.007812 C10.640629 10.700514 11.208331 9.463548 11.593750 8.296875 L13.375000 8.890625 C12.958331 10.140631 12.348962 11.466139 11.546875 12.867188 C10.744788 14.268236 9.825526 15.645827 8.789062 17.000000 C7.752599 18.354173 6.664068 19.601557 5.523438 20.742188 C4.382807 21.882818 3.255214 22.822913 2.140625 23.562500 Z M17.015625 25.812500 C17.234376 24.812495 17.536456 23.632819 17.921875 22.273438 C18.307294 20.914056 18.739581 19.466154 19.218750 17.929688 C19.697919 16.393221 20.195310 14.856779 20.710938 13.320312 C21.226565 11.783846 21.726560 10.333340 22.210938 8.968750 C22.695315 7.604160 23.130206 6.427088 23.515625 5.437500 C22.526037 5.187499 21.481776 4.914064 20.382812 4.617188 C19.283849 4.320311 18.203130 4.023439 17.140625 3.726562 C16.078120 3.429686 15.091150 3.148439 14.179688 2.882812 C13.268225 2.617186 12.505211 2.390626 11.890625 2.203125 C11.484373 2.588544 10.976566 3.031247 10.367188 3.531250 C9.757809 4.031253 9.101566 4.557289 8.398438 5.109375 C7.695309 5.661461 6.986983 6.205726 6.273438 6.742188 C5.559892 7.278649 4.893232 7.778644 4.273438 8.242188 C3.653643 8.705731 3.125002 9.093748 2.687500 9.406250 C3.812506 10.541672 4.999994 11.789056 6.250000 13.148438 C7.500006 14.507819 8.760410 15.914055 10.031250 17.367188 C11.302090 18.820320 12.531244 20.265618 13.718750 21.703125 C14.906256 23.140632 16.005203 24.510410 17.015625 25.812500 Z M16.453125 27.453125 C16.015623 25.932284 15.541669 24.143239 15.031250 22.085938 C14.520831 20.028636 14.007815 17.825533 13.492188 15.476562 C12.976560 13.127592 12.492190 10.750012 12.039062 8.343750 C11.585935 5.937488 11.203127 3.625011 10.890625 1.406250 L12.734375 1.125000 C13.046877 3.322928 13.427081 5.614571 13.875000 8.000000 C14.322919 10.385429 14.802081 12.742176 15.312500 15.070312 C15.822919 17.398449 16.333331 19.580719 16.843750 21.617188 C17.354169 23.653656 17.828123 25.421868 18.265625 26.921875 Z M26.109375 26.750000 L25.609375 26.390625 L22.656250 23.640625 C22.864584 23.255206 23.138019 22.950522 23.476562 22.726562 C23.815106 22.502603 24.192706 22.322917 24.609375 22.187500 L26.406250 24.953125 L26.640625 25.031250 L29.437500 23.609375 C29.708335 23.890626 29.929687 24.205727 30.101562 24.554688 C30.273438 24.903648 30.385416 25.291665 30.437500 25.718750 Z M21.171875 30.703125 C20.609372 30.703125 19.986983 30.585939 19.304688 30.351562 C18.622392 30.117186 18.015628 29.773440 17.484375 29.320312 C16.953122 28.867185 16.619792 28.317712 16.484375 27.671875 L18.281250 27.218750 C18.541668 27.645835 18.966143 28.020832 19.554688 28.343750 C20.143232 28.666668 20.692706 28.828125 21.203125 28.828125 C22.015629 28.828125 22.734372 28.562503 23.359375 28.031250 C23.984378 27.499997 24.513019 26.804692 24.945312 25.945312 C25.377606 25.085933 25.705728 24.148443 25.929688 23.132812 C26.153647 22.117182 26.265625 21.130213 26.265625 20.171875 C26.265625 17.953114 26.468748 16.093758 26.875000 14.593750 C27.281252 13.093743 28.026036 11.963545 29.109375 11.203125 C30.192714 10.442705 31.744782 10.062500 33.765625 10.062500 C33.973959 10.062500 34.177082 10.065104 34.375000 10.070312 C34.572918 10.075521 34.781249 10.088542 35.000000 10.109375 L34.875000 11.984375 C34.645832 11.963542 34.434897 11.950521 34.242188 11.945312 C34.049478 11.940104 33.854168 11.937500 33.656250 11.937500 C31.999992 11.937500 30.778650 12.252601 29.992188 12.882812 C29.205725 13.513024 28.695314 14.455723 28.460938 15.710938 C28.226561 16.966152 28.109375 18.531241 28.109375 20.406250 C28.109375 21.614589 27.955731 22.825515 27.648438 24.039062 C27.341144 25.252610 26.888024 26.361974 26.289062 27.367188 C25.690101 28.372401 24.960942 29.179684 24.101562 29.789062 C23.242183 30.398441 22.265630 30.703125 21.171875 30.703125 Z M1.781250 10.421875 L1.781250 8.546875 C3.437508 8.546875 5.122387 8.471355 6.835938 8.320312 C8.549488 8.169270 10.234367 7.958335 11.890625 7.687500 C13.546883 7.416665 15.119784 7.091148 16.609375 6.710938 C18.098966 6.330727 19.447911 5.914065 20.656250 5.460938 C21.864589 5.007810 22.874996 4.526044 23.687500 4.015625 L24.687500 5.609375 C23.718745 6.213545 22.546882 6.768227 21.171875 7.273438 C19.796868 7.778648 18.302091 8.226561 16.687500 8.617188 C15.072909 9.007814 13.403654 9.335936 11.679688 9.601562 C9.955721 9.867189 8.250008 10.070312 6.562500 10.210938 C4.874992 10.351563 3.281258 10.421875 1.781250 10.421875 Z M27.468750 18.828125 L26.937500 18.750000 L23.875000 16.750000 C24.000001 16.333331 24.200519 15.979168 24.476562 15.687500 C24.752606 15.395832 25.083331 15.140626 25.468750 14.921875 L27.437500 17.171875 L27.671875 17.203125 L29.515625 15.359375 C29.838543 15.588543 30.119790 15.854165 30.359375 16.156250 C30.598960 16.458335 30.786458 16.817706 30.921875 17.234375 Z M32.406250 14.140625 L30.250000 11.750000 L30.203125 11.296875 L31.046875 8.312500 C31.338543 8.312500 31.669269 8.385416 32.039062 8.531250 C32.408856 8.677084 32.703124 8.885415 32.921875 9.156250 L31.593750 11.296875 L31.625000 11.500000 L33.546875 12.531250 C33.546875 12.791668 33.440105 13.098957 33.226562 13.453125 C33.013020 13.807293 32.739585 14.036458 32.406250 14.140625 Z M37.812500 27.343750" /></svg>