<svg version="1.1" xmlns="http://www.w3.org/2000/svg" style="fill:rgba(0,0,0,1.0)" width="256" height="256" viewBox="0 0 37.34375 32.8125"><path fill="rgb(255, 255, 255)" d="M17.031250 32.812500 C14.458320 32.291664 12.127615 31.471360 10.039062 30.351562 C7.950510 29.231765 6.156258 27.875008 4.656250 26.281250 C3.156242 24.687492 2.005212 22.908864 1.203125 20.945312 C0.401038 18.981761 0.000000 16.890636 0.000000 14.671875 C0.000000 12.994783 0.291664 11.453132 0.875000 10.046875 C1.458336 8.640618 2.276036 7.419276 3.328125 6.382812 C4.380214 5.346349 5.619785 4.544274 7.046875 3.976562 C8.473965 3.408851 10.036450 3.125000 11.734375 3.125000 C13.578134 3.125000 15.343742 3.552079 17.031250 4.406250 C18.718758 3.552079 20.484366 3.125000 22.328125 3.125000 C24.026050 3.125000 25.588535 3.408851 27.015625 3.976562 C28.442715 4.544274 29.682286 5.346349 30.734375 6.382812 C31.786464 7.419276 32.604164 8.640618 33.187500 10.046875 C33.770836 11.453132 34.062500 12.994783 34.062500 14.671875 C34.062500 16.890636 33.661462 18.981761 32.859375 20.945312 C32.057288 22.908864 30.906258 24.687492 29.406250 26.281250 C27.906242 27.875008 26.111990 29.231765 24.023438 30.351562 C21.934885 31.471360 19.604180 32.291664 17.031250 32.812500 Z M17.031250 31.031250 C19.250011 30.562498 21.283845 29.817713 23.132812 28.796875 C24.981780 27.776037 26.583327 26.539070 27.937500 25.085938 C29.291673 23.632805 30.338538 22.020842 31.078125 20.250000 C31.817712 18.479158 32.187500 16.619801 32.187500 14.671875 C32.187500 13.296868 31.932294 12.013027 31.421875 10.820312 C30.911456 9.627598 30.203130 8.583338 29.296875 7.687500 C28.390620 6.791662 27.341152 6.093753 26.148438 5.593750 C24.955723 5.093747 23.682298 4.843750 22.328125 4.843750 C20.588533 4.843750 18.822926 5.401036 17.031250 6.515625 C15.239574 5.401036 13.473967 4.843750 11.734375 4.843750 C10.380202 4.843750 9.106777 5.093747 7.914062 5.593750 C6.721348 6.093753 5.671880 6.791662 4.765625 7.687500 C3.859370 8.583338 3.151044 9.627598 2.640625 10.820312 C2.130206 12.013027 1.875000 13.296868 1.875000 14.671875 C1.875000 16.619801 2.244788 18.479158 2.984375 20.250000 C3.723962 22.020842 4.770827 23.632805 6.125000 25.085938 C7.479173 26.539070 9.080720 27.776037 10.929688 28.796875 C12.778655 29.817713 14.812489 30.562498 17.031250 31.031250 Z M19.546875 28.453125 L18.140625 27.796875 C18.953129 25.838532 19.557290 23.979175 19.953125 22.218750 C20.348960 20.458325 20.546875 18.796883 20.546875 17.234375 C20.546875 15.119781 20.205733 13.083343 19.523438 11.125000 C18.841142 9.166657 17.864590 7.453132 16.593750 5.984375 L17.968750 5.234375 C19.291673 6.828133 20.312496 8.669260 21.031250 10.757812 C21.750004 12.846365 22.109375 15.020822 22.109375 17.281250 C22.109375 18.968758 21.898440 20.742178 21.476562 22.601562 C21.054685 24.460947 20.411463 26.411448 19.546875 28.453125 Z M17.031250 5.546875 L11.125000 3.734375 L7.468750 4.921875 C6.885414 4.484373 6.325524 3.942712 5.789062 3.296875 C5.252601 2.651038 4.723961 1.895838 4.203125 1.031250 C5.182297 0.677082 6.085933 0.416668 6.914062 0.250000 C7.742192 0.083332 8.526038 -0.000000 9.265625 -0.000000 C10.703132 -0.000000 12.062494 0.315101 13.343750 0.945312 C14.625006 1.575524 15.854161 2.531244 17.031250 3.812500 C18.208339 2.531244 19.437494 1.575524 20.718750 0.945312 C22.000006 0.315101 23.359368 -0.000000 24.796875 -0.000000 C25.536462 -0.000000 26.320308 0.083332 27.148438 0.250000 C27.976567 0.416668 28.880203 0.677082 29.859375 1.031250 C29.348956 1.895838 28.822919 2.651038 28.281250 3.296875 C27.739581 3.942712 27.177086 4.484373 26.593750 4.921875 L22.937500 3.734375 Z M37.343750 27.343750" /></svg>