<svg version="1.1" xmlns="http://www.w3.org/2000/svg" style="fill:rgba(0,0,0,1.0)" width="256" height="256" viewBox="0 0 36.09375 32.8125"><path fill="rgb(255, 255, 255)" d="M17.578125 9.750000 C17.026039 9.750000 16.552085 9.554689 16.156250 9.164062 C15.760415 8.773436 15.562500 8.302086 15.562500 7.750000 C15.562500 7.187497 15.760415 6.710939 16.156250 6.320312 C16.552085 5.929686 17.026039 5.734375 17.578125 5.734375 C18.130211 5.734375 18.604165 5.929686 19.000000 6.320312 C19.395835 6.710939 19.593750 7.187497 19.593750 7.750000 C19.593750 8.302086 19.395835 8.773436 19.000000 9.164062 C18.604165 9.554689 18.130211 9.750000 17.578125 9.750000 Z M7.437500 11.109375 L18.781250 11.109375 L18.781250 12.515625 L7.437500 12.515625 Z M15.625000 13.890625 L18.781250 13.890625 L18.781250 15.296875 L15.625000 15.296875 Z M7.437500 16.671875 L17.218750 16.671875 L17.218750 18.078125 L7.437500 18.078125 Z M23.218750 11.109375 L27.750000 11.109375 L27.750000 12.515625 L23.218750 12.515625 Z M23.218750 13.890625 L27.750000 13.890625 L27.750000 15.296875 L23.218750 15.296875 Z M23.218750 16.671875 L27.750000 16.671875 L27.750000 18.078125 L23.218750 18.078125 Z M13.500000 15.296875 L7.437500 15.296875 L7.437500 13.890625 L13.500000 13.890625 Z M7.437500 19.875000 L9.000000 19.875000 L9.000000 21.265625 L7.437500 21.265625 Z M10.562500 19.875000 L12.125000 19.875000 L12.125000 21.265625 L10.562500 21.265625 Z M13.687500 19.875000 L15.250000 19.875000 L15.250000 21.265625 L13.687500 21.265625 Z M16.812500 19.875000 L18.375000 19.875000 L18.375000 21.265625 L16.812500 21.265625 Z M19.937500 19.875000 L21.500000 19.875000 L21.500000 21.265625 L19.937500 21.265625 Z M23.062500 19.875000 L24.625000 19.875000 L24.625000 21.265625 L23.062500 21.265625 Z M26.187500 19.875000 L27.750000 19.875000 L27.750000 21.265625 L26.187500 21.265625 Z M20.875000 22.531250 L26.500000 22.531250 L26.500000 23.906250 L20.875000 23.906250 Z M31.562500 22.953125 C31.562500 24.901051 31.518230 26.515619 31.429688 27.796875 C31.341145 29.078131 31.132814 30.083330 30.804688 30.812500 C30.476561 31.541670 29.963545 32.057290 29.265625 32.359375 C28.567705 32.661460 27.609381 32.812500 26.390625 32.812500 L4.984375 32.812500 C4.140621 32.812500 3.338545 32.666668 2.578125 32.375000 C1.817705 32.083332 1.197919 31.640628 0.718750 31.046875 C0.239581 30.453122 0.000000 29.703130 0.000000 28.796875 C0.000000 28.244789 0.106770 27.632816 0.320312 26.960938 C0.533855 26.289059 0.874998 25.557296 1.343750 24.765625 L3.078125 26.703125 L4.843750 24.640625 L6.656250 26.796875 L8.406250 25.015625 L10.187500 26.812500 L11.968750 25.015625 L13.750000 26.812500 L15.531250 25.015625 L17.312500 26.812500 L19.093750 25.015625 L20.890625 26.843750 L22.890625 24.890625 C23.838546 25.942714 24.593747 26.760414 25.156250 27.343750 C25.718753 27.927086 26.190102 28.335936 26.570312 28.570312 C26.950523 28.804689 27.338540 28.921875 27.734375 28.921875 C28.338545 28.921875 28.867185 28.367193 29.320312 27.257812 C29.773440 26.148432 30.000000 24.546885 30.000000 22.453125 L30.000000 2.937500 L28.578125 4.531250 L26.765625 2.375000 L24.953125 4.406250 L23.125000 2.359375 L21.281250 4.406250 L19.468750 2.359375 L17.640625 4.406250 L15.812500 2.359375 L14.000000 4.406250 L12.171875 2.359375 L10.328125 4.406250 L8.515625 2.359375 L6.687500 4.406250 L5.187500 2.734375 L5.187500 26.671875 L3.609375 26.671875 L3.609375 0.250000 L4.140625 0.250000 C4.796878 0.250000 5.447913 0.630205 6.093750 1.390625 L6.687500 2.093750 L8.515625 -0.000000 L10.328125 2.093750 L12.171875 -0.000000 L14.000000 2.093750 L15.812500 -0.000000 L17.640625 2.093750 L19.468750 -0.000000 L21.281250 2.093750 L23.125000 -0.000000 L24.953125 2.093750 L26.796875 -0.000000 L28.609375 2.203125 L29.671875 1.015625 C29.942710 0.713540 30.179686 0.510417 30.382812 0.406250 C30.585939 0.302083 30.807290 0.250000 31.046875 0.250000 L31.562500 0.250000 Z M29.625000 29.265625 L29.843750 29.421875 C29.645832 29.630209 29.440105 29.815103 29.226562 29.976562 C29.013020 30.138022 28.783855 30.263020 28.539062 30.351562 C28.294270 30.440105 28.026043 30.484375 27.734375 30.484375 C27.182289 30.484375 26.674481 30.375001 26.210938 30.156250 C25.747394 29.937499 25.252607 29.583336 24.726562 29.093750 C24.200518 28.604164 23.562504 27.953129 22.812500 27.140625 L20.875000 29.046875 L19.093750 27.234375 L17.312500 29.031250 L15.531250 27.234375 L13.750000 29.031250 L11.968750 27.234375 L10.187500 29.031250 L8.406250 27.234375 L6.562500 29.125000 L4.828125 27.062500 L3.109375 29.078125 L1.765625 27.578125 C1.630208 27.994794 1.562500 28.401040 1.562500 28.796875 C1.562500 29.546879 1.867184 30.143227 2.476562 30.585938 C3.085941 31.028648 3.921870 31.250000 4.984375 31.250000 L26.390625 31.250000 C27.171879 31.250000 27.773435 31.200521 28.195312 31.101562 C28.617190 31.002604 28.929686 30.809897 29.132812 30.523438 C29.335939 30.236978 29.499999 29.817711 29.625000 29.265625 Z M36.093750 27.343750" /></svg>