<svg version="1.1" xmlns="http://www.w3.org/2000/svg" style="fill:rgba(0,0,0,1.0)" width="256" height="256" viewBox="0 0 36.484375 32.8125"><path fill="rgb(255, 255, 255)" d="M16.171875 32.812500 C13.921864 32.812500 11.820322 32.388025 9.867188 31.539062 C7.914053 30.690100 6.197924 29.513028 4.718750 28.007812 C3.239576 26.502597 2.083338 24.757822 1.250000 22.773438 C0.416663 20.789053 0.000000 18.666678 0.000000 16.406250 C0.000000 14.135405 0.416663 12.010427 1.250000 10.031250 C2.083338 8.052073 3.242180 6.309903 4.726562 4.804688 C6.210945 3.299472 7.929678 2.122400 9.882812 1.273438 C11.835947 0.424475 13.932280 -0.000000 16.171875 -0.000000 C18.411470 -0.000000 20.507803 0.424475 22.460938 1.273438 C24.414072 2.122400 26.132805 3.299472 27.617188 4.804688 C29.101570 6.309903 30.260412 8.052073 31.093750 10.031250 C31.927088 12.010427 32.343750 14.130197 32.343750 16.390625 C32.343750 18.661470 31.927088 20.789053 31.093750 22.773438 C30.260412 24.757822 29.101570 26.502597 27.617188 28.007812 C26.132805 29.513028 24.414072 30.690100 22.460938 31.539062 C20.507803 32.388025 18.411470 32.812500 16.171875 32.812500 Z M16.171875 31.015625 C18.192718 31.015625 20.070304 30.643233 21.804688 29.898438 C23.539071 29.153642 25.054681 28.114590 26.351562 26.781250 C27.648444 25.447910 28.658851 23.895842 29.382812 22.125000 C30.106774 20.354158 30.468750 18.442719 30.468750 16.390625 C30.468750 14.348948 30.106774 12.445321 29.382812 10.679688 C28.658851 8.914054 27.648444 7.364590 26.351562 6.031250 C25.054681 4.697910 23.539071 3.658858 21.804688 2.914062 C20.070304 2.169267 18.192718 1.796875 16.171875 1.796875 C14.151032 1.796875 12.273446 2.169267 10.539062 2.914062 C8.804679 3.658858 7.289069 4.697910 5.992188 6.031250 C4.695306 7.364590 3.684899 8.914054 2.960938 10.679688 C2.236976 12.445321 1.875000 14.348948 1.875000 16.390625 C1.875000 18.442719 2.236976 20.354158 2.960938 22.125000 C3.684899 23.895842 4.695306 25.447910 5.992188 26.781250 C7.289069 28.114590 8.804679 29.153642 10.539062 29.898438 C12.273446 30.643233 14.151032 31.015625 16.171875 31.015625 Z M15.578125 31.750000 C15.473958 30.666661 15.343751 28.825534 15.187500 26.226562 C15.031249 23.627591 14.953125 20.354186 14.953125 16.406250 C14.953125 12.447897 15.031249 9.169284 15.187500 6.570312 C15.343751 3.971341 15.473958 2.135422 15.578125 1.062500 C17.557302 1.062500 19.468741 1.406247 21.312500 2.093750 C23.156259 2.781253 24.807284 3.783848 26.265625 5.101562 C27.723966 6.419277 28.880204 8.026032 29.734375 9.921875 C30.588546 11.817718 31.015625 13.979155 31.015625 16.406250 C31.015625 18.822929 30.588546 20.981761 29.734375 22.882812 C28.880204 24.783864 27.723966 26.393223 26.265625 27.710938 C24.807284 29.028652 23.156259 30.031247 21.312500 30.718750 C19.468741 31.406253 17.557302 31.750000 15.578125 31.750000 Z M36.484375 27.343750" /></svg>