<svg version="1.1" xmlns="http://www.w3.org/2000/svg" style="fill:rgba(0,0,0,1.0)" width="256" height="256" viewBox="0 0 36.71875 32.8125"><path fill="rgb(255, 255, 255)" d="M6.328125 11.750000 C6.973962 11.750000 7.617184 11.588543 8.257812 11.265625 C8.898441 10.942707 9.481768 10.515628 10.007812 9.984375 C10.533857 9.453122 10.955728 8.869795 11.273438 8.234375 C11.591147 7.598955 11.750000 6.968753 11.750000 6.343750 C11.750000 5.677080 11.572918 5.052086 11.218750 4.468750 C10.864582 3.885414 10.398440 3.414064 9.820312 3.054688 C9.242185 2.695311 8.609378 2.515625 7.921875 2.515625 C7.276038 2.515625 6.632816 2.677082 5.992188 3.000000 C5.351559 3.322918 4.768232 3.749997 4.242188 4.281250 C3.716143 4.812503 3.294272 5.395830 2.976562 6.031250 C2.658853 6.666670 2.500000 7.296872 2.500000 7.921875 C2.500000 8.588545 2.677082 9.213539 3.031250 9.796875 C3.385418 10.380211 3.854164 10.851561 4.437500 11.210938 C5.020836 11.570314 5.651038 11.750000 6.328125 11.750000 Z M6.343750 13.625000 C5.302078 13.625000 4.348963 13.359378 3.484375 12.828125 C2.619787 12.296872 1.927086 11.598963 1.406250 10.734375 C0.885414 9.869787 0.625000 8.932297 0.625000 7.921875 C0.625000 7.026037 0.830727 6.148442 1.242188 5.289062 C1.653648 4.429683 2.210934 3.648441 2.914062 2.945312 C3.617191 2.242184 4.401037 1.682294 5.265625 1.265625 C6.130213 0.848956 7.015620 0.640625 7.921875 0.640625 C8.963547 0.640625 9.916662 0.906247 10.781250 1.437500 C11.645838 1.968753 12.335935 2.666662 12.851562 3.531250 C13.367190 4.395838 13.625000 5.333328 13.625000 6.343750 C13.625000 7.239588 13.419273 8.119787 13.007812 8.984375 C12.596352 9.848963 12.041670 10.630205 11.343750 11.328125 C10.645830 12.026045 9.864588 12.583331 9.000000 13.000000 C8.135412 13.416669 7.250005 13.625000 6.343750 13.625000 Z M20.937500 28.203125 C19.906245 28.203125 18.955734 27.942711 18.085938 27.421875 C17.216141 26.901039 16.518232 26.205734 15.992188 25.335938 C15.466143 24.466141 15.203125 23.520838 15.203125 22.500000 C15.203125 21.604162 15.408852 20.726567 15.820312 19.867188 C16.231773 19.007808 16.786455 18.226566 17.484375 17.523438 C18.182295 16.820309 18.963537 16.260419 19.828125 15.843750 C20.692713 15.427081 21.578120 15.218750 22.484375 15.218750 C23.515630 15.218750 24.466141 15.479164 25.335938 16.000000 C26.205734 16.520836 26.901039 17.216141 27.421875 18.085938 C27.942711 18.955734 28.203125 19.906245 28.203125 20.937500 C28.203125 21.833338 27.997398 22.710933 27.585938 23.570312 C27.174477 24.429692 26.619795 25.208330 25.921875 25.906250 C25.223955 26.604170 24.442713 27.161456 23.578125 27.578125 C22.713537 27.994794 21.833338 28.203125 20.937500 28.203125 Z M13.375000 19.062500 C14.020837 19.062500 14.664059 18.901043 15.304688 18.578125 C15.945316 18.255207 16.528643 17.828128 17.054688 17.296875 C17.580732 16.765622 18.002603 16.182295 18.320312 15.546875 C18.638022 14.911455 18.796875 14.281253 18.796875 13.656250 C18.796875 12.989580 18.622398 12.364586 18.273438 11.781250 C17.924477 11.197914 17.458336 10.726564 16.875000 10.367188 C16.291664 10.007811 15.656253 9.828125 14.968750 9.828125 C14.322913 9.828125 13.679691 9.989582 13.039062 10.312500 C12.398434 10.635418 11.815107 11.062497 11.289062 11.593750 C10.763018 12.125003 10.341147 12.708330 10.023438 13.343750 C9.705728 13.979170 9.546875 14.609372 9.546875 15.234375 C9.546875 15.901045 9.723957 16.526039 10.078125 17.109375 C10.432293 17.692711 10.901039 18.164061 11.484375 18.523438 C12.067711 18.882814 12.697913 19.062500 13.375000 19.062500 Z M18.265625 23.984375 C18.661460 23.984375 18.859375 23.796877 18.859375 23.421875 C18.859375 23.286458 18.833334 23.148438 18.781250 23.007812 C18.729166 22.867187 18.703125 22.708334 18.703125 22.531250 C18.703125 22.291665 18.752604 22.080730 18.851562 21.898438 C18.950521 21.716145 19.000000 21.552084 19.000000 21.406250 C19.000000 21.218749 18.937501 21.062501 18.812500 20.937500 C18.687499 20.812499 18.536459 20.750000 18.359375 20.750000 C18.098957 20.750000 17.882813 20.919269 17.710938 21.257812 C17.539062 21.596356 17.453125 22.010414 17.453125 22.500000 C17.453125 22.947919 17.528645 23.307290 17.679688 23.578125 C17.830730 23.848960 18.026040 23.984375 18.265625 23.984375 Z M11.859375 16.640625 C11.619790 16.640625 11.424480 16.505210 11.273438 16.234375 C11.122395 15.963540 11.046875 15.604169 11.046875 15.156250 C11.046875 14.666664 11.132812 14.252606 11.304688 13.914062 C11.476563 13.575519 11.692707 13.406250 11.953125 13.406250 C12.130209 13.406250 12.281249 13.468749 12.406250 13.593750 C12.531251 13.718751 12.593750 13.874999 12.593750 14.062500 C12.593750 14.208334 12.544271 14.372395 12.445312 14.554688 C12.346354 14.736980 12.296875 14.947915 12.296875 15.187500 C12.296875 15.364584 12.322916 15.523437 12.375000 15.664062 C12.427084 15.804688 12.453125 15.942708 12.453125 16.078125 C12.453125 16.453127 12.255210 16.640625 11.859375 16.640625 Z M4.812500 9.328125 C4.572915 9.328125 4.377605 9.192710 4.226562 8.921875 C4.075520 8.651040 4.000000 8.291669 4.000000 7.843750 C4.000000 7.354164 4.085937 6.940106 4.257812 6.601562 C4.429688 6.263019 4.645832 6.093750 4.906250 6.093750 C5.083334 6.093750 5.234374 6.156249 5.359375 6.281250 C5.484376 6.406251 5.546875 6.562499 5.546875 6.750000 C5.546875 6.895834 5.497396 7.059895 5.398438 7.242188 C5.299479 7.424480 5.250000 7.635415 5.250000 7.875000 C5.250000 8.052084 5.276041 8.210937 5.328125 8.351562 C5.380209 8.492188 5.406250 8.630208 5.406250 8.765625 C5.406250 9.140627 5.208335 9.328125 4.812500 9.328125 Z M13.390625 20.937500 C12.348953 20.937500 11.395838 20.671878 10.531250 20.140625 C9.666662 19.609372 8.973961 18.911463 8.453125 18.046875 C7.932289 17.182287 7.671875 16.244797 7.671875 15.234375 C7.671875 14.338537 7.877602 13.460942 8.289062 12.601562 C8.700523 11.742183 9.257809 10.960941 9.960938 10.257812 C10.664066 9.554684 11.447912 8.994794 12.312500 8.578125 C13.177088 8.161456 14.062495 7.953125 14.968750 7.953125 C16.010422 7.953125 16.963537 8.218747 17.828125 8.750000 C18.692713 9.281253 19.382810 9.979162 19.898438 10.843750 C20.414065 11.708338 20.671875 12.645828 20.671875 13.656250 C20.671875 14.552088 20.466148 15.432287 20.054688 16.296875 C19.643227 17.161463 19.088545 17.942705 18.390625 18.640625 C17.692705 19.338545 16.911463 19.895831 16.046875 20.312500 C15.182287 20.729169 14.296880 20.937500 13.390625 20.937500 Z M3.078125 4.968750 L0.000000 1.203125 L1.203125 -0.000000 L5.062500 3.031250 Z M30.937500 32.812500 L23.968750 25.859375 L25.843750 23.984375 L32.812500 30.921875 Z M36.718750 27.343750" /></svg>