<svg version="1.1" xmlns="http://www.w3.org/2000/svg" style="fill:rgba(0,0,0,1.0)" width="256" height="256" viewBox="0 0 37.5 32.8125"><path fill="rgb(255, 255, 255)" d="M13.781250 11.421875 L14.843750 10.281250 C16.614592 11.906258 18.406241 13.619783 20.218750 15.421875 C22.031259 17.223967 23.802075 19.072907 25.531250 20.968750 C27.260425 22.864593 28.880201 24.757803 30.390625 26.648438 C31.901049 28.539072 33.229161 30.385408 34.375000 32.187500 C34.052082 32.427085 33.669273 32.591145 33.226562 32.679688 C32.783852 32.768230 32.291669 32.812500 31.750000 32.812500 C30.645828 32.812500 29.356778 32.583336 27.882812 32.125000 C26.408847 31.666664 24.867196 31.049483 23.257812 30.273438 C21.648429 29.497392 20.088549 28.625005 18.578125 27.656250 C17.067701 26.687495 15.723964 25.692713 14.546875 24.671875 C13.984372 24.171872 13.390628 23.622399 12.765625 23.023438 C12.140622 22.424476 11.565107 21.841149 11.039062 21.273438 C10.513018 20.705726 10.104168 20.223960 9.812500 19.828125 L12.078125 16.953125 C12.401043 16.536456 12.562500 16.151043 12.562500 15.796875 C12.562500 15.463540 12.427085 15.171876 12.156250 14.921875 L11.250000 14.078125 L12.312500 12.937500 L13.218750 13.781250 C13.833336 14.364586 14.140625 15.026038 14.140625 15.765625 C14.140625 16.119793 14.080730 16.466144 13.960938 16.804688 C13.841145 17.143231 13.619793 17.515623 13.296875 17.921875 L11.796875 19.828125 C12.078126 20.140627 12.429685 20.510415 12.851562 20.937500 C13.273440 21.364585 13.723956 21.802081 14.203125 22.250000 C14.682294 22.697919 15.135415 23.114581 15.562500 23.500000 C16.750006 24.541672 18.080722 25.528641 19.554688 26.460938 C21.028653 27.393234 22.526034 28.221351 24.046875 28.945312 C25.567716 29.669274 27.007806 30.236977 28.367188 30.648438 C29.726569 31.059898 30.885412 31.265625 31.843750 31.265625 C31.937500 31.265625 32.031250 31.263021 32.125000 31.257812 C32.218750 31.252604 32.307291 31.244792 32.390625 31.234375 L32.062500 31.593750 C30.593743 29.374989 28.877614 27.125011 26.914062 24.843750 C24.950511 22.562489 22.848970 20.291678 20.609375 18.031250 C18.369780 15.770822 16.093762 13.567719 13.781250 11.421875 Z M8.984375 14.000000 L0.562500 5.906250 C0.364582 5.718749 0.221355 5.554688 0.132812 5.414062 C0.044270 5.273437 0.000000 5.104168 0.000000 4.906250 C0.000000 4.656249 0.132811 4.330731 0.398438 3.929688 C0.664064 3.528644 1.005206 3.101565 1.421875 2.648438 C1.838544 2.195310 2.283852 1.768231 2.757812 1.367188 C3.231773 0.966144 3.677081 0.638022 4.093750 0.382812 C4.510419 0.127603 4.843749 -0.000000 5.093750 -0.000000 C5.333335 -0.000000 5.536458 0.054687 5.703125 0.164062 C5.869792 0.273438 6.057291 0.437499 6.265625 0.656250 L15.406250 9.906250 L11.296875 14.328125 C11.036457 14.609376 10.744793 14.750000 10.421875 14.750000 C9.994790 14.750000 9.515628 14.500002 8.984375 14.000000 Z M4.578125 4.828125 C4.807293 4.828125 5.002603 4.744792 5.164062 4.578125 C5.325522 4.411458 5.406250 4.213543 5.406250 3.984375 C5.406250 3.744790 5.325522 3.544272 5.164062 3.382812 C5.002603 3.221353 4.807293 3.140625 4.578125 3.140625 C4.348957 3.140625 4.151042 3.221353 3.984375 3.382812 C3.817708 3.544272 3.734375 3.744790 3.734375 3.984375 C3.734375 4.213543 3.817708 4.411458 3.984375 4.578125 C4.151042 4.744792 4.348957 4.828125 4.578125 4.828125 Z M11.484375 11.375000 C11.713543 11.375000 11.908853 11.291667 12.070312 11.125000 C12.231772 10.958333 12.312500 10.760418 12.312500 10.531250 C12.312500 10.291665 12.231772 10.091147 12.070312 9.929688 C11.908853 9.768228 11.713543 9.687500 11.484375 9.687500 C11.255207 9.687500 11.057292 9.768228 10.890625 9.929688 C10.723958 10.091147 10.640625 10.291665 10.640625 10.531250 C10.640625 10.760418 10.723958 10.958333 10.890625 11.125000 C11.057292 11.291667 11.255207 11.375000 11.484375 11.375000 Z M37.500000 27.343750" /></svg>