<svg version="1.1" xmlns="http://www.w3.org/2000/svg" style="fill:rgba(0,0,0,1.0)" width="256" height="256" viewBox="0 0 33.90625 32.8125"><path fill="rgb(255, 255, 255)" d="M2.671875 32.812500 C1.932288 32.812500 1.302086 32.552086 0.781250 32.031250 C0.260414 31.510414 0.000000 30.875004 0.000000 30.125000 C0.000000 29.385413 0.260414 28.763023 0.781250 28.257812 C1.302086 27.752602 1.932288 27.500000 2.671875 27.500000 L20.718750 27.500000 C21.906256 27.500000 22.500000 26.911464 22.500000 25.734375 L22.500000 3.093750 C22.500000 2.072912 21.984380 1.562500 20.953125 1.562500 L1.578125 1.562500 L1.578125 29.062500 L0.000000 30.125000 L0.000000 2.843750 C0.000000 1.864578 0.252602 1.145836 0.757812 0.687500 C1.263023 0.229164 1.953121 -0.000000 2.828125 -0.000000 L21.046875 -0.000000 C21.713545 -0.000000 22.252602 0.111978 22.664062 0.335938 C23.075523 0.559897 23.395832 0.911456 23.625000 1.390625 L24.937500 1.390625 C25.583337 1.390625 26.119790 1.596352 26.546875 2.007812 C26.973960 2.419273 27.187500 2.932289 27.187500 3.546875 L27.187500 29.453125 C27.187500 30.609381 26.890628 31.458331 26.296875 32.000000 C25.703122 32.541669 24.885422 32.812500 23.843750 32.812500 Z M3.875000 27.093750 L3.875000 25.812500 C4.010417 25.562499 4.200520 25.460937 4.445312 25.507812 C4.690105 25.554688 4.796875 25.723957 4.765625 26.015625 C4.671875 26.234376 4.648437 26.369791 4.695312 26.421875 C4.742188 26.473959 4.817708 26.510417 4.921875 26.531250 C4.994792 26.541667 5.067708 26.557292 5.140625 26.578125 C5.213542 26.598958 5.281250 26.640625 5.343750 26.703125 C5.489584 26.890626 5.510417 27.041666 5.406250 27.156250 C5.302083 27.270834 5.171876 27.312500 5.015625 27.281250 C4.859374 27.250000 4.770833 27.114585 4.750000 26.875000 C4.718750 26.791666 4.677084 26.765625 4.625000 26.796875 L4.468750 26.890625 C4.375000 26.953125 4.281250 27.010416 4.187500 27.062500 C4.093750 27.114584 3.989584 27.125000 3.875000 27.093750 Z M5.609375 25.640625 C5.536458 25.619792 5.486979 25.578125 5.460938 25.515625 C5.434896 25.453125 5.411458 25.385417 5.390625 25.312500 C5.380208 25.291667 5.382812 25.263021 5.398438 25.226562 C5.414063 25.190104 5.427083 25.161458 5.437500 25.140625 C5.458333 25.088541 5.476562 25.044271 5.492188 25.007812 C5.507813 24.971354 5.494792 24.932292 5.453125 24.890625 C5.390625 24.828125 5.307292 24.786458 5.203125 24.765625 C5.098958 24.744792 5.020834 24.697917 4.968750 24.625000 C4.875000 24.458332 4.817708 24.286459 4.796875 24.109375 C4.796875 24.005208 4.776042 23.895834 4.734375 23.781250 C4.692708 23.666666 4.609376 23.619792 4.484375 23.640625 C4.390625 23.703125 4.294271 23.760416 4.195312 23.812500 C4.096354 23.864584 3.989584 23.901042 3.875000 23.921875 L3.875000 22.578125 C3.989584 22.484375 4.109374 22.401042 4.234375 22.328125 C4.328125 22.265625 4.466145 22.239583 4.648438 22.250000 C4.830730 22.260417 4.968750 22.304687 5.062500 22.382812 C5.156250 22.460938 5.119792 22.572916 4.953125 22.718750 C4.911458 22.739583 4.867188 22.768229 4.820312 22.804688 C4.773437 22.841146 4.744792 22.885416 4.734375 22.937500 C4.723958 23.031250 4.752604 23.104166 4.820312 23.156250 C4.888021 23.208334 4.958333 23.270833 5.031250 23.343750 L5.078125 23.375000 C5.380210 23.677085 5.510417 23.999998 5.468750 24.343750 C5.406250 24.520834 5.463541 24.640625 5.640625 24.703125 C5.932293 24.796875 6.088542 24.984374 6.109375 25.265625 C6.119792 25.380209 6.070313 25.481770 5.960938 25.570312 C5.851562 25.658855 5.734376 25.682292 5.609375 25.640625 Z M6.953125 26.593750 C6.807291 26.510416 6.736979 26.427084 6.742188 26.343750 C6.747396 26.260416 6.770833 26.161459 6.812500 26.046875 C6.822917 26.026042 6.835937 26.002604 6.851562 25.976562 C6.867188 25.950521 6.880208 25.916667 6.890625 25.875000 C6.932292 25.781250 6.955729 25.692709 6.960938 25.609375 C6.966146 25.526041 7.026041 25.463542 7.140625 25.421875 C7.369793 25.348958 7.526041 25.390624 7.609375 25.546875 C7.692709 25.703126 7.718750 25.890624 7.687500 26.109375 C7.656250 26.328126 7.575521 26.499999 7.445312 26.625000 C7.315104 26.750001 7.151043 26.739584 6.953125 26.593750 Z M9.015625 27.140625 C8.942708 27.307292 8.830730 27.361979 8.679688 27.304688 C8.528645 27.247396 8.458333 27.135418 8.468750 26.968750 C8.479167 26.885416 8.505208 26.742189 8.546875 26.539062 C8.588542 26.335936 8.677083 26.260416 8.812500 26.312500 C8.958334 26.354167 9.036458 26.484374 9.046875 26.703125 C9.057292 26.921876 9.046875 27.067708 9.015625 27.140625 Z M3.875000 21.750000 L3.875000 20.437500 C4.062501 20.322916 4.249999 20.377603 4.437500 20.601562 C4.625001 20.825522 4.598960 21.041666 4.359375 21.250000 C4.286458 21.312500 4.208334 21.401041 4.125000 21.515625 C4.041666 21.630209 3.958334 21.708333 3.875000 21.750000 Z M11.000000 27.312500 C10.895833 27.416667 10.739584 27.450521 10.531250 27.414062 C10.322916 27.377604 10.244791 27.260418 10.296875 27.062500 C10.359375 26.885416 10.361979 26.773438 10.304688 26.726562 C10.247396 26.679687 10.171875 26.645833 10.078125 26.625000 C10.015625 26.604167 9.955729 26.585938 9.898438 26.570312 C9.841146 26.554687 9.786459 26.526042 9.734375 26.484375 C9.567708 26.244790 9.583332 26.026043 9.781250 25.828125 C9.947917 25.661458 10.109374 25.661458 10.265625 25.828125 C10.328125 25.901042 10.354167 25.989583 10.343750 26.093750 C10.333333 26.197917 10.375000 26.291666 10.468750 26.375000 C10.520834 26.416667 10.583333 26.442708 10.656250 26.453125 C10.729167 26.463542 10.796875 26.484375 10.859375 26.515625 C11.015626 26.588542 11.114583 26.708332 11.156250 26.875000 C11.197917 27.041668 11.145834 27.187499 11.000000 27.312500 Z M9.093750 25.156250 C9.031250 25.135417 8.973959 25.093750 8.921875 25.031250 C8.869791 24.968750 8.817709 24.927083 8.765625 24.906250 C8.703125 24.885417 8.645834 24.877604 8.593750 24.882812 C8.541666 24.888021 8.494792 24.890625 8.453125 24.890625 C8.411458 24.890625 8.375000 24.893229 8.343750 24.898438 C8.312500 24.903646 8.276042 24.906250 8.234375 24.906250 C8.151041 24.906250 8.039063 24.846355 7.898438 24.726562 C7.757812 24.606770 7.723958 24.494792 7.796875 24.390625 C7.848959 24.307291 7.984374 24.296875 8.203125 24.359375 C8.348959 24.390625 8.453125 24.401042 8.515625 24.390625 C8.598959 24.369792 8.679687 24.348958 8.757812 24.328125 C8.835938 24.307292 8.916666 24.291667 9.000000 24.281250 C9.177084 24.260417 9.343749 24.328124 9.500000 24.484375 C9.656251 24.640626 9.677084 24.812499 9.562500 25.000000 C9.458333 25.177084 9.302084 25.229167 9.093750 25.156250 Z M7.171875 23.843750 C7.109375 23.843750 7.046875 23.828125 6.984375 23.796875 C6.859374 23.734375 6.718751 23.723958 6.562500 23.765625 C6.364582 23.848959 6.244792 23.760418 6.203125 23.500000 C6.182292 23.406250 6.166667 23.247397 6.156250 23.023438 C6.145833 22.799478 6.171875 22.604168 6.234375 22.437500 C6.296875 22.270832 6.416666 22.234375 6.593750 22.328125 C6.729167 22.390625 6.796875 22.526041 6.796875 22.734375 C6.796875 22.744792 6.786458 22.781250 6.765625 22.843750 C6.744792 22.906250 6.726563 22.963541 6.710938 23.015625 C6.695312 23.067709 6.718750 23.119791 6.781250 23.171875 C6.822917 23.203125 6.869791 23.213542 6.921875 23.203125 C6.973959 23.192708 7.026041 23.187500 7.078125 23.187500 C7.078125 23.187500 7.109375 23.177083 7.171875 23.156250 C7.473960 23.135417 7.640625 23.244790 7.671875 23.484375 C7.703125 23.723960 7.536460 23.843750 7.171875 23.843750 Z M11.562500 26.203125 C11.510416 26.171875 11.468750 26.143229 11.437500 26.117188 C11.406250 26.091146 11.364584 26.062500 11.312500 26.031250 C11.187499 25.947916 11.065105 25.812501 10.945312 25.625000 C10.825520 25.437499 10.927082 25.328125 11.250000 25.296875 C11.406251 25.276042 11.533854 25.322916 11.632812 25.437500 C11.731771 25.552084 11.812500 25.666666 11.875000 25.781250 C11.958334 25.916667 11.968750 26.044270 11.906250 26.164062 C11.843750 26.283855 11.729168 26.296875 11.562500 26.203125 Z M6.593750 21.703125 C6.458333 21.526041 6.398437 21.356772 6.414062 21.195312 C6.429688 21.033853 6.552082 20.906250 6.781250 20.812500 C6.947918 20.750000 7.161457 20.752604 7.421875 20.820312 C7.682293 20.888021 7.739584 21.046874 7.593750 21.296875 C7.562500 21.348959 7.515625 21.416666 7.453125 21.500000 C7.328124 21.666668 7.203126 21.807291 7.078125 21.921875 C6.953124 22.036459 6.791668 21.963543 6.593750 21.703125 Z M13.734375 27.875000 C13.630208 27.875000 13.533855 27.846354 13.445312 27.789062 C13.356770 27.731771 13.255209 27.677084 13.140625 27.625000 C13.098958 27.604167 13.057292 27.578125 13.015625 27.546875 C12.973958 27.515625 12.927084 27.489583 12.875000 27.468750 C12.697916 27.375000 12.630208 27.252605 12.671875 27.101562 C12.713542 26.950520 12.822916 26.854167 13.000000 26.812500 C13.145834 26.770833 13.328124 26.757812 13.546875 26.773438 C13.765626 26.789063 13.932291 26.864583 14.046875 27.000000 C14.161459 27.135417 14.184896 27.309895 14.117188 27.523438 C14.049479 27.736980 13.921876 27.854167 13.734375 27.875000 Z M4.859375 19.218750 C4.723958 19.281250 4.617188 19.273438 4.539062 19.195312 C4.460937 19.117187 4.395834 19.020834 4.343750 18.906250 C4.281250 18.760416 4.213542 18.666667 4.140625 18.625000 C4.046875 18.583333 3.958334 18.552083 3.875000 18.531250 L3.875000 17.468750 C4.135418 17.458333 4.328124 17.531249 4.453125 17.687500 C4.526042 17.781250 4.614583 17.848958 4.718750 17.890625 C4.760417 17.901042 4.799479 17.906250 4.835938 17.906250 C4.872396 17.906250 4.911458 17.906250 4.953125 17.906250 C5.057292 17.906250 5.135416 17.911458 5.187500 17.921875 C5.343751 17.953125 5.447916 18.057291 5.500000 18.234375 C5.541667 18.369792 5.458334 18.432292 5.250000 18.421875 C5.041666 18.411458 4.901042 18.385417 4.828125 18.343750 C4.807292 18.406250 4.809896 18.471354 4.835938 18.539062 C4.861979 18.606771 4.880208 18.671875 4.890625 18.734375 C4.911458 18.817709 4.932292 18.901041 4.953125 18.984375 C4.973958 19.067709 4.942709 19.145833 4.859375 19.218750 Z M10.937500 24.531250 C10.749999 24.531250 10.614584 24.442709 10.531250 24.265625 C10.447916 24.088541 10.390625 23.927084 10.359375 23.781250 L10.359375 23.765625 C10.359375 23.713541 10.348958 23.661459 10.328125 23.609375 C10.307292 23.557291 10.312500 23.505209 10.343750 23.453125 C10.375000 23.401041 10.408854 23.356771 10.445312 23.320312 C10.481771 23.283854 10.505208 23.239584 10.515625 23.187500 C10.536458 23.093750 10.497396 23.015625 10.398438 22.953125 C10.299479 22.890625 10.208334 22.875000 10.125000 22.906250 C10.031250 22.937500 9.953125 22.992187 9.890625 23.070312 C9.828125 23.148438 9.770834 23.223958 9.718750 23.296875 C9.593749 23.505209 9.432293 23.604167 9.234375 23.593750 C9.036457 23.583333 8.916667 23.447918 8.875000 23.187500 C8.864583 23.062499 8.885416 22.966146 8.937500 22.898438 C8.989584 22.830729 9.052083 22.760417 9.125000 22.687500 C9.208334 22.604166 9.260417 22.536459 9.281250 22.484375 C9.322917 22.401041 9.312500 22.315105 9.250000 22.226562 C9.187500 22.138020 9.109375 22.083333 9.015625 22.062500 C8.963541 22.041667 8.895834 22.036458 8.812500 22.046875 C8.729166 22.057292 8.645834 22.067708 8.562500 22.078125 C8.458333 22.088542 8.348959 22.098958 8.234375 22.109375 C8.119791 22.119792 8.026042 22.088542 7.953125 22.015625 C7.880208 21.942708 7.864583 21.867188 7.906250 21.789062 C7.947917 21.710937 8.000000 21.645834 8.062500 21.593750 C8.281251 21.385416 8.473958 21.364582 8.640625 21.531250 C8.661458 21.541667 8.677083 21.546875 8.687500 21.546875 C8.697917 21.546875 8.708333 21.557292 8.718750 21.578125 C8.802084 21.661459 8.927082 21.671875 9.093750 21.609375 L9.234375 21.562500 C9.286459 21.541667 9.330729 21.523438 9.367188 21.507812 C9.403646 21.492187 9.447916 21.489583 9.500000 21.500000 C9.614584 21.510417 9.697916 21.583333 9.750000 21.718750 C9.802084 21.854167 9.859375 21.973958 9.921875 22.078125 C10.088542 22.359376 10.333332 22.484375 10.656250 22.453125 C10.885418 22.401041 11.036458 22.393229 11.109375 22.429688 C11.182292 22.466146 11.239583 22.604165 11.281250 22.843750 C11.291667 22.895834 11.333333 22.968750 11.406250 23.062500 C11.458334 23.135417 11.505208 23.200521 11.546875 23.257812 C11.588542 23.315104 11.593750 23.375000 11.562500 23.437500 C11.510416 23.552084 11.395834 23.614583 11.218750 23.625000 C11.041666 23.635417 10.953125 23.703124 10.953125 23.828125 C10.953125 23.880209 10.994791 23.947916 11.078125 24.031250 C11.098958 24.052083 11.119792 24.078125 11.140625 24.109375 C11.161458 24.140625 11.182292 24.171875 11.203125 24.203125 C11.255209 24.265625 11.244792 24.335937 11.171875 24.414062 C11.098958 24.492188 11.020834 24.531250 10.937500 24.531250 Z M5.937500 20.921875 C5.760416 21.057292 5.557293 21.067709 5.328125 20.953125 C5.098957 20.838541 5.109374 20.677084 5.359375 20.468750 C5.369792 20.468750 5.377604 20.466146 5.382812 20.460938 C5.388021 20.455729 5.395833 20.453125 5.406250 20.453125 C5.562501 20.453125 5.697916 20.390626 5.812500 20.265625 C5.927084 20.140624 5.973958 19.989584 5.953125 19.812500 C5.911458 19.677083 5.901042 19.541667 5.921875 19.406250 C5.942708 19.270833 6.031249 19.171875 6.187500 19.109375 C6.250000 19.088542 6.309896 19.093750 6.367188 19.125000 C6.424479 19.156250 6.473958 19.182292 6.515625 19.203125 C6.640626 19.265625 6.729166 19.281250 6.781250 19.250000 C6.854167 19.218750 6.885417 19.145834 6.875000 19.031250 C6.864583 18.916666 6.848958 18.796876 6.828125 18.671875 C6.817708 18.609375 6.812500 18.510417 6.812500 18.375000 C6.812500 18.302083 6.802083 18.250000 6.781250 18.218750 C6.760417 18.187500 6.726563 18.166667 6.679688 18.156250 C6.632812 18.145833 6.588542 18.135417 6.546875 18.125000 C6.453125 18.083333 6.385417 18.015625 6.343750 17.921875 C6.302083 17.828125 6.317708 17.744792 6.390625 17.671875 C6.473959 17.557291 6.604166 17.507812 6.781250 17.523438 C6.958334 17.539063 7.093750 17.614583 7.187500 17.750000 C7.260417 17.854167 7.294271 17.963541 7.289062 18.078125 C7.283854 18.192709 7.270833 18.312499 7.250000 18.437500 C7.218750 18.645834 7.223958 18.843749 7.265625 19.031250 C7.276042 19.062500 7.294271 19.098958 7.320312 19.140625 C7.346354 19.182292 7.369792 19.223958 7.390625 19.265625 C7.453125 19.369792 7.507812 19.479166 7.554688 19.593750 C7.601563 19.708334 7.583334 19.817708 7.500000 19.921875 C7.395833 20.005209 7.260418 20.020834 7.093750 19.968750 C7.041666 19.947917 6.992188 19.940104 6.945312 19.945312 C6.898437 19.950521 6.848959 19.953125 6.796875 19.953125 C6.567707 19.953125 6.411459 20.083332 6.328125 20.343750 C6.244791 20.604168 6.114584 20.796874 5.937500 20.921875 Z M0.953125 28.906250 L0.953125 1.250000 L4.390625 1.250000 L4.390625 28.906250 Z M13.218750 26.187500 C13.135416 26.135416 13.080729 26.062500 13.054688 25.968750 C13.028646 25.875000 12.989584 25.791667 12.937500 25.718750 C12.885416 25.687500 12.802084 25.671875 12.687500 25.671875 C12.583333 25.671875 12.510417 25.661458 12.468750 25.640625 C12.395833 25.598958 12.346354 25.533855 12.320312 25.445312 C12.294271 25.356770 12.312500 25.281250 12.375000 25.218750 C12.479167 25.114583 12.635416 25.062500 12.843750 25.062500 C12.947917 25.062500 13.026041 25.057292 13.078125 25.046875 C13.213542 25.005208 13.260417 24.906251 13.218750 24.750000 C13.187500 24.645833 13.109376 24.578125 12.984375 24.546875 C12.859374 24.515625 12.744792 24.473959 12.640625 24.421875 C12.463541 24.328125 12.388021 24.208334 12.414062 24.062500 C12.440104 23.916666 12.536458 23.838542 12.703125 23.828125 C12.776042 23.817708 12.843750 23.802083 12.906250 23.781250 C12.968750 23.760417 13.036458 23.750000 13.109375 23.750000 C13.098958 23.750000 13.125000 23.734375 13.187500 23.703125 C13.250000 23.671875 13.320312 23.645833 13.398438 23.625000 C13.476563 23.604167 13.541666 23.645833 13.593750 23.750000 C13.625000 23.802084 13.632813 23.856771 13.617188 23.914062 C13.601562 23.971354 13.588542 24.026041 13.578125 24.078125 C13.567708 24.119792 13.557292 24.166666 13.546875 24.218750 C13.536458 24.270834 13.536458 24.317708 13.546875 24.359375 C13.567708 24.421875 13.593750 24.476562 13.625000 24.523438 C13.656250 24.570313 13.687500 24.619791 13.718750 24.671875 C13.760417 24.734375 13.802083 24.789062 13.843750 24.835938 C13.885417 24.882813 13.906250 24.937500 13.906250 25.000000 C13.906250 25.104167 13.861980 25.187500 13.773438 25.250000 C13.684895 25.312500 13.604167 25.385416 13.531250 25.468750 C13.458333 25.541667 13.429687 25.619791 13.445312 25.703125 C13.460938 25.786459 13.468750 25.869791 13.468750 25.953125 C13.468750 25.984375 13.484375 26.031250 13.515625 26.093750 C13.505208 26.135417 13.466146 26.169271 13.398438 26.195312 C13.330729 26.221354 13.270834 26.218750 13.218750 26.187500 Z M14.703125 28.265625 C14.776042 28.192708 14.843750 28.125000 14.906250 28.062500 C14.968750 28.000000 15.020833 27.932292 15.062500 27.859375 C15.104167 27.786458 15.132812 27.710938 15.148438 27.632812 C15.164063 27.554687 15.187500 27.479167 15.218750 27.406250 C15.322917 27.229166 15.479166 27.122396 15.687500 27.085938 C15.895834 27.049479 16.080728 27.080729 16.242188 27.179688 C16.403647 27.278646 16.453125 27.447915 16.390625 27.687500 C16.359375 27.812501 16.416666 27.885417 16.562500 27.906250 C16.708334 27.958334 16.856770 27.997396 17.007812 28.023438 C17.158855 28.049479 17.291666 28.104166 17.406250 28.187500 L16.359375 28.296875 C16.276041 28.244791 16.109376 28.229167 15.859375 28.250000 C15.609374 28.270833 15.484375 28.276042 15.484375 28.265625 C15.484375 28.109374 15.437500 28.057291 15.343750 28.109375 Z M9.093750 20.328125 C8.958333 20.411459 8.789064 20.445313 8.585938 20.429688 C8.382811 20.414062 8.239584 20.351563 8.156250 20.242188 C8.072916 20.132812 8.135416 19.989584 8.343750 19.812500 C8.479167 19.697916 8.533854 19.604167 8.507812 19.531250 C8.481771 19.458333 8.432292 19.385417 8.359375 19.312500 C8.223958 19.177083 8.187500 19.041667 8.250000 18.906250 C8.343750 18.697916 8.513020 18.638020 8.757812 18.726562 C9.002605 18.815105 9.125000 18.958332 9.125000 19.156250 C9.125000 19.239584 9.109375 19.312500 9.078125 19.375000 C9.067708 19.385417 9.059896 19.406250 9.054688 19.437500 C9.049479 19.468750 9.036458 19.494792 9.015625 19.515625 C8.953125 19.598959 8.958333 19.674479 9.031250 19.742188 C9.104167 19.809896 9.161458 19.880208 9.203125 19.953125 C9.223958 19.973958 9.234375 19.992187 9.234375 20.007812 C9.234375 20.023438 9.239583 20.036458 9.250000 20.046875 C9.291667 20.171876 9.239584 20.265625 9.093750 20.328125 Z M10.718750 21.250000 C10.697917 21.270833 10.635417 21.265625 10.531250 21.234375 C10.364582 21.192708 10.200522 21.091147 10.039062 20.929688 C9.877603 20.768228 9.802083 20.588543 9.812500 20.390625 C9.833333 20.203124 9.914062 20.117187 10.054688 20.132812 C10.195313 20.148438 10.312500 20.229166 10.406250 20.375000 C10.447917 20.437500 10.479167 20.500000 10.500000 20.562500 C10.520833 20.625000 10.546875 20.687500 10.578125 20.750000 C10.609375 20.812500 10.635417 20.854167 10.656250 20.875000 C10.708334 20.916667 10.744792 20.976562 10.765625 21.054688 C10.786458 21.132813 10.770834 21.197916 10.718750 21.250000 Z M6.328125 16.921875 C5.994790 16.901042 5.723959 16.817709 5.515625 16.671875 C5.421875 16.578125 5.367188 16.445313 5.351562 16.273438 C5.335937 16.101562 5.380208 15.963542 5.484375 15.859375 C5.619792 15.744791 5.770832 15.739583 5.937500 15.843750 C6.104168 15.947917 6.255208 16.057291 6.390625 16.171875 C6.473959 16.234375 6.520833 16.270833 6.531250 16.281250 C6.812501 16.447918 6.919271 16.591145 6.851562 16.710938 C6.783854 16.830730 6.609376 16.901042 6.328125 16.921875 Z M15.171875 26.375000 C15.130208 26.333333 15.104167 26.286459 15.093750 26.234375 C15.083333 26.182291 15.062500 26.135417 15.031250 26.093750 C14.989583 26.041666 14.929688 26.010417 14.851562 26.000000 C14.773437 25.989583 14.708334 25.979167 14.656250 25.968750 C14.437499 25.906250 14.328125 25.760418 14.328125 25.531250 C14.328125 25.302082 14.411458 25.135417 14.578125 25.031250 C14.692709 24.958333 14.802083 24.921875 14.906250 24.921875 C14.937500 24.921875 14.963542 24.929687 14.984375 24.945312 C15.005208 24.960938 15.026042 24.973958 15.046875 24.984375 C15.161459 25.026042 15.239583 25.036458 15.281250 25.015625 C15.333334 24.984375 15.359375 24.940104 15.359375 24.882812 C15.359375 24.825521 15.359375 24.765625 15.359375 24.703125 C15.359375 24.619791 15.364583 24.539063 15.375000 24.460938 C15.385417 24.382812 15.442708 24.338542 15.546875 24.328125 C15.734376 24.307292 15.828125 24.364583 15.828125 24.500000 C15.828125 24.531250 15.822917 24.559896 15.812500 24.585938 C15.802083 24.611979 15.791667 24.640625 15.781250 24.671875 C15.770833 24.703125 15.765625 24.750000 15.765625 24.812500 C15.776042 24.916667 15.815104 25.010416 15.882812 25.093750 C15.950521 25.177084 16.005208 25.260416 16.046875 25.343750 C16.130209 25.447917 16.197916 25.515625 16.250000 25.546875 C16.312500 25.588542 16.390625 25.609375 16.484375 25.609375 C16.578125 25.609375 16.651041 25.640625 16.703125 25.703125 C16.807292 25.869792 16.760418 25.994791 16.562500 26.078125 C16.364582 26.161459 16.197917 26.177084 16.062500 26.125000 C15.968750 26.083333 15.888021 26.020834 15.820312 25.937500 C15.752604 25.854166 15.671875 25.796875 15.578125 25.765625 C15.505208 25.744792 15.458333 25.757812 15.437500 25.804688 C15.416667 25.851563 15.416667 25.901041 15.437500 25.953125 C15.489584 26.067709 15.489584 26.179687 15.437500 26.289062 C15.385416 26.398438 15.296876 26.427084 15.171875 26.375000 Z M12.546875 23.000000 C12.473958 22.958333 12.432292 22.898438 12.421875 22.820312 C12.411458 22.742187 12.385417 22.666667 12.343750 22.593750 C12.291666 22.489583 12.218750 22.432292 12.125000 22.421875 C12.031250 22.411458 11.953125 22.375000 11.890625 22.312500 C11.817708 22.229166 11.794271 22.174479 11.820312 22.148438 C11.846354 22.122396 11.901041 22.088542 11.984375 22.046875 C12.171876 21.942708 12.372395 21.924479 12.585938 21.992188 C12.799480 22.059896 12.989582 22.151041 13.156250 22.265625 C13.270834 22.307292 13.380208 22.335937 13.484375 22.351562 C13.588542 22.367188 13.677083 22.421875 13.750000 22.515625 C13.854167 22.640626 13.854167 22.734375 13.750000 22.796875 C13.677083 22.838542 13.588542 22.859375 13.484375 22.859375 L13.343750 22.859375 C13.270833 22.859375 13.171876 22.890625 13.046875 22.953125 C12.963541 22.994792 12.880209 23.023437 12.796875 23.039062 C12.713541 23.054688 12.630209 23.041667 12.546875 23.000000 Z M18.515625 27.937500 C18.411458 27.895833 18.304688 27.841146 18.195312 27.773438 C18.085937 27.705729 17.973959 27.635417 17.859375 27.562500 C17.567707 27.302082 17.497395 27.119792 17.648438 27.015625 C17.799480 26.911458 18.028644 26.864583 18.335938 26.875000 C18.643231 26.885417 18.874999 26.932291 19.031250 27.015625 C19.291668 27.119792 19.416667 27.260416 19.406250 27.437500 C19.395833 27.614584 19.304688 27.763020 19.132812 27.882812 C18.960937 28.002605 18.755210 28.020834 18.515625 27.937500 Z M14.187500 23.218750 C14.187500 22.968749 14.255208 22.835938 14.390625 22.820312 C14.526042 22.804687 14.661458 22.833333 14.796875 22.906250 C14.932292 22.979167 15.000000 23.015625 15.000000 23.015625 C15.114584 23.276043 15.098959 23.463541 14.953125 23.578125 C14.807291 23.692709 14.643230 23.723959 14.460938 23.671875 C14.278645 23.619791 14.187500 23.468751 14.187500 23.218750 Z M11.562500 20.046875 C11.385416 20.119792 11.190105 20.067709 10.976562 19.890625 C10.763020 19.713541 10.625000 19.536459 10.562500 19.359375 C10.489583 19.151041 10.588540 19.026042 10.859375 18.984375 C10.963542 18.963542 11.052083 18.986979 11.125000 19.054688 C11.197917 19.122396 11.270833 19.192708 11.343750 19.265625 C11.375000 19.296875 11.403646 19.328125 11.429688 19.359375 C11.455729 19.390625 11.489583 19.421875 11.531250 19.453125 C11.677084 19.515625 11.755208 19.611979 11.765625 19.742188 C11.776042 19.872396 11.708334 19.973958 11.562500 20.046875 Z M9.078125 17.593750 C9.005208 17.520833 8.937500 17.437500 8.875000 17.343750 C8.812500 17.250000 8.723959 17.182292 8.609375 17.140625 C8.546875 17.119792 8.453126 17.145833 8.328125 17.218750 C8.213541 17.291667 8.114584 17.312500 8.031250 17.281250 C7.833332 17.208333 7.752604 17.044272 7.789062 16.789062 C7.825521 16.533853 7.895833 16.364584 8.000000 16.281250 C8.083334 16.208333 8.148437 16.190104 8.195312 16.226562 C8.242188 16.263021 8.296875 16.312500 8.359375 16.375000 C8.411459 16.427084 8.471354 16.481771 8.539062 16.539062 C8.606771 16.596354 8.692708 16.614583 8.796875 16.593750 L8.968750 16.546875 C9.093751 16.515625 9.213541 16.505208 9.328125 16.515625 C9.588543 16.546875 9.739583 16.697915 9.781250 16.968750 C9.822917 17.239585 9.778646 17.466145 9.648438 17.648438 C9.518229 17.830730 9.328126 17.812501 9.078125 17.593750 Z M17.640625 25.953125 C17.557291 25.869791 17.486979 25.734376 17.429688 25.546875 C17.372396 25.359374 17.401041 25.218750 17.515625 25.125000 C17.578125 25.072916 17.661458 25.046875 17.765625 25.046875 C17.953126 25.046875 18.091145 25.127603 18.179688 25.289062 C18.268230 25.450522 18.302083 25.609374 18.281250 25.765625 C18.250000 25.953126 18.166667 26.062500 18.031250 26.093750 C17.895833 26.125000 17.765626 26.078126 17.640625 25.953125 Z M4.859375 14.390625 C4.536457 14.161457 4.361979 13.828127 4.335938 13.390625 C4.309896 12.953123 4.421874 12.593751 4.671875 12.312500 C4.786459 12.187499 4.958332 12.078125 5.187500 11.984375 C5.416668 11.890625 5.614582 11.869791 5.781250 11.921875 C5.927084 11.963542 6.067708 12.075520 6.203125 12.257812 C6.338542 12.440105 6.276043 12.562500 6.015625 12.625000 C5.973958 12.635417 5.901042 12.640625 5.796875 12.640625 C5.703125 12.640625 5.609375 12.651042 5.515625 12.671875 C5.421875 12.692708 5.354167 12.750000 5.312500 12.843750 C5.312500 12.833333 5.328125 12.859375 5.359375 12.921875 C5.494792 12.963542 5.614583 13.057291 5.718750 13.203125 C5.822917 13.348959 5.796876 13.479166 5.640625 13.593750 C5.567708 13.645834 5.442709 13.640625 5.265625 13.578125 C5.171875 13.546875 5.083334 13.536458 5.000000 13.546875 C4.916666 13.557292 4.875000 13.619791 4.875000 13.734375 C4.895833 13.786459 4.937500 13.835937 5.000000 13.882812 C5.062500 13.929688 5.114583 13.989583 5.156250 14.062500 C5.208334 14.156250 5.200521 14.244791 5.132812 14.328125 C5.065104 14.411459 4.973959 14.432292 4.859375 14.390625 Z M13.421875 21.234375 C13.359375 21.244792 13.296875 21.242188 13.234375 21.226562 C13.171875 21.210937 13.109375 21.203125 13.046875 21.203125 C13.015625 21.203125 12.958334 21.192708 12.875000 21.171875 C12.812500 21.151042 12.752604 21.145833 12.695312 21.156250 C12.638021 21.166667 12.578125 21.171875 12.515625 21.171875 C12.359374 21.171875 12.208334 21.164063 12.062500 21.148438 C11.916666 21.132812 11.786459 21.067709 11.671875 20.953125 C11.619791 20.890625 11.588542 20.804688 11.578125 20.695312 C11.567708 20.585937 11.604166 20.510417 11.687500 20.468750 C11.770834 20.447917 11.861979 20.450521 11.960938 20.476562 C12.059896 20.502604 12.151041 20.531250 12.234375 20.562500 C12.348959 20.604167 12.463541 20.635417 12.578125 20.656250 C12.692709 20.677083 12.802083 20.651042 12.906250 20.578125 C12.947917 20.546875 12.981771 20.518229 13.007812 20.492188 C13.033854 20.466146 13.067708 20.442708 13.109375 20.421875 C13.286459 20.317708 13.526040 20.291666 13.828125 20.343750 L13.828125 20.250000 C13.828125 20.156250 13.838542 20.054688 13.859375 19.945312 C13.880208 19.835937 13.958333 19.812500 14.093750 19.875000 C14.208334 19.927084 14.255208 20.052082 14.234375 20.250000 C14.223958 20.343750 14.239583 20.437500 14.281250 20.531250 C14.312500 20.593750 14.348958 20.640625 14.390625 20.671875 C14.494792 20.734375 14.536458 20.822916 14.515625 20.937500 C14.494792 21.041667 14.434896 21.096354 14.335938 21.101562 C14.236979 21.106771 14.135417 21.109375 14.031250 21.109375 L13.875000 21.109375 C13.802083 21.109375 13.729167 21.127604 13.656250 21.164062 C13.583333 21.200521 13.505209 21.223958 13.421875 21.234375 Z M9.125000 15.953125 C8.979166 15.942708 8.859375 15.817710 8.765625 15.578125 C8.651041 15.317707 8.500001 15.203125 8.312500 15.234375 C8.218750 15.244792 8.135417 15.286458 8.062500 15.359375 C8.020833 15.401042 7.973959 15.429687 7.921875 15.445312 C7.869791 15.460938 7.786459 15.442709 7.671875 15.390625 C7.588541 15.348958 7.520834 15.328125 7.468750 15.328125 C7.427083 15.328125 7.395833 15.333333 7.375000 15.343750 C7.270833 15.395834 7.138022 15.419271 6.976562 15.414062 C6.815103 15.408854 6.697917 15.338542 6.625000 15.203125 C6.583333 15.015624 6.656249 14.875000 6.843750 14.781250 C7.031251 14.687500 7.203124 14.666666 7.359375 14.718750 C7.432292 14.739583 7.502604 14.776041 7.570312 14.828125 C7.638021 14.880209 7.708333 14.916667 7.781250 14.937500 C7.989584 14.979167 8.109375 14.932292 8.140625 14.796875 C8.151042 14.755208 8.151042 14.721354 8.140625 14.695312 C8.130208 14.669271 8.125000 14.645833 8.125000 14.625000 C8.125000 14.593750 8.114583 14.567708 8.093750 14.546875 C7.989583 14.442708 8.015624 14.328126 8.171875 14.203125 C8.328126 14.078124 8.473958 14.041666 8.609375 14.093750 C8.723959 14.135417 8.822916 14.200520 8.906250 14.289062 C8.989584 14.377605 9.083333 14.447916 9.187500 14.500000 C9.552085 14.645834 9.677084 14.953123 9.562500 15.421875 C9.552083 15.546876 9.513021 15.669270 9.445312 15.789062 C9.377604 15.908855 9.270834 15.963542 9.125000 15.953125 Z M12.984375 19.859375 C12.848958 19.838542 12.744792 19.763021 12.671875 19.632812 C12.598958 19.502604 12.562500 19.369792 12.562500 19.234375 C12.562500 19.213542 12.578125 19.156250 12.609375 19.062500 C12.671875 18.906249 12.671875 18.781250 12.609375 18.687500 C12.557291 18.604166 12.481771 18.559896 12.382812 18.554688 C12.283854 18.549479 12.187500 18.546875 12.093750 18.546875 C12.083333 18.546875 12.065104 18.552083 12.039062 18.562500 C12.013021 18.572917 11.989583 18.578125 11.968750 18.578125 C11.666665 18.578125 11.549479 18.466147 11.617188 18.242188 C11.684896 18.018228 11.833332 17.895833 12.062500 17.875000 C12.281251 17.854167 12.442708 17.791667 12.546875 17.687500 C12.567708 17.666667 12.585937 17.638021 12.601562 17.601562 C12.617188 17.565104 12.645833 17.541667 12.687500 17.531250 C12.770834 17.489583 12.859375 17.515625 12.953125 17.609375 C13.015625 17.703125 13.054687 17.804687 13.070312 17.914062 C13.085938 18.023438 13.093750 18.135416 13.093750 18.250000 C13.093750 18.343750 13.104167 18.434895 13.125000 18.523438 C13.145833 18.611980 13.156250 18.697916 13.156250 18.781250 C13.156250 18.791667 13.158854 18.799479 13.164062 18.804688 C13.169271 18.809896 13.171875 18.817708 13.171875 18.828125 C13.171875 18.869792 13.187500 18.908854 13.218750 18.945312 C13.250000 18.981771 13.255208 19.020833 13.234375 19.062500 C13.223958 19.083333 13.208333 19.109375 13.187500 19.140625 C13.166667 19.171875 13.145833 19.197917 13.125000 19.218750 C13.052083 19.312500 13.020833 19.375000 13.031250 19.406250 C13.041667 19.447917 13.057292 19.479167 13.078125 19.500000 C13.098958 19.520833 13.114583 19.546875 13.125000 19.578125 C13.145833 19.609375 13.169271 19.635417 13.195312 19.656250 C13.221354 19.677083 13.234375 19.708333 13.234375 19.750000 C13.234375 19.802084 13.205729 19.835937 13.148438 19.851562 C13.091146 19.867188 13.036459 19.869792 12.984375 19.859375 Z M16.156250 23.062500 C15.989583 23.041667 15.804689 22.908855 15.601562 22.664062 C15.398436 22.419270 15.270834 22.213542 15.218750 22.046875 C15.145833 21.807290 15.164062 21.570314 15.273438 21.335938 C15.382813 21.101561 15.598957 21.026041 15.921875 21.109375 C15.963542 21.119792 16.010416 21.161458 16.062500 21.234375 C16.083333 21.276042 16.085938 21.315104 16.070312 21.351562 C16.054687 21.388021 16.036458 21.432291 16.015625 21.484375 C16.005208 21.526042 15.989583 21.565104 15.968750 21.601562 C15.947917 21.638021 15.953125 21.682291 15.984375 21.734375 C16.005208 21.765625 16.039062 21.789062 16.085938 21.804688 C16.132813 21.820313 16.166667 21.848958 16.187500 21.890625 C16.239584 21.953125 16.250000 22.010416 16.218750 22.062500 C16.187500 22.114584 16.151042 22.166666 16.109375 22.218750 C16.046875 22.302084 16.015625 22.364583 16.015625 22.406250 C16.015625 22.541667 16.041666 22.645833 16.093750 22.718750 C16.177084 22.843751 16.197917 22.958333 16.156250 23.062500 Z M3.875000 11.359375 L3.875000 10.671875 C4.010417 10.682292 4.130208 10.593751 4.234375 10.406250 C4.317709 10.260416 4.455728 10.148438 4.648438 10.070312 C4.841147 9.992187 4.994791 10.041666 5.109375 10.218750 C5.161459 10.291667 5.174479 10.377604 5.148438 10.476562 C5.122396 10.575521 5.057292 10.635417 4.953125 10.656250 C4.921875 10.666667 4.885417 10.669271 4.843750 10.664062 C4.802083 10.658854 4.760417 10.666667 4.718750 10.687500 C4.635416 10.718750 4.580729 10.778645 4.554688 10.867188 C4.528646 10.955730 4.505208 11.041666 4.484375 11.125000 C4.401041 11.572919 4.197918 11.651043 3.875000 11.359375 Z M21.328125 26.875000 C21.276041 26.979167 21.197917 27.018229 21.093750 26.992188 C20.989583 26.966146 20.927083 26.890626 20.906250 26.765625 C20.885417 26.692708 20.885417 26.625000 20.906250 26.562500 C20.916667 26.510416 20.921875 26.447917 20.921875 26.375000 C20.786458 26.229166 20.640626 26.276040 20.484375 26.515625 C20.390625 26.651042 20.296875 26.723958 20.203125 26.734375 C20.026041 26.755208 19.927083 26.661459 19.906250 26.453125 C19.885417 26.255207 19.921875 26.109375 20.015625 26.015625 C20.046875 25.984375 20.046875 25.953125 20.015625 25.921875 C19.911458 25.807291 19.815105 25.778646 19.726562 25.835938 C19.638020 25.893229 19.557292 25.958333 19.484375 26.031250 C19.411458 26.104167 19.354167 26.151042 19.312500 26.171875 C19.072915 26.286459 18.950521 26.234376 18.945312 26.015625 C18.940104 25.796874 18.979166 25.619792 19.062500 25.484375 C19.166667 25.338541 19.333332 25.236979 19.562500 25.179688 C19.791668 25.122396 19.994791 25.109375 20.171875 25.140625 C20.557294 25.213542 20.874999 25.427082 21.125000 25.781250 C21.375001 26.135418 21.442709 26.499998 21.328125 26.875000 Z M18.218750 24.421875 C18.114583 24.338541 18.026042 24.234376 17.953125 24.109375 C17.880208 23.984374 17.776042 23.895834 17.640625 23.843750 C17.588541 23.822917 17.500001 23.802083 17.375000 23.781250 C17.333333 23.770833 17.286459 23.765625 17.234375 23.765625 C17.182291 23.765625 17.130209 23.755208 17.078125 23.734375 C16.921874 23.661458 16.854167 23.515626 16.875000 23.296875 C16.885417 23.161458 16.973958 23.057292 17.140625 22.984375 C17.182292 22.963542 17.187500 22.953125 17.156250 22.953125 C17.197917 22.953125 17.226562 22.927084 17.242188 22.875000 C17.257813 22.822916 17.239584 22.760417 17.187500 22.687500 C17.145833 22.625000 17.130208 22.598958 17.140625 22.609375 C17.078125 22.546875 17.036458 22.494792 17.015625 22.453125 C16.994792 22.411458 17.046874 22.364584 17.171875 22.312500 C17.286459 22.260416 17.395833 22.307291 17.500000 22.453125 C17.541667 22.515625 17.570312 22.575521 17.585938 22.632812 C17.601563 22.690104 17.635416 22.744791 17.687500 22.796875 C17.770834 22.869792 17.864583 22.914062 17.968750 22.929688 C18.072917 22.945313 18.161458 22.989583 18.234375 23.062500 C18.328125 23.135417 18.364583 23.218750 18.343750 23.312500 C18.322917 23.406250 18.302083 23.500000 18.281250 23.593750 C18.270833 23.656250 18.255208 23.721354 18.234375 23.789062 C18.213542 23.856771 18.208333 23.921875 18.218750 23.984375 C18.229167 23.994792 18.236979 24.005208 18.242188 24.015625 C18.247396 24.026042 18.255208 24.041667 18.265625 24.062500 C18.317709 24.104167 18.346354 24.171875 18.351562 24.265625 C18.356771 24.359375 18.312500 24.411458 18.218750 24.421875 Z M11.000000 17.828125 C10.843749 17.901042 10.718750 17.859376 10.625000 17.703125 C10.552083 17.578124 10.526042 17.463542 10.546875 17.359375 C10.567708 17.255208 10.609375 17.145834 10.671875 17.031250 C10.796876 16.791665 10.843750 16.598959 10.812500 16.453125 C10.802083 16.390625 10.773438 16.312500 10.726562 16.218750 C10.679687 16.125000 10.635417 16.041667 10.593750 15.968750 C10.583333 15.947917 10.546875 15.906250 10.484375 15.843750 C10.432291 15.791666 10.388021 15.739584 10.351562 15.687500 C10.315104 15.635416 10.338541 15.583334 10.421875 15.531250 C10.630209 15.395833 10.843749 15.416666 11.062500 15.593750 C11.281251 15.770834 11.390625 15.968749 11.390625 16.187500 L11.390625 16.250000 C11.390625 16.333334 11.401042 16.421875 11.421875 16.515625 C11.442708 16.609375 11.505208 16.687500 11.609375 16.750000 C11.630208 16.760417 11.651042 16.763021 11.671875 16.757812 C11.692708 16.752604 11.708333 16.750000 11.718750 16.750000 C11.770834 16.750000 11.807292 16.755208 11.828125 16.765625 C11.994792 16.848959 12.041667 16.963541 11.968750 17.109375 C11.895833 17.244792 11.781251 17.330729 11.625000 17.367188 C11.468749 17.403646 11.343750 17.468750 11.250000 17.562500 C11.208333 17.604167 11.169271 17.653646 11.132812 17.710938 C11.096354 17.768229 11.052084 17.807292 11.000000 17.828125 Z M7.953125 13.312500 C7.807291 13.500001 7.630209 13.604167 7.421875 13.625000 C7.213541 13.645833 7.054688 13.588542 6.945312 13.453125 C6.835937 13.317708 6.848958 13.125001 6.984375 12.875000 C7.067709 12.729166 7.171874 12.596355 7.296875 12.476562 C7.421876 12.356770 7.552083 12.255209 7.687500 12.171875 C7.895834 12.036458 8.057291 12.018229 8.171875 12.117188 C8.286459 12.216146 8.312500 12.385415 8.250000 12.625000 C8.218750 12.739584 8.182292 12.856770 8.140625 12.976562 C8.098958 13.096355 8.036459 13.208333 7.953125 13.312500 Z M22.578125 27.562500 C22.453124 27.447916 22.359375 27.322917 22.296875 27.187500 C22.234375 27.052083 22.265624 26.921876 22.390625 26.796875 C22.453125 26.734375 22.507812 26.700521 22.554688 26.695312 C22.601563 26.690104 22.661458 26.687500 22.734375 26.687500 C22.755208 26.687500 22.789062 26.690104 22.835938 26.695312 C22.882813 26.700521 22.937500 26.697917 23.000000 26.687500 Z M6.953125 11.796875 C6.786458 11.838542 6.630209 11.770834 6.484375 11.593750 C6.338541 11.416666 6.265625 11.260417 6.265625 11.125000 C6.265625 10.916666 6.354166 10.778646 6.531250 10.710938 C6.708334 10.643229 6.864583 10.692708 7.000000 10.859375 C7.114584 10.984376 7.177083 11.151041 7.187500 11.359375 C7.197917 11.567709 7.119792 11.713541 6.953125 11.796875 Z M25.750000 31.109375 C25.239581 31.015625 24.731773 30.833335 24.226562 30.562500 C23.721352 30.291665 23.304689 29.875003 22.976562 29.312500 C22.648436 28.749997 22.484375 27.989588 22.484375 27.031250 L24.046875 25.843750 C24.046875 26.822922 24.143228 27.562498 24.335938 28.062500 C24.528647 28.562502 24.791665 28.906249 25.125000 29.093750 C25.458335 29.281251 25.822915 29.401041 26.218750 29.453125 Z M17.218750 21.531250 C17.145833 21.531250 17.062500 21.526042 16.968750 21.515625 C16.875000 21.505208 16.802084 21.463542 16.750000 21.390625 C16.614583 21.192707 16.661457 21.028646 16.890625 20.898438 C17.119793 20.768229 17.312499 20.750000 17.468750 20.843750 C17.656251 20.958334 17.739583 21.104166 17.718750 21.281250 C17.708333 21.395834 17.651042 21.466146 17.546875 21.492188 C17.442708 21.518229 17.333334 21.531250 17.218750 21.531250 Z M2.671875 31.250000 L23.843750 31.250000 C25.031256 31.250000 25.625000 30.661464 25.625000 29.484375 L25.625000 3.656250 C25.395832 3.604166 25.140626 3.513021 24.859375 3.382812 C24.578124 3.252604 24.307293 3.109376 24.046875 2.953125 C24.057292 3.015625 24.062500 3.080729 24.062500 3.148438 C24.062500 3.216146 24.062500 3.286458 24.062500 3.359375 L24.062500 25.703125 C24.062500 26.859381 23.765628 27.708331 23.171875 28.250000 C22.578122 28.791669 21.760422 29.062500 20.718750 29.062500 L2.671875 29.062500 C2.369790 29.062500 2.111980 29.169270 1.898438 29.382812 C1.684895 29.596355 1.578125 29.854165 1.578125 30.156250 C1.578125 30.458335 1.684895 30.716145 1.898438 30.929688 C2.111980 31.143230 2.369790 31.250000 2.671875 31.250000 Z M6.156250 10.468750 C6.072916 10.510417 6.018229 10.492188 5.992188 10.414062 C5.966146 10.335937 5.932292 10.270834 5.890625 10.218750 C5.880208 10.197917 5.875000 10.179688 5.875000 10.164062 C5.875000 10.148437 5.869792 10.135417 5.859375 10.125000 C5.828125 10.062500 5.786459 10.013021 5.734375 9.976562 C5.682291 9.940104 5.630209 9.901042 5.578125 9.859375 C5.484375 9.786458 5.406250 9.718750 5.343750 9.656250 C5.281250 9.593750 5.255208 9.510417 5.265625 9.406250 C5.296875 9.302083 5.348958 9.213542 5.421875 9.140625 C5.494792 9.067708 5.531250 8.979167 5.531250 8.875000 C5.531250 8.770833 5.526042 8.697917 5.515625 8.656250 C5.494792 8.572916 5.484375 8.515625 5.484375 8.484375 C5.484375 8.296874 5.536458 8.192708 5.640625 8.171875 C5.765626 8.140625 5.828125 8.187499 5.828125 8.312500 C5.828125 8.385417 5.838542 8.437500 5.859375 8.468750 C5.921875 8.531250 5.984375 8.567708 6.046875 8.578125 C6.234376 8.619792 6.385416 8.682291 6.500000 8.765625 C6.656251 8.869792 6.692709 9.031249 6.609375 9.250000 C6.578125 9.333334 6.518230 9.401041 6.429688 9.453125 C6.341145 9.505209 6.276042 9.578125 6.234375 9.671875 C6.171875 9.796876 6.151042 9.942708 6.171875 10.109375 C6.192708 10.255209 6.187500 10.375000 6.156250 10.468750 Z M11.171875 14.421875 C11.057291 14.526042 10.906251 14.562500 10.718750 14.531250 C10.531249 14.500000 10.416667 14.390626 10.375000 14.203125 C10.364583 14.161458 10.359375 14.125000 10.359375 14.093750 C10.359375 14.062500 10.354167 14.031250 10.343750 14.000000 C10.333333 13.947916 10.296875 13.908854 10.234375 13.882812 C10.171875 13.856771 10.125000 13.828125 10.093750 13.796875 C10.052083 13.744791 10.020833 13.684896 10.000000 13.617188 C9.979167 13.549479 9.994791 13.505208 10.046875 13.484375 C10.067708 13.473958 10.072917 13.463542 10.062500 13.453125 C10.052083 13.442708 10.052083 13.437500 10.062500 13.437500 C10.135417 13.437500 10.145834 13.385417 10.093750 13.281250 C10.083333 13.250000 10.057292 13.231771 10.015625 13.226562 C9.973958 13.221354 9.937500 13.213542 9.906250 13.203125 C9.854166 13.171875 9.835937 13.122396 9.851562 13.054688 C9.867188 12.986979 9.895833 12.942708 9.937500 12.921875 C10.104168 12.869791 10.270833 12.919270 10.437500 13.070312 C10.604168 13.221355 10.692708 13.374999 10.703125 13.531250 L10.703125 13.546875 C10.703125 13.588542 10.713542 13.630208 10.734375 13.671875 C10.744792 13.692708 10.807291 13.703125 10.921875 13.703125 C10.932292 13.703125 10.940104 13.700521 10.945312 13.695312 C10.950521 13.690104 10.958333 13.687500 10.968750 13.687500 C11.177084 13.687500 11.291667 13.783853 11.312500 13.976562 C11.333333 14.169272 11.286459 14.317708 11.171875 14.421875 Z M20.531250 24.015625 C20.447916 24.067709 20.367188 24.072917 20.289062 24.031250 C20.210937 23.989583 20.130209 23.932292 20.046875 23.859375 C19.973958 23.796875 19.901042 23.742188 19.828125 23.695312 C19.755208 23.648437 19.677084 23.635417 19.593750 23.656250 C19.552083 23.666667 19.515625 23.687500 19.484375 23.718750 C19.453125 23.750000 19.411459 23.770833 19.359375 23.781250 C19.140624 23.822917 19.020833 23.734376 19.000000 23.515625 C18.989583 23.317707 19.078124 23.190104 19.265625 23.132812 C19.453126 23.075521 19.624999 23.083333 19.781250 23.156250 C19.989584 23.250000 20.151041 23.242188 20.265625 23.132812 C20.380209 23.023437 20.411459 22.864584 20.359375 22.656250 C20.244791 22.218748 20.000002 22.119790 19.625000 22.359375 C19.406249 22.463542 19.197918 22.447917 19.000000 22.312500 C18.802082 22.177083 18.697917 22.020834 18.687500 21.843750 C18.677083 21.666666 18.838540 21.578125 19.171875 21.578125 C19.380209 21.578125 19.575520 21.617187 19.757812 21.695312 C19.940105 21.773438 20.130207 21.828125 20.328125 21.859375 C20.380209 21.869792 20.429687 21.861979 20.476562 21.835938 C20.523438 21.809896 20.578125 21.786458 20.640625 21.765625 C20.786459 21.713541 20.911458 21.684896 21.015625 21.679688 C21.119792 21.674479 21.171875 21.776041 21.171875 21.984375 C21.171875 22.005208 21.169271 22.031250 21.164062 22.062500 C21.158854 22.093750 21.156250 22.125000 21.156250 22.156250 C21.156250 22.197917 21.148438 22.239583 21.132812 22.281250 C21.117187 22.322917 21.109375 22.369791 21.109375 22.421875 C21.109375 22.463542 21.127604 22.515625 21.164062 22.578125 C21.200521 22.640625 21.229167 22.697916 21.250000 22.750000 C21.291667 22.843750 21.333333 22.924479 21.375000 22.992188 C21.416667 23.059896 21.411459 23.130208 21.359375 23.203125 C21.286458 23.307292 21.179688 23.375000 21.039062 23.406250 C20.898437 23.437500 20.791667 23.500000 20.718750 23.593750 C20.677083 23.656250 20.651042 23.729166 20.640625 23.812500 C20.630208 23.895834 20.593750 23.963541 20.531250 24.015625 Z M14.390625 18.812500 C14.255208 18.729166 14.156250 18.619792 14.093750 18.484375 C14.031250 18.348958 14.052083 18.213542 14.156250 18.078125 C14.156250 18.078125 14.158854 18.075521 14.164062 18.070312 C14.169271 18.065104 14.171875 18.057292 14.171875 18.046875 C14.171875 17.869791 14.221354 17.736980 14.320312 17.648438 C14.419271 17.559895 14.328126 17.526042 14.046875 17.546875 C13.880208 17.515625 13.786458 17.416668 13.765625 17.250000 C13.744792 17.083332 13.718750 16.932292 13.687500 16.796875 C13.583333 16.609374 13.575520 16.453126 13.664062 16.328125 C13.752605 16.203124 13.906249 16.151042 14.125000 16.171875 L14.312500 16.171875 C14.489584 16.171875 14.604166 16.182292 14.656250 16.203125 C14.739584 16.234375 14.773438 16.291666 14.757812 16.375000 C14.742187 16.458334 14.692709 16.510417 14.609375 16.531250 C14.494791 16.562500 14.408854 16.643229 14.351562 16.773438 C14.294271 16.903646 14.286458 17.026041 14.328125 17.140625 C14.359375 17.234375 14.414062 17.276042 14.492188 17.265625 C14.570313 17.255208 14.635416 17.223959 14.687500 17.171875 C14.750000 17.046874 14.812500 16.973958 14.875000 16.953125 C15.010417 16.901041 15.151041 16.981770 15.296875 17.195312 C15.442709 17.408855 15.458334 17.562500 15.343750 17.656250 C15.302083 17.687500 15.257813 17.710937 15.210938 17.726562 C15.164062 17.742188 15.114584 17.760417 15.062500 17.781250 C14.906249 17.833334 14.828125 17.947916 14.828125 18.125000 L14.828125 18.343750 C14.828125 18.395834 14.833333 18.447916 14.843750 18.500000 C14.854167 18.552084 14.848958 18.604166 14.828125 18.656250 C14.807292 18.729167 14.750000 18.783854 14.656250 18.820312 C14.562500 18.856771 14.473959 18.854167 14.390625 18.812500 Z M16.531250 20.156250 C16.468750 20.135417 16.414063 20.091146 16.367188 20.023438 C16.320312 19.955729 16.265625 19.901042 16.203125 19.859375 C15.994791 19.723958 15.781251 19.734374 15.562500 19.890625 C15.406249 20.057293 15.236980 20.088542 15.054688 19.984375 C14.872395 19.880208 14.812500 19.723959 14.875000 19.515625 C14.927084 19.359374 15.007812 19.270833 15.117188 19.250000 C15.226563 19.229167 15.333333 19.223958 15.437500 19.234375 C15.552084 19.244792 15.653645 19.239583 15.742188 19.218750 C15.830730 19.197917 15.875000 19.109376 15.875000 18.953125 C15.875000 18.890625 15.869792 18.817709 15.859375 18.734375 C15.848958 18.651041 15.833333 18.567709 15.812500 18.484375 C15.770833 18.223957 15.750000 17.971355 15.750000 17.726562 C15.750000 17.481770 15.890624 17.333334 16.171875 17.281250 C16.390626 17.239583 16.531250 17.322916 16.593750 17.531250 C16.614583 17.604167 16.604167 17.723958 16.562500 17.890625 C16.552083 17.932292 16.536458 17.976562 16.515625 18.023438 C16.494792 18.070313 16.489583 18.119791 16.500000 18.171875 C16.510417 18.234375 16.531250 18.294271 16.562500 18.351562 C16.593750 18.408854 16.630208 18.468750 16.671875 18.531250 C16.713542 18.604167 16.752604 18.674479 16.789062 18.742188 C16.825521 18.809896 16.838542 18.885416 16.828125 18.968750 C16.817708 19.031250 16.791667 19.091146 16.750000 19.148438 C16.708333 19.205729 16.682292 19.270833 16.671875 19.343750 C16.661458 19.395834 16.671875 19.445312 16.703125 19.492188 C16.734375 19.539063 16.760417 19.588541 16.781250 19.640625 C16.802083 19.682292 16.828125 19.726562 16.859375 19.773438 C16.890625 19.820313 16.906250 19.869791 16.906250 19.921875 C16.906250 20.015625 16.864584 20.085937 16.781250 20.132812 C16.697916 20.179688 16.614584 20.187500 16.531250 20.156250 Z M4.203125 7.781250 C4.078124 7.635416 4.057291 7.473959 4.140625 7.296875 C4.223959 7.140624 4.390624 7.041667 4.640625 7.000000 C4.890626 6.958333 5.026042 7.057290 5.046875 7.296875 C5.057292 7.380209 5.026042 7.453125 4.953125 7.515625 C4.880208 7.578125 4.812500 7.640625 4.750000 7.703125 L4.734375 7.718750 C4.640625 7.781250 4.549480 7.830729 4.460938 7.867188 C4.372395 7.903646 4.286459 7.875000 4.203125 7.781250 Z M23.046875 25.468750 C22.932291 25.510417 22.833334 25.507813 22.750000 25.460938 C22.666666 25.414062 22.572917 25.359375 22.468750 25.296875 C22.427083 25.276042 22.388021 25.247396 22.351562 25.210938 C22.315104 25.174479 22.276042 25.151042 22.234375 25.140625 C22.182291 25.119792 22.132813 25.106771 22.085938 25.101562 C22.039062 25.096354 21.989584 25.083333 21.937500 25.062500 C21.802083 24.989583 21.731771 24.906250 21.726562 24.812500 C21.721354 24.718750 21.786458 24.640625 21.921875 24.578125 C21.973959 24.557292 22.031250 24.531250 22.093750 24.500000 C22.156250 24.468750 22.203125 24.432292 22.234375 24.390625 C22.296875 24.296875 22.333333 24.190105 22.343750 24.070312 C22.354167 23.950520 22.401041 23.869792 22.484375 23.828125 C22.567709 23.786458 22.671874 23.770833 22.796875 23.781250 C22.921876 23.791667 23.010416 23.838541 23.062500 23.921875 Z M7.734375 10.265625 C7.598958 10.213541 7.476563 10.070314 7.367188 9.835938 C7.257812 9.601561 7.333332 9.484375 7.593750 9.484375 C7.697917 9.494792 7.786458 9.531250 7.859375 9.593750 C7.932292 9.656250 8.000000 9.723958 8.062500 9.796875 C8.177084 9.932292 8.195313 10.065104 8.117188 10.195312 C8.039062 10.325521 7.911459 10.348959 7.734375 10.265625 Z M19.453125 20.906250 C19.244791 21.020834 19.026043 21.000001 18.796875 20.843750 C18.567707 20.687499 18.427084 20.500001 18.375000 20.281250 C18.364583 20.208333 18.348958 20.130209 18.328125 20.046875 C18.307292 19.963541 18.265625 19.906250 18.203125 19.875000 C18.171875 19.854167 18.140625 19.843750 18.109375 19.843750 C18.078125 19.843750 18.052083 19.838542 18.031250 19.828125 C18.020833 19.817708 18.002604 19.815104 17.976562 19.820312 C17.950521 19.825521 17.927083 19.828125 17.906250 19.828125 C17.739582 19.828125 17.638021 19.716147 17.601562 19.492188 C17.565104 19.268228 17.624999 19.125000 17.781250 19.062500 C17.958334 18.989583 18.093750 19.033853 18.187500 19.195312 C18.281250 19.356772 18.343750 19.489583 18.375000 19.593750 C18.385417 19.614583 18.395833 19.632812 18.406250 19.648438 C18.416667 19.664063 18.421875 19.671875 18.421875 19.671875 C18.536459 19.661458 18.651041 19.661458 18.765625 19.671875 C18.880209 19.682292 18.979166 19.729166 19.062500 19.812500 C19.145834 19.885417 19.197917 19.973958 19.218750 20.078125 C19.239583 20.182292 19.286458 20.276041 19.359375 20.359375 C19.401042 20.401042 19.440104 20.434896 19.476562 20.460938 C19.513021 20.486979 19.541667 20.526041 19.562500 20.578125 C19.635417 20.713542 19.598959 20.822916 19.453125 20.906250 Z M12.968750 15.796875 C12.885416 15.828125 12.791667 15.833333 12.687500 15.812500 C12.583333 15.791667 12.526042 15.729167 12.515625 15.625000 C12.515625 15.531250 12.552083 15.458334 12.625000 15.406250 C12.697917 15.354166 12.744792 15.291667 12.765625 15.218750 C12.828125 15.072916 12.828125 14.932292 12.765625 14.796875 C12.755208 14.755208 12.750000 14.718750 12.750000 14.687500 C12.750000 14.656250 12.750000 14.619792 12.750000 14.578125 C12.750000 14.473958 12.729167 14.395834 12.687500 14.343750 C12.666667 14.302083 12.632813 14.268229 12.585938 14.242188 C12.539062 14.216146 12.494792 14.182292 12.453125 14.140625 C12.411458 14.088541 12.406250 14.028646 12.437500 13.960938 C12.468750 13.893229 12.510416 13.848958 12.562500 13.828125 C12.656250 13.786458 12.731771 13.789062 12.789062 13.835938 C12.846354 13.882813 12.901041 13.942708 12.953125 14.015625 C12.994792 14.057292 13.033854 14.104166 13.070312 14.156250 C13.106771 14.208334 13.145833 14.229167 13.187500 14.218750 C13.250000 14.208333 13.296875 14.166667 13.328125 14.093750 C13.359375 14.020833 13.395833 13.968750 13.437500 13.937500 C13.583334 13.843750 13.692708 13.796875 13.765625 13.796875 C13.963543 13.786458 14.138020 13.872395 14.289062 14.054688 C14.440105 14.236980 14.442709 14.406249 14.296875 14.562500 C14.244791 14.625000 14.195313 14.679687 14.148438 14.726562 C14.101562 14.773438 14.078125 14.833333 14.078125 14.906250 C14.078125 14.968750 14.083333 15.015625 14.093750 15.046875 C14.125000 15.130209 14.135417 15.187500 14.125000 15.218750 C14.083333 15.364584 13.994792 15.390625 13.859375 15.296875 C13.786458 15.265625 13.739583 15.208334 13.718750 15.125000 C13.697917 15.041666 13.656250 14.979167 13.593750 14.937500 C13.500000 14.927083 13.442708 14.960937 13.421875 15.039062 C13.401042 15.117188 13.375000 15.197916 13.343750 15.281250 C13.322917 15.333334 13.309896 15.385416 13.304688 15.437500 C13.299479 15.489584 13.286458 15.531250 13.265625 15.562500 C13.182291 15.677084 13.083334 15.755208 12.968750 15.796875 Z M11.546875 13.000000 C11.421874 12.947916 11.328125 12.846355 11.265625 12.695312 C11.203125 12.544270 11.218750 12.416667 11.312500 12.312500 C11.375000 12.260416 11.471354 12.270833 11.601562 12.343750 C11.731771 12.416667 11.817708 12.479166 11.859375 12.531250 C11.963542 12.666667 11.979167 12.796874 11.906250 12.921875 C11.833333 13.046876 11.713542 13.072917 11.546875 13.000000 Z M6.546875 8.265625 C6.442708 8.213541 6.393229 8.111980 6.398438 7.960938 C6.403646 7.809895 6.348959 7.703125 6.234375 7.640625 C6.192708 7.619792 6.151042 7.601563 6.109375 7.585938 C6.067708 7.570312 6.020834 7.557292 5.968750 7.546875 C5.843749 7.515625 5.781250 7.447917 5.781250 7.343750 C5.781250 7.322917 5.791667 7.281250 5.812500 7.218750 C5.843750 7.166666 5.848958 7.130208 5.828125 7.109375 C5.755208 7.036458 5.684896 6.979167 5.617188 6.937500 C5.549479 6.895833 5.500000 6.833334 5.468750 6.750000 C5.458333 6.708333 5.473958 6.656250 5.515625 6.593750 C5.703126 6.312499 5.914061 6.234374 6.148438 6.359375 C6.382814 6.484376 6.552083 6.656249 6.656250 6.875000 C6.729167 7.031251 6.757813 7.270832 6.742188 7.593750 C6.726562 7.916668 6.661459 8.140624 6.546875 8.265625 Z M7.140625 7.984375 L7.171875 7.890625 C7.213542 7.692707 7.317708 7.565104 7.484375 7.507812 C7.651042 7.450521 7.802083 7.505208 7.937500 7.671875 C8.052084 7.880209 8.054688 8.059895 7.945312 8.210938 C7.835937 8.361980 7.695313 8.429688 7.523438 8.414062 C7.351562 8.398437 7.223959 8.255210 7.140625 7.984375 Z M4.218750 5.968750 C4.135416 5.854166 4.101562 5.718751 4.117188 5.562500 C4.132813 5.406249 4.052084 5.307292 3.875000 5.265625 L3.875000 3.656250 C3.989584 3.802084 4.088541 3.966145 4.171875 4.148438 C4.255209 4.330730 4.343750 4.473958 4.437500 4.578125 C4.541667 4.682292 4.632812 4.721354 4.710938 4.695312 C4.789063 4.669271 4.864583 4.619792 4.937500 4.546875 C5.031250 4.453125 5.122395 4.385417 5.210938 4.343750 C5.299480 4.302083 5.411458 4.328125 5.546875 4.421875 C5.734376 4.557292 5.791667 4.716145 5.718750 4.898438 C5.645833 5.080730 5.494793 5.156250 5.265625 5.125000 C4.994790 5.125000 4.812500 5.239582 4.718750 5.468750 C4.697917 5.520834 4.687500 5.583333 4.687500 5.656250 C4.687500 5.781251 4.677083 5.864583 4.656250 5.906250 C4.614583 5.989584 4.546875 6.039062 4.453125 6.054688 C4.359375 6.070313 4.281250 6.041667 4.218750 5.968750 Z M22.265625 22.468750 C22.140624 22.406250 22.052084 22.291668 22.000000 22.125000 C21.947916 21.958332 21.958333 21.807292 22.031250 21.671875 C22.093750 21.557291 22.192708 21.489583 22.328125 21.468750 C22.494792 21.447917 22.611979 21.505208 22.679688 21.640625 C22.747396 21.776042 22.786458 21.906249 22.796875 22.031250 C22.848959 22.187501 22.812501 22.317708 22.687500 22.421875 C22.562499 22.526042 22.421876 22.541667 22.265625 22.468750 Z M17.593750 17.765625 C17.416666 17.598957 17.390624 17.427084 17.515625 17.250000 C17.640626 17.072916 17.880207 17.007812 18.234375 17.054688 C18.588543 17.101563 18.843749 17.187499 19.000000 17.312500 C19.041667 17.333333 19.067708 17.369791 19.078125 17.421875 C19.088542 17.473959 19.067709 17.510417 19.015625 17.531250 C18.921875 17.593750 18.815105 17.625000 18.695312 17.625000 C18.575520 17.625000 18.458334 17.635417 18.343750 17.656250 C18.312500 17.666667 18.281250 17.682292 18.250000 17.703125 C18.218750 17.723958 18.187500 17.739583 18.156250 17.750000 C18.052083 17.770833 17.958334 17.799479 17.875000 17.835938 C17.791666 17.872396 17.697917 17.848959 17.593750 17.765625 Z M13.562500 13.156250 C13.406249 13.250000 13.281250 13.229167 13.187500 13.093750 C13.104166 12.979166 13.096354 12.859376 13.164062 12.734375 C13.231771 12.609374 13.312500 12.500000 13.406250 12.406250 C13.447917 12.364583 13.484375 12.322917 13.515625 12.281250 L14.328125 12.281250 C14.234375 12.385417 14.125001 12.471354 14.000000 12.539062 C13.874999 12.606771 13.786459 12.703124 13.734375 12.828125 C13.713542 12.890625 13.692708 12.953125 13.671875 13.015625 C13.651042 13.078125 13.614584 13.125000 13.562500 13.156250 Z M15.593750 14.265625 C15.520833 14.432292 15.419271 14.486979 15.289062 14.429688 C15.158854 14.372396 15.083333 14.270834 15.062500 14.125000 C15.031250 13.979166 15.013021 13.825522 15.007812 13.664062 C15.002604 13.502603 15.072916 13.369792 15.218750 13.265625 C15.291667 13.213541 15.382812 13.200521 15.492188 13.226562 C15.601563 13.252604 15.677083 13.307291 15.718750 13.390625 C15.760417 13.453125 15.773438 13.520833 15.757812 13.593750 C15.742187 13.666667 15.723958 13.744791 15.703125 13.828125 C15.682292 13.890625 15.671875 13.937500 15.671875 13.968750 C15.671875 14.020834 15.664063 14.072916 15.648438 14.125000 C15.632812 14.177084 15.614583 14.223958 15.593750 14.265625 Z M17.515625 16.515625 C17.067706 16.588542 16.820313 16.515626 16.773438 16.296875 C16.726562 16.078124 16.708333 15.880209 16.718750 15.703125 C16.729167 15.609375 16.729167 15.539063 16.718750 15.492188 C16.708333 15.445312 16.656250 15.458333 16.562500 15.531250 C16.458333 15.645834 16.309897 15.734375 16.117188 15.796875 C15.924478 15.859375 15.760417 15.807292 15.625000 15.640625 C15.458333 15.432291 15.494790 15.265626 15.734375 15.140625 C15.848959 15.088541 15.963541 15.059896 16.078125 15.054688 C16.192709 15.049479 16.302083 15.010417 16.406250 14.937500 C16.427083 14.916667 16.450521 14.895833 16.476562 14.875000 C16.502604 14.854167 16.531250 14.833333 16.562500 14.812500 C16.645834 14.750000 16.734375 14.692709 16.828125 14.640625 C16.921875 14.588541 17.046874 14.588541 17.203125 14.640625 C17.151041 14.432291 17.216145 14.286459 17.398438 14.203125 C17.580730 14.119791 17.723958 14.182291 17.828125 14.390625 C17.848958 14.442709 17.848958 14.497396 17.828125 14.554688 C17.807292 14.611979 17.786458 14.666666 17.765625 14.718750 L17.718750 14.875000 C17.687500 14.968750 17.671875 15.062500 17.671875 15.156250 C17.671875 15.250000 17.630209 15.322916 17.546875 15.375000 C17.494791 15.406250 17.411459 15.421875 17.296875 15.421875 C17.223958 15.421875 17.153646 15.427083 17.085938 15.437500 C17.018229 15.447917 16.968750 15.489583 16.937500 15.562500 C16.989584 15.729167 17.088541 15.825521 17.234375 15.851562 C17.380209 15.877604 17.533853 15.895833 17.695312 15.906250 C17.856772 15.916667 17.984375 15.979166 18.078125 16.093750 C18.130209 16.145834 18.153646 16.210937 18.148438 16.289062 C18.143229 16.367188 18.104167 16.421875 18.031250 16.453125 C17.947916 16.473958 17.861980 16.484375 17.773438 16.484375 C17.684895 16.484375 17.598959 16.494792 17.515625 16.515625 Z M4.796875 3.578125 C4.723958 3.526041 4.666667 3.460938 4.625000 3.382812 C4.583333 3.304687 4.536459 3.234375 4.484375 3.171875 C4.411458 3.088541 4.317709 3.044271 4.203125 3.039062 C4.088541 3.033854 3.979167 3.052083 3.875000 3.093750 L3.875000 2.281250 C4.177085 2.385417 4.304688 2.330730 4.257812 2.117188 C4.210937 1.903645 4.083334 1.786458 3.875000 1.765625 L3.875000 1.125000 C3.958334 1.072916 4.054687 1.044271 4.164062 1.039062 C4.273438 1.033854 4.354166 1.072916 4.406250 1.156250 C4.510417 1.385418 4.624999 1.604166 4.750000 1.812500 C4.812500 2.000001 4.802084 2.145833 4.718750 2.250000 C4.718750 2.250000 4.703125 2.265625 4.671875 2.296875 C4.630208 2.338542 4.578125 2.388021 4.515625 2.445312 C4.453125 2.502604 4.473958 2.557291 4.578125 2.609375 C4.692709 2.671875 4.825520 2.710937 4.976562 2.726562 C5.127605 2.742188 5.234375 2.822916 5.296875 2.968750 C5.338542 3.135417 5.315105 3.302083 5.226562 3.468750 C5.138020 3.635417 4.994793 3.671875 4.796875 3.578125 Z M22.031250 20.609375 C21.958333 20.619792 21.893229 20.606771 21.835938 20.570312 C21.778646 20.533854 21.713542 20.500000 21.640625 20.468750 C21.598958 20.447917 21.559896 20.421875 21.523438 20.390625 C21.486979 20.359375 21.442709 20.338542 21.390625 20.328125 C21.338541 20.317708 21.234376 20.312500 21.078125 20.312500 L20.968750 20.312500 C20.770832 20.312500 20.643229 20.244792 20.585938 20.109375 C20.528646 19.973958 20.572916 19.843751 20.718750 19.718750 C20.812500 19.604166 20.929687 19.531250 21.070312 19.500000 C21.210938 19.468750 21.333333 19.411459 21.437500 19.328125 C21.468750 19.265625 21.484375 19.166667 21.484375 19.031250 C21.484375 18.937500 21.489583 18.869792 21.500000 18.828125 C21.552084 18.609374 21.695311 18.515625 21.929688 18.546875 C22.164064 18.578125 22.380207 18.664062 22.578125 18.804688 C22.776043 18.945313 22.848959 19.078124 22.796875 19.203125 C22.744791 19.328126 22.669271 19.434895 22.570312 19.523438 C22.471354 19.611980 22.395834 19.713541 22.343750 19.828125 C22.302083 19.953126 22.278646 20.101562 22.273438 20.273438 C22.268229 20.445313 22.187501 20.557291 22.031250 20.609375 Z M6.515625 5.578125 C6.463541 5.536458 6.447917 5.447917 6.468750 5.312500 C6.479167 5.260416 6.473958 5.203125 6.453125 5.140625 C6.411458 5.026041 6.338542 4.906251 6.234375 4.781250 C6.109374 4.635416 6.083333 4.510417 6.156250 4.406250 C6.260417 4.260416 6.380208 4.244791 6.515625 4.359375 C6.567709 4.401042 6.598958 4.447916 6.609375 4.500000 C6.619792 4.552084 6.645833 4.593750 6.687500 4.625000 C6.802084 4.718750 6.914062 4.734375 7.023438 4.671875 C7.132813 4.609375 7.229166 4.536459 7.312500 4.453125 C7.322917 4.442708 7.330729 4.437500 7.335938 4.437500 C7.341146 4.437500 7.343750 4.437500 7.343750 4.437500 C7.447917 4.375000 7.565104 4.341146 7.695312 4.335938 C7.825521 4.330729 7.937500 4.291667 8.031250 4.218750 C8.104167 4.156250 8.166666 4.057292 8.218750 3.921875 C8.260417 3.817708 8.309896 3.729167 8.367188 3.656250 C8.424479 3.583333 8.515624 3.562500 8.640625 3.593750 C8.755209 3.625000 8.802083 3.718749 8.781250 3.875000 C8.750000 4.104168 8.640626 4.276041 8.453125 4.390625 C8.265624 4.505209 8.098959 4.635416 7.953125 4.781250 C7.890625 4.843750 7.828125 4.911458 7.765625 4.984375 C7.703125 5.057292 7.630209 5.119791 7.546875 5.171875 C7.484375 5.213542 7.414063 5.242187 7.335938 5.257812 C7.257812 5.273438 7.182292 5.302083 7.109375 5.343750 C7.067708 5.364583 7.023438 5.395833 6.976562 5.437500 C6.929687 5.479167 6.880209 5.526041 6.828125 5.578125 C6.723958 5.661459 6.619792 5.661459 6.515625 5.578125 Z M8.265625 6.609375 C8.151041 6.609375 8.093750 6.526042 8.093750 6.359375 C8.093750 6.244791 8.156249 6.125001 8.281250 6.000000 C8.333334 5.947916 8.375000 5.880209 8.406250 5.796875 C8.468750 5.609374 8.565104 5.437501 8.695312 5.281250 C8.825521 5.124999 8.994791 5.010417 9.203125 4.937500 C9.296875 4.906250 9.356771 4.895833 9.382812 4.906250 C9.408854 4.916667 9.421875 4.973958 9.421875 5.078125 C9.421875 5.119792 9.414063 5.156250 9.398438 5.187500 C9.382812 5.218750 9.364583 5.250000 9.343750 5.281250 C9.322917 5.322917 9.299479 5.367187 9.273438 5.414062 C9.247396 5.460938 9.239583 5.515625 9.250000 5.578125 L9.296875 5.750000 C9.317708 5.791667 9.335937 5.833333 9.351562 5.875000 C9.367188 5.916667 9.369792 5.963541 9.359375 6.015625 C9.328125 6.182292 9.231772 6.276042 9.070312 6.296875 C8.908853 6.317708 8.760417 6.354166 8.625000 6.406250 C8.604167 6.416667 8.585938 6.427083 8.570312 6.437500 C8.554687 6.447917 8.536458 6.458333 8.515625 6.468750 C8.473958 6.489583 8.434896 6.518229 8.398438 6.554688 C8.361979 6.591146 8.317709 6.609375 8.265625 6.609375 Z M20.281250 19.218750 C20.145833 19.229167 20.049479 19.177084 19.992188 19.062500 C19.934896 18.947916 19.911458 18.838542 19.921875 18.734375 C19.932292 18.651041 19.984375 18.562500 20.078125 18.468750 C20.192709 18.354166 20.250000 18.255209 20.250000 18.171875 C20.250000 18.067708 20.218750 17.963542 20.156250 17.859375 C20.093750 17.755208 20.052083 17.651042 20.031250 17.546875 C20.010417 17.359374 19.981771 17.197917 19.945312 17.062500 C19.908854 16.927083 19.833334 16.776042 19.718750 16.609375 C19.625000 16.484374 19.583333 16.325522 19.593750 16.132812 C19.604167 15.940103 19.713541 15.838542 19.921875 15.828125 C20.005209 15.838542 20.078125 15.872396 20.140625 15.929688 C20.203125 15.986979 20.276041 16.020833 20.359375 16.031250 C20.421875 16.041667 20.481771 16.031250 20.539062 16.000000 C20.596354 15.968750 20.656250 15.942708 20.718750 15.921875 C20.791667 15.901042 20.854166 15.872396 20.906250 15.835938 C20.958334 15.799479 21.015625 15.791667 21.078125 15.812500 C21.171875 15.833333 21.236979 15.895833 21.273438 16.000000 C21.309896 16.104167 21.302084 16.197916 21.250000 16.281250 C21.197916 16.364584 21.122396 16.414062 21.023438 16.429688 C20.924479 16.445313 20.828125 16.453125 20.734375 16.453125 C20.723958 16.453125 20.718750 16.447917 20.718750 16.437500 C20.718750 16.427083 20.718750 16.421875 20.718750 16.421875 C20.645833 16.401042 20.593750 16.401042 20.562500 16.421875 C20.520833 16.463542 20.502604 16.536458 20.507812 16.640625 C20.513021 16.744792 20.536458 16.812500 20.578125 16.843750 C20.661459 16.916667 20.791666 16.932292 20.968750 16.890625 C21.000000 16.880208 21.031250 16.869792 21.062500 16.859375 C21.093750 16.848958 21.125000 16.843750 21.156250 16.843750 C21.364584 16.843750 21.502604 16.940103 21.570312 17.132812 C21.638021 17.325522 21.567709 17.463541 21.359375 17.546875 C21.296875 17.567708 21.229167 17.575521 21.156250 17.570312 C21.083333 17.565104 21.020834 17.588541 20.968750 17.640625 C20.927083 17.682292 20.903646 17.736979 20.898438 17.804688 C20.893229 17.872396 20.880208 17.932291 20.859375 17.984375 C20.848958 18.015625 20.830729 18.044271 20.804688 18.070312 C20.778646 18.096354 20.755208 18.125000 20.734375 18.156250 C20.713542 18.197917 20.687500 18.234375 20.656250 18.265625 C20.625000 18.296875 20.609375 18.333333 20.609375 18.375000 C20.609375 18.427084 20.625000 18.473958 20.656250 18.515625 C20.687500 18.557292 20.708333 18.604166 20.718750 18.656250 C20.718750 18.770834 20.671875 18.888020 20.578125 19.007812 C20.484375 19.127605 20.385417 19.197917 20.281250 19.218750 Z M6.781250 3.875000 C6.760417 3.864583 6.750000 3.796876 6.750000 3.671875 C6.750000 3.557291 6.744792 3.494792 6.734375 3.484375 C6.692708 3.421875 6.635417 3.388021 6.562500 3.382812 C6.489583 3.377604 6.421875 3.359375 6.359375 3.328125 C6.286458 3.296875 6.239583 3.213542 6.218750 3.078125 C6.187500 2.880207 6.091147 2.705730 5.929688 2.554688 C5.768228 2.403645 5.677083 2.223959 5.656250 2.015625 C5.656250 1.911458 5.713541 1.838542 5.828125 1.796875 C5.890625 1.776042 5.937500 1.781250 5.968750 1.812500 C5.979167 1.822917 6.005208 1.828125 6.046875 1.828125 C6.130209 1.828125 6.205729 1.804688 6.273438 1.757812 C6.341146 1.710937 6.411458 1.687500 6.484375 1.687500 C6.505208 1.687500 6.520833 1.682292 6.531250 1.671875 C6.645834 1.557291 6.781249 1.536458 6.937500 1.609375 C7.093751 1.682292 7.200521 1.781249 7.257812 1.906250 C7.315104 2.031251 7.244793 2.125000 7.046875 2.187500 L6.937500 2.234375 C6.708332 2.348959 6.598958 2.489583 6.609375 2.656250 C6.619792 2.760417 6.666666 2.838541 6.750000 2.890625 C6.833334 2.942709 6.911458 3.000000 6.984375 3.062500 C7.088542 3.145834 7.148437 3.265624 7.164062 3.421875 C7.179688 3.578126 7.140625 3.703125 7.046875 3.796875 C6.953125 3.890625 6.864584 3.916667 6.781250 3.875000 Z M5.171875 1.828125 C4.984374 1.682291 4.914062 1.513022 4.960938 1.320312 C5.007813 1.127603 5.106770 0.981771 5.257812 0.882812 C5.408855 0.783854 5.541666 0.812499 5.656250 0.968750 C5.739584 1.135417 5.729167 1.299478 5.625000 1.460938 C5.520833 1.622397 5.411459 1.744791 5.296875 1.828125 C5.255208 1.869792 5.213542 1.869792 5.171875 1.828125 Z M17.328125 13.765625 C17.161458 13.859375 16.986980 13.843751 16.804688 13.718750 C16.622395 13.593749 16.520833 13.442709 16.500000 13.265625 C16.489583 13.098958 16.575520 12.940105 16.757812 12.789062 C16.940105 12.638020 17.098958 12.536459 17.234375 12.484375 C17.411459 12.411458 17.567708 12.421875 17.703125 12.515625 C17.838542 12.609375 17.854167 12.749999 17.750000 12.937500 C17.677083 13.072917 17.619792 13.218749 17.578125 13.375000 C17.536458 13.531251 17.453126 13.661458 17.328125 13.765625 Z M9.656250 12.703125 C9.177081 12.703125 8.763023 12.528648 8.414062 12.179688 C8.065102 11.830727 7.890625 11.416669 7.890625 10.937500 L7.890625 7.781250 C7.890625 7.291664 8.065102 6.872398 8.414062 6.523438 C8.763023 6.174477 9.177081 6.000000 9.656250 6.000000 L17.265625 6.000000 C17.755211 6.000000 18.171873 6.174477 18.515625 6.523438 C18.859377 6.872398 19.031250 7.291664 19.031250 7.781250 L19.031250 10.937500 C19.031250 11.427086 18.859377 11.843748 18.515625 12.187500 C18.171873 12.531252 17.755211 12.703125 17.265625 12.703125 Z M9.656250 11.453125 L17.265625 11.453125 C17.411459 11.453125 17.533854 11.401042 17.632812 11.296875 C17.731771 11.192708 17.781250 11.072917 17.781250 10.937500 L17.781250 7.781250 C17.781250 7.635416 17.731771 7.510417 17.632812 7.406250 C17.533854 7.302083 17.411459 7.250000 17.265625 7.250000 L9.656250 7.250000 C9.520833 7.250000 9.401042 7.302083 9.296875 7.406250 C9.192708 7.510417 9.140625 7.635416 9.140625 7.781250 L9.140625 10.937500 C9.140625 11.072917 9.192708 11.192708 9.296875 11.296875 C9.401042 11.401042 9.520833 11.453125 9.656250 11.453125 Z M19.375000 15.265625 C19.239583 15.203125 19.151042 15.088542 19.109375 14.921875 C19.098958 14.859375 19.106771 14.804688 19.132812 14.757812 C19.158854 14.710937 19.182292 14.671875 19.203125 14.640625 C19.265625 14.536458 19.296875 14.453125 19.296875 14.390625 C19.296875 14.286458 19.247396 14.213542 19.148438 14.171875 C19.049479 14.130208 18.958334 14.088542 18.875000 14.046875 C18.760416 13.973958 18.708333 13.888021 18.718750 13.789062 C18.729167 13.690104 18.739583 13.588542 18.750000 13.484375 C18.760417 13.432291 18.770833 13.385417 18.781250 13.343750 C18.791667 13.302083 18.796875 13.260417 18.796875 13.218750 C18.786458 13.135416 18.750000 13.036459 18.687500 12.921875 C18.645833 12.828125 18.606771 12.734375 18.570312 12.640625 C18.533854 12.546875 18.562500 12.463542 18.656250 12.390625 C18.791667 12.338541 18.906250 12.356770 19.000000 12.445312 C19.093750 12.533855 19.177083 12.635416 19.250000 12.750000 C19.281250 12.791667 19.312500 12.828125 19.343750 12.859375 C19.375000 12.890625 19.406250 12.921875 19.437500 12.953125 C19.520834 13.036459 19.583333 13.135416 19.625000 13.250000 C19.666667 13.364584 19.692708 13.479166 19.703125 13.593750 C19.755209 13.822918 19.872395 13.950521 20.054688 13.976562 C20.236980 14.002604 20.364583 14.093749 20.437500 14.250000 C20.489584 14.385417 20.458334 14.554686 20.343750 14.757812 C20.229166 14.960939 20.080730 15.119791 19.898438 15.234375 C19.716145 15.348959 19.541668 15.359375 19.375000 15.265625 Z M8.281250 3.093750 C8.124999 3.125000 8.013021 3.083334 7.945312 2.968750 C7.877604 2.854166 7.875000 2.729167 7.937500 2.593750 C7.968750 2.468749 7.986979 2.335938 7.992188 2.195312 C7.997396 2.054687 8.062499 1.942709 8.187500 1.859375 C8.395834 1.703124 8.546875 1.729166 8.640625 1.937500 C8.723959 2.104167 8.731771 2.328124 8.664062 2.609375 C8.596354 2.890626 8.468751 3.052083 8.281250 3.093750 Z M22.343750 17.046875 C22.218749 17.015625 22.135417 16.906251 22.093750 16.718750 C22.052083 16.531249 22.054687 16.354168 22.101562 16.187500 C22.148438 16.020832 22.249999 15.958333 22.406250 16.000000 L22.531250 16.031250 C22.750001 16.104167 22.833334 16.294269 22.781250 16.601562 C22.729166 16.908856 22.583335 17.057292 22.343750 17.046875 Z M11.578125 6.250000 C11.515625 6.302084 11.437500 6.317708 11.343750 6.296875 C11.250000 6.276042 11.192708 6.229167 11.171875 6.156250 C11.161458 6.104166 11.156250 6.031250 11.156250 5.937500 C11.156250 5.812499 11.145833 5.739583 11.125000 5.718750 C11.072916 5.666666 11.020834 5.648437 10.968750 5.664062 C10.916666 5.679688 10.854167 5.697917 10.781250 5.718750 C10.718750 5.739583 10.653646 5.760417 10.585938 5.781250 C10.518229 5.802083 10.458334 5.796875 10.406250 5.765625 C10.322916 5.723958 10.281250 5.604168 10.281250 5.406250 C10.281250 5.322916 10.270833 5.229167 10.250000 5.125000 C10.135416 4.916666 10.096354 4.773438 10.132812 4.695312 C10.169271 4.617187 10.291666 4.531250 10.500000 4.437500 C10.812502 4.281249 10.932292 4.041668 10.859375 3.718750 L10.812500 3.500000 C10.802083 3.416666 10.789063 3.330730 10.773438 3.242188 C10.757812 3.153645 10.776041 3.072917 10.828125 3.000000 C10.880209 2.937500 10.940104 2.903646 11.007812 2.898438 C11.075521 2.893229 11.140625 2.869792 11.203125 2.828125 C11.348959 2.734375 11.458333 2.625001 11.531250 2.500000 C11.656251 2.291666 11.812499 2.192708 12.000000 2.203125 C12.083334 2.213542 12.166666 2.236979 12.250000 2.273438 C12.333334 2.309896 12.369792 2.375000 12.359375 2.468750 C12.348958 2.635417 12.234376 2.763020 12.015625 2.851562 C11.796874 2.940105 11.645834 3.041666 11.562500 3.156250 C11.510416 3.229167 11.481771 3.317708 11.476562 3.421875 C11.471354 3.526042 11.510416 3.598958 11.593750 3.640625 C11.729167 3.692709 11.864583 3.721354 12.000000 3.726562 C12.135417 3.731771 12.255208 3.802083 12.359375 3.937500 C12.526042 4.166668 12.510418 4.354166 12.312500 4.500000 C12.218750 4.572917 12.122396 4.604167 12.023438 4.593750 C11.924479 4.583333 11.817709 4.557292 11.703125 4.515625 C11.505207 4.453125 11.338542 4.442708 11.203125 4.484375 C11.109375 4.515625 11.044271 4.585937 11.007812 4.695312 C10.971354 4.804688 10.989583 4.885416 11.062500 4.937500 C11.114584 4.968750 11.169271 4.989583 11.226562 5.000000 C11.283854 5.010417 11.333333 5.026042 11.375000 5.046875 C11.458334 5.078125 11.520833 5.166666 11.562500 5.312500 C11.604167 5.458334 11.653646 5.619791 11.710938 5.796875 C11.768229 5.973959 11.723959 6.124999 11.578125 6.250000 Z M9.703125 3.531250 C9.578124 3.520833 9.515625 3.406251 9.515625 3.187500 C9.515625 3.125000 9.510417 3.083333 9.500000 3.062500 C9.489583 2.989583 9.471354 2.921875 9.445312 2.859375 C9.419271 2.796875 9.401042 2.729167 9.390625 2.656250 C9.380208 2.489583 9.429687 2.354167 9.539062 2.250000 C9.648438 2.145833 9.770833 2.166666 9.906250 2.312500 C10.052084 2.458334 10.091146 2.635416 10.023438 2.843750 C9.955729 3.052084 9.895834 3.244791 9.843750 3.421875 C9.822917 3.494792 9.776042 3.531250 9.703125 3.531250 Z M21.640625 15.343750 C21.401040 15.302083 21.296875 15.187501 21.328125 15.000000 C21.348958 14.885416 21.421874 14.825521 21.546875 14.820312 C21.671876 14.815104 21.786458 14.828125 21.890625 14.859375 C21.661457 14.630207 21.630208 14.348960 21.796875 14.015625 C21.640624 13.963541 21.489584 13.885417 21.343750 13.781250 C21.197916 13.677083 21.145833 13.536459 21.187500 13.359375 C21.229167 13.192708 21.333332 13.083334 21.500000 13.031250 C21.666668 12.979166 21.796875 13.026041 21.890625 13.171875 C21.921875 13.213542 21.942708 13.260416 21.953125 13.312500 C21.963542 13.364584 21.984375 13.411458 22.015625 13.453125 C22.078125 13.526042 22.182291 13.604166 22.328125 13.687500 C22.515626 13.791667 22.640625 13.953124 22.703125 14.171875 C22.765625 14.390626 22.755209 14.598957 22.671875 14.796875 C22.598958 14.973959 22.460939 15.119791 22.257812 15.234375 C22.054686 15.348959 21.848959 15.385417 21.640625 15.343750 Z M20.453125 13.093750 C20.265624 13.125000 20.119792 13.010418 20.015625 12.750000 C19.973958 12.635416 19.940104 12.507813 19.914062 12.367188 C19.888021 12.226562 19.937499 12.109375 20.062500 12.015625 C20.312501 11.828124 20.494791 11.820312 20.609375 11.992188 C20.723959 12.164063 20.770833 12.374999 20.750000 12.625000 C20.729167 12.875001 20.630209 13.031250 20.453125 13.093750 Z M13.796875 6.484375 C13.817708 6.463542 13.835937 6.434896 13.851562 6.398438 C13.867188 6.361979 13.880208 6.333333 13.890625 6.312500 C14.015626 6.031249 14.179686 5.937500 14.382812 6.031250 C14.585939 6.125000 14.713541 6.276041 14.765625 6.484375 Z M12.953125 5.796875 C12.776041 5.703125 12.695312 5.552084 12.710938 5.343750 C12.726563 5.135416 12.807291 4.984375 12.953125 4.890625 C13.026042 4.838541 13.101562 4.799479 13.179688 4.773438 C13.257813 4.747396 13.333333 4.713542 13.406250 4.671875 C13.458334 4.640625 13.531250 4.572917 13.625000 4.468750 C13.770834 4.291666 13.885416 4.208333 13.968750 4.218750 C14.114584 4.239583 14.164063 4.346353 14.117188 4.539062 C14.070312 4.731772 14.015625 4.859375 13.953125 4.921875 C13.890625 4.984375 13.817709 5.031250 13.734375 5.062500 C13.651041 5.093750 13.588542 5.145833 13.546875 5.218750 C13.505208 5.281250 13.484375 5.348958 13.484375 5.421875 C13.484375 5.494792 13.463542 5.562500 13.421875 5.625000 C13.296874 5.833334 13.140626 5.890625 12.953125 5.796875 Z M10.406250 1.828125 C10.229166 1.869792 10.125000 1.833334 10.093750 1.718750 L10.093750 1.609375 C10.093750 1.526041 10.088542 1.447917 10.078125 1.375000 C10.067708 1.302083 10.026042 1.229167 9.953125 1.156250 C9.911458 1.104166 9.861979 1.062500 9.804688 1.031250 C9.747396 1.000000 9.697917 0.958334 9.656250 0.906250 C9.593750 0.843750 9.562500 0.760417 9.562500 0.656250 L10.343750 0.656250 C10.343750 0.729167 10.361979 0.794271 10.398438 0.851562 C10.434896 0.908854 10.531249 0.942708 10.687500 0.953125 C10.968751 0.963542 11.106771 1.039062 11.101562 1.179688 C11.096354 1.320313 11.018230 1.458333 10.867188 1.593750 C10.716145 1.729167 10.562501 1.807292 10.406250 1.828125 Z M23.046875 13.703125 C22.869791 13.380207 22.630210 13.104168 22.328125 12.875000 C22.161458 12.749999 22.083333 12.625001 22.093750 12.500000 C22.156250 12.322916 22.286457 12.208334 22.484375 12.156250 C22.682293 12.104166 22.859374 12.104166 23.015625 12.156250 Z M16.015625 5.468750 C15.942708 5.708335 15.817709 5.820313 15.640625 5.804688 C15.463541 5.789062 15.296876 5.708334 15.140625 5.562500 C14.984374 5.416666 14.888021 5.255209 14.851562 5.078125 C14.815104 4.901041 14.906249 4.765625 15.125000 4.671875 C15.291668 4.598958 15.416666 4.630208 15.500000 4.765625 C15.520833 4.796875 15.562500 4.833333 15.625000 4.875000 L15.765625 4.953125 C15.869792 5.015625 15.953125 5.078125 16.015625 5.140625 C16.078125 5.203125 16.078125 5.312499 16.015625 5.468750 Z M19.390625 11.531250 C19.286458 11.489583 19.226563 11.406251 19.210938 11.281250 C19.195312 11.156249 19.234375 11.057292 19.328125 10.984375 C19.380209 10.942708 19.434896 10.908854 19.492188 10.882812 C19.549479 10.856771 19.593750 10.812500 19.625000 10.750000 C19.645833 10.718750 19.645833 10.684896 19.625000 10.648438 C19.604167 10.611979 19.593750 10.578125 19.593750 10.546875 C19.593750 10.536458 19.591146 10.528646 19.585938 10.523438 C19.580729 10.518229 19.578125 10.510417 19.578125 10.500000 C19.578125 10.166665 19.690103 9.929688 19.914062 9.789062 C20.138022 9.648437 20.377603 9.588542 20.632812 9.609375 C20.888022 9.630208 21.075520 9.718749 21.195312 9.875000 C21.315105 10.031251 21.270834 10.244790 21.062500 10.515625 C20.989583 10.619792 20.898438 10.677083 20.789062 10.687500 C20.679687 10.697917 20.572917 10.687500 20.468750 10.656250 C20.437500 10.645833 20.395834 10.640625 20.343750 10.640625 C20.281250 10.598958 20.250000 10.619791 20.250000 10.703125 L20.250000 10.828125 C20.250000 10.869792 20.252604 10.911458 20.257812 10.953125 C20.263021 10.994792 20.255208 11.041666 20.234375 11.093750 C20.203125 11.156250 20.130209 11.234375 20.015625 11.328125 C19.921875 11.401042 19.822917 11.463541 19.718750 11.515625 C19.614583 11.567709 19.505209 11.572917 19.390625 11.531250 Z M19.515625 9.171875 C19.348958 9.338542 19.231771 9.315105 19.164062 9.101562 C19.096354 8.888020 19.098958 8.718751 19.171875 8.593750 L19.250000 8.468750 C19.364584 8.364583 19.507812 8.283854 19.679688 8.226562 C19.851563 8.169271 20.005208 8.182291 20.140625 8.265625 C20.286459 8.432292 20.257814 8.591145 20.054688 8.742188 C19.851561 8.893230 19.692709 9.026041 19.578125 9.140625 C19.567708 9.151042 19.557292 9.156250 19.546875 9.156250 C19.536458 9.156250 19.526042 9.161458 19.515625 9.171875 Z M12.437500 1.765625 C12.395833 1.744792 12.354167 1.726563 12.312500 1.710938 C12.270833 1.695312 12.234375 1.682292 12.203125 1.671875 C11.921874 1.598958 11.867187 1.450522 12.039062 1.226562 C12.210938 1.002603 12.380208 0.864584 12.546875 0.812500 C12.786460 0.739583 12.960937 0.763020 13.070312 0.882812 C13.179688 1.002605 13.234375 1.171874 13.234375 1.390625 C13.234375 1.713543 13.153647 1.875000 12.992188 1.875000 C12.830728 1.875000 12.645834 1.838542 12.437500 1.765625 Z M16.500000 6.343750 C16.479167 6.322917 16.479167 6.281250 16.500000 6.218750 C16.541667 6.104166 16.635416 5.976563 16.781250 5.835938 C16.927084 5.695312 17.109374 5.588542 17.328125 5.515625 C17.536459 5.442708 17.640625 5.510416 17.640625 5.718750 C17.640625 5.927084 17.479168 6.093749 17.156250 6.218750 L17.140625 6.250000 C17.088541 6.333334 16.994792 6.377604 16.859375 6.382812 C16.723958 6.388021 16.604167 6.375000 16.500000 6.343750 Z M14.125000 3.437500 C13.958333 3.604167 13.809896 3.658854 13.679688 3.601562 C13.549479 3.544271 13.479167 3.437501 13.468750 3.281250 C13.458333 3.124999 13.536458 2.994792 13.703125 2.890625 C13.755209 2.859375 13.815104 2.830729 13.882812 2.804688 C13.950521 2.778646 13.989583 2.734375 14.000000 2.671875 C14.020833 2.526041 13.958334 2.432292 13.812500 2.390625 C13.770833 2.369792 13.739583 2.354167 13.718750 2.343750 C13.562499 2.187499 13.531250 2.036459 13.625000 1.890625 C13.739584 1.703124 13.869791 1.658854 14.015625 1.757812 C14.161459 1.856771 14.299479 1.999999 14.429688 2.187500 C14.559896 2.375001 14.645833 2.510416 14.687500 2.593750 C14.791667 2.812501 14.744793 2.953125 14.546875 3.015625 C14.463541 3.057292 14.393229 3.117187 14.335938 3.195312 C14.278646 3.273438 14.208334 3.354166 14.125000 3.437500 Z M21.890625 11.734375 C21.765624 11.755208 21.648438 11.768229 21.539062 11.773438 C21.429687 11.778646 21.333334 11.744792 21.250000 11.671875 C21.166666 11.557291 21.179687 11.450521 21.289062 11.351562 C21.398438 11.252604 21.526041 11.161459 21.671875 11.078125 C21.859376 10.963541 21.973958 10.880209 22.015625 10.828125 C22.130209 10.682291 22.151042 10.468751 22.078125 10.187500 C22.067708 10.145833 22.062500 10.072917 22.062500 9.968750 C22.062500 9.833333 22.093750 9.716146 22.156250 9.617188 C22.218750 9.518229 22.333332 9.494791 22.500000 9.546875 C22.791668 9.651042 22.914063 9.851561 22.867188 10.148438 C22.820312 10.445314 22.760417 10.729165 22.687500 11.000000 C22.677083 11.062500 22.661458 11.119791 22.640625 11.171875 C22.619792 11.223959 22.604167 11.276041 22.593750 11.328125 C22.562500 11.578126 22.427085 11.703125 22.187500 11.703125 C22.114583 11.703125 22.015626 11.713542 21.890625 11.734375 Z M19.796875 7.453125 C19.755208 7.348958 19.710938 7.252605 19.664062 7.164062 C19.617187 7.075520 19.526042 7.015625 19.390625 6.984375 C19.348958 6.973958 19.281250 6.968750 19.187500 6.968750 C19.041666 6.968750 18.911459 6.927084 18.796875 6.843750 C18.755208 6.802083 18.734375 6.747396 18.734375 6.679688 C18.734375 6.611979 18.739583 6.541667 18.750000 6.468750 C18.770833 6.322916 18.760417 6.208334 18.718750 6.125000 C18.666666 6.020833 18.585938 5.942709 18.476562 5.890625 C18.367187 5.838541 18.302083 5.760417 18.281250 5.656250 C18.270833 5.541666 18.296875 5.466146 18.359375 5.429688 C18.421875 5.393229 18.489583 5.375000 18.562500 5.375000 C18.583333 5.375000 18.601562 5.372396 18.617188 5.367188 C18.632813 5.361979 18.645833 5.359375 18.656250 5.359375 C18.729167 5.359375 18.791666 5.335938 18.843750 5.289062 C18.895834 5.242187 18.958333 5.203125 19.031250 5.171875 C19.177084 5.109375 19.302083 5.122395 19.406250 5.210938 C19.510417 5.299480 19.526042 5.432291 19.453125 5.609375 C19.442708 5.651042 19.427083 5.684896 19.406250 5.710938 C19.385417 5.736979 19.364583 5.765625 19.343750 5.796875 C19.312500 5.869792 19.276042 5.937500 19.234375 6.000000 C19.192708 6.062500 19.182292 6.135416 19.203125 6.218750 C19.244792 6.375001 19.343749 6.432292 19.500000 6.390625 L19.671875 6.265625 C19.744792 6.213541 19.825520 6.164063 19.914062 6.117188 C20.002605 6.070312 20.088541 6.057292 20.171875 6.078125 C20.255209 6.098958 20.317708 6.151041 20.359375 6.234375 C20.401042 6.317709 20.395834 6.395833 20.343750 6.468750 C20.302083 6.541667 20.244792 6.598958 20.171875 6.640625 C20.098958 6.682292 20.057292 6.744791 20.046875 6.828125 C20.046875 6.880209 20.057292 6.947916 20.078125 7.031250 C20.098958 7.093750 20.117187 7.151041 20.132812 7.203125 C20.148438 7.255209 20.135417 7.307291 20.093750 7.359375 C19.989583 7.484376 19.890625 7.515625 19.796875 7.453125 Z M16.484375 3.921875 C16.442708 4.036459 16.346355 4.088542 16.195312 4.078125 C16.044270 4.067708 15.927084 4.010417 15.843750 3.906250 C15.770833 3.802083 15.739583 3.679688 15.750000 3.539062 C15.760417 3.398437 15.796875 3.276042 15.859375 3.171875 C15.963542 3.036458 15.937501 2.911459 15.781250 2.796875 C15.656249 2.671874 15.541667 2.507814 15.437500 2.304688 C15.333333 2.101561 15.348958 1.932292 15.484375 1.796875 C15.494792 1.786458 15.500000 1.770833 15.500000 1.750000 C15.500000 1.666666 15.510417 1.578125 15.531250 1.484375 C15.552083 1.390625 15.531250 1.312500 15.468750 1.250000 C15.437500 1.218750 15.348959 1.203125 15.203125 1.203125 C15.109375 1.203125 15.026042 1.190104 14.953125 1.164062 C14.880208 1.138021 14.854167 1.062501 14.875000 0.937500 C14.895833 0.885416 14.921875 0.835938 14.953125 0.789062 C14.984375 0.742187 15.020833 0.697917 15.062500 0.656250 L16.453125 0.656250 C16.453125 0.656250 16.559895 0.739582 16.773438 0.906250 C16.986980 1.072917 17.052084 1.234374 16.968750 1.390625 C16.906250 1.515626 16.822917 1.588542 16.718750 1.609375 C16.614583 1.630208 16.510417 1.640625 16.406250 1.640625 C16.270833 1.640625 16.171875 1.645833 16.109375 1.656250 C15.994791 1.708334 15.955729 1.794270 15.992188 1.914062 C16.028646 2.033855 16.083333 2.130208 16.156250 2.203125 C16.208334 2.276042 16.252604 2.356770 16.289062 2.445312 C16.325521 2.533855 16.343750 2.630208 16.343750 2.734375 C16.343750 2.963543 16.276042 3.125000 16.140625 3.218750 C16.276042 3.322917 16.380208 3.421875 16.453125 3.515625 C16.536459 3.630209 16.546875 3.765624 16.484375 3.921875 Z M17.359375 4.593750 C17.369792 4.458333 17.442708 4.322917 17.578125 4.187500 C17.651042 4.135416 17.687500 4.072917 17.687500 4.000000 C17.687500 3.927083 17.651042 3.875000 17.578125 3.843750 C17.536458 3.822917 17.500000 3.799479 17.468750 3.773438 C17.437500 3.747396 17.401042 3.723958 17.359375 3.703125 C17.255208 3.640625 17.205729 3.533855 17.210938 3.382812 C17.216146 3.231770 17.265625 3.119792 17.359375 3.046875 C17.505209 2.932291 17.666666 2.901041 17.843750 2.953125 C18.020834 3.005209 18.177083 3.072916 18.312500 3.156250 L18.750000 3.578125 C18.822917 3.651042 18.846354 3.739583 18.820312 3.843750 C18.794271 3.947917 18.739584 4.026041 18.656250 4.078125 C18.479166 4.171875 18.291668 4.213542 18.093750 4.203125 C18.041666 4.182292 17.994792 4.192708 17.953125 4.234375 C17.911458 4.276042 17.895833 4.322916 17.906250 4.375000 C18.052084 4.583334 18.072917 4.747395 17.968750 4.867188 C17.864583 4.986980 17.736980 5.031250 17.585938 5.000000 C17.434895 4.968750 17.359375 4.833335 17.359375 4.593750 Z M22.406250 8.875000 C22.354166 8.875000 22.307292 8.851563 22.265625 8.804688 C22.223958 8.757812 22.177084 8.718750 22.125000 8.687500 C22.020833 8.614583 21.877605 8.570313 21.695312 8.554688 C21.513020 8.539062 21.390625 8.458334 21.328125 8.312500 C21.307292 8.260416 21.302083 8.208334 21.312500 8.156250 C21.322917 8.104166 21.333333 8.046875 21.343750 7.984375 C21.354167 7.932291 21.367187 7.880209 21.382812 7.828125 C21.398438 7.776041 21.395833 7.729167 21.375000 7.687500 C21.354167 7.604166 21.315104 7.531250 21.257812 7.468750 C21.200521 7.406250 21.151042 7.338542 21.109375 7.265625 C21.036458 7.119791 21.039062 7.005209 21.117188 6.921875 C21.195313 6.838541 21.270833 6.744792 21.343750 6.640625 C21.385417 6.588541 21.427083 6.544271 21.468750 6.507812 C21.510417 6.471354 21.536458 6.432292 21.546875 6.390625 C21.588542 6.265624 21.609375 6.161459 21.609375 6.078125 C21.609375 5.973958 21.625000 5.880209 21.656250 5.796875 C21.687500 5.713541 21.791666 5.697916 21.968750 5.750000 C22.250001 5.822917 22.429687 6.002603 22.507812 6.289062 C22.585938 6.575522 22.520834 6.822916 22.312500 7.031250 C22.281250 7.062500 22.252604 7.088542 22.226562 7.109375 C22.200521 7.130208 22.182292 7.161458 22.171875 7.203125 C22.161458 7.276042 22.182291 7.354166 22.234375 7.437500 C22.296875 7.552084 22.333333 7.619792 22.343750 7.640625 C22.354167 7.723959 22.317709 7.807291 22.234375 7.890625 C22.151041 7.973959 22.125000 8.062500 22.156250 8.156250 C22.197917 8.250000 22.268229 8.322916 22.367188 8.375000 C22.466146 8.427084 22.536458 8.505208 22.578125 8.609375 C22.598958 8.661459 22.591146 8.718750 22.554688 8.781250 C22.518229 8.843750 22.468750 8.875000 22.406250 8.875000 Z M20.062500 4.921875 C19.906249 4.963542 19.791667 4.953125 19.718750 4.890625 C19.583333 4.776041 19.565104 4.651042 19.664062 4.515625 C19.763021 4.380208 19.895832 4.328125 20.062500 4.359375 C20.291668 4.401042 20.390625 4.312501 20.359375 4.093750 C20.348958 4.041666 20.361979 3.992188 20.398438 3.945312 C20.434896 3.898437 20.468750 3.854167 20.500000 3.812500 C20.541667 3.760416 20.578125 3.710938 20.609375 3.664062 C20.640625 3.617187 20.651042 3.567709 20.640625 3.515625 C20.630208 3.401041 20.601563 3.354167 20.554688 3.375000 C20.507812 3.395833 20.473958 3.432291 20.453125 3.484375 C20.432292 3.536459 20.406250 3.562500 20.375000 3.562500 C20.302083 3.604167 20.226563 3.596354 20.148438 3.539062 C20.070312 3.481771 20.036458 3.416667 20.046875 3.343750 C20.130209 3.104165 20.041668 2.968750 19.781250 2.937500 C19.760417 2.937500 19.731771 2.934896 19.695312 2.929688 C19.658854 2.924479 19.625000 2.921875 19.593750 2.921875 C19.447916 2.921875 19.302084 2.906250 19.156250 2.875000 C19.010416 2.843750 18.906250 2.750001 18.843750 2.593750 C18.802083 2.489583 18.815104 2.388021 18.882812 2.289062 C18.950521 2.190104 19.036458 2.140625 19.140625 2.140625 C19.286459 2.161458 19.421874 2.218750 19.546875 2.312500 C19.671876 2.406250 19.802083 2.479166 19.937500 2.531250 C20.062501 2.614584 20.156250 2.604167 20.218750 2.500000 C20.364584 2.281249 20.526041 2.190104 20.703125 2.226562 C20.880209 2.263021 21.028645 2.367187 21.148438 2.539062 C21.268230 2.710938 21.296875 2.895832 21.234375 3.093750 C21.213542 3.166667 21.177084 3.236979 21.125000 3.304688 C21.072916 3.372396 21.036458 3.447916 21.015625 3.531250 C20.973958 3.666667 20.968750 3.848957 21.000000 4.078125 C21.031250 4.255209 21.031250 4.421874 21.000000 4.578125 C20.968750 4.734376 20.854168 4.848958 20.656250 4.921875 C20.572916 4.942708 20.494792 4.937500 20.421875 4.906250 C20.380208 4.885417 20.317709 4.885417 20.234375 4.906250 C20.213542 4.916667 20.190104 4.919271 20.164062 4.914062 C20.138021 4.908854 20.104167 4.911458 20.062500 4.921875 Z M19.578125 1.718750 C19.390624 1.697917 19.200522 1.690104 19.007812 1.695312 C18.815103 1.700521 18.630209 1.671875 18.453125 1.609375 C18.338541 1.567708 18.276042 1.520834 18.265625 1.468750 C18.244792 1.354166 18.294270 1.270834 18.414062 1.218750 C18.533855 1.166666 18.630208 1.135417 18.703125 1.125000 C18.744792 1.114583 18.791666 1.106771 18.843750 1.101562 C18.895834 1.096354 18.947916 1.088542 19.000000 1.078125 C19.052084 1.057292 19.098958 1.033854 19.140625 1.007812 C19.182292 0.981771 19.229166 0.963542 19.281250 0.953125 C19.437501 0.901041 19.596353 0.929687 19.757812 1.039062 C19.919272 1.148438 19.989583 1.291666 19.968750 1.468750 C19.958333 1.562500 19.911459 1.630208 19.828125 1.671875 C19.744791 1.713542 19.661459 1.729167 19.578125 1.718750 Z M22.296875 5.031250 C22.213541 5.010417 22.125000 4.953125 22.031250 4.859375 C21.937500 4.765625 21.854167 4.692709 21.781250 4.640625 C21.645833 4.494791 21.601562 4.359376 21.648438 4.234375 C21.695313 4.109374 21.796874 4.010417 21.953125 3.937500 C22.036459 3.885416 22.127604 3.835938 22.226562 3.789062 C22.325521 3.742187 22.395833 3.677084 22.437500 3.593750 C22.437500 3.593750 22.453125 3.546875 22.484375 3.453125 C22.505208 3.401041 22.526042 3.346354 22.546875 3.289062 C22.567708 3.231771 22.614583 3.208333 22.687500 3.218750 C22.791667 3.229167 22.843750 3.312499 22.843750 3.468750 C22.843750 3.947919 22.744793 4.385415 22.546875 4.781250 C22.463541 4.947917 22.380209 5.031250 22.296875 5.031250 Z M22.296875 2.593750 C22.203125 2.697917 22.101563 2.729167 21.992188 2.687500 C21.882812 2.645833 21.822917 2.557292 21.812500 2.421875 C21.802083 2.369791 21.794271 2.312500 21.789062 2.250000 C21.783854 2.187500 21.770833 2.130209 21.750000 2.078125 C21.739583 2.057292 21.721354 2.028646 21.695312 1.992188 C21.669271 1.955729 21.645833 1.916667 21.625000 1.875000 C21.552083 1.760416 21.505208 1.664063 21.484375 1.585938 C21.463542 1.507812 21.567707 1.536458 21.796875 1.671875 C21.932292 1.744792 22.080728 1.880207 22.242188 2.078125 C22.403647 2.276043 22.421876 2.447916 22.296875 2.593750 Z M33.906250 27.343750" /></svg>