<svg version="1.1" xmlns="http://www.w3.org/2000/svg" style="fill:rgba(0,0,0,1.0)" width="256" height="256" viewBox="0 0 37.578125 26.5625"><path fill="rgb(255, 255, 255)" d="M9.156250 26.562500 C8.343746 26.562500 7.648440 26.278649 7.070312 25.710938 C6.492185 25.143226 6.203125 24.447921 6.203125 23.625000 C6.203125 22.812496 6.515622 22.122399 7.140625 21.554688 C7.765628 20.986976 8.484371 20.703125 9.296875 20.703125 L9.296875 22.421875 C8.953123 22.421875 8.664064 22.539061 8.429688 22.773438 C8.195311 23.007814 8.078125 23.291665 8.078125 23.625000 C8.078125 23.968752 8.197915 24.257811 8.437500 24.492188 C8.677085 24.726564 8.958332 24.843750 9.281250 24.843750 L23.859375 24.843750 C25.671884 24.843750 27.234368 24.510420 28.546875 23.843750 C29.859382 23.177080 30.872392 22.234381 31.585938 21.015625 C32.299483 19.796869 32.656250 18.369800 32.656250 16.734375 C32.656250 14.848949 32.190109 13.151049 31.257812 11.640625 C30.325516 10.130201 28.979175 8.968754 27.218750 8.156250 L26.234375 7.703125 C24.442699 6.869788 22.986985 6.161461 21.867188 5.578125 C20.747390 4.994789 19.880211 4.479169 19.265625 4.031250 C18.651039 3.583331 18.192710 3.151044 17.890625 2.734375 C17.630207 2.369790 17.421876 2.109376 17.265625 1.953125 C17.109374 1.796874 16.958334 1.718750 16.812500 1.718750 C16.583332 1.718750 16.393230 1.851561 16.242188 2.117188 C16.091145 2.382814 16.015625 2.708331 16.015625 3.093750 C16.015625 3.635419 16.169269 4.156247 16.476562 4.656250 C16.783856 5.156253 17.304684 5.697914 18.039062 6.281250 C18.773441 6.864586 19.781244 7.557288 21.062500 8.359375 C21.145834 8.651043 21.393227 9.041664 21.804688 9.531250 C22.216148 10.020836 22.736976 10.541664 23.367188 11.093750 C23.997399 11.645836 24.682288 12.158852 25.421875 12.632812 C26.161462 13.106773 26.890621 13.473957 27.609375 13.734375 L27.078125 15.203125 C26.067703 14.838540 25.088546 14.361982 24.140625 13.773438 C23.192704 13.184893 22.361983 12.554691 21.648438 11.882812 C20.934892 11.210934 20.421877 10.562503 20.109375 9.937500 L6.171875 10.000000 C5.828123 10.000000 5.539064 10.117186 5.304688 10.351562 C5.070311 10.585939 4.953125 10.869790 4.953125 11.203125 C4.953125 11.546877 5.070311 11.835936 5.304688 12.070312 C5.539064 12.304689 5.828123 12.421875 6.171875 12.421875 L6.171875 14.140625 C5.359371 14.140625 4.640628 13.854170 4.015625 13.281250 C3.390622 12.708330 3.078125 12.015629 3.078125 11.203125 C3.078125 10.390621 3.364580 9.700524 3.937500 9.132812 C4.510420 8.565101 5.203121 8.281250 6.015625 8.281250 L19.234375 8.218750 L19.296875 9.343750 L18.171875 8.625000 C17.442705 8.156248 16.773441 7.606774 16.164062 6.976562 C15.554684 6.346351 15.065106 5.692712 14.695312 5.015625 C14.325519 4.338538 14.140625 3.697920 14.140625 3.093750 C14.140625 2.208329 14.401039 1.471357 14.921875 0.882812 C15.442711 0.294268 16.098954 -0.000000 16.890625 -0.000000 C17.359377 -0.000000 17.789061 0.153644 18.179688 0.460938 C18.570314 0.768231 18.927082 1.151039 19.250000 1.609375 C19.510418 1.973960 19.919268 2.348956 20.476562 2.734375 C21.033857 3.119794 21.833328 3.575518 22.875000 4.101562 C23.916672 4.627607 25.281242 5.281246 26.968750 6.062500 L27.953125 6.515625 C30.015635 7.463546 31.627598 8.843741 32.789062 10.656250 C33.950527 12.468759 34.531250 14.494780 34.531250 16.734375 C34.531250 18.682301 34.085942 20.395826 33.195312 21.875000 C32.304683 23.354174 31.062508 24.505204 29.468750 25.328125 C27.874992 26.151046 26.015636 26.562500 23.890625 26.562500 Z M5.921875 22.421875 C5.109371 22.421875 4.416670 22.135420 3.843750 21.562500 C3.270830 20.989580 2.984375 20.296879 2.984375 19.484375 C2.984375 18.671871 3.296872 17.981774 3.921875 17.414062 C4.546878 16.846351 5.265621 16.562500 6.078125 16.562500 L6.078125 18.281250 C5.734373 18.281250 5.445314 18.398436 5.210938 18.632812 C4.976561 18.867189 4.859375 19.151040 4.859375 19.484375 C4.859375 19.828127 4.976561 20.117186 5.210938 20.351562 C5.445314 20.585939 5.734373 20.703125 6.078125 20.703125 L15.718750 20.703125 L15.718750 22.421875 Z M2.937500 18.281250 C2.124996 18.281250 1.432295 17.994795 0.859375 17.421875 C0.286455 16.848955 0.000000 16.156254 0.000000 15.343750 C0.000000 14.531246 0.283851 13.841149 0.851562 13.273438 C1.419274 12.705726 2.109371 12.421875 2.921875 12.421875 L15.718750 12.421875 L15.718750 14.140625 L3.078125 14.140625 C2.744790 14.140625 2.460939 14.257811 2.226562 14.492188 C1.992186 14.726564 1.875000 15.010415 1.875000 15.343750 C1.875000 15.687502 1.992186 15.976561 2.226562 16.210938 C2.460939 16.445314 2.749998 16.562500 3.093750 16.562500 L15.718750 16.562500 L15.718750 18.281250 Z M37.578125 24.218750" /></svg>