<svg version="1.1" xmlns="http://www.w3.org/2000/svg" style="fill:rgba(0,0,0,1.0)" width="256" height="256" viewBox="0 0 34.6875 32.8125"><path fill="rgb(255, 255, 255)" d="M14.765625 23.453125 C13.692703 23.453125 12.945315 23.265627 12.523438 22.890625 C12.101560 22.515623 11.786459 22.067711 11.578125 21.546875 L10.234375 18.046875 C9.765623 16.817702 9.367189 15.757817 9.039062 14.867188 C8.710936 13.976558 8.440105 13.179691 8.226562 12.476562 C8.013020 11.773434 7.843751 11.088545 7.718750 10.421875 C7.593749 9.755205 7.494792 9.033858 7.421875 8.257812 C7.348958 7.481767 7.286459 6.572922 7.234375 5.531250 C7.213542 5.010414 7.184896 4.513023 7.148438 4.039062 C7.111979 3.565102 7.072917 3.151043 7.031250 2.796875 C6.989583 2.380206 6.901042 2.096355 6.765625 1.945312 C6.630208 1.794270 6.421876 1.718750 6.140625 1.718750 C5.713540 1.718750 5.390626 1.859374 5.171875 2.140625 C4.953124 2.421876 4.843750 2.822914 4.843750 3.343750 L2.968750 3.343750 C2.968750 2.406245 3.276039 1.614587 3.890625 0.968750 C4.505211 0.322913 5.255204 -0.000000 6.140625 -0.000000 C6.901045 -0.000000 7.518227 0.231769 7.992188 0.695312 C8.466148 1.158856 8.744791 1.807288 8.828125 2.640625 C8.869792 3.005210 8.908854 3.432289 8.945312 3.921875 C8.981771 4.411461 9.010417 4.906247 9.031250 5.406250 C9.072917 6.312505 9.119791 7.101559 9.171875 7.773438 C9.223959 8.445316 9.304687 9.083330 9.414062 9.687500 C9.523438 10.291670 9.677082 10.940101 9.875000 11.632812 C10.072918 12.325524 10.338540 13.135412 10.671875 14.062500 C11.005210 14.989588 11.427081 16.119785 11.937500 17.453125 L13.265625 20.921875 C13.390626 21.255210 13.567707 21.473958 13.796875 21.578125 C14.026043 21.682292 14.395831 21.734375 14.906250 21.734375 C15.510420 21.734375 16.145830 21.721354 16.812500 21.695312 C17.479170 21.669271 18.296870 21.619792 19.265625 21.546875 C20.234380 21.473958 21.458326 21.372396 22.937500 21.242188 C24.416674 21.111979 26.265614 20.947918 28.484375 20.750000 L28.609375 22.468750 C26.828116 22.625001 25.283861 22.760416 23.976562 22.875000 C22.669264 22.989584 21.539067 23.083333 20.585938 23.156250 C19.632808 23.229167 18.809899 23.289062 18.117188 23.335938 C17.424476 23.382813 16.812503 23.414062 16.281250 23.429688 C15.749997 23.445313 15.244794 23.453125 14.765625 23.453125 Z M28.750000 32.812500 C27.697911 32.729166 26.700526 32.656250 25.757812 32.593750 C24.815099 32.531250 23.919275 32.476563 23.070312 32.429688 C22.221350 32.382812 21.411462 32.343750 20.640625 32.312500 C19.869788 32.281250 19.125004 32.257813 18.406250 32.242188 C17.687496 32.226562 16.989587 32.218750 16.312500 32.218750 L15.703125 32.218750 C15.057288 32.218750 14.328129 32.226562 13.515625 32.242188 C12.703121 32.257813 11.895837 32.276042 11.093750 32.296875 C10.291663 32.317708 9.583336 32.328125 8.968750 32.328125 C7.093741 32.328125 5.552089 32.070315 4.343750 31.554688 C3.135411 31.039060 2.236982 30.250005 1.648438 29.187500 C1.059893 28.124995 0.765625 26.770842 0.765625 25.125000 C0.765625 24.583331 0.755208 24.007816 0.734375 23.398438 C0.713542 22.789059 0.666667 22.359376 0.593750 22.109375 C0.541666 21.901041 0.466146 21.539065 0.367188 21.023438 C0.268229 20.507810 0.182292 19.947920 0.109375 19.343750 C0.036458 18.739580 0.000000 18.213544 0.000000 17.765625 C0.000000 16.651036 0.278643 15.750003 0.835938 15.062500 C1.393232 14.374997 2.124995 14.031250 3.031250 14.031250 C3.718753 14.031250 4.260415 14.234373 4.656250 14.640625 C5.052085 15.046877 5.291666 15.651038 5.375000 16.453125 C5.500001 17.546880 5.635416 18.463538 5.781250 19.203125 C5.927084 19.942712 6.117186 20.598955 6.351562 21.171875 C6.585939 21.744795 6.895831 22.338539 7.281250 22.953125 L5.625000 23.921875 C5.229165 23.203121 4.903647 22.500003 4.648438 21.812500 C4.393228 21.124997 4.187501 20.367192 4.031250 19.539062 C3.874999 18.710933 3.744792 17.739589 3.640625 16.625000 C3.609375 16.291665 3.546875 16.062501 3.453125 15.937500 C3.359375 15.812499 3.218751 15.750000 3.031250 15.750000 C2.666665 15.750000 2.369793 15.940102 2.140625 16.320312 C1.911457 16.700523 1.796875 17.182289 1.796875 17.765625 C1.796875 18.161460 1.833333 18.635414 1.906250 19.187500 C1.979167 19.739586 2.062500 20.255206 2.156250 20.734375 C2.250000 21.213544 2.317708 21.546874 2.359375 21.734375 C2.442709 22.078127 2.497396 22.588538 2.523438 23.265625 C2.549479 23.942712 2.562500 24.541664 2.562500 25.062500 C2.562500 26.385423 2.776040 27.455725 3.203125 28.273438 C3.630210 29.091150 4.315099 29.684894 5.257812 30.054688 C6.200526 30.424481 7.437492 30.609375 8.968750 30.609375 C9.572920 30.609375 10.273434 30.598958 11.070312 30.578125 C11.867191 30.557292 12.674475 30.539063 13.492188 30.523438 C14.309900 30.507812 15.046872 30.500000 15.703125 30.500000 L16.312500 30.500000 C17.052087 30.500000 17.825517 30.510417 18.632812 30.531250 C19.440108 30.552083 20.265621 30.578125 21.109375 30.609375 C21.953129 30.640625 22.804683 30.682291 23.664062 30.734375 C24.523442 30.786459 25.380204 30.841146 26.234375 30.898438 C27.088546 30.955729 27.927079 31.015625 28.750000 31.078125 Z M6.484375 15.531250 C6.026039 14.385411 5.658856 13.213548 5.382812 12.015625 C5.106769 10.817702 4.927084 9.703130 4.843750 8.671875 C4.812500 8.307290 4.794271 7.846357 4.789062 7.289062 C4.783854 6.731768 4.781250 6.213544 4.781250 5.734375 C4.781250 5.276039 4.747396 4.882814 4.679688 4.554688 C4.611979 4.226561 4.385419 4.062500 4.000000 4.062500 C3.562498 4.062500 3.257813 4.351560 3.085938 4.929688 C2.914062 5.507815 2.828125 6.093747 2.828125 6.687500 C2.828125 6.812501 2.830729 6.934895 2.835938 7.054688 C2.841146 7.174480 2.848958 7.296874 2.859375 7.421875 C2.901042 7.838544 2.955729 8.424475 3.023438 9.179688 C3.091146 9.934900 3.153646 10.695309 3.210938 11.460938 C3.268229 12.226566 3.296875 12.838539 3.296875 13.296875 C3.296875 13.598960 3.291667 13.895832 3.281250 14.187500 C3.270833 14.479168 3.250000 14.760415 3.218750 15.031250 L1.421875 14.843750 C1.453125 14.604165 1.473958 14.359376 1.484375 14.109375 C1.494792 13.859374 1.500000 13.588543 1.500000 13.296875 C1.500000 12.859373 1.473959 12.270837 1.421875 11.531250 C1.369791 10.791663 1.309896 10.052087 1.242188 9.312500 C1.174479 8.572913 1.119792 7.994794 1.078125 7.578125 C1.067708 7.380207 1.057292 7.213542 1.046875 7.078125 C1.036458 6.942708 1.031250 6.812501 1.031250 6.687500 C1.031250 5.937496 1.127603 5.231774 1.320312 4.570312 C1.513022 3.908851 1.828123 3.372398 2.265625 2.960938 C2.703127 2.549477 3.281246 2.343750 4.000000 2.343750 C4.864588 2.343750 5.497394 2.617185 5.898438 3.164062 C6.299481 3.710940 6.500000 4.567702 6.500000 5.734375 C6.500000 6.213544 6.507812 6.718747 6.523438 7.250000 C6.539063 7.781253 6.562500 8.213540 6.593750 8.546875 C6.645834 9.203128 6.778645 10.101557 6.992188 11.242188 C7.205730 12.382818 7.557289 13.645826 8.046875 15.031250 Z M34.687500 27.343750" /></svg>