<svg version="1.1" xmlns="http://www.w3.org/2000/svg" style="fill:rgba(0,0,0,1.0)" width="256" height="256" viewBox="0 0 36.71875 32.8125"><path fill="rgb(255, 255, 255)" d="M16.406250 32.812500 C14.593741 32.812500 12.867196 32.536461 11.226562 31.984375 C9.585929 31.432289 8.083340 30.653651 6.718750 29.648438 C5.354160 28.643224 4.169276 27.455736 3.164062 26.085938 C2.158849 24.716139 1.380211 23.210946 0.828125 21.570312 C0.276039 19.929679 0.000000 18.203134 0.000000 16.390625 C0.000000 14.578116 0.276039 12.851571 0.828125 11.210938 C1.380211 9.570304 2.158849 8.067715 3.164062 6.703125 C4.169276 5.338535 5.354160 4.156255 6.718750 3.156250 C8.083340 2.156245 9.585929 1.380211 11.226562 0.828125 C12.867196 0.276039 14.593741 -0.000000 16.406250 -0.000000 C18.218759 -0.000000 19.945304 0.276039 21.585938 0.828125 C23.226571 1.380211 24.729160 2.156245 26.093750 3.156250 C27.458340 4.156255 28.643224 5.338535 29.648438 6.703125 C30.653651 8.067715 31.432289 9.570304 31.984375 11.210938 C32.536461 12.851571 32.812500 14.578116 32.812500 16.390625 C32.812500 18.203134 32.536461 19.929679 31.984375 21.570312 C31.432289 23.210946 30.653651 24.716139 29.648438 26.085938 C28.643224 27.455736 27.458340 28.643224 26.093750 29.648438 C24.729160 30.653651 23.226571 31.432289 21.585938 31.984375 C19.945304 32.536461 18.218759 32.812500 16.406250 32.812500 Z M10.265625 20.156250 C9.661455 20.156250 9.111982 20.010418 8.617188 19.718750 C8.122393 19.427082 7.729168 19.033857 7.437500 18.539062 C7.145832 18.044268 7.000000 17.500003 7.000000 16.906250 C7.000000 16.302080 7.145832 15.755211 7.437500 15.265625 C7.729168 14.776039 8.119789 14.385418 8.609375 14.093750 C9.098961 13.802082 9.640622 13.656250 10.234375 13.656250 C10.838545 13.656250 11.388018 13.802082 11.882812 14.093750 C12.377607 14.385418 12.770832 14.776039 13.062500 15.265625 C13.354168 15.755211 13.500000 16.302080 13.500000 16.906250 C13.500000 17.500003 13.354168 18.044268 13.062500 18.539062 C12.770832 19.033857 12.380211 19.427082 11.890625 19.718750 C11.401039 20.010418 10.859378 20.156250 10.265625 20.156250 Z M21.812500 27.421875 C22.520837 27.421875 23.208330 27.304689 23.875000 27.070312 C24.541670 26.835936 25.119789 26.500002 25.609375 26.062500 L23.921875 24.218750 C23.401039 24.687502 22.708338 24.921875 21.843750 24.921875 C21.229164 24.921875 20.736981 24.682294 20.367188 24.203125 C19.997394 23.723956 19.812500 23.072921 19.812500 22.250000 C19.812500 21.406246 20.057289 20.601566 20.546875 19.835938 C21.036461 19.070309 21.593747 18.307295 22.218750 17.546875 C22.916670 16.682287 23.559893 15.791671 24.148438 14.875000 C24.736982 13.958329 25.031250 12.942714 25.031250 11.828125 C25.031250 10.630202 24.739586 9.539067 24.156250 8.554688 C23.572914 7.570308 22.791672 6.786461 21.812500 6.203125 C20.833328 5.619789 19.750006 5.328125 18.562500 5.328125 C17.510411 5.328125 16.539067 5.552081 15.648438 6.000000 C14.757808 6.447919 14.010420 7.059892 13.406250 7.835938 C12.802080 8.611983 12.395834 9.489578 12.187500 10.468750 C12.156250 10.625001 12.130208 10.783853 12.109375 10.945312 C12.088542 11.106772 12.072917 11.270833 12.062500 11.437500 C11.781249 11.354166 11.489585 11.286459 11.187500 11.234375 C10.885415 11.182291 10.578127 11.156250 10.265625 11.156250 C9.203120 11.156250 8.236984 11.414060 7.367188 11.929688 C6.497391 12.445315 5.802086 13.138016 5.281250 14.007812 C4.760414 14.877609 4.500000 15.843745 4.500000 16.906250 C4.500000 17.958339 4.760414 18.921871 5.281250 19.796875 C5.802086 20.671879 6.497391 21.367185 7.367188 21.882812 C8.236984 22.398440 9.203120 22.656250 10.265625 22.656250 C11.317714 22.656250 12.278641 22.398440 13.148438 21.882812 C14.018234 21.367185 14.710935 20.671879 15.226562 19.796875 C15.742190 18.921871 16.000000 17.958339 16.000000 16.906250 C16.000000 16.218747 15.911459 15.645836 15.734375 15.187500 C15.557291 14.729164 15.359376 14.302085 15.140625 13.906250 C14.963541 13.572915 14.820313 13.239585 14.710938 12.906250 C14.601562 12.572915 14.546875 12.213544 14.546875 11.828125 C14.546875 11.088538 14.726561 10.416670 15.085938 9.812500 C15.445314 9.208330 15.929684 8.726564 16.539062 8.367188 C17.148441 8.007811 17.822913 7.828125 18.562500 7.828125 C19.291670 7.828125 19.955726 7.984373 20.554688 8.296875 C21.153649 8.609377 21.632811 9.062497 21.992188 9.656250 C22.351564 10.250003 22.531250 10.973954 22.531250 11.828125 C22.531250 12.578129 22.304690 13.299476 21.851562 13.992188 C21.398435 14.684899 20.864586 15.401038 20.250000 16.140625 C19.541663 16.994796 18.875003 17.916662 18.250000 18.906250 C17.624997 19.895838 17.312500 21.010410 17.312500 22.250000 C17.312500 23.750008 17.731767 24.986974 18.570312 25.960938 C19.408858 26.934901 20.489577 27.421875 21.812500 27.421875 Z M36.718750 27.343750" /></svg>