<svg version="1.1" xmlns="http://www.w3.org/2000/svg" style="fill:rgba(0,0,0,1.0)" width="256" height="256" viewBox="0 0 35.62992785625351 32.8125"><path fill="rgb(255, 255, 255)" d="M24.562500 32.812500 C23.177076 32.812500 21.924485 32.385421 20.804688 31.531250 C19.684890 30.677079 18.932294 29.552090 18.546875 28.156250 L17.656250 24.890625 L14.718750 25.718750 L14.484375 24.781250 L14.890625 25.046875 C14.223955 26.338548 13.268235 27.364580 12.023438 28.125000 C10.778640 28.885420 9.432299 29.265625 7.984375 29.265625 C6.713535 29.265625 5.549484 28.992190 4.492188 28.445312 C3.434891 27.898435 2.549483 27.161463 1.835938 26.234375 C1.122392 25.307287 0.638022 24.263027 0.382812 23.101562 C0.127603 21.940098 0.161457 20.739590 0.484375 19.500000 L3.781250 7.093750 L6.734375 7.906250 L7.609375 4.656250 C7.984377 3.249993 8.731765 2.122400 9.851562 1.273438 C10.971360 0.424475 12.218743 -0.000000 13.593750 -0.000000 C14.916673 -0.000000 16.111974 0.369788 17.179688 1.109375 C18.247401 1.848962 19.005206 2.807286 19.453125 3.984375 L18.781250 3.546875 C19.958339 3.526042 21.067703 3.749998 22.109375 4.218750 C23.151047 4.687502 24.054684 5.354162 24.820312 6.218750 C25.585941 7.083338 26.124998 8.104161 26.437500 9.281250 L30.625000 24.906250 C30.895835 25.927088 30.927084 26.908849 30.718750 27.851562 C30.510416 28.794276 30.114586 29.638017 29.531250 30.382812 C28.947914 31.127608 28.229171 31.718748 27.375000 32.156250 C26.520829 32.593752 25.583338 32.812500 24.562500 32.812500 Z M8.015625 24.687500 C8.713545 24.687500 9.348955 24.471356 9.921875 24.039062 C10.494795 23.606769 10.874999 23.036462 11.062500 22.328125 L11.531250 20.546875 C10.864580 20.869793 10.166670 21.031250 9.437500 21.031250 C8.624996 21.031250 7.861983 20.838544 7.148438 20.453125 C6.434892 20.067706 5.854169 19.536462 5.406250 18.859375 L4.921875 20.671875 C4.744791 21.338545 4.776040 21.979164 5.015625 22.593750 C5.255210 23.208336 5.643226 23.710936 6.179688 24.101562 C6.716149 24.492189 7.328122 24.687500 8.015625 24.687500 Z M8.000000 27.703125 C9.364590 27.703125 10.588536 27.276046 11.671875 26.421875 C12.755214 25.567704 13.520831 24.458340 13.968750 23.093750 L14.000000 23.000000 L13.250000 20.203125 L12.578125 22.734375 C12.296874 23.786464 11.726567 24.638018 10.867188 25.289062 C10.007808 25.940107 9.057297 26.265625 8.015625 26.265625 C6.994787 26.265625 6.085941 25.973961 5.289062 25.390625 C4.492184 24.807289 3.914064 24.054692 3.554688 23.132812 C3.195311 22.210933 3.145832 21.255213 3.406250 20.265625 L6.312500 9.406250 L4.890625 9.015625 L2.000000 19.906250 C1.739582 20.895838 1.710936 21.854162 1.914062 22.781250 C2.117189 23.708338 2.502601 24.541663 3.070312 25.281250 C3.638024 26.020837 4.343746 26.609373 5.187500 27.046875 C6.031254 27.484377 6.968745 27.703125 8.000000 27.703125 Z M15.828125 23.781250 L17.250000 23.390625 L14.343750 12.531250 C14.229166 12.093748 14.182292 11.635419 14.203125 11.156250 C14.223958 10.677081 14.286458 10.239585 14.390625 9.843750 L15.234375 6.703125 C15.265625 6.557291 15.286458 6.406251 15.296875 6.250000 C15.307292 6.093749 15.260417 5.911459 15.156250 5.703125 L15.703125 6.000000 C14.921871 6.479169 14.281252 7.091142 13.781250 7.835938 C13.281248 8.580733 12.955730 9.388016 12.804688 10.257812 C12.653645 11.127609 12.692707 12.005204 12.921875 12.890625 Z M24.546875 28.375000 C24.911460 28.375000 25.231769 28.257814 25.507812 28.023438 C25.783856 27.789061 25.986979 27.497398 26.117188 27.148438 C26.247396 26.799477 26.265625 26.447918 26.171875 26.093750 L25.296875 22.843750 L22.640625 23.578125 L20.765625 16.687500 C20.734375 16.572916 20.684896 16.492188 20.617188 16.445312 C20.549479 16.398437 20.473959 16.375000 20.390625 16.375000 C20.244791 16.375000 20.143229 16.432291 20.085938 16.546875 C20.028646 16.661459 20.010417 16.760416 20.031250 16.843750 L22.718750 27.062500 C22.833334 27.510419 23.054686 27.841145 23.382812 28.054688 C23.710939 28.268230 24.098956 28.375000 24.546875 28.375000 Z M9.437500 16.593750 C9.520834 16.593750 9.596354 16.567709 9.664062 16.515625 C9.731771 16.463541 9.781250 16.385417 9.812500 16.281250 L11.343750 10.734375 L11.203125 12.109375 C11.182292 11.973958 11.169271 11.838542 11.164062 11.703125 C11.158854 11.567708 11.156250 11.432292 11.156250 11.296875 C11.156250 9.921868 11.502601 8.632819 12.195312 7.429688 C12.888024 6.226556 13.833327 5.281253 15.031250 4.593750 L14.921875 5.187500 C14.765624 4.947915 14.565105 4.760417 14.320312 4.625000 C14.075520 4.489583 13.791668 4.421875 13.468750 4.421875 C13.020831 4.421875 12.658856 4.541665 12.382812 4.781250 C12.106769 5.020835 11.901042 5.395831 11.765625 5.906250 L9.078125 16.125000 C9.057292 16.218750 9.078125 16.320312 9.140625 16.429688 C9.203125 16.539063 9.302083 16.593750 9.437500 16.593750 Z M9.453125 19.468750 C10.046878 19.468750 10.627601 19.304689 11.195312 18.976562 C11.763024 18.648436 12.145832 18.145837 12.343750 17.468750 L12.437500 17.140625 L11.718750 14.421875 L11.093750 16.671875 C10.989583 17.057294 10.778647 17.372395 10.460938 17.617188 C10.143228 17.861980 9.791669 17.984375 9.406250 17.984375 C8.812497 17.984375 8.354168 17.747398 8.031250 17.273438 C7.708332 16.799477 7.614583 16.302086 7.750000 15.781250 L10.500000 5.421875 C10.687501 4.713538 11.078122 4.135419 11.671875 3.687500 C12.265628 3.239581 12.916663 3.015625 13.625000 3.015625 C14.343754 3.015625 14.968747 3.218748 15.500000 3.625000 C16.031253 4.031252 16.416665 4.549476 16.656250 5.179688 C16.895835 5.809899 16.927084 6.453122 16.750000 7.109375 L15.843750 10.531250 C15.781250 10.781251 15.750000 11.046874 15.750000 11.328125 C15.750000 11.609376 15.786458 11.880207 15.859375 12.140625 L16.421875 14.218750 L16.015625 14.515625 C16.171876 14.265624 16.309895 14.049480 16.429688 13.867188 C16.549480 13.684895 16.723957 13.468751 16.953125 13.218750 L16.421875 13.953125 L18.156250 7.484375 C18.427085 6.494787 18.388023 5.546880 18.039062 4.640625 C17.690102 3.734370 17.125004 2.994795 16.343750 2.421875 C15.562496 1.848955 14.645839 1.562500 13.593750 1.562500 C12.562495 1.562500 11.632817 1.882809 10.804688 2.523438 C9.976558 3.164066 9.416668 4.010411 9.125000 5.062500 L6.250000 15.703125 C6.083332 16.338545 6.138019 16.945310 6.414062 17.523438 C6.690106 18.101565 7.104164 18.570311 7.656250 18.929688 C8.208336 19.289064 8.807288 19.468750 9.453125 19.468750 Z M24.531250 31.250000 C25.583339 31.250000 26.502600 30.958336 27.289062 30.375000 C28.075525 29.791664 28.640623 29.046880 28.984375 28.140625 C29.328127 27.234370 29.369793 26.291672 29.109375 25.312500 L24.921875 9.687500 C24.588540 8.447910 23.950526 7.421879 23.007812 6.609375 C22.065099 5.796871 20.994798 5.307292 19.796875 5.140625 C19.859375 5.515627 19.890625 5.890623 19.890625 6.265625 C19.890625 6.338542 19.890625 6.406250 19.890625 6.468750 C19.890625 6.531250 19.885417 6.598958 19.875000 6.671875 C20.729171 6.838542 21.486976 7.226559 22.148438 7.835938 C22.809899 8.445316 23.260415 9.197912 23.500000 10.093750 L27.671875 25.687500 C27.859376 26.364587 27.828126 27.015622 27.578125 27.640625 C27.328124 28.265628 26.932294 28.778644 26.390625 29.179688 C25.848956 29.580731 25.229170 29.781250 24.531250 29.781250 C23.822913 29.781250 23.177086 29.559898 22.593750 29.117188 C22.010414 28.674477 21.625001 28.093754 21.437500 27.375000 L18.687500 17.015625 C18.552083 16.484372 18.648436 15.986981 18.976562 15.523438 C19.304689 15.059894 19.755205 14.828125 20.328125 14.828125 C20.713544 14.828125 21.065103 14.947915 21.382812 15.187500 C21.700522 15.427085 21.911458 15.744790 22.015625 16.140625 L23.515625 21.703125 L24.890625 21.328125 L23.312500 15.437500 C23.114582 14.718746 22.726565 14.192710 22.148438 13.859375 C21.570310 13.526040 20.973961 13.359375 20.359375 13.359375 C19.661455 13.359375 19.044274 13.554686 18.507812 13.945312 C17.971351 14.335939 17.580730 14.838539 17.335938 15.453125 C17.091145 16.067711 17.057291 16.713538 17.234375 17.390625 L20.046875 27.750000 C20.338543 28.802089 20.901038 29.648434 21.734375 30.289062 C22.567712 30.929691 23.499995 31.250000 24.531250 31.250000 Z M18.343750 12.843750 L18.125000 12.375000 C18.447918 12.177082 18.820310 12.031250 19.242188 11.937500 C19.664065 11.843750 20.046873 11.796875 20.390625 11.796875 C21.130212 11.796875 21.822913 11.958332 22.468750 12.281250 L22.000000 10.500000 C21.843749 9.895830 21.544273 9.393231 21.101562 8.992188 C20.658852 8.591144 20.156253 8.328126 19.593750 8.203125 Z M35.843750 27.343750" /></svg>