<svg version="1.1" xmlns="http://www.w3.org/2000/svg" style="fill:rgba(0,0,0,1.0)" width="256" height="256" viewBox="0 0 30.9375 32.8125"><path fill="rgb(255, 255, 255)" d="M3.250000 21.125000 L3.250000 8.953125 C3.250000 7.505201 3.367186 6.226568 3.601562 5.117188 C3.835939 4.007807 4.179685 3.072920 4.632812 2.312500 C5.085940 1.552080 5.635413 0.976564 6.281250 0.585938 C6.927087 0.195311 7.661454 -0.000000 8.484375 -0.000000 C9.296879 -0.000000 10.140621 0.158853 11.015625 0.476562 C11.890629 0.794272 12.729163 1.234372 13.531250 1.796875 C14.364588 2.380211 15.119788 3.070309 15.796875 3.867188 C16.473962 4.664066 17.013019 5.533849 17.414062 6.476562 C17.815106 7.419276 18.015625 8.395828 18.015625 9.406250 L18.015625 21.125000 L16.140625 21.125000 L16.140625 10.843750 C16.140625 9.187492 15.875003 7.770839 15.343750 6.593750 C14.812497 5.416661 13.864590 4.338547 12.500000 3.359375 C11.135410 2.369787 9.796882 1.875000 8.484375 1.875000 C8.015623 1.875000 7.580731 1.994790 7.179688 2.234375 C6.778644 2.473960 6.424481 2.864581 6.117188 3.406250 C5.809894 3.947919 5.570313 4.677079 5.398438 5.593750 C5.226562 6.510421 5.140625 7.645827 5.140625 9.000000 L5.140625 21.125000 Z M10.625000 32.812500 C9.458328 32.812500 8.304693 32.768230 7.164062 32.679688 C6.023432 32.591145 4.989588 32.471355 4.062500 32.320312 C3.135412 32.169270 2.390628 32.010418 1.828125 31.843750 C1.203122 31.645832 0.742189 31.406251 0.445312 31.125000 C0.148436 30.843749 0.000000 30.494794 0.000000 30.078125 L0.000000 24.671875 L2.156250 23.687500 L2.156250 20.265625 L3.718750 19.515625 C4.427087 19.932294 5.416660 20.270832 6.687500 20.531250 C7.958340 20.791668 9.270827 20.921875 10.625000 20.921875 C11.989590 20.921875 13.304681 20.791668 14.570312 20.531250 C15.835944 20.270832 16.822913 19.932294 17.531250 19.515625 L19.093750 20.265625 L19.093750 23.687500 L21.250000 24.671875 L21.250000 30.078125 C21.250000 30.494794 21.101564 30.843749 20.804688 31.125000 C20.507811 31.406251 20.046878 31.645832 19.421875 31.843750 C18.869789 32.010418 18.127609 32.169270 17.195312 32.320312 C16.263016 32.471355 15.229172 32.591145 14.093750 32.679688 C12.958328 32.768230 11.802089 32.812500 10.625000 32.812500 Z M13.828125 30.828125 C15.380216 30.713541 16.723953 30.500002 17.859375 30.187500 L17.859375 26.093750 C17.265622 26.270834 16.630212 26.427083 15.953125 26.562500 C15.276038 26.697917 14.567712 26.807291 13.828125 26.890625 Z M13.093750 25.171875 C13.677086 25.119791 14.187498 25.057292 14.625000 24.984375 C15.062502 24.911458 15.536456 24.812501 16.046875 24.687500 L16.046875 21.750000 C15.536456 21.885417 15.059898 21.994791 14.617188 22.078125 C14.174477 22.161459 13.666670 22.239583 13.093750 22.312500 Z M14.718750 12.359375 C13.312493 12.359375 12.013027 12.083336 10.820312 11.531250 C9.627598 10.979164 8.638025 10.218755 7.851562 9.250000 C7.065100 8.281245 6.583334 7.182298 6.406250 5.953125 L8.296875 5.953125 C8.473959 6.828129 8.867184 7.606767 9.476562 8.289062 C10.085941 8.971358 10.846350 9.507811 11.757812 9.898438 C12.669275 10.289064 13.656245 10.484375 14.718750 10.484375 Z M30.937500 27.343750" /></svg>