<svg version="1.1" xmlns="http://www.w3.org/2000/svg" style="fill:rgba(0,0,0,1.0)" width="256" height="256" viewBox="0 0 36.625 32.8125"><path fill="rgb(255, 255, 255)" d="M24.984375 27.578125 C23.744785 27.578125 22.651046 26.674488 21.703125 24.867188 C20.755204 23.059887 20.067710 20.588557 19.640625 17.453125 L21.187500 17.218750 C21.437501 18.979175 21.765623 20.505202 22.171875 21.796875 C22.578127 23.088548 23.023435 24.088538 23.507812 24.796875 C23.992190 25.505212 24.484372 25.859375 24.984375 25.859375 C25.494794 25.859375 25.968748 25.523441 26.406250 24.851562 C26.843752 24.179684 27.195311 23.312505 27.460938 22.250000 C27.726564 21.187495 27.859375 20.072922 27.859375 18.906250 C27.859375 17.583327 27.458337 16.414068 26.656250 15.398438 C25.854163 14.382807 24.744799 13.588545 23.328125 13.015625 C21.911451 12.442705 20.270843 12.156250 18.406250 12.156250 C17.260411 12.156250 16.315108 12.234374 15.570312 12.390625 C14.825517 12.546876 14.265627 12.625000 13.890625 12.625000 C13.307289 12.625000 12.781252 12.356774 12.312500 11.820312 C11.843748 11.283851 11.473960 10.531255 11.203125 9.562500 L10.828125 8.203125 C10.578124 7.296870 10.317710 6.593753 10.046875 6.093750 C9.776040 5.593747 9.466148 5.244793 9.117188 5.046875 C8.768227 4.848957 8.338544 4.750000 7.828125 4.750000 L4.468750 4.750000 C4.166665 4.822917 3.791669 4.947916 3.343750 5.125000 C2.895831 5.302084 2.486981 5.499999 2.117188 5.718750 C1.747394 5.937501 1.526042 6.156249 1.453125 6.375000 C1.942711 6.437500 2.187500 6.572916 2.187500 6.781250 C2.187500 6.947917 2.067710 7.122395 1.828125 7.304688 C1.588540 7.486980 1.385418 7.604166 1.218750 7.656250 C1.250000 7.885418 1.458331 8.072916 1.843750 8.218750 C2.229169 8.364584 2.630206 8.437500 3.046875 8.437500 C3.380210 8.437500 3.687499 8.390625 3.968750 8.296875 C5.114589 8.953128 5.890623 9.901035 6.296875 11.140625 L5.656250 15.531250 C5.302082 15.374999 4.916669 14.971357 4.500000 14.320312 C4.083331 13.669268 3.710939 12.916671 3.382812 12.062500 C3.054686 11.208329 2.833334 10.406254 2.718750 9.656250 C1.864579 9.656250 1.197919 9.455731 0.718750 9.054688 C0.239581 8.653644 0.000000 8.088545 0.000000 7.359375 C0.000000 7.223958 0.028646 7.059897 0.085938 6.867188 C0.143229 6.674478 0.171875 6.510417 0.171875 6.375000 C0.171875 5.760414 0.570309 5.197919 1.367188 4.687500 C2.164066 4.177081 3.312493 3.760418 4.812500 3.437500 L6.796875 2.640625 C8.036465 2.640625 9.135412 2.997392 10.093750 3.710938 C11.052088 4.424483 11.703123 5.369786 12.046875 6.546875 L12.515625 8.171875 C12.828127 9.244797 13.104165 9.968748 13.343750 10.343750 C13.583335 10.718752 13.869790 10.906250 14.203125 10.906250 C14.505210 10.906250 14.989580 10.828126 15.656250 10.671875 C16.322920 10.515624 17.239578 10.437500 18.406250 10.437500 C20.572928 10.437500 22.510408 10.807288 24.218750 11.546875 C25.927092 12.286462 27.273433 13.294264 28.257812 14.570312 C29.242192 15.846361 29.734375 17.291659 29.734375 18.906250 C29.734375 20.427091 29.518231 21.846348 29.085938 23.164062 C28.653644 24.481777 28.078129 25.546871 27.359375 26.359375 C26.640621 27.171879 25.848963 27.578125 24.984375 27.578125 Z M14.031250 32.812500 C13.770832 32.812500 13.515626 32.770834 13.265625 32.687500 C13.015624 32.604166 12.890625 32.510417 12.890625 32.406250 C12.890625 32.291666 12.968749 32.101564 13.125000 31.835938 C13.281251 31.570311 13.427083 31.390625 13.562500 31.296875 L13.562500 27.468750 L15.421875 27.609375 L15.187500 32.406250 C15.177083 32.489584 15.052085 32.578125 14.812500 32.671875 C14.572915 32.765625 14.312501 32.812500 14.031250 32.812500 Z M17.937500 31.562500 C17.677082 31.562500 17.421876 31.520834 17.171875 31.437500 C16.921874 31.354166 16.796875 31.260417 16.796875 31.156250 C16.796875 31.031249 16.877603 30.838543 17.039062 30.578125 C17.200522 30.317707 17.343749 30.140625 17.468750 30.046875 C17.468750 29.411455 17.453125 28.851565 17.421875 28.367188 C17.390625 27.882810 17.341146 27.398440 17.273438 26.914062 C17.205729 26.429685 17.104167 25.875003 16.968750 25.250000 L19.765625 24.984375 C19.671875 25.869796 19.447918 26.624997 19.093750 27.250000 L18.953125 31.156250 C18.953125 31.260417 18.851564 31.354166 18.648438 31.437500 C18.445311 31.520834 18.208335 31.562500 17.937500 31.562500 Z M24.640625 32.812500 C24.380207 32.812500 24.125001 32.770834 23.875000 32.687500 C23.624999 32.604166 23.500000 32.510417 23.500000 32.406250 C23.500000 32.291666 23.611978 32.117189 23.835938 31.882812 C24.059897 31.648436 24.171875 31.453126 24.171875 31.296875 L24.171875 26.687500 L25.796875 26.968750 L25.796875 32.406250 C25.796875 32.489584 25.674480 32.578125 25.429688 32.671875 C25.184895 32.765625 24.921876 32.812500 24.640625 32.812500 Z M16.703125 25.593750 L17.765625 23.796875 C18.348961 23.796875 18.921872 23.718751 19.484375 23.562500 C20.046878 23.406249 20.572914 23.161460 21.062500 22.828125 L21.562500 24.531250 C20.947914 24.906252 20.244796 25.177082 19.453125 25.343750 C18.661454 25.510418 17.744797 25.593750 16.703125 25.593750 Z M14.421875 28.109375 C12.630199 28.109375 11.645834 26.744805 11.468750 24.015625 C11.124998 23.807291 10.789064 23.515627 10.460938 23.140625 C10.132811 22.765623 9.807293 22.307294 9.484375 21.765625 C8.661454 21.359373 7.911462 20.750004 7.234375 19.937500 C6.557288 19.124996 6.018231 18.213547 5.617188 17.203125 C5.216144 16.192703 5.015625 15.197922 5.015625 14.218750 C5.015625 13.208328 5.161457 12.236984 5.453125 11.304688 C5.744793 10.372391 6.083331 9.486983 6.468750 8.648438 C6.854169 7.809892 7.192707 7.023441 7.484375 6.289062 C7.776043 5.554684 7.921875 4.880211 7.921875 4.265625 L9.812500 4.265625 C9.812500 4.901045 9.656252 5.617184 9.343750 6.414062 C9.031248 7.210941 8.674481 8.052079 8.273438 8.937500 C7.872394 9.822921 7.515627 10.716141 7.203125 11.617188 C6.890623 12.518234 6.734375 13.385413 6.734375 14.218750 C6.734375 14.937504 6.846353 15.630205 7.070312 16.296875 C7.294272 16.963545 7.624998 17.598955 8.062500 18.203125 C8.500002 18.807295 9.046872 19.380206 9.703125 19.921875 L9.375000 20.843750 C9.343750 20.510415 9.328125 20.197918 9.328125 19.906250 C9.328125 19.208330 9.393229 18.565107 9.523438 17.976562 C9.653646 17.388018 9.812499 16.864586 10.000000 16.406250 L11.406250 17.062500 C11.052082 18.083338 10.875000 18.937497 10.875000 19.625000 C10.875000 20.072919 10.966145 20.526039 11.148438 20.984375 C11.330730 21.442711 11.619790 21.817707 12.015625 22.109375 L13.015625 22.828125 C13.015625 24.057298 13.132811 24.958330 13.367188 25.531250 C13.601564 26.104170 13.973956 26.390625 14.484375 26.390625 C14.880210 26.390625 15.192707 26.239585 15.421875 25.937500 C15.651043 25.635415 15.765625 25.213544 15.765625 24.671875 C16.442712 24.671875 16.781250 24.057298 16.781250 22.828125 C16.781250 22.078121 16.630210 21.416670 16.328125 20.843750 L17.718750 20.187500 C17.927084 20.666669 18.083333 21.153643 18.187500 21.648438 C18.291667 22.143232 18.343750 22.614581 18.343750 23.062500 C18.343750 23.697920 18.242189 24.226560 18.039062 24.648438 C17.835936 25.070315 17.536460 25.281250 17.140625 25.281250 C17.140625 26.072921 16.895836 26.742185 16.406250 27.289062 C15.916664 27.835940 15.255212 28.109375 14.421875 28.109375 Z M4.859375 7.093750 C4.692708 7.093750 4.549480 7.028646 4.429688 6.898438 C4.309895 6.768229 4.250000 6.609376 4.250000 6.421875 C4.145833 6.421875 4.059896 6.369792 3.992188 6.265625 C3.924479 6.161458 3.890625 6.026042 3.890625 5.859375 L4.859375 5.734375 C5.026042 5.744792 5.169270 5.815104 5.289062 5.945312 C5.408855 6.075521 5.468750 6.234374 5.468750 6.421875 C5.468750 6.609376 5.411459 6.768229 5.296875 6.898438 C5.182291 7.028646 5.036459 7.093750 4.859375 7.093750 Z M27.578125 31.968750 C27.317707 31.968750 27.085939 31.927084 26.882812 31.843750 C26.679686 31.760416 26.578125 31.666667 26.578125 31.562500 C26.578125 31.447916 26.700520 31.289064 26.945312 31.085938 C27.190105 30.882811 27.312500 30.671876 27.312500 30.453125 C27.312500 27.921862 27.203126 26.390628 26.984375 25.859375 L28.078125 24.312500 C28.296876 24.562501 28.499999 24.854165 28.687500 25.187500 C28.875001 25.520835 28.968750 25.901040 28.968750 26.328125 C28.968750 27.067712 28.963542 27.687498 28.953125 28.187500 C28.942708 28.687502 28.932292 29.184893 28.921875 29.679688 C28.911458 30.174482 28.906250 30.802080 28.906250 31.562500 C28.906250 31.645834 28.755210 31.734375 28.453125 31.828125 C28.151040 31.921875 27.859376 31.968750 27.578125 31.968750 Z M7.796875 6.156250 C7.796875 5.833332 7.653647 5.549480 7.367188 5.304688 C7.080728 5.059895 6.661461 4.937500 6.109375 4.937500 C5.807290 4.937500 5.468752 4.986979 5.093750 5.085938 C4.718748 5.184896 4.416668 5.234375 4.187500 5.234375 C3.802081 5.234375 3.541667 5.091147 3.406250 4.804688 C3.270833 4.518228 3.203125 4.317709 3.203125 4.203125 C3.203125 3.807290 3.518226 3.421877 4.148438 3.046875 C4.778649 2.671873 5.505204 2.484375 6.328125 2.484375 C6.880211 2.484375 7.432289 2.593749 7.984375 2.812500 C8.536461 3.031251 8.997394 3.309894 9.367188 3.648438 C9.736981 3.986981 9.921875 4.338540 9.921875 4.703125 Z M4.406250 3.265625 C4.406250 3.078124 4.309897 2.846356 4.117188 2.570312 C3.924478 2.294269 3.734376 2.028647 3.546875 1.773438 C3.359374 1.518228 3.265625 1.328126 3.265625 1.203125 C3.265625 1.036458 3.380207 0.953125 3.609375 0.953125 C3.901043 0.953125 4.218748 1.070311 4.562500 1.304688 C4.906252 1.539064 5.213540 1.822915 5.484375 2.156250 C5.755210 2.489585 5.916666 2.807290 5.968750 3.109375 Z M6.875000 3.875000 C6.875000 3.208330 6.783855 2.656252 6.601562 2.218750 C6.419270 1.781248 6.236980 1.414064 6.054688 1.117188 C5.872395 0.820311 5.781250 0.552085 5.781250 0.312500 C5.781250 0.104166 5.864582 -0.000000 6.031250 -0.000000 C6.333335 -0.000000 6.671873 0.161457 7.046875 0.484375 C7.421877 0.807293 7.749999 1.221352 8.031250 1.726562 C8.312501 2.231773 8.463542 2.770830 8.484375 3.343750 Z M29.859375 17.781250 C29.713541 17.781250 29.567709 17.750000 29.421875 17.687500 L28.546875 15.187500 C28.838543 14.833332 28.984375 14.510418 28.984375 14.218750 C28.984375 13.989582 28.895834 13.791667 28.718750 13.625000 C28.541666 13.458333 28.343751 13.375000 28.125000 13.375000 C27.822915 13.375000 27.583334 13.489582 27.406250 13.718750 L25.937500 12.562500 C26.239585 12.104164 26.622394 11.760418 27.085938 11.531250 C27.549481 11.302082 28.046872 11.187500 28.578125 11.187500 C29.223962 11.187500 29.736977 11.302082 30.117188 11.531250 C30.497398 11.760418 30.796874 12.052082 31.015625 12.406250 C31.244793 12.770835 31.414062 13.171873 31.523438 13.609375 C31.632813 14.046877 31.749999 14.463540 31.875000 14.859375 C31.958334 15.130210 32.104166 15.364582 32.312500 15.562500 C32.520834 15.760418 32.625000 15.932291 32.625000 16.078125 C32.625000 16.276043 32.515626 16.442708 32.296875 16.578125 C32.078124 16.713542 31.843751 16.781250 31.593750 16.781250 C31.427082 16.781250 31.276042 16.744792 31.140625 16.671875 C31.140625 16.963543 31.005210 17.221353 30.734375 17.445312 C30.463540 17.669272 30.171877 17.781250 29.859375 17.781250 Z M36.625000 27.343750" /></svg>