<svg version="1.1" xmlns="http://www.w3.org/2000/svg" style="fill:rgba(0,0,0,1.0)" width="256" height="256" viewBox="0 0 34.875 32.8125"><path fill="rgb(255, 255, 255)" d="M10.562500 27.015625 C10.520833 26.078120 10.424480 25.179692 10.273438 24.320312 C10.122395 23.460933 9.979167 22.507818 9.843750 21.460938 C9.708333 20.414057 9.640625 19.140633 9.640625 17.640625 C9.640625 17.109372 9.692708 16.622398 9.796875 16.179688 C9.901042 15.736977 10.088540 15.268232 10.359375 14.773438 C10.630210 14.278643 11.015622 13.682295 11.515625 12.984375 L14.562500 8.796875 L17.609375 12.984375 C18.119794 13.682295 18.507811 14.278643 18.773438 14.773438 C19.039064 15.268232 19.223958 15.736977 19.328125 16.179688 C19.432292 16.622398 19.484375 17.109372 19.484375 17.640625 C19.484375 19.140633 19.416667 20.414057 19.281250 21.460938 C19.145833 22.507818 19.002605 23.460933 18.851562 24.320312 C18.700520 25.179692 18.604167 26.078120 18.562500 27.015625 L16.703125 26.500000 L17.046875 23.984375 C17.182292 23.015620 17.289062 22.174483 17.367188 21.460938 C17.445313 20.747392 17.505208 20.088545 17.546875 19.484375 C17.588542 18.880205 17.609375 18.265628 17.609375 17.640625 C17.609375 17.192706 17.580729 16.791668 17.523438 16.437500 C17.466146 16.083332 17.341147 15.708335 17.148438 15.312500 C16.955728 14.916665 16.656252 14.442711 16.250000 13.890625 L14.562500 11.609375 L12.875000 13.890625 C12.468748 14.442711 12.169272 14.916665 11.976562 15.312500 C11.783853 15.708335 11.658854 16.083332 11.601562 16.437500 C11.544271 16.791668 11.515625 17.192706 11.515625 17.640625 C11.515625 18.265628 11.536458 18.880205 11.578125 19.484375 C11.619792 20.088545 11.682291 20.747392 11.765625 21.460938 C11.848959 22.174483 11.953124 23.015620 12.078125 23.984375 L12.421875 26.500000 Z M7.531250 28.531250 L6.468750 28.312500 L6.937500 25.484375 L10.359375 24.250000 L10.796875 25.343750 L7.906250 26.375000 Z M5.671875 26.531250 L4.687500 25.890625 L6.390625 23.328125 L10.171875 22.281250 L10.468750 23.421875 L7.125000 24.343750 Z M4.562500 23.625000 L3.781250 22.796875 L6.046875 20.906250 L10.359375 20.859375 L10.359375 22.046875 L6.390625 22.109375 Z M10.390625 32.812500 C9.703122 32.812500 9.111982 32.554690 8.617188 32.039062 C8.122393 31.523435 7.875000 30.911462 7.875000 30.203125 C7.875000 29.171870 8.187497 28.354170 8.812500 27.750000 C9.437503 27.145830 10.260412 26.710939 11.281250 26.445312 C12.302088 26.179686 13.395828 26.046875 14.562500 26.046875 C15.739589 26.046875 16.835932 26.179686 17.851562 26.445312 C18.867193 26.710939 19.687497 27.145830 20.312500 27.750000 C20.937503 28.354170 21.250000 29.171870 21.250000 30.203125 C21.250000 30.911462 21.002607 31.523435 20.507812 32.039062 C20.013018 32.554690 19.421878 32.812500 18.734375 32.812500 C18.161455 32.812500 17.598961 32.640627 17.046875 32.296875 C16.723957 32.463542 16.367189 32.591145 15.976562 32.679688 C15.585936 32.768230 15.114586 32.812500 14.562500 32.812500 C14.020831 32.812500 13.554689 32.768230 13.164062 32.679688 C12.773436 32.591145 12.411460 32.463542 12.078125 32.296875 C11.526039 32.640627 10.963545 32.812500 10.390625 32.812500 Z M10.546875 31.109375 C10.796876 31.109375 11.046874 31.041667 11.296875 30.906250 C11.546876 30.770833 11.770832 30.588543 11.968750 30.359375 C12.312502 30.598960 12.682290 30.781249 13.078125 30.906250 C13.473960 31.031251 13.968747 31.093750 14.562500 31.093750 C15.156253 31.093750 15.651040 31.031251 16.046875 30.906250 C16.442710 30.781249 16.812498 30.598960 17.156250 30.359375 C17.354168 30.588543 17.578124 30.770833 17.828125 30.906250 C18.078126 31.041667 18.328124 31.109375 18.578125 31.109375 C18.817710 31.109375 19.010416 31.031251 19.156250 30.875000 C19.302084 30.718749 19.375000 30.505210 19.375000 30.234375 C19.375000 29.723956 19.164065 29.273439 18.742188 28.882812 C18.320310 28.492186 17.747399 28.182293 17.023438 27.953125 C16.299476 27.723957 15.479171 27.609375 14.562500 27.609375 C13.656245 27.609375 12.838545 27.723957 12.109375 27.953125 C11.380205 28.182293 10.804690 28.492186 10.382812 28.882812 C9.960935 29.273439 9.750000 29.723956 9.750000 30.234375 C9.750000 30.505210 9.822916 30.718749 9.968750 30.875000 C10.114584 31.031251 10.307290 31.109375 10.546875 31.109375 Z M10.406250 20.171875 L6.578125 20.093750 L3.250000 18.125000 L3.906250 17.156250 L6.765625 18.875000 L10.406250 18.953125 Z M11.796875 24.546875 L11.390625 23.046875 C12.432297 22.755207 13.489578 22.609375 14.562500 22.609375 C15.635422 22.609375 16.692703 22.755207 17.734375 23.046875 L17.328125 24.546875 C16.390620 24.286457 15.468755 24.156250 14.562500 24.156250 C13.656245 24.156250 12.734380 24.286457 11.796875 24.546875 Z M6.109375 16.750000 C5.588539 16.750000 5.140627 16.562502 4.765625 16.187500 C4.390623 15.812498 4.203125 15.364586 4.203125 14.843750 C4.203125 14.322914 4.390623 13.875002 4.765625 13.500000 C5.140627 13.124998 5.588539 12.937500 6.109375 12.937500 C6.630211 12.937500 7.078123 13.124998 7.453125 13.500000 C7.828127 13.875002 8.015625 14.322914 8.015625 14.843750 C8.015625 15.364586 7.828127 15.812498 7.453125 16.187500 C7.078123 16.562502 6.630211 16.750000 6.109375 16.750000 Z M10.359375 18.859375 C9.755205 18.713541 9.166670 18.471356 8.593750 18.132812 C8.020830 17.794269 7.549481 17.424481 7.179688 17.023438 C6.809894 16.622394 6.625000 16.260418 6.625000 15.937500 C6.625000 15.562498 6.895831 15.375000 7.437500 15.375000 C7.843752 15.375000 8.320310 15.479166 8.867188 15.687500 C9.414065 15.895834 9.911456 16.166665 10.359375 16.500000 Z M21.593750 28.531250 L21.218750 26.375000 L18.328125 25.343750 L18.765625 24.250000 L22.187500 25.484375 L22.656250 28.312500 Z M13.046875 17.453125 C12.786457 17.453125 12.570313 17.367188 12.398438 17.195312 C12.226562 17.023437 12.140625 16.807293 12.140625 16.546875 C12.140625 16.286457 12.226562 16.070313 12.398438 15.898438 C12.570313 15.726562 12.786457 15.640625 13.046875 15.640625 C13.307293 15.640625 13.523437 15.726562 13.695312 15.898438 C13.867188 16.070313 13.953125 16.286457 13.953125 16.546875 C13.953125 16.807293 13.867188 17.023437 13.695312 17.195312 C13.523437 17.367188 13.307293 17.453125 13.046875 17.453125 Z M3.875000 14.812500 C3.124996 14.812500 2.458336 14.515628 1.875000 13.921875 C1.291664 13.328122 0.833335 12.510422 0.500000 11.468750 C0.166665 10.427078 0.000000 9.229173 0.000000 7.875000 C0.000000 6.770828 0.138019 5.742192 0.414062 4.789062 C0.690106 3.835933 1.039060 3.000004 1.460938 2.281250 C1.882815 1.562496 2.325519 1.002606 2.789062 0.601562 C3.252606 0.200519 3.677081 -0.000000 4.062500 -0.000000 C4.614586 -0.000000 5.054686 0.263018 5.382812 0.789062 C5.710939 1.315107 5.875000 1.942705 5.875000 2.671875 C6.062501 2.411457 6.242187 2.226563 6.414062 2.117188 C6.585938 2.007812 6.770832 1.953125 6.968750 1.953125 C7.531253 1.953125 7.973957 2.335934 8.296875 3.101562 C8.619793 3.867191 8.781250 4.812494 8.781250 5.937500 C8.781250 7.552091 8.557294 9.031243 8.109375 10.375000 C7.661456 11.718757 7.067712 12.794267 6.328125 13.601562 C5.588538 14.408858 4.770838 14.812500 3.875000 14.812500 Z M3.968750 13.406250 C4.385419 13.406250 4.794269 13.190106 5.195312 12.757812 C5.596356 12.325519 5.960936 11.742191 6.289062 11.007812 C6.617189 10.273434 6.880207 9.450525 7.078125 8.539062 C7.276043 7.627600 7.375000 6.687505 7.375000 5.718750 C7.375000 5.062497 7.325521 4.523440 7.226562 4.101562 C7.127604 3.679685 6.989584 3.468750 6.812500 3.468750 C6.614582 3.468750 6.367189 3.773434 6.070312 4.382812 C5.773436 4.992191 5.468752 6.140617 5.156250 7.828125 L4.093750 7.609375 C4.572919 5.411447 4.812500 3.838546 4.812500 2.890625 C4.812500 1.921870 4.609377 1.437500 4.203125 1.437500 C3.901040 1.437500 3.585939 1.622394 3.257812 1.992188 C2.929686 2.361981 2.625001 2.859372 2.343750 3.484375 C2.062499 4.109378 1.835938 4.796871 1.664062 5.546875 C1.492187 6.296879 1.406250 7.057288 1.406250 7.828125 C1.406250 8.723963 1.510416 9.598954 1.718750 10.453125 C1.927084 11.307296 2.221352 12.013018 2.601562 12.570312 C2.981773 13.127607 3.437497 13.406250 3.968750 13.406250 Z M23.453125 26.531250 L22.000000 24.343750 L18.656250 23.421875 L18.953125 22.281250 L22.734375 23.328125 L24.437500 25.890625 Z M16.078125 17.453125 C15.817707 17.453125 15.601563 17.367188 15.429688 17.195312 C15.257812 17.023437 15.171875 16.807293 15.171875 16.546875 C15.171875 16.286457 15.257812 16.070313 15.429688 15.898438 C15.601563 15.726562 15.817707 15.640625 16.078125 15.640625 C16.338543 15.640625 16.554687 15.726562 16.726562 15.898438 C16.898438 16.070313 16.984375 16.286457 16.984375 16.546875 C16.984375 16.807293 16.898438 17.023437 16.726562 17.195312 C16.554687 17.367188 16.338543 17.453125 16.078125 17.453125 Z M24.562500 23.625000 L22.734375 22.109375 L18.765625 22.046875 L18.765625 20.859375 L23.078125 20.906250 L25.343750 22.796875 Z M18.765625 18.859375 L18.765625 16.500000 C19.213544 16.166665 19.710935 15.895834 20.257812 15.687500 C20.804690 15.479166 21.281248 15.375000 21.687500 15.375000 C22.229169 15.375000 22.500000 15.562498 22.500000 15.937500 C22.500000 16.260418 22.315106 16.622394 21.945312 17.023438 C21.575519 17.424481 21.104170 17.794269 20.531250 18.132812 C19.958330 18.471356 19.369795 18.713541 18.765625 18.859375 Z M18.718750 20.171875 L18.718750 18.953125 L22.359375 18.875000 L25.218750 17.156250 L25.875000 18.125000 L22.546875 20.093750 Z M11.796875 13.609375 L11.796875 2.609375 C11.796875 1.807288 11.604169 1.406250 11.218750 1.406250 C11.020832 1.406250 10.875000 1.510416 10.781250 1.718750 C10.687500 1.927084 10.640625 2.218748 10.640625 2.593750 L9.078125 2.593750 C9.078125 0.864575 9.791660 -0.000000 11.218750 -0.000000 C11.927087 -0.000000 12.479165 0.210935 12.875000 0.632812 C13.270835 1.054690 13.468750 1.703121 13.468750 2.578125 L13.468750 12.015625 Z M23.015625 16.750000 C22.494789 16.750000 22.046877 16.562502 21.671875 16.187500 C21.296873 15.812498 21.109375 15.364586 21.109375 14.843750 C21.109375 14.322914 21.296873 13.875002 21.671875 13.500000 C22.046877 13.124998 22.494789 12.937500 23.015625 12.937500 C23.536461 12.937500 23.984373 13.124998 24.359375 13.500000 C24.734377 13.875002 24.921875 14.322914 24.921875 14.843750 C24.921875 15.364586 24.734377 15.812498 24.359375 16.187500 C23.984373 16.562502 23.536461 16.750000 23.015625 16.750000 Z M17.328125 13.609375 L15.656250 12.015625 L15.656250 2.578125 C15.656250 1.703121 15.854165 1.054690 16.250000 0.632812 C16.645835 0.210935 17.197913 -0.000000 17.906250 -0.000000 C19.333340 -0.000000 20.046875 0.864575 20.046875 2.593750 L18.484375 2.593750 C18.484375 2.218748 18.440105 1.927084 18.351562 1.718750 C18.263020 1.510416 18.114584 1.406250 17.906250 1.406250 C17.520831 1.406250 17.328125 1.807288 17.328125 2.609375 Z M25.250000 14.812500 C24.364579 14.812500 23.549483 14.408858 22.804688 13.601562 C22.059892 12.794267 21.463544 11.718757 21.015625 10.375000 C20.567706 9.031243 20.343750 7.552091 20.343750 5.937500 C20.343750 4.812494 20.505207 3.867191 20.828125 3.101562 C21.151043 2.335934 21.593747 1.953125 22.156250 1.953125 C22.354168 1.953125 22.539062 2.007812 22.710938 2.117188 C22.882813 2.226563 23.062499 2.411457 23.250000 2.671875 C23.250000 1.942705 23.416665 1.315107 23.750000 0.789062 C24.083335 0.263018 24.520831 -0.000000 25.062500 -0.000000 C25.447919 -0.000000 25.872394 0.200519 26.335938 0.601562 C26.799481 1.002606 27.242185 1.562496 27.664062 2.281250 C28.085940 3.000004 28.434894 3.835933 28.710938 4.789062 C28.986981 5.742192 29.125000 6.770828 29.125000 7.875000 C29.125000 9.229173 28.958335 10.427078 28.625000 11.468750 C28.291665 12.510422 27.835940 13.328122 27.257812 13.921875 C26.679685 14.515628 26.010420 14.812500 25.250000 14.812500 Z M25.156250 13.406250 C25.687503 13.406250 26.143227 13.127607 26.523438 12.570312 C26.903648 12.013018 27.197916 11.307296 27.406250 10.453125 C27.614584 9.598954 27.718750 8.723963 27.718750 7.828125 C27.718750 7.057288 27.632813 6.296879 27.460938 5.546875 C27.289062 4.796871 27.062501 4.109378 26.781250 3.484375 C26.499999 2.859372 26.195314 2.361981 25.867188 1.992188 C25.539061 1.622394 25.223960 1.437500 24.921875 1.437500 C24.515623 1.437500 24.312500 1.921870 24.312500 2.890625 C24.312500 3.838546 24.552081 5.411447 25.031250 7.609375 L23.968750 7.828125 C23.656248 6.140617 23.351564 4.992191 23.054688 4.382812 C22.757811 3.773434 22.510418 3.468750 22.312500 3.468750 C22.135416 3.468750 21.997396 3.679685 21.898438 4.101562 C21.799479 4.523440 21.750000 5.062497 21.750000 5.718750 C21.750000 6.687505 21.848957 7.627600 22.046875 8.539062 C22.244793 9.450525 22.507811 10.273434 22.835938 11.007812 C23.164064 11.742191 23.528644 12.325519 23.929688 12.757812 C24.330731 13.190106 24.739581 13.406250 25.156250 13.406250 Z M34.875000 27.343750" /></svg>