<svg version="1.1" xmlns="http://www.w3.org/2000/svg" style="fill:rgba(0,0,0,1.0)" width="256" height="256" viewBox="0 0 30.15625 32.8125"><path fill="rgb(255, 255, 255)" d="M9.843750 32.812500 C7.385404 32.812500 5.437507 32.611981 4.000000 32.210938 C2.562493 31.809894 1.536461 31.127609 0.921875 30.164062 C0.307289 29.200516 0.000000 27.880217 0.000000 26.203125 C0.000000 24.328116 0.145832 22.486988 0.437500 20.679688 C0.729168 18.872387 1.109373 17.132821 1.578125 15.460938 C2.046877 13.789054 2.536456 12.229174 3.046875 10.781250 C3.255209 10.187497 3.638018 9.695314 4.195312 9.304688 C4.752607 8.914061 5.499995 8.604168 6.437500 8.375000 L6.812500 9.906250 C6.114580 10.072917 5.585939 10.270832 5.226562 10.500000 C4.867186 10.729168 4.630209 10.999998 4.515625 11.312500 C3.598954 13.937513 2.877607 16.499988 2.351562 19.000000 C1.825518 21.500012 1.562500 23.901030 1.562500 26.203125 C1.562500 27.526048 1.794269 28.554684 2.257812 29.289062 C2.721356 30.023441 3.552077 30.533853 4.750000 30.820312 C5.947923 31.106772 7.645822 31.250000 9.843750 31.250000 C12.052094 31.250000 13.752598 31.106772 14.945312 30.820312 C16.138027 30.533853 16.966144 30.023441 17.429688 29.289062 C17.893231 28.554684 18.125000 27.526048 18.125000 26.203125 C18.125000 23.901030 17.864586 21.500012 17.343750 19.000000 C16.822914 16.499988 16.098963 13.937513 15.171875 11.312500 C15.067708 10.999998 14.833335 10.729168 14.468750 10.500000 C14.104165 10.270832 13.572920 10.072917 12.875000 9.906250 L13.250000 8.375000 C14.187505 8.604168 14.934893 8.914061 15.492188 9.304688 C16.049482 9.695314 16.432291 10.187497 16.640625 10.781250 C17.161461 12.229174 17.653644 13.789054 18.117188 15.460938 C18.580731 17.132821 18.958332 18.872387 19.250000 20.679688 C19.541668 22.486988 19.687500 24.328116 19.687500 26.203125 C19.687500 27.880217 19.380211 29.200516 18.765625 30.164062 C18.151039 31.127609 17.125007 31.809894 15.687500 32.210938 C14.249993 32.611981 12.302096 32.812500 9.843750 32.812500 Z M9.843750 26.109375 C8.677078 26.109375 7.674483 25.729170 6.835938 24.968750 C5.997392 24.208330 5.578125 23.166673 5.578125 21.843750 C5.578125 21.229164 5.697915 20.593753 5.937500 19.937500 C6.177085 19.281247 6.476561 18.643232 6.835938 18.023438 C7.195314 17.403643 7.557290 16.841148 7.921875 16.335938 C8.286460 15.830727 8.593749 15.416668 8.843750 15.093750 C9.145835 14.708331 9.479165 14.515625 9.843750 14.515625 C10.208335 14.515625 10.541665 14.708331 10.843750 15.093750 C11.093751 15.416668 11.401040 15.830727 11.765625 16.335938 C12.130210 16.841148 12.492186 17.403643 12.851562 18.023438 C13.210939 18.643232 13.510415 19.281247 13.750000 19.937500 C13.989585 20.593753 14.109375 21.229164 14.109375 21.843750 C14.109375 23.166673 13.692712 24.208330 12.859375 24.968750 C12.026038 25.729170 11.020839 26.109375 9.843750 26.109375 Z M9.843750 24.546875 C10.583337 24.546875 11.218747 24.320315 11.750000 23.867188 C12.281253 23.414060 12.546875 22.739588 12.546875 21.843750 C12.546875 21.260414 12.419272 20.656253 12.164062 20.031250 C11.908853 19.406247 11.596356 18.804690 11.226562 18.226562 C10.856769 17.648435 10.494793 17.140627 10.140625 16.703125 C10.015624 16.546874 9.916667 16.468750 9.843750 16.468750 C9.770833 16.468750 9.671876 16.546874 9.546875 16.703125 C9.213540 17.161461 8.859377 17.679685 8.484375 18.257812 C8.109373 18.835940 7.791668 19.432289 7.531250 20.046875 C7.270832 20.661461 7.140625 21.260414 7.140625 21.843750 C7.140625 22.739588 7.406247 23.414060 7.937500 23.867188 C8.468753 24.320315 9.104163 24.546875 9.843750 24.546875 Z M9.843750 11.890625 C8.822912 11.890625 7.921879 11.747397 7.140625 11.460938 C6.359371 11.174478 5.968750 10.729170 5.968750 10.125000 L5.968750 7.671875 C5.968750 7.057289 6.359371 6.609376 7.140625 6.328125 C7.921879 6.046874 8.822912 5.906250 9.843750 5.906250 C10.864588 5.906250 11.765621 6.046874 12.546875 6.328125 C13.328129 6.609376 13.718750 7.057289 13.718750 7.671875 L13.718750 10.125000 C13.718750 10.729170 13.328129 11.174478 12.546875 11.460938 C11.765621 11.747397 10.864588 11.890625 9.843750 11.890625 Z M9.843750 10.328125 C10.531253 10.328125 11.049477 10.289063 11.398438 10.210938 C11.747398 10.132812 11.999999 10.041667 12.156250 9.937500 L12.156250 7.859375 C11.999999 7.744791 11.747398 7.651042 11.398438 7.578125 C11.049477 7.505208 10.531253 7.468750 9.843750 7.468750 C9.156247 7.468750 8.638023 7.505208 8.289062 7.578125 C7.940102 7.651042 7.687501 7.744791 7.531250 7.859375 L7.531250 9.937500 C7.687501 10.041667 7.940102 10.132812 8.289062 10.210938 C8.638023 10.289063 9.156247 10.328125 9.843750 10.328125 Z M9.843750 8.187500 C9.499998 8.187500 9.166668 8.151042 8.843750 8.078125 L8.843750 4.093750 L10.843750 4.093750 L10.843750 8.078125 C10.541665 8.151042 10.208335 8.187500 9.843750 8.187500 Z M9.484375 4.765625 C8.369786 4.765625 7.151048 4.265630 5.828125 3.265625 L7.203125 0.046875 C7.390626 0.109375 7.677081 0.169271 8.062500 0.226562 C8.447919 0.283854 8.833331 0.330729 9.218750 0.367188 C9.604169 0.403646 9.895832 0.421875 10.093750 0.421875 C10.281251 0.421875 10.502603 0.403646 10.757812 0.367188 C11.013022 0.330729 11.286457 0.291667 11.578125 0.250000 C11.963544 0.187500 12.361977 0.130209 12.773438 0.078125 C13.184898 0.026041 13.583331 -0.000000 13.968750 -0.000000 C14.614587 -0.000000 15.286455 0.119790 15.984375 0.359375 C16.682295 0.598960 17.286456 0.921873 17.796875 1.328125 L16.281250 4.718750 C15.781248 4.437499 15.388022 4.236980 15.101562 4.117188 C14.815103 3.997395 14.520835 3.937500 14.218750 3.937500 C13.999999 3.937500 13.776043 3.966146 13.546875 4.023438 C13.317707 4.080729 13.067710 4.151041 12.796875 4.234375 C12.390623 4.359376 11.921878 4.479166 11.390625 4.593750 C10.859372 4.708334 10.223962 4.765625 9.484375 4.765625 Z M9.484375 3.203125 C10.203129 3.203125 10.799477 3.148438 11.273438 3.039062 C11.747398 2.929687 12.166665 2.817709 12.531250 2.703125 C12.802085 2.619791 13.062499 2.546875 13.312500 2.484375 C13.562501 2.421875 13.828124 2.390625 14.109375 2.390625 C14.578127 2.390625 15.052081 2.468749 15.531250 2.625000 L15.781250 1.953125 C15.166664 1.692707 14.562503 1.562500 13.968750 1.562500 C13.593748 1.562500 13.216148 1.585937 12.835938 1.632812 C12.455727 1.679688 12.088543 1.734375 11.734375 1.796875 C11.432290 1.848959 11.143231 1.893229 10.867188 1.929688 C10.591144 1.966146 10.333335 1.984375 10.093750 1.984375 C9.833332 1.984375 9.528648 1.958334 9.179688 1.906250 C8.830727 1.854166 8.489585 1.791667 8.156250 1.718750 L7.781250 2.687500 C8.427087 3.031252 8.994789 3.203125 9.484375 3.203125 Z M30.156250 27.343750" /></svg>