<svg version="1.1" xmlns="http://www.w3.org/2000/svg" style="fill:rgba(0,0,0,1.0)" width="256" height="256" viewBox="0 0 37.65625 28.90625"><path fill="rgb(255, 255, 255)" d="M17.343750 28.906250 C16.645830 27.947912 16.109377 27.231773 15.734375 26.757812 C15.359373 26.283852 14.979169 25.864585 14.593750 25.500000 C14.020830 24.947914 13.565106 24.468752 13.226562 24.062500 C12.888019 23.656248 12.614584 23.276043 12.406250 22.921875 C11.947914 23.171876 11.484377 23.361979 11.015625 23.492188 C10.546873 23.622396 10.052086 23.687500 9.531250 23.687500 C8.895830 23.687500 8.286461 23.585939 7.703125 23.382812 C7.119789 23.179686 6.567711 22.945314 6.046875 22.679688 C5.526039 22.414061 5.044273 22.179689 4.601562 21.976562 C4.158852 21.773436 3.765627 21.671875 3.421875 21.671875 C3.067707 21.671875 2.708335 21.684896 2.343750 21.710938 C1.979165 21.736979 1.463545 21.791666 0.796875 21.875000 C0.796875 21.104163 1.072914 20.309900 1.625000 19.492188 C2.177086 18.674475 2.880204 17.940107 3.734375 17.289062 C4.588546 16.638018 5.473954 16.182293 6.390625 15.921875 L7.609375 17.500000 C7.171873 17.520833 6.692711 17.651040 6.171875 17.890625 C5.651039 18.130210 5.140628 18.429686 4.640625 18.789062 C4.140622 19.148439 3.708335 19.536456 3.343750 19.953125 C3.489584 19.953125 3.635416 19.963542 3.781250 19.984375 C3.927084 20.005208 4.072916 20.031250 4.218750 20.062500 C4.822920 20.187501 5.427080 20.403644 6.031250 20.710938 C6.635420 21.018231 7.231768 21.304686 7.820312 21.570312 C8.408857 21.835939 8.979164 21.968750 9.531250 21.968750 C10.270837 21.968750 10.929685 21.708336 11.507812 21.187500 C12.085940 20.666664 12.505207 19.968754 12.765625 19.093750 L14.093750 19.093750 C14.020833 19.416668 13.960938 19.718749 13.914062 20.000000 C13.867187 20.281251 13.843750 20.546874 13.843750 20.796875 C13.843750 21.453128 13.997394 22.044268 14.304688 22.570312 C14.611981 23.096357 15.098955 23.656247 15.765625 24.250000 C16.026043 24.479168 16.294269 24.752603 16.570312 25.070312 C16.846356 25.388022 17.104165 25.729165 17.343750 26.093750 C17.583335 25.729165 17.841144 25.388022 18.117188 25.070312 C18.393231 24.752603 18.661457 24.479168 18.921875 24.250000 C19.598962 23.656247 20.088540 23.096357 20.390625 22.570312 C20.692710 22.044268 20.843750 21.453128 20.843750 20.796875 C20.843750 20.546874 20.822917 20.281251 20.781250 20.000000 C20.739583 19.718749 20.677084 19.416668 20.593750 19.093750 L21.921875 19.093750 C22.182293 19.968754 22.604164 20.666664 23.187500 21.187500 C23.770836 21.708336 24.427080 21.968750 25.156250 21.968750 C25.708336 21.968750 26.278643 21.835939 26.867188 21.570312 C27.455732 21.304686 28.052080 21.018231 28.656250 20.710938 C29.260420 20.403644 29.864580 20.187501 30.468750 20.062500 C30.614584 20.031250 30.760416 20.005208 30.906250 19.984375 C31.052084 19.963542 31.197916 19.953125 31.343750 19.953125 C30.979165 19.536456 30.546878 19.148439 30.046875 18.789062 C29.546872 18.429686 29.036461 18.130210 28.515625 17.890625 C27.994789 17.651040 27.515627 17.520833 27.078125 17.500000 L28.296875 15.921875 C29.213546 16.182293 30.098954 16.638018 30.953125 17.289062 C31.807296 17.940107 32.510414 18.674475 33.062500 19.492188 C33.614586 20.309900 33.890625 21.104163 33.890625 21.875000 C33.223955 21.791666 32.708335 21.736979 32.343750 21.710938 C31.979165 21.684896 31.619793 21.671875 31.265625 21.671875 C30.921873 21.671875 30.528648 21.773436 30.085938 21.976562 C29.643227 22.179689 29.161461 22.414061 28.640625 22.679688 C28.119789 22.945314 27.567711 23.179686 26.984375 23.382812 C26.401039 23.585939 25.791670 23.687500 25.156250 23.687500 C24.645831 23.687500 24.153648 23.622396 23.679688 23.492188 C23.205727 23.361979 22.739586 23.171876 22.281250 22.921875 C22.083332 23.276043 21.812502 23.656248 21.468750 24.062500 C21.124998 24.468752 20.666670 24.947914 20.093750 25.500000 C19.708331 25.864585 19.328127 26.283852 18.953125 26.757812 C18.578123 27.231773 18.041670 27.947912 17.343750 28.906250 Z M10.937500 18.796875 C9.364575 18.796875 8.026047 18.390629 6.921875 17.578125 C5.817703 16.765621 4.833338 15.453134 3.968750 13.640625 L3.671875 13.015625 C3.244790 12.119787 2.895835 11.411461 2.625000 10.890625 C2.354165 10.369789 2.104168 9.971356 1.875000 9.695312 C1.645832 9.419269 1.388022 9.205730 1.101562 9.054688 C0.815103 8.903645 0.447919 8.744792 0.000000 8.578125 C0.375002 8.067706 0.908851 7.671876 1.601562 7.390625 C2.294274 7.109374 3.052079 6.968750 3.875000 6.968750 C4.375002 6.968750 4.856769 7.023437 5.320312 7.132812 C5.783856 7.242188 6.234373 7.416665 6.671875 7.656250 C6.671875 7.218748 6.692708 6.786460 6.734375 6.359375 C6.776042 5.932290 6.815104 5.510419 6.851562 5.093750 C6.888021 4.677081 6.906250 4.265627 6.906250 3.859375 C6.906250 3.369789 6.861980 2.895836 6.773438 2.437500 C6.684895 1.979164 6.510418 1.536460 6.250000 1.109375 C8.020842 1.109375 9.552077 1.356768 10.843750 1.851562 C12.135423 2.346357 13.166663 3.145828 13.937500 4.250000 L12.921875 5.875000 C12.505206 5.062496 11.934899 4.414065 11.210938 3.929688 C10.486976 3.445310 9.614588 3.119792 8.593750 2.953125 C8.625000 3.307293 8.640625 3.661457 8.640625 4.015625 C8.640625 4.994797 8.583334 5.976558 8.468750 6.960938 C8.354166 7.945317 8.296875 9.072910 8.296875 10.343750 C7.484371 9.729164 6.739587 9.299480 6.062500 9.054688 C5.385413 8.809895 4.656254 8.687500 3.875000 8.687500 C3.770833 8.687500 3.666667 8.690104 3.562500 8.695312 C3.458333 8.700521 3.354167 8.708333 3.250000 8.718750 C3.458334 8.958335 3.666666 9.242186 3.875000 9.570312 C4.083334 9.898439 4.302082 10.281248 4.531250 10.718750 C4.760418 11.156252 5.015624 11.671872 5.296875 12.265625 L5.593750 12.890625 C6.270837 14.317715 6.981767 15.351559 7.726562 15.992188 C8.471358 16.632816 9.380203 16.989583 10.453125 17.062500 L12.000000 18.734375 C11.812499 18.755208 11.630209 18.770833 11.453125 18.781250 C11.276041 18.791667 11.104168 18.796875 10.937500 18.796875 Z M14.781250 17.875000 C14.927084 17.875000 15.075520 17.869792 15.226562 17.859375 C15.377605 17.848958 15.531249 17.838542 15.687500 17.828125 C15.468749 17.421873 15.210939 17.039064 14.914062 16.679688 C14.617186 16.320311 14.223961 15.921877 13.734375 15.484375 C13.244789 15.046873 12.598962 14.510420 11.796875 13.875000 L10.546875 12.890625 C10.067706 13.515628 9.828125 14.140622 9.828125 14.765625 C9.828125 15.328128 10.046873 15.846352 10.484375 16.320312 C10.921877 16.794273 11.513017 17.171874 12.257812 17.453125 C13.002608 17.734376 13.843745 17.875000 14.781250 17.875000 Z M13.875000 14.140625 L12.312500 13.921875 C12.333333 13.807291 12.346354 13.690105 12.351562 13.570312 C12.356771 13.450520 12.359375 13.333334 12.359375 13.218750 C12.359375 12.541663 12.244793 11.901045 12.015625 11.296875 C11.786457 10.692705 11.507814 10.127607 11.179688 9.601562 C10.851561 9.075518 10.531252 8.598960 10.218750 8.171875 C10.218750 8.484377 10.252604 8.901039 10.320312 9.421875 C10.388021 9.942711 10.468750 10.466143 10.562500 10.992188 C10.656250 11.518232 10.750000 11.937498 10.843750 12.250000 L9.312500 12.625000 C9.145832 11.906246 9.005209 11.197920 8.890625 10.500000 C8.776041 9.802080 8.718750 9.161461 8.718750 8.578125 C8.718750 7.744788 8.851561 7.114585 9.117188 6.687500 C9.382814 6.260415 9.697915 6.046875 10.062500 6.046875 C10.427085 6.046875 10.838539 6.208332 11.296875 6.531250 C11.755211 6.854168 12.083332 7.166665 12.281250 7.468750 L11.593750 7.734375 C11.895835 8.151044 12.229165 8.645830 12.593750 9.218750 C12.958335 9.791670 13.270832 10.424476 13.531250 11.117188 C13.791668 11.809899 13.921875 12.552079 13.921875 13.343750 C13.921875 13.479167 13.919271 13.611979 13.914062 13.742188 C13.908854 13.872396 13.895833 14.005208 13.875000 14.140625 Z M14.781250 19.593750 C13.562494 19.593750 12.460942 19.377606 11.476562 18.945312 C10.492183 18.513019 9.710940 17.929691 9.132812 17.195312 C8.554685 16.460934 8.265625 15.651046 8.265625 14.765625 C8.265625 14.057288 8.460936 13.343754 8.851562 12.625000 C9.242189 11.906246 9.770830 11.291669 10.437500 10.781250 C10.729168 11.114585 11.177080 11.492185 11.781250 11.914062 C12.385420 12.335940 13.041663 12.822914 13.750000 13.375000 C14.458337 13.927086 15.138018 14.562496 15.789062 15.281250 C16.440107 16.000004 16.958331 16.828120 17.343750 17.765625 C17.729169 16.828120 18.247393 16.000004 18.898438 15.281250 C19.549482 14.562496 20.229163 13.927086 20.937500 13.375000 C21.645837 12.822914 22.302080 12.335940 22.906250 11.914062 C23.510420 11.492185 23.958332 11.114585 24.250000 10.781250 C24.916670 11.291669 25.445311 11.906246 25.835938 12.625000 C26.226564 13.343754 26.421875 14.057288 26.421875 14.765625 C26.421875 15.651046 26.132815 16.460934 25.554688 17.195312 C24.976560 17.929691 24.197922 18.513019 23.218750 18.945312 C22.239578 19.377606 21.135423 19.593750 19.906250 19.593750 C19.031246 19.593750 18.177088 19.473960 17.343750 19.234375 C16.510412 19.473960 15.656254 19.593750 14.781250 19.593750 Z M13.703125 9.640625 C14.109377 9.640625 14.312500 9.489585 14.312500 9.187500 C14.312500 8.895832 14.109377 8.750000 13.703125 8.750000 C13.296873 8.750000 13.093750 8.895832 13.093750 9.187500 C13.093750 9.489585 13.296873 9.640625 13.703125 9.640625 Z M19.906250 17.875000 C20.843755 17.875000 21.687496 17.734376 22.437500 17.453125 C23.187504 17.171874 23.778644 16.794273 24.210938 16.320312 C24.643231 15.846352 24.859375 15.328128 24.859375 14.765625 C24.859375 14.140622 24.619794 13.515628 24.140625 12.890625 L22.890625 13.875000 C22.088538 14.510420 21.442711 15.046873 20.953125 15.484375 C20.463539 15.921877 20.070314 16.320311 19.773438 16.679688 C19.476561 17.039064 19.218751 17.421873 19.000000 17.828125 C19.156251 17.838542 19.312499 17.848958 19.468750 17.859375 C19.625001 17.869792 19.770833 17.875000 19.906250 17.875000 Z M13.875000 14.046875 L12.375000 13.640625 C12.562501 12.942705 12.895831 12.302086 13.375000 11.718750 C13.854169 11.135414 14.390622 10.494795 14.984375 9.796875 C15.578128 9.098955 16.135414 8.239588 16.656250 7.218750 L18.031250 7.218750 C18.562503 8.239588 19.122393 9.098955 19.710938 9.796875 C20.299482 10.494795 20.835935 11.135414 21.320312 11.718750 C21.804690 12.302086 22.135416 12.942705 22.312500 13.640625 L20.812500 14.046875 C20.708333 13.651040 20.536460 13.291668 20.296875 12.968750 C20.057290 12.645832 19.750002 12.270835 19.375000 11.843750 C19.083332 11.510415 18.763023 11.127606 18.414062 10.695312 C18.065102 10.263019 17.708335 9.750003 17.343750 9.156250 C16.979165 9.750003 16.625002 10.263019 16.281250 10.695312 C15.937498 11.127606 15.614585 11.510415 15.312500 11.843750 C14.937498 12.270835 14.632814 12.645832 14.398438 12.968750 C14.164061 13.291668 13.989584 13.651040 13.875000 14.046875 Z M14.968750 8.500000 C15.312502 8.500000 15.484375 8.369793 15.484375 8.109375 C15.484375 7.859374 15.312502 7.734375 14.968750 7.734375 C14.624998 7.734375 14.453125 7.859374 14.453125 8.109375 C14.453125 8.369793 14.624998 8.500000 14.968750 8.500000 Z M13.312500 12.625000 L10.843750 8.187500 C11.489587 7.499997 12.372390 7.026043 13.492188 6.765625 C14.611985 6.505207 15.895826 6.375000 17.343750 6.375000 C18.802091 6.375000 20.091140 6.505207 21.210938 6.765625 C22.330735 7.026043 23.208330 7.499997 23.843750 8.187500 L21.375000 12.625000 L17.343750 7.625000 Z M19.718750 8.500000 C20.062502 8.500000 20.234375 8.369793 20.234375 8.109375 C20.234375 7.859374 20.062502 7.734375 19.718750 7.734375 C19.374998 7.734375 19.203125 7.859374 19.203125 8.109375 C19.203125 8.369793 19.374998 8.500000 19.718750 8.500000 Z M20.984375 9.640625 C21.390627 9.640625 21.593750 9.489585 21.593750 9.187500 C21.593750 8.895832 21.390627 8.750000 20.984375 8.750000 C20.578123 8.750000 20.375000 8.895832 20.375000 9.187500 C20.375000 9.489585 20.578123 9.640625 20.984375 9.640625 Z M11.703125 7.625000 C11.859376 6.927080 12.070311 6.234378 12.335938 5.546875 C12.601564 4.859372 12.916665 4.203128 13.281250 3.578125 C13.645835 2.953122 14.041665 2.395836 14.468750 1.906250 C14.895835 2.364586 15.377601 2.859372 15.914062 3.390625 C16.450524 3.921878 16.927081 4.374998 17.343750 4.750000 C17.770835 4.374998 18.252601 3.921878 18.789062 3.390625 C19.325524 2.859372 19.802081 2.364586 20.218750 1.906250 C20.656252 2.395836 21.054686 2.953122 21.414062 3.578125 C21.773439 4.203128 22.085936 4.859372 22.351562 5.546875 C22.617189 6.234378 22.828124 6.927080 22.984375 7.625000 L21.328125 7.421875 C21.161458 6.838539 20.976564 6.283857 20.773438 5.757812 C20.570311 5.231768 20.312502 4.734377 20.000000 4.265625 C19.635415 4.651044 19.229169 5.054685 18.781250 5.476562 C18.333331 5.898440 17.854169 6.338539 17.343750 6.796875 C16.833331 6.338539 16.354169 5.898440 15.906250 5.476562 C15.458331 5.054685 15.052085 4.651044 14.687500 4.265625 C14.374998 4.734377 14.119793 5.231768 13.921875 5.757812 C13.723957 6.283857 13.541668 6.838539 13.375000 7.421875 Z M20.812500 14.140625 C20.802083 14.005208 20.791667 13.872396 20.781250 13.742188 C20.770833 13.611979 20.765625 13.479167 20.765625 13.343750 C20.765625 12.552079 20.895832 11.809899 21.156250 11.117188 C21.416668 10.424476 21.729165 9.791670 22.093750 9.218750 C22.458335 8.645830 22.791665 8.151044 23.093750 7.734375 L22.406250 7.468750 C22.614584 7.166665 22.947914 6.854168 23.406250 6.531250 C23.864586 6.208332 24.270832 6.046875 24.625000 6.046875 C24.989585 6.046875 25.304686 6.260415 25.570312 6.687500 C25.835939 7.114585 25.968750 7.744788 25.968750 8.578125 C25.968750 9.161461 25.914063 9.802080 25.804688 10.500000 C25.695312 11.197920 25.552084 11.906246 25.375000 12.625000 L23.843750 12.250000 C23.937500 11.937498 24.033854 11.518232 24.132812 10.992188 C24.231771 10.466143 24.312500 9.942711 24.375000 9.421875 C24.437500 8.901039 24.468750 8.484377 24.468750 8.171875 C24.166665 8.598960 23.848960 9.075518 23.515625 9.601562 C23.182290 10.127607 22.901043 10.692705 22.671875 11.296875 C22.442707 11.901045 22.328125 12.541663 22.328125 13.218750 C22.328125 13.333334 22.333333 13.450520 22.343750 13.570312 C22.354167 13.690105 22.364583 13.807291 22.375000 13.921875 Z M15.781250 4.281250 L14.531250 3.437500 C14.895835 2.760413 15.320310 2.140628 15.804688 1.578125 C16.289065 1.015622 16.802081 0.489586 17.343750 -0.000000 C17.895836 0.489586 18.414060 1.015622 18.898438 1.578125 C19.382815 2.140628 19.802082 2.760413 20.156250 3.437500 L18.906250 4.281250 C18.666665 3.927082 18.416668 3.570314 18.156250 3.210938 C17.895832 2.851561 17.625001 2.526043 17.343750 2.234375 C17.062499 2.526043 16.791668 2.848957 16.531250 3.203125 C16.270832 3.557293 16.020835 3.916665 15.781250 4.281250 Z M23.750000 18.796875 C23.583332 18.796875 23.411459 18.791667 23.234375 18.781250 C23.057291 18.770833 22.875001 18.755208 22.687500 18.734375 L24.234375 17.062500 C25.317714 16.989583 26.229163 16.632816 26.968750 15.992188 C27.708337 15.351559 28.416663 14.317715 29.093750 12.890625 L29.390625 12.265625 C29.671876 11.671872 29.927082 11.156252 30.156250 10.718750 C30.385418 10.281248 30.604166 9.898439 30.812500 9.570312 C31.020834 9.242186 31.229166 8.958335 31.437500 8.718750 C31.333333 8.708333 31.231771 8.700521 31.132812 8.695312 C31.033854 8.690104 30.927084 8.687500 30.812500 8.687500 C30.031246 8.687500 29.302087 8.809895 28.625000 9.054688 C27.947913 9.299480 27.203129 9.729164 26.390625 10.343750 C26.390625 9.072910 26.333334 7.945317 26.218750 6.960938 C26.104166 5.976558 26.046875 4.994797 26.046875 4.015625 C26.046875 3.661457 26.062500 3.307293 26.093750 2.953125 C25.072912 3.119792 24.203129 3.445310 23.484375 3.929688 C22.765621 4.414065 22.192710 5.062496 21.765625 5.875000 L20.750000 4.250000 C21.520837 3.145828 22.552077 2.346357 23.843750 1.851562 C25.135423 1.356768 26.666658 1.109375 28.437500 1.109375 C28.177082 1.536460 28.002605 1.979164 27.914062 2.437500 C27.825520 2.895836 27.781250 3.369789 27.781250 3.859375 C27.781250 4.265627 27.802083 4.677081 27.843750 5.093750 C27.885417 5.510419 27.924479 5.932290 27.960938 6.359375 C27.997396 6.786460 28.015625 7.218748 28.015625 7.656250 C28.453127 7.416665 28.903644 7.242188 29.367188 7.132812 C29.830731 7.023437 30.312498 6.968750 30.812500 6.968750 C31.635421 6.968750 32.393226 7.109374 33.085938 7.390625 C33.778649 7.671876 34.312498 8.067706 34.687500 8.578125 C34.239581 8.744792 33.872397 8.903645 33.585938 9.054688 C33.299478 9.205730 33.041668 9.419269 32.812500 9.695312 C32.583332 9.971356 32.333335 10.369789 32.062500 10.890625 C31.791665 11.411461 31.442710 12.119787 31.015625 13.015625 L30.718750 13.640625 C29.864579 15.453134 28.885422 16.765621 27.781250 17.578125 C26.677078 18.390629 25.333341 18.796875 23.750000 18.796875 Z M37.656250 25.000000" /></svg>