<svg version="1.1" xmlns="http://www.w3.org/2000/svg" style="fill:rgba(0,0,0,1.0)" width="256" height="256" viewBox="0 0 33.340726012072004 32.8125"><path fill="rgb(255, 255, 255)" d="M13.390625 30.718750 L1.656250 23.515625 C1.041664 23.140623 0.648438 22.598962 0.476562 21.890625 C0.304687 21.182288 0.406248 20.520836 0.781250 19.906250 L9.500000 5.718750 C9.885419 5.104164 10.432288 4.710938 11.140625 4.539062 C11.848962 4.367187 12.505205 4.468748 13.109375 4.843750 L24.843750 12.046875 C25.468753 12.432294 25.867187 12.979163 26.039062 13.687500 C26.210938 14.395837 26.104169 15.062497 25.718750 15.687500 L17.015625 29.843750 C16.630206 30.458336 16.083337 30.851562 15.375000 31.023438 C14.666663 31.195313 14.005211 31.093752 13.390625 30.718750 Z M0.734375 25.765625 L0.437500 25.578125 C0.239582 25.453124 0.117188 25.283855 0.070312 25.070312 C0.023437 24.856770 0.057291 24.651043 0.171875 24.453125 L0.843750 23.343750 C0.958334 23.145832 1.127603 23.023438 1.351562 22.976562 C1.575522 22.929687 1.781249 22.963541 1.968750 23.078125 L2.281250 23.265625 C2.468751 23.380209 2.588541 23.546874 2.640625 23.765625 C2.692709 23.984376 2.661459 24.192707 2.546875 24.390625 L1.859375 25.500000 C1.744791 25.697918 1.578126 25.822916 1.359375 25.875000 C1.140624 25.927084 0.932293 25.890626 0.734375 25.765625 Z M8.500000 30.531250 L8.187500 30.343750 C7.999999 30.229166 7.880209 30.062501 7.828125 29.843750 C7.776041 29.624999 7.807291 29.416668 7.921875 29.218750 L8.609375 28.109375 C8.734376 27.911457 8.906249 27.789063 9.125000 27.742188 C9.343751 27.695312 9.546874 27.729166 9.734375 27.843750 L10.031250 28.031250 C10.229168 28.156251 10.351562 28.325520 10.398438 28.539062 C10.445313 28.752605 10.411459 28.958332 10.296875 29.156250 L9.625000 30.265625 C9.510416 30.453126 9.341147 30.572916 9.117188 30.625000 C8.893228 30.677084 8.687501 30.645834 8.500000 30.531250 Z M9.296875 17.078125 C8.880206 17.078125 8.494793 16.815107 8.140625 16.289062 C7.786457 15.763018 7.609375 15.182295 7.609375 14.546875 C7.609375 14.088539 7.708332 13.713543 7.906250 13.421875 C8.104168 13.130207 8.348957 12.984375 8.640625 12.984375 C9.067710 12.984375 9.455727 13.247393 9.804688 13.773438 C10.153648 14.299482 10.328125 14.885413 10.328125 15.531250 C10.328125 15.979169 10.231772 16.348957 10.039062 16.640625 C9.846353 16.932293 9.598960 17.078125 9.296875 17.078125 Z M10.468750 27.078125 C10.729168 27.234376 10.999999 27.276042 11.281250 27.203125 C11.562501 27.130208 11.770833 26.979168 11.906250 26.750000 L20.640625 12.562500 C20.786459 12.333332 20.841146 12.078126 20.804688 11.796875 C20.768229 11.515624 20.630210 11.302084 20.390625 11.156250 L12.296875 6.187500 C12.046874 6.031249 11.781251 5.986979 11.500000 6.054688 C11.218749 6.122396 11.000001 6.281249 10.843750 6.531250 L2.125000 20.718750 C1.968749 20.968751 1.924479 21.236978 1.992188 21.523438 C2.059896 21.809897 2.218749 22.026041 2.468750 22.171875 Z M14.203125 29.375000 C14.453126 29.531251 14.721353 29.575521 15.007812 29.507812 C15.294272 29.440104 15.515624 29.281251 15.671875 29.031250 L24.375000 14.875000 C24.531251 14.614582 24.575521 14.341147 24.507812 14.054688 C24.440104 13.768228 24.281251 13.546876 24.031250 13.390625 L22.343750 12.359375 C22.291666 12.723960 22.171876 13.062498 21.984375 13.375000 L13.250000 27.562500 C13.072916 27.854168 12.828127 28.114582 12.515625 28.343750 Z M12.140625 13.125000 C11.942707 13.125000 11.763022 13.067709 11.601562 12.953125 C11.440103 12.838541 11.359375 12.682293 11.359375 12.484375 C11.359375 12.348958 11.408854 12.179689 11.507812 11.976562 C11.606771 11.773436 11.656250 11.604167 11.656250 11.468750 C11.656250 11.291666 11.588542 11.203125 11.453125 11.203125 C11.317708 11.203125 11.177084 11.341144 11.031250 11.617188 C10.885416 11.893231 10.661460 12.031250 10.359375 12.031250 C10.151041 12.031250 9.966147 11.955730 9.804688 11.804688 C9.643228 11.653645 9.562500 11.453126 9.562500 11.203125 C9.562500 10.692706 9.828122 10.437500 10.359375 10.437500 C10.411459 10.437500 10.476562 10.442708 10.554688 10.453125 C10.632813 10.463542 10.708333 10.468750 10.781250 10.468750 C10.958334 10.468750 11.046875 10.411459 11.046875 10.296875 C11.046875 10.140624 10.950522 10.044271 10.757812 10.007812 C10.565103 9.971354 10.372397 9.916667 10.179688 9.843750 C9.986978 9.770833 9.890625 9.604168 9.890625 9.343750 C9.890625 9.072915 9.997395 8.838543 10.210938 8.640625 C10.424480 8.442707 10.651040 8.343750 10.890625 8.343750 C11.098959 8.343750 11.257812 8.424478 11.367188 8.585938 C11.476563 8.747397 11.531250 8.953124 11.531250 9.203125 C11.531250 9.567710 11.619791 9.750000 11.796875 9.750000 C11.953126 9.750000 12.031250 9.651043 12.031250 9.453125 C12.031250 9.390625 12.023438 9.322917 12.007812 9.250000 C11.992187 9.177083 11.984375 9.088542 11.984375 8.984375 C11.984375 8.505206 12.203123 8.265625 12.640625 8.265625 C12.942710 8.265625 13.218749 8.369791 13.468750 8.578125 C13.718751 8.786459 13.843750 8.994791 13.843750 9.203125 C13.843750 9.390626 13.750001 9.531250 13.562500 9.625000 C13.374999 9.718750 13.184897 9.799479 12.992188 9.867188 C12.799478 9.934896 12.703125 10.041666 12.703125 10.187500 C12.703125 10.364584 12.822915 10.453125 13.062500 10.453125 C13.166667 10.453125 13.268229 10.434896 13.367188 10.398438 C13.466146 10.361979 13.546875 10.343750 13.609375 10.343750 C13.901043 10.343750 14.117187 10.414062 14.257812 10.554688 C14.398438 10.695313 14.468750 10.859374 14.468750 11.046875 C14.468750 11.234376 14.406251 11.419270 14.281250 11.601562 C14.156249 11.783855 13.989584 11.875000 13.781250 11.875000 C13.552082 11.875000 13.351563 11.768230 13.179688 11.554688 C13.007812 11.341145 12.833334 11.234375 12.656250 11.234375 C12.520833 11.234375 12.453125 11.291666 12.453125 11.406250 C12.453125 11.531251 12.541666 11.664062 12.718750 11.804688 C12.895834 11.945313 12.984375 12.135415 12.984375 12.375000 C12.984375 12.583334 12.901042 12.760416 12.734375 12.906250 C12.567708 13.052084 12.369793 13.125000 12.140625 13.125000 Z M14.906250 14.921875 L14.390625 12.578125 L18.500000 11.609375 L17.750000 12.937500 L18.796875 13.921875 Z M16.703125 7.984375 L15.312500 7.109375 L18.078125 2.671875 L19.421875 3.625000 Z M21.125000 10.671875 L19.734375 9.796875 L22.500000 5.359375 L23.843750 6.312500 Z M24.000000 6.796875 C23.864583 6.796875 23.744792 6.770834 23.640625 6.718750 C23.536458 6.666666 23.437500 6.609375 23.343750 6.546875 L22.359375 5.859375 C22.130207 5.703124 22.005208 5.552084 21.984375 5.406250 C21.963542 5.260416 21.989583 5.119792 22.062500 4.984375 L22.265625 4.609375 C22.348959 4.463541 22.333334 4.354167 22.218750 4.281250 L20.593750 3.281250 C20.541666 3.239583 20.484375 3.255208 20.421875 3.328125 L19.953125 3.937500 C19.828124 4.104167 19.679688 4.205729 19.507812 4.242188 C19.335937 4.278646 19.171876 4.244792 19.015625 4.140625 L18.031250 3.515625 C17.770832 3.338541 17.601563 3.156251 17.523438 2.968750 C17.445312 2.781249 17.458333 2.598959 17.562500 2.421875 L18.375000 1.109375 C18.822919 0.369788 19.447913 -0.000000 20.250000 -0.000000 C20.708336 -0.000000 21.156248 0.130207 21.593750 0.390625 L24.265625 1.984375 C24.786461 2.296877 25.153645 2.638019 25.367188 3.007812 C25.580730 3.377606 25.687500 3.734373 25.687500 4.078125 C25.687500 4.421877 25.578126 4.781248 25.359375 5.156250 L24.656250 6.406250 C24.593750 6.520834 24.502605 6.614583 24.382812 6.687500 C24.263020 6.760417 24.135417 6.796875 24.000000 6.796875 Z M23.828125 5.656250 L24.343750 4.781250 C24.572918 4.395831 24.630209 4.039064 24.515625 3.710938 C24.401041 3.382811 24.161460 3.114584 23.796875 2.906250 L21.109375 1.343750 C20.838540 1.177083 20.567710 1.093750 20.296875 1.093750 C20.098957 1.093750 19.916668 1.143229 19.750000 1.242188 C19.583332 1.341146 19.432292 1.494791 19.296875 1.703125 L18.687500 2.640625 C18.802084 2.682292 18.919270 2.744791 19.039062 2.828125 C19.158855 2.911459 19.255208 2.984375 19.328125 3.046875 L19.703125 2.515625 C19.880209 2.265624 20.088540 2.140625 20.328125 2.140625 C20.484376 2.140625 20.624999 2.182291 20.750000 2.265625 L23.109375 3.718750 C23.338543 3.854167 23.479166 4.007812 23.531250 4.179688 C23.583334 4.351563 23.541667 4.557290 23.406250 4.796875 L23.156250 5.250000 C23.239584 5.270833 23.361978 5.330729 23.523438 5.429688 C23.684897 5.528646 23.786458 5.604166 23.828125 5.656250 Z M12.265625 32.812500 C11.817706 32.812500 11.437502 32.653647 11.125000 32.335938 C10.812498 32.018228 10.656250 31.645835 10.656250 31.218750 C10.656250 30.770831 10.812498 30.390627 11.125000 30.078125 C11.437502 29.765623 11.817706 29.609375 12.265625 29.609375 C12.692710 29.609375 13.065103 29.765623 13.382812 30.078125 C13.700522 30.390627 13.859375 30.770831 13.859375 31.218750 C13.859375 31.645835 13.700522 32.018228 13.382812 32.335938 C13.065103 32.653647 12.692710 32.812500 12.265625 32.812500 Z M12.265625 31.890625 C12.442709 31.890625 12.598958 31.822917 12.734375 31.687500 C12.869792 31.552083 12.937500 31.395834 12.937500 31.218750 C12.937500 31.031249 12.869792 30.869792 12.734375 30.734375 C12.598958 30.598958 12.442709 30.531250 12.265625 30.531250 C12.078124 30.531250 11.916667 30.598958 11.781250 30.734375 C11.645833 30.869792 11.578125 31.031249 11.578125 31.218750 C11.578125 31.395834 11.645833 31.552083 11.781250 31.687500 C11.916667 31.822917 12.078124 31.890625 12.265625 31.890625 Z M4.500000 28.046875 C4.052081 28.046875 3.671877 27.888022 3.359375 27.570312 C3.046873 27.252603 2.890625 26.880210 2.890625 26.453125 C2.890625 26.005206 3.046873 25.625002 3.359375 25.312500 C3.671877 24.999998 4.052081 24.843750 4.500000 24.843750 C4.927085 24.843750 5.299478 24.999998 5.617188 25.312500 C5.934897 25.625002 6.093750 26.005206 6.093750 26.453125 C6.093750 26.880210 5.934897 27.252603 5.617188 27.570312 C5.299478 27.888022 4.927085 28.046875 4.500000 28.046875 Z M4.500000 27.125000 C4.677084 27.125000 4.833333 27.057292 4.968750 26.921875 C5.104167 26.786458 5.171875 26.630209 5.171875 26.453125 C5.171875 26.265624 5.104167 26.104167 4.968750 25.968750 C4.833333 25.833333 4.677084 25.765625 4.500000 25.765625 C4.312499 25.765625 4.151042 25.833333 4.015625 25.968750 C3.880208 26.104167 3.812500 26.265624 3.812500 26.453125 C3.812500 26.630209 3.880208 26.786458 4.015625 26.921875 C4.151042 27.057292 4.312499 27.125000 4.500000 27.125000 Z M33.390625 27.343750" /></svg>