<svg version="1.1" xmlns="http://www.w3.org/2000/svg" style="fill:rgba(0,0,0,1.0)" width="256" height="256" viewBox="0 0 36.953125 32.8125"><path fill="rgb(255, 255, 255)" d="M21.953125 22.671875 C20.390617 22.671875 18.921882 22.377607 17.546875 21.789062 C16.171868 21.200518 14.966151 20.388026 13.929688 19.351562 C12.893224 18.315099 12.080732 17.109382 11.492188 15.734375 C10.903643 14.359368 10.609375 12.890633 10.609375 11.328125 C10.609375 9.765617 10.903643 8.299486 11.492188 6.929688 C12.080732 5.559889 12.893224 4.354172 13.929688 3.312500 C14.966151 2.270828 16.171868 1.458336 17.546875 0.875000 C18.921882 0.291664 20.390617 -0.000000 21.953125 -0.000000 C23.515633 -0.000000 24.981764 0.294268 26.351562 0.882812 C27.721361 1.471357 28.924474 2.283849 29.960938 3.320312 C30.997401 4.356776 31.809893 5.559889 32.398438 6.929688 C32.986982 8.299486 33.281250 9.765617 33.281250 11.328125 C33.281250 12.901050 32.989586 14.372389 32.406250 15.742188 C31.822914 17.111986 31.010422 18.315099 29.968750 19.351562 C28.927078 20.388026 27.721361 21.200518 26.351562 21.789062 C24.981764 22.377607 23.515633 22.671875 21.953125 22.671875 Z M28.468750 15.453125 C28.312499 15.703126 28.109376 15.828125 27.859375 15.828125 C27.671874 15.828125 27.484376 15.755209 27.296875 15.609375 C27.109374 15.463541 27.015625 15.276043 27.015625 15.046875 C27.015625 14.869791 27.067708 14.708334 27.171875 14.562500 C27.494793 14.104164 27.729166 13.598961 27.875000 13.046875 C28.020834 12.494789 28.093750 11.921878 28.093750 11.328125 C28.093750 10.421870 27.906252 9.562504 27.531250 8.750000 C27.156248 7.937496 26.630212 7.244795 25.953125 6.671875 C25.744791 6.494791 25.640625 6.286460 25.640625 6.046875 C25.640625 5.838541 25.721353 5.651042 25.882812 5.484375 C26.044272 5.317708 26.223957 5.234375 26.421875 5.234375 C26.609376 5.234375 26.776041 5.302083 26.921875 5.437500 C27.755212 6.187504 28.419268 7.070307 28.914062 8.085938 C29.408857 9.101568 29.656250 10.182286 29.656250 11.328125 C29.656250 12.057295 29.554689 12.773434 29.351562 13.476562 C29.148436 14.179691 28.854169 14.838539 28.468750 15.453125 Z M21.953125 20.796875 C23.265632 20.796875 24.492182 20.552086 25.632812 20.062500 C26.773443 19.572914 27.776037 18.893234 28.640625 18.023438 C29.505213 17.153641 30.182289 16.148443 30.671875 15.007812 C31.161461 13.867182 31.406250 12.640632 31.406250 11.328125 C31.406250 10.026035 31.161461 8.802089 30.671875 7.656250 C30.182289 6.510411 29.505213 5.505213 28.640625 4.640625 C27.776037 3.776037 26.770839 3.098961 25.625000 2.609375 C24.479161 2.119789 23.255215 1.875000 21.953125 1.875000 C20.640618 1.875000 19.414068 2.119789 18.273438 2.609375 C17.132807 3.098961 16.127609 3.776037 15.257812 4.640625 C14.388016 5.505213 13.708336 6.510411 13.218750 7.656250 C12.729164 8.802089 12.484375 10.026035 12.484375 11.328125 C12.484375 12.640632 12.729164 13.867182 13.218750 15.007812 C13.708336 16.148443 14.388016 17.153641 15.257812 18.023438 C16.127609 18.893234 17.132807 19.572914 18.273438 20.062500 C19.414068 20.552086 20.640618 20.796875 21.953125 20.796875 Z M13.109375 22.000000 L10.796875 19.656250 L13.234375 17.265625 L15.546875 19.640625 Z M3.546875 32.812500 C2.963539 32.812500 2.401044 32.638023 1.859375 32.289062 C1.317706 31.940102 0.872398 31.494794 0.523438 30.953125 C0.174477 30.411456 0.000000 29.848961 0.000000 29.265625 C0.000000 28.453121 0.317705 27.729170 0.953125 27.093750 L8.250000 19.796875 C8.885420 19.161455 9.604163 18.843750 10.406250 18.843750 C11.000003 18.843750 11.567706 19.015623 12.109375 19.359375 C12.651044 19.703127 13.093748 20.143226 13.437500 20.679688 C13.781252 21.216149 13.953125 21.776039 13.953125 22.359375 C13.953125 23.182296 13.635420 23.911455 13.000000 24.546875 L5.734375 31.828125 C5.078122 32.484378 4.348962 32.812500 3.546875 32.812500 Z M3.546875 30.937500 C3.848960 30.937500 4.140624 30.796876 4.421875 30.515625 L11.656250 23.234375 C11.937501 22.953124 12.078125 22.661460 12.078125 22.359375 C12.078125 22.119790 11.989584 21.875001 11.812500 21.625000 C11.635416 21.374999 11.416668 21.161459 11.156250 20.984375 C10.895832 20.807291 10.645835 20.718750 10.406250 20.718750 C10.104165 20.718750 9.822918 20.848957 9.562500 21.109375 L2.296875 28.406250 C2.015624 28.687501 1.875000 28.973957 1.875000 29.265625 C1.875000 29.505210 1.963541 29.755207 2.140625 30.015625 C2.317709 30.276043 2.536457 30.494791 2.796875 30.671875 C3.057293 30.848959 3.307290 30.937500 3.546875 30.937500 Z M24.468750 5.343750 C24.302082 5.343750 24.130209 5.296875 23.953125 5.203125 C23.869791 5.151041 23.778646 5.101563 23.679688 5.054688 C23.580729 5.007812 23.484375 4.963542 23.390625 4.921875 C23.015623 4.765624 22.828125 4.520835 22.828125 4.187500 C22.828125 3.937499 22.906249 3.744792 23.062500 3.609375 C23.218751 3.473958 23.401041 3.406250 23.609375 3.406250 C23.682292 3.406250 23.791666 3.427083 23.937500 3.468750 C24.104168 3.510417 24.257812 3.570312 24.398438 3.648438 C24.539063 3.726563 24.671874 3.807291 24.796875 3.890625 C25.078126 4.067709 25.218750 4.296874 25.218750 4.578125 C25.218750 4.765626 25.151042 4.940103 25.015625 5.101562 C24.880208 5.263022 24.697918 5.343750 24.468750 5.343750 Z M36.953125 27.343750" /></svg>