<svg version="1.1" xmlns="http://www.w3.org/2000/svg" style="fill:rgba(0,0,0,1.0)" width="256" height="256" viewBox="0 0 36.25 29.6875"><path fill="rgb(255, 255, 255)" d="M17.437500 29.687500 C14.895821 29.687500 12.559906 29.322920 10.429688 28.593750 C8.299469 27.864580 6.455737 26.835944 4.898438 25.507812 C3.341138 24.179681 2.135421 22.609384 1.281250 20.796875 C0.427079 18.984366 0.000000 17.000011 0.000000 14.843750 C0.000000 12.687489 0.427079 10.703134 1.281250 8.890625 C2.135421 7.078116 3.341138 5.507819 4.898438 4.179688 C6.455737 2.851556 8.299469 1.822920 10.429688 1.093750 C12.559906 0.364580 14.895821 -0.000000 17.437500 -0.000000 L31.875000 -0.000000 L31.875000 9.921875 L17.453125 9.921875 C15.140613 9.921875 13.372402 10.354162 12.148438 11.218750 C10.924473 12.083338 10.312500 13.291659 10.312500 14.843750 C10.312500 16.479175 10.924473 17.708329 12.148438 18.531250 C13.372402 19.354171 15.140613 19.765625 17.453125 19.765625 L31.875000 19.765625 L31.875000 29.687500 Z M22.343750 28.750000 L22.343750 20.703125 L24.218750 20.703125 L24.218750 28.750000 Z M17.437500 27.812500 L30.000000 27.812500 L30.000000 21.640625 L17.453125 21.640625 C14.630194 21.640625 12.421883 21.036464 10.828125 19.828125 C9.234367 18.619786 8.437500 16.958344 8.437500 14.843750 C8.437500 12.729156 9.234367 11.067714 10.828125 9.859375 C12.421883 8.651036 14.630194 8.046875 17.453125 8.046875 L30.000000 8.046875 L30.000000 1.875000 L17.437500 1.875000 C15.145822 1.875000 13.049489 2.192705 11.148438 2.828125 C9.247386 3.463545 7.604174 4.359369 6.218750 5.515625 C4.833326 6.671881 3.763025 8.041659 3.007812 9.625000 C2.252600 11.208341 1.875000 12.947907 1.875000 14.843750 C1.875000 16.739593 2.252600 18.479159 3.007812 20.062500 C3.763025 21.645841 4.833326 23.015619 6.218750 24.171875 C7.604174 25.328131 9.247386 26.223955 11.148438 26.859375 C13.049489 27.494795 15.145822 27.812500 17.437500 27.812500 Z M22.343750 8.984375 L22.343750 0.937500 L24.218750 0.937500 L24.218750 8.984375 Z M36.250000 25.781250" /></svg>