<svg version="1.1" xmlns="http://www.w3.org/2000/svg" style="fill:rgba(0,0,0,1.0)" width="256" height="256" viewBox="0 0 32.421875 32.8125"><path fill="rgb(255, 255, 255)" d="M2.281250 18.593750 C1.822914 18.593750 1.421877 18.432293 1.078125 18.109375 C0.734373 17.786457 0.468751 17.203129 0.281250 16.359375 C0.093749 15.515621 0.000000 14.317716 0.000000 12.765625 C0.000000 10.130195 0.494787 7.859385 1.484375 5.953125 C2.473963 4.046865 3.874991 2.578130 5.687500 1.546875 C7.500009 0.515620 9.640613 -0.000000 12.109375 -0.000000 C14.588554 -0.000000 16.731762 0.515620 18.539062 1.546875 C20.346363 2.578130 21.744787 4.046865 22.734375 5.953125 C23.723963 7.859385 24.218750 10.130195 24.218750 12.765625 C24.218750 14.317716 24.125001 15.515621 23.937500 16.359375 C23.749999 17.203129 23.486981 17.786457 23.148438 18.109375 C22.809894 18.432293 22.406252 18.593750 21.937500 18.593750 C21.427081 18.593750 20.989585 18.348961 20.625000 17.859375 C20.260415 17.369789 20.005209 16.588547 19.859375 15.515625 C19.723958 14.494787 19.541668 13.731773 19.312500 13.226562 C19.083332 12.721352 18.723961 12.468750 18.234375 12.468750 C17.473955 12.468750 16.619796 12.580728 15.671875 12.804688 C14.723954 13.028647 13.536465 13.140625 12.109375 13.140625 C10.682285 13.140625 9.497401 13.028647 8.554688 12.804688 C7.611974 12.580728 6.755212 12.468750 5.984375 12.468750 C5.505206 12.468750 5.148439 12.721352 4.914062 13.226562 C4.679686 13.731773 4.494792 14.494787 4.359375 15.515625 C4.223958 16.588547 3.973960 17.369789 3.609375 17.859375 C3.244790 18.348961 2.802086 18.593750 2.281250 18.593750 Z M12.265625 32.812500 C9.130193 32.812500 6.648447 32.333338 4.820312 31.375000 C2.992178 30.416662 1.989584 29.072925 1.812500 27.343750 C1.677083 26.041660 1.583334 24.598966 1.531250 23.015625 C1.479166 21.432284 1.442708 19.593760 1.421875 17.500000 L3.296875 17.500000 C3.317708 19.583344 3.354166 21.408846 3.406250 22.976562 C3.458334 24.544279 3.552083 25.947910 3.687500 27.187500 C3.812501 28.281255 4.619784 29.179684 6.109375 29.882812 C7.598966 30.585941 9.651029 30.937500 12.265625 30.937500 C14.338552 30.937500 16.098951 30.770835 17.546875 30.437500 C18.994799 30.104165 20.098955 29.656253 20.859375 29.093750 C21.619795 28.531247 22.000000 27.916670 22.000000 27.250000 C22.000000 27.010415 21.960938 26.763022 21.882812 26.507812 C21.804687 26.252603 21.697917 25.989585 21.562500 25.718750 C21.395832 25.385415 21.252605 25.026044 21.132812 24.640625 C21.013020 24.255206 20.953125 23.838544 20.953125 23.390625 L20.953125 17.531250 L22.828125 17.531250 L22.828125 23.390625 C22.828125 23.859377 22.885416 24.263019 23.000000 24.601562 C23.114584 24.940106 23.244791 25.260415 23.390625 25.562500 C23.526042 25.822918 23.640625 26.085936 23.734375 26.351562 C23.828125 26.617189 23.875000 26.916665 23.875000 27.250000 C23.875000 28.364589 23.416671 29.338538 22.500000 30.171875 C21.583329 31.005212 20.260425 31.653644 18.531250 32.117188 C16.802075 32.580731 14.713554 32.812500 12.265625 32.812500 Z M12.187500 23.031250 C11.302079 23.031250 10.473962 22.856773 9.703125 22.507812 C8.932288 22.158852 8.250003 21.625004 7.656250 20.906250 L8.765625 19.937500 C9.244794 20.510420 9.760414 20.921874 10.312500 21.171875 C10.864586 21.421876 11.489580 21.546875 12.187500 21.546875 C12.895837 21.546875 13.526039 21.421876 14.078125 21.171875 C14.630211 20.921874 15.140623 20.510420 15.609375 19.937500 L16.718750 20.906250 C16.124997 21.625004 15.445316 22.158852 14.679688 22.507812 C13.914059 22.856773 13.083338 23.031250 12.187500 23.031250 Z M7.843750 18.203125 C7.406248 18.203125 7.044272 18.039064 6.757812 17.710938 C6.471353 17.382811 6.328125 16.994794 6.328125 16.546875 C6.328125 16.088539 6.471353 15.697918 6.757812 15.375000 C7.044272 15.052082 7.406248 14.890625 7.843750 14.890625 C8.281252 14.890625 8.643228 15.052082 8.929688 15.375000 C9.216147 15.697918 9.359375 16.088539 9.359375 16.546875 C9.359375 16.994794 9.216147 17.382811 8.929688 17.710938 C8.643228 18.039064 8.281252 18.203125 7.843750 18.203125 Z M3.359375 10.703125 L2.796875 9.953125 C3.348961 9.526040 3.945309 8.942712 4.585938 8.203125 C5.226566 7.463538 5.830726 6.640630 6.398438 5.734375 C6.966149 4.828120 7.411457 3.911463 7.734375 2.984375 L8.609375 3.296875 C8.276040 4.276047 7.807295 5.249995 7.203125 6.218750 C6.598955 7.187505 5.953128 8.065100 5.265625 8.851562 C4.578122 9.638025 3.942711 10.255206 3.359375 10.703125 Z M16.125000 18.203125 C15.687498 18.203125 15.325522 18.039064 15.039062 17.710938 C14.752603 17.382811 14.609375 16.994794 14.609375 16.546875 C14.609375 16.088539 14.755207 15.697918 15.046875 15.375000 C15.338543 15.052082 15.697915 14.890625 16.125000 14.890625 C16.562502 14.890625 16.924478 15.052082 17.210938 15.375000 C17.497397 15.697918 17.640625 16.088539 17.640625 16.546875 C17.640625 16.994794 17.497397 17.382811 17.210938 17.710938 C16.924478 18.039064 16.562502 18.203125 16.125000 18.203125 Z M6.078125 12.218750 L5.578125 11.437500 C6.401046 10.895831 7.213538 10.138026 8.015625 9.164062 C8.817712 8.190099 9.523434 7.130214 10.132812 5.984375 C10.742191 4.838536 11.156249 3.750005 11.375000 2.718750 L12.281250 2.906250 C12.104166 3.750004 11.809898 4.622391 11.398438 5.523438 C10.986977 6.424484 10.494795 7.302079 9.921875 8.156250 C9.348955 9.010421 8.734378 9.791663 8.078125 10.500000 C7.421872 11.208337 6.755212 11.781248 6.078125 12.218750 Z M2.281250 17.031250 C2.395834 17.031250 2.502604 16.911460 2.601562 16.671875 C2.700521 16.432290 2.807291 15.895837 2.921875 15.062500 C3.005209 14.499997 3.130208 13.895837 3.296875 13.250000 C3.463542 12.604163 3.752602 12.052086 4.164062 11.593750 C4.575523 11.135414 5.182288 10.906250 5.984375 10.906250 C6.817712 10.906250 7.757807 11.018228 8.804688 11.242188 C9.851568 11.466147 10.953119 11.578125 12.109375 11.578125 C13.265631 11.578125 14.369786 11.466147 15.421875 11.242188 C16.473964 11.018228 17.411454 10.906250 18.234375 10.906250 C19.046879 10.906250 19.656248 11.135414 20.062500 11.593750 C20.468752 12.052086 20.757812 12.604163 20.929688 13.250000 C21.101563 13.895837 21.223958 14.499997 21.296875 15.062500 C21.411459 15.895837 21.520833 16.432290 21.625000 16.671875 C21.729167 16.911460 21.833333 17.031250 21.937500 17.031250 C22.020834 17.031250 22.119791 16.953126 22.234375 16.796875 C22.348959 16.640624 22.447916 16.260420 22.531250 15.656250 C22.614584 15.052080 22.656250 14.088548 22.656250 12.765625 C22.656250 10.411447 22.231775 8.401050 21.382812 6.734375 C20.533850 5.067700 19.320320 3.789067 17.742188 2.898438 C16.164055 2.007808 14.286469 1.562500 12.109375 1.562500 C9.932281 1.562500 8.054695 2.007808 6.476562 2.898438 C4.898430 3.789067 3.684900 5.067700 2.835938 6.734375 C1.986975 8.401050 1.562500 10.411447 1.562500 12.765625 C1.562500 14.088548 1.604166 15.052080 1.687500 15.656250 C1.770834 16.260420 1.869791 16.640624 1.984375 16.796875 C2.098959 16.953126 2.197916 17.031250 2.281250 17.031250 Z M10.859375 12.734375 L10.203125 12.046875 C10.880212 11.401038 11.536455 10.596359 12.171875 9.632812 C12.807295 8.669266 13.374998 7.635422 13.875000 6.531250 C14.375002 5.427078 14.760415 4.348964 15.031250 3.296875 L15.937500 3.515625 C15.656249 4.619797 15.252607 5.752598 14.726562 6.914062 C14.200518 8.075527 13.601566 9.164057 12.929688 10.179688 C12.257809 11.195318 11.567712 12.046872 10.859375 12.734375 Z M15.453125 12.359375 L14.765625 11.703125 C15.255211 11.192706 15.729164 10.544275 16.187500 9.757812 C16.645836 8.971350 17.052082 8.130213 17.406250 7.234375 C17.760418 6.338537 18.015624 5.484379 18.171875 4.671875 L19.078125 4.859375 C18.911458 5.723963 18.640627 6.630204 18.265625 7.578125 C17.890623 8.526046 17.458336 9.421871 16.968750 10.265625 C16.479164 11.109379 15.973961 11.807289 15.453125 12.359375 Z M18.703125 12.421875 L18.015625 11.796875 C19.182298 10.515619 19.916665 8.953134 20.218750 7.109375 L21.156250 7.265625 C20.802082 9.307302 19.984381 11.026035 18.703125 12.421875 Z M32.421875 27.343750" /></svg>