<svg version="1.1" xmlns="http://www.w3.org/2000/svg" style="fill:rgba(0,0,0,1.0)" width="256" height="256" viewBox="0 0 31.796875 32.8125"><path fill="rgb(255, 255, 255)" d="M11.359375 32.812500 C8.223943 32.812500 5.739592 32.333338 3.906250 31.375000 C2.072908 30.416662 1.072918 29.072925 0.906250 27.343750 C0.791666 26.124994 0.692709 24.880215 0.609375 23.609375 C0.526041 22.338535 0.460938 20.895841 0.414062 19.281250 C0.367187 17.666659 0.343750 15.750011 0.343750 13.531250 L2.218750 13.531250 C2.218750 15.739594 2.239583 17.651034 2.281250 19.265625 C2.322917 20.880216 2.385416 22.317702 2.468750 23.578125 C2.552084 24.838548 2.656249 26.041661 2.781250 27.187500 C2.906251 28.281255 3.713534 29.179684 5.203125 29.882812 C6.692716 30.585941 8.744779 30.937500 11.359375 30.937500 C13.432302 30.937500 15.192701 30.770835 16.640625 30.437500 C18.088549 30.104165 19.192705 29.656253 19.953125 29.093750 C20.713545 28.531247 21.093750 27.916670 21.093750 27.250000 C21.093750 27.010415 21.054688 26.763022 20.976562 26.507812 C20.898437 26.252603 20.791667 25.989585 20.656250 25.718750 C20.489582 25.385415 20.346355 25.026044 20.226562 24.640625 C20.106770 24.255206 20.046875 23.838544 20.046875 23.390625 L20.046875 13.171875 L21.921875 13.171875 L21.921875 23.390625 C21.921875 23.859377 21.979166 24.263019 22.093750 24.601562 C22.208334 24.940106 22.338541 25.260415 22.484375 25.562500 C22.619792 25.822918 22.734375 26.085936 22.828125 26.351562 C22.921875 26.617189 22.968750 26.916665 22.968750 27.250000 C22.968750 28.364589 22.510421 29.338538 21.593750 30.171875 C20.677079 31.005212 19.354175 31.653644 17.625000 32.117188 C15.895825 32.580731 13.807304 32.812500 11.359375 32.812500 Z M11.406250 27.500000 C10.041660 27.500000 8.713548 27.276044 7.421875 26.828125 C6.130202 26.380206 4.958339 25.773441 3.906250 25.007812 C2.854161 24.242184 1.994795 23.390630 1.328125 22.453125 L1.328125 16.296875 C1.484376 16.807294 1.695311 17.320310 1.960938 17.835938 C2.226564 18.351565 2.541665 18.778644 2.906250 19.117188 C3.270835 19.455731 3.677081 19.625000 4.125000 19.625000 C4.645836 19.625000 5.140623 19.526043 5.609375 19.328125 C6.078127 19.130207 6.575518 18.898439 7.101562 18.632812 C7.627607 18.367186 8.234372 18.135418 8.921875 17.937500 C9.609378 17.739582 10.437495 17.640625 11.406250 17.640625 C12.375005 17.640625 13.203122 17.739582 13.890625 17.937500 C14.578128 18.135418 15.184893 18.367186 15.710938 18.632812 C16.236982 18.898439 16.734373 19.130207 17.203125 19.328125 C17.671877 19.526043 18.166664 19.625000 18.687500 19.625000 C19.312503 19.625000 19.830727 19.307295 20.242188 18.671875 C20.653648 18.036455 20.984374 17.354170 21.234375 16.625000 L21.234375 22.687500 C20.578122 23.593755 19.750005 24.408851 18.750000 25.132812 C17.749995 25.856774 16.625006 26.432290 15.375000 26.859375 C14.124994 27.286460 12.802090 27.500000 11.406250 27.500000 Z M11.250000 21.953125 C12.187505 21.953125 13.052079 21.731773 13.843750 21.289062 C14.635421 20.846352 15.145832 20.187504 15.375000 19.312500 L13.781250 18.531250 L11.250000 18.640625 L8.265625 18.515625 L7.093750 19.140625 C7.270834 20.078130 7.768225 20.781248 8.585938 21.250000 C9.403650 21.718752 10.291662 21.953125 11.250000 21.953125 Z M6.906250 16.968750 C6.468748 16.968750 6.106772 16.804689 5.820312 16.476562 C5.533853 16.148436 5.390625 15.760419 5.390625 15.312500 C5.390625 14.854164 5.533853 14.463543 5.820312 14.140625 C6.106772 13.817707 6.468748 13.656250 6.906250 13.656250 C7.343752 13.656250 7.705728 13.817707 7.992188 14.140625 C8.278647 14.463543 8.421875 14.854164 8.421875 15.312500 C8.421875 15.760419 8.278647 16.148436 7.992188 16.476562 C7.705728 16.804689 7.343752 16.968750 6.906250 16.968750 Z M6.031250 20.375000 C5.239579 20.375000 4.661460 20.093753 4.296875 19.531250 C3.932290 18.968747 3.750000 18.401045 3.750000 17.828125 C3.968751 17.953126 4.213540 18.039062 4.484375 18.085938 C4.755210 18.132813 5.041665 18.156250 5.343750 18.156250 C5.916670 18.156250 6.533851 18.093751 7.195312 17.968750 C7.856774 17.843749 8.533851 17.721355 9.226562 17.601562 C9.919274 17.481770 10.593747 17.421875 11.250000 17.421875 C12.239588 17.421875 13.257807 17.544270 14.304688 17.789062 C15.351568 18.033855 16.302079 18.156250 17.156250 18.156250 C17.458335 18.156250 17.744790 18.132813 18.015625 18.085938 C18.286460 18.039062 18.531249 17.953126 18.750000 17.828125 C18.750000 18.401045 18.570314 18.968747 18.210938 19.531250 C17.851561 20.093753 17.270837 20.375000 16.468750 20.375000 C15.947914 20.375000 15.377607 20.276043 14.757812 20.078125 C14.138018 19.880207 13.523441 19.682293 12.914062 19.484375 C12.304684 19.286457 11.750002 19.187500 11.250000 19.187500 C10.760414 19.187500 10.208336 19.286457 9.593750 19.484375 C8.979164 19.682293 8.364586 19.880207 7.750000 20.078125 C7.135414 20.276043 6.562503 20.375000 6.031250 20.375000 Z M15.187500 16.968750 C14.749998 16.968750 14.388022 16.804689 14.101562 16.476562 C13.815103 16.148436 13.671875 15.760419 13.671875 15.312500 C13.671875 14.854164 13.815103 14.463543 14.101562 14.140625 C14.388022 13.817707 14.749998 13.656250 15.187500 13.656250 C15.625002 13.656250 15.986978 13.817707 16.273438 14.140625 C16.559897 14.463543 16.703125 14.854164 16.703125 15.312500 C16.703125 15.760419 16.559897 16.148436 16.273438 16.476562 C15.986978 16.804689 15.625002 16.968750 15.187500 16.968750 Z M1.343750 17.031250 C1.041665 17.031250 0.789064 16.796877 0.585938 16.328125 C0.382811 15.859373 0.234375 15.239587 0.140625 14.468750 C0.046875 13.697913 0.000000 12.869796 0.000000 11.984375 C0.000000 9.598946 0.427079 7.507821 1.281250 5.710938 C2.135421 3.914054 3.393221 2.513026 5.054688 1.507812 C6.716154 0.502599 8.755196 -0.000000 11.171875 -0.000000 C13.598970 -0.000000 15.640617 0.502599 17.296875 1.507812 C18.953133 2.513026 20.208329 3.914054 21.062500 5.710938 C21.916671 7.507821 22.343750 9.598946 22.343750 11.984375 C22.343750 12.869796 22.296875 13.697913 22.203125 14.468750 C22.109375 15.239587 21.963543 15.859373 21.765625 16.328125 C21.567707 16.796877 21.312502 17.031250 21.000000 17.031250 C20.562498 17.031250 20.250001 16.825523 20.062500 16.414062 C19.874999 16.002602 19.739584 15.492191 19.656250 14.882812 C19.572916 14.273434 19.471355 13.664066 19.351562 13.054688 C19.231770 12.445309 19.020835 11.934898 18.718750 11.523438 C18.416665 11.111977 17.942712 10.906250 17.296875 10.906250 C16.796872 10.906250 16.247399 10.960937 15.648438 11.070312 C15.049476 11.179688 14.382816 11.291666 13.648438 11.406250 C12.914059 11.520834 12.088546 11.578125 11.171875 11.578125 C10.265620 11.578125 9.442712 11.520834 8.703125 11.406250 C7.963538 11.291666 7.294274 11.179688 6.695312 11.070312 C6.096351 10.960937 5.546878 10.906250 5.046875 10.906250 C4.411455 10.906250 3.940106 11.111977 3.632812 11.523438 C3.325519 11.934898 3.111980 12.445309 2.992188 13.054688 C2.872395 13.664066 2.770834 14.273434 2.687500 14.882812 C2.604166 15.492191 2.468751 16.002602 2.281250 16.414062 C2.093749 16.825523 1.781252 17.031250 1.343750 17.031250 Z M31.796875 27.343750" /></svg>