<svg version="1.1" xmlns="http://www.w3.org/2000/svg" style="fill:rgba(0,0,0,1.0)" width="256" height="256" viewBox="0 0 31.71875 32.8125"><path fill="rgb(255, 255, 255)" d="M11.265625 32.812500 C8.130193 32.812500 5.684905 32.333338 3.929688 31.375000 C2.174470 30.416662 1.208334 29.072925 1.031250 27.343750 C0.916666 26.124994 0.828125 24.786466 0.765625 23.328125 C0.703125 21.869784 0.664063 20.208343 0.648438 18.343750 C0.632812 16.479157 0.625000 14.333345 0.625000 11.906250 L2.500000 11.906250 C2.500000 14.312512 2.507812 16.450511 2.523438 18.320312 C2.539063 20.190114 2.575521 21.846347 2.632812 23.289062 C2.690104 24.731778 2.781249 26.031244 2.906250 27.187500 C3.031251 28.281255 3.802076 29.179684 5.218750 29.882812 C6.635424 30.585941 8.651029 30.937500 11.265625 30.937500 C13.338552 30.937500 15.093743 30.770835 16.531250 30.437500 C17.968757 30.104165 19.062496 29.656253 19.812500 29.093750 C20.562504 28.531247 20.937500 27.916670 20.937500 27.250000 C20.937500 27.010415 20.908854 26.763022 20.851562 26.507812 C20.794271 26.252603 20.697917 25.989585 20.562500 25.718750 C20.395832 25.385415 20.252605 25.026044 20.132812 24.640625 C20.013020 24.255206 19.953125 23.838544 19.953125 23.390625 L19.953125 11.906250 L21.828125 11.906250 L21.828125 23.390625 C21.828125 23.859377 21.885416 24.263019 22.000000 24.601562 C22.114584 24.940106 22.244791 25.260415 22.390625 25.562500 C22.526042 25.822918 22.630208 26.085936 22.703125 26.351562 C22.776042 26.617189 22.812500 26.916665 22.812500 27.250000 C22.812500 28.364589 22.359380 29.338538 21.453125 30.171875 C20.546870 31.005212 19.234384 31.653644 17.515625 32.117188 C15.796866 32.580731 13.713554 32.812500 11.265625 32.812500 Z M11.187500 22.250000 C10.302079 22.250000 9.473962 22.075523 8.703125 21.726562 C7.932288 21.377602 7.250003 20.843754 6.656250 20.125000 L7.765625 19.156250 C8.244794 19.729170 8.760414 20.140624 9.312500 20.390625 C9.864586 20.640626 10.489580 20.765625 11.187500 20.765625 C11.895837 20.765625 12.526039 20.640626 13.078125 20.390625 C13.630211 20.140624 14.140623 19.729170 14.609375 19.156250 L15.718750 20.125000 C15.124997 20.843754 14.445316 21.377602 13.679688 21.726562 C12.914059 22.075523 12.083338 22.250000 11.187500 22.250000 Z M6.843750 17.421875 C6.406248 17.421875 6.044272 17.257814 5.757812 16.929688 C5.471353 16.601561 5.328125 16.213544 5.328125 15.765625 C5.328125 15.307289 5.471353 14.916668 5.757812 14.593750 C6.044272 14.270832 6.406248 14.109375 6.843750 14.109375 C7.281252 14.109375 7.643228 14.270832 7.929688 14.593750 C8.216147 14.916668 8.359375 15.307289 8.359375 15.765625 C8.359375 16.213544 8.216147 16.601561 7.929688 16.929688 C7.643228 17.257814 7.281252 17.421875 6.843750 17.421875 Z M15.125000 17.421875 C14.687498 17.421875 14.325522 17.257814 14.039062 16.929688 C13.752603 16.601561 13.609375 16.213544 13.609375 15.765625 C13.609375 15.307289 13.752603 14.916668 14.039062 14.593750 C14.325522 14.270832 14.687498 14.109375 15.125000 14.109375 C15.562502 14.109375 15.924478 14.270832 16.210938 14.593750 C16.497397 14.916668 16.640625 15.307289 16.640625 15.765625 C16.640625 16.213544 16.497397 16.601561 16.210938 16.929688 C15.924478 17.257814 15.562502 17.421875 15.125000 17.421875 Z M1.343750 17.031250 C1.041665 17.031250 0.789064 16.796877 0.585938 16.328125 C0.382811 15.859373 0.234375 15.239587 0.140625 14.468750 C0.046875 13.697913 0.000000 12.869796 0.000000 11.984375 C0.000000 9.598946 0.427079 7.507821 1.281250 5.710938 C2.135421 3.914054 3.393221 2.513026 5.054688 1.507812 C6.716154 0.502599 8.755196 -0.000000 11.171875 -0.000000 C13.598970 -0.000000 15.640617 0.502599 17.296875 1.507812 C18.953133 2.513026 20.208329 3.914054 21.062500 5.710938 C21.916671 7.507821 22.343750 9.598946 22.343750 11.984375 C22.343750 12.869796 22.296875 13.697913 22.203125 14.468750 C22.109375 15.239587 21.963543 15.859373 21.765625 16.328125 C21.567707 16.796877 21.312502 17.031250 21.000000 17.031250 C20.562498 17.031250 20.250001 16.825523 20.062500 16.414062 C19.874999 16.002602 19.739584 15.492191 19.656250 14.882812 C19.572916 14.273434 19.471355 13.664066 19.351562 13.054688 C19.231770 12.445309 19.020835 11.934898 18.718750 11.523438 C18.416665 11.111977 17.942712 10.906250 17.296875 10.906250 C16.796872 10.906250 16.247399 10.960937 15.648438 11.070312 C15.049476 11.179688 14.382816 11.291666 13.648438 11.406250 C12.914059 11.520834 12.088546 11.578125 11.171875 11.578125 C10.265620 11.578125 9.442712 11.520834 8.703125 11.406250 C7.963538 11.291666 7.294274 11.179688 6.695312 11.070312 C6.096351 10.960937 5.546878 10.906250 5.046875 10.906250 C4.411455 10.906250 3.940106 11.111977 3.632812 11.523438 C3.325519 11.934898 3.111980 12.445309 2.992188 13.054688 C2.872395 13.664066 2.770834 14.273434 2.687500 14.882812 C2.604166 15.492191 2.468751 16.002602 2.281250 16.414062 C2.093749 16.825523 1.781252 17.031250 1.343750 17.031250 Z M31.718750 27.343750" /></svg>