<svg version="1.1" xmlns="http://www.w3.org/2000/svg" style="fill:rgba(0,0,0,1.0)" width="256" height="256" viewBox="0 0 38.515625 32.8125"><path fill="rgb(255, 255, 255)" d="M0.000000 30.968750 C0.000000 28.927073 0.046875 27.216153 0.140625 25.835938 C0.234375 24.455722 0.471352 23.294276 0.851562 22.351562 C1.231773 21.408849 1.843746 20.567712 2.687500 19.828125 C3.020835 19.536457 3.322915 19.242189 3.593750 18.945312 C3.864585 18.648436 4.096353 18.276044 4.289062 17.828125 C4.481772 17.380206 4.627604 16.789066 4.726562 16.054688 C4.825521 15.320309 4.875000 14.369798 4.875000 13.203125 C4.875000 11.359366 5.221351 9.638029 5.914062 8.039062 C6.606774 6.440096 7.562494 5.039069 8.781250 3.835938 C10.000006 2.632806 11.414054 1.692712 13.023438 1.015625 C14.632821 0.338538 16.359366 -0.000000 18.203125 -0.000000 C20.046884 -0.000000 21.773429 0.338538 23.382812 1.015625 C24.992196 1.692712 26.406244 2.632806 27.625000 3.835938 C28.843756 5.039069 29.799476 6.440096 30.492188 8.039062 C31.184899 9.638029 31.531250 11.359366 31.531250 13.203125 C31.531250 14.369798 31.580729 15.320309 31.679688 16.054688 C31.778646 16.789066 31.924478 17.380206 32.117188 17.828125 C32.309897 18.276044 32.541665 18.648436 32.812500 18.945312 C33.083335 19.242189 33.385415 19.536457 33.718750 19.828125 C34.572921 20.567712 35.187498 21.408849 35.562500 22.351562 C35.937502 23.294276 36.171875 24.455722 36.265625 25.835938 C36.359375 27.216153 36.406250 28.927073 36.406250 30.968750 Z M3.140625 32.812500 C2.911457 32.812500 2.716147 32.731772 2.554688 32.570312 C2.393228 32.408853 2.312500 32.213543 2.312500 31.984375 L2.312500 30.515625 L9.203125 30.515625 L9.203125 31.984375 C9.203125 32.213543 9.127605 32.408853 8.976562 32.570312 C8.825520 32.731772 8.630210 32.812500 8.390625 32.812500 Z M0.921875 27.156250 L0.921875 25.281250 L35.484375 25.281250 L35.484375 27.156250 Z M14.625000 20.453125 L13.812500 19.984375 L14.765625 18.343750 L15.578125 18.812500 Z M11.546875 17.703125 L11.078125 16.890625 L12.734375 15.953125 L13.203125 16.765625 Z M17.734375 21.296875 L17.734375 19.390625 L18.671875 19.390625 L18.671875 21.296875 Z M10.500000 13.812500 L10.500000 12.875000 L12.406250 12.875000 L12.406250 13.812500 Z M28.015625 32.812500 C27.776040 32.812500 27.580730 32.731772 27.429688 32.570312 C27.278645 32.408853 27.203125 32.213543 27.203125 31.984375 L27.203125 30.515625 L34.093750 30.515625 L34.093750 31.984375 C34.093750 32.213543 34.015626 32.408853 33.859375 32.570312 C33.703124 32.731772 33.505210 32.812500 33.265625 32.812500 Z M21.781250 20.453125 L20.828125 18.812500 L21.640625 18.343750 L22.593750 19.984375 Z M12.953125 10.859375 L11.312500 9.906250 L11.781250 9.093750 L13.421875 10.046875 Z M1.859375 29.093750 L34.546875 29.093750 C34.546875 27.968744 34.513021 26.916672 34.445312 25.937500 C34.377604 24.958328 34.192710 24.062504 33.890625 23.250000 C33.588540 22.437496 33.083337 21.729170 32.375000 21.125000 C31.979165 20.781248 31.583335 20.377606 31.187500 19.914062 C30.791665 19.450519 30.458335 18.760421 30.187500 17.843750 L30.812500 17.843750 C30.541665 18.739588 30.166669 19.567705 29.687500 20.328125 C29.208331 21.088545 28.648441 21.736976 28.007812 22.273438 C27.367184 22.809899 26.666670 23.197915 25.906250 23.437500 L25.437500 21.937500 C26.645839 21.572915 27.651038 20.640633 28.453125 19.140625 C29.255212 17.640618 29.656250 15.661471 29.656250 13.203125 C29.656250 11.609367 29.359378 10.127611 28.765625 8.757812 C28.171872 7.388014 27.351568 6.187505 26.304688 5.156250 C25.257807 4.124995 24.041674 3.320315 22.656250 2.742188 C21.270826 2.164060 19.786466 1.875000 18.203125 1.875000 C16.619784 1.875000 15.135424 2.164060 13.750000 2.742188 C12.364576 3.320315 11.148443 4.124995 10.101562 5.156250 C9.054682 6.187505 8.234378 7.388014 7.640625 8.757812 C7.046872 10.127611 6.750000 11.609367 6.750000 13.203125 C6.750000 15.661471 7.153642 17.640618 7.960938 19.140625 C8.768233 20.640633 9.770827 21.572915 10.968750 21.937500 L10.500000 23.437500 C9.749996 23.197915 9.052087 22.809899 8.406250 22.273438 C7.760413 21.736976 7.197919 21.088545 6.718750 20.328125 C6.239581 19.567705 5.864585 18.739588 5.593750 17.843750 L6.218750 17.843750 C5.958332 18.760421 5.627606 19.450519 5.226562 19.914062 C4.825519 20.377606 4.427085 20.781248 4.031250 21.125000 C3.322913 21.729170 2.817710 22.437496 2.515625 23.250000 C2.213540 24.062504 2.028646 24.958328 1.960938 25.937500 C1.893229 26.916672 1.859375 27.968744 1.859375 29.093750 Z M17.390625 13.875000 L14.734375 12.218750 L15.546875 10.906250 L18.203125 12.562500 Z M18.203125 23.453125 C16.807285 23.453125 15.500006 23.192711 14.281250 22.671875 C13.062494 22.151039 11.989588 21.427088 11.062500 20.500000 C10.135412 19.572912 9.411461 18.500006 8.890625 17.281250 C8.369789 16.062494 8.109375 14.755215 8.109375 13.359375 C8.109375 11.963535 8.369789 10.656256 8.890625 9.437500 C9.411461 8.218744 10.135412 7.145838 11.062500 6.218750 C11.989588 5.291662 13.062494 4.567711 14.281250 4.046875 C15.500006 3.526039 16.807285 3.265625 18.203125 3.265625 C19.598965 3.265625 20.906244 3.526039 22.125000 4.046875 C23.343756 4.567711 24.416662 5.291662 25.343750 6.218750 C26.270838 7.145838 26.994789 8.218744 27.515625 9.437500 C28.036461 10.656256 28.296875 11.963535 28.296875 13.359375 C28.296875 14.755215 28.036461 16.062494 27.515625 17.281250 C26.994789 18.500006 26.270838 19.572912 25.343750 20.500000 C24.416662 21.427088 23.343756 22.151039 22.125000 22.671875 C20.906244 23.192711 19.598965 23.453125 18.203125 23.453125 Z M18.203125 21.890625 C19.380214 21.890625 20.484370 21.669273 21.515625 21.226562 C22.546880 20.783852 23.453121 20.171879 24.234375 19.390625 C25.015629 18.609371 25.627602 17.703130 26.070312 16.671875 C26.513023 15.640620 26.734375 14.536464 26.734375 13.359375 C26.734375 12.182286 26.513023 11.078130 26.070312 10.046875 C25.627602 9.015620 25.015629 8.109379 24.234375 7.328125 C23.453121 6.546871 22.546880 5.934898 21.515625 5.492188 C20.484370 5.049477 19.380214 4.828125 18.203125 4.828125 C17.026036 4.828125 15.921880 5.049477 14.890625 5.492188 C13.859370 5.934898 12.953129 6.546871 12.171875 7.328125 C11.390621 8.109379 10.778648 9.015620 10.335938 10.046875 C9.893227 11.078130 9.671875 12.182286 9.671875 13.359375 C9.671875 14.536464 9.893227 15.640620 10.335938 16.671875 C10.778648 17.703130 11.390621 18.609371 12.171875 19.390625 C12.953129 20.171879 13.859370 20.783852 14.890625 21.226562 C15.921880 21.669273 17.026036 21.890625 18.203125 21.890625 Z M18.187500 14.687500 C17.822915 14.687500 17.510418 14.557293 17.250000 14.296875 C16.989582 14.036457 16.859375 13.723960 16.859375 13.359375 C16.859375 12.994790 16.989582 12.682293 17.250000 12.421875 C17.510418 12.161457 17.822915 12.031250 18.187500 12.031250 C18.572919 12.031250 18.895832 12.161457 19.156250 12.421875 C19.416668 12.682293 19.546875 12.994790 19.546875 13.359375 C19.546875 13.723960 19.416668 14.036457 19.156250 14.296875 C18.895832 14.557293 18.572919 14.687500 18.187500 14.687500 Z M14.906250 8.562500 L13.953125 6.921875 L14.765625 6.453125 L15.718750 8.093750 Z M24.859375 17.703125 L23.203125 16.765625 L23.671875 15.953125 L25.328125 16.890625 Z M18.906250 13.609375 L18.437500 12.796875 L22.343750 10.453125 L22.812500 11.265625 Z M24.000000 13.812500 L24.000000 12.875000 L25.906250 12.875000 L25.906250 13.812500 Z M17.734375 7.328125 L17.734375 5.421875 L18.671875 5.421875 L18.671875 7.328125 Z M23.453125 10.859375 L22.984375 10.046875 L24.625000 9.093750 L25.093750 9.906250 Z M21.500000 8.562500 L20.687500 8.093750 L21.640625 6.453125 L22.453125 6.921875 Z M38.515625 27.343750" /></svg>