<svg version="1.1" xmlns="http://www.w3.org/2000/svg" style="fill:rgba(0,0,0,1.0)" width="256" height="256" viewBox="0 0 38.13281293945436 31.25"><path fill="rgb(255, 255, 255)" d="M35.250000 20.140625 L33.843750 15.265625 L33.843750 2.359375 C33.843750 2.130207 33.770834 1.940105 33.625000 1.789062 C33.479166 1.638020 33.291668 1.562500 33.062500 1.562500 C32.833332 1.562500 32.645834 1.638020 32.500000 1.789062 C32.354166 1.940105 32.281250 2.130207 32.281250 2.359375 L32.281250 10.890625 C31.406246 10.328122 30.583337 9.872398 29.812500 9.523438 C29.041663 9.174477 28.289066 8.919272 27.554688 8.757812 C26.820309 8.596353 26.062504 8.515625 25.281250 8.515625 C23.874993 8.515625 22.578131 8.729165 21.390625 9.156250 C20.203119 9.583335 19.132817 10.205725 18.179688 11.023438 C17.226558 11.841150 16.395837 12.846348 15.687500 14.039062 C14.979163 15.231777 14.406252 16.593742 13.968750 18.125000 L12.375000 18.593750 C12.739585 16.687490 13.328121 15.010424 14.140625 13.562500 C14.953129 12.114576 15.932286 10.901047 17.078125 9.921875 C18.223964 8.942703 19.494785 8.203128 20.890625 7.703125 C22.286465 7.203122 23.749992 6.953125 25.281250 6.953125 C25.958337 6.953125 26.617184 7.002604 27.257812 7.101562 C27.898441 7.200521 28.520830 7.346353 29.125000 7.539062 C29.729170 7.731772 30.312497 7.968749 30.875000 8.250000 L30.875000 2.234375 C30.875000 1.588538 31.080727 1.054690 31.492188 0.632812 C31.903648 0.210935 32.427080 -0.000000 33.062500 -0.000000 C33.697920 -0.000000 34.221352 0.210935 34.632812 0.632812 C35.044273 1.054690 35.250000 1.588538 35.250000 2.234375 Z M4.578125 27.312500 L0.468750 25.984375 C0.156248 25.880208 0.052083 25.682293 0.156250 25.390625 L0.453125 24.515625 C0.494792 24.390624 0.570312 24.294271 0.679688 24.226562 C0.789063 24.158854 0.911458 24.151041 1.046875 24.203125 L5.218750 25.546875 Z M10.250000 29.156250 L7.546875 28.281250 L8.187500 26.515625 L10.828125 27.375000 Z M13.046875 31.171875 C12.182287 31.171875 11.442711 30.864586 10.828125 30.250000 C10.213539 29.635414 9.906250 28.895838 9.906250 28.031250 C9.906250 27.166662 10.213539 26.427086 10.828125 25.812500 C11.442711 25.197914 12.182287 24.890625 13.046875 24.890625 C13.911463 24.890625 14.651039 25.197914 15.265625 25.812500 C15.880211 26.427086 16.187500 27.166662 16.187500 28.031250 C16.187500 28.895838 15.880211 29.635414 15.265625 30.250000 C14.651039 30.864586 13.911463 31.171875 13.046875 31.171875 Z M13.046875 29.640625 C13.494794 29.640625 13.874998 29.484377 14.187500 29.171875 C14.500002 28.859373 14.656250 28.479169 14.656250 28.031250 C14.656250 27.583331 14.500002 27.203127 14.187500 26.890625 C13.874998 26.578123 13.494794 26.421875 13.046875 26.421875 C12.598956 26.421875 12.218752 26.578123 11.906250 26.890625 C11.593748 27.203127 11.437500 27.583331 11.437500 28.031250 C11.437500 28.479169 11.593748 28.859373 11.906250 29.171875 C12.218752 29.484377 12.598956 29.640625 13.046875 29.640625 Z M6.062500 29.906250 C5.208329 29.906250 4.593752 29.575524 4.218750 28.914062 C3.843748 28.252601 3.786457 27.515629 4.046875 26.703125 L5.531250 22.203125 C6.197920 20.182282 7.044266 18.591152 8.070312 17.429688 C9.096359 16.268223 10.177078 15.479169 11.312500 15.062500 L11.640625 16.453125 C10.703120 16.817710 9.812504 17.518224 8.968750 18.554688 C8.124996 19.591151 7.427086 20.942700 6.875000 22.609375 L5.390625 27.109375 C5.255208 27.505210 5.247395 27.835936 5.367188 28.101562 C5.486980 28.367189 5.703123 28.500000 6.015625 28.500000 C6.234376 28.500000 6.429687 28.432292 6.601562 28.296875 C6.773438 28.161458 6.895833 27.989584 6.968750 27.781250 L8.656250 22.703125 L9.828125 23.171875 C10.359378 23.380209 10.773436 23.648436 11.070312 23.976562 C11.367189 24.304689 11.562500 24.812497 11.656250 25.500000 L10.328125 26.625000 C10.328125 25.979163 10.273438 25.510418 10.164062 25.218750 C10.054687 24.927082 9.838543 24.708334 9.515625 24.562500 L8.312500 28.187500 C8.135416 28.718753 7.846356 29.138019 7.445312 29.445312 C7.044269 29.752606 6.583336 29.906250 6.062500 29.906250 Z M14.390625 26.109375 L13.187500 25.468750 C13.020833 24.385411 12.726565 23.578128 12.304688 23.046875 C11.882810 22.515622 11.260421 22.083335 10.437500 21.750000 L9.265625 21.265625 C9.838545 20.119786 10.505205 19.234378 11.265625 18.609375 C12.026045 17.984372 12.880204 17.671875 13.828125 17.671875 L16.640625 17.671875 L16.375000 19.078125 L13.828125 19.078125 C13.359373 19.078125 12.916669 19.200520 12.500000 19.445312 C12.083331 19.690105 11.687502 20.078122 11.312500 20.609375 C12.354172 21.067711 13.127602 21.739579 13.632812 22.625000 C14.138023 23.510421 14.390625 24.671868 14.390625 26.109375 Z M20.078125 25.484375 C19.661456 24.963539 19.317710 24.385420 19.046875 23.750000 C18.776040 23.114580 18.604167 22.442712 18.531250 21.734375 L23.828125 21.734375 Z M24.828125 28.031250 C24.119788 27.958333 23.447920 27.786460 22.812500 27.515625 C22.177080 27.244790 21.598961 26.901044 21.078125 26.484375 L24.828125 22.734375 Z M12.921875 16.781250 C11.328117 16.781250 10.531250 16.000008 10.531250 14.437500 C10.531250 12.874992 11.328117 12.093750 12.921875 12.093750 L15.593750 12.093750 L13.718750 16.781250 Z M18.531250 20.328125 C18.604167 19.619788 18.776040 18.947920 19.046875 18.312500 C19.317710 17.677080 19.661456 17.098961 20.078125 16.578125 L23.828125 20.328125 Z M26.234375 28.031250 L26.234375 22.734375 L29.984375 26.484375 C29.463539 26.901044 28.885420 27.244790 28.250000 27.515625 C27.614580 27.786460 26.942712 27.958333 26.234375 28.031250 Z M25.531250 31.250000 C24.124993 31.250000 22.804694 30.984378 21.570312 30.453125 C20.335931 29.921872 19.250005 29.187505 18.312500 28.250000 C17.374995 27.312495 16.640628 26.226569 16.109375 24.992188 C15.578122 23.757806 15.312500 22.437507 15.312500 21.031250 C15.312500 19.635410 15.578122 18.320319 16.109375 17.085938 C16.640628 15.851556 17.374995 14.763026 18.312500 13.820312 C19.250005 12.877599 20.335931 12.140628 21.570312 11.609375 C22.804694 11.078122 24.124993 10.812500 25.531250 10.812500 C26.937507 10.812500 28.257806 11.078122 29.492188 11.609375 C30.726569 12.140628 31.812495 12.874995 32.750000 13.812500 C33.687505 14.750005 34.421872 15.835931 34.953125 17.070312 C35.484378 18.304694 35.750000 19.624993 35.750000 21.031250 C35.750000 22.437507 35.484378 23.757806 34.953125 24.992188 C34.421872 26.226569 33.687505 27.312495 32.750000 28.250000 C31.812495 29.187505 30.726569 29.921872 29.492188 30.453125 C28.257806 30.984378 26.937507 31.250000 25.531250 31.250000 Z M25.531250 29.687500 C26.729173 29.687500 27.851557 29.463544 28.898438 29.015625 C29.945318 28.567706 30.864579 27.947921 31.656250 27.156250 C32.447921 26.364579 33.067706 25.445318 33.515625 24.398438 C33.963544 23.351557 34.187500 22.229173 34.187500 21.031250 C34.187500 19.833327 33.963544 18.710943 33.515625 17.664062 C33.067706 16.617182 32.447921 15.697921 31.656250 14.906250 C30.864579 14.114579 29.945318 13.494794 28.898438 13.046875 C27.851557 12.598956 26.729173 12.375000 25.531250 12.375000 C24.333327 12.375000 23.210943 12.601560 22.164062 13.054688 C21.117182 13.507815 20.197921 14.130204 19.406250 14.921875 C18.614579 15.713546 17.994794 16.632807 17.546875 17.679688 C17.098956 18.726568 16.875000 19.843744 16.875000 21.031250 C16.875000 22.229173 17.098956 23.351557 17.546875 24.398438 C17.994794 25.445318 18.614579 26.364579 19.406250 27.156250 C20.197921 27.947921 21.117182 28.567706 22.164062 29.015625 C23.210943 29.463544 24.333327 29.687500 25.531250 29.687500 Z M25.531250 23.109375 C24.958330 23.109375 24.468752 22.906252 24.062500 22.500000 C23.656248 22.093748 23.453125 21.604170 23.453125 21.031250 C23.453125 20.458330 23.656248 19.968752 24.062500 19.562500 C24.468752 19.156248 24.958330 18.953125 25.531250 18.953125 C26.104170 18.953125 26.593748 19.156248 27.000000 19.562500 C27.406252 19.968752 27.609375 20.458330 27.609375 21.031250 C27.609375 21.604170 27.406252 22.093748 27.000000 22.500000 C26.593748 22.906252 26.104170 23.109375 25.531250 23.109375 Z M24.828125 19.328125 L21.078125 15.578125 C21.598961 15.151040 22.177080 14.804689 22.812500 14.539062 C23.447920 14.273436 24.119788 14.104167 24.828125 14.031250 Z M30.984375 25.484375 L27.234375 21.734375 L32.531250 21.734375 C32.458333 22.442712 32.289064 23.114580 32.023438 23.750000 C31.757811 24.385420 31.411460 24.963539 30.984375 25.484375 Z M27.234375 20.328125 L30.984375 16.578125 C31.411460 17.098961 31.757811 17.677080 32.023438 18.312500 C32.289064 18.947920 32.458333 19.619788 32.531250 20.328125 Z M26.234375 19.328125 L26.234375 14.031250 C26.942712 14.104167 27.614580 14.273436 28.250000 14.539062 C28.885420 14.804689 29.463539 15.151040 29.984375 15.578125 Z M31.437500 8.812500 L26.671875 8.000000 L27.421875 2.687500 C27.557292 1.760412 27.783853 1.080731 28.101562 0.648438 C28.419272 0.216144 28.854164 -0.000000 29.406250 -0.000000 L30.328125 -0.000000 C30.880211 -0.000000 31.312498 0.057291 31.625000 0.171875 C31.937502 0.286459 32.197916 0.489582 32.406250 0.781250 Z M38.250000 26.562500" /></svg>