<svg version="1.1" xmlns="http://www.w3.org/2000/svg" style="fill:rgba(0,0,0,1.0)" width="256" height="256" viewBox="0 0 35.4375 32.8125"><path fill="rgb(255, 255, 255)" d="M9.250000 27.859375 C9.250000 27.567707 9.257812 27.312501 9.273438 27.093750 C9.289063 26.874999 9.302083 26.697917 9.312500 26.562500 L8.937500 26.562500 C7.958328 26.562500 6.979172 26.437501 6.000000 26.187500 C5.020828 25.937499 4.122400 25.614585 3.304688 25.218750 C2.486975 24.822915 1.822919 24.393231 1.312500 23.929688 C0.802081 23.466144 0.520834 23.015627 0.468750 22.578125 L3.718750 21.078125 C2.968746 20.578122 2.322919 20.059899 1.781250 19.523438 C1.239581 18.986976 0.645837 18.333337 0.000000 17.562500 L2.140625 16.984375 C1.734373 16.328122 1.369793 15.580733 1.046875 14.742188 C0.723957 13.903642 0.468751 13.054692 0.281250 12.195312 C0.093749 11.335933 0.000000 10.541670 0.000000 9.812500 C0.708337 9.812500 1.447913 9.906249 2.218750 10.093750 C2.989587 10.281251 3.729163 10.513019 4.437500 10.789062 C5.145837 11.065106 5.749998 11.348957 6.250000 11.640625 L6.421875 10.156250 C7.411463 10.541669 8.255205 11.026039 8.953125 11.609375 C8.817708 11.098956 8.729167 10.583336 8.687500 10.062500 C8.645833 9.541664 8.625000 8.984378 8.625000 8.390625 C8.625000 7.734372 8.669270 7.083337 8.757812 6.437500 C8.846355 5.791663 8.958333 5.312502 9.093750 5.000000 C9.614586 5.260418 10.078123 5.651039 10.484375 6.171875 C10.557292 5.338538 10.736978 4.580733 11.023438 3.898438 C11.309897 3.216142 11.635415 2.697918 12.000000 2.343750 L12.781250 2.875000 C13.052085 2.291664 13.406248 1.729169 13.843750 1.187500 C14.281252 0.645831 14.708331 0.250001 15.125000 -0.000000 C15.541669 0.250001 15.971352 0.645831 16.414062 1.187500 C16.856773 1.729169 17.208332 2.291664 17.468750 2.875000 L18.250000 2.343750 C18.614585 2.697918 18.940103 3.216142 19.226562 3.898438 C19.513022 4.580733 19.692708 5.338538 19.765625 6.171875 C20.171877 5.651039 20.635414 5.260418 21.156250 5.000000 C21.302084 5.312502 21.416666 5.791663 21.500000 6.437500 C21.583334 7.083337 21.625000 7.734372 21.625000 8.390625 C21.625000 8.984378 21.606771 9.541664 21.570312 10.062500 C21.533854 10.583336 21.442709 11.098956 21.296875 11.609375 C21.994795 11.026039 22.838537 10.541669 23.828125 10.156250 L24.000000 11.640625 C24.510419 11.348957 25.117184 11.065106 25.820312 10.789062 C26.523441 10.513019 27.263017 10.281251 28.039062 10.093750 C28.815108 9.906249 29.552080 9.812500 30.250000 9.812500 C30.250000 10.541670 30.156251 11.335933 29.968750 12.195312 C29.781249 13.054692 29.526043 13.903642 29.203125 14.742188 C28.880207 15.580733 28.515627 16.328122 28.109375 16.984375 L30.250000 17.562500 C29.604163 18.333337 29.010419 18.986976 28.468750 19.523438 C27.927081 20.059899 27.281254 20.578122 26.531250 21.078125 L29.781250 22.578125 C29.739583 23.015627 29.460940 23.466144 28.945312 23.929688 C28.429685 24.393231 27.763025 24.822915 26.945312 25.218750 C26.127600 25.614585 25.229172 25.937499 24.250000 26.187500 C23.270828 26.437501 22.291672 26.562500 21.312500 26.562500 L20.937500 26.562500 C20.958333 26.697917 20.973958 26.874999 20.984375 27.093750 C20.994792 27.312501 21.000000 27.567707 21.000000 27.859375 C20.062495 27.859375 19.059901 27.739585 17.992188 27.500000 C16.924474 27.260415 16.005212 26.796878 15.234375 26.109375 L15.015625 26.109375 C14.244788 26.796878 13.325526 27.260415 12.257812 27.500000 C11.190099 27.739585 10.187505 27.859375 9.250000 27.859375 Z M15.125000 32.812500 C14.458330 32.812500 14.125000 32.583336 14.125000 32.125000 C14.125000 31.979166 14.143229 31.830730 14.179688 31.679688 C14.216146 31.528645 14.255208 31.302085 14.296875 31.000000 C14.338542 30.697915 14.377604 30.247399 14.414062 29.648438 C14.450521 29.049476 14.468750 28.229172 14.468750 27.187500 L14.468750 23.531250 C14.124998 23.447916 13.648441 23.385417 13.039062 23.343750 C12.429684 23.302083 11.802087 23.281250 11.156250 23.281250 L8.375000 23.281250 C7.760414 23.281250 7.453125 23.083335 7.453125 22.687500 C7.453125 22.291665 7.760414 22.093750 8.375000 22.093750 L11.140625 22.093750 C11.515627 22.093750 11.869790 22.093750 12.203125 22.093750 C12.536460 22.093750 12.838540 22.104167 13.109375 22.125000 L6.203125 16.875000 C5.848957 16.604165 5.596355 16.361980 5.445312 16.148438 C5.294270 15.934895 5.218750 15.750001 5.218750 15.593750 C5.218750 15.343749 5.343749 15.218750 5.593750 15.218750 C5.739584 15.218750 5.932290 15.281249 6.171875 15.406250 C6.411460 15.531251 6.640624 15.677083 6.859375 15.843750 L14.500000 21.609375 L14.500000 9.187500 C14.500000 7.874993 14.557291 6.968753 14.671875 6.468750 C14.786459 5.968747 14.937499 5.718750 15.125000 5.718750 C15.312501 5.718750 15.463541 5.968747 15.578125 6.468750 C15.692709 6.968753 15.750000 7.874993 15.750000 9.187500 L15.750000 21.609375 L23.390625 15.843750 C23.609376 15.677083 23.838540 15.531251 24.078125 15.406250 C24.317710 15.281249 24.510416 15.218750 24.656250 15.218750 C24.906251 15.218750 25.031250 15.343749 25.031250 15.593750 C25.031250 15.750001 24.958334 15.934895 24.812500 16.148438 C24.666666 16.361980 24.411460 16.604165 24.046875 16.875000 L17.140625 22.125000 C17.411460 22.104167 17.713540 22.093750 18.046875 22.093750 C18.380210 22.093750 18.734373 22.093750 19.109375 22.093750 L21.875000 22.093750 C22.489586 22.093750 22.796875 22.291665 22.796875 22.687500 C22.796875 23.083335 22.489586 23.281250 21.875000 23.281250 L19.093750 23.281250 C18.458330 23.281250 17.833336 23.302083 17.218750 23.343750 C16.604164 23.385417 16.125002 23.447916 15.781250 23.531250 L15.781250 27.187500 C15.781250 28.229172 15.799479 29.049476 15.835938 29.648438 C15.872396 30.247399 15.911458 30.697915 15.953125 31.000000 C15.994792 31.302085 16.033854 31.528645 16.070312 31.679688 C16.106771 31.830730 16.125000 31.979166 16.125000 32.125000 C16.125000 32.583336 15.791670 32.812500 15.125000 32.812500 Z M10.812500 25.984375 C11.166668 25.984375 11.601560 25.895834 12.117188 25.718750 C12.632815 25.541666 13.148435 25.286460 13.664062 24.953125 C14.179690 24.619790 14.593748 24.223961 14.906250 23.765625 L15.343750 23.765625 C15.666668 24.223961 16.083331 24.619790 16.593750 24.953125 C17.104169 25.286460 17.619789 25.541666 18.140625 25.718750 C18.661461 25.895834 19.093748 25.984375 19.437500 25.984375 C19.437500 25.838541 19.424479 25.645835 19.398438 25.406250 C19.372396 25.166665 19.333334 24.911460 19.281250 24.640625 C19.708335 24.713542 20.072915 24.765625 20.375000 24.796875 C20.677085 24.828125 20.989582 24.843750 21.312500 24.843750 C21.864586 24.843750 22.455726 24.786459 23.085938 24.671875 C23.716149 24.557291 24.315101 24.411459 24.882812 24.234375 C25.450524 24.057291 25.929686 23.875001 26.320312 23.687500 C26.710939 23.499999 26.947916 23.328126 27.031250 23.171875 L22.625000 21.156250 C23.520838 20.833332 24.364579 20.424482 25.156250 19.929688 C25.947921 19.434893 26.635414 18.911461 27.218750 18.359375 L25.312500 17.781250 C25.958337 17.041663 26.492185 16.312504 26.914062 15.593750 C27.335940 14.874996 27.656249 14.192712 27.875000 13.546875 C28.093751 12.901038 28.218750 12.312503 28.250000 11.781250 C27.552080 11.916667 26.796879 12.179686 25.984375 12.570312 C25.171871 12.960939 24.052090 13.583329 22.625000 14.437500 L22.453125 12.765625 C22.005206 13.119793 21.562502 13.505206 21.125000 13.921875 C20.687498 14.338544 20.104170 14.979162 19.375000 15.843750 L18.140625 15.187500 C18.786462 14.104161 19.244790 12.979172 19.515625 11.812500 C19.786460 10.645828 19.921875 9.505214 19.921875 8.390625 C19.921875 8.328125 19.919271 8.239584 19.914062 8.125000 C19.908854 8.010416 19.901042 7.901042 19.890625 7.796875 L18.328125 9.109375 C18.328125 8.182287 18.278646 7.351566 18.179688 6.617188 C18.080729 5.882809 17.932293 5.291669 17.734375 4.843750 L16.750000 5.640625 C16.510415 4.776037 16.265626 4.083336 16.015625 3.562500 C15.765624 3.041664 15.468752 2.593752 15.125000 2.218750 C14.781248 2.593752 14.484376 3.041664 14.234375 3.562500 C13.984374 4.083336 13.739585 4.776037 13.500000 5.640625 L12.515625 4.843750 C12.317707 5.291669 12.169271 5.882809 12.070312 6.617188 C11.971354 7.351566 11.921875 8.182287 11.921875 9.109375 L10.359375 7.796875 C10.348958 7.901042 10.341146 8.010416 10.335938 8.125000 C10.330729 8.239584 10.328125 8.328125 10.328125 8.390625 C10.328125 9.505214 10.463540 10.645828 10.734375 11.812500 C11.005210 12.979172 11.463538 14.104161 12.109375 15.187500 L10.875000 15.843750 C10.145830 14.979162 9.562502 14.338544 9.125000 13.921875 C8.687498 13.505206 8.244794 13.119793 7.796875 12.765625 L7.625000 14.437500 C6.208326 13.583329 5.093754 12.960939 4.281250 12.570312 C3.468746 12.179686 2.708337 11.916667 2.000000 11.781250 C2.031250 12.312503 2.156249 12.901038 2.375000 13.546875 C2.593751 14.192712 2.916665 14.874996 3.343750 15.593750 C3.770835 16.312504 4.302080 17.041663 4.937500 17.781250 L3.031250 18.359375 C3.614586 18.911461 4.302079 19.434893 5.093750 19.929688 C5.885421 20.424482 6.729162 20.833332 7.625000 21.156250 L3.218750 23.171875 C3.302084 23.328126 3.541665 23.499999 3.937500 23.687500 C4.333335 23.875001 4.815101 24.057291 5.382812 24.234375 C5.950524 24.411459 6.546872 24.557291 7.171875 24.671875 C7.796878 24.786459 8.385414 24.843750 8.937500 24.843750 C9.270835 24.843750 9.588540 24.828125 9.890625 24.796875 C10.192710 24.765625 10.552081 24.713542 10.968750 24.640625 C10.916666 24.911460 10.877604 25.166665 10.851562 25.406250 C10.825521 25.645835 10.812500 25.838541 10.812500 25.984375 Z M35.437500 27.343750" /></svg>