<svg version="1.1" xmlns="http://www.w3.org/2000/svg" style="fill:rgba(0,0,0,1.0)" width="256" height="256" viewBox="0 0 37.65625 32.8125"><path fill="rgb(255, 255, 255)" d="M17.343750 32.812500 C19.291676 32.812500 21.190095 32.578127 23.039062 32.109375 C24.888030 31.640623 26.578117 30.937505 28.109375 30.000000 L25.718750 22.937500 C25.583333 22.520831 25.450521 22.096356 25.320312 21.664062 C25.190104 21.231769 25.125000 20.869793 25.125000 20.578125 C25.125000 20.171873 25.190104 19.791668 25.320312 19.437500 C25.450521 19.083332 25.578124 18.703127 25.703125 18.296875 C25.828126 17.890623 25.890625 17.406253 25.890625 16.843750 L25.890625 13.750000 C26.140626 14.156252 26.385415 14.559894 26.625000 14.960938 C26.864585 15.361981 27.098957 15.768227 27.328125 16.179688 C27.557293 16.591148 27.786457 17.015623 28.015625 17.453125 C27.786457 18.369796 27.523439 19.317703 27.226562 20.296875 C26.929686 21.276047 26.578127 22.286453 26.171875 23.328125 C26.598960 23.588543 27.190100 23.851561 27.945312 24.117188 C28.700525 24.382814 29.484371 24.622395 30.296875 24.835938 C31.109379 25.049480 31.802080 25.213541 32.375000 25.328125 C32.562501 24.734372 32.778645 24.033858 33.023438 23.226562 C33.268230 22.419267 33.526040 21.536463 33.796875 20.578125 C34.026043 19.786454 34.231770 18.976567 34.414062 18.148438 C34.596355 17.320308 34.687500 16.494796 34.687500 15.671875 C34.687500 15.234373 34.611980 14.760419 34.460938 14.250000 C34.309895 13.739581 34.106772 13.197920 33.851562 12.625000 C33.596353 12.052080 33.299481 11.455732 32.960938 10.835938 C32.622394 10.216143 32.265627 9.583337 31.890625 8.937500 C30.963537 7.343742 29.986984 5.992193 28.960938 4.882812 C27.934891 3.773432 26.927088 2.984377 25.937500 2.515625 C25.510415 2.307291 25.057294 2.145834 24.578125 2.031250 C24.098956 1.916666 23.630211 1.817709 23.171875 1.734375 C22.911457 1.244789 22.510419 0.833335 21.968750 0.500000 C21.427081 0.166665 20.880211 -0.000000 20.328125 -0.000000 C19.869789 -0.000000 19.372399 0.062499 18.835938 0.187500 C18.299476 0.312501 17.802086 0.447916 17.343750 0.593750 C16.895831 0.447916 16.401044 0.312501 15.859375 0.187500 C15.317706 0.062499 14.817711 -0.000000 14.359375 -0.000000 C13.817706 -0.000000 13.273440 0.166665 12.726562 0.500000 C12.179685 0.833335 11.776043 1.244789 11.515625 1.734375 C11.057289 1.817709 10.588544 1.916666 10.109375 2.031250 C9.630206 2.145834 9.177085 2.307291 8.750000 2.515625 C7.760412 2.984377 6.752609 3.773432 5.726562 4.882812 C4.700516 5.992193 3.723963 7.343742 2.796875 8.937500 C2.421873 9.583337 2.065106 10.216143 1.726562 10.835938 C1.388019 11.455732 1.091147 12.052080 0.835938 12.625000 C0.580728 13.197920 0.377605 13.739581 0.226562 14.250000 C0.075520 14.760419 0.000000 15.234373 0.000000 15.671875 C0.000000 16.494796 0.091145 17.320308 0.273438 18.148438 C0.455730 18.976567 0.661457 19.786454 0.890625 20.578125 C1.161460 21.536463 1.419270 22.419267 1.664062 23.226562 C1.908855 24.033858 2.124999 24.734372 2.312500 25.328125 C2.885420 25.213541 3.578121 25.049480 4.390625 24.835938 C5.203129 24.622395 5.989580 24.382814 6.750000 24.117188 C7.510420 23.851561 8.098956 23.588543 8.515625 23.328125 C8.109373 22.286453 7.760418 21.276047 7.468750 20.296875 C7.177082 19.317703 6.911460 18.369796 6.671875 17.453125 C6.901043 17.015623 7.130207 16.591148 7.359375 16.179688 C7.588543 15.768227 7.822915 15.361981 8.062500 14.960938 C8.302085 14.559894 8.546874 14.156252 8.796875 13.750000 L8.796875 16.843750 C8.796875 17.406253 8.861979 17.890623 8.992188 18.296875 C9.122396 18.703127 9.249999 19.083332 9.375000 19.437500 C9.500001 19.791668 9.562500 20.171873 9.562500 20.578125 C9.562500 20.869793 9.500001 21.231769 9.375000 21.664062 C9.249999 22.096356 9.114584 22.520831 8.968750 22.937500 L6.578125 30.000000 C8.109383 30.937505 9.799470 31.640623 11.648438 32.109375 C13.497405 32.578127 15.395824 32.812500 17.343750 32.812500 Z M2.265625 22.140625 C3.036462 21.973958 3.802080 21.789064 4.562500 21.585938 C5.322920 21.382811 6.072913 21.145835 6.812500 20.875000 L6.265625 19.390625 C5.515621 19.661460 4.760420 19.898436 4.000000 20.101562 C3.239580 20.304689 2.479170 20.489582 1.718750 20.656250 Z M5.203125 17.734375 L5.781250 16.093750 C5.489582 16.010416 5.208335 15.914063 4.937500 15.804688 C4.666665 15.695312 4.401043 15.562501 4.140625 15.406250 L3.203125 16.875000 C3.515627 17.062501 3.841144 17.223958 4.179688 17.359375 C4.518231 17.494792 4.859373 17.619791 5.203125 17.734375 Z M15.140625 29.000000 C15.265626 28.208329 15.460936 27.307297 15.726562 26.296875 C15.992189 25.286453 16.302082 24.421879 16.656250 23.703125 C16.750000 23.744792 16.859374 23.776042 16.984375 23.796875 C17.109376 23.817708 17.229166 23.828125 17.343750 23.828125 C17.458334 23.828125 17.578124 23.817708 17.703125 23.796875 C17.828126 23.776042 17.937500 23.744792 18.031250 23.703125 C18.385418 24.421879 18.695311 25.286453 18.960938 26.296875 C19.226564 27.307297 19.421874 28.208329 19.546875 29.000000 C20.067711 29.000000 20.627601 28.971354 21.226562 28.914062 C21.825524 28.856771 22.369789 28.781250 22.859375 28.687500 C22.786458 28.291665 22.630210 27.718754 22.390625 26.968750 C22.151040 26.218746 21.867189 25.427088 21.539062 24.593750 C21.210936 23.760412 20.869793 23.026045 20.515625 22.390625 C21.098961 22.359375 21.757809 22.283855 22.492188 22.164062 C23.226566 22.044270 23.911455 21.903647 24.546875 21.742188 C25.182295 21.580728 25.635415 21.427084 25.906250 21.281250 C26.114584 21.166666 26.244791 20.994793 26.296875 20.765625 C26.348959 20.536457 26.375000 20.182294 26.375000 19.703125 C26.375000 19.203122 26.244793 18.953125 25.984375 18.953125 C25.932291 18.953125 25.848959 18.960937 25.734375 18.976562 C25.619791 18.992188 25.479168 19.020833 25.312500 19.062500 C23.979160 19.385418 22.822922 19.611979 21.843750 19.742188 C20.864578 19.872396 19.973962 19.963541 19.171875 20.015625 C18.932290 19.734374 18.669272 19.489584 18.382812 19.281250 C18.096353 19.072916 17.750002 18.968750 17.343750 18.968750 C16.937498 18.968750 16.591147 19.072916 16.304688 19.281250 C16.018228 19.489584 15.755210 19.734374 15.515625 20.015625 C14.723954 19.963541 13.838547 19.864584 12.859375 19.718750 C11.880203 19.572916 10.718757 19.354168 9.375000 19.062500 C9.208333 19.020833 9.067709 18.992188 8.953125 18.976562 C8.838541 18.960937 8.755209 18.953125 8.703125 18.953125 C8.442707 18.953125 8.312500 19.203122 8.312500 19.703125 C8.312500 20.182294 8.341146 20.536457 8.398438 20.765625 C8.455729 20.994793 8.583332 21.166666 8.781250 21.281250 C9.052085 21.427084 9.502601 21.580728 10.132812 21.742188 C10.763024 21.903647 11.447913 22.044270 12.187500 22.164062 C12.927087 22.283855 13.588539 22.359375 14.171875 22.390625 C13.817707 23.026045 13.476564 23.760412 13.148438 24.593750 C12.820311 25.427088 12.539064 26.218746 12.304688 26.968750 C12.070311 27.718754 11.911459 28.291665 11.828125 28.687500 C12.317711 28.781250 12.864580 28.856771 13.468750 28.914062 C14.072920 28.971354 14.630206 29.000000 15.140625 29.000000 Z M9.000000 12.859375 L10.609375 12.015625 C10.255207 11.713540 9.846356 11.304690 9.382812 10.789062 C8.919269 10.273435 8.567710 9.812502 8.328125 9.406250 L6.765625 10.312500 C7.046876 10.812502 7.380206 11.270831 7.765625 11.687500 C8.151044 12.104169 8.562498 12.494790 9.000000 12.859375 Z M17.343750 30.937500 C16.208328 30.937500 15.085943 30.846355 13.976562 30.664062 C12.867182 30.481770 11.864588 30.247397 10.968750 29.960938 C10.072912 29.674478 9.369794 29.375002 8.859375 29.062500 L10.750000 23.468750 C10.906251 22.999998 11.059895 22.492190 11.210938 21.945312 C11.361980 21.398435 11.437500 20.937502 11.437500 20.562500 C11.437500 20.083331 11.369792 19.653648 11.234375 19.273438 C11.098958 18.893227 10.960938 18.507814 10.820312 18.117188 C10.679687 17.726561 10.609375 17.286461 10.609375 16.796875 L10.609375 12.015625 L7.843750 11.625000 C7.635416 11.968752 7.375002 12.408851 7.062500 12.945312 C6.749998 13.481774 6.432293 14.033851 6.109375 14.601562 C5.786457 15.169274 5.500001 15.682289 5.250000 16.140625 C4.999999 16.598961 4.838542 16.921874 4.765625 17.109375 C4.984376 18.130213 5.205728 19.044267 5.429688 19.851562 C5.653647 20.658858 5.921873 21.494787 6.234375 22.359375 C5.880207 22.494792 5.458336 22.635416 4.968750 22.781250 C4.479164 22.927084 4.031252 23.041666 3.625000 23.125000 C3.510416 22.812498 3.398438 22.473960 3.289062 22.109375 C3.179687 21.744790 3.005210 21.145838 2.765625 20.312500 C2.567707 19.604163 2.372397 18.835942 2.179688 18.007812 C1.986978 17.179683 1.890625 16.406254 1.890625 15.687500 C1.890625 15.385415 1.955729 15.028648 2.085938 14.617188 C2.216146 14.205727 2.393228 13.755211 2.617188 13.265625 C2.841147 12.776039 3.096353 12.265628 3.382812 11.734375 C3.669272 11.203122 3.963540 10.671878 4.265625 10.140625 C5.182296 8.546867 6.023434 7.320317 6.789062 6.460938 C7.554691 5.601558 8.385412 4.901044 9.281250 4.359375 C9.614585 4.151041 10.013019 3.989584 10.476562 3.875000 C10.940106 3.760416 11.630204 3.630209 12.546875 3.484375 C12.807293 2.911455 13.080728 2.502605 13.367188 2.257812 C13.653647 2.013020 13.979165 1.890625 14.343750 1.890625 L17.359375 2.656250 L20.343750 1.890625 C20.708335 1.890625 21.033853 2.013020 21.320312 2.257812 C21.606772 2.502605 21.880207 2.911455 22.140625 3.484375 C23.057296 3.630209 23.747394 3.760416 24.210938 3.875000 C24.674481 3.989584 25.072915 4.151041 25.406250 4.359375 C26.302088 4.901044 27.135413 5.601558 27.906250 6.460938 C28.677087 7.320317 29.515620 8.546867 30.421875 10.140625 C30.723960 10.671878 31.018228 11.203122 31.304688 11.734375 C31.591147 12.265628 31.846353 12.776039 32.070312 13.265625 C32.294272 13.755211 32.471354 14.205727 32.601562 14.617188 C32.731771 15.028648 32.796875 15.385415 32.796875 15.687500 C32.796875 16.406254 32.700522 17.179683 32.507812 18.007812 C32.315103 18.835942 32.119793 19.604163 31.921875 20.312500 C31.692707 21.145838 31.520834 21.744790 31.406250 22.109375 C31.291666 22.473960 31.177084 22.812498 31.062500 23.125000 C30.656248 23.041666 30.210940 22.927084 29.726562 22.781250 C29.242185 22.635416 28.817710 22.494792 28.453125 22.359375 C28.765627 21.494787 29.033853 20.658858 29.257812 19.851562 C29.481772 19.044267 29.703124 18.130213 29.921875 17.109375 C29.848958 16.921874 29.687501 16.598961 29.437500 16.140625 C29.187499 15.682289 28.901043 15.169274 28.578125 14.601562 C28.255207 14.033851 27.937502 13.481774 27.625000 12.945312 C27.312498 12.408851 27.052084 11.968752 26.843750 11.625000 L24.078125 12.015625 L24.078125 16.796875 C24.078125 17.286461 24.010417 17.726561 23.875000 18.117188 C23.739583 18.507814 23.601563 18.893227 23.460938 19.273438 C23.320312 19.653648 23.250000 20.083331 23.250000 20.562500 C23.250000 20.937502 23.325520 21.398435 23.476562 21.945312 C23.627605 22.492190 23.781249 22.999998 23.937500 23.468750 L25.828125 29.062500 C25.328122 29.375002 24.627609 29.674478 23.726562 29.960938 C22.825516 30.247397 21.820318 30.481770 20.710938 30.664062 C19.601557 30.846355 18.479172 30.937500 17.343750 30.937500 Z M9.203125 8.546875 L10.265625 7.406250 C9.890623 7.052082 9.570314 6.614586 9.304688 6.093750 C9.039061 5.572914 8.854167 5.067711 8.750000 4.578125 L7.234375 4.921875 C7.369792 5.567712 7.611977 6.218747 7.960938 6.875000 C8.309898 7.531253 8.723956 8.088539 9.203125 8.546875 Z M10.968750 19.453125 L14.328125 14.765625 C14.932295 13.921871 15.604163 12.950526 16.343750 11.851562 C17.083337 10.752599 17.799476 9.598964 18.492188 8.390625 C19.184899 7.182286 19.765623 5.989589 20.234375 4.812500 C20.703127 3.635411 20.968750 2.552088 21.031250 1.562500 L19.468750 1.500000 C19.416666 2.406255 19.151044 3.427078 18.671875 4.562500 C18.192706 5.697922 17.606774 6.851557 16.914062 8.023438 C16.221351 9.195318 15.515629 10.307286 14.796875 11.359375 C14.078121 12.411464 13.447919 13.317705 12.906250 14.078125 L9.687500 18.562500 Z M13.937500 20.109375 L17.031250 15.796875 C17.625003 14.963538 18.270830 14.023443 18.968750 12.976562 C19.666670 11.929682 20.333330 10.835943 20.968750 9.695312 C21.604170 8.554682 22.135415 7.424485 22.562500 6.304688 C22.989585 5.184890 23.234375 4.130213 23.296875 3.140625 L21.875000 2.781250 C21.802083 3.604171 21.565106 4.541661 21.164062 5.593750 C20.763019 6.645839 20.260420 7.731765 19.656250 8.851562 C19.052080 9.971360 18.408858 11.065099 17.726562 12.132812 C17.044267 13.200526 16.385420 14.166662 15.750000 15.031250 L12.109375 19.984375 Z M15.031250 11.531250 L15.875000 10.109375 C15.114580 9.119787 14.421878 7.976569 13.796875 6.679688 C13.171872 5.382806 12.770834 3.921883 12.593750 2.296875 L11.062500 2.578125 C11.281251 4.421884 11.760413 6.101555 12.500000 7.617188 C13.239587 9.132820 14.083329 10.437495 15.031250 11.531250 Z M32.421875 22.140625 L32.968750 20.656250 C32.208330 20.489582 31.447920 20.304689 30.687500 20.101562 C29.927080 19.898436 29.171879 19.661460 28.421875 19.390625 L27.875000 20.875000 C28.614587 21.145835 29.367184 21.382811 30.132812 21.585938 C30.898441 21.789064 31.661455 21.973958 32.421875 22.140625 Z M16.859375 9.250000 L17.718750 7.859375 C17.052080 7.026038 16.489586 6.033860 16.031250 4.882812 C15.572914 3.731765 15.302084 2.541673 15.218750 1.312500 L13.671875 1.312500 C13.723959 2.239588 13.901040 3.200516 14.203125 4.195312 C14.505210 5.190109 14.890623 6.130204 15.359375 7.015625 C15.828127 7.901046 16.328122 8.645830 16.859375 9.250000 Z M17.343750 8.187500 L18.281250 7.375000 L20.593750 1.109375 L14.093750 1.109375 L16.406250 7.375000 Z M29.484375 17.734375 C29.828127 17.619791 30.169269 17.494792 30.507812 17.359375 C30.846356 17.223958 31.171873 17.062501 31.484375 16.875000 L30.546875 15.406250 C30.286457 15.562501 30.020835 15.695312 29.750000 15.804688 C29.479165 15.914063 29.197918 16.010416 28.906250 16.093750 Z M25.687500 12.859375 C26.125002 12.494790 26.536456 12.104169 26.921875 11.687500 C27.307294 11.270831 27.640624 10.812502 27.921875 10.312500 L26.359375 9.406250 C26.130207 9.812502 25.783856 10.273435 25.320312 10.789062 C24.856769 11.304690 24.442710 11.713540 24.078125 12.015625 Z M25.484375 8.546875 C25.973961 8.088539 26.390623 7.531253 26.734375 6.875000 C27.078127 6.218747 27.317708 5.567712 27.453125 4.921875 L25.937500 4.578125 C25.833333 5.067711 25.648439 5.572914 25.382812 6.093750 C25.117186 6.614586 24.796877 7.052082 24.421875 7.406250 Z M37.656250 27.343750" /></svg>