<svg version="1.1" xmlns="http://www.w3.org/2000/svg" style="fill:rgba(0,0,0,1.0)" width="256" height="256" viewBox="0 0 36.09375 32.8125"><path fill="rgb(255, 255, 255)" d="M19.203125 32.812500 L13.000000 30.375000 L14.109375 24.625000 L14.109375 14.046875 L15.375000 14.234375 L15.375000 24.718750 L14.484375 29.453125 L19.265625 31.296875 L29.859375 29.812500 L28.875000 23.812500 L28.875000 14.125000 L30.406250 14.125000 L30.406250 23.765625 L31.562500 30.968750 Z M7.125000 29.953125 L4.250000 22.546875 L5.109375 21.078125 L8.359375 29.453125 Z M2.093750 27.812500 L0.984375 27.078125 L4.265625 21.812500 L4.265625 7.375000 L5.390625 7.375000 L5.390625 22.546875 Z M7.718750 30.250000 L6.625000 7.937500 L8.234375 7.937500 L9.406250 30.140625 Z M7.234375 31.000000 L0.000000 27.953125 L1.343750 20.953125 L1.343750 6.375000 L2.906250 6.375000 L2.906250 21.046875 L1.828125 26.890625 L7.500000 29.218750 L14.093750 28.281250 L14.156250 30.000000 Z M18.453125 32.046875 L16.421875 25.953125 L17.390625 25.359375 L19.453125 31.625000 Z M14.859375 30.281250 L13.953125 29.687500 L16.468750 25.359375 L16.468750 14.906250 L17.562500 14.906250 L17.562500 25.953125 Z M19.093750 32.281250 L18.375000 15.609375 L19.609375 15.609375 L20.406250 32.203125 Z M6.968750 9.171875 L4.765625 7.734375 L2.796875 7.546875 L1.343750 6.375000 L18.312500 4.484375 L19.500000 5.546875 L22.890625 5.734375 L22.890625 7.265625 Z M6.312500 7.000000 C5.989582 6.020828 5.828125 5.098963 5.828125 4.234375 C5.828125 2.963535 6.148434 1.940108 6.789062 1.164062 C7.429691 0.388017 8.322911 -0.000000 9.468750 -0.000000 C10.645839 -0.000000 11.624996 0.447912 12.406250 1.343750 C13.187504 2.239588 13.697915 3.593741 13.937500 5.406250 L12.359375 5.734375 C12.109374 4.255201 11.742190 3.195316 11.257812 2.554688 C10.773435 1.914059 10.161462 1.593750 9.421875 1.593750 C8.817705 1.593750 8.338543 1.848956 7.984375 2.359375 C7.630207 2.869794 7.453125 3.546871 7.453125 4.390625 C7.453125 5.067712 7.578124 5.812496 7.828125 6.625000 Z M18.781250 16.390625 L17.031250 15.203125 L14.859375 14.984375 L14.109375 14.046875 L26.609375 12.531250 L30.406250 13.546875 L30.406250 14.703125 Z M9.625000 8.015625 C9.302082 7.036453 9.140625 6.109379 9.140625 5.234375 C9.140625 3.984369 9.463538 2.971358 10.109375 2.195312 C10.755212 1.419267 11.645828 1.031250 12.781250 1.031250 C13.958339 1.031250 14.937496 1.479162 15.718750 2.375000 C16.500004 3.270838 17.010415 4.619783 17.250000 6.421875 L15.656250 6.765625 C15.416665 5.286451 15.054690 4.226566 14.570312 3.585938 C14.085935 2.945309 13.473962 2.625000 12.734375 2.625000 C12.130205 2.625000 11.651043 2.880206 11.296875 3.390625 C10.942707 3.901044 10.765625 4.578121 10.765625 5.421875 C10.765625 6.098962 10.890624 6.843746 11.140625 7.656250 Z M17.093750 14.671875 C16.833332 13.859371 16.703125 13.083337 16.703125 12.343750 C16.703125 11.291661 16.971351 10.445316 17.507812 9.804688 C18.044274 9.164059 18.786454 8.843750 19.734375 8.843750 C20.723963 8.843750 21.559892 9.210934 22.242188 9.945312 C22.924483 10.679691 23.364582 11.802076 23.562500 13.312500 L22.140625 13.625000 C21.942707 12.385410 21.638023 11.500003 21.226562 10.968750 C20.815102 10.437497 20.302086 10.171875 19.687500 10.171875 C19.187498 10.171875 18.791668 10.380206 18.500000 10.796875 C18.208332 11.213544 18.062500 11.776038 18.062500 12.484375 C18.062500 13.078128 18.166666 13.703122 18.375000 14.359375 Z M19.843750 15.515625 C19.583332 14.703121 19.453125 13.937504 19.453125 13.218750 C19.453125 12.166661 19.721351 11.317712 20.257812 10.671875 C20.794274 10.026038 21.536454 9.703125 22.484375 9.703125 C23.473963 9.703125 24.291663 10.075517 24.937500 10.820312 C25.583337 11.565108 26.005207 12.687493 26.203125 14.187500 L24.890625 14.468750 C24.682291 13.239577 24.375002 12.359378 23.968750 11.828125 C23.562498 11.296872 23.052086 11.031250 22.437500 11.031250 C21.927081 11.031250 21.526043 11.242185 21.234375 11.664062 C20.942707 12.085940 20.796875 12.651038 20.796875 13.359375 C20.796875 13.630210 20.822916 13.924478 20.875000 14.242188 C20.927084 14.559897 21.005208 14.885415 21.109375 15.218750 Z M21.171875 10.875000 L21.171875 5.734375 L22.890625 5.734375 L22.890625 10.796875 Z M36.093750 27.343750" /></svg>