<svg version="1.1" xmlns="http://www.w3.org/2000/svg" style="fill:rgba(0,0,0,1.0)" width="256" height="256" viewBox="0 0 34.4375 32.8125"><path fill="rgb(255, 255, 255)" d="M13.062500 32.812500 C12.322913 32.812500 11.742190 32.580731 11.320312 32.117188 C10.898435 31.653644 10.687500 30.984379 10.687500 30.109375 C10.687500 29.609372 10.690104 29.231772 10.695312 28.976562 C10.700521 28.721353 10.703125 28.510418 10.703125 28.343750 C10.703125 28.229166 10.674479 28.143229 10.617188 28.085938 C10.559896 28.028646 10.484375 28.000000 10.390625 28.000000 C10.213541 28.000000 10.046876 28.072916 9.890625 28.218750 C9.734374 28.364584 9.416669 28.437500 8.937500 28.437500 C8.156246 28.437500 7.541669 28.166669 7.093750 27.625000 C6.645831 27.083331 6.421875 26.369796 6.421875 25.484375 C6.421875 25.057290 6.388021 24.755209 6.320312 24.578125 C6.252604 24.401041 6.130209 24.312500 5.953125 24.312500 C5.786458 24.312500 5.666667 24.393228 5.593750 24.554688 C5.520833 24.716147 5.484375 24.973957 5.484375 25.328125 C5.484375 26.213546 5.268231 26.919268 4.835938 27.445312 C4.403644 27.971357 3.807295 28.234375 3.046875 28.234375 C2.255204 28.234375 1.598961 27.945315 1.078125 27.367188 C0.557289 26.789060 0.296875 26.041671 0.296875 25.125000 C0.296875 24.791665 0.333333 24.424481 0.406250 24.023438 C0.479167 23.622394 0.549479 23.119795 0.617188 22.515625 C0.684896 21.911455 0.718750 21.145838 0.718750 20.218750 C0.718750 19.447913 0.658855 18.781253 0.539062 18.218750 C0.419270 17.656247 0.299480 17.054691 0.179688 16.414062 C0.059895 15.773434 0.000000 14.958338 0.000000 13.968750 C0.000000 12.010407 0.359371 10.184904 1.078125 8.492188 C1.796879 6.799471 2.799473 5.317715 4.085938 4.046875 C5.372402 2.776035 6.872387 1.783858 8.585938 1.070312 C10.299488 0.356767 12.145823 -0.000000 14.125000 -0.000000 C16.104177 -0.000000 17.950512 0.356767 19.664062 1.070312 C21.377613 1.783858 22.877598 2.776035 24.164062 4.046875 C25.450527 5.317715 26.453121 6.799471 27.171875 8.492188 C27.890629 10.184904 28.250000 12.010407 28.250000 13.968750 C28.250000 14.833338 28.197917 15.596351 28.093750 16.257812 C27.989583 16.919274 27.869792 17.562497 27.734375 18.187500 C27.598958 18.812503 27.479167 19.499996 27.375000 20.250000 C27.270833 21.000004 27.218750 21.901036 27.218750 22.953125 C27.218750 23.328127 27.236979 23.695311 27.273438 24.054688 C27.309896 24.414064 27.328125 24.744790 27.328125 25.046875 C27.328125 25.973963 27.083336 26.692706 26.593750 27.203125 C26.104164 27.713544 25.432296 27.968750 24.578125 27.968750 C22.755199 27.968750 21.843750 26.833345 21.843750 24.562500 C21.843750 23.989580 21.682293 23.703125 21.359375 23.703125 C21.203124 23.703125 21.070313 23.778645 20.960938 23.929688 C20.851562 24.080730 20.796875 24.291665 20.796875 24.562500 C20.796875 25.572922 20.807292 26.429684 20.828125 27.132812 C20.848958 27.835941 20.859375 28.338540 20.859375 28.640625 C20.859375 29.348962 20.648440 29.908852 20.226562 30.320312 C19.804685 30.731773 19.229170 30.937500 18.500000 30.937500 C17.843747 30.937500 17.296877 30.734377 16.859375 30.328125 C16.421873 29.921873 16.203125 29.411461 16.203125 28.796875 C16.203125 28.359373 16.218750 27.940106 16.250000 27.539062 C16.281250 27.138019 16.296875 26.760418 16.296875 26.406250 C16.296875 26.229166 16.247396 26.083334 16.148438 25.968750 C16.049479 25.854166 15.921876 25.796875 15.765625 25.796875 C15.609374 25.796875 15.476563 25.854166 15.367188 25.968750 C15.257812 26.083334 15.203125 26.229166 15.203125 26.406250 C15.203125 27.083337 15.244791 27.713539 15.328125 28.296875 C15.411459 28.880211 15.453125 29.640620 15.453125 30.578125 C15.453125 31.213545 15.231773 31.744790 14.789062 32.171875 C14.346352 32.598960 13.770837 32.812500 13.062500 32.812500 Z M13.062500 31.093750 C13.250001 31.093750 13.408854 31.031251 13.539062 30.906250 C13.669271 30.781249 13.734375 30.619793 13.734375 30.421875 C13.734375 29.765622 13.692709 29.067712 13.609375 28.328125 C13.526041 27.588538 13.484375 26.901045 13.484375 26.265625 C13.484375 25.630205 13.697915 25.106773 14.125000 24.695312 C14.552085 24.283852 15.098955 24.078125 15.765625 24.078125 C16.432295 24.078125 16.973956 24.281248 17.390625 24.687500 C17.807294 25.093752 18.015625 25.619788 18.015625 26.265625 C18.015625 26.401042 18.007813 26.632811 17.992188 26.960938 C17.976562 27.289064 17.960938 27.617186 17.945312 27.945312 C17.929687 28.273439 17.921875 28.505208 17.921875 28.640625 C17.921875 28.807292 17.976562 28.945312 18.085938 29.054688 C18.195313 29.164063 18.333332 29.218750 18.500000 29.218750 C18.666668 29.218750 18.802083 29.164063 18.906250 29.054688 C19.010417 28.945312 19.062500 28.807292 19.062500 28.640625 C19.062500 28.494791 19.054688 28.109378 19.039062 27.484375 C19.023437 26.859372 19.015625 25.984381 19.015625 24.859375 C19.015625 23.994787 19.234373 23.299482 19.671875 22.773438 C20.109377 22.247393 20.671872 21.984375 21.359375 21.984375 C22.005212 21.984375 22.544269 22.216144 22.976562 22.679688 C23.408856 23.143231 23.625000 23.723955 23.625000 24.421875 C23.625000 25.057295 23.695312 25.520832 23.835938 25.812500 C23.976563 26.104168 24.223957 26.250000 24.578125 26.250000 C24.880210 26.250000 25.111978 26.140626 25.273438 25.921875 C25.434897 25.703124 25.515625 25.359377 25.515625 24.890625 C25.515625 24.598957 25.497396 24.281252 25.460938 23.937500 C25.424479 23.593748 25.406250 23.229169 25.406250 22.843750 C25.406250 21.541660 25.486978 20.398442 25.648438 19.414062 C25.809897 18.429683 25.971353 17.505213 26.132812 16.640625 C26.294272 15.776037 26.375000 14.885421 26.375000 13.968750 C26.375000 12.260408 26.062503 10.664070 25.437500 9.179688 C24.812497 7.695305 23.940110 6.393235 22.820312 5.273438 C21.700515 4.153640 20.398445 3.281253 18.914062 2.656250 C17.429680 2.031247 15.833342 1.718750 14.125000 1.718750 C12.416658 1.718750 10.820320 2.031247 9.335938 2.656250 C7.851555 3.281253 6.549485 4.153640 5.429688 5.273438 C4.309890 6.393235 3.437503 7.695305 2.812500 9.179688 C2.187497 10.664070 1.875000 12.260408 1.875000 13.968750 C1.875000 14.750004 1.934895 15.445309 2.054688 16.054688 C2.174480 16.664066 2.294270 17.291663 2.414062 17.937500 C2.533855 18.583337 2.593750 19.343746 2.593750 20.218750 C2.593750 20.739586 2.559896 21.343747 2.492188 22.031250 C2.424479 22.718753 2.354167 23.354164 2.281250 23.937500 C2.208333 24.520836 2.171875 24.927082 2.171875 25.156250 C2.171875 25.614586 2.244791 25.955728 2.390625 26.179688 C2.536459 26.403647 2.755207 26.515625 3.046875 26.515625 C3.348960 26.515625 3.570312 26.403647 3.710938 26.179688 C3.851563 25.955728 3.921875 25.614586 3.921875 25.156250 C3.921875 24.385413 4.106769 23.765627 4.476562 23.296875 C4.846356 22.828123 5.338539 22.593750 5.953125 22.593750 C6.598962 22.593750 7.096352 22.804685 7.445312 23.226562 C7.794273 23.648440 7.968750 24.244788 7.968750 25.015625 C7.968750 25.630211 8.033854 26.067707 8.164062 26.328125 C8.294271 26.588543 8.552081 26.718750 8.937500 26.718750 C9.375002 26.718750 9.770832 26.619793 10.125000 26.421875 C10.479168 26.223957 10.854165 26.125000 11.250000 26.125000 C11.614585 26.125000 11.901041 26.239582 12.109375 26.468750 C12.317709 26.697918 12.421875 27.015623 12.421875 27.421875 C12.421875 27.921878 12.419271 28.385415 12.414062 28.812500 C12.408854 29.239585 12.406250 29.671873 12.406250 30.109375 C12.406250 30.421877 12.460937 30.664062 12.570312 30.835938 C12.679688 31.007813 12.843749 31.093750 13.062500 31.093750 Z M15.046875 18.671875 C12.567696 18.671875 10.192720 17.515637 7.921875 15.203125 L9.140625 13.984375 C11.088551 15.963552 13.062490 16.953125 15.062500 16.953125 C16.458340 16.953125 17.895826 16.484380 19.375000 15.546875 L20.281250 16.984375 C18.520825 18.109381 16.776050 18.671875 15.046875 18.671875 Z M9.671875 10.515625 C9.161456 10.515625 8.729168 10.309898 8.375000 9.898438 C8.020832 9.486977 7.843750 8.963545 7.843750 8.328125 C7.843750 7.692705 8.020832 7.169273 8.375000 6.757812 C8.729168 6.346352 9.161456 6.140625 9.671875 6.140625 C10.192711 6.140625 10.627602 6.346352 10.976562 6.757812 C11.325523 7.169273 11.500000 7.692705 11.500000 8.328125 C11.500000 8.963545 11.325523 9.486977 10.976562 9.898438 C10.627602 10.309898 10.192711 10.515625 9.671875 10.515625 Z M17.640625 12.968750 C17.130206 12.968750 16.697918 12.763023 16.343750 12.351562 C15.989582 11.940102 15.812500 11.416670 15.812500 10.781250 C15.812500 10.145830 15.989582 9.622398 16.343750 9.210938 C16.697918 8.799477 17.130206 8.593750 17.640625 8.593750 C18.161461 8.593750 18.596352 8.799477 18.945312 9.210938 C19.294273 9.622398 19.468750 10.145830 19.468750 10.781250 C19.468750 11.416670 19.294273 11.940102 18.945312 12.351562 C18.596352 12.763023 18.161461 12.968750 17.640625 12.968750 Z M34.437500 27.343750" /></svg>