<svg version="1.1" xmlns="http://www.w3.org/2000/svg" style="fill:rgba(0,0,0,1.0)" width="256" height="256" viewBox="0 0 34.765625 32.8125"><path fill="rgb(255, 255, 255)" d="M0.000000 32.812500 L0.000000 28.234375 L8.921875 28.234375 C9.515628 28.234375 9.992186 28.111980 10.351562 27.867188 C10.710939 27.622395 11.015624 27.322918 11.265625 26.968750 C11.515626 26.614582 11.760415 26.270835 12.000000 25.937500 C12.281251 25.541665 12.591144 25.140627 12.929688 24.734375 C13.268231 24.328123 13.661456 23.963543 14.109375 23.640625 C15.171880 22.911455 16.291661 22.546875 17.468750 22.546875 C17.552084 22.546875 17.630208 22.549479 17.703125 22.554688 C17.776042 22.559896 17.848958 22.567708 17.921875 22.578125 L17.453125 22.828125 C17.901044 22.078121 18.239582 21.367191 18.468750 20.695312 C18.697918 20.023434 18.812500 19.380211 18.812500 18.765625 C18.812500 17.296868 18.046883 16.005214 16.515625 14.890625 L18.390625 14.656250 C18.994795 15.250003 19.450519 15.901038 19.757812 16.609375 C20.065106 17.317712 20.218750 18.036455 20.218750 18.765625 C20.218750 20.296883 19.578131 22.072907 18.296875 24.093750 C17.723955 23.916666 17.148440 23.890624 16.570312 24.015625 C15.992185 24.140626 15.427086 24.401040 14.875000 24.796875 C14.427081 25.109377 14.033856 25.533851 13.695312 26.070312 C13.356769 26.606774 13.002606 27.148435 12.632812 27.695312 C12.263019 28.242190 11.809899 28.703123 11.273438 29.078125 C10.736976 29.453127 10.046879 29.640625 9.203125 29.640625 L1.406250 29.640625 L1.406250 31.406250 L27.500000 31.406250 L27.500000 29.640625 L25.296875 29.640625 L23.109375 27.578125 C23.380210 26.869788 23.609374 26.177087 23.796875 25.500000 C23.984376 24.822913 24.130208 24.062504 24.234375 23.218750 C24.338542 22.374996 24.390625 21.359381 24.390625 20.171875 C24.390625 16.807275 23.015639 14.093760 20.265625 12.031250 L19.531250 9.828125 C23.708354 12.286471 25.796875 15.734353 25.796875 20.171875 C25.796875 21.838550 25.695314 23.213536 25.492188 24.296875 C25.289061 25.380214 25.015627 26.416662 24.671875 27.406250 L24.625000 27.078125 L25.859375 28.234375 L28.906250 28.234375 L28.906250 32.812500 Z M4.437500 28.546875 C4.302083 28.276040 4.210938 28.033855 4.164062 27.820312 C4.117187 27.606770 4.093750 27.401043 4.093750 27.203125 C4.093750 26.963540 4.117187 26.734376 4.164062 26.515625 C4.210938 26.296874 4.260416 26.104168 4.312500 25.937500 L6.078125 26.593750 C6.140625 27.031252 6.299478 27.401040 6.554688 27.703125 C6.809897 28.005210 7.145831 28.286457 7.562500 28.546875 Z M7.921875 27.296875 C7.296872 27.296875 6.401048 27.088544 5.234375 26.671875 C4.401038 26.369790 3.710940 26.033856 3.164062 25.664062 C2.617185 25.294269 2.411458 24.963543 2.546875 24.671875 L2.906250 23.890625 C2.979167 23.723957 3.182290 23.640625 3.515625 23.640625 C3.848960 23.640625 4.312497 23.723957 4.906250 23.890625 C5.500003 24.057292 6.101559 24.268228 6.710938 24.523438 C7.320316 24.778647 7.835935 25.046874 8.257812 25.328125 C8.679690 25.609376 8.890625 25.869790 8.890625 26.109375 C8.890625 26.161459 8.875000 26.229166 8.843750 26.312500 L8.609375 26.875000 C8.494791 27.156251 8.265627 27.296875 7.921875 27.296875 Z M12.328125 26.265625 L3.250000 21.078125 L4.296875 19.296875 L12.031250 23.765625 L11.656250 24.406250 L12.984375 25.171875 Z M17.218750 30.281250 C16.552080 30.281250 15.984377 30.046877 15.515625 29.578125 C15.046873 29.109373 14.812500 28.541670 14.812500 27.875000 C14.812500 27.197913 15.046873 26.627606 15.515625 26.164062 C15.984377 25.700519 16.552080 25.468750 17.218750 25.468750 C17.895837 25.468750 18.466144 25.700519 18.929688 26.164062 C19.393231 26.627606 19.625000 27.197913 19.625000 27.875000 C19.625000 28.541670 19.393231 29.109373 18.929688 29.578125 C18.466144 30.046877 17.895837 30.281250 17.218750 30.281250 Z M17.218750 28.890625 C17.510418 28.890625 17.752603 28.794272 17.945312 28.601562 C18.138022 28.408853 18.234375 28.166668 18.234375 27.875000 C18.234375 27.583332 18.138022 27.341147 17.945312 27.148438 C17.752603 26.955728 17.510418 26.859375 17.218750 26.859375 C16.927082 26.859375 16.684897 26.955728 16.492188 27.148438 C16.299478 27.341147 16.203125 27.583332 16.203125 27.875000 C16.203125 28.166668 16.299478 28.408853 16.492188 28.601562 C16.684897 28.794272 16.927082 28.890625 17.218750 28.890625 Z M9.359375 20.750000 C9.005207 20.802084 8.679689 20.716147 8.382812 20.492188 C8.085936 20.268228 7.880209 20.015626 7.765625 19.734375 L9.156250 17.078125 L11.406250 18.546875 Z M6.234375 17.187500 C5.942707 16.999999 5.755209 16.723960 5.671875 16.359375 C5.588541 15.994790 5.593750 15.671876 5.687500 15.390625 L8.781250 14.156250 C9.291669 14.364584 9.596354 14.744789 9.695312 15.296875 C9.794271 15.848961 9.671877 16.296873 9.328125 16.640625 Z M12.796875 21.171875 L11.453125 18.125000 C11.588542 17.781248 11.812498 17.531251 12.125000 17.375000 C12.437502 17.218749 12.763019 17.156250 13.101562 17.187500 C13.440106 17.218750 13.718749 17.348957 13.937500 17.578125 L14.625000 20.609375 C14.427082 20.932293 14.132814 21.145833 13.742188 21.250000 C13.351561 21.354167 13.036460 21.328126 12.796875 21.171875 Z M12.234375 18.093750 C12.630210 18.093750 12.999998 18.023438 13.343750 17.882812 C13.687502 17.742187 13.947916 17.536460 14.125000 17.265625 C14.041666 16.651039 13.708336 16.083336 13.125000 15.562500 C12.541664 15.041664 11.869795 14.625002 11.109375 14.312500 C10.348955 13.999998 9.645837 13.843750 9.000000 13.843750 C8.749999 14.114585 8.625000 14.458331 8.625000 14.875000 C8.625000 15.416669 8.796873 15.934893 9.140625 16.429688 C9.484377 16.924482 9.932289 17.325519 10.484375 17.632812 C11.036461 17.940106 11.619789 18.093750 12.234375 18.093750 Z M12.234375 19.500000 C11.359371 19.500000 10.541670 19.283856 9.781250 18.851562 C9.020830 18.419269 8.403648 17.851566 7.929688 17.148438 C7.455727 16.445309 7.218750 15.687504 7.218750 14.875000 C7.218750 14.322914 7.343749 13.828127 7.593750 13.390625 C7.708334 13.182291 7.859374 12.981772 8.046875 12.789062 C8.234376 12.596353 8.432291 12.442709 8.640625 12.328125 C9.526046 12.286458 10.458328 12.442707 11.437500 12.796875 C12.416672 13.151043 13.289059 13.669267 14.054688 14.351562 C14.820316 15.033858 15.333332 15.848954 15.593750 16.796875 C15.677084 16.901042 15.695313 17.059895 15.648438 17.273438 C15.601562 17.486980 15.520834 17.692707 15.406250 17.890625 C15.124999 18.380211 14.697920 18.770832 14.125000 19.062500 C13.552080 19.354168 12.921878 19.500000 12.234375 19.500000 Z M15.406250 17.890625 L14.843750 16.109375 L16.218750 13.890625 L17.437500 14.593750 Z M18.000000 15.390625 C17.177079 15.390625 16.473961 15.098961 15.890625 14.515625 C15.307289 13.932289 15.015625 13.229171 15.015625 12.406250 C15.015625 11.572913 15.307289 10.867190 15.890625 10.289062 C16.473961 9.710935 17.177079 9.421875 18.000000 9.421875 C18.833338 9.421875 19.539060 9.710935 20.117188 10.289062 C20.695315 10.867190 20.984375 11.572913 20.984375 12.406250 C20.984375 13.229171 20.695315 13.932289 20.117188 14.515625 C19.539060 15.098961 18.833338 15.390625 18.000000 15.390625 Z M18.000000 13.953125 C18.437502 13.953125 18.804686 13.804689 19.101562 13.507812 C19.398439 13.210936 19.546875 12.843752 19.546875 12.406250 C19.546875 11.968748 19.398439 11.601564 19.101562 11.304688 C18.804686 11.007811 18.437502 10.859375 18.000000 10.859375 C17.562498 10.859375 17.195314 11.007811 16.898438 11.304688 C16.601561 11.601564 16.453125 11.968748 16.453125 12.406250 C16.453125 12.843752 16.601561 13.210936 16.898438 13.507812 C17.195314 13.804689 17.562498 13.953125 18.000000 13.953125 Z M7.593750 13.375000 L12.234375 5.343750 C12.619794 4.677080 13.093747 4.281251 13.656250 4.156250 C14.218753 4.031249 14.828122 4.080728 15.484375 4.304688 C16.140628 4.528647 16.807288 4.833331 17.484375 5.218750 C18.140628 5.583335 18.734372 5.992185 19.265625 6.445312 C19.796878 6.898440 20.153645 7.403643 20.335938 7.960938 C20.518230 8.518232 20.406252 9.135413 20.000000 9.812500 L19.406250 10.812500 L18.187500 10.109375 L18.843750 9.000000 C18.989584 8.760415 18.960939 8.479168 18.757812 8.156250 C18.554686 7.833332 18.268231 7.515627 17.898438 7.203125 C17.528644 6.890623 17.161460 6.635418 16.796875 6.437500 C16.401040 6.208332 15.971356 6.013022 15.507812 5.851562 C15.044269 5.690103 14.625002 5.601563 14.250000 5.585938 C13.874998 5.570312 13.619792 5.682290 13.484375 5.921875 L9.453125 12.968750 Z M16.015625 5.296875 L14.750000 4.687500 L16.937500 0.750000 L18.218750 1.359375 Z M19.531250 7.203125 L18.265625 6.593750 L20.531250 2.625000 L21.812500 3.234375 Z M20.734375 3.984375 L20.890625 3.765625 C20.921875 3.723958 20.854168 3.601564 20.687500 3.398438 C20.520832 3.195311 20.307293 2.973960 20.046875 2.734375 C19.786457 2.494790 19.531251 2.307292 19.281250 2.171875 C18.937498 1.973957 18.583335 1.817709 18.218750 1.703125 C17.854165 1.588541 17.541668 1.531250 17.281250 1.531250 L16.875000 1.890625 C16.687499 1.890625 16.523438 1.791668 16.382812 1.593750 C16.242187 1.395832 16.171875 1.187501 16.171875 0.968750 C16.171875 0.687499 16.294270 0.455730 16.539062 0.273438 C16.783855 0.091145 17.083332 -0.000000 17.437500 -0.000000 C17.895836 -0.000000 18.401039 0.091145 18.953125 0.273438 C19.505211 0.455730 20.031248 0.705728 20.531250 1.023438 C21.031252 1.341147 21.445311 1.703123 21.773438 2.109375 C22.101564 2.515627 22.265625 2.937498 22.265625 3.375000 C22.265625 3.635418 22.169272 3.859374 21.976562 4.046875 C21.783853 4.234376 21.552085 4.328125 21.281250 4.328125 C21.145833 4.328125 21.028646 4.299479 20.929688 4.242188 C20.830729 4.184896 20.765625 4.098959 20.734375 3.984375 Z M34.765625 27.343750" /></svg>