<svg version="1.1" xmlns="http://www.w3.org/2000/svg" style="fill:rgba(0,0,0,1.0)" width="256" height="256" viewBox="0 0 36.40625 32.8125"><path fill="rgb(255, 255, 255)" d="M22.718750 29.000000 C22.135414 29.000000 21.536461 28.911459 20.921875 28.734375 C20.307289 28.557291 19.760419 28.307293 19.281250 27.984375 C18.468746 27.432289 17.822919 26.861982 17.343750 26.273438 C16.864581 25.684893 16.471356 25.093753 16.164062 24.500000 C15.856769 23.906247 15.570314 23.333336 15.304688 22.781250 C15.039061 22.229164 14.713544 21.718752 14.328125 21.250000 C13.942706 20.781248 13.468753 20.393231 12.906250 20.085938 C12.343747 19.778644 11.710941 19.471356 11.007812 19.164062 C10.304684 18.856769 9.544275 18.476565 8.726562 18.023438 C7.908850 17.570310 7.057296 16.963545 6.171875 16.203125 C5.369788 15.515622 4.716148 14.682297 4.210938 13.703125 C3.705727 12.723953 3.453125 11.677089 3.453125 10.562500 C3.453125 9.260410 3.786455 8.049485 4.453125 6.929688 C5.119795 5.809890 6.007807 4.906253 7.117188 4.218750 C8.226568 3.531247 9.437493 3.187500 10.750000 3.187500 C11.437503 3.187500 12.124997 3.289061 12.812500 3.492188 C13.500003 3.695314 14.161455 4.005206 14.796875 4.421875 C15.557295 4.921878 16.208331 5.499997 16.750000 6.156250 C17.291669 6.812503 17.786456 7.518225 18.234375 8.273438 C18.682294 9.028650 19.138019 9.794267 19.601562 10.570312 C20.065106 11.346358 20.598955 12.104163 21.203125 12.843750 C21.880212 13.666671 22.697912 14.489579 23.656250 15.312500 C24.614588 16.135421 25.802076 17.083328 27.218750 18.156250 C27.875003 18.645836 28.385415 19.299475 28.750000 20.117188 C29.114585 20.934900 29.296875 21.703121 29.296875 22.421875 C29.296875 23.578131 28.994795 24.656245 28.390625 25.656250 C27.786455 26.656255 26.984380 27.463539 25.984375 28.078125 C24.984370 28.692711 23.895839 29.000000 22.718750 29.000000 Z M2.531250 17.000000 L1.890625 15.921875 L5.234375 13.906250 L6.062500 14.875000 Z M5.765625 19.843750 L4.750000 19.109375 L7.562500 15.359375 L8.578125 16.093750 Z M14.843750 28.765625 L14.125000 27.750000 L17.875000 24.953125 L18.593750 25.968750 Z M17.937500 31.218750 L16.906250 30.515625 L19.468750 26.593750 L20.500000 27.296875 Z M0.078125 12.703125 L0.000000 11.453125 L4.671875 11.125000 L4.750000 12.375000 Z M13.453125 26.171875 L12.812500 25.093750 L16.796875 22.625000 L17.437500 23.703125 Z M9.687500 21.562500 L8.750000 20.734375 L11.062500 18.062500 L12.156250 18.718750 Z M21.265625 32.812500 L20.062500 32.500000 L21.125000 27.937500 L22.328125 28.250000 Z M11.875000 23.671875 L11.140625 22.656250 L14.906250 19.843750 L15.640625 20.859375 Z M23.781250 32.187500 L22.718750 27.625000 L23.984375 27.562500 L24.984375 31.875000 Z M4.640625 9.484375 L0.046875 8.515625 L0.296875 7.296875 L4.890625 8.265625 Z M26.453125 31.031250 L24.640625 27.656250 L25.718750 27.015625 L27.531250 30.406250 Z M20.031250 23.500000 C19.687498 23.500000 19.398439 23.367189 19.164062 23.101562 C18.929686 22.835936 18.812500 22.520835 18.812500 22.156250 C18.812500 21.843748 18.911457 21.572918 19.109375 21.343750 C19.307293 21.114582 19.562498 21.000000 19.875000 21.000000 C20.218752 21.000000 20.507811 21.132811 20.742188 21.398438 C20.976564 21.664064 21.093750 21.979165 21.093750 22.343750 C21.093750 22.656252 20.994793 22.927082 20.796875 23.156250 C20.598957 23.385418 20.343752 23.500000 20.031250 23.500000 Z M15.015625 17.265625 C14.744790 17.265625 14.515626 17.161459 14.328125 16.953125 C14.140624 16.744791 14.046875 16.526043 14.046875 16.296875 C14.046875 16.078124 14.117187 15.908855 14.257812 15.789062 C14.398438 15.669270 14.552083 15.609375 14.718750 15.609375 C14.979168 15.609375 15.208332 15.710936 15.406250 15.914062 C15.604168 16.117189 15.703125 16.348957 15.703125 16.609375 C15.703125 16.838543 15.632813 17.005208 15.492188 17.109375 C15.351562 17.213542 15.192709 17.265625 15.015625 17.265625 Z M5.703125 7.390625 L1.812500 4.781250 L2.515625 3.750000 L6.406250 6.359375 Z M22.718750 27.281250 C23.541671 27.281250 24.309892 27.088544 25.023438 26.703125 C25.736983 26.317706 26.315102 25.794274 26.757812 25.132812 C27.200523 24.471351 27.421875 23.729171 27.421875 22.906250 C27.421875 22.229163 27.229169 21.518233 26.843750 20.773438 C26.458331 20.028642 25.786463 19.307295 24.828125 18.609375 C23.609369 17.723954 22.643233 16.953128 21.929688 16.296875 C21.216142 15.640622 20.664064 15.067711 20.273438 14.578125 C19.882811 14.088539 19.557293 13.656252 19.296875 13.281250 C18.786456 12.520830 18.276044 11.710942 17.765625 10.851562 C17.255206 9.992183 16.721357 9.166671 16.164062 8.375000 C15.606768 7.583329 14.989587 6.921878 14.312500 6.390625 C13.739580 5.932289 13.140628 5.570314 12.515625 5.304688 C11.890622 5.039061 11.255212 4.906250 10.609375 4.906250 C9.619787 4.906250 8.726566 5.177081 7.929688 5.718750 C7.132809 6.260419 6.500002 6.958329 6.031250 7.812500 C5.562498 8.666671 5.328125 9.572912 5.328125 10.531250 C5.328125 11.479171 5.580727 12.411454 6.085938 13.328125 C6.591148 14.244796 7.395828 15.052080 8.500000 15.750000 C9.281254 16.239586 9.986976 16.630207 10.617188 16.921875 C11.247399 17.213543 11.833331 17.481770 12.375000 17.726562 C12.916669 17.971355 13.450518 18.270832 13.976562 18.625000 C14.502607 18.979168 15.057289 19.463539 15.640625 20.078125 C16.171878 20.640628 16.604165 21.205726 16.937500 21.773438 C17.270835 22.341149 17.557290 22.888018 17.796875 23.414062 C18.036460 23.940107 18.289061 24.427081 18.554688 24.875000 C18.820314 25.322919 19.145831 25.713540 19.531250 26.046875 C20.052086 26.484377 20.583331 26.799478 21.125000 26.992188 C21.666669 27.184897 22.197914 27.281250 22.718750 27.281250 Z M12.046875 14.234375 C11.421872 14.234375 10.833336 14.062502 10.281250 13.718750 C9.729164 13.374998 9.281252 12.924482 8.937500 12.367188 C8.593748 11.809893 8.421875 11.213545 8.421875 10.578125 C8.421875 9.817705 8.674477 9.195315 9.179688 8.710938 C9.684898 8.226560 10.291663 7.984375 11.000000 7.984375 C11.625003 7.984375 12.216143 8.153644 12.773438 8.492188 C13.330732 8.830731 13.783852 9.276039 14.132812 9.828125 C14.481773 10.380211 14.656250 10.973955 14.656250 11.609375 C14.656250 12.390629 14.403648 13.023435 13.898438 13.507812 C13.393227 13.992190 12.776045 14.234375 12.046875 14.234375 Z M23.921875 24.578125 C23.598957 24.578125 23.325522 24.466147 23.101562 24.242188 C22.877603 24.018228 22.765625 23.744793 22.765625 23.421875 C22.765625 23.098957 22.877603 22.825522 23.101562 22.601562 C23.325522 22.377603 23.598957 22.265625 23.921875 22.265625 C24.244793 22.265625 24.518228 22.377603 24.742188 22.601562 C24.966147 22.825522 25.078125 23.098957 25.078125 23.421875 C25.078125 23.744793 24.966147 24.018228 24.742188 24.242188 C24.518228 24.466147 24.244793 24.578125 23.921875 24.578125 Z M29.609375 29.468750 L26.703125 26.390625 L27.578125 25.500000 L30.500000 28.578125 Z M19.421875 19.203125 C19.036456 19.203125 18.708335 19.067710 18.437500 18.796875 C18.166665 18.526040 18.031250 18.197919 18.031250 17.812500 C18.031250 17.427081 18.166665 17.098960 18.437500 16.828125 C18.708335 16.557290 19.036456 16.421875 19.421875 16.421875 C19.796877 16.421875 20.119790 16.557290 20.390625 16.828125 C20.661460 17.098960 20.796875 17.427081 20.796875 17.812500 C20.796875 18.197919 20.661460 18.526040 20.390625 18.796875 C20.119790 19.067710 19.796877 19.203125 19.421875 19.203125 Z M17.109375 15.359375 C16.807290 15.359375 16.549480 15.208335 16.335938 14.906250 C16.122395 14.604165 16.015625 14.291668 16.015625 13.968750 C16.015625 13.729165 16.080729 13.513022 16.210938 13.320312 C16.341146 13.127603 16.520832 13.031250 16.750000 13.031250 C17.052085 13.031250 17.307291 13.179686 17.515625 13.476562 C17.723959 13.773439 17.828125 14.083332 17.828125 14.406250 C17.828125 14.666668 17.760417 14.890624 17.625000 15.078125 C17.489583 15.265626 17.317709 15.359375 17.109375 15.359375 Z M6.515625 4.937500 L4.187500 1.984375 L5.171875 1.218750 L7.546875 4.234375 Z M31.187500 26.656250 L27.921875 24.625000 L28.546875 23.531250 L31.828125 25.578125 Z M8.390625 3.921875 L7.718750 0.218750 L8.953125 -0.000000 L9.625000 3.781250 Z M28.375000 22.703125 L28.156250 21.468750 L31.968750 20.937500 L32.187500 22.171875 Z M23.468750 16.828125 L22.437500 16.125000 L25.000000 12.203125 L26.031250 12.906250 Z M20.890625 14.312500 L20.000000 13.437500 L23.203125 10.031250 L24.093750 10.906250 Z M12.609375 4.015625 L11.375000 3.812500 L11.750000 0.078125 L13.000000 0.203125 Z M27.359375 20.781250 L26.625000 19.765625 L30.390625 16.953125 L31.125000 17.968750 Z M25.906250 18.937500 L24.937500 18.156250 L27.843750 14.468750 L28.812500 15.250000 Z M18.640625 11.281250 L17.921875 10.265625 L21.671875 7.468750 L22.390625 8.484375 Z M16.640625 8.406250 L15.843750 7.453125 L19.312500 4.343750 L20.125000 5.296875 Z M15.359375 5.109375 L14.312500 4.421875 L16.187500 1.156250 L17.265625 1.781250 Z M36.406250 27.343750" /></svg>