<svg version="1.1" xmlns="http://www.w3.org/2000/svg" style="fill:rgba(0,0,0,1.0)" width="256" height="256" viewBox="0 0 32.5 32.8125"><path fill="rgb(255, 255, 255)" d="M8.093750 32.812500 C7.239579 32.812500 6.341151 32.783854 5.398438 32.726562 C4.455724 32.669271 3.575525 32.536459 2.757812 32.328125 C1.940100 32.119791 1.276044 31.783856 0.765625 31.320312 C0.255206 30.856769 0.000000 30.218754 0.000000 29.406250 C0.000000 28.947914 0.036458 28.541668 0.109375 28.187500 C0.182292 27.833332 0.255208 27.442710 0.328125 27.015625 C0.401042 26.588540 0.437500 26.041670 0.437500 25.375000 L0.437500 21.765625 C0.437500 19.401030 0.630206 17.333342 1.015625 15.562500 C1.401044 13.791658 1.999996 12.041675 2.812500 10.312500 C2.687499 10.041665 2.583334 9.747397 2.500000 9.429688 C2.416666 9.111978 2.375000 8.781252 2.375000 8.437500 C2.375000 8.197915 2.419270 7.976564 2.507812 7.773438 C2.596355 7.570311 2.729166 7.385417 2.906250 7.218750 C3.031251 5.499991 3.486975 4.111984 4.273438 3.054688 C5.059900 1.997391 6.114577 1.223961 7.437500 0.734375 C8.760423 0.244789 10.286450 -0.000000 12.015625 -0.000000 C13.401049 -0.000000 14.710931 0.169269 15.945312 0.507812 C17.179694 0.846356 18.195309 1.309893 18.992188 1.898438 C19.789066 2.486982 20.223958 3.161455 20.296875 3.921875 C21.401047 4.557295 22.244789 5.265621 22.828125 6.046875 C23.411461 6.828129 23.815103 7.786453 24.039062 8.921875 C24.263022 10.057297 24.375000 11.468742 24.375000 13.156250 L24.375000 20.750000 C24.375000 21.843755 24.151044 22.664060 23.703125 23.210938 C23.255206 23.757815 22.536463 24.229165 21.546875 24.625000 L21.546875 28.312500 C21.546875 29.697924 21.093755 30.703122 20.187500 31.328125 C19.281245 31.953128 17.880218 32.265625 15.984375 32.265625 C15.578123 32.265625 15.182294 32.255208 14.796875 32.234375 C14.411456 32.213542 14.119793 32.192708 13.921875 32.171875 C13.140621 32.411460 12.257817 32.578125 11.273438 32.671875 C10.289058 32.765625 9.229172 32.812500 8.093750 32.812500 Z M6.109375 24.656250 C5.432288 24.656250 4.835940 24.518231 4.320312 24.242188 C3.804685 23.966144 3.546875 23.682293 3.546875 23.390625 C3.546875 23.244791 3.651041 23.143229 3.859375 23.085938 C4.067709 23.028646 4.395831 23.000000 4.843750 23.000000 C6.125006 23.000000 7.088538 23.015625 7.734375 23.046875 C8.380212 23.078125 8.812499 23.127604 9.031250 23.195312 C9.250001 23.263021 9.359375 23.354166 9.359375 23.468750 C9.359375 23.656251 9.184898 23.841145 8.835938 24.023438 C8.486977 24.205730 8.059898 24.356770 7.554688 24.476562 C7.049477 24.596355 6.567711 24.656250 6.109375 24.656250 Z M9.812500 22.578125 C9.239580 22.421874 8.593754 22.289063 7.875000 22.179688 C7.156246 22.070312 6.463545 22.015625 5.796875 22.015625 C5.578124 22.015625 5.367189 22.020833 5.164062 22.031250 C4.960936 22.041667 4.770834 22.062500 4.593750 22.093750 C4.395832 22.125000 4.213542 22.106771 4.046875 22.039062 C3.880208 21.971354 3.765625 21.838543 3.703125 21.640625 C3.640625 21.432291 3.669270 21.234376 3.789062 21.046875 C3.908855 20.859374 4.104165 20.744792 4.375000 20.703125 C4.583334 20.661458 4.802082 20.635417 5.031250 20.625000 C5.260418 20.614583 5.494790 20.609375 5.734375 20.609375 C6.473962 20.609375 7.236975 20.669270 8.023438 20.789062 C8.809900 20.908855 9.536455 21.046874 10.203125 21.203125 C10.442710 21.255209 10.614583 21.367187 10.718750 21.539062 C10.822917 21.710938 10.848959 21.901041 10.796875 22.109375 C10.744791 22.307293 10.625001 22.450520 10.437500 22.539062 C10.249999 22.627605 10.041668 22.640625 9.812500 22.578125 Z M8.046875 30.937500 C10.286470 30.937500 12.070306 30.768231 13.398438 30.429688 C14.726569 30.091144 15.390625 29.447921 15.390625 28.500000 L15.390625 21.078125 C15.390625 20.005203 15.429687 18.966151 15.507812 17.960938 C15.585938 16.955724 15.687499 16.007817 15.812500 15.117188 C15.937501 14.226558 16.078124 13.406254 16.234375 12.656250 C16.390626 11.906246 16.552082 11.255211 16.718750 10.703125 C16.458332 10.630208 16.184897 10.572917 15.898438 10.531250 C15.611978 10.489583 15.333335 10.468750 15.062500 10.468750 C14.177079 10.468750 13.437503 10.677081 12.843750 11.093750 C12.249997 11.510419 11.953125 12.041663 11.953125 12.687500 C11.953125 13.218753 12.098957 13.703123 12.390625 14.140625 C12.682293 14.578127 12.971353 15.033852 13.257812 15.507812 C13.544272 15.981773 13.687500 16.557288 13.687500 17.234375 C13.687500 18.078129 13.445315 18.671873 12.960938 19.015625 C12.476560 19.359377 11.791671 19.531250 10.906250 19.531250 C10.427081 19.531250 9.914065 19.507813 9.367188 19.460938 C8.820310 19.414062 8.390627 19.359375 8.078125 19.296875 C8.015625 19.546876 7.914063 19.736979 7.773438 19.867188 C7.632812 19.997396 7.395835 20.062500 7.062500 20.062500 C6.354163 20.062500 5.713545 19.937501 5.140625 19.687500 C4.567705 19.437499 4.117189 19.130210 3.789062 18.765625 C3.460936 18.401040 3.296875 18.046877 3.296875 17.703125 C3.296875 17.317706 3.544268 17.005210 4.039062 16.765625 C4.533857 16.526040 5.145830 16.406250 5.875000 16.406250 C6.614587 16.406250 7.242185 16.492187 7.757812 16.664062 C8.273440 16.835938 8.721352 17.036457 9.101562 17.265625 C9.481773 17.494793 9.833332 17.695312 10.156250 17.867188 C10.479168 18.039063 10.817707 18.125000 11.171875 18.125000 C12.067713 18.125000 12.515625 17.671880 12.515625 16.765625 C12.515625 16.046871 12.250003 15.476565 11.718750 15.054688 C11.187497 14.632810 10.442713 14.421875 9.484375 14.421875 C9.109373 14.421875 8.885417 14.341147 8.812500 14.179688 C8.739583 14.018228 8.796874 13.812501 8.984375 13.562500 L11.921875 9.625000 C11.796874 9.031247 11.544273 8.520835 11.164062 8.093750 C10.783852 7.666665 10.291670 7.453125 9.687500 7.453125 C9.208331 7.453125 8.768231 7.640623 8.367188 8.015625 C7.966144 8.390627 7.645835 8.921872 7.406250 9.609375 C6.979165 9.609375 6.559898 9.635416 6.148438 9.687500 C5.736977 9.739584 5.343752 9.817708 4.968750 9.921875 C4.374997 11.151048 3.880210 12.348952 3.484375 13.515625 C3.088540 14.682298 2.791668 15.921868 2.593750 17.234375 C2.395832 18.546882 2.296875 20.046867 2.296875 21.734375 L2.296875 25.390625 C2.296875 26.276046 2.226563 27.018226 2.085938 27.617188 C1.945312 28.216149 1.875000 28.755206 1.875000 29.234375 C1.875000 29.713544 2.169268 30.075520 2.757812 30.320312 C3.346357 30.565105 4.109370 30.729166 5.046875 30.812500 C5.984380 30.895834 6.984370 30.937500 8.046875 30.937500 Z M5.390625 15.140625 C4.963540 14.901040 4.854166 14.562502 5.062500 14.125000 C5.364585 13.510414 5.671873 12.927086 5.984375 12.375000 C6.296877 11.822914 6.598957 11.307294 6.890625 10.828125 C7.213543 10.307289 7.640622 10.213540 8.171875 10.546875 C8.359376 10.661459 8.481771 10.820311 8.539062 11.023438 C8.596354 11.226564 8.567709 11.416666 8.453125 11.593750 C8.130207 12.093752 7.820314 12.611976 7.523438 13.148438 C7.226561 13.684899 6.927085 14.249997 6.625000 14.843750 C6.364582 15.354169 5.953128 15.453127 5.390625 15.140625 Z M17.703125 6.609375 C17.973960 6.276040 18.190103 5.872398 18.351562 5.398438 C18.513022 4.924477 18.593750 4.572918 18.593750 4.343750 C18.593750 3.968748 18.390627 3.622397 17.984375 3.304688 C17.578123 2.986978 17.046878 2.710939 16.390625 2.476562 C15.734372 2.242186 15.023441 2.057292 14.257812 1.921875 C13.492184 1.786458 12.744795 1.718750 12.015625 1.718750 C10.973953 1.718750 10.028650 1.828124 9.179688 2.046875 C8.330725 2.265626 7.593753 2.570311 6.968750 2.960938 C6.343747 3.351564 5.856773 3.799477 5.507812 4.304688 C5.158852 4.809898 4.963542 5.348955 4.921875 5.921875 C5.578128 5.651040 6.325517 5.445313 7.164062 5.304688 C8.002608 5.164062 8.927078 5.093750 9.937500 5.093750 C10.958338 5.093750 11.890621 5.156249 12.734375 5.281250 C13.578129 5.406251 14.398434 5.580728 15.195312 5.804688 C15.992191 6.028647 16.828121 6.296873 17.703125 6.609375 Z M32.500000 27.343750" /></svg>