<svg version="1.1" xmlns="http://www.w3.org/2000/svg" style="fill:rgba(0,0,0,1.0)" width="256" height="256" viewBox="0 0 36.875 33.59375"><path fill="rgb(255, 255, 255)" d="M12.390625 32.187500 C10.557282 31.749998 8.882820 31.059901 7.367188 30.117188 C5.851555 29.174474 4.544276 28.015632 3.445312 26.640625 C2.346349 25.265618 1.497399 23.713550 0.898438 21.984375 C0.299476 20.255200 0.000000 18.395843 0.000000 16.406250 C0.000000 14.052072 0.414058 11.877614 1.242188 9.882812 C2.070317 7.888011 3.229159 6.151049 4.718750 4.671875 C6.208341 3.192701 7.960927 2.044275 9.976562 1.226562 C11.992198 0.408850 14.187488 -0.000000 16.562500 -0.000000 C18.937512 -0.000000 21.132802 0.408850 23.148438 1.226562 C25.164073 2.044275 26.916659 3.192701 28.406250 4.671875 C29.895841 6.151049 31.054683 7.888011 31.882812 9.882812 C32.710942 11.877614 33.125000 14.052072 33.125000 16.406250 C33.125000 18.395843 32.825524 20.255200 32.226562 21.984375 C31.627601 23.713550 30.778651 25.265618 29.679688 26.640625 C28.580724 28.015632 27.273445 29.174474 25.757812 30.117188 C24.242180 31.059901 22.567718 31.749998 20.734375 32.187500 L21.640625 30.125000 C23.078132 29.635414 24.385411 28.958338 25.562500 28.093750 C26.739589 27.229162 27.752600 26.205735 28.601562 25.023438 C29.450525 23.841140 30.104164 22.523445 30.562500 21.070312 C31.020836 19.617180 31.250000 18.062508 31.250000 16.406250 C31.250000 14.291656 30.882816 12.341155 30.148438 10.554688 C29.414059 8.768220 28.388027 7.216152 27.070312 5.898438 C25.752598 4.580723 24.200530 3.554691 22.414062 2.820312 C20.627595 2.085934 18.677094 1.718750 16.562500 1.718750 C14.458323 1.718750 12.513030 2.085934 10.726562 2.820312 C8.940095 3.554691 7.385423 4.580723 6.062500 5.898438 C4.739577 7.216152 3.710941 8.768220 2.976562 10.554688 C2.242184 12.341155 1.875000 14.291656 1.875000 16.406250 C1.875000 18.062508 2.098956 19.617180 2.546875 21.070312 C2.994794 22.523445 3.640621 23.841140 4.484375 25.023438 C5.328129 26.205735 6.341140 27.229162 7.523438 28.093750 C8.705735 28.958338 10.026034 29.635414 11.484375 30.125000 Z M16.312500 31.250000 L16.312500 30.281250 L16.953125 30.234375 L16.953125 31.250000 Z M16.312500 29.484375 L16.312500 27.750000 L16.953125 28.015625 L16.953125 29.406250 Z M16.437500 30.468750 C16.177082 30.468750 15.895835 30.429688 15.593750 30.351562 C15.291665 30.273437 15.015626 30.171876 14.765625 30.046875 L14.765625 28.734375 C15.015626 28.901042 15.294269 29.036458 15.601562 29.140625 C15.908856 29.244792 16.177082 29.296875 16.406250 29.296875 L16.718750 29.296875 C16.927084 29.296875 17.088541 29.252605 17.203125 29.164062 C17.317709 29.075520 17.375000 28.947918 17.375000 28.781250 C17.375000 28.666666 17.317709 28.549480 17.203125 28.429688 C17.088541 28.309895 16.932293 28.208334 16.734375 28.125000 L16.515625 28.031250 C15.942705 27.781249 15.500002 27.515626 15.187500 27.234375 C14.874998 26.953124 14.718750 26.572919 14.718750 26.093750 C14.718750 25.520830 14.898436 25.096356 15.257812 24.820312 C15.617189 24.544269 16.072914 24.406250 16.625000 24.406250 C16.875001 24.406250 17.145832 24.437500 17.437500 24.500000 C17.729168 24.562500 18.015624 24.677082 18.296875 24.843750 L18.000000 25.937500 C17.812499 25.833333 17.606772 25.747396 17.382812 25.679688 C17.158853 25.611979 16.958334 25.578125 16.781250 25.578125 L16.531250 25.578125 C16.093748 25.578125 15.875000 25.734373 15.875000 26.046875 C15.875000 26.203126 15.927083 26.328125 16.031250 26.421875 C16.135417 26.515625 16.302082 26.614583 16.531250 26.718750 L16.703125 26.796875 C17.359378 27.088543 17.809895 27.382811 18.054688 27.679688 C18.299480 27.976564 18.421875 28.333331 18.421875 28.750000 C18.421875 29.260419 18.255210 29.674478 17.921875 29.992188 C17.588540 30.309897 17.156253 30.468750 16.625000 30.468750 Z M16.453125 33.593750 C14.630199 33.593750 13.161464 33.117192 12.046875 32.164062 C10.932286 31.210933 10.375000 29.953133 10.375000 28.390625 L10.375000 21.000000 C11.416672 21.145834 12.450516 21.255208 13.476562 21.328125 C14.502609 21.401042 15.531245 21.437500 16.562500 21.437500 C17.593755 21.437500 18.624995 21.401042 19.656250 21.328125 C20.687505 21.255208 21.718745 21.145834 22.750000 21.000000 L22.750000 28.390625 C22.750000 29.953133 22.195318 31.210933 21.085938 32.164062 C19.976557 33.117192 18.505218 33.593750 16.671875 33.593750 Z M16.453125 32.031250 L16.671875 32.031250 C18.067715 32.031250 19.169267 31.703128 19.976562 31.046875 C20.783858 30.390622 21.187500 29.505214 21.187500 28.390625 L21.187500 22.765625 C20.427080 22.838542 19.658858 22.898437 18.882812 22.945312 C18.106767 22.992188 17.333337 23.015625 16.562500 23.015625 C15.791663 23.015625 15.020837 22.992188 14.250000 22.945312 C13.479163 22.898437 12.708337 22.838542 11.937500 22.765625 L11.937500 28.390625 C11.937500 29.505214 12.343746 30.390622 13.156250 31.046875 C13.968754 31.703128 15.067701 32.031250 16.453125 32.031250 Z M16.953125 27.609375 L16.312500 27.328125 L16.312500 23.796875 L16.953125 23.796875 Z M11.125000 27.937500 C10.062495 27.437498 9.106775 26.830733 8.257812 26.117188 C7.408850 25.403642 6.736982 24.638025 6.242188 23.820312 C5.747393 23.002600 5.500000 22.182296 5.500000 21.359375 C5.500000 20.807289 5.651040 20.432293 5.953125 20.234375 C6.255210 20.036457 6.614581 19.937500 7.031250 19.937500 C7.500002 19.937500 8.205724 20.023437 9.148438 20.195312 C10.091151 20.367188 11.200514 20.541666 12.476562 20.718750 C13.752611 20.895834 15.114576 20.984375 16.562500 20.984375 C18.020841 20.984375 19.385410 20.895834 20.656250 20.718750 C21.927090 20.541666 23.033849 20.367188 23.976562 20.195312 C24.919276 20.023437 25.624998 19.937500 26.093750 19.937500 C26.510419 19.937500 26.869790 20.036457 27.171875 20.234375 C27.473960 20.432293 27.625000 20.807289 27.625000 21.359375 C27.625000 22.182296 27.377607 23.005204 26.882812 23.828125 C26.388018 24.651046 25.718754 25.416663 24.875000 26.125000 C24.031246 26.833337 23.072922 27.437498 22.000000 27.937500 L22.000000 21.906250 L11.125000 21.906250 Z M10.390625 18.109375 L10.390625 16.906250 L11.171875 16.843750 L11.171875 18.109375 Z M10.390625 15.921875 L10.390625 13.796875 L11.171875 14.140625 L11.171875 15.828125 Z M10.546875 17.125000 C10.234373 17.125000 9.893231 17.078125 9.523438 16.984375 C9.153644 16.890625 8.817710 16.765626 8.515625 16.609375 L8.515625 15.000000 C8.817710 15.208334 9.156248 15.377604 9.531250 15.507812 C9.906252 15.638021 10.239582 15.703125 10.531250 15.703125 L10.906250 15.703125 C11.437503 15.703125 11.703125 15.489585 11.703125 15.062500 C11.703125 14.760415 11.442711 14.489585 10.921875 14.250000 L10.640625 14.125000 C9.942705 13.822915 9.403648 13.500002 9.023438 13.156250 C8.643227 12.812498 8.453125 12.354170 8.453125 11.781250 C8.453125 11.093747 8.671873 10.578127 9.109375 10.234375 C9.546877 9.890623 10.098955 9.718750 10.765625 9.718750 C11.078127 9.718750 11.414061 9.760416 11.773438 9.843750 C12.132814 9.927084 12.484373 10.067707 12.828125 10.265625 L12.453125 11.609375 C12.223957 11.473958 11.976564 11.364584 11.710938 11.281250 C11.445311 11.197916 11.203126 11.156250 10.984375 11.156250 L10.671875 11.156250 C10.359373 11.156250 10.148438 11.208333 10.039062 11.312500 C9.929687 11.416667 9.875000 11.546874 9.875000 11.703125 C9.875000 11.901043 9.942708 12.057291 10.078125 12.171875 C10.213542 12.286459 10.411457 12.411458 10.671875 12.546875 L10.875000 12.640625 C11.656254 13.026044 12.200519 13.395832 12.507812 13.750000 C12.815106 14.104168 12.968750 14.531248 12.968750 15.031250 C12.968750 15.656253 12.765627 16.161456 12.359375 16.546875 C11.953123 16.932294 11.427087 17.125000 10.781250 17.125000 Z M11.171875 13.640625 L10.390625 13.296875 L10.390625 8.984375 L11.171875 8.984375 Z M7.843750 8.140625 L6.968750 6.843750 C8.437507 5.666661 10.302072 5.078125 12.562500 5.078125 L12.562500 6.640625 C11.614579 6.640625 10.765629 6.760415 10.015625 7.000000 C9.265621 7.239585 8.541670 7.619789 7.843750 8.140625 Z M22.093750 18.109375 L22.093750 16.906250 L22.875000 16.843750 L22.875000 18.109375 Z M22.093750 15.921875 L22.093750 13.796875 L22.875000 14.140625 L22.875000 15.828125 Z M22.250000 17.125000 C21.937498 17.125000 21.596356 17.078125 21.226562 16.984375 C20.856769 16.890625 20.520835 16.765626 20.218750 16.609375 L20.218750 15.000000 C20.520835 15.208334 20.859373 15.377604 21.234375 15.507812 C21.609377 15.638021 21.942707 15.703125 22.234375 15.703125 L22.609375 15.703125 C23.140628 15.703125 23.406250 15.489585 23.406250 15.062500 C23.406250 14.749998 23.145836 14.479168 22.625000 14.250000 L22.343750 14.125000 C21.645830 13.812498 21.106773 13.486981 20.726562 13.148438 C20.346352 12.809894 20.156250 12.354170 20.156250 11.781250 C20.156250 11.093747 20.374998 10.578127 20.812500 10.234375 C21.250002 9.890623 21.802080 9.718750 22.468750 9.718750 C22.781252 9.718750 23.117186 9.760416 23.476562 9.843750 C23.835939 9.927084 24.187498 10.067707 24.531250 10.265625 L24.156250 11.609375 C23.927082 11.473958 23.679689 11.364584 23.414062 11.281250 C23.148436 11.197916 22.906251 11.156250 22.687500 11.156250 L22.375000 11.156250 C22.062498 11.156250 21.851563 11.208333 21.742188 11.312500 C21.632812 11.416667 21.578125 11.546874 21.578125 11.703125 C21.578125 11.901043 21.645833 12.057291 21.781250 12.171875 C21.916667 12.286459 22.114582 12.411458 22.375000 12.546875 L22.578125 12.640625 C23.359379 13.026044 23.903644 13.395832 24.210938 13.750000 C24.518231 14.104168 24.671875 14.531248 24.671875 15.031250 C24.671875 15.656253 24.468752 16.161456 24.062500 16.546875 C23.656248 16.932294 23.130212 17.125000 22.484375 17.125000 Z M22.875000 13.640625 L22.093750 13.296875 L22.093750 8.984375 L22.875000 8.984375 Z M25.281250 8.140625 C24.583330 7.619789 23.859379 7.239585 23.109375 7.000000 C22.359371 6.760415 21.510421 6.640625 20.562500 6.640625 L20.562500 5.078125 C22.822928 5.078125 24.687493 5.666661 26.156250 6.843750 Z M36.875000 27.343750" /></svg>