<svg version="1.1" xmlns="http://www.w3.org/2000/svg" style="fill:rgba(0,0,0,1.0)" width="256" height="256" viewBox="0 0 36.46875 32.8125"><path fill="rgb(255, 255, 255)" d="M6.031250 32.234375 C5.322913 32.234375 4.731773 32.138022 4.257812 31.945312 C3.783852 31.752603 3.546875 31.395836 3.546875 30.875000 C3.546875 30.322914 3.885413 29.796878 4.562500 29.296875 C5.239587 28.796872 5.999996 28.416668 6.843750 28.156250 C6.593749 27.479163 6.377605 26.731775 6.195312 25.914062 C6.013020 25.096350 5.921875 24.427086 5.921875 23.906250 C5.921875 23.166663 6.111977 22.544273 6.492188 22.039062 C6.872398 21.533852 7.338539 21.218751 7.890625 21.093750 L14.796875 19.500000 C14.869792 18.791663 15.156248 18.213544 15.656250 17.765625 C16.156252 17.317706 16.609373 17.093750 17.015625 17.093750 C17.848962 17.093750 18.604163 17.442705 19.281250 18.140625 C19.958337 18.838545 20.518227 19.809890 20.960938 21.054688 C21.403648 22.299485 21.682291 23.755200 21.796875 25.421875 C22.973964 25.296874 23.828122 24.841150 24.359375 24.054688 C24.890628 23.268225 25.156250 22.067716 25.156250 20.453125 C25.156250 18.994784 24.979168 17.572924 24.625000 16.187500 C24.270832 14.802076 23.864586 13.471361 23.406250 12.195312 C22.947914 10.919264 22.541668 9.718756 22.187500 8.593750 C21.833332 7.468744 21.656250 6.442713 21.656250 5.515625 C21.656250 4.515620 21.898435 3.598962 22.382812 2.765625 C22.867190 1.932288 23.510413 1.263023 24.312500 0.757812 C25.114587 0.252602 25.989579 -0.000000 26.937500 -0.000000 C27.843755 -0.000000 28.705725 0.223956 29.523438 0.671875 C30.341150 1.119794 31.010414 1.700517 31.531250 2.414062 C32.052086 3.127608 32.312500 3.895829 32.312500 4.718750 C32.312500 5.437504 32.088544 6.015623 31.640625 6.453125 C31.192706 6.890627 30.645837 7.109375 30.000000 7.109375 C29.447914 7.109375 29.018231 6.989585 28.710938 6.750000 C28.403644 6.510415 28.158855 6.236981 27.976562 5.929688 C27.794270 5.622394 27.630209 5.348960 27.484375 5.109375 C27.338541 4.869790 27.156251 4.750000 26.937500 4.750000 C26.635415 4.750000 26.484375 5.114580 26.484375 5.843750 C26.484375 6.750005 26.664061 7.687495 27.023438 8.656250 C27.382814 9.625005 27.796873 10.677078 28.265625 11.812500 C28.734377 12.947922 29.148436 14.216139 29.507812 15.617188 C29.867189 17.018236 30.046875 18.614574 30.046875 20.406250 C30.046875 23.697933 29.294278 26.177075 27.789062 27.843750 C26.283847 29.510425 24.052098 30.395833 21.093750 30.500000 C20.843749 31.010419 20.401045 31.427082 19.765625 31.750000 C19.130205 32.072918 18.453129 32.234375 17.734375 32.234375 C17.130205 32.234375 16.580732 32.101564 16.085938 31.835938 C15.591143 31.570311 15.098961 31.135420 14.609375 30.531250 C14.317707 31.041669 14.033856 31.421874 13.757812 31.671875 C13.481769 31.921876 13.151044 32.046875 12.765625 32.046875 C12.359373 32.046875 11.869795 31.903647 11.296875 31.617188 C10.723955 31.330728 10.218752 30.979169 9.781250 30.562500 C9.343748 30.145831 9.125000 29.750002 9.125000 29.375000 L8.234375 29.468750 L6.875000 30.671875 L6.875000 32.234375 Z M9.375000 32.812500 C8.427079 32.812500 7.651045 32.736980 7.046875 32.585938 C6.442705 32.434895 6.140625 32.072920 6.140625 31.500000 C6.140625 30.916664 6.476559 30.401044 7.148438 29.953125 C7.820316 29.505206 8.703120 29.072919 9.796875 28.656250 L9.578125 29.421875 C9.213540 29.505209 8.833335 29.632812 8.437500 29.804688 C8.041665 29.976563 7.708335 30.151041 7.437500 30.328125 C7.166665 30.505209 7.031250 30.651041 7.031250 30.765625 C7.031250 30.901042 7.263019 31.015625 7.726562 31.109375 C8.190106 31.203125 8.791663 31.250000 9.531250 31.250000 C10.250004 31.250000 10.851560 31.200521 11.335938 31.101562 C11.820315 31.002604 12.145832 30.864584 12.312500 30.687500 L13.437500 31.781250 C13.083332 32.135418 12.572920 32.395832 11.906250 32.562500 C11.239580 32.729168 10.395838 32.812500 9.375000 32.812500 Z M4.093750 16.093750 C3.593748 16.093750 3.184897 15.947918 2.867188 15.656250 C2.549478 15.364582 2.390625 15.005210 2.390625 14.578125 C2.390625 14.286457 2.473958 14.065105 2.640625 13.914062 C2.807292 13.763020 3.083331 13.645834 3.468750 13.562500 C3.541667 14.135420 3.622395 14.598957 3.710938 14.953125 C3.799480 15.307293 3.927082 15.687498 4.093750 16.093750 Z M8.203125 14.046875 C7.901040 14.046875 7.627605 13.901043 7.382812 13.609375 C7.138020 13.317707 7.015625 12.989585 7.015625 12.625000 C7.015625 12.302082 7.111978 12.031251 7.304688 11.812500 C7.497397 11.593749 7.729165 11.484375 8.000000 11.484375 C8.333335 11.484375 8.614582 11.619790 8.843750 11.890625 C9.072918 12.161460 9.187500 12.494790 9.187500 12.890625 C9.187500 13.213543 9.093751 13.486978 8.906250 13.710938 C8.718749 13.934897 8.484376 14.046875 8.203125 14.046875 Z M10.296875 17.578125 C9.796873 17.578125 9.309898 17.502605 8.835938 17.351562 C8.361977 17.200520 8.125000 16.953127 8.125000 16.609375 C8.125000 16.307290 8.343748 16.020835 8.781250 15.750000 C9.218752 15.479165 9.755205 15.239584 10.390625 15.031250 C11.026045 14.822916 11.661455 14.656251 12.296875 14.531250 C12.932295 14.406249 13.453123 14.343750 13.859375 14.343750 C14.223960 14.343750 14.526040 14.395833 14.765625 14.500000 C15.005210 14.604167 15.125000 14.786457 15.125000 15.046875 C15.125000 15.432294 14.825524 15.854164 14.226562 16.312500 C13.627601 16.770836 12.895838 17.114582 12.031250 17.343750 C11.739582 17.416667 11.445314 17.473958 11.148438 17.515625 C10.851561 17.557292 10.567710 17.578125 10.296875 17.578125 Z M10.109375 20.125000 C8.755202 20.125000 7.671879 19.828128 6.859375 19.234375 C6.046871 18.640622 5.640625 17.791672 5.640625 16.687500 C5.640625 16.541666 5.656250 16.294273 5.687500 15.945312 C5.718750 15.596352 5.734375 15.375000 5.734375 15.281250 C5.734375 14.906248 5.630209 14.544273 5.421875 14.195312 C5.213541 13.846352 5.005209 13.476564 4.796875 13.085938 C4.588541 12.695311 4.484375 12.250002 4.484375 11.750000 C4.484375 10.947913 4.760414 10.283857 5.312500 9.757812 C5.864586 9.231768 6.552079 8.968750 7.375000 8.968750 C7.802085 8.968750 8.239581 9.028645 8.687500 9.148438 C9.135419 9.268230 9.515623 9.328125 9.828125 9.328125 C10.015626 9.328125 10.234374 9.244792 10.484375 9.078125 C10.734376 8.911458 10.989582 8.703126 11.250000 8.453125 L11.546875 8.171875 C11.838543 7.901040 12.166665 7.682292 12.531250 7.515625 C12.895835 7.348958 13.260415 7.265625 13.625000 7.265625 C14.270837 7.265625 14.843748 7.460936 15.343750 7.851562 C15.843752 8.242189 16.171874 8.749997 16.328125 9.375000 C16.432292 9.781252 16.484375 10.234372 16.484375 10.734375 C16.484375 11.234378 16.520833 11.619790 16.593750 11.890625 C16.625000 11.994792 16.690104 12.135416 16.789062 12.312500 C16.888021 12.489584 17.020832 12.697915 17.187500 12.937500 L17.312500 13.125000 C17.583335 13.510419 17.768229 13.856769 17.867188 14.164062 C17.966146 14.471356 18.015625 14.822915 18.015625 15.218750 C18.015625 16.000004 17.770836 16.692705 17.281250 17.296875 C16.791664 17.901045 16.148441 18.414060 15.351562 18.835938 C14.554684 19.257815 13.697921 19.578124 12.781250 19.796875 C11.864579 20.015626 10.973963 20.125000 10.109375 20.125000 Z M10.109375 18.875000 C10.765628 18.875000 11.476559 18.791668 12.242188 18.625000 C13.007816 18.458332 13.731767 18.216147 14.414062 17.898438 C15.096358 17.580728 15.653644 17.195315 16.085938 16.742188 C16.518231 16.289060 16.734375 15.781253 16.734375 15.218750 C16.734375 15.010416 16.682292 14.786460 16.578125 14.546875 C16.473958 14.307290 16.354167 14.093751 16.218750 13.906250 L16.093750 13.734375 C15.864582 13.411457 15.690105 13.127605 15.570312 12.882812 C15.450520 12.638020 15.364584 12.432292 15.312500 12.265625 C15.208333 11.859373 15.169271 11.414065 15.195312 10.929688 C15.221354 10.445310 15.192709 10.031252 15.109375 9.687500 C15.026041 9.333332 14.848960 9.049480 14.578125 8.835938 C14.307290 8.622395 13.989585 8.515625 13.625000 8.515625 C13.166664 8.515625 12.703127 8.749998 12.234375 9.218750 L12.046875 9.406250 C11.588539 9.864586 11.203127 10.177083 10.890625 10.343750 C10.578123 10.510417 10.218752 10.593750 9.812500 10.593750 C9.395831 10.593750 8.968752 10.531251 8.531250 10.406250 C8.093748 10.281249 7.708335 10.218750 7.375000 10.218750 C6.895831 10.218750 6.502606 10.359374 6.195312 10.640625 C5.888019 10.921876 5.734375 11.291664 5.734375 11.750000 C5.734375 12.135419 5.838541 12.481769 6.046875 12.789062 C6.255209 13.096356 6.463541 13.437498 6.671875 13.812500 C6.880209 14.187502 6.984375 14.677080 6.984375 15.281250 C6.984375 15.531251 6.968750 15.770832 6.937500 16.000000 C6.906250 16.229168 6.890625 16.458332 6.890625 16.687500 C6.890625 17.427087 7.174476 17.976561 7.742188 18.335938 C8.309899 18.695314 9.098953 18.875000 10.109375 18.875000 Z M11.000000 14.234375 C10.781249 14.234375 10.580730 14.174480 10.398438 14.054688 C10.216145 13.934895 10.125000 13.802084 10.125000 13.656250 C10.125000 13.520833 10.281248 13.385417 10.593750 13.250000 C10.906252 13.114583 11.208332 13.046875 11.500000 13.046875 C11.760418 13.046875 11.890625 13.166665 11.890625 13.406250 C11.890625 13.614584 11.799480 13.804687 11.617188 13.976562 C11.434895 14.148438 11.229168 14.234375 11.000000 14.234375 Z M10.203125 21.125000 C8.796868 21.125000 7.520839 20.940106 6.375000 20.570312 C5.229161 20.200519 4.286462 19.473964 3.546875 18.390625 C2.526037 18.286458 1.679691 17.880212 1.007812 17.171875 C0.335934 16.463538 0.000000 15.604172 0.000000 14.593750 C0.000000 13.927080 0.164061 13.325524 0.492188 12.789062 C0.820314 12.252601 1.265622 11.848960 1.828125 11.578125 C1.901042 9.828116 2.325517 8.302090 3.101562 7.000000 C3.877608 5.697910 4.934889 4.684899 6.273438 3.960938 C7.611986 3.236976 9.166658 2.875000 10.937500 2.875000 C12.468758 2.875000 13.867181 3.242184 15.132812 3.976562 C16.398444 4.710941 17.458329 5.770826 18.312500 7.156250 C18.354167 7.156250 18.393229 7.156250 18.429688 7.156250 C18.466146 7.156250 18.505208 7.156250 18.546875 7.156250 C19.192712 7.156250 19.768227 7.330727 20.273438 7.679688 C20.778648 8.028648 21.177082 8.481768 21.468750 9.039062 C21.760418 9.596357 21.906250 10.192705 21.906250 10.828125 C21.906250 12.109381 21.338547 13.145829 20.203125 13.937500 C20.151041 14.906255 19.921877 15.778642 19.515625 16.554688 C19.109373 17.330733 18.572920 18.010414 17.906250 18.593750 L16.578125 17.656250 C17.213545 17.145831 17.718748 16.544274 18.093750 15.851562 C18.468752 15.158851 18.656250 14.375004 18.656250 13.500000 C18.656250 13.416666 18.656250 13.335938 18.656250 13.257812 C18.656250 13.179687 18.651042 13.104167 18.640625 13.031250 C19.776047 12.531248 20.343750 11.791672 20.343750 10.812500 C20.343750 10.281247 20.174481 9.799481 19.835938 9.367188 C19.497394 8.934894 19.067711 8.718750 18.546875 8.718750 C18.432291 8.718750 18.307292 8.731771 18.171875 8.757812 C18.036458 8.783854 17.817710 8.848958 17.515625 8.953125 C16.807288 7.484368 15.890631 6.364587 14.765625 5.593750 C13.640619 4.822913 12.364590 4.437500 10.937500 4.437500 C9.395826 4.437500 8.059901 4.752601 6.929688 5.382812 C5.799474 6.013024 4.924482 6.901036 4.304688 8.046875 C3.684893 9.192714 3.375000 10.546867 3.375000 12.109375 C3.375000 12.223959 3.375000 12.338541 3.375000 12.453125 C3.375000 12.567709 3.380208 12.682291 3.390625 12.796875 C2.848956 12.796875 2.408856 12.966144 2.070312 13.304688 C1.731769 13.643231 1.562500 14.072914 1.562500 14.593750 C1.562500 15.239587 1.789060 15.776040 2.242188 16.203125 C2.695315 16.630210 3.276038 16.843750 3.984375 16.843750 C4.057292 16.843750 4.130208 16.841146 4.203125 16.835938 C4.276042 16.830729 4.348958 16.822917 4.421875 16.812500 C4.807294 17.541670 5.286455 18.106769 5.859375 18.507812 C6.432295 18.908856 7.083330 19.184895 7.812500 19.335938 C8.541670 19.486980 9.338537 19.562500 10.203125 19.562500 C11.192713 19.562500 12.153641 19.455730 13.085938 19.242188 C14.018234 19.028645 14.859371 18.713544 15.609375 18.296875 L15.265625 20.171875 C14.505205 20.494793 13.692713 20.734374 12.828125 20.890625 C11.963537 21.046876 11.088546 21.125000 10.203125 21.125000 Z M13.218750 12.687500 C12.916665 12.687500 12.643230 12.541668 12.398438 12.250000 C12.153645 11.958332 12.031250 11.630210 12.031250 11.265625 C12.031250 10.942707 12.127603 10.671876 12.320312 10.453125 C12.513022 10.234374 12.744790 10.125000 13.015625 10.125000 C13.348960 10.125000 13.630207 10.260415 13.859375 10.531250 C14.088543 10.802085 14.203125 11.135415 14.203125 11.531250 C14.203125 11.854168 14.109376 12.127603 13.921875 12.351562 C13.734374 12.575522 13.500001 12.687500 13.218750 12.687500 Z M17.734375 30.515625 C18.234378 30.515625 18.721352 30.369793 19.195312 30.078125 C19.669273 29.786457 20.031249 29.401044 20.281250 28.921875 C22.989597 28.921875 25.007806 28.244798 26.335938 26.890625 C27.664069 25.536452 28.328125 23.375015 28.328125 20.406250 C28.328125 18.739575 28.148439 17.229173 27.789062 15.875000 C27.429686 14.520827 27.015627 13.273443 26.546875 12.132812 C26.078123 10.992182 25.664064 9.911463 25.304688 8.890625 C24.945311 7.869787 24.765625 6.854172 24.765625 5.843750 C24.765625 5.010413 24.953123 4.359377 25.328125 3.890625 C25.703127 3.421873 26.239580 3.187500 26.937500 3.187500 C27.447919 3.187500 27.846353 3.307290 28.132812 3.546875 C28.419272 3.786460 28.648437 4.059894 28.820312 4.367188 C28.992188 4.674481 29.161458 4.947915 29.328125 5.187500 C29.494792 5.427085 29.718749 5.546875 30.000000 5.546875 C30.395835 5.546875 30.593750 5.270836 30.593750 4.718750 C30.593750 4.197914 30.416668 3.695315 30.062500 3.210938 C29.708332 2.726560 29.252607 2.330731 28.695312 2.023438 C28.138018 1.716144 27.552086 1.562500 26.937500 1.562500 C26.270830 1.562500 25.656253 1.742186 25.093750 2.101562 C24.531247 2.460939 24.078127 2.940101 23.734375 3.539062 C23.390623 4.138024 23.218750 4.796871 23.218750 5.515625 C23.218750 6.359379 23.395832 7.356765 23.750000 8.507812 C24.104168 9.658860 24.510414 10.903639 24.968750 12.242188 C25.427086 13.580736 25.833332 14.950514 26.187500 16.351562 C26.541668 17.752611 26.718750 19.119785 26.718750 20.453125 C26.718750 22.651053 26.252609 24.294265 25.320312 25.382812 C24.388016 26.471360 22.958343 27.015625 21.031250 27.015625 C20.906249 27.015625 20.776042 27.013021 20.640625 27.007812 C20.505208 27.002604 20.369792 26.994792 20.234375 26.984375 C20.234375 26.057287 20.164063 25.117192 20.023438 24.164062 C19.882812 23.210933 19.674481 22.333337 19.398438 21.531250 C19.122394 20.729163 18.783856 20.080732 18.382812 19.585938 C17.981769 19.091143 17.520836 18.843750 17.000000 18.843750 C16.677082 18.843750 16.432292 18.937499 16.265625 19.125000 C16.098958 19.312501 16.015625 19.588540 16.015625 19.953125 C16.015625 20.119792 16.031250 20.286457 16.062500 20.453125 C16.093750 20.619792 16.151041 20.833332 16.234375 21.093750 L13.421875 21.093750 C13.130207 21.093750 12.927084 21.164062 12.812500 21.304688 C12.697916 21.445313 12.640625 21.604166 12.640625 21.781250 C12.640625 21.916667 12.664062 22.041666 12.710938 22.156250 C12.757813 22.270834 12.817708 22.369791 12.890625 22.453125 L11.859375 23.281250 C11.734374 23.166666 11.630209 22.994793 11.546875 22.765625 C11.463541 22.536457 11.421875 22.312501 11.421875 22.093750 C11.421875 21.916666 11.437500 21.742188 11.468750 21.570312 C11.500000 21.398437 11.552083 21.255209 11.625000 21.140625 C11.187498 21.140625 10.755210 21.343748 10.328125 21.750000 C9.901040 22.156252 9.549481 22.674476 9.273438 23.304688 C8.997394 23.934899 8.859375 24.578122 8.859375 25.234375 C8.859375 25.546877 8.908854 25.802082 9.007812 26.000000 C9.106771 26.197918 9.270832 26.296875 9.500000 26.296875 C9.697918 26.296875 9.890624 26.190105 10.078125 25.976562 C10.265626 25.763020 10.489582 25.406252 10.750000 24.906250 L11.046875 24.328125 C11.442710 23.557288 11.888018 22.984377 12.382812 22.609375 C12.877607 22.234373 13.427080 22.046875 14.031250 22.046875 C15.000005 22.046875 15.927079 22.377601 16.812500 23.039062 C17.697921 23.700524 18.526038 24.671869 19.296875 25.953125 L17.953125 26.765625 C16.692702 24.661448 15.437506 23.609375 14.187500 23.609375 C13.802081 23.609375 13.447918 23.747394 13.125000 24.023438 C12.802082 24.299481 12.442710 24.822913 12.046875 25.593750 C11.651040 26.364587 11.135420 27.494784 10.500000 28.984375 C10.864585 29.463544 11.242186 29.833332 11.632812 30.093750 C12.023439 30.354168 12.348957 30.484375 12.609375 30.484375 C12.911460 30.484375 13.208332 30.335939 13.500000 30.039062 C13.791668 29.742186 14.161456 29.250003 14.609375 28.562500 C15.348962 29.322920 15.934894 29.838540 16.367188 30.109375 C16.799481 30.380210 17.255206 30.515625 17.734375 30.515625 Z M18.656250 12.140625 C18.593750 11.661456 18.507813 11.242189 18.398438 10.882812 C18.289062 10.523436 18.135418 10.109377 17.937500 9.640625 C18.239585 9.546875 18.437500 9.500000 18.531250 9.500000 C18.864585 9.500000 19.127603 9.640624 19.320312 9.921875 C19.513022 10.203126 19.609375 10.484374 19.609375 10.765625 C19.609375 11.067710 19.507814 11.343749 19.304688 11.593750 C19.101561 11.843751 18.885418 12.026041 18.656250 12.140625 Z M36.468750 27.343750" /></svg>