<svg version="1.1" xmlns="http://www.w3.org/2000/svg" style="fill:rgba(0,0,0,1.0)" width="256" height="256" viewBox="0 0 38.671875 31.25"><path fill="rgb(255, 255, 255)" d="M18.359375 31.250000 C16.005197 31.250000 13.864593 30.903649 11.937500 30.210938 C10.010407 29.518226 8.372403 28.518236 7.023438 27.210938 C5.674472 25.903639 4.687503 24.328134 4.062500 22.484375 C2.812494 22.026039 1.822920 21.281255 1.093750 20.250000 C0.364580 19.218745 0.000000 18.057298 0.000000 16.765625 C0.000000 15.859370 0.177082 15.023441 0.531250 14.257812 C0.885418 13.492184 1.377601 12.851565 2.007812 12.335938 C2.638024 11.820310 3.354163 11.494792 4.156250 11.359375 C4.822920 8.994780 5.841139 6.963550 7.210938 5.265625 C8.580736 3.567700 10.218740 2.265630 12.125000 1.359375 C14.031260 0.453120 16.109364 -0.000000 18.359375 -0.000000 C20.619803 -0.000000 22.700511 0.453120 24.601562 1.359375 C26.502614 2.265630 28.138014 3.567700 29.507812 5.265625 C30.877611 6.963550 31.895830 8.994780 32.562500 11.359375 C33.375004 11.494792 34.093747 11.820310 34.718750 12.335938 C35.343753 12.851565 35.833332 13.492184 36.187500 14.257812 C36.541668 15.023441 36.718750 15.859370 36.718750 16.765625 C36.718750 18.057298 36.354170 19.218745 35.625000 20.250000 C34.895830 21.281255 33.906256 22.026039 32.656250 22.484375 C32.041664 24.328134 31.057298 25.903639 29.703125 27.210938 C28.348952 28.518236 26.708343 29.518226 24.781250 30.210938 C22.854157 30.903649 20.713553 31.250000 18.359375 31.250000 Z M5.234375 20.078125 C4.578122 19.953124 4.049481 19.585941 3.648438 18.976562 C3.247394 18.367184 3.046875 17.651046 3.046875 16.828125 C3.046875 15.994788 3.249998 15.294274 3.656250 14.726562 C4.062502 14.158851 4.583330 13.875000 5.218750 13.875000 C5.125000 14.406253 5.049479 14.929685 4.992188 15.445312 C4.934896 15.960940 4.906250 16.479164 4.906250 17.000000 C4.906250 17.510419 4.934896 18.023435 4.992188 18.539062 C5.049479 19.054690 5.130208 19.567706 5.234375 20.078125 Z M18.359375 24.187500 C17.234369 24.187500 16.184901 24.054689 15.210938 23.789062 C14.236974 23.523436 13.453128 23.177085 12.859375 22.750000 C12.265622 22.322915 11.968750 21.875002 11.968750 21.406250 C11.968750 20.781247 12.523432 20.299481 13.632812 19.960938 C14.742193 19.622394 16.317698 19.453125 18.359375 19.453125 C20.380218 19.453125 21.950515 19.622394 23.070312 19.960938 C24.190110 20.299481 24.750000 20.781247 24.750000 21.406250 C24.750000 21.875002 24.453128 22.322915 23.859375 22.750000 C23.265622 23.177085 22.481776 23.523436 21.507812 23.789062 C20.533849 24.054689 19.484381 24.187500 18.359375 24.187500 Z M13.765625 16.828125 C13.244789 16.828125 12.799481 16.601565 12.429688 16.148438 C12.059894 15.695310 11.875000 15.156253 11.875000 14.531250 C11.875000 13.895830 12.059894 13.356773 12.429688 12.914062 C12.799481 12.471352 13.244789 12.250000 13.765625 12.250000 C14.286461 12.250000 14.731769 12.471352 15.101562 12.914062 C15.471356 13.356773 15.656250 13.895830 15.656250 14.531250 C15.656250 15.156253 15.471356 15.695310 15.101562 16.148438 C14.731769 16.601565 14.286461 16.828125 13.765625 16.828125 Z M18.359375 18.453125 C17.973956 18.453125 17.611981 18.315106 17.273438 18.039062 C16.934894 17.763019 16.765625 17.468752 16.765625 17.156250 C16.765625 16.729165 17.296870 16.515625 18.359375 16.515625 C19.421880 16.515625 19.953125 16.729165 19.953125 17.156250 C19.953125 17.479168 19.783856 17.776040 19.445312 18.046875 C19.106769 18.317710 18.744794 18.453125 18.359375 18.453125 Z M18.359375 27.765625 C16.213531 27.765625 14.315112 27.476565 12.664062 26.898438 C11.013013 26.320310 9.723963 25.515630 8.796875 24.484375 C7.869787 23.453120 7.406250 22.250007 7.406250 20.875000 C7.406250 20.281247 7.481770 19.739586 7.632812 19.250000 C7.783855 18.760414 7.942708 18.322919 8.109375 17.937500 C8.255209 17.583332 8.372395 17.265626 8.460938 16.984375 C8.549480 16.703124 8.593750 16.411460 8.593750 16.109375 C8.593750 15.838540 8.559896 15.546877 8.492188 15.234375 C8.424479 14.921873 8.338542 14.578127 8.234375 14.203125 C8.130208 13.796873 8.026042 13.367190 7.921875 12.914062 C7.817708 12.460935 7.765625 12.010419 7.765625 11.562500 C7.765625 10.687496 7.984373 9.893233 8.421875 9.179688 C8.859377 8.466142 9.442705 7.895835 10.171875 7.468750 C10.901045 7.041665 11.703121 6.828125 12.578125 6.828125 C13.328129 6.828125 14.013018 6.963540 14.632812 7.234375 C15.252607 7.505210 15.802081 7.776040 16.281250 8.046875 C16.843753 8.369793 17.270832 8.583333 17.562500 8.687500 C17.854168 8.791667 18.119790 8.843750 18.359375 8.843750 C18.598960 8.843750 18.861978 8.789063 19.148438 8.679688 C19.434897 8.570312 19.859372 8.359377 20.421875 8.046875 C20.911461 7.776040 21.466143 7.505210 22.085938 7.234375 C22.705732 6.963540 23.390621 6.828125 24.140625 6.828125 C25.015629 6.828125 25.817705 7.041665 26.546875 7.468750 C27.276045 7.895835 27.859373 8.466142 28.296875 9.179688 C28.734377 9.893233 28.953125 10.687496 28.953125 11.562500 C28.953125 12.010419 28.903646 12.460935 28.804688 12.914062 C28.705729 13.367190 28.598959 13.796873 28.484375 14.203125 C28.380208 14.578127 28.294271 14.921873 28.226562 15.234375 C28.158854 15.546877 28.125000 15.838540 28.125000 16.109375 C28.125000 16.411460 28.169270 16.703124 28.257812 16.984375 C28.346355 17.265626 28.463541 17.583332 28.609375 17.937500 C28.776042 18.322919 28.934895 18.760414 29.085938 19.250000 C29.236980 19.739586 29.312500 20.281247 29.312500 20.875000 C29.312500 22.250007 28.848963 23.453120 27.921875 24.484375 C26.994787 25.515630 25.708342 26.320310 24.062500 26.898438 C22.416658 27.476565 20.515636 27.765625 18.359375 27.765625 Z M18.359375 26.125000 C20.223968 26.125000 21.846347 25.903648 23.226562 25.460938 C24.606778 25.018227 25.679684 24.403650 26.445312 23.617188 C27.210941 22.830725 27.593750 21.916672 27.593750 20.875000 C27.593750 20.427081 27.539063 20.020835 27.429688 19.656250 C27.320312 19.291665 27.182292 18.916669 27.015625 18.531250 C26.869791 18.177082 26.731771 17.796877 26.601562 17.390625 C26.471354 16.984373 26.406250 16.557294 26.406250 16.109375 C26.406250 15.734373 26.450520 15.348960 26.539062 14.953125 C26.627605 14.557290 26.723958 14.171877 26.828125 13.796875 C26.942709 13.390623 27.039062 13.002606 27.117188 12.632812 C27.195313 12.263019 27.234375 11.906252 27.234375 11.562500 C27.234375 10.687496 26.937503 9.953128 26.343750 9.359375 C25.749997 8.765622 25.015629 8.468750 24.140625 8.468750 C23.588539 8.468750 23.078127 8.570311 22.609375 8.773438 C22.140623 8.976564 21.661461 9.218749 21.171875 9.500000 C20.765623 9.729168 20.325523 9.950520 19.851562 10.164062 C19.377602 10.377605 18.880211 10.484375 18.359375 10.484375 C17.848956 10.484375 17.356773 10.380209 16.882812 10.171875 C16.408852 9.963541 15.958335 9.739585 15.531250 9.500000 C15.041664 9.218749 14.565106 8.976564 14.101562 8.773438 C13.638019 8.570311 13.130211 8.468750 12.578125 8.468750 C11.703121 8.468750 10.968753 8.765622 10.375000 9.359375 C9.781247 9.953128 9.484375 10.687496 9.484375 11.562500 C9.484375 11.906252 9.526041 12.263019 9.609375 12.632812 C9.692709 13.002606 9.786458 13.390623 9.890625 13.796875 C9.994792 14.171877 10.091145 14.557290 10.179688 14.953125 C10.268230 15.348960 10.312500 15.734373 10.312500 16.109375 C10.312500 16.557294 10.247396 16.984373 10.117188 17.390625 C9.986979 17.796877 9.848959 18.177082 9.703125 18.531250 C9.536458 18.916669 9.398438 19.291665 9.289062 19.656250 C9.179687 20.020835 9.125000 20.427081 9.125000 20.875000 C9.125000 21.916672 9.507809 22.830725 10.273438 23.617188 C11.039066 24.403650 12.114576 25.018227 13.500000 25.460938 C14.885424 25.903648 16.505199 26.125000 18.359375 26.125000 Z M18.359375 29.531250 C21.755225 29.531250 24.572905 28.807299 26.812500 27.359375 C29.052095 25.911451 30.520830 23.822930 31.218750 21.093750 C32.427089 20.864582 33.346351 20.343754 33.976562 19.531250 C34.606774 18.718746 34.921875 17.796880 34.921875 16.765625 C34.921875 15.744787 34.627607 14.856775 34.039062 14.101562 C33.450518 13.346350 32.645838 12.968750 31.625000 12.968750 C31.552083 12.968750 31.471355 12.971354 31.382812 12.976562 C31.294270 12.981771 31.208334 12.989583 31.125000 13.000000 C30.604164 10.604155 29.744798 8.565113 28.546875 6.882812 C27.348952 5.200512 25.885425 3.919275 24.156250 3.039062 C22.427075 2.158850 20.494802 1.718750 18.359375 1.718750 C16.234364 1.718750 14.304696 2.158850 12.570312 3.039062 C10.835929 3.919275 9.369798 5.200512 8.171875 6.882812 C6.973952 8.565113 6.114586 10.604155 5.593750 13.000000 C5.510416 12.989583 5.427084 12.981771 5.343750 12.976562 C5.260416 12.971354 5.177084 12.968750 5.093750 12.968750 C4.072912 12.968750 3.268232 13.346350 2.679688 14.101562 C2.091143 14.856775 1.796875 15.744787 1.796875 16.765625 C1.796875 17.796880 2.111976 18.718746 2.742188 19.531250 C3.372399 20.343754 4.291661 20.864582 5.500000 21.093750 C6.197920 23.822930 7.669260 25.911451 9.914062 27.359375 C12.158865 28.807299 14.973941 29.531250 18.359375 29.531250 Z M22.953125 16.828125 C22.432289 16.828125 21.986981 16.601565 21.617188 16.148438 C21.247394 15.695310 21.062500 15.156253 21.062500 14.531250 C21.062500 13.895830 21.247394 13.356773 21.617188 12.914062 C21.986981 12.471352 22.432289 12.250000 22.953125 12.250000 C23.473961 12.250000 23.919269 12.471352 24.289062 12.914062 C24.658856 13.356773 24.843750 13.895830 24.843750 14.531250 C24.843750 15.156253 24.658856 15.695310 24.289062 16.148438 C23.919269 16.601565 23.473961 16.828125 22.953125 16.828125 Z M31.484375 20.078125 C31.588542 19.567706 31.669271 19.054690 31.726562 18.539062 C31.783854 18.023435 31.812500 17.510419 31.812500 17.000000 C31.812500 16.479164 31.783854 15.960940 31.726562 15.445312 C31.669271 14.929685 31.593750 14.406253 31.500000 13.875000 C32.135420 13.875000 32.656248 14.158851 33.062500 14.726562 C33.468752 15.294274 33.671875 15.994788 33.671875 16.828125 C33.671875 17.651046 33.471356 18.367184 33.070312 18.976562 C32.669269 19.585941 32.140628 19.953124 31.484375 20.078125 Z M38.671875 26.562500" /></svg>