<svg version="1.1" xmlns="http://www.w3.org/2000/svg" style="fill:rgba(0,0,0,1.0)" width="256" height="256" viewBox="0 0 36.6875 32.8125"><path fill="rgb(255, 255, 255)" d="M11.625000 20.687500 C10.791662 20.687500 10.096357 20.513023 9.539062 20.164062 C8.981768 19.815102 8.473961 19.234379 8.015625 18.421875 L6.656250 16.015625 L3.265625 14.390625 C2.880206 14.203124 2.609376 14.031251 2.453125 13.875000 C2.296874 13.718749 2.218750 13.484377 2.218750 13.171875 C2.218750 12.463538 2.372394 11.596359 2.679688 10.570312 C2.986981 9.544266 3.382810 8.489589 3.867188 7.406250 C4.351565 6.322911 4.877601 5.330734 5.445312 4.429688 C6.013024 3.528641 6.552081 2.854169 7.062500 2.406250 C8.083338 1.510412 9.104162 0.885418 10.125000 0.531250 C11.145838 0.177082 12.270827 -0.000000 13.500000 -0.000000 L32.750000 -0.000000 L32.750000 20.687500 Z M1.984375 32.796875 L1.984375 29.328125 L0.000000 26.921875 L0.000000 16.390625 L8.593750 16.390625 L8.593750 18.109375 L1.875000 18.109375 L1.875000 26.250000 L3.859375 28.656250 L3.859375 31.078125 L7.171875 31.078125 L7.171875 28.578125 L10.062500 25.093750 L11.156250 26.703125 L9.046875 29.250000 L9.046875 32.796875 Z M1.234375 20.296875 L1.234375 19.046875 L13.312500 19.046875 L13.312500 20.296875 Z M1.031250 26.734375 L1.031250 25.015625 L31.968750 25.015625 L31.968750 26.734375 Z M5.453125 10.750000 C5.630209 10.750000 5.809895 10.648439 5.992188 10.445312 C6.174480 10.242186 6.265625 10.041668 6.265625 9.843750 C6.265625 9.697916 6.221355 9.593750 6.132812 9.531250 C6.044270 9.468750 5.958334 9.437500 5.875000 9.437500 C5.697916 9.437500 5.515626 9.536457 5.328125 9.734375 C5.140624 9.932293 5.046875 10.130207 5.046875 10.328125 C5.046875 10.432292 5.085937 10.528645 5.164062 10.617188 C5.242188 10.705730 5.338541 10.750000 5.453125 10.750000 Z M4.015625 11.468750 L4.703125 9.000000 C5.223961 9.000000 5.656248 8.955730 6.000000 8.867188 C6.343752 8.778645 6.658853 8.611980 6.945312 8.367188 C7.231772 8.122395 7.536457 7.776044 7.859375 7.328125 C8.317711 6.682288 8.739581 6.114586 9.125000 5.625000 C9.510419 5.135414 9.953122 4.614586 10.453125 4.062500 C10.526042 3.979166 10.546875 3.893230 10.515625 3.804688 C10.484375 3.716145 10.411459 3.671875 10.296875 3.671875 L7.656250 3.671875 L8.671875 2.734375 L12.671875 2.734375 C12.786459 2.734375 12.864583 2.799479 12.906250 2.929688 C12.947917 3.059896 12.921875 3.166666 12.828125 3.250000 C12.203122 3.812503 11.643232 4.367185 11.148438 4.914062 C10.653643 5.460940 10.156252 6.075517 9.656250 6.757812 C9.156248 7.440108 8.588545 8.270828 7.953125 9.250000 C7.557290 9.864586 7.161460 10.330728 6.765625 10.648438 C6.369790 10.966147 5.950523 11.182291 5.507812 11.296875 C5.065102 11.411459 4.567711 11.468750 4.015625 11.468750 Z M23.750000 32.812500 L23.750000 29.343750 L21.640625 26.687500 L22.843750 25.187500 L25.625000 28.687500 L25.625000 31.093750 L28.937500 31.093750 L28.937500 28.656250 L30.875000 26.296875 L30.875000 18.421875 L32.750000 18.421875 L32.750000 26.968750 L30.812500 29.328125 L30.812500 32.812500 Z M9.921875 14.656250 C8.776036 14.656250 7.786462 14.619792 6.953125 14.546875 C6.119788 14.473958 5.359378 14.356772 4.671875 14.195312 C3.984372 14.033853 3.281254 13.822918 2.562500 13.562500 L2.390625 12.468750 L6.953125 12.468750 C8.088547 12.468750 8.979163 12.252606 9.625000 11.820312 C10.270837 11.388019 10.796873 10.718755 11.203125 9.812500 L14.656250 9.812500 C14.593750 10.093751 14.562500 10.364582 14.562500 10.625000 C14.562500 11.197920 14.742186 11.648436 15.101562 11.976562 C15.460939 12.304689 16.036454 12.468750 16.828125 12.468750 L31.687500 12.468750 L31.687500 14.656250 Z M12.562500 8.718750 L14.750000 8.718750 C14.927084 8.718750 15.078124 8.656251 15.203125 8.531250 C15.328126 8.406249 15.390625 8.255209 15.390625 8.078125 L15.390625 4.968750 C15.390625 4.781249 15.328126 4.687500 15.203125 4.687500 C15.036458 4.687500 14.789064 4.841144 14.460938 5.148438 C14.132811 5.455731 13.794273 5.828123 13.445312 6.265625 C13.096352 6.703127 12.802085 7.117186 12.562500 7.507812 C12.322915 7.898439 12.203125 8.182291 12.203125 8.359375 C12.203125 8.598960 12.322915 8.718750 12.562500 8.718750 Z M11.468750 18.968750 L30.875000 18.968750 L30.875000 1.718750 L13.500000 1.718750 C12.427078 1.718750 11.479171 1.888019 10.656250 2.226562 C9.833329 2.565106 9.020837 3.088538 8.218750 3.796875 C7.843748 4.119793 7.447919 4.614580 7.031250 5.281250 C6.614581 5.947920 6.208335 6.703121 5.812500 7.546875 C5.416665 8.390629 5.070314 9.249996 4.773438 10.125000 C4.476561 11.000004 4.265626 11.802080 4.140625 12.531250 C4.130208 12.562500 4.122396 12.598958 4.117188 12.640625 C4.111979 12.682292 4.109375 12.713542 4.109375 12.734375 L7.781250 14.468750 L9.500000 17.500000 C9.812502 18.052086 10.111978 18.434895 10.398438 18.648438 C10.684897 18.861980 11.041665 18.968750 11.468750 18.968750 Z M17.281250 8.718750 L20.781250 8.718750 C20.958334 8.718750 21.109374 8.656251 21.234375 8.531250 C21.359376 8.406249 21.421875 8.255209 21.421875 8.078125 L21.421875 5.328125 C21.421875 5.151041 21.359376 5.000001 21.234375 4.875000 C21.109374 4.749999 20.958334 4.687500 20.781250 4.687500 L17.281250 4.687500 C17.104166 4.687500 16.953126 4.749999 16.828125 4.875000 C16.703124 5.000001 16.640625 5.151041 16.640625 5.328125 L16.640625 8.078125 C16.640625 8.255209 16.703124 8.406249 16.828125 8.531250 C16.953126 8.656251 17.104166 8.718750 17.281250 8.718750 Z M11.265625 9.968750 C11.078124 9.968750 10.901042 9.921875 10.734375 9.828125 C10.567708 9.734375 10.484375 9.572918 10.484375 9.343750 C10.484375 9.072915 10.593749 8.697919 10.812500 8.218750 C11.031251 7.739581 11.320311 7.226565 11.679688 6.679688 C12.039064 6.132810 12.434894 5.611982 12.867188 5.117188 C13.299481 4.622393 13.731769 4.218752 14.164062 3.906250 C14.596356 3.593748 14.989582 3.437500 15.343750 3.437500 L31.640625 3.437500 L31.640625 9.968750 Z M23.312500 8.718750 L26.812500 8.718750 C26.989584 8.718750 27.140624 8.656251 27.265625 8.531250 C27.390626 8.406249 27.453125 8.255209 27.453125 8.078125 L27.453125 5.328125 C27.453125 5.151041 27.390626 5.000001 27.265625 4.875000 C27.140624 4.749999 26.989584 4.687500 26.812500 4.687500 L23.312500 4.687500 C23.135416 4.687500 22.984376 4.749999 22.859375 4.875000 C22.734374 5.000001 22.671875 5.151041 22.671875 5.328125 L22.671875 8.078125 C22.671875 8.255209 22.734374 8.406249 22.859375 8.531250 C22.984376 8.656251 23.135416 8.718750 23.312500 8.718750 Z M29.343750 8.718750 L31.265625 8.718750 L31.265625 4.687500 L29.343750 4.687500 C29.166666 4.687500 29.015626 4.749999 28.890625 4.875000 C28.765624 5.000001 28.703125 5.151041 28.703125 5.328125 L28.703125 8.078125 C28.703125 8.255209 28.765624 8.406249 28.890625 8.531250 C29.015626 8.656251 29.166666 8.718750 29.343750 8.718750 Z M36.687500 27.343750" /></svg>