<svg version="1.1" xmlns="http://www.w3.org/2000/svg" style="fill:rgba(0,0,0,1.0)" width="256" height="256" viewBox="0 0 36.25 32.8125"><path fill="rgb(255, 255, 255)" d="M3.531250 27.046875 C2.802080 27.046875 2.223960 26.757815 1.796875 26.179688 C1.369790 25.601560 1.104167 24.989587 1.000000 24.343750 C0.812499 23.104160 0.643230 21.708341 0.492188 20.156250 C0.341145 18.604159 0.221355 17.039070 0.132812 15.460938 C0.044270 13.882805 0.000000 12.453131 0.000000 11.171875 C0.000000 10.265620 0.273435 9.497399 0.820312 8.867188 C1.367190 8.236976 2.145828 7.781251 3.156250 7.500000 L3.187500 7.093750 C3.291667 5.812494 3.773433 4.783858 4.632812 4.007812 C5.492192 3.231767 6.578118 2.843750 7.890625 2.843750 C7.973959 2.843750 8.059895 2.846354 8.148438 2.851562 C8.236980 2.856771 8.322916 2.864583 8.406250 2.875000 C8.520834 2.062496 8.986975 1.380211 9.804688 0.828125 C10.622400 0.276039 11.583328 -0.000000 12.687500 -0.000000 C13.354170 -0.000000 13.973955 0.106770 14.546875 0.320312 C15.119795 0.533855 15.583332 0.822915 15.937500 1.187500 C16.302085 0.822915 16.768226 0.533855 17.335938 0.320312 C17.903649 0.106770 18.520830 -0.000000 19.187500 -0.000000 C20.302089 -0.000000 21.265621 0.276039 22.078125 0.828125 C22.890629 1.380211 23.354166 2.062496 23.468750 2.875000 C23.552084 2.864583 23.638020 2.856771 23.726562 2.851562 C23.815105 2.846354 23.901041 2.843750 23.984375 2.843750 C25.296882 2.843750 26.382808 3.231767 27.242188 4.007812 C28.101567 4.783858 28.583333 5.812494 28.687500 7.093750 L28.718750 7.500000 C29.739588 7.781251 30.520831 8.236976 31.062500 8.867188 C31.604169 9.497399 31.875000 10.265620 31.875000 11.171875 C31.875000 12.453131 31.830730 13.882805 31.742188 15.460938 C31.653645 17.039070 31.536459 18.604159 31.390625 20.156250 C31.244791 21.708341 31.072918 23.104160 30.875000 24.343750 C30.770833 24.989587 30.505210 25.601560 30.078125 26.179688 C29.651040 26.757815 29.072920 27.046875 28.343750 27.046875 L27.343750 27.046875 L27.406250 25.203125 L28.656250 25.203125 C28.875001 25.203125 29.041666 25.098959 29.156250 24.890625 C29.270834 24.682291 29.343750 24.473959 29.375000 24.265625 C29.520834 23.328120 29.651041 22.338547 29.765625 21.296875 C29.880209 20.255203 29.979166 19.192714 30.062500 18.109375 C30.145834 17.026036 30.213541 15.958339 30.265625 14.906250 C30.119791 15.041667 29.966147 15.169270 29.804688 15.289062 C29.643228 15.408855 29.473959 15.520833 29.296875 15.625000 C29.296875 15.666667 29.296875 15.708333 29.296875 15.750000 C29.296875 15.791667 29.296875 15.833333 29.296875 15.875000 C29.296875 17.041672 28.958337 18.002600 28.281250 18.757812 C27.604163 19.513025 26.630215 19.890625 25.359375 19.890625 C25.098957 19.890625 24.820314 19.869792 24.523438 19.828125 C24.226561 19.786458 23.916668 19.729167 23.593750 19.656250 C23.145831 20.604171 22.585941 21.328122 21.914062 21.828125 C21.242184 22.328128 20.401047 22.578125 19.390625 22.578125 C18.536454 22.578125 17.822920 22.419272 17.250000 22.101562 C16.677080 21.783853 16.239585 21.421877 15.937500 21.015625 C15.645832 21.421877 15.213545 21.783853 14.640625 22.101562 C14.067705 22.419272 13.348963 22.578125 12.484375 22.578125 C11.473953 22.578125 10.632816 22.328128 9.960938 21.828125 C9.289059 21.328122 8.729169 20.604171 8.281250 19.656250 C7.958332 19.729167 7.651043 19.786458 7.359375 19.828125 C7.067707 19.869792 6.786460 19.890625 6.515625 19.890625 C5.255202 19.890625 4.283858 19.513025 3.601562 18.757812 C2.919267 18.002600 2.578125 17.041672 2.578125 15.875000 C2.578125 15.833333 2.578125 15.791667 2.578125 15.750000 C2.578125 15.708333 2.578125 15.666667 2.578125 15.625000 C2.411458 15.520833 2.244792 15.408855 2.078125 15.289062 C1.911458 15.169270 1.755209 15.041667 1.609375 14.906250 C1.661459 15.958339 1.729166 17.026036 1.812500 18.109375 C1.895834 19.192714 1.997395 20.255203 2.117188 21.296875 C2.236980 22.338547 2.364583 23.328120 2.500000 24.265625 C2.531250 24.473959 2.604166 24.682291 2.718750 24.890625 C2.833334 25.098959 2.999999 25.203125 3.218750 25.203125 L4.468750 25.203125 L4.531250 27.046875 Z M15.000000 30.906250 L15.000000 20.265625 L16.875000 20.265625 L16.875000 30.906250 Z M12.718750 32.812500 C11.677078 32.812500 10.789066 32.593752 10.054688 32.156250 C9.320309 31.718748 8.786460 31.156253 8.453125 30.468750 C8.390625 30.479167 8.325521 30.486979 8.257812 30.492188 C8.190104 30.497396 8.119792 30.500000 8.046875 30.500000 C6.671868 30.500000 5.617191 30.148441 4.882812 29.445312 C4.148434 28.742184 3.687501 27.697924 3.500000 26.312500 C3.281249 24.666658 3.104167 23.002613 2.968750 21.320312 C2.833333 19.638012 2.739584 18.088549 2.687500 16.671875 L4.281250 17.140625 C4.322917 18.151047 4.388020 19.218744 4.476562 20.343750 C4.565105 21.468756 4.664062 22.549474 4.773438 23.585938 C4.882813 24.622401 4.984375 25.515621 5.078125 26.265625 C5.213542 27.255213 5.544268 27.947915 6.070312 28.343750 C6.596357 28.739585 7.255204 28.937500 8.046875 28.937500 L8.875000 28.937500 L8.015625 29.406250 C7.880208 28.354161 7.763021 27.200527 7.664062 25.945312 C7.565104 24.690098 7.486979 23.429694 7.429688 22.164062 C7.372396 20.898431 7.343750 19.744797 7.343750 18.703125 L9.109375 18.703125 C9.109375 19.661463 9.130208 20.731765 9.171875 21.914062 C9.213542 23.096360 9.278645 24.265619 9.367188 25.421875 C9.455730 26.578131 9.557291 27.609370 9.671875 28.515625 C9.796876 29.453130 10.161455 30.143227 10.765625 30.585938 C11.369795 31.028648 12.020830 31.250000 12.718750 31.250000 C13.458337 31.250000 14.111976 31.111981 14.679688 30.835938 C15.247399 30.559894 15.666665 30.203127 15.937500 29.765625 C16.208335 30.203127 16.630205 30.559894 17.203125 30.835938 C17.776045 31.111981 18.427080 31.250000 19.156250 31.250000 C19.864587 31.250000 20.518226 31.028648 21.117188 30.585938 C21.716149 30.143227 22.078124 29.453130 22.203125 28.515625 C22.328126 27.609370 22.432291 26.578131 22.515625 25.421875 C22.598959 24.265619 22.661458 23.096360 22.703125 21.914062 C22.744792 20.731765 22.765625 19.661463 22.765625 18.703125 L24.531250 18.703125 C24.531250 19.744797 24.502604 20.898431 24.445312 22.164062 C24.388021 23.429694 24.309896 24.690098 24.210938 25.945312 C24.111979 27.200527 23.994792 28.354161 23.859375 29.406250 L23.000000 28.937500 L23.828125 28.937500 C24.619796 28.937500 25.278643 28.739585 25.804688 28.343750 C26.330732 27.947915 26.661458 27.255213 26.796875 26.265625 C26.901042 25.515621 27.005208 24.622401 27.109375 23.585938 C27.213542 22.549474 27.309895 21.468756 27.398438 20.343750 C27.486980 19.218744 27.552083 18.151047 27.593750 17.140625 L29.187500 16.671875 C29.135416 18.088549 29.041667 19.638012 28.906250 21.320312 C28.770833 23.002613 28.593751 24.661450 28.375000 26.296875 C28.187499 27.682299 27.723962 28.729163 26.984375 29.437500 C26.244788 30.145837 25.192715 30.500000 23.828125 30.500000 C23.755208 30.500000 23.684896 30.497396 23.617188 30.492188 C23.549479 30.486979 23.484375 30.479167 23.421875 30.468750 C23.088540 31.156253 22.554691 31.718748 21.820312 32.156250 C21.085934 32.593752 20.197922 32.812500 19.156250 32.812500 C18.489580 32.812500 17.877607 32.721355 17.320312 32.539062 C16.763018 32.356770 16.302085 32.114585 15.937500 31.812500 C15.583332 32.114585 15.125003 32.356770 14.562500 32.539062 C13.999997 32.721355 13.385420 32.812500 12.718750 32.812500 Z M4.609375 12.906250 C4.182290 12.906250 3.817710 12.755210 3.515625 12.453125 C3.213540 12.151040 3.062500 11.786460 3.062500 11.359375 C3.062500 10.932290 3.213540 10.570314 3.515625 10.273438 C3.817710 9.976561 4.182290 9.828125 4.609375 9.828125 C5.036460 9.828125 5.401040 9.976561 5.703125 10.273438 C6.005210 10.570314 6.156250 10.932290 6.156250 11.359375 C6.156250 11.786460 6.005210 12.151040 5.703125 12.453125 C5.401040 12.755210 5.036460 12.906250 4.609375 12.906250 Z M7.562500 16.703125 C6.906247 16.703125 6.411460 16.539064 6.078125 16.210938 C5.744790 15.882811 5.578125 15.463544 5.578125 14.953125 C5.578125 14.182288 5.960934 13.593752 6.726562 13.187500 C7.492191 12.781248 8.458328 12.578125 9.625000 12.578125 L10.765625 14.812500 C10.442707 15.322919 10.000003 15.765623 9.437500 16.140625 C8.874997 16.515627 8.250003 16.703125 7.562500 16.703125 Z M12.359375 19.109375 C11.807289 19.109375 11.351564 18.960939 10.992188 18.664062 C10.632811 18.367186 10.453125 17.958336 10.453125 17.437500 C10.453125 17.072915 10.526041 16.731772 10.671875 16.414062 C10.817709 16.096353 11.067707 15.838543 11.421875 15.640625 L15.046875 17.046875 C14.734373 17.796879 14.348961 18.328123 13.890625 18.640625 C13.432289 18.953127 12.921878 19.109375 12.359375 19.109375 Z M12.765625 13.359375 C12.463540 13.494792 12.127606 13.528646 11.757812 13.460938 C11.388019 13.393229 11.125001 13.140627 10.968750 12.703125 C10.802083 12.244789 10.828124 11.864585 11.046875 11.562500 C11.265626 11.260415 11.526040 11.052084 11.828125 10.937500 C12.276044 10.760416 12.768226 10.749999 13.304688 10.906250 C13.841149 11.062501 14.239582 11.197916 14.500000 11.312500 C14.395833 11.572918 14.192710 11.927081 13.890625 12.375000 C13.588540 12.822919 13.213544 13.151041 12.765625 13.359375 Z M9.937500 9.515625 C8.906245 9.515625 8.052087 9.325523 7.375000 8.945312 C6.697913 8.565102 6.359375 8.015629 6.359375 7.296875 C6.359375 6.786456 6.526040 6.367189 6.859375 6.039062 C7.192710 5.710936 7.687497 5.546875 8.343750 5.546875 C8.927086 5.546875 9.460935 5.731769 9.945312 6.101562 C10.429690 6.471356 10.807290 6.916664 11.078125 7.437500 Z M19.515625 19.109375 C18.953122 19.109375 18.442711 18.953127 17.984375 18.640625 C17.526039 18.328123 17.140627 17.796879 16.828125 17.046875 L20.453125 15.640625 C20.817710 15.838543 21.070312 16.096353 21.210938 16.414062 C21.351563 16.731772 21.421875 17.072915 21.421875 17.437500 C21.421875 17.958336 21.242189 18.367186 20.882812 18.664062 C20.523436 18.960939 20.067711 19.109375 19.515625 19.109375 Z M15.937500 15.750000 C15.427081 15.750000 15.065105 15.598960 14.851562 15.296875 C14.638020 14.994790 14.531250 14.682293 14.531250 14.359375 C14.531250 13.838539 14.708332 13.346356 15.062500 12.882812 C15.416668 12.419269 15.708332 12.088543 15.937500 11.890625 C16.177085 12.088543 16.471352 12.419269 16.820312 12.882812 C17.169273 13.346356 17.343750 13.838539 17.343750 14.359375 C17.343750 14.682293 17.239584 14.994790 17.031250 15.296875 C16.822916 15.598960 16.458336 15.750000 15.937500 15.750000 Z M12.578125 9.734375 C12.359374 9.651041 12.179688 9.494793 12.039062 9.265625 C11.898437 9.036457 11.895833 8.770835 12.031250 8.468750 C12.166667 8.166665 12.361978 7.989584 12.617188 7.937500 C12.872397 7.885416 13.104166 7.911458 13.312500 8.015625 C13.635418 8.171876 13.903645 8.427082 14.117188 8.781250 C14.330730 9.135418 14.473958 9.411457 14.546875 9.609375 C14.359374 9.682292 14.070314 9.752604 13.679688 9.820312 C13.289061 9.888021 12.921877 9.859376 12.578125 9.734375 Z M15.937500 17.953125 C14.479159 17.953125 13.182297 17.666670 12.046875 17.093750 C10.911453 16.520830 10.018232 15.734380 9.367188 14.734375 C8.716143 13.734370 8.390625 12.604173 8.390625 11.343750 C8.390625 10.083327 8.716143 8.958338 9.367188 7.968750 C10.018232 6.979162 10.911453 6.197920 12.046875 5.625000 C13.182297 5.052080 14.479159 4.765625 15.937500 4.765625 C17.395841 4.765625 18.692703 5.052080 19.828125 5.625000 C20.963547 6.197920 21.856768 6.979162 22.507812 7.968750 C23.158857 8.958338 23.484375 10.083327 23.484375 11.343750 C23.484375 12.604173 23.158857 13.734370 22.507812 14.734375 C21.856768 15.734380 20.963547 16.520830 19.828125 17.093750 C18.692703 17.666670 17.395841 17.953125 15.937500 17.953125 Z M15.937500 16.359375 C17.093756 16.359375 18.114579 16.143231 19.000000 15.710938 C19.885421 15.278644 20.575518 14.682295 21.070312 13.921875 C21.565107 13.161455 21.812500 12.302088 21.812500 11.343750 C21.812500 10.374995 21.565107 9.515629 21.070312 8.765625 C20.575518 8.015621 19.885421 7.424481 19.000000 6.992188 C18.114579 6.559894 17.093756 6.343750 15.937500 6.343750 C14.781244 6.343750 13.763025 6.559894 12.882812 6.992188 C12.002600 7.424481 11.312502 8.015621 10.812500 8.765625 C10.312498 9.515629 10.062500 10.374995 10.062500 11.343750 C10.062500 12.302088 10.312498 13.161455 10.812500 13.921875 C11.312502 14.682295 12.002600 15.278644 12.882812 15.710938 C13.763025 16.143231 14.781244 16.359375 15.937500 16.359375 Z M12.484375 20.890625 C13.255212 20.890625 13.934893 20.718752 14.523438 20.375000 C15.111982 20.031248 15.583332 19.588544 15.937500 19.046875 C16.291668 19.588544 16.763018 20.031248 17.351562 20.375000 C17.940107 20.718752 18.619788 20.890625 19.390625 20.890625 C20.161462 20.890625 20.843747 20.671877 21.437500 20.234375 C22.031253 19.796873 22.473957 19.093755 22.765625 18.125000 C23.151044 18.229167 23.518227 18.307291 23.867188 18.359375 C24.216148 18.411459 24.546873 18.437500 24.859375 18.437500 C25.765630 18.437500 26.481768 18.205731 27.007812 17.742188 C27.533857 17.278644 27.796875 16.578130 27.796875 15.640625 C27.796875 15.338540 27.765625 15.015627 27.703125 14.671875 C28.401045 14.390624 29.005206 13.968753 29.515625 13.406250 C30.026044 12.843747 30.281250 12.135421 30.281250 11.281250 C30.281250 10.541663 30.072919 9.984377 29.656250 9.609375 C29.239581 9.234373 28.645837 8.979167 27.875000 8.843750 L27.187500 8.718750 L27.093750 7.406250 C27.031250 6.489579 26.705732 5.752607 26.117188 5.195312 C25.528643 4.638018 24.744797 4.359375 23.765625 4.359375 C23.536457 4.359375 23.302085 4.375000 23.062500 4.406250 C22.822915 4.437500 22.458336 4.515624 21.968750 4.640625 C22.000000 4.526041 22.020833 4.414063 22.031250 4.304688 C22.041667 4.195312 22.046875 4.088542 22.046875 3.984375 C22.046875 3.276038 21.776044 2.695315 21.234375 2.242188 C20.692706 1.789060 20.010421 1.562500 19.187500 1.562500 C18.479163 1.562500 17.843753 1.734373 17.281250 2.078125 C16.718747 2.421877 16.270835 2.869789 15.937500 3.421875 C15.614582 2.869789 15.169274 2.421877 14.601562 2.078125 C14.033851 1.734373 13.395837 1.562500 12.687500 1.562500 C11.864579 1.562500 11.182294 1.789060 10.640625 2.242188 C10.098956 2.695315 9.828125 3.276038 9.828125 3.984375 C9.828125 4.088542 9.833333 4.195312 9.843750 4.304688 C9.854167 4.414063 9.875000 4.526041 9.906250 4.640625 C9.416664 4.515624 9.054689 4.437500 8.820312 4.406250 C8.585936 4.375000 8.348960 4.359375 8.109375 4.359375 C7.130203 4.359375 6.346357 4.638018 5.757812 5.195312 C5.169268 5.752607 4.843750 6.489579 4.781250 7.406250 L4.687500 8.718750 L4.000000 8.843750 C3.229163 8.979167 2.635419 9.234373 2.218750 9.609375 C1.802081 9.984377 1.593750 10.541663 1.593750 11.281250 C1.593750 12.135421 1.848956 12.843747 2.359375 13.406250 C2.869794 13.968753 3.473955 14.390624 4.171875 14.671875 C4.109375 15.015627 4.078125 15.338540 4.078125 15.640625 C4.078125 16.578130 4.341143 17.278644 4.867188 17.742188 C5.393232 18.205731 6.109370 18.437500 7.015625 18.437500 C7.328127 18.437500 7.658852 18.411459 8.007812 18.359375 C8.356773 18.307291 8.723956 18.229167 9.109375 18.125000 C9.411460 19.093755 9.856768 19.796873 10.445312 20.234375 C11.033857 20.671877 11.713538 20.890625 12.484375 20.890625 Z M15.937500 11.484375 C15.562498 11.484375 15.255210 11.382814 15.015625 11.179688 C14.776040 10.976561 14.656250 10.713543 14.656250 10.390625 C14.656250 10.078123 14.776040 9.817709 15.015625 9.609375 C15.255210 9.401041 15.562498 9.296875 15.937500 9.296875 C16.312502 9.296875 16.619790 9.401041 16.859375 9.609375 C17.098960 9.817709 17.218750 10.078123 17.218750 10.390625 C17.218750 10.713543 17.098960 10.976561 16.859375 11.179688 C16.619790 11.382814 16.312502 11.484375 15.937500 11.484375 Z M19.109375 13.359375 C18.661456 13.151041 18.289064 12.822919 17.992188 12.375000 C17.695311 11.927081 17.489584 11.572918 17.375000 11.312500 C17.645835 11.197916 18.046872 11.062501 18.578125 10.906250 C19.109378 10.749999 19.598956 10.760416 20.046875 10.937500 C20.348960 11.052084 20.609374 11.260415 20.828125 11.562500 C21.046876 11.864585 21.072918 12.244789 20.906250 12.703125 C20.749999 13.140627 20.486981 13.393229 20.117188 13.460938 C19.747394 13.528646 19.411460 13.494792 19.109375 13.359375 Z M15.937500 8.953125 C15.770832 8.859375 15.554689 8.690105 15.289062 8.445312 C15.023436 8.200520 14.890625 7.953126 14.890625 7.703125 C14.890625 7.494791 14.971353 7.296876 15.132812 7.109375 C15.294272 6.921874 15.562498 6.828125 15.937500 6.828125 C16.312502 6.828125 16.583332 6.921874 16.750000 7.109375 C16.916668 7.296876 17.000000 7.494791 17.000000 7.703125 C17.000000 7.953126 16.864585 8.200520 16.593750 8.445312 C16.322915 8.690105 16.104168 8.859375 15.937500 8.953125 Z M11.890625 6.609375 C11.536457 6.380207 11.286459 6.093752 11.140625 5.750000 C10.994791 5.406248 10.921875 5.031252 10.921875 4.625000 C10.921875 4.041664 11.101561 3.585939 11.460938 3.257812 C11.820314 2.929686 12.276039 2.765625 12.828125 2.765625 C13.390628 2.765625 13.882810 2.916665 14.304688 3.218750 C14.726565 3.520835 15.130206 4.130204 15.515625 5.046875 Z M24.312500 16.703125 C23.624997 16.703125 23.000003 16.515627 22.437500 16.140625 C21.874997 15.765623 21.432293 15.322919 21.109375 14.812500 L22.250000 12.578125 C23.416672 12.578125 24.382809 12.781248 25.148438 13.187500 C25.914066 13.593752 26.296875 14.182288 26.296875 14.953125 C26.296875 15.463544 26.130210 15.882811 25.796875 16.210938 C25.463540 16.539064 24.968753 16.703125 24.312500 16.703125 Z M19.296875 9.734375 C18.953123 9.859376 18.585939 9.888021 18.195312 9.820312 C17.804686 9.752604 17.515626 9.682292 17.328125 9.609375 C17.411459 9.411457 17.557291 9.132814 17.765625 8.773438 C17.973959 8.414061 18.239582 8.161459 18.562500 8.015625 C18.770834 7.921875 19.002603 7.898437 19.257812 7.945312 C19.513022 7.992188 19.708333 8.166665 19.843750 8.468750 C19.989584 8.770835 19.989584 9.036457 19.843750 9.265625 C19.697916 9.494793 19.515626 9.651041 19.296875 9.734375 Z M19.984375 6.609375 L16.359375 5.046875 C16.755210 4.130204 17.161456 3.520835 17.578125 3.218750 C17.994794 2.916665 18.484372 2.765625 19.046875 2.765625 C19.598961 2.765625 20.054686 2.929686 20.414062 3.257812 C20.773439 3.585939 20.953125 4.041664 20.953125 4.625000 C20.953125 5.031252 20.882813 5.406248 20.742188 5.750000 C20.601562 6.093752 20.348960 6.380207 19.984375 6.609375 Z M21.937500 9.515625 L20.796875 7.437500 C21.067710 6.916664 21.445310 6.471356 21.929688 6.101562 C22.414065 5.731769 22.947914 5.546875 23.531250 5.546875 C24.187503 5.546875 24.682290 5.710936 25.015625 6.039062 C25.348960 6.367189 25.515625 6.786456 25.515625 7.296875 C25.515625 8.015629 25.177087 8.565102 24.500000 8.945312 C23.822913 9.325523 22.968755 9.515625 21.937500 9.515625 Z M27.265625 12.906250 C26.838540 12.906250 26.473960 12.755210 26.171875 12.453125 C25.869790 12.151040 25.718750 11.786460 25.718750 11.359375 C25.718750 10.932290 25.869790 10.570314 26.171875 10.273438 C26.473960 9.976561 26.838540 9.828125 27.265625 9.828125 C27.692710 9.828125 28.057290 9.976561 28.359375 10.273438 C28.661460 10.570314 28.812500 10.932290 28.812500 11.359375 C28.812500 11.786460 28.661460 12.151040 28.359375 12.453125 C28.057290 12.755210 27.692710 12.906250 27.265625 12.906250 Z M36.250000 27.343750" /></svg>