<svg version="1.1" xmlns="http://www.w3.org/2000/svg" style="fill:rgba(0,0,0,1.0)" width="256" height="256" viewBox="0 0 39.453125 23.4375"><path fill="rgb(255, 255, 255)" d="M36.781250 23.437500 L34.750000 22.343750 L34.656250 19.859375 L33.953125 19.828125 L32.812500 21.125000 L15.640625 21.125000 C13.734365 21.125000 12.088549 20.968752 10.703125 20.656250 C9.317701 20.343748 8.080735 19.825524 6.992188 19.101562 C5.903640 18.377601 4.843755 17.401048 3.812500 16.171875 C2.770828 14.921869 1.924482 13.679694 1.273438 12.445312 C0.622393 11.210931 0.296875 10.229170 0.296875 9.500000 L2.437500 9.500000 C5.281264 9.500000 8.177069 9.572916 11.125000 9.718750 C14.072931 9.864584 16.958319 10.072915 19.781250 10.343750 C22.604181 10.614585 25.260404 10.937498 27.750000 11.312500 C30.239596 11.687502 32.442699 12.104164 34.359375 12.562500 L34.484375 13.531250 C34.911460 13.406249 35.390622 13.343750 35.921875 13.343750 C36.609378 13.343750 37.174477 13.445311 37.617188 13.648438 C38.059898 13.851564 38.281250 14.114582 38.281250 14.437500 L38.281250 16.890625 L36.703125 19.234375 L38.125000 20.156250 L38.125000 21.156250 L36.781250 21.156250 Z M1.546875 10.296875 C1.359374 9.807289 1.221355 9.315107 1.132812 8.820312 C1.044270 8.325518 1.000000 7.791670 1.000000 7.218750 L2.265625 7.406250 C2.265625 7.833335 2.299479 8.252602 2.367188 8.664062 C2.434896 9.075523 2.552082 9.484373 2.718750 9.890625 Z M5.125000 10.765625 C4.937499 10.276039 4.799480 9.770836 4.710938 9.250000 C4.622395 8.729164 4.578125 8.208336 4.578125 7.687500 L5.828125 7.718750 C5.828125 8.145835 5.861979 8.565102 5.929688 8.976562 C5.997396 9.388023 6.114582 9.796873 6.281250 10.203125 Z M10.468750 8.687500 L0.000000 7.515625 L0.187500 6.125000 L10.656250 7.296875 Z M8.875000 10.921875 C8.687499 10.432289 8.549480 9.927086 8.460938 9.406250 C8.372395 8.885414 8.328125 8.364586 8.328125 7.843750 L9.578125 7.875000 C9.578125 8.302085 9.611979 8.721352 9.679688 9.132812 C9.747396 9.544273 9.864582 9.953123 10.031250 10.359375 Z M15.640625 19.406250 L32.343750 19.406250 L33.125000 18.546875 L34.187500 18.546875 C34.302084 18.546875 34.390625 18.468751 34.453125 18.312500 C34.515625 18.156249 34.546875 17.989584 34.546875 17.812500 C34.546875 17.624999 34.515625 17.453126 34.453125 17.296875 C34.390625 17.140624 34.302084 17.057292 34.187500 17.046875 L33.312500 16.984375 L32.875000 14.031250 C28.333311 13.124995 23.575546 12.434898 18.601562 11.960938 C13.627579 11.486977 8.484402 11.239583 3.171875 11.218750 L2.750000 11.218750 C3.020835 11.822920 3.346352 12.427080 3.726562 13.031250 C4.106773 13.635420 4.583330 14.281247 5.156250 14.968750 C6.093755 16.093756 7.036454 16.979163 7.984375 17.625000 C8.932296 18.270837 10.013015 18.729165 11.226562 19.000000 C12.440110 19.270835 13.911450 19.406250 15.640625 19.406250 Z M34.062500 16.578125 C30.072897 15.953122 26.328142 15.442710 22.828125 15.046875 C19.328108 14.651040 15.963558 14.359376 12.734375 14.171875 C9.505192 13.984374 6.291683 13.890625 3.093750 13.890625 L3.093750 12.640625 C6.322933 12.640625 9.565088 12.734374 12.820312 12.921875 C16.075537 13.109376 19.460920 13.401040 22.976562 13.796875 C26.492205 14.192710 30.249980 14.703122 34.250000 15.328125 Z M18.718750 11.421875 L17.359375 10.640625 L20.484375 4.578125 L22.234375 4.578125 Z M28.375000 12.453125 L25.812500 4.937500 L27.250000 5.890625 L20.765625 5.359375 L16.640625 5.359375 L17.546875 4.921875 L13.203125 11.343750 L11.843750 10.296875 L16.343750 3.640625 L20.843750 3.640625 L29.484375 4.375000 C29.786460 4.395833 29.937500 4.546874 29.937500 4.828125 C29.937500 5.151043 29.757814 5.427082 29.398438 5.656250 C29.039061 5.885418 28.567711 6.000000 27.984375 6.000000 L30.187500 12.453125 Z M22.296875 9.546875 C22.046874 9.578125 21.825522 9.502605 21.632812 9.320312 C21.440103 9.138020 21.401041 8.932293 21.515625 8.703125 L22.515625 6.750000 L25.187500 6.968750 L25.687500 8.562500 C25.739584 8.718751 25.721355 8.859374 25.632812 8.984375 C25.544270 9.109376 25.421876 9.182292 25.265625 9.203125 Z M20.375000 3.750000 L19.125000 3.687500 L19.234375 0.968750 L20.484375 1.031250 Z M17.546875 3.859375 L16.296875 3.765625 L16.437500 1.328125 C16.458333 0.953123 16.604165 0.638022 16.875000 0.382812 C17.145835 0.127603 17.468748 -0.000000 17.843750 -0.000000 C18.177085 -0.000000 18.828120 0.041666 19.796875 0.125000 L25.140625 0.562500 L25.046875 1.968750 L18.171875 1.421875 C18.036458 1.411458 17.916667 1.450520 17.812500 1.539062 C17.708333 1.627605 17.651042 1.744791 17.640625 1.890625 Z M23.187500 4.062500 L21.937500 4.000000 L22.046875 0.968750 L23.296875 1.031250 Z M39.453125 22.656250" /></svg>