<svg version="1.1" xmlns="http://www.w3.org/2000/svg" style="fill:rgba(0,0,0,1.0)" width="256" height="256" viewBox="0 0 38.125 32.8125"><path fill="rgb(255, 255, 255)" d="M20.718750 10.453125 L29.859375 23.703125 L33.843750 14.906250 L25.453125 2.265625 Z M10.765625 9.953125 L12.453125 9.953125 L14.437500 11.062500 L11.671875 13.125000 L11.671875 32.625000 L7.921875 32.625000 L7.921875 12.531250 L5.843750 8.671875 L9.500000 7.406250 Z M9.890625 11.265625 L8.796875 9.140625 L7.859375 9.468750 L9.328125 12.171875 L9.328125 31.218750 L10.265625 31.218750 L10.265625 12.421875 L11.687500 11.265625 Z M9.687500 9.703125 L19.343750 9.703125 L24.062500 1.562500 L9.328125 1.562500 L4.015625 9.703125 L7.250000 9.703125 L8.046875 11.265625 L4.078125 11.265625 L8.437500 17.531250 L8.437500 20.265625 L1.640625 10.500000 L8.484375 -0.000000 L25.828125 -0.000000 L35.625000 14.750000 L30.500000 26.046875 L20.031250 32.812500 L0.000000 32.812500 L8.656250 27.046875 L8.656250 31.859375 L10.890625 31.859375 L10.890625 21.031250 L12.984375 23.921875 L15.500000 23.921875 L14.671875 25.437500 L14.671875 30.250000 L24.234375 25.890625 L24.234375 23.906250 L27.906250 23.906250 L19.375000 11.265625 L12.078125 11.265625 Z M24.750000 20.500000 L24.750000 26.218750 L14.187500 30.859375 L14.187500 25.625000 L16.921875 20.437500 Z M23.812500 21.437500 L17.406250 21.375000 L15.125000 25.890625 L15.125000 29.421875 L23.812500 25.593750 Z M14.843750 26.671875 L14.468750 25.812500 L23.968750 21.281250 L24.343750 22.140625 Z M20.687500 25.296875 C20.395832 25.296875 20.148439 25.195314 19.945312 24.992188 C19.742186 24.789061 19.640625 24.541668 19.640625 24.250000 C19.640625 23.947915 19.742186 23.695314 19.945312 23.492188 C20.148439 23.289061 20.395832 23.187500 20.687500 23.187500 C20.968751 23.187500 21.213541 23.289061 21.421875 23.492188 C21.630209 23.695314 21.734375 23.947915 21.734375 24.250000 C21.734375 24.541668 21.630209 24.789061 21.421875 24.992188 C21.213541 25.195314 20.968751 25.296875 20.687500 25.296875 Z M18.265625 28.937500 C17.973957 28.937500 17.726564 28.835939 17.523438 28.632812 C17.320311 28.429686 17.218750 28.182293 17.218750 27.890625 C17.218750 27.588540 17.320311 27.335939 17.523438 27.132812 C17.726564 26.929686 17.973957 26.828125 18.265625 26.828125 C18.546876 26.828125 18.791666 26.929686 19.000000 27.132812 C19.208334 27.335939 19.312500 27.588540 19.312500 27.890625 C19.312500 28.182293 19.208334 28.429686 19.000000 28.632812 C18.791666 28.835939 18.546876 28.937500 18.265625 28.937500 Z M19.109375 22.687500 C18.817707 22.687500 18.570314 22.585939 18.367188 22.382812 C18.164061 22.179686 18.062500 21.932293 18.062500 21.640625 C18.062500 21.338540 18.164061 21.085939 18.367188 20.882812 C18.570314 20.679686 18.817707 20.578125 19.109375 20.578125 C19.390626 20.578125 19.635416 20.679686 19.843750 20.882812 C20.052084 21.085939 20.156250 21.338540 20.156250 21.640625 C20.156250 21.932293 20.052084 22.179686 19.843750 22.382812 C19.635416 22.585939 19.390626 22.687500 19.109375 22.687500 Z M13.406250 11.421875 L14.687500 10.546875 L18.109375 15.609375 L13.703125 24.828125 L12.296875 24.140625 L16.328125 15.734375 Z M19.953125 10.593750 L23.859375 16.484375 L17.203125 16.484375 L13.296875 10.593750 Z M38.125000 27.343750" /></svg>