<svg version="1.1" xmlns="http://www.w3.org/2000/svg" style="fill:rgba(0,0,0,1.0)" width="256" height="256" viewBox="0 0 37.1875 32.8125"><path fill="rgb(255, 255, 255)" d="M12.234375 18.218750 C10.973952 18.218750 9.794276 17.981773 8.695312 17.507812 C7.596349 17.033852 6.630212 16.380212 5.796875 15.546875 C4.963538 14.713538 4.309898 13.747401 3.835938 12.648438 C3.361977 11.549474 3.125000 10.369798 3.125000 9.109375 C3.125000 7.848952 3.361977 6.666672 3.835938 5.562500 C4.309898 4.458328 4.963538 3.489587 5.796875 2.656250 C6.630212 1.822913 7.596349 1.171877 8.695312 0.703125 C9.794276 0.234373 10.973952 -0.000000 12.234375 -0.000000 C13.494798 -0.000000 14.674474 0.236977 15.773438 0.710938 C16.872401 1.184898 17.838538 1.838538 18.671875 2.671875 C19.505212 3.505213 20.158852 4.471349 20.632812 5.570312 C21.106773 6.669276 21.343750 7.848952 21.343750 9.109375 C21.343750 10.369798 21.106773 11.552078 20.632812 12.656250 C20.158852 13.760422 19.505212 14.729163 18.671875 15.562500 C17.838538 16.395838 16.872401 17.046873 15.773438 17.515625 C14.674474 17.984377 13.494798 18.218750 12.234375 18.218750 Z M3.906250 32.015625 L3.906250 17.187500 L5.468750 17.187500 L5.468750 32.015625 Z M2.859375 32.812500 C2.067704 32.812500 1.393232 32.533857 0.835938 31.976562 C0.278643 31.419268 0.000000 30.744796 0.000000 29.953125 L0.000000 19.218750 C0.000000 18.427079 0.278643 17.752607 0.835938 17.195312 C1.393232 16.638018 2.067704 16.359375 2.859375 16.359375 L5.328125 16.359375 L8.453125 20.546875 L11.500000 20.546875 L11.500000 28.625000 L8.453125 28.625000 L5.328125 32.812500 Z M2.859375 31.250000 L4.546875 31.250000 L7.671875 27.062500 L10.406250 27.062500 L10.406250 22.109375 L7.671875 22.109375 L4.546875 17.921875 L2.859375 17.921875 C2.505207 17.921875 2.200522 18.046874 1.945312 18.296875 C1.690103 18.546876 1.562500 18.854165 1.562500 19.218750 L1.562500 29.953125 C1.562500 30.307293 1.690103 30.611978 1.945312 30.867188 C2.200522 31.122397 2.505207 31.250000 2.859375 31.250000 Z M7.515625 27.859375 L7.515625 21.343750 L8.921875 21.343750 L8.921875 27.859375 Z M14.453125 27.812500 C14.161457 27.812500 13.914064 27.710939 13.710938 27.507812 C13.507811 27.304686 13.406250 27.057293 13.406250 26.765625 C13.406250 26.473957 13.507811 26.226564 13.710938 26.023438 C13.914064 25.820311 14.156249 25.718750 14.437500 25.718750 C14.729168 25.718750 14.976561 25.820311 15.179688 26.023438 C15.382814 26.226564 15.484375 26.473957 15.484375 26.765625 C15.484375 27.057293 15.382814 27.304686 15.179688 27.507812 C14.976561 27.710939 14.734376 27.812500 14.453125 27.812500 Z M14.453125 25.171875 C14.161457 25.171875 13.914064 25.070314 13.710938 24.867188 C13.507811 24.664061 13.406250 24.416668 13.406250 24.125000 C13.406250 23.833332 13.507811 23.585939 13.710938 23.382812 C13.914064 23.179686 14.156249 23.078125 14.437500 23.078125 C14.729168 23.078125 14.976561 23.179686 15.179688 23.382812 C15.382814 23.585939 15.484375 23.833332 15.484375 24.125000 C15.484375 24.416668 15.382814 24.664061 15.179688 24.867188 C14.976561 25.070314 14.734376 25.171875 14.453125 25.171875 Z M17.484375 27.656250 C17.161457 27.656250 16.885418 27.541668 16.656250 27.312500 C16.427082 27.083332 16.312500 26.807293 16.312500 26.484375 L16.312500 24.406250 C16.312500 24.083332 16.427082 23.807293 16.656250 23.578125 C16.885418 23.348957 17.161457 23.234375 17.484375 23.234375 L24.906250 23.234375 C25.229168 23.234375 25.505207 23.348957 25.734375 23.578125 C25.963543 23.807293 26.078125 24.083332 26.078125 24.406250 L26.078125 26.484375 C26.078125 26.807293 25.963543 27.083332 25.734375 27.312500 C25.505207 27.541668 25.229168 27.656250 24.906250 27.656250 Z M13.265625 32.531250 C12.473954 32.531250 11.799482 32.252607 11.242188 31.695312 C10.684893 31.138018 10.406250 30.463546 10.406250 29.671875 L10.406250 19.515625 C10.406250 18.723954 10.684893 18.049482 11.242188 17.492188 C11.799482 16.934893 12.473954 16.656250 13.265625 16.656250 L23.750000 16.656250 L23.750000 18.218750 L13.265625 18.218750 C12.911457 18.218750 12.606772 18.343749 12.351562 18.593750 C12.096353 18.843751 11.968750 19.151040 11.968750 19.515625 L11.968750 29.671875 C11.968750 30.026043 12.096353 30.330728 12.351562 30.585938 C12.606772 30.841147 12.911457 30.968750 13.265625 30.968750 L26.796875 30.968750 C27.161460 30.968750 27.471353 30.841147 27.726562 30.585938 C27.981772 30.330728 28.109375 30.026043 28.109375 29.671875 L28.109375 19.515625 C28.109375 19.151040 27.981772 18.843751 27.726562 18.593750 C27.471353 18.343749 27.161460 18.218750 26.796875 18.218750 L23.750000 18.218750 L23.750000 16.656250 L26.796875 16.656250 C27.598962 16.656250 28.278643 16.934893 28.835938 17.492188 C29.393232 18.049482 29.671875 18.723954 29.671875 19.515625 L29.671875 29.671875 C29.671875 30.463546 29.390628 31.138018 28.828125 31.695312 C28.265622 32.252607 27.588546 32.531250 26.796875 32.531250 Z M12.234375 16.656250 C13.630215 16.656250 14.898432 16.317712 16.039062 15.640625 C17.179693 14.963538 18.088538 14.052089 18.765625 12.906250 C19.442712 11.760411 19.781250 10.494799 19.781250 9.109375 C19.781250 7.713535 19.442712 6.445318 18.765625 5.304688 C18.088538 4.164057 17.179693 3.255212 16.039062 2.578125 C14.898432 1.901038 13.630215 1.562500 12.234375 1.562500 C10.848951 1.562500 9.583339 1.901038 8.437500 2.578125 C7.291661 3.255212 6.380212 4.164057 5.703125 5.304688 C5.026038 6.445318 4.687500 7.708326 4.687500 9.093750 C4.687500 10.489590 5.026038 11.760411 5.703125 12.906250 C6.380212 14.052089 7.291661 14.963538 8.437500 15.640625 C9.583339 16.317712 10.848951 16.656250 12.234375 16.656250 Z M12.234375 15.343750 C11.088536 15.343750 10.041671 15.062503 9.093750 14.500000 C8.145829 13.937497 7.390628 13.184901 6.828125 12.242188 C6.265622 11.299474 5.984375 10.255214 5.984375 9.109375 C5.984375 7.953119 6.265622 6.903651 6.828125 5.960938 C7.390628 5.018224 8.145829 4.265628 9.093750 3.703125 C10.041671 3.140622 11.088536 2.859375 12.234375 2.859375 C13.390631 2.859375 14.440099 3.140622 15.382812 3.703125 C16.325526 4.265628 17.078122 5.018224 17.640625 5.960938 C18.203128 6.903651 18.484375 7.947911 18.484375 9.093750 C18.484375 10.239589 18.203128 11.286454 17.640625 12.234375 C17.078122 13.182296 16.325526 13.937497 15.382812 14.500000 C14.440099 15.062503 13.390631 15.343750 12.234375 15.343750 Z M12.234375 14.296875 C13.192713 14.296875 14.065100 14.062502 14.851562 13.593750 C15.638025 13.124998 16.265623 12.494796 16.734375 11.703125 C17.203127 10.911454 17.437500 10.041671 17.437500 9.093750 C17.437500 8.135412 17.203127 7.265629 16.734375 6.484375 C16.265623 5.703121 15.638025 5.078127 14.851562 4.609375 C14.065100 4.140623 13.192713 3.906250 12.234375 3.906250 C11.286454 3.906250 10.416671 4.140623 9.625000 4.609375 C8.833329 5.078127 8.203127 5.705725 7.734375 6.492188 C7.265623 7.278650 7.031250 8.151037 7.031250 9.109375 C7.031250 10.057296 7.265623 10.924475 7.734375 11.710938 C8.203127 12.497400 8.833329 13.124998 9.625000 13.593750 C10.416671 14.062502 11.286454 14.296875 12.234375 14.296875 Z M12.234375 13.000000 C11.515621 13.000000 10.861982 12.825523 10.273438 12.476562 C9.684893 12.127602 9.213543 11.658857 8.859375 11.070312 C8.505207 10.481768 8.328125 9.828129 8.328125 9.109375 C8.328125 8.390621 8.505207 7.736982 8.859375 7.148438 C9.213543 6.559893 9.684893 6.088543 10.273438 5.734375 C10.861982 5.380207 11.515621 5.203125 12.234375 5.203125 C12.953129 5.203125 13.606768 5.377602 14.195312 5.726562 C14.783857 6.075523 15.255207 6.544268 15.609375 7.132812 C15.963543 7.721357 16.140625 8.374996 16.140625 9.093750 C16.140625 9.812504 15.963543 10.468747 15.609375 11.062500 C15.255207 11.656253 14.783857 12.127602 14.195312 12.476562 C13.606768 12.825523 12.953129 13.000000 12.234375 13.000000 Z M12.234375 11.187500 C12.817711 11.187500 13.312498 10.981773 13.718750 10.570312 C14.125002 10.158852 14.328125 9.666670 14.328125 9.093750 C14.328125 8.520830 14.125002 8.031252 13.718750 7.625000 C13.312498 7.218748 12.822920 7.015625 12.250000 7.015625 C11.666664 7.015625 11.169273 7.218748 10.757812 7.625000 C10.346352 8.031252 10.140625 8.520830 10.140625 9.093750 C10.140625 9.677086 10.346352 10.171873 10.757812 10.578125 C11.169273 10.984377 11.661455 11.187500 12.234375 11.187500 Z M33.750000 25.609375 L30.718750 24.203125 L29.109375 24.203125 L29.109375 22.640625 L31.062500 22.640625 L32.187500 23.171875 L32.187500 20.531250 L31.062500 21.062500 L29.109375 21.062500 L29.109375 19.500000 L30.718750 19.500000 L33.750000 18.093750 Z M26.078125 18.218750 C24.880202 18.218750 23.786463 17.924482 22.796875 17.335938 C21.807287 16.747393 21.020836 15.960942 20.437500 14.976562 C19.854164 13.992183 19.562500 12.906256 19.562500 11.718750 C19.562500 10.520827 19.854164 9.429692 20.437500 8.445312 C21.020836 7.460933 21.807287 6.674482 22.796875 6.085938 C23.786463 5.497393 24.880202 5.203125 26.078125 5.203125 C27.286464 5.203125 28.382808 5.497393 29.367188 6.085938 C30.351567 6.674482 31.135414 7.458328 31.718750 8.437500 C32.302086 9.416672 32.593750 10.505202 32.593750 11.703125 C32.593750 12.901048 32.302086 13.992183 31.718750 14.976562 C31.135414 15.960942 30.351567 16.747393 29.367188 17.335938 C28.382808 17.924482 27.286464 18.218750 26.078125 18.218750 Z M26.078125 16.656250 C26.994796 16.656250 27.825517 16.432294 28.570312 15.984375 C29.315108 15.536456 29.911456 14.937504 30.359375 14.187500 C30.807294 13.437496 31.031250 12.609380 31.031250 11.703125 C31.031250 10.786454 30.807294 9.955733 30.359375 9.210938 C29.911456 8.466142 29.315108 7.872398 28.570312 7.429688 C27.825517 6.986977 26.994796 6.765625 26.078125 6.765625 C25.171870 6.765625 24.343754 6.989581 23.593750 7.437500 C22.843746 7.885419 22.244794 8.481767 21.796875 9.226562 C21.348956 9.971358 21.125000 10.802079 21.125000 11.718750 C21.125000 12.625005 21.348956 13.453121 21.796875 14.203125 C22.244794 14.953129 22.843746 15.549477 23.593750 15.992188 C24.343754 16.434898 25.171870 16.656250 26.078125 16.656250 Z M26.078125 15.343750 C25.411455 15.343750 24.802086 15.179689 24.250000 14.851562 C23.697914 14.523436 23.257814 14.083336 22.929688 13.531250 C22.601561 12.979164 22.437500 12.369795 22.437500 11.703125 C22.437500 11.026038 22.601561 10.414065 22.929688 9.867188 C23.257814 9.320310 23.697914 8.882814 24.250000 8.554688 C24.802086 8.226561 25.411455 8.062500 26.078125 8.062500 C26.755212 8.062500 27.367185 8.226561 27.914062 8.554688 C28.460940 8.882814 28.898436 9.320310 29.226562 9.867188 C29.554689 10.414065 29.718750 11.026038 29.718750 11.703125 C29.718750 12.369795 29.554689 12.979164 29.226562 13.531250 C28.898436 14.083336 28.460940 14.523436 27.914062 14.851562 C27.367185 15.179689 26.755212 15.343750 26.078125 15.343750 Z M26.078125 13.781250 C26.661461 13.781250 27.156248 13.578127 27.562500 13.171875 C27.968752 12.765623 28.171875 12.276045 28.171875 11.703125 C28.171875 11.130205 27.968752 10.640627 27.562500 10.234375 C27.156248 9.828123 26.661461 9.625000 26.078125 9.625000 C25.505205 9.625000 25.013023 9.825519 24.601562 10.226562 C24.190102 10.627606 23.984375 11.114580 23.984375 11.687500 C23.984375 12.270836 24.190102 12.765623 24.601562 13.171875 C25.013023 13.578127 25.505205 13.781250 26.078125 13.781250 Z M37.187500 27.343750" /></svg>