<svg version="1.1" xmlns="http://www.w3.org/2000/svg" style="fill:rgba(0,0,0,1.0)" width="256" height="256" viewBox="0 0 34.140625 32.8125"><path fill="rgb(255, 255, 255)" d="M12.640625 32.812500 C9.505193 32.812500 7.023447 32.333338 5.195312 31.375000 C3.367178 30.416662 2.364584 29.072925 2.187500 27.343750 C2.072916 26.197911 1.984375 24.934903 1.921875 23.554688 C1.859375 22.174472 1.820313 20.596363 1.804688 18.820312 C1.789062 17.044262 1.781250 14.984387 1.781250 12.640625 L3.656250 12.281250 C3.656250 14.666679 3.664062 16.770824 3.679688 18.593750 C3.695313 20.416676 3.731771 22.026035 3.789062 23.421875 C3.846354 24.817715 3.937499 26.072911 4.062500 27.187500 C4.187501 28.281255 4.994784 29.179684 6.484375 29.882812 C7.973966 30.585941 10.026029 30.937500 12.640625 30.937500 C14.713552 30.937500 16.473951 30.770835 17.921875 30.437500 C19.369799 30.104165 20.473955 29.656253 21.234375 29.093750 C21.994795 28.531247 22.375000 27.916670 22.375000 27.250000 C22.375000 27.010415 22.335938 26.763022 22.257812 26.507812 C22.179687 26.252603 22.072917 25.989585 21.937500 25.718750 C21.770832 25.385415 21.627605 25.026044 21.507812 24.640625 C21.388020 24.255206 21.328125 23.838544 21.328125 23.390625 L21.328125 19.031250 L23.203125 20.062500 L23.203125 23.390625 C23.203125 23.859377 23.260416 24.263019 23.375000 24.601562 C23.489584 24.940106 23.619791 25.260415 23.765625 25.562500 C23.901042 25.822918 24.015625 26.085936 24.109375 26.351562 C24.203125 26.617189 24.250000 26.916665 24.250000 27.250000 C24.250000 28.364589 23.791671 29.338538 22.875000 30.171875 C21.958329 31.005212 20.635425 31.653644 18.906250 32.117188 C17.177075 32.580731 15.088554 32.812500 12.640625 32.812500 Z M12.593750 22.921875 C11.708329 22.921875 10.880212 22.747398 10.109375 22.398438 C9.338538 22.049477 8.656253 21.515629 8.062500 20.796875 L9.171875 19.828125 C9.640627 20.401045 10.153643 20.812499 10.710938 21.062500 C11.268232 21.312501 11.895830 21.437500 12.593750 21.437500 C13.291670 21.437500 13.916664 21.312501 14.468750 21.062500 C15.020836 20.812499 15.536456 20.401045 16.015625 19.828125 L17.125000 20.796875 C16.531247 21.515629 15.851566 22.049477 15.085938 22.398438 C14.320309 22.747398 13.489588 22.921875 12.593750 22.921875 Z M8.390625 18.046875 C7.953123 18.046875 7.591147 17.882814 7.304688 17.554688 C7.018228 17.226561 6.875000 16.838544 6.875000 16.390625 C6.875000 15.932289 7.018228 15.541668 7.304688 15.218750 C7.591147 14.895832 7.953123 14.734375 8.390625 14.734375 C8.828127 14.734375 9.190103 14.895832 9.476562 15.218750 C9.763022 15.541668 9.906250 15.932289 9.906250 16.390625 C9.906250 16.838544 9.763022 17.226561 9.476562 17.554688 C9.190103 17.882814 8.828127 18.046875 8.390625 18.046875 Z M16.796875 18.046875 C16.359373 18.046875 15.997397 17.882814 15.710938 17.554688 C15.424478 17.226561 15.281250 16.838544 15.281250 16.390625 C15.281250 15.932289 15.424478 15.541668 15.710938 15.218750 C15.997397 14.895832 16.359373 14.734375 16.796875 14.734375 C17.234377 14.734375 17.596353 14.895832 17.882812 15.218750 C18.169272 15.541668 18.312500 15.932289 18.312500 16.390625 C18.312500 16.838544 18.169272 17.226561 17.882812 17.554688 C17.596353 17.882814 17.234377 18.046875 16.796875 18.046875 Z M2.437500 12.000000 C3.125003 11.854166 4.015620 11.697917 5.109375 11.531250 C6.203130 11.364583 7.393223 11.221355 8.679688 11.101562 C9.966152 10.981770 11.234369 10.921875 12.484375 10.921875 C13.734381 10.921875 14.945307 10.979166 16.117188 11.093750 C17.289068 11.208334 18.364578 11.346353 19.343750 11.507812 C20.322922 11.669272 21.130205 11.822916 21.765625 11.968750 C21.942709 12.010417 22.093749 11.994792 22.218750 11.921875 C22.343751 11.848958 22.406250 11.635418 22.406250 11.281250 C22.406250 10.604163 22.119795 10.005211 21.546875 9.484375 C20.973955 8.963539 20.208338 8.526043 19.250000 8.171875 C18.291662 7.817707 17.226568 7.552084 16.054688 7.375000 C14.882807 7.197916 13.692714 7.109375 12.484375 7.109375 C10.234364 7.109375 8.320320 7.286457 6.742188 7.640625 C5.164055 7.994793 3.958338 8.492184 3.125000 9.132812 C2.291662 9.773441 1.875000 10.526037 1.875000 11.390625 C1.875000 11.609376 1.914062 11.776041 1.992188 11.890625 C2.070313 12.005209 2.218749 12.041667 2.437500 12.000000 Z M22.796875 15.765625 L22.687500 13.859375 C22.541666 13.859375 22.388022 13.851563 22.226562 13.835938 C22.065103 13.820312 21.901042 13.791667 21.734375 13.750000 C20.536452 13.458332 19.135425 13.200522 17.531250 12.976562 C15.927075 12.752603 14.244800 12.640625 12.484375 12.640625 C11.307286 12.640625 10.114589 12.692708 8.906250 12.796875 C7.697911 12.901042 6.567714 13.039062 5.515625 13.210938 C4.463536 13.382813 3.578129 13.562499 2.859375 13.750000 C1.994787 13.979168 1.302086 13.898439 0.781250 13.507812 C0.260414 13.117186 0.000000 12.583337 0.000000 11.906250 C0.000000 10.822911 0.278643 9.890629 0.835938 9.109375 C1.393232 8.328121 2.145829 7.682294 3.093750 7.171875 C3.437502 5.973952 4.072912 4.828130 5.000000 3.734375 C5.927088 2.640620 7.124993 1.744795 8.593750 1.046875 C10.062507 0.348955 11.781240 -0.000000 13.750000 -0.000000 C15.437508 -0.000000 16.984368 0.330726 18.390625 0.992188 C19.796882 1.653649 21.018224 2.539057 22.054688 3.648438 C23.091151 4.757818 23.890622 5.997389 24.453125 7.367188 C25.015628 8.736986 25.296875 10.135410 25.296875 11.562500 C25.296875 12.489588 25.265625 13.289059 25.203125 13.960938 C25.140625 14.632816 25.062500 15.192706 24.968750 15.640625 Z M24.125000 21.609375 C23.156245 21.609375 22.328128 21.265628 21.640625 20.578125 C20.953122 19.890622 20.609375 19.062505 20.609375 18.093750 C20.609375 17.114578 20.953122 16.281253 21.640625 15.593750 C22.328128 14.906247 23.156245 14.562500 24.125000 14.562500 C25.104172 14.562500 25.937497 14.906247 26.625000 15.593750 C27.312503 16.281253 27.656250 17.114578 27.656250 18.093750 C27.656250 19.062505 27.312503 19.890622 26.625000 20.578125 C25.937497 21.265628 25.104172 21.609375 24.125000 21.609375 Z M24.125000 19.734375 C24.583336 19.734375 24.973957 19.572918 25.296875 19.250000 C25.619793 18.927082 25.781250 18.541669 25.781250 18.093750 C25.781250 17.635414 25.619793 17.244793 25.296875 16.921875 C24.973957 16.598957 24.583336 16.437500 24.125000 16.437500 C23.677081 16.437500 23.291668 16.598957 22.968750 16.921875 C22.645832 17.244793 22.484375 17.635414 22.484375 18.093750 C22.484375 18.541669 22.645832 18.927082 22.968750 19.250000 C23.291668 19.572918 23.677081 19.734375 24.125000 19.734375 Z M21.328125 17.234375 L21.328125 13.359375 L23.203125 13.421875 L23.203125 16.171875 Z M34.140625 27.343750" /></svg>