<svg version="1.1" xmlns="http://www.w3.org/2000/svg" style="fill:rgba(0,0,0,1.0)" width="256" height="256" viewBox="0 0 37.03125 32.8125"><path fill="rgb(255, 255, 255)" d="M1.015625 32.765625 L0.000000 31.578125 L12.328125 21.578125 C13.640632 20.515620 14.570310 19.622399 15.117188 18.898438 C15.664065 18.174476 15.937500 17.515628 15.937500 16.921875 C15.937500 16.432289 15.794272 15.979169 15.507812 15.562500 C15.221353 15.145831 14.864585 14.809897 14.437500 14.554688 C14.010415 14.299478 13.578127 14.171875 13.140625 14.171875 C12.807290 14.171875 12.505210 14.255208 12.234375 14.421875 L0.828125 21.406250 L0.000000 20.078125 L11.484375 13.062500 C11.973961 12.770832 12.510414 12.625000 13.093750 12.625000 C13.802087 12.625000 14.494788 12.822915 15.171875 13.218750 C15.848962 13.614585 16.406248 14.138018 16.843750 14.789062 C17.281252 15.440107 17.500000 16.151038 17.500000 16.921875 C17.500000 17.776046 17.197920 18.645829 16.593750 19.531250 C15.989580 20.416671 14.942716 21.463536 13.453125 22.671875 Z M13.921875 32.812500 L12.734375 31.796875 L17.765625 26.093750 C18.098960 25.708331 18.377603 25.312502 18.601562 24.906250 C18.825522 24.499998 18.937500 24.057294 18.937500 23.578125 C18.937500 23.411458 18.921875 23.244793 18.890625 23.078125 L20.734375 21.015625 C20.765625 21.421877 20.781250 21.807290 20.781250 22.171875 C20.781250 23.182297 20.643231 24.070309 20.367188 24.835938 C20.091144 25.601566 19.598962 26.385413 18.890625 27.187500 Z M7.421875 17.312500 L6.515625 16.203125 C7.911465 14.994786 8.609375 13.921880 8.609375 12.984375 C8.609375 12.526039 8.458335 12.106773 8.156250 11.726562 C7.854165 11.346352 7.468752 11.041668 7.000000 10.812500 C6.531248 10.583332 6.046878 10.468750 5.546875 10.468750 C5.119790 10.468750 4.723960 10.562499 4.359375 10.750000 L0.750000 12.687500 L0.000000 11.312500 L3.687500 9.343750 C3.958335 9.197916 4.244790 9.091146 4.546875 9.023438 C4.848960 8.955729 5.156248 8.921875 5.468750 8.921875 C6.239587 8.921875 6.984371 9.104165 7.703125 9.468750 C8.421879 9.833335 9.013019 10.322914 9.476562 10.937500 C9.940106 11.552086 10.171875 12.234371 10.171875 12.984375 C10.171875 13.671878 9.921878 14.385413 9.421875 15.125000 C8.921873 15.864587 8.255212 16.593746 7.421875 17.312500 Z M4.906250 14.125000 C4.166663 14.125000 3.515628 13.911460 2.953125 13.484375 C2.390622 13.057290 2.109375 12.557295 2.109375 11.984375 C2.109375 11.598956 2.294269 11.166669 2.664062 10.687500 C3.033856 10.208331 3.499997 9.750002 4.062500 9.312500 C4.625003 8.874998 5.216143 8.515626 5.835938 8.234375 C6.455732 7.953124 7.015622 7.812500 7.515625 7.812500 C7.911460 7.812500 8.296873 7.958332 8.671875 8.250000 C9.046877 8.541668 9.356770 8.908852 9.601562 9.351562 C9.846355 9.794273 9.968750 10.249998 9.968750 10.718750 C9.968750 11.250003 9.710940 11.776039 9.195312 12.296875 C8.679685 12.817711 8.033858 13.252602 7.257812 13.601562 C6.481767 13.950523 5.697921 14.125000 4.906250 14.125000 Z M16.234375 24.484375 C15.536455 24.484375 14.916669 24.299481 14.375000 23.929688 C13.833331 23.559894 13.562500 23.072920 13.562500 22.468750 C13.562500 22.093748 13.718748 21.656252 14.031250 21.156250 C14.343752 20.656248 14.744789 20.169273 15.234375 19.695312 C15.723961 19.221352 16.242185 18.828127 16.789062 18.515625 C17.335940 18.203123 17.848956 18.046875 18.328125 18.046875 C18.713544 18.046875 19.098956 18.169270 19.484375 18.414062 C19.869794 18.658855 20.195311 18.979165 20.460938 19.375000 C20.726564 19.770835 20.859375 20.187498 20.859375 20.625000 C20.859375 21.135419 20.630211 21.692705 20.171875 22.296875 C19.713539 22.901045 19.130212 23.416665 18.421875 23.843750 C17.713538 24.270835 16.984379 24.484375 16.234375 24.484375 Z M11.937500 18.500000 C11.208330 18.500000 10.583336 18.276044 10.062500 17.828125 C9.541664 17.380206 9.281250 16.838545 9.281250 16.203125 C9.281250 15.817706 9.463540 15.388023 9.828125 14.914062 C10.192710 14.440102 10.658851 13.984377 11.226562 13.546875 C11.794274 13.109373 12.385414 12.750001 13.000000 12.468750 C13.614586 12.187499 14.171872 12.046875 14.671875 12.046875 C15.067710 12.046875 15.453123 12.190103 15.828125 12.476562 C16.203127 12.763022 16.513020 13.127602 16.757812 13.570312 C17.002605 14.013023 17.125000 14.463539 17.125000 14.921875 C17.125000 15.453128 16.861982 15.994789 16.335938 16.546875 C15.809893 17.098961 15.148441 17.562498 14.351562 17.937500 C13.554684 18.312502 12.750004 18.500000 11.937500 18.500000 Z M22.296875 17.281250 C21.317703 17.281250 20.622398 17.075523 20.210938 16.664062 C19.799477 16.252602 19.593750 15.838544 19.593750 15.421875 C19.593750 14.880206 19.786456 14.536459 20.171875 14.390625 C20.848962 14.119790 21.479164 13.835939 22.062500 13.539062 C22.645836 13.242186 23.083332 12.885419 23.375000 12.468750 C24.052087 12.468750 24.492186 12.619790 24.695312 12.921875 C24.898439 13.223960 25.000000 13.536457 25.000000 13.859375 C25.000000 14.359378 24.848960 14.872393 24.546875 15.398438 C24.244790 15.924482 23.885419 16.369790 23.468750 16.734375 C23.052081 17.098960 22.661460 17.281250 22.296875 17.281250 Z M23.906250 13.937500 C23.906250 13.624998 24.020832 13.286460 24.250000 12.921875 C24.479168 12.557290 24.739582 12.281251 25.031250 12.093750 L26.421875 8.406250 C26.484375 8.239583 26.458334 8.093751 26.343750 7.968750 C26.229166 7.843749 26.098959 7.781250 25.953125 7.781250 C25.744791 7.781250 25.598959 7.901040 25.515625 8.140625 L24.187500 11.687500 C24.197917 11.739584 24.203125 11.817708 24.203125 11.921875 C24.203125 12.182293 24.156250 12.427082 24.062500 12.656250 C23.968750 12.885418 23.833334 13.109374 23.656250 13.328125 L22.437500 13.328125 C22.677085 13.151041 22.848958 12.932293 22.953125 12.671875 C23.057292 12.411457 23.109375 12.161460 23.109375 11.921875 C23.109375 11.796874 23.093750 11.682292 23.062500 11.578125 L24.890625 6.718750 L27.781250 7.875000 L25.937500 12.796875 C25.822916 12.838542 25.690105 12.929687 25.539062 13.070312 C25.388020 13.210938 25.260417 13.361978 25.156250 13.523438 C25.052083 13.684897 25.000000 13.822916 25.000000 13.937500 Z M28.609375 10.593750 C28.213540 10.593750 27.856772 10.575521 27.539062 10.539062 C27.221353 10.502604 26.848960 10.432292 26.421875 10.328125 L27.218750 8.125000 L25.328125 7.437500 L24.437500 9.609375 C22.937492 8.932288 21.893232 8.265628 21.304688 7.609375 C20.716143 6.953122 20.583332 6.317711 20.906250 5.703125 L23.890625 -0.000000 L33.437500 -0.000000 L31.687500 9.031250 C31.572916 9.635420 31.270836 10.046874 30.781250 10.265625 C30.291664 10.484376 29.567713 10.593750 28.609375 10.593750 Z M30.218750 8.390625 L31.546875 1.562500 L24.828125 1.562500 L22.484375 6.078125 C24.130217 6.078125 25.588535 6.270831 26.859375 6.656250 C28.130215 7.041669 29.249995 7.619788 30.218750 8.390625 Z M37.031250 27.343750" /></svg>