<svg version="1.1" xmlns="http://www.w3.org/2000/svg" style="fill:rgba(0,0,0,1.0)" width="256" height="256" viewBox="0 0 36.875 32.8125"><path fill="rgb(255, 255, 255)" d="M16.562500 32.812500 C14.187488 32.812500 11.992198 32.403650 9.976562 31.585938 C7.960927 30.768225 6.208341 29.619799 4.718750 28.140625 C3.229159 26.661451 2.070317 24.924489 1.242188 22.929688 C0.414058 20.934886 0.000000 18.760428 0.000000 16.406250 C0.000000 14.052072 0.414058 11.877614 1.242188 9.882812 C2.070317 7.888011 3.229159 6.151049 4.718750 4.671875 C6.208341 3.192701 7.960927 2.044275 9.976562 1.226562 C11.992198 0.408850 14.187488 -0.000000 16.562500 -0.000000 C18.937512 -0.000000 21.132802 0.408850 23.148438 1.226562 C25.164073 2.044275 26.916659 3.192701 28.406250 4.671875 C29.895841 6.151049 31.054683 7.888011 31.882812 9.882812 C32.710942 11.877614 33.125000 14.052072 33.125000 16.406250 C33.125000 18.760428 32.710942 20.934886 31.882812 22.929688 C31.054683 24.924489 29.895841 26.661451 28.406250 28.140625 C26.916659 29.619799 25.164073 30.768225 23.148438 31.585938 C21.132802 32.403650 18.937512 32.812500 16.562500 32.812500 Z M9.312500 23.281250 L9.312500 21.562500 L23.812500 21.562500 L23.812500 23.281250 Z M11.062500 16.953125 C10.479164 16.953125 9.973960 16.697919 9.546875 16.187500 C9.119790 15.677081 8.906250 15.072920 8.906250 14.375000 C8.906250 13.666663 9.119790 13.059898 9.546875 12.554688 C9.973960 12.049477 10.479164 11.796875 11.062500 11.796875 C11.645836 11.796875 12.151040 12.049477 12.578125 12.554688 C13.005210 13.059898 13.218750 13.666663 13.218750 14.375000 C13.218750 15.072920 13.005210 15.677081 12.578125 16.187500 C12.151040 16.697919 11.645836 16.953125 11.062500 16.953125 Z M16.578125 31.093750 C18.682302 31.093750 20.627595 30.726566 22.414062 29.992188 C24.200530 29.257809 25.752598 28.231777 27.070312 26.914062 C28.388027 25.596348 29.414059 24.041676 30.148438 22.250000 C30.882816 20.458324 31.250000 18.505219 31.250000 16.390625 C31.250000 14.286448 30.882816 12.341155 30.148438 10.554688 C29.414059 8.768220 28.388027 7.216152 27.070312 5.898438 C25.752598 4.580723 24.200530 3.554691 22.414062 2.820312 C20.627595 2.085934 18.682302 1.718750 16.578125 1.718750 C14.463531 1.718750 12.513030 2.085934 10.726562 2.820312 C8.940095 3.554691 7.385423 4.580723 6.062500 5.898438 C4.739577 7.216152 3.710941 8.768220 2.976562 10.554688 C2.242184 12.341155 1.875000 14.286448 1.875000 16.390625 C1.875000 18.505219 2.242184 20.458324 2.976562 22.250000 C3.710941 24.041676 4.736973 25.596348 6.054688 26.914062 C7.372402 28.231777 8.927074 29.257809 10.718750 29.992188 C12.510426 30.726566 14.463531 31.093750 16.578125 31.093750 Z M22.062500 16.953125 C21.479164 16.953125 20.973960 16.697919 20.546875 16.187500 C20.119790 15.677081 19.906250 15.072920 19.906250 14.375000 C19.906250 13.666663 20.119790 13.059898 20.546875 12.554688 C20.973960 12.049477 21.479164 11.796875 22.062500 11.796875 C22.645836 11.796875 23.151040 12.049477 23.578125 12.554688 C24.005210 13.059898 24.218750 13.666663 24.218750 14.375000 C24.218750 15.072920 24.005210 15.677081 23.578125 16.187500 C23.151040 16.697919 22.645836 16.953125 22.062500 16.953125 Z M36.875000 27.343750" /></svg>