<svg version="1.1" xmlns="http://www.w3.org/2000/svg" style="fill:rgba(0,0,0,1.0)" width="256" height="256" viewBox="0 0 36.484375 32.8125"><path fill="rgb(255, 255, 255)" d="M16.187500 32.812500 C13.937489 32.812500 11.835947 32.388025 9.882812 31.539062 C7.929678 30.690100 6.210945 29.513028 4.726562 28.007812 C3.242180 26.502597 2.083338 24.757822 1.250000 22.773438 C0.416663 20.789053 0.000000 18.666678 0.000000 16.406250 C0.000000 14.135405 0.416663 12.010427 1.250000 10.031250 C2.083338 8.052073 3.242180 6.309903 4.726562 4.804688 C6.210945 3.299472 7.929678 2.122400 9.882812 1.273438 C11.835947 0.424475 13.932280 -0.000000 16.171875 -0.000000 C18.411470 -0.000000 20.507803 0.424475 22.460938 1.273438 C24.414072 2.122400 26.132805 3.299472 27.617188 4.804688 C29.101570 6.309903 30.260412 8.052073 31.093750 10.031250 C31.927088 12.010427 32.343750 14.130197 32.343750 16.390625 C32.343750 18.661470 31.927088 20.789053 31.093750 22.773438 C30.260412 24.757822 29.104174 26.502597 27.625000 28.007812 C26.145826 29.513028 24.429697 30.690100 22.476562 31.539062 C20.523428 32.388025 18.427095 32.812500 16.187500 32.812500 Z M36.484375 27.343750" /></svg>