<svg version="1.1" xmlns="http://www.w3.org/2000/svg" style="fill:rgba(0,0,0,1.0)" width="256" height="256" viewBox="0 0 37.265625 28.125"><path fill="rgb(255, 255, 255)" d="M1.906250 28.125000 C1.270830 27.666664 0.820314 27.098962 0.554688 26.421875 C0.289061 25.744788 0.130209 25.046879 0.078125 24.328125 C0.026041 23.609371 0.000000 22.963545 0.000000 22.390625 L0.000000 -0.000000 L31.125000 -0.000000 L31.125000 1.562500 L33.906250 1.562500 L33.906250 22.390625 C33.906250 22.963545 33.880209 23.609371 33.828125 24.328125 C33.776041 25.046879 33.617189 25.744788 33.351562 26.421875 C33.085936 27.098962 32.635420 27.666664 32.000000 28.125000 Z M4.468750 26.562500 C4.187499 26.322915 4.023438 26.015627 3.976562 25.640625 C3.929687 25.265623 3.906250 24.911460 3.906250 24.578125 L3.906250 18.078125 L18.781250 18.078125 L18.781250 24.578125 C18.781250 24.911460 18.804687 25.265623 18.851562 25.640625 C18.898438 26.015627 19.062499 26.322915 19.343750 26.562500 Z M3.906250 15.265625 L3.906250 11.515625 L10.156250 11.515625 L10.156250 15.265625 Z M21.593750 24.312500 L21.593750 23.062500 L27.843750 23.062500 L27.843750 24.312500 Z M12.656250 15.265625 L12.656250 14.015625 L18.906250 14.015625 L18.906250 15.265625 Z M2.484375 26.562500 L30.187500 26.562500 C29.874998 25.885413 29.692709 25.171879 29.640625 24.421875 C29.588541 23.671871 29.562500 22.994795 29.562500 22.390625 L29.562500 1.562500 L1.562500 1.562500 L1.562500 22.390625 C1.562500 23.161462 1.601562 23.927080 1.679688 24.687500 C1.757813 25.447920 2.026039 26.072914 2.484375 26.562500 Z M21.593750 21.812500 L21.593750 20.562500 L27.843750 20.562500 L27.843750 21.812500 Z M12.656250 12.765625 L12.656250 11.515625 L18.906250 11.515625 L18.906250 12.765625 Z M21.593750 19.312500 L21.593750 18.062500 L27.843750 18.062500 L27.843750 19.312500 Z M21.593750 15.265625 L21.593750 14.015625 L27.843750 14.015625 L27.843750 15.265625 Z M21.593750 12.765625 L21.593750 11.515625 L27.843750 11.515625 L27.843750 12.765625 Z M31.875000 25.875000 C32.114585 25.385414 32.252604 24.835941 32.289062 24.226562 C32.325521 23.617184 32.343750 23.005211 32.343750 22.390625 L32.343750 3.125000 L31.125000 3.125000 L31.125000 22.390625 C31.125000 22.932294 31.156250 23.486976 31.218750 24.054688 C31.281250 24.622399 31.499998 25.229163 31.875000 25.875000 Z M15.859375 9.093750 C16.609379 9.093750 17.263018 8.815107 17.820312 8.257812 C18.377607 7.700518 18.656250 7.046879 18.656250 6.296875 C18.656250 5.526038 18.380211 4.864586 17.828125 4.312500 C17.276039 3.760414 16.619795 3.484375 15.859375 3.484375 C15.098955 3.484375 14.442711 3.760414 13.890625 4.312500 C13.338539 4.864586 13.062500 5.526038 13.062500 6.296875 C13.062500 7.057295 13.338539 7.713539 13.890625 8.265625 C14.442711 8.817711 15.098955 9.093750 15.859375 9.093750 Z M3.906250 8.781250 L12.062500 8.781250 L12.062500 4.109375 L3.906250 4.109375 Z M27.812500 8.781250 L27.812500 4.109375 L19.656250 4.109375 L19.656250 8.781250 Z M37.265625 25.000000" /></svg>