<svg version="1.1" xmlns="http://www.w3.org/2000/svg" style="fill:rgba(0,0,0,1.0)" width="256" height="256" viewBox="0 0 36.71875 32.8125"><path fill="rgb(255, 255, 255)" d="M2.750000 32.812500 C1.999996 32.812500 1.354169 32.544274 0.812500 32.007812 C0.270831 31.471351 0.000000 30.833337 0.000000 30.093750 L0.000000 2.734375 C0.000000 1.984371 0.268226 1.341149 0.804688 0.804688 C1.341149 0.268226 1.984371 -0.000000 2.734375 -0.000000 L30.078125 -0.000000 C30.828129 -0.000000 31.471351 0.268226 32.007812 0.804688 C32.544274 1.341149 32.812500 1.984371 32.812500 2.734375 L32.812500 30.078125 C32.812500 30.828129 32.544274 31.471351 32.007812 32.007812 C31.471351 32.544274 30.828129 32.812500 30.078125 32.812500 Z M4.375000 22.625000 L7.328125 22.625000 L7.328125 17.078125 C7.328125 16.619789 7.312500 16.083336 7.281250 15.468750 C7.250000 14.854164 7.208334 14.348960 7.156250 13.953125 L7.250000 13.953125 L11.734375 22.625000 L16.078125 22.625000 L16.078125 10.328125 L13.125000 10.328125 L13.125000 15.890625 C13.125000 16.307294 13.140625 16.807289 13.171875 17.390625 C13.203125 17.973961 13.229167 18.463540 13.250000 18.859375 L13.203125 18.859375 L8.718750 10.328125 L4.375000 10.328125 Z M23.687500 22.796875 C24.583338 22.796875 25.440100 22.726563 26.257812 22.585938 C27.075525 22.445312 27.802080 22.265626 28.437500 22.046875 L28.437500 15.421875 L23.125000 15.421875 L23.125000 18.000000 L25.312500 18.000000 L25.312500 19.906250 C25.177083 19.947917 24.966147 19.984375 24.679688 20.015625 C24.393228 20.046875 24.151043 20.062500 23.953125 20.062500 C23.057287 20.062500 22.367190 19.757816 21.882812 19.148438 C21.398435 18.539059 21.156250 17.661464 21.156250 16.515625 C21.156250 15.526037 21.388019 14.671879 21.851562 13.953125 C22.315106 13.234371 23.098953 12.875000 24.203125 12.875000 C24.755211 12.875000 25.270831 12.929687 25.750000 13.039062 C26.229169 13.148438 26.687498 13.312499 27.125000 13.531250 L28.187500 10.921875 C27.677081 10.692707 27.075524 10.507813 26.382812 10.367188 C25.690101 10.226562 24.958337 10.156250 24.187500 10.156250 C22.083323 10.156250 20.481776 10.721349 19.382812 11.851562 C18.283849 12.981776 17.734375 14.510407 17.734375 16.437500 C17.734375 18.593761 18.283849 20.192703 19.382812 21.234375 C20.481776 22.276047 21.916658 22.796875 23.687500 22.796875 Z M36.718750 27.343750" /></svg>