<svg version="1.1" xmlns="http://www.w3.org/2000/svg" style="fill:rgba(0,0,0,1.0)" width="256" height="256" viewBox="0 0 36.71875 32.8125"><path fill="rgb(255, 255, 255)" d="M9.515625 24.328125 C8.546870 24.328125 7.658858 24.085940 6.851562 23.601562 C6.044267 23.117185 5.401044 22.471358 4.921875 21.664062 C4.442706 20.856767 4.203125 19.963547 4.203125 18.984375 C4.203125 18.005203 4.442706 17.114587 4.921875 16.312500 C5.401044 15.510413 6.044267 14.869794 6.851562 14.390625 C7.658858 13.911456 8.546870 13.671875 9.515625 13.671875 C10.494797 13.671875 11.388017 13.911456 12.195312 14.390625 C13.002608 14.869794 13.645831 15.510413 14.125000 16.312500 C14.604169 17.114587 14.843750 18.005203 14.843750 18.984375 C14.843750 19.963547 14.604169 20.859371 14.125000 21.671875 C13.645831 22.484379 13.002608 23.130206 12.195312 23.609375 C11.388017 24.088544 10.494797 24.328125 9.515625 24.328125 Z M9.515625 22.765625 C10.213545 22.765625 10.846351 22.596356 11.414062 22.257812 C11.981774 21.919269 12.434894 21.463545 12.773438 20.890625 C13.111981 20.317705 13.281250 19.682295 13.281250 18.984375 C13.281250 18.286455 13.111981 17.656253 12.773438 17.093750 C12.434894 16.531247 11.981774 16.080731 11.414062 15.742188 C10.846351 15.403644 10.213545 15.234375 9.515625 15.234375 C8.828122 15.234375 8.200524 15.403644 7.632812 15.742188 C7.065101 16.080731 6.611981 16.533851 6.273438 17.101562 C5.934894 17.669274 5.765625 18.296872 5.765625 18.984375 C5.765625 19.682295 5.934894 20.317705 6.273438 20.890625 C6.611981 21.463545 7.065101 21.919269 7.632812 22.257812 C8.200524 22.596356 8.828122 22.765625 9.515625 22.765625 Z M10.234375 19.281250 L8.796875 18.687500 L11.640625 11.578125 L13.078125 12.171875 Z M26.765625 28.000000 L4.703125 6.156250 L6.015625 4.812500 L28.078125 26.656250 Z M23.921875 20.000000 L18.656250 20.000000 L18.656250 18.437500 L21.828125 18.437500 L20.312500 13.203125 L14.453125 13.203125 C13.442703 13.203125 12.651045 12.963544 12.078125 12.484375 C11.505205 12.005206 11.218750 11.333338 11.218750 10.468750 C11.218750 9.635413 11.539059 8.984377 12.179688 8.515625 C12.820316 8.046873 13.734369 7.791667 14.921875 7.750000 L14.984375 9.312500 C14.192704 9.343750 13.627606 9.458332 13.289062 9.656250 C12.950519 9.854168 12.781250 10.124998 12.781250 10.468750 C12.781250 10.864585 12.908853 11.158853 13.164062 11.351562 C13.419272 11.544272 13.848955 11.640625 14.453125 11.640625 L21.468750 11.640625 Z M23.000000 24.328125 C22.020828 24.328125 21.127608 24.088544 20.320312 23.609375 C19.513017 23.130206 18.869794 22.484379 18.390625 21.671875 C17.911456 20.859371 17.671875 19.963547 17.671875 18.984375 C17.671875 18.005203 17.911456 17.114587 18.390625 16.312500 C18.869794 15.510413 19.513017 14.869794 20.320312 14.390625 C21.127608 13.911456 22.020828 13.671875 23.000000 13.671875 C23.979172 13.671875 24.869788 13.911456 25.671875 14.390625 C26.473962 14.869794 27.114581 15.510413 27.593750 16.312500 C28.072919 17.114587 28.312500 18.005203 28.312500 18.984375 C28.312500 19.963547 28.072919 20.856767 27.593750 21.664062 C27.114581 22.471358 26.473962 23.117185 25.671875 23.601562 C24.869788 24.085940 23.979172 24.328125 23.000000 24.328125 Z M23.000000 22.765625 C23.687503 22.765625 24.315101 22.596356 24.882812 22.257812 C25.450524 21.919269 25.903644 21.463545 26.242188 20.890625 C26.580731 20.317705 26.750000 19.682295 26.750000 18.984375 C26.750000 18.296872 26.580731 17.669274 26.242188 17.101562 C25.903644 16.533851 25.450524 16.080731 24.882812 15.742188 C24.315101 15.403644 23.687503 15.234375 23.000000 15.234375 C22.312497 15.234375 21.682295 15.403644 21.109375 15.742188 C20.536455 16.080731 20.080731 16.531247 19.742188 17.093750 C19.403644 17.656253 19.234375 18.286455 19.234375 18.984375 C19.234375 19.630212 19.414061 20.242185 19.773438 20.820312 C20.132814 21.398440 20.601560 21.867186 21.179688 22.226562 C21.757815 22.585939 22.364580 22.765625 23.000000 22.765625 Z M17.500000 17.984375 L16.062500 17.390625 L19.453125 9.328125 L20.890625 9.921875 Z M17.984375 10.406250 L17.984375 8.843750 L21.656250 8.843750 L21.656250 10.406250 Z M30.937500 16.390625 C30.937500 14.380198 30.559900 12.489592 29.804688 10.718750 C29.049475 8.947908 28.002611 7.388028 26.664062 6.039062 C25.325514 4.690097 23.781259 3.632816 22.031250 2.867188 C20.281241 2.101559 18.406260 1.718750 16.406250 1.718750 C14.406240 1.718750 12.531259 2.101559 10.781250 2.867188 C9.031241 3.632816 7.486986 4.690097 6.148438 6.039062 C4.809889 7.388028 3.763025 8.947908 3.007812 10.718750 C2.252600 12.489592 1.875000 14.385407 1.875000 16.406250 C1.875000 18.416677 2.252600 20.309887 3.007812 22.085938 C3.763025 23.861988 4.809889 25.424472 6.148438 26.773438 C7.486986 28.122403 9.031241 29.179684 10.781250 29.945312 C12.531259 30.710941 14.406240 31.093750 16.406250 31.093750 C18.406260 31.093750 20.281241 30.710941 22.031250 29.945312 C23.781259 29.179684 25.325514 28.122403 26.664062 26.773438 C28.002611 25.424472 29.049475 23.861988 29.804688 22.085938 C30.559900 20.309887 30.937500 18.411468 30.937500 16.390625 Z M32.812500 16.406250 C32.812500 18.677095 32.385421 20.804678 31.531250 22.789062 C30.677079 24.773447 29.497403 26.515618 27.992188 28.015625 C26.486972 29.515632 24.742197 30.690100 22.757812 31.539062 C20.773428 32.388025 18.656261 32.812500 16.406250 32.812500 C14.156239 32.812500 12.039072 32.388025 10.054688 31.539062 C8.070303 30.690100 6.325528 29.515632 4.820312 28.015625 C3.315097 26.515618 2.135421 24.773447 1.281250 22.789062 C0.427079 20.804678 0.000000 18.677095 0.000000 16.406250 C0.000000 14.135405 0.427079 12.007822 1.281250 10.023438 C2.135421 8.039053 3.315097 6.296882 4.820312 4.796875 C6.325528 3.296868 8.070303 2.122400 10.054688 1.273438 C12.039072 0.424475 14.156239 -0.000000 16.406250 -0.000000 C18.656261 -0.000000 20.773428 0.424475 22.757812 1.273438 C24.742197 2.122400 26.486972 3.296868 27.992188 4.796875 C29.497403 6.296882 30.677079 8.039053 31.531250 10.023438 C32.385421 12.007822 32.812500 14.135405 32.812500 16.406250 Z M36.718750 27.343750" /></svg>