<svg version="1.1" xmlns="http://www.w3.org/2000/svg" style="fill:rgba(0,0,0,1.0)" width="256" height="256" viewBox="0 0 36.71875 32.8125"><path fill="rgb(255, 255, 255)" d="M5.531250 18.281250 L5.531250 14.531250 L22.890625 14.531250 L22.890625 18.281250 Z M24.187500 18.281250 L24.187500 14.531250 L27.578125 14.531250 L27.578125 18.281250 Z M24.218750 13.375000 L24.218750 12.875000 C24.895837 12.604165 25.382811 12.236981 25.679688 11.773438 C25.976564 11.309894 26.158854 10.705733 26.226562 9.960938 C26.294271 9.216142 26.328125 8.291672 26.328125 7.187500 C26.328125 6.312496 26.382812 5.494795 26.492188 4.734375 C26.601563 3.973955 26.833332 3.291670 27.187500 2.687500 C27.541668 2.083330 28.080726 1.583335 28.804688 1.187500 C29.528649 0.791665 30.499994 0.526042 31.718750 0.390625 L31.718750 0.890625 C31.031247 1.078126 30.541668 1.395831 30.250000 1.843750 C29.958332 2.291669 29.781250 2.924475 29.718750 3.742188 C29.656250 4.559900 29.625000 5.619785 29.625000 6.921875 C29.625000 7.588545 29.570313 8.249997 29.460938 8.906250 C29.351562 9.562503 29.117189 10.182289 28.757812 10.765625 C28.398436 11.348961 27.856774 11.864581 27.132812 12.312500 C26.408851 12.760419 25.437506 13.114582 24.218750 13.375000 Z M16.406250 32.812500 C14.156239 32.812500 12.039072 32.388025 10.054688 31.539062 C8.070303 30.690100 6.325528 29.515632 4.820312 28.015625 C3.315097 26.515618 2.135421 24.773447 1.281250 22.789062 C0.427079 20.804678 0.000000 18.677095 0.000000 16.406250 C0.000000 14.135405 0.427079 12.007822 1.281250 10.023438 C2.135421 8.039053 3.315097 6.296882 4.820312 4.796875 C6.325528 3.296868 8.070303 2.122400 10.054688 1.273438 C12.039072 0.424475 14.156239 -0.000000 16.406250 -0.000000 C18.656261 -0.000000 20.773428 0.424475 22.757812 1.273438 C24.742197 2.122400 26.486972 3.296868 27.992188 4.796875 C29.497403 6.296882 30.677079 8.039053 31.531250 10.023438 C32.385421 12.007822 32.812500 14.135405 32.812500 16.406250 C32.812500 18.677095 32.385421 20.804678 31.531250 22.789062 C30.677079 24.773447 29.497403 26.515618 27.992188 28.015625 C26.486972 29.515632 24.742197 30.690100 22.757812 31.539062 C20.773428 32.388025 18.656261 32.812500 16.406250 32.812500 Z M16.406250 31.093750 C18.406260 31.093750 20.281241 30.710941 22.031250 29.945312 C23.781259 29.179684 25.325514 28.122403 26.664062 26.773438 C28.002611 25.424472 29.049475 23.861988 29.804688 22.085938 C30.559900 20.309887 30.937500 18.411468 30.937500 16.390625 C30.937500 14.380198 30.559900 12.489592 29.804688 10.718750 C29.049475 8.947908 28.002611 7.388028 26.664062 6.039062 C25.325514 4.690097 23.781259 3.632816 22.031250 2.867188 C20.281241 2.101559 18.406260 1.718750 16.406250 1.718750 C14.406240 1.718750 12.531259 2.101559 10.781250 2.867188 C9.031241 3.632816 7.486986 4.690097 6.148438 6.039062 C4.809889 7.388028 3.763025 8.947908 3.007812 10.718750 C2.252600 12.489592 1.875000 14.385407 1.875000 16.406250 C1.875000 18.416677 2.252600 20.309887 3.007812 22.085938 C3.763025 23.861988 4.809889 25.424472 6.148438 26.773438 C7.486986 28.122403 9.031241 29.179684 10.781250 29.945312 C12.531259 30.710941 14.406240 31.093750 16.406250 31.093750 Z M26.765625 28.000000 L4.703125 6.156250 L6.015625 4.812500 L28.078125 26.656250 Z M36.718750 27.343750" /></svg>