<svg version="1.1" xmlns="http://www.w3.org/2000/svg" style="fill:rgba(0,0,0,1.0)" width="256" height="256" viewBox="0 0 36.71875 32.8125"><path fill="rgb(255, 255, 255)" d="M16.406250 29.093750 C17.885424 29.093750 19.174474 28.802086 20.273438 28.218750 C21.372401 27.635414 22.283851 26.791672 23.007812 25.687500 C23.731774 24.583328 24.270832 23.250008 24.625000 21.687500 C24.979168 20.124992 25.156250 18.359385 25.156250 16.390625 C25.156250 14.432282 24.979168 12.671883 24.625000 11.109375 C24.270832 9.546867 23.734379 8.213547 23.015625 7.109375 C22.296871 6.005203 21.388026 5.161461 20.289062 4.578125 C19.190099 3.994789 17.895841 3.703125 16.406250 3.703125 C13.541652 3.703125 11.364591 4.773427 9.875000 6.914062 C8.385409 9.054698 7.640625 12.197896 7.640625 16.343750 C7.640625 18.291676 7.820311 20.052075 8.179688 21.625000 C8.539064 23.197925 9.078121 24.539057 9.796875 25.648438 C10.515629 26.757818 11.427078 27.609372 12.531250 28.203125 C13.635422 28.796878 14.927076 29.093750 16.406250 29.093750 Z M16.406250 24.937500 C15.135410 24.937500 14.174482 24.221361 13.523438 22.789062 C12.872393 21.356764 12.546875 19.223973 12.546875 16.390625 C12.546875 13.557278 12.872393 11.419278 13.523438 9.976562 C14.174482 8.533847 15.135410 7.812500 16.406250 7.812500 C17.687506 7.812500 18.648434 8.518222 19.289062 9.929688 C19.929691 11.341153 20.250000 13.494777 20.250000 16.390625 C20.250000 19.276056 19.932295 21.421868 19.296875 22.828125 C18.661455 24.234382 17.697923 24.937500 16.406250 24.937500 Z M2.750000 32.812500 C1.999996 32.812500 1.354169 32.544274 0.812500 32.007812 C0.270831 31.471351 0.000000 30.833337 0.000000 30.093750 L0.000000 2.734375 C0.000000 1.984371 0.268226 1.341149 0.804688 0.804688 C1.341149 0.268226 1.984371 -0.000000 2.734375 -0.000000 L30.078125 -0.000000 C30.828129 -0.000000 31.471351 0.268226 32.007812 0.804688 C32.544274 1.341149 32.812500 1.984371 32.812500 2.734375 L32.812500 30.078125 C32.812500 30.828129 32.544274 31.471351 32.007812 32.007812 C31.471351 32.544274 30.828129 32.812500 30.078125 32.812500 Z M36.718750 27.343750" /></svg>