<svg version="1.1" xmlns="http://www.w3.org/2000/svg" style="fill:rgba(0,0,0,1.0)" width="256" height="256" viewBox="0 0 39.53125 32.8125"><path fill="rgb(255, 255, 255)" d="M4.687500 21.328125 C3.208326 20.901040 2.057296 20.104172 1.234375 18.937500 C0.411454 17.770828 0.000000 16.479174 0.000000 15.062500 C0.000000 14.052078 0.171873 13.140629 0.515625 12.328125 C0.859377 11.515621 1.333330 10.869794 1.937500 10.390625 C2.541670 9.911456 3.223955 9.671875 3.984375 9.671875 C4.494794 9.671875 4.864582 9.854165 5.093750 10.218750 C5.322918 10.583335 5.437500 11.083330 5.437500 11.718750 C5.437500 11.979168 5.414063 12.335935 5.367188 12.789062 C5.320312 13.242190 5.296875 13.593749 5.296875 13.843750 C5.296875 14.416670 5.481769 14.833332 5.851562 15.093750 C6.221356 15.354168 6.765621 15.484375 7.484375 15.484375 C7.765626 15.484375 7.984374 15.481771 8.140625 15.476562 C8.296876 15.471354 8.447916 15.463542 8.593750 15.453125 L8.046875 15.781250 C7.359372 14.916662 6.828127 13.872402 6.453125 12.648438 C6.078123 11.424473 5.822917 9.921884 5.687500 8.140625 C5.635416 7.390621 5.570313 6.783856 5.492188 6.320312 C5.414062 5.856769 5.317709 5.526043 5.203125 5.328125 C4.942707 4.838539 4.591148 4.437502 4.148438 4.125000 C3.705727 3.812498 3.307293 3.502606 2.953125 3.195312 C2.598957 2.888019 2.421875 2.505211 2.421875 2.046875 C2.421875 1.598956 2.601561 1.223960 2.960938 0.921875 C3.320314 0.619790 3.768226 0.390626 4.304688 0.234375 C4.841149 0.078124 5.380206 -0.000000 5.921875 -0.000000 C6.942713 -0.000000 7.848954 0.299476 8.640625 0.898438 C9.432296 1.497399 10.070310 2.283849 10.554688 3.257812 C11.039065 4.231776 11.322916 5.281244 11.406250 6.406250 L11.203125 6.375000 C11.598960 5.510412 12.187496 4.833336 12.968750 4.343750 C13.750004 3.854164 14.635412 3.609375 15.625000 3.609375 C16.531255 3.609375 17.369788 3.807290 18.140625 4.203125 C19.515632 3.484371 20.843744 2.973960 22.125000 2.671875 C23.406256 2.369790 24.692702 2.218750 25.984375 2.218750 C26.890630 2.218750 27.809891 2.278645 28.742188 2.398438 C29.674484 2.518230 30.635412 2.682291 31.625000 2.890625 L31.062500 4.390625 C30.156245 4.213541 29.270838 4.072917 28.406250 3.968750 C27.541662 3.864583 26.692712 3.812500 25.859375 3.812500 C24.536452 3.812500 23.239590 3.976561 21.968750 4.304688 C20.697910 4.632814 19.411465 5.208329 18.109375 6.031250 C17.765623 5.760415 17.382815 5.549480 16.960938 5.398438 C16.539060 5.247395 16.093752 5.171875 15.625000 5.171875 C14.874996 5.171875 14.231774 5.354165 13.695312 5.718750 C13.158851 6.083335 12.747397 6.570309 12.460938 7.179688 C12.174478 7.789066 12.031250 8.468746 12.031250 9.218750 C12.031250 9.760419 12.132811 10.244790 12.335938 10.671875 C12.539064 11.098960 12.812498 11.494790 13.156250 11.859375 C12.833332 11.963542 12.515627 12.015625 12.203125 12.015625 C11.463538 12.015625 10.971355 11.695316 10.726562 11.054688 C10.481770 10.414059 10.302084 9.421882 10.187500 8.078125 C10.125000 7.359371 9.989584 6.500005 9.781250 5.500000 C9.552082 4.385411 9.078129 3.450525 8.359375 2.695312 C7.640621 1.940100 6.880212 1.562500 6.078125 1.562500 C5.755207 1.562500 5.486980 1.624999 5.273438 1.750000 C5.059895 1.875001 4.953125 2.010416 4.953125 2.156250 C4.953125 2.343751 5.109373 2.520833 5.421875 2.687500 C5.734377 2.854167 6.091144 3.078124 6.492188 3.359375 C6.893231 3.640626 7.234374 4.052081 7.515625 4.593750 C7.703126 4.947918 7.848958 5.424476 7.953125 6.023438 C8.057292 6.622399 8.135416 7.291663 8.187500 8.031250 C8.260417 8.968755 8.359374 9.828121 8.484375 10.609375 C8.609376 11.390629 8.869790 12.244787 9.265625 13.171875 C9.557293 13.838545 9.945310 14.440101 10.429688 14.976562 C10.914065 15.513024 11.531246 15.947915 12.281250 16.281250 C12.052082 16.364584 11.643232 16.468749 11.054688 16.593750 C10.466143 16.718751 9.833337 16.825520 9.156250 16.914062 C8.479163 17.002605 7.875003 17.046875 7.343750 17.046875 C6.302078 17.046875 5.447920 16.807294 4.781250 16.328125 C4.114580 15.848956 3.781250 15.125005 3.781250 14.156250 C3.781250 13.781248 3.830729 13.346357 3.929688 12.851562 C4.028646 12.356768 4.078125 12.020834 4.078125 11.843750 C4.078125 11.687499 4.044271 11.572917 3.976562 11.500000 C3.908854 11.427083 3.822917 11.390625 3.718750 11.390625 C3.499999 11.390625 3.278647 11.552082 3.054688 11.875000 C2.830728 12.197918 2.640626 12.604164 2.484375 13.093750 C2.328124 13.583336 2.250000 14.083331 2.250000 14.593750 C2.250000 15.479171 2.489581 16.260413 2.968750 16.937500 C3.447919 17.614587 4.096350 18.143227 4.914062 18.523438 C5.731775 18.903648 6.635412 19.093750 7.625000 19.093750 Z M6.921875 27.703125 C7.161460 27.703125 7.367187 27.635417 7.539062 27.500000 C7.710938 27.364583 7.796875 27.203126 7.796875 27.015625 C7.796875 26.838541 7.710938 26.682292 7.539062 26.546875 C7.367187 26.411458 7.161460 26.343750 6.921875 26.343750 C6.692707 26.343750 6.492188 26.411458 6.320312 26.546875 C6.148437 26.682292 6.062500 26.838541 6.062500 27.015625 C6.062500 27.203126 6.148437 27.364583 6.320312 27.500000 C6.492188 27.635417 6.692707 27.703125 6.921875 27.703125 Z M3.812500 19.828125 C3.958334 19.713541 4.026042 19.549480 4.015625 19.335938 C4.005208 19.122395 3.921876 18.927084 3.765625 18.750000 C3.630208 18.593749 3.458334 18.494792 3.250000 18.453125 C3.041666 18.411458 2.875001 18.442708 2.750000 18.546875 C2.614583 18.651042 2.544271 18.809895 2.539062 19.023438 C2.533854 19.236980 2.609374 19.432291 2.765625 19.609375 C2.921876 19.776042 3.101561 19.880208 3.304688 19.921875 C3.507814 19.963542 3.677083 19.932292 3.812500 19.828125 Z M10.875000 26.671875 C11.083334 26.557291 11.226562 26.398439 11.304688 26.195312 C11.382813 25.992186 11.375000 25.807292 11.281250 25.640625 C11.197916 25.484374 11.046876 25.395833 10.828125 25.375000 C10.609374 25.354167 10.395834 25.401041 10.187500 25.515625 C9.989582 25.619792 9.854167 25.770832 9.781250 25.968750 C9.708333 26.166668 9.708333 26.343749 9.781250 26.500000 C9.864584 26.666668 10.018228 26.765625 10.242188 26.796875 C10.466147 26.828125 10.677082 26.786459 10.875000 26.671875 Z M1.578125 17.234375 C1.755209 17.203125 1.895833 17.093751 2.000000 16.906250 C2.104167 16.718749 2.130209 16.510418 2.078125 16.281250 C2.036458 16.072916 1.937501 15.898438 1.781250 15.757812 C1.624999 15.617187 1.463542 15.562500 1.296875 15.593750 C1.119791 15.625000 0.979167 15.731770 0.875000 15.914062 C0.770833 16.096355 0.739583 16.302082 0.781250 16.531250 C0.833334 16.750001 0.937499 16.929687 1.093750 17.070312 C1.250001 17.210938 1.411458 17.265625 1.578125 17.234375 Z M14.921875 29.406250 C15.088542 29.343750 15.205729 29.208334 15.273438 29.000000 C15.341146 28.791666 15.333334 28.583334 15.250000 28.375000 C15.166666 28.135415 15.033855 27.958334 14.851562 27.843750 C14.669270 27.729166 14.489584 27.703125 14.312500 27.765625 C14.135416 27.828125 14.015625 27.963541 13.953125 28.171875 C13.890625 28.380209 13.895833 28.593749 13.968750 28.812500 C14.052084 29.041668 14.187499 29.216145 14.375000 29.335938 C14.562501 29.455730 14.744791 29.479167 14.921875 29.406250 Z M18.500000 32.093750 C18.739585 32.093750 18.945312 32.026042 19.117188 31.890625 C19.289063 31.755208 19.375000 31.593751 19.375000 31.406250 C19.375000 31.229166 19.289063 31.072917 19.117188 30.937500 C18.945312 30.802083 18.739585 30.734375 18.500000 30.734375 C18.270832 30.734375 18.070313 30.802083 17.898438 30.937500 C17.726562 31.072917 17.640625 31.229166 17.640625 31.406250 C17.640625 31.593751 17.726562 31.755208 17.898438 31.890625 C18.070313 32.026042 18.270832 32.093750 18.500000 32.093750 Z M18.609375 32.812500 C17.619787 32.812500 16.697921 32.526045 15.843750 31.953125 C14.989579 31.380205 14.283857 30.588547 13.726562 29.578125 C13.169268 28.567703 12.838542 27.411465 12.734375 26.109375 C11.942704 26.869795 11.098963 27.447915 10.203125 27.843750 C9.307287 28.239585 8.411463 28.437500 7.515625 28.437500 C6.588537 28.437500 5.760420 28.242189 5.031250 27.851562 C4.302080 27.460936 3.726565 26.924483 3.304688 26.242188 C2.882810 25.559892 2.671875 24.786463 2.671875 23.921875 C2.671875 22.963537 2.940101 22.122399 3.476562 21.398438 C4.013024 20.674476 4.669267 20.109377 5.445312 19.703125 C6.221358 19.296873 6.963538 19.093750 7.671875 19.093750 C8.369795 19.093750 8.929685 19.281248 9.351562 19.656250 C9.773440 20.031252 9.984375 20.526039 9.984375 21.140625 C9.984375 21.713545 9.799481 22.255206 9.429688 22.765625 C9.059894 23.276044 8.562503 23.666665 7.937500 23.937500 L7.125000 22.859375 C7.437502 22.713541 7.684895 22.520835 7.867188 22.281250 C8.049480 22.041665 8.140625 21.817709 8.140625 21.609375 C8.140625 21.432291 8.078126 21.307292 7.953125 21.234375 C7.828124 21.161458 7.656251 21.125000 7.437500 21.125000 C6.749997 21.125000 6.148440 21.338540 5.632812 21.765625 C5.117185 22.192710 4.859375 22.755205 4.859375 23.453125 C4.859375 24.130212 5.114581 24.692706 5.625000 25.140625 C6.135419 25.588544 6.765621 25.812500 7.515625 25.812500 C8.390629 25.812500 9.390619 25.450524 10.515625 24.726562 C11.640631 24.002601 12.984367 22.869799 14.546875 21.328125 C14.546875 24.223973 14.914059 26.419263 15.648438 27.914062 C16.382816 29.408862 17.369785 30.156250 18.609375 30.156250 C19.380212 30.156250 20.026039 29.895836 20.546875 29.375000 C21.067711 28.854164 21.328125 28.182296 21.328125 27.359375 C21.328125 26.838539 21.208335 26.416668 20.968750 26.093750 C20.729165 25.770832 20.447918 25.609375 20.125000 25.609375 C19.833332 25.609375 19.598959 25.731770 19.421875 25.976562 C19.244791 26.221355 19.156250 26.494790 19.156250 26.796875 L17.609375 26.796875 C17.609375 25.901037 17.861977 25.166670 18.367188 24.593750 C18.872398 24.020830 19.520829 23.734375 20.312500 23.734375 C20.916670 23.734375 21.471352 23.898436 21.976562 24.226562 C22.481773 24.554689 22.890623 24.994789 23.203125 25.546875 C23.515627 26.098961 23.671875 26.703122 23.671875 27.359375 C23.671875 28.348963 23.445315 29.257808 22.992188 30.085938 C22.539060 30.914067 21.929691 31.575518 21.164062 32.070312 C20.398434 32.565107 19.546880 32.812500 18.609375 32.812500 Z M1.234375 14.109375 C1.411459 14.140625 1.578124 14.085938 1.734375 13.945312 C1.890626 13.804687 1.989583 13.619793 2.031250 13.390625 C2.072917 13.171874 2.044271 12.973959 1.945312 12.796875 C1.846354 12.619791 1.713542 12.510417 1.546875 12.468750 C1.369791 12.427083 1.197918 12.479166 1.031250 12.625000 C0.864582 12.770834 0.765625 12.953124 0.734375 13.171875 C0.703125 13.401043 0.736979 13.606770 0.835938 13.789062 C0.934896 13.971355 1.067708 14.078125 1.234375 14.109375 Z M21.531250 30.171875 C21.677084 30.255209 21.841145 30.263021 22.023438 30.195312 C22.205730 30.127604 22.348958 30.000001 22.453125 29.812500 C22.567709 29.624999 22.611979 29.427084 22.585938 29.218750 C22.559896 29.010416 22.473959 28.869792 22.328125 28.796875 C22.192708 28.713541 22.026043 28.710937 21.828125 28.789062 C21.630207 28.867188 21.484375 28.999999 21.390625 29.187500 C21.296875 29.375001 21.263021 29.565103 21.289062 29.757812 C21.315104 29.950522 21.395833 30.088541 21.531250 30.171875 Z M7.656250 12.546875 C7.833334 12.515625 7.968750 12.406251 8.062500 12.218750 C8.156250 12.031249 8.187500 11.822918 8.156250 11.593750 C8.125000 11.385416 8.031251 11.210938 7.875000 11.070312 C7.718749 10.929687 7.552084 10.875000 7.375000 10.906250 C7.197916 10.937500 7.057292 11.044270 6.953125 11.226562 C6.848958 11.408855 6.817708 11.614582 6.859375 11.843750 C6.911459 12.062501 7.015624 12.242187 7.171875 12.382812 C7.328126 12.523438 7.489582 12.578125 7.656250 12.546875 Z M26.187500 28.187500 C26.416668 28.270834 26.627603 28.278646 26.820312 28.210938 C27.013022 28.143229 27.140625 28.026042 27.203125 27.859375 C27.276042 27.671874 27.255209 27.492188 27.140625 27.320312 C27.026041 27.148437 26.854168 27.015625 26.625000 26.921875 C26.416666 26.838541 26.210939 26.825521 26.007812 26.882812 C25.804686 26.940104 25.666667 27.057291 25.593750 27.234375 C25.520833 27.421876 25.546874 27.606770 25.671875 27.789062 C25.796876 27.971355 25.968749 28.104166 26.187500 28.187500 Z M6.906250 8.812500 C7.083334 8.812500 7.236979 8.729167 7.367188 8.562500 C7.497396 8.395833 7.562500 8.197918 7.562500 7.968750 C7.562500 7.739582 7.497396 7.544272 7.367188 7.382812 C7.236979 7.221353 7.083334 7.140625 6.906250 7.140625 C6.729166 7.140625 6.575521 7.221353 6.445312 7.382812 C6.315104 7.544272 6.250000 7.739582 6.250000 7.968750 C6.250000 8.197918 6.315104 8.395833 6.445312 8.562500 C6.575521 8.729167 6.729166 8.812500 6.906250 8.812500 Z M6.265625 5.468750 C6.463543 5.468750 6.604166 5.401042 6.687500 5.265625 C6.770834 5.130208 6.812500 4.989584 6.812500 4.843750 C6.812500 4.572915 6.726563 4.346355 6.554688 4.164062 C6.382812 3.981770 6.192709 3.890625 5.984375 3.890625 C5.817708 3.890625 5.684896 3.953124 5.585938 4.078125 C5.486979 4.203126 5.437500 4.354166 5.437500 4.531250 C5.437500 4.791668 5.526041 5.013020 5.703125 5.195312 C5.880209 5.377605 6.067707 5.468750 6.265625 5.468750 Z M30.875000 28.750000 C31.114585 28.750000 31.320312 28.682292 31.492188 28.546875 C31.664063 28.411458 31.750000 28.250001 31.750000 28.062500 C31.750000 27.885416 31.664063 27.729167 31.492188 27.593750 C31.320312 27.458333 31.114585 27.390625 30.875000 27.390625 C30.645832 27.390625 30.445313 27.458333 30.273438 27.593750 C30.101562 27.729167 30.015625 27.885416 30.015625 28.062500 C30.015625 28.250001 30.101562 28.411458 30.273438 28.546875 C30.445313 28.682292 30.645832 28.750000 30.875000 28.750000 Z M23.765625 19.578125 C23.463540 19.578125 23.210939 19.468751 23.007812 19.250000 C22.804686 19.031249 22.703125 18.765627 22.703125 18.453125 C22.703125 18.057290 22.838540 17.700522 23.109375 17.382812 C23.380210 17.065103 23.708331 16.906250 24.093750 16.906250 C24.416668 16.906250 24.677082 17.015624 24.875000 17.234375 C25.072918 17.453126 25.171875 17.729165 25.171875 18.062500 C25.171875 18.447919 25.036460 18.796873 24.765625 19.109375 C24.494790 19.421877 24.161460 19.578125 23.765625 19.578125 Z M20.125000 13.546875 C19.749998 13.546875 19.427085 13.385418 19.156250 13.062500 C18.885415 12.739582 18.750000 12.354169 18.750000 11.906250 C18.750000 11.447914 18.885415 11.059897 19.156250 10.742188 C19.427085 10.424478 19.749998 10.265625 20.125000 10.265625 C20.510419 10.265625 20.833332 10.424478 21.093750 10.742188 C21.354168 11.059897 21.484375 11.447914 21.484375 11.906250 C21.484375 12.364586 21.354168 12.752603 21.093750 13.070312 C20.833332 13.388022 20.510419 13.546875 20.125000 13.546875 Z M15.765625 13.796875 C15.494790 13.140622 15.359375 12.473962 15.359375 11.796875 C15.359375 10.890620 15.578123 10.065108 16.015625 9.320312 C16.453127 8.575517 17.041663 7.981773 17.781250 7.539062 C18.520837 7.096352 19.333329 6.875000 20.218750 6.875000 C20.500001 6.875000 20.791665 6.901041 21.093750 6.953125 C21.395835 7.005209 21.692707 7.088541 21.984375 7.203125 L21.421875 8.671875 C21.213541 8.588541 21.013022 8.528646 20.820312 8.492188 C20.627603 8.455729 20.427084 8.437500 20.218750 8.437500 C19.614580 8.437500 19.062502 8.588540 18.562500 8.890625 C18.062498 9.192710 17.664064 9.598956 17.367188 10.109375 C17.070311 10.619794 16.921875 11.182289 16.921875 11.796875 C16.921875 12.244794 17.015624 12.713539 17.203125 13.203125 Z M35.468750 27.265625 C35.677084 27.151041 35.825520 26.989584 35.914062 26.781250 C36.002605 26.572916 35.994792 26.385418 35.890625 26.218750 C35.796875 26.062499 35.643230 25.973958 35.429688 25.953125 C35.216145 25.932292 35.010418 25.979166 34.812500 26.093750 C34.614582 26.218751 34.471355 26.377603 34.382812 26.570312 C34.294270 26.763022 34.302083 26.947916 34.406250 27.125000 C34.489584 27.270834 34.635416 27.361979 34.843750 27.398438 C35.052084 27.434896 35.260416 27.390626 35.468750 27.265625 Z M32.859375 19.875000 C33.005209 19.968750 33.174478 19.976563 33.367188 19.898438 C33.559897 19.820312 33.713541 19.682293 33.828125 19.484375 C33.942709 19.286457 33.984375 19.083334 33.953125 18.875000 C33.921875 18.666666 33.828126 18.520834 33.671875 18.437500 C33.526041 18.354166 33.356772 18.348958 33.164062 18.421875 C32.971353 18.494792 32.817709 18.630207 32.703125 18.828125 C32.588541 19.026043 32.546875 19.226561 32.578125 19.429688 C32.609375 19.632814 32.703124 19.781250 32.859375 19.875000 Z M30.171875 29.437500 C29.130203 29.437500 27.955736 29.296876 26.648438 29.015625 C25.341139 28.734374 23.927091 28.307295 22.406250 27.734375 L22.406250 25.031250 C23.989591 25.625003 25.427077 26.065103 26.718750 26.351562 C28.010423 26.638022 29.161453 26.781250 30.171875 26.781250 C31.380214 26.781250 32.455724 26.601564 33.398438 26.242188 C34.341151 25.882811 35.080726 25.390628 35.617188 24.765625 C36.153649 24.140622 36.421875 23.442712 36.421875 22.671875 C36.421875 22.578125 36.395834 22.494792 36.343750 22.421875 C36.291666 22.348958 36.218750 22.312500 36.125000 22.312500 C36.041666 22.312500 35.937501 22.356770 35.812500 22.445312 C35.687499 22.533855 35.520834 22.697915 35.312500 22.937500 C34.843748 23.489586 34.268233 23.903644 33.585938 24.179688 C32.903642 24.455731 32.177087 24.593750 31.406250 24.593750 C30.395828 24.593750 29.479171 24.346357 28.656250 23.851562 C27.833329 23.356768 27.119795 22.619797 26.515625 21.640625 C28.598969 21.640625 30.213536 20.989590 31.359375 19.687500 C32.505214 18.385410 33.078125 16.604178 33.078125 14.343750 L33.078125 11.531250 C33.078125 10.447911 33.080729 9.598961 33.085938 8.984375 C33.091146 8.369789 33.114583 7.786461 33.156250 7.234375 C33.218750 6.380204 33.453123 5.533858 33.859375 4.695312 C34.265627 3.856767 34.755205 3.197919 35.328125 2.718750 C35.453126 2.604166 35.546875 2.494792 35.609375 2.390625 C35.671875 2.286458 35.703125 2.197917 35.703125 2.125000 C35.703125 2.031250 35.661459 1.958334 35.578125 1.906250 C35.494791 1.854166 35.375001 1.828125 35.218750 1.828125 C34.468746 1.828125 33.783857 2.109372 33.164062 2.671875 C32.544268 3.234378 32.010419 4.057286 31.562500 5.140625 C31.291665 5.796878 31.078126 6.546871 30.921875 7.390625 C30.765624 8.234379 30.653646 9.315098 30.585938 10.632812 C30.518229 11.950527 30.484375 13.651031 30.484375 15.734375 C30.442708 17.098965 30.028650 18.124997 29.242188 18.812500 C28.455725 19.500003 27.348965 19.843750 25.921875 19.843750 C26.119793 19.447915 26.260416 19.080731 26.343750 18.742188 C26.427084 18.403644 26.468750 18.093751 26.468750 17.812500 C26.468750 17.343748 26.367189 16.953127 26.164062 16.640625 C25.960936 16.328123 25.697918 16.083334 25.375000 15.906250 L26.000000 14.812500 C26.447919 15.072918 26.872394 15.260416 27.273438 15.375000 C27.674481 15.489584 28.223955 15.562500 28.921875 15.593750 C28.921875 13.458323 28.960937 11.705736 29.039062 10.335938 C29.117188 8.966139 29.244791 7.833338 29.421875 6.937500 C29.598959 6.041662 29.833332 5.244795 30.125000 4.546875 C30.697920 3.161451 31.421871 2.101566 32.296875 1.367188 C33.171879 0.632809 34.145828 0.265625 35.218750 0.265625 C35.593752 0.265625 36.028643 0.341145 36.523438 0.492188 C37.018232 0.643230 37.450519 0.856769 37.820312 1.132812 C38.190106 1.408856 38.375000 1.739581 38.375000 2.125000 C38.375000 2.750003 38.088545 3.328122 37.515625 3.859375 C37.078123 4.265627 36.705731 4.789059 36.398438 5.429688 C36.091144 6.070316 35.895834 6.734372 35.812500 7.421875 C35.760416 7.890627 35.729167 8.388018 35.718750 8.914062 C35.708333 9.440107 35.703125 10.182287 35.703125 11.140625 C35.703125 11.588544 35.710937 12.098955 35.726562 12.671875 C35.742188 13.244795 35.750000 13.901038 35.750000 14.640625 C35.750000 16.640635 35.299484 18.346347 34.398438 19.757812 C33.497391 21.169278 32.182300 22.223955 30.453125 22.921875 C30.598959 22.963542 30.752603 22.992187 30.914062 23.007812 C31.075522 23.023438 31.239582 23.031250 31.406250 23.031250 C31.895836 23.031250 32.367185 22.950522 32.820312 22.789062 C33.273440 22.627603 33.760414 22.286461 34.281250 21.765625 C34.708335 21.338540 35.091144 21.039063 35.429688 20.867188 C35.768231 20.695312 36.098957 20.609375 36.421875 20.609375 C36.953128 20.609375 37.369790 20.815102 37.671875 21.226562 C37.973960 21.638023 38.125000 22.229163 38.125000 23.000000 C38.125000 24.218756 37.789066 25.312495 37.117188 26.281250 C36.445309 27.250005 35.513027 28.018226 34.320312 28.585938 C33.127598 29.153649 31.744800 29.437500 30.171875 29.437500 Z M34.343750 14.375000 C34.520834 14.375000 34.674479 14.291667 34.804688 14.125000 C34.934896 13.958333 35.000000 13.760418 35.000000 13.531250 C35.000000 13.302082 34.934896 13.106772 34.804688 12.945312 C34.674479 12.783853 34.520834 12.703125 34.343750 12.703125 C34.166666 12.703125 34.013021 12.783853 33.882812 12.945312 C33.752604 13.106772 33.687500 13.302082 33.687500 13.531250 C33.687500 13.760418 33.752604 13.958333 33.882812 14.125000 C34.013021 14.291667 34.166666 14.375000 34.343750 14.375000 Z M34.250000 8.984375 C34.427084 9.005208 34.591145 8.947917 34.742188 8.812500 C34.893230 8.677083 34.989583 8.500001 35.031250 8.281250 C35.083334 8.052082 35.057292 7.843751 34.953125 7.656250 C34.848958 7.468749 34.703126 7.364583 34.515625 7.343750 C34.348958 7.322917 34.187501 7.380208 34.031250 7.515625 C33.874999 7.651042 33.781250 7.822916 33.750000 8.031250 C33.718750 8.260418 33.750000 8.471353 33.843750 8.664062 C33.937500 8.856772 34.072916 8.963542 34.250000 8.984375 Z M35.265625 15.515625 L35.343750 13.375000 C35.875003 12.854164 36.263020 12.309899 36.507812 11.742188 C36.752605 11.174476 36.875000 10.541670 36.875000 9.843750 C36.875000 7.666656 35.921885 6.041672 34.015625 4.968750 L34.890625 3.687500 C36.026047 4.354170 36.901039 5.213536 37.515625 6.265625 C38.130211 7.317714 38.437500 8.510410 38.437500 9.843750 C38.437500 11.031256 38.171878 12.093745 37.640625 13.031250 C37.109372 13.968755 36.317714 14.796871 35.265625 15.515625 Z M39.531250 27.343750" /></svg>