<svg version="1.1" xmlns="http://www.w3.org/2000/svg" style="fill:rgba(0,0,0,1.0)" width="256" height="256" viewBox="0 0 31.59375 32.8125"><path fill="rgb(255, 255, 255)" d="M11.281250 32.812500 C9.177073 32.812500 7.270842 32.583336 5.562500 32.125000 C3.854158 31.666664 2.500005 31.046879 1.500000 30.265625 C0.499995 29.484371 0.000000 28.614588 0.000000 27.656250 C0.000000 27.135414 0.151040 26.619794 0.453125 26.109375 L0.453125 21.843750 C0.151040 21.364581 0.000000 20.854169 0.000000 20.312500 C0.000000 19.770831 0.151040 19.255211 0.453125 18.765625 L0.453125 14.171875 C0.151040 13.692706 0.000000 13.182294 0.000000 12.640625 C0.000000 12.119789 0.151040 11.604169 0.453125 11.093750 L0.453125 6.390625 L2.328125 6.390625 L2.328125 11.593750 C2.026040 11.968752 1.875000 12.317707 1.875000 12.640625 C1.875000 12.963543 2.026040 13.307290 2.328125 13.671875 L2.328125 19.281250 C2.026040 19.625002 1.875000 19.968748 1.875000 20.312500 C1.875000 20.635418 2.026040 20.979165 2.328125 21.343750 L2.328125 26.609375 C2.026040 26.984377 1.875000 27.333332 1.875000 27.656250 C1.875000 28.270836 2.307287 28.841143 3.171875 29.367188 C4.036463 29.893232 5.182285 30.312498 6.609375 30.625000 C8.036465 30.937502 9.593742 31.093750 11.281250 31.093750 C11.833336 31.093750 12.374997 31.072917 12.906250 31.031250 C13.437503 30.989583 13.953123 30.932292 14.453125 30.859375 C14.328124 30.807291 14.223959 30.726563 14.140625 30.617188 C14.057291 30.507812 14.015625 30.375001 14.015625 30.218750 L14.015625 27.171875 C14.015625 26.848957 13.898439 26.588543 13.664062 26.390625 C13.429686 26.192707 13.156252 26.093750 12.843750 26.093750 C11.729161 26.093750 10.851566 26.083333 10.210938 26.062500 C9.570309 26.041667 9.083335 26.010417 8.750000 25.968750 C8.416665 25.927083 8.140626 25.880209 7.921875 25.828125 L7.921875 24.171875 C8.880213 24.296876 9.828120 24.359375 10.765625 24.359375 C11.994798 24.359375 13.197911 24.244793 14.375000 24.015625 C15.552089 23.786457 16.617183 23.476564 17.570312 23.085938 C18.523442 22.695311 19.281247 22.260419 19.843750 21.781250 C20.406253 21.302081 20.687500 20.812502 20.687500 20.312500 C20.687500 20.135416 20.653646 19.968751 20.585938 19.812500 C20.518229 19.656249 20.406251 19.489584 20.250000 19.312500 C20.072916 19.812502 19.690107 20.273435 19.101562 20.695312 C18.513018 21.117190 17.835941 21.455728 17.070312 21.710938 C16.304684 21.966147 15.562504 22.093750 14.843750 22.093750 C14.624999 22.093750 14.432292 22.031251 14.265625 21.906250 C14.098958 21.781249 14.015625 21.604168 14.015625 21.375000 L14.015625 19.500000 C14.015625 19.177082 13.898439 18.916668 13.664062 18.718750 C13.429686 18.520832 13.156252 18.421875 12.843750 18.421875 C11.729161 18.421875 10.851566 18.411458 10.210938 18.390625 C9.570309 18.369792 9.083335 18.338542 8.750000 18.296875 C8.416665 18.255208 8.140626 18.208334 7.921875 18.156250 L7.921875 16.500000 C8.880213 16.625001 9.828120 16.687500 10.765625 16.687500 C11.994798 16.687500 13.197911 16.572918 14.375000 16.343750 C15.552089 16.114582 16.617183 15.804689 17.570312 15.414062 C18.523442 15.023436 19.281247 14.588544 19.843750 14.109375 C20.406253 13.630206 20.687500 13.140628 20.687500 12.640625 C20.687500 12.307290 20.541668 11.973960 20.250000 11.640625 C20.072916 12.140628 19.690107 12.601560 19.101562 13.023438 C18.513018 13.445315 17.835941 13.783853 17.070312 14.039062 C16.304684 14.294272 15.562504 14.421875 14.843750 14.421875 C14.624999 14.421875 14.432292 14.359376 14.265625 14.234375 C14.098958 14.109374 14.015625 13.932293 14.015625 13.703125 L14.015625 11.015625 C14.015625 10.692707 13.898439 10.432293 13.664062 10.234375 C13.429686 10.036457 13.156252 9.937500 12.843750 9.937500 L18.406250 8.468750 L22.125000 6.156250 L22.125000 11.140625 C22.416668 11.630211 22.562500 12.130206 22.562500 12.640625 C22.562500 13.151044 22.416668 13.651039 22.125000 14.140625 L22.125000 18.812500 C22.416668 19.312502 22.562500 19.812498 22.562500 20.312500 C22.562500 20.822919 22.416668 21.328122 22.125000 21.828125 L22.125000 26.156250 C22.416668 26.645836 22.562500 27.145831 22.562500 27.656250 C22.562500 28.395837 22.265628 29.080726 21.671875 29.710938 C21.078122 30.341149 20.260422 30.888019 19.218750 31.351562 C18.177078 31.815106 16.976569 32.174478 15.617188 32.429688 C14.257806 32.684897 12.812508 32.812500 11.281250 32.812500 Z M7.125000 5.156250 C6.677081 5.156250 6.289064 5.083334 5.960938 4.937500 C5.632811 4.791666 5.468750 4.614584 5.468750 4.406250 L5.468750 3.718750 C5.468750 3.541666 5.635415 3.388021 5.968750 3.257812 C6.302085 3.127604 6.687498 3.062500 7.125000 3.062500 C7.562502 3.062500 7.947915 3.127604 8.281250 3.257812 C8.614585 3.388021 8.781250 3.541666 8.781250 3.718750 L8.781250 4.406250 C8.781250 4.614584 8.619793 4.791666 8.296875 4.937500 C7.973957 5.083334 7.583336 5.156250 7.125000 5.156250 Z M11.281250 10.296875 C10.093744 10.296875 8.846361 10.192709 7.539062 9.984375 C6.231764 9.776041 5.007818 9.460940 3.867188 9.039062 C2.726557 8.617185 1.796879 8.080732 1.078125 7.429688 C0.359371 6.778643 0.000000 6.015629 0.000000 5.140625 C0.000000 4.171870 0.502599 3.299483 1.507812 2.523438 C2.513026 1.747392 3.867179 1.132815 5.570312 0.679688 C7.273446 0.226560 9.177073 -0.000000 11.281250 -0.000000 C13.406261 -0.000000 15.320304 0.229164 17.023438 0.687500 C18.726571 1.145836 20.075516 1.763017 21.070312 2.539062 C22.065109 3.315108 22.562500 4.182287 22.562500 5.140625 C22.562500 6.026046 22.200524 6.794268 21.476562 7.445312 C20.752601 8.096357 19.817714 8.632810 18.671875 9.054688 C17.526036 9.476565 16.299486 9.789061 14.992188 9.992188 C13.684889 10.195314 12.447922 10.296875 11.281250 10.296875 Z M11.281250 8.734375 C12.187505 8.734375 13.179682 8.656251 14.257812 8.500000 C15.335943 8.343749 16.364578 8.114585 17.343750 7.812500 C18.322922 7.510415 19.124997 7.135419 19.750000 6.687500 C20.375003 6.239581 20.687500 5.723961 20.687500 5.140625 C20.687500 4.526039 20.257817 3.958336 19.398438 3.437500 C18.539058 2.916664 17.395840 2.500002 15.968750 2.187500 C14.541660 1.874998 12.984383 1.718750 11.296875 1.718750 C9.598950 1.718750 8.036465 1.874998 6.609375 2.187500 C5.182285 2.500002 4.036463 2.914060 3.171875 3.429688 C2.307287 3.945315 1.875000 4.515622 1.875000 5.140625 C1.875000 5.734378 2.190101 6.255206 2.820312 6.703125 C3.450524 7.151044 4.255203 7.526040 5.234375 7.828125 C6.213547 8.130210 7.242182 8.356770 8.320312 8.507812 C9.398443 8.658855 10.385412 8.734375 11.281250 8.734375 Z M15.406250 6.656250 C14.895831 6.656250 14.463543 6.578126 14.109375 6.421875 C13.755207 6.265624 13.578125 6.078126 13.578125 5.859375 L13.578125 5.078125 C13.578125 4.890624 13.763019 4.726563 14.132812 4.585938 C14.502606 4.445312 14.927081 4.375000 15.406250 4.375000 C15.895836 4.375000 16.322915 4.445312 16.687500 4.585938 C17.052085 4.726563 17.234375 4.890624 17.234375 5.078125 L17.234375 5.859375 C17.234375 6.078126 17.057293 6.265624 16.703125 6.421875 C16.348957 6.578126 15.916669 6.656250 15.406250 6.656250 Z M31.593750 27.343750" /></svg>