<svg version="1.1" xmlns="http://www.w3.org/2000/svg" style="fill:rgba(0,0,0,1.0)" width="256" height="256" viewBox="0 0 36.71875 32.8125"><path fill="rgb(255, 255, 255)" d="M2.750000 32.812500 C1.999996 32.812500 1.354169 32.544274 0.812500 32.007812 C0.270831 31.471351 0.000000 30.833337 0.000000 30.093750 L0.000000 2.734375 C0.000000 1.984371 0.268226 1.341149 0.804688 0.804688 C1.341149 0.268226 1.984371 -0.000000 2.734375 -0.000000 L30.078125 -0.000000 C30.828129 -0.000000 31.471351 0.268226 32.007812 0.804688 C32.544274 1.341149 32.812500 1.984371 32.812500 2.734375 L32.812500 30.078125 C32.812500 30.828129 32.544274 31.471351 32.007812 32.007812 C31.471351 32.544274 30.828129 32.812500 30.078125 32.812500 Z M10.562500 29.218750 C11.854173 29.218750 12.994787 28.976565 13.984375 28.492188 C14.973963 28.007810 15.749997 27.341150 16.312500 26.492188 C16.875003 25.643225 17.156250 24.671880 17.156250 23.578125 C17.156250 23.078122 17.088542 22.583336 16.953125 22.093750 C16.817708 21.604164 16.671876 21.130211 16.515625 20.671875 L16.265625 19.921875 C16.223958 19.817708 16.203125 19.729167 16.203125 19.656250 C16.203125 19.489582 16.369790 19.359375 16.703125 19.265625 C17.682297 18.994790 18.523434 18.549482 19.226562 17.929688 C19.929691 17.309893 20.567705 16.671878 21.140625 16.015625 C21.713545 15.359372 22.265622 14.794273 22.796875 14.320312 C23.328128 13.846352 23.927080 13.609375 24.593750 13.609375 C25.354170 13.609375 25.940102 14.023433 26.351562 14.851562 C26.763023 15.679692 26.968750 16.895825 26.968750 18.500000 C26.968750 20.093758 26.614587 21.320308 25.906250 22.179688 C25.197913 23.039067 24.192715 23.468750 22.890625 23.468750 C22.328122 23.468750 21.809898 23.369793 21.335938 23.171875 C20.861977 22.973957 20.416669 22.640627 20.000000 22.171875 C19.874999 22.036458 19.734376 21.968750 19.578125 21.968750 C19.234373 21.968750 19.062500 22.161456 19.062500 22.546875 C19.062500 23.057294 19.244790 23.627601 19.609375 24.257812 C19.973960 24.888024 20.510413 25.432289 21.218750 25.890625 C21.927087 26.348961 22.791662 26.578125 23.812500 26.578125 C27.208350 26.578125 28.906250 23.770861 28.906250 18.156250 C28.906250 16.822910 28.682294 15.653651 28.234375 14.648438 C27.786456 13.643224 27.161462 12.861982 26.359375 12.304688 C25.557288 11.747393 24.619797 11.468750 23.546875 11.468750 C22.703121 11.468750 21.994795 11.645832 21.421875 12.000000 C20.848955 12.354168 20.364585 12.799476 19.968750 13.335938 C19.572915 13.872399 19.218752 14.416664 18.906250 14.968750 C18.614582 15.500003 18.304689 15.984373 17.976562 16.421875 C17.648436 16.859377 17.247398 17.210936 16.773438 17.476562 C16.299477 17.742189 15.687504 17.875000 14.937500 17.875000 C14.385414 17.875000 13.953127 17.809896 13.640625 17.679688 C13.328123 17.549479 13.171875 17.416667 13.171875 17.281250 C13.171875 17.177083 13.307290 17.005210 13.578125 16.765625 C13.921877 16.463540 14.322914 16.072919 14.781250 15.593750 C15.239586 15.114581 15.640623 14.539066 15.984375 13.867188 C16.328127 13.195309 16.500000 12.427088 16.500000 11.562500 C16.500000 10.510411 16.070317 9.692711 15.210938 9.109375 C14.351558 8.526039 13.161466 8.234375 11.640625 8.234375 C10.588536 8.234375 9.539068 8.445310 8.492188 8.867188 C7.445307 9.289065 6.578128 9.760414 5.890625 10.281250 C5.723958 10.416667 5.640625 10.567708 5.640625 10.734375 C5.640625 10.838542 5.671875 10.953124 5.734375 11.078125 L6.718750 12.781250 C6.843751 13.010418 7.010416 13.125000 7.218750 13.125000 C7.375001 13.125000 7.520833 13.072917 7.656250 12.968750 C9.322925 11.781244 10.776035 11.187500 12.015625 11.187500 C12.640628 11.187500 13.135415 11.299478 13.500000 11.523438 C13.864585 11.747397 14.046875 12.041665 14.046875 12.406250 C14.046875 13.020836 13.843752 13.585935 13.437500 14.101562 C13.031248 14.617190 12.484378 15.026040 11.796875 15.328125 C11.109372 15.630210 10.343754 15.781250 9.500000 15.781250 C9.010414 15.781250 8.765625 15.979165 8.765625 16.375000 C8.765625 16.697918 8.877603 17.075519 9.101562 17.507812 C9.325522 17.940106 9.604165 18.322915 9.937500 18.656250 C10.218751 18.927085 10.559894 19.117187 10.960938 19.226562 C11.361981 19.335938 11.755206 19.421875 12.140625 19.484375 C12.630211 19.557292 13.072915 19.653645 13.468750 19.773438 C13.864585 19.893230 14.179686 20.109373 14.414062 20.421875 C14.648439 20.734377 14.765625 21.223955 14.765625 21.890625 C14.765625 22.390628 14.617189 22.934893 14.320312 23.523438 C14.023436 24.111982 13.557295 24.614581 12.921875 25.031250 C12.286455 25.447919 11.453130 25.656250 10.421875 25.656250 C9.421870 25.656250 8.502608 25.442710 7.664062 25.015625 C6.825517 24.588540 6.122399 24.091149 5.554688 23.523438 C4.986976 22.955726 4.593751 22.473960 4.375000 22.078125 C4.270833 21.880207 4.119793 21.781250 3.921875 21.781250 C3.786458 21.781250 3.666667 21.828125 3.562500 21.921875 C3.458333 22.015625 3.406250 22.151041 3.406250 22.328125 C3.406250 23.046879 3.578123 23.804684 3.921875 24.601562 C4.265627 25.398441 4.755205 26.145830 5.390625 26.843750 C6.026045 27.541670 6.781246 28.111977 7.656250 28.554688 C8.531254 28.997398 9.499995 29.218750 10.562500 29.218750 Z M21.390625 10.484375 C22.223962 10.484375 23.044267 10.354168 23.851562 10.093750 C24.658858 9.833332 25.374997 9.513023 26.000000 9.132812 C26.625003 8.752602 27.072915 8.390627 27.343750 8.046875 C27.406250 7.963541 27.437500 7.880209 27.437500 7.796875 C27.437500 7.640624 27.348959 7.484376 27.171875 7.328125 L26.000000 6.265625 C25.864583 6.140624 25.713542 6.078125 25.546875 6.078125 C25.421874 6.078125 25.302084 6.125000 25.187500 6.218750 C24.427080 6.885420 23.658858 7.351561 22.882812 7.617188 C22.106767 7.882814 21.218755 8.015625 20.218750 8.015625 C19.437496 8.015625 18.677087 7.882814 17.937500 7.617188 C17.197913 7.351561 16.572919 6.984377 16.062500 6.515625 C15.864582 6.328124 15.661459 6.234375 15.453125 6.234375 C15.119790 6.234375 14.953125 6.442706 14.953125 6.859375 C14.953125 7.473961 15.263018 8.059893 15.882812 8.617188 C16.502607 9.174482 17.304683 9.624998 18.289062 9.968750 C19.273442 10.312502 20.307286 10.484375 21.390625 10.484375 Z M21.156250 7.296875 C21.416668 7.296875 21.640624 7.203126 21.828125 7.015625 L22.921875 5.921875 C23.109376 5.734374 23.203125 5.510418 23.203125 5.250000 C23.203125 4.989582 23.109376 4.765626 22.921875 4.578125 L21.828125 3.484375 C21.640624 3.296874 21.416668 3.203125 21.156250 3.203125 C20.895832 3.203125 20.671876 3.296874 20.484375 3.484375 L19.390625 4.578125 C19.203124 4.765626 19.109375 4.989582 19.109375 5.250000 C19.109375 5.510418 19.203124 5.734374 19.390625 5.921875 L20.484375 7.015625 C20.671876 7.203126 20.895832 7.296875 21.156250 7.296875 Z M36.718750 27.343750" /></svg>