<svg version="1.1" xmlns="http://www.w3.org/2000/svg" style="fill:rgba(0,0,0,1.0)" width="256" height="256" viewBox="0 0 39.0625 31.25"><path fill="rgb(255, 255, 255)" d="M18.750000 28.046875 C16.614573 28.046875 14.528656 27.984376 12.492188 27.859375 C10.455719 27.734374 8.437510 27.557293 6.437500 27.328125 C5.458328 27.213541 4.627608 26.825524 3.945312 26.164062 C3.263017 25.502601 2.859376 24.677088 2.734375 23.687500 C2.661458 23.062497 2.601563 22.432295 2.554688 21.796875 C2.507812 21.161455 2.484375 20.531253 2.484375 19.906250 C2.484375 18.385409 2.664061 16.947923 3.023438 15.593750 C3.382814 14.239577 3.833331 13.130213 4.375000 12.265625 L7.890625 2.609375 C8.161460 1.859371 8.653642 1.309898 9.367188 0.960938 C10.080733 0.611977 10.843746 0.401042 11.656250 0.328125 C12.833339 0.213541 14.015619 0.130209 15.203125 0.078125 C16.390631 0.026041 17.572911 -0.000000 18.750000 -0.000000 C19.927089 -0.000000 21.109369 0.026041 22.296875 0.078125 C23.484381 0.130209 24.666661 0.213541 25.843750 0.328125 C26.656254 0.401042 27.419267 0.611977 28.132812 0.960938 C28.846358 1.309898 29.338540 1.859371 29.609375 2.609375 L33.125000 12.265625 C33.666669 13.130213 34.117186 14.239577 34.476562 15.593750 C34.835939 16.947923 35.015625 18.385409 35.015625 19.906250 C35.015625 20.531253 34.994792 21.161455 34.953125 21.796875 C34.911458 22.432295 34.848959 23.062497 34.765625 23.687500 C34.640624 24.677088 34.239587 25.502601 33.562500 26.164062 C32.885413 26.825524 32.052088 27.213541 31.062500 27.328125 C29.062490 27.557293 27.046885 27.734374 25.015625 27.859375 C22.984365 27.984376 20.895844 28.046875 18.750000 28.046875 Z M4.656250 31.250000 C4.364582 31.250000 4.125001 31.156251 3.937500 30.968750 C3.749999 30.781249 3.656250 30.541668 3.656250 30.250000 L3.656250 25.500000 L8.031250 27.375000 L8.031250 30.250000 C8.031250 30.541668 7.934897 30.781249 7.742188 30.968750 C7.549478 31.156251 7.312501 31.250000 7.031250 31.250000 Z M2.750000 12.031250 C1.802079 12.031250 1.106773 11.950522 0.664062 11.789062 C0.221352 11.627603 0.000000 11.375002 0.000000 11.031250 C0.000000 10.343747 0.226560 9.773440 0.679688 9.320312 C1.132815 8.867185 1.703122 8.640625 2.390625 8.640625 L3.015625 8.640625 C3.348960 8.640625 3.624999 8.749999 3.843750 8.968750 C4.062501 9.187501 4.171875 9.463540 4.171875 9.796875 L4.171875 10.296875 L5.281250 10.296875 L5.515625 11.796875 C5.057289 11.869792 4.596356 11.927083 4.132812 11.968750 C3.669269 12.010417 3.208336 12.031250 2.750000 12.031250 Z M8.468750 17.843750 C7.833330 17.843750 7.302085 17.630210 6.875000 17.203125 C6.447915 16.776040 6.234375 16.244795 6.234375 15.609375 L6.234375 13.781250 L12.484375 13.812500 L12.484375 17.843750 Z M8.468750 16.593750 L11.234375 16.593750 L11.234375 15.031250 L7.484375 15.031250 L7.484375 15.609375 C7.484375 15.901043 7.575520 16.138020 7.757812 16.320312 C7.940105 16.502605 8.177082 16.593750 8.468750 16.593750 Z M18.750000 24.765625 C16.791657 24.765625 15.104174 24.744792 13.687500 24.703125 C12.270826 24.661458 11.052088 24.596355 10.031250 24.507812 C9.010412 24.419270 8.117191 24.304688 7.351562 24.164062 C6.585934 24.023437 5.875003 23.859376 5.218750 23.671875 C4.562497 23.484374 3.885420 23.270835 3.187500 23.031250 L3.593750 21.843750 C4.281253 22.083335 4.940101 22.294270 5.570312 22.476562 C6.200524 22.658855 6.885413 22.817708 7.625000 22.953125 C8.364587 23.088542 9.229162 23.195312 10.218750 23.273438 C11.208338 23.351563 12.395826 23.411458 13.781250 23.453125 C15.166674 23.494792 16.822907 23.515625 18.750000 23.515625 C20.677093 23.515625 22.333326 23.494792 23.718750 23.453125 C25.104174 23.411458 26.291662 23.351563 27.281250 23.273438 C28.270838 23.195312 29.135413 23.088542 29.875000 22.953125 C30.614587 22.817708 31.299476 22.658855 31.929688 22.476562 C32.559899 22.294270 33.218747 22.083335 33.906250 21.843750 L34.312500 23.031250 C33.614580 23.270835 32.937503 23.484374 32.281250 23.671875 C31.624997 23.859376 30.914066 24.023437 30.148438 24.164062 C29.382809 24.304688 28.489588 24.419270 27.468750 24.507812 C26.447912 24.596355 25.229174 24.661458 23.812500 24.703125 C22.395826 24.744792 20.708343 24.765625 18.750000 24.765625 Z M15.343750 22.578125 C14.947915 22.578125 14.658855 22.518230 14.476562 22.398438 C14.294270 22.278645 14.145834 22.062502 14.031250 21.750000 L13.062500 19.140625 C12.864582 18.588539 13.197912 18.205730 14.062500 17.992188 C14.927088 17.778645 16.489572 17.671875 18.750000 17.671875 C21.010428 17.671875 22.575516 17.778645 23.445312 17.992188 C24.315109 18.205730 24.645834 18.588539 24.437500 19.140625 L23.468750 21.750000 C23.354166 22.062502 23.205730 22.278645 23.023438 22.398438 C22.841145 22.518230 22.552085 22.578125 22.156250 22.578125 Z M30.468750 31.250000 C30.187499 31.250000 29.950522 31.156251 29.757812 30.968750 C29.565103 30.781249 29.468750 30.541668 29.468750 30.250000 L29.468750 27.375000 L33.843750 25.500000 L33.843750 30.250000 C33.843750 30.541668 33.750001 30.781249 33.562500 30.968750 C33.374999 31.156251 33.135418 31.250000 32.843750 31.250000 Z M18.750000 26.328125 C20.802094 26.328125 22.822907 26.270834 24.812500 26.156250 C26.802093 26.041666 28.812490 25.869793 30.843750 25.640625 C31.406253 25.578125 31.872394 25.346356 32.242188 24.945312 C32.611981 24.544269 32.833333 24.046878 32.906250 23.453125 C32.979167 22.828122 33.036458 22.218753 33.078125 21.625000 C33.119792 21.031247 33.140625 20.458336 33.140625 19.906250 C33.140625 18.604160 33.000001 17.341152 32.718750 16.117188 C32.437499 14.893223 32.036461 13.890629 31.515625 13.109375 L27.875000 3.093750 C27.781250 2.833332 27.549481 2.606772 27.179688 2.414062 C26.809894 2.221353 26.302087 2.093750 25.656250 2.031250 C24.583328 1.927083 23.473964 1.848959 22.328125 1.796875 C21.182286 1.744791 19.989590 1.718750 18.750000 1.718750 C17.510410 1.718750 16.317714 1.744791 15.171875 1.796875 C14.026036 1.848959 12.916672 1.927083 11.843750 2.031250 C10.552077 2.156251 9.802084 2.510414 9.593750 3.093750 L5.984375 13.109375 C5.473956 13.890629 5.075522 14.893223 4.789062 16.117188 C4.502603 17.341152 4.359375 18.604160 4.359375 19.906250 C4.359375 20.458336 4.380208 21.031247 4.421875 21.625000 C4.463542 22.218753 4.520833 22.828122 4.593750 23.453125 C4.666667 24.046878 4.885415 24.544269 5.250000 24.945312 C5.614585 25.346356 6.083330 25.578125 6.656250 25.640625 C8.687510 25.859376 10.700511 26.028645 12.695312 26.148438 C14.690114 26.268230 16.708323 26.328125 18.750000 26.328125 Z M10.125000 8.750000 L10.359375 6.640625 C10.401042 6.276040 10.546874 5.986980 10.796875 5.773438 C11.046876 5.559895 11.343748 5.453125 11.687500 5.453125 L13.859375 5.453125 C14.213543 5.453125 14.513020 5.559895 14.757812 5.773438 C15.002605 5.986980 15.145833 6.276040 15.187500 6.640625 L15.437500 8.750000 Z M18.750000 11.906250 C16.677073 11.906250 14.609385 11.859375 12.546875 11.765625 C10.484365 11.671875 8.416677 11.526043 6.343750 11.328125 L7.437500 8.343750 L30.062500 8.343750 L31.156250 11.328125 C29.093740 11.526043 27.028656 11.671875 24.960938 11.765625 C22.893219 11.859375 20.822927 11.906250 18.750000 11.906250 Z M25.015625 17.843750 L25.015625 13.812500 L31.265625 13.781250 L31.265625 15.609375 C31.265625 16.244795 31.054690 16.776040 30.632812 17.203125 C30.210935 17.630210 29.677087 17.843750 29.031250 17.843750 Z M26.265625 16.593750 L29.031250 16.593750 C29.333335 16.593750 29.572916 16.502605 29.750000 16.320312 C29.927084 16.138020 30.015625 15.901043 30.015625 15.609375 L30.015625 15.031250 L26.265625 15.031250 Z M22.062500 8.750000 L22.312500 6.640625 C22.364584 6.276040 22.510415 5.986980 22.750000 5.773438 C22.989585 5.559895 23.286457 5.453125 23.640625 5.453125 L25.812500 5.453125 C26.156252 5.453125 26.453124 5.559895 26.703125 5.773438 C26.953126 5.986980 27.098958 6.276040 27.140625 6.640625 L27.375000 8.750000 Z M34.750000 12.031250 C34.291664 12.031250 33.830731 12.010417 33.367188 11.968750 C32.903644 11.927083 32.442711 11.869792 31.984375 11.796875 L32.218750 10.296875 L33.328125 10.296875 L33.328125 9.796875 C33.328125 9.463540 33.437499 9.187501 33.656250 8.968750 C33.875001 8.749999 34.151040 8.640625 34.484375 8.640625 L35.109375 8.640625 C35.796878 8.640625 36.367185 8.867185 36.820312 9.320312 C37.273440 9.773440 37.500000 10.343747 37.500000 11.031250 C37.500000 11.697920 36.583342 12.031250 34.750000 12.031250 Z M39.062500 26.562500" /></svg>