<svg version="1.1" xmlns="http://www.w3.org/2000/svg" style="fill:rgba(0,0,0,1.0)" width="256" height="256" viewBox="0 0 37.78125 33.59375"><path fill="rgb(255, 255, 255)" d="M17.468750 30.500000 C15.666658 30.500000 13.812510 30.442709 11.906250 30.328125 C9.999990 30.213541 8.088551 30.041668 6.171875 29.812500 C5.223954 29.697916 4.437503 29.322920 3.812500 28.687500 C3.187497 28.052080 2.791668 27.265630 2.625000 26.328125 C2.468749 25.432287 2.390625 24.380214 2.390625 23.171875 C2.390625 21.776035 2.489582 20.398444 2.687500 19.039062 C2.885418 17.679681 3.135415 16.562504 3.437500 15.687500 L3.531250 15.031250 L7.046875 8.796875 C7.442710 8.088538 7.966143 7.518231 8.617188 7.085938 C9.268232 6.653644 10.093745 6.390625 11.093750 6.296875 C12.156255 6.192708 13.226557 6.114584 14.304688 6.062500 C15.382818 6.010416 16.437495 5.984375 17.468750 5.984375 C18.500005 5.984375 19.554682 6.010416 20.632812 6.062500 C21.710943 6.114584 22.781245 6.192708 23.843750 6.296875 C24.843755 6.390625 25.669268 6.653644 26.320312 7.085938 C26.971357 7.518231 27.494790 8.088538 27.890625 8.796875 L31.406250 15.031250 L31.500000 15.687500 C31.802085 16.562504 32.052082 17.679681 32.250000 19.039062 C32.447918 20.398444 32.546875 21.776035 32.546875 23.171875 C32.546875 24.380214 32.468751 25.432287 32.312500 26.328125 C32.145832 27.265630 31.750003 28.052080 31.125000 28.687500 C30.499997 29.322920 29.713546 29.697916 28.765625 29.812500 C26.848949 30.041668 24.937510 30.213541 23.031250 30.328125 C21.124990 30.442709 19.270842 30.500000 17.468750 30.500000 Z M4.359375 33.593750 C4.088540 33.593750 3.861980 33.502605 3.679688 33.320312 C3.497395 33.138020 3.406250 32.911460 3.406250 32.640625 L3.406250 26.609375 L7.687500 29.734375 L7.687500 32.640625 C7.687500 32.911460 7.596355 33.138020 7.414062 33.320312 C7.231770 33.502605 7.005210 33.593750 6.734375 33.593750 Z M4.625000 23.078125 L8.640625 23.078125 C8.921876 23.078125 9.153645 22.976564 9.335938 22.773438 C9.518230 22.570311 9.567709 22.328126 9.484375 22.046875 L9.218750 21.093750 C9.114583 20.697915 8.869794 20.500000 8.484375 20.500000 L4.625000 20.500000 Z M1.109375 15.750000 C0.786457 15.750000 0.520834 15.645834 0.312500 15.437500 C0.104166 15.229166 0.000000 14.963543 0.000000 14.640625 L0.000000 13.843750 C0.000000 13.520832 0.104166 13.255209 0.312500 13.046875 C0.520834 12.838541 0.786457 12.734375 1.109375 12.734375 L2.890625 12.734375 C3.213543 12.734375 3.479166 12.838541 3.687500 13.046875 C3.895834 13.255209 4.000000 13.520832 4.000000 13.843750 L4.000000 14.328125 L5.062500 14.328125 L4.812500 15.750000 Z M12.828125 23.593750 L22.109375 23.593750 C22.515627 23.593750 22.861978 23.473960 23.148438 23.234375 C23.434897 22.994790 23.630208 22.671877 23.734375 22.265625 L24.015625 21.171875 C24.098959 20.838540 24.033855 20.557293 23.820312 20.328125 C23.606770 20.098957 23.333335 19.973958 23.000000 19.953125 C21.999995 19.880208 21.020838 19.830729 20.062500 19.804688 C19.104162 19.778646 18.239587 19.765625 17.468750 19.765625 C16.708330 19.765625 15.846359 19.778646 14.882812 19.804688 C13.919266 19.830729 12.937505 19.880208 11.937500 19.953125 C11.604165 19.973958 11.330730 20.098957 11.117188 20.328125 C10.903645 20.557293 10.838541 20.838540 10.921875 21.171875 L11.203125 22.265625 C11.307292 22.671877 11.502603 22.994790 11.789062 23.234375 C12.075522 23.473960 12.421873 23.593750 12.828125 23.593750 Z M17.468750 26.390625 C15.260406 26.390625 13.427091 26.359375 11.968750 26.296875 C10.510409 26.234375 9.286463 26.138021 8.296875 26.007812 C7.307287 25.877604 6.427087 25.708334 5.656250 25.500000 C4.885413 25.291666 4.083338 25.046876 3.250000 24.765625 L3.093750 18.671875 L4.859375 14.734375 C5.078126 15.536462 6.260406 16.197914 8.406250 16.718750 C10.552094 17.239586 13.572897 17.500000 17.468750 17.500000 C21.364603 17.500000 24.385406 17.239586 26.531250 16.718750 C28.677094 16.197914 29.859374 15.536462 30.078125 14.734375 L31.843750 18.671875 L31.687500 24.765625 C30.864579 25.046876 30.065108 25.291666 29.289062 25.500000 C28.513017 25.708334 27.630213 25.877604 26.640625 26.007812 C25.651037 26.138021 24.427091 26.234375 22.968750 26.296875 C21.510409 26.359375 19.677094 26.390625 17.468750 26.390625 Z M28.203125 33.593750 C27.932290 33.593750 27.705730 33.502605 27.523438 33.320312 C27.341145 33.138020 27.250000 32.911460 27.250000 32.640625 L27.250000 29.734375 L31.531250 26.609375 L31.531250 32.640625 C31.531250 32.911460 31.440105 33.138020 31.257812 33.320312 C31.075520 33.502605 30.848960 33.593750 30.578125 33.593750 Z M17.468750 28.781250 C19.333343 28.781250 21.195303 28.726563 23.054688 28.617188 C24.914072 28.507812 26.739574 28.338543 28.531250 28.109375 C29.072919 28.036458 29.510415 27.809898 29.843750 27.429688 C30.177085 27.049477 30.380208 26.604169 30.453125 26.093750 C30.515625 25.687498 30.567708 25.242190 30.609375 24.757812 C30.651042 24.273435 30.671875 23.744795 30.671875 23.171875 C30.671875 21.963536 30.588542 20.731777 30.421875 19.476562 C30.255208 18.221348 30.026043 17.156254 29.734375 16.281250 L29.578125 15.359375 L26.265625 9.578125 C26.036457 9.182290 25.703127 8.838543 25.265625 8.546875 C24.828123 8.255207 24.291670 8.078125 23.656250 8.015625 C22.624995 7.911458 21.585943 7.833334 20.539062 7.781250 C19.492182 7.729166 18.468755 7.703125 17.468750 7.703125 C16.468745 7.703125 15.445318 7.729166 14.398438 7.781250 C13.351557 7.833334 12.312505 7.911458 11.281250 8.015625 C10.645830 8.078125 10.109377 8.255207 9.671875 8.546875 C9.234373 8.838543 8.901043 9.182290 8.671875 9.578125 L5.359375 15.359375 L5.203125 16.281250 C4.911457 17.156254 4.682292 18.221348 4.515625 19.476562 C4.348958 20.731777 4.265625 21.963536 4.265625 23.171875 C4.265625 23.744795 4.286458 24.273435 4.328125 24.757812 C4.369792 25.242190 4.421875 25.687498 4.484375 26.093750 C4.567709 26.604169 4.773436 27.049477 5.101562 27.429688 C5.429689 27.809898 5.864581 28.036458 6.406250 28.109375 C8.208342 28.338543 10.036449 28.507812 11.890625 28.617188 C13.744801 28.726563 15.604157 28.781250 17.468750 28.781250 Z M9.781250 12.796875 L9.984375 11.109375 C10.015625 10.817707 10.130207 10.585938 10.328125 10.414062 C10.526043 10.242187 10.765624 10.156250 11.046875 10.156250 L12.781250 10.156250 C13.062501 10.156250 13.302082 10.242187 13.500000 10.414062 C13.697918 10.585938 13.812500 10.817707 13.843750 11.109375 L14.046875 12.796875 Z M6.250000 6.593750 L5.718750 5.640625 L8.265625 4.203125 L8.796875 5.156250 Z M4.187500 3.843750 L4.187500 2.750000 L6.843750 2.750000 L6.843750 3.843750 Z M5.156250 15.437500 L5.281250 12.625000 L29.656250 12.625000 L29.781250 15.437500 Z M8.265625 2.390625 L5.718750 0.953125 L6.250000 -0.000000 L8.796875 1.437500 Z M26.296875 23.078125 L30.312500 23.078125 L30.312500 20.500000 L26.453125 20.500000 C26.067706 20.500000 25.822917 20.697915 25.718750 21.093750 L25.453125 22.046875 C25.380208 22.328126 25.432291 22.570311 25.609375 22.773438 C25.786459 22.976564 26.015624 23.078125 26.296875 23.078125 Z M14.656250 6.843750 L13.109375 6.625000 L13.421875 3.875000 L14.968750 4.093750 Z M11.140625 3.515625 L16.765625 3.515625 L16.765625 2.187500 L11.140625 2.187500 Z M20.890625 12.796875 L21.093750 11.109375 C21.125000 10.817707 21.239582 10.585938 21.437500 10.414062 C21.635418 10.242187 21.874999 10.156250 22.156250 10.156250 L23.890625 10.156250 C24.171876 10.156250 24.411457 10.242187 24.609375 10.414062 C24.807293 10.585938 24.921875 10.817707 24.953125 11.109375 L25.156250 12.796875 Z M10.046875 4.609375 L10.046875 1.093750 L24.890625 1.093750 L24.890625 4.609375 Z M20.281250 6.843750 L19.968750 4.093750 L21.515625 3.875000 L21.828125 6.625000 Z M18.171875 3.515625 L23.796875 3.515625 L23.796875 2.187500 L18.171875 2.187500 Z M30.125000 15.750000 L29.875000 14.328125 L30.937500 14.328125 L30.937500 13.843750 C30.937500 13.520832 31.041666 13.255209 31.250000 13.046875 C31.458334 12.838541 31.723957 12.734375 32.046875 12.734375 L33.828125 12.734375 C34.151043 12.734375 34.416666 12.838541 34.625000 13.046875 C34.833334 13.255209 34.937500 13.520832 34.937500 13.843750 L34.937500 14.640625 C34.937500 14.963543 34.833334 15.229166 34.625000 15.437500 C34.416666 15.645834 34.151043 15.750000 33.828125 15.750000 Z M28.687500 6.593750 L26.140625 5.156250 L26.671875 4.203125 L29.218750 5.640625 Z M28.093750 3.843750 L28.093750 2.750000 L30.750000 2.750000 L30.750000 3.843750 Z M26.671875 2.390625 L26.140625 1.437500 L28.687500 -0.000000 L29.218750 0.953125 Z M37.781250 28.125000" /></svg>