<svg version="1.1" xmlns="http://www.w3.org/2000/svg" style="fill:rgba(0,0,0,1.0)" width="256" height="256" viewBox="0 0 34.78125 32.8125"><path fill="rgb(255, 255, 255)" d="M10.812500 32.812500 L9.109375 32.171875 C9.338543 31.598955 9.520833 31.088544 9.656250 30.640625 C9.791667 30.192706 9.906250 29.729169 10.000000 29.250000 L10.984375 30.140625 C9.671868 29.796873 8.364590 29.320316 7.062500 28.710938 C5.760410 28.101559 4.578130 27.312505 3.515625 26.343750 C2.453120 25.374995 1.601566 24.187507 0.960938 22.781250 C0.320309 21.374993 0.000000 19.713551 0.000000 17.796875 C0.000000 15.953116 0.385413 14.169279 1.156250 12.445312 C1.927087 10.721346 3.122388 9.161465 4.742188 7.765625 C6.361987 6.369785 8.442696 5.255212 10.984375 4.421875 C11.369794 4.296874 11.669270 4.070314 11.882812 3.742188 C12.096355 3.414061 12.260416 2.989586 12.375000 2.468750 C12.447917 2.166665 12.510416 1.817710 12.562500 1.421875 C12.614584 1.026040 12.651042 0.619794 12.671875 0.203125 L13.687500 -0.000000 C13.822917 0.083334 13.953124 0.203124 14.078125 0.359375 C14.203126 0.515626 14.333333 0.703124 14.468750 0.921875 C14.604167 0.703124 14.734374 0.515626 14.859375 0.359375 C14.984376 0.203124 15.114583 0.083334 15.250000 -0.000000 L16.265625 0.203125 C16.286458 0.619794 16.322916 1.026040 16.375000 1.421875 C16.427084 1.817710 16.489583 2.166665 16.562500 2.468750 C16.677084 2.989586 16.841145 3.414061 17.054688 3.742188 C17.268230 4.070314 17.567706 4.296874 17.953125 4.421875 C20.505221 5.255212 22.588534 6.369785 24.203125 7.765625 C25.817716 9.161465 27.010413 10.721346 27.781250 12.445312 C28.552087 14.169279 28.937500 15.953116 28.937500 17.796875 C28.937500 19.713551 28.617191 21.374993 27.976562 22.781250 C27.335934 24.187507 26.484380 25.374995 25.421875 26.343750 C24.359370 27.312505 23.177090 28.101559 21.875000 28.710938 C20.572910 29.320316 19.265632 29.796873 17.953125 30.140625 L18.937500 29.250000 C19.031250 29.729169 19.145833 30.192706 19.281250 30.640625 C19.416667 31.088544 19.598957 31.598955 19.828125 32.171875 L18.125000 32.812500 C17.114578 31.979162 16.343753 31.145838 15.812500 30.312500 L16.406250 30.203125 C16.156249 30.619794 15.950522 31.028644 15.789062 31.429688 C15.627603 31.830731 15.505209 32.239581 15.421875 32.656250 L13.515625 32.656250 C13.442708 32.239581 13.322917 31.830731 13.156250 31.429688 C12.989582 31.028644 12.781251 30.619794 12.531250 30.203125 L13.125000 30.312500 C12.593747 31.145838 11.822922 31.979162 10.812500 32.812500 Z M9.296875 26.140625 C8.671872 25.213537 8.177085 24.057299 7.812500 22.671875 C7.447915 21.286451 7.265625 19.932298 7.265625 18.609375 C7.265625 15.546860 8.322906 12.296892 10.437500 8.859375 L11.687500 9.515625 C10.666662 11.151050 9.908857 12.726555 9.414062 14.242188 C8.919268 15.757820 8.671875 17.213535 8.671875 18.609375 C8.671875 19.828131 8.835936 21.062494 9.164062 22.312500 C9.492189 23.562506 9.942705 24.609371 10.515625 25.453125 Z M13.765625 25.531250 L13.765625 11.062500 L15.171875 11.062500 L15.171875 25.531250 Z M11.125000 30.765625 C11.302084 30.588541 11.565102 30.296877 11.914062 29.890625 C12.263023 29.484373 12.708331 28.932295 13.250000 28.234375 C13.552085 28.807295 13.799478 29.299477 13.992188 29.710938 C14.184897 30.122398 14.343749 30.468749 14.468750 30.750000 C14.593751 30.468749 14.755207 30.122398 14.953125 29.710938 C15.151043 29.299477 15.395832 28.807295 15.687500 28.234375 C16.239586 28.932295 16.687498 29.484373 17.031250 29.890625 C17.375002 30.296877 17.635416 30.588541 17.812500 30.765625 C17.729166 30.411457 17.656250 30.049481 17.593750 29.679688 C17.531250 29.309894 17.473959 28.932294 17.421875 28.546875 L18.421875 28.250000 C21.130222 27.447913 23.247388 26.169280 24.773438 24.414062 C26.299487 22.658845 27.062500 20.453138 27.062500 17.796875 C27.062500 15.088528 26.223967 12.721364 24.546875 10.695312 C22.869783 8.669261 20.468766 7.135422 17.343750 6.093750 C16.687497 5.874999 16.158856 5.497399 15.757812 4.960938 C15.356769 4.424476 15.062501 3.796879 14.875000 3.078125 C14.833333 2.911458 14.796875 2.747397 14.765625 2.585938 C14.734375 2.424478 14.703125 2.260417 14.671875 2.093750 C14.619791 2.083333 14.552084 2.078125 14.468750 2.078125 C14.385416 2.078125 14.317709 2.083333 14.265625 2.093750 C14.234375 2.260417 14.203125 2.424478 14.171875 2.585938 C14.140625 2.747397 14.104167 2.911458 14.062500 3.078125 C13.874999 3.796879 13.580731 4.424476 13.179688 4.960938 C12.778644 5.497399 12.250003 5.874999 11.593750 6.093750 C8.468734 7.135422 6.067717 8.669261 4.390625 10.695312 C2.713533 12.721364 1.875000 15.088528 1.875000 17.796875 C1.875000 20.453138 2.640617 22.658845 4.171875 24.414062 C5.703133 26.169280 7.817695 27.447913 10.515625 28.250000 L11.515625 28.546875 C11.473958 28.932294 11.419271 29.309894 11.351562 29.679688 C11.283854 30.049481 11.208334 30.411457 11.125000 30.765625 Z M19.640625 26.140625 L18.421875 25.453125 C18.994795 24.609371 19.445311 23.562506 19.773438 22.312500 C20.101564 21.062494 20.265625 19.828131 20.265625 18.609375 C20.265625 17.213535 20.018232 15.757820 19.523438 14.242188 C19.028643 12.726555 18.270838 11.151050 17.250000 9.515625 L18.500000 8.859375 C20.614594 12.296892 21.671875 15.546860 21.671875 18.609375 C21.671875 19.932298 21.489585 21.286451 21.125000 22.671875 C20.760415 24.057299 20.265628 25.213537 19.640625 26.140625 Z M34.781250 27.343750" /></svg>