<svg version="1.1" xmlns="http://www.w3.org/2000/svg" style="fill:rgba(0,0,0,1.0)" width="256" height="256" viewBox="0 0 37.265625 26.5625"><path fill="rgb(255, 255, 255)" d="M20.546875 7.984375 C20.546875 7.536456 20.414064 7.158856 20.148438 6.851562 C19.882811 6.544269 19.567710 6.390625 19.203125 6.390625 C18.838540 6.390625 18.523439 6.544269 18.257812 6.851562 C17.992186 7.158856 17.859375 7.536456 17.859375 7.984375 C17.859375 8.432294 17.992186 8.812498 18.257812 9.125000 C18.523439 9.437502 18.838540 9.593750 19.203125 9.593750 C19.567710 9.593750 19.882811 9.437502 20.148438 9.125000 C20.414064 8.812498 20.546875 8.432294 20.546875 7.984375 Z M22.109375 7.984375 C22.109375 8.859379 21.825524 9.606768 21.257812 10.226562 C20.690101 10.846357 20.005212 11.156250 19.203125 11.156250 C18.401038 11.156250 17.716149 10.846357 17.148438 10.226562 C16.580726 9.606768 16.296875 8.859379 16.296875 7.984375 C16.296875 7.119787 16.580726 6.377607 17.148438 5.757812 C17.716149 5.138018 18.401038 4.828125 19.203125 4.828125 C20.005212 4.828125 20.690101 5.138018 21.257812 5.757812 C21.825524 6.377607 22.109375 7.119787 22.109375 7.984375 Z M20.859375 10.062500 L20.859375 8.500000 L30.187500 8.500000 L30.187500 13.093750 L32.343750 13.093750 L32.343750 7.343750 L20.859375 7.343750 L20.859375 5.781250 L33.906250 5.781250 L33.906250 14.656250 L28.625000 14.656250 L28.625000 10.062500 Z M0.000000 19.890625 L0.000000 7.796875 C0.000000 5.348946 0.630202 3.437507 1.890625 2.062500 C3.151048 0.687493 4.880197 -0.000000 7.078125 -0.000000 L25.593750 -0.000000 C27.645844 -0.000000 29.286452 0.593744 30.515625 1.781250 C31.744798 2.968756 32.447916 4.619781 32.625000 6.734375 L31.062500 6.734375 C30.895832 5.057283 30.343755 3.776046 29.406250 2.890625 C28.468745 2.005204 27.197925 1.562500 25.593750 1.562500 L11.765625 1.562500 C12.536462 2.229170 13.130206 3.088536 13.546875 4.140625 C13.963544 5.192714 14.171875 6.411451 14.171875 7.796875 L14.171875 18.328125 L31.125000 18.328125 L31.125000 13.968750 L32.687500 13.968750 L32.687500 19.890625 L21.625000 19.890625 L21.625000 26.562500 L15.296875 26.562500 L15.296875 19.890625 Z M16.859375 25.000000 L20.062500 25.000000 L20.062500 19.890625 L16.859375 19.890625 Z M37.265625 21.093750" /></svg>