<svg version="1.1" xmlns="http://www.w3.org/2000/svg" style="fill:rgba(0,0,0,1.0)" width="256" height="256" viewBox="0 0 36.71875 32.8125"><path fill="rgb(255, 255, 255)" d="M16.406250 32.812500 C14.145822 32.812500 12.023447 32.388025 10.039062 31.539062 C8.054678 30.690100 6.309903 29.513028 4.804688 28.007812 C3.299472 26.502597 2.122400 24.757822 1.273438 22.773438 C0.424475 20.789053 0.000000 18.666678 0.000000 16.406250 C0.000000 14.135405 0.424475 12.010427 1.273438 10.031250 C2.122400 8.052073 3.299472 6.309903 4.804688 4.804688 C6.309903 3.299472 8.054678 2.122400 10.039062 1.273438 C12.023447 0.424475 14.145822 -0.000000 16.406250 -0.000000 C18.677095 -0.000000 20.802073 0.424475 22.781250 1.273438 C24.760427 2.122400 26.502597 3.299472 28.007812 4.804688 C29.513028 6.309903 30.690100 8.052073 31.539062 10.031250 C32.388025 12.010427 32.812500 14.135405 32.812500 16.406250 C32.812500 18.666678 32.388025 20.789053 31.539062 22.773438 C30.690100 24.757822 29.513028 26.502597 28.007812 28.007812 C26.502597 29.513028 24.760427 30.690100 22.781250 31.539062 C20.802073 32.388025 18.677095 32.812500 16.406250 32.812500 Z M22.093750 28.296875 L19.828125 23.468750 C21.119798 22.843747 22.156246 21.942714 22.937500 20.765625 L27.375000 23.718750 C26.031243 25.718760 24.270844 27.244786 22.093750 28.296875 Z M16.406250 31.250000 C18.458344 31.250000 20.380199 30.864587 22.171875 30.093750 C23.963551 29.322913 25.539056 28.257819 26.898438 26.898438 C28.257819 25.539056 29.322913 23.963551 30.093750 22.171875 C30.864587 20.380199 31.250000 18.458344 31.250000 16.406250 C31.250000 14.354156 30.864587 12.432301 30.093750 10.640625 C29.322913 8.848949 28.257819 7.273444 26.898438 5.914062 C25.539056 4.554681 23.963551 3.489587 22.171875 2.718750 C20.380199 1.947913 18.458344 1.562500 16.406250 1.562500 C14.354156 1.562500 12.432301 1.947913 10.640625 2.718750 C8.848949 3.489587 7.273444 4.554681 5.914062 5.914062 C4.554681 7.273444 3.489587 8.848949 2.718750 10.640625 C1.947913 12.432301 1.562500 14.354156 1.562500 16.406250 C1.562500 18.458344 1.947913 20.380199 2.718750 22.171875 C3.489587 23.963551 4.554681 25.539056 5.914062 26.898438 C7.273444 28.257819 8.848949 29.322913 10.640625 30.093750 C12.432301 30.864587 14.354156 31.250000 16.406250 31.250000 Z M16.406250 22.609375 C15.270828 22.609375 14.231776 22.330732 13.289062 21.773438 C12.346349 21.216143 11.596357 20.466151 11.039062 19.523438 C10.481768 18.580724 10.203125 17.541672 10.203125 16.406250 C10.203125 15.260411 10.481768 14.218755 11.039062 13.281250 C11.596357 12.343745 12.346349 11.596357 13.289062 11.039062 C14.231776 10.481768 15.270828 10.203125 16.406250 10.203125 C17.552089 10.203125 18.593745 10.481768 19.531250 11.039062 C20.468755 11.596357 21.216143 12.343745 21.773438 13.281250 C22.330732 14.218755 22.609375 15.260411 22.609375 16.406250 C22.609375 17.541672 22.330732 18.580724 21.773438 19.523438 C21.216143 20.466151 20.468755 21.216143 19.531250 21.773438 C18.593745 22.330732 17.552089 22.609375 16.406250 22.609375 Z M16.406250 19.625000 C17.302088 19.625000 18.062497 19.309899 18.687500 18.679688 C19.312503 18.049476 19.625000 17.291671 19.625000 16.406250 C19.625000 15.510412 19.312503 14.750003 18.687500 14.125000 C18.062497 13.499997 17.302088 13.187500 16.406250 13.187500 C15.520829 13.187500 14.763024 13.499997 14.132812 14.125000 C13.502601 14.750003 13.187500 15.510412 13.187500 16.406250 C13.187500 17.291671 13.502601 18.049476 14.132812 18.679688 C14.763024 19.309899 15.520829 19.625000 16.406250 19.625000 Z M9.875000 12.046875 L5.437500 9.093750 C6.781257 7.093740 8.541656 5.567714 10.718750 4.515625 L12.984375 9.343750 C11.692702 9.968753 10.656254 10.869786 9.875000 12.046875 Z M36.718750 27.343750" /></svg>