<svg version="1.1" xmlns="http://www.w3.org/2000/svg" style="fill:rgba(0,0,0,1.0)" width="256" height="256" viewBox="0 0 39.875 31.25"><path fill="rgb(255, 255, 255)" d="M22.906250 31.250000 C20.437488 31.250000 18.145844 30.851566 16.031250 30.054688 C13.916656 29.257809 12.033862 28.111987 10.382812 26.617188 C8.731763 25.122388 7.364589 23.317719 6.281250 21.203125 C5.197911 19.088531 4.453127 16.718763 4.046875 14.093750 C3.473955 13.822915 2.963544 13.427086 2.515625 12.906250 C2.067706 12.385414 1.770834 11.838545 1.625000 11.265625 C1.177081 11.067707 0.794272 10.734377 0.476562 10.265625 C0.158853 9.796873 0.000000 9.302086 0.000000 8.781250 C0.000000 8.270831 0.143228 7.802085 0.429688 7.375000 C0.716147 6.947915 1.072915 6.651042 1.500000 6.484375 C1.645834 5.348953 2.117184 4.330734 2.914062 3.429688 C3.710941 2.528641 4.718744 1.812503 5.937500 1.281250 C7.156256 0.749997 8.463535 0.484375 9.859375 0.484375 C10.442711 0.484375 11.015622 0.546874 11.578125 0.671875 C12.046877 0.223956 12.604163 -0.000000 13.250000 -0.000000 C13.958337 -0.000000 14.539060 0.268226 14.992188 0.804688 C15.445315 1.341149 15.671875 1.953122 15.671875 2.640625 C15.671875 2.723959 15.661458 2.848958 15.640625 3.015625 C16.088544 3.473961 16.453124 4.020830 16.734375 4.656250 C17.015626 5.291670 17.156250 6.005204 17.156250 6.796875 C17.156250 7.359378 17.062501 7.916664 16.875000 8.468750 C16.989584 8.708335 17.109374 8.937499 17.234375 9.156250 C17.359376 9.375001 17.510416 9.619790 17.687500 9.890625 L16.250000 10.562500 C16.020832 10.197915 15.820313 9.843752 15.648438 9.500000 C15.476562 9.156248 15.270835 8.713544 15.031250 8.171875 C15.250001 8.036458 15.398437 7.846355 15.476562 7.601562 C15.554688 7.356770 15.593750 7.088543 15.593750 6.796875 C15.593750 6.119788 15.450522 5.492190 15.164062 4.914062 C14.877603 4.335935 14.526044 3.885418 14.109375 3.562500 C14.161459 3.447916 14.197917 3.333334 14.218750 3.218750 C14.239583 3.104166 14.250000 2.994792 14.250000 2.890625 C14.250000 2.557290 14.158855 2.278647 13.976562 2.054688 C13.794270 1.830728 13.552085 1.718750 13.250000 1.718750 C12.989582 1.718750 12.747397 1.802083 12.523438 1.968750 C12.299478 2.135417 12.125001 2.322916 12.000000 2.531250 C11.645832 2.416666 11.291668 2.333334 10.937500 2.281250 C10.583332 2.229166 10.223960 2.203125 9.859375 2.203125 C8.640619 2.203125 7.505214 2.434894 6.453125 2.898438 C5.401036 3.361981 4.554691 3.979163 3.914062 4.750000 C3.273434 5.520837 2.953125 6.380204 2.953125 7.328125 C2.411456 7.328125 2.036459 7.489582 1.828125 7.812500 C1.619791 8.135418 1.515625 8.458332 1.515625 8.781250 C1.515625 9.083335 1.617186 9.359374 1.820312 9.609375 C2.023439 9.859376 2.312498 10.062499 2.687500 10.218750 C2.770834 10.572918 2.955728 10.937498 3.242188 11.312500 C3.528647 11.687502 3.880206 12.020832 4.296875 12.312500 C4.713544 12.604168 5.145831 12.812499 5.593750 12.937500 C5.822918 14.708342 6.122394 16.213535 6.492188 17.453125 C6.861981 18.692715 7.328122 19.760412 7.890625 20.656250 C8.161460 21.072919 8.523435 21.414061 8.976562 21.679688 C9.429690 21.945314 9.885414 22.078125 10.343750 22.078125 C10.958336 22.078125 11.468748 21.856773 11.875000 21.414062 C12.281252 20.971352 12.484375 20.421878 12.484375 19.765625 C12.484375 19.432290 12.442709 19.122397 12.359375 18.835938 C12.276041 18.549478 12.130209 18.145836 11.921875 17.625000 C12.151043 17.385415 12.372395 17.078127 12.585938 16.703125 C12.799480 16.328123 12.906250 15.953127 12.906250 15.578125 C12.906250 15.171873 12.809897 14.825522 12.617188 14.539062 C12.424478 14.252603 12.203126 14.109375 11.953125 14.109375 C11.703124 14.109375 11.481772 14.252603 11.289062 14.539062 C11.096353 14.825522 11.000000 15.171873 11.000000 15.578125 C11.000000 15.848960 11.052083 16.114582 11.156250 16.375000 L10.046875 16.765625 C9.942708 16.557291 9.867188 16.369792 9.820312 16.203125 C9.773437 16.036457 9.750000 15.828126 9.750000 15.578125 C9.750000 14.828121 9.963540 14.187503 10.390625 13.656250 C10.817710 13.124997 11.338539 12.859375 11.953125 12.859375 C12.567711 12.859375 13.088540 13.122393 13.515625 13.648438 C13.942710 14.174482 14.156250 14.817705 14.156250 15.578125 C14.156250 16.473963 13.932294 17.187497 13.484375 17.718750 C13.734376 18.416670 13.859375 19.114580 13.859375 19.812500 C13.859375 20.927089 13.557295 21.872392 12.953125 22.648438 C12.348955 23.424483 11.536463 23.812500 10.515625 23.812500 C10.317707 23.812500 10.125001 23.796875 9.937500 23.765625 C11.479174 25.619801 13.348947 27.044266 15.546875 28.039062 C17.744803 29.033859 20.197903 29.531250 22.906250 29.531250 C24.281257 29.531250 25.528640 29.419272 26.648438 29.195312 C27.768235 28.971353 28.729163 28.651044 29.531250 28.234375 C30.333337 27.817706 30.950519 27.320315 31.382812 26.742188 C31.815106 26.164060 32.031250 25.515629 32.031250 24.796875 C32.031250 24.317706 31.916668 23.882814 31.687500 23.492188 C31.458332 23.101561 31.148439 22.789064 30.757812 22.554688 C30.367186 22.320311 29.937502 22.203125 29.468750 22.203125 C28.999998 22.203125 28.570314 22.320311 28.179688 22.554688 C27.789061 22.789064 27.476564 23.101561 27.242188 23.492188 C27.007811 23.882814 26.890625 24.317706 26.890625 24.796875 L25.015625 24.796875 C25.015625 24.026038 25.213540 23.315107 25.609375 22.664062 C26.005210 22.013018 26.531247 21.486981 27.187500 21.085938 C27.843753 20.684894 28.552080 20.484375 29.312500 20.484375 C30.072920 20.484375 30.765622 20.684894 31.390625 21.085938 C32.015628 21.486981 32.513019 22.013018 32.882812 22.664062 C33.252606 23.315107 33.437500 24.026038 33.437500 24.796875 C33.437500 25.098960 33.416667 25.369790 33.375000 25.609375 C33.604168 25.380207 33.817707 25.151043 34.015625 24.921875 L35.375000 25.937500 C33.906243 27.604175 32.111990 28.906245 29.992188 29.843750 C27.872385 30.781255 25.510430 31.250000 22.906250 31.250000 Z M3.437500 15.812500 L2.578125 15.109375 C3.005210 14.463538 3.565101 13.799483 4.257812 13.117188 C4.950524 12.434892 5.583330 11.901044 6.156250 11.515625 L6.796875 12.375000 C6.463540 12.625001 6.085940 12.953123 5.664062 13.359375 C5.242185 13.765627 4.833335 14.187498 4.437500 14.625000 C4.041665 15.062502 3.708335 15.458332 3.437500 15.812500 Z M1.937500 13.656250 L1.281250 12.937500 C1.864586 12.333330 2.557288 11.757815 3.359375 11.210938 C4.161462 10.664060 4.911455 10.307292 5.609375 10.140625 L6.046875 11.109375 C5.630206 11.203125 5.166669 11.382811 4.656250 11.648438 C4.145831 11.914064 3.648440 12.223957 3.164062 12.578125 C2.679685 12.932293 2.270835 13.291665 1.937500 13.656250 Z M16.390625 24.750000 C16.036457 24.624999 15.687502 24.466147 15.343750 24.273438 C14.999998 24.080728 14.625002 23.848960 14.218750 23.578125 L15.046875 22.296875 C15.401043 22.515626 15.744790 22.710937 16.078125 22.882812 C16.411460 23.054688 16.734373 23.208333 17.046875 23.343750 Z M19.906250 27.796875 C19.499998 27.651041 19.104169 27.492188 18.718750 27.320312 C18.333331 27.148437 17.958335 26.973959 17.593750 26.796875 L18.296875 25.390625 C18.567710 25.536459 18.872394 25.687499 19.210938 25.843750 C19.549481 26.000001 19.958331 26.166666 20.437500 26.343750 Z M7.953125 16.625000 L7.437500 15.015625 C7.937502 14.619790 8.520830 14.421875 9.187500 14.421875 C9.614585 14.421875 10.072914 14.515624 10.562500 14.703125 L10.421875 16.187500 C10.161457 16.093750 9.890626 16.046875 9.609375 16.046875 C9.015622 16.046875 8.463544 16.239581 7.953125 16.625000 Z M24.531250 28.359375 C24.114581 28.244791 23.713544 28.119792 23.328125 27.984375 C22.942706 27.848958 22.567710 27.713542 22.203125 27.578125 L22.781250 26.140625 C23.083335 26.244792 23.411457 26.359374 23.765625 26.484375 C24.119793 26.609376 24.536456 26.744791 25.015625 26.890625 Z M5.937500 9.093750 C5.666665 9.093750 5.432293 8.994793 5.234375 8.796875 C5.036457 8.598957 4.937500 8.359376 4.937500 8.078125 C4.937500 7.807290 5.036457 7.572918 5.234375 7.375000 C5.432293 7.177082 5.666665 7.078125 5.937500 7.078125 C6.208335 7.078125 6.442707 7.177082 6.640625 7.375000 C6.838543 7.572918 6.937500 7.807290 6.937500 8.078125 C6.937500 8.359376 6.838543 8.598957 6.640625 8.796875 C6.442707 8.994793 6.208335 9.093750 5.937500 9.093750 Z M22.343750 24.421875 C21.958331 24.276041 21.575523 24.119792 21.195312 23.953125 C20.815102 23.786458 20.442710 23.609376 20.078125 23.421875 L20.812500 22.046875 C21.145835 22.223959 21.492186 22.395832 21.851562 22.562500 C22.210939 22.729168 22.567707 22.874999 22.921875 23.000000 Z M11.015625 13.718750 C10.755207 13.697917 10.536459 13.591147 10.359375 13.398438 C10.182291 13.205728 10.093750 12.979168 10.093750 12.718750 C10.093750 12.468749 10.182291 12.255209 10.359375 12.078125 C10.536459 11.901041 10.755207 11.812500 11.015625 11.812500 C11.140626 11.812500 11.244791 11.833333 11.328125 11.875000 C11.255208 11.708333 11.218750 11.557292 11.218750 11.421875 C11.218750 11.171874 11.307291 10.958334 11.484375 10.781250 C11.661459 10.604166 11.880207 10.515625 12.140625 10.515625 C12.546877 10.515625 12.828124 10.703123 12.984375 11.078125 C13.088542 10.609373 13.385414 10.375000 13.875000 10.375000 C14.125001 10.375000 14.338541 10.492186 14.515625 10.726562 C14.692709 10.960939 14.781250 11.213540 14.781250 11.484375 L13.875000 12.359375 C13.875000 12.119790 13.841146 11.929688 13.773438 11.789062 C13.705729 11.648437 13.614584 11.578125 13.500000 11.578125 C13.395833 11.578125 13.296875 11.630208 13.203125 11.734375 C13.109375 11.838542 13.052083 11.979166 13.031250 12.156250 C12.989583 12.020833 12.927084 11.921875 12.843750 11.859375 C12.760416 11.796875 12.677084 11.765625 12.593750 11.765625 C12.489583 11.765625 12.398438 11.804687 12.320312 11.882812 C12.242187 11.960938 12.203125 12.072916 12.203125 12.218750 C12.203125 12.343751 12.229166 12.458333 12.281250 12.562500 C12.187500 12.531250 12.098959 12.515625 12.015625 12.515625 C11.869791 12.515625 11.752605 12.554687 11.664062 12.632812 C11.575520 12.710938 11.531250 12.791666 11.531250 12.875000 C11.531250 13.000001 11.611978 13.122395 11.773438 13.242188 C11.934897 13.361980 12.140624 13.421875 12.390625 13.421875 Z M9.031250 11.296875 C8.760415 11.296875 8.500001 11.250000 8.250000 11.156250 L8.531250 10.281250 C8.718751 10.333334 8.885416 10.359375 9.031250 10.359375 C9.625003 10.359375 9.921875 9.906255 9.921875 9.000000 L10.453125 8.718750 C10.776043 9.072918 11.078124 9.250000 11.359375 9.250000 C11.661460 9.250000 11.843750 9.052085 11.906250 8.656250 L12.843750 8.812500 C12.770833 9.260419 12.593751 9.601561 12.312500 9.835938 C12.031249 10.070314 11.723960 10.187500 11.390625 10.187500 C11.151040 10.187500 10.927084 10.135417 10.718750 10.031250 C10.614583 10.416669 10.414064 10.723957 10.117188 10.953125 C9.820311 11.182293 9.458335 11.296875 9.031250 11.296875 Z M8.187500 9.718750 C7.791665 9.718750 7.593750 9.609376 7.593750 9.390625 C7.593750 9.276041 7.611979 9.164063 7.648438 9.054688 C7.684896 8.945312 7.776041 8.776043 7.921875 8.546875 C8.067709 8.328124 8.135417 8.062502 8.125000 7.750000 C8.114583 7.437498 8.138021 7.130210 8.195312 6.828125 C8.252604 6.526040 8.442707 6.296876 8.765625 6.140625 C8.911459 6.067708 9.062499 6.031250 9.218750 6.031250 C9.468751 6.031250 9.703124 6.106770 9.921875 6.257812 C10.140626 6.408855 10.354166 6.562499 10.562500 6.718750 C10.770834 6.875001 10.979166 6.953125 11.187500 6.953125 C11.750003 6.953125 12.031250 7.135415 12.031250 7.500000 C12.031250 7.791668 11.835939 8.096353 11.445312 8.414062 C11.054686 8.731772 10.656252 8.989582 10.250000 9.187500 C9.958332 9.322917 9.617189 9.445312 9.226562 9.554688 C8.835936 9.664063 8.489585 9.718750 8.187500 9.718750 Z M19.609375 16.796875 C19.130206 16.796875 18.742189 16.747396 18.445312 16.648438 C18.148436 16.549479 17.854168 16.369793 17.562500 16.109375 C17.260415 16.369793 16.885419 16.500000 16.437500 16.500000 C15.916664 16.500000 15.408857 16.328127 14.914062 15.984375 C14.419268 15.640623 14.013022 15.205732 13.695312 14.679688 C13.377603 14.153643 13.218750 13.619794 13.218750 13.078125 C13.218750 12.526039 13.388019 12.083335 13.726562 11.750000 C14.065106 11.416665 14.484372 11.250000 14.984375 11.250000 C15.067709 11.250000 15.153645 11.255208 15.242188 11.265625 C15.330730 11.276042 15.411458 11.291667 15.484375 11.312500 C15.692709 10.760414 16.052081 10.328127 16.562500 10.015625 C17.072919 9.703123 17.640622 9.546875 18.265625 9.546875 C18.994795 9.546875 19.664059 9.739581 20.273438 10.125000 C20.882816 10.510419 21.372394 11.002601 21.742188 11.601562 C22.111981 12.200524 22.296875 12.833330 22.296875 13.500000 C22.296875 14.031253 22.182293 14.549477 21.953125 15.054688 C21.723957 15.559898 21.408856 15.976561 21.007812 16.304688 C20.606769 16.632814 20.140628 16.796875 19.609375 16.796875 Z M19.390625 15.234375 C19.817710 15.234375 20.153645 15.088543 20.398438 14.796875 C20.643230 14.505207 20.765625 14.109378 20.765625 13.609375 C20.765625 13.171873 20.671876 12.768231 20.484375 12.398438 C20.296874 12.028644 20.026043 11.731772 19.671875 11.507812 C19.317707 11.283853 18.890628 11.171875 18.390625 11.171875 C17.890622 11.171875 17.468752 11.299478 17.125000 11.554688 C16.781248 11.809897 16.609375 12.213539 16.609375 12.765625 C16.348957 12.671875 16.104168 12.598959 15.875000 12.546875 C15.645832 12.494791 15.442709 12.468750 15.265625 12.468750 C15.005207 12.468750 14.807292 12.507812 14.671875 12.585938 C14.536458 12.664063 14.468750 12.822915 14.468750 13.062500 C14.468750 13.385418 14.578124 13.710936 14.796875 14.039062 C15.015626 14.367189 15.291665 14.638020 15.625000 14.851562 C15.958335 15.065105 16.296873 15.171875 16.640625 15.171875 C16.890626 15.171875 17.106770 15.106771 17.289062 14.976562 C17.471355 14.846354 17.609375 14.651043 17.703125 14.390625 C17.932293 14.651043 18.195311 14.856770 18.492188 15.007812 C18.789064 15.158855 19.088540 15.234375 19.390625 15.234375 Z M11.875000 6.281250 C11.604165 6.281250 11.369793 6.182293 11.171875 5.984375 C10.973957 5.786457 10.875000 5.546876 10.875000 5.265625 C10.875000 4.994790 10.973957 4.760418 11.171875 4.562500 C11.369793 4.364582 11.604165 4.265625 11.875000 4.265625 C12.145835 4.265625 12.380207 4.364582 12.578125 4.562500 C12.776043 4.760418 12.875000 4.994790 12.875000 5.265625 C12.875000 5.546876 12.776043 5.786457 12.578125 5.984375 C12.380207 6.182293 12.145835 6.281250 11.875000 6.281250 Z M18.656250 9.093750 C18.177081 8.874999 17.614587 8.705730 16.968750 8.585938 C16.322913 8.466145 15.708336 8.406250 15.125000 8.406250 C14.666664 8.406250 14.244794 8.447916 13.859375 8.531250 L13.906250 7.593750 C14.312502 7.500000 14.781247 7.453125 15.312500 7.453125 C15.937503 7.453125 16.583330 7.515624 17.250000 7.640625 C17.916670 7.765626 18.494789 7.937499 18.984375 8.156250 Z M13.796875 6.937500 L13.671875 6.000000 C14.088544 5.822916 14.578122 5.690105 15.140625 5.601562 C15.703128 5.513020 16.270830 5.468750 16.843750 5.468750 C17.531253 5.468750 18.177080 5.536458 18.781250 5.671875 L18.609375 6.656250 C18.078122 6.520833 17.442712 6.453125 16.703125 6.453125 C16.161456 6.453125 15.632815 6.494791 15.117188 6.578125 C14.601560 6.661459 14.161460 6.781249 13.796875 6.937500 Z M33.156250 26.984375 L32.953125 23.015625 L31.421875 21.718750 C31.640626 21.093747 31.963540 20.500003 32.390625 19.937500 C32.817710 19.374997 33.278643 18.914064 33.773438 18.554688 C34.268232 18.195311 34.723956 18.015625 35.140625 18.015625 C35.411460 18.015625 35.651041 18.101562 35.859375 18.273438 C36.067709 18.445313 36.171875 18.697915 36.171875 19.031250 C36.171875 19.187501 36.119792 19.354166 36.015625 19.531250 C35.911458 19.708334 35.684898 19.955728 35.335938 20.273438 C34.986977 20.591147 34.453129 21.057289 33.734375 21.671875 L33.921875 21.890625 C34.578128 21.453123 35.203122 21.153647 35.796875 20.992188 C36.390628 20.830728 36.895831 20.750000 37.312500 20.750000 C38.250005 20.750000 38.718750 21.041664 38.718750 21.625000 C38.718750 22.010419 38.455732 22.356769 37.929688 22.664062 C37.403643 22.971356 36.458340 23.348956 35.093750 23.796875 L35.218750 24.093750 C35.552085 24.010416 35.874998 23.945313 36.187500 23.898438 C36.500002 23.851562 36.796874 23.828125 37.078125 23.828125 C37.609378 23.828125 38.049477 23.901041 38.398438 24.046875 C38.747398 24.192709 38.921875 24.406249 38.921875 24.687500 C38.921875 24.979168 38.726564 25.249999 38.335938 25.500000 C37.945311 25.750001 37.473961 25.932291 36.921875 26.046875 L34.046875 26.656250 Z M25.687500 17.015625 L23.484375 16.156250 L24.796875 14.937500 C24.661458 14.645832 24.559896 14.335939 24.492188 14.007812 C24.424479 13.679686 24.390625 13.338543 24.390625 12.984375 C24.390625 12.203121 24.533853 11.429691 24.820312 10.664062 C25.106772 9.898434 25.486977 9.265628 25.960938 8.765625 C26.434898 8.265622 26.953122 8.015625 27.515625 8.015625 C27.859377 8.015625 28.122395 8.106770 28.304688 8.289062 C28.486980 8.471355 28.578125 8.697915 28.578125 8.968750 C28.578125 9.208335 28.466147 9.473957 28.242188 9.765625 C28.018228 10.057293 27.750002 10.395831 27.437500 10.781250 C27.124998 11.166669 26.828126 11.624997 26.546875 12.156250 L26.796875 12.296875 C27.463545 11.390620 28.046872 10.713544 28.546875 10.265625 C29.046878 9.817706 29.473957 9.593750 29.828125 9.593750 C30.067710 9.593750 30.265624 9.671874 30.421875 9.828125 C30.578126 9.984376 30.656250 10.187499 30.656250 10.437500 C30.656250 10.697918 30.515626 11.044269 30.234375 11.476562 C29.953124 11.908856 29.390629 12.645828 28.546875 13.687500 L28.765625 13.921875 C29.484379 13.130204 30.020832 12.554689 30.375000 12.195312 C30.729168 11.835936 31.002603 11.606771 31.195312 11.507812 C31.388022 11.408854 31.598957 11.359375 31.828125 11.359375 C32.223960 11.359375 32.421875 11.802079 32.421875 12.687500 L30.765625 15.890625 Z M35.984375 21.843750 C36.473961 20.520827 36.809895 19.234381 36.992188 17.984375 C37.174480 16.734369 37.265625 15.552089 37.265625 14.437500 C37.265625 12.374990 37.007815 10.609382 36.492188 9.140625 C35.976560 7.671868 35.341150 6.473963 34.585938 5.546875 C33.830725 4.619787 33.085941 3.937502 32.351562 3.500000 C31.617184 3.062498 31.031252 2.843750 30.593750 2.843750 C30.406249 2.843750 30.257813 2.877604 30.148438 2.945312 C30.039062 3.013021 29.984375 3.104166 29.984375 3.218750 C29.984375 3.343751 30.049479 3.505207 30.179688 3.703125 C30.309896 3.901043 30.458332 4.109374 30.625000 4.328125 C31.614588 5.619798 32.335935 6.835932 32.789062 7.976562 C33.242190 9.117193 33.468750 10.291661 33.468750 11.500000 C33.468750 12.666672 33.187503 13.703120 32.625000 14.609375 C32.062497 15.515630 31.278651 16.226560 30.273438 16.742188 C29.268224 17.257815 28.093757 17.515625 26.750000 17.515625 C25.645828 17.515625 24.583338 17.338543 23.562500 16.984375 C22.541662 16.630207 21.713545 16.203128 21.078125 15.703125 L21.750000 14.093750 C22.270836 14.635419 22.981766 15.054686 23.882812 15.351562 C24.783859 15.648439 25.739578 15.796875 26.750000 15.796875 C28.333341 15.796875 29.536454 15.408858 30.359375 14.632812 C31.182296 13.856767 31.593750 12.812507 31.593750 11.500000 C31.593750 10.843747 31.520834 10.213545 31.375000 9.609375 C31.229166 9.005205 30.984377 8.361983 30.640625 7.679688 C30.296873 6.997392 29.822920 6.203130 29.218750 5.296875 C28.833331 4.713539 28.557292 4.218752 28.390625 3.812500 C28.223958 3.406248 28.140625 3.020835 28.140625 2.656250 C28.140625 2.197914 28.330727 1.838543 28.710938 1.578125 C29.091148 1.317707 29.583330 1.187500 30.187500 1.187500 C30.822920 1.187500 31.536454 1.343748 32.328125 1.656250 C33.119796 1.968752 33.914059 2.458330 34.710938 3.125000 C35.507816 3.791670 36.239580 4.658849 36.906250 5.726562 C37.572920 6.794276 38.109373 8.083326 38.515625 9.593750 C38.921877 11.104174 39.125000 12.854157 39.125000 14.843750 C39.125000 16.041673 39.018230 17.223952 38.804688 18.390625 C38.591145 19.557297 38.265627 20.651037 37.828125 21.671875 Z M39.875000 26.562500" /></svg>