<svg version="1.1" xmlns="http://www.w3.org/2000/svg" style="fill:rgba(0,0,0,1.0)" width="256" height="256" viewBox="0 0 32.8125 32.8125"><path fill="rgb(255, 255, 255)" d="M2.921875 23.875000 C2.067704 23.208330 1.367190 22.395838 0.820312 21.437500 C0.273435 20.479162 0.000000 19.479172 0.000000 18.437500 C0.000000 17.499995 0.197915 16.692712 0.593750 16.015625 C0.989585 15.338538 1.510413 14.869793 2.156250 14.609375 C1.958332 14.078122 1.802084 13.632814 1.687500 13.273438 C1.572916 12.914061 1.489584 12.572918 1.437500 12.250000 C1.385416 11.927082 1.359375 11.546877 1.359375 11.109375 C1.359375 8.244777 2.312490 5.984383 4.218750 4.328125 C6.125010 2.671867 8.885399 1.843750 12.500000 1.843750 C16.114601 1.843750 18.874990 2.671867 20.781250 4.328125 C22.687510 5.984383 23.640625 8.244777 23.640625 11.109375 C23.640625 11.546877 23.614584 11.927082 23.562500 12.250000 C23.510416 12.572918 23.427084 12.914061 23.312500 13.273438 C23.197916 13.632814 23.041668 14.078122 22.843750 14.609375 C23.489587 14.869793 24.010415 15.338538 24.406250 16.015625 C24.802085 16.692712 25.000000 17.499995 25.000000 18.437500 C25.000000 19.479172 24.729169 20.479162 24.187500 21.437500 C23.645831 22.395838 22.942713 23.208330 22.078125 23.875000 L21.921875 19.750000 L20.718750 15.328125 C21.104169 14.588538 21.374999 13.888024 21.531250 13.226562 C21.687501 12.565101 21.765625 11.859379 21.765625 11.109375 C21.765625 8.588529 20.979175 6.700527 19.406250 5.445312 C17.833325 4.190098 15.531265 3.562500 12.500000 3.562500 C9.468735 3.562500 7.166675 4.190098 5.593750 5.445312 C4.020825 6.700527 3.234375 8.588529 3.234375 11.109375 C3.234375 11.859379 3.312499 12.565101 3.468750 13.226562 C3.625001 13.888024 3.895831 14.588538 4.281250 15.328125 L3.078125 19.750000 Z M5.687500 31.640625 C4.374993 31.640625 3.718750 31.401044 3.718750 30.921875 C3.718750 30.671874 3.838540 30.424480 4.078125 30.179688 C4.317710 29.934895 4.593748 29.679689 4.906250 29.414062 C5.218752 29.148436 5.494790 28.859377 5.734375 28.546875 C5.973960 28.234373 6.093750 27.885419 6.093750 27.500000 L7.640625 28.921875 Z M7.312500 32.812500 C5.541658 32.812500 4.656250 32.328130 4.656250 31.359375 C4.656250 31.161457 4.776040 30.932293 5.015625 30.671875 C5.255210 30.411457 5.531248 30.151043 5.843750 29.890625 C6.156252 29.630207 6.432290 29.393230 6.671875 29.179688 C6.911460 28.966145 7.031250 28.802084 7.031250 28.687500 L8.593750 28.687500 C8.593750 29.010418 8.481772 29.320311 8.257812 29.617188 C8.033853 29.914064 7.614586 30.307289 7.000000 30.796875 L6.546875 31.156250 C6.651042 31.187500 6.763020 31.210937 6.882812 31.226562 C7.002605 31.242188 7.145832 31.250000 7.312500 31.250000 C7.885420 31.250000 8.453122 31.182292 9.015625 31.046875 C9.578128 30.911458 10.148435 30.776042 10.726562 30.640625 C11.304690 30.505208 11.895830 30.437500 12.500000 30.437500 C13.114586 30.437500 13.708330 30.505208 14.281250 30.640625 C14.854170 30.776042 15.421872 30.911458 15.984375 31.046875 C16.546878 31.182292 17.114580 31.250000 17.687500 31.250000 C17.864584 31.250000 18.010416 31.242188 18.125000 31.226562 C18.239584 31.210937 18.348958 31.187500 18.453125 31.156250 L18.000000 30.796875 C17.385414 30.307289 16.966147 29.914064 16.742188 29.617188 C16.518228 29.320311 16.406250 29.010418 16.406250 28.687500 L17.968750 28.687500 C17.968750 28.802084 18.088540 28.966145 18.328125 29.179688 C18.567710 29.393230 18.843748 29.630207 19.156250 29.890625 C19.468752 30.151043 19.744790 30.411457 19.984375 30.671875 C20.223960 30.932293 20.343750 31.161457 20.343750 31.359375 C20.343750 32.328130 19.458342 32.812500 17.687500 32.812500 C16.968746 32.812500 16.320315 32.744792 15.742188 32.609375 C15.164060 32.473958 14.614586 32.338542 14.093750 32.203125 C13.572914 32.067708 13.041669 32.000000 12.500000 32.000000 C11.958331 32.000000 11.429690 32.067708 10.914062 32.203125 C10.398435 32.338542 9.854170 32.473958 9.281250 32.609375 C8.708330 32.744792 8.052087 32.812500 7.312500 32.812500 Z M10.609375 24.968750 C10.244790 24.968750 9.888023 24.888022 9.539062 24.726562 C9.190102 24.565103 8.854168 24.322918 8.531250 24.000000 L9.578125 22.937500 C9.755209 23.104168 9.929687 23.231770 10.101562 23.320312 C10.273438 23.408855 10.447916 23.453125 10.625000 23.453125 C10.947918 23.453125 11.302081 23.307293 11.687500 23.015625 L12.593750 24.218750 C12.260415 24.468751 11.929689 24.656249 11.601562 24.781250 C11.273436 24.906251 10.942710 24.968750 10.609375 24.968750 Z M7.796875 21.218750 C7.432290 21.218750 7.075523 21.138022 6.726562 20.976562 C6.377602 20.815103 6.041668 20.572918 5.718750 20.250000 L6.765625 19.187500 C6.942709 19.354168 7.117187 19.481770 7.289062 19.570312 C7.460938 19.658855 7.635416 19.703125 7.812500 19.703125 C8.135418 19.703125 8.489581 19.557293 8.875000 19.265625 L9.781250 20.468750 C9.447915 20.718751 9.117189 20.906249 8.789062 21.031250 C8.460936 21.156251 8.130210 21.218750 7.796875 21.218750 Z M12.500000 30.750000 C10.458323 30.750000 8.664070 30.276046 7.117188 29.328125 C5.570305 28.380204 4.364588 27.080737 3.500000 25.429688 C2.635412 23.778638 2.203125 21.895844 2.203125 19.781250 C2.203125 16.541650 3.421863 14.921875 5.859375 14.921875 C6.536462 14.921875 7.270829 15.039061 8.062500 15.273438 C8.854171 15.507814 9.638017 15.835935 10.414062 16.257812 C11.190108 16.679690 11.885414 17.166664 12.500000 17.718750 C13.114586 17.166664 13.809892 16.679690 14.585938 16.257812 C15.361983 15.835935 16.148434 15.507814 16.945312 15.273438 C17.742191 15.039061 18.473955 14.921875 19.140625 14.921875 C21.578137 14.921875 22.796875 16.541650 22.796875 19.781250 C22.796875 21.895844 22.364588 23.778638 21.500000 25.429688 C20.635412 27.080737 19.432299 28.380204 17.890625 29.328125 C16.348951 30.276046 14.552094 30.750000 12.500000 30.750000 Z M12.500000 29.187500 C14.260425 29.187500 15.794264 28.783858 17.101562 27.976562 C18.408861 27.169267 19.424476 26.057299 20.148438 24.640625 C20.872399 23.223951 21.234375 21.604176 21.234375 19.781250 C21.234375 18.562494 21.067710 17.713544 20.734375 17.234375 C20.401040 16.755206 19.822921 16.515625 19.000000 16.515625 C18.239580 16.515625 17.437504 16.677082 16.593750 17.000000 C15.749996 17.322918 14.963545 17.752601 14.234375 18.289062 C13.505205 18.825524 12.927085 19.421872 12.500000 20.078125 C12.072915 19.421872 11.494795 18.825524 10.765625 18.289062 C10.036455 17.752601 9.250004 17.322918 8.406250 17.000000 C7.562496 16.677082 6.760420 16.515625 6.000000 16.515625 C5.177079 16.515625 4.598960 16.755206 4.265625 17.234375 C3.932290 17.713544 3.765625 18.562494 3.765625 19.781250 C3.765625 21.604176 4.127601 23.223951 4.851562 24.640625 C5.575524 26.057299 6.593743 27.169267 7.906250 27.976562 C9.218757 28.783858 10.749991 29.187500 12.500000 29.187500 Z M19.312500 31.640625 L17.359375 28.921875 L18.906250 27.500000 C18.906250 27.885419 19.026040 28.234373 19.265625 28.546875 C19.505210 28.859377 19.781248 29.148436 20.093750 29.414062 C20.406252 29.679689 20.682290 29.934895 20.921875 30.179688 C21.161460 30.424480 21.281250 30.671874 21.281250 30.921875 C21.281250 31.401044 20.625007 31.640625 19.312500 31.640625 Z M16.703125 24.500000 C16.338540 24.500000 15.981773 24.419272 15.632812 24.257812 C15.283852 24.096353 14.947918 23.854168 14.625000 23.531250 L15.671875 22.468750 C15.848959 22.635418 16.023437 22.763020 16.195312 22.851562 C16.367188 22.940105 16.541666 22.984375 16.718750 22.984375 C17.041668 22.984375 17.395831 22.838543 17.781250 22.546875 L18.687500 23.750000 C18.354165 24.000001 18.023439 24.187499 17.695312 24.312500 C17.367186 24.437501 17.036460 24.500000 16.703125 24.500000 Z M17.015625 21.218750 C16.651040 21.218750 16.294273 21.138022 15.945312 20.976562 C15.596352 20.815103 15.260418 20.572918 14.937500 20.250000 L15.984375 19.187500 C16.161459 19.354168 16.335937 19.481770 16.507812 19.570312 C16.679688 19.658855 16.854166 19.703125 17.031250 19.703125 C17.354168 19.703125 17.708331 19.557293 18.093750 19.265625 L19.000000 20.468750 C18.666665 20.718751 18.335939 20.906249 18.007812 21.031250 C17.679686 21.156251 17.348960 21.218750 17.015625 21.218750 Z M7.875000 13.734375 C7.187497 13.734375 6.562503 13.565106 6.000000 13.226562 C5.437497 12.888019 4.986981 12.437503 4.648438 11.875000 C4.309894 11.312497 4.140625 10.687503 4.140625 10.000000 C4.140625 9.312497 4.309894 8.687503 4.648438 8.125000 C4.986981 7.562497 5.437497 7.114585 6.000000 6.781250 C6.562503 6.447915 7.187497 6.281250 7.875000 6.281250 C8.562503 6.281250 9.187497 6.447915 9.750000 6.781250 C10.312503 7.114585 10.760415 7.562497 11.093750 8.125000 C11.427085 8.687503 11.593750 9.312497 11.593750 10.000000 C11.593750 10.687503 11.427085 11.312497 11.093750 11.875000 C10.760415 12.437503 10.312503 12.888019 9.750000 13.226562 C9.187497 13.565106 8.562503 13.734375 7.875000 13.734375 Z M8.187500 12.484375 C8.864587 12.484375 9.442706 12.250002 9.921875 11.781250 C10.401044 11.312498 10.640625 10.718754 10.640625 10.000000 C10.640625 9.281246 10.401044 8.687502 9.921875 8.218750 C9.442706 7.749998 8.864587 7.515625 8.187500 7.515625 C7.510413 7.515625 6.932294 7.749998 6.453125 8.218750 C5.973956 8.687502 5.734375 9.281246 5.734375 10.000000 C5.734375 10.718754 5.973956 11.312498 6.453125 11.781250 C6.932294 12.250002 7.510413 12.484375 8.187500 12.484375 Z M8.187500 11.500000 C7.770831 11.500000 7.416668 11.356772 7.125000 11.070312 C6.833332 10.783853 6.687500 10.427085 6.687500 10.000000 C6.687500 9.572915 6.833332 9.216147 7.125000 8.929688 C7.416668 8.643228 7.770831 8.500000 8.187500 8.500000 C8.614585 8.500000 8.971353 8.643228 9.257812 8.929688 C9.544272 9.216147 9.687500 9.572915 9.687500 10.000000 C9.687500 10.427085 9.544272 10.783853 9.257812 11.070312 C8.971353 11.356772 8.614585 11.500000 8.187500 11.500000 Z M12.500000 16.437500 C12.270832 16.437500 12.052084 16.268231 11.843750 15.929688 C11.635416 15.591144 11.463542 15.197919 11.328125 14.750000 C11.192708 14.302081 11.125000 13.911460 11.125000 13.578125 L11.125000 11.765625 L13.875000 11.765625 L13.875000 13.578125 C13.875000 13.911460 13.807292 14.302081 13.671875 14.750000 C13.536458 15.197919 13.364584 15.591144 13.156250 15.929688 C12.947916 16.268231 12.729168 16.437500 12.500000 16.437500 Z M3.593750 6.359375 C2.958330 5.723955 2.468752 5.036462 2.125000 4.296875 C1.781248 3.557288 1.609375 2.822920 1.609375 2.093750 C1.609375 1.843749 1.635416 1.572918 1.687500 1.281250 C2.000002 1.281250 2.380206 1.445311 2.828125 1.773438 C3.276044 2.101564 3.677082 2.505206 4.031250 2.984375 C3.614581 1.994787 3.406250 1.000005 3.406250 -0.000000 C3.895836 -0.000000 4.429685 0.187498 5.007812 0.562500 C5.585940 0.937502 6.080727 1.385414 6.492188 1.906250 C6.903648 2.427086 7.109375 2.911456 7.109375 3.359375 L5.218750 4.281250 Z M12.500000 12.531250 C11.843747 12.531250 11.338543 12.460938 10.984375 12.320312 C10.630207 12.179687 10.453125 11.890627 10.453125 11.453125 C10.453125 10.963539 10.666665 10.507815 11.093750 10.085938 C11.520835 9.664060 11.989581 9.453125 12.500000 9.453125 C13.010419 9.453125 13.479165 9.664060 13.906250 10.085938 C14.333335 10.507815 14.546875 10.963539 14.546875 11.453125 C14.546875 11.890627 14.369793 12.179687 14.015625 12.320312 C13.661457 12.460938 13.156253 12.531250 12.500000 12.531250 Z M12.500000 11.593750 C12.958336 11.593750 13.257812 11.580729 13.398438 11.554688 C13.539063 11.528646 13.609375 11.494792 13.609375 11.453125 C13.609375 11.223957 13.486980 10.989585 13.242188 10.750000 C12.997395 10.510415 12.750001 10.390625 12.500000 10.390625 C12.249999 10.390625 12.002605 10.510415 11.757812 10.750000 C11.513020 10.989585 11.390625 11.223957 11.390625 11.453125 C11.390625 11.494792 11.460937 11.528646 11.601562 11.554688 C11.742188 11.580729 12.041664 11.593750 12.500000 11.593750 Z M11.437500 10.093750 C11.437500 9.531247 11.283856 8.947920 10.976562 8.343750 C10.669269 7.739580 10.252607 7.179690 9.726562 6.664062 C9.200518 6.148435 8.598962 5.731772 7.921875 5.414062 C7.244788 5.096353 6.531254 4.937500 5.781250 4.937500 L11.015625 2.593750 L13.984375 2.593750 L19.218750 4.937500 C18.468746 4.937500 17.755212 5.096353 17.078125 5.414062 C16.401038 5.731772 15.799482 6.148435 15.273438 6.664062 C14.747393 7.179690 14.330731 7.739580 14.023438 8.343750 C13.716144 8.947920 13.562500 9.531247 13.562500 10.093750 Z M16.812500 12.484375 C17.489587 12.484375 18.067706 12.250002 18.546875 11.781250 C19.026044 11.312498 19.265625 10.718754 19.265625 10.000000 C19.265625 9.281246 19.026044 8.687502 18.546875 8.218750 C18.067706 7.749998 17.489587 7.515625 16.812500 7.515625 C16.135413 7.515625 15.557294 7.749998 15.078125 8.218750 C14.598956 8.687502 14.359375 9.281246 14.359375 10.000000 C14.359375 10.718754 14.598956 11.312498 15.078125 11.781250 C15.557294 12.250002 16.135413 12.484375 16.812500 12.484375 Z M16.812500 11.500000 C16.395831 11.500000 16.041668 11.356772 15.750000 11.070312 C15.458332 10.783853 15.312500 10.427085 15.312500 10.000000 C15.312500 9.572915 15.458332 9.216147 15.750000 8.929688 C16.041668 8.643228 16.395831 8.500000 16.812500 8.500000 C17.239585 8.500000 17.596353 8.643228 17.882812 8.929688 C18.169272 9.216147 18.312500 9.572915 18.312500 10.000000 C18.312500 10.427085 18.169272 10.783853 17.882812 11.070312 C17.596353 11.356772 17.239585 11.500000 16.812500 11.500000 Z M17.125000 13.734375 C16.437497 13.734375 15.812503 13.565106 15.250000 13.226562 C14.687497 12.888019 14.239585 12.437503 13.906250 11.875000 C13.572915 11.312497 13.406250 10.687503 13.406250 10.000000 C13.406250 9.312497 13.572915 8.687503 13.906250 8.125000 C14.239585 7.562497 14.690101 7.114585 15.257812 6.781250 C15.825524 6.447915 16.447913 6.281250 17.125000 6.281250 C17.812503 6.281250 18.440101 6.447915 19.007812 6.781250 C19.575524 7.114585 20.026040 7.562497 20.359375 8.125000 C20.692710 8.687503 20.859375 9.312497 20.859375 10.000000 C20.859375 10.687503 20.692710 11.312497 20.359375 11.875000 C20.026040 12.437503 19.575524 12.888019 19.007812 13.226562 C18.440101 13.565106 17.812503 13.734375 17.125000 13.734375 Z M21.406250 6.359375 L19.781250 4.281250 L17.890625 3.359375 C17.890625 2.911456 18.096352 2.427086 18.507812 1.906250 C18.919273 1.385414 19.414060 0.937502 19.992188 0.562500 C20.570315 0.187498 21.104164 -0.000000 21.593750 -0.000000 C21.593750 1.000005 21.385419 1.994787 20.968750 2.984375 C21.322918 2.505206 21.723956 2.101564 22.171875 1.773438 C22.619794 1.445311 22.999998 1.281250 23.312500 1.281250 C23.364584 1.572918 23.390625 1.843749 23.390625 2.093750 C23.390625 2.822920 23.221356 3.557288 22.882812 4.296875 C22.544269 5.036462 22.052087 5.723955 21.406250 6.359375 Z M32.812500 27.343750" /></svg>