<svg version="1.1" xmlns="http://www.w3.org/2000/svg" style="fill:rgba(0,0,0,1.0)" width="256" height="256" viewBox="0 0 38.359375 32.8125"><path fill="rgb(255, 255, 255)" d="M16.734375 32.812500 C15.848954 32.812500 15.184898 32.677085 14.742188 32.406250 C14.299477 32.135415 14.078125 31.682295 14.078125 31.046875 C14.078125 30.817707 14.127604 30.419274 14.226562 29.851562 C14.325521 29.283851 14.424479 28.684899 14.523438 28.054688 C14.622396 27.424476 14.671875 26.901044 14.671875 26.484375 C14.671875 26.234374 14.640625 25.841149 14.578125 25.304688 C14.515625 24.768226 14.427084 24.354168 14.312500 24.062500 C12.177073 23.656248 10.562505 22.851569 9.468750 21.648438 C8.374995 20.445306 7.765626 18.817719 7.640625 16.765625 C7.171873 16.661458 6.700523 16.460939 6.226562 16.164062 C5.752602 15.867186 5.380210 15.536460 5.109375 15.171875 C4.151037 15.119791 3.283858 14.911460 2.507812 14.546875 C1.731767 14.182290 1.119794 13.718753 0.671875 13.156250 C0.223956 12.593747 0.000000 11.994795 0.000000 11.359375 C0.000000 10.796872 0.177082 10.239586 0.531250 9.687500 C0.885418 9.135414 1.270831 8.729168 1.687500 8.468750 L3.046875 7.093750 C3.098959 6.916666 3.184895 6.710939 3.304688 6.476562 C3.424480 6.242186 3.588541 6.005210 3.796875 5.765625 C4.057293 5.473957 4.302082 5.273438 4.531250 5.164062 C4.760418 5.054687 4.973957 4.955730 5.171875 4.867188 C5.369793 4.778645 5.546874 4.619793 5.703125 4.390625 C5.973960 3.973956 6.265623 3.645835 6.578125 3.406250 C6.890627 3.166665 7.286456 3.046875 7.765625 3.046875 C8.192710 3.046875 8.614581 3.111979 9.031250 3.242188 C9.447919 3.372396 9.835936 3.505208 10.195312 3.640625 C10.554689 3.776042 10.848957 3.843750 11.078125 3.843750 C11.515627 3.843750 12.049476 3.942707 12.679688 4.140625 C13.309899 4.338543 13.833331 4.572915 14.250000 4.843750 L18.421875 7.546875 C18.734377 7.744793 19.364579 7.911458 20.312500 8.046875 C21.260421 8.182292 22.302078 8.250000 23.437500 8.250000 C23.739585 8.250000 24.145831 8.223959 24.656250 8.171875 C25.166669 8.119791 25.656248 8.065104 26.125000 8.007812 C26.593752 7.950521 26.911458 7.921875 27.078125 7.921875 C27.703128 7.921875 28.343747 8.083332 29.000000 8.406250 C29.656253 8.729168 30.263018 9.153643 30.820312 9.679688 C31.377607 10.205732 31.828123 10.776039 32.171875 11.390625 C32.515627 12.005211 32.687500 12.604164 32.687500 13.187500 C32.687500 13.718753 32.627605 14.312497 32.507812 14.968750 C32.388020 15.625003 32.151043 16.552077 31.796875 17.750000 C31.484373 18.802089 31.268230 19.624997 31.148438 20.218750 C31.028645 20.812503 30.968750 21.338539 30.968750 21.796875 C30.968750 22.182294 31.020833 22.505207 31.125000 22.765625 C31.229167 23.026043 31.416665 23.317707 31.687500 23.640625 C31.895834 23.880210 32.046875 24.093749 32.140625 24.281250 C32.234375 24.468751 32.281250 24.661457 32.281250 24.859375 C32.281250 25.067709 32.247396 25.364581 32.179688 25.750000 C32.111979 26.135419 32.041667 26.523436 31.968750 26.914062 C31.895833 27.304689 31.859375 27.624999 31.859375 27.875000 C31.859375 28.604170 31.854167 29.218748 31.843750 29.718750 C31.833333 30.218752 31.828125 30.604165 31.828125 30.875000 C31.828125 31.218752 31.520836 31.515624 30.906250 31.765625 C30.291664 32.015626 29.625004 32.140625 28.906250 32.140625 C28.177080 32.140625 27.598960 32.005210 27.171875 31.734375 C26.744790 31.463540 26.531250 31.135419 26.531250 30.750000 C26.531250 30.374998 26.583333 30.039064 26.687500 29.742188 C26.791667 29.445311 26.893229 29.132814 26.992188 28.804688 C27.091146 28.476561 27.140625 28.088544 27.140625 27.640625 C27.140625 27.130206 27.018230 26.554691 26.773438 25.914062 C26.528645 25.273434 26.255210 24.611983 25.953125 23.929688 C25.651040 23.247392 25.421876 22.588545 25.265625 21.953125 C24.390621 22.338544 23.536462 22.640624 22.703125 22.859375 C21.869788 23.078126 20.921880 23.203125 19.859375 23.234375 C19.734374 23.661460 19.614584 24.148435 19.500000 24.695312 C19.385416 25.242190 19.291667 25.763018 19.218750 26.257812 C19.145833 26.752607 19.109375 27.140624 19.109375 27.421875 C19.109375 27.640626 19.151041 27.997393 19.234375 28.492188 C19.317709 28.986982 19.401041 29.473956 19.484375 29.953125 C19.567709 30.432294 19.609375 30.760416 19.609375 30.937500 C19.609375 31.552086 19.380211 32.018228 18.921875 32.335938 C18.463539 32.653647 17.734380 32.812500 16.734375 32.812500 Z M10.687500 31.000000 C10.135414 31.000000 9.687502 30.937501 9.343750 30.812500 C8.999998 30.687499 8.828125 30.494793 8.828125 30.234375 C8.828125 30.109374 8.861979 29.981771 8.929688 29.851562 C8.997396 29.721354 9.072916 29.609375 9.156250 29.515625 C9.281251 29.380208 9.393229 29.143231 9.492188 28.804688 C9.591146 28.466144 9.671875 28.091148 9.734375 27.679688 C9.796875 27.268227 9.828125 26.890627 9.828125 26.546875 C9.828125 26.140623 9.786459 25.611982 9.703125 24.960938 C9.619791 24.309893 9.513021 23.622399 9.382812 22.898438 C9.252604 22.174476 9.114584 21.500003 8.968750 20.875000 L13.187500 23.328125 C13.031249 23.901045 12.919271 24.450518 12.851562 24.976562 C12.783854 25.502607 12.750000 26.015622 12.750000 26.515625 C12.750000 26.901044 12.763021 27.346352 12.789062 27.851562 C12.815104 28.356773 12.843750 28.817706 12.875000 29.234375 C12.906250 29.651044 12.921875 29.916666 12.921875 30.031250 C12.921875 30.312501 12.726564 30.544270 12.335938 30.726562 C11.945311 30.908855 11.395837 31.000000 10.687500 31.000000 Z M1.937500 11.796875 C1.739582 11.796875 1.640625 11.708334 1.640625 11.531250 C1.640625 11.385416 1.742186 11.302083 1.945312 11.281250 C2.148439 11.260417 2.385415 11.072918 2.656250 10.718750 C2.875001 10.437499 3.072916 10.296875 3.250000 10.296875 C3.375001 10.296875 3.479166 10.346354 3.562500 10.445312 C3.645834 10.544271 3.687500 10.645833 3.687500 10.750000 C3.687500 10.968751 3.552085 11.177082 3.281250 11.375000 C3.135416 11.479167 2.945314 11.575520 2.710938 11.664062 C2.476561 11.752605 2.218751 11.796875 1.937500 11.796875 Z M14.140625 23.640625 C13.817707 23.005205 13.572917 22.354170 13.406250 21.687500 C13.239582 21.020830 13.156250 20.343753 13.156250 19.656250 C13.156250 18.291660 13.494788 16.953132 14.171875 15.640625 L15.562500 16.359375 C15.270832 16.911461 15.057292 17.458331 14.921875 18.000000 C14.786458 18.541669 14.718750 19.093747 14.718750 19.656250 C14.718750 20.135419 14.765625 20.604164 14.859375 21.062500 C14.953125 21.520836 15.098957 21.979164 15.296875 22.437500 Z M23.703125 30.281250 C23.036455 30.281250 22.572918 30.244792 22.312500 30.171875 C22.052082 30.098958 21.921875 29.984376 21.921875 29.828125 C21.921875 29.526040 22.013020 29.065107 22.195312 28.445312 C22.377605 27.825518 22.468750 27.171878 22.468750 26.484375 C22.468750 26.182290 22.445313 25.835939 22.398438 25.445312 C22.351562 25.054686 22.296875 24.692710 22.234375 24.359375 C22.171875 24.026040 22.104167 23.796876 22.031250 23.671875 L21.250000 24.250000 C20.635414 23.864581 20.140627 23.580730 19.765625 23.398438 C19.390623 23.216145 19.020835 23.125000 18.656250 23.125000 L25.687500 21.625000 C25.562499 22.156253 25.460938 22.635415 25.382812 23.062500 C25.304687 23.489585 25.265625 23.916665 25.265625 24.343750 C25.265625 24.770835 25.299479 25.276039 25.367188 25.859375 C25.434896 26.442711 25.500000 27.033851 25.562500 27.632812 C25.625000 28.231774 25.656250 28.765623 25.656250 29.234375 C25.656250 29.588543 25.421877 29.851562 24.953125 30.023438 C24.484373 30.195313 24.067710 30.281250 23.703125 30.281250 Z M16.734375 31.093750 C17.130210 31.093750 17.447915 31.062500 17.687500 31.000000 C17.927085 30.937500 18.046875 30.828126 18.046875 30.671875 C18.046875 30.619791 18.020834 30.447918 17.968750 30.156250 C17.916666 29.864582 17.859375 29.526044 17.796875 29.140625 C17.734375 28.755206 17.677084 28.388023 17.625000 28.039062 C17.572916 27.690102 17.546875 27.432292 17.546875 27.265625 C17.546875 26.755206 17.598958 26.174482 17.703125 25.523438 C17.807292 24.872393 17.953124 24.200524 18.140625 23.507812 C18.328126 22.815101 18.541665 22.151045 18.781250 21.515625 C19.885422 21.515625 20.817705 21.468750 21.578125 21.375000 C22.338545 21.281250 23.075517 21.083335 23.789062 20.781250 C24.502608 20.479165 25.338537 20.020836 26.296875 19.406250 C26.463542 20.562506 26.739581 21.622391 27.125000 22.585938 C27.510419 23.549484 27.869790 24.442704 28.203125 25.265625 C28.536460 26.088546 28.703125 26.880205 28.703125 27.640625 C28.703125 28.078127 28.658855 28.442707 28.570312 28.734375 C28.481770 29.026043 28.395834 29.273436 28.312500 29.476562 C28.229166 29.679689 28.187500 29.874999 28.187500 30.062500 C28.187500 30.218751 28.312499 30.317708 28.562500 30.359375 C28.812501 30.401042 29.041666 30.421875 29.250000 30.421875 C29.427084 30.421875 29.638020 30.377605 29.882812 30.289062 C30.127605 30.200520 30.250000 30.057293 30.250000 29.859375 C30.250000 29.661457 30.255208 29.424481 30.265625 29.148438 C30.276042 28.872394 30.281250 28.447920 30.281250 27.875000 C30.281250 27.697916 30.302083 27.437502 30.343750 27.093750 C30.385417 26.749998 30.437500 26.416668 30.500000 26.093750 L30.718750 24.890625 C30.302081 24.369789 29.979168 23.843753 29.750000 23.312500 C29.520832 22.781247 29.406250 22.276044 29.406250 21.796875 C29.406250 21.265622 29.471354 20.661462 29.601562 19.984375 C29.731771 19.307288 29.963540 18.416672 30.296875 17.312500 C30.640627 16.166661 30.864583 15.307295 30.968750 14.734375 C31.072917 14.161455 31.125000 13.645836 31.125000 13.187500 C31.125000 12.781248 30.997397 12.369794 30.742188 11.953125 C30.486978 11.536456 30.153648 11.153648 29.742188 10.804688 C29.330727 10.455727 28.880211 10.174480 28.390625 9.960938 C27.901039 9.747395 27.416669 9.640625 26.937500 9.640625 C26.687499 9.640625 26.351565 9.669271 25.929688 9.726562 C25.507810 9.783854 25.072919 9.838541 24.625000 9.890625 C24.177081 9.942709 23.781252 9.968750 23.437500 9.968750 C22.083327 9.968750 20.877609 9.880209 19.820312 9.703125 C18.763016 9.526041 18.015627 9.296876 17.578125 9.015625 L13.406250 6.312500 C13.104165 6.114582 12.716148 5.940105 12.242188 5.789062 C11.768227 5.638020 11.380210 5.562500 11.078125 5.562500 C10.536456 5.562500 9.979170 5.429689 9.406250 5.164062 C8.833330 4.898436 8.286461 4.765625 7.765625 4.765625 C7.578124 4.765625 7.442709 4.794271 7.359375 4.851562 C7.276041 4.908854 7.161459 5.041666 7.015625 5.250000 C6.755207 5.635419 6.520834 5.898437 6.312500 6.039062 C6.104166 6.179688 5.906251 6.289062 5.718750 6.367188 C5.531249 6.445313 5.338543 6.588541 5.140625 6.796875 C4.890624 7.057293 4.708334 7.427081 4.593750 7.906250 L2.765625 9.765625 C2.536457 9.901042 2.328126 10.127603 2.140625 10.445312 C1.953124 10.763022 1.859375 11.067707 1.859375 11.359375 C1.859375 11.734377 2.018228 12.080728 2.335938 12.398438 C2.653647 12.716147 3.093747 12.971353 3.656250 13.164062 C4.218753 13.356772 4.854163 13.453125 5.562500 13.453125 C6.020836 13.963544 6.567705 14.416665 7.203125 14.812500 C7.838545 15.208335 8.552079 15.557290 9.343750 15.859375 C9.343750 17.817718 9.794266 19.320307 10.695312 20.367188 C11.596359 21.414068 13.130198 22.104165 15.296875 22.437500 C15.651043 23.072920 15.888020 23.645831 16.007812 24.156250 C16.127605 24.666669 16.187500 25.338538 16.187500 26.171875 C16.187500 26.734378 16.143230 27.333330 16.054688 27.968750 C15.966145 28.604170 15.875000 29.171872 15.781250 29.671875 C15.687500 30.171878 15.640625 30.505208 15.640625 30.671875 C15.640625 30.817709 15.718749 30.924479 15.875000 30.992188 C16.031251 31.059896 16.317706 31.093750 16.734375 31.093750 Z M7.359375 9.437500 C7.098957 9.437500 6.872397 9.328126 6.679688 9.109375 C6.486978 8.890624 6.390625 8.625002 6.390625 8.312500 C6.390625 8.041665 6.473958 7.809897 6.640625 7.617188 C6.807292 7.424478 7.005207 7.328125 7.234375 7.328125 C7.494793 7.328125 7.718749 7.437499 7.906250 7.656250 C8.093751 7.875001 8.187500 8.135415 8.187500 8.437500 C8.187500 8.718751 8.109376 8.955728 7.953125 9.148438 C7.796874 9.341147 7.598960 9.437500 7.359375 9.437500 Z M3.984375 7.109375 C2.838536 6.109370 2.039065 5.270837 1.585938 4.593750 C1.132810 3.916663 0.906250 3.208337 0.906250 2.468750 C0.906250 2.020831 1.065103 1.635418 1.382812 1.312500 C1.700522 0.989582 2.072915 0.828125 2.500000 0.828125 C2.833335 0.828125 3.132811 0.888020 3.398438 1.007812 C3.664064 1.127605 3.796875 1.270833 3.796875 1.437500 C3.796875 1.572917 3.726563 1.669271 3.585938 1.726562 C3.445312 1.783854 3.375000 1.932290 3.375000 2.171875 C3.375000 2.557294 3.643226 2.984373 4.179688 3.453125 C4.716149 3.921877 5.442704 4.359373 6.359375 4.765625 Z M10.625000 14.140625 L10.312500 12.718750 C10.822919 12.645833 11.252602 12.549480 11.601562 12.429688 C11.950523 12.309895 12.125000 12.171876 12.125000 12.015625 C12.125000 10.880203 12.109375 9.901046 12.078125 9.078125 L13.609375 8.625000 C13.640625 9.104169 13.661458 9.632810 13.671875 10.210938 C13.682292 10.789065 13.687500 11.390622 13.687500 12.015625 C13.687500 12.598961 13.382816 13.078123 12.773438 13.453125 C12.164059 13.828127 11.447921 14.057291 10.625000 14.140625 Z M10.531250 6.265625 C9.979164 6.265625 9.492190 6.083335 9.070312 5.718750 C8.648435 5.354165 8.437500 4.869795 8.437500 4.265625 C8.437500 3.713539 8.255210 3.190107 7.890625 2.695312 C7.526040 2.200518 7.036461 1.875001 6.421875 1.718750 C5.984373 1.604166 5.682292 1.502605 5.515625 1.414062 C5.348958 1.325520 5.265625 1.218751 5.265625 1.093750 C5.265625 0.822915 5.531247 0.572918 6.062500 0.343750 C6.593753 0.114582 7.177080 -0.000000 7.812500 -0.000000 C8.541670 -0.000000 9.247392 0.195311 9.929688 0.585938 C10.611983 0.976564 11.174477 1.486976 11.617188 2.117188 C12.059898 2.747399 12.281250 3.416663 12.281250 4.125000 C12.281250 4.708336 12.130210 5.210935 11.828125 5.632812 C11.526040 6.054690 11.093753 6.265625 10.531250 6.265625 Z M14.328125 9.343750 C12.963535 9.343750 11.739589 9.182293 10.656250 8.859375 L11.000000 7.390625 C11.406252 7.526042 11.825519 7.635416 12.257812 7.718750 C12.690106 7.802084 13.130206 7.843750 13.578125 7.843750 C13.578125 7.239580 13.346356 6.713544 12.882812 6.265625 C12.419269 5.817706 11.942711 5.593750 11.453125 5.593750 L11.453125 4.031250 C12.119795 4.031250 12.731768 4.216144 13.289062 4.585938 C13.846357 4.955731 14.294269 5.429685 14.632812 6.007812 C14.971356 6.585940 15.140625 7.197913 15.140625 7.843750 C15.140625 8.093751 15.132813 8.343749 15.117188 8.593750 C15.101562 8.843751 15.072917 9.088540 15.031250 9.328125 C14.916666 9.338542 14.799480 9.343750 14.679688 9.343750 C14.559895 9.343750 14.442709 9.343750 14.328125 9.343750 Z M35.343750 26.812500 C35.208333 26.812500 35.052084 26.679689 34.875000 26.414062 C34.697916 26.148436 34.531251 25.921876 34.375000 25.734375 C33.833331 25.088538 33.484376 24.601564 33.328125 24.273438 C33.171874 23.945311 33.093750 23.578127 33.093750 23.171875 C33.093750 22.598955 33.140625 22.143231 33.234375 21.804688 C33.328125 21.466144 33.421875 21.223959 33.515625 21.078125 C33.255207 20.901041 32.947918 20.611981 32.593750 20.210938 C32.239582 19.809894 31.929689 19.312503 31.664062 18.718750 C31.398436 18.124997 31.265625 17.453129 31.265625 16.703125 L32.562500 13.187500 C32.562500 13.927087 32.658853 14.773433 32.851562 15.726562 C33.044272 16.679692 33.291665 17.606766 33.593750 18.507812 C33.895835 19.408859 34.213540 20.151039 34.546875 20.734375 C35.067711 20.994793 35.455728 21.471351 35.710938 22.164062 C35.966147 22.856774 36.093750 23.479164 36.093750 24.031250 C36.093750 24.364585 36.054688 24.749998 35.976562 25.187500 C35.898437 25.625002 35.802084 26.005207 35.687500 26.328125 C35.572916 26.651043 35.458334 26.812500 35.343750 26.812500 Z M38.359375 27.343750" /></svg>