<svg version="1.1" xmlns="http://www.w3.org/2000/svg" style="fill:rgba(0,0,0,1.0)" width="256" height="256" viewBox="0 0 35.46875 33.59375"><path fill="rgb(255, 255, 255)" d="M15.156250 33.593750 L0.000000 25.250000 L0.000000 8.437500 L15.156250 -0.000000 L30.312500 8.437500 L30.312500 25.250000 Z M5.812500 25.437500 L2.968750 23.875000 L2.968750 23.140625 L5.812500 24.703125 Z M3.843750 23.062500 L3.218750 22.718750 L3.218750 20.812500 L3.843750 21.125000 Z M9.625000 27.562500 L6.781250 26.000000 L6.781250 25.265625 L9.625000 26.828125 Z M5.578125 24.015625 L4.953125 23.671875 L4.953125 21.765625 L5.578125 22.078125 Z M4.265625 21.515625 L2.796875 20.718750 L3.546875 20.062500 Z M8.562500 26.656250 L7.937500 26.343750 L7.937500 24.375000 L8.562500 24.375000 Z M6.000000 22.484375 L4.531250 21.671875 L5.281250 21.015625 Z M9.125000 24.906250 C8.531247 24.906250 7.997398 24.627607 7.523438 24.070312 C7.049477 23.513018 6.812500 22.750005 6.812500 21.781250 L10.171875 23.546875 C10.171875 24.015627 10.070314 24.359374 9.867188 24.578125 C9.664061 24.796876 9.416668 24.906250 9.125000 24.906250 Z M14.218750 30.953125 L14.218750 17.406250 L1.875000 10.578125 L1.875000 24.156250 Z M16.093750 30.953125 L28.437500 24.156250 L28.437500 10.578125 L24.890625 12.546875 L23.937500 10.921875 L27.437500 8.984375 L15.156250 2.156250 L2.875000 8.984375 L15.140625 15.781250 L18.609375 13.875000 L19.656250 15.453125 L16.093750 17.421875 Z M18.578125 22.421875 L18.578125 14.734375 L5.281250 6.890625 L6.812500 6.000000 L20.140625 13.828125 L20.140625 18.578125 L20.656250 17.859375 L22.062500 18.281250 L23.265625 16.484375 L23.890625 16.687500 L23.890625 11.906250 L10.312500 3.953125 L11.859375 3.046875 L25.453125 11.000000 L25.453125 18.812500 L23.921875 18.328125 L22.765625 20.109375 L21.078125 19.609375 Z M35.468750 28.125000" /></svg>