<svg version="1.1" xmlns="http://www.w3.org/2000/svg" style="fill:rgba(0,0,0,1.0)" width="256" height="256" viewBox="0 0 33.28125 32.8125"><path fill="rgb(255, 255, 255)" d="M0.000000 32.812500 L0.000000 -0.000000 L19.218750 -0.000000 L25.937500 6.328125 L25.937500 32.812500 Z M5.328125 26.875000 L5.328125 25.312500 L12.734375 25.312500 L12.734375 26.875000 Z M5.328125 23.078125 L5.328125 21.500000 L20.609375 21.500000 L20.609375 23.078125 Z M5.328125 19.265625 L5.328125 17.703125 L20.609375 17.703125 L20.609375 19.265625 Z M1.875000 30.937500 L24.062500 30.937500 L24.062500 7.171875 L18.437500 1.875000 L1.875000 1.875000 Z M5.328125 15.468750 L5.328125 13.890625 L20.609375 13.890625 L20.609375 15.468750 Z M5.328125 11.656250 L5.328125 10.093750 L20.609375 10.093750 L20.609375 11.656250 Z M17.343750 8.250000 L17.343750 1.406250 L19.062500 1.406250 L19.062500 6.531250 L24.531250 6.531250 L24.531250 8.250000 Z M33.281250 27.343750" /></svg>