<svg version="1.1" xmlns="http://www.w3.org/2000/svg" style="fill:rgba(0,0,0,1.0)" width="256" height="256" viewBox="0 0 38.0 32.809659281615055"><path fill="rgb(255, 255, 255)" d="M19.312500 21.919034 L18.031250 20.544034 C20.156261 18.450274 21.984367 16.606542 23.515625 15.012784 C25.046883 13.419026 26.343745 12.023207 27.406250 10.825284 C28.468755 9.627362 29.361976 8.575289 30.085938 7.669034 C30.809899 6.762780 31.424477 5.947684 31.929688 5.223722 C32.434898 4.499760 32.895831 3.809663 33.312500 3.153409 C33.500001 2.861741 33.437502 2.559661 33.125000 2.247159 C32.833332 1.955491 32.500002 1.919033 32.125000 2.137784 C31.531247 2.491953 30.437508 3.262778 28.843750 4.450284 C27.249992 5.637790 25.263033 7.294024 22.882812 9.419034 C20.502592 11.544045 17.822932 14.189852 14.843750 17.356534 L13.468750 16.075284 C16.500015 12.856518 19.234363 10.158629 21.671875 7.981534 C24.109387 5.804440 26.148429 4.101332 27.789062 2.872159 C29.429696 1.642986 30.552080 0.856536 31.156250 0.512784 C31.833337 0.116949 32.416664 -0.049716 32.906250 0.012784 C33.395836 0.075285 33.916664 0.382573 34.468750 0.934659 C35.020836 1.476329 35.320312 1.991949 35.367188 2.481534 C35.414063 2.971120 35.239585 3.549239 34.843750 4.215909 C34.489582 4.830496 33.700527 5.958089 32.476562 7.598722 C31.252598 9.239355 29.554698 11.281001 27.382812 13.723722 C25.210927 16.166442 22.520849 18.898186 19.312500 21.919034 Z M0.000000 29.575284 C0.697920 29.314866 1.226561 28.955495 1.585938 28.497159 C1.945314 28.038824 2.257811 27.502371 2.523438 26.887784 C2.789064 26.273198 3.124998 25.611746 3.531250 24.903409 C3.927085 24.215906 4.390622 23.640391 4.921875 23.176847 C5.453128 22.713303 6.067705 22.348723 6.765625 22.083097 C7.463545 21.817470 8.260412 21.642993 9.156250 21.559659 L11.859375 18.137784 C12.255210 17.064862 12.937495 16.221121 13.906250 15.606534 L15.046875 16.403409 C15.161459 16.736744 15.317707 17.064866 15.515625 17.387784 C15.713543 17.710703 16.109372 18.174240 16.703125 18.778409 C17.078127 19.163828 17.440102 19.468512 17.789062 19.692472 C18.138023 19.916431 18.536456 20.132575 18.984375 20.340909 L19.812500 21.450284 C19.531249 21.919037 19.148440 22.346116 18.664062 22.731534 C18.179685 23.116953 17.692711 23.398200 17.203125 23.575284 L13.875000 26.200284 C13.635415 27.377374 13.182295 28.468508 12.515625 29.473722 C11.848955 30.478935 10.994797 31.286219 9.953125 31.895597 C8.911453 32.504975 7.703132 32.809659 6.328125 32.809659 C5.161452 32.809659 4.013026 32.538829 2.882812 31.997159 C1.752599 31.455490 0.791671 30.648206 0.000000 29.575284 Z M2.875000 29.809659 C3.614587 30.330495 4.427079 30.679450 5.312500 30.856534 C6.197921 31.033619 7.052079 31.023202 7.875000 30.825284 C8.697921 30.627367 9.385414 30.231537 9.937500 29.637784 C10.541670 28.991948 10.973957 28.421641 11.234375 27.926847 C11.494793 27.432053 11.703124 26.945078 11.859375 26.465909 C11.557290 26.361742 11.252606 26.213306 10.945312 26.020597 C10.638019 25.827887 10.348960 25.596119 10.078125 25.325284 C9.515622 24.762781 9.130209 24.148204 8.921875 23.481534 C8.182288 23.481534 7.606773 23.588304 7.195312 23.801847 C6.783852 24.015390 6.442710 24.257575 6.171875 24.528409 C5.921874 24.778411 5.638022 25.150803 5.320312 25.645597 C5.002603 26.140391 4.713543 26.622157 4.453125 27.090909 C4.192707 27.559662 4.015625 27.892992 3.921875 28.090909 C3.786458 28.403411 3.638022 28.700283 3.476562 28.981534 C3.315103 29.262786 3.114585 29.538825 2.875000 29.809659 Z M10.640625 22.700284 C10.734375 23.148203 10.984373 23.575282 11.390625 23.981534 C11.619793 24.210702 11.848957 24.390388 12.078125 24.520597 C12.307293 24.650806 12.510416 24.726326 12.687500 24.747159 L15.328125 22.637784 C15.098957 22.491950 14.872397 22.325285 14.648438 22.137784 C14.424478 21.950283 14.182293 21.726327 13.921875 21.465909 C13.671874 21.215908 13.450522 20.976327 13.257812 20.747159 C13.065103 20.517991 12.895834 20.288827 12.750000 20.059659 Z M6.484375 32.231534 C5.473953 32.044033 4.546879 31.747161 3.703125 31.340909 C2.859371 30.934657 2.203127 30.476329 1.734375 29.965909 C1.942709 29.611741 2.161457 29.231536 2.390625 28.825284 C2.619793 28.419032 2.869790 28.007578 3.140625 27.590909 C3.411460 27.174241 3.703123 26.770599 4.015625 26.379972 C4.328127 25.989345 4.661457 25.635182 5.015625 25.317472 C5.369793 24.999762 5.755206 24.736744 6.171875 24.528409 C5.880207 24.872161 5.661459 25.223720 5.515625 25.583097 C5.369791 25.942474 5.252605 26.309657 5.164062 26.684659 C5.075520 27.059661 4.958334 27.434657 4.812500 27.809659 C5.166668 27.757576 5.536456 27.603931 5.921875 27.348722 C6.307294 27.093512 6.708331 26.601330 7.125000 25.872159 C7.125000 26.840914 6.958335 27.544032 6.625000 27.981534 C6.291665 28.419036 6.031251 28.731533 5.843750 28.919034 C6.427086 28.919034 6.994789 28.705495 7.546875 28.278409 C8.098961 27.851324 8.583331 27.471119 9.000000 27.137784 C8.812499 27.846121 8.546877 28.419032 8.203125 28.856534 C7.859373 29.294036 7.507814 29.619554 7.148438 29.833097 C6.789061 30.046640 6.489585 30.189867 6.250000 30.262784 C7.197921 30.627369 7.934893 30.721119 8.460938 30.544034 C8.986982 30.366950 9.479164 30.064870 9.937500 29.637784 C9.895833 29.887786 9.763022 30.148200 9.539062 30.419034 C9.315103 30.689869 8.960940 30.973720 8.476562 31.270597 C7.992185 31.567473 7.328129 31.887783 6.484375 32.231534 Z M38.000000 27.340909" /></svg>