<svg version="1.1" xmlns="http://www.w3.org/2000/svg" style="fill:rgba(0,0,0,1.0)" width="256" height="256" viewBox="0 0 34.296875 32.8125"><path fill="rgb(255, 255, 255)" d="M10.625000 26.171875 C9.552078 25.848957 8.713545 25.234380 8.109375 24.328125 C7.505205 23.421870 7.203125 22.338548 7.203125 21.078125 C7.203125 20.869791 7.210937 20.658855 7.226562 20.445312 C7.242188 20.231770 7.270833 20.015626 7.312500 19.796875 L2.687500 24.421875 C2.343748 23.734372 2.080730 23.015629 1.898438 22.265625 C1.716145 21.515621 1.625000 20.770837 1.625000 20.031250 C1.625000 18.604160 1.947913 17.322922 2.593750 16.187500 C3.239587 15.052078 4.140619 14.119795 5.296875 13.390625 L0.046875 13.312500 C0.015625 13.041665 0.000000 12.781251 0.000000 12.531250 C0.000000 11.343744 0.320309 10.307296 0.960938 9.421875 C1.601566 8.536454 2.437495 7.846357 3.468750 7.351562 C4.500005 6.856768 5.588536 6.609375 6.734375 6.609375 C7.703130 6.609375 8.630204 6.791665 9.515625 7.156250 C9.473958 6.874999 9.453125 6.557293 9.453125 6.203125 C9.453125 4.338532 10.046869 2.838547 11.234375 1.703125 C12.421881 0.567703 13.994782 -0.000000 15.953125 -0.000000 C16.098959 -0.000000 16.242187 -0.000000 16.382812 -0.000000 C16.523438 -0.000000 16.661458 0.010417 16.796875 0.031250 L16.265625 5.234375 C16.973962 4.546872 17.776037 4.010419 18.671875 3.625000 C19.567713 3.239581 20.489579 3.046875 21.437500 3.046875 C22.541672 3.046875 23.549475 3.315101 24.460938 3.851562 C25.372400 4.388024 26.083331 5.151037 26.593750 6.140625 L21.265625 9.937500 C21.348959 9.927083 21.427083 9.921875 21.500000 9.921875 C21.572917 9.921875 21.645833 9.921875 21.718750 9.921875 C23.635426 9.921875 25.156244 10.481765 26.281250 11.601562 C27.406256 12.721360 27.968750 14.213532 27.968750 16.078125 C27.968750 16.994796 27.828126 17.932287 27.546875 18.890625 L15.875000 15.562500 Z M18.703125 29.203125 C18.213539 29.203125 17.763023 29.171875 17.351562 29.109375 C16.940102 29.046875 16.546877 28.953126 16.171875 28.828125 L16.578125 27.640625 C17.192711 27.859376 17.874996 27.968750 18.625000 27.968750 C18.958335 27.968750 19.322915 27.950521 19.718750 27.914062 C20.114585 27.877604 20.557289 27.822917 21.046875 27.750000 L21.234375 29.000000 C20.744789 29.072917 20.291669 29.125000 19.875000 29.156250 C19.458331 29.187500 19.067710 29.203125 18.703125 29.203125 Z M16.921875 25.593750 L16.921875 24.343750 C17.734379 24.343750 18.445309 24.304688 19.054688 24.226562 C19.664066 24.148437 20.114582 24.041667 20.406250 23.906250 L20.937500 25.031250 C20.614582 25.187501 20.210940 25.307291 19.726562 25.390625 C19.242185 25.473959 18.750002 25.528646 18.250000 25.554688 C17.749998 25.580729 17.307294 25.593750 16.921875 25.593750 Z M18.531250 32.812500 C17.177077 32.812500 16.187503 32.664064 15.562500 32.367188 C14.937497 32.070311 14.625000 31.484379 14.625000 30.609375 C14.625000 29.984372 14.736978 29.369795 14.960938 28.765625 C15.184897 28.161455 15.408853 27.479170 15.632812 26.718750 C15.856772 25.958330 15.968750 25.036464 15.968750 23.953125 C15.968750 22.859370 15.828126 21.804693 15.546875 20.789062 C15.265624 19.773432 14.802087 18.682297 14.156250 17.515625 L15.125000 16.046875 C15.968754 17.473965 16.580727 18.815098 16.960938 20.070312 C17.341148 21.325527 17.531250 22.619785 17.531250 23.953125 C17.531250 24.671879 17.463542 25.369788 17.328125 26.046875 C17.192708 26.723962 17.036459 27.356768 16.859375 27.945312 C16.682291 28.533857 16.526042 29.054685 16.390625 29.507812 C16.255208 29.960940 16.187500 30.328124 16.187500 30.609375 C16.187500 30.765626 16.234375 30.890625 16.328125 30.984375 C16.421875 31.078125 16.632811 31.145833 16.960938 31.187500 C17.289064 31.229167 17.812496 31.250000 18.531250 31.250000 C19.458338 31.250000 20.036457 31.218750 20.265625 31.156250 C20.494793 31.093750 20.609375 31.041667 20.609375 31.000000 C20.609375 27.624983 20.281253 24.619805 19.625000 21.984375 C18.968747 19.348945 17.968757 17.026052 16.625000 15.015625 L18.640625 15.312500 C20.994803 19.375020 22.171875 24.604135 22.171875 31.000000 C22.171875 31.729170 21.867191 32.213540 21.257812 32.453125 C20.648434 32.692710 19.739589 32.812500 18.531250 32.812500 Z M16.796875 22.000000 L16.750000 20.750000 C17.260419 20.750000 17.744789 20.682292 18.203125 20.546875 C18.661461 20.411458 19.057290 20.229168 19.390625 20.000000 L20.109375 21.031250 C19.682290 21.322918 19.177086 21.557291 18.593750 21.734375 C18.010414 21.911459 17.411461 22.000000 16.796875 22.000000 Z M15.703125 18.875000 L15.656250 17.625000 C16.166669 17.625000 16.651039 17.557292 17.109375 17.421875 C17.567711 17.286458 17.963540 17.104168 18.296875 16.875000 L19.015625 17.906250 C18.588540 18.197918 18.083336 18.432291 17.500000 18.609375 C16.916664 18.786459 16.317711 18.875000 15.703125 18.875000 Z M9.921875 24.046875 L15.062500 13.656250 L26.359375 16.921875 C26.390625 16.640624 26.406250 16.359376 26.406250 16.078125 C26.406250 14.442700 25.914067 13.250004 24.929688 12.500000 C23.945308 11.749996 22.645841 11.375000 21.031250 11.375000 C20.874999 11.375000 20.718751 11.375000 20.562500 11.375000 C20.406249 11.375000 20.244792 11.385417 20.078125 11.406250 L19.031250 9.609375 L24.406250 5.781250 C23.604163 4.999996 22.614589 4.609375 21.437500 4.609375 C20.906247 4.609375 20.364586 4.700520 19.812500 4.882812 C19.260414 5.065105 18.653649 5.374998 17.992188 5.812500 C17.330726 6.250002 16.567713 6.843746 15.703125 7.593750 L14.515625 6.953125 L15.062500 1.609375 C14.385413 1.609375 13.736982 1.804686 13.117188 2.195312 C12.497393 2.585939 11.992189 3.127601 11.601562 3.820312 C11.210936 4.513024 11.015625 5.307287 11.015625 6.203125 C11.015625 6.640627 11.057291 7.052081 11.140625 7.437500 C11.223959 7.822919 11.348958 8.171873 11.515625 8.484375 L10.484375 9.296875 C9.880205 8.932290 9.257816 8.653647 8.617188 8.460938 C7.976559 8.268228 7.343753 8.171875 6.718750 8.171875 C5.927079 8.171875 5.169274 8.320311 4.445312 8.617188 C3.721351 8.914064 3.109378 9.330726 2.609375 9.867188 C2.109372 10.403649 1.786459 11.041663 1.640625 11.781250 L7.984375 11.906250 L8.062500 13.625000 C7.302080 13.833334 6.546879 14.216143 5.796875 14.773438 C5.046871 15.330732 4.424482 16.049475 3.929688 16.929688 C3.434893 17.809900 3.187500 18.843744 3.187500 20.031250 C3.187500 20.572919 3.239583 21.083331 3.343750 21.562500 L8.781250 16.062500 L9.765625 16.859375 C9.411457 17.442711 9.140626 18.078122 8.953125 18.765625 C8.765624 19.453128 8.671875 20.130205 8.671875 20.796875 C8.671875 21.453128 8.773436 22.067705 8.976562 22.640625 C9.179689 23.213545 9.494790 23.682290 9.921875 24.046875 Z M16.281250 15.640625 L11.812500 14.390625 C11.458332 14.286458 11.179689 14.135418 10.976562 13.937500 C10.773436 13.739582 10.671875 13.531251 10.671875 13.312500 C10.671875 13.062499 10.786457 12.885417 11.015625 12.781250 C11.244793 12.677083 11.552081 12.682291 11.937500 12.796875 L13.812500 13.359375 L12.765625 11.343750 C12.598958 11.010415 12.549479 10.700522 12.617188 10.414062 C12.684896 10.127603 12.869790 9.984375 13.171875 9.984375 C13.338542 9.984375 13.502603 10.039062 13.664062 10.148438 C13.825522 10.257813 13.973958 10.442707 14.109375 10.703125 L15.250000 12.906250 L15.562500 11.500000 C15.666667 11.041664 15.783854 10.716147 15.914062 10.523438 C16.044271 10.330728 16.213541 10.234375 16.421875 10.234375 C16.703126 10.234375 16.898437 10.367186 17.007812 10.632812 C17.117188 10.898439 17.130209 11.260414 17.046875 11.718750 Z M34.296875 27.343750" /></svg>