<svg version="1.1" xmlns="http://www.w3.org/2000/svg" style="fill:rgba(0,0,0,1.0)" width="256" height="256" viewBox="0 0 36.25 32.8125"><path fill="rgb(255, 255, 255)" d="M1.921875 32.812500 C1.359372 32.812500 0.898439 32.648439 0.539062 32.320312 C0.179686 31.992186 0.000000 31.541670 0.000000 30.968750 C0.000000 30.677082 0.052083 30.309898 0.156250 29.867188 C0.260417 29.424477 0.427082 28.932294 0.656250 28.390625 L6.515625 14.421875 L8.218750 15.125000 L2.375000 29.109375 C2.239583 29.421877 2.140625 29.684895 2.078125 29.898438 C2.015625 30.111980 1.984375 30.291666 1.984375 30.437500 C1.984375 30.552084 2.013021 30.638021 2.070312 30.695312 C2.127604 30.752604 2.223958 30.781250 2.359375 30.781250 C2.557293 30.781250 2.830727 30.736980 3.179688 30.648438 C3.528648 30.559895 3.973956 30.406251 4.515625 30.187500 L16.265625 25.437500 L18.750000 26.468750 L5.203125 31.937500 C4.296870 32.302085 3.604169 32.539062 3.125000 32.648438 C2.645831 32.757813 2.244793 32.812500 1.921875 32.812500 Z M6.421875 30.562500 C5.515620 30.124998 4.718753 29.585941 4.031250 28.945312 C3.343747 28.304684 2.802085 27.588546 2.406250 26.796875 L3.421875 24.625000 C3.807294 25.781256 4.479162 26.794266 5.437500 27.664062 C6.395838 28.533859 7.526035 29.151040 8.828125 29.515625 Z M10.515625 28.843750 C9.578120 28.572915 8.697921 28.153649 7.875000 27.585938 C7.052079 27.018226 6.333336 26.343754 5.718750 25.562500 C5.104164 24.781246 4.640627 23.942713 4.328125 23.046875 L5.437500 20.390625 C5.583334 21.682298 6.033850 22.859370 6.789062 23.921875 C7.544275 24.984380 8.499994 25.835934 9.656250 26.476562 C10.812506 27.117191 12.062493 27.463541 13.406250 27.515625 Z M16.171875 26.968750 C14.786451 26.968750 13.481777 26.710940 12.257812 26.195312 C11.033848 25.679685 9.953130 24.968755 9.015625 24.062500 C8.078120 23.156245 7.341149 22.111985 6.804688 20.929688 C6.268226 19.747390 6.000000 18.484382 6.000000 17.140625 C6.000000 15.411450 6.445308 14.062505 7.335938 13.093750 C8.226567 12.124995 9.463534 11.640625 11.046875 11.640625 C12.328131 11.640625 13.570306 11.937497 14.773438 12.531250 C15.976569 13.125003 17.057287 13.924474 18.015625 14.929688 C18.973963 15.934901 19.736976 17.065098 20.304688 18.320312 C20.872399 19.575527 21.156250 20.864577 21.156250 22.187500 C21.156250 23.729174 20.726567 24.911454 19.867188 25.734375 C19.007808 26.557296 17.776050 26.968750 16.171875 26.968750 Z M16.171875 25.093750 C17.255214 25.093750 18.044268 24.861981 18.539062 24.398438 C19.033857 23.934894 19.281250 23.197922 19.281250 22.187500 C19.281250 21.124995 19.046877 20.078130 18.578125 19.046875 C18.109373 18.015620 17.479171 17.083338 16.687500 16.250000 C15.895829 15.416663 15.013026 14.752607 14.039062 14.257812 C13.065099 13.763018 12.072922 13.515625 11.062500 13.515625 C10.020828 13.515625 9.231774 13.817705 8.695312 14.421875 C8.158851 15.026045 7.890625 15.932286 7.890625 17.140625 C7.890625 18.223964 8.111977 19.244787 8.554688 20.203125 C8.997398 21.161463 9.604163 22.007809 10.375000 22.742188 C11.145837 23.476566 12.028641 24.052081 13.023438 24.468750 C14.018234 24.885419 15.067703 25.093750 16.171875 25.093750 Z M2.906250 8.703125 C2.322914 8.515624 1.799481 8.278647 1.335938 7.992188 C0.872394 7.705728 0.427085 7.385418 0.000000 7.031250 L1.390625 5.609375 C1.692710 5.807293 1.997394 5.997395 2.304688 6.179688 C2.611981 6.361980 2.927082 6.536458 3.250000 6.703125 Z M7.125000 12.218750 L4.265625 10.796875 L5.578125 8.906250 L7.875000 10.343750 Z M25.390625 30.109375 L23.250000 29.828125 C23.250000 29.505207 23.192709 29.187502 23.078125 28.875000 C22.963541 28.562498 22.812501 28.244793 22.625000 27.921875 L24.328125 26.609375 C24.661460 27.098961 24.921874 27.635414 25.109375 28.218750 C25.296876 28.802086 25.390625 29.432288 25.390625 30.109375 Z M30.390625 32.015625 L28.328125 30.093750 L29.812500 28.546875 L31.875000 30.609375 Z M5.515625 5.171875 L3.390625 4.437500 C3.630210 3.729163 3.687501 3.000004 3.562500 2.250000 L5.734375 1.953125 C5.848959 3.057297 5.776043 4.130203 5.515625 5.171875 Z M31.578125 27.015625 L29.171875 26.843750 L29.078125 24.687500 L31.859375 24.875000 Z M23.593750 19.656250 L22.078125 17.875000 L23.875000 16.359375 L25.390625 18.093750 Z M25.484375 15.000000 L24.812500 12.906250 L26.781250 12.281250 L27.375000 14.468750 Z M19.078125 5.781250 L18.468750 3.031250 L20.578125 2.578125 L21.078125 5.406250 Z M23.687500 3.312500 L22.156250 1.796875 C22.406251 1.526040 22.624999 1.239585 22.812500 0.937500 C23.000001 0.635415 23.130208 0.322918 23.203125 -0.000000 L25.187500 0.406250 C25.083333 0.947919 24.898439 1.458331 24.632812 1.937500 C24.367186 2.416669 24.052085 2.874998 23.687500 3.312500 Z M10.968750 19.625000 L9.625000 18.312500 C10.208336 17.697914 10.651040 17.093753 10.953125 16.500000 C11.255210 15.906247 11.406250 15.291670 11.406250 14.656250 C11.406250 14.374999 11.375000 14.026044 11.312500 13.609375 C11.250000 13.192706 11.156251 12.770835 11.031250 12.343750 C10.760415 11.406245 10.625000 10.572920 10.625000 9.843750 C10.625000 9.062496 10.815102 8.338545 11.195312 7.671875 C11.575523 7.005205 12.078122 6.471356 12.703125 6.070312 C13.328128 5.669269 14.010413 5.468750 14.750000 5.468750 C15.645838 5.468750 16.395830 5.768226 17.000000 6.367188 C17.604170 6.966149 17.906250 7.713537 17.906250 8.609375 C17.906250 9.526046 17.580732 10.260414 16.929688 10.812500 C16.278643 11.364586 15.421880 11.640625 14.359375 11.640625 C13.390620 11.640625 12.513025 11.408856 11.726562 10.945312 C10.940100 10.481769 10.317711 9.854171 9.859375 9.062500 C9.401039 8.270829 9.171875 7.375005 9.171875 6.375000 C9.171875 4.822909 9.752598 3.520839 10.914062 2.468750 C12.075527 1.416661 13.692698 0.828126 15.765625 0.703125 L15.890625 2.578125 C14.317700 2.661459 13.117192 3.044267 12.289062 3.726562 C11.460933 4.408858 11.046875 5.291661 11.046875 6.375000 C11.046875 7.010420 11.187499 7.585935 11.468750 8.101562 C11.750001 8.617190 12.138018 9.023436 12.632812 9.320312 C13.127607 9.617189 13.703122 9.765625 14.359375 9.765625 C14.848961 9.765625 15.249998 9.669272 15.562500 9.476562 C15.875002 9.283853 16.031250 8.994794 16.031250 8.609375 C16.031250 8.244790 15.914064 7.942710 15.679688 7.703125 C15.445311 7.463540 15.135419 7.343750 14.750000 7.343750 C14.166664 7.343750 13.645836 7.596352 13.187500 8.101562 C12.729164 8.606773 12.500000 9.187497 12.500000 9.843750 C12.500000 10.072918 12.526041 10.343748 12.578125 10.656250 C12.630209 10.968752 12.723958 11.390622 12.859375 11.921875 C13.005209 12.484378 13.111979 12.994789 13.179688 13.453125 C13.247396 13.911461 13.281250 14.312498 13.281250 14.656250 C13.281250 16.343758 12.510424 17.999992 10.968750 19.625000 Z M13.843750 19.890625 C13.843750 18.567702 14.210934 17.515629 14.945312 16.734375 C15.679691 15.953121 16.854159 15.354169 18.468750 14.937500 C19.312504 14.718749 19.854165 14.533855 20.093750 14.382812 C20.333335 14.231770 20.453125 14.010418 20.453125 13.718750 C20.453125 13.562499 20.427084 13.411459 20.375000 13.265625 C20.322916 13.119791 20.218751 12.901043 20.062500 12.609375 C19.624998 11.796871 19.406250 11.057295 19.406250 10.390625 C19.406250 9.494787 19.687497 8.765628 20.250000 8.203125 C20.812503 7.640622 21.536454 7.359375 22.421875 7.359375 C22.911461 7.359375 23.403643 7.463541 23.898438 7.671875 C24.393232 7.880209 24.973955 8.229164 25.640625 8.718750 C26.192711 9.125002 26.638019 9.403645 26.976562 9.554688 C27.315106 9.705730 27.635415 9.781250 27.937500 9.781250 C28.427086 9.781250 28.773436 9.604168 28.976562 9.250000 C29.179689 8.895832 29.281250 8.333337 29.281250 7.562500 C29.281250 6.770829 29.143231 6.002608 28.867188 5.257812 C28.591144 4.513017 28.130212 3.677088 27.484375 2.750000 L28.984375 1.625000 C29.744795 2.708339 30.296873 3.723954 30.640625 4.671875 C30.984377 5.619796 31.156250 6.583328 31.156250 7.562500 C31.156250 8.854173 30.875003 9.859371 30.312500 10.578125 C29.749997 11.296879 28.958338 11.656250 27.937500 11.656250 C27.427081 11.656250 26.916669 11.549480 26.406250 11.335938 C25.895831 11.122395 25.276045 10.755211 24.546875 10.234375 C23.994789 9.838540 23.572918 9.572917 23.281250 9.437500 C22.989582 9.302083 22.703126 9.234375 22.421875 9.234375 C22.046873 9.234375 21.763022 9.328124 21.570312 9.515625 C21.377603 9.703126 21.281250 9.994790 21.281250 10.390625 C21.281250 10.567709 21.309896 10.749999 21.367188 10.937500 C21.424479 11.125001 21.541666 11.385415 21.718750 11.718750 C21.937501 12.114585 22.093750 12.460936 22.187500 12.757812 C22.281250 13.054689 22.328125 13.374998 22.328125 13.718750 C22.328125 14.479170 22.078128 15.091144 21.578125 15.554688 C21.078122 16.018231 20.197923 16.416665 18.937500 16.750000 C17.677077 17.072918 16.825523 17.447915 16.382812 17.875000 C15.940102 18.302085 15.718750 18.973954 15.718750 19.890625 Z M24.953125 25.156250 C24.359372 25.156250 23.804690 25.026043 23.289062 24.765625 C22.773435 24.505207 22.177087 24.072920 21.500000 23.468750 C21.020831 23.041665 20.658855 22.757813 20.414062 22.617188 C20.169270 22.476562 19.937501 22.406250 19.718750 22.406250 C19.572916 22.406250 19.427084 22.432291 19.281250 22.484375 C19.135416 22.536459 18.895835 22.645832 18.562500 22.812500 C17.895830 23.145835 17.296878 23.377604 16.765625 23.507812 C16.234372 23.638021 15.682295 23.703125 15.109375 23.703125 C14.828124 23.703125 14.533856 23.687500 14.226562 23.656250 C13.919269 23.625000 13.593752 23.572917 13.250000 23.500000 L13.625000 21.656250 C14.229170 21.770834 14.760414 21.828125 15.218750 21.828125 C15.666669 21.828125 16.078123 21.773438 16.453125 21.664062 C16.828127 21.554687 17.255206 21.380210 17.734375 21.140625 C18.151044 20.932291 18.513019 20.778646 18.820312 20.679688 C19.127606 20.580729 19.427082 20.531250 19.718750 20.531250 C20.156252 20.531250 20.609373 20.648436 21.078125 20.882812 C21.546877 21.117189 22.098955 21.510414 22.734375 22.062500 C23.286461 22.541669 23.718748 22.864582 24.031250 23.031250 C24.343752 23.197918 24.651040 23.281250 24.953125 23.281250 C25.359377 23.281250 25.656249 23.122397 25.843750 22.804688 C26.031251 22.486978 26.239582 21.822922 26.468750 20.812500 C26.885419 19.041658 27.494788 17.765629 28.296875 16.984375 C29.098962 16.203121 30.276034 15.812500 31.828125 15.812500 L31.828125 17.687500 C31.078121 17.687500 30.484377 17.786457 30.046875 17.984375 C29.609373 18.182293 29.263022 18.539060 29.007812 19.054688 C28.752603 19.570315 28.515626 20.296870 28.296875 21.234375 C27.963540 22.692716 27.539065 23.710935 27.023438 24.289062 C26.507810 24.867190 25.817713 25.156250 24.953125 25.156250 Z M36.250000 27.343750" /></svg>