<svg version="1.1" xmlns="http://www.w3.org/2000/svg" style="fill:rgba(0,0,0,1.0)" width="256" height="256" viewBox="0 0 36.4375 32.8125"><path fill="rgb(255, 255, 255)" d="M11.343750 26.937500 C10.833331 26.937500 10.348961 26.817710 9.890625 26.578125 C9.432289 26.338540 9.052085 25.994794 8.750000 25.546875 C8.458332 25.869793 8.111981 26.130207 7.710938 26.328125 C7.309894 26.526043 6.880211 26.625000 6.421875 26.625000 C5.567704 26.625000 4.833336 26.317711 4.218750 25.703125 C3.604164 25.088539 3.296875 24.354171 3.296875 23.500000 C3.296875 23.020831 3.395832 22.578127 3.593750 22.171875 C3.791668 21.765623 4.057290 21.421876 4.390625 21.140625 C3.942706 20.786457 3.638022 20.341149 3.476562 19.804688 C3.315103 19.268226 3.234375 18.718753 3.234375 18.156250 C2.348954 18.156250 1.588545 17.861982 0.953125 17.273438 C0.317705 16.684893 0.000000 15.947921 0.000000 15.062500 C0.000000 14.166662 0.320309 13.419274 0.960938 12.820312 C1.601566 12.221351 2.369787 11.921875 3.265625 11.921875 C3.265625 11.307289 3.377603 10.716149 3.601562 10.148438 C3.825522 9.580726 4.208331 9.130210 4.750000 8.796875 C4.364581 8.526040 4.052085 8.169273 3.812500 7.726562 C3.572915 7.283852 3.453125 6.802086 3.453125 6.281250 C3.453125 5.416662 3.760414 4.679691 4.375000 4.070312 C4.989586 3.460934 5.723954 3.156250 6.578125 3.156250 C7.036461 3.156250 7.466144 3.252603 7.867188 3.445312 C8.268231 3.638022 8.614582 3.895832 8.906250 4.218750 C9.187501 3.729164 9.565102 3.351564 10.039062 3.085938 C10.513023 2.820311 11.020831 2.687500 11.562500 2.687500 C12.041669 2.687500 12.520831 2.796874 13.000000 3.015625 C13.000000 2.140621 13.317705 1.419274 13.953125 0.851562 C14.588545 0.283851 15.317704 -0.000000 16.140625 -0.000000 C16.838545 -0.000000 17.455726 0.205727 17.992188 0.617188 C18.528649 1.028648 18.890624 1.541664 19.078125 2.156250 C19.411460 1.999999 19.682291 1.893229 19.890625 1.835938 C20.098959 1.778646 20.348957 1.750000 20.640625 1.750000 C21.338545 1.750000 21.968747 1.960935 22.531250 2.382812 C23.093753 2.804690 23.453124 3.322914 23.609375 3.937500 C24.192711 3.416664 24.874996 3.156250 25.656250 3.156250 C26.520838 3.156250 27.257809 3.460934 27.867188 4.070312 C28.476566 4.679691 28.781250 5.416662 28.781250 6.281250 C28.781250 6.802086 28.664064 7.283852 28.429688 7.726562 C28.195311 8.169273 27.880210 8.526040 27.484375 8.796875 C28.036461 9.130210 28.421874 9.562497 28.640625 10.093750 C28.859376 10.625003 28.968750 11.234372 28.968750 11.921875 C29.864588 11.921875 30.635413 12.221351 31.281250 12.820312 C31.927087 13.419274 32.250000 14.166662 32.250000 15.062500 C32.250000 15.947921 31.932295 16.684893 31.296875 17.273438 C30.661455 17.861982 29.895838 18.156250 29.000000 18.156250 C29.000000 18.729170 28.888022 19.307289 28.664062 19.890625 C28.440103 20.473961 28.166668 20.890624 27.843750 21.140625 C28.177085 21.421876 28.442707 21.765623 28.640625 22.171875 C28.838543 22.578127 28.937500 23.020831 28.937500 23.500000 C28.937500 24.354171 28.632816 25.088539 28.023438 25.703125 C27.414059 26.317711 26.677088 26.625000 25.812500 26.625000 C25.354164 26.625000 24.924481 26.526043 24.523438 26.328125 C24.122394 26.130207 23.776043 25.869793 23.484375 25.546875 C23.182290 25.994794 22.802086 26.338540 22.343750 26.578125 C21.885414 26.817710 21.401044 26.937500 20.890625 26.937500 C20.005204 26.937500 19.270836 26.625003 18.687500 26.000000 C18.104164 25.374997 17.812500 24.645838 17.812500 23.812500 L14.421875 23.812500 C14.421875 24.677088 14.125003 25.414059 13.531250 26.023438 C12.937497 26.632816 12.208338 26.937500 11.343750 26.937500 Z M5.625000 25.187500 C5.343749 25.187500 5.098959 25.083334 4.890625 24.875000 C4.682291 24.666666 4.578125 24.416668 4.578125 24.125000 C4.578125 23.843749 4.682291 23.598959 4.890625 23.390625 C5.098959 23.182291 5.343749 23.078125 5.625000 23.078125 C5.906251 23.078125 6.151041 23.182291 6.359375 23.390625 C6.567709 23.598959 6.671875 23.843749 6.671875 24.125000 C6.671875 24.416668 6.567709 24.666666 6.359375 24.875000 C6.151041 25.083334 5.906251 25.187500 5.625000 25.187500 Z M6.421875 25.203125 C6.890627 25.203125 7.257811 25.031252 7.523438 24.687500 C7.789064 24.343748 7.989583 23.947919 8.125000 23.500000 L8.906250 21.015625 L6.421875 21.812500 C5.963539 21.958334 5.565106 22.156249 5.226562 22.406250 C4.888019 22.656251 4.718750 23.020831 4.718750 23.500000 C4.718750 23.979169 4.885415 24.382811 5.218750 24.710938 C5.552085 25.039064 5.953123 25.203125 6.421875 25.203125 Z M14.296875 32.812500 C13.994790 32.812500 13.843750 32.723959 13.843750 32.546875 C13.843750 32.328124 13.976561 32.164063 14.242188 32.054688 C14.507814 31.945312 14.773436 31.838542 15.039062 31.734375 C15.304689 31.630208 15.437500 31.473959 15.437500 31.265625 C15.437500 30.973957 15.304689 30.601565 15.039062 30.148438 C14.773436 29.695310 14.507814 29.226565 14.242188 28.742188 C13.976561 28.257810 13.843750 27.822919 13.843750 27.437500 L15.390625 27.812500 C15.588543 28.291669 15.783853 28.804685 15.976562 29.351562 C16.169272 29.898440 16.328124 30.380206 16.453125 30.796875 C16.578126 31.213544 16.640625 31.479166 16.640625 31.593750 C16.640625 31.760418 16.513022 31.937499 16.257812 32.125000 C16.002603 32.312501 15.692710 32.473958 15.328125 32.609375 C14.963540 32.744792 14.619793 32.812500 14.296875 32.812500 Z M11.078125 25.953125 C10.796874 25.953125 10.554689 25.848959 10.351562 25.640625 C10.148436 25.432291 10.046875 25.182293 10.046875 24.890625 C10.046875 24.609374 10.148436 24.364584 10.351562 24.156250 C10.554689 23.947916 10.796874 23.843750 11.078125 23.843750 C11.359376 23.843750 11.601561 23.947916 11.804688 24.156250 C12.007814 24.364584 12.109375 24.609374 12.109375 24.890625 C12.109375 25.182293 12.007814 25.432291 11.804688 25.640625 C11.601561 25.848959 11.359376 25.953125 11.078125 25.953125 Z M5.375000 20.046875 C5.093749 20.046875 4.848959 19.942709 4.640625 19.734375 C4.432291 19.526041 4.328125 19.276043 4.328125 18.984375 C4.328125 18.703124 4.432291 18.458334 4.640625 18.250000 C4.848959 18.041666 5.093749 17.937500 5.375000 17.937500 C5.656251 17.937500 5.901041 18.041666 6.109375 18.250000 C6.317709 18.458334 6.421875 18.703124 6.421875 18.984375 C6.421875 19.276043 6.317709 19.526041 6.109375 19.734375 C5.901041 19.942709 5.656251 20.046875 5.375000 20.046875 Z M1.984375 16.078125 C1.703124 16.078125 1.458334 15.973959 1.250000 15.765625 C1.041666 15.557291 0.937500 15.307293 0.937500 15.015625 C0.937500 14.734374 1.041666 14.489584 1.250000 14.281250 C1.458334 14.072916 1.703124 13.968750 1.984375 13.968750 C2.265626 13.968750 2.510416 14.072916 2.718750 14.281250 C2.927084 14.489584 3.031250 14.734374 3.031250 15.015625 C3.031250 15.307293 2.927084 15.557291 2.718750 15.765625 C2.510416 15.973959 2.265626 16.078125 1.984375 16.078125 Z M11.312500 25.531250 C11.770836 25.531250 12.166665 25.356773 12.500000 25.007812 C12.833335 24.658852 13.000000 24.255211 13.000000 23.796875 C13.000000 23.536457 12.947917 23.296876 12.843750 23.078125 L12.140625 21.531250 L10.593750 22.250000 C10.281248 22.395834 10.041668 22.604165 9.875000 22.875000 C9.708333 23.145835 9.625000 23.442707 9.625000 23.765625 C9.625000 24.234377 9.789061 24.645832 10.117188 25.000000 C10.445314 25.354168 10.843748 25.531250 11.312500 25.531250 Z M18.078125 32.703125 C17.942708 32.703125 17.799480 32.528648 17.648438 32.179688 C17.497395 31.830727 17.421875 31.541668 17.421875 31.312500 C17.421875 31.052082 17.507812 30.846355 17.679688 30.695312 C17.851563 30.544270 18.023437 30.406251 18.195312 30.281250 C18.367188 30.156249 18.453125 30.015626 18.453125 29.859375 C18.453125 29.786458 18.411459 29.619793 18.328125 29.359375 C18.244791 29.098957 18.093751 28.703128 17.875000 28.171875 L19.250000 28.078125 C19.427084 28.776045 19.536458 29.302082 19.578125 29.656250 C19.619792 30.010418 19.640625 30.218750 19.640625 30.281250 C19.640625 30.500001 19.583334 30.671874 19.468750 30.796875 C19.354166 30.921876 19.161460 31.046874 18.890625 31.171875 C18.692707 31.265625 18.578125 31.463540 18.546875 31.765625 C18.526042 32.015626 18.471355 32.234374 18.382812 32.421875 C18.294270 32.609376 18.192709 32.703125 18.078125 32.703125 Z M6.218750 20.343750 C6.531252 20.343750 6.828124 20.255209 7.109375 20.078125 C7.390626 19.901041 7.635416 19.671876 7.843750 19.390625 L9.218750 17.531250 L7.031250 17.140625 C6.385413 17.026041 5.822919 17.096353 5.343750 17.351562 C4.864581 17.606772 4.625000 18.062497 4.625000 18.718750 C4.625000 19.166669 4.778644 19.549478 5.085938 19.867188 C5.393231 20.184897 5.770831 20.343750 6.218750 20.343750 Z M2.890625 16.656250 C3.119793 16.656250 3.354165 16.617188 3.593750 16.539062 C3.833335 16.460937 4.067707 16.364584 4.296875 16.250000 L6.765625 15.046875 L4.296875 13.843750 C4.067707 13.729166 3.830730 13.630209 3.585938 13.546875 C3.341145 13.463541 3.104168 13.421875 2.875000 13.421875 C2.427081 13.421875 2.067710 13.596352 1.796875 13.945312 C1.526040 14.294273 1.390625 14.666665 1.390625 15.062500 C1.390625 15.479169 1.531249 15.848957 1.812500 16.171875 C2.093751 16.494793 2.453123 16.656250 2.890625 16.656250 Z M5.390625 12.046875 C5.109374 12.046875 4.864584 11.942709 4.656250 11.734375 C4.447916 11.526041 4.343750 11.276043 4.343750 10.984375 C4.343750 10.703124 4.447916 10.458334 4.656250 10.250000 C4.864584 10.041666 5.109374 9.937500 5.390625 9.937500 C5.671876 9.937500 5.916666 10.041666 6.125000 10.250000 C6.333334 10.458334 6.437500 10.703124 6.437500 10.984375 C6.437500 11.276043 6.333334 11.526041 6.125000 11.734375 C5.916666 11.942709 5.671876 12.046875 5.390625 12.046875 Z M6.437500 13.062500 C6.541667 13.062500 6.648437 13.054688 6.757812 13.039062 C6.867188 13.023437 6.973958 13.010417 7.078125 13.000000 L9.421875 12.609375 L7.906250 10.750000 C7.687499 10.479165 7.440106 10.250001 7.164062 10.062500 C6.888019 9.874999 6.593752 9.781250 6.281250 9.781250 C5.854165 9.781250 5.473960 9.950519 5.140625 10.289062 C4.807290 10.627606 4.640625 11.020831 4.640625 11.468750 C4.640625 11.947919 4.809894 12.333332 5.148438 12.625000 C5.486981 12.916668 5.916664 13.062500 6.437500 13.062500 Z M17.203125 29.265625 C16.109370 29.265625 15.140629 28.981774 14.296875 28.414062 C13.453121 27.846351 12.789065 27.083338 12.304688 26.125000 C11.820310 25.166662 11.578125 24.109381 11.578125 22.953125 C11.578125 21.994787 11.776040 21.070317 12.171875 20.179688 C12.567710 19.289058 13.028643 18.476566 13.554688 17.742188 C14.080732 17.007809 14.541665 16.388023 14.937500 15.882812 C15.333335 15.377602 15.531250 15.026043 15.531250 14.828125 L14.718750 14.343750 C14.395832 14.145832 14.078127 13.997396 13.765625 13.898438 C13.453123 13.799479 13.166668 13.744792 12.906250 13.734375 C12.302080 13.692708 11.929688 13.656250 11.789062 13.625000 C11.648437 13.593750 11.578125 13.531250 11.578125 13.437500 C11.578125 13.177082 11.796873 12.966147 12.234375 12.804688 C12.671877 12.643228 13.276038 12.562500 14.046875 12.562500 C14.369793 12.041664 14.942704 11.781250 15.765625 11.781250 C16.369795 11.781250 16.890623 11.973956 17.328125 12.359375 C17.765627 12.744794 17.984375 13.218747 17.984375 13.781250 C17.984375 14.541670 17.843751 15.192706 17.562500 15.734375 C17.281249 16.276044 16.997397 16.799477 16.710938 17.304688 C16.424478 17.809898 16.281250 18.385413 16.281250 19.031250 C16.281250 19.802087 16.434894 20.471351 16.742188 21.039062 C17.049481 21.606774 17.429685 22.119789 17.882812 22.578125 C18.335940 23.036461 18.786456 23.473956 19.234375 23.890625 C19.682294 24.307294 20.059894 24.747394 20.367188 25.210938 C20.674481 25.674481 20.828125 26.203122 20.828125 26.796875 C20.828125 27.463545 20.484378 28.041664 19.796875 28.531250 C19.109372 29.020836 18.244797 29.265625 17.203125 29.265625 Z M21.234375 25.859375 C20.973957 25.859375 20.752605 25.763022 20.570312 25.570312 C20.388020 25.377603 20.296875 25.151043 20.296875 24.890625 C20.296875 24.630207 20.388020 24.406251 20.570312 24.218750 C20.752605 24.031249 20.973957 23.937500 21.234375 23.937500 C21.494793 23.937500 21.716145 24.031249 21.898438 24.218750 C22.080730 24.406251 22.171875 24.630207 22.171875 24.890625 C22.171875 25.151043 22.080730 25.377603 21.898438 25.570312 C21.716145 25.763022 21.494793 25.859375 21.234375 25.859375 Z M20.921875 25.531250 C21.380211 25.531250 21.773436 25.359377 22.101562 25.015625 C22.429689 24.671873 22.593750 24.276044 22.593750 23.828125 C22.593750 23.203122 22.276045 22.677085 21.640625 22.250000 L20.093750 21.218750 L19.390625 23.078125 C19.307291 23.286459 19.265625 23.526040 19.265625 23.796875 C19.265625 24.307294 19.429686 24.723957 19.757812 25.046875 C20.085939 25.369793 20.473956 25.531250 20.921875 25.531250 Z M8.906250 8.765625 L8.281250 6.281250 C8.166666 5.822914 7.971356 5.424481 7.695312 5.085938 C7.419269 4.747394 7.046877 4.578125 6.578125 4.578125 C6.109373 4.578125 5.708335 4.742186 5.375000 5.070312 C5.041665 5.398439 4.875000 5.802081 4.875000 6.281250 C4.875000 6.760419 5.044269 7.122395 5.382812 7.367188 C5.721356 7.611980 6.119789 7.812499 6.578125 7.968750 Z M17.859375 22.687500 C18.078126 21.916663 18.403644 21.195316 18.835938 20.523438 C19.268231 19.851559 19.716144 19.171878 20.179688 18.484375 C20.643231 17.796872 21.036457 17.049483 21.359375 16.242188 C21.682293 15.434892 21.843750 14.510422 21.843750 13.468750 C21.843750 12.062493 21.341151 10.940108 20.335938 10.101562 C19.330724 9.263017 18.046883 8.843750 16.484375 8.843750 C15.286452 8.843750 14.218755 9.085935 13.281250 9.570312 C12.343745 10.054690 11.604169 10.765620 11.062500 11.703125 C10.520831 12.640630 10.250000 13.786452 10.250000 15.140625 C10.250000 16.567715 10.549476 17.851557 11.148438 18.992188 C11.747399 20.132818 12.614578 21.033851 13.750000 21.695312 C14.885422 22.356774 16.255200 22.687500 17.859375 22.687500 Z M5.937500 6.546875 C5.656249 6.546875 5.411459 6.442709 5.203125 6.234375 C4.994791 6.026041 4.890625 5.776043 4.890625 5.484375 C4.890625 5.203124 4.994791 4.958334 5.203125 4.750000 C5.411459 4.541666 5.656249 4.437500 5.937500 4.437500 C6.218751 4.437500 6.463541 4.541666 6.671875 4.750000 C6.880209 4.958334 6.984375 5.203124 6.984375 5.484375 C6.984375 5.776043 6.880209 6.026041 6.671875 6.234375 C6.463541 6.442709 6.218751 6.546875 5.937500 6.546875 Z M25.812500 25.203125 C26.281252 25.203125 26.682290 25.039064 27.015625 24.710938 C27.348960 24.382811 27.515625 23.979169 27.515625 23.500000 C27.515625 23.020831 27.348960 22.651043 27.015625 22.390625 C26.682290 22.130207 26.281252 21.937501 25.812500 21.812500 L23.484375 21.171875 L24.109375 23.500000 C24.234376 23.958336 24.432290 24.356769 24.703125 24.695312 C24.973960 25.033856 25.343748 25.203125 25.812500 25.203125 Z M26.593750 25.187500 C26.312499 25.187500 26.067709 25.083334 25.859375 24.875000 C25.651041 24.666666 25.546875 24.416668 25.546875 24.125000 C25.546875 23.843749 25.651041 23.598959 25.859375 23.390625 C26.067709 23.182291 26.312499 23.078125 26.593750 23.078125 C26.875001 23.078125 27.119791 23.182291 27.328125 23.390625 C27.536459 23.598959 27.640625 23.843749 27.640625 24.125000 C27.640625 24.416668 27.536459 24.666666 27.328125 24.875000 C27.119791 25.083334 26.875001 25.187500 26.593750 25.187500 Z M16.203125 14.250000 C16.453126 14.250000 16.669270 14.156251 16.851562 13.968750 C17.033855 13.781249 17.125000 13.562501 17.125000 13.312500 C17.125000 13.072915 17.033855 12.859376 16.851562 12.671875 C16.669270 12.484374 16.453126 12.390625 16.203125 12.390625 C15.953124 12.390625 15.736980 12.484374 15.554688 12.671875 C15.372395 12.859376 15.281250 13.072915 15.281250 13.312500 C15.281250 13.562501 15.372395 13.781249 15.554688 13.968750 C15.736980 14.156251 15.953124 14.250000 16.203125 14.250000 Z M16.812500 13.734375 C16.229164 13.734375 15.802085 13.552085 15.531250 13.187500 L16.140625 12.859375 C16.255209 12.984376 16.437499 13.046875 16.687500 13.046875 Z M12.859375 8.859375 L13.125000 6.515625 C13.208334 5.796871 13.127605 5.213544 12.882812 4.765625 C12.638020 4.317706 12.203128 4.093750 11.578125 4.093750 C11.109373 4.093750 10.713543 4.255207 10.390625 4.578125 C10.067707 4.901043 9.906250 5.276040 9.906250 5.703125 C9.906250 6.026043 9.997395 6.328124 10.179688 6.609375 C10.361980 6.890626 10.593749 7.135416 10.875000 7.343750 Z M17.531250 13.609375 L16.781250 12.437500 L17.390625 10.562500 L18.250000 10.734375 L17.843750 11.968750 L19.312500 10.937500 L19.828125 11.625000 L18.171875 12.781250 L19.359375 12.718750 L19.546875 13.609375 Z M11.281250 6.062500 C10.999999 6.062500 10.755209 5.958334 10.546875 5.750000 C10.338541 5.541666 10.234375 5.291668 10.234375 5.000000 C10.234375 4.718749 10.338541 4.473959 10.546875 4.265625 C10.755209 4.057291 10.999999 3.953125 11.281250 3.953125 C11.562501 3.953125 11.807291 4.057291 12.015625 4.265625 C12.223959 4.473959 12.328125 4.718749 12.328125 5.000000 C12.328125 5.291668 12.223959 5.541666 12.015625 5.750000 C11.807291 5.958334 11.562501 6.062500 11.281250 6.062500 Z M26.046875 20.343750 C26.484377 20.343750 26.854165 20.184897 27.156250 19.867188 C27.458335 19.549478 27.609375 19.166669 27.609375 18.718750 C27.609375 18.020830 27.382815 17.567709 26.929688 17.359375 C26.476560 17.151041 25.901045 17.078125 25.203125 17.140625 L22.703125 17.375000 L24.390625 19.390625 C24.619793 19.651043 24.874999 19.874999 25.156250 20.062500 C25.437501 20.250001 25.734373 20.343750 26.046875 20.343750 Z M19.796875 13.671875 C19.630208 13.671875 19.486980 13.614584 19.367188 13.500000 C19.247395 13.385416 19.187500 13.244792 19.187500 13.078125 C19.187500 12.911458 19.247395 12.770834 19.367188 12.656250 C19.486980 12.541666 19.630208 12.484375 19.796875 12.484375 C19.963542 12.484375 20.104166 12.541666 20.218750 12.656250 C20.333334 12.770834 20.390625 12.911458 20.390625 13.078125 C20.390625 13.244792 20.333334 13.385416 20.218750 13.500000 C20.104166 13.614584 19.963542 13.671875 19.796875 13.671875 Z M17.828125 11.281250 C17.661458 11.281250 17.518230 11.221355 17.398438 11.101562 C17.278645 10.981770 17.218750 10.838542 17.218750 10.671875 C17.218750 10.505208 17.278645 10.364584 17.398438 10.250000 C17.518230 10.135416 17.661458 10.078125 17.828125 10.078125 C17.994792 10.078125 18.135416 10.135416 18.250000 10.250000 C18.364584 10.364584 18.421875 10.505208 18.421875 10.671875 C18.421875 10.838542 18.364584 10.981770 18.250000 11.101562 C18.135416 11.221355 17.994792 11.281250 17.828125 11.281250 Z M26.843750 20.046875 C26.562499 20.046875 26.317709 19.942709 26.109375 19.734375 C25.901041 19.526041 25.796875 19.276043 25.796875 18.984375 C25.796875 18.703124 25.901041 18.458334 26.109375 18.250000 C26.317709 18.041666 26.562499 17.937500 26.843750 17.937500 C27.125001 17.937500 27.369791 18.041666 27.578125 18.250000 C27.786459 18.458334 27.890625 18.703124 27.890625 18.984375 C27.890625 19.276043 27.786459 19.526041 27.578125 19.734375 C27.369791 19.942709 27.125001 20.046875 26.843750 20.046875 Z M19.671875 11.812500 C19.505208 11.812500 19.361980 11.755209 19.242188 11.640625 C19.122395 11.526041 19.062500 11.385417 19.062500 11.218750 C19.062500 11.052083 19.122395 10.911459 19.242188 10.796875 C19.361980 10.682291 19.505208 10.625000 19.671875 10.625000 C19.838542 10.625000 19.979166 10.682291 20.093750 10.796875 C20.208334 10.911459 20.265625 11.052083 20.265625 11.218750 C20.265625 11.385417 20.208334 11.526041 20.093750 11.640625 C19.979166 11.755209 19.838542 11.812500 19.671875 11.812500 Z M16.125000 6.796875 L17.328125 4.328125 C17.442709 4.088540 17.539062 3.851564 17.617188 3.617188 C17.695313 3.382811 17.734375 3.151043 17.734375 2.921875 C17.734375 2.463539 17.567710 2.098960 17.234375 1.828125 C16.901040 1.557290 16.536460 1.421875 16.140625 1.421875 C15.723956 1.421875 15.346356 1.562499 15.007812 1.843750 C14.669269 2.125001 14.500000 2.484373 14.500000 2.921875 C14.500000 3.140626 14.541666 3.369790 14.625000 3.609375 C14.708334 3.848960 14.807291 4.088540 14.921875 4.328125 Z M29.375000 16.640625 C29.812502 16.640625 30.166665 16.476564 30.437500 16.148438 C30.708335 15.820311 30.843750 15.458335 30.843750 15.062500 C30.843750 14.645831 30.708335 14.270835 30.437500 13.937500 C30.166665 13.604165 29.817710 13.437500 29.390625 13.437500 C29.161457 13.437500 28.924480 13.476562 28.679688 13.554688 C28.434895 13.632813 28.187501 13.729166 27.937500 13.843750 L25.156250 15.046875 L27.937500 16.250000 C28.177085 16.354167 28.419270 16.445312 28.664062 16.523438 C28.908855 16.601563 29.145832 16.640625 29.375000 16.640625 Z M25.843750 13.109375 C26.364586 13.109375 26.786457 12.947918 27.109375 12.625000 C27.432293 12.302082 27.593750 11.916669 27.593750 11.468750 C27.593750 11.010414 27.427085 10.617189 27.093750 10.289062 C26.760415 9.960936 26.390627 9.796875 25.984375 9.796875 C25.682290 9.796875 25.395835 9.890624 25.125000 10.078125 C24.854165 10.265626 24.588543 10.489582 24.328125 10.750000 L22.812500 12.296875 L25.156250 13.000000 C25.416668 13.072917 25.645832 13.109375 25.843750 13.109375 Z M16.109375 3.078125 C15.828124 3.078125 15.583334 2.973959 15.375000 2.765625 C15.166666 2.557291 15.062500 2.307293 15.062500 2.015625 C15.062500 1.734374 15.166666 1.489584 15.375000 1.281250 C15.583334 1.072916 15.828124 0.968750 16.109375 0.968750 C16.390626 0.968750 16.635416 1.072916 16.843750 1.281250 C17.052084 1.489584 17.156250 1.734374 17.156250 2.015625 C17.156250 2.307293 17.052084 2.557291 16.843750 2.765625 C16.635416 2.973959 16.390626 3.078125 16.109375 3.078125 Z M19.515625 8.062500 L21.359375 6.406250 C21.630210 6.166665 21.859374 5.906251 22.046875 5.625000 C22.234376 5.343749 22.328125 5.046877 22.328125 4.734375 C22.328125 4.317706 22.164064 3.950522 21.835938 3.632812 C21.507811 3.315103 21.114586 3.156250 20.656250 3.156250 C20.166664 3.156250 19.776043 3.312498 19.484375 3.625000 C19.192707 3.937502 19.046875 4.359372 19.046875 4.890625 C19.046875 4.994792 19.054687 5.106770 19.070312 5.226562 C19.085938 5.346355 19.098958 5.463541 19.109375 5.578125 Z M30.078125 16.078125 C29.796874 16.078125 29.552084 15.973959 29.343750 15.765625 C29.135416 15.557291 29.031250 15.307293 29.031250 15.015625 C29.031250 14.734374 29.135416 14.489584 29.343750 14.281250 C29.552084 14.072916 29.796874 13.968750 30.078125 13.968750 C30.359376 13.968750 30.604166 14.072916 30.812500 14.281250 C31.020834 14.489584 31.125000 14.734374 31.125000 15.015625 C31.125000 15.307293 31.020834 15.557291 30.812500 15.765625 C30.604166 15.973959 30.359376 16.078125 30.078125 16.078125 Z M26.828125 12.515625 C26.546874 12.515625 26.302084 12.411459 26.093750 12.203125 C25.885416 11.994791 25.781250 11.744793 25.781250 11.453125 C25.781250 11.171874 25.885416 10.927084 26.093750 10.718750 C26.302084 10.510416 26.546874 10.406250 26.828125 10.406250 C27.109376 10.406250 27.354166 10.510416 27.562500 10.718750 C27.770834 10.927084 27.875000 11.171874 27.875000 11.453125 C27.875000 11.744793 27.770834 11.994791 27.562500 12.203125 C27.354166 12.411459 27.109376 12.515625 26.828125 12.515625 Z M20.968750 4.937500 C20.687499 4.937500 20.442709 4.833334 20.234375 4.625000 C20.026041 4.416666 19.921875 4.166668 19.921875 3.875000 C19.921875 3.593749 20.026041 3.348959 20.234375 3.140625 C20.442709 2.932291 20.687499 2.828125 20.968750 2.828125 C21.250001 2.828125 21.494791 2.932291 21.703125 3.140625 C21.911459 3.348959 22.015625 3.593749 22.015625 3.875000 C22.015625 4.166668 21.911459 4.416666 21.703125 4.625000 C21.494791 4.833334 21.250001 4.937500 20.968750 4.937500 Z M23.328125 8.609375 L25.656250 7.968750 C26.125002 7.843749 26.526040 7.651043 26.859375 7.390625 C27.192710 7.130207 27.359375 6.760419 27.359375 6.281250 C27.359375 5.802081 27.192710 5.398439 26.859375 5.070312 C26.526040 4.742186 26.125002 4.578125 25.656250 4.578125 C25.187498 4.578125 24.817710 4.747394 24.546875 5.085938 C24.276040 5.424481 24.078126 5.822914 23.953125 6.281250 Z M26.437500 6.703125 C26.156249 6.703125 25.911459 6.598959 25.703125 6.390625 C25.494791 6.182291 25.390625 5.932293 25.390625 5.640625 C25.390625 5.359374 25.494791 5.114584 25.703125 4.906250 C25.911459 4.697916 26.156249 4.593750 26.437500 4.593750 C26.718751 4.593750 26.963541 4.697916 27.171875 4.906250 C27.380209 5.114584 27.484375 5.359374 27.484375 5.640625 C27.484375 5.932293 27.380209 6.182291 27.171875 6.390625 C26.963541 6.598959 26.718751 6.703125 26.437500 6.703125 Z M36.437500 27.343750" /></svg>