<svg version="1.1" xmlns="http://www.w3.org/2000/svg" style="fill:rgba(0,0,0,1.0)" width="256" height="256" viewBox="0 0 39.6875 21.875"><path fill="rgb(255, 255, 255)" d="M19.281250 21.875000 C18.541663 21.875000 17.846357 21.606774 17.195312 21.070312 C16.544268 20.533851 15.971357 19.848962 15.476562 19.015625 C14.981768 18.182288 14.583335 17.317713 14.281250 16.421875 L14.937500 16.859375 C14.072912 17.119793 13.203129 17.296875 12.328125 17.390625 C11.453121 17.484375 10.526047 17.531250 9.546875 17.531250 C6.442693 17.531250 4.075529 17.083338 2.445312 16.187500 C0.815096 15.291662 0.000000 13.994800 0.000000 12.296875 C0.000000 9.890613 0.406246 7.763030 1.218750 5.914062 C2.031254 4.065095 3.156243 2.617193 4.593750 1.570312 C6.031257 0.523432 7.682282 -0.000000 9.546875 -0.000000 C11.421884 -0.000000 13.065097 0.523432 14.476562 1.570312 C15.888028 2.617193 16.986975 4.062491 17.773438 5.906250 C18.559900 7.750009 18.953125 9.880196 18.953125 12.296875 C18.953125 12.911461 19.044270 13.468748 19.226562 13.968750 C19.408855 14.468752 19.598957 14.932290 19.796875 15.359375 L18.906250 16.328125 C18.343747 15.786456 17.950522 15.218753 17.726562 14.625000 C17.502603 14.031247 17.390625 13.255213 17.390625 12.296875 C17.390625 10.213531 17.054691 8.364591 16.382812 6.750000 C15.710934 5.135409 14.783860 3.867192 13.601562 2.945312 C12.419265 2.023433 11.067716 1.562500 9.546875 1.562500 C8.036451 1.562500 6.692714 2.026037 5.515625 2.953125 C4.338536 3.880213 3.411462 5.151034 2.734375 6.765625 C2.057288 8.380216 1.718750 10.223948 1.718750 12.296875 C1.718750 14.744804 4.328099 15.968750 9.546875 15.968750 C10.723964 15.968750 11.796870 15.895834 12.765625 15.750000 C13.734380 15.604166 14.598955 15.385418 15.359375 15.093750 C15.515626 15.729170 15.796873 16.486975 16.203125 17.367188 C16.609377 18.247400 17.046873 18.989580 17.515625 19.593750 L16.671875 20.140625 C16.578125 19.932291 16.531250 19.713543 16.531250 19.484375 C16.531250 18.911455 16.677082 18.390627 16.968750 17.921875 C17.260418 17.453123 17.588540 16.994794 17.953125 16.546875 C18.401044 15.994789 18.820311 15.388024 19.210938 14.726562 C19.601564 14.065101 19.796875 13.255213 19.796875 12.296875 C19.796875 9.880196 20.190100 7.750009 20.976562 5.906250 C21.763025 4.062491 22.861972 2.617193 24.273438 1.570312 C25.684903 0.523432 27.328116 -0.000000 29.203125 -0.000000 C31.067718 -0.000000 32.718743 0.523432 34.156250 1.570312 C35.593757 2.617193 36.718746 4.065095 37.531250 5.914062 C38.343754 7.763030 38.750000 9.890613 38.750000 12.296875 C38.750000 13.994800 37.937508 15.291662 36.312500 16.187500 C34.687492 17.083338 32.317724 17.531250 29.203125 17.531250 C28.223953 17.531250 27.296879 17.484375 26.421875 17.390625 C25.546871 17.296875 24.677088 17.119793 23.812500 16.859375 L24.468750 16.421875 C24.364583 16.744793 24.247396 17.065103 24.117188 17.382812 C23.986979 17.700522 23.843751 18.015623 23.687500 18.328125 L22.468750 17.453125 C22.708335 17.057290 22.898437 16.658856 23.039062 16.257812 C23.179688 15.856769 23.296875 15.468752 23.390625 15.093750 C24.890632 15.677086 26.828113 15.968750 29.203125 15.968750 C34.421901 15.968750 37.031250 14.744804 37.031250 12.296875 C37.031250 10.223948 36.692712 8.380216 36.015625 6.765625 C35.338538 5.151034 34.411464 3.880213 33.234375 2.953125 C32.057286 2.026037 30.713549 1.562500 29.203125 1.562500 C27.682284 1.562500 26.330735 2.023433 25.148438 2.945312 C23.966140 3.867192 23.039066 5.135409 22.367188 6.750000 C21.695309 8.364591 21.359375 10.213531 21.359375 12.296875 C21.359375 13.453131 21.117190 14.440100 20.632812 15.257812 C20.148435 16.075525 19.666669 16.791664 19.187500 17.406250 C18.885415 17.791669 18.627605 18.145832 18.414062 18.468750 C18.200520 18.791668 18.093750 19.104165 18.093750 19.406250 C18.093750 19.739585 18.213540 19.999999 18.453125 20.187500 C18.692710 20.375001 19.031248 20.468750 19.468750 20.468750 C19.635418 20.468750 19.786458 20.447917 19.921875 20.406250 L20.421875 21.703125 C20.307291 21.744792 20.156251 21.783854 19.968750 21.820312 C19.781249 21.856771 19.552085 21.875000 19.281250 21.875000 Z M9.921875 13.156250 C8.932287 13.156250 8.041671 12.932294 7.250000 12.484375 C6.458329 12.036456 5.895835 11.432295 5.562500 10.671875 L6.843750 10.109375 C7.062501 10.598961 7.450518 10.994790 8.007812 11.296875 C8.565107 11.598960 9.203121 11.750000 9.921875 11.750000 C11.161465 11.750000 12.052081 11.354171 12.593750 10.562500 L13.750000 11.343750 C13.364581 11.916670 12.833337 12.361978 12.156250 12.679688 C11.479163 12.997397 10.734379 13.156250 9.921875 13.156250 Z M6.781250 9.046875 C6.427082 9.046875 6.143230 8.895835 5.929688 8.593750 C5.716145 8.291665 5.609375 7.953127 5.609375 7.578125 C5.609375 7.151040 5.726561 6.778647 5.960938 6.460938 C6.195314 6.143228 6.489582 5.984375 6.843750 5.984375 C7.197918 5.984375 7.481770 6.135415 7.695312 6.437500 C7.908855 6.739585 8.015625 7.078123 8.015625 7.453125 C8.015625 7.880210 7.898439 8.252603 7.664062 8.570312 C7.429686 8.888022 7.135418 9.046875 6.781250 9.046875 Z M20.640625 21.859375 C20.255206 21.859375 19.927085 21.731772 19.656250 21.476562 C19.385415 21.221353 19.250000 20.901044 19.250000 20.515625 C19.250000 19.994789 19.416665 19.450524 19.750000 18.882812 C20.083335 18.315101 20.507810 17.835939 21.023438 17.445312 C21.539065 17.054686 22.078122 16.859375 22.640625 16.859375 C23.005210 16.859375 23.304686 17.005207 23.539062 17.296875 C23.773439 17.588543 23.890625 17.921873 23.890625 18.296875 C23.890625 18.630210 23.804688 18.989581 23.632812 19.375000 C23.460937 19.760419 23.229168 20.135415 22.937500 20.500000 C22.604165 20.916669 22.229169 21.247395 21.812500 21.492188 C21.395831 21.736980 21.005210 21.859375 20.640625 21.859375 Z M20.703125 20.546875 C20.880209 20.546875 21.088540 20.463542 21.328125 20.296875 C21.567710 20.130208 21.786457 19.927085 21.984375 19.687500 C22.192709 19.447915 22.364583 19.197918 22.500000 18.937500 C22.635417 18.677082 22.703125 18.442709 22.703125 18.234375 C22.703125 18.182291 22.682292 18.138021 22.640625 18.101562 C22.598958 18.065104 22.552084 18.046875 22.500000 18.046875 C22.270832 18.046875 22.000002 18.179686 21.687500 18.445312 C21.374998 18.710939 21.104168 19.026040 20.875000 19.390625 C20.645832 19.755210 20.531250 20.072915 20.531250 20.343750 C20.531250 20.479167 20.588541 20.546875 20.703125 20.546875 Z M13.187500 9.515625 C12.833332 9.515625 12.549480 9.364585 12.335938 9.062500 C12.122395 8.760415 12.015625 8.421877 12.015625 8.046875 C12.015625 7.619790 12.132811 7.247397 12.367188 6.929688 C12.601564 6.611978 12.895832 6.453125 13.250000 6.453125 C13.604168 6.453125 13.888020 6.604165 14.101562 6.906250 C14.315105 7.208335 14.421875 7.546873 14.421875 7.921875 C14.421875 8.348960 14.304689 8.721353 14.070312 9.039062 C13.835936 9.356772 13.541668 9.515625 13.187500 9.515625 Z M28.859375 13.156250 C28.046871 13.156250 27.302087 12.997397 26.625000 12.679688 C25.947913 12.361978 25.416669 11.916670 25.031250 11.343750 L26.187500 10.562500 C26.729169 11.354171 27.619785 11.750000 28.859375 11.750000 C29.578129 11.750000 30.216143 11.598960 30.773438 11.296875 C31.330732 10.994790 31.718749 10.598961 31.937500 10.109375 L33.218750 10.671875 C32.895832 11.432295 32.335941 12.036456 31.539062 12.484375 C30.742184 12.932294 29.848963 13.156250 28.859375 13.156250 Z M25.640625 9.515625 C25.286457 9.515625 24.992189 9.356772 24.757812 9.039062 C24.523436 8.721353 24.406250 8.348960 24.406250 7.921875 C24.406250 7.546873 24.513020 7.208335 24.726562 6.906250 C24.940105 6.604165 25.223957 6.453125 25.578125 6.453125 C25.932293 6.453125 26.226561 6.611978 26.460938 6.929688 C26.695314 7.247397 26.812500 7.619790 26.812500 8.046875 C26.812500 8.421877 26.705730 8.760415 26.492188 9.062500 C26.278645 9.364585 25.994793 9.515625 25.640625 9.515625 Z M32.046875 9.046875 C31.692707 9.046875 31.398439 8.888022 31.164062 8.570312 C30.929686 8.252603 30.812500 7.880210 30.812500 7.453125 C30.812500 7.078123 30.919270 6.739585 31.132812 6.437500 C31.346355 6.135415 31.630207 5.984375 31.984375 5.984375 C32.338543 5.984375 32.632811 6.143228 32.867188 6.460938 C33.101564 6.778647 33.218750 7.151040 33.218750 7.578125 C33.218750 7.953127 33.111980 8.291665 32.898438 8.593750 C32.684895 8.895835 32.401043 9.046875 32.046875 9.046875 Z M39.687500 19.531250" /></svg>