<svg version="1.1" xmlns="http://www.w3.org/2000/svg" style="fill:rgba(0,0,0,1.0)" width="256" height="256" viewBox="0 0 39.375 32.8125"><path fill="rgb(255, 255, 255)" d="M10.796875 24.265625 C9.817703 24.265625 8.950525 24.049481 8.195312 23.617188 C7.440100 23.184894 6.734378 22.635420 6.078125 21.968750 C5.130204 20.999995 4.382815 19.877611 3.835938 18.601562 C3.289060 17.325514 3.015625 16.010423 3.015625 14.656250 C3.015625 14.114581 3.078124 13.380213 3.203125 12.453125 C3.328126 11.526037 3.505207 10.510422 3.734375 9.406250 C3.963543 8.302078 4.236978 7.216151 4.554688 6.148438 C4.872397 5.080724 5.229165 4.130212 5.625000 3.296875 C6.020835 2.463538 6.442706 1.854169 6.890625 1.468750 C7.369794 1.062498 7.981767 0.755209 8.726562 0.546875 C9.471358 0.338541 10.239579 0.195313 11.031250 0.117188 C11.822921 0.039062 12.526039 -0.000000 13.140625 -0.000000 C14.401048 -0.000000 15.648431 0.171873 16.882812 0.515625 C18.117194 0.859377 19.252599 1.385413 20.289062 2.093750 C21.325526 2.802087 22.177080 3.708328 22.843750 4.812500 C23.031251 5.125002 23.203124 5.471352 23.359375 5.851562 C23.515626 6.231773 23.593750 6.708330 23.593750 7.281250 C23.593750 7.437501 23.585938 7.604166 23.570312 7.781250 C23.554687 7.958334 23.526042 8.145832 23.484375 8.343750 C22.932289 11.218764 22.257816 13.653636 21.460938 15.648438 C20.664059 17.643239 19.695318 19.265619 18.554688 20.515625 C17.414057 21.765631 16.046883 22.713538 14.453125 23.359375 C13.911456 23.578126 13.312503 23.783853 12.656250 23.976562 C11.999997 24.169272 11.380211 24.265625 10.796875 24.265625 Z M2.093750 25.578125 C1.958333 25.078122 1.890625 24.578128 1.890625 24.078125 C1.890625 23.744790 1.924479 23.408856 1.992188 23.070312 C2.059896 22.731769 2.161458 22.395835 2.296875 22.062500 C1.859373 22.364585 1.468752 22.671873 1.125000 22.984375 C0.781248 23.296877 0.505209 23.578124 0.296875 23.828125 C0.296875 23.015621 0.520831 22.239587 0.968750 21.500000 C1.416669 20.760413 1.984372 20.111982 2.671875 19.554688 C3.359378 18.997393 4.062496 18.588543 4.781250 18.328125 L6.156250 21.171875 C5.385413 21.515627 4.684899 22.031247 4.054688 22.718750 C3.424476 23.406253 2.770837 24.359369 2.093750 25.578125 Z M12.421875 30.687500 C12.015623 30.687500 11.565107 30.606772 11.070312 30.445312 C10.575518 30.283853 10.192710 30.067710 9.921875 29.796875 C10.380211 29.776042 10.869789 29.700521 11.390625 29.570312 C11.911461 29.440104 12.239583 29.322917 12.375000 29.218750 C11.968748 29.135416 11.515628 28.950522 11.015625 28.664062 C10.515623 28.377603 10.114585 28.020835 9.812500 27.593750 C10.093751 27.687500 10.445310 27.781250 10.867188 27.875000 C11.289065 27.968750 11.682290 28.015625 12.046875 28.015625 C12.526044 28.015625 12.947915 27.903647 13.312500 27.679688 C13.677085 27.455728 14.052081 27.046878 14.437500 26.453125 C14.843752 25.838539 15.289060 25.375002 15.773438 25.062500 C16.257815 24.749998 16.880205 24.593750 17.640625 24.593750 L18.578125 27.250000 C18.109373 27.250000 17.713543 27.359374 17.390625 27.578125 C17.067707 27.796876 16.661461 28.234372 16.171875 28.890625 C15.692706 29.526045 15.161461 29.984374 14.578125 30.265625 C13.994789 30.546876 13.276046 30.687500 12.421875 30.687500 Z M4.250000 17.031250 C3.291662 16.906249 2.497399 16.606773 1.867188 16.132812 C1.236976 15.658852 0.768231 15.075524 0.460938 14.382812 C0.153644 13.690101 0.000000 12.968754 0.000000 12.218750 C0.000000 11.374996 0.184894 10.554691 0.554688 9.757812 C0.924481 8.960934 1.468746 8.281253 2.187500 7.718750 C2.906254 7.156247 3.786453 6.817709 4.828125 6.703125 L4.921875 9.609375 C3.942703 9.734376 3.197919 10.085935 2.687500 10.664062 C2.177081 11.242190 1.921875 11.854163 1.921875 12.500000 C1.921875 13.041669 2.111977 13.544269 2.492188 14.007812 C2.872398 14.471356 3.458329 14.760416 4.250000 14.875000 Z M11.921875 19.312500 C10.786453 19.312500 9.763025 19.020836 8.851562 18.437500 C7.940100 17.854164 7.216149 17.091151 6.679688 16.148438 C6.143226 15.205724 5.875000 14.187505 5.875000 13.093750 C5.875000 12.843749 5.927083 12.632813 6.031250 12.460938 C6.135417 12.289062 6.270832 12.203125 6.437500 12.203125 C6.614584 12.203125 6.786458 12.263020 6.953125 12.382812 C7.119792 12.502605 7.364582 12.744790 7.687500 13.109375 C8.041668 13.494794 8.468748 13.914060 8.968750 14.367188 C9.468752 14.820315 10.059892 15.208332 10.742188 15.531250 C11.424483 15.854168 12.213537 16.015625 13.109375 16.015625 C14.005213 16.015625 14.867183 15.906251 15.695312 15.687500 C16.523442 15.468749 17.135415 15.229168 17.531250 14.968750 C17.802085 14.791666 18.010416 14.703125 18.156250 14.703125 C18.364584 14.703125 18.468750 14.843749 18.468750 15.125000 C18.468750 15.760420 18.166670 16.401038 17.562500 17.046875 C16.958330 17.692712 16.158859 18.231769 15.164062 18.664062 C14.169266 19.096356 13.088548 19.312500 11.921875 19.312500 Z M11.750000 9.890625 C11.635416 9.890625 11.484376 9.812501 11.296875 9.656250 C10.932290 9.333332 10.570314 9.104167 10.210938 8.968750 C9.851561 8.833333 9.473960 8.765625 9.078125 8.765625 C8.546872 8.765625 8.119793 8.822916 7.796875 8.937500 C7.630208 9.000000 7.494792 9.031250 7.390625 9.031250 C7.203124 9.031250 7.109375 8.953126 7.109375 8.796875 C7.109375 8.359373 7.380206 7.942710 7.921875 7.546875 C8.463544 7.151040 9.052080 6.953125 9.687500 6.953125 C10.333337 6.953125 10.888019 7.187498 11.351562 7.656250 C11.815106 8.125002 12.046875 8.661455 12.046875 9.265625 C12.046875 9.682294 11.947918 9.890625 11.750000 9.890625 Z M10.796875 22.546875 C11.255211 22.546875 11.773435 22.460938 12.351562 22.289062 C12.929690 22.117187 13.437498 21.947918 13.875000 21.781250 C15.114590 21.291664 16.145829 20.635421 16.968750 19.812500 C17.791671 18.989579 18.481768 18.018235 19.039062 16.898438 C19.596357 15.778640 20.080727 14.518236 20.492188 13.117188 C20.903648 11.716139 21.312498 10.197925 21.718750 8.562500 C21.770834 8.364582 21.809896 8.179688 21.835938 8.007812 C21.861979 7.835937 21.875000 7.666667 21.875000 7.500000 C21.875000 7.041664 21.807292 6.645835 21.671875 6.312500 C21.536458 5.979165 21.385418 5.697918 21.218750 5.468750 C20.604164 4.635413 19.861984 3.940107 18.992188 3.382812 C18.122391 2.825518 17.184901 2.408856 16.179688 2.132812 C15.174474 1.856769 14.161463 1.718750 13.140625 1.718750 C12.671873 1.718750 12.104170 1.744791 11.437500 1.796875 C10.770830 1.848959 10.122399 1.953124 9.492188 2.109375 C8.861976 2.265626 8.359377 2.494790 7.984375 2.796875 C7.651040 3.067710 7.322918 3.583330 7.000000 4.343750 C6.677082 5.104170 6.380210 5.984370 6.109375 6.984375 C5.838540 7.984380 5.598959 8.997391 5.390625 10.023438 C5.182291 11.049484 5.020834 11.979163 4.906250 12.812500 C4.791666 13.645837 4.734375 14.260415 4.734375 14.656250 C4.734375 15.895840 4.999997 17.080724 5.531250 18.210938 C6.062503 19.341151 6.781245 20.322912 7.687500 21.156250 C8.145836 21.572919 8.619789 21.908853 9.109375 22.164062 C9.598961 22.419272 10.161455 22.546875 10.796875 22.546875 Z M22.703125 28.343750 C22.473957 28.343750 22.359375 28.026045 22.359375 27.390625 C22.359375 26.713538 22.507811 26.033858 22.804688 25.351562 C23.101564 24.669267 23.507810 24.041670 24.023438 23.468750 C24.539065 22.895830 25.135413 22.434898 25.812500 22.085938 C26.489587 21.736977 27.208330 21.562500 27.968750 21.562500 C28.760421 21.562500 29.520830 21.739582 30.250000 22.093750 C30.979170 22.447918 31.580727 22.908851 32.054688 23.476562 C32.528648 24.044274 32.765625 24.656247 32.765625 25.312500 C32.765625 25.447917 32.713542 25.515625 32.609375 25.515625 C32.546875 25.515625 32.473959 25.492188 32.390625 25.445312 C32.307291 25.398437 32.223959 25.354167 32.140625 25.312500 C31.567705 24.979165 31.005211 24.729168 30.453125 24.562500 C29.901039 24.395832 29.265629 24.312500 28.546875 24.312500 C27.692704 24.312500 26.966149 24.447915 26.367188 24.718750 C25.768226 24.989585 25.216148 25.401039 24.710938 25.953125 C24.205727 26.505211 23.661461 27.208329 23.078125 28.062500 C22.953124 28.250001 22.828126 28.343750 22.703125 28.343750 Z M21.890625 21.203125 C21.411456 21.203125 20.989585 21.098959 20.625000 20.890625 C20.260415 20.682291 20.078125 20.447918 20.078125 20.187500 C20.078125 20.072916 20.218749 19.937501 20.500000 19.781250 C21.187503 19.416665 21.848955 18.966149 22.484375 18.429688 C23.119795 17.893226 23.614582 17.265629 23.968750 16.546875 C24.093751 16.307290 24.213541 16.187500 24.328125 16.187500 C24.463542 16.187500 24.575520 16.294270 24.664062 16.507812 C24.752605 16.721355 24.817708 16.968749 24.859375 17.250000 C24.901042 17.531251 24.921875 17.776041 24.921875 17.984375 C24.921875 18.932296 24.669273 19.705726 24.164062 20.304688 C23.658852 20.903649 22.901047 21.203125 21.890625 21.203125 Z M28.609375 32.812500 C27.942705 32.812500 27.260420 32.736980 26.562500 32.585938 C25.864580 32.434895 25.187503 32.270834 24.531250 32.093750 C23.374994 31.781248 22.408858 31.453127 21.632812 31.109375 C20.856767 30.765623 20.192711 30.330732 19.640625 29.804688 C19.088539 29.278643 18.585940 28.580734 18.132812 27.710938 C17.679685 26.841141 17.208336 25.723965 16.718750 24.359375 C16.541666 23.859372 16.372397 23.359378 16.210938 22.859375 C16.049478 22.359372 15.895834 21.854169 15.750000 21.343750 L17.359375 20.781250 C17.505209 21.302086 17.664062 21.817706 17.835938 22.328125 C18.007813 22.838544 18.182291 23.354164 18.359375 23.875000 C18.776044 25.072923 19.169269 26.041663 19.539062 26.781250 C19.908856 27.520837 20.325519 28.109373 20.789062 28.546875 C21.252606 28.984377 21.820309 29.343749 22.492188 29.625000 C23.164066 29.906251 24.010412 30.182290 25.031250 30.453125 C25.750004 30.651043 26.393226 30.807291 26.960938 30.921875 C27.528649 31.036459 28.083331 31.093750 28.625000 31.093750 C29.416671 31.093750 30.078122 30.914064 30.609375 30.554688 C31.140628 30.195311 31.593748 29.729170 31.968750 29.156250 C32.343752 28.583330 32.682290 27.973962 32.984375 27.328125 C33.265626 26.723955 33.518228 26.106774 33.742188 25.476562 C33.966147 24.846351 34.078125 24.197920 34.078125 23.531250 C34.078125 22.937497 33.994792 22.174484 33.828125 21.242188 C33.661458 20.309891 33.437501 19.312505 33.156250 18.250000 C32.874999 17.187495 32.565106 16.164067 32.226562 15.179688 C31.888019 14.195308 31.541668 13.346358 31.187500 12.632812 C30.833332 11.919267 30.500002 11.453126 30.187500 11.234375 C29.822915 10.973957 29.364586 10.778646 28.812500 10.648438 C28.260414 10.518229 27.697920 10.432292 27.125000 10.390625 C26.552080 10.348958 26.041669 10.328125 25.593750 10.328125 C24.406244 10.328125 23.239589 10.510415 22.093750 10.875000 L22.343750 9.015625 C23.427089 8.744790 24.510411 8.609375 25.593750 8.609375 C26.166670 8.609375 26.799476 8.640625 27.492188 8.703125 C28.184899 8.765625 28.864580 8.885416 29.531250 9.062500 C30.197920 9.239584 30.760414 9.505207 31.218750 9.859375 C31.645835 10.171877 32.075519 10.723954 32.507812 11.515625 C32.940106 12.307296 33.351561 13.234370 33.742188 14.296875 C34.132814 15.359380 34.484373 16.463536 34.796875 17.609375 C35.109377 18.755214 35.354166 19.846349 35.531250 20.882812 C35.708334 21.919276 35.796875 22.802080 35.796875 23.531250 C35.796875 24.302087 35.682293 25.052080 35.453125 25.781250 C35.223957 26.510420 34.942710 27.223955 34.609375 27.921875 C34.182290 28.817713 33.708336 29.638017 33.187500 30.382812 C32.666664 31.127608 32.041670 31.718748 31.312500 32.156250 C30.583330 32.593752 29.682297 32.812500 28.609375 32.812500 Z M18.796875 12.015625 C18.671874 12.015625 18.526042 11.916668 18.359375 11.718750 C17.984373 11.260414 17.565106 10.927084 17.101562 10.718750 C16.638019 10.510416 16.093753 10.406250 15.468750 10.406250 C15.312499 10.406250 15.161459 10.421875 15.015625 10.453125 C14.869791 10.484375 14.739584 10.500000 14.625000 10.500000 C14.416666 10.500000 14.312500 10.411459 14.312500 10.234375 C14.312500 9.869790 14.528644 9.533856 14.960938 9.226562 C15.393231 8.919269 15.927080 8.765625 16.562500 8.765625 C17.354171 8.765625 17.989581 9.005206 18.468750 9.484375 C18.947919 9.963544 19.187500 10.515622 19.187500 11.140625 C19.187500 11.307292 19.158854 11.494791 19.101562 11.703125 C19.044271 11.911459 18.942709 12.015625 18.796875 12.015625 Z M29.140625 19.093750 C28.588539 19.093750 28.083336 18.932293 27.625000 18.609375 C27.166664 18.286457 26.804689 17.882815 26.539062 17.398438 C26.273436 16.914060 26.140625 16.437502 26.140625 15.968750 C26.140625 15.739582 26.218749 15.625000 26.375000 15.625000 C26.479167 15.625000 26.598958 15.671875 26.734375 15.765625 C27.442712 16.213544 28.138017 16.486979 28.820312 16.585938 C29.502608 16.684896 30.328120 16.734375 31.296875 16.734375 C31.619793 16.734375 31.781250 16.838541 31.781250 17.046875 C31.781250 17.630211 31.520836 18.117186 31.000000 18.507812 C30.479164 18.898439 29.859379 19.093750 29.140625 19.093750 Z M35.359375 23.843750 L34.781250 21.656250 C35.302086 21.302082 35.687499 20.895836 35.937500 20.437500 C36.187501 19.979164 36.312500 19.526044 36.312500 19.078125 C36.312500 18.494789 36.109377 17.984377 35.703125 17.546875 C35.296873 17.109373 34.708337 16.880208 33.937500 16.859375 L33.375000 13.843750 C34.375005 13.947917 35.229163 14.294268 35.937500 14.882812 C36.645837 15.471357 37.187498 16.190100 37.562500 17.039062 C37.937502 17.888025 38.125000 18.749996 38.125000 19.625000 C38.125000 20.531255 37.901044 21.372392 37.453125 22.148438 C37.005206 22.924483 36.307296 23.489582 35.359375 23.843750 Z M39.375000 27.343750" /></svg>