<svg version="1.1" xmlns="http://www.w3.org/2000/svg" style="fill:rgba(0,0,0,1.0)" width="256" height="256" viewBox="0 0 32.625 32.8125"><path fill="rgb(255, 255, 255)" d="M0.000000 32.812500 L0.000000 -0.000000 L12.125000 0.031250 L14.250000 3.562500 L10.375000 8.437500 L10.609375 9.375000 L9.468750 11.687500 L10.671875 14.812500 L9.203125 17.140625 L9.546875 20.171875 L10.421875 21.921875 L12.031250 32.812500 Z M1.562500 31.250000 L10.218750 31.250000 L8.921875 22.390625 L8.015625 20.640625 L7.578125 16.765625 L8.921875 14.656250 L7.750000 11.625000 L8.953125 9.187500 L8.687500 8.062500 L12.343750 3.437500 L11.250000 1.593750 L1.562500 1.562500 Z M10.609375 23.671875 C10.151039 23.671875 9.739585 23.442711 9.375000 22.984375 L8.515625 21.937500 C8.078123 21.385414 7.859375 20.880211 7.859375 20.421875 C7.859375 20.088540 7.968749 19.817709 8.187500 19.609375 C8.406251 19.401041 8.677082 19.296875 9.000000 19.296875 C9.406252 19.296875 9.781248 19.442707 10.125000 19.734375 C10.468752 20.026043 10.708333 20.338540 10.843750 20.671875 L10.109375 20.562500 C10.109375 19.156243 10.372393 18.002609 10.898438 17.101562 C11.424482 16.200516 12.083329 15.533856 12.875000 15.101562 C13.666671 14.669269 14.453121 14.453125 15.234375 14.453125 C15.578127 14.453125 16.166662 14.489583 17.000000 14.562500 C17.833338 14.635417 18.661454 14.729166 19.484375 14.843750 L18.859375 18.515625 C18.328122 18.296874 17.742191 18.132813 17.101562 18.023438 C16.460934 17.914062 15.942710 17.859375 15.546875 17.859375 C14.796871 17.859375 14.158857 18.041665 13.632812 18.406250 C13.106768 18.770835 12.708335 19.239580 12.437500 19.812500 C12.166665 20.385420 12.031250 20.989580 12.031250 21.625000 C12.031250 22.250003 11.901043 22.747394 11.640625 23.117188 C11.380207 23.486981 11.036460 23.671875 10.609375 23.671875 Z M15.781250 31.406250 C15.395831 31.406250 15.101564 31.291668 14.898438 31.062500 C14.695311 30.833332 14.593750 30.572918 14.593750 30.281250 C14.593750 29.833331 14.781248 29.445314 15.156250 29.117188 C15.531252 28.789061 15.911456 28.578125 16.296875 28.484375 C16.005207 27.869789 15.708335 27.197920 15.406250 26.468750 C15.104165 25.739580 14.851564 25.015629 14.648438 24.296875 C14.445311 23.578121 14.343750 22.927086 14.343750 22.343750 C14.343750 21.843748 14.442707 21.330732 14.640625 20.804688 C14.838543 20.278643 15.174477 19.640629 15.648438 18.890625 C16.122398 18.140621 16.770829 17.187506 17.593750 16.031250 L18.640625 19.765625 C18.119789 19.765625 17.684898 19.513023 17.335938 19.007812 C16.986977 18.502602 16.723959 17.830733 16.546875 16.992188 C16.369791 16.153642 16.281250 15.229172 16.281250 14.218750 C16.281250 13.208328 16.369791 12.294275 16.546875 11.476562 C16.723959 10.658850 16.986977 10.007815 17.335938 9.523438 C17.684898 9.039060 18.119789 8.796875 18.640625 8.796875 C19.161461 8.796875 19.632810 9.044268 20.054688 9.539062 C20.476565 10.033857 20.812499 10.695308 21.062500 11.523438 C21.312501 12.351567 21.437500 13.270828 21.437500 14.281250 C21.437500 15.729174 21.291668 16.945308 21.000000 17.929688 C20.708332 18.914067 20.125004 19.812496 19.250000 20.625000 C18.833331 21.010419 18.447918 21.406248 18.093750 21.812500 C17.739582 22.218752 17.562500 22.666664 17.562500 23.156250 C17.562500 23.729170 17.653645 24.317705 17.835938 24.921875 C18.018230 25.526045 18.231770 26.098956 18.476562 26.640625 C18.721355 27.182294 18.934895 27.661456 19.117188 28.078125 C19.299480 28.494794 19.390625 28.807291 19.390625 29.015625 C19.390625 29.203126 19.302084 29.416665 19.125000 29.656250 C18.947916 29.895835 18.677085 30.119791 18.312500 30.328125 L17.125000 31.000000 C16.656248 31.270835 16.208335 31.406250 15.781250 31.406250 Z M15.109375 13.156250 C14.630206 13.156250 14.070316 13.088542 13.429688 12.953125 C12.789059 12.817708 12.161461 12.614585 11.546875 12.343750 C10.932289 12.072915 10.421877 11.739585 10.015625 11.343750 C9.609373 10.947915 9.406250 10.494794 9.406250 9.984375 C9.406250 9.609373 9.546874 9.286460 9.828125 9.015625 C10.109376 8.744790 10.385415 8.609375 10.656250 8.609375 C10.906251 8.609375 11.143228 8.684895 11.367188 8.835938 C11.591147 8.986980 11.817707 9.166666 12.046875 9.375000 C12.390627 9.677085 12.796873 9.976561 13.265625 10.273438 C13.734377 10.570314 14.343746 10.718750 15.093750 10.718750 C15.583336 10.718750 16.065102 10.666667 16.539062 10.562500 C17.013023 10.458333 17.473956 10.291668 17.921875 10.062500 L18.343750 12.546875 C17.989582 12.671876 17.476566 12.804687 16.804688 12.945312 C16.132809 13.085938 15.567711 13.156250 15.109375 13.156250 Z M19.921875 17.437500 C19.203121 17.354166 18.419275 17.049482 17.570312 16.523438 C16.721350 15.997393 15.882817 15.270838 15.054688 14.343750 C14.226558 13.416662 13.476566 12.302090 12.804688 11.000000 C12.132809 9.697910 11.614585 8.223967 11.250000 6.578125 L12.000000 5.578125 C12.270835 7.244800 12.705726 8.734368 13.304688 10.046875 C13.903649 11.359382 14.588538 12.479162 15.359375 13.406250 C16.130212 14.333338 16.916663 15.057289 17.718750 15.578125 C18.520837 16.098961 19.255205 16.406250 19.921875 16.500000 Z M17.500000 10.906250 C16.833330 10.781249 16.210940 10.473961 15.632812 9.984375 C15.054685 9.494789 14.552085 8.906253 14.125000 8.218750 C13.697915 7.531247 13.364585 6.817712 13.125000 6.078125 C12.885415 5.338538 12.765625 4.651045 12.765625 4.015625 C12.765625 2.796869 13.218745 2.187500 14.125000 2.187500 C14.479168 2.187500 14.765624 2.299478 14.984375 2.523438 C15.203126 2.747397 15.312500 3.072915 15.312500 3.500000 C15.312500 4.531255 15.382812 5.382809 15.523438 6.054688 C15.664063 6.726566 15.971352 7.294269 16.445312 7.757812 C16.919273 8.221356 17.651037 8.661456 18.640625 9.078125 Z M19.250000 8.781250 C19.677085 8.604166 20.007811 8.398439 20.242188 8.164062 C20.476564 7.929686 20.692707 7.651043 20.890625 7.328125 C20.786458 7.255208 20.687500 7.210938 20.593750 7.195312 C20.500000 7.179687 20.401042 7.171875 20.296875 7.171875 C20.192708 7.171875 20.083334 7.166667 19.968750 7.156250 C19.854166 7.145833 19.718751 7.109375 19.562500 7.046875 C19.489583 7.265626 19.395834 7.505207 19.281250 7.765625 C19.166666 8.026043 19.046876 8.276040 18.921875 8.515625 Z M20.296875 9.671875 C19.317703 9.671875 18.486983 9.330733 17.804688 8.648438 C17.122392 7.966142 16.781250 7.135422 16.781250 6.156250 C16.781250 5.791665 16.838541 5.437502 16.953125 5.093750 C16.630207 4.958333 16.468750 4.781251 16.468750 4.562500 C16.468750 4.458333 16.510416 4.328126 16.593750 4.171875 C16.968752 3.484372 17.510413 2.947919 18.218750 2.562500 C18.927087 2.177081 19.682288 1.984375 20.484375 1.984375 C21.661464 1.984375 22.645829 2.361975 23.437500 3.117188 C24.229171 3.872400 24.625000 4.822911 24.625000 5.968750 C24.625000 7.447924 23.927090 8.640620 22.531250 9.546875 C22.270832 9.546875 22.010418 9.484376 21.750000 9.359375 C21.302081 9.567709 20.817711 9.671875 20.296875 9.671875 Z M22.343750 8.515625 C23.239588 7.901039 23.687500 7.052089 23.687500 5.968750 C23.687500 5.072912 23.388024 4.341149 22.789062 3.773438 C22.190101 3.205726 21.421880 2.921875 20.484375 2.921875 C19.869789 2.921875 19.286461 3.041665 18.734375 3.281250 C18.182289 3.520835 17.796876 3.885414 17.578125 4.375000 C17.880210 4.468750 18.164061 4.575520 18.429688 4.695312 C18.695314 4.815105 18.895833 4.921875 19.031250 5.015625 C19.302085 5.192709 19.473958 5.414061 19.546875 5.679688 C19.619792 5.945314 19.713541 6.125000 19.828125 6.218750 C19.911459 6.281250 20.031249 6.325521 20.187500 6.351562 C20.343751 6.377604 20.505208 6.390625 20.671875 6.390625 C21.098960 6.390625 21.398437 6.473958 21.570312 6.640625 C21.742188 6.807292 21.828125 7.046873 21.828125 7.359375 C21.828125 7.494792 21.817708 7.619791 21.796875 7.734375 C21.776042 7.848959 21.765625 7.958333 21.765625 8.062500 C21.765625 8.187501 21.804687 8.289062 21.882812 8.367188 C21.960938 8.445313 22.114582 8.494792 22.343750 8.515625 Z M32.625000 27.343750" /></svg>