<svg version="1.1" xmlns="http://www.w3.org/2000/svg" style="fill:rgba(0,0,0,1.0)" width="256" height="256" viewBox="0 0 38.607781087179895 33.59375"><path fill="rgb(255, 255, 255)" d="M0.765625 26.718750 C0.494790 26.729167 0.299480 26.632814 0.179688 26.429688 C0.059895 26.226561 0.067708 26.010418 0.203125 25.781250 C0.786461 24.791662 1.354164 23.583340 1.906250 22.156250 C2.458336 20.729160 3.041664 18.838553 3.656250 16.484375 C4.406254 13.630194 5.346349 11.302092 6.476562 9.500000 C7.606776 7.697908 9.013012 6.367192 10.695312 5.507812 C12.377613 4.648433 14.406238 4.218750 16.781250 4.218750 C20.375018 4.218750 23.278635 5.182282 25.492188 7.109375 C27.705740 9.036468 29.218746 12.026021 30.031250 16.078125 C30.281251 17.328131 30.499999 18.388016 30.687500 19.257812 C30.875001 20.127609 31.067707 20.885413 31.265625 21.531250 C31.463543 22.177087 31.700519 22.786455 31.976562 23.359375 C32.252606 23.932295 32.604165 24.541663 33.031250 25.187500 C33.177084 25.416668 33.192709 25.630207 33.078125 25.828125 C32.963541 26.026043 32.770835 26.125000 32.500000 26.125000 C29.437485 26.125000 27.268236 25.351570 25.992188 23.804688 C24.716139 22.257805 24.078125 19.859391 24.078125 16.609375 C23.692706 16.609375 23.291669 16.500001 22.875000 16.281250 C22.458331 16.062499 22.145834 15.760419 21.937500 15.375000 C20.322909 16.312505 18.671883 17.036456 16.984375 17.546875 C15.296867 18.057294 13.604175 18.348958 11.906250 18.421875 C11.718749 18.432292 11.583334 18.367188 11.500000 18.226562 C11.416666 18.085937 11.427083 17.932292 11.531250 17.765625 C11.739584 17.432290 11.908854 17.143230 12.039062 16.898438 C12.169271 16.653645 12.276041 16.416668 12.359375 16.187500 C11.890623 16.593752 11.419273 16.940103 10.945312 17.226562 C10.471352 17.513022 10.026044 17.734374 9.609375 17.890625 C9.390624 19.838551 8.979170 21.442702 8.375000 22.703125 C7.770830 23.963548 6.864589 24.919268 5.656250 25.570312 C4.447911 26.221357 2.817719 26.604166 0.765625 26.718750 Z M3.734375 29.875000 C3.005205 29.875000 2.466148 29.807292 2.117188 29.671875 C1.768227 29.536458 1.593750 29.328126 1.593750 29.046875 C1.593750 28.776040 1.703124 28.541668 1.921875 28.343750 C2.338544 27.958331 2.690103 27.554690 2.976562 27.132812 C3.263022 26.710935 3.489582 26.255211 3.656250 25.765625 L5.531250 24.921875 C5.427083 25.651045 5.276043 26.265622 5.078125 26.765625 C4.880207 27.265628 4.640626 27.729165 4.359375 28.156250 C4.838544 28.114583 5.231769 28.036459 5.539062 27.921875 C5.846356 27.807291 6.083332 27.645834 6.250000 27.437500 L6.937500 29.125000 C6.572915 29.375001 6.125003 29.562499 5.593750 29.687500 C5.062497 29.812501 4.442712 29.875000 3.734375 29.875000 Z M16.734375 33.593750 C13.598943 33.593750 11.117197 33.114588 9.289062 32.156250 C7.460928 31.197912 6.458334 29.854175 6.281250 28.125000 C6.218750 27.510414 6.161459 26.750005 6.109375 25.843750 C6.057291 24.937495 6.015625 24.109379 5.984375 23.359375 L7.781250 21.218750 C7.781250 21.864587 7.799479 22.596350 7.835938 23.414062 C7.872396 24.231775 7.919271 25.041663 7.976562 25.843750 C8.033854 26.645837 8.093750 27.354164 8.156250 27.968750 C8.281251 29.062505 9.088534 29.960934 10.578125 30.664062 C12.067716 31.367191 14.119779 31.718750 16.734375 31.718750 C18.807302 31.718750 20.567701 31.552085 22.015625 31.218750 C23.463549 30.885415 24.567705 30.437503 25.328125 29.875000 C26.088545 29.312497 26.468750 28.697920 26.468750 28.031250 C26.468750 27.791665 26.429688 27.544272 26.351562 27.289062 C26.273437 27.033853 26.166667 26.770835 26.031250 26.500000 C25.864582 26.166665 25.721355 25.807294 25.601562 25.421875 C25.481770 25.036456 25.421875 24.619794 25.421875 24.171875 L25.421875 21.203125 L27.312500 23.140625 L27.312500 23.875000 C27.312500 24.416669 27.361979 24.880206 27.460938 25.265625 C27.559896 25.651044 27.692708 26.010415 27.859375 26.343750 C27.994792 26.604168 28.109375 26.867186 28.203125 27.132812 C28.296875 27.398439 28.343750 27.697915 28.343750 28.031250 C28.343750 29.145839 27.885421 30.119788 26.968750 30.953125 C26.052079 31.786462 24.729175 32.434894 23.000000 32.898438 C21.270825 33.361981 19.182304 33.593750 16.734375 33.593750 Z M12.484375 22.531250 C11.942706 22.531250 11.445315 22.401043 10.992188 22.140625 C10.539060 21.880207 10.213543 21.536460 10.015625 21.109375 L11.296875 20.515625 C11.380209 20.692709 11.528645 20.838541 11.742188 20.953125 C11.955730 21.067709 12.203124 21.125000 12.484375 21.125000 C12.755210 21.125000 13.002603 21.067709 13.226562 20.953125 C13.450522 20.838541 13.598958 20.697918 13.671875 20.531250 L14.953125 21.093750 C14.807291 21.520835 14.500002 21.867186 14.031250 22.132812 C13.562498 22.398439 13.046878 22.531250 12.484375 22.531250 Z M16.703125 26.906250 C15.911454 26.906250 15.179691 26.781251 14.507812 26.531250 C13.835934 26.281249 13.276044 25.911461 12.828125 25.421875 L13.796875 24.406250 C14.588546 25.135420 15.557286 25.500000 16.703125 25.500000 C17.848964 25.500000 18.817704 25.135420 19.609375 24.406250 L20.578125 25.421875 C20.130206 25.911461 19.572920 26.281249 18.906250 26.531250 C18.239580 26.781251 17.505212 26.906250 16.703125 26.906250 Z M20.515625 22.531250 C19.973956 22.531250 19.471356 22.398439 19.007812 22.132812 C18.544269 21.867186 18.223959 21.520835 18.046875 21.093750 L19.328125 20.531250 C19.401042 20.697918 19.549478 20.838541 19.773438 20.953125 C19.997397 21.067709 20.244790 21.125000 20.515625 21.125000 C20.796876 21.125000 21.046874 21.067709 21.265625 20.953125 C21.484376 20.838541 21.630208 20.692709 21.703125 20.515625 L22.984375 21.109375 C22.786457 21.536460 22.463544 21.880207 22.015625 22.140625 C21.567706 22.401043 21.067711 22.531250 20.515625 22.531250 Z M2.593750 25.078125 C3.895840 24.828124 4.911455 24.341149 5.640625 23.617188 C6.369795 22.893226 6.906248 21.947922 7.250000 20.781250 C7.593752 19.614578 7.828124 18.250008 7.953125 16.687500 C8.796879 16.312498 9.520830 15.960939 10.125000 15.632812 C10.729170 15.304686 11.239581 14.994793 11.656250 14.703125 C12.072919 14.421874 12.419269 14.166668 12.695312 13.937500 C12.971356 13.708332 13.192708 13.510417 13.359375 13.343750 C13.755210 12.958331 14.067707 12.765625 14.296875 12.765625 C14.515626 12.765625 14.645833 12.919269 14.687500 13.226562 C14.729167 13.533856 14.750000 13.843748 14.750000 14.156250 C14.750000 14.520835 14.703125 14.893227 14.609375 15.273438 C14.515625 15.653648 14.369793 16.041665 14.171875 16.437500 C14.786461 16.437500 15.552079 16.289064 16.468750 15.992188 C17.385421 15.695311 18.374995 15.283857 19.437500 14.757812 C20.500005 14.231768 21.546870 13.625003 22.578125 12.937500 C22.838543 13.781254 23.244789 14.377602 23.796875 14.726562 C24.348961 15.075523 25.020829 15.250000 25.812500 15.250000 C25.812500 17.125009 25.955728 18.661452 26.242188 19.859375 C26.528647 21.057298 26.999997 21.986976 27.656250 22.648438 C28.312503 23.309899 29.197911 23.781249 30.312500 24.062500 C29.999998 23.197912 29.713543 22.325525 29.453125 21.445312 C29.192707 20.565100 28.960939 19.674484 28.757812 18.773438 C28.554686 17.872391 28.369792 16.968755 28.203125 16.062500 C27.588539 12.593733 26.299489 10.039071 24.335938 8.398438 C22.372386 6.757804 19.854182 5.937500 16.781250 5.937500 C14.624989 5.937500 12.809903 6.325517 11.335938 7.101562 C9.861972 7.877608 8.648442 9.080721 7.695312 10.710938 C6.742183 12.341154 5.968753 14.447904 5.375000 17.031250 C5.166666 17.958338 4.916668 18.885412 4.625000 19.812500 C4.333332 20.739588 4.015627 21.648433 3.671875 22.539062 C3.328123 23.429692 2.968752 24.276038 2.593750 25.078125 Z M30.453125 29.156250 C29.942706 29.156250 29.473960 29.119792 29.046875 29.046875 C28.619790 28.973958 28.239585 28.869792 27.906250 28.734375 L27.750000 26.718750 C27.895834 26.968751 28.148436 27.138020 28.507812 27.226562 C28.867189 27.315105 29.307289 27.380208 29.828125 27.421875 C29.619791 27.109373 29.434897 26.783856 29.273438 26.445312 C29.111978 26.106769 28.973959 25.755210 28.859375 25.390625 L30.890625 25.859375 C31.098959 26.255210 31.354165 26.635415 31.656250 27.000000 C31.958335 27.364585 32.322915 27.703123 32.750000 28.015625 C32.916668 28.140626 33.000000 28.286458 33.000000 28.453125 C33.000000 28.703126 32.804689 28.882812 32.414062 28.992188 C32.023436 29.101563 31.369796 29.156250 30.453125 29.156250 Z M33.906250 13.031250 C33.135413 13.031250 32.458336 12.770836 31.875000 12.250000 C31.291664 11.729164 31.000000 11.088545 31.000000 10.328125 C31.000000 9.838539 30.945313 9.458335 30.835938 9.187500 C30.726562 8.916665 30.578126 8.729167 30.390625 8.625000 L29.718750 8.234375 L23.828125 10.046875 C23.130205 10.265626 22.604168 10.375000 22.250000 10.375000 C22.020832 10.375000 21.838542 10.315105 21.703125 10.195312 C21.567708 10.075520 21.442709 9.890626 21.328125 9.640625 L26.718750 6.468750 L21.484375 3.390625 C21.723960 2.890622 22.052081 2.640625 22.468750 2.640625 C22.656251 2.640625 22.874999 2.671875 23.125000 2.734375 C23.375001 2.796875 23.661457 2.880208 23.984375 2.984375 L29.671875 4.734375 L30.234375 4.406250 C30.421876 4.291666 30.570312 4.098960 30.679688 3.828125 C30.789063 3.557290 30.843750 3.182294 30.843750 2.703125 C30.843750 1.942705 31.135414 1.302086 31.718750 0.781250 C32.302086 0.260414 32.979163 -0.000000 33.750000 -0.000000 C34.510420 -0.000000 35.161456 0.244789 35.703125 0.734375 C36.244794 1.223961 36.515625 1.838538 36.515625 2.578125 C36.515625 3.338545 36.226565 3.979164 35.648438 4.500000 C35.070310 5.020836 34.395837 5.281250 33.625000 5.281250 C33.062497 5.281250 32.677084 5.299479 32.468750 5.335938 C32.260416 5.372396 32.104167 5.453124 32.000000 5.578125 L31.281250 6.421875 L32.156250 7.453125 C32.260417 7.578126 32.416666 7.658854 32.625000 7.695312 C32.833334 7.731771 33.218747 7.750000 33.781250 7.750000 C34.552087 7.750000 35.226560 8.010414 35.804688 8.531250 C36.382815 9.052086 36.671875 9.692705 36.671875 10.453125 C36.671875 11.182295 36.401044 11.794268 35.859375 12.289062 C35.317706 12.783857 34.666670 13.031250 33.906250 13.031250 Z M29.421875 7.062500 C29.567709 7.062500 29.695312 7.007813 29.804688 6.898438 C29.914063 6.789062 29.968750 6.661459 29.968750 6.515625 C29.968750 6.369791 29.914063 6.242188 29.804688 6.132812 C29.695312 6.023437 29.567709 5.968750 29.421875 5.968750 C29.276041 5.968750 29.148438 6.023437 29.039062 6.132812 C28.929687 6.242188 28.875000 6.369791 28.875000 6.515625 C28.875000 6.661459 28.929687 6.789062 29.039062 6.898438 C29.148438 7.007813 29.276041 7.062500 29.421875 7.062500 Z M33.906250 11.781250 C34.312502 11.781250 34.666665 11.656251 34.968750 11.406250 C35.270835 11.156249 35.421875 10.838544 35.421875 10.453125 C35.421875 10.005206 35.250002 9.651043 34.906250 9.390625 C34.562498 9.130207 34.187502 9.000000 33.781250 9.000000 C33.364581 9.000000 33.007814 9.122395 32.710938 9.367188 C32.414061 9.611980 32.265625 9.932290 32.265625 10.328125 C32.265625 10.765627 32.440102 11.117186 32.789062 11.382812 C33.138023 11.648439 33.510415 11.781250 33.906250 11.781250 Z M33.625000 4.031250 C34.020835 4.031250 34.393227 3.898439 34.742188 3.632812 C35.091148 3.367186 35.265625 3.015627 35.265625 2.578125 C35.265625 2.182290 35.114585 1.861980 34.812500 1.617188 C34.510415 1.372395 34.156252 1.250000 33.750000 1.250000 C33.354165 1.250000 32.981773 1.382811 32.632812 1.648438 C32.283852 1.914064 32.109375 2.265623 32.109375 2.703125 C32.109375 3.098960 32.257811 3.419270 32.554688 3.664062 C32.851564 3.908855 33.208331 4.031250 33.625000 4.031250 Z M38.703125 28.125000" /></svg>