<svg version="1.1" xmlns="http://www.w3.org/2000/svg" style="fill:rgba(0,0,0,1.0)" width="256" height="256" viewBox="0 0 30.625 32.8125"><path fill="rgb(255, 255, 255)" d="M1.296875 32.812500 C1.036457 32.812500 0.799480 32.731772 0.585938 32.570312 C0.372395 32.408853 0.265625 32.151043 0.265625 31.796875 C0.265625 31.369790 0.455727 30.984377 0.835938 30.640625 C1.216148 30.296873 1.791663 30.005210 2.562500 29.765625 C2.437499 27.890616 2.348959 26.479171 2.296875 25.531250 C2.244791 24.583329 2.218750 23.869794 2.218750 23.390625 C2.218750 22.994790 2.328124 22.588544 2.546875 22.171875 C2.765626 21.755206 3.210934 21.406251 3.882812 21.125000 C4.554691 20.843749 5.567702 20.703125 6.921875 20.703125 C7.005209 19.015617 7.085937 17.528652 7.164062 16.242188 C7.242188 14.955723 7.335937 13.830734 7.445312 12.867188 C7.554688 11.903641 7.687499 11.072920 7.843750 10.375000 C6.802078 10.020832 5.940108 9.385421 5.257812 8.468750 C4.575517 7.552079 4.234375 6.505214 4.234375 5.328125 C4.234375 4.348953 4.473956 3.455733 4.953125 2.648438 C5.432294 1.841142 6.075517 1.197919 6.882812 0.718750 C7.690108 0.239581 8.578120 -0.000000 9.546875 -0.000000 C10.536463 -0.000000 11.434892 0.239581 12.242188 0.718750 C13.049483 1.197919 13.692706 1.841142 14.171875 2.648438 C14.651044 3.455733 14.890625 4.348953 14.890625 5.328125 C14.890625 6.307297 14.648440 7.203121 14.164062 8.015625 C13.679685 8.828129 13.046879 9.463539 12.265625 9.921875 C12.828128 10.765629 13.320310 11.744786 13.742188 12.859375 C14.164065 13.973964 14.492186 15.106765 14.726562 16.257812 C14.960939 17.408860 15.078125 18.473953 15.078125 19.453125 C15.078125 21.078133 15.026042 22.369787 14.921875 23.328125 C14.817708 24.286463 14.697917 25.044268 14.562500 25.601562 C14.427083 26.158857 14.307292 26.632811 14.203125 27.023438 C14.098958 27.414064 14.046875 27.859372 14.046875 28.359375 C14.046875 29.119795 14.296873 29.500000 14.796875 29.500000 C15.223960 29.500000 15.591144 29.377605 15.898438 29.132812 C16.205731 28.888020 16.515623 28.645835 16.828125 28.406250 C17.140627 28.166665 17.510415 28.046875 17.937500 28.046875 C18.416669 28.046875 18.859373 28.244790 19.265625 28.640625 C19.671877 29.036460 19.999999 29.499997 20.250000 30.031250 C20.500001 30.562503 20.625000 31.026040 20.625000 31.421875 C20.625000 31.838544 20.484376 32.174478 20.203125 32.429688 C19.921874 32.684897 19.552086 32.812500 19.093750 32.812500 C18.770832 32.812500 18.450522 32.744792 18.132812 32.609375 C17.815103 32.473958 17.494793 32.307293 17.171875 32.109375 C16.609372 32.348960 16.052086 32.526041 15.500000 32.640625 C14.947914 32.755209 14.416669 32.812500 13.906250 32.812500 C11.604155 32.812500 10.453125 31.541679 10.453125 29.000000 L10.453125 24.343750 L6.250000 24.343750 C6.312500 25.552089 6.356771 26.666662 6.382812 27.687500 C6.408854 28.708338 6.421875 29.682287 6.421875 30.609375 C6.421875 32.078132 5.921880 32.812500 4.921875 32.812500 Z M2.109375 21.421875 C1.442705 21.421875 0.924481 21.257814 0.554688 20.929688 C0.184894 20.601561 0.000000 20.192711 0.000000 19.703125 C0.000000 19.192706 0.177082 18.802085 0.531250 18.531250 C0.885418 18.260415 1.322914 18.125000 1.843750 18.125000 C2.302086 18.125000 2.791664 18.065105 3.312500 17.945312 C3.833336 17.825520 4.359372 17.567710 4.890625 17.171875 C5.421878 16.776040 5.942706 16.174483 6.453125 15.367188 C6.963544 14.559892 7.442706 13.463549 7.890625 12.078125 L11.156250 14.515625 C10.968749 15.296879 10.588545 16.091142 10.015625 16.898438 C9.442705 17.705733 8.736983 18.453122 7.898438 19.140625 C7.059892 19.828128 6.143234 20.380206 5.148438 20.796875 C4.153641 21.213544 3.140630 21.421875 2.109375 21.421875 Z M30.625000 27.343750" /></svg>