<svg version="1.1" xmlns="http://www.w3.org/2000/svg" style="fill:rgba(0,0,0,1.0)" width="256" height="256" viewBox="0 0 34.140625 32.8125"><path fill="rgb(255, 255, 255)" d="M4.062500 23.765625 C3.145829 23.765625 2.466148 23.617189 2.023438 23.320312 C1.580727 23.023436 1.359375 22.692710 1.359375 22.328125 C1.755210 22.328125 2.036458 22.190106 2.203125 21.914062 C2.369792 21.638019 2.453125 21.338543 2.453125 21.015625 C2.453125 20.744790 2.375001 20.429689 2.218750 20.070312 C2.062499 19.710936 1.817710 19.307294 1.484375 18.859375 C0.890622 18.078121 0.494793 17.385420 0.296875 16.781250 C0.098957 16.177080 0.000000 15.463546 0.000000 14.640625 C0.000000 14.151039 0.057291 13.708335 0.171875 13.312500 C0.286459 12.916665 0.427083 12.541668 0.593750 12.187500 C0.354165 11.697914 0.234375 11.192711 0.234375 10.671875 C0.234375 9.744787 0.651038 8.947920 1.484375 8.281250 C1.432291 8.052082 1.393229 7.825522 1.367188 7.601562 C1.341146 7.377603 1.328125 7.166668 1.328125 6.968750 C1.328125 6.072912 1.583331 5.338545 2.093750 4.765625 C2.604169 4.192705 3.343745 3.807293 4.312500 3.609375 C4.208333 3.296873 4.156250 2.979168 4.156250 2.656250 C4.156250 2.093747 4.330727 1.614585 4.679688 1.218750 C5.028648 0.822915 5.489580 0.473960 6.062500 0.171875 C6.062500 0.671878 6.182290 1.109373 6.421875 1.484375 C6.661460 1.859377 7.161455 2.046875 7.921875 2.046875 C8.265627 2.046875 8.619790 1.989584 8.984375 1.875000 C9.348960 1.760416 9.828122 1.541668 10.421875 1.218750 C11.234379 0.760414 12.033850 0.442709 12.820312 0.265625 C13.606775 0.088541 14.630202 -0.000000 15.890625 -0.000000 C17.223965 -0.000000 18.367183 0.195311 19.320312 0.585938 C20.273442 0.976564 21.005206 1.440101 21.515625 1.976562 C22.026044 2.513024 22.281250 2.999998 22.281250 3.437500 C22.968753 3.437500 23.622393 3.638019 24.242188 4.039062 C24.861982 4.440106 25.416664 4.968747 25.906250 5.625000 C26.395836 6.281253 26.781249 7.005204 27.062500 7.796875 C27.343751 8.588546 27.484375 9.374996 27.484375 10.156250 C27.484375 10.843753 27.343751 11.520830 27.062500 12.187500 C27.229168 12.541668 27.369791 12.916665 27.484375 13.312500 C27.598959 13.708335 27.656250 14.151039 27.656250 14.640625 C27.656250 15.463546 27.554689 16.177080 27.351562 16.781250 C27.148436 17.385420 26.755211 18.078121 26.171875 18.859375 C25.526038 19.723963 25.203125 20.442705 25.203125 21.015625 C25.203125 21.338543 25.286458 21.638019 25.453125 21.914062 C25.619792 22.190106 25.901040 22.328125 26.296875 22.328125 C26.296875 22.682293 26.088544 23.010415 25.671875 23.312500 C25.255206 23.614585 24.817711 23.765625 24.359375 23.765625 C23.890623 23.765625 23.453127 23.588543 23.046875 23.234375 L23.046875 14.671875 L22.687500 14.484375 C22.687500 13.057285 22.479169 12.013024 22.062500 11.351562 C21.645831 10.690101 20.994796 10.359375 20.109375 10.359375 C19.807290 10.359375 19.494793 10.395833 19.171875 10.468750 C19.171875 9.729163 18.953127 9.140627 18.515625 8.703125 C18.078123 8.265623 17.479170 8.046875 16.718750 8.046875 C15.687495 8.046875 14.768233 8.289060 13.960938 8.773438 C13.153642 9.257815 12.333338 9.822913 11.500000 10.468750 C9.958326 11.666673 8.583339 12.539060 7.375000 13.085938 C6.166661 13.632815 5.062505 13.906250 4.062500 13.906250 Z M14.000000 32.812500 C10.864568 32.812500 8.380218 32.333338 6.546875 31.375000 C4.713532 30.416662 3.713542 29.072925 3.546875 27.343750 C3.432291 26.145827 3.333334 24.895840 3.250000 23.593750 C3.166666 22.291660 3.101563 20.825529 3.054688 19.195312 C3.007812 17.565096 2.984375 15.671886 2.984375 13.515625 L4.859375 13.515625 C4.859375 15.661469 4.880208 17.549471 4.921875 19.179688 C4.963542 20.809904 5.026041 22.270827 5.109375 23.562500 C5.192709 24.854173 5.296874 26.062494 5.421875 27.187500 C5.546876 28.281255 6.354159 29.179684 7.843750 29.882812 C9.333341 30.585941 11.385404 30.937500 14.000000 30.937500 C16.072927 30.937500 17.833326 30.770835 19.281250 30.437500 C20.729174 30.104165 21.833330 29.656253 22.593750 29.093750 C23.354170 28.531247 23.734375 27.916670 23.734375 27.250000 C23.734375 27.010415 23.695313 26.763022 23.617188 26.507812 C23.539062 26.252603 23.432292 25.989585 23.296875 25.718750 C23.130208 25.385415 22.986980 25.026044 22.867188 24.640625 C22.747395 24.255206 22.687500 23.838544 22.687500 23.390625 L22.687500 14.484375 L24.562500 14.484375 L24.562500 23.390625 C24.562500 23.859377 24.619791 24.263019 24.734375 24.601562 C24.848959 24.940106 24.979166 25.260415 25.125000 25.562500 C25.260417 25.822918 25.375000 26.085936 25.468750 26.351562 C25.562500 26.617189 25.609375 26.916665 25.609375 27.250000 C25.609375 28.364589 25.151046 29.338538 24.234375 30.171875 C23.317704 31.005212 21.994800 31.653644 20.265625 32.117188 C18.536450 32.580731 16.447929 32.812500 14.000000 32.812500 Z M13.921875 22.265625 C13.036454 22.265625 12.208337 22.091148 11.437500 21.742188 C10.666663 21.393227 9.984378 20.859379 9.390625 20.140625 L10.500000 19.171875 C10.979169 19.744795 11.494789 20.156249 12.046875 20.406250 C12.598961 20.656251 13.223955 20.781250 13.921875 20.781250 C14.630212 20.781250 15.260414 20.656251 15.812500 20.406250 C16.364586 20.156249 16.874998 19.744795 17.343750 19.171875 L18.453125 20.140625 C17.859372 20.859379 17.179691 21.393227 16.414062 21.742188 C15.648434 22.091148 14.817713 22.265625 13.921875 22.265625 Z M9.578125 17.281250 C9.140623 17.281250 8.778647 17.117189 8.492188 16.789062 C8.205728 16.460936 8.062500 16.072919 8.062500 15.625000 C8.062500 15.166664 8.205728 14.776043 8.492188 14.453125 C8.778647 14.130207 9.140623 13.968750 9.578125 13.968750 C10.015627 13.968750 10.377603 14.130207 10.664062 14.453125 C10.950522 14.776043 11.093750 15.166664 11.093750 15.625000 C11.093750 16.072919 10.950522 16.460936 10.664062 16.789062 C10.377603 17.117189 10.015627 17.281250 9.578125 17.281250 Z M17.859375 17.281250 C17.421873 17.281250 17.059897 17.117189 16.773438 16.789062 C16.486978 16.460936 16.343750 16.072919 16.343750 15.625000 C16.343750 15.166664 16.486978 14.776043 16.773438 14.453125 C17.059897 14.130207 17.421873 13.968750 17.859375 13.968750 C18.296877 13.968750 18.658853 14.130207 18.945312 14.453125 C19.231772 14.776043 19.375000 15.166664 19.375000 15.625000 C19.375000 16.072919 19.231772 16.460936 18.945312 16.789062 C18.658853 17.117189 18.296877 17.281250 17.859375 17.281250 Z M34.140625 27.343750" /></svg>