<svg version="1.1" xmlns="http://www.w3.org/2000/svg" style="fill:rgba(0,0,0,1.0)" width="256" height="256" viewBox="0 0 36.875 32.8125"><path fill="rgb(255, 255, 255)" d="M16.562500 32.812500 C14.187488 32.812500 11.992198 32.403650 9.976562 31.585938 C7.960927 30.768225 6.208341 29.619799 4.718750 28.140625 C3.229159 26.661451 2.070317 24.924489 1.242188 22.929688 C0.414058 20.934886 0.000000 18.760428 0.000000 16.406250 C0.000000 14.052072 0.414058 11.877614 1.242188 9.882812 C2.070317 7.888011 3.229159 6.151049 4.718750 4.671875 C6.208341 3.192701 7.960927 2.044275 9.976562 1.226562 C11.992198 0.408850 14.187488 -0.000000 16.562500 -0.000000 C18.937512 -0.000000 21.132802 0.408850 23.148438 1.226562 C25.164073 2.044275 26.916659 3.192701 28.406250 4.671875 C29.895841 6.151049 31.054683 7.888011 31.882812 9.882812 C32.710942 11.877614 33.125000 14.052072 33.125000 16.406250 C33.125000 18.760428 32.710942 20.934886 31.882812 22.929688 C31.054683 24.924489 29.895841 26.661451 28.406250 28.140625 C26.916659 29.619799 25.164073 30.768225 23.148438 31.585938 C21.132802 32.403650 18.937512 32.812500 16.562500 32.812500 Z M12.140625 25.984375 L11.140625 24.578125 C13.005218 23.088534 14.812491 22.343750 16.562500 22.343750 C18.312509 22.343750 20.119782 23.088534 21.984375 24.578125 L20.984375 25.984375 C19.442701 24.703119 17.968757 24.062500 16.562500 24.062500 C15.156243 24.062500 13.682299 24.703119 12.140625 25.984375 Z M7.000000 20.593750 L6.234375 19.234375 C7.161463 18.713539 8.106766 18.276043 9.070312 17.921875 C10.033859 17.567707 10.927079 17.312501 11.750000 17.156250 C11.124997 16.729165 10.492191 16.359377 9.851562 16.046875 C9.210934 15.734373 8.557295 15.479168 7.890625 15.281250 L8.343750 13.781250 C10.541678 14.458337 12.656240 15.671866 14.687500 17.421875 L14.187500 18.484375 L13.921875 18.484375 C12.942703 18.484375 11.830735 18.674477 10.585938 19.054688 C9.341140 19.434898 8.145839 19.947913 7.000000 20.593750 Z M6.515625 12.046875 L6.109375 10.531250 C7.286464 10.218748 8.226559 9.848960 8.929688 9.421875 C9.632816 8.994790 10.192706 8.463545 10.609375 7.828125 L11.906250 8.687500 C11.364581 9.510421 10.664067 10.190101 9.804688 10.726562 C8.945308 11.263024 7.848965 11.703123 6.515625 12.046875 Z M16.562500 31.093750 C18.677094 31.093750 20.627595 30.726566 22.414062 29.992188 C24.200530 29.257809 25.752598 28.231777 27.070312 26.914062 C28.388027 25.596348 29.414059 24.041676 30.148438 22.250000 C30.882816 20.458324 31.250000 18.510427 31.250000 16.406250 C31.250000 14.291656 30.882816 12.341155 30.148438 10.554688 C29.414059 8.768220 28.388027 7.216152 27.070312 5.898438 C25.752598 4.580723 24.200530 3.554691 22.414062 2.820312 C20.627595 2.085934 18.677094 1.718750 16.562500 1.718750 C14.458323 1.718750 12.513030 2.085934 10.726562 2.820312 C8.940095 3.554691 7.385423 4.580723 6.062500 5.898438 C4.739577 7.216152 3.710941 8.768220 2.976562 10.554688 C2.242184 12.341155 1.875000 14.291656 1.875000 16.406250 C1.875000 18.510427 2.242184 20.458324 2.976562 22.250000 C3.710941 24.041676 4.736973 25.596348 6.054688 26.914062 C7.372402 28.231777 8.927074 29.257809 10.718750 29.992188 C12.510426 30.726566 14.458323 31.093750 16.562500 31.093750 Z M26.125000 20.593750 C24.989578 19.947913 23.799485 19.434898 22.554688 19.054688 C21.309890 18.674477 20.192713 18.484375 19.203125 18.484375 L18.937500 18.484375 L18.437500 17.421875 C20.468760 15.671866 22.583322 14.458337 24.781250 13.781250 L25.234375 15.281250 C24.567705 15.479168 23.914066 15.734373 23.273438 16.046875 C22.632809 16.359377 22.000003 16.729165 21.375000 17.156250 C22.208338 17.312501 23.104162 17.567707 24.062500 17.921875 C25.020838 18.276043 25.963537 18.713539 26.890625 19.234375 Z M26.609375 12.046875 C25.276035 11.682290 24.174484 11.231774 23.304688 10.695312 C22.434891 10.158851 21.739586 9.489587 21.218750 8.687500 L22.515625 7.828125 C22.942710 8.463545 23.507809 8.994790 24.210938 9.421875 C24.914066 9.848960 25.848952 10.218748 27.015625 10.531250 Z M36.875000 27.343750" /></svg>