<svg version="1.1" xmlns="http://www.w3.org/2000/svg" style="fill:rgba(0,0,0,1.0)" width="256" height="256" viewBox="0 0 35.625 32.8125"><path fill="rgb(255, 255, 255)" d="M14.359375 27.421875 C13.817706 27.421875 13.437501 27.252606 13.218750 26.914062 C12.999999 26.575519 12.890625 26.145836 12.890625 25.625000 C12.890625 25.343749 12.968749 25.080730 13.125000 24.835938 C13.281251 24.591145 13.434895 24.369793 13.585938 24.171875 C13.736980 23.973957 13.812500 23.796876 13.812500 23.640625 C13.812500 23.244790 13.794271 22.924480 13.757812 22.679688 C13.721354 22.434895 13.682292 22.174481 13.640625 21.898438 C13.598958 21.622394 13.578125 21.239586 13.578125 20.750000 C13.578125 20.270831 13.682291 19.763024 13.890625 19.226562 C14.098959 18.690101 14.343749 18.158857 14.625000 17.632812 C14.906251 17.106768 15.151041 16.619794 15.359375 16.171875 C15.567709 15.723956 15.671875 15.348960 15.671875 15.046875 C15.671875 14.526039 15.593751 14.078127 15.437500 13.703125 C15.281249 13.328123 15.041668 12.916669 14.718750 12.468750 L11.328125 14.750000 C11.140624 14.875001 10.872398 15.031249 10.523438 15.218750 C10.174477 15.406251 9.822918 15.570312 9.468750 15.710938 C9.114582 15.851563 8.828126 15.921875 8.609375 15.921875 L7.406250 14.328125 L6.171875 15.546875 C5.880207 15.546875 5.651042 15.473959 5.484375 15.328125 C5.317708 15.182291 5.234375 14.968751 5.234375 14.687500 C5.234375 14.114580 5.497393 13.674481 6.023438 13.367188 C6.549482 13.059894 7.515618 12.906250 8.921875 12.906250 L12.578125 10.125000 C11.390619 9.927082 10.442712 9.429691 9.734375 8.632812 C9.026038 7.835934 8.567709 6.963546 8.359375 6.015625 L17.000000 4.562500 C17.000000 4.791668 16.960938 5.078123 16.882812 5.421875 C16.804687 5.765627 16.708334 6.041666 16.593750 6.250000 C18.718761 7.322922 20.291662 8.427078 21.312500 9.562500 C22.333338 10.697922 22.843750 11.927077 22.843750 13.250000 C22.843750 14.000004 22.656252 14.677080 22.281250 15.281250 C21.906248 15.885420 21.440107 16.440102 20.882812 16.945312 C20.325518 17.450523 19.773440 17.934894 19.226562 18.398438 C18.679685 18.861981 18.226564 19.322914 17.867188 19.781250 C17.507811 20.239586 17.338542 20.718748 17.359375 21.218750 L17.531250 24.750000 C17.552083 25.031251 17.476563 25.382810 17.304688 25.804688 C17.132812 26.226565 16.815106 26.601561 16.351562 26.929688 C15.888019 27.257814 15.223963 27.421875 14.359375 27.421875 Z M6.093750 32.812500 C4.968744 32.812500 3.945317 32.539065 3.023438 31.992188 C2.101558 31.445310 1.367190 30.710942 0.820312 29.789062 C0.273435 28.867183 0.000000 27.843756 0.000000 26.718750 C0.000000 25.604161 0.270831 24.588546 0.812500 23.671875 C1.354169 22.755204 2.080725 22.023440 2.992188 21.476562 C3.903650 20.929685 4.916661 20.651042 6.031250 20.640625 L5.562500 22.640625 C4.895830 22.723959 4.289065 22.958331 3.742188 23.343750 C3.195310 23.729169 2.760418 24.213539 2.437500 24.796875 C2.114582 25.380211 1.953125 26.020830 1.953125 26.718750 C1.953125 27.468754 2.140623 28.156247 2.515625 28.781250 C2.890627 29.406253 3.390622 29.906248 4.015625 30.281250 C4.640628 30.656252 5.333330 30.843750 6.093750 30.843750 C6.843754 30.843750 7.528643 30.656252 8.148438 30.281250 C8.768232 29.906248 9.263019 29.406253 9.632812 28.781250 C10.002606 28.156247 10.187500 27.468754 10.187500 26.718750 C10.187500 26.020830 10.026043 25.377607 9.703125 24.789062 C9.380207 24.200518 8.953128 23.723960 8.421875 23.359375 L8.890625 21.328125 C9.859380 21.838544 10.645830 22.572912 11.250000 23.531250 C11.854170 24.489588 12.156250 25.552078 12.156250 26.718750 C12.156250 27.843756 11.882815 28.867183 11.335938 29.789062 C10.789060 30.710942 10.057296 31.445310 9.140625 31.992188 C8.223954 32.539065 7.208339 32.812500 6.093750 32.812500 Z M13.734375 30.218750 C13.442707 30.218750 13.190105 30.111980 12.976562 29.898438 C12.763020 29.684895 12.656250 29.427085 12.656250 29.125000 L12.656250 26.703125 L17.859375 26.703125 L17.859375 29.125000 C17.859375 29.437502 17.760418 29.697916 17.562500 29.906250 C17.364582 30.114584 17.109377 30.218750 16.796875 30.218750 Z M6.265625 28.484375 C5.598955 28.484375 5.085939 28.226565 4.726562 27.710938 C4.367186 27.195310 4.270832 26.609378 4.437500 25.953125 L6.984375 16.406250 L8.531250 16.031250 L5.796875 26.343750 C5.755208 26.531251 5.781250 26.687499 5.875000 26.812500 C5.968750 26.937501 6.098958 27.000000 6.265625 27.000000 C6.494793 27.000000 6.635416 26.895834 6.687500 26.687500 L8.906250 18.125000 L14.046875 25.140625 L13.765625 27.187500 L9.406250 21.734375 L8.046875 27.062500 C7.942708 27.468752 7.726564 27.807290 7.398438 28.078125 C7.070311 28.348960 6.692710 28.484375 6.265625 28.484375 Z M13.906250 28.968750 L16.609375 28.968750 L16.609375 27.781250 L13.906250 27.781250 Z M14.187500 23.890625 L9.875000 17.984375 L14.750000 18.656250 L14.625000 19.734375 L12.296875 19.421875 L14.625000 22.718750 Z M7.390625 16.921875 C6.973956 16.921875 6.614585 16.773439 6.312500 16.476562 C6.010415 16.179686 5.859375 15.817710 5.859375 15.390625 C5.859375 14.963540 6.010415 14.601564 6.312500 14.304688 C6.614585 14.007811 6.973956 13.859375 7.390625 13.859375 C7.817710 13.859375 8.179686 14.007811 8.476562 14.304688 C8.773439 14.601564 8.921875 14.963540 8.921875 15.390625 C8.921875 15.817710 8.773439 16.179686 8.476562 16.476562 C8.179686 16.773439 7.817710 16.921875 7.390625 16.921875 Z M7.390625 15.906250 C7.536459 15.906250 7.661458 15.856771 7.765625 15.757812 C7.869792 15.658854 7.921875 15.536459 7.921875 15.390625 C7.921875 15.244791 7.869792 15.122396 7.765625 15.023438 C7.661458 14.924479 7.536459 14.875000 7.390625 14.875000 C7.046873 14.875000 6.875000 15.046873 6.875000 15.390625 C6.875000 15.734377 7.046873 15.906250 7.390625 15.906250 Z M16.062500 25.640625 L17.328125 24.140625 L18.984375 24.140625 C19.130209 23.786457 19.364582 23.427085 19.687500 23.062500 L18.843750 21.953125 L17.484375 23.812500 L17.140625 22.171875 L19.000000 19.625000 L23.468750 25.640625 Z M15.296875 17.796875 L9.234375 16.937500 L9.890625 14.359375 L11.640625 13.546875 L11.109375 15.703125 L15.953125 16.375000 Z M24.531250 32.812500 C23.479161 32.812500 22.510421 32.565107 21.625000 32.070312 C20.739579 31.575518 20.015628 30.906254 19.453125 30.062500 C18.890622 29.218746 18.567709 28.276047 18.484375 27.234375 L20.468750 27.234375 C20.552084 27.901045 20.783852 28.507810 21.164062 29.054688 C21.544273 29.601565 22.028643 30.036457 22.617188 30.359375 C23.205732 30.682293 23.843747 30.843750 24.531250 30.843750 C25.291670 30.843750 25.984372 30.656252 26.609375 30.281250 C27.234378 29.906248 27.731769 29.406253 28.101562 28.781250 C28.471356 28.156247 28.656250 27.468754 28.656250 26.718750 C28.656250 25.968746 28.471356 25.283857 28.101562 24.664062 C27.731769 24.044268 27.234378 23.546877 26.609375 23.171875 C25.984372 22.796873 25.291670 22.609375 24.531250 22.609375 C24.322916 22.609375 24.117189 22.627604 23.914062 22.664062 C23.710936 22.700521 23.515626 22.744791 23.328125 22.796875 L22.156250 21.109375 C22.927087 20.796873 23.718746 20.640625 24.531250 20.640625 C25.645839 20.640625 26.664058 20.914060 27.585938 21.460938 C28.507817 22.007815 29.244789 22.739579 29.796875 23.656250 C30.348961 24.572921 30.625000 25.593744 30.625000 26.718750 C30.625000 27.843756 30.351565 28.867183 29.804688 29.789062 C29.257810 30.710942 28.523442 31.445310 27.601562 31.992188 C26.679683 32.539065 25.656256 32.812500 24.531250 32.812500 Z M17.078125 28.093750 L16.500000 26.531250 L24.296875 26.531250 C24.515626 26.531250 24.671875 26.447918 24.765625 26.281250 C24.859375 26.114582 24.833334 25.932293 24.687500 25.734375 L19.562500 18.843750 L20.421875 17.656250 L21.953125 17.687500 L21.359375 18.500000 L26.046875 24.828125 C26.348960 25.234377 26.510417 25.692706 26.531250 26.203125 C26.552083 26.713544 26.388023 27.156248 26.039062 27.531250 C25.690102 27.906252 25.109379 28.093750 24.296875 28.093750 Z M21.609375 18.218750 L18.750000 17.703125 L20.625000 16.468750 L21.921875 16.593750 C22.359377 16.635417 22.721353 16.596355 23.007812 16.476562 C23.294272 16.356770 23.437500 16.140627 23.437500 15.828125 C23.437500 15.619791 23.361980 15.434897 23.210938 15.273438 C23.059895 15.111978 22.833335 15.031250 22.531250 15.031250 L20.968750 15.031250 L21.250000 13.546875 L22.531250 13.546875 C23.364588 13.546875 24.010414 13.755206 24.468750 14.171875 C24.927086 14.588544 25.156250 15.140622 25.156250 15.828125 C25.156250 16.723963 24.812503 17.390623 24.125000 17.828125 C23.437497 18.265627 22.598963 18.395834 21.609375 18.218750 Z M13.546875 9.312500 C14.192712 8.729164 14.703123 8.098962 15.078125 7.421875 C15.453127 6.744788 15.692708 6.062503 15.796875 5.375000 L14.828125 5.484375 C14.765625 5.682293 14.703125 5.872395 14.640625 6.054688 C14.578125 6.236980 14.510417 6.395833 14.437500 6.531250 C14.312499 6.468750 14.195313 6.375001 14.085938 6.250000 C13.976562 6.124999 13.869792 5.979167 13.765625 5.812500 L12.671875 5.921875 C12.869793 6.223960 13.070311 6.499999 13.273438 6.750000 C13.476564 7.000001 13.692707 7.213541 13.921875 7.390625 C13.723957 7.651043 13.575521 7.890624 13.476562 8.109375 C13.377604 8.328126 13.328125 8.526041 13.328125 8.703125 C13.328125 8.901043 13.401041 9.104166 13.546875 9.312500 Z M7.984375 6.843750 C7.880208 6.541665 7.807292 6.244793 7.765625 5.953125 C7.723958 5.661457 7.703125 5.380210 7.703125 5.109375 C7.703125 4.192704 7.911456 3.348962 8.328125 2.578125 C8.744794 1.807288 9.315101 1.184898 10.039062 0.710938 C10.763024 0.236977 11.588537 -0.000000 12.515625 -0.000000 C13.401046 -0.000000 14.226559 0.236977 14.992188 0.710938 C15.757816 1.184898 16.380206 1.802080 16.859375 2.562500 C17.338544 3.322920 17.578125 4.145829 17.578125 5.031250 C17.578125 5.104167 17.578125 5.174479 17.578125 5.242188 C17.578125 5.309896 17.572917 5.385416 17.562500 5.468750 C17.062498 5.604167 16.377609 5.752603 15.507812 5.914062 C14.638016 6.075522 13.713547 6.226562 12.734375 6.367188 C11.755203 6.507813 10.835942 6.622395 9.976562 6.710938 C9.117183 6.799480 8.453127 6.843750 7.984375 6.843750 Z M9.078125 5.390625 C9.463544 5.390625 9.958330 5.359375 10.562500 5.296875 C11.166670 5.234375 11.815101 5.153646 12.507812 5.054688 C13.200524 4.955729 13.872393 4.843751 14.523438 4.718750 C15.174482 4.593749 15.734373 4.468751 16.203125 4.343750 C16.067708 3.749997 15.812502 3.221356 15.437500 2.757812 C15.062498 2.294269 14.619794 1.927085 14.109375 1.656250 C13.598956 1.385415 13.067711 1.250000 12.515625 1.250000 C11.880205 1.250000 11.299482 1.424477 10.773438 1.773438 C10.247393 2.122398 9.825522 2.578122 9.507812 3.140625 C9.190103 3.703128 9.031250 4.307288 9.031250 4.953125 C9.031250 5.026042 9.033854 5.096354 9.039062 5.164062 C9.044271 5.231771 9.057292 5.307291 9.078125 5.390625 Z M35.625000 27.343750" /></svg>