<svg version="1.1" xmlns="http://www.w3.org/2000/svg" style="fill:rgba(0,0,0,1.0)" width="256" height="256" viewBox="0 0 33.4375 32.8125"><path fill="rgb(255, 255, 255)" d="M13.203125 32.812500 C10.067693 32.812500 7.585947 32.333338 5.757812 31.375000 C3.929678 30.416662 2.927084 29.072925 2.750000 27.343750 C2.677083 26.604163 2.614584 25.815108 2.562500 24.976562 C2.510416 24.138017 2.468750 23.205734 2.437500 22.179688 C2.406250 21.153641 2.382813 20.002611 2.367188 18.726562 C2.351562 17.450514 2.343750 16.005216 2.343750 14.390625 L4.218750 14.390625 C4.218750 15.880216 4.223958 17.244785 4.234375 18.484375 C4.244792 19.723965 4.263021 20.861974 4.289062 21.898438 C4.315104 22.934901 4.356771 23.888016 4.414062 24.757812 C4.471354 25.627609 4.541666 26.437496 4.625000 27.187500 C4.750001 28.281255 5.557284 29.179684 7.046875 29.882812 C8.536466 30.585941 10.588529 30.937500 13.203125 30.937500 C15.276052 30.937500 17.036451 30.770835 18.484375 30.437500 C19.932299 30.104165 21.036455 29.656253 21.796875 29.093750 C22.557295 28.531247 22.937500 27.916670 22.937500 27.250000 C22.937500 27.010415 22.898438 26.763022 22.820312 26.507812 C22.742187 26.252603 22.635417 25.989585 22.500000 25.718750 C22.333332 25.385415 22.190105 25.026044 22.070312 24.640625 C21.950520 24.255206 21.890625 23.838544 21.890625 23.390625 L21.890625 13.609375 L23.718750 14.015625 L23.718750 23.406250 C23.718750 23.875002 23.783854 24.276040 23.914062 24.609375 C24.044271 24.942710 24.182291 25.260415 24.328125 25.562500 C24.463542 25.822918 24.578125 26.085936 24.671875 26.351562 C24.765625 26.617189 24.812500 26.916665 24.812500 27.250000 C24.812500 28.364589 24.354171 29.338538 23.437500 30.171875 C22.520829 31.005212 21.197925 31.653644 19.468750 32.117188 C17.739575 32.580731 15.651054 32.812500 13.203125 32.812500 Z M12.984375 24.359375 C12.098954 24.359375 11.270837 24.184898 10.500000 23.835938 C9.729163 23.486977 9.046878 22.953129 8.453125 22.234375 L9.562500 21.265625 C10.041669 21.838545 10.557289 22.249999 11.109375 22.500000 C11.661461 22.750001 12.286455 22.875000 12.984375 22.875000 C13.682295 22.875000 14.307289 22.750001 14.859375 22.500000 C15.411461 22.249999 15.927081 21.838545 16.406250 21.265625 L17.515625 22.234375 C16.921872 22.953129 16.242191 23.486977 15.476562 23.835938 C14.710934 24.184898 13.880213 24.359375 12.984375 24.359375 Z M8.906250 19.453125 C8.468748 19.453125 8.106772 19.289064 7.820312 18.960938 C7.533853 18.632811 7.390625 18.244794 7.390625 17.796875 C7.390625 17.338539 7.533853 16.947918 7.820312 16.625000 C8.106772 16.302082 8.468748 16.140625 8.906250 16.140625 C9.343752 16.140625 9.705728 16.302082 9.992188 16.625000 C10.278647 16.947918 10.421875 17.338539 10.421875 17.796875 C10.421875 18.244794 10.278647 18.632811 9.992188 18.960938 C9.705728 19.289064 9.343752 19.453125 8.906250 19.453125 Z M1.671875 10.265625 C1.380207 10.265625 1.127605 10.101564 0.914062 9.773438 C0.700520 9.445311 0.593750 9.057294 0.593750 8.609375 C0.593750 8.265623 0.661458 7.979168 0.796875 7.750000 C0.932292 7.520832 1.109374 7.406250 1.328125 7.406250 C1.609376 7.406250 1.851561 7.583332 2.054688 7.937500 C2.257814 8.291668 2.359375 8.697914 2.359375 9.156250 C2.359375 9.479168 2.302084 9.744791 2.187500 9.953125 C2.072916 10.161459 1.901043 10.265625 1.671875 10.265625 Z M1.453125 5.453125 C1.046873 5.453125 0.703126 5.312501 0.421875 5.031250 C0.140624 4.749999 0.000000 4.406252 0.000000 4.000000 C0.000000 3.593748 0.140624 3.250001 0.421875 2.968750 C0.703126 2.687499 1.046873 2.546875 1.453125 2.546875 C1.859377 2.546875 2.203124 2.687499 2.484375 2.968750 C2.765626 3.250001 2.906250 3.593748 2.906250 4.000000 C2.906250 4.406252 2.765626 4.749999 2.484375 5.031250 C2.203124 5.312501 1.859377 5.453125 1.453125 5.453125 Z M7.421875 9.718750 C7.192707 9.718750 6.984376 9.611980 6.796875 9.398438 C6.609374 9.184895 6.515625 8.927085 6.515625 8.625000 C6.515625 8.385415 6.585937 8.169272 6.726562 7.976562 C6.867188 7.783853 7.046874 7.687500 7.265625 7.687500 C7.505210 7.687500 7.716145 7.794270 7.898438 8.007812 C8.080730 8.221355 8.171875 8.479165 8.171875 8.781250 C8.171875 9.041668 8.101563 9.263020 7.960938 9.445312 C7.820312 9.627605 7.640626 9.718750 7.421875 9.718750 Z M17.062500 19.453125 C16.624998 19.453125 16.263022 19.289064 15.976562 18.960938 C15.690103 18.632811 15.546875 18.244794 15.546875 17.796875 C15.546875 17.338539 15.690103 16.947918 15.976562 16.625000 C16.263022 16.302082 16.624998 16.140625 17.062500 16.140625 C17.500002 16.140625 17.861978 16.302082 18.148438 16.625000 C18.434897 16.947918 18.578125 17.338539 18.578125 17.796875 C18.578125 18.244794 18.434897 18.632811 18.148438 18.960938 C17.861978 19.289064 17.500002 19.453125 17.062500 19.453125 Z M2.453125 12.359375 L2.203125 11.140625 C3.734383 10.838540 5.372387 10.557293 7.117188 10.296875 C8.861988 10.036457 10.864572 9.906250 13.125000 9.906250 C15.385428 9.906250 17.388012 10.036457 19.132812 10.296875 C20.877613 10.557293 22.515617 10.838540 24.046875 11.140625 L23.796875 12.359375 C22.286451 12.057290 20.682300 11.781251 18.984375 11.531250 C17.286450 11.281249 15.333344 11.156250 13.125000 11.156250 C10.916656 11.156250 8.966154 11.281249 7.273438 11.531250 C5.580721 11.781251 3.973966 12.057290 2.453125 12.359375 Z M6.593750 6.140625 C6.729167 5.744790 6.835937 5.333335 6.914062 4.906250 C6.992188 4.479165 7.031250 4.031252 7.031250 3.562500 L7.781250 3.312500 C8.197919 4.239588 8.843746 4.895831 9.718750 5.281250 Z M2.953125 13.656250 C3.921880 13.447916 4.921870 13.268230 5.953125 13.117188 C6.984380 12.966145 8.091140 12.848959 9.273438 12.765625 C10.455735 12.682291 11.739576 12.640625 13.125000 12.640625 C14.520840 12.640625 15.807286 12.682291 16.984375 12.765625 C18.161464 12.848959 19.268224 12.966145 20.304688 13.117188 C21.341151 13.268230 22.338537 13.447916 23.296875 13.656250 C23.369792 13.447916 23.416667 13.289063 23.437500 13.179688 C23.458333 13.070312 23.468750 12.968750 23.468750 12.875000 C23.468750 12.302080 23.239586 11.895835 22.781250 11.656250 L23.859375 5.375000 L24.218750 5.765625 C23.687497 6.109377 23.187502 6.385416 22.718750 6.593750 C22.249998 6.802084 21.786461 6.953125 21.328125 7.046875 C20.869789 7.140625 20.385419 7.187500 19.875000 7.187500 C18.552077 7.187500 17.286464 6.919274 16.078125 6.382812 C14.869786 5.846351 13.885420 5.125005 13.125000 4.218750 C12.364580 5.125005 11.380214 5.846351 10.171875 6.382812 C8.963536 6.919274 7.697923 7.187500 6.375000 7.187500 C5.864581 7.187500 5.380211 7.140625 4.921875 7.046875 C4.463539 6.953125 4.002606 6.802084 3.539062 6.593750 C3.075519 6.385416 2.572919 6.109377 2.031250 5.765625 L2.390625 5.375000 L3.468750 11.656250 C3.010414 11.895835 2.781250 12.302080 2.781250 12.875000 C2.781250 12.968750 2.791667 13.070312 2.812500 13.179688 C2.833333 13.289063 2.880208 13.447916 2.953125 13.656250 Z M2.406250 15.546875 C1.989581 15.255207 1.669272 14.895835 1.445312 14.468750 C1.221353 14.041665 1.109375 13.572919 1.109375 13.062500 C1.109375 12.729165 1.156250 12.427085 1.250000 12.156250 C1.343750 11.885415 1.484374 11.661459 1.671875 11.484375 L0.468750 4.265625 L1.656250 3.515625 C2.427087 4.182295 3.192705 4.674478 3.953125 4.992188 C4.713545 5.309897 5.520829 5.468750 6.375000 5.468750 C7.270838 5.468750 8.132808 5.315106 8.960938 5.007812 C9.789067 4.700519 10.520830 4.281253 11.156250 3.750000 C11.791670 3.218747 12.255207 2.614587 12.546875 1.937500 L13.703125 1.937500 C14.005210 2.614587 14.471351 3.218747 15.101562 3.750000 C15.731774 4.281253 16.460933 4.700519 17.289062 5.007812 C18.117192 5.315106 18.979162 5.468750 19.875000 5.468750 C20.729171 5.468750 21.536455 5.309897 22.296875 4.992188 C23.057295 4.674478 23.822913 4.182295 24.593750 3.515625 L25.781250 4.265625 L24.578125 11.484375 C24.765626 11.661459 24.906250 11.885415 25.000000 12.156250 C25.093750 12.427085 25.140625 12.729165 25.140625 13.062500 C25.140625 13.572919 25.031251 14.041665 24.812500 14.468750 C24.593749 14.895835 24.270835 15.255207 23.843750 15.546875 C22.427076 15.192707 20.861988 14.906251 19.148438 14.687500 C17.434887 14.468749 15.427095 14.359375 13.125000 14.359375 C10.833322 14.359375 8.830738 14.468749 7.117188 14.687500 C5.403637 14.906251 3.833340 15.192707 2.406250 15.546875 Z M7.312500 4.250000 C6.947915 4.250000 6.635418 4.109376 6.375000 3.828125 C6.114582 3.546874 5.984375 3.213544 5.984375 2.828125 C5.984375 2.442706 6.114582 2.111981 6.375000 1.835938 C6.635418 1.559894 6.947915 1.421875 7.312500 1.421875 C7.677085 1.421875 7.992186 1.557290 8.257812 1.828125 C8.523439 2.098960 8.656250 2.432290 8.656250 2.828125 C8.656250 3.213544 8.526043 3.546874 8.265625 3.828125 C8.005207 4.109376 7.687502 4.250000 7.312500 4.250000 Z M13.125000 9.296875 C12.770832 9.296875 12.463543 9.138022 12.203125 8.820312 C11.942707 8.502603 11.812500 8.114586 11.812500 7.656250 C11.812500 7.197914 11.942707 6.809897 12.203125 6.492188 C12.463543 6.174478 12.770832 6.015625 13.125000 6.015625 C13.479168 6.015625 13.786457 6.174478 14.046875 6.492188 C14.307293 6.809897 14.437500 7.197914 14.437500 7.656250 C14.437500 8.114586 14.307293 8.502603 14.046875 8.820312 C13.786457 9.138022 13.479168 9.296875 13.125000 9.296875 Z M18.828125 9.718750 C18.609374 9.718750 18.429688 9.627605 18.289062 9.445312 C18.148437 9.263020 18.078125 9.041668 18.078125 8.781250 C18.078125 8.479165 18.171874 8.221355 18.359375 8.007812 C18.546876 7.794270 18.755207 7.687500 18.984375 7.687500 C19.203126 7.687500 19.382812 7.783853 19.523438 7.976562 C19.664063 8.169272 19.734375 8.385415 19.734375 8.625000 C19.734375 8.927085 19.643230 9.184895 19.460938 9.398438 C19.278645 9.611980 19.067710 9.718750 18.828125 9.718750 Z M13.125000 2.906250 C12.718748 2.906250 12.375001 2.765626 12.093750 2.484375 C11.812499 2.203124 11.671875 1.859377 11.671875 1.453125 C11.671875 1.046873 11.812499 0.703126 12.093750 0.421875 C12.375001 0.140624 12.718748 -0.000000 13.125000 -0.000000 C13.531252 -0.000000 13.874999 0.140624 14.156250 0.421875 C14.437501 0.703126 14.578125 1.046873 14.578125 1.453125 C14.578125 1.859377 14.437501 2.203124 14.156250 2.484375 C13.874999 2.765626 13.531252 2.906250 13.125000 2.906250 Z M19.656250 6.140625 L16.531250 5.281250 C17.406254 4.895831 18.052081 4.239588 18.468750 3.312500 L19.218750 3.562500 C19.218750 4.031252 19.257812 4.479165 19.335938 4.906250 C19.414063 5.333335 19.520833 5.744790 19.656250 6.140625 Z M24.578125 10.265625 C24.348957 10.265625 24.177084 10.161459 24.062500 9.953125 C23.947916 9.744791 23.890625 9.479168 23.890625 9.156250 C23.890625 8.697914 23.992186 8.291668 24.195312 7.937500 C24.398439 7.583332 24.640624 7.406250 24.921875 7.406250 C25.140626 7.406250 25.317708 7.520832 25.453125 7.750000 C25.588542 7.979168 25.656250 8.265623 25.656250 8.609375 C25.656250 9.057294 25.552084 9.445311 25.343750 9.773438 C25.135416 10.101564 24.880210 10.265625 24.578125 10.265625 Z M18.937500 4.250000 C18.562498 4.250000 18.244793 4.109376 17.984375 3.828125 C17.723957 3.546874 17.593750 3.213544 17.593750 2.828125 C17.593750 2.432290 17.726561 2.098960 17.992188 1.828125 C18.257814 1.557290 18.572915 1.421875 18.937500 1.421875 C19.302085 1.421875 19.614582 1.559894 19.875000 1.835938 C20.135418 2.111981 20.265625 2.442706 20.265625 2.828125 C20.265625 3.213544 20.135418 3.546874 19.875000 3.828125 C19.614582 4.109376 19.302085 4.250000 18.937500 4.250000 Z M24.796875 5.453125 C24.390623 5.453125 24.046876 5.312501 23.765625 5.031250 C23.484374 4.749999 23.343750 4.406252 23.343750 4.000000 C23.343750 3.593748 23.484374 3.250001 23.765625 2.968750 C24.046876 2.687499 24.390623 2.546875 24.796875 2.546875 C25.203127 2.546875 25.546874 2.687499 25.828125 2.968750 C26.109376 3.250001 26.250000 3.593748 26.250000 4.000000 C26.250000 4.406252 26.109376 4.749999 25.828125 5.031250 C25.546874 5.312501 25.203127 5.453125 24.796875 5.453125 Z M33.437500 27.343750" /></svg>