<svg version="1.1" xmlns="http://www.w3.org/2000/svg" style="fill:rgba(0,0,0,1.0)" width="256" height="256" viewBox="0 0 38.75 32.8125"><path fill="rgb(255, 255, 255)" d="M14.109375 32.812500 C13.578122 32.812500 13.177085 32.731772 12.906250 32.570312 C12.635415 32.408853 12.500000 32.151043 12.500000 31.796875 C12.500000 31.265622 12.807289 30.755211 13.421875 30.265625 C13.567709 30.140624 13.671875 29.684900 13.734375 28.898438 C13.796875 28.111975 13.828125 26.854175 13.828125 25.125000 C13.828125 24.062495 13.898437 23.117192 14.039062 22.289062 C14.179688 21.460933 14.335937 20.606775 14.507812 19.726562 C14.679688 18.846350 14.812500 17.796881 14.906250 16.578125 C12.697906 14.619782 11.117192 12.781259 10.164062 11.062500 C9.210933 9.343741 8.734375 7.619800 8.734375 5.890625 C8.734375 3.901032 9.302078 2.906250 10.437500 2.906250 C10.947919 2.906250 11.320311 3.151039 11.554688 3.640625 C11.789064 4.130211 11.906250 4.796871 11.906250 5.640625 C11.906250 6.713547 12.072915 7.729162 12.406250 8.687500 C12.739585 9.645838 13.197914 10.468747 13.781250 11.156250 C14.364586 11.843753 15.020830 12.317707 15.750000 12.578125 L16.125000 12.546875 C15.614581 12.182290 15.203127 11.710940 14.890625 11.132812 C14.578123 10.554685 14.421875 9.927087 14.421875 9.250000 C14.421875 8.510413 14.601561 7.835941 14.960938 7.226562 C15.320314 6.617184 15.804684 6.132814 16.414062 5.773438 C17.023441 5.414061 17.697913 5.234375 18.437500 5.234375 C19.177087 5.234375 19.851559 5.414061 20.460938 5.773438 C21.070316 6.132814 21.554686 6.617184 21.914062 7.226562 C22.273439 7.835941 22.453125 8.510413 22.453125 9.250000 C22.453125 9.927087 22.299481 10.554685 21.992188 11.132812 C21.684894 11.710940 21.270836 12.182290 20.750000 12.546875 L21.125000 12.578125 C21.854170 12.317707 22.507810 11.843753 23.085938 11.156250 C23.664065 10.468747 24.122394 9.645838 24.460938 8.687500 C24.799481 7.729162 24.968750 6.713547 24.968750 5.640625 C24.968750 4.796871 25.085936 4.130211 25.320312 3.640625 C25.554689 3.151039 25.927081 2.906250 26.437500 2.906250 C27.572922 2.906250 28.140625 3.901032 28.140625 5.890625 C28.140625 7.619800 27.664067 9.343741 26.710938 11.062500 C25.757808 12.781259 24.177094 14.619782 21.968750 16.578125 C22.072917 17.796881 22.208332 18.846350 22.375000 19.726562 C22.541668 20.606775 22.695312 21.460933 22.835938 22.289062 C22.976563 23.117192 23.046875 24.062495 23.046875 25.125000 C23.046875 26.864592 23.078125 28.124996 23.140625 28.906250 C23.203125 29.687504 23.307291 30.140624 23.453125 30.265625 C24.067711 30.755211 24.375000 31.265622 24.375000 31.796875 C24.375000 32.151043 24.239585 32.408853 23.968750 32.570312 C23.697915 32.731772 23.296878 32.812500 22.765625 32.812500 C21.328118 32.812500 20.609375 32.302088 20.609375 31.281250 C20.609375 30.885415 20.632812 30.510418 20.679688 30.156250 C20.726563 29.802082 20.750000 29.411460 20.750000 28.984375 C20.750000 28.515623 20.674480 28.007815 20.523438 27.460938 C20.372395 26.914060 20.179689 26.401044 19.945312 25.921875 C19.710936 25.442706 19.460939 25.049481 19.195312 24.742188 C18.929686 24.434894 18.677085 24.281250 18.437500 24.281250 C18.208332 24.281250 17.958335 24.434894 17.687500 24.742188 C17.416665 25.049481 17.164064 25.442706 16.929688 25.921875 C16.695311 26.401044 16.502605 26.914060 16.351562 27.460938 C16.200520 28.007815 16.125000 28.515623 16.125000 28.984375 C16.125000 29.411460 16.148437 29.802082 16.195312 30.156250 C16.242188 30.510418 16.265625 30.885415 16.265625 31.281250 C16.265625 32.302088 15.546882 32.812500 14.109375 32.812500 Z M2.359375 7.156250 C2.015623 7.156250 1.734376 7.041668 1.515625 6.812500 C1.296874 6.583332 1.187500 6.296877 1.187500 5.953125 L1.187500 2.718750 C1.187500 2.374998 1.299478 2.091147 1.523438 1.867188 C1.747397 1.643228 2.026040 1.531250 2.359375 1.531250 C2.692710 1.531250 2.971353 1.645832 3.195312 1.875000 C3.419272 2.104168 3.531250 2.390623 3.531250 2.734375 L3.531250 5.968750 C3.531250 6.312502 3.419272 6.596353 3.195312 6.820312 C2.971353 7.044272 2.692710 7.156250 2.359375 7.156250 Z M5.718750 8.687500 C5.270831 8.687500 4.898439 8.536460 4.601562 8.234375 C4.304686 7.932290 4.156250 7.552086 4.156250 7.093750 L4.156250 1.593750 C4.156250 1.135414 4.304686 0.755210 4.601562 0.453125 C4.898439 0.151040 5.270831 -0.000000 5.718750 -0.000000 C6.177086 -0.000000 6.552082 0.151040 6.843750 0.453125 C7.135418 0.755210 7.281250 1.135414 7.281250 1.593750 L7.281250 7.093750 C7.281250 7.552086 7.135418 7.932290 6.843750 8.234375 C6.552082 8.536460 6.177086 8.687500 5.718750 8.687500 Z M0.000000 4.812500 L0.000000 3.875000 L36.875000 3.875000 L36.875000 4.812500 Z M31.156250 8.687500 C30.708331 8.687500 30.335939 8.536460 30.039062 8.234375 C29.742186 7.932290 29.593750 7.552086 29.593750 7.093750 L29.593750 1.593750 C29.593750 1.135414 29.742186 0.755210 30.039062 0.453125 C30.335939 0.151040 30.708331 -0.000000 31.156250 -0.000000 C31.614586 -0.000000 31.989582 0.151040 32.281250 0.453125 C32.572918 0.755210 32.718750 1.135414 32.718750 1.593750 L32.718750 7.093750 C32.718750 7.552086 32.572918 7.932290 32.281250 8.234375 C31.989582 8.536460 31.614586 8.687500 31.156250 8.687500 Z M34.515625 7.156250 C34.182290 7.156250 33.903647 7.044272 33.679688 6.820312 C33.455728 6.596353 33.343750 6.312502 33.343750 5.968750 L33.343750 2.734375 C33.343750 2.390623 33.455728 2.104168 33.679688 1.875000 C33.903647 1.645832 34.182290 1.531250 34.515625 1.531250 C34.848960 1.531250 35.127603 1.643228 35.351562 1.867188 C35.575522 2.091147 35.687500 2.374998 35.687500 2.718750 L35.687500 5.953125 C35.687500 6.296877 35.578126 6.583332 35.359375 6.812500 C35.140624 7.041668 34.859377 7.156250 34.515625 7.156250 Z M38.750000 27.343750" /></svg>