<svg version="1.1" xmlns="http://www.w3.org/2000/svg" style="fill:rgba(0,0,0,1.0)" width="256" height="256" viewBox="0 0 32.96875 32.8125"><path fill="rgb(255, 255, 255)" d="M9.078125 32.812500 C8.463539 32.812500 7.979168 32.643231 7.625000 32.304688 C7.270832 31.966144 7.093750 31.468753 7.093750 30.812500 C7.093750 30.156247 7.049480 29.442712 6.960938 28.671875 C6.872395 27.901038 6.760417 27.104171 6.625000 26.281250 C6.468749 25.291662 6.328126 24.299484 6.203125 23.304688 C6.078124 22.309891 6.015625 21.359380 6.015625 20.453125 C6.015625 19.723955 6.039062 19.083336 6.085938 18.531250 C6.132813 17.979164 6.218749 17.463544 6.343750 16.984375 C6.531251 16.265621 6.671875 15.677086 6.765625 15.218750 C6.859375 14.760414 6.906250 14.354168 6.906250 14.000000 C6.906250 13.416664 6.684898 12.958335 6.242188 12.625000 C5.799477 12.291665 5.067713 12.125000 4.046875 12.125000 C2.817702 12.125000 1.835941 11.742191 1.101562 10.976562 C0.367184 10.210934 0.000000 9.067716 0.000000 7.546875 C0.000000 6.484370 0.187498 5.593754 0.562500 4.875000 C0.937502 4.156246 1.489580 3.796875 2.218750 3.796875 C2.708336 3.796875 3.130207 3.958332 3.484375 4.281250 C3.838543 4.604168 4.015625 5.015622 4.015625 5.515625 C4.015625 5.953127 3.903647 6.328123 3.679688 6.640625 C3.455728 6.953127 3.343750 7.281248 3.343750 7.625000 C3.343750 7.927085 3.471353 8.210936 3.726562 8.476562 C3.981772 8.742189 4.380206 8.875000 4.921875 8.875000 C5.348960 8.875000 5.770831 8.817709 6.187500 8.703125 C6.604169 8.588541 7.070310 8.471355 7.585938 8.351562 C8.101565 8.231770 8.718746 8.171875 9.437500 8.171875 C9.062498 7.723956 8.768230 7.226565 8.554688 6.679688 C8.341145 6.132810 8.234375 5.546878 8.234375 4.921875 C8.234375 4.005204 8.455727 3.177087 8.898438 2.437500 C9.341148 1.697913 9.934892 1.106773 10.679688 0.664062 C11.424483 0.221352 12.249995 -0.000000 13.156250 -0.000000 C14.072921 -0.000000 14.901038 0.221352 15.640625 0.664062 C16.380212 1.106773 16.971352 1.697913 17.414062 2.437500 C17.856773 3.177087 18.078125 4.005204 18.078125 4.921875 C18.078125 5.994797 17.718754 6.953121 17.000000 7.796875 C16.281246 8.640629 15.442713 9.229165 14.484375 9.562500 C14.932294 9.750001 15.294269 10.067706 15.570312 10.515625 C15.846356 10.963544 15.984375 11.536455 15.984375 12.234375 C15.984375 12.619794 15.953125 12.981769 15.890625 13.320312 C15.828125 13.658856 15.755209 14.020831 15.671875 14.406250 C15.546874 14.958336 15.421876 15.611975 15.296875 16.367188 C15.171874 17.122400 15.109375 18.104161 15.109375 19.312500 C15.109375 21.250010 15.195312 22.773432 15.367188 23.882812 C15.539063 24.992193 15.835935 25.776039 16.257812 26.234375 C16.679690 26.692711 17.255205 26.921875 17.984375 26.921875 C19.515633 26.921875 20.281250 27.765617 20.281250 29.453125 C20.281250 30.223962 20.106773 30.903643 19.757812 31.492188 C19.408852 32.080732 18.979169 32.375000 18.468750 32.375000 C18.177082 32.375000 17.942709 32.278647 17.765625 32.085938 C17.588541 31.893228 17.434896 31.661460 17.304688 31.390625 C17.174479 31.119790 17.028647 30.867189 16.867188 30.632812 C16.705728 30.398436 16.484376 30.244792 16.203125 30.171875 C14.953119 29.817707 14.015628 29.320316 13.390625 28.679688 C12.765622 28.039059 12.335939 27.372399 12.101562 26.679688 C11.867186 25.986976 11.708334 25.385419 11.625000 24.875000 C11.572916 24.541665 11.507813 24.276043 11.429688 24.078125 C11.351562 23.880207 11.239584 23.781250 11.093750 23.781250 C10.947916 23.781250 10.835938 23.937498 10.757812 24.250000 C10.679687 24.562502 10.640625 24.979164 10.640625 25.500000 C10.640625 26.395838 10.736978 27.294266 10.929688 28.195312 C11.122397 29.096359 11.218750 29.916663 11.218750 30.656250 C11.218750 31.291670 11.020835 31.809894 10.625000 32.210938 C10.229165 32.611981 9.713545 32.812500 9.078125 32.812500 Z M5.031250 7.406250 L1.812500 6.140625 L2.125000 5.265625 L5.031250 6.453125 Z M5.937500 9.343750 C5.531248 8.999998 5.234376 8.593752 5.046875 8.125000 C4.859374 7.656248 4.765625 7.119795 4.765625 6.515625 C4.765625 6.088540 4.919269 5.721356 5.226562 5.414062 C5.533856 5.106769 5.906248 4.953125 6.343750 4.953125 C6.781252 4.953125 7.151040 5.106769 7.453125 5.414062 C7.755210 5.721356 7.906250 6.088540 7.906250 6.515625 C7.906250 6.963544 7.934896 7.320311 7.992188 7.585938 C8.049479 7.851564 8.161458 8.197915 8.328125 8.625000 Z M23.875000 14.328125 L14.234375 10.750000 L14.234375 9.765625 L24.187500 13.453125 Z M24.000000 17.843750 C23.614581 17.843750 23.299480 17.640627 23.054688 17.234375 C22.809895 16.828123 22.687500 16.291670 22.687500 15.625000 C22.687500 14.958330 22.809895 14.424481 23.054688 14.023438 C23.299480 13.622394 23.614581 13.421875 24.000000 13.421875 C24.395835 13.421875 24.713540 13.622394 24.953125 14.023438 C25.192710 14.424481 25.312500 14.958330 25.312500 15.625000 C25.312500 16.291670 25.192710 16.828123 24.953125 17.234375 C24.713540 17.640627 24.395835 17.843750 24.000000 17.843750 Z M32.968750 27.343750" /></svg>