<svg version="1.1" xmlns="http://www.w3.org/2000/svg" style="fill:rgba(0,0,0,1.0)" width="256" height="256" viewBox="0 0 29.578125 32.8125"><path fill="rgb(255, 255, 255)" d="M15.234375 32.812500 C14.796873 32.812500 14.416668 32.656252 14.093750 32.343750 C13.770832 32.031248 13.369794 31.375005 12.890625 30.375000 C12.307289 29.135410 11.770836 28.101567 11.281250 27.273438 C10.791664 26.445308 10.351564 25.820315 9.960938 25.398438 C9.570311 24.976560 9.229168 24.765625 8.937500 24.765625 C8.635415 24.765625 8.234378 24.958331 7.734375 25.343750 C7.234372 25.729169 6.729169 26.200518 6.218750 26.757812 C5.708331 27.315107 5.278648 27.856768 4.929688 28.382812 C4.580727 28.908857 4.406250 29.317707 4.406250 29.609375 C4.406250 29.828126 4.442708 30.049478 4.515625 30.273438 C4.588542 30.497397 4.625000 30.744790 4.625000 31.015625 C4.625000 31.526044 4.453127 31.953123 4.109375 32.296875 C3.765623 32.640627 3.333336 32.812500 2.812500 32.812500 C2.374998 32.812500 1.947919 32.645835 1.531250 32.312500 C1.114581 31.979165 0.768231 31.554690 0.492188 31.039062 C0.216144 30.523435 0.078125 30.005211 0.078125 29.484375 C0.078125 29.078123 0.195311 28.658856 0.429688 28.226562 C0.664064 27.794269 1.052081 27.265628 1.593750 26.640625 C2.229170 25.921871 2.799477 25.195316 3.304688 24.460938 C3.809898 23.726559 4.255206 22.968754 4.640625 22.187500 C4.567708 21.874998 4.502604 21.554689 4.445312 21.226562 C4.388021 20.898436 4.359375 20.572918 4.359375 20.250000 C4.359375 19.562497 4.447916 18.989586 4.625000 18.531250 C4.802084 18.072914 4.890625 17.723960 4.890625 17.484375 C4.890625 17.359374 4.859375 17.255209 4.796875 17.171875 C4.734375 17.088541 4.645834 17.046875 4.531250 17.046875 C4.239582 17.046875 3.997397 17.281248 3.804688 17.750000 C3.611978 18.218752 3.515625 18.854163 3.515625 19.656250 C3.515625 20.583338 3.372397 21.260415 3.085938 21.687500 C2.799478 22.114585 2.375003 22.328125 1.812500 22.328125 C1.218747 22.328125 0.768231 22.114585 0.460938 21.687500 C0.153644 21.260415 0.000000 20.677087 0.000000 19.937500 C0.000000 18.843745 0.200519 17.859379 0.601562 16.984375 C1.002606 16.109371 1.497393 15.330733 2.085938 14.648438 C2.674482 13.966142 3.265622 13.356774 3.859375 12.820312 C4.453128 12.283851 4.950519 11.804690 5.351562 11.382812 C5.752606 10.960935 5.953125 10.572918 5.953125 10.218750 C5.161454 9.729164 4.520836 9.070317 4.031250 8.242188 C3.541664 7.414058 3.296875 6.494797 3.296875 5.484375 C3.296875 4.473953 3.544268 3.554692 4.039062 2.726562 C4.533857 1.898433 5.197912 1.236982 6.031250 0.742188 C6.864588 0.247393 7.786453 -0.000000 8.796875 -0.000000 C9.817713 -0.000000 10.744788 0.247393 11.578125 0.742188 C12.411462 1.236982 13.075518 1.898433 13.570312 2.726562 C14.065107 3.554692 14.312500 4.473953 14.312500 5.484375 C14.312500 6.619797 14.002607 7.643225 13.382812 8.554688 C12.763018 9.466150 11.963547 10.135415 10.984375 10.562500 C10.984375 10.729167 11.140623 11.083331 11.453125 11.625000 C11.765627 12.166669 12.153644 12.757809 12.617188 13.398438 C13.080731 14.039066 13.531248 14.604164 13.968750 15.093750 L14.125000 15.265625 C14.708336 15.901045 15.242185 16.432290 15.726562 16.859375 C16.210940 17.286460 16.598957 17.682290 16.890625 18.046875 C17.182293 18.411460 17.328125 18.817706 17.328125 19.265625 C17.328125 19.713544 17.179689 20.085936 16.882812 20.382812 C16.585936 20.679689 16.187502 20.828125 15.687500 20.828125 C15.124997 20.828125 14.656252 20.653648 14.281250 20.304688 C13.906248 19.955727 13.588543 19.554690 13.328125 19.101562 C13.067707 18.648435 12.835939 18.247398 12.632812 17.898438 C12.429686 17.549477 12.213543 17.375000 11.984375 17.375000 C11.880208 17.375000 11.809896 17.429687 11.773438 17.539062 C11.736979 17.648438 11.718750 17.807291 11.718750 18.015625 C11.718750 18.432294 11.815103 19.046871 12.007812 19.859375 C12.200522 20.671879 12.460936 21.557287 12.789062 22.515625 C13.117189 23.473963 13.484373 24.393225 13.890625 25.273438 C14.296877 26.153650 14.718748 26.877601 15.156250 27.445312 C15.593752 28.013024 16.020831 28.296875 16.437500 28.296875 C17.041670 28.296875 17.541665 28.427082 17.937500 28.687500 C18.333335 28.947918 18.531250 29.322914 18.531250 29.812500 C18.531250 30.291669 18.369793 30.763019 18.046875 31.226562 C17.723957 31.690106 17.312502 32.070311 16.812500 32.367188 C16.312498 32.664064 15.786461 32.812500 15.234375 32.812500 Z M29.578125 27.343750" /></svg>