<svg version="1.1" xmlns="http://www.w3.org/2000/svg" style="fill:rgba(0,0,0,1.0)" width="256" height="256" viewBox="0 0 32.46066837006446 32.8125"><path fill="rgb(255, 255, 255)" d="M8.718750 24.468750 C8.239581 24.468750 7.843752 24.309897 7.531250 23.992188 C7.218748 23.674478 7.062500 23.276044 7.062500 22.796875 L7.062500 22.250000 C7.062500 21.791664 7.221353 21.398439 7.539062 21.070312 C7.856772 20.742186 8.244789 20.578125 8.703125 20.578125 L16.734375 20.546875 C16.692708 20.338541 16.661458 20.093751 16.640625 19.812500 C16.619792 19.531249 16.609375 19.229168 16.609375 18.906250 C16.609375 18.072912 16.710936 17.093756 16.914062 15.968750 C17.117189 14.843744 17.380207 13.697922 17.703125 12.531250 C18.026043 11.364578 18.359373 10.302088 18.703125 9.343750 C18.776042 9.124999 18.869791 8.916668 18.984375 8.718750 C18.723957 8.406248 18.635416 8.031252 18.718750 7.593750 L19.562500 3.281250 C19.645834 2.885415 19.833332 2.583334 20.125000 2.375000 C20.416668 2.166666 20.749998 2.093750 21.125000 2.156250 L22.578125 2.390625 C22.973960 2.453125 23.281249 2.640623 23.500000 2.953125 C23.718751 3.265627 23.786459 3.609373 23.703125 3.984375 L22.843750 8.328125 C22.781250 8.661460 22.630210 8.932291 22.390625 9.140625 C22.421875 9.276042 22.437500 9.432291 22.437500 9.609375 C22.437500 9.942710 22.401042 10.510413 22.328125 11.312500 C22.255208 12.114587 22.156251 13.026037 22.031250 14.046875 C21.906249 15.067713 21.776042 16.093745 21.640625 17.125000 C21.505208 18.156255 21.372396 19.080725 21.242188 19.898438 C21.111979 20.716150 21.005209 21.312498 20.921875 21.687500 C20.942708 21.854168 20.953125 22.033853 20.953125 22.226562 C20.953125 22.419272 20.953125 22.598957 20.953125 22.765625 C20.953125 23.203127 20.817710 23.591144 20.546875 23.929688 C20.276040 24.268231 19.927085 24.437500 19.500000 24.437500 Z M6.093750 29.250000 L0.562500 27.437500 C0.364582 27.375000 0.221355 27.252605 0.132812 27.070312 C0.044270 26.888020 0.031250 26.697918 0.093750 26.500000 C0.156250 26.302082 0.276041 26.161459 0.453125 26.078125 C0.630209 25.994791 0.817707 25.984375 1.015625 26.046875 L5.828125 27.640625 L6.734375 26.828125 L7.343750 28.156250 Z M8.046875 32.796875 C7.526039 32.796875 7.080731 32.611981 6.710938 32.242188 C6.341144 31.872394 6.156250 31.427086 6.156250 30.906250 C6.156250 30.385414 6.341144 29.940106 6.710938 29.570312 C7.080731 29.200519 7.526039 29.015625 8.046875 29.015625 C8.567711 29.015625 9.013019 29.200519 9.382812 29.570312 C9.752606 29.940106 9.937500 30.385414 9.937500 30.906250 C9.937500 31.427086 9.752606 31.872394 9.382812 32.242188 C9.013019 32.611981 8.567711 32.796875 8.046875 32.796875 Z M8.046875 31.671875 C8.265626 31.671875 8.447916 31.596355 8.593750 31.445312 C8.739584 31.294270 8.812500 31.114584 8.812500 30.906250 C8.812500 30.687499 8.739584 30.502605 8.593750 30.351562 C8.447916 30.200520 8.265626 30.125000 8.046875 30.125000 C7.828124 30.125000 7.643230 30.200520 7.492188 30.351562 C7.341145 30.502605 7.265625 30.687499 7.265625 30.906250 C7.265625 31.114584 7.341145 31.294270 7.492188 31.445312 C7.643230 31.596355 7.828124 31.671875 8.046875 31.671875 Z M8.046875 31.125000 C7.921874 31.125000 7.809896 31.083334 7.710938 31.000000 C7.611979 30.916666 7.562500 30.812501 7.562500 30.687500 L7.562500 27.703125 L8.531250 27.703125 L8.531250 30.687500 C8.531250 30.812501 8.479167 30.916666 8.375000 31.000000 C8.270833 31.083334 8.161459 31.125000 8.046875 31.125000 Z M8.062500 28.625000 C7.395830 28.625000 6.885418 28.453127 6.531250 28.109375 C6.177082 27.765623 6.000000 27.364586 6.000000 26.906250 C6.000000 26.604165 6.083332 26.296877 6.250000 25.984375 C6.416668 25.671873 6.677082 25.385418 7.031250 25.125000 L9.453125 23.359375 L9.718750 24.890625 L7.828125 26.281250 C7.557290 26.479168 7.421875 26.671874 7.421875 26.859375 C7.421875 26.963542 7.479166 27.049479 7.593750 27.117188 C7.708334 27.184896 7.864582 27.218750 8.062500 27.218750 L10.140625 27.218750 L10.375000 28.625000 Z M10.281250 29.171875 C9.822914 29.171875 9.557292 28.932294 9.484375 28.453125 L8.781250 23.187500 L10.390625 23.187500 L11.046875 27.937500 L10.281250 27.734375 L12.843750 27.734375 L12.296875 29.171875 Z M14.609375 32.812500 C13.953122 32.812500 13.354169 32.651043 12.812500 32.328125 C12.270831 32.005207 11.838543 31.575524 11.515625 31.039062 C11.192707 30.502601 11.031250 29.906253 11.031250 29.250000 C11.031250 28.593747 11.192707 27.994794 11.515625 27.453125 C11.838543 26.911456 12.270831 26.479168 12.812500 26.156250 C13.354169 25.833332 13.953122 25.671875 14.609375 25.671875 C15.276045 25.671875 15.877601 25.833332 16.414062 26.156250 C16.950524 26.479168 17.380207 26.911456 17.703125 27.453125 C18.026043 27.994794 18.187500 28.593747 18.187500 29.250000 C18.187500 30.229172 17.838545 31.067705 17.140625 31.765625 C16.442705 32.463545 15.598963 32.812500 14.609375 32.812500 Z M14.609375 31.078125 C15.119794 31.078125 15.552082 30.901043 15.906250 30.546875 C16.260418 30.192707 16.437500 29.760419 16.437500 29.250000 C16.437500 28.739581 16.260418 28.307293 15.906250 27.953125 C15.552082 27.598957 15.119794 27.421875 14.609375 27.421875 C14.098956 27.421875 13.666668 27.598957 13.312500 27.953125 C12.958332 28.307293 12.781250 28.739581 12.781250 29.250000 C12.781250 29.760419 12.958332 30.192707 13.312500 30.546875 C13.666668 30.901043 14.098956 31.078125 14.609375 31.078125 Z M14.609375 29.890625 C14.421874 29.890625 14.265626 29.828126 14.140625 29.703125 C14.015624 29.578124 13.953125 29.427084 13.953125 29.250000 C13.953125 29.062499 14.015624 28.906251 14.140625 28.781250 C14.265626 28.656249 14.421874 28.593750 14.609375 28.593750 C14.796876 28.593750 14.953124 28.656249 15.078125 28.781250 C15.203126 28.906251 15.265625 29.062499 15.265625 29.250000 C15.265625 29.427084 15.203126 29.578124 15.078125 29.703125 C14.953124 29.828126 14.796876 29.890625 14.609375 29.890625 Z M4.109375 27.640625 L1.953125 27.000000 C1.567706 26.885416 1.286459 26.700522 1.109375 26.445312 C0.932291 26.190103 0.843750 25.984376 0.843750 25.828125 C0.843750 25.453123 1.028644 25.145835 1.398438 24.906250 C1.768231 24.666665 2.249997 24.546875 2.843750 24.546875 C3.020834 24.546875 3.208332 24.559896 3.406250 24.585938 C3.604168 24.611979 3.796874 24.651041 3.984375 24.703125 C4.494794 22.401030 5.002602 20.625006 5.507812 19.375000 C6.013023 18.124994 6.614580 17.286460 7.312500 16.859375 L7.765625 17.796875 L9.812500 17.796875 L10.859375 16.859375 L12.781250 16.765625 L12.781250 20.484375 L14.578125 20.484375 L14.703125 16.843750 L17.515625 16.656250 L17.140625 21.171875 L7.859375 21.218750 L7.671875 22.296875 L5.343750 26.843750 C5.208333 27.104168 5.041668 27.302083 4.843750 27.437500 C4.645832 27.572917 4.401043 27.640625 4.109375 27.640625 Z M22.453125 32.796875 C21.942706 32.796875 21.500002 32.611981 21.125000 32.242188 C20.749998 31.872394 20.562500 31.427086 20.562500 30.906250 C20.562500 30.385414 20.749998 29.940106 21.125000 29.570312 C21.500002 29.200519 21.942706 29.015625 22.453125 29.015625 C22.984378 29.015625 23.434894 29.200519 23.804688 29.570312 C24.174481 29.940106 24.359375 30.385414 24.359375 30.906250 C24.359375 31.427086 24.171877 31.872394 23.796875 32.242188 C23.421873 32.611981 22.973961 32.796875 22.453125 32.796875 Z M22.453125 31.671875 C22.671876 31.671875 22.856770 31.596355 23.007812 31.445312 C23.158855 31.294270 23.234375 31.114584 23.234375 30.906250 C23.234375 30.687499 23.158855 30.502605 23.007812 30.351562 C22.856770 30.200520 22.671876 30.125000 22.453125 30.125000 C22.244791 30.125000 22.065105 30.200520 21.914062 30.351562 C21.763020 30.502605 21.687500 30.687499 21.687500 30.906250 C21.687500 31.114584 21.763020 31.294270 21.914062 31.445312 C22.065105 31.596355 22.244791 31.671875 22.453125 31.671875 Z M16.953125 29.156250 L16.171875 27.718750 L18.234375 27.718750 L17.515625 27.921875 L18.078125 23.515625 L19.687500 23.515625 L19.093750 28.437500 C19.072917 28.635418 18.979168 28.804687 18.812500 28.945312 C18.645832 29.085938 18.453126 29.156250 18.234375 29.156250 Z M18.531250 28.171875 L18.531250 26.562500 L22.531250 26.562500 L22.531250 28.171875 Z M22.453125 31.125000 C22.338541 31.125000 22.231771 31.083334 22.132812 31.000000 C22.033854 30.916666 21.984375 30.812501 21.984375 30.687500 L21.984375 26.296875 C21.984375 26.098957 22.093749 26.000000 22.312500 26.000000 L22.609375 26.000000 C22.828126 26.000000 22.937500 26.098957 22.937500 26.296875 L22.937500 30.687500 C22.937500 30.812501 22.888021 30.916666 22.789062 31.000000 C22.690104 31.083334 22.578126 31.125000 22.453125 31.125000 Z M12.671875 21.312500 C12.390624 20.593746 12.250000 19.812504 12.250000 18.968750 C12.250000 18.427081 12.312499 17.875003 12.437500 17.312500 L11.062500 17.312500 L9.890625 18.218750 L7.671875 18.218750 L5.531250 15.421875 C5.343749 15.161457 5.250000 14.916668 5.250000 14.687500 C5.250000 14.479166 5.330728 14.294272 5.492188 14.132812 C5.653647 13.971353 5.848957 13.890625 6.078125 13.890625 C6.286459 13.890625 6.489582 13.953124 6.687500 14.078125 L7.546875 14.625000 C7.505208 14.510416 7.468750 14.390626 7.437500 14.265625 C7.406250 14.140624 7.390625 13.994792 7.390625 13.828125 C7.390625 13.463540 7.523436 13.151043 7.789062 12.890625 C8.054689 12.630207 8.374998 12.500000 8.750000 12.500000 C9.114585 12.500000 9.429686 12.630207 9.695312 12.890625 C9.960939 13.151043 10.093750 13.463540 10.093750 13.828125 C10.093750 13.932292 10.085938 14.026041 10.070312 14.109375 C10.054687 14.192709 10.036458 14.270833 10.015625 14.343750 L10.203125 14.187500 L17.328125 14.187500 L17.281250 15.125000 L10.546875 15.125000 L9.578125 15.937500 L9.031250 15.937500 L9.031250 15.078125 C9.031250 14.807290 9.057291 14.591147 9.109375 14.429688 C9.161459 14.268228 9.187500 14.062501 9.187500 13.812500 C9.187500 13.697916 9.143230 13.601563 9.054688 13.523438 C8.966145 13.445312 8.864584 13.406250 8.750000 13.406250 C8.458332 13.406250 8.312500 13.541665 8.312500 13.812500 C8.312500 14.062501 8.338541 14.268228 8.390625 14.429688 C8.442709 14.591147 8.468750 14.807290 8.468750 15.078125 L8.468750 15.937500 L7.859375 15.937500 L6.593750 14.921875 C6.489583 14.838541 6.414063 14.812500 6.367188 14.843750 C6.320312 14.875000 6.333333 14.937500 6.406250 15.031250 L8.078125 17.281250 L9.578125 17.281250 L10.750000 16.375000 L13.500000 16.375000 C13.354166 16.854169 13.239584 17.307290 13.156250 17.734375 C13.072916 18.161460 13.031250 18.572915 13.031250 18.968750 C13.031250 19.427086 13.088541 19.895831 13.203125 20.375000 L14.375000 20.375000 C14.239583 19.937498 14.171875 19.468752 14.171875 18.968750 C14.171875 18.208330 14.343748 17.343755 14.687500 16.375000 L17.218750 16.375000 L17.171875 17.312500 L15.078125 17.312500 C14.890624 17.916670 14.796875 18.468748 14.796875 18.968750 C14.796875 19.760421 15.036456 20.541663 15.515625 21.312500 Z M9.015625 23.062500 L19.062500 23.031250 C19.145834 23.031250 19.218750 23.000000 19.281250 22.937500 C19.343750 22.875000 19.375000 22.802084 19.375000 22.718750 L19.375000 21.421875 C19.447917 21.161457 19.546874 20.643233 19.671875 19.867188 C19.796876 19.091142 19.927083 18.195318 20.062500 17.179688 C20.197917 16.164057 20.328124 15.148443 20.453125 14.132812 C20.578126 13.117182 20.679687 12.223962 20.757812 11.453125 C20.835938 10.682288 20.875000 10.166668 20.875000 9.906250 C20.875000 9.708332 20.825521 9.570313 20.726562 9.492188 C20.627604 9.414062 20.520834 9.375000 20.406250 9.375000 C20.166665 9.375000 19.984376 9.541665 19.859375 9.875000 C19.442706 11.010422 19.072918 12.151036 18.750000 13.296875 C18.427082 14.442714 18.171876 15.502599 17.984375 16.476562 C17.796874 17.450526 17.703125 18.260413 17.703125 18.906250 C17.703125 19.385419 17.710937 19.781248 17.726562 20.093750 C17.742188 20.406252 17.802083 20.906247 17.906250 21.593750 L9.015625 21.593750 C8.651040 21.593750 8.468750 21.713540 8.468750 21.953125 L8.468750 22.703125 C8.468750 22.942710 8.651040 23.062500 9.015625 23.062500 Z M11.750000 14.843750 C12.062502 13.645827 12.510414 12.440110 13.093750 11.226562 C13.677086 10.013015 14.411454 8.932296 15.296875 7.984375 C14.515621 7.692707 13.875002 7.197920 13.375000 6.500000 C12.874998 5.802080 12.625000 5.010421 12.625000 4.125000 C12.625000 3.364580 12.809894 2.671878 13.179688 2.046875 C13.549481 1.421872 14.046872 0.924481 14.671875 0.554688 C15.296878 0.184894 15.989580 -0.000000 16.750000 -0.000000 C17.645838 -0.000000 18.442705 0.252602 19.140625 0.757812 C19.838545 1.263023 20.333332 1.911454 20.625000 2.703125 L19.203125 7.437500 C19.057291 7.552084 18.895834 7.661458 18.718750 7.765625 C18.541666 7.869792 18.375001 7.942708 18.218750 7.984375 C18.312500 8.119792 18.377604 8.296874 18.414062 8.515625 C18.450521 8.734376 18.468750 8.979165 18.468750 9.250000 C18.468750 9.604168 18.447917 9.960936 18.406250 10.320312 C18.364583 10.679689 18.322917 10.979165 18.281250 11.218750 L17.718750 14.812500 Z M20.953125 8.109375 C21.036459 8.119792 21.117187 8.101563 21.195312 8.054688 C21.273438 8.007812 21.317708 7.942709 21.328125 7.859375 L22.078125 4.218750 C22.098958 4.125000 22.083334 4.041667 22.031250 3.968750 C21.979166 3.895833 21.906250 3.854167 21.812500 3.843750 L21.359375 3.765625 C21.276041 3.744792 21.200521 3.757812 21.132812 3.804688 C21.065104 3.851563 21.020833 3.921875 21.000000 4.015625 L20.265625 7.656250 C20.255208 7.739584 20.273437 7.817708 20.320312 7.890625 C20.367188 7.963542 20.432291 8.010417 20.515625 8.031250 Z M6.296875 12.718750 C6.296875 12.385415 6.450519 12.044273 6.757812 11.695312 C7.065106 11.346352 7.614579 11.171875 8.406250 11.171875 C8.895836 11.171875 9.388018 11.216145 9.882812 11.304688 C10.377607 11.393230 11.083329 11.348959 12.000000 11.171875 C12.604170 11.057291 13.231768 10.867189 13.882812 10.601562 C14.533857 10.335936 15.286454 9.796879 16.140625 8.984375 L15.781250 12.593750 C14.895829 12.968752 14.143232 13.221354 13.523438 13.351562 C12.903643 13.481771 12.177087 13.546875 11.343750 13.546875 C10.989582 13.546875 10.572919 13.505209 10.093750 13.421875 C9.614581 13.338541 9.223960 13.296875 8.921875 13.296875 C8.473956 13.296875 8.145834 13.361979 7.937500 13.492188 C7.729166 13.622396 7.505210 13.687500 7.265625 13.687500 C7.005207 13.687500 6.778647 13.583334 6.585938 13.375000 C6.393228 13.166666 6.296875 12.947918 6.296875 12.718750 Z M32.515625 27.343750" /></svg>