<svg version="1.1" xmlns="http://www.w3.org/2000/svg" style="fill:rgba(0,0,0,1.0)" width="256" height="256" viewBox="0 0 34.140625 32.8125"><path fill="rgb(255, 255, 255)" d="M7.671875 32.812500 L7.671875 28.531250 C7.213539 28.697918 6.739586 28.822916 6.250000 28.906250 C5.760414 28.989584 5.348960 29.031250 5.015625 29.031250 C3.994787 29.031250 3.119795 28.643233 2.390625 27.867188 C1.661455 27.091142 1.104169 26.005215 0.718750 24.609375 C0.333331 23.213535 0.140625 21.593759 0.140625 19.750000 C0.140625 18.958329 0.322915 18.333336 0.687500 17.875000 C1.052085 17.416664 1.567705 17.187500 2.234375 17.187500 C2.880212 17.187500 3.390623 17.411456 3.765625 17.859375 C4.140627 18.307294 4.328125 18.937496 4.328125 19.750000 C4.328125 20.114585 4.309896 20.643226 4.273438 21.335938 C4.236979 22.028649 4.218750 22.635414 4.218750 23.156250 C4.218750 23.781253 4.312499 24.244790 4.500000 24.546875 C4.687501 24.848960 4.973956 25.000000 5.359375 25.000000 C5.765627 25.000000 6.140623 24.864585 6.484375 24.593750 C6.828127 24.322915 7.182290 23.989585 7.546875 23.593750 C7.911460 23.197915 8.320310 22.799481 8.773438 22.398438 C9.226565 21.997394 9.752601 21.661460 10.351562 21.390625 C10.950524 21.119790 11.661454 20.984375 12.484375 20.984375 L14.687500 20.984375 C15.895839 20.984375 16.880205 21.203123 17.640625 21.640625 C18.401045 22.078127 19.007810 22.619788 19.460938 23.265625 C19.914065 23.911462 20.281249 24.559893 20.562500 25.210938 C20.843751 25.861982 21.109374 26.406248 21.359375 26.843750 C21.609376 27.281252 21.916665 27.500000 22.281250 27.500000 C22.552085 27.500000 22.807290 27.351564 23.046875 27.054688 C23.286460 26.757811 23.406250 26.291670 23.406250 25.656250 C23.406250 25.312498 23.398438 24.921877 23.382812 24.484375 C23.367187 24.046873 23.348958 23.625002 23.328125 23.218750 C23.307292 22.812498 23.296875 22.489585 23.296875 22.250000 C23.296875 21.437496 23.484373 20.807294 23.859375 20.359375 C24.234377 19.911456 24.744788 19.687500 25.390625 19.687500 C26.057295 19.687500 26.572915 19.916664 26.937500 20.375000 C27.302085 20.833336 27.484375 21.458329 27.484375 22.250000 C27.484375 25.104181 27.049484 27.338534 26.179688 28.953125 C25.309891 30.567716 24.125008 31.375000 22.625000 31.375000 C21.989580 31.375000 21.408857 31.221356 20.882812 30.914062 C20.356768 30.606769 19.895835 30.166670 19.500000 29.593750 L19.500000 32.812500 Z M2.109375 13.375000 C1.526039 13.375000 1.028648 13.169273 0.617188 12.757812 C0.205727 12.346352 0.000000 11.848961 0.000000 11.265625 C0.000000 10.682289 0.205727 10.184898 0.617188 9.773438 C1.028648 9.361977 1.526039 9.156250 2.109375 9.156250 C2.692711 9.156250 3.190102 9.361977 3.601562 9.773438 C4.013023 10.184898 4.218750 10.682289 4.218750 11.265625 C4.218750 11.848961 4.013023 12.346352 3.601562 12.757812 C3.190102 13.169273 2.692711 13.375000 2.109375 13.375000 Z M1.500000 11.078125 C1.645834 11.078125 1.773437 11.023438 1.882812 10.914062 C1.992188 10.804687 2.046875 10.677084 2.046875 10.531250 C2.046875 10.385416 1.992188 10.257813 1.882812 10.148438 C1.773437 10.039062 1.645834 9.984375 1.500000 9.984375 C1.354166 9.984375 1.226563 10.039062 1.117188 10.148438 C1.007812 10.257813 0.953125 10.385416 0.953125 10.531250 C0.953125 10.677084 1.007812 10.804687 1.117188 10.914062 C1.226563 11.023438 1.354166 11.078125 1.500000 11.078125 Z M13.656250 21.734375 C12.635412 21.734375 11.705733 21.484378 10.867188 20.984375 C10.028642 20.484372 9.359377 19.815108 8.859375 18.976562 C8.359372 18.138017 8.109375 17.208338 8.109375 16.187500 C9.973968 16.416668 11.828116 16.531250 13.671875 16.531250 C15.515634 16.531250 17.359366 16.416668 19.203125 16.187500 C19.203125 17.208338 18.953128 18.138017 18.453125 18.976562 C17.953122 19.815108 17.283858 20.484372 16.445312 20.984375 C15.606767 21.484378 14.677088 21.734375 13.656250 21.734375 Z M13.656250 17.375000 C12.072909 17.375000 10.643236 17.190106 9.367188 16.820312 C8.091139 16.450519 7.080733 15.958336 6.335938 15.343750 C5.591142 14.729164 5.218750 14.052087 5.218750 13.312500 C5.218750 12.291662 5.937493 11.604168 7.375000 11.250000 C7.510417 10.281245 7.864580 9.419275 8.437500 8.664062 C9.010420 7.908850 9.747391 7.317710 10.648438 6.890625 C11.549484 6.463540 12.552078 6.250000 13.656250 6.250000 C14.770839 6.250000 15.776037 6.463540 16.671875 6.890625 C17.567713 7.317710 18.304685 7.908850 18.882812 8.664062 C19.460940 9.419275 19.812499 10.281245 19.937500 11.250000 C21.375007 11.604168 22.093750 12.291662 22.093750 13.312500 C22.093750 14.052087 21.721358 14.729164 20.976562 15.343750 C20.231767 15.958336 19.221361 16.450519 17.945312 16.820312 C16.669264 17.190106 15.239591 17.375000 13.656250 17.375000 Z M13.656250 15.203125 C14.885423 15.203125 15.994787 15.127605 16.984375 14.976562 C17.973963 14.825520 18.760414 14.606772 19.343750 14.320312 C19.927086 14.033853 20.218750 13.697919 20.218750 13.312500 C20.218750 13.083332 20.093751 12.893230 19.843750 12.742188 C19.593749 12.591145 18.989588 12.458334 18.031250 12.343750 C18.052083 12.239583 18.065104 12.138021 18.070312 12.039062 C18.075521 11.940104 18.078125 11.843750 18.078125 11.750000 C18.078125 11.041663 17.901043 10.403649 17.546875 9.835938 C17.192707 9.268226 16.687503 8.815106 16.031250 8.476562 C15.374997 8.138019 14.583338 7.968750 13.656250 7.968750 C12.739579 7.968750 11.950524 8.138019 11.289062 8.476562 C10.627601 8.815106 10.119793 9.268226 9.765625 9.835938 C9.411457 10.403649 9.234375 11.041663 9.234375 11.750000 C9.234375 11.843750 9.239583 11.940104 9.250000 12.039062 C9.260417 12.138021 9.270833 12.239583 9.281250 12.343750 C8.333329 12.458334 7.731772 12.591145 7.476562 12.742188 C7.221353 12.893230 7.093750 13.083332 7.093750 13.312500 C7.093750 13.697919 7.385414 14.033853 7.968750 14.320312 C8.552086 14.606772 9.341141 14.825520 10.335938 14.976562 C11.330734 15.127605 12.437494 15.203125 13.656250 15.203125 Z M25.546875 15.937500 C24.963539 15.937500 24.466148 15.731773 24.054688 15.320312 C23.643227 14.908852 23.437500 14.411461 23.437500 13.828125 C23.437500 13.244789 23.643227 12.747398 24.054688 12.335938 C24.466148 11.924477 24.963539 11.718750 25.546875 11.718750 C26.130211 11.718750 26.627602 11.924477 27.039062 12.335938 C27.450523 12.747398 27.656250 13.244789 27.656250 13.828125 C27.656250 14.411461 27.450523 14.908852 27.039062 15.320312 C26.627602 15.731773 26.130211 15.937500 25.546875 15.937500 Z M25.078125 13.593750 C25.223959 13.593750 25.351562 13.539063 25.460938 13.429688 C25.570313 13.320312 25.625000 13.192709 25.625000 13.046875 C25.625000 12.901041 25.570313 12.773438 25.460938 12.664062 C25.351562 12.554687 25.223959 12.500000 25.078125 12.500000 C24.932291 12.500000 24.804688 12.554687 24.695312 12.664062 C24.585937 12.773438 24.531250 12.901041 24.531250 13.046875 C24.531250 13.192709 24.585937 13.320312 24.695312 13.429688 C24.804688 13.539063 24.932291 13.593750 25.078125 13.593750 Z M18.046875 4.218750 C17.463539 4.218750 16.966148 4.013023 16.554688 3.601562 C16.143227 3.190102 15.937500 2.692711 15.937500 2.109375 C15.937500 1.526039 16.143227 1.028648 16.554688 0.617188 C16.966148 0.205727 17.463539 -0.000000 18.046875 -0.000000 C18.630211 -0.000000 19.127602 0.205727 19.539062 0.617188 C19.950523 1.028648 20.156250 1.526039 20.156250 2.109375 C20.156250 2.692711 19.950523 3.190102 19.539062 3.601562 C19.127602 4.013023 18.630211 4.218750 18.046875 4.218750 Z M17.578125 1.718750 C17.723959 1.718750 17.851562 1.664063 17.960938 1.554688 C18.070313 1.445312 18.125000 1.317709 18.125000 1.171875 C18.125000 1.026041 18.070313 0.898438 17.960938 0.789062 C17.851562 0.679687 17.723959 0.625000 17.578125 0.625000 C17.432291 0.625000 17.304688 0.679687 17.195312 0.789062 C17.085937 0.898438 17.031250 1.026041 17.031250 1.171875 C17.031250 1.317709 17.085937 1.445312 17.195312 1.554688 C17.304688 1.664063 17.432291 1.718750 17.578125 1.718750 Z M34.140625 27.343750" /></svg>