<svg version="1.1" xmlns="http://www.w3.org/2000/svg" style="fill:rgba(0,0,0,1.0)" width="256" height="256" viewBox="0 0 32.46875 32.8125"><path fill="rgb(255, 255, 255)" d="M15.640625 24.468750 L4.859375 24.437500 C4.432290 24.437500 4.083335 24.268231 3.812500 23.929688 C3.541665 23.591144 3.406250 23.203127 3.406250 22.765625 C3.406250 22.598957 3.408854 22.419272 3.414062 22.226562 C3.419271 22.033853 3.427083 21.854168 3.437500 21.687500 C3.354166 21.312498 3.247396 20.716150 3.117188 19.898438 C2.986979 19.080725 2.854167 18.156255 2.718750 17.125000 C2.583333 16.093745 2.453126 15.067713 2.328125 14.046875 C2.203124 13.026037 2.104167 12.114587 2.031250 11.312500 C1.958333 10.510413 1.921875 9.942710 1.921875 9.609375 C1.921875 9.432291 1.937500 9.276042 1.968750 9.140625 C1.729165 8.932291 1.578125 8.661460 1.515625 8.328125 L0.656250 3.984375 C0.583333 3.609373 0.656249 3.265627 0.875000 2.953125 C1.093751 2.640623 1.395831 2.453125 1.781250 2.390625 L3.234375 2.156250 C3.609377 2.093750 3.945311 2.166666 4.242188 2.375000 C4.539064 2.583334 4.723958 2.885415 4.796875 3.281250 L5.640625 7.593750 C5.723959 8.031252 5.635418 8.406248 5.375000 8.718750 C5.489584 8.916668 5.583333 9.124999 5.656250 9.343750 C6.010418 10.302088 6.346353 11.364578 6.664062 12.531250 C6.981772 13.697922 7.242186 14.843744 7.445312 15.968750 C7.648439 17.093756 7.750000 18.072912 7.750000 18.906250 C7.750000 19.229168 7.742188 19.531249 7.726562 19.812500 C7.710937 20.093751 7.677084 20.338541 7.625000 20.546875 L15.656250 20.578125 C16.114586 20.578125 16.502603 20.742186 16.820312 21.070312 C17.138022 21.398439 17.296875 21.791664 17.296875 22.250000 L17.296875 22.796875 C17.296875 23.276044 17.140627 23.674478 16.828125 23.992188 C16.515623 24.309897 16.119794 24.468750 15.640625 24.468750 Z M18.265625 29.250000 L17.015625 28.156250 L17.625000 26.828125 L18.531250 27.640625 L23.343750 26.046875 C23.541668 25.984375 23.729166 25.994791 23.906250 26.078125 C24.083334 26.161459 24.203125 26.302082 24.265625 26.500000 C24.328125 26.697918 24.317709 26.888020 24.234375 27.070312 C24.151041 27.252605 24.005209 27.375000 23.796875 27.437500 Z M16.312500 32.796875 C15.791664 32.796875 15.346356 32.611981 14.976562 32.242188 C14.606769 31.872394 14.421875 31.427086 14.421875 30.906250 C14.421875 30.385414 14.606769 29.940106 14.976562 29.570312 C15.346356 29.200519 15.791664 29.015625 16.312500 29.015625 C16.833336 29.015625 17.278644 29.200519 17.648438 29.570312 C18.018231 29.940106 18.203125 30.385414 18.203125 30.906250 C18.203125 31.427086 18.018231 31.872394 17.648438 32.242188 C17.278644 32.611981 16.833336 32.796875 16.312500 32.796875 Z M16.312500 31.671875 C16.531251 31.671875 16.716145 31.596355 16.867188 31.445312 C17.018230 31.294270 17.093750 31.114584 17.093750 30.906250 C17.093750 30.687499 17.018230 30.502605 16.867188 30.351562 C16.716145 30.200520 16.531251 30.125000 16.312500 30.125000 C16.093749 30.125000 15.911459 30.200520 15.765625 30.351562 C15.619791 30.502605 15.546875 30.687499 15.546875 30.906250 C15.546875 31.114584 15.619791 31.294270 15.765625 31.445312 C15.911459 31.596355 16.093749 31.671875 16.312500 31.671875 Z M16.312500 31.125000 C16.197916 31.125000 16.088542 31.083334 15.984375 31.000000 C15.880208 30.916666 15.828125 30.812501 15.828125 30.687500 L15.828125 27.703125 L16.796875 27.703125 L16.796875 30.687500 C16.796875 30.812501 16.747396 30.916666 16.648438 31.000000 C16.549479 31.083334 16.437501 31.125000 16.312500 31.125000 Z M16.296875 28.625000 L13.984375 28.625000 L14.218750 27.218750 L16.296875 27.218750 C16.505209 27.218750 16.664062 27.184896 16.773438 27.117188 C16.882813 27.049479 16.937500 26.963542 16.937500 26.859375 C16.937500 26.671874 16.802085 26.479168 16.531250 26.281250 L14.640625 24.890625 L14.906250 23.359375 L17.328125 25.125000 C17.682293 25.385418 17.942708 25.671873 18.109375 25.984375 C18.276042 26.296877 18.359375 26.604165 18.359375 26.906250 C18.359375 27.364586 18.182293 27.765623 17.828125 28.109375 C17.473957 28.453127 16.963545 28.625000 16.296875 28.625000 Z M14.078125 29.171875 L12.062500 29.171875 L11.515625 27.734375 L14.078125 27.734375 L13.312500 27.937500 L13.968750 23.187500 L15.578125 23.187500 L14.875000 28.453125 C14.802083 28.932294 14.536461 29.171875 14.078125 29.171875 Z M9.750000 32.812500 C8.760412 32.812500 7.916670 32.463545 7.218750 31.765625 C6.520830 31.067705 6.171875 30.229172 6.171875 29.250000 C6.171875 28.593747 6.333332 27.994794 6.656250 27.453125 C6.979168 26.911456 7.411456 26.479168 7.953125 26.156250 C8.494794 25.833332 9.093747 25.671875 9.750000 25.671875 C10.406253 25.671875 11.005206 25.833332 11.546875 26.156250 C12.088544 26.479168 12.520832 26.911456 12.843750 27.453125 C13.166668 27.994794 13.328125 28.593747 13.328125 29.250000 C13.328125 29.906253 13.166668 30.502601 12.843750 31.039062 C12.520832 31.575524 12.088544 32.005207 11.546875 32.328125 C11.005206 32.651043 10.406253 32.812500 9.750000 32.812500 Z M9.750000 31.078125 C10.260419 31.078125 10.692707 30.901043 11.046875 30.546875 C11.401043 30.192707 11.578125 29.760419 11.578125 29.250000 C11.578125 28.739581 11.401043 28.307293 11.046875 27.953125 C10.692707 27.598957 10.260419 27.421875 9.750000 27.421875 C9.239581 27.421875 8.807293 27.598957 8.453125 27.953125 C8.098957 28.307293 7.921875 28.739581 7.921875 29.250000 C7.921875 29.760419 8.098957 30.192707 8.453125 30.546875 C8.807293 30.901043 9.239581 31.078125 9.750000 31.078125 Z M9.750000 29.890625 C9.562499 29.890625 9.406251 29.828126 9.281250 29.703125 C9.156249 29.578124 9.093750 29.427084 9.093750 29.250000 C9.093750 29.062499 9.156249 28.906251 9.281250 28.781250 C9.406251 28.656249 9.562499 28.593750 9.750000 28.593750 C9.937501 28.593750 10.093749 28.656249 10.218750 28.781250 C10.343751 28.906251 10.406250 29.062499 10.406250 29.250000 C10.406250 29.427084 10.343751 29.578124 10.218750 29.703125 C10.093749 29.828126 9.937501 29.890625 9.750000 29.890625 Z M20.250000 27.640625 C19.958332 27.640625 19.713543 27.572917 19.515625 27.437500 C19.317707 27.302083 19.151042 27.104168 19.015625 26.843750 L16.687500 22.296875 L16.500000 21.218750 L7.218750 21.171875 L6.843750 16.656250 L9.656250 16.843750 L9.781250 20.484375 L11.578125 20.484375 L11.578125 16.765625 L13.500000 16.859375 L14.546875 17.796875 L16.593750 17.796875 L17.046875 16.859375 C17.744795 17.286460 18.346352 18.124994 18.851562 19.375000 C19.356773 20.625006 19.864581 22.401030 20.375000 24.703125 C20.562501 24.651041 20.755207 24.611979 20.953125 24.585938 C21.151043 24.559896 21.338541 24.546875 21.515625 24.546875 C22.109378 24.546875 22.591144 24.666665 22.960938 24.906250 C23.330731 25.145835 23.515625 25.453123 23.515625 25.828125 C23.515625 25.984376 23.427084 26.190103 23.250000 26.445312 C23.072916 26.700522 22.791669 26.885416 22.406250 27.000000 Z M1.906250 32.796875 C1.385414 32.796875 0.937502 32.611981 0.562500 32.242188 C0.187498 31.872394 0.000000 31.427086 0.000000 30.906250 C0.000000 30.385414 0.184894 29.940106 0.554688 29.570312 C0.924481 29.200519 1.374997 29.015625 1.906250 29.015625 C2.427086 29.015625 2.872394 29.200519 3.242188 29.570312 C3.611981 29.940106 3.796875 30.385414 3.796875 30.906250 C3.796875 31.427086 3.611981 31.872394 3.242188 32.242188 C2.872394 32.611981 2.427086 32.796875 1.906250 32.796875 Z M1.906250 31.671875 C2.114584 31.671875 2.294270 31.596355 2.445312 31.445312 C2.596355 31.294270 2.671875 31.114584 2.671875 30.906250 C2.671875 30.687499 2.596355 30.502605 2.445312 30.351562 C2.294270 30.200520 2.114584 30.125000 1.906250 30.125000 C1.687499 30.125000 1.502605 30.200520 1.351562 30.351562 C1.200520 30.502605 1.125000 30.687499 1.125000 30.906250 C1.125000 31.114584 1.200520 31.294270 1.351562 31.445312 C1.502605 31.596355 1.687499 31.671875 1.906250 31.671875 Z M7.406250 29.156250 L6.125000 29.156250 C5.906249 29.156250 5.713542 29.085938 5.546875 28.945312 C5.380208 28.804687 5.286458 28.635418 5.265625 28.437500 L4.671875 23.515625 L6.281250 23.515625 L6.843750 27.921875 L6.125000 27.718750 L8.187500 27.718750 Z M5.828125 28.171875 L1.828125 28.171875 L1.828125 26.562500 L5.828125 26.562500 Z M1.906250 31.125000 C1.781249 31.125000 1.669271 31.083334 1.570312 31.000000 C1.471354 30.916666 1.421875 30.812501 1.421875 30.687500 L1.421875 26.296875 C1.421875 26.098957 1.531249 26.000000 1.750000 26.000000 L2.046875 26.000000 C2.265626 26.000000 2.375000 26.098957 2.375000 26.296875 L2.375000 30.687500 C2.375000 30.812501 2.325521 30.916666 2.226562 31.000000 C2.127604 31.083334 2.020834 31.125000 1.906250 31.125000 Z M11.687500 21.312500 L8.843750 21.312500 C9.322919 20.541663 9.562500 19.760421 9.562500 18.968750 C9.562500 18.468748 9.468751 17.916670 9.281250 17.312500 L7.187500 17.312500 L7.140625 16.375000 L9.671875 16.375000 C10.015627 17.343755 10.187500 18.208330 10.187500 18.968750 C10.187500 19.468752 10.119792 19.937498 9.984375 20.375000 L11.156250 20.375000 C11.270834 19.895831 11.328125 19.427086 11.328125 18.968750 C11.328125 18.572915 11.286459 18.161460 11.203125 17.734375 C11.119791 17.307290 11.005209 16.854169 10.859375 16.375000 L13.609375 16.375000 L14.781250 17.281250 L16.281250 17.281250 L17.953125 15.031250 C18.026042 14.937500 18.041667 14.875000 18.000000 14.843750 C17.958333 14.812500 17.880209 14.838541 17.765625 14.921875 L16.500000 15.937500 L15.890625 15.937500 L15.890625 15.078125 C15.890625 14.807290 15.916666 14.591147 15.968750 14.429688 C16.020834 14.268228 16.046875 14.062501 16.046875 13.812500 C16.046875 13.541665 15.901043 13.406250 15.609375 13.406250 C15.494791 13.406250 15.393230 13.445312 15.304688 13.523438 C15.216145 13.601563 15.171875 13.697916 15.171875 13.812500 C15.171875 14.062501 15.197916 14.268228 15.250000 14.429688 C15.302084 14.591147 15.328125 14.807290 15.328125 15.078125 L15.328125 15.937500 L14.781250 15.937500 L13.812500 15.125000 L7.078125 15.125000 L7.031250 14.187500 L14.156250 14.187500 L14.343750 14.343750 C14.322917 14.270833 14.304688 14.192709 14.289062 14.109375 C14.273437 14.026041 14.265625 13.932292 14.265625 13.828125 C14.265625 13.463540 14.401040 13.151043 14.671875 12.890625 C14.942710 12.630207 15.255207 12.500000 15.609375 12.500000 C15.984377 12.500000 16.304686 12.630207 16.570312 12.890625 C16.835939 13.151043 16.968750 13.463540 16.968750 13.828125 C16.968750 13.994792 16.955729 14.140624 16.929688 14.265625 C16.903646 14.390626 16.864584 14.510416 16.812500 14.625000 L17.671875 14.078125 C17.880209 13.953124 18.083332 13.890625 18.281250 13.890625 C18.520835 13.890625 18.718749 13.971353 18.875000 14.132812 C19.031251 14.294272 19.109375 14.479166 19.109375 14.687500 C19.109375 14.916668 19.015626 15.161457 18.828125 15.421875 L16.687500 18.218750 L14.468750 18.218750 L13.296875 17.312500 L11.921875 17.312500 C12.046876 17.875003 12.109375 18.427081 12.109375 18.968750 C12.109375 19.812504 11.968751 20.593746 11.687500 21.312500 Z M15.343750 23.062500 C15.708335 23.062500 15.890625 22.942710 15.890625 22.703125 L15.890625 21.953125 C15.890625 21.713540 15.708335 21.593750 15.343750 21.593750 L6.453125 21.593750 C6.557292 20.906247 6.617187 20.406252 6.632812 20.093750 C6.648438 19.781248 6.656250 19.385419 6.656250 18.906250 C6.656250 18.260413 6.562501 17.450526 6.375000 16.476562 C6.187499 15.502599 5.932293 14.442714 5.609375 13.296875 C5.286457 12.151036 4.916669 11.010422 4.500000 9.875000 C4.374999 9.541665 4.192710 9.375000 3.953125 9.375000 C3.838541 9.375000 3.731771 9.414062 3.632812 9.492188 C3.533854 9.570313 3.484375 9.708332 3.484375 9.906250 C3.484375 10.166668 3.523437 10.682288 3.601562 11.453125 C3.679688 12.223962 3.781249 13.117182 3.906250 14.132812 C4.031251 15.148443 4.161458 16.164057 4.296875 17.179688 C4.432292 18.195318 4.562499 19.088538 4.687500 19.859375 C4.812501 20.630212 4.911458 21.151040 4.984375 21.421875 L4.984375 22.718750 C4.984375 22.802084 5.015625 22.875000 5.078125 22.937500 C5.140625 23.000000 5.213541 23.031250 5.296875 23.031250 Z M12.609375 14.843750 L6.640625 14.812500 L6.078125 11.218750 C6.036458 10.979165 5.994792 10.679689 5.953125 10.320312 C5.911458 9.960936 5.890625 9.604168 5.890625 9.250000 C5.890625 8.979165 5.908854 8.734376 5.945312 8.515625 C5.981771 8.296874 6.046875 8.119792 6.140625 7.984375 C5.984374 7.942708 5.817709 7.869792 5.640625 7.765625 C5.463541 7.661458 5.302084 7.552084 5.156250 7.437500 L3.734375 2.703125 C4.026043 1.911454 4.523434 1.263023 5.226562 0.757812 C5.929691 0.252602 6.723954 -0.000000 7.609375 -0.000000 C8.369795 -0.000000 9.062497 0.184894 9.687500 0.554688 C10.312503 0.924481 10.809894 1.421872 11.179688 2.046875 C11.549481 2.671878 11.734375 3.364580 11.734375 4.125000 C11.734375 5.010421 11.484378 5.802080 10.984375 6.500000 C10.484372 7.197920 9.843754 7.692707 9.062500 7.984375 C9.947921 8.932296 10.682289 10.013015 11.265625 11.226562 C11.848961 12.440110 12.296873 13.645827 12.609375 14.843750 Z M3.406250 8.109375 L3.843750 8.031250 C3.927084 8.010417 3.994791 7.963542 4.046875 7.890625 C4.098959 7.817708 4.114583 7.739584 4.093750 7.656250 L3.359375 4.015625 C3.348958 3.921875 3.307292 3.851563 3.234375 3.804688 C3.161458 3.757812 3.083334 3.744792 3.000000 3.765625 L2.546875 3.843750 C2.453125 3.854167 2.382813 3.895833 2.335938 3.968750 C2.289062 4.041667 2.270833 4.125000 2.281250 4.218750 L3.031250 7.859375 C3.052083 7.942709 3.098958 8.007812 3.171875 8.054688 C3.244792 8.101563 3.322916 8.119792 3.406250 8.109375 Z M18.062500 12.718750 C18.062500 12.947918 17.968751 13.166666 17.781250 13.375000 C17.593749 13.583334 17.364585 13.687500 17.093750 13.687500 C16.864582 13.687500 16.643230 13.622396 16.429688 13.492188 C16.216145 13.361979 15.885419 13.296875 15.437500 13.296875 C15.135415 13.296875 14.744794 13.338541 14.265625 13.421875 C13.786456 13.505209 13.369793 13.546875 13.015625 13.546875 C12.182288 13.546875 11.458336 13.481771 10.843750 13.351562 C10.229164 13.221354 9.473963 12.968752 8.578125 12.593750 L8.218750 8.984375 C9.072921 9.796879 9.825518 10.335936 10.476562 10.601562 C11.127607 10.867189 11.755205 11.057291 12.359375 11.171875 C13.286463 11.348959 13.994789 11.393230 14.484375 11.304688 C14.973961 11.216145 15.463539 11.171875 15.953125 11.171875 C16.744796 11.171875 17.294269 11.346352 17.601562 11.695312 C17.908856 12.044273 18.062500 12.385415 18.062500 12.718750 Z M32.468750 27.343750" /></svg>