<svg version="1.1" xmlns="http://www.w3.org/2000/svg" style="fill:rgba(0,0,0,1.0)" width="256" height="256" viewBox="0 0 33.671875 32.8125"><path fill="rgb(255, 255, 255)" d="M14.687500 32.812500 C12.124987 32.812500 9.848968 32.479170 7.859375 31.812500 C5.869782 31.145830 4.322922 30.026050 3.218750 28.453125 C2.624997 27.598954 2.083336 26.570319 1.593750 25.367188 C1.104164 24.164056 0.716147 22.851570 0.429688 21.429688 C0.143228 20.007805 0.000000 18.536466 0.000000 17.015625 C0.000000 16.380205 0.036458 15.643233 0.109375 14.804688 C0.182292 13.966142 0.268229 13.119796 0.367188 12.265625 C0.466146 11.411454 0.552083 10.632816 0.625000 9.929688 C0.697917 9.226559 0.734375 8.697918 0.734375 8.343750 C0.734375 7.927081 0.721354 7.546877 0.695312 7.203125 C0.669271 6.859373 0.645833 6.528647 0.625000 6.210938 C0.604167 5.893228 0.593750 5.578127 0.593750 5.265625 C0.593750 4.057286 0.822914 3.065108 1.281250 2.289062 C1.739586 1.513017 2.335934 0.937502 3.070312 0.562500 C3.804691 0.187498 4.578121 -0.000000 5.390625 -0.000000 C6.505214 -0.000000 7.401038 0.291664 8.078125 0.875000 C8.755212 1.458336 9.093750 2.203120 9.093750 3.109375 C9.093750 3.203125 9.080729 3.406248 9.054688 3.718750 C9.028646 4.031252 8.947917 4.458331 8.812500 5.000000 L8.250000 4.156250 C8.833336 4.156250 9.330727 4.351561 9.742188 4.742188 C10.153648 5.132814 10.359375 5.635414 10.359375 6.250000 C10.359375 6.833336 10.148440 7.348956 9.726562 7.796875 C9.304685 8.244794 8.630213 8.682290 7.703125 9.109375 C7.234373 9.317709 6.932292 9.476562 6.796875 9.585938 C6.661458 9.695313 6.593750 9.843749 6.593750 10.031250 C6.593750 10.500002 6.596354 10.960935 6.601562 11.414062 C6.606771 11.867190 6.619792 12.312498 6.640625 12.750000 C6.661458 13.187502 6.687500 13.630206 6.718750 14.078125 L5.937500 14.078125 C6.916672 12.276033 8.273429 10.846359 10.007812 9.789062 C11.742196 8.731766 13.635406 8.203125 15.687500 8.203125 C17.187508 8.203125 18.588535 8.455727 19.890625 8.960938 C21.192715 9.466148 22.333328 10.169266 23.312500 11.070312 C24.291672 11.971359 25.054685 13.015619 25.601562 14.203125 C26.148440 15.390631 26.421875 16.671868 26.421875 18.046875 C26.421875 19.109380 26.328126 20.093745 26.140625 21.000000 C25.953124 21.906255 25.765626 22.674476 25.578125 23.304688 C25.390624 23.934899 25.296875 24.359374 25.296875 24.578125 C25.296875 24.807293 25.416665 25.049478 25.656250 25.304688 C25.895835 25.559897 26.132811 25.872394 26.367188 26.242188 C26.601564 26.611981 26.718750 27.088539 26.718750 27.671875 C26.718750 28.703130 26.216151 29.604163 25.210938 30.375000 C24.205724 31.145837 22.799488 31.744790 20.992188 32.171875 C19.184887 32.598960 17.083345 32.812500 14.687500 32.812500 Z M16.265625 21.625000 C14.786451 21.625000 13.419277 21.348961 12.164062 20.796875 C10.908848 20.244789 9.901045 19.447922 9.140625 18.406250 L10.515625 17.375000 C11.119795 18.197921 11.927078 18.825519 12.937500 19.257812 C13.947922 19.690106 15.062494 19.906250 16.281250 19.906250 C16.687502 19.906250 17.104165 19.880209 17.531250 19.828125 C17.958335 19.776041 18.390623 19.697917 18.828125 19.593750 L19.234375 21.250000 C18.234370 21.500001 17.244797 21.625000 16.265625 21.625000 Z M14.687500 31.093750 C16.635426 31.093750 18.374992 30.945314 19.906250 30.648438 C21.437508 30.351561 22.643225 29.945315 23.523438 29.429688 C24.403650 28.914060 24.843750 28.328128 24.843750 27.671875 C24.843750 27.369790 24.726564 27.075522 24.492188 26.789062 C24.257811 26.502603 24.020835 26.182293 23.781250 25.828125 C23.541665 25.473957 23.421875 25.057294 23.421875 24.578125 C23.421875 24.234373 23.515624 23.742191 23.703125 23.101562 C23.890626 22.460934 24.078124 21.710942 24.265625 20.851562 C24.453126 19.992183 24.546875 19.057297 24.546875 18.046875 C24.546875 16.505201 24.156254 15.122402 23.375000 13.898438 C22.593746 12.674473 21.536465 11.705733 20.203125 10.992188 C18.869785 10.278642 17.364592 9.921875 15.687500 9.921875 C14.374993 9.921875 13.156256 10.164060 12.031250 10.648438 C10.906244 11.132815 9.869796 11.859370 8.921875 12.828125 C7.973954 13.796880 7.109379 14.999993 6.328125 16.437500 L4.984375 16.437500 C4.921875 15.614579 4.869792 14.864587 4.828125 14.187500 C4.786458 13.510413 4.757813 12.833337 4.742188 12.156250 C4.726562 11.479163 4.718750 10.723962 4.718750 9.890625 C4.718750 9.338539 4.911456 8.893231 5.296875 8.554688 C5.682294 8.216144 6.244788 7.869793 6.984375 7.515625 C7.588545 7.223957 8.005207 6.979168 8.234375 6.781250 C8.463543 6.583332 8.578125 6.375001 8.578125 6.156250 C8.578125 6.041666 8.544271 5.953125 8.476562 5.890625 C8.408854 5.828125 8.312501 5.796875 8.187500 5.796875 C8.104166 5.796875 7.994792 5.817708 7.859375 5.859375 C7.723958 5.901042 7.505210 5.994791 7.203125 6.140625 L6.734375 5.437500 C6.921876 4.916664 7.062500 4.463544 7.156250 4.078125 C7.250000 3.692706 7.296875 3.369793 7.296875 3.109375 C7.296875 2.651039 7.140627 2.304689 6.828125 2.070312 C6.515623 1.835936 6.036462 1.718750 5.390625 1.718750 C4.598954 1.718750 3.914065 1.997393 3.335938 2.554688 C2.757810 3.111982 2.468750 4.015619 2.468750 5.265625 C2.468750 5.588543 2.479167 5.906248 2.500000 6.218750 C2.520833 6.531252 2.544271 6.856769 2.570312 7.195312 C2.596354 7.533856 2.609375 7.916665 2.609375 8.343750 C2.609375 8.666668 2.572917 9.200517 2.500000 9.945312 C2.427083 10.690108 2.341146 11.513016 2.242188 12.414062 C2.143229 13.315109 2.057292 14.179683 1.984375 15.007812 C1.911458 15.835942 1.875000 16.505206 1.875000 17.015625 C1.875000 18.338548 1.999999 19.630202 2.250000 20.890625 C2.500001 22.151048 2.828123 23.315099 3.234375 24.382812 C3.640627 25.450526 4.078123 26.359371 4.546875 27.109375 C5.473963 28.578132 6.820304 29.609372 8.585938 30.203125 C10.351571 30.796878 12.385405 31.093750 14.687500 31.093750 Z M11.750000 16.125000 C11.333331 16.125000 10.989585 15.950523 10.718750 15.601562 C10.447915 15.252602 10.312500 14.854169 10.312500 14.406250 C10.312500 13.885414 10.463540 13.434898 10.765625 13.054688 C11.067710 12.674477 11.442706 12.484375 11.890625 12.484375 C12.317710 12.484375 12.661457 12.653644 12.921875 12.992188 C13.182293 13.330731 13.312500 13.729164 13.312500 14.187500 C13.312500 14.708336 13.161460 15.161456 12.859375 15.546875 C12.557290 15.932294 12.187502 16.125000 11.750000 16.125000 Z M18.312500 17.843750 C17.895831 17.843750 17.552085 17.669273 17.281250 17.320312 C17.010415 16.971352 16.875000 16.572919 16.875000 16.125000 C16.875000 15.604164 17.026040 15.153648 17.328125 14.773438 C17.630210 14.393227 18.005206 14.203125 18.453125 14.203125 C18.880210 14.203125 19.223957 14.372394 19.484375 14.710938 C19.744793 15.049481 19.875000 15.447914 19.875000 15.906250 C19.875000 16.427086 19.723960 16.880206 19.421875 17.265625 C19.119790 17.651044 18.750002 17.843750 18.312500 17.843750 Z M33.671875 27.343750" /></svg>