<svg version="1.1" xmlns="http://www.w3.org/2000/svg" style="fill:rgba(0,0,0,1.0)" width="256" height="256" viewBox="0 0 34.71875 31.25"><path fill="rgb(255, 255, 255)" d="M6.859375 31.250000 C5.223950 31.250000 3.940109 31.070314 3.007812 30.710938 C2.075516 30.351561 1.609375 29.822920 1.609375 29.125000 C1.609375 28.895832 1.718749 28.666668 1.937500 28.437500 C1.333330 28.322916 0.859377 28.065106 0.515625 27.664062 C0.171873 27.263019 0.000000 26.791669 0.000000 26.250000 C0.000000 25.677080 0.190102 25.213543 0.570312 24.859375 C0.950523 24.505207 1.406247 24.328125 1.937500 24.328125 C2.468753 24.328125 2.916665 24.499998 3.281250 24.843750 C3.989587 24.031246 4.606768 23.109380 5.132812 22.078125 C5.658857 21.046870 6.208330 19.682300 6.781250 17.984375 C7.322919 16.380200 7.872393 15.093755 8.429688 14.125000 C8.986982 13.156245 9.632809 12.411461 10.367188 11.890625 C11.101566 11.369789 11.994786 10.994793 13.046875 10.765625 C11.869786 10.463540 10.890629 9.822922 10.109375 8.843750 C9.328121 7.864578 8.937500 6.739590 8.937500 5.468750 C8.937500 4.458328 9.184893 3.541671 9.679688 2.718750 C10.174482 1.895829 10.835933 1.236982 11.664062 0.742188 C12.492192 0.247393 13.406245 -0.000000 14.406250 -0.000000 C15.416672 -0.000000 16.333329 0.247393 17.156250 0.742188 C17.979171 1.236982 18.638018 1.895829 19.132812 2.718750 C19.627607 3.541671 19.875000 4.458328 19.875000 5.468750 C19.875000 6.739590 19.484379 7.864578 18.703125 8.843750 C17.921871 9.822922 16.942714 10.463540 15.765625 10.765625 C16.828130 10.994793 17.723955 11.369789 18.453125 11.890625 C19.182295 12.411461 19.828122 13.156245 20.390625 14.125000 C20.953128 15.093755 21.499997 16.380200 22.031250 17.984375 C22.604170 19.682300 23.156247 21.046870 23.687500 22.078125 C24.218753 23.109380 24.833330 24.031246 25.531250 24.843750 C25.895835 24.499998 26.343747 24.328125 26.875000 24.328125 C27.406253 24.328125 27.861977 24.505207 28.242188 24.859375 C28.622398 25.213543 28.812500 25.677080 28.812500 26.250000 C28.812500 26.791669 28.640627 27.263019 28.296875 27.664062 C27.953123 28.065106 27.479170 28.322916 26.875000 28.437500 C27.093751 28.666668 27.203125 28.895832 27.203125 29.125000 C27.203125 29.822920 26.736984 30.351561 25.804688 30.710938 C24.872391 31.070314 23.588550 31.250000 21.953125 31.250000 C20.828119 31.250000 19.692714 31.179688 18.546875 31.039062 C17.401036 30.898437 16.302089 30.703126 15.250000 30.453125 C13.916660 30.713543 12.515632 30.911458 11.046875 31.046875 C9.578118 31.182292 8.182298 31.250000 6.859375 31.250000 Z M5.703125 26.187500 C5.942710 26.125000 6.432288 25.979168 7.171875 25.750000 C7.911462 25.520832 8.661455 25.276043 9.421875 25.015625 C9.598959 24.338538 9.752604 23.653649 9.882812 22.960938 C10.013021 22.268226 10.135416 21.554691 10.250000 20.820312 C10.364584 20.085934 10.479166 19.312504 10.593750 18.500000 C9.583328 20.427093 8.656254 22.049473 7.812500 23.367188 C6.968746 24.684902 6.265628 25.624997 5.703125 26.187500 Z M23.109375 26.187500 C22.546872 25.624997 21.846358 24.684902 21.007812 23.367188 C20.169267 22.049473 19.239588 20.427093 18.218750 18.500000 C18.333334 19.312504 18.447916 20.085934 18.562500 20.820312 C18.677084 21.554691 18.802083 22.268226 18.937500 22.960938 C19.072917 23.653649 19.223958 24.338538 19.390625 25.015625 C20.161462 25.276043 20.914059 25.520832 21.648438 25.750000 C22.382816 25.979168 22.869790 26.125000 23.109375 26.187500 Z M34.718750 26.562500" /></svg>