<svg version="1.1" xmlns="http://www.w3.org/2000/svg" style="fill:rgba(0,0,0,1.0)" width="256" height="256" viewBox="0 0 25.625 32.8125"><path fill="rgb(255, 255, 255)" d="M4.015625 29.031250 C3.661457 29.031250 3.367189 28.877606 3.132812 28.570312 C2.898436 28.263019 2.760417 27.890627 2.718750 27.453125 L1.984375 19.187500 C1.484372 19.187500 1.059898 19.036460 0.710938 18.734375 C0.361977 18.432290 0.187500 18.072919 0.187500 17.656250 L0.187500 11.234375 C0.187500 10.453121 0.619787 9.856773 1.484375 9.445312 C2.348963 9.033852 3.624992 8.828125 5.312500 8.828125 C7.000008 8.828125 8.276037 9.033852 9.140625 9.445312 C10.005213 9.856773 10.437500 10.453121 10.437500 11.234375 L10.437500 17.656250 C10.437500 18.072919 10.263023 18.432290 9.914062 18.734375 C9.565102 19.036460 9.140627 19.187500 8.640625 19.187500 L7.906250 27.453125 C7.864583 27.890627 7.729168 28.263019 7.500000 28.570312 C7.270832 28.877606 6.973960 29.031250 6.609375 29.031250 C6.307290 29.031250 6.031251 28.908855 5.781250 28.664062 C5.531249 28.419270 5.375000 28.067711 5.312500 27.609375 C5.250000 28.067711 5.093751 28.419270 4.843750 28.664062 C4.593749 28.908855 4.317710 29.031250 4.015625 29.031250 Z M5.312500 32.812500 C4.166661 32.812500 3.187504 32.697918 2.375000 32.468750 C1.562496 32.239582 1.156250 31.963543 1.156250 31.640625 C1.156250 31.307290 1.559892 31.028647 2.367188 30.804688 C3.174483 30.580728 4.156244 30.468750 5.312500 30.468750 C6.458339 30.468750 7.434892 30.580728 8.242188 30.804688 C9.049483 31.028647 9.453125 31.307290 9.453125 31.640625 C9.453125 31.963543 9.049483 32.239582 8.242188 32.468750 C7.434892 32.697918 6.458339 32.812500 5.312500 32.812500 Z M2.093750 17.906250 L2.093750 16.953125 C1.781248 16.953125 1.406252 16.875001 0.968750 16.718750 L0.968750 17.640625 C1.343752 17.817709 1.718748 17.906250 2.093750 17.906250 Z M8.531250 17.906250 C8.906252 17.906250 9.281248 17.817709 9.656250 17.640625 L9.656250 16.718750 C9.218748 16.875001 8.843752 16.953125 8.531250 16.953125 Z M5.312500 15.421875 L4.546875 14.406250 L4.984375 11.171875 L4.484375 10.531250 L4.906250 9.937500 L5.718750 9.937500 L6.140625 10.531250 L5.640625 11.171875 L6.078125 14.406250 Z M5.312500 14.703125 L7.921875 11.203125 L7.171875 11.062500 L8.000000 10.359375 C7.572915 10.255208 7.138023 10.182292 6.695312 10.140625 C6.252602 10.098958 5.791669 10.078125 5.312500 10.078125 C4.833331 10.078125 4.372398 10.098958 3.929688 10.140625 C3.486977 10.182292 3.052085 10.255208 2.625000 10.359375 L3.453125 11.062500 L2.703125 11.203125 Z M5.312500 9.359375 C4.572913 9.359375 3.895836 9.177085 3.281250 8.812500 C2.666664 8.447915 2.177085 7.958336 1.812500 7.343750 C1.447915 6.729164 1.265625 6.052087 1.265625 5.312500 C1.265625 5.239583 1.268229 5.169271 1.273438 5.101562 C1.278646 5.033854 1.286458 4.963542 1.296875 4.890625 L9.328125 4.890625 C9.338542 4.963542 9.346354 5.033854 9.351562 5.101562 C9.356771 5.169271 9.359375 5.239583 9.359375 5.312500 C9.359375 6.052087 9.177085 6.729164 8.812500 7.343750 C8.447915 7.958336 7.960941 8.447915 7.351562 8.812500 C6.742184 9.177085 6.062504 9.359375 5.312500 9.359375 Z M5.312500 4.703125 C6.750007 4.703125 7.786455 4.617188 8.421875 4.445312 C9.057295 4.273437 9.375000 4.098959 9.375000 3.921875 C9.375000 3.796874 9.265626 3.705729 9.046875 3.648438 C8.828124 3.591146 8.505210 3.562500 8.078125 3.562500 L7.781250 2.109375 C7.708333 1.744790 7.523439 1.510417 7.226562 1.406250 C6.929686 1.302083 6.291672 1.250000 5.312500 1.250000 C4.322912 1.250000 3.684897 1.302083 3.398438 1.406250 C3.111978 1.510417 2.927084 1.744790 2.843750 2.109375 L2.546875 3.562500 C2.130206 3.562500 1.809897 3.591146 1.585938 3.648438 C1.361978 3.705729 1.250000 3.796874 1.250000 3.921875 C1.250000 4.098959 1.567705 4.273437 2.203125 4.445312 C2.838545 4.617188 3.874993 4.703125 5.312500 4.703125 Z M1.421875 5.562500 C0.473954 5.166665 0.000000 4.619795 0.000000 3.921875 C0.000000 3.588540 0.119790 3.333334 0.359375 3.156250 C0.598960 2.979166 0.953123 2.848959 1.421875 2.765625 L1.625000 1.828125 C1.781251 1.098955 2.117185 0.611980 2.632812 0.367188 C3.148440 0.122395 4.041660 -0.000000 5.312500 -0.000000 C6.583340 -0.000000 7.476560 0.122395 7.992188 0.367188 C8.507815 0.611980 8.843749 1.098955 9.000000 1.828125 L9.203125 2.765625 C9.682294 2.848959 10.039061 2.979166 10.273438 3.156250 C10.507814 3.333334 10.625000 3.588540 10.625000 3.921875 C10.625000 4.619795 10.151046 5.166665 9.203125 5.562500 Z M25.625000 27.343750" /></svg>