<svg version="1.1" xmlns="http://www.w3.org/2000/svg" style="fill:rgba(0,0,0,1.0)" width="256" height="256" viewBox="0 0 39.71875 28.125"><path fill="rgb(255, 255, 255)" d="M31.031250 28.125000 C29.697910 28.125000 28.643233 27.848961 27.867188 27.296875 C27.091142 26.744789 26.536460 26.013025 26.203125 25.101562 C25.869790 24.190100 25.703125 23.187505 25.703125 22.093750 C25.703125 20.458325 26.026038 18.700530 26.671875 16.820312 C27.317712 14.940095 28.223952 13.114592 29.390625 11.343750 C29.848961 10.656247 30.289060 10.127606 30.710938 9.757812 C31.132815 9.388019 31.593748 9.203125 32.093750 9.203125 C32.197917 9.203125 32.296875 9.210937 32.390625 9.226562 C32.484375 9.242188 32.583333 9.260417 32.687500 9.281250 C33.489587 8.197911 34.153643 7.458335 34.679688 7.062500 C35.205732 6.666665 35.755205 6.468750 36.328125 6.468750 C36.984378 6.468750 37.562498 6.684894 38.062500 7.117188 C38.562502 7.549481 38.812500 8.130205 38.812500 8.859375 C38.812500 9.765630 38.572919 10.627600 38.093750 11.445312 C37.614581 12.263025 37.031253 13.098954 36.343750 13.953125 C35.572913 14.911463 34.937502 15.765621 34.437500 16.515625 C33.937498 17.265629 33.567710 17.997392 33.328125 18.710938 C33.088540 19.424483 32.968750 20.213537 32.968750 21.078125 L31.171875 21.078125 C31.171875 20.088537 31.315103 19.164067 31.601562 18.304688 C31.888022 17.445308 32.315101 16.578129 32.882812 15.703125 C33.450524 14.828121 34.151038 13.864589 34.984375 12.812500 C35.567711 12.083330 36.078123 11.375003 36.515625 10.687500 C36.953127 9.999997 37.171875 9.401044 37.171875 8.890625 C37.171875 8.630207 37.088542 8.421876 36.921875 8.265625 C36.755208 8.109374 36.515627 8.031250 36.203125 8.031250 C35.984374 8.031250 35.765626 8.104166 35.546875 8.250000 C35.328124 8.395834 35.054689 8.669269 34.726562 9.070312 C34.398436 9.471356 33.963544 10.067704 33.421875 10.859375 C33.130207 10.796875 32.869793 10.765625 32.640625 10.765625 C32.223956 10.765625 31.903647 10.888020 31.679688 11.132812 C31.455728 11.377605 31.192710 11.749998 30.890625 12.250000 C30.078121 13.593757 29.421878 14.815099 28.921875 15.914062 C28.421872 17.013026 28.059897 18.059891 27.835938 19.054688 C27.611978 20.049484 27.500000 21.062495 27.500000 22.093750 C27.500000 23.354173 27.747393 24.401038 28.242188 25.234375 C28.736982 26.067712 29.666660 26.484375 31.031250 26.484375 C31.916671 26.484375 32.643226 26.281252 33.210938 25.875000 C33.778649 25.468748 34.197915 24.942712 34.468750 24.296875 C34.739585 23.651038 34.875000 22.979170 34.875000 22.281250 C34.875000 21.354162 34.802084 20.421880 34.656250 19.484375 C34.510416 18.546870 34.203127 17.651046 33.734375 16.796875 L34.953125 15.187500 C35.515628 16.312506 35.942707 17.515619 36.234375 18.796875 C36.526043 20.078131 36.671875 21.239578 36.671875 22.281250 C36.671875 23.333339 36.447919 24.302079 36.000000 25.187500 C35.552081 26.072921 34.908858 26.783851 34.070312 27.320312 C33.231767 27.856774 32.218756 28.125000 31.031250 28.125000 Z M7.781250 28.125000 C6.593744 28.125000 5.580733 27.856774 4.742188 27.320312 C3.903642 26.783851 3.260419 26.072921 2.812500 25.187500 C2.364581 24.302079 2.140625 23.333339 2.140625 22.281250 C2.140625 21.239578 2.286457 20.078131 2.578125 18.796875 C2.869793 17.515619 3.296872 16.312506 3.859375 15.187500 L5.078125 16.796875 C4.609373 17.651046 4.302084 18.546870 4.156250 19.484375 C4.010416 20.421880 3.937500 21.354162 3.937500 22.281250 C3.937500 22.979170 4.072915 23.651038 4.343750 24.296875 C4.614585 24.942712 5.033851 25.468748 5.601562 25.875000 C6.169274 26.281252 6.895829 26.484375 7.781250 26.484375 C9.145840 26.484375 10.075518 26.067712 10.570312 25.234375 C11.065107 24.401038 11.312500 23.354173 11.312500 22.093750 C11.312500 21.062495 11.200522 20.049484 10.976562 19.054688 C10.752603 18.059891 10.393232 17.013026 9.898438 15.914062 C9.403643 14.815099 8.744796 13.593757 7.921875 12.250000 C7.619790 11.749998 7.359376 11.377605 7.140625 11.132812 C6.921874 10.888020 6.598960 10.765625 6.171875 10.765625 C5.953124 10.765625 5.692710 10.796875 5.390625 10.859375 C4.848956 10.067704 4.414064 9.471356 4.085938 9.070312 C3.757811 8.669269 3.484376 8.395834 3.265625 8.250000 C3.046874 8.104166 2.828126 8.031250 2.609375 8.031250 C2.296873 8.031250 2.057292 8.109374 1.890625 8.265625 C1.723958 8.421876 1.640625 8.630207 1.640625 8.890625 C1.640625 9.401044 1.861977 9.999997 2.304688 10.687500 C2.747398 11.375003 3.255205 12.083330 3.828125 12.812500 C4.671879 13.864589 5.374997 14.828121 5.937500 15.703125 C6.500003 16.578129 6.924478 17.445308 7.210938 18.304688 C7.497397 19.164067 7.640625 20.088537 7.640625 21.078125 L5.843750 21.078125 C5.843750 20.213537 5.723960 19.424483 5.484375 18.710938 C5.244790 17.997392 4.877607 17.265629 4.382812 16.515625 C3.888018 15.765621 3.250004 14.911463 2.468750 13.953125 C1.781247 13.098954 1.197919 12.263025 0.718750 11.445312 C0.239581 10.627600 0.000000 9.765630 0.000000 8.859375 C0.000000 8.130205 0.249998 7.549481 0.750000 7.117188 C1.250002 6.684894 1.828122 6.468750 2.484375 6.468750 C3.057295 6.468750 3.606768 6.666665 4.132812 7.062500 C4.658857 7.458335 5.322913 8.197911 6.125000 9.281250 C6.229167 9.260417 6.328125 9.242188 6.421875 9.226562 C6.515625 9.210937 6.614583 9.203125 6.718750 9.203125 C7.218752 9.203125 7.682290 9.388019 8.109375 9.757812 C8.536460 10.127606 8.973956 10.656247 9.421875 11.343750 C10.598964 13.114592 11.507809 14.940095 12.148438 16.820312 C12.789066 18.700530 13.109375 20.458325 13.109375 22.093750 C13.109375 23.187505 12.942710 24.190100 12.609375 25.101562 C12.276040 26.013025 11.721358 26.744789 10.945312 27.296875 C10.169267 27.848961 9.114590 28.125000 7.781250 28.125000 Z M19.406250 26.750000 C17.906242 26.750000 16.476569 26.697917 15.117188 26.593750 C13.757806 26.489583 12.484381 26.333334 11.296875 26.125000 L12.156250 24.562500 C13.229172 24.718751 14.372390 24.838541 15.585938 24.921875 C16.799485 25.005209 18.072910 25.046875 19.406250 25.046875 C20.739590 25.046875 22.013015 25.005209 23.226562 24.921875 C24.440110 24.838541 25.583328 24.718751 26.656250 24.562500 L27.515625 26.125000 C26.328119 26.333334 25.054694 26.489583 23.695312 26.593750 C22.335931 26.697917 20.906258 26.750000 19.406250 26.750000 Z M19.406250 15.437500 C18.874997 15.437500 18.437502 15.356772 18.093750 15.195312 C17.749998 15.033853 17.578125 14.744794 17.578125 14.328125 C17.578125 13.869789 17.755207 13.481772 18.109375 13.164062 C18.463543 12.846353 18.895831 12.687500 19.406250 12.687500 C19.927086 12.687500 20.361977 12.846353 20.710938 13.164062 C21.059898 13.481772 21.234375 13.869789 21.234375 14.328125 C21.234375 14.744794 21.062502 15.033853 20.718750 15.195312 C20.374998 15.356772 19.937503 15.437500 19.406250 15.437500 Z M15.265625 11.625000 C14.859373 11.625000 14.510418 11.466147 14.218750 11.148438 C13.927082 10.830728 13.781250 10.401044 13.781250 9.859375 C13.781250 9.307289 13.927082 8.875002 14.218750 8.562500 C14.510418 8.249998 14.859373 8.093750 15.265625 8.093750 C15.682294 8.093750 16.033853 8.249998 16.320312 8.562500 C16.606772 8.875002 16.750000 9.307289 16.750000 9.859375 C16.750000 10.401044 16.606772 10.830728 16.320312 11.148438 C16.033853 11.466147 15.682294 11.625000 15.265625 11.625000 Z M23.546875 11.625000 C23.130206 11.625000 22.778647 11.466147 22.492188 11.148438 C22.205728 10.830728 22.062500 10.401044 22.062500 9.859375 C22.062500 9.307289 22.205728 8.875002 22.492188 8.562500 C22.778647 8.249998 23.130206 8.093750 23.546875 8.093750 C23.953127 8.093750 24.302082 8.249998 24.593750 8.562500 C24.885418 8.875002 25.031250 9.307289 25.031250 9.859375 C25.031250 10.401044 24.885418 10.830728 24.593750 11.148438 C24.302082 11.466147 23.953127 11.625000 23.546875 11.625000 Z M8.234375 10.843750 L6.750000 9.765625 C7.864589 7.994783 8.893224 6.489590 9.835938 5.250000 C10.778651 4.010410 11.721349 3.005212 12.664062 2.234375 C13.606776 1.463538 14.619786 0.898439 15.703125 0.539062 C16.786464 0.179686 18.020826 -0.000000 19.406250 -0.000000 C20.791674 -0.000000 22.026036 0.179686 23.109375 0.539062 C24.192714 0.898439 25.205724 1.463538 26.148438 2.234375 C27.091151 3.005212 28.036454 4.010410 28.984375 5.250000 C29.932296 6.489590 30.958328 7.994783 32.062500 9.765625 L30.578125 10.843750 C29.578120 9.197908 28.669275 7.796881 27.851562 6.640625 C27.033850 5.484369 26.218754 4.544274 25.406250 3.820312 C24.593746 3.096351 23.708338 2.565106 22.750000 2.226562 C21.791662 1.888019 20.677090 1.718750 19.406250 1.718750 C18.135410 1.718750 17.020838 1.888019 16.062500 2.226562 C15.104162 2.565106 14.218754 3.096351 13.406250 3.820312 C12.593746 4.544274 11.778650 5.484369 10.960938 6.640625 C10.143225 7.796881 9.234380 9.197908 8.234375 10.843750 Z M39.718750 25.000000" /></svg>