<svg version="1.1" xmlns="http://www.w3.org/2000/svg" style="fill:rgba(0,0,0,1.0)" width="256" height="256" viewBox="0 0 29.578125 32.8125"><path fill="rgb(255, 255, 255)" d="M3.296875 32.812500 C2.755206 32.812500 2.231773 32.664064 1.726562 32.367188 C1.221352 32.070311 0.807293 31.690106 0.484375 31.226562 C0.161457 30.763019 0.000000 30.291669 0.000000 29.812500 C0.000000 29.322914 0.197915 28.947918 0.593750 28.687500 C0.989585 28.427082 1.489580 28.296875 2.093750 28.296875 C2.510419 28.296875 2.937498 28.013024 3.375000 27.445312 C3.812502 26.877601 4.234373 26.153650 4.640625 25.273438 C5.046877 24.393225 5.414061 23.473963 5.742188 22.515625 C6.070314 21.557287 6.330728 20.671879 6.523438 19.859375 C6.716147 19.046871 6.812500 18.432294 6.812500 18.015625 C6.812500 17.807291 6.796875 17.648438 6.765625 17.539062 C6.734375 17.429687 6.661459 17.375000 6.546875 17.375000 C6.317707 17.375000 6.101564 17.549477 5.898438 17.898438 C5.695311 18.247398 5.463543 18.648435 5.203125 19.101562 C4.942707 19.554690 4.625002 19.955727 4.250000 20.304688 C3.874998 20.653648 3.406253 20.828125 2.843750 20.828125 C2.343748 20.828125 1.945314 20.679689 1.648438 20.382812 C1.351561 20.085936 1.203125 19.713544 1.203125 19.265625 C1.203125 18.817706 1.348957 18.411460 1.640625 18.046875 C1.932293 17.682290 2.320310 17.286460 2.804688 16.859375 C3.289065 16.432290 3.822914 15.901045 4.406250 15.265625 L4.562500 15.093750 C5.010419 14.604164 5.463539 14.039066 5.921875 13.398438 C6.380211 12.757809 6.765623 12.166669 7.078125 11.625000 C7.390627 11.083331 7.546875 10.729167 7.546875 10.562500 C6.567703 10.135415 5.768232 9.466150 5.148438 8.554688 C4.528643 7.643225 4.218750 6.619797 4.218750 5.484375 C4.218750 4.473953 4.466143 3.554692 4.960938 2.726562 C5.455732 1.898433 6.122392 1.236982 6.960938 0.742188 C7.799483 0.247393 8.723953 -0.000000 9.734375 -0.000000 C10.744797 -0.000000 11.666662 0.247393 12.500000 0.742188 C13.333337 1.236982 13.997393 1.898433 14.492188 2.726562 C14.986982 3.554692 15.234375 4.473953 15.234375 5.484375 C15.234375 6.494797 14.992190 7.414058 14.507812 8.242188 C14.023435 9.070317 13.380212 9.729164 12.578125 10.218750 C12.578125 10.572918 12.778644 10.960935 13.179688 11.382812 C13.580731 11.804690 14.078122 12.283851 14.671875 12.820312 C15.265628 13.356774 15.856768 13.966142 16.445312 14.648438 C17.033857 15.330733 17.528644 16.109371 17.929688 16.984375 C18.330731 17.859379 18.531250 18.843745 18.531250 19.937500 C18.531250 20.677087 18.377606 21.260415 18.070312 21.687500 C17.763019 22.114585 17.312503 22.328125 16.718750 22.328125 C16.156247 22.328125 15.731772 22.114585 15.445312 21.687500 C15.158853 21.260415 15.015625 20.583338 15.015625 19.656250 C15.015625 18.854163 14.919272 18.218752 14.726562 17.750000 C14.533853 17.281248 14.291668 17.046875 14.000000 17.046875 C13.895833 17.046875 13.809896 17.088541 13.742188 17.171875 C13.674479 17.255209 13.640625 17.359374 13.640625 17.484375 C13.640625 17.723960 13.729166 18.072914 13.906250 18.531250 C14.083334 18.989586 14.171875 19.562497 14.171875 20.250000 C14.171875 20.572918 14.145834 20.898436 14.093750 21.226562 C14.041666 21.554689 13.973959 21.874998 13.890625 22.187500 C14.286460 22.968754 14.734372 23.726559 15.234375 24.460938 C15.734378 25.195316 16.302080 25.921871 16.937500 26.640625 C17.489586 27.265628 17.880207 27.794269 18.109375 28.226562 C18.338543 28.658856 18.453125 29.078123 18.453125 29.484375 C18.453125 30.005211 18.317710 30.523435 18.046875 31.039062 C17.776040 31.554690 17.429690 31.979165 17.007812 32.312500 C16.585935 32.645835 16.156252 32.812500 15.718750 32.812500 C15.208331 32.812500 14.778648 32.640627 14.429688 32.296875 C14.080727 31.953123 13.906250 31.526044 13.906250 31.015625 C13.906250 30.744790 13.942708 30.497397 14.015625 30.273438 C14.088542 30.049478 14.125000 29.828126 14.125000 29.609375 C14.125000 29.317707 13.950523 28.908857 13.601562 28.382812 C13.252602 27.856768 12.822919 27.315107 12.312500 26.757812 C11.802081 26.200518 11.296877 25.729169 10.796875 25.343750 C10.296872 24.958331 9.895835 24.765625 9.593750 24.765625 C9.302082 24.765625 8.960939 24.976560 8.570312 25.398438 C8.179686 25.820315 7.742190 26.445308 7.257812 27.273438 C6.773435 28.101567 6.234378 29.135410 5.640625 30.375000 C5.161456 31.375005 4.760418 32.031248 4.437500 32.343750 C4.114582 32.656252 3.734377 32.812500 3.296875 32.812500 Z M29.578125 27.343750" /></svg>