<svg version="1.1" xmlns="http://www.w3.org/2000/svg" style="fill:rgba(0,0,0,1.0)" width="256" height="256" viewBox="0 0 38.53125 32.8125"><path fill="rgb(255, 255, 255)" d="M2.593750 32.812500 C1.843746 32.812500 1.223961 32.570315 0.734375 32.085938 C0.244789 31.601560 0.000000 30.989587 0.000000 30.250000 L0.000000 17.156250 C0.989588 14.729155 2.044265 12.890631 3.164062 11.640625 C4.283860 10.390619 5.442702 9.765625 6.640625 9.765625 C7.161461 9.765625 7.768226 9.895832 8.460938 10.156250 C9.153649 10.416668 9.843747 10.697915 10.531250 11.000000 C11.145836 11.270835 11.729164 11.510416 12.281250 11.718750 C12.833336 11.927084 13.286457 12.031250 13.640625 12.031250 L12.843750 13.828125 C12.541665 13.828125 12.171877 13.744792 11.734375 13.578125 C11.296873 13.411458 10.718754 13.156252 10.000000 12.812500 C9.031245 12.354164 8.296878 12.033855 7.796875 11.851562 C7.296872 11.669270 6.911460 11.578125 6.640625 11.578125 C5.859371 11.578125 5.028650 12.119786 4.148438 13.203125 C3.268225 14.286464 2.406254 15.838532 1.562500 17.859375 L1.562500 30.093750 C1.562500 30.406252 1.679686 30.677082 1.914062 30.906250 C2.148439 31.135418 2.427082 31.250000 2.750000 31.250000 L33.687500 31.250000 C34.010418 31.250000 34.289061 31.135418 34.523438 30.906250 C34.757814 30.677082 34.875000 30.406252 34.875000 30.093750 L34.875000 13.140625 C33.999996 11.494783 33.078130 10.091152 32.109375 8.929688 C31.140620 7.768223 30.182296 6.880211 29.234375 6.265625 C28.286454 5.651039 27.401046 5.343750 26.578125 5.343750 C26.130206 5.343750 25.593753 5.507811 24.968750 5.835938 C24.343747 6.164064 23.716149 6.601560 23.085938 7.148438 C22.455726 7.695315 21.890628 8.307288 21.390625 8.984375 L19.953125 7.953125 C20.567711 7.109371 21.263017 6.356774 22.039062 5.695312 C22.815108 5.033851 23.601559 4.510419 24.398438 4.125000 C25.195316 3.739581 25.921872 3.546875 26.578125 3.546875 C27.630214 3.546875 28.723953 3.888017 29.859375 4.570312 C30.994797 5.252608 32.122390 6.234369 33.242188 7.515625 C34.361985 8.796881 35.427078 10.333324 36.437500 12.125000 L36.437500 30.234375 C36.437500 30.984379 36.195315 31.601560 35.710938 32.085938 C35.226560 32.570315 34.609379 32.812500 33.859375 32.812500 Z M8.937500 32.812500 C7.812494 32.812500 6.789067 32.539065 5.867188 31.992188 C4.945308 31.445310 4.210940 30.710942 3.664062 29.789062 C3.117185 28.867183 2.843750 27.843756 2.843750 26.718750 C2.843750 25.604161 3.114581 24.588546 3.656250 23.671875 C4.197919 22.755204 4.924475 22.023440 5.835938 21.476562 C6.747400 20.929685 7.760411 20.651042 8.875000 20.640625 L8.406250 22.640625 C7.739580 22.723959 7.132815 22.958331 6.585938 23.343750 C6.039060 23.729169 5.604168 24.213539 5.281250 24.796875 C4.958332 25.380211 4.796875 26.020830 4.796875 26.718750 C4.796875 27.468754 4.984373 28.156247 5.359375 28.781250 C5.734377 29.406253 6.234372 29.906248 6.859375 30.281250 C7.484378 30.656252 8.177080 30.843750 8.937500 30.843750 C9.687504 30.843750 10.372393 30.656252 10.992188 30.281250 C11.611982 29.906248 12.106769 29.406253 12.476562 28.781250 C12.846356 28.156247 13.031250 27.468754 13.031250 26.718750 C13.031250 26.020830 12.869793 25.377607 12.546875 24.789062 C12.223957 24.200518 11.796878 23.723960 11.265625 23.359375 L11.734375 21.328125 C12.703130 21.838544 13.489580 22.572912 14.093750 23.531250 C14.697920 24.489588 15.000000 25.552078 15.000000 26.718750 C15.000000 27.843756 14.726565 28.867183 14.179688 29.789062 C13.632810 30.710942 12.901046 31.445310 11.984375 31.992188 C11.067704 32.539065 10.052089 32.812500 8.937500 32.812500 Z M16.625000 30.218750 C16.333332 30.218750 16.080730 30.111980 15.867188 29.898438 C15.653645 29.684895 15.546875 29.427085 15.546875 29.125000 L15.546875 26.703125 L20.750000 26.703125 L20.750000 29.125000 C20.750000 29.437502 20.651043 29.697916 20.453125 29.906250 C20.255207 30.114584 20.000002 30.218750 19.687500 30.218750 Z M9.156250 28.484375 C8.489580 28.484375 7.976564 28.226565 7.617188 27.710938 C7.257811 27.195310 7.161458 26.609378 7.328125 25.953125 L9.875000 16.406250 L11.421875 16.031250 L8.687500 26.343750 C8.645833 26.531251 8.671875 26.687499 8.765625 26.812500 C8.859375 26.937501 8.989582 27.000000 9.156250 27.000000 C9.385418 27.000000 9.526041 26.895834 9.578125 26.687500 L11.796875 18.125000 L16.937500 25.140625 L16.656250 27.187500 L12.296875 21.734375 L10.937500 27.062500 C10.833333 27.468752 10.617189 27.807290 10.289062 28.078125 C9.960936 28.348960 9.583335 28.484375 9.156250 28.484375 Z M16.796875 28.968750 L19.500000 28.968750 L19.500000 27.781250 L16.796875 27.781250 Z M17.078125 23.890625 L12.765625 17.984375 L17.640625 18.656250 L17.515625 19.734375 L15.187500 19.421875 L17.328125 22.390625 Z M10.281250 16.921875 C9.864581 16.921875 9.505210 16.773439 9.203125 16.476562 C8.901040 16.179686 8.750000 15.817710 8.750000 15.390625 C8.750000 14.963540 8.901040 14.601564 9.203125 14.304688 C9.505210 14.007811 9.864581 13.859375 10.281250 13.859375 C10.708335 13.859375 11.070311 14.007811 11.367188 14.304688 C11.664064 14.601564 11.812500 14.963540 11.812500 15.390625 C11.812500 15.817710 11.664064 16.179686 11.367188 16.476562 C11.070311 16.773439 10.708335 16.921875 10.281250 16.921875 Z M10.281250 15.906250 C10.427084 15.906250 10.552083 15.856771 10.656250 15.757812 C10.760417 15.658854 10.812500 15.536459 10.812500 15.390625 C10.812500 15.244791 10.760417 15.122396 10.656250 15.023438 C10.552083 14.924479 10.427084 14.875000 10.281250 14.875000 C9.937498 14.875000 9.765625 15.046873 9.765625 15.390625 C9.765625 15.734377 9.937498 15.906250 10.281250 15.906250 Z M18.953125 25.640625 L20.218750 24.140625 L21.875000 24.140625 C22.020834 23.786457 22.255207 23.427085 22.578125 23.062500 L21.734375 21.953125 L20.375000 23.812500 L20.031250 22.171875 L21.890625 19.625000 L26.359375 25.640625 Z M18.187500 17.796875 L12.125000 16.937500 L12.781250 14.359375 L14.531250 13.546875 L14.000000 15.703125 L18.843750 16.375000 Z M27.453125 32.812500 C26.401036 32.812500 25.432296 32.565107 24.546875 32.070312 C23.661454 31.575518 22.937503 30.906254 22.375000 30.062500 C21.812497 29.218746 21.489584 28.276047 21.406250 27.234375 L23.390625 27.234375 C23.473959 27.901045 23.705727 28.507810 24.085938 29.054688 C24.466148 29.601565 24.950518 30.036457 25.539062 30.359375 C26.127607 30.682293 26.765622 30.843750 27.453125 30.843750 C28.213545 30.843750 28.906247 30.656252 29.531250 30.281250 C30.156253 29.906248 30.653644 29.406253 31.023438 28.781250 C31.393231 28.156247 31.578125 27.468754 31.578125 26.718750 C31.578125 25.968746 31.393231 25.283857 31.023438 24.664062 C30.653644 24.044268 30.156253 23.546877 29.531250 23.171875 C28.906247 22.796873 28.213545 22.609375 27.453125 22.609375 C27.244791 22.609375 27.039064 22.627604 26.835938 22.664062 C26.632811 22.700521 26.437501 22.744791 26.250000 22.796875 L25.078125 21.109375 C25.848962 20.796873 26.640621 20.640625 27.453125 20.640625 C28.567714 20.640625 29.585933 20.914060 30.507812 21.460938 C31.429692 22.007815 32.166664 22.739579 32.718750 23.656250 C33.270836 24.572921 33.546875 25.593744 33.546875 26.718750 C33.546875 27.843756 33.273440 28.867183 32.726562 29.789062 C32.179685 30.710942 31.445317 31.445310 30.523438 31.992188 C29.601558 32.539065 28.578131 32.812500 27.453125 32.812500 Z M17.718750 27.421875 C16.999996 27.421875 16.497397 27.234377 16.210938 26.859375 C15.924478 26.484373 15.781250 26.098960 15.781250 25.703125 C15.781250 25.338540 15.859374 25.031251 16.015625 24.781250 C16.171876 24.531249 16.325520 24.317709 16.476562 24.140625 C16.627605 23.963541 16.703125 23.796876 16.703125 23.640625 C16.703125 23.244790 16.684896 22.924480 16.648438 22.679688 C16.611979 22.434895 16.572917 22.174481 16.531250 21.898438 C16.489583 21.622394 16.468750 21.239586 16.468750 20.750000 C16.468750 20.270831 16.572916 19.763024 16.781250 19.226562 C16.989584 18.690101 17.234374 18.158857 17.515625 17.632812 C17.796876 17.106768 18.041666 16.619794 18.250000 16.171875 C18.458334 15.723956 18.562500 15.348960 18.562500 15.046875 C18.562500 14.526039 18.484376 14.078127 18.328125 13.703125 C18.171874 13.328123 17.932293 12.916669 17.609375 12.468750 L14.218750 14.750000 C14.031249 14.875001 13.763023 15.031249 13.414062 15.218750 C13.065102 15.406251 12.713543 15.570312 12.359375 15.710938 C12.005207 15.851563 11.718751 15.921875 11.500000 15.921875 L10.296875 14.328125 L9.062500 15.546875 C8.770832 15.546875 8.541668 15.473959 8.375000 15.328125 C8.208333 15.182291 8.125000 14.968751 8.125000 14.687500 C8.125000 14.114580 8.388018 13.674481 8.914062 13.367188 C9.440107 13.059894 10.406243 12.906250 11.812500 12.906250 L15.468750 10.125000 C14.281244 9.927082 13.333337 9.429691 12.625000 8.632812 C11.916663 7.835934 11.458334 6.963546 11.250000 6.015625 L19.890625 4.562500 C19.890625 4.791668 19.851563 5.078123 19.773438 5.421875 C19.695312 5.765627 19.598959 6.041666 19.484375 6.250000 C21.609386 7.322922 23.182287 8.427078 24.203125 9.562500 C25.223963 10.697922 25.734375 11.927077 25.734375 13.250000 C25.734375 14.000004 25.546877 14.677080 25.171875 15.281250 C24.796873 15.885420 24.330732 16.440102 23.773438 16.945312 C23.216143 17.450523 22.664065 17.934894 22.117188 18.398438 C21.570310 18.861981 21.117189 19.322914 20.757812 19.781250 C20.398436 20.239586 20.229167 20.718748 20.250000 21.218750 L20.421875 24.750000 C20.442708 25.031251 20.380209 25.382810 20.234375 25.804688 C20.088541 26.226565 19.820314 26.601561 19.429688 26.929688 C19.039061 27.257814 18.468754 27.421875 17.718750 27.421875 Z M19.968750 28.093750 L19.390625 26.531250 L27.187500 26.531250 C27.406251 26.531250 27.562500 26.447918 27.656250 26.281250 C27.750000 26.114582 27.723959 25.932293 27.578125 25.734375 L22.453125 18.843750 L23.312500 17.656250 L24.796875 17.671875 L24.203125 18.484375 L28.937500 24.828125 C29.239585 25.234377 29.401042 25.692706 29.421875 26.203125 C29.442708 26.713544 29.278648 27.156248 28.929688 27.531250 C28.580727 27.906252 28.000004 28.093750 27.187500 28.093750 Z M10.875000 6.843750 C10.770833 6.541665 10.697917 6.244793 10.656250 5.953125 C10.614583 5.661457 10.593750 5.380210 10.593750 5.109375 C10.593750 4.192704 10.802081 3.348962 11.218750 2.578125 C11.635419 1.807288 12.205726 1.184898 12.929688 0.710938 C13.653649 0.236977 14.479162 -0.000000 15.406250 -0.000000 C16.291671 -0.000000 17.117184 0.236977 17.882812 0.710938 C18.648441 1.184898 19.270831 1.802080 19.750000 2.562500 C20.229169 3.322920 20.468750 4.145829 20.468750 5.031250 C20.468750 5.104167 20.468750 5.174479 20.468750 5.242188 C20.468750 5.309896 20.463542 5.385416 20.453125 5.468750 C19.953122 5.604167 19.268234 5.752603 18.398438 5.914062 C17.528641 6.075522 16.604172 6.226562 15.625000 6.367188 C14.645828 6.507813 13.726567 6.622395 12.867188 6.710938 C12.007808 6.799480 11.343752 6.843750 10.875000 6.843750 Z M16.453125 9.312500 C17.098962 8.729164 17.609373 8.098962 17.984375 7.421875 C18.359377 6.744788 18.598958 6.062503 18.703125 5.375000 L17.734375 5.484375 C17.671875 5.682293 17.609375 5.872395 17.546875 6.054688 C17.484375 6.236980 17.416667 6.395833 17.343750 6.531250 C17.218749 6.468750 17.101563 6.375001 16.992188 6.250000 C16.882812 6.124999 16.776042 5.979167 16.671875 5.812500 L15.578125 5.921875 C15.776043 6.223960 15.976561 6.499999 16.179688 6.750000 C16.382814 7.000001 16.598957 7.213541 16.828125 7.390625 C16.630207 7.651043 16.481771 7.890624 16.382812 8.109375 C16.283854 8.328126 16.234375 8.526041 16.234375 8.703125 C16.234375 8.901043 16.307291 9.104166 16.453125 9.312500 Z M11.968750 5.390625 C12.354169 5.390625 12.848955 5.359375 13.453125 5.296875 C14.057295 5.234375 14.705726 5.153646 15.398438 5.054688 C16.091149 4.955729 16.763018 4.843751 17.414062 4.718750 C18.065107 4.593749 18.624998 4.468751 19.093750 4.343750 C18.958333 3.749997 18.703127 3.221356 18.328125 2.757812 C17.953123 2.294269 17.510419 1.927085 17.000000 1.656250 C16.489581 1.385415 15.958336 1.250000 15.406250 1.250000 C14.770830 1.250000 14.190107 1.424477 13.664062 1.773438 C13.138018 2.122398 12.716147 2.578122 12.398438 3.140625 C12.080728 3.703128 11.921875 4.307288 11.921875 4.953125 C11.921875 5.026042 11.924479 5.096354 11.929688 5.164062 C11.934896 5.231771 11.947917 5.307291 11.968750 5.390625 Z M24.593750 18.234375 L21.640625 17.703125 L23.515625 16.468750 L24.812500 16.593750 C25.250002 16.635417 25.611978 16.596355 25.898438 16.476562 C26.184897 16.356770 26.328125 16.140627 26.328125 15.828125 C26.328125 15.619791 26.252605 15.434897 26.101562 15.273438 C25.950520 15.111978 25.723960 15.031250 25.421875 15.031250 L23.859375 15.031250 L24.140625 13.546875 L25.421875 13.546875 C26.255212 13.546875 26.901039 13.755206 27.359375 14.171875 C27.817711 14.588544 28.046875 15.140622 28.046875 15.828125 C28.046875 16.723963 27.708337 17.390623 27.031250 17.828125 C26.354163 18.265627 25.541671 18.401043 24.593750 18.234375 Z M38.531250 27.343750" /></svg>