<svg version="1.1" xmlns="http://www.w3.org/2000/svg" style="fill:rgba(0,0,0,1.0)" width="256" height="256" viewBox="0 0 36.171875 32.8125"><path fill="rgb(255, 255, 255)" d="M5.734375 26.718750 C4.338535 26.510416 3.263025 26.119795 2.507812 25.546875 C1.752600 24.973955 1.375000 24.270838 1.375000 23.437500 C1.375000 23.249999 1.398437 23.070313 1.445312 22.898438 C1.492188 22.726562 1.515625 22.578126 1.515625 22.453125 C1.515625 22.171874 1.390626 21.893231 1.140625 21.617188 C0.890624 21.341144 0.638022 21.010419 0.382812 20.625000 C0.127603 20.239581 0.000000 19.760420 0.000000 19.187500 C0.000000 19.093750 0.005208 18.994792 0.015625 18.890625 C0.026042 18.786458 0.041667 18.682292 0.062500 18.578125 C0.895838 14.682272 1.885411 11.473971 3.031250 8.953125 C4.177089 6.432279 5.598950 4.515632 7.296875 3.203125 C8.994800 1.890618 11.083321 1.098960 13.562500 0.828125 L13.218750 2.593750 C11.135406 2.906252 9.388028 3.669265 7.976562 4.882812 C6.565097 6.096360 5.372401 7.848947 4.398438 10.140625 C3.424474 12.432303 2.541671 15.348941 1.750000 18.890625 C1.718750 19.026042 1.703125 19.151041 1.703125 19.265625 C1.703125 19.588543 1.835936 19.898436 2.101562 20.195312 C2.367189 20.492189 2.630207 20.802082 2.890625 21.125000 C3.151043 21.447918 3.281250 21.822915 3.281250 22.250000 C3.281250 22.458334 3.252604 22.664061 3.195312 22.867188 C3.138021 23.070314 3.109375 23.239583 3.109375 23.375000 C3.109375 24.187504 4.067699 24.739582 5.984375 25.031250 Z M15.859375 32.812500 C12.723943 32.812500 10.242197 32.333338 8.414062 31.375000 C6.585928 30.416662 5.583334 29.072925 5.406250 27.343750 C5.302083 26.260411 5.213542 25.080736 5.140625 23.804688 C5.067708 22.528639 5.031250 21.072925 5.031250 19.437500 L6.890625 18.984375 C6.890625 20.713550 6.924479 22.244785 6.992188 23.578125 C7.059896 24.911465 7.156249 26.114578 7.281250 27.187500 C7.406251 28.281255 8.213534 29.179684 9.703125 29.882812 C11.192716 30.585941 13.244779 30.937500 15.859375 30.937500 C17.932302 30.937500 19.692701 30.770835 21.140625 30.437500 C22.588549 30.104165 23.692705 29.656253 24.453125 29.093750 C25.213545 28.531247 25.593750 27.916670 25.593750 27.250000 C25.593750 27.010415 25.554688 26.763022 25.476562 26.507812 C25.398437 26.252603 25.291667 25.989585 25.156250 25.718750 C24.989582 25.385415 24.846355 25.026044 24.726562 24.640625 C24.606770 24.255206 24.546875 23.838544 24.546875 23.390625 L24.546875 18.984375 L26.515625 19.437500 L26.515625 22.296875 C26.515625 23.078129 26.539062 23.677081 26.585938 24.093750 C26.632813 24.510419 26.692708 24.820311 26.765625 25.023438 C26.838542 25.226564 26.911458 25.406249 26.984375 25.562500 C27.119792 25.822918 27.234375 26.085936 27.328125 26.351562 C27.421875 26.617189 27.468750 26.916665 27.468750 27.250000 C27.468750 28.364589 27.010421 29.338538 26.093750 30.171875 C25.177079 31.005212 23.854175 31.653644 22.125000 32.117188 C20.395825 32.580731 18.307304 32.812500 15.859375 32.812500 Z M15.859375 22.906250 C14.973954 22.906250 14.145837 22.731773 13.375000 22.382812 C12.604163 22.033852 11.921878 21.500004 11.328125 20.781250 L12.437500 19.812500 C12.916669 20.385420 13.432289 20.796874 13.984375 21.046875 C14.536461 21.296876 15.161455 21.421875 15.859375 21.421875 C16.567712 21.421875 17.197914 21.296876 17.750000 21.046875 C18.302086 20.796874 18.812498 20.385420 19.281250 19.812500 L20.390625 20.781250 C19.796872 21.500004 19.117191 22.033852 18.351562 22.382812 C17.585934 22.731773 16.755213 22.906250 15.859375 22.906250 Z M5.906250 23.421875 C5.187496 23.140624 4.617190 22.752607 4.195312 22.257812 C3.773435 21.763018 3.562500 21.218753 3.562500 20.625000 C3.562500 19.864580 3.872393 19.250002 4.492188 18.781250 C5.111982 18.312498 5.874995 18.078125 6.781250 18.078125 L8.015625 18.078125 C8.380210 15.276028 8.783852 12.971363 9.226562 11.164062 C9.669273 9.356762 10.210934 7.950526 10.851562 6.945312 C11.492191 5.940099 12.281245 5.244794 13.218750 4.859375 L14.390625 6.296875 C13.734372 6.473959 13.164065 6.833331 12.679688 7.375000 C12.195310 7.916669 11.768231 8.703120 11.398438 9.734375 C11.028644 10.765630 10.695314 12.104158 10.398438 13.750000 C10.101561 15.395842 9.812501 17.411446 9.531250 19.796875 L6.781250 19.796875 C6.333331 19.796875 5.971356 19.877603 5.695312 20.039062 C5.419269 20.200522 5.281250 20.395832 5.281250 20.625000 C5.281250 20.822918 5.390624 21.033853 5.609375 21.257812 C5.828126 21.481772 6.135415 21.671874 6.531250 21.828125 Z M12.078125 18.046875 C11.640623 18.046875 11.278647 17.882814 10.992188 17.554688 C10.705728 17.226561 10.562500 16.838544 10.562500 16.390625 C10.562500 15.932289 10.705728 15.541668 10.992188 15.218750 C11.278647 14.895832 11.640623 14.734375 12.078125 14.734375 C12.515627 14.734375 12.877603 14.895832 13.164062 15.218750 C13.450522 15.541668 13.593750 15.932289 13.593750 16.390625 C13.593750 16.838544 13.450522 17.226561 13.164062 17.554688 C12.877603 17.882814 12.515627 18.046875 12.078125 18.046875 Z M19.250000 18.046875 C18.812498 18.046875 18.450522 17.882814 18.164062 17.554688 C17.877603 17.226561 17.734375 16.838544 17.734375 16.390625 C17.734375 15.932289 17.877603 15.541668 18.164062 15.218750 C18.450522 14.895832 18.812498 14.734375 19.250000 14.734375 C19.687502 14.734375 20.049478 14.895832 20.335938 15.218750 C20.622397 15.541668 20.765625 15.932289 20.765625 16.390625 C20.765625 16.838544 20.622397 17.226561 20.335938 17.554688 C20.049478 17.882814 19.687502 18.046875 19.250000 18.046875 Z M21.500000 12.718750 C21.062498 12.312498 20.658856 11.846357 20.289062 11.320312 C19.919269 10.794268 19.625001 10.234378 19.406250 9.640625 C18.718747 10.213545 17.989587 10.716144 17.218750 11.148438 C16.447913 11.580731 15.747399 11.919270 15.117188 12.164062 C14.486976 12.408855 14.036460 12.531250 13.765625 12.531250 C13.567707 12.531250 13.468750 12.437501 13.468750 12.250000 C13.468750 12.135416 13.489583 12.002605 13.531250 11.851562 C13.572917 11.700520 13.635416 11.526043 13.718750 11.328125 L15.062500 8.187500 C14.041662 8.666669 13.104171 9.151039 12.250000 9.640625 C11.395829 10.130211 10.614587 10.630206 9.906250 11.140625 L11.843750 7.000000 L13.406250 6.093750 L16.375000 5.984375 L19.234375 6.765625 L21.359375 10.015625 Z M25.796875 23.421875 L25.171875 21.828125 C25.567710 21.671874 25.874999 21.481772 26.093750 21.257812 C26.312501 21.033853 26.421875 20.822918 26.421875 20.625000 C26.421875 20.395832 26.286460 20.200522 26.015625 20.039062 C25.744790 19.877603 25.380211 19.796875 24.921875 19.796875 L22.171875 19.796875 C21.890624 17.411446 21.601564 15.395842 21.304688 13.750000 C21.007811 12.104158 20.674481 10.765630 20.304688 9.734375 C19.934894 8.703120 19.507815 7.916669 19.023438 7.375000 C18.539060 6.833331 17.968753 6.473959 17.312500 6.296875 L18.484375 4.859375 C19.432296 5.244794 20.223955 5.940099 20.859375 6.945312 C21.494795 7.950526 22.033852 9.356762 22.476562 11.164062 C22.919273 12.971363 23.322915 15.276028 23.687500 18.078125 L24.921875 18.078125 C25.828130 18.078125 26.591143 18.312498 27.210938 18.781250 C27.830732 19.250002 28.140625 19.864580 28.140625 20.625000 C28.140625 21.218753 27.929690 21.763018 27.507812 22.257812 C27.085935 22.752607 26.515629 23.140624 25.796875 23.421875 Z M25.984375 26.718750 L25.734375 25.031250 C27.651051 24.739582 28.609375 24.187504 28.609375 23.375000 C28.609375 23.239583 28.580729 23.070314 28.523438 22.867188 C28.466146 22.664061 28.437500 22.458334 28.437500 22.250000 C28.437500 21.822915 28.570311 21.447918 28.835938 21.125000 C29.101564 20.802082 29.364582 20.492189 29.625000 20.195312 C29.885418 19.898436 30.015625 19.588543 30.015625 19.265625 C30.015625 19.151041 30.000000 19.026042 29.968750 18.890625 C29.187496 15.348941 28.307297 12.432303 27.328125 10.140625 C26.348953 7.848947 25.153653 6.096360 23.742188 4.882812 C22.330722 3.669265 20.583344 2.906252 18.500000 2.593750 L18.156250 0.828125 C20.645846 1.098960 22.736971 1.890618 24.429688 3.203125 C26.122404 4.515632 27.541661 6.432279 28.687500 8.953125 C29.833339 11.473971 30.822912 14.682272 31.656250 18.578125 C31.677083 18.682292 31.692708 18.786458 31.703125 18.890625 C31.713542 18.994792 31.718750 19.093750 31.718750 19.187500 C31.718750 19.760420 31.593751 20.239581 31.343750 20.625000 C31.093749 21.010419 30.841147 21.341144 30.585938 21.617188 C30.330728 21.893231 30.203125 22.171874 30.203125 22.453125 C30.203125 22.578126 30.226562 22.726562 30.273438 22.898438 C30.320313 23.070313 30.343750 23.249999 30.343750 23.437500 C30.343750 24.270838 29.966150 24.973955 29.210938 25.546875 C28.455725 26.119795 27.380215 26.510416 25.984375 26.718750 Z M14.640625 6.593750 C14.067705 6.593750 13.578127 6.395835 13.171875 6.000000 C12.765623 5.604165 12.562500 5.119795 12.562500 4.546875 C12.562500 4.307290 12.601562 4.088543 12.679688 3.890625 C12.757813 3.692707 12.874999 3.505209 13.031250 3.328125 C12.718748 2.963540 12.562500 2.541669 12.562500 2.062500 C12.562500 1.468747 12.765623 0.976564 13.171875 0.585938 C13.578127 0.195311 14.067705 -0.000000 14.640625 -0.000000 C15.098961 -0.000000 15.505207 0.156248 15.859375 0.468750 C16.223960 0.156248 16.630206 -0.000000 17.078125 -0.000000 C17.661461 -0.000000 18.153644 0.195311 18.554688 0.585938 C18.955731 0.976564 19.156250 1.468747 19.156250 2.062500 C19.156250 2.541669 19.000002 2.963540 18.687500 3.328125 C18.843751 3.505209 18.960937 3.692707 19.039062 3.890625 C19.117188 4.088543 19.156250 4.307290 19.156250 4.546875 C19.156250 5.119795 18.955731 5.604165 18.554688 6.000000 C18.153644 6.395835 17.661461 6.593750 17.078125 6.593750 C16.630206 6.593750 16.223960 6.437502 15.859375 6.125000 C15.505207 6.437502 15.098961 6.593750 14.640625 6.593750 Z M14.609375 5.343750 C14.755209 5.343750 14.906249 5.289063 15.062500 5.179688 C15.218751 5.070312 15.484373 4.828127 15.859375 4.453125 C16.234377 4.828127 16.499999 5.070312 16.656250 5.179688 C16.812501 5.289063 16.963541 5.343750 17.109375 5.343750 C17.348960 5.343750 17.546874 5.268230 17.703125 5.117188 C17.859376 4.966145 17.937500 4.776043 17.937500 4.546875 C17.937500 4.401041 17.885417 4.255209 17.781250 4.109375 C17.677083 3.963541 17.437502 3.703127 17.062500 3.328125 C17.447919 2.942706 17.690104 2.677084 17.789062 2.531250 C17.888021 2.385416 17.937500 2.229167 17.937500 2.062500 C17.937500 1.812499 17.864584 1.614584 17.718750 1.468750 C17.572916 1.322916 17.369793 1.250000 17.109375 1.250000 C16.963541 1.250000 16.812501 1.304687 16.656250 1.414062 C16.499999 1.523438 16.234377 1.765623 15.859375 2.140625 C15.484373 1.765623 15.218751 1.523438 15.062500 1.414062 C14.906249 1.304687 14.755209 1.250000 14.609375 1.250000 C14.348957 1.250000 14.145834 1.322916 14.000000 1.468750 C13.854166 1.614584 13.781250 1.812499 13.781250 2.062500 C13.781250 2.229167 13.830729 2.385416 13.929688 2.531250 C14.028646 2.677084 14.270831 2.942706 14.656250 3.328125 C14.281248 3.703127 14.041667 3.963541 13.937500 4.109375 C13.833333 4.255209 13.781250 4.401041 13.781250 4.546875 C13.781250 4.776043 13.859374 4.966145 14.015625 5.117188 C14.171876 5.268230 14.369790 5.343750 14.609375 5.343750 Z M15.859375 3.875000 C15.703124 3.875000 15.570313 3.820313 15.460938 3.710938 C15.351562 3.601562 15.296875 3.468751 15.296875 3.312500 C15.296875 3.156249 15.351562 3.023438 15.460938 2.914062 C15.570313 2.804687 15.703124 2.750000 15.859375 2.750000 C16.015626 2.750000 16.148437 2.804687 16.257812 2.914062 C16.367188 3.023438 16.421875 3.156249 16.421875 3.312500 C16.421875 3.468751 16.367188 3.601562 16.257812 3.710938 C16.148437 3.820313 16.015626 3.875000 15.859375 3.875000 Z M36.171875 27.343750" /></svg>