<svg version="1.1" xmlns="http://www.w3.org/2000/svg" style="fill:rgba(0,0,0,1.0)" width="256" height="256" viewBox="0 0 35.8125 32.8125"><path fill="rgb(255, 255, 255)" d="M4.718750 24.390625 C4.124997 24.390625 3.622398 24.187502 3.210938 23.781250 C2.799477 23.374998 2.593750 22.885420 2.593750 22.312500 C2.593750 22.031249 2.640625 21.776043 2.734375 21.546875 C2.203122 21.484375 1.760418 21.255210 1.406250 20.859375 C1.052082 20.463540 0.875000 20.005211 0.875000 19.484375 C0.875000 19.026039 0.994790 18.630210 1.234375 18.296875 C0.880207 18.119791 0.593751 17.864585 0.375000 17.531250 C0.156249 17.197915 0.046875 16.828127 0.046875 16.421875 C0.046875 15.807289 0.265623 15.291669 0.703125 14.875000 C0.234373 14.468748 0.000000 13.953128 0.000000 13.328125 C0.000000 12.921873 0.104166 12.552085 0.312500 12.218750 C0.520834 11.885415 0.786457 11.630209 1.109375 11.453125 C0.859374 11.088540 0.734375 10.682294 0.734375 10.234375 C0.734375 9.744789 0.888019 9.312502 1.195312 8.937500 C1.502606 8.562498 1.885414 8.322917 2.343750 8.218750 C2.291666 7.989582 2.265625 7.786459 2.265625 7.609375 C2.265625 7.036455 2.471352 6.546877 2.882812 6.140625 C3.294273 5.734373 3.796872 5.531250 4.390625 5.531250 L4.468750 5.531250 C4.458333 5.479166 4.453125 5.395834 4.453125 5.281250 C4.453125 4.708330 4.658852 4.218752 5.070312 3.812500 C5.481773 3.406248 5.984372 3.203125 6.578125 3.203125 C6.765626 3.203125 6.927083 3.223958 7.062500 3.265625 C7.135417 2.776039 7.361977 2.361981 7.742188 2.023438 C8.122398 1.684894 8.572914 1.515625 9.093750 1.515625 C9.541669 1.515625 9.937498 1.645832 10.281250 1.906250 C10.395834 1.468748 10.635415 1.104168 11.000000 0.812500 C11.364585 0.520832 11.786456 0.375000 12.265625 0.375000 C12.828128 0.375000 13.317706 0.583331 13.734375 1.000000 C13.911459 0.697915 14.153644 0.455730 14.460938 0.273438 C14.768231 0.091145 15.114581 -0.000000 15.500000 -0.000000 C15.885419 -0.000000 16.234373 0.091145 16.546875 0.273438 C16.859377 0.455730 17.098958 0.697915 17.265625 1.000000 C17.453126 0.812499 17.671874 0.661459 17.921875 0.546875 C18.171876 0.432291 18.442707 0.375000 18.734375 0.375000 C19.223961 0.375000 19.651040 0.520832 20.015625 0.812500 C20.380210 1.104168 20.614583 1.468748 20.718750 1.906250 C21.062502 1.645832 21.458331 1.515625 21.906250 1.515625 C22.427086 1.515625 22.877602 1.684894 23.257812 2.023438 C23.638023 2.361981 23.864583 2.776039 23.937500 3.265625 C24.072917 3.223958 24.234374 3.203125 24.421875 3.203125 C25.015628 3.203125 25.518227 3.406248 25.929688 3.812500 C26.341148 4.218752 26.546875 4.708330 26.546875 5.281250 C26.546875 5.395834 26.541667 5.479166 26.531250 5.531250 L26.609375 5.531250 C27.203128 5.531250 27.705727 5.734373 28.117188 6.140625 C28.528648 6.546877 28.734375 7.036455 28.734375 7.609375 C28.734375 7.786459 28.708334 7.989582 28.656250 8.218750 C29.114586 8.322917 29.497394 8.562498 29.804688 8.937500 C30.111981 9.312502 30.265625 9.744789 30.265625 10.234375 C30.265625 10.682294 30.140626 11.088540 29.890625 11.453125 C30.223960 11.630209 30.492186 11.885415 30.695312 12.218750 C30.898439 12.552085 31.000000 12.921873 31.000000 13.328125 C31.000000 13.953128 30.765627 14.468748 30.296875 14.875000 C30.734377 15.291669 30.953125 15.807289 30.953125 16.421875 C30.953125 16.828127 30.843751 17.197915 30.625000 17.531250 C30.406249 17.864585 30.119793 18.119791 29.765625 18.296875 C30.005210 18.630210 30.125000 19.026039 30.125000 19.484375 C30.125000 20.005211 29.947918 20.463540 29.593750 20.859375 C29.239582 21.255210 28.796878 21.484375 28.265625 21.546875 C28.359375 21.776043 28.406250 22.031249 28.406250 22.312500 C28.406250 22.885420 28.200523 23.374998 27.789062 23.781250 C27.377602 24.187502 26.875003 24.390625 26.281250 24.390625 C26.114582 24.390625 25.927084 24.364584 25.718750 24.312500 L25.718750 20.156250 C25.166664 20.156250 24.742189 19.950523 24.445312 19.539062 C24.148436 19.127602 24.000000 18.640628 24.000000 18.078125 C24.000000 17.536456 24.114582 17.125001 24.343750 16.843750 C23.937498 16.572915 23.648438 16.273439 23.476562 15.945312 C23.304687 15.617186 23.218750 15.255210 23.218750 14.859375 C22.645830 14.661457 22.239585 14.302086 22.000000 13.781250 C21.791666 13.833334 21.604168 13.859375 21.437500 13.859375 C21.072915 13.859375 20.734377 13.768230 20.421875 13.585938 C20.109373 13.403645 19.859376 13.166668 19.671875 12.875000 C19.317707 13.135418 18.901044 13.265625 18.421875 13.265625 C17.786455 13.265625 17.265627 13.026044 16.859375 12.546875 C16.463540 12.869793 16.010419 13.031250 15.500000 13.031250 C14.989581 13.031250 14.536460 12.869793 14.140625 12.546875 C13.734373 13.026044 13.213545 13.265625 12.578125 13.265625 C12.098956 13.265625 11.682293 13.135418 11.328125 12.875000 C11.140624 13.166668 10.890627 13.403645 10.578125 13.585938 C10.265623 13.768230 9.927085 13.859375 9.562500 13.859375 C9.395832 13.859375 9.208334 13.833334 9.000000 13.781250 C8.760415 14.302086 8.354170 14.661457 7.781250 14.859375 C7.781250 15.255210 7.695313 15.617186 7.523438 15.945312 C7.351562 16.273439 7.062502 16.578124 6.656250 16.859375 C6.750000 16.963542 6.830729 17.124999 6.898438 17.343750 C6.966146 17.562501 7.000000 17.807290 7.000000 18.078125 C7.000000 18.640628 6.851564 19.127602 6.554688 19.539062 C6.257811 19.950523 5.833336 20.156250 5.281250 20.156250 L5.281250 24.312500 C5.072916 24.364584 4.885418 24.390625 4.718750 24.390625 Z M15.640625 32.812500 C12.505193 32.812500 10.023447 32.333338 8.195312 31.375000 C6.367178 30.416662 5.364584 29.072925 5.187500 27.343750 C5.093750 26.416662 5.018229 25.502609 4.960938 24.601562 C4.903646 23.700516 4.861979 22.721359 4.835938 21.664062 C4.809896 20.606766 4.796875 19.385424 4.796875 18.000000 L6.671875 18.000000 C6.671875 19.375007 6.684896 20.591141 6.710938 21.648438 C6.736979 22.705734 6.778646 23.674475 6.835938 24.554688 C6.893229 25.434900 6.968750 26.312496 7.062500 27.187500 C7.187501 28.281255 7.994784 29.179684 9.484375 29.882812 C10.973966 30.585941 13.026029 30.937500 15.640625 30.937500 C17.713552 30.937500 19.473951 30.770835 20.921875 30.437500 C22.369799 30.104165 23.473955 29.656253 24.234375 29.093750 C24.994795 28.531247 25.375000 27.916670 25.375000 27.250000 C25.375000 27.010415 25.335938 26.763022 25.257812 26.507812 C25.179687 26.252603 25.072917 25.989585 24.937500 25.718750 C24.770832 25.385415 24.627605 25.026044 24.507812 24.640625 C24.388020 24.255206 24.328125 23.838544 24.328125 23.390625 L24.328125 13.437500 L26.203125 13.437500 L26.203125 23.390625 C26.203125 23.859377 26.260416 24.263019 26.375000 24.601562 C26.489584 24.940106 26.619791 25.260415 26.765625 25.562500 C26.901042 25.822918 27.015625 26.085936 27.109375 26.351562 C27.203125 26.617189 27.250000 26.916665 27.250000 27.250000 C27.250000 28.364589 26.791671 29.338538 25.875000 30.171875 C24.958329 31.005212 23.635425 31.653644 21.906250 32.117188 C20.177075 32.580731 18.088554 32.812500 15.640625 32.812500 Z M15.656250 22.640625 C14.760412 22.640625 13.927087 22.466148 13.156250 22.117188 C12.385413 21.768227 11.703128 21.234379 11.109375 20.515625 L12.218750 19.546875 C12.697919 20.119795 13.213539 20.531249 13.765625 20.781250 C14.317711 21.031251 14.942705 21.156250 15.640625 21.156250 C16.348962 21.156250 16.979164 21.031251 17.531250 20.781250 C18.083336 20.531249 18.593748 20.119795 19.062500 19.546875 L20.171875 20.515625 C19.578122 21.234379 18.898441 21.768227 18.132812 22.117188 C17.367184 22.466148 16.541671 22.640625 15.656250 22.640625 Z M11.625000 18.046875 C11.187498 18.046875 10.825522 17.882814 10.539062 17.554688 C10.252603 17.226561 10.109375 16.833336 10.109375 16.375000 C10.109375 15.927081 10.252603 15.541668 10.539062 15.218750 C10.825522 14.895832 11.187498 14.734375 11.625000 14.734375 C12.062502 14.734375 12.424478 14.895832 12.710938 15.218750 C12.997397 15.541668 13.140625 15.932289 13.140625 16.390625 C13.140625 16.838544 12.997397 17.226561 12.710938 17.554688 C12.424478 17.882814 12.062502 18.046875 11.625000 18.046875 Z M19.656250 18.046875 C19.218748 18.046875 18.856772 17.882814 18.570312 17.554688 C18.283853 17.226561 18.140625 16.833336 18.140625 16.375000 C18.140625 15.927081 18.283853 15.541668 18.570312 15.218750 C18.856772 14.895832 19.218748 14.734375 19.656250 14.734375 C20.093752 14.734375 20.455728 14.895832 20.742188 15.218750 C21.028647 15.541668 21.171875 15.932289 21.171875 16.390625 C21.171875 16.838544 21.033856 17.226561 20.757812 17.554688 C20.481769 17.882814 20.114586 18.046875 19.656250 18.046875 Z M35.812500 27.343750" /></svg>