<svg version="1.1" xmlns="http://www.w3.org/2000/svg" style="fill:rgba(0,0,0,1.0)" width="256" height="256" viewBox="0 0 32.734375 32.8125"><path fill="rgb(255, 255, 255)" d="M20.703125 29.781250 C20.203122 28.052075 19.604170 26.653651 18.906250 25.585938 C18.208330 24.518224 17.484379 23.736982 16.734375 23.242188 C15.984371 22.747393 15.265628 22.500000 14.578125 22.500000 C13.744788 21.104160 12.786464 19.976567 11.703125 19.117188 C10.619786 18.257808 9.208342 17.828125 7.468750 17.828125 C6.781247 17.828125 6.190107 17.864583 5.695312 17.937500 C5.200518 18.010417 4.726565 18.138020 4.273438 18.320312 C3.820310 18.502605 3.302086 18.765623 2.718750 19.109375 L2.718750 13.953125 C2.718750 13.744791 2.656251 13.575521 2.531250 13.445312 C2.406249 13.315104 2.244793 13.250000 2.046875 13.250000 C1.848957 13.250000 1.690105 13.315104 1.570312 13.445312 C1.450520 13.575521 1.390625 13.744791 1.390625 13.953125 L1.390625 22.265625 L0.140625 25.500000 L0.140625 13.828125 C0.140625 13.296872 0.320311 12.859377 0.679688 12.515625 C1.039064 12.171873 1.494789 12.000000 2.046875 12.000000 C2.598961 12.000000 3.054686 12.171873 3.414062 12.515625 C3.773439 12.859377 3.953125 13.296872 3.953125 13.828125 L3.953125 14.921875 L3.687500 14.921875 C3.864584 14.015620 4.153644 13.148442 4.554688 12.320312 C4.955731 11.492183 5.403643 10.752607 5.898438 10.101562 C6.393232 9.450518 6.882810 8.924481 7.367188 8.523438 C7.851565 8.122394 8.260415 7.890625 8.593750 7.828125 C8.145831 7.421873 7.791668 6.932295 7.531250 6.359375 C7.270832 5.786455 7.140625 5.177087 7.140625 4.531250 C7.140625 3.697913 7.346352 2.940108 7.757812 2.257812 C8.169273 1.575517 8.718747 1.028648 9.406250 0.617188 C10.093753 0.205727 10.854163 -0.000000 11.687500 -0.000000 C12.520838 -0.000000 13.278642 0.205727 13.960938 0.617188 C14.643233 1.028648 15.187498 1.575517 15.593750 2.257812 C16.000002 2.940108 16.203125 3.697913 16.203125 4.531250 C16.203125 5.364587 16.002606 6.124997 15.601562 6.812500 C15.200519 7.500003 14.658858 8.046873 13.976562 8.453125 C13.294267 8.859377 12.531254 9.062500 11.687500 9.062500 C11.895834 9.416668 12.031250 9.768227 12.093750 10.117188 C12.156250 10.466148 12.187500 10.802082 12.187500 11.125000 C12.187500 11.708336 12.085939 12.315101 11.882812 12.945312 C11.679686 13.575524 11.473959 14.320308 11.265625 15.179688 C11.057291 16.039067 10.953125 17.109369 10.953125 18.390625 C11.546878 18.244791 12.138018 18.135417 12.726562 18.062500 C13.315107 17.989583 13.776040 17.953125 14.109375 17.953125 C15.661466 17.953125 16.947912 18.697909 17.968750 20.187500 C18.989588 21.677091 19.807289 23.822903 20.421875 26.625000 C20.776043 26.520833 21.166665 26.468750 21.593750 26.468750 C22.208336 26.468750 22.703123 26.591145 23.078125 26.835938 C23.453127 27.080730 23.640625 27.395831 23.640625 27.781250 C23.640625 27.947918 23.588542 28.130207 23.484375 28.328125 C23.380208 28.526043 23.187501 28.687499 22.906250 28.812500 Z M20.671875 30.453125 L20.125000 28.984375 L24.140625 27.546875 C24.328126 27.484375 24.458333 27.557291 24.531250 27.765625 L24.828125 28.640625 C24.890625 28.828126 24.817709 28.958333 24.609375 29.031250 Z M16.375000 31.828125 L16.375000 30.187500 L18.140625 29.609375 L18.546875 31.109375 Z M14.937500 32.765625 C14.364580 32.765625 13.872398 32.562502 13.460938 32.156250 C13.049477 31.749998 12.843750 31.260420 12.843750 30.687500 C12.843750 30.114580 13.049477 29.630210 13.460938 29.234375 C13.872398 28.838540 14.364580 28.640625 14.937500 28.640625 C15.510420 28.640625 15.997394 28.838540 16.398438 29.234375 C16.799481 29.630210 17.000000 30.114580 17.000000 30.687500 C17.000000 31.260420 16.799481 31.749998 16.398438 32.156250 C15.997394 32.562502 15.510420 32.765625 14.937500 32.765625 Z M14.937500 31.515625 C15.166668 31.515625 15.359374 31.437501 15.515625 31.281250 C15.671876 31.124999 15.750000 30.927085 15.750000 30.687500 C15.750000 30.468749 15.671876 30.281251 15.515625 30.125000 C15.359374 29.968749 15.166668 29.890625 14.937500 29.890625 C14.708332 29.890625 14.510417 29.968749 14.343750 30.125000 C14.177082 30.281251 14.093750 30.468749 14.093750 30.687500 C14.093750 30.927085 14.177082 31.124999 14.343750 31.281250 C14.510417 31.437501 14.708332 31.515625 14.937500 31.515625 Z M19.578125 32.250000 C19.130206 32.250000 18.773439 32.114585 18.507812 31.843750 C18.242186 31.572915 18.057292 31.281252 17.953125 30.968750 L17.109375 28.437500 L16.906250 28.515625 C16.749999 28.578125 16.625000 28.716145 16.531250 28.929688 C16.437500 29.143230 16.390625 29.427082 16.390625 29.781250 L15.468750 29.031250 C15.541667 28.583331 15.671874 28.260418 15.859375 28.062500 C16.046876 27.864582 16.333331 27.692709 16.718750 27.546875 L17.828125 27.109375 L18.968750 30.546875 C19.062500 30.848960 19.244790 31.000000 19.515625 31.000000 C19.744793 31.000000 19.901041 30.914063 19.984375 30.742188 C20.067709 30.570312 20.067709 30.359376 19.984375 30.109375 L18.984375 27.125000 C18.536456 25.791660 17.940108 24.752608 17.195312 24.007812 C16.450517 23.263017 15.645838 22.890625 14.781250 22.890625 L15.312500 21.531250 C16.406255 21.760418 17.364579 22.320308 18.187500 23.210938 C19.010421 24.101567 19.682289 25.317701 20.203125 26.859375 L21.218750 29.828125 C21.427084 30.421878 21.359377 30.973956 21.015625 31.484375 C20.671873 31.994794 20.192711 32.250000 19.578125 32.250000 Z M13.468750 29.437500 C13.468750 28.562496 13.677081 27.791670 14.093750 27.125000 C14.510419 26.458330 15.052080 25.973960 15.718750 25.671875 C15.489582 25.401040 15.255210 25.216146 15.015625 25.117188 C14.776040 25.018229 14.520835 24.968750 14.250000 24.968750 L12.734375 24.968750 L12.562500 23.718750 L14.421875 23.718750 C15.046878 23.718750 15.635414 23.947914 16.187500 24.406250 C16.739586 24.864586 17.161457 25.479163 17.453125 26.250000 L16.640625 26.562500 C16.098956 26.770834 15.664064 27.054686 15.335938 27.414062 C15.007811 27.773439 14.786459 28.307288 14.671875 29.015625 Z M7.109375 30.375000 L7.109375 27.000000 L9.468750 29.359375 C8.822913 29.921878 8.036463 30.260416 7.109375 30.375000 Z M9.984375 28.843750 L7.609375 26.468750 L10.984375 26.468750 C10.921875 27.385421 10.588545 28.177080 9.984375 28.843750 Z M6.343750 30.375000 C5.895831 30.322916 5.468752 30.213542 5.062500 30.046875 C4.656248 29.880208 4.291668 29.651043 3.968750 29.359375 L6.343750 27.000000 Z M10.984375 25.703125 L7.609375 25.703125 L9.984375 23.343750 C10.588545 24.031253 10.921875 24.817704 10.984375 25.703125 Z M6.718750 32.812500 C5.489577 32.812500 4.364588 32.510420 3.343750 31.906250 C2.322912 31.302080 1.510420 30.489588 0.906250 29.468750 C0.302080 28.447912 0.000000 27.322923 0.000000 26.093750 C0.000000 25.072912 0.208331 24.122400 0.625000 23.242188 C1.041669 22.361975 1.617184 21.609378 2.351562 20.984375 C3.085941 20.359372 3.916662 19.911460 4.843750 19.640625 L5.703125 21.031250 C4.921871 21.187501 4.218753 21.507810 3.593750 21.992188 C2.968747 22.476565 2.473960 23.072913 2.109375 23.781250 C1.744790 24.489587 1.562500 25.260412 1.562500 26.093750 C1.562500 27.041671 1.794269 27.906246 2.257812 28.687500 C2.721356 29.468754 3.343746 30.091144 4.125000 30.554688 C4.906254 31.018231 5.770829 31.250000 6.718750 31.250000 C7.666671 31.250000 8.531246 31.018231 9.312500 30.554688 C10.093754 30.091144 10.716144 29.468754 11.179688 28.687500 C11.643231 27.906246 11.875000 27.041671 11.875000 26.093750 C11.875000 25.208329 11.671877 24.395837 11.265625 23.656250 C10.859373 22.916663 10.312503 22.307294 9.625000 21.828125 C8.937497 21.348956 8.161463 21.062500 7.296875 20.968750 L7.984375 19.500000 C9.026047 19.697918 9.955725 20.111976 10.773438 20.742188 C11.591150 21.372399 12.239581 22.148433 12.718750 23.070312 C13.197919 23.992192 13.437500 24.999995 13.437500 26.093750 C13.437500 27.322923 13.135420 28.447912 12.531250 29.468750 C11.927080 30.489588 11.117193 31.302080 10.101562 31.906250 C9.085932 32.510420 7.958340 32.812500 6.718750 32.812500 Z M6.703125 27.328125 C6.359373 27.328125 6.067710 27.208335 5.828125 26.968750 C5.588540 26.729165 5.468750 26.437502 5.468750 26.093750 C5.468750 25.739582 5.588540 25.442710 5.828125 25.203125 C6.067710 24.963540 6.359373 24.843750 6.703125 24.843750 C7.036460 24.843750 7.328124 24.963540 7.578125 25.203125 C7.828126 25.442710 7.953125 25.739582 7.953125 26.093750 C7.953125 26.437502 7.828126 26.729165 7.578125 26.968750 C7.328124 27.208335 7.036460 27.328125 6.703125 27.328125 Z M15.656250 24.453125 L14.343750 24.187500 C13.802081 22.322907 12.992193 20.854172 11.914062 19.781250 C10.835932 18.708328 9.453133 18.072918 7.765625 17.875000 L7.406250 16.562500 C8.781257 16.645834 10.039057 17.028642 11.179688 17.710938 C12.320318 18.393233 13.281246 19.309890 14.062500 20.460938 C14.843754 21.611985 15.374999 22.942701 15.656250 24.453125 Z M7.109375 25.203125 L7.109375 21.828125 C7.994796 21.890625 8.781247 22.223955 9.468750 22.828125 Z M3.453125 28.843750 C3.161457 28.520832 2.932292 28.156252 2.765625 27.750000 C2.598958 27.343748 2.489584 26.916669 2.437500 26.468750 L5.812500 26.468750 Z M6.343750 25.203125 L3.968750 22.828125 C4.635420 22.223955 5.427079 21.890625 6.343750 21.828125 Z M5.812500 25.703125 L2.437500 25.703125 C2.552084 24.776037 2.890622 23.989587 3.453125 23.343750 Z M6.437500 21.421875 C5.968748 21.421875 5.570314 21.257814 5.242188 20.929688 C4.914061 20.601561 4.750000 20.197919 4.750000 19.718750 C4.750000 19.406248 4.830728 19.114585 4.992188 18.843750 C5.153647 18.572915 5.374999 18.364584 5.656250 18.218750 L5.437500 17.421875 L7.390625 16.062500 C7.619793 16.666670 7.802083 17.281247 7.937500 17.906250 C8.072917 18.531253 8.140625 19.036456 8.140625 19.421875 C8.140625 20.026045 7.976564 20.510415 7.648438 20.875000 C7.320311 21.239585 6.916669 21.421875 6.437500 21.421875 Z M32.734375 27.343750" /></svg>