<svg version="1.1" xmlns="http://www.w3.org/2000/svg" style="fill:rgba(0,0,0,1.0)" width="256" height="256" viewBox="0 0 38.828125 29.6875"><path fill="rgb(255, 255, 255)" d="M5.812500 22.375000 C4.833328 21.822914 3.979170 21.119796 3.250000 20.265625 C2.520830 19.411454 1.893232 18.361985 1.367188 17.117188 C0.841143 15.872390 0.385419 14.395842 0.000000 12.687500 L35.406250 12.359375 C35.333333 14.682303 35.057294 16.635409 34.578125 18.218750 C34.098956 19.802091 33.395838 21.041662 32.468750 21.937500 L30.781250 21.062500 C31.572921 20.416663 32.192706 19.453131 32.640625 18.171875 C33.088544 16.890619 33.369791 15.255218 33.484375 13.265625 L34.140625 14.093750 L1.609375 14.390625 L2.140625 13.609375 C2.505210 14.984382 2.921873 16.161453 3.390625 17.140625 C3.859377 18.119797 4.408851 18.937497 5.039062 19.593750 C5.669274 20.250003 6.401038 20.781248 7.234375 21.187500 Z M6.546875 29.687500 C5.776038 29.687500 5.088545 29.536460 4.484375 29.234375 L5.265625 27.718750 C5.609377 27.885418 6.036456 27.968750 6.546875 27.968750 C7.130211 27.968750 7.666664 27.872397 8.156250 27.679688 C8.645836 27.486978 9.138018 27.265626 9.632812 27.015625 C10.127607 26.765624 10.671872 26.544272 11.265625 26.351562 C11.859378 26.158853 12.552079 26.062500 13.343750 26.062500 C14.166671 26.062500 14.861976 26.158853 15.429688 26.351562 C15.997399 26.544272 16.505206 26.765624 16.953125 27.015625 C17.401044 27.265626 17.859373 27.486978 18.328125 27.679688 C18.796877 27.872397 19.343747 27.968750 19.968750 27.968750 C20.656253 27.968750 21.283851 27.854168 21.851562 27.625000 C22.419274 27.395832 22.976560 27.132814 23.523438 26.835938 C24.070315 26.539061 24.658851 26.278647 25.289062 26.054688 C25.919274 25.830728 26.640621 25.718750 27.453125 25.718750 C28.192712 25.718750 28.820310 25.859374 29.335938 26.140625 C29.851565 26.421876 30.322915 26.703124 30.750000 26.984375 C31.177085 27.265626 31.619789 27.406250 32.078125 27.406250 C32.265626 27.406250 32.502603 27.375000 32.789062 27.312500 C33.075522 27.250000 33.333332 27.166667 33.562500 27.062500 L34.312500 28.593750 C33.604163 28.947918 32.859379 29.125000 32.078125 29.125000 C31.567706 29.125000 31.127606 29.039063 30.757812 28.867188 C30.388019 28.695312 30.041668 28.500001 29.718750 28.281250 C29.395832 28.062499 29.059898 27.867188 28.710938 27.695312 C28.361977 27.523437 27.942711 27.437500 27.453125 27.437500 C26.755205 27.437500 26.135419 27.549478 25.593750 27.773438 C25.052081 27.997397 24.518232 28.257811 23.992188 28.554688 C23.466143 28.851564 22.885420 29.114582 22.250000 29.343750 C21.614580 29.572918 20.854171 29.687500 19.968750 29.687500 C19.083329 29.687500 18.364586 29.591147 17.812500 29.398438 C17.260414 29.205728 16.778648 28.984376 16.367188 28.734375 C15.955727 28.484374 15.520836 28.263022 15.062500 28.070312 C14.604164 27.877603 14.031253 27.781250 13.343750 27.781250 C12.645830 27.781250 12.044273 27.877603 11.539062 28.070312 C11.033852 28.263022 10.552086 28.484374 10.093750 28.734375 C9.635414 28.984376 9.130211 29.205728 8.578125 29.398438 C8.026039 29.591147 7.348962 29.687500 6.546875 29.687500 Z M15.375000 21.906250 L11.875000 20.515625 C12.229168 19.546870 12.708330 18.705733 13.312500 17.992188 C13.916670 17.278642 14.541663 16.921875 15.187500 16.921875 C15.739586 16.921875 16.169269 17.093748 16.476562 17.437500 C16.783856 17.781252 16.999999 18.216143 17.125000 18.742188 C17.250001 19.268232 17.312500 19.807289 17.312500 20.359375 C17.312500 20.463542 17.309896 20.658853 17.304688 20.945312 C17.299479 21.231772 17.286458 21.432291 17.265625 21.546875 Z M2.906250 23.578125 C2.135413 23.578125 1.447920 23.427085 0.843750 23.125000 L1.625000 21.609375 C1.968752 21.776042 2.395831 21.859375 2.906250 21.859375 C3.937505 21.859375 4.820309 21.763022 5.554688 21.570312 C6.289066 21.377603 6.955726 21.156251 7.554688 20.906250 C8.153649 20.656249 8.768226 20.434897 9.398438 20.242188 C10.028649 20.049478 10.755204 19.953125 11.578125 19.953125 C12.682297 19.953125 13.687495 20.111978 14.593750 20.429688 C15.500005 20.747397 16.359371 21.065103 17.171875 21.382812 C17.984379 21.700522 18.791663 21.859375 19.593750 21.859375 C20.250003 21.859375 20.848956 21.744793 21.390625 21.515625 C21.932294 21.286457 22.471351 21.023439 23.007812 20.726562 C23.544274 20.429686 24.135413 20.169272 24.781250 19.945312 C25.427087 19.721353 26.192704 19.609375 27.078125 19.609375 C27.901046 19.609375 28.624997 19.705728 29.250000 19.898438 C29.875003 20.091147 30.468747 20.317707 31.031250 20.578125 C31.593753 20.838543 32.171872 21.065103 32.765625 21.257812 C33.359378 21.450522 34.036455 21.546875 34.796875 21.546875 C34.984376 21.546875 35.221353 21.515625 35.507812 21.453125 C35.794272 21.390625 36.052082 21.307292 36.281250 21.203125 L37.031250 22.734375 C36.322913 23.088543 35.578129 23.265625 34.796875 23.265625 C33.890620 23.265625 33.106774 23.169272 32.445312 22.976562 C31.783851 22.783853 31.179690 22.557293 30.632812 22.296875 C30.085935 22.036457 29.533857 21.809897 28.976562 21.617188 C28.419268 21.424478 27.786462 21.328125 27.078125 21.328125 C26.317705 21.328125 25.651045 21.440103 25.078125 21.664062 C24.505205 21.888022 23.955732 22.148436 23.429688 22.445312 C22.903643 22.742189 22.341149 23.005207 21.742188 23.234375 C21.143226 23.463543 20.427088 23.578125 19.593750 23.578125 C18.572912 23.578125 17.622400 23.419272 16.742188 23.101562 C15.861975 22.783853 15.002608 22.466147 14.164062 22.148438 C13.325517 21.830728 12.463546 21.671875 11.578125 21.671875 C10.911455 21.671875 10.304690 21.768228 9.757812 21.960938 C9.210935 22.153647 8.635420 22.374999 8.031250 22.625000 C7.427080 22.875001 6.718754 23.096353 5.906250 23.289062 C5.093746 23.481772 4.093756 23.578125 2.906250 23.578125 Z M15.609375 18.593750 L14.625000 18.109375 L19.640625 5.343750 C19.723959 5.124999 19.867186 5.010417 20.070312 5.000000 C20.273439 4.989583 20.447916 5.052083 20.593750 5.187500 C20.739584 5.322917 20.765625 5.510415 20.671875 5.750000 Z M8.265625 13.531250 C8.255208 13.395833 8.250000 13.263021 8.250000 13.132812 C8.250000 13.002604 8.250000 12.869792 8.250000 12.734375 C8.250000 11.578119 8.286458 10.585942 8.359375 9.757812 C8.432292 8.929683 8.510416 8.140629 8.593750 7.390625 C8.052081 7.078123 7.601564 6.614586 7.242188 6.000000 C6.882811 5.385414 6.703125 4.713545 6.703125 3.984375 C6.703125 3.244788 6.882811 2.575524 7.242188 1.976562 C7.601564 1.377601 8.083330 0.898439 8.687500 0.539062 C9.291670 0.179686 9.958330 -0.000000 10.687500 -0.000000 C11.427087 -0.000000 12.098955 0.179686 12.703125 0.539062 C13.307295 0.898439 13.789061 1.377601 14.148438 1.976562 C14.507814 2.575524 14.687500 3.244788 14.687500 3.984375 C14.687500 4.703129 14.526043 5.351560 14.203125 5.929688 C13.880207 6.507815 13.510419 6.927082 13.093750 7.187500 C13.458335 7.479168 13.877602 7.708333 14.351562 7.875000 C14.825523 8.041667 15.302081 8.125000 15.781250 8.125000 C16.239586 8.125000 16.619790 8.028647 16.921875 7.835938 C17.223960 7.643228 17.497395 7.424480 17.742188 7.179688 C17.986980 6.934895 18.244790 6.716147 18.515625 6.523438 C18.786460 6.330728 19.109373 6.234375 19.484375 6.234375 C19.828127 6.234375 20.171873 6.380207 20.515625 6.671875 C20.859377 6.963543 21.031250 7.317706 21.031250 7.734375 C21.031250 8.369795 20.776044 8.906248 20.265625 9.343750 C19.755206 9.781252 19.080733 10.109374 18.242188 10.328125 C17.403642 10.546876 16.489588 10.656250 15.500000 10.656250 C15.270832 10.656250 15.010418 10.640625 14.718750 10.609375 C14.427082 10.578125 14.151043 10.526042 13.890625 10.453125 C14.213543 10.932294 14.463541 11.450518 14.640625 12.007812 C14.817709 12.565107 14.958333 13.072914 15.062500 13.531250 Z M38.828125 25.781250" /></svg>