<svg version="1.1" xmlns="http://www.w3.org/2000/svg" style="fill:rgba(0,0,0,1.0)" width="256" height="256" viewBox="0 0 36.328125 32.8125"><path fill="rgb(255, 255, 255)" d="M17.343750 32.812500 C15.999993 32.812500 15.018232 32.177090 14.398438 30.906250 C13.778643 29.635410 13.468750 27.697930 13.468750 25.093750 C13.468750 24.385413 13.359376 23.833335 13.140625 23.437500 C12.921874 23.041665 12.593752 22.843750 12.156250 22.843750 C11.802082 22.843750 11.460939 22.942707 11.132812 23.140625 C10.804686 23.338543 10.458335 23.565103 10.093750 23.820312 C9.729165 24.075522 9.309898 24.302082 8.835938 24.500000 C8.361977 24.697918 7.802087 24.796875 7.156250 24.796875 C6.489580 24.796875 5.942710 24.695314 5.515625 24.492188 C5.088540 24.289061 4.729168 24.057293 4.437500 23.796875 C4.145832 23.536457 3.882814 23.304689 3.648438 23.101562 C3.414061 22.898436 3.161460 22.796875 2.890625 22.796875 C2.536457 22.796875 2.221356 22.861979 1.945312 22.992188 C1.669269 23.122396 1.395835 23.187500 1.125000 23.187500 C0.677081 23.187500 0.377605 23.018231 0.226562 22.679688 C0.075520 22.341144 0.000000 21.885420 0.000000 21.312500 C0.000000 20.697914 0.156248 20.171877 0.468750 19.734375 C0.781252 19.296873 1.156248 18.958335 1.593750 18.718750 C2.031252 18.479165 2.432290 18.359375 2.796875 18.359375 C3.255211 18.359375 3.630207 18.450520 3.921875 18.632812 C4.213543 18.815105 4.471353 19.028645 4.695312 19.273438 C4.919272 19.518230 5.156249 19.731770 5.406250 19.914062 C5.656251 20.096355 5.958332 20.187500 6.312500 20.187500 C7.052087 20.187500 7.729164 19.854170 8.343750 19.187500 C8.958336 18.520830 9.604163 17.713546 10.281250 16.765625 C11.000004 15.755203 11.557290 14.880212 11.953125 14.140625 C12.348960 13.401038 12.546875 12.807294 12.546875 12.359375 C12.546875 11.880206 12.343752 11.458335 11.937500 11.093750 C11.531248 10.729165 10.973962 10.546875 10.265625 10.546875 C9.078119 10.546875 8.484375 10.958329 8.484375 11.781250 C8.484375 12.333336 8.312502 12.812498 7.968750 13.218750 C7.624998 13.625002 7.166670 13.828125 6.593750 13.828125 C5.999997 13.828125 5.486981 13.598961 5.054688 13.140625 C4.622394 12.682289 4.406250 12.088545 4.406250 11.359375 C4.406250 10.453120 4.692705 9.622400 5.265625 8.867188 C5.838545 8.111975 6.609370 7.510419 7.578125 7.062500 C8.546880 6.614581 9.614578 6.390625 10.781250 6.390625 C11.541670 6.390625 12.507807 6.492186 13.679688 6.695312 C14.851568 6.898439 16.104160 7.182290 17.437500 7.546875 L17.125000 8.140625 C16.802082 7.713540 16.552084 7.242190 16.375000 6.726562 C16.197916 6.210935 16.109375 5.666670 16.109375 5.093750 C16.109375 4.156245 16.338539 3.302087 16.796875 2.531250 C17.255211 1.760413 17.869788 1.145836 18.640625 0.687500 C19.411462 0.229164 20.265620 -0.000000 21.203125 -0.000000 C22.140630 -0.000000 22.994788 0.229164 23.765625 0.687500 C24.536462 1.145836 25.151039 1.760413 25.609375 2.531250 C26.067711 3.302087 26.296875 4.156245 26.296875 5.093750 C26.296875 6.031255 26.067711 6.885413 25.609375 7.656250 C25.151039 8.427087 24.536462 9.041664 23.765625 9.500000 C22.994788 9.958336 22.140630 10.187500 21.203125 10.187500 L22.984375 9.359375 C23.036459 10.223963 23.247394 10.968747 23.617188 11.593750 C23.986981 12.218753 24.434893 12.697915 24.960938 13.031250 C25.486982 13.364585 25.999998 13.531250 26.500000 13.531250 C26.958336 13.531250 27.281249 13.408855 27.468750 13.164062 C27.656251 12.919270 27.770833 12.630210 27.812500 12.296875 C27.958334 11.026035 28.645827 10.390625 29.875000 10.390625 C30.531253 10.390625 31.054686 10.583331 31.445312 10.968750 C31.835939 11.354169 32.031250 11.911455 32.031250 12.640625 C32.031250 13.557296 31.752607 14.395830 31.195312 15.156250 C30.638018 15.916670 29.934900 16.523435 29.085938 16.976562 C28.236975 17.429690 27.375004 17.656250 26.500000 17.656250 C25.833330 17.656250 25.247398 17.546876 24.742188 17.328125 C24.236977 17.109374 23.783856 16.890626 23.382812 16.671875 C22.981769 16.453124 22.598960 16.343750 22.234375 16.343750 C21.755206 16.343750 21.281252 16.578123 20.812500 17.046875 C20.343748 17.515627 19.916669 18.182287 19.531250 19.046875 C19.145831 19.911463 18.838543 20.932286 18.609375 22.109375 C18.380207 23.286464 18.265625 24.588535 18.265625 26.015625 C18.265625 27.328132 18.374999 28.244789 18.593750 28.765625 C19.052086 28.932292 19.432290 29.200519 19.734375 29.570312 C20.036460 29.940106 20.187500 30.343748 20.187500 30.781250 C20.187500 31.343753 19.927086 31.822915 19.406250 32.218750 C18.885414 32.614585 18.197921 32.812500 17.343750 32.812500 Z M36.328125 27.343750" /></svg>