<svg version="1.1" xmlns="http://www.w3.org/2000/svg" style="fill:rgba(0,0,0,1.0)" width="256" height="256" viewBox="0 0 32.7403848714164 32.8125"><path fill="rgb(255, 255, 255)" d="M4.218750 29.781250 L2.015625 28.812500 C1.734374 28.687499 1.541667 28.526043 1.437500 28.328125 C1.333333 28.130207 1.281250 27.947918 1.281250 27.781250 C1.281250 27.395831 1.471352 27.080730 1.851562 26.835938 C2.231773 26.591145 2.723955 26.468750 3.328125 26.468750 C3.755210 26.468750 4.145832 26.520833 4.500000 26.625000 C5.114586 23.822903 5.932287 21.677091 6.953125 20.187500 C7.973963 18.697909 9.260409 17.953125 10.812500 17.953125 C11.145835 17.953125 11.606768 17.989583 12.195312 18.062500 C12.783857 18.135417 13.374997 18.244791 13.968750 18.390625 C13.968750 17.109369 13.867189 16.039067 13.664062 15.179688 C13.460936 14.320308 13.255209 13.575524 13.046875 12.945312 C12.838541 12.315101 12.734375 11.708336 12.734375 11.125000 C12.734375 10.802082 12.765625 10.466148 12.828125 10.117188 C12.890625 9.768227 13.026041 9.416668 13.234375 9.062500 C12.401038 9.062500 11.640628 8.859377 10.953125 8.453125 C10.265622 8.046873 9.721356 7.500003 9.320312 6.812500 C8.919269 6.124997 8.718750 5.364587 8.718750 4.531250 C8.718750 3.697913 8.921873 2.940108 9.328125 2.257812 C9.734377 1.575517 10.281247 1.028648 10.968750 0.617188 C11.656253 0.205727 12.411454 -0.000000 13.234375 -0.000000 C14.067712 -0.000000 14.828122 0.205727 15.515625 0.617188 C16.203128 1.028648 16.752602 1.575517 17.164062 2.257812 C17.575523 2.940108 17.781250 3.697913 17.781250 4.531250 C17.781250 5.177087 17.653647 5.786455 17.398438 6.359375 C17.143228 6.932295 16.786461 7.421873 16.328125 7.828125 C16.661460 7.890625 17.070310 8.122394 17.554688 8.523438 C18.039065 8.924481 18.528643 9.450518 19.023438 10.101562 C19.518232 10.752607 19.966144 11.492183 20.367188 12.320312 C20.768231 13.148442 21.057291 14.015620 21.234375 14.921875 L20.968750 14.921875 L20.968750 13.828125 C20.968750 13.296872 21.148436 12.859377 21.507812 12.515625 C21.867189 12.171873 22.322914 12.000000 22.875000 12.000000 C23.427086 12.000000 23.882811 12.171873 24.242188 12.515625 C24.601564 12.859377 24.781250 13.296872 24.781250 13.828125 L24.781250 25.500000 L23.531250 22.265625 L23.531250 13.953125 C23.531250 13.744791 23.473959 13.575521 23.359375 13.445312 C23.244791 13.315104 23.083334 13.250000 22.875000 13.250000 C22.677082 13.250000 22.515626 13.315104 22.390625 13.445312 C22.265624 13.575521 22.203125 13.744791 22.203125 13.953125 L22.203125 19.109375 C21.630205 18.765623 21.114586 18.502605 20.656250 18.320312 C20.197914 18.138020 19.723961 18.010417 19.234375 17.937500 C18.744789 17.864583 18.151045 17.828125 17.453125 17.828125 C15.713533 17.828125 14.302089 18.257808 13.218750 19.117188 C12.135411 19.976567 11.177088 21.104160 10.343750 22.500000 C9.666663 22.500000 8.950525 22.747393 8.195312 23.242188 C7.440100 23.736982 6.716149 24.518224 6.023438 25.585938 C5.330726 26.653651 4.729169 28.052075 4.218750 29.781250 Z M4.250000 30.453125 L0.312500 29.031250 C0.104166 28.958333 0.031250 28.828126 0.093750 28.640625 L0.390625 27.765625 C0.463542 27.557291 0.593749 27.484375 0.781250 27.546875 L4.796875 28.984375 Z M8.546875 31.828125 L6.375000 31.109375 L6.781250 29.609375 L8.546875 30.187500 Z M9.984375 32.765625 C9.411455 32.765625 8.924481 32.562502 8.523438 32.156250 C8.122394 31.749998 7.921875 31.260420 7.921875 30.687500 C7.921875 30.114580 8.122394 29.630210 8.523438 29.234375 C8.924481 28.838540 9.411455 28.640625 9.984375 28.640625 C10.557295 28.640625 11.049477 28.838540 11.460938 29.234375 C11.872398 29.630210 12.078125 30.114580 12.078125 30.687500 C12.078125 31.260420 11.872398 31.749998 11.460938 32.156250 C11.049477 32.562502 10.557295 32.765625 9.984375 32.765625 Z M9.984375 31.515625 C10.213543 31.515625 10.411458 31.437501 10.578125 31.281250 C10.744792 31.124999 10.828125 30.927085 10.828125 30.687500 C10.828125 30.468749 10.744792 30.281251 10.578125 30.125000 C10.411458 29.968749 10.213543 29.890625 9.984375 29.890625 C9.755207 29.890625 9.562501 29.968749 9.406250 30.125000 C9.249999 30.281251 9.171875 30.468749 9.171875 30.687500 C9.171875 30.927085 9.249999 31.124999 9.406250 31.281250 C9.562501 31.437501 9.755207 31.515625 9.984375 31.515625 Z M5.343750 32.250000 C4.729164 32.250000 4.252606 31.994794 3.914062 31.484375 C3.575519 30.973956 3.505207 30.421878 3.703125 29.828125 L4.718750 26.859375 C5.239586 25.317701 5.911454 24.101567 6.734375 23.210938 C7.557296 22.320308 8.515620 21.760418 9.609375 21.531250 L10.140625 22.890625 C9.276037 22.890625 8.471358 23.263017 7.726562 24.007812 C6.981767 24.752608 6.385419 25.791660 5.937500 27.125000 L4.937500 30.109375 C4.854166 30.359376 4.854166 30.570312 4.937500 30.742188 C5.020834 30.914063 5.177082 31.000000 5.406250 31.000000 C5.677085 31.000000 5.859375 30.848960 5.953125 30.546875 L7.093750 27.109375 L8.203125 27.546875 C8.588544 27.692709 8.874999 27.864582 9.062500 28.062500 C9.250001 28.260418 9.380208 28.583331 9.453125 29.031250 L8.531250 29.781250 C8.531250 29.427082 8.484375 29.143230 8.390625 28.929688 C8.296875 28.716145 8.171876 28.578125 8.015625 28.515625 L7.812500 28.437500 L6.968750 30.968750 C6.864583 31.281252 6.682293 31.572915 6.421875 31.843750 C6.161457 32.114585 5.802086 32.250000 5.343750 32.250000 Z M11.453125 29.437500 L10.250000 29.015625 C10.145833 28.307288 9.929689 27.773439 9.601562 27.414062 C9.273436 27.054686 8.833336 26.770834 8.281250 26.562500 L7.468750 26.250000 C7.770835 25.479163 8.195310 24.864586 8.742188 24.406250 C9.289065 23.947914 9.874997 23.718750 10.500000 23.718750 L12.359375 23.718750 L12.187500 24.968750 L10.671875 24.968750 C10.401040 24.968750 10.145835 25.018229 9.906250 25.117188 C9.666665 25.216146 9.432293 25.401040 9.203125 25.671875 C9.880212 25.973960 10.424477 26.458330 10.835938 27.125000 C11.247398 27.791670 11.453125 28.562496 11.453125 29.437500 Z M17.812500 30.375000 C16.885412 30.260416 16.098962 29.921878 15.453125 29.359375 L17.812500 27.000000 Z M14.937500 28.843750 C14.333330 28.177080 14.000000 27.385421 13.937500 26.468750 L17.312500 26.468750 Z M18.578125 30.375000 L18.578125 27.000000 L20.953125 29.359375 C20.630207 29.651043 20.265627 29.880208 19.859375 30.046875 C19.453123 30.213542 19.026044 30.322916 18.578125 30.375000 Z M13.937500 25.703125 C14.000000 24.817704 14.333330 24.031253 14.937500 23.343750 L17.312500 25.703125 Z M18.203125 32.812500 C16.973952 32.812500 15.848963 32.510420 14.828125 31.906250 C13.807287 31.302080 12.994795 30.489588 12.390625 29.468750 C11.786455 28.447912 11.484375 27.322923 11.484375 26.093750 C11.484375 24.999995 11.723956 23.992192 12.203125 23.070312 C12.682294 22.148433 13.333329 21.372399 14.156250 20.742188 C14.979171 20.111976 15.906245 19.697918 16.937500 19.500000 L17.625000 20.968750 C16.770829 21.062500 15.997399 21.348956 15.304688 21.828125 C14.611976 22.307294 14.062502 22.916663 13.656250 23.656250 C13.249998 24.395837 13.046875 25.208329 13.046875 26.093750 C13.046875 27.041671 13.278644 27.906246 13.742188 28.687500 C14.205731 29.468754 14.828121 30.091144 15.609375 30.554688 C16.390629 31.018231 17.255204 31.250000 18.203125 31.250000 C19.151046 31.250000 20.015621 31.018231 20.796875 30.554688 C21.578129 30.091144 22.200519 29.468754 22.664062 28.687500 C23.127606 27.906246 23.359375 27.041671 23.359375 26.093750 C23.359375 25.260412 23.177085 24.489587 22.812500 23.781250 C22.447915 23.072913 21.955732 22.476565 21.335938 21.992188 C20.716143 21.507810 20.010421 21.187501 19.218750 21.031250 L20.078125 19.640625 C21.015630 19.911460 21.848955 20.359372 22.578125 20.984375 C23.307295 21.609378 23.880206 22.361975 24.296875 23.242188 C24.713544 24.122400 24.921875 25.072912 24.921875 26.093750 C24.921875 27.322923 24.619795 28.447912 24.015625 29.468750 C23.411455 30.489588 22.601568 31.302080 21.585938 31.906250 C20.570307 32.510420 19.442715 32.812500 18.203125 32.812500 Z M18.218750 27.328125 C17.885415 27.328125 17.593751 27.208335 17.343750 26.968750 C17.093749 26.729165 16.968750 26.437502 16.968750 26.093750 C16.968750 25.739582 17.093749 25.442710 17.343750 25.203125 C17.593751 24.963540 17.885415 24.843750 18.218750 24.843750 C18.562502 24.843750 18.854165 24.963540 19.093750 25.203125 C19.333335 25.442710 19.453125 25.739582 19.453125 26.093750 C19.453125 26.437502 19.333335 26.729165 19.093750 26.968750 C18.854165 27.208335 18.562502 27.328125 18.218750 27.328125 Z M9.265625 24.453125 C9.557293 22.942701 10.091142 21.611985 10.867188 20.460938 C11.643233 19.309890 12.601557 18.393233 13.742188 17.710938 C14.882818 17.028642 16.140618 16.645834 17.515625 16.562500 L17.156250 17.875000 C15.468742 18.072918 14.088547 18.708328 13.015625 19.781250 C11.942703 20.854172 11.130211 22.322907 10.578125 24.187500 Z M17.812500 25.203125 L15.453125 22.828125 C16.140628 22.223955 16.927079 21.890625 17.812500 21.828125 Z M21.468750 28.843750 L19.109375 26.468750 L22.484375 26.468750 C22.432291 26.916669 22.322918 27.343748 22.156250 27.750000 C21.989582 28.156252 21.760418 28.520832 21.468750 28.843750 Z M18.578125 25.203125 L18.578125 21.828125 C19.494796 21.890625 20.286455 22.223955 20.953125 22.828125 Z M19.109375 25.703125 L21.468750 23.343750 C22.031253 23.989587 22.369791 24.776037 22.484375 25.703125 Z M18.484375 21.421875 C18.005206 21.421875 17.601564 21.239585 17.273438 20.875000 C16.945311 20.510415 16.781250 20.026045 16.781250 19.421875 C16.781250 19.036456 16.848958 18.531253 16.984375 17.906250 C17.119792 17.281247 17.302082 16.666670 17.531250 16.062500 L19.484375 17.421875 L19.265625 18.218750 C19.546876 18.364584 19.768228 18.572915 19.929688 18.843750 C20.091147 19.114585 20.171875 19.406248 20.171875 19.718750 C20.171875 20.197919 20.007814 20.601561 19.679688 20.929688 C19.351561 21.257814 18.953127 21.421875 18.484375 21.421875 Z M32.812500 27.343750" /></svg>