<svg version="1.1" xmlns="http://www.w3.org/2000/svg" style="fill:rgba(0,0,0,1.0)" width="256" height="256" viewBox="0 0 39.21875 21.875"><path fill="rgb(255, 255, 255)" d="M18.906250 21.875000 C16.229153 21.875000 13.744803 21.718752 11.453125 21.406250 C9.161447 21.093748 7.158863 20.648440 5.445312 20.070312 C3.731762 19.492185 2.395838 18.804691 1.437500 18.007812 C0.479162 17.210934 0.000000 16.328130 0.000000 15.359375 L0.000000 4.859375 L1.875000 4.859375 L1.875000 15.359375 C1.875000 15.911461 2.229163 16.460935 2.937500 17.007812 C3.645837 17.554690 4.710930 18.052081 6.132812 18.500000 C7.554695 18.947919 9.330719 19.307290 11.460938 19.578125 C13.591156 19.848960 16.072902 19.984375 18.906250 19.984375 C21.739598 19.984375 24.221344 19.848960 26.351562 19.578125 C28.481781 19.307290 30.257805 18.947919 31.679688 18.500000 C33.101570 18.052081 34.166663 17.554690 34.875000 17.007812 C35.583337 16.460935 35.937500 15.911461 35.937500 15.359375 L35.937500 4.859375 L37.812500 4.859375 L37.812500 15.359375 C37.812500 16.328130 37.333338 17.210934 36.375000 18.007812 C35.416662 18.804691 34.080738 19.492185 32.367188 20.070312 C30.653637 20.648440 28.651053 21.093748 26.359375 21.406250 C24.067697 21.718752 21.583347 21.875000 18.906250 21.875000 Z M7.281250 15.046875 C7.760419 15.046875 8.169269 14.979167 8.507812 14.843750 C8.846356 14.708333 9.015625 14.546876 9.015625 14.359375 C9.015625 14.161457 8.846356 13.994792 8.507812 13.859375 C8.169269 13.723958 7.760419 13.656250 7.281250 13.656250 C6.802081 13.656250 6.393231 13.723958 6.054688 13.859375 C5.716144 13.994792 5.546875 14.161457 5.546875 14.359375 C5.546875 14.546876 5.716144 14.708333 6.054688 14.843750 C6.393231 14.979167 6.802081 15.046875 7.281250 15.046875 Z M13.796875 16.953125 C14.765630 16.953125 15.593747 16.815106 16.281250 16.539062 C16.968753 16.263019 17.312500 15.932294 17.312500 15.546875 C17.312500 15.161456 16.968753 14.833335 16.281250 14.562500 C15.593747 14.291665 14.765630 14.156250 13.796875 14.156250 C12.828120 14.156250 12.002608 14.291665 11.320312 14.562500 C10.638017 14.833335 10.296875 15.161456 10.296875 15.546875 C10.296875 15.932294 10.638017 16.263019 11.320312 16.539062 C12.002608 16.815106 12.828120 16.953125 13.796875 16.953125 Z M21.312500 16.390625 C21.770836 16.390625 22.166665 16.320313 22.500000 16.179688 C22.833335 16.039062 23.000000 15.880209 23.000000 15.703125 C23.000000 15.526041 22.833335 15.369792 22.500000 15.234375 C22.166665 15.098958 21.770836 15.031250 21.312500 15.031250 C20.843748 15.031250 20.447918 15.098958 20.125000 15.234375 C19.802082 15.369792 19.640625 15.526041 19.640625 15.703125 C19.640625 15.880209 19.802082 16.039062 20.125000 16.179688 C20.447918 16.320313 20.843748 16.390625 21.312500 16.390625 Z M19.781250 13.843750 C20.385420 13.843750 20.898435 13.755209 21.320312 13.578125 C21.742190 13.401041 21.953125 13.197918 21.953125 12.968750 C21.953125 12.729165 21.742190 12.526042 21.320312 12.359375 C20.898435 12.192708 20.385420 12.109375 19.781250 12.109375 C19.187497 12.109375 18.677085 12.192708 18.250000 12.359375 C17.822915 12.526042 17.609375 12.729165 17.609375 12.968750 C17.609375 13.197918 17.822915 13.401041 18.250000 13.578125 C18.677085 13.755209 19.187497 13.843750 19.781250 13.843750 Z M26.093750 16.359375 C26.406252 16.359375 26.674478 16.312500 26.898438 16.218750 C27.122397 16.125000 27.234375 16.020834 27.234375 15.906250 C27.234375 15.791666 27.122397 15.687500 26.898438 15.593750 C26.674478 15.500000 26.406252 15.453125 26.093750 15.453125 C25.781248 15.453125 25.515626 15.500000 25.296875 15.593750 C25.078124 15.687500 24.968750 15.791666 24.968750 15.906250 C24.968750 16.020834 25.078124 16.125000 25.296875 16.218750 C25.515626 16.312500 25.781248 16.359375 26.093750 16.359375 Z M25.296875 14.234375 C25.786461 14.234375 26.197915 14.166667 26.531250 14.031250 C26.864585 13.895833 27.031250 13.734376 27.031250 13.546875 C27.031250 13.348957 26.864585 13.182292 26.531250 13.046875 C26.197915 12.911458 25.786461 12.843750 25.296875 12.843750 C24.817706 12.843750 24.408856 12.911458 24.070312 13.046875 C23.731769 13.182292 23.562500 13.348957 23.562500 13.546875 C23.562500 13.734376 23.731769 13.895833 24.070312 14.031250 C24.408856 14.166667 24.817706 14.234375 25.296875 14.234375 Z M18.906250 9.718750 C15.083314 9.718750 11.755222 9.549481 8.921875 9.210938 C6.088528 8.872394 3.893237 8.343754 2.335938 7.625000 C0.778638 6.906246 0.000000 5.984381 0.000000 4.859375 C0.000000 3.723953 0.778638 2.799483 2.335938 2.085938 C3.893237 1.372392 6.088528 0.846356 8.921875 0.507812 C11.755222 0.169269 15.088522 -0.000000 18.921875 -0.000000 C22.744811 -0.000000 26.070298 0.169269 28.898438 0.507812 C31.726577 0.846356 33.919263 1.372392 35.476562 2.085938 C37.033862 2.799483 37.812500 3.723953 37.812500 4.859375 C37.812500 5.984381 37.033862 6.906246 35.476562 7.625000 C33.919263 8.343754 31.726577 8.872394 28.898438 9.210938 C26.070298 9.549481 22.739602 9.718750 18.906250 9.718750 Z M18.906250 7.843750 C22.687519 7.843750 25.838529 7.705731 28.359375 7.429688 C30.880221 7.153644 32.773431 6.789065 34.039062 6.335938 C35.304694 5.882810 35.937500 5.390628 35.937500 4.859375 C35.937500 4.328122 35.304694 3.835940 34.039062 3.382812 C32.773431 2.929685 30.880221 2.565106 28.359375 2.289062 C25.838529 2.013019 22.687519 1.875000 18.906250 1.875000 C15.124981 1.875000 11.971367 2.013019 9.445312 2.289062 C6.919258 2.565106 5.026048 2.929685 3.765625 3.382812 C2.505202 3.835940 1.875000 4.328122 1.875000 4.859375 C1.875000 5.390628 2.505202 5.882810 3.765625 6.335938 C5.026048 6.789065 6.919258 7.153644 9.445312 7.429688 C11.971367 7.705731 15.124981 7.843750 18.906250 7.843750 Z M30.093750 15.203125 C30.572919 15.203125 30.981769 15.135417 31.320312 15.000000 C31.658856 14.864583 31.828125 14.703126 31.828125 14.515625 C31.828125 14.317707 31.658856 14.151042 31.320312 14.015625 C30.981769 13.880208 30.572919 13.812500 30.093750 13.812500 C29.614581 13.812500 29.205731 13.880208 28.867188 14.015625 C28.528644 14.151042 28.359375 14.317707 28.359375 14.515625 C28.359375 14.703126 28.528644 14.864583 28.867188 15.000000 C29.205731 15.135417 29.614581 15.203125 30.093750 15.203125 Z M18.906250 18.468750 C16.833323 18.468750 14.875009 18.377605 13.031250 18.195312 C11.187491 18.013020 9.562507 17.757814 8.156250 17.429688 C6.749993 17.101561 5.645837 16.721356 4.843750 16.289062 C4.041663 15.856769 3.640625 15.390628 3.640625 14.890625 C3.640625 14.401039 4.041663 13.940106 4.843750 13.507812 C5.645837 13.075519 6.749993 12.695314 8.156250 12.367188 C9.562507 12.039061 11.187491 11.783855 13.031250 11.601562 C14.875009 11.419270 16.833323 11.328125 18.906250 11.328125 C20.979177 11.328125 22.934887 11.419270 24.773438 11.601562 C26.611988 11.783855 28.234368 12.039061 29.640625 12.367188 C31.046882 12.695314 32.151038 13.075519 32.953125 13.507812 C33.755212 13.940106 34.156250 14.401039 34.156250 14.890625 C34.156250 15.390628 33.755212 15.856769 32.953125 16.289062 C32.151038 16.721356 31.046882 17.101561 29.640625 17.429688 C28.234368 17.757814 26.611988 18.013020 24.773438 18.195312 C22.934887 18.377605 20.979177 18.468750 18.906250 18.468750 Z M39.218750 21.875000" /></svg>