<svg version="1.1" xmlns="http://www.w3.org/2000/svg" style="fill:rgba(0,0,0,1.0)" width="256" height="256" viewBox="0 0 36.328125 32.8125"><path fill="rgb(255, 255, 255)" d="M11.796875 14.625000 L12.984375 13.625000 L27.265625 30.953125 C27.421876 31.151043 27.624999 31.250000 27.875000 31.250000 C28.083334 31.250000 28.265624 31.177084 28.421875 31.031250 L30.187500 29.515625 C30.375001 29.359374 30.468750 29.156251 30.468750 28.906250 C30.468750 28.687499 30.406251 28.510417 30.281250 28.375000 L14.750000 12.031250 L15.875000 10.968750 L31.406250 27.312500 C31.822919 27.750002 32.031250 28.281247 32.031250 28.906250 C32.031250 29.614587 31.750003 30.213539 31.187500 30.703125 L29.453125 32.218750 C29.005206 32.614585 28.479170 32.812500 27.875000 32.812500 C27.124996 32.812500 26.515627 32.526045 26.046875 31.953125 Z M11.171875 7.687500 C12.901050 6.208326 14.747386 4.859381 16.710938 3.640625 C18.674489 2.421869 20.817697 1.479170 23.140625 0.812500 L23.140625 1.562500 C19.848942 1.614584 17.005220 2.033850 14.609375 2.820312 C12.213530 3.606775 10.083343 4.817700 8.218750 6.453125 C6.104156 8.307301 4.507818 10.445300 3.429688 12.867188 C2.351557 15.289075 1.750001 17.979152 1.625000 20.937500 L0.906250 20.937500 C1.739588 18.906240 2.820306 16.953134 4.148438 15.078125 C5.476569 13.203116 7.067699 11.385425 8.921875 9.625000 L12.062500 13.078125 C12.177084 13.203126 12.291666 13.265625 12.406250 13.265625 C12.604168 13.265625 12.984372 13.000003 13.546875 12.468750 C13.869793 12.166665 14.098958 11.932292 14.234375 11.765625 C14.369792 11.598958 14.437500 11.463542 14.437500 11.359375 C14.437500 11.265625 14.390625 11.171875 14.296875 11.078125 Z M9.125000 3.578125 C9.239584 3.692709 9.296875 3.807291 9.296875 3.921875 C9.296875 4.151043 9.153647 4.476560 8.867188 4.898438 C8.580728 5.320315 8.208336 5.744790 7.750000 6.171875 C7.312498 6.578127 6.877606 6.903645 6.445312 7.148438 C6.013019 7.393230 5.671876 7.515625 5.421875 7.515625 C5.307291 7.515625 5.208334 7.484375 5.125000 7.421875 C4.968749 7.317708 4.890625 7.177084 4.890625 7.000000 C4.890625 6.791666 5.096352 6.463544 5.507812 6.015625 C5.919273 5.567706 6.411455 5.106773 6.984375 4.632812 C7.557295 4.158852 8.078123 3.770835 8.546875 3.468750 C8.734376 3.343749 8.927082 3.380207 9.125000 3.578125 Z M0.000000 22.500000 C0.166668 18.531230 0.835932 15.169285 2.007812 12.414062 C3.179693 9.658840 4.906239 7.276052 7.187500 5.265625 C8.562507 4.046869 10.085929 3.049483 11.757812 2.273438 C13.429696 1.497392 15.328114 0.924481 17.453125 0.554688 C19.578136 0.184894 21.994778 -0.000000 24.703125 -0.000000 L24.703125 1.718750 C22.671865 2.260419 20.750009 3.031245 18.937500 4.031250 C17.124991 5.031255 15.286468 6.286451 13.421875 7.796875 L15.578125 10.140625 C15.755209 10.317709 15.888020 10.484374 15.976562 10.640625 C16.065105 10.796876 16.109375 10.968749 16.109375 11.156250 C16.109375 11.520835 15.973960 11.916665 15.703125 12.343750 C15.432290 12.770835 15.067711 13.197915 14.609375 13.625000 C13.692704 14.479171 12.875004 14.906250 12.156250 14.906250 C11.937499 14.906250 11.744792 14.854167 11.578125 14.750000 C11.411458 14.645833 11.244792 14.505209 11.078125 14.328125 L8.859375 11.843750 C7.755203 12.958339 6.750005 14.091140 5.843750 15.242188 C4.937495 16.393235 4.140628 17.570306 3.453125 18.773438 C2.765622 19.976569 2.187502 21.218744 1.718750 22.500000 Z M36.328125 27.343750" /></svg>