<svg version="1.1" xmlns="http://www.w3.org/2000/svg" style="fill:rgba(0,0,0,1.0)" width="256" height="256" viewBox="0 0 39.8125 26.5625"><path fill="rgb(255, 255, 255)" d="M0.953125 22.312500 C0.682290 22.312500 0.455730 22.221355 0.273438 22.039062 C0.091145 21.856770 0.000000 21.630210 0.000000 21.359375 L0.000000 19.437500 C0.000000 19.093748 0.085937 18.861980 0.257812 18.742188 C0.429688 18.622395 0.718748 18.562500 1.125000 18.562500 L4.703125 18.562500 L5.484375 17.703125 C5.744793 17.411457 6.067706 17.265625 6.453125 17.265625 L11.515625 17.265625 C11.744793 17.265625 11.953124 17.317708 12.140625 17.421875 C12.328126 17.526042 12.489583 17.666666 12.625000 17.843750 L14.843750 20.593750 L25.546875 20.593750 L26.828125 18.109375 C27.119793 17.546872 27.552080 17.265625 28.125000 17.265625 L36.015625 17.265625 C36.036458 16.942707 36.049479 16.601564 36.054688 16.242188 C36.059896 15.882811 36.062500 15.510419 36.062500 15.125000 C36.062500 14.479163 36.049479 13.822920 36.023438 13.156250 C35.997396 12.489580 35.958334 11.875003 35.906250 11.312500 C35.885417 11.124999 35.781251 11.031250 35.593750 11.031250 L22.015625 11.000000 L22.015625 9.281250 L36.203125 9.312500 C36.598960 9.312500 36.940103 9.434895 37.226562 9.679688 C37.513022 9.924480 37.677083 10.244790 37.718750 10.640625 C37.812500 11.463546 37.882812 12.283850 37.929688 13.101562 C37.976563 13.919275 38.000000 14.739579 38.000000 15.562500 C38.000000 16.010419 37.994792 16.458331 37.984375 16.906250 C37.973958 17.354169 37.953125 17.802081 37.921875 18.250000 C38.640629 18.250000 39.000000 18.567705 39.000000 19.203125 L39.000000 21.359375 C39.000000 21.630210 38.908855 21.856770 38.726562 22.039062 C38.544270 22.221355 38.317710 22.312500 38.046875 22.312500 L34.265625 22.312500 L32.046875 19.187500 L29.468750 19.187500 L27.406250 22.312500 L12.609375 22.312500 L10.390625 19.140625 L7.687500 19.140625 L5.421875 22.312500 Z M8.953125 26.562500 C8.151038 26.562500 7.414066 26.364585 6.742188 25.968750 C6.070309 25.572915 5.536460 25.039066 5.140625 24.367188 C4.744790 23.695309 4.546875 22.958337 4.546875 22.156250 C4.546875 21.343746 4.744790 20.604170 5.140625 19.937500 C5.536460 19.270830 6.070309 18.739585 6.742188 18.343750 C7.414066 17.947915 8.151038 17.750000 8.953125 17.750000 C9.765629 17.750000 10.505205 17.947915 11.171875 18.343750 C11.838545 18.739585 12.369790 19.270830 12.765625 19.937500 C13.161460 20.604170 13.359375 21.343746 13.359375 22.156250 C13.359375 22.958337 13.161460 23.695309 12.765625 24.367188 C12.369790 25.039066 11.838545 25.572915 11.171875 25.968750 C10.505205 26.364585 9.765629 26.562500 8.953125 26.562500 Z M8.953125 24.687500 C9.651045 24.687500 10.247393 24.440107 10.742188 23.945312 C11.236982 23.450518 11.484375 22.854170 11.484375 22.156250 C11.484375 21.458330 11.236982 20.861982 10.742188 20.367188 C10.247393 19.872393 9.651045 19.625000 8.953125 19.625000 C8.255205 19.625000 7.658857 19.872393 7.164062 20.367188 C6.669268 20.861982 6.421875 21.458330 6.421875 22.156250 C6.421875 22.854170 6.669268 23.450518 7.164062 23.945312 C7.658857 24.440107 8.255205 24.687500 8.953125 24.687500 Z M2.062500 17.171875 L2.062500 15.921875 L3.296875 15.921875 C3.473959 15.921875 3.598958 15.885417 3.671875 15.812500 C3.744792 15.739583 3.781250 15.614584 3.781250 15.437500 L3.781250 13.687500 L3.265625 12.687500 L2.062500 12.562500 L2.062500 11.296875 L4.093750 11.515625 L5.031250 13.406250 L5.031250 16.062500 C5.031250 16.802087 4.765628 17.171875 4.234375 17.171875 Z M20.562500 20.968750 L20.562500 2.031250 C20.562500 1.822916 20.458334 1.718750 20.250000 1.718750 L14.828125 1.718750 C14.328122 1.718750 13.830732 1.869790 13.335938 2.171875 C12.841143 2.473960 12.473960 2.854164 12.234375 3.312500 L8.390625 10.703125 L3.187500 10.703125 C2.791665 10.703125 2.583333 10.901040 2.562500 11.296875 C2.541667 11.713544 2.528646 12.138019 2.523438 12.570312 C2.518229 13.002606 2.515625 13.447914 2.515625 13.906250 C2.515625 14.572920 2.541666 15.382808 2.593750 16.335938 C2.645834 17.289067 2.723958 18.104163 2.828125 18.781250 L1.015625 18.734375 C0.901041 17.932288 0.809896 17.127608 0.742188 16.320312 C0.674479 15.513017 0.640625 14.708337 0.640625 13.906250 C0.640625 13.333330 0.648437 12.763024 0.664062 12.195312 C0.679688 11.627601 0.708333 11.057295 0.750000 10.484375 C0.781250 10.067706 0.929686 9.713543 1.195312 9.421875 C1.460939 9.130207 1.802081 8.984375 2.218750 8.984375 L7.265625 8.984375 L10.687500 2.406250 C11.083335 1.656246 11.643226 1.067710 12.367188 0.640625 C13.091149 0.213540 13.880204 -0.000000 14.734375 -0.000000 L21.453125 -0.000000 C21.723960 -0.000000 21.955728 0.085937 22.148438 0.257812 C22.341147 0.429688 22.437500 0.656249 22.437500 0.937500 L22.437500 20.968750 Z M10.390625 10.781250 C10.234374 10.781250 10.119792 10.721355 10.046875 10.601562 C9.973958 10.481770 9.973958 10.354167 10.046875 10.218750 L13.296875 3.984375 C13.453126 3.682290 13.677082 3.437501 13.968750 3.250000 C14.260418 3.062499 14.578123 2.968750 14.921875 2.968750 L18.671875 2.968750 C18.848959 2.968750 18.999999 3.036458 19.125000 3.171875 C19.250001 3.307292 19.312500 3.463541 19.312500 3.640625 L19.312500 10.140625 C19.312500 10.317709 19.247396 10.468749 19.117188 10.593750 C18.986979 10.718751 18.833334 10.781250 18.656250 10.781250 Z M12.468750 9.375000 L17.500000 9.375000 C17.770835 9.375000 17.906250 9.244793 17.906250 8.984375 L17.906250 4.765625 C17.906250 4.505207 17.770835 4.375000 17.500000 4.375000 L15.375000 4.375000 C14.906248 4.375000 14.567709 4.578123 14.359375 4.984375 L12.250000 9.031250 C12.208333 9.114584 12.208333 9.192708 12.250000 9.265625 C12.291667 9.338542 12.364583 9.375000 12.468750 9.375000 Z M30.765625 26.562500 C29.963538 26.562500 29.226566 26.364585 28.554688 25.968750 C27.882809 25.572915 27.348960 25.039066 26.953125 24.367188 C26.557290 23.695309 26.359375 22.958337 26.359375 22.156250 C26.359375 21.343746 26.549477 20.604170 26.929688 19.937500 C27.309898 19.270830 27.833330 18.739585 28.500000 18.343750 C29.166670 17.947915 29.921871 17.750000 30.765625 17.750000 C31.536462 17.750000 32.257809 17.947915 32.929688 18.343750 C33.601566 18.739585 34.143227 19.270830 34.554688 19.937500 C34.966148 20.604170 35.171875 21.343746 35.171875 22.156250 C35.171875 22.958337 34.973960 23.695309 34.578125 24.367188 C34.182290 25.039066 33.651045 25.572915 32.984375 25.968750 C32.317705 26.364585 31.578129 26.562500 30.765625 26.562500 Z M30.765625 24.687500 C31.463545 24.687500 32.059893 24.440107 32.554688 23.945312 C33.049482 23.450518 33.296875 22.854170 33.296875 22.156250 C33.296875 21.458330 33.049482 20.861982 32.554688 20.367188 C32.059893 19.872393 31.463545 19.625000 30.765625 19.625000 C30.067705 19.625000 29.471357 19.872393 28.976562 20.367188 C28.481768 20.861982 28.234375 21.458330 28.234375 22.156250 C28.234375 22.854170 28.481768 23.450518 28.976562 23.945312 C29.471357 24.440107 30.067705 24.687500 30.765625 24.687500 Z M35.531250 16.171875 C35.354166 16.171875 35.203126 16.109376 35.078125 15.984375 C34.953124 15.859374 34.890625 15.708334 34.890625 15.531250 L34.890625 12.765625 C34.890625 12.588541 34.953124 12.437501 35.078125 12.312500 C35.203126 12.187499 35.354166 12.125000 35.531250 12.125000 L36.781250 12.125000 L36.781250 16.171875 Z M39.812500 24.218750" /></svg>