<svg version="1.1" xmlns="http://www.w3.org/2000/svg" style="fill:rgba(0,0,0,1.0)" width="256" height="256" viewBox="0 0 38.703125 31.25"><path fill="rgb(255, 255, 255)" d="M11.187500 31.250000 C8.874988 31.250000 6.882821 30.742193 5.210938 29.726562 C3.539054 28.710932 2.252609 27.263030 1.351562 25.382812 C0.450516 23.502595 0.000000 21.276055 0.000000 18.703125 C0.000000 16.432280 0.398434 14.395842 1.195312 12.593750 C1.992191 10.791658 3.239575 9.148445 4.937500 7.664062 C6.635425 6.179680 8.833320 4.776048 11.531250 3.453125 C12.187503 3.130207 12.781247 2.770835 13.312500 2.375000 C13.843753 1.979165 14.359372 1.601564 14.859375 1.242188 C15.359377 0.882811 15.890622 0.585939 16.453125 0.351562 C17.015628 0.117186 17.661455 -0.000000 18.390625 -0.000000 C19.119795 -0.000000 19.765622 0.117186 20.328125 0.351562 C20.890628 0.585939 21.421872 0.882811 21.921875 1.242188 C22.421878 1.601564 22.937497 1.979165 23.468750 2.375000 C24.000003 2.770835 24.593747 3.130207 25.250000 3.453125 C27.947930 4.776048 30.145825 6.179680 31.843750 7.664062 C33.541675 9.148445 34.789059 10.791658 35.585938 12.593750 C36.382816 14.395842 36.781250 16.432280 36.781250 18.703125 C36.781250 21.276055 36.330734 23.502595 35.429688 25.382812 C34.528641 27.263030 33.242196 28.710932 31.570312 29.726562 C29.898429 30.742193 27.906262 31.250000 25.593750 31.250000 C24.739579 31.250000 23.864588 31.184896 22.968750 31.054688 C22.072912 30.924479 21.226566 30.739585 20.429688 30.500000 C19.632809 30.260415 18.953128 29.989585 18.390625 29.687500 C17.828122 29.989585 17.148441 30.260415 16.351562 30.500000 C15.554684 30.739585 14.708338 30.924479 13.812500 31.054688 C12.916662 31.184896 12.041671 31.250000 11.187500 31.250000 Z M11.484375 22.140625 C10.036451 22.140625 8.971358 21.713546 8.289062 20.859375 C7.606767 20.005204 7.265625 18.671884 7.265625 16.859375 C7.265625 15.057283 7.606767 13.729171 8.289062 12.875000 C8.971358 12.020829 10.036451 11.593750 11.484375 11.593750 C12.932299 11.593750 13.997392 12.020829 14.679688 12.875000 C15.361983 13.729171 15.703125 15.057283 15.703125 16.859375 C15.703125 18.671884 15.361983 20.005204 14.679688 20.859375 C13.997392 21.713546 12.932299 22.140625 11.484375 22.140625 Z M11.187500 29.531250 C12.104171 29.531250 13.036454 29.453126 13.984375 29.296875 C14.932296 29.140624 15.796871 28.929689 16.578125 28.664062 C17.359379 28.398436 17.958331 28.104168 18.375000 27.781250 C18.802085 28.104168 19.411454 28.398436 20.203125 28.664062 C20.994796 28.929689 21.867183 29.140624 22.820312 29.296875 C23.773442 29.453126 24.697912 29.531250 25.593750 29.531250 C27.572927 29.531250 29.255201 29.101567 30.640625 28.242188 C32.026049 27.382808 33.083330 26.143237 33.812500 24.523438 C34.541670 22.903638 34.906250 20.963553 34.906250 18.703125 C34.906250 16.609365 34.554691 14.757821 33.851562 13.148438 C33.148434 11.539054 32.031258 10.075527 30.500000 8.757812 C28.968742 7.440098 26.968762 6.182298 24.500000 4.984375 C23.947914 4.713540 23.414065 4.393231 22.898438 4.023438 C22.382810 3.653644 21.877607 3.294273 21.382812 2.945312 C20.888018 2.596352 20.393232 2.304689 19.898438 2.070312 C19.403643 1.835936 18.901044 1.718750 18.390625 1.718750 C17.880206 1.718750 17.377607 1.835936 16.882812 2.070312 C16.388018 2.304689 15.893232 2.596352 15.398438 2.945312 C14.903643 3.294273 14.398440 3.653644 13.882812 4.023438 C13.367185 4.393231 12.833336 4.713540 12.281250 4.984375 C9.812488 6.182298 7.815112 7.440098 6.289062 8.757812 C4.763013 10.075527 3.645837 11.539054 2.937500 13.148438 C2.229163 14.757821 1.875000 16.609365 1.875000 18.703125 C1.875000 20.973970 2.239580 22.916659 2.968750 24.531250 C3.697920 26.145841 4.755201 27.382808 6.140625 28.242188 C7.526049 29.101567 9.208323 29.531250 11.187500 29.531250 Z M25.296875 22.140625 C23.848951 22.140625 22.783858 21.713546 22.101562 20.859375 C21.419267 20.005204 21.078125 18.671884 21.078125 16.859375 C21.078125 15.057283 21.419267 13.729171 22.101562 12.875000 C22.783858 12.020829 23.848951 11.593750 25.296875 11.593750 C26.744799 11.593750 27.809892 12.020829 28.492188 12.875000 C29.174483 13.729171 29.515625 15.057283 29.515625 16.859375 C29.515625 18.671884 29.174483 20.005204 28.492188 20.859375 C27.809892 21.713546 26.744799 22.140625 25.296875 22.140625 Z M38.703125 26.562500" /></svg>