<svg version="1.1" xmlns="http://www.w3.org/2000/svg" style="fill:rgba(0,0,0,1.0)" width="256" height="256" viewBox="0 0 31.984375 32.8125"><path fill="rgb(255, 255, 255)" d="M11.687500 32.812500 C8.552068 32.812500 6.070322 32.333338 4.242188 31.375000 C2.414053 30.416662 1.411459 29.072925 1.234375 27.343750 C1.140625 26.427079 1.067709 25.447922 1.015625 24.406250 C0.963541 23.364578 0.924479 22.223965 0.898438 20.984375 C0.872396 19.744785 0.854167 18.377612 0.843750 16.882812 C0.833333 15.388013 0.828125 13.729176 0.828125 11.906250 L2.703125 11.906250 C2.703125 14.312512 2.710937 16.450511 2.726562 18.320312 C2.742188 20.190114 2.778646 21.846347 2.835938 23.289062 C2.893229 24.731778 2.984374 26.031244 3.109375 27.187500 C3.234376 28.281255 4.041659 29.179684 5.531250 29.882812 C7.020841 30.585941 9.072904 30.937500 11.687500 30.937500 C13.760427 30.937500 15.523430 30.770835 16.976562 30.437500 C18.429695 30.104165 19.541663 29.656253 20.312500 29.093750 C21.083337 28.531247 21.468750 27.916670 21.468750 27.250000 C21.468750 27.010415 21.429688 26.763022 21.351562 26.507812 C21.273437 26.252603 21.166667 25.989585 21.031250 25.718750 C20.864582 25.385415 20.718751 25.026044 20.593750 24.640625 C20.468749 24.255206 20.406250 23.838544 20.406250 23.390625 L20.406250 11.906250 L22.281250 11.906250 L22.281250 23.390625 C22.281250 23.859377 22.341145 24.263019 22.460938 24.601562 C22.580730 24.940106 22.713541 25.260415 22.859375 25.562500 C22.994792 25.822918 23.109375 26.085936 23.203125 26.351562 C23.296875 26.617189 23.343750 26.916665 23.343750 27.250000 C23.343750 28.364589 22.882817 29.338538 21.960938 30.171875 C21.039058 31.005212 19.708342 31.653644 17.968750 32.117188 C16.229158 32.580731 14.135429 32.812500 11.687500 32.812500 Z M11.531250 23.500000 C10.645829 23.500000 9.817712 23.325523 9.046875 22.976562 C8.276038 22.627602 7.593753 22.093754 7.000000 21.375000 L8.109375 20.406250 C8.588544 20.979170 9.104164 21.390624 9.656250 21.640625 C10.208336 21.890626 10.833330 22.015625 11.531250 22.015625 C12.239587 22.015625 12.869789 21.890626 13.421875 21.640625 C13.973961 21.390624 14.484373 20.979170 14.953125 20.406250 L16.062500 21.375000 C15.468747 22.093754 14.789066 22.627602 14.023438 22.976562 C13.257809 23.325523 12.427088 23.500000 11.531250 23.500000 Z M7.625000 18.671875 C7.187498 18.671875 6.825522 18.507814 6.539062 18.179688 C6.252603 17.851561 6.109375 17.463544 6.109375 17.015625 C6.109375 16.557289 6.252603 16.166668 6.539062 15.843750 C6.825522 15.520832 7.187498 15.359375 7.625000 15.359375 C8.062502 15.359375 8.424478 15.520832 8.710938 15.843750 C8.997397 16.166668 9.140625 16.557289 9.140625 17.015625 C9.140625 17.463544 8.997397 17.851561 8.710938 18.179688 C8.424478 18.507814 8.062502 18.671875 7.625000 18.671875 Z M15.468750 18.671875 C15.031248 18.671875 14.669272 18.507814 14.382812 18.179688 C14.096353 17.851561 13.953125 17.463544 13.953125 17.015625 C13.953125 16.557289 14.096353 16.166668 14.382812 15.843750 C14.669272 15.520832 15.031248 15.359375 15.468750 15.359375 C15.906252 15.359375 16.268228 15.520832 16.554688 15.843750 C16.841147 16.166668 16.984375 16.557289 16.984375 17.015625 C16.984375 17.463544 16.841147 17.851561 16.554688 18.179688 C16.268228 18.507814 15.906252 18.671875 15.468750 18.671875 Z M7.859375 10.968750 L9.343750 10.968750 C9.333333 10.854166 9.317708 10.736980 9.296875 10.617188 C9.276042 10.497395 9.250000 10.385417 9.218750 10.281250 L6.781250 10.281250 C7.125002 10.572918 7.484373 10.802083 7.859375 10.968750 Z M5.937500 9.343750 L8.875000 9.343750 C8.812500 9.229166 8.747396 9.117188 8.679688 9.007812 C8.611979 8.898437 8.526042 8.781251 8.421875 8.656250 L5.468750 8.656250 C5.552084 8.781251 5.632812 8.903645 5.710938 9.023438 C5.789063 9.143230 5.864583 9.250000 5.937500 9.343750 Z M11.531250 16.406250 C9.562490 16.406250 7.768237 16.218752 6.148438 15.843750 C4.528638 15.468748 3.236984 14.945316 2.273438 14.273438 C1.309891 13.601559 0.828125 12.812505 0.828125 11.906250 C0.828125 11.333330 0.994790 10.825523 1.328125 10.382812 C1.661460 9.940102 2.078122 9.557293 2.578125 9.234375 C3.078128 8.911457 3.567706 8.640626 4.046875 8.421875 C3.973958 8.276041 3.898438 8.132813 3.820312 7.992188 C3.742187 7.851562 3.661459 7.708334 3.578125 7.562500 L8.031250 7.562500 L8.921875 5.203125 C9.463544 5.494793 9.921873 5.703124 10.296875 5.828125 C10.671877 5.953126 11.083331 6.015625 11.531250 6.015625 C11.979169 6.015625 12.390623 5.953126 12.765625 5.828125 C13.140627 5.703124 13.598956 5.494793 14.140625 5.203125 L15.031250 7.562500 L19.484375 7.562500 C19.411458 7.708334 19.335938 7.851562 19.257812 7.992188 C19.179687 8.132813 19.098959 8.276041 19.015625 8.421875 C19.505211 8.640626 19.999998 8.911457 20.500000 9.234375 C21.000002 9.557293 21.421873 9.940102 21.765625 10.382812 C22.109377 10.825523 22.281250 11.333330 22.281250 11.906250 C22.281250 12.583337 22.002607 13.197914 21.445312 13.750000 C20.888018 14.302086 20.117192 14.776040 19.132812 15.171875 C18.148433 15.567710 17.007819 15.872395 15.710938 16.085938 C14.414056 16.299480 13.020841 16.406250 11.531250 16.406250 Z M11.531250 12.281250 C11.718751 12.083332 11.893228 11.927084 12.054688 11.812500 C12.216147 11.697916 12.453123 11.572917 12.765625 11.437500 C12.765625 10.864580 12.864582 10.281253 13.062500 9.687500 C13.260418 9.093747 13.531248 8.557294 13.875000 8.078125 L13.453125 6.921875 C13.140623 7.026042 12.825522 7.109375 12.507812 7.171875 C12.190103 7.234375 11.864585 7.265625 11.531250 7.265625 C11.208332 7.265625 10.885418 7.234375 10.562500 7.171875 C10.239582 7.109375 9.921877 7.026042 9.609375 6.921875 L9.187500 8.078125 C9.531252 8.557294 9.802082 9.093747 10.000000 9.687500 C10.197918 10.281253 10.296875 10.864580 10.296875 11.437500 C10.609377 11.572917 10.846353 11.697916 11.007812 11.812500 C11.169272 11.927084 11.343749 12.083332 11.531250 12.281250 Z M13.718750 10.968750 L15.203125 10.968750 C15.578127 10.802083 15.937498 10.572918 16.281250 10.281250 L13.843750 10.281250 C13.812500 10.385417 13.789063 10.497395 13.773438 10.617188 C13.757812 10.736980 13.739583 10.854166 13.718750 10.968750 Z M21.890625 11.234375 L20.203125 10.484375 C20.557293 9.859372 20.809895 9.341148 20.960938 8.929688 C21.111980 8.518227 21.187500 8.114585 21.187500 7.718750 C21.187500 6.593744 20.757817 5.578130 19.898438 4.671875 C19.039058 3.765620 17.880216 3.046878 16.421875 2.515625 C14.963534 1.984372 13.333342 1.718750 11.531250 1.718750 C9.729158 1.718750 8.098966 1.984372 6.640625 2.515625 C5.182284 3.046878 4.023442 3.765620 3.164062 4.671875 C2.304683 5.578130 1.875000 6.593744 1.875000 7.718750 C1.875000 8.114585 1.950520 8.518227 2.101562 8.929688 C2.252605 9.341148 2.505207 9.859372 2.859375 10.484375 L1.171875 11.234375 C0.765623 10.494788 0.468751 9.859378 0.281250 9.328125 C0.093749 8.796872 0.000000 8.260419 0.000000 7.718750 C0.000000 6.635411 0.296872 5.627609 0.890625 4.695312 C1.484378 3.763016 2.307286 2.945316 3.359375 2.242188 C4.411464 1.539059 5.635410 0.989585 7.031250 0.593750 C8.427090 0.197915 9.927075 -0.000000 11.531250 -0.000000 C13.145841 -0.000000 14.651035 0.197915 16.046875 0.593750 C17.442715 0.989585 18.666661 1.539059 19.718750 2.242188 C20.770839 2.945316 21.591143 3.763016 22.179688 4.695312 C22.768232 5.627609 23.062500 6.635411 23.062500 7.718750 C23.062500 8.260419 22.968751 8.796872 22.781250 9.328125 C22.593749 9.859378 22.296877 10.494788 21.890625 11.234375 Z M14.187500 9.343750 L17.125000 9.343750 C17.197917 9.250000 17.276041 9.143230 17.359375 9.023438 C17.442709 8.903645 17.520833 8.781251 17.593750 8.656250 L14.640625 8.656250 C14.536458 8.781251 14.450521 8.898437 14.382812 9.007812 C14.315104 9.117188 14.250000 9.229166 14.187500 9.343750 Z M31.984375 27.343750" /></svg>