<svg version="1.1" xmlns="http://www.w3.org/2000/svg" style="fill:rgba(0,0,0,1.0)" width="256" height="256" viewBox="0 0 36.71875 32.8125"><path fill="rgb(255, 255, 255)" d="M17.890625 25.109375 C17.619790 25.109375 17.398438 25.044271 17.226562 24.914062 C17.054687 24.783854 16.875001 24.718750 16.687500 24.718750 C16.458332 24.718750 16.273438 24.770833 16.132812 24.875000 C15.992187 24.979167 15.796876 25.031250 15.546875 25.031250 C15.213540 25.031250 14.960938 24.960938 14.789062 24.820312 C14.617187 24.679687 14.476563 24.515626 14.367188 24.328125 C14.257812 24.140624 14.125001 23.989584 13.968750 23.875000 C13.802083 23.749999 13.572918 23.677083 13.281250 23.656250 C13.041665 23.645833 12.830730 23.588542 12.648438 23.484375 C12.466145 23.380208 12.375000 23.213543 12.375000 22.984375 C12.375000 22.734374 12.520832 22.468751 12.812500 22.187500 C12.614582 22.041666 12.481771 21.882813 12.414062 21.710938 C12.346354 21.539062 12.312500 21.385417 12.312500 21.250000 C12.312500 21.104166 12.341146 20.945313 12.398438 20.773438 C12.455729 20.601562 12.484375 20.453126 12.484375 20.328125 C12.484375 20.088540 12.372397 19.934896 12.148438 19.867188 C11.924478 19.799479 11.718751 19.677084 11.531250 19.500000 C11.343749 19.322916 11.171876 19.098960 11.015625 18.828125 C10.859374 18.557290 10.604168 18.421875 10.250000 18.421875 C10.083332 18.421875 9.919272 18.440104 9.757812 18.476562 C9.596353 18.513021 9.437501 18.619791 9.281250 18.796875 C9.208333 18.744791 9.130209 18.666667 9.046875 18.562500 C8.963541 18.458333 8.921875 18.333334 8.921875 18.187500 C8.921875 17.968749 8.997395 17.783855 9.148438 17.632812 C9.299480 17.481770 9.458333 17.390625 9.625000 17.359375 C9.489583 17.265625 9.416667 17.132813 9.406250 16.960938 C9.395833 16.789062 9.421875 16.635417 9.484375 16.500000 C9.286457 16.447916 9.083334 16.315105 8.875000 16.101562 C8.666666 15.888020 8.562500 15.588544 8.562500 15.203125 C8.562500 14.776040 8.656249 14.484376 8.843750 14.328125 C9.031251 14.171874 9.229166 14.062500 9.437500 14.000000 C9.645834 13.937500 9.781250 13.838542 9.843750 13.703125 C9.895834 13.598958 9.888021 13.486980 9.820312 13.367188 C9.752604 13.247395 9.718750 13.104167 9.718750 12.937500 C9.718750 12.760416 9.781249 12.588542 9.906250 12.421875 C10.031251 12.255208 10.192707 12.171875 10.390625 12.171875 C10.640626 12.171875 10.791666 12.145834 10.843750 12.093750 C10.895834 12.041666 10.914063 11.976563 10.898438 11.898438 C10.882812 11.820312 10.875000 11.729167 10.875000 11.625000 C10.875000 11.135414 11.218747 10.890625 11.906250 10.890625 C11.958334 10.609374 12.104165 10.408855 12.343750 10.289062 C12.583335 10.169270 12.833332 10.151041 13.093750 10.234375 C13.270834 9.713539 13.572915 9.361980 14.000000 9.179688 C14.427085 8.997395 14.942705 8.989583 15.546875 9.156250 C15.609375 9.010416 15.695312 8.875001 15.804688 8.750000 C15.914063 8.624999 16.083332 8.562500 16.312500 8.562500 C16.510418 8.562500 16.661458 8.617187 16.765625 8.726562 C16.869792 8.835938 16.979166 8.890625 17.093750 8.890625 C17.187500 8.890625 17.281250 8.817709 17.375000 8.671875 C17.468750 8.526041 17.614582 8.453125 17.812500 8.453125 C18.041668 8.453125 18.205729 8.536458 18.304688 8.703125 C18.403646 8.869792 18.536458 8.953125 18.703125 8.953125 C18.848959 8.953125 19.015624 8.919271 19.203125 8.851562 C19.390626 8.783854 19.604165 8.848957 19.843750 9.046875 C20.010418 9.182292 20.085938 9.414061 20.070312 9.742188 C20.054687 10.070314 19.968751 10.411457 19.812500 10.765625 C20.145835 10.869792 20.343750 11.083332 20.406250 11.406250 C20.468750 11.729168 20.416668 12.010415 20.250000 12.250000 C20.416668 12.416667 20.507812 12.601561 20.523438 12.804688 C20.539063 13.007814 20.614583 13.177083 20.750000 13.312500 C20.843750 13.406250 21.049478 13.432292 21.367188 13.390625 C21.684897 13.348958 21.989582 13.375000 22.281250 13.468750 C22.572918 13.562500 22.817707 13.721353 23.015625 13.945312 C23.213543 14.169272 23.364583 14.296875 23.468750 14.328125 C23.614584 14.276041 23.822915 14.317708 24.093750 14.453125 C24.364585 14.588542 24.500000 14.859373 24.500000 15.265625 C24.500000 15.432292 24.460938 15.554687 24.382812 15.632812 C24.304687 15.710938 24.187501 15.786458 24.031250 15.859375 C24.343752 16.057293 24.500000 16.265624 24.500000 16.484375 C24.500000 16.651042 24.440105 16.783854 24.320312 16.882812 C24.200520 16.981771 24.140625 17.119791 24.140625 17.296875 C24.140625 17.390625 24.184895 17.479166 24.273438 17.562500 C24.361980 17.645834 24.406250 17.791666 24.406250 18.000000 C24.406250 18.229168 24.328126 18.382812 24.171875 18.460938 C24.015624 18.539063 23.937500 18.682291 23.937500 18.890625 C23.937500 18.984375 23.976562 19.127603 24.054688 19.320312 C24.132813 19.513022 24.171875 19.713541 24.171875 19.921875 C24.171875 20.140626 24.098959 20.330728 23.953125 20.492188 C23.807291 20.653647 23.630209 20.770833 23.421875 20.843750 C23.348958 20.656249 23.263021 20.510417 23.164062 20.406250 C23.065104 20.302083 22.947917 20.250000 22.812500 20.250000 C22.614582 20.250000 22.401043 20.351561 22.171875 20.554688 C21.942707 20.757814 21.739584 20.859375 21.562500 20.859375 C21.468750 20.859375 21.356771 20.846354 21.226562 20.820312 C21.096354 20.794271 20.963542 20.781250 20.828125 20.781250 C20.703124 20.781250 20.578126 20.799479 20.453125 20.835938 C20.328124 20.872396 20.213542 20.947916 20.109375 21.062500 C19.942708 21.239584 19.880208 21.494790 19.921875 21.828125 C19.963542 22.161460 19.854168 22.473957 19.593750 22.765625 C19.458333 22.921876 19.372396 23.075520 19.335938 23.226562 C19.299479 23.377605 19.281250 23.562499 19.281250 23.781250 C19.281250 24.239586 19.148439 24.575520 18.882812 24.789062 C18.617186 25.002605 18.286460 25.109375 17.890625 25.109375 Z M11.937500 32.781250 C11.208330 32.781250 10.476566 32.625002 9.742188 32.312500 C9.007809 31.999998 8.335941 31.570315 7.726562 31.023438 C7.117184 30.476560 6.640627 29.864587 6.296875 29.187500 L7.437500 28.484375 C7.677085 29.036461 8.046872 29.536456 8.546875 29.984375 C9.046878 30.432294 9.596351 30.789061 10.195312 31.054688 C10.794274 31.320314 11.369789 31.453125 11.921875 31.453125 C12.286460 31.453125 12.627603 31.369792 12.945312 31.203125 C13.263022 31.036458 13.515624 30.755210 13.703125 30.359375 L15.000000 30.703125 C14.749999 31.432295 14.343753 31.960936 13.781250 32.289062 C13.218747 32.617189 12.604170 32.781250 11.937500 32.781250 Z M4.265625 25.078125 C3.598955 25.078125 2.981774 24.861981 2.414062 24.429688 C1.846351 23.997394 1.390627 23.468753 1.046875 22.843750 C0.734373 22.281247 0.481772 21.705732 0.289062 21.117188 C0.096353 20.528643 0.000000 19.932295 0.000000 19.328125 C0.000000 18.807289 0.072916 18.265628 0.218750 17.703125 L1.546875 17.953125 C1.401041 18.380210 1.328125 18.843748 1.328125 19.343750 C1.328125 19.843752 1.411458 20.335935 1.578125 20.820312 C1.744792 21.304690 1.947915 21.760415 2.187500 22.187500 C2.427085 22.614585 2.718748 22.976561 3.062500 23.273438 C3.406252 23.570314 3.791665 23.718750 4.218750 23.718750 C4.343751 23.718750 4.471354 23.703125 4.601562 23.671875 C4.731771 23.640625 4.864583 23.598959 5.000000 23.546875 L5.703125 24.687500 C5.463540 24.822917 5.223960 24.921875 4.984375 24.984375 C4.744790 25.046875 4.505210 25.078125 4.265625 25.078125 Z M4.625000 23.953125 C4.062497 23.515623 3.635418 22.950524 3.343750 22.257812 C3.052082 21.565101 2.906250 20.916670 2.906250 20.312500 C2.906250 20.093749 2.921875 19.872397 2.953125 19.648438 C2.984375 19.424478 3.020833 19.197918 3.062500 18.968750 L4.468750 19.031250 C4.406250 19.385418 4.375000 19.729165 4.375000 20.062500 C4.375000 20.604169 4.476561 21.127602 4.679688 21.632812 C4.882814 22.138023 5.218748 22.640622 5.687500 23.140625 Z M13.718750 30.968750 C12.791662 30.968750 11.937504 30.716148 11.156250 30.210938 C10.374996 29.705727 9.744794 29.041671 9.265625 28.218750 L10.281250 27.328125 C10.697919 27.984378 11.190101 28.499998 11.757812 28.875000 C12.325524 29.250002 13.057287 29.479166 13.953125 29.562500 Z M5.046875 24.953125 L4.437500 23.828125 L9.828125 17.375000 L10.859375 18.250000 L6.421875 23.406250 L12.953125 21.843750 L13.265625 23.031250 Z M14.656250 31.375000 L13.406250 31.187500 L12.968750 23.265625 L14.406250 23.546875 L14.546875 29.218750 L17.375000 24.484375 L18.812500 24.625000 Z M20.125000 32.812500 C19.895832 32.812500 19.669272 32.799479 19.445312 32.773438 C19.221353 32.747396 18.989585 32.708334 18.750000 32.656250 L18.906250 31.328125 C19.104168 31.380209 19.302082 31.419271 19.500000 31.445312 C19.697918 31.471354 19.895832 31.484375 20.093750 31.484375 C20.718753 31.484375 21.377601 31.348960 22.070312 31.078125 C22.763024 30.807290 23.351560 30.447919 23.835938 30.000000 C24.320315 29.552081 24.562500 29.057294 24.562500 28.515625 C24.562500 28.234374 24.494792 27.958335 24.359375 27.687500 L25.453125 26.906250 C25.765627 27.416669 25.921875 27.942706 25.921875 28.484375 C25.921875 29.307296 25.619795 30.044268 25.015625 30.695312 C24.411455 31.346357 23.661463 31.861977 22.765625 32.242188 C21.869787 32.622398 20.989588 32.812500 20.125000 32.812500 Z M20.906250 29.875000 C20.739582 29.875000 20.567709 29.867188 20.390625 29.851562 C20.213541 29.835937 20.036459 29.812500 19.859375 29.781250 L19.859375 28.421875 C19.994792 28.432292 20.124999 28.442708 20.250000 28.453125 C20.375001 28.463542 20.499999 28.468750 20.625000 28.468750 C21.218753 28.468750 21.783851 28.359376 22.320312 28.140625 C22.856774 27.921874 23.385414 27.541669 23.906250 27.000000 L24.765625 28.015625 C24.328123 28.651045 23.768233 29.119790 23.085938 29.421875 C22.403642 29.723960 21.677087 29.875000 20.906250 29.875000 Z M8.937500 15.734375 L4.281250 10.140625 L5.000000 9.093750 L12.453125 10.812500 L11.781250 12.046875 L6.281250 10.671875 L9.609375 14.484375 Z M16.171875 20.093750 L15.843750 18.421875 L17.500000 18.421875 L17.828125 20.093750 Z M24.593750 28.218750 L18.406250 23.437500 L19.265625 22.437500 L24.078125 26.250000 L22.265625 20.234375 L23.484375 19.750000 L25.671875 27.562500 Z M13.656250 16.328125 L13.328125 14.656250 L14.984375 14.656250 L15.312500 16.328125 Z M6.125000 9.921875 L4.906250 9.359375 C5.093751 8.432287 5.536455 7.656253 6.234375 7.031250 C6.932295 6.406247 7.739579 5.979168 8.656250 5.750000 L9.250000 6.968750 C8.510413 7.197918 7.880211 7.536456 7.359375 7.984375 C6.838539 8.432294 6.427085 9.078121 6.125000 9.921875 Z M4.734375 10.609375 C4.265623 10.286457 3.927084 9.911460 3.718750 9.484375 C3.510416 9.057290 3.406250 8.609377 3.406250 8.140625 C3.406250 7.713540 3.484374 7.281252 3.640625 6.843750 C3.796876 6.406248 4.005207 5.994794 4.265625 5.609375 C4.786461 4.848955 5.395830 4.208336 6.093750 3.687500 C6.791670 3.166664 7.598954 2.812501 8.515625 2.625000 L8.890625 3.921875 C8.130205 4.026042 7.460940 4.307289 6.882812 4.765625 C6.304685 5.223961 5.802085 5.755205 5.375000 6.359375 C5.177082 6.640626 5.015626 6.934894 4.890625 7.242188 C4.765624 7.549481 4.703125 7.848957 4.703125 8.140625 C4.703125 8.401043 4.765624 8.638020 4.890625 8.851562 C5.015626 9.065105 5.187499 9.265624 5.406250 9.453125 Z M16.656250 23.031250 C16.593750 22.968750 16.562500 22.859376 16.562500 22.703125 C16.562500 22.484374 16.619791 22.330730 16.734375 22.242188 C16.848959 22.153645 16.960937 22.062500 17.070312 21.968750 C17.179688 21.875000 17.234375 21.729168 17.234375 21.531250 C17.234375 21.385416 17.242187 21.239584 17.257812 21.093750 C17.273438 20.947916 17.317708 20.822917 17.390625 20.718750 C17.526042 20.541666 17.669270 20.450521 17.820312 20.445312 C17.971355 20.440104 18.114583 20.333334 18.250000 20.125000 C18.375001 19.937499 18.445312 19.757813 18.460938 19.585938 C18.476563 19.414062 18.562499 19.260417 18.718750 19.125000 C18.895834 18.979166 19.057291 18.921875 19.203125 18.953125 C19.348959 18.984375 19.489583 18.927084 19.625000 18.781250 C19.822918 18.572916 19.966145 18.377605 20.054688 18.195312 C20.143230 18.013020 20.333332 17.921875 20.625000 17.921875 C20.739584 17.921875 20.843750 17.945312 20.937500 17.992188 C21.031250 18.039063 21.145833 18.062500 21.281250 18.062500 C21.375000 18.062500 21.486979 18.031250 21.617188 17.968750 C21.747396 17.906250 21.885416 17.859375 22.031250 17.828125 C22.114584 17.463540 22.156250 17.041669 22.156250 16.562500 C22.020833 16.635417 21.864584 16.671875 21.687500 16.671875 C21.468749 16.671875 21.252605 16.604167 21.039062 16.468750 C20.825520 16.333333 20.677084 16.135418 20.593750 15.875000 C20.395832 15.958334 20.182293 16.000000 19.953125 16.000000 C19.588540 16.000000 19.286460 15.880210 19.046875 15.640625 C18.807290 15.401040 18.687500 15.119793 18.687500 14.796875 C18.312498 14.723958 17.981772 14.546876 17.695312 14.265625 C17.408853 13.984374 17.265625 13.635419 17.265625 13.218750 C17.265625 13.031249 17.307291 12.822918 17.390625 12.593750 C17.182291 12.593750 17.002605 12.497397 16.851562 12.304688 C16.700520 12.111978 16.625000 11.885418 16.625000 11.625000 C16.625000 11.322915 16.734374 11.062501 16.953125 10.843750 C15.953120 10.843750 15.026046 11.052081 14.171875 11.468750 C13.317704 11.885419 12.601565 12.473955 12.023438 13.234375 C11.445310 13.994795 11.072918 14.895828 10.906250 15.937500 C10.979167 16.052084 11.052083 16.143229 11.125000 16.210938 C11.197917 16.278646 11.281250 16.328125 11.375000 16.359375 C11.552084 16.411459 11.744791 16.419271 11.953125 16.382812 C12.161459 16.346354 12.364582 16.390624 12.562500 16.515625 C12.781251 16.651042 12.903646 16.809895 12.929688 16.992188 C12.955729 17.174480 13.046874 17.338541 13.203125 17.484375 C13.348959 17.619792 13.520832 17.700521 13.718750 17.726562 C13.916668 17.752604 14.104166 17.864582 14.281250 18.062500 C14.416667 18.208334 14.471354 18.388020 14.445312 18.601562 C14.419271 18.815105 14.468749 19.005207 14.593750 19.171875 C14.718751 19.338543 14.872395 19.468750 15.054688 19.562500 C15.236980 19.656250 15.328125 19.854165 15.328125 20.156250 C15.328125 20.447918 15.278646 20.651041 15.179688 20.765625 C15.080729 20.880209 15.031250 21.078124 15.031250 21.359375 C15.031250 21.442709 15.072916 21.609374 15.156250 21.859375 C15.239584 22.109376 15.177084 22.401040 14.968750 22.734375 C15.281252 22.828125 15.583332 22.895833 15.875000 22.937500 C16.166668 22.979167 16.427082 23.010417 16.656250 23.031250 Z M15.859375 17.265625 L16.187500 15.609375 L17.843750 15.609375 L17.515625 17.265625 Z M14.156250 13.765625 L14.484375 12.109375 L16.140625 12.109375 L15.812500 13.765625 Z M12.250000 11.609375 C11.937498 11.067706 11.606773 10.226568 11.257812 9.085938 C10.908852 7.945307 10.734375 6.708340 10.734375 5.375000 C10.734375 4.406245 10.815103 3.466150 10.976562 2.554688 C11.138022 1.643225 11.427081 0.791671 11.843750 -0.000000 L13.156250 0.437500 C12.802082 1.145837 12.539063 1.916663 12.367188 2.750000 C12.195312 3.583338 12.109375 4.479162 12.109375 5.437500 C12.109375 6.166670 12.184895 6.898434 12.335938 7.632812 C12.486980 8.367191 12.666666 9.033851 12.875000 9.632812 C13.083334 10.231774 13.276041 10.703123 13.453125 11.046875 Z M28.250000 23.890625 L27.234375 23.000000 C27.786461 22.541664 28.205728 22.033857 28.492188 21.476562 C28.778647 20.919268 28.921875 20.255212 28.921875 19.484375 C28.921875 19.421875 28.921875 19.354167 28.921875 19.281250 C28.921875 19.208333 28.916667 19.135417 28.906250 19.062500 L30.234375 19.093750 C30.265625 19.239584 30.291667 19.390624 30.312500 19.546875 C30.333333 19.703126 30.343750 19.854166 30.343750 20.000000 C30.343750 20.750004 30.153648 21.463538 29.773438 22.140625 C29.393227 22.817712 28.885420 23.401039 28.250000 23.890625 Z M29.625000 26.703125 L28.765625 25.671875 C29.505212 25.213539 30.080727 24.562504 30.492188 23.718750 C30.903648 22.874996 31.109375 22.041671 31.109375 21.218750 C31.109375 20.760414 31.007814 20.346356 30.804688 19.976562 C30.601561 19.606769 30.250002 19.343751 29.750000 19.187500 L29.906250 17.859375 C30.791671 18.026042 31.432290 18.440101 31.828125 19.101562 C32.223960 19.763024 32.421875 20.484371 32.421875 21.265625 C32.421875 22.296880 32.171878 23.309891 31.671875 24.304688 C31.171872 25.299484 30.489588 26.098955 29.625000 26.703125 Z M23.734375 20.468750 L23.734375 19.125000 L28.515625 18.406250 L24.031250 16.187500 L23.781250 14.562500 L30.562500 18.125000 L30.312500 19.359375 Z M15.093750 9.656250 L13.734375 9.578125 L15.781250 2.343750 L17.031250 2.343750 L19.734375 9.156250 L18.359375 9.312500 L16.468750 4.281250 Z M23.453125 14.953125 L22.296875 14.218750 L25.406250 8.203125 L19.453125 11.234375 L18.828125 10.156250 L26.390625 6.390625 L27.234375 7.328125 Z M21.203125 4.625000 C20.765623 4.281248 20.320315 4.015626 19.867188 3.828125 C19.414060 3.640624 18.916669 3.546875 18.375000 3.546875 C17.958331 3.546875 17.500002 3.609374 17.000000 3.734375 L16.812500 2.421875 C17.083335 2.307291 17.356769 2.221354 17.632812 2.164062 C17.908856 2.106771 18.182290 2.078125 18.453125 2.078125 C19.067711 2.078125 19.677080 2.195311 20.281250 2.429688 C20.885420 2.664064 21.432289 2.999998 21.921875 3.437500 Z M15.640625 3.203125 C15.640625 2.484371 15.828123 1.888023 16.203125 1.414062 C16.578127 0.940102 17.062497 0.585939 17.656250 0.351562 C18.250003 0.117186 18.869788 -0.000000 19.515625 -0.000000 C20.432296 -0.000000 21.302079 0.138019 22.125000 0.414062 C22.947921 0.690106 23.703122 1.161455 24.390625 1.828125 L23.546875 2.859375 C23.015622 2.286455 22.398441 1.888022 21.695312 1.664062 C20.992184 1.440103 20.270837 1.328125 19.531250 1.328125 C18.895830 1.328125 18.333336 1.458332 17.843750 1.718750 C17.354164 1.979168 17.067709 2.447913 16.984375 3.125000 Z M31.390625 12.328125 C31.390625 11.505204 31.218752 10.705733 30.875000 9.929688 C30.531248 9.153642 30.091149 8.513023 29.554688 8.007812 C29.018226 7.502602 28.453128 7.250000 27.859375 7.250000 C27.494790 7.250000 27.135418 7.380207 26.781250 7.640625 L25.828125 6.718750 C26.130210 6.437499 26.450519 6.236980 26.789062 6.117188 C27.127606 5.997395 27.463540 5.937500 27.796875 5.937500 C28.786463 5.937500 29.656246 6.257809 30.406250 6.898438 C31.156254 7.539066 31.744790 8.343745 32.171875 9.312500 C32.598960 10.281255 32.812500 11.260412 32.812500 12.250000 Z M28.328125 11.937500 C28.286458 11.166663 28.106772 10.479170 27.789062 9.875000 C27.471353 9.270830 26.937504 8.723961 26.187500 8.234375 L27.015625 7.203125 C27.880213 7.588544 28.533852 8.190100 28.976562 9.007812 C29.419273 9.825525 29.640625 10.713537 29.640625 11.671875 Z M36.718750 27.343750" /></svg>