<svg version="1.1" xmlns="http://www.w3.org/2000/svg" style="fill:rgba(0,0,0,1.0)" width="256" height="256" viewBox="0 0 30.375 32.8125"><path fill="rgb(255, 255, 255)" d="M10.156250 25.421875 C8.927077 25.369791 7.958337 25.302084 7.250000 25.218750 C6.541663 25.135416 5.945315 25.023438 5.460938 24.882812 C4.976560 24.742187 4.453128 24.562501 3.890625 24.343750 C3.161455 24.062499 2.502607 23.679690 1.914062 23.195312 C1.325518 22.710935 0.859377 22.216148 0.515625 21.710938 C0.171873 21.205727 0.000000 20.776043 0.000000 20.421875 C0.000000 20.213541 0.065104 20.049480 0.195312 19.929688 C0.325521 19.809895 0.536457 19.750000 0.828125 19.750000 C0.546874 19.374998 0.406250 18.984377 0.406250 18.578125 C0.406250 18.276040 0.492187 18.020834 0.664062 17.812500 C0.835938 17.604166 1.098957 17.500000 1.453125 17.500000 C1.557292 17.500000 1.666666 17.515625 1.781250 17.546875 C1.895834 17.578125 2.010416 17.619791 2.125000 17.671875 L1.843750 16.578125 C1.708333 16.026039 1.744791 15.565106 1.953125 15.195312 C2.161459 14.825519 2.442707 14.640625 2.796875 14.640625 C2.953126 14.640625 3.119791 14.682291 3.296875 14.765625 C3.473959 14.848959 3.645832 14.979166 3.812500 15.156250 C3.864584 14.760415 4.028644 14.455730 4.304688 14.242188 C4.580731 14.028645 4.942706 13.953125 5.390625 14.015625 L5.390625 19.312500 C5.661460 19.385417 5.908853 19.539061 6.132812 19.773438 C6.356772 20.007814 6.583332 20.338540 6.812500 20.765625 C6.927084 20.432290 7.083332 20.177084 7.281250 20.000000 C7.479168 19.822916 7.744790 19.734375 8.078125 19.734375 C8.348960 19.734375 8.632811 19.830728 8.929688 20.023438 C9.226564 20.216147 9.494790 20.463540 9.734375 20.765625 C9.973960 21.067710 10.135416 21.380207 10.218750 21.703125 C10.458335 21.161456 10.791665 20.734377 11.218750 20.421875 C11.645835 20.109373 12.109373 19.953125 12.609375 19.953125 C12.942710 19.953125 13.236978 20.075520 13.492188 20.320312 C13.747397 20.565105 13.875000 20.854165 13.875000 21.187500 L13.875000 15.390625 C14.437503 14.557288 14.859374 14.028647 15.140625 13.804688 C15.421876 13.580728 15.661457 13.468750 15.859375 13.468750 C16.401044 13.468750 16.671875 13.786455 16.671875 14.421875 C16.671875 14.640626 16.643229 14.869790 16.585938 15.109375 C16.528646 15.348960 16.468750 15.557291 16.406250 15.734375 C16.541667 15.682291 16.671874 15.645833 16.796875 15.625000 C16.921876 15.604167 17.041666 15.593750 17.156250 15.593750 C17.572919 15.593750 17.874999 15.723957 18.062500 15.984375 C18.250001 16.244793 18.343750 16.619789 18.343750 17.109375 C18.458334 17.036458 18.583333 16.979167 18.718750 16.937500 C18.854167 16.895833 18.989583 16.875000 19.125000 16.875000 C19.427085 16.875000 19.669270 16.981770 19.851562 17.195312 C20.033855 17.408855 20.125000 17.677082 20.125000 18.000000 C20.125000 18.375002 20.007814 18.812498 19.773438 19.312500 C19.539061 19.812502 19.192711 20.333331 18.734375 20.875000 C19.036460 20.791666 19.276041 20.799479 19.453125 20.898438 C19.630209 20.997396 19.718750 21.151041 19.718750 21.359375 C19.718750 21.932295 19.406253 22.458331 18.781250 22.937500 C18.156247 23.416669 17.351567 23.833332 16.367188 24.187500 C15.382808 24.541668 14.338547 24.825520 13.234375 25.039062 C12.130203 25.252605 11.104171 25.380208 10.156250 25.421875 Z M10.156250 32.812500 C8.447908 32.812500 6.888028 32.708334 5.476562 32.500000 C4.065097 32.291666 2.942712 32.010418 2.109375 31.656250 C1.276038 31.302082 0.859375 30.911460 0.859375 30.484375 L0.859375 28.921875 C0.859375 28.536456 1.203122 28.179689 1.890625 27.851562 C2.578128 27.523436 3.494786 27.255209 4.640625 27.046875 L4.859375 28.984375 C5.442711 29.213543 6.164058 29.398437 7.023438 29.539062 C7.882817 29.679688 8.812495 29.768229 9.812500 29.804688 C10.812505 29.841146 11.820307 29.817709 12.835938 29.734375 C13.851568 29.651041 14.802079 29.505209 15.687500 29.296875 L15.843750 27.078125 C16.947922 27.286459 17.825518 27.552082 18.476562 27.875000 C19.127607 28.197918 19.453125 28.546873 19.453125 28.921875 L19.453125 30.484375 C19.453125 30.911460 19.036462 31.302082 18.203125 31.656250 C17.369788 32.010418 16.250007 32.291666 14.843750 32.500000 C13.437493 32.708334 11.875009 32.812500 10.156250 32.812500 Z M10.156250 29.093750 C11.000004 29.093750 11.791663 29.067709 12.531250 29.015625 C13.270837 28.963541 13.867185 28.877605 14.320312 28.757812 C14.773440 28.638020 15.000000 28.473959 15.000000 28.265625 L15.000000 25.171875 C14.614581 25.328126 13.984379 25.450520 13.109375 25.539062 C12.234371 25.627605 11.250005 25.671875 10.156250 25.671875 C9.135412 25.671875 8.213546 25.630209 7.390625 25.546875 C6.567704 25.463541 5.885419 25.338542 5.343750 25.171875 L5.343750 28.265625 C5.343750 28.473959 5.570310 28.638020 6.023438 28.757812 C6.476565 28.877605 7.067705 28.963541 7.796875 29.015625 C8.526045 29.067709 9.312496 29.093750 10.156250 29.093750 Z M10.156250 28.015625 C9.145828 28.015625 8.171880 27.960938 7.234375 27.851562 C6.296870 27.742187 5.489587 27.572918 4.812500 27.343750 L4.812500 25.953125 C5.135418 26.057292 5.744787 26.192708 6.640625 26.359375 C7.536463 26.526042 8.708326 26.609375 10.156250 26.609375 C11.572924 26.609375 12.692704 26.546876 13.515625 26.421875 C14.338546 26.296874 14.927082 26.177084 15.281250 26.062500 L15.281250 27.406250 C14.614580 27.614584 13.833338 27.768229 12.937500 27.867188 C12.041662 27.966146 11.114588 28.015625 10.156250 28.015625 Z M10.156250 30.656250 C8.979161 30.656250 7.906255 30.583334 6.937500 30.437500 C5.968745 30.291666 5.197920 30.096355 4.625000 29.851562 C4.052080 29.606770 3.765625 29.338543 3.765625 29.046875 L3.765625 22.500000 C4.005210 22.979169 4.716140 23.367186 5.898438 23.664062 C7.080735 23.960939 8.499992 24.109375 10.156250 24.109375 C11.791675 24.109375 13.197911 23.960939 14.375000 23.664062 C15.552089 23.367186 16.270832 22.979169 16.531250 22.500000 L16.531250 29.046875 C16.531250 29.338543 16.244795 29.606770 15.671875 29.851562 C15.098955 30.096355 14.330734 30.291666 13.367188 30.437500 C12.403641 30.583334 11.333339 30.656250 10.156250 30.656250 Z M6.750000 21.187500 L5.250000 19.625000 L5.250000 11.687500 L6.750000 11.687500 Z M9.468750 22.078125 L9.468750 11.687500 L10.968750 11.687500 L10.968750 22.078125 Z M8.109375 15.078125 C7.703123 15.078125 7.278648 14.966147 6.835938 14.742188 C6.393227 14.518228 6.018231 14.156252 5.710938 13.656250 C5.403644 13.156248 5.250000 12.500004 5.250000 11.687500 C5.250000 10.864579 5.403644 10.205732 5.710938 9.710938 C6.018231 9.216143 6.393227 8.856772 6.835938 8.632812 C7.278648 8.408853 7.703123 8.296875 8.109375 8.296875 C8.515627 8.296875 8.940102 8.408853 9.382812 8.632812 C9.825523 8.856772 10.200519 9.216143 10.507812 9.710938 C10.815106 10.205732 10.968750 10.864579 10.968750 11.687500 C10.968750 12.500004 10.815106 13.156248 10.507812 13.656250 C10.200519 14.156252 9.825523 14.518228 9.382812 14.742188 C8.940102 14.966147 8.515627 15.078125 8.109375 15.078125 Z M8.109375 13.640625 C8.557294 13.640625 8.895832 13.458335 9.125000 13.093750 C9.354168 12.729165 9.468750 12.260420 9.468750 11.687500 C9.468750 11.114580 9.354168 10.645835 9.125000 10.281250 C8.895832 9.916665 8.557294 9.734375 8.109375 9.734375 C7.661456 9.734375 7.322918 9.916665 7.093750 10.281250 C6.864582 10.645835 6.750000 11.114580 6.750000 11.687500 C6.750000 12.260420 6.864582 12.729165 7.093750 13.093750 C7.322918 13.458335 7.661456 13.640625 8.109375 13.640625 Z M13.718750 21.500000 L13.718750 7.921875 L15.218750 7.921875 L15.218750 19.937500 Z M6.500000 10.156250 L6.500000 3.390625 L8.000000 3.390625 L8.000000 8.937500 Z M9.500000 9.718750 L9.500000 7.921875 L11.000000 7.921875 L11.000000 9.718750 Z M12.359375 11.312500 C11.953123 11.312500 11.528648 11.200522 11.085938 10.976562 C10.643227 10.752603 10.268231 10.390628 9.960938 9.890625 C9.653644 9.390622 9.500000 8.734379 9.500000 7.921875 C9.500000 7.098954 9.653644 6.440107 9.960938 5.945312 C10.268231 5.450518 10.643227 5.091147 11.085938 4.867188 C11.528648 4.643228 11.953123 4.531250 12.359375 4.531250 C12.765627 4.531250 13.190102 4.643228 13.632812 4.867188 C14.075523 5.091147 14.450519 5.450518 14.757812 5.945312 C15.065106 6.440107 15.218750 7.098954 15.218750 7.921875 C15.218750 8.734379 15.065106 9.390622 14.757812 9.890625 C14.450519 10.390628 14.075523 10.752603 13.632812 10.976562 C13.190102 11.200522 12.765627 11.312500 12.359375 11.312500 Z M12.359375 9.875000 C12.807294 9.875000 13.145832 9.692710 13.375000 9.328125 C13.604168 8.963540 13.718750 8.494795 13.718750 7.921875 C13.718750 7.348955 13.604168 6.880210 13.375000 6.515625 C13.145832 6.151040 12.807294 5.968750 12.359375 5.968750 C11.911456 5.968750 11.572918 6.151040 11.343750 6.515625 C11.114582 6.880210 11.000000 7.348955 11.000000 7.921875 C11.000000 8.494795 11.114582 8.963540 11.343750 9.328125 C11.572918 9.692710 11.911456 9.875000 12.359375 9.875000 Z M9.359375 6.781250 C8.953123 6.781250 8.528648 6.669272 8.085938 6.445312 C7.643227 6.221353 7.268231 5.859378 6.960938 5.359375 C6.653644 4.859372 6.500000 4.203129 6.500000 3.390625 C6.500000 2.567704 6.653644 1.908857 6.960938 1.414062 C7.268231 0.919268 7.643227 0.559897 8.085938 0.335938 C8.528648 0.111978 8.953123 -0.000000 9.359375 -0.000000 C9.765627 -0.000000 10.190102 0.111978 10.632812 0.335938 C11.075523 0.559897 11.450519 0.919268 11.757812 1.414062 C12.065106 1.908857 12.218750 2.567704 12.218750 3.390625 C12.218750 4.203129 12.065106 4.859372 11.757812 5.359375 C11.450519 5.859378 11.075523 6.221353 10.632812 6.445312 C10.190102 6.669272 9.765627 6.781250 9.359375 6.781250 Z M9.359375 5.343750 C9.807294 5.343750 10.145832 5.161460 10.375000 4.796875 C10.604168 4.432290 10.718750 3.963545 10.718750 3.390625 C10.718750 2.817705 10.604168 2.348960 10.375000 1.984375 C10.145832 1.619790 9.807294 1.437500 9.359375 1.437500 C8.911456 1.437500 8.572918 1.619790 8.343750 1.984375 C8.114582 2.348960 8.000000 2.817705 8.000000 3.390625 C8.000000 3.963545 8.114582 4.432290 8.343750 4.796875 C8.572918 5.161460 8.911456 5.343750 9.359375 5.343750 Z M10.718750 5.343750 L10.718750 3.390625 L12.218750 3.390625 L12.218750 5.343750 Z M7.718750 19.250000 C7.364582 19.250000 7.187500 19.072918 7.187500 18.718750 L7.187500 16.125000 C7.187500 15.770832 7.364582 15.593750 7.718750 15.593750 C8.072918 15.593750 8.250000 15.770832 8.250000 16.125000 L8.250000 18.718750 C8.250000 19.072918 8.072918 19.250000 7.718750 19.250000 Z M11.859375 19.281250 C11.505207 19.281250 11.328125 19.104168 11.328125 18.750000 L11.328125 12.250000 C11.328125 11.895832 11.505207 11.718750 11.859375 11.718750 C12.213543 11.718750 12.390625 11.895832 12.390625 12.250000 L12.390625 18.750000 C12.390625 19.104168 12.213543 19.281250 11.859375 19.281250 Z M30.375000 27.343750" /></svg>