<svg version="1.1" xmlns="http://www.w3.org/2000/svg" style="fill:rgba(0,0,0,1.0)" width="256" height="256" viewBox="0 0 39.0 28.125"><path fill="rgb(255, 255, 255)" d="M28.125000 28.125000 C26.749993 28.125000 25.424486 27.947918 24.148438 27.593750 C22.872389 27.239582 21.617194 26.802086 20.382812 26.281250 C19.148431 25.760414 17.914069 25.236982 16.679688 24.710938 C15.445306 24.184893 14.192715 23.744793 12.921875 23.390625 C11.651035 23.036457 10.333340 22.859375 8.968750 22.859375 C7.583326 22.859375 6.122404 23.041665 4.585938 23.406250 C3.049471 23.770835 1.520841 24.333330 0.000000 25.093750 L0.000000 3.031250 C1.718759 1.916661 3.361971 1.132815 4.929688 0.679688 C6.497404 0.226560 7.937493 -0.000000 9.250000 -0.000000 C10.625007 -0.000000 11.950514 0.177082 13.226562 0.531250 C14.502611 0.885418 15.757806 1.322914 16.992188 1.843750 C18.226569 2.364586 19.458327 2.888018 20.687500 3.414062 C21.916673 3.940107 23.169264 4.380207 24.445312 4.734375 C25.721361 5.088543 27.041660 5.265625 28.406250 5.265625 C29.791674 5.265625 31.255201 5.083335 32.796875 4.718750 C34.338549 4.354165 35.864576 3.791670 37.375000 3.031250 L37.375000 25.093750 C35.656241 26.208339 34.013029 26.992185 32.445312 27.445312 C30.877596 27.898440 29.437507 28.125000 28.125000 28.125000 Z M15.156250 17.328125 C15.520835 17.296875 15.841144 17.273438 16.117188 17.257812 C16.393231 17.242187 16.890621 17.223958 17.609375 17.203125 C16.609370 16.567705 15.812503 16.065106 15.218750 15.695312 C14.624997 15.325519 14.104169 15.015626 13.656250 14.765625 C13.208331 14.515624 12.703128 14.244793 12.140625 13.953125 C12.171875 13.869791 12.187500 13.765626 12.187500 13.640625 C12.187500 13.317707 12.067710 13.033855 11.828125 12.789062 C11.588540 12.544270 11.317710 12.421875 11.015625 12.421875 C10.776040 12.421875 10.570313 12.507812 10.398438 12.679688 C10.226562 12.851563 10.140625 13.067707 10.140625 13.328125 C10.140625 13.515626 10.192708 13.697916 10.296875 13.875000 C9.859373 13.989584 9.640625 14.281248 9.640625 14.750000 C9.640625 15.041668 9.763020 15.304686 10.007812 15.539062 C10.252605 15.773439 10.526040 15.890625 10.828125 15.890625 C11.213544 15.890625 11.484374 15.703127 11.640625 15.328125 C12.067710 15.546876 12.447915 15.747395 12.781250 15.929688 C13.114585 16.111980 13.460936 16.309895 13.820312 16.523438 C14.179689 16.736980 14.624997 17.005207 15.156250 17.328125 Z M11.312500 21.078125 C11.562501 21.078125 11.770833 20.994792 11.937500 20.828125 C12.104168 20.661458 12.187500 20.453126 12.187500 20.203125 C12.187500 20.098958 12.171875 19.994792 12.140625 19.890625 C13.338548 19.734374 14.463536 19.617188 15.515625 19.539062 C16.567714 19.460937 17.578120 19.421875 18.546875 19.421875 L19.046875 19.421875 C19.848962 19.421875 20.786453 19.382813 21.859375 19.304688 C22.932297 19.226562 24.052078 19.114584 25.218750 18.968750 C25.302084 19.229168 25.453124 19.440103 25.671875 19.601562 C25.890626 19.763022 26.119790 19.843750 26.359375 19.843750 C26.598960 19.843750 26.802082 19.757813 26.968750 19.585938 C27.135418 19.414062 27.218750 19.203126 27.218750 18.953125 C27.218750 18.755207 27.156251 18.557293 27.031250 18.359375 C26.906249 18.161457 26.744793 18.015625 26.546875 17.921875 C26.661459 17.755208 26.718750 17.578126 26.718750 17.390625 C26.718750 17.088540 26.593751 16.815105 26.343750 16.570312 C26.093749 16.325520 25.812502 16.203125 25.500000 16.203125 C25.270832 16.203125 25.075522 16.281249 24.914062 16.437500 C24.752603 16.593751 24.671875 16.791665 24.671875 17.031250 C24.671875 17.135417 24.687500 17.249999 24.718750 17.375000 C23.791662 17.468750 22.843755 17.546875 21.875000 17.609375 C20.906245 17.671875 19.927088 17.723958 18.937500 17.765625 L18.500000 17.781250 C17.052076 17.833334 15.783860 17.901041 14.695312 17.984375 C13.606765 18.067709 12.588546 18.177083 11.640625 18.312500 C11.557291 18.062499 11.411459 17.856772 11.203125 17.695312 C10.994791 17.533853 10.770835 17.453125 10.531250 17.453125 C10.281249 17.453125 10.070313 17.539062 9.898438 17.710938 C9.726562 17.882813 9.640625 18.098957 9.640625 18.359375 C9.640625 18.796877 9.859373 19.140624 10.296875 19.390625 C10.192708 19.557293 10.140625 19.729166 10.140625 19.906250 C10.140625 20.197918 10.263020 20.466145 10.507812 20.710938 C10.752605 20.955730 11.020832 21.078125 11.312500 21.078125 Z M25.859375 24.937500 C26.109376 24.937500 26.312499 24.856772 26.468750 24.695312 C26.625001 24.533853 26.703125 24.333335 26.703125 24.093750 C26.703125 23.864582 26.651042 23.666668 26.546875 23.500000 C26.994794 23.395833 27.218750 23.114586 27.218750 22.656250 C27.218750 22.354165 27.093751 22.078126 26.843750 21.828125 C26.593749 21.578124 26.317710 21.453125 26.015625 21.453125 C25.619790 21.453125 25.354167 21.635415 25.218750 22.000000 C24.791665 21.770832 24.411460 21.562501 24.078125 21.375000 C23.744790 21.187499 23.395835 20.984376 23.031250 20.765625 C22.666665 20.546874 22.223961 20.276043 21.703125 19.953125 C21.328123 19.973958 20.976564 19.992187 20.648438 20.007812 C20.320311 20.023438 19.854170 20.041667 19.250000 20.062500 C20.135421 20.625003 20.869789 21.085936 21.453125 21.445312 C22.036461 21.804689 22.572914 22.127603 23.062500 22.414062 C23.552086 22.700522 24.104164 23.020832 24.718750 23.375000 C24.687500 23.468750 24.671875 23.578124 24.671875 23.703125 C24.671875 24.005210 24.796874 24.286457 25.046875 24.546875 C25.296876 24.807293 25.567707 24.937500 25.859375 24.937500 Z M18.968750 13.906250 C18.895833 13.906250 18.802084 13.851563 18.687500 13.742188 C18.572916 13.632812 18.401043 13.578125 18.171875 13.578125 C18.140625 13.578125 18.101563 13.580729 18.054688 13.585938 C18.007812 13.591146 17.973958 13.593750 17.953125 13.593750 C17.859375 13.593750 17.812500 13.473960 17.812500 13.234375 L17.812500 12.703125 C17.812500 12.557291 17.861979 12.445313 17.960938 12.367188 C18.059896 12.289062 18.166666 12.250000 18.281250 12.250000 C18.489584 12.250000 18.671874 12.335937 18.828125 12.507812 C18.984376 12.679688 19.062500 12.869791 19.062500 13.078125 L19.062500 13.609375 C19.062500 13.807293 19.031250 13.906250 18.968750 13.906250 Z M16.906250 11.734375 C16.468748 11.734375 16.065106 11.541669 15.695312 11.156250 C15.325519 10.770831 15.140625 10.354169 15.140625 9.906250 C15.140625 9.593748 15.234374 9.343751 15.421875 9.156250 C15.609376 8.968749 15.848957 8.875000 16.140625 8.875000 C16.588544 8.875000 16.992186 9.065102 17.351562 9.445312 C17.710939 9.825523 17.890625 10.239581 17.890625 10.687500 C17.890625 11.010418 17.796876 11.265624 17.609375 11.453125 C17.421874 11.640626 17.187501 11.734375 16.906250 11.734375 Z M20.250000 16.156250 C20.447918 16.156250 20.546875 16.067709 20.546875 15.890625 L20.546875 15.578125 C20.546875 15.255207 20.630208 15.093750 20.796875 15.093750 C20.942709 15.093750 21.135415 15.161458 21.375000 15.296875 C21.614585 15.432292 21.874999 15.500000 22.156250 15.500000 C22.708336 15.500000 22.984375 15.125004 22.984375 14.375000 C22.984375 14.020832 22.937500 13.697918 22.843750 13.406250 C23.291669 12.479162 23.515625 11.588546 23.515625 10.734375 C23.515625 9.984371 23.322919 9.247399 22.937500 8.523438 C22.552081 7.799476 22.036462 7.143232 21.390625 6.554688 C20.744788 5.966143 20.020837 5.497398 19.218750 5.148438 C18.416663 4.799477 17.598962 4.625000 16.765625 4.625000 C15.703120 4.625000 14.864586 4.914060 14.250000 5.492188 C13.635414 6.070315 13.328125 6.859370 13.328125 7.859375 C13.328125 8.744796 13.552081 9.744786 14.000000 10.859375 C13.937500 11.109376 13.906250 11.343749 13.906250 11.562500 C13.906250 12.156253 14.091144 12.643227 14.460938 13.023438 C14.830731 13.403648 15.302080 13.593750 15.875000 13.593750 C16.156251 13.593750 16.296875 13.828123 16.296875 14.296875 L16.296875 14.625000 C16.296875 14.729167 16.348958 14.835937 16.453125 14.945312 C16.557292 15.054688 16.661458 15.109375 16.765625 15.109375 C16.942709 15.109375 17.031250 15.015626 17.031250 14.828125 L17.031250 14.531250 L17.468750 14.656250 L17.468750 14.968750 C17.468750 15.083334 17.520833 15.192708 17.625000 15.296875 C17.729167 15.401042 17.838541 15.453125 17.953125 15.453125 C18.130209 15.453125 18.218750 15.364584 18.218750 15.187500 L18.218750 14.890625 L18.640625 15.015625 L18.640625 15.328125 C18.640625 15.651043 18.796873 15.812500 19.109375 15.812500 C19.286459 15.812500 19.375000 15.718751 19.375000 15.531250 L19.375000 15.234375 L19.812500 15.359375 L19.812500 15.671875 C19.812500 15.796876 19.859375 15.908854 19.953125 16.007812 C20.046875 16.106771 20.145833 16.156250 20.250000 16.156250 Z M20.781250 12.875000 C20.333331 12.875000 19.921877 12.679689 19.546875 12.289062 C19.171873 11.898436 18.984375 11.479169 18.984375 11.031250 C18.984375 10.718748 19.078124 10.468751 19.265625 10.281250 C19.453126 10.093749 19.692707 10.000000 19.984375 10.000000 C20.432294 10.000000 20.838540 10.195311 21.203125 10.585938 C21.567710 10.976564 21.750000 11.395831 21.750000 11.843750 C21.750000 12.156252 21.656251 12.406249 21.468750 12.593750 C21.281249 12.781251 21.052085 12.875000 20.781250 12.875000 Z M39.000000 25.000000" /></svg>