<svg version="1.1" xmlns="http://www.w3.org/2000/svg" style="fill:rgba(0,0,0,1.0)" width="256" height="256" viewBox="0 0 36.796875 32.8125"><path fill="rgb(255, 255, 255)" d="M19.359375 17.171875 L18.046875 15.828125 L30.875000 3.078125 C31.020834 2.932291 31.093750 2.776042 31.093750 2.609375 C31.093750 2.432291 31.018230 2.265626 30.867188 2.109375 C30.716145 1.953124 30.552084 1.875000 30.375000 1.875000 C30.218749 1.875000 30.062501 1.947916 29.906250 2.093750 L17.078125 14.859375 L15.765625 13.515625 L28.593750 0.781250 C29.135419 0.260414 29.729163 -0.000000 30.375000 -0.000000 C31.072920 -0.000000 31.679685 0.260414 32.195312 0.781250 C32.710940 1.302086 32.968750 1.911455 32.968750 2.609375 C32.968750 3.296878 32.708336 3.890622 32.187500 4.390625 Z M14.656250 32.812500 C13.895830 32.812500 13.239586 32.526045 12.687500 31.953125 L0.859375 20.109375 C0.286455 19.515622 0.000000 18.864587 0.000000 18.156250 C0.000000 17.447913 0.260414 16.833336 0.781250 16.312500 C1.302086 15.791664 1.916663 15.531250 2.625000 15.531250 C3.375004 15.531250 4.026039 15.817705 4.578125 16.390625 L16.390625 28.250000 C16.963545 28.843753 17.250000 29.505205 17.250000 30.234375 C17.250000 30.942712 16.994794 31.549477 16.484375 32.054688 C15.973956 32.559898 15.364587 32.812500 14.656250 32.812500 Z M14.656250 30.937500 C14.854168 30.937500 15.023437 30.867188 15.164062 30.726562 C15.304688 30.585937 15.375000 30.421876 15.375000 30.234375 C15.375000 30.005207 15.276043 29.781251 15.078125 29.562500 L3.265625 17.703125 C3.078124 17.505207 2.864585 17.406250 2.625000 17.406250 C2.427082 17.406250 2.252605 17.481770 2.101562 17.632812 C1.950520 17.783855 1.875000 17.958332 1.875000 18.156250 C1.875000 18.385418 1.973957 18.598957 2.171875 18.796875 L14.000000 30.640625 C14.197918 30.838543 14.416665 30.937500 14.656250 30.937500 Z M15.812500 29.453125 L14.500000 28.109375 C16.052091 26.578117 16.828125 24.760427 16.828125 22.656250 C16.828125 21.437494 16.510420 20.325526 15.875000 19.320312 C15.239580 18.315099 14.388026 17.510420 13.320312 16.906250 C12.252599 16.302080 11.078131 16.000000 9.796875 16.000000 C7.723948 16.000000 6.026048 16.744784 4.703125 18.234375 L3.296875 16.984375 C4.109379 16.067704 5.080724 15.361982 6.210938 14.867188 C7.341151 14.372393 8.536452 14.125000 9.796875 14.125000 C11.015631 14.125000 12.161453 14.346352 13.234375 14.789062 C14.307297 15.231773 15.255204 15.846350 16.078125 16.632812 C16.901046 17.419275 17.544269 18.325516 18.007812 19.351562 C18.471356 20.377609 18.703125 21.479161 18.703125 22.656250 C18.703125 23.906256 18.453128 25.122390 17.953125 26.304688 C17.453122 27.486985 16.739588 28.536454 15.812500 29.453125 Z M17.625000 20.625000 L16.312500 19.281250 L17.640625 17.968750 C17.848959 17.760416 17.953125 17.531251 17.953125 17.281250 C17.953125 17.031249 17.854168 16.807293 17.656250 16.609375 L16.312500 15.234375 C16.104166 15.026041 15.869793 14.921875 15.609375 14.921875 C15.359374 14.921875 15.130209 15.020832 14.921875 15.218750 L13.593750 16.515625 L12.281250 15.171875 L13.609375 13.875000 C14.182295 13.322914 14.848955 13.046875 15.609375 13.046875 C16.390629 13.046875 17.072914 13.338539 17.656250 13.921875 L19.000000 15.296875 C19.552086 15.848961 19.828125 16.510413 19.828125 17.281250 C19.828125 18.052087 19.536461 18.729164 18.953125 19.312500 Z M36.796875 27.343750" /></svg>