<svg version="1.1" xmlns="http://www.w3.org/2000/svg" style="fill:rgba(0,0,0,1.0)" width="256" height="256" viewBox="0 0 39.5975507398629 29.6875"><path fill="rgb(255, 255, 255)" d="M2.062500 25.625000 C1.395830 25.625000 0.885418 25.447918 0.531250 25.093750 C0.177082 24.739582 0.015625 24.187504 0.046875 23.437500 L0.312500 16.578125 C0.333333 15.921872 0.575519 15.304690 1.039062 14.726562 C1.502606 14.148435 2.124996 13.765626 2.906250 13.578125 L7.750000 12.421875 L10.718750 9.078125 C11.593754 8.088537 12.520828 7.338544 13.500000 6.828125 C14.479172 6.317706 15.609369 5.973959 16.890625 5.796875 C18.171881 5.619791 19.697908 5.531250 21.468750 5.531250 C23.947929 5.531250 25.984367 5.825518 27.578125 6.414062 C29.171883 7.002607 30.468745 7.942702 31.468750 9.234375 L33.750000 12.171875 L36.421875 12.984375 C37.015628 13.161459 37.468748 13.484373 37.781250 13.953125 C38.093752 14.421877 38.309895 14.940101 38.429688 15.507812 C38.549480 16.075524 38.609375 16.609372 38.609375 17.109375 C38.609375 18.276048 38.580729 19.442702 38.523438 20.609375 C38.466146 21.776048 38.385417 22.932286 38.281250 24.078125 C38.239583 24.526044 38.054689 24.895832 37.726562 25.187500 C37.398436 25.479168 36.947920 25.625000 36.375000 25.625000 L34.218750 25.625000 L33.468750 23.906250 L36.406250 23.906250 C36.520834 22.708327 36.604166 21.541672 36.656250 20.406250 C36.708334 19.270828 36.734375 18.171880 36.734375 17.109375 C36.734375 16.682290 36.682292 16.203128 36.578125 15.671875 C36.473958 15.140622 36.208335 14.807292 35.781250 14.671875 L32.671875 13.687500 L30.093750 10.390625 C29.499997 9.619788 28.822920 9.005211 28.062500 8.546875 C27.302080 8.088539 26.390630 7.757814 25.328125 7.554688 C24.265620 7.351561 22.979174 7.250000 21.468750 7.250000 C20.093743 7.250000 18.929692 7.294270 17.976562 7.382812 C17.023433 7.471355 16.205733 7.627603 15.523438 7.851562 C14.841142 8.075522 14.226565 8.388019 13.679688 8.789062 C13.132810 9.190106 12.578128 9.703122 12.015625 10.328125 L8.640625 14.125000 L3.343750 15.406250 C3.010415 15.479167 2.747397 15.635415 2.554688 15.875000 C2.361978 16.114585 2.255208 16.364582 2.234375 16.625000 L1.875000 23.906250 L6.781250 23.906250 L6.093750 25.625000 Z M9.171875 29.687500 C8.369788 29.687500 7.638024 29.492189 6.976562 29.101562 C6.315101 28.710936 5.789064 28.184899 5.398438 27.523438 C5.007811 26.861976 4.812500 26.130212 4.812500 25.328125 C4.812500 24.526038 5.007811 23.796878 5.398438 23.140625 C5.789064 22.484372 6.315101 21.960939 6.976562 21.570312 C7.638024 21.179686 8.369788 20.984375 9.171875 20.984375 C9.973962 20.984375 10.703122 21.179686 11.359375 21.570312 C12.015628 21.960939 12.539061 22.484372 12.929688 23.140625 C13.320314 23.796878 13.515625 24.526038 13.515625 25.328125 C13.515625 26.130212 13.320314 26.861976 12.929688 27.523438 C12.539061 28.184899 12.015628 28.710936 11.359375 29.101562 C10.703122 29.492189 9.973962 29.687500 9.171875 29.687500 Z M9.171875 27.812500 C9.848962 27.812500 10.429685 27.567711 10.914062 27.078125 C11.398440 26.588539 11.640625 26.005212 11.640625 25.328125 C11.640625 24.651038 11.398440 24.070315 10.914062 23.585938 C10.429685 23.101560 9.848962 22.859375 9.171875 22.859375 C8.494788 22.859375 7.911461 23.101560 7.421875 23.585938 C6.932289 24.070315 6.687500 24.651038 6.687500 25.328125 C6.687500 26.015628 6.929685 26.601560 7.414062 27.085938 C7.898440 27.570315 8.484372 27.812500 9.171875 27.812500 Z M1.640625 21.281250 L1.640625 20.031250 L4.062500 20.031250 L4.625000 18.171875 C4.666667 18.057291 4.653646 17.953125 4.585938 17.859375 C4.518229 17.765625 4.421876 17.718750 4.296875 17.718750 L1.484375 17.718750 L1.484375 16.468750 L5.187500 16.468750 C5.520835 16.468750 5.773437 16.604165 5.945312 16.875000 C6.117188 17.145835 6.151042 17.453123 6.046875 17.796875 L5.000000 21.281250 Z M12.281250 25.625000 L11.484375 23.906250 L28.921875 23.906250 L28.281250 25.625000 Z M1.421875 24.765625 L1.031250 20.765625 L4.140625 20.437500 L5.546875 17.718750 L33.968750 17.718750 L34.562500 20.140625 L37.531250 20.140625 L37.531250 24.765625 L34.562500 24.765625 L33.515625 22.921875 L30.265625 21.640625 L27.906250 24.765625 L12.609375 24.765625 L10.984375 22.640625 L7.453125 22.328125 L5.734375 24.765625 Z M20.609375 23.593750 C21.328129 23.593750 21.924477 23.309899 22.398438 22.742188 C22.872398 22.174476 23.109375 21.453129 23.109375 20.578125 C23.109375 20.265623 23.088542 19.966147 23.046875 19.679688 C23.005208 19.393228 22.942709 19.182292 22.859375 19.046875 L22.359375 19.359375 C22.182291 19.463542 22.010418 19.515625 21.843750 19.515625 C21.656249 19.515625 21.473959 19.453126 21.296875 19.328125 L21.015625 19.125000 C20.890624 19.031250 20.760417 18.984375 20.625000 18.984375 C20.479166 18.984375 20.343751 19.031250 20.218750 19.125000 L19.937500 19.328125 C19.770832 19.453126 19.588543 19.515625 19.390625 19.515625 C19.223958 19.515625 19.052084 19.463542 18.875000 19.359375 L18.375000 19.046875 C18.291666 19.182292 18.229167 19.393228 18.187500 19.679688 C18.145833 19.966147 18.125000 20.265623 18.125000 20.578125 C18.125000 21.453129 18.356769 22.174476 18.820312 22.742188 C19.283856 23.309899 19.880205 23.593750 20.609375 23.593750 Z M12.750000 14.046875 L20.765625 14.046875 L20.765625 9.906250 C19.494785 9.906250 18.458337 9.966145 17.656250 10.085938 C16.854163 10.205730 16.182294 10.416665 15.640625 10.718750 C15.098956 11.020835 14.583336 11.442706 14.093750 11.984375 L12.640625 13.609375 C12.536458 13.723959 12.494792 13.825520 12.515625 13.914062 C12.536458 14.002605 12.614583 14.046875 12.750000 14.046875 Z M31.218750 29.687500 C30.416663 29.687500 29.684899 29.502606 29.023438 29.132812 C28.361976 28.763019 27.835939 28.250003 27.445312 27.593750 C27.054686 26.937497 26.859375 26.182296 26.859375 25.328125 C26.859375 24.526038 27.054686 23.796878 27.445312 23.140625 C27.835939 22.484372 28.361976 21.960939 29.023438 21.570312 C29.684899 21.179686 30.416663 20.984375 31.218750 20.984375 C32.125005 20.984375 32.903643 21.179686 33.554688 21.570312 C34.205732 21.960939 34.703123 22.484372 35.046875 23.140625 C35.390627 23.796878 35.562500 24.526038 35.562500 25.328125 C35.562500 26.130212 35.367189 26.861976 34.976562 27.523438 C34.585936 28.184899 34.062503 28.710936 33.406250 29.101562 C32.749997 29.492189 32.020837 29.687500 31.218750 29.687500 Z M31.218750 27.812500 C31.895837 27.812500 32.476560 27.567711 32.960938 27.078125 C33.445315 26.588539 33.687500 26.005212 33.687500 25.328125 C33.687500 24.651038 33.445315 24.070315 32.960938 23.585938 C32.476560 23.101560 31.895837 22.859375 31.218750 22.859375 C30.541663 22.859375 29.958336 23.101560 29.468750 23.585938 C28.979164 24.070315 28.734375 24.651038 28.734375 25.328125 C28.734375 26.015628 28.976560 26.601560 29.460938 27.085938 C29.945315 27.570315 30.531247 27.812500 31.218750 27.812500 Z M9.984375 15.453125 C9.786457 15.453125 9.664063 15.372397 9.617188 15.210938 C9.570312 15.049478 9.630208 14.880209 9.796875 14.703125 L13.015625 11.078125 C13.630211 10.390622 14.276038 9.861981 14.953125 9.492188 C15.630212 9.122394 16.476557 8.864584 17.492188 8.718750 C18.507818 8.572916 19.828117 8.500000 21.453125 8.500000 C22.484380 8.500000 23.356767 8.523437 24.070312 8.570312 C24.783858 8.617188 25.408851 8.726562 25.945312 8.898438 C26.481774 9.070313 26.992185 9.338540 27.476562 9.703125 C27.960940 10.067710 28.484372 10.567705 29.046875 11.203125 C29.609378 11.838545 30.276038 12.651037 31.046875 13.640625 L28.890625 15.453125 Z M13.390625 5.640625 L12.937500 4.640625 L15.593750 3.437500 L16.046875 4.437500 Z M15.593750 2.203125 L12.937500 1.000000 L13.390625 -0.000000 L16.046875 1.203125 Z M19.328125 6.828125 L18.093750 6.609375 L18.406250 3.875000 L19.640625 4.093750 Z M22.171875 14.046875 L28.375000 14.046875 L29.062500 13.468750 C28.458330 12.666663 27.934898 12.028648 27.492188 11.554688 C27.049477 11.080727 26.601565 10.723960 26.148438 10.484375 C25.695310 10.244790 25.158857 10.088542 24.539062 10.015625 C23.919268 9.942708 23.130213 9.906250 22.171875 9.906250 Z M18.187500 3.375000 L21.000000 3.375000 L21.000000 1.875000 L18.187500 1.875000 Z M35.312500 20.656250 L34.078125 20.625000 L33.734375 16.125000 L36.828125 16.125000 L36.828125 17.375000 L35.078125 17.375000 Z M23.609375 6.828125 L23.296875 4.093750 L24.531250 3.875000 L24.843750 6.609375 Z M17.093750 4.468750 L17.093750 0.781250 L25.843750 0.781250 L25.843750 4.468750 Z M21.937500 3.375000 L24.750000 3.375000 L24.750000 1.875000 L21.937500 1.875000 Z M29.546875 5.640625 L26.890625 4.437500 L27.343750 3.437500 L30.000000 4.640625 Z M27.343750 2.203125 L26.890625 1.203125 L29.546875 -0.000000 L30.000000 1.000000 Z M39.640625 25.781250" /></svg>