<svg version="1.1" xmlns="http://www.w3.org/2000/svg" style="fill:rgba(0,0,0,1.0)" width="256" height="256" viewBox="0 0 33.25 32.8125"><path fill="rgb(255, 255, 255)" d="M17.562500 7.375000 L23.031250 20.156250 L2.843750 20.156250 L8.312500 7.375000 Z M16.531250 8.937500 L9.343750 8.937500 L5.218750 18.593750 L20.656250 18.593750 Z M15.046875 31.250000 L15.046875 28.609375 L10.828125 28.609375 L10.828125 31.250000 Z M16.609375 32.812500 L9.265625 32.812500 L9.265625 27.046875 L16.609375 27.046875 Z M17.484375 10.187500 L17.484375 8.625000 L8.375000 8.625000 L8.375000 10.187500 L5.640625 10.187500 L5.640625 6.750000 L20.234375 6.750000 L20.234375 10.187500 Z M1.562500 4.906250 L1.562500 27.046875 L24.312500 27.046875 L24.312500 4.906250 L22.515625 1.562500 L3.359375 1.562500 Z M0.000000 4.500000 L2.421875 -0.000000 L23.453125 -0.000000 L25.875000 4.500000 L25.875000 28.609375 L0.000000 28.609375 Z M4.406250 20.062500 L3.656250 18.687500 L13.062500 13.312500 L8.265625 8.703125 L9.390625 7.609375 L15.625000 13.640625 Z M10.984375 16.015625 L11.515625 14.546875 L22.109375 18.484375 L21.578125 19.953125 Z M16.609375 7.500000 L17.484375 8.812500 L12.484375 12.156250 L11.609375 10.843750 Z M0.781250 5.484375 L0.781250 3.921875 L25.093750 3.921875 L25.093750 5.484375 Z M33.250000 27.343750" /></svg>