<svg version="1.1" xmlns="http://www.w3.org/2000/svg" style="fill:rgba(0,0,0,1.0)" width="256" height="256" viewBox="0 0 39.890625 32.8125"><path fill="rgb(255, 255, 255)" d="M19.578125 32.812500 C15.473938 32.812500 12.367198 32.330734 10.257812 31.367188 C8.148427 30.403641 6.796878 28.843761 6.203125 26.687500 L4.703125 21.265625 C4.526041 20.609372 4.312501 20.145835 4.062500 19.875000 C3.812499 19.604165 3.385420 19.369793 2.781250 19.171875 C1.791662 18.838540 1.080731 18.432294 0.648438 17.953125 C0.216144 17.473956 0.000000 16.838546 0.000000 16.046875 C0.000000 15.244788 0.153644 14.484379 0.460938 13.765625 C0.768231 13.046871 1.166664 12.463544 1.656250 12.015625 C2.145836 11.567706 2.661456 11.343750 3.203125 11.343750 C3.494793 11.343750 3.817707 11.401041 4.171875 11.515625 C4.526043 11.630209 4.921873 11.807290 5.359375 12.046875 C7.005217 10.869786 8.731762 9.945316 10.539062 9.273438 C12.346363 8.601559 14.302073 8.166668 16.406250 7.968750 L16.796875 9.656250 C14.609364 9.854168 12.601572 10.307288 10.773438 11.015625 C8.945303 11.723962 7.192717 12.723952 5.515625 14.015625 C5.088540 13.744790 4.700523 13.544271 4.351562 13.414062 C4.002602 13.283854 3.729168 13.218750 3.531250 13.218750 C3.218748 13.218750 2.937501 13.354165 2.687500 13.625000 C2.437499 13.895835 2.239584 14.247394 2.093750 14.679688 C1.947916 15.111981 1.875000 15.567706 1.875000 16.046875 C1.875000 16.348960 1.986978 16.598957 2.210938 16.796875 C2.434897 16.994793 2.822914 17.192707 3.375000 17.390625 C4.364588 17.734377 5.088539 18.156248 5.546875 18.656250 C6.005211 19.156252 6.359374 19.906245 6.609375 20.906250 L7.875000 25.906250 C8.343752 27.750009 9.486970 29.075517 11.304688 29.882812 C13.122405 30.690108 15.880190 31.093750 19.578125 31.093750 C23.276060 31.093750 26.033845 30.690108 27.851562 29.882812 C29.669280 29.075517 30.812498 27.750009 31.281250 25.906250 L32.546875 20.906250 C32.796876 19.906245 33.153644 19.156252 33.617188 18.656250 C34.080731 18.156248 34.802078 17.734377 35.781250 17.390625 C36.333336 17.192707 36.721353 16.994793 36.945312 16.796875 C37.169272 16.598957 37.281250 16.348960 37.281250 16.046875 C37.281250 15.567706 37.208334 15.111981 37.062500 14.679688 C36.916666 14.247394 36.718751 13.895835 36.468750 13.625000 C36.218749 13.354165 35.937502 13.218750 35.625000 13.218750 C35.427082 13.218750 35.153648 13.283854 34.804688 13.414062 C34.455727 13.544271 34.067710 13.744790 33.640625 14.015625 C32.265618 12.953120 30.812508 12.093753 29.281250 11.437500 C27.749992 10.781247 26.075530 10.302085 24.257812 10.000000 C22.440095 9.697915 20.406261 9.546875 18.156250 9.546875 L20.625000 7.828125 C23.281263 7.901042 25.677073 8.289059 27.812500 8.992188 C29.947927 9.695316 31.942699 10.713535 33.796875 12.046875 C34.234377 11.807290 34.630207 11.630209 34.984375 11.515625 C35.338543 11.401041 35.661457 11.343750 35.953125 11.343750 C36.505211 11.343750 37.023435 11.567706 37.507812 12.015625 C37.992190 12.463544 38.388019 13.046871 38.695312 13.765625 C39.002606 14.484379 39.156250 15.244788 39.156250 16.046875 C39.156250 16.838546 38.940106 17.473956 38.507812 17.953125 C38.075519 18.432294 37.364588 18.838540 36.375000 19.171875 C35.770830 19.369793 35.343751 19.604165 35.093750 19.875000 C34.843749 20.145835 34.630209 20.609372 34.453125 21.265625 L32.953125 26.687500 C32.359372 28.843761 31.010427 30.403641 28.906250 31.367188 C26.802073 32.330734 23.692729 32.812500 19.578125 32.812500 Z M15.421875 19.140625 C15.817710 19.140625 16.174478 19.088542 16.492188 18.984375 C16.809897 18.880208 16.968750 18.760417 16.968750 18.625000 C16.968750 18.052080 16.692711 17.567710 16.140625 17.171875 C15.588539 16.776040 14.921879 16.578125 14.140625 16.578125 C13.682289 16.578125 13.304689 16.679686 13.007812 16.882812 C12.710936 17.085939 12.562500 17.348957 12.562500 17.671875 C12.562500 17.869793 12.718748 18.083332 13.031250 18.312500 C13.343752 18.541668 13.723956 18.736978 14.171875 18.898438 C14.619794 19.059897 15.036456 19.140625 15.421875 19.140625 Z M19.750000 18.640625 C20.197919 18.640625 20.557290 18.572917 20.828125 18.437500 C21.098960 18.302083 21.234375 18.119793 21.234375 17.890625 C21.234375 17.088538 20.718755 16.687500 19.687500 16.687500 C19.427082 16.687500 19.166668 16.825519 18.906250 17.101562 C18.645832 17.377606 18.515625 17.640624 18.515625 17.890625 C18.515625 18.119793 18.632811 18.302083 18.867188 18.437500 C19.101564 18.572917 19.395832 18.640625 19.750000 18.640625 Z M24.640625 19.156250 C24.973960 19.156250 25.283853 18.994793 25.570312 18.671875 C25.856772 18.348957 26.000000 18.010418 26.000000 17.656250 C26.000000 17.145831 25.640629 16.890625 24.921875 16.890625 C24.640624 16.890625 24.335939 16.984374 24.007812 17.171875 C23.679686 17.359376 23.398439 17.583332 23.164062 17.843750 C22.929686 18.104168 22.812500 18.343749 22.812500 18.562500 C22.812500 18.770834 22.955728 18.921875 23.242188 19.015625 C23.528647 19.109375 23.994788 19.156250 24.640625 19.156250 Z M19.500000 11.140625 C18.083326 11.140625 16.960942 10.851565 16.132812 10.273438 C15.304683 9.695310 14.890625 8.828131 14.890625 7.671875 C14.890625 6.776037 15.247392 5.976566 15.960938 5.273438 C16.674483 4.570309 17.833325 3.869795 19.437500 3.171875 L20.375000 2.765625 C21.208338 2.401040 21.765624 2.111980 22.046875 1.898438 C22.328126 1.684895 22.468750 1.427085 22.468750 1.125000 C22.468750 0.697915 22.296877 0.322918 21.953125 -0.000000 C23.369799 -0.000000 24.492183 0.289060 25.320312 0.867188 C26.148442 1.445315 26.562500 2.312494 26.562500 3.468750 C26.562500 4.354171 26.208337 5.151038 25.500000 5.859375 C24.791663 6.567712 23.630216 7.270830 22.015625 7.968750 L21.078125 8.375000 C20.244788 8.729168 19.687501 9.015624 19.406250 9.234375 C19.124999 9.453126 18.984375 9.713540 18.984375 10.015625 C18.984375 10.442710 19.156248 10.817707 19.500000 11.140625 Z M17.406250 9.015625 C17.458334 8.651040 17.723956 8.296877 18.203125 7.953125 C18.682294 7.609373 19.385412 7.234377 20.312500 6.828125 L21.250000 6.421875 C22.552090 5.859372 23.463539 5.359377 23.984375 4.921875 C24.505211 4.484373 24.765625 4.000003 24.765625 3.468750 C24.765625 3.135415 24.692709 2.861980 24.546875 2.648438 C24.401041 2.434895 24.234376 2.260417 24.046875 2.125000 C23.994791 2.489585 23.729169 2.843748 23.250000 3.187500 C22.770831 3.531252 22.067713 3.906248 21.140625 4.312500 L20.203125 4.718750 C18.901035 5.281253 17.989586 5.781248 17.468750 6.218750 C16.947914 6.656252 16.687500 7.140622 16.687500 7.671875 C16.687500 7.994793 16.760416 8.265624 16.906250 8.484375 C17.052084 8.703126 17.218749 8.880208 17.406250 9.015625 Z M6.921875 16.328125 C6.921875 15.588538 7.249997 14.888024 7.906250 14.226562 C8.562503 13.565101 9.473952 12.976565 10.640625 12.460938 C11.807298 11.945310 13.153638 11.541668 14.679688 11.250000 C16.205737 10.958332 17.838533 10.812500 19.578125 10.812500 C21.317717 10.812500 22.950513 10.958332 24.476562 11.250000 C26.002612 11.541668 27.348952 11.945310 28.515625 12.460938 C29.682298 12.976565 30.593747 13.565101 31.250000 14.226562 C31.906253 14.888024 32.234375 15.588538 32.234375 16.328125 C32.234375 17.078129 31.906253 17.778643 31.250000 18.429688 C30.593747 19.080732 29.684902 19.653643 28.523438 20.148438 C27.361973 20.643232 26.018237 21.028644 24.492188 21.304688 C22.966138 21.580731 21.328134 21.718750 19.578125 21.718750 C17.828116 21.718750 16.190112 21.580731 14.664062 21.304688 C13.138013 21.028644 11.794277 20.643232 10.632812 20.148438 C9.471348 19.653643 8.562503 19.080732 7.906250 18.429688 C7.249997 17.778643 6.921875 17.078129 6.921875 16.328125 Z M8.796875 16.328125 C8.796875 16.630210 8.932290 16.932290 9.203125 17.234375 C9.453126 16.817706 9.908851 16.419273 10.570312 16.039062 C11.231774 15.658852 12.039058 15.322918 12.992188 15.031250 C13.945317 14.739582 14.984369 14.510417 16.109375 14.343750 C17.234381 14.177083 18.390619 14.093750 19.578125 14.093750 C20.765631 14.093750 21.921869 14.177083 23.046875 14.343750 C24.171881 14.510417 25.210933 14.739582 26.164062 15.031250 C27.117192 15.322918 27.924476 15.658852 28.585938 16.039062 C29.247399 16.419273 29.703124 16.817706 29.953125 17.234375 C30.223960 16.932290 30.359375 16.630210 30.359375 16.328125 C30.359375 15.869789 30.054691 15.416669 29.445312 14.968750 C28.835934 14.520831 28.015630 14.111981 26.984375 13.742188 C25.953120 13.372394 24.796881 13.078126 23.515625 12.859375 C22.234369 12.640624 20.921882 12.531250 19.578125 12.531250 C18.234368 12.531250 16.921881 12.640624 15.640625 12.859375 C14.359369 13.078126 13.203130 13.372394 12.171875 13.742188 C11.140620 14.111981 10.320316 14.520831 9.710938 14.968750 C9.101559 15.416669 8.796875 15.869789 8.796875 16.328125 Z M39.890625 27.343750" /></svg>