<svg version="1.1" xmlns="http://www.w3.org/2000/svg" style="fill:rgba(0,0,0,1.0)" width="256" height="256" viewBox="0 0 36.71875 32.8125"><path fill="rgb(255, 255, 255)" d="M2.734375 32.812500 C1.984371 32.812500 1.341149 32.544274 0.804688 32.007812 C0.268226 31.471351 0.000000 30.828129 0.000000 30.078125 L0.000000 2.718750 C0.000000 1.979163 0.270831 1.341149 0.812500 0.804688 C1.354169 0.268226 1.999996 -0.000000 2.750000 -0.000000 L30.078125 -0.000000 C30.828129 -0.000000 31.471351 0.268226 32.007812 0.804688 C32.544274 1.341149 32.812500 1.984371 32.812500 2.734375 L32.812500 30.078125 C32.812500 30.828129 32.544274 31.471351 32.007812 32.007812 C31.471351 32.544274 30.828129 32.812500 30.078125 32.812500 Z M5.437500 29.000000 L12.718750 29.000000 L15.109375 18.390625 L13.828125 18.390625 L13.484375 19.984375 L4.671875 19.984375 L4.312500 18.390625 L3.031250 18.390625 Z M5.546875 23.843750 L4.953125 21.234375 L13.203125 21.234375 L12.609375 23.843750 Z M7.859375 16.187500 L10.312500 16.187500 L10.312500 15.156250 C10.312500 14.479163 10.549477 13.903648 11.023438 13.429688 C11.497398 12.955727 12.072913 12.718750 12.750000 12.718750 L14.984375 12.718750 C15.223960 13.541671 15.690101 14.216143 16.382812 14.742188 C17.075524 15.268232 17.859371 15.531250 18.734375 15.531250 C19.598963 15.531250 20.377601 15.268232 21.070312 14.742188 C21.763024 14.216143 22.223957 13.541671 22.453125 12.718750 L25.484375 12.718750 L25.484375 14.375000 L27.718750 15.000000 L27.718750 7.968750 L25.484375 8.593750 L25.484375 10.265625 L22.343750 10.265625 C22.145832 9.713539 21.835940 9.231773 21.414062 8.820312 C20.992185 8.408852 20.505211 8.114584 19.953125 7.937500 L19.953125 6.031250 L22.937500 6.031250 L22.937500 6.343750 C22.937500 6.572918 23.015624 6.763020 23.171875 6.914062 C23.328126 7.065105 23.526040 7.140625 23.765625 7.140625 C23.994793 7.140625 24.184895 7.065105 24.335938 6.914062 C24.486980 6.763020 24.562500 6.572918 24.562500 6.343750 L24.562500 3.796875 C24.562500 3.567707 24.486980 3.377605 24.335938 3.226562 C24.184895 3.075520 23.994793 3.000000 23.765625 3.000000 C23.526040 3.000000 23.328126 3.075520 23.171875 3.226562 C23.015624 3.377605 22.937500 3.567707 22.937500 3.796875 L22.937500 4.109375 L19.953125 4.109375 L19.953125 2.437500 L17.515625 2.437500 L17.515625 4.109375 L14.531250 4.109375 L14.531250 3.796875 C14.531250 3.567707 14.455730 3.377605 14.304688 3.226562 C14.153645 3.075520 13.963543 3.000000 13.734375 3.000000 C13.494790 3.000000 13.296876 3.075520 13.140625 3.226562 C12.984374 3.377605 12.906250 3.567707 12.906250 3.796875 L12.906250 6.343750 C12.906250 6.572918 12.984374 6.763020 13.140625 6.914062 C13.296876 7.065105 13.494790 7.140625 13.734375 7.140625 C13.963543 7.140625 14.153645 7.065105 14.304688 6.914062 C14.455730 6.763020 14.531250 6.572918 14.531250 6.343750 L14.531250 6.031250 L17.515625 6.031250 L17.515625 7.937500 C16.348952 8.312502 15.536461 9.088536 15.078125 10.265625 L12.750000 10.265625 C11.854162 10.265625 11.036462 10.484373 10.296875 10.921875 C9.557288 11.359377 8.966148 11.945309 8.523438 12.679688 C8.080727 13.414066 7.859375 14.223954 7.859375 15.109375 Z M36.718750 27.343750" /></svg>