<svg version="1.1" xmlns="http://www.w3.org/2000/svg" style="fill:rgba(0,0,0,1.0)" width="256" height="256" viewBox="0 0 40.46875 32.8125"><path fill="rgb(255, 255, 255)" d="M32.203125 32.812500 C31.942707 32.197914 31.559898 31.736981 31.054688 31.429688 C30.549477 31.122394 30.020836 30.854168 29.468750 30.625000 C29.031248 30.447916 28.617189 30.250001 28.226562 30.031250 C27.835936 29.812499 27.520835 29.526043 27.281250 29.171875 C27.187500 29.213542 27.083334 29.234375 26.968750 29.234375 C26.749999 29.234375 26.572917 29.153647 26.437500 28.992188 C26.302083 28.830728 26.234375 28.635418 26.234375 28.406250 C26.234375 28.218749 26.283854 28.028647 26.382812 27.835938 C26.481771 27.643228 26.645832 27.463542 26.875000 27.296875 C27.093751 27.140624 27.322915 27.015625 27.562500 26.921875 C27.802085 26.828125 28.026041 26.781250 28.234375 26.781250 C28.505210 26.781250 28.734374 26.869791 28.921875 27.046875 C29.109376 27.223959 29.208333 27.510415 29.218750 27.906250 C29.520835 28.072918 29.856769 28.179687 30.226562 28.226562 C30.596356 28.273438 30.984373 28.307292 31.390625 28.328125 C31.994795 28.369792 32.601559 28.447916 33.210938 28.562500 C33.820316 28.677084 34.364581 28.984372 34.843750 29.484375 C34.843750 30.453130 34.596357 31.213539 34.101562 31.765625 C33.606768 32.317711 32.973962 32.666666 32.203125 32.812500 Z M6.609375 28.000000 C5.901038 28.000000 5.299482 27.752607 4.804688 27.257812 C4.309893 26.763018 4.062500 26.166670 4.062500 25.468750 C4.062500 24.760413 4.309893 24.174481 4.804688 23.710938 C5.299482 23.247394 5.901038 23.015625 6.609375 23.015625 C7.317712 23.015625 7.916664 23.247394 8.406250 23.710938 C8.895836 24.174481 9.140625 24.755205 9.140625 25.453125 C9.140625 26.161462 8.872399 26.763018 8.335938 27.257812 C7.799476 27.752607 7.223961 28.000000 6.609375 28.000000 Z M6.609375 26.593750 C6.921877 26.593750 7.187499 26.484376 7.406250 26.265625 C7.625001 26.046874 7.734375 25.781252 7.734375 25.468750 C7.734375 25.156248 7.625001 24.890626 7.406250 24.671875 C7.187499 24.453124 6.921877 24.343750 6.609375 24.343750 C6.286457 24.343750 6.015626 24.453124 5.796875 24.671875 C5.578124 24.890626 5.468750 25.156248 5.468750 25.468750 C5.468750 25.781252 5.578124 26.046874 5.796875 26.265625 C6.015626 26.484376 6.286457 26.593750 6.609375 26.593750 Z M4.125000 25.250000 C3.416663 25.250000 2.815107 25.013023 2.320312 24.539062 C1.825518 24.065102 1.578125 23.479170 1.578125 22.781250 C1.578125 22.072913 1.825518 21.484377 2.320312 21.015625 C2.815107 20.546873 3.416663 20.312500 4.125000 20.312500 C4.833337 20.312500 5.432289 20.546873 5.921875 21.015625 C6.411461 21.484377 6.656250 22.067705 6.656250 22.765625 C6.656250 23.473962 6.403648 24.065102 5.898438 24.539062 C5.393227 25.013023 4.802087 25.250000 4.125000 25.250000 Z M4.125000 23.906250 C4.437502 23.906250 4.703124 23.796876 4.921875 23.578125 C5.140626 23.359374 5.250000 23.093752 5.250000 22.781250 C5.250000 22.468748 5.140626 22.203126 4.921875 21.984375 C4.703124 21.765624 4.437502 21.656250 4.125000 21.656250 C3.802082 21.656250 3.531251 21.765624 3.312500 21.984375 C3.093749 22.203126 2.984375 22.468748 2.984375 22.781250 C2.984375 23.093752 3.093749 23.359374 3.312500 23.578125 C3.531251 23.796876 3.802082 23.906250 4.125000 23.906250 Z M9.312500 30.468750 C8.614580 30.468750 8.015627 30.221357 7.515625 29.726562 C7.015622 29.231768 6.765625 28.635420 6.765625 27.937500 C6.765625 27.291663 7.015622 26.705732 7.515625 26.179688 C8.015627 25.653643 8.614580 25.390625 9.312500 25.390625 C10.020837 25.390625 10.619789 25.638018 11.109375 26.132812 C11.598961 26.627607 11.843750 27.229163 11.843750 27.937500 C11.843750 28.635420 11.596357 29.231768 11.101562 29.726562 C10.606768 30.221357 10.010420 30.468750 9.312500 30.468750 Z M9.312500 29.062500 C9.625002 29.062500 9.890624 28.953126 10.109375 28.734375 C10.328126 28.515624 10.437500 28.250002 10.437500 27.937500 C10.437500 27.624998 10.328126 27.356772 10.109375 27.132812 C9.890624 26.908853 9.625002 26.796875 9.312500 26.796875 C8.989582 26.796875 8.718751 26.906249 8.500000 27.125000 C8.281249 27.343751 8.171875 27.614582 8.171875 27.937500 C8.171875 28.250002 8.283853 28.515624 8.507812 28.734375 C8.731772 28.953126 8.999998 29.062500 9.312500 29.062500 Z M12.718750 31.906250 C12.010413 31.906250 11.406252 31.658857 10.906250 31.164062 C10.406248 30.669268 10.156250 30.072920 10.156250 29.375000 C10.156250 28.749997 10.406248 28.169274 10.906250 27.632812 C11.406252 27.096351 12.010413 26.828125 12.718750 26.828125 C13.427087 26.828125 14.020831 27.075518 14.500000 27.570312 C14.979169 28.065107 15.218750 28.666663 15.218750 29.375000 C15.218750 30.072920 14.979169 30.669268 14.500000 31.164062 C14.020831 31.658857 13.427087 31.906250 12.718750 31.906250 Z M12.718750 30.500000 C13.031252 30.500000 13.296874 30.390626 13.515625 30.171875 C13.734376 29.953124 13.843750 29.687502 13.843750 29.375000 C13.843750 29.062498 13.734376 28.794272 13.515625 28.570312 C13.296874 28.346353 13.031252 28.234375 12.718750 28.234375 C12.395832 28.234375 12.122397 28.346353 11.898438 28.570312 C11.674478 28.794272 11.562500 29.062498 11.562500 29.375000 C11.562500 29.687502 11.674478 29.953124 11.898438 30.171875 C12.122397 30.390626 12.395832 30.500000 12.718750 30.500000 Z M3.140625 21.750000 C2.432288 21.750000 1.830732 21.513023 1.335938 21.039062 C0.841143 20.565102 0.593750 19.979170 0.593750 19.281250 C0.593750 18.572913 0.841143 17.984377 1.335938 17.515625 C1.830732 17.046873 2.432288 16.812500 3.140625 16.812500 C3.848962 16.812500 4.447914 17.046873 4.937500 17.515625 C5.427086 17.984377 5.671875 18.567705 5.671875 19.265625 C5.671875 19.973962 5.427086 20.565102 4.937500 21.039062 C4.447914 21.513023 3.848962 21.750000 3.140625 21.750000 Z M3.140625 20.406250 C3.453127 20.406250 3.718749 20.296876 3.937500 20.078125 C4.156251 19.859374 4.265625 19.593752 4.265625 19.281250 C4.265625 18.968748 4.156251 18.703126 3.937500 18.484375 C3.718749 18.265624 3.453127 18.156250 3.140625 18.156250 C2.817707 18.156250 2.546876 18.265624 2.328125 18.484375 C2.109374 18.703126 2.000000 18.968748 2.000000 19.281250 C2.000000 19.593752 2.109374 19.859374 2.328125 20.078125 C2.546876 20.296876 2.817707 20.406250 3.140625 20.406250 Z M2.562500 18.171875 C1.854163 18.171875 1.250002 17.934898 0.750000 17.460938 C0.249998 16.986977 0.000000 16.401045 0.000000 15.703125 C0.000000 15.005205 0.249998 14.419273 0.750000 13.945312 C1.250002 13.471352 1.848955 13.234375 2.546875 13.234375 C3.255212 13.234375 3.854164 13.468748 4.343750 13.937500 C4.833336 14.406252 5.078125 14.989580 5.078125 15.687500 C5.078125 16.395837 4.833336 16.986977 4.343750 17.460938 C3.854164 17.934898 3.260420 18.171875 2.562500 18.171875 Z M2.546875 16.843750 C2.859377 16.843750 3.124999 16.731772 3.343750 16.507812 C3.562501 16.283853 3.671875 16.015627 3.671875 15.703125 C3.671875 15.390623 3.562501 15.125001 3.343750 14.906250 C3.124999 14.687499 2.859377 14.578125 2.546875 14.578125 C2.244790 14.578125 1.979168 14.690103 1.750000 14.914062 C1.520832 15.138022 1.406250 15.401040 1.406250 15.703125 C1.406250 16.026043 1.515624 16.296874 1.734375 16.515625 C1.953126 16.734376 2.223957 16.843750 2.546875 16.843750 Z M16.265625 30.906250 C15.567705 30.906250 14.973961 30.658857 14.484375 30.164062 C13.994789 29.669268 13.750000 29.072920 13.750000 28.375000 C13.750000 27.666663 13.992185 27.065107 14.476562 26.570312 C14.960940 26.075518 15.557288 25.828125 16.265625 25.828125 C16.963545 25.828125 17.559893 26.075518 18.054688 26.570312 C18.549482 27.065107 18.796875 27.666663 18.796875 28.375000 C18.796875 29.072920 18.549482 29.669268 18.054688 30.164062 C17.559893 30.658857 16.963545 30.906250 16.265625 30.906250 Z M16.265625 29.500000 C16.567710 29.500000 16.830728 29.388022 17.054688 29.164062 C17.278647 28.940103 17.390625 28.677085 17.390625 28.375000 C17.390625 28.062498 17.278647 27.794272 17.054688 27.570312 C16.830728 27.346353 16.567710 27.234375 16.265625 27.234375 C15.942707 27.234375 15.669272 27.346353 15.445312 27.570312 C15.221353 27.794272 15.109375 28.062498 15.109375 28.375000 C15.109375 28.677085 15.221353 28.940103 15.445312 29.164062 C15.669272 29.388022 15.942707 29.500000 16.265625 29.500000 Z M3.296875 14.625000 C2.588538 14.625000 1.984378 14.385419 1.484375 13.906250 C0.984372 13.427081 0.734375 12.838545 0.734375 12.140625 C0.734375 11.442705 0.986977 10.846357 1.492188 10.351562 C1.997398 9.856768 2.598955 9.609375 3.296875 9.609375 C3.911461 9.609375 4.486976 9.856768 5.023438 10.351562 C5.559899 10.846357 5.828125 11.442705 5.828125 12.140625 C5.828125 12.838545 5.580732 13.427081 5.085938 13.906250 C4.591143 14.385419 3.994795 14.625000 3.296875 14.625000 Z M3.296875 13.281250 C3.598960 13.281250 3.861978 13.169272 4.085938 12.945312 C4.309897 12.721353 4.421875 12.453127 4.421875 12.140625 C4.421875 11.838540 4.309897 11.575522 4.085938 11.351562 C3.861978 11.127603 3.598960 11.015625 3.296875 11.015625 C2.973957 11.015625 2.700522 11.127603 2.476562 11.351562 C2.252603 11.575522 2.140625 11.838540 2.140625 12.140625 C2.140625 12.453127 2.252603 12.721353 2.476562 12.945312 C2.700522 13.169272 2.973957 13.281250 3.296875 13.281250 Z M19.187500 28.671875 C18.489580 28.671875 17.895836 28.424482 17.406250 27.929688 C16.916664 27.434893 16.671875 26.838545 16.671875 26.140625 C16.671875 25.432288 16.916664 24.833336 17.406250 24.343750 C17.895836 23.854164 18.489580 23.609375 19.187500 23.609375 C19.895837 23.609375 20.486977 23.854164 20.960938 24.343750 C21.434898 24.833336 21.671875 25.427080 21.671875 26.125000 C21.671875 26.833337 21.434898 27.434893 20.960938 27.929688 C20.486977 28.424482 19.895837 28.671875 19.187500 28.671875 Z M19.187500 27.265625 C19.500002 27.265625 19.768228 27.156251 19.992188 26.937500 C20.216147 26.718749 20.328125 26.453127 20.328125 26.140625 C20.328125 25.828123 20.216147 25.562501 19.992188 25.343750 C19.768228 25.124999 19.500002 25.015625 19.187500 25.015625 C18.874998 25.015625 18.606772 25.124999 18.382812 25.343750 C18.158853 25.562501 18.046875 25.828123 18.046875 26.140625 C18.046875 26.453127 18.158853 26.718749 18.382812 26.937500 C18.606772 27.156251 18.874998 27.265625 19.187500 27.265625 Z M5.468750 11.750000 C5.072915 11.750000 4.677085 11.635418 4.281250 11.406250 C3.885415 11.177082 3.557293 10.872398 3.296875 10.492188 C3.036457 10.111977 2.906250 9.687502 2.906250 9.218750 C2.906250 8.510413 3.156248 7.911461 3.656250 7.421875 C4.156252 6.932289 4.760413 6.687500 5.468750 6.687500 C6.145837 6.687500 6.736977 6.955726 7.242188 7.492188 C7.747398 8.028649 8.000000 8.604164 8.000000 9.218750 C8.000000 9.916670 7.752607 10.513018 7.257812 11.007812 C6.763018 11.502607 6.166670 11.750000 5.468750 11.750000 Z M5.468750 10.343750 C5.781252 10.343750 6.046874 10.234376 6.265625 10.015625 C6.484376 9.796874 6.593750 9.531252 6.593750 9.218750 C6.593750 8.906248 6.484376 8.640626 6.265625 8.421875 C6.046874 8.203124 5.781252 8.093750 5.468750 8.093750 C5.145832 8.093750 4.872397 8.203124 4.648438 8.421875 C4.424478 8.640626 4.312500 8.906248 4.312500 9.218750 C4.312500 9.531252 4.424478 9.796874 4.648438 10.015625 C4.872397 10.234376 5.145832 10.343750 5.468750 10.343750 Z M22.656250 27.406250 C21.947913 27.406250 21.354169 27.158857 20.875000 26.664062 C20.395831 26.169268 20.156250 25.572920 20.156250 24.875000 C20.156250 24.166663 20.395831 23.565107 20.875000 23.070312 C21.354169 22.575518 21.947913 22.328125 22.656250 22.328125 C23.354170 22.328125 23.950518 22.575518 24.445312 23.070312 C24.940107 23.565107 25.187500 24.161455 25.187500 24.859375 C25.187500 25.567712 24.940107 26.169268 24.445312 26.664062 C23.950518 27.158857 23.354170 27.406250 22.656250 27.406250 Z M22.640625 26.000000 C22.953127 26.000000 23.221353 25.888022 23.445312 25.664062 C23.669272 25.440103 23.781250 25.171877 23.781250 24.859375 C23.781250 24.557290 23.669272 24.294272 23.445312 24.070312 C23.221353 23.846353 22.953127 23.734375 22.640625 23.734375 C22.317707 23.734375 22.046876 23.843749 21.828125 24.062500 C21.609374 24.281251 21.500000 24.552082 21.500000 24.875000 C21.500000 25.187502 21.611978 25.453124 21.835938 25.671875 C22.059897 25.890626 22.328123 26.000000 22.640625 26.000000 Z M29.093750 32.546875 C28.427080 32.546875 27.882815 32.333335 27.460938 31.906250 C27.039060 31.479165 26.828125 30.895837 26.828125 30.156250 C26.828125 29.729165 26.916666 29.239586 27.093750 28.687500 L28.203125 29.234375 C28.098958 29.536460 28.046875 29.822915 28.046875 30.093750 C28.046875 30.479169 28.156249 30.783853 28.375000 31.007812 C28.593751 31.231772 28.880207 31.343750 29.234375 31.343750 C29.505210 31.343750 29.809894 31.270834 30.148438 31.125000 C30.486981 30.979166 30.843748 30.744793 31.218750 30.421875 L31.843750 31.515625 C31.343748 31.869793 30.859377 32.130208 30.390625 32.296875 C29.921873 32.463542 29.489585 32.546875 29.093750 32.546875 Z M26.218750 28.359375 C25.510413 28.359375 24.914065 28.111982 24.429688 27.617188 C23.945310 27.122393 23.703125 26.526045 23.703125 25.828125 C23.703125 25.119788 23.945310 24.518232 24.429688 24.023438 C24.914065 23.528643 25.510413 23.281250 26.218750 23.281250 C26.916670 23.281250 27.507810 23.528643 27.992188 24.023438 C28.476565 24.518232 28.718750 25.114580 28.718750 25.812500 C28.718750 26.520837 28.476565 27.122393 27.992188 27.617188 C27.507810 28.111982 26.916670 28.359375 26.218750 28.359375 Z M26.203125 26.953125 C26.515627 26.953125 26.783853 26.841147 27.007812 26.617188 C27.231772 26.393228 27.343750 26.125002 27.343750 25.812500 C27.343750 25.510415 27.231772 25.247397 27.007812 25.023438 C26.783853 24.799478 26.515627 24.687500 26.203125 24.687500 C25.880207 24.687500 25.609376 24.796874 25.390625 25.015625 C25.171874 25.234376 25.062500 25.505207 25.062500 25.828125 C25.062500 26.140627 25.174478 26.406249 25.398438 26.625000 C25.622397 26.843751 25.890623 26.953125 26.203125 26.953125 Z M8.453125 9.671875 C8.036456 9.671875 7.632814 9.546876 7.242188 9.296875 C6.851561 9.046874 6.531251 8.729169 6.281250 8.343750 C6.031249 7.958331 5.906250 7.557294 5.906250 7.140625 C5.906250 6.432288 6.156248 5.830732 6.656250 5.335938 C7.156252 4.841143 7.755205 4.593750 8.453125 4.593750 C9.161462 4.593750 9.760414 4.861976 10.250000 5.398438 C10.739586 5.934899 10.984375 6.515622 10.984375 7.140625 C10.984375 7.838545 10.736982 8.434893 10.242188 8.929688 C9.747393 9.424482 9.151045 9.671875 8.453125 9.671875 Z M8.453125 8.265625 C8.765627 8.265625 9.031249 8.156251 9.250000 7.937500 C9.468751 7.718749 9.578125 7.453127 9.578125 7.140625 C9.578125 6.828123 9.468751 6.559897 9.250000 6.335938 C9.031249 6.111978 8.765627 6.000000 8.453125 6.000000 C8.130207 6.000000 7.859376 6.109374 7.640625 6.328125 C7.421874 6.546876 7.312500 6.817707 7.312500 7.140625 C7.312500 7.453127 7.424478 7.718749 7.648438 7.937500 C7.872397 8.156251 8.140623 8.265625 8.453125 8.265625 Z M29.046875 29.234375 L29.000000 27.828125 C29.458336 27.828125 29.854165 27.747397 30.187500 27.585938 C30.520835 27.424478 30.895831 27.177085 31.312500 26.843750 C31.739585 26.510415 32.197914 26.250001 32.687500 26.062500 C33.177086 25.874999 33.796871 25.781250 34.546875 25.781250 L34.406250 27.187500 C34.020831 27.187500 33.627606 27.263020 33.226562 27.414062 C32.825519 27.565105 32.458335 27.765624 32.125000 28.015625 C31.760415 28.296876 31.346356 28.565103 30.882812 28.820312 C30.419269 29.075522 29.807295 29.213542 29.046875 29.234375 Z M28.265625 25.328125 C27.567705 25.328125 26.971357 25.080732 26.476562 24.585938 C25.981768 24.091143 25.734375 23.494795 25.734375 22.796875 C25.734375 22.088538 25.981768 21.486982 26.476562 20.992188 C26.971357 20.497393 27.567705 20.250000 28.265625 20.250000 C28.973962 20.250000 29.575518 20.497393 30.070312 20.992188 C30.565107 21.486982 30.812500 22.088538 30.812500 22.796875 C30.812500 23.505212 30.565107 24.104164 30.070312 24.593750 C29.575518 25.083336 28.973962 25.328125 28.265625 25.328125 Z M28.265625 23.921875 C28.588543 23.921875 28.859374 23.815105 29.078125 23.601562 C29.296876 23.388020 29.406250 23.119793 29.406250 22.796875 C29.406250 22.473957 29.296876 22.203126 29.078125 21.984375 C28.859374 21.765624 28.588543 21.656250 28.265625 21.656250 C27.953123 21.656250 27.687501 21.768228 27.468750 21.992188 C27.249999 22.216147 27.140625 22.484373 27.140625 22.796875 C27.140625 23.109377 27.249999 23.374999 27.468750 23.593750 C27.687501 23.812501 27.953123 23.921875 28.265625 23.921875 Z M11.390625 7.437500 C10.682288 7.437500 10.078127 7.169274 9.578125 6.632812 C9.078122 6.096351 8.828125 5.520836 8.828125 4.906250 C8.828125 4.197913 9.078122 3.596357 9.578125 3.101562 C10.078127 2.606768 10.677080 2.359375 11.375000 2.359375 C12.093754 2.359375 12.697914 2.622393 13.187500 3.148438 C13.677086 3.674482 13.921875 4.260413 13.921875 4.906250 C13.921875 5.604170 13.674482 6.200518 13.179688 6.695312 C12.684893 7.190107 12.088545 7.437500 11.390625 7.437500 Z M11.375000 6.031250 C11.687502 6.031250 11.955728 5.919272 12.179688 5.695312 C12.403647 5.471353 12.515625 5.208335 12.515625 4.906250 C12.515625 4.572915 12.408855 4.299480 12.195312 4.085938 C11.981770 3.872395 11.708335 3.765625 11.375000 3.765625 C11.062498 3.765625 10.794272 3.877603 10.570312 4.101562 C10.346353 4.325522 10.234375 4.593748 10.234375 4.906250 C10.234375 5.208335 10.346353 5.471353 10.570312 5.695312 C10.794272 5.919272 11.062498 6.031250 11.375000 6.031250 Z M31.750000 24.171875 C31.052080 24.171875 30.455732 23.921878 29.960938 23.421875 C29.466143 22.921872 29.218750 22.322920 29.218750 21.625000 C29.218750 20.927080 29.466143 20.330732 29.960938 19.835938 C30.455732 19.341143 31.052080 19.093750 31.750000 19.093750 C32.458337 19.093750 33.059893 19.359372 33.554688 19.890625 C34.049482 20.421878 34.296875 20.999997 34.296875 21.625000 C34.296875 22.322920 34.049482 22.921872 33.554688 23.421875 C33.059893 23.921878 32.458337 24.171875 31.750000 24.171875 Z M31.750000 22.765625 C32.072918 22.765625 32.343749 22.656251 32.562500 22.437500 C32.781251 22.218749 32.890625 21.947918 32.890625 21.625000 C32.890625 21.312498 32.778647 21.046876 32.554688 20.828125 C32.330728 20.609374 32.062502 20.500000 31.750000 20.500000 C31.437498 20.500000 31.171876 20.609374 30.953125 20.828125 C30.734374 21.046876 30.625000 21.312498 30.625000 21.625000 C30.625000 21.937502 30.734374 22.205728 30.953125 22.429688 C31.171876 22.653647 31.437498 22.765625 31.750000 22.765625 Z M14.640625 5.703125 C13.932288 5.703125 13.330732 5.437503 12.835938 4.906250 C12.341143 4.374997 12.093750 3.796878 12.093750 3.171875 C12.093750 2.463538 12.341143 1.864586 12.835938 1.375000 C13.330732 0.885414 13.932288 0.640625 14.640625 0.640625 C15.348962 0.640625 15.937498 0.885414 16.406250 1.375000 C16.875002 1.864586 17.109375 2.458330 17.109375 3.156250 C17.109375 3.864587 16.875002 4.466143 16.406250 4.960938 C15.937498 5.455732 15.348962 5.703125 14.640625 5.703125 Z M14.640625 4.296875 C14.953127 4.296875 15.218749 4.187501 15.437500 3.968750 C15.656251 3.749999 15.765625 3.484377 15.765625 3.171875 C15.765625 2.859373 15.656251 2.593751 15.437500 2.375000 C15.218749 2.156249 14.953127 2.046875 14.640625 2.046875 C14.317707 2.046875 14.046876 2.156249 13.828125 2.375000 C13.609374 2.593751 13.500000 2.859373 13.500000 3.171875 C13.500000 3.484377 13.609374 3.749999 13.828125 3.968750 C14.046876 4.187501 14.317707 4.296875 14.640625 4.296875 Z M34.593750 21.843750 C33.885413 21.843750 33.281252 21.596357 32.781250 21.101562 C32.281248 20.606768 32.031250 20.010420 32.031250 19.312500 C32.031250 18.614580 32.281248 18.023440 32.781250 17.539062 C33.281252 17.054685 33.880205 16.812500 34.578125 16.812500 C35.286462 16.812500 35.888018 17.052081 36.382812 17.531250 C36.877607 18.010419 37.125000 18.604163 37.125000 19.312500 C37.125000 20.010420 36.877607 20.606768 36.382812 21.101562 C35.888018 21.596357 35.291670 21.843750 34.593750 21.843750 Z M34.578125 20.437500 C34.890627 20.437500 35.158853 20.325522 35.382812 20.101562 C35.606772 19.877603 35.718750 19.614585 35.718750 19.312500 C35.718750 18.989582 35.609376 18.718751 35.390625 18.500000 C35.171874 18.281249 34.901043 18.171875 34.578125 18.171875 C34.265623 18.171875 33.997397 18.283853 33.773438 18.507812 C33.549478 18.731772 33.437500 18.999998 33.437500 19.312500 C33.437500 19.614585 33.549478 19.877603 33.773438 20.101562 C33.997397 20.325522 34.265623 20.437500 34.578125 20.437500 Z M18.296875 5.250000 C17.598955 5.250000 17.005211 5.002607 16.515625 4.507812 C16.026039 4.013018 15.781250 3.416670 15.781250 2.718750 C15.781250 2.010413 16.023435 1.408857 16.507812 0.914062 C16.992190 0.419268 17.588538 0.171875 18.296875 0.171875 C19.005212 0.171875 19.596352 0.419268 20.070312 0.914062 C20.544273 1.408857 20.781250 2.010413 20.781250 2.718750 C20.781250 3.416670 20.541669 4.013018 20.062500 4.507812 C19.583331 5.002607 18.994795 5.250000 18.296875 5.250000 Z M18.296875 3.843750 C18.609377 3.843750 18.874999 3.734376 19.093750 3.515625 C19.312501 3.296874 19.421875 3.031252 19.421875 2.718750 C19.421875 2.395832 19.315105 2.125001 19.101562 1.906250 C18.888020 1.687499 18.619793 1.578125 18.296875 1.578125 C17.973957 1.578125 17.700522 1.690103 17.476562 1.914062 C17.252603 2.138022 17.140625 2.406248 17.140625 2.718750 C17.140625 3.020835 17.252603 3.283853 17.476562 3.507812 C17.700522 3.731772 17.973957 3.843750 18.296875 3.843750 Z M21.953125 5.062500 C21.244788 5.062500 20.648440 4.815107 20.164062 4.320312 C19.679685 3.825518 19.437500 3.229170 19.437500 2.531250 C19.437500 1.822913 19.679685 1.223961 20.164062 0.734375 C20.648440 0.244789 21.244788 -0.000000 21.953125 -0.000000 C22.661462 -0.000000 23.252602 0.244789 23.726562 0.734375 C24.200523 1.223961 24.437500 1.817705 24.437500 2.515625 C24.437500 3.223962 24.200523 3.825518 23.726562 4.320312 C23.252602 4.815107 22.661462 5.062500 21.953125 5.062500 Z M21.953125 3.656250 C22.265627 3.656250 22.531249 3.546876 22.750000 3.328125 C22.968751 3.109374 23.078125 2.843752 23.078125 2.531250 C23.078125 2.218748 22.968751 1.953126 22.750000 1.734375 C22.531249 1.515624 22.265627 1.406250 21.953125 1.406250 C21.630207 1.406250 21.356772 1.515624 21.132812 1.734375 C20.908853 1.953126 20.796875 2.218748 20.796875 2.531250 C20.796875 2.843752 20.908853 3.109374 21.132812 3.328125 C21.356772 3.546876 21.630207 3.656250 21.953125 3.656250 Z M36.843750 18.968750 C36.218747 18.968750 35.640628 18.721357 35.109375 18.226562 C34.578122 17.731768 34.312500 17.135420 34.312500 16.437500 C34.312500 15.729163 34.559893 15.140627 35.054688 14.671875 C35.549482 14.203123 36.145830 13.968750 36.843750 13.968750 C37.552087 13.968750 38.156248 14.203123 38.656250 14.671875 C39.156252 15.140627 39.406250 15.723955 39.406250 16.421875 C39.406250 17.130212 39.156252 17.731768 38.656250 18.226562 C38.156248 18.721357 37.552087 18.968750 36.843750 18.968750 Z M36.843750 17.562500 C37.166668 17.562500 37.440103 17.453126 37.664062 17.234375 C37.888022 17.015624 38.000000 16.750002 38.000000 16.437500 C38.000000 16.124998 37.888022 15.859376 37.664062 15.640625 C37.440103 15.421874 37.166668 15.312500 36.843750 15.312500 C36.531248 15.312500 36.265626 15.421874 36.046875 15.640625 C35.828124 15.859376 35.718750 16.124998 35.718750 16.437500 C35.718750 16.750002 35.828124 17.015624 36.046875 17.234375 C36.265626 17.453126 36.531248 17.562500 36.843750 17.562500 Z M25.593750 3.765625 C25.906252 3.765625 26.174478 3.656251 26.398438 3.437500 C26.622397 3.218749 26.734375 2.953127 26.734375 2.640625 C26.734375 2.328123 26.622397 2.062501 26.398438 1.843750 C26.174478 1.624999 25.906252 1.515625 25.593750 1.515625 C25.281248 1.515625 25.013022 1.624999 24.789062 1.843750 C24.565103 2.062501 24.453125 2.328123 24.453125 2.640625 C24.453125 2.953127 24.565103 3.218749 24.789062 3.437500 C25.013022 3.656251 25.281248 3.765625 25.593750 3.765625 Z M25.593750 5.171875 C24.895830 5.171875 24.304690 4.924482 23.820312 4.429688 C23.335935 3.934893 23.093750 3.338545 23.093750 2.640625 C23.093750 1.932288 23.335935 1.333336 23.820312 0.843750 C24.304690 0.354164 24.895830 0.109375 25.593750 0.109375 C26.302087 0.109375 26.893227 0.354164 27.367188 0.843750 C27.841148 1.333336 28.078125 1.927080 28.078125 2.625000 C28.078125 3.333337 27.841148 3.934893 27.367188 4.429688 C26.893227 4.924482 26.302087 5.171875 25.593750 5.171875 Z M37.750000 15.406250 C37.052080 15.406250 36.453128 15.174481 35.953125 14.710938 C35.453122 14.247394 35.203125 13.661462 35.203125 12.953125 C35.203125 12.255205 35.453122 11.661461 35.953125 11.171875 C36.453128 10.682289 37.052080 10.437500 37.750000 10.437500 C38.458337 10.437500 39.059893 10.677081 39.554688 11.156250 C40.049482 11.635419 40.296875 12.229163 40.296875 12.937500 C40.296875 13.645837 40.052086 14.234373 39.562500 14.703125 C39.072914 15.171877 38.468754 15.406250 37.750000 15.406250 Z M37.750000 14.062500 C38.083335 14.062500 38.356770 13.955730 38.570312 13.742188 C38.783855 13.528645 38.890625 13.260418 38.890625 12.937500 C38.890625 12.624998 38.778647 12.359376 38.554688 12.140625 C38.330728 11.921874 38.062502 11.812500 37.750000 11.812500 C37.437498 11.812500 37.169272 11.921874 36.945312 12.140625 C36.721353 12.359376 36.609375 12.624998 36.609375 12.937500 C36.609375 13.250002 36.721353 13.515624 36.945312 13.734375 C37.169272 13.953126 37.437498 14.062500 37.750000 14.062500 Z M29.218750 5.828125 C28.510413 5.828125 27.916669 5.580732 27.437500 5.085938 C26.958331 4.591143 26.718750 3.994795 26.718750 3.296875 C26.718750 2.588538 26.958331 1.986982 27.437500 1.492188 C27.916669 0.997393 28.510413 0.750000 29.218750 0.750000 C29.916670 0.750000 30.505206 0.997393 30.984375 1.492188 C31.463544 1.986982 31.703125 2.588538 31.703125 3.296875 C31.703125 3.911461 31.463544 4.486976 30.984375 5.023438 C30.505206 5.559899 29.916670 5.828125 29.218750 5.828125 Z M29.203125 4.421875 C29.515627 4.421875 29.783853 4.309897 30.007812 4.085938 C30.231772 3.861978 30.343750 3.593752 30.343750 3.281250 C30.343750 2.979165 30.231772 2.716147 30.007812 2.492188 C29.783853 2.268228 29.515627 2.156250 29.203125 2.156250 C28.890623 2.156250 28.625001 2.268228 28.406250 2.492188 C28.187499 2.716147 28.078125 2.984373 28.078125 3.296875 C28.078125 3.598960 28.187499 3.861978 28.406250 4.085938 C28.625001 4.309897 28.890623 4.421875 29.203125 4.421875 Z M32.687500 6.906250 C31.989580 6.906250 31.401044 6.658857 30.921875 6.164062 C30.442706 5.669268 30.203125 5.072920 30.203125 4.375000 C30.203125 3.749997 30.442706 3.169274 30.921875 2.632812 C31.401044 2.096351 31.989580 1.828125 32.687500 1.828125 C33.395837 1.828125 33.999998 2.075518 34.500000 2.570312 C35.000002 3.065107 35.250000 3.666663 35.250000 4.375000 C35.250000 4.979170 35.000002 5.552081 34.500000 6.093750 C33.999998 6.635419 33.395837 6.906250 32.687500 6.906250 Z M32.687500 5.500000 C33.010418 5.500000 33.283853 5.390626 33.507812 5.171875 C33.731772 4.953124 33.843750 4.687502 33.843750 4.375000 C33.843750 4.062498 33.731772 3.794272 33.507812 3.570312 C33.283853 3.346353 33.010418 3.234375 32.687500 3.234375 C32.374998 3.234375 32.109376 3.346353 31.890625 3.570312 C31.671874 3.794272 31.562500 4.062498 31.562500 4.375000 C31.562500 4.687502 31.671874 4.953124 31.890625 5.171875 C32.109376 5.390626 32.374998 5.500000 32.687500 5.500000 Z M37.765625 11.765625 C37.067705 11.765625 36.468752 11.528648 35.968750 11.054688 C35.468748 10.580727 35.218750 9.989587 35.218750 9.281250 C35.218750 8.583330 35.468748 7.989586 35.968750 7.500000 C36.468752 7.010414 37.067705 6.765625 37.765625 6.765625 C38.473962 6.765625 39.075518 7.010414 39.570312 7.500000 C40.065107 7.989586 40.312500 8.588538 40.312500 9.296875 C40.312500 9.994795 40.065107 10.580727 39.570312 11.054688 C39.075518 11.528648 38.473962 11.765625 37.765625 11.765625 Z M37.765625 10.421875 C38.088543 10.421875 38.359374 10.312501 38.578125 10.093750 C38.796876 9.874999 38.906250 9.609377 38.906250 9.296875 C38.906250 8.984373 38.796876 8.718751 38.578125 8.500000 C38.359374 8.281249 38.088543 8.171875 37.765625 8.171875 C37.453123 8.171875 37.184897 8.281249 36.960938 8.500000 C36.736978 8.718751 36.625000 8.984373 36.625000 9.296875 C36.625000 9.609377 36.736978 9.874999 36.960938 10.093750 C37.184897 10.312501 37.453123 10.421875 37.765625 10.421875 Z M35.890625 8.734375 C35.192705 8.734375 34.596357 8.484378 34.101562 7.984375 C33.606768 7.484372 33.359375 6.885420 33.359375 6.187500 C33.359375 5.583330 33.601560 5.010419 34.085938 4.468750 C34.570315 3.927081 35.171871 3.656250 35.890625 3.656250 C36.598962 3.656250 37.200518 3.901039 37.695312 4.390625 C38.190107 4.880211 38.437500 5.473955 38.437500 6.171875 C38.437500 6.880212 38.169274 7.484372 37.632812 7.984375 C37.096351 8.484378 36.515628 8.734375 35.890625 8.734375 Z M35.890625 7.328125 C36.213543 7.328125 36.484374 7.218751 36.703125 7.000000 C36.921876 6.781249 37.031250 6.510418 37.031250 6.187500 C37.031250 5.874998 36.919272 5.609376 36.695312 5.390625 C36.471353 5.171874 36.203127 5.062500 35.890625 5.062500 C35.557290 5.062500 35.286459 5.166666 35.078125 5.375000 C34.869791 5.583334 34.765625 5.854165 34.765625 6.187500 C34.765625 6.500002 34.874999 6.768228 35.093750 6.992188 C35.312501 7.216147 35.578123 7.328125 35.890625 7.328125 Z M40.468750 27.343750" /></svg>