<svg version="1.1" xmlns="http://www.w3.org/2000/svg" style="fill:rgba(0,0,0,1.0)" width="256" height="256" viewBox="0 0 36.640625 32.8125"><path fill="rgb(255, 255, 255)" d="M0.000000 26.156250 L0.000000 18.000000 C0.000000 17.760415 0.023437 17.515626 0.070312 17.265625 C0.117188 17.015624 0.177083 16.776043 0.250000 16.546875 L2.203125 9.968750 C2.432293 9.197913 2.822914 8.588544 3.375000 8.140625 C3.927086 7.692706 4.546872 7.468750 5.234375 7.468750 L6.343750 7.468750 L7.187500 4.656250 C7.322917 4.208331 7.447916 3.851564 7.562500 3.585938 C7.677084 3.320311 7.804687 3.122396 7.945312 2.992188 C8.085938 2.861979 8.260416 2.776042 8.468750 2.734375 C8.416666 2.203122 8.348959 1.703127 8.265625 1.234375 C8.182291 0.765623 8.088542 0.354168 7.984375 -0.000000 L22.921875 -0.000000 C23.015625 0.375002 23.098958 0.789060 23.171875 1.242188 C23.244792 1.695315 23.307291 2.177081 23.359375 2.687500 L23.609375 2.687500 C23.973960 2.687500 24.260416 2.734375 24.468750 2.828125 C24.677084 2.921875 24.854166 3.109374 25.000000 3.390625 C25.145834 3.671876 25.302082 4.093747 25.468750 4.656250 L26.312500 7.468750 L27.421875 7.468750 C28.109378 7.468750 28.729164 7.692706 29.281250 8.140625 C29.833336 8.588544 30.223957 9.197913 30.453125 9.968750 L32.406250 16.546875 C32.479167 16.776043 32.539062 17.015624 32.585938 17.265625 C32.632813 17.515626 32.656250 17.760415 32.656250 18.000000 L32.656250 26.156250 C32.656250 27.010421 32.354170 27.742184 31.750000 28.351562 C31.145830 28.960941 30.411463 29.265625 29.546875 29.265625 L28.640625 29.265625 L29.718750 32.812500 L2.937500 32.812500 L4.015625 29.265625 L3.109375 29.265625 C2.255204 29.265625 1.523441 28.960941 0.914062 28.351562 C0.304684 27.742184 0.000000 27.010421 0.000000 26.156250 Z M1.562500 26.156250 C1.562500 26.583335 1.713540 26.947915 2.015625 27.250000 C2.317710 27.552085 2.682290 27.703125 3.109375 27.703125 L4.484375 27.703125 L5.921875 22.953125 L26.734375 22.953125 L28.171875 27.703125 L29.546875 27.703125 C29.973960 27.703125 30.338540 27.552085 30.640625 27.250000 C30.942710 26.947915 31.093750 26.583335 31.093750 26.156250 L31.093750 18.578125 C31.093750 18.296874 30.994793 18.057293 30.796875 17.859375 C30.598957 17.661457 30.359376 17.562500 30.078125 17.562500 L26.593750 17.562500 L26.593750 18.828125 C26.593750 19.557295 26.341148 20.174477 25.835938 20.679688 C25.330727 21.184898 24.713545 21.437500 23.984375 21.437500 L18.734375 21.437500 C18.651041 21.635418 18.513022 21.802083 18.320312 21.937500 C18.127603 22.072917 17.911460 22.140625 17.671875 22.140625 L14.984375 22.140625 C14.744790 22.140625 14.528647 22.072917 14.335938 21.937500 C14.143228 21.802083 14.005209 21.635418 13.921875 21.437500 L8.671875 21.437500 C7.942705 21.437500 7.325523 21.184898 6.820312 20.679688 C6.315102 20.174477 6.062500 19.557295 6.062500 18.828125 L6.062500 17.562500 L2.578125 17.562500 C2.296874 17.562500 2.057293 17.661457 1.859375 17.859375 C1.661457 18.057293 1.562500 18.296874 1.562500 18.578125 Z M2.031250 16.062500 C2.114584 16.041667 2.203125 16.026042 2.296875 16.015625 C2.390625 16.005208 2.484375 16.000000 2.578125 16.000000 L6.265625 16.000000 L8.296875 9.031250 L5.234375 9.031250 C4.901040 9.031250 4.596356 9.151040 4.320312 9.390625 C4.044269 9.630210 3.838542 9.979164 3.703125 10.437500 Z M5.031250 31.250000 L27.625000 31.250000 L25.578125 24.515625 L7.078125 24.515625 Z M7.625000 18.828125 C7.625000 19.119793 7.726561 19.367186 7.929688 19.570312 C8.132814 19.773439 8.380207 19.875000 8.671875 19.875000 L13.906250 19.875000 C13.989584 19.666666 14.127603 19.492188 14.320312 19.351562 C14.513022 19.210937 14.734374 19.140625 14.984375 19.140625 L17.671875 19.140625 C17.921876 19.140625 18.145832 19.210937 18.343750 19.351562 C18.541668 19.492188 18.677083 19.666666 18.750000 19.875000 L23.984375 19.875000 C24.276043 19.875000 24.523436 19.773439 24.726562 19.570312 C24.929689 19.367186 25.031250 19.119793 25.031250 18.828125 L25.031250 17.562500 L7.625000 17.562500 Z M7.890625 16.000000 L24.765625 16.000000 L22.734375 9.031250 L9.921875 9.031250 Z M9.921875 1.562500 C10.046876 2.343754 10.151041 3.218745 10.234375 4.187500 C10.317709 5.156255 10.359375 6.249994 10.359375 7.468750 L22.109375 7.468750 C22.109375 6.239577 22.065105 5.138026 21.976562 4.164062 C21.888020 3.190099 21.781251 2.322920 21.656250 1.562500 Z M24.359375 9.031250 L26.390625 16.000000 L30.078125 16.000000 C30.171875 16.000000 30.265625 16.005208 30.359375 16.015625 C30.453125 16.026042 30.541666 16.041667 30.625000 16.062500 L28.953125 10.437500 C28.817708 9.979164 28.611981 9.630210 28.335938 9.390625 C28.059894 9.151040 27.755210 9.031250 27.421875 9.031250 Z M28.296875 21.421875 C28.046874 21.421875 27.835938 21.335938 27.664062 21.164062 C27.492187 20.992187 27.406250 20.781251 27.406250 20.531250 C27.406250 20.281249 27.492187 20.067709 27.664062 19.890625 C27.835938 19.713541 28.046874 19.625000 28.296875 19.625000 C28.546876 19.625000 28.760416 19.713541 28.937500 19.890625 C29.114584 20.067709 29.203125 20.281249 29.203125 20.531250 C29.203125 20.781251 29.114584 20.992187 28.937500 21.164062 C28.760416 21.335938 28.546876 21.421875 28.296875 21.421875 Z M8.671875 29.500000 L8.906250 28.546875 L23.750000 28.546875 L23.984375 29.500000 Z M9.171875 26.984375 L9.406250 26.015625 L23.250000 26.015625 L23.484375 26.984375 Z M36.640625 27.343750" /></svg>