<svg version="1.1" xmlns="http://www.w3.org/2000/svg" style="fill:rgba(0,0,0,1.0)" width="256" height="256" viewBox="0 0 36.71875 32.8125"><path fill="rgb(255, 255, 255)" d="M16.406250 30.312500 C18.333343 30.312500 20.135408 29.953129 21.812500 29.234375 C23.489592 28.515621 24.966139 27.518236 26.242188 26.242188 C27.518236 24.966139 28.515621 23.486988 29.234375 21.804688 C29.953129 20.122387 30.312500 18.322926 30.312500 16.406250 C30.312500 14.489574 29.953129 12.690113 29.234375 11.007812 C28.515621 9.325512 27.518236 7.846361 26.242188 6.570312 C24.966139 5.294264 23.489592 4.296879 21.812500 3.578125 C20.135408 2.859371 18.338551 2.500000 16.421875 2.500000 C14.494782 2.500000 12.690113 2.859371 11.007812 3.578125 C9.325512 4.296879 7.846361 5.294264 6.570312 6.570312 C5.294264 7.846361 4.296879 9.325512 3.578125 11.007812 C2.859371 12.690113 2.500000 14.489574 2.500000 16.406250 C2.500000 18.322926 2.859371 20.122387 3.578125 21.804688 C4.296879 23.486988 5.294264 24.966139 6.570312 26.242188 C7.846361 27.518236 9.325512 28.515621 11.007812 29.234375 C12.690113 29.953129 14.489574 30.312500 16.406250 30.312500 Z M16.406250 32.812500 C14.145822 32.812500 12.023447 32.388025 10.039062 31.539062 C8.054678 30.690100 6.309903 29.513028 4.804688 28.007812 C3.299472 26.502597 2.122400 24.757822 1.273438 22.773438 C0.424475 20.789053 0.000000 18.666678 0.000000 16.406250 C0.000000 14.135405 0.424475 12.010427 1.273438 10.031250 C2.122400 8.052073 3.299472 6.309903 4.804688 4.804688 C6.309903 3.299472 8.054678 2.122400 10.039062 1.273438 C12.023447 0.424475 14.145822 -0.000000 16.406250 -0.000000 C18.677095 -0.000000 20.802073 0.424475 22.781250 1.273438 C24.760427 2.122400 26.502597 3.299472 28.007812 4.804688 C29.513028 6.309903 30.690100 8.054678 31.539062 10.039062 C32.388025 12.023447 32.812500 14.145822 32.812500 16.406250 C32.812500 18.666678 32.388025 20.789053 31.539062 22.773438 C30.690100 24.757822 29.515632 26.502597 28.015625 28.007812 C26.515618 29.513028 24.773447 30.690100 22.789062 31.539062 C20.804678 32.388025 18.677095 32.812500 16.406250 32.812500 Z M28.203125 25.875000 L26.015625 28.109375 L4.625000 6.937500 L6.812500 4.703125 Z M36.718750 27.343750" /></svg>