<svg version="1.1" xmlns="http://www.w3.org/2000/svg" style="fill:rgba(0,0,0,1.0)" width="256" height="256" viewBox="0 0 33.03125 32.8125"><path fill="rgb(255, 255, 255)" d="M12.718750 32.812500 C10.520822 32.812500 8.598967 32.528649 6.953125 31.960938 C5.307283 31.393226 4.031255 30.565110 3.125000 29.476562 C2.218745 28.388015 1.765625 27.057300 1.765625 25.484375 C1.765625 24.453120 1.973956 23.401047 2.390625 22.328125 C2.807294 21.255203 3.447912 20.135422 4.312500 18.968750 C4.687502 18.458331 4.966145 18.000002 5.148438 17.593750 C5.330730 17.187498 5.421875 16.817710 5.421875 16.484375 C5.421875 16.026039 5.296876 15.473962 5.046875 14.828125 C4.796874 14.182288 4.505210 13.432296 4.171875 12.578125 C3.838540 11.723954 3.546876 10.760422 3.296875 9.687500 C3.046874 8.614578 2.921875 7.421882 2.921875 6.109375 C2.921875 4.901036 3.117186 3.838546 3.507812 2.921875 C3.898439 2.005204 4.429684 1.289065 5.101562 0.773438 C5.773441 0.257810 6.526038 -0.000000 7.359375 -0.000000 C8.494797 -0.000000 9.388018 0.502599 10.039062 1.507812 C10.690107 2.513026 11.067708 3.979157 11.171875 5.906250 C11.255209 7.531258 11.390624 8.861974 11.578125 9.898438 C11.765626 10.934901 12.036457 11.869788 12.390625 12.703125 C12.442709 12.703125 12.494791 12.703125 12.546875 12.703125 C12.598959 12.703125 12.656250 12.703125 12.718750 12.703125 C12.781250 12.703125 12.841146 12.703125 12.898438 12.703125 C12.955729 12.703125 13.005208 12.703125 13.046875 12.703125 C13.401043 11.869788 13.671874 10.934901 13.859375 9.898438 C14.046876 8.861974 14.182291 7.531258 14.265625 5.906250 C14.369792 3.979157 14.747393 2.513026 15.398438 1.507812 C16.049482 0.502599 16.942703 -0.000000 18.078125 -0.000000 C18.921879 -0.000000 19.677080 0.257810 20.343750 0.773438 C21.010420 1.289065 21.539061 2.005204 21.929688 2.921875 C22.320314 3.838546 22.515625 4.901036 22.515625 6.109375 C22.515625 7.421882 22.390626 8.614578 22.140625 9.687500 C21.890624 10.760422 21.598960 11.723954 21.265625 12.578125 C20.932290 13.432296 20.640626 14.182288 20.390625 14.828125 C20.140624 15.473962 20.015625 16.026039 20.015625 16.484375 C20.015625 16.817710 20.106770 17.187498 20.289062 17.593750 C20.471355 18.000002 20.749998 18.458331 21.125000 18.968750 C21.989588 20.135422 22.630206 21.255203 23.046875 22.328125 C23.463544 23.401047 23.671875 24.453120 23.671875 25.484375 C23.671875 27.057300 23.218755 28.388015 22.312500 29.476562 C21.406245 30.565110 20.132821 31.393226 18.492188 31.960938 C16.851554 32.528649 14.927094 32.812500 12.718750 32.812500 Z M2.765625 30.015625 L1.703125 29.328125 C1.942710 28.963540 2.268227 28.604168 2.679688 28.250000 C3.091148 27.895832 3.526039 27.585939 3.984375 27.320312 C4.442711 27.054686 4.859373 26.890625 5.234375 26.828125 L5.453125 28.046875 C5.192707 28.088542 4.885418 28.216145 4.531250 28.429688 C4.177082 28.643230 3.838543 28.893228 3.515625 29.179688 C3.192707 29.466147 2.942709 29.744790 2.765625 30.015625 Z M0.562500 27.015625 L0.000000 25.890625 C0.500002 25.651040 1.093747 25.463542 1.781250 25.328125 C2.468753 25.192708 3.135413 25.125000 3.781250 25.125000 C4.520837 25.125000 5.124998 25.208332 5.593750 25.375000 L5.156250 26.562500 C4.812498 26.437499 4.348961 26.375000 3.765625 26.375000 C3.223956 26.375000 2.658857 26.429687 2.070312 26.539062 C1.481768 26.648438 0.979169 26.807291 0.562500 27.015625 Z M5.031250 24.796875 C3.874994 24.265622 2.359384 24.000000 0.484375 24.000000 L0.484375 22.750000 C2.546885 22.750000 4.239577 23.057289 5.562500 23.671875 Z M12.093750 29.906250 C11.364580 29.906250 10.760419 29.533858 10.281250 28.789062 C9.802081 28.044267 9.562500 27.135422 9.562500 26.062500 C9.562500 25.916666 9.578125 25.765626 9.609375 25.609375 L10.859375 26.328125 C10.890625 26.963545 11.033853 27.510414 11.289062 27.968750 C11.544272 28.427086 11.828123 28.656250 12.140625 28.656250 C12.286459 28.656250 12.479165 28.598959 12.718750 28.484375 C12.958335 28.598959 13.151041 28.656250 13.296875 28.656250 C13.609377 28.656250 13.893228 28.427086 14.148438 27.968750 C14.403647 27.510414 14.546875 26.963545 14.578125 26.328125 L15.828125 25.609375 C15.859375 25.765626 15.875000 25.916666 15.875000 26.062500 C15.875000 27.135422 15.635419 28.044267 15.156250 28.789062 C14.677081 29.533858 14.072920 29.906250 13.343750 29.906250 C13.145832 29.906250 12.937501 29.875000 12.718750 29.812500 C12.499999 29.875000 12.291668 29.906250 12.093750 29.906250 Z M10.421875 27.062500 C10.119790 27.062500 9.807293 27.018230 9.484375 26.929688 C9.161457 26.841145 8.822918 26.703126 8.468750 26.515625 L9.078125 25.000000 C9.588544 25.229168 10.036456 25.343750 10.421875 25.343750 C10.932294 25.343750 11.330728 25.218751 11.617188 24.968750 C11.903647 24.718749 12.046875 24.328128 12.046875 23.796875 L13.390625 23.796875 C13.390625 24.328128 13.533853 24.718749 13.820312 24.968750 C14.106772 25.218751 14.505206 25.343750 15.015625 25.343750 C15.401044 25.343750 15.848956 25.229168 16.359375 25.000000 L16.968750 26.515625 C16.614582 26.703126 16.276043 26.841145 15.953125 26.929688 C15.630207 27.018230 15.317710 27.062500 15.015625 27.062500 C14.442705 27.062500 13.942710 26.942710 13.515625 26.703125 C13.088540 26.463540 12.723960 26.119794 12.421875 25.671875 L13.015625 25.671875 C12.713540 26.119794 12.348960 26.463540 11.921875 26.703125 C11.494790 26.942710 10.994795 27.062500 10.421875 27.062500 Z M9.171875 21.375000 C8.848957 21.375000 8.575522 21.208335 8.351562 20.875000 C8.127603 20.541665 8.015625 20.135419 8.015625 19.656250 C8.015625 19.177081 8.127603 18.770835 8.351562 18.437500 C8.575522 18.104165 8.848957 17.937500 9.171875 17.937500 C9.494793 17.937500 9.768228 18.104165 9.992188 18.437500 C10.216147 18.770835 10.328125 19.177081 10.328125 19.656250 C10.328125 20.135419 10.216147 20.541665 9.992188 20.875000 C9.768228 21.208335 9.494793 21.375000 9.171875 21.375000 Z M12.718750 24.078125 C12.104164 23.973958 11.632814 23.747398 11.304688 23.398438 C10.976561 23.049477 10.812500 22.677085 10.812500 22.281250 C10.812500 21.968748 10.994790 21.812500 11.359375 21.812500 C11.848961 21.812500 12.302081 22.182288 12.718750 22.921875 C13.135419 22.182288 13.588539 21.812500 14.078125 21.812500 C14.442710 21.812500 14.625000 21.968748 14.625000 22.281250 C14.625000 22.677085 14.460939 23.049477 14.132812 23.398438 C13.804686 23.747398 13.333336 23.973958 12.718750 24.078125 Z M22.671875 30.015625 C22.505208 29.744790 22.257814 29.466147 21.929688 29.179688 C21.601561 28.893228 21.260418 28.643230 20.906250 28.429688 C20.552082 28.216145 20.244793 28.088542 19.984375 28.046875 L20.203125 26.828125 C20.578127 26.890625 20.994789 27.054686 21.453125 27.320312 C21.911461 27.585939 22.348956 27.895832 22.765625 28.250000 C23.182294 28.604168 23.505207 28.963540 23.734375 29.328125 Z M12.718750 31.250000 C15.604181 31.250000 17.864575 30.760422 19.500000 29.781250 C21.135425 28.802078 21.953125 27.369801 21.953125 25.484375 C21.953125 24.619787 21.773439 23.734380 21.414062 22.828125 C21.054686 21.921870 20.489587 20.947922 19.718750 19.906250 C19.260414 19.270830 18.908855 18.669274 18.664062 18.101562 C18.419270 17.533851 18.296875 16.994794 18.296875 16.484375 C18.296875 15.932289 18.421874 15.315108 18.671875 14.632812 C18.921876 13.950517 19.213540 13.187504 19.546875 12.343750 C19.880210 11.499996 20.171874 10.562505 20.421875 9.531250 C20.671876 8.499995 20.796875 7.359381 20.796875 6.109375 C20.796875 4.734368 20.539065 3.632817 20.023438 2.804688 C19.507810 1.976558 18.859379 1.562500 18.078125 1.562500 C17.380205 1.562500 16.851564 1.927080 16.492188 2.656250 C16.132811 3.385420 15.911459 4.499993 15.828125 6.000000 C15.755208 7.354173 15.643230 8.544266 15.492188 9.570312 C15.341145 10.596359 15.145835 11.510413 14.906250 12.312500 C14.666665 13.114587 14.359377 13.869788 13.984375 14.578125 C13.682290 14.515625 13.455730 14.473958 13.304688 14.453125 C13.153645 14.432292 12.958335 14.421875 12.718750 14.421875 C12.479165 14.421875 12.283855 14.432292 12.132812 14.453125 C11.981770 14.473958 11.755210 14.515625 11.453125 14.578125 C11.088540 13.869788 10.783855 13.114587 10.539062 12.312500 C10.294270 11.510413 10.098959 10.596359 9.953125 9.570312 C9.807291 8.544266 9.692709 7.354173 9.609375 6.000000 C9.526041 4.499993 9.307293 3.385420 8.953125 2.656250 C8.598957 1.927080 8.067712 1.562500 7.359375 1.562500 C6.578121 1.562500 5.929690 1.976558 5.414062 2.804688 C4.898435 3.632817 4.640625 4.734368 4.640625 6.109375 C4.640625 7.359381 4.765624 8.499995 5.015625 9.531250 C5.265626 10.562505 5.557290 11.499996 5.890625 12.343750 C6.223960 13.187504 6.515624 13.950517 6.765625 14.632812 C7.015626 15.315108 7.140625 15.932289 7.140625 16.484375 C7.140625 16.994794 7.018230 17.533851 6.773438 18.101562 C6.528645 18.669274 6.177086 19.270830 5.718750 19.906250 C4.958330 20.947922 4.395835 21.921870 4.031250 22.828125 C3.666665 23.734380 3.484375 24.619787 3.484375 25.484375 C3.484375 27.369801 4.302075 28.802078 5.937500 29.781250 C7.572925 30.760422 9.833319 31.250000 12.718750 31.250000 Z M24.875000 27.015625 C24.458331 26.807291 23.955732 26.648438 23.367188 26.539062 C22.778643 26.429687 22.213544 26.375000 21.671875 26.375000 C21.088539 26.375000 20.625002 26.437499 20.281250 26.562500 L19.843750 25.375000 C20.312502 25.208332 20.916663 25.125000 21.656250 25.125000 C22.302087 25.125000 22.968747 25.192708 23.656250 25.328125 C24.343753 25.463542 24.937498 25.651040 25.437500 25.890625 Z M16.265625 21.375000 C15.942707 21.375000 15.669272 21.208335 15.445312 20.875000 C15.221353 20.541665 15.109375 20.135419 15.109375 19.656250 C15.109375 19.177081 15.221353 18.770835 15.445312 18.437500 C15.669272 18.104165 15.942707 17.937500 16.265625 17.937500 C16.588543 17.937500 16.861978 18.104165 17.085938 18.437500 C17.309897 18.770835 17.421875 19.177081 17.421875 19.656250 C17.421875 20.135419 17.309897 20.541665 17.085938 20.875000 C16.861978 21.208335 16.588543 21.375000 16.265625 21.375000 Z M20.406250 24.796875 L19.875000 23.671875 C21.197923 23.057289 22.890615 22.750000 24.953125 22.750000 L24.953125 24.000000 C23.078116 24.000000 21.562506 24.265622 20.406250 24.796875 Z M8.687500 13.968750 C8.374998 13.968750 8.054689 13.726565 7.726562 13.242188 C7.398436 12.757810 7.093751 12.122400 6.812500 11.335938 C6.531249 10.549475 6.304688 9.697921 6.132812 8.781250 C5.960937 7.864579 5.875000 6.979171 5.875000 6.125000 C5.875000 5.312496 6.007811 4.648440 6.273438 4.132812 C6.539064 3.617185 6.890623 3.359375 7.328125 3.359375 C7.734377 3.359375 8.049478 3.645830 8.273438 4.218750 C8.497397 4.791670 8.609375 5.588537 8.609375 6.609375 C8.609375 6.973960 8.638021 7.419268 8.695312 7.945312 C8.752604 8.471357 8.820312 9.002601 8.898438 9.539062 C8.976563 10.075524 9.052083 10.544269 9.125000 10.945312 C9.197917 11.346356 9.255208 11.609374 9.296875 11.734375 C9.348959 11.880209 9.406250 12.091144 9.468750 12.367188 C9.531250 12.643231 9.562500 12.906249 9.562500 13.156250 C9.562500 13.697919 9.270836 13.968750 8.687500 13.968750 Z M16.750000 13.968750 C16.166664 13.968750 15.875000 13.697919 15.875000 13.156250 C15.875000 12.906249 15.908854 12.643231 15.976562 12.367188 C16.044271 12.091144 16.098958 11.880209 16.140625 11.734375 C16.182292 11.609374 16.239583 11.346356 16.312500 10.945312 C16.385417 10.544269 16.460937 10.075524 16.539062 9.539062 C16.617188 9.002601 16.684896 8.471357 16.742188 7.945312 C16.799479 7.419268 16.828125 6.973960 16.828125 6.609375 C16.828125 5.588537 16.940103 4.791670 17.164062 4.218750 C17.388022 3.645830 17.703123 3.359375 18.109375 3.359375 C18.546877 3.359375 18.898436 3.617185 19.164062 4.132812 C19.429689 4.648440 19.562500 5.312496 19.562500 6.125000 C19.562500 6.979171 19.476563 7.864579 19.304688 8.781250 C19.132812 9.697921 18.906251 10.549475 18.625000 11.335938 C18.343749 12.122400 18.039064 12.757810 17.710938 13.242188 C17.382811 13.726565 17.062502 13.968750 16.750000 13.968750 Z M33.031250 27.343750" /></svg>