<svg version="1.1" xmlns="http://www.w3.org/2000/svg" style="fill:rgba(0,0,0,1.0)" width="256" height="256" viewBox="0 0 39.0 28.125"><path fill="rgb(255, 255, 255)" d="M28.125000 28.125000 C26.749993 28.125000 25.424486 27.947918 24.148438 27.593750 C22.872389 27.239582 21.617194 26.802086 20.382812 26.281250 C19.148431 25.760414 17.914069 25.236982 16.679688 24.710938 C15.445306 24.184893 14.192715 23.744793 12.921875 23.390625 C11.651035 23.036457 10.333340 22.859375 8.968750 22.859375 C7.583326 22.859375 6.122404 23.041665 4.585938 23.406250 C3.049471 23.770835 1.520841 24.333330 0.000000 25.093750 L0.000000 3.031250 C1.718759 1.916661 3.361971 1.132815 4.929688 0.679688 C6.497404 0.226560 7.937493 -0.000000 9.250000 -0.000000 C10.625007 -0.000000 11.950514 0.177082 13.226562 0.531250 C14.502611 0.885418 15.757806 1.322914 16.992188 1.843750 C18.226569 2.364586 19.458327 2.888018 20.687500 3.414062 C21.916673 3.940107 23.169264 4.380207 24.445312 4.734375 C25.721361 5.088543 27.041660 5.265625 28.406250 5.265625 C29.791674 5.265625 31.255201 5.083335 32.796875 4.718750 C34.338549 4.354165 35.864576 3.791670 37.375000 3.031250 L37.375000 25.093750 C35.656241 26.208339 34.013029 26.992185 32.445312 27.445312 C30.877596 27.898440 29.437507 28.125000 28.125000 28.125000 Z M7.515625 18.281250 C6.953122 18.281250 6.492189 18.119793 6.132812 17.796875 C5.773436 17.473957 5.593750 17.057294 5.593750 16.546875 C5.593750 16.161456 5.695311 15.822918 5.898438 15.531250 C6.101564 15.239582 6.380207 15.026042 6.734375 14.890625 C6.734375 14.869792 6.734375 14.848958 6.734375 14.828125 C6.734375 14.807292 6.734375 14.786458 6.734375 14.765625 C6.734375 13.932288 7.031247 13.218753 7.625000 12.625000 C8.218753 12.031247 8.927079 11.734375 9.750000 11.734375 C10.354170 11.734375 10.906248 11.882811 11.406250 12.179688 C11.906252 12.476564 12.286457 12.885414 12.546875 13.406250 C12.963544 13.406250 13.354165 13.549478 13.718750 13.835938 C14.083335 14.122397 14.328124 14.479165 14.453125 14.906250 C14.901044 14.989584 15.270832 15.190103 15.562500 15.507812 C15.854168 15.825522 16.000000 16.203123 16.000000 16.640625 C16.000000 17.161461 15.822918 17.565103 15.468750 17.851562 C15.114582 18.138022 14.630211 18.281250 14.015625 18.281250 Z M7.515625 17.281250 L14.015625 17.281250 C14.380210 17.281250 14.635416 17.229167 14.781250 17.125000 C14.927084 17.020833 15.000000 16.859376 15.000000 16.640625 C15.000000 16.348957 14.856772 16.117188 14.570312 15.945312 C14.283853 15.773437 14.005210 15.687500 13.734375 15.687500 C13.734375 15.437499 13.614585 15.161460 13.375000 14.859375 C13.135415 14.557290 12.822919 14.406250 12.437500 14.406250 C12.312499 14.406250 12.216146 14.408854 12.148438 14.414062 C12.080729 14.419271 11.989584 14.432292 11.875000 14.453125 C11.760416 13.932289 11.507814 13.515627 11.117188 13.203125 C10.726561 12.890623 10.270836 12.734375 9.750000 12.734375 C9.197914 12.734375 8.723960 12.934894 8.328125 13.335938 C7.932290 13.736981 7.734375 14.213539 7.734375 14.765625 C7.734375 14.869792 7.739583 14.992187 7.750000 15.132812 C7.760417 15.273438 7.781250 15.458332 7.812500 15.687500 C7.427081 15.687500 7.127605 15.763020 6.914062 15.914062 C6.700520 16.065105 6.593750 16.276040 6.593750 16.546875 C6.593750 16.776043 6.674478 16.955729 6.835938 17.085938 C6.997397 17.216146 7.223957 17.281250 7.515625 17.281250 Z M23.140625 17.921875 C23.140625 17.046871 22.929690 16.255212 22.507812 15.546875 C22.085935 14.838538 21.520837 14.273440 20.812500 13.851562 C20.104163 13.429685 19.317713 13.218750 18.453125 13.218750 C17.630204 13.218750 16.864587 13.411456 16.156250 13.796875 C15.447913 14.182294 14.875002 14.718747 14.437500 15.406250 L13.656250 14.906250 C14.177086 14.083329 14.861975 13.440106 15.710938 12.976562 C16.559900 12.513019 17.473953 12.281250 18.453125 12.281250 C19.494797 12.281250 20.440100 12.533852 21.289062 13.039062 C22.138025 13.544273 22.815102 14.223954 23.320312 15.078125 C23.825523 15.932296 24.078125 16.880203 24.078125 17.921875 Z M28.125000 26.406250 C29.312506 26.406250 30.507806 26.216148 31.710938 25.835938 C32.914069 25.455727 34.177077 24.869796 35.500000 24.078125 L35.500000 5.578125 C33.093738 6.515630 30.729178 6.984375 28.406250 6.984375 C26.989576 6.984375 25.617194 6.807293 24.289062 6.453125 C22.960931 6.098957 21.664069 5.658857 20.398438 5.132812 C19.132806 4.606768 17.882819 4.083336 16.648438 3.562500 C15.414056 3.041664 14.182298 2.604168 12.953125 2.250000 C11.723952 1.895832 10.489590 1.718750 9.250000 1.718750 C8.052077 1.718750 6.854173 1.906248 5.656250 2.281250 C4.458327 2.656252 3.197923 3.244788 1.875000 4.046875 L1.875000 22.546875 C4.281262 21.609370 6.645822 21.140625 8.968750 21.140625 C10.385424 21.140625 11.757806 21.317707 13.085938 21.671875 C14.414069 22.026043 15.710931 22.463539 16.976562 22.984375 C18.242194 23.505211 19.492181 24.028643 20.726562 24.554688 C21.960944 25.080732 23.192702 25.520832 24.421875 25.875000 C25.651048 26.229168 26.885410 26.406250 28.125000 26.406250 Z M25.343750 16.296875 C25.104165 15.223953 24.648441 14.276046 23.976562 13.453125 C23.304684 12.630204 22.492192 11.984377 21.539062 11.515625 C20.585933 11.046873 19.557297 10.812500 18.453125 10.812500 C17.255202 10.812500 16.135422 11.085935 15.093750 11.632812 C14.052078 12.179690 13.192712 12.942703 12.515625 13.921875 L11.734375 13.390625 C12.494795 12.286453 13.468744 11.424482 14.656250 10.804688 C15.843756 10.184893 17.109368 9.875000 18.453125 9.875000 C19.692715 9.875000 20.854161 10.140622 21.937500 10.671875 C23.020839 11.203128 23.942705 11.934891 24.703125 12.867188 C25.463545 13.799484 25.979165 14.869786 26.250000 16.078125 Z M27.390625 15.750000 C27.057290 14.364576 26.455734 13.143234 25.585938 12.085938 C24.716141 11.028641 23.664069 10.197920 22.429688 9.593750 C21.195306 8.989580 19.869799 8.687500 18.453125 8.687500 C16.932284 8.687500 15.505215 9.026038 14.171875 9.703125 C12.838535 10.380212 11.734379 11.328119 10.859375 12.546875 L10.109375 12.015625 C11.067713 10.671868 12.281243 9.625004 13.750000 8.875000 C15.218757 8.124996 16.786450 7.750000 18.453125 7.750000 C20.015633 7.750000 21.479160 8.088538 22.843750 8.765625 C24.208340 9.442712 25.372391 10.374994 26.335938 11.562500 C27.299484 12.750006 27.963540 14.119784 28.328125 15.671875 Z M22.890625 21.875000 C22.276039 21.875000 21.791668 21.731772 21.437500 21.445312 C21.083332 21.158853 20.906250 20.755211 20.906250 20.234375 C20.906250 19.796873 21.052082 19.419272 21.343750 19.101562 C21.635418 18.783853 22.005206 18.583334 22.453125 18.500000 C22.578126 18.072915 22.822915 17.716147 23.187500 17.429688 C23.552085 17.143228 23.942706 17.000000 24.359375 17.000000 C24.630210 16.479164 25.013018 16.070314 25.507812 15.773438 C26.002607 15.476561 26.552080 15.328125 27.156250 15.328125 C27.989588 15.328125 28.700518 15.624997 29.289062 16.218750 C29.877607 16.812503 30.171875 17.526038 30.171875 18.359375 C30.171875 18.380208 30.171875 18.401042 30.171875 18.421875 C30.171875 18.442708 30.171875 18.463542 30.171875 18.484375 C30.526043 18.619792 30.804686 18.833332 31.007812 19.125000 C31.210939 19.416668 31.312500 19.755206 31.312500 20.140625 C31.312500 20.651044 31.132814 21.067707 30.773438 21.390625 C30.414061 21.713543 29.953128 21.875000 29.390625 21.875000 Z M22.890625 20.875000 L29.390625 20.875000 C29.682293 20.875000 29.908853 20.809896 30.070312 20.679688 C30.231772 20.549479 30.312500 20.369793 30.312500 20.140625 C30.312500 19.869790 30.208334 19.661459 30.000000 19.515625 C29.791666 19.369791 29.489585 19.291667 29.093750 19.281250 C29.125000 19.052082 29.145833 18.867188 29.156250 18.726562 C29.166667 18.585937 29.171875 18.463542 29.171875 18.359375 C29.171875 17.807289 28.973960 17.330731 28.578125 16.929688 C28.182290 16.528644 27.708336 16.328125 27.156250 16.328125 C26.645831 16.328125 26.192710 16.484373 25.796875 16.796875 C25.401040 17.109377 25.145834 17.526039 25.031250 18.046875 C24.927083 18.026042 24.838542 18.013021 24.765625 18.007812 C24.692708 18.002604 24.593751 18.000000 24.468750 18.000000 C24.083331 18.000000 23.770835 18.151040 23.531250 18.453125 C23.291665 18.755210 23.171875 19.031249 23.171875 19.281250 C22.901040 19.281250 22.622397 19.367187 22.335938 19.539062 C22.049478 19.710938 21.906250 19.942707 21.906250 20.234375 C21.906250 20.453126 21.981770 20.614583 22.132812 20.718750 C22.283855 20.822917 22.536457 20.875000 22.890625 20.875000 Z M39.000000 25.000000" /></svg>