<svg version="1.1" xmlns="http://www.w3.org/2000/svg" style="fill:rgba(0,0,0,1.0)" width="256" height="256" viewBox="0 0 38.9755068642536 32.8125"><path fill="rgb(255, 255, 255)" d="M27.125000 32.750000 L25.406250 32.625000 C25.437500 32.083331 25.463542 31.635418 25.484375 31.281250 C25.505208 30.927082 25.518229 30.622397 25.523438 30.367188 C25.528646 30.111978 25.531250 29.880209 25.531250 29.671875 C25.531250 29.317707 25.526042 29.010418 25.515625 28.750000 C25.505208 28.489582 25.473959 28.182293 25.421875 27.828125 C25.401042 27.671874 25.265626 27.497397 25.015625 27.304688 C24.765624 27.111978 24.468752 26.864585 24.125000 26.562500 C23.781248 26.260415 23.463543 25.864586 23.171875 25.375000 C22.859373 24.833331 22.648438 24.309898 22.539062 23.804688 C22.429687 23.299477 22.317709 22.859377 22.203125 22.484375 C22.088541 22.109373 21.859377 21.843751 21.515625 21.687500 L20.875000 21.390625 C20.416664 21.182291 20.065105 20.898439 19.820312 20.539062 C19.575520 20.179686 19.453125 19.796877 19.453125 19.390625 C19.453125 18.807289 19.687498 18.354168 20.156250 18.031250 C20.625002 17.708332 21.239580 17.546875 22.000000 17.546875 C22.447919 17.546875 22.874998 17.601562 23.281250 17.710938 C23.687502 17.820313 24.052082 17.999999 24.375000 18.250000 L24.703125 18.500000 L24.703125 10.531250 C24.703125 9.947914 24.906248 9.460939 25.312500 9.070312 C25.718752 8.679686 26.213539 8.484375 26.796875 8.484375 C27.421878 8.484375 27.994789 8.718748 28.515625 9.187500 L27.453125 10.343750 C27.255207 10.145832 27.036460 10.046875 26.796875 10.046875 C26.640624 10.046875 26.513021 10.091145 26.414062 10.179688 C26.315104 10.268230 26.265625 10.385416 26.265625 10.531250 L26.265625 19.484375 C27.484381 19.588542 28.513017 19.984372 29.351562 20.671875 C30.190108 21.359378 30.838539 22.343744 31.296875 23.625000 L29.828125 24.156250 C29.432290 23.062495 28.893233 22.265628 28.210938 21.765625 C27.528642 21.265622 26.635422 21.015625 25.531250 21.015625 C25.302082 21.015625 25.091147 20.955730 24.898438 20.835938 C24.705728 20.716145 24.463543 20.505210 24.171875 20.203125 C23.786456 19.786456 23.434897 19.500001 23.117188 19.343750 C22.799478 19.187499 22.427085 19.109375 22.000000 19.109375 C21.447914 19.109375 21.171875 19.223957 21.171875 19.453125 C21.171875 19.640626 21.333332 19.807291 21.656250 19.953125 L22.328125 20.250000 C22.932295 20.510418 23.356770 20.911456 23.601562 21.453125 C23.846355 21.994794 24.031249 22.557289 24.156250 23.140625 C24.281251 23.723961 24.453124 24.208331 24.671875 24.593750 C24.880209 24.947918 25.171873 25.273436 25.546875 25.570312 C25.921877 25.867189 26.270832 26.174478 26.593750 26.492188 C26.916668 26.809897 27.098958 27.192706 27.140625 27.640625 C27.182292 28.026044 27.210937 28.364582 27.226562 28.656250 C27.242188 28.947918 27.250000 29.286456 27.250000 29.671875 C27.250000 30.026043 27.242188 30.421873 27.226562 30.859375 C27.210937 31.296877 27.177084 31.927079 27.125000 32.750000 Z M3.515625 32.812500 L1.828125 32.562500 C1.911459 31.697912 1.973958 30.973961 2.015625 30.390625 C2.057292 29.807289 2.078125 29.250003 2.078125 28.718750 C2.078125 28.229164 2.062500 27.781252 2.031250 27.375000 C1.364580 26.437495 0.859377 25.502609 0.515625 24.570312 C0.171873 23.638016 0.020833 22.791670 0.062500 22.031250 L0.609375 12.859375 C0.651042 12.182288 0.893227 11.617190 1.335938 11.164062 C1.778648 10.710935 2.291664 10.484375 2.875000 10.484375 C3.312502 10.484375 3.666665 10.572916 3.937500 10.750000 L3.484375 12.265625 C3.276041 12.119791 3.093751 12.046875 2.937500 12.046875 C2.562498 12.046875 2.359375 12.348955 2.328125 12.953125 L1.781250 22.125000 C1.739583 22.750003 1.885415 23.468746 2.218750 24.281250 C2.552085 25.093754 3.046872 25.932287 3.703125 26.796875 C3.734375 27.088543 3.757812 27.393228 3.773438 27.710938 C3.789063 28.028647 3.796875 28.364582 3.796875 28.718750 C3.796875 29.291670 3.773438 29.888018 3.726562 30.507812 C3.679687 31.127607 3.609375 31.895829 3.515625 32.812500 Z M10.312500 32.750000 C10.270833 31.927079 10.239583 31.296877 10.218750 30.859375 C10.197917 30.421873 10.187500 30.026043 10.187500 29.671875 C10.187500 29.286456 10.195312 28.947918 10.210938 28.656250 C10.226563 28.364582 10.255208 28.026044 10.296875 27.640625 C10.348959 27.192706 10.533853 26.809897 10.851562 26.492188 C11.169272 26.174478 11.515623 25.867189 11.890625 25.570312 C12.265627 25.273436 12.557291 24.947918 12.765625 24.593750 C12.994793 24.208331 13.169270 23.723961 13.289062 23.140625 C13.408855 22.557289 13.593749 21.994794 13.843750 21.453125 C14.093751 20.911456 14.515622 20.510418 15.109375 20.250000 L15.781250 19.953125 C16.104168 19.807291 16.265625 19.640626 16.265625 19.453125 C16.265625 19.223957 15.989586 19.109375 15.437500 19.109375 C15.010415 19.109375 14.640627 19.187499 14.328125 19.343750 C14.015623 19.500001 13.661460 19.786456 13.265625 20.203125 C12.973957 20.505210 12.731772 20.716145 12.539062 20.835938 C12.346353 20.955730 12.135418 21.015625 11.906250 21.015625 C10.802078 21.015625 9.908858 21.265622 9.226562 21.765625 C8.544267 22.265628 8.005210 23.062495 7.609375 24.156250 L6.140625 23.625000 C6.598961 22.343744 7.247392 21.359378 8.085938 20.671875 C8.924483 19.984372 9.953119 19.588542 11.171875 19.484375 L11.171875 10.531250 C11.171875 10.385416 11.122396 10.268230 11.023438 10.179688 C10.924479 10.091145 10.796876 10.046875 10.640625 10.046875 C10.401040 10.046875 10.182293 10.145832 9.984375 10.343750 L8.921875 9.187500 C9.442711 8.718748 10.015622 8.484375 10.640625 8.484375 C11.223961 8.484375 11.718748 8.679686 12.125000 9.070312 C12.531252 9.460939 12.734375 9.947914 12.734375 10.531250 L12.734375 18.500000 L13.062500 18.250000 C13.395835 17.999999 13.763019 17.820313 14.164062 17.710938 C14.565106 17.601562 14.989581 17.546875 15.437500 17.546875 C16.197920 17.546875 16.812498 17.708332 17.281250 18.031250 C17.750002 18.354168 17.984375 18.807289 17.984375 19.390625 C17.984375 19.796877 17.861980 20.179686 17.617188 20.539062 C17.372395 20.898439 17.020836 21.182291 16.562500 21.390625 L15.921875 21.687500 C15.588540 21.843751 15.361980 22.109373 15.242188 22.484375 C15.122395 22.859377 15.010417 23.299477 14.906250 23.804688 C14.802083 24.309898 14.588543 24.833331 14.265625 25.375000 C13.973957 25.864586 13.656252 26.260415 13.312500 26.562500 C12.968748 26.864585 12.671876 27.111978 12.421875 27.304688 C12.171874 27.497397 12.036458 27.671874 12.015625 27.828125 C11.973958 28.182293 11.945313 28.489582 11.929688 28.750000 C11.914062 29.010418 11.906250 29.317707 11.906250 29.671875 C11.906250 29.880209 11.908854 30.111978 11.914062 30.367188 C11.919271 30.622397 11.932292 30.927082 11.953125 31.281250 C11.973958 31.635418 12.000000 32.083331 12.031250 32.625000 Z M3.203125 18.437500 L3.203125 10.515625 C3.203125 9.838538 3.408852 9.283856 3.820312 8.851562 C4.231773 8.419269 4.765622 8.203125 5.421875 8.203125 C6.119795 8.203125 6.677081 8.442706 7.093750 8.921875 L5.937500 9.953125 C5.812499 9.828124 5.640626 9.765625 5.421875 9.765625 C4.984373 9.765625 4.765625 10.015622 4.765625 10.515625 L4.765625 18.437500 Z M3.703125 19.671875 L2.921875 18.500000 C3.442711 18.104165 3.942706 17.783855 4.421875 17.539062 C4.901044 17.294270 5.380206 17.088542 5.859375 16.921875 L5.859375 8.562500 C5.859375 7.947914 6.065102 7.419273 6.476562 6.976562 C6.888023 6.533852 7.385414 6.312500 7.968750 6.312500 C8.562503 6.312500 9.062498 6.518227 9.468750 6.929688 C9.875002 7.341148 10.078125 7.854164 10.078125 8.468750 L10.078125 17.609375 C8.984370 17.609375 7.908859 17.760415 6.851562 18.062500 C5.794266 18.364585 4.744797 18.901038 3.703125 19.671875 Z M7.421875 16.500000 C7.609376 16.468750 7.791666 16.440104 7.968750 16.414062 C8.145834 16.388021 8.328124 16.369792 8.515625 16.359375 L8.515625 8.468750 C8.515625 8.291666 8.466146 8.148438 8.367188 8.039062 C8.268229 7.929687 8.135417 7.875000 7.968750 7.875000 C7.822916 7.875000 7.695313 7.942708 7.585938 8.078125 C7.476562 8.213542 7.421875 8.374999 7.421875 8.562500 Z M14.609375 7.296875 L11.468750 3.296875 L12.687500 2.328125 L15.828125 6.328125 Z M33.921875 32.812500 C33.828125 31.895829 33.757813 31.127607 33.710938 30.507812 C33.664062 29.888018 33.640625 29.291670 33.640625 28.718750 C33.640625 28.364582 33.648437 28.028647 33.664062 27.710938 C33.679688 27.393228 33.703125 27.088543 33.734375 26.796875 C34.390628 25.932287 34.885415 25.093754 35.218750 24.281250 C35.552085 23.468746 35.697917 22.750003 35.656250 22.125000 L35.109375 12.953125 C35.078125 12.348955 34.875002 12.046875 34.500000 12.046875 C34.343749 12.046875 34.161459 12.119791 33.953125 12.265625 L33.500000 10.750000 C33.770835 10.572916 34.124998 10.484375 34.562500 10.484375 C35.145836 10.484375 35.658852 10.710935 36.101562 11.164062 C36.544273 11.617190 36.786458 12.182288 36.828125 12.859375 L37.375000 22.031250 C37.427084 22.791670 37.281252 23.638016 36.937500 24.570312 C36.593748 25.502609 36.083337 26.437495 35.406250 27.375000 C35.375000 27.781252 35.359375 28.229164 35.359375 28.718750 C35.359375 29.250003 35.380208 29.807289 35.421875 30.390625 C35.463542 30.973961 35.526041 31.697912 35.609375 32.562500 Z M17.937500 5.937500 L17.937500 -0.000000 L19.500000 -0.000000 L19.500000 5.937500 Z M30.015625 16.500000 L30.015625 8.562500 C30.015625 8.374999 29.960938 8.213542 29.851562 8.078125 C29.742187 7.942708 29.614584 7.875000 29.468750 7.875000 C29.302082 7.875000 29.169271 7.929687 29.070312 8.039062 C28.971354 8.148438 28.921875 8.291666 28.921875 8.468750 L28.921875 16.359375 C29.109376 16.369792 29.291666 16.388021 29.468750 16.414062 C29.645834 16.440104 29.828124 16.468750 30.015625 16.500000 Z M33.734375 19.671875 C32.692703 18.901038 31.643234 18.364585 30.585938 18.062500 C29.528641 17.760415 28.453130 17.609375 27.359375 17.609375 L27.359375 8.468750 C27.359375 7.854164 27.562498 7.341148 27.968750 6.929688 C28.375002 6.518227 28.874997 6.312500 29.468750 6.312500 C30.052086 6.312500 30.549477 6.533852 30.960938 6.976562 C31.372398 7.419273 31.578125 7.947914 31.578125 8.562500 L31.578125 16.921875 C32.057294 17.088542 32.536456 17.294270 33.015625 17.539062 C33.494794 17.783855 33.994789 18.104165 34.515625 18.500000 Z M32.671875 18.437500 L32.671875 10.515625 C32.671875 10.015622 32.453127 9.765625 32.015625 9.765625 C31.796874 9.765625 31.625001 9.828124 31.500000 9.953125 L30.343750 8.921875 C30.760419 8.442706 31.317705 8.203125 32.015625 8.203125 C32.671878 8.203125 33.205727 8.419269 33.617188 8.851562 C34.028648 9.283856 34.234375 9.838538 34.234375 10.515625 L34.234375 18.437500 Z M22.828125 7.296875 L21.609375 6.328125 L24.750000 2.328125 L25.968750 3.296875 Z M39.031250 27.343750" /></svg>