<svg version="1.1" xmlns="http://www.w3.org/2000/svg" style="fill:rgba(0,0,0,1.0)" width="256" height="256" viewBox="0 0 35.25 32.81284722886152"><path fill="rgb(255, 255, 255)" d="M4.718750 32.812847 C3.979163 32.812847 3.250004 32.531600 2.531250 31.969097 L1.406250 31.094097 C0.468745 30.364927 0.000000 29.599310 0.000000 28.797222 C0.000000 28.307636 0.177082 27.833683 0.531250 27.375347 L11.328125 13.422222 C11.619793 13.057637 11.890624 12.763369 12.140625 12.539410 C12.390626 12.315450 12.645832 12.114931 12.906250 11.937847 L15.484375 10.172222 L19.765625 14.406597 L16.671875 16.953472 C16.567708 17.036806 16.473959 17.122743 16.390625 17.211285 C16.307291 17.299827 16.229167 17.396180 16.156250 17.500347 L6.453125 31.906597 C6.046873 32.510767 5.468754 32.812847 4.718750 32.812847 Z M4.718750 31.234722 C4.937501 31.234722 5.124999 31.114932 5.281250 30.875347 L14.875000 16.594097 C15.000001 16.406596 15.148437 16.234723 15.320312 16.078472 C15.492188 15.922221 15.640624 15.792014 15.765625 15.687847 L17.843750 13.969097 L15.718750 11.859722 L14.015625 13.000347 C13.828124 13.125348 13.604168 13.305034 13.343750 13.539410 C13.083332 13.773786 12.817710 14.068054 12.546875 14.422222 L1.750000 28.344097 C1.624999 28.521181 1.562500 28.677430 1.562500 28.812847 C1.562500 29.114932 1.822914 29.458679 2.343750 29.844097 L3.500000 30.719097 C3.958336 31.062849 4.364582 31.234722 4.718750 31.234722 Z M24.531250 14.531597 L14.812500 5.078472 L15.656250 4.578472 L25.375000 14.031597 Z M22.328125 18.344097 L11.359375 7.734722 C10.890623 7.276387 10.653646 6.799829 10.648438 6.305035 C10.643229 5.810241 10.869789 5.328475 11.328125 4.859722 L15.343750 0.719097 C15.802086 0.250345 16.276039 0.010764 16.765625 0.000347 C17.255211 -0.010069 17.734373 0.213887 18.203125 0.672222 L29.171875 11.297222 C29.640627 11.755558 29.877604 12.226907 29.882812 12.711285 C29.888021 13.195662 29.661461 13.677428 29.203125 14.156597 L25.187500 18.312847 C24.739581 18.792016 24.268232 19.031597 23.773438 19.031597 C23.278643 19.031597 22.796877 18.802433 22.328125 18.344097 Z M22.968750 16.781597 C23.218751 17.021182 23.479165 17.140972 23.750000 17.140972 C24.020835 17.140972 24.276040 17.015973 24.515625 16.765972 L27.640625 13.515972 C27.880210 13.265971 28.000000 13.005557 28.000000 12.734722 C28.000000 12.463888 27.875001 12.208682 27.625000 11.969097 L17.562500 2.250347 C17.312499 2.010763 17.052085 1.890972 16.781250 1.890972 C16.510415 1.890972 16.255210 2.015971 16.015625 2.265972 L12.890625 5.500347 C12.651040 5.750348 12.531250 6.010763 12.531250 6.281597 C12.531250 6.552432 12.656249 6.807638 12.906250 7.047222 Z M26.109375 13.609722 L15.875000 3.625347 L16.875000 2.703472 L27.062500 12.640972 Z M23.359375 15.719097 L13.640625 6.265972 L14.484375 5.765972 L24.203125 15.219097 Z M35.250000 27.344097" /></svg>