<svg version="1.1" xmlns="http://www.w3.org/2000/svg" style="fill:rgba(0,0,0,1.0)" width="256" height="256" viewBox="0 0 31.5625 32.8125"><path fill="rgb(255, 255, 255)" d="M11.250000 31.093750 C9.927077 31.093750 8.601569 30.953126 7.273438 30.671875 C5.945306 30.390624 4.731776 29.924482 3.632812 29.273438 C2.533849 28.622393 1.653649 27.752610 0.992188 26.664062 C0.330726 25.575515 0.000000 24.229175 0.000000 22.625000 L0.000000 9.781250 C0.000000 8.364576 0.330726 7.062506 0.992188 5.875000 C1.653649 4.687494 2.546869 3.713545 3.671875 2.953125 C4.796881 2.192705 6.057285 1.750001 7.453125 1.625000 L8.093750 3.312500 C6.927078 3.354167 5.872401 3.661455 4.929688 4.234375 C3.986974 4.807295 3.242190 5.572912 2.695312 6.531250 C2.148435 7.489588 1.875000 8.572911 1.875000 9.781250 L1.875000 22.609375 C1.875000 24.005215 2.156247 25.138016 2.718750 26.007812 C3.281253 26.877609 4.023433 27.544269 4.945312 28.007812 C5.867192 28.471356 6.877599 28.789062 7.976562 28.960938 C9.075526 29.132813 10.166661 29.218750 11.250000 29.218750 C12.333339 29.218750 13.424474 29.132813 14.523438 28.960938 C15.622401 28.789062 16.632808 28.471356 17.554688 28.007812 C18.476567 27.544269 19.218747 26.877609 19.781250 26.007812 C20.343753 25.138016 20.625000 24.005215 20.625000 22.609375 L20.625000 9.781250 C20.625000 8.572911 20.351565 7.489588 19.804688 6.531250 C19.257810 5.572912 18.515630 4.807295 17.578125 4.234375 C16.640620 3.661455 15.583339 3.354167 14.406250 3.312500 L15.046875 1.625000 C16.442715 1.750001 17.703119 2.192705 18.828125 2.953125 C19.953131 3.713545 20.846351 4.687494 21.507812 5.875000 C22.169274 7.062506 22.500000 8.364576 22.500000 9.781250 L22.500000 22.625000 C22.500000 24.229175 22.169274 25.575515 21.507812 26.664062 C20.846351 27.752610 19.966151 28.622393 18.867188 29.273438 C17.768224 29.924482 16.554694 30.390624 15.226562 30.671875 C13.898431 30.953126 12.572923 31.093750 11.250000 31.093750 Z M11.250000 32.812500 C10.083328 32.812500 9.156253 32.778646 8.468750 32.710938 C7.781247 32.643229 7.265627 32.552084 6.921875 32.437500 C6.390622 32.260416 6.125000 31.932294 6.125000 31.453125 L6.125000 30.062500 L11.250000 30.218750 L16.375000 30.062500 L16.375000 31.453125 C16.375000 31.932294 16.109378 32.260416 15.578125 32.437500 C15.234373 32.552084 14.718753 32.643229 14.031250 32.710938 C13.343747 32.778646 12.416672 32.812500 11.250000 32.812500 Z M11.250000 26.671875 C9.489575 26.671875 7.763029 26.549480 6.070312 26.304688 C4.377596 26.059895 2.692717 25.713544 1.015625 25.265625 L1.453125 23.640625 C3.057300 24.067710 4.669263 24.393228 6.289062 24.617188 C7.908862 24.841147 9.562492 24.953125 11.250000 24.953125 C12.937508 24.953125 14.591138 24.841147 16.210938 24.617188 C17.830737 24.393228 19.442700 24.067710 21.046875 23.640625 L21.484375 25.265625 C19.817700 25.713544 18.135425 26.059895 16.437500 26.304688 C14.739575 26.549480 13.010425 26.671875 11.250000 26.671875 Z M11.250000 22.218750 C10.052077 22.218750 8.859381 22.166667 7.671875 22.062500 C6.484369 21.958333 5.307298 21.791668 4.140625 21.562500 C2.973952 21.333332 1.822922 21.041668 0.687500 20.687500 L1.203125 19.109375 C2.286464 19.442710 3.380203 19.713541 4.484375 19.921875 C5.588547 20.130209 6.705724 20.278645 7.835938 20.367188 C8.966151 20.455730 10.104161 20.500000 11.250000 20.500000 C12.395839 20.500000 13.533849 20.455730 14.664062 20.367188 C15.794276 20.278645 16.914057 20.130209 18.023438 19.921875 C19.132818 19.713541 20.223953 19.442710 21.296875 19.109375 L21.812500 20.687500 C20.677078 21.041668 19.526048 21.333332 18.359375 21.562500 C17.192702 21.791668 16.018235 21.958333 14.835938 22.062500 C13.653640 22.166667 12.458339 22.218750 11.250000 22.218750 Z M11.250000 17.765625 C10.052077 17.765625 8.859381 17.713542 7.671875 17.609375 C6.484369 17.505208 5.307298 17.341147 4.140625 17.117188 C2.973952 16.893228 1.822922 16.604168 0.687500 16.250000 L1.203125 14.656250 C2.286464 14.989585 3.380203 15.260416 4.484375 15.468750 C5.588547 15.677084 6.705724 15.825520 7.835938 15.914062 C8.966151 16.002605 10.104161 16.046875 11.250000 16.046875 C12.395839 16.046875 13.533849 16.002605 14.664062 15.914062 C15.794276 15.825520 16.914057 15.677084 18.023438 15.468750 C19.132818 15.260416 20.223953 14.989585 21.296875 14.656250 L21.812500 16.250000 C20.677078 16.604168 19.526048 16.893228 18.359375 17.117188 C17.192702 17.341147 16.018235 17.505208 14.835938 17.609375 C13.653640 17.713542 12.458339 17.765625 11.250000 17.765625 Z M11.250000 13.312500 C10.062494 13.312500 8.877610 13.260417 7.695312 13.156250 C6.513015 13.052083 5.343756 12.888022 4.187500 12.664062 C3.031244 12.440103 1.890631 12.156252 0.765625 11.812500 L1.281250 10.218750 C2.354172 10.552085 3.440099 10.820311 4.539062 11.023438 C5.638026 11.226564 6.747390 11.372395 7.867188 11.460938 C8.986985 11.549480 10.114578 11.593750 11.250000 11.593750 C12.385422 11.593750 13.513015 11.549480 14.632812 11.460938 C15.752610 11.372395 16.861974 11.226564 17.960938 11.023438 C19.059901 10.820311 20.145828 10.552085 21.218750 10.218750 L21.734375 11.812500 C20.609369 12.156252 19.468756 12.440103 18.312500 12.664062 C17.156244 12.888022 15.989589 13.052083 14.812500 13.156250 C13.635411 13.260417 12.447923 13.312500 11.250000 13.312500 Z M11.250000 8.859375 C9.583325 8.859375 7.937508 8.755209 6.312500 8.546875 C4.687492 8.338541 3.083341 8.010419 1.500000 7.562500 L1.937500 5.953125 C3.447924 6.380210 4.979159 6.684895 6.531250 6.867188 C8.083341 7.049480 9.656242 7.140625 11.250000 7.140625 C12.843758 7.140625 14.416659 7.049480 15.968750 6.867188 C17.520841 6.684895 19.052076 6.380210 20.562500 5.953125 L21.000000 7.562500 C19.427075 8.010419 17.828133 8.338541 16.203125 8.546875 C14.578117 8.755209 12.927092 8.859375 11.250000 8.859375 Z M10.046875 2.765625 L10.046875 1.078125 L8.171875 1.078125 L8.171875 2.625000 C8.463543 2.666667 8.776040 2.700521 9.109375 2.726562 C9.442710 2.752604 9.755207 2.765625 10.046875 2.765625 Z M11.250000 3.859375 C10.249995 3.859375 9.354171 3.820313 8.562500 3.742188 C7.770829 3.664062 7.208335 3.572917 6.875000 3.468750 C6.374998 3.312499 6.125000 2.989586 6.125000 2.500000 L6.125000 0.828125 C6.125000 0.598957 6.213541 0.403647 6.390625 0.242188 C6.567709 0.080728 6.786457 -0.000000 7.046875 -0.000000 L15.453125 -0.000000 C15.713543 -0.000000 15.932291 0.080728 16.109375 0.242188 C16.286459 0.403647 16.375000 0.598957 16.375000 0.828125 L16.375000 2.500000 C16.375000 2.989586 16.125002 3.312499 15.625000 3.468750 C15.291665 3.572917 14.729171 3.664062 13.937500 3.742188 C13.145829 3.820313 12.250005 3.859375 11.250000 3.859375 Z M31.562500 27.343750" /></svg>