<svg version="1.1" xmlns="http://www.w3.org/2000/svg" style="fill:rgba(0,0,0,1.0)" width="256" height="256" viewBox="0 0 36.875 32.8125"><path fill="rgb(255, 255, 255)" d="M16.562500 32.812500 C14.187488 32.812500 11.992198 32.403650 9.976562 31.585938 C7.960927 30.768225 6.208341 29.619799 4.718750 28.140625 C3.229159 26.661451 2.070317 24.924489 1.242188 22.929688 C0.414058 20.934886 0.000000 18.760428 0.000000 16.406250 C0.000000 14.052072 0.414058 11.877614 1.242188 9.882812 C2.070317 7.888011 3.229159 6.151049 4.718750 4.671875 C6.208341 3.192701 7.960927 2.044275 9.976562 1.226562 C11.992198 0.408850 14.187488 -0.000000 16.562500 -0.000000 C18.937512 -0.000000 21.132802 0.408850 23.148438 1.226562 C25.164073 2.044275 26.916659 3.192701 28.406250 4.671875 C29.895841 6.151049 31.054683 7.888011 31.882812 9.882812 C32.710942 11.877614 33.125000 14.052072 33.125000 16.406250 C33.125000 18.760428 32.710942 20.934886 31.882812 22.929688 C31.054683 24.924489 29.895841 26.661451 28.406250 28.140625 C26.916659 29.619799 25.164073 30.768225 23.148438 31.585938 C21.132802 32.403650 18.937512 32.812500 16.562500 32.812500 Z M16.562500 26.593750 C15.677079 26.593750 14.778650 26.390627 13.867188 25.984375 C12.955725 25.578123 12.052088 24.979171 11.156250 24.187500 L12.281250 22.906250 C13.020837 23.562503 13.747392 24.054686 14.460938 24.382812 C15.174483 24.710939 15.874997 24.875000 16.562500 24.875000 C17.250003 24.875000 17.950517 24.710939 18.664062 24.382812 C19.377608 24.054686 20.104163 23.562503 20.843750 22.906250 L21.968750 24.187500 C21.072912 24.979171 20.169275 25.578123 19.257812 25.984375 C18.346350 26.390627 17.447921 26.593750 16.562500 26.593750 Z M10.281250 17.328125 C9.583330 17.328125 8.901045 17.169272 8.234375 16.851562 C7.567705 16.533853 6.958336 16.057295 6.406250 15.421875 L7.593750 14.390625 C8.375004 15.307296 9.270828 15.765625 10.281250 15.765625 C11.291672 15.765625 12.187496 15.307296 12.968750 14.390625 L14.156250 15.421875 C13.614581 16.057295 13.007816 16.533853 12.335938 16.851562 C11.664059 17.169272 10.979170 17.328125 10.281250 17.328125 Z M6.593750 11.500000 L5.375000 10.546875 C6.750007 8.776033 8.640613 7.807292 11.046875 7.640625 L11.312500 9.187500 C9.322907 9.291667 7.750006 10.062493 6.593750 11.500000 Z M16.562500 31.093750 C18.677094 31.093750 20.627595 30.726566 22.414062 29.992188 C24.200530 29.257809 25.752598 28.231777 27.070312 26.914062 C28.388027 25.596348 29.414059 24.041676 30.148438 22.250000 C30.882816 20.458324 31.250000 18.510427 31.250000 16.406250 C31.250000 14.291656 30.882816 12.341155 30.148438 10.554688 C29.414059 8.768220 28.388027 7.216152 27.070312 5.898438 C25.752598 4.580723 24.200530 3.554691 22.414062 2.820312 C20.627595 2.085934 18.677094 1.718750 16.562500 1.718750 C14.458323 1.718750 12.513030 2.085934 10.726562 2.820312 C8.940095 3.554691 7.385423 4.580723 6.062500 5.898438 C4.739577 7.216152 3.710941 8.768220 2.976562 10.554688 C2.242184 12.341155 1.875000 14.291656 1.875000 16.406250 C1.875000 18.510427 2.242184 20.458324 2.976562 22.250000 C3.710941 24.041676 4.736973 25.596348 6.054688 26.914062 C7.372402 28.231777 8.927074 29.257809 10.718750 29.992188 C12.510426 30.726566 14.458323 31.093750 16.562500 31.093750 Z M22.843750 17.328125 C21.406243 17.328125 20.114589 16.692715 18.968750 15.421875 L20.156250 14.390625 C20.937504 15.307296 21.833328 15.765625 22.843750 15.765625 C23.854172 15.765625 24.749996 15.307296 25.531250 14.390625 L26.718750 15.421875 C26.177081 16.057295 25.570316 16.533853 24.898438 16.851562 C24.226559 17.169272 23.541670 17.328125 22.843750 17.328125 Z M26.531250 11.500000 C25.374994 10.062493 23.802093 9.291667 21.812500 9.187500 L22.078125 7.640625 C24.484387 7.807292 26.374993 8.776033 27.750000 10.546875 Z M36.875000 27.343750" /></svg>