<svg version="1.1" xmlns="http://www.w3.org/2000/svg" style="fill:rgba(0,0,0,1.0)" width="256" height="256" viewBox="0 0 33.53125 32.8125"><path fill="rgb(255, 255, 255)" d="M17.140625 6.906250 L16.078125 8.437500 C15.713540 8.187499 15.289065 8.005209 14.804688 7.890625 C14.320310 7.776041 13.786461 7.718750 13.203125 7.718750 C12.630205 7.718750 12.098961 7.776041 11.609375 7.890625 C11.119789 8.005209 10.692710 8.187499 10.328125 8.437500 L9.265625 6.906250 C9.786461 6.541665 10.385413 6.273438 11.062500 6.101562 C11.739587 5.929687 12.453121 5.843750 13.203125 5.843750 C13.953129 5.843750 14.666663 5.929687 15.343750 6.101562 C16.020837 6.273438 16.619789 6.541665 17.140625 6.906250 Z M13.859375 26.531250 C12.661452 27.697922 11.367194 28.812495 9.976562 29.875000 C8.585931 30.937505 7.109383 31.916662 5.546875 32.812500 L0.000000 26.421875 C1.510424 25.390620 2.994784 24.343755 4.453125 23.281250 C5.911466 22.218745 7.281244 21.114589 8.562500 19.968750 L9.484375 21.609375 C8.442703 22.526046 7.354172 23.414058 6.218750 24.273438 C5.083328 25.132817 3.937506 25.963538 2.781250 26.765625 L5.937500 30.390625 C7.177090 29.609371 8.354161 28.776046 9.468750 27.890625 C10.583339 27.005204 11.630203 26.083338 12.609375 25.125000 Z M12.515625 15.687500 C13.567714 14.270826 14.401039 12.765633 15.015625 11.171875 C15.630211 9.578117 15.937500 7.854176 15.937500 6.000000 C15.937500 5.239580 15.875001 4.486983 15.750000 3.742188 C15.624999 2.997392 15.453126 2.354169 15.234375 1.812500 L16.984375 1.125000 C17.182293 1.625003 17.369791 2.304683 17.546875 3.164062 C17.723959 4.023442 17.812500 4.968745 17.812500 6.000000 C17.812500 8.156261 17.437504 10.153637 16.687500 11.992188 C15.937496 13.830738 14.942715 15.552075 13.703125 17.156250 Z M16.687500 20.265625 C17.979173 18.380199 18.976559 16.484385 19.679688 14.578125 C20.382816 12.671865 20.734375 10.932300 20.734375 9.359375 C20.734375 8.307286 20.531252 7.328130 20.125000 6.421875 C19.718748 5.515620 19.161462 4.721358 18.453125 4.039062 C17.744788 3.356767 16.940109 2.825523 16.039062 2.445312 C15.138016 2.065102 14.192713 1.875000 13.203125 1.875000 C12.213537 1.875000 11.268234 2.065102 10.367188 2.445312 C9.466141 2.825523 8.661462 3.356767 7.953125 4.039062 C7.244788 4.721358 6.687502 5.515620 6.281250 6.421875 C5.874998 7.328130 5.671875 8.307286 5.671875 9.359375 C5.671875 11.078134 6.023434 12.872386 6.726562 14.742188 C7.429691 16.611989 8.432285 18.479157 9.734375 20.343750 C11.036465 22.208343 12.598949 23.997387 14.421875 25.710938 C16.244801 27.424488 18.270822 28.984368 20.500000 30.390625 L23.656250 26.765625 C21.770824 25.453118 19.932301 24.067716 18.140625 22.609375 C16.348949 21.151034 14.734382 19.583342 13.296875 17.906250 C11.859368 16.229158 10.716150 14.406260 9.867188 12.437500 C9.018225 10.468740 8.593750 8.322928 8.593750 6.000000 C8.593750 4.968745 8.682291 4.023442 8.859375 3.164062 C9.036459 2.304683 9.223957 1.625003 9.421875 1.125000 L11.171875 1.812500 C10.953124 2.354169 10.781251 2.997392 10.656250 3.742188 C10.531249 4.486983 10.468750 5.239580 10.468750 6.000000 C10.468750 8.270845 10.914058 10.354157 11.804688 12.250000 C12.695317 14.145843 13.901034 15.911450 15.421875 17.546875 C16.942716 19.182300 18.653636 20.726555 20.554688 22.179688 C22.455739 23.632820 24.416657 25.046868 26.437500 26.421875 L20.890625 32.812500 C18.328112 31.333326 15.997406 29.656259 13.898438 27.781250 C11.799469 25.906241 9.997403 23.927094 8.492188 21.843750 C6.986972 19.760406 5.828129 17.656261 5.015625 15.531250 C4.203121 13.406239 3.796875 11.348968 3.796875 9.359375 C3.796875 8.046868 4.049477 6.822922 4.554688 5.687500 C5.059898 4.552078 5.752600 3.557296 6.632812 2.703125 C7.513025 1.848954 8.515619 1.184898 9.640625 0.710938 C10.765631 0.236977 11.953119 -0.000000 13.203125 -0.000000 C14.453131 -0.000000 15.640619 0.236977 16.765625 0.710938 C17.890631 1.184898 18.893225 1.848954 19.773438 2.703125 C20.653650 3.557296 21.346352 4.552078 21.851562 5.687500 C22.356773 6.822922 22.609375 8.046868 22.609375 9.359375 C22.609375 11.151051 22.216150 13.109364 21.429688 15.234375 C20.643225 17.359386 19.531257 19.453115 18.093750 21.515625 Z M33.531250 27.343750" /></svg>