<svg version="1.1" xmlns="http://www.w3.org/2000/svg" style="fill:rgba(0,0,0,1.0)" width="256" height="256" viewBox="0 0 37.578125 26.5625"><path fill="rgb(255, 255, 255)" d="M10.640625 26.562500 C8.515614 26.562500 6.653654 26.151046 5.054688 25.328125 C3.455721 24.505204 2.213546 23.354174 1.328125 21.875000 C0.442704 20.395826 0.000000 18.682301 0.000000 16.734375 C0.000000 14.494780 0.580723 12.468759 1.742188 10.656250 C2.903652 8.843741 4.515615 7.463546 6.578125 6.515625 L7.562500 6.062500 C9.260425 5.281246 10.627599 4.627607 11.664062 4.101562 C12.700526 3.575518 13.497393 3.119794 14.054688 2.734375 C14.611982 2.348956 15.020832 1.973960 15.281250 1.609375 C15.604168 1.151039 15.960936 0.768231 16.351562 0.460938 C16.742189 0.153644 17.171873 -0.000000 17.640625 -0.000000 C18.432296 -0.000000 19.088539 0.294268 19.609375 0.882812 C20.130211 1.471357 20.390625 2.208329 20.390625 3.093750 C20.390625 3.895837 20.072920 4.690100 19.437500 5.476562 C18.802080 6.263025 17.869798 7.052079 16.640625 7.843750 L16.437500 7.968750 C16.385416 8.010417 16.367187 8.062500 16.382812 8.125000 C16.398438 8.187500 16.437500 8.218750 16.500000 8.218750 L28.515625 8.281250 C29.328129 8.281250 30.020830 8.565101 30.593750 9.132812 C31.166670 9.700524 31.453125 10.390621 31.453125 11.203125 C31.453125 12.015629 31.140628 12.708330 30.515625 13.281250 C29.890622 13.854170 29.171879 14.140625 28.359375 14.140625 L28.359375 12.421875 C28.703127 12.421875 28.992186 12.304689 29.226562 12.070312 C29.460939 11.835936 29.578125 11.546877 29.578125 11.203125 C29.578125 10.869790 29.460939 10.585939 29.226562 10.351562 C28.992186 10.117186 28.703127 10.000000 28.359375 10.000000 L14.781250 9.937500 C14.416665 9.937500 14.106772 9.830730 13.851562 9.617188 C13.596353 9.403645 13.468750 9.119793 13.468750 8.765625 C13.468750 8.328123 13.651040 7.937502 14.015625 7.593750 C14.380210 7.249998 14.880205 6.864585 15.515625 6.437500 C16.630214 5.677080 17.408852 5.065106 17.851562 4.601562 C18.294273 4.138019 18.515625 3.635419 18.515625 3.093750 C18.515625 2.708331 18.440105 2.382814 18.289062 2.117188 C18.138020 1.851561 17.947918 1.718750 17.718750 1.718750 C17.572916 1.718750 17.421876 1.796874 17.265625 1.953125 C17.109374 2.109376 16.901043 2.369790 16.640625 2.734375 C16.348957 3.151044 15.893232 3.583331 15.273438 4.031250 C14.653643 4.479169 13.786464 4.994789 12.671875 5.578125 C11.557286 6.161461 10.098967 6.869788 8.296875 7.703125 L7.312500 8.156250 C5.552075 8.968754 4.205734 10.130201 3.273438 11.640625 C2.341141 13.151049 1.875000 14.848949 1.875000 16.734375 C1.875000 18.369800 2.231767 19.796869 2.945312 21.015625 C3.658858 22.234381 4.674473 23.177080 5.992188 23.843750 C7.309902 24.510420 8.869783 24.843750 10.671875 24.843750 L25.250000 24.843750 C25.583335 24.843750 25.867186 24.726564 26.101562 24.492188 C26.335939 24.257811 26.453125 23.968752 26.453125 23.625000 C26.453125 23.291665 26.335939 23.007814 26.101562 22.773438 C25.867186 22.539061 25.578127 22.421875 25.234375 22.421875 L25.234375 20.703125 C26.046879 20.703125 26.765622 20.986976 27.390625 21.554688 C28.015628 22.122399 28.328125 22.812496 28.328125 23.625000 C28.328125 24.447921 28.039065 25.143226 27.460938 25.710938 C26.882810 26.278649 26.187504 26.562500 25.375000 26.562500 Z M14.718750 24.031250 C13.895829 24.031250 13.484375 23.875002 13.484375 23.562500 C13.484375 23.260415 13.895829 23.109375 14.718750 23.109375 C15.531254 23.109375 15.937500 23.260415 15.937500 23.562500 C15.937500 23.875002 15.531254 24.031250 14.718750 24.031250 Z M14.812500 20.750000 C13.822912 20.750000 13.328125 20.562502 13.328125 20.187500 C13.328125 19.822915 13.822912 19.640625 14.812500 19.640625 C15.802088 19.640625 16.296875 19.822915 16.296875 20.187500 C16.296875 20.562502 15.802088 20.750000 14.812500 20.750000 Z M14.937500 16.468750 C13.864578 16.468750 13.328125 16.265627 13.328125 15.859375 C13.328125 15.463540 13.864578 15.265625 14.937500 15.265625 C16.020839 15.265625 16.562500 15.463540 16.562500 15.859375 C16.562500 16.265627 16.020839 16.468750 14.937500 16.468750 Z M14.687500 12.406250 C13.781245 12.406250 13.328125 12.223960 13.328125 11.859375 C13.328125 11.505207 13.781245 11.328125 14.687500 11.328125 C15.593755 11.328125 16.046875 11.505207 16.046875 11.859375 C16.046875 12.223960 15.593755 12.406250 14.687500 12.406250 Z M18.812500 22.421875 L18.812500 20.703125 L28.453125 20.703125 C28.796877 20.703125 29.085936 20.585939 29.320312 20.351562 C29.554689 20.117186 29.671875 19.828127 29.671875 19.484375 C29.671875 19.151040 29.554689 18.867189 29.320312 18.632812 C29.085936 18.398436 28.796877 18.281250 28.453125 18.281250 L28.453125 16.562500 C29.265629 16.562500 29.984372 16.846351 30.609375 17.414062 C31.234378 17.981774 31.546875 18.671871 31.546875 19.484375 C31.546875 20.296879 31.260420 20.989580 30.687500 21.562500 C30.114580 22.135420 29.421879 22.421875 28.609375 22.421875 Z M18.812500 18.281250 L18.812500 16.562500 L31.437500 16.562500 C31.781252 16.562500 32.070311 16.445314 32.304688 16.210938 C32.539064 15.976561 32.656250 15.687502 32.656250 15.343750 C32.656250 15.010415 32.539064 14.726564 32.304688 14.492188 C32.070311 14.257811 31.786460 14.140625 31.453125 14.140625 L18.812500 14.140625 L18.812500 12.421875 L31.609375 12.421875 C32.421879 12.421875 33.111976 12.705726 33.679688 13.273438 C34.247399 13.841149 34.531250 14.531246 34.531250 15.343750 C34.531250 16.156254 34.244795 16.848955 33.671875 17.421875 C33.098955 17.994795 32.406254 18.281250 31.593750 18.281250 Z M37.578125 24.218750" /></svg>