<svg version="1.1" xmlns="http://www.w3.org/2000/svg" style="fill:rgba(0,0,0,1.0)" width="256" height="256" viewBox="0 0 36.71875 32.8125"><path fill="rgb(255, 255, 255)" d="M2.734375 32.812500 C1.984371 32.812500 1.341149 32.544274 0.804688 32.007812 C0.268226 31.471351 0.000000 30.828129 0.000000 30.078125 L0.000000 2.734375 C0.000000 1.984371 0.268226 1.341149 0.804688 0.804688 C1.341149 0.268226 1.984371 -0.000000 2.734375 -0.000000 L30.062500 -0.000000 C30.812504 -0.000000 31.458331 0.268226 32.000000 0.804688 C32.541669 1.341149 32.812500 1.979163 32.812500 2.718750 L32.812500 30.078125 C32.812500 30.828129 32.544274 31.471351 32.007812 32.007812 C31.471351 32.544274 30.828129 32.812500 30.078125 32.812500 Z M13.890625 28.671875 C15.515633 28.671875 16.960931 28.307295 18.226562 27.578125 C19.492194 26.848955 20.489580 25.846361 21.218750 24.570312 C21.947920 23.294264 22.312500 21.843758 22.312500 20.218750 L22.312500 11.562500 L27.625000 11.562500 L20.140625 3.578125 L12.656250 11.562500 L17.968750 11.562500 L17.968750 20.218750 C17.968750 21.468756 17.598962 22.468746 16.859375 23.218750 C16.119788 23.968754 15.130215 24.343750 13.890625 24.343750 C12.640619 24.343750 11.643233 23.971358 10.898438 23.226562 C10.153642 22.481767 9.781250 21.479173 9.781250 20.218750 L9.781250 17.406250 L5.453125 17.406250 L5.453125 20.218750 C5.453125 21.854175 5.815101 23.309889 6.539062 24.585938 C7.263024 25.861986 8.260410 26.861976 9.531250 27.585938 C10.802090 28.309899 12.255200 28.671875 13.890625 28.671875 Z M36.718750 27.343750" /></svg>