<svg version="1.1" xmlns="http://www.w3.org/2000/svg" style="fill:rgba(0,0,0,1.0)" width="256" height="256" viewBox="0 0 36.71875 32.8125"><path fill="rgb(255, 255, 255)" d="M2.734375 32.812500 C1.984371 32.812500 1.341149 32.544274 0.804688 32.007812 C0.268226 31.471351 0.000000 30.828129 0.000000 30.078125 L0.000000 2.734375 C0.000000 1.984371 0.268226 1.341149 0.804688 0.804688 C1.341149 0.268226 1.984371 -0.000000 2.734375 -0.000000 L30.078125 -0.000000 C30.828129 -0.000000 31.471351 0.268226 32.007812 0.804688 C32.544274 1.341149 32.812500 1.984371 32.812500 2.734375 L32.812500 30.093750 C32.812500 30.833337 32.541669 31.471351 32.000000 32.007812 C31.458331 32.544274 30.812504 32.812500 30.062500 32.812500 Z M11.562500 27.625000 L11.562500 22.312500 L20.453125 22.312500 C22.088550 22.312500 23.541660 21.947920 24.812500 21.218750 C26.083340 20.489580 27.083330 19.489590 27.812500 18.218750 C28.541670 16.947910 28.906250 15.505216 28.906250 13.890625 C28.906250 12.244783 28.544274 10.789069 27.820312 9.523438 C27.096351 8.257806 26.098965 7.263024 24.828125 6.539062 C23.557285 5.815101 22.098967 5.453125 20.453125 5.453125 L12.640625 5.453125 L12.640625 9.781250 L20.453125 9.781250 C21.713548 9.781250 22.716142 10.153642 23.460938 10.898438 C24.205733 11.643233 24.578125 12.640619 24.578125 13.890625 C24.578125 15.119798 24.203129 16.106767 23.453125 16.851562 C22.703121 17.596358 21.703131 17.968750 20.453125 17.968750 L11.562500 17.968750 L11.562500 12.656250 L3.578125 20.140625 Z M36.718750 27.343750" /></svg>