<svg version="1.1" xmlns="http://www.w3.org/2000/svg" style="fill:rgba(0,0,0,1.0)" width="256" height="256" viewBox="0 0 36.875 32.8125"><path fill="rgb(255, 255, 255)" d="M16.562500 32.812500 C18.833345 32.812500 20.968740 32.388025 22.968750 31.539062 C24.968760 30.690100 26.729159 29.515632 28.250000 28.015625 C29.770841 26.515618 30.963537 24.773447 31.828125 22.789062 C32.692713 20.804678 33.125000 18.677095 33.125000 16.406250 C33.125000 14.135405 32.692713 12.007822 31.828125 10.023438 C30.963537 8.039053 29.770841 6.296882 28.250000 4.796875 C26.729159 3.296868 24.968760 2.122400 22.968750 1.273438 C20.968740 0.424475 18.833345 -0.000000 16.562500 -0.000000 C14.291655 -0.000000 12.156260 0.424475 10.156250 1.273438 C8.156240 2.122400 6.395841 3.296868 4.875000 4.796875 C3.354159 6.296882 2.161463 8.039053 1.296875 10.023438 C0.432287 12.007822 0.000000 14.135405 0.000000 16.406250 C0.000000 18.677095 0.432287 20.804678 1.296875 22.789062 C2.161463 24.773447 3.354159 26.515618 4.875000 28.015625 C6.395841 29.515632 8.156240 30.690100 10.156250 31.539062 C12.156260 32.388025 14.291655 32.812500 16.562500 32.812500 Z M13.218750 32.015625 L14.718750 31.609375 C14.468749 30.640620 14.343750 29.661463 14.343750 28.671875 C14.343750 27.088534 14.692705 25.354176 15.390625 23.468750 L13.921875 22.937500 C13.161455 25.000010 12.781250 26.911450 12.781250 28.671875 C12.781250 29.828131 12.927082 30.942703 13.218750 32.015625 Z M1.421875 19.484375 C2.005211 19.213540 2.776037 19.007813 3.734375 18.867188 C4.692713 18.726562 5.703120 18.656250 6.765625 18.656250 C7.255211 18.656250 7.742185 18.671875 8.226562 18.703125 C8.710940 18.734375 9.182289 18.786458 9.640625 18.859375 L9.859375 17.328125 C9.359372 17.255208 8.846357 17.200521 8.320312 17.164062 C7.794268 17.127604 7.265628 17.109375 6.734375 17.109375 C5.567702 17.109375 4.455734 17.190103 3.398438 17.351562 C2.341141 17.513022 1.473962 17.744790 0.796875 18.046875 Z M19.906250 32.015625 C20.197918 30.942703 20.343750 29.828131 20.343750 28.671875 C20.343750 26.911450 19.963545 25.000010 19.203125 22.937500 L17.734375 23.468750 C18.432295 25.354176 18.781250 27.088534 18.781250 28.671875 C18.781250 29.661463 18.656251 30.640620 18.406250 31.609375 Z M9.296875 14.796875 L10.453125 13.765625 C10.036456 13.296873 9.330734 12.937501 8.335938 12.687500 C7.341141 12.437499 6.276047 12.312500 5.140625 12.312500 C4.390621 12.312500 3.653649 12.367187 2.929688 12.476562 C2.205726 12.585938 1.552086 12.760415 0.968750 13.000000 L1.531250 14.437500 C2.010419 14.249999 2.570309 14.111980 3.210938 14.023438 C3.851566 13.934895 4.505205 13.890625 5.171875 13.890625 C6.098963 13.890625 6.953121 13.968749 7.734375 14.125000 C8.515629 14.281251 9.036457 14.505207 9.296875 14.796875 Z M16.562500 31.093750 C14.520823 31.093750 12.611988 30.716150 10.835938 29.960938 C9.059887 29.205725 7.500007 28.156257 6.156250 26.812500 C4.812493 25.468743 3.763025 23.908863 3.007812 22.132812 C2.252600 20.356762 1.875000 18.447927 1.875000 16.406250 C1.875000 14.364573 2.252600 12.455738 3.007812 10.679688 C3.763025 8.903637 4.812493 7.343757 6.156250 6.000000 C7.500007 4.656243 9.059887 3.606775 10.835938 2.851562 C12.611988 2.096350 14.520823 1.718750 16.562500 1.718750 C18.604177 1.718750 20.513012 2.096350 22.289062 2.851562 C24.065113 3.606775 25.624993 4.656243 26.968750 6.000000 C28.312507 7.343757 29.361975 8.903637 30.117188 10.679688 C30.872400 12.455738 31.250000 14.364573 31.250000 16.406250 C31.250000 18.447927 30.872400 20.356762 30.117188 22.132812 C29.361975 23.908863 28.312507 25.468743 26.968750 26.812500 C25.624993 28.156257 24.065113 29.205725 22.289062 29.960938 C20.513012 30.716150 18.604177 31.093750 16.562500 31.093750 Z M16.562500 24.296875 C18.020841 24.296875 19.346348 23.942712 20.539062 23.234375 C21.731777 22.526038 22.682288 21.572923 23.390625 20.375000 C24.098962 19.177077 24.453125 17.854174 24.453125 16.406250 C24.453125 14.947909 24.098962 13.622402 23.390625 12.429688 C22.682288 11.236973 21.731777 10.286462 20.539062 9.578125 C19.346348 8.869788 18.020841 8.515625 16.562500 8.515625 C15.104159 8.515625 13.778652 8.869788 12.585938 9.578125 C11.393223 10.286462 10.442712 11.236973 9.734375 12.429688 C9.026038 13.622402 8.671875 14.947909 8.671875 16.406250 C8.671875 17.864591 9.026038 19.190098 9.734375 20.382812 C10.442712 21.575527 11.395827 22.526038 12.593750 23.234375 C13.791673 23.942712 15.114576 24.296875 16.562500 24.296875 Z M16.562500 22.578125 C15.427078 22.578125 14.403650 22.302086 13.492188 21.750000 C12.580725 21.197914 11.861982 20.453130 11.335938 19.515625 C10.809893 18.578120 10.546875 17.541672 10.546875 16.406250 C10.546875 15.260411 10.809893 14.221359 11.335938 13.289062 C11.861982 12.356766 12.580725 11.614586 13.492188 11.062500 C14.403650 10.510414 15.427078 10.234375 16.562500 10.234375 C17.708339 10.234375 18.734370 10.510414 19.640625 11.062500 C20.546880 11.614586 21.263018 12.356766 21.789062 13.289062 C22.315107 14.221359 22.578125 15.260411 22.578125 16.406250 C22.578125 17.541672 22.315107 18.578120 21.789062 19.515625 C21.263018 20.453130 20.546880 21.197914 19.640625 21.750000 C18.734370 22.302086 17.708339 22.578125 16.562500 22.578125 Z M13.921875 9.875000 L15.390625 9.343750 C14.692705 7.458324 14.343750 5.723966 14.343750 4.140625 C14.343750 3.151037 14.468749 2.171880 14.718750 1.203125 L13.218750 0.796875 C12.927082 1.869797 12.781250 2.984369 12.781250 4.140625 C12.781250 5.901050 13.161455 7.812490 13.921875 9.875000 Z M31.703125 19.484375 L32.328125 18.046875 C31.661455 17.744790 30.796880 17.513022 29.734375 17.351562 C28.671870 17.190103 27.557298 17.109375 26.390625 17.109375 C25.859372 17.109375 25.330732 17.127604 24.804688 17.164062 C24.278643 17.200521 23.765628 17.255208 23.265625 17.328125 L23.484375 18.859375 C23.942711 18.786458 24.416664 18.734375 24.906250 18.703125 C25.395836 18.671875 25.880206 18.656250 26.359375 18.656250 C27.421880 18.656250 28.432287 18.726562 29.390625 18.867188 C30.348963 19.007813 31.119789 19.213540 31.703125 19.484375 Z M19.203125 9.875000 C19.963545 7.812490 20.343750 5.901050 20.343750 4.140625 C20.343750 2.984369 20.197918 1.869797 19.906250 0.796875 L18.406250 1.203125 C18.656251 2.171880 18.781250 3.151037 18.781250 4.140625 C18.781250 5.723966 18.432295 7.458324 17.734375 9.343750 Z M23.828125 14.796875 C24.098960 14.505207 24.624996 14.281251 25.406250 14.125000 C26.187504 13.968749 27.036454 13.890625 27.953125 13.890625 C28.619795 13.890625 29.273434 13.934895 29.914062 14.023438 C30.554691 14.111980 31.114581 14.249999 31.593750 14.437500 L32.156250 13.000000 C31.583330 12.760415 30.932295 12.585938 30.203125 12.476562 C29.473955 12.367187 28.734379 12.312500 27.984375 12.312500 C26.848953 12.312500 25.786463 12.437499 24.796875 12.687500 C23.807287 12.937501 23.098960 13.296873 22.671875 13.765625 Z M36.875000 27.343750" /></svg>