<svg version="1.1" xmlns="http://www.w3.org/2000/svg" style="fill:rgba(0,0,0,1.0)" width="256" height="256" viewBox="0 0 37.46875 32.8125"><path fill="rgb(255, 255, 255)" d="M30.343750 22.859375 L29.109375 21.625000 C29.505210 21.395832 29.778645 21.161460 29.929688 20.921875 C30.080730 20.682290 30.156250 20.401043 30.156250 20.078125 C30.156250 19.546872 30.026043 19.085939 29.765625 18.695312 C29.505207 18.304686 29.057295 17.932293 28.421875 17.578125 C27.786455 17.223957 26.911464 16.843752 25.796875 16.437500 C24.859370 16.093748 23.851568 15.695315 22.773438 15.242188 C21.695307 14.789060 20.640630 14.239587 19.609375 13.593750 C18.921872 13.156248 18.221358 12.622399 17.507812 11.992188 C16.794267 11.361976 16.195315 10.684899 15.710938 9.960938 C15.226560 9.236976 14.984375 8.526045 14.984375 7.828125 C14.984375 7.432290 15.013021 6.979169 15.070312 6.468750 C15.127604 5.958331 15.182291 5.510419 15.234375 5.125000 L13.984375 3.984375 C13.671873 3.296872 13.411459 2.781252 13.203125 2.437500 C12.994791 2.093748 12.781251 1.864584 12.562500 1.750000 C12.343749 1.635416 12.067710 1.578125 11.734375 1.578125 C11.442707 1.578125 11.075523 1.606771 10.632812 1.664062 C10.190102 1.721354 9.708336 1.802083 9.187500 1.906250 C7.552075 2.229168 6.171881 2.471353 5.046875 2.632812 C3.921869 2.794272 3.036462 2.875000 2.390625 2.875000 C2.223958 2.875000 2.088542 2.919270 1.984375 3.007812 C1.880208 3.096355 1.828125 3.213541 1.828125 3.359375 C1.828125 3.796877 2.171872 4.177082 2.859375 4.500000 C2.588540 4.635417 2.377605 4.833332 2.226562 5.093750 C2.075520 5.354168 2.000000 5.661457 2.000000 6.015625 C2.000000 6.296876 2.070312 6.544270 2.210938 6.757812 C2.351563 6.971355 2.567707 7.166666 2.859375 7.343750 C2.640624 7.604168 2.481771 7.846353 2.382812 8.070312 C2.283854 8.294272 2.234375 8.541665 2.234375 8.812500 C2.234375 9.104168 2.312499 9.372395 2.468750 9.617188 C2.625001 9.861980 2.880207 10.109374 3.234375 10.359375 C3.036457 11.651048 2.877605 12.716142 2.757812 13.554688 C2.638020 14.393233 2.544271 15.065102 2.476562 15.570312 C2.408854 16.075523 2.361979 16.471353 2.335938 16.757812 C2.309896 17.044272 2.296875 17.286457 2.296875 17.484375 C2.296875 18.505213 2.460936 19.283851 2.789062 19.820312 C3.117189 20.356774 3.677079 20.864581 4.468750 21.343750 L3.562500 22.687500 C2.239577 21.958330 1.385419 21.161463 1.000000 20.296875 C0.614581 19.432287 0.421875 18.515630 0.421875 17.546875 C0.421875 17.338541 0.432292 17.098960 0.453125 16.828125 C0.473958 16.557290 0.513021 16.179690 0.570312 15.695312 C0.627604 15.210935 0.718749 14.549483 0.843750 13.710938 C0.968751 12.872392 1.130207 11.781257 1.328125 10.437500 C1.036457 10.260416 0.802084 10.039064 0.625000 9.773438 C0.447916 9.507811 0.359375 9.229168 0.359375 8.937500 C0.359375 8.666665 0.432291 8.367189 0.578125 8.039062 C0.723959 7.710936 0.885416 7.479167 1.062500 7.343750 C0.802082 7.229166 0.585938 7.041668 0.414062 6.781250 C0.242187 6.520832 0.156250 6.260418 0.156250 6.000000 C0.156250 5.468747 0.380206 4.979169 0.828125 4.531250 C0.578124 4.354166 0.377605 4.130210 0.226562 3.859375 C0.075520 3.588540 0.000000 3.286460 0.000000 2.953125 C0.000000 2.494789 0.140624 2.122397 0.421875 1.835938 C0.703126 1.549478 1.098956 1.395833 1.609375 1.375000 C2.817714 1.312500 3.979161 1.205730 5.093750 1.054688 C6.208339 0.903645 7.411452 0.687501 8.703125 0.406250 C9.432295 0.249999 9.997394 0.143229 10.398438 0.085938 C10.799481 0.028646 11.171873 -0.000000 11.515625 -0.000000 C12.609380 -0.000000 13.445310 0.244789 14.023438 0.734375 C14.601565 1.223961 14.973958 1.994786 15.140625 3.046875 C15.390626 2.744790 15.705727 2.518230 16.085938 2.367188 C16.466148 2.216145 16.802082 2.140625 17.093750 2.140625 C17.541669 2.140625 17.765625 2.343748 17.765625 2.750000 C17.765625 3.062502 17.718750 3.473956 17.625000 3.984375 C17.531250 4.494794 17.411459 5.020831 17.265625 5.562500 C17.140624 6.010419 17.041667 6.437498 16.968750 6.843750 C16.895833 7.250002 16.859375 7.583332 16.859375 7.843750 C16.859375 8.187502 16.997394 8.562498 17.273438 8.968750 C17.549481 9.375002 17.890623 9.776040 18.296875 10.171875 C18.703127 10.567710 19.117185 10.927082 19.539062 11.250000 C19.960940 11.572918 20.312499 11.822916 20.593750 12.000000 C21.552088 12.593753 22.536453 13.101560 23.546875 13.523438 C24.557297 13.945315 25.526037 14.328123 26.453125 14.671875 C27.838549 15.182294 28.937496 15.695310 29.750000 16.210938 C30.562504 16.726565 31.145832 17.294268 31.500000 17.914062 C31.854168 18.533857 32.031250 19.255204 32.031250 20.078125 C32.031250 20.598961 31.906251 21.098956 31.656250 21.578125 C31.406249 22.057294 30.968753 22.484373 30.343750 22.859375 Z M6.640625 32.812500 C5.859371 32.812500 5.145837 32.622398 4.500000 32.242188 C3.854163 31.861977 3.341148 31.351566 2.960938 30.710938 C2.580727 30.070309 2.390625 29.359379 2.390625 28.578125 C2.390625 27.796871 2.580727 27.085941 2.960938 26.445312 C3.341148 25.804684 3.854163 25.294273 4.500000 24.914062 C5.145837 24.533852 5.859371 24.343750 6.640625 24.343750 C7.421879 24.343750 8.132809 24.533852 8.773438 24.914062 C9.414066 25.294273 9.924477 25.804684 10.304688 26.445312 C10.684898 27.085941 10.875000 27.796871 10.875000 28.578125 C10.875000 29.359379 10.684898 30.070309 10.304688 30.710938 C9.924477 31.351566 9.414066 31.861977 8.773438 32.242188 C8.132809 32.622398 7.421879 32.812500 6.640625 32.812500 Z M6.640625 30.937500 C7.286462 30.937500 7.841144 30.705731 8.304688 30.242188 C8.768231 29.778644 9.000000 29.223962 9.000000 28.578125 C9.000000 27.932288 8.768231 27.377606 8.304688 26.914062 C7.841144 26.450519 7.286462 26.218750 6.640625 26.218750 C5.984372 26.218750 5.424481 26.450519 4.960938 26.914062 C4.497394 27.377606 4.265625 27.932288 4.265625 28.578125 C4.265625 29.223962 4.497394 29.778644 4.960938 30.242188 C5.424481 30.705731 5.984372 30.937500 6.640625 30.937500 Z M13.796875 22.234375 C13.348956 21.203120 12.830732 20.416669 12.242188 19.875000 C11.653643 19.333331 10.976566 18.960939 10.210938 18.757812 C9.445309 18.554686 8.567713 18.453125 7.578125 18.453125 C7.015622 18.453125 6.395837 18.481771 5.718750 18.539062 C5.041663 18.596354 4.416670 18.653646 3.843750 18.710938 C3.270830 18.768229 2.854168 18.796875 2.593750 18.796875 C2.166665 18.796875 1.776043 18.760417 1.421875 18.687500 L1.250000 16.125000 C1.645835 16.218750 2.031248 16.273437 2.406250 16.289062 C2.781252 16.304688 3.239581 16.312500 3.781250 16.312500 C3.979168 16.312500 4.216144 16.309896 4.492188 16.304688 C4.768231 16.299479 5.028645 16.291667 5.273438 16.281250 C5.518230 16.270833 5.697916 16.265625 5.812500 16.265625 C6.697921 16.265625 7.606766 16.343749 8.539062 16.500000 C9.471359 16.656251 10.359371 16.947915 11.203125 17.375000 C12.046879 17.802085 12.781247 18.406246 13.406250 19.187500 C14.031253 19.968754 14.484374 20.984369 14.765625 22.234375 Z M4.218750 26.984375 L1.531250 20.984375 L31.453125 20.984375 L30.937500 23.546875 L28.484375 25.218750 L27.328125 23.640625 L25.359375 26.984375 L22.546875 25.250000 L19.531250 26.984375 L17.656250 23.640625 L11.875000 23.640625 L10.234375 26.984375 L6.437500 25.328125 Z M15.796875 21.984375 C15.432290 20.161449 14.867191 18.718755 14.101562 17.656250 C13.335934 16.593745 12.364589 15.804690 11.187500 15.289062 C10.010411 14.773435 8.609383 14.432292 6.984375 14.265625 C6.067704 14.171875 5.190108 14.059896 4.351562 13.929688 C3.513017 13.799479 2.760420 13.651042 2.093750 13.484375 L2.453125 11.546875 C3.098962 11.776043 3.799475 11.979166 4.554688 12.156250 C5.309900 12.333334 6.098954 12.479166 6.921875 12.593750 C9.088552 12.895835 10.854160 13.406246 12.218750 14.125000 C13.583340 14.843754 14.632809 15.838535 15.367188 17.109375 C16.101566 18.380215 16.604165 20.005198 16.875000 21.984375 Z M22.812500 32.812500 C22.031246 32.812500 21.320316 32.622398 20.679688 32.242188 C20.039059 31.861977 19.526044 31.351566 19.140625 30.710938 C18.755206 30.070309 18.562500 29.359379 18.562500 28.578125 C18.562500 27.796871 18.755206 27.085941 19.140625 26.445312 C19.526044 25.804684 20.039059 25.294273 20.679688 24.914062 C21.320316 24.533852 22.031246 24.343750 22.812500 24.343750 C23.593754 24.343750 24.304684 24.533852 24.945312 24.914062 C25.585941 25.294273 26.096352 25.804684 26.476562 26.445312 C26.856773 27.085941 27.046875 27.796871 27.046875 28.578125 C27.046875 29.359379 26.856773 30.070309 26.476562 30.710938 C26.096352 31.351566 25.585941 31.861977 24.945312 32.242188 C24.304684 32.622398 23.593754 32.812500 22.812500 32.812500 Z M22.812500 30.937500 C23.458337 30.937500 24.013019 30.705731 24.476562 30.242188 C24.940106 29.778644 25.171875 29.223962 25.171875 28.578125 C25.171875 27.932288 24.940106 27.377606 24.476562 26.914062 C24.013019 26.450519 23.458337 26.218750 22.812500 26.218750 C22.156247 26.218750 21.596356 26.450519 21.132812 26.914062 C20.669269 27.377606 20.437500 27.932288 20.437500 28.578125 C20.437500 29.223962 20.669269 29.778644 21.132812 30.242188 C21.596356 30.705731 22.156247 30.937500 22.812500 30.937500 Z M1.828125 10.984375 L1.828125 9.734375 C5.338559 9.734375 8.442695 9.317712 11.140625 8.484375 L11.515625 9.671875 C10.078118 10.119794 8.559904 10.450520 6.960938 10.664062 C5.361971 10.877605 3.651051 10.984375 1.828125 10.984375 Z M1.515625 7.984375 L1.515625 6.734375 C3.296884 6.734375 4.953117 6.630209 6.484375 6.421875 C8.015633 6.213541 9.463535 5.901044 10.828125 5.484375 L11.203125 6.671875 C9.765618 7.119794 8.247404 7.450520 6.648438 7.664062 C5.049471 7.877605 3.338551 7.984375 1.515625 7.984375 Z M1.359375 5.171875 L1.359375 3.921875 C4.869809 3.921875 7.973945 3.505213 10.671875 2.671875 L11.046875 3.859375 C9.609368 4.307294 8.091154 4.638020 6.492188 4.851562 C4.893221 5.065105 3.182301 5.171875 1.359375 5.171875 Z M15.718750 12.140625 C15.437499 12.140625 15.197918 12.041668 15.000000 11.843750 C14.802082 11.645832 14.703125 11.406251 14.703125 11.125000 C14.703125 10.854165 14.802082 10.619793 15.000000 10.421875 C15.197918 10.223957 15.437499 10.125000 15.718750 10.125000 C15.989585 10.125000 16.223957 10.223957 16.421875 10.421875 C16.619793 10.619793 16.718750 10.854165 16.718750 11.125000 C16.718750 11.406251 16.619793 11.645832 16.421875 11.843750 C16.223957 12.041668 15.989585 12.140625 15.718750 12.140625 Z M17.828125 14.156250 C17.546874 14.156250 17.307293 14.057293 17.109375 13.859375 C16.911457 13.661457 16.812500 13.421876 16.812500 13.140625 C16.812500 12.869790 16.911457 12.635418 17.109375 12.437500 C17.307293 12.239582 17.546874 12.140625 17.828125 12.140625 C18.098960 12.140625 18.333332 12.239582 18.531250 12.437500 C18.729168 12.635418 18.828125 12.869790 18.828125 13.140625 C18.828125 13.421876 18.729168 13.661457 18.531250 13.859375 C18.333332 14.057293 18.098960 14.156250 17.828125 14.156250 Z M31.062500 29.203125 C30.895832 29.317709 30.721355 29.354167 30.539062 29.312500 C30.356770 29.270833 30.208334 29.161459 30.093750 28.984375 L28.218750 25.906250 C28.031249 25.593748 28.088540 25.333334 28.390625 25.125000 L30.812500 23.375000 C31.093751 23.166666 31.364582 23.192707 31.625000 23.453125 L34.109375 26.078125 C34.255209 26.234376 34.320313 26.406249 34.304688 26.593750 C34.289062 26.781251 34.192709 26.937499 34.015625 27.062500 Z M20.578125 15.828125 C20.296874 15.828125 20.057293 15.729168 19.859375 15.531250 C19.661457 15.333332 19.562500 15.093751 19.562500 14.812500 C19.562500 14.541665 19.661457 14.307293 19.859375 14.109375 C20.057293 13.911457 20.296874 13.812500 20.578125 13.812500 C20.848960 13.812500 21.083332 13.911457 21.281250 14.109375 C21.479168 14.307293 21.578125 14.541665 21.578125 14.812500 C21.578125 15.093751 21.479168 15.333332 21.281250 15.531250 C21.083332 15.729168 20.848960 15.828125 20.578125 15.828125 Z M14.109375 9.171875 C13.828124 9.171875 13.588543 9.072918 13.390625 8.875000 C13.192707 8.677082 13.093750 8.437501 13.093750 8.156250 C13.093750 7.885415 13.192707 7.651043 13.390625 7.453125 C13.588543 7.255207 13.828124 7.156250 14.109375 7.156250 C14.380210 7.156250 14.614582 7.255207 14.812500 7.453125 C15.010418 7.651043 15.109375 7.885415 15.109375 8.156250 C15.109375 8.437501 15.010418 8.677082 14.812500 8.875000 C14.614582 9.072918 14.380210 9.171875 14.109375 9.171875 Z M15.796875 11.796875 L15.078125 10.765625 L17.281250 9.218750 L18.000000 10.250000 Z M17.953125 13.890625 L17.046875 13.046875 L19.515625 10.406250 L20.421875 11.250000 Z M13.859375 8.843750 L13.578125 7.625000 L17.046875 6.843750 L17.328125 8.062500 Z M20.890625 15.203125 L19.828125 14.546875 L21.484375 11.843750 L22.546875 12.500000 Z M23.781250 17.093750 C23.499999 17.093750 23.260418 16.994793 23.062500 16.796875 C22.864582 16.598957 22.765625 16.359376 22.765625 16.078125 C22.765625 15.807290 22.864582 15.572918 23.062500 15.375000 C23.260418 15.177082 23.499999 15.078125 23.781250 15.078125 C24.052085 15.078125 24.286457 15.177082 24.484375 15.375000 C24.682293 15.572918 24.781250 15.807290 24.781250 16.078125 C24.781250 16.359376 24.682293 16.598957 24.484375 16.796875 C24.286457 16.994793 24.052085 17.093750 23.781250 17.093750 Z M24.250000 16.515625 L23.062500 16.078125 L24.140625 13.156250 L25.328125 13.593750 Z M19.453125 9.265625 C18.453120 9.265625 17.286465 8.640631 15.953125 7.390625 L16.796875 6.484375 C17.901047 7.505213 18.786455 8.015625 19.453125 8.015625 C20.151045 8.015625 20.500000 7.755211 20.500000 7.234375 C20.500000 7.057291 20.403647 6.911459 20.210938 6.796875 C20.018228 6.682291 19.729169 6.625000 19.343750 6.625000 C18.656247 6.625000 17.770839 6.874997 16.687500 7.375000 L15.890625 7.156250 C15.338539 6.281246 14.791669 5.617190 14.250000 5.164062 C13.708331 4.710935 13.208336 4.484375 12.750000 4.484375 C12.645833 4.484375 12.557292 4.520833 12.484375 4.593750 C12.411458 4.666667 12.375000 4.760416 12.375000 4.875000 C12.375000 5.229168 12.739580 5.541665 13.468750 5.812500 C14.197920 6.083335 15.151036 6.234375 16.328125 6.265625 L16.328125 7.515625 C14.744784 7.473958 13.481776 7.223961 12.539062 6.765625 C11.596349 6.307289 11.125000 5.677087 11.125000 4.875000 C11.125000 4.416664 11.281248 4.028647 11.593750 3.710938 C11.906252 3.393228 12.291664 3.234375 12.750000 3.234375 C14.062507 3.234375 15.364577 4.166657 16.656250 6.031250 C17.083335 5.854166 17.533852 5.700521 18.007812 5.570312 C18.481773 5.440104 18.927081 5.375000 19.343750 5.375000 C20.052087 5.375000 20.630206 5.539061 21.078125 5.867188 C21.526044 6.195314 21.750000 6.651039 21.750000 7.234375 C21.750000 7.848961 21.541669 8.341144 21.125000 8.710938 C20.708331 9.080731 20.151045 9.265625 19.453125 9.265625 Z M37.468750 27.343750" /></svg>