<svg version="1.1" xmlns="http://www.w3.org/2000/svg" style="fill:rgba(0,0,0,1.0)" width="256" height="256" viewBox="0 0 35.0625 32.8125"><path fill="rgb(255, 255, 255)" d="M4.171875 30.671875 C3.942707 30.671875 3.731772 30.565105 3.539062 30.351562 C3.346353 30.138020 3.250000 29.838544 3.250000 29.453125 C3.250000 28.942706 3.416665 28.544272 3.750000 28.257812 C4.083335 27.971353 4.494789 27.755209 4.984375 27.609375 C5.473961 27.463541 5.963539 27.343750 6.453125 27.250000 C6.942711 27.156250 7.354165 27.049480 7.687500 26.929688 C8.020835 26.809895 8.187500 26.635418 8.187500 26.406250 L8.187500 25.859375 L10.265625 26.640625 L10.265625 27.593750 C10.265625 27.864585 10.135418 28.070312 9.875000 28.210938 C9.614582 28.351563 9.317710 28.463541 8.984375 28.546875 C8.651040 28.630209 8.354168 28.718750 8.093750 28.812500 C7.833332 28.906250 7.703125 29.046874 7.703125 29.234375 C7.703125 29.703127 7.656250 30.028645 7.562500 30.210938 C7.468750 30.393230 7.333334 30.484375 7.156250 30.484375 C6.947916 30.484375 6.781251 30.398438 6.656250 30.226562 C6.531249 30.054687 6.419271 29.882813 6.320312 29.710938 C6.221354 29.539062 6.098959 29.453125 5.953125 29.453125 C5.796874 29.453125 5.625001 29.554686 5.437500 29.757812 C5.249999 29.960939 5.049480 30.164061 4.835938 30.367188 C4.622395 30.570314 4.401043 30.671875 4.171875 30.671875 Z M10.375000 32.812500 C9.624996 32.812500 9.250000 32.640627 9.250000 32.296875 C9.250000 31.994790 9.479164 31.729168 9.937500 31.500000 C10.395836 31.270832 11.145828 31.046876 12.187500 30.828125 C12.375001 30.786458 12.591145 30.604168 12.835938 30.281250 C13.080730 29.958332 13.203125 29.526044 13.203125 28.984375 C13.203125 28.557290 13.098959 28.140627 12.890625 27.734375 C12.682291 27.328123 12.505209 27.026043 12.359375 26.828125 L14.671875 25.937500 L15.406250 28.109375 C15.479167 28.328126 15.481771 28.632811 15.414062 29.023438 C15.346354 29.414064 15.265625 29.783852 15.171875 30.132812 C15.078125 30.481773 15.031250 30.713541 15.031250 30.828125 C15.031250 30.973959 15.153645 31.080729 15.398438 31.148438 C15.643230 31.216146 15.888020 31.309895 16.132812 31.429688 C16.377605 31.549480 16.500000 31.765623 16.500000 32.078125 C16.500000 32.369793 16.375001 32.565104 16.125000 32.664062 C15.874999 32.763021 15.520836 32.812500 15.062500 32.812500 C14.791665 32.812500 14.489585 32.796875 14.156250 32.765625 C13.822915 32.734375 13.458335 32.718750 13.062500 32.718750 C12.468747 32.718750 11.955731 32.734375 11.523438 32.765625 C11.091144 32.796875 10.708335 32.812500 10.375000 32.812500 Z M2.234375 15.421875 C1.828123 15.421875 1.471356 15.265627 1.164062 14.953125 C0.856769 14.640623 0.703125 14.213544 0.703125 13.671875 C0.703125 13.255206 0.807291 12.809898 1.015625 12.335938 C1.223959 11.861977 1.606768 11.406252 2.164062 10.968750 C2.721357 10.531248 3.520828 10.161460 4.562500 9.859375 C4.562500 9.223955 4.520834 8.695315 4.437500 8.273438 C4.354166 7.851560 4.218751 7.484377 4.031250 7.171875 C4.343752 6.713539 4.783851 6.346356 5.351562 6.070312 C5.919274 5.794269 6.489580 5.656250 7.062500 5.656250 C8.062505 5.656250 8.856768 5.937497 9.445312 6.500000 C10.033857 7.062503 10.328125 7.828120 10.328125 8.796875 C10.328125 9.578129 10.132814 10.273434 9.742188 10.882812 C9.351561 11.492191 8.815108 11.968748 8.132812 12.312500 C7.450517 12.656252 6.661463 12.828125 5.765625 12.828125 C5.453123 13.453128 5.067711 13.955727 4.609375 14.335938 C4.151039 14.716148 3.703127 14.992187 3.265625 15.164062 C2.828123 15.335938 2.484376 15.421875 2.234375 15.421875 Z M13.468750 22.937500 C11.864575 22.937500 10.601567 22.505213 9.679688 21.640625 C8.757808 20.776037 8.296875 19.666673 8.296875 18.312500 C8.296875 17.281245 8.559893 16.390629 9.085938 15.640625 C9.611982 14.890621 10.307287 14.226565 11.171875 13.648438 C12.036463 13.070310 12.968745 12.531252 13.968750 12.031250 L16.156250 14.515625 C16.770836 14.515625 17.325518 14.658853 17.820312 14.945312 C18.315107 15.231772 18.562500 15.557290 18.562500 15.921875 C18.562500 16.109376 18.492188 16.322915 18.351562 16.562500 C18.210937 16.802085 18.026043 17.005207 17.796875 17.171875 C18.442712 17.411460 18.765625 17.739581 18.765625 18.156250 C18.765625 18.708336 18.427087 19.192706 17.750000 19.609375 C18.020835 19.807293 18.156250 20.093748 18.156250 20.468750 C18.156250 20.906252 17.934898 21.312498 17.492188 21.687500 C17.049477 22.062502 16.473962 22.364582 15.765625 22.593750 C15.057288 22.822918 14.291671 22.937500 13.468750 22.937500 Z M5.781250 11.375000 C6.739588 11.375000 7.502601 11.140627 8.070312 10.671875 C8.638024 10.203123 8.921875 9.578129 8.921875 8.796875 C8.921875 8.255206 8.750002 7.825522 8.406250 7.507812 C8.062498 7.190103 7.588545 7.031250 6.984375 7.031250 C6.401039 7.031250 5.875002 7.234373 5.406250 7.640625 C5.520834 8.078127 5.611979 8.640622 5.679688 9.328125 C5.747396 10.015628 5.781250 10.697913 5.781250 11.375000 Z M16.125000 14.703125 L13.734375 13.796875 L12.984375 12.484375 C12.567706 11.744788 12.278647 10.986983 12.117188 10.210938 C11.955728 9.434892 11.776043 8.776044 11.578125 8.234375 C11.359374 7.619789 10.942711 7.125002 10.328125 6.750000 C9.713539 6.374998 9.005212 6.187500 8.203125 6.187500 C7.567705 6.187500 6.984378 6.289061 6.453125 6.492188 C5.921872 6.695314 5.421877 7.104164 4.953125 7.718750 C3.723952 7.718750 2.854169 7.874998 2.343750 8.187500 C1.833331 8.500002 1.578125 9.046871 1.578125 9.828125 L4.828125 9.828125 L4.828125 11.000000 L0.000000 11.000000 C0.000000 9.354158 0.312497 8.187503 0.937500 7.500000 C1.562503 6.812497 2.656242 6.468750 4.218750 6.468750 C5.375006 5.239577 6.703118 4.625000 8.203125 4.625000 C9.317714 4.625000 10.320308 4.906247 11.210938 5.468750 C12.101567 6.031253 12.713540 6.776037 13.046875 7.703125 C13.286460 8.369795 13.476562 9.052080 13.617188 9.750000 C13.757813 10.447920 14.005207 11.098955 14.359375 11.703125 Z M4.390625 7.250000 C4.182291 6.697914 4.026042 6.187502 3.921875 5.718750 C3.817708 5.249998 3.765625 4.838543 3.765625 4.484375 C3.765625 3.807288 3.921873 3.276044 4.234375 2.890625 C4.546877 2.505206 4.942706 2.312500 5.421875 2.312500 C5.765627 2.312500 6.088540 2.411457 6.390625 2.609375 C6.390625 1.921872 6.651039 1.315107 7.171875 0.789062 C7.692711 0.263018 8.276038 -0.000000 8.921875 -0.000000 C9.765629 -0.000000 10.187500 0.442704 10.187500 1.328125 C10.625002 0.848956 11.039061 0.507814 11.429688 0.304688 C11.820314 0.101561 12.203123 -0.000000 12.578125 -0.000000 C13.098961 -0.000000 13.505207 0.161457 13.796875 0.484375 C14.088543 0.807293 14.234375 1.213539 14.234375 1.703125 C14.234375 2.494796 13.919274 3.328121 13.289062 4.203125 C12.658851 5.078129 11.880213 5.776039 10.953125 6.296875 L9.687500 5.750000 L7.500000 5.703125 Z M7.046875 9.562500 C6.848957 9.562500 6.679688 9.466147 6.539062 9.273438 C6.398437 9.080728 6.328125 8.848960 6.328125 8.578125 C6.328125 8.307290 6.398437 8.078126 6.539062 7.890625 C6.679688 7.703124 6.848957 7.609375 7.046875 7.609375 C7.244793 7.609375 7.414062 7.703124 7.554688 7.890625 C7.695313 8.078126 7.765625 8.307290 7.765625 8.578125 C7.765625 8.848960 7.695313 9.080728 7.554688 9.273438 C7.414062 9.466147 7.244793 9.562500 7.046875 9.562500 Z M22.796875 5.812500 C24.130215 5.812500 25.299474 6.067706 26.304688 6.578125 C27.309901 7.088544 28.093747 7.786454 28.656250 8.671875 C29.218753 9.557296 29.500000 10.562494 29.500000 11.687500 C29.500000 12.302086 29.403647 12.755207 29.210938 13.046875 C29.018228 13.338543 28.708335 13.484375 28.281250 13.484375 C28.135416 13.484375 27.994792 13.463542 27.859375 13.421875 C28.088543 14.223962 28.203125 14.890622 28.203125 15.421875 C28.203125 15.901044 28.101564 16.294269 27.898438 16.601562 C27.695311 16.908856 27.380210 17.062500 26.953125 17.062500 C26.723957 17.062500 26.489585 17.041667 26.250000 17.000000 C26.281250 17.177084 26.307292 17.361978 26.328125 17.554688 C26.348958 17.747397 26.359375 17.932291 26.359375 18.109375 C26.359375 18.723961 26.265626 19.257810 26.078125 19.710938 C25.890624 20.164065 25.588544 20.390625 25.171875 20.390625 C24.765623 20.390625 24.385418 20.268230 24.031250 20.023438 C23.677082 19.778645 23.364585 19.489585 23.093750 19.156250 C22.822915 18.822915 22.604168 18.515626 22.437500 18.234375 C21.333328 21.338557 19.963550 23.627597 18.328125 25.101562 C16.692700 26.575528 14.708345 27.312500 12.375000 27.312500 C11.083327 27.312500 9.817715 27.044274 8.578125 26.507812 C7.338535 25.971351 6.221359 25.250005 5.226562 24.343750 C4.231766 23.437495 3.437503 22.421881 2.843750 21.296875 C2.249997 20.171869 1.953125 19.020839 1.953125 17.843750 C1.953125 16.020824 2.671868 14.359382 4.109375 12.859375 L6.000000 14.765625 L7.796875 13.140625 L10.078125 14.984375 L9.671875 16.765625 L7.796875 15.000000 L6.093750 16.625000 L4.312500 15.218750 C4.083332 15.635419 3.919271 16.062498 3.820312 16.500000 C3.721354 16.937502 3.671875 17.385414 3.671875 17.843750 C3.671875 18.802088 3.919268 19.749995 4.414062 20.687500 C4.908857 21.625005 5.572912 22.473955 6.406250 23.234375 C7.239588 23.994795 8.174474 24.604164 9.210938 25.062500 C10.247401 25.520836 11.302078 25.750000 12.375000 25.750000 C13.791674 25.750000 15.062494 25.395837 16.187500 24.687500 C17.312506 23.979163 18.346349 22.848966 19.289062 21.296875 C20.231776 19.744784 21.124996 17.697929 21.968750 15.156250 C22.562503 15.989587 23.028644 16.632810 23.367188 17.085938 C23.705731 17.539065 23.963541 17.854166 24.140625 18.031250 C24.317709 18.208334 24.458333 18.296875 24.562500 18.296875 C24.635417 18.296875 24.684896 18.257813 24.710938 18.179688 C24.736979 18.101562 24.750000 18.005209 24.750000 17.890625 C24.750000 17.557290 24.723959 17.161461 24.671875 16.703125 C24.619791 16.244789 24.552084 15.807294 24.468750 15.390625 C24.802085 15.484375 25.088540 15.557291 25.328125 15.609375 C25.567710 15.661459 25.765624 15.687500 25.921875 15.687500 C26.223960 15.687500 26.427083 15.614584 26.531250 15.468750 C26.635417 15.322916 26.687500 15.104168 26.687500 14.812500 C26.687500 14.604166 26.661459 14.273440 26.609375 13.820312 C26.557291 13.367185 26.489584 12.901044 26.406250 12.421875 C26.322916 11.942706 26.223959 11.572918 26.109375 11.312500 C26.307293 11.406250 26.526040 11.484375 26.765625 11.546875 C27.005210 11.609375 27.249999 11.640625 27.500000 11.640625 C27.645834 11.640625 27.718750 11.552084 27.718750 11.375000 C27.718750 10.656246 27.500002 9.994795 27.062500 9.390625 C26.624998 8.786455 26.036462 8.299481 25.296875 7.929688 C24.557288 7.559894 23.723963 7.375000 22.796875 7.375000 C20.963532 7.375000 19.604171 8.031243 18.718750 9.343750 C17.833329 10.656257 17.390625 12.755194 17.390625 15.640625 L15.734375 14.546875 C15.901042 11.619777 16.585931 9.432299 17.789062 7.984375 C18.992194 6.536451 20.661448 5.812500 22.796875 5.812500 Z M35.062500 27.343750" /></svg>