<svg version="1.1" xmlns="http://www.w3.org/2000/svg" style="fill:rgba(0,0,0,1.0)" width="256" height="256" viewBox="0 0 34.6875 32.8125"><path fill="rgb(255, 255, 255)" d="M18.046875 32.812500 C16.994786 32.812500 16.229169 32.583336 15.750000 32.125000 C15.270831 31.666664 15.031250 30.942713 15.031250 29.953125 L16.750000 29.796875 C16.750000 30.536462 17.312494 30.906250 18.437500 30.906250 C18.593751 30.906250 18.755208 30.898438 18.921875 30.882812 C19.088542 30.867187 19.265624 30.843750 19.453125 30.812500 L26.875000 29.593750 L26.875000 17.531250 L27.265625 18.484375 C25.796868 17.057285 24.752607 15.455738 24.132812 13.679688 C23.513018 11.903637 23.203125 10.000010 23.203125 7.968750 C23.203125 7.458331 23.221354 6.950523 23.257812 6.445312 C23.294271 5.940102 23.343750 5.437503 23.406250 4.937500 L23.953125 6.093750 C23.348955 5.739582 22.734378 5.401043 22.109375 5.078125 C21.484372 4.755207 20.851566 4.442710 20.210938 4.140625 C19.570309 3.838540 18.929691 3.544272 18.289062 3.257812 C17.648434 2.971353 17.005212 2.687501 16.359375 2.406250 L16.093750 0.328125 C16.812504 0.598960 17.570309 0.908852 18.367188 1.257812 C19.164066 1.606773 19.971350 1.976561 20.789062 2.367188 C21.606775 2.757814 22.406246 3.148436 23.187500 3.539062 C23.968754 3.929689 24.697913 4.307290 25.375000 4.671875 C25.270833 5.401045 25.195313 5.986977 25.148438 6.429688 C25.101562 6.872398 25.078125 7.385414 25.078125 7.968750 C25.078125 10.145844 25.401038 12.005201 26.046875 13.546875 C26.692712 15.088549 27.593744 16.458327 28.750000 17.656250 L28.750000 31.203125 L19.906250 32.640625 C19.552082 32.692709 19.221356 32.734375 18.914062 32.765625 C18.606769 32.796875 18.317710 32.812500 18.046875 32.812500 Z M11.656250 28.750000 C9.833324 28.750000 7.989593 28.627605 6.125000 28.382812 C4.260407 28.138020 2.447925 27.807294 0.687500 27.390625 L1.062500 25.546875 C2.739592 25.942710 4.471345 26.260415 6.257812 26.500000 C8.044280 26.739585 9.817700 26.859375 11.578125 26.859375 C11.973960 26.859375 12.374998 26.854167 12.781250 26.843750 C13.187502 26.833333 13.583331 26.812500 13.968750 26.781250 L13.968750 28.671875 C13.583331 28.692708 13.200523 28.710937 12.820312 28.726562 C12.440102 28.742188 12.052085 28.750000 11.656250 28.750000 Z M12.187500 23.796875 C10.937494 23.796875 9.640632 23.726563 8.296875 23.585938 C6.953118 23.445312 5.630215 23.260418 4.328125 23.031250 C3.026035 22.802082 1.807297 22.552085 0.671875 22.281250 L1.046875 20.437500 C2.109380 20.687501 3.270827 20.927082 4.531250 21.156250 C5.791673 21.385418 7.072910 21.570312 8.375000 21.710938 C9.677090 21.851563 10.921869 21.921875 12.109375 21.921875 C12.411460 21.921875 12.708332 21.916667 13.000000 21.906250 C13.291668 21.895833 13.578124 21.880208 13.859375 21.859375 L13.859375 23.750000 C13.588540 23.760417 13.312501 23.770833 13.031250 23.781250 C12.749999 23.791667 12.468751 23.796875 12.187500 23.796875 Z M10.703125 32.812500 C10.442707 32.812500 10.156252 32.796875 9.843750 32.765625 C9.531248 32.734375 9.197918 32.692709 8.843750 32.640625 L0.000000 31.203125 L0.000000 17.656250 C1.156256 16.458327 2.057288 15.088549 2.703125 13.546875 C3.348962 12.005201 3.671875 10.145844 3.671875 7.968750 C3.671875 7.385414 3.651042 6.872398 3.609375 6.429688 C3.567708 5.986977 3.489584 5.401045 3.375000 4.671875 C4.052087 4.307290 4.781246 3.929689 5.562500 3.539062 C6.343754 3.148436 7.143225 2.757814 7.960938 2.367188 C8.778650 1.976561 9.585934 1.606773 10.382812 1.257812 C11.179691 0.908852 11.937496 0.598960 12.656250 0.328125 L12.390625 2.406250 C11.755205 2.687501 11.114587 2.971353 10.468750 3.257812 C9.822913 3.544272 9.179691 3.838540 8.539062 4.140625 C7.898434 4.442710 7.265628 4.755207 6.640625 5.078125 C6.015622 5.401043 5.401045 5.739582 4.796875 6.093750 L5.343750 4.937500 C5.406250 5.437503 5.455729 5.940102 5.492188 6.445312 C5.528646 6.950523 5.546875 7.458331 5.546875 7.968750 C5.546875 10.000010 5.236982 11.903637 4.617188 13.679688 C3.997393 15.455738 2.953132 17.057285 1.484375 18.484375 L1.875000 17.531250 L1.875000 29.593750 L9.296875 30.812500 C9.484376 30.843750 9.661458 30.867187 9.828125 30.882812 C9.994792 30.898438 10.156249 30.906250 10.312500 30.906250 C11.437506 30.906250 12.000000 30.536462 12.000000 29.796875 L13.718750 29.953125 C13.718750 30.942713 13.479169 31.666664 13.000000 32.125000 C12.520831 32.583336 11.755214 32.812500 10.703125 32.812500 Z M17.093750 28.750000 C16.708331 28.750000 16.322919 28.742188 15.937500 28.726562 C15.552081 28.710937 15.166669 28.692708 14.781250 28.671875 L14.781250 26.781250 C15.177085 26.812500 15.575519 26.833333 15.976562 26.843750 C16.377606 26.854167 16.776040 26.859375 17.171875 26.859375 C18.932300 26.859375 20.705720 26.739585 22.492188 26.500000 C24.278655 26.260415 26.010408 25.942710 27.687500 25.546875 L28.062500 27.390625 C26.302075 27.807294 24.492197 28.138020 22.632812 28.382812 C20.773428 28.627605 18.927092 28.750000 17.093750 28.750000 Z M6.765625 22.468750 L6.765625 3.546875 L8.484375 3.546875 L8.484375 22.468750 Z M12.000000 30.828125 L12.000000 17.828125 C12.000000 16.786453 11.960938 15.914066 11.882812 15.210938 C11.804687 14.507809 11.692709 13.872399 11.546875 13.304688 C11.401041 12.736976 11.223959 12.151045 11.015625 11.546875 C10.473956 9.932284 10.143230 8.515631 10.023438 7.296875 C9.903645 6.078119 9.843750 5.104170 9.843750 4.375000 C9.843750 3.541663 10.049477 2.796878 10.460938 2.140625 C10.872398 1.484372 11.421872 0.963544 12.109375 0.578125 C12.796878 0.192706 13.552079 -0.000000 14.375000 -0.000000 C15.197921 -0.000000 15.953122 0.192706 16.640625 0.578125 C17.328128 0.963544 17.877602 1.484372 18.289062 2.140625 C18.700523 2.796878 18.906250 3.541663 18.906250 4.375000 C18.906250 5.104170 18.846355 6.078119 18.726562 7.296875 C18.606770 8.515631 18.276044 9.932284 17.734375 11.546875 C17.536457 12.151045 17.361980 12.736976 17.210938 13.304688 C17.059895 13.872399 16.945313 14.507809 16.867188 15.210938 C16.789062 15.914066 16.750000 16.786453 16.750000 17.828125 L16.750000 30.828125 C16.270831 30.786458 15.846356 30.755208 15.476562 30.734375 C15.106769 30.713542 14.739585 30.703125 14.375000 30.703125 C14.020832 30.703125 13.658856 30.713542 13.289062 30.734375 C12.919269 30.755208 12.489586 30.786458 12.000000 30.828125 Z M16.562500 23.796875 C16.281249 23.796875 16.000001 23.791667 15.718750 23.781250 C15.437499 23.770833 15.161460 23.760417 14.890625 23.750000 L14.890625 21.859375 C15.171876 21.880208 15.458332 21.895833 15.750000 21.906250 C16.041668 21.916667 16.338540 21.921875 16.640625 21.921875 C17.828131 21.921875 19.072910 21.851563 20.375000 21.710938 C21.677090 21.570312 22.960931 21.385418 24.226562 21.156250 C25.492194 20.927082 26.651036 20.687501 27.703125 20.437500 L28.078125 22.281250 C26.942703 22.552085 25.723965 22.802082 24.421875 23.031250 C23.119785 23.260418 21.799486 23.445312 20.460938 23.585938 C19.122389 23.726563 17.822923 23.796875 16.562500 23.796875 Z M20.265625 22.468750 L20.265625 3.546875 L21.984375 3.546875 L21.984375 22.468750 Z M34.687500 27.343750" /></svg>