<svg version="1.1" xmlns="http://www.w3.org/2000/svg" style="fill:rgba(0,0,0,1.0)" width="256" height="256" viewBox="0 0 32.53125 32.8125"><path fill="rgb(255, 255, 255)" d="M16.703125 32.609375 C14.973950 32.609375 13.544276 32.291670 12.414062 31.656250 C11.283849 31.020830 10.432295 30.062506 9.859375 28.781250 L10.828125 27.437500 C11.390628 28.635423 12.143224 29.510414 13.085938 30.062500 C14.028651 30.614586 15.234368 30.890625 16.703125 30.890625 C18.723968 30.890625 20.205724 30.309902 21.148438 29.148438 C22.091151 27.986973 22.562500 26.151054 22.562500 23.640625 C22.562500 22.463536 22.458334 21.346359 22.250000 20.289062 C22.041666 19.231766 21.697919 18.125006 21.218750 16.968750 C20.739581 15.812494 20.093754 14.515632 19.281250 13.078125 C18.531246 11.744785 18.156250 10.552089 18.156250 9.500000 C18.156250 9.239582 18.195312 8.973960 18.273438 8.703125 C18.351563 8.432290 18.510415 8.065106 18.750000 7.601562 C18.989585 7.138019 19.343748 6.489587 19.812500 5.656250 C19.989584 5.343748 20.153645 4.992189 20.304688 4.601562 C20.455730 4.210936 20.575520 3.830731 20.664062 3.460938 C20.752605 3.091144 20.796875 2.781251 20.796875 2.531250 C20.796875 2.302082 20.713542 2.130209 20.546875 2.015625 C20.380208 1.901041 20.007815 1.822917 19.429688 1.781250 C18.851560 1.739583 17.942715 1.718750 16.703125 1.718750 C15.473952 1.718750 14.567711 1.739583 13.984375 1.781250 C13.401039 1.822917 13.026042 1.901041 12.859375 2.015625 C12.692708 2.130209 12.609375 2.302082 12.609375 2.531250 C12.609375 2.781251 12.653645 3.091144 12.742188 3.460938 C12.830730 3.830731 12.950520 4.210936 13.101562 4.601562 C13.252605 4.992189 13.416666 5.343748 13.593750 5.656250 C14.072919 6.489587 14.429686 7.138019 14.664062 7.601562 C14.898439 8.065106 15.054687 8.432290 15.132812 8.703125 C15.210938 8.973960 15.250000 9.239582 15.250000 9.500000 C15.250000 10.552089 14.875004 11.744785 14.125000 13.078125 C13.322913 14.515632 12.679690 15.815098 12.195312 16.976562 C11.710935 18.138027 11.364584 19.247391 11.156250 20.304688 C10.947916 21.361984 10.843750 22.473952 10.843750 23.640625 L8.968750 23.640625 C8.968750 22.692704 9.033854 21.770838 9.164062 20.875000 C9.294271 19.979162 9.497394 19.075525 9.773438 18.164062 C10.049481 17.252600 10.414060 16.304692 10.867188 15.320312 C11.320315 14.335933 11.864580 13.281256 12.500000 12.156250 C13.083336 11.156245 13.375000 10.270837 13.375000 9.500000 C13.375000 9.333333 13.346354 9.156251 13.289062 8.968750 C13.231771 8.781249 13.109376 8.507814 12.921875 8.148438 C12.734374 7.789061 12.453127 7.276045 12.078125 6.609375 C11.630206 5.817704 11.294272 5.059899 11.070312 4.335938 C10.846353 3.611976 10.734375 3.010419 10.734375 2.531250 C10.734375 1.562495 11.210933 0.898439 12.164062 0.539062 C13.117192 0.179686 14.630198 -0.000000 16.703125 -0.000000 C18.786469 -0.000000 20.302079 0.179686 21.250000 0.539062 C22.197921 0.898439 22.671875 1.562495 22.671875 2.531250 C22.671875 3.010419 22.559897 3.611976 22.335938 4.335938 C22.111978 5.059899 21.776044 5.817704 21.328125 6.609375 C20.953123 7.276045 20.674480 7.789061 20.492188 8.148438 C20.309895 8.507814 20.187500 8.781249 20.125000 8.968750 C20.062500 9.156251 20.031250 9.333333 20.031250 9.500000 C20.031250 10.270837 20.322914 11.156245 20.906250 12.156250 C21.541670 13.281256 22.083331 14.335933 22.531250 15.320312 C22.979169 16.304692 23.343749 17.252600 23.625000 18.164062 C23.906251 19.075525 24.111979 19.979162 24.242188 20.875000 C24.372396 21.770838 24.437500 22.692704 24.437500 23.640625 C24.437500 26.619807 23.789069 28.859368 22.492188 30.359375 C21.195306 31.859382 19.265638 32.609375 16.703125 32.609375 Z M5.906250 32.812500 C5.333330 32.812500 4.815106 32.770834 4.351562 32.687500 C3.888019 32.604166 3.520835 32.489584 3.250000 32.343750 L3.250000 30.578125 L8.562500 30.578125 L8.562500 32.343750 C8.302082 32.489584 7.940106 32.604166 7.476562 32.687500 C7.013019 32.770834 6.489586 32.812500 5.906250 32.812500 Z M5.906250 29.906250 C7.229173 29.906250 8.231767 29.453130 8.914062 28.546875 C9.596358 27.640620 9.937500 26.307300 9.937500 24.546875 C9.364580 24.682292 8.729170 24.786458 8.031250 24.859375 C7.333330 24.932292 6.625004 24.968750 5.906250 24.968750 C4.447909 24.968750 3.104173 24.828126 1.875000 24.546875 C1.875000 26.307300 2.216142 27.640620 2.898438 28.546875 C3.580733 29.453130 4.583327 29.906250 5.906250 29.906250 Z M5.906250 31.625000 C4.052074 31.625000 2.604172 30.989590 1.562500 29.718750 C0.520828 28.447910 0.000000 26.687511 0.000000 24.437500 L0.000000 23.406250 C0.000000 23.124999 0.268226 22.867189 0.804688 22.632812 C1.341149 22.398436 2.057287 22.210938 2.953125 22.070312 C3.848963 21.929687 4.833328 21.859375 5.906250 21.859375 C6.989589 21.859375 7.976558 21.929687 8.867188 22.070312 C9.757817 22.210938 10.471351 22.398436 11.007812 22.632812 C11.544274 22.867189 11.812500 23.124999 11.812500 23.406250 L11.812500 24.437500 C11.812500 26.687511 11.291672 28.447910 10.250000 29.718750 C9.208328 30.989590 7.760426 31.625000 5.906250 31.625000 Z M18.078125 29.140625 C17.848957 29.203125 17.656251 29.164063 17.500000 29.023438 C17.343749 28.882812 17.265625 28.729168 17.265625 28.562500 C17.265625 28.249998 17.458331 28.036459 17.843750 27.921875 C18.427086 27.734374 18.833332 27.312503 19.062500 26.656250 C19.291668 25.999997 19.406250 25.270837 19.406250 24.468750 C19.406250 24.124998 19.390625 23.781252 19.359375 23.437500 C19.328125 23.093748 19.286459 22.760418 19.234375 22.437500 C19.192708 22.197915 19.244791 22.010417 19.390625 21.875000 C19.536459 21.739583 19.692708 21.671875 19.859375 21.671875 C20.005209 21.671875 20.132812 21.718750 20.242188 21.812500 C20.351563 21.906250 20.421875 22.036457 20.453125 22.203125 C20.526042 22.588544 20.578125 22.971352 20.609375 23.351562 C20.640625 23.731773 20.656250 24.088540 20.656250 24.421875 C20.656250 25.713548 20.434898 26.763017 19.992188 27.570312 C19.549477 28.377608 18.911462 28.901040 18.078125 29.140625 Z M16.703125 3.593750 C15.734370 3.593750 14.851566 3.531251 14.054688 3.406250 C13.257809 3.281249 12.622398 3.114584 12.148438 2.906250 C11.674477 2.697916 11.437500 2.468751 11.437500 2.218750 C11.437500 1.958332 11.674477 1.726564 12.148438 1.523438 C12.622398 1.320311 13.257809 1.156251 14.054688 1.031250 C14.851566 0.906249 15.734370 0.843750 16.703125 0.843750 C17.682297 0.843750 18.567704 0.906249 19.359375 1.031250 C20.151046 1.156251 20.783852 1.320311 21.257812 1.523438 C21.731773 1.726564 21.968750 1.958332 21.968750 2.218750 C21.968750 2.468751 21.731773 2.697916 21.257812 2.906250 C20.783852 3.114584 20.151046 3.281249 19.359375 3.406250 C18.567704 3.531251 17.682297 3.593750 16.703125 3.593750 Z M32.531250 27.343750" /></svg>