<svg version="1.1" xmlns="http://www.w3.org/2000/svg" style="fill:rgba(0,0,0,1.0)" width="256" height="256" viewBox="0 0 30.34223841092996 32.8125"><path fill="rgb(255, 255, 255)" d="M6.234375 32.812500 L1.343750 30.015625 C0.864581 29.744790 0.520834 29.375002 0.312500 28.906250 C0.104166 28.437498 0.057291 27.947919 0.171875 27.437500 C0.588544 25.656241 0.945311 23.888030 1.242188 22.132812 C1.539064 20.377595 1.799478 18.539072 2.023438 16.617188 C2.247397 14.695303 2.458332 12.598970 2.656250 10.328125 L5.937500 8.109375 L6.578125 9.546875 L4.296875 11.109375 C4.130208 13.161469 3.924480 15.114574 3.679688 16.968750 C3.434895 18.822926 3.161460 20.638012 2.859375 22.414062 C2.557290 24.190113 2.223960 25.989574 1.859375 27.812500 C1.796875 28.145835 1.916665 28.395832 2.218750 28.562500 L6.734375 31.093750 L13.546875 31.093750 L18.062500 28.562500 C18.364585 28.395832 18.484375 28.145835 18.421875 27.812500 C18.057290 25.989574 17.723960 24.190113 17.421875 22.414062 C17.119790 20.638012 16.848960 18.822926 16.609375 16.968750 C16.369790 15.114574 16.161459 13.161469 15.984375 11.109375 L13.703125 9.546875 L14.343750 8.109375 L17.625000 10.328125 C17.822918 12.598970 18.033853 14.695303 18.257812 16.617188 C18.481772 18.539072 18.744790 20.377595 19.046875 22.132812 C19.348960 23.888030 19.703123 25.656241 20.109375 27.437500 C20.223959 27.947919 20.177084 28.437498 19.968750 28.906250 C19.760416 29.375002 19.416669 29.744790 18.937500 30.015625 L14.046875 32.812500 Z M7.203125 31.500000 L5.515625 31.203125 C5.817710 28.786446 6.059895 26.575531 6.242188 24.570312 C6.424480 22.565094 6.559895 20.671884 6.648438 18.890625 C6.736980 17.109366 6.781250 15.348967 6.781250 13.609375 L8.500000 13.671875 C8.500000 15.421884 8.455730 17.200512 8.367188 19.007812 C8.278645 20.815113 8.140626 22.736969 7.953125 24.773438 C7.765624 26.809906 7.515627 29.052071 7.203125 31.500000 Z M13.078125 31.500000 C12.776040 29.052071 12.528647 26.809906 12.335938 24.773438 C12.143228 22.736969 12.002605 20.815113 11.914062 19.007812 C11.825520 17.200512 11.781250 15.421884 11.781250 13.671875 L13.500000 13.609375 C13.500000 15.348967 13.544270 17.109366 13.632812 18.890625 C13.721355 20.671884 13.859374 22.565094 14.046875 24.570312 C14.234376 26.575531 14.473957 28.786446 14.765625 31.203125 Z M7.046875 14.625000 L2.765625 11.796875 L3.796875 10.593750 L7.281250 12.906250 L13.000000 12.906250 L16.484375 10.593750 L17.515625 11.796875 L13.234375 14.625000 Z M7.750000 4.937500 C7.395832 4.937500 7.109376 4.882813 6.890625 4.773438 C6.671874 4.664062 6.562500 4.531251 6.562500 4.375000 C6.562500 4.208333 6.671874 4.078125 6.890625 3.984375 C7.109376 3.890625 7.395832 3.843750 7.750000 3.843750 C8.104168 3.843750 8.390624 3.890625 8.609375 3.984375 C8.828126 4.078125 8.937500 4.208333 8.937500 4.375000 C8.937500 4.531251 8.828126 4.664062 8.609375 4.773438 C8.390624 4.882813 8.104168 4.937500 7.750000 4.937500 Z M10.140625 8.093750 C9.057286 8.093750 7.976568 7.940106 6.898438 7.632812 C5.820307 7.325519 4.755214 6.864586 3.703125 6.250000 L4.484375 5.046875 C4.901044 5.328126 5.432288 5.580728 6.078125 5.804688 C6.723962 6.028647 7.403642 6.205729 8.117188 6.335938 C8.830733 6.466146 9.505205 6.531250 10.140625 6.531250 C10.776045 6.531250 11.450517 6.466146 12.164062 6.335938 C12.877608 6.205729 13.557288 6.028647 14.203125 5.804688 C14.848962 5.580728 15.380206 5.328126 15.796875 5.046875 L16.578125 6.250000 C15.526036 6.864586 14.460943 7.325519 13.382812 7.632812 C12.304682 7.940106 11.223964 8.093750 10.140625 8.093750 Z M10.140625 11.062500 C8.765618 11.062500 7.554693 10.825523 6.507812 10.351562 C5.460932 9.877602 4.640628 9.197921 4.046875 8.312500 C3.453122 7.427079 3.156250 6.364590 3.156250 5.125000 C3.156250 4.177079 3.421872 3.315108 3.953125 2.539062 C4.484378 1.763017 5.270828 1.145836 6.312500 0.687500 C7.354172 0.229164 8.630201 -0.000000 10.140625 -0.000000 C11.661466 -0.000000 12.940099 0.229164 13.976562 0.687500 C15.013026 1.145836 15.796872 1.763017 16.328125 2.539062 C16.859378 3.315108 17.125000 4.177079 17.125000 5.125000 C17.125000 6.364590 16.830732 7.427079 16.242188 8.312500 C15.653643 9.197921 14.833339 9.877602 13.781250 10.351562 C12.729161 10.825523 11.515632 11.062500 10.140625 11.062500 Z M10.140625 9.500000 C11.786467 9.500000 13.075516 9.098962 14.007812 8.296875 C14.940109 7.494788 15.406250 6.437507 15.406250 5.125000 C15.406250 4.145828 14.950525 3.307295 14.039062 2.609375 C13.127600 1.911455 11.828133 1.562500 10.140625 1.562500 C8.453117 1.562500 7.153650 1.911455 6.242188 2.609375 C5.330725 3.307295 4.875000 4.145828 4.875000 5.125000 C4.875000 6.437507 5.343745 7.494788 6.281250 8.296875 C7.218755 9.098962 8.505200 9.500000 10.140625 9.500000 Z M10.140625 3.656250 C9.786457 3.656250 9.500001 3.601563 9.281250 3.492188 C9.062499 3.382812 8.953125 3.250001 8.953125 3.093750 C8.953125 2.927083 9.062499 2.796875 9.281250 2.703125 C9.500001 2.609375 9.786457 2.562500 10.140625 2.562500 C10.494793 2.562500 10.781249 2.609375 11.000000 2.703125 C11.218751 2.796875 11.328125 2.927083 11.328125 3.093750 C11.328125 3.250001 11.218751 3.382812 11.000000 3.492188 C10.781249 3.601563 10.494793 3.656250 10.140625 3.656250 Z M12.531250 4.937500 C12.177082 4.937500 11.890626 4.882813 11.671875 4.773438 C11.453124 4.664062 11.343750 4.531251 11.343750 4.375000 C11.343750 4.208333 11.453124 4.078125 11.671875 3.984375 C11.890626 3.890625 12.177082 3.843750 12.531250 3.843750 C12.885418 3.843750 13.171874 3.890625 13.390625 3.984375 C13.609376 4.078125 13.718750 4.208333 13.718750 4.375000 C13.718750 4.531251 13.609376 4.664062 13.390625 4.773438 C13.171874 4.882813 12.885418 4.937500 12.531250 4.937500 Z M30.453125 27.343750" /></svg>