<svg version="1.1" xmlns="http://www.w3.org/2000/svg" style="fill:rgba(0,0,0,1.0)" width="256" height="256" viewBox="0 0 36.640625 32.8125"><path fill="rgb(255, 255, 255)" d="M20.859375 32.812500 C19.567702 32.812500 18.695315 32.687501 18.242188 32.437500 C17.789060 32.187499 17.562500 31.770836 17.562500 31.187500 C17.562500 30.812498 17.617187 30.505210 17.726562 30.265625 C17.835938 30.026040 17.945312 29.791668 18.054688 29.562500 C18.164063 29.333332 18.218750 29.052085 18.218750 28.718750 C17.895832 28.739583 17.578127 28.755208 17.265625 28.765625 C16.953123 28.776042 16.588544 28.781250 16.171875 28.781250 C15.640622 28.781250 15.135419 28.770833 14.656250 28.750000 C14.177081 28.729167 13.723960 28.697917 13.296875 28.656250 C13.317708 28.989585 13.333333 29.320311 13.343750 29.648438 C13.354167 29.976564 13.359375 30.229166 13.359375 30.406250 C13.359375 31.177087 13.028649 31.768227 12.367188 32.179688 C11.705726 32.591148 10.833339 32.796875 9.750000 32.796875 C8.739578 32.796875 7.906253 32.619793 7.250000 32.265625 C6.593747 31.911457 6.265625 31.380212 6.265625 30.671875 C6.265625 30.234373 6.361978 29.882814 6.554688 29.617188 C6.747397 29.351561 6.966145 29.072918 7.210938 28.781250 C7.455730 28.489582 7.674478 28.096357 7.867188 27.601562 C8.059897 27.106768 8.156250 26.416671 8.156250 25.531250 C7.906249 25.260415 7.653647 24.914065 7.398438 24.492188 C7.143228 24.070310 6.921876 23.635419 6.734375 23.187500 C6.546874 22.739581 6.416667 22.348960 6.343750 22.015625 C5.031243 20.692702 3.901046 19.286466 2.953125 17.796875 C2.005204 16.307284 1.276044 14.807299 0.765625 13.296875 C0.255206 11.786451 0.000000 10.333340 0.000000 8.937500 C0.000000 7.302075 0.351559 5.882819 1.054688 4.679688 C1.757816 3.476556 2.765618 2.567711 4.078125 1.953125 C4.765628 0.651035 5.749994 -0.000000 7.031250 -0.000000 C7.770837 -0.000000 8.411456 0.229164 8.953125 0.687500 C9.494794 1.145836 9.822916 1.723955 9.937500 2.421875 C10.572920 2.776043 11.023436 3.145831 11.289062 3.531250 C11.554689 3.916669 11.687500 4.395830 11.687500 4.968750 C11.687500 5.937505 11.361982 6.718747 10.710938 7.312500 C10.059893 7.906253 9.208339 8.203125 8.156250 8.203125 C7.010411 8.203125 6.231773 8.283853 5.820312 8.445312 C5.408852 8.606772 5.203125 8.895831 5.203125 9.312500 C5.203125 10.229171 5.434894 11.111975 5.898438 11.960938 C6.361981 12.809900 6.992184 13.562497 7.789062 14.218750 C8.585941 14.875003 9.486974 15.395831 10.492188 15.781250 C11.497401 16.166669 12.541661 16.359375 13.625000 16.359375 L14.625000 16.359375 C16.687510 16.359375 18.341140 16.583331 19.585938 17.031250 C20.830735 17.479169 21.895829 18.239578 22.781250 19.312500 L23.562500 20.250000 C24.125003 20.916670 24.591144 21.421873 24.960938 21.765625 C25.330731 22.109377 25.666665 22.341145 25.968750 22.460938 C26.270835 22.580730 26.588540 22.640625 26.921875 22.640625 C27.359377 22.640625 27.703124 22.526043 27.953125 22.296875 C28.203126 22.067707 28.328125 21.744794 28.328125 21.328125 C28.328125 20.901040 28.192710 20.557293 27.921875 20.296875 C27.651040 20.036457 27.317710 19.815105 26.921875 19.632812 C26.526040 19.450520 26.127606 19.281251 25.726562 19.125000 C25.325519 18.968749 24.989585 18.786459 24.718750 18.578125 C24.447915 18.369791 24.312500 18.104168 24.312500 17.781250 C24.312500 17.395831 24.497394 17.093751 24.867188 16.875000 C25.236981 16.656249 25.802080 16.546875 26.562500 16.546875 C27.729172 16.546875 28.770829 16.783852 29.687500 17.257812 C30.604171 17.731773 31.328122 18.382808 31.859375 19.210938 C32.390628 20.039067 32.656250 20.984370 32.656250 22.046875 C32.656250 23.807300 31.890633 25.226557 30.359375 26.304688 C28.828117 27.382818 26.692722 27.979166 23.953125 28.093750 C24.057292 28.718753 24.125000 29.184894 24.156250 29.492188 C24.187500 29.799481 24.203125 30.083332 24.203125 30.343750 C24.203125 31.364588 23.973961 32.031248 23.515625 32.343750 C23.057289 32.656252 22.171882 32.812500 20.859375 32.812500 Z M20.859375 31.250000 C21.348961 31.250000 21.734374 31.205730 22.015625 31.117188 C22.296876 31.028645 22.497395 30.893230 22.617188 30.710938 C22.736980 30.528645 22.796875 30.302085 22.796875 30.031250 C22.796875 29.729165 22.742188 29.260420 22.632812 28.625000 C22.523437 27.989580 22.380209 27.312504 22.203125 26.593750 C25.140640 26.593750 27.382805 26.197921 28.929688 25.406250 C30.476570 24.614579 31.250000 23.494799 31.250000 22.046875 C31.250000 21.244788 31.033856 20.523441 30.601562 19.882812 C30.169269 19.242184 29.598962 18.734377 28.890625 18.359375 C28.182288 17.984373 27.411462 17.796875 26.578125 17.796875 C26.411458 17.796875 26.250001 17.802083 26.093750 17.812500 C25.937499 17.822917 25.859375 17.859375 25.859375 17.921875 C25.859375 17.953125 25.901041 17.984375 25.984375 18.015625 C26.067709 18.046875 26.130208 18.067708 26.171875 18.078125 C27.296881 18.401043 28.171872 18.848955 28.796875 19.421875 C29.421878 19.994795 29.734375 20.682288 29.734375 21.484375 C29.734375 22.213545 29.505211 22.848956 29.046875 23.390625 C28.588539 23.932294 27.911463 24.203125 27.015625 24.203125 C26.484372 24.203125 25.979169 24.127605 25.500000 23.976562 C25.020831 23.825520 24.536461 23.557294 24.046875 23.171875 C23.557289 22.786456 23.020836 22.244795 22.437500 21.546875 L21.656250 20.609375 C21.208331 20.057289 20.708336 19.580731 20.156250 19.179688 C19.604164 18.778644 18.895838 18.468751 18.031250 18.250000 C17.166662 18.031249 16.031257 17.921875 14.625000 17.921875 L13.625000 17.921875 C12.322910 17.921875 11.083339 17.690106 9.906250 17.226562 C8.729161 16.763019 7.682296 16.130212 6.765625 15.328125 C5.848954 14.526038 5.125003 13.606776 4.593750 12.570312 C4.062497 11.533849 3.796875 10.447922 3.796875 9.312500 C3.796875 8.343745 4.140622 7.656252 4.828125 7.250000 C5.515628 6.843748 6.624992 6.640625 8.156250 6.640625 C8.781253 6.640625 9.265623 6.492189 9.609375 6.195312 C9.953127 5.898436 10.125000 5.489586 10.125000 4.968750 C10.125000 4.666665 10.023439 4.385418 9.820312 4.125000 C9.617186 3.864582 9.177087 3.552085 8.500000 3.187500 C8.427083 2.666664 8.265626 2.265626 8.015625 1.984375 C7.765624 1.703124 7.437502 1.562500 7.031250 1.562500 C6.239579 1.562500 5.645835 2.093745 5.250000 3.156250 C4.052077 3.593752 3.111983 4.307287 2.429688 5.296875 C1.747392 6.286463 1.406250 7.499993 1.406250 8.937500 C1.406250 10.218756 1.656248 11.570305 2.156250 12.992188 C2.656252 14.414070 3.369787 15.828118 4.296875 17.234375 C5.223963 18.640632 6.328119 19.968744 7.609375 21.218750 C7.723959 21.791670 7.989581 22.458330 8.406250 23.218750 C8.822919 23.979170 9.260414 24.640622 9.718750 25.203125 C9.718750 26.244797 9.622397 27.088538 9.429688 27.734375 C9.236978 28.380212 9.018230 28.888019 8.773438 29.257812 C8.528645 29.627606 8.309897 29.914061 8.117188 30.117188 C7.924478 30.320314 7.828125 30.505208 7.828125 30.671875 C7.828125 30.807292 7.997394 30.934895 8.335938 31.054688 C8.674481 31.174480 9.145830 31.234375 9.750000 31.234375 C10.427087 31.234375 10.932290 31.156251 11.265625 31.000000 C11.598960 30.843749 11.765625 30.645835 11.765625 30.406250 L11.765625 26.875000 C12.213544 26.979167 12.817705 27.062500 13.578125 27.125000 C14.338545 27.187500 15.203120 27.218750 16.171875 27.218750 C16.942712 27.218750 17.619789 27.200521 18.203125 27.164062 C18.786461 27.127604 19.286456 27.078125 19.703125 27.015625 L19.703125 28.921875 C19.703125 29.171876 19.658855 29.398436 19.570312 29.601562 C19.481770 29.804689 19.393230 29.992187 19.304688 30.164062 C19.216145 30.335938 19.171875 30.510416 19.171875 30.687500 C19.171875 30.885418 19.291665 31.028645 19.531250 31.117188 C19.770835 31.205730 20.213538 31.250000 20.859375 31.250000 Z M7.046875 31.562500 C5.901036 31.562500 5.104169 31.486980 4.656250 31.335938 C4.208331 31.184895 3.984375 30.869794 3.984375 30.390625 C3.984375 30.213541 4.054687 30.020834 4.195312 29.812500 C4.335938 29.604166 4.682289 29.166670 5.234375 28.500000 C5.609377 28.041664 5.882812 27.276047 6.054688 26.203125 C6.226563 25.130203 6.312500 23.656259 6.312500 21.781250 L6.953125 21.437500 L8.968750 25.125000 L8.515625 27.500000 Z M16.625000 30.640625 C15.968747 30.640625 15.505210 30.549480 15.234375 30.367188 C14.963540 30.184895 14.828125 30.010418 14.828125 29.843750 C14.828125 29.583332 14.882812 29.343751 14.992188 29.125000 C15.101563 28.906249 15.270832 28.713542 15.500000 28.546875 L17.312500 27.593750 L18.843750 28.140625 L19.296875 29.203125 C19.119791 29.494793 18.846356 29.807290 18.476562 30.140625 C18.106769 30.473960 17.489588 30.640625 16.625000 30.640625 Z M7.031250 4.953125 C6.802082 4.953125 6.609376 4.875001 6.453125 4.718750 C6.296874 4.562499 6.218750 4.369793 6.218750 4.140625 C6.218750 3.911457 6.296874 3.718751 6.453125 3.562500 C6.609376 3.406249 6.802082 3.328125 7.031250 3.328125 C7.250001 3.328125 7.437499 3.406249 7.593750 3.562500 C7.750001 3.718751 7.828125 3.911457 7.828125 4.140625 C7.828125 4.369793 7.750001 4.562499 7.593750 4.718750 C7.437499 4.875001 7.250001 4.953125 7.031250 4.953125 Z M11.500000 21.765625 C11.218749 21.765625 10.979168 21.666668 10.781250 21.468750 C10.583332 21.270832 10.484375 21.031251 10.484375 20.750000 C10.484375 20.468749 10.583332 20.229168 10.781250 20.031250 C10.979168 19.833332 11.218749 19.734375 11.500000 19.734375 C11.781251 19.734375 12.020832 19.833332 12.218750 20.031250 C12.416668 20.229168 12.515625 20.468749 12.515625 20.750000 C12.515625 21.031251 12.416668 21.270832 12.218750 21.468750 C12.020832 21.666668 11.781251 21.765625 11.500000 21.765625 Z M17.125000 23.484375 C16.843749 23.484375 16.604168 23.385418 16.406250 23.187500 C16.208332 22.989582 16.109375 22.750001 16.109375 22.468750 C16.109375 22.187499 16.208332 21.947918 16.406250 21.750000 C16.604168 21.552082 16.843749 21.453125 17.125000 21.453125 C17.406251 21.453125 17.645832 21.552082 17.843750 21.750000 C18.041668 21.947918 18.140625 22.187499 18.140625 22.468750 C18.140625 22.750001 18.041668 22.989582 17.843750 23.187500 C17.645832 23.385418 17.406251 23.484375 17.125000 23.484375 Z M14.937500 20.812500 C14.708332 20.812500 14.510417 20.729168 14.343750 20.562500 C14.177082 20.395832 14.093750 20.197918 14.093750 19.968750 C14.093750 19.729165 14.177082 19.528647 14.343750 19.367188 C14.510417 19.205728 14.708332 19.125000 14.937500 19.125000 C15.177085 19.125000 15.377603 19.205728 15.539062 19.367188 C15.700522 19.528647 15.781250 19.729165 15.781250 19.968750 C15.781250 20.197918 15.700522 20.395832 15.539062 20.562500 C15.377603 20.729168 15.177085 20.812500 14.937500 20.812500 Z M19.312500 21.203125 C19.104166 21.203125 18.924480 21.127605 18.773438 20.976562 C18.622395 20.825520 18.546875 20.645834 18.546875 20.437500 C18.546875 20.229166 18.622395 20.049480 18.773438 19.898438 C18.924480 19.747395 19.104166 19.671875 19.312500 19.671875 C19.520834 19.671875 19.700520 19.747395 19.851562 19.898438 C20.002605 20.049480 20.078125 20.229166 20.078125 20.437500 C20.078125 20.645834 20.002605 20.825520 19.851562 20.976562 C19.700520 21.127605 19.520834 21.203125 19.312500 21.203125 Z M36.640625 27.343750" /></svg>