<svg version="1.1" xmlns="http://www.w3.org/2000/svg" style="fill:rgba(0,0,0,1.0)" width="256" height="256" viewBox="0 0 39.140625 32.8125"><path fill="rgb(255, 255, 255)" d="M1.359375 32.812500 L1.359375 14.281250 L2.921875 14.281250 L2.921875 31.250000 L34.734375 31.250000 L34.734375 14.281250 L36.296875 14.281250 L36.296875 32.812500 Z M1.656250 32.812500 C1.010413 32.812500 0.572918 32.742188 0.343750 32.601562 C0.114582 32.460937 0.000000 32.187502 0.000000 31.781250 C0.000000 31.135413 0.179686 30.528649 0.539062 29.960938 C0.898439 29.393226 1.382809 28.934898 1.992188 28.585938 C2.601566 28.236977 3.276038 28.062500 4.015625 28.062500 C4.567711 28.062500 5.190101 28.166666 5.882812 28.375000 C6.575524 28.583334 7.130206 28.859373 7.546875 29.203125 C7.890627 29.119791 8.182290 29.059896 8.421875 29.023438 C8.661460 28.986979 8.869791 28.968750 9.046875 28.968750 C9.755212 28.968750 10.335935 29.231768 10.789062 29.757812 C11.242190 30.283857 11.468750 30.963538 11.468750 31.796875 C11.468750 32.203127 11.346355 32.473958 11.101562 32.609375 C10.856770 32.744792 10.359379 32.812500 9.609375 32.812500 Z M4.015625 27.140625 L4.015625 22.453125 L9.484375 22.453125 L9.484375 27.140625 Z M5.265625 25.890625 L8.234375 25.890625 L8.234375 23.703125 L5.265625 23.703125 Z M15.546875 30.000000 L18.203125 30.000000 L18.203125 28.593750 L15.546875 28.593750 Z M10.578125 31.406250 L10.578125 14.281250 L11.828125 14.281250 L11.828125 31.406250 Z M4.015625 20.890625 L4.015625 16.203125 L9.484375 16.203125 L9.484375 20.890625 Z M5.265625 19.640625 L8.234375 19.640625 L8.234375 17.453125 L5.265625 17.453125 Z M15.546875 27.343750 L18.203125 27.343750 L18.203125 24.062500 L15.546875 24.062500 Z M19.453125 30.000000 L22.109375 30.000000 L22.109375 28.593750 L19.453125 28.593750 Z M14.140625 31.937500 L14.140625 20.156250 L23.515625 20.156250 L23.515625 31.937500 Z M19.453125 27.343750 L22.109375 27.343750 L22.109375 24.062500 L19.453125 24.062500 Z M15.546875 22.812500 L22.109375 22.812500 L22.109375 21.406250 L15.546875 21.406250 Z M28.046875 32.812500 C27.317705 32.812500 26.825522 32.744792 26.570312 32.609375 C26.315103 32.473958 26.187500 32.197919 26.187500 31.781250 C26.187500 31.197914 26.356769 30.661461 26.695312 30.171875 C27.033856 29.682289 27.486976 29.286460 28.054688 28.984375 C28.622399 28.682290 29.255205 28.531250 29.953125 28.531250 C30.609378 28.531250 31.213539 28.677082 31.765625 28.968750 C32.078127 28.718749 32.429686 28.520834 32.820312 28.375000 C33.210939 28.229166 33.624998 28.156250 34.062500 28.156250 C34.729170 28.156250 35.333331 28.317707 35.875000 28.640625 C36.416669 28.963543 36.848957 29.398435 37.171875 29.945312 C37.494793 30.492190 37.656250 31.098955 37.656250 31.765625 C37.656250 32.171877 37.533855 32.447916 37.289062 32.593750 C37.044270 32.739584 36.552087 32.812500 35.812500 32.812500 Z M25.828125 31.406250 L25.828125 14.281250 L27.078125 14.281250 L27.078125 31.406250 Z M17.546875 15.546875 L16.703125 14.625000 L18.203125 13.281250 L18.203125 10.843750 L19.453125 10.843750 L19.453125 13.843750 Z M18.828125 17.812500 C17.953121 17.812500 17.156254 17.601565 16.437500 17.179688 C15.718746 16.757810 15.148440 16.195316 14.726562 15.492188 C14.304685 14.789059 14.093750 14.010421 14.093750 13.156250 C14.093750 12.302079 14.304685 11.523441 14.726562 10.820312 C15.148440 10.117184 15.718746 9.554690 16.437500 9.132812 C17.156254 8.710935 17.953121 8.500000 18.828125 8.500000 C19.713546 8.500000 20.513017 8.710935 21.226562 9.132812 C21.940108 9.554690 22.507810 10.117184 22.929688 10.820312 C23.351565 11.523441 23.562500 12.302079 23.562500 13.156250 C23.562500 14.010421 23.351565 14.789059 22.929688 15.492188 C22.507810 16.195316 21.940108 16.757810 21.226562 17.179688 C20.513017 17.601565 19.713546 17.812500 18.828125 17.812500 Z M18.828125 16.562500 C19.453128 16.562500 20.023435 16.408856 20.539062 16.101562 C21.054690 15.794269 21.466144 15.382815 21.773438 14.867188 C22.080731 14.351560 22.234375 13.781253 22.234375 13.156250 C22.234375 12.531247 22.080731 11.960940 21.773438 11.445312 C21.466144 10.929685 21.054690 10.518231 20.539062 10.210938 C20.023435 9.903644 19.453128 9.750000 18.828125 9.750000 C18.203122 9.750000 17.632815 9.903644 17.117188 10.210938 C16.601560 10.518231 16.190106 10.929685 15.882812 11.445312 C15.575519 11.960940 15.421875 12.531247 15.421875 13.156250 C15.421875 13.781253 15.575519 14.351560 15.882812 14.867188 C16.190106 15.382815 16.601560 15.794269 17.117188 16.101562 C17.632815 16.408856 18.203122 16.562500 18.828125 16.562500 Z M28.171875 27.140625 L28.171875 22.453125 L33.640625 22.453125 L33.640625 27.140625 Z M29.421875 25.890625 L32.390625 25.890625 L32.390625 23.703125 L29.421875 23.703125 Z M0.062500 15.109375 L2.421875 7.609375 L11.203125 7.609375 L18.484375 0.156250 C18.588542 0.052083 18.703124 -0.000000 18.828125 -0.000000 C18.963542 -0.000000 19.078125 0.052083 19.171875 0.156250 L26.453125 7.609375 L35.234375 7.609375 L37.593750 15.109375 L25.828125 15.109375 L25.828125 11.437500 L19.062500 4.515625 C18.989583 4.442708 18.911459 4.406250 18.828125 4.406250 C18.734375 4.406250 18.656250 4.442708 18.593750 4.515625 L11.828125 11.437500 L11.828125 15.109375 Z M28.171875 20.890625 L28.171875 16.203125 L33.640625 16.203125 L33.640625 20.890625 Z M29.421875 19.640625 L32.390625 19.640625 L32.390625 17.453125 L29.421875 17.453125 Z M39.140625 27.343750" /></svg>