<svg version="1.1" xmlns="http://www.w3.org/2000/svg" style="fill:rgba(0,0,0,1.0)" width="256" height="256" viewBox="0 0 35.625 32.8125"><path fill="rgb(255, 255, 255)" d="M11.484375 32.812500 C8.192692 32.812500 5.596364 32.309901 3.695312 31.304688 C1.794261 30.299474 0.755209 28.890634 0.578125 27.078125 C0.484375 26.109370 0.401042 25.161463 0.328125 24.234375 C0.255208 23.307287 0.195313 22.330734 0.148438 21.304688 C0.101562 20.278641 0.065104 19.132819 0.039062 17.867188 C0.013021 16.601556 0.000000 15.140633 0.000000 13.484375 C0.000000 10.786445 0.471349 8.427093 1.414062 6.406250 C2.356776 4.385407 3.682283 2.812506 5.390625 1.687500 C7.098967 0.562494 9.104155 -0.000000 11.406250 -0.000000 C13.635428 -0.000000 15.593742 0.526036 17.281250 1.578125 C18.968758 2.630214 20.286454 4.104157 21.234375 6.000000 C22.182296 7.895843 22.656250 10.109362 22.656250 12.640625 L22.656250 20.562500 L20.781250 22.468750 L20.781250 12.640625 C20.781250 10.453114 20.385421 8.541675 19.593750 6.906250 C18.802079 5.270825 17.703132 3.997400 16.296875 3.085938 C14.890618 2.174475 13.260426 1.718750 11.406250 1.718750 C9.479157 1.718750 7.802090 2.210933 6.375000 3.195312 C4.947910 4.179692 3.841150 5.554679 3.054688 7.320312 C2.268225 9.085946 1.875000 11.145822 1.875000 13.500000 C1.875000 15.177092 1.885417 16.651035 1.906250 17.921875 C1.927083 19.192715 1.960937 20.333328 2.007812 21.343750 C2.054688 22.354172 2.114583 23.304683 2.187500 24.195312 C2.260417 25.085942 2.348958 25.989579 2.453125 26.906250 C2.588542 28.052089 3.398430 29.036454 4.882812 29.859375 C6.367195 30.682296 8.567694 31.093750 11.484375 31.093750 C12.973966 31.093750 14.320306 30.994793 15.523438 30.796875 C16.726569 30.598957 17.765621 30.338543 18.640625 30.015625 L20.531250 31.203125 C19.489578 31.713544 18.205737 32.109374 16.679688 32.390625 C15.153638 32.671876 13.421885 32.812500 11.484375 32.812500 Z M3.656250 15.843750 C3.625000 15.760416 3.609375 15.640626 3.609375 15.484375 L3.609375 13.421875 C3.609375 13.276041 3.619792 13.166667 3.640625 13.093750 C3.390624 13.166667 3.080731 13.302082 2.710938 13.500000 C2.341144 13.697918 2.057293 13.885416 1.859375 14.062500 L1.859375 14.312500 Z M11.484375 22.437500 C9.901034 22.437500 8.546881 21.937505 7.421875 20.937500 L8.453125 19.750000 C9.276046 20.500004 10.286452 20.875000 11.484375 20.875000 C12.682298 20.875000 13.692704 20.500004 14.515625 19.750000 L15.546875 20.937500 C14.421869 21.937505 13.067716 22.437500 11.484375 22.437500 Z M7.375000 16.531250 C6.947915 16.531250 6.604168 16.377606 6.343750 16.070312 C6.083332 15.763019 5.953125 15.395835 5.953125 14.968750 C5.953125 14.541665 6.083332 14.174481 6.343750 13.867188 C6.604168 13.559894 6.947915 13.406250 7.375000 13.406250 C7.802085 13.406250 8.145832 13.559894 8.406250 13.867188 C8.666668 14.174481 8.796875 14.541665 8.796875 14.968750 C8.796875 15.395835 8.666668 15.763019 8.406250 16.070312 C8.145832 16.377606 7.802085 16.531250 7.375000 16.531250 Z M6.625000 19.437500 C5.927080 19.437500 5.276045 19.265627 4.671875 18.921875 C4.067705 18.578123 3.526044 18.192710 3.046875 17.765625 L1.375000 16.234375 L1.375000 12.218750 C1.645835 12.010416 2.049476 11.786460 2.585938 11.546875 C3.122399 11.307290 3.679685 11.101563 4.257812 10.929688 C4.835940 10.757812 5.322915 10.671875 5.718750 10.671875 L17.250000 10.671875 C17.645835 10.671875 18.132810 10.757812 18.710938 10.929688 C19.289065 11.101563 19.848956 11.307290 20.390625 11.546875 C20.932294 11.786460 21.333332 12.010416 21.593750 12.218750 L21.593750 16.234375 L19.921875 17.765625 C19.442706 18.192710 18.903649 18.578123 18.304688 18.921875 C17.705726 19.265627 17.052087 19.437500 16.343750 19.437500 C15.708330 19.437500 15.143232 19.328126 14.648438 19.109375 C14.153643 18.890624 13.716148 18.640626 13.335938 18.359375 C12.955727 18.078124 12.617189 17.828126 12.320312 17.609375 C12.023436 17.390624 11.744793 17.281250 11.484375 17.281250 C11.223957 17.281250 10.945314 17.390624 10.648438 17.609375 C10.351561 17.828126 10.013023 18.078124 9.632812 18.359375 C9.252602 18.640626 8.817711 18.890624 8.328125 19.109375 C7.838539 19.328126 7.270837 19.437500 6.625000 19.437500 Z M6.625000 17.718750 C7.166669 17.718750 7.638019 17.609376 8.039062 17.390625 C8.440106 17.171874 8.809894 16.921876 9.148438 16.640625 C9.486981 16.359374 9.841144 16.109376 10.210938 15.890625 C10.580731 15.671874 11.005206 15.562500 11.484375 15.562500 C11.963544 15.562500 12.388019 15.671874 12.757812 15.890625 C13.127606 16.109376 13.481769 16.359374 13.820312 16.640625 C14.158856 16.921876 14.528644 17.171874 14.929688 17.390625 C15.330731 17.609376 15.802081 17.718750 16.343750 17.718750 C16.895836 17.718750 17.276041 17.572918 17.484375 17.281250 C17.692709 16.989582 17.796875 16.526045 17.796875 15.890625 L17.796875 13.078125 C17.796875 12.859374 17.750000 12.690105 17.656250 12.570312 C17.562500 12.450520 17.427084 12.390625 17.250000 12.390625 L5.718750 12.390625 C5.541666 12.390625 5.406250 12.450520 5.312500 12.570312 C5.218750 12.690105 5.171875 12.859374 5.171875 13.078125 L5.171875 15.890625 C5.171875 16.526045 5.278645 16.989582 5.492188 17.281250 C5.705730 17.572918 6.083331 17.718750 6.625000 17.718750 Z M15.593750 16.531250 C15.166665 16.531250 14.822918 16.377606 14.562500 16.070312 C14.302082 15.763019 14.171875 15.395835 14.171875 14.968750 C14.171875 14.541665 14.302082 14.174481 14.562500 13.867188 C14.822918 13.559894 15.166665 13.406250 15.593750 13.406250 C16.020835 13.406250 16.364582 13.559894 16.625000 13.867188 C16.885418 14.174481 17.015625 14.541665 17.015625 14.968750 C17.015625 15.395835 16.885418 15.763019 16.625000 16.070312 C16.364582 16.377606 16.020835 16.531250 15.593750 16.531250 Z M25.000000 32.812500 C24.291663 32.812500 23.510421 32.703126 22.656250 32.484375 C21.802079 32.265624 20.950525 31.973960 20.101562 31.609375 C19.252600 31.244790 18.476566 30.838544 17.773438 30.390625 C17.070309 29.942706 16.505210 29.481773 16.078125 29.007812 C15.651040 28.533852 15.437500 28.088544 15.437500 27.671875 C15.437500 27.161456 15.630206 26.713544 16.015625 26.328125 L22.093750 20.234375 L25.562500 12.125000 C25.708334 11.791665 25.919269 11.562501 26.195312 11.437500 C26.471356 11.312499 26.781248 11.250000 27.125000 11.250000 C27.666669 11.250000 28.205726 11.369790 28.742188 11.609375 C29.278649 11.848960 29.726561 12.145832 30.085938 12.500000 C30.445314 12.854168 30.625000 13.208332 30.625000 13.562500 C30.625000 13.739584 30.588542 13.916666 30.515625 14.093750 L27.406250 22.390625 L27.406250 31.140625 C27.406250 31.703128 27.182294 32.122394 26.734375 32.398438 C26.286456 32.674481 25.708337 32.812500 25.000000 32.812500 Z M22.890625 25.843750 C23.473961 25.843750 24.007810 25.802084 24.492188 25.718750 C24.976565 25.635416 25.432290 25.531251 25.859375 25.406250 L25.859375 23.468750 L23.843750 22.640625 L24.187500 21.765625 L25.859375 22.453125 L25.859375 22.078125 L26.187500 21.187500 L24.656250 20.562500 L25.000000 19.687500 L26.531250 20.312500 L27.000000 19.093750 L25.484375 18.484375 L25.828125 17.609375 L27.328125 18.218750 L27.781250 17.000000 L26.296875 16.406250 L26.640625 15.531250 L28.109375 16.125000 L28.531250 15.031250 C28.166665 14.979166 27.783856 14.872397 27.382812 14.710938 C26.981769 14.549478 26.645835 14.364584 26.375000 14.156250 L23.406250 21.093750 L19.218750 25.281250 C19.927087 25.479168 20.585934 25.622395 21.195312 25.710938 C21.804691 25.799480 22.369789 25.843750 22.890625 25.843750 Z M19.312500 15.843750 L21.109375 14.312500 L21.109375 14.062500 C20.911457 13.885416 20.627606 13.697918 20.257812 13.500000 C19.888019 13.302082 19.578126 13.166667 19.328125 13.093750 C19.348958 13.166667 19.359375 13.276041 19.359375 13.421875 L19.359375 15.484375 C19.359375 15.640626 19.343750 15.760416 19.312500 15.843750 Z M28.953125 13.812500 C29.234376 13.812500 29.375000 13.739584 29.375000 13.593750 C29.375000 13.479166 29.244793 13.335938 28.984375 13.164062 C28.723957 12.992187 28.416668 12.838542 28.062500 12.703125 C27.708332 12.567708 27.395835 12.500000 27.125000 12.500000 C26.843749 12.500000 26.703125 12.572916 26.703125 12.718750 C26.703125 12.822917 26.833332 12.963541 27.093750 13.140625 C27.354168 13.317709 27.661457 13.473958 28.015625 13.609375 C28.369793 13.744792 28.682290 13.812500 28.953125 13.812500 Z M35.625000 27.343750" /></svg>