<svg version="1.1" xmlns="http://www.w3.org/2000/svg" style="fill:rgba(0,0,0,1.0)" width="256" height="256" viewBox="0 0 39.53125 31.25"><path fill="rgb(255, 255, 255)" d="M2.640625 17.265625 C2.348957 16.859373 2.122397 16.414065 1.960938 15.929688 C1.799478 15.445310 1.718750 14.932294 1.718750 14.390625 C1.718750 13.088535 2.130204 12.010421 2.953125 11.156250 C3.776046 10.302079 4.781244 9.828125 5.968750 9.734375 C6.562503 7.786449 7.494785 6.083341 8.765625 4.625000 C10.036465 3.166659 11.562491 2.031254 13.343750 1.218750 C15.125009 0.406246 17.083323 -0.000000 19.218750 -0.000000 C21.364594 -0.000000 23.328116 0.406246 25.109375 1.218750 C26.890634 2.031254 28.416660 3.166659 29.687500 4.625000 C30.958340 6.083341 31.885414 7.786449 32.468750 9.734375 C33.656256 9.828125 34.661454 10.302079 35.484375 11.156250 C36.307296 12.010421 36.718750 13.088535 36.718750 14.390625 C36.718750 14.932294 36.640626 15.445310 36.484375 15.929688 C36.328124 16.414065 36.098960 16.859373 35.796875 17.265625 L34.734375 15.734375 C34.817709 15.536457 34.882812 15.325522 34.929688 15.101562 C34.976563 14.877603 35.000000 14.640626 35.000000 14.390625 C35.000000 13.494787 34.713545 12.778649 34.140625 12.242188 C33.567705 11.705726 32.864588 11.437500 32.031250 11.437500 L30.984375 11.437500 C30.598956 9.499990 29.861985 7.802091 28.773438 6.343750 C27.684890 4.885409 26.325529 3.750004 24.695312 2.937500 C23.065096 2.124996 21.239593 1.718750 19.218750 1.718750 C17.197907 1.718750 15.372404 2.124996 13.742188 2.937500 C12.111971 3.750004 10.755214 4.885409 9.671875 6.343750 C8.588536 7.802091 7.848960 9.499990 7.453125 11.437500 L6.406250 11.437500 C5.583329 11.437500 4.882815 11.705726 4.304688 12.242188 C3.726560 12.778649 3.437500 13.494787 3.437500 14.390625 C3.437500 14.640626 3.460937 14.877603 3.507812 15.101562 C3.554688 15.325522 3.619791 15.536457 3.703125 15.734375 Z M6.890625 31.250000 C5.463535 31.250000 4.234380 30.937503 3.203125 30.312500 C2.171870 29.687497 1.380211 28.807297 0.828125 27.671875 C0.276039 26.536453 0.000000 25.208341 0.000000 23.687500 C0.000000 22.552078 0.164061 21.445318 0.492188 20.367188 C0.820314 19.289057 1.338538 18.174485 2.046875 17.023438 C2.755212 15.872390 3.666661 14.619798 4.781250 13.265625 L5.078125 12.906250 C6.192714 11.562493 7.127600 10.476567 7.882812 9.648438 C8.638025 8.820308 9.302080 8.190106 9.875000 7.757812 C10.447920 7.325519 10.999997 7.033855 11.531250 6.882812 C12.062503 6.731770 12.661455 6.656250 13.328125 6.656250 C13.630210 6.656250 13.932290 6.708333 14.234375 6.812500 C14.536460 6.916667 14.776041 7.083332 14.953125 7.312500 C15.098959 7.510418 15.177083 7.718749 15.187500 7.937500 C15.260417 7.927083 15.346354 7.919271 15.445312 7.914062 C15.544271 7.908854 15.640625 7.906250 15.734375 7.906250 C16.348961 7.906250 16.932289 8.049478 17.484375 8.335938 C18.036461 8.622397 18.489582 9.070309 18.843750 9.679688 C19.197918 10.289066 19.375000 11.083328 19.375000 12.062500 C19.375000 12.770837 19.218752 13.434893 18.906250 14.054688 C18.593748 14.674482 18.132816 15.221352 17.523438 15.695312 C16.914059 16.169273 16.166671 16.552082 15.281250 16.843750 C14.458329 17.104168 13.721357 17.361978 13.070312 17.617188 C12.419268 17.872397 11.661463 18.182290 10.796875 18.546875 C9.296868 19.171878 8.041672 19.888017 7.031250 20.695312 C6.020828 21.502608 5.515625 22.421870 5.515625 23.453125 C5.515625 23.901044 5.648436 24.273436 5.914062 24.570312 C6.179689 24.867189 6.520831 25.015625 6.937500 25.015625 C7.270835 25.015625 7.619790 24.903647 7.984375 24.679688 C8.348960 24.455728 8.739581 24.109377 9.156250 23.640625 L10.140625 24.890625 C9.598956 25.463545 9.067711 25.888019 8.546875 26.164062 C8.026039 26.440106 7.489586 26.578125 6.937500 26.578125 C6.072912 26.578125 5.346357 26.278649 4.757812 25.679688 C4.169268 25.080726 3.875000 24.338546 3.875000 23.453125 C3.875000 22.046868 4.471348 20.807297 5.664062 19.734375 C6.856777 18.661453 8.359366 17.786462 10.171875 17.109375 C11.036463 16.776040 11.859371 16.468751 12.640625 16.187500 C13.421879 15.906249 14.208329 15.635418 15.000000 15.375000 C15.593753 15.177082 16.101560 14.924481 16.523438 14.617188 C16.945315 14.309894 17.265624 13.953127 17.484375 13.546875 C17.703126 13.140623 17.812500 12.703127 17.812500 12.234375 C17.812500 11.432288 17.627606 10.822919 17.257812 10.406250 C16.888019 9.989581 16.364587 9.781250 15.687500 9.781250 C15.218748 9.781250 14.838543 9.843749 14.546875 9.968750 C14.255207 10.093751 14.000001 10.218749 13.781250 10.343750 C13.562499 10.468751 13.312501 10.531250 13.031250 10.531250 C12.656248 10.531250 12.468750 10.380210 12.468750 10.078125 C12.468750 9.880207 12.570311 9.703126 12.773438 9.546875 C12.976564 9.390624 13.177082 9.242188 13.375000 9.101562 C13.572918 8.960937 13.671875 8.828126 13.671875 8.703125 C13.671875 8.453124 13.390628 8.328125 12.828125 8.328125 C12.057288 8.328125 11.182297 8.755204 10.203125 9.609375 C9.223953 10.463546 7.984382 11.854157 6.484375 13.781250 L6.156250 14.203125 C5.072911 15.609382 4.197920 16.848953 3.531250 17.921875 C2.864580 18.994797 2.382814 19.989579 2.085938 20.906250 C1.789061 21.822921 1.640625 22.749995 1.640625 23.687500 C1.640625 25.458342 2.109370 26.901036 3.046875 28.015625 C3.984380 29.130214 5.265617 29.687500 6.890625 29.687500 C7.671879 29.687500 8.442705 29.528647 9.203125 29.210938 C9.963545 28.893228 10.671872 28.447920 11.328125 27.875000 C11.984378 27.302080 12.541664 26.630212 13.000000 25.859375 L14.343750 26.640625 C13.770830 27.598963 13.093754 28.424476 12.312500 29.117188 C11.531246 29.809899 10.679692 30.338540 9.757812 30.703125 C8.835933 31.067710 7.880213 31.250000 6.890625 31.250000 Z M19.218750 27.656250 C16.052068 27.656250 13.398448 27.091151 11.257812 25.960938 C9.117177 24.830724 7.541672 23.166678 6.531250 20.968750 L7.812500 19.593750 C9.395841 23.822938 13.197887 25.937500 19.218750 25.937500 C25.239613 25.937500 29.041659 23.822938 30.625000 19.593750 L31.906250 20.968750 C30.895828 23.166678 29.320323 24.830724 27.179688 25.960938 C25.039052 27.091151 22.385432 27.656250 19.218750 27.656250 Z M19.218750 24.687500 C17.302074 24.687500 15.614591 24.447919 14.156250 23.968750 C12.697909 23.489581 11.557296 22.802088 10.734375 21.906250 C9.911454 21.010412 9.500000 19.947923 9.500000 18.718750 C9.500000 18.625000 9.502604 18.531250 9.507812 18.437500 C9.513021 18.343750 9.520833 18.250000 9.531250 18.156250 L11.328125 17.593750 C11.276041 17.770834 11.231771 17.950520 11.195312 18.132812 C11.158854 18.315105 11.140625 18.510416 11.140625 18.718750 C11.140625 20.072923 11.877597 21.145829 13.351562 21.937500 C14.825528 22.729171 16.781238 23.125000 19.218750 23.125000 C21.656262 23.125000 23.611972 22.729171 25.085938 21.937500 C26.559903 21.145829 27.296875 20.072923 27.296875 18.718750 C27.296875 18.510416 27.278646 18.315105 27.242188 18.132812 C27.205729 17.950520 27.161459 17.770834 27.109375 17.593750 L28.906250 18.156250 C28.916667 18.218750 28.924479 18.309895 28.929688 18.429688 C28.934896 18.549480 28.937500 18.645833 28.937500 18.718750 C28.937500 19.947923 28.526046 21.010412 27.703125 21.906250 C26.880204 22.802088 25.739591 23.489581 24.281250 23.968750 C22.822909 24.447919 21.135426 24.687500 19.218750 24.687500 Z M19.218750 21.578125 C18.291662 21.578125 17.429691 21.468751 16.632812 21.250000 C15.835934 21.031249 15.192711 20.747398 14.703125 20.398438 C14.213539 20.049477 13.968750 19.682294 13.968750 19.296875 C13.968750 18.776039 14.424475 18.377606 15.335938 18.101562 C16.247400 17.825519 17.541658 17.687500 19.218750 17.687500 C20.885425 17.687500 22.177079 17.825519 23.093750 18.101562 C24.010421 18.377606 24.468750 18.776039 24.468750 19.296875 C24.468750 19.682294 24.223961 20.049477 23.734375 20.398438 C23.244789 20.747398 22.601566 21.031249 21.804688 21.250000 C21.007809 21.468751 20.145838 21.578125 19.218750 21.578125 Z M19.218750 17.015625 C18.895832 17.015625 18.591147 16.898439 18.304688 16.664062 C18.018228 16.429686 17.875000 16.182293 17.875000 15.921875 C17.875000 15.557290 18.322912 15.375000 19.218750 15.375000 C20.114588 15.375000 20.562500 15.557290 20.562500 15.921875 C20.562500 16.182293 20.419272 16.429686 20.132812 16.664062 C19.846353 16.898439 19.541668 17.015625 19.218750 17.015625 Z M31.546875 31.250000 C30.557287 31.250000 29.601567 31.067710 28.679688 30.703125 C27.757808 30.338540 26.906254 29.809899 26.125000 29.117188 C25.343746 28.424476 24.666670 27.598963 24.093750 26.640625 L25.437500 25.859375 C25.895836 26.630212 26.453122 27.302080 27.109375 27.875000 C27.765628 28.447920 28.473955 28.893228 29.234375 29.210938 C29.994795 29.528647 30.765621 29.687500 31.546875 29.687500 C33.171883 29.687500 34.453120 29.130214 35.390625 28.015625 C36.328130 26.901036 36.796875 25.458342 36.796875 23.687500 C36.796875 22.749995 36.648439 21.822921 36.351562 20.906250 C36.054686 19.989579 35.575524 18.994797 34.914062 17.921875 C34.252601 16.848953 33.375005 15.609382 32.281250 14.203125 L31.953125 13.781250 C30.453118 11.854157 29.213547 10.463546 28.234375 9.609375 C27.255203 8.755204 26.380212 8.328125 25.609375 8.328125 C25.046872 8.328125 24.765625 8.453124 24.765625 8.703125 C24.765625 8.828126 24.867186 8.960937 25.070312 9.101562 C25.273439 9.242188 25.473957 9.390624 25.671875 9.546875 C25.869793 9.703126 25.968750 9.880207 25.968750 10.078125 C25.968750 10.380210 25.781252 10.531250 25.406250 10.531250 C25.135415 10.531250 24.888022 10.468751 24.664062 10.343750 C24.440103 10.218749 24.184897 10.093751 23.898438 9.968750 C23.611978 9.843749 23.229169 9.781250 22.750000 9.781250 C22.072913 9.781250 21.549481 9.989581 21.179688 10.406250 C20.809894 10.822919 20.625000 11.432288 20.625000 12.234375 C20.625000 12.703127 20.736978 13.140623 20.960938 13.546875 C21.184897 13.953127 21.505206 14.309894 21.921875 14.617188 C22.338544 14.924481 22.843747 15.177082 23.437500 15.375000 C24.229171 15.635418 25.015621 15.906249 25.796875 16.187500 C26.578129 16.468751 27.401037 16.776040 28.265625 17.109375 C30.078134 17.796878 31.580723 18.674474 32.773438 19.742188 C33.966152 20.809901 34.562500 22.046868 34.562500 23.453125 C34.562500 24.338546 34.268232 25.080726 33.679688 25.679688 C33.091143 26.278649 32.364588 26.578125 31.500000 26.578125 C30.958331 26.578125 30.427086 26.440106 29.906250 26.164062 C29.385414 25.888019 28.848961 25.463545 28.296875 24.890625 L29.281250 23.640625 C29.697919 24.109377 30.091144 24.455728 30.460938 24.679688 C30.830731 24.903647 31.177082 25.015625 31.500000 25.015625 C31.916669 25.015625 32.257811 24.867189 32.523438 24.570312 C32.789064 24.273436 32.921875 23.901044 32.921875 23.453125 C32.921875 22.421870 32.416672 21.502608 31.406250 20.695312 C30.395828 19.888017 29.140633 19.171878 27.640625 18.546875 C26.786454 18.182290 26.033857 17.872397 25.382812 17.617188 C24.731768 17.361978 23.989588 17.104168 23.156250 16.843750 C22.270829 16.552082 21.523441 16.169273 20.914062 15.695312 C20.304684 15.221352 19.843752 14.674482 19.531250 14.054688 C19.218748 13.434893 19.062500 12.770837 19.062500 12.062500 C19.062500 11.083328 19.239582 10.289066 19.593750 9.679688 C19.947918 9.070309 20.403643 8.622397 20.960938 8.335938 C21.518232 8.049478 22.098955 7.906250 22.703125 7.906250 C22.796875 7.906250 22.893229 7.908854 22.992188 7.914062 C23.091146 7.919271 23.177083 7.927083 23.250000 7.937500 C23.260417 7.718749 23.338541 7.510418 23.484375 7.312500 C23.661459 7.072915 23.901040 6.903646 24.203125 6.804688 C24.505210 6.705729 24.807290 6.656250 25.109375 6.656250 C25.776045 6.656250 26.374997 6.731770 26.906250 6.882812 C27.437503 7.033855 27.989580 7.325519 28.562500 7.757812 C29.135420 8.190106 29.799475 8.820308 30.554688 9.648438 C31.309900 10.476567 32.244786 11.562493 33.359375 12.906250 L33.656250 13.265625 C34.781256 14.619798 35.695309 15.872390 36.398438 17.023438 C37.101566 18.174485 37.617186 19.289057 37.945312 20.367188 C38.273439 21.445318 38.437500 22.552078 38.437500 23.687500 C38.437500 25.208341 38.161461 26.536453 37.609375 27.671875 C37.057289 28.807297 36.268234 29.687497 35.242188 30.312500 C34.216141 30.937503 32.984382 31.250000 31.546875 31.250000 Z M19.218750 9.281250 C18.562497 9.281250 17.958336 9.184897 17.406250 8.992188 C16.854164 8.799478 16.315107 8.606772 15.789062 8.414062 C15.263018 8.221353 14.692711 8.125000 14.078125 8.125000 L10.250000 8.546875 C10.604168 7.859372 11.122392 7.356772 11.804688 7.039062 C12.486983 6.721353 13.244788 6.562500 14.078125 6.562500 C14.786462 6.562500 15.453122 6.658853 16.078125 6.851562 C16.703128 7.044272 17.278643 7.236978 17.804688 7.429688 C18.330732 7.622397 18.802081 7.718750 19.218750 7.718750 C19.635419 7.718750 20.106768 7.622397 20.632812 7.429688 C21.158857 7.236978 21.734372 7.044272 22.359375 6.851562 C22.984378 6.658853 23.651038 6.562500 24.359375 6.562500 C25.192712 6.562500 25.950517 6.721353 26.632812 7.039062 C27.315108 7.356772 27.833332 7.859372 28.187500 8.546875 L24.359375 8.125000 C23.755205 8.125000 23.187503 8.221353 22.656250 8.414062 C22.124997 8.606772 21.585940 8.799478 21.039062 8.992188 C20.492185 9.184897 19.885420 9.281250 19.218750 9.281250 Z M39.531250 26.562500" /></svg>