<svg version="1.1" xmlns="http://www.w3.org/2000/svg" style="fill:rgba(0,0,0,1.0)" width="256" height="256" viewBox="0 0 35.125 32.8125"><path fill="rgb(255, 255, 255)" d="M0.765625 32.812500 L0.000000 18.093750 L1.781250 17.781250 L2.421875 31.000000 C4.932304 30.843749 7.372384 30.617189 9.742188 30.320312 C12.111991 30.023436 14.463530 29.638023 16.796875 29.164062 C19.130220 28.690102 21.494780 28.125003 23.890625 27.468750 C25.161465 27.468750 26.135413 27.307293 26.812500 26.984375 C27.489587 26.661457 27.828125 26.213545 27.828125 25.640625 C27.828125 25.369790 27.760417 25.088543 27.625000 24.796875 C27.489583 24.505207 27.255210 24.197918 26.921875 23.875000 L26.531250 11.906250 C26.895835 11.802083 27.195311 11.596356 27.429688 11.289062 C27.664064 10.981769 27.781250 10.630210 27.781250 10.234375 C27.781250 9.765623 27.611981 9.361981 27.273438 9.023438 C26.934894 8.684894 26.531252 8.515625 26.062500 8.515625 C25.843749 8.515625 25.614585 8.533854 25.375000 8.570312 C25.135415 8.606771 24.869793 8.682291 24.578125 8.796875 C24.505208 8.057288 24.268231 7.481773 23.867188 7.070312 C23.466144 6.658852 22.947920 6.453125 22.312500 6.453125 C22.124999 6.453125 21.934897 6.460937 21.742188 6.476562 C21.549478 6.492188 21.364584 6.526041 21.187500 6.578125 C21.104166 6.151040 20.869794 5.770835 20.484375 5.437500 C20.098956 5.104165 19.625003 4.932292 19.062500 4.921875 C18.937499 4.921875 18.843750 4.927083 18.781250 4.937500 L18.546875 3.421875 C18.744793 3.380208 18.958332 3.359375 19.187500 3.359375 C19.770836 3.359375 20.312498 3.502603 20.812500 3.789062 C21.312502 4.075522 21.708332 4.463539 22.000000 4.953125 C22.083334 4.942708 22.164062 4.934896 22.242188 4.929688 C22.320313 4.924479 22.395833 4.921875 22.468750 4.921875 C23.145837 4.921875 23.763018 5.114581 24.320312 5.500000 C24.877607 5.885419 25.276040 6.385414 25.515625 7.000000 C25.703126 6.968750 25.885416 6.953125 26.062500 6.953125 C26.968755 6.953125 27.742184 7.273434 28.382812 7.914062 C29.023441 8.554691 29.343750 9.328120 29.343750 10.234375 C29.343750 11.171880 28.984379 11.984372 28.265625 12.671875 L28.609375 23.062500 C28.963543 23.510419 29.221353 23.955727 29.382812 24.398438 C29.544272 24.841148 29.625000 25.260415 29.625000 25.656250 C29.625000 26.656255 29.171880 27.484372 28.265625 28.140625 C27.359370 28.796878 26.151049 29.125000 24.640625 29.125000 C19.921851 30.395840 15.643248 31.328122 11.804688 31.921875 C7.966127 32.515628 4.286476 32.812500 0.765625 32.812500 Z M3.843750 28.656250 C3.843750 27.687495 4.169268 26.919274 4.820312 26.351562 C5.471357 25.783851 6.208329 25.500000 7.031250 25.500000 C7.739587 25.500000 8.429684 25.716144 9.101562 26.148438 C9.773441 26.580731 10.270832 27.187496 10.593750 27.968750 Z M0.812500 29.375000 L0.750000 27.796875 C4.927104 27.619791 8.989564 27.205732 12.937500 26.554688 C16.885436 25.903643 20.708315 25.010422 24.406250 23.875000 L24.859375 25.375000 C21.015606 26.562506 17.078145 27.473955 13.046875 28.109375 C9.015605 28.744795 4.937521 29.166666 0.812500 29.375000 Z M13.234375 25.593750 C12.567705 25.593750 11.929691 25.432293 11.320312 25.109375 C10.710934 24.786457 10.276043 24.307295 10.015625 23.671875 L16.671875 22.390625 C16.671875 23.463547 16.315108 24.265622 15.601562 24.796875 C14.888017 25.328128 14.098963 25.593750 13.234375 25.593750 Z M23.781250 28.015625 L23.468750 18.593750 C23.458333 18.364582 23.414063 18.197917 23.335938 18.093750 C23.257812 17.989583 23.130209 17.937500 22.953125 17.937500 C22.838541 17.937500 22.687501 17.963541 22.500000 18.015625 C20.739575 18.484377 18.705741 18.976560 16.398438 19.492188 C14.091134 20.007815 11.622409 20.481769 8.992188 20.914062 C6.361966 21.346356 3.677097 21.692707 0.937500 21.953125 L0.625000 20.359375 C3.333347 20.130207 6.005195 19.799481 8.640625 19.367188 C11.276055 18.934894 13.786446 18.453128 16.171875 17.921875 C18.557304 17.390622 20.723949 16.864586 22.671875 16.343750 C22.911460 16.281250 23.124999 16.231771 23.312500 16.195312 C23.500001 16.158854 23.671874 16.140625 23.828125 16.140625 C24.317711 16.140625 24.658853 16.312498 24.851562 16.656250 C25.044272 17.000002 25.151042 17.557288 25.171875 18.328125 L25.484375 27.515625 Z M0.812500 25.203125 L0.750000 23.656250 C3.510430 23.406249 6.296861 23.065106 9.109375 22.632812 C11.921889 22.200519 14.635404 21.697920 17.250000 21.125000 C19.864596 20.552080 22.249989 19.932295 24.406250 19.265625 L24.859375 20.734375 C22.494780 21.473962 19.984388 22.138018 17.328125 22.726562 C14.671862 23.315107 11.950535 23.817706 9.164062 24.234375 C6.377590 24.651044 3.593764 24.973957 0.812500 25.203125 Z M17.703125 26.375000 C17.703125 25.562496 17.901040 24.893232 18.296875 24.367188 C18.692710 23.841143 19.184893 23.450522 19.773438 23.195312 C20.361982 22.940103 20.947914 22.812500 21.531250 22.812500 C22.166670 22.812500 22.718748 22.958332 23.187500 23.250000 C23.656252 23.541668 23.890625 23.968747 23.890625 24.531250 Z M0.531250 18.656250 L0.000000 18.093750 C1.729175 15.677071 3.489574 13.375011 5.281250 11.187500 C7.072926 8.999989 8.911449 6.927093 10.796875 4.968750 L10.796875 7.625000 C9.473952 9.010424 8.195319 10.453118 6.960938 11.953125 C5.726556 13.453132 4.536464 14.984367 3.390625 16.546875 C5.119800 16.348957 6.927074 16.098960 8.812500 15.796875 C10.697926 15.494790 12.575511 15.151044 14.445312 14.765625 C16.315114 14.380206 18.088533 13.966148 19.765625 13.523438 C21.442717 13.080727 22.932285 12.625002 24.234375 12.156250 C23.411454 11.656248 22.497401 11.148440 21.492188 10.632812 C20.486974 10.117185 19.494797 9.640627 18.515625 9.203125 L18.765625 7.578125 C20.317716 8.307295 21.937492 9.122391 23.625000 10.023438 C25.312508 10.924484 26.859368 11.807287 28.265625 12.671875 C25.161443 13.838548 21.976579 14.820309 18.710938 15.617188 C15.445296 16.414066 12.260432 17.057289 9.156250 17.546875 C6.052068 18.036461 3.177097 18.406249 0.531250 18.656250 Z M12.265625 8.812500 C12.463543 8.812500 12.627604 8.705730 12.757812 8.492188 C12.888021 8.278645 12.953125 8.026043 12.953125 7.734375 C12.953125 7.276039 12.776043 7.046875 12.421875 7.046875 C12.223957 7.046875 12.057292 7.153645 11.921875 7.367188 C11.786458 7.580730 11.718750 7.833332 11.718750 8.125000 C11.718750 8.583336 11.901040 8.812500 12.265625 8.812500 Z M14.734375 7.296875 C15.130210 7.296875 15.328125 6.994795 15.328125 6.390625 C15.328125 5.786455 15.130210 5.484375 14.734375 5.484375 C14.338540 5.484375 14.140625 5.786455 14.140625 6.390625 C14.140625 6.994795 14.338540 7.296875 14.734375 7.296875 Z M12.828125 4.875000 C13.067710 4.875000 13.260416 4.739585 13.406250 4.468750 C13.552084 4.197915 13.625000 3.958334 13.625000 3.750000 C13.625000 3.541666 13.572917 3.388021 13.468750 3.289062 C13.364583 3.190104 13.244792 3.140625 13.109375 3.140625 C12.890624 3.140625 12.700522 3.265624 12.539062 3.515625 C12.377603 3.765626 12.296875 4.015624 12.296875 4.265625 C12.296875 4.463543 12.354166 4.614583 12.468750 4.718750 C12.583334 4.822917 12.703124 4.875000 12.828125 4.875000 Z M14.734375 11.281250 C13.046867 11.281250 11.796879 10.958337 10.984375 10.312500 C10.171871 9.666663 9.765625 8.609382 9.765625 7.140625 C9.765625 6.307288 9.908853 5.468754 10.195312 4.625000 C10.481772 3.781246 10.861977 3.010420 11.335938 2.312500 C11.809898 1.614580 12.343747 1.054690 12.937500 0.632812 C13.531253 0.210935 14.130205 -0.000000 14.734375 -0.000000 C15.348961 -0.000000 15.950518 0.210935 16.539062 0.632812 C17.127607 1.054690 17.658852 1.614580 18.132812 2.312500 C18.606773 3.010420 18.986978 3.781246 19.273438 4.625000 C19.559897 5.468754 19.703125 6.307288 19.703125 7.140625 C19.703125 8.609382 19.296879 9.666663 18.484375 10.312500 C17.671871 10.958337 16.421883 11.281250 14.734375 11.281250 Z M17.171875 8.812500 C17.536460 8.812500 17.718750 8.583336 17.718750 8.125000 C17.718750 7.833332 17.651042 7.580730 17.515625 7.367188 C17.380208 7.153645 17.213543 7.046875 17.015625 7.046875 C16.661457 7.046875 16.484375 7.276039 16.484375 7.734375 C16.484375 8.026043 16.549479 8.278645 16.679688 8.492188 C16.809896 8.705730 16.973957 8.812500 17.171875 8.812500 Z M16.531250 4.875000 C16.656251 4.875000 16.776041 4.822917 16.890625 4.718750 C17.005209 4.614583 17.062500 4.463543 17.062500 4.265625 C17.062500 4.015624 16.981772 3.765626 16.820312 3.515625 C16.658853 3.265624 16.468751 3.140625 16.250000 3.140625 C16.114583 3.140625 15.994792 3.190104 15.890625 3.289062 C15.786458 3.388021 15.734375 3.541666 15.734375 3.750000 C15.734375 3.958334 15.809895 4.197915 15.960938 4.468750 C16.111980 4.739585 16.302082 4.875000 16.531250 4.875000 Z M35.125000 27.343750" /></svg>