<svg version="1.1" xmlns="http://www.w3.org/2000/svg" style="fill:rgba(0,0,0,1.0)" width="256" height="256" viewBox="0 0 37.890625 32.8125"><path fill="rgb(255, 255, 255)" d="M15.812500 32.812500 L17.578125 22.953125 L19.343750 32.812500 C20.593756 32.812500 21.942701 32.747396 23.390625 32.617188 C24.838549 32.486979 26.291659 32.294272 27.750000 32.039062 C29.208341 31.783853 30.578119 31.463544 31.859375 31.078125 C33.140631 30.692706 34.239579 30.250002 35.156250 29.750000 L31.812500 5.281250 L32.015625 2.109375 C32.057292 1.494789 31.888023 0.989585 31.507812 0.593750 C31.127602 0.197915 30.630211 -0.000000 30.015625 -0.000000 L5.140625 -0.000000 C4.526039 -0.000000 4.026044 0.197915 3.640625 0.593750 C3.255206 0.989585 3.083333 1.494789 3.125000 2.109375 L3.359375 5.281250 L0.000000 29.750000 C0.916671 30.250002 2.013014 30.692706 3.289062 31.078125 C4.565111 31.463544 5.929680 31.783853 7.382812 32.039062 C8.835945 32.294272 10.289055 32.486979 11.742188 32.617188 C13.195320 32.747396 14.552077 32.812500 15.812500 32.812500 Z M15.421875 26.468750 L15.421875 26.468750 C15.036456 25.447912 14.736980 24.723960 14.523438 24.296875 C14.309895 23.869790 14.052085 23.656250 13.750000 23.656250 C13.531249 23.656250 13.338542 23.744791 13.171875 23.921875 C13.005208 24.098959 12.817709 24.304686 12.609375 24.539062 C12.401041 24.773439 12.143231 24.979166 11.835938 25.156250 C11.528644 25.333334 11.125002 25.421875 10.625000 25.421875 C10.010414 25.421875 9.544272 25.257814 9.226562 24.929688 C8.908853 24.601561 8.664063 24.218752 8.492188 23.781250 C8.320312 23.343748 8.161459 22.960939 8.015625 22.632812 C7.869791 22.304686 7.666668 22.140625 7.406250 22.140625 C7.187499 22.140625 6.981772 22.236978 6.789062 22.429688 C6.596353 22.622397 6.382814 22.846353 6.148438 23.101562 C5.914061 23.356772 5.638022 23.580728 5.320312 23.773438 C5.002603 23.966147 4.614586 24.062500 4.156250 24.062500 C3.677081 24.062500 3.296876 23.898439 3.015625 23.570312 C2.734374 23.242186 2.500001 22.812503 2.312500 22.281250 L2.671875 20.359375 C2.953126 21.057295 3.208332 21.588540 3.437500 21.953125 C3.666668 22.317710 3.927082 22.500000 4.218750 22.500000 C4.437501 22.500000 4.661457 22.403647 4.890625 22.210938 C5.119793 22.018228 5.367186 21.794272 5.632812 21.539062 C5.898439 21.283853 6.184894 21.059897 6.492188 20.867188 C6.799481 20.674478 7.130207 20.578125 7.484375 20.578125 C8.078128 20.578125 8.526040 20.742186 8.828125 21.070312 C9.130210 21.398439 9.359374 21.781248 9.515625 22.218750 C9.671876 22.656252 9.822916 23.039061 9.968750 23.367188 C10.114584 23.695314 10.328124 23.859375 10.609375 23.859375 C10.848960 23.859375 11.083332 23.763022 11.312500 23.570312 C11.541668 23.377603 11.781249 23.151043 12.031250 22.890625 C12.281251 22.630207 12.552082 22.403647 12.843750 22.210938 C13.135418 22.018228 13.453123 21.921875 13.796875 21.921875 C14.286461 21.921875 14.695311 22.124998 15.023438 22.531250 C15.351564 22.937502 15.697915 23.661453 16.062500 24.703125 Z M15.375000 30.390625 L17.078125 20.953125 C16.890624 20.838541 16.736980 20.622397 16.617188 20.304688 C16.497395 19.986978 16.356772 19.645835 16.195312 19.281250 C16.033853 18.916665 15.807293 18.604168 15.515625 18.343750 C15.223957 18.083332 14.807294 17.953125 14.265625 17.953125 C13.786456 17.953125 13.367189 18.093749 13.007812 18.375000 C12.648436 18.656251 12.333335 18.937499 12.062500 19.218750 C11.791665 19.500001 11.536460 19.640625 11.296875 19.640625 C11.046874 19.640625 10.851563 19.484377 10.710938 19.171875 C10.570312 18.859373 10.419272 18.497398 10.257812 18.085938 C10.096353 17.674477 9.861981 17.312502 9.554688 17.000000 C9.247394 16.687498 8.802086 16.531250 8.218750 16.531250 C7.666664 16.531250 7.223960 16.671874 6.890625 16.953125 C6.557290 17.234376 6.270835 17.515624 6.031250 17.796875 C5.791665 18.078126 5.531251 18.218750 5.250000 18.218750 C5.010415 18.218750 4.830730 18.109376 4.710938 17.890625 C4.591145 17.671874 4.476563 17.401043 4.367188 17.078125 C4.257812 16.755207 4.109376 16.434897 3.921875 16.117188 C3.734374 15.799478 3.453127 15.541668 3.078125 15.343750 L1.546875 25.859375 C1.776043 26.390628 2.098956 26.822915 2.515625 27.156250 C2.932294 27.489585 3.427080 27.656250 4.000000 27.656250 C4.531253 27.656250 4.971352 27.507814 5.320312 27.210938 C5.669273 26.914061 5.963540 26.619793 6.203125 26.328125 C6.442710 26.036457 6.661457 25.890625 6.859375 25.890625 C7.036459 25.890625 7.192708 26.052082 7.328125 26.375000 C7.463542 26.697918 7.627603 27.070310 7.820312 27.492188 C8.013022 27.914065 8.289061 28.286457 8.648438 28.609375 C9.007814 28.932293 9.505205 29.093750 10.140625 29.093750 C10.713545 29.093750 11.153644 28.953126 11.460938 28.671875 C11.768231 28.390624 12.023436 28.109376 12.226562 27.828125 C12.429689 27.546874 12.656249 27.406250 12.906250 27.406250 C13.083334 27.406250 13.236979 27.528645 13.367188 27.773438 C13.497396 28.018230 13.643228 28.315102 13.804688 28.664062 C13.966147 29.013023 14.169270 29.348957 14.414062 29.671875 C14.658855 29.994793 14.979165 30.234374 15.375000 30.390625 Z M14.359375 31.093750 L14.359375 31.093750 C13.380203 31.072917 12.348964 31.007813 11.265625 30.898438 C10.182286 30.789062 9.093755 30.632814 8.000000 30.429688 C6.906245 30.226561 5.843755 29.981772 4.812500 29.695312 C3.781245 29.408853 2.828129 29.083335 1.953125 28.718750 L5.234375 5.343750 L5.046875 2.468750 C5.015625 2.072915 5.192706 1.875000 5.578125 1.875000 L29.593750 1.875000 C29.979169 1.875000 30.156250 2.072915 30.125000 2.468750 L29.937500 5.343750 L33.203125 28.718750 C32.328121 29.083335 31.377609 29.408853 30.351562 29.695312 C29.325516 29.981772 28.270839 30.226561 27.187500 30.429688 C26.104161 30.632814 25.018235 30.789062 23.929688 30.898438 C22.841140 31.007813 21.796880 31.072917 20.796875 31.093750 L18.250000 16.937500 L16.906250 16.937500 Z M19.750000 26.468750 L19.109375 24.703125 C19.473960 23.661453 19.820311 22.937502 20.148438 22.531250 C20.476564 22.124998 20.885414 21.921875 21.375000 21.921875 C21.718752 21.921875 22.036457 22.018228 22.328125 22.210938 C22.619793 22.403647 22.890624 22.630207 23.140625 22.890625 C23.390626 23.151043 23.632811 23.377603 23.867188 23.570312 C24.101564 23.763022 24.333332 23.859375 24.562500 23.859375 C24.843751 23.859375 25.057291 23.695314 25.203125 23.367188 C25.348959 23.039061 25.499999 22.656252 25.656250 22.218750 C25.812501 21.781248 26.041665 21.398439 26.343750 21.070312 C26.645835 20.742186 27.093747 20.578125 27.687500 20.578125 C28.052085 20.578125 28.385415 20.674478 28.687500 20.867188 C28.989585 21.059897 29.273436 21.283853 29.539062 21.539062 C29.804689 21.794272 30.052082 22.018228 30.281250 22.210938 C30.510418 22.403647 30.734374 22.500000 30.953125 22.500000 C31.244793 22.500000 31.505207 22.317710 31.734375 21.953125 C31.963543 21.588540 32.218749 21.057295 32.500000 20.359375 L32.859375 22.281250 C32.671874 22.812503 32.440106 23.242186 32.164062 23.570312 C31.888019 23.898439 31.505211 24.062500 31.015625 24.062500 C30.557289 24.062500 30.169272 23.966147 29.851562 23.773438 C29.533853 23.580728 29.257814 23.356772 29.023438 23.101562 C28.789061 22.846353 28.575522 22.622397 28.382812 22.429688 C28.190103 22.236978 27.984376 22.140625 27.765625 22.140625 C27.505207 22.140625 27.302084 22.304686 27.156250 22.632812 C27.010416 22.960939 26.851563 23.343748 26.679688 23.781250 C26.507812 24.218752 26.263022 24.601561 25.945312 24.929688 C25.627603 25.257814 25.161461 25.421875 24.546875 25.421875 C24.046872 25.421875 23.643231 25.333334 23.335938 25.156250 C23.028644 24.979166 22.770834 24.773439 22.562500 24.539062 C22.354166 24.304686 22.166668 24.098959 22.000000 23.921875 C21.833332 23.744791 21.640626 23.656250 21.421875 23.656250 C21.130207 23.656250 20.872397 23.869790 20.648438 24.296875 C20.424478 24.723960 20.125002 25.447912 19.750000 26.468750 Z M19.796875 30.390625 L19.796875 30.390625 C20.192710 30.234374 20.513020 29.994793 20.757812 29.671875 C21.002605 29.348957 21.205728 29.013023 21.367188 28.664062 C21.528647 28.315102 21.677083 28.018230 21.812500 27.773438 C21.947917 27.528645 22.098958 27.406250 22.265625 27.406250 C22.515626 27.406250 22.742186 27.546874 22.945312 27.828125 C23.148439 28.109376 23.406248 28.390624 23.718750 28.671875 C24.031252 28.953126 24.468747 29.093750 25.031250 29.093750 C25.666670 29.093750 26.164061 28.932293 26.523438 28.609375 C26.882814 28.286457 27.158853 27.914065 27.351562 27.492188 C27.544272 27.070310 27.708333 26.697918 27.843750 26.375000 C27.979167 26.052082 28.135416 25.890625 28.312500 25.890625 C28.520834 25.890625 28.742186 26.036457 28.976562 26.328125 C29.210939 26.619793 29.502602 26.914061 29.851562 27.210938 C30.200523 27.507814 30.640622 27.656250 31.171875 27.656250 C31.744795 27.656250 32.239581 27.489585 32.656250 27.156250 C33.072919 26.822915 33.395832 26.390628 33.625000 25.859375 L32.093750 15.343750 C31.718748 15.541668 31.437501 15.799478 31.250000 16.117188 C31.062499 16.434897 30.914063 16.755207 30.804688 17.078125 C30.695312 17.401043 30.580730 17.671874 30.460938 17.890625 C30.341145 18.109376 30.161460 18.218750 29.921875 18.218750 C29.640624 18.218750 29.380210 18.078126 29.140625 17.796875 C28.901040 17.515624 28.614585 17.234376 28.281250 16.953125 C27.947915 16.671874 27.505211 16.531250 26.953125 16.531250 C26.369789 16.531250 25.924481 16.687498 25.617188 17.000000 C25.309894 17.312502 25.075522 17.674477 24.914062 18.085938 C24.752603 18.497398 24.601563 18.859373 24.460938 19.171875 C24.320312 19.484377 24.125001 19.640625 23.875000 19.640625 C23.635415 19.640625 23.380210 19.500001 23.109375 19.218750 C22.838540 18.937499 22.526043 18.656251 22.171875 18.375000 C21.817707 18.093749 21.395836 17.953125 20.906250 17.953125 C20.364581 17.953125 19.947918 18.083332 19.656250 18.343750 C19.364582 18.604168 19.138022 18.916665 18.976562 19.281250 C18.815103 19.645835 18.674480 19.986978 18.554688 20.304688 C18.434895 20.622397 18.281251 20.838541 18.093750 20.953125 Z M14.421875 14.640625 L14.421875 14.640625 C13.588538 14.640625 12.981773 14.364586 12.601562 13.812500 C12.221352 13.260414 12.031250 12.625004 12.031250 11.906250 C12.031250 10.854161 12.273435 9.843755 12.757812 8.875000 C13.242190 7.906245 13.885413 7.010421 14.687500 6.187500 C15.489587 5.364579 16.372391 4.651045 17.335938 4.046875 C18.299484 3.442705 19.255204 2.984377 20.203125 2.671875 L20.562500 4.312500 C19.843746 4.562501 19.088546 4.937497 18.296875 5.437500 C17.505204 5.937503 16.765628 6.528642 16.078125 7.210938 C15.390622 7.893233 14.830731 8.635413 14.398438 9.437500 C13.966144 10.239587 13.750000 11.062496 13.750000 11.906250 C13.750000 12.218752 13.825520 12.466145 13.976562 12.648438 C14.127605 12.830730 14.343749 12.921875 14.625000 12.921875 C15.020835 12.921875 15.364582 12.710940 15.656250 12.289062 C15.947918 11.867185 16.195311 11.307295 16.398438 10.609375 C16.601564 9.911455 16.752604 9.143233 16.851562 8.304688 C16.950521 7.466142 17.000000 6.630212 17.000000 5.796875 L18.406250 5.796875 C18.406250 7.432300 18.273439 8.919264 18.007812 10.257812 C17.742186 11.596361 17.317711 12.661454 16.734375 13.453125 C16.151039 14.244796 15.380213 14.640625 14.421875 14.640625 Z M20.703125 12.062500 L20.703125 12.062500 C20.140622 12.062500 19.638023 11.875002 19.195312 11.500000 C18.752602 11.124998 18.380210 10.619795 18.078125 9.984375 C17.776040 9.348955 17.546876 8.635421 17.390625 7.843750 C17.234374 7.052079 17.156250 6.239587 17.156250 5.406250 L18.562500 5.406250 C18.562500 5.697918 18.593750 6.114581 18.656250 6.656250 C18.718750 7.197919 18.822916 7.749997 18.968750 8.312500 C19.114584 8.875003 19.315103 9.354165 19.570312 9.750000 C19.825522 10.145835 20.151040 10.343750 20.546875 10.343750 C20.713542 10.343750 20.835937 10.281251 20.914062 10.156250 C20.992188 10.031249 21.031250 9.864584 21.031250 9.656250 C21.031250 8.906246 20.744795 8.148441 20.171875 7.382812 C19.598955 6.617184 18.859380 5.953128 17.953125 5.390625 C17.046870 4.828122 16.083338 4.468751 15.062500 4.312500 L15.265625 2.734375 C16.192713 2.880209 17.096350 3.179685 17.976562 3.632812 C18.856775 4.085940 19.651038 4.635413 20.359375 5.281250 C21.067712 5.927087 21.630206 6.614580 22.046875 7.343750 C22.463544 8.072920 22.671875 8.786455 22.671875 9.484375 C22.671875 10.307296 22.500002 10.942706 22.156250 11.390625 C21.812498 11.838544 21.328128 12.062500 20.703125 12.062500 Z M37.890625 27.343750" /></svg>