<svg version="1.1" xmlns="http://www.w3.org/2000/svg" style="fill:rgba(0,0,0,1.0)" width="256" height="256" viewBox="0 0 37.34375 32.8125"><path fill="rgb(255, 255, 255)" d="M25.843750 22.906250 C24.958329 22.906250 23.989589 22.606774 22.937500 22.007812 C21.885411 21.408851 20.789068 20.635421 19.648438 19.687500 C18.507807 18.739579 17.364589 17.739589 16.218750 16.687500 C15.374996 15.916663 14.536462 15.122400 13.703125 14.304688 C12.869788 13.486975 12.111983 12.669275 11.429688 11.851562 C10.747392 11.033850 10.200523 10.244795 9.789062 9.484375 C9.377602 8.723955 9.171875 8.010420 9.171875 7.343750 C9.171875 6.937498 9.263020 6.557293 9.445312 6.203125 C9.627605 5.848957 9.911456 5.526043 10.296875 5.234375 C11.088546 4.651039 12.192701 4.588539 13.609375 5.046875 C15.098966 4.286455 16.687492 3.906250 18.375000 3.906250 C19.885424 3.906250 21.333326 4.213539 22.718750 4.828125 L23.359375 4.203125 C23.848961 3.713539 24.484371 3.510416 25.265625 3.593750 L26.000000 2.937500 C26.854171 2.177080 27.658850 1.583335 28.414062 1.156250 C29.169275 0.729165 29.989579 0.429688 30.875000 0.257812 C31.760421 0.085937 32.822910 -0.000000 34.062500 -0.000000 L34.062500 5.171875 C33.343746 5.171875 32.679691 5.273436 32.070312 5.476562 C31.460934 5.679689 30.703130 6.171871 29.796875 6.953125 L29.125000 7.531250 C29.177084 8.270837 28.963544 8.880206 28.484375 9.359375 L27.921875 9.921875 C28.598962 11.359382 28.937500 12.874992 28.937500 14.468750 C28.937500 15.156253 28.869792 15.841142 28.734375 16.523438 C28.598958 17.205733 28.395835 17.874997 28.125000 18.531250 C28.416668 19.229170 28.570312 19.854164 28.585938 20.406250 C28.601563 20.958336 28.458335 21.416665 28.156250 21.781250 C27.833332 22.166669 27.476564 22.450520 27.085938 22.632812 C26.695311 22.815105 26.281252 22.906250 25.843750 22.906250 Z M1.953125 32.812500 C1.463539 32.812500 1.015627 32.604169 0.609375 32.187500 C0.203123 31.770831 0.000000 31.322919 0.000000 30.843750 C0.000000 30.364581 0.203123 29.921877 0.609375 29.515625 C1.046877 29.078123 1.734370 28.750001 2.671875 28.531250 L4.781250 28.046875 L4.296875 30.156250 C4.088541 31.062505 3.755211 31.744789 3.296875 32.203125 C2.890623 32.609377 2.442711 32.812500 1.953125 32.812500 Z M4.968750 25.171875 C4.489581 25.171875 4.041669 24.963544 3.625000 24.546875 C3.208331 24.130206 3.000000 23.682294 3.000000 23.203125 C3.000000 22.723956 3.197915 22.276044 3.593750 21.859375 C4.031252 21.401039 4.713537 21.072918 5.640625 20.875000 L7.750000 20.406250 L7.281250 22.515625 C7.083332 23.411463 6.755211 24.088539 6.296875 24.546875 C5.880206 24.963544 5.437502 25.171875 4.968750 25.171875 Z M9.656250 29.859375 C9.177081 29.859375 8.729169 29.651044 8.312500 29.234375 C7.895831 28.817706 7.687500 28.369794 7.687500 27.890625 C7.687500 27.411456 7.885415 26.963544 8.281250 26.546875 C8.718752 26.088539 9.401037 25.760418 10.328125 25.562500 L12.437500 25.093750 L11.968750 27.203125 C11.770832 28.098963 11.442711 28.776039 10.984375 29.234375 C10.567706 29.651044 10.125002 29.859375 9.656250 29.859375 Z M12.703125 22.125000 C12.192706 22.125000 11.734377 21.914065 11.328125 21.492188 C10.921873 21.070310 10.718750 20.625002 10.718750 20.156250 C10.718750 19.687498 10.916665 19.244794 11.312500 18.828125 C11.750002 18.369789 12.432287 18.041668 13.359375 17.843750 L15.453125 17.390625 L14.984375 19.484375 C14.786457 20.390630 14.463544 21.067706 14.015625 21.515625 C13.609373 21.921877 13.171877 22.125000 12.703125 22.125000 Z M7.812500 17.531250 C7.291664 17.531250 6.848960 17.341148 6.484375 16.960938 C6.119790 16.580727 5.937500 16.151044 5.937500 15.671875 C5.937500 15.119789 6.135415 14.645835 6.531250 14.250000 C6.750001 14.031249 7.007811 13.846355 7.304688 13.695312 C7.601564 13.544270 8.020831 13.390626 8.562500 13.234375 C9.104169 13.078124 9.838537 12.901043 10.765625 12.703125 C10.557291 13.651046 10.372397 14.401039 10.210938 14.953125 C10.049478 15.505211 9.893230 15.924478 9.742188 16.210938 C9.591145 16.497397 9.421876 16.734374 9.234375 16.921875 C8.828123 17.328127 8.354169 17.531250 7.812500 17.531250 Z M17.390625 26.812500 C16.880206 26.812500 16.421877 26.601565 16.015625 26.179688 C15.609373 25.757810 15.406250 25.312502 15.406250 24.843750 C15.406250 24.374998 15.604165 23.932294 16.000000 23.515625 C16.437502 23.057289 17.119787 22.729168 18.046875 22.531250 L20.140625 22.078125 L19.671875 24.171875 C19.473957 25.078130 19.151044 25.755206 18.703125 26.203125 C18.296873 26.609377 17.859377 26.812500 17.390625 26.812500 Z M25.250000 21.234375 C25.322917 21.171875 25.250001 20.971356 25.031250 20.632812 C24.812499 20.294269 24.440107 19.817711 23.914062 19.203125 C23.388018 18.588539 22.692713 17.846359 21.828125 16.976562 C20.963537 16.106766 19.921881 15.109381 18.703125 13.984375 C17.536452 12.911453 16.489588 11.984379 15.562500 11.203125 C14.635412 10.421871 13.843753 9.786461 13.187500 9.296875 C12.531247 8.807289 12.013023 8.458334 11.632812 8.250000 C11.252602 8.041666 11.020834 7.973958 10.937500 8.046875 C10.864583 8.109375 10.937499 8.309894 11.156250 8.648438 C11.375001 8.986981 11.747393 9.463539 12.273438 10.078125 C12.799482 10.692711 13.494787 11.434891 14.359375 12.304688 C15.223963 13.174484 16.265619 14.171869 17.484375 15.296875 C18.661464 16.369797 19.710933 17.296871 20.632812 18.078125 C21.554692 18.859379 22.343747 19.494789 23.000000 19.984375 C23.656253 20.473961 24.174477 20.822916 24.554688 21.031250 C24.934898 21.239584 25.166666 21.307292 25.250000 21.234375 Z M26.734375 20.546875 C26.848959 20.359374 26.768231 19.973961 26.492188 19.390625 C26.216144 18.807289 25.789065 18.109379 25.210938 17.296875 C24.632810 16.484371 23.945316 15.619796 23.148438 14.703125 C22.351559 13.786454 21.484380 12.901046 20.546875 12.046875 C19.557287 11.140620 18.601567 10.333337 17.679688 9.625000 C16.757808 8.916663 15.906254 8.328127 15.125000 7.859375 C14.343746 7.390623 13.661461 7.049480 13.078125 6.835938 C12.494789 6.622395 12.036460 6.546875 11.703125 6.609375 C12.421879 6.869793 13.234370 7.296872 14.140625 7.890625 C15.046880 8.484378 15.997391 9.187496 16.992188 10.000000 C17.986984 10.812504 18.979162 11.677079 19.968750 12.593750 C21.000005 13.541671 21.976558 14.494787 22.898438 15.453125 C23.820317 16.411463 24.619788 17.325516 25.296875 18.195312 C25.973962 19.065109 26.453124 19.848955 26.734375 20.546875 Z M26.859375 16.296875 C26.984376 15.682289 27.046875 15.067711 27.046875 14.453125 C27.046875 13.317703 26.833335 12.216151 26.406250 11.148438 C25.979165 10.080724 25.354171 9.135421 24.531250 8.312500 C23.708329 7.479163 22.760422 6.851565 21.687500 6.429688 C20.614578 6.007810 19.515631 5.796875 18.390625 5.796875 C17.536454 5.796875 16.718754 5.911457 15.937500 6.140625 C16.802088 6.640628 17.726558 7.270830 18.710938 8.031250 C19.695317 8.791670 20.734370 9.671870 21.828125 10.671875 C22.901047 11.651047 23.861975 12.617183 24.710938 13.570312 C25.559900 14.523442 26.276039 15.432287 26.859375 16.296875 Z M26.953125 8.265625 L27.171875 8.046875 C27.296876 7.921874 27.312500 7.744793 27.218750 7.515625 C27.125000 7.286457 26.989584 7.057293 26.812500 6.828125 C26.635416 6.598957 26.489584 6.427084 26.375000 6.312500 C26.145832 6.072915 25.848960 5.843751 25.484375 5.625000 C25.119790 5.406249 24.848959 5.380208 24.671875 5.546875 L24.421875 5.781250 C24.682293 5.958334 24.929686 6.145832 25.164062 6.343750 C25.398439 6.541668 25.630207 6.755207 25.859375 6.984375 C26.067709 7.182293 26.260416 7.388020 26.437500 7.601562 C26.614584 7.815105 26.786458 8.036457 26.953125 8.265625 Z M28.328125 5.718750 L28.578125 5.515625 C29.276045 4.953122 29.908851 4.505210 30.476562 4.171875 C31.044274 3.838540 31.614580 3.619792 32.187500 3.515625 L32.187500 1.890625 C31.291662 1.963542 30.466150 2.195311 29.710938 2.585938 C28.955725 2.976564 28.135421 3.562496 27.250000 4.343750 L27.109375 4.468750 C27.223959 4.552084 27.333333 4.640625 27.437500 4.734375 C27.541667 4.828125 27.635416 4.916666 27.718750 5.000000 C27.822917 5.104167 27.927083 5.216145 28.031250 5.335938 C28.135417 5.455730 28.234375 5.583333 28.328125 5.718750 Z M37.343750 27.343750" /></svg>