<svg version="1.1" xmlns="http://www.w3.org/2000/svg" style="fill:rgba(0,0,0,1.0)" width="256" height="256" viewBox="0 0 37.96875 25.0"><path fill="rgb(255, 255, 255)" d="M8.015625 25.000000 C6.515618 25.000000 5.158860 24.723961 3.945312 24.171875 C2.731765 23.619789 1.770837 22.882817 1.062500 21.960938 C0.354163 21.039058 0.000000 20.031255 0.000000 18.937500 C0.000000 18.229163 0.177082 17.687502 0.531250 17.312500 C0.885418 16.937498 1.322914 16.750000 1.843750 16.750000 C2.250002 16.750000 2.601561 16.835937 2.898438 17.007812 C3.195314 17.179688 3.567706 17.463540 4.015625 17.859375 C4.838546 18.588545 5.520831 19.106769 6.062500 19.414062 C6.604169 19.721356 7.255205 19.875000 8.015625 19.875000 L35.312500 19.875000 L35.312500 25.000000 Z M7.062500 20.859375 C7.541669 19.651036 8.075518 18.799482 8.664062 18.304688 C9.252607 17.809893 9.817706 17.562500 10.359375 17.562500 C10.744794 17.562500 11.067707 17.682290 11.328125 17.921875 L12.328125 18.859375 C12.515626 19.046876 12.729165 19.140625 12.968750 19.140625 C13.239585 19.140625 13.468749 19.015626 13.656250 18.765625 L13.750000 18.640625 C13.937501 18.390624 14.124999 18.265625 14.312500 18.265625 C14.593751 18.265625 14.822916 18.434894 15.000000 18.773438 C15.177084 19.111981 15.265625 19.572914 15.265625 20.156250 C15.265625 20.260417 15.263021 20.372395 15.257812 20.492188 C15.252604 20.611980 15.239583 20.734374 15.218750 20.859375 Z M8.015625 23.437500 L33.750000 23.437500 L33.750000 21.437500 L8.015625 21.437500 C7.057287 21.437500 6.221358 21.242189 5.507812 20.851562 C4.794267 20.460936 3.953130 19.848962 2.984375 19.015625 C2.661457 18.734374 2.432292 18.546875 2.296875 18.453125 C2.161458 18.359375 2.041667 18.312500 1.937500 18.312500 C1.802083 18.312500 1.705729 18.367187 1.648438 18.476562 C1.591146 18.585938 1.562500 18.697916 1.562500 18.812500 C1.562500 19.635421 1.846351 20.398434 2.414062 21.101562 C2.981774 21.804691 3.752599 22.369790 4.726562 22.796875 C5.700526 23.223960 6.796869 23.437500 8.015625 23.437500 Z M9.109375 20.468750 C9.109375 19.385411 9.380206 18.468754 9.921875 17.718750 C10.463544 16.968746 11.203120 16.325524 12.140625 15.789062 C13.078130 15.252601 14.135411 14.781252 15.312500 14.375000 C15.802086 14.208333 16.322914 14.007814 16.875000 13.773438 C17.427086 13.539061 17.934894 13.286460 18.398438 13.015625 C18.861981 12.744790 19.197916 12.473960 19.406250 12.203125 L20.875000 13.343750 C20.499998 13.812502 20.018232 14.229165 19.429688 14.593750 C18.841143 14.958335 18.229170 15.268228 17.593750 15.523438 C16.958330 15.778647 16.390628 15.989582 15.890625 16.156250 C15.057288 16.437501 14.291670 16.739582 13.593750 17.062500 C12.895830 17.385418 12.325523 17.799477 11.882812 18.304688 C11.440102 18.809898 11.192709 19.479162 11.140625 20.312500 Z M18.281250 19.093750 C17.989582 19.166667 17.729168 19.125001 17.500000 18.968750 C17.270832 18.812499 17.098959 18.604168 16.984375 18.343750 L16.484375 17.218750 L18.437500 16.421875 L18.968750 17.593750 C19.135418 17.958335 19.135418 18.278644 18.968750 18.554688 C18.802082 18.830731 18.572918 19.010416 18.281250 19.093750 Z M17.484375 18.796875 C17.307291 18.234372 17.059897 17.596358 16.742188 16.882812 C16.424478 16.169267 16.052085 15.609377 15.625000 15.203125 L16.578125 14.171875 C17.119794 14.671878 17.572915 15.322913 17.937500 16.125000 C18.302085 16.927087 18.598957 17.677080 18.828125 18.375000 Z M19.203125 20.875000 C19.494793 20.135413 19.932289 19.536461 20.515625 19.078125 C21.098961 18.619789 21.755205 18.390625 22.484375 18.390625 C22.973961 18.390625 23.450519 18.515624 23.914062 18.765625 C24.377606 19.015626 24.776040 19.330727 25.109375 19.710938 C25.442710 20.091148 25.666666 20.479165 25.781250 20.875000 Z M21.328125 18.000000 C21.036457 18.072917 20.776043 18.031251 20.546875 17.875000 C20.317707 17.718749 20.145834 17.510418 20.031250 17.250000 L19.531250 16.125000 L21.484375 15.328125 L22.015625 16.500000 C22.182292 16.864585 22.182292 17.184894 22.015625 17.460938 C21.848958 17.736981 21.619793 17.916666 21.328125 18.000000 Z M20.453125 17.468750 C20.265624 16.885414 19.986981 16.255212 19.617188 15.578125 C19.247394 14.901038 18.833336 14.354169 18.375000 13.937500 L19.312500 12.906250 C19.864586 13.406252 20.359373 14.044267 20.796875 14.820312 C21.234377 15.596358 21.567707 16.338538 21.796875 17.046875 Z M21.546875 12.234375 C21.234373 12.234375 20.921877 12.221354 20.609375 12.195312 C20.296873 12.169271 19.984377 12.135417 19.671875 12.093750 L19.843750 10.703125 C20.447920 10.786459 21.015622 10.828125 21.546875 10.828125 C22.255212 10.828125 22.872393 10.817708 23.398438 10.796875 C23.924482 10.776042 24.447914 10.723959 24.968750 10.640625 C25.489586 10.557291 26.088538 10.416668 26.765625 10.218750 L27.187500 11.546875 C26.468746 11.765626 25.825524 11.921875 25.257812 12.015625 C24.690101 12.109375 24.119795 12.169271 23.546875 12.195312 C22.973955 12.221354 22.307295 12.234375 21.546875 12.234375 Z M27.468750 20.875000 C27.520834 19.947912 27.752602 19.226565 28.164062 18.710938 C28.575523 18.195310 29.333328 17.937500 30.437500 17.937500 C30.916669 17.177080 31.455726 16.531253 32.054688 16.000000 C32.653649 15.468747 33.151040 15.203125 33.546875 15.203125 C33.838543 15.203125 33.906251 15.437498 33.750000 15.906250 L32.078125 20.875000 Z M26.640625 14.421875 C26.421874 14.421875 26.234376 14.346355 26.078125 14.195312 C25.921874 14.044270 25.843750 13.859376 25.843750 13.640625 C25.843750 13.421874 25.921874 13.234376 26.078125 13.078125 C26.234376 12.921874 26.421874 12.843750 26.640625 12.843750 C26.848959 12.843750 27.031249 12.921874 27.187500 13.078125 C27.343751 13.234376 27.421875 13.421874 27.421875 13.640625 C27.421875 13.859376 27.343751 14.044270 27.187500 14.195312 C27.031249 14.346355 26.848959 14.421875 26.640625 14.421875 Z M30.781250 20.265625 L28.921875 20.078125 C28.973959 19.526039 29.013021 18.885420 29.039062 18.156250 C29.065104 17.427080 29.078125 16.791669 29.078125 16.250000 C29.078125 15.843748 29.062500 15.442710 29.031250 15.046875 C29.000000 14.651040 28.942709 14.260419 28.859375 13.875000 L30.578125 12.906250 C30.723959 13.447919 30.822916 13.999997 30.875000 14.562500 C30.927084 15.125003 30.953125 15.687497 30.953125 16.250000 C30.953125 16.822920 30.937500 17.489580 30.906250 18.250000 C30.875000 19.010420 30.833334 19.682289 30.781250 20.265625 Z M20.578125 9.640625 C20.348957 9.640625 20.122397 9.632813 19.898438 9.617188 C19.674478 9.601562 19.447918 9.583333 19.218750 9.562500 L19.343750 8.156250 C19.552084 8.177083 19.760416 8.195312 19.968750 8.210938 C20.177084 8.226563 20.380207 8.234375 20.578125 8.234375 C21.338545 8.234375 22.007810 8.218750 22.585938 8.187500 C23.164065 8.156250 23.736976 8.088542 24.304688 7.984375 C24.872399 7.880208 25.520830 7.729168 26.250000 7.531250 L26.609375 8.890625 C25.848955 9.098959 25.164066 9.257812 24.554688 9.367188 C23.945309 9.476563 23.330732 9.549479 22.710938 9.585938 C22.091143 9.622396 21.380212 9.640625 20.578125 9.640625 Z M26.515625 15.125000 C27.161462 15.125000 27.653644 14.903648 27.992188 14.460938 C28.330731 14.018227 28.593749 13.531253 28.781250 13.000000 C28.843750 12.822916 28.888021 12.653647 28.914062 12.492188 C28.940104 12.330728 28.953125 12.161459 28.953125 11.984375 C28.953125 11.776041 28.937500 11.546876 28.906250 11.296875 L27.750000 3.468750 C27.687500 3.031248 27.572918 2.716147 27.406250 2.523438 C27.239582 2.330728 26.937502 2.234375 26.500000 2.234375 C26.093748 2.234375 25.653648 2.359374 25.179688 2.609375 C24.705727 2.859376 24.234377 3.156248 23.765625 3.500000 C23.307289 3.843752 22.815107 4.158853 22.289062 4.445312 C21.763018 4.731772 21.177087 4.875000 20.531250 4.875000 C20.333332 4.875000 20.164063 4.864583 20.023438 4.843750 C19.882812 4.822917 19.723959 4.791667 19.546875 4.750000 L19.875000 4.703125 L21.031250 12.093750 C21.750004 12.166667 22.463538 12.393227 23.171875 12.773438 C23.880212 13.153648 24.473956 13.619789 24.953125 14.171875 C25.203126 14.453126 25.450520 14.682291 25.695312 14.859375 C25.940105 15.036459 26.213540 15.125000 26.515625 15.125000 Z M25.609375 12.312500 L25.328125 10.218750 L26.593750 10.015625 C26.989585 9.953125 27.302082 10.036457 27.531250 10.265625 C27.760418 10.494793 27.875000 10.760415 27.875000 11.062500 C27.875000 11.354168 27.770834 11.591145 27.562500 11.773438 C27.354166 11.955730 27.104168 12.072916 26.812500 12.125000 Z M26.515625 17.000000 C25.901039 17.000000 25.411460 16.875001 25.046875 16.625000 C24.682290 16.374999 24.338543 16.083335 24.015625 15.750000 C23.463539 15.166664 22.885420 14.703127 22.281250 14.359375 C21.677080 14.015623 21.046878 13.812500 20.390625 13.750000 L19.218750 12.656250 L18.000000 4.765625 C17.947916 4.411457 17.984374 4.104168 18.109375 3.843750 C18.234376 3.583332 18.479165 3.338543 18.843750 3.109375 L18.453125 3.687500 C18.265624 3.260415 18.171875 2.869793 18.171875 2.515625 C18.171875 2.151040 18.268228 1.848960 18.460938 1.609375 C18.653647 1.369790 18.958331 1.250000 19.375000 1.250000 C19.656251 1.250000 19.934894 1.307291 20.210938 1.421875 C20.486981 1.536459 20.744790 1.708332 20.984375 1.937500 C21.557295 1.531248 22.153643 1.182293 22.773438 0.890625 C23.393232 0.598957 24.015622 0.377605 24.640625 0.226562 C25.265628 0.075520 25.869789 -0.000000 26.453125 -0.000000 C27.307296 -0.000000 27.945310 0.171873 28.367188 0.515625 C28.789065 0.859377 29.088541 1.320310 29.265625 1.898438 C29.442709 2.476565 29.583333 3.119788 29.687500 3.828125 L30.734375 10.843750 C30.776042 11.104168 30.807292 11.335936 30.828125 11.539062 C30.848958 11.742189 30.859375 11.932291 30.859375 12.109375 C30.859375 12.338543 30.835938 12.567707 30.789062 12.796875 C30.742187 13.026043 30.666667 13.296873 30.562500 13.609375 C30.260415 14.557296 29.781253 15.359372 29.125000 16.015625 C28.468747 16.671878 27.598964 17.000000 26.515625 17.000000 Z M24.968750 9.578125 L24.687500 7.500000 L25.953125 7.296875 C26.348960 7.234375 26.664061 7.317707 26.898438 7.546875 C27.132814 7.776043 27.250000 8.036457 27.250000 8.328125 C27.250000 8.619793 27.143230 8.861978 26.929688 9.054688 C26.716145 9.247397 26.463543 9.364583 26.171875 9.406250 Z M19.750000 7.218750 L19.546875 5.343750 C21.098966 5.343750 22.684888 5.195314 24.304688 4.898438 C25.924487 4.601561 27.463534 4.187503 28.921875 3.656250 L29.546875 5.406250 C28.036451 5.958336 26.419279 6.393228 24.695312 6.710938 C22.971346 7.028647 21.322925 7.197917 19.750000 7.218750 Z M37.968750 23.437500" /></svg>