<svg version="1.1" xmlns="http://www.w3.org/2000/svg" style="fill:rgba(0,0,0,1.0)" width="256" height="256" viewBox="0 0 36.875 32.8125"><path fill="rgb(255, 255, 255)" d="M16.562500 32.812500 C14.187488 32.812500 11.992198 32.403650 9.976562 31.585938 C7.960927 30.768225 6.208341 29.619799 4.718750 28.140625 C3.229159 26.661451 2.070317 24.924489 1.242188 22.929688 C0.414058 20.934886 0.000000 18.760428 0.000000 16.406250 C0.000000 14.052072 0.414058 11.877614 1.242188 9.882812 C2.070317 7.888011 3.229159 6.151049 4.718750 4.671875 C6.208341 3.192701 7.960927 2.044275 9.976562 1.226562 C11.992198 0.408850 14.187488 -0.000000 16.562500 -0.000000 C18.937512 -0.000000 21.132802 0.408850 23.148438 1.226562 C25.164073 2.044275 26.916659 3.192701 28.406250 4.671875 C29.895841 6.151049 31.054683 7.888011 31.882812 9.882812 C32.710942 11.877614 33.125000 14.052072 33.125000 16.406250 C33.125000 18.760428 32.710942 20.934886 31.882812 22.929688 C31.054683 24.924489 29.895841 26.661451 28.406250 28.140625 C26.916659 29.619799 25.164073 30.768225 23.148438 31.585938 C21.132802 32.403650 18.937512 32.812500 16.562500 32.812500 Z M10.296875 24.734375 L9.328125 23.296875 C11.661470 21.744784 14.078112 20.968750 16.578125 20.968750 C19.067721 20.968750 21.473947 21.744784 23.796875 23.296875 L22.828125 24.734375 C20.807282 23.369785 18.718761 22.687500 16.562500 22.687500 C14.406239 22.687500 12.317718 23.369785 10.296875 24.734375 Z M10.906250 15.390625 C10.312497 15.390625 9.804690 15.156252 9.382812 14.687500 C8.960935 14.218748 8.750000 13.593754 8.750000 12.812500 C8.750000 12.031246 8.960935 11.406252 9.382812 10.937500 C9.804690 10.468748 10.312497 10.234375 10.906250 10.234375 C11.500003 10.234375 12.007810 10.468748 12.429688 10.937500 C12.851565 11.406252 13.062500 12.031246 13.062500 12.812500 C13.062500 13.593754 12.851565 14.218748 12.429688 14.687500 C12.007810 15.156252 11.500003 15.390625 10.906250 15.390625 Z M16.578125 31.093750 C18.682302 31.093750 20.627595 30.726566 22.414062 29.992188 C24.200530 29.257809 25.752598 28.231777 27.070312 26.914062 C28.388027 25.596348 29.414059 24.041676 30.148438 22.250000 C30.882816 20.458324 31.250000 18.505219 31.250000 16.390625 C31.250000 14.286448 30.882816 12.341155 30.148438 10.554688 C29.414059 8.768220 28.388027 7.216152 27.070312 5.898438 C25.752598 4.580723 24.200530 3.554691 22.414062 2.820312 C20.627595 2.085934 18.682302 1.718750 16.578125 1.718750 C14.463531 1.718750 12.513030 2.085934 10.726562 2.820312 C8.940095 3.554691 7.385423 4.580723 6.062500 5.898438 C4.739577 7.216152 3.710941 8.768220 2.976562 10.554688 C2.242184 12.341155 1.875000 14.286448 1.875000 16.390625 C1.875000 18.505219 2.242184 20.458324 2.976562 22.250000 C3.710941 24.041676 4.736973 25.596348 6.054688 26.914062 C7.372402 28.231777 8.927074 29.257809 10.718750 29.992188 C12.510426 30.726566 14.463531 31.093750 16.578125 31.093750 Z M22.218750 15.390625 C21.624997 15.390625 21.117190 15.156252 20.695312 14.687500 C20.273435 14.218748 20.062500 13.593754 20.062500 12.812500 C20.062500 12.031246 20.273435 11.406252 20.695312 10.937500 C21.117190 10.468748 21.624997 10.234375 22.218750 10.234375 C22.812503 10.234375 23.320310 10.468748 23.742188 10.937500 C24.164065 11.406252 24.375000 12.031246 24.375000 12.812500 C24.375000 13.593754 24.164065 14.218748 23.742188 14.687500 C23.320310 15.156252 22.812503 15.390625 22.218750 15.390625 Z M36.875000 27.343750" /></svg>