<svg version="1.1" xmlns="http://www.w3.org/2000/svg" style="fill:rgba(0,0,0,1.0)" width="256" height="256" viewBox="0 0 36.546875 32.8125"><path fill="rgb(255, 255, 255)" d="M17.765625 32.812500 C16.796870 32.812500 15.861984 32.658856 14.960938 32.351562 C14.059891 32.044269 13.369794 31.791668 12.890625 31.593750 C12.911458 31.666667 12.921875 31.760416 12.921875 31.875000 C12.921875 32.291669 12.755210 32.500000 12.421875 32.500000 C12.078123 32.500000 11.598961 32.325523 10.984375 31.976562 C10.369789 31.627602 9.747399 31.195315 9.117188 30.679688 C8.486976 30.164060 7.979169 29.656252 7.593750 29.156250 L7.156250 29.796875 C7.083333 29.911459 6.984376 29.986979 6.859375 30.023438 C6.734374 30.059896 6.604167 30.026042 6.468750 29.921875 C5.177077 28.932287 4.046880 27.716153 3.078125 26.273438 C2.109370 24.830722 1.354169 23.192718 0.812500 21.359375 C0.270831 19.526032 0.000000 17.531261 0.000000 15.375000 C0.000000 13.697908 0.322913 12.234381 0.968750 10.984375 C1.614587 9.734369 2.505203 8.763024 3.640625 8.070312 C4.776047 7.377601 6.072909 7.031250 7.531250 7.031250 C8.593755 7.031250 9.580725 7.221352 10.492188 7.601562 C11.403650 7.981773 12.161455 8.505205 12.765625 9.171875 L12.718750 11.593750 C12.312498 10.958330 11.901044 10.455731 11.484375 10.085938 C11.067706 9.716144 10.703127 9.531250 10.390625 9.531250 C10.026040 9.531250 9.651044 9.643228 9.265625 9.867188 C8.880206 10.091147 8.432294 10.203125 7.921875 10.203125 C7.598957 10.203125 7.263023 10.130209 6.914062 9.984375 C6.565102 9.838541 6.223960 9.692709 5.890625 9.546875 C5.557290 9.401041 5.244793 9.328125 4.953125 9.328125 C4.411456 9.328125 3.901044 9.541665 3.421875 9.968750 C2.942706 10.395835 2.557293 10.950517 2.265625 11.632812 C1.973957 12.315108 1.828125 13.031246 1.828125 13.781250 C1.828125 14.552087 2.026040 15.268226 2.421875 15.929688 C2.817710 16.591149 3.468745 17.124998 4.375000 17.531250 C5.281255 17.937502 6.505201 18.140625 8.046875 18.140625 C8.755212 18.140625 9.453122 18.062501 10.140625 17.906250 L9.515625 19.765625 C9.265624 19.807292 9.020835 19.833333 8.781250 19.843750 C8.541665 19.854167 8.302085 19.859375 8.062500 19.859375 C6.781244 19.859375 5.580735 19.640627 4.460938 19.203125 C3.341140 18.765623 2.427087 18.166670 1.718750 17.406250 L1.968750 17.093750 C1.968750 17.864587 2.078124 18.731766 2.296875 19.695312 C2.515626 20.658859 2.822915 21.630203 3.218750 22.609375 C3.614585 23.588547 4.085935 24.505204 4.632812 25.359375 C5.179690 26.213546 5.781247 26.916664 6.437500 27.468750 C6.531250 27.562500 6.609375 27.541667 6.671875 27.406250 L7.078125 26.453125 C7.369793 26.796877 7.703123 27.182290 8.078125 27.609375 C8.453127 28.036460 8.830727 28.442706 9.210938 28.828125 C9.591148 29.213544 9.934894 29.533853 10.242188 29.789062 C10.549481 30.044272 10.770833 30.171875 10.906250 30.171875 C11.031251 30.171875 11.083333 30.093751 11.062500 29.937500 L10.843750 28.578125 C11.489587 29.015627 12.143226 29.427081 12.804688 29.812500 C13.466149 30.197919 14.078122 30.510415 14.640625 30.750000 C15.203128 30.989585 15.666665 31.109375 16.031250 31.109375 C16.135417 31.109375 16.187500 31.083334 16.187500 31.031250 C16.187500 31.010417 16.174479 30.976563 16.148438 30.929688 C16.122396 30.882812 16.057292 30.796876 15.953125 30.671875 L15.218750 29.750000 C16.177088 29.916668 16.932289 30.044270 17.484375 30.132812 C18.036461 30.221355 18.468748 30.278646 18.781250 30.304688 C19.093752 30.330729 19.369790 30.343750 19.609375 30.343750 C21.088549 30.343750 22.341141 30.080732 23.367188 29.554688 C24.393234 29.028643 25.197914 28.223964 25.781250 27.140625 L29.109375 20.953125 C29.598961 20.036454 29.966145 19.322919 30.210938 18.812500 C30.455730 18.302081 30.578125 17.947918 30.578125 17.750000 C30.578125 17.593749 30.546875 17.479167 30.484375 17.406250 C30.421875 17.333333 30.328126 17.296875 30.203125 17.296875 C29.786456 17.296875 29.341148 17.570310 28.867188 18.117188 C28.393227 18.664065 27.984377 19.411454 27.640625 20.359375 C27.505208 19.723955 27.143232 18.846360 26.554688 17.726562 C25.966143 16.606765 25.276046 15.343757 24.484375 13.937500 C23.776038 12.666660 23.101566 11.434902 22.460938 10.242188 C21.820309 9.049473 21.296877 7.966151 20.890625 6.992188 C20.484373 6.018224 20.281250 5.239586 20.281250 4.656250 C20.281250 4.249998 20.395832 3.953126 20.625000 3.765625 C20.552083 3.713541 20.471355 3.677083 20.382812 3.656250 C20.294270 3.635417 20.203125 3.625000 20.109375 3.625000 C19.755207 3.625000 19.401043 3.783853 19.046875 4.101562 C18.692707 4.419272 18.515625 4.932288 18.515625 5.640625 C18.515625 6.057294 18.554687 6.468748 18.632812 6.875000 C18.710938 7.281252 18.885415 7.838538 19.156250 8.546875 C19.427085 9.255212 19.854164 10.265618 20.437500 11.578125 C21.031253 12.911465 21.466144 14.033850 21.742188 14.945312 C22.018231 15.856775 22.156250 16.640622 22.156250 17.296875 C22.156250 17.838544 21.809899 18.276040 21.117188 18.609375 C20.424476 18.942710 19.645838 19.109375 18.781250 19.109375 C18.187497 19.109375 17.601565 19.018230 17.023438 18.835938 C16.445310 18.653645 15.958335 18.401043 15.562500 18.078125 C15.739584 17.442705 15.885416 16.861982 16.000000 16.335938 C16.114584 15.809893 16.200521 15.197920 16.257812 14.500000 C16.315104 13.802080 16.343750 12.890631 16.343750 11.765625 C16.343750 9.953116 16.395833 8.515630 16.500000 7.453125 C16.604167 6.390620 16.794269 5.578128 17.070312 5.015625 C17.346356 4.453122 17.729164 4.026043 18.218750 3.734375 C18.020832 3.609374 17.843751 3.528646 17.687500 3.492188 C17.531249 3.455729 17.343751 3.437500 17.125000 3.437500 C16.885415 3.437500 16.630210 3.481770 16.359375 3.570312 C16.088540 3.658855 15.848959 3.817707 15.640625 4.046875 C15.161456 4.588544 14.763022 5.343745 14.445312 6.312500 C14.127603 7.281255 13.968750 8.697907 13.968750 10.562500 C13.968750 11.604172 13.854168 12.528642 13.625000 13.335938 C13.395832 14.143233 13.114585 14.888017 12.781250 15.570312 C12.447915 16.252608 12.111981 16.919268 11.773438 17.570312 C11.434894 18.221357 11.151043 18.906246 10.921875 19.625000 C10.692707 20.343754 10.578125 21.145829 10.578125 22.031250 L9.015625 22.031250 C9.015625 21.218746 9.093749 20.500003 9.250000 19.875000 C9.406251 19.249997 9.588541 18.682294 9.796875 18.171875 C10.109377 17.401038 10.458331 16.690107 10.843750 16.039062 C11.229169 15.388018 11.585936 14.669275 11.914062 13.882812 C12.242189 13.096350 12.463541 12.125006 12.578125 10.968750 L12.578125 9.406250 C12.786459 6.812487 13.252601 4.908860 13.976562 3.695312 C14.700524 2.481765 15.749993 1.875000 17.125000 1.875000 C17.687503 1.875000 18.239581 2.015624 18.781250 2.296875 C18.989584 2.182291 19.166666 2.104167 19.312500 2.062500 C19.458334 2.020833 19.645832 2.000000 19.875000 2.000000 C20.583337 2.000000 21.177081 2.283851 21.656250 2.851562 C22.135419 3.419274 22.375000 4.026038 22.375000 4.671875 C22.229166 4.671875 22.132813 4.697916 22.085938 4.750000 C22.039062 4.802084 22.015625 4.885416 22.015625 5.000000 C22.015625 5.260418 22.135415 5.760413 22.375000 6.500000 C22.614585 7.239587 22.963539 8.015621 23.421875 8.828125 C24.588548 10.880219 25.520830 12.539056 26.218750 13.804688 C26.916670 15.070319 27.468748 16.109371 27.875000 16.921875 C28.583337 16.119788 29.359371 15.718750 30.203125 15.718750 C30.817711 15.718750 31.348956 15.919269 31.796875 16.320312 C32.244794 16.721356 32.468750 17.192706 32.468750 17.734375 C32.468750 18.109377 32.330731 18.609372 32.054688 19.234375 C31.778644 19.859378 31.364586 20.692703 30.812500 21.734375 L27.484375 27.921875 C26.765621 29.255215 25.770840 30.252601 24.500000 30.914062 C23.229160 31.575524 21.911465 31.906250 20.546875 31.906250 C20.026039 31.906250 19.549481 31.888021 19.117188 31.851562 C18.684894 31.815104 18.406251 31.770834 18.281250 31.718750 C18.385417 31.864584 18.437500 32.036457 18.437500 32.234375 C18.437500 32.619794 18.213544 32.812500 17.765625 32.812500 Z M14.109375 28.546875 C13.911457 28.546875 13.596356 28.453126 13.164062 28.265625 C12.731769 28.078124 12.283856 27.835939 11.820312 27.539062 C11.356769 27.242186 10.960939 26.929689 10.632812 26.601562 C10.304686 26.273436 10.140625 25.968751 10.140625 25.687500 C10.140625 25.520832 10.213541 25.359376 10.359375 25.203125 C10.505209 25.046874 10.682291 24.968750 10.890625 24.968750 C11.109376 24.968750 11.307291 25.067707 11.484375 25.265625 C11.880210 25.692710 12.281248 26.114581 12.687500 26.531250 C13.093752 26.947919 13.567706 27.302082 14.109375 27.593750 C14.421877 27.760418 14.578125 27.942707 14.578125 28.140625 C14.578125 28.411460 14.421877 28.546875 14.109375 28.546875 Z M1.937500 15.468750 L1.296875 12.734375 C1.442709 12.578124 1.760414 12.364585 2.250000 12.093750 C2.739586 11.822915 3.208331 11.619792 3.656250 11.484375 L4.562500 13.046875 C4.020831 13.255209 3.515627 13.575519 3.046875 14.007812 C2.578123 14.440106 2.208335 14.927081 1.937500 15.468750 Z M16.750000 26.921875 C16.052080 26.921875 15.502606 26.817709 15.101562 26.609375 C14.700519 26.401041 14.500000 26.156251 14.500000 25.875000 C14.500000 25.697916 14.567708 25.562500 14.703125 25.468750 C14.838542 25.375000 14.999999 25.328125 15.187500 25.328125 C15.354167 25.328125 15.531249 25.346354 15.718750 25.382812 C15.906251 25.419271 16.119790 25.458333 16.359375 25.500000 C16.598960 25.541667 16.864582 25.562500 17.156250 25.562500 C17.364584 25.562500 17.562499 25.552083 17.750000 25.531250 C17.937501 25.510417 18.109374 25.492188 18.265625 25.476562 C18.421876 25.460937 18.541666 25.453125 18.625000 25.453125 C18.937502 25.453125 19.093750 25.572915 19.093750 25.812500 C19.093750 26.083335 18.869794 26.335936 18.421875 26.570312 C17.973956 26.804689 17.416670 26.921875 16.750000 26.921875 Z M4.453125 13.250000 C4.161457 13.250000 3.908855 13.143230 3.695312 12.929688 C3.481770 12.716145 3.375000 12.463543 3.375000 12.171875 C3.375000 11.880207 3.481770 11.630209 3.695312 11.421875 C3.908855 11.213541 4.161457 11.109375 4.453125 11.109375 C4.744793 11.109375 4.994791 11.213541 5.203125 11.421875 C5.411459 11.630209 5.515625 11.880207 5.515625 12.171875 C5.515625 12.463543 5.411459 12.716145 5.203125 12.929688 C4.994791 13.143230 4.744793 13.250000 4.453125 13.250000 Z M18.546875 29.125000 C17.848955 29.125000 17.500000 28.859378 17.500000 28.328125 C17.500000 28.088540 17.575520 27.906251 17.726562 27.781250 C17.877605 27.656249 18.062499 27.593750 18.281250 27.593750 C19.197921 27.593750 19.973955 27.531251 20.609375 27.406250 C21.244795 27.281249 21.749998 27.153646 22.125000 27.023438 C22.500002 26.893229 22.744791 26.828125 22.859375 26.828125 C22.953125 26.828125 23.036458 26.869791 23.109375 26.953125 C23.182292 27.036459 23.218750 27.130208 23.218750 27.234375 C23.218750 27.484376 22.994794 27.755207 22.546875 28.046875 C22.098956 28.338543 21.520837 28.591145 20.812500 28.804688 C20.104163 29.018230 19.348962 29.125000 18.546875 29.125000 Z M8.734375 15.687500 C8.484374 15.687500 8.239585 15.640625 8.000000 15.546875 C7.760415 15.453125 7.526043 15.307293 7.296875 15.109375 C6.911456 15.359376 6.489586 15.484375 6.031250 15.484375 C5.739582 15.484375 5.468751 15.429688 5.218750 15.320312 C4.968749 15.210937 4.697918 15.041668 4.406250 14.812500 L5.000000 13.968750 C5.364585 14.239585 5.708332 14.375000 6.031250 14.375000 C6.531252 14.375000 6.968748 14.057295 7.343750 13.421875 C7.479167 13.817710 7.690103 14.111978 7.976562 14.304688 C8.263022 14.497397 8.515624 14.593750 8.734375 14.593750 C8.963543 14.593750 9.239582 14.479168 9.562500 14.250000 L10.140625 15.125000 C9.880207 15.312501 9.643230 15.453125 9.429688 15.546875 C9.216145 15.640625 8.984376 15.687500 8.734375 15.687500 Z M7.359375 14.453125 L6.093750 12.968750 C6.270834 12.427081 6.697913 12.156250 7.375000 12.156250 C7.687502 12.156250 7.981769 12.231770 8.257812 12.382812 C8.533856 12.533855 8.708333 12.713541 8.781250 12.921875 Z M10.546875 13.562500 C10.255207 13.562500 10.002605 13.455730 9.789062 13.242188 C9.575520 13.028645 9.468750 12.776043 9.468750 12.484375 C9.468750 12.192707 9.575520 11.942709 9.789062 11.734375 C10.002605 11.526041 10.255207 11.421875 10.546875 11.421875 C10.838543 11.421875 11.088541 11.526041 11.296875 11.734375 C11.505209 11.942709 11.609375 12.192707 11.609375 12.484375 C11.609375 12.776043 11.505209 13.028645 11.296875 13.242188 C11.088541 13.455730 10.838543 13.562500 10.546875 13.562500 Z M12.171875 15.281250 C11.942707 14.843748 11.664064 14.455731 11.335938 14.117188 C11.007811 13.778644 10.619794 13.479168 10.171875 13.218750 L11.156250 11.875000 C11.510418 12.041667 11.848957 12.213541 12.171875 12.390625 C12.494793 12.567709 12.802082 12.776040 13.093750 13.015625 Z M12.421875 10.000000 L10.484375 9.093750 L7.500000 8.859375 C7.572917 8.515623 7.656250 8.049482 7.750000 7.460938 C7.843750 6.872393 7.929687 6.296878 8.007812 5.734375 C8.085938 5.171872 8.130208 4.765626 8.140625 4.515625 L11.578125 5.312500 C11.734376 5.906253 11.882812 6.617183 12.023438 7.445312 C12.164063 8.273442 12.296874 9.124996 12.421875 10.000000 Z M5.609375 4.390625 C5.494791 4.390625 5.401042 4.330730 5.328125 4.210938 C5.255208 4.091145 5.218750 3.854168 5.218750 3.500000 C5.218750 3.041664 5.385415 2.580731 5.718750 2.117188 C6.052085 1.653644 6.427081 1.421875 6.843750 1.421875 C7.104168 1.421875 7.234375 1.510416 7.234375 1.687500 C7.234375 1.822917 7.148438 2.005207 6.976562 2.234375 C6.804687 2.463543 6.632813 2.695311 6.460938 2.929688 C6.289062 3.164064 6.203125 3.364583 6.203125 3.531250 C6.203125 3.687501 6.148438 3.869791 6.039062 4.078125 C5.929687 4.286459 5.786459 4.390625 5.609375 4.390625 Z M7.203125 5.312500 C7.067708 5.312500 6.958334 5.244792 6.875000 5.109375 C6.791666 4.973958 6.750000 4.713544 6.750000 4.328125 C6.750000 3.994790 6.835937 3.653648 7.007812 3.304688 C7.179688 2.955727 7.403644 2.661460 7.679688 2.421875 C7.955731 2.182290 8.244790 2.062500 8.546875 2.062500 C8.828126 2.062500 8.968750 2.161457 8.968750 2.359375 C8.968750 2.505209 8.875001 2.705728 8.687500 2.960938 C8.499999 3.216147 8.312501 3.473957 8.125000 3.734375 C7.937499 3.994793 7.843750 4.213541 7.843750 4.390625 C7.843750 4.557292 7.781251 4.752603 7.656250 4.976562 C7.531249 5.200522 7.380209 5.312500 7.203125 5.312500 Z M13.609375 5.984375 C13.286457 5.984375 12.627609 5.914063 11.632812 5.773438 C10.638016 5.632812 9.375008 5.354169 7.843750 4.937500 C7.687499 4.895833 7.359378 4.830730 6.859375 4.742188 C6.359372 4.653645 5.802086 4.562500 5.187500 4.468750 C4.572914 4.375000 4.000003 4.289063 3.468750 4.210938 C2.937497 4.132812 2.562501 4.088542 2.343750 4.078125 C1.374995 4.015625 0.890625 3.401048 0.890625 2.234375 C0.890625 0.744784 1.692700 -0.000000 3.296875 -0.000000 C3.848961 -0.000000 4.372393 0.075520 4.867188 0.226562 C5.361982 0.377605 5.880206 0.567707 6.421875 0.796875 C6.619793 0.557290 6.888019 0.364584 7.226562 0.218750 C7.565106 0.072916 7.968748 -0.000000 8.437500 -0.000000 C9.052086 -0.000000 9.601560 0.148436 10.085938 0.445312 C10.570315 0.742189 11.015623 1.255205 11.421875 1.984375 C11.598959 1.994792 11.776041 2.002604 11.953125 2.007812 C12.130209 2.013021 12.312499 2.015625 12.500000 2.015625 C13.125003 2.015625 13.843746 2.039062 14.656250 2.085938 C15.468754 2.132813 16.192705 2.239583 16.828125 2.406250 L14.750000 3.343750 C14.427082 3.312500 14.078127 3.291667 13.703125 3.281250 C13.328123 3.270833 12.927085 3.265625 12.500000 3.265625 C10.833325 3.265625 9.473964 3.111981 8.421875 2.804688 C7.369786 2.497394 6.484379 2.197918 5.765625 1.906250 C5.286456 1.708332 4.856773 1.559896 4.476562 1.460938 C4.096352 1.361979 3.703127 1.312500 3.296875 1.312500 C3.005207 1.312500 2.752605 1.382812 2.539062 1.523438 C2.325520 1.664063 2.218750 1.901040 2.218750 2.234375 C2.218750 2.442709 2.242187 2.591145 2.289062 2.679688 C2.335938 2.768230 2.427083 2.822917 2.562500 2.843750 C2.760418 2.864583 3.124997 2.914062 3.656250 2.992188 C4.187503 3.070313 4.768226 3.156250 5.398438 3.250000 C6.028649 3.343750 6.604164 3.432291 7.125000 3.515625 C7.645836 3.598959 7.989582 3.666666 8.156250 3.718750 C9.427090 4.072918 10.520829 4.330728 11.437500 4.492188 C12.354171 4.653647 13.156247 4.734375 13.843750 4.734375 Z M18.890625 17.421875 C19.161460 17.421875 19.492186 17.385417 19.882812 17.312500 C20.273439 17.239583 20.562499 17.145834 20.750000 17.031250 C20.708333 16.354163 20.507814 15.505213 20.148438 14.484375 C19.789061 13.463537 19.380211 12.395839 18.921875 11.281250 C18.755208 10.854165 18.583334 10.427085 18.406250 10.000000 C18.229166 9.572915 18.052084 9.119794 17.875000 8.640625 C17.812500 9.088544 17.770833 9.497394 17.750000 9.867188 C17.729167 10.236981 17.718750 10.619790 17.718750 11.015625 C17.718750 11.432294 17.723958 11.890622 17.734375 12.390625 C17.744792 12.890628 17.750000 13.463538 17.750000 14.109375 C17.750000 14.734378 17.718750 15.302081 17.656250 15.812500 C17.593750 16.322919 17.505209 16.796873 17.390625 17.234375 C17.588543 17.286459 17.815103 17.330729 18.070312 17.367188 C18.325522 17.403646 18.598957 17.421875 18.890625 17.421875 Z M27.734375 18.234375 L24.500000 13.125000 C24.427083 11.864577 24.372396 10.864587 24.335938 10.125000 C24.299479 9.385413 24.278646 8.809898 24.273438 8.398438 C24.268229 7.986977 24.265625 7.656251 24.265625 7.406250 L27.296875 8.078125 L29.000000 17.015625 Z M29.546875 9.078125 C29.192707 9.078125 28.705732 9.052084 28.085938 9.000000 C27.466143 8.947916 26.802087 8.872396 26.093750 8.773438 C25.385413 8.674479 24.703128 8.559896 24.046875 8.429688 C23.390622 8.299479 22.841148 8.158855 22.398438 8.007812 C21.955727 7.856770 21.692709 7.703126 21.609375 7.546875 L22.000000 6.609375 C22.395835 6.713542 22.901039 6.825520 23.515625 6.945312 C24.130211 7.065105 24.778642 7.182291 25.460938 7.296875 C26.143233 7.411459 26.796872 7.510416 27.421875 7.593750 C28.046878 7.677084 28.578123 7.734375 29.015625 7.765625 C29.026042 7.703125 29.031250 7.640625 29.031250 7.578125 C29.031250 7.515625 29.031250 7.447917 29.031250 7.375000 C29.031250 6.947915 28.979167 6.531252 28.875000 6.125000 C28.791666 6.072916 28.703125 6.028646 28.609375 5.992188 C28.515625 5.955729 28.416667 5.916667 28.312500 5.875000 C28.333333 5.958334 28.343750 6.072916 28.343750 6.218750 C28.343750 6.572918 28.315104 6.804687 28.257812 6.914062 C28.200521 7.023438 28.114584 7.078125 28.000000 7.078125 C27.843749 7.078125 27.703126 6.989584 27.578125 6.812500 C27.453124 6.635416 27.343750 6.458334 27.250000 6.281250 C27.208333 6.187500 27.148438 6.075521 27.070312 5.945312 C26.992187 5.815104 26.906250 5.682292 26.812500 5.546875 C26.739583 5.526042 26.666667 5.513021 26.593750 5.507812 C26.520833 5.502604 26.447917 5.500000 26.375000 5.500000 C26.406250 5.656251 26.421875 5.817708 26.421875 5.984375 C26.421875 6.307293 26.375000 6.536458 26.281250 6.671875 C26.187500 6.807292 26.083334 6.875000 25.968750 6.875000 C25.875000 6.875000 25.781250 6.807292 25.687500 6.671875 C25.593750 6.536458 25.505209 6.328126 25.421875 6.046875 C25.390625 5.942708 25.361979 5.846355 25.335938 5.757812 C25.309896 5.669270 25.276042 5.557292 25.234375 5.421875 C25.151041 5.421875 25.065105 5.421875 24.976562 5.421875 C24.888020 5.421875 24.796875 5.421875 24.703125 5.421875 C24.317706 5.421875 23.885419 5.432292 23.406250 5.453125 C22.927081 5.473958 22.296879 5.515625 21.515625 5.578125 L21.625000 4.296875 C22.375004 4.234375 22.976560 4.192708 23.429688 4.171875 C23.882815 4.151042 24.302081 4.140625 24.687500 4.140625 L24.812500 4.140625 C25.156252 3.588539 25.640622 3.312500 26.265625 3.312500 C26.640627 3.312500 26.968749 3.411457 27.250000 3.609375 C27.531251 3.807293 27.739583 4.088540 27.875000 4.453125 C28.750004 4.661459 29.437498 4.947915 29.937500 5.312500 C30.052084 5.666668 30.138021 6.015623 30.195312 6.359375 C30.252604 6.703127 30.281250 7.041665 30.281250 7.375000 C30.281250 7.687502 30.260417 7.981769 30.218750 8.257812 C30.177083 8.533856 30.119792 8.791665 30.046875 9.031250 C29.984375 9.062500 29.817710 9.078125 29.546875 9.078125 Z M36.546875 27.343750" /></svg>