<svg version="1.1" xmlns="http://www.w3.org/2000/svg" style="fill:rgba(0,0,0,1.0)" width="256" height="256" viewBox="0 0 37.75 32.8125"><path fill="rgb(255, 255, 255)" d="M1.531250 27.765625 L0.000000 26.671875 L1.312500 25.093750 L1.312500 14.406250 C1.312500 12.812492 1.690100 11.307299 2.445312 9.890625 C3.200525 8.473951 4.242181 7.218755 5.570312 6.125000 C6.898444 5.031245 8.429679 4.171878 10.164062 3.546875 C11.898446 2.921872 13.749990 2.609375 15.718750 2.609375 C17.687510 2.609375 19.539054 2.921872 21.273438 3.546875 C23.007821 4.171878 24.539056 5.031245 25.867188 6.125000 C27.195319 7.218755 28.236975 8.473951 28.992188 9.890625 C29.747400 11.307299 30.125000 12.812492 30.125000 14.406250 L30.125000 25.093750 L31.437500 26.671875 L29.906250 27.765625 L28.250000 25.718750 L28.250000 14.406250 C28.250000 13.093743 27.921878 11.841152 27.265625 10.648438 C26.609372 9.455723 25.703131 8.395838 24.546875 7.468750 C23.390619 6.541662 22.057299 5.812503 20.546875 5.281250 C19.036451 4.749997 17.427092 4.484375 15.718750 4.484375 C14.010408 4.484375 12.401049 4.749997 10.890625 5.281250 C9.380201 5.812503 8.046881 6.541662 6.890625 7.468750 C5.734369 8.395838 4.828128 9.455723 4.171875 10.648438 C3.515622 11.841152 3.187500 13.093743 3.187500 14.406250 L3.187500 25.718750 Z M0.000000 32.812500 L0.000000 26.671875 L31.437500 26.671875 L31.437500 32.812500 Z M1.875000 30.937500 L29.562500 30.937500 L29.562500 28.546875 L1.875000 28.546875 Z M7.781250 22.218750 C7.781250 21.572913 7.859374 21.018231 8.015625 20.554688 C8.171876 20.091144 8.442706 19.651044 8.828125 19.234375 C8.807292 19.234375 8.783854 19.234375 8.757812 19.234375 C8.731771 19.234375 8.708333 19.234375 8.687500 19.234375 C8.583333 19.234375 8.486980 19.216146 8.398438 19.179688 C8.309895 19.143229 8.213542 19.104167 8.109375 19.062500 C7.942708 18.989583 7.807292 18.953125 7.703125 18.953125 C7.630208 18.953125 7.541667 18.973958 7.437500 19.015625 C7.354166 19.286460 7.281250 19.471354 7.218750 19.570312 C7.156250 19.669271 7.067709 19.718750 6.953125 19.718750 C6.807291 19.718750 6.703125 19.611980 6.640625 19.398438 C6.578125 19.184895 6.546875 18.838544 6.546875 18.359375 C6.546875 17.942706 6.575521 17.640626 6.632812 17.453125 C6.690104 17.265624 6.786458 17.171875 6.921875 17.171875 C7.036459 17.171875 7.145833 17.249999 7.250000 17.406250 C7.302084 17.479167 7.348958 17.515625 7.390625 17.515625 C7.473959 17.515625 7.588541 17.447917 7.734375 17.312500 C7.942709 17.114582 8.145832 17.015625 8.343750 17.015625 C8.500001 17.015625 8.677082 17.083333 8.875000 17.218750 C8.989584 17.291667 9.135416 17.359375 9.312500 17.421875 C9.489584 17.484375 9.635416 17.515625 9.750000 17.515625 C9.937501 17.515625 10.114582 17.489584 10.281250 17.437500 C10.416667 17.395833 10.526041 17.375000 10.609375 17.375000 C10.692709 17.375000 10.773437 17.429687 10.851562 17.539062 C10.929688 17.648438 10.973958 17.781249 10.984375 17.937500 L10.578125 18.703125 C10.234373 19.348962 10.007813 19.919268 9.898438 20.414062 C9.789062 20.908857 9.734375 21.510413 9.734375 22.218750 Z M11.812500 25.171875 L11.812500 14.328125 L12.796875 14.328125 L12.796875 25.171875 Z M4.437500 25.718750 L4.437500 13.734375 L27.000000 13.734375 L27.000000 25.718750 Z M6.000000 24.156250 L25.437500 24.156250 L25.437500 15.296875 L6.000000 15.296875 Z M14.796875 22.218750 C14.796875 21.572913 14.874999 21.018231 15.031250 20.554688 C15.187501 20.091144 15.458331 19.651044 15.843750 19.234375 C15.822917 19.234375 15.799479 19.234375 15.773438 19.234375 C15.747396 19.234375 15.723958 19.234375 15.703125 19.234375 C15.598958 19.234375 15.502605 19.216146 15.414062 19.179688 C15.325520 19.143229 15.229167 19.104167 15.125000 19.062500 C14.958333 18.989583 14.822917 18.953125 14.718750 18.953125 C14.645833 18.953125 14.557292 18.973958 14.453125 19.015625 C14.369791 19.286460 14.296875 19.471354 14.234375 19.570312 C14.171875 19.669271 14.083334 19.718750 13.968750 19.718750 C13.822916 19.718750 13.718750 19.611980 13.656250 19.398438 C13.593750 19.184895 13.562500 18.838544 13.562500 18.359375 C13.562500 17.942706 13.591146 17.640626 13.648438 17.453125 C13.705729 17.265624 13.802083 17.171875 13.937500 17.171875 C14.052084 17.171875 14.161458 17.249999 14.265625 17.406250 C14.317709 17.479167 14.364583 17.515625 14.406250 17.515625 C14.489584 17.515625 14.604166 17.447917 14.750000 17.312500 C14.958334 17.114582 15.161457 17.015625 15.359375 17.015625 C15.515626 17.015625 15.692707 17.083333 15.890625 17.218750 C16.005209 17.291667 16.151041 17.359375 16.328125 17.421875 C16.505209 17.484375 16.651041 17.515625 16.765625 17.515625 C16.953126 17.515625 17.130208 17.489584 17.296875 17.437500 C17.432292 17.395833 17.541666 17.375000 17.625000 17.375000 C17.708334 17.375000 17.789062 17.429687 17.867188 17.539062 C17.945313 17.648438 17.989583 17.781249 18.000000 17.937500 L17.593750 18.703125 C17.249998 19.348962 17.023438 19.919268 16.914062 20.414062 C16.804687 20.908857 16.750000 21.510413 16.750000 22.218750 Z M18.640625 25.171875 L18.640625 14.328125 L19.625000 14.328125 L19.625000 25.171875 Z M14.750000 14.828125 L8.109375 9.343750 L9.109375 8.125000 L15.750000 13.609375 Z M14.937500 14.531250 L14.937500 6.062500 L16.500000 6.062500 L16.500000 14.531250 Z M5.906250 14.281250 L4.437500 13.734375 C5.364588 11.213529 6.770824 9.252611 8.656250 7.851562 C10.541676 6.450514 12.895819 5.750000 15.718750 5.750000 C18.552098 5.750000 20.908845 6.450514 22.789062 7.851562 C24.669280 9.252611 26.072912 11.213529 27.000000 13.734375 L25.531250 14.281250 C24.666662 11.927072 23.406258 10.177089 21.750000 9.031250 C20.093742 7.885411 18.083345 7.312500 15.718750 7.312500 C13.354155 7.312500 11.343758 7.885411 9.687500 9.031250 C8.031242 10.177089 6.770838 11.927072 5.906250 14.281250 Z M16.687500 14.828125 L15.687500 13.609375 L22.328125 8.125000 L23.328125 9.343750 Z M29.796875 24.390625 L29.796875 22.515625 L31.546875 22.515625 C31.703126 22.515625 31.812500 22.479167 31.875000 22.406250 C31.937500 22.333333 31.968750 22.218751 31.968750 22.062500 L31.968750 17.078125 L33.843750 17.078125 L33.843750 22.687500 C33.843750 23.229169 33.687502 23.648436 33.375000 23.945312 C33.062498 24.242189 32.630211 24.390625 32.078125 24.390625 Z M12.281250 3.578125 C12.281250 2.567703 12.539060 1.718753 13.054688 1.031250 C13.570315 0.343747 14.458327 -0.000000 15.718750 -0.000000 C16.979173 -0.000000 17.867185 0.343747 18.382812 1.031250 C18.898440 1.718753 19.156250 2.567703 19.156250 3.578125 Z M32.921875 18.218750 C32.380206 18.218750 31.916669 18.028648 31.531250 17.648438 C31.145831 17.268227 30.953125 16.807294 30.953125 16.265625 C30.953125 15.723956 31.145831 15.263023 31.531250 14.882812 C31.916669 14.502602 32.380206 14.312500 32.921875 14.312500 C33.463544 14.312500 33.924477 14.502602 34.304688 14.882812 C34.684898 15.263023 34.875000 15.723956 34.875000 16.265625 C34.875000 16.807294 34.684898 17.268227 34.304688 17.648438 C33.924477 18.028648 33.463544 18.218750 32.921875 18.218750 Z M21.687500 22.218750 C21.687500 21.572913 21.765624 21.018231 21.921875 20.554688 C22.078126 20.091144 22.348956 19.651044 22.734375 19.234375 C22.713542 19.234375 22.690104 19.234375 22.664062 19.234375 C22.638021 19.234375 22.614583 19.234375 22.593750 19.234375 C22.489583 19.234375 22.393230 19.216146 22.304688 19.179688 C22.216145 19.143229 22.119792 19.104167 22.015625 19.062500 C21.848958 18.989583 21.713542 18.953125 21.609375 18.953125 C21.536458 18.953125 21.447917 18.973958 21.343750 19.015625 C21.260416 19.286460 21.187500 19.471354 21.125000 19.570312 C21.062500 19.669271 20.973959 19.718750 20.859375 19.718750 C20.713541 19.718750 20.609375 19.611980 20.546875 19.398438 C20.484375 19.184895 20.453125 18.838544 20.453125 18.359375 C20.453125 17.942706 20.481771 17.640626 20.539062 17.453125 C20.596354 17.265624 20.692708 17.171875 20.828125 17.171875 C20.942709 17.171875 21.052083 17.249999 21.156250 17.406250 C21.208334 17.479167 21.255208 17.515625 21.296875 17.515625 C21.380209 17.515625 21.494791 17.447917 21.640625 17.312500 C21.848959 17.114582 22.052082 17.015625 22.250000 17.015625 C22.406251 17.015625 22.583332 17.083333 22.781250 17.218750 C22.895834 17.291667 23.041666 17.359375 23.218750 17.421875 C23.395834 17.484375 23.541666 17.515625 23.656250 17.515625 C23.843751 17.515625 24.020832 17.489584 24.187500 17.437500 C24.322917 17.395833 24.432291 17.375000 24.515625 17.375000 C24.598959 17.375000 24.679687 17.429687 24.757812 17.539062 C24.835938 17.648438 24.880208 17.781249 24.890625 17.937500 L24.484375 18.703125 C24.140623 19.348962 23.914063 19.919268 23.804688 20.414062 C23.695312 20.908857 23.640625 21.510413 23.640625 22.218750 Z M37.750000 27.343750" /></svg>