<svg version="1.1" xmlns="http://www.w3.org/2000/svg" style="fill:rgba(0,0,0,1.0)" width="256" height="256" viewBox="0 0 38.28125 31.25"><path fill="rgb(255, 255, 255)" d="M17.968750 31.250000 C15.749989 31.250000 13.729176 30.932295 11.906250 30.296875 C10.083324 29.661455 8.510423 28.760422 7.187500 27.593750 C5.864577 26.427078 4.846358 25.028654 4.132812 23.398438 C3.419267 21.768221 3.062500 19.963552 3.062500 17.984375 C3.062500 16.463534 3.276040 15.036465 3.703125 13.703125 C3.296873 12.453119 2.994793 11.255214 2.796875 10.109375 C2.598957 8.963536 2.500000 7.812506 2.500000 6.656250 C2.500000 4.604156 2.804684 2.981777 3.414062 1.789062 C4.023441 0.596348 4.880203 -0.000000 5.984375 -0.000000 C6.619795 -0.000000 7.315100 0.226560 8.070312 0.679688 C8.825525 1.132815 9.604163 1.757809 10.406250 2.554688 C11.208337 3.351566 11.994788 4.276036 12.765625 5.328125 C13.557296 5.109374 14.385412 4.940105 15.250000 4.820312 C16.114588 4.700520 17.020829 4.640625 17.968750 4.640625 C18.916671 4.640625 19.822912 4.700520 20.687500 4.820312 C21.552088 4.940105 22.380204 5.109374 23.171875 5.328125 C23.942712 4.276036 24.729163 3.351566 25.531250 2.554688 C26.333337 1.757809 27.114580 1.132815 27.875000 0.679688 C28.635420 0.226560 29.328122 -0.000000 29.953125 -0.000000 C31.067714 -0.000000 31.927080 0.596348 32.531250 1.789062 C33.135420 2.981777 33.437500 4.604156 33.437500 6.656250 C33.437500 7.812506 33.338543 8.966140 33.140625 10.117188 C32.942707 11.268235 32.640627 12.463535 32.234375 13.703125 C32.661460 15.046882 32.875000 16.473951 32.875000 17.984375 C32.875000 19.963552 32.518233 21.768221 31.804688 23.398438 C31.091142 25.028654 30.072923 26.427078 28.750000 27.593750 C27.427077 28.760422 25.854176 29.661455 24.031250 30.296875 C22.208324 30.932295 20.187511 31.250000 17.968750 31.250000 Z M2.734375 25.937500 L1.421875 24.828125 C1.838544 24.286456 2.401038 23.794273 3.109375 23.351562 C3.817712 22.908852 4.593746 22.557293 5.437500 22.296875 C6.281254 22.036457 7.114579 21.906250 7.937500 21.906250 L7.937500 23.625000 C7.302080 23.625000 6.645837 23.729166 5.968750 23.937500 C5.291663 24.145834 4.666670 24.424477 4.093750 24.773438 C3.520830 25.122398 3.067710 25.510415 2.734375 25.937500 Z M0.687500 21.718750 L0.000000 20.156250 C0.614586 19.843748 1.338538 19.598959 2.171875 19.421875 C3.005212 19.244791 3.854162 19.156250 4.718750 19.156250 C5.156252 19.156250 5.583331 19.182291 6.000000 19.234375 C6.416669 19.286459 6.802082 19.369791 7.156250 19.484375 L6.703125 21.140625 C6.484374 21.067708 6.221356 21.002604 5.914062 20.945312 C5.606769 20.888021 5.270835 20.859375 4.906250 20.859375 C4.156246 20.859375 3.393233 20.937499 2.617188 21.093750 C1.841142 21.250001 1.197919 21.458332 0.687500 21.718750 Z M6.218750 18.609375 C4.739576 17.901038 2.739596 17.546875 0.218750 17.546875 L0.218750 15.828125 C1.635424 15.828125 2.898432 15.921874 4.007812 16.109375 C5.117193 16.296876 6.072913 16.604165 6.875000 17.031250 Z M19.203125 26.390625 C18.307287 26.390625 17.348963 26.125003 16.328125 25.593750 L16.765625 24.750000 C17.213544 24.989585 17.638019 25.169270 18.039062 25.289062 C18.440106 25.408855 18.828123 25.468750 19.203125 25.468750 C19.609377 25.468750 20.020831 25.395834 20.437500 25.250000 L20.750000 26.125000 C20.239581 26.302084 19.723961 26.390625 19.203125 26.390625 Z M12.015625 17.890625 C11.505206 17.890625 11.062502 17.661461 10.687500 17.203125 C10.312498 16.744789 10.125000 16.197920 10.125000 15.562500 C10.125000 15.062498 10.208332 14.591148 10.375000 14.148438 C10.541667 13.705727 10.708332 13.484375 10.875000 13.484375 C11.020834 13.484375 11.354164 13.661457 11.875000 14.015625 C12.395836 14.369793 12.937497 14.791664 13.500000 15.281250 C13.708334 15.458334 13.812500 15.687499 13.812500 15.968750 C13.812500 16.375002 13.632814 16.796873 13.273438 17.234375 C12.914061 17.671877 12.494794 17.890625 12.015625 17.890625 Z M17.750000 23.046875 C17.614583 22.557289 17.502605 22.057294 17.414062 21.546875 C17.325520 21.036456 17.260417 20.510419 17.218750 19.968750 L18.625000 19.875000 C18.666667 20.364586 18.726562 20.841144 18.804688 21.304688 C18.882813 21.768231 18.984374 22.223956 19.109375 22.671875 Z M15.000000 24.437500 C14.812499 24.437500 14.614584 24.429688 14.406250 24.414062 C14.197916 24.398437 13.947918 24.369792 13.656250 24.328125 L13.859375 22.921875 C14.109376 22.963542 14.322916 22.992187 14.500000 23.007812 C14.677084 23.023438 14.843749 23.031250 15.000000 23.031250 C16.041672 23.031250 17.161452 22.723961 18.359375 22.109375 C19.182296 22.369793 19.937497 22.500000 20.625000 22.500000 C21.354170 22.500000 21.937498 22.322918 22.375000 21.968750 C22.812502 21.614582 23.145832 21.046879 23.375000 20.265625 L24.718750 20.671875 C24.406248 21.744797 23.908858 22.552081 23.226562 23.093750 C22.544267 23.635419 21.677089 23.906250 20.625000 23.906250 C20.302082 23.906250 19.960939 23.880209 19.601562 23.828125 C19.242186 23.776041 18.875002 23.703125 18.500000 23.609375 C17.322911 24.161461 16.156256 24.437500 15.000000 24.437500 Z M17.968750 20.609375 C17.510414 20.609375 17.067710 20.427085 16.640625 20.062500 C16.213540 19.697915 16.000000 19.338543 16.000000 18.984375 C16.000000 18.682290 16.177082 18.445313 16.531250 18.273438 C16.885418 18.101562 17.364580 18.015625 17.968750 18.015625 C18.583336 18.015625 19.065102 18.101562 19.414062 18.273438 C19.763023 18.445313 19.937500 18.682290 19.937500 18.984375 C19.937500 19.348960 19.721356 19.710936 19.289062 20.070312 C18.856769 20.429689 18.416669 20.609375 17.968750 20.609375 Z M6.796875 11.609375 C6.526040 10.901038 6.320313 10.062505 6.179688 9.093750 C6.039062 8.124995 5.968750 7.218754 5.968750 6.375000 C5.968750 5.645830 6.020833 5.039065 6.125000 4.554688 C6.229167 4.070310 6.385416 3.828125 6.593750 3.828125 C6.781251 3.828125 7.093748 4.026040 7.531250 4.421875 C7.968752 4.817710 8.460935 5.338538 9.007812 5.984375 C9.554690 6.630212 10.093747 7.328121 10.625000 8.078125 C9.979163 8.432293 9.307295 8.947913 8.609375 9.625000 C7.911455 10.302087 7.307294 10.963538 6.796875 11.609375 Z M17.968750 29.531250 C20.593763 29.531250 22.882803 29.046880 24.835938 28.078125 C26.789072 27.109370 28.304682 25.757821 29.382812 24.023438 C30.460943 22.289054 31.000000 20.276053 31.000000 17.984375 C31.000000 16.484367 30.760419 15.088548 30.281250 13.796875 C30.677085 12.588536 30.966145 11.557296 31.148438 10.703125 C31.330730 9.848954 31.445312 9.098962 31.492188 8.453125 C31.539063 7.807288 31.562500 7.208336 31.562500 6.656250 C31.562500 5.177076 31.403647 3.984380 31.085938 3.078125 C30.768228 2.171870 30.390627 1.718750 29.953125 1.718750 C29.557290 1.718750 29.046878 1.942706 28.421875 2.390625 C27.796872 2.838544 27.093754 3.486975 26.312500 4.335938 C25.531246 5.184900 24.713546 6.203119 23.859375 7.390625 C23.005204 7.057290 22.080734 6.802084 21.085938 6.625000 C20.091141 6.447916 19.052089 6.359375 17.968750 6.359375 C16.874995 6.359375 15.835942 6.447916 14.851562 6.625000 C13.867183 6.802084 12.942713 7.057290 12.078125 7.390625 C11.223954 6.203119 10.406254 5.184900 9.625000 4.335938 C8.843746 3.486975 8.140628 2.838544 7.515625 2.390625 C6.890622 1.942706 6.380210 1.718750 5.984375 1.718750 C5.546873 1.718750 5.169272 2.171870 4.851562 3.078125 C4.533853 3.984380 4.375000 5.177076 4.375000 6.656250 C4.375000 7.208336 4.398437 7.807288 4.445312 8.453125 C4.492188 9.098962 4.606770 9.848954 4.789062 10.703125 C4.971355 11.557296 5.260415 12.588536 5.656250 13.796875 C5.177081 15.088548 4.937500 16.484367 4.937500 17.984375 C4.937500 20.276053 5.476557 22.289054 6.554688 24.023438 C7.632818 25.757821 9.151032 27.109370 11.109375 28.078125 C13.067718 29.046880 15.354154 29.531250 17.968750 29.531250 Z M15.953125 11.265625 C15.567706 11.265625 15.132815 10.942712 14.648438 10.296875 C14.164060 9.651038 13.661461 8.432301 13.140625 6.640625 L17.359375 6.000000 C17.380208 6.260418 17.395833 6.515624 17.406250 6.765625 C17.416667 7.015626 17.421875 7.260415 17.421875 7.500000 C17.421875 8.666672 17.291668 9.585934 17.031250 10.257812 C16.770832 10.929691 16.411461 11.265625 15.953125 11.265625 Z M33.203125 25.937500 C32.880207 25.510415 32.429690 25.122398 31.851562 24.773438 C31.273435 24.424477 30.645837 24.145834 29.968750 23.937500 C29.291663 23.729166 28.635420 23.625000 28.000000 23.625000 L28.000000 21.906250 C28.833338 21.906250 29.669267 22.036457 30.507812 22.296875 C31.346358 22.557293 32.119788 22.908852 32.828125 23.351562 C33.536462 23.794273 34.098956 24.286456 34.515625 24.828125 Z M23.921875 17.890625 C23.442706 17.890625 23.023439 17.671877 22.664062 17.234375 C22.304686 16.796873 22.125000 16.375002 22.125000 15.968750 C22.125000 15.687499 22.229166 15.458334 22.437500 15.281250 C23.000003 14.791664 23.541664 14.369793 24.062500 14.015625 C24.583336 13.661457 24.916666 13.484375 25.062500 13.484375 C25.239584 13.484375 25.408853 13.705727 25.570312 14.148438 C25.731772 14.591148 25.812500 15.062498 25.812500 15.562500 C25.812500 16.197920 25.627606 16.744789 25.257812 17.203125 C24.888019 17.661461 24.442711 17.890625 23.921875 17.890625 Z M35.250000 21.718750 C34.739581 21.458332 34.096358 21.250001 33.320312 21.093750 C32.544267 20.937499 31.781254 20.859375 31.031250 20.859375 C30.677082 20.859375 30.343752 20.888021 30.031250 20.945312 C29.718748 21.002604 29.453126 21.067708 29.234375 21.140625 L28.781250 19.484375 C29.135418 19.369791 29.520831 19.286459 29.937500 19.234375 C30.354169 19.182291 30.781248 19.156250 31.218750 19.156250 C32.083338 19.156250 32.934892 19.244791 33.773438 19.421875 C34.611983 19.598959 35.333330 19.843748 35.937500 20.156250 Z M19.984375 11.265625 C19.526039 11.265625 19.166668 10.929691 18.906250 10.257812 C18.645832 9.585934 18.515625 8.666672 18.515625 7.500000 C18.515625 7.260415 18.520833 7.015626 18.531250 6.765625 C18.541667 6.515624 18.557292 6.260418 18.578125 6.000000 L22.796875 6.640625 C22.276039 8.432301 21.776044 9.651038 21.296875 10.296875 C20.817706 10.942712 20.380210 11.265625 19.984375 11.265625 Z M29.718750 18.609375 L29.062500 17.031250 C29.864587 16.604165 30.820307 16.296876 31.929688 16.109375 C33.039068 15.921874 34.302076 15.828125 35.718750 15.828125 L35.718750 17.546875 C33.197904 17.546875 31.197924 17.901038 29.718750 18.609375 Z M29.140625 11.609375 C28.630206 10.963538 28.026045 10.302087 27.328125 9.625000 C26.630205 8.947913 25.958337 8.432293 25.312500 8.078125 C25.843753 7.328121 26.385414 6.630212 26.937500 5.984375 C27.489586 5.338538 27.981769 4.817710 28.414062 4.421875 C28.846356 4.026040 29.156249 3.828125 29.343750 3.828125 C29.552084 3.828125 29.708333 4.070310 29.812500 4.554688 C29.916667 5.039065 29.968750 5.645830 29.968750 6.375000 C29.968750 7.218754 29.898438 8.124995 29.757812 9.093750 C29.617187 10.062505 29.411460 10.901038 29.140625 11.609375 Z M38.281250 26.562500" /></svg>