<svg version="1.1" xmlns="http://www.w3.org/2000/svg" style="fill:rgba(0,0,0,1.0)" width="256" height="256" viewBox="0 0 36.875 32.8125"><path fill="rgb(255, 255, 255)" d="M16.562500 32.812500 C15.270827 32.812500 14.031256 32.687501 12.843750 32.437500 C11.656244 32.187499 10.531255 31.828127 9.468750 31.359375 L11.437500 30.250000 C13.020841 30.812503 14.729158 31.093750 16.562500 31.093750 C18.677094 31.093750 20.627595 30.726566 22.414062 29.992188 C24.200530 29.257809 25.752598 28.231777 27.070312 26.914062 C28.388027 25.596348 29.414059 24.041676 30.148438 22.250000 C30.882816 20.458324 31.250000 18.510427 31.250000 16.406250 C31.250000 14.291656 30.882816 12.341155 30.148438 10.554688 C29.414059 8.768220 28.388027 7.216152 27.070312 5.898438 C25.752598 4.580723 24.200530 3.554691 22.414062 2.820312 C20.627595 2.085934 18.677094 1.718750 16.562500 1.718750 C14.458323 1.718750 12.513030 2.085934 10.726562 2.820312 C8.940095 3.554691 7.385423 4.580723 6.062500 5.898438 C4.739577 7.216152 3.710941 8.768220 2.976562 10.554688 C2.242184 12.341155 1.875000 14.291656 1.875000 16.406250 C1.875000 18.510427 2.244788 20.460929 2.984375 22.257812 C3.723962 24.054696 4.744785 25.604160 6.046875 26.906250 L6.046875 29.312500 C4.171866 27.833326 2.695318 25.984386 1.617188 23.765625 C0.539057 21.546864 0.000000 19.093763 0.000000 16.406250 C0.000000 14.052072 0.414058 11.877614 1.242188 9.882812 C2.070317 7.888011 3.229159 6.151049 4.718750 4.671875 C6.208341 3.192701 7.960927 2.044275 9.976562 1.226562 C11.992198 0.408850 14.187488 -0.000000 16.562500 -0.000000 C18.937512 -0.000000 21.132802 0.408850 23.148438 1.226562 C25.164073 2.044275 26.916659 3.192701 28.406250 4.671875 C29.895841 6.151049 31.054683 7.888011 31.882812 9.882812 C32.710942 11.877614 33.125000 14.052072 33.125000 16.406250 C33.125000 18.760428 32.710942 20.934886 31.882812 22.929688 C31.054683 24.924489 29.895841 26.661451 28.406250 28.140625 C26.916659 29.619799 25.164073 30.768225 23.148438 31.585938 C21.132802 32.403650 18.937512 32.812500 16.562500 32.812500 Z M9.421875 30.203125 C10.255212 30.203125 10.932289 29.934899 11.453125 29.398438 C11.973961 28.861976 12.234375 28.114588 12.234375 27.156250 C12.234375 26.687498 12.106772 26.130212 11.851562 25.484375 C11.596353 24.838538 11.281252 24.140629 10.906250 23.390625 L9.421875 20.421875 L7.937500 23.390625 C7.562498 24.140629 7.247397 24.838538 6.992188 25.484375 C6.736978 26.130212 6.609375 26.687498 6.609375 27.156250 C6.609375 28.114588 6.833331 28.861976 7.281250 29.398438 C7.729169 29.934899 8.442703 30.203125 9.421875 30.203125 Z M9.421875 31.765625 C8.484370 31.765625 7.690107 31.572919 7.039062 31.187500 C6.388018 30.802081 5.893231 30.263024 5.554688 29.570312 C5.216144 28.877601 5.046875 28.072921 5.046875 27.156250 C5.046875 26.562497 5.195311 25.854171 5.492188 25.031250 C5.789064 24.208329 6.161456 23.385421 6.609375 22.562500 L9.421875 17.359375 L12.234375 22.562500 C12.682294 23.385421 13.054686 24.208329 13.351562 25.031250 C13.648439 25.854171 13.796875 26.562497 13.796875 27.156250 C13.796875 28.072921 13.627606 28.877601 13.289062 29.570312 C12.950519 30.263024 12.455732 30.802081 11.804688 31.187500 C11.153643 31.572919 10.359380 31.765625 9.421875 31.765625 Z M16.562500 24.890625 C16.020831 24.890625 15.453128 24.841146 14.859375 24.742188 C14.265622 24.643229 13.536463 24.473960 12.671875 24.234375 L11.453125 21.890625 C12.515630 22.338544 13.445309 22.664061 14.242188 22.867188 C15.039066 23.070314 15.812496 23.171875 16.562500 23.171875 C18.645844 23.171875 20.734365 22.442716 22.828125 20.984375 L23.796875 22.390625 C21.411446 24.057300 19.000012 24.890625 16.562500 24.890625 Z M11.062500 15.703125 C10.468747 15.703125 9.960940 15.450523 9.539062 14.945312 C9.117185 14.440102 8.906250 13.833337 8.906250 13.125000 C8.906250 12.416663 9.117185 11.809898 9.539062 11.304688 C9.960940 10.799477 10.468747 10.546875 11.062500 10.546875 C11.645836 10.546875 12.151040 10.799477 12.578125 11.304688 C13.005210 11.809898 13.218750 12.416663 13.218750 13.125000 C13.218750 13.822920 13.007815 14.427081 12.585938 14.937500 C12.164060 15.447919 11.656253 15.703125 11.062500 15.703125 Z M22.062500 15.703125 C21.468747 15.703125 20.960940 15.450523 20.539062 14.945312 C20.117185 14.440102 19.906250 13.833337 19.906250 13.125000 C19.906250 12.416663 20.117185 11.809898 20.539062 11.304688 C20.960940 10.799477 21.468747 10.546875 22.062500 10.546875 C22.645836 10.546875 23.151040 10.799477 23.578125 11.304688 C24.005210 11.809898 24.218750 12.416663 24.218750 13.125000 C24.218750 13.822920 24.007815 14.427081 23.585938 14.937500 C23.164060 15.447919 22.656253 15.703125 22.062500 15.703125 Z M36.875000 27.343750" /></svg>