<svg version="1.1" xmlns="http://www.w3.org/2000/svg" style="fill:rgba(0,0,0,1.0)" width="256" height="256" viewBox="0 0 38.984375 34.375"><path fill="rgb(255, 255, 255)" d="M1.718750 16.796875 C1.718750 14.567697 2.132808 12.484385 2.960938 10.546875 C3.789067 8.609365 4.947909 6.908861 6.437500 5.445312 C7.927091 3.981764 9.679677 2.838546 11.695312 2.015625 C13.710948 1.192704 15.906238 0.781250 18.281250 0.781250 C19.531256 0.781250 20.703120 0.890624 21.796875 1.109375 C22.890630 1.328126 23.859371 1.624998 24.703125 2.000000 C24.453124 2.135417 24.205730 2.309895 23.960938 2.523438 C23.716145 2.736980 23.505209 2.989582 23.328125 3.281250 C22.744789 3.062499 22.013025 2.877605 21.132812 2.726562 C20.252600 2.575520 19.302088 2.500000 18.281250 2.500000 C16.177073 2.500000 14.231780 2.861976 12.445312 3.585938 C10.658845 4.309899 9.104173 5.312494 7.781250 6.593750 C6.458327 7.875006 5.429691 9.351554 4.695312 11.023438 C3.960934 12.695321 3.593750 14.479157 3.593750 16.375000 C3.270832 16.375000 2.955731 16.411458 2.648438 16.484375 C2.341144 16.557292 2.031252 16.661458 1.718750 16.796875 Z M18.281250 33.593750 C16.677075 33.593750 15.174486 33.406252 13.773438 33.031250 C12.372389 32.656248 11.111985 32.156253 9.992188 31.531250 C8.872390 30.906247 7.932295 30.229170 7.171875 29.500000 C7.692711 29.625001 8.221351 29.713541 8.757812 29.765625 C9.294274 29.817709 9.869789 29.854167 10.484375 29.875000 C11.328129 30.364586 12.442701 30.820310 13.828125 31.242188 C15.213549 31.664065 16.697909 31.875000 18.281250 31.875000 C18.885420 31.875000 19.492184 31.843750 20.101562 31.781250 C20.710941 31.718750 21.156249 31.651042 21.437500 31.578125 C21.520834 31.848960 21.617187 32.122394 21.726562 32.398438 C21.835938 32.674481 21.947916 32.947915 22.062500 33.218750 C21.708332 33.302084 21.171879 33.385416 20.453125 33.468750 C19.734371 33.552084 19.010420 33.593750 18.281250 33.593750 Z M9.984375 28.281250 C8.005198 28.218750 6.265632 27.898440 4.765625 27.320312 C3.265618 26.742185 2.096358 25.966151 1.257812 24.992188 C0.419267 24.018224 0.000000 22.911465 0.000000 21.671875 C0.000000 20.578120 0.356767 19.684899 1.070312 18.992188 C1.783858 18.299476 2.687495 17.953125 3.781250 17.953125 C4.375003 17.953125 5.020830 18.072915 5.718750 18.312500 C6.125002 17.385412 6.664059 16.656253 7.335938 16.125000 C8.007816 15.593747 8.749996 15.328125 9.562500 15.328125 C10.322920 15.328125 10.997393 15.549477 11.585938 15.992188 C12.174482 16.434898 12.640623 17.033850 12.984375 17.789062 C13.328127 18.544275 13.500000 19.395829 13.500000 20.343750 C13.500000 21.635423 13.210940 22.916660 12.632812 24.187500 C12.054685 25.458340 11.171881 26.822909 9.984375 28.281250 Z M26.968750 34.375000 C26.135412 34.375000 25.239588 34.302084 24.281250 34.156250 C22.885410 31.604154 22.187500 29.260427 22.187500 27.125000 C22.187500 26.062495 22.374998 25.101567 22.750000 24.242188 C23.125002 23.382808 23.638018 22.703128 24.289062 22.203125 C24.940107 21.703122 25.677079 21.453125 26.500000 21.453125 C27.416671 21.453125 28.216142 21.781247 28.898438 22.437500 C29.580733 23.093753 30.052082 23.979161 30.312500 25.093750 C30.500001 25.062500 30.682291 25.039063 30.859375 25.023438 C31.036459 25.007812 31.208332 25.000000 31.375000 25.000000 C32.552089 25.000000 33.520830 25.341142 34.281250 26.023438 C35.041670 26.705733 35.421875 27.578120 35.421875 28.640625 C35.421875 29.796881 35.054691 30.804683 34.320312 31.664062 C33.585934 32.523442 32.583340 33.190102 31.312500 33.664062 C30.041660 34.138023 28.593758 34.375000 26.968750 34.375000 Z M10.406250 13.265625 L9.218750 12.234375 C9.708336 11.505205 10.276038 10.945314 10.921875 10.554688 C11.567712 10.164061 12.239580 9.968750 12.937500 9.968750 C13.645837 9.968750 14.320309 10.164061 14.960938 10.554688 C15.601566 10.945314 16.166664 11.505205 16.656250 12.234375 L15.468750 13.265625 C14.791663 12.213536 13.947922 11.687500 12.937500 11.687500 C11.937495 11.687500 11.093753 12.213536 10.406250 13.265625 Z M18.281250 22.062500 C17.312495 22.062500 16.343755 21.984376 15.375000 21.828125 C14.406245 21.671874 13.442713 21.432293 12.484375 21.109375 L12.734375 19.390625 C14.567718 20.026045 16.416657 20.343750 18.281250 20.343750 C21.916685 20.343750 25.557273 19.104179 29.203125 16.625000 L30.171875 18.062500 C26.223939 20.729180 22.260437 22.062500 18.281250 22.062500 Z M21.093750 13.265625 L19.906250 12.234375 C20.395836 11.505205 20.960934 10.945314 21.601562 10.554688 C22.242191 10.164061 22.916663 9.968750 23.625000 9.968750 C24.333337 9.968750 25.010413 10.164061 25.656250 10.554688 C26.302087 10.945314 26.864581 11.505205 27.343750 12.234375 L26.156250 13.265625 C25.468747 12.213536 24.625005 11.687500 23.625000 11.687500 C22.614578 11.687500 21.770837 12.213536 21.093750 13.265625 Z M33.546875 23.812500 C33.317707 23.697916 33.010419 23.611979 32.625000 23.554688 C32.239581 23.497396 31.906251 23.468750 31.625000 23.468750 C31.989585 22.749996 32.304686 21.830735 32.570312 20.710938 C32.835939 19.591140 32.968750 18.416673 32.968750 17.187500 C32.968750 16.572914 32.940104 15.992190 32.882812 15.445312 C32.825521 14.898435 32.755209 14.463543 32.671875 14.140625 C32.994793 14.182292 33.312498 14.210937 33.625000 14.226562 C33.937502 14.242188 34.265623 14.250000 34.609375 14.250000 C34.671875 14.572918 34.726562 14.992185 34.773438 15.507812 C34.820313 16.023440 34.843750 16.583330 34.843750 17.187500 C34.843750 18.406256 34.734376 19.567703 34.515625 20.671875 C34.296874 21.776047 33.973960 22.822912 33.546875 23.812500 Z M34.046875 12.671875 C32.005198 12.598958 30.242195 12.281253 28.757812 11.718750 C27.273430 11.156247 26.130212 10.393234 25.328125 9.429688 C24.526038 8.466141 24.125000 7.359381 24.125000 6.109375 C24.125000 5.057286 24.468747 4.208337 25.156250 3.562500 C25.843753 2.916663 26.739578 2.593750 27.843750 2.593750 C28.447920 2.593750 29.072913 2.697916 29.718750 2.906250 C30.114585 2.010412 30.640622 1.302086 31.296875 0.781250 C31.953128 0.260414 32.677079 -0.000000 33.468750 -0.000000 C34.208337 -0.000000 34.869789 0.218748 35.453125 0.656250 C36.036461 1.093752 36.497394 1.682288 36.835938 2.421875 C37.174481 3.161462 37.343750 3.984370 37.343750 4.890625 C37.343750 7.182303 36.244803 9.776027 34.046875 12.671875 Z M38.984375 28.125000" /></svg>