<svg version="1.1" xmlns="http://www.w3.org/2000/svg" style="fill:rgba(0,0,0,1.0)" width="256" height="256" viewBox="0 0 35.02963382826308 32.8125"><path fill="rgb(255, 255, 255)" d="M14.765625 32.812500 C14.536457 32.812500 14.252606 32.700522 13.914062 32.476562 C13.575519 32.252603 13.239585 31.976564 12.906250 31.648438 C12.572915 31.320311 12.307293 30.989585 12.109375 30.656250 C11.911457 30.322915 11.838541 30.046876 11.890625 29.828125 L11.968750 29.515625 C11.791666 29.619792 11.611980 29.716145 11.429688 29.804688 C11.247395 29.893230 11.080730 29.966146 10.929688 30.023438 C10.778645 30.080729 10.656250 30.109375 10.562500 30.109375 C10.124998 30.109375 9.794272 29.901044 9.570312 29.484375 C9.346353 29.067706 9.234375 28.604169 9.234375 28.093750 C9.234375 27.197912 9.523435 26.466149 10.101562 25.898438 C10.679690 25.330726 11.453120 24.770836 12.421875 24.218750 L12.421875 20.578125 L8.828125 22.593750 C8.828125 23.343754 8.781250 24.015622 8.687500 24.609375 C8.593750 25.203128 8.414064 25.721352 8.148438 26.164062 C7.882811 26.606773 7.489586 26.973957 6.968750 27.265625 C6.510414 27.526043 6.067710 27.656250 5.640625 27.656250 C5.130206 27.656250 4.770834 27.463544 4.562500 27.078125 C4.500000 26.963541 4.455729 26.760418 4.429688 26.468750 C4.403646 26.177082 4.390625 25.875002 4.390625 25.562500 L4.156250 25.781250 C4.020833 25.906251 3.776043 25.968750 3.421875 25.968750 C3.057290 25.968750 2.643231 25.908855 2.179688 25.789062 C1.716144 25.669270 1.294273 25.510418 0.914062 25.312500 C0.533852 25.114582 0.281251 24.911459 0.156250 24.703125 C0.052083 24.515624 0.023437 24.216148 0.070312 23.804688 C0.117188 23.393227 0.210937 22.960940 0.351562 22.507812 C0.492188 22.054685 0.656249 21.661460 0.843750 21.328125 C1.031251 20.994790 1.208332 20.807292 1.375000 20.765625 L1.703125 20.687500 C1.359373 20.458332 1.088543 20.265626 0.890625 20.109375 C0.692707 19.953124 0.554688 19.804688 0.476562 19.664062 C0.398437 19.523437 0.359375 19.375001 0.359375 19.218750 C0.359375 18.864582 0.502603 18.533856 0.789062 18.226562 C1.075522 17.919269 1.429685 17.666668 1.851562 17.468750 C2.273440 17.270832 2.692706 17.171875 3.109375 17.171875 C3.630211 17.171875 4.169268 17.291665 4.726562 17.531250 C5.283857 17.770835 5.885413 18.088540 6.531250 18.484375 L10.296875 16.406250 L6.531250 14.328125 C5.749996 14.796877 5.096357 15.132811 4.570312 15.335938 C4.044268 15.539064 3.557294 15.640625 3.109375 15.640625 C2.661456 15.640625 2.229169 15.539064 1.812500 15.335938 C1.395831 15.132811 1.049481 14.872397 0.773438 14.554688 C0.497394 14.236978 0.359375 13.916668 0.359375 13.593750 C0.359375 13.437499 0.398437 13.289063 0.476562 13.148438 C0.554688 13.007812 0.692707 12.856772 0.890625 12.695312 C1.088543 12.533853 1.359373 12.343751 1.703125 12.125000 L1.375000 12.046875 C1.208332 12.005208 1.031251 11.817710 0.843750 11.484375 C0.656249 11.151040 0.492188 10.757815 0.351562 10.304688 C0.210937 9.851560 0.117188 9.419273 0.070312 9.007812 C0.023437 8.596352 0.052083 8.296876 0.156250 8.109375 C0.281251 7.890624 0.533852 7.684897 0.914062 7.492188 C1.294273 7.299478 1.716144 7.143230 2.179688 7.023438 C2.643231 6.903645 3.057290 6.843750 3.421875 6.843750 C3.776043 6.843750 4.020833 6.906249 4.156250 7.031250 L4.390625 7.250000 C4.390625 6.937498 4.403646 6.635418 4.429688 6.343750 C4.455729 6.052082 4.500000 5.848959 4.562500 5.734375 C4.770834 5.348956 5.130206 5.156250 5.640625 5.156250 C6.067710 5.156250 6.510414 5.286457 6.968750 5.546875 C7.489586 5.838543 7.882811 6.205727 8.148438 6.648438 C8.414064 7.091148 8.593750 7.609372 8.687500 8.203125 C8.781250 8.796878 8.828125 9.468746 8.828125 10.218750 L12.421875 12.234375 L12.421875 8.593750 C11.453120 8.041664 10.679690 7.479170 10.101562 6.906250 C9.523435 6.333330 9.234375 5.604171 9.234375 4.718750 C9.234375 4.197914 9.346353 3.731773 9.570312 3.320312 C9.794272 2.908852 10.124998 2.703125 10.562500 2.703125 C10.656250 2.703125 10.778645 2.731771 10.929688 2.789062 C11.080730 2.846354 11.247395 2.919270 11.429688 3.007812 C11.611980 3.096355 11.791666 3.192708 11.968750 3.296875 L11.890625 2.984375 C11.838541 2.765624 11.911457 2.489585 12.109375 2.156250 C12.307293 1.822915 12.572915 1.492189 12.906250 1.164062 C13.239585 0.835936 13.575519 0.559897 13.914062 0.335938 C14.252606 0.111978 14.536457 -0.000000 14.765625 -0.000000 C14.994793 -0.000000 15.278644 0.111978 15.617188 0.335938 C15.955731 0.559897 16.291665 0.835936 16.625000 1.164062 C16.958335 1.492189 17.223957 1.822915 17.421875 2.156250 C17.619793 2.489585 17.692709 2.765624 17.640625 2.984375 L17.562500 3.296875 C17.750001 3.192708 17.934895 3.096355 18.117188 3.007812 C18.299480 2.919270 18.466145 2.846354 18.617188 2.789062 C18.768230 2.731771 18.885416 2.703125 18.968750 2.703125 C19.406252 2.703125 19.736978 2.908852 19.960938 3.320312 C20.184897 3.731773 20.296875 4.197914 20.296875 4.718750 C20.296875 5.604171 20.007815 6.333330 19.429688 6.906250 C18.851560 7.479170 18.078130 8.041664 17.109375 8.593750 L17.109375 12.234375 L20.703125 10.218750 C20.703125 9.468746 20.750000 8.796878 20.843750 8.203125 C20.937500 7.609372 21.119790 7.091148 21.390625 6.648438 C21.661460 6.205727 22.052081 5.838543 22.562500 5.546875 C23.020836 5.286457 23.463540 5.156250 23.890625 5.156250 C24.401044 5.156250 24.760416 5.348956 24.968750 5.734375 C25.031250 5.848959 25.075521 6.052082 25.101562 6.343750 C25.127604 6.635418 25.140625 6.937498 25.140625 7.250000 L25.375000 7.031250 C25.520834 6.906249 25.765623 6.843750 26.109375 6.843750 C26.473960 6.843750 26.888019 6.903645 27.351562 7.023438 C27.815106 7.143230 28.239581 7.299478 28.625000 7.492188 C29.010419 7.684897 29.260416 7.890624 29.375000 8.109375 C29.479167 8.296876 29.507813 8.596352 29.460938 9.007812 C29.414062 9.419273 29.320313 9.851560 29.179688 10.304688 C29.039062 10.757815 28.875001 11.151040 28.687500 11.484375 C28.499999 11.817710 28.322918 12.005208 28.156250 12.046875 L27.828125 12.125000 C28.182293 12.343751 28.455728 12.533853 28.648438 12.695312 C28.841147 12.856772 28.976562 13.007812 29.054688 13.148438 C29.132813 13.289063 29.171875 13.437499 29.171875 13.593750 C29.171875 13.916668 29.033856 14.236978 28.757812 14.554688 C28.481769 14.872397 28.135419 15.132811 27.718750 15.335938 C27.302081 15.539064 26.869794 15.640625 26.421875 15.640625 C25.973956 15.640625 25.486982 15.539064 24.960938 15.335938 C24.434893 15.132811 23.781254 14.796877 23.000000 14.328125 L19.234375 16.406250 L23.000000 18.484375 C23.645837 18.088540 24.247393 17.770835 24.804688 17.531250 C25.361982 17.291665 25.901039 17.171875 26.421875 17.171875 C26.838544 17.171875 27.257810 17.270832 27.679688 17.468750 C28.101565 17.666668 28.455728 17.919269 28.742188 18.226562 C29.028647 18.533856 29.171875 18.864582 29.171875 19.218750 C29.171875 19.375001 29.132813 19.523437 29.054688 19.664062 C28.976562 19.804688 28.841147 19.953124 28.648438 20.109375 C28.455728 20.265626 28.182293 20.458332 27.828125 20.687500 L28.156250 20.765625 C28.322918 20.807292 28.499999 20.994790 28.687500 21.328125 C28.875001 21.661460 29.039062 22.054685 29.179688 22.507812 C29.320313 22.960940 29.414062 23.393227 29.460938 23.804688 C29.507813 24.216148 29.479167 24.515624 29.375000 24.703125 C29.260416 24.911459 29.010419 25.114582 28.625000 25.312500 C28.239581 25.510418 27.815106 25.669270 27.351562 25.789062 C26.888019 25.908855 26.473960 25.968750 26.109375 25.968750 C25.765623 25.968750 25.520834 25.906251 25.375000 25.781250 L25.140625 25.562500 C25.140625 25.875002 25.127604 26.177082 25.101562 26.468750 C25.075521 26.760418 25.031250 26.963541 24.968750 27.078125 C24.760416 27.463544 24.401044 27.656250 23.890625 27.656250 C23.463540 27.656250 23.020836 27.526043 22.562500 27.265625 C22.052081 26.973957 21.661460 26.606773 21.390625 26.164062 C21.119790 25.721352 20.937500 25.203128 20.843750 24.609375 C20.750000 24.015622 20.703125 23.343754 20.703125 22.593750 L17.109375 20.578125 L17.109375 24.218750 C18.078130 24.770836 18.851560 25.330726 19.429688 25.898438 C20.007815 26.466149 20.296875 27.197912 20.296875 28.093750 C20.296875 28.604169 20.184897 29.067706 19.960938 29.484375 C19.736978 29.901044 19.406252 30.109375 18.968750 30.109375 C18.885416 30.109375 18.768230 30.080729 18.617188 30.023438 C18.466145 29.966146 18.299480 29.893230 18.117188 29.804688 C17.934895 29.716145 17.750001 29.619792 17.562500 29.515625 L17.640625 29.828125 C17.692709 30.046876 17.619793 30.322915 17.421875 30.656250 C17.223957 30.989585 16.958335 31.320311 16.625000 31.648438 C16.291665 31.976564 15.955731 32.252603 15.617188 32.476562 C15.278644 32.700522 14.994793 32.812500 14.765625 32.812500 Z M14.765625 31.250000 C14.786458 31.218750 14.872395 31.117188 15.023438 30.945312 C15.174480 30.773437 15.346353 30.580730 15.539062 30.367188 C15.731772 30.153645 15.890624 29.984376 16.015625 29.859375 L15.765625 29.453125 C15.630208 29.234374 15.536459 28.976564 15.484375 28.679688 C15.432291 28.382811 15.406250 27.979169 15.406250 27.468750 C15.625001 27.375000 15.854165 27.328125 16.093750 27.328125 C16.541669 27.328125 17.057289 27.494790 17.640625 27.828125 L18.687500 28.406250 L18.750000 28.093750 C18.854167 27.572914 18.625003 27.059898 18.062500 26.554688 C17.499997 26.049477 16.661464 25.609377 15.546875 25.234375 L15.546875 19.437500 L16.578125 19.437500 L17.015625 18.765625 L22.359375 21.718750 C22.296875 22.041668 22.252604 22.348957 22.226562 22.640625 C22.200521 22.932293 22.187500 23.208332 22.187500 23.468750 C22.187500 24.135420 22.281249 24.682290 22.468750 25.109375 C22.656251 25.536460 22.937498 25.807291 23.312500 25.921875 L23.609375 26.015625 L23.609375 24.812500 C23.609375 24.302081 23.671874 23.872398 23.796875 23.523438 C23.921876 23.174477 24.124999 22.895834 24.406250 22.687500 C24.739585 22.822917 25.044269 22.997395 25.320312 23.210938 C25.596356 23.424480 25.812499 23.677082 25.968750 23.968750 L26.187500 24.375000 C26.364584 24.322916 26.575520 24.265625 26.820312 24.203125 C27.065105 24.140625 27.299478 24.085938 27.523438 24.039062 C27.747397 23.992187 27.911458 23.968750 28.015625 23.968750 C27.921875 23.739582 27.817709 23.450523 27.703125 23.101562 C27.588541 22.752602 27.489584 22.447918 27.406250 22.187500 L26.921875 22.187500 C26.598957 22.187500 26.273439 22.135417 25.945312 22.031250 C25.617186 21.927083 25.302085 21.770834 25.000000 21.562500 C25.052084 21.229165 25.190103 20.916668 25.414062 20.625000 C25.638022 20.333332 25.968748 20.052085 26.406250 19.781250 L27.437500 19.140625 C27.208332 18.984374 27.015626 18.869792 26.859375 18.796875 C26.703124 18.723958 26.505210 18.687500 26.265625 18.687500 C25.848956 18.687500 25.375003 18.822915 24.843750 19.093750 C24.312497 19.364585 23.739586 19.786455 23.125000 20.359375 L17.796875 17.390625 L18.375000 16.406250 L17.796875 15.421875 L23.125000 12.453125 C23.718753 12.994794 24.281247 13.408853 24.812500 13.695312 C25.343753 13.981772 25.828123 14.125000 26.265625 14.125000 C26.473959 14.125000 26.656249 14.093750 26.812500 14.031250 C26.968751 13.968750 27.177082 13.848959 27.437500 13.671875 L26.406250 13.031250 C25.968748 12.760415 25.638022 12.479168 25.414062 12.187500 C25.190103 11.895832 25.052084 11.583335 25.000000 11.250000 C25.302085 11.041666 25.617186 10.885417 25.945312 10.781250 C26.273439 10.677083 26.598957 10.625000 26.921875 10.625000 L27.406250 10.625000 C27.458334 10.447916 27.528645 10.226564 27.617188 9.960938 C27.705730 9.695311 27.791666 9.450522 27.875000 9.226562 C27.958334 9.002603 28.005208 8.875000 28.015625 8.843750 C27.984375 8.843750 27.854168 8.817709 27.625000 8.765625 C27.395832 8.713541 27.143231 8.656250 26.867188 8.593750 C26.591144 8.531250 26.364584 8.479167 26.187500 8.437500 L25.968750 8.843750 C25.812499 9.135418 25.596356 9.388020 25.320312 9.601562 C25.044269 9.815105 24.739585 9.989583 24.406250 10.125000 C24.124999 9.916666 23.921876 9.638023 23.796875 9.289062 C23.671874 8.940102 23.609375 8.510419 23.609375 8.000000 L23.609375 6.796875 L23.312500 6.890625 C22.937498 7.005209 22.656251 7.273435 22.468750 7.695312 C22.281249 8.117190 22.187500 8.666663 22.187500 9.343750 C22.187500 9.604168 22.200521 9.880207 22.226562 10.171875 C22.252604 10.463543 22.296875 10.770832 22.359375 11.093750 L17.015625 14.046875 L16.578125 13.375000 L15.546875 13.375000 L15.546875 7.578125 C16.661464 7.203123 17.499997 6.763023 18.062500 6.257812 C18.625003 5.752602 18.854167 5.239586 18.750000 4.718750 L18.687500 4.406250 L17.640625 4.984375 C17.057289 5.317710 16.541669 5.484375 16.093750 5.484375 C15.854165 5.484375 15.625001 5.437500 15.406250 5.343750 C15.406250 4.979165 15.424479 4.627606 15.460938 4.289062 C15.497396 3.950519 15.598958 3.640626 15.765625 3.359375 L16.015625 2.953125 C15.890624 2.817708 15.731772 2.645834 15.539062 2.437500 C15.346353 2.229166 15.174480 2.036459 15.023438 1.859375 C14.872395 1.682291 14.786458 1.583333 14.765625 1.562500 C14.755208 1.583333 14.671876 1.682291 14.515625 1.859375 C14.359374 2.036459 14.184897 2.229166 13.992188 2.437500 C13.799478 2.645834 13.640626 2.817708 13.515625 2.953125 L13.765625 3.359375 C13.942709 3.640626 14.046875 3.950519 14.078125 4.289062 C14.109375 4.627606 14.125000 4.979165 14.125000 5.343750 C13.906249 5.437500 13.677085 5.484375 13.437500 5.484375 C12.989581 5.484375 12.473961 5.317710 11.890625 4.984375 L10.843750 4.406250 L10.781250 4.718750 C10.677083 5.239586 10.906247 5.752602 11.468750 6.257812 C12.031253 6.763023 12.869786 7.203123 13.984375 7.578125 L13.984375 13.375000 L12.953125 13.375000 L12.515625 14.046875 L7.171875 11.093750 C7.234375 10.770832 7.278646 10.463543 7.304688 10.171875 C7.330729 9.880207 7.343750 9.604168 7.343750 9.343750 C7.343750 8.666663 7.250001 8.117190 7.062500 7.695312 C6.874999 7.273435 6.593752 7.005209 6.218750 6.890625 L5.921875 6.796875 L5.921875 8.000000 C5.921875 8.510419 5.859376 8.940102 5.734375 9.289062 C5.609374 9.638023 5.406251 9.916666 5.125000 10.125000 C4.791665 9.989583 4.486981 9.815105 4.210938 9.601562 C3.934894 9.388020 3.718751 9.135418 3.562500 8.843750 L3.343750 8.437500 C3.177082 8.479167 2.953126 8.531250 2.671875 8.593750 C2.390624 8.656250 2.135418 8.713541 1.906250 8.765625 C1.677082 8.817709 1.546875 8.843750 1.515625 8.843750 C1.536458 8.875000 1.585937 9.002603 1.664062 9.226562 C1.742188 9.450522 1.825520 9.695311 1.914062 9.960938 C2.002605 10.226564 2.072916 10.447916 2.125000 10.625000 L2.609375 10.625000 C2.942710 10.625000 3.273436 10.677083 3.601562 10.781250 C3.929689 10.885417 4.239582 11.041666 4.531250 11.250000 C4.489583 11.583335 4.354168 11.895832 4.125000 12.187500 C3.895832 12.479168 3.562502 12.760415 3.125000 13.031250 L2.093750 13.671875 C2.354168 13.848959 2.565103 13.968750 2.726562 14.031250 C2.888022 14.093750 3.067707 14.125000 3.265625 14.125000 C3.703127 14.125000 4.187497 13.981772 4.718750 13.695312 C5.250003 13.408853 5.812497 12.994794 6.406250 12.453125 L11.734375 15.421875 L11.156250 16.406250 L11.734375 17.390625 L6.406250 20.359375 C5.791664 19.786455 5.218753 19.364585 4.687500 19.093750 C4.156247 18.822915 3.682294 18.687500 3.265625 18.687500 C3.036457 18.687500 2.841147 18.723958 2.679688 18.796875 C2.518228 18.869792 2.322918 18.984374 2.093750 19.140625 L3.125000 19.781250 C3.562502 20.052085 3.895832 20.333332 4.125000 20.625000 C4.354168 20.916668 4.489583 21.229165 4.531250 21.562500 C4.239582 21.770834 3.929689 21.927083 3.601562 22.031250 C3.273436 22.135417 2.942710 22.187500 2.609375 22.187500 L2.125000 22.187500 C2.072916 22.354168 2.002605 22.572915 1.914062 22.843750 C1.825520 23.114585 1.742188 23.361978 1.664062 23.585938 C1.585937 23.809897 1.536458 23.937500 1.515625 23.968750 C1.546875 23.968750 1.677082 23.994791 1.906250 24.046875 C2.135418 24.098959 2.390624 24.156250 2.671875 24.218750 C2.953126 24.281250 3.177082 24.333333 3.343750 24.375000 L3.562500 23.968750 C3.718751 23.677082 3.934894 23.424480 4.210938 23.210938 C4.486981 22.997395 4.791665 22.822917 5.125000 22.687500 C5.406251 22.895834 5.609374 23.174477 5.734375 23.523438 C5.859376 23.872398 5.921875 24.302081 5.921875 24.812500 L5.921875 26.015625 L6.218750 25.921875 C6.593752 25.807291 6.874999 25.536460 7.062500 25.109375 C7.250001 24.682290 7.343750 24.135420 7.343750 23.468750 C7.343750 23.208332 7.330729 22.932293 7.304688 22.640625 C7.278646 22.348957 7.234375 22.041668 7.171875 21.718750 L12.515625 18.765625 L12.953125 19.437500 L13.984375 19.437500 L13.984375 25.234375 C12.869786 25.609377 12.031253 26.049477 11.468750 26.554688 C10.906247 27.059898 10.677083 27.572914 10.781250 28.093750 L10.843750 28.406250 L11.890625 27.828125 C12.473961 27.494790 12.989581 27.328125 13.437500 27.328125 C13.677085 27.328125 13.906249 27.375000 14.125000 27.468750 C14.125000 27.979169 14.098959 28.382811 14.046875 28.679688 C13.994791 28.976564 13.901042 29.234374 13.765625 29.453125 L13.515625 29.859375 C13.640626 29.984376 13.799478 30.153645 13.992188 30.367188 C14.184897 30.580730 14.359374 30.773437 14.515625 30.945312 C14.671876 31.117188 14.755208 31.218750 14.765625 31.250000 Z M14.015625 17.875000 L13.078125 16.406250 L14.015625 14.937500 L15.515625 14.937500 L16.453125 16.406250 L15.515625 17.875000 Z M35.078125 27.343750" /></svg>