<svg version="1.1" xmlns="http://www.w3.org/2000/svg" style="fill:rgba(0,0,0,1.0)" width="256" height="256" viewBox="0 0 36.328125 32.8125"><path fill="rgb(255, 255, 255)" d="M18.031250 32.812500 L18.031250 32.812500 C18.802087 32.812500 19.479164 32.666668 20.062500 32.375000 C20.645836 32.083332 21.192706 31.697919 21.703125 31.218750 L26.140625 27.031250 C26.817712 26.385413 27.388019 25.893231 27.851562 25.554688 C28.315106 25.216144 28.838539 24.932293 29.421875 24.703125 C29.692710 24.598958 30.033852 24.429689 30.445312 24.195312 C30.856773 23.960936 31.223957 23.619794 31.546875 23.171875 C31.869793 22.723956 32.031250 22.135420 32.031250 21.406250 C32.031250 20.999998 31.984375 20.585940 31.890625 20.164062 C31.796875 19.742185 31.682292 19.307294 31.546875 18.859375 C31.390624 18.338539 31.247396 17.794274 31.117188 17.226562 C30.986979 16.658851 30.921875 16.057295 30.921875 15.421875 L30.921875 5.156250 C30.223955 5.177083 29.432296 5.195312 28.546875 5.210938 C27.661454 5.226563 26.786463 5.234375 25.921875 5.234375 C25.078121 5.234375 24.231775 5.229167 23.382812 5.218750 C22.533850 5.208333 21.723962 5.197917 20.953125 5.187500 C20.984375 6.104171 21.013021 7.007808 21.039062 7.898438 C21.065104 8.789067 21.091146 9.669266 21.117188 10.539062 C21.143229 11.408859 21.161458 12.276037 21.171875 13.140625 C21.182292 14.005213 21.187500 14.880204 21.187500 15.765625 C21.187500 16.286461 21.166667 16.721352 21.125000 17.070312 C21.083333 17.419273 20.984376 17.749998 20.828125 18.062500 C20.671874 18.375002 20.421877 18.729165 20.078125 19.125000 L16.031250 23.796875 C15.437497 24.473962 14.973960 25.057289 14.640625 25.546875 C14.307290 26.036461 14.072917 26.497394 13.937500 26.929688 C13.802083 27.361981 13.734375 27.838539 13.734375 28.359375 C13.734375 29.161462 13.921873 29.901038 14.296875 30.578125 C14.671877 31.255212 15.184893 31.796873 15.835938 32.203125 C16.486982 32.609377 17.218746 32.812500 18.031250 32.812500 Z M4.515625 26.859375 L4.515625 26.859375 C5.098961 26.859375 5.661456 26.765626 6.203125 26.578125 C6.744794 26.390624 7.208331 26.156251 7.593750 25.875000 C7.406249 24.968745 7.000003 24.106775 6.375000 23.289062 C5.749997 22.471350 5.044275 21.783857 4.257812 21.226562 C3.471350 20.669268 2.729170 20.338542 2.031250 20.234375 C1.666665 20.723961 1.388022 21.226560 1.195312 21.742188 C1.002603 22.257815 0.906250 22.765622 0.906250 23.265625 C0.906250 24.255213 1.242184 25.101559 1.914062 25.804688 C2.585941 26.507816 3.453120 26.859375 4.515625 26.859375 Z M18.250000 32.015625 L18.250000 32.015625 C18.833336 32.015625 19.395831 31.921876 19.937500 31.734375 C20.479169 31.546874 20.942706 31.312501 21.328125 31.031250 C21.140624 30.124995 20.734378 29.263025 20.109375 28.445312 C19.484372 27.627600 18.778650 26.940107 17.992188 26.382812 C17.205725 25.825518 16.463545 25.494792 15.765625 25.390625 C15.401040 25.880211 15.122397 26.382810 14.929688 26.898438 C14.736978 27.414065 14.640625 27.921872 14.640625 28.421875 C14.640625 29.411463 14.976559 30.257809 15.648438 30.960938 C16.320316 31.664066 17.187495 32.015625 18.250000 32.015625 Z M4.281250 25.937500 L4.281250 25.937500 C3.531246 25.937500 2.916669 25.664065 2.437500 25.117188 C1.958331 24.570310 1.718750 23.932295 1.718750 23.203125 C1.718750 22.744789 1.895832 22.244794 2.250000 21.703125 C2.604168 21.161456 3.104163 20.515629 3.750000 19.765625 L8.250000 14.562500 C8.604168 14.156248 8.854166 13.794272 9.000000 13.476562 C9.145834 13.158853 9.236979 12.786460 9.273438 12.359375 C9.309896 11.932290 9.328125 11.354170 9.328125 10.625000 C9.328125 9.624995 9.317708 8.598964 9.296875 7.546875 C9.276042 6.494786 9.247396 5.479172 9.210938 4.500000 C9.174479 3.520828 9.140625 2.656254 9.109375 1.906250 C10.130213 1.937500 11.140620 1.953125 12.140625 1.953125 C12.651044 1.953125 13.177081 1.947917 13.718750 1.937500 C14.260419 1.927083 14.786456 1.916667 15.296875 1.906250 L15.296875 10.312500 C15.296875 10.864586 15.328125 11.322915 15.390625 11.687500 C15.453125 12.052085 15.526041 12.348957 15.609375 12.578125 L13.078125 14.031250 C12.796874 14.197917 12.585938 14.388020 12.445312 14.601562 C12.304687 14.815105 12.234375 15.026041 12.234375 15.234375 C12.234375 15.473960 12.317708 15.776040 12.484375 16.140625 L13.609375 18.531250 C13.213540 18.802085 12.856772 19.067707 12.539062 19.328125 C12.221353 19.588543 11.864585 19.901040 11.468750 20.265625 L6.437500 24.921875 C5.958331 25.359377 5.552085 25.638020 5.218750 25.757812 C4.885415 25.877605 4.572918 25.937500 4.281250 25.937500 Z M4.296875 27.656250 L4.296875 27.656250 C5.067712 27.656250 5.744789 27.510418 6.328125 27.218750 C6.911461 26.927082 7.458331 26.541669 7.968750 26.062500 L12.406250 21.875000 C13.083337 21.229163 13.653644 20.736981 14.117188 20.398438 C14.580731 20.059894 15.104164 19.776043 15.687500 19.546875 C15.958335 19.442708 16.299477 19.273439 16.710938 19.039062 C17.122398 18.804686 17.489582 18.463544 17.812500 18.015625 C18.135418 17.567706 18.296875 16.979170 18.296875 16.250000 C18.296875 15.843748 18.250000 15.432294 18.156250 15.015625 C18.062500 14.598956 17.947917 14.166669 17.812500 13.718750 C17.656249 13.197914 17.513021 12.651045 17.382812 12.078125 C17.252604 11.505205 17.187500 10.901045 17.187500 10.265625 L17.187500 -0.000000 C16.489580 0.020833 15.697921 0.039062 14.812500 0.054688 C13.927079 0.070313 13.052088 0.078125 12.187500 0.078125 C11.343746 0.078125 10.497400 0.072917 9.648438 0.062500 C8.799475 0.052083 7.989587 0.041667 7.218750 0.031250 C7.250000 0.947921 7.278646 1.851558 7.304688 2.742188 C7.330729 3.632817 7.356771 4.513016 7.382812 5.382812 C7.408854 6.252609 7.427083 7.119787 7.437500 7.984375 C7.447917 8.848963 7.453125 9.723954 7.453125 10.609375 C7.453125 11.130211 7.432292 11.565102 7.390625 11.914062 C7.348958 12.263023 7.250001 12.593748 7.093750 12.906250 C6.937499 13.218752 6.687502 13.572915 6.343750 13.968750 L2.296875 18.640625 C1.703122 19.317712 1.239585 19.901039 0.906250 20.390625 C0.572915 20.880211 0.338542 21.341144 0.203125 21.773438 C0.067708 22.205731 0.000000 22.682289 0.000000 23.203125 C0.000000 24.005212 0.187498 24.744788 0.562500 25.421875 C0.937502 26.098962 1.450518 26.640623 2.101562 27.046875 C2.752607 27.453127 3.484371 27.656250 4.296875 27.656250 Z M18.015625 31.093750 L18.015625 31.093750 C17.265621 31.093750 16.651044 30.820315 16.171875 30.273438 C15.692706 29.726560 15.453125 29.088545 15.453125 28.359375 C15.453125 27.901039 15.630207 27.401044 15.984375 26.859375 C16.338543 26.317706 16.838538 25.671879 17.484375 24.921875 L21.984375 19.718750 C22.338543 19.312498 22.588541 18.950522 22.734375 18.632812 C22.880209 18.315103 22.971354 17.942710 23.007812 17.515625 C23.044271 17.088540 23.062500 16.510420 23.062500 15.781250 C23.062500 14.781245 23.052083 13.755214 23.031250 12.703125 C23.010417 11.651036 22.981771 10.635422 22.945312 9.656250 C22.908854 8.677078 22.875000 7.812504 22.843750 7.062500 C23.864588 7.093750 24.874995 7.109375 25.875000 7.109375 C26.385419 7.109375 26.911456 7.104167 27.453125 7.093750 C27.994794 7.083333 28.520831 7.072917 29.031250 7.062500 L29.031250 15.468750 C29.031250 16.020836 29.062500 16.479165 29.125000 16.843750 C29.187500 17.208335 29.260416 17.505207 29.343750 17.734375 L26.812500 19.187500 C26.531249 19.354168 26.320313 19.544270 26.179688 19.757812 C26.039062 19.971355 25.968750 20.182291 25.968750 20.390625 C25.968750 20.630210 26.052082 20.932290 26.218750 21.296875 L27.343750 23.687500 C26.947915 23.958335 26.591147 24.223957 26.273438 24.484375 C25.955728 24.744793 25.598960 25.057290 25.203125 25.421875 L20.171875 30.078125 C19.692706 30.515627 19.286460 30.794270 18.953125 30.914062 C18.619790 31.033855 18.307293 31.093750 18.015625 31.093750 Z M12.125000 8.421875 L12.125000 8.421875 C12.802087 8.421875 13.499996 8.416667 14.218750 8.406250 C14.937504 8.395833 15.630205 8.385417 16.296875 8.375000 L16.296875 6.500000 C15.630205 6.520833 14.937504 6.536458 14.218750 6.546875 C13.499996 6.557292 12.802087 6.562500 12.125000 6.562500 C11.447913 6.562500 10.778649 6.557292 10.117188 6.546875 C9.455726 6.536458 8.786462 6.520833 8.109375 6.500000 L8.109375 8.375000 C9.453132 8.406250 10.791660 8.421875 12.125000 8.421875 Z M12.125000 4.968750 L12.125000 4.968750 C12.802087 4.968750 13.499996 4.963542 14.218750 4.953125 C14.937504 4.942708 15.630205 4.932292 16.296875 4.921875 L16.296875 3.046875 C15.630205 3.067708 14.937504 3.083333 14.218750 3.093750 C13.499996 3.104167 12.802087 3.109375 12.125000 3.109375 C11.447913 3.109375 10.778649 3.104167 10.117188 3.093750 C9.455726 3.083333 8.786462 3.067708 8.109375 3.046875 L8.109375 4.921875 C9.453132 4.953125 10.791660 4.968750 12.125000 4.968750 Z M25.859375 13.578125 L25.859375 13.578125 C26.536462 13.578125 27.234371 13.572917 27.953125 13.562500 C28.671879 13.552083 29.364580 13.541667 30.031250 13.531250 L30.031250 11.656250 C29.364580 11.677083 28.671879 11.692708 27.953125 11.703125 C27.234371 11.713542 26.536462 11.718750 25.859375 11.718750 C25.182288 11.718750 24.513024 11.713542 23.851562 11.703125 C23.190101 11.692708 22.520837 11.677083 21.843750 11.656250 L21.843750 13.531250 C23.187507 13.562500 24.526035 13.578125 25.859375 13.578125 Z M25.859375 10.125000 L25.859375 10.125000 C26.536462 10.125000 27.234371 10.119792 27.953125 10.109375 C28.671879 10.098958 29.364580 10.088542 30.031250 10.078125 L30.031250 8.203125 C29.364580 8.223958 28.671879 8.239583 27.953125 8.250000 C27.234371 8.260417 26.536462 8.265625 25.859375 8.265625 C25.182288 8.265625 24.513024 8.260417 23.851562 8.250000 C23.190101 8.239583 22.520837 8.223958 21.843750 8.203125 L21.843750 10.078125 C23.187507 10.109375 24.526035 10.125000 25.859375 10.125000 Z M36.328125 27.343750" /></svg>