<svg version="1.1" xmlns="http://www.w3.org/2000/svg" style="fill:rgba(0,0,0,1.0)" width="256" height="256" viewBox="0 0 35.65625 32.8125"><path fill="rgb(255, 255, 255)" d="M16.312500 15.187500 C16.020832 15.187500 15.729168 15.182292 15.437500 15.171875 C15.145832 15.161458 14.817710 15.145833 14.453125 15.125000 L14.453125 13.875000 C14.911461 13.916667 15.546871 13.937500 16.359375 13.937500 C17.755215 13.937500 19.075515 13.786460 20.320312 13.484375 C21.565110 13.182290 22.666662 12.765628 23.625000 12.234375 C24.583338 11.703122 25.335935 11.091149 25.882812 10.398438 C26.429690 9.705726 26.703125 8.973962 26.703125 8.203125 C26.703125 7.317704 26.304691 6.515629 25.507812 5.796875 C24.710934 5.078121 23.625007 4.505210 22.250000 4.078125 C20.874993 3.651040 19.307300 3.437500 17.546875 3.437500 C16.265619 3.437500 15.054693 3.549478 13.914062 3.773438 C12.773432 3.997397 11.765629 4.304686 10.890625 4.695312 C10.015621 5.085939 9.325523 5.528643 8.820312 6.023438 C8.315102 6.518232 8.062500 7.036456 8.062500 7.578125 C8.062500 8.369796 8.661452 9.020831 9.859375 9.531250 C11.057298 10.041669 12.588532 10.296875 14.453125 10.296875 C16.234384 10.296875 17.677078 10.062502 18.781250 9.593750 C19.885422 9.124998 20.437500 8.520837 20.437500 7.781250 C20.437500 7.291664 20.203127 6.877606 19.734375 6.539062 C19.265623 6.200519 18.598963 6.031250 17.734375 6.031250 C16.932288 6.031250 16.317710 6.117187 15.890625 6.289062 C15.463540 6.460938 15.250000 6.666665 15.250000 6.906250 C15.250000 7.062501 15.341145 7.187500 15.523438 7.281250 C15.705730 7.375000 15.947915 7.421875 16.250000 7.421875 L16.531250 7.421875 L16.531250 8.406250 C16.458333 8.416667 16.369792 8.424479 16.265625 8.429688 C16.161458 8.434896 16.067709 8.437500 15.984375 8.437500 C15.401039 8.437500 14.901044 8.276043 14.484375 7.953125 C14.067706 7.630207 13.859375 7.244794 13.859375 6.796875 C13.859375 6.203122 14.239580 5.692710 15.000000 5.265625 C15.760420 4.838540 16.739577 4.625000 17.937500 4.625000 C18.864588 4.625000 19.705725 4.773436 20.460938 5.070312 C21.216150 5.367189 21.817706 5.763018 22.265625 6.257812 C22.713544 6.752607 22.937500 7.291664 22.937500 7.875000 C22.937500 8.604170 22.578129 9.270830 21.859375 9.875000 C21.140621 10.479170 20.145840 10.960936 18.875000 11.320312 C17.604160 11.679689 16.135425 11.859375 14.468750 11.859375 C12.781242 11.859375 11.278652 11.674481 9.960938 11.304688 C8.643223 10.934894 7.606775 10.437503 6.851562 9.812500 C6.096350 9.187497 5.718750 8.494795 5.718750 7.734375 C5.718750 6.921871 6.031247 6.153649 6.656250 5.429688 C7.281253 4.705726 8.143224 4.065107 9.242188 3.507812 C10.341151 2.950518 11.614576 2.513022 13.062500 2.195312 C14.510424 1.877603 16.057283 1.718750 17.703125 1.718750 C19.869802 1.718750 21.768221 1.992185 23.398438 2.539062 C25.028654 3.085940 26.299475 3.833329 27.210938 4.781250 C28.122400 5.729171 28.578125 6.812494 28.578125 8.031250 C28.578125 9.104172 28.213545 10.080725 27.484375 10.960938 C26.755205 11.841150 25.786464 12.596351 24.578125 13.226562 C23.369786 13.856774 22.046882 14.341144 20.609375 14.679688 C19.171868 15.018231 17.739590 15.187500 16.312500 15.187500 Z M5.531250 21.031250 C4.062493 20.531248 2.864588 19.760422 1.937500 18.718750 C1.010412 17.677078 0.364585 16.380216 0.000000 14.828125 L1.359375 14.500000 C1.661460 15.822923 2.195309 16.916662 2.960938 17.781250 C3.726566 18.645838 4.734369 19.291665 5.984375 19.718750 Z M9.750000 32.812500 C9.781250 32.416665 9.997394 32.031252 10.398438 31.656250 C10.799481 31.281248 11.359371 31.093750 12.078125 31.093750 C12.192709 31.093750 12.312499 31.098958 12.437500 31.109375 C12.562501 31.119792 12.692708 31.140625 12.828125 31.171875 C13.088543 30.807290 13.408852 30.513022 13.789062 30.289062 C14.169273 30.065103 14.572915 29.953125 15.000000 29.953125 C15.875004 29.953125 16.609372 30.072915 17.203125 30.312500 C17.567710 30.072915 17.992185 29.872397 18.476562 29.710938 C18.960940 29.549478 19.494789 29.468750 20.078125 29.468750 C21.307298 29.468750 22.265622 29.880204 22.953125 30.703125 C23.744796 30.703125 24.421872 30.898436 24.984375 31.289062 C25.546878 31.679689 25.880208 32.187497 25.984375 32.812500 Z M16.953125 30.718750 L15.031250 30.359375 C15.750004 29.588538 16.335935 28.713547 16.789062 27.734375 C17.242190 26.755203 17.468750 25.864587 17.468750 25.062500 C17.468750 24.843749 17.453125 24.632814 17.421875 24.429688 C17.390625 24.226561 17.354167 24.041668 17.312500 23.875000 L18.828125 22.953125 C18.973959 23.432294 19.070312 23.835936 19.117188 24.164062 C19.164063 24.492189 19.187500 24.791665 19.187500 25.062500 C19.187500 25.947921 19.007814 26.848954 18.648438 27.765625 C18.289061 28.682296 17.723962 29.666661 16.953125 30.718750 Z M20.312500 31.171875 L17.609375 30.765625 C18.255212 30.505207 18.895830 30.122398 19.531250 29.617188 C20.166670 29.111977 20.723956 28.552086 21.203125 27.937500 C21.682294 27.322914 22.010416 26.734378 22.187500 26.171875 L24.203125 25.265625 C24.067708 26.369797 23.638024 27.445307 22.914062 28.492188 C22.190101 29.539068 21.322922 30.432288 20.312500 31.171875 Z M18.234375 23.921875 C16.838535 23.921875 15.622401 23.768231 14.585938 23.460938 C13.549474 23.153644 12.677087 22.510422 11.968750 21.531250 C10.531243 21.281249 9.460941 20.833337 8.757812 20.187500 C8.054684 19.541663 7.557293 18.562507 7.265625 17.250000 L9.156250 17.218750 C9.302084 18.010421 9.648435 18.604165 10.195312 19.000000 C10.742190 19.395835 11.682285 19.718749 13.015625 19.968750 C13.390627 20.739587 14.057287 21.338540 15.015625 21.765625 C15.973963 22.192710 17.046869 22.406250 18.234375 22.406250 C18.838545 22.406250 19.437497 22.361980 20.031250 22.273438 C20.625003 22.184895 21.145831 22.052084 21.593750 21.875000 L21.984375 23.046875 C21.515623 23.276043 20.981774 23.479166 20.382812 23.656250 C19.783851 23.833334 19.067712 23.921875 18.234375 23.921875 Z M14.593750 18.640625 C12.645824 18.640625 11.020840 18.494793 9.718750 18.203125 C8.416660 17.911457 7.369796 17.523440 6.578125 17.039062 C5.786454 16.554685 5.187502 16.023440 4.781250 15.445312 C4.374998 14.867185 4.096355 14.289065 3.945312 13.710938 C3.794270 13.132810 3.703125 12.604169 3.671875 12.125000 C3.161456 11.718748 2.742189 11.216149 2.414062 10.617188 C2.085936 10.018226 1.921875 9.395837 1.921875 8.750000 C1.921875 7.812495 2.268226 6.953129 2.960938 6.171875 C3.653649 5.390621 4.583328 4.765627 5.750000 4.296875 C6.916672 3.828123 8.197910 3.593750 9.593750 3.593750 L7.578125 5.656250 C7.015622 5.656250 6.442711 5.817707 5.859375 6.140625 C5.276039 6.463543 4.786460 6.861977 4.390625 7.335938 C3.994790 7.809898 3.796875 8.281248 3.796875 8.750000 C3.796875 9.177085 3.940103 9.617185 4.226562 10.070312 C4.513022 10.523440 4.890623 10.874999 5.359375 11.125000 C5.359375 12.197922 5.575519 13.122392 6.007812 13.898438 C6.440106 14.674483 7.085933 15.312498 7.945312 15.812500 C8.804692 16.312502 9.880202 16.684895 11.171875 16.929688 C12.463548 17.174480 13.968741 17.296875 15.687500 17.296875 C16.218753 17.296875 16.770830 17.283854 17.343750 17.257812 C17.916670 17.231771 18.505205 17.192709 19.109375 17.140625 L19.203125 18.359375 C17.546867 18.546876 16.010424 18.640625 14.593750 18.640625 Z M20.453125 26.593750 L20.296875 25.500000 C21.473964 25.354166 22.325518 25.078127 22.851562 24.671875 C23.377607 24.265623 23.640625 23.682295 23.640625 22.921875 C23.640625 22.401039 23.510418 21.895836 23.250000 21.406250 C23.416668 21.249999 23.536458 21.075522 23.609375 20.882812 C23.682292 20.690103 23.718750 20.494793 23.718750 20.296875 C23.718750 19.817706 23.515627 19.390627 23.109375 19.015625 L24.265625 17.765625 C25.015629 18.338545 25.390625 19.104162 25.390625 20.062500 C25.390625 20.541669 25.281251 21.026039 25.062500 21.515625 C25.260418 21.942710 25.359375 22.374998 25.359375 22.812500 C25.359375 23.968756 24.979170 24.841143 24.218750 25.429688 C23.458330 26.018232 22.203134 26.406249 20.453125 26.593750 Z M2.765625 3.296875 L2.062500 2.062500 C3.218756 1.427080 4.434889 0.934898 5.710938 0.585938 C6.986986 0.236977 8.307285 0.041667 9.671875 -0.000000 L9.734375 1.375000 C8.286451 1.489584 6.994797 1.703123 5.859375 2.015625 C4.723953 2.328127 3.692713 2.755206 2.765625 3.296875 Z M16.890625 21.031250 L16.828125 19.781250 C18.942719 19.781250 20.518224 19.476566 21.554688 18.867188 C22.591151 18.257809 23.109375 17.333340 23.109375 16.093750 C23.109375 15.729165 23.088542 15.385418 23.046875 15.062500 C23.671878 14.729165 24.187498 14.359377 24.593750 13.953125 C25.000002 13.546873 25.229166 13.062503 25.281250 12.500000 L27.078125 11.125000 C27.109375 11.229167 27.127604 11.338541 27.132812 11.453125 C27.138021 11.567709 27.140625 11.682291 27.140625 11.796875 C27.140625 12.651046 26.911461 13.486975 26.453125 14.304688 C25.994789 15.122400 25.385420 15.723956 24.625000 16.109375 C24.656250 16.338543 24.671875 16.552082 24.671875 16.750000 C24.671875 18.135424 24.002611 19.195309 22.664062 19.929688 C21.325514 20.664066 19.401054 21.031250 16.890625 21.031250 Z M27.890625 19.250000 L26.968750 18.187500 C28.510424 16.843743 29.281250 15.270842 29.281250 13.468750 C29.281250 13.364583 29.278646 13.260417 29.273438 13.156250 C29.268229 13.052083 29.260417 12.947917 29.250000 12.843750 L30.656250 12.718750 C30.677083 12.843751 30.687500 12.966145 30.687500 13.085938 C30.687500 13.205730 30.687500 13.328124 30.687500 13.453125 C30.687500 15.723970 29.755218 17.656242 27.890625 19.250000 Z M35.656250 27.343750" /></svg>