<svg version="1.1" xmlns="http://www.w3.org/2000/svg" style="fill:rgba(0,0,0,1.0)" width="256" height="256" viewBox="0 0 35.15625 32.8125"><path fill="rgb(255, 255, 255)" d="M6.437500 32.812500 C5.968748 32.812500 5.596356 32.661460 5.320312 32.359375 C5.044269 32.057290 4.906250 31.682294 4.906250 31.234375 C4.906250 30.692706 5.091144 30.205731 5.460938 29.773438 C5.830731 29.341144 6.299476 28.953127 6.867188 28.609375 C7.434899 28.265623 8.015622 27.963543 8.609375 27.703125 C9.057294 27.505207 9.492185 27.302084 9.914062 27.093750 C10.335940 26.885416 10.718748 26.651043 11.062500 26.390625 C11.406252 26.130207 11.671874 25.828127 11.859375 25.484375 C12.005209 25.234374 12.098958 24.953127 12.140625 24.640625 C11.473955 25.140628 10.835941 25.520832 10.226562 25.781250 C9.617184 26.041668 9.026045 26.221354 8.453125 26.320312 C7.880205 26.419271 7.307295 26.468750 6.734375 26.468750 C5.359368 26.468750 4.169276 26.171878 3.164062 25.578125 C2.158849 24.984372 1.380211 24.166672 0.828125 23.125000 C0.276039 22.083328 0.000000 20.890632 0.000000 19.546875 C0.000000 18.151035 0.299476 16.783861 0.898438 15.445312 C1.497399 14.106764 2.268224 12.815110 3.210938 11.570312 C4.153651 10.325515 5.135412 9.145839 6.156250 8.031250 C6.708336 7.427080 7.369788 6.744795 8.140625 5.984375 C8.911462 5.223955 9.710933 4.460941 10.539062 3.695312 C11.367192 2.929684 12.158850 2.221357 12.914062 1.570312 C13.669275 0.919268 14.312497 0.395835 14.843750 -0.000000 C15.375003 0.395835 16.018225 0.919268 16.773438 1.570312 C17.528650 2.221357 18.320308 2.929684 19.148438 3.695312 C19.976567 4.460941 20.776038 5.223955 21.546875 5.984375 C22.317712 6.744795 22.979164 7.427080 23.531250 8.031250 C24.552088 9.145839 25.533849 10.325515 26.476562 11.570312 C27.419276 12.815110 28.190101 14.106764 28.789062 15.445312 C29.388024 16.783861 29.687500 18.151035 29.687500 19.546875 C29.687500 20.890632 29.411461 22.083328 28.859375 23.125000 C28.307289 24.166672 27.528651 24.984372 26.523438 25.578125 C25.518224 26.171878 24.328132 26.468750 22.953125 26.468750 C22.380205 26.468750 21.807295 26.419271 21.234375 26.320312 C20.661455 26.221354 20.072920 26.041668 19.468750 25.781250 C18.864580 25.520832 18.223962 25.140628 17.546875 24.640625 C17.598959 24.953127 17.692708 25.234374 17.828125 25.484375 C18.026043 25.828127 18.294269 26.130207 18.632812 26.390625 C18.971356 26.651043 19.351560 26.885416 19.773438 27.093750 C20.195315 27.302084 20.630206 27.505207 21.078125 27.703125 C21.682295 27.963543 22.265622 28.265623 22.828125 28.609375 C23.390628 28.953127 23.856769 29.341144 24.226562 29.773438 C24.596356 30.205731 24.781250 30.692706 24.781250 31.234375 C24.781250 31.682294 24.643231 32.057290 24.367188 32.359375 C24.091144 32.661460 23.718752 32.812500 23.250000 32.812500 Z M35.156250 27.343750" /></svg>