<svg version="1.1" xmlns="http://www.w3.org/2000/svg" style="fill:rgba(0,0,0,1.0)" width="256" height="256" viewBox="0 0 36.71875 32.8125"><path fill="rgb(255, 255, 255)" d="M28.265625 20.171875 C27.755206 20.171875 27.213545 20.130209 26.640625 20.046875 C26.067705 19.963541 25.393233 19.828126 24.617188 19.640625 C23.841142 19.453124 22.880214 19.208335 21.734375 18.906250 C20.078117 18.468748 19.250000 17.635423 19.250000 16.406250 C19.250000 15.177077 20.078117 14.343752 21.734375 13.906250 C22.880214 13.604165 23.841142 13.359376 24.617188 13.171875 C25.393233 12.984374 26.067705 12.848959 26.640625 12.765625 C27.213545 12.682291 27.755206 12.640625 28.265625 12.640625 C29.609382 12.640625 30.703121 12.984372 31.546875 13.671875 C32.390629 14.359378 32.812500 15.270828 32.812500 16.406250 C32.812500 17.541672 32.390629 18.453122 31.546875 19.140625 C30.703121 19.828128 29.609382 20.171875 28.265625 20.171875 Z M5.859375 28.125000 C5.453123 28.125000 5.078127 27.953127 4.734375 27.609375 C4.390623 27.265623 4.218750 26.895835 4.218750 26.500000 C4.218750 25.968747 4.499997 25.421878 5.062500 24.859375 C5.302085 24.619790 5.653644 24.302085 6.117188 23.906250 C6.580731 23.510415 7.093747 23.083336 7.656250 22.625000 C8.218753 22.166664 8.778643 21.721356 9.335938 21.289062 C9.893232 20.856769 10.390623 20.494793 10.828125 20.203125 C11.005209 20.078124 11.166666 19.992188 11.312500 19.945312 C11.458334 19.898437 11.583333 19.875000 11.687500 19.875000 C11.906251 19.875000 12.088541 19.947916 12.234375 20.093750 C12.390626 20.250001 12.468750 20.432291 12.468750 20.640625 C12.468750 20.890626 12.354168 21.182290 12.125000 21.515625 C11.822915 21.942710 11.458335 22.437497 11.031250 23.000000 C10.604165 23.562503 10.164065 24.124997 9.710938 24.687500 C9.257810 25.250003 8.833335 25.763019 8.437500 26.226562 C8.041665 26.690106 7.723960 27.041665 7.484375 27.281250 C7.223957 27.541668 6.958335 27.747395 6.687500 27.898438 C6.416665 28.049480 6.140626 28.125000 5.859375 28.125000 Z M4.546875 20.171875 C3.203118 20.171875 2.109379 19.828128 1.265625 19.140625 C0.421871 18.453122 0.000000 17.541672 0.000000 16.406250 C0.000000 15.270828 0.421871 14.359378 1.265625 13.671875 C2.109379 12.984372 3.203118 12.640625 4.546875 12.640625 C5.067711 12.640625 5.611976 12.682291 6.179688 12.765625 C6.747399 12.848959 7.421871 12.984374 8.203125 13.171875 C8.984379 13.359376 9.942703 13.604165 11.078125 13.906250 C12.734383 14.343752 13.562500 15.177077 13.562500 16.406250 C13.562500 17.635423 12.734383 18.468748 11.078125 18.906250 C9.942703 19.208335 8.984379 19.453124 8.203125 19.640625 C7.421871 19.828126 6.747399 19.963541 6.179688 20.046875 C5.611976 20.130209 5.067711 20.171875 4.546875 20.171875 Z M4.546875 18.296875 C4.963544 18.296875 5.406248 18.265625 5.875000 18.203125 C6.343752 18.140625 6.947913 18.023438 7.687500 17.851562 C8.427087 17.679687 9.401036 17.427085 10.609375 17.093750 C11.067711 16.968749 11.361979 16.851563 11.492188 16.742188 C11.622396 16.632812 11.687500 16.520834 11.687500 16.406250 C11.687500 16.291666 11.622396 16.179688 11.492188 16.070312 C11.361979 15.960937 11.067711 15.843751 10.609375 15.718750 C9.401036 15.385415 8.427087 15.132813 7.687500 14.960938 C6.947913 14.789062 6.343752 14.671875 5.875000 14.609375 C5.406248 14.546875 4.963544 14.515625 4.546875 14.515625 C3.713538 14.515625 3.059898 14.684894 2.585938 15.023438 C2.111977 15.361981 1.875000 15.822914 1.875000 16.406250 C1.875000 16.989586 2.111977 17.450519 2.585938 17.789062 C3.059898 18.127606 3.713538 18.296875 4.546875 18.296875 Z M16.406250 32.812500 C15.270828 32.812500 14.359378 32.390629 13.671875 31.546875 C12.984372 30.703121 12.640625 29.609382 12.640625 28.265625 C12.640625 27.744789 12.682291 27.200524 12.765625 26.632812 C12.848959 26.065101 12.984374 25.390629 13.171875 24.609375 C13.359376 23.828121 13.604165 22.869797 13.906250 21.734375 C14.343752 20.078117 15.177077 19.250000 16.406250 19.250000 C17.635423 19.250000 18.468748 20.078117 18.906250 21.734375 C19.208335 22.869797 19.453124 23.828121 19.640625 24.609375 C19.828126 25.390629 19.963541 26.065101 20.046875 26.632812 C20.130209 27.200524 20.171875 27.744789 20.171875 28.265625 C20.171875 29.609382 19.828128 30.703121 19.140625 31.546875 C18.453122 32.390629 17.541672 32.812500 16.406250 32.812500 Z M16.406250 30.937500 C16.989586 30.937500 17.450519 30.700523 17.789062 30.226562 C18.127606 29.752602 18.296875 29.098962 18.296875 28.265625 C18.296875 27.848956 18.265625 27.406252 18.203125 26.937500 C18.140625 26.468748 18.023438 25.864587 17.851562 25.125000 C17.679687 24.385413 17.427085 23.411464 17.093750 22.203125 C16.968749 21.744789 16.851563 21.450521 16.742188 21.320312 C16.632812 21.190104 16.520834 21.125000 16.406250 21.125000 C16.291666 21.125000 16.179688 21.190104 16.070312 21.320312 C15.960937 21.450521 15.843751 21.744789 15.718750 22.203125 C15.385415 23.411464 15.132813 24.385413 14.960938 25.125000 C14.789062 25.864587 14.671875 26.468748 14.609375 26.937500 C14.546875 27.406252 14.515625 27.848956 14.515625 28.265625 C14.515625 29.098962 14.684894 29.752602 15.023438 30.226562 C15.361981 30.700523 15.822914 30.937500 16.406250 30.937500 Z M11.687500 12.937500 C11.583333 12.937500 11.458334 12.914063 11.312500 12.867188 C11.166666 12.820312 11.005209 12.734376 10.828125 12.609375 C10.390623 12.307290 9.893232 11.942710 9.335938 11.515625 C8.778643 11.088540 8.218753 10.645836 7.656250 10.187500 C7.093747 9.729164 6.580731 9.302085 6.117188 8.906250 C5.653644 8.510415 5.302085 8.192710 5.062500 7.953125 C4.499997 7.390622 4.218750 6.843753 4.218750 6.312500 C4.218750 5.916665 4.390623 5.546877 4.734375 5.203125 C5.078127 4.859373 5.453123 4.687500 5.859375 4.687500 C6.140626 4.687500 6.416665 4.763020 6.687500 4.914062 C6.958335 5.065105 7.223957 5.270832 7.484375 5.531250 C7.723960 5.770835 8.041665 6.122394 8.437500 6.585938 C8.833335 7.049481 9.257810 7.562497 9.710938 8.125000 C10.164065 8.687503 10.604165 9.249997 11.031250 9.812500 C11.458335 10.375003 11.822915 10.869790 12.125000 11.296875 C12.354168 11.630210 12.468750 11.921874 12.468750 12.171875 C12.468750 12.380209 12.390626 12.562499 12.234375 12.718750 C12.088541 12.864584 11.906251 12.937500 11.687500 12.937500 Z M16.406250 18.500000 C15.833330 18.500000 15.341148 18.294273 14.929688 17.882812 C14.518227 17.471352 14.312500 16.979170 14.312500 16.406250 C14.312500 15.822914 14.518227 15.328127 14.929688 14.921875 C15.341148 14.515623 15.833330 14.312500 16.406250 14.312500 C16.989586 14.312500 17.484373 14.515623 17.890625 14.921875 C18.296877 15.328127 18.500000 15.822914 18.500000 16.406250 C18.500000 16.979170 18.296877 17.471352 17.890625 17.882812 C17.484373 18.294273 16.989586 18.500000 16.406250 18.500000 Z M26.953125 28.125000 C26.671874 28.125000 26.395835 28.049480 26.125000 27.898438 C25.854165 27.747395 25.588543 27.541668 25.328125 27.281250 C25.088540 27.041665 24.770835 26.690106 24.375000 26.226562 C23.979165 25.763019 23.554690 25.250003 23.101562 24.687500 C22.648435 24.124997 22.208335 23.562503 21.781250 23.000000 C21.354165 22.437497 20.989585 21.942710 20.687500 21.515625 C20.458332 21.182290 20.343750 20.890626 20.343750 20.640625 C20.343750 20.432291 20.421874 20.250001 20.578125 20.093750 C20.723959 19.947916 20.906249 19.875000 21.125000 19.875000 C21.239584 19.875000 21.367187 19.898437 21.507812 19.945312 C21.648438 19.992188 21.807291 20.078124 21.984375 20.203125 C22.421877 20.494793 22.919268 20.856769 23.476562 21.289062 C24.033857 21.721356 24.593747 22.166664 25.156250 22.625000 C25.718753 23.083336 26.231769 23.510415 26.695312 23.906250 C27.158856 24.302085 27.510415 24.619790 27.750000 24.859375 C28.312503 25.421878 28.593750 25.968747 28.593750 26.500000 C28.593750 26.895835 28.421877 27.265623 28.078125 27.609375 C27.734373 27.953127 27.359377 28.125000 26.953125 28.125000 Z M16.406250 13.562500 C15.177077 13.562500 14.343752 12.734383 13.906250 11.078125 C13.604165 9.932286 13.359376 8.971358 13.171875 8.195312 C12.984374 7.419267 12.848959 6.744795 12.765625 6.171875 C12.682291 5.598955 12.640625 5.057294 12.640625 4.546875 C12.640625 3.203118 12.984372 2.109379 13.671875 1.265625 C14.359378 0.421871 15.270828 -0.000000 16.406250 -0.000000 C17.541672 -0.000000 18.453122 0.421871 19.140625 1.265625 C19.828128 2.109379 20.171875 3.203118 20.171875 4.546875 C20.171875 5.057294 20.130209 5.598955 20.046875 6.171875 C19.963541 6.744795 19.828126 7.419267 19.640625 8.195312 C19.453124 8.971358 19.208335 9.932286 18.906250 11.078125 C18.468748 12.734383 17.635423 13.562500 16.406250 13.562500 Z M28.265625 18.296875 C29.098962 18.296875 29.752602 18.127606 30.226562 17.789062 C30.700523 17.450519 30.937500 16.989586 30.937500 16.406250 C30.937500 15.822914 30.700523 15.361981 30.226562 15.023438 C29.752602 14.684894 29.098962 14.515625 28.265625 14.515625 C27.859373 14.515625 27.419273 14.546875 26.945312 14.609375 C26.471352 14.671875 25.867191 14.789062 25.132812 14.960938 C24.398434 15.132813 23.421881 15.385415 22.203125 15.718750 C21.755206 15.843751 21.463542 15.960937 21.328125 16.070312 C21.192708 16.179688 21.125000 16.291666 21.125000 16.406250 C21.125000 16.520834 21.192708 16.632812 21.328125 16.742188 C21.463542 16.851563 21.755206 16.968749 22.203125 17.093750 C23.421881 17.427085 24.398434 17.679687 25.132812 17.851562 C25.867191 18.023438 26.471352 18.140625 26.945312 18.203125 C27.419273 18.265625 27.859373 18.296875 28.265625 18.296875 Z M16.406250 11.687500 C16.520834 11.687500 16.632812 11.619792 16.742188 11.484375 C16.851563 11.348958 16.968749 11.057294 17.093750 10.609375 C17.427085 9.390619 17.679687 8.414066 17.851562 7.679688 C18.023438 6.945309 18.140625 6.341148 18.203125 5.867188 C18.265625 5.393227 18.296875 4.953127 18.296875 4.546875 C18.296875 3.713538 18.127606 3.059898 17.789062 2.585938 C17.450519 2.111977 16.989586 1.875000 16.406250 1.875000 C15.822914 1.875000 15.361981 2.111977 15.023438 2.585938 C14.684894 3.059898 14.515625 3.713538 14.515625 4.546875 C14.515625 4.953127 14.546875 5.393227 14.609375 5.867188 C14.671875 6.341148 14.789062 6.945309 14.960938 7.679688 C15.132813 8.414066 15.385415 9.390619 15.718750 10.609375 C15.843751 11.057294 15.960937 11.348958 16.070312 11.484375 C16.179688 11.619792 16.291666 11.687500 16.406250 11.687500 Z M21.125000 12.937500 C20.906249 12.937500 20.723959 12.864584 20.578125 12.718750 C20.421874 12.562499 20.343750 12.380209 20.343750 12.171875 C20.343750 11.921874 20.458332 11.630210 20.687500 11.296875 C20.989585 10.869790 21.354165 10.375003 21.781250 9.812500 C22.208335 9.249997 22.648435 8.687503 23.101562 8.125000 C23.554690 7.562497 23.979165 7.049481 24.375000 6.585938 C24.770835 6.122394 25.088540 5.770835 25.328125 5.531250 C25.588543 5.270832 25.854165 5.065105 26.125000 4.914062 C26.395835 4.763020 26.671874 4.687500 26.953125 4.687500 C27.359377 4.687500 27.734373 4.859373 28.078125 5.203125 C28.421877 5.546877 28.593750 5.916665 28.593750 6.312500 C28.593750 6.843753 28.312503 7.390622 27.750000 7.953125 C27.510415 8.192710 27.158856 8.510415 26.695312 8.906250 C26.231769 9.302085 25.718753 9.729164 25.156250 10.187500 C24.593747 10.645836 24.033857 11.088540 23.476562 11.515625 C22.919268 11.942710 22.421877 12.307290 21.984375 12.609375 C21.807291 12.734376 21.648438 12.820312 21.507812 12.867188 C21.367187 12.914063 21.239584 12.937500 21.125000 12.937500 Z M36.718750 27.343750" /></svg>