<svg version="1.1" xmlns="http://www.w3.org/2000/svg" style="fill:rgba(0,0,0,1.0)" width="256" height="256" viewBox="0 0 38.125 32.8125"><path fill="rgb(255, 255, 255)" d="M17.812500 32.812500 C21.916687 29.677068 25.281237 26.770847 27.906250 24.093750 C30.531263 21.416653 32.473952 18.864595 33.734375 16.437500 C34.994798 14.010405 35.625000 11.609387 35.625000 9.234375 C35.625000 7.911452 35.398440 6.687506 34.945312 5.562500 C34.492185 4.437494 33.856775 3.458337 33.039062 2.625000 C32.221350 1.791663 31.255214 1.145836 30.140625 0.687500 C29.026036 0.229164 27.812507 -0.000000 26.500000 -0.000000 C25.249994 -0.000000 24.057297 0.226560 22.921875 0.679688 C21.786453 1.132815 20.778650 1.765621 19.898438 2.578125 C19.018225 3.390629 18.322919 4.338536 17.812500 5.421875 C17.312498 4.338536 16.619796 3.390629 15.734375 2.578125 C14.848954 1.765621 13.838547 1.132815 12.703125 0.679688 C11.567703 0.226560 10.375006 -0.000000 9.125000 -0.000000 C7.812493 -0.000000 6.598964 0.229164 5.484375 0.687500 C4.369786 1.145836 3.403650 1.791663 2.585938 2.625000 C1.768225 3.458337 1.132815 4.437494 0.679688 5.562500 C0.226560 6.687506 0.000000 7.911452 0.000000 9.234375 C0.000000 11.609387 0.630202 14.010405 1.890625 16.437500 C3.151048 18.864595 5.093737 21.416653 7.718750 24.093750 C10.343763 26.770847 13.708313 29.677068 17.812500 32.812500 Z M13.734375 15.781250 L12.843750 11.421875 C12.822917 11.307291 12.736980 11.247396 12.585938 11.242188 C12.434895 11.236979 12.348958 11.296874 12.328125 11.421875 L11.437500 15.781250 C11.302083 16.447920 11.028648 17.031248 10.617188 17.531250 C10.205727 18.031252 9.671878 18.385416 9.015625 18.593750 L6.984375 19.250000 C6.848958 19.291667 6.781250 19.388020 6.781250 19.539062 C6.781250 19.690105 6.848958 19.791666 6.984375 19.843750 L9.031250 20.546875 C9.677087 20.765626 10.205727 21.119789 10.617188 21.609375 C11.028648 22.098961 11.302083 22.677080 11.437500 23.343750 L12.250000 27.281250 L12.859375 27.593750 L13.734375 23.343750 C13.880209 22.677080 14.161456 22.098961 14.578125 21.609375 C14.994794 21.119789 15.520830 20.765626 16.156250 20.546875 L18.187500 19.843750 C18.333334 19.791666 18.406250 19.687501 18.406250 19.531250 C18.406250 19.374999 18.333334 19.276042 18.187500 19.234375 L16.156250 18.578125 C15.499997 18.369791 14.968752 18.018232 14.562500 17.523438 C14.156248 17.028643 13.880209 16.447920 13.734375 15.781250 Z M20.421875 23.718750 C20.161457 23.718750 19.940105 23.627605 19.757812 23.445312 C19.575520 23.263020 19.484375 23.041668 19.484375 22.781250 C19.484375 22.520832 19.575520 22.299480 19.757812 22.117188 C19.940105 21.934895 20.161457 21.843750 20.421875 21.843750 C20.682293 21.843750 20.903645 21.934895 21.085938 22.117188 C21.268230 22.299480 21.359375 22.520832 21.359375 22.781250 C21.359375 23.041668 21.268230 23.263020 21.085938 23.445312 C20.903645 23.627605 20.682293 23.718750 20.421875 23.718750 Z M6.515625 11.531250 C6.515625 11.843752 6.427084 12.091145 6.250000 12.273438 C6.072916 12.455730 5.848960 12.546875 5.578125 12.546875 C5.203123 12.546875 4.953126 12.427085 4.828125 12.187500 C4.703124 11.947915 4.640625 11.661460 4.640625 11.328125 C4.640625 10.296870 4.812498 9.330734 5.156250 8.429688 C5.500002 7.528641 5.979164 6.747399 6.593750 6.085938 C7.208336 5.424476 7.911454 4.947918 8.703125 4.656250 C9.088544 4.510416 9.408853 4.528645 9.664062 4.710938 C9.919272 4.893230 10.046875 5.161457 10.046875 5.515625 C10.046875 5.942710 9.869793 6.218749 9.515625 6.343750 C8.598954 6.677085 7.869794 7.325516 7.328125 8.289062 C6.786456 9.252609 6.515625 10.333327 6.515625 11.531250 Z M17.812500 30.468750 C14.249982 27.729153 11.289074 25.148450 8.929688 22.726562 C6.570301 20.304675 4.804693 17.981782 3.632812 15.757812 C2.460932 13.533843 1.875000 11.359386 1.875000 9.234375 C1.875000 7.817701 2.184893 6.554693 2.804688 5.445312 C3.424482 4.335932 4.281245 3.463545 5.375000 2.828125 C6.468755 2.192705 7.718743 1.875000 9.125000 1.875000 C10.562507 1.875000 11.817703 2.164060 12.890625 2.742188 C13.963547 3.320315 14.901038 4.122391 15.703125 5.148438 C16.505212 6.174484 17.208330 7.359368 17.812500 8.703125 C18.427086 7.359368 19.132809 6.174484 19.929688 5.148438 C20.726566 4.122391 21.664057 3.320315 22.742188 2.742188 C23.820318 2.164060 25.072910 1.875000 26.500000 1.875000 C27.916674 1.875000 29.169265 2.192705 30.257812 2.828125 C31.346360 3.463545 32.200518 4.335932 32.820312 5.445312 C33.440107 6.554693 33.750000 7.817701 33.750000 9.234375 C33.750000 11.359386 33.164068 13.533843 31.992188 15.757812 C30.820307 17.981782 29.054699 20.304675 26.695312 22.726562 C24.335926 25.148450 21.375018 27.729153 17.812500 30.468750 Z M24.593750 20.875000 L22.781250 19.078125 L24.593750 17.265625 L26.390625 19.078125 Z M21.359375 12.390625 C21.057290 12.390625 20.796876 12.281251 20.578125 12.062500 C20.359374 11.843749 20.250000 11.578127 20.250000 11.265625 C20.250000 10.963540 20.359374 10.703126 20.578125 10.484375 C20.796876 10.265624 21.057290 10.156250 21.359375 10.156250 C21.661460 10.156250 21.921874 10.265624 22.140625 10.484375 C22.359376 10.703126 22.468750 10.963540 22.468750 11.265625 C22.468750 11.578127 22.359376 11.843749 22.140625 12.062500 C21.921874 12.281251 21.661460 12.390625 21.359375 12.390625 Z M26.531250 12.734375 C26.552083 12.848959 26.630208 12.906250 26.765625 12.906250 C26.901042 12.906250 26.979167 12.848959 27.000000 12.734375 L27.531250 9.890625 C27.625000 9.369789 27.822915 8.945314 28.125000 8.617188 C28.427085 8.289061 28.895830 8.015626 29.531250 7.796875 L31.187500 7.234375 C31.302084 7.192708 31.359375 7.117188 31.359375 7.007812 C31.359375 6.898437 31.302084 6.822917 31.187500 6.781250 L29.671875 6.296875 C28.880204 6.036457 28.375001 5.736981 28.156250 5.398438 C27.937499 5.059894 27.760417 4.578128 27.625000 3.953125 L27.046875 1.296875 L26.500000 1.296875 L26.078125 4.015625 C26.005208 4.526044 25.807293 4.958332 25.484375 5.312500 C25.161457 5.666668 24.755211 5.937499 24.265625 6.125000 L22.531250 6.796875 C22.416666 6.838542 22.356771 6.911458 22.351562 7.015625 C22.346354 7.119792 22.406249 7.192708 22.531250 7.234375 L24.281250 7.796875 C24.770836 7.953126 25.171873 8.210936 25.484375 8.570312 C25.796877 8.929689 25.994791 9.369789 26.078125 9.890625 Z M38.125000 27.343750" /></svg>