<svg version="1.1" xmlns="http://www.w3.org/2000/svg" style="fill:rgba(0,0,0,1.0)" width="256" height="256" viewBox="0 0 37.8125 31.25"><path fill="rgb(255, 255, 255)" d="M6.265625 23.312500 C5.776039 22.718747 5.354168 22.065108 5.000000 21.351562 C4.645832 20.638017 4.354168 19.869796 4.125000 19.046875 C2.958328 18.932291 1.979171 18.450525 1.187500 17.601562 C0.395829 16.752600 0.000000 15.682298 0.000000 14.390625 C0.000000 13.088535 0.411454 12.010421 1.234375 11.156250 C2.057296 10.302079 3.062494 9.828125 4.250000 9.734375 C4.843753 7.786449 5.773431 6.083341 7.039062 4.625000 C8.304694 3.166659 9.830720 2.031254 11.617188 1.218750 C13.403655 0.406246 15.364573 -0.000000 17.500000 -0.000000 C19.645844 -0.000000 21.609366 0.406246 23.390625 1.218750 C25.171884 2.031254 26.697910 3.166659 27.968750 4.625000 C29.239590 6.083341 30.166664 7.786449 30.750000 9.734375 C31.937506 9.828125 32.942704 10.302079 33.765625 11.156250 C34.588546 12.010421 35.000000 13.088535 35.000000 14.390625 C35.000000 15.682298 34.604171 16.752600 33.812500 17.601562 C33.020829 18.450525 32.041672 18.932291 30.875000 19.046875 C30.645832 19.869796 30.354168 20.638017 30.000000 21.351562 C29.645832 22.065108 29.223961 22.718747 28.734375 23.312500 L27.203125 22.453125 C27.630210 21.963539 28.031248 21.338545 28.406250 20.578125 C28.781252 19.817705 29.104165 18.713549 29.375000 17.265625 C29.604168 17.307292 29.776041 17.333333 29.890625 17.343750 C30.005209 17.354167 30.145832 17.359375 30.312500 17.359375 C31.156254 17.359375 31.861976 17.088544 32.429688 16.546875 C32.997399 16.005206 33.281250 15.286463 33.281250 14.390625 C33.281250 13.494787 32.994795 12.778649 32.421875 12.242188 C31.848955 11.705726 31.145838 11.437500 30.312500 11.437500 L29.265625 11.437500 C28.880206 9.499990 28.143235 7.802091 27.054688 6.343750 C25.966140 4.885409 24.606779 3.750004 22.976562 2.937500 C21.346346 2.124996 19.520843 1.718750 17.500000 1.718750 C15.458323 1.718750 13.622404 2.127600 11.992188 2.945312 C10.361971 3.763025 9.010422 4.901034 7.937500 6.359375 C6.864578 7.817716 6.130210 9.510407 5.734375 11.437500 L4.687500 11.437500 C3.864579 11.437500 3.164065 11.705726 2.585938 12.242188 C2.007810 12.778649 1.718750 13.494787 1.718750 14.390625 C1.718750 15.286463 2.002601 16.005206 2.570312 16.546875 C3.138024 17.088544 3.843746 17.359375 4.687500 17.359375 C4.854168 17.359375 4.994791 17.354167 5.109375 17.343750 C5.223959 17.333333 5.395832 17.307292 5.625000 17.265625 C5.895835 18.713549 6.218748 19.817705 6.593750 20.578125 C6.968752 21.338545 7.369790 21.963539 7.796875 22.453125 Z M4.750000 16.265625 C4.177080 16.265625 3.710939 16.104168 3.351562 15.781250 C2.992186 15.458332 2.812500 14.994795 2.812500 14.390625 C2.812500 13.807289 2.994790 13.351564 3.359375 13.023438 C3.723960 12.695311 4.177081 12.531250 4.718750 12.531250 L5.562500 12.531250 C5.500000 12.916669 5.460938 13.263019 5.445312 13.570312 C5.429687 13.877606 5.421875 14.223956 5.421875 14.609375 C5.421875 14.921877 5.429687 15.182291 5.445312 15.390625 C5.460938 15.598959 5.484375 15.854165 5.515625 16.156250 C5.255207 16.229167 5.000001 16.265625 4.750000 16.265625 Z M17.500000 27.656250 C16.520828 27.656250 15.591150 27.601563 14.710938 27.492188 C13.830725 27.382812 13.000004 27.223959 12.218750 27.015625 L14.109375 25.671875 C14.630211 25.755209 15.174476 25.820312 15.742188 25.867188 C16.309899 25.914063 16.895830 25.937500 17.500000 25.937500 C18.114586 25.937500 18.705726 25.914063 19.273438 25.867188 C19.841149 25.820312 20.380206 25.755209 20.890625 25.671875 L22.781250 27.015625 C21.999996 27.223959 21.169275 27.382812 20.289062 27.492188 C19.408850 27.601563 18.479172 27.656250 17.500000 27.656250 Z M5.359375 31.250000 C4.130202 31.250000 3.117191 30.890629 2.320312 30.171875 C1.523434 29.453121 1.125000 28.541672 1.125000 27.437500 C1.125000 25.843742 1.953117 24.604171 3.609375 23.718750 L7.625000 21.562500 C7.875001 21.427083 8.187498 21.190106 8.562500 20.851562 C8.937502 20.513019 9.541662 19.906254 10.375000 19.031250 C11.020837 18.364580 11.643226 17.804690 12.242188 17.351562 C12.841149 16.898435 13.416664 16.557293 13.968750 16.328125 C14.520836 16.098957 15.041664 15.984375 15.531250 15.984375 C16.145836 15.984375 16.638019 16.104165 17.007812 16.343750 C17.377606 16.583335 17.562500 16.906248 17.562500 17.312500 C17.718751 17.239583 17.874999 17.184896 18.031250 17.148438 C18.187501 17.111979 18.401040 17.093750 18.671875 17.093750 C19.296878 17.093750 19.888018 17.286456 20.445312 17.671875 C21.002607 18.057294 21.455727 18.567705 21.804688 19.203125 C22.153648 19.838545 22.328125 20.531246 22.328125 21.281250 C22.328125 22.135421 22.101565 22.942705 21.648438 23.703125 C21.195310 24.463545 20.604170 25.078123 19.875000 25.546875 C19.145830 26.015627 18.354171 26.250000 17.500000 26.250000 L17.500000 24.531250 C18.333338 24.531250 19.046872 24.213545 19.640625 23.578125 C20.234378 22.942705 20.531250 22.177088 20.531250 21.281250 C20.531250 20.531246 20.312502 19.932294 19.875000 19.484375 C19.437498 19.036456 18.828129 18.812500 18.046875 18.812500 C17.734373 18.812500 17.408856 18.854166 17.070312 18.937500 C16.731769 19.020834 16.380210 19.140624 16.015625 19.296875 C16.223959 18.880206 16.328125 18.541668 16.328125 18.281250 C16.328125 18.124999 16.263021 17.992188 16.132812 17.882812 C16.002604 17.773437 15.802085 17.718750 15.531250 17.718750 C15.197915 17.718750 14.820315 17.828124 14.398438 18.046875 C13.976560 18.265626 13.484378 18.611977 12.921875 19.085938 C12.359372 19.559898 11.687504 20.177080 10.906250 20.937500 C10.187496 21.635420 9.658856 22.132811 9.320312 22.429688 C8.981769 22.726564 8.677085 22.947916 8.406250 23.093750 L4.390625 25.250000 C3.463537 25.750002 3.000000 26.479162 3.000000 27.437500 C3.000000 28.072920 3.213540 28.580727 3.640625 28.960938 C4.067710 29.341148 4.640621 29.531250 5.359375 29.531250 C6.046878 29.531250 6.723955 29.361981 7.390625 29.023438 C8.057295 28.684894 8.744788 28.268232 9.453125 27.773438 C10.161462 27.278643 10.914059 26.783857 11.710938 26.289062 C12.507816 25.794268 13.380204 25.377606 14.328125 25.039062 C15.276046 24.700519 16.333328 24.531250 17.500000 24.531250 C18.666672 24.531250 19.718745 24.700519 20.656250 25.039062 C21.593755 25.377606 22.458329 25.794268 23.250000 26.289062 C24.041671 26.783857 24.786455 27.278643 25.484375 27.773438 C26.182295 28.268232 26.869788 28.684894 27.546875 29.023438 C28.223962 29.361981 28.921871 29.531250 29.640625 29.531250 C30.369795 29.531250 30.945310 29.343752 31.367188 28.968750 C31.789065 28.593748 32.000000 28.083337 32.000000 27.437500 C32.000000 26.479162 31.536463 25.750002 30.609375 25.250000 L26.593750 23.093750 C26.322915 22.947916 26.018231 22.729168 25.679688 22.437500 C25.341144 22.145832 24.812504 21.645837 24.093750 20.937500 C23.322913 20.166663 22.723960 19.591148 22.296875 19.210938 C21.869790 18.830727 21.523439 18.575521 21.257812 18.445312 C20.992186 18.315104 20.708335 18.250000 20.406250 18.250000 C20.177082 18.250000 19.958334 18.283854 19.750000 18.351562 C19.541666 18.419271 19.348959 18.510416 19.171875 18.625000 L18.171875 17.265625 C18.473960 17.036457 18.825519 16.856771 19.226562 16.726562 C19.627606 16.596354 20.020831 16.531250 20.406250 16.531250 C21.062503 16.531250 21.716143 16.723956 22.367188 17.109375 C23.018232 17.494794 23.770829 18.135412 24.625000 19.031250 C25.458338 19.906254 26.062498 20.513019 26.437500 20.851562 C26.812502 21.190106 27.124999 21.427083 27.375000 21.562500 L31.390625 23.718750 C33.046883 24.604171 33.875000 25.843742 33.875000 27.437500 C33.875000 28.552089 33.479171 29.466142 32.687500 30.179688 C31.895829 30.893233 30.880215 31.250000 29.640625 31.250000 C28.765621 31.250000 27.968754 31.080731 27.250000 30.742188 C26.531246 30.403644 25.835941 29.986982 25.164062 29.492188 C24.492184 28.997393 23.789066 28.502607 23.054688 28.007812 C22.320309 27.513018 21.505213 27.096356 20.609375 26.757812 C19.713537 26.419269 18.677089 26.250000 17.500000 26.250000 C16.333328 26.250000 15.296880 26.419269 14.390625 26.757812 C13.484370 27.096356 12.661462 27.513018 11.921875 28.007812 C11.182288 28.502607 10.473962 28.997393 9.796875 29.492188 C9.119788 29.986982 8.424483 30.403644 7.710938 30.742188 C6.997392 31.080731 6.213546 31.250000 5.359375 31.250000 Z M13.343750 14.406250 C12.916665 14.406250 12.549481 14.218752 12.242188 13.843750 C11.934894 13.468748 11.781250 13.026044 11.781250 12.515625 C11.781250 11.994789 11.934894 11.552085 12.242188 11.187500 C12.549481 10.822915 12.916665 10.640625 13.343750 10.640625 C13.770835 10.640625 14.138019 10.822915 14.445312 11.187500 C14.752606 11.552085 14.906250 11.994789 14.906250 12.515625 C14.906250 13.026044 14.752606 13.468748 14.445312 13.843750 C14.138019 14.218752 13.770835 14.406250 13.343750 14.406250 Z M17.500000 15.968750 C17.187498 15.968750 16.890626 15.854168 16.609375 15.625000 C16.328124 15.395832 16.187500 15.156251 16.187500 14.906250 C16.187500 14.552082 16.624996 14.375000 17.500000 14.375000 C18.375004 14.375000 18.812500 14.552082 18.812500 14.906250 C18.812500 15.156251 18.671876 15.395832 18.390625 15.625000 C18.109374 15.854168 17.812502 15.968750 17.500000 15.968750 Z M9.328125 21.281250 C8.911456 20.822914 8.591147 20.328128 8.367188 19.796875 C8.143228 19.265622 8.031250 18.697920 8.031250 18.093750 C8.031250 17.489580 8.117187 16.950523 8.289062 16.476562 C8.460938 16.002602 8.630208 15.562502 8.796875 15.156250 C8.963542 14.749998 9.046875 14.354169 9.046875 13.968750 C9.046875 13.645832 8.986980 13.265627 8.867188 12.828125 C8.747395 12.390623 8.627605 11.929690 8.507812 11.445312 C8.388020 10.960935 8.328125 10.489586 8.328125 10.031250 C8.328125 9.249996 8.513019 8.546878 8.882812 7.921875 C9.252606 7.296872 9.752601 6.799481 10.382812 6.429688 C11.013024 6.059894 11.718746 5.875000 12.500000 5.875000 C13.177087 5.875000 13.825518 6.018228 14.445312 6.304688 C15.065107 6.591147 15.635414 6.880207 16.156250 7.171875 C16.677086 7.463543 17.124998 7.609375 17.500000 7.609375 C17.885419 7.609375 18.335935 7.463543 18.851562 7.171875 C19.367190 6.880207 19.934893 6.591147 20.554688 6.304688 C21.174482 6.018228 21.822913 5.875000 22.500000 5.875000 C23.281254 5.875000 23.986976 6.059894 24.617188 6.429688 C25.247399 6.799481 25.747394 7.296872 26.117188 7.921875 C26.486981 8.546878 26.671875 9.249996 26.671875 10.031250 C26.671875 10.489586 26.611980 10.958331 26.492188 11.437500 C26.372395 11.916669 26.252605 12.374998 26.132812 12.812500 C26.013020 13.250002 25.953125 13.635415 25.953125 13.968750 C25.953125 14.354169 26.039062 14.749998 26.210938 15.156250 C26.382813 15.562502 26.552082 16.002602 26.718750 16.476562 C26.885418 16.950523 26.968750 17.489580 26.968750 18.093750 C26.968750 18.697920 26.856772 19.265622 26.632812 19.796875 C26.408853 20.328128 26.088544 20.822914 25.671875 21.281250 L24.359375 20.328125 C25.005212 19.682288 25.328125 18.937504 25.328125 18.093750 C25.328125 17.593748 25.244792 17.138023 25.078125 16.726562 C24.911458 16.315102 24.742188 15.893231 24.570312 15.460938 C24.398437 15.028644 24.312500 14.531253 24.312500 13.968750 C24.312500 13.260413 24.432290 12.570316 24.671875 11.898438 C24.911460 11.226559 25.031250 10.604170 25.031250 10.031250 C25.031250 9.312496 24.789065 8.700523 24.304688 8.195312 C23.820310 7.690102 23.218754 7.437500 22.500000 7.437500 C21.927080 7.437500 21.382815 7.580728 20.867188 7.867188 C20.351560 8.153647 19.825524 8.442707 19.289062 8.734375 C18.752601 9.026043 18.156253 9.171875 17.500000 9.171875 C16.843747 9.171875 16.247399 9.026043 15.710938 8.734375 C15.174476 8.442707 14.651044 8.153647 14.140625 7.867188 C13.630206 7.580728 13.083336 7.437500 12.500000 7.437500 C11.781246 7.437500 11.179690 7.690102 10.695312 8.195312 C10.210935 8.700523 9.968750 9.312496 9.968750 10.031250 C9.968750 10.604170 10.088540 11.226559 10.328125 11.898438 C10.567710 12.570316 10.687500 13.260413 10.687500 13.968750 C10.687500 14.531253 10.604168 15.028644 10.437500 15.460938 C10.270833 15.893231 10.101563 16.315102 9.929688 16.726562 C9.757812 17.138023 9.671875 17.593748 9.671875 18.093750 C9.671875 18.520835 9.755208 18.921873 9.921875 19.296875 C10.088542 19.671877 10.328123 20.015623 10.640625 20.328125 Z M21.656250 14.406250 C21.239581 14.406250 20.875002 14.218752 20.562500 13.843750 C20.249998 13.468748 20.093750 13.026044 20.093750 12.515625 C20.093750 11.994789 20.247394 11.552085 20.554688 11.187500 C20.861981 10.822915 21.229165 10.640625 21.656250 10.640625 C22.083335 10.640625 22.450519 10.822915 22.757812 11.187500 C23.065106 11.552085 23.218750 11.994789 23.218750 12.515625 C23.218750 13.026044 23.065106 13.468748 22.757812 13.843750 C22.450519 14.218752 22.083335 14.406250 21.656250 14.406250 Z M30.250000 16.265625 C29.999999 16.265625 29.744793 16.229167 29.484375 16.156250 C29.515625 15.854165 29.539062 15.598959 29.554688 15.390625 C29.570313 15.182291 29.578125 14.921877 29.578125 14.609375 C29.578125 14.223956 29.570313 13.877606 29.554688 13.570312 C29.539062 13.263019 29.500000 12.916669 29.437500 12.531250 L30.281250 12.531250 C30.822919 12.531250 31.276040 12.695311 31.640625 13.023438 C32.005210 13.351564 32.187500 13.807289 32.187500 14.390625 C32.187500 14.994795 32.007814 15.458332 31.648438 15.781250 C31.289061 16.104168 30.822920 16.265625 30.250000 16.265625 Z M37.812500 26.562500" /></svg>