<svg version="1.1" xmlns="http://www.w3.org/2000/svg" style="fill:rgba(0,0,0,1.0)" width="256" height="256" viewBox="0 0 36.765625 32.8125"><path fill="rgb(255, 255, 255)" d="M28.953125 25.468750 C27.796869 25.468750 26.481778 25.171878 25.007812 24.578125 C23.533847 23.984372 21.989591 23.132818 20.375000 22.023438 C18.760409 20.914057 17.161466 19.588549 15.578125 18.046875 C13.869783 16.380200 12.408860 14.710946 11.195312 13.039062 C9.981765 11.367179 9.052087 9.770841 8.406250 8.250000 C7.760413 6.729159 7.437500 5.369798 7.437500 4.171875 C7.437500 2.880202 7.802080 1.864587 8.531250 1.125000 C9.270837 0.374996 10.281244 -0.000000 11.562500 -0.000000 C12.729172 -0.000000 14.046868 0.283851 15.515625 0.851562 C16.984382 1.419274 18.505200 2.226557 20.078125 3.273438 C21.651050 4.320318 23.177076 5.567701 24.656250 7.015625 C26.333342 8.640633 27.789056 10.330720 29.023438 12.085938 C30.257819 13.841155 31.210934 15.533846 31.882812 17.164062 C32.554691 18.794279 32.890625 20.244785 32.890625 21.515625 C32.890625 22.744798 32.544274 23.710934 31.851562 24.414062 C31.158851 25.117191 30.192715 25.468750 28.953125 25.468750 Z M14.546875 28.250000 C13.380203 27.843748 12.257818 27.315107 11.179688 26.664062 C10.101557 26.013018 9.106775 25.270838 8.195312 24.437500 C7.283850 23.604162 6.489587 22.713546 5.812500 21.765625 C5.135413 20.817704 4.614585 19.843755 4.250000 18.843750 L5.796875 17.484375 C6.046876 18.453130 6.489580 19.414058 7.125000 20.367188 C7.760420 21.320317 8.536454 22.216142 9.453125 23.054688 C10.369796 23.893233 11.377599 24.627601 12.476562 25.257812 C13.575526 25.888024 14.713536 26.369790 15.890625 26.703125 Z M9.625000 32.812500 C8.760412 32.812500 7.815109 32.585940 6.789062 32.132812 C5.763016 31.679685 4.677089 30.947922 3.531250 29.937500 C2.270827 28.822911 1.367190 27.750005 0.820312 26.718750 C0.273435 25.687495 0.000000 24.718755 0.000000 23.812500 C0.000000 23.135413 0.127603 22.497399 0.382812 21.898438 C0.638022 21.299476 0.994789 20.744794 1.453125 20.234375 L3.062500 18.453125 C4.114589 17.286452 4.973955 16.255213 5.640625 15.359375 C6.307295 14.463537 6.830727 13.611983 7.210938 12.804688 C7.591148 11.997392 7.872395 11.156254 8.054688 10.281250 C8.236980 9.406246 8.364583 8.416672 8.437500 7.312500 L10.125000 7.968750 C10.125000 9.083339 10.028647 10.109370 9.835938 11.046875 C9.643228 11.984380 9.325523 12.895829 8.882812 13.781250 C8.440102 14.666671 7.848962 15.596349 7.109375 16.570312 C6.369788 17.544276 5.453130 18.630202 4.359375 19.828125 L2.859375 21.468750 C2.546873 21.812502 2.296876 22.179686 2.109375 22.570312 C1.921874 22.960939 1.828125 23.385414 1.828125 23.843750 C1.828125 24.468753 2.054685 25.166663 2.507812 25.937500 C2.960940 26.708337 3.729161 27.572912 4.812500 28.531250 C5.812505 29.416671 6.713538 30.046873 7.515625 30.421875 C8.317712 30.796877 9.005205 30.984375 9.578125 30.984375 C10.067711 30.984375 10.515623 30.875001 10.921875 30.656250 C11.328127 30.437499 11.692707 30.145835 12.015625 29.781250 L13.515625 28.125000 C14.484380 27.052078 15.481766 26.145837 16.507812 25.406250 C17.533859 24.666663 18.624994 24.049482 19.781250 23.554688 C20.937506 23.059893 22.203118 22.661460 23.578125 22.359375 L25.968750 24.015625 C24.395825 24.265626 22.997402 24.557290 21.773438 24.890625 C20.549473 25.223960 19.398443 25.723955 18.320312 26.390625 C17.242182 27.057295 16.135422 28.020827 15.000000 29.281250 L13.390625 31.062500 C12.890622 31.614586 12.325524 32.044269 11.695312 32.351562 C11.065101 32.658856 10.375004 32.812500 9.625000 32.812500 Z M19.546875 19.031250 L22.031250 15.140625 C22.177084 14.911457 22.250000 14.645835 22.250000 14.343750 C22.250000 13.802081 22.044273 13.242190 21.632812 12.664062 C21.221352 12.085935 20.716149 11.596356 20.117188 11.195312 C19.518226 10.794269 18.932295 10.593750 18.359375 10.593750 C18.015623 10.593750 17.708335 10.682291 17.437500 10.859375 L13.843750 13.296875 C14.614587 14.276047 15.468745 15.249995 16.406250 16.218750 C17.343755 17.187505 18.390619 18.124995 19.546875 19.031250 Z M36.765625 27.343750" /></svg>