<svg version="1.1" xmlns="http://www.w3.org/2000/svg" style="fill:rgba(0,0,0,1.0)" width="256" height="256" viewBox="0 0 37.5 33.59375"><path fill="rgb(255, 255, 255)" d="M27.828125 26.531250 C26.723953 26.531250 25.463549 26.244795 24.046875 25.671875 C22.630201 25.098955 21.145841 24.281255 19.593750 23.218750 C18.041659 22.156245 16.505216 20.885424 14.984375 19.406250 C13.338533 17.802075 11.932298 16.197925 10.765625 14.593750 C9.598952 12.989575 8.705732 11.455736 8.085938 9.992188 C7.466143 8.528639 7.156250 7.218756 7.156250 6.062500 C7.156250 4.822910 7.505205 3.848962 8.203125 3.140625 C8.911462 2.421871 9.885410 2.062500 11.125000 2.062500 C12.250006 2.062500 13.515618 2.335935 14.921875 2.882812 C16.328132 3.429690 17.786451 4.205724 19.296875 5.210938 C20.807299 6.216151 22.276035 7.411451 23.703125 8.796875 C25.317716 10.359383 26.718744 11.984367 27.906250 13.671875 C29.093756 15.359383 30.010413 16.986971 30.656250 18.554688 C31.302087 20.122404 31.625000 21.515619 31.625000 22.734375 C31.625000 23.921881 31.291670 24.851559 30.625000 25.523438 C29.958330 26.195316 29.026048 26.531250 27.828125 26.531250 Z M13.984375 29.203125 C12.859369 28.807290 11.778651 28.296878 10.742188 27.671875 C9.705724 27.046872 8.750004 26.335941 7.875000 25.539062 C6.999996 24.742184 6.236982 23.888025 5.585938 22.976562 C4.934893 22.065100 4.437502 21.130213 4.093750 20.171875 L5.578125 18.859375 C5.817710 19.796880 6.242184 20.721350 6.851562 21.632812 C7.460941 22.544275 8.205725 23.401038 9.085938 24.203125 C9.966150 25.005212 10.937495 25.710934 12.000000 26.320312 C13.062505 26.929691 14.156244 27.395832 15.281250 27.718750 Z M9.250000 33.593750 C8.427079 33.593750 7.526047 33.375002 6.546875 32.937500 C5.567703 32.499998 4.520839 31.796880 3.406250 30.828125 C2.187494 29.755203 1.315107 28.723963 0.789062 27.734375 C0.263018 26.744787 0.000000 25.812504 0.000000 24.937500 C0.000000 24.291663 0.122395 23.679690 0.367188 23.101562 C0.611980 22.523435 0.958331 21.989586 1.406250 21.500000 L2.953125 19.796875 C3.963547 18.682286 4.789059 17.692713 5.429688 16.828125 C6.070316 15.963537 6.572915 15.140629 6.937500 14.359375 C7.302085 13.578121 7.570312 12.768233 7.742188 11.929688 C7.914063 11.091142 8.036458 10.140630 8.109375 9.078125 L9.734375 9.718750 C9.734375 10.791672 9.640626 11.776037 9.453125 12.671875 C9.265624 13.567713 8.960940 14.442704 8.539062 15.296875 C8.117185 16.151046 7.549483 17.044266 6.835938 17.976562 C6.122392 18.908859 5.239589 19.953119 4.187500 21.109375 L2.750000 22.687500 C2.458332 23.010418 2.221355 23.364581 2.039062 23.750000 C1.856770 24.135419 1.765625 24.541665 1.765625 24.968750 C1.765625 25.572920 1.981769 26.242184 2.414062 26.976562 C2.846356 27.710941 3.583328 28.546870 4.625000 29.484375 C5.583338 30.338546 6.450517 30.945311 7.226562 31.304688 C8.002608 31.664064 8.666664 31.843750 9.218750 31.843750 C9.687502 31.843750 10.111977 31.736980 10.492188 31.523438 C10.872398 31.309895 11.223957 31.031252 11.546875 30.687500 L13.000000 29.093750 C13.937505 28.062495 14.895828 27.190108 15.875000 26.476562 C16.854172 25.763017 17.901036 25.169273 19.015625 24.695312 C20.130214 24.221352 21.348952 23.838543 22.671875 23.546875 L24.968750 25.140625 C23.458326 25.380210 22.114589 25.658853 20.937500 25.976562 C19.760411 26.294272 18.656255 26.776038 17.625000 27.421875 C16.593745 28.067712 15.526047 28.994786 14.421875 30.203125 L12.875000 31.906250 C12.395831 32.437503 11.854170 32.851561 11.250000 33.148438 C10.645830 33.445314 9.979170 33.593750 9.250000 33.593750 Z M18.796875 20.343750 L21.187500 16.609375 C21.322917 16.380207 21.390625 16.125001 21.390625 15.843750 C21.390625 15.322914 21.192710 14.783857 20.796875 14.226562 C20.401040 13.669268 19.914065 13.197919 19.335938 12.812500 C18.757810 12.427081 18.197919 12.234375 17.656250 12.234375 C17.312498 12.234375 17.015626 12.322916 16.765625 12.500000 L13.312500 14.843750 C14.052087 15.791671 14.872391 16.729162 15.773438 17.656250 C16.674484 18.583338 17.682286 19.479162 18.796875 20.343750 Z M29.968750 13.312500 L28.265625 12.734375 C28.442709 12.234372 28.531250 11.750002 28.531250 11.281250 C28.531250 10.343745 28.270836 9.466150 27.750000 8.648438 C27.229164 7.830725 26.536463 7.169273 25.671875 6.664062 C24.807287 6.158852 23.864588 5.906250 22.843750 5.906250 C22.666666 5.906250 22.486980 5.914062 22.304688 5.929688 C22.122395 5.945313 21.942709 5.968750 21.765625 6.000000 L21.437500 4.218750 C21.677085 4.166666 21.911457 4.130208 22.140625 4.109375 C22.369793 4.088542 22.598957 4.078125 22.828125 4.078125 C23.838547 4.078125 24.794266 4.270831 25.695312 4.656250 C26.596359 5.041669 27.395830 5.567705 28.093750 6.234375 C28.791670 6.901045 29.338540 7.664058 29.734375 8.523438 C30.130210 9.382817 30.328125 10.281245 30.328125 11.218750 C30.328125 11.937504 30.208335 12.635413 29.968750 13.312500 Z M32.656250 17.625000 L31.078125 16.765625 C31.598961 15.828120 31.973957 14.895838 32.203125 13.968750 C32.432293 13.041662 32.546875 12.145838 32.546875 11.281250 C32.546875 9.958327 32.304690 8.723964 31.820312 7.578125 C31.335935 6.432286 30.656254 5.427088 29.781250 4.562500 C28.906246 3.697912 27.880214 3.023440 26.703125 2.539062 C25.526036 2.054685 24.250007 1.812500 22.875000 1.812500 C22.177080 1.812500 21.460941 1.880208 20.726562 2.015625 C19.992184 2.151042 19.239587 2.369790 18.468750 2.671875 L17.812500 0.984375 C18.697921 0.651040 19.567704 0.403647 20.421875 0.242188 C21.276046 0.080728 22.109371 -0.000000 22.921875 -0.000000 C24.546883 -0.000000 26.052076 0.291664 27.437500 0.875000 C28.822924 1.458336 30.036453 2.265620 31.078125 3.296875 C32.119797 4.328130 32.929685 5.523431 33.507812 6.882812 C34.085940 8.242194 34.375000 9.703117 34.375000 11.265625 C34.375000 12.276047 34.234376 13.317703 33.953125 14.390625 C33.671874 15.463547 33.239586 16.541661 32.656250 17.625000 Z M37.500000 28.125000" /></svg>