<svg version="1.1" xmlns="http://www.w3.org/2000/svg" style="fill:rgba(0,0,0,1.0)" width="256" height="256" viewBox="0 0 33.75 32.8125"><path fill="rgb(255, 255, 255)" d="M0.000000 32.812500 L0.000000 2.609375 L26.875000 2.609375 L26.875000 24.765625 L18.375000 32.812500 Z M1.875000 30.937500 L17.890625 30.937500 L17.890625 24.109375 L25.000000 24.109375 L25.000000 4.484375 L1.875000 4.484375 Z M4.703125 8.156250 C4.307290 8.156250 3.963543 8.015626 3.671875 7.734375 C3.380207 7.453124 3.234375 7.104169 3.234375 6.687500 C3.234375 6.291665 3.380207 5.950522 3.671875 5.664062 C3.963543 5.377603 4.307290 5.234375 4.703125 5.234375 C5.109377 5.234375 5.455728 5.377603 5.742188 5.664062 C6.028647 5.950522 6.171875 6.291665 6.171875 6.687500 C6.171875 7.104169 6.028647 7.453124 5.742188 7.734375 C5.455728 8.015626 5.109377 8.156250 4.703125 8.156250 Z M9.875000 8.156250 C9.489581 8.156250 9.148439 8.015626 8.851562 7.734375 C8.554686 7.453124 8.406250 7.104169 8.406250 6.687500 C8.406250 6.291665 8.554686 5.950522 8.851562 5.664062 C9.148439 5.377603 9.489581 5.234375 9.875000 5.234375 C10.281252 5.234375 10.627603 5.377603 10.914062 5.664062 C11.200522 5.950522 11.343750 6.291665 11.343750 6.687500 C11.343750 7.104169 11.200522 7.453124 10.914062 7.734375 C10.627603 8.015626 10.281252 8.156250 9.875000 8.156250 Z M4.015625 6.515625 C3.817707 5.963539 3.718750 5.328129 3.718750 4.609375 C3.718750 3.307285 4.052080 2.213546 4.718750 1.328125 C5.385420 0.442704 6.244786 -0.000000 7.296875 -0.000000 C8.984383 -0.000000 10.161455 1.135405 10.828125 3.406250 L8.859375 2.734375 C8.713541 2.296873 8.494793 1.979168 8.203125 1.781250 C7.911457 1.583332 7.614585 1.484375 7.312500 1.484375 C6.687497 1.484375 6.179689 1.794268 5.789062 2.414062 C5.398436 3.033857 5.203125 3.765621 5.203125 4.609375 C5.203125 4.859376 5.226562 5.106770 5.273438 5.351562 C5.320313 5.596355 5.375000 5.828124 5.437500 6.046875 Z M15.062500 8.156250 C14.666665 8.156250 14.322918 8.015626 14.031250 7.734375 C13.739582 7.453124 13.593750 7.104169 13.593750 6.687500 C13.593750 6.291665 13.739582 5.950522 14.031250 5.664062 C14.322918 5.377603 14.666665 5.234375 15.062500 5.234375 C15.468752 5.234375 15.815103 5.377603 16.101562 5.664062 C16.388022 5.950522 16.531250 6.291665 16.531250 6.687500 C16.531250 7.104169 16.388022 7.453124 16.101562 7.734375 C15.815103 8.015626 15.468752 8.156250 15.062500 8.156250 Z M9.187500 6.515625 C8.989582 5.921872 8.890625 5.286462 8.890625 4.609375 C8.890625 3.307285 9.223955 2.213546 9.890625 1.328125 C10.557295 0.442704 11.416661 -0.000000 12.468750 -0.000000 C14.145842 -0.000000 15.328122 1.135405 16.015625 3.406250 L14.046875 2.734375 C13.901041 2.296873 13.679689 1.979168 13.382812 1.781250 C13.085936 1.583332 12.786460 1.484375 12.484375 1.484375 C11.869789 1.484375 11.364585 1.794268 10.968750 2.414062 C10.572915 3.033857 10.375000 3.765621 10.375000 4.609375 C10.375000 4.859376 10.401041 5.106770 10.453125 5.351562 C10.505209 5.596355 10.562500 5.828124 10.625000 6.046875 Z M20.234375 8.156250 C19.848956 8.156250 19.507814 8.015626 19.210938 7.734375 C18.914061 7.453124 18.765625 7.104169 18.765625 6.687500 C18.765625 6.291665 18.914061 5.950522 19.210938 5.664062 C19.507814 5.377603 19.848956 5.234375 20.234375 5.234375 C20.640627 5.234375 20.986978 5.377603 21.273438 5.664062 C21.559897 5.950522 21.703125 6.291665 21.703125 6.687500 C21.703125 7.104169 21.559897 7.453124 21.273438 7.734375 C20.986978 8.015626 20.640627 8.156250 20.234375 8.156250 Z M14.375000 6.515625 C14.177082 5.921872 14.078125 5.286462 14.078125 4.609375 C14.078125 3.307285 14.411455 2.213546 15.078125 1.328125 C15.744795 0.442704 16.604161 -0.000000 17.656250 -0.000000 C19.343758 -0.000000 20.520830 1.135405 21.187500 3.406250 L19.218750 2.734375 C19.072916 2.296873 18.854168 1.979168 18.562500 1.781250 C18.270832 1.583332 17.973960 1.484375 17.671875 1.484375 C17.046872 1.484375 16.539064 1.794268 16.148438 2.414062 C15.757811 3.033857 15.562500 3.765621 15.562500 4.609375 C15.562500 4.859376 15.585937 5.106770 15.632812 5.351562 C15.679688 5.596355 15.734375 5.828124 15.796875 6.046875 Z M19.546875 6.515625 C19.348957 5.921872 19.250000 5.286462 19.250000 4.609375 C19.250000 3.307285 19.583330 2.213546 20.250000 1.328125 C20.916670 0.442704 21.776036 -0.000000 22.828125 -0.000000 C23.661462 -0.000000 24.372393 0.276039 24.960938 0.828125 C25.549482 1.380211 26.020832 2.239577 26.375000 3.406250 L24.406250 2.734375 C24.260416 2.296873 24.039064 1.979168 23.742188 1.781250 C23.445311 1.583332 23.145835 1.484375 22.843750 1.484375 C22.229164 1.484375 21.723960 1.794268 21.328125 2.414062 C20.932290 3.033857 20.734375 3.765621 20.734375 4.609375 C20.734375 4.859376 20.760416 5.106770 20.812500 5.351562 C20.864584 5.596355 20.921875 5.828124 20.984375 6.046875 Z M3.921875 32.812500 L3.921875 30.937500 L25.000000 30.937500 L25.000000 5.531250 L26.875000 5.531250 L26.875000 32.812500 Z M19.625000 29.203125 L23.343750 25.656250 L19.625000 25.656250 Z M0.968750 11.359375 L0.968750 10.156250 L25.843750 10.156250 L25.843750 11.359375 Z M0.968750 15.671875 L0.968750 14.468750 L25.843750 14.468750 L25.843750 15.671875 Z M0.968750 19.984375 L0.968750 18.781250 L25.843750 18.781250 L25.843750 19.984375 Z M0.968750 24.296875 L0.968750 23.093750 L25.843750 23.093750 L25.843750 24.296875 Z M0.968750 28.609375 L0.968750 27.406250 L18.593750 27.406250 L18.593750 28.609375 Z M33.750000 27.343750" /></svg>