<svg version="1.1" xmlns="http://www.w3.org/2000/svg" style="fill:rgba(0,0,0,1.0)" width="256" height="256" viewBox="0 0 37.34375 31.25"><path fill="rgb(255, 255, 255)" d="M0.000000 31.250000 L0.000000 2.203125 L34.062500 2.187500 L34.062500 31.250000 Z M5.906250 26.375000 L8.281250 26.375000 L8.281250 24.484375 L5.906250 24.484375 Z M5.906250 23.546875 L8.281250 23.546875 L8.281250 21.640625 L5.906250 21.640625 Z M9.218750 26.375000 L11.578125 26.375000 L11.578125 24.484375 L9.218750 24.484375 Z M5.906250 20.703125 L8.281250 20.703125 L8.281250 18.812500 L5.906250 18.812500 Z M9.218750 23.546875 L11.578125 23.546875 L11.578125 21.640625 L9.218750 21.640625 Z M12.531250 26.375000 L14.890625 26.375000 L14.890625 24.484375 L12.531250 24.484375 Z M5.906250 17.859375 L8.281250 17.859375 L8.281250 15.968750 L5.906250 15.968750 Z M9.218750 20.703125 L11.578125 20.703125 L11.578125 18.812500 L9.218750 18.812500 Z M12.531250 23.546875 L14.890625 23.546875 L14.890625 21.640625 L12.531250 21.640625 Z M15.843750 26.375000 L18.203125 26.375000 L18.203125 24.484375 L15.843750 24.484375 Z M5.906250 15.015625 L8.281250 15.015625 L8.281250 13.125000 L5.906250 13.125000 Z M9.218750 17.859375 L11.578125 17.859375 L11.578125 15.968750 L9.218750 15.968750 Z M12.531250 20.703125 L14.890625 20.703125 L14.890625 18.812500 L12.531250 18.812500 Z M15.843750 23.546875 L18.203125 23.546875 L18.203125 21.640625 L15.843750 21.640625 Z M19.156250 26.375000 L21.515625 26.375000 L21.515625 24.484375 L19.156250 24.484375 Z M9.218750 15.015625 L11.578125 15.015625 L11.578125 13.125000 L9.218750 13.125000 Z M12.531250 17.859375 L14.890625 17.859375 L14.890625 15.968750 L12.531250 15.968750 Z M4.984375 27.328125 L4.984375 12.187500 L29.062500 12.187500 L29.062500 27.328125 Z M15.843750 20.703125 L18.203125 20.703125 L18.203125 18.812500 L15.843750 18.812500 Z M19.156250 23.546875 L21.515625 23.546875 L21.515625 21.640625 L19.156250 21.640625 Z M22.453125 26.375000 L24.812500 26.375000 L24.812500 24.484375 L22.453125 24.484375 Z M5.000000 7.390625 C4.645832 7.390625 4.335939 7.263022 4.070312 7.007812 C3.804686 6.752603 3.671875 6.437502 3.671875 6.062500 C3.671875 5.697915 3.804686 5.388022 4.070312 5.132812 C4.335939 4.877603 4.645832 4.750000 5.000000 4.750000 C5.364585 4.750000 5.677082 4.877603 5.937500 5.132812 C6.197918 5.388022 6.328125 5.697915 6.328125 6.062500 C6.328125 6.437502 6.197918 6.752603 5.937500 7.007812 C5.677082 7.263022 5.364585 7.390625 5.000000 7.390625 Z M12.531250 15.015625 L14.890625 15.015625 L14.890625 13.125000 L12.531250 13.125000 Z M15.843750 17.859375 L18.203125 17.859375 L18.203125 15.968750 L15.843750 15.968750 Z M1.875000 29.375000 L32.187500 29.375000 L32.187500 4.078125 L1.875000 4.078125 Z M19.156250 20.703125 L21.515625 20.703125 L21.515625 18.812500 L19.156250 18.812500 Z M22.453125 23.546875 L24.812500 23.546875 L24.812500 21.640625 L22.453125 21.640625 Z M25.765625 26.375000 L28.125000 26.375000 L28.125000 24.484375 L25.765625 24.484375 Z M15.843750 15.015625 L18.203125 15.015625 L18.203125 13.125000 L15.843750 13.125000 Z M9.687500 7.390625 C9.333332 7.390625 9.023439 7.263022 8.757812 7.007812 C8.492186 6.752603 8.359375 6.437502 8.359375 6.062500 C8.359375 5.697915 8.492186 5.388022 8.757812 5.132812 C9.023439 4.877603 9.333332 4.750000 9.687500 4.750000 C10.052085 4.750000 10.364582 4.877603 10.625000 5.132812 C10.885418 5.388022 11.015625 5.697915 11.015625 6.062500 C11.015625 6.437502 10.885418 6.752603 10.625000 7.007812 C10.364582 7.263022 10.052085 7.390625 9.687500 7.390625 Z M19.156250 17.859375 L21.515625 17.859375 L21.515625 15.968750 L19.156250 15.968750 Z M4.343750 5.421875 C4.302083 5.234374 4.270833 5.036459 4.250000 4.828125 C4.229167 4.619791 4.218750 4.406251 4.218750 4.187500 C4.218750 2.843743 4.453123 1.809899 4.921875 1.085938 C5.390627 0.361976 6.036454 -0.000000 6.859375 -0.000000 C7.505212 -0.000000 8.091143 0.263018 8.617188 0.789062 C9.143232 1.315107 9.406250 2.083328 9.406250 3.093750 L8.046875 3.093750 C8.046875 2.447913 7.934897 1.979168 7.710938 1.687500 C7.486978 1.395832 7.208335 1.250000 6.875000 1.250000 C6.343747 1.250000 5.989584 1.523435 5.812500 2.070312 C5.635416 2.617190 5.546875 3.291663 5.546875 4.093750 C5.546875 4.312501 5.559896 4.533853 5.585938 4.757812 C5.611979 4.981772 5.645833 5.203124 5.687500 5.421875 Z M22.453125 20.703125 L24.812500 20.703125 L24.812500 18.812500 L22.453125 18.812500 Z M25.765625 23.546875 L28.125000 23.546875 L28.125000 21.640625 L25.765625 21.640625 Z M19.156250 15.015625 L21.515625 15.015625 L21.515625 13.125000 L19.156250 13.125000 Z M22.453125 17.859375 L24.812500 17.859375 L24.812500 15.968750 L22.453125 15.968750 Z M25.765625 20.703125 L28.125000 20.703125 L28.125000 18.812500 L25.765625 18.812500 Z M0.968750 10.203125 L0.968750 8.328125 L32.828125 8.328125 L32.828125 10.203125 Z M14.375000 7.390625 C14.020832 7.390625 13.710939 7.263022 13.445312 7.007812 C13.179686 6.752603 13.046875 6.437502 13.046875 6.062500 C13.046875 5.697915 13.179686 5.388022 13.445312 5.132812 C13.710939 4.877603 14.020832 4.750000 14.375000 4.750000 C14.739585 4.750000 15.052082 4.877603 15.312500 5.132812 C15.572918 5.388022 15.703125 5.697915 15.703125 6.062500 C15.703125 6.437502 15.572918 6.752603 15.312500 7.007812 C15.052082 7.263022 14.739585 7.390625 14.375000 7.390625 Z M9.031250 5.421875 C8.989583 5.234374 8.958333 5.036459 8.937500 4.828125 C8.916667 4.619791 8.906250 4.406251 8.906250 4.187500 C8.906250 2.843743 9.140623 1.809899 9.609375 1.085938 C10.078127 0.361976 10.723954 -0.000000 11.546875 -0.000000 C12.192712 -0.000000 12.778643 0.263018 13.304688 0.789062 C13.830732 1.315107 14.093750 2.083328 14.093750 3.093750 L12.734375 3.093750 C12.734375 2.447913 12.622397 1.979168 12.398438 1.687500 C12.174478 1.395832 11.895835 1.250000 11.562500 1.250000 C11.031247 1.250000 10.677084 1.523435 10.500000 2.070312 C10.322916 2.617190 10.234375 3.291663 10.234375 4.093750 C10.234375 4.312501 10.247396 4.533853 10.273438 4.757812 C10.299479 4.981772 10.333333 5.203124 10.375000 5.421875 Z M22.453125 15.015625 L24.812500 15.015625 L24.812500 13.125000 L22.453125 13.125000 Z M25.765625 17.859375 L28.125000 17.859375 L28.125000 15.968750 L25.765625 15.968750 Z M19.062500 7.390625 C18.708332 7.390625 18.398439 7.263022 18.132812 7.007812 C17.867186 6.752603 17.734375 6.437502 17.734375 6.062500 C17.734375 5.697915 17.867186 5.388022 18.132812 5.132812 C18.398439 4.877603 18.708332 4.750000 19.062500 4.750000 C19.427085 4.750000 19.739582 4.877603 20.000000 5.132812 C20.260418 5.388022 20.390625 5.697915 20.390625 6.062500 C20.390625 6.437502 20.260418 6.752603 20.000000 7.007812 C19.739582 7.263022 19.427085 7.390625 19.062500 7.390625 Z M25.765625 15.015625 L28.125000 15.015625 L28.125000 13.125000 L25.765625 13.125000 Z M13.718750 5.421875 C13.677083 5.234374 13.645833 5.036459 13.625000 4.828125 C13.604167 4.619791 13.593750 4.406251 13.593750 4.187500 C13.593750 2.843743 13.828123 1.809899 14.296875 1.085938 C14.765627 0.361976 15.411454 -0.000000 16.234375 -0.000000 C16.880212 -0.000000 17.466143 0.263018 17.992188 0.789062 C18.518232 1.315107 18.781250 2.083328 18.781250 3.093750 L17.421875 3.093750 C17.421875 2.447913 17.309897 1.979168 17.085938 1.687500 C16.861978 1.395832 16.583335 1.250000 16.250000 1.250000 C15.718747 1.250000 15.364584 1.523435 15.187500 2.070312 C15.010416 2.617190 14.921875 3.291663 14.921875 4.093750 C14.921875 4.312501 14.934896 4.533853 14.960938 4.757812 C14.986979 4.981772 15.020833 5.203124 15.062500 5.421875 Z M23.750000 7.390625 C23.395832 7.390625 23.085939 7.263022 22.820312 7.007812 C22.554686 6.752603 22.421875 6.437502 22.421875 6.062500 C22.421875 5.697915 22.554686 5.388022 22.820312 5.132812 C23.085939 4.877603 23.395832 4.750000 23.750000 4.750000 C24.114585 4.750000 24.427082 4.877603 24.687500 5.132812 C24.947918 5.388022 25.078125 5.697915 25.078125 6.062500 C25.078125 6.437502 24.947918 6.752603 24.687500 7.007812 C24.427082 7.263022 24.114585 7.390625 23.750000 7.390625 Z M18.406250 5.421875 C18.364583 5.234374 18.333333 5.036459 18.312500 4.828125 C18.291667 4.619791 18.281250 4.406251 18.281250 4.187500 C18.281250 2.843743 18.515623 1.809899 18.984375 1.085938 C19.453127 0.361976 20.098954 -0.000000 20.921875 -0.000000 C21.567712 -0.000000 22.153643 0.263018 22.679688 0.789062 C23.205732 1.315107 23.468750 2.083328 23.468750 3.093750 L22.109375 3.093750 C22.109375 2.447913 21.997397 1.979168 21.773438 1.687500 C21.549478 1.395832 21.270835 1.250000 20.937500 1.250000 C20.406247 1.250000 20.052084 1.523435 19.875000 2.070312 C19.697916 2.617190 19.609375 3.291663 19.609375 4.093750 C19.609375 4.312501 19.622396 4.533853 19.648438 4.757812 C19.674479 4.981772 19.708333 5.203124 19.750000 5.421875 Z M28.437500 7.390625 C28.083332 7.390625 27.773439 7.263022 27.507812 7.007812 C27.242186 6.752603 27.109375 6.437502 27.109375 6.062500 C27.109375 5.697915 27.242186 5.388022 27.507812 5.132812 C27.773439 4.877603 28.083332 4.750000 28.437500 4.750000 C28.802085 4.750000 29.114582 4.877603 29.375000 5.132812 C29.635418 5.388022 29.765625 5.697915 29.765625 6.062500 C29.765625 6.437502 29.635418 6.752603 29.375000 7.007812 C29.114582 7.263022 28.802085 7.390625 28.437500 7.390625 Z M23.093750 5.421875 C23.052083 5.234374 23.020833 5.036459 23.000000 4.828125 C22.979167 4.619791 22.968750 4.406251 22.968750 4.187500 C22.968750 2.843743 23.203123 1.809899 23.671875 1.085938 C24.140627 0.361976 24.786454 -0.000000 25.609375 -0.000000 C26.255212 -0.000000 26.841143 0.263018 27.367188 0.789062 C27.893232 1.315107 28.156250 2.083328 28.156250 3.093750 L26.796875 3.093750 C26.796875 2.447913 26.684897 1.979168 26.460938 1.687500 C26.236978 1.395832 25.958335 1.250000 25.625000 1.250000 C25.093747 1.250000 24.739584 1.523435 24.562500 2.070312 C24.385416 2.617190 24.296875 3.291663 24.296875 4.093750 C24.296875 4.312501 24.309896 4.533853 24.335938 4.757812 C24.361979 4.981772 24.395833 5.203124 24.437500 5.421875 Z M27.781250 5.421875 C27.739583 5.234374 27.708333 5.036459 27.687500 4.828125 C27.666667 4.619791 27.656250 4.406251 27.656250 4.187500 C27.656250 2.843743 27.890623 1.809899 28.359375 1.085938 C28.828127 0.361976 29.473954 -0.000000 30.296875 -0.000000 C30.942712 -0.000000 31.528643 0.263018 32.054688 0.789062 C32.580732 1.315107 32.843750 2.083328 32.843750 3.093750 L31.484375 3.093750 C31.484375 2.447913 31.372397 1.979168 31.148438 1.687500 C30.924478 1.395832 30.645835 1.250000 30.312500 1.250000 C29.781247 1.250000 29.427084 1.523435 29.250000 2.070312 C29.072916 2.617190 28.984375 3.291663 28.984375 4.093750 C28.984375 4.312501 28.997396 4.533853 29.023438 4.757812 C29.049479 4.981772 29.083333 5.203124 29.125000 5.421875 Z M37.343750 27.343750" /></svg>