<svg version="1.1" xmlns="http://www.w3.org/2000/svg" style="fill:rgba(0,0,0,1.0)" width="256" height="256" viewBox="0 0 36.71875 32.8125"><path fill="rgb(255, 255, 255)" d="M29.609375 32.812500 C29.192706 32.812500 28.812502 32.630210 28.468750 32.265625 C27.697913 31.453121 26.796880 30.445319 25.765625 29.242188 C24.734370 28.039056 23.638027 26.755215 22.476562 25.390625 C21.315098 24.026035 20.143235 22.687507 18.960938 21.375000 C17.778640 20.062493 16.640630 18.882818 15.546875 17.835938 C14.453120 16.789057 13.468754 15.989586 12.593750 15.437500 C12.333332 15.354166 12.002606 15.304688 11.601562 15.289062 C11.200519 15.273437 10.744794 15.265625 10.234375 15.265625 C8.890618 15.265625 7.606777 14.960941 6.382812 14.351562 C5.158848 13.742184 4.065109 12.914068 3.101562 11.867188 C2.138016 10.820307 1.380211 9.622403 0.828125 8.273438 C0.276039 6.924472 0.000000 5.515632 0.000000 4.046875 C0.000000 2.734368 0.348955 1.731774 1.046875 1.039062 C1.744795 0.346351 2.744785 -0.000000 4.046875 -0.000000 C5.526049 -0.000000 6.940097 0.278643 8.289062 0.835938 C9.638028 1.393232 10.835932 2.153641 11.882812 3.117188 C12.929693 4.080734 13.757809 5.179681 14.367188 6.414062 C14.976566 7.648444 15.281250 8.942702 15.281250 10.296875 C15.281250 10.796878 15.289062 11.255206 15.304688 11.671875 C15.320313 12.088544 15.369791 12.427082 15.453125 12.687500 C16.005211 13.562504 16.807286 14.539057 17.859375 15.617188 C18.911464 16.695318 20.096348 17.817702 21.414062 18.984375 C22.731777 20.151048 24.072910 21.307286 25.437500 22.453125 C26.802090 23.598964 28.085931 24.687495 29.289062 25.718750 C30.492194 26.750005 31.489579 27.661454 32.281250 28.453125 C32.635418 28.807293 32.812500 29.192706 32.812500 29.609375 C32.812500 30.026044 32.635418 30.484372 32.281250 30.984375 C31.927082 31.484378 31.502607 31.914061 31.007812 32.273438 C30.513018 32.632814 30.046877 32.812500 29.609375 32.812500 Z M8.875000 12.546875 C9.177085 12.609375 9.429686 12.552084 9.632812 12.375000 C9.835939 12.197916 9.937500 11.979168 9.937500 11.718750 C9.937500 11.156247 9.671878 10.812501 9.140625 10.687500 C8.390621 10.510416 7.677087 10.117191 7.000000 9.507812 C6.322913 8.898434 5.747398 8.143234 5.273438 7.242188 C4.799477 6.341141 4.473959 5.369797 4.296875 4.328125 C4.213541 3.786456 3.906253 3.515625 3.375000 3.515625 C3.083332 3.515625 2.843751 3.624999 2.656250 3.843750 C2.468749 4.062501 2.401041 4.333332 2.453125 4.656250 C2.682293 5.958340 3.111976 7.169265 3.742188 8.289062 C4.372399 9.408860 5.132808 10.343746 6.023438 11.093750 C6.914067 11.843754 7.864578 12.328124 8.875000 12.546875 Z M36.718750 27.343750" /></svg>