<svg version="1.1" xmlns="http://www.w3.org/2000/svg" style="fill:rgba(0,0,0,1.0)" width="256" height="256" viewBox="0 0 36.71875 32.8125"><path fill="rgb(255, 255, 255)" d="M2.734375 32.812500 C1.984371 32.812500 1.341149 32.544274 0.804688 32.007812 C0.268226 31.471351 0.000000 30.828129 0.000000 30.078125 L0.000000 2.718750 C0.000000 1.979163 0.270831 1.341149 0.812500 0.804688 C1.354169 0.268226 1.999996 -0.000000 2.750000 -0.000000 L30.078125 -0.000000 C30.828129 -0.000000 31.471351 0.268226 32.007812 0.804688 C32.544274 1.341149 32.812500 1.984371 32.812500 2.734375 L32.812500 30.078125 C32.812500 30.828129 32.544274 31.471351 32.007812 32.007812 C31.471351 32.544274 30.828129 32.812500 30.078125 32.812500 Z M16.718750 28.765625 C18.572926 28.765625 20.221347 28.429691 21.664062 27.757812 C23.106778 27.085934 24.302079 26.250005 25.250000 25.250000 C25.500001 24.989582 25.721353 24.703127 25.914062 24.390625 C26.106772 24.078123 26.213542 23.791668 26.234375 23.531250 C24.973952 24.656256 23.664069 25.473956 22.304688 25.984375 C20.945306 26.494794 19.651048 26.750000 18.421875 26.750000 C17.015618 26.750000 15.687506 26.492190 14.437500 25.976562 C13.187494 25.460935 12.083338 24.736984 11.125000 23.804688 C10.166662 22.872391 9.414065 21.776048 8.867188 20.515625 C8.320310 19.255202 8.046875 17.880216 8.046875 16.390625 C8.046875 14.901034 8.320310 13.526048 8.867188 12.265625 C9.414065 11.005202 10.166662 9.908859 11.125000 8.976562 C12.083338 8.044266 13.187494 7.320315 14.437500 6.804688 C15.687506 6.289060 17.015618 6.031250 18.421875 6.031250 C19.651048 6.031250 20.945306 6.286456 22.304688 6.796875 C23.664069 7.307294 24.973952 8.124994 26.234375 9.250000 C26.213542 8.979165 26.106772 8.690106 25.914062 8.382812 C25.721353 8.075519 25.500001 7.791668 25.250000 7.531250 C24.291662 6.541662 23.093757 5.708337 21.656250 5.031250 C20.218743 4.354163 18.572926 4.015625 16.718750 4.015625 C14.937491 4.015625 13.278654 4.325518 11.742188 4.945312 C10.205721 5.565107 8.859381 6.434890 7.703125 7.554688 C6.546869 8.674485 5.645837 9.986972 5.000000 11.492188 C4.354163 12.997403 4.031250 14.630200 4.031250 16.390625 C4.031250 18.151050 4.354163 19.783847 5.000000 21.289062 C5.645837 22.794278 6.546869 24.106765 7.703125 25.226562 C8.859381 26.346360 10.205721 27.216143 11.742188 27.835938 C13.278654 28.455732 14.937491 28.765625 16.718750 28.765625 Z M21.484375 20.484375 L24.421875 18.890625 L27.359375 20.484375 L26.328125 17.421875 L28.937500 15.171875 L25.625000 15.171875 L24.421875 12.078125 L23.218750 15.171875 L19.906250 15.171875 L22.515625 17.421875 Z M36.718750 27.343750" /></svg>