<svg version="1.1" xmlns="http://www.w3.org/2000/svg" style="fill:rgba(0,0,0,1.0)" width="256" height="256" viewBox="0 0 37.6875 32.8125"><path fill="rgb(255, 255, 255)" d="M12.718750 27.484375 C11.156242 27.484375 9.653653 27.450521 8.210938 27.382812 C6.768222 27.315104 5.479172 27.216146 4.343750 27.085938 C3.208328 26.955729 2.317712 26.796876 1.671875 26.609375 L1.671875 24.859375 L2.484375 22.968750 L2.484375 7.187500 L4.359375 7.187500 L4.359375 23.171875 L3.671875 24.828125 L3.671875 25.078125 C4.848964 25.265626 6.226555 25.406250 7.804688 25.500000 C9.382820 25.593750 11.020825 25.640625 12.718750 25.640625 C14.406258 25.640625 16.036450 25.593750 17.609375 25.500000 C19.182300 25.406250 20.572911 25.270834 21.781250 25.093750 L21.781250 24.843750 L21.078125 23.171875 L21.078125 7.187500 L22.953125 7.187500 L22.953125 22.968750 L23.765625 24.859375 L23.765625 26.609375 C23.119788 26.796876 22.229172 26.955729 21.093750 27.085938 C19.958328 27.216146 18.671882 27.315104 17.234375 27.382812 C15.796868 27.450521 14.291675 27.484375 12.718750 27.484375 Z M0.000000 32.812500 L0.000000 21.984375 L3.437500 21.984375 L2.656250 25.750000 L4.859375 26.687500 L3.187500 32.812500 Z M7.921875 32.812500 L8.765625 27.093750 L16.265625 26.968750 L18.031250 32.812500 Z M5.500000 30.015625 C5.322916 30.015625 5.171876 29.953126 5.046875 29.828125 C4.921874 29.703124 4.859375 29.552084 4.859375 29.375000 L4.859375 25.750000 L20.578125 25.750000 L20.578125 29.375000 C20.578125 29.552084 20.515626 29.703124 20.390625 29.828125 C20.265624 29.953126 20.114584 30.015625 19.937500 30.015625 L18.296875 30.015625 C18.119791 30.015625 17.968751 29.953126 17.843750 29.828125 C17.718749 29.703124 17.656250 29.552084 17.656250 29.375000 L17.656250 27.156250 C16.729162 27.197917 15.867191 27.229167 15.070312 27.250000 C14.273434 27.270833 13.489587 27.281250 12.718750 27.281250 C11.947913 27.281250 11.164066 27.270833 10.367188 27.250000 C9.570309 27.229167 8.708338 27.197917 7.781250 27.156250 L7.781250 29.375000 C7.781250 29.552084 7.718751 29.703124 7.593750 29.828125 C7.468749 29.953126 7.317709 30.015625 7.140625 30.015625 Z M8.046875 23.281250 C7.651040 23.281250 7.312501 23.140626 7.031250 22.859375 C6.749999 22.578124 6.609375 22.244794 6.609375 21.859375 C6.609375 21.463540 6.749999 21.127606 7.031250 20.851562 C7.312501 20.575519 7.645831 20.437500 8.031250 20.437500 C8.427085 20.437500 8.763019 20.575519 9.039062 20.851562 C9.315106 21.127606 9.453125 21.458331 9.453125 21.843750 C9.453125 22.239585 9.315106 22.578124 9.039062 22.859375 C8.763019 23.140626 8.432294 23.281250 8.046875 23.281250 Z M6.343750 17.703125 L6.484375 16.187500 C6.515625 15.885415 6.638020 15.638022 6.851562 15.445312 C7.065105 15.252603 7.317707 15.156250 7.609375 15.156250 L7.921875 15.156250 C8.286460 15.156250 8.572916 15.322915 8.781250 15.656250 L9.031250 16.078125 L9.281250 15.656250 C9.489584 15.322915 9.776040 15.156250 10.140625 15.156250 L10.453125 15.156250 C10.755210 15.156250 11.010416 15.252603 11.218750 15.445312 C11.427084 15.638022 11.546875 15.885415 11.578125 16.187500 L11.718750 17.703125 Z M17.421875 23.281250 C17.026040 23.281250 16.687501 23.140626 16.406250 22.859375 C16.124999 22.578124 15.984375 22.244794 15.984375 21.859375 C15.984375 21.463540 16.124999 21.127606 16.406250 20.851562 C16.687501 20.575519 17.020831 20.437500 17.406250 20.437500 C17.802085 20.437500 18.138019 20.575519 18.414062 20.851562 C18.690106 21.127606 18.828125 21.458331 18.828125 21.843750 C18.828125 22.239585 18.690106 22.578124 18.414062 22.859375 C18.138019 23.140626 17.807294 23.281250 17.421875 23.281250 Z M23.218750 32.812500 L20.031250 26.468750 L22.546875 25.578125 L34.406250 32.812500 Z M12.718750 18.765625 C11.604161 18.765625 10.468756 18.697917 9.312500 18.562500 C8.156244 18.427083 7.026047 18.270834 5.921875 18.093750 L5.921875 9.562500 C6.963547 9.385416 7.851559 9.252605 8.585938 9.164062 C9.320316 9.075520 10.007809 9.015625 10.648438 8.984375 C11.289066 8.953125 11.979163 8.937500 12.718750 8.937500 C13.468754 8.937500 14.161455 8.953125 14.796875 8.984375 C15.432295 9.015625 16.117184 9.075520 16.851562 9.164062 C17.585941 9.252605 18.473953 9.385416 19.515625 9.562500 L19.515625 18.140625 C18.473953 18.317709 17.585941 18.450520 16.851562 18.539062 C16.117184 18.627605 15.432295 18.687500 14.796875 18.718750 C14.161455 18.750000 13.468754 18.765625 12.718750 18.765625 Z M12.718750 17.203125 C13.322920 17.203125 13.898435 17.190104 14.445312 17.164062 C14.992190 17.138021 15.536456 17.096354 16.078125 17.039062 C16.619794 16.981771 17.192705 16.916667 17.796875 16.843750 L17.796875 10.859375 C17.192705 10.776041 16.619794 10.708334 16.078125 10.656250 C15.536456 10.604166 14.992190 10.565104 14.445312 10.539062 C13.898435 10.513021 13.322920 10.500000 12.718750 10.500000 C12.114580 10.500000 11.541669 10.513021 11.000000 10.539062 C10.458331 10.565104 9.914065 10.604166 9.367188 10.656250 C8.820310 10.708334 8.244795 10.776041 7.640625 10.859375 L7.640625 16.843750 C8.546880 16.958334 9.393225 17.046875 10.179688 17.109375 C10.966150 17.171875 11.812495 17.203125 12.718750 17.203125 Z M12.250000 17.562500 L12.250000 10.031250 L13.187500 10.031250 L13.187500 17.562500 Z M13.718750 17.703125 L13.859375 16.187500 C13.890625 15.885415 14.013020 15.638022 14.226562 15.445312 C14.440105 15.252603 14.692707 15.156250 14.984375 15.156250 L15.296875 15.156250 C15.661460 15.156250 15.947916 15.322915 16.156250 15.656250 L16.406250 16.078125 L16.656250 15.656250 C16.864584 15.322915 17.151040 15.156250 17.515625 15.156250 L17.828125 15.156250 C18.130210 15.156250 18.385416 15.252603 18.593750 15.445312 C18.802084 15.638022 18.921875 15.885415 18.953125 16.187500 L19.093750 17.703125 Z M33.093750 29.312500 L21.875000 23.906250 L21.750000 21.984375 L33.125000 21.984375 L33.125000 23.703125 L25.609375 23.703125 L33.093750 27.312500 Z M2.578125 8.203125 L1.906250 7.421875 C2.145835 6.776038 2.463540 6.192711 2.859375 5.671875 C3.255210 5.151039 3.830725 4.703127 4.585938 4.328125 C5.341150 3.953123 6.369785 3.664064 7.671875 3.460938 C8.973965 3.257811 10.656240 3.156250 12.718750 3.156250 C14.781260 3.156250 16.463535 3.257811 17.765625 3.460938 C19.067715 3.664064 20.096350 3.953123 20.851562 4.328125 C21.606775 4.703127 22.182290 5.151039 22.578125 5.671875 C22.973960 6.192711 23.291665 6.776038 23.531250 7.421875 L22.859375 8.203125 C20.786448 7.755206 18.945321 7.427084 17.335938 7.218750 C15.726554 7.010416 14.187507 6.906250 12.718750 6.906250 C11.249993 6.906250 9.713550 7.010416 8.109375 7.218750 C6.505200 7.427084 4.661469 7.755206 2.578125 8.203125 Z M11.296875 5.812500 L14.140625 5.812500 C14.286459 5.812500 14.414062 5.757813 14.523438 5.648438 C14.632813 5.539062 14.687500 5.411459 14.687500 5.265625 L14.687500 4.750000 C14.687500 4.593749 14.632813 4.460938 14.523438 4.351562 C14.414062 4.242187 14.286459 4.187500 14.140625 4.187500 L11.296875 4.187500 C11.151041 4.187500 11.023438 4.242187 10.914062 4.351562 C10.804687 4.460938 10.750000 4.593749 10.750000 4.750000 L10.750000 5.265625 C10.750000 5.411459 10.804687 5.539062 10.914062 5.648438 C11.023438 5.757813 11.151041 5.812500 11.296875 5.812500 Z M9.781250 3.343750 C9.572916 3.343750 9.468750 3.229168 9.468750 3.000000 C9.468750 2.770832 9.572916 2.656250 9.781250 2.656250 L15.656250 2.656250 C15.864584 2.656250 15.968750 2.770832 15.968750 3.000000 C15.968750 3.229168 15.864584 3.343750 15.656250 3.343750 Z M10.390625 3.796875 L9.921875 0.546875 L11.015625 0.421875 L11.500000 3.796875 Z M9.218750 2.062500 L8.203125 1.250000 C8.536460 0.822915 8.856769 0.507814 9.164062 0.304688 C9.471356 0.101561 9.776040 -0.000000 10.078125 -0.000000 L15.359375 -0.000000 C15.661460 -0.000000 15.966144 0.101561 16.273438 0.304688 C16.580731 0.507814 16.901040 0.822915 17.234375 1.250000 L16.218750 2.062500 C16.093749 1.864582 15.955730 1.705730 15.804688 1.585938 C15.653645 1.466145 15.505209 1.406250 15.359375 1.406250 L10.078125 1.406250 C9.942708 1.406250 9.796876 1.466145 9.640625 1.585938 C9.484374 1.705730 9.343751 1.864582 9.218750 2.062500 Z M14.093750 3.796875 L14.578125 0.421875 L15.671875 0.546875 L15.203125 3.796875 Z M32.875000 32.812500 L32.875000 6.937500 C33.208335 6.854166 33.520832 6.812500 33.812500 6.812500 C34.104168 6.812500 34.416665 6.854166 34.750000 6.937500 L34.750000 32.812500 Z M24.671875 13.796875 L24.671875 6.859375 L31.468750 6.859375 L31.468750 13.796875 Z M25.921875 12.390625 L30.218750 12.390625 L30.218750 8.109375 L25.921875 8.109375 Z M25.296875 10.640625 L25.296875 9.546875 L30.843750 9.546875 L30.843750 10.640625 Z M30.937500 12.625000 L30.937500 11.218750 L33.140625 11.218750 L33.140625 12.625000 Z M30.937500 9.500000 L30.937500 8.093750 L33.140625 8.093750 L33.140625 9.500000 Z M37.687500 27.343750" /></svg>