<svg version="1.1" xmlns="http://www.w3.org/2000/svg" style="fill:rgba(0,0,0,1.0)" width="256" height="256" viewBox="0 0 36.71875 32.8125"><path fill="rgb(255, 255, 255)" d="M25.281250 32.812500 L0.000000 7.515625 L7.531250 -0.000000 L32.812500 25.296875 Z M25.281250 30.171875 L30.171875 25.296875 L7.531250 2.640625 L2.640625 7.515625 Z M8.890625 6.640625 L7.921875 5.671875 L9.453125 4.125000 L10.421875 5.093750 Z M10.546875 9.750000 L9.406250 8.593750 L11.765625 6.234375 L12.906250 7.390625 Z M13.500000 11.218750 L12.484375 10.265625 L14.046875 8.718750 L15.015625 9.703125 Z M15.140625 14.328125 L14.000000 13.171875 L16.359375 10.812500 L17.500000 11.968750 Z M18.078125 15.828125 L17.109375 14.859375 L18.640625 13.312500 L19.625000 14.281250 Z M19.734375 18.953125 L18.593750 17.781250 L20.937500 15.421875 L22.093750 16.562500 Z M22.671875 20.406250 L21.703125 19.437500 L23.234375 17.921875 L24.203125 18.875000 Z M24.343750 23.515625 L23.171875 22.375000 L25.546875 20.031250 L26.718750 21.171875 Z M27.265625 25.031250 L26.296875 24.031250 L27.828125 22.500000 L28.796875 23.468750 Z M36.718750 27.343750" /></svg>