<svg version="1.1" xmlns="http://www.w3.org/2000/svg" style="fill:rgba(0,0,0,1.0)" width="256" height="256" viewBox="0 0 36.71875 32.8125"><path fill="rgb(255, 255, 255)" d="M2.593750 32.812500 C1.843746 32.812500 1.223961 32.570315 0.734375 32.085938 C0.244789 31.601560 0.000000 30.989587 0.000000 30.250000 L0.000000 2.578125 C0.000000 1.828121 0.242185 1.210940 0.726562 0.726562 C1.210940 0.242185 1.828121 -0.000000 2.578125 -0.000000 L30.234375 -0.000000 C30.984379 -0.000000 31.601560 0.242185 32.085938 0.726562 C32.570315 1.210940 32.812500 1.828121 32.812500 2.578125 L32.812500 30.234375 C32.812500 30.984379 32.570315 31.601560 32.085938 32.085938 C31.601560 32.570315 30.984379 32.812500 30.234375 32.812500 Z M2.750000 31.250000 L30.062500 31.250000 C30.385418 31.250000 30.664061 31.135418 30.898438 30.906250 C31.132814 30.677082 31.250000 30.406252 31.250000 30.093750 L31.250000 2.734375 C31.250000 2.421873 31.132814 2.148439 30.898438 1.914062 C30.664061 1.679686 30.390627 1.562500 30.078125 1.562500 L2.734375 1.562500 C2.421873 1.562500 2.148439 1.679686 1.914062 1.914062 C1.679686 2.148439 1.562500 2.421873 1.562500 2.734375 L1.562500 30.093750 C1.562500 30.406252 1.679686 30.677082 1.914062 30.906250 C2.148439 31.135418 2.427082 31.250000 2.750000 31.250000 Z M16.812500 27.734375 L12.203125 22.312500 C11.765623 21.791664 11.395835 21.416668 11.093750 21.187500 C10.791665 20.958332 10.500001 20.843750 10.218750 20.843750 C9.916665 20.843750 9.531252 20.989582 9.062500 21.281250 C8.229162 19.999994 7.533857 19.057295 6.976562 18.453125 C6.419268 17.848955 5.927085 17.546875 5.500000 17.546875 C5.052081 17.546875 4.484378 17.901038 3.796875 18.609375 C3.109372 19.317712 2.208339 20.541658 1.093750 22.281250 L0.781250 20.062500 C1.416670 19.041662 1.984372 18.234378 2.484375 17.640625 C2.984378 17.046872 3.473956 16.622397 3.953125 16.367188 C4.432294 16.111978 4.947914 15.984375 5.500000 15.984375 C5.947919 15.984375 6.359373 16.078124 6.734375 16.265625 C7.109377 16.453126 7.515623 16.796872 7.953125 17.296875 C8.390627 17.796878 8.921872 18.515620 9.546875 19.453125 C9.880210 19.286457 10.208332 19.203125 10.531250 19.203125 C11.052086 19.203125 11.531248 19.398436 11.968750 19.789062 C12.406252 20.179689 12.848956 20.651039 13.296875 21.203125 L16.890625 25.609375 L19.156250 23.453125 C20.166672 22.484370 21.210932 21.552088 22.289062 20.656250 C23.367193 19.760412 24.411453 19.026045 25.421875 18.453125 C26.432297 17.880205 27.333329 17.593750 28.125000 17.593750 C28.614586 17.593750 29.013019 17.697916 29.320312 17.906250 C29.627606 18.114584 29.903645 18.369790 30.148438 18.671875 C30.393230 18.973960 30.658853 19.276040 30.945312 19.578125 C31.231772 19.880210 31.593748 20.119791 32.031250 20.296875 L32.031250 21.921875 C31.437497 21.703124 30.963543 21.437502 30.609375 21.125000 C30.255207 20.812498 29.955730 20.505210 29.710938 20.203125 C29.466145 19.901040 29.213543 19.651043 28.953125 19.453125 C28.692707 19.255207 28.364585 19.156250 27.968750 19.156250 C27.374997 19.156250 26.666671 19.395831 25.843750 19.875000 C25.020829 20.354169 24.122401 20.999996 23.148438 21.812500 C22.174474 22.625004 21.166672 23.536453 20.125000 24.546875 Z M10.640625 18.234375 L0.781250 10.578125 L0.781250 6.890625 L10.968750 17.750000 C10.843749 17.916668 10.734375 18.078124 10.640625 18.234375 Z M12.046875 16.578125 L0.953125 2.515625 L0.953125 2.250000 C0.953125 1.843748 1.138019 1.497397 1.507812 1.210938 C1.877606 0.924478 2.291664 0.781250 2.750000 0.781250 L3.421875 0.781250 L12.578125 16.156250 C12.494791 16.218750 12.406250 16.283854 12.312500 16.351562 C12.218750 16.419271 12.130209 16.494791 12.046875 16.578125 Z M13.765625 15.437500 L7.125000 0.781250 L9.984375 0.781250 L14.343750 15.187500 C14.239583 15.229167 14.138021 15.270833 14.039062 15.312500 C13.940104 15.354167 13.848959 15.395833 13.765625 15.437500 Z M15.640625 14.828125 L12.953125 0.781250 L15.718750 0.781250 L16.281250 14.734375 C16.177083 14.744792 16.072917 14.757812 15.968750 14.773438 C15.864583 14.789063 15.755209 14.807292 15.640625 14.828125 Z M18.250000 14.812500 C18.156250 14.791667 18.062500 14.776042 17.968750 14.765625 C17.875000 14.755208 17.781250 14.744792 17.687500 14.734375 L18.578125 0.781250 L21.265625 0.781250 Z M23.328125 18.250000 C23.255208 18.124999 23.182292 18.010417 23.109375 17.906250 C23.036458 17.802083 22.958334 17.697917 22.875000 17.593750 L32.031250 8.250000 L32.031250 11.359375 Z M20.171875 15.421875 C19.963541 15.328125 19.781251 15.250000 19.625000 15.187500 L24.093750 0.781250 L26.859375 0.781250 Z M21.921875 16.578125 C21.734374 16.421874 21.552084 16.276042 21.375000 16.140625 L30.000000 0.781250 C30.604170 0.781250 31.093748 0.973956 31.468750 1.359375 C31.843752 1.744794 32.031250 2.208331 32.031250 2.750000 L32.031250 3.578125 Z M3.515625 31.578125 L0.937500 31.328125 L0.937500 24.812500 C1.343752 24.531249 1.710936 24.174481 2.039062 23.742188 C2.367189 23.309894 2.679686 22.880210 2.976562 22.453125 C3.273439 22.026040 3.572915 21.669272 3.875000 21.382812 C4.177085 21.096353 4.505207 20.953125 4.859375 20.953125 C5.119793 20.953125 5.250000 21.046874 5.250000 21.234375 C5.250000 21.442709 5.174480 21.760415 5.023438 22.187500 C4.872395 22.614585 4.765625 23.151038 4.703125 23.796875 C4.640625 24.494795 4.562500 25.242184 4.468750 26.039062 C4.375000 26.835941 4.276042 27.611975 4.171875 28.367188 C4.067708 29.122400 3.960938 29.786455 3.851562 30.359375 C3.742187 30.932295 3.630209 31.338540 3.515625 31.578125 Z M12.765625 21.125000 L11.453125 20.093750 C11.880210 18.979161 12.593745 18.062504 13.593750 17.343750 C14.593755 16.624996 15.723952 16.265625 16.984375 16.265625 C17.911463 16.265625 18.770829 16.463540 19.562500 16.859375 C20.354171 17.255210 21.026039 17.794267 21.578125 18.476562 C22.130211 19.158858 22.510416 19.932287 22.718750 20.796875 L21.296875 21.796875 C21.234375 21.057288 21.002606 20.388024 20.601562 19.789062 C20.200519 19.190101 19.684899 18.713543 19.054688 18.359375 C18.424476 18.005207 17.734379 17.828125 16.984375 17.828125 C15.973953 17.828125 15.075525 18.140622 14.289062 18.765625 C13.502600 19.390628 12.994793 20.177079 12.765625 21.125000 Z M13.984375 29.937500 C13.723957 29.937500 13.294274 29.778647 12.695312 29.460938 C12.096351 29.143228 11.505211 28.588546 10.921875 27.796875 C10.713541 27.505207 10.601563 27.111982 10.585938 26.617188 C10.570312 26.122393 10.473959 25.744793 10.296875 25.484375 C9.786456 24.682288 9.302086 24.026044 8.843750 23.515625 C8.385414 23.005206 8.156250 22.494794 8.156250 21.984375 C8.156250 21.807291 8.229166 21.718750 8.375000 21.718750 C8.750002 21.718750 9.132811 21.890623 9.523438 22.234375 C9.914064 22.578127 10.278644 22.994789 10.617188 23.484375 C10.955731 23.973961 11.236978 24.445310 11.460938 24.898438 C11.684897 25.351565 11.822916 25.687499 11.875000 25.906250 C12.083334 26.020834 12.317707 26.244790 12.578125 26.578125 C12.838543 26.911460 13.093749 27.283852 13.343750 27.695312 C13.593751 28.106773 13.799478 28.505206 13.960938 28.890625 C14.122397 29.276044 14.203125 29.583332 14.203125 29.812500 C14.203125 29.895834 14.130209 29.937500 13.984375 29.937500 Z M16.687500 31.328125 C16.427082 30.682288 16.151043 30.223960 15.859375 29.953125 C15.567707 29.682290 15.421875 29.375002 15.421875 29.031250 C15.421875 28.802082 15.531249 28.687500 15.750000 28.687500 C15.958334 28.687500 16.307289 28.828124 16.796875 29.109375 C17.286461 29.390626 17.729165 29.697915 18.125000 30.031250 C18.145833 29.937500 18.229166 29.703127 18.375000 29.328125 C18.520834 28.953123 18.684895 28.546877 18.867188 28.109375 C19.049480 27.671873 19.203124 27.312501 19.328125 27.031250 C19.411459 26.916666 19.559895 26.781251 19.773438 26.625000 C19.986980 26.468749 20.234374 26.291668 20.515625 26.093750 C20.796876 25.895832 21.083332 25.674480 21.375000 25.429688 C21.666668 25.184895 21.937499 24.916668 22.187500 24.625000 C22.708336 24.010414 23.143227 23.533856 23.492188 23.195312 C23.841148 22.856769 24.093749 22.687500 24.250000 22.687500 C24.437501 22.687500 24.531250 22.770832 24.531250 22.937500 C24.531250 23.125001 24.421876 23.351561 24.203125 23.617188 C23.984374 23.882814 23.729168 24.052083 23.437500 24.125000 C23.322916 24.781253 23.145835 25.273436 22.906250 25.601562 C22.666665 25.929689 22.411460 26.192707 22.140625 26.390625 C21.869790 26.588543 21.625001 26.828124 21.406250 27.109375 C21.208332 27.359376 20.981772 27.734372 20.726562 28.234375 C20.471353 28.734378 20.286459 29.145832 20.171875 29.468750 C20.005208 29.916669 19.817709 30.273436 19.609375 30.539062 C19.401041 30.804689 19.156251 31.067707 18.875000 31.328125 Z M31.000000 32.187500 C30.874999 31.739581 30.736980 31.088546 30.585938 30.234375 C30.434895 29.380204 30.289063 28.460942 30.148438 27.476562 C30.007812 26.492183 29.880209 25.578129 29.765625 24.734375 C29.682291 24.088538 29.570313 23.552085 29.429688 23.125000 C29.289062 22.697915 29.218750 22.380209 29.218750 22.171875 C29.218750 21.984374 29.348957 21.890625 29.609375 21.890625 C30.005210 21.890625 30.341144 22.070311 30.617188 22.429688 C30.893231 22.789064 31.164061 23.218748 31.429688 23.718750 C31.695314 24.218752 32.010415 24.682290 32.375000 25.109375 L32.187500 30.781250 Z M36.718750 27.343750" /></svg>