<svg version="1.1" xmlns="http://www.w3.org/2000/svg" style="fill:rgba(0,0,0,1.0)" width="256" height="256" viewBox="0 0 37.546875 30.78125"><path fill="rgb(255, 255, 255)" d="M2.750000 30.781250 C2.249998 30.781250 1.791669 30.664064 1.375000 30.429688 C0.958331 30.195311 0.625001 29.903648 0.375000 29.554688 C0.124999 29.205727 0.000000 28.864585 0.000000 28.531250 L0.000000 14.890625 L11.062500 14.890625 L11.062500 24.687500 L12.156250 24.687500 L12.156250 13.625000 L11.531250 13.625000 L11.531250 11.281250 L12.156250 11.281250 L12.156250 6.937500 L12.781250 6.937500 L13.875000 3.500000 L16.656250 3.500000 L17.750000 6.937500 L18.375000 6.937500 L18.375000 11.281250 L19.000000 11.281250 L19.000000 13.625000 L18.375000 13.625000 L18.375000 24.687500 L19.000000 24.687500 L19.000000 14.500000 L20.437500 14.500000 L20.437500 12.531250 L21.843750 12.531250 L21.843750 10.812500 L24.906250 10.812500 L24.906250 12.531250 L26.312500 12.531250 L26.312500 14.500000 L27.750000 14.500000 L27.750000 21.609375 L32.437500 21.609375 L32.437500 10.921875 L34.468750 10.921875 L34.468750 28.062500 C34.468750 28.802087 34.197919 29.440101 33.656250 29.976562 C33.114581 30.513024 32.468754 30.781250 31.718750 30.781250 L26.812500 30.781250 L26.812500 15.437500 L25.375000 15.437500 L25.375000 13.468750 L23.968750 13.468750 L23.968750 11.750000 L22.781250 11.750000 L22.781250 13.468750 L21.375000 13.468750 L21.375000 15.437500 L19.937500 15.437500 L19.937500 30.781250 Z M1.250000 27.234375 L9.812500 27.234375 L9.812500 26.453125 L1.250000 26.453125 Z M1.250000 24.734375 L9.812500 24.734375 L9.812500 23.953125 L1.250000 23.953125 Z M1.250000 22.234375 L9.812500 22.234375 L9.812500 21.453125 L1.250000 21.453125 Z M1.250000 19.734375 L9.812500 19.734375 L9.812500 18.953125 L1.250000 18.953125 Z M1.250000 17.234375 L9.812500 17.234375 L9.812500 16.453125 L1.250000 16.453125 Z M2.187500 13.796875 L2.187500 12.546875 L3.125000 12.546875 L3.125000 13.796875 Z M13.406250 23.437500 L14.656250 23.437500 L14.656250 22.187500 L13.406250 22.187500 Z M2.187500 11.296875 L2.187500 10.046875 L3.125000 10.046875 L3.125000 11.296875 Z M0.000000 15.593750 L0.000000 3.015625 L5.312500 3.015625 L5.312500 15.593750 L4.375000 15.593750 L4.375000 3.953125 L0.937500 3.953125 L0.937500 15.593750 Z M15.875000 23.437500 L17.125000 23.437500 L17.125000 22.187500 L15.875000 22.187500 Z M21.031250 28.031250 L21.031250 27.093750 L21.656250 27.093750 L21.656250 28.031250 Z M13.406250 20.781250 L14.656250 20.781250 L14.656250 19.531250 L13.406250 19.531250 Z M2.187500 8.796875 L2.187500 7.546875 L3.125000 7.546875 L3.125000 8.796875 Z M23.062500 28.031250 L23.062500 27.093750 L23.687500 27.093750 L23.687500 28.031250 Z M21.031250 25.531250 L21.031250 24.593750 L21.656250 24.593750 L21.656250 25.531250 Z M15.875000 20.781250 L17.125000 20.781250 L17.125000 19.531250 L15.875000 19.531250 Z M13.406250 18.125000 L14.656250 18.125000 L14.656250 16.875000 L13.406250 16.875000 Z M2.187500 6.296875 L2.187500 5.046875 L3.125000 5.046875 L3.125000 6.296875 Z M25.093750 28.031250 L25.093750 27.093750 L25.718750 27.093750 L25.718750 28.031250 Z M23.062500 25.531250 L23.062500 24.593750 L23.687500 24.593750 L23.687500 25.531250 Z M8.718750 11.718750 L8.718750 9.531250 L9.500000 9.531250 L9.500000 11.718750 Z M21.031250 23.031250 L21.031250 22.093750 L21.656250 22.093750 L21.656250 23.031250 Z M15.875000 18.125000 L17.125000 18.125000 L17.125000 16.875000 L15.875000 16.875000 Z M13.406250 15.468750 L14.656250 15.468750 L14.656250 14.218750 L13.406250 14.218750 Z M17.765625 19.281250 L17.765625 18.343750 L19.703125 18.343750 L19.703125 19.281250 Z M10.437500 11.718750 L10.437500 9.531250 L11.218750 9.531250 L11.218750 11.718750 Z M25.093750 25.531250 L25.093750 24.593750 L25.718750 24.593750 L25.718750 25.531250 Z M23.062500 23.031250 L23.062500 22.093750 L23.687500 22.093750 L23.687500 23.031250 Z M21.031250 20.531250 L21.031250 19.593750 L21.656250 19.593750 L21.656250 20.531250 Z M15.875000 15.468750 L17.125000 15.468750 L17.125000 14.218750 L15.875000 14.218750 Z M8.718750 8.125000 L8.718750 5.937500 L9.500000 5.937500 L9.500000 8.125000 Z M25.093750 23.031250 L25.093750 22.093750 L25.718750 22.093750 L25.718750 23.031250 Z M23.062500 20.531250 L23.062500 19.593750 L23.687500 19.593750 L23.687500 20.531250 Z M10.437500 8.125000 L10.437500 5.937500 L11.218750 5.937500 L11.218750 8.125000 Z M6.687500 15.562500 L6.687500 -0.000000 L16.687500 -0.000000 L16.687500 4.812500 L15.750000 4.812500 L15.750000 0.937500 L7.625000 0.937500 L7.625000 15.562500 Z M25.093750 20.531250 L25.093750 19.593750 L25.718750 19.593750 L25.718750 20.531250 Z M12.156250 8.125000 L12.156250 5.937500 L12.937500 5.937500 L12.937500 8.125000 Z M8.718750 4.531250 L8.718750 2.343750 L9.500000 2.343750 L9.500000 4.531250 Z M14.343750 10.625000 L16.187500 10.625000 L16.187500 8.843750 C16.187500 8.510415 16.101563 8.239584 15.929688 8.031250 C15.757812 7.822916 15.536460 7.718750 15.265625 7.718750 C14.994790 7.718750 14.773438 7.822916 14.601562 8.031250 C14.429687 8.239584 14.343750 8.510415 14.343750 8.843750 Z M21.812500 16.906250 L21.812500 14.406250 L22.437500 14.406250 L22.437500 16.906250 Z M10.437500 4.531250 L10.437500 2.343750 L11.218750 2.343750 L11.218750 4.531250 Z M23.062500 16.906250 L23.062500 14.406250 L23.687500 14.406250 L23.687500 16.906250 Z M24.312500 16.906250 L24.312500 14.406250 L24.937500 14.406250 L24.937500 16.906250 Z M12.156250 4.531250 L12.156250 2.343750 L12.937500 2.343750 L12.937500 4.531250 Z M13.875000 4.531250 L13.875000 2.343750 L14.656250 2.343750 L14.656250 4.531250 Z M30.406250 20.515625 L30.406250 19.265625 L31.343750 19.265625 L31.343750 20.515625 Z M27.312500 15.906250 L27.312500 14.968750 C27.854169 14.968750 28.380206 14.822918 28.890625 14.531250 L28.890625 15.562500 C28.651040 15.666667 28.398439 15.750000 28.132812 15.812500 C27.867186 15.875000 27.593751 15.906250 27.312500 15.906250 Z M30.406250 18.328125 L30.406250 17.078125 L31.343750 17.078125 L31.343750 18.328125 Z M27.140625 19.281250 L27.140625 18.343750 L28.375000 18.343750 L28.375000 12.890625 L32.593750 12.890625 L32.593750 13.796875 L29.312500 13.796875 L29.312500 19.281250 Z M30.406250 16.140625 L30.406250 14.890625 L31.343750 14.890625 L31.343750 16.140625 Z M30.218750 13.281250 C30.583335 12.687497 30.765625 12.052087 30.765625 11.375000 C30.765625 10.708330 30.604168 10.104169 30.281250 9.562500 C29.958332 9.020831 29.526044 8.588543 28.984375 8.265625 C28.442706 7.942707 27.838545 7.781250 27.171875 7.781250 C26.505205 7.781250 25.898440 7.942707 25.351562 8.265625 C24.804685 8.588543 24.369793 9.020831 24.046875 9.562500 C23.723957 10.104169 23.562500 10.708330 23.562500 11.375000 C23.562500 11.395833 23.562500 11.419271 23.562500 11.445312 C23.562500 11.471354 23.562500 11.494792 23.562500 11.515625 L22.625000 11.515625 C22.625000 11.494792 22.625000 11.471354 22.625000 11.445312 C22.625000 11.419271 22.625000 11.395833 22.625000 11.375000 C22.625000 10.541663 22.828123 9.781253 23.234375 9.093750 C23.640627 8.406247 24.190101 7.859377 24.882812 7.453125 C25.575524 7.046873 26.338538 6.843750 27.171875 6.843750 C28.005212 6.843750 28.765622 7.046873 29.453125 7.453125 C30.140628 7.859377 30.687498 8.406247 31.093750 9.093750 C31.500002 9.781253 31.703125 10.541663 31.703125 11.375000 C31.703125 12.031253 31.562501 12.666664 31.281250 13.281250 Z M37.546875 25.312500" /></svg>