<svg version="1.1" xmlns="http://www.w3.org/2000/svg" style="fill:rgba(0,0,0,1.0)" width="256" height="256" viewBox="0 0 36.328125 32.8125"><path fill="rgb(255, 255, 255)" d="M24.781250 16.703125 C23.218742 16.703125 21.846360 16.406253 20.664062 15.812500 C19.481765 15.218747 18.445317 14.458338 17.554688 13.531250 C16.664058 12.604162 15.869795 11.640630 15.171875 10.640625 C14.578122 9.776037 13.963545 8.937504 13.328125 8.125000 C12.692705 7.312496 11.966150 6.505212 11.148438 5.703125 C10.330725 4.901038 9.359381 4.093754 8.234375 3.281250 C9.317714 2.614580 10.544264 2.036461 11.914062 1.546875 C13.283861 1.057289 14.713534 0.677085 16.203125 0.406250 C17.692716 0.135415 19.161451 -0.000000 20.609375 -0.000000 C22.265633 -0.000000 23.789056 0.234373 25.179688 0.703125 C26.570319 1.171877 27.778641 1.833329 28.804688 2.687500 C29.830734 3.541671 30.624997 4.544265 31.187500 5.695312 C31.750003 6.846360 32.031250 8.109368 32.031250 9.484375 C32.031250 10.911465 31.716149 12.166661 31.085938 13.250000 C30.455726 14.333339 29.596360 15.179684 28.507812 15.789062 C27.419265 16.398441 26.177090 16.703125 24.781250 16.703125 Z M7.531250 30.218750 C8.875007 30.218750 10.018224 29.934899 10.960938 29.367188 C11.903651 28.799476 12.619789 28.000005 13.109375 26.968750 C13.598961 25.937495 13.843750 24.723965 13.843750 23.328125 C13.843750 22.369787 13.692710 21.416671 13.390625 20.468750 C13.088540 19.520829 12.687502 18.593755 12.187500 17.687500 C11.687498 16.781245 11.130211 15.916671 10.515625 15.093750 C9.901039 14.270829 9.273441 13.507816 8.632812 12.804688 C7.992184 12.101559 7.385420 11.473961 6.812500 10.921875 C6.687499 11.963547 6.432294 13.013016 6.046875 14.070312 C5.661456 15.127609 5.098962 16.333327 4.359375 17.687500 C3.744789 18.812506 3.177086 19.971348 2.656250 21.164062 C2.135414 22.356777 1.875000 23.526036 1.875000 24.671875 C1.875000 26.401050 2.398432 27.757808 3.445312 28.742188 C4.492193 29.726567 5.854158 30.218750 7.531250 30.218750 Z M7.531250 32.093750 C6.062493 32.093750 4.763026 31.786461 3.632812 31.171875 C2.502599 30.557289 1.614587 29.695318 0.968750 28.585938 C0.322913 27.476557 0.000000 26.171882 0.000000 24.671875 C0.000000 23.744787 0.143228 22.820317 0.429688 21.898438 C0.716147 20.976558 1.067706 20.083338 1.484375 19.218750 C1.901044 18.354162 2.312498 17.552087 2.718750 16.812500 C3.593754 15.208325 4.239581 13.614591 4.656250 12.031250 C5.072919 10.447909 5.281250 8.802092 5.281250 7.093750 C5.395834 7.177084 5.726560 7.450519 6.273438 7.914062 C6.820315 8.377606 7.489579 8.994788 8.281250 9.765625 C9.072921 10.536462 9.898433 11.424474 10.757812 12.429688 C11.617192 13.434901 12.421871 14.528640 13.171875 15.710938 C13.921879 16.893235 14.533852 18.127598 15.007812 19.414062 C15.481773 20.700527 15.718750 22.005202 15.718750 23.328125 C15.718750 25.067717 15.388024 26.596348 14.726562 27.914062 C14.065101 29.231777 13.122402 30.257809 11.898438 30.992188 C10.674473 31.726566 9.218758 32.093750 7.531250 32.093750 Z M10.703125 25.187500 C10.380207 25.187500 10.130209 25.104168 9.953125 24.937500 C9.776041 24.770832 9.692708 24.520835 9.703125 24.187500 C9.744792 23.510413 9.734375 22.846357 9.671875 22.195312 C9.609375 21.544268 9.552084 20.963544 9.500000 20.453125 C9.468750 20.161457 9.523437 19.895835 9.664062 19.656250 C9.804688 19.416665 10.098956 19.296875 10.546875 19.296875 C11.046877 19.296875 11.333333 19.562497 11.406250 20.093750 C11.479167 20.604169 11.536458 21.252600 11.578125 22.039062 C11.619792 22.825525 11.619792 23.567705 11.578125 24.265625 C11.567708 24.536460 11.479168 24.757812 11.312500 24.929688 C11.145833 25.101563 10.942710 25.187500 10.703125 25.187500 Z M26.390625 32.812500 C25.182286 32.812500 24.164067 32.575523 23.335938 32.101562 C22.507808 31.627602 21.825524 30.994796 21.289062 30.203125 C20.752601 29.411454 20.325522 28.533859 20.007812 27.570312 C19.690103 26.606766 19.442709 25.640630 19.265625 24.671875 C19.130208 23.942705 18.963543 23.179691 18.765625 22.382812 C18.567707 21.585934 18.325522 20.765629 18.039062 19.921875 C17.752603 19.078121 17.406252 18.234379 17.000000 17.390625 C20.156266 17.453125 22.851551 17.898433 25.085938 18.726562 C27.320324 19.554692 29.028640 20.682285 30.210938 22.109375 C31.393235 23.536465 31.984375 25.187491 31.984375 27.062500 C31.984375 28.166672 31.757815 29.151037 31.304688 30.015625 C30.851560 30.880213 30.208338 31.562498 29.375000 32.062500 C28.541662 32.562502 27.546881 32.812500 26.390625 32.812500 Z M26.390625 30.937500 C27.609381 30.937500 28.533851 30.575524 29.164062 29.851562 C29.794274 29.127601 30.109375 28.197922 30.109375 27.062500 C30.109375 25.739577 29.684900 24.546880 28.835938 23.484375 C27.986975 22.421870 26.789070 21.539066 25.242188 20.835938 C23.695305 20.132809 21.869802 19.671876 19.765625 19.453125 C19.963543 19.953128 20.143228 20.468747 20.304688 21.000000 C20.466147 21.531253 20.611979 22.067706 20.742188 22.609375 C20.872396 23.151044 20.989583 23.692706 21.093750 24.234375 C21.281251 25.182296 21.499999 26.062496 21.750000 26.875000 C22.000001 27.687504 22.322915 28.398434 22.718750 29.007812 C23.114585 29.617191 23.609372 30.091144 24.203125 30.429688 C24.796878 30.768231 25.526037 30.937500 26.390625 30.937500 Z M27.406250 26.593750 C27.177082 26.687500 26.960939 26.687500 26.757812 26.593750 C26.554686 26.500000 26.390626 26.348959 26.265625 26.140625 C26.067707 25.786457 25.825522 25.408856 25.539062 25.007812 C25.252603 24.606769 24.984376 24.260418 24.734375 23.968750 C24.390623 23.562498 24.354165 23.182293 24.625000 22.828125 C24.791668 22.609374 25.013019 22.468750 25.289062 22.406250 C25.565106 22.343750 25.817707 22.421874 26.046875 22.640625 C26.328126 22.911460 26.651040 23.289060 27.015625 23.773438 C27.380210 24.257815 27.661457 24.692706 27.859375 25.078125 C28.244794 25.807295 28.093753 26.312499 27.406250 26.593750 Z M24.781250 14.828125 C26.354175 14.828125 27.643224 14.341151 28.648438 13.367188 C29.653651 12.393224 30.156250 11.098966 30.156250 9.484375 C30.156250 8.005201 29.750004 6.695318 28.937500 5.554688 C28.124996 4.414057 27.000007 3.515628 25.562500 2.859375 C24.124993 2.203122 22.473968 1.875000 20.609375 1.875000 C19.078117 1.875000 17.554695 2.033853 16.039062 2.351562 C14.523430 2.669272 13.067715 3.104164 11.671875 3.656250 C12.755214 4.645838 13.700517 5.627599 14.507812 6.601562 C15.315108 7.575526 16.036455 8.546870 16.671875 9.515625 C17.338545 10.515630 18.054684 11.416663 18.820312 12.218750 C19.585941 13.020837 20.453120 13.656248 21.421875 14.125000 C22.390630 14.593752 23.510410 14.828125 24.781250 14.828125 Z M25.468750 6.906250 C24.937497 6.572915 24.328128 6.265626 23.640625 5.984375 C22.953122 5.703124 22.333336 5.500001 21.781250 5.375000 C21.520832 5.312500 21.315105 5.179689 21.164062 4.976562 C21.013020 4.773436 20.958333 4.541668 21.000000 4.281250 C21.041667 4.020832 21.151041 3.812501 21.328125 3.656250 C21.505209 3.499999 21.755207 3.447916 22.078125 3.500000 C22.703128 3.593750 23.445308 3.812498 24.304688 4.156250 C25.164067 4.500002 25.942705 4.906248 26.640625 5.375000 C26.859376 5.520834 26.976562 5.708332 26.992188 5.937500 C27.007813 6.166668 26.958334 6.401040 26.843750 6.640625 C26.708333 6.901043 26.507814 7.049479 26.242188 7.085938 C25.976561 7.122396 25.718751 7.062501 25.468750 6.906250 Z M36.328125 27.343750" /></svg>