<svg version="1.1" xmlns="http://www.w3.org/2000/svg" style="fill:rgba(0,0,0,1.0)" width="256" height="256" viewBox="0 0 35.490466564559235 29.693591564559235"><path fill="rgb(255, 255, 255)" d="M15.750000 24.318592 C15.531249 24.214424 15.122399 23.914948 14.523438 23.420154 C13.924476 22.925360 13.242191 22.326408 12.476562 21.623279 C11.710934 20.920151 10.958337 20.204012 10.218750 19.474842 C9.489580 18.735255 8.773441 17.982658 8.070312 17.217029 C7.367184 16.451400 6.768232 15.769115 6.273438 15.170154 C5.778643 14.571193 5.479167 14.162343 5.375000 13.943592 L6.671875 12.662342 C6.953126 12.391507 7.364581 12.237863 7.906250 12.201404 C8.447919 12.164946 9.104163 12.250882 9.875000 12.459217 L20.578125 1.756092 L27.937500 9.115467 L17.234375 19.818592 C17.442709 20.589429 17.528646 21.245672 17.492188 21.787342 C17.455729 22.329011 17.302085 22.740465 17.031250 23.021717 Z M6.671875 29.537342 C6.567708 29.641509 6.320314 29.592030 5.929688 29.388904 C5.539061 29.185778 5.070315 28.862865 4.523438 28.420154 C3.976560 27.977444 3.406253 27.464428 2.812500 26.881092 C2.229164 26.287339 1.716148 25.717032 1.273438 25.170154 C0.830727 24.623276 0.507814 24.154531 0.304688 23.763904 C0.101561 23.373277 0.052083 23.125884 0.156250 23.021717 L0.953125 22.224842 C1.067709 22.110258 1.320311 22.159736 1.710938 22.373279 C2.101564 22.586822 2.572914 22.912339 3.125000 23.349842 C3.677086 23.787344 4.239580 24.297755 4.812500 24.881092 C5.385420 25.454011 5.893227 26.016505 6.335938 26.568592 C6.778648 27.120678 7.106770 27.592027 7.320312 27.982654 C7.533855 28.373281 7.583334 28.625883 7.468750 28.740467 Z M5.687500 28.724842 L0.968750 24.006092 L8.968750 16.006092 L13.687500 20.724842 Z M5.484375 26.318592 L11.500000 20.302967 L9.390625 18.193592 L3.375000 24.209217 Z M14.625000 16.896717 L17.421875 14.131092 L15.593750 12.302967 L12.796875 15.068592 C13.015626 15.256093 13.229166 15.448799 13.437500 15.646717 C13.645834 15.844634 13.848957 16.047757 14.046875 16.256092 C14.244793 16.464426 14.437499 16.677965 14.625000 16.896717 Z M14.562500 18.287342 C14.270832 17.912340 13.953127 17.537343 13.609375 17.162342 C13.265623 16.787340 12.906252 16.427968 12.531250 16.084217 C12.156248 15.740465 11.781252 15.422760 11.406250 15.131092 L16.437500 10.099842 L19.593750 13.256092 Z M15.578125 22.052967 C15.817710 21.813382 15.914063 21.422761 15.867188 20.881092 C15.820312 20.339422 15.635418 19.756095 15.312500 19.131092 L25.437500 9.006092 L20.671875 4.271717 L10.546875 14.396717 C9.921872 14.073798 9.341149 13.886300 8.804688 13.834217 C8.268226 13.782133 7.880210 13.875882 7.640625 14.115467 C7.880210 14.417551 8.197915 14.797756 8.593750 15.256092 C8.989585 15.714427 9.432289 16.204006 9.921875 16.724842 C10.411461 17.245678 10.911456 17.761297 11.421875 18.271717 C11.932294 18.771719 12.447914 19.269110 12.968750 19.763904 C13.489586 20.258698 13.979164 20.704006 14.437500 21.099842 C14.895836 21.495677 15.276040 21.813382 15.578125 22.052967 Z M24.703125 6.693592 L23.000000 4.990467 L24.281250 3.709217 C25.020837 2.969630 25.671872 2.886297 26.234375 3.459217 C26.796878 4.032136 26.713545 4.683171 25.984375 5.412342 Z M25.828125 4.709217 L24.984375 3.865467 L28.953125 -0.103283 L30.546875 -0.103283 Z M35.593750 25.677967" /></svg>