<svg version="1.1" xmlns="http://www.w3.org/2000/svg" style="fill:rgba(0,0,0,1.0)" width="256" height="256" viewBox="0 0 34.453125 32.8125"><path fill="rgb(255, 255, 255)" d="M5.031250 32.812500 C4.854166 32.812500 4.666668 32.773438 4.468750 32.695312 C4.270832 32.617187 4.057293 32.494792 3.828125 32.328125 L0.796875 30.125000 C0.265622 29.729165 0.000000 29.291669 0.000000 28.812500 C0.000000 28.416665 0.177082 27.994794 0.531250 27.546875 L4.500000 22.375000 C4.927085 21.822914 5.236978 21.354169 5.429688 20.968750 C5.622397 20.583331 5.718750 20.218752 5.718750 19.875000 C5.718750 19.677082 5.684896 19.463543 5.617188 19.234375 C5.549479 19.005207 5.458334 18.760418 5.343750 18.500000 L4.734375 17.171875 C4.380207 16.401038 4.158855 15.705732 4.070312 15.085938 C3.981770 14.466143 3.937500 13.916669 3.937500 13.437500 C3.937500 12.197910 4.151040 11.023443 4.578125 9.914062 C5.005210 8.804682 5.567705 7.750005 6.265625 6.750000 L7.578125 8.156250 C7.057289 8.947921 6.632814 9.781246 6.304688 10.656250 C5.976561 11.531254 5.812500 12.463537 5.812500 13.453125 C5.812500 13.828127 5.861979 14.294268 5.960938 14.851562 C6.059896 15.408857 6.270832 16.036455 6.593750 16.734375 L7.203125 18.062500 C7.515627 18.729170 7.671875 19.359372 7.671875 19.953125 C7.671875 20.526045 7.523439 21.088539 7.226562 21.640625 C6.929686 22.192711 6.515628 22.817705 5.984375 23.515625 L2.421875 28.171875 C2.276041 28.369793 2.203125 28.520833 2.203125 28.625000 C2.203125 28.760417 2.317707 28.911458 2.546875 29.078125 L4.390625 30.437500 C4.557292 30.552084 4.692708 30.609375 4.796875 30.609375 C4.953126 30.609375 5.109374 30.510418 5.265625 30.312500 L8.812500 25.718750 C9.270836 25.124997 9.713540 24.601565 10.140625 24.148438 C10.567710 23.695310 11.070310 23.341147 11.648438 23.085938 C12.226565 22.830728 12.963537 22.703125 13.859375 22.703125 C13.973959 22.703125 14.091145 22.705729 14.210938 22.710938 C14.330730 22.716146 14.453124 22.723958 14.578125 22.734375 L16.328125 22.859375 C16.401042 22.869792 16.471354 22.875000 16.539062 22.875000 C16.606771 22.875000 16.677083 22.875000 16.750000 22.875000 C17.802089 22.875000 18.807287 22.630211 19.765625 22.140625 C20.723963 21.651039 21.606767 20.984379 22.414062 20.140625 C23.221358 19.296871 23.921872 18.343755 24.515625 17.281250 C25.109378 16.218745 25.572915 15.111985 25.906250 13.960938 C26.239585 12.809890 26.406250 11.682297 26.406250 10.578125 C26.406250 9.942705 26.343751 9.325524 26.218750 8.726562 C26.093749 8.127601 25.895835 7.541670 25.625000 6.968750 C25.114581 5.885411 24.429692 4.968754 23.570312 4.218750 C22.710933 3.468746 21.752609 2.895835 20.695312 2.500000 C19.638016 2.104165 18.546881 1.906250 17.421875 1.906250 C16.192702 1.906250 15.036464 2.135414 13.953125 2.593750 L12.734375 1.046875 C13.484379 0.692707 14.252600 0.429688 15.039062 0.257812 C15.825525 0.085937 16.614579 -0.000000 17.406250 -0.000000 C18.760423 -0.000000 20.075514 0.239581 21.351562 0.718750 C22.627611 1.197919 23.781245 1.895829 24.812500 2.812500 C25.843755 3.729171 26.677080 4.843743 27.312500 6.156250 C27.645835 6.854170 27.890624 7.575517 28.046875 8.320312 C28.203126 9.065108 28.281250 9.822913 28.281250 10.593750 C28.281250 11.895840 28.088544 13.218743 27.703125 14.562500 C27.317706 15.906257 26.773441 17.187494 26.070312 18.406250 C25.367184 19.625006 24.541671 20.713537 23.593750 21.671875 C22.645829 22.630213 21.601568 23.388018 20.460938 23.945312 C19.320307 24.502607 18.125006 24.781250 16.875000 24.781250 C16.781250 24.781250 16.690105 24.781250 16.601562 24.781250 C16.513020 24.781250 16.421875 24.776042 16.328125 24.765625 L14.593750 24.640625 C14.510416 24.630208 14.429688 24.625000 14.351562 24.625000 C14.273437 24.625000 14.192709 24.625000 14.109375 24.625000 C13.359371 24.625000 12.697920 24.786457 12.125000 25.109375 C11.552080 25.432293 10.953128 25.999996 10.328125 26.812500 L6.421875 31.890625 C6.192707 32.182293 5.966147 32.408853 5.742188 32.570312 C5.518228 32.731772 5.281251 32.812500 5.031250 32.812500 Z M16.453125 23.656250 L5.640625 15.875000 C5.536458 15.354164 5.450521 14.820315 5.382812 14.273438 C5.315104 13.726560 5.281250 13.182294 5.281250 12.640625 C5.281250 11.776037 5.385416 10.934900 5.593750 10.117188 C5.802084 9.299475 6.171872 8.583336 6.703125 7.968750 C7.286461 8.572920 7.901038 9.005207 8.546875 9.265625 C9.192712 9.526043 9.817705 9.656250 10.421875 9.656250 C11.307296 9.656250 12.072913 9.471356 12.718750 9.101562 C13.364587 8.731769 13.864582 8.210941 14.218750 7.539062 C14.572918 6.867184 14.750000 6.078130 14.750000 5.171875 C14.750000 4.223954 14.648439 3.497398 14.445312 2.992188 C14.242186 2.486977 14.020835 2.046877 13.781250 1.671875 C14.364586 1.286456 14.981768 1.049480 15.632812 0.960938 C16.283857 0.872395 16.979163 0.828125 17.718750 0.828125 C18.656255 0.828125 19.674474 1.044269 20.773438 1.476562 C21.872401 1.908856 22.916662 2.562496 23.906250 3.437500 C24.895838 4.312504 25.708330 5.411452 26.343750 6.734375 C26.979170 8.057298 27.296875 9.609366 27.296875 11.390625 C27.296875 13.171884 27.010420 14.796868 26.437500 16.265625 C25.864580 17.734382 25.078130 19.010411 24.078125 20.093750 C23.078120 21.177089 21.924486 22.026039 20.617188 22.640625 C19.309889 23.255211 17.921882 23.593750 16.453125 23.656250 Z M10.343750 10.609375 C9.364578 10.609375 8.473962 10.372398 7.671875 9.898438 C6.869788 9.424477 6.231773 8.786462 5.757812 7.984375 C5.283852 7.182288 5.046875 6.281255 5.046875 5.281250 C5.046875 4.291662 5.291664 3.398441 5.781250 2.601562 C6.270836 1.804684 6.929683 1.171877 7.757812 0.703125 C8.585942 0.234373 9.499995 -0.000000 10.500000 -0.000000 C11.510422 -0.000000 12.411454 0.236977 13.203125 0.710938 C13.994796 1.184898 14.617185 1.825517 15.070312 2.632812 C15.523440 3.440108 15.750000 4.343745 15.750000 5.343750 C15.750000 6.354172 15.507815 7.255204 15.023438 8.046875 C14.539060 8.838546 13.888025 9.463539 13.070312 9.921875 C12.252600 10.380211 11.343755 10.609375 10.343750 10.609375 Z M10.375000 8.734375 C11.333338 8.734375 12.156247 8.416670 12.843750 7.781250 C13.531253 7.145830 13.875000 6.338547 13.875000 5.359375 C13.875000 4.369787 13.559899 3.541670 12.929688 2.875000 C12.299476 2.208330 11.484380 1.875000 10.484375 1.875000 C9.828122 1.875000 9.231774 2.023436 8.695312 2.320312 C8.158851 2.617189 7.729168 3.026039 7.406250 3.546875 C7.083332 4.067711 6.921875 4.656247 6.921875 5.312500 C6.921875 6.291672 7.257809 7.106768 7.929688 7.757812 C8.601566 8.408857 9.416662 8.734375 10.375000 8.734375 Z M34.453125 27.343750" /></svg>