<svg version="1.1" xmlns="http://www.w3.org/2000/svg" style="fill:rgba(0,0,0,1.0)" width="256" height="256" viewBox="0 0 36.78125 32.8125"><path fill="rgb(255, 255, 255)" d="M16.468750 32.812500 C13.145817 32.812500 10.250012 32.247401 7.781250 31.117188 C5.312488 29.986974 3.398444 28.395844 2.039062 26.343750 C0.679681 24.291656 0.000000 21.885430 0.000000 19.125000 C0.000000 17.072906 0.398434 15.226571 1.195312 13.585938 C1.992191 11.945304 3.119784 10.539068 4.578125 9.367188 C6.036466 8.195307 7.773427 7.299482 9.789062 6.679688 C11.804698 6.059893 14.031238 5.750000 16.468750 5.750000 C18.906262 5.750000 21.132802 6.059893 23.148438 6.679688 C25.164073 7.299482 26.901034 8.195307 28.359375 9.367188 C29.817716 10.539068 30.945309 11.945304 31.742188 13.585938 C32.539066 15.226571 32.937500 17.072906 32.937500 19.125000 C32.937500 21.885430 32.257819 24.291656 30.898438 26.343750 C29.539056 28.395844 27.627616 29.986974 25.164062 31.117188 C22.700509 32.247401 19.802100 32.812500 16.468750 32.812500 Z M18.078125 28.875000 C17.880207 28.875000 17.700522 28.802084 17.539062 28.656250 C17.377603 28.510416 17.296875 28.333334 17.296875 28.125000 C17.296875 27.812498 17.460936 27.497397 17.789062 27.179688 C18.117189 26.861978 18.442707 26.703125 18.765625 26.703125 C18.973959 26.703125 19.156249 26.773437 19.312500 26.914062 C19.468751 27.054688 19.546875 27.229166 19.546875 27.437500 C19.546875 27.750002 19.385418 28.067707 19.062500 28.390625 C18.739582 28.713543 18.411460 28.875000 18.078125 28.875000 Z M5.562500 20.187500 C5.343749 20.187500 5.161459 20.104168 5.015625 19.937500 C4.869791 19.770832 4.807292 19.567710 4.828125 19.328125 C5.161460 15.619773 6.796860 12.906259 9.734375 11.187500 C9.942709 11.072916 10.151041 11.041666 10.359375 11.093750 C10.567709 11.145834 10.723958 11.286457 10.828125 11.515625 C11.036459 11.953127 10.947919 12.286457 10.562500 12.515625 C8.062488 13.973966 6.671876 16.281234 6.390625 19.437500 C6.338541 19.937502 6.062502 20.187500 5.562500 20.187500 Z M16.468750 31.093750 C19.437515 31.093750 22.013010 30.604172 24.195312 29.625000 C26.377615 28.645828 28.067702 27.257821 29.265625 25.460938 C30.463548 23.664054 31.062500 21.552095 31.062500 19.125000 C31.062500 16.687488 30.463548 14.585946 29.265625 12.820312 C28.067702 11.054679 26.377615 9.695317 24.195312 8.742188 C22.013010 7.789058 19.437515 7.312500 16.468750 7.312500 C13.499985 7.312500 10.924490 7.789058 8.742188 8.742188 C6.559885 9.695317 4.869798 11.054679 3.671875 12.820312 C2.473952 14.585946 1.875000 16.687488 1.875000 19.125000 C1.875000 21.552095 2.473952 23.664054 3.671875 25.460938 C4.869798 27.257821 6.559885 28.645828 8.742188 29.625000 C10.924490 30.604172 13.499985 31.093750 16.468750 31.093750 Z M24.687500 24.546875 C24.468749 24.546875 24.286459 24.473959 24.140625 24.328125 C23.994791 24.182291 23.921875 24.000001 23.921875 23.781250 C23.921875 23.458332 24.065103 23.127606 24.351562 22.789062 C24.638022 22.450519 24.942707 22.281250 25.265625 22.281250 C25.494793 22.281250 25.682291 22.351562 25.828125 22.492188 C25.973959 22.632813 26.046875 22.817707 26.046875 23.046875 C26.046875 23.369793 25.903647 23.700519 25.617188 24.039062 C25.330728 24.377606 25.020835 24.546875 24.687500 24.546875 Z M16.750000 11.859375 C16.041663 11.859375 15.468752 11.695314 15.031250 11.367188 C14.593748 11.039061 14.375000 10.604169 14.375000 10.062500 C14.375000 9.531247 14.593748 9.101564 15.031250 8.773438 C15.468752 8.445311 16.041663 8.281250 16.750000 8.281250 C17.458337 8.281250 18.031248 8.445311 18.468750 8.773438 C18.906252 9.101564 19.125000 9.531247 19.125000 10.062500 C19.125000 10.604169 18.906252 11.039061 18.468750 11.367188 C18.031248 11.695314 17.458337 11.859375 16.750000 11.859375 Z M27.328125 19.625000 C27.067707 19.625000 26.872396 19.536459 26.742188 19.359375 C26.611979 19.182291 26.546875 18.963543 26.546875 18.703125 C26.546875 18.348957 26.645832 18.010418 26.843750 17.687500 C27.041668 17.364582 27.302082 17.203125 27.625000 17.203125 C27.906251 17.203125 28.109374 17.296874 28.234375 17.484375 C28.359376 17.671876 28.421875 17.885415 28.421875 18.125000 C28.421875 18.468752 28.322918 18.804686 28.125000 19.132812 C27.927082 19.460939 27.661460 19.625000 27.328125 19.625000 Z M17.671875 9.421875 L15.796875 9.265625 C15.807292 9.130208 15.815104 8.994792 15.820312 8.859375 C15.825521 8.723958 15.828125 8.588542 15.828125 8.453125 C15.828125 7.390620 15.789063 6.546878 15.710938 5.921875 C15.632812 5.296872 15.479168 4.776044 15.250000 4.359375 C15.020832 3.942706 14.687502 3.520835 14.250000 3.093750 C14.250000 2.822915 14.447915 2.591147 14.843750 2.398438 C15.239585 2.205728 15.677081 2.109375 16.156250 2.109375 C16.625002 2.109375 16.968749 2.260415 17.187500 2.562500 C17.406251 2.864585 17.546875 3.466141 17.609375 4.367188 C17.671875 5.268234 17.703125 6.630199 17.703125 8.453125 C17.703125 8.609376 17.703125 8.768228 17.703125 8.929688 C17.703125 9.091147 17.692708 9.255208 17.671875 9.421875 Z M25.703125 14.765625 C25.484374 14.765625 25.307292 14.690105 25.171875 14.539062 C25.036458 14.388020 24.968750 14.197918 24.968750 13.968750 C24.968750 13.656248 25.072916 13.343752 25.281250 13.031250 C25.489584 12.718748 25.744790 12.562500 26.046875 12.562500 C26.526044 12.562500 26.765625 12.822914 26.765625 13.343750 C26.765625 13.666668 26.666668 13.984373 26.468750 14.296875 C26.270832 14.609377 26.015627 14.765625 25.703125 14.765625 Z M20.843750 5.390625 C19.614577 5.390625 18.203133 5.109378 16.609375 4.546875 C17.536463 2.984367 18.554682 1.835941 19.664062 1.101562 C20.773443 0.367184 22.020826 -0.000000 23.406250 -0.000000 C24.625006 -0.000000 26.020825 0.286455 27.593750 0.859375 C26.708329 2.369799 25.723964 3.502600 24.640625 4.257812 C23.557286 5.013025 22.291674 5.390625 20.843750 5.390625 Z M36.781250 27.343750" /></svg>