<svg version="1.1" xmlns="http://www.w3.org/2000/svg" style="fill:rgba(0,0,0,1.0)" width="256" height="256" viewBox="0 0 36.71875 32.8125"><path fill="rgb(255, 255, 255)" d="M16.406250 32.812500 C14.593741 32.812500 12.867196 32.536461 11.226562 31.984375 C9.585929 31.432289 8.083340 30.653651 6.718750 29.648438 C5.354160 28.643224 4.169276 27.455736 3.164062 26.085938 C2.158849 24.716139 1.380211 23.210946 0.828125 21.570312 C0.276039 19.929679 0.000000 18.203134 0.000000 16.390625 C0.000000 14.578116 0.276039 12.851571 0.828125 11.210938 C1.380211 9.570304 2.158849 8.067715 3.164062 6.703125 C4.169276 5.338535 5.354160 4.156255 6.718750 3.156250 C8.083340 2.156245 9.585929 1.380211 11.226562 0.828125 C12.867196 0.276039 14.593741 -0.000000 16.406250 -0.000000 C18.218759 -0.000000 19.945304 0.276039 21.585938 0.828125 C23.226571 1.380211 24.729160 2.156245 26.093750 3.156250 C27.458340 4.156255 28.643224 5.338535 29.648438 6.703125 C30.653651 8.067715 31.432289 9.570304 31.984375 11.210938 C32.536461 12.851571 32.812500 14.578116 32.812500 16.390625 C32.812500 18.203134 32.536461 19.929679 31.984375 21.570312 C31.432289 23.210946 30.653651 24.716139 29.648438 26.085938 C28.643224 27.455736 27.458340 28.643224 26.093750 29.648438 C24.729160 30.653651 23.226571 31.432289 21.585938 31.984375 C19.945304 32.536461 18.218759 32.812500 16.406250 32.812500 Z M16.406250 25.265625 C15.406245 25.265625 14.494796 25.020836 13.671875 24.531250 C12.848954 24.041664 12.192711 23.385421 11.703125 22.562500 C11.213539 21.739579 10.968750 20.828130 10.968750 19.828125 C10.968750 18.828120 11.213539 17.916671 11.703125 17.093750 C12.192711 16.270829 12.848954 15.614586 13.671875 15.125000 C14.494796 14.635414 15.406245 14.390625 16.406250 14.390625 C17.406255 14.390625 18.317704 14.635414 19.140625 15.125000 C19.963546 15.614586 20.619789 16.270829 21.109375 17.093750 C21.598961 17.916671 21.843750 18.828120 21.843750 19.828125 C21.843750 20.828130 21.598961 21.739579 21.109375 22.562500 C20.619789 23.385421 19.963546 24.041664 19.140625 24.531250 C18.317704 25.020836 17.406255 25.265625 16.406250 25.265625 Z M16.406250 27.765625 C17.875007 27.765625 19.208327 27.408858 20.406250 26.695312 C21.604173 25.981767 22.559892 25.023444 23.273438 23.820312 C23.986983 22.617181 24.343750 21.286466 24.343750 19.828125 C24.343750 18.463535 24.031253 17.208339 23.406250 16.062500 C22.781247 14.916661 21.942714 13.989587 20.890625 13.281250 C22.005214 12.697914 22.963538 11.937505 23.765625 11.000000 C24.567712 10.062495 25.114582 9.020839 25.406250 7.875000 L23.000000 7.250000 C22.781249 8.104171 22.341149 8.882809 21.679688 9.585938 C21.018226 10.289066 20.226567 10.848956 19.304688 11.265625 C18.382808 11.682294 17.416672 11.890625 16.406250 11.890625 C15.395828 11.890625 14.429692 11.682294 13.507812 11.265625 C12.585933 10.848956 11.796878 10.289066 11.140625 9.585938 C10.484372 8.882809 10.041668 8.104171 9.812500 7.250000 L7.406250 7.875000 C7.697918 9.020839 8.247392 10.062495 9.054688 11.000000 C9.861983 11.937505 10.817703 12.697914 11.921875 13.281250 C10.880203 13.989587 10.044274 14.916661 9.414062 16.062500 C8.783851 17.208339 8.468750 18.463535 8.468750 19.828125 C8.468750 21.286466 8.825517 22.617181 9.539062 23.820312 C10.252608 25.023444 11.210931 25.981767 12.414062 26.695312 C13.617194 27.408858 14.947909 27.765625 16.406250 27.765625 Z M36.718750 27.343750" /></svg>