<svg version="1.1" xmlns="http://www.w3.org/2000/svg" style="fill:rgba(0,0,0,1.0)" width="256" height="256" viewBox="0 0 39.453125 26.5625"><path fill="rgb(255, 255, 255)" d="M1.796875 24.062500 C1.130205 24.062500 0.664064 23.885418 0.398438 23.531250 C0.132811 23.177082 0.000000 22.625004 0.000000 21.875000 L0.000000 14.546875 C0.000000 14.151040 0.109374 13.721356 0.328125 13.257812 C0.546876 12.794269 0.854165 12.380210 1.250000 12.015625 C1.645835 11.651040 2.104164 11.421875 2.625000 11.328125 L8.515625 10.234375 L10.203125 7.921875 C10.921879 6.932287 11.638017 6.104170 12.351562 5.437500 C13.065108 4.770830 13.854162 4.236981 14.718750 3.835938 C15.583338 3.434894 16.585932 3.148438 17.726562 2.976562 C18.867193 2.804687 20.218742 2.718750 21.781250 2.718750 C23.333341 2.718750 24.690098 2.820311 25.851562 3.023438 C27.013027 3.226564 28.054683 3.562498 28.976562 4.031250 C29.898442 4.500002 30.768225 5.140621 31.585938 5.953125 C32.403650 6.765629 33.234371 7.781244 34.078125 9.000000 L37.468750 11.281250 C37.770835 11.479168 37.981770 11.682291 38.101562 11.890625 C38.221355 12.098959 38.281250 12.369790 38.281250 12.703125 L38.281250 21.890625 C38.281250 22.494795 38.093752 23.007810 37.718750 23.429688 C37.343748 23.851565 36.791670 24.062500 36.062500 24.062500 L34.562500 24.062500 L34.562500 22.343750 L35.765625 22.343750 C36.192710 22.343750 36.406250 22.078128 36.406250 21.546875 L36.406250 13.250000 C36.406250 13.052082 36.380209 12.898438 36.328125 12.789062 C36.276041 12.679687 36.192709 12.588542 36.078125 12.515625 L32.781250 10.296875 C31.989579 9.130202 31.226566 8.166670 30.492188 7.406250 C29.757809 6.645830 28.984379 6.049481 28.171875 5.617188 C27.359371 5.184894 26.440109 4.880209 25.414062 4.703125 C24.388016 4.526041 23.177090 4.437500 21.781250 4.437500 C20.333326 4.437500 19.106776 4.510416 18.101562 4.656250 C17.096349 4.802084 16.234379 5.041665 15.515625 5.375000 C14.796871 5.708335 14.145836 6.161455 13.562500 6.734375 C12.979164 7.307295 12.375003 8.015621 11.750000 8.859375 L9.578125 11.828125 L2.875000 13.062500 C2.677082 13.093750 2.502605 13.213541 2.351562 13.421875 C2.200520 13.630209 2.083334 13.848957 2.000000 14.078125 C1.916666 14.307293 1.875000 14.479166 1.875000 14.593750 L1.875000 21.703125 C1.875000 21.880209 1.937499 22.031249 2.062500 22.156250 C2.187501 22.281251 2.338541 22.343750 2.515625 22.343750 L6.187500 22.343750 L6.187500 24.062500 Z M9.375000 26.562500 C8.604163 26.562500 7.895837 26.372398 7.250000 25.992188 C6.604163 25.611977 6.091148 25.101566 5.710938 24.460938 C5.330727 23.820309 5.140625 23.109379 5.140625 22.328125 C5.140625 21.557288 5.330727 20.854170 5.710938 20.218750 C6.091148 19.583330 6.604163 19.075523 7.250000 18.695312 C7.895837 18.315102 8.604163 18.125000 9.375000 18.125000 C10.197921 18.125000 10.927080 18.315102 11.562500 18.695312 C12.197920 19.075523 12.695311 19.583330 13.054688 20.218750 C13.414064 20.854170 13.593750 21.557288 13.593750 22.328125 C13.593750 23.109379 13.403648 23.820309 13.023438 24.460938 C12.643227 25.101566 12.132816 25.611977 11.492188 25.992188 C10.851559 26.372398 10.145837 26.562500 9.375000 26.562500 Z M9.375000 24.687500 C10.020837 24.687500 10.572914 24.455731 11.031250 23.992188 C11.489586 23.528644 11.718750 22.973962 11.718750 22.328125 C11.718750 21.692705 11.489586 21.145836 11.031250 20.687500 C10.572914 20.229164 10.020837 20.000000 9.375000 20.000000 C8.729163 20.000000 8.174481 20.226560 7.710938 20.679688 C7.247394 21.132815 7.015625 21.682288 7.015625 22.328125 C7.015625 22.973962 7.247394 23.528644 7.710938 23.992188 C8.174481 24.455731 8.729163 24.687500 9.375000 24.687500 Z M0.984375 18.484375 L0.984375 17.234375 L3.406250 17.234375 L3.968750 15.375000 C4.010417 15.260416 4.000000 15.156250 3.937500 15.062500 C3.875000 14.968750 3.776042 14.921875 3.640625 14.921875 L0.828125 14.921875 L0.828125 13.671875 L4.531250 13.671875 C4.864585 13.671875 5.117187 13.807290 5.289062 14.078125 C5.460938 14.348960 5.494792 14.656248 5.390625 15.000000 L4.343750 18.484375 Z M12.812500 18.906250 L12.812500 16.843750 L14.875000 16.843750 L14.875000 18.906250 Z M12.328125 24.062500 L12.328125 22.343750 L27.718750 22.343750 L27.718750 24.062500 Z M14.875000 16.843750 L14.875000 14.781250 L16.937500 14.781250 L16.937500 16.843750 Z M16.937500 18.906250 L16.937500 16.843750 L19.000000 16.843750 L19.000000 18.906250 Z M19.000000 16.843750 L19.000000 14.781250 L21.062500 14.781250 L21.062500 16.843750 Z M21.062500 18.906250 L21.062500 16.843750 L23.125000 16.843750 L23.125000 18.906250 Z M14.218750 11.546875 L21.093750 11.546875 L21.093750 7.093750 C19.874994 7.093750 18.856775 7.177083 18.039062 7.343750 C17.221350 7.510417 16.526045 7.791665 15.953125 8.187500 C15.380205 8.583335 14.843752 9.130205 14.343750 9.828125 L13.906250 10.437500 C13.645832 10.812502 13.539062 11.091145 13.585938 11.273438 C13.632813 11.455730 13.843748 11.546875 14.218750 11.546875 Z M23.125000 16.843750 L23.125000 14.781250 L25.187500 14.781250 L25.187500 16.843750 Z M25.187500 18.906250 L25.187500 16.843750 L27.250000 16.843750 L27.250000 18.906250 Z M31.062500 26.562500 C30.291663 26.562500 29.583337 26.372398 28.937500 25.992188 C28.291663 25.611977 27.778648 25.101566 27.398438 24.460938 C27.018227 23.820309 26.828125 23.109379 26.828125 22.328125 C26.828125 21.557288 27.018227 20.854170 27.398438 20.218750 C27.778648 19.583330 28.291663 19.075523 28.937500 18.695312 C29.583337 18.315102 30.291663 18.125000 31.062500 18.125000 C31.833337 18.125000 32.539059 18.315102 33.179688 18.695312 C33.820316 19.075523 34.330727 19.583330 34.710938 20.218750 C35.091148 20.854170 35.281250 21.557288 35.281250 22.328125 C35.281250 23.109379 35.091148 23.820309 34.710938 24.460938 C34.330727 25.101566 33.820316 25.611977 33.179688 25.992188 C32.539059 26.372398 31.833337 26.562500 31.062500 26.562500 Z M31.062500 24.687500 C31.708337 24.687500 32.260414 24.455731 32.718750 23.992188 C33.177086 23.528644 33.406250 22.973962 33.406250 22.328125 C33.406250 21.692705 33.177086 21.145836 32.718750 20.687500 C32.260414 20.229164 31.708337 20.000000 31.062500 20.000000 C30.416663 20.000000 29.861981 20.226560 29.398438 20.679688 C28.934894 21.132815 28.703125 21.682288 28.703125 22.328125 C28.703125 22.973962 28.934894 23.528644 29.398438 23.992188 C29.861981 24.455731 30.416663 24.687500 31.062500 24.687500 Z M13.765625 12.953125 C12.848954 12.953125 12.276043 12.648441 12.046875 12.039062 C11.817707 11.429684 12.005205 10.697921 12.609375 9.843750 L13.000000 9.281250 C13.645837 8.343745 14.330726 7.614586 15.054688 7.093750 C15.778649 6.572914 16.669266 6.208334 17.726562 6.000000 C18.783859 5.791666 20.135408 5.687500 21.781250 5.687500 C23.031256 5.687500 24.098954 5.755208 24.984375 5.890625 C25.869796 6.026042 26.656247 6.265623 27.343750 6.609375 C28.031253 6.953127 28.690101 7.434893 29.320312 8.054688 C29.950524 8.674482 30.630205 9.473953 31.359375 10.453125 L29.828125 12.953125 Z M22.500000 11.546875 L29.031250 11.546875 L29.640625 10.578125 C29.067705 9.765621 28.473961 9.104169 27.859375 8.593750 C27.244789 8.083331 26.515629 7.705730 25.671875 7.460938 C24.828121 7.216145 23.770840 7.093750 22.500000 7.093750 Z M21.781250 4.171875 L17.250000 4.078125 L18.640625 -0.000000 L25.718750 -0.000000 L27.109375 4.078125 Z M35.156250 17.562500 L35.156250 13.750000 L37.515625 13.750000 L37.515625 17.562500 Z M39.453125 24.218750" /></svg>