<svg version="1.1" xmlns="http://www.w3.org/2000/svg" style="fill:rgba(0,0,0,1.0)" width="256" height="256" viewBox="0 0 29.876272648523845 32.8125"><path fill="rgb(255, 255, 255)" d="M9.609375 31.609375 C7.817699 31.609375 6.239590 31.369794 4.875000 30.890625 C3.510410 30.411456 2.437504 29.697921 1.656250 28.750000 C0.874996 27.802079 0.458334 26.630215 0.406250 25.234375 L0.046875 14.265625 C0.015625 13.328120 0.559890 12.502608 1.679688 11.789062 C2.799485 11.075517 4.255199 10.567710 6.046875 10.265625 L7.359375 11.921875 C6.369787 12.036459 5.476566 12.213540 4.679688 12.453125 C3.882809 12.692710 3.250002 12.971353 2.781250 13.289062 C2.312498 13.606772 2.078125 13.932290 2.078125 14.265625 C2.078125 14.661460 2.437496 15.049477 3.156250 15.429688 C3.875004 15.809898 4.809890 16.122395 5.960938 16.367188 C7.111985 16.611980 8.328119 16.734375 9.609375 16.734375 C10.901048 16.734375 12.119786 16.611980 13.265625 16.367188 C14.411464 16.122395 15.343746 15.809898 16.062500 15.429688 C16.781254 15.049477 17.140625 14.661460 17.140625 14.265625 C17.140625 13.838540 16.781254 13.434898 16.062500 13.054688 C15.343746 12.674477 14.411464 12.367189 13.265625 12.132812 C12.119786 11.898436 10.901048 11.781250 9.609375 11.781250 C9.328124 11.781250 9.057293 11.786458 8.796875 11.796875 C8.536457 11.807292 8.281251 11.822917 8.031250 11.843750 L8.046875 10.031250 C8.546878 10.000000 9.067706 9.984375 9.609375 9.984375 C11.776052 9.984375 13.570305 10.210935 14.992188 10.664062 C16.414070 11.117190 17.471351 11.674476 18.164062 12.335938 C18.856774 12.997399 19.192708 13.640622 19.171875 14.265625 L18.812500 25.234375 C18.770833 26.630215 18.356775 27.802079 17.570312 28.750000 C16.783850 29.697921 15.708340 30.411456 14.343750 30.890625 C12.979160 31.369794 11.401051 31.609375 9.609375 31.609375 Z M9.609375 32.812500 C7.984367 32.812500 6.710942 32.643231 5.789062 32.304688 C4.867183 31.966144 4.380209 31.604169 4.328125 31.218750 L4.171875 29.953125 L9.609375 30.578125 L15.046875 29.953125 L14.890625 31.218750 C14.848958 31.604169 14.364588 31.966144 13.437500 32.304688 C12.510412 32.643231 11.234383 32.812500 9.609375 32.812500 Z M6.671875 27.296875 C5.942705 27.151041 5.385419 26.820315 5.000000 26.304688 C4.614581 25.789060 4.406250 25.151045 4.375000 24.390625 L4.250000 21.468750 C4.229167 21.031248 4.432290 20.812500 4.859375 20.812500 C5.255210 20.812500 5.463542 21.020831 5.484375 21.437500 L5.625000 24.359375 C5.666667 25.359380 6.067705 25.937499 6.828125 26.093750 C7.192710 26.166667 7.375000 26.369790 7.375000 26.703125 C7.375000 26.880209 7.307292 27.033854 7.171875 27.164062 C7.036458 27.294271 6.869793 27.338542 6.671875 27.296875 Z M9.609375 29.890625 C11.942720 29.890625 13.749994 29.476567 15.031250 28.648438 C16.312506 27.820308 16.973958 26.661466 17.015625 25.171875 L17.281250 16.906250 C16.416662 17.406252 15.312507 17.802082 13.968750 18.093750 C12.624993 18.385418 11.171883 18.531250 9.609375 18.531250 C8.046867 18.531250 6.593757 18.385418 5.250000 18.093750 C3.906243 17.802082 2.802088 17.406252 1.937500 16.906250 L2.203125 25.171875 C2.255209 26.661466 2.919264 27.820308 4.195312 28.648438 C5.471361 29.476567 7.276030 29.890625 9.609375 29.890625 Z M9.609375 17.890625 L2.203125 16.593750 C2.203125 16.322915 2.403644 16.036460 2.804688 15.734375 C3.205731 15.432290 3.749997 15.145835 4.437500 14.875000 C5.125003 14.604165 5.914058 14.382813 6.804688 14.210938 C7.695317 14.039062 8.630203 13.953125 9.609375 13.953125 C10.921882 13.953125 12.140619 14.098957 13.265625 14.390625 C14.390631 14.682293 15.296872 15.031248 15.984375 15.437500 C16.671878 15.843752 17.015625 16.229165 17.015625 16.593750 Z M9.437500 12.703125 C8.489579 12.703125 7.625004 12.528648 6.843750 12.179688 C6.062496 11.830727 5.437502 11.356774 4.968750 10.757812 C4.499998 10.158851 4.265625 9.489587 4.265625 8.750000 C4.265625 7.947913 4.567705 7.190108 5.171875 6.476562 C5.776045 5.763017 6.692702 5.083337 7.921875 4.437500 L9.328125 3.703125 C10.130212 3.276040 10.744790 2.872398 11.171875 2.492188 C11.598960 2.111977 11.812500 1.729169 11.812500 1.343750 C11.812500 1.145832 11.752605 0.937501 11.632812 0.718750 C11.513020 0.499999 11.333335 0.260418 11.093750 -0.000000 C12.041671 -0.000000 12.906246 0.174477 13.687500 0.523438 C14.468754 0.872398 15.093748 1.343747 15.562500 1.937500 C16.031252 2.531253 16.265625 3.203121 16.265625 3.953125 C16.265625 4.744796 15.968753 5.499996 15.375000 6.218750 C14.781247 6.937504 13.864590 7.619788 12.625000 8.265625 L11.203125 9.000000 C10.401038 9.416669 9.786460 9.815102 9.359375 10.195312 C8.932290 10.575523 8.718750 10.963540 8.718750 11.359375 C8.718750 11.557293 8.778645 11.765624 8.898438 11.984375 C9.018230 12.203126 9.197915 12.442707 9.437500 12.703125 Z M7.296875 11.093750 C7.244791 10.885416 7.218750 10.718751 7.218750 10.593750 C7.218750 10.083331 7.476560 9.565107 7.992188 9.039062 C8.507815 8.513018 9.255203 7.994794 10.234375 7.484375 L11.796875 6.671875 C12.692713 6.203123 13.348956 5.734377 13.765625 5.265625 C14.182294 4.796873 14.390625 4.307294 14.390625 3.796875 C14.390625 3.317706 14.242189 2.898439 13.945312 2.539062 C13.648436 2.179686 13.270836 1.953125 12.812500 1.859375 L13.234375 1.609375 C13.286459 1.817709 13.312500 1.984374 13.312500 2.109375 C13.312500 2.619794 13.057294 3.138018 12.546875 3.664062 C12.036456 4.190107 11.286463 4.708331 10.296875 5.218750 L8.734375 6.031250 C7.838537 6.500002 7.182294 6.966144 6.765625 7.429688 C6.348956 7.893231 6.140625 8.385414 6.140625 8.906250 C6.140625 9.385419 6.291665 9.804686 6.593750 10.164062 C6.895835 10.523439 7.270831 10.750000 7.718750 10.843750 Z M29.921875 27.343750" /></svg>