<svg version="1.1" xmlns="http://www.w3.org/2000/svg" style="fill:rgba(0,0,0,1.0)" width="256" height="256" viewBox="0 0 39.375 32.8125"><path fill="rgb(255, 255, 255)" d="M11.562500 32.812500 C8.270817 32.812500 5.661468 32.309901 3.734375 31.304688 C1.807282 30.299474 0.755209 28.890634 0.578125 27.078125 C0.484375 26.109370 0.401042 25.161463 0.328125 24.234375 C0.255208 23.307287 0.195313 22.330734 0.148438 21.304688 C0.101562 20.278641 0.065104 19.132819 0.039062 17.867188 C0.013021 16.601556 0.000000 15.140633 0.000000 13.484375 C0.000000 11.463532 0.268226 9.625008 0.804688 7.968750 C1.341149 6.312492 2.109370 4.890631 3.109375 3.703125 C4.109380 2.515619 5.309889 1.601566 6.710938 0.960938 C8.111986 0.320309 9.677075 -0.000000 11.406250 -0.000000 C13.083342 -0.000000 14.609368 0.302080 15.984375 0.906250 C17.359382 1.510420 18.544266 2.369786 19.539062 3.484375 C20.533859 4.598964 21.302081 5.929680 21.843750 7.476562 C22.385419 9.023445 22.656250 10.744782 22.656250 12.640625 L22.656250 19.953125 L20.781250 22.921875 L20.781250 12.640625 C20.781250 11.005200 20.554690 9.518236 20.101562 8.179688 C19.648435 6.841139 19.007817 5.690109 18.179688 4.726562 C17.351558 3.763016 16.364589 3.020836 15.218750 2.500000 C14.072911 1.979164 12.802090 1.718750 11.406250 1.718750 C9.479157 1.718750 7.802090 2.210933 6.375000 3.195312 C4.947910 4.179692 3.841150 5.554679 3.054688 7.320312 C2.268225 9.085946 1.875000 11.145822 1.875000 13.500000 C1.875000 15.177092 1.885417 16.651035 1.906250 17.921875 C1.927083 19.192715 1.960937 20.333328 2.007812 21.343750 C2.054688 22.354172 2.114583 23.304683 2.187500 24.195312 C2.260417 25.085942 2.348958 25.989579 2.453125 26.906250 C2.588542 28.052089 3.398430 29.036454 4.882812 29.859375 C6.367195 30.682296 8.567694 31.093750 11.484375 31.093750 C14.036471 31.093750 16.098950 30.773441 17.671875 30.132812 C19.244800 29.492184 20.354163 28.625005 21.000000 27.531250 L22.625000 28.468750 C21.770829 29.916674 20.434905 31.002601 18.617188 31.726562 C16.799470 32.450524 14.447931 32.812500 11.562500 32.812500 Z M11.265625 21.250000 C10.380204 21.250000 9.552087 21.075523 8.781250 20.726562 C8.010413 20.377602 7.328128 19.843754 6.734375 19.125000 L7.843750 18.156250 C8.322919 18.729170 8.838539 19.140624 9.390625 19.390625 C9.942711 19.640626 10.567705 19.765625 11.265625 19.765625 C11.973962 19.765625 12.604164 19.640626 13.156250 19.390625 C13.708336 19.140624 14.218748 18.729170 14.687500 18.156250 L15.796875 19.125000 C15.203122 19.843754 14.523441 20.377602 13.757812 20.726562 C12.992184 21.075523 12.161463 21.250000 11.265625 21.250000 Z M6.671875 16.015625 C7.484379 16.015625 8.101560 15.903647 8.523438 15.679688 C8.945315 15.455728 9.229166 15.078128 9.375000 14.546875 C9.520834 14.015622 9.593750 13.281255 9.593750 12.343750 C9.593750 11.510413 9.325524 11.000001 8.789062 10.812500 C8.252601 10.624999 7.416672 10.531250 6.281250 10.531250 C4.947910 10.531250 4.059898 10.624999 3.617188 10.812500 C3.174477 11.000001 2.953125 11.369789 2.953125 11.921875 C2.953125 12.307294 2.976562 12.658853 3.023438 12.976562 C3.070313 13.294272 3.125000 13.614582 3.187500 13.937500 C3.302084 14.500003 3.458332 14.932290 3.656250 15.234375 C3.854168 15.536460 4.184894 15.742187 4.648438 15.851562 C5.111981 15.960938 5.786454 16.015625 6.671875 16.015625 Z M6.765625 14.968750 C6.296873 14.968750 5.919272 14.799481 5.632812 14.460938 C5.346353 14.122394 5.203125 13.718752 5.203125 13.250000 C5.203125 12.781248 5.346353 12.377606 5.632812 12.039062 C5.919272 11.700519 6.296873 11.531250 6.765625 11.531250 C7.234377 11.531250 7.611978 11.700519 7.898438 12.039062 C8.184897 12.377606 8.328125 12.781248 8.328125 13.250000 C8.328125 13.718752 8.184897 14.122394 7.898438 14.460938 C7.611978 14.799481 7.234377 14.968750 6.765625 14.968750 Z M6.562500 17.265625 C5.145826 17.265625 4.140628 17.091148 3.546875 16.742188 C2.953122 16.393227 2.578126 15.901045 2.421875 15.265625 L1.921875 13.187500 C1.880208 13.010416 1.828125 12.885417 1.765625 12.812500 C1.703125 12.739583 1.583334 12.651042 1.406250 12.546875 L0.953125 12.281250 L0.953125 9.984375 C1.880213 9.734374 2.781246 9.554688 3.656250 9.445312 C4.531254 9.335937 5.406246 9.281250 6.281250 9.281250 C7.343755 9.281250 8.174476 9.359374 8.773438 9.515625 C9.372399 9.671876 9.820311 9.882811 10.117188 10.148438 C10.414064 10.414064 10.635416 10.713540 10.781250 11.046875 C10.927084 10.932291 11.135415 10.875000 11.406250 10.875000 C11.677085 10.875000 11.885416 10.932291 12.031250 11.046875 C12.177084 10.713540 12.398436 10.414064 12.695312 10.148438 C12.992189 9.882811 13.440101 9.671876 14.039062 9.515625 C14.638024 9.359374 15.468745 9.281250 16.531250 9.281250 C17.406254 9.281250 18.283850 9.335937 19.164062 9.445312 C20.044275 9.554688 20.942704 9.734374 21.859375 9.984375 L21.859375 12.281250 L21.406250 12.546875 C21.229166 12.651042 21.111979 12.739583 21.054688 12.812500 C20.997396 12.885417 20.942709 13.010416 20.890625 13.187500 L20.390625 15.265625 C20.234374 15.901045 19.859378 16.393227 19.265625 16.742188 C18.671872 17.091148 17.666674 17.265625 16.250000 17.265625 C15.114578 17.265625 14.203128 17.067710 13.515625 16.671875 C12.828122 16.276040 12.390626 15.473964 12.203125 14.265625 L11.937500 12.578125 C11.895833 12.348957 11.825521 12.190105 11.726562 12.101562 C11.627604 12.013020 11.520834 11.968750 11.406250 11.968750 C11.291666 11.968750 11.184896 12.013020 11.085938 12.101562 C10.986979 12.190105 10.916667 12.348957 10.875000 12.578125 L10.609375 14.265625 C10.421874 15.473964 9.984378 16.276040 9.296875 16.671875 C8.609372 17.067710 7.697922 17.265625 6.562500 17.265625 Z M29.937500 32.375000 C29.718749 32.187499 29.523438 31.958335 29.351562 31.687500 C29.179687 31.416665 29.093750 31.104168 29.093750 30.750000 C29.093750 30.562499 29.125000 30.361980 29.187500 30.148438 C29.250000 29.934895 29.348958 29.708335 29.484375 29.468750 L30.812500 29.390625 C30.635416 29.692710 30.513021 29.953124 30.445312 30.171875 C30.377604 30.390626 30.343750 30.583332 30.343750 30.750000 C30.343750 30.979168 30.398437 31.166666 30.507812 31.312500 C30.617188 31.458334 30.744791 31.588541 30.890625 31.703125 Z M16.046875 14.968750 C15.578123 14.968750 15.200522 14.799481 14.914062 14.460938 C14.627603 14.122394 14.484375 13.718752 14.484375 13.250000 C14.484375 12.781248 14.627603 12.377606 14.914062 12.039062 C15.200522 11.700519 15.578123 11.531250 16.046875 11.531250 C16.515627 11.531250 16.893228 11.700519 17.179688 12.039062 C17.466147 12.377606 17.609375 12.781248 17.609375 13.250000 C17.609375 13.718752 17.466147 14.122394 17.179688 14.460938 C16.893228 14.799481 16.515627 14.968750 16.046875 14.968750 Z M29.718750 31.390625 C30.093752 31.390625 30.432290 31.130211 30.734375 30.609375 L36.953125 19.828125 C36.890625 19.776041 36.828125 19.710938 36.765625 19.632812 C36.703125 19.554687 36.651042 19.463542 36.609375 19.359375 L30.812500 29.390625 C30.635416 29.703127 30.434897 29.932291 30.210938 30.078125 C29.986978 30.223959 29.739585 30.296875 29.468750 30.296875 C29.322916 30.296875 29.171876 30.273438 29.015625 30.226562 C28.859374 30.179687 28.692709 30.104167 28.515625 30.000000 L20.734375 25.515625 C20.494790 25.369791 20.296876 25.416665 20.140625 25.656250 C20.088541 25.739584 20.075521 25.841145 20.101562 25.960938 C20.127604 26.080730 20.187500 26.166666 20.281250 26.218750 L29.312500 31.281250 C29.447917 31.354167 29.583333 31.390625 29.718750 31.390625 Z M16.140625 16.015625 C17.026046 16.015625 17.700519 15.960938 18.164062 15.851562 C18.627606 15.742187 18.960936 15.536460 19.164062 15.234375 C19.367189 14.932290 19.520833 14.500003 19.625000 13.937500 C19.687500 13.614582 19.742187 13.294272 19.789062 12.976562 C19.835938 12.658853 19.859375 12.307294 19.859375 11.921875 C19.859375 11.369789 19.638023 11.000001 19.195312 10.812500 C18.752602 10.624999 17.864590 10.531250 16.531250 10.531250 C15.395828 10.531250 14.559899 10.624999 14.023438 10.812500 C13.486976 11.000001 13.218750 11.510413 13.218750 12.343750 C13.218750 13.281255 13.291666 14.015622 13.437500 14.546875 C13.583334 15.078128 13.867185 15.455728 14.289062 15.679688 C14.710940 15.903647 15.328121 16.015625 16.140625 16.015625 Z M29.984375 32.812500 C29.817708 32.812500 29.645834 32.783854 29.468750 32.726562 C29.291666 32.669271 29.114584 32.593750 28.937500 32.500000 L19.515625 27.218750 C19.182290 27.031249 18.958334 26.744794 18.843750 26.359375 C18.729166 25.973956 18.786457 25.588544 19.015625 25.203125 L26.015625 13.078125 C26.494794 12.234371 27.161454 12.057289 28.015625 12.546875 L36.109375 17.203125 C36.401043 17.369793 36.604166 17.559895 36.718750 17.773438 C36.833334 17.986980 36.890625 18.223957 36.890625 18.484375 L37.468750 18.828125 C37.906252 19.098960 38.125000 19.479164 38.125000 19.968750 C38.125000 20.187501 38.072917 20.385416 37.968750 20.562500 L31.437500 31.875000 C31.249999 32.197918 31.031251 32.434895 30.781250 32.585938 C30.531249 32.736980 30.265626 32.812500 29.984375 32.812500 Z M28.609375 28.609375 C28.880210 28.755209 29.117186 28.846354 29.320312 28.882812 C29.523439 28.919271 29.703124 28.802085 29.859375 28.531250 L35.265625 19.187500 C35.411459 18.947915 35.471354 18.731772 35.445312 18.539062 C35.419271 18.346353 35.317709 18.197917 35.140625 18.093750 L27.375000 13.625000 L28.593750 13.140625 L21.343750 25.656250 L21.093750 24.281250 Z M21.937500 10.531250 L26.906250 10.531250 L26.906250 9.437500 L21.937500 9.437500 Z M21.515625 16.828125 C21.515625 15.453118 21.468750 14.088548 21.375000 12.734375 C21.281250 11.380202 21.088543 10.059902 20.796875 8.773438 C20.505207 7.486973 20.070315 6.260423 19.492188 5.093750 C18.914060 3.927077 18.140630 2.838547 17.171875 1.828125 L30.953125 1.828125 C31.453128 1.828125 31.880207 2.005207 32.234375 2.359375 C32.588543 2.713543 32.765625 3.145831 32.765625 3.656250 L32.765625 16.203125 L27.078125 12.812500 L24.750000 16.828125 Z M20.875000 7.343750 L29.718750 7.343750 L29.718750 6.250000 L20.875000 6.250000 Z M39.375000 27.343750" /></svg>