<svg version="1.1" xmlns="http://www.w3.org/2000/svg" style="fill:rgba(0,0,0,1.0)" width="256" height="256" viewBox="0 0 38.046875 32.8125"><path fill="rgb(255, 255, 255)" d="M2.187500 32.812500 C1.520830 32.812500 0.989585 32.614585 0.593750 32.218750 C0.197915 31.822915 0.000000 31.291670 0.000000 30.625000 L0.000000 9.890625 C0.000000 9.213538 0.197915 8.679689 0.593750 8.289062 C0.989585 7.898436 1.520830 7.703125 2.187500 7.703125 L33.281250 7.703125 C33.958337 7.703125 34.492186 7.898436 34.882812 8.289062 C35.273439 8.679689 35.468750 9.213538 35.468750 9.890625 L35.468750 30.625000 C35.468750 31.291670 35.273439 31.822915 34.882812 32.218750 C34.492186 32.614585 33.958337 32.812500 33.281250 32.812500 Z M6.375000 19.578125 C6.604168 19.578125 6.789062 19.500001 6.929688 19.343750 C7.070313 19.187499 7.161458 18.994793 7.203125 18.765625 C7.234375 18.578124 7.265625 18.390626 7.296875 18.203125 C7.328125 18.015624 7.354167 17.833334 7.375000 17.656250 C7.458334 17.062497 7.276044 16.723959 6.828125 16.640625 C6.609374 16.598958 6.408855 16.632812 6.226562 16.742188 C6.044270 16.851563 5.921875 17.020832 5.859375 17.250000 C5.744791 17.666669 5.671875 18.130206 5.640625 18.640625 C5.630208 18.911460 5.695312 19.135416 5.835938 19.312500 C5.976563 19.489584 6.156249 19.578125 6.375000 19.578125 Z M15.437500 29.531250 C13.249989 29.531250 11.434903 29.492188 9.992188 29.414062 C8.549472 29.335937 7.395838 29.148439 6.531250 28.851562 C5.666662 28.554686 5.023440 28.080732 4.601562 27.429688 C4.179685 26.778643 3.901042 25.885422 3.765625 24.750000 C3.630208 23.614578 3.562500 22.166675 3.562500 20.406250 C3.562500 18.656241 3.630208 17.205735 3.765625 16.054688 C3.901042 14.903640 4.179685 13.986983 4.601562 13.304688 C5.023440 12.622392 5.666662 12.114585 6.531250 11.781250 C7.395838 11.447915 8.549472 11.229167 9.992188 11.125000 C11.434903 11.020833 13.249989 10.968750 15.437500 10.968750 C17.593761 10.968750 19.382805 11.020833 20.804688 11.125000 C22.226570 11.229167 23.364579 11.447915 24.218750 11.781250 C25.072921 12.114585 25.710935 12.622392 26.132812 13.304688 C26.554690 13.986983 26.830729 14.903640 26.960938 16.054688 C27.091146 17.205735 27.156250 18.656241 27.156250 20.406250 C27.156250 22.166675 27.091146 23.614578 26.960938 24.750000 C26.830729 25.885422 26.554690 26.778643 26.132812 27.429688 C25.710935 28.080732 25.072921 28.554686 24.218750 28.851562 C23.364579 29.148439 22.226570 29.335937 20.804688 29.414062 C19.382805 29.492188 17.593761 29.531250 15.437500 29.531250 Z M8.593750 15.296875 C9.125003 15.057290 9.731767 14.848959 10.414062 14.671875 C11.096358 14.494791 11.765622 14.380209 12.421875 14.328125 C12.661460 14.307292 12.856770 14.221355 13.007812 14.070312 C13.158855 13.919270 13.234375 13.729168 13.234375 13.500000 C13.234375 13.281249 13.148438 13.098959 12.976562 12.953125 C12.804687 12.807291 12.583335 12.744792 12.312500 12.765625 C11.541663 12.838542 10.752608 12.981770 9.945312 13.195312 C9.138017 13.408855 8.416670 13.666665 7.781250 13.968750 C7.572916 14.072917 7.442709 14.229166 7.390625 14.437500 C7.338541 14.645834 7.364583 14.843749 7.468750 15.031250 C7.593751 15.239584 7.760416 15.359375 7.968750 15.390625 C8.177084 15.421875 8.385416 15.390625 8.593750 15.296875 Z M2.187500 31.250000 L33.281250 31.250000 C33.520835 31.250000 33.684895 31.203125 33.773438 31.109375 C33.861980 31.015625 33.906250 30.854168 33.906250 30.625000 L33.906250 9.890625 C33.906250 9.651040 33.861980 9.486980 33.773438 9.398438 C33.684895 9.309895 33.520835 9.265625 33.281250 9.265625 L2.187500 9.265625 C1.947915 9.265625 1.783855 9.309895 1.695312 9.398438 C1.606770 9.486980 1.562500 9.651040 1.562500 9.890625 L1.562500 30.625000 C1.562500 30.864585 1.609375 31.028645 1.703125 31.117188 C1.796875 31.205730 1.958332 31.250000 2.187500 31.250000 Z M29.984375 29.640625 C29.046870 29.640625 28.578125 29.171880 28.578125 28.234375 L28.578125 23.828125 C28.578125 22.890620 29.046870 22.421875 29.984375 22.421875 L30.953125 22.421875 C31.890630 22.421875 32.359375 22.890620 32.359375 23.828125 L32.359375 28.234375 C32.359375 29.171880 31.890630 29.640625 30.953125 29.640625 Z M16.000000 7.421875 L10.765625 0.875000 L11.750000 -0.000000 L17.515625 6.781250 Z M11.812500 8.343750 C11.812500 7.749997 12.085935 7.242190 12.632812 6.820312 C13.179690 6.398435 13.916662 6.075522 14.843750 5.851562 C15.770838 5.627603 16.802078 5.515625 17.937500 5.515625 C19.072922 5.515625 20.104162 5.627603 21.031250 5.851562 C21.958338 6.075522 22.695310 6.398435 23.242188 6.820312 C23.789065 7.242190 24.062500 7.749997 24.062500 8.343750 Z M30.468750 20.593750 C29.947914 20.593750 29.502606 20.408856 29.132812 20.039062 C28.763019 19.669269 28.578125 19.223961 28.578125 18.703125 C28.578125 18.182289 28.763019 17.736981 29.132812 17.367188 C29.502606 16.997394 29.947914 16.812500 30.468750 16.812500 C30.989586 16.812500 31.434894 16.997394 31.804688 17.367188 C32.174481 17.736981 32.359375 18.182289 32.359375 18.703125 C32.359375 19.223961 32.174481 19.669269 31.804688 20.039062 C31.434894 20.408856 30.989586 20.593750 30.468750 20.593750 Z M31.234375 19.937500 L31.687500 19.500000 L30.859375 18.312500 L29.671875 17.484375 L29.234375 17.937500 L30.062500 19.109375 Z M30.468750 15.593750 C29.947914 15.593750 29.502606 15.408856 29.132812 15.039062 C28.763019 14.669269 28.578125 14.223961 28.578125 13.703125 C28.578125 13.182289 28.763019 12.736981 29.132812 12.367188 C29.502606 11.997394 29.947914 11.812500 30.468750 11.812500 C30.989586 11.812500 31.434894 11.997394 31.804688 12.367188 C32.174481 12.736981 32.359375 13.182289 32.359375 13.703125 C32.359375 14.223961 32.174481 14.669269 31.804688 15.039062 C31.434894 15.408856 30.989586 15.593750 30.468750 15.593750 Z M30.140625 15.125000 L30.765625 15.125000 L31.031250 13.703125 L30.765625 12.281250 L30.140625 12.281250 L29.890625 13.703125 Z M19.875000 7.421875 L18.359375 6.781250 L24.125000 -0.000000 L25.109375 0.875000 Z M38.046875 27.343750" /></svg>