<svg version="1.1" xmlns="http://www.w3.org/2000/svg" style="fill:rgba(0,0,0,1.0)" width="256" height="256" viewBox="0 0 39.921875 32.8125"><path fill="rgb(255, 255, 255)" d="M10.453125 26.531250 C8.703116 26.531250 7.424483 26.294273 6.617188 25.820312 C5.809892 25.346352 5.406250 24.557297 5.406250 23.453125 C5.406250 23.307291 5.424479 23.127605 5.460938 22.914062 C5.497396 22.700520 5.567708 22.322919 5.671875 21.781250 L7.750000 11.781250 C7.958334 10.802078 8.283852 10.117189 8.726562 9.726562 C9.169273 9.335936 9.760413 9.046876 10.500000 8.859375 L11.062500 8.718750 C11.645836 8.572916 12.039061 8.359376 12.242188 8.078125 C12.445314 7.796874 12.572916 7.416669 12.625000 6.937500 L12.937500 4.046875 L18.000000 4.046875 L18.000000 8.515625 L21.218750 8.515625 L21.218750 4.046875 L26.281250 4.046875 L26.593750 6.937500 C26.645834 7.416669 26.776041 7.796874 26.984375 8.078125 C27.192709 8.359376 27.583330 8.572916 28.156250 8.718750 L28.718750 8.859375 C29.458337 9.046876 30.052081 9.335936 30.500000 9.726562 C30.947919 10.117189 31.270832 10.802078 31.468750 11.781250 L33.546875 21.781250 C33.661459 22.322919 33.734375 22.700520 33.765625 22.914062 C33.796875 23.127605 33.812500 23.307291 33.812500 23.453125 C33.812500 24.557297 33.408858 25.346352 32.601562 25.820312 C31.794267 26.294273 30.515634 26.531250 28.765625 26.531250 Z M8.500000 32.812500 C7.583329 32.812500 6.838545 32.541669 6.265625 32.000000 C5.692705 31.458331 5.406250 30.744796 5.406250 29.859375 L5.406250 23.453125 L7.281250 23.453125 L7.281250 29.859375 C7.281250 30.223960 7.401040 30.494791 7.640625 30.671875 C7.880210 30.848959 8.166665 30.937500 8.500000 30.937500 L30.718750 30.937500 C31.052085 30.937500 31.338540 30.848959 31.578125 30.671875 C31.817710 30.494791 31.937500 30.223960 31.937500 29.859375 L31.937500 23.734375 L33.812500 23.734375 L33.812500 29.859375 C33.812500 30.744796 33.528649 31.458331 32.960938 32.000000 C32.393226 32.541669 31.645838 32.812500 30.718750 32.812500 Z M13.203125 20.671875 L15.484375 20.671875 C15.807293 20.671875 15.984375 20.562501 16.015625 20.343750 L16.203125 19.000000 C16.223958 18.885416 16.192709 18.783855 16.109375 18.695312 C16.026041 18.606770 15.927084 18.562500 15.812500 18.562500 L13.453125 18.562500 C13.234374 18.562500 13.104167 18.671874 13.062500 18.890625 L12.843750 20.218750 C12.822917 20.343751 12.848958 20.450520 12.921875 20.539062 C12.994792 20.627605 13.088541 20.671875 13.203125 20.671875 Z M13.796875 17.562500 L16.031250 17.562500 C16.260418 17.562500 16.390625 17.453126 16.421875 17.234375 L16.593750 15.875000 C16.614583 15.760416 16.585938 15.661459 16.507812 15.578125 C16.429687 15.494791 16.333334 15.453125 16.218750 15.453125 L14.031250 15.453125 C13.822916 15.453125 13.697917 15.562499 13.656250 15.781250 L13.421875 17.125000 C13.411458 17.229167 13.440104 17.328125 13.507812 17.421875 C13.575521 17.515625 13.671874 17.562500 13.796875 17.562500 Z M18.171875 20.671875 L21.046875 20.671875 C21.161459 20.671875 21.257812 20.632813 21.335938 20.554688 C21.414063 20.476562 21.447917 20.385417 21.437500 20.281250 L21.375000 18.937500 C21.364583 18.833333 21.322917 18.744792 21.250000 18.671875 C21.177083 18.598958 21.093750 18.562500 21.000000 18.562500 L18.218750 18.562500 C18.125000 18.562500 18.041667 18.598958 17.968750 18.671875 C17.895833 18.744792 17.854167 18.833333 17.843750 18.937500 L17.781250 20.281250 C17.770833 20.385417 17.807291 20.476562 17.890625 20.554688 C17.973959 20.632813 18.067708 20.671875 18.171875 20.671875 Z M14.296875 14.437500 L16.390625 14.437500 C16.609376 14.437500 16.734375 14.322918 16.765625 14.093750 L16.937500 12.625000 C16.958333 12.510416 16.929688 12.411459 16.851562 12.328125 C16.773437 12.244791 16.677084 12.203125 16.562500 12.203125 L14.562500 12.203125 C14.354166 12.203125 14.229167 12.296874 14.187500 12.484375 L13.921875 13.984375 C13.911458 14.088542 13.945312 14.190104 14.023438 14.289062 C14.101563 14.388021 14.192708 14.437500 14.296875 14.437500 Z M11.656250 23.093750 C11.333332 23.093750 11.171875 22.927085 11.171875 22.593750 L11.171875 21.125000 C11.171875 21.031250 11.179687 20.914063 11.195312 20.773438 C11.210938 20.632812 11.234375 20.489584 11.265625 20.343750 L13.125000 11.515625 C13.187500 11.286457 13.333332 11.171875 13.562500 11.171875 L25.656250 11.171875 C25.895835 11.171875 26.041666 11.286457 26.093750 11.515625 L27.953125 20.343750 C27.984375 20.489584 28.007812 20.632812 28.023438 20.773438 C28.039063 20.914063 28.046875 21.031250 28.046875 21.125000 L28.046875 22.593750 C28.046875 22.927085 27.885418 23.093750 27.562500 23.093750 Z M18.312500 17.562500 L20.906250 17.562500 C21.010417 17.562500 21.098958 17.523438 21.171875 17.445312 C21.244792 17.367187 21.276042 17.276042 21.265625 17.171875 L21.187500 15.828125 C21.177083 15.713541 21.138021 15.622396 21.070312 15.554688 C21.002604 15.486979 20.916667 15.453125 20.812500 15.453125 L18.406250 15.453125 C18.302083 15.453125 18.216146 15.486979 18.148438 15.554688 C18.080729 15.622396 18.041667 15.713541 18.031250 15.828125 L17.953125 17.171875 C17.942708 17.276042 17.973958 17.367187 18.046875 17.445312 C18.119792 17.523438 18.208333 17.562500 18.312500 17.562500 Z M10.453125 24.656250 L28.765625 24.656250 C30.036465 24.656250 30.882810 24.572918 31.304688 24.406250 C31.726565 24.239582 31.937500 23.911461 31.937500 23.421875 C31.937500 23.338541 31.924479 23.223959 31.898438 23.078125 C31.872396 22.932291 31.817709 22.651044 31.734375 22.234375 L29.625000 12.156250 C29.520833 11.635414 29.390626 11.283855 29.234375 11.101562 C29.078124 10.919270 28.755211 10.776042 28.265625 10.671875 L27.703125 10.546875 C26.786454 10.338541 26.114585 9.976565 25.687500 9.460938 C25.260415 8.945310 24.989584 8.171880 24.875000 7.140625 L24.718750 5.765625 L22.781250 5.765625 L22.781250 10.234375 L16.437500 10.234375 L16.437500 5.765625 L14.500000 5.765625 L14.343750 7.140625 C14.229166 8.171880 13.958335 8.945310 13.531250 9.460938 C13.104165 9.976565 12.432296 10.338541 11.515625 10.546875 L10.953125 10.671875 C10.473956 10.776042 10.156251 10.919270 10.000000 11.101562 C9.843749 11.283855 9.708334 11.635414 9.593750 12.156250 L7.484375 22.234375 C7.401041 22.651044 7.346354 22.932291 7.320312 23.078125 C7.294271 23.223959 7.281250 23.338541 7.281250 23.421875 C7.281250 23.911461 7.494790 24.239582 7.921875 24.406250 C8.348960 24.572918 9.192702 24.656250 10.453125 24.656250 Z M23.734375 20.671875 L26.015625 20.671875 C26.130209 20.671875 26.223958 20.627605 26.296875 20.539062 C26.369792 20.450520 26.395833 20.343751 26.375000 20.218750 L26.156250 18.890625 C26.125000 18.671874 25.994793 18.562500 25.765625 18.562500 L23.406250 18.562500 C23.302083 18.562500 23.208334 18.606770 23.125000 18.695312 C23.041666 18.783855 23.005208 18.885416 23.015625 19.000000 L23.203125 20.343750 C23.244792 20.562501 23.421873 20.671875 23.734375 20.671875 Z M18.484375 14.437500 L20.734375 14.437500 C20.848959 14.437500 20.945312 14.398438 21.023438 14.320312 C21.101563 14.242187 21.135417 14.145834 21.125000 14.031250 L21.046875 12.562500 C21.026042 12.322915 20.895835 12.203125 20.656250 12.203125 L18.562500 12.203125 C18.322915 12.203125 18.192708 12.322915 18.171875 12.562500 L18.093750 14.031250 C18.083333 14.145834 18.117187 14.242187 18.195312 14.320312 C18.273438 14.398438 18.369791 14.437500 18.484375 14.437500 Z M23.187500 17.562500 L25.421875 17.562500 C25.546876 17.562500 25.645833 17.515625 25.718750 17.421875 C25.791667 17.328125 25.817708 17.229167 25.796875 17.125000 L25.562500 15.781250 C25.531250 15.562499 25.406251 15.453125 25.187500 15.453125 L23.000000 15.453125 C22.895833 15.453125 22.804688 15.494791 22.726562 15.578125 C22.648437 15.661459 22.614583 15.760416 22.625000 15.875000 L22.796875 17.234375 C22.838542 17.453126 22.968749 17.562500 23.187500 17.562500 Z M22.828125 14.437500 L24.921875 14.437500 C25.036459 14.437500 25.132812 14.388021 25.210938 14.289062 C25.289063 14.190104 25.317708 14.088542 25.296875 13.984375 L25.031250 12.484375 C24.989583 12.296874 24.864584 12.203125 24.656250 12.203125 L22.656250 12.203125 C22.541666 12.203125 22.447917 12.244791 22.375000 12.328125 C22.302083 12.411459 22.270833 12.510416 22.281250 12.625000 L22.453125 14.093750 C22.484375 14.322918 22.609374 14.437500 22.828125 14.437500 Z M6.015625 15.750000 C4.067699 15.750000 2.578130 15.367191 1.546875 14.601562 C0.515620 13.835934 0.000000 12.744799 0.000000 11.328125 C0.000000 9.223948 0.502599 7.447924 1.507812 6.000000 C2.513026 4.552076 3.911449 3.388025 5.703125 2.507812 C7.494801 1.627600 9.578113 0.989585 11.953125 0.593750 C14.328137 0.197915 16.880195 -0.000000 19.609375 -0.000000 C22.338555 -0.000000 24.890613 0.197915 27.265625 0.593750 C29.640637 0.989585 31.723949 1.627600 33.515625 2.507812 C35.307301 3.388025 36.705724 4.552076 37.710938 6.000000 C38.716151 7.447924 39.218750 9.223948 39.218750 11.328125 C39.218750 12.744799 38.705734 13.835934 37.679688 14.601562 C36.653641 15.367191 35.161468 15.750000 33.203125 15.750000 C32.692706 15.750000 32.278647 15.736979 31.960938 15.710938 C31.643228 15.684896 31.286460 15.635417 30.890625 15.562500 L30.890625 13.531250 C31.213543 13.666667 31.533853 13.757812 31.851562 13.804688 C32.169272 13.851563 32.614580 13.875000 33.187500 13.875000 C34.395839 13.875000 35.390621 13.625002 36.171875 13.125000 C36.953129 12.624998 37.343750 12.026045 37.343750 11.328125 C37.343750 9.515616 36.888025 8.000006 35.976562 6.781250 C35.065100 5.562494 33.799487 4.593754 32.179688 3.875000 C30.559888 3.156246 28.677094 2.643231 26.531250 2.335938 C24.385406 2.028644 22.078137 1.875000 19.609375 1.875000 C17.140613 1.875000 14.833344 2.028644 12.687500 2.335938 C10.541656 2.643231 8.658862 3.156246 7.039062 3.875000 C5.419263 4.593754 4.153650 5.562494 3.242188 6.781250 C2.330725 8.000006 1.875000 9.515616 1.875000 11.328125 C1.875000 12.026045 2.265621 12.624998 3.046875 13.125000 C3.828129 13.625002 4.822911 13.875000 6.031250 13.875000 C6.614586 13.875000 7.062498 13.851563 7.375000 13.804688 C7.687502 13.757812 8.005207 13.666667 8.328125 13.531250 L8.328125 15.562500 C7.942706 15.635417 7.591147 15.684896 7.273438 15.710938 C6.955728 15.736979 6.536461 15.750000 6.015625 15.750000 Z M17.109375 7.625000 L17.109375 6.078125 C17.411460 6.057292 17.794269 6.041667 18.257812 6.031250 C18.721356 6.020833 19.171873 6.015625 19.609375 6.015625 C20.046877 6.015625 20.497394 6.020833 20.960938 6.031250 C21.424481 6.041667 21.807290 6.057292 22.109375 6.078125 L22.109375 7.625000 C21.838540 7.604167 21.460940 7.591146 20.976562 7.585938 C20.492185 7.580729 20.036460 7.578125 19.609375 7.578125 C19.192706 7.578125 18.739586 7.580729 18.250000 7.585938 C17.760414 7.591146 17.380210 7.604167 17.109375 7.625000 Z M38.375000 8.937500 L38.640625 10.781250 C38.463541 10.916667 38.078128 11.057291 37.484375 11.203125 C36.890622 11.348959 36.200525 11.486979 35.414062 11.617188 C34.627600 11.747396 33.846358 11.854166 33.070312 11.937500 C32.294267 12.020834 31.630211 12.062500 31.078125 12.062500 C30.869791 12.062500 30.687501 12.054688 30.531250 12.039062 C30.374999 12.023437 30.250000 12.000000 30.156250 11.968750 L29.906250 10.125000 C29.989584 10.156250 30.098958 10.177083 30.234375 10.187500 C30.369792 10.197917 30.536457 10.203125 30.734375 10.203125 C31.255211 10.203125 31.906246 10.164063 32.687500 10.085938 C33.468754 10.007812 34.260413 9.903646 35.062500 9.773438 C35.864587 9.643229 36.572914 9.505209 37.187500 9.359375 C37.802086 9.213541 38.197916 9.072917 38.375000 8.937500 Z M0.843750 8.937500 C1.020834 9.072917 1.416664 9.213541 2.031250 9.359375 C2.645836 9.505209 3.354163 9.643229 4.156250 9.773438 C4.958337 9.903646 5.749996 10.007812 6.531250 10.085938 C7.312504 10.164063 7.963539 10.203125 8.484375 10.203125 C8.682293 10.203125 8.851562 10.197917 8.992188 10.187500 C9.132813 10.177083 9.239583 10.156250 9.312500 10.125000 L9.062500 11.968750 C8.968750 12.000000 8.843751 12.023437 8.687500 12.039062 C8.531249 12.054688 8.348959 12.062500 8.140625 12.062500 C7.598956 12.062500 6.937504 12.020834 6.156250 11.937500 C5.374996 11.854166 4.591150 11.747396 3.804688 11.617188 C3.018225 11.486979 2.328128 11.348959 1.734375 11.203125 C1.140622 11.057291 0.755209 10.916667 0.578125 10.781250 Z M39.921875 27.343750" /></svg>