<svg version="1.1" xmlns="http://www.w3.org/2000/svg" style="fill:rgba(0,0,0,1.0)" width="256" height="256" viewBox="0 0 39.37730536955224 26.5625"><path fill="rgb(255, 255, 255)" d="M16.093750 26.109375 C15.479164 26.109375 14.963544 26.091146 14.546875 26.054688 C14.130206 26.018229 13.796876 25.963542 13.546875 25.890625 C12.901038 25.838541 12.111984 25.703126 11.179688 25.484375 C10.247391 25.265624 9.257818 24.989585 8.210938 24.656250 C7.164057 24.322915 6.140630 23.958335 5.140625 23.562500 C4.140620 23.166665 3.244796 22.765627 2.453125 22.359375 C1.661454 21.953123 1.057294 21.572918 0.640625 21.218750 L0.484375 18.828125 C0.848960 17.932287 1.437496 16.690112 2.250000 15.101562 C3.062504 13.513013 3.973953 11.817717 4.984375 10.015625 L5.265625 9.515625 C5.848961 8.484370 6.403643 7.369798 6.929688 6.171875 C7.455732 4.973952 7.906248 3.807297 8.281250 2.671875 C8.510418 1.984372 8.794269 1.367190 9.132812 0.820312 C9.471356 0.273435 9.937497 -0.000000 10.531250 -0.000000 C11.083336 -0.000000 11.986973 0.078124 13.242188 0.234375 C14.497402 0.390626 15.859368 0.541666 17.328125 0.687500 L17.812500 0.734375 C19.052090 0.848959 20.221349 0.955729 21.320312 1.054688 C22.419276 1.153646 23.367184 1.229166 24.164062 1.281250 C24.960941 1.333334 25.515623 1.359375 25.828125 1.359375 C26.348961 1.359375 26.791665 1.520832 27.156250 1.843750 C27.520835 2.166668 27.848957 2.682288 28.140625 3.390625 C28.348959 3.890628 28.638019 4.570308 29.007812 5.429688 C29.377606 6.289067 29.773435 7.205724 30.195312 8.179688 C30.617190 9.153651 31.026040 10.078121 31.421875 10.953125 C31.817710 11.828129 32.145832 12.531247 32.406250 13.062500 L37.656250 23.859375 L33.203125 24.562500 L32.953125 22.875000 L35.093750 22.531250 L30.828125 13.750000 C30.567707 13.208331 30.239585 12.497400 29.843750 11.617188 C29.447915 10.736975 29.033856 9.804692 28.601562 8.820312 C28.169269 7.835933 27.768231 6.911463 27.398438 6.046875 C27.028644 5.182287 26.739584 4.494794 26.531250 3.984375 C26.385416 3.619790 26.255209 3.364584 26.140625 3.218750 C26.026041 3.072916 25.906251 3.000000 25.781250 3.000000 C25.677083 3.000000 25.585938 3.044270 25.507812 3.132812 C25.429687 3.221355 25.338542 3.374999 25.234375 3.593750 L22.812500 8.671875 C21.937496 10.494801 21.026046 12.348949 20.078125 14.234375 C19.130204 16.119801 18.205734 17.927075 17.304688 19.656250 C16.403641 21.385425 15.578129 22.937493 14.828125 24.312500 C14.953126 24.333333 15.078124 24.351562 15.203125 24.367188 C15.328126 24.382813 15.468749 24.390625 15.625000 24.390625 C16.416671 24.390625 17.223954 24.361979 18.046875 24.304688 C18.869796 24.247396 19.791662 24.151042 20.812500 24.015625 L21.718750 25.453125 C21.218748 25.630209 20.731773 25.765625 20.257812 25.859375 C19.783852 25.953125 19.226566 26.018229 18.585938 26.054688 C17.945309 26.091146 17.114588 26.109375 16.093750 26.109375 Z M1.125000 22.234375 C0.635414 22.234375 0.380208 22.145834 0.359375 21.968750 L0.046875 17.359375 C0.015625 16.973956 0.302080 16.781250 0.906250 16.781250 C1.510420 16.781250 1.828125 16.963540 1.859375 17.328125 L2.171875 21.875000 C2.192708 22.114585 1.843754 22.234375 1.125000 22.234375 Z M13.812500 26.562500 C13.270831 26.562500 12.994792 26.494792 12.984375 26.359375 L12.671875 21.453125 C12.661458 21.276041 12.765624 21.140625 12.984375 21.046875 C13.203126 20.953125 13.473957 20.906250 13.796875 20.906250 C14.130210 20.906250 14.398436 20.955729 14.601562 21.054688 C14.804689 21.153646 14.906250 21.276041 14.906250 21.421875 L14.906250 26.250000 C14.906250 26.458334 14.541670 26.562500 13.812500 26.562500 Z M12.968750 24.078125 C14.500008 21.182277 15.955722 18.382826 17.335938 15.679688 C18.716153 12.976549 19.984369 10.421887 21.140625 8.015625 L23.546875 3.000000 C22.703121 2.937500 21.752609 2.856771 20.695312 2.757812 C19.638016 2.658854 18.554693 2.554688 17.445312 2.445312 C16.335932 2.335937 15.278651 2.226563 14.273438 2.117188 C13.268224 2.007812 12.401045 1.906250 11.671875 1.812500 C11.296873 1.760416 10.992189 1.789062 10.757812 1.898438 C10.523436 2.007813 10.348959 2.223957 10.234375 2.546875 C9.598955 4.390634 9.013024 5.914056 8.476562 7.117188 C7.940101 8.320319 7.411461 9.380204 6.890625 10.296875 L6.609375 10.796875 C4.046862 15.359398 2.510419 18.473950 2.000000 20.140625 C2.614586 20.526044 3.380204 20.924477 4.296875 21.335938 C5.213546 21.747398 6.195307 22.140623 7.242188 22.515625 C8.289068 22.890627 9.312495 23.216144 10.312500 23.492188 C11.312505 23.768231 12.197913 23.963541 12.968750 24.078125 Z M22.921875 24.515625 L22.609375 22.828125 C23.796881 22.578124 24.979161 22.424479 26.156250 22.367188 C27.333339 22.309896 28.499994 22.281250 29.656250 22.281250 L29.562500 24.000000 C28.468745 24.000000 27.372401 24.026041 26.273438 24.078125 C25.174474 24.130209 24.057297 24.276040 22.921875 24.515625 Z M18.812500 25.937500 C18.249997 25.937500 17.776044 25.911459 17.390625 25.859375 C17.005206 25.807291 16.812500 25.729167 16.812500 25.625000 C16.812500 25.385415 17.020831 24.872400 17.437500 24.085938 C17.854169 23.299475 18.393226 22.346360 19.054688 21.226562 C19.716149 20.106765 20.411455 18.914069 21.140625 17.648438 C21.869795 16.382806 22.557288 15.138027 23.203125 13.914062 C23.848962 12.690098 24.359373 11.588547 24.734375 10.609375 L25.359375 8.984375 C25.453125 8.744790 25.593749 8.625000 25.781250 8.625000 C25.989584 8.625000 26.135416 8.765624 26.218750 9.046875 C26.447918 9.796879 26.742186 10.739578 27.101562 11.875000 C27.460939 13.010422 27.833331 14.109370 28.218750 15.171875 L28.515625 15.984375 C28.890627 16.994797 29.419267 17.934891 30.101562 18.804688 C30.783858 19.674484 31.484371 20.453122 32.203125 21.140625 C32.921879 21.828128 33.531248 22.411456 34.031250 22.890625 C34.531252 23.369794 34.781250 23.723957 34.781250 23.953125 C34.781250 24.088542 34.559898 24.236978 34.117188 24.398438 C33.674477 24.559897 33.138024 24.700520 32.507812 24.820312 C31.877601 24.940105 31.276045 25.000000 30.703125 25.000000 C30.328123 25.000000 29.950523 24.968750 29.570312 24.906250 C29.190102 24.843750 28.875001 24.755209 28.625000 24.640625 L26.718750 15.031250 C26.520832 14.041662 26.346355 13.309898 26.195312 12.835938 C26.044270 12.361977 25.911459 12.125000 25.796875 12.125000 C25.651041 12.125000 25.486980 12.359373 25.304688 12.828125 C25.122395 13.296877 24.937501 13.916663 24.750000 14.687500 C24.562499 15.458337 24.390626 16.302079 24.234375 17.218750 C24.078124 18.135421 23.953125 19.046870 23.859375 19.953125 C23.765625 20.859380 23.718750 21.671871 23.718750 22.390625 C23.718750 23.130212 23.710938 23.710935 23.695312 24.132812 C23.679687 24.554690 23.651042 24.843749 23.609375 25.000000 C23.567708 25.166668 23.317711 25.320312 22.859375 25.460938 C22.401039 25.601563 21.815108 25.716145 21.101562 25.804688 C20.388017 25.893230 19.625004 25.937500 18.812500 25.937500 Z M37.109375 24.546875 C36.859374 24.546875 36.625001 24.515625 36.406250 24.453125 C36.187499 24.390625 36.078125 24.328125 36.078125 24.265625 L36.250000 19.484375 C36.260417 19.151040 36.588538 18.984375 37.234375 18.984375 C37.880212 18.984375 38.192708 19.140623 38.171875 19.453125 L37.921875 24.187500 C37.901042 24.427085 37.630211 24.546875 37.109375 24.546875 Z M39.421875 24.218750" /></svg>