<svg version="1.1" xmlns="http://www.w3.org/2000/svg" style="fill:rgba(0,0,0,1.0)" width="256" height="256" viewBox="0 0 36.65625 32.8125"><path fill="rgb(255, 255, 255)" d="M17.093750 25.750000 C15.822910 25.750000 14.666672 25.393233 13.625000 24.679688 C12.583328 23.966142 11.833336 23.026048 11.375000 21.859375 C11.281250 21.859375 11.187500 21.859375 11.093750 21.859375 C11.000000 21.859375 10.906250 21.854167 10.812500 21.843750 C8.718740 21.718749 7.052090 20.885424 5.812500 19.343750 C5.302081 18.708330 4.919272 18.013025 4.664062 17.257812 C4.408853 16.502600 4.281250 15.734379 4.281250 14.953125 C4.281250 14.255205 4.421874 13.510421 4.703125 12.718750 C4.984376 11.927079 5.374998 11.229170 5.875000 10.625000 C5.531248 9.791663 5.359375 8.921880 5.359375 8.015625 C5.359375 6.765619 5.664059 5.627609 6.273438 4.601562 C6.882816 3.575516 7.697912 2.757816 8.718750 2.148438 C9.739588 1.539059 10.874994 1.234375 12.125000 1.234375 C12.885420 1.234375 13.609372 1.354165 14.296875 1.593750 C15.588548 0.531245 17.052075 -0.000000 18.687500 -0.000000 C20.041673 -0.000000 21.307286 0.385413 22.484375 1.156250 C23.192712 0.979166 23.880205 0.890625 24.546875 0.890625 C26.026049 0.890625 27.372390 1.249996 28.585938 1.968750 C29.799485 2.687504 30.765621 3.651036 31.484375 4.859375 C32.203129 6.067714 32.562500 7.411451 32.562500 8.890625 C32.562500 9.848963 32.406252 10.760412 32.093750 11.625000 C32.489585 12.510421 32.687500 13.427079 32.687500 14.375000 C32.687500 15.541672 32.395836 16.645828 31.812500 17.687500 C31.229164 18.729172 30.437505 19.572913 29.437500 20.218750 C29.229166 21.114588 28.838545 21.914059 28.265625 22.617188 C27.692705 23.320316 26.994796 23.874998 26.171875 24.281250 C25.348954 24.687502 24.463546 24.890625 23.515625 24.890625 C22.651037 24.890625 21.812504 24.703127 21.000000 24.328125 C19.854161 25.276046 18.552091 25.750000 17.093750 25.750000 Z M2.484375 32.812500 C1.796872 32.812500 1.210940 32.570315 0.726562 32.085938 C0.242185 31.601560 0.000000 31.015628 0.000000 30.328125 C0.000000 29.640622 0.242185 29.054690 0.726562 28.570312 C1.210940 28.085935 1.796872 27.843750 2.484375 27.843750 C3.171878 27.843750 3.757810 28.085935 4.242188 28.570312 C4.726565 29.054690 4.968750 29.640622 4.968750 30.328125 C4.968750 31.015628 4.726565 31.601560 4.242188 32.085938 C3.757810 32.570315 3.171878 32.812500 2.484375 32.812500 Z M2.484375 31.406250 C2.786460 31.406250 3.041666 31.299480 3.250000 31.085938 C3.458334 30.872395 3.562500 30.619793 3.562500 30.328125 C3.562500 30.026040 3.458334 29.770834 3.250000 29.562500 C3.041666 29.354166 2.786460 29.250000 2.484375 29.250000 C2.192707 29.250000 1.940105 29.354166 1.726562 29.562500 C1.513020 29.770834 1.406250 30.026040 1.406250 30.328125 C1.406250 30.619793 1.513020 30.872395 1.726562 31.085938 C1.940105 31.299480 2.192707 31.406250 2.484375 31.406250 Z M7.718750 28.875000 C6.822912 28.875000 6.062503 28.562503 5.437500 27.937500 C4.812497 27.312497 4.500000 26.552088 4.500000 25.656250 C4.500000 24.760412 4.815101 24.002607 5.445312 23.382812 C6.075524 22.763018 6.833329 22.453125 7.718750 22.453125 C8.614588 22.453125 9.372393 22.763018 9.992188 23.382812 C10.611982 24.002607 10.921875 24.760412 10.921875 25.656250 C10.921875 26.541671 10.611982 27.299476 9.992188 27.929688 C9.372393 28.559899 8.614588 28.875000 7.718750 28.875000 Z M7.718750 27.312500 C8.177086 27.312500 8.565103 27.151043 8.882812 26.828125 C9.200522 26.505207 9.359375 26.114586 9.359375 25.656250 C9.359375 25.197914 9.200522 24.809897 8.882812 24.492188 C8.565103 24.174478 8.177086 24.015625 7.718750 24.015625 C7.260414 24.015625 6.869793 24.174478 6.546875 24.492188 C6.223957 24.809897 6.062500 25.197914 6.062500 25.656250 C6.062500 26.114586 6.223957 26.505207 6.546875 26.828125 C6.869793 27.151043 7.260414 27.312500 7.718750 27.312500 Z M17.093750 23.875000 C17.802087 23.875000 18.479163 23.697918 19.125000 23.343750 C19.770837 22.989582 20.281248 22.505211 20.656250 21.890625 C21.520838 22.640629 22.473953 23.015625 23.515625 23.015625 C24.546880 23.015625 25.460934 22.656254 26.257812 21.937500 C27.054691 21.218746 27.526041 20.218756 27.671875 18.937500 C28.723964 18.416664 29.510414 17.763025 30.031250 16.976562 C30.552086 16.190100 30.812500 15.322921 30.812500 14.375000 C30.812500 13.468745 30.541669 12.572921 30.000000 11.687500 C30.458336 10.812496 30.687500 9.880213 30.687500 8.890625 C30.687500 7.755203 30.411461 6.726567 29.859375 5.804688 C29.307289 4.882808 28.567713 4.145836 27.640625 3.593750 C26.713537 3.041664 25.682297 2.765625 24.546875 2.765625 C23.765621 2.765625 22.958338 2.916665 22.125000 3.218750 C21.083328 2.322912 19.937506 1.875000 18.687500 1.875000 C17.927080 1.875000 17.197920 2.044269 16.500000 2.382812 C15.802080 2.721356 15.203128 3.208330 14.703125 3.843750 C13.911454 3.354164 13.052088 3.109375 12.125000 3.109375 C11.218745 3.109375 10.395837 3.330727 9.656250 3.773438 C8.916663 4.216148 8.328127 4.807288 7.890625 5.546875 C7.453123 6.286462 7.234375 7.109370 7.234375 8.015625 C7.234375 8.578128 7.315103 9.101560 7.476562 9.585938 C7.638022 10.070315 7.880207 10.520831 8.203125 10.937500 C7.536455 11.479169 7.026043 12.091142 6.671875 12.773438 C6.317707 13.455733 6.140625 14.213538 6.140625 15.046875 C6.140625 16.171881 6.520830 17.208329 7.281250 18.156250 C7.864586 18.885420 8.502601 19.374999 9.195312 19.625000 C9.888024 19.875001 10.708329 20.000000 11.656250 20.000000 C11.812501 20.000000 11.973958 19.994792 12.140625 19.984375 C12.307292 19.973958 12.479166 19.963542 12.656250 19.953125 C13.052085 21.244798 13.638017 22.221351 14.414062 22.882812 C15.190108 23.544274 16.083328 23.875000 17.093750 23.875000 Z M36.656250 27.343750" /></svg>