<svg version="1.1" xmlns="http://www.w3.org/2000/svg" style="fill:rgba(0,0,0,1.0)" width="256" height="256" viewBox="0 0 37.25 32.8125"><path fill="rgb(255, 255, 255)" d="M16.562500 31.281250 C16.177081 31.281250 15.877605 31.130210 15.664062 30.828125 C15.450520 30.526040 15.380208 30.182294 15.453125 29.796875 L16.203125 26.125000 L12.812500 26.125000 C12.427081 26.125000 12.111980 26.007814 11.867188 25.773438 C11.622395 25.539061 11.500000 25.234377 11.500000 24.859375 C11.500000 24.619790 11.546875 24.380210 11.640625 24.140625 L13.250000 20.015625 L4.750000 20.015625 C3.239576 20.015625 2.070317 19.635420 1.242188 18.875000 C0.414058 18.114580 0.000000 17.119798 0.000000 15.890625 C0.000000 14.546868 0.471349 13.481775 1.414062 12.695312 C2.356776 11.908850 3.614575 11.458334 5.187500 11.343750 C5.281250 10.333328 5.598956 9.424483 6.140625 8.617188 C6.682294 7.809892 7.380204 7.169273 8.234375 6.695312 C9.088546 6.221352 10.020828 5.984375 11.031250 5.984375 C11.114584 5.984375 11.234374 5.986979 11.390625 5.992188 C11.546876 5.997396 11.708332 6.005208 11.875000 6.015625 C12.302085 4.817702 12.953121 3.768234 13.828125 2.867188 C14.703129 1.966141 15.723953 1.263023 16.890625 0.757812 C18.057298 0.252602 19.286452 -0.000000 20.578125 -0.000000 C21.828131 -0.000000 23.010411 0.234373 24.125000 0.703125 C25.239589 1.171877 26.221350 1.822913 27.070312 2.656250 C27.919275 3.489587 28.588539 4.455724 29.078125 5.554688 C29.567711 6.653651 29.812500 7.833327 29.812500 9.093750 C29.812500 9.656253 29.755209 10.249997 29.640625 10.875000 C30.942715 11.093751 31.973955 11.624996 32.734375 12.468750 C33.494795 13.312504 33.875000 14.338536 33.875000 15.546875 C33.875000 16.901048 33.369797 17.984371 32.359375 18.796875 C31.348953 19.609379 30.005217 20.015625 28.328125 20.015625 L20.562500 20.015625 L19.937500 21.359375 L22.046875 21.359375 C22.432294 21.359375 22.755207 21.471353 23.015625 21.695312 C23.276043 21.919272 23.406250 22.218748 23.406250 22.593750 C23.406250 22.958335 23.286460 23.302082 23.046875 23.625000 L17.562500 30.765625 C17.302082 31.109377 16.968752 31.281250 16.562500 31.281250 Z M9.234375 32.812500 C8.723956 32.812500 8.291668 32.658856 7.937500 32.351562 C7.583332 32.044269 7.406250 31.671877 7.406250 31.234375 C7.406250 30.901040 7.523436 30.510419 7.757812 30.062500 C7.992189 29.614581 8.283852 29.179690 8.632812 28.757812 C8.981773 28.335935 9.341144 27.984376 9.710938 27.703125 C10.080731 27.421874 10.401040 27.281250 10.671875 27.281250 C10.859376 27.281250 11.000000 27.406249 11.093750 27.656250 C11.187500 27.906251 11.234375 28.390621 11.234375 29.109375 C11.234375 31.578137 10.567715 32.812500 9.234375 32.812500 Z M5.484375 26.875000 C4.973956 26.875000 4.541668 26.721356 4.187500 26.414062 C3.833332 26.106769 3.656250 25.734377 3.656250 25.296875 C3.656250 24.963540 3.773436 24.572919 4.007812 24.125000 C4.242189 23.677081 4.533852 23.242190 4.882812 22.820312 C5.231773 22.398435 5.591144 22.046876 5.960938 21.765625 C6.330731 21.484374 6.651040 21.343750 6.921875 21.343750 C7.109376 21.343750 7.250000 21.468749 7.343750 21.718750 C7.437500 21.968751 7.484375 22.453121 7.484375 23.171875 C7.484375 25.640637 6.817715 26.875000 5.484375 26.875000 Z M17.562500 28.187500 L21.468750 23.109375 C21.510417 23.057291 21.520833 23.013021 21.500000 22.976562 C21.479167 22.940104 21.437500 22.921875 21.375000 22.921875 L17.468750 22.921875 L18.828125 20.015625 L14.921875 20.015625 L13.218750 24.375000 C13.166666 24.500001 13.208333 24.562500 13.343750 24.562500 L18.125000 24.562500 L17.390625 28.093750 C17.380208 28.166667 17.395833 28.216146 17.437500 28.242188 C17.479167 28.268229 17.520833 28.250000 17.562500 28.187500 Z M27.515625 26.875000 C27.005206 26.875000 26.572918 26.721356 26.218750 26.414062 C25.864582 26.106769 25.687500 25.734377 25.687500 25.296875 C25.687500 24.963540 25.804686 24.572919 26.039062 24.125000 C26.273439 23.677081 26.565102 23.242190 26.914062 22.820312 C27.263023 22.398435 27.622394 22.046876 27.992188 21.765625 C28.361981 21.484374 28.682290 21.343750 28.953125 21.343750 C29.140626 21.343750 29.281250 21.468749 29.375000 21.718750 C29.468750 21.968751 29.515625 22.453121 29.515625 23.171875 C29.515625 25.640637 28.848965 26.875000 27.515625 26.875000 Z M5.218750 18.296875 L28.328125 18.296875 C29.557298 18.296875 30.476559 18.067711 31.085938 17.609375 C31.695316 17.151039 32.000000 16.463546 32.000000 15.546875 C32.000000 14.505203 31.593754 13.716149 30.781250 13.179688 C29.968746 12.643226 28.880215 12.322917 27.515625 12.218750 C27.651042 11.729164 27.755208 11.231773 27.828125 10.726562 C27.901042 10.221352 27.937500 9.729169 27.937500 9.250000 C27.937500 7.864576 27.611982 6.601568 26.960938 5.460938 C26.309893 4.320307 25.429693 3.411462 24.320312 2.734375 C23.210932 2.057288 21.963549 1.718750 20.578125 1.718750 C19.536453 1.718750 18.562505 1.916665 17.656250 2.312500 C16.749995 2.708335 15.955733 3.263017 15.273438 3.976562 C14.591142 4.690108 14.062502 5.520829 13.687500 6.468750 C14.781255 6.927086 15.653643 7.648433 16.304688 8.632812 C16.955732 9.617192 17.281250 10.697911 17.281250 11.875000 L15.562500 11.875000 C15.562500 11.052079 15.382814 10.328128 15.023438 9.703125 C14.664061 9.078122 14.164066 8.588543 13.523438 8.234375 C12.882809 7.880207 12.145838 7.703125 11.312500 7.703125 C10.510413 7.703125 9.776045 7.901040 9.109375 8.296875 C8.442705 8.692710 7.911460 9.216143 7.515625 9.867188 C7.119790 10.518232 6.921875 11.239579 6.921875 12.031250 L6.921875 12.937500 C5.098949 13.062501 3.802087 13.354164 3.031250 13.812500 C2.260413 14.270836 1.875000 14.963537 1.875000 15.890625 C1.875000 16.713546 2.153643 17.320311 2.710938 17.710938 C3.268232 18.101564 4.104161 18.296875 5.218750 18.296875 Z M37.250000 27.343750" /></svg>