<svg version="1.1" xmlns="http://www.w3.org/2000/svg" style="fill:rgba(0,0,0,1.0)" width="256" height="256" viewBox="0 0 38.03125 32.8125"><path fill="rgb(255, 255, 255)" d="M1.156250 32.812500 C0.802082 32.812500 0.520834 32.705730 0.312500 32.492188 C0.104166 32.278645 0.000000 31.994793 0.000000 31.640625 L0.000000 15.812500 C0.000000 15.416665 0.093749 15.119793 0.281250 14.921875 C0.468751 14.723957 0.708332 14.625000 1.000000 14.625000 C1.125001 14.625000 1.263020 14.643229 1.414062 14.679688 C1.565105 14.716146 1.718749 14.776041 1.875000 14.859375 L9.468750 18.750000 L10.187500 15.718750 C10.270834 15.343748 10.403645 15.067709 10.585938 14.890625 C10.768230 14.713541 11.005207 14.625000 11.296875 14.625000 C11.567710 14.625000 11.859373 14.703124 12.171875 14.859375 L21.312500 19.515625 L21.312500 6.437500 L20.687500 6.437500 L20.687500 4.562500 L35.437500 4.562500 L35.437500 6.437500 L34.750000 6.437500 L34.750000 32.812500 Z M1.718750 31.406250 L9.906250 31.406250 L9.906250 20.937500 L1.562500 20.937500 L1.562500 31.250000 C1.562500 31.354167 1.614583 31.406250 1.718750 31.406250 Z M3.312500 28.125000 L3.312500 23.437500 L8.156250 23.437500 L8.156250 28.125000 Z M4.562500 26.875000 L6.906250 26.875000 L6.906250 24.687500 L4.562500 24.687500 Z M11.468750 31.406250 L21.312500 31.406250 L21.312500 20.937500 L11.468750 20.937500 Z M13.968750 28.125000 L13.968750 23.437500 L18.812500 23.437500 L18.812500 28.125000 Z M15.218750 26.875000 L17.562500 26.875000 L17.562500 24.687500 L15.218750 24.687500 Z M3.093750 16.546875 L3.093750 14.671875 L9.515625 14.671875 L9.515625 16.546875 Z M9.375000 19.593750 L8.000000 8.531250 L8.390625 7.984375 C8.473959 7.869791 8.528646 7.789063 8.554688 7.742188 C8.580729 7.695312 8.593750 7.661458 8.593750 7.640625 C8.593750 7.619792 8.583333 7.601563 8.562500 7.585938 C8.541667 7.570312 8.520833 7.562500 8.500000 7.562500 L3.890625 7.562500 C3.869792 7.562500 3.848958 7.570312 3.828125 7.585938 C3.807292 7.601563 3.796875 7.619792 3.796875 7.640625 C3.796875 7.661458 3.812500 7.695312 3.843750 7.742188 C3.875000 7.789063 3.927083 7.869791 4.000000 7.984375 L4.390625 8.531250 L3.484375 15.953125 L2.000000 15.187500 L2.781250 8.843750 C2.614582 8.687499 2.484375 8.505209 2.390625 8.296875 C2.296875 8.088541 2.250000 7.869793 2.250000 7.640625 C2.250000 7.182289 2.411457 6.794272 2.734375 6.476562 C3.057293 6.158853 3.442706 6.000000 3.890625 6.000000 L8.500000 6.000000 C8.958336 6.000000 9.346353 6.158853 9.664062 6.476562 C9.981772 6.794272 10.140625 7.182289 10.140625 7.640625 C10.140625 7.869793 10.093750 8.088541 10.000000 8.296875 C9.906250 8.505209 9.776042 8.687499 9.609375 8.843750 L10.921875 19.312500 Z M3.406250 12.171875 L3.406250 10.296875 L8.890625 10.296875 L8.890625 12.171875 Z M13.250000 16.546875 L13.250000 14.671875 L19.671875 14.671875 L19.671875 16.546875 Z M19.515625 19.656250 L18.156250 8.531250 L18.546875 7.984375 C18.630209 7.869791 18.684896 7.789063 18.710938 7.742188 C18.736979 7.695312 18.750000 7.661458 18.750000 7.640625 C18.750000 7.619792 18.739583 7.601563 18.718750 7.585938 C18.697917 7.570312 18.677083 7.562500 18.656250 7.562500 L14.046875 7.562500 C14.026042 7.562500 14.005208 7.570312 13.984375 7.585938 C13.963542 7.601563 13.953125 7.619792 13.953125 7.640625 C13.953125 7.661458 13.968750 7.695312 14.000000 7.742188 C14.031250 7.789063 14.083333 7.869791 14.156250 7.984375 L14.546875 8.531250 L13.625000 16.015625 L12.140625 15.296875 L12.937500 8.843750 C12.770833 8.687499 12.640625 8.505209 12.546875 8.296875 C12.453125 8.088541 12.406250 7.869793 12.406250 7.640625 C12.406250 7.182289 12.567707 6.794272 12.890625 6.476562 C13.213543 6.158853 13.598956 6.000000 14.046875 6.000000 L18.656250 6.000000 C19.114586 6.000000 19.502603 6.158853 19.820312 6.476562 C20.138022 6.794272 20.296875 7.182289 20.296875 7.640625 C20.296875 7.869793 20.250000 8.088541 20.156250 8.296875 C20.062500 8.505209 19.932292 8.687499 19.765625 8.843750 L21.078125 19.531250 Z M13.718750 12.171875 L13.718750 10.296875 L19.203125 10.296875 L19.203125 12.171875 Z M3.093750 7.125000 C2.979166 6.749998 2.890625 6.395835 2.828125 6.062500 C2.765625 5.729165 2.734375 5.411460 2.734375 5.109375 C2.734375 2.078110 5.453098 0.562500 10.890625 0.562500 C11.734379 0.562500 12.374998 0.523438 12.812500 0.445312 C13.250002 0.367187 13.598957 0.281250 13.859375 0.187500 C13.994792 0.135416 14.130208 0.091146 14.265625 0.054688 C14.401042 0.018229 14.510416 -0.000000 14.593750 -0.000000 C14.864585 -0.000000 15.096353 0.088541 15.289062 0.265625 C15.481772 0.442709 15.578125 0.671874 15.578125 0.953125 C15.578125 1.546878 15.335940 2.109372 14.851562 2.640625 C14.367185 3.171878 13.671880 3.635415 12.765625 4.031250 C12.348956 4.208334 11.841149 4.388020 11.242188 4.570312 C10.643226 4.752605 10.177085 5.026040 9.843750 5.390625 C9.645832 5.609376 9.481771 5.841145 9.351562 6.085938 C9.221354 6.330730 9.130209 6.604165 9.078125 6.906250 L7.609375 6.328125 C7.703125 5.953123 7.841145 5.598960 8.023438 5.265625 C8.205730 4.932290 8.427082 4.619793 8.687500 4.328125 C8.947918 4.046874 9.257811 3.812501 9.617188 3.625000 C9.976564 3.437499 10.356769 3.270834 10.757812 3.125000 C11.158856 2.979166 11.565102 2.822917 11.976562 2.656250 C12.388023 2.489583 12.781248 2.281251 13.156250 2.031250 C13.239584 1.979166 13.268229 1.942708 13.242188 1.921875 C13.216146 1.901042 13.177084 1.895833 13.125000 1.906250 C12.729165 2.000000 12.356773 2.059896 12.007812 2.085938 C11.658852 2.111979 11.286460 2.125000 10.890625 2.125000 C8.609364 2.125000 6.940109 2.372393 5.882812 2.867188 C4.825516 3.361982 4.296875 4.109370 4.296875 5.109375 C4.296875 5.536460 4.374999 5.989581 4.531250 6.468750 Z M22.875000 31.406250 L24.437500 31.406250 L24.437500 22.453125 C24.437500 22.192707 24.567707 22.062500 24.828125 22.062500 L31.234375 22.062500 C31.494793 22.062500 31.625000 22.192707 31.625000 22.453125 L31.625000 31.406250 L33.187500 31.406250 L33.187500 6.437500 L31.937500 6.437500 L31.937500 19.875000 L24.125000 19.875000 L24.125000 6.437500 L22.875000 6.437500 Z M25.609375 18.468750 L30.453125 18.468750 L30.453125 15.343750 L25.609375 15.343750 Z M25.609375 14.015625 L30.453125 14.015625 L30.453125 10.890625 L25.609375 10.890625 Z M13.421875 7.156250 C13.359375 6.822915 13.317708 6.546876 13.296875 6.328125 C13.276042 6.109374 13.265625 5.916667 13.265625 5.750000 C13.265625 4.093742 13.934889 2.833338 15.273438 1.968750 C16.611986 1.104162 18.541654 0.671875 21.062500 0.671875 C21.822920 0.671875 22.361978 0.630209 22.679688 0.546875 C22.997397 0.463541 23.260416 0.375000 23.468750 0.281250 C23.812502 0.135416 24.104165 0.062500 24.343750 0.062500 C24.614585 0.062500 24.846353 0.151041 25.039062 0.328125 C25.231772 0.505209 25.328125 0.734374 25.328125 1.015625 C25.328125 1.630211 25.085940 2.158852 24.601562 2.601562 C24.117185 3.044273 23.380213 3.541664 22.390625 4.093750 C21.484370 4.604169 20.848960 5.013019 20.484375 5.320312 C20.119790 5.627606 19.895834 5.932290 19.812500 6.234375 L19.609375 7.015625 L18.171875 6.328125 L18.281250 5.859375 C18.406251 5.317706 18.723956 4.804690 19.234375 4.320312 C19.744794 3.835935 20.515620 3.307295 21.546875 2.734375 C21.682292 2.661458 21.815104 2.588542 21.945312 2.515625 C22.075521 2.442708 22.208333 2.369792 22.343750 2.296875 C22.395834 2.265625 22.419271 2.231771 22.414062 2.195312 C22.408854 2.158854 22.375000 2.145833 22.312500 2.156250 C22.072915 2.187500 21.856772 2.208333 21.664062 2.218750 C21.471353 2.229167 21.270834 2.234375 21.062500 2.234375 C18.989573 2.234375 17.432297 2.526039 16.390625 3.109375 C15.348953 3.692711 14.828125 4.572911 14.828125 5.750000 C14.828125 5.822917 14.828125 5.901041 14.828125 5.984375 C14.828125 6.067709 14.833333 6.151041 14.843750 6.234375 Z M25.609375 9.562500 L30.453125 9.562500 L30.453125 6.437500 L25.609375 6.437500 Z M38.031250 27.343750" /></svg>