<svg version="1.1" xmlns="http://www.w3.org/2000/svg" style="fill:rgba(0,0,0,1.0)" width="256" height="256" viewBox="0 0 38.28125 21.875"><path fill="rgb(255, 255, 255)" d="M0.000000 21.875000 L0.000000 -0.000000 L35.937500 -0.000000 L35.937500 21.875000 Z M4.640625 17.687500 L4.640625 15.031250 L6.203125 15.031250 L6.203125 17.687500 Z M7.140625 17.687500 L7.140625 15.031250 L9.484375 15.031250 L9.484375 17.687500 Z M10.578125 17.687500 L10.578125 15.031250 L12.921875 15.031250 L12.921875 17.687500 Z M4.640625 13.937500 L4.640625 12.218750 L12.437500 12.218750 L12.437500 13.937500 Z M4.640625 11.281250 L4.640625 9.562500 L12.437500 9.562500 L12.437500 11.281250 Z M13.859375 17.687500 L13.859375 15.031250 L15.421875 15.031250 L15.421875 17.687500 Z M16.359375 17.687500 L16.359375 15.031250 L17.921875 15.031250 L17.921875 17.687500 Z M4.640625 8.000000 L4.640625 6.125000 L16.171875 6.125000 L16.171875 8.000000 Z M14.640625 12.234375 L14.640625 9.578125 L17.921875 9.578125 L17.921875 12.234375 Z M23.156250 18.656250 C22.718748 18.656250 22.348960 18.502606 22.046875 18.195312 C21.744790 17.888019 21.593750 17.520835 21.593750 17.093750 C21.593750 16.666665 21.744790 16.299481 22.046875 15.992188 C22.348960 15.684894 22.718748 15.531250 23.156250 15.531250 C23.583335 15.531250 23.950519 15.684894 24.257812 15.992188 C24.565106 16.299481 24.718750 16.666665 24.718750 17.093750 C24.718750 17.520835 24.565106 17.888019 24.257812 18.195312 C23.950519 18.502606 23.583335 18.656250 23.156250 18.656250 Z M1.875000 20.000000 L34.062500 20.000000 L34.062500 1.875000 L1.875000 1.875000 Z M23.156250 14.546875 C22.718748 14.546875 22.348960 14.393231 22.046875 14.085938 C21.744790 13.778644 21.593750 13.411460 21.593750 12.984375 C21.593750 12.557290 21.744790 12.190106 22.046875 11.882812 C22.348960 11.575519 22.718748 11.421875 23.156250 11.421875 C23.583335 11.421875 23.950519 11.575519 24.257812 11.882812 C24.565106 12.190106 24.718750 12.557290 24.718750 12.984375 C24.718750 13.411460 24.565106 13.778644 24.257812 14.085938 C23.950519 14.393231 23.583335 14.546875 23.156250 14.546875 Z M27.078125 17.921875 L27.078125 16.046875 L32.406250 16.046875 L32.406250 17.921875 Z M23.156250 10.453125 C22.718748 10.453125 22.348960 10.299481 22.046875 9.992188 C21.744790 9.684894 21.593750 9.317710 21.593750 8.890625 C21.593750 8.463540 21.744790 8.096356 22.046875 7.789062 C22.348960 7.481769 22.718748 7.328125 23.156250 7.328125 C23.583335 7.328125 23.950519 7.481769 24.257812 7.789062 C24.565106 8.096356 24.718750 8.463540 24.718750 8.890625 C24.718750 9.317710 24.565106 9.684894 24.257812 9.992188 C23.950519 10.299481 23.583335 10.453125 23.156250 10.453125 Z M27.078125 14.796875 L27.078125 12.921875 L32.406250 12.921875 L32.406250 14.796875 Z M23.156250 6.343750 C22.718748 6.343750 22.348960 6.190106 22.046875 5.882812 C21.744790 5.575519 21.593750 5.208335 21.593750 4.781250 C21.593750 4.354165 21.744790 3.986981 22.046875 3.679688 C22.348960 3.372394 22.718748 3.218750 23.156250 3.218750 C23.583335 3.218750 23.950519 3.372394 24.257812 3.679688 C24.565106 3.986981 24.718750 4.354165 24.718750 4.781250 C24.718750 5.208335 24.565106 5.575519 24.257812 5.882812 C23.950519 6.190106 23.583335 6.343750 23.156250 6.343750 Z M27.078125 11.359375 L27.078125 6.828125 L32.406250 6.828125 L32.406250 11.359375 Z M38.281250 21.875000" /></svg>