<svg version="1.1" xmlns="http://www.w3.org/2000/svg" style="fill:rgba(0,0,0,1.0)" width="256" height="256" viewBox="0 0 36.71265905217415 32.8125"><path fill="rgb(255, 255, 255)" d="M3.046875 32.812500 C2.119787 32.812500 1.380211 32.523440 0.828125 31.945312 C0.276039 31.367185 0.031250 30.609380 0.093750 29.671875 L1.000000 15.390625 C1.145834 13.119780 1.632808 11.046884 2.460938 9.171875 C3.289067 7.296866 4.390618 5.671882 5.765625 4.296875 C7.140632 2.921868 8.739574 1.861983 10.562500 1.117188 C12.385426 0.372392 14.359364 -0.000000 16.484375 -0.000000 C18.609386 -0.000000 20.583324 0.372392 22.406250 1.117188 C24.229176 1.861983 25.828118 2.921868 27.203125 4.296875 C28.578132 5.671882 29.679683 7.296866 30.507812 9.171875 C31.335942 11.046884 31.822916 13.119780 31.968750 15.390625 L32.875000 29.671875 C32.937500 30.609380 32.692711 31.367185 32.140625 31.945312 C31.588539 32.523440 30.848963 32.812500 29.921875 32.812500 Z M10.687500 29.421875 C9.406244 28.880206 8.216151 28.174484 7.117188 27.304688 C6.018224 26.434891 5.057296 25.432297 4.234375 24.296875 C4.067708 24.057290 4.005208 23.812501 4.046875 23.562500 C4.088542 23.312499 4.234374 23.109376 4.484375 22.953125 C4.713543 22.807291 4.947915 22.763021 5.187500 22.820312 C5.427085 22.877604 5.624999 23.015624 5.781250 23.234375 C6.500004 24.213547 7.333329 25.083330 8.281250 25.843750 C9.229171 26.604170 10.260411 27.213539 11.375000 27.671875 C11.614585 27.776042 11.789062 27.934895 11.898438 28.148438 C12.007813 28.361980 12.020834 28.598957 11.937500 28.859375 C11.854166 29.119793 11.692710 29.304687 11.453125 29.414062 C11.213540 29.523438 10.958335 29.526042 10.687500 29.421875 Z M11.734375 25.218750 L13.062500 22.921875 L11.718750 22.140625 L10.390625 24.437500 Z M7.500000 21.546875 L9.796875 20.218750 L9.015625 18.875000 L6.718750 20.203125 Z M15.687500 26.281250 L17.281250 26.281250 L17.281250 23.625000 L15.687500 23.625000 Z M5.656250 16.250000 L8.312500 16.250000 L8.312500 14.687500 L5.656250 14.687500 Z M9.015625 12.062500 L9.796875 10.718750 L7.500000 9.390625 L6.718750 10.734375 Z M21.234375 25.218750 L22.578125 24.437500 L21.250000 22.140625 L19.906250 22.921875 Z M22.281250 29.421875 C22.020832 29.526042 21.768230 29.523438 21.523438 29.414062 C21.278645 29.304687 21.114584 29.119793 21.031250 28.859375 C20.947916 28.598957 20.960937 28.361980 21.070312 28.148438 C21.179688 27.934895 21.354165 27.776042 21.593750 27.671875 C22.708339 27.213539 23.739579 26.604170 24.687500 25.843750 C25.635421 25.083330 26.468746 24.213547 27.187500 23.234375 C27.343751 23.015624 27.541665 22.877604 27.781250 22.820312 C28.020835 22.763021 28.255207 22.807291 28.484375 22.953125 C28.734376 23.109376 28.882812 23.312499 28.929688 23.562500 C28.976563 23.812501 28.911459 24.057290 28.734375 24.296875 C27.911454 25.432297 26.950526 26.434891 25.851562 27.304688 C24.752599 28.174484 23.562506 28.880206 22.281250 29.421875 Z M3.046875 30.937500 L29.921875 30.937500 C30.317710 30.937500 30.601562 30.843751 30.773438 30.656250 C30.945313 30.468749 31.020833 30.182294 31.000000 29.796875 L30.093750 15.515625 C29.968749 13.494782 29.541670 11.651050 28.812500 9.984375 C28.083330 8.317700 27.114589 6.877610 25.906250 5.664062 C24.697911 4.450515 23.294279 3.515628 21.695312 2.859375 C20.096346 2.203122 18.359384 1.875000 16.484375 1.875000 C14.609366 1.875000 12.872404 2.203122 11.273438 2.859375 C9.674471 3.515628 8.270839 4.450515 7.062500 5.664062 C5.854161 6.877610 4.885420 8.317700 4.156250 9.984375 C3.427080 11.651050 3.000001 13.494782 2.875000 15.515625 L1.968750 29.796875 C1.947917 30.182294 2.026041 30.468749 2.203125 30.656250 C2.380209 30.843751 2.661456 30.937500 3.046875 30.937500 Z M16.484375 27.218750 C18.109383 27.218750 19.632805 26.914066 21.054688 26.304688 C22.476570 25.695309 23.726557 24.854172 24.804688 23.781250 C25.882818 22.708328 26.726559 21.463549 27.335938 20.046875 C27.945316 18.630201 28.250000 17.109383 28.250000 15.484375 C28.250000 13.859367 27.945316 12.335945 27.335938 10.914062 C26.726559 9.492180 25.882818 8.242193 24.804688 7.164062 C23.726557 6.085932 22.476570 5.242191 21.054688 4.632812 C19.632805 4.023434 18.109383 3.718750 16.484375 3.718750 C14.859367 3.718750 13.335945 4.023434 11.914062 4.632812 C10.492180 5.242191 9.242193 6.085932 8.164062 7.164062 C7.085932 8.242193 6.242191 9.492180 5.632812 10.914062 C5.023434 12.335945 4.718750 13.859367 4.718750 15.484375 C4.718750 17.109383 5.023434 18.630201 5.632812 20.046875 C6.242191 21.463549 7.085932 22.708328 8.164062 23.781250 C9.242193 24.854172 10.492180 25.695309 11.914062 26.304688 C13.335945 26.914066 14.859367 27.218750 16.484375 27.218750 Z M16.484375 25.343750 C15.119785 25.343750 13.838548 25.088544 12.640625 24.578125 C11.442702 24.067706 10.390630 23.361984 9.484375 22.460938 C8.578120 21.559891 7.869794 20.513027 7.359375 19.320312 C6.848956 18.127598 6.593750 16.848965 6.593750 15.484375 C6.593750 14.109368 6.848956 12.825527 7.359375 11.632812 C7.869794 10.440098 8.578120 9.390630 9.484375 8.484375 C10.390630 7.578120 11.442702 6.869794 12.640625 6.359375 C13.838548 5.848956 15.119785 5.593750 16.484375 5.593750 C17.848965 5.593750 19.130202 5.848956 20.328125 6.359375 C21.526048 6.869794 22.578120 7.578120 23.484375 8.484375 C24.390630 9.390630 25.098956 10.440098 25.609375 11.632812 C26.119794 12.825527 26.375000 14.109368 26.375000 15.484375 C26.375000 16.848965 26.119794 18.127598 25.609375 19.320312 C25.098956 20.513027 24.390630 21.559891 23.484375 22.460938 C22.578120 23.361984 21.526048 24.067706 20.328125 24.578125 C19.130202 25.088544 17.848965 25.343750 16.484375 25.343750 Z M16.484375 22.531250 C15.796872 22.531250 15.161461 22.361981 14.578125 22.023438 C13.994789 21.684894 13.528648 21.226565 13.179688 20.648438 C12.830727 20.070310 12.656250 19.427087 12.656250 18.718750 L12.656250 12.218750 C12.656250 11.510413 12.830727 10.867190 13.179688 10.289062 C13.528648 9.710935 13.994789 9.252606 14.578125 8.914062 C15.161461 8.575519 15.796872 8.406250 16.484375 8.406250 C17.182295 8.406250 17.820310 8.575519 18.398438 8.914062 C18.976565 9.252606 19.440102 9.710935 19.789062 10.289062 C20.138023 10.867190 20.312500 11.510413 20.312500 12.218750 L20.312500 18.718750 C20.312500 19.427087 20.138023 20.070310 19.789062 20.648438 C19.440102 21.226565 18.976565 21.684894 18.398438 22.023438 C17.820310 22.361981 17.182295 22.531250 16.484375 22.531250 Z M16.484375 20.968750 C17.098961 20.968750 17.630206 20.752606 18.078125 20.320312 C18.526044 19.888019 18.750000 19.354170 18.750000 18.718750 L18.750000 12.218750 C18.750000 11.583330 18.526044 11.049481 18.078125 10.617188 C17.630206 10.184894 17.098961 9.968750 16.484375 9.968750 C15.880205 9.968750 15.351565 10.184894 14.898438 10.617188 C14.445310 11.049481 14.218750 11.583330 14.218750 12.218750 L14.218750 18.718750 C14.218750 19.354170 14.445310 19.888019 14.898438 20.320312 C15.351565 20.752606 15.880205 20.968750 16.484375 20.968750 Z M15.703125 19.000000 L15.703125 11.468750 L17.265625 11.468750 L17.265625 19.000000 Z M25.468750 21.546875 L26.250000 20.203125 L23.953125 18.875000 L23.171875 20.218750 Z M11.718750 8.796875 L13.062500 8.015625 L11.734375 5.718750 L10.390625 6.500000 Z M15.687500 7.312500 L17.281250 7.312500 L17.281250 4.656250 L15.687500 4.656250 Z M24.656250 16.250000 L27.312500 16.250000 L27.312500 14.687500 L24.656250 14.687500 Z M21.250000 8.796875 L22.578125 6.500000 L21.234375 5.718750 L19.906250 8.015625 Z M23.953125 12.062500 L26.250000 10.734375 L25.468750 9.390625 L23.171875 10.718750 Z M16.484375 3.328125 L14.031250 1.015625 L18.937500 1.015625 Z M36.796875 27.343750" /></svg>