<svg version="1.1" xmlns="http://www.w3.org/2000/svg" style="fill:rgba(0,0,0,1.0)" width="256" height="256" viewBox="0 0 32.65625 32.8125"><path fill="rgb(255, 255, 255)" d="M1.953125 32.812500 L4.437500 25.203125 C3.552079 24.734373 2.776045 24.065109 2.109375 23.195312 C1.442705 22.325516 0.924481 21.309902 0.554688 20.148438 C0.184894 18.986973 0.000000 17.744798 0.000000 16.421875 L23.578125 16.421875 C23.901043 17.265629 24.062500 18.083329 24.062500 18.875000 C24.062500 19.895838 23.830731 20.841141 23.367188 21.710938 C22.903644 22.580734 22.197921 23.489579 21.250000 24.437500 L20.781250 24.906250 C20.427082 25.260418 20.166668 25.567707 20.000000 25.828125 C19.833332 26.088543 19.750000 26.395832 19.750000 26.750000 C19.750000 26.979168 19.791666 27.291665 19.875000 27.687500 L21.046875 32.812500 Z M4.578125 31.031250 L18.812500 31.031250 L18.109375 28.031250 C18.005208 27.583331 17.953125 27.156252 17.953125 26.750000 C17.953125 26.166664 18.065103 25.648440 18.289062 25.195312 C18.513022 24.742185 18.817706 24.322919 19.203125 23.937500 L19.671875 23.468750 C20.453129 22.687496 21.067706 21.927087 21.515625 21.187500 C21.963544 20.447913 22.187500 19.750003 22.187500 19.093750 C22.187500 18.812499 22.156250 18.526043 22.093750 18.234375 L2.015625 18.234375 C2.213543 19.609382 2.690100 20.833328 3.445312 21.906250 C4.200525 22.979172 5.291660 23.781247 6.718750 24.312500 Z M10.562500 25.750000 C10.333332 25.750000 10.145834 25.677084 10.000000 25.531250 C9.854166 25.385416 9.781250 25.208334 9.781250 25.000000 C9.781250 24.770832 9.854166 24.580730 10.000000 24.429688 C10.145834 24.278645 10.328124 24.197917 10.546875 24.187500 C11.130211 24.145833 11.679685 24.054688 12.195312 23.914062 C12.710940 23.773437 13.182290 23.588543 13.609375 23.359375 C14.057294 23.119790 14.463540 22.830731 14.828125 22.492188 C15.192710 22.153644 15.505207 21.765627 15.765625 21.328125 C15.942709 21.036457 16.171874 20.890625 16.453125 20.890625 C16.651043 20.890625 16.822916 20.958333 16.968750 21.093750 C17.114584 21.229167 17.187500 21.395832 17.187500 21.593750 C17.187500 21.718751 17.156250 21.838541 17.093750 21.953125 C16.770832 22.526045 16.388023 23.039060 15.945312 23.492188 C15.502602 23.945315 15.005211 24.333332 14.453125 24.656250 C13.911456 24.979168 13.270837 25.242186 12.531250 25.445312 C11.791663 25.648439 11.135420 25.750000 10.562500 25.750000 Z M0.000000 16.421875 C0.000000 15.869789 0.156248 15.471355 0.468750 15.226562 C0.781252 14.981770 1.171873 14.859375 1.640625 14.859375 L13.796875 14.859375 C14.265627 14.859375 14.658853 14.981770 14.976562 15.226562 C15.294272 15.471355 15.453125 15.869789 15.453125 16.421875 Z M18.156250 16.875000 C17.864582 16.875000 17.526044 16.770834 17.140625 16.562500 C16.755206 16.354166 16.546875 15.875004 16.515625 15.125000 L15.968750 2.531250 C15.927083 1.697913 16.122394 1.067710 16.554688 0.640625 C16.986981 0.213540 17.708328 -0.000000 18.718750 -0.000000 L21.937500 -0.000000 C22.947922 -0.000000 23.669269 0.213540 24.101562 0.640625 C24.533856 1.067710 24.729167 1.697913 24.687500 2.531250 L24.140625 15.125000 C24.109375 15.875004 23.901044 16.354166 23.515625 16.562500 C23.130206 16.770834 22.791668 16.875000 22.500000 16.875000 Z M18.953125 15.468750 L21.703125 15.468750 C21.901043 15.468750 22.054687 15.427084 22.164062 15.343750 C22.273438 15.260416 22.333333 15.145834 22.343750 15.000000 L22.890625 2.500000 C22.901042 2.302082 22.843751 2.135417 22.718750 2.000000 C22.593749 1.864583 22.427084 1.796875 22.218750 1.796875 L18.437500 1.796875 C18.239582 1.796875 18.075521 1.864583 17.945312 2.000000 C17.815104 2.135417 17.755208 2.302082 17.765625 2.500000 L18.312500 15.000000 C18.322917 15.145834 18.382812 15.260416 18.492188 15.343750 C18.601563 15.427084 18.755207 15.468750 18.953125 15.468750 Z M17.140625 6.156250 L17.140625 4.593750 L23.812500 4.593750 L23.812500 6.156250 Z M32.656250 27.343750" /></svg>