<svg version="1.1" xmlns="http://www.w3.org/2000/svg" style="fill:rgba(0,0,0,1.0)" width="256" height="256" viewBox="0 0 32.56155364558131 32.8125"><path fill="rgb(255, 255, 255)" d="M12.375000 22.125000 C11.072910 22.125000 9.984379 22.122396 9.109375 22.117188 C8.234371 22.111979 7.442712 22.096354 6.734375 22.070312 C6.026038 22.044271 5.283858 22.007813 4.507812 21.960938 C3.731767 21.914062 2.786464 21.854167 1.671875 21.781250 L2.609375 1.296875 C3.921882 0.973957 5.106766 0.718751 6.164062 0.531250 C7.221359 0.343749 8.244787 0.208334 9.234375 0.125000 C10.223963 0.041666 11.270828 -0.000000 12.375000 -0.000000 C13.479172 -0.000000 14.526037 0.041666 15.515625 0.125000 C16.505213 0.208334 17.531245 0.343749 18.593750 0.531250 C19.656255 0.718751 20.838535 0.973957 22.140625 1.296875 L23.078125 21.781250 C21.973953 21.854167 21.031254 21.914062 20.250000 21.960938 C19.468746 22.007813 18.723962 22.044271 18.015625 22.070312 C17.307288 22.096354 16.515629 22.111979 15.640625 22.117188 C14.765621 22.122396 13.677090 22.125000 12.375000 22.125000 Z M0.968750 32.812500 C0.614582 32.812500 0.364584 32.674481 0.218750 32.398438 C0.072916 32.122394 0.098957 31.838543 0.296875 31.546875 L1.312500 30.046875 L4.078125 30.046875 L2.843750 32.812500 Z M3.312500 29.109375 C2.968748 29.109375 2.726563 28.979168 2.585938 28.718750 C2.445312 28.458332 2.463541 28.182293 2.640625 27.890625 L3.421875 26.640625 L5.578125 26.640625 L4.484375 29.109375 Z M5.515625 32.812500 L6.500000 30.046875 L18.250000 30.046875 L19.234375 32.812500 Z M6.828125 29.109375 L7.718750 26.640625 L17.031250 26.640625 L17.921875 29.109375 Z M12.375000 27.500000 C10.781242 27.500000 9.210945 27.440105 7.664062 27.320312 C6.117180 27.200520 4.671882 27.010418 3.328125 26.750000 C3.036457 26.697916 2.804688 26.562501 2.632812 26.343750 C2.460937 26.124999 2.375000 25.869793 2.375000 25.578125 L2.375000 21.390625 L22.375000 21.390625 L22.375000 25.578125 C22.375000 25.869793 22.289063 26.124999 22.117188 26.343750 C21.945312 26.562501 21.718751 26.697916 21.437500 26.750000 C20.093743 27.010418 18.645841 27.200520 17.093750 27.320312 C15.541659 27.440105 13.968758 27.500000 12.375000 27.500000 Z M12.375000 26.250000 C13.927091 26.250000 15.411451 26.190105 16.828125 26.070312 C18.244799 25.950520 19.552077 25.791668 20.750000 25.593750 C21.000001 25.562500 21.125000 25.416668 21.125000 25.156250 L21.125000 22.640625 L3.625000 22.640625 L3.625000 25.156250 C3.625000 25.406251 3.723957 25.546875 3.921875 25.578125 C5.130214 25.776043 6.447910 25.937499 7.875000 26.062500 C9.302090 26.187501 10.802075 26.250000 12.375000 26.250000 Z M6.359375 18.718750 C5.942706 18.718750 5.588543 18.572918 5.296875 18.281250 C5.005207 17.989582 4.859375 17.635419 4.859375 17.218750 C4.859375 16.802081 5.005207 16.447918 5.296875 16.156250 C5.588543 15.864582 5.942706 15.718750 6.359375 15.718750 C6.776044 15.718750 7.130207 15.864582 7.421875 16.156250 C7.713543 16.447918 7.859375 16.802081 7.859375 17.218750 C7.859375 17.635419 7.713543 17.989582 7.421875 18.281250 C7.130207 18.572918 6.776044 18.718750 6.359375 18.718750 Z M21.906250 32.812500 L20.671875 30.046875 L23.437500 30.046875 L24.453125 31.546875 C24.651043 31.838543 24.677084 32.122394 24.531250 32.398438 C24.385416 32.674481 24.135418 32.812500 23.781250 32.812500 Z M20.265625 29.109375 L19.171875 26.640625 L21.328125 26.640625 L22.109375 27.890625 C22.286459 28.182293 22.304688 28.458332 22.164062 28.718750 C22.023437 28.979168 21.781252 29.109375 21.437500 29.109375 Z M7.968750 12.062500 C7.666665 12.062500 7.406251 11.953126 7.187500 11.734375 C6.968749 11.515624 6.859375 11.250002 6.859375 10.937500 C6.859375 10.635415 6.968749 10.375001 7.187500 10.156250 C7.406251 9.937499 7.666665 9.828125 7.968750 9.828125 C8.270835 9.828125 8.531249 9.937499 8.750000 10.156250 C8.968751 10.375001 9.078125 10.635415 9.078125 10.937500 C9.078125 11.250002 8.968751 11.515624 8.750000 11.734375 C8.531249 11.953126 8.270835 12.062500 7.968750 12.062500 Z M12.375000 15.906250 L2.828125 14.062500 L2.906250 12.484375 L12.375000 14.312500 L21.843750 12.484375 L21.921875 14.062500 Z M12.375000 20.406250 C13.114587 20.406250 13.854163 20.403646 14.593750 20.398438 C15.333337 20.393229 16.070309 20.382813 16.804688 20.367188 C17.539066 20.351562 18.273434 20.333333 19.007812 20.312500 C19.742191 20.291667 20.473955 20.260417 21.203125 20.218750 L20.390625 2.656250 C19.453120 2.437499 18.539067 2.257813 17.648438 2.117188 C16.757808 1.976562 15.877609 1.875000 15.007812 1.812500 C14.138016 1.750000 13.260421 1.718750 12.375000 1.718750 C11.489579 1.718750 10.611984 1.750000 9.742188 1.812500 C8.872391 1.875000 7.992192 1.976562 7.101562 2.117188 C6.210933 2.257813 5.296880 2.437499 4.359375 2.656250 L3.546875 20.218750 C4.286462 20.260417 5.023434 20.291667 5.757812 20.312500 C6.492191 20.333333 7.226559 20.351562 7.960938 20.367188 C8.695316 20.382813 9.429684 20.393229 10.164062 20.398438 C10.898441 20.403646 11.635413 20.406250 12.375000 20.406250 Z M18.390625 18.718750 C17.973956 18.718750 17.619793 18.572918 17.328125 18.281250 C17.036457 17.989582 16.890625 17.635419 16.890625 17.218750 C16.890625 16.802081 17.036457 16.447918 17.328125 16.156250 C17.619793 15.864582 17.973956 15.718750 18.390625 15.718750 C18.807294 15.718750 19.161457 15.864582 19.453125 16.156250 C19.744793 16.447918 19.890625 16.802081 19.890625 17.218750 C19.890625 17.635419 19.744793 17.989582 19.453125 18.281250 C19.161457 18.572918 18.807294 18.718750 18.390625 18.718750 Z M6.890625 8.312500 C6.692707 8.312500 6.528646 8.239584 6.398438 8.093750 C6.268229 7.947916 6.213542 7.776043 6.234375 7.578125 L6.593750 4.484375 C6.635417 4.119790 6.838540 3.937500 7.203125 3.937500 L10.875000 3.937500 C11.052084 3.937500 11.203124 3.999999 11.328125 4.125000 C11.453126 4.250001 11.515625 4.401041 11.515625 4.578125 L11.515625 7.671875 C11.515625 7.848959 11.453126 7.999999 11.328125 8.125000 C11.203124 8.250001 11.052084 8.312500 10.875000 8.312500 Z M16.781250 12.062500 C16.479165 12.062500 16.218751 11.953126 16.000000 11.734375 C15.781249 11.515624 15.671875 11.250002 15.671875 10.937500 C15.671875 10.635415 15.781249 10.375001 16.000000 10.156250 C16.218751 9.937499 16.479165 9.828125 16.781250 9.828125 C17.083335 9.828125 17.343749 9.937499 17.562500 10.156250 C17.781251 10.375001 17.890625 10.635415 17.890625 10.937500 C17.890625 11.250002 17.781251 11.515624 17.562500 11.734375 C17.343749 11.953126 17.083335 12.062500 16.781250 12.062500 Z M13.875000 8.312500 C13.697916 8.312500 13.546876 8.250001 13.421875 8.125000 C13.296874 7.999999 13.234375 7.848959 13.234375 7.671875 L13.234375 4.578125 C13.234375 4.401041 13.296874 4.250001 13.421875 4.125000 C13.546876 3.999999 13.697916 3.937500 13.875000 3.937500 L17.546875 3.937500 C17.921877 3.937500 18.125000 4.119790 18.156250 4.484375 L18.515625 7.578125 C18.536458 7.776043 18.484376 7.947916 18.359375 8.093750 C18.234374 8.239584 18.067709 8.312500 17.859375 8.312500 Z M32.687500 27.343750" /></svg>