<svg version="1.1" xmlns="http://www.w3.org/2000/svg" style="fill:rgba(0,0,0,1.0)" width="256" height="256" viewBox="0 0 39.0 28.125"><path fill="rgb(255, 255, 255)" d="M28.125000 28.125000 C26.749993 28.125000 25.424486 27.947918 24.148438 27.593750 C22.872389 27.239582 21.617194 26.802086 20.382812 26.281250 C19.148431 25.760414 17.914069 25.236982 16.679688 24.710938 C15.445306 24.184893 14.192715 23.744793 12.921875 23.390625 C11.651035 23.036457 10.333340 22.859375 8.968750 22.859375 C7.583326 22.859375 6.122404 23.041665 4.585938 23.406250 C3.049471 23.770835 1.520841 24.333330 0.000000 25.093750 L0.000000 3.031250 C1.718759 1.916661 3.361971 1.132815 4.929688 0.679688 C6.497404 0.226560 7.937493 -0.000000 9.250000 -0.000000 C10.625007 -0.000000 11.950514 0.177082 13.226562 0.531250 C14.502611 0.885418 15.757806 1.322914 16.992188 1.843750 C18.226569 2.364586 19.458327 2.888018 20.687500 3.414062 C21.916673 3.940107 23.169264 4.380207 24.445312 4.734375 C25.721361 5.088543 27.041660 5.265625 28.406250 5.265625 C29.791674 5.265625 31.255201 5.083335 32.796875 4.718750 C34.338549 4.354165 35.864576 3.791670 37.375000 3.031250 L37.375000 25.093750 C35.656241 26.208339 34.013029 26.992185 32.445312 27.445312 C30.877596 27.898440 29.437507 28.125000 28.125000 28.125000 Z M18.156250 21.093750 L18.156250 19.843750 L16.765625 19.843750 L16.765625 18.656250 L18.156250 18.656250 L18.156250 17.578125 C17.406246 17.432291 16.776044 17.052086 16.265625 16.437500 C15.755206 15.822914 15.500000 15.109379 15.500000 14.296875 C15.500000 13.640622 15.687498 13.057294 16.062500 12.546875 L15.546875 12.031250 L14.562500 13.062500 L13.718750 12.218750 L14.734375 11.218750 L13.671875 10.156250 L13.671875 11.312500 L12.390625 11.312500 L12.390625 7.968750 L15.765625 7.968750 L15.765625 9.265625 L14.593750 9.265625 L15.625000 10.328125 L16.656250 9.296875 L17.468750 10.140625 L16.468750 11.140625 L16.953125 11.609375 C17.203126 11.432291 17.489582 11.291667 17.812500 11.187500 C18.135418 11.083333 18.473957 11.031250 18.828125 11.031250 C19.411461 11.031250 19.984372 11.192707 20.546875 11.515625 L22.765625 9.296875 L21.609375 9.296875 L21.609375 7.968750 L24.984375 7.968750 L24.984375 11.328125 L23.671875 11.328125 L23.671875 10.187500 L21.484375 12.375000 C21.911460 12.968753 22.125000 13.609372 22.125000 14.296875 C22.125000 15.109379 21.869794 15.822914 21.359375 16.437500 C20.848956 17.052086 20.218754 17.432291 19.468750 17.578125 L19.468750 18.656250 L20.890625 18.656250 L20.890625 19.843750 L19.468750 19.843750 L19.468750 21.093750 Z M18.796875 15.921875 C19.244794 15.921875 19.624998 15.763022 19.937500 15.445312 C20.250002 15.127603 20.406250 14.744794 20.406250 14.296875 C20.406250 13.869790 20.250002 13.500002 19.937500 13.187500 C19.624998 12.874998 19.244794 12.718750 18.796875 12.718750 C18.369790 12.718750 18.000002 12.874998 17.687500 13.187500 C17.374998 13.500002 17.218750 13.869790 17.218750 14.296875 C17.218750 14.744794 17.374998 15.127603 17.687500 15.445312 C18.000002 15.763022 18.369790 15.921875 18.796875 15.921875 Z M28.125000 26.406250 C29.312506 26.406250 30.507806 26.216148 31.710938 25.835938 C32.914069 25.455727 34.177077 24.869796 35.500000 24.078125 L35.500000 5.578125 C33.093738 6.515630 30.729178 6.984375 28.406250 6.984375 C26.989576 6.984375 25.617194 6.807293 24.289062 6.453125 C22.960931 6.098957 21.664069 5.658857 20.398438 5.132812 C19.132806 4.606768 17.882819 4.083336 16.648438 3.562500 C15.414056 3.041664 14.182298 2.604168 12.953125 2.250000 C11.723952 1.895832 10.489590 1.718750 9.250000 1.718750 C8.052077 1.718750 6.854173 1.906248 5.656250 2.281250 C4.458327 2.656252 3.197923 3.244788 1.875000 4.046875 L1.875000 22.546875 C4.281262 21.609370 6.645822 21.140625 8.968750 21.140625 C10.395840 21.140625 11.776035 21.317707 13.109375 21.671875 C14.442715 22.026043 15.744785 22.463539 17.015625 22.984375 C18.286465 23.505211 19.536452 24.028643 20.765625 24.554688 C21.994798 25.080732 23.218744 25.520832 24.437500 25.875000 C25.656256 26.229168 26.885410 26.406250 28.125000 26.406250 Z M39.000000 25.000000" /></svg>