<svg version="1.1" xmlns="http://www.w3.org/2000/svg" style="fill:rgba(0,0,0,1.0)" width="256" height="256" viewBox="0 0 36.953125 32.8125"><path fill="rgb(255, 255, 255)" d="M0.000000 32.812500 L0.000000 -0.000000 L33.281250 32.812500 Z M1.875000 30.937500 L28.703125 30.937500 L1.875000 4.484375 Z M9.046875 21.484375 L9.046875 23.781250 L11.343750 23.781250 Z M7.171875 16.953125 L15.875000 25.656250 L7.171875 25.656250 Z M5.250000 10.078125 L4.281250 9.109375 L5.812500 7.562500 L6.781250 8.531250 Z M6.906250 13.187500 L5.765625 12.031250 L8.125000 9.671875 L9.265625 10.828125 Z M9.859375 14.656250 L8.843750 13.703125 L10.406250 12.156250 L11.375000 13.140625 Z M11.500000 17.765625 L10.359375 16.609375 L12.718750 14.250000 L13.859375 15.406250 Z M14.437500 19.265625 L13.468750 18.296875 L15.000000 16.750000 L15.984375 17.718750 Z M16.093750 22.390625 L14.953125 21.218750 L17.296875 18.859375 L18.453125 20.000000 Z M19.031250 23.843750 L18.062500 22.875000 L19.593750 21.359375 L20.562500 22.312500 Z M20.703125 26.953125 L19.531250 25.812500 L21.906250 23.468750 L23.078125 24.609375 Z M23.625000 28.468750 L22.656250 27.468750 L24.187500 25.937500 L25.156250 26.906250 Z M36.953125 27.343750" /></svg>