<svg version="1.1" xmlns="http://www.w3.org/2000/svg" style="fill:rgba(0,0,0,1.0)" width="256" height="256" viewBox="0 0 38.90625 31.5625"><path fill="rgb(255, 255, 255)" d="M20.562500 31.562500 C19.802080 31.562500 19.179690 31.473959 18.695312 31.296875 C18.210935 31.119791 17.786460 30.812502 17.421875 30.375000 C17.192707 30.104165 17.036459 29.666670 16.953125 29.062500 C16.869791 28.458330 16.828125 27.713546 16.828125 26.828125 L11.906250 26.468750 C11.937500 26.687501 11.953125 26.895832 11.953125 27.093750 C11.953125 28.114588 11.632816 28.864581 10.992188 29.343750 C10.351559 29.822919 9.380215 30.062500 8.078125 30.062500 C7.338538 30.062500 6.645837 29.947918 6.000000 29.718750 C5.354163 29.489582 4.833335 29.166669 4.437500 28.750000 C4.041665 28.333331 3.843750 27.838545 3.843750 27.265625 C3.843750 26.682289 3.937499 26.132815 4.125000 25.617188 C4.312501 25.101560 4.494791 24.651044 4.671875 24.265625 C3.192701 23.411454 2.044275 22.315111 1.226562 20.976562 C0.408850 19.638014 0.000000 18.166675 0.000000 16.562500 C0.000000 14.947909 0.395829 13.492194 1.187500 12.195312 C1.979171 10.898431 3.052077 9.867191 4.406250 9.101562 C5.760423 8.335934 7.286450 7.953125 8.984375 7.953125 C11.109386 7.953125 12.932284 8.546869 14.453125 9.734375 C15.973966 10.921881 17.057288 12.572906 17.703125 14.687500 L18.328125 16.718750 C18.598960 17.572921 18.968748 18.247393 19.437500 18.742188 C19.906252 19.236982 20.624995 19.484375 21.593750 19.484375 C23.218758 19.484375 24.687493 19.252606 26.000000 18.789062 C27.312507 18.325519 28.434891 17.708337 29.367188 16.937500 C30.299484 16.166663 31.015622 15.309901 31.515625 14.367188 C32.015628 13.424474 32.265625 12.473963 32.265625 11.515625 C32.265625 10.046868 31.947920 8.713548 31.312500 7.515625 C30.677080 6.317702 29.815110 5.286463 28.726562 4.421875 C27.638015 3.557287 26.393236 2.890627 24.992188 2.421875 C23.591139 1.953123 22.125008 1.718750 20.593750 1.718750 C17.989570 1.718750 15.721364 2.244786 13.789062 3.296875 C11.856761 4.348964 10.354172 5.984364 9.281250 8.203125 L7.296875 8.343750 C8.567715 5.572903 10.263010 3.489590 12.382812 2.093750 C14.502615 0.697910 17.145818 -0.000000 20.312500 -0.000000 C22.145842 -0.000000 23.885408 0.268226 25.531250 0.804688 C27.177092 1.341149 28.635410 2.119787 29.906250 3.140625 C31.177090 4.161463 32.174476 5.401034 32.898438 6.859375 C33.622399 8.317716 33.984375 9.963532 33.984375 11.796875 C33.984375 13.067715 33.658857 14.260411 33.007812 15.375000 C32.356768 16.489589 31.460943 17.471350 30.320312 18.320312 C29.179682 19.169275 27.861987 19.835935 26.367188 20.320312 C24.872388 20.804690 23.281258 21.046875 21.593750 21.046875 C20.135409 21.046875 19.036462 20.710941 18.296875 20.039062 C17.557288 19.367184 16.973960 18.322924 16.546875 16.906250 L15.968750 15.000000 C15.416664 13.166658 14.510423 11.820317 13.250000 10.960938 C11.989577 10.101558 10.567716 9.671875 8.984375 9.671875 C7.630202 9.671875 6.416672 9.971351 5.343750 10.570312 C4.270828 11.169274 3.427086 11.986974 2.812500 13.023438 C2.197914 14.059901 1.890625 15.229160 1.890625 16.531250 C1.890625 18.083341 2.335933 19.479160 3.226562 20.718750 C4.117192 21.958340 5.328117 22.885414 6.859375 23.500000 C6.505207 24.104170 6.200522 24.786455 5.945312 25.546875 C5.690103 26.307295 5.562500 26.880206 5.562500 27.265625 C5.562500 27.526043 5.822914 27.770832 6.343750 28.000000 C6.864586 28.229168 7.442705 28.343750 8.078125 28.343750 C8.953129 28.343750 9.531249 28.255209 9.812500 28.078125 C10.093751 27.901041 10.234375 27.572919 10.234375 27.093750 C10.234375 26.729165 10.218750 26.335940 10.187500 25.914062 C10.156250 25.492185 10.109375 25.057294 10.046875 24.609375 L18.562500 25.234375 C18.562500 26.192713 18.580729 26.986976 18.617188 27.617188 C18.653646 28.247399 18.692708 28.791664 18.734375 29.250000 C18.921876 29.479168 19.143228 29.635416 19.398438 29.718750 C19.653647 29.802084 20.041664 29.843750 20.562500 29.843750 C21.447921 29.843750 22.145831 29.705731 22.656250 29.429688 C23.166669 29.153644 23.421875 28.791669 23.421875 28.343750 C23.421875 27.854164 23.367188 27.304691 23.257812 26.695312 C23.148437 26.085934 22.973960 25.291672 22.734375 24.312500 C23.296878 24.135416 23.927080 23.877606 24.625000 23.539062 C25.322920 23.200519 25.989580 22.835939 26.625000 22.445312 C27.260420 22.054686 27.765623 21.692710 28.140625 21.359375 C28.390626 21.963545 28.747394 22.437498 29.210938 22.781250 C29.674481 23.125002 30.192705 23.296875 30.765625 23.296875 C31.380211 23.296875 31.888019 23.156251 32.289062 22.875000 C32.690106 22.593749 32.890625 22.276043 32.890625 21.921875 C32.890625 21.619790 32.854167 21.257815 32.781250 20.835938 C32.708333 20.414060 32.614584 19.968752 32.500000 19.500000 C32.395833 19.052081 32.302084 18.520836 32.218750 17.906250 C32.135416 17.291664 32.093750 16.807293 32.093750 16.453125 C32.437502 16.109373 32.812498 15.708336 33.218750 15.250000 C33.625002 14.791664 34.007811 14.328127 34.367188 13.859375 C34.726564 13.390623 35.023436 12.976564 35.257812 12.617188 C35.492189 12.257811 35.609375 12.010417 35.609375 11.875000 C35.609375 11.822916 35.601563 11.789063 35.585938 11.773438 C35.570312 11.757812 35.541667 11.750000 35.500000 11.750000 C35.218749 11.750000 34.875002 11.828124 34.468750 11.984375 C34.062498 12.140626 33.682293 12.307291 33.328125 12.484375 L32.703125 10.890625 C33.192711 10.598957 33.703122 10.377605 34.234375 10.226562 C34.765628 10.075520 35.244790 10.000000 35.671875 10.000000 C36.109377 10.000000 36.471353 10.151040 36.757812 10.453125 C37.044272 10.755210 37.187500 11.114581 37.187500 11.531250 C37.187500 12.093753 36.888024 12.838537 36.289062 13.765625 C35.690101 14.692713 34.869797 15.682286 33.828125 16.734375 C33.859375 17.140627 33.940104 17.661455 34.070312 18.296875 C34.200521 18.932295 34.322916 19.578122 34.437500 20.234375 C34.552084 20.890628 34.609375 21.453123 34.609375 21.921875 C34.609375 22.817713 34.244795 23.557289 33.515625 24.140625 C32.786455 24.723961 31.869797 25.015625 30.765625 25.015625 C30.026038 25.015625 29.427086 24.914064 28.968750 24.710938 C28.510414 24.507811 28.151043 24.192710 27.890625 23.765625 C27.421873 24.088543 26.901045 24.398436 26.328125 24.695312 C25.755205 24.992189 25.234377 25.229166 24.765625 25.406250 C24.901042 26.052087 24.997396 26.609373 25.054688 27.078125 C25.111979 27.546877 25.140625 27.968748 25.140625 28.343750 C25.140625 29.322922 24.718754 30.104164 23.875000 30.687500 C23.031246 31.270836 21.927090 31.562500 20.562500 31.562500 Z M8.171875 19.234375 C7.901040 19.234375 7.570314 19.114585 7.179688 18.875000 C6.789061 18.635415 6.445314 18.359377 6.148438 18.046875 C5.851561 17.734373 5.703125 17.468751 5.703125 17.250000 C5.703125 17.124999 5.750000 17.018230 5.843750 16.929688 C5.937500 16.841145 6.036458 16.796875 6.140625 16.796875 C6.338543 16.796875 6.562499 16.901041 6.812500 17.109375 C7.062501 17.317709 7.309895 17.526041 7.554688 17.734375 C7.799480 17.942709 8.005208 18.046875 8.171875 18.046875 C8.348959 18.046875 8.559895 17.973959 8.804688 17.828125 C9.049480 17.682291 9.447914 17.406252 10.000000 17.000000 C10.177084 16.864583 10.356770 16.882812 10.539062 17.054688 C10.721355 17.226563 10.770834 17.385416 10.687500 17.531250 C10.520833 17.833335 10.276043 18.114582 9.953125 18.375000 C9.630207 18.635418 9.302085 18.843749 8.968750 19.000000 C8.635415 19.156251 8.369793 19.234375 8.171875 19.234375 Z M5.593750 16.046875 C5.177081 16.046875 4.822918 15.880210 4.531250 15.546875 C4.239582 15.213540 4.093750 14.807294 4.093750 14.328125 C4.093750 13.848956 4.239582 13.442710 4.531250 13.109375 C4.822918 12.776040 5.177081 12.609375 5.593750 12.609375 C6.000002 12.609375 6.348957 12.776040 6.640625 13.109375 C6.932293 13.442710 7.078125 13.848956 7.078125 14.328125 C7.078125 14.807294 6.932293 15.213540 6.640625 15.546875 C6.348957 15.880210 6.000002 16.046875 5.593750 16.046875 Z M10.906250 16.046875 C10.489581 16.046875 10.135418 15.880210 9.843750 15.546875 C9.552082 15.213540 9.406250 14.807294 9.406250 14.328125 C9.406250 13.848956 9.552082 13.442710 9.843750 13.109375 C10.135418 12.776040 10.489581 12.609375 10.906250 12.609375 C11.312502 12.609375 11.661457 12.776040 11.953125 13.109375 C12.244793 13.442710 12.390625 13.848956 12.390625 14.328125 C12.390625 14.807294 12.244793 15.213540 11.953125 15.546875 C11.661457 15.880210 11.312502 16.046875 10.906250 16.046875 Z M20.687500 16.781250 C20.531249 15.166659 20.328126 13.640632 20.078125 12.203125 C19.828124 10.765618 19.567710 9.578130 19.296875 8.640625 C18.640622 8.380207 17.859380 8.143230 16.953125 7.929688 C16.046870 7.716145 14.859382 7.473960 13.390625 7.203125 C13.161457 7.453126 12.963542 7.723957 12.796875 8.015625 C12.630208 8.307293 12.473959 8.630207 12.328125 8.984375 L10.765625 8.328125 C11.015626 8.005207 11.252603 7.645835 11.476562 7.250000 C11.700522 6.854165 11.869791 6.484377 11.984375 6.140625 C11.890625 5.963541 11.750001 5.768230 11.562500 5.554688 C11.374999 5.341145 11.203126 5.171876 11.046875 5.046875 L12.421875 3.937500 C12.661460 4.343752 12.929686 4.682290 13.226562 4.953125 C13.523439 5.223960 13.934893 5.463541 14.460938 5.671875 C14.986982 5.880209 15.690100 6.083332 16.570312 6.281250 C17.450525 6.479168 18.583326 6.697915 19.968750 6.937500 C20.989588 6.541665 21.976558 6.135419 22.929688 5.718750 C23.882817 5.302081 24.760413 4.895835 25.562500 4.500000 C25.677084 4.291666 25.789062 3.984377 25.898438 3.578125 C26.007813 3.171873 26.067708 2.802085 26.078125 2.468750 L27.671875 3.265625 C27.598958 3.557293 27.518230 3.846353 27.429688 4.132812 C27.341145 4.419272 27.239584 4.697915 27.125000 4.968750 C27.750003 6.041672 28.440100 7.130203 29.195312 8.234375 C29.950525 9.338547 30.723954 10.364579 31.515625 11.312500 L30.250000 13.000000 C29.635414 11.958328 29.083336 11.054691 28.593750 10.289062 C28.104164 9.523434 27.635419 8.828128 27.187500 8.203125 C26.739581 7.578122 26.265628 6.963545 25.765625 6.359375 C24.890621 6.619793 24.109378 6.901040 23.421875 7.203125 C22.734372 7.505210 21.989587 7.921872 21.187500 8.453125 C21.395834 9.963549 21.632811 11.393222 21.898438 12.742188 C22.164064 14.091153 22.447915 15.385410 22.750000 16.625000 Z M21.328125 17.953125 C20.442704 17.953125 19.591150 17.843751 18.773438 17.625000 C17.955725 17.406249 17.203128 17.067711 16.515625 16.609375 L17.390625 15.296875 C17.953128 15.671877 18.570309 15.947916 19.242188 16.125000 C19.914066 16.302084 20.614580 16.390625 21.343750 16.390625 C22.416672 16.390625 23.513015 16.216148 24.632812 15.867188 C25.752610 15.518227 26.820307 15.026045 27.835938 14.390625 C28.851568 13.755205 29.752600 13.005213 30.539062 12.140625 C31.325525 11.276037 31.921873 10.322922 32.328125 9.281250 L33.781250 9.843750 C33.312498 11.041673 32.638025 12.135412 31.757812 13.125000 C30.877600 14.114588 29.861985 14.971351 28.710938 15.695312 C27.559890 16.419274 26.351569 16.976561 25.085938 17.367188 C23.820306 17.757814 22.567715 17.953125 21.328125 17.953125 Z M38.906250 26.875000" /></svg>