<svg version="1.1" xmlns="http://www.w3.org/2000/svg" style="fill:rgba(0,0,0,1.0)" width="256" height="256" viewBox="0 0 37.03125 20.3125"><path fill="rgb(255, 255, 255)" d="M16.718750 20.312500 C14.385405 20.312500 12.208343 20.075523 10.187500 19.601562 C8.166657 19.127602 6.393237 18.466150 4.867188 17.617188 C3.341138 16.768225 2.148442 15.773443 1.289062 14.632812 C0.429683 13.492182 0.000000 12.260423 0.000000 10.937500 C0.000000 9.604160 0.429683 8.369797 1.289062 7.234375 C2.148442 6.098953 3.341138 5.106775 4.867188 4.257812 C6.393237 3.408850 8.166657 2.747398 10.187500 2.273438 C12.208343 1.799477 14.385405 1.562500 16.718750 1.562500 C19.052095 1.562500 21.229157 1.799477 23.250000 2.273438 C25.270843 2.747398 27.044263 3.408850 28.570312 4.257812 C30.096362 5.106775 31.289058 6.098953 32.148438 7.234375 C33.007817 8.369797 33.437500 9.604160 33.437500 10.937500 C33.437500 12.260423 33.007817 13.492182 32.148438 14.632812 C31.289058 15.773443 30.096362 16.768225 28.570312 17.617188 C27.044263 18.466150 25.270843 19.127602 23.250000 19.601562 C21.229157 20.075523 19.052095 20.312500 16.718750 20.312500 Z M16.718750 17.546875 C14.687490 17.546875 12.804696 17.356773 11.070312 16.976562 C9.335929 16.596352 7.822923 16.072920 6.531250 15.406250 C5.239577 14.739580 4.229170 13.979171 3.500000 13.125000 C3.916669 12.041661 4.567704 11.096358 5.453125 10.289062 C6.338546 9.481767 7.385411 8.812503 8.593750 8.281250 C9.802089 7.749997 11.101556 7.354168 12.492188 7.093750 C13.882819 6.833332 15.291660 6.703125 16.718750 6.703125 C18.145840 6.703125 19.554681 6.833332 20.945312 7.093750 C22.335944 7.354168 23.635411 7.749997 24.843750 8.281250 C26.052089 8.812503 27.098954 9.481767 27.984375 10.289062 C28.869796 11.096358 29.520831 12.041661 29.937500 13.125000 C29.218746 13.979171 28.210944 14.739580 26.914062 15.406250 C25.617181 16.072920 24.104175 16.596352 22.375000 16.976562 C20.645825 17.356773 18.760427 17.546875 16.718750 17.546875 Z M16.718750 18.484375 C18.781260 18.484375 20.710929 18.286460 22.507812 17.890625 C24.304696 17.494790 25.885410 16.947920 27.250000 16.250000 C28.614590 15.552080 29.682288 14.750005 30.453125 13.843750 C31.223962 12.937495 31.609375 11.968755 31.609375 10.937500 C31.609375 9.906245 31.223962 8.937505 30.453125 8.031250 C29.682288 7.124995 28.614590 6.322920 27.250000 5.625000 C25.885410 4.927080 24.304696 4.380210 22.507812 3.984375 C20.710929 3.588540 18.781260 3.390625 16.718750 3.390625 C14.656240 3.390625 12.726571 3.588540 10.929688 3.984375 C9.132804 4.380210 7.552090 4.927080 6.187500 5.625000 C4.822910 6.322920 3.755212 7.124995 2.984375 8.031250 C2.213538 8.937505 1.828125 9.906245 1.828125 10.937500 C1.828125 11.968755 2.213538 12.937495 2.984375 13.843750 C3.755212 14.750005 4.822910 15.552080 6.187500 16.250000 C7.552090 16.947920 9.132804 17.494790 10.929688 17.890625 C12.726571 18.286460 14.656240 18.484375 16.718750 18.484375 Z M37.031250 21.875000" /></svg>