<svg version="1.1" xmlns="http://www.w3.org/2000/svg" style="fill:rgba(0,0,0,1.0)" width="256" height="256" viewBox="0 0 38.15625 32.8125"><path fill="rgb(255, 255, 255)" d="M31.984375 21.875000 C31.130204 20.802078 30.236984 19.992190 29.304688 19.445312 C28.372391 18.898435 27.411463 18.625000 26.421875 18.625000 C25.140619 18.625000 23.828132 19.088537 22.484375 20.015625 C22.161457 18.932286 21.580733 17.997400 20.742188 17.210938 C19.903642 16.424475 18.927089 15.817710 17.812500 15.390625 C16.697911 14.963540 15.562506 14.750000 14.406250 14.750000 C13.489579 14.750000 12.606775 14.895832 11.757812 15.187500 C10.908850 15.479168 10.151045 15.932289 9.484375 16.546875 C8.765621 15.067701 7.942713 14.049482 7.015625 13.492188 C6.088537 12.934893 4.927090 12.656250 3.531250 12.656250 C3.052081 12.656250 2.533857 12.682291 1.976562 12.734375 C1.419268 12.786459 0.822920 12.859375 0.187500 12.953125 C0.927087 10.588530 1.999993 8.578133 3.406250 6.921875 C4.812507 5.265617 6.494782 4.002609 8.453125 3.132812 C10.411468 2.263016 12.578113 1.828125 14.953125 1.828125 C17.421887 1.828125 19.742177 2.223954 21.914062 3.015625 C24.085948 3.807296 25.999992 4.898431 27.656250 6.289062 C29.312508 7.679694 30.609370 9.289053 31.546875 11.117188 C32.484380 12.945322 32.953125 14.901031 32.953125 16.984375 C32.953125 18.640633 32.630212 20.270825 31.984375 21.875000 Z M19.390625 29.734375 C17.140614 29.734375 15.260424 29.692709 13.750000 29.609375 C12.239576 29.526041 11.039067 29.390626 10.148438 29.203125 C9.257808 29.015624 8.622398 28.757814 8.242188 28.429688 C7.861977 28.101561 7.671875 27.697919 7.671875 27.218750 C7.671875 26.541663 7.979164 26.020835 8.593750 25.656250 C9.208336 25.291665 10.078119 25.109375 11.203125 25.109375 L11.203125 26.515625 C10.703122 26.515625 10.276043 26.580729 9.921875 26.710938 C9.567707 26.841146 9.390625 27.010416 9.390625 27.218750 C9.390625 27.479168 9.716143 27.690103 10.367188 27.851562 C11.018232 28.013022 12.075514 28.132812 13.539062 28.210938 C15.002611 28.289063 16.953113 28.328125 19.390625 28.328125 Z M0.000000 32.812500 L0.000000 23.640625 C1.947926 23.078122 3.895824 22.648439 5.843750 22.351562 C7.791676 22.054686 9.697907 21.906250 11.562500 21.906250 C13.281259 21.906250 14.885409 22.005207 16.375000 22.203125 C17.864591 22.401043 19.307285 22.632811 20.703125 22.898438 C22.098965 23.164064 23.499993 23.395832 24.906250 23.593750 C26.312507 23.791668 27.786451 23.890625 29.328125 23.890625 C30.286463 23.890625 31.263016 23.841146 32.257812 23.742188 C33.252609 23.643229 34.395827 23.494793 35.687500 23.296875 L35.687500 32.812500 Z M1.875000 31.093750 L33.812500 31.093750 L33.812500 25.281250 C33.020829 25.385417 32.260420 25.466146 31.531250 25.523438 C30.802080 25.580729 30.067712 25.609375 29.328125 25.609375 C27.734367 25.609375 26.216153 25.510418 24.773438 25.312500 C23.330722 25.114582 21.908861 24.882814 20.507812 24.617188 C19.106764 24.351561 17.674486 24.119793 16.210938 23.921875 C14.747389 23.723957 13.197925 23.625000 11.562500 23.625000 C9.958325 23.625000 8.335946 23.736978 6.695312 23.960938 C5.054679 24.184897 3.447925 24.520831 1.875000 24.968750 Z M14.093750 28.906250 L12.281250 28.421875 L16.109375 14.156250 L17.921875 14.671875 Z M9.468750 13.500000 C9.947919 12.177077 10.588538 10.908860 11.390625 9.695312 C12.192712 8.481765 13.114578 7.359380 14.156250 6.328125 C15.197922 5.296870 16.317702 4.411462 17.515625 3.671875 C16.682288 3.557291 15.890629 3.500000 15.140625 3.500000 C13.317699 3.500000 11.598966 3.794268 9.984375 4.382812 C8.369784 4.971357 6.950527 5.822911 5.726562 6.937500 C4.502598 8.052089 3.567712 9.395825 2.921875 10.968750 C3.088542 10.947917 3.249999 10.934896 3.406250 10.929688 C3.562501 10.924479 3.713541 10.921875 3.859375 10.921875 C4.994797 10.921875 6.033849 11.143227 6.976562 11.585938 C7.919276 12.028648 8.749996 12.666663 9.468750 13.500000 Z M30.953125 18.515625 C31.036459 17.911455 31.078125 17.354169 31.078125 16.843750 C31.078125 15.145825 30.705733 13.528654 29.960938 11.992188 C29.216142 10.455721 28.164069 9.078131 26.804688 7.859375 C25.445306 6.640619 23.838551 5.651045 21.984375 4.890625 C22.723962 6.286465 23.291665 7.789054 23.687500 9.398438 C24.083335 11.007821 24.281250 12.619784 24.281250 14.234375 C24.281250 15.265630 24.192709 16.302078 24.015625 17.343750 C24.848962 17.072915 25.661454 16.937500 26.453125 16.937500 C27.244796 16.937500 28.020830 17.070311 28.781250 17.335938 C29.541670 17.601564 30.265622 17.994789 30.953125 18.515625 Z M20.812500 3.859375 L19.000000 3.375000 L19.906250 -0.000000 L21.718750 0.484375 Z M38.156250 27.343750" /></svg>