<svg version="1.1" xmlns="http://www.w3.org/2000/svg" style="fill:rgba(0,0,0,1.0)" width="256" height="256" viewBox="0 0 39.0 28.125"><path fill="rgb(255, 255, 255)" d="M28.125000 28.125000 C26.749993 28.125000 25.424486 27.947918 24.148438 27.593750 C22.872389 27.239582 21.617194 26.802086 20.382812 26.281250 C19.148431 25.760414 17.914069 25.236982 16.679688 24.710938 C15.445306 24.184893 14.192715 23.744793 12.921875 23.390625 C11.651035 23.036457 10.333340 22.859375 8.968750 22.859375 C7.583326 22.859375 6.122404 23.041665 4.585938 23.406250 C3.049471 23.770835 1.520841 24.333330 0.000000 25.093750 L0.000000 3.031250 C1.718759 1.916661 3.361971 1.132815 4.929688 0.679688 C6.497404 0.226560 7.937493 -0.000000 9.250000 -0.000000 C10.625007 -0.000000 11.950514 0.177082 13.226562 0.531250 C14.502611 0.885418 15.757806 1.322914 16.992188 1.843750 C18.226569 2.364586 19.458327 2.888018 20.687500 3.414062 C21.916673 3.940107 23.169264 4.380207 24.445312 4.734375 C25.721361 5.088543 27.041660 5.265625 28.406250 5.265625 C29.791674 5.265625 31.255201 5.083335 32.796875 4.718750 C34.338549 4.354165 35.864576 3.791670 37.375000 3.031250 L37.375000 25.093750 C35.656241 26.208339 34.013029 26.992185 32.445312 27.445312 C30.877596 27.898440 29.437507 28.125000 28.125000 28.125000 Z M28.125000 26.406250 C29.312506 26.406250 30.507806 26.216148 31.710938 25.835938 C32.914069 25.455727 34.177077 24.869796 35.500000 24.078125 L35.500000 5.578125 C33.093738 6.515630 30.729178 6.984375 28.406250 6.984375 C26.989576 6.984375 25.617194 6.807293 24.289062 6.453125 C22.960931 6.098957 21.664069 5.658857 20.398438 5.132812 C19.132806 4.606768 17.882819 4.083336 16.648438 3.562500 C15.414056 3.041664 14.182298 2.604168 12.953125 2.250000 C11.723952 1.895832 10.489590 1.718750 9.250000 1.718750 C8.052077 1.718750 6.854173 1.906248 5.656250 2.281250 C4.458327 2.656252 3.197923 3.244788 1.875000 4.046875 L1.875000 22.546875 C4.281262 21.609370 6.645822 21.140625 8.968750 21.140625 C10.385424 21.140625 11.757806 21.317707 13.085938 21.671875 C14.414069 22.026043 15.710931 22.463539 16.976562 22.984375 C18.242194 23.505211 19.492181 24.028643 20.726562 24.554688 C21.960944 25.080732 23.192702 25.520832 24.421875 25.875000 C25.651048 26.229168 26.885410 26.406250 28.125000 26.406250 Z M17.296875 16.703125 C17.296875 16.088539 17.354166 15.565106 17.468750 15.132812 C17.583334 14.700519 17.776040 14.302085 18.046875 13.937500 C18.317710 13.572915 18.687498 13.187502 19.156250 12.781250 C19.552085 12.447915 19.872395 12.132814 20.117188 11.835938 C20.361980 11.539061 20.484375 11.156252 20.484375 10.687500 C20.484375 10.104164 20.338543 9.661460 20.046875 9.359375 C19.755207 9.057290 19.322920 8.906250 18.750000 8.906250 C18.177080 8.906250 17.721356 9.059894 17.382812 9.367188 C17.044269 9.674481 16.859375 10.114580 16.828125 10.687500 L14.375000 10.687500 C14.375000 9.479161 14.773434 8.523441 15.570312 7.820312 C16.367191 7.117184 17.421868 6.765625 18.734375 6.765625 C20.088548 6.765625 21.138017 7.101559 21.882812 7.773438 C22.627608 8.445316 23.000000 9.390619 23.000000 10.609375 C23.000000 11.338545 22.817710 11.971351 22.453125 12.507812 C22.088540 13.044274 21.515629 13.651038 20.734375 14.328125 C20.286456 14.713544 20.000001 15.044269 19.875000 15.320312 C19.749999 15.596356 19.677083 16.057288 19.656250 16.703125 Z M18.484375 21.359375 C18.005206 21.359375 17.593752 21.187502 17.250000 20.843750 C16.906248 20.499998 16.734375 20.093752 16.734375 19.625000 C16.734375 19.145831 16.906248 18.736981 17.250000 18.398438 C17.593752 18.059894 18.005206 17.890625 18.484375 17.890625 C18.953127 17.890625 19.356769 18.059894 19.695312 18.398438 C20.033856 18.736981 20.203125 19.145831 20.203125 19.625000 C20.203125 20.093752 20.036460 20.499998 19.703125 20.843750 C19.369790 21.187502 18.963544 21.359375 18.484375 21.359375 Z M39.000000 25.000000" /></svg>