<svg version="1.1" xmlns="http://www.w3.org/2000/svg" style="fill:rgba(0,0,0,1.0)" width="256" height="256" viewBox="0 0 36.71875 32.8125"><path fill="rgb(255, 255, 255)" d="M2.734375 32.812500 C1.984371 32.812500 1.341149 32.544274 0.804688 32.007812 C0.268226 31.471351 0.000000 30.828129 0.000000 30.078125 L0.000000 2.734375 C0.000000 1.984371 0.268226 1.341149 0.804688 0.804688 C1.341149 0.268226 1.984371 -0.000000 2.734375 -0.000000 L30.078125 -0.000000 C30.828129 -0.000000 31.471351 0.268226 32.007812 0.804688 C32.544274 1.341149 32.812500 1.984371 32.812500 2.734375 L32.812500 30.093750 C32.812500 30.833337 32.541669 31.471351 32.000000 32.007812 C31.458331 32.544274 30.812504 32.812500 30.062500 32.812500 Z M9.953125 25.546875 L20.281250 15.203125 L24.046875 18.968750 L24.390625 8.031250 L13.453125 8.375000 L17.218750 12.140625 L6.875000 22.468750 Z M36.718750 27.343750" /></svg>