<svg version="1.1" xmlns="http://www.w3.org/2000/svg" style="fill:rgba(0,0,0,1.0)" width="256" height="256" viewBox="0 0 31.619583501168655 32.8125"><path fill="rgb(255, 255, 255)" d="M11.500000 32.812500 C8.979154 32.812500 6.908862 32.356775 5.289062 31.445312 C3.669263 30.533850 2.471358 29.125010 1.695312 27.218750 C0.919267 25.312490 0.531250 22.875015 0.531250 19.906250 L2.437500 20.578125 C2.437500 24.182310 3.171868 26.835929 4.640625 28.539062 C6.109382 30.242196 8.395818 31.093750 11.500000 31.093750 C14.427098 31.093750 16.716138 30.385424 18.367188 28.968750 C20.018237 27.552076 20.843750 25.630220 20.843750 23.203125 C20.843750 21.463533 20.338547 20.208337 19.328125 19.437500 C18.317703 18.666663 17.067716 18.281250 15.578125 18.281250 C13.765616 18.281250 12.322922 18.351562 11.250000 18.492188 C10.177078 18.632813 9.406252 18.867186 8.937500 19.195312 C8.468748 19.523439 8.234375 19.963539 8.234375 20.515625 C8.234375 21.057294 8.484372 21.453124 8.984375 21.703125 C9.484377 21.953126 10.260411 22.078125 11.312500 22.078125 C12.375005 22.078125 13.265621 22.153645 13.984375 22.304688 C14.703129 22.455730 15.356768 22.752602 15.945312 23.195312 C16.533857 23.638023 17.161455 24.291662 17.828125 25.156250 L16.406250 26.234375 C15.927081 25.557288 15.492189 25.054689 15.101562 24.726562 C14.710936 24.398436 14.226565 24.171876 13.648438 24.046875 C13.070310 23.921874 12.265630 23.838542 11.234375 23.796875 C9.588533 23.713541 8.364587 23.406253 7.562500 22.875000 C6.760413 22.343747 6.359375 21.562505 6.359375 20.531250 C6.359375 19.624995 6.598956 18.903649 7.078125 18.367188 C7.557294 17.830726 8.221350 17.434897 9.070312 17.179688 C9.919275 16.924478 10.901036 16.757813 12.015625 16.679688 C13.130214 16.601562 14.317702 16.562500 15.578125 16.562500 C16.901048 16.562500 18.101557 16.799477 19.179688 17.273438 C20.257818 17.747398 21.117184 18.473953 21.757812 19.453125 C22.398441 20.432297 22.718750 21.682284 22.718750 23.203125 C22.718750 25.161468 22.268234 26.861972 21.367188 28.304688 C20.466141 29.747403 19.179696 30.859371 17.507812 31.640625 C15.835929 32.421879 13.833345 32.812500 11.500000 32.812500 Z M13.937500 27.937500 L12.171875 27.687500 C12.265625 26.687495 12.591143 25.783858 13.148438 24.976562 C13.705732 24.169267 14.411454 23.557294 15.265625 23.140625 L15.984375 24.781250 C15.401039 25.072918 14.937502 25.515622 14.593750 26.109375 C14.249998 26.703128 14.031250 27.312497 13.937500 27.937500 Z M3.671875 22.281250 C2.713537 22.281250 1.994794 22.088544 1.515625 21.703125 C1.036456 21.317706 0.713542 20.830732 0.546875 20.242188 C0.380208 19.653643 0.276042 19.057295 0.234375 18.453125 L0.109375 16.421875 C0.036458 15.140619 0.354163 14.169274 1.062500 13.507812 C1.770837 12.846351 2.635412 12.515625 3.656250 12.515625 C4.197919 12.515625 4.713539 12.619791 5.203125 12.828125 C5.692711 13.036459 6.088540 13.364581 6.390625 13.812500 L5.156250 13.812500 C5.281251 12.791662 5.643226 12.013024 6.242188 11.476562 C6.841149 10.940101 7.588537 10.671875 8.484375 10.671875 C9.588547 10.671875 10.429685 10.994788 11.007812 11.640625 C11.585940 12.286462 11.932291 13.291660 12.046875 14.656250 L12.343750 18.156250 L10.546875 18.312500 L10.250000 14.687500 C10.187500 13.916663 10.007814 13.341148 9.710938 12.960938 C9.414061 12.580727 9.000003 12.390625 8.468750 12.390625 C7.895830 12.390625 7.471356 12.635414 7.195312 13.125000 C6.919269 13.614586 6.817708 14.281246 6.890625 15.125000 L7.140625 17.968750 C7.182292 18.437502 7.268229 18.802082 7.398438 19.062500 C7.528646 19.322918 7.739582 19.531249 8.031250 19.687500 L7.625000 21.531250 C6.739579 21.322916 6.169272 20.958336 5.914062 20.437500 C5.658853 19.916664 5.494792 19.244796 5.421875 18.421875 L5.156250 15.375000 C5.125000 14.989581 4.973960 14.703126 4.703125 14.515625 C4.432290 14.328124 4.088544 14.234375 3.671875 14.234375 C3.088539 14.234375 2.638022 14.424477 2.320312 14.804688 C2.002603 15.184898 1.864583 15.729163 1.906250 16.437500 L2.046875 18.468750 C2.098959 19.197920 2.276040 19.729165 2.578125 20.062500 C2.880210 20.395835 3.244790 20.562500 3.671875 20.562500 C4.276045 20.562500 4.718749 20.416668 5.000000 20.125000 C5.281251 19.833332 5.494791 19.411461 5.640625 18.859375 L7.390625 19.359375 C7.130207 20.328130 6.703128 21.057289 6.109375 21.546875 C5.515622 22.036461 4.703130 22.281250 3.671875 22.281250 Z M20.390625 19.765625 L18.765625 18.515625 L20.687500 5.781250 C20.843751 4.739578 20.796876 3.945315 20.546875 3.398438 C20.296874 2.851560 19.838545 2.578125 19.171875 2.578125 C18.713539 2.578125 18.359376 2.744790 18.109375 3.078125 C17.859374 3.411460 17.651042 3.984371 17.484375 4.796875 L15.593750 13.968750 L13.390625 13.968750 L10.875000 3.281250 C10.635415 2.239578 10.088546 1.718750 9.234375 1.718750 C8.755206 1.718750 8.359377 1.890623 8.046875 2.234375 C7.734373 2.578127 7.578125 2.979164 7.578125 3.437500 C7.578125 3.697918 7.611979 4.044269 7.679688 4.476562 C7.747396 4.908856 7.843749 5.385414 7.968750 5.906250 L9.234375 11.296875 L7.468750 11.703125 L6.218750 6.281250 C5.989582 5.312495 5.846354 4.653648 5.789062 4.304688 C5.731771 3.955727 5.703125 3.666668 5.703125 3.437500 C5.703125 2.458328 6.033851 1.640628 6.695312 0.984375 C7.356774 0.328122 8.192703 -0.000000 9.203125 -0.000000 C10.088546 -0.000000 10.825518 0.242185 11.414062 0.726562 C12.002607 1.210940 12.401041 1.906245 12.609375 2.812500 L14.453125 10.640625 L15.718750 4.437500 C15.958335 3.291661 16.364580 2.408857 16.937500 1.789062 C17.510420 1.169268 18.265620 0.859375 19.203125 0.859375 C20.494798 0.859375 21.419268 1.335933 21.976562 2.289062 C22.533857 3.242192 22.697918 4.468743 22.468750 5.968750 Z M31.718750 27.343750" /></svg>