<svg version="1.1" xmlns="http://www.w3.org/2000/svg" style="fill:rgba(0,0,0,1.0)" width="256" height="256" viewBox="0 0 34.689453730621445 32.8125"><path fill="rgb(255, 255, 255)" d="M11.546875 32.812500 C8.380192 32.812500 5.992196 32.138028 4.382812 30.789062 C2.773429 29.440097 1.968750 27.437513 1.968750 24.781250 L1.968750 16.937500 L0.218750 9.968750 C0.072916 9.395830 0.093749 8.846357 0.281250 8.320312 C0.468751 7.794268 0.770831 7.364585 1.187500 7.031250 C1.604169 6.697915 2.088539 6.531250 2.640625 6.531250 C2.932293 6.531250 3.208332 6.562500 3.468750 6.625000 L3.265625 5.734375 C3.140624 5.182289 3.184895 4.661461 3.398438 4.171875 C3.611980 3.682289 3.942706 3.283856 4.390625 2.976562 C4.838544 2.669269 5.348955 2.515625 5.921875 2.515625 C6.546878 2.515625 7.106768 2.705727 7.601562 3.085938 C8.096357 3.466148 8.432291 3.963539 8.609375 4.578125 L11.046875 12.843750 L14.406250 2.781250 C15.031253 0.927074 16.052076 -0.000000 17.468750 -0.000000 C18.333338 -0.000000 19.039060 0.307289 19.585938 0.921875 C20.132815 1.536461 20.286460 2.317704 20.046875 3.265625 L20.000000 3.453125 C20.083334 3.411458 20.171875 3.375000 20.265625 3.343750 C20.359375 3.312500 20.468749 3.296875 20.593750 3.296875 C21.437504 3.296875 22.088539 3.627601 22.546875 4.289062 C23.005211 4.950524 23.156251 5.697913 23.000000 6.531250 L20.875000 17.656250 L21.515625 16.796875 C22.098961 16.026038 22.721351 15.468752 23.382812 15.125000 C24.044274 14.781248 24.734371 14.609375 25.453125 14.609375 C26.411463 14.609375 27.221351 14.861977 27.882812 15.367188 C28.544274 15.872398 28.875000 16.510413 28.875000 17.281250 C28.875000 17.750002 28.726564 18.177081 28.429688 18.562500 C28.132811 18.947919 27.723961 19.296873 27.203125 19.609375 C26.838540 19.828126 26.419273 20.156248 25.945312 20.593750 C25.471352 21.031252 24.997398 21.526039 24.523438 22.078125 C24.049477 22.630211 23.619794 23.192705 23.234375 23.765625 C22.848956 24.338545 22.562501 24.869789 22.375000 25.359375 L21.968750 26.421875 C21.135412 28.598969 19.869800 30.208328 18.171875 31.250000 C16.473950 32.291672 14.265639 32.812500 11.546875 32.812500 Z M11.546875 31.093750 C13.901053 31.093750 15.768222 30.674483 17.148438 29.835938 C18.528653 28.997392 19.572913 27.651051 20.281250 25.796875 L20.687500 24.734375 C20.979168 23.973955 21.421872 23.174483 22.015625 22.335938 C22.609378 21.497392 23.286455 20.695316 24.046875 19.929688 C24.807295 19.164059 25.588538 18.520836 26.390625 18.000000 C26.567709 17.885416 26.713541 17.770834 26.828125 17.656250 C26.942709 17.541666 27.000000 17.416667 27.000000 17.281250 C27.000000 16.989582 26.846356 16.757813 26.539062 16.585938 C26.231769 16.414062 25.848961 16.328125 25.390625 16.328125 C24.911456 16.328125 24.450523 16.494790 24.007812 16.828125 C23.565102 17.161460 23.031253 17.744788 22.406250 18.578125 L21.062500 20.375000 C19.947911 20.479167 18.932296 20.856768 18.015625 21.507812 C17.098954 22.158857 16.372399 22.992182 15.835938 24.007812 C15.299476 25.023443 15.031250 26.130202 15.031250 27.328125 L13.234375 27.328125 C13.234375 26.078119 13.468748 24.903651 13.937500 23.804688 C14.406252 22.705724 15.070308 21.742192 15.929688 20.914062 C16.789067 20.085933 17.796869 19.453127 18.953125 19.015625 L21.234375 6.218750 C21.296875 5.874998 21.252605 5.588543 21.101562 5.359375 C20.950520 5.130207 20.739585 5.015625 20.468750 5.015625 C19.937497 5.015625 19.578126 5.338538 19.390625 5.984375 L16.375000 16.390625 L14.656250 15.875000 L18.359375 3.078125 C18.473959 2.703123 18.442709 2.382814 18.265625 2.117188 C18.088541 1.851561 17.822918 1.718750 17.468750 1.718750 C16.864580 1.718750 16.432293 2.109371 16.171875 2.890625 L12.343750 14.468750 C12.208333 14.875002 12.057292 15.200520 11.890625 15.445312 C11.723958 15.690105 11.453127 15.812500 11.078125 15.812500 C10.703123 15.812500 10.411459 15.682293 10.203125 15.421875 C9.994791 15.161457 9.828126 14.817710 9.703125 14.390625 L6.984375 5.140625 C6.901041 4.859374 6.765626 4.638022 6.578125 4.476562 C6.390624 4.315103 6.171876 4.234375 5.921875 4.234375 C5.588540 4.234375 5.330730 4.369790 5.148438 4.640625 C4.966145 4.911460 4.916666 5.223957 5.000000 5.578125 L7.750000 16.562500 L6.000000 16.984375 L4.109375 9.406250 C4.015625 9.020831 3.872397 8.731772 3.679688 8.539062 C3.486978 8.346353 3.250001 8.250000 2.968750 8.250000 C2.656248 8.250000 2.390626 8.382811 2.171875 8.648438 C1.953124 8.914064 1.890625 9.229165 1.984375 9.593750 L3.812500 16.921875 L3.812500 24.781250 C3.812500 26.947928 4.437494 28.541662 5.687500 29.562500 C6.937506 30.583338 8.890612 31.093750 11.546875 31.093750 Z M34.812500 27.343750" /></svg>