<svg version="1.1" xmlns="http://www.w3.org/2000/svg" style="fill:rgba(0,0,0,1.0)" width="256" height="256" viewBox="0 0 39.5625 29.6875"><path fill="rgb(255, 255, 255)" d="M26.531250 29.687500 C26.010414 29.687500 25.546877 29.539064 25.140625 29.242188 C24.734373 28.945311 24.453126 28.546878 24.296875 28.046875 L23.125000 24.312500 L19.687500 24.312500 C18.906246 24.312500 18.200524 24.125002 17.570312 23.750000 C16.940101 23.374998 16.434898 22.872399 16.054688 22.242188 C15.674477 21.611976 15.458334 20.911462 15.406250 20.140625 C14.708330 20.057291 14.111982 19.786461 13.617188 19.328125 C13.122393 18.869789 12.802084 18.307295 12.656250 17.640625 L5.390625 17.640625 C4.692705 17.640625 4.106773 17.403648 3.632812 16.929688 C3.158852 16.455727 2.921875 15.869795 2.921875 15.171875 L2.921875 10.859375 C2.921875 10.151038 3.158852 9.562502 3.632812 9.093750 C4.106773 8.624998 4.692705 8.390625 5.390625 8.390625 L6.953125 8.390625 C6.473956 7.953123 6.091147 7.424482 5.804688 6.804688 C5.518228 6.184893 5.375000 5.520837 5.375000 4.812500 C5.375000 3.927079 5.593748 3.119795 6.031250 2.390625 C6.468752 1.661455 7.052080 1.080731 7.781250 0.648438 C8.510420 0.216144 9.317704 -0.000000 10.203125 -0.000000 L22.453125 -0.000000 C23.442713 -0.000000 24.346350 0.276039 25.164062 0.828125 C25.981775 1.380211 26.567707 2.104162 26.921875 3.000000 L27.531250 3.000000 C27.572917 2.333330 27.825519 1.778648 28.289062 1.335938 C28.752606 0.893227 29.322913 0.671875 30.000000 0.671875 L32.375000 0.671875 C33.083337 0.671875 33.671873 0.906248 34.140625 1.375000 C34.609377 1.843752 34.843750 2.432288 34.843750 3.140625 L34.843750 7.390625 C34.843750 7.953128 34.687502 8.447915 34.375000 8.875000 C34.687502 9.302085 34.843750 9.796872 34.843750 10.359375 L34.843750 14.734375 C34.843750 15.421878 34.617190 15.999998 34.164062 16.468750 C33.710935 16.937502 33.140628 17.182292 32.453125 17.203125 C32.401041 17.859378 32.184898 18.432289 31.804688 18.921875 C31.424477 19.411461 30.942711 19.760416 30.359375 19.968750 L33.140625 27.265625 C33.380210 27.880211 33.325523 28.437498 32.976562 28.937500 C32.627602 29.437502 32.130212 29.687500 31.484375 29.687500 Z M2.390625 14.937500 C2.182291 14.937500 2.023438 14.885417 1.914062 14.781250 C1.804687 14.677083 1.705730 14.575521 1.617188 14.476562 C1.528645 14.377604 1.385418 14.328125 1.187500 14.328125 L0.796875 14.328125 C0.567707 14.328125 0.377605 14.252605 0.226562 14.101562 C0.075520 13.950520 0.000000 13.760418 0.000000 13.531250 L0.000000 12.093750 C0.000000 11.864582 0.075520 11.674480 0.226562 11.523438 C0.377605 11.372395 0.567707 11.296875 0.796875 11.296875 L1.187500 11.296875 C1.385418 11.296875 1.528645 11.244792 1.617188 11.140625 C1.705730 11.036458 1.804687 10.934896 1.914062 10.835938 C2.023438 10.736979 2.182291 10.687500 2.390625 10.687500 L3.546875 10.687500 L3.546875 14.937500 Z M8.843750 18.203125 C8.468748 18.203125 8.281250 18.010419 8.281250 17.625000 L8.281250 8.765625 L9.421875 8.765625 L9.421875 17.625000 C9.421875 18.010419 9.229169 18.203125 8.843750 18.203125 Z M10.875000 18.203125 C10.499998 18.203125 10.312500 18.010419 10.312500 17.625000 L10.312500 8.765625 L11.453125 8.765625 L11.453125 17.625000 C11.453125 18.010419 11.260419 18.203125 10.875000 18.203125 Z M20.390625 22.125000 C18.609366 22.125000 17.718750 21.281258 17.718750 19.593750 L17.718750 18.921875 L22.828125 18.921875 L23.781250 22.125000 Z M20.375000 21.500000 C20.645835 21.500000 20.781250 21.359376 20.781250 21.078125 L20.781250 20.828125 L21.593750 20.828125 L21.593750 20.968750 C21.593750 21.322918 21.786456 21.500000 22.171875 21.500000 L22.937500 21.500000 L22.312500 19.546875 L22.171875 19.546875 C21.786456 19.546875 21.593750 19.708332 21.593750 20.031250 L21.593750 20.171875 L20.781250 20.171875 L20.781250 19.968750 C20.781250 19.687499 20.645835 19.546875 20.375000 19.546875 C20.093749 19.546875 19.953125 19.687499 19.953125 19.968750 L19.953125 21.078125 C19.953125 21.359376 20.093749 21.500000 20.375000 21.500000 Z M26.531250 28.437500 L31.484375 28.437500 C31.692709 28.437500 31.848958 28.367188 31.953125 28.226562 C32.057292 28.085937 32.067709 27.916668 31.984375 27.718750 L31.125000 25.484375 L27.546875 25.484375 C27.317707 25.484375 27.127605 25.411459 26.976562 25.265625 C26.825520 25.119791 26.750000 24.932293 26.750000 24.703125 C26.750000 24.473957 26.825520 24.286459 26.976562 24.140625 C27.127605 23.994791 27.317707 23.921875 27.546875 23.921875 L30.531250 23.921875 L30.171875 22.984375 L26.765625 22.984375 C26.536457 22.984375 26.346355 22.911459 26.195312 22.765625 C26.044270 22.619791 25.968750 22.432293 25.968750 22.203125 C25.968750 21.973957 26.044270 21.786459 26.195312 21.640625 C26.346355 21.494791 26.536457 21.421875 26.765625 21.421875 L29.578125 21.421875 L29.218750 20.484375 L26.140625 20.484375 C25.911457 20.484375 25.721355 20.411459 25.570312 20.265625 C25.419270 20.119791 25.343750 19.932293 25.343750 19.703125 C25.343750 19.473957 25.419270 19.286459 25.570312 19.140625 C25.721355 18.994791 25.911457 18.921875 26.140625 18.921875 L29.203125 18.921875 C29.786461 18.921875 30.268227 18.731773 30.648438 18.351562 C31.028648 17.971352 31.218750 17.489586 31.218750 16.906250 L31.218750 15.953125 L32.375000 15.953125 C32.739585 15.953125 33.033853 15.838543 33.257812 15.609375 C33.481772 15.380207 33.593750 15.088543 33.593750 14.734375 L33.593750 10.359375 C33.593750 9.942706 33.507813 9.622397 33.335938 9.398438 C33.164062 9.174478 32.895835 9.000001 32.531250 8.875000 C32.895835 8.749999 33.164062 8.575522 33.335938 8.351562 C33.507813 8.127603 33.593750 7.807294 33.593750 7.390625 L33.593750 3.140625 C33.593750 2.776040 33.481772 2.481772 33.257812 2.257812 C33.033853 2.033853 32.739585 1.921875 32.375000 1.921875 L30.000000 1.921875 C29.645832 1.921875 29.354168 2.033853 29.125000 2.257812 C28.895832 2.481772 28.781250 2.776040 28.781250 3.140625 L28.781250 8.875000 L25.046875 8.875000 C24.244788 9.385419 23.380213 9.640625 22.453125 9.640625 L5.390625 9.640625 C5.036457 9.640625 4.744793 9.752603 4.515625 9.976562 C4.286457 10.200522 4.171875 10.494790 4.171875 10.859375 L4.171875 15.171875 C4.171875 15.526043 4.286457 15.817707 4.515625 16.046875 C4.744793 16.276043 5.036457 16.390625 5.390625 16.390625 L13.828125 16.390625 L13.828125 16.906250 C13.828125 17.489586 14.018227 17.971352 14.398438 18.351562 C14.778648 18.731773 15.260414 18.921875 15.843750 18.921875 L16.656250 18.921875 L16.656250 19.875000 C16.656250 20.750004 16.945310 21.499997 17.523438 22.125000 C18.101565 22.750003 18.822912 23.062500 19.687500 23.062500 L24.046875 23.062500 L25.484375 27.671875 C25.640626 28.182294 25.989581 28.437500 26.531250 28.437500 Z M16.406250 17.546875 C16.135415 17.546875 15.908855 17.458334 15.726562 17.281250 C15.544270 17.104166 15.453125 16.880210 15.453125 16.609375 C15.453125 16.338540 15.544270 16.117188 15.726562 15.945312 C15.908855 15.773437 16.135415 15.687500 16.406250 15.687500 L28.656250 15.687500 C28.927085 15.687500 29.153645 15.773437 29.335938 15.945312 C29.518230 16.117188 29.609375 16.338540 29.609375 16.609375 C29.609375 16.880210 29.518230 17.104166 29.335938 17.281250 C29.153645 17.458334 28.927085 17.546875 28.656250 17.546875 Z M10.203125 8.390625 L22.453125 8.390625 C23.317713 8.390625 24.085934 8.106774 24.757812 7.539062 C25.429691 6.971351 25.828124 6.250004 25.953125 5.375000 L27.531250 5.375000 L27.531250 4.093750 L25.937500 4.093750 C25.781249 3.270829 25.369795 2.591149 24.703125 2.054688 C24.036455 1.518226 23.286462 1.250000 22.453125 1.250000 L10.203125 1.250000 C9.546872 1.250000 8.947919 1.411457 8.406250 1.734375 C7.864581 2.057293 7.432293 2.486976 7.109375 3.023438 C6.786457 3.559899 6.625000 4.156247 6.625000 4.812500 C6.625000 5.468753 6.786457 6.067706 7.109375 6.609375 C7.432293 7.151044 7.864581 7.583332 8.406250 7.906250 C8.947919 8.229168 9.546872 8.390625 10.203125 8.390625 Z M11.296875 3.765625 C11.026040 3.765625 10.791668 3.703126 10.593750 3.578125 C10.395832 3.453124 10.296875 3.255210 10.296875 2.984375 C10.296875 2.713540 10.395832 2.515626 10.593750 2.390625 C10.791668 2.265624 11.026040 2.203125 11.296875 2.203125 L21.078125 2.203125 C21.348960 2.203125 21.583332 2.265624 21.781250 2.390625 C21.979168 2.515626 22.078125 2.713540 22.078125 2.984375 C22.078125 3.255210 21.979168 3.453124 21.781250 3.578125 C21.583332 3.703126 21.348960 3.765625 21.078125 3.765625 Z M26.359375 7.625000 L27.531250 7.625000 L27.531250 6.468750 L26.968750 6.468750 C26.822916 6.864585 26.619793 7.249998 26.359375 7.625000 Z M37.687500 15.531250 C37.447915 15.531250 37.252605 15.450522 37.101562 15.289062 C36.950520 15.127603 36.875000 14.932293 36.875000 14.703125 L36.875000 13.671875 L36.281250 13.671875 C36.166666 13.994793 35.966147 14.263020 35.679688 14.476562 C35.393228 14.690105 35.067710 14.807292 34.703125 14.828125 C34.692708 14.828125 34.677083 14.828125 34.656250 14.828125 C34.635417 14.828125 34.614583 14.828125 34.593750 14.828125 L34.593750 10.296875 C34.614583 10.296875 34.638021 10.296875 34.664062 10.296875 C34.690104 10.296875 34.713542 10.296875 34.734375 10.296875 C35.098960 10.328125 35.419269 10.453124 35.695312 10.671875 C35.971356 10.890626 36.166666 11.151040 36.281250 11.453125 L36.875000 11.453125 L36.875000 10.421875 C36.875000 10.182290 36.950520 9.984376 37.101562 9.828125 C37.252605 9.671874 37.447915 9.593750 37.687500 9.593750 C37.927085 9.593750 38.122395 9.671874 38.273438 9.828125 C38.424480 9.984376 38.500000 10.182290 38.500000 10.421875 L38.500000 14.703125 C38.500000 14.932293 38.424480 15.127603 38.273438 15.289062 C38.122395 15.450522 37.927085 15.531250 37.687500 15.531250 Z M39.562500 25.781250" /></svg>