<svg version="1.1" xmlns="http://www.w3.org/2000/svg" style="fill:rgba(0,0,0,1.0)" width="256" height="256" viewBox="0 0 36.484375 32.8125"><path fill="rgb(255, 255, 255)" d="M16.171875 32.812500 C13.921864 32.812500 11.820322 32.388025 9.867188 31.539062 C7.914053 30.690100 6.197924 29.513028 4.718750 28.007812 C3.239576 26.502597 2.083338 24.757822 1.250000 22.773438 C0.416663 20.789053 0.000000 18.666678 0.000000 16.406250 C0.000000 14.135405 0.416663 12.010427 1.250000 10.031250 C2.083338 8.052073 3.242180 6.309903 4.726562 4.804688 C6.210945 3.299472 7.929678 2.122400 9.882812 1.273438 C11.835947 0.424475 13.932280 -0.000000 16.171875 -0.000000 C18.411470 -0.000000 20.507803 0.424475 22.460938 1.273438 C24.414072 2.122400 26.132805 3.299472 27.617188 4.804688 C29.101570 6.309903 30.260412 8.052073 31.093750 10.031250 C31.927088 12.010427 32.343750 14.135405 32.343750 16.406250 C32.343750 18.666678 31.927088 20.789053 31.093750 22.773438 C30.260412 24.757822 29.101570 26.502597 27.617188 28.007812 C26.132805 29.513028 24.414072 30.690100 22.460938 31.539062 C20.507803 32.388025 18.411470 32.812500 16.171875 32.812500 Z M18.562500 31.921875 C15.697902 31.921875 13.182302 31.489588 11.015625 30.625000 C8.848948 29.760412 7.039070 28.591153 5.585938 27.117188 C4.132805 25.643222 3.039066 23.981780 2.304688 22.132812 C1.570309 20.283845 1.203125 18.380218 1.203125 16.421875 C1.203125 14.463532 1.559892 12.559905 2.273438 10.710938 C2.986983 8.861970 4.065097 7.203132 5.507812 5.734375 C6.950528 4.265618 8.757802 3.098963 10.929688 2.234375 C13.101573 1.369787 15.645819 0.937500 18.562500 0.937500 C19.260420 1.541670 20.010413 2.283850 20.812500 3.164062 C21.614587 4.044275 22.374996 5.104160 23.093750 6.343750 C23.812504 7.583340 24.401039 9.033846 24.859375 10.695312 C25.317711 12.356779 25.546875 14.265614 25.546875 16.421875 C25.546875 18.578136 25.317711 20.486971 24.859375 22.148438 C24.401039 23.809904 23.812504 25.260410 23.093750 26.500000 C22.374996 27.739590 21.614587 28.802079 20.812500 29.687500 C20.010413 30.572921 19.260420 31.317705 18.562500 31.921875 Z M16.171875 31.015625 C18.192718 31.015625 20.070304 30.643233 21.804688 29.898438 C23.539071 29.153642 25.054681 28.114590 26.351562 26.781250 C27.648444 25.447910 28.658851 23.895842 29.382812 22.125000 C30.106774 20.354158 30.468750 18.447927 30.468750 16.406250 C30.468750 14.354156 30.106774 12.445321 29.382812 10.679688 C28.658851 8.914054 27.648444 7.364590 26.351562 6.031250 C25.054681 4.697910 23.539071 3.658858 21.804688 2.914062 C20.070304 2.169267 18.192718 1.796875 16.171875 1.796875 C14.151032 1.796875 12.273446 2.169267 10.539062 2.914062 C8.804679 3.658858 7.289069 4.697910 5.992188 6.031250 C4.695306 7.364590 3.684899 8.914054 2.960938 10.679688 C2.236976 12.445321 1.875000 14.354156 1.875000 16.406250 C1.875000 18.447927 2.236976 20.354158 2.960938 22.125000 C3.684899 23.895842 4.695306 25.447910 5.992188 26.781250 C7.289069 28.114590 8.804679 29.153642 10.539062 29.898438 C12.273446 30.643233 14.151032 31.015625 16.171875 31.015625 Z M36.484375 27.343750" /></svg>