<svg version="1.1" xmlns="http://www.w3.org/2000/svg" style="fill:rgba(0,0,0,1.0)" width="256" height="256" viewBox="0 0 36.71875 32.8125"><path fill="rgb(255, 255, 255)" d="M2.734375 32.812500 C1.984371 32.812500 1.341149 32.544274 0.804688 32.007812 C0.268226 31.471351 0.000000 30.828129 0.000000 30.078125 L0.000000 2.718750 C0.000000 1.979163 0.270831 1.341149 0.812500 0.804688 C1.354169 0.268226 1.999996 -0.000000 2.750000 -0.000000 L30.078125 -0.000000 C30.828129 -0.000000 31.471351 0.268226 32.007812 0.804688 C32.544274 1.341149 32.812500 1.984371 32.812500 2.734375 L32.812500 30.078125 C32.812500 30.828129 32.544274 31.471351 32.007812 32.007812 C31.471351 32.544274 30.828129 32.812500 30.078125 32.812500 Z M13.609375 28.375000 C14.473963 28.375000 15.304684 28.231772 16.101562 27.945312 C16.898441 27.658853 17.614580 27.260419 18.250000 26.750000 L16.296875 24.812500 C15.505204 25.375003 14.609380 25.656250 13.609375 25.656250 C12.734371 25.656250 11.937504 25.442710 11.218750 25.015625 C10.499996 24.588540 9.927085 24.013024 9.500000 23.289062 C9.072915 22.565101 8.859375 21.765629 8.859375 20.890625 C8.859375 19.932287 9.140622 19.041671 9.703125 18.218750 L7.750000 16.265625 C7.249998 16.911462 6.856772 17.627600 6.570312 18.414062 C6.283853 19.200525 6.140625 20.026037 6.140625 20.890625 C6.140625 22.265632 6.476559 23.520828 7.148438 24.656250 C7.820316 25.791672 8.721349 26.695309 9.851562 27.367188 C10.981776 28.039066 12.234368 28.375000 13.609375 28.375000 Z M19.031250 26.046875 C19.666670 25.369788 20.169269 24.588546 20.539062 23.703125 C20.908856 22.817704 21.093750 21.880213 21.093750 20.890625 C21.093750 20.307289 21.026042 19.744794 20.890625 19.203125 C20.755208 18.661456 20.572918 18.151044 20.343750 17.671875 L22.234375 17.546875 L21.750000 23.375000 C21.708333 23.833336 21.830728 24.213540 22.117188 24.515625 C22.403647 24.817710 22.776039 24.968750 23.234375 24.968750 C23.630210 24.968750 23.968749 24.841147 24.250000 24.585938 C24.531251 24.330728 24.687500 24.005210 24.718750 23.609375 L25.312500 16.093750 C25.354167 15.604164 25.229168 15.210939 24.937500 14.914062 C24.645832 14.617186 24.255211 14.479167 23.765625 14.500000 L18.765625 14.765625 L21.343750 11.812500 C21.729169 11.364581 21.921875 10.916669 21.921875 10.468750 C21.921875 9.812497 21.614586 9.307293 21.000000 8.953125 L14.531250 5.187500 C14.291665 5.052083 14.046876 4.984375 13.796875 4.984375 C13.442707 4.984375 13.114585 5.119790 12.812500 5.390625 L9.546875 8.296875 C9.213540 8.578126 9.046875 8.942706 9.046875 9.390625 C9.046875 9.796877 9.187499 10.145832 9.468750 10.437500 C9.750001 10.729168 10.093748 10.875000 10.500000 10.875000 C10.885419 10.875000 11.218749 10.750001 11.500000 10.500000 L13.968750 8.312500 L15.953125 9.484375 L12.390625 13.531250 C10.848951 13.791668 9.541672 14.442703 8.468750 15.484375 L10.390625 17.406250 C11.296880 16.562496 12.369785 16.140625 13.609375 16.140625 C14.484379 16.140625 15.281246 16.354165 16.000000 16.781250 C16.718754 17.208335 17.291665 17.781246 17.718750 18.500000 C18.145835 19.218754 18.359375 20.015621 18.359375 20.890625 C18.359375 22.140631 17.937504 23.218745 17.093750 24.125000 Z M23.218750 8.750000 C23.895837 8.750000 24.473956 8.510419 24.953125 8.031250 C25.432294 7.552081 25.671875 6.979170 25.671875 6.312500 C25.671875 5.635413 25.432294 5.054690 24.953125 4.570312 C24.473956 4.085935 23.895837 3.843750 23.218750 3.843750 C22.552080 3.843750 21.976565 4.085935 21.492188 4.570312 C21.007810 5.054690 20.765625 5.635413 20.765625 6.312500 C20.765625 6.979170 21.007810 7.552081 21.492188 8.031250 C21.976565 8.510419 22.552080 8.750000 23.218750 8.750000 Z M36.718750 27.343750" /></svg>