<svg version="1.1" xmlns="http://www.w3.org/2000/svg" style="fill:rgba(0,0,0,1.0)" width="256" height="256" viewBox="0 0 33.442154549335825 32.8125"><path fill="rgb(255, 255, 255)" d="M4.703125 24.031250 C3.473952 24.031250 2.494795 23.721357 1.765625 23.101562 C1.036455 22.481768 0.671875 21.651047 0.671875 20.609375 C0.671875 19.921872 0.856769 19.291670 1.226562 18.718750 C1.596356 18.145830 2.075518 17.671877 2.664062 17.296875 C3.252607 16.921873 3.880205 16.692709 4.546875 16.609375 C4.640625 15.838538 4.906248 15.148441 5.343750 14.539062 C5.781252 13.929684 6.333330 13.445314 7.000000 13.085938 C7.666670 12.726561 8.390621 12.546875 9.171875 12.546875 C10.390631 12.546875 11.432287 12.856768 12.296875 13.476562 C13.161463 14.096357 13.755207 15.010411 14.078125 16.218750 L12.531250 16.625000 C12.072914 14.947908 11.010425 14.109375 9.343750 14.109375 C8.729164 14.109375 8.177086 14.247394 7.687500 14.523438 C7.197914 14.799481 6.815106 15.166664 6.539062 15.625000 C6.263019 16.083336 6.125000 16.598955 6.125000 17.171875 L6.125000 18.031250 C5.281246 18.104167 4.583336 18.265624 4.031250 18.515625 C3.479164 18.765626 3.067710 19.072915 2.796875 19.437500 C2.526040 19.802085 2.390625 20.192706 2.390625 20.609375 C2.390625 21.203128 2.575519 21.661457 2.945312 21.984375 C3.315106 22.307293 3.901038 22.468750 4.703125 22.468750 L22.062500 22.468750 C22.875004 22.468750 23.502602 22.257815 23.945312 21.835938 C24.388023 21.414060 24.609375 20.859378 24.609375 20.171875 C24.609375 19.432288 24.348961 18.822919 23.828125 18.343750 C23.307289 17.864581 22.625004 17.625000 21.781250 17.625000 C21.583332 17.625000 21.375001 17.640625 21.156250 17.671875 C21.333334 17.203123 21.468750 16.765627 21.562500 16.359375 C21.656250 15.953123 21.703125 15.526044 21.703125 15.078125 C21.703125 14.067703 21.455732 13.151046 20.960938 12.328125 C20.466143 11.505204 19.807296 10.846357 18.984375 10.351562 C18.161454 9.856768 17.244797 9.609375 16.234375 9.609375 C15.088536 9.609375 14.049484 9.932288 13.117188 10.578125 C12.184891 11.223962 11.510419 12.072911 11.093750 13.125000 L9.562500 12.812500 C10.052086 11.395826 10.906244 10.247400 12.125000 9.367188 C13.343756 8.486975 14.713534 8.046875 16.234375 8.046875 C17.526048 8.046875 18.703120 8.364580 19.765625 9.000000 C20.828130 9.635420 21.677080 10.484370 22.312500 11.546875 C22.947920 12.609380 23.265625 13.786452 23.265625 15.078125 C23.265625 15.515627 23.229167 15.916665 23.156250 16.281250 C24.083338 16.510418 24.843747 16.976559 25.437500 17.679688 C26.031253 18.382816 26.328125 19.213537 26.328125 20.171875 C26.328125 21.307297 25.927087 22.234371 25.125000 22.953125 C24.322913 23.671879 23.302090 24.031250 22.062500 24.031250 Z M6.093750 30.625000 C5.583331 30.625000 5.151043 30.471356 4.796875 30.164062 C4.442707 29.856769 4.265625 29.484377 4.265625 29.046875 C4.265625 28.713540 4.382811 28.322919 4.617188 27.875000 C4.851564 27.427081 5.143227 26.992190 5.492188 26.570312 C5.841148 26.148435 6.200519 25.796876 6.570312 25.515625 C6.940106 25.234374 7.260415 25.093750 7.531250 25.093750 C7.718751 25.093750 7.859375 25.218749 7.953125 25.468750 C8.046875 25.718751 8.093750 26.203121 8.093750 26.921875 C8.093750 29.390637 7.427090 30.625000 6.093750 30.625000 Z M12.187500 32.812500 C11.677081 32.812500 11.244793 32.658856 10.890625 32.351562 C10.536457 32.044269 10.359375 31.671877 10.359375 31.234375 C10.359375 30.901040 10.476561 30.510419 10.710938 30.062500 C10.945314 29.614581 11.236977 29.179690 11.585938 28.757812 C11.934898 28.335935 12.294269 27.984376 12.664062 27.703125 C13.033856 27.421874 13.354165 27.281250 13.625000 27.281250 C13.812501 27.281250 13.953125 27.406249 14.046875 27.656250 C14.140625 27.906251 14.187500 28.390621 14.187500 29.109375 C14.187500 31.578137 13.520840 32.812500 12.187500 32.812500 Z M18.750000 31.250000 C18.239581 31.250000 17.807293 31.096356 17.453125 30.789062 C17.098957 30.481769 16.921875 30.109377 16.921875 29.671875 C16.921875 29.338540 17.039061 28.947919 17.273438 28.500000 C17.507814 28.052081 17.799477 27.617190 18.148438 27.195312 C18.497398 26.773435 18.856769 26.421876 19.226562 26.140625 C19.596356 25.859374 19.916665 25.718750 20.187500 25.718750 C20.375001 25.718750 20.515625 25.843749 20.609375 26.093750 C20.703125 26.343751 20.750000 26.828121 20.750000 27.546875 C20.750000 28.796881 20.585939 29.726559 20.257812 30.335938 C19.929686 30.945316 19.427087 31.250000 18.750000 31.250000 Z M6.796875 14.656250 C6.005204 14.145831 5.364586 13.468754 4.875000 12.625000 C4.385414 11.781246 4.140625 10.848963 4.140625 9.828125 C4.140625 8.786453 4.395831 7.830734 4.906250 6.960938 C5.416669 6.091141 6.106766 5.393232 6.976562 4.867188 C7.846359 4.341143 8.817703 4.078125 9.890625 4.078125 C11.223965 4.078125 12.401037 4.484371 13.421875 5.296875 C14.442713 6.109379 15.114582 7.130202 15.437500 8.359375 L14.156250 9.015625 C14.031249 8.369788 13.760419 7.781253 13.343750 7.250000 C12.927081 6.718747 12.416670 6.291668 11.812500 5.968750 C11.208330 5.645832 10.567712 5.484375 9.890625 5.484375 C9.119788 5.484375 8.403649 5.684894 7.742188 6.085938 C7.080726 6.486981 6.549481 7.018226 6.148438 7.679688 C5.747394 8.341149 5.546875 9.057288 5.546875 9.828125 C5.546875 10.619796 5.747394 11.338538 6.148438 11.984375 C6.549481 12.630212 7.072913 13.130207 7.718750 13.484375 Z M3.078125 16.046875 C2.692706 16.140625 2.359376 16.093751 2.078125 15.906250 C1.796874 15.718749 1.622396 15.458335 1.554688 15.125000 C1.486979 14.791665 1.562499 14.458335 1.781250 14.125000 L3.796875 11.109375 L0.703125 9.234375 C0.369790 9.026041 0.169271 8.755210 0.101562 8.421875 C0.033854 8.088540 0.088541 7.773439 0.265625 7.476562 C0.442709 7.179686 0.729165 7.000000 1.125000 6.937500 L4.546875 6.375000 L3.781250 2.875000 C3.697916 2.479165 3.744791 2.145835 3.921875 1.875000 C4.098959 1.604165 4.346353 1.437500 4.664062 1.375000 C4.981772 1.312500 5.296873 1.395832 5.609375 1.625000 L8.515625 3.734375 L10.484375 0.609375 C10.744793 0.203123 11.098956 -0.000000 11.546875 -0.000000 C11.838543 -0.000000 12.088541 0.104166 12.296875 0.312500 C12.505209 0.520834 12.630208 0.770832 12.671875 1.062500 L13.265625 4.609375 L16.921875 3.859375 C17.286460 3.786458 17.591145 3.838541 17.835938 4.015625 C18.080730 4.192709 18.229166 4.429686 18.281250 4.726562 C18.333334 5.023439 18.244793 5.328123 18.015625 5.640625 L15.546875 9.093750 L14.625000 7.875000 L16.328125 5.500000 C16.348958 5.479167 16.348958 5.453125 16.328125 5.421875 C16.307292 5.390625 16.281250 5.380208 16.250000 5.390625 L13.078125 6.125000 L11.937500 5.187500 L11.437500 2.093750 C11.427083 2.062500 11.408854 2.041667 11.382812 2.031250 C11.356771 2.020833 11.333333 2.031250 11.312500 2.062500 L9.515625 5.000000 L8.015625 5.187500 L5.375000 3.250000 C5.354167 3.229167 5.328125 3.229167 5.296875 3.250000 C5.265625 3.270833 5.255208 3.296875 5.265625 3.328125 L6.031250 6.578125 L5.203125 7.703125 L2.093750 8.218750 C2.062500 8.229167 2.041667 8.247396 2.031250 8.273438 C2.020833 8.299479 2.031250 8.322917 2.062500 8.343750 L4.875000 9.984375 L5.234375 11.609375 L3.312500 14.343750 C3.302083 14.364583 3.304687 14.390625 3.320312 14.421875 C3.335938 14.453125 3.359375 14.463542 3.390625 14.453125 L6.468750 13.703125 L7.093750 15.000000 Z M33.515625 27.343750" /></svg>