<svg version="1.1" xmlns="http://www.w3.org/2000/svg" style="fill:rgba(0,0,0,1.0)" width="256" height="256" viewBox="0 0 30.078125 32.8125"><path fill="rgb(255, 255, 255)" d="M6.562500 22.359375 C6.562500 20.953118 6.690103 19.773442 6.945312 18.820312 C7.200522 17.867183 7.593747 17.015629 8.125000 16.265625 C8.656253 15.515621 9.338538 14.755212 10.171875 13.984375 C10.953129 13.265621 11.619789 12.619795 12.171875 12.046875 C12.723961 11.473955 13.145832 10.927086 13.437500 10.406250 C13.729168 9.885414 13.875000 9.348961 13.875000 8.796875 C13.875000 7.484368 13.523441 6.492191 12.820312 5.820312 C12.117184 5.148434 11.125006 4.812500 9.843750 4.812500 C8.531243 4.812500 7.502608 5.156247 6.757812 5.843750 C6.013017 6.531253 5.604167 7.515619 5.531250 8.796875 L0.000000 8.796875 C0.000000 6.973949 0.406246 5.406257 1.218750 4.093750 C2.031254 2.781243 3.171868 1.770837 4.640625 1.062500 C6.109382 0.354163 7.828115 -0.000000 9.796875 -0.000000 C12.828140 -0.000000 15.208325 0.752597 16.937500 2.257812 C18.666675 3.763028 19.531250 5.885403 19.531250 8.625000 C19.531250 9.708339 19.338544 10.692704 18.953125 11.578125 C18.567706 12.463546 17.986983 13.335933 17.210938 14.195312 C16.434892 15.054692 15.458339 15.994787 14.281250 17.015625 C13.614580 17.588545 13.114585 18.096352 12.781250 18.539062 C12.447915 18.981773 12.221355 19.486976 12.101562 20.054688 C11.981770 20.622399 11.906250 21.390620 11.875000 22.359375 Z M9.218750 32.812500 C8.499996 32.812500 7.843753 32.635418 7.250000 32.281250 C6.656247 31.927082 6.182293 31.453128 5.828125 30.859375 C5.473957 30.265622 5.296875 29.614587 5.296875 28.906250 C5.296875 28.197913 5.473957 27.549482 5.828125 26.960938 C6.182293 26.372393 6.658851 25.901043 7.257812 25.546875 C7.856774 25.192707 8.510413 25.015625 9.218750 25.015625 C9.927087 25.015625 10.575518 25.192707 11.164062 25.546875 C11.752607 25.901043 12.223957 26.372393 12.578125 26.960938 C12.932293 27.549482 13.109375 28.197913 13.109375 28.906250 C13.109375 29.614587 12.934898 30.265622 12.585938 30.859375 C12.236977 31.453128 11.768232 31.927082 11.179688 32.281250 C10.591143 32.635418 9.937504 32.812500 9.218750 32.812500 Z M9.218750 31.250000 C9.864587 31.250000 10.414060 31.020836 10.867188 30.562500 C11.320315 30.104164 11.546875 29.552087 11.546875 28.906250 C11.546875 28.270830 11.317711 27.723961 10.859375 27.265625 C10.401039 26.807289 9.854170 26.578125 9.218750 26.578125 C8.562497 26.578125 8.005211 26.807289 7.546875 27.265625 C7.088539 27.723961 6.859375 28.270830 6.859375 28.906250 C6.859375 29.552087 7.088539 30.104164 7.546875 30.562500 C8.005211 31.020836 8.562497 31.250000 9.218750 31.250000 Z M8.171875 20.796875 L10.406250 20.796875 C10.489584 20.046871 10.630207 19.406253 10.828125 18.875000 C11.026043 18.343747 11.320311 17.843752 11.710938 17.375000 C12.101564 16.906248 12.619788 16.390628 13.265625 15.828125 C14.442714 14.807287 15.374997 13.914066 16.062500 13.148438 C16.750003 12.382809 17.239582 11.645837 17.531250 10.937500 C17.822918 10.229163 17.968750 9.458337 17.968750 8.625000 C17.968750 6.333322 17.260424 4.583339 15.843750 3.375000 C14.427076 2.166661 12.411471 1.562500 9.796875 1.562500 C8.328118 1.562500 7.015631 1.799477 5.859375 2.273438 C4.703119 2.747398 3.763024 3.408850 3.039062 4.257812 C2.315101 5.106775 1.854168 6.098953 1.656250 7.234375 L4.203125 7.234375 C4.536460 5.984369 5.195308 5.007816 6.179688 4.304688 C7.164067 3.601559 8.385409 3.250000 9.843750 3.250000 C11.552092 3.250000 12.911453 3.736974 13.921875 4.710938 C14.932297 5.684901 15.437500 7.046866 15.437500 8.796875 C15.437500 9.609379 15.244794 10.364580 14.859375 11.062500 C14.473956 11.760420 13.963545 12.437497 13.328125 13.093750 C12.692705 13.750003 11.994795 14.427080 11.234375 15.125000 C10.536455 15.760420 9.973960 16.359372 9.546875 16.921875 C9.119790 17.484378 8.799480 18.070309 8.585938 18.679688 C8.372395 19.289066 8.234375 19.994788 8.171875 20.796875 Z M30.078125 27.343750" /></svg>