<svg version="1.1" xmlns="http://www.w3.org/2000/svg" style="fill:rgba(0,0,0,1.0)" width="256" height="256" viewBox="0 0 37.03125 32.8125"><path fill="rgb(255, 255, 255)" d="M2.750000 32.812500 C1.999996 32.812500 1.354169 32.544274 0.812500 32.007812 C0.270831 31.471351 0.000000 30.833337 0.000000 30.093750 L0.000000 2.734375 C0.000000 1.984371 0.268226 1.341149 0.804688 0.804688 C1.341149 0.268226 1.984371 -0.000000 2.734375 -0.000000 L30.703125 -0.000000 C31.453129 -0.000000 32.096351 0.268226 32.632812 0.804688 C33.169274 1.341149 33.437500 1.984371 33.437500 2.734375 L33.437500 30.078125 C33.437500 30.828129 33.169274 31.471351 32.632812 32.007812 C32.096351 32.544274 31.453129 32.812500 30.703125 32.812500 Z M3.062500 31.093750 L30.390625 31.093750 C30.703127 31.093750 30.976561 30.976564 31.210938 30.742188 C31.445314 30.507811 31.562500 30.234377 31.562500 29.921875 L31.562500 2.890625 C31.562500 2.578123 31.445314 2.304689 31.210938 2.070312 C30.976561 1.835936 30.703127 1.718750 30.390625 1.718750 L3.046875 1.718750 C2.734373 1.718750 2.460939 1.835936 2.226562 2.070312 C1.992186 2.304689 1.875000 2.578123 1.875000 2.890625 L1.875000 29.937500 C1.875000 30.250002 1.992186 30.520832 2.226562 30.750000 C2.460939 30.979168 2.739582 31.093750 3.062500 31.093750 Z M7.875000 26.078125 C7.614582 26.078125 7.393230 25.986980 7.210938 25.804688 C7.028645 25.622395 6.937500 25.401043 6.937500 25.140625 L6.937500 7.671875 C6.937500 7.411457 7.028645 7.190105 7.210938 7.007812 C7.393230 6.825520 7.614582 6.734375 7.875000 6.734375 L25.562500 6.734375 C25.833335 6.734375 26.057291 6.825520 26.234375 7.007812 C26.411459 7.190105 26.500000 7.411457 26.500000 7.671875 L26.500000 25.140625 C26.500000 25.401043 26.411459 25.622395 26.234375 25.804688 C26.057291 25.986980 25.833335 26.078125 25.562500 26.078125 Z M37.031250 27.343750" /></svg>