<svg version="1.1" xmlns="http://www.w3.org/2000/svg" style="fill:rgba(0,0,0,1.0)" width="256" height="256" viewBox="0 0 36.71875 32.8125"><path fill="rgb(255, 255, 255)" d="M2.734375 32.812500 C1.984371 32.812500 1.341149 32.544274 0.804688 32.007812 C0.268226 31.471351 0.000000 30.828129 0.000000 30.078125 L0.000000 2.718750 C0.000000 1.979163 0.270831 1.341149 0.812500 0.804688 C1.354169 0.268226 1.999996 -0.000000 2.750000 -0.000000 L30.078125 -0.000000 C30.828129 -0.000000 31.471351 0.268226 32.007812 0.804688 C32.544274 1.341149 32.812500 1.984371 32.812500 2.734375 L32.812500 30.078125 C32.812500 30.828129 32.544274 31.471351 32.007812 32.007812 C31.471351 32.544274 30.828129 32.812500 30.078125 32.812500 Z M16.406250 26.406250 C16.937503 26.406250 17.390623 26.218752 17.765625 25.843750 C18.140627 25.468748 18.328125 25.015628 18.328125 24.484375 C18.328125 23.953122 18.140627 23.500002 17.765625 23.125000 C17.390623 22.749998 16.937503 22.562500 16.406250 22.562500 C15.874997 22.562500 15.421877 22.749998 15.046875 23.125000 C14.671873 23.500002 14.484375 23.953122 14.484375 24.484375 C14.484375 25.015628 14.671873 25.468748 15.046875 25.843750 C15.421877 26.218752 15.874997 26.406250 16.406250 26.406250 Z M11.859375 21.562500 C12.380211 20.770829 13.039059 20.158856 13.835938 19.726562 C14.632816 19.294269 15.489579 19.078125 16.406250 19.078125 C17.364588 19.078125 18.244788 19.302081 19.046875 19.750000 C19.848962 20.197919 20.489581 20.807288 20.968750 21.578125 L22.218750 20.093750 C21.427079 19.062495 20.520838 18.322919 19.500000 17.875000 C18.479162 17.427081 17.447922 17.203125 16.406250 17.203125 C14.083322 17.203125 12.145841 18.166657 10.593750 20.093750 Z M8.515625 17.578125 C9.567714 16.411452 10.768222 15.523441 12.117188 14.914062 C13.466153 14.304684 14.895826 14.000000 16.406250 14.000000 C17.510422 14.000000 18.567703 14.166665 19.578125 14.500000 C20.588547 14.833335 21.502600 15.273435 22.320312 15.820312 C23.138025 16.367190 23.802081 16.958330 24.312500 17.593750 L25.531250 16.140625 C24.249994 14.755201 22.817716 13.739587 21.234375 13.093750 C19.651034 12.447913 18.041675 12.125000 16.406250 12.125000 C14.656241 12.125000 13.010424 12.466142 11.468750 13.148438 C9.927076 13.830733 8.536465 14.828118 7.296875 16.140625 Z M4.812500 13.171875 C5.718755 12.182287 6.796869 11.320316 8.046875 10.585938 C9.296881 9.851559 10.640618 9.283856 12.078125 8.882812 C13.515632 8.481769 14.958326 8.281250 16.406250 8.281250 C17.791674 8.281250 19.169264 8.458332 20.539062 8.812500 C21.908861 9.166668 23.226556 9.705726 24.492188 10.429688 C25.757819 11.153649 26.927078 12.072911 28.000000 13.187500 L29.218750 11.734375 C28.114578 10.609369 26.875007 9.651046 25.500000 8.859375 C24.124993 8.067704 22.669279 7.460940 21.132812 7.039062 C19.596346 6.617185 18.020841 6.406250 16.406250 6.406250 C14.812492 6.406250 13.218758 6.627602 11.625000 7.070312 C10.031242 7.513023 8.544278 8.132809 7.164062 8.929688 C5.783847 9.726566 4.598963 10.656245 3.609375 11.718750 Z M36.718750 27.343750" /></svg>