<svg version="1.1" xmlns="http://www.w3.org/2000/svg" style="fill:rgba(0,0,0,1.0)" width="256" height="256" viewBox="0 0 36.453125 31.25"><path fill="rgb(255, 255, 255)" d="M16.140625 31.250000 C12.755191 31.250000 10.276050 29.354186 8.703125 25.562500 L8.281250 24.546875 C8.145833 24.213540 8.028646 23.971355 7.929688 23.820312 C7.830729 23.669270 7.723959 23.593750 7.609375 23.593750 C7.515625 23.593750 7.385418 23.645833 7.218750 23.750000 C7.052082 23.854167 6.812502 24.020832 6.500000 24.250000 C6.114581 24.531251 5.750002 24.731770 5.406250 24.851562 C5.062498 24.971355 4.744793 25.031250 4.453125 25.031250 C3.984373 25.031250 3.604168 24.901043 3.312500 24.640625 C3.020832 24.380207 2.875000 24.052085 2.875000 23.656250 C2.875000 23.479166 2.903646 23.296876 2.960938 23.109375 C3.018229 22.921874 3.088541 22.734376 3.171875 22.546875 C3.036458 22.588542 2.903646 22.627604 2.773438 22.664062 C2.643229 22.700521 2.505209 22.718750 2.359375 22.718750 C1.973956 22.718750 1.630210 22.578126 1.328125 22.296875 C1.026040 22.015624 0.875000 21.666669 0.875000 21.250000 C0.875000 21.062499 0.906250 20.882813 0.968750 20.710938 C1.031250 20.539062 1.109375 20.375001 1.203125 20.218750 C0.848957 20.145833 0.559897 19.966147 0.335938 19.679688 C0.111978 19.393228 0.000000 19.057294 0.000000 18.671875 C0.000000 18.192706 0.177082 17.651045 0.531250 17.046875 C0.885418 16.442705 1.427080 15.791670 2.156250 15.093750 L2.843750 14.421875 C3.385419 13.890622 3.773436 13.395836 4.007812 12.937500 C4.242189 12.479164 4.359375 12.093752 4.359375 11.781250 C4.359375 11.406248 4.203127 10.919274 3.890625 10.320312 C3.578123 9.721351 3.213544 9.044275 2.796875 8.289062 C2.380206 7.533850 2.015627 6.721359 1.703125 5.851562 C1.390623 4.981766 1.234375 4.083338 1.234375 3.156250 C1.234375 1.052073 2.421863 -0.000000 4.796875 -0.000000 C5.317711 -0.000000 5.877601 0.075520 6.476562 0.226562 C7.075524 0.377605 7.830725 0.656248 8.742188 1.062500 C9.653650 1.468752 10.833326 2.062496 12.281250 2.843750 C12.791669 2.666666 13.429684 2.515626 14.195312 2.390625 C14.960941 2.265624 15.609372 2.203125 16.140625 2.203125 C16.671878 2.203125 17.320309 2.265624 18.085938 2.390625 C18.851566 2.515626 19.489581 2.666666 20.000000 2.843750 C21.447924 2.062496 22.627600 1.468752 23.539062 1.062500 C24.450525 0.656248 25.205726 0.377605 25.804688 0.226562 C26.403649 0.075520 26.963539 -0.000000 27.484375 -0.000000 C29.859387 -0.000000 31.046875 1.052073 31.046875 3.156250 C31.046875 4.083338 30.890627 4.981766 30.578125 5.851562 C30.265623 6.721359 29.901044 7.533850 29.484375 8.289062 C29.067706 9.044275 28.703127 9.721351 28.390625 10.320312 C28.078123 10.919274 27.921875 11.406248 27.921875 11.781250 C27.921875 12.093752 28.039061 12.479164 28.273438 12.937500 C28.507814 13.395836 28.895831 13.890622 29.437500 14.421875 L30.125000 15.093750 C30.854170 15.791670 31.395832 16.442705 31.750000 17.046875 C32.104168 17.651045 32.281250 18.192706 32.281250 18.671875 C32.281250 19.057294 32.171876 19.393228 31.953125 19.679688 C31.734374 19.966147 31.442710 20.145833 31.078125 20.218750 C31.171875 20.375001 31.250000 20.539062 31.312500 20.710938 C31.375000 20.882813 31.406250 21.062499 31.406250 21.250000 C31.406250 21.666669 31.255210 22.015624 30.953125 22.296875 C30.651040 22.578126 30.307294 22.718750 29.921875 22.718750 C29.786458 22.718750 29.653646 22.700521 29.523438 22.664062 C29.393229 22.627604 29.255209 22.588542 29.109375 22.546875 C29.192709 22.734376 29.263021 22.921874 29.320312 23.109375 C29.377604 23.296876 29.406250 23.479166 29.406250 23.656250 C29.406250 24.052085 29.260418 24.380207 28.968750 24.640625 C28.677082 24.901043 28.296877 25.031250 27.828125 25.031250 C27.536457 25.031250 27.221356 24.971355 26.882812 24.851562 C26.544269 24.731770 26.177085 24.531251 25.781250 24.250000 C25.468748 24.020832 25.229168 23.854167 25.062500 23.750000 C24.895832 23.645833 24.765625 23.593750 24.671875 23.593750 C24.557291 23.593750 24.450521 23.669270 24.351562 23.820312 C24.252604 23.971355 24.135417 24.213540 24.000000 24.546875 L23.578125 25.562500 C22.005200 29.354186 19.526059 31.250000 16.140625 31.250000 Z M14.203125 28.156250 C13.765623 28.156250 13.354169 28.057293 12.968750 27.859375 C12.583331 27.661457 12.223960 27.369794 11.890625 26.984375 L12.750000 25.921875 C13.260419 26.421878 13.734373 26.671875 14.171875 26.671875 C14.567710 26.671875 14.882811 26.531251 15.117188 26.250000 C15.351564 25.968749 15.468750 25.567711 15.468750 25.046875 L16.812500 25.046875 C16.812500 25.567711 16.929686 25.968749 17.164062 26.250000 C17.398439 26.531251 17.713540 26.671875 18.109375 26.671875 C18.546877 26.671875 19.020831 26.421878 19.531250 25.921875 L20.390625 26.984375 C20.067707 27.369794 19.710939 27.661457 19.320312 27.859375 C18.929686 28.057293 18.515627 28.156250 18.078125 28.156250 C17.703123 28.156250 17.361981 28.078126 17.054688 27.921875 C16.747394 27.765624 16.442710 27.510418 16.140625 27.156250 C15.838540 27.510418 15.533856 27.765624 15.226562 27.921875 C14.919269 28.078126 14.578127 28.156250 14.203125 28.156250 Z M16.140625 25.812500 C15.411455 25.812500 14.809898 25.619794 14.335938 25.234375 C13.861977 24.848956 13.625000 24.401044 13.625000 23.890625 C13.625000 23.401039 13.846352 23.046876 14.289062 22.828125 C14.731773 22.609374 15.348954 22.500000 16.140625 22.500000 C16.932296 22.500000 17.549477 22.609374 17.992188 22.828125 C18.434898 23.046876 18.656250 23.401039 18.656250 23.890625 C18.656250 24.401044 18.421877 24.848956 17.953125 25.234375 C17.484373 25.619794 16.880212 25.812500 16.140625 25.812500 Z M11.015625 16.265625 C10.546873 16.265625 10.145835 16.080731 9.812500 15.710938 C9.479165 15.341144 9.312500 14.890628 9.312500 14.359375 C9.312500 13.838539 9.479165 13.393231 9.812500 13.023438 C10.145835 12.653644 10.546873 12.468750 11.015625 12.468750 C11.473961 12.468750 11.869790 12.653644 12.203125 13.023438 C12.536460 13.393231 12.703125 13.838539 12.703125 14.359375 C12.703125 14.890628 12.536460 15.341144 12.203125 15.710938 C11.869790 16.080731 11.473961 16.265625 11.015625 16.265625 Z M16.140625 29.531250 C17.598966 29.531250 18.804683 29.179691 19.757812 28.476562 C20.710942 27.773434 21.536455 26.604175 22.234375 24.968750 L23.031250 23.093750 C23.239584 22.614581 23.429687 22.265626 23.601562 22.046875 C23.773438 21.828124 23.914062 21.661459 24.023438 21.546875 C24.132813 21.432291 24.187500 21.307292 24.187500 21.171875 C24.187500 20.869790 23.971356 20.619793 23.539062 20.421875 C23.106769 20.223957 22.625003 20.125000 22.093750 20.125000 C21.249996 20.125000 20.526045 20.434893 19.921875 21.054688 C19.317705 21.674482 18.880210 22.520828 18.609375 23.593750 L17.109375 23.156250 C17.463543 21.760410 18.091141 20.632817 18.992188 19.773438 C19.893234 18.914058 20.927078 18.484375 22.093750 18.484375 C22.729170 18.484375 23.325518 18.606770 23.882812 18.851562 C24.440107 19.096355 24.890623 19.416665 25.234375 19.812500 C25.578127 20.208335 25.750000 20.640623 25.750000 21.109375 C25.750000 21.369793 25.609376 21.666665 25.328125 22.000000 C25.505209 22.062500 25.690103 22.151041 25.882812 22.265625 C26.075522 22.380209 26.302082 22.526041 26.562500 22.703125 C26.770834 22.838542 26.960937 22.955729 27.132812 23.054688 C27.304688 23.153646 27.432291 23.203125 27.515625 23.203125 C27.546875 23.203125 27.570312 23.197917 27.585938 23.187500 C27.601563 23.177083 27.609375 23.156250 27.609375 23.125000 C27.609375 22.854165 27.520834 22.604168 27.343750 22.375000 C27.166666 22.145832 27.078125 21.875002 27.078125 21.562500 C27.078125 21.239582 27.192707 20.984376 27.421875 20.796875 C27.651043 20.609374 27.895832 20.515625 28.156250 20.515625 C28.354168 20.515625 28.549478 20.552083 28.742188 20.625000 C28.934897 20.697917 29.083333 20.734375 29.187500 20.734375 C29.291667 20.734375 29.343750 20.697917 29.343750 20.625000 C29.343750 20.593750 29.335938 20.557292 29.320312 20.515625 C29.304687 20.473958 29.276042 20.432292 29.234375 20.390625 C28.796873 19.859372 28.510417 19.486980 28.375000 19.273438 C28.239583 19.059895 28.171875 18.859376 28.171875 18.671875 C28.171875 18.442707 28.236979 18.260417 28.367188 18.125000 C28.497396 17.989583 28.677082 17.921875 28.906250 17.921875 C29.145835 17.921875 29.393228 17.986979 29.648438 18.117188 C29.903647 18.247396 30.083333 18.312500 30.187500 18.312500 C30.333334 18.312500 30.406250 18.250001 30.406250 18.125000 C30.406250 18.010416 30.236981 17.773439 29.898438 17.414062 C29.559894 17.054686 29.156252 16.645836 28.687500 16.187500 L28.125000 15.640625 C27.374996 14.901038 26.841147 14.205732 26.523438 13.554688 C26.205728 12.903643 26.046875 12.312503 26.046875 11.781250 C26.046875 11.229164 26.203123 10.617191 26.515625 9.945312 C26.828127 9.273434 27.192706 8.562504 27.609375 7.812500 C28.026044 7.062496 28.390623 6.294275 28.703125 5.507812 C29.015627 4.721350 29.171875 3.937504 29.171875 3.156250 C29.171875 2.635414 29.052085 2.265626 28.812500 2.046875 C28.572915 1.828124 28.130212 1.718750 27.484375 1.718750 C27.151040 1.718750 26.804689 1.755208 26.445312 1.828125 C26.085936 1.901042 25.643232 2.039061 25.117188 2.242188 C24.591143 2.445314 23.927087 2.747394 23.125000 3.148438 C22.322913 3.549481 21.312506 4.078122 20.093750 4.734375 C19.833332 4.588541 19.471356 4.453126 19.007812 4.328125 C18.544269 4.203124 18.054690 4.104167 17.539062 4.031250 C17.023435 3.958333 16.557294 3.921875 16.140625 3.921875 C15.723956 3.921875 15.257815 3.958333 14.742188 4.031250 C14.226560 4.104167 13.739586 4.203124 13.281250 4.328125 C12.822914 4.453126 12.458335 4.588541 12.187500 4.734375 C10.968744 4.078122 9.958337 3.549481 9.156250 3.148438 C8.354163 2.747394 7.690107 2.445314 7.164062 2.242188 C6.638018 2.039061 6.195314 1.901042 5.835938 1.828125 C5.476561 1.755208 5.130210 1.718750 4.796875 1.718750 C4.161455 1.718750 3.721355 1.828124 3.476562 2.046875 C3.231770 2.265626 3.109375 2.635414 3.109375 3.156250 C3.109375 3.937504 3.265623 4.721350 3.578125 5.507812 C3.890627 6.294275 4.255206 7.062496 4.671875 7.812500 C5.088544 8.562504 5.453123 9.273434 5.765625 9.945312 C6.078127 10.617191 6.234375 11.229164 6.234375 11.781250 C6.234375 12.312503 6.075522 12.903643 5.757812 13.554688 C5.440103 14.205732 4.906254 14.901038 4.156250 15.640625 L3.593750 16.187500 C3.124998 16.645836 2.721356 17.054686 2.382812 17.414062 C2.044269 17.773439 1.875000 18.010416 1.875000 18.125000 C1.875000 18.250001 1.947916 18.312500 2.093750 18.312500 C2.208334 18.312500 2.390624 18.247396 2.640625 18.117188 C2.890626 17.986979 3.135415 17.921875 3.375000 17.921875 C3.604168 17.921875 3.783854 17.989583 3.914062 18.125000 C4.044271 18.260417 4.109375 18.442707 4.109375 18.671875 C4.109375 18.859376 4.041667 19.059895 3.906250 19.273438 C3.770833 19.486980 3.484377 19.859372 3.046875 20.390625 C3.005208 20.432292 2.976563 20.473958 2.960938 20.515625 C2.945312 20.557292 2.937500 20.593750 2.937500 20.625000 C2.937500 20.697917 2.989583 20.734375 3.093750 20.734375 C3.197917 20.734375 3.346353 20.697917 3.539062 20.625000 C3.731772 20.552083 3.927082 20.515625 4.125000 20.515625 C4.385418 20.515625 4.630207 20.609374 4.859375 20.796875 C5.088543 20.984376 5.203125 21.239582 5.203125 21.562500 C5.203125 21.875002 5.114584 22.145832 4.937500 22.375000 C4.760416 22.604168 4.671875 22.854165 4.671875 23.125000 C4.671875 23.156250 4.679687 23.177083 4.695312 23.187500 C4.710938 23.197917 4.734375 23.203125 4.765625 23.203125 C4.848959 23.203125 4.979166 23.153646 5.156250 23.054688 C5.333334 22.955729 5.520832 22.838542 5.718750 22.703125 C5.989585 22.526041 6.221353 22.380209 6.414062 22.265625 C6.606772 22.151041 6.786458 22.062500 6.953125 22.000000 C6.671874 21.666665 6.531250 21.369793 6.531250 21.109375 C6.531250 20.640623 6.703123 20.208335 7.046875 19.812500 C7.390627 19.416665 7.841143 19.096355 8.398438 18.851562 C8.955732 18.606770 9.552080 18.484375 10.187500 18.484375 C11.364589 18.484375 12.401037 18.914058 13.296875 19.773438 C14.192713 20.632817 14.817707 21.760410 15.171875 23.156250 L13.671875 23.593750 C13.411457 22.520828 12.976566 21.674482 12.367188 21.054688 C11.757809 20.434893 11.031254 20.125000 10.187500 20.125000 C9.656247 20.125000 9.174481 20.223957 8.742188 20.421875 C8.309894 20.619793 8.093750 20.869790 8.093750 21.171875 C8.093750 21.307292 8.148437 21.432291 8.257812 21.546875 C8.367188 21.661459 8.510416 21.828124 8.687500 22.046875 C8.864584 22.265626 9.052082 22.614581 9.250000 23.093750 L10.046875 24.968750 C10.744795 26.604175 11.570308 27.773434 12.523438 28.476562 C13.476567 29.179691 14.682284 29.531250 16.140625 29.531250 Z M7.359375 8.937500 C6.932290 8.572915 6.528648 8.083336 6.148438 7.468750 C5.768227 6.854164 5.458335 6.210941 5.218750 5.539062 C4.979165 4.867184 4.859375 4.276044 4.859375 3.765625 C4.859375 3.401040 5.078123 3.218750 5.515625 3.218750 C5.932294 3.218750 6.450518 3.330728 7.070312 3.554688 C7.690107 3.778647 8.296872 4.057290 8.890625 4.390625 C9.484378 4.723960 9.937498 5.057290 10.250000 5.390625 C9.614580 6.098962 9.072919 6.729164 8.625000 7.281250 C8.177081 7.833336 7.755210 8.385414 7.359375 8.937500 Z M21.265625 16.265625 C20.807289 16.265625 20.411460 16.080731 20.078125 15.710938 C19.744790 15.341144 19.578125 14.890628 19.578125 14.359375 C19.578125 13.838539 19.744790 13.393231 20.078125 13.023438 C20.411460 12.653644 20.807289 12.468750 21.265625 12.468750 C21.734377 12.468750 22.135415 12.653644 22.468750 13.023438 C22.802085 13.393231 22.968750 13.838539 22.968750 14.359375 C22.968750 14.890628 22.802085 15.341144 22.468750 15.710938 C22.135415 16.080731 21.734377 16.265625 21.265625 16.265625 Z M24.921875 8.937500 C24.526040 8.385414 24.106773 7.833336 23.664062 7.281250 C23.221352 6.729164 22.677087 6.098962 22.031250 5.390625 C22.343752 5.057290 22.796872 4.723960 23.390625 4.390625 C23.984378 4.057290 24.593747 3.778647 25.218750 3.554688 C25.843753 3.330728 26.359373 3.218750 26.765625 3.218750 C27.203127 3.218750 27.421875 3.401040 27.421875 3.765625 C27.421875 4.276044 27.302085 4.867184 27.062500 5.539062 C26.822915 6.210941 26.513023 6.854164 26.132812 7.468750 C25.752602 8.083336 25.348960 8.572915 24.921875 8.937500 Z M36.453125 26.562500" /></svg>