<svg version="1.1" xmlns="http://www.w3.org/2000/svg" style="fill:rgba(0,0,0,1.0)" width="256" height="256" viewBox="0 0 33.828125 32.8125"><path fill="rgb(255, 255, 255)" d="M6.781250 23.250000 C5.395826 23.250000 4.195318 22.830733 3.179688 21.992188 C2.164057 21.153642 1.380211 20.010424 0.828125 18.562500 C0.276039 17.114576 0.000000 15.484384 0.000000 13.671875 C0.000000 11.671865 0.356767 9.838550 1.070312 8.171875 C1.783858 6.505200 2.765619 5.062506 4.015625 3.843750 C5.265631 2.624994 6.710929 1.679691 8.351562 1.007812 C9.992196 0.335934 11.739574 -0.000000 13.593750 -0.000000 C15.447926 -0.000000 17.184888 0.335934 18.804688 1.007812 C20.424487 1.679691 21.851556 2.624994 23.085938 3.843750 C24.320319 5.062506 25.286455 6.505200 25.984375 8.171875 C26.682295 9.838550 27.031250 11.671865 27.031250 13.671875 C27.031250 15.484384 26.750003 17.114576 26.187500 18.562500 C25.624997 20.010424 24.835943 21.153642 23.820312 21.992188 C22.804682 22.830733 21.609382 23.250000 20.234375 23.250000 C20.723961 22.156245 21.106769 20.914069 21.382812 19.523438 C21.658856 18.132806 21.796875 16.734382 21.796875 15.328125 C21.796875 15.119791 21.794271 14.906251 21.789062 14.687500 C21.783854 14.468749 21.770833 14.255209 21.750000 14.046875 C21.104163 13.692707 20.458337 13.218753 19.812500 12.625000 C19.166663 12.031247 18.575524 11.385420 18.039062 10.687500 C17.502601 9.989580 17.062502 9.307295 16.718750 8.640625 C15.354160 9.682297 13.674489 10.546872 11.679688 11.234375 C9.684886 11.921878 7.630219 12.395832 5.515625 12.656250 C5.411458 13.083335 5.333334 13.536456 5.281250 14.015625 C5.229166 14.494794 5.203125 14.989581 5.203125 15.500000 C5.203125 16.479172 5.281249 17.463537 5.437500 18.453125 C5.593751 19.442713 5.794270 20.356767 6.039062 21.195312 C6.283855 22.033858 6.531249 22.718747 6.781250 23.250000 Z M13.343750 32.812500 C10.208318 32.812500 7.734384 32.333338 5.921875 31.375000 C4.109366 30.416662 3.098959 29.072925 2.890625 27.343750 C2.713541 25.802076 2.604167 24.263029 2.562500 22.726562 C2.520833 21.190096 2.500000 19.651049 2.500000 18.109375 L4.375000 18.140625 C4.375000 19.651049 4.390625 21.179680 4.421875 22.726562 C4.453125 24.273445 4.567707 25.760410 4.765625 27.187500 C4.911459 28.291672 5.723951 29.192705 7.203125 29.890625 C8.682299 30.588545 10.729154 30.937500 13.343750 30.937500 C15.302093 30.937500 16.984368 30.770835 18.390625 30.437500 C19.796882 30.104165 20.874996 29.656253 21.625000 29.093750 C22.375004 28.531247 22.750000 27.916670 22.750000 27.250000 C22.750000 27.010415 22.710938 26.763022 22.632812 26.507812 C22.554687 26.252603 22.447917 25.989585 22.312500 25.718750 C22.145832 25.385415 22.002605 25.026044 21.882812 24.640625 C21.763020 24.255206 21.703125 23.838544 21.703125 23.390625 L21.703125 21.078125 L23.578125 21.078125 L23.578125 23.390625 C23.578125 23.859377 23.635416 24.263019 23.750000 24.601562 C23.864584 24.940106 23.994791 25.260415 24.140625 25.562500 C24.276042 25.822918 24.390625 26.085936 24.484375 26.351562 C24.578125 26.617189 24.625000 26.916665 24.625000 27.250000 C24.625000 28.364589 24.171880 29.338538 23.265625 30.171875 C22.359370 31.005212 21.065113 31.653644 19.382812 32.117188 C17.700512 32.580731 15.687512 32.812500 13.343750 32.812500 Z M13.265625 22.187500 C12.380204 22.187500 11.552087 22.013023 10.781250 21.664062 C10.010413 21.315102 9.328128 20.781254 8.734375 20.062500 L9.843750 19.093750 C10.322919 19.666670 10.838539 20.078124 11.390625 20.328125 C11.942711 20.578126 12.567705 20.703125 13.265625 20.703125 C13.973962 20.703125 14.604164 20.578126 15.156250 20.328125 C15.708336 20.078124 16.218748 19.666670 16.687500 19.093750 L17.796875 20.062500 C17.203122 20.781254 16.523441 21.315102 15.757812 21.664062 C14.992184 22.013023 14.161463 22.187500 13.265625 22.187500 Z M9.000000 17.109375 C8.562498 17.109375 8.200522 16.945314 7.914062 16.617188 C7.627603 16.289061 7.484375 15.901044 7.484375 15.453125 C7.484375 14.994789 7.627603 14.604168 7.914062 14.281250 C8.200522 13.958332 8.562498 13.796875 9.000000 13.796875 C9.437502 13.796875 9.799478 13.958332 10.085938 14.281250 C10.372397 14.604168 10.515625 14.994789 10.515625 15.453125 C10.515625 15.901044 10.372397 16.289061 10.085938 16.617188 C9.799478 16.945314 9.437502 17.109375 9.000000 17.109375 Z M17.125000 17.109375 C16.687498 17.109375 16.325522 16.945314 16.039062 16.617188 C15.752603 16.289061 15.609375 15.901044 15.609375 15.453125 C15.609375 14.994789 15.752603 14.604168 16.039062 14.281250 C16.325522 13.958332 16.687498 13.796875 17.125000 13.796875 C17.562502 13.796875 17.924478 13.958332 18.210938 14.281250 C18.497397 14.604168 18.640625 14.994789 18.640625 15.453125 C18.640625 15.901044 18.497397 16.289061 18.210938 16.617188 C17.924478 16.945314 17.562502 17.109375 17.125000 17.109375 Z M33.828125 27.343750" /></svg>