<svg version="1.1" xmlns="http://www.w3.org/2000/svg" style="fill:rgba(0,0,0,1.0)" width="256" height="256" viewBox="0 0 34.6875 32.8125"><path fill="rgb(255, 255, 255)" d="M8.687500 24.843750 C6.781240 24.843750 5.182298 24.414067 3.890625 23.554688 C2.598952 22.695308 1.627607 21.484383 0.976562 19.921875 C0.325518 18.359367 0.000000 16.536469 0.000000 14.453125 C0.000000 12.411448 0.369788 10.513030 1.109375 8.757812 C1.848962 7.002595 2.874993 5.471361 4.187500 4.164062 C5.500007 2.856764 7.031241 1.835941 8.781250 1.101562 C10.531259 0.367184 12.421865 -0.000000 14.453125 -0.000000 C16.463552 -0.000000 18.335929 0.364580 20.070312 1.093750 C21.804696 1.822920 23.320306 2.841139 24.617188 4.148438 C25.914069 5.455736 26.927080 6.986970 27.656250 8.742188 C28.385420 10.497405 28.750000 12.401031 28.750000 14.453125 C28.750000 17.744808 27.984383 20.299470 26.453125 22.117188 C24.921867 23.934905 22.791680 24.843750 20.062500 24.843750 C20.677086 23.510410 21.132811 22.130215 21.429688 20.703125 C21.726564 19.276035 21.875000 17.744800 21.875000 16.109375 C21.875000 15.973958 21.875000 15.838542 21.875000 15.703125 C21.875000 15.567708 21.869792 15.432292 21.859375 15.296875 C21.036454 14.776039 20.216150 14.088546 19.398438 13.234375 C18.580725 12.380204 17.885420 11.489588 17.312500 10.562500 C16.458329 11.135420 15.484380 11.656248 14.390625 12.125000 C13.296870 12.593752 12.127610 12.999998 10.882812 13.343750 C9.638015 13.687502 8.348965 13.953124 7.015625 14.140625 C6.901041 14.807295 6.843750 15.520830 6.843750 16.281250 C6.843750 17.875008 7.002603 19.364576 7.320312 20.750000 C7.638022 22.135424 8.093747 23.499993 8.687500 24.843750 Z M14.203125 32.812500 C11.067693 32.812500 8.593759 32.333338 6.781250 31.375000 C4.968741 30.416662 3.958334 29.072925 3.750000 27.343750 C3.656250 26.562496 3.578125 25.778650 3.515625 24.992188 C3.453125 24.205725 3.421875 23.421879 3.421875 22.640625 L5.312500 23.312500 C5.333333 23.979170 5.369791 24.635413 5.421875 25.281250 C5.473959 25.927087 5.541666 26.562497 5.625000 27.187500 C5.770834 28.291672 6.583326 29.192705 8.062500 29.890625 C9.541674 30.588545 11.588529 30.937500 14.203125 30.937500 C16.161468 30.937500 17.843743 30.770835 19.250000 30.437500 C20.656257 30.104165 21.734371 29.656253 22.484375 29.093750 C23.234379 28.531247 23.609375 27.916670 23.609375 27.250000 C23.609375 27.010415 23.570313 26.763022 23.492188 26.507812 C23.414062 26.252603 23.307292 25.989585 23.171875 25.718750 C23.005208 25.385415 22.861980 25.026044 22.742188 24.640625 C22.622395 24.255206 22.562500 23.838544 22.562500 23.390625 L22.562500 23.296875 L24.437500 23.296875 L24.437500 23.390625 C24.437500 23.859377 24.494791 24.263019 24.609375 24.601562 C24.723959 24.940106 24.854166 25.260415 25.000000 25.562500 C25.135417 25.822918 25.250000 26.085936 25.343750 26.351562 C25.437500 26.617189 25.484375 26.916665 25.484375 27.250000 C25.484375 28.364589 25.031255 29.338538 24.125000 30.171875 C23.218745 31.005212 21.924488 31.653644 20.242188 32.117188 C18.559887 32.580731 16.546887 32.812500 14.203125 32.812500 Z M4.218750 23.125000 C3.729164 22.208329 3.367189 21.200526 3.132812 20.101562 C2.898436 19.002599 2.781250 17.869798 2.781250 16.703125 C2.781250 15.359368 2.927082 14.028652 3.218750 12.710938 C3.510418 11.393223 3.934893 10.166672 4.492188 9.031250 C5.049482 7.895828 5.723954 6.937504 6.515625 6.156250 L7.171875 6.812500 C6.442705 7.541670 5.820315 8.437495 5.304688 9.500000 C4.789060 10.562505 4.395835 11.716140 4.125000 12.960938 C3.854165 14.205735 3.718750 15.458327 3.718750 16.718750 C3.718750 17.802089 3.825520 18.856766 4.039062 19.882812 C4.252605 20.908859 4.583331 21.843746 5.031250 22.687500 Z M14.125000 22.968750 C13.239579 22.968750 12.411462 22.794273 11.640625 22.445312 C10.869788 22.096352 10.187503 21.562504 9.593750 20.843750 L10.703125 19.875000 C11.182294 20.447920 11.697914 20.859374 12.250000 21.109375 C12.802086 21.359376 13.427080 21.484375 14.125000 21.484375 C14.833337 21.484375 15.463539 21.359376 16.015625 21.109375 C16.567711 20.859374 17.078123 20.447920 17.546875 19.875000 L18.656250 20.843750 C18.062497 21.562504 17.382816 22.096352 16.617188 22.445312 C15.851559 22.794273 15.020838 22.968750 14.125000 22.968750 Z M9.859375 17.890625 C9.421873 17.890625 9.059897 17.726564 8.773438 17.398438 C8.486978 17.070311 8.343750 16.682294 8.343750 16.234375 C8.343750 15.776039 8.486978 15.385418 8.773438 15.062500 C9.059897 14.739582 9.421873 14.578125 9.859375 14.578125 C10.296877 14.578125 10.658853 14.739582 10.945312 15.062500 C11.231772 15.385418 11.375000 15.776039 11.375000 16.234375 C11.375000 16.682294 11.231772 17.070311 10.945312 17.398438 C10.658853 17.726564 10.296877 17.890625 9.859375 17.890625 Z M6.500000 14.093750 L5.562500 14.000000 C5.864585 11.416654 6.617181 9.208342 7.820312 7.375000 C9.023444 5.541657 10.666656 4.041673 12.750000 2.875000 L13.218750 3.687500 C11.260407 4.781255 9.718756 6.179679 8.593750 7.882812 C7.468744 9.585946 6.770835 11.656238 6.500000 14.093750 Z M17.984375 17.890625 C17.546873 17.890625 17.184897 17.726564 16.898438 17.398438 C16.611978 17.070311 16.468750 16.682294 16.468750 16.234375 C16.468750 15.776039 16.611978 15.385418 16.898438 15.062500 C17.184897 14.739582 17.546873 14.578125 17.984375 14.578125 C18.421877 14.578125 18.783853 14.739582 19.070312 15.062500 C19.356772 15.385418 19.500000 15.776039 19.500000 16.234375 C19.500000 16.682294 19.356772 17.070311 19.070312 17.398438 C18.783853 17.726564 18.421877 17.890625 17.984375 17.890625 Z M6.421875 23.109375 C6.088540 22.109370 5.815105 20.989590 5.601562 19.750000 C5.388020 18.510410 5.281250 17.354172 5.281250 16.281250 C5.281250 15.718747 5.315104 15.161461 5.382812 14.609375 C5.450521 14.057289 5.572916 13.447920 5.750000 12.781250 C8.458347 12.427082 10.856760 11.848962 12.945312 11.046875 C15.033865 10.244788 16.677077 9.276047 17.875000 8.140625 C18.156251 8.921879 18.596351 9.729163 19.195312 10.562500 C19.794274 11.395837 20.463538 12.151038 21.203125 12.828125 C21.942712 13.505212 22.656247 14.005207 23.343750 14.328125 C23.375000 14.598960 23.398437 14.888019 23.414062 15.195312 C23.429688 15.502606 23.437500 15.807290 23.437500 16.109375 C23.437500 17.369798 23.338543 18.606765 23.140625 19.820312 C22.942707 21.033860 22.661460 22.130203 22.296875 23.109375 C23.255213 22.890624 24.101559 22.388025 24.835938 21.601562 C25.570316 20.815100 26.145831 19.807298 26.562500 18.578125 C26.979169 17.348952 27.187500 15.973966 27.187500 14.453125 C27.187500 12.619782 26.864587 10.919279 26.218750 9.351562 C25.572913 7.783846 24.671881 6.416673 23.515625 5.250000 C22.359369 4.083327 21.010424 3.177087 19.468750 2.531250 C17.927076 1.885413 16.255217 1.562500 14.453125 1.562500 C12.640616 1.562500 10.953133 1.888018 9.390625 2.539062 C7.828117 3.190107 6.460943 4.098952 5.289062 5.265625 C4.117182 6.432298 3.203128 7.796867 2.546875 9.359375 C1.890622 10.921883 1.562500 12.619782 1.562500 14.453125 C1.562500 16.765637 2.013016 18.695305 2.914062 20.242188 C3.815109 21.789070 4.984368 22.744790 6.421875 23.109375 Z M7.312500 9.953125 L7.343750 9.015625 C9.083342 9.015625 10.799471 8.718753 12.492188 8.125000 C14.184904 7.531247 15.708327 6.661464 17.062500 5.515625 L17.656250 6.234375 C16.239576 7.442714 14.625009 8.364580 12.812500 9.000000 C10.999991 9.635420 9.166676 9.953125 7.312500 9.953125 Z M8.640625 7.562500 L8.546875 6.625000 C9.619797 6.520833 10.687495 6.291668 11.750000 5.937500 C12.812505 5.583332 13.781246 5.143232 14.656250 4.617188 C15.531254 4.091143 16.223956 3.520836 16.734375 2.906250 L17.453125 3.500000 C16.901039 4.177087 16.153651 4.802080 15.210938 5.375000 C14.268224 5.947920 13.226568 6.427081 12.085938 6.812500 C10.945307 7.197919 9.796881 7.447916 8.640625 7.562500 Z M23.562500 23.500000 L22.812500 22.937500 C23.562504 21.937495 24.117186 20.861985 24.476562 19.710938 C24.835939 18.559890 25.015625 17.385423 25.015625 16.187500 C25.015625 14.760410 24.770836 13.346361 24.281250 11.945312 C23.791664 10.544264 23.072921 9.229173 22.125000 8.000000 C21.177079 6.770827 20.015632 5.703130 18.640625 4.796875 L19.140625 4.015625 C20.609382 4.973963 21.848953 6.111973 22.859375 7.429688 C23.869797 8.747402 24.638018 10.156243 25.164062 11.656250 C25.690107 13.156257 25.953125 14.671867 25.953125 16.203125 C25.953125 17.494798 25.757814 18.763015 25.367188 20.007812 C24.976561 21.252610 24.375004 22.416661 23.562500 23.500000 Z M24.843750 12.718750 C23.968746 12.416665 23.143233 12.026044 22.367188 11.546875 C21.591142 11.067706 20.908857 10.523441 20.320312 9.914062 C19.731768 9.304684 19.270835 8.666670 18.937500 8.000000 L19.781250 7.593750 C20.072918 8.177086 20.489581 8.742185 21.031250 9.289062 C21.572919 9.835940 22.197913 10.328123 22.906250 10.765625 C23.614587 11.203127 24.364579 11.562499 25.156250 11.843750 Z M34.687500 27.343750" /></svg>