<svg version="1.1" xmlns="http://www.w3.org/2000/svg" style="fill:rgba(0,0,0,1.0)" width="256" height="256" viewBox="0 0 33.28125 32.8125"><path fill="rgb(255, 255, 255)" d="M13.140625 32.812500 L10.687500 32.140625 L7.828125 32.640625 C6.546869 32.546875 5.473963 32.286460 4.609375 31.859375 L4.156250 30.593750 L2.750000 31.359375 C1.937496 30.953123 1.276044 30.432295 0.765625 29.796875 C0.255206 29.161455 0.000000 28.541670 0.000000 27.937500 L0.000000 5.250000 L1.562500 5.250000 L1.562500 27.937500 C1.562500 28.187501 1.669270 28.442707 1.882812 28.703125 C2.096355 28.963543 2.390623 29.213540 2.765625 29.453125 L3.562500 25.531250 L5.875000 30.734375 C6.177085 30.807292 6.486978 30.875000 6.804688 30.937500 C7.122397 31.000000 7.442707 31.046875 7.765625 31.078125 L10.750000 30.546875 L13.359375 31.250000 C15.192718 31.229167 16.476559 31.057293 17.210938 30.734375 C17.945316 30.411457 18.312500 29.838546 18.312500 29.015625 L18.312500 23.890625 L16.578125 25.359375 C16.578125 24.338537 16.789060 23.265631 17.210938 22.140625 C17.632815 21.015619 18.205726 19.919276 18.929688 18.851562 C19.653649 17.783849 20.481766 16.822921 21.414062 15.968750 C22.346359 15.114579 23.317703 14.453127 24.328125 13.984375 C24.359375 13.859374 24.375000 13.729167 24.375000 13.593750 C24.375000 13.166665 24.286459 12.736981 24.109375 12.304688 C23.932291 11.872394 23.739584 11.557293 23.531250 11.359375 C22.999997 11.619793 22.494794 11.817708 22.015625 11.953125 C21.536456 12.088542 21.104169 12.156250 20.718750 12.156250 C20.145830 12.156250 19.687502 12.007814 19.343750 11.710938 C18.999998 11.414061 18.828125 11.020836 18.828125 10.531250 L18.828125 7.859375 L22.156250 5.250000 L22.156250 10.281250 C22.406251 10.229166 22.703123 10.138021 23.046875 10.007812 C23.390627 9.877604 23.718748 9.729167 24.031250 9.562500 C24.625003 10.041669 25.091144 10.624997 25.429688 11.312500 C25.768231 12.000003 25.937500 12.760413 25.937500 13.593750 C25.937500 14.177086 25.796876 14.640623 25.515625 14.984375 C24.307286 16.463549 23.414065 17.755203 22.835938 18.859375 C22.257810 19.963547 21.968750 20.973954 21.968750 21.890625 L21.968750 27.859375 C21.968750 28.765630 21.559900 29.593746 20.742188 30.343750 C19.924475 31.093754 18.846361 31.692706 17.507812 32.140625 C16.169264 32.588544 14.713550 32.812500 13.140625 32.812500 Z M13.781250 32.140625 L10.281250 31.312500 L10.671875 22.031250 Z M6.171875 24.062500 C5.921874 23.270829 5.736980 22.335943 5.617188 21.257812 C5.497395 20.179682 5.437500 19.005215 5.437500 17.734375 C5.437500 16.473952 5.497395 15.140632 5.617188 13.734375 C5.736980 12.328118 5.916665 10.895841 6.156250 9.437500 L7.531250 9.656250 C7.302082 11.083340 7.127605 12.479160 7.007812 13.843750 C6.888020 15.208340 6.828125 16.494786 6.828125 17.703125 C6.828125 18.901048 6.885416 20.007807 7.000000 21.023438 C7.114584 22.039068 7.286457 22.916663 7.515625 23.656250 Z M10.937500 7.109375 C11.802088 7.109375 12.596351 7.018230 13.320312 6.835938 C14.044274 6.653645 14.627602 6.421876 15.070312 6.140625 C15.513023 5.859374 15.734375 5.562502 15.734375 5.250000 C15.734375 4.927082 15.515627 4.625001 15.078125 4.343750 C14.640623 4.062499 14.057295 3.830730 13.328125 3.648438 C12.598955 3.466145 11.802088 3.375000 10.937500 3.375000 C10.072912 3.375000 9.273441 3.466145 8.539062 3.648438 C7.804684 3.830730 7.216148 4.062499 6.773438 4.343750 C6.330727 4.625001 6.109375 4.927082 6.109375 5.250000 C6.109375 5.562502 6.330727 5.859374 6.773438 6.140625 C7.216148 6.421876 7.804684 6.653645 8.539062 6.835938 C9.273441 7.018230 10.072912 7.109375 10.937500 7.109375 Z M10.937500 6.281250 C10.208330 6.281250 9.575524 6.174480 9.039062 5.960938 C8.502601 5.747395 8.234375 5.510418 8.234375 5.250000 C8.234375 4.979165 8.502601 4.736980 9.039062 4.523438 C9.575524 4.309895 10.208330 4.203125 10.937500 4.203125 C11.656254 4.203125 12.281247 4.309895 12.812500 4.523438 C13.343753 4.736980 13.609375 4.979165 13.609375 5.250000 C13.609375 5.510418 13.341149 5.747395 12.804688 5.960938 C12.268226 6.174480 11.645837 6.281250 10.937500 6.281250 Z M11.093750 10.484375 C9.031240 10.484375 7.161467 10.255211 5.484375 9.796875 C3.807283 9.338539 2.473963 8.716150 1.484375 7.929688 C0.494787 7.143225 0.000000 6.250005 0.000000 5.250000 C0.000000 4.239578 0.494787 3.341150 1.484375 2.554688 C2.473963 1.768225 3.807283 1.145836 5.484375 0.687500 C7.161467 0.229164 9.031240 -0.000000 11.093750 -0.000000 C13.156260 -0.000000 15.023429 0.229164 16.695312 0.687500 C18.367196 1.145836 19.695308 1.768225 20.679688 2.554688 C21.664067 3.341150 22.156250 4.239578 22.156250 5.250000 C22.156250 6.250005 21.664067 7.143225 20.679688 7.929688 C19.695308 8.716150 18.367196 9.338539 16.695312 9.796875 C15.023429 10.255211 13.156260 10.484375 11.093750 10.484375 Z M11.093750 8.921875 C12.802092 8.921875 14.377597 8.744793 15.820312 8.390625 C17.263028 8.036457 18.419266 7.580732 19.289062 7.023438 C20.158859 6.466143 20.593750 5.875003 20.593750 5.250000 C20.593750 4.614580 20.158859 4.018232 19.289062 3.460938 C18.419266 2.903643 17.265632 2.447918 15.828125 2.093750 C14.390618 1.739582 12.812509 1.562500 11.093750 1.562500 C9.374991 1.562500 7.794278 1.739582 6.351562 2.093750 C4.908847 2.447918 3.750004 2.903643 2.875000 3.460938 C1.999996 4.018232 1.562500 4.614580 1.562500 5.250000 C1.562500 5.875003 1.999996 6.466143 2.875000 7.023438 C3.750004 7.580732 4.908847 8.036457 6.351562 8.390625 C7.794278 8.744793 9.374991 8.921875 11.093750 8.921875 Z M11.093750 7.859375 C9.874994 7.859375 8.752609 7.734376 7.726562 7.484375 C6.700516 7.234374 5.875003 6.908856 5.250000 6.507812 C4.624997 6.106769 4.312500 5.687502 4.312500 5.250000 C4.312500 4.802081 4.622393 4.377606 5.242188 3.976562 C5.861982 3.575519 6.687495 3.250001 7.718750 3.000000 C8.750005 2.749999 9.874994 2.625000 11.093750 2.625000 C12.312506 2.625000 13.434891 2.749999 14.460938 3.000000 C15.486984 3.250001 16.307289 3.575519 16.921875 3.976562 C17.536461 4.377606 17.843750 4.802081 17.843750 5.250000 C17.843750 5.687502 17.533857 6.106769 16.914062 6.507812 C16.294268 6.908856 15.473963 7.234374 14.453125 7.484375 C13.432287 7.734376 12.312506 7.859375 11.093750 7.859375 Z M33.281250 27.343750" /></svg>