<svg version="1.1" xmlns="http://www.w3.org/2000/svg" style="fill:rgba(0,0,0,1.0)" width="256" height="256" viewBox="0 0 39.875 25.0"><path fill="rgb(255, 255, 255)" d="M26.828125 25.000000 C25.098950 25.000000 23.218760 24.648441 21.187500 23.945312 C19.156240 23.242184 16.927095 22.083341 14.500000 20.468750 L13.562500 19.843750 C11.947909 18.760411 10.677088 18.005210 9.750000 17.578125 C8.822912 17.151040 8.036462 16.937500 7.390625 16.937500 C6.973956 16.937500 6.622397 16.997395 6.335938 17.117188 C6.049478 17.236980 5.744793 17.354166 5.421875 17.468750 C5.098957 17.583334 4.666669 17.640625 4.125000 17.640625 C2.895827 17.640625 1.901045 17.223962 1.140625 16.390625 C0.380205 15.557288 0.000000 14.473965 0.000000 13.140625 C0.000000 11.619784 0.507807 10.440108 1.523438 9.601562 C2.539068 8.763017 3.973949 8.343750 5.828125 8.343750 C7.432300 8.343750 9.130199 8.700517 10.921875 9.414062 C12.713551 10.127608 14.817696 11.291659 17.234375 12.906250 L18.171875 13.531250 C19.609382 14.479171 20.799474 15.252601 21.742188 15.851562 C22.684901 16.450524 23.468747 16.911457 24.093750 17.234375 C24.718753 17.557293 25.252602 17.778645 25.695312 17.898438 C26.138023 18.018230 26.572915 18.078125 27.000000 18.078125 C27.916671 18.078125 28.627602 17.877606 29.132812 17.476562 C29.638023 17.075519 29.890625 16.536462 29.890625 15.859375 C29.890625 15.421873 29.755210 15.010419 29.484375 14.625000 C29.213540 14.239581 28.736983 13.833335 28.054688 13.406250 C27.372392 12.979165 26.416673 12.489586 25.187500 11.937500 L24.140625 11.468750 C22.223949 10.604162 20.804692 9.666672 19.882812 8.656250 C18.960933 7.645828 18.500000 6.494798 18.500000 5.203125 C18.500000 3.651034 19.072911 2.395838 20.218750 1.437500 C21.364589 0.479162 22.880199 -0.000000 24.765625 -0.000000 C25.921881 -0.000000 27.093744 0.117186 28.281250 0.351562 C29.468756 0.585939 30.638015 0.820311 31.789062 1.054688 C32.940110 1.289064 34.031245 1.406250 35.062500 1.406250 C35.593753 1.406250 36.013019 1.377604 36.320312 1.320312 C36.627606 1.263021 36.942707 1.234375 37.265625 1.234375 C37.786461 1.234375 38.226561 1.348957 38.585938 1.578125 C38.945314 1.807293 39.125000 2.182289 39.125000 2.703125 C39.125000 3.609380 38.625005 4.333331 37.625000 4.875000 C36.624995 5.416669 35.161468 5.687500 33.234375 5.687500 C32.505205 5.687500 31.736983 5.645834 30.929688 5.562500 C30.122392 5.479166 29.348962 5.393230 28.609375 5.304688 C27.869788 5.216145 27.229169 5.171875 26.687500 5.171875 C26.343748 5.171875 26.085938 5.195312 25.914062 5.242188 C25.742187 5.289063 25.656250 5.348958 25.656250 5.421875 C25.656250 5.526042 25.820311 5.669270 26.148438 5.851562 C26.476564 6.033855 27.015621 6.296873 27.765625 6.640625 L29.640625 7.500000 C31.911470 8.541672 33.651036 9.783847 34.859375 11.226562 C36.067714 12.669278 36.671875 14.354157 36.671875 16.281250 C36.671875 17.947925 36.260421 19.440098 35.437500 20.757812 C34.614579 22.075527 33.463549 23.111975 31.984375 23.867188 C30.505201 24.622400 28.786468 25.000000 26.828125 25.000000 Z M4.015625 15.078125 C3.703123 15.078125 3.421876 14.997397 3.171875 14.835938 C2.921874 14.674478 2.796875 14.505209 2.796875 14.328125 C2.796875 14.098957 2.911457 13.984375 3.140625 13.984375 C3.244792 13.984375 3.367187 14.015625 3.507812 14.078125 C3.648438 14.140625 3.822916 14.171875 4.031250 14.171875 C4.239584 14.171875 4.414062 14.143229 4.554688 14.085938 C4.695313 14.028646 4.828124 14.000000 4.953125 14.000000 C5.182293 14.000000 5.296875 14.114582 5.296875 14.343750 C5.296875 14.541668 5.164064 14.713541 4.898438 14.859375 C4.632811 15.005209 4.338543 15.078125 4.015625 15.078125 Z M2.343750 13.421875 C2.135416 13.421875 1.958334 13.335938 1.812500 13.164062 C1.666666 12.992187 1.593750 12.786460 1.593750 12.546875 C1.593750 12.307290 1.666666 12.101563 1.812500 11.929688 C1.958334 11.757812 2.135416 11.671875 2.343750 11.671875 C2.552084 11.671875 2.729166 11.757812 2.875000 11.929688 C3.020834 12.101563 3.093750 12.307290 3.093750 12.546875 C3.093750 12.786460 3.020834 12.992187 2.875000 13.164062 C2.729166 13.335938 2.552084 13.421875 2.343750 13.421875 Z M5.296875 13.421875 C5.088541 13.421875 4.911459 13.335938 4.765625 13.164062 C4.619791 12.992187 4.546875 12.786460 4.546875 12.546875 C4.546875 12.307290 4.619791 12.101563 4.765625 11.929688 C4.911459 11.757812 5.088541 11.671875 5.296875 11.671875 C5.505209 11.671875 5.682291 11.757812 5.828125 11.929688 C5.973959 12.101563 6.046875 12.307290 6.046875 12.546875 C6.046875 12.786460 5.973959 12.992187 5.828125 13.164062 C5.682291 13.335938 5.505209 13.421875 5.296875 13.421875 Z M10.937500 17.750000 L10.375000 16.625000 C10.916669 16.364582 11.414060 15.968753 11.867188 15.437500 C12.320315 14.906247 12.697915 14.307295 13.000000 13.640625 C13.302085 12.973955 13.484375 12.302087 13.546875 11.625000 L14.796875 11.750000 C14.723958 12.562504 14.507814 13.367184 14.148438 14.164062 C13.789061 14.960941 13.330732 15.674476 12.773438 16.304688 C12.216143 16.934899 11.604170 17.416665 10.937500 17.750000 Z M20.812500 24.093750 C20.395831 24.093750 19.809900 23.934897 19.054688 23.617188 C18.299475 23.299478 17.468755 22.861982 16.562500 22.304688 C15.656245 21.747393 14.765629 21.119795 13.890625 20.421875 C13.807291 20.359375 13.765625 20.291667 13.765625 20.218750 C13.765625 20.041666 13.911457 19.815106 14.203125 19.539062 C14.494793 19.263019 14.846352 18.919273 15.257812 18.507812 C15.669273 18.096352 16.052082 17.614586 16.406250 17.062500 C16.750002 16.531247 17.031249 15.992190 17.250000 15.445312 C17.468751 14.898435 17.664062 14.442710 17.835938 14.078125 C18.007813 13.713540 18.197916 13.531250 18.406250 13.531250 C18.468750 13.531250 18.541666 13.557291 18.625000 13.609375 L23.968750 16.937500 C24.208335 17.083334 24.388020 17.338540 24.507812 17.703125 C24.627605 18.067710 24.687500 18.421873 24.687500 18.765625 C24.687500 19.244794 24.572918 19.789059 24.343750 20.398438 C24.114582 21.007816 23.809898 21.593747 23.429688 22.156250 C23.049477 22.718753 22.630211 23.182290 22.171875 23.546875 C21.713539 23.911460 21.260419 24.093750 20.812500 24.093750 Z M26.828125 23.281250 C28.505217 23.281250 29.950515 22.984378 31.164062 22.390625 C32.377610 21.796872 33.312497 20.971359 33.968750 19.914062 C34.625003 18.856766 34.953125 17.645840 34.953125 16.281250 C34.953125 14.687492 34.460942 13.296881 33.476562 12.109375 C32.492183 10.921869 30.994802 9.854171 28.984375 8.906250 L27.656250 8.281250 C26.666662 7.812498 25.914065 7.421877 25.398438 7.109375 C24.882810 6.796873 24.536459 6.507814 24.359375 6.242188 C24.182291 5.976561 24.093750 5.682293 24.093750 5.359375 C24.093750 4.776039 24.320310 4.338543 24.773438 4.046875 C25.226565 3.755207 25.864579 3.609375 26.687500 3.609375 C27.260420 3.609375 27.934892 3.664062 28.710938 3.773438 C29.486983 3.882813 30.276038 3.994791 31.078125 4.109375 C31.880212 4.223959 32.598955 4.281250 33.234375 4.281250 C34.505215 4.281250 35.552079 4.153647 36.375000 3.898438 C37.197921 3.643228 37.609375 3.338543 37.609375 2.984375 C37.609375 2.755207 37.401044 2.640625 36.984375 2.640625 C36.703124 2.640625 36.403647 2.669271 36.085938 2.726562 C35.768228 2.783854 35.427085 2.812500 35.062500 2.812500 C34.249996 2.812500 33.406254 2.750001 32.531250 2.625000 C31.656246 2.499999 30.773442 2.356772 29.882812 2.195312 C28.992183 2.033853 28.114588 1.890626 27.250000 1.765625 C26.385412 1.640624 25.557296 1.578125 24.765625 1.578125 C23.317701 1.578125 22.171879 1.903643 21.328125 2.554688 C20.484371 3.205732 20.062500 4.088536 20.062500 5.203125 C20.062500 6.161463 20.429684 7.020830 21.164062 7.781250 C21.898441 8.541670 23.098950 9.291663 24.765625 10.031250 L25.812500 10.500000 C27.270841 11.145837 28.421871 11.749997 29.265625 12.312500 C30.109379 12.875003 30.710936 13.440101 31.070312 14.007812 C31.429689 14.575524 31.609375 15.192705 31.609375 15.859375 C31.609375 17.057298 31.182296 18.013017 30.328125 18.726562 C29.473954 19.440108 28.364590 19.796875 27.000000 19.796875 C26.479164 19.796875 25.947919 19.726563 25.406250 19.585938 C24.864581 19.445312 24.242191 19.200523 23.539062 18.851562 C22.835934 18.502602 21.981776 18.015628 20.976562 17.390625 C19.971349 16.765622 18.744799 15.968755 17.296875 15.000000 L16.359375 14.375000 C14.828117 13.343745 13.445319 12.513024 12.210938 11.882812 C10.976556 11.252601 9.841151 10.791668 8.804688 10.500000 C7.768224 10.208332 6.776046 10.062500 5.828125 10.062500 C4.494785 10.062500 3.481774 10.328122 2.789062 10.859375 C2.096351 11.390628 1.750000 12.151037 1.750000 13.140625 C1.750000 13.953129 1.971352 14.619789 2.414062 15.140625 C2.856773 15.661461 3.427080 15.921875 4.125000 15.921875 C4.500002 15.921875 4.838540 15.864584 5.140625 15.750000 C5.442710 15.635416 5.768227 15.518230 6.117188 15.398438 C6.466148 15.278645 6.890622 15.218750 7.390625 15.218750 C8.223962 15.218750 9.174474 15.455727 10.242188 15.929688 C11.309901 16.403648 12.708325 17.218744 14.437500 18.375000 L15.375000 19.000000 C17.687512 20.541674 19.773428 21.640622 21.632812 22.296875 C23.492197 22.953128 25.223950 23.281250 26.828125 23.281250 Z M31.234375 23.281250 C31.234375 22.281245 31.044273 21.414066 30.664062 20.679688 C30.283852 19.945309 29.739587 19.401043 29.031250 19.046875 L29.593750 17.921875 C30.520838 18.390627 31.234372 19.091141 31.734375 20.023438 C32.234378 20.955734 32.484375 22.041660 32.484375 23.281250 Z M24.875000 6.593750 C24.468748 6.177081 23.979170 5.867189 23.406250 5.664062 C22.833330 5.460936 22.286461 5.359375 21.765625 5.359375 C21.276039 5.359375 20.861981 5.447916 20.523438 5.625000 C20.184894 5.802084 20.015625 6.062498 20.015625 6.406250 L18.765625 6.343750 C18.765625 5.635413 19.078122 5.088544 19.703125 4.703125 C20.328128 4.317706 21.062496 4.125000 21.906250 4.125000 C22.562503 4.125000 23.236976 4.252603 23.929688 4.507812 C24.622399 4.763022 25.239581 5.166664 25.781250 5.718750 Z M25.375000 11.531250 C25.291666 11.270832 25.250000 10.984377 25.250000 10.671875 C25.250000 9.807287 25.585934 9.080732 26.257812 8.492188 C26.929691 7.903643 27.713537 7.609375 28.609375 7.609375 C29.182295 7.609375 29.734372 7.744790 30.265625 8.015625 L29.703125 9.140625 C29.328123 8.953124 28.958335 8.859375 28.593750 8.859375 C28.031247 8.859375 27.541669 9.036457 27.125000 9.390625 C26.708331 9.744793 26.500000 10.182289 26.500000 10.703125 C26.500000 10.890626 26.520833 11.052083 26.562500 11.187500 Z M31.109375 14.687500 L29.890625 14.375000 C30.109376 13.562496 30.518226 12.940106 31.117188 12.507812 C31.716149 12.075519 32.364580 11.859375 33.062500 11.859375 C33.583336 11.859375 34.101560 11.981770 34.617188 12.226562 C35.132815 12.471355 35.593748 12.848956 36.000000 13.359375 L35.031250 14.140625 C34.749999 13.786457 34.437502 13.526042 34.093750 13.359375 C33.749998 13.192708 33.406252 13.109375 33.062500 13.109375 C32.624998 13.109375 32.223960 13.244790 31.859375 13.515625 C31.494790 13.786460 31.244792 14.177081 31.109375 14.687500 Z M28.125000 4.609375 L26.906250 4.265625 C26.989584 3.984374 27.031250 3.687502 27.031250 3.375000 C27.031250 2.687497 26.765628 2.031253 26.234375 1.406250 L27.203125 0.593750 C27.932295 1.458338 28.296875 2.395828 28.296875 3.406250 C28.296875 3.770835 28.239584 4.171873 28.125000 4.609375 Z M39.875000 23.437500" /></svg>