<svg version="1.1" xmlns="http://www.w3.org/2000/svg" style="fill:rgba(0,0,0,1.0)" width="256" height="256" viewBox="0 0 35.765625 32.8125"><path fill="rgb(255, 255, 255)" d="M15.453125 32.812500 L0.796875 25.921875 L0.796875 14.687500 L2.671875 14.687500 L2.671875 24.734375 L15.453125 30.718750 L28.234375 24.734375 L28.234375 14.687500 L30.109375 14.687500 L30.109375 25.921875 Z M5.546875 26.968750 L5.546875 17.140625 L7.421875 17.140625 L7.421875 26.968750 Z M9.609375 28.812500 L9.609375 18.765625 L11.484375 18.765625 L11.484375 28.812500 Z M5.062500 15.984375 L5.062500 11.984375 L6.937500 11.984375 L6.937500 15.984375 Z M14.515625 30.984375 L14.515625 14.906250 L16.390625 14.906250 L16.390625 30.984375 Z M3.859375 11.218750 L0.953125 9.906250 L1.734375 8.187500 L4.640625 9.500000 Z M9.125000 17.640625 L9.125000 12.765625 L11.000000 12.765625 L11.000000 17.640625 Z M19.421875 28.812500 L19.421875 18.765625 L21.296875 18.765625 L21.296875 28.812500 Z M15.453125 21.546875 L0.000000 15.062500 L0.000000 8.234375 L3.281250 6.921875 L3.968750 8.671875 L1.875000 9.515625 L1.875000 13.812500 L15.453125 19.484375 L29.031250 13.812500 L29.031250 9.515625 L26.937500 8.671875 L27.625000 6.921875 L30.906250 8.234375 L30.906250 15.062500 Z M8.343750 10.187500 L7.187500 9.156250 C7.739586 8.531247 8.546870 8.138022 9.609375 7.976562 C10.671880 7.815103 11.848952 7.895832 13.140625 8.218750 L12.765625 9.750000 C11.755203 9.489582 10.851566 9.403645 10.054688 9.492188 C9.257809 9.580730 8.687502 9.812498 8.343750 10.187500 Z M7.515625 13.109375 C5.859367 13.109375 4.684899 12.596359 3.992188 11.570312 C3.299476 10.544266 2.953125 8.854178 2.953125 6.500000 C2.953125 4.874992 3.078124 3.588546 3.328125 2.640625 C3.578126 1.692704 4.010414 1.015627 4.625000 0.609375 C5.239586 0.203123 6.088536 -0.000000 7.171875 -0.000000 C8.244797 -0.000000 9.335932 0.309893 10.445312 0.929688 C11.554693 1.549482 12.666661 2.463536 13.781250 3.671875 L12.406250 4.953125 C11.458329 3.921870 10.546879 3.151044 9.671875 2.640625 C8.796871 2.130206 7.963546 1.875000 7.171875 1.875000 C6.526038 1.875000 6.033856 1.981770 5.695312 2.195312 C5.356769 2.408855 5.127605 2.843747 5.007812 3.500000 C4.888020 4.156253 4.828125 5.156243 4.828125 6.500000 C4.828125 7.760423 4.908853 8.734372 5.070312 9.421875 C5.231772 10.109378 5.507811 10.583332 5.898438 10.843750 C6.289064 11.104168 6.828122 11.234375 7.515625 11.234375 C7.796876 11.234375 8.143227 11.153647 8.554688 10.992188 C8.966148 10.830728 9.377602 10.625001 9.789062 10.375000 C10.200523 10.124999 10.565103 9.859376 10.882812 9.578125 C11.200522 9.296874 11.411458 9.041668 11.515625 8.812500 L13.234375 9.593750 C13.046874 10.000002 12.736981 10.408852 12.304688 10.820312 C11.872394 11.231773 11.375003 11.609373 10.812500 11.953125 C10.249997 12.296877 9.677086 12.575520 9.093750 12.789062 C8.510414 13.002605 7.984377 13.109375 7.515625 13.109375 Z M15.453125 15.937500 L8.468750 13.015625 L9.187500 11.296875 L15.453125 13.875000 L21.718750 11.296875 L22.437500 13.015625 Z M23.484375 26.968750 L23.484375 17.140625 L25.359375 17.140625 L25.359375 26.968750 Z M19.906250 17.640625 L19.906250 12.765625 L21.781250 12.765625 L21.781250 17.640625 Z M15.453125 10.750000 C14.473953 10.750000 13.703128 10.661459 13.140625 10.484375 C12.578122 10.307291 12.179689 10.000002 11.945312 9.562500 C11.710936 9.124998 11.593750 8.515629 11.593750 7.734375 C11.593750 6.411452 11.697916 5.393233 11.906250 4.679688 C12.114584 3.966142 12.497393 3.468751 13.054688 3.187500 C13.611982 2.906249 14.411453 2.765625 15.453125 2.765625 C16.494797 2.765625 17.294268 2.906249 17.851562 3.187500 C18.408857 3.468751 18.791666 3.966142 19.000000 4.679688 C19.208334 5.393233 19.312500 6.411452 19.312500 7.734375 C19.312500 8.515629 19.195314 9.124998 18.960938 9.562500 C18.726561 10.000002 18.330732 10.307291 17.773438 10.484375 C17.216143 10.661459 16.442713 10.750000 15.453125 10.750000 Z M15.453125 8.875000 C16.119795 8.875000 16.588540 8.859375 16.859375 8.828125 C17.130210 8.796875 17.294271 8.700522 17.351562 8.539062 C17.408854 8.377603 17.437500 8.109377 17.437500 7.734375 C17.437500 6.723953 17.401042 6.005210 17.328125 5.578125 C17.255208 5.151040 17.080731 4.888021 16.804688 4.789062 C16.528644 4.690104 16.078128 4.640625 15.453125 4.640625 C14.828122 4.640625 14.377606 4.690104 14.101562 4.789062 C13.825519 4.888021 13.651042 5.151040 13.578125 5.578125 C13.505208 6.005210 13.468750 6.723953 13.468750 7.734375 C13.468750 8.109377 13.497396 8.377603 13.554688 8.539062 C13.611979 8.700522 13.778644 8.796875 14.054688 8.828125 C14.330731 8.859375 14.796872 8.875000 15.453125 8.875000 Z M23.968750 15.984375 L23.968750 11.984375 L25.843750 11.984375 L25.843750 15.984375 Z M22.562500 10.187500 C22.218748 9.812498 21.651046 9.580730 20.859375 9.492188 C20.067704 9.403645 19.161463 9.489582 18.140625 9.750000 L17.765625 8.218750 C19.067715 7.895832 20.247391 7.815103 21.304688 7.976562 C22.361984 8.138022 23.166664 8.531247 23.718750 9.156250 Z M23.390625 13.109375 C22.921873 13.109375 22.395836 13.002605 21.812500 12.789062 C21.229164 12.575520 20.656253 12.296877 20.093750 11.953125 C19.531247 11.609373 19.033856 11.231773 18.601562 10.820312 C18.169269 10.408852 17.859376 10.000002 17.671875 9.593750 L19.390625 8.812500 C19.494792 9.041668 19.705728 9.296874 20.023438 9.578125 C20.341147 9.859376 20.705727 10.124999 21.117188 10.375000 C21.528648 10.625001 21.940102 10.830728 22.351562 10.992188 C22.763023 11.153647 23.109374 11.234375 23.390625 11.234375 C24.088545 11.234375 24.630206 11.104168 25.015625 10.843750 C25.401044 10.583332 25.674478 10.109378 25.835938 9.421875 C25.997397 8.734372 26.078125 7.760423 26.078125 6.500000 C26.078125 5.156243 26.018230 4.156253 25.898438 3.500000 C25.778645 2.843747 25.549481 2.408855 25.210938 2.195312 C24.872394 1.981770 24.380212 1.875000 23.734375 1.875000 C22.942704 1.875000 22.109379 2.130206 21.234375 2.640625 C20.359371 3.151044 19.447921 3.921870 18.500000 4.953125 L17.125000 3.671875 C18.239589 2.463536 19.351557 1.549482 20.460938 0.929688 C21.570318 0.309893 22.661453 -0.000000 23.734375 -0.000000 C24.817714 -0.000000 25.666664 0.203123 26.281250 0.609375 C26.895836 1.015627 27.328124 1.692704 27.578125 2.640625 C27.828126 3.588546 27.953125 4.874992 27.953125 6.500000 C27.953125 8.854178 27.606774 10.544266 26.914062 11.570312 C26.221351 12.596359 25.046883 13.109375 23.390625 13.109375 Z M27.046875 11.218750 L26.265625 9.500000 L29.171875 8.187500 L29.953125 9.906250 Z M10.656250 12.984375 L9.906250 11.265625 L15.453125 8.875000 L21.000000 11.265625 L20.250000 12.984375 L15.453125 10.906250 Z M35.765625 27.343750" /></svg>