<svg version="1.1" xmlns="http://www.w3.org/2000/svg" style="fill:rgba(0,0,0,1.0)" width="256" height="256" viewBox="0 0 36.328125 32.8125"><path fill="rgb(255, 255, 255)" d="M28.125000 32.812500 C27.312496 32.812500 26.640628 32.703126 26.109375 32.484375 C25.578122 32.265624 25.117189 31.971356 24.726562 31.601562 C24.335936 31.231769 23.947919 30.828127 23.562500 30.390625 L10.281250 15.187500 C9.437496 15.458335 8.526047 15.593750 7.546875 15.593750 C6.109368 15.593750 4.822922 15.257816 3.687500 14.585938 C2.552078 13.914059 1.653649 13.002610 0.992188 11.851562 C0.330726 10.700515 0.000000 9.416674 0.000000 8.000000 C0.000000 7.291663 0.093749 6.562504 0.281250 5.812500 L5.734375 8.968750 C6.369795 8.666665 6.874998 8.226565 7.250000 7.648438 C7.625002 7.070310 7.812500 6.432295 7.812500 5.734375 C7.812500 5.671875 7.812500 5.611979 7.812500 5.554688 C7.812500 5.497396 7.807292 5.442709 7.796875 5.390625 L2.687500 2.546875 C3.020835 1.651037 3.664058 1.002606 4.617188 0.601562 C5.570317 0.200519 6.635411 -0.000000 7.812500 -0.000000 C9.260424 -0.000000 10.572911 0.354163 11.750000 1.062500 C12.927089 1.770837 13.864580 2.716140 14.562500 3.898438 C15.260420 5.080735 15.609375 6.390618 15.609375 7.828125 C15.609375 8.963547 15.380211 10.020828 14.921875 11.000000 L29.984375 24.859375 C30.713545 25.526045 31.236978 26.164059 31.554688 26.773438 C31.872397 27.382816 32.031250 28.046871 32.031250 28.765625 C32.031250 29.494795 31.851564 30.166664 31.492188 30.781250 C31.132811 31.395836 30.656253 31.888019 30.062500 32.257812 C29.468747 32.627606 28.822920 32.812500 28.125000 32.812500 Z M28.125000 31.250000 C28.739586 31.250000 29.283852 31.002607 29.757812 30.507812 C30.231773 30.013018 30.468750 29.432295 30.468750 28.765625 C30.468750 28.276039 30.356772 27.828127 30.132812 27.421875 C29.908853 27.015623 29.505211 26.546878 28.921875 26.015625 L12.937500 11.296875 C13.677087 10.276037 14.046875 9.119798 14.046875 7.828125 C14.046875 6.671869 13.763024 5.619796 13.195312 4.671875 C12.627601 3.723954 11.851567 2.968753 10.867188 2.406250 C9.882808 1.843747 8.760423 1.562500 7.500000 1.562500 C7.270832 1.562500 6.927086 1.606770 6.468750 1.695312 C6.010414 1.783855 5.635418 1.953124 5.343750 2.203125 L9.171875 4.375000 C9.307292 4.791669 9.375000 5.244789 9.375000 5.734375 C9.375000 6.880214 9.023441 7.914058 8.320312 8.835938 C7.617184 9.757817 6.703131 10.369790 5.578125 10.671875 L1.578125 8.375000 C1.640625 9.447922 1.934893 10.411454 2.460938 11.265625 C2.986982 12.119796 3.690100 12.794268 4.570312 13.289062 C5.450525 13.783857 6.442703 14.031250 7.546875 14.031250 C8.161461 14.031250 8.708331 13.976563 9.187500 13.867188 C9.666669 13.757812 10.182289 13.578126 10.734375 13.328125 L24.750000 29.359375 C25.135419 29.796877 25.473957 30.153644 25.765625 30.429688 C26.057293 30.705731 26.380207 30.911458 26.734375 31.046875 C27.088543 31.182292 27.552080 31.250000 28.125000 31.250000 Z M27.390625 29.703125 C27.776044 29.703125 28.104165 29.567710 28.375000 29.296875 C28.645835 29.026040 28.781250 28.697919 28.781250 28.312500 C28.781250 27.927081 28.645835 27.598960 28.375000 27.328125 C28.104165 27.057290 27.776044 26.921875 27.390625 26.921875 C27.005206 26.921875 26.677085 27.057290 26.406250 27.328125 C26.135415 27.598960 26.000000 27.927081 26.000000 28.312500 C26.000000 28.697919 26.135415 29.026040 26.406250 29.296875 C26.677085 29.567710 27.005206 29.703125 27.390625 29.703125 Z M36.328125 27.343750" /></svg>