<svg version="1.1" xmlns="http://www.w3.org/2000/svg" style="fill:rgba(0,0,0,1.0)" width="256" height="256" viewBox="0 0 36.6875 32.8125"><path fill="rgb(255, 255, 255)" d="M2.359375 32.812500 C1.682288 32.812500 1.119794 32.585940 0.671875 32.132812 C0.223956 31.679685 0.000000 31.119795 0.000000 30.453125 L0.000000 2.343750 C0.000000 1.666663 0.223956 1.106773 0.671875 0.664062 C1.119794 0.221352 1.682288 -0.000000 2.359375 -0.000000 L30.390625 -0.000000 C31.067712 -0.000000 31.630206 0.221352 32.078125 0.664062 C32.526044 1.106773 32.750000 1.666663 32.750000 2.343750 L32.750000 30.453125 C32.750000 31.119795 32.526044 31.679685 32.078125 32.132812 C31.630206 32.585940 31.067712 32.812500 30.390625 32.812500 Z M3.156250 29.875000 C3.125000 29.687499 3.010418 29.557292 2.812500 29.484375 L2.812500 19.750000 L3.484375 18.984375 C3.557292 20.932301 3.703124 22.815095 3.921875 24.632812 C4.140626 26.450530 4.442706 28.197908 4.828125 29.875000 Z M9.296875 28.703125 C10.119796 28.703125 10.859372 28.432294 11.515625 27.890625 C12.171878 27.348956 12.815101 26.427090 13.445312 25.125000 C14.075524 23.822910 14.760413 22.026053 15.500000 19.734375 L14.390625 19.171875 C13.567704 20.369798 12.726567 21.333330 11.867188 22.062500 C11.007808 22.791670 10.098963 23.156250 9.140625 23.156250 C8.598956 23.156250 8.125002 22.986981 7.718750 22.648438 C7.312498 22.309894 7.109375 21.645838 7.109375 20.656250 L5.859375 20.656250 C5.911459 21.906256 6.216143 22.846351 6.773438 23.476562 C7.330732 24.106774 8.119787 24.421875 9.140625 24.421875 C9.859379 24.421875 10.526039 24.276043 11.140625 23.984375 C11.755211 23.692707 12.432288 23.229170 13.171875 22.593750 C12.734373 23.770839 12.304690 24.716142 11.882812 25.429688 C11.460935 26.143233 11.039065 26.661457 10.617188 26.984375 C10.195310 27.307293 9.755211 27.468750 9.296875 27.468750 C8.723955 27.468750 8.299481 27.244794 8.023438 26.796875 C7.747394 26.348956 7.609375 25.729171 7.609375 24.937500 L7.609375 24.421875 L6.359375 24.328125 L6.359375 24.859375 C6.359375 27.421888 7.338532 28.703125 9.296875 28.703125 Z M9.078125 20.765625 C10.015630 20.765625 10.955724 20.562502 11.898438 20.156250 C12.841151 19.749998 13.927077 19.083338 15.156250 18.156250 L14.406250 17.156250 C13.270828 18.010421 12.299483 18.617186 11.492188 18.976562 C10.684892 19.335939 9.880212 19.515625 9.078125 19.515625 C7.671868 19.515625 6.968750 18.609384 6.968750 16.796875 L5.718750 16.796875 C5.718750 18.057298 6.010414 19.033851 6.593750 19.726562 C7.177086 20.419274 8.005203 20.765625 9.078125 20.765625 Z M10.328125 17.484375 C10.869794 17.484375 11.351560 17.455729 11.773438 17.398438 C12.195315 17.341146 12.645831 17.239584 13.125000 17.093750 C13.604169 16.947916 14.187497 16.734376 14.875000 16.453125 L14.406250 15.296875 C13.760413 15.557293 13.226565 15.755208 12.804688 15.890625 C12.382810 16.026042 11.986981 16.117187 11.617188 16.164062 C11.247394 16.210938 10.817711 16.234375 10.328125 16.234375 C9.546871 16.234375 8.911461 16.093751 8.421875 15.812500 C7.932289 15.531249 7.687500 15.192710 7.687500 14.796875 C7.687500 14.348956 7.968747 13.942710 8.531250 13.578125 L7.843750 12.546875 C6.906245 13.151045 6.437500 13.901037 6.437500 14.796875 C6.437500 15.588546 6.804684 16.234372 7.539062 16.734375 C8.273441 17.234378 9.203119 17.484375 10.328125 17.484375 Z M23.453125 28.703125 C25.421885 28.703125 26.406250 27.421888 26.406250 24.859375 L26.406250 24.328125 L25.156250 24.421875 L25.156250 24.937500 C25.156250 25.729171 25.018231 26.348956 24.742188 26.796875 C24.466144 27.244794 24.036461 27.468750 23.453125 27.468750 C22.994789 27.468750 22.554690 27.307293 22.132812 26.984375 C21.710935 26.661457 21.291669 26.143233 20.875000 25.429688 C20.458331 24.716142 20.026044 23.770839 19.578125 22.593750 C20.317712 23.229170 20.994789 23.692707 21.609375 23.984375 C22.223961 24.276043 22.890621 24.421875 23.609375 24.421875 C24.630213 24.421875 25.421872 24.106774 25.984375 23.476562 C26.546878 22.846351 26.848958 21.906256 26.890625 20.656250 L25.640625 20.656250 C25.640625 21.645838 25.437502 22.309894 25.031250 22.648438 C24.624998 22.986981 24.151044 23.156250 23.609375 23.156250 C22.661454 23.156250 21.755213 22.791670 20.890625 22.062500 C20.026037 21.333330 19.182296 20.369798 18.359375 19.171875 L17.250000 19.734375 C17.989587 22.026053 18.674476 23.822910 19.304688 25.125000 C19.934899 26.427090 20.578122 27.348956 21.234375 27.890625 C21.890628 28.432294 22.630204 28.703125 23.453125 28.703125 Z M12.046875 14.359375 L14.890625 14.359375 L14.890625 13.109375 L12.046875 13.109375 C11.276038 13.109375 10.643232 12.968751 10.148438 12.687500 C9.653643 12.406249 9.406250 12.067710 9.406250 11.671875 C9.406250 11.255206 9.682289 10.859377 10.234375 10.484375 L9.468750 9.484375 C8.593746 10.098961 8.156250 10.828121 8.156250 11.671875 C8.156250 12.463546 8.520830 13.109372 9.250000 13.609375 C9.979170 14.109378 10.911453 14.359375 12.046875 14.359375 Z M2.015625 31.093750 L2.671875 31.093750 C2.880209 31.093750 3.026041 31.000001 3.109375 30.812500 L29.640625 30.812500 C29.723959 31.000001 29.869791 31.093750 30.078125 31.093750 L30.734375 31.093750 C30.869792 31.093750 30.984375 31.046875 31.078125 30.953125 C31.171875 30.859375 31.218750 30.744792 31.218750 30.609375 L31.218750 29.953125 C31.218750 29.713540 31.104168 29.557292 30.875000 29.484375 L30.875000 3.328125 C31.104168 3.255208 31.218750 3.098960 31.218750 2.859375 L31.218750 2.203125 C31.218750 2.067708 31.171875 1.953125 31.078125 1.859375 C30.984375 1.765625 30.869792 1.718750 30.734375 1.718750 L30.078125 1.718750 C29.869791 1.718750 29.723959 1.812499 29.640625 2.000000 L3.109375 2.000000 C3.026041 1.812499 2.880209 1.718750 2.671875 1.718750 L2.015625 1.718750 C1.880208 1.718750 1.765625 1.765625 1.671875 1.859375 C1.578125 1.953125 1.531250 2.067708 1.531250 2.203125 L1.531250 2.859375 C1.531250 3.098960 1.645832 3.255208 1.875000 3.328125 L1.875000 29.484375 C1.645832 29.557292 1.531250 29.713540 1.531250 29.953125 L1.531250 30.609375 C1.531250 30.744792 1.578125 30.859375 1.671875 30.953125 C1.765625 31.046875 1.880208 31.093750 2.015625 31.093750 Z M6.453125 29.875000 C5.911456 27.614572 5.536459 25.239596 5.328125 22.750000 C5.119791 20.260404 5.015625 17.630222 5.015625 14.859375 L2.812500 17.375000 L2.812500 8.546875 C3.489587 7.755204 4.135414 7.205731 4.750000 6.898438 C5.364586 6.591144 6.088538 6.437500 6.921875 6.437500 C7.536461 6.437500 8.164059 6.479166 8.804688 6.562500 C9.445316 6.645834 10.109372 6.687500 10.796875 6.687500 C11.786463 6.687500 12.895827 6.432294 14.125000 5.921875 C14.239584 5.453123 14.328125 5.020835 14.390625 4.625000 C14.453125 4.229165 14.484375 3.666670 14.484375 2.937500 L18.265625 2.937500 C18.265625 3.666670 18.296875 4.229165 18.359375 4.625000 C18.421875 5.020835 18.510416 5.453123 18.625000 5.921875 C19.270837 6.182293 19.859372 6.374999 20.390625 6.500000 C20.921878 6.625001 21.442706 6.687500 21.953125 6.687500 C22.640628 6.687500 23.299476 6.645834 23.929688 6.562500 C24.559899 6.479166 25.192705 6.437500 25.828125 6.437500 C26.661462 6.437500 27.385414 6.591144 28.000000 6.898438 C28.614586 7.205731 29.260413 7.755204 29.937500 8.546875 L29.937500 17.375000 L27.734375 14.859375 C27.734375 17.630222 27.630209 20.260404 27.421875 22.750000 C27.213541 25.239596 26.838544 27.614572 26.296875 29.875000 Z M15.906250 20.875000 L16.843750 20.875000 L17.281250 11.625000 C17.750002 11.833334 18.260414 11.937500 18.812500 11.937500 C20.083340 11.937500 21.067705 11.479171 21.765625 10.562500 L20.781250 9.796875 C20.343748 10.390628 19.687504 10.687500 18.812500 10.687500 C18.479165 10.687500 18.177085 10.640625 17.906250 10.546875 C19.333340 9.984372 20.794263 9.557293 22.289062 9.265625 C23.783862 8.973957 25.442699 8.802084 27.265625 8.750000 L27.265625 7.500000 C25.140614 7.572917 23.210946 7.796873 21.476562 8.171875 C19.742179 8.546877 18.041675 9.104163 16.375000 9.843750 C14.708325 9.104163 13.007821 8.546877 11.273438 8.171875 C9.539054 7.796873 7.609386 7.572917 5.484375 7.500000 L5.484375 8.750000 C7.307301 8.802084 8.966138 8.973957 10.460938 9.265625 C11.955737 9.557293 13.411451 9.984372 14.828125 10.546875 C14.578124 10.640625 14.281252 10.687500 13.937500 10.687500 C13.062496 10.687500 12.406252 10.390628 11.968750 9.796875 L10.984375 10.562500 C11.682295 11.479171 12.666660 11.937500 13.937500 11.937500 C14.489586 11.937500 14.999998 11.833334 15.468750 11.625000 Z M2.812500 6.312500 L2.812500 3.328125 C3.010418 3.255208 3.125000 3.125001 3.156250 2.937500 L12.906250 2.937500 C12.906250 3.364585 12.895833 3.705728 12.875000 3.960938 C12.854167 4.216147 12.817709 4.473957 12.765625 4.734375 C12.484374 4.869792 12.184897 4.968750 11.867188 5.031250 C11.549478 5.093750 11.192710 5.125000 10.796875 5.125000 C10.151038 5.125000 9.500003 5.083334 8.843750 5.000000 C8.187497 4.916666 7.546878 4.875000 6.921875 4.875000 C6.109371 4.875000 5.367191 4.992186 4.695312 5.226562 C4.023434 5.460939 3.395836 5.822914 2.812500 6.312500 Z M23.671875 20.765625 C24.755214 20.765625 25.585935 20.419274 26.164062 19.726562 C26.742190 19.033851 27.031250 18.057298 27.031250 16.796875 L25.781250 16.796875 C25.781250 18.609384 25.078132 19.515625 23.671875 19.515625 C22.880204 19.515625 22.078129 19.335939 21.265625 18.976562 C20.453121 18.617186 19.479172 18.010421 18.343750 17.156250 L17.593750 18.156250 C18.822923 19.083338 19.908849 19.749998 20.851562 20.156250 C21.794276 20.562502 22.734370 20.765625 23.671875 20.765625 Z M27.921875 29.875000 C28.317710 28.197908 28.622395 26.450530 28.835938 24.632812 C29.049480 22.815095 29.192708 20.932301 29.265625 18.984375 L29.937500 19.750000 L29.937500 29.484375 C29.739582 29.557292 29.625000 29.687499 29.593750 29.875000 Z M11.984375 8.109375 C12.380210 7.901041 12.783852 7.752605 13.195312 7.664062 C13.606773 7.575520 14.114580 7.531250 14.718750 7.531250 L14.718750 6.593750 C14.052080 6.593750 13.471357 6.645833 12.976562 6.750000 C12.481768 6.854167 12.005211 7.026040 11.546875 7.265625 Z M22.421875 17.484375 C23.546881 17.484375 24.476559 17.234378 25.210938 16.734375 C25.945316 16.234372 26.312500 15.588546 26.312500 14.796875 C26.312500 13.901037 25.843755 13.151045 24.906250 12.546875 L24.218750 13.578125 C24.781253 13.942710 25.062500 14.348956 25.062500 14.796875 C25.062500 15.192710 24.817711 15.531249 24.328125 15.812500 C23.838539 16.093751 23.203129 16.234375 22.421875 16.234375 C21.932289 16.234375 21.502606 16.210938 21.132812 16.164062 C20.763019 16.117187 20.369794 16.026042 19.953125 15.890625 C19.536456 15.755208 19.000003 15.557293 18.343750 15.296875 L17.875000 16.453125 C18.572920 16.734376 19.158852 16.947916 19.632812 17.093750 C20.106773 17.239584 20.554685 17.341146 20.976562 17.398438 C21.398440 17.455729 21.880206 17.484375 22.421875 17.484375 Z M15.171875 8.937500 L17.578125 8.937500 L17.578125 7.687500 L15.171875 7.687500 Z M17.859375 14.359375 L20.703125 14.359375 C21.838547 14.359375 22.770830 14.109378 23.500000 13.609375 C24.229170 13.109372 24.593750 12.463546 24.593750 11.671875 C24.593750 10.828121 24.156254 10.098961 23.281250 9.484375 L22.515625 10.484375 C23.067711 10.859377 23.343750 11.255206 23.343750 11.671875 C23.343750 12.067710 23.096357 12.406249 22.601562 12.687500 C22.106768 12.968751 21.473962 13.109375 20.703125 13.109375 L17.859375 13.109375 Z M15.171875 6.906250 L17.578125 6.906250 L17.578125 5.656250 L15.171875 5.656250 Z M15.171875 5.031250 L17.578125 5.031250 L17.578125 3.781250 L15.171875 3.781250 Z M20.765625 8.109375 L21.203125 7.265625 C20.744789 7.026040 20.270836 6.854167 19.781250 6.750000 C19.291664 6.645833 18.708337 6.593750 18.031250 6.593750 L18.031250 7.531250 C18.645836 7.531250 19.156248 7.575520 19.562500 7.664062 C19.968752 7.752605 20.369790 7.901041 20.765625 8.109375 Z M29.937500 6.312500 C29.354164 5.822914 28.726566 5.460939 28.054688 5.226562 C27.382809 4.992186 26.640629 4.875000 25.828125 4.875000 C25.203122 4.875000 24.562503 4.916666 23.906250 5.000000 C23.249997 5.083334 22.598962 5.125000 21.953125 5.125000 C21.567706 5.125000 21.213543 5.093750 20.890625 5.031250 C20.567707 4.968750 20.265626 4.869792 19.984375 4.734375 C19.942708 4.473957 19.908854 4.216147 19.882812 3.960938 C19.856771 3.705728 19.843750 3.364585 19.843750 2.937500 L29.593750 2.937500 C29.625000 3.125001 29.739582 3.255208 29.937500 3.328125 Z M36.687500 27.343750" /></svg>