<svg version="1.1" xmlns="http://www.w3.org/2000/svg" style="fill:rgba(0,0,0,1.0)" width="256" height="256" viewBox="0 0 35.3125 32.8125"><path fill="rgb(255, 255, 255)" d="M16.359375 32.812500 C19.567724 32.812500 22.174469 32.630210 24.179688 32.265625 C26.184906 31.901040 27.656245 31.403649 28.593750 30.773438 C29.531255 30.143226 30.000000 29.432296 30.000000 28.640625 C30.000000 27.869788 29.601566 27.270835 28.804688 26.843750 C28.007809 26.416665 26.796883 26.203125 25.171875 26.203125 L25.171875 27.750000 C26.380214 27.750000 27.213539 27.841145 27.671875 28.023438 C28.130211 28.205730 28.359375 28.442707 28.359375 28.734375 C28.359375 29.140627 27.877609 29.531248 26.914062 29.906250 C25.950516 30.281252 24.572926 30.585936 22.781250 30.820312 C20.989574 31.054689 18.843762 31.171875 16.343750 31.171875 C13.562486 31.171875 11.104177 30.888024 8.968750 30.320312 C6.833323 29.752601 5.161464 28.968755 3.953125 27.968750 C2.744786 26.968745 2.140625 25.828131 2.140625 24.546875 C2.140625 23.817705 2.263020 22.997400 2.507812 22.085938 C2.752605 21.174475 3.317704 20.088548 4.203125 18.828125 C4.661461 18.171872 5.205726 17.346359 5.835938 16.351562 C6.466149 15.356766 7.080726 14.229173 7.679688 12.968750 C8.278649 11.708327 8.776040 10.348966 9.171875 8.890625 C9.567710 7.432284 9.765625 5.906258 9.765625 4.312500 C9.765625 3.854164 9.747396 3.398440 9.710938 2.945312 C9.674479 2.492185 9.614584 2.031252 9.531250 1.562500 L8.140625 2.000000 C8.244792 2.625003 8.296875 3.281247 8.296875 3.968750 C8.296875 5.416674 8.098960 6.838535 7.703125 8.234375 C7.307290 9.630215 6.809899 10.950515 6.210938 12.195312 C5.611976 13.440110 5.002607 14.562495 4.382812 15.562500 C3.763018 16.562505 3.223961 17.390622 2.765625 18.046875 C1.786453 19.473965 1.161460 20.734370 0.890625 21.828125 C0.619790 22.921880 0.484375 23.854163 0.484375 24.625000 C0.484375 25.875006 0.874996 27.002599 1.656250 28.007812 C2.437504 29.013026 3.541660 29.874996 4.968750 30.593750 C6.395840 31.312504 8.075511 31.861977 10.007812 32.242188 C11.940114 32.622398 14.057280 32.812500 16.359375 32.812500 Z M4.187500 23.390625 C4.781253 23.151040 5.408851 22.747399 6.070312 22.179688 C6.731774 21.611976 7.270831 20.973962 7.687500 20.265625 L6.609375 19.375000 C6.182290 19.958336 5.697919 20.499998 5.156250 21.000000 C4.614581 21.500002 4.010420 21.916665 3.343750 22.250000 Z M6.437500 25.343750 C7.052086 25.156249 7.687497 24.765628 8.343750 24.171875 C9.000003 23.578122 9.541665 22.932295 9.968750 22.234375 L8.890625 21.343750 C8.463540 21.927086 7.981774 22.471352 7.445312 22.976562 C6.908851 23.481773 6.307295 23.901040 5.640625 24.234375 Z M9.265625 27.218750 C9.848961 26.937499 10.424476 26.468753 10.992188 25.812500 C11.559899 25.156247 11.999998 24.447920 12.312500 23.687500 L11.109375 22.968750 C10.776040 23.604170 10.372398 24.213539 9.898438 24.796875 C9.424477 25.380211 8.880211 25.885415 8.265625 26.312500 Z M12.718750 28.062500 C13.697922 27.229162 14.406248 26.145840 14.843750 24.812500 L13.609375 24.171875 C13.317707 24.838545 12.968752 25.450518 12.562500 26.007812 C12.156248 26.565107 11.661461 27.078123 11.078125 27.546875 Z M18.187500 26.937500 L19.718750 25.968750 C17.645823 25.156246 15.648447 24.140631 13.726562 22.921875 C11.804678 21.703119 10.036466 20.372403 8.421875 18.929688 C6.807284 17.486972 5.411464 16.015632 4.234375 14.515625 C3.057286 13.015618 2.171878 11.583340 1.578125 10.218750 L0.703125 11.218750 C1.088544 12.437506 1.731766 13.697910 2.632812 15.000000 C3.533859 16.302090 4.601556 17.580723 5.835938 18.835938 C7.070319 20.091152 8.395826 21.260411 9.812500 22.343750 C11.229174 23.427089 12.656243 24.367184 14.093750 25.164062 C15.531257 25.960941 16.895827 26.552081 18.187500 26.937500 Z M21.453125 25.343750 L23.062500 24.359375 C20.760405 23.505204 18.552094 22.442715 16.437500 21.171875 C14.322906 19.901035 12.382821 18.507820 10.617188 16.992188 C8.851554 15.476555 7.328131 13.916675 6.046875 12.312500 C4.765619 10.708325 3.802087 9.145841 3.156250 7.625000 L2.125000 8.750000 C2.531252 9.968756 3.242182 11.257806 4.257812 12.617188 C5.273443 13.976569 6.486972 15.328118 7.898438 16.671875 C9.309903 18.015632 10.809888 19.276036 12.398438 20.453125 C13.986987 21.630214 15.565096 22.645829 17.132812 23.500000 C18.700529 24.354171 20.140618 24.968748 21.453125 25.343750 Z M14.296875 28.453125 C16.276052 28.453125 18.130200 28.083337 19.859375 27.343750 C21.588550 26.604163 23.109368 25.583340 24.421875 24.281250 C25.734382 22.979160 26.760413 21.468759 27.500000 19.750000 C28.239587 18.031241 28.609375 16.187510 28.609375 14.218750 C28.609375 12.260407 28.239587 10.421884 27.500000 8.703125 C26.760413 6.984366 25.734382 5.473965 24.421875 4.171875 C23.109368 2.869785 21.588550 1.848962 19.859375 1.109375 C18.130200 0.369788 16.276052 -0.000000 14.296875 -0.000000 C12.328115 -0.000000 10.479175 0.369788 8.750000 1.109375 C7.020825 1.848962 5.500007 2.869785 4.187500 4.171875 C2.874993 5.473965 1.848962 6.984366 1.109375 8.703125 C0.369788 10.421884 0.000000 12.260407 0.000000 14.218750 C0.000000 16.187510 0.369788 18.031241 1.109375 19.750000 C1.848962 21.468759 2.874993 22.979160 4.187500 24.281250 C5.500007 25.583340 7.020825 26.604163 8.750000 27.343750 C10.479175 28.083337 12.328115 28.453125 14.296875 28.453125 Z M14.296875 26.734375 C12.588533 26.734375 10.976570 26.406253 9.460938 25.750000 C7.945305 25.093747 6.606777 24.190110 5.445312 23.039062 C4.283848 21.888015 3.372399 20.557299 2.710938 19.046875 C2.049476 17.536451 1.718750 15.927092 1.718750 14.218750 C1.718750 12.510408 2.049476 10.903653 2.710938 9.398438 C3.372399 7.893222 4.283848 6.562506 5.445312 5.406250 C6.606777 4.249994 7.945305 3.343753 9.460938 2.687500 C10.976570 2.031247 12.588533 1.703125 14.296875 1.703125 C16.015634 1.703125 17.632805 2.031247 19.148438 2.687500 C20.664070 3.343753 22.002598 4.249994 23.164062 5.406250 C24.325527 6.562506 25.236976 7.893222 25.898438 9.398438 C26.559899 10.903653 26.890625 12.510408 26.890625 14.218750 C26.890625 15.927092 26.559899 17.536451 25.898438 19.046875 C25.236976 20.557299 24.325527 21.888015 23.164062 23.039062 C22.002598 24.190110 20.664070 25.093747 19.148438 25.750000 C17.632805 26.406253 16.015634 26.734375 14.296875 26.734375 Z M24.062500 23.343750 L25.328125 22.203125 C22.984363 21.401038 20.755219 20.390631 18.640625 19.171875 C16.526031 17.953119 14.583342 16.575529 12.812500 15.039062 C11.041658 13.502596 9.497402 11.854175 8.179688 10.093750 C6.861973 8.333325 5.828129 6.515634 5.078125 4.640625 L4.046875 5.828125 C4.463544 7.171882 5.143224 8.546868 6.085938 9.953125 C7.028651 11.359382 8.161452 12.742181 9.484375 14.101562 C10.807298 15.460944 12.265617 16.736973 13.859375 17.929688 C15.453133 19.122402 17.117179 20.184891 18.851562 21.117188 C20.585946 22.049484 22.322908 22.791664 24.062500 23.343750 Z M26.187500 21.218750 L26.609375 19.781250 C24.401031 18.968746 22.283864 17.950527 20.257812 16.726562 C18.231761 15.502598 16.367196 14.132820 14.664062 12.617188 C12.960929 11.101555 11.471361 9.489592 10.195312 7.781250 C8.919264 6.072908 7.927087 4.322926 7.218750 2.531250 L6.187500 3.718750 C6.604169 5.062507 7.283849 6.437493 8.226562 7.843750 C9.169276 9.250007 10.302077 10.630202 11.625000 11.984375 C12.947923 13.338548 14.403638 14.614577 15.992188 15.812500 C17.580737 17.010423 19.242179 18.072912 20.976562 19.000000 C22.710946 19.927088 24.447908 20.666664 26.187500 21.218750 Z M11.546875 10.218750 C11.869793 9.520830 12.111978 8.729171 12.273438 7.843750 C12.434897 6.958329 12.515625 6.062505 12.515625 5.156250 C12.515625 4.458330 12.466146 3.776045 12.367188 3.109375 C12.268229 2.442705 12.114584 1.838544 11.906250 1.296875 L10.453125 1.453125 C10.838544 2.588547 11.031250 3.859368 11.031250 5.265625 C11.031250 6.640632 10.848960 7.859370 10.484375 8.921875 Z M13.703125 12.859375 C14.161461 12.234372 14.518228 11.289069 14.773438 10.023438 C15.028647 8.757806 15.156250 7.442715 15.156250 6.078125 C15.156250 5.067703 15.080730 4.093755 14.929688 3.156250 C14.778645 2.218745 14.552085 1.427087 14.250000 0.781250 L12.656250 0.968750 C12.968752 1.510419 13.200520 2.236975 13.351562 3.148438 C13.502605 4.059900 13.578125 5.020828 13.578125 6.031250 C13.578125 7.177089 13.481772 8.304682 13.289062 9.414062 C13.096353 10.523443 12.812502 11.416663 12.437500 12.093750 Z M20.890625 18.296875 C21.828130 18.109374 22.687496 17.872397 23.468750 17.585938 C24.250004 17.299478 24.960934 16.950523 25.601562 16.539062 C26.242191 16.127602 26.812498 15.640628 27.312500 15.078125 L27.156250 13.125000 C26.739581 13.781253 26.117192 14.390622 25.289062 14.953125 C24.460933 15.515628 23.565109 15.968748 22.601562 16.312500 C21.638016 16.656252 20.739588 16.828125 19.906250 16.828125 Z M16.343750 14.984375 C16.833336 13.848953 17.195311 12.648444 17.429688 11.382812 C17.664064 10.117181 17.781250 8.854173 17.781250 7.593750 C17.781250 6.479161 17.695313 5.403651 17.523438 4.367188 C17.351562 3.330724 17.098960 2.369796 16.765625 1.484375 L15.218750 1.140625 C15.604169 2.005213 15.882812 2.955724 16.054688 3.992188 C16.226563 5.028651 16.312500 6.083328 16.312500 7.156250 C16.312500 8.322922 16.218751 9.468744 16.031250 10.593750 C15.843749 11.718756 15.583335 12.729162 15.250000 13.625000 Z M18.750000 16.359375 C19.281253 14.994785 19.700519 13.658861 20.007812 12.351562 C20.315106 11.044264 20.468750 9.713548 20.468750 8.359375 C20.468750 7.411454 20.388022 6.445317 20.226562 5.460938 C20.065103 4.476558 19.802085 3.453130 19.437500 2.390625 L17.859375 1.734375 C18.255210 2.744797 18.544270 3.770828 18.726562 4.812500 C18.908855 5.854172 19.000000 6.890620 19.000000 7.921875 C19.000000 9.244798 18.875001 10.541660 18.625000 11.812500 C18.374999 13.083340 18.041669 14.307286 17.625000 15.484375 Z M18.843750 15.484375 C19.729171 15.442708 20.721349 15.263022 21.820312 14.945312 C22.919276 14.627603 23.966141 14.192711 24.960938 13.640625 C25.955734 13.088539 26.739580 12.458337 27.312500 11.750000 L26.953125 9.906250 C26.640623 10.479170 26.182295 11.015622 25.578125 11.515625 C24.973955 12.015628 24.291670 12.458331 23.531250 12.843750 C22.770830 13.229169 21.992191 13.533853 21.195312 13.757812 C20.398434 13.981772 19.656253 14.109375 18.968750 14.140625 Z M19.546875 12.937500 C20.421879 12.812499 21.296871 12.557294 22.171875 12.171875 C23.046879 11.786456 23.856767 11.309899 24.601562 10.742188 C25.346358 10.174476 25.958331 9.562503 26.437500 8.906250 L25.953125 7.125000 C25.630207 7.802087 25.117191 8.458330 24.414062 9.093750 C23.710934 9.729170 22.914067 10.270831 22.023438 10.718750 C21.132808 11.166669 20.239588 11.458333 19.343750 11.593750 Z M19.750000 9.796875 C20.739588 9.588541 21.705724 9.200524 22.648438 8.632812 C23.591151 8.065101 24.437496 7.223964 25.187500 6.109375 L24.453125 4.968750 C23.838539 5.937505 23.057296 6.718747 22.109375 7.312500 C21.161454 7.906253 20.276046 8.291666 19.453125 8.468750 Z M35.312500 27.343750" /></svg>