<svg version="1.1" xmlns="http://www.w3.org/2000/svg" style="fill:rgba(0,0,0,1.0)" width="256" height="256" viewBox="0 0 39.0625 28.125"><path fill="rgb(255, 255, 255)" d="M0.000000 28.125000 L0.000000 -0.000000 L37.500000 -0.000000 L37.500000 28.125000 Z M0.937500 24.859375 L0.937500 23.296875 L15.093750 23.296875 L15.093750 24.859375 Z M6.531250 18.609375 C6.531250 17.744787 6.226566 17.049482 5.617188 16.523438 C5.007809 15.997393 4.281254 15.734375 3.437500 15.734375 L3.437500 6.156250 C4.281254 6.156250 5.007809 5.893232 5.617188 5.367188 C6.226566 4.841143 6.531250 4.145838 6.531250 3.281250 L15.359375 3.281250 L15.359375 4.484375 L7.531250 4.484375 C7.427083 5.119795 7.096357 5.690102 6.539062 6.195312 C5.981768 6.700523 5.348962 7.010416 4.640625 7.125000 L4.640625 14.765625 C5.348962 14.869792 5.981768 15.174477 6.539062 15.679688 C7.096357 16.184898 7.427083 16.760413 7.531250 17.406250 L15.359375 17.406250 L15.359375 18.609375 Z M9.296875 15.125000 L9.296875 13.171875 L7.234375 13.171875 L7.234375 12.312500 L9.296875 12.312500 L9.296875 11.562500 L7.234375 11.562500 L7.234375 10.718750 L8.906250 10.718750 L6.921875 6.750000 L8.687500 6.750000 L9.453125 8.625000 C9.567709 8.916668 9.684895 9.210936 9.804688 9.507812 C9.924480 9.804689 10.036458 10.098957 10.140625 10.390625 L10.203125 10.390625 C10.317709 10.088540 10.432291 9.791668 10.546875 9.500000 C10.661459 9.208332 10.776041 8.916668 10.890625 8.625000 L11.656250 6.750000 L13.375000 6.750000 L11.375000 10.718750 L13.062500 10.718750 L13.062500 11.562500 L10.984375 11.562500 L10.984375 12.312500 L13.062500 12.312500 L13.062500 13.171875 L10.984375 13.171875 L10.984375 15.125000 Z M14.312500 27.015625 L14.312500 0.890625 L15.875000 0.890625 L15.875000 27.015625 Z M1.875000 26.250000 L35.625000 26.250000 L35.625000 21.890625 L22.390625 21.890625 L22.390625 20.015625 L35.625000 20.015625 L35.625000 1.875000 L1.875000 1.875000 L1.875000 20.015625 L15.125000 20.015625 L15.125000 21.890625 L1.875000 21.890625 Z M22.406250 24.859375 L22.406250 23.296875 L36.562500 23.296875 L36.562500 24.859375 Z M21.625000 27.015625 L21.625000 0.890625 L23.187500 0.890625 L23.187500 27.015625 Z M22.140625 18.609375 L22.140625 17.406250 L29.968750 17.406250 C30.083334 16.760413 30.419268 16.184898 30.976562 15.679688 C31.533857 15.174477 32.161455 14.869792 32.859375 14.765625 L32.859375 7.125000 C32.161455 7.010416 31.533857 6.700523 30.976562 6.195312 C30.419268 5.690102 30.083334 5.119795 29.968750 4.484375 L22.140625 4.484375 L22.140625 3.281250 L30.968750 3.281250 C30.968750 4.145838 31.273434 4.841143 31.882812 5.367188 C32.492191 5.893232 33.218746 6.156250 34.062500 6.156250 L34.062500 15.734375 C33.218746 15.734375 32.492191 15.997393 31.882812 16.523438 C31.273434 17.049482 30.968750 17.744787 30.968750 18.609375 Z M39.062500 25.000000" /></svg>