<svg version="1.1" xmlns="http://www.w3.org/2000/svg" style="fill:rgba(0,0,0,1.0)" width="256" height="256" viewBox="0 0 36.484375 32.8125"><path fill="rgb(255, 255, 255)" d="M22.421875 32.812500 C20.453115 32.812500 18.721362 32.726563 17.226562 32.554688 C15.731763 32.382812 14.578129 32.046878 13.765625 31.546875 C13.848959 30.401036 13.929687 29.434900 14.007812 28.648438 C14.085938 27.861975 14.179687 27.093754 14.289062 26.343750 C14.398438 25.593746 14.541666 24.713547 14.718750 23.703125 C13.958330 24.057293 13.161462 24.322916 12.328125 24.500000 C11.494788 24.677084 10.598963 24.765625 9.640625 24.765625 C9.505208 24.765625 9.359376 24.763021 9.203125 24.757812 C9.046874 24.752604 8.895834 24.744792 8.750000 24.734375 C8.270831 25.296878 7.611983 25.747394 6.773438 26.085938 C5.934892 26.424481 5.119796 26.593750 4.328125 26.593750 C3.546871 26.593750 2.828128 26.408856 2.171875 26.039062 C1.515622 25.669269 0.989585 25.164066 0.593750 24.523438 C0.197915 23.882809 0.000000 23.151046 0.000000 22.328125 C0.000000 21.651038 0.098957 21.023440 0.296875 20.445312 C0.494793 19.867185 0.835935 19.260420 1.320312 18.625000 C1.804690 17.989580 2.468746 17.250004 3.312500 16.406250 L4.296875 15.078125 C4.588543 14.682290 4.903644 14.273440 5.242188 13.851562 C5.580731 13.429685 5.880207 13.072918 6.140625 12.781250 L10.468750 7.953125 C10.770835 7.609373 11.184893 7.325522 11.710938 7.101562 C12.236982 6.877603 12.807289 6.729167 13.421875 6.656250 C13.598959 5.854163 13.924477 5.072920 14.398438 4.312500 C14.872398 3.552080 15.403643 2.924482 15.992188 2.429688 C16.580732 1.934893 17.124998 1.687500 17.625000 1.687500 C18.250003 1.687500 18.817706 2.015622 19.328125 2.671875 C19.838544 3.328128 20.242186 4.210932 20.539062 5.320312 C20.835939 6.429693 20.984375 7.671868 20.984375 9.046875 C22.786467 10.182297 24.335931 11.442701 25.632812 12.828125 C26.929694 14.213549 27.992183 15.794262 28.820312 17.570312 C29.648442 19.346363 30.257811 21.385405 30.648438 23.687500 C31.039064 25.989595 31.234375 28.624985 31.234375 31.593750 C30.369787 32.031252 29.244799 32.343749 27.859375 32.531250 C26.473951 32.718751 24.661470 32.812500 22.421875 32.812500 Z M4.156250 23.171875 C4.354168 23.171875 4.544270 23.031251 4.726562 22.750000 C4.908855 22.468749 5.000000 22.109377 5.000000 21.671875 C5.000000 21.234373 4.880210 20.906251 4.640625 20.687500 C4.401040 20.468749 4.098960 20.359375 3.734375 20.359375 C3.505207 20.359375 3.299480 20.406250 3.117188 20.500000 C2.934895 20.593750 2.843750 20.723958 2.843750 20.890625 C2.843750 21.151043 2.950520 21.307291 3.164062 21.359375 C3.377605 21.411459 3.552083 21.546874 3.687500 21.765625 C3.739584 21.838542 3.773437 21.932291 3.789062 22.046875 C3.804688 22.161459 3.812500 22.322916 3.812500 22.531250 C3.812500 22.958335 3.927082 23.171875 4.156250 23.171875 Z M12.406250 23.390625 C12.406250 22.005201 12.239585 20.937504 11.906250 20.187500 C11.572915 19.437496 11.005212 19.062500 10.203125 19.062500 C9.276037 19.062500 8.114590 19.578120 6.718750 20.609375 L5.750000 19.609375 C6.635421 18.807288 7.473954 18.210939 8.265625 17.820312 C9.057296 17.429686 9.786455 17.234375 10.453125 17.234375 C11.557297 17.234375 12.434893 17.760411 13.085938 18.812500 C13.736982 19.864589 14.062500 21.390615 14.062500 23.390625 Z M7.593750 19.703125 L6.468750 18.515625 C7.302088 17.713538 7.921873 16.773443 8.328125 15.695312 C8.734377 14.617182 8.937500 13.578130 8.937500 12.578125 C8.937500 12.453124 8.934896 12.325521 8.929688 12.195312 C8.924479 12.065104 8.916667 11.942709 8.906250 11.828125 L10.531250 10.234375 C10.593750 10.703127 10.625000 11.192706 10.625000 11.703125 C10.625000 12.651046 10.510418 13.622391 10.281250 14.617188 C10.052082 15.611984 9.710940 16.552079 9.257812 17.437500 C8.804685 18.322921 8.250003 19.078122 7.593750 19.703125 Z M17.468750 32.375000 L16.812500 31.062500 C18.687509 30.374997 20.309889 29.544276 21.679688 28.570312 C23.049486 27.596349 24.299474 26.500006 25.429688 25.281250 C26.559901 24.062494 27.687494 22.750007 28.812500 21.343750 L29.906250 22.375000 C28.770828 23.791674 27.625006 25.122390 26.468750 26.367188 C25.312494 27.611985 24.018236 28.742182 22.585938 29.757812 C21.153639 30.773443 19.447927 31.645830 17.468750 32.375000 Z M16.546875 23.125000 L15.078125 22.625000 C15.369793 21.843746 15.515625 21.098962 15.515625 20.390625 C15.515625 19.973956 15.473959 19.539065 15.390625 19.085938 C15.307291 18.632810 15.177084 18.119795 15.000000 17.546875 C14.864583 17.119790 14.742188 16.671877 14.632812 16.203125 C14.523437 15.734373 14.468750 15.234378 14.468750 14.703125 C14.468750 14.338540 14.505208 13.958335 14.578125 13.562500 C14.651042 13.166665 14.776041 12.750002 14.953125 12.312500 L16.421875 12.843750 C16.276041 13.197918 16.171875 13.528644 16.109375 13.835938 C16.046875 14.143231 16.015625 14.437499 16.015625 14.718750 C16.015625 15.135419 16.062500 15.539061 16.156250 15.929688 C16.250000 16.320314 16.364583 16.729165 16.500000 17.156250 C16.875002 18.354173 17.062500 19.437495 17.062500 20.406250 C17.062500 21.281254 16.890627 22.187495 16.546875 23.125000 Z M12.437500 15.734375 C12.114582 15.734375 11.841147 15.596356 11.617188 15.320312 C11.393228 15.044269 11.281250 14.713544 11.281250 14.328125 C11.281250 13.942706 11.393228 13.614585 11.617188 13.343750 C11.841147 13.072915 12.114582 12.937500 12.437500 12.937500 C12.760418 12.937500 13.033853 13.072915 13.257812 13.343750 C13.481772 13.614585 13.593750 13.942706 13.593750 14.328125 C13.593750 14.713544 13.481772 15.044269 13.257812 15.320312 C13.033853 15.596356 12.760418 15.734375 12.437500 15.734375 Z M15.656250 28.906250 L15.031250 27.500000 C20.385443 24.854153 24.395820 21.614602 27.062500 17.781250 L28.218750 18.750000 C26.833326 20.760427 25.091156 22.611971 22.992188 24.304688 C20.893219 25.997404 18.447931 27.531243 15.656250 28.906250 Z M26.484375 32.015625 L24.843750 31.453125 C25.229169 31.078123 25.645831 30.604170 26.093750 30.031250 C26.541669 29.458330 26.979165 28.851566 27.406250 28.210938 C27.833335 27.570309 28.210936 26.950524 28.539062 26.351562 C28.867189 25.752601 29.109374 25.234377 29.265625 24.796875 L29.937500 26.421875 C29.562498 27.359380 29.046878 28.341141 28.390625 29.367188 C27.734372 30.393234 27.098961 31.276038 26.484375 32.015625 Z M22.421875 31.093750 C24.026050 31.093750 25.416661 31.018230 26.593750 30.867188 C27.770839 30.716145 28.692705 30.531251 29.359375 30.312500 C29.359375 27.697904 29.171877 25.375010 28.796875 23.343750 C28.421873 21.312490 27.830733 19.497404 27.023438 17.898438 C26.216142 16.299471 25.169277 14.856777 23.882812 13.570312 C22.596348 12.283848 21.041676 11.078131 19.218750 9.953125 C19.218750 8.776036 19.145834 7.703130 19.000000 6.734375 C18.854166 5.765620 18.661460 4.994795 18.421875 4.421875 C18.182290 3.848955 17.916668 3.562500 17.625000 3.562500 C17.374999 3.562500 17.098960 3.710936 16.796875 4.007812 C16.494790 4.304689 16.205731 4.692706 15.929688 5.171875 C15.653644 5.651044 15.421876 6.169268 15.234375 6.726562 C15.046874 7.283857 14.932292 7.817706 14.890625 8.328125 C14.255205 8.328125 13.622399 8.411458 12.992188 8.578125 C12.361976 8.744792 11.937501 8.953124 11.718750 9.203125 L7.390625 14.031250 C7.265624 14.166667 7.125001 14.330728 6.968750 14.523438 C6.812499 14.716147 6.651042 14.916666 6.484375 15.125000 C6.848960 15.281251 7.182290 15.523436 7.484375 15.851562 C7.786460 16.179689 7.937500 16.567706 7.937500 17.015625 C7.937500 17.359377 7.856772 17.723956 7.695312 18.109375 C7.533853 18.494794 7.372397 18.851561 7.210938 19.179688 C7.049478 19.507814 6.968750 19.760416 6.968750 19.937500 C6.968750 20.156251 7.101561 20.354166 7.367188 20.531250 C7.632814 20.708334 7.895832 20.937499 8.156250 21.218750 C8.416668 21.500001 8.546875 21.916664 8.546875 22.468750 C8.546875 22.572917 8.544271 22.671875 8.539062 22.765625 C8.533854 22.859375 8.520833 22.947916 8.500000 23.031250 C8.645834 23.041667 8.789062 23.046875 8.929688 23.046875 C9.070313 23.046875 9.208333 23.046875 9.343750 23.046875 C10.625006 23.046875 11.893223 22.880210 13.148438 22.546875 C14.403652 22.213540 15.661452 21.692712 16.921875 20.984375 C16.776041 21.619795 16.632813 22.343746 16.492188 23.156250 C16.351562 23.968754 16.226563 24.812496 16.117188 25.687500 C16.007812 26.562504 15.919271 27.411454 15.851562 28.234375 C15.783854 29.057296 15.750000 29.796872 15.750000 30.453125 C16.354170 30.640626 17.255202 30.794270 18.453125 30.914062 C19.651048 31.033855 20.973951 31.093750 22.421875 31.093750 Z M16.156250 24.062500 L15.875000 22.312500 C17.385424 21.739580 18.989575 20.888026 20.687500 19.757812 C22.385425 18.627599 24.130199 17.213550 25.921875 15.515625 L26.796875 16.765625 C25.692703 17.776047 24.523444 18.770828 23.289062 19.750000 C22.054681 20.729172 20.825527 21.598955 19.601562 22.359375 C18.377598 23.119795 17.229172 23.687498 16.156250 24.062500 Z M13.875000 11.250000 L12.406250 10.718750 C12.531251 10.416665 12.625000 10.059898 12.687500 9.648438 C12.750000 9.236977 12.781250 8.812502 12.781250 8.375000 C12.781250 8.166666 12.773438 7.953126 12.757812 7.734375 C12.742187 7.515624 12.718750 7.307293 12.687500 7.109375 L14.218750 6.890625 C14.291667 7.328127 14.328125 7.822914 14.328125 8.375000 C14.328125 8.906253 14.289063 9.424477 14.210938 9.929688 C14.132812 10.434898 14.020834 10.874998 13.875000 11.250000 Z M30.625000 29.687500 L30.046875 25.468750 C30.192709 24.822913 30.304687 24.140629 30.382812 23.421875 C30.460938 22.703121 30.500000 21.973962 30.500000 21.234375 C30.500000 18.432278 30.140629 15.843762 29.421875 13.468750 C28.703121 11.093738 27.669278 9.028655 26.320312 7.273438 C24.971347 5.518220 23.346364 4.153651 21.445312 3.179688 C19.544261 2.205724 17.406262 1.718750 15.031250 1.718750 C14.177079 1.718750 13.354171 1.778645 12.562500 1.898438 C11.770829 2.018230 11.119794 2.179686 10.609375 2.382812 C10.098956 2.585939 9.843750 2.812499 9.843750 3.062500 C9.843750 3.135417 9.914062 3.265624 10.054688 3.453125 C10.195313 3.640626 10.455727 3.914061 10.835938 4.273438 C11.216148 4.632814 11.765621 5.124997 12.484375 5.750000 L14.218750 7.234375 L12.250000 8.468750 L10.390625 6.796875 C9.213536 5.734370 8.328128 4.882816 7.734375 4.242188 C7.140622 3.601559 6.843750 3.125002 6.843750 2.812500 C6.843750 2.364581 7.075519 1.966148 7.539062 1.617188 C8.002606 1.268227 8.617184 0.973960 9.382812 0.734375 C10.148441 0.494790 10.994787 0.312501 11.921875 0.187500 C12.848963 0.062499 13.781245 -0.000000 14.718750 -0.000000 C17.552098 -0.000000 20.062489 0.539057 22.250000 1.617188 C24.437511 2.695318 26.281242 4.195303 27.781250 6.117188 C29.281258 8.039072 30.416663 10.289050 31.187500 12.867188 C31.958337 15.445325 32.343750 18.234360 32.343750 21.234375 C32.343750 22.786466 32.195314 24.296868 31.898438 25.765625 C31.601561 27.234382 31.177086 28.541661 30.625000 29.687500 Z M19.578125 17.875000 C19.296874 17.875000 19.104167 17.776043 19.000000 17.578125 C18.895833 17.380207 18.843750 17.151043 18.843750 16.890625 C18.843750 16.286455 19.072914 15.471359 19.531250 14.445312 C19.989586 13.419266 20.624996 12.291673 21.437500 11.062500 L22.765625 12.000000 C22.505207 12.218751 22.244793 12.505207 21.984375 12.859375 C21.723957 13.213543 21.510418 13.570311 21.343750 13.929688 C21.177082 14.289064 21.093750 14.588540 21.093750 14.828125 C21.093750 15.088543 21.208332 15.218750 21.437500 15.218750 C21.729168 15.218750 22.179684 15.015627 22.789062 14.609375 C23.398441 14.203123 24.083330 13.671878 24.843750 13.015625 L25.562500 14.234375 C24.989580 14.776044 24.315108 15.328122 23.539062 15.890625 C22.763017 16.453128 22.013024 16.924477 21.289062 17.304688 C20.565101 17.684898 19.994794 17.875000 19.578125 17.875000 Z M18.750000 13.656250 L17.250000 13.171875 C17.510418 12.369788 17.841144 11.614587 18.242188 10.906250 C18.643231 10.197913 19.114581 9.526045 19.656250 8.890625 L20.875000 9.843750 C19.916662 10.989589 19.208336 12.260410 18.750000 13.656250 Z M30.312500 23.031250 L29.406250 21.015625 L31.703125 20.015625 L31.890625 22.781250 Z M14.765625 6.500000 L11.265625 1.265625 L14.015625 0.859375 L15.703125 4.734375 Z M17.093750 9.265625 C16.520830 9.265625 16.234375 8.755213 16.234375 7.734375 C16.234375 7.026038 16.364582 6.390628 16.625000 5.828125 C16.885418 5.265622 17.161457 4.984375 17.453125 4.984375 C17.598959 4.984375 17.742187 5.177081 17.882812 5.562500 C18.023438 5.947919 18.093750 6.374998 18.093750 6.843750 C18.093750 8.458341 17.760420 9.265625 17.093750 9.265625 Z M28.453125 19.140625 L27.687500 17.734375 L31.234375 15.765625 L32.109375 17.546875 Z M26.890625 16.015625 L25.968750 14.531250 L29.656250 12.031250 L30.546875 13.937500 Z M22.078125 10.328125 L20.500000 9.312500 L24.218750 4.593750 L25.968750 6.156250 Z M25.000000 12.906250 L23.593750 11.718750 L27.453125 7.812500 L28.812500 9.750000 Z M20.390625 6.031250 L19.484375 4.203125 L20.609375 2.031250 L22.625000 3.296875 Z M36.484375 27.343750" /></svg>