<svg version="1.1" xmlns="http://www.w3.org/2000/svg" style="fill:rgba(0,0,0,1.0)" width="256" height="256" viewBox="0 0 34.140625 32.8125"><path fill="rgb(255, 255, 255)" d="M13.703125 32.812500 C10.567693 32.812500 8.085947 32.333338 6.257812 31.375000 C4.429678 30.416662 3.427084 29.072925 3.250000 27.343750 C3.177083 26.604163 3.114584 25.825525 3.062500 25.007812 C3.010416 24.190100 2.968750 23.307296 2.937500 22.359375 C2.635415 22.328125 2.333335 22.260417 2.031250 22.156250 C1.729165 22.052083 1.479168 21.921876 1.281250 21.765625 C1.989587 21.557291 2.351562 21.145836 2.367188 20.531250 C2.382813 19.916664 2.135419 19.177088 1.625000 18.312500 C1.177081 18.552085 0.838543 18.786457 0.609375 19.015625 C0.578125 18.921875 0.562500 18.817709 0.562500 18.703125 C0.562500 18.359373 0.638020 17.994794 0.789062 17.609375 C0.940105 17.223956 1.015625 16.942709 1.015625 16.765625 C1.015625 16.578124 0.880210 16.348960 0.609375 16.078125 C0.442708 15.901041 0.317709 15.700522 0.234375 15.476562 C0.151041 15.252603 0.109375 15.041668 0.109375 14.843750 C0.109375 14.395831 0.174479 14.010418 0.304688 13.687500 C0.434896 13.364582 0.609374 13.067710 0.828125 12.796875 C0.640624 12.619791 0.473959 12.398439 0.328125 12.132812 C0.182291 11.867186 0.072917 11.557293 0.000000 11.203125 C0.354168 11.380209 0.703123 11.468750 1.046875 11.468750 C1.359377 11.468750 1.627603 11.380209 1.851562 11.203125 C2.075522 11.026041 2.187500 10.729169 2.187500 10.312500 C2.187500 9.916665 2.236979 9.468752 2.335938 8.968750 C2.434896 8.468748 2.718748 8.119793 3.187500 7.921875 C2.770831 7.921875 2.388023 7.773439 2.039062 7.476562 C1.690102 7.179686 1.473959 6.822919 1.390625 6.406250 C1.734377 6.552084 2.010416 6.625000 2.218750 6.625000 C2.656252 6.625000 3.041665 6.281253 3.375000 5.593750 C3.541668 5.249998 3.765624 4.916668 4.046875 4.593750 C4.328126 4.270832 4.744789 4.109375 5.296875 4.109375 C5.473959 4.109375 5.614583 4.117187 5.718750 4.132812 C5.822917 4.148438 5.906250 4.166667 5.968750 4.187500 C5.666665 3.916665 5.434897 3.617189 5.273438 3.289062 C5.111978 2.960936 5.031250 2.619793 5.031250 2.265625 C5.031250 1.494788 5.380205 0.739587 6.078125 -0.000000 C6.182292 0.781254 6.419269 1.393227 6.789062 1.835938 C7.158856 2.278648 7.697913 2.500000 8.406250 2.500000 C8.291666 2.208332 8.234375 1.937501 8.234375 1.687500 C8.234375 1.135414 8.458331 0.651044 8.906250 0.234375 C8.947917 0.526043 9.070311 0.799478 9.273438 1.054688 C9.476564 1.309897 9.796873 1.437500 10.234375 1.437500 C10.598960 1.437500 11.031248 1.328126 11.531250 1.109375 C12.031252 0.890624 12.648434 0.674480 13.382812 0.460938 C14.117191 0.247395 15.010411 0.140625 16.062500 0.140625 C16.916671 0.140625 17.697913 0.270832 18.406250 0.531250 C19.114587 0.791668 19.682290 1.171872 20.109375 1.671875 C20.536460 2.171878 20.750000 2.786455 20.750000 3.515625 C21.187502 3.411458 21.658852 3.466145 22.164062 3.679688 C22.669273 3.893230 23.130206 4.197915 23.546875 4.593750 C23.963544 4.989585 24.244791 5.421873 24.390625 5.890625 L25.359375 5.000000 C25.421875 5.166667 25.471354 5.338541 25.507812 5.515625 C25.544271 5.692709 25.562500 5.890624 25.562500 6.109375 C25.562500 6.515627 25.500001 6.893227 25.375000 7.242188 C25.249999 7.591148 25.098959 7.874999 24.921875 8.093750 C25.526045 8.354168 26.028644 8.744789 26.429688 9.265625 C26.830731 9.786461 27.031250 10.432288 27.031250 11.203125 C27.031250 11.307292 27.028646 11.416666 27.023438 11.531250 C27.018229 11.645834 27.005208 11.760416 26.984375 11.875000 C26.921875 11.843750 26.830730 11.809896 26.710938 11.773438 C26.591145 11.736979 26.468751 11.718750 26.343750 11.718750 C26.166666 11.718750 25.994792 11.760416 25.828125 11.843750 C25.859375 12.020834 25.898437 12.208332 25.945312 12.406250 C25.992188 12.604168 26.041666 12.802082 26.093750 13.000000 C26.177084 13.281251 26.395832 13.421875 26.750000 13.421875 C26.927084 13.421875 27.096353 13.401042 27.257812 13.359375 C27.419272 13.317708 27.552083 13.276042 27.656250 13.234375 C27.656250 13.828128 27.526043 14.281248 27.265625 14.593750 C27.005207 14.906252 26.729168 15.078125 26.437500 15.109375 C26.354166 15.848962 26.216147 16.559892 26.023438 17.242188 C25.830728 17.924483 25.541669 18.583330 25.156250 19.218750 C25.333334 19.270834 25.575519 19.395832 25.882812 19.593750 C26.190106 19.791668 26.411458 20.161456 26.546875 20.703125 C26.296874 20.578124 26.031251 20.515625 25.750000 20.515625 C25.406248 20.515625 25.104168 20.609374 24.843750 20.796875 C24.843750 21.088543 24.942707 21.351561 25.140625 21.585938 C25.338543 21.820314 25.567707 22.010416 25.828125 22.156250 C25.432290 22.354168 25.046877 22.453125 24.671875 22.453125 C24.598958 22.453125 24.528646 22.447917 24.460938 22.437500 C24.393229 22.427083 24.328125 22.416667 24.265625 22.406250 L24.265625 23.390625 C24.265625 23.859377 24.322916 24.263019 24.437500 24.601562 C24.552084 24.940106 24.682291 25.260415 24.828125 25.562500 C24.963542 25.822918 25.078125 26.085936 25.171875 26.351562 C25.265625 26.617189 25.312500 26.916665 25.312500 27.250000 C25.312500 28.364589 24.854171 29.338538 23.937500 30.171875 C23.020829 31.005212 21.697925 31.653644 19.968750 32.117188 C18.239575 32.580731 16.151054 32.812500 13.703125 32.812500 Z M8.750000 28.984375 C8.489582 28.984375 8.218751 28.877605 7.937500 28.664062 C7.656249 28.450520 7.421876 28.190106 7.234375 27.882812 C7.046874 27.575519 6.953125 27.286460 6.953125 27.015625 C6.953125 26.432289 7.244789 26.140625 7.828125 26.140625 C8.078126 26.140625 8.382811 26.223958 8.742188 26.390625 C9.101564 26.557292 9.421874 26.765624 9.703125 27.015625 C9.984376 27.265626 10.125000 27.515624 10.125000 27.765625 C10.125000 28.046876 9.981772 28.320311 9.695312 28.585938 C9.408853 28.851564 9.093752 28.984375 8.750000 28.984375 Z M10.750000 29.515625 C10.635416 29.515625 10.518230 29.460938 10.398438 29.351562 C10.278645 29.242187 10.218750 29.104168 10.218750 28.937500 C10.218750 28.781249 10.335936 28.596355 10.570312 28.382812 C10.804689 28.169270 10.994791 28.062500 11.140625 28.062500 C11.359376 28.062500 11.468750 28.203124 11.468750 28.484375 C11.468750 28.703126 11.421875 28.929686 11.328125 29.164062 C11.234375 29.398439 11.041668 29.515625 10.750000 29.515625 Z M13.625000 22.593750 C12.802079 22.593750 12.101565 22.526042 11.523438 22.390625 C10.945310 22.255208 10.656250 21.963544 10.656250 21.515625 C10.656250 21.213540 10.789061 20.893231 11.054688 20.554688 C11.320314 20.216144 11.679685 19.927085 12.132812 19.687500 C12.585940 19.447915 13.083331 19.328125 13.625000 19.328125 C14.177086 19.328125 14.677081 19.447915 15.125000 19.687500 C15.572919 19.927085 15.929686 20.216144 16.195312 20.554688 C16.460939 20.893231 16.593750 21.213540 16.593750 21.515625 C16.593750 21.963544 16.304690 22.255208 15.726562 22.390625 C15.148435 22.526042 14.447921 22.593750 13.625000 22.593750 Z M20.546875 28.656250 C20.401041 28.656250 20.276042 28.627604 20.171875 28.570312 C20.067708 28.513021 20.015625 28.390626 20.015625 28.203125 C20.015625 27.994791 20.075520 27.726564 20.195312 27.398438 C20.315105 27.070311 20.468749 26.776043 20.656250 26.515625 C20.843751 26.255207 21.046874 26.125000 21.265625 26.125000 C21.453126 26.125000 21.619791 26.208332 21.765625 26.375000 C21.911459 26.541668 21.984375 26.749999 21.984375 27.000000 C21.984375 27.489586 21.867189 27.888019 21.632812 28.195312 C21.398436 28.502606 21.036461 28.656250 20.546875 28.656250 Z M8.671875 19.500000 C8.036455 19.500000 7.437503 19.286460 6.875000 18.859375 L7.453125 17.812500 C7.744793 18.104168 8.151039 18.250000 8.671875 18.250000 C9.109377 18.250000 9.518227 18.109376 9.898438 17.828125 C10.278648 17.546874 10.593749 17.182294 10.843750 16.734375 C10.614582 16.963543 10.354168 17.143229 10.062500 17.273438 C9.770832 17.403646 9.463543 17.468750 9.140625 17.468750 C8.515622 17.468750 7.994794 17.236981 7.578125 16.773438 C7.161456 16.309894 6.953125 15.729170 6.953125 15.031250 C6.953125 14.447914 7.101561 13.906252 7.398438 13.406250 C7.695314 12.906248 8.080727 12.505210 8.554688 12.203125 C9.028648 11.901040 9.531247 11.750000 10.062500 11.750000 C10.718753 11.750000 11.239581 12.010414 11.625000 12.531250 C12.010419 13.052086 12.203125 13.776037 12.203125 14.703125 C12.203125 15.567713 12.039064 16.364580 11.710938 17.093750 C11.382811 17.822920 10.953128 18.406248 10.421875 18.843750 C9.890622 19.281252 9.307295 19.500000 8.671875 19.500000 Z M13.703125 30.937500 C15.776052 30.937500 17.536451 30.770835 18.984375 30.437500 C20.432299 30.104165 21.536455 29.656253 22.296875 29.093750 C23.057295 28.531247 23.437500 27.916670 23.437500 27.250000 C23.437500 27.010415 23.398438 26.763022 23.320312 26.507812 C23.242187 26.252603 23.135417 25.989585 23.000000 25.718750 C22.833332 25.385415 22.690105 25.026044 22.570312 24.640625 C22.450520 24.255206 22.390625 23.838544 22.390625 23.390625 L22.390625 17.406250 C22.390625 15.666658 22.294272 14.148444 22.101562 12.851562 C21.908853 11.554681 21.567711 10.544274 21.078125 9.820312 C20.588539 9.096351 19.890630 8.734375 18.984375 8.734375 C18.901041 8.734375 18.812500 8.736979 18.718750 8.742188 C18.625000 8.747396 18.531250 8.760417 18.437500 8.781250 C18.364583 8.291664 18.156252 7.916668 17.812500 7.656250 C17.468748 7.395832 16.864588 7.265625 16.000000 7.265625 C15.354163 7.265625 14.721357 7.414061 14.101562 7.710938 C13.481768 8.007814 12.859378 8.374998 12.234375 8.812500 C11.609372 9.250002 10.960941 9.687498 10.289062 10.125000 C9.617184 10.562502 8.906254 10.929686 8.156250 11.226562 C7.406246 11.523439 6.604171 11.671875 5.750000 11.671875 C5.750000 12.557296 5.664063 13.507807 5.492188 14.523438 C5.320312 15.539068 5.067710 16.520829 4.734375 17.468750 C4.734375 18.895840 4.747396 20.190098 4.773438 21.351562 C4.799479 22.513027 4.841146 23.570308 4.898438 24.523438 C4.955729 25.476567 5.031250 26.364579 5.125000 27.187500 C5.250001 28.281255 6.057284 29.179684 7.546875 29.882812 C9.036466 30.585941 11.088529 30.937500 13.703125 30.937500 Z M9.281250 16.218750 C9.718752 16.218750 10.106769 16.039064 10.445312 15.679688 C10.783856 15.320311 10.953125 14.859378 10.953125 14.296875 C10.953125 13.901040 10.861980 13.588543 10.679688 13.359375 C10.497395 13.130207 10.239585 13.015625 9.906250 13.015625 C9.458331 13.015625 9.065106 13.200519 8.726562 13.570312 C8.388019 13.940106 8.218750 14.380206 8.218750 14.890625 C8.218750 15.265627 8.315103 15.580728 8.507812 15.835938 C8.700522 16.091147 8.958332 16.218750 9.281250 16.218750 Z M19.562500 22.015625 C19.260415 22.015625 18.934898 21.903647 18.585938 21.679688 C18.236977 21.455728 18.062500 21.213543 18.062500 20.953125 C18.062500 20.765624 18.218748 20.572918 18.531250 20.375000 C18.843752 20.177082 19.197915 20.010417 19.593750 19.875000 C19.989585 19.739583 20.312499 19.671875 20.562500 19.671875 C21.114586 19.671875 21.390625 19.958330 21.390625 20.531250 C21.390625 20.885418 21.179690 21.221353 20.757812 21.539062 C20.335935 21.856772 19.937502 22.015625 19.562500 22.015625 Z M18.375000 19.500000 C17.749997 19.500000 17.169274 19.281252 16.632812 18.843750 C16.096351 18.406248 15.664064 17.822920 15.335938 17.093750 C15.007811 16.364580 14.843750 15.567713 14.843750 14.703125 C14.843750 13.776037 15.036456 13.052086 15.421875 12.531250 C15.807294 12.010414 16.328122 11.750000 16.984375 11.750000 C17.515628 11.750000 18.018227 11.901040 18.492188 12.203125 C18.966148 12.505210 19.351561 12.906248 19.648438 13.406250 C19.945314 13.906252 20.093750 14.447914 20.093750 15.031250 C20.093750 15.729170 19.885419 16.309894 19.468750 16.773438 C19.052081 17.236981 18.531253 17.468750 17.906250 17.468750 C17.583332 17.468750 17.278647 17.403646 16.992188 17.273438 C16.705728 17.143229 16.442710 16.963543 16.203125 16.734375 C16.453126 17.182294 16.768227 17.546874 17.148438 17.828125 C17.528648 18.109376 17.937498 18.250000 18.375000 18.250000 C18.895836 18.250000 19.302082 18.104168 19.593750 17.812500 L20.171875 18.859375 C19.609372 19.286460 19.010420 19.500000 18.375000 19.500000 Z M17.765625 16.218750 C18.098960 16.218750 18.359374 16.091147 18.546875 15.835938 C18.734376 15.580728 18.828125 15.265627 18.828125 14.890625 C18.828125 14.380206 18.661460 13.940106 18.328125 13.570312 C17.994790 13.200519 17.598961 13.015625 17.140625 13.015625 C16.817707 13.015625 16.562501 13.130207 16.375000 13.359375 C16.187499 13.588543 16.093750 13.901040 16.093750 14.296875 C16.093750 14.859378 16.263019 15.320311 16.601562 15.679688 C16.940106 16.039064 17.328123 16.218750 17.765625 16.218750 Z M34.140625 27.343750" /></svg>