<svg clip-rule="evenodd" fill-rule="evenodd" stroke-linejoin="round" stroke-miterlimit="2" viewBox="0 0 250 250" xmlns="http://www.w3.org/2000/svg"><path fill="rgb(255, 255, 255)" d="m144.225 182.21c-25.217-9.196-43.243-33.401-43.243-61.783 0-36.282 29.457-65.739 65.739-65.739 18.601 0 35.408 7.742 47.371 20.177l.332-3.704c.171-1.91.916-3.413 2.235-4.509 1.32-1.097 2.919-1.562 4.797-1.394s3.406.906 4.582 2.212c1.176 1.307 1.679 2.919 1.507 4.837l-.101 1.135 9.105.814.015-.158c.186-2.081 1.061-3.775 2.624-5.083 1.565-1.307 3.388-1.867 5.469-1.681l41.152 3.682c.014.002.026.008.039.018 1.852.275 3.379 1.13 4.58 2.566 1.307 1.564 1.867 3.387 1.681 5.469l-.014.158 9.105.814.102-1.135c.172-1.917.952-3.415 2.343-4.492 1.389-1.077 3.023-1.531 4.901-1.363s3.369.909 4.473 2.223c1.104 1.313 1.571 2.924 1.4 4.835l-9.505 106.217c-.171 1.91-.915 3.413-2.234 4.51s-2.937 1.56-4.855 1.389c-1.877-.168-3.391-.948-4.541-2.339-1.151-1.391-1.642-3.021-1.475-4.891l.099-1.107-9.105-.815-.031.345c-.187 2.088-1.062 3.78-2.624 5.074-1.436 1.188-3.09 1.752-4.962 1.692-.014.009-.027.012-.041.011l-11.022-.986-1.463 16.343c-.361 4.037-2.104 7.348-5.229 9.932-3.126 2.583-6.728 3.692-10.808 3.327l-90.256-8.076c-4.037-.361-7.349-2.089-9.936-5.183-2.586-3.095-3.698-6.662-3.337-10.699zm121.072-6.12 5.332.477 8.316-92.941-29.771-2.664-2.545 28.44 9.707.868c4.079.365 7.426 2.112 10.04 5.24s3.739 6.732 3.374 10.811zm-51.274-69.606c-6.021-20.431-24.932-35.361-47.302-35.361-27.212 0-49.304 22.092-49.304 49.304 0 19.719 11.6 36.749 28.343 44.633l4.423-49.437c.365-4.08 2.096-7.428 5.193-10.045 3.098-2.617 6.666-3.745 10.703-3.384zm-41.537-25.551c3.362.376 5.786 3.412 5.409 6.774-.376 3.363-3.412 5.787-6.774 5.41-15.142-1.697-28.791 9.202-30.488 24.343-.376 3.362-3.412 5.786-6.775 5.41-3.362-.377-5.786-3.413-5.409-6.775 2.451-21.871 22.166-37.613 44.037-35.162zm57.979 23.37 5.26.471 1.541-17.229-12.887-1.153-.189 2.11c2.738 4.915 4.864 10.216 6.275 15.801zm57.023 5.102 12.888 1.153 1.541-17.228-12.887-1.153zm-5.416 60.538 12.887 1.153 1.541-17.229-12.887-1.153zm2.715-30.348 12.887 1.153 1.528-17.07-12.887-1.154zm-127.116 56.562 90.257 8.077 7.089-79.231-90.256-8.076zm27.683-45.371c-2.891-.258-5.259-1.484-7.102-3.677-1.844-2.193-2.637-4.735-2.378-7.626.258-2.891 1.484-5.259 3.677-7.102 2.193-1.845 4.735-2.637 7.626-2.379 2.891.259 5.259 1.485 7.102 3.678 1.844 2.193 2.637 4.735 2.379 7.625-.259 2.892-1.485 5.26-3.678 7.103-2.193 1.844-4.735 2.637-7.626 2.378zm-14.18 34.23c-1.551-.139-2.578-.889-3.081-2.25-.504-1.36-.232-2.658.817-3.893l14.426-16.217c.807-.865 1.825-1.269 3.055-1.211 1.228.057 2.226.642 2.993 1.752l9.919 16.676 19.536-20.918c.816-.969 1.835-1.373 3.055-1.212s2.166.741 2.838 1.739l15.515 25.775c.709 1.392.695 2.712-.042 3.962s-1.881 1.806-3.432 1.667z" transform="matrix(1.11331 -.0996183 .0996183 1.11331 -116.076 -6.50836)"/></svg>