<svg clip-rule="evenodd" fill-rule="evenodd" stroke-linejoin="round" stroke-miterlimit="2" viewBox="0 0 250 250" xmlns="http://www.w3.org/2000/svg"><path fill="rgb(255, 255, 255)" d="m208.738 223.246c-9.377 0-17.311-3.257-23.807-9.757-6.497-6.502-9.751-14.423-9.751-23.769v-14.911c0-9.258 3.253-17.159 9.755-23.703 6.505-6.546 14.43-9.823 23.78-9.823 9.347 0 17.291 3.275 23.834 9.819 6.546 6.545 9.819 14.447 9.819 23.707v14.911c0 9.347-3.266 17.269-9.79 23.771-6.521 6.5-14.466 9.755-23.84 9.755zm-.082-15.137c5.069 0 9.409-1.797 13.023-5.39 3.611-3.589 5.417-7.922 5.417-12.999v-1.445c0-.72-.286-1.409-.794-1.918-.509-.509-1.199-.794-1.918-.794h-31.355c-.719 0-1.409.285-1.918.794-.508.509-.794 1.198-.794 1.918v1.445c0 5.079 1.79 9.414 5.372 13.005 3.58 3.589 7.903 5.384 12.967 5.384zm7.415-38.499c0 .675.548 1.223 1.223 1.223h8.212c.37 0 .719-.167.952-.454.228-.282.318-.65.246-1.016-.646-2.654-1.823-5.064-3.578-7.222-1.511-1.858-3.268-3.35-5.274-4.472-.359-.196-.796-.189-1.149.019-.354.209-.571.589-.571 1.001v.034c-.061 3.387-.061 7.902-.061 10.887zm-25.31-.24-.001.005c-.07.342.017.699.237.971.222.275.557.435.91.435h.041c2.481.052 5.776.052 8.171.052.675 0 1.223-.547 1.223-1.223v-10.922c0-.433-.229-.833-.601-1.053-.366-.216-.816-.227-1.198-.026-1.981 1.176-3.743 2.671-5.256 4.532-1.754 2.156-2.93 4.565-3.526 7.229zm-132.605-49.372c-2.311 0-4.248-.765-5.811-2.297-1.564-1.532-2.346-3.452-2.346-5.762 0-2.312.766-4.249 2.298-5.811 1.531-1.564 3.452-2.346 5.762-2.346 2.312 0 4.249.766 5.811 2.297 1.564 1.532 2.346 3.452 2.346 5.762 0 2.312-.766 4.249-2.297 5.811-1.532 1.564-3.453 2.346-5.763 2.346zm33.514-33.784c-2.311 0-4.248-.766-5.811-2.298-1.564-1.53-2.346-3.451-2.346-5.762s.766-4.248 2.298-5.81c1.531-1.564 3.452-2.346 5.762-2.346 2.312 0 4.249.766 5.811 2.297 1.564 1.531 2.346 3.451 2.346 5.763 0 2.311-.766 4.248-2.297 5.811-1.532 1.563-3.453 2.345-5.763 2.345zm100.002 0c-2.312 0-4.249-.766-5.811-2.298-1.564-1.53-2.346-3.451-2.346-5.762s.766-4.248 2.297-5.81c1.532-1.564 3.452-2.346 5.762-2.346 2.312 0 4.249.766 5.811 2.297 1.564 1.531 2.346 3.451 2.346 5.763 0 2.311-.766 4.248-2.297 5.811-1.532 1.563-3.452 2.345-5.762 2.345zm-100.002 33.784c-2.311 0-4.248-.765-5.811-2.297-1.564-1.532-2.346-3.452-2.346-5.762 0-2.312.766-4.249 2.298-5.811 1.531-1.564 3.452-2.346 5.762-2.346 2.312 0 4.249.766 5.811 2.297 1.564 1.532 2.346 3.452 2.346 5.762 0 2.312-.766 4.249-2.297 5.811-1.532 1.564-3.453 2.346-5.763 2.346zm-33.514-33.784c-2.311 0-4.248-.766-5.811-2.298-1.564-1.53-2.346-3.451-2.346-5.762s.766-4.248 2.298-5.81c1.531-1.564 3.452-2.346 5.762-2.346 2.312 0 4.249.766 5.811 2.297 1.564 1.531 2.346 3.451 2.346 5.763 0 2.311-.766 4.248-2.297 5.811-1.532 1.563-3.453 2.345-5.763 2.345zm66.758 0c-2.312 0-4.249-.766-5.811-2.298-1.564-1.53-2.346-3.451-2.346-5.762s.766-4.248 2.297-5.81c1.532-1.564 3.453-2.346 5.763-2.346 2.311 0 4.248.766 5.811 2.297 1.564 1.531 2.346 3.451 2.346 5.763 0 2.311-.766 4.248-2.298 5.811-1.531 1.563-3.452 2.345-5.762 2.345zm33.514 0c-2.312 0-4.249-.766-5.811-2.298-1.564-1.53-2.346-3.451-2.346-5.762s.766-4.248 2.297-5.81c1.532-1.564 3.453-2.346 5.763-2.346 2.311 0 4.248.766 5.811 2.297 1.564 1.531 2.346 3.451 2.346 5.763 0 2.311-.766 4.248-2.298 5.811-1.531 1.563-3.452 2.345-5.762 2.345zm-150.862-33.785c0-7.109 2.475-13.166 7.425-18.17 4.951-5.003 10.945-7.506 17.981-7.506h184.057c7.036 0 13.03 2.502 17.981 7.505 4.95 5.004 7.425 11.061 7.425 18.17v.001 20.994c0 7.089-5.748 12.838-12.839 12.838-7.09 0-12.837-5.749-12.837-12.838v-14.704c0-3.474-2.816-6.29-6.289-6.29h-171.052c-3.421.06-6.175 2.853-6.175 6.289v61.92c0 7.09-5.748 12.838-12.838 12.838s-12.838-5.748-12.838-12.838v-68.209zm126.879 71.162v74.223h5.757c3.561 0 6.564 1.249 9.022 3.716 2.45 2.459 3.694 5.463 3.694 9.03 0 3.581-1.254 6.582-3.715 9.021l-.002.001c-2.452 2.429-5.446 3.664-8.999 3.664h-10.614c-5.698 0-10.549-2.008-14.559-6.018-4.008-4.008-6.016-8.859-6.016-14.557v-83.937c0-5.736 2.005-10.621 5.998-14.658 4.014-4.056 8.873-6.084 14.577-6.084h99.897c3.519 0 6.556 1.261 9.098 3.817 2.533 2.547 3.785 5.588 3.785 9.11 0 3.594-1.298 6.618-3.881 9.076-2.517 2.396-5.517 3.596-9.002 3.596zm-120.376 40.371c-1.517-2.148-1.772-4.943-.673-7.331 1.239-2.689 2.723-5.256 4.434-7.671 1.52-2.145 4.064-3.32 6.682-3.082 2.493.227 5.619.511 7.717.703l2.335.213c.49-.36.99-.708 1.497-1.042.114-.066.225-.134.335-.206.999-.658 2.035-1.256 3.1-1.803l.048-.025c.642-.327 1.294-.638 1.955-.927l4.228-9.166c1.101-2.388 3.394-4.006 6.013-4.247 2.947-.273 5.912-.27 8.86.004 2.617.244 4.907 1.859 6.01 4.245 1.05 2.272 2.367 5.122 3.25 7.035l.981 2.129c.558.245 1.109.502 1.653.775.112.066.227.129.345.188 1.07.536 2.106 1.134 3.111 1.782l.046.03c.605.392 1.199.801 1.78 1.228l10.051-.921c2.62-.239 5.167.938 6.686 3.084 1.709 2.417 3.19 4.987 4.426 7.676 1.098 2.388.844 5.178-.671 7.326-1.443 2.046-3.252 4.611-4.467 6.333l-1.353 1.915c.067.605.118 1.21.155 1.818-.001.131.002.261.01.393.07 1.193.07 2.391.011 3.585l-.002.055c-.037.719-.094 1.438-.174 2.156l5.823 8.245c1.517 2.148 1.772 4.942.673 7.331-1.239 2.688-2.723 5.256-4.434 7.67-1.52 2.146-4.064 3.321-6.682 3.083-2.493-.227-5.619-.512-7.717-.703l-2.335-.214c-.49.36-.99.708-1.497 1.043-.114.065-.225.134-.335.205-.999.658-2.035 1.257-3.1 1.803l-.048.025c-.642.328-1.294.638-1.955.927l-4.228 9.166c-1.101 2.389-3.394 4.006-6.013 4.247-2.947.273-5.912.27-8.86-.003-2.617-.245-4.907-1.859-6.01-4.246-1.05-2.272-2.367-5.122-3.25-7.035l-.981-2.129c-.558-.244-1.109-.502-1.653-.774-.112-.066-.227-.129-.345-.188-1.07-.536-2.106-1.135-3.111-1.783l-.046-.029c-.605-.392-1.199-.801-1.78-1.229l-10.051.921c-2.62.24-5.167-.937-6.686-3.084-1.709-2.416-3.19-4.986-4.426-7.675-1.098-2.388-.844-5.179.671-7.327 1.443-2.046 3.252-4.611 4.467-6.333l1.353-1.914c-.067-.605-.118-1.211-.155-1.818.001-.131-.002-.262-.01-.394-.07-1.193-.07-2.391-.011-3.585l.002-.055c.037-.719.094-1.438.174-2.155zm53.936 24.364c3.321-3.321 4.984-7.341 4.984-12.061 0-4.719-1.663-8.739-4.984-12.06s-7.34-4.983-12.06-4.983c-4.719 0-8.739 1.662-12.06 4.983s-4.983 7.341-4.983 12.06c0 4.72 1.662 8.74 4.983 12.061s7.341 4.983 12.06 4.983c4.72 0 8.739-1.662 12.06-4.983z"/></svg>